<?xml version="1.0" encoding="utf-8" standalone="no"?>
<!DOCTYPE svg PUBLIC "-//W3C//DTD SVG 1.1//EN"
  "http://www.w3.org/Graphics/SVG/1.1/DTD/svg11.dtd">
<!-- Created with matplotlib (http://matplotlib.org/) -->
<svg height="432pt" version="1.1" viewBox="0 0 504 432" width="504pt" xmlns="http://www.w3.org/2000/svg" xmlns:xlink="http://www.w3.org/1999/xlink">
 <defs>
  <style type="text/css">
*{stroke-linecap:butt;stroke-linejoin:round;}
  </style>
 </defs>
 <g id="figure_1">
  <g id="patch_1">
   <path d="M 0 432 
L 504 432 
L 504 0 
L 0 0 
z
" style="fill:#ffffff;"/>
  </g>
  <g id="axes_1">
   <g id="patch_2">
    <path d="M 63 384.48 
L 453.6 384.48 
L 453.6 51.84 
L 63 51.84 
z
" style="fill:#ffffff;"/>
   </g>
   <g id="matplotlib.axis_1">
    <g id="xtick_1">
     <g id="line2d_1">
      <defs>
       <path d="M 0 0 
L 0 3.5 
" id="ma1bfe084b0" style="stroke:#000000;stroke-width:0.8;"/>
      </defs>
      <g>
       <use style="stroke:#000000;stroke-width:0.8;" x="80.754545" xlink:href="#ma1bfe084b0" y="384.48"/>
      </g>
     </g>
     <g id="text_1">
      <!-- 0 -->
      <defs>
       <path d="M 31.78125 66.40625 
Q 24.171875 66.40625 20.328125 58.90625 
Q 16.5 51.421875 16.5 36.375 
Q 16.5 21.390625 20.328125 13.890625 
Q 24.171875 6.390625 31.78125 6.390625 
Q 39.453125 6.390625 43.28125 13.890625 
Q 47.125 21.390625 47.125 36.375 
Q 47.125 51.421875 43.28125 58.90625 
Q 39.453125 66.40625 31.78125 66.40625 
z
M 31.78125 74.21875 
Q 44.046875 74.21875 50.515625 64.515625 
Q 56.984375 54.828125 56.984375 36.375 
Q 56.984375 17.96875 50.515625 8.265625 
Q 44.046875 -1.421875 31.78125 -1.421875 
Q 19.53125 -1.421875 13.0625 8.265625 
Q 6.59375 17.96875 6.59375 36.375 
Q 6.59375 54.828125 13.0625 64.515625 
Q 19.53125 74.21875 31.78125 74.21875 
z
" id="DejaVuSans-30"/>
      </defs>
      <g transform="translate(77.573295 399.078438)scale(0.1 -0.1)">
       <use xlink:href="#DejaVuSans-30"/>
      </g>
     </g>
    </g>
    <g id="xtick_2">
     <g id="line2d_2">
      <g>
       <use style="stroke:#000000;stroke-width:0.8;" x="151.767796" xlink:href="#ma1bfe084b0" y="384.48"/>
      </g>
     </g>
     <g id="text_2">
      <!-- 720 -->
      <defs>
       <path d="M 8.203125 72.90625 
L 55.078125 72.90625 
L 55.078125 68.703125 
L 28.609375 0 
L 18.3125 0 
L 43.21875 64.59375 
L 8.203125 64.59375 
z
" id="DejaVuSans-37"/>
       <path d="M 19.1875 8.296875 
L 53.609375 8.296875 
L 53.609375 0 
L 7.328125 0 
L 7.328125 8.296875 
Q 12.9375 14.109375 22.625 23.890625 
Q 32.328125 33.6875 34.8125 36.53125 
Q 39.546875 41.84375 41.421875 45.53125 
Q 43.3125 49.21875 43.3125 52.78125 
Q 43.3125 58.59375 39.234375 62.25 
Q 35.15625 65.921875 28.609375 65.921875 
Q 23.96875 65.921875 18.8125 64.3125 
Q 13.671875 62.703125 7.8125 59.421875 
L 7.8125 69.390625 
Q 13.765625 71.78125 18.9375 73 
Q 24.125 74.21875 28.421875 74.21875 
Q 39.75 74.21875 46.484375 68.546875 
Q 53.21875 62.890625 53.21875 53.421875 
Q 53.21875 48.921875 51.53125 44.890625 
Q 49.859375 40.875 45.40625 35.40625 
Q 44.1875 33.984375 37.640625 27.21875 
Q 31.109375 20.453125 19.1875 8.296875 
z
" id="DejaVuSans-32"/>
      </defs>
      <g transform="translate(142.224046 399.078438)scale(0.1 -0.1)">
       <use xlink:href="#DejaVuSans-37"/>
       <use x="63.623047" xlink:href="#DejaVuSans-32"/>
       <use x="127.246094" xlink:href="#DejaVuSans-30"/>
      </g>
     </g>
    </g>
    <g id="xtick_3">
     <g id="line2d_3">
      <g>
       <use style="stroke:#000000;stroke-width:0.8;" x="222.781046" xlink:href="#ma1bfe084b0" y="384.48"/>
      </g>
     </g>
     <g id="text_3">
      <!-- 1440 -->
      <defs>
       <path d="M 12.40625 8.296875 
L 28.515625 8.296875 
L 28.515625 63.921875 
L 10.984375 60.40625 
L 10.984375 69.390625 
L 28.421875 72.90625 
L 38.28125 72.90625 
L 38.28125 8.296875 
L 54.390625 8.296875 
L 54.390625 0 
L 12.40625 0 
z
" id="DejaVuSans-31"/>
       <path d="M 37.796875 64.3125 
L 12.890625 25.390625 
L 37.796875 25.390625 
z
M 35.203125 72.90625 
L 47.609375 72.90625 
L 47.609375 25.390625 
L 58.015625 25.390625 
L 58.015625 17.1875 
L 47.609375 17.1875 
L 47.609375 0 
L 37.796875 0 
L 37.796875 17.1875 
L 4.890625 17.1875 
L 4.890625 26.703125 
z
" id="DejaVuSans-34"/>
      </defs>
      <g transform="translate(210.056046 399.078438)scale(0.1 -0.1)">
       <use xlink:href="#DejaVuSans-31"/>
       <use x="63.623047" xlink:href="#DejaVuSans-34"/>
       <use x="127.246094" xlink:href="#DejaVuSans-34"/>
       <use x="190.869141" xlink:href="#DejaVuSans-30"/>
      </g>
     </g>
    </g>
    <g id="xtick_4">
     <g id="line2d_4">
      <g>
       <use style="stroke:#000000;stroke-width:0.8;" x="293.794296" xlink:href="#ma1bfe084b0" y="384.48"/>
      </g>
     </g>
     <g id="text_4">
      <!-- 2160 -->
      <defs>
       <path d="M 33.015625 40.375 
Q 26.375 40.375 22.484375 35.828125 
Q 18.609375 31.296875 18.609375 23.390625 
Q 18.609375 15.53125 22.484375 10.953125 
Q 26.375 6.390625 33.015625 6.390625 
Q 39.65625 6.390625 43.53125 10.953125 
Q 47.40625 15.53125 47.40625 23.390625 
Q 47.40625 31.296875 43.53125 35.828125 
Q 39.65625 40.375 33.015625 40.375 
z
M 52.59375 71.296875 
L 52.59375 62.3125 
Q 48.875 64.0625 45.09375 64.984375 
Q 41.3125 65.921875 37.59375 65.921875 
Q 27.828125 65.921875 22.671875 59.328125 
Q 17.53125 52.734375 16.796875 39.40625 
Q 19.671875 43.65625 24.015625 45.921875 
Q 28.375 48.1875 33.59375 48.1875 
Q 44.578125 48.1875 50.953125 41.515625 
Q 57.328125 34.859375 57.328125 23.390625 
Q 57.328125 12.15625 50.6875 5.359375 
Q 44.046875 -1.421875 33.015625 -1.421875 
Q 20.359375 -1.421875 13.671875 8.265625 
Q 6.984375 17.96875 6.984375 36.375 
Q 6.984375 53.65625 15.1875 63.9375 
Q 23.390625 74.21875 37.203125 74.21875 
Q 40.921875 74.21875 44.703125 73.484375 
Q 48.484375 72.75 52.59375 71.296875 
z
" id="DejaVuSans-36"/>
      </defs>
      <g transform="translate(281.069296 399.078438)scale(0.1 -0.1)">
       <use xlink:href="#DejaVuSans-32"/>
       <use x="63.623047" xlink:href="#DejaVuSans-31"/>
       <use x="127.246094" xlink:href="#DejaVuSans-36"/>
       <use x="190.869141" xlink:href="#DejaVuSans-30"/>
      </g>
     </g>
    </g>
    <g id="xtick_5">
     <g id="line2d_5">
      <g>
       <use style="stroke:#000000;stroke-width:0.8;" x="364.807547" xlink:href="#ma1bfe084b0" y="384.48"/>
      </g>
     </g>
     <g id="text_5">
      <!-- 2880 -->
      <defs>
       <path d="M 31.78125 34.625 
Q 24.75 34.625 20.71875 30.859375 
Q 16.703125 27.09375 16.703125 20.515625 
Q 16.703125 13.921875 20.71875 10.15625 
Q 24.75 6.390625 31.78125 6.390625 
Q 38.8125 6.390625 42.859375 10.171875 
Q 46.921875 13.96875 46.921875 20.515625 
Q 46.921875 27.09375 42.890625 30.859375 
Q 38.875 34.625 31.78125 34.625 
z
M 21.921875 38.8125 
Q 15.578125 40.375 12.03125 44.71875 
Q 8.5 49.078125 8.5 55.328125 
Q 8.5 64.0625 14.71875 69.140625 
Q 20.953125 74.21875 31.78125 74.21875 
Q 42.671875 74.21875 48.875 69.140625 
Q 55.078125 64.0625 55.078125 55.328125 
Q 55.078125 49.078125 51.53125 44.71875 
Q 48 40.375 41.703125 38.8125 
Q 48.828125 37.15625 52.796875 32.3125 
Q 56.78125 27.484375 56.78125 20.515625 
Q 56.78125 9.90625 50.3125 4.234375 
Q 43.84375 -1.421875 31.78125 -1.421875 
Q 19.734375 -1.421875 13.25 4.234375 
Q 6.78125 9.90625 6.78125 20.515625 
Q 6.78125 27.484375 10.78125 32.3125 
Q 14.796875 37.15625 21.921875 38.8125 
z
M 18.3125 54.390625 
Q 18.3125 48.734375 21.84375 45.5625 
Q 25.390625 42.390625 31.78125 42.390625 
Q 38.140625 42.390625 41.71875 45.5625 
Q 45.3125 48.734375 45.3125 54.390625 
Q 45.3125 60.0625 41.71875 63.234375 
Q 38.140625 66.40625 31.78125 66.40625 
Q 25.390625 66.40625 21.84375 63.234375 
Q 18.3125 60.0625 18.3125 54.390625 
z
" id="DejaVuSans-38"/>
      </defs>
      <g transform="translate(352.082547 399.078438)scale(0.1 -0.1)">
       <use xlink:href="#DejaVuSans-32"/>
       <use x="63.623047" xlink:href="#DejaVuSans-38"/>
       <use x="127.246094" xlink:href="#DejaVuSans-38"/>
       <use x="190.869141" xlink:href="#DejaVuSans-30"/>
      </g>
     </g>
    </g>
    <g id="text_6">
     <!-- time [ms] -->
     <defs>
      <path d="M 18.3125 70.21875 
L 18.3125 54.6875 
L 36.8125 54.6875 
L 36.8125 47.703125 
L 18.3125 47.703125 
L 18.3125 18.015625 
Q 18.3125 11.328125 20.140625 9.421875 
Q 21.96875 7.515625 27.59375 7.515625 
L 36.8125 7.515625 
L 36.8125 0 
L 27.59375 0 
Q 17.1875 0 13.234375 3.875 
Q 9.28125 7.765625 9.28125 18.015625 
L 9.28125 47.703125 
L 2.6875 47.703125 
L 2.6875 54.6875 
L 9.28125 54.6875 
L 9.28125 70.21875 
z
" id="DejaVuSans-74"/>
      <path d="M 9.421875 54.6875 
L 18.40625 54.6875 
L 18.40625 0 
L 9.421875 0 
z
M 9.421875 75.984375 
L 18.40625 75.984375 
L 18.40625 64.59375 
L 9.421875 64.59375 
z
" id="DejaVuSans-69"/>
      <path d="M 52 44.1875 
Q 55.375 50.25 60.0625 53.125 
Q 64.75 56 71.09375 56 
Q 79.640625 56 84.28125 50.015625 
Q 88.921875 44.046875 88.921875 33.015625 
L 88.921875 0 
L 79.890625 0 
L 79.890625 32.71875 
Q 79.890625 40.578125 77.09375 44.375 
Q 74.3125 48.1875 68.609375 48.1875 
Q 61.625 48.1875 57.5625 43.546875 
Q 53.515625 38.921875 53.515625 30.90625 
L 53.515625 0 
L 44.484375 0 
L 44.484375 32.71875 
Q 44.484375 40.625 41.703125 44.40625 
Q 38.921875 48.1875 33.109375 48.1875 
Q 26.21875 48.1875 22.15625 43.53125 
Q 18.109375 38.875 18.109375 30.90625 
L 18.109375 0 
L 9.078125 0 
L 9.078125 54.6875 
L 18.109375 54.6875 
L 18.109375 46.1875 
Q 21.1875 51.21875 25.484375 53.609375 
Q 29.78125 56 35.6875 56 
Q 41.65625 56 45.828125 52.96875 
Q 50 49.953125 52 44.1875 
z
" id="DejaVuSans-6d"/>
      <path d="M 56.203125 29.59375 
L 56.203125 25.203125 
L 14.890625 25.203125 
Q 15.484375 15.921875 20.484375 11.0625 
Q 25.484375 6.203125 34.421875 6.203125 
Q 39.59375 6.203125 44.453125 7.46875 
Q 49.3125 8.734375 54.109375 11.28125 
L 54.109375 2.78125 
Q 49.265625 0.734375 44.1875 -0.34375 
Q 39.109375 -1.421875 33.890625 -1.421875 
Q 20.796875 -1.421875 13.15625 6.1875 
Q 5.515625 13.8125 5.515625 26.8125 
Q 5.515625 40.234375 12.765625 48.109375 
Q 20.015625 56 32.328125 56 
Q 43.359375 56 49.78125 48.890625 
Q 56.203125 41.796875 56.203125 29.59375 
z
M 47.21875 32.234375 
Q 47.125 39.59375 43.09375 43.984375 
Q 39.0625 48.390625 32.421875 48.390625 
Q 24.90625 48.390625 20.390625 44.140625 
Q 15.875 39.890625 15.1875 32.171875 
z
" id="DejaVuSans-65"/>
      <path id="DejaVuSans-20"/>
      <path d="M 8.59375 75.984375 
L 29.296875 75.984375 
L 29.296875 69 
L 17.578125 69 
L 17.578125 -6.203125 
L 29.296875 -6.203125 
L 29.296875 -13.1875 
L 8.59375 -13.1875 
z
" id="DejaVuSans-5b"/>
      <path d="M 44.28125 53.078125 
L 44.28125 44.578125 
Q 40.484375 46.53125 36.375 47.5 
Q 32.28125 48.484375 27.875 48.484375 
Q 21.1875 48.484375 17.84375 46.4375 
Q 14.5 44.390625 14.5 40.28125 
Q 14.5 37.15625 16.890625 35.375 
Q 19.28125 33.59375 26.515625 31.984375 
L 29.59375 31.296875 
Q 39.15625 29.25 43.1875 25.515625 
Q 47.21875 21.78125 47.21875 15.09375 
Q 47.21875 7.46875 41.1875 3.015625 
Q 35.15625 -1.421875 24.609375 -1.421875 
Q 20.21875 -1.421875 15.453125 -0.5625 
Q 10.6875 0.296875 5.421875 2 
L 5.421875 11.28125 
Q 10.40625 8.6875 15.234375 7.390625 
Q 20.0625 6.109375 24.8125 6.109375 
Q 31.15625 6.109375 34.5625 8.28125 
Q 37.984375 10.453125 37.984375 14.40625 
Q 37.984375 18.0625 35.515625 20.015625 
Q 33.0625 21.96875 24.703125 23.78125 
L 21.578125 24.515625 
Q 13.234375 26.265625 9.515625 29.90625 
Q 5.8125 33.546875 5.8125 39.890625 
Q 5.8125 47.609375 11.28125 51.796875 
Q 16.75 56 26.8125 56 
Q 31.78125 56 36.171875 55.265625 
Q 40.578125 54.546875 44.28125 53.078125 
z
" id="DejaVuSans-73"/>
      <path d="M 30.421875 75.984375 
L 30.421875 -13.1875 
L 9.71875 -13.1875 
L 9.71875 -6.203125 
L 21.390625 -6.203125 
L 21.390625 69 
L 9.71875 69 
L 9.71875 75.984375 
z
" id="DejaVuSans-5d"/>
     </defs>
     <g transform="translate(234.038281 412.756563)scale(0.1 -0.1)">
      <use xlink:href="#DejaVuSans-74"/>
      <use x="39.208984" xlink:href="#DejaVuSans-69"/>
      <use x="66.992188" xlink:href="#DejaVuSans-6d"/>
      <use x="164.404297" xlink:href="#DejaVuSans-65"/>
      <use x="225.927734" xlink:href="#DejaVuSans-20"/>
      <use x="257.714844" xlink:href="#DejaVuSans-5b"/>
      <use x="296.728516" xlink:href="#DejaVuSans-6d"/>
      <use x="394.140625" xlink:href="#DejaVuSans-73"/>
      <use x="446.240234" xlink:href="#DejaVuSans-5d"/>
     </g>
    </g>
   </g>
   <g id="matplotlib.axis_2">
    <g id="ytick_1">
     <g id="line2d_6">
      <defs>
       <path d="M 0 0 
L -3.5 0 
" id="m590e8eff04" style="stroke:#000000;stroke-width:0.8;"/>
      </defs>
      <g>
       <use style="stroke:#000000;stroke-width:0.8;" x="63" xlink:href="#m590e8eff04" y="359.012514"/>
      </g>
     </g>
     <g id="text_7">
      <!-- −80 -->
      <defs>
       <path d="M 10.59375 35.5 
L 73.1875 35.5 
L 73.1875 27.203125 
L 10.59375 27.203125 
z
" id="DejaVuSans-2212"/>
      </defs>
      <g transform="translate(34.895313 362.811732)scale(0.1 -0.1)">
       <use xlink:href="#DejaVuSans-2212"/>
       <use x="83.789062" xlink:href="#DejaVuSans-38"/>
       <use x="147.412109" xlink:href="#DejaVuSans-30"/>
      </g>
     </g>
    </g>
    <g id="ytick_2">
     <g id="line2d_7">
      <g>
       <use style="stroke:#000000;stroke-width:0.8;" x="63" xlink:href="#m590e8eff04" y="306.188878"/>
      </g>
     </g>
     <g id="text_8">
      <!-- −60 -->
      <g transform="translate(34.895313 309.988097)scale(0.1 -0.1)">
       <use xlink:href="#DejaVuSans-2212"/>
       <use x="83.789062" xlink:href="#DejaVuSans-36"/>
       <use x="147.412109" xlink:href="#DejaVuSans-30"/>
      </g>
     </g>
    </g>
    <g id="ytick_3">
     <g id="line2d_8">
      <g>
       <use style="stroke:#000000;stroke-width:0.8;" x="63" xlink:href="#m590e8eff04" y="253.365243"/>
      </g>
     </g>
     <g id="text_9">
      <!-- −40 -->
      <g transform="translate(34.895313 257.164462)scale(0.1 -0.1)">
       <use xlink:href="#DejaVuSans-2212"/>
       <use x="83.789062" xlink:href="#DejaVuSans-34"/>
       <use x="147.412109" xlink:href="#DejaVuSans-30"/>
      </g>
     </g>
    </g>
    <g id="ytick_4">
     <g id="line2d_9">
      <g>
       <use style="stroke:#000000;stroke-width:0.8;" x="63" xlink:href="#m590e8eff04" y="200.541608"/>
      </g>
     </g>
     <g id="text_10">
      <!-- −20 -->
      <g transform="translate(34.895313 204.340827)scale(0.1 -0.1)">
       <use xlink:href="#DejaVuSans-2212"/>
       <use x="83.789062" xlink:href="#DejaVuSans-32"/>
       <use x="147.412109" xlink:href="#DejaVuSans-30"/>
      </g>
     </g>
    </g>
    <g id="ytick_5">
     <g id="line2d_10">
      <g>
       <use style="stroke:#000000;stroke-width:0.8;" x="63" xlink:href="#m590e8eff04" y="147.717973"/>
      </g>
     </g>
     <g id="text_11">
      <!-- 0 -->
      <g transform="translate(49.6375 151.517192)scale(0.1 -0.1)">
       <use xlink:href="#DejaVuSans-30"/>
      </g>
     </g>
    </g>
    <g id="ytick_6">
     <g id="line2d_11">
      <g>
       <use style="stroke:#000000;stroke-width:0.8;" x="63" xlink:href="#m590e8eff04" y="94.894338"/>
      </g>
     </g>
     <g id="text_12">
      <!-- 20 -->
      <g transform="translate(43.275 98.693556)scale(0.1 -0.1)">
       <use xlink:href="#DejaVuSans-32"/>
       <use x="63.623047" xlink:href="#DejaVuSans-30"/>
      </g>
     </g>
    </g>
    <g id="text_13">
     <!-- Voltage [mV] -->
     <defs>
      <path d="M 28.609375 0 
L 0.78125 72.90625 
L 11.078125 72.90625 
L 34.1875 11.53125 
L 57.328125 72.90625 
L 67.578125 72.90625 
L 39.796875 0 
z
" id="DejaVuSans-56"/>
      <path d="M 30.609375 48.390625 
Q 23.390625 48.390625 19.1875 42.75 
Q 14.984375 37.109375 14.984375 27.296875 
Q 14.984375 17.484375 19.15625 11.84375 
Q 23.34375 6.203125 30.609375 6.203125 
Q 37.796875 6.203125 41.984375 11.859375 
Q 46.1875 17.53125 46.1875 27.296875 
Q 46.1875 37.015625 41.984375 42.703125 
Q 37.796875 48.390625 30.609375 48.390625 
z
M 30.609375 56 
Q 42.328125 56 49.015625 48.375 
Q 55.71875 40.765625 55.71875 27.296875 
Q 55.71875 13.875 49.015625 6.21875 
Q 42.328125 -1.421875 30.609375 -1.421875 
Q 18.84375 -1.421875 12.171875 6.21875 
Q 5.515625 13.875 5.515625 27.296875 
Q 5.515625 40.765625 12.171875 48.375 
Q 18.84375 56 30.609375 56 
z
" id="DejaVuSans-6f"/>
      <path d="M 9.421875 75.984375 
L 18.40625 75.984375 
L 18.40625 0 
L 9.421875 0 
z
" id="DejaVuSans-6c"/>
      <path d="M 34.28125 27.484375 
Q 23.390625 27.484375 19.1875 25 
Q 14.984375 22.515625 14.984375 16.5 
Q 14.984375 11.71875 18.140625 8.90625 
Q 21.296875 6.109375 26.703125 6.109375 
Q 34.1875 6.109375 38.703125 11.40625 
Q 43.21875 16.703125 43.21875 25.484375 
L 43.21875 27.484375 
z
M 52.203125 31.203125 
L 52.203125 0 
L 43.21875 0 
L 43.21875 8.296875 
Q 40.140625 3.328125 35.546875 0.953125 
Q 30.953125 -1.421875 24.3125 -1.421875 
Q 15.921875 -1.421875 10.953125 3.296875 
Q 6 8.015625 6 15.921875 
Q 6 25.140625 12.171875 29.828125 
Q 18.359375 34.515625 30.609375 34.515625 
L 43.21875 34.515625 
L 43.21875 35.40625 
Q 43.21875 41.609375 39.140625 45 
Q 35.0625 48.390625 27.6875 48.390625 
Q 23 48.390625 18.546875 47.265625 
Q 14.109375 46.140625 10.015625 43.890625 
L 10.015625 52.203125 
Q 14.9375 54.109375 19.578125 55.046875 
Q 24.21875 56 28.609375 56 
Q 40.484375 56 46.34375 49.84375 
Q 52.203125 43.703125 52.203125 31.203125 
z
" id="DejaVuSans-61"/>
      <path d="M 45.40625 27.984375 
Q 45.40625 37.75 41.375 43.109375 
Q 37.359375 48.484375 30.078125 48.484375 
Q 22.859375 48.484375 18.828125 43.109375 
Q 14.796875 37.75 14.796875 27.984375 
Q 14.796875 18.265625 18.828125 12.890625 
Q 22.859375 7.515625 30.078125 7.515625 
Q 37.359375 7.515625 41.375 12.890625 
Q 45.40625 18.265625 45.40625 27.984375 
z
M 54.390625 6.78125 
Q 54.390625 -7.171875 48.1875 -13.984375 
Q 42 -20.796875 29.203125 -20.796875 
Q 24.46875 -20.796875 20.265625 -20.09375 
Q 16.0625 -19.390625 12.109375 -17.921875 
L 12.109375 -9.1875 
Q 16.0625 -11.328125 19.921875 -12.34375 
Q 23.78125 -13.375 27.78125 -13.375 
Q 36.625 -13.375 41.015625 -8.765625 
Q 45.40625 -4.15625 45.40625 5.171875 
L 45.40625 9.625 
Q 42.625 4.78125 38.28125 2.390625 
Q 33.9375 0 27.875 0 
Q 17.828125 0 11.671875 7.65625 
Q 5.515625 15.328125 5.515625 27.984375 
Q 5.515625 40.671875 11.671875 48.328125 
Q 17.828125 56 27.875 56 
Q 33.9375 56 38.28125 53.609375 
Q 42.625 51.21875 45.40625 46.390625 
L 45.40625 54.6875 
L 54.390625 54.6875 
z
" id="DejaVuSans-67"/>
     </defs>
     <g transform="translate(28.815625 251.079531)rotate(-90)scale(0.1 -0.1)">
      <use xlink:href="#DejaVuSans-56"/>
      <use x="68.298828" xlink:href="#DejaVuSans-6f"/>
      <use x="129.480469" xlink:href="#DejaVuSans-6c"/>
      <use x="157.263672" xlink:href="#DejaVuSans-74"/>
      <use x="196.472656" xlink:href="#DejaVuSans-61"/>
      <use x="257.751953" xlink:href="#DejaVuSans-67"/>
      <use x="321.228516" xlink:href="#DejaVuSans-65"/>
      <use x="382.751953" xlink:href="#DejaVuSans-20"/>
      <use x="414.539062" xlink:href="#DejaVuSans-5b"/>
      <use x="453.552734" xlink:href="#DejaVuSans-6d"/>
      <use x="550.964844" xlink:href="#DejaVuSans-56"/>
      <use x="619.373047" xlink:href="#DejaVuSans-5d"/>
     </g>
    </g>
   </g>
   <g id="line2d_12">
    <path clip-path="url(#pe8c29a0c4c)" d="M 80.754545 319.394787 
L 81.183584 321.288141 
L 81.666868 322.587432 
L 82.164948 323.326373 
L 82.717273 323.759766 
L 83.417542 324.01768 
L 84.502467 324.15472 
L 87.047108 324.19067 
L 100.480448 324.157404 
L 100.633324 339.435339 
L 100.963733 350.067513 
L 101.412497 357.934671 
L 101.89085 362.75699 
L 102.379066 365.616177 
L 102.872214 367.291397 
L 103.375225 368.269766 
L 103.907824 368.840956 
L 104.514395 369.166823 
L 105.313295 369.330509 
L 106.659587 369.347406 
L 118.144994 369.053343 
L 130.069303 369.033073 
L 130.222178 353.695943 
L 130.552587 342.845503 
L 131.001352 334.773763 
L 131.46491 330.073848 
L 131.9334 327.406166 
L 132.401891 325.915341 
L 132.890107 325.055595 
L 133.422706 324.553747 
L 134.073661 324.253138 
L 135.020504 324.082762 
L 136.855013 324.020388 
L 139.932254 324.046363 
L 139.937186 319.394787 
L 140.045678 319.930662 
L 140.573346 321.938343 
L 141.056631 322.94966 
L 141.574435 323.540139 
L 142.176076 323.888441 
L 142.999632 324.090565 
L 144.449486 324.182079 
L 149.893835 324.176778 
L 159.663088 324.157404 
L 159.815964 321.103326 
L 160.141442 319.034345 
L 160.575411 317.586563 
L 161.048833 316.728326 
L 161.57157 316.22465 
L 162.212661 315.922613 
L 163.14471 315.750516 
L 164.989082 315.680175 
L 175.142991 315.712594 
L 189.251943 315.728054 
L 189.404818 318.782233 
L 189.730296 320.843372 
L 190.169197 322.297233 
L 190.64755 323.159642 
L 191.175218 323.666299 
L 191.81631 323.96707 
L 192.743428 324.135707 
L 194.577937 324.199225 
L 199.114894 324.183646 
L 199.119826 319.394787 
L 199.228318 319.930662 
L 199.755986 321.938343 
L 200.239271 322.94966 
L 200.757076 323.540139 
L 201.358716 323.888441 
L 202.182272 324.090565 
L 203.632126 324.182079 
L 209.076475 324.176778 
L 218.845729 324.157404 
L 218.998604 318.049481 
L 219.31915 313.965425 
L 219.748189 311.101022 
L 220.206816 309.422314 
L 220.695032 308.425593 
L 221.237494 307.804954 
L 221.903243 307.385583 
L 222.845155 307.074028 
L 224.645144 306.759545 
L 225.882944 306.451949 
L 226.20349 306.167231 
L 226.297188 305.835429 
L 226.311983 303.4543 
L 226.351435 199.496294 
L 226.385955 70.840376 
L 226.459927 182.180291 
L 226.652255 304.788387 
L 226.839651 310.975434 
L 227.051704 312.092825 
L 227.184854 312.133449 
L 227.199648 312.122199 
L 227.387044 311.814592 
L 227.978822 310.209194 
L 228.580462 308.942229 
L 229.127855 308.282911 
L 229.734427 307.896787 
L 230.533326 307.665126 
L 231.869756 307.539966 
L 235.790279 307.483816 
L 248.434583 307.426238 
L 248.587459 313.550766 
L 248.908004 317.632098 
L 249.337043 320.495038 
L 249.79567 322.180375 
L 250.274023 323.148275 
L 250.786897 323.705844 
L 251.393468 324.033857 
L 252.231819 324.216509 
L 253.760577 324.284056 
L 258.297534 324.238793 
L 258.302466 319.394787 
L 258.410958 319.930662 
L 258.938626 321.938343 
L 259.421911 322.94966 
L 259.939716 323.540139 
L 260.541356 323.888441 
L 261.364912 324.090565 
L 262.814766 324.182079 
L 268.259115 324.176778 
L 278.028369 324.157404 
L 278.181244 314.995282 
L 278.50179 308.873878 
L 278.930829 304.570499 
L 279.419045 301.793111 
L 279.912192 299.25026 
L 279.926987 296.609747 
L 279.966439 177.711016 
L 279.996027 69.161411 
L 280.074931 185.851237 
L 280.262327 301.682858 
L 280.43986 307.002814 
L 280.582873 307.447659 
L 280.60753 307.434143 
L 280.730817 307.162913 
L 281.051363 305.741571 
L 281.914371 301.960674 
L 282.51108 300.383106 
L 283.186692 298.668722 
L 283.226144 298.130088 
L 283.24587 283.774683 
L 283.309979 75.961703 
L 283.37902 174.890785 
L 283.576279 301.634689 
L 283.753812 306.797096 
L 283.911619 307.311844 
L 283.926414 307.306897 
L 284.034906 307.120697 
L 284.296274 306.098591 
L 285.31709 301.87237 
L 285.894072 300.538892 
L 286.811327 298.614979 
L 286.835984 298.125549 
L 286.85571 282.096952 
L 286.919819 81.755032 
L 286.98886 173.036677 
L 287.186119 299.823676 
L 287.368584 305.57828 
L 287.560911 306.37212 
L 287.664472 306.295582 
L 287.866663 305.733018 
L 289.291859 301.034708 
L 289.96254 299.965271 
L 290.495139 299.036331 
L 290.593769 298.359425 
L 290.608563 293.466892 
L 290.682535 85.917843 
L 290.781165 213.830806 
L 290.958698 299.417169 
L 291.146094 304.961193 
L 291.343353 305.851293 
L 291.456777 305.813755 
L 291.461708 305.807118 
L 291.654036 305.346248 
L 293.207451 300.811571 
L 294.016213 299.684729 
L 294.356485 299.017319 
L 294.435388 298.442087 
L 294.455114 289.258227 
L 294.524155 89.135261 
L 294.603058 185.416093 
L 294.800318 298.17583 
L 294.987714 304.114369 
L 295.199767 305.276077 
L 295.313191 305.311092 
L 295.337848 305.28977 
L 295.515382 304.943572 
L 296.043049 303.222157 
L 296.694004 301.47243 
L 297.310439 300.441615 
L 298.247419 298.993764 
L 298.311528 298.5131 
L 298.326323 295.261035 
L 298.370706 168.946238 
L 298.405226 91.122258 
L 298.474267 176.325007 
L 298.671526 296.711555 
L 298.858922 303.496742 
L 299.075907 304.934414 
L 299.209057 305.034533 
L 299.233714 305.019234 
L 299.401384 304.739425 
L 299.835354 303.427475 
L 300.545487 301.5199 
L 301.166853 300.488066 
L 302.148216 298.994633 
L 302.212326 298.309468 
L 302.232051 282.722587 
L 302.301092 92.508297 
L 302.365201 168.493319 
L 302.567392 295.874717 
L 302.759719 303.097086 
L 302.981636 304.674923 
L 303.12958 304.81229 
L 303.149306 304.802152 
L 303.312045 304.558681 
L 303.711494 303.422966 
L 304.461078 301.468878 
L 305.092307 300.45604 
L 306.044082 299.039775 
L 306.113123 298.534265 
L 306.127917 295.057385 
L 306.172301 169.355587 
L 306.206821 93.47399 
L 306.275862 175.817005 
L 306.478052 295.643122 
L 306.67038 302.731117 
L 306.897227 304.412495 
L 307.059966 304.58039 
L 307.074761 304.573695 
L 307.232568 304.360058 
L 307.60736 303.360885 
L 307.617223 303.33182 
L 307.770099 312.051932 
L 308.070919 317.023068 
L 308.4753 320.309717 
L 308.914201 322.216171 
L 309.37776 323.312607 
L 309.865976 323.931128 
L 310.423233 324.284692 
L 311.158022 324.474254 
L 312.38596 324.52969 
L 317.075793 324.373757 
L 317.480174 324.362064 
L 317.485106 319.394787 
L 317.593598 319.930662 
L 318.121266 321.938343 
L 318.604551 322.94966 
L 319.122356 323.540139 
L 319.723996 323.888441 
L 320.547552 324.090565 
L 321.997406 324.182079 
L 327.441755 324.176778 
L 337.211009 324.157404 
L 337.363884 311.940027 
L 337.689362 303.670864 
L 338.143058 297.500817 
L 338.468535 293.025265 
L 338.483329 281.831185 
L 338.542507 67.787934 
L 338.616479 178.493909 
L 338.808807 298.82761 
L 338.976477 303.230528 
L 339.035655 303.345084 
L 339.089901 303.258999 
L 339.25264 302.461187 
L 340.840575 291.608893 
L 340.894821 290.180435 
L 340.909615 279.193068 
L 340.973725 74.072951 
L 341.042765 175.126576 
L 341.235093 299.65782 
L 341.407695 303.954878 
L 341.461941 304.048499 
L 341.516187 303.962912 
L 341.673994 303.183 
L 342.349606 298.066102 
L 343.040013 293.990011 
L 343.414805 291.507254 
L 343.459188 289.356423 
L 343.493709 202.606922 
L 343.533161 79.508263 
L 343.607133 179.38748 
L 343.79946 298.335913 
L 343.972062 302.894385 
L 344.055897 303.091081 
L 344.105212 303.02628 
L 344.258088 302.385506 
L 344.761098 298.920988 
L 345.481093 294.681468 
L 346.013693 291.542084 
L 346.053145 289.447342 
L 346.087665 203.771621 
L 346.127117 83.984659 
L 346.201089 177.361975 
L 346.398348 297.429298 
L 346.575881 302.152251 
L 346.679442 302.421697 
L 346.723825 302.374002 
L 346.866838 301.864824 
L 347.281082 299.278892 
L 348.065187 294.799531 
L 348.632306 291.601214 
L 348.666827 290.282302 
L 348.686553 254.454743 
L 348.74573 87.040007 
L 348.819703 178.395335 
L 349.016962 296.270173 
L 349.199426 301.37631 
L 349.327645 301.765357 
L 349.357233 301.745037 
L 349.475589 301.432223 
L 349.78134 299.804732 
L 350.777498 294.389345 
L 351.245989 291.839159 
L 351.295303 290.127786 
L 351.319961 237.77672 
L 351.374207 89.220649 
L 351.448179 178.540605 
L 351.645438 295.431304 
L 351.827903 300.797598 
L 351.980778 301.319659 
L 352.000504 301.309711 
L 352.108997 301.076343 
L 352.375297 299.815807 
L 353.583508 293.63818 
L 353.884328 291.830658 
L 353.928711 290.380742 
L 353.948437 254.468772 
L 354.007615 90.875027 
L 354.081587 176.86428 
L 354.278846 294.521893 
L 354.461311 300.303184 
L 354.633912 300.990381 
L 354.638844 300.989785 
L 354.732542 300.854704 
L 354.944595 300.013796 
L 356.547325 291.486514 
L 356.571982 289.017377 
L 356.611434 180.806169 
L 356.645955 92.03753 
L 356.719927 175.909113 
L 356.922117 294.228606 
L 357.109513 300.022736 
L 357.291978 300.745372 
L 357.385676 300.623793 
L 357.592798 299.844504 
L 359.175802 291.734685 
L 359.210322 290.226144 
L 359.234979 237.909696 
L 359.289225 92.529305 
L 359.363198 177.283147 
L 359.560457 293.353037 
L 359.747853 299.605274 
L 359.94018 300.479534 
L 360.033878 300.385455 
L 360.226206 299.726721 
L 361.725375 292.56747 
L 361.84373 291.142412 
L 361.858524 286.815437 
L 361.932496 92.976713 
L 362.031126 209.491219 
L 362.213591 293.969007 
L 362.405918 299.620429 
L 362.593314 300.387633 
L 362.687012 300.288493 
L 362.884271 299.610431 
L 364.393303 292.412679 
L 364.487001 291.164231 
L 364.501795 287.016706 
L 364.575767 93.277006 
L 364.674397 208.984588 
L 364.856862 293.690114 
L 365.049189 299.45381 
L 365.241517 300.278883 
L 365.335215 300.188403 
L 365.527542 299.549926 
L 366.799863 293.628114 
L 366.952739 305.594012 
L 367.25849 312.850238 
L 367.682597 317.984108 
L 368.136293 321.013497 
L 368.59492 322.696494 
L 369.06341 323.633534 
L 369.561489 324.159116 
L 370.148335 324.45398 
L 370.962029 324.595578 
L 372.475992 324.593072 
L 376.662814 324.410487 
L 376.667746 319.394787 
L 376.776238 319.930662 
L 377.303906 321.938343 
L 377.787191 322.94966 
L 378.304996 323.540139 
L 378.906636 323.888441 
L 379.730192 324.090565 
L 381.180046 324.182079 
L 386.624395 324.176778 
L 396.393649 324.157404 
L 396.546525 308.882659 
L 396.872002 298.459128 
L 397.325698 286.469917 
L 397.360218 178.549105 
L 397.389807 66.96 
L 397.468711 183.572481 
L 397.656107 295.631286 
L 397.818845 299.358901 
L 397.843503 299.352656 
L 397.873092 299.278424 
L 398.016104 298.348347 
L 398.598018 292.426822 
L 399.184864 285.304185 
L 399.244042 281.520041 
L 399.273631 203.942611 
L 399.313082 72.479936 
L 399.387055 178.368329 
L 399.579382 297.903725 
L 399.742121 301.020971 
L 399.796367 300.888971 
L 399.959106 299.666415 
L 401.024304 288.33683 
L 401.261015 284.548051 
L 401.295536 281.296333 
L 401.330056 179.3221 
L 401.364576 77.980761 
L 401.438548 177.045483 
L 401.630876 296.491401 
L 401.798546 300.086039 
L 401.823204 300.088412 
L 401.862655 299.995988 
L 402.015531 299.004768 
L 402.617171 292.914326 
L 403.327304 284.790321 
L 403.366755 281.691398 
L 403.401276 186.106049 
L 403.440728 82.570876 
L 403.509768 173.817147 
L 403.707027 295.506165 
L 403.874697 299.262324 
L 403.909218 299.295872 
L 403.958533 299.198506 
L 404.111408 298.290655 
L 404.644008 293.246409 
L 405.413318 284.824079 
L 405.45277 281.383563 
L 405.492221 158.306464 
L 405.526742 85.717088 
L 405.595782 173.580318 
L 405.793042 294.358749 
L 405.965643 298.608081 
L 406.014958 298.686143 
L 406.069204 298.58651 
L 406.227011 297.695894 
L 406.754679 292.936054 
L 407.504264 284.984585 
L 407.548647 280.613225 
L 407.617688 87.981849 
L 407.721249 211.78081 
L 407.903713 294.564847 
L 408.076315 298.08162 
L 408.12563 298.15414 
L 408.179876 298.066098 
L 408.332752 297.277269 
L 408.801242 293.280443 
L 409.600141 285.113357 
L 409.644524 282.218996 
L 409.674113 210.619043 
L 409.718496 89.436497 
L 409.792468 176.122084 
L 409.989727 292.898376 
L 410.16726 297.559739 
L 410.241233 297.7351 
L 410.295479 297.655735 
L 410.443423 296.944816 
L 410.877393 293.407671 
L 411.696018 285.317918 
L 411.745333 282.770478 
L 411.765059 243.557003 
L 411.824236 90.545447 
L 411.898208 179.255192 
L 412.095467 292.435066 
L 412.273001 297.184165 
L 412.361767 297.413848 
L 412.411082 297.344401 
L 412.559026 296.670102 
L 412.97327 293.405591 
L 413.796827 285.446258 
L 413.851073 282.758476 
L 413.870799 242.951815 
L 413.929976 91.282863 
L 414.003949 179.247674 
L 414.201208 291.930777 
L 414.378741 296.867572 
L 414.47737 297.158144 
L 414.521754 297.105756 
L 414.654903 296.563225 
L 415.00997 293.923131 
L 415.892704 285.693102 
L 415.956813 283.024622 
L 415.971607 265.228563 
L 416.035717 91.666408 
L 416.104757 170.909258 
L 416.306948 291.372533 
L 416.489412 296.595767 
L 416.592973 296.91577 
L 416.637357 296.868192 
L 416.770506 296.348402 
L 417.120641 293.815376 
L 417.993512 285.832792 
L 418.067485 282.515208 
L 418.097073 213.074694 
L 418.141457 92.176332 
L 418.215429 174.215413 
L 418.417619 291.351105 
L 418.600084 296.496298 
L 418.708576 296.829787 
L 418.748028 296.788886 
L 418.876247 296.312138 
L 419.206655 293.981891 
L 420.094321 285.998588 
L 420.173225 283.218582 
L 420.188019 269.670161 
L 420.252128 92.276232 
L 420.321169 169.342894 
L 420.523359 290.806802 
L 420.705824 296.287704 
L 420.82418 296.685667 
L 420.8587 296.653982 
L 420.981987 296.227508 
L 421.29267 294.113995 
L 422.190198 286.221372 
L 422.283896 283.095085 
L 422.298691 266.202581 
L 422.3628 92.376013 
L 422.431841 170.427338 
L 422.634031 290.687872 
L 422.816496 296.174336 
L 422.934851 296.593511 
L 422.974303 296.559723 
L 423.09759 296.133911 
L 423.408273 294.036285 
L 424.30087 286.217204 
L 424.394568 283.040256 
L 424.414294 246.68154 
L 424.473472 92.474219 
L 424.547444 177.229008 
L 424.744703 290.598407 
L 424.927167 296.103414 
L 425.050454 296.538532 
L 425.084975 296.509281 
L 425.20333 296.118787 
L 425.499218 294.168693 
L 425.982503 290.318154 
L 426.135379 304.888607 
L 426.431267 312.957713 
L 426.825785 318.120923 
L 427.259755 321.132728 
L 427.70852 322.827603 
L 428.172078 323.778348 
L 428.665226 324.308741 
L 429.237277 324.599032 
L 430.026313 324.73277 
L 431.476167 324.712811 
L 435.845455 324.467329 
L 435.845455 324.467329 
" style="fill:none;stroke:#ff0000;stroke-linecap:square;stroke-width:1.5;"/>
   </g>
   <g id="patch_3">
    <path d="M 63 384.48 
L 63 51.84 
" style="fill:none;stroke:#000000;stroke-linecap:square;stroke-linejoin:miter;stroke-width:0.8;"/>
   </g>
   <g id="patch_4">
    <path d="M 453.6 384.48 
L 453.6 51.84 
" style="fill:none;stroke:#000000;stroke-linecap:square;stroke-linejoin:miter;stroke-width:0.8;"/>
   </g>
   <g id="patch_5">
    <path d="M 63 384.48 
L 453.6 384.48 
" style="fill:none;stroke:#000000;stroke-linecap:square;stroke-linejoin:miter;stroke-width:0.8;"/>
   </g>
   <g id="patch_6">
    <path d="M 63 51.84 
L 453.6 51.84 
" style="fill:none;stroke:#000000;stroke-linecap:square;stroke-linejoin:miter;stroke-width:0.8;"/>
   </g>
   <g id="legend_1">
    <g id="patch_7">
     <path d="M 70 74.518125 
L 133.139062 74.518125 
Q 135.139062 74.518125 135.139062 72.518125 
L 135.139062 58.84 
Q 135.139062 56.84 133.139062 56.84 
L 70 56.84 
Q 68 56.84 68 58.84 
L 68 72.518125 
Q 68 74.518125 70 74.518125 
z
" style="fill:#ffffff;opacity:0.8;stroke:#cccccc;stroke-linejoin:miter;"/>
    </g>
    <g id="line2d_13">
     <path d="M 72 64.938438 
L 92 64.938438 
" style="fill:none;stroke:#ff0000;stroke-linecap:square;stroke-width:1.5;"/>
    </g>
    <g id="line2d_14"/>
    <g id="text_14">
     <!-- model -->
     <defs>
      <path d="M 45.40625 46.390625 
L 45.40625 75.984375 
L 54.390625 75.984375 
L 54.390625 0 
L 45.40625 0 
L 45.40625 8.203125 
Q 42.578125 3.328125 38.25 0.953125 
Q 33.9375 -1.421875 27.875 -1.421875 
Q 17.96875 -1.421875 11.734375 6.484375 
Q 5.515625 14.40625 5.515625 27.296875 
Q 5.515625 40.1875 11.734375 48.09375 
Q 17.96875 56 27.875 56 
Q 33.9375 56 38.25 53.625 
Q 42.578125 51.265625 45.40625 46.390625 
z
M 14.796875 27.296875 
Q 14.796875 17.390625 18.875 11.75 
Q 22.953125 6.109375 30.078125 6.109375 
Q 37.203125 6.109375 41.296875 11.75 
Q 45.40625 17.390625 45.40625 27.296875 
Q 45.40625 37.203125 41.296875 42.84375 
Q 37.203125 48.484375 30.078125 48.484375 
Q 22.953125 48.484375 18.875 42.84375 
Q 14.796875 37.203125 14.796875 27.296875 
z
" id="DejaVuSans-64"/>
     </defs>
     <g transform="translate(100 68.438438)scale(0.1 -0.1)">
      <use xlink:href="#DejaVuSans-6d"/>
      <use x="97.412109" xlink:href="#DejaVuSans-6f"/>
      <use x="158.59375" xlink:href="#DejaVuSans-64"/>
      <use x="222.070312" xlink:href="#DejaVuSans-65"/>
      <use x="283.59375" xlink:href="#DejaVuSans-6c"/>
     </g>
    </g>
   </g>
  </g>
 </g>
 <defs>
  <clipPath id="pe8c29a0c4c">
   <rect height="332.64" width="390.6" x="63" y="51.84"/>
  </clipPath>
 </defs>
</svg>
