<?xml version="1.0" encoding="utf-8" standalone="no"?>
<!DOCTYPE svg PUBLIC "-//W3C//DTD SVG 1.1//EN"
  "http://www.w3.org/Graphics/SVG/1.1/DTD/svg11.dtd">
<!-- Created with matplotlib (https://matplotlib.org/) -->
<svg height="432pt" version="1.1" viewBox="0 0 504 432" width="504pt" xmlns="http://www.w3.org/2000/svg" xmlns:xlink="http://www.w3.org/1999/xlink">
 <defs>
  <style type="text/css">
*{stroke-linecap:butt;stroke-linejoin:round;}
  </style>
 </defs>
 <g id="figure_1">
  <g id="patch_1">
   <path d="M 0 432 
L 504 432 
L 504 0 
L 0 0 
z
" style="fill:#ffffff;"/>
  </g>
  <g id="axes_1">
   <g id="patch_2">
    <path d="M 63 384.48 
L 453.6 384.48 
L 453.6 51.84 
L 63 51.84 
z
" style="fill:#ffffff;"/>
   </g>
   <g id="matplotlib.axis_1">
    <g id="xtick_1">
     <g id="line2d_1">
      <defs>
       <path d="M 0 0 
L 0 3.5 
" id="m1f48e299ac" style="stroke:#000000;stroke-width:0.8;"/>
      </defs>
      <g>
       <use style="stroke:#000000;stroke-width:0.8;" x="80.754545" xlink:href="#m1f48e299ac" y="384.48"/>
      </g>
     </g>
     <g id="text_1">
      <!-- 0 -->
      <defs>
       <path d="M 31.78125 66.40625 
Q 24.171875 66.40625 20.328125 58.90625 
Q 16.5 51.421875 16.5 36.375 
Q 16.5 21.390625 20.328125 13.890625 
Q 24.171875 6.390625 31.78125 6.390625 
Q 39.453125 6.390625 43.28125 13.890625 
Q 47.125 21.390625 47.125 36.375 
Q 47.125 51.421875 43.28125 58.90625 
Q 39.453125 66.40625 31.78125 66.40625 
z
M 31.78125 74.21875 
Q 44.046875 74.21875 50.515625 64.515625 
Q 56.984375 54.828125 56.984375 36.375 
Q 56.984375 17.96875 50.515625 8.265625 
Q 44.046875 -1.421875 31.78125 -1.421875 
Q 19.53125 -1.421875 13.0625 8.265625 
Q 6.59375 17.96875 6.59375 36.375 
Q 6.59375 54.828125 13.0625 64.515625 
Q 19.53125 74.21875 31.78125 74.21875 
z
" id="DejaVuSans-48"/>
      </defs>
      <g transform="translate(77.573295 399.078438)scale(0.1 -0.1)">
       <use xlink:href="#DejaVuSans-48"/>
      </g>
     </g>
    </g>
    <g id="xtick_2">
     <g id="line2d_2">
      <g>
       <use style="stroke:#000000;stroke-width:0.8;" x="151.763044" xlink:href="#m1f48e299ac" y="384.48"/>
      </g>
     </g>
     <g id="text_2">
      <!-- 880 -->
      <defs>
       <path d="M 31.78125 34.625 
Q 24.75 34.625 20.71875 30.859375 
Q 16.703125 27.09375 16.703125 20.515625 
Q 16.703125 13.921875 20.71875 10.15625 
Q 24.75 6.390625 31.78125 6.390625 
Q 38.8125 6.390625 42.859375 10.171875 
Q 46.921875 13.96875 46.921875 20.515625 
Q 46.921875 27.09375 42.890625 30.859375 
Q 38.875 34.625 31.78125 34.625 
z
M 21.921875 38.8125 
Q 15.578125 40.375 12.03125 44.71875 
Q 8.5 49.078125 8.5 55.328125 
Q 8.5 64.0625 14.71875 69.140625 
Q 20.953125 74.21875 31.78125 74.21875 
Q 42.671875 74.21875 48.875 69.140625 
Q 55.078125 64.0625 55.078125 55.328125 
Q 55.078125 49.078125 51.53125 44.71875 
Q 48 40.375 41.703125 38.8125 
Q 48.828125 37.15625 52.796875 32.3125 
Q 56.78125 27.484375 56.78125 20.515625 
Q 56.78125 9.90625 50.3125 4.234375 
Q 43.84375 -1.421875 31.78125 -1.421875 
Q 19.734375 -1.421875 13.25 4.234375 
Q 6.78125 9.90625 6.78125 20.515625 
Q 6.78125 27.484375 10.78125 32.3125 
Q 14.796875 37.15625 21.921875 38.8125 
z
M 18.3125 54.390625 
Q 18.3125 48.734375 21.84375 45.5625 
Q 25.390625 42.390625 31.78125 42.390625 
Q 38.140625 42.390625 41.71875 45.5625 
Q 45.3125 48.734375 45.3125 54.390625 
Q 45.3125 60.0625 41.71875 63.234375 
Q 38.140625 66.40625 31.78125 66.40625 
Q 25.390625 66.40625 21.84375 63.234375 
Q 18.3125 60.0625 18.3125 54.390625 
z
" id="DejaVuSans-56"/>
      </defs>
      <g transform="translate(142.219294 399.078438)scale(0.1 -0.1)">
       <use xlink:href="#DejaVuSans-56"/>
       <use x="63.623047" xlink:href="#DejaVuSans-56"/>
       <use x="127.246094" xlink:href="#DejaVuSans-48"/>
      </g>
     </g>
    </g>
    <g id="xtick_3">
     <g id="line2d_3">
      <g>
       <use style="stroke:#000000;stroke-width:0.8;" x="222.771543" xlink:href="#m1f48e299ac" y="384.48"/>
      </g>
     </g>
     <g id="text_3">
      <!-- 1760 -->
      <defs>
       <path d="M 12.40625 8.296875 
L 28.515625 8.296875 
L 28.515625 63.921875 
L 10.984375 60.40625 
L 10.984375 69.390625 
L 28.421875 72.90625 
L 38.28125 72.90625 
L 38.28125 8.296875 
L 54.390625 8.296875 
L 54.390625 0 
L 12.40625 0 
z
" id="DejaVuSans-49"/>
       <path d="M 8.203125 72.90625 
L 55.078125 72.90625 
L 55.078125 68.703125 
L 28.609375 0 
L 18.3125 0 
L 43.21875 64.59375 
L 8.203125 64.59375 
z
" id="DejaVuSans-55"/>
       <path d="M 33.015625 40.375 
Q 26.375 40.375 22.484375 35.828125 
Q 18.609375 31.296875 18.609375 23.390625 
Q 18.609375 15.53125 22.484375 10.953125 
Q 26.375 6.390625 33.015625 6.390625 
Q 39.65625 6.390625 43.53125 10.953125 
Q 47.40625 15.53125 47.40625 23.390625 
Q 47.40625 31.296875 43.53125 35.828125 
Q 39.65625 40.375 33.015625 40.375 
z
M 52.59375 71.296875 
L 52.59375 62.3125 
Q 48.875 64.0625 45.09375 64.984375 
Q 41.3125 65.921875 37.59375 65.921875 
Q 27.828125 65.921875 22.671875 59.328125 
Q 17.53125 52.734375 16.796875 39.40625 
Q 19.671875 43.65625 24.015625 45.921875 
Q 28.375 48.1875 33.59375 48.1875 
Q 44.578125 48.1875 50.953125 41.515625 
Q 57.328125 34.859375 57.328125 23.390625 
Q 57.328125 12.15625 50.6875 5.359375 
Q 44.046875 -1.421875 33.015625 -1.421875 
Q 20.359375 -1.421875 13.671875 8.265625 
Q 6.984375 17.96875 6.984375 36.375 
Q 6.984375 53.65625 15.1875 63.9375 
Q 23.390625 74.21875 37.203125 74.21875 
Q 40.921875 74.21875 44.703125 73.484375 
Q 48.484375 72.75 52.59375 71.296875 
z
" id="DejaVuSans-54"/>
      </defs>
      <g transform="translate(210.046543 399.078438)scale(0.1 -0.1)">
       <use xlink:href="#DejaVuSans-49"/>
       <use x="63.623047" xlink:href="#DejaVuSans-55"/>
       <use x="127.246094" xlink:href="#DejaVuSans-54"/>
       <use x="190.869141" xlink:href="#DejaVuSans-48"/>
      </g>
     </g>
    </g>
    <g id="xtick_4">
     <g id="line2d_4">
      <g>
       <use style="stroke:#000000;stroke-width:0.8;" x="293.780042" xlink:href="#m1f48e299ac" y="384.48"/>
      </g>
     </g>
     <g id="text_4">
      <!-- 2640 -->
      <defs>
       <path d="M 19.1875 8.296875 
L 53.609375 8.296875 
L 53.609375 0 
L 7.328125 0 
L 7.328125 8.296875 
Q 12.9375 14.109375 22.625 23.890625 
Q 32.328125 33.6875 34.8125 36.53125 
Q 39.546875 41.84375 41.421875 45.53125 
Q 43.3125 49.21875 43.3125 52.78125 
Q 43.3125 58.59375 39.234375 62.25 
Q 35.15625 65.921875 28.609375 65.921875 
Q 23.96875 65.921875 18.8125 64.3125 
Q 13.671875 62.703125 7.8125 59.421875 
L 7.8125 69.390625 
Q 13.765625 71.78125 18.9375 73 
Q 24.125 74.21875 28.421875 74.21875 
Q 39.75 74.21875 46.484375 68.546875 
Q 53.21875 62.890625 53.21875 53.421875 
Q 53.21875 48.921875 51.53125 44.890625 
Q 49.859375 40.875 45.40625 35.40625 
Q 44.1875 33.984375 37.640625 27.21875 
Q 31.109375 20.453125 19.1875 8.296875 
z
" id="DejaVuSans-50"/>
       <path d="M 37.796875 64.3125 
L 12.890625 25.390625 
L 37.796875 25.390625 
z
M 35.203125 72.90625 
L 47.609375 72.90625 
L 47.609375 25.390625 
L 58.015625 25.390625 
L 58.015625 17.1875 
L 47.609375 17.1875 
L 47.609375 0 
L 37.796875 0 
L 37.796875 17.1875 
L 4.890625 17.1875 
L 4.890625 26.703125 
z
" id="DejaVuSans-52"/>
      </defs>
      <g transform="translate(281.055042 399.078438)scale(0.1 -0.1)">
       <use xlink:href="#DejaVuSans-50"/>
       <use x="63.623047" xlink:href="#DejaVuSans-54"/>
       <use x="127.246094" xlink:href="#DejaVuSans-52"/>
       <use x="190.869141" xlink:href="#DejaVuSans-48"/>
      </g>
     </g>
    </g>
    <g id="xtick_5">
     <g id="line2d_5">
      <g>
       <use style="stroke:#000000;stroke-width:0.8;" x="364.788541" xlink:href="#m1f48e299ac" y="384.48"/>
      </g>
     </g>
     <g id="text_5">
      <!-- 3520 -->
      <defs>
       <path d="M 40.578125 39.3125 
Q 47.65625 37.796875 51.625 33 
Q 55.609375 28.21875 55.609375 21.1875 
Q 55.609375 10.40625 48.1875 4.484375 
Q 40.765625 -1.421875 27.09375 -1.421875 
Q 22.515625 -1.421875 17.65625 -0.515625 
Q 12.796875 0.390625 7.625 2.203125 
L 7.625 11.71875 
Q 11.71875 9.328125 16.59375 8.109375 
Q 21.484375 6.890625 26.8125 6.890625 
Q 36.078125 6.890625 40.9375 10.546875 
Q 45.796875 14.203125 45.796875 21.1875 
Q 45.796875 27.640625 41.28125 31.265625 
Q 36.765625 34.90625 28.71875 34.90625 
L 20.21875 34.90625 
L 20.21875 43.015625 
L 29.109375 43.015625 
Q 36.375 43.015625 40.234375 45.921875 
Q 44.09375 48.828125 44.09375 54.296875 
Q 44.09375 59.90625 40.109375 62.90625 
Q 36.140625 65.921875 28.71875 65.921875 
Q 24.65625 65.921875 20.015625 65.03125 
Q 15.375 64.15625 9.8125 62.3125 
L 9.8125 71.09375 
Q 15.4375 72.65625 20.34375 73.4375 
Q 25.25 74.21875 29.59375 74.21875 
Q 40.828125 74.21875 47.359375 69.109375 
Q 53.90625 64.015625 53.90625 55.328125 
Q 53.90625 49.265625 50.4375 45.09375 
Q 46.96875 40.921875 40.578125 39.3125 
z
" id="DejaVuSans-51"/>
       <path d="M 10.796875 72.90625 
L 49.515625 72.90625 
L 49.515625 64.59375 
L 19.828125 64.59375 
L 19.828125 46.734375 
Q 21.96875 47.46875 24.109375 47.828125 
Q 26.265625 48.1875 28.421875 48.1875 
Q 40.625 48.1875 47.75 41.5 
Q 54.890625 34.8125 54.890625 23.390625 
Q 54.890625 11.625 47.5625 5.09375 
Q 40.234375 -1.421875 26.90625 -1.421875 
Q 22.3125 -1.421875 17.546875 -0.640625 
Q 12.796875 0.140625 7.71875 1.703125 
L 7.71875 11.625 
Q 12.109375 9.234375 16.796875 8.0625 
Q 21.484375 6.890625 26.703125 6.890625 
Q 35.15625 6.890625 40.078125 11.328125 
Q 45.015625 15.765625 45.015625 23.390625 
Q 45.015625 31 40.078125 35.4375 
Q 35.15625 39.890625 26.703125 39.890625 
Q 22.75 39.890625 18.8125 39.015625 
Q 14.890625 38.140625 10.796875 36.28125 
z
" id="DejaVuSans-53"/>
      </defs>
      <g transform="translate(352.063541 399.078438)scale(0.1 -0.1)">
       <use xlink:href="#DejaVuSans-51"/>
       <use x="63.623047" xlink:href="#DejaVuSans-53"/>
       <use x="127.246094" xlink:href="#DejaVuSans-50"/>
       <use x="190.869141" xlink:href="#DejaVuSans-48"/>
      </g>
     </g>
    </g>
    <g id="text_6">
     <!-- time [ms] -->
     <defs>
      <path d="M 18.3125 70.21875 
L 18.3125 54.6875 
L 36.8125 54.6875 
L 36.8125 47.703125 
L 18.3125 47.703125 
L 18.3125 18.015625 
Q 18.3125 11.328125 20.140625 9.421875 
Q 21.96875 7.515625 27.59375 7.515625 
L 36.8125 7.515625 
L 36.8125 0 
L 27.59375 0 
Q 17.1875 0 13.234375 3.875 
Q 9.28125 7.765625 9.28125 18.015625 
L 9.28125 47.703125 
L 2.6875 47.703125 
L 2.6875 54.6875 
L 9.28125 54.6875 
L 9.28125 70.21875 
z
" id="DejaVuSans-116"/>
      <path d="M 9.421875 54.6875 
L 18.40625 54.6875 
L 18.40625 0 
L 9.421875 0 
z
M 9.421875 75.984375 
L 18.40625 75.984375 
L 18.40625 64.59375 
L 9.421875 64.59375 
z
" id="DejaVuSans-105"/>
      <path d="M 52 44.1875 
Q 55.375 50.25 60.0625 53.125 
Q 64.75 56 71.09375 56 
Q 79.640625 56 84.28125 50.015625 
Q 88.921875 44.046875 88.921875 33.015625 
L 88.921875 0 
L 79.890625 0 
L 79.890625 32.71875 
Q 79.890625 40.578125 77.09375 44.375 
Q 74.3125 48.1875 68.609375 48.1875 
Q 61.625 48.1875 57.5625 43.546875 
Q 53.515625 38.921875 53.515625 30.90625 
L 53.515625 0 
L 44.484375 0 
L 44.484375 32.71875 
Q 44.484375 40.625 41.703125 44.40625 
Q 38.921875 48.1875 33.109375 48.1875 
Q 26.21875 48.1875 22.15625 43.53125 
Q 18.109375 38.875 18.109375 30.90625 
L 18.109375 0 
L 9.078125 0 
L 9.078125 54.6875 
L 18.109375 54.6875 
L 18.109375 46.1875 
Q 21.1875 51.21875 25.484375 53.609375 
Q 29.78125 56 35.6875 56 
Q 41.65625 56 45.828125 52.96875 
Q 50 49.953125 52 44.1875 
z
" id="DejaVuSans-109"/>
      <path d="M 56.203125 29.59375 
L 56.203125 25.203125 
L 14.890625 25.203125 
Q 15.484375 15.921875 20.484375 11.0625 
Q 25.484375 6.203125 34.421875 6.203125 
Q 39.59375 6.203125 44.453125 7.46875 
Q 49.3125 8.734375 54.109375 11.28125 
L 54.109375 2.78125 
Q 49.265625 0.734375 44.1875 -0.34375 
Q 39.109375 -1.421875 33.890625 -1.421875 
Q 20.796875 -1.421875 13.15625 6.1875 
Q 5.515625 13.8125 5.515625 26.8125 
Q 5.515625 40.234375 12.765625 48.109375 
Q 20.015625 56 32.328125 56 
Q 43.359375 56 49.78125 48.890625 
Q 56.203125 41.796875 56.203125 29.59375 
z
M 47.21875 32.234375 
Q 47.125 39.59375 43.09375 43.984375 
Q 39.0625 48.390625 32.421875 48.390625 
Q 24.90625 48.390625 20.390625 44.140625 
Q 15.875 39.890625 15.1875 32.171875 
z
" id="DejaVuSans-101"/>
      <path id="DejaVuSans-32"/>
      <path d="M 8.59375 75.984375 
L 29.296875 75.984375 
L 29.296875 69 
L 17.578125 69 
L 17.578125 -6.203125 
L 29.296875 -6.203125 
L 29.296875 -13.1875 
L 8.59375 -13.1875 
z
" id="DejaVuSans-91"/>
      <path d="M 44.28125 53.078125 
L 44.28125 44.578125 
Q 40.484375 46.53125 36.375 47.5 
Q 32.28125 48.484375 27.875 48.484375 
Q 21.1875 48.484375 17.84375 46.4375 
Q 14.5 44.390625 14.5 40.28125 
Q 14.5 37.15625 16.890625 35.375 
Q 19.28125 33.59375 26.515625 31.984375 
L 29.59375 31.296875 
Q 39.15625 29.25 43.1875 25.515625 
Q 47.21875 21.78125 47.21875 15.09375 
Q 47.21875 7.46875 41.1875 3.015625 
Q 35.15625 -1.421875 24.609375 -1.421875 
Q 20.21875 -1.421875 15.453125 -0.5625 
Q 10.6875 0.296875 5.421875 2 
L 5.421875 11.28125 
Q 10.40625 8.6875 15.234375 7.390625 
Q 20.0625 6.109375 24.8125 6.109375 
Q 31.15625 6.109375 34.5625 8.28125 
Q 37.984375 10.453125 37.984375 14.40625 
Q 37.984375 18.0625 35.515625 20.015625 
Q 33.0625 21.96875 24.703125 23.78125 
L 21.578125 24.515625 
Q 13.234375 26.265625 9.515625 29.90625 
Q 5.8125 33.546875 5.8125 39.890625 
Q 5.8125 47.609375 11.28125 51.796875 
Q 16.75 56 26.8125 56 
Q 31.78125 56 36.171875 55.265625 
Q 40.578125 54.546875 44.28125 53.078125 
z
" id="DejaVuSans-115"/>
      <path d="M 30.421875 75.984375 
L 30.421875 -13.1875 
L 9.71875 -13.1875 
L 9.71875 -6.203125 
L 21.390625 -6.203125 
L 21.390625 69 
L 9.71875 69 
L 9.71875 75.984375 
z
" id="DejaVuSans-93"/>
     </defs>
     <g transform="translate(234.038281 412.756563)scale(0.1 -0.1)">
      <use xlink:href="#DejaVuSans-116"/>
      <use x="39.208984" xlink:href="#DejaVuSans-105"/>
      <use x="66.992188" xlink:href="#DejaVuSans-109"/>
      <use x="164.404297" xlink:href="#DejaVuSans-101"/>
      <use x="225.927734" xlink:href="#DejaVuSans-32"/>
      <use x="257.714844" xlink:href="#DejaVuSans-91"/>
      <use x="296.728516" xlink:href="#DejaVuSans-109"/>
      <use x="394.140625" xlink:href="#DejaVuSans-115"/>
      <use x="446.240234" xlink:href="#DejaVuSans-93"/>
     </g>
    </g>
   </g>
   <g id="matplotlib.axis_2">
    <g id="ytick_1">
     <g id="line2d_6">
      <defs>
       <path d="M 0 0 
L -3.5 0 
" id="m309e154343" style="stroke:#000000;stroke-width:0.8;"/>
      </defs>
      <g>
       <use style="stroke:#000000;stroke-width:0.8;" x="63" xlink:href="#m309e154343" y="341.981056"/>
      </g>
     </g>
     <g id="text_7">
      <!-- −150 -->
      <defs>
       <path d="M 10.59375 35.5 
L 73.1875 35.5 
L 73.1875 27.203125 
L 10.59375 27.203125 
z
" id="DejaVuSans-8722"/>
      </defs>
      <g transform="translate(28.532812 345.780274)scale(0.1 -0.1)">
       <use xlink:href="#DejaVuSans-8722"/>
       <use x="83.789062" xlink:href="#DejaVuSans-49"/>
       <use x="147.412109" xlink:href="#DejaVuSans-53"/>
       <use x="211.035156" xlink:href="#DejaVuSans-48"/>
      </g>
     </g>
    </g>
    <g id="ytick_2">
     <g id="line2d_7">
      <g>
       <use style="stroke:#000000;stroke-width:0.8;" x="63" xlink:href="#m309e154343" y="275.039872"/>
      </g>
     </g>
     <g id="text_8">
      <!-- −100 -->
      <g transform="translate(28.532812 278.83909)scale(0.1 -0.1)">
       <use xlink:href="#DejaVuSans-8722"/>
       <use x="83.789062" xlink:href="#DejaVuSans-49"/>
       <use x="147.412109" xlink:href="#DejaVuSans-48"/>
       <use x="211.035156" xlink:href="#DejaVuSans-48"/>
      </g>
     </g>
    </g>
    <g id="ytick_3">
     <g id="line2d_8">
      <g>
       <use style="stroke:#000000;stroke-width:0.8;" x="63" xlink:href="#m309e154343" y="208.098688"/>
      </g>
     </g>
     <g id="text_9">
      <!-- −50 -->
      <g transform="translate(34.895313 211.897907)scale(0.1 -0.1)">
       <use xlink:href="#DejaVuSans-8722"/>
       <use x="83.789062" xlink:href="#DejaVuSans-53"/>
       <use x="147.412109" xlink:href="#DejaVuSans-48"/>
      </g>
     </g>
    </g>
    <g id="ytick_4">
     <g id="line2d_9">
      <g>
       <use style="stroke:#000000;stroke-width:0.8;" x="63" xlink:href="#m309e154343" y="141.157504"/>
      </g>
     </g>
     <g id="text_10">
      <!-- 0 -->
      <g transform="translate(49.6375 144.956723)scale(0.1 -0.1)">
       <use xlink:href="#DejaVuSans-48"/>
      </g>
     </g>
    </g>
    <g id="ytick_5">
     <g id="line2d_10">
      <g>
       <use style="stroke:#000000;stroke-width:0.8;" x="63" xlink:href="#m309e154343" y="74.21632"/>
      </g>
     </g>
     <g id="text_11">
      <!-- 50 -->
      <g transform="translate(43.275 78.015539)scale(0.1 -0.1)">
       <use xlink:href="#DejaVuSans-53"/>
       <use x="63.623047" xlink:href="#DejaVuSans-48"/>
      </g>
     </g>
    </g>
    <g id="text_12">
     <!-- voltage [mV] -->
     <defs>
      <path d="M 2.984375 54.6875 
L 12.5 54.6875 
L 29.59375 8.796875 
L 46.6875 54.6875 
L 56.203125 54.6875 
L 35.6875 0 
L 23.484375 0 
z
" id="DejaVuSans-118"/>
      <path d="M 30.609375 48.390625 
Q 23.390625 48.390625 19.1875 42.75 
Q 14.984375 37.109375 14.984375 27.296875 
Q 14.984375 17.484375 19.15625 11.84375 
Q 23.34375 6.203125 30.609375 6.203125 
Q 37.796875 6.203125 41.984375 11.859375 
Q 46.1875 17.53125 46.1875 27.296875 
Q 46.1875 37.015625 41.984375 42.703125 
Q 37.796875 48.390625 30.609375 48.390625 
z
M 30.609375 56 
Q 42.328125 56 49.015625 48.375 
Q 55.71875 40.765625 55.71875 27.296875 
Q 55.71875 13.875 49.015625 6.21875 
Q 42.328125 -1.421875 30.609375 -1.421875 
Q 18.84375 -1.421875 12.171875 6.21875 
Q 5.515625 13.875 5.515625 27.296875 
Q 5.515625 40.765625 12.171875 48.375 
Q 18.84375 56 30.609375 56 
z
" id="DejaVuSans-111"/>
      <path d="M 9.421875 75.984375 
L 18.40625 75.984375 
L 18.40625 0 
L 9.421875 0 
z
" id="DejaVuSans-108"/>
      <path d="M 34.28125 27.484375 
Q 23.390625 27.484375 19.1875 25 
Q 14.984375 22.515625 14.984375 16.5 
Q 14.984375 11.71875 18.140625 8.90625 
Q 21.296875 6.109375 26.703125 6.109375 
Q 34.1875 6.109375 38.703125 11.40625 
Q 43.21875 16.703125 43.21875 25.484375 
L 43.21875 27.484375 
z
M 52.203125 31.203125 
L 52.203125 0 
L 43.21875 0 
L 43.21875 8.296875 
Q 40.140625 3.328125 35.546875 0.953125 
Q 30.953125 -1.421875 24.3125 -1.421875 
Q 15.921875 -1.421875 10.953125 3.296875 
Q 6 8.015625 6 15.921875 
Q 6 25.140625 12.171875 29.828125 
Q 18.359375 34.515625 30.609375 34.515625 
L 43.21875 34.515625 
L 43.21875 35.40625 
Q 43.21875 41.609375 39.140625 45 
Q 35.0625 48.390625 27.6875 48.390625 
Q 23 48.390625 18.546875 47.265625 
Q 14.109375 46.140625 10.015625 43.890625 
L 10.015625 52.203125 
Q 14.9375 54.109375 19.578125 55.046875 
Q 24.21875 56 28.609375 56 
Q 40.484375 56 46.34375 49.84375 
Q 52.203125 43.703125 52.203125 31.203125 
z
" id="DejaVuSans-97"/>
      <path d="M 45.40625 27.984375 
Q 45.40625 37.75 41.375 43.109375 
Q 37.359375 48.484375 30.078125 48.484375 
Q 22.859375 48.484375 18.828125 43.109375 
Q 14.796875 37.75 14.796875 27.984375 
Q 14.796875 18.265625 18.828125 12.890625 
Q 22.859375 7.515625 30.078125 7.515625 
Q 37.359375 7.515625 41.375 12.890625 
Q 45.40625 18.265625 45.40625 27.984375 
z
M 54.390625 6.78125 
Q 54.390625 -7.171875 48.1875 -13.984375 
Q 42 -20.796875 29.203125 -20.796875 
Q 24.46875 -20.796875 20.265625 -20.09375 
Q 16.0625 -19.390625 12.109375 -17.921875 
L 12.109375 -9.1875 
Q 16.0625 -11.328125 19.921875 -12.34375 
Q 23.78125 -13.375 27.78125 -13.375 
Q 36.625 -13.375 41.015625 -8.765625 
Q 45.40625 -4.15625 45.40625 5.171875 
L 45.40625 9.625 
Q 42.625 4.78125 38.28125 2.390625 
Q 33.9375 0 27.875 0 
Q 17.828125 0 11.671875 7.65625 
Q 5.515625 15.328125 5.515625 27.984375 
Q 5.515625 40.671875 11.671875 48.328125 
Q 17.828125 56 27.875 56 
Q 33.9375 56 38.28125 53.609375 
Q 42.625 51.21875 45.40625 46.390625 
L 45.40625 54.6875 
L 54.390625 54.6875 
z
" id="DejaVuSans-103"/>
      <path d="M 28.609375 0 
L 0.78125 72.90625 
L 11.078125 72.90625 
L 34.1875 11.53125 
L 57.328125 72.90625 
L 67.578125 72.90625 
L 39.796875 0 
z
" id="DejaVuSans-86"/>
     </defs>
     <g transform="translate(22.453125 250.624062)rotate(-90)scale(0.1 -0.1)">
      <use xlink:href="#DejaVuSans-118"/>
      <use x="59.179688" xlink:href="#DejaVuSans-111"/>
      <use x="120.361328" xlink:href="#DejaVuSans-108"/>
      <use x="148.144531" xlink:href="#DejaVuSans-116"/>
      <use x="187.353516" xlink:href="#DejaVuSans-97"/>
      <use x="248.632812" xlink:href="#DejaVuSans-103"/>
      <use x="312.109375" xlink:href="#DejaVuSans-101"/>
      <use x="373.632812" xlink:href="#DejaVuSans-32"/>
      <use x="405.419922" xlink:href="#DejaVuSans-91"/>
      <use x="444.433594" xlink:href="#DejaVuSans-109"/>
      <use x="541.845703" xlink:href="#DejaVuSans-86"/>
      <use x="610.253906" xlink:href="#DejaVuSans-93"/>
     </g>
    </g>
   </g>
   <g id="line2d_11">
    <path clip-path="url(#p307b41271f)" d="M 80.754545 219.473459 
L 83.385088 219.408087 
L 83.417364 219.342715 
L 83.465779 219.473459 
L 83.498056 219.408087 
L 83.514194 219.473459 
L 83.594885 219.408087 
L 83.723992 219.342715 
L 84.547045 219.408087 
L 84.676151 219.473459 
L 84.96664 219.408087 
L 85.095747 219.342715 
L 85.176438 219.408087 
L 85.208715 219.342715 
L 85.337821 219.408087 
L 85.35396 219.473459 
L 85.402374 219.342715 
L 85.434651 219.342715 
L 86.322257 219.408087 
L 86.451364 219.473459 
L 87.419661 219.538832 
L 87.532629 219.604204 
L 87.581044 219.538832 
L 87.645598 219.604204 
L 88.694587 219.669576 
L 88.807555 219.734948 
L 88.85597 219.669576 
L 89.049629 212.21714 
L 89.501501 205.222309 
L 90.356831 196.135566 
L 91.196022 190.186691 
L 91.470373 188.617757 
L 91.777001 186.983451 
L 92.551639 184.303189 
L 92.583916 184.237817 
L 92.793714 183.845583 
L 92.82599 183.780211 
L 93.11648 183.061116 
L 93.310139 182.995744 
L 93.503799 182.668883 
L 93.552214 182.60351 
L 93.745873 182.276649 
L 93.858841 182.211277 
L 94.020224 182.01516 
L 94.213884 181.949788 
L 94.391405 181.688299 
L 95.843851 181.622927 
L 95.989096 181.361438 
L 96.005234 181.42681 
L 96.118202 181.361438 
L 96.247309 181.296065 
L 96.553936 181.230693 
L 96.683043 181.165321 
L 96.892841 181.557554 
L 96.957394 181.622927 
L 97.167192 182.01516 
L 97.393128 181.949788 
L 97.425404 181.884416 
L 97.506096 181.949788 
L 97.845 181.884416 
L 97.990245 181.753671 
L 98.006383 181.819043 
L 98.03866 181.688299 
L 98.103213 181.753671 
L 98.264596 181.819043 
L 98.296872 181.884416 
L 98.361426 181.753671 
L 98.50667 181.819043 
L 98.538947 181.884416 
L 98.571223 181.753671 
L 98.619638 181.819043 
L 99.119925 181.753671 
L 99.26517 181.622927 
L 99.959117 181.557554 
L 100.055947 181.492182 
L 100.072085 181.557554 
L 100.1205 181.622927 
L 100.362574 182.734255 
L 100.604649 183.257233 
L 100.653063 183.322605 
L 100.733755 183.387977 
L 100.766031 183.322605 
L 100.943553 183.257233 
L 101.056521 183.061116 
L 101.088797 183.126488 
L 101.217904 183.061116 
L 101.395425 182.799627 
L 101.427702 182.864999 
L 101.508393 182.799627 
L 101.556808 182.734255 
L 101.702053 182.60351 
L 101.831159 182.538138 
L 101.960265 182.472766 
L 102.040957 182.538138 
L 102.073233 182.472766 
L 102.153925 182.407394 
L 102.331446 182.145905 
L 102.347584 182.211277 
L 102.379861 182.080532 
L 102.428276 182.145905 
L 102.589659 181.949788 
L 102.718765 182.01516 
L 102.993116 181.949788 
L 103.057669 181.753671 
L 103.122223 181.884416 
L 103.235191 181.949788 
L 103.251329 182.01516 
L 103.33202 181.884416 
L 103.348159 181.949788 
L 103.461127 181.819043 
L 103.477265 181.884416 
L 103.687063 181.819043 
L 103.816169 181.753671 
L 104.09052 181.688299 
L 104.18735 181.622927 
L 104.203488 181.688299 
L 104.38101 181.622927 
L 104.526254 181.361438 
L 104.542393 181.42681 
L 104.639222 181.361438 
L 104.687637 181.296065 
L 104.75219 181.361438 
L 104.897435 181.296065 
L 105.026541 181.230693 
L 105.236339 181.296065 
L 105.317031 181.361438 
L 105.349307 181.296065 
L 106.107807 181.230693 
L 106.123945 181.165321 
L 106.17236 181.296065 
L 106.220775 181.230693 
L 106.882445 181.296065 
L 107.011552 181.361438 
L 107.705498 181.296065 
L 107.737775 181.230693 
L 107.78619 181.361438 
L 107.802328 181.361438 
L 108.383307 181.296065 
L 108.528551 181.165321 
L 108.576966 181.099949 
L 108.706073 181.034576 
L 109.254775 180.969204 
L 109.335466 180.903832 
L 109.367743 180.969204 
L 109.690509 180.903832 
L 109.819615 180.773087 
L 109.916445 180.83846 
L 109.932583 180.773087 
L 110.416732 180.83846 
L 110.561977 180.969204 
L 110.691083 180.903832 
L 111.368891 180.969204 
L 111.530274 181.165321 
L 112.256498 181.230693 
L 112.321051 181.165321 
L 112.385604 181.296065 
L 112.821338 181.361438 
L 112.837476 181.42681 
L 112.869753 181.296065 
L 112.934306 181.361438 
L 113.17638 181.42681 
L 113.337763 181.622927 
L 113.434593 181.688299 
L 113.579838 181.819043 
L 113.789636 181.753671 
L 113.870327 181.688299 
L 113.902604 181.753671 
L 114.160817 181.819043 
L 114.257646 181.884416 
L 114.273785 181.819043 
L 114.386753 181.688299 
L 114.402891 181.753671 
L 114.483582 181.688299 
L 114.580412 181.557554 
L 114.612689 181.622927 
L 114.806348 181.557554 
L 114.935455 181.492182 
L 115.35505 181.42681 
L 115.484157 181.361438 
L 115.532572 181.42681 
L 115.580986 181.361438 
L 115.710093 181.296065 
L 115.839199 181.230693 
L 115.984444 181.099949 
L 116.21038 181.034576 
L 116.339486 180.969204 
L 116.484731 180.903832 
L 116.629976 180.773087 
L 116.710667 180.707715 
L 116.742944 180.642343 
L 116.823635 180.707715 
L 117.017295 180.773087 
L 117.033433 180.83846 
L 117.130263 180.773087 
L 117.259369 180.83846 
L 117.501444 181.361438 
L 117.549858 181.42681 
L 117.743518 181.753671 
L 117.921039 181.819043 
L 118.050146 181.884416 
L 118.647263 181.819043 
L 118.776369 181.753671 
L 119.05072 181.688299 
L 119.131411 181.622927 
L 119.163688 181.688299 
L 119.518731 181.622927 
L 119.663975 181.492182 
L 119.80922 181.42681 
L 119.938326 181.361438 
L 120.002879 181.42681 
L 120.051294 181.361438 
L 120.228815 181.099949 
L 120.438613 181.034576 
L 120.56772 180.969204 
L 120.664549 180.903832 
L 120.696826 180.83846 
L 120.745241 180.969204 
L 120.761379 180.969204 
L 120.858209 181.034576 
L 120.874347 180.969204 
L 121.116422 181.034576 
L 121.261666 181.165321 
L 121.471464 181.099949 
L 121.616709 180.969204 
L 121.778092 180.903832 
L 121.939475 180.707715 
L 122.116996 180.642343 
L 122.246102 180.576971 
L 122.407485 180.773087 
L 122.423624 180.707715 
L 122.520453 180.773087 
L 122.697975 180.707715 
L 122.810943 180.576971 
L 122.827081 180.642343 
L 123.133709 180.707715 
L 123.278953 180.83846 
L 123.553304 180.903832 
L 123.682411 181.034576 
L 123.843794 180.83846 
L 123.924485 180.903832 
L 123.940623 180.969204 
L 124.005177 180.83846 
L 124.021315 180.83846 
L 124.360219 180.773087 
L 124.489325 180.707715 
L 124.682985 180.773087 
L 124.844368 180.969204 
L 125.280102 181.034576 
L 125.360793 181.165321 
L 125.39307 181.099949 
L 125.522176 181.034576 
L 125.764251 180.969204 
L 125.780389 180.903832 
L 125.877219 180.969204 
L 126.038602 180.903832 
L 126.167708 180.83846 
L 126.329091 180.773087 
L 126.458197 180.707715 
L 126.587304 180.773087 
L 126.651857 180.83846 
L 126.700272 180.773087 
L 127.136006 180.707715 
L 127.152144 180.642343 
L 127.232836 180.707715 
L 127.248974 180.773087 
L 127.297389 180.642343 
L 127.329665 180.642343 
L 127.394219 180.707715 
L 127.442633 180.83846 
L 127.507187 180.773087 
L 127.636293 180.707715 
L 127.765399 180.773087 
L 127.975197 180.707715 
L 128.120442 180.576971 
L 128.217272 180.511598 
L 128.346378 180.446226 
L 128.410931 180.380854 
L 128.540038 180.315482 
L 129.08874 180.250109 
L 129.137154 180.184737 
L 129.201708 180.250109 
L 129.605165 180.315482 
L 129.734271 180.380854 
L 129.831101 180.315482 
L 130.024761 179.98862 
L 130.137729 179.923248 
L 130.282973 179.792504 
L 130.525048 179.727131 
L 130.541186 179.661759 
L 130.589601 179.792504 
L 130.621878 179.727131 
L 130.670292 179.792504 
L 130.734846 179.727131 
L 131.07375 179.661759 
L 131.218995 179.531015 
L 132.477782 179.596387 
L 132.606888 179.661759 
L 132.768271 179.596387 
L 132.816686 179.531015 
L 132.881239 179.596387 
L 133.268558 179.661759 
L 133.397664 179.727131 
L 133.413803 179.727131 
L 133.559047 180.053993 
L 133.591324 179.98862 
L 133.639739 180.184737 
L 133.655877 180.119365 
L 133.768845 180.184737 
L 133.962505 180.511598 
L 133.994781 180.576971 
L 134.156164 180.83846 
L 134.285271 180.773087 
L 134.430515 180.83846 
L 134.559622 180.969204 
L 134.688728 180.903832 
L 134.979217 180.83846 
L 135.108324 180.773087 
L 135.33426 180.707715 
L 135.414951 180.576971 
L 135.463366 180.642343 
L 135.818409 180.576971 
L 135.834547 180.511598 
L 135.866824 180.642343 
L 135.931377 180.576971 
L 136.044345 180.511598 
L 136.060483 180.446226 
L 136.157313 180.511598 
L 136.883536 180.446226 
L 137.061057 180.184737 
L 137.174025 180.119365 
L 137.206302 180.053993 
L 137.238579 180.184737 
L 137.270855 180.184737 
L 137.367685 180.119365 
L 137.432238 179.98862 
L 137.480653 180.119365 
L 137.690451 180.053993 
L 137.835696 179.923248 
L 137.98094 180.053993 
L 138.110047 179.98862 
L 138.206876 179.792504 
L 138.255291 179.857876 
L 138.707163 179.792504 
L 138.83627 179.727131 
L 138.900823 179.792504 
L 138.949238 179.727131 
L 139.126759 179.792504 
L 139.255866 179.857876 
L 139.30428 179.792504 
L 139.368834 179.857876 
L 139.772291 179.792504 
L 139.901397 179.661759 
L 139.998227 179.727131 
L 140.014365 179.661759 
L 140.756727 179.596387 
L 140.91811 179.40027 
L 141.047216 179.334898 
L 141.127908 179.269526 
L 141.160184 179.334898 
L 141.434535 179.98862 
L 141.902546 179.923248 
L 142.031652 179.857876 
L 142.14462 179.792504 
L 142.273727 179.727131 
L 142.386695 179.792504 
L 142.515801 179.727131 
L 142.80629 179.661759 
L 142.951535 179.531015 
L 144.339429 179.596387 
L 144.468535 179.857876 
L 144.484673 179.792504 
L 144.581503 179.727131 
L 144.597641 179.792504 
L 144.678333 179.857876 
L 144.823577 179.98862 
L 145.340003 179.923248 
L 145.485247 179.792504 
L 145.64663 179.727131 
L 145.775737 179.661759 
L 146.308301 179.596387 
L 146.388992 179.465642 
L 146.437407 179.531015 
L 147.244322 179.596387 
L 147.26046 179.661759 
L 147.35729 179.596387 
L 147.550949 179.531015 
L 147.680056 179.465642 
L 147.809162 179.531015 
L 147.938268 179.465642 
L 147.970545 179.40027 
L 148.051236 179.465642 
L 148.180343 179.531015 
L 148.325587 179.661759 
L 148.374002 179.596387 
L 148.503109 179.531015 
L 148.632215 179.596387 
L 148.858151 179.531015 
L 148.890428 179.40027 
L 148.987258 179.465642 
L 149.100226 179.531015 
L 149.116364 179.596387 
L 149.164779 179.465642 
L 149.213194 179.531015 
L 149.358438 179.40027 
L 149.697343 179.465642 
L 149.826449 179.531015 
L 149.971694 179.531015 
L 150.00397 179.40027 
L 150.084662 179.465642 
L 150.407427 179.531015 
L 150.601087 179.923248 
L 150.76247 179.727131 
L 151.085236 179.792504 
L 151.149789 179.857876 
L 151.198204 179.792504 
L 151.32731 179.727131 
L 151.343449 179.792504 
L 151.375725 179.661759 
L 151.440278 179.727131 
L 151.811459 179.661759 
L 151.843736 179.596387 
L 151.924427 179.661759 
L 152.424714 179.596387 
L 152.586097 179.40027 
L 152.908863 179.334898 
L 152.94114 179.269526 
L 153.005693 179.40027 
L 153.054108 179.334898 
L 153.070246 179.269526 
L 153.150938 179.40027 
L 153.328459 179.334898 
L 153.360736 179.269526 
L 153.40915 179.334898 
L 153.60281 186.787334 
L 154.054682 193.716793 
L 154.425863 197.965989 
L 154.861597 202.019069 
L 154.990703 202.999652 
L 155.265054 205.026192 
L 155.765342 208.229432 
L 155.991278 209.60225 
L 156.314044 211.3673 
L 156.927299 214.309052 
L 157.137097 215.158891 
L 158.460437 220.06181 
L 158.492713 220.127182 
L 158.815479 220.977021 
L 158.847756 221.042393 
L 159.154383 221.82686 
L 159.18666 221.892233 
L 159.428735 222.415211 
L 159.461011 222.480583 
L 159.735362 223.134305 
L 159.816054 223.199678 
L 160.025851 223.591911 
L 160.058128 223.657283 
L 160.284064 224.114889 
L 160.348617 224.180261 
L 160.542277 224.507123 
L 160.60683 224.572495 
L 160.80049 224.964728 
L 160.816628 224.899356 
L 160.865043 225.030101 
L 160.897319 225.030101 
L 160.978011 225.095473 
L 161.139394 225.29159 
L 161.300777 225.356962 
L 161.478298 225.618451 
L 161.526713 225.553079 
L 161.591266 225.618451 
L 161.752649 225.814568 
L 161.897894 225.87994 
L 162.043138 226.010684 
L 162.091553 226.076057 
L 162.236798 226.206801 
L 162.285213 226.272173 
L 162.317489 226.337546 
L 162.398181 226.272173 
L 162.462734 226.337546 
L 162.607979 226.46829 
L 162.995298 226.533662 
L 163.124404 226.599035 
L 163.318064 226.664407 
L 163.431032 226.795151 
L 163.44717 226.729779 
L 163.527861 226.795151 
L 163.656968 226.860524 
L 163.931319 226.925896 
L 164.060425 226.991268 
L 164.544574 226.925896 
L 164.625266 226.860524 
L 164.657542 226.925896 
L 165.997021 226.860524 
L 166.126127 226.729779 
L 166.206818 226.795151 
L 166.239095 226.729779 
L 166.432755 226.664407 
L 166.577999 226.533662 
L 166.900765 226.46829 
L 167.029872 226.402918 
L 167.304223 226.337546 
L 167.465606 226.141429 
L 167.659265 226.076057 
L 167.788371 226.010684 
L 168.014308 225.945312 
L 168.175691 225.749195 
L 168.191829 225.814568 
L 168.288659 225.749195 
L 168.450042 225.683823 
L 168.56301 225.618451 
L 168.579148 225.683823 
L 168.627563 225.553079 
L 168.659839 225.553079 
L 168.837361 225.487706 
L 168.853499 225.422334 
L 168.885775 225.553079 
L 168.950329 225.487706 
L 169.12785 225.422334 
L 169.273095 225.29159 
L 169.418339 225.226217 
L 169.499031 225.160845 
L 169.611999 220.06181 
L 169.708829 220.127182 
L 169.724967 220.192554 
L 169.821797 220.127182 
L 170.951477 220.192554 
L 170.967616 220.257926 
L 171.064445 220.192554 
L 171.790669 220.257926 
L 171.822945 220.323299 
L 171.903637 220.257926 
L 172.048881 220.127182 
L 172.177988 220.192554 
L 172.387786 220.127182 
L 172.516892 220.06181 
L 173.162424 219.996437 
L 173.307668 219.865693 
L 174.518041 219.931065 
L 174.647147 219.996437 
L 175.115157 220.06181 
L 175.147434 220.127182 
L 175.228126 220.06181 
L 175.389508 220.127182 
L 175.405647 220.192554 
L 175.502477 220.127182 
L 175.615445 220.192554 
L 175.712274 220.257926 
L 175.728413 220.192554 
L 175.954349 220.257926 
L 176.083455 220.323299 
L 176.099593 220.257926 
L 176.180285 220.388671 
L 176.196423 220.323299 
L 176.664434 220.257926 
L 176.79354 220.192554 
L 176.938785 220.127182 
L 177.019476 220.192554 
L 177.067891 220.06181 
L 177.213136 220.127182 
L 177.293827 220.192554 
L 177.326104 220.127182 
L 177.616593 220.127182 
L 177.810253 210.386717 
L 178.391231 198.946573 
L 179.149731 188.421641 
L 179.82754 181.492182 
L 180.39238 177.765964 
L 180.924944 176.066285 
L 180.95722 176.000913 
L 181.15088 175.674052 
L 181.312263 175.60868 
L 181.522061 175.216446 
L 181.538199 175.216446 
L 181.683444 174.889585 
L 181.764135 174.824213 
L 181.90938 174.693468 
L 182.328975 174.628096 
L 182.522635 174.301235 
L 182.66788 174.235862 
L 182.861539 173.909001 
L 182.926092 173.974373 
L 182.974507 174.039746 
L 183.03906 173.974373 
L 183.103614 173.909001 
L 183.264997 173.712884 
L 183.313411 173.647512 
L 183.539348 173.189906 
L 183.620039 173.124534 
L 183.829837 172.732301 
L 183.89439 172.666928 
L 184.184879 171.947834 
L 184.233294 172.013206 
L 184.297847 171.947834 
L 184.539922 171.424856 
L 184.814273 171.359483 
L 184.927241 170.96725 
L 184.991794 171.097994 
L 185.072486 171.032622 
L 185.250007 170.575016 
L 185.282283 170.640389 
L 185.346837 170.575016 
L 185.669602 169.725177 
L 185.718017 169.659805 
L 186.411964 166.391192 
L 186.428102 165.998959 
L 186.444241 161.945879 
L 186.492656 73.104991 
L 186.573347 119.584661 
L 186.73473 172.405439 
L 186.944528 174.105118 
L 188.05807 182.342021 
L 188.074208 182.342021 
L 188.25173 182.930372 
L 188.477666 183.387977 
L 188.526081 183.45335 
L 188.752017 183.910955 
L 188.800432 183.976328 
L 188.961815 184.172444 
L 189.026368 184.107072 
L 189.058644 184.172444 
L 189.187751 184.237817 
L 189.720315 184.172444 
L 189.865559 184.0417 
L 190.091495 183.976328 
L 190.23674 183.845583 
L 190.285155 183.780211 
L 190.414261 183.649466 
L 190.4304 183.714839 
L 190.494953 183.584094 
L 190.511091 183.584094 
L 190.591783 183.518722 
L 190.720889 183.45335 
L 190.89841 183.387977 
L 191.027516 183.322605 
L 191.140485 183.257233 
L 191.301868 183.061116 
L 191.46325 182.995744 
L 191.640772 182.734255 
L 192.205612 182.668883 
L 192.366995 182.472766 
L 192.463825 182.407394 
L 192.625208 182.145905 
L 192.754314 182.211277 
L 192.835006 182.145905 
L 192.899559 182.080532 
L 192.947974 182.145905 
L 193.238463 182.080532 
L 193.383708 181.949788 
L 193.512814 181.884416 
L 193.658059 181.753671 
L 193.787165 181.819043 
L 193.964686 181.557554 
L 194.013101 181.622927 
L 194.061516 181.492182 
L 194.448835 181.42681 
L 194.59408 181.296065 
L 194.723186 181.230693 
L 194.900707 180.969204 
L 194.981399 180.903832 
L 195.126643 180.773087 
L 195.271888 180.707715 
L 195.35258 180.576971 
L 195.400994 180.642343 
L 195.465548 180.576971 
L 195.610792 180.446226 
L 195.885143 180.380854 
L 196.01425 180.315482 
L 196.094941 180.250109 
L 196.256324 179.98862 
L 196.353154 180.053993 
L 196.369292 179.98862 
L 196.708196 179.923248 
L 196.837303 179.857876 
L 196.950271 179.923248 
L 196.982547 179.857876 
L 197.063239 179.923248 
L 197.14393 179.857876 
L 197.160069 179.792504 
L 197.224622 179.923248 
L 197.24076 179.923248 
L 197.402143 179.98862 
L 197.579664 180.380854 
L 197.595803 180.315482 
L 197.644218 180.380854 
L 197.821739 180.642343 
L 197.854015 180.576971 
L 197.934707 180.642343 
L 197.966983 180.707715 
L 198.112228 180.83846 
L 198.467271 180.773087 
L 198.483409 180.707715 
L 198.580239 180.773087 
L 198.644792 180.707715 
L 198.822313 180.446226 
L 199.032111 180.380854 
L 199.209632 180.119365 
L 199.241909 180.184737 
L 199.306462 180.053993 
L 199.500121 179.727131 
L 199.629228 179.792504 
L 199.790611 179.727131 
L 199.951994 179.531015 
L 200.032685 179.465642 
L 200.161792 179.40027 
L 200.532972 179.334898 
L 200.662079 179.138781 
L 200.678217 179.204153 
L 200.807323 179.138781 
L 200.968706 178.942664 
L 201.065536 178.877292 
L 201.226919 178.681175 
L 201.372164 178.615803 
L 201.50127 178.550431 
L 201.646515 178.485059 
L 201.807898 178.288942 
L 201.856313 178.354314 
L 201.985419 178.419686 
L 202.146802 178.22357 
L 202.275908 178.288942 
L 202.3566 178.22357 
L 202.517983 178.027453 
L 202.582536 177.962081 
L 202.727781 177.765964 
L 202.743919 177.831336 
L 202.776195 177.700592 
L 202.82461 177.700592 
L 203.034408 177.635219 
L 203.179653 177.504475 
L 203.550834 177.569847 
L 203.67994 177.635219 
L 203.77677 177.700592 
L 203.905876 177.765964 
L 204.632099 177.700592 
L 204.777344 177.569847 
L 204.858035 177.504475 
L 204.987142 177.439103 
L 205.116248 177.569847 
L 205.164663 177.504475 
L 205.19694 177.635219 
L 205.229216 177.569847 
L 205.358323 177.765964 
L 205.374461 177.700592 
L 206.052269 177.765964 
L 206.213652 177.962081 
L 206.455727 178.027453 
L 206.61711 178.22357 
L 206.762354 178.288942 
L 206.907599 178.419686 
L 207.343333 178.354314 
L 207.359471 178.288942 
L 207.456301 178.354314 
L 207.472439 178.419686 
L 207.569269 178.354314 
L 207.666099 178.419686 
L 207.682237 178.485059 
L 207.779067 178.419686 
L 208.021141 178.354314 
L 208.182524 178.158197 
L 208.230939 178.092825 
L 208.40846 177.831336 
L 208.60212 177.765964 
L 208.731226 177.700592 
L 208.989439 177.635219 
L 209.118545 177.569847 
L 209.215375 177.504475 
L 209.36062 177.37373 
L 209.538141 177.308358 
L 209.731801 176.981497 
L 210.038428 176.916125 
L 210.183673 176.78538 
L 210.232088 176.850752 
L 210.393471 177.046869 
L 211.055141 176.981497 
L 211.232662 176.720008 
L 211.297215 176.78538 
L 211.329492 176.720008 
L 211.474737 176.589263 
L 211.652258 176.523891 
L 211.749088 176.458519 
L 211.765226 176.523891 
L 211.813641 176.458519 
L 211.958885 176.327774 
L 212.023439 176.262402 
L 212.039577 176.19703 
L 212.087992 176.327774 
L 212.120268 176.327774 
L 212.217098 176.393147 
L 212.362343 176.523891 
L 212.410758 176.458519 
L 212.475311 176.327774 
L 212.523726 176.458519 
L 212.588279 176.393147 
L 212.636694 176.327774 
L 212.685109 176.393147 
L 212.86263 176.654636 
L 213.185396 176.589263 
L 213.217672 176.523891 
L 213.266087 176.654636 
L 213.282226 176.654636 
L 213.556577 176.589263 
L 213.653406 176.523891 
L 213.669545 176.589263 
L 213.814789 176.523891 
L 214.008449 176.19703 
L 214.056864 176.131658 
L 214.073002 176.066285 
L 214.169832 176.131658 
L 214.2828 176.066285 
L 214.411906 176.000913 
L 214.589427 175.935541 
L 214.734672 175.804796 
L 214.84764 175.870169 
L 214.879917 175.935541 
L 214.928332 175.804796 
L 214.94447 175.804796 
L 215.202683 175.739424 
L 215.331789 175.674052 
L 215.460895 175.739424 
L 215.751385 175.804796 
L 215.767523 175.870169 
L 215.864353 175.804796 
L 216.058012 175.477935 
L 216.138704 175.412563 
L 216.300087 175.151074 
L 216.380778 175.216446 
L 216.413055 175.151074 
L 216.542161 175.085702 
L 216.687406 174.954957 
L 216.92948 174.889585 
L 216.977895 174.824213 
L 217.02631 174.889585 
L 217.042448 174.954957 
L 217.139278 174.889585 
L 217.704118 174.954957 
L 217.833225 175.020329 
L 217.849363 174.954957 
L 217.946193 175.020329 
L 218.204406 175.020329 
L 218.34965 175.347191 
L 218.656278 175.281818 
L 218.785384 175.216446 
L 218.962905 175.281818 
L 219.027459 175.216446 
L 219.075874 175.347191 
L 219.20498 175.281818 
L 219.414778 175.347191 
L 219.576161 175.543307 
L 219.915065 175.60868 
L 220.157139 176.131658 
L 220.270107 176.19703 
L 220.350799 176.327774 
L 220.399214 176.262402 
L 220.496044 176.19703 
L 220.62515 176.131658 
L 220.818809 176.19703 
L 220.834948 176.262402 
L 220.931777 176.19703 
L 221.125437 176.131658 
L 221.254543 176.066285 
L 221.319097 176.000913 
L 221.464341 175.870169 
L 221.722554 175.804796 
L 221.867799 175.674052 
L 221.900075 175.674052 
L 222.029182 175.412563 
L 222.077596 175.347191 
L 222.158288 175.151074 
L 222.222841 175.216446 
L 222.739267 175.151074 
L 222.900649 174.954957 
L 223.013618 174.889585 
L 223.158862 174.693468 
L 223.175001 174.75884 
L 223.239554 174.628096 
L 223.255692 174.693468 
L 223.449352 174.366607 
L 223.626873 174.301235 
L 223.852809 173.843629 
L 223.981915 173.778257 
L 224.046468 173.647512 
L 224.094883 173.712884 
L 224.272405 173.974373 
L 224.320819 173.909001 
L 224.385373 173.843629 
L 224.433788 173.909001 
L 224.514479 174.039746 
L 224.562894 173.974373 
L 224.692 174.039746 
L 224.853383 174.235862 
L 225.127734 174.17049 
L 225.256841 174.105118 
L 225.289117 174.17049 
L 225.305255 174.235862 
L 225.35367 174.105118 
L 225.385947 174.105118 
L 225.54733 174.17049 
L 225.692575 174.301235 
L 225.740989 174.235862 
L 225.886234 174.105118 
L 226.063755 174.039746 
L 226.338106 173.386023 
L 226.547904 173.451395 
L 226.580181 173.516768 
L 226.628596 173.386023 
L 226.644734 173.386023 
L 226.725425 173.320651 
L 226.87067 173.189906 
L 226.886808 173.255279 
L 226.9675 173.124534 
L 226.983638 173.189906 
L 227.06433 173.255279 
L 227.096606 173.320651 
L 227.161159 173.189906 
L 227.403234 173.189906 
L 227.53234 172.928417 
L 227.661447 172.863045 
L 227.677585 172.797673 
L 227.758276 172.863045 
L 227.855106 172.99379 
L 227.887383 172.928417 
L 228.048766 172.863045 
L 228.097181 172.797673 
L 228.161734 172.863045 
L 228.419946 172.797673 
L 228.597468 172.536184 
L 228.823404 172.470812 
L 228.871819 172.340067 
L 228.936372 172.470812 
L 229.081617 172.405439 
L 229.259138 172.14395 
L 229.307553 172.078578 
L 229.468936 171.882461 
L 229.630319 171.947834 
L 229.646457 172.013206 
L 229.71101 171.882461 
L 229.727148 171.882461 
L 230.082191 171.817089 
L 230.098329 171.751717 
L 230.162882 171.882461 
L 230.179021 171.882461 
L 230.905244 171.817089 
L 231.195733 171.097994 
L 231.22801 171.032622 
L 231.421669 170.705761 
L 231.453946 170.640389 
L 231.954233 169.071455 
L 231.970371 169.136827 
L 232.034925 168.94071 
L 232.164031 167.502521 
L 232.180169 165.083747 
L 232.244722 72.385897 
L 232.309276 115.793071 
L 232.470659 171.686345 
L 232.535212 172.209323 
L 232.599765 172.078578 
L 232.74501 171.882461 
L 233.051637 173.58214 
L 233.551924 176.850752 
L 233.584201 176.916125 
L 233.826275 178.027453 
L 234.520222 180.380854 
L 234.584775 180.446226 
L 234.794573 180.83846 
L 234.842988 180.903832 
L 235.036647 181.230693 
L 235.101201 181.296065 
L 235.262584 181.492182 
L 235.359413 181.557554 
L 235.520796 181.753671 
L 235.601488 181.819043 
L 235.746732 181.949788 
L 235.908115 182.01516 
L 236.037222 182.080532 
L 236.117913 182.145905 
L 236.263158 182.342021 
L 236.279296 182.276649 
L 236.359988 182.407394 
L 236.521371 182.60351 
L 236.876413 182.538138 
L 237.005519 182.407394 
L 237.070073 182.538138 
L 237.118488 182.472766 
L 237.247594 182.407394 
L 237.392839 182.342021 
L 237.538083 182.211277 
L 237.57036 182.276649 
L 237.634913 182.211277 
L 237.812434 181.949788 
L 237.860849 181.884416 
L 238.006094 181.753671 
L 238.167477 181.688299 
L 238.312721 181.557554 
L 238.474104 181.492182 
L 238.619349 181.361438 
L 238.829147 181.296065 
L 238.974392 181.165321 
L 239.103498 181.099949 
L 239.264881 180.903832 
L 239.329434 180.83846 
L 239.490817 180.642343 
L 239.732891 180.576971 
L 239.861998 180.511598 
L 240.152487 180.446226 
L 240.281593 180.380854 
L 240.378423 180.446226 
L 240.394561 180.380854 
L 240.572083 180.315482 
L 240.701189 180.250109 
L 240.959402 180.184737 
L 241.104646 180.053993 
L 241.459689 179.98862 
L 241.604934 179.857876 
L 241.717902 179.792504 
L 241.879285 179.596387 
L 242.169774 179.596387 
L 242.363433 189.140735 
L 242.799167 197.050778 
L 243.234901 202.34593 
L 243.654497 206.202893 
L 243.783603 207.183476 
L 244.396859 211.301928 
L 244.638933 212.740118 
L 244.961699 214.505168 
L 246.494837 220.257926 
L 246.55939 220.323299 
L 246.946709 221.434627 
L 246.978986 221.499999 
L 247.237199 222.088349 
L 247.269475 222.153722 
L 247.527688 222.742072 
L 247.592241 222.807444 
L 247.834316 223.330422 
L 247.850454 223.330422 
L 247.995699 223.722656 
L 248.011837 223.657283 
L 248.060252 223.788028 
L 248.092528 223.788028 
L 248.302326 224.180261 
L 248.366879 224.245634 
L 248.576677 224.637867 
L 248.657369 224.703239 
L 248.83489 224.964728 
L 248.996273 225.030101 
L 249.173794 225.29159 
L 249.238347 225.356962 
L 249.383592 225.487706 
L 249.544975 225.553079 
L 249.706358 225.749195 
L 249.819326 225.814568 
L 249.980709 226.010684 
L 250.303475 226.076057 
L 250.416443 226.206801 
L 250.432581 226.141429 
L 250.513273 226.206801 
L 250.610102 226.337546 
L 250.642379 226.272173 
L 250.884453 226.337546 
L 251.01356 226.402918 
L 251.255634 226.46829 
L 251.271772 226.533662 
L 251.352464 226.402918 
L 251.497709 226.46829 
L 251.626815 226.533662 
L 252.43373 226.46829 
L 252.562836 226.337546 
L 252.691942 226.46829 
L 252.837187 226.337546 
L 252.934017 226.272173 
L 252.99857 226.206801 
L 253.046985 226.272173 
L 253.611825 226.206801 
L 253.75707 226.076057 
L 254.273495 226.010684 
L 254.41874 225.87994 
L 254.499431 225.945312 
L 254.531708 225.87994 
L 254.773783 225.814568 
L 254.789921 225.749195 
L 254.838336 225.87994 
L 254.886751 225.814568 
L 255.354761 225.749195 
L 255.483867 225.683823 
L 255.709804 225.618451 
L 255.83891 225.553079 
L 256.000293 225.487706 
L 256.129399 225.356962 
L 256.258506 225.422334 
L 256.387612 225.356962 
L 256.50058 225.29159 
L 256.645825 225.160845 
L 256.968591 225.095473 
L 257.097697 225.030101 
L 257.129974 224.964728 
L 257.275218 224.833984 
L 257.517293 224.768612 
L 257.646399 224.703239 
L 258.01758 224.637867 
L 258.146686 224.507123 
L 258.162824 224.572495 
L 258.259654 224.507123 
L 258.372622 220.715532 
L 259.647548 220.780904 
L 259.679824 220.846277 
L 259.760516 220.780904 
L 260.244665 220.715532 
L 260.276941 220.584788 
L 260.357633 220.715532 
L 261.42276 220.780904 
L 261.471175 220.846277 
L 261.51959 220.715532 
L 261.535728 220.780904 
L 262.616994 220.715532 
L 262.649271 220.65016 
L 262.729962 220.715532 
L 263.230249 220.780904 
L 263.359356 220.846277 
L 264.392206 220.911649 
L 264.521313 220.977021 
L 266.377217 220.977021 
L 266.570876 206.333637 
L 267.151855 189.140735 
L 268.265397 168.809966 
L 268.507472 166.652681 
L 268.846376 162.011252 
L 268.910929 72.124408 
L 268.991621 129.390499 
L 269.153004 172.274695 
L 269.18528 172.470812 
L 269.233695 172.209323 
L 269.395078 171.686345 
L 269.653291 172.274695 
L 269.75012 172.340067 
L 269.959918 172.732301 
L 270.072886 172.797673 
L 270.153578 172.928417 
L 270.201993 172.863045 
L 270.282684 172.928417 
L 270.395652 173.059162 
L 270.411791 172.99379 
L 270.573173 172.928417 
L 270.621588 172.863045 
L 270.653865 172.928417 
L 270.782971 173.124534 
L 270.79911 173.189906 
L 270.879801 173.124534 
L 271.025046 172.99379 
L 271.154152 173.059162 
L 271.218705 173.189906 
L 271.26712 173.124534 
L 271.428503 172.863045 
L 271.444641 172.928417 
L 271.525333 172.863045 
L 271.670578 172.732301 
L 271.735131 172.666928 
L 271.944929 172.274695 
L 272.02562 172.209323 
L 272.283833 171.5556 
L 272.299971 171.620972 
L 272.396801 171.5556 
L 272.445216 171.5556 
L 272.59046 171.228739 
L 272.832535 170.705761 
L 272.88095 170.640389 
L 273.139162 170.052038 
L 273.332822 170.117411 
L 273.510343 170.3789 
L 273.558758 170.444272 
L 273.704003 170.575016 
L 273.800833 170.640389 
L 273.865386 170.705761 
L 273.897662 170.575016 
L 273.913801 170.640389 
L 274.059045 170.313527 
L 274.220428 170.117411 
L 274.268843 170.052038 
L 274.543194 169.202199 
L 274.575471 169.267571 
L 274.86596 169.202199 
L 274.946651 169.071455 
L 274.96279 169.136827 
L 275.043481 169.202199 
L 275.075758 169.136827 
L 275.172588 169.071455 
L 275.366247 168.744593 
L 275.495354 168.679221 
L 275.753566 167.960126 
L 275.769705 168.025499 
L 275.834258 167.960126 
L 276.076332 167.437148 
L 276.140885 167.567893 
L 276.173162 167.437148 
L 276.544343 166.32582 
L 276.560481 166.391192 
L 276.608896 166.129703 
L 276.689587 166.064331 
L 277.060768 164.103164 
L 277.286704 161.68439 
L 277.351257 70.097868 
L 277.431949 119.650033 
L 277.593332 169.855922 
L 277.754715 170.836505 
L 278.255002 173.320651 
L 278.480938 174.301235 
L 278.868257 175.543307 
L 278.884396 175.477935 
L 278.916672 175.543307 
L 279.094193 175.804796 
L 279.158747 175.870169 
L 279.336268 176.131658 
L 279.69131 176.066285 
L 279.852693 175.870169 
L 280.014076 175.804796 
L 280.240012 175.347191 
L 280.54664 175.281818 
L 280.675746 175.216446 
L 280.804853 175.151074 
L 280.820991 175.085702 
L 280.885544 175.216446 
L 280.917821 175.151074 
L 281.079204 175.085702 
L 281.20831 175.020329 
L 281.563353 174.954957 
L 281.708597 174.75884 
L 281.837704 174.824213 
L 282.031363 174.75884 
L 282.160469 174.693468 
L 282.225023 174.75884 
L 282.257299 174.628096 
L 282.273438 174.693468 
L 282.418682 174.562724 
L 282.483235 174.497351 
L 282.644618 174.301235 
L 282.693033 174.366607 
L 282.773725 174.431979 
L 282.806001 174.366607 
L 282.951246 174.301235 
L 283.128767 174.039746 
L 283.499948 173.974373 
L 283.645193 173.843629 
L 283.903405 173.778257 
L 284.097065 173.451395 
L 284.161618 173.386023 
L 284.306863 173.124534 
L 284.323001 173.189906 
L 284.371416 173.124534 
L 284.548937 172.863045 
L 284.597352 172.797673 
L 284.758735 172.470812 
L 284.774873 172.536184 
L 284.871703 172.470812 
L 285.033086 172.274695 
L 285.065363 172.209323 
L 285.27516 171.817089 
L 285.307437 171.751717 
L 285.452682 171.620972 
L 285.484958 171.5556 
L 285.662479 171.228739 
L 285.678618 171.294111 
L 285.743171 171.163367 
L 285.759309 171.163367 
L 285.823862 171.097994 
L 286.001384 170.836505 
L 286.082075 170.901878 
L 286.114352 170.836505 
L 286.146628 170.771133 
L 286.308011 170.509644 
L 286.453256 170.640389 
L 286.517809 170.575016 
L 286.550086 170.509644 
L 286.614639 170.640389 
L 286.630777 170.575016 
L 286.969681 170.509644 
L 287.001958 170.444272 
L 287.082649 170.509644 
L 287.486107 170.444272 
L 287.631352 170.313527 
L 287.776596 170.248155 
L 288.083224 169.463688 
L 288.341436 169.398316 
L 288.486681 169.136827 
L 288.502819 169.202199 
L 288.535096 169.267571 
L 288.567373 169.332944 
L 288.631926 169.202199 
L 288.728756 169.136827 
L 288.954692 168.679221 
L 289.003107 168.744593 
L 289.16449 169.006082 
L 289.212904 168.94071 
L 289.261319 169.071455 
L 289.600224 169.006082 
L 289.745468 168.613849 
L 289.793883 168.548477 
L 289.922989 168.483104 
L 289.987543 168.417732 
L 290.342585 167.371776 
L 290.358723 167.437148 
L 290.391 167.306404 
L 290.455553 167.371776 
L 290.568521 167.241032 
L 290.58466 167.306404 
L 290.681489 167.241032 
L 290.859011 166.979543 
L 290.907425 166.91417 
L 291.068808 166.718054 
L 291.133362 166.652681 
L 291.375436 166.129703 
L 291.423851 166.064331 
L 292.053244 163.12258 
L 292.101659 160.834551 
L 292.166212 70.359357 
L 292.230766 110.236429 
L 292.408287 169.398316 
L 292.553532 169.921294 
L 292.634223 169.986666 
L 293.392723 172.601556 
L 293.424999 172.666928 
L 293.812319 173.778257 
L 293.876872 173.843629 
L 294.118946 174.366607 
L 294.248053 174.431979 
L 294.377159 174.562724 
L 294.506265 174.497351 
L 294.667648 174.562724 
L 294.829031 174.75884 
L 294.877446 174.824213 
L 295.006552 174.889585 
L 295.11952 174.954957 
L 295.21635 175.020329 
L 295.232489 174.954957 
L 295.490701 174.889585 
L 295.652084 174.693468 
L 295.700499 174.628096 
L 295.87802 174.366607 
L 295.990988 174.301235 
L 296.152371 174.105118 
L 296.216925 174.039746 
L 296.394446 173.778257 
L 296.555829 173.712884 
L 296.571967 173.647512 
L 296.652659 173.712884 
L 296.862456 174.105118 
L 297.29819 174.039746 
L 297.475712 173.778257 
L 297.669371 173.712884 
L 297.879169 173.320651 
L 297.911446 173.255279 
L 298.072828 173.059162 
L 298.121243 172.99379 
L 298.282626 172.797673 
L 298.34718 172.732301 
L 298.556977 172.340067 
L 298.686084 172.274695 
L 298.976573 171.5556 
L 299.057265 171.490228 
L 299.299339 170.96725 
L 299.912594 170.901878 
L 300.090115 170.640389 
L 300.380605 170.575016 
L 300.509711 170.509644 
L 300.606541 170.444272 
L 300.703371 170.3789 
L 300.719509 170.444272 
L 300.8002 170.3789 
L 300.913168 170.313527 
L 300.945445 170.3789 
L 300.977722 170.248155 
L 301.009998 170.248155 
L 301.042275 170.248155 
L 301.171381 169.986666 
L 301.268211 169.921294 
L 301.413456 169.790549 
L 301.478009 169.855922 
L 301.510285 169.790549 
L 301.639392 169.659805 
L 301.703945 169.790549 
L 301.768498 169.725177 
L 301.816913 169.790549 
L 301.946019 169.855922 
L 302.139679 169.921294 
L 302.284924 170.117411 
L 302.397892 170.052038 
L 302.51086 170.117411 
L 302.672243 169.790549 
L 302.688381 169.855922 
L 302.849764 169.790549 
L 303.043423 169.463688 
L 303.091838 169.398316 
L 303.285498 169.071455 
L 303.333913 169.006082 
L 303.511434 168.744593 
L 303.608264 168.679221 
L 303.769647 168.483104 
L 303.963306 168.417732 
L 304.092413 168.156243 
L 304.156966 168.090871 
L 304.30221 167.829382 
L 304.318349 167.894754 
L 304.479732 167.829382 
L 304.608838 167.567893 
L 304.641115 167.633265 
L 304.721806 167.633265 
L 304.818636 167.371776 
L 304.850912 167.437148 
L 304.899327 167.437148 
L 305.06071 166.848798 
L 305.109125 166.91417 
L 305.141402 166.718054 
L 305.15754 166.783426 
L 305.189817 166.718054 
L 305.399615 166.32582 
L 305.464168 166.260448 
L 305.81921 165.279864 
L 305.835348 165.279864 
L 306.093561 163.972419 
L 306.125838 163.907047 
L 306.335636 161.68439 
L 306.351774 160.899923 
L 306.416327 70.686218 
L 306.497019 119.84615 
L 306.658402 169.071455 
L 306.739093 169.594433 
L 306.787508 169.463688 
L 306.965029 169.202199 
L 307.207104 169.267571 
L 307.836497 171.359483 
L 307.868774 171.424856 
L 308.062433 171.751717 
L 308.110848 171.817089 
L 308.304508 172.536184 
L 308.482029 172.797673 
L 308.788657 172.732301 
L 308.885486 172.666928 
L 308.901625 172.732301 
L 309.095284 172.797673 
L 309.22439 172.928417 
L 309.353497 172.863045 
L 309.466465 172.928417 
L 309.579433 172.99379 
L 309.740816 172.797673 
L 310.111997 172.863045 
L 310.257241 172.99379 
L 310.434763 172.928417 
L 310.596146 172.732301 
L 310.967326 172.666928 
L 311.112571 172.536184 
L 311.160986 172.470812 
L 311.419199 171.882461 
L 311.548305 171.817089 
L 311.725826 171.5556 
L 311.919486 171.490228 
L 312.048592 171.424856 
L 312.306805 171.359483 
L 312.484326 171.097994 
L 312.532741 171.032622 
L 312.710262 170.771133 
L 312.903922 170.705761 
L 313.065305 170.509644 
L 313.178273 170.444272 
L 313.323517 170.313527 
L 313.67856 170.248155 
L 313.743113 170.313527 
L 313.856081 169.986666 
L 314.162709 169.921294 
L 314.275677 169.855922 
L 314.404783 169.921294 
L 314.646858 169.398316 
L 314.743687 169.332944 
L 314.856655 169.136827 
L 314.888932 169.202199 
L 314.985762 169.136827 
L 315.19556 168.744593 
L 315.260113 168.679221 
L 315.437634 168.417732 
L 315.631294 168.35236 
L 315.776538 168.221615 
L 315.905645 168.156243 
L 315.937921 168.090871 
L 315.986336 168.221615 
L 316.228411 169.398316 
L 316.260687 169.463688 
L 316.42207 169.921294 
L 316.631868 170.3789 
L 316.777113 170.248155 
L 317.116017 170.182783 
L 317.2774 169.986666 
L 317.422644 170.117411 
L 317.713134 170.052038 
L 317.84224 169.986666 
L 317.874517 169.921294 
L 318.229559 168.94071 
L 318.310251 168.875338 
L 318.826676 167.241032 
L 318.891229 167.175659 
L 319.213995 166.32582 
L 319.310825 166.32582 
L 319.472208 165.868214 
L 319.633591 164.822258 
L 319.859527 162.141996 
L 319.891804 118.146472 
L 319.92408 71.536057 
L 319.988633 102.457132 
L 320.166155 167.502521 
L 320.246846 168.090871 
L 320.295261 167.894754 
L 320.359814 167.960126 
L 320.569612 168.35236 
L 320.58575 168.286988 
L 320.618027 168.417732 
L 320.666442 168.417732 
L 320.843963 168.679221 
L 320.892378 168.744593 
L 321.311974 169.986666 
L 321.360388 170.052038 
L 321.554048 170.3789 
L 321.699293 170.444272 
L 321.844537 170.575016 
L 321.941367 170.640389 
L 322.118888 170.901878 
L 322.29641 170.96725 
L 322.441654 171.163367 
L 322.473931 171.097994 
L 322.538484 171.163367 
L 322.699867 171.359483 
L 322.716005 171.294111 
L 322.780558 171.424856 
L 323.022633 171.947834 
L 323.652026 171.882461 
L 323.764994 171.751717 
L 323.781133 171.817089 
L 323.877963 171.751717 
L 324.023207 171.490228 
L 324.039345 171.5556 
L 324.152314 171.490228 
L 324.168452 171.424856 
L 324.233005 171.620972 
L 324.249143 171.5556 
L 324.265282 171.620972 
L 324.329835 171.490228 
L 324.345973 171.490228 
L 324.475079 171.424856 
L 324.701016 171.490228 
L 324.830122 171.620972 
L 324.894675 171.5556 
L 324.94309 171.620972 
L 325.685452 171.5556 
L 325.846835 171.359483 
L 325.911388 171.294111 
L 326.040494 171.228739 
L 326.185739 171.163367 
L 326.379398 170.836505 
L 326.395537 170.836505 
L 326.540781 170.509644 
L 326.589196 170.444272 
L 326.798994 170.052038 
L 326.9281 169.986666 
L 327.073345 169.790549 
L 327.089483 169.855922 
L 327.12176 169.725177 
L 327.154036 169.725177 
L 327.299281 169.594433 
L 327.412249 169.659805 
L 327.525217 169.594433 
L 327.573632 169.659805 
L 327.605909 169.52906 
L 327.622047 169.594433 
L 327.751153 169.52906 
L 327.78343 169.463688 
L 327.960951 169.202199 
L 328.186887 169.136827 
L 328.428962 168.613849 
L 328.493515 168.613849 
L 328.622621 168.221615 
L 328.63876 168.286988 
L 328.961525 168.35236 
L 328.977664 168.417732 
L 329.00994 168.286988 
L 329.058355 168.286988 
L 329.187462 168.221615 
L 329.252015 168.156243 
L 329.461813 167.76401 
L 329.558642 167.698637 
L 329.687749 167.633265 
L 329.800717 167.698637 
L 329.9621 167.306404 
L 329.978238 167.371776 
L 330.091206 167.633265 
L 330.123483 167.502521 
L 330.204174 167.437148 
L 330.397834 167.044915 
L 330.43011 167.110287 
L 330.478525 166.979543 
L 330.494664 166.979543 
L 330.688323 166.979543 
L 330.833568 166.652681 
L 330.930398 166.652681 
L 331.124057 181.622927 
L 331.495238 192.213231 
L 332.076216 201.75758 
L 332.786301 209.079272 
L 333.528663 214.243679 
L 335.158631 220.388671 
L 335.174769 220.388671 
L 335.336152 220.911649 
L 335.35229 220.911649 
L 335.529812 221.499999 
L 335.997822 222.938189 
L 336.046237 223.003561 
L 336.272173 223.461167 
L 336.30445 223.526539 
L 336.530386 223.984145 
L 336.675631 224.049517 
L 336.86929 224.376378 
L 336.917705 224.44175 
L 337.079088 224.768612 
L 337.095226 224.703239 
L 337.111365 224.703239 
L 337.256609 225.030101 
L 337.337301 225.095473 
L 337.53096 225.422334 
L 337.660067 225.487706 
L 337.853726 225.814568 
L 338.015109 225.87994 
L 338.19263 226.141429 
L 338.321737 226.206801 
L 338.466981 226.337546 
L 338.579949 226.402918 
L 338.709056 226.46829 
L 339.306173 226.402918 
L 339.386864 226.337546 
L 339.419141 226.402918 
L 340.758619 226.337546 
L 340.920002 226.141429 
L 341.065247 226.076057 
L 341.22663 225.87994 
L 341.371874 225.814568 
L 341.517119 225.683823 
L 341.662364 225.618451 
L 341.69464 225.553079 
L 341.775332 225.618451 
L 341.936715 225.553079 
L 342.065821 225.487706 
L 342.194928 225.553079 
L 342.630662 225.487706 
L 342.6468 225.422334 
L 342.679076 225.553079 
L 342.74363 225.487706 
L 343.11481 225.422334 
L 343.163225 225.356962 
L 343.227778 225.422334 
L 343.760342 225.356962 
L 343.792619 225.29159 
L 343.87331 225.356962 
L 343.97014 225.29159 
L 344.050831 225.226217 
L 344.083108 225.29159 
L 344.228353 225.226217 
L 344.357459 225.160845 
L 344.680225 225.095473 
L 344.696363 225.030101 
L 344.793193 225.095473 
L 344.922299 225.030101 
L 345.051406 224.964728 
L 345.083682 225.030101 
L 345.164374 224.964728 
L 345.600108 224.899356 
L 345.616246 224.833984 
L 345.713076 224.899356 
L 345.793767 224.833984 
L 345.922874 224.768612 
L 346.068118 224.703239 
L 346.181086 224.572495 
L 346.197225 224.637867 
L 346.261778 224.572495 
L 346.390884 224.507123 
L 346.568406 224.44175 
L 346.584544 224.376378 
L 346.681374 224.44175 
L 346.971863 224.376378 
L 347.117108 224.245634 
L 347.940161 224.311006 
L 347.972437 224.376378 
L 348.053129 224.311006 
L 349.666958 224.376378 
L 349.683097 224.44175 
L 349.779926 224.376378 
L 351.16782 224.44175 
L 351.264649 224.507123 
L 351.280788 224.44175 
L 353.362628 224.376378 
L 353.394904 224.311006 
L 353.443319 224.44175 
L 353.475596 224.376378 
L 354.702106 224.311006 
L 354.815074 224.245634 
L 354.831213 224.311006 
L 354.879628 224.180261 
L 354.928042 224.245634 
L 355.024872 224.180261 
L 355.041011 224.245634 
L 355.121702 224.245634 
L 355.13784 224.114889 
L 355.3315 195.416471 
L 355.79951 166.32582 
L 355.89634 155.539399 
L 355.944755 68.463562 
L 356.009308 112.00148 
L 356.154553 165.018375 
L 356.170691 164.887631 
L 356.364351 159.984712 
L 356.800085 151.159458 
L 356.864638 70.424729 
L 356.945329 111.086269 
L 357.122851 159.984712 
L 357.284234 161.161412 
L 357.494031 161.553646 
L 357.542446 161.488274 
L 357.590861 161.553646 
L 357.703829 161.815135 
L 357.719968 161.749763 
L 357.865212 161.68439 
L 358.187978 160.834551 
L 358.236393 160.769179 
L 358.768957 158.154289 
L 359.043308 155.081793 
L 359.172414 150.505736 
L 359.236967 67.809839 
L 359.30152 100.626709 
L 359.49518 160.180829 
L 359.672701 162.076624 
L 359.898637 162.664974 
L 359.914776 162.599602 
L 360.092297 162.664974 
L 360.140712 162.730346 
L 360.172988 162.599602 
L 360.189127 162.599602 
L 360.25368 162.53423 
L 360.528031 161.880507 
L 360.640999 161.815135 
L 360.834658 161.292157 
L 360.866935 161.357529 
L 360.947627 161.292157 
L 361.092871 160.965296 
L 361.125148 161.030668 
L 361.173563 160.965296 
L 361.383361 160.573062 
L 361.447914 160.50769 
L 361.722265 159.853967 
L 361.786818 159.788595 
L 362.028892 159.265617 
L 362.125722 159.200245 
L 362.43235 158.415778 
L 362.496903 158.350406 
L 363.303818 155.539399 
L 363.352233 155.604771 
L 363.384509 155.408654 
L 363.56203 152.140042 
L 363.626584 66.96 
L 363.707275 108.536751 
L 363.884796 159.330989 
L 364.046179 161.030668 
L 364.143009 161.09604 
L 364.304392 161.292157 
L 364.336669 161.357529 
L 364.352807 161.422901 
L 364.433498 161.357529 
L 364.449637 161.292157 
L 364.530328 161.422901 
L 364.836956 161.488274 
L 364.853094 161.553646 
L 364.885371 161.422901 
L 364.917647 161.422901 
L 365.304966 160.311573 
L 365.595456 160.246201 
L 366.257126 158.023544 
L 366.321679 158.088917 
L 366.370094 158.219661 
L 366.418509 158.023544 
L 366.773551 157.042961 
L 366.805828 157.108333 
L 366.838104 156.912216 
L 366.967211 156.650727 
L 366.999487 156.716099 
L 367.015626 156.781472 
L 367.06404 156.650727 
L 367.080179 156.650727 
L 367.225423 156.519983 
L 367.273838 156.45461 
L 367.45136 155.86626 
L 367.628881 154.68956 
L 367.854817 153.643604 
L 367.887093 153.578231 
L 367.967785 152.401531 
L 368.000062 147.760101 
L 368.064615 67.875211 
L 368.129168 99.123147 
L 368.338966 158.677267 
L 368.516487 160.180829 
L 368.694008 160.50769 
L 368.806976 160.442318 
L 368.952221 160.573062 
L 369.000636 160.442318 
L 369.081327 160.50769 
L 369.194295 160.638434 
L 369.210434 160.573062 
L 369.24271 160.573062 
L 369.323402 160.442318 
L 369.355678 160.50769 
L 369.387955 160.703807 
L 369.484785 160.573062 
L 369.581614 160.50769 
L 369.839827 159.91934 
L 369.952795 159.853967 
L 370.501497 158.088917 
L 370.533774 158.023544 
L 370.695157 157.435194 
L 370.808125 157.500566 
L 371.114753 156.716099 
L 371.163167 156.650727 
L 371.308412 156.45461 
L 371.32455 156.519983 
L 371.389104 156.323866 
L 371.405242 156.389238 
L 371.534348 156.45461 
L 371.679593 156.781472 
L 371.744146 156.650727 
L 371.808699 156.716099 
L 371.857114 156.650727 
L 371.970082 156.45461 
L 372.002359 156.519983 
L 372.08305 156.45461 
L 372.551061 154.951049 
L 372.567199 155.016421 
L 372.615614 154.820304 
L 372.825412 153.643604 
L 372.922242 150.897969 
L 372.986795 67.482978 
L 373.067486 103.045482 
L 373.261146 157.173705 
L 373.454805 158.611895 
L 373.69688 159.134873 
L 373.858263 159.0695 
L 373.955092 158.938756 
L 373.971231 159.004128 
L 374.051922 159.134873 
L 374.084199 159.0695 
L 374.374688 158.350406 
L 374.45538 158.285033 
L 374.616763 158.023544 
L 374.713592 158.088917 
L 374.729731 158.023544 
L 374.842699 157.958172 
L 375.068635 157.500566 
L 375.100911 157.565939 
L 375.197741 157.696683 
L 375.230018 157.631311 
L 375.262294 157.565939 
L 375.617337 156.585355 
L 375.665752 156.519983 
L 375.827135 155.997005 
L 375.859411 156.062377 
L 375.891688 156.127749 
L 375.940103 155.931632 
L 376.149901 155.474027 
L 376.182177 155.539399 
L 376.262869 155.474027 
L 376.295145 155.408654 
L 376.698603 154.231954 
L 376.779294 154.297326 
L 376.795432 154.231954 
L 377.118198 152.466903 
L 377.182752 151.094086 
L 377.215028 127.363959 
L 377.263443 68.005956 
L 377.327996 94.743206 
L 377.537794 155.604771 
L 377.683039 157.30445 
L 377.699177 157.239077 
L 377.95739 157.827428 
L 378.054219 157.8928 
L 378.215602 158.088917 
L 378.393124 158.023544 
L 378.538368 157.8928 
L 378.586783 157.827428 
L 378.877273 157.108333 
L 378.941826 157.042961 
L 378.990241 156.977588 
L 379.022517 157.108333 
L 379.038655 157.108333 
L 379.167762 157.042961 
L 379.474389 156.258494 
L 379.522804 156.193121 
L 379.668049 156.062377 
L 379.74874 155.997005 
L 379.990815 155.474027 
L 380.023091 155.408654 
L 380.216751 154.558815 
L 380.232889 154.624187 
L 380.297442 154.428071 
L 380.426549 154.362698 
L 380.491102 154.428071 
L 380.571794 154.558815 
L 380.620208 154.493443 
L 380.684762 154.428071 
L 380.846145 154.166582 
L 380.862283 154.231954 
L 380.910698 153.970465 
L 380.959113 153.905093 
L 381.394847 151.682436 
L 381.540091 149.198291 
L 381.572368 123.637741 
L 381.620783 67.744467 
L 381.685336 94.089484 
L 381.911272 156.45461 
L 382.104932 157.958172 
L 382.185623 158.023544 
L 382.395421 158.415778 
L 382.459974 158.48115 
L 382.605219 158.611895 
L 382.702048 158.546522 
L 382.944123 158.023544 
L 383.121644 158.088917 
L 383.234612 158.350406 
L 383.283027 158.285033 
L 383.379857 158.350406 
L 383.395995 158.415778 
L 383.44441 158.285033 
L 383.460548 158.285033 
L 383.670346 157.8928 
L 383.702623 157.827428 
L 383.912421 157.435194 
L 383.944697 157.369822 
L 384.089942 157.108333 
L 384.10608 157.173705 
L 384.154495 157.108333 
L 384.348155 156.781472 
L 384.380431 156.716099 
L 384.477261 156.519983 
L 384.525676 156.585355 
L 384.735474 156.519983 
L 384.896857 156.193121 
L 384.912995 156.258494 
L 384.993686 156.193121 
L 385.042101 156.127749 
L 385.106654 156.193121 
L 385.171208 156.127749 
L 385.300314 155.86626 
L 385.332591 155.931632 
L 385.364867 156.062377 
L 385.42942 155.931632 
L 386.123367 152.728392 
L 386.317027 149.067546 
L 386.38158 69.117284 
L 386.47841 107.883028 
L 386.672069 155.343282 
L 386.833452 156.585355 
L 386.84959 156.519983 
L 386.898005 156.781472 
L 387.107803 157.30445 
L 387.123941 157.239077 
L 387.172356 157.30445 
L 387.349877 157.565939 
L 387.527399 157.30445 
L 387.688782 157.239077 
L 387.882441 156.912216 
L 387.979271 156.912216 
L 388.140654 157.435194 
L 388.318175 157.173705 
L 388.415005 157.239077 
L 388.431143 157.173705 
L 388.527973 157.108333 
L 388.657079 157.042961 
L 388.689356 157.108333 
L 388.737771 156.977588 
L 388.753909 156.977588 
L 389.012122 156.389238 
L 389.076675 156.389238 
L 389.238058 155.931632 
L 390.077249 152.07467 
L 390.319324 148.217707 
L 390.3516 116.381421 
L 390.400015 68.790423 
L 390.464568 95.13544 
L 390.674366 153.905093 
L 390.835749 155.539399 
L 390.868026 155.604771 
L 391.142377 156.258494 
L 391.158515 156.258494 
L 391.174653 156.127749 
L 391.271483 156.193121 
L 391.352175 156.062377 
L 391.384451 156.193121 
L 391.497419 156.127749 
L 391.513558 156.062377 
L 391.594249 156.193121 
L 391.739494 156.127749 
L 391.96543 155.670143 
L 392.078398 155.604771 
L 392.417302 154.68956 
L 392.449579 154.68956 
L 392.610962 154.166582 
L 392.659377 154.101209 
L 392.869174 153.25137 
L 392.885313 153.25137 
L 393.175802 151.747808 
L 393.627674 149.45978 
L 393.724504 147.43324 
L 393.756781 122.787901 
L 393.805196 69.248029 
L 393.869749 90.559382 
L 394.111823 153.382115 
L 394.305483 155.408654 
L 394.499142 156.193121 
L 394.547557 156.258494 
L 394.757355 156.650727 
L 394.967153 156.716099 
L 395.015568 156.846844 
L 395.080121 156.781472 
L 395.386749 155.997005 
L 395.419025 155.931632 
L 395.56427 155.800888 
L 395.612685 155.800888 
L 395.757929 155.474027 
L 395.806344 155.408654 
L 395.967727 155.016421 
L 396.000004 155.081793 
L 396.096833 155.016421 
L 396.290493 154.297326 
L 396.32277 154.231954 
L 396.726227 153.055253 
L 396.758504 152.989881 
L 397.048993 152.009297 
L 397.097408 152.07467 
L 397.129684 152.140042 
L 397.161961 152.009297 
L 397.517003 148.60994 
L 397.565418 143.968511 
L 397.629972 69.444145 
L 397.710663 97.881074 
L 397.936599 152.924509 
L 398.130259 154.951049 
L 398.162535 155.016421 
L 398.501439 155.931632 
L 398.582131 155.997005 
L 398.727376 156.127749 
L 398.904897 156.062377 
L 399.050142 155.931632 
L 399.211524 155.86626 
L 399.453599 155.343282 
L 399.582705 155.27791 
L 399.744088 155.016421 
L 399.857056 155.081793 
L 399.889333 155.016421 
L 399.953886 155.147165 
L 400.018439 155.081793 
L 400.438035 153.83972 
L 400.470311 153.774348 
L 401.196535 150.440363 
L 401.406333 147.041006 
L 401.487024 69.444145 
L 401.583854 107.163934 
L 401.777513 151.747808 
L 401.955035 153.83972 
L 402.229386 155.212538 
L 402.358492 155.408654 
L 402.37463 155.343282 
L 402.439183 155.27791 
L 402.519875 155.212538 
L 402.552152 155.27791 
L 402.842641 155.212538 
L 403.068577 154.754932 
L 403.100854 154.68956 
L 403.294513 154.362698 
L 403.342928 154.297326 
L 403.455896 154.166582 
L 403.472034 154.231954 
L 403.923907 154.166582 
L 404.053013 154.101209 
L 404.165981 154.166582 
L 404.214396 154.231954 
L 404.278949 154.166582 
L 404.359641 154.231954 
L 404.424194 154.297326 
L 404.472609 154.231954 
L 404.521024 154.166582 
L 404.730821 153.512859 
L 404.779236 153.578231 
L 404.843789 153.643604 
L 404.892204 153.578231 
L 405.102002 153.512859 
L 405.344077 152.989881 
L 405.392492 152.924509 
L 405.50546 152.532275 
L 405.537736 152.597648 
L 405.602289 152.532275 
L 406.005747 150.440363 
L 406.215545 147.956218 
L 406.296236 144.23 
L 406.376928 70.293985 
L 406.441481 95.789162 
L 406.667417 152.336159 
L 406.861076 154.68956 
L 407.280672 155.931632 
L 407.442055 155.86626 
L 407.571161 155.604771 
L 407.813236 155.670143 
L 407.893927 155.735516 
L 407.926204 155.670143 
L 408.119863 155.735516 
L 408.200555 155.86626 
L 408.24897 155.800888 
L 408.3458 155.735516 
L 408.523321 155.474027 
L 408.604012 155.474027 
L 408.797672 154.754932 
L 409.104299 153.970465 
L 409.152714 153.905093 
L 409.749831 151.943925 
L 409.798246 151.878553 
L 409.927352 151.420947 
L 409.975767 151.617064 
L 410.395363 151.551692 
L 410.944065 148.871429 
L 411.105448 143.445533 
L 411.186139 70.293985 
L 411.250693 94.677834 
L 411.476629 152.205414 
L 411.65415 154.493443 
L 411.896224 155.604771 
L 412.057607 155.800888 
L 412.138299 155.735516 
L 412.267405 155.604771 
L 412.299682 155.670143 
L 412.348097 155.539399 
L 412.364235 155.539399 
L 412.525618 155.474027 
L 412.590171 155.408654 
L 412.622448 155.539399 
L 412.703139 155.800888 
L 412.767692 155.735516 
L 412.97749 155.343282 
L 413.058182 155.27791 
L 413.203426 155.147165 
L 413.300256 155.081793 
L 413.477777 154.558815 
L 413.510054 154.68956 
L 413.752128 154.624187 
L 414.252416 153.055253 
L 414.316969 152.989881 
L 414.462213 152.859137 
L 414.510628 152.793764 
L 414.801118 152.07467 
L 414.833394 152.009297 
L 415.382096 146.779517 
L 415.414373 140.307664 
L 415.478926 70.097868 
L 415.543479 91.605338 
L 415.785554 152.336159 
L 415.979213 154.428071 
L 416.189011 155.27791 
L 416.414947 155.735516 
L 416.544053 155.670143 
L 416.76999 155.670143 
L 416.931373 155.212538 
L 416.963649 155.27791 
L 417.012064 155.081793 
L 417.060479 155.016421 
L 417.286415 154.558815 
L 417.399383 154.493443 
L 417.818979 153.25137 
L 417.851255 153.185998 
L 418.109468 152.597648 
L 418.238574 152.532275 
L 418.56134 151.682436 
L 418.577479 151.747808 
L 418.625894 151.617064 
L 418.642032 151.617064 
L 419.126181 149.198291 
L 419.335979 146.191167 
L 419.368255 133.966556 
L 419.432808 70.228612 
L 419.497362 92.259061 
L 419.787851 170.313527 
L 420.046064 185.872123 
L 420.433383 197.312267 
L 420.83684 204.437842 
L 421.224159 208.948527 
L 421.627616 212.544001 
L 421.788999 213.655329 
L 422.224733 216.335591 
L 422.757297 218.950481 
L 422.950957 219.669576 
L 423.67718 222.153722 
L 423.709457 222.219094 
L 424.145191 223.526539 
L 424.177467 223.591911 
L 424.451818 224.245634 
L 424.500233 224.311006 
L 424.758446 224.899356 
L 424.855276 224.964728 
L 425.129627 225.618451 
L 425.145765 225.553079 
L 425.178041 225.683823 
L 425.210318 225.683823 
L 425.436254 226.141429 
L 425.549222 226.206801 
L 425.726743 226.46829 
L 425.839712 226.533662 
L 426.017233 226.795151 
L 426.097924 226.860524 
L 426.259307 227.05664 
L 426.32386 227.122013 
L 426.501382 227.383502 
L 426.51752 227.318129 
L 426.582073 227.448874 
L 426.598211 227.448874 
L 426.727318 227.514246 
L 426.824148 227.579618 
L 426.98553 227.775735 
L 427.033945 227.841107 
L 427.163052 227.90648 
L 427.243743 227.971852 
L 427.388988 228.167969 
L 427.421264 228.102596 
L 427.501956 228.167969 
L 428.131349 228.233341 
L 428.276594 228.364085 
L 429.148062 228.429458 
L 429.1642 228.49483 
L 429.244892 228.429458 
L 429.341722 228.364085 
L 429.35786 228.429458 
L 429.729041 228.49483 
L 429.793594 228.560202 
L 429.842009 228.49483 
L 430.697338 228.429458 
L 430.826445 228.364085 
L 431.310594 228.298713 
L 431.375147 228.233341 
L 431.423562 228.298713 
L 431.4397 228.364085 
L 431.520391 228.298713 
L 431.649498 228.233341 
L 432.036817 228.167969 
L 432.165923 228.102596 
L 432.633934 228.037224 
L 432.76304 227.971852 
L 433.392434 227.90648 
L 433.52154 227.841107 
L 433.795891 227.775735 
L 433.860444 227.644991 
L 433.908859 227.710363 
L 433.989551 227.775735 
L 434.021827 227.710363 
L 434.74805 227.644991 
L 434.877157 227.579618 
L 435.232199 227.514246 
L 435.377444 227.383502 
L 435.458135 227.448874 
L 435.490412 227.383502 
L 435.780901 227.383502 
L 435.780901 227.383502 
" style="fill:none;stroke:#1f77b4;stroke-linecap:square;stroke-width:1.5;"/>
   </g>
   <g id="line2d_12">
    <path clip-path="url(#p307b41271f)" d="M 80.754545 221.486925 
L 81.351662 218.233583 
L 81.948779 216.225347 
L 82.610449 214.873136 
L 82.868662 214.525041 
L 83.239843 214.123394 
L 84.079034 213.561088 
L 84.353385 213.453982 
L 84.643875 213.346877 
L 85.128023 213.239771 
L 85.337821 213.199606 
L 86.322257 213.0925 
L 86.499779 213.079112 
L 88.904385 213.012171 
L 89.485363 199.249063 
L 90.050203 190.908192 
L 90.598906 185.820662 
L 91.115331 182.781532 
L 91.59948 180.933955 
L 92.051352 179.809343 
L 92.842129 178.711508 
L 93.48766 178.309861 
L 93.874979 178.202755 
L 94.084777 178.16259 
L 95.634054 178.269696 
L 95.85999 178.323249 
L 96.376415 178.430355 
L 96.61849 178.497296 
L 97.0865 178.604402 
L 97.328575 178.671343 
L 97.74817 178.778449 
L 97.990245 178.84539 
L 98.40984 178.952496 
L 98.668053 179.032826 
L 99.119925 179.139932 
L 99.362 179.206873 
L 99.781595 179.313979 
L 100.02367 179.38092 
L 100.475542 179.488026 
L 100.717617 179.554967 
L 101.185627 179.662073 
L 101.427702 179.729014 
L 101.927989 179.83612 
L 102.170063 179.903061 
L 102.686489 180.010167 
L 102.912425 180.06372 
L 103.412712 180.170826 
L 103.638648 180.224379 
L 104.171212 180.331485 
L 104.397148 180.385038 
L 104.961988 180.492143 
L 105.187924 180.545696 
L 105.768903 180.652802 
L 105.994839 180.706355 
L 106.624233 180.813461 
L 106.83403 180.853626 
L 107.447286 180.960732 
L 107.657084 181.000896 
L 108.302615 181.108002 
L 108.512413 181.148167 
L 109.190222 181.255273 
L 109.400019 181.295438 
L 110.110104 181.402544 
L 110.319902 181.442708 
L 111.09454 181.549814 
L 111.304338 181.589979 
L 112.127391 181.697085 
L 112.337189 181.737249 
L 113.208657 181.844355 
L 113.418455 181.88452 
L 114.354476 181.991626 
L 114.548136 182.018402 
L 115.45188 182.125508 
L 115.64554 182.152285 
L 116.629976 182.259391 
L 116.823635 182.286167 
L 117.872624 182.393273 
L 118.066284 182.42005 
L 119.195965 182.527155 
L 119.389624 182.553932 
L 120.616135 182.661038 
L 120.809794 182.687814 
L 122.149273 182.79492 
L 122.342932 182.821697 
L 123.811517 182.928803 
L 124.005177 182.955579 
L 125.635144 183.062685 
L 125.828804 183.089461 
L 127.620155 183.196567 
L 127.797676 183.209956 
L 129.605165 183.317061 
L 129.782686 183.33045 
L 131.816111 183.437556 
L 131.993633 183.450944 
L 134.301409 183.55805 
L 134.47893 183.571438 
L 137.157887 183.678544 
L 137.335408 183.691932 
L 140.482376 183.799038 
L 140.659897 183.812426 
L 144.484673 183.919532 
L 144.662194 183.93292 
L 149.503683 184.040026 
L 149.681204 184.053414 
L 153.457565 184.120356 
L 154.006267 197.294381 
L 154.603384 206.237723 
L 155.152086 211.338641 
L 155.668512 214.391159 
L 156.152661 216.252124 
L 156.975714 218.005983 
L 157.395309 218.48796 
L 158.073118 218.916383 
L 158.460437 219.023489 
L 158.670235 219.063654 
L 160.316341 218.956548 
L 160.542277 218.902995 
L 161.074841 218.795889 
L 161.300777 218.742336 
L 161.752649 218.63523 
L 161.994723 218.568289 
L 162.446596 218.461183 
L 162.68867 218.394242 
L 163.140542 218.287136 
L 163.382617 218.220195 
L 163.850627 218.113089 
L 164.092702 218.046148 
L 164.560712 217.939042 
L 164.802787 217.872101 
L 165.286936 217.764995 
L 165.52901 217.698054 
L 166.045436 217.590948 
L 166.271372 217.537395 
L 166.771659 217.430289 
L 166.997595 217.376736 
L 167.51402 217.26963 
L 167.739957 217.216077 
L 168.288659 217.108971 
L 168.514595 217.055418 
L 169.095573 216.948312 
L 169.321509 216.894759 
L 169.515169 216.867983 
L 169.531307 221.486925 
L 169.628137 220.844289 
L 170.305945 217.524006 
L 171.01603 215.542547 
L 171.984328 214.150171 
L 172.855796 213.561088 
L 173.130147 213.453982 
L 173.420636 213.346877 
L 173.904785 213.239771 
L 174.114583 213.199606 
L 175.099019 213.0925 
L 175.27654 213.079112 
L 177.681146 213.012171 
L 178.262125 194.656898 
L 178.843104 183.290285 
L 179.407944 176.448896 
L 179.988923 172.124495 
L 180.521486 169.66106 
L 181.344539 167.30473 
L 181.828688 165.832024 
L 182.006209 164.439648 
L 182.054624 163.047271 
L 182.167592 200.601275 
L 182.312837 208.031747 
L 182.845401 229.600196 
L 183.361826 242.452903 
L 183.862113 249.936928 
L 184.362401 254.180999 
L 184.733581 255.908081 
L 185.104762 256.778317 
L 185.362975 256.992529 
L 185.540496 257.005917 
L 185.734156 256.898811 
L 186.07306 256.483776 
L 186.621762 255.359164 
L 187.477092 252.935893 
L 193.706473 232.639326 
L 194.545665 230.25622 
L 195.207335 228.435419 
L 199.661504 217.644501 
L 200.129515 216.653771 
L 200.855738 215.1409 
L 201.50127 213.85563 
L 202.049972 212.784571 
L 203.147376 210.749559 
L 203.58311 209.959653 
L 207.553131 203.586852 
L 207.779067 203.265534 
L 208.634397 202.060593 
L 208.908748 201.699111 
L 209.586556 200.78871 
L 209.877045 200.41384 
L 210.441886 199.690875 
L 210.796928 199.262451 
L 211.297215 198.646593 
L 211.684534 198.191393 
L 212.120268 197.68264 
L 212.572141 197.173887 
L 212.975598 196.718686 
L 213.508162 196.142992 
L 213.879342 195.741345 
L 214.573289 195.031769 
L 214.912193 194.683674 
L 215.896629 193.73311 
L 216.203257 193.438568 
L 222.255118 188.551862 
L 222.416501 188.444756 
L 223.27183 187.869062 
L 223.449352 187.761956 
L 224.191713 187.27998 
L 224.369234 187.172874 
L 224.98249 186.798003 
L 225.176149 186.690897 
L 225.757128 186.342803 
L 225.950787 186.235697 
L 226.483351 185.927768 
L 226.693149 185.820662 
L 227.193436 185.539509 
L 227.403234 185.432403 
L 227.855106 185.191415 
L 228.081042 185.084309 
L 228.516776 184.856709 
L 228.742712 184.749603 
L 229.162308 184.535391 
L 229.404382 184.428285 
L 229.80784 184.227462 
L 230.049914 184.120356 
L 230.437233 183.93292 
L 230.695446 183.825814 
L 231.066627 183.651767 
L 231.32484 183.544661 
L 231.679882 183.384003 
L 231.954233 183.276897 
L 232.293137 183.129626 
L 232.567488 183.02252 
L 232.906393 182.87525 
L 233.196882 182.768144 
L 233.519648 182.634261 
L 233.810137 182.527155 
L 234.116765 182.406661 
L 234.423392 182.299555 
L 234.73002 182.179061 
L 235.036647 182.071955 
L 235.327137 181.96485 
L 235.633764 181.857744 
L 235.924254 181.750638 
L 236.263158 181.643532 
L 236.553647 181.536426 
L 236.90869 181.42932 
L 237.183041 181.335602 
L 237.521945 181.228496 
L 237.796296 181.134779 
L 238.167477 181.027673 
L 238.441828 180.933955 
L 238.829147 180.826849 
L 239.08736 180.74652 
L 239.474679 180.639414 
L 239.732891 180.559085 
L 240.12021 180.451979 
L 240.378423 180.371649 
L 240.814157 180.264543 
L 241.07237 180.184214 
L 241.524242 180.077108 
L 241.766317 180.010167 
L 242.202051 179.903061 
L 242.234327 179.889673 
L 242.799167 197.696028 
L 243.331731 208.326288 
L 243.880433 215.261394 
L 244.412997 219.478689 
L 244.864869 221.781466 
L 245.639507 223.990525 
L 246.268901 224.820596 
L 246.817603 225.141913 
L 248.350741 225.034807 
L 248.657369 224.914313 
L 248.947858 224.807207 
L 249.319039 224.63316 
L 249.561113 224.526054 
L 249.964571 224.325231 
L 250.190507 224.218125 
L 250.626241 223.990525 
L 250.852177 223.883419 
L 251.287911 223.655819 
L 251.513847 223.548713 
L 251.949581 223.321113 
L 252.175517 223.214007 
L 252.595113 222.999795 
L 252.821049 222.892689 
L 253.224506 222.691866 
L 253.466581 222.58476 
L 253.870038 222.383936 
L 254.112112 222.276831 
L 254.483293 222.102783 
L 254.741506 221.995678 
L 255.112687 221.82163 
L 255.370899 221.714525 
L 255.725942 221.553866 
L 256.000293 221.44676 
L 256.339197 221.299489 
L 256.613548 221.192383 
L 256.952452 221.045113 
L 257.242942 220.938007 
L 257.565708 220.804124 
L 257.856197 220.697019 
L 258.162824 220.576524 
L 258.291931 220.53636 
L 258.308069 221.486925 
L 258.404899 220.844289 
L 259.082707 217.524006 
L 259.792792 215.542547 
L 260.76109 214.150171 
L 261.632558 213.561088 
L 261.906909 213.453982 
L 262.197398 213.346877 
L 262.681547 213.239771 
L 262.891345 213.199606 
L 263.875781 213.0925 
L 264.053302 213.079112 
L 266.457908 213.012171 
L 267.022749 186.088426 
L 267.571451 169.553954 
L 267.797387 163.542636 
L 267.910355 200.601275 
L 268.039461 204.81857 
L 268.572025 218.595065 
L 269.072312 226.373631 
L 269.556461 230.738196 
L 269.992195 232.893702 
L 270.379514 233.804102 
L 270.637727 234.031702 
L 271.057322 233.924597 
L 271.396227 233.509561 
L 271.977205 232.331396 
L 272.977779 229.546643 
L 276.673449 217.657889 
L 277.206013 216.037912 
L 278.238864 212.985394 
L 279.158747 210.401464 
L 279.78814 208.68777 
L 283.822714 198.941134 
L 284.258448 198.003957 
L 285.000809 196.450922 
L 285.597926 195.24598 
L 286.162767 194.134757 
L 287.114926 192.340733 
L 287.566798 191.510662 
L 292.101659 184.200685 
L 292.327595 183.879367 
L 293.13451 182.754755 
L 293.408861 182.393273 
L 294.054393 181.536426 
L 294.361021 181.148167 
L 294.925861 180.425202 
L 295.280903 179.996779 
L 295.765052 179.407696 
L 296.16851 178.939108 
L 296.604244 178.430355 
L 297.072254 177.908214 
L 297.475712 177.453014 
L 298.05669 176.837155 
L 298.427871 176.435508 
L 299.186371 175.672378 
L 299.525275 175.324284 
L 300.654956 174.253225 
L 300.961583 173.958684 
L 309.079146 167.090518 
L 309.61171 166.006071 
L 309.805369 165.015342 
L 309.902199 163.248094 
L 310.015167 200.601275 
L 310.144273 207.255229 
L 310.676837 229.185161 
L 311.193262 242.091421 
L 311.677411 249.267516 
L 312.097007 252.895728 
L 312.565018 254.970905 
L 312.92006 255.573375 
L 313.162135 255.640317 
L 313.662422 255.091399 
L 314.679134 252.266481 
L 315.518326 249.106857 
L 320.166155 230.296384 
L 321.34425 226.012149 
L 322.054335 223.535325 
L 324.894675 214.484877 
L 325.60476 212.423088 
L 326.347122 210.334523 
L 331.011089 198.887581 
L 331.559791 224.03069 
L 332.092355 239.266503 
L 332.60878 248.464222 
L 333.157482 254.314881 
L 333.690046 257.501282 
L 334.158057 258.973988 
L 334.480822 259.496129 
L 334.932695 259.737117 
L 335.303876 259.630011 
L 336.062375 258.866882 
L 338.176492 255.144952 
L 338.741332 254.033728 
L 339.483694 252.587799 
L 340.016258 251.556904 
L 341.097523 249.548669 
L 341.533257 248.758763 
L 346.035842 241.502339 
L 346.261778 241.181021 
L 347.068693 240.056409 
L 347.181661 220.844289 
L 347.859469 217.524006 
L 348.569554 215.542547 
L 349.537852 214.150171 
L 350.40932 213.561088 
L 350.683671 213.453982 
L 350.97416 213.346877 
L 351.458309 213.239771 
L 351.668107 213.199606 
L 352.652543 213.0925 
L 352.830064 213.079112 
L 355.23467 213.012171 
L 355.734957 163.770236 
L 355.847925 200.601275 
L 355.977032 197.923628 
L 356.574149 187.387085 
L 357.284234 178.939108 
L 357.945904 173.449931 
L 358.63985 169.098754 
L 359.236967 165.109059 
L 359.317659 163.140989 
L 359.430627 200.601275 
L 359.575871 207.348946 
L 360.092297 226.025537 
L 360.576446 236.388032 
L 360.996041 241.596056 
L 361.399499 244.30048 
L 361.754541 245.331374 
L 362.077307 245.465257 
L 362.351658 245.117163 
L 362.932637 243.376692 
L 363.75569 239.494103 
L 364.546466 234.995655 
L 365.982775 226.199584 
L 370.727433 199.289228 
L 373.374114 186.677509 
L 377.392549 170.477742 
L 378.151049 167.585883 
L 378.506092 165.671365 
L 378.635198 163.837177 
L 378.651336 163.140989 
L 378.764304 200.601275 
L 378.909549 207.522994 
L 379.442113 227.123372 
L 379.910123 237.338597 
L 380.394272 243.282974 
L 380.813868 245.853516 
L 381.185049 246.723751 
L 381.394847 246.763916 
L 381.540091 246.65681 
L 381.975825 245.719633 
L 382.282453 244.661962 
L 383.073229 240.913256 
L 383.831729 236.588856 
L 385.413282 226.828831 
L 390.367739 198.700146 
L 392.869174 186.811391 
L 396.952163 170.34386 
L 397.694525 167.505554 
L 398.033429 165.644589 
L 398.162535 163.730071 
L 398.178674 162.940165 
L 398.291642 200.601275 
L 398.808067 222.517819 
L 399.308354 235.209867 
L 399.808641 242.332409 
L 400.228237 245.411704 
L 400.567141 246.549704 
L 400.776939 246.80408 
L 401.05129 246.696974 
L 401.228811 246.415821 
L 401.487024 245.773186 
L 401.793652 244.715515 
L 402.164832 243.122315 
L 403.310651 236.85662 
L 405.102002 225.811325 
L 406.425342 217.764995 
L 409.265682 201.913322 
L 412.574033 186.008097 
L 416.366532 170.745507 
L 417.173447 167.692989 
L 417.560766 165.617812 
L 417.689872 163.596189 
L 417.706011 162.659012 
L 417.818979 200.601275 
L 418.335404 222.517819 
L 418.85183 235.49102 
L 419.287564 241.810268 
L 419.707159 245.143939 
L 419.787851 245.545586 
L 420.336553 299.419851 
L 420.869117 331.484678 
L 421.369404 349.813174 
L 421.853553 360.349717 
L 422.289287 365.745176 
L 422.676606 368.275553 
L 423.01551 369.226118 
L 423.305999 369.333224 
L 423.58035 368.971741 
L 423.822425 368.355882 
L 424.112914 367.338376 
L 424.451818 365.852282 
L 425.403978 360.55054 
L 426.51752 353.441386 
L 429.551519 334.041831 
L 432.876008 315.378629 
L 435.845455 301.133545 
L 435.845455 301.133545 
" style="fill:none;stroke:#ff0000;stroke-linecap:square;stroke-width:1.5;"/>
   </g>
   <g id="patch_3">
    <path d="M 63 384.48 
L 63 51.84 
" style="fill:none;stroke:#000000;stroke-linecap:square;stroke-linejoin:miter;stroke-width:0.8;"/>
   </g>
   <g id="patch_4">
    <path d="M 453.6 384.48 
L 453.6 51.84 
" style="fill:none;stroke:#000000;stroke-linecap:square;stroke-linejoin:miter;stroke-width:0.8;"/>
   </g>
   <g id="patch_5">
    <path d="M 63 384.48 
L 453.6 384.48 
" style="fill:none;stroke:#000000;stroke-linecap:square;stroke-linejoin:miter;stroke-width:0.8;"/>
   </g>
   <g id="patch_6">
    <path d="M 63 51.84 
L 453.6 51.84 
" style="fill:none;stroke:#000000;stroke-linecap:square;stroke-linejoin:miter;stroke-width:0.8;"/>
   </g>
   <g id="legend_1">
    <g id="patch_7">
     <path d="M 70 89.19625 
L 133.139062 89.19625 
Q 135.139062 89.19625 135.139062 87.19625 
L 135.139062 58.84 
Q 135.139062 56.84 133.139062 56.84 
L 70 56.84 
Q 68 56.84 68 58.84 
L 68 87.19625 
Q 68 89.19625 70 89.19625 
z
" style="fill:#ffffff;opacity:0.8;stroke:#cccccc;stroke-linejoin:miter;"/>
    </g>
    <g id="line2d_13">
     <path d="M 72 64.938437 
L 92 64.938437 
" style="fill:none;stroke:#1f77b4;stroke-linecap:square;stroke-width:1.5;"/>
    </g>
    <g id="line2d_14"/>
    <g id="text_13">
     <!-- target -->
     <defs>
      <path d="M 41.109375 46.296875 
Q 39.59375 47.171875 37.8125 47.578125 
Q 36.03125 48 33.890625 48 
Q 26.265625 48 22.1875 43.046875 
Q 18.109375 38.09375 18.109375 28.8125 
L 18.109375 0 
L 9.078125 0 
L 9.078125 54.6875 
L 18.109375 54.6875 
L 18.109375 46.1875 
Q 20.953125 51.171875 25.484375 53.578125 
Q 30.03125 56 36.53125 56 
Q 37.453125 56 38.578125 55.875 
Q 39.703125 55.765625 41.0625 55.515625 
z
" id="DejaVuSans-114"/>
     </defs>
     <g transform="translate(100 68.438437)scale(0.1 -0.1)">
      <use xlink:href="#DejaVuSans-116"/>
      <use x="39.208984" xlink:href="#DejaVuSans-97"/>
      <use x="100.488281" xlink:href="#DejaVuSans-114"/>
      <use x="141.585938" xlink:href="#DejaVuSans-103"/>
      <use x="205.0625" xlink:href="#DejaVuSans-101"/>
      <use x="266.585938" xlink:href="#DejaVuSans-116"/>
     </g>
    </g>
    <g id="line2d_15">
     <path d="M 72 79.616562 
L 92 79.616562 
" style="fill:none;stroke:#ff0000;stroke-linecap:square;stroke-width:1.5;"/>
    </g>
    <g id="line2d_16"/>
    <g id="text_14">
     <!-- model -->
     <defs>
      <path d="M 45.40625 46.390625 
L 45.40625 75.984375 
L 54.390625 75.984375 
L 54.390625 0 
L 45.40625 0 
L 45.40625 8.203125 
Q 42.578125 3.328125 38.25 0.953125 
Q 33.9375 -1.421875 27.875 -1.421875 
Q 17.96875 -1.421875 11.734375 6.484375 
Q 5.515625 14.40625 5.515625 27.296875 
Q 5.515625 40.1875 11.734375 48.09375 
Q 17.96875 56 27.875 56 
Q 33.9375 56 38.25 53.625 
Q 42.578125 51.265625 45.40625 46.390625 
z
M 14.796875 27.296875 
Q 14.796875 17.390625 18.875 11.75 
Q 22.953125 6.109375 30.078125 6.109375 
Q 37.203125 6.109375 41.296875 11.75 
Q 45.40625 17.390625 45.40625 27.296875 
Q 45.40625 37.203125 41.296875 42.84375 
Q 37.203125 48.484375 30.078125 48.484375 
Q 22.953125 48.484375 18.875 42.84375 
Q 14.796875 37.203125 14.796875 27.296875 
z
" id="DejaVuSans-100"/>
     </defs>
     <g transform="translate(100 83.116562)scale(0.1 -0.1)">
      <use xlink:href="#DejaVuSans-109"/>
      <use x="97.412109" xlink:href="#DejaVuSans-111"/>
      <use x="158.59375" xlink:href="#DejaVuSans-100"/>
      <use x="222.070312" xlink:href="#DejaVuSans-101"/>
      <use x="283.59375" xlink:href="#DejaVuSans-108"/>
     </g>
    </g>
   </g>
  </g>
 </g>
 <defs>
  <clipPath id="p307b41271f">
   <rect height="332.64" width="390.6" x="63" y="51.84"/>
  </clipPath>
 </defs>
</svg>
