<?xml version="1.0" encoding="utf-8" standalone="no"?>
<!DOCTYPE svg PUBLIC "-//W3C//DTD SVG 1.1//EN"
  "http://www.w3.org/Graphics/SVG/1.1/DTD/svg11.dtd">
<!-- Created with matplotlib (https://matplotlib.org/) -->
<svg height="432pt" version="1.1" viewBox="0 0 504 432" width="504pt" xmlns="http://www.w3.org/2000/svg" xmlns:xlink="http://www.w3.org/1999/xlink">
 <defs>
  <style type="text/css">
*{stroke-linecap:butt;stroke-linejoin:round;}
  </style>
 </defs>
 <g id="figure_1">
  <g id="patch_1">
   <path d="M 0 432 
L 504 432 
L 504 0 
L 0 0 
z
" style="fill:#ffffff;"/>
  </g>
  <g id="axes_1">
   <g id="patch_2">
    <path d="M 63 384.48 
L 453.6 384.48 
L 453.6 51.84 
L 63 51.84 
z
" style="fill:#ffffff;"/>
   </g>
   <g id="matplotlib.axis_1">
    <g id="xtick_1">
     <g id="line2d_1">
      <defs>
       <path d="M 0 0 
L 0 3.5 
" id="m4ffabe1ced" style="stroke:#000000;stroke-width:0.8;"/>
      </defs>
      <g>
       <use style="stroke:#000000;stroke-width:0.8;" x="80.754545" xlink:href="#m4ffabe1ced" y="384.48"/>
      </g>
     </g>
     <g id="text_1">
      <!-- 0 -->
      <defs>
       <path d="M 31.78125 66.40625 
Q 24.171875 66.40625 20.328125 58.90625 
Q 16.5 51.421875 16.5 36.375 
Q 16.5 21.390625 20.328125 13.890625 
Q 24.171875 6.390625 31.78125 6.390625 
Q 39.453125 6.390625 43.28125 13.890625 
Q 47.125 21.390625 47.125 36.375 
Q 47.125 51.421875 43.28125 58.90625 
Q 39.453125 66.40625 31.78125 66.40625 
z
M 31.78125 74.21875 
Q 44.046875 74.21875 50.515625 64.515625 
Q 56.984375 54.828125 56.984375 36.375 
Q 56.984375 17.96875 50.515625 8.265625 
Q 44.046875 -1.421875 31.78125 -1.421875 
Q 19.53125 -1.421875 13.0625 8.265625 
Q 6.59375 17.96875 6.59375 36.375 
Q 6.59375 54.828125 13.0625 64.515625 
Q 19.53125 74.21875 31.78125 74.21875 
z
" id="DejaVuSans-48"/>
      </defs>
      <g transform="translate(77.573295 399.078438)scale(0.1 -0.1)">
       <use xlink:href="#DejaVuSans-48"/>
      </g>
     </g>
    </g>
    <g id="xtick_2">
     <g id="line2d_2">
      <g>
       <use style="stroke:#000000;stroke-width:0.8;" x="151.772727" xlink:href="#m4ffabe1ced" y="384.48"/>
      </g>
     </g>
     <g id="text_2">
      <!-- 200 -->
      <defs>
       <path d="M 19.1875 8.296875 
L 53.609375 8.296875 
L 53.609375 0 
L 7.328125 0 
L 7.328125 8.296875 
Q 12.9375 14.109375 22.625 23.890625 
Q 32.328125 33.6875 34.8125 36.53125 
Q 39.546875 41.84375 41.421875 45.53125 
Q 43.3125 49.21875 43.3125 52.78125 
Q 43.3125 58.59375 39.234375 62.25 
Q 35.15625 65.921875 28.609375 65.921875 
Q 23.96875 65.921875 18.8125 64.3125 
Q 13.671875 62.703125 7.8125 59.421875 
L 7.8125 69.390625 
Q 13.765625 71.78125 18.9375 73 
Q 24.125 74.21875 28.421875 74.21875 
Q 39.75 74.21875 46.484375 68.546875 
Q 53.21875 62.890625 53.21875 53.421875 
Q 53.21875 48.921875 51.53125 44.890625 
Q 49.859375 40.875 45.40625 35.40625 
Q 44.1875 33.984375 37.640625 27.21875 
Q 31.109375 20.453125 19.1875 8.296875 
z
" id="DejaVuSans-50"/>
      </defs>
      <g transform="translate(142.228977 399.078438)scale(0.1 -0.1)">
       <use xlink:href="#DejaVuSans-50"/>
       <use x="63.623047" xlink:href="#DejaVuSans-48"/>
       <use x="127.246094" xlink:href="#DejaVuSans-48"/>
      </g>
     </g>
    </g>
    <g id="xtick_3">
     <g id="line2d_3">
      <g>
       <use style="stroke:#000000;stroke-width:0.8;" x="222.790909" xlink:href="#m4ffabe1ced" y="384.48"/>
      </g>
     </g>
     <g id="text_3">
      <!-- 400 -->
      <defs>
       <path d="M 37.796875 64.3125 
L 12.890625 25.390625 
L 37.796875 25.390625 
z
M 35.203125 72.90625 
L 47.609375 72.90625 
L 47.609375 25.390625 
L 58.015625 25.390625 
L 58.015625 17.1875 
L 47.609375 17.1875 
L 47.609375 0 
L 37.796875 0 
L 37.796875 17.1875 
L 4.890625 17.1875 
L 4.890625 26.703125 
z
" id="DejaVuSans-52"/>
      </defs>
      <g transform="translate(213.247159 399.078438)scale(0.1 -0.1)">
       <use xlink:href="#DejaVuSans-52"/>
       <use x="63.623047" xlink:href="#DejaVuSans-48"/>
       <use x="127.246094" xlink:href="#DejaVuSans-48"/>
      </g>
     </g>
    </g>
    <g id="xtick_4">
     <g id="line2d_4">
      <g>
       <use style="stroke:#000000;stroke-width:0.8;" x="293.809091" xlink:href="#m4ffabe1ced" y="384.48"/>
      </g>
     </g>
     <g id="text_4">
      <!-- 600 -->
      <defs>
       <path d="M 33.015625 40.375 
Q 26.375 40.375 22.484375 35.828125 
Q 18.609375 31.296875 18.609375 23.390625 
Q 18.609375 15.53125 22.484375 10.953125 
Q 26.375 6.390625 33.015625 6.390625 
Q 39.65625 6.390625 43.53125 10.953125 
Q 47.40625 15.53125 47.40625 23.390625 
Q 47.40625 31.296875 43.53125 35.828125 
Q 39.65625 40.375 33.015625 40.375 
z
M 52.59375 71.296875 
L 52.59375 62.3125 
Q 48.875 64.0625 45.09375 64.984375 
Q 41.3125 65.921875 37.59375 65.921875 
Q 27.828125 65.921875 22.671875 59.328125 
Q 17.53125 52.734375 16.796875 39.40625 
Q 19.671875 43.65625 24.015625 45.921875 
Q 28.375 48.1875 33.59375 48.1875 
Q 44.578125 48.1875 50.953125 41.515625 
Q 57.328125 34.859375 57.328125 23.390625 
Q 57.328125 12.15625 50.6875 5.359375 
Q 44.046875 -1.421875 33.015625 -1.421875 
Q 20.359375 -1.421875 13.671875 8.265625 
Q 6.984375 17.96875 6.984375 36.375 
Q 6.984375 53.65625 15.1875 63.9375 
Q 23.390625 74.21875 37.203125 74.21875 
Q 40.921875 74.21875 44.703125 73.484375 
Q 48.484375 72.75 52.59375 71.296875 
z
" id="DejaVuSans-54"/>
      </defs>
      <g transform="translate(284.265341 399.078438)scale(0.1 -0.1)">
       <use xlink:href="#DejaVuSans-54"/>
       <use x="63.623047" xlink:href="#DejaVuSans-48"/>
       <use x="127.246094" xlink:href="#DejaVuSans-48"/>
      </g>
     </g>
    </g>
    <g id="xtick_5">
     <g id="line2d_5">
      <g>
       <use style="stroke:#000000;stroke-width:0.8;" x="364.827273" xlink:href="#m4ffabe1ced" y="384.48"/>
      </g>
     </g>
     <g id="text_5">
      <!-- 800 -->
      <defs>
       <path d="M 31.78125 34.625 
Q 24.75 34.625 20.71875 30.859375 
Q 16.703125 27.09375 16.703125 20.515625 
Q 16.703125 13.921875 20.71875 10.15625 
Q 24.75 6.390625 31.78125 6.390625 
Q 38.8125 6.390625 42.859375 10.171875 
Q 46.921875 13.96875 46.921875 20.515625 
Q 46.921875 27.09375 42.890625 30.859375 
Q 38.875 34.625 31.78125 34.625 
z
M 21.921875 38.8125 
Q 15.578125 40.375 12.03125 44.71875 
Q 8.5 49.078125 8.5 55.328125 
Q 8.5 64.0625 14.71875 69.140625 
Q 20.953125 74.21875 31.78125 74.21875 
Q 42.671875 74.21875 48.875 69.140625 
Q 55.078125 64.0625 55.078125 55.328125 
Q 55.078125 49.078125 51.53125 44.71875 
Q 48 40.375 41.703125 38.8125 
Q 48.828125 37.15625 52.796875 32.3125 
Q 56.78125 27.484375 56.78125 20.515625 
Q 56.78125 9.90625 50.3125 4.234375 
Q 43.84375 -1.421875 31.78125 -1.421875 
Q 19.734375 -1.421875 13.25 4.234375 
Q 6.78125 9.90625 6.78125 20.515625 
Q 6.78125 27.484375 10.78125 32.3125 
Q 14.796875 37.15625 21.921875 38.8125 
z
M 18.3125 54.390625 
Q 18.3125 48.734375 21.84375 45.5625 
Q 25.390625 42.390625 31.78125 42.390625 
Q 38.140625 42.390625 41.71875 45.5625 
Q 45.3125 48.734375 45.3125 54.390625 
Q 45.3125 60.0625 41.71875 63.234375 
Q 38.140625 66.40625 31.78125 66.40625 
Q 25.390625 66.40625 21.84375 63.234375 
Q 18.3125 60.0625 18.3125 54.390625 
z
" id="DejaVuSans-56"/>
      </defs>
      <g transform="translate(355.283523 399.078438)scale(0.1 -0.1)">
       <use xlink:href="#DejaVuSans-56"/>
       <use x="63.623047" xlink:href="#DejaVuSans-48"/>
       <use x="127.246094" xlink:href="#DejaVuSans-48"/>
      </g>
     </g>
    </g>
    <g id="text_6">
     <!-- time [ms] -->
     <defs>
      <path d="M 18.3125 70.21875 
L 18.3125 54.6875 
L 36.8125 54.6875 
L 36.8125 47.703125 
L 18.3125 47.703125 
L 18.3125 18.015625 
Q 18.3125 11.328125 20.140625 9.421875 
Q 21.96875 7.515625 27.59375 7.515625 
L 36.8125 7.515625 
L 36.8125 0 
L 27.59375 0 
Q 17.1875 0 13.234375 3.875 
Q 9.28125 7.765625 9.28125 18.015625 
L 9.28125 47.703125 
L 2.6875 47.703125 
L 2.6875 54.6875 
L 9.28125 54.6875 
L 9.28125 70.21875 
z
" id="DejaVuSans-116"/>
      <path d="M 9.421875 54.6875 
L 18.40625 54.6875 
L 18.40625 0 
L 9.421875 0 
z
M 9.421875 75.984375 
L 18.40625 75.984375 
L 18.40625 64.59375 
L 9.421875 64.59375 
z
" id="DejaVuSans-105"/>
      <path d="M 52 44.1875 
Q 55.375 50.25 60.0625 53.125 
Q 64.75 56 71.09375 56 
Q 79.640625 56 84.28125 50.015625 
Q 88.921875 44.046875 88.921875 33.015625 
L 88.921875 0 
L 79.890625 0 
L 79.890625 32.71875 
Q 79.890625 40.578125 77.09375 44.375 
Q 74.3125 48.1875 68.609375 48.1875 
Q 61.625 48.1875 57.5625 43.546875 
Q 53.515625 38.921875 53.515625 30.90625 
L 53.515625 0 
L 44.484375 0 
L 44.484375 32.71875 
Q 44.484375 40.625 41.703125 44.40625 
Q 38.921875 48.1875 33.109375 48.1875 
Q 26.21875 48.1875 22.15625 43.53125 
Q 18.109375 38.875 18.109375 30.90625 
L 18.109375 0 
L 9.078125 0 
L 9.078125 54.6875 
L 18.109375 54.6875 
L 18.109375 46.1875 
Q 21.1875 51.21875 25.484375 53.609375 
Q 29.78125 56 35.6875 56 
Q 41.65625 56 45.828125 52.96875 
Q 50 49.953125 52 44.1875 
z
" id="DejaVuSans-109"/>
      <path d="M 56.203125 29.59375 
L 56.203125 25.203125 
L 14.890625 25.203125 
Q 15.484375 15.921875 20.484375 11.0625 
Q 25.484375 6.203125 34.421875 6.203125 
Q 39.59375 6.203125 44.453125 7.46875 
Q 49.3125 8.734375 54.109375 11.28125 
L 54.109375 2.78125 
Q 49.265625 0.734375 44.1875 -0.34375 
Q 39.109375 -1.421875 33.890625 -1.421875 
Q 20.796875 -1.421875 13.15625 6.1875 
Q 5.515625 13.8125 5.515625 26.8125 
Q 5.515625 40.234375 12.765625 48.109375 
Q 20.015625 56 32.328125 56 
Q 43.359375 56 49.78125 48.890625 
Q 56.203125 41.796875 56.203125 29.59375 
z
M 47.21875 32.234375 
Q 47.125 39.59375 43.09375 43.984375 
Q 39.0625 48.390625 32.421875 48.390625 
Q 24.90625 48.390625 20.390625 44.140625 
Q 15.875 39.890625 15.1875 32.171875 
z
" id="DejaVuSans-101"/>
      <path id="DejaVuSans-32"/>
      <path d="M 8.59375 75.984375 
L 29.296875 75.984375 
L 29.296875 69 
L 17.578125 69 
L 17.578125 -6.203125 
L 29.296875 -6.203125 
L 29.296875 -13.1875 
L 8.59375 -13.1875 
z
" id="DejaVuSans-91"/>
      <path d="M 44.28125 53.078125 
L 44.28125 44.578125 
Q 40.484375 46.53125 36.375 47.5 
Q 32.28125 48.484375 27.875 48.484375 
Q 21.1875 48.484375 17.84375 46.4375 
Q 14.5 44.390625 14.5 40.28125 
Q 14.5 37.15625 16.890625 35.375 
Q 19.28125 33.59375 26.515625 31.984375 
L 29.59375 31.296875 
Q 39.15625 29.25 43.1875 25.515625 
Q 47.21875 21.78125 47.21875 15.09375 
Q 47.21875 7.46875 41.1875 3.015625 
Q 35.15625 -1.421875 24.609375 -1.421875 
Q 20.21875 -1.421875 15.453125 -0.5625 
Q 10.6875 0.296875 5.421875 2 
L 5.421875 11.28125 
Q 10.40625 8.6875 15.234375 7.390625 
Q 20.0625 6.109375 24.8125 6.109375 
Q 31.15625 6.109375 34.5625 8.28125 
Q 37.984375 10.453125 37.984375 14.40625 
Q 37.984375 18.0625 35.515625 20.015625 
Q 33.0625 21.96875 24.703125 23.78125 
L 21.578125 24.515625 
Q 13.234375 26.265625 9.515625 29.90625 
Q 5.8125 33.546875 5.8125 39.890625 
Q 5.8125 47.609375 11.28125 51.796875 
Q 16.75 56 26.8125 56 
Q 31.78125 56 36.171875 55.265625 
Q 40.578125 54.546875 44.28125 53.078125 
z
" id="DejaVuSans-115"/>
      <path d="M 30.421875 75.984375 
L 30.421875 -13.1875 
L 9.71875 -13.1875 
L 9.71875 -6.203125 
L 21.390625 -6.203125 
L 21.390625 69 
L 9.71875 69 
L 9.71875 75.984375 
z
" id="DejaVuSans-93"/>
     </defs>
     <g transform="translate(234.038281 412.756563)scale(0.1 -0.1)">
      <use xlink:href="#DejaVuSans-116"/>
      <use x="39.208984" xlink:href="#DejaVuSans-105"/>
      <use x="66.992188" xlink:href="#DejaVuSans-109"/>
      <use x="164.404297" xlink:href="#DejaVuSans-101"/>
      <use x="225.927734" xlink:href="#DejaVuSans-32"/>
      <use x="257.714844" xlink:href="#DejaVuSans-91"/>
      <use x="296.728516" xlink:href="#DejaVuSans-109"/>
      <use x="394.140625" xlink:href="#DejaVuSans-115"/>
      <use x="446.240234" xlink:href="#DejaVuSans-93"/>
     </g>
    </g>
   </g>
   <g id="matplotlib.axis_2">
    <g id="ytick_1">
     <g id="line2d_6">
      <defs>
       <path d="M 0 0 
L -3.5 0 
" id="mf8c95a61c5" style="stroke:#000000;stroke-width:0.8;"/>
      </defs>
      <g>
       <use style="stroke:#000000;stroke-width:0.8;" x="63" xlink:href="#mf8c95a61c5" y="382.295315"/>
      </g>
     </g>
     <g id="text_7">
      <!-- −80 -->
      <defs>
       <path d="M 10.59375 35.5 
L 73.1875 35.5 
L 73.1875 27.203125 
L 10.59375 27.203125 
z
" id="DejaVuSans-8722"/>
      </defs>
      <g transform="translate(34.895313 386.094533)scale(0.1 -0.1)">
       <use xlink:href="#DejaVuSans-8722"/>
       <use x="83.789062" xlink:href="#DejaVuSans-56"/>
       <use x="147.412109" xlink:href="#DejaVuSans-48"/>
      </g>
     </g>
    </g>
    <g id="ytick_2">
     <g id="line2d_7">
      <g>
       <use style="stroke:#000000;stroke-width:0.8;" x="63" xlink:href="#mf8c95a61c5" y="329.597056"/>
      </g>
     </g>
     <g id="text_8">
      <!-- −60 -->
      <g transform="translate(34.895313 333.396274)scale(0.1 -0.1)">
       <use xlink:href="#DejaVuSans-8722"/>
       <use x="83.789062" xlink:href="#DejaVuSans-54"/>
       <use x="147.412109" xlink:href="#DejaVuSans-48"/>
      </g>
     </g>
    </g>
    <g id="ytick_3">
     <g id="line2d_8">
      <g>
       <use style="stroke:#000000;stroke-width:0.8;" x="63" xlink:href="#mf8c95a61c5" y="276.898797"/>
      </g>
     </g>
     <g id="text_9">
      <!-- −40 -->
      <g transform="translate(34.895313 280.698016)scale(0.1 -0.1)">
       <use xlink:href="#DejaVuSans-8722"/>
       <use x="83.789062" xlink:href="#DejaVuSans-52"/>
       <use x="147.412109" xlink:href="#DejaVuSans-48"/>
      </g>
     </g>
    </g>
    <g id="ytick_4">
     <g id="line2d_9">
      <g>
       <use style="stroke:#000000;stroke-width:0.8;" x="63" xlink:href="#mf8c95a61c5" y="224.200538"/>
      </g>
     </g>
     <g id="text_10">
      <!-- −20 -->
      <g transform="translate(34.895313 227.999757)scale(0.1 -0.1)">
       <use xlink:href="#DejaVuSans-8722"/>
       <use x="83.789062" xlink:href="#DejaVuSans-50"/>
       <use x="147.412109" xlink:href="#DejaVuSans-48"/>
      </g>
     </g>
    </g>
    <g id="ytick_5">
     <g id="line2d_10">
      <g>
       <use style="stroke:#000000;stroke-width:0.8;" x="63" xlink:href="#mf8c95a61c5" y="171.502279"/>
      </g>
     </g>
     <g id="text_11">
      <!-- 0 -->
      <g transform="translate(49.6375 175.301498)scale(0.1 -0.1)">
       <use xlink:href="#DejaVuSans-48"/>
      </g>
     </g>
    </g>
    <g id="ytick_6">
     <g id="line2d_11">
      <g>
       <use style="stroke:#000000;stroke-width:0.8;" x="63" xlink:href="#mf8c95a61c5" y="118.80402"/>
      </g>
     </g>
     <g id="text_12">
      <!-- 20 -->
      <g transform="translate(43.275 122.603239)scale(0.1 -0.1)">
       <use xlink:href="#DejaVuSans-50"/>
       <use x="63.623047" xlink:href="#DejaVuSans-48"/>
      </g>
     </g>
    </g>
    <g id="ytick_7">
     <g id="line2d_12">
      <g>
       <use style="stroke:#000000;stroke-width:0.8;" x="63" xlink:href="#mf8c95a61c5" y="66.105761"/>
      </g>
     </g>
     <g id="text_13">
      <!-- 40 -->
      <g transform="translate(43.275 69.90498)scale(0.1 -0.1)">
       <use xlink:href="#DejaVuSans-52"/>
       <use x="63.623047" xlink:href="#DejaVuSans-48"/>
      </g>
     </g>
    </g>
    <g id="text_14">
     <!-- voltage [mV] -->
     <defs>
      <path d="M 2.984375 54.6875 
L 12.5 54.6875 
L 29.59375 8.796875 
L 46.6875 54.6875 
L 56.203125 54.6875 
L 35.6875 0 
L 23.484375 0 
z
" id="DejaVuSans-118"/>
      <path d="M 30.609375 48.390625 
Q 23.390625 48.390625 19.1875 42.75 
Q 14.984375 37.109375 14.984375 27.296875 
Q 14.984375 17.484375 19.15625 11.84375 
Q 23.34375 6.203125 30.609375 6.203125 
Q 37.796875 6.203125 41.984375 11.859375 
Q 46.1875 17.53125 46.1875 27.296875 
Q 46.1875 37.015625 41.984375 42.703125 
Q 37.796875 48.390625 30.609375 48.390625 
z
M 30.609375 56 
Q 42.328125 56 49.015625 48.375 
Q 55.71875 40.765625 55.71875 27.296875 
Q 55.71875 13.875 49.015625 6.21875 
Q 42.328125 -1.421875 30.609375 -1.421875 
Q 18.84375 -1.421875 12.171875 6.21875 
Q 5.515625 13.875 5.515625 27.296875 
Q 5.515625 40.765625 12.171875 48.375 
Q 18.84375 56 30.609375 56 
z
" id="DejaVuSans-111"/>
      <path d="M 9.421875 75.984375 
L 18.40625 75.984375 
L 18.40625 0 
L 9.421875 0 
z
" id="DejaVuSans-108"/>
      <path d="M 34.28125 27.484375 
Q 23.390625 27.484375 19.1875 25 
Q 14.984375 22.515625 14.984375 16.5 
Q 14.984375 11.71875 18.140625 8.90625 
Q 21.296875 6.109375 26.703125 6.109375 
Q 34.1875 6.109375 38.703125 11.40625 
Q 43.21875 16.703125 43.21875 25.484375 
L 43.21875 27.484375 
z
M 52.203125 31.203125 
L 52.203125 0 
L 43.21875 0 
L 43.21875 8.296875 
Q 40.140625 3.328125 35.546875 0.953125 
Q 30.953125 -1.421875 24.3125 -1.421875 
Q 15.921875 -1.421875 10.953125 3.296875 
Q 6 8.015625 6 15.921875 
Q 6 25.140625 12.171875 29.828125 
Q 18.359375 34.515625 30.609375 34.515625 
L 43.21875 34.515625 
L 43.21875 35.40625 
Q 43.21875 41.609375 39.140625 45 
Q 35.0625 48.390625 27.6875 48.390625 
Q 23 48.390625 18.546875 47.265625 
Q 14.109375 46.140625 10.015625 43.890625 
L 10.015625 52.203125 
Q 14.9375 54.109375 19.578125 55.046875 
Q 24.21875 56 28.609375 56 
Q 40.484375 56 46.34375 49.84375 
Q 52.203125 43.703125 52.203125 31.203125 
z
" id="DejaVuSans-97"/>
      <path d="M 45.40625 27.984375 
Q 45.40625 37.75 41.375 43.109375 
Q 37.359375 48.484375 30.078125 48.484375 
Q 22.859375 48.484375 18.828125 43.109375 
Q 14.796875 37.75 14.796875 27.984375 
Q 14.796875 18.265625 18.828125 12.890625 
Q 22.859375 7.515625 30.078125 7.515625 
Q 37.359375 7.515625 41.375 12.890625 
Q 45.40625 18.265625 45.40625 27.984375 
z
M 54.390625 6.78125 
Q 54.390625 -7.171875 48.1875 -13.984375 
Q 42 -20.796875 29.203125 -20.796875 
Q 24.46875 -20.796875 20.265625 -20.09375 
Q 16.0625 -19.390625 12.109375 -17.921875 
L 12.109375 -9.1875 
Q 16.0625 -11.328125 19.921875 -12.34375 
Q 23.78125 -13.375 27.78125 -13.375 
Q 36.625 -13.375 41.015625 -8.765625 
Q 45.40625 -4.15625 45.40625 5.171875 
L 45.40625 9.625 
Q 42.625 4.78125 38.28125 2.390625 
Q 33.9375 0 27.875 0 
Q 17.828125 0 11.671875 7.65625 
Q 5.515625 15.328125 5.515625 27.984375 
Q 5.515625 40.671875 11.671875 48.328125 
Q 17.828125 56 27.875 56 
Q 33.9375 56 38.28125 53.609375 
Q 42.625 51.21875 45.40625 46.390625 
L 45.40625 54.6875 
L 54.390625 54.6875 
z
" id="DejaVuSans-103"/>
      <path d="M 28.609375 0 
L 0.78125 72.90625 
L 11.078125 72.90625 
L 34.1875 11.53125 
L 57.328125 72.90625 
L 67.578125 72.90625 
L 39.796875 0 
z
" id="DejaVuSans-86"/>
     </defs>
     <g transform="translate(28.815625 250.624062)rotate(-90)scale(0.1 -0.1)">
      <use xlink:href="#DejaVuSans-118"/>
      <use x="59.179688" xlink:href="#DejaVuSans-111"/>
      <use x="120.361328" xlink:href="#DejaVuSans-108"/>
      <use x="148.144531" xlink:href="#DejaVuSans-116"/>
      <use x="187.353516" xlink:href="#DejaVuSans-97"/>
      <use x="248.632812" xlink:href="#DejaVuSans-103"/>
      <use x="312.109375" xlink:href="#DejaVuSans-101"/>
      <use x="373.632812" xlink:href="#DejaVuSans-32"/>
      <use x="405.419922" xlink:href="#DejaVuSans-91"/>
      <use x="444.433594" xlink:href="#DejaVuSans-109"/>
      <use x="541.845703" xlink:href="#DejaVuSans-86"/>
      <use x="610.253906" xlink:href="#DejaVuSans-93"/>
     </g>
    </g>
   </g>
   <g id="line2d_13">
    <path clip-path="url(#p07908c76ae)" d="M 80.754545 342.77162 
L 81.952977 342.634868 
L 83.763941 342.691783 
L 87.749836 342.69916 
L 151.772727 342.702322 
L 152.314241 298.009456 
L 152.420768 249.188998 
L 152.562805 66.96 
L 152.678209 92.273609 
L 153.565936 369.36 
L 153.610323 369.259083 
L 153.8145 367.874963 
L 154.293873 363.103136 
L 154.959668 353.947077 
L 157.42755 314.90768 
L 157.613973 303.73802 
L 157.738255 281.688805 
L 157.835905 218.894087 
L 157.969064 91.413837 
L 158.031205 104.616331 
L 158.883423 368.933935 
L 158.945564 368.749754 
L 159.203005 366.76303 
L 159.717886 361.068456 
L 160.534595 349.095939 
L 161.8218 330.896595 
L 162.514227 320.490533 
L 162.771668 312.941244 
L 162.940336 300.904171 
L 163.064618 272.831282 
L 163.162268 188.110478 
L 163.268795 92.337637 
L 163.322059 101.887089 
L 163.863573 297.730155 
L 164.147645 368.756605 
L 164.183155 368.902052 
L 164.245295 368.71998 
L 164.493859 366.809141 
L 165.008741 361.134329 
L 165.834327 349.038234 
L 167.112655 330.971426 
L 167.813959 320.454962 
L 168.0714 312.895924 
L 168.240068 300.819327 
L 168.36435 272.584127 
L 168.462 187.362031 
L 168.568527 92.41484 
L 168.621791 102.110002 
L 169.172182 301.697017 
L 169.4385 368.670443 
L 169.482886 368.899944 
L 169.545027 368.713919 
L 169.802468 366.719027 
L 170.31735 361.006535 
L 171.151814 348.74813 
L 172.430141 330.727697 
L 173.113691 320.436517 
L 173.371132 312.859298 
L 173.5398 300.723153 
L 173.664082 272.24475 
L 173.761732 186.206332 
L 173.868259 92.431703 
L 173.921523 102.346881 
L 174.480791 305.783766 
L 174.729355 368.560567 
L 174.782618 368.899944 
L 174.844759 368.709703 
L 175.1022 366.711649 
L 175.617082 360.995732 
L 176.451545 348.735219 
L 177.729873 330.716894 
L 178.413423 320.419654 
L 178.670864 312.8232 
L 178.839532 300.625661 
L 178.963814 271.896415 
L 179.061464 185.0168 
L 179.167991 92.449094 
L 179.221255 102.586394 
L 179.7894 309.974069 
L 180.029086 368.572952 
L 180.08235 368.900208 
L 180.144491 368.705224 
L 180.401932 366.704271 
L 180.916814 360.985193 
L 181.751277 348.722835 
L 183.029605 330.706354 
L 183.713155 320.402527 
L 183.970595 312.786838 
L 184.139264 300.527115 
L 184.263545 271.539911 
L 184.361195 183.806348 
L 184.467723 92.473072 
L 184.520986 102.829597 
L 185.098009 314.256593 
L 185.328818 368.585072 
L 185.382082 368.900208 
L 185.444223 368.701008 
L 185.701664 366.69663 
L 186.216545 360.974653 
L 187.051009 348.710187 
L 188.329336 330.695814 
L 189.012886 320.385664 
L 189.270327 312.750213 
L 189.438995 300.426988 
L 189.563277 271.178137 
L 189.660927 182.591073 
L 189.767455 92.502846 
L 189.820718 103.075171 
L 190.406618 318.611577 
L 190.619673 368.450692 
L 190.681814 368.899944 
L 190.743955 368.696529 
L 191.010273 366.60757 
L 191.525155 360.848704 
L 192.368495 348.423509 
L 193.637945 330.569339 
L 194.312618 320.368273 
L 194.570059 312.713588 
L 194.738727 300.326335 
L 194.863009 270.812938 
L 194.969536 167.960561 
L 195.058309 92.489408 
L 195.12045 103.32338 
L 195.715227 323.012935 
L 195.919405 368.466238 
L 195.981545 368.899944 
L 196.043686 368.69205 
L 196.310005 366.599929 
L 196.833764 360.722228 
L 197.703736 347.86359 
L 198.955432 330.32719 
L 199.61235 320.351146 
L 199.869791 312.676435 
L 200.038459 300.224627 
L 200.162741 270.440362 
L 200.269268 166.692351 
L 200.358041 92.459897 
L 200.420182 103.575804 
L 201.023836 327.423516 
L 201.219136 368.480993 
L 201.281277 368.899417 
L 201.343418 368.68757 
L 201.609736 366.592287 
L 202.133495 360.711162 
L 202.994591 347.987431 
L 204.255164 330.316387 
L 204.912082 320.333492 
L 205.169523 312.638756 
L 205.338191 300.121339 
L 205.462473 270.060144 
L 205.569 165.41563 
L 205.657773 92.4375 
L 205.719914 103.830073 
L 206.332445 331.7951 
L 206.518868 368.495749 
L 206.581009 368.899154 
L 206.634273 368.729729 
L 206.873959 366.907687 
L 207.388841 361.27477 
L 208.187795 349.618969 
L 209.510509 330.88342 
L 210.202936 320.501073 
L 210.460377 312.99526 
L 210.629045 301.088352 
L 210.753327 273.540864 
L 210.850977 190.680941 
L 210.957505 92.422218 
L 211.019645 104.085396 
L 211.641055 336.073408 
L 211.827477 368.641986 
L 211.880741 368.898627 
L 211.934005 368.725513 
L 212.182568 366.820207 
L 212.69745 361.150138 
L 213.514159 349.194484 
L 214.810241 330.872617 
L 215.502668 320.483946 
L 215.760109 312.959161 
L 215.928777 300.99165 
L 216.053059 273.20017 
L 216.150709 189.497338 
L 216.257236 92.415894 
L 216.319377 104.340192 
L 216.949664 340.194676 
L 217.127209 368.652526 
L 217.171595 368.899154 
L 217.233736 368.721297 
L 217.4823 366.81283 
L 217.997182 361.139599 
L 218.822768 349.044558 
L 220.101095 330.977223 
L 220.8024 320.466819 
L 221.059841 312.923327 
L 221.228509 300.895213 
L 221.352791 272.858158 
L 221.450441 188.314315 
L 221.556968 92.416421 
L 221.610232 101.924241 
L 222.151745 297.785752 
L 222.426941 368.662539 
L 222.471327 368.899417 
L 222.533468 368.717081 
L 222.782032 366.805452 
L 223.296914 361.129059 
L 224.1225 349.031647 
L 225.418582 330.735865 
L 226.111009 320.263931 
L 226.36845 312.488829 
L 226.537118 299.70634 
L 226.652523 272.513511 
L 226.750173 187.126575 
L 226.8567 92.422481 
L 226.909964 102.1627 
L 227.460355 301.772639 
L 227.726673 368.672288 
L 227.771059 368.899944 
L 227.8332 368.712865 
L 228.090641 366.717182 
L 228.605523 361.003901 
L 229.439986 348.744968 
L 230.718314 330.725062 
L 231.401864 320.432565 
L 231.659305 312.850867 
L 231.827973 300.701019 
L 231.952255 272.166493 
L 232.049905 185.938625 
L 232.156432 92.435392 
L 232.209695 102.400897 
L 232.768964 305.86255 
L 233.017527 368.563466 
L 233.070791 368.899944 
L 233.132932 368.70865 
L 233.390373 366.709805 
L 233.905255 360.993361 
L 234.739718 348.732321 
L 236.018045 330.714522 
L 236.701595 320.415702 
L 236.959036 312.815032 
L 237.127705 300.603528 
L 237.251986 271.816313 
L 237.349636 184.743876 
L 237.456164 92.453837 
L 237.509427 102.641464 
L 238.077573 310.055224 
L 238.317259 368.575586 
L 238.370523 368.900208 
L 238.432664 368.704434 
L 238.690105 366.702427 
L 239.204986 360.982821 
L 240.03945 348.719936 
L 241.317777 330.703983 
L 242.001327 320.398838 
L 242.258768 312.77867 
L 242.427436 300.504455 
L 242.551718 271.457965 
L 242.649368 183.530604 
L 242.755895 92.479395 
L 242.809159 102.885194 
L 243.386182 314.339592 
L 243.616991 368.587707 
L 243.670255 368.900208 
L 243.732395 368.699954 
L 243.989836 366.695049 
L 244.504718 360.972282 
L 245.348059 348.570273 
L 246.617509 330.69318 
L 247.301059 320.381711 
L 247.5585 312.742045 
L 247.727168 300.404065 
L 247.85145 271.095665 
L 247.9491 182.314144 
L 248.055627 92.510751 
L 248.108891 103.131294 
L 248.694791 318.696421 
L 248.907845 368.45438 
L 248.969986 368.899944 
L 249.032127 368.695738 
L 249.298445 366.605989 
L 249.822205 360.73066 
L 250.692177 347.873602 
L 251.943873 330.335622 
L 252.600791 320.364321 
L 252.858232 312.705156 
L 253.0269 300.303148 
L 253.151182 270.728621 
L 253.257709 167.671827 
L 253.346482 92.48203 
L 253.408623 103.380821 
L 254.0034 323.09936 
L 254.207577 368.469663 
L 254.269718 368.899681 
L 254.331859 368.691259 
L 254.598177 366.598348 
L 255.121936 360.719593 
L 255.983032 347.997443 
L 257.22585 330.556164 
L 257.900523 320.347194 
L 258.157964 312.668004 
L 258.326632 300.201176 
L 258.450914 270.3542 
L 258.557441 166.401009 
L 258.646214 92.4541 
L 258.708355 103.634036 
L 259.312009 327.509941 
L 259.507309 368.484418 
L 259.56945 368.899417 
L 259.631591 368.686516 
L 259.897909 366.590443 
L 260.421668 360.70879 
L 261.291641 347.848044 
L 262.525582 330.545361 
L 263.200255 320.32954 
L 263.457695 312.630324 
L 263.626364 300.097624 
L 263.750645 269.972665 
L 263.857173 165.123761 
L 263.945945 92.433284 
L 264.008086 103.888305 
L 264.620618 331.880208 
L 264.807041 368.499174 
L 264.869182 368.89889 
L 264.922445 368.728938 
L 265.171009 366.826004 
L 265.685891 361.15857 
L 266.511477 349.067218 
L 267.807559 330.76564 
L 268.499986 320.312149 
L 268.757427 312.592645 
L 268.926095 299.994072 
L 269.050377 269.591129 
L 269.156905 163.856025 
L 269.245677 92.42011 
L 269.298941 101.503972 
L 269.8227 290.196939 
L 270.133405 368.811411 
L 270.168914 368.898627 
L 270.222177 368.724722 
L 270.470741 366.818626 
L 270.985623 361.147767 
L 271.802332 349.191586 
L 273.098414 330.870246 
L 273.790841 320.479993 
L 274.048282 312.950993 
L 274.21695 300.969781 
L 274.341232 273.122176 
L 274.438882 189.226574 
L 274.545409 92.41563 
L 274.598673 101.740851 
L 275.131309 293.978303 
L 275.424259 368.749227 
L 275.459768 368.899154 
L 275.521909 368.720507 
L 275.770473 366.811249 
L 276.285355 361.137227 
L 277.110941 349.041659 
L 278.389268 330.974852 
L 279.090573 320.462867 
L 279.348014 312.914895 
L 279.516682 300.873079 
L 279.640964 272.779637 
L 279.738614 188.043446 
L 279.845141 92.416948 
L 279.898405 101.978784 
L 280.439918 297.861901 
L 280.715114 368.664646 
L 280.7595 368.899681 
L 280.821641 368.716291 
L 281.079082 366.722979 
L 281.593964 361.012069 
L 282.428427 348.754717 
L 283.706755 330.73323 
L 284.390305 320.44574 
L 284.647745 312.878797 
L 284.816414 300.776114 
L 284.940695 272.434464 
L 285.038345 186.855601 
L 285.144873 92.424853 
L 285.198136 102.21698 
L 285.748527 301.849841 
L 286.014845 368.674396 
L 286.059232 368.899944 
L 286.121373 368.711811 
L 286.378814 366.715601 
L 286.893695 361.001529 
L 287.728159 348.74207 
L 289.006486 330.722691 
L 289.690036 320.428876 
L 289.947477 312.842698 
L 290.116145 300.678886 
L 290.240427 272.086919 
L 290.338077 185.666754 
L 290.444605 92.439081 
L 290.497868 102.455439 
L 291.057136 305.942125 
L 291.3057 368.566364 
L 291.358964 368.900208 
L 291.421105 368.707596 
L 291.678545 366.708224 
L 292.193427 360.99099 
L 293.027891 348.729422 
L 294.315095 330.596478 
L 294.989768 320.411749 
L 295.247209 312.8066 
L 295.415877 300.581131 
L 295.540159 271.735158 
L 295.637809 184.46808 
L 295.744336 92.459107 
L 295.7976 102.696797 
L 296.365745 310.136906 
L 296.605432 368.578485 
L 296.658695 368.900208 
L 296.720836 368.70338 
L 296.978277 366.700846 
L 297.493159 360.98045 
L 298.327623 348.717038 
L 299.60595 330.701611 
L 300.2895 320.394886 
L 300.546941 312.770238 
L 300.715609 300.481531 
L 300.839891 271.375756 
L 300.937541 183.254465 
L 301.044068 92.485983 
L 301.097332 102.94079 
L 301.674355 314.422592 
L 301.905164 368.590342 
L 301.958427 368.900208 
L 302.020568 368.699164 
L 302.286886 366.611786 
L 302.810645 360.738828 
L 303.671741 348.020104 
L 304.914559 330.575399 
L 305.589232 320.377759 
L 305.846673 312.733613 
L 306.015341 300.381404 
L 306.139623 271.012928 
L 306.24615 168.647219 
L 306.334923 92.508116 
L 306.397064 103.187682 
L 306.982964 318.781265 
L 307.196018 368.457806 
L 307.258159 368.899944 
L 307.3203 368.694684 
L 307.586618 366.604145 
L 308.110377 360.728025 
L 308.971473 348.007456 
L 310.214291 330.564596 
L 310.888964 320.360632 
L 311.146405 312.696724 
L 311.315073 300.280224 
L 311.439355 270.64404 
L 311.545882 167.384121 
L 311.634655 92.47518 
L 311.696795 103.437998 
L 312.291573 323.185259 
L 312.49575 368.473088 
L 312.557891 368.899681 
L 312.620032 368.690205 
L 312.88635 366.596503 
L 313.410109 360.717222 
L 314.280082 347.857793 
L 315.531777 330.322184 
L 316.188695 320.342978 
L 316.446136 312.659308 
L 316.614805 300.177726 
L 316.739086 270.268302 
L 316.845614 166.110773 
L 316.934386 92.44883 
L 316.996527 103.69174 
L 317.600182 327.596103 
L 317.795482 368.487844 
L 317.857623 368.899417 
L 317.910886 368.7321 
L 318.150573 366.911639 
L 318.665455 361.280566 
L 319.464409 349.625819 
L 320.787123 330.889481 
L 321.488427 320.325588 
L 321.745868 312.621629 
L 321.914536 300.07391 
L 322.038818 269.885449 
L 322.145345 164.833288 
L 322.234118 92.429596 
L 322.296259 103.946537 
L 322.908791 331.965052 
L 323.095214 368.502599 
L 323.157355 368.89889 
L 323.210618 368.727884 
L 323.459182 366.824423 
L 323.974064 361.155935 
L 324.790773 349.201335 
L 326.095732 330.763005 
L 326.779282 320.493168 
L 327.036723 312.978923 
L 327.205391 301.044349 
L 327.329673 273.385667 
L 327.427323 190.141311 
L 327.53385 92.418265 
L 327.595991 104.201596 
L 328.2174 336.2373 
L 328.403823 368.646729 
L 328.457086 368.898363 
L 328.51035 368.723669 
L 328.758914 366.816782 
L 329.273795 361.145395 
L 329.318182 360.568086 
L 329.335936 361.472915 
L 329.531236 365.485361 
L 329.620009 365.674284 
L 329.664395 365.616579 
L 329.815309 365.006333 
L 330.214786 362.173538 
L 332.176664 347.333445 
L 332.869091 344.093293 
L 333.428359 342.428555 
L 333.889977 341.681293 
L 334.262823 341.45311 
L 334.609036 341.489999 
L 335.061777 341.78063 
L 336.553159 342.876753 
L 337.156814 342.973982 
L 338.097805 342.863315 
L 339.580309 342.667805 
L 342.092577 342.704167 
L 435.845455 342.702322 
L 435.845455 342.702322 
" style="fill:none;stroke:#1f77b4;stroke-linecap:square;stroke-width:1.5;"/>
   </g>
   <g id="line2d_14">
    <path clip-path="url(#p07908c76ae)" d="M 80.754545 342.77162 
L 81.180655 337.937047 
L 81.677782 334.54999 
L 82.050627 333.264434 
L 82.272559 333.082316 
L 82.423473 333.239809 
L 82.636527 333.85331 
L 82.982741 335.656511 
L 83.781695 339.878162 
L 84.127909 340.592175 
L 84.394227 340.714129 
L 84.669423 340.583954 
L 85.148795 340.052405 
L 86.205191 338.876708 
L 86.737827 338.626363 
L 87.305973 338.611095 
L 88.477773 338.885308 
L 89.543045 338.994604 
L 97.656873 338.926813 
L 151.772727 338.92743 
L 152.323118 293.168577 
L 152.420768 243.905351 
L 152.562805 72.205413 
L 152.669332 95.589118 
L 153.548182 368.118174 
L 153.592568 367.992996 
L 153.796745 366.330837 
L 154.311627 360.315714 
L 155.270373 345.801114 
L 156.326768 331.359967 
L 157.178986 319.519096 
L 157.436427 312.32502 
L 157.605095 300.947065 
L 157.729377 275.105289 
L 157.827027 199.058956 
L 157.942432 95.039013 
L 158.004573 106.887502 
L 158.625982 334.914447 
L 158.812405 367.440005 
L 158.856791 367.662513 
L 158.918932 367.414338 
L 159.194127 364.854412 
L 159.77115 357.400525 
L 161.990468 326.450106 
L 162.50535 318.679067 
L 162.753914 311.318953 
L 162.922582 298.703559 
L 163.037986 271.761748 
L 163.144514 176.302471 
L 163.242164 96.055523 
L 163.295427 104.857289 
L 163.801432 284.067872 
L 164.138768 367.606067 
L 164.156523 367.62568 
L 164.192032 367.521441 
L 164.378455 365.991472 
L 164.902214 359.727713 
L 166.109523 341.487533 
L 167.157041 328.036675 
L 167.77845 319.155924 
L 168.035891 311.994414 
L 168.204559 300.594591 
L 168.328841 274.646425 
L 168.426491 198.838798 
L 168.541895 96.128428 
L 168.604036 107.994496 
L 169.234323 340.078454 
L 169.411868 367.438297 
L 169.447377 367.622569 
L 169.509518 367.411007 
L 169.766959 365.05966 
L 170.335105 357.80944 
L 172.740845 324.425669 
L 173.158077 317.410008 
L 173.388886 309.378458 
L 173.5398 295.747634 
L 173.655205 261.530932 
L 173.779486 124.010705 
L 173.841627 96.158418 
L 173.903768 108.560254 
L 174.747109 367.623316 
L 174.827005 367.28083 
L 175.146586 364.160763 
L 175.759118 355.941988 
L 177.596714 329.92024 
L 178.360159 319.426344 
L 178.626477 312.207667 
L 178.795145 301.160569 
L 178.919427 276.572177 
L 179.017077 205.575903 
L 179.141359 96.213034 
L 179.194623 106.441985 
L 179.771645 314.723024 
L 180.002455 367.375215 
L 180.046841 367.623603 
L 180.108982 367.387791 
L 180.3753 364.92486 
L 180.952323 357.496475 
L 183.198273 326.214623 
L 183.704277 318.504425 
L 183.952841 310.971128 
L 184.121509 297.754901 
L 184.236914 268.628275 
L 184.343441 166.023702 
L 184.432214 96.179108 
L 184.494355 106.983137 
L 185.089132 323.373315 
L 185.293309 367.269671 
L 185.346573 367.623342 
L 185.408714 367.376114 
L 185.683909 364.809159 
L 186.260932 357.339573 
L 188.453618 326.74502 
L 188.995132 318.650334 
L 189.243695 311.29168 
L 189.412364 298.67155 
L 189.527768 271.712547 
L 189.634295 176.263215 
L 189.731945 96.140956 
L 189.785209 104.951682 
L 190.291214 284.187205 
L 190.62855 367.603862 
L 190.646305 367.622485 
L 190.681814 367.51708 
L 190.868236 365.985394 
L 191.391995 359.719263 
L 192.608182 341.351488 
L 193.664577 327.813751 
L 194.277109 318.972512 
L 194.53455 311.602037 
L 194.703218 299.53623 
L 194.8275 270.934066 
L 194.934027 173.598523 
L 195.031677 96.136833 
L 195.084941 105.469892 
L 195.617577 294.897636 
L 195.910527 367.522564 
L 195.937159 367.622535 
L 195.9993 367.408851 
L 196.256741 365.056052 
L 196.824886 357.804524 
L 199.22175 324.539723 
L 199.647859 317.402511 
L 199.878668 309.361331 
L 200.029582 295.699837 
L 200.144986 261.357264 
L 200.269268 123.678159 
L 200.331409 96.166263 
L 200.39355 108.657396 
L 201.236891 367.623377 
L 201.316786 367.278574 
L 201.636368 364.157167 
L 202.2489 355.93721 
L 204.086495 329.916412 
L 204.849941 319.420312 
L 205.116259 312.194848 
L 205.284927 301.12702 
L 205.409209 276.459666 
L 205.506859 205.180986 
L 205.631141 96.225087 
L 205.684405 106.53329 
L 206.261427 314.858959 
L 206.483359 367.243466 
L 206.536623 367.623603 
L 206.598764 367.385822 
L 206.865082 364.921516 
L 207.442105 357.491929 
L 209.688055 326.210719 
L 210.194059 318.497914 
L 210.442623 310.956697 
L 210.602414 298.863221 
L 210.726695 268.484703 
L 210.833223 165.567528 
L 210.921995 96.170091 
L 210.984136 107.076093 
L 211.578914 323.511963 
L 211.783091 367.274867 
L 211.836355 367.623231 
L 211.898495 367.374107 
L 212.173691 364.805778 
L 212.750714 357.335 
L 214.9434 326.74116 
L 215.484914 318.643922 
L 215.733477 311.277644 
L 215.902145 298.632031 
L 216.01755 271.581533 
L 216.124077 175.810279 
L 216.221727 96.137725 
L 216.274991 105.039002 
L 216.780995 284.30056 
L 217.118332 367.604777 
L 217.136086 367.622288 
L 217.171595 367.515577 
L 217.358018 365.982328 
L 217.881777 359.714957 
L 219.097964 341.347018 
L 220.154359 327.809943 
L 220.766891 318.966267 
L 221.024332 311.588394 
L 221.193 299.498629 
L 221.317282 270.799045 
L 221.423809 173.141984 
L 221.521459 96.139601 
L 221.574723 105.55954 
L 222.116236 298.530889 
L 222.391432 367.444854 
L 222.426941 367.622719 
L 222.489082 367.406904 
L 222.746523 365.052686 
L 223.314668 357.799935 
L 225.711532 324.535525 
L 226.137641 317.395133 
L 226.36845 309.34425 
L 226.519364 295.651893 
L 226.634768 261.182598 
L 226.75905 123.345119 
L 226.821191 96.174631 
L 226.883332 108.755 
L 227.726673 367.623444 
L 227.797691 367.337698 
L 228.090641 364.550858 
L 228.685418 356.728997 
L 230.700559 328.412852 
L 231.3486 319.243144 
L 231.606041 312.182012 
L 231.774709 301.093353 
L 231.898991 276.346298 
L 231.996641 204.782156 
L 232.112045 96.224677 
L 232.174186 106.625511 
L 232.751209 314.99608 
L 232.973141 367.249 
L 233.026405 367.623597 
L 233.088545 367.38384 
L 233.354864 364.918152 
L 233.931886 357.487357 
L 236.177836 326.206794 
L 236.683841 318.49137 
L 236.932405 310.94216 
L 237.092195 298.824046 
L 237.216477 268.339793 
L 237.323005 165.109576 
L 237.411777 96.162229 
L 237.473918 107.169855 
L 238.068695 323.651493 
L 238.272873 367.280038 
L 238.326136 367.623092 
L 238.388277 367.372068 
L 238.663473 364.802357 
L 239.240495 357.330373 
L 241.424305 326.847141 
L 241.965818 318.818581 
L 242.214382 311.654571 
L 242.38305 299.680241 
L 242.507332 271.448506 
L 242.613859 175.352571 
L 242.711509 96.135481 
L 242.764773 105.12749 
L 243.279655 287.676971 
L 243.599236 367.570842 
L 243.625868 367.622064 
L 243.670255 367.467845 
L 243.892186 365.533032 
L 244.442577 358.715176 
L 247.425341 314.819859 
L 247.620641 305.430925 
L 247.762677 285.445886 
L 247.869205 228.698787 
L 248.011241 96.143385 
L 248.082259 111.085164 
L 248.916723 367.622888 
L 248.961109 367.50492 
L 249.156409 365.873183 
L 249.689045 359.438755 
L 252.671809 316.28497 
L 252.884864 307.770865 
L 253.035777 290.989515 
L 253.142305 249.754181 
L 253.310973 96.183742 
L 253.4175 124.154824 
L 254.172068 367.363171 
L 254.216455 367.6235 
L 254.278595 367.393399 
L 254.544914 364.934431 
L 255.121936 357.509489 
L 257.376764 326.114248 
L 257.882768 318.336317 
L 258.122455 311.012112 
L 258.291123 297.873441 
L 258.406527 269.035043 
L 258.513055 167.330345 
L 258.601827 96.211427 
L 258.663968 106.718429 
L 259.249868 319.041005 
L 259.462923 367.254499 
L 259.516186 367.623566 
L 259.578327 367.381836 
L 259.844645 364.914763 
L 260.421668 357.482751 
L 262.667618 326.202844 
L 263.173623 318.484789 
L 263.422186 310.927513 
L 263.581977 298.784542 
L 263.706259 268.193601 
L 263.812786 164.649694 
L 263.901559 96.155385 
L 263.9637 107.264441 
L 264.567355 327.722828 
L 264.762655 367.285214 
L 264.815918 367.622944 
L 264.878059 367.370015 
L 265.153255 364.798915 
L 265.730277 357.325719 
L 267.914086 326.843225 
L 268.4556 318.81217 
L 268.704164 311.640838 
L 268.872832 299.642728 
L 268.997114 271.314818 
L 269.103641 174.894643 
L 269.201291 96.134243 
L 269.254555 105.216497 
L 269.778314 291.132387 
L 270.080141 367.515723 
L 270.11565 367.621817 
L 270.168914 367.414343 
L 270.417477 365.159801 
L 270.985623 357.946306 
L 273.959509 313.324567 
L 274.137055 303.161787 
L 274.270214 280.348655 
L 274.367864 218.991846 
L 274.501023 96.148047 
L 274.563164 108.381517 
L 275.406505 367.623043 
L 275.4864 367.284908 
L 275.805982 364.167315 
L 276.418514 355.950696 
L 278.256109 329.927228 
L 279.028432 319.266614 
L 279.285873 312.231137 
L 279.454541 301.2219 
L 279.578823 276.776978 
L 279.676473 206.296226 
L 279.800755 96.193431 
L 279.854018 106.274281 
L 280.422164 310.625002 
L 280.66185 367.367487 
L 280.706236 367.623547 
L 280.768377 367.391405 
L 281.034695 364.931024 
L 281.611718 357.504856 
L 283.866545 326.110258 
L 284.37255 318.329603 
L 284.612236 310.997593 
L 284.780905 297.831484 
L 284.896309 268.891143 
L 285.002836 166.866613 
L 285.091609 96.19902 
L 285.15375 106.812055 
L 285.73965 319.181122 
L 285.952705 367.259939 
L 286.005968 367.623506 
L 286.068109 367.379814 
L 286.343305 364.815408 
L 286.920327 357.348028 
L 289.113014 326.752161 
L 289.654527 318.662188 
L 289.903091 311.317617 
L 290.071759 298.744535 
L 290.196041 268.045444 
L 290.302568 164.187318 
L 290.391341 96.149393 
L 290.444605 104.790993 
L 290.932855 277.664881 
L 291.296823 367.620444 
L 291.332332 367.558736 
L 291.341209 367.519828 
L 291.527632 365.99105 
L 292.051391 359.72721 
L 293.2587 341.48714 
L 294.306218 328.037178 
L 294.927627 319.159267 
L 295.185068 312.004241 
L 295.353736 300.623956 
L 295.478018 274.751611 
L 295.575668 199.211264 
L 295.691073 96.134214 
L 295.753214 107.914742 
L 296.3835 339.973214 
L 296.561045 367.435144 
L 296.605432 367.621551 
L 296.658695 367.412396 
L 296.916136 365.062206 
L 297.484282 357.812916 
L 299.890023 324.428995 
L 300.307255 317.41601 
L 300.538064 309.392571 
L 300.688977 295.787476 
L 300.804382 261.6763 
L 300.928664 124.293275 
L 300.990805 96.153632 
L 301.052945 108.47961 
L 301.896286 367.623192 
L 301.976182 367.282657 
L 302.295764 364.163699 
L 302.908295 355.945889 
L 304.745891 329.923374 
L 305.518214 319.260446 
L 305.775655 312.218236 
L 305.944323 301.188211 
L 306.068605 276.664601 
L 306.166255 205.900734 
L 306.290536 96.203904 
L 306.3438 106.366578 
L 306.911945 310.761119 
L 307.151632 367.371763 
L 307.196018 367.623582 
L 307.258159 367.389413 
L 307.524477 364.927624 
L 308.1015 357.500233 
L 310.34745 326.217853 
L 310.853455 318.509805 
L 311.102018 310.983045 
L 311.270686 297.789404 
L 311.386091 268.746746 
L 311.492618 166.402213 
L 311.581391 96.187581 
L 311.643532 106.906253 
L 312.229432 319.32208 
L 312.442486 367.265327 
L 312.49575 367.623421 
L 312.557891 367.377774 
L 312.833086 364.81196 
L 313.410109 357.343363 
L 315.602795 326.748221 
L 316.144309 318.655648 
L 316.392873 311.303311 
L 316.561541 298.704287 
L 316.685823 267.896331 
L 316.79235 163.723874 
L 316.881123 96.144239 
L 316.934386 104.87959 
L 317.431514 280.904891 
L 317.777727 367.603089 
L 317.795482 367.622637 
L 317.830991 367.518318 
L 318.017414 365.987931 
L 318.541173 359.722826 
L 319.748482 341.48258 
L 320.796 328.033311 
L 321.417409 319.15304 
L 321.67485 311.99096 
L 321.843518 300.588599 
L 321.9678 274.630391 
L 322.06545 198.791655 
L 322.180855 96.13521 
L 322.242995 108.011812 
L 322.873282 340.100964 
L 323.050827 367.438656 
L 323.086336 367.622373 
L 323.148477 367.410442 
L 323.405918 365.058809 
L 323.974064 357.808283 
L 326.370927 324.543164 
L 326.797036 317.408559 
L 327.027845 309.375329 
L 327.178759 295.739114 
L 327.294164 261.500312 
L 327.418445 123.95252 
L 327.480586 96.160131 
L 327.542727 108.577694 
L 328.386068 367.623314 
L 328.465964 367.280413 
L 328.785545 364.160102 
L 329.318182 357.131578 
L 329.353691 358.74052 
L 329.540114 361.633039 
L 329.575623 361.660833 
L 329.620009 361.585012 
L 329.770923 360.773473 
L 330.223664 356.673697 
L 331.377709 346.436868 
L 332.087891 342.066455 
L 332.691545 339.595518 
L 333.188673 338.38505 
L 333.579273 337.935357 
L 333.916609 337.857951 
L 334.289455 338.016979 
L 335.177182 338.747968 
L 335.816345 339.086437 
L 336.437755 339.158647 
L 337.485273 339.005234 
L 338.852373 338.881723 
L 351.609014 338.927456 
L 435.845455 338.92743 
L 435.845455 338.92743 
" style="fill:none;stroke:#ff0000;stroke-linecap:square;stroke-width:1.5;"/>
   </g>
   <g id="patch_3">
    <path d="M 63 384.48 
L 63 51.84 
" style="fill:none;stroke:#000000;stroke-linecap:square;stroke-linejoin:miter;stroke-width:0.8;"/>
   </g>
   <g id="patch_4">
    <path d="M 453.6 384.48 
L 453.6 51.84 
" style="fill:none;stroke:#000000;stroke-linecap:square;stroke-linejoin:miter;stroke-width:0.8;"/>
   </g>
   <g id="patch_5">
    <path d="M 63 384.48 
L 453.6 384.48 
" style="fill:none;stroke:#000000;stroke-linecap:square;stroke-linejoin:miter;stroke-width:0.8;"/>
   </g>
   <g id="patch_6">
    <path d="M 63 51.84 
L 453.6 51.84 
" style="fill:none;stroke:#000000;stroke-linecap:square;stroke-linejoin:miter;stroke-width:0.8;"/>
   </g>
   <g id="legend_1">
    <g id="patch_7">
     <path d="M 383.460938 89.19625 
L 446.6 89.19625 
Q 448.6 89.19625 448.6 87.19625 
L 448.6 58.84 
Q 448.6 56.84 446.6 56.84 
L 383.460938 56.84 
Q 381.460938 56.84 381.460938 58.84 
L 381.460938 87.19625 
Q 381.460938 89.19625 383.460938 89.19625 
z
" style="fill:#ffffff;opacity:0.8;stroke:#cccccc;stroke-linejoin:miter;"/>
    </g>
    <g id="line2d_15">
     <path d="M 385.460938 64.938437 
L 405.460938 64.938437 
" style="fill:none;stroke:#1f77b4;stroke-linecap:square;stroke-width:1.5;"/>
    </g>
    <g id="line2d_16"/>
    <g id="text_15">
     <!-- target -->
     <defs>
      <path d="M 41.109375 46.296875 
Q 39.59375 47.171875 37.8125 47.578125 
Q 36.03125 48 33.890625 48 
Q 26.265625 48 22.1875 43.046875 
Q 18.109375 38.09375 18.109375 28.8125 
L 18.109375 0 
L 9.078125 0 
L 9.078125 54.6875 
L 18.109375 54.6875 
L 18.109375 46.1875 
Q 20.953125 51.171875 25.484375 53.578125 
Q 30.03125 56 36.53125 56 
Q 37.453125 56 38.578125 55.875 
Q 39.703125 55.765625 41.0625 55.515625 
z
" id="DejaVuSans-114"/>
     </defs>
     <g transform="translate(413.460938 68.438437)scale(0.1 -0.1)">
      <use xlink:href="#DejaVuSans-116"/>
      <use x="39.208984" xlink:href="#DejaVuSans-97"/>
      <use x="100.488281" xlink:href="#DejaVuSans-114"/>
      <use x="141.585938" xlink:href="#DejaVuSans-103"/>
      <use x="205.0625" xlink:href="#DejaVuSans-101"/>
      <use x="266.585938" xlink:href="#DejaVuSans-116"/>
     </g>
    </g>
    <g id="line2d_17">
     <path d="M 385.460938 79.616562 
L 405.460938 79.616562 
" style="fill:none;stroke:#ff0000;stroke-linecap:square;stroke-width:1.5;"/>
    </g>
    <g id="line2d_18"/>
    <g id="text_16">
     <!-- model -->
     <defs>
      <path d="M 45.40625 46.390625 
L 45.40625 75.984375 
L 54.390625 75.984375 
L 54.390625 0 
L 45.40625 0 
L 45.40625 8.203125 
Q 42.578125 3.328125 38.25 0.953125 
Q 33.9375 -1.421875 27.875 -1.421875 
Q 17.96875 -1.421875 11.734375 6.484375 
Q 5.515625 14.40625 5.515625 27.296875 
Q 5.515625 40.1875 11.734375 48.09375 
Q 17.96875 56 27.875 56 
Q 33.9375 56 38.25 53.625 
Q 42.578125 51.265625 45.40625 46.390625 
z
M 14.796875 27.296875 
Q 14.796875 17.390625 18.875 11.75 
Q 22.953125 6.109375 30.078125 6.109375 
Q 37.203125 6.109375 41.296875 11.75 
Q 45.40625 17.390625 45.40625 27.296875 
Q 45.40625 37.203125 41.296875 42.84375 
Q 37.203125 48.484375 30.078125 48.484375 
Q 22.953125 48.484375 18.875 42.84375 
Q 14.796875 37.203125 14.796875 27.296875 
z
" id="DejaVuSans-100"/>
     </defs>
     <g transform="translate(413.460938 83.116562)scale(0.1 -0.1)">
      <use xlink:href="#DejaVuSans-109"/>
      <use x="97.412109" xlink:href="#DejaVuSans-111"/>
      <use x="158.59375" xlink:href="#DejaVuSans-100"/>
      <use x="222.070312" xlink:href="#DejaVuSans-101"/>
      <use x="283.59375" xlink:href="#DejaVuSans-108"/>
     </g>
    </g>
   </g>
  </g>
 </g>
 <defs>
  <clipPath id="p07908c76ae">
   <rect height="332.64" width="390.6" x="63" y="51.84"/>
  </clipPath>
 </defs>
</svg>
