<?xml version="1.0" encoding="utf-8" standalone="no"?>
<!DOCTYPE svg PUBLIC "-//W3C//DTD SVG 1.1//EN"
  "http://www.w3.org/Graphics/SVG/1.1/DTD/svg11.dtd">
<!-- Created with matplotlib (https://matplotlib.org/) -->
<svg height="432pt" version="1.1" viewBox="0 0 504 432" width="504pt" xmlns="http://www.w3.org/2000/svg" xmlns:xlink="http://www.w3.org/1999/xlink">
 <defs>
  <style type="text/css">
*{stroke-linecap:butt;stroke-linejoin:round;}
  </style>
 </defs>
 <g id="figure_1">
  <g id="patch_1">
   <path d="M 0 432 
L 504 432 
L 504 0 
L 0 0 
z
" style="fill:#ffffff;"/>
  </g>
  <g id="axes_1">
   <g id="patch_2">
    <path d="M 63 384.48 
L 453.6 384.48 
L 453.6 51.84 
L 63 51.84 
z
" style="fill:#ffffff;"/>
   </g>
   <g id="matplotlib.axis_1">
    <g id="xtick_1">
     <g id="line2d_1">
      <defs>
       <path d="M 0 0 
L 0 3.5 
" id="m937dd4fa27" style="stroke:#000000;stroke-width:0.8;"/>
      </defs>
      <g>
       <use style="stroke:#000000;stroke-width:0.8;" x="80.754545" xlink:href="#m937dd4fa27" y="384.48"/>
      </g>
     </g>
     <g id="text_1">
      <!-- 0 -->
      <defs>
       <path d="M 31.78125 66.40625 
Q 24.171875 66.40625 20.328125 58.90625 
Q 16.5 51.421875 16.5 36.375 
Q 16.5 21.390625 20.328125 13.890625 
Q 24.171875 6.390625 31.78125 6.390625 
Q 39.453125 6.390625 43.28125 13.890625 
Q 47.125 21.390625 47.125 36.375 
Q 47.125 51.421875 43.28125 58.90625 
Q 39.453125 66.40625 31.78125 66.40625 
z
M 31.78125 74.21875 
Q 44.046875 74.21875 50.515625 64.515625 
Q 56.984375 54.828125 56.984375 36.375 
Q 56.984375 17.96875 50.515625 8.265625 
Q 44.046875 -1.421875 31.78125 -1.421875 
Q 19.53125 -1.421875 13.0625 8.265625 
Q 6.59375 17.96875 6.59375 36.375 
Q 6.59375 54.828125 13.0625 64.515625 
Q 19.53125 74.21875 31.78125 74.21875 
z
" id="DejaVuSans-48"/>
      </defs>
      <g transform="translate(77.573295 399.078438)scale(0.1 -0.1)">
       <use xlink:href="#DejaVuSans-48"/>
      </g>
     </g>
    </g>
    <g id="xtick_2">
     <g id="line2d_2">
      <g>
       <use style="stroke:#000000;stroke-width:0.8;" x="151.772727" xlink:href="#m937dd4fa27" y="384.48"/>
      </g>
     </g>
     <g id="text_2">
      <!-- 200 -->
      <defs>
       <path d="M 19.1875 8.296875 
L 53.609375 8.296875 
L 53.609375 0 
L 7.328125 0 
L 7.328125 8.296875 
Q 12.9375 14.109375 22.625 23.890625 
Q 32.328125 33.6875 34.8125 36.53125 
Q 39.546875 41.84375 41.421875 45.53125 
Q 43.3125 49.21875 43.3125 52.78125 
Q 43.3125 58.59375 39.234375 62.25 
Q 35.15625 65.921875 28.609375 65.921875 
Q 23.96875 65.921875 18.8125 64.3125 
Q 13.671875 62.703125 7.8125 59.421875 
L 7.8125 69.390625 
Q 13.765625 71.78125 18.9375 73 
Q 24.125 74.21875 28.421875 74.21875 
Q 39.75 74.21875 46.484375 68.546875 
Q 53.21875 62.890625 53.21875 53.421875 
Q 53.21875 48.921875 51.53125 44.890625 
Q 49.859375 40.875 45.40625 35.40625 
Q 44.1875 33.984375 37.640625 27.21875 
Q 31.109375 20.453125 19.1875 8.296875 
z
" id="DejaVuSans-50"/>
      </defs>
      <g transform="translate(142.228977 399.078438)scale(0.1 -0.1)">
       <use xlink:href="#DejaVuSans-50"/>
       <use x="63.623047" xlink:href="#DejaVuSans-48"/>
       <use x="127.246094" xlink:href="#DejaVuSans-48"/>
      </g>
     </g>
    </g>
    <g id="xtick_3">
     <g id="line2d_3">
      <g>
       <use style="stroke:#000000;stroke-width:0.8;" x="222.790909" xlink:href="#m937dd4fa27" y="384.48"/>
      </g>
     </g>
     <g id="text_3">
      <!-- 400 -->
      <defs>
       <path d="M 37.796875 64.3125 
L 12.890625 25.390625 
L 37.796875 25.390625 
z
M 35.203125 72.90625 
L 47.609375 72.90625 
L 47.609375 25.390625 
L 58.015625 25.390625 
L 58.015625 17.1875 
L 47.609375 17.1875 
L 47.609375 0 
L 37.796875 0 
L 37.796875 17.1875 
L 4.890625 17.1875 
L 4.890625 26.703125 
z
" id="DejaVuSans-52"/>
      </defs>
      <g transform="translate(213.247159 399.078438)scale(0.1 -0.1)">
       <use xlink:href="#DejaVuSans-52"/>
       <use x="63.623047" xlink:href="#DejaVuSans-48"/>
       <use x="127.246094" xlink:href="#DejaVuSans-48"/>
      </g>
     </g>
    </g>
    <g id="xtick_4">
     <g id="line2d_4">
      <g>
       <use style="stroke:#000000;stroke-width:0.8;" x="293.809091" xlink:href="#m937dd4fa27" y="384.48"/>
      </g>
     </g>
     <g id="text_4">
      <!-- 600 -->
      <defs>
       <path d="M 33.015625 40.375 
Q 26.375 40.375 22.484375 35.828125 
Q 18.609375 31.296875 18.609375 23.390625 
Q 18.609375 15.53125 22.484375 10.953125 
Q 26.375 6.390625 33.015625 6.390625 
Q 39.65625 6.390625 43.53125 10.953125 
Q 47.40625 15.53125 47.40625 23.390625 
Q 47.40625 31.296875 43.53125 35.828125 
Q 39.65625 40.375 33.015625 40.375 
z
M 52.59375 71.296875 
L 52.59375 62.3125 
Q 48.875 64.0625 45.09375 64.984375 
Q 41.3125 65.921875 37.59375 65.921875 
Q 27.828125 65.921875 22.671875 59.328125 
Q 17.53125 52.734375 16.796875 39.40625 
Q 19.671875 43.65625 24.015625 45.921875 
Q 28.375 48.1875 33.59375 48.1875 
Q 44.578125 48.1875 50.953125 41.515625 
Q 57.328125 34.859375 57.328125 23.390625 
Q 57.328125 12.15625 50.6875 5.359375 
Q 44.046875 -1.421875 33.015625 -1.421875 
Q 20.359375 -1.421875 13.671875 8.265625 
Q 6.984375 17.96875 6.984375 36.375 
Q 6.984375 53.65625 15.1875 63.9375 
Q 23.390625 74.21875 37.203125 74.21875 
Q 40.921875 74.21875 44.703125 73.484375 
Q 48.484375 72.75 52.59375 71.296875 
z
" id="DejaVuSans-54"/>
      </defs>
      <g transform="translate(284.265341 399.078438)scale(0.1 -0.1)">
       <use xlink:href="#DejaVuSans-54"/>
       <use x="63.623047" xlink:href="#DejaVuSans-48"/>
       <use x="127.246094" xlink:href="#DejaVuSans-48"/>
      </g>
     </g>
    </g>
    <g id="xtick_5">
     <g id="line2d_5">
      <g>
       <use style="stroke:#000000;stroke-width:0.8;" x="364.827273" xlink:href="#m937dd4fa27" y="384.48"/>
      </g>
     </g>
     <g id="text_5">
      <!-- 800 -->
      <defs>
       <path d="M 31.78125 34.625 
Q 24.75 34.625 20.71875 30.859375 
Q 16.703125 27.09375 16.703125 20.515625 
Q 16.703125 13.921875 20.71875 10.15625 
Q 24.75 6.390625 31.78125 6.390625 
Q 38.8125 6.390625 42.859375 10.171875 
Q 46.921875 13.96875 46.921875 20.515625 
Q 46.921875 27.09375 42.890625 30.859375 
Q 38.875 34.625 31.78125 34.625 
z
M 21.921875 38.8125 
Q 15.578125 40.375 12.03125 44.71875 
Q 8.5 49.078125 8.5 55.328125 
Q 8.5 64.0625 14.71875 69.140625 
Q 20.953125 74.21875 31.78125 74.21875 
Q 42.671875 74.21875 48.875 69.140625 
Q 55.078125 64.0625 55.078125 55.328125 
Q 55.078125 49.078125 51.53125 44.71875 
Q 48 40.375 41.703125 38.8125 
Q 48.828125 37.15625 52.796875 32.3125 
Q 56.78125 27.484375 56.78125 20.515625 
Q 56.78125 9.90625 50.3125 4.234375 
Q 43.84375 -1.421875 31.78125 -1.421875 
Q 19.734375 -1.421875 13.25 4.234375 
Q 6.78125 9.90625 6.78125 20.515625 
Q 6.78125 27.484375 10.78125 32.3125 
Q 14.796875 37.15625 21.921875 38.8125 
z
M 18.3125 54.390625 
Q 18.3125 48.734375 21.84375 45.5625 
Q 25.390625 42.390625 31.78125 42.390625 
Q 38.140625 42.390625 41.71875 45.5625 
Q 45.3125 48.734375 45.3125 54.390625 
Q 45.3125 60.0625 41.71875 63.234375 
Q 38.140625 66.40625 31.78125 66.40625 
Q 25.390625 66.40625 21.84375 63.234375 
Q 18.3125 60.0625 18.3125 54.390625 
z
" id="DejaVuSans-56"/>
      </defs>
      <g transform="translate(355.283523 399.078438)scale(0.1 -0.1)">
       <use xlink:href="#DejaVuSans-56"/>
       <use x="63.623047" xlink:href="#DejaVuSans-48"/>
       <use x="127.246094" xlink:href="#DejaVuSans-48"/>
      </g>
     </g>
    </g>
    <g id="text_6">
     <!-- time [ms] -->
     <defs>
      <path d="M 18.3125 70.21875 
L 18.3125 54.6875 
L 36.8125 54.6875 
L 36.8125 47.703125 
L 18.3125 47.703125 
L 18.3125 18.015625 
Q 18.3125 11.328125 20.140625 9.421875 
Q 21.96875 7.515625 27.59375 7.515625 
L 36.8125 7.515625 
L 36.8125 0 
L 27.59375 0 
Q 17.1875 0 13.234375 3.875 
Q 9.28125 7.765625 9.28125 18.015625 
L 9.28125 47.703125 
L 2.6875 47.703125 
L 2.6875 54.6875 
L 9.28125 54.6875 
L 9.28125 70.21875 
z
" id="DejaVuSans-116"/>
      <path d="M 9.421875 54.6875 
L 18.40625 54.6875 
L 18.40625 0 
L 9.421875 0 
z
M 9.421875 75.984375 
L 18.40625 75.984375 
L 18.40625 64.59375 
L 9.421875 64.59375 
z
" id="DejaVuSans-105"/>
      <path d="M 52 44.1875 
Q 55.375 50.25 60.0625 53.125 
Q 64.75 56 71.09375 56 
Q 79.640625 56 84.28125 50.015625 
Q 88.921875 44.046875 88.921875 33.015625 
L 88.921875 0 
L 79.890625 0 
L 79.890625 32.71875 
Q 79.890625 40.578125 77.09375 44.375 
Q 74.3125 48.1875 68.609375 48.1875 
Q 61.625 48.1875 57.5625 43.546875 
Q 53.515625 38.921875 53.515625 30.90625 
L 53.515625 0 
L 44.484375 0 
L 44.484375 32.71875 
Q 44.484375 40.625 41.703125 44.40625 
Q 38.921875 48.1875 33.109375 48.1875 
Q 26.21875 48.1875 22.15625 43.53125 
Q 18.109375 38.875 18.109375 30.90625 
L 18.109375 0 
L 9.078125 0 
L 9.078125 54.6875 
L 18.109375 54.6875 
L 18.109375 46.1875 
Q 21.1875 51.21875 25.484375 53.609375 
Q 29.78125 56 35.6875 56 
Q 41.65625 56 45.828125 52.96875 
Q 50 49.953125 52 44.1875 
z
" id="DejaVuSans-109"/>
      <path d="M 56.203125 29.59375 
L 56.203125 25.203125 
L 14.890625 25.203125 
Q 15.484375 15.921875 20.484375 11.0625 
Q 25.484375 6.203125 34.421875 6.203125 
Q 39.59375 6.203125 44.453125 7.46875 
Q 49.3125 8.734375 54.109375 11.28125 
L 54.109375 2.78125 
Q 49.265625 0.734375 44.1875 -0.34375 
Q 39.109375 -1.421875 33.890625 -1.421875 
Q 20.796875 -1.421875 13.15625 6.1875 
Q 5.515625 13.8125 5.515625 26.8125 
Q 5.515625 40.234375 12.765625 48.109375 
Q 20.015625 56 32.328125 56 
Q 43.359375 56 49.78125 48.890625 
Q 56.203125 41.796875 56.203125 29.59375 
z
M 47.21875 32.234375 
Q 47.125 39.59375 43.09375 43.984375 
Q 39.0625 48.390625 32.421875 48.390625 
Q 24.90625 48.390625 20.390625 44.140625 
Q 15.875 39.890625 15.1875 32.171875 
z
" id="DejaVuSans-101"/>
      <path id="DejaVuSans-32"/>
      <path d="M 8.59375 75.984375 
L 29.296875 75.984375 
L 29.296875 69 
L 17.578125 69 
L 17.578125 -6.203125 
L 29.296875 -6.203125 
L 29.296875 -13.1875 
L 8.59375 -13.1875 
z
" id="DejaVuSans-91"/>
      <path d="M 44.28125 53.078125 
L 44.28125 44.578125 
Q 40.484375 46.53125 36.375 47.5 
Q 32.28125 48.484375 27.875 48.484375 
Q 21.1875 48.484375 17.84375 46.4375 
Q 14.5 44.390625 14.5 40.28125 
Q 14.5 37.15625 16.890625 35.375 
Q 19.28125 33.59375 26.515625 31.984375 
L 29.59375 31.296875 
Q 39.15625 29.25 43.1875 25.515625 
Q 47.21875 21.78125 47.21875 15.09375 
Q 47.21875 7.46875 41.1875 3.015625 
Q 35.15625 -1.421875 24.609375 -1.421875 
Q 20.21875 -1.421875 15.453125 -0.5625 
Q 10.6875 0.296875 5.421875 2 
L 5.421875 11.28125 
Q 10.40625 8.6875 15.234375 7.390625 
Q 20.0625 6.109375 24.8125 6.109375 
Q 31.15625 6.109375 34.5625 8.28125 
Q 37.984375 10.453125 37.984375 14.40625 
Q 37.984375 18.0625 35.515625 20.015625 
Q 33.0625 21.96875 24.703125 23.78125 
L 21.578125 24.515625 
Q 13.234375 26.265625 9.515625 29.90625 
Q 5.8125 33.546875 5.8125 39.890625 
Q 5.8125 47.609375 11.28125 51.796875 
Q 16.75 56 26.8125 56 
Q 31.78125 56 36.171875 55.265625 
Q 40.578125 54.546875 44.28125 53.078125 
z
" id="DejaVuSans-115"/>
      <path d="M 30.421875 75.984375 
L 30.421875 -13.1875 
L 9.71875 -13.1875 
L 9.71875 -6.203125 
L 21.390625 -6.203125 
L 21.390625 69 
L 9.71875 69 
L 9.71875 75.984375 
z
" id="DejaVuSans-93"/>
     </defs>
     <g transform="translate(234.038281 412.756563)scale(0.1 -0.1)">
      <use xlink:href="#DejaVuSans-116"/>
      <use x="39.208984" xlink:href="#DejaVuSans-105"/>
      <use x="66.992188" xlink:href="#DejaVuSans-109"/>
      <use x="164.404297" xlink:href="#DejaVuSans-101"/>
      <use x="225.927734" xlink:href="#DejaVuSans-32"/>
      <use x="257.714844" xlink:href="#DejaVuSans-91"/>
      <use x="296.728516" xlink:href="#DejaVuSans-109"/>
      <use x="394.140625" xlink:href="#DejaVuSans-115"/>
      <use x="446.240234" xlink:href="#DejaVuSans-93"/>
     </g>
    </g>
   </g>
   <g id="matplotlib.axis_2">
    <g id="ytick_1">
     <g id="line2d_6">
      <defs>
       <path d="M 0 0 
L -3.5 0 
" id="mbc2e28ae3b" style="stroke:#000000;stroke-width:0.8;"/>
      </defs>
      <g>
       <use style="stroke:#000000;stroke-width:0.8;" x="63" xlink:href="#mbc2e28ae3b" y="346.43662"/>
      </g>
     </g>
     <g id="text_7">
      <!-- −60 -->
      <defs>
       <path d="M 10.59375 35.5 
L 73.1875 35.5 
L 73.1875 27.203125 
L 10.59375 27.203125 
z
" id="DejaVuSans-8722"/>
      </defs>
      <g transform="translate(34.895313 350.235839)scale(0.1 -0.1)">
       <use xlink:href="#DejaVuSans-8722"/>
       <use x="83.789062" xlink:href="#DejaVuSans-54"/>
       <use x="147.412109" xlink:href="#DejaVuSans-48"/>
      </g>
     </g>
    </g>
    <g id="ytick_2">
     <g id="line2d_7">
      <g>
       <use style="stroke:#000000;stroke-width:0.8;" x="63" xlink:href="#mbc2e28ae3b" y="279.721346"/>
      </g>
     </g>
     <g id="text_8">
      <!-- −40 -->
      <g transform="translate(34.895313 283.520564)scale(0.1 -0.1)">
       <use xlink:href="#DejaVuSans-8722"/>
       <use x="83.789062" xlink:href="#DejaVuSans-52"/>
       <use x="147.412109" xlink:href="#DejaVuSans-48"/>
      </g>
     </g>
    </g>
    <g id="ytick_3">
     <g id="line2d_8">
      <g>
       <use style="stroke:#000000;stroke-width:0.8;" x="63" xlink:href="#mbc2e28ae3b" y="213.006072"/>
      </g>
     </g>
     <g id="text_9">
      <!-- −20 -->
      <g transform="translate(34.895313 216.80529)scale(0.1 -0.1)">
       <use xlink:href="#DejaVuSans-8722"/>
       <use x="83.789062" xlink:href="#DejaVuSans-50"/>
       <use x="147.412109" xlink:href="#DejaVuSans-48"/>
      </g>
     </g>
    </g>
    <g id="ytick_4">
     <g id="line2d_9">
      <g>
       <use style="stroke:#000000;stroke-width:0.8;" x="63" xlink:href="#mbc2e28ae3b" y="146.290797"/>
      </g>
     </g>
     <g id="text_10">
      <!-- 0 -->
      <g transform="translate(49.6375 150.090016)scale(0.1 -0.1)">
       <use xlink:href="#DejaVuSans-48"/>
      </g>
     </g>
    </g>
    <g id="ytick_5">
     <g id="line2d_10">
      <g>
       <use style="stroke:#000000;stroke-width:0.8;" x="63" xlink:href="#mbc2e28ae3b" y="79.575523"/>
      </g>
     </g>
     <g id="text_11">
      <!-- 20 -->
      <g transform="translate(43.275 83.374742)scale(0.1 -0.1)">
       <use xlink:href="#DejaVuSans-50"/>
       <use x="63.623047" xlink:href="#DejaVuSans-48"/>
      </g>
     </g>
    </g>
    <g id="text_12">
     <!-- voltage [V] -->
     <defs>
      <path d="M 2.984375 54.6875 
L 12.5 54.6875 
L 29.59375 8.796875 
L 46.6875 54.6875 
L 56.203125 54.6875 
L 35.6875 0 
L 23.484375 0 
z
" id="DejaVuSans-118"/>
      <path d="M 30.609375 48.390625 
Q 23.390625 48.390625 19.1875 42.75 
Q 14.984375 37.109375 14.984375 27.296875 
Q 14.984375 17.484375 19.15625 11.84375 
Q 23.34375 6.203125 30.609375 6.203125 
Q 37.796875 6.203125 41.984375 11.859375 
Q 46.1875 17.53125 46.1875 27.296875 
Q 46.1875 37.015625 41.984375 42.703125 
Q 37.796875 48.390625 30.609375 48.390625 
z
M 30.609375 56 
Q 42.328125 56 49.015625 48.375 
Q 55.71875 40.765625 55.71875 27.296875 
Q 55.71875 13.875 49.015625 6.21875 
Q 42.328125 -1.421875 30.609375 -1.421875 
Q 18.84375 -1.421875 12.171875 6.21875 
Q 5.515625 13.875 5.515625 27.296875 
Q 5.515625 40.765625 12.171875 48.375 
Q 18.84375 56 30.609375 56 
z
" id="DejaVuSans-111"/>
      <path d="M 9.421875 75.984375 
L 18.40625 75.984375 
L 18.40625 0 
L 9.421875 0 
z
" id="DejaVuSans-108"/>
      <path d="M 34.28125 27.484375 
Q 23.390625 27.484375 19.1875 25 
Q 14.984375 22.515625 14.984375 16.5 
Q 14.984375 11.71875 18.140625 8.90625 
Q 21.296875 6.109375 26.703125 6.109375 
Q 34.1875 6.109375 38.703125 11.40625 
Q 43.21875 16.703125 43.21875 25.484375 
L 43.21875 27.484375 
z
M 52.203125 31.203125 
L 52.203125 0 
L 43.21875 0 
L 43.21875 8.296875 
Q 40.140625 3.328125 35.546875 0.953125 
Q 30.953125 -1.421875 24.3125 -1.421875 
Q 15.921875 -1.421875 10.953125 3.296875 
Q 6 8.015625 6 15.921875 
Q 6 25.140625 12.171875 29.828125 
Q 18.359375 34.515625 30.609375 34.515625 
L 43.21875 34.515625 
L 43.21875 35.40625 
Q 43.21875 41.609375 39.140625 45 
Q 35.0625 48.390625 27.6875 48.390625 
Q 23 48.390625 18.546875 47.265625 
Q 14.109375 46.140625 10.015625 43.890625 
L 10.015625 52.203125 
Q 14.9375 54.109375 19.578125 55.046875 
Q 24.21875 56 28.609375 56 
Q 40.484375 56 46.34375 49.84375 
Q 52.203125 43.703125 52.203125 31.203125 
z
" id="DejaVuSans-97"/>
      <path d="M 45.40625 27.984375 
Q 45.40625 37.75 41.375 43.109375 
Q 37.359375 48.484375 30.078125 48.484375 
Q 22.859375 48.484375 18.828125 43.109375 
Q 14.796875 37.75 14.796875 27.984375 
Q 14.796875 18.265625 18.828125 12.890625 
Q 22.859375 7.515625 30.078125 7.515625 
Q 37.359375 7.515625 41.375 12.890625 
Q 45.40625 18.265625 45.40625 27.984375 
z
M 54.390625 6.78125 
Q 54.390625 -7.171875 48.1875 -13.984375 
Q 42 -20.796875 29.203125 -20.796875 
Q 24.46875 -20.796875 20.265625 -20.09375 
Q 16.0625 -19.390625 12.109375 -17.921875 
L 12.109375 -9.1875 
Q 16.0625 -11.328125 19.921875 -12.34375 
Q 23.78125 -13.375 27.78125 -13.375 
Q 36.625 -13.375 41.015625 -8.765625 
Q 45.40625 -4.15625 45.40625 5.171875 
L 45.40625 9.625 
Q 42.625 4.78125 38.28125 2.390625 
Q 33.9375 0 27.875 0 
Q 17.828125 0 11.671875 7.65625 
Q 5.515625 15.328125 5.515625 27.984375 
Q 5.515625 40.671875 11.671875 48.328125 
Q 17.828125 56 27.875 56 
Q 33.9375 56 38.28125 53.609375 
Q 42.625 51.21875 45.40625 46.390625 
L 45.40625 54.6875 
L 54.390625 54.6875 
z
" id="DejaVuSans-103"/>
      <path d="M 28.609375 0 
L 0.78125 72.90625 
L 11.078125 72.90625 
L 34.1875 11.53125 
L 57.328125 72.90625 
L 67.578125 72.90625 
L 39.796875 0 
z
" id="DejaVuSans-86"/>
     </defs>
     <g transform="translate(28.815625 245.75375)rotate(-90)scale(0.1 -0.1)">
      <use xlink:href="#DejaVuSans-118"/>
      <use x="59.179688" xlink:href="#DejaVuSans-111"/>
      <use x="120.361328" xlink:href="#DejaVuSans-108"/>
      <use x="148.144531" xlink:href="#DejaVuSans-116"/>
      <use x="187.353516" xlink:href="#DejaVuSans-97"/>
      <use x="248.632812" xlink:href="#DejaVuSans-103"/>
      <use x="312.109375" xlink:href="#DejaVuSans-101"/>
      <use x="373.632812" xlink:href="#DejaVuSans-32"/>
      <use x="405.419922" xlink:href="#DejaVuSans-91"/>
      <use x="444.433594" xlink:href="#DejaVuSans-86"/>
      <use x="512.841797" xlink:href="#DejaVuSans-93"/>
     </g>
    </g>
   </g>
   <g id="line2d_11">
    <path clip-path="url(#p7085d8cc1c)" d="M 80.754545 363.11543 
L 81.695536 363.127338 
L 85.743573 363.547099 
L 98.5446 364.860598 
L 108.646936 365.654244 
L 119.494964 366.280217 
L 131.656827 366.75456 
L 145.878218 367.080317 
L 151.772727 367.161655 
L 151.8615 365.151427 
L 152.234345 356.960379 
L 152.731473 351.227256 
L 153.565936 344.453821 
L 154.9863 334.909483 
L 156.726245 324.741152 
L 158.412927 316.143484 
L 160.028591 309.021211 
L 161.590991 303.130217 
L 163.153391 298.11206 
L 164.840073 293.461665 
L 167.236936 287.588857 
L 168.941373 283.181159 
L 169.793591 280.372413 
L 170.361736 277.753704 
L 170.752336 274.916446 
L 171.036409 270.840813 
L 171.1962 263.655375 
L 171.249464 255.666952 
L 171.622309 69.287965 
L 171.675573 66.96 
L 171.746591 67.199718 
L 171.906382 79.958984 
L 172.190455 132.353308 
L 172.847373 249.989734 
L 173.220218 284.306825 
L 173.5398 296.613983 
L 173.912645 303.031645 
L 174.303245 306.389515 
L 174.782618 308.588339 
L 175.226482 309.696068 
L 175.6881 310.284969 
L 176.096455 310.477581 
L 176.522564 310.434106 
L 177.019691 310.142709 
L 177.676609 309.461904 
L 178.528827 308.231631 
L 179.771645 306.020838 
L 182.807673 300.000935 
L 185.470855 295.010018 
L 188.134036 290.518009 
L 192.217582 283.685325 
L 193.336118 281.302361 
L 194.117318 279.103793 
L 194.685464 276.783239 
L 195.093818 274.005329 
L 195.324627 271.06422 
L 195.502173 265.14678 
L 195.573191 255.966111 
L 195.626455 228.638735 
L 195.839509 97.604201 
L 196.017055 89.022448 
L 196.034809 88.981158 
L 196.176845 92.699237 
L 196.407655 109.678538 
L 196.744991 158.207292 
L 197.437418 255.243304 
L 197.810264 279.836139 
L 198.200864 291.491968 
L 198.591464 297.095949 
L 199.070836 300.771542 
L 199.550209 302.927661 
L 200.082845 304.413338 
L 200.650991 305.352166 
L 201.219136 305.842105 
L 201.787282 306.009194 
L 202.390936 305.924455 
L 203.083364 305.58283 
L 203.988845 304.857443 
L 205.231664 303.536807 
L 207.220173 301.047399 
L 212.9904 293.692899 
L 217.855145 288.030558 
L 220.4118 284.863999 
L 221.885427 282.691666 
L 222.915191 280.782252 
L 223.660882 278.941522 
L 224.229027 276.926079 
L 224.637382 274.612336 
L 224.9037 271.901827 
L 225.081245 268.165618 
L 225.205527 258.965518 
L 225.241036 245.534321 
L 225.525109 96.405361 
L 225.596127 94.06836 
L 225.667145 94.617103 
L 225.862445 102.495267 
L 226.164273 126.729331 
L 226.679155 195.385377 
L 227.229545 256.820908 
L 227.6379 278.072869 
L 228.046255 288.338365 
L 228.454609 293.677429 
L 228.933982 297.288423 
L 229.502127 299.883523 
L 230.105782 301.612152 
L 230.691682 302.676955 
L 231.313091 303.355841 
L 231.898991 303.688223 
L 232.538155 303.796117 
L 233.266091 303.677151 
L 234.136064 303.289982 
L 235.236845 302.539001 
L 236.781491 301.187708 
L 239.320391 298.631201 
L 247.416464 290.37109 
L 251.446745 286.19337 
L 253.346482 283.903856 
L 254.642564 281.999496 
L 255.601309 280.188545 
L 256.275982 278.461617 
L 256.808618 276.47561 
L 257.181464 274.237342 
L 257.447782 271.253541 
L 257.607573 267.329158 
L 257.696345 260.858507 
L 257.767364 237.822548 
L 257.998173 99.997742 
L 258.122455 94.75691 
L 258.157964 95.362202 
L 258.264491 98.820863 
L 258.566318 119.110265 
L 258.956918 163.234566 
L 259.755873 255.379092 
L 260.181982 277.183413 
L 260.590336 287.264898 
L 261.016445 292.621016 
L 261.495818 296.021346 
L 262.028455 298.350061 
L 262.649864 300.088265 
L 263.271273 301.200407 
L 263.892682 301.892237 
L 264.531845 302.285452 
L 265.206518 302.439079 
L 265.952209 302.37474 
L 266.839936 302.064049 
L 267.958473 301.420752 
L 269.449855 300.289282 
L 271.722436 298.262562 
L 281.185609 289.287709 
L 284.434691 286.014605 
L 286.281164 283.852871 
L 287.577245 282.005287 
L 288.518236 280.292244 
L 289.246173 278.497327 
L 289.778809 276.578857 
L 290.151655 274.452644 
L 290.435727 271.485958 
L 290.631027 266.381041 
L 290.7198 258.026973 
L 290.844082 161.215713 
L 291.003873 99.141536 
L 291.128155 95.048592 
L 291.163664 95.575302 
L 291.341209 102.98658 
L 291.643036 126.517407 
L 292.175673 192.085935 
L 292.761573 254.872905 
L 293.152173 275.312317 
L 293.560527 286.180866 
L 294.004391 292.08871 
L 294.483764 295.620545 
L 295.051909 298.140335 
L 295.673318 299.876532 
L 296.276973 300.965595 
L 296.916136 301.68789 
L 297.5553 302.08922 
L 298.247727 302.254972 
L 299.028927 302.191541 
L 299.952164 301.869278 
L 301.141718 301.183434 
L 302.686364 300.013416 
L 305.154245 297.827977 
L 315.451882 288.169034 
L 318.150573 285.386478 
L 319.837255 283.339139 
L 321.062318 281.498673 
L 321.950045 279.759076 
L 322.589209 278.039653 
L 323.068582 276.149174 
L 323.423673 273.884008 
L 323.672236 270.953903 
L 323.849782 265.446422 
L 323.938555 254.634038 
L 323.974064 234.172768 
L 324.204873 100.381751 
L 324.3114 94.831717 
L 324.346909 95.308089 
L 324.453436 98.309488 
L 324.755264 118.278598 
L 325.163618 163.669109 
L 325.962573 254.694282 
L 326.388682 276.58372 
L 326.797036 286.892341 
L 327.2409 292.524806 
L 327.738027 296.00435 
L 328.306173 298.391609 
L 328.927582 300.039809 
L 329.5845 301.139552 
L 330.223664 301.785994 
L 330.880582 302.13661 
L 331.555255 302.250247 
L 332.354209 302.143741 
L 333.2952 301.776357 
L 334.484755 301.057206 
L 336.135927 299.774164 
L 338.834618 297.353718 
L 350.197527 286.636654 
L 352.274809 284.342985 
L 353.677418 282.48286 
L 354.724936 280.732922 
L 355.506136 278.993076 
L 356.092036 277.131071 
L 356.518145 275.02223 
L 356.819973 272.39906 
L 357.015273 268.849546 
L 357.139555 262.468821 
L 357.210573 243.500607 
L 357.476891 97.826059 
L 357.565664 94.994675 
L 357.618927 95.576335 
L 357.778718 102.086515 
L 358.116055 128.569847 
L 358.648691 194.723552 
L 359.216836 255.121322 
L 359.625191 276.314938 
L 360.033545 286.859272 
L 360.459655 292.426698 
L 360.939027 295.903455 
L 361.453909 298.181811 
L 362.057564 299.889163 
L 362.678973 301.015057 
L 363.318136 301.730746 
L 363.975055 302.131987 
L 364.649727 302.283653 
L 364.862782 302.287748 
L 364.969309 304.483016 
L 365.306645 311.737118 
L 365.786018 316.852464 
L 366.460691 321.466885 
L 367.348418 325.995566 
L 368.395936 330.199536 
L 369.532227 333.885577 
L 370.775045 337.20485 
L 372.1599 340.276713 
L 373.633527 343.012219 
L 375.213682 345.486802 
L 376.900364 347.727619 
L 378.729082 349.795627 
L 380.735345 351.727457 
L 382.9014 353.50396 
L 385.280509 355.165759 
L 387.890427 356.716272 
L 390.819927 358.191686 
L 394.051255 359.566291 
L 397.673182 360.8622 
L 401.721218 362.072267 
L 406.266382 363.196861 
L 411.361936 364.226208 
L 417.061145 365.147976 
L 423.417273 365.94831 
L 430.572355 366.620742 
L 435.8277 366.989916 
L 435.8277 366.989916 
" style="fill:none;stroke:#1f77b4;stroke-linecap:square;stroke-width:1.5;"/>
   </g>
   <g id="line2d_12">
    <path clip-path="url(#p7085d8cc1c)" d="M 80.754545 363.115438 
L 81.482482 363.266039 
L 92.454791 365.814187 
L 97.443818 366.626773 
L 102.752427 367.263218 
L 108.611427 367.736995 
L 115.3404 368.051648 
L 123.667282 368.207589 
L 135.775882 368.189587 
L 151.772727 368.04406 
L 151.985782 357.900272 
L 152.429645 348.283726 
L 153.139827 337.985112 
L 154.151836 326.568893 
L 155.270373 316.360971 
L 156.335645 308.589829 
L 157.365409 302.654119 
L 158.395173 297.966228 
L 159.495955 293.974307 
L 160.703264 290.428286 
L 162.105873 287.002094 
L 164.147645 282.666287 
L 165.940855 278.710744 
L 166.775318 276.328816 
L 167.343464 274.045805 
L 167.751818 271.476055 
L 168.035891 268.257073 
L 168.231191 263.263644 
L 168.337718 254.837865 
L 168.390982 237.117052 
L 168.550773 86.265441 
L 168.621791 96.358127 
L 169.420745 271.766466 
L 169.651555 276.362464 
L 169.864609 277.132646 
L 170.077664 277.176999 
L 170.361736 277.274222 
L 170.645809 277.67581 
L 171.160691 278.899328 
L 172.296982 281.573445 
L 173.095936 282.856363 
L 173.912645 283.751745 
L 174.764864 284.358999 
L 175.670345 284.733806 
L 176.6646 284.905546 
L 177.800891 284.872631 
L 179.132482 284.605478 
L 180.730391 284.050539 
L 182.647882 283.1409 
L 184.760673 281.890681 
L 186.713673 280.483794 
L 188.276073 279.092178 
L 189.465627 277.740274 
L 190.371109 276.377482 
L 191.063536 274.93717 
L 191.596173 273.323835 
L 192.004527 271.391748 
L 192.324109 268.735768 
L 192.537164 265.087861 
L 192.6792 258.632115 
L 192.750218 246.905989 
L 192.803482 188.675373 
L 192.927764 92.550687 
L 192.945518 93.614821 
L 193.052045 117.081762 
L 193.566927 244.835945 
L 193.851 264.067261 
L 194.135073 270.614242 
L 194.454655 273.273095 
L 195.537682 278.637774 
L 196.443164 282.544374 
L 197.206609 284.872725 
L 197.970055 286.512701 
L 198.751255 287.679523 
L 199.550209 288.481767 
L 200.366918 288.995951 
L 201.236891 289.285981 
L 202.213391 289.37256 
L 203.331927 289.242438 
L 204.699027 288.848938 
L 206.456727 288.096083 
L 208.8891 286.793701 
L 212.546536 284.562353 
L 216.186218 282.102646 
L 218.494309 280.290391 
L 220.056709 278.79199 
L 221.193 277.402258 
L 222.045218 276.01451 
L 222.702136 274.51846 
L 223.199264 272.840702 
L 223.589864 270.715967 
L 223.873936 267.896149 
L 224.069236 263.664275 
L 224.193518 255.556922 
L 224.264536 229.574844 
L 224.406573 92.454171 
L 224.459836 97.710859 
L 224.672891 161.520556 
L 225.045736 244.861561 
L 225.312055 263.71235 
L 225.596127 270.622636 
L 225.915709 273.379216 
L 226.6614 276.938216 
L 227.850955 282.070591 
L 228.632155 284.420168 
L 229.3956 286.048118 
L 230.1768 287.216814 
L 230.975755 288.029263 
L 231.810218 288.567995 
L 232.697945 288.878044 
L 233.674445 288.982871 
L 234.810736 288.874795 
L 236.177836 288.512645 
L 237.935536 287.802788 
L 240.350155 286.568614 
L 243.883309 284.493714 
L 247.505236 282.125745 
L 249.848836 280.346724 
L 251.4645 278.850657 
L 252.6363 277.466581 
L 253.506273 276.100188 
L 254.180945 274.622235 
L 254.695827 272.952007 
L 255.086427 270.928983 
L 255.388255 268.097496 
L 255.583555 264.172438 
L 255.707836 257.359596 
L 255.778855 241.121727 
L 255.938645 92.515671 
L 256.045173 110.777737 
L 256.631073 250.868383 
L 256.915145 266.668632 
L 257.199218 271.903543 
L 257.536555 274.263472 
L 258.814882 280.157989 
L 259.649345 283.200477 
L 260.412791 285.185661 
L 261.193991 286.621804 
L 261.992945 287.637105 
L 262.809655 288.32408 
L 263.661873 288.756169 
L 264.585109 288.975901 
L 265.632627 288.991184 
L 266.857691 288.779916 
L 268.384582 288.279395 
L 270.390845 287.372439 
L 273.284836 285.798831 
L 277.279609 283.365234 
L 280.333391 281.26972 
L 282.3219 279.648149 
L 283.706755 278.243916 
L 284.736518 276.890859 
L 285.517718 275.500533 
L 286.121373 273.968192 
L 286.582991 272.18442 
L 286.938082 269.890248 
L 287.186645 266.8412 
L 287.364191 261.668392 
L 287.470718 250.261061 
L 287.523982 213.778055 
L 287.648264 92.66761 
L 287.683773 94.2844 
L 287.808055 124.544612 
L 288.287427 244.356381 
L 288.553745 263.968626 
L 288.837818 271.055177 
L 289.1574 273.835269 
L 289.867582 277.220554 
L 291.039382 282.175742 
L 291.820582 284.495996 
L 292.601782 286.138706 
L 293.382982 287.287665 
L 294.181936 288.08681 
L 295.0164 288.616718 
L 295.904127 288.921467 
L 296.898382 289.02404 
L 298.052427 288.910286 
L 299.437282 288.541464 
L 301.230491 287.819064 
L 303.716127 286.557832 
L 307.409073 284.415262 
L 311.102018 282.037395 
L 313.463373 280.269834 
L 315.061282 278.809327 
L 316.233082 277.444069 
L 317.103055 276.096869 
L 317.777727 274.64232 
L 318.292609 273.005246 
L 318.700964 270.920762 
L 319.002791 268.10336 
L 319.198091 264.207053 
L 319.322373 257.495916 
L 319.393391 241.861822 
L 319.553182 92.564141 
L 319.677464 115.49952 
L 320.2101 247.133853 
L 320.494173 265.570743 
L 320.778245 271.591582 
L 321.097827 274.058523 
L 322.038818 278.459663 
L 322.997564 282.349593 
L 323.778764 284.613042 
L 324.559964 286.2155 
L 325.341164 287.336324 
L 326.157873 288.128912 
L 327.010091 288.646197 
L 327.915573 288.934233 
L 328.927582 289.016919 
L 330.099382 288.881506 
L 331.519745 288.484877 
L 333.366218 287.724279 
L 335.958382 286.395874 
L 339.811118 284.153754 
L 343.415291 281.822559 
L 345.687873 280.103748 
L 347.250273 278.652704 
L 348.386564 277.299969 
L 349.238782 275.944204 
L 349.8957 274.479712 
L 350.410582 272.763903 
L 350.801182 270.64002 
L 351.085255 267.800529 
L 351.280555 263.484782 
L 351.404836 254.946127 
L 351.475855 224.803843 
L 351.617891 92.609988 
L 351.6534 95.610379 
L 351.813191 139.49152 
L 352.221545 241.02812 
L 352.487864 262.841768 
L 352.771936 270.657351 
L 353.073764 273.522329 
L 353.641909 276.266655 
L 355.080027 282.350656 
L 355.861227 284.60188 
L 356.642427 286.197191 
L 357.441382 287.33511 
L 358.258091 288.11881 
L 359.110309 288.630317 
L 360.015791 288.914926 
L 361.0278 288.996094 
L 362.1996 288.861037 
L 363.637718 288.460693 
L 364.827273 287.996355 
L 365.040327 298.113145 
L 365.430927 306.044773 
L 365.981318 312.641651 
L 366.709255 318.658298 
L 367.596982 324.184837 
L 368.626745 329.226075 
L 369.763036 333.70814 
L 371.005855 337.720949 
L 372.337445 341.281482 
L 373.775564 344.496654 
L 375.320209 347.406348 
L 376.971382 350.046524 
L 378.746836 352.47094 
L 380.664327 354.715679 
L 382.741609 356.803884 
L 384.960927 358.72033 
L 387.340036 360.482511 
L 389.896691 362.098626 
L 392.613136 363.552281 
L 395.507127 364.847999 
L 398.578664 365.979201 
L 401.863255 366.950448 
L 405.396409 367.760219 
L 409.213636 368.40434 
L 413.439218 368.88761 
L 418.232945 369.205819 
L 423.9144 369.351911 
L 431.318045 369.305851 
L 435.845455 369.205638 
L 435.845455 369.205638 
" style="fill:none;stroke:#ff0000;stroke-linecap:square;stroke-width:1.5;"/>
   </g>
   <g id="patch_3">
    <path d="M 63 384.48 
L 63 51.84 
" style="fill:none;stroke:#000000;stroke-linecap:square;stroke-linejoin:miter;stroke-width:0.8;"/>
   </g>
   <g id="patch_4">
    <path d="M 453.6 384.48 
L 453.6 51.84 
" style="fill:none;stroke:#000000;stroke-linecap:square;stroke-linejoin:miter;stroke-width:0.8;"/>
   </g>
   <g id="patch_5">
    <path d="M 63 384.48 
L 453.6 384.48 
" style="fill:none;stroke:#000000;stroke-linecap:square;stroke-linejoin:miter;stroke-width:0.8;"/>
   </g>
   <g id="patch_6">
    <path d="M 63 51.84 
L 453.6 51.84 
" style="fill:none;stroke:#000000;stroke-linecap:square;stroke-linejoin:miter;stroke-width:0.8;"/>
   </g>
   <g id="legend_1">
    <g id="patch_7">
     <path d="M 383.460938 89.19625 
L 446.6 89.19625 
Q 448.6 89.19625 448.6 87.19625 
L 448.6 58.84 
Q 448.6 56.84 446.6 56.84 
L 383.460938 56.84 
Q 381.460938 56.84 381.460938 58.84 
L 381.460938 87.19625 
Q 381.460938 89.19625 383.460938 89.19625 
z
" style="fill:#ffffff;opacity:0.8;stroke:#cccccc;stroke-linejoin:miter;"/>
    </g>
    <g id="line2d_13">
     <path d="M 385.460938 64.938437 
L 405.460938 64.938437 
" style="fill:none;stroke:#1f77b4;stroke-linecap:square;stroke-width:1.5;"/>
    </g>
    <g id="line2d_14"/>
    <g id="text_13">
     <!-- target -->
     <defs>
      <path d="M 41.109375 46.296875 
Q 39.59375 47.171875 37.8125 47.578125 
Q 36.03125 48 33.890625 48 
Q 26.265625 48 22.1875 43.046875 
Q 18.109375 38.09375 18.109375 28.8125 
L 18.109375 0 
L 9.078125 0 
L 9.078125 54.6875 
L 18.109375 54.6875 
L 18.109375 46.1875 
Q 20.953125 51.171875 25.484375 53.578125 
Q 30.03125 56 36.53125 56 
Q 37.453125 56 38.578125 55.875 
Q 39.703125 55.765625 41.0625 55.515625 
z
" id="DejaVuSans-114"/>
     </defs>
     <g transform="translate(413.460938 68.438437)scale(0.1 -0.1)">
      <use xlink:href="#DejaVuSans-116"/>
      <use x="39.208984" xlink:href="#DejaVuSans-97"/>
      <use x="100.488281" xlink:href="#DejaVuSans-114"/>
      <use x="141.585938" xlink:href="#DejaVuSans-103"/>
      <use x="205.0625" xlink:href="#DejaVuSans-101"/>
      <use x="266.585938" xlink:href="#DejaVuSans-116"/>
     </g>
    </g>
    <g id="line2d_15">
     <path d="M 385.460938 79.616562 
L 405.460938 79.616562 
" style="fill:none;stroke:#ff0000;stroke-linecap:square;stroke-width:1.5;"/>
    </g>
    <g id="line2d_16"/>
    <g id="text_14">
     <!-- model -->
     <defs>
      <path d="M 45.40625 46.390625 
L 45.40625 75.984375 
L 54.390625 75.984375 
L 54.390625 0 
L 45.40625 0 
L 45.40625 8.203125 
Q 42.578125 3.328125 38.25 0.953125 
Q 33.9375 -1.421875 27.875 -1.421875 
Q 17.96875 -1.421875 11.734375 6.484375 
Q 5.515625 14.40625 5.515625 27.296875 
Q 5.515625 40.1875 11.734375 48.09375 
Q 17.96875 56 27.875 56 
Q 33.9375 56 38.25 53.625 
Q 42.578125 51.265625 45.40625 46.390625 
z
M 14.796875 27.296875 
Q 14.796875 17.390625 18.875 11.75 
Q 22.953125 6.109375 30.078125 6.109375 
Q 37.203125 6.109375 41.296875 11.75 
Q 45.40625 17.390625 45.40625 27.296875 
Q 45.40625 37.203125 41.296875 42.84375 
Q 37.203125 48.484375 30.078125 48.484375 
Q 22.953125 48.484375 18.875 42.84375 
Q 14.796875 37.203125 14.796875 27.296875 
z
" id="DejaVuSans-100"/>
     </defs>
     <g transform="translate(413.460938 83.116562)scale(0.1 -0.1)">
      <use xlink:href="#DejaVuSans-109"/>
      <use x="97.412109" xlink:href="#DejaVuSans-111"/>
      <use x="158.59375" xlink:href="#DejaVuSans-100"/>
      <use x="222.070312" xlink:href="#DejaVuSans-101"/>
      <use x="283.59375" xlink:href="#DejaVuSans-108"/>
     </g>
    </g>
   </g>
  </g>
 </g>
 <defs>
  <clipPath id="p7085d8cc1c">
   <rect height="332.64" width="390.6" x="63" y="51.84"/>
  </clipPath>
 </defs>
</svg>
