<?xml version="1.0" encoding="utf-8" standalone="no"?>
<!DOCTYPE svg PUBLIC "-//W3C//DTD SVG 1.1//EN"
  "http://www.w3.org/Graphics/SVG/1.1/DTD/svg11.dtd">
<!-- Created with matplotlib (https://matplotlib.org/) -->
<svg height="432pt" version="1.1" viewBox="0 0 504 432" width="504pt" xmlns="http://www.w3.org/2000/svg" xmlns:xlink="http://www.w3.org/1999/xlink">
 <defs>
  <style type="text/css">
*{stroke-linecap:butt;stroke-linejoin:round;}
  </style>
 </defs>
 <g id="figure_1">
  <g id="patch_1">
   <path d="M 0 432 
L 504 432 
L 504 0 
L 0 0 
z
" style="fill:#ffffff;"/>
  </g>
  <g id="axes_1">
   <g id="patch_2">
    <path d="M 63 384.48 
L 453.6 384.48 
L 453.6 51.84 
L 63 51.84 
z
" style="fill:#ffffff;"/>
   </g>
   <g id="matplotlib.axis_1">
    <g id="xtick_1">
     <g id="line2d_1">
      <defs>
       <path d="M 0 0 
L 0 3.5 
" id="m8e21211b95" style="stroke:#000000;stroke-width:0.8;"/>
      </defs>
      <g>
       <use style="stroke:#000000;stroke-width:0.8;" x="80.754545" xlink:href="#m8e21211b95" y="384.48"/>
      </g>
     </g>
     <g id="text_1">
      <!-- 0 -->
      <defs>
       <path d="M 31.78125 66.40625 
Q 24.171875 66.40625 20.328125 58.90625 
Q 16.5 51.421875 16.5 36.375 
Q 16.5 21.390625 20.328125 13.890625 
Q 24.171875 6.390625 31.78125 6.390625 
Q 39.453125 6.390625 43.28125 13.890625 
Q 47.125 21.390625 47.125 36.375 
Q 47.125 51.421875 43.28125 58.90625 
Q 39.453125 66.40625 31.78125 66.40625 
z
M 31.78125 74.21875 
Q 44.046875 74.21875 50.515625 64.515625 
Q 56.984375 54.828125 56.984375 36.375 
Q 56.984375 17.96875 50.515625 8.265625 
Q 44.046875 -1.421875 31.78125 -1.421875 
Q 19.53125 -1.421875 13.0625 8.265625 
Q 6.59375 17.96875 6.59375 36.375 
Q 6.59375 54.828125 13.0625 64.515625 
Q 19.53125 74.21875 31.78125 74.21875 
z
" id="DejaVuSans-48"/>
      </defs>
      <g transform="translate(77.573295 399.078438)scale(0.1 -0.1)">
       <use xlink:href="#DejaVuSans-48"/>
      </g>
     </g>
    </g>
    <g id="xtick_2">
     <g id="line2d_2">
      <g>
       <use style="stroke:#000000;stroke-width:0.8;" x="151.763044" xlink:href="#m8e21211b95" y="384.48"/>
      </g>
     </g>
     <g id="text_2">
      <!-- 880 -->
      <defs>
       <path d="M 31.78125 34.625 
Q 24.75 34.625 20.71875 30.859375 
Q 16.703125 27.09375 16.703125 20.515625 
Q 16.703125 13.921875 20.71875 10.15625 
Q 24.75 6.390625 31.78125 6.390625 
Q 38.8125 6.390625 42.859375 10.171875 
Q 46.921875 13.96875 46.921875 20.515625 
Q 46.921875 27.09375 42.890625 30.859375 
Q 38.875 34.625 31.78125 34.625 
z
M 21.921875 38.8125 
Q 15.578125 40.375 12.03125 44.71875 
Q 8.5 49.078125 8.5 55.328125 
Q 8.5 64.0625 14.71875 69.140625 
Q 20.953125 74.21875 31.78125 74.21875 
Q 42.671875 74.21875 48.875 69.140625 
Q 55.078125 64.0625 55.078125 55.328125 
Q 55.078125 49.078125 51.53125 44.71875 
Q 48 40.375 41.703125 38.8125 
Q 48.828125 37.15625 52.796875 32.3125 
Q 56.78125 27.484375 56.78125 20.515625 
Q 56.78125 9.90625 50.3125 4.234375 
Q 43.84375 -1.421875 31.78125 -1.421875 
Q 19.734375 -1.421875 13.25 4.234375 
Q 6.78125 9.90625 6.78125 20.515625 
Q 6.78125 27.484375 10.78125 32.3125 
Q 14.796875 37.15625 21.921875 38.8125 
z
M 18.3125 54.390625 
Q 18.3125 48.734375 21.84375 45.5625 
Q 25.390625 42.390625 31.78125 42.390625 
Q 38.140625 42.390625 41.71875 45.5625 
Q 45.3125 48.734375 45.3125 54.390625 
Q 45.3125 60.0625 41.71875 63.234375 
Q 38.140625 66.40625 31.78125 66.40625 
Q 25.390625 66.40625 21.84375 63.234375 
Q 18.3125 60.0625 18.3125 54.390625 
z
" id="DejaVuSans-56"/>
      </defs>
      <g transform="translate(142.219294 399.078438)scale(0.1 -0.1)">
       <use xlink:href="#DejaVuSans-56"/>
       <use x="63.623047" xlink:href="#DejaVuSans-56"/>
       <use x="127.246094" xlink:href="#DejaVuSans-48"/>
      </g>
     </g>
    </g>
    <g id="xtick_3">
     <g id="line2d_3">
      <g>
       <use style="stroke:#000000;stroke-width:0.8;" x="222.771543" xlink:href="#m8e21211b95" y="384.48"/>
      </g>
     </g>
     <g id="text_3">
      <!-- 1760 -->
      <defs>
       <path d="M 12.40625 8.296875 
L 28.515625 8.296875 
L 28.515625 63.921875 
L 10.984375 60.40625 
L 10.984375 69.390625 
L 28.421875 72.90625 
L 38.28125 72.90625 
L 38.28125 8.296875 
L 54.390625 8.296875 
L 54.390625 0 
L 12.40625 0 
z
" id="DejaVuSans-49"/>
       <path d="M 8.203125 72.90625 
L 55.078125 72.90625 
L 55.078125 68.703125 
L 28.609375 0 
L 18.3125 0 
L 43.21875 64.59375 
L 8.203125 64.59375 
z
" id="DejaVuSans-55"/>
       <path d="M 33.015625 40.375 
Q 26.375 40.375 22.484375 35.828125 
Q 18.609375 31.296875 18.609375 23.390625 
Q 18.609375 15.53125 22.484375 10.953125 
Q 26.375 6.390625 33.015625 6.390625 
Q 39.65625 6.390625 43.53125 10.953125 
Q 47.40625 15.53125 47.40625 23.390625 
Q 47.40625 31.296875 43.53125 35.828125 
Q 39.65625 40.375 33.015625 40.375 
z
M 52.59375 71.296875 
L 52.59375 62.3125 
Q 48.875 64.0625 45.09375 64.984375 
Q 41.3125 65.921875 37.59375 65.921875 
Q 27.828125 65.921875 22.671875 59.328125 
Q 17.53125 52.734375 16.796875 39.40625 
Q 19.671875 43.65625 24.015625 45.921875 
Q 28.375 48.1875 33.59375 48.1875 
Q 44.578125 48.1875 50.953125 41.515625 
Q 57.328125 34.859375 57.328125 23.390625 
Q 57.328125 12.15625 50.6875 5.359375 
Q 44.046875 -1.421875 33.015625 -1.421875 
Q 20.359375 -1.421875 13.671875 8.265625 
Q 6.984375 17.96875 6.984375 36.375 
Q 6.984375 53.65625 15.1875 63.9375 
Q 23.390625 74.21875 37.203125 74.21875 
Q 40.921875 74.21875 44.703125 73.484375 
Q 48.484375 72.75 52.59375 71.296875 
z
" id="DejaVuSans-54"/>
      </defs>
      <g transform="translate(210.046543 399.078438)scale(0.1 -0.1)">
       <use xlink:href="#DejaVuSans-49"/>
       <use x="63.623047" xlink:href="#DejaVuSans-55"/>
       <use x="127.246094" xlink:href="#DejaVuSans-54"/>
       <use x="190.869141" xlink:href="#DejaVuSans-48"/>
      </g>
     </g>
    </g>
    <g id="xtick_4">
     <g id="line2d_4">
      <g>
       <use style="stroke:#000000;stroke-width:0.8;" x="293.780042" xlink:href="#m8e21211b95" y="384.48"/>
      </g>
     </g>
     <g id="text_4">
      <!-- 2640 -->
      <defs>
       <path d="M 19.1875 8.296875 
L 53.609375 8.296875 
L 53.609375 0 
L 7.328125 0 
L 7.328125 8.296875 
Q 12.9375 14.109375 22.625 23.890625 
Q 32.328125 33.6875 34.8125 36.53125 
Q 39.546875 41.84375 41.421875 45.53125 
Q 43.3125 49.21875 43.3125 52.78125 
Q 43.3125 58.59375 39.234375 62.25 
Q 35.15625 65.921875 28.609375 65.921875 
Q 23.96875 65.921875 18.8125 64.3125 
Q 13.671875 62.703125 7.8125 59.421875 
L 7.8125 69.390625 
Q 13.765625 71.78125 18.9375 73 
Q 24.125 74.21875 28.421875 74.21875 
Q 39.75 74.21875 46.484375 68.546875 
Q 53.21875 62.890625 53.21875 53.421875 
Q 53.21875 48.921875 51.53125 44.890625 
Q 49.859375 40.875 45.40625 35.40625 
Q 44.1875 33.984375 37.640625 27.21875 
Q 31.109375 20.453125 19.1875 8.296875 
z
" id="DejaVuSans-50"/>
       <path d="M 37.796875 64.3125 
L 12.890625 25.390625 
L 37.796875 25.390625 
z
M 35.203125 72.90625 
L 47.609375 72.90625 
L 47.609375 25.390625 
L 58.015625 25.390625 
L 58.015625 17.1875 
L 47.609375 17.1875 
L 47.609375 0 
L 37.796875 0 
L 37.796875 17.1875 
L 4.890625 17.1875 
L 4.890625 26.703125 
z
" id="DejaVuSans-52"/>
      </defs>
      <g transform="translate(281.055042 399.078438)scale(0.1 -0.1)">
       <use xlink:href="#DejaVuSans-50"/>
       <use x="63.623047" xlink:href="#DejaVuSans-54"/>
       <use x="127.246094" xlink:href="#DejaVuSans-52"/>
       <use x="190.869141" xlink:href="#DejaVuSans-48"/>
      </g>
     </g>
    </g>
    <g id="xtick_5">
     <g id="line2d_5">
      <g>
       <use style="stroke:#000000;stroke-width:0.8;" x="364.788541" xlink:href="#m8e21211b95" y="384.48"/>
      </g>
     </g>
     <g id="text_5">
      <!-- 3520 -->
      <defs>
       <path d="M 40.578125 39.3125 
Q 47.65625 37.796875 51.625 33 
Q 55.609375 28.21875 55.609375 21.1875 
Q 55.609375 10.40625 48.1875 4.484375 
Q 40.765625 -1.421875 27.09375 -1.421875 
Q 22.515625 -1.421875 17.65625 -0.515625 
Q 12.796875 0.390625 7.625 2.203125 
L 7.625 11.71875 
Q 11.71875 9.328125 16.59375 8.109375 
Q 21.484375 6.890625 26.8125 6.890625 
Q 36.078125 6.890625 40.9375 10.546875 
Q 45.796875 14.203125 45.796875 21.1875 
Q 45.796875 27.640625 41.28125 31.265625 
Q 36.765625 34.90625 28.71875 34.90625 
L 20.21875 34.90625 
L 20.21875 43.015625 
L 29.109375 43.015625 
Q 36.375 43.015625 40.234375 45.921875 
Q 44.09375 48.828125 44.09375 54.296875 
Q 44.09375 59.90625 40.109375 62.90625 
Q 36.140625 65.921875 28.71875 65.921875 
Q 24.65625 65.921875 20.015625 65.03125 
Q 15.375 64.15625 9.8125 62.3125 
L 9.8125 71.09375 
Q 15.4375 72.65625 20.34375 73.4375 
Q 25.25 74.21875 29.59375 74.21875 
Q 40.828125 74.21875 47.359375 69.109375 
Q 53.90625 64.015625 53.90625 55.328125 
Q 53.90625 49.265625 50.4375 45.09375 
Q 46.96875 40.921875 40.578125 39.3125 
z
" id="DejaVuSans-51"/>
       <path d="M 10.796875 72.90625 
L 49.515625 72.90625 
L 49.515625 64.59375 
L 19.828125 64.59375 
L 19.828125 46.734375 
Q 21.96875 47.46875 24.109375 47.828125 
Q 26.265625 48.1875 28.421875 48.1875 
Q 40.625 48.1875 47.75 41.5 
Q 54.890625 34.8125 54.890625 23.390625 
Q 54.890625 11.625 47.5625 5.09375 
Q 40.234375 -1.421875 26.90625 -1.421875 
Q 22.3125 -1.421875 17.546875 -0.640625 
Q 12.796875 0.140625 7.71875 1.703125 
L 7.71875 11.625 
Q 12.109375 9.234375 16.796875 8.0625 
Q 21.484375 6.890625 26.703125 6.890625 
Q 35.15625 6.890625 40.078125 11.328125 
Q 45.015625 15.765625 45.015625 23.390625 
Q 45.015625 31 40.078125 35.4375 
Q 35.15625 39.890625 26.703125 39.890625 
Q 22.75 39.890625 18.8125 39.015625 
Q 14.890625 38.140625 10.796875 36.28125 
z
" id="DejaVuSans-53"/>
      </defs>
      <g transform="translate(352.063541 399.078438)scale(0.1 -0.1)">
       <use xlink:href="#DejaVuSans-51"/>
       <use x="63.623047" xlink:href="#DejaVuSans-53"/>
       <use x="127.246094" xlink:href="#DejaVuSans-50"/>
       <use x="190.869141" xlink:href="#DejaVuSans-48"/>
      </g>
     </g>
    </g>
    <g id="text_6">
     <!-- time [ms] -->
     <defs>
      <path d="M 18.3125 70.21875 
L 18.3125 54.6875 
L 36.8125 54.6875 
L 36.8125 47.703125 
L 18.3125 47.703125 
L 18.3125 18.015625 
Q 18.3125 11.328125 20.140625 9.421875 
Q 21.96875 7.515625 27.59375 7.515625 
L 36.8125 7.515625 
L 36.8125 0 
L 27.59375 0 
Q 17.1875 0 13.234375 3.875 
Q 9.28125 7.765625 9.28125 18.015625 
L 9.28125 47.703125 
L 2.6875 47.703125 
L 2.6875 54.6875 
L 9.28125 54.6875 
L 9.28125 70.21875 
z
" id="DejaVuSans-116"/>
      <path d="M 9.421875 54.6875 
L 18.40625 54.6875 
L 18.40625 0 
L 9.421875 0 
z
M 9.421875 75.984375 
L 18.40625 75.984375 
L 18.40625 64.59375 
L 9.421875 64.59375 
z
" id="DejaVuSans-105"/>
      <path d="M 52 44.1875 
Q 55.375 50.25 60.0625 53.125 
Q 64.75 56 71.09375 56 
Q 79.640625 56 84.28125 50.015625 
Q 88.921875 44.046875 88.921875 33.015625 
L 88.921875 0 
L 79.890625 0 
L 79.890625 32.71875 
Q 79.890625 40.578125 77.09375 44.375 
Q 74.3125 48.1875 68.609375 48.1875 
Q 61.625 48.1875 57.5625 43.546875 
Q 53.515625 38.921875 53.515625 30.90625 
L 53.515625 0 
L 44.484375 0 
L 44.484375 32.71875 
Q 44.484375 40.625 41.703125 44.40625 
Q 38.921875 48.1875 33.109375 48.1875 
Q 26.21875 48.1875 22.15625 43.53125 
Q 18.109375 38.875 18.109375 30.90625 
L 18.109375 0 
L 9.078125 0 
L 9.078125 54.6875 
L 18.109375 54.6875 
L 18.109375 46.1875 
Q 21.1875 51.21875 25.484375 53.609375 
Q 29.78125 56 35.6875 56 
Q 41.65625 56 45.828125 52.96875 
Q 50 49.953125 52 44.1875 
z
" id="DejaVuSans-109"/>
      <path d="M 56.203125 29.59375 
L 56.203125 25.203125 
L 14.890625 25.203125 
Q 15.484375 15.921875 20.484375 11.0625 
Q 25.484375 6.203125 34.421875 6.203125 
Q 39.59375 6.203125 44.453125 7.46875 
Q 49.3125 8.734375 54.109375 11.28125 
L 54.109375 2.78125 
Q 49.265625 0.734375 44.1875 -0.34375 
Q 39.109375 -1.421875 33.890625 -1.421875 
Q 20.796875 -1.421875 13.15625 6.1875 
Q 5.515625 13.8125 5.515625 26.8125 
Q 5.515625 40.234375 12.765625 48.109375 
Q 20.015625 56 32.328125 56 
Q 43.359375 56 49.78125 48.890625 
Q 56.203125 41.796875 56.203125 29.59375 
z
M 47.21875 32.234375 
Q 47.125 39.59375 43.09375 43.984375 
Q 39.0625 48.390625 32.421875 48.390625 
Q 24.90625 48.390625 20.390625 44.140625 
Q 15.875 39.890625 15.1875 32.171875 
z
" id="DejaVuSans-101"/>
      <path id="DejaVuSans-32"/>
      <path d="M 8.59375 75.984375 
L 29.296875 75.984375 
L 29.296875 69 
L 17.578125 69 
L 17.578125 -6.203125 
L 29.296875 -6.203125 
L 29.296875 -13.1875 
L 8.59375 -13.1875 
z
" id="DejaVuSans-91"/>
      <path d="M 44.28125 53.078125 
L 44.28125 44.578125 
Q 40.484375 46.53125 36.375 47.5 
Q 32.28125 48.484375 27.875 48.484375 
Q 21.1875 48.484375 17.84375 46.4375 
Q 14.5 44.390625 14.5 40.28125 
Q 14.5 37.15625 16.890625 35.375 
Q 19.28125 33.59375 26.515625 31.984375 
L 29.59375 31.296875 
Q 39.15625 29.25 43.1875 25.515625 
Q 47.21875 21.78125 47.21875 15.09375 
Q 47.21875 7.46875 41.1875 3.015625 
Q 35.15625 -1.421875 24.609375 -1.421875 
Q 20.21875 -1.421875 15.453125 -0.5625 
Q 10.6875 0.296875 5.421875 2 
L 5.421875 11.28125 
Q 10.40625 8.6875 15.234375 7.390625 
Q 20.0625 6.109375 24.8125 6.109375 
Q 31.15625 6.109375 34.5625 8.28125 
Q 37.984375 10.453125 37.984375 14.40625 
Q 37.984375 18.0625 35.515625 20.015625 
Q 33.0625 21.96875 24.703125 23.78125 
L 21.578125 24.515625 
Q 13.234375 26.265625 9.515625 29.90625 
Q 5.8125 33.546875 5.8125 39.890625 
Q 5.8125 47.609375 11.28125 51.796875 
Q 16.75 56 26.8125 56 
Q 31.78125 56 36.171875 55.265625 
Q 40.578125 54.546875 44.28125 53.078125 
z
" id="DejaVuSans-115"/>
      <path d="M 30.421875 75.984375 
L 30.421875 -13.1875 
L 9.71875 -13.1875 
L 9.71875 -6.203125 
L 21.390625 -6.203125 
L 21.390625 69 
L 9.71875 69 
L 9.71875 75.984375 
z
" id="DejaVuSans-93"/>
     </defs>
     <g transform="translate(234.038281 412.756563)scale(0.1 -0.1)">
      <use xlink:href="#DejaVuSans-116"/>
      <use x="39.208984" xlink:href="#DejaVuSans-105"/>
      <use x="66.992188" xlink:href="#DejaVuSans-109"/>
      <use x="164.404297" xlink:href="#DejaVuSans-101"/>
      <use x="225.927734" xlink:href="#DejaVuSans-32"/>
      <use x="257.714844" xlink:href="#DejaVuSans-91"/>
      <use x="296.728516" xlink:href="#DejaVuSans-109"/>
      <use x="394.140625" xlink:href="#DejaVuSans-115"/>
      <use x="446.240234" xlink:href="#DejaVuSans-93"/>
     </g>
    </g>
   </g>
   <g id="matplotlib.axis_2">
    <g id="ytick_1">
     <g id="line2d_6">
      <defs>
       <path d="M 0 0 
L -3.5 0 
" id="m7122e616c6" style="stroke:#000000;stroke-width:0.8;"/>
      </defs>
      <g>
       <use style="stroke:#000000;stroke-width:0.8;" x="63" xlink:href="#m7122e616c6" y="350.018338"/>
      </g>
     </g>
     <g id="text_7">
      <!-- −100 -->
      <defs>
       <path d="M 10.59375 35.5 
L 73.1875 35.5 
L 73.1875 27.203125 
L 10.59375 27.203125 
z
" id="DejaVuSans-8722"/>
      </defs>
      <g transform="translate(28.532812 353.817557)scale(0.1 -0.1)">
       <use xlink:href="#DejaVuSans-8722"/>
       <use x="83.789062" xlink:href="#DejaVuSans-49"/>
       <use x="147.412109" xlink:href="#DejaVuSans-48"/>
       <use x="211.035156" xlink:href="#DejaVuSans-48"/>
      </g>
     </g>
    </g>
    <g id="ytick_2">
     <g id="line2d_7">
      <g>
       <use style="stroke:#000000;stroke-width:0.8;" x="63" xlink:href="#m7122e616c6" y="304.48712"/>
      </g>
     </g>
     <g id="text_8">
      <!-- −75 -->
      <g transform="translate(34.895313 308.286338)scale(0.1 -0.1)">
       <use xlink:href="#DejaVuSans-8722"/>
       <use x="83.789062" xlink:href="#DejaVuSans-55"/>
       <use x="147.412109" xlink:href="#DejaVuSans-53"/>
      </g>
     </g>
    </g>
    <g id="ytick_3">
     <g id="line2d_8">
      <g>
       <use style="stroke:#000000;stroke-width:0.8;" x="63" xlink:href="#m7122e616c6" y="258.955901"/>
      </g>
     </g>
     <g id="text_9">
      <!-- −50 -->
      <g transform="translate(34.895313 262.75512)scale(0.1 -0.1)">
       <use xlink:href="#DejaVuSans-8722"/>
       <use x="83.789062" xlink:href="#DejaVuSans-53"/>
       <use x="147.412109" xlink:href="#DejaVuSans-48"/>
      </g>
     </g>
    </g>
    <g id="ytick_4">
     <g id="line2d_9">
      <g>
       <use style="stroke:#000000;stroke-width:0.8;" x="63" xlink:href="#m7122e616c6" y="213.424682"/>
      </g>
     </g>
     <g id="text_10">
      <!-- −25 -->
      <g transform="translate(34.895313 217.223901)scale(0.1 -0.1)">
       <use xlink:href="#DejaVuSans-8722"/>
       <use x="83.789062" xlink:href="#DejaVuSans-50"/>
       <use x="147.412109" xlink:href="#DejaVuSans-53"/>
      </g>
     </g>
    </g>
    <g id="ytick_5">
     <g id="line2d_10">
      <g>
       <use style="stroke:#000000;stroke-width:0.8;" x="63" xlink:href="#m7122e616c6" y="167.893463"/>
      </g>
     </g>
     <g id="text_11">
      <!-- 0 -->
      <g transform="translate(49.6375 171.692682)scale(0.1 -0.1)">
       <use xlink:href="#DejaVuSans-48"/>
      </g>
     </g>
    </g>
    <g id="ytick_6">
     <g id="line2d_11">
      <g>
       <use style="stroke:#000000;stroke-width:0.8;" x="63" xlink:href="#m7122e616c6" y="122.362245"/>
      </g>
     </g>
     <g id="text_12">
      <!-- 25 -->
      <g transform="translate(43.275 126.161463)scale(0.1 -0.1)">
       <use xlink:href="#DejaVuSans-50"/>
       <use x="63.623047" xlink:href="#DejaVuSans-53"/>
      </g>
     </g>
    </g>
    <g id="ytick_7">
     <g id="line2d_12">
      <g>
       <use style="stroke:#000000;stroke-width:0.8;" x="63" xlink:href="#m7122e616c6" y="76.831026"/>
      </g>
     </g>
     <g id="text_13">
      <!-- 50 -->
      <g transform="translate(43.275 80.630245)scale(0.1 -0.1)">
       <use xlink:href="#DejaVuSans-53"/>
       <use x="63.623047" xlink:href="#DejaVuSans-48"/>
      </g>
     </g>
    </g>
    <g id="text_14">
     <!-- voltage [mV] -->
     <defs>
      <path d="M 2.984375 54.6875 
L 12.5 54.6875 
L 29.59375 8.796875 
L 46.6875 54.6875 
L 56.203125 54.6875 
L 35.6875 0 
L 23.484375 0 
z
" id="DejaVuSans-118"/>
      <path d="M 30.609375 48.390625 
Q 23.390625 48.390625 19.1875 42.75 
Q 14.984375 37.109375 14.984375 27.296875 
Q 14.984375 17.484375 19.15625 11.84375 
Q 23.34375 6.203125 30.609375 6.203125 
Q 37.796875 6.203125 41.984375 11.859375 
Q 46.1875 17.53125 46.1875 27.296875 
Q 46.1875 37.015625 41.984375 42.703125 
Q 37.796875 48.390625 30.609375 48.390625 
z
M 30.609375 56 
Q 42.328125 56 49.015625 48.375 
Q 55.71875 40.765625 55.71875 27.296875 
Q 55.71875 13.875 49.015625 6.21875 
Q 42.328125 -1.421875 30.609375 -1.421875 
Q 18.84375 -1.421875 12.171875 6.21875 
Q 5.515625 13.875 5.515625 27.296875 
Q 5.515625 40.765625 12.171875 48.375 
Q 18.84375 56 30.609375 56 
z
" id="DejaVuSans-111"/>
      <path d="M 9.421875 75.984375 
L 18.40625 75.984375 
L 18.40625 0 
L 9.421875 0 
z
" id="DejaVuSans-108"/>
      <path d="M 34.28125 27.484375 
Q 23.390625 27.484375 19.1875 25 
Q 14.984375 22.515625 14.984375 16.5 
Q 14.984375 11.71875 18.140625 8.90625 
Q 21.296875 6.109375 26.703125 6.109375 
Q 34.1875 6.109375 38.703125 11.40625 
Q 43.21875 16.703125 43.21875 25.484375 
L 43.21875 27.484375 
z
M 52.203125 31.203125 
L 52.203125 0 
L 43.21875 0 
L 43.21875 8.296875 
Q 40.140625 3.328125 35.546875 0.953125 
Q 30.953125 -1.421875 24.3125 -1.421875 
Q 15.921875 -1.421875 10.953125 3.296875 
Q 6 8.015625 6 15.921875 
Q 6 25.140625 12.171875 29.828125 
Q 18.359375 34.515625 30.609375 34.515625 
L 43.21875 34.515625 
L 43.21875 35.40625 
Q 43.21875 41.609375 39.140625 45 
Q 35.0625 48.390625 27.6875 48.390625 
Q 23 48.390625 18.546875 47.265625 
Q 14.109375 46.140625 10.015625 43.890625 
L 10.015625 52.203125 
Q 14.9375 54.109375 19.578125 55.046875 
Q 24.21875 56 28.609375 56 
Q 40.484375 56 46.34375 49.84375 
Q 52.203125 43.703125 52.203125 31.203125 
z
" id="DejaVuSans-97"/>
      <path d="M 45.40625 27.984375 
Q 45.40625 37.75 41.375 43.109375 
Q 37.359375 48.484375 30.078125 48.484375 
Q 22.859375 48.484375 18.828125 43.109375 
Q 14.796875 37.75 14.796875 27.984375 
Q 14.796875 18.265625 18.828125 12.890625 
Q 22.859375 7.515625 30.078125 7.515625 
Q 37.359375 7.515625 41.375 12.890625 
Q 45.40625 18.265625 45.40625 27.984375 
z
M 54.390625 6.78125 
Q 54.390625 -7.171875 48.1875 -13.984375 
Q 42 -20.796875 29.203125 -20.796875 
Q 24.46875 -20.796875 20.265625 -20.09375 
Q 16.0625 -19.390625 12.109375 -17.921875 
L 12.109375 -9.1875 
Q 16.0625 -11.328125 19.921875 -12.34375 
Q 23.78125 -13.375 27.78125 -13.375 
Q 36.625 -13.375 41.015625 -8.765625 
Q 45.40625 -4.15625 45.40625 5.171875 
L 45.40625 9.625 
Q 42.625 4.78125 38.28125 2.390625 
Q 33.9375 0 27.875 0 
Q 17.828125 0 11.671875 7.65625 
Q 5.515625 15.328125 5.515625 27.984375 
Q 5.515625 40.671875 11.671875 48.328125 
Q 17.828125 56 27.875 56 
Q 33.9375 56 38.28125 53.609375 
Q 42.625 51.21875 45.40625 46.390625 
L 45.40625 54.6875 
L 54.390625 54.6875 
z
" id="DejaVuSans-103"/>
      <path d="M 28.609375 0 
L 0.78125 72.90625 
L 11.078125 72.90625 
L 34.1875 11.53125 
L 57.328125 72.90625 
L 67.578125 72.90625 
L 39.796875 0 
z
" id="DejaVuSans-86"/>
     </defs>
     <g transform="translate(22.453125 250.624062)rotate(-90)scale(0.1 -0.1)">
      <use xlink:href="#DejaVuSans-118"/>
      <use x="59.179688" xlink:href="#DejaVuSans-111"/>
      <use x="120.361328" xlink:href="#DejaVuSans-108"/>
      <use x="148.144531" xlink:href="#DejaVuSans-116"/>
      <use x="187.353516" xlink:href="#DejaVuSans-97"/>
      <use x="248.632812" xlink:href="#DejaVuSans-103"/>
      <use x="312.109375" xlink:href="#DejaVuSans-101"/>
      <use x="373.632812" xlink:href="#DejaVuSans-32"/>
      <use x="405.419922" xlink:href="#DejaVuSans-91"/>
      <use x="444.433594" xlink:href="#DejaVuSans-109"/>
      <use x="541.845703" xlink:href="#DejaVuSans-86"/>
      <use x="610.253906" xlink:href="#DejaVuSans-93"/>
     </g>
    </g>
   </g>
   <g id="line2d_13">
    <path clip-path="url(#p7043a5234e)" d="M 80.754545 274.429401 
L 83.385088 274.340473 
L 83.417364 274.251545 
L 83.465779 274.429401 
L 83.481917 274.340473 
L 83.966066 274.251545 
L 84.062896 274.162616 
L 84.175864 274.251545 
L 84.547045 274.340473 
L 84.660013 274.429401 
L 84.96664 274.340473 
L 85.079609 274.251545 
L 85.337821 274.340473 
L 85.35396 274.429401 
L 85.402374 274.251545 
L 85.418513 274.251545 
L 86.322257 274.340473 
L 86.435225 274.429401 
L 87.419661 274.518329 
L 87.532629 274.607257 
L 87.581044 274.518329 
L 87.629459 274.607257 
L 88.694587 274.696185 
L 88.807555 274.785114 
L 88.85597 274.696185 
L 89.049629 264.558375 
L 89.501501 255.043062 
L 90.356831 242.682047 
L 91.196022 234.589585 
L 91.454235 232.633165 
L 91.777001 230.232105 
L 92.503224 226.763906 
L 92.535501 226.674978 
L 92.713022 226.230337 
L 92.745299 226.141409 
L 92.971235 225.429984 
L 93.01965 225.341056 
L 93.213309 224.807487 
L 93.358554 224.718559 
L 93.536075 224.273918 
L 93.600628 224.18499 
L 93.762011 223.829277 
L 93.858841 223.740349 
L 94.004086 223.473564 
L 94.213884 223.384636 
L 94.359128 223.117852 
L 95.133766 223.028924 
L 95.182181 222.939995 
L 95.230596 223.028924 
L 95.843851 222.939995 
L 95.989096 222.584283 
L 96.053649 222.673211 
L 96.085926 222.584283 
L 96.392553 222.495355 
L 96.505522 222.406426 
L 96.796011 222.495355 
L 97.005809 223.117852 
L 97.070362 223.20678 
L 97.215607 223.473564 
L 97.393128 223.384636 
L 97.425404 223.295708 
L 97.489958 223.384636 
L 97.845 223.295708 
L 97.974106 223.117852 
L 98.264596 223.20678 
L 98.296872 223.295708 
L 98.345287 223.20678 
L 98.458255 223.117852 
L 98.50667 223.20678 
L 98.538947 223.295708 
L 98.571223 223.117852 
L 98.6035 223.20678 
L 99.119925 223.117852 
L 99.249032 222.939995 
L 99.959117 222.851067 
L 100.055947 222.762139 
L 100.572372 225.074271 
L 100.620787 225.163199 
L 100.733755 225.341056 
L 100.862861 225.163199 
L 101.024244 225.074271 
L 101.153351 224.896415 
L 101.298595 224.807487 
L 101.44384 224.540702 
L 101.556808 224.451774 
L 101.685914 224.273918 
L 101.831159 224.18499 
L 101.847297 224.096062 
L 101.927989 224.18499 
L 102.10551 224.096062 
L 102.266893 223.740349 
L 102.363723 223.651421 
L 102.492829 223.473564 
L 102.993116 223.384636 
L 103.057669 223.117852 
L 103.106084 223.20678 
L 103.251329 223.473564 
L 103.380435 223.295708 
L 103.687063 223.20678 
L 103.783893 223.117852 
L 103.880722 223.20678 
L 103.993691 223.117852 
L 104.09052 223.028924 
L 104.18735 222.939995 
L 104.300318 223.028924 
L 104.38101 222.939995 
L 104.526254 222.584283 
L 104.574669 222.673211 
L 104.623084 222.584283 
L 104.897435 222.495355 
L 105.010403 222.406426 
L 105.236339 222.495355 
L 105.317031 222.584283 
L 105.333169 222.495355 
L 106.107807 222.406426 
L 106.123945 222.317498 
L 106.17236 222.495355 
L 106.204637 222.406426 
L 106.882445 222.495355 
L 106.995413 222.584283 
L 107.705498 222.495355 
L 107.737775 222.406426 
L 107.78619 222.584283 
L 108.383307 222.495355 
L 108.512413 222.317498 
L 108.576966 222.22857 
L 108.689934 222.139642 
L 109.254775 222.050714 
L 109.335466 221.961786 
L 109.351605 222.050714 
L 109.690509 221.961786 
L 109.819615 221.783929 
L 109.916445 221.872857 
L 110.013275 221.783929 
L 110.126243 221.872857 
L 110.5297 221.961786 
L 110.610392 222.050714 
L 110.62653 221.961786 
L 111.368891 222.050714 
L 111.497998 222.22857 
L 111.836902 222.317498 
L 111.85304 222.406426 
L 111.933732 222.317498 
L 112.256498 222.406426 
L 112.321051 222.317498 
L 112.369466 222.495355 
L 112.821338 222.584283 
L 112.837476 222.673211 
L 112.869753 222.495355 
L 112.902029 222.495355 
L 113.144104 222.584283 
L 113.289349 222.851067 
L 113.37004 222.939995 
L 113.499146 223.117852 
L 113.595976 223.20678 
L 113.644391 223.295708 
L 113.692806 223.20678 
L 113.789636 223.117852 
L 113.870327 223.028924 
L 113.886465 223.117852 
L 114.160817 223.20678 
L 114.257646 223.295708 
L 114.386753 223.028924 
L 114.419029 223.117852 
L 114.483582 223.028924 
L 114.580412 222.851067 
L 114.59655 222.939995 
L 114.806348 222.851067 
L 114.919316 222.762139 
L 115.35505 222.673211 
L 115.468018 222.584283 
L 115.758508 222.495355 
L 115.887614 222.317498 
L 116.161965 222.22857 
L 116.258795 222.050714 
L 116.274933 222.139642 
L 116.355625 222.050714 
L 116.468593 221.961786 
L 116.533146 221.872857 
L 116.662252 221.695001 
L 117.017295 221.783929 
L 117.033433 221.872857 
L 117.114125 221.783929 
L 117.259369 221.872857 
L 117.43689 222.317498 
L 117.469167 222.406426 
L 117.662827 222.939995 
L 117.711241 223.028924 
L 117.791933 223.20678 
L 117.82421 223.117852 
L 117.921039 223.20678 
L 118.034007 223.295708 
L 118.647263 223.20678 
L 118.760231 223.117852 
L 119.05072 223.028924 
L 119.131411 222.939995 
L 119.14755 223.028924 
L 119.518731 222.939995 
L 119.647837 222.762139 
L 119.80922 222.673211 
L 119.922188 222.584283 
L 120.099709 222.495355 
L 120.244954 222.22857 
L 120.438613 222.139642 
L 120.551581 222.050714 
L 120.664549 221.961786 
L 120.696826 221.872857 
L 120.745241 222.050714 
L 121.116422 222.139642 
L 121.22939 222.22857 
L 121.600571 222.139642 
L 121.729677 221.961786 
L 121.810368 221.872857 
L 121.939475 221.695001 
L 122.116996 221.606073 
L 122.213826 221.517145 
L 122.342932 221.695001 
L 122.778666 221.606073 
L 122.810943 221.517145 
L 122.875496 221.606073 
L 122.923911 221.695001 
L 122.972326 221.606073 
L 123.133709 221.695001 
L 123.262815 221.872857 
L 123.553304 221.961786 
L 123.682411 222.139642 
L 123.827655 221.872857 
L 123.924485 221.961786 
L 123.940623 222.050714 
L 124.005177 221.872857 
L 124.360219 221.783929 
L 124.473187 221.695001 
L 124.682985 221.783929 
L 124.812091 221.961786 
L 125.215549 222.050714 
L 125.328517 222.22857 
L 125.360793 222.317498 
L 125.441485 222.139642 
L 125.764251 222.050714 
L 125.780389 221.961786 
L 125.861081 222.050714 
L 126.038602 221.961786 
L 126.15157 221.872857 
L 126.329091 221.783929 
L 126.425921 221.695001 
L 126.538889 221.783929 
L 127.136006 221.695001 
L 127.152144 221.606073 
L 127.232836 221.695001 
L 127.248974 221.783929 
L 127.297389 221.606073 
L 127.313527 221.606073 
L 127.394219 221.695001 
L 127.442633 221.872857 
L 127.507187 221.783929 
L 127.523325 221.695001 
L 127.604016 221.783929 
L 127.975197 221.695001 
L 128.104304 221.517145 
L 128.217272 221.428217 
L 128.33024 221.339289 
L 128.410931 221.25036 
L 128.523899 221.161432 
L 129.08874 221.072504 
L 129.137154 220.983576 
L 129.185569 221.072504 
L 129.605165 221.161432 
L 129.718133 221.25036 
L 129.831101 221.161432 
L 130.008622 220.716791 
L 130.137729 220.627863 
L 130.266835 220.450007 
L 130.525048 220.361079 
L 130.541186 220.272151 
L 130.589601 220.450007 
L 130.621878 220.361079 
L 130.670292 220.450007 
L 130.718707 220.361079 
L 131.07375 220.272151 
L 131.138303 220.183222 
L 131.17058 220.272151 
L 131.202856 220.183222 
L 131.315824 220.094294 
L 132.477782 220.183222 
L 132.59075 220.272151 
L 132.768271 220.183222 
L 132.816686 220.094294 
L 132.865101 220.183222 
L 133.268558 220.272151 
L 133.381526 220.361079 
L 133.413803 220.361079 
L 133.559047 220.80572 
L 133.591324 220.716791 
L 133.607462 220.894648 
L 133.623601 220.894648 
L 133.736569 220.983576 
L 133.784983 221.072504 
L 133.930228 221.339289 
L 133.978643 221.428217 
L 134.156164 221.872857 
L 134.269132 221.783929 
L 134.430515 221.872857 
L 134.559622 222.050714 
L 134.624175 221.961786 
L 134.656451 222.050714 
L 134.817834 221.961786 
L 134.930802 221.872857 
L 135.301983 221.783929 
L 135.414951 221.517145 
L 135.43109 221.606073 
L 135.818409 221.517145 
L 135.834547 221.428217 
L 135.866824 221.606073 
L 135.915238 221.517145 
L 136.044345 221.428217 
L 136.060483 221.339289 
L 136.141175 221.428217 
L 136.883536 221.339289 
L 137.028781 221.072504 
L 137.157887 220.983576 
L 137.206302 220.80572 
L 137.254717 220.983576 
L 137.367685 220.894648 
L 137.432238 220.716791 
L 137.464515 220.894648 
L 137.690451 220.80572 
L 137.819557 220.627863 
L 137.916387 220.716791 
L 138.013217 220.80572 
L 138.158461 220.538935 
L 138.707163 220.450007 
L 138.820132 220.361079 
L 139.126759 220.450007 
L 139.239727 220.538935 
L 139.772291 220.450007 
L 139.901397 220.272151 
L 139.998227 220.361079 
L 140.095057 220.272151 
L 140.111195 220.361079 
L 140.191887 220.272151 
L 140.756727 220.183222 
L 140.885833 220.005366 
L 140.966525 219.916438 
L 141.095631 219.738582 
L 141.321567 220.450007 
L 141.402259 220.538935 
L 141.531365 220.716791 
L 141.902546 220.627863 
L 142.015514 220.538935 
L 142.14462 220.450007 
L 142.257588 220.361079 
L 142.80629 220.272151 
L 142.935397 220.094294 
L 144.339429 220.183222 
L 144.468535 220.538935 
L 144.484673 220.450007 
L 144.581503 220.361079 
L 144.726748 220.627863 
L 145.049513 220.716791 
L 145.08179 220.80572 
L 145.146343 220.716791 
L 145.340003 220.627863 
L 145.469109 220.450007 
L 145.64663 220.361079 
L 145.759598 220.272151 
L 146.308301 220.183222 
L 146.388992 220.005366 
L 146.421269 220.094294 
L 147.244322 220.183222 
L 147.26046 220.272151 
L 147.341151 220.183222 
L 147.550949 220.094294 
L 147.663917 220.005366 
L 148.180343 220.094294 
L 148.309449 220.272151 
L 148.374002 220.183222 
L 148.48697 220.094294 
L 148.874289 220.005366 
L 148.890428 219.916438 
L 148.971119 220.005366 
L 149.100226 220.094294 
L 149.116364 220.183222 
L 149.164779 220.005366 
L 149.197055 220.094294 
L 149.293885 220.005366 
L 149.406853 219.916438 
L 149.697343 220.005366 
L 149.810311 220.094294 
L 149.971694 220.094294 
L 150.00397 219.916438 
L 150.084662 220.005366 
L 150.407427 220.094294 
L 150.601087 220.627863 
L 150.746332 220.361079 
L 151.085236 220.450007 
L 151.149789 220.538935 
L 151.182066 220.450007 
L 151.359587 220.361079 
L 151.375725 220.272151 
L 151.456417 220.361079 
L 151.811459 220.272151 
L 151.843736 220.183222 
L 151.908289 220.272151 
L 152.424714 220.183222 
L 152.553821 220.005366 
L 152.650651 219.916438 
L 152.715204 219.82751 
L 152.74748 219.916438 
L 152.763619 220.005366 
L 152.812033 219.82751 
L 152.828172 219.82751 
L 153.40915 219.82751 
L 153.60281 229.96532 
L 154.054682 239.391705 
L 154.425863 245.172036 
L 154.861597 250.685582 
L 154.974565 251.841648 
L 155.68465 258.51126 
L 155.894448 260.200895 
L 156.265629 263.135524 
L 156.281767 263.135524 
L 156.556118 265.003016 
L 158.62182 275.852252 
L 158.670235 275.94118 
L 158.993001 277.186174 
L 159.057554 277.275102 
L 159.299628 278.075456 
L 159.331905 278.164384 
L 159.557841 278.875809 
L 159.622394 278.964737 
L 159.832192 279.587234 
L 159.896745 279.676162 
L 160.090405 280.209731 
L 160.122681 280.29866 
L 160.300202 280.7433 
L 160.348617 280.832229 
L 160.493862 281.099013 
L 160.526139 281.187941 
L 160.70366 281.632582 
L 160.768213 281.72151 
L 160.929596 282.077223 
L 161.042564 282.166151 
L 161.187809 282.432935 
L 161.413745 282.521864 
L 161.558989 282.788648 
L 161.639681 282.877576 
L 161.768787 283.055433 
L 161.897894 283.144361 
L 162.027 283.322217 
L 162.091553 283.411145 
L 162.22066 283.589002 
L 162.285213 283.67793 
L 162.317489 283.766858 
L 162.382043 283.67793 
L 162.462734 283.766858 
L 162.59184 283.944714 
L 162.995298 284.033642 
L 163.108266 284.122571 
L 163.318064 284.211499 
L 163.431032 284.389355 
L 163.463308 284.300427 
L 163.527861 284.389355 
L 163.64083 284.478283 
L 163.931319 284.567211 
L 164.044287 284.65614 
L 164.544574 284.567211 
L 164.625266 284.478283 
L 164.641404 284.567211 
L 165.997021 284.478283 
L 166.126127 284.300427 
L 166.206818 284.389355 
L 166.222957 284.300427 
L 166.432755 284.211499 
L 166.561861 284.033642 
L 166.900765 283.944714 
L 167.013733 283.855786 
L 167.304223 283.766858 
L 167.449467 283.500073 
L 167.659265 283.411145 
L 167.772233 283.322217 
L 168.014308 283.233289 
L 168.159552 282.966504 
L 168.450042 282.877576 
L 168.56301 282.788648 
L 168.579148 282.877576 
L 168.627563 282.69972 
L 168.643701 282.788648 
L 168.756669 282.69972 
L 168.837361 282.610792 
L 168.853499 282.521864 
L 168.885775 282.69972 
L 168.93419 282.610792 
L 169.12785 282.521864 
L 169.256956 282.344007 
L 169.418339 282.255079 
L 169.499031 282.166151 
L 169.611999 275.229754 
L 169.708829 275.318683 
L 169.724967 275.407611 
L 169.805658 275.318683 
L 170.951477 275.407611 
L 170.967616 275.496539 
L 171.048307 275.407611 
L 171.790669 275.496539 
L 171.822945 275.585467 
L 171.887498 275.496539 
L 171.952052 275.407611 
L 172.048881 275.318683 
L 172.161849 275.407611 
L 172.387786 275.318683 
L 172.500754 275.229754 
L 173.162424 275.140826 
L 173.29153 274.96297 
L 174.518041 275.051898 
L 174.582594 275.140826 
L 174.61487 275.051898 
L 175.018328 275.140826 
L 175.147434 275.318683 
L 175.260402 275.229754 
L 175.389508 275.318683 
L 175.405647 275.407611 
L 175.486338 275.318683 
L 175.615445 275.407611 
L 175.712274 275.496539 
L 175.825242 275.407611 
L 175.93821 275.496539 
L 176.164147 275.585467 
L 176.277115 275.674395 
L 176.390083 275.585467 
L 176.664434 275.496539 
L 176.777402 275.407611 
L 176.938785 275.318683 
L 176.971061 275.229754 
L 177.019476 275.407611 
L 177.035615 275.318683 
L 177.616593 275.318683 
L 177.810253 262.068387 
L 178.391231 246.505958 
L 179.149731 232.188524 
L 179.82754 222.762139 
L 180.39238 217.693234 
L 180.860391 215.647886 
L 180.876529 215.647886 
L 181.021773 215.203245 
L 181.183156 214.847533 
L 181.312263 214.758605 
L 181.473646 214.402892 
L 181.505922 214.313964 
L 181.699582 213.780395 
L 181.764135 213.691467 
L 181.893241 213.51361 
L 182.328975 213.424682 
L 182.47422 213.157898 
L 182.506497 213.068969 
L 182.635603 212.891113 
L 182.716294 212.802185 
L 182.877677 212.446472 
L 182.926092 212.5354 
L 182.974507 212.624329 
L 183.022922 212.5354 
L 183.103614 212.446472 
L 183.23272 212.268616 
L 183.281135 212.179688 
L 183.442518 211.823975 
L 183.474794 211.735047 
L 183.668454 211.201478 
L 183.70073 211.11255 
L 183.845975 210.845765 
L 183.89439 210.756837 
L 184.168741 209.778627 
L 184.313986 209.689699 
L 184.523784 209.067202 
L 184.814273 208.978274 
L 184.927241 208.444705 
L 184.975656 208.622561 
L 185.072486 208.533633 
L 185.250007 207.911136 
L 185.266145 208.000064 
L 185.346837 207.911136 
L 185.492081 207.644352 
L 185.524358 207.555423 
L 186.411964 202.219734 
L 186.428102 201.686165 
L 186.444241 196.172619 
L 186.492656 75.319247 
L 186.573347 138.54717 
L 186.73473 210.401125 
L 186.944528 212.713257 
L 188.05807 223.918205 
L 188.074208 223.918205 
L 188.25173 224.718559 
L 188.461528 225.341056 
L 188.526081 225.429984 
L 188.71974 225.963553 
L 188.768155 226.052481 
L 188.929538 226.408194 
L 189.026368 226.319266 
L 189.155474 226.497122 
L 189.720315 226.408194 
L 189.849421 226.230337 
L 190.091495 226.141409 
L 190.220602 225.963553 
L 190.285155 225.874625 
L 190.414261 225.696768 
L 190.4304 225.785697 
L 190.494953 225.60784 
L 190.591783 225.518912 
L 190.704751 225.429984 
L 190.89841 225.341056 
L 191.011378 225.252128 
L 191.140485 225.163199 
L 191.285729 224.896415 
L 191.46325 224.807487 
L 191.624633 224.451774 
L 192.205612 224.362846 
L 192.334718 224.18499 
L 192.41541 224.096062 
L 192.544516 223.740349 
L 192.560655 223.829277 
L 192.609069 223.740349 
L 192.625208 223.651421 
L 192.705899 223.740349 
L 192.835006 223.651421 
L 192.899559 223.562493 
L 192.931835 223.651421 
L 193.238463 223.562493 
L 193.367569 223.384636 
L 193.512814 223.295708 
L 193.64192 223.117852 
L 193.916271 223.028924 
L 194.061516 222.762139 
L 194.448835 222.673211 
L 194.577941 222.495355 
L 194.723186 222.406426 
L 194.884569 222.050714 
L 194.981399 221.961786 
L 195.110505 221.783929 
L 195.271888 221.695001 
L 195.35258 221.517145 
L 195.384856 221.606073 
L 195.465548 221.517145 
L 195.594654 221.339289 
L 195.885143 221.25036 
L 195.998111 221.161432 
L 196.094941 221.072504 
L 196.256324 220.716791 
L 196.353154 220.80572 
L 196.449984 220.716791 
L 196.546813 220.80572 
L 196.67592 220.627863 
L 197.14393 220.538935 
L 197.160069 220.450007 
L 197.224622 220.627863 
L 197.402143 220.716791 
L 197.579664 221.25036 
L 197.628079 221.161432 
L 197.660356 221.339289 
L 197.724909 221.428217 
L 197.821739 221.606073 
L 197.837877 221.517145 
L 197.950845 221.606073 
L 198.09609 221.872857 
L 198.467271 221.783929 
L 198.483409 221.695001 
L 198.5641 221.783929 
L 198.644792 221.695001 
L 198.790036 221.428217 
L 198.935281 221.339289 
L 199.080526 221.072504 
L 199.193494 220.983576 
L 199.354877 220.627863 
L 199.41943 220.538935 
L 199.548536 220.361079 
L 199.661504 220.450007 
L 199.790611 220.361079 
L 199.919717 220.183222 
L 199.98427 220.094294 
L 200.048824 219.916438 
L 200.097238 220.005366 
L 200.516834 219.916438 
L 200.662079 219.560725 
L 200.710494 219.649653 
L 200.758908 219.560725 
L 200.871877 219.471797 
L 201.000983 219.293941 
L 201.065536 219.205013 
L 201.210781 218.938228 
L 201.372164 218.8493 
L 201.485132 218.760372 
L 201.646515 218.671444 
L 201.775621 218.493587 
L 202.130664 218.404659 
L 202.195217 218.315731 
L 202.227493 218.404659 
L 202.3566 218.315731 
L 202.485706 218.137875 
L 202.550259 218.048947 
L 202.711642 217.693234 
L 202.969855 217.604306 
L 203.098961 217.426449 
L 203.728355 217.515378 
L 203.792908 217.693234 
L 203.841323 217.604306 
L 204.083397 217.693234 
L 204.14795 217.782162 
L 204.180227 217.693234 
L 204.632099 217.604306 
L 204.728929 217.426449 
L 204.745067 217.515378 
L 204.809621 217.426449 
L 204.938727 217.248593 
L 205.019418 217.337521 
L 205.116248 217.426449 
L 205.164663 217.337521 
L 205.19694 217.515378 
L 205.213078 217.426449 
L 205.261493 217.515378 
L 205.358323 217.693234 
L 205.374461 217.604306 
L 206.052269 217.693234 
L 206.197514 217.960018 
L 206.455727 218.048947 
L 206.584833 218.226803 
L 206.665525 218.315731 
L 206.810769 218.582515 
L 207.343333 218.493587 
L 207.359471 218.404659 
L 207.440163 218.493587 
L 207.666099 218.582515 
L 207.682237 218.671444 
L 207.762929 218.582515 
L 208.021141 218.493587 
L 208.150248 218.315731 
L 208.198663 218.226803 
L 208.360046 217.87109 
L 208.473014 217.782162 
L 208.585982 217.693234 
L 208.924886 217.604306 
L 209.053992 217.426449 
L 209.215375 217.337521 
L 209.344482 217.159665 
L 209.538141 217.070737 
L 209.683386 216.803952 
L 209.715662 216.715024 
L 209.844769 216.537168 
L 210.054567 216.44824 
L 210.11912 216.359311 
L 210.151396 216.44824 
L 210.264364 216.537168 
L 210.393471 216.715024 
L 211.055141 216.626096 
L 211.200385 216.359311 
L 211.329492 216.270383 
L 211.458598 216.092527 
L 211.652258 216.003599 
L 211.749088 215.914671 
L 211.781364 216.003599 
L 211.829779 215.825742 
L 211.845917 215.914671 
L 211.991162 215.647886 
L 212.168683 215.736814 
L 212.313928 216.003599 
L 212.410758 215.914671 
L 212.475311 215.736814 
L 212.507587 215.825742 
L 212.556002 215.914671 
L 212.588279 215.825742 
L 212.636694 215.736814 
L 212.685109 215.825742 
L 212.846492 216.181455 
L 213.185396 216.092527 
L 213.217672 216.003599 
L 213.266087 216.181455 
L 213.556577 216.092527 
L 213.653406 216.003599 
L 213.750236 216.092527 
L 213.927757 215.647886 
L 214.024587 215.558958 
L 214.073002 215.381102 
L 214.137555 215.47003 
L 214.2828 215.381102 
L 214.395768 215.292174 
L 214.589427 215.203245 
L 214.718534 215.025389 
L 214.84764 215.114317 
L 214.879917 215.203245 
L 214.928332 215.025389 
L 215.202683 214.936461 
L 215.315651 214.847533 
L 215.493172 214.936461 
L 215.557725 215.025389 
L 215.590002 214.936461 
L 215.751385 215.025389 
L 215.767523 215.114317 
L 215.848214 215.025389 
L 215.945044 214.936461 
L 216.122566 214.49182 
L 216.187119 214.402892 
L 216.300087 214.136107 
L 216.316225 214.225036 
L 216.46147 214.136107 
L 216.606714 213.869323 
L 216.622853 213.958251 
L 216.703544 213.869323 
L 216.92948 213.780395 
L 216.977895 213.691467 
L 217.02631 213.780395 
L 217.042448 213.869323 
L 217.12314 213.780395 
L 217.704118 213.869323 
L 217.817087 213.958251 
L 218.204406 213.958251 
L 218.34965 214.402892 
L 218.656278 214.313964 
L 218.769246 214.225036 
L 218.962905 214.313964 
L 219.027459 214.225036 
L 219.075874 214.402892 
L 219.140427 214.313964 
L 219.172703 214.402892 
L 219.511608 214.49182 
L 219.640714 214.669676 
L 219.915065 214.758605 
L 220.124863 215.381102 
L 220.205554 215.47003 
L 220.350799 215.736814 
L 220.479905 215.558958 
L 221.125437 215.47003 
L 221.141575 215.381102 
L 221.222267 215.47003 
L 221.270682 215.381102 
L 221.415926 215.114317 
L 221.722554 215.025389 
L 221.85166 214.847533 
L 221.900075 214.847533 
L 222.029182 214.49182 
L 222.077596 214.402892 
L 222.158288 214.136107 
L 222.206703 214.225036 
L 222.739267 214.136107 
L 222.868373 213.958251 
L 222.916788 213.869323 
L 223.045894 213.691467 
L 223.142724 213.602538 
L 223.287969 213.335754 
L 223.384798 213.246826 
L 223.513905 213.068969 
L 223.626873 212.980041 
L 223.836671 212.357544 
L 223.981915 212.268616 
L 224.046468 212.09076 
L 224.094883 212.179688 
L 224.256266 212.5354 
L 224.320819 212.446472 
L 224.385373 212.357544 
L 224.417649 212.446472 
L 224.498341 212.5354 
L 224.514479 212.624329 
L 224.579032 212.5354 
L 224.59517 212.446472 
L 224.643585 212.624329 
L 224.659724 212.624329 
L 224.740415 212.713257 
L 224.869522 212.891113 
L 225.127734 212.802185 
L 225.240702 212.713257 
L 225.289117 212.802185 
L 225.305255 212.891113 
L 225.35367 212.713257 
L 225.369809 212.713257 
L 225.54733 212.802185 
L 225.676436 212.980041 
L 225.740989 212.891113 
L 225.853958 212.802185 
L 226.031479 212.713257 
L 226.289691 211.823975 
L 226.660872 211.735047 
L 226.806117 211.468263 
L 227.06433 211.557191 
L 227.096606 211.646119 
L 227.145021 211.557191 
L 227.257989 211.379334 
L 227.370957 211.557191 
L 227.548479 211.11255 
L 227.661447 211.023622 
L 227.677585 210.934694 
L 227.758276 211.023622 
L 227.855106 211.201478 
L 227.871244 211.11255 
L 228.048766 211.023622 
L 228.097181 210.934694 
L 228.145595 211.023622 
L 228.419946 210.934694 
L 228.532915 210.845765 
L 228.565191 210.756837 
L 228.694297 210.578981 
L 228.823404 210.490053 
L 228.871819 210.312196 
L 228.920234 210.401125 
L 229.000925 210.490053 
L 229.017063 210.401125 
L 229.097755 210.312196 
L 229.243 210.045412 
L 229.307553 209.956484 
L 229.452797 209.689699 
L 229.630319 209.778627 
L 229.646457 209.867556 
L 229.71101 209.689699 
L 230.082191 209.600771 
L 230.098329 209.511843 
L 230.162882 209.689699 
L 230.905244 209.600771 
L 231.179595 208.622561 
L 231.22801 208.533633 
L 231.389393 208.177921 
L 231.437808 208.088992 
L 231.921957 205.954717 
L 232.002648 205.865788 
L 232.115616 204.887579 
L 232.164031 203.731513 
L 232.180169 200.441171 
L 232.244722 74.341037 
L 232.309276 133.389337 
L 232.470659 209.422915 
L 232.535212 210.13434 
L 232.599765 209.956484 
L 232.74501 209.689699 
L 233.035499 211.823975 
L 233.551924 216.44824 
L 233.584201 216.537168 
L 233.826275 218.048947 
L 234.504084 221.25036 
L 234.584775 221.339289 
L 234.762296 221.783929 
L 234.82685 221.872857 
L 234.988233 222.22857 
L 235.020509 222.317498 
L 235.181892 222.673211 
L 235.19803 222.584283 
L 235.230307 222.762139 
L 235.262584 222.762139 
L 235.359413 222.851067 
L 235.504658 223.117852 
L 235.601488 223.20678 
L 235.730594 223.384636 
L 235.908115 223.473564 
L 236.021083 223.562493 
L 236.117913 223.651421 
L 236.263158 223.918205 
L 236.279296 223.829277 
L 236.343849 223.918205 
L 236.505232 224.273918 
L 236.876413 224.18499 
L 237.005519 224.007133 
L 237.070073 224.18499 
L 237.118488 224.096062 
L 237.231456 224.007133 
L 237.392839 223.918205 
L 237.521945 223.740349 
L 237.683328 223.651421 
L 237.844711 223.295708 
L 237.957679 223.20678 
L 238.070647 223.117852 
L 238.167477 223.028924 
L 238.296583 222.851067 
L 238.474104 222.762139 
L 238.554796 222.584283 
L 238.587072 222.673211 
L 238.667764 222.584283 
L 238.780732 222.495355 
L 238.845285 222.406426 
L 238.942115 222.317498 
L 238.958253 222.406426 
L 239.022806 222.22857 
L 239.151913 222.139642 
L 239.297157 221.872857 
L 239.361711 221.783929 
L 239.490817 221.606073 
L 239.732891 221.517145 
L 239.845859 221.428217 
L 240.152487 221.339289 
L 240.265455 221.25036 
L 240.572083 221.161432 
L 240.685051 221.072504 
L 240.959402 220.983576 
L 241.088508 220.80572 
L 241.459689 220.716791 
L 241.588795 220.538935 
L 241.717902 220.450007 
L 241.847008 220.272151 
L 241.895423 220.183222 
L 242.008391 220.094294 
L 242.169774 220.183222 
L 242.363433 233.166734 
L 242.799167 243.927042 
L 243.234901 251.130223 
L 243.654497 256.376984 
L 243.767465 257.53305 
L 244.396859 263.313381 
L 244.606657 265.003016 
L 244.945561 267.581933 
L 246.430284 275.229754 
L 246.46256 275.318683 
L 246.769188 276.474749 
L 246.801465 276.563677 
L 247.108092 277.719743 
L 247.172645 277.808671 
L 247.382443 278.431168 
L 247.41472 278.520096 
L 247.624518 279.142594 
L 247.672933 279.231522 
L 247.898869 279.942947 
L 247.963422 280.031875 
L 248.157081 280.565444 
L 248.221635 280.654372 
L 248.383018 281.010085 
L 248.463709 281.099013 
L 248.64123 281.543654 
L 248.721922 281.632582 
L 248.867166 281.899367 
L 248.996273 281.988295 
L 249.141517 282.255079 
L 249.189932 282.344007 
L 249.335177 282.610792 
L 249.544975 282.69972 
L 249.674081 282.877576 
L 249.722496 282.966504 
L 249.851602 283.144361 
L 249.964571 283.233289 
L 250.093677 283.411145 
L 250.384166 283.500073 
L 250.497134 283.589002 
L 250.593964 283.67793 
L 250.610102 283.766858 
L 250.690794 283.67793 
L 250.884453 283.766858 
L 250.997421 283.855786 
L 251.255634 283.944714 
L 251.271772 284.033642 
L 251.336326 283.944714 
L 251.368602 283.855786 
L 251.433155 283.944714 
L 251.836613 284.033642 
L 251.852751 284.122571 
L 251.933443 284.033642 
L 252.046411 283.944714 
L 252.546698 283.855786 
L 252.562836 283.766858 
L 252.643528 283.855786 
L 252.853325 283.766858 
L 252.982432 283.589002 
L 253.724793 283.500073 
L 253.821623 283.411145 
L 253.934591 283.500073 
L 254.176666 283.411145 
L 254.305772 283.233289 
L 254.741506 283.144361 
L 254.789921 282.966504 
L 254.838336 283.144361 
L 255.015857 283.055433 
L 255.031995 282.966504 
L 255.096548 283.144361 
L 255.112687 283.055433 
L 255.354761 282.966504 
L 255.467729 282.877576 
L 255.709804 282.788648 
L 255.822772 282.69972 
L 256.000293 282.610792 
L 256.129399 282.432935 
L 256.242367 282.521864 
L 256.419889 282.432935 
L 256.548995 282.255079 
L 256.774931 282.166151 
L 256.791069 282.077223 
L 256.871761 282.166151 
L 256.968591 282.077223 
L 257.081559 281.988295 
L 257.129974 281.899367 
L 257.25908 281.72151 
L 257.517293 281.632582 
L 257.630261 281.543654 
L 258.01758 281.454726 
L 258.146686 281.276869 
L 258.162824 281.365798 
L 258.243516 281.276869 
L 258.259654 281.276869 
L 258.372622 276.119036 
L 259.647548 276.207964 
L 259.679824 276.296892 
L 259.744377 276.207964 
L 260.244665 276.119036 
L 260.276941 275.94118 
L 260.341494 276.119036 
L 261.42276 276.207964 
L 261.471175 276.296892 
L 261.503452 276.207964 
L 261.51959 276.119036 
L 261.600281 276.207964 
L 262.616994 276.119036 
L 262.649271 276.030108 
L 262.713824 276.119036 
L 263.230249 276.207964 
L 263.246387 276.296892 
L 263.327079 276.207964 
L 264.16627 276.296892 
L 264.214685 276.385821 
L 264.2631 276.296892 
L 264.392206 276.385821 
L 264.505175 276.474749 
L 266.377217 276.474749 
L 266.570876 256.55484 
L 267.151855 233.166734 
L 268.265397 205.510076 
L 268.507472 202.575446 
L 268.846376 196.261547 
L 268.910929 73.985325 
L 268.991621 151.886394 
L 269.153004 210.223268 
L 269.18528 210.490053 
L 269.233695 210.13434 
L 269.395078 209.422915 
L 269.572599 209.867556 
L 269.604876 209.956484 
L 269.798535 210.490053 
L 269.814674 210.401125 
L 269.863089 210.667909 
L 269.94378 210.756837 
L 270.089025 211.023622 
L 270.282684 211.11255 
L 270.395652 211.290406 
L 270.524759 211.11255 
L 270.653865 211.11255 
L 270.782971 211.379334 
L 270.79911 211.468263 
L 270.879801 211.379334 
L 271.008907 211.201478 
L 271.154152 211.290406 
L 271.218705 211.468263 
L 271.26712 211.379334 
L 271.428503 211.023622 
L 271.444641 211.11255 
L 271.525333 211.023622 
L 271.638301 210.934694 
L 271.702854 210.845765 
L 271.896514 210.312196 
L 272.009482 210.223268 
L 272.283833 209.245059 
L 272.299971 209.333987 
L 272.380663 209.245059 
L 272.445216 209.245059 
L 272.59046 208.800418 
L 272.816397 208.088992 
L 272.88095 208.000064 
L 273.090748 207.377567 
L 273.123024 207.288639 
L 273.25213 207.110783 
L 273.300545 207.199711 
L 273.461928 207.555423 
L 273.526482 207.644352 
L 273.671726 207.911136 
L 273.800833 208.000064 
L 273.865386 208.088992 
L 273.881524 208.000064 
L 274.075184 207.466495 
L 274.172013 207.377567 
L 274.414088 206.577214 
L 274.446364 206.488286 
L 274.623886 206.043645 
L 274.704577 206.132573 
L 274.752992 206.221501 
L 274.785269 206.043645 
L 274.801407 206.132573 
L 274.86596 206.043645 
L 274.946651 205.865788 
L 274.96279 205.954717 
L 275.043481 206.043645 
L 275.05962 205.954717 
L 275.172588 205.865788 
L 275.350109 205.421148 
L 275.495354 205.332219 
L 275.753566 204.35401 
L 275.801981 204.442938 
L 275.834258 204.35401 
L 276.027917 203.820441 
L 276.060194 203.731513 
L 276.140885 203.820441 
L 276.1893 203.553656 
L 276.221577 203.464728 
L 276.399098 202.664375 
L 276.641172 201.775093 
L 276.657311 201.864021 
L 276.705726 201.686165 
L 277.04463 199.374033 
L 277.286704 195.816906 
L 277.351257 71.228552 
L 277.431949 138.636098 
L 277.593332 206.932926 
L 277.754715 208.266849 
L 278.206587 211.290406 
L 278.448662 212.891113 
L 278.480938 212.980041 
L 278.868257 214.669676 
L 278.900534 214.580748 
L 278.93281 214.758605 
L 278.948949 214.758605 
L 279.094193 215.025389 
L 279.158747 215.114317 
L 279.287853 215.292174 
L 279.320129 215.381102 
L 279.433098 215.47003 
L 279.69131 215.381102 
L 279.836555 215.114317 
L 280.014076 215.025389 
L 280.223874 214.402892 
L 280.54664 214.313964 
L 280.64347 214.225036 
L 280.659608 214.313964 
L 280.740299 214.225036 
L 280.804853 214.136107 
L 280.820991 214.047179 
L 280.885544 214.225036 
L 280.901682 214.136107 
L 281.079204 214.047179 
L 281.192172 213.958251 
L 281.563353 213.869323 
L 281.708597 213.602538 
L 281.789289 213.691467 
L 281.805427 213.602538 
L 282.241161 213.51361 
L 282.370267 213.335754 
L 282.483235 213.246826 
L 282.612342 213.068969 
L 282.951246 212.980041 
L 283.096491 212.713257 
L 283.403118 212.624329 
L 283.532225 212.446472 
L 283.85499 212.357544 
L 284.000235 212.09076 
L 284.04865 212.001832 
L 284.210033 211.646119 
L 284.24231 211.557191 
L 284.387554 211.290406 
L 284.484384 211.201478 
L 284.71032 210.490053 
L 284.90398 210.401125 
L 285.033086 210.223268 
L 285.065363 210.13434 
L 285.259022 209.600771 
L 285.307437 209.511843 
L 285.420405 209.422915 
L 285.46882 209.333987 
L 285.662479 208.800418 
L 285.678618 208.889346 
L 285.743171 208.71149 
L 285.823862 208.622561 
L 285.985245 208.266849 
L 286.146628 208.177921 
L 286.308011 207.822208 
L 286.437118 208.000064 
L 286.517809 207.911136 
L 286.550086 207.822208 
L 286.598501 207.911136 
L 286.711469 208.000064 
L 286.743745 207.911136 
L 286.856713 207.822208 
L 287.486107 207.73328 
L 287.582937 207.555423 
L 287.599075 207.644352 
L 287.760458 207.555423 
L 288.067085 206.399357 
L 288.341436 206.310429 
L 288.486681 205.954717 
L 288.567373 206.221501 
L 288.615788 206.132573 
L 288.809447 205.599004 
L 288.841724 205.510076 
L 288.97083 205.332219 
L 289.132213 205.687932 
L 289.245181 205.77686 
L 289.374287 205.954717 
L 289.567947 205.865788 
L 289.810021 205.065435 
L 289.987543 204.976507 
L 290.342585 203.553656 
L 290.358723 203.642584 
L 290.391 203.464728 
L 290.439415 203.553656 
L 290.552383 203.464728 
L 290.665351 203.3758 
L 290.697628 203.286872 
L 290.842872 203.020087 
L 290.907425 202.931159 
L 291.004255 202.753303 
L 291.020394 202.842231 
L 291.05267 202.753303 
L 291.197915 202.486518 
L 291.230191 202.39759 
L 292.069383 197.417613 
L 292.101659 194.66084 
L 292.166212 71.584264 
L 292.230766 125.830443 
L 292.408287 206.310429 
L 292.553532 207.021854 
L 292.634223 207.110783 
L 293.376585 210.667909 
L 293.424999 210.756837 
L 293.780042 212.179688 
L 293.844595 212.268616 
L 294.054393 212.980041 
L 294.070531 212.891113 
L 294.118946 213.068969 
L 294.135084 213.068969 
L 294.248053 213.157898 
L 294.377159 213.335754 
L 294.490127 213.246826 
L 294.667648 213.335754 
L 294.812893 213.602538 
L 294.877446 213.691467 
L 294.990414 213.780395 
L 295.11952 213.869323 
L 295.21635 213.958251 
L 295.345457 213.780395 
L 295.571393 213.691467 
L 295.732776 213.335754 
L 295.797329 213.246826 
L 295.926435 213.068969 
L 295.990988 212.980041 
L 296.120095 212.802185 
L 296.200786 212.713257 
L 296.378308 212.268616 
L 296.555829 212.179688 
L 296.571967 212.09076 
L 296.652659 212.179688 
L 296.83018 212.624329 
L 297.346605 212.5354 
L 297.507988 212.179688 
L 297.717786 212.09076 
L 297.927584 211.468263 
L 298.040552 211.379334 
L 298.15352 211.11255 
L 298.169658 211.201478 
L 298.234211 211.11255 
L 298.444009 210.490053 
L 298.524701 210.401125 
L 298.637669 210.223268 
L 298.653807 210.312196 
L 298.702222 210.13434 
L 298.71836 210.13434 
L 298.976573 209.245059 
L 299.057265 209.15613 
L 299.267062 208.533633 
L 299.315477 208.444705 
L 299.347754 208.355777 
L 299.412307 208.444705 
L 299.912594 208.355777 
L 300.041701 208.177921 
L 300.073977 208.088992 
L 300.170807 207.911136 
L 300.186945 208.000064 
L 300.219222 208.088992 
L 300.267637 207.911136 
L 300.541988 207.822208 
L 300.671094 207.644352 
L 300.735647 207.73328 
L 300.767924 207.644352 
L 300.961583 207.555423 
L 301.139105 207.110783 
L 301.155243 207.199711 
L 301.203658 207.021854 
L 301.219796 207.021854 
L 301.397317 206.932926 
L 301.526424 206.75507 
L 301.816913 206.843998 
L 301.929881 206.932926 
L 302.139679 207.021854 
L 302.284924 207.288639 
L 302.397892 207.199711 
L 302.51086 207.288639 
L 302.672243 206.843998 
L 302.752934 207.021854 
L 302.785211 206.932926 
L 302.849764 206.843998 
L 303.027285 206.399357 
L 303.091838 206.310429 
L 303.26936 205.865788 
L 303.333913 205.77686 
L 303.479157 205.510076 
L 303.575987 205.421148 
L 303.721232 205.154363 
L 303.850338 205.065435 
L 304.011721 204.709722 
L 304.108551 204.620794 
L 304.286072 204.176153 
L 304.528147 204.087225 
L 304.608838 203.820441 
L 304.657253 203.909369 
L 304.721806 203.909369 
L 304.818636 203.553656 
L 304.850912 203.642584 
L 304.899327 203.642584 
L 305.06071 202.842231 
L 305.109125 202.931159 
L 305.125263 202.842231 
L 305.270508 202.39759 
L 305.367338 202.308662 
L 305.560997 201.775093 
L 305.609412 201.686165 
L 306.190391 198.04011 
L 306.351774 194.749768 
L 306.416327 72.028905 
L 306.497019 138.902883 
L 306.658402 205.865788 
L 306.739093 206.577214 
L 306.787508 206.399357 
L 306.932753 206.043645 
L 306.948891 206.132573 
L 306.997306 205.954717 
L 307.029582 206.043645 
L 307.207104 206.132573 
L 307.820359 208.978274 
L 307.868774 209.067202 
L 308.046295 209.511843 
L 308.110848 209.600771 
L 308.304508 210.578981 
L 308.465891 210.934694 
L 308.788657 210.845765 
L 308.885486 210.756837 
L 308.998454 210.845765 
L 309.095284 210.934694 
L 309.22439 211.11255 
L 309.337359 211.023622 
L 309.466465 211.11255 
L 309.579433 211.201478 
L 309.708539 211.023622 
L 309.756954 210.934694 
L 309.789231 210.845765 
L 309.853784 210.934694 
L 310.111997 211.023622 
L 310.224965 211.11255 
L 310.499316 211.023622 
L 310.628422 210.845765 
L 310.967326 210.756837 
L 311.096433 210.578981 
L 311.160986 210.490053 
L 311.322369 210.13434 
L 311.354645 210.045412 
L 311.532167 209.600771 
L 311.564443 209.511843 
L 311.709688 209.245059 
L 311.919486 209.15613 
L 312.032454 209.067202 
L 312.306805 208.978274 
L 312.468188 208.622561 
L 312.532741 208.533633 
L 312.694124 208.177921 
L 312.903922 208.088992 
L 313.033028 207.911136 
L 313.081443 207.822208 
L 313.210549 207.644352 
L 313.355794 207.555423 
L 313.371932 207.466495 
L 313.452624 207.555423 
L 313.67856 207.466495 
L 313.743113 207.555423 
L 313.823805 207.199711 
L 313.936773 207.110783 
L 314.049741 207.021854 
L 314.43706 206.932926 
L 314.646858 206.310429 
L 314.743687 206.221501 
L 314.856655 205.954717 
L 314.872794 206.043645 
L 314.985762 205.954717 
L 315.163283 205.510076 
L 315.243975 205.421148 
L 315.405358 205.065435 
L 315.599017 204.976507 
L 315.728123 204.709722 
L 315.744262 204.79865 
L 315.824953 204.709722 
L 315.937921 204.531866 
L 316.583453 207.555423 
L 316.793251 207.466495 
L 316.809389 207.377567 
L 316.873942 207.466495 
L 316.890081 207.555423 
L 316.938496 207.377567 
L 316.954634 207.377567 
L 317.164432 207.288639 
L 317.2774 207.110783 
L 317.406506 207.288639 
L 317.713134 207.199711 
L 317.826102 207.110783 
L 317.874517 207.021854 
L 318.197283 205.687932 
L 318.213421 205.77686 
L 318.261836 205.599004 
L 318.294112 205.687932 
L 318.713708 203.909369 
L 318.745985 203.820441 
L 318.988059 203.020087 
L 319.020336 203.020087 
L 319.197857 202.130806 
L 319.310825 202.130806 
L 319.472208 201.508308 
L 319.633591 200.085458 
L 319.859527 196.439403 
L 319.891804 136.590751 
L 319.92408 73.184971 
L 319.988633 115.247992 
L 320.166155 203.731513 
L 320.246846 204.531866 
L 320.295261 204.265081 
L 320.359814 204.35401 
L 320.553474 204.887579 
L 320.666442 204.976507 
L 320.811686 205.243291 
L 320.87624 205.332219 
L 321.279697 207.021854 
L 321.328112 207.110783 
L 321.489495 207.466495 
L 321.53791 207.555423 
L 321.667016 207.73328 
L 321.796122 207.822208 
L 321.925229 208.000064 
L 321.989782 208.088992 
L 322.135027 208.355777 
L 322.29641 208.444705 
L 322.441654 208.71149 
L 322.473931 208.622561 
L 322.538484 208.71149 
L 322.66759 208.889346 
L 322.76442 208.978274 
L 322.974218 209.600771 
L 323.006495 209.689699 
L 323.119463 209.778627 
L 323.652026 209.689699 
L 323.764994 209.511843 
L 323.797271 209.600771 
L 323.861824 209.511843 
L 323.910239 209.422915 
L 324.023207 209.15613 
L 324.039345 209.245059 
L 324.152314 209.15613 
L 324.168452 209.067202 
L 324.200728 209.245059 
L 324.216867 209.245059 
L 324.265282 209.333987 
L 324.313696 209.245059 
L 324.426665 209.067202 
L 324.539633 209.15613 
L 324.555771 209.067202 
L 324.636462 209.15613 
L 324.765569 209.245059 
L 324.830122 209.333987 
L 324.862399 209.245059 
L 325.023781 209.333987 
L 325.056058 209.422915 
L 325.120611 209.333987 
L 325.685452 209.245059 
L 325.814558 209.067202 
L 325.895249 208.978274 
L 326.024356 208.800418 
L 326.185739 208.71149 
L 326.347122 208.355777 
L 326.395537 208.266849 
L 326.540781 207.822208 
L 326.589196 207.73328 
L 326.750579 207.377567 
L 326.782856 207.288639 
L 326.911962 207.110783 
L 326.992653 207.021854 
L 327.137898 206.75507 
L 327.21859 206.666142 
L 327.299281 206.577214 
L 327.315419 206.666142 
L 327.58977 206.577214 
L 327.638185 206.488286 
L 327.6866 206.577214 
L 327.767292 206.488286 
L 327.944813 206.043645 
L 328.186887 205.954717 
L 328.412823 205.243291 
L 328.493515 205.243291 
L 328.622621 204.709722 
L 328.63876 204.79865 
L 328.961525 204.887579 
L 328.977664 204.976507 
L 329.00994 204.79865 
L 329.042217 204.79865 
L 329.219738 204.709722 
L 329.332706 204.35401 
L 329.364983 204.442938 
L 329.413398 204.35401 
L 329.590919 203.909369 
L 329.703887 203.998297 
L 329.86527 203.909369 
L 329.9621 203.464728 
L 330.010515 203.642584 
L 330.091206 203.909369 
L 330.123483 203.731513 
L 330.204174 203.642584 
L 330.397834 203.109015 
L 330.43011 203.197944 
L 330.478525 203.020087 
L 330.688323 203.020087 
L 330.833568 202.575446 
L 330.930398 202.575446 
L 331.124057 222.939995 
L 331.495238 237.346358 
L 332.076216 250.329869 
L 332.786301 260.289823 
L 333.528663 267.315148 
L 335.142493 275.674395 
L 335.174769 275.674395 
L 335.336152 276.385821 
L 335.35229 276.385821 
L 335.529812 277.186174 
L 335.933269 278.875809 
L 335.965546 278.964737 
L 336.191482 279.676162 
L 336.239897 279.765091 
L 336.433556 280.29866 
L 336.465833 280.387588 
L 336.594939 280.565444 
L 336.675631 280.654372 
L 336.853152 281.099013 
L 336.917705 281.187941 
L 337.079088 281.632582 
L 337.111365 281.543654 
L 337.127503 281.72151 
L 337.159779 281.72151 
L 337.321162 282.077223 
L 337.385716 282.166151 
L 337.547099 282.521864 
L 337.660067 282.610792 
L 337.82145 282.966504 
L 337.950556 283.055433 
L 338.079662 283.322217 
L 338.095801 283.233289 
L 338.144215 283.411145 
L 338.160354 283.322217 
L 338.305598 283.589002 
L 338.434705 283.67793 
L 338.563811 283.855786 
L 338.741332 283.944714 
L 338.838162 284.033642 
L 338.934992 283.944714 
L 338.983407 284.033642 
L 339.031822 283.944714 
L 339.306173 283.855786 
L 339.386864 283.766858 
L 339.403002 283.855786 
L 340.758619 283.766858 
L 340.887726 283.589002 
L 341.049109 283.500073 
L 341.194353 283.233289 
L 341.258906 283.144361 
L 341.388013 282.966504 
L 341.565534 282.877576 
L 341.69464 282.69972 
L 341.79147 282.788648 
L 341.904438 282.69972 
L 342.630662 282.610792 
L 342.6468 282.521864 
L 342.679076 282.69972 
L 342.711353 282.69972 
L 342.888874 282.610792 
L 343.001842 282.521864 
L 343.760342 282.432935 
L 343.792619 282.344007 
L 343.857172 282.432935 
L 343.97014 282.344007 
L 344.050831 282.255079 
L 344.06697 282.344007 
L 344.228353 282.255079 
L 344.341321 282.166151 
L 344.680225 282.077223 
L 344.696363 281.988295 
L 344.777055 282.077223 
L 344.922299 281.988295 
L 345.035268 281.899367 
L 345.600108 281.810438 
L 345.616246 281.72151 
L 345.696938 281.810438 
L 345.793767 281.72151 
L 345.906735 281.632582 
L 346.068118 281.543654 
L 346.181086 281.365798 
L 346.213363 281.454726 
L 346.261778 281.365798 
L 346.374746 281.276869 
L 346.568406 281.187941 
L 346.584544 281.099013 
L 346.665235 281.187941 
L 346.971863 281.099013 
L 347.100969 280.921157 
L 347.940161 281.010085 
L 347.972437 281.099013 
L 348.03699 281.010085 
L 349.666958 281.099013 
L 349.683097 281.187941 
L 349.763788 281.099013 
L 351.16782 281.187941 
L 351.264649 281.276869 
L 351.361479 281.187941 
L 351.393756 281.276869 
L 351.442171 281.187941 
L 351.539 281.099013 
L 351.555139 281.187941 
L 351.63583 281.099013 
L 352.362054 281.187941 
L 352.475022 281.276869 
L 353.072139 281.187941 
L 353.088277 281.099013 
L 353.168968 281.187941 
L 353.362628 281.099013 
L 353.394904 281.010085 
L 353.443319 281.187941 
L 353.524011 281.099013 
L 353.572426 281.010085 
L 353.604702 281.099013 
L 353.669255 281.187941 
L 353.701532 281.099013 
L 354.702106 281.010085 
L 354.815074 280.921157 
L 354.831213 281.010085 
L 354.879628 280.832229 
L 354.895766 280.921157 
L 355.008734 280.832229 
L 355.13784 280.7433 
L 355.3315 241.703837 
L 355.79951 202.130806 
L 355.89634 187.457659 
L 355.944755 69.005348 
L 356.009308 128.231503 
L 356.154553 200.352242 
L 356.170691 200.174386 
L 356.364351 193.504774 
L 356.800085 181.499472 
L 356.864638 71.673193 
L 356.945329 126.986509 
L 357.122851 193.504774 
L 357.284234 195.105481 
L 357.477893 195.63905 
L 357.590861 195.63905 
L 357.703829 195.994762 
L 357.719968 195.905834 
L 357.865212 195.816906 
L 358.17184 194.66084 
L 358.236393 194.571912 
L 358.73668 191.28157 
L 359.043308 186.835162 
L 359.172414 180.610191 
L 359.236967 68.116066 
L 359.30152 112.758003 
L 359.49518 193.771558 
L 359.672701 196.350475 
L 359.898637 197.150829 
L 359.930914 197.0619 
L 359.995467 197.150829 
L 360.237542 197.0619 
L 360.511893 196.083691 
L 360.640999 195.994762 
L 360.834658 195.283337 
L 360.850797 195.372265 
L 360.947627 195.283337 
L 361.092871 194.838696 
L 361.10901 194.927625 
L 361.173563 194.838696 
L 361.318807 194.571912 
L 361.351084 194.482984 
L 361.625435 193.504774 
L 361.706126 193.415846 
L 361.867509 193.060133 
L 361.883648 193.060133 
L 362.028892 192.526564 
L 362.125722 192.437636 
L 362.416211 191.370498 
L 362.496903 191.28157 
L 363.223126 187.813372 
L 363.255403 187.724443 
L 363.545892 184.52303 
L 363.56203 182.833395 
L 363.626584 66.96 
L 363.707275 123.518311 
L 363.884796 192.615492 
L 364.046179 194.927625 
L 364.143009 195.016553 
L 364.272115 195.194409 
L 364.32053 195.283337 
L 364.352807 195.461193 
L 364.433498 195.372265 
L 364.449637 195.283337 
L 364.51419 195.372265 
L 364.594881 195.550122 
L 364.627158 195.461193 
L 364.836956 195.550122 
L 364.853094 195.63905 
L 364.885371 195.461193 
L 364.917647 195.461193 
L 365.159722 194.66084 
L 365.17586 194.66084 
L 365.337243 193.949415 
L 365.595456 193.860487 
L 366.240987 190.836929 
L 366.321679 190.925857 
L 366.370094 191.103714 
L 366.40237 190.925857 
L 366.757413 189.503007 
L 366.821966 189.503007 
L 366.967211 188.969438 
L 367.015626 189.147294 
L 367.06404 188.969438 
L 367.193147 188.88051 
L 367.91937 184.434101 
L 367.983923 182.477682 
L 368.0162 139.970021 
L 368.064615 68.204994 
L 368.129168 110.712655 
L 368.338966 191.726211 
L 368.516487 193.771558 
L 368.694008 194.216199 
L 368.806976 194.127271 
L 368.919944 194.216199 
L 369.178157 194.305127 
L 369.194295 194.394056 
L 369.24271 194.305127 
L 369.323402 194.127271 
L 369.355678 194.216199 
L 369.387955 194.482984 
L 369.468646 194.394056 
L 369.646168 193.949415 
L 369.662306 194.038343 
L 369.710721 193.860487 
L 369.888242 193.326918 
L 369.920519 193.415846 
L 369.968934 193.237989 
L 370.485359 190.925857 
L 370.533774 190.836929 
L 370.695157 190.036576 
L 370.808125 190.125504 
L 371.050199 189.32515 
L 371.082476 189.236222 
L 371.211582 188.791581 
L 371.243859 188.88051 
L 371.292274 188.791581 
L 371.389104 188.524797 
L 371.42138 188.613725 
L 371.534348 188.702653 
L 371.679593 189.147294 
L 371.744146 188.969438 
L 371.776423 189.147294 
L 371.840976 189.058366 
L 371.970082 188.702653 
L 371.98622 188.791581 
L 372.08305 188.702653 
L 372.502646 186.92409 
L 372.534923 186.835162 
L 372.776997 185.323383 
L 372.857688 184.345173 
L 372.922242 181.143759 
L 372.986795 67.671425 
L 373.067486 116.048345 
L 373.261146 189.680863 
L 373.454805 191.637283 
L 373.680741 192.348708 
L 373.858263 192.25978 
L 373.955092 192.081923 
L 373.971231 192.170852 
L 374.051922 192.348708 
L 374.084199 192.25978 
L 374.293997 191.548354 
L 374.310135 191.637283 
L 374.35855 191.370498 
L 374.519933 190.925857 
L 374.536071 191.014785 
L 374.600624 190.836929 
L 374.842699 190.748001 
L 375.052497 190.125504 
L 375.100911 190.214432 
L 375.197741 190.392288 
L 375.21388 190.30336 
L 375.262294 190.214432 
L 375.488231 189.503007 
L 375.520507 189.414078 
L 375.843273 188.080156 
L 375.891688 188.258012 
L 375.923965 188.080156 
L 376.149901 187.368731 
L 376.182177 187.457659 
L 376.24673 187.368731 
L 376.295145 187.279803 
L 376.666326 185.768024 
L 376.795432 185.679096 
L 377.10206 183.54482 
L 377.182752 181.410544 
L 377.215028 149.129621 
L 377.263443 68.382851 
L 377.327996 104.754469 
L 377.537794 187.546587 
L 377.683039 189.858719 
L 377.699177 189.769791 
L 377.908975 190.392288 
L 377.941251 190.481216 
L 378.102634 190.836929 
L 378.231741 190.925857 
L 378.280156 191.014785 
L 378.32857 190.925857 
L 378.473815 190.659073 
L 378.586783 190.570145 
L 378.828858 189.769791 
L 378.861134 189.680863 
L 378.990241 189.414078 
L 379.119347 189.591935 
L 379.167762 189.503007 
L 379.458251 188.435869 
L 379.522804 188.346941 
L 379.651911 188.169084 
L 379.74874 188.080156 
L 379.974677 187.368731 
L 380.023091 187.279803 
L 380.216751 186.123737 
L 380.232889 186.212665 
L 380.265166 186.034808 
L 380.281304 186.034808 
L 380.410411 185.856952 
L 380.491102 185.94588 
L 380.571794 186.123737 
L 380.60407 186.034808 
L 380.684762 185.94588 
L 380.846145 185.590168 
L 380.862283 185.679096 
L 380.894559 185.412311 
L 381.088219 184.789814 
L 381.104357 184.878742 
L 381.16891 184.700886 
L 381.523953 179.720909 
L 381.55623 174.029507 
L 381.620783 68.027138 
L 381.685336 103.865187 
L 381.911272 188.702653 
L 382.104932 190.748001 
L 382.185623 190.836929 
L 382.347006 191.192642 
L 382.379283 191.28157 
L 382.540666 191.637283 
L 382.702048 191.548354 
L 382.927985 190.836929 
L 383.121644 190.925857 
L 383.234612 191.28157 
L 383.266889 191.192642 
L 383.379857 191.28157 
L 383.395995 191.370498 
L 383.44441 191.192642 
L 383.460548 191.192642 
L 383.654208 190.659073 
L 383.702623 190.570145 
L 383.815591 190.125504 
L 383.864006 190.214432 
L 383.896282 190.125504 
L 384.089942 189.591935 
L 384.122218 189.680863 
L 384.170633 189.503007 
L 384.219048 189.414078 
L 384.396569 188.969438 
L 384.461123 188.88051 
L 384.557952 188.791581 
L 384.606367 188.969438 
L 384.67092 188.88051 
L 384.735474 188.791581 
L 384.896857 188.346941 
L 384.945272 188.435869 
L 384.993686 188.346941 
L 385.042101 188.258012 
L 385.090516 188.346941 
L 385.171208 188.258012 
L 385.300314 187.9023 
L 385.316452 187.991228 
L 385.348729 188.080156 
L 385.364867 188.169084 
L 385.42942 187.991228 
L 386.123367 183.633748 
L 386.317027 178.653771 
L 386.38158 69.894629 
L 386.47841 122.629029 
L 386.672069 187.190874 
L 386.833452 188.88051 
L 386.84959 188.791581 
L 386.881867 189.058366 
L 387.107803 189.858719 
L 387.14008 189.769791 
L 387.188495 189.947647 
L 387.285324 190.036576 
L 387.398292 190.214432 
L 387.575814 189.769791 
L 387.70492 189.680863 
L 387.850165 189.414078 
L 387.89858 189.32515 
L 387.963133 189.236222 
L 387.979271 189.32515 
L 388.140654 190.036576 
L 388.302037 189.680863 
L 388.527973 189.591935 
L 388.640941 189.503007 
L 388.753909 189.414078 
L 388.947569 188.88051 
L 388.979845 188.791581 
L 389.157367 188.346941 
L 389.189643 188.258012 
L 389.641515 186.301593 
L 389.657654 186.301593 
L 389.899728 183.989461 
L 390.093388 182.388754 
L 390.319324 177.497705 
L 390.3516 134.18969 
L 390.400015 69.449989 
L 390.464568 105.288038 
L 390.674366 185.234455 
L 390.835749 187.457659 
L 390.868026 187.546587 
L 391.126239 188.435869 
L 391.158515 188.435869 
L 391.174653 188.258012 
L 391.271483 188.346941 
L 391.352175 188.169084 
L 391.368313 188.258012 
L 391.432866 188.435869 
L 391.481281 188.346941 
L 391.513558 188.169084 
L 391.578111 188.258012 
L 391.691079 188.346941 
L 391.739494 188.258012 
L 391.949292 187.635515 
L 392.078398 187.546587 
L 392.385026 186.390521 
L 392.449579 186.301593 
L 392.610962 185.590168 
L 392.659377 185.501239 
L 392.869174 184.345173 
L 392.885313 184.345173 
L 393.175802 182.299826 
L 393.595398 179.543053 
L 393.724504 176.430567 
L 393.756781 142.90465 
L 393.805196 70.072486 
L 393.869749 99.063066 
L 394.111823 184.52303 
L 394.305483 187.279803 
L 394.499142 188.346941 
L 394.547557 188.435869 
L 394.70894 188.791581 
L 394.741217 188.88051 
L 394.870323 189.058366 
L 394.983291 189.147294 
L 395.015568 189.236222 
L 395.080121 189.147294 
L 395.37061 188.080156 
L 395.419025 187.991228 
L 395.548131 187.813372 
L 395.612685 187.813372 
L 395.757929 187.368731 
L 395.806344 187.279803 
L 395.967727 186.746234 
L 395.983865 186.835162 
L 396.096833 186.746234 
L 396.290493 185.768024 
L 396.32277 185.679096 
L 396.69395 184.167317 
L 396.742365 184.078389 
L 397.048993 182.655538 
L 397.081269 182.744466 
L 397.161961 182.655538 
L 397.517003 178.031274 
L 397.565418 171.717374 
L 397.629972 70.33927 
L 397.710663 109.02302 
L 397.936599 183.900532 
L 398.130259 186.657305 
L 398.162535 186.746234 
L 398.485301 187.991228 
L 398.582131 188.080156 
L 398.711237 188.258012 
L 398.904897 188.169084 
L 399.034003 187.991228 
L 399.211524 187.9023 
L 399.437461 187.190874 
L 399.582705 187.101946 
L 399.744088 186.746234 
L 399.857056 186.835162 
L 399.889333 186.746234 
L 399.937748 186.835162 
L 399.970024 186.92409 
L 400.018439 186.835162 
L 400.405758 185.234455 
L 400.454173 185.145527 
L 401.196535 180.521262 
L 401.406333 175.896998 
L 401.487024 70.33927 
L 401.583854 121.650819 
L 401.777513 182.299826 
L 401.955035 185.145527 
L 402.229386 187.013018 
L 402.358492 187.279803 
L 402.503737 187.013018 
L 402.56829 187.101946 
L 402.584428 187.190874 
L 402.66512 187.101946 
L 402.842641 187.013018 
L 403.052439 186.390521 
L 403.100854 186.301593 
L 403.278375 185.856952 
L 403.342928 185.768024 
L 403.455896 185.590168 
L 403.568864 185.679096 
L 403.923907 185.590168 
L 404.036875 185.501239 
L 404.165981 185.590168 
L 404.214396 185.679096 
L 404.262811 185.590168 
L 404.359641 185.679096 
L 404.424194 185.768024 
L 404.45647 185.679096 
L 404.521024 185.590168 
L 404.730821 184.700886 
L 404.763098 184.789814 
L 405.102002 184.700886 
L 405.327938 183.989461 
L 405.392492 183.900532 
L 405.50546 183.366964 
L 405.537736 183.455892 
L 405.602289 183.366964 
L 405.908917 181.143759 
L 406.247821 176.252711 
L 406.296236 172.073087 
L 406.376928 71.495336 
L 406.441481 106.177319 
L 406.667417 183.100179 
L 406.861076 186.301593 
L 407.248395 187.9023 
L 407.329087 187.991228 
L 407.345225 188.080156 
L 407.39364 187.9023 
L 407.409778 187.9023 
L 407.442055 187.9023 
L 407.571161 187.546587 
L 407.813236 187.635515 
L 407.893927 187.724443 
L 407.910066 187.635515 
L 408.119863 187.724443 
L 408.200555 187.9023 
L 408.232831 187.813372 
L 408.3458 187.724443 
L 408.507182 187.368731 
L 408.604012 187.368731 
L 408.797672 186.390521 
L 409.088161 185.323383 
L 409.152714 185.234455 
L 409.701416 182.655538 
L 409.717555 182.744466 
L 409.749831 182.56661 
L 409.782108 182.56661 
L 409.927352 181.855185 
L 409.959629 182.033041 
L 410.072597 182.121969 
L 410.395363 182.033041 
L 410.927927 178.742699 
L 411.08931 174.029507 
L 411.121586 152.242107 
L 411.186139 71.495336 
L 411.250693 104.665541 
L 411.476629 182.922323 
L 411.65415 186.034808 
L 411.896224 187.546587 
L 412.025331 187.813372 
L 412.154437 187.635515 
L 412.331958 187.546587 
L 412.461065 187.368731 
L 412.622448 187.457659 
L 412.703139 187.813372 
L 412.767692 187.724443 
L 412.961352 187.190874 
L 413.058182 187.101946 
L 413.187288 186.92409 
L 413.300256 186.835162 
L 413.477777 186.123737 
L 413.493916 186.212665 
L 413.623022 186.390521 
L 413.784405 186.034808 
L 413.83282 185.94588 
L 414.284692 183.989461 
L 414.365384 183.900532 
L 414.413799 183.989461 
L 414.49449 183.722676 
L 414.526767 183.633748 
L 414.704288 182.833395 
L 414.752703 182.922323 
L 414.784979 182.833395 
L 415.123884 180.521262 
L 415.398235 174.474147 
L 415.446649 98.707354 
L 415.478926 71.228552 
L 415.543479 100.485917 
L 415.785554 183.100179 
L 415.979213 185.94588 
L 416.189011 187.101946 
L 416.398809 187.724443 
L 416.624745 187.635515 
L 416.705436 187.546587 
L 416.721575 187.635515 
L 416.76999 187.635515 
L 416.931373 187.013018 
L 416.963649 187.101946 
L 416.995926 187.013018 
L 417.14117 186.568377 
L 417.189585 186.479449 
L 417.350968 186.123737 
L 417.399383 186.034808 
L 417.673734 185.056599 
L 417.706011 184.96767 
L 418.077192 183.455892 
L 418.238574 183.366964 
L 418.512926 182.299826 
L 418.529064 182.388754 
L 418.56134 182.210897 
L 418.593617 182.210897 
L 418.642032 182.121969 
L 419.110042 179.009484 
L 419.31984 175.541285 
L 419.352117 172.606656 
L 419.432808 71.406408 
L 419.5135 110.712655 
L 419.771713 204.887579 
L 420.013787 226.941763 
L 420.433383 244.282754 
L 420.83684 253.975924 
L 421.224159 260.111967 
L 421.627616 265.003016 
L 421.756723 266.24801 
L 422.208595 270.071921 
L 422.660467 273.095479 
L 422.870265 274.340473 
L 422.902542 274.429401 
L 423.612627 277.808671 
L 423.644903 277.897599 
L 424.048361 279.587234 
L 424.096776 279.676162 
L 424.354988 280.565444 
L 424.403403 280.654372 
L 424.564786 281.276869 
L 424.645478 281.365798 
L 424.839137 281.899367 
L 424.871414 281.988295 
L 425.081212 282.610792 
L 425.113488 282.69972 
L 425.274871 283.055433 
L 425.339424 283.144361 
L 425.516946 283.589002 
L 425.581499 283.67793 
L 425.726743 283.944714 
L 425.839712 284.033642 
L 426.001094 284.389355 
L 426.097924 284.478283 
L 426.243169 284.745068 
L 426.32386 284.833996 
L 426.469105 285.10078 
L 426.565935 285.189709 
L 426.678903 285.367565 
L 426.695041 285.278637 
L 426.759594 285.456493 
L 426.856424 285.545421 
L 426.98553 285.723277 
L 427.033945 285.812206 
L 427.146913 285.901134 
L 427.243743 285.990062 
L 427.388988 286.256846 
L 427.421264 286.167918 
L 427.485818 286.256846 
L 428.131349 286.345775 
L 428.260456 286.523631 
L 429.148062 286.612559 
L 429.1642 286.701487 
L 429.244892 286.612559 
L 429.341722 286.523631 
L 429.45469 286.612559 
L 429.729041 286.701487 
L 429.793594 286.790415 
L 429.82587 286.701487 
L 430.697338 286.612559 
L 430.810306 286.523631 
L 431.310594 286.434703 
L 431.375147 286.345775 
L 431.407423 286.434703 
L 431.972264 286.345775 
L 432.10137 286.167918 
L 432.633934 286.07899 
L 432.746902 285.990062 
L 433.392434 285.901134 
L 433.505402 285.812206 
L 433.795891 285.723277 
L 433.860444 285.545421 
L 433.908859 285.634349 
L 433.989551 285.723277 
L 434.005689 285.634349 
L 434.74805 285.545421 
L 434.861019 285.456493 
L 435.232199 285.367565 
L 435.345167 285.278637 
L 435.635657 285.189709 
L 435.732486 285.10078 
L 435.780901 285.189709 
L 435.780901 285.189709 
" style="fill:none;stroke:#1f77b4;stroke-linecap:square;stroke-width:1.5;"/>
   </g>
   <g id="line2d_14">
    <path clip-path="url(#p7043a5234e)" d="M 80.754545 277.168388 
L 81.416216 279.026062 
L 84.353385 285.38222 
L 84.692289 285.928595 
L 85.079609 286.529607 
L 85.709002 287.403806 
L 85.999491 287.786269 
L 87.968363 289.84428 
L 88.113608 289.953555 
L 88.613895 290.354229 
L 88.775278 290.463504 
L 88.904385 290.554567 
L 90.001789 277.168388 
L 90.953948 267.66147 
L 92.051352 258.755563 
L 93.406969 250.323182 
L 94.197745 246.462134 
L 94.698032 244.385911 
L 95.295149 242.200412 
L 96.279585 239.249989 
L 98.022521 235.589279 
L 98.474394 234.915417 
L 98.797159 234.460105 
L 100.346436 232.875619 
L 100.507819 232.766344 
L 100.911276 232.474944 
L 101.104936 232.365669 
L 101.395425 232.201757 
L 101.621361 232.092482 
L 101.879574 231.964994 
L 102.170063 231.855719 
L 102.395999 231.764657 
L 102.783318 231.655382 
L 102.993116 231.582532 
L 103.574095 231.473257 
L 103.751616 231.436832 
L 104.832882 231.327557 
L 104.994265 231.309345 
L 108.028264 231.41862 
L 108.189647 231.436832 
L 109.222498 231.546107 
L 109.400019 231.582532 
L 110.43287 231.691807 
L 110.610392 231.728232 
L 111.627104 231.837507 
L 111.804625 231.873932 
L 112.853615 231.983207 
L 113.031136 232.019632 
L 114.176955 232.128907 
L 114.338338 232.147119 
L 115.468018 232.256394 
L 115.629401 232.274607 
L 116.985018 232.383882 
L 117.146401 232.402094 
L 118.85706 232.511369 
L 119.018443 232.529581 
L 121.487603 232.638856 
L 121.648985 232.657069 
L 126.700272 232.766344 
L 126.861655 232.784556 
L 153.457565 232.820981 
L 154.877735 250.578157 
L 155.797618 259.720825 
L 156.862746 268.335332 
L 158.186086 276.567376 
L 160.090405 284.671933 
L 160.397032 285.637195 
L 161.058702 287.494869 
L 162.559564 290.609204 
L 162.963021 291.228429 
L 163.285787 291.683741 
L 164.786649 293.21359 
L 164.948031 293.322865 
L 165.319212 293.57784 
L 165.512872 293.687114 
L 165.803361 293.851027 
L 166.061574 293.960302 
L 166.303648 294.069577 
L 166.610276 294.178852 
L 166.820074 294.251702 
L 167.271946 294.360977 
L 167.465606 294.415614 
L 168.27252 294.524889 
L 168.433903 294.543101 
L 169.515169 294.579526 
L 169.531307 277.168388 
L 169.628137 277.459788 
L 170.160701 278.935 
L 170.660988 280.246299 
L 172.82352 284.854058 
L 173.114009 285.345795 
L 173.565881 286.092507 
L 174.05003 286.802794 
L 174.372796 287.258106 
L 176.9872 290.044617 
L 177.132444 290.153892 
L 177.568178 290.481717 
L 177.681146 290.554567 
L 178.843104 271.54073 
L 179.908231 257.517114 
L 180.763561 248.265171 
L 182.296699 235.425367 
L 182.958369 231.072582 
L 183.652316 227.120473 
L 184.507645 222.913388 
L 186.202166 215.774093 
L 186.654038 213.861782 
L 187.525506 209.436147 
L 188.05807 205.101575 
L 188.348559 200.584878 
L 188.509942 194.920795 
L 188.574496 189.001736 
L 188.687464 227.375448 
L 188.832708 227.375448 
L 188.961815 231.655382 
L 189.784868 255.87799 
L 190.575644 272.068892 
L 191.221176 281.138711 
L 191.85057 287.021344 
L 192.463825 290.463504 
L 193.012527 291.938716 
L 193.238463 292.193691 
L 193.722612 292.084416 
L 194.093793 291.501616 
L 194.626356 290.026404 
L 195.25575 287.513081 
L 196.078803 283.287784 
L 197.369867 275.383565 
L 200.27476 256.46079 
L 203.421727 239.322839 
L 205.067833 232.402094 
L 207.84362 223.386913 
L 208.40846 221.838851 
L 208.941024 220.418277 
L 209.715662 218.396691 
L 210.248226 216.976117 
L 210.813066 215.428056 
L 212.443034 209.52721 
L 213.007875 205.7208 
L 213.298364 202.187577 
L 213.508162 196.851318 
L 213.604991 190.130911 
L 213.71796 227.375448 
L 213.879342 227.375448 
L 214.734672 254.257079 
L 215.477034 270.684743 
L 216.187119 281.521173 
L 216.784236 287.604144 
L 217.365214 291.355916 
L 217.88164 293.177165 
L 218.25282 293.741752 
L 218.785384 293.632477 
L 219.124288 293.086102 
L 219.656852 291.610891 
L 220.253969 289.206843 
L 221.044746 285.127245 
L 222.255118 277.678338 
L 225.918511 253.619642 
L 228.4845 239.759939 
L 230.291989 232.110694 
L 233.003222 223.314063 
L 233.584201 221.729576 
L 234.132903 220.254365 
L 234.907541 218.232779 
L 235.456243 216.757567 
L 235.988807 215.282356 
L 237.554222 209.60006 
L 238.119062 205.848287 
L 238.474104 201.240528 
L 238.667764 195.121132 
L 238.732317 189.620961 
L 238.845285 227.375448 
L 238.99053 227.375448 
L 239.103498 231.181857 
L 239.926551 256.151178 
L 240.685051 272.305654 
L 241.314444 281.666873 
L 241.911561 287.713419 
L 242.331157 292.41224 
L 243.05738 307.765367 
L 243.832018 319.822034 
L 244.638933 328.491178 
L 245.219912 332.7529 
L 245.687922 335.193373 
L 246.188209 336.941772 
L 246.817603 338.089159 
L 247.156507 338.307709 
L 247.656794 338.198434 
L 248.447571 337.14211 
L 249.59339 334.282749 
L 251.965719 325.86858 
L 252.708081 323.027432 
L 253.870038 318.711072 
L 254.41874 316.744124 
L 256.548995 309.914441 
L 257.081559 308.439229 
L 257.597984 307.073293 
L 258.291931 305.379531 
L 258.308069 277.168388 
L 258.404899 277.459788 
L 258.937463 278.935 
L 259.43775 280.246299 
L 261.600281 284.854058 
L 261.890771 285.345795 
L 262.342643 286.092507 
L 262.826792 286.802794 
L 263.149558 287.258106 
L 265.763962 290.044617 
L 265.909206 290.153892 
L 266.34494 290.481717 
L 266.457908 290.554567 
L 267.700557 259.884738 
L 268.878652 236.973428 
L 269.798535 222.367013 
L 270.928216 204.190951 
L 271.17029 195.540019 
L 271.234844 189.347774 
L 271.347812 227.375448 
L 271.493056 227.375448 
L 271.606024 229.979833 
L 272.283833 244.058086 
L 272.864811 252.617955 
L 273.429652 258.300251 
L 273.978354 261.760624 
L 274.430226 263.308685 
L 274.76913 263.818635 
L 275.237141 263.70936 
L 275.559907 263.181198 
L 275.995641 261.924536 
L 276.528204 259.739038 
L 277.157598 256.406153 
L 279.804278 237.738353 
L 283.370842 208.72586 
L 283.774299 202.35149 
L 283.967959 195.776782 
L 284.032512 190.440523 
L 284.14548 227.375448 
L 284.306863 227.375448 
L 285.097639 247.445609 
L 285.791586 259.356576 
L 286.420979 266.386596 
L 286.905128 269.792331 
L 287.486107 271.923192 
L 287.776596 272.323867 
L 288.196192 272.214592 
L 289.003107 270.120156 
L 289.939128 265.403121 
L 291.649787 253.073267 
L 294.248053 231.673595 
L 295.280903 223.350488 
L 296.620382 211.894833 
L 297.136807 205.593312 
L 297.411158 199.564979 
L 297.556403 191.460422 
L 297.572541 189.384199 
L 297.685509 227.375448 
L 297.830754 227.375448 
L 297.943722 230.453358 
L 298.702222 248.77512 
L 299.315477 259.046963 
L 299.928732 265.931284 
L 300.574264 270.174793 
L 300.99386 271.558942 
L 301.300488 271.977829 
L 301.494147 272.032467 
L 301.671668 271.923192 
L 302.026711 271.358605 
L 302.41403 270.229431 
L 303.543711 264.619984 
L 305.15754 252.94578 
L 308.239954 227.721485 
L 309.256667 219.544078 
L 310.160412 211.548796 
L 310.64456 205.556888 
L 310.918911 199.492129 
L 311.064156 191.241872 
L 311.080294 189.074586 
L 311.193262 227.375448 
L 311.338507 227.375448 
L 311.451475 230.453358 
L 312.209975 248.77512 
L 312.92006 260.321837 
L 313.565592 266.987608 
L 314.227262 270.73938 
L 314.646858 271.795705 
L 314.985762 272.014254 
L 315.599017 271.17648 
L 316.470485 267.843595 
L 317.680857 260.394687 
L 318.616878 253.31003 
L 321.731569 227.83076 
L 322.732144 219.799053 
L 323.668165 211.530583 
L 324.152314 205.520463 
L 324.410526 199.947441 
L 324.555771 192.662446 
L 324.588047 188.728549 
L 324.701016 227.375448 
L 324.84626 227.375448 
L 324.959228 230.453358 
L 325.717728 248.756908 
L 326.330983 259.010538 
L 326.944239 265.876646 
L 327.444526 269.409869 
L 327.847983 271.085418 
L 328.170749 271.795705 
L 328.477377 271.977829 
L 328.703313 271.868554 
L 329.026079 271.340392 
L 329.429536 270.174793 
L 330.559217 264.565347 
L 331.011089 261.596712 
L 331.027227 261.960961 
L 332.076216 281.047648 
L 332.818578 291.046304 
L 333.738461 300.17076 
L 334.593791 306.053393 
L 335.287737 309.368066 
L 336.239897 312.209214 
L 336.756322 313.101626 
L 337.450269 313.720851 
L 338.628364 313.611576 
L 339.04796 313.301964 
L 339.177066 313.192689 
L 340.629513 311.389652 
L 341.03297 310.752215 
L 341.371874 310.205841 
L 341.856023 309.386279 
L 342.146513 308.894542 
L 342.711353 307.892855 
L 342.985704 307.41933 
L 343.534406 306.454068 
L 343.824895 305.962331 
L 344.341321 305.069919 
L 344.664087 304.541757 
L 345.115959 303.795045 
L 345.503278 303.194033 
L 345.890597 302.593021 
L 346.390884 301.864521 
L 346.729788 301.372784 
L 347.068693 300.917472 
L 347.084831 277.168388 
L 347.181661 277.459788 
L 347.714225 278.935 
L 348.214512 280.246299 
L 350.377043 284.854058 
L 350.667533 285.345795 
L 351.119405 286.092507 
L 351.603554 286.802794 
L 351.92632 287.258106 
L 354.540723 290.044617 
L 354.685968 290.153892 
L 355.121702 290.481717 
L 355.23467 290.554567 
L 356.315936 235.716767 
L 357.187404 190.731923 
L 357.300372 227.375448 
L 357.477893 227.302598 
L 357.752244 226.009511 
L 358.220255 222.767688 
L 358.720542 217.977804 
L 359.333797 209.81861 
L 359.704978 201.69584 
L 359.866361 194.01017 
L 359.898637 190.71371 
L 360.011605 227.375448 
L 360.172988 227.375448 
L 360.81852 238.248303 
L 361.302669 242.892487 
L 361.77068 244.914073 
L 361.996616 245.150835 
L 362.174137 245.04156 
L 362.561456 243.912386 
L 362.99719 241.435488 
L 363.481339 237.410528 
L 364.368945 227.284385 
L 365.321105 212.932945 
L 365.772977 202.806802 
L 365.966636 193.172396 
L 365.998913 189.165649 
L 366.111881 227.375448 
L 366.257126 227.375448 
L 366.386232 229.524521 
L 366.918796 236.700241 
L 367.35453 240.051339 
L 367.677296 241.271575 
L 367.91937 241.562975 
L 368.096891 241.4537 
L 368.516487 240.233464 
L 368.936083 237.847628 
L 369.726859 230.744758 
L 370.646742 219.125191 
L 371.308412 207.797023 
L 371.61504 198.654355 
L 371.728008 189.912361 
L 371.840976 227.375448 
L 371.98622 227.375448 
L 372.099189 229.287759 
L 372.615614 236.645604 
L 373.051348 240.324526 
L 373.438667 241.8908 
L 373.680741 242.163987 
L 373.858263 242.054712 
L 374.035784 241.690463 
L 374.26172 240.907326 
L 374.697454 238.430427 
L 375.181603 234.42368 
L 376.085347 224.133625 
L 376.940677 211.057059 
L 377.344134 201.276953 
L 377.505517 191.952159 
L 377.521656 189.857723 
L 377.634624 227.375448 
L 377.779868 227.375448 
L 377.892837 229.287759 
L 378.473815 237.264828 
L 378.909549 240.597713 
L 379.232315 241.799738 
L 379.474389 242.072925 
L 379.635772 241.96365 
L 379.829432 241.581188 
L 380.265166 239.723514 
L 380.717038 236.554541 
L 381.249602 231.49147 
L 381.878995 223.969712 
L 382.718187 211.129909 
L 383.089368 202.533615 
L 383.266889 193.991958 
L 383.299165 190.586223 
L 383.412133 227.375448 
L 383.573516 227.375448 
L 384.186772 236.518116 
L 384.703197 240.652351 
L 385.106654 241.96365 
L 385.332591 242.054712 
L 385.62308 241.562975 
L 386.042676 239.778152 
L 386.494548 236.627391 
L 387.04325 231.41862 
L 387.979271 219.616928 
L 388.527973 210.692809 
L 388.915292 201.185891 
L 389.076675 191.678972 
L 389.092813 189.475261 
L 389.205781 227.375448 
L 389.351026 227.375448 
L 389.463994 229.287759 
L 390.044973 237.264828 
L 390.480707 240.597713 
L 390.884164 241.927225 
L 391.061685 242.054712 
L 391.20693 241.945438 
L 391.40059 241.562975 
L 391.836324 239.705302 
L 392.288196 236.536329 
L 392.82076 231.473257 
L 393.450153 223.9515 
L 394.289344 211.111696 
L 394.692802 201.40444 
L 394.854185 192.352834 
L 394.870323 190.404098 
L 394.983291 227.375448 
L 395.144674 227.375448 
L 395.757929 236.499904 
L 396.193663 240.178826 
L 396.500291 241.562975 
L 396.839195 242.054712 
L 397.000578 241.945438 
L 397.178099 241.581188 
L 397.404035 240.798051 
L 397.839769 238.321153 
L 398.323918 234.332618 
L 399.227663 224.060775 
L 400.066854 211.257396 
L 400.438035 202.752164 
L 400.631694 193.172396 
L 400.663971 189.183861 
L 400.776939 227.375448 
L 400.922184 227.375448 
L 401.035152 229.287759 
L 401.61613 237.264828 
L 402.051864 240.597713 
L 402.455322 241.927225 
L 402.681258 242.0365 
L 402.971747 241.562975 
L 403.407481 239.705302 
L 403.859353 236.536329 
L 404.391917 231.473257 
L 405.344077 219.471228 
L 406.005747 208.234123 
L 406.312374 199.510342 
L 406.441481 190.34946 
L 406.554449 227.375448 
L 406.715832 227.375448 
L 407.329087 236.481691 
L 407.764821 240.160614 
L 408.15214 241.7451 
L 408.394214 242.018287 
L 408.571736 241.909013 
L 408.991331 240.688776 
L 409.410927 238.284728 
L 410.201703 231.163645 
L 411.121586 219.544078 
L 411.799395 207.979148 
L 412.089884 199.710679 
L 412.21899 190.986898 
L 412.331958 227.375448 
L 412.493341 227.375448 
L 413.106597 236.518116 
L 413.542331 240.215251 
L 413.92965 241.799738 
L 414.171724 242.091137 
L 414.349245 241.981862 
L 414.526767 241.617613 
L 414.752703 240.834476 
L 415.188437 238.37579 
L 415.672586 234.369043 
L 416.253564 228.140372 
L 416.915234 219.41659 
L 417.576904 208.143061 
L 417.883532 199.346429 
L 418.012638 189.766661 
L 418.125606 227.375448 
L 418.270851 227.375448 
L 418.383819 229.287759 
L 418.900245 236.609179 
L 419.400532 240.615926 
L 419.803989 242.874274 
L 420.659319 285.89217 
L 421.466234 315.851712 
L 422.224733 336.358973 
L 422.950957 350.327951 
L 423.628765 359.306707 
L 424.306573 365.061853 
L 424.774584 367.502326 
L 425.145765 368.686138 
L 425.516946 369.268938 
L 426.114063 369.159663 
L 426.452967 368.613288 
L 427.001669 367.101652 
L 427.663339 364.479053 
L 428.550945 359.962356 
L 430.051807 350.874325 
L 431.988402 338.508046 
L 435.538827 319.093535 
L 435.845455 317.709385 
L 435.845455 317.709385 
" style="fill:none;stroke:#ff0000;stroke-linecap:square;stroke-width:1.5;"/>
   </g>
   <g id="patch_3">
    <path d="M 63 384.48 
L 63 51.84 
" style="fill:none;stroke:#000000;stroke-linecap:square;stroke-linejoin:miter;stroke-width:0.8;"/>
   </g>
   <g id="patch_4">
    <path d="M 453.6 384.48 
L 453.6 51.84 
" style="fill:none;stroke:#000000;stroke-linecap:square;stroke-linejoin:miter;stroke-width:0.8;"/>
   </g>
   <g id="patch_5">
    <path d="M 63 384.48 
L 453.6 384.48 
" style="fill:none;stroke:#000000;stroke-linecap:square;stroke-linejoin:miter;stroke-width:0.8;"/>
   </g>
   <g id="patch_6">
    <path d="M 63 51.84 
L 453.6 51.84 
" style="fill:none;stroke:#000000;stroke-linecap:square;stroke-linejoin:miter;stroke-width:0.8;"/>
   </g>
   <g id="legend_1">
    <g id="patch_7">
     <path d="M 70 89.19625 
L 133.139062 89.19625 
Q 135.139062 89.19625 135.139062 87.19625 
L 135.139062 58.84 
Q 135.139062 56.84 133.139062 56.84 
L 70 56.84 
Q 68 56.84 68 58.84 
L 68 87.19625 
Q 68 89.19625 70 89.19625 
z
" style="fill:#ffffff;opacity:0.8;stroke:#cccccc;stroke-linejoin:miter;"/>
    </g>
    <g id="line2d_15">
     <path d="M 72 64.938437 
L 92 64.938437 
" style="fill:none;stroke:#1f77b4;stroke-linecap:square;stroke-width:1.5;"/>
    </g>
    <g id="line2d_16"/>
    <g id="text_15">
     <!-- target -->
     <defs>
      <path d="M 41.109375 46.296875 
Q 39.59375 47.171875 37.8125 47.578125 
Q 36.03125 48 33.890625 48 
Q 26.265625 48 22.1875 43.046875 
Q 18.109375 38.09375 18.109375 28.8125 
L 18.109375 0 
L 9.078125 0 
L 9.078125 54.6875 
L 18.109375 54.6875 
L 18.109375 46.1875 
Q 20.953125 51.171875 25.484375 53.578125 
Q 30.03125 56 36.53125 56 
Q 37.453125 56 38.578125 55.875 
Q 39.703125 55.765625 41.0625 55.515625 
z
" id="DejaVuSans-114"/>
     </defs>
     <g transform="translate(100 68.438437)scale(0.1 -0.1)">
      <use xlink:href="#DejaVuSans-116"/>
      <use x="39.208984" xlink:href="#DejaVuSans-97"/>
      <use x="100.488281" xlink:href="#DejaVuSans-114"/>
      <use x="141.585938" xlink:href="#DejaVuSans-103"/>
      <use x="205.0625" xlink:href="#DejaVuSans-101"/>
      <use x="266.585938" xlink:href="#DejaVuSans-116"/>
     </g>
    </g>
    <g id="line2d_17">
     <path d="M 72 79.616562 
L 92 79.616562 
" style="fill:none;stroke:#ff0000;stroke-linecap:square;stroke-width:1.5;"/>
    </g>
    <g id="line2d_18"/>
    <g id="text_16">
     <!-- model -->
     <defs>
      <path d="M 45.40625 46.390625 
L 45.40625 75.984375 
L 54.390625 75.984375 
L 54.390625 0 
L 45.40625 0 
L 45.40625 8.203125 
Q 42.578125 3.328125 38.25 0.953125 
Q 33.9375 -1.421875 27.875 -1.421875 
Q 17.96875 -1.421875 11.734375 6.484375 
Q 5.515625 14.40625 5.515625 27.296875 
Q 5.515625 40.1875 11.734375 48.09375 
Q 17.96875 56 27.875 56 
Q 33.9375 56 38.25 53.625 
Q 42.578125 51.265625 45.40625 46.390625 
z
M 14.796875 27.296875 
Q 14.796875 17.390625 18.875 11.75 
Q 22.953125 6.109375 30.078125 6.109375 
Q 37.203125 6.109375 41.296875 11.75 
Q 45.40625 17.390625 45.40625 27.296875 
Q 45.40625 37.203125 41.296875 42.84375 
Q 37.203125 48.484375 30.078125 48.484375 
Q 22.953125 48.484375 18.875 42.84375 
Q 14.796875 37.203125 14.796875 27.296875 
z
" id="DejaVuSans-100"/>
     </defs>
     <g transform="translate(100 83.116562)scale(0.1 -0.1)">
      <use xlink:href="#DejaVuSans-109"/>
      <use x="97.412109" xlink:href="#DejaVuSans-111"/>
      <use x="158.59375" xlink:href="#DejaVuSans-100"/>
      <use x="222.070312" xlink:href="#DejaVuSans-101"/>
      <use x="283.59375" xlink:href="#DejaVuSans-108"/>
     </g>
    </g>
   </g>
  </g>
 </g>
 <defs>
  <clipPath id="p7043a5234e">
   <rect height="332.64" width="390.6" x="63" y="51.84"/>
  </clipPath>
 </defs>
</svg>
