<?xml version="1.0" encoding="utf-8" standalone="no"?>
<!DOCTYPE svg PUBLIC "-//W3C//DTD SVG 1.1//EN"
  "http://www.w3.org/Graphics/SVG/1.1/DTD/svg11.dtd">
<!-- Created with matplotlib (http://matplotlib.org/) -->
<svg height="432pt" version="1.1" viewBox="0 0 504 432" width="504pt" xmlns="http://www.w3.org/2000/svg" xmlns:xlink="http://www.w3.org/1999/xlink">
 <defs>
  <style type="text/css">
*{stroke-linecap:butt;stroke-linejoin:round;}
  </style>
 </defs>
 <g id="figure_1">
  <g id="patch_1">
   <path d="M 0 432 
L 504 432 
L 504 0 
L 0 0 
z
" style="fill:#ffffff;"/>
  </g>
  <g id="axes_1">
   <g id="patch_2">
    <path d="M 63 384.48 
L 453.6 384.48 
L 453.6 51.84 
L 63 51.84 
z
" style="fill:#ffffff;"/>
   </g>
   <g id="matplotlib.axis_1">
    <g id="xtick_1">
     <g id="line2d_1">
      <defs>
       <path d="M 0 0 
L 0 3.5 
" id="me9a593a3f8" style="stroke:#000000;stroke-width:0.8;"/>
      </defs>
      <g>
       <use style="stroke:#000000;stroke-width:0.8;" x="80.754545" xlink:href="#me9a593a3f8" y="384.48"/>
      </g>
     </g>
     <g id="text_1">
      <!-- 0 -->
      <defs>
       <path d="M 31.78125 66.40625 
Q 24.171875 66.40625 20.328125 58.90625 
Q 16.5 51.421875 16.5 36.375 
Q 16.5 21.390625 20.328125 13.890625 
Q 24.171875 6.390625 31.78125 6.390625 
Q 39.453125 6.390625 43.28125 13.890625 
Q 47.125 21.390625 47.125 36.375 
Q 47.125 51.421875 43.28125 58.90625 
Q 39.453125 66.40625 31.78125 66.40625 
z
M 31.78125 74.21875 
Q 44.046875 74.21875 50.515625 64.515625 
Q 56.984375 54.828125 56.984375 36.375 
Q 56.984375 17.96875 50.515625 8.265625 
Q 44.046875 -1.421875 31.78125 -1.421875 
Q 19.53125 -1.421875 13.0625 8.265625 
Q 6.59375 17.96875 6.59375 36.375 
Q 6.59375 54.828125 13.0625 64.515625 
Q 19.53125 74.21875 31.78125 74.21875 
z
" id="DejaVuSans-30"/>
      </defs>
      <g transform="translate(77.573295 399.078438)scale(0.1 -0.1)">
       <use xlink:href="#DejaVuSans-30"/>
      </g>
     </g>
    </g>
    <g id="xtick_2">
     <g id="line2d_2">
      <g>
       <use style="stroke:#000000;stroke-width:0.8;" x="151.772727" xlink:href="#me9a593a3f8" y="384.48"/>
      </g>
     </g>
     <g id="text_2">
      <!-- 200 -->
      <defs>
       <path d="M 19.1875 8.296875 
L 53.609375 8.296875 
L 53.609375 0 
L 7.328125 0 
L 7.328125 8.296875 
Q 12.9375 14.109375 22.625 23.890625 
Q 32.328125 33.6875 34.8125 36.53125 
Q 39.546875 41.84375 41.421875 45.53125 
Q 43.3125 49.21875 43.3125 52.78125 
Q 43.3125 58.59375 39.234375 62.25 
Q 35.15625 65.921875 28.609375 65.921875 
Q 23.96875 65.921875 18.8125 64.3125 
Q 13.671875 62.703125 7.8125 59.421875 
L 7.8125 69.390625 
Q 13.765625 71.78125 18.9375 73 
Q 24.125 74.21875 28.421875 74.21875 
Q 39.75 74.21875 46.484375 68.546875 
Q 53.21875 62.890625 53.21875 53.421875 
Q 53.21875 48.921875 51.53125 44.890625 
Q 49.859375 40.875 45.40625 35.40625 
Q 44.1875 33.984375 37.640625 27.21875 
Q 31.109375 20.453125 19.1875 8.296875 
z
" id="DejaVuSans-32"/>
      </defs>
      <g transform="translate(142.228977 399.078438)scale(0.1 -0.1)">
       <use xlink:href="#DejaVuSans-32"/>
       <use x="63.623047" xlink:href="#DejaVuSans-30"/>
       <use x="127.246094" xlink:href="#DejaVuSans-30"/>
      </g>
     </g>
    </g>
    <g id="xtick_3">
     <g id="line2d_3">
      <g>
       <use style="stroke:#000000;stroke-width:0.8;" x="222.790909" xlink:href="#me9a593a3f8" y="384.48"/>
      </g>
     </g>
     <g id="text_3">
      <!-- 400 -->
      <defs>
       <path d="M 37.796875 64.3125 
L 12.890625 25.390625 
L 37.796875 25.390625 
z
M 35.203125 72.90625 
L 47.609375 72.90625 
L 47.609375 25.390625 
L 58.015625 25.390625 
L 58.015625 17.1875 
L 47.609375 17.1875 
L 47.609375 0 
L 37.796875 0 
L 37.796875 17.1875 
L 4.890625 17.1875 
L 4.890625 26.703125 
z
" id="DejaVuSans-34"/>
      </defs>
      <g transform="translate(213.247159 399.078438)scale(0.1 -0.1)">
       <use xlink:href="#DejaVuSans-34"/>
       <use x="63.623047" xlink:href="#DejaVuSans-30"/>
       <use x="127.246094" xlink:href="#DejaVuSans-30"/>
      </g>
     </g>
    </g>
    <g id="xtick_4">
     <g id="line2d_4">
      <g>
       <use style="stroke:#000000;stroke-width:0.8;" x="293.809091" xlink:href="#me9a593a3f8" y="384.48"/>
      </g>
     </g>
     <g id="text_4">
      <!-- 600 -->
      <defs>
       <path d="M 33.015625 40.375 
Q 26.375 40.375 22.484375 35.828125 
Q 18.609375 31.296875 18.609375 23.390625 
Q 18.609375 15.53125 22.484375 10.953125 
Q 26.375 6.390625 33.015625 6.390625 
Q 39.65625 6.390625 43.53125 10.953125 
Q 47.40625 15.53125 47.40625 23.390625 
Q 47.40625 31.296875 43.53125 35.828125 
Q 39.65625 40.375 33.015625 40.375 
z
M 52.59375 71.296875 
L 52.59375 62.3125 
Q 48.875 64.0625 45.09375 64.984375 
Q 41.3125 65.921875 37.59375 65.921875 
Q 27.828125 65.921875 22.671875 59.328125 
Q 17.53125 52.734375 16.796875 39.40625 
Q 19.671875 43.65625 24.015625 45.921875 
Q 28.375 48.1875 33.59375 48.1875 
Q 44.578125 48.1875 50.953125 41.515625 
Q 57.328125 34.859375 57.328125 23.390625 
Q 57.328125 12.15625 50.6875 5.359375 
Q 44.046875 -1.421875 33.015625 -1.421875 
Q 20.359375 -1.421875 13.671875 8.265625 
Q 6.984375 17.96875 6.984375 36.375 
Q 6.984375 53.65625 15.1875 63.9375 
Q 23.390625 74.21875 37.203125 74.21875 
Q 40.921875 74.21875 44.703125 73.484375 
Q 48.484375 72.75 52.59375 71.296875 
z
" id="DejaVuSans-36"/>
      </defs>
      <g transform="translate(284.265341 399.078438)scale(0.1 -0.1)">
       <use xlink:href="#DejaVuSans-36"/>
       <use x="63.623047" xlink:href="#DejaVuSans-30"/>
       <use x="127.246094" xlink:href="#DejaVuSans-30"/>
      </g>
     </g>
    </g>
    <g id="xtick_5">
     <g id="line2d_5">
      <g>
       <use style="stroke:#000000;stroke-width:0.8;" x="364.827273" xlink:href="#me9a593a3f8" y="384.48"/>
      </g>
     </g>
     <g id="text_5">
      <!-- 800 -->
      <defs>
       <path d="M 31.78125 34.625 
Q 24.75 34.625 20.71875 30.859375 
Q 16.703125 27.09375 16.703125 20.515625 
Q 16.703125 13.921875 20.71875 10.15625 
Q 24.75 6.390625 31.78125 6.390625 
Q 38.8125 6.390625 42.859375 10.171875 
Q 46.921875 13.96875 46.921875 20.515625 
Q 46.921875 27.09375 42.890625 30.859375 
Q 38.875 34.625 31.78125 34.625 
z
M 21.921875 38.8125 
Q 15.578125 40.375 12.03125 44.71875 
Q 8.5 49.078125 8.5 55.328125 
Q 8.5 64.0625 14.71875 69.140625 
Q 20.953125 74.21875 31.78125 74.21875 
Q 42.671875 74.21875 48.875 69.140625 
Q 55.078125 64.0625 55.078125 55.328125 
Q 55.078125 49.078125 51.53125 44.71875 
Q 48 40.375 41.703125 38.8125 
Q 48.828125 37.15625 52.796875 32.3125 
Q 56.78125 27.484375 56.78125 20.515625 
Q 56.78125 9.90625 50.3125 4.234375 
Q 43.84375 -1.421875 31.78125 -1.421875 
Q 19.734375 -1.421875 13.25 4.234375 
Q 6.78125 9.90625 6.78125 20.515625 
Q 6.78125 27.484375 10.78125 32.3125 
Q 14.796875 37.15625 21.921875 38.8125 
z
M 18.3125 54.390625 
Q 18.3125 48.734375 21.84375 45.5625 
Q 25.390625 42.390625 31.78125 42.390625 
Q 38.140625 42.390625 41.71875 45.5625 
Q 45.3125 48.734375 45.3125 54.390625 
Q 45.3125 60.0625 41.71875 63.234375 
Q 38.140625 66.40625 31.78125 66.40625 
Q 25.390625 66.40625 21.84375 63.234375 
Q 18.3125 60.0625 18.3125 54.390625 
z
" id="DejaVuSans-38"/>
      </defs>
      <g transform="translate(355.283523 399.078438)scale(0.1 -0.1)">
       <use xlink:href="#DejaVuSans-38"/>
       <use x="63.623047" xlink:href="#DejaVuSans-30"/>
       <use x="127.246094" xlink:href="#DejaVuSans-30"/>
      </g>
     </g>
    </g>
    <g id="text_6">
     <!-- time [ms] -->
     <defs>
      <path d="M 18.3125 70.21875 
L 18.3125 54.6875 
L 36.8125 54.6875 
L 36.8125 47.703125 
L 18.3125 47.703125 
L 18.3125 18.015625 
Q 18.3125 11.328125 20.140625 9.421875 
Q 21.96875 7.515625 27.59375 7.515625 
L 36.8125 7.515625 
L 36.8125 0 
L 27.59375 0 
Q 17.1875 0 13.234375 3.875 
Q 9.28125 7.765625 9.28125 18.015625 
L 9.28125 47.703125 
L 2.6875 47.703125 
L 2.6875 54.6875 
L 9.28125 54.6875 
L 9.28125 70.21875 
z
" id="DejaVuSans-74"/>
      <path d="M 9.421875 54.6875 
L 18.40625 54.6875 
L 18.40625 0 
L 9.421875 0 
z
M 9.421875 75.984375 
L 18.40625 75.984375 
L 18.40625 64.59375 
L 9.421875 64.59375 
z
" id="DejaVuSans-69"/>
      <path d="M 52 44.1875 
Q 55.375 50.25 60.0625 53.125 
Q 64.75 56 71.09375 56 
Q 79.640625 56 84.28125 50.015625 
Q 88.921875 44.046875 88.921875 33.015625 
L 88.921875 0 
L 79.890625 0 
L 79.890625 32.71875 
Q 79.890625 40.578125 77.09375 44.375 
Q 74.3125 48.1875 68.609375 48.1875 
Q 61.625 48.1875 57.5625 43.546875 
Q 53.515625 38.921875 53.515625 30.90625 
L 53.515625 0 
L 44.484375 0 
L 44.484375 32.71875 
Q 44.484375 40.625 41.703125 44.40625 
Q 38.921875 48.1875 33.109375 48.1875 
Q 26.21875 48.1875 22.15625 43.53125 
Q 18.109375 38.875 18.109375 30.90625 
L 18.109375 0 
L 9.078125 0 
L 9.078125 54.6875 
L 18.109375 54.6875 
L 18.109375 46.1875 
Q 21.1875 51.21875 25.484375 53.609375 
Q 29.78125 56 35.6875 56 
Q 41.65625 56 45.828125 52.96875 
Q 50 49.953125 52 44.1875 
z
" id="DejaVuSans-6d"/>
      <path d="M 56.203125 29.59375 
L 56.203125 25.203125 
L 14.890625 25.203125 
Q 15.484375 15.921875 20.484375 11.0625 
Q 25.484375 6.203125 34.421875 6.203125 
Q 39.59375 6.203125 44.453125 7.46875 
Q 49.3125 8.734375 54.109375 11.28125 
L 54.109375 2.78125 
Q 49.265625 0.734375 44.1875 -0.34375 
Q 39.109375 -1.421875 33.890625 -1.421875 
Q 20.796875 -1.421875 13.15625 6.1875 
Q 5.515625 13.8125 5.515625 26.8125 
Q 5.515625 40.234375 12.765625 48.109375 
Q 20.015625 56 32.328125 56 
Q 43.359375 56 49.78125 48.890625 
Q 56.203125 41.796875 56.203125 29.59375 
z
M 47.21875 32.234375 
Q 47.125 39.59375 43.09375 43.984375 
Q 39.0625 48.390625 32.421875 48.390625 
Q 24.90625 48.390625 20.390625 44.140625 
Q 15.875 39.890625 15.1875 32.171875 
z
" id="DejaVuSans-65"/>
      <path id="DejaVuSans-20"/>
      <path d="M 8.59375 75.984375 
L 29.296875 75.984375 
L 29.296875 69 
L 17.578125 69 
L 17.578125 -6.203125 
L 29.296875 -6.203125 
L 29.296875 -13.1875 
L 8.59375 -13.1875 
z
" id="DejaVuSans-5b"/>
      <path d="M 44.28125 53.078125 
L 44.28125 44.578125 
Q 40.484375 46.53125 36.375 47.5 
Q 32.28125 48.484375 27.875 48.484375 
Q 21.1875 48.484375 17.84375 46.4375 
Q 14.5 44.390625 14.5 40.28125 
Q 14.5 37.15625 16.890625 35.375 
Q 19.28125 33.59375 26.515625 31.984375 
L 29.59375 31.296875 
Q 39.15625 29.25 43.1875 25.515625 
Q 47.21875 21.78125 47.21875 15.09375 
Q 47.21875 7.46875 41.1875 3.015625 
Q 35.15625 -1.421875 24.609375 -1.421875 
Q 20.21875 -1.421875 15.453125 -0.5625 
Q 10.6875 0.296875 5.421875 2 
L 5.421875 11.28125 
Q 10.40625 8.6875 15.234375 7.390625 
Q 20.0625 6.109375 24.8125 6.109375 
Q 31.15625 6.109375 34.5625 8.28125 
Q 37.984375 10.453125 37.984375 14.40625 
Q 37.984375 18.0625 35.515625 20.015625 
Q 33.0625 21.96875 24.703125 23.78125 
L 21.578125 24.515625 
Q 13.234375 26.265625 9.515625 29.90625 
Q 5.8125 33.546875 5.8125 39.890625 
Q 5.8125 47.609375 11.28125 51.796875 
Q 16.75 56 26.8125 56 
Q 31.78125 56 36.171875 55.265625 
Q 40.578125 54.546875 44.28125 53.078125 
z
" id="DejaVuSans-73"/>
      <path d="M 30.421875 75.984375 
L 30.421875 -13.1875 
L 9.71875 -13.1875 
L 9.71875 -6.203125 
L 21.390625 -6.203125 
L 21.390625 69 
L 9.71875 69 
L 9.71875 75.984375 
z
" id="DejaVuSans-5d"/>
     </defs>
     <g transform="translate(234.038281 412.756563)scale(0.1 -0.1)">
      <use xlink:href="#DejaVuSans-74"/>
      <use x="39.208984" xlink:href="#DejaVuSans-69"/>
      <use x="66.992188" xlink:href="#DejaVuSans-6d"/>
      <use x="164.404297" xlink:href="#DejaVuSans-65"/>
      <use x="225.927734" xlink:href="#DejaVuSans-20"/>
      <use x="257.714844" xlink:href="#DejaVuSans-5b"/>
      <use x="296.728516" xlink:href="#DejaVuSans-6d"/>
      <use x="394.140625" xlink:href="#DejaVuSans-73"/>
      <use x="446.240234" xlink:href="#DejaVuSans-5d"/>
     </g>
    </g>
   </g>
   <g id="matplotlib.axis_2">
    <g id="ytick_1">
     <g id="line2d_6">
      <defs>
       <path d="M 0 0 
L -3.5 0 
" id="m85e7da585c" style="stroke:#000000;stroke-width:0.8;"/>
      </defs>
      <g>
       <use style="stroke:#000000;stroke-width:0.8;" x="63" xlink:href="#m85e7da585c" y="380.319729"/>
      </g>
     </g>
     <g id="text_7">
      <!-- −80 -->
      <defs>
       <path d="M 10.59375 35.5 
L 73.1875 35.5 
L 73.1875 27.203125 
L 10.59375 27.203125 
z
" id="DejaVuSans-2212"/>
      </defs>
      <g transform="translate(34.895313 384.118948)scale(0.1 -0.1)">
       <use xlink:href="#DejaVuSans-2212"/>
       <use x="83.789062" xlink:href="#DejaVuSans-38"/>
       <use x="147.412109" xlink:href="#DejaVuSans-30"/>
      </g>
     </g>
    </g>
    <g id="ytick_2">
     <g id="line2d_7">
      <g>
       <use style="stroke:#000000;stroke-width:0.8;" x="63" xlink:href="#m85e7da585c" y="328.978241"/>
      </g>
     </g>
     <g id="text_8">
      <!-- −60 -->
      <g transform="translate(34.895313 332.777459)scale(0.1 -0.1)">
       <use xlink:href="#DejaVuSans-2212"/>
       <use x="83.789062" xlink:href="#DejaVuSans-36"/>
       <use x="147.412109" xlink:href="#DejaVuSans-30"/>
      </g>
     </g>
    </g>
    <g id="ytick_3">
     <g id="line2d_8">
      <g>
       <use style="stroke:#000000;stroke-width:0.8;" x="63" xlink:href="#m85e7da585c" y="277.636753"/>
      </g>
     </g>
     <g id="text_9">
      <!-- −40 -->
      <g transform="translate(34.895313 281.435971)scale(0.1 -0.1)">
       <use xlink:href="#DejaVuSans-2212"/>
       <use x="83.789062" xlink:href="#DejaVuSans-34"/>
       <use x="147.412109" xlink:href="#DejaVuSans-30"/>
      </g>
     </g>
    </g>
    <g id="ytick_4">
     <g id="line2d_9">
      <g>
       <use style="stroke:#000000;stroke-width:0.8;" x="63" xlink:href="#m85e7da585c" y="226.295264"/>
      </g>
     </g>
     <g id="text_10">
      <!-- −20 -->
      <g transform="translate(34.895313 230.094483)scale(0.1 -0.1)">
       <use xlink:href="#DejaVuSans-2212"/>
       <use x="83.789062" xlink:href="#DejaVuSans-32"/>
       <use x="147.412109" xlink:href="#DejaVuSans-30"/>
      </g>
     </g>
    </g>
    <g id="ytick_5">
     <g id="line2d_10">
      <g>
       <use style="stroke:#000000;stroke-width:0.8;" x="63" xlink:href="#m85e7da585c" y="174.953776"/>
      </g>
     </g>
     <g id="text_11">
      <!-- 0 -->
      <g transform="translate(49.6375 178.752995)scale(0.1 -0.1)">
       <use xlink:href="#DejaVuSans-30"/>
      </g>
     </g>
    </g>
    <g id="ytick_6">
     <g id="line2d_11">
      <g>
       <use style="stroke:#000000;stroke-width:0.8;" x="63" xlink:href="#m85e7da585c" y="123.612288"/>
      </g>
     </g>
     <g id="text_12">
      <!-- 20 -->
      <g transform="translate(43.275 127.411507)scale(0.1 -0.1)">
       <use xlink:href="#DejaVuSans-32"/>
       <use x="63.623047" xlink:href="#DejaVuSans-30"/>
      </g>
     </g>
    </g>
    <g id="ytick_7">
     <g id="line2d_12">
      <g>
       <use style="stroke:#000000;stroke-width:0.8;" x="63" xlink:href="#m85e7da585c" y="72.2708"/>
      </g>
     </g>
     <g id="text_13">
      <!-- 40 -->
      <g transform="translate(43.275 76.070019)scale(0.1 -0.1)">
       <use xlink:href="#DejaVuSans-34"/>
       <use x="63.623047" xlink:href="#DejaVuSans-30"/>
      </g>
     </g>
    </g>
    <g id="text_14">
     <!-- voltage [mV] -->
     <defs>
      <path d="M 2.984375 54.6875 
L 12.5 54.6875 
L 29.59375 8.796875 
L 46.6875 54.6875 
L 56.203125 54.6875 
L 35.6875 0 
L 23.484375 0 
z
" id="DejaVuSans-76"/>
      <path d="M 30.609375 48.390625 
Q 23.390625 48.390625 19.1875 42.75 
Q 14.984375 37.109375 14.984375 27.296875 
Q 14.984375 17.484375 19.15625 11.84375 
Q 23.34375 6.203125 30.609375 6.203125 
Q 37.796875 6.203125 41.984375 11.859375 
Q 46.1875 17.53125 46.1875 27.296875 
Q 46.1875 37.015625 41.984375 42.703125 
Q 37.796875 48.390625 30.609375 48.390625 
z
M 30.609375 56 
Q 42.328125 56 49.015625 48.375 
Q 55.71875 40.765625 55.71875 27.296875 
Q 55.71875 13.875 49.015625 6.21875 
Q 42.328125 -1.421875 30.609375 -1.421875 
Q 18.84375 -1.421875 12.171875 6.21875 
Q 5.515625 13.875 5.515625 27.296875 
Q 5.515625 40.765625 12.171875 48.375 
Q 18.84375 56 30.609375 56 
z
" id="DejaVuSans-6f"/>
      <path d="M 9.421875 75.984375 
L 18.40625 75.984375 
L 18.40625 0 
L 9.421875 0 
z
" id="DejaVuSans-6c"/>
      <path d="M 34.28125 27.484375 
Q 23.390625 27.484375 19.1875 25 
Q 14.984375 22.515625 14.984375 16.5 
Q 14.984375 11.71875 18.140625 8.90625 
Q 21.296875 6.109375 26.703125 6.109375 
Q 34.1875 6.109375 38.703125 11.40625 
Q 43.21875 16.703125 43.21875 25.484375 
L 43.21875 27.484375 
z
M 52.203125 31.203125 
L 52.203125 0 
L 43.21875 0 
L 43.21875 8.296875 
Q 40.140625 3.328125 35.546875 0.953125 
Q 30.953125 -1.421875 24.3125 -1.421875 
Q 15.921875 -1.421875 10.953125 3.296875 
Q 6 8.015625 6 15.921875 
Q 6 25.140625 12.171875 29.828125 
Q 18.359375 34.515625 30.609375 34.515625 
L 43.21875 34.515625 
L 43.21875 35.40625 
Q 43.21875 41.609375 39.140625 45 
Q 35.0625 48.390625 27.6875 48.390625 
Q 23 48.390625 18.546875 47.265625 
Q 14.109375 46.140625 10.015625 43.890625 
L 10.015625 52.203125 
Q 14.9375 54.109375 19.578125 55.046875 
Q 24.21875 56 28.609375 56 
Q 40.484375 56 46.34375 49.84375 
Q 52.203125 43.703125 52.203125 31.203125 
z
" id="DejaVuSans-61"/>
      <path d="M 45.40625 27.984375 
Q 45.40625 37.75 41.375 43.109375 
Q 37.359375 48.484375 30.078125 48.484375 
Q 22.859375 48.484375 18.828125 43.109375 
Q 14.796875 37.75 14.796875 27.984375 
Q 14.796875 18.265625 18.828125 12.890625 
Q 22.859375 7.515625 30.078125 7.515625 
Q 37.359375 7.515625 41.375 12.890625 
Q 45.40625 18.265625 45.40625 27.984375 
z
M 54.390625 6.78125 
Q 54.390625 -7.171875 48.1875 -13.984375 
Q 42 -20.796875 29.203125 -20.796875 
Q 24.46875 -20.796875 20.265625 -20.09375 
Q 16.0625 -19.390625 12.109375 -17.921875 
L 12.109375 -9.1875 
Q 16.0625 -11.328125 19.921875 -12.34375 
Q 23.78125 -13.375 27.78125 -13.375 
Q 36.625 -13.375 41.015625 -8.765625 
Q 45.40625 -4.15625 45.40625 5.171875 
L 45.40625 9.625 
Q 42.625 4.78125 38.28125 2.390625 
Q 33.9375 0 27.875 0 
Q 17.828125 0 11.671875 7.65625 
Q 5.515625 15.328125 5.515625 27.984375 
Q 5.515625 40.671875 11.671875 48.328125 
Q 17.828125 56 27.875 56 
Q 33.9375 56 38.28125 53.609375 
Q 42.625 51.21875 45.40625 46.390625 
L 45.40625 54.6875 
L 54.390625 54.6875 
z
" id="DejaVuSans-67"/>
      <path d="M 28.609375 0 
L 0.78125 72.90625 
L 11.078125 72.90625 
L 34.1875 11.53125 
L 57.328125 72.90625 
L 67.578125 72.90625 
L 39.796875 0 
z
" id="DejaVuSans-56"/>
     </defs>
     <g transform="translate(28.815625 250.624062)rotate(-90)scale(0.1 -0.1)">
      <use xlink:href="#DejaVuSans-76"/>
      <use x="59.179688" xlink:href="#DejaVuSans-6f"/>
      <use x="120.361328" xlink:href="#DejaVuSans-6c"/>
      <use x="148.144531" xlink:href="#DejaVuSans-74"/>
      <use x="187.353516" xlink:href="#DejaVuSans-61"/>
      <use x="248.632812" xlink:href="#DejaVuSans-67"/>
      <use x="312.109375" xlink:href="#DejaVuSans-65"/>
      <use x="373.632812" xlink:href="#DejaVuSans-20"/>
      <use x="405.419922" xlink:href="#DejaVuSans-5b"/>
      <use x="444.433594" xlink:href="#DejaVuSans-6d"/>
      <use x="541.845703" xlink:href="#DejaVuSans-56"/>
      <use x="610.253906" xlink:href="#DejaVuSans-5d"/>
     </g>
    </g>
   </g>
   <g id="line2d_13">
    <path clip-path="url(#p695b9029a4)" d="M 80.754545 341.813613 
L 81.970732 341.679868 
L 83.808327 341.737627 
L 87.838609 341.743018 
L 151.772727 341.746099 
L 152.314241 298.203896 
L 152.420768 250.640371 
L 152.562805 73.103046 
L 152.678209 97.764929 
L 153.565936 367.717447 
L 153.610323 367.619128 
L 153.8145 366.270644 
L 154.293873 361.621672 
L 154.959668 352.701345 
L 157.42755 314.667058 
L 157.613973 303.784972 
L 157.738255 282.303437 
L 157.835905 221.125433 
L 157.969064 96.927293 
L 158.031205 109.789876 
L 158.883423 367.302351 
L 158.945564 367.122913 
L 159.203005 365.187339 
L 159.717886 359.639377 
L 160.534595 347.975105 
L 161.8218 330.244322 
L 162.514227 320.106175 
L 162.771668 312.75125 
L 162.940336 301.024084 
L 163.064618 273.67396 
L 163.162268 191.13438 
L 163.268795 97.827309 
L 163.322059 107.1309 
L 163.863573 297.931786 
L 164.147645 367.129587 
L 164.183155 367.27129 
L 164.245295 367.093905 
L 164.493859 365.232262 
L 165.008741 359.703554 
L 165.834327 347.918886 
L 167.112655 330.317227 
L 167.813959 320.071519 
L 168.0714 312.707096 
L 168.240068 300.941424 
L 168.36435 273.433168 
L 168.462 190.405203 
L 168.568527 97.902525 
L 168.621791 107.348075 
L 169.172182 301.796517 
L 169.4385 367.045644 
L 169.482886 367.269236 
L 169.545027 367.088 
L 169.802468 365.144468 
L 170.31735 359.579051 
L 171.151814 347.636251 
L 172.430141 330.079772 
L 173.113691 320.05355 
L 173.371132 312.671414 
L 173.5398 300.847726 
L 173.664082 273.102529 
L 173.761732 189.279258 
L 173.868259 97.918954 
L 173.921523 107.578855 
L 174.480791 305.778049 
L 174.729355 366.938597 
L 174.782618 367.269236 
L 174.844759 367.083893 
L 175.1022 365.137281 
L 175.617082 359.568526 
L 176.451545 347.623672 
L 177.729873 330.069247 
L 178.413423 320.037121 
L 178.670864 312.636245 
L 178.839532 300.752744 
L 178.963814 272.763162 
L 179.061464 188.120352 
L 179.167991 97.935897 
L 179.221255 107.812202 
L 179.7894 309.860467 
L 180.029086 366.950662 
L 180.08235 367.269493 
L 180.144491 367.079529 
L 180.401932 365.130093 
L 180.916814 359.558258 
L 181.751277 347.611607 
L 183.029605 330.058979 
L 183.713155 320.020435 
L 183.970595 312.600819 
L 184.139264 300.656736 
L 184.263545 272.415837 
L 184.361195 186.941064 
L 184.467723 97.959257 
L 184.520986 108.049143 
L 185.098009 314.032733 
L 185.328818 366.962471 
L 185.382082 367.269493 
L 185.444223 367.075422 
L 185.701664 365.122648 
L 186.216545 359.54799 
L 187.051009 347.599285 
L 188.329336 330.048711 
L 189.012886 320.004005 
L 189.270327 312.565137 
L 189.438995 300.559187 
L 189.563277 272.063377 
L 189.660927 185.757078 
L 189.767455 97.988265 
L 189.820718 108.288394 
L 190.406618 318.275594 
L 190.619673 366.83155 
L 190.681814 367.269236 
L 190.743955 367.071058 
L 191.010273 365.035881 
L 191.525155 359.425283 
L 192.368495 347.319987 
L 193.637945 329.925491 
L 194.312618 319.987063 
L 194.570059 312.529455 
L 194.738727 300.461125 
L 194.863009 271.707581 
L 194.969536 171.503243 
L 195.058309 97.975173 
L 195.12045 108.530213 
L 195.715227 322.563635 
L 195.919405 366.846695 
L 195.981545 367.269236 
L 196.043686 367.066694 
L 196.310005 365.028437 
L 196.833764 359.302064 
L 197.703736 346.774484 
L 198.955432 329.689577 
L 199.61235 319.970377 
L 199.869791 312.493259 
L 200.038459 300.362035 
L 200.162741 271.344597 
L 200.269268 170.267685 
L 200.358041 97.946422 
L 200.420182 108.776138 
L 201.023836 326.860661 
L 201.219136 366.861071 
L 201.281277 367.268723 
L 201.343418 367.06233 
L 201.609736 365.020992 
L 202.133495 359.291282 
L 202.994591 346.895137 
L 204.255164 329.679052 
L 204.912082 319.953177 
L 205.169523 312.45655 
L 205.338191 300.261406 
L 205.462473 270.974168 
L 205.569 169.023834 
L 205.657773 97.924601 
L 205.719914 109.023861 
L 206.332445 331.119694 
L 206.518868 366.875447 
L 206.581009 367.268466 
L 206.634273 367.103403 
L 206.873959 365.328271 
L 207.388841 359.840379 
L 208.187795 348.484669 
L 209.510509 330.231486 
L 210.202936 320.116443 
L 210.460377 312.803875 
L 210.629045 301.203522 
L 210.753327 274.365273 
L 210.850977 193.638664 
L 210.957505 97.909712 
L 211.019645 109.272611 
L 211.641055 335.287853 
L 211.827477 367.017919 
L 211.880741 367.267952 
L 211.934005 367.099296 
L 212.182568 365.243044 
L 212.69745 359.718957 
L 213.514159 348.071113 
L 214.810241 330.220961 
L 215.502668 320.099757 
L 215.760109 312.768706 
L 215.928777 301.109311 
L 216.053059 274.03335 
L 216.150709 192.485534 
L 216.257236 97.903551 
L 216.319377 109.520847 
L 216.949664 339.303014 
L 217.127209 367.028188 
L 217.171595 367.268466 
L 217.233736 367.095188 
L 217.4823 365.235856 
L 217.997182 359.708688 
L 218.822768 347.925047 
L 220.101095 330.322874 
L 220.8024 320.083071 
L 221.059841 312.733794 
L 221.228509 301.015356 
L 221.352791 273.700144 
L 221.450441 191.332969 
L 221.556968 97.904065 
L 221.610232 107.167096 
L 222.151745 297.985951 
L 222.426941 367.037943 
L 222.471327 367.268723 
L 222.533468 367.091081 
L 222.782032 365.228668 
L 223.296914 359.69842 
L 224.1225 347.912468 
L 225.418582 330.08773 
L 226.111009 319.885406 
L 226.36845 312.310483 
L 226.537118 299.857092 
L 226.652523 273.364371 
L 226.750173 190.175809 
L 226.8567 97.909969 
L 226.909964 107.399416 
L 227.460355 301.870192 
L 227.726673 367.047441 
L 227.771059 367.269236 
L 227.8332 367.086974 
L 228.090641 365.142671 
L 228.605523 359.576484 
L 229.439986 347.63317 
L 230.718314 330.077205 
L 231.401864 320.049699 
L 231.659305 312.663199 
L 231.827973 300.826163 
L 231.952255 273.026287 
L 232.049905 189.018443 
L 232.156432 97.922548 
L 232.209695 107.63148 
L 232.768964 305.854805 
L 233.017527 366.941421 
L 233.070791 367.269236 
L 233.132932 367.082866 
L 233.390373 365.135484 
L 233.905255 359.566216 
L 234.739718 347.620848 
L 236.018045 330.066937 
L 236.701595 320.03327 
L 236.959036 312.628287 
L 237.127705 300.731181 
L 237.251986 272.685123 
L 237.349636 187.854455 
L 237.456164 97.940517 
L 237.509427 107.865854 
L 238.077573 309.939533 
L 238.317259 366.953229 
L 238.370523 367.269493 
L 238.432664 367.078759 
L 238.690105 365.128296 
L 239.204986 359.555947 
L 240.03945 347.608783 
L 241.317777 330.056669 
L 242.001327 320.016841 
L 242.258768 312.592861 
L 242.427436 300.634659 
L 242.551718 272.336001 
L 242.649368 186.67242 
L 242.755895 97.965418 
L 242.809159 108.103308 
L 243.386182 314.113596 
L 243.616991 366.965038 
L 243.670255 367.269493 
L 243.732395 367.074395 
L 243.989836 365.121108 
L 244.504718 359.545679 
L 245.348059 347.462973 
L 246.617509 330.046144 
L 247.301059 320.000155 
L 247.5585 312.557179 
L 247.727168 300.536853 
L 247.85145 271.983028 
L 247.9491 185.487278 
L 248.055627 97.995966 
L 248.108891 108.343073 
L 248.694791 318.358254 
L 248.907845 366.835144 
L 248.969986 367.269236 
L 249.032127 367.070288 
L 249.298445 365.034341 
L 249.822205 359.310278 
L 250.692177 346.784239 
L 251.943873 329.697792 
L 252.600791 319.983212 
L 252.858232 312.52124 
L 253.0269 300.438534 
L 253.151182 271.625434 
L 253.257709 171.221943 
L 253.346482 97.967985 
L 253.408623 108.586175 
L 254.0034 322.647835 
L 254.207577 366.850033 
L 254.269718 367.268979 
L 254.331859 367.065924 
L 254.598177 365.026896 
L 255.121936 359.299497 
L 255.983032 346.904891 
L 257.22585 329.912656 
L 257.900523 319.966526 
L 258.157964 312.485044 
L 258.326632 300.339188 
L 258.450914 271.260653 
L 258.557441 169.983843 
L 258.646214 97.940774 
L 258.708355 108.832871 
L 259.312009 326.944861 
L 259.507309 366.864408 
L 259.56945 367.268723 
L 259.631591 367.061303 
L 259.897909 365.019195 
L 260.421668 359.288972 
L 261.291641 346.759338 
L 262.525582 329.902131 
L 263.200255 319.949327 
L 263.457695 312.448335 
L 263.626364 300.238302 
L 263.750645 270.888941 
L 263.857173 168.73948 
L 263.945945 97.920494 
L 264.008086 109.080593 
L 264.620618 331.202611 
L 264.807041 366.878784 
L 264.869182 367.268209 
L 264.922445 367.102633 
L 265.171009 365.248692 
L 265.685891 359.727171 
L 266.511477 347.947124 
L 267.807559 330.116738 
L 268.499986 319.932384 
L 268.757427 312.411626 
L 268.926095 300.137416 
L 269.050377 270.517228 
L 269.156905 167.504383 
L 269.245677 97.907659 
L 269.298941 106.757648 
L 269.8227 290.59252 
L 270.133405 367.182982 
L 270.168914 367.267952 
L 270.222177 367.098525 
L 270.470741 365.241504 
L 270.985623 359.716646 
L 271.802332 348.06829 
L 273.098414 330.218651 
L 273.790841 320.095907 
L 274.048282 312.760748 
L 274.21695 301.088004 
L 274.341232 273.957365 
L 274.438882 192.221741 
L 274.545409 97.903295 
L 274.598673 106.988428 
L 275.131309 294.276529 
L 275.424259 367.122399 
L 275.459768 367.268466 
L 275.521909 367.094418 
L 275.770473 365.234316 
L 276.285355 359.706378 
L 277.110941 347.922223 
L 278.389268 330.320564 
L 279.090573 320.079221 
L 279.348014 312.725579 
L 279.516682 300.993792 
L 279.640964 273.623645 
L 279.738614 191.069074 
L 279.845141 97.904578 
L 279.898405 107.220235 
L 280.439918 298.06014 
L 280.715114 367.039996 
L 280.7595 367.268979 
L 280.821641 367.090311 
L 281.079082 365.148319 
L 281.593964 359.584442 
L 282.428427 347.642669 
L 283.706755 330.085163 
L 284.390305 320.062535 
L 284.647745 312.69041 
L 284.816414 300.899324 
L 284.940695 273.287358 
L 285.038345 189.911811 
L 285.144873 97.91228 
L 285.198136 107.452298 
L 285.748527 301.945407 
L 286.014845 367.049494 
L 286.059232 367.269236 
L 286.121373 367.085947 
L 286.378814 365.141131 
L 286.893695 359.574174 
L 287.728159 347.630347 
L 289.006486 330.074895 
L 289.690036 320.046105 
L 289.947477 312.655241 
L 290.116145 300.804599 
L 290.240427 272.948761 
L 290.338077 188.753573 
L 290.444605 97.926142 
L 290.497868 107.684618 
L 291.057136 305.93233 
L 291.3057 366.944244 
L 291.358964 367.269493 
L 291.421105 367.08184 
L 291.678545 365.133943 
L 292.193427 359.563905 
L 293.027891 347.618025 
L 294.315095 329.951932 
L 294.989768 320.029419 
L 295.247209 312.620072 
L 295.415877 300.709361 
L 295.540159 272.606057 
L 295.637809 187.585759 
L 295.744336 97.945652 
L 295.7976 107.919762 
L 296.365745 310.019113 
L 296.605432 366.956053 
L 296.658695 367.269493 
L 296.720836 367.077732 
L 296.978277 365.126756 
L 297.493159 359.553637 
L 298.327623 347.605959 
L 299.60595 330.054358 
L 300.2895 320.01299 
L 300.546941 312.584647 
L 300.715609 300.612325 
L 300.839891 272.255908 
L 300.937541 186.40339 
L 301.044068 97.971836 
L 301.097332 108.157473 
L 301.674355 314.194459 
L 301.905164 366.967605 
L 301.958427 367.269493 
L 302.020568 367.073625 
L 302.286886 365.039989 
L 302.810645 359.318236 
L 303.671741 346.926968 
L 304.914559 329.931395 
L 305.589232 319.996304 
L 305.846673 312.548964 
L 306.015341 300.514776 
L 306.139623 271.902422 
L 306.24615 172.172223 
L 306.334923 97.993399 
L 306.397064 108.398008 
L 306.982964 318.440914 
L 307.196018 366.838481 
L 307.258159 367.269236 
L 307.3203 367.069261 
L 307.586618 365.032544 
L 308.110377 359.307711 
L 308.971473 346.914646 
L 310.214291 329.92087 
L 310.888964 319.979618 
L 311.146405 312.513025 
L 311.315073 300.416201 
L 311.439355 271.543031 
L 311.545882 170.941644 
L 311.634655 97.961311 
L 311.696795 108.64188 
L 312.291573 322.731522 
L 312.49575 366.85337 
L 312.557891 367.268979 
L 312.620032 367.064897 
L 312.88635 365.025099 
L 313.410109 359.297186 
L 314.280082 346.768836 
L 315.531777 329.6847 
L 316.188695 319.962419 
L 316.446136 312.476573 
L 316.614805 300.316342 
L 316.739086 271.176967 
L 316.845614 169.70108 
L 316.934386 97.93564 
L 316.996527 108.88909 
L 317.600182 327.028804 
L 317.795482 366.867745 
L 317.857623 367.268723 
L 317.910886 367.105713 
L 318.15945 365.254339 
L 318.674332 359.735129 
L 319.491041 348.090366 
L 320.796 330.124696 
L 321.488427 319.945476 
L 321.745868 312.439864 
L 321.914536 300.215199 
L 322.038818 270.803971 
L 322.145345 168.456485 
L 322.234118 97.9169 
L 322.296259 109.137326 
L 322.908791 331.28527 
L 323.095214 366.882121 
L 323.157355 367.268209 
L 323.210618 367.101606 
L 323.459182 365.247151 
L 323.974064 359.724604 
L 324.790773 348.077788 
L 326.095732 330.114171 
L 326.779282 320.108742 
L 327.036723 312.787959 
L 327.205391 301.160652 
L 327.329673 274.214072 
L 327.427323 193.112927 
L 327.53385 97.905862 
L 327.595991 109.385819 
L 328.2174 335.447525 
L 328.403823 367.02254 
L 328.457086 367.267696 
L 328.51035 367.097499 
L 328.758914 365.239707 
L 329.273795 359.714336 
L 329.318182 359.15189 
L 329.335936 360.033423 
L 329.531236 363.942564 
L 329.620009 364.126623 
L 329.664395 364.070405 
L 329.815309 363.47587 
L 330.214786 360.716008 
L 332.176664 346.257989 
L 332.869091 343.101257 
L 333.428359 341.47938 
L 333.889977 340.751357 
L 334.262823 340.529049 
L 334.617914 340.568325 
L 335.106164 340.884588 
L 336.553159 341.916039 
L 337.156814 342.010764 
L 338.106682 341.90115 
L 339.908768 341.700405 
L 342.101455 341.747896 
L 345.812155 341.744045 
L 435.845455 341.746099 
L 435.845455 341.746099 
" style="fill:none;stroke:#1f77b4;stroke-linecap:square;stroke-width:1.5;"/>
   </g>
   <g id="line2d_14">
    <path clip-path="url(#p695b9029a4)" d="M 80.754545 341.813613 
L 81.233918 332.180457 
L 81.571255 323.527209 
L 81.7488 312.578527 
L 81.864205 290.267354 
L 81.9441 227.220916 
L 82.059505 66.96 
L 82.1394 78.49604 
L 82.43235 169.667722 
L 83.133655 369.36 
L 83.142532 369.353815 
L 83.240182 369.025705 
L 83.648536 366.694328 
L 84.207805 362.124604 
L 86.764459 339.135806 
L 87.598923 334.618022 
L 88.202577 332.388404 
L 88.557668 331.747131 
L 88.752968 331.737505 
L 88.939391 332.010972 
L 89.196832 332.873743 
L 89.622941 335.258269 
L 90.182209 337.994352 
L 90.484036 338.544169 
L 90.697091 338.571111 
L 90.936777 338.340727 
L 91.345132 337.568679 
L 92.623459 334.986152 
L 93.014059 334.678428 
L 93.324764 334.696612 
L 93.6621 334.961487 
L 94.248 335.77354 
L 94.904918 336.54919 
L 95.313273 336.715742 
L 95.721627 336.633351 
L 96.29865 336.256385 
L 97.328414 335.591529 
L 97.852173 335.529284 
L 98.438073 335.697107 
L 99.885068 336.2034 
L 100.59525 336.137474 
L 102.583759 335.820137 
L 106.179055 335.936795 
L 107.803595 335.934367 
L 110.484532 335.95823 
L 114.106459 335.965211 
L 146.552891 335.95647 
L 151.772727 335.956467 
L 152.207714 300.7774 
L 152.305364 257.553717 
L 152.4474 70.266141 
L 152.580559 96.677576 
L 153.317373 348.924462 
L 153.477164 367.166562 
L 153.494918 367.170369 
L 153.52155 367.087609 
L 153.725727 365.576134 
L 154.222855 360.294098 
L 155.012932 349.061372 
L 156.752877 321.244358 
L 156.948177 311.964994 
L 157.081336 293.651995 
L 157.178986 239.266828 
L 157.312145 80.242461 
L 157.400918 96.973892 
L 158.057836 316.151111 
L 158.279768 366.935653 
L 158.3064 367.002704 
L 158.359664 366.802026 
L 158.643736 364.434279 
L 159.18525 358.107677 
L 160.632245 337.098187 
L 161.4312 324.466169 
L 161.679764 316.346761 
L 161.839555 302.511034 
L 161.946082 269.896902 
L 162.034855 152.68927 
L 162.11475 80.441736 
L 162.176891 89.869329 
L 162.50535 198.289086 
L 163.109005 366.992243 
L 163.135636 366.926704 
L 163.304305 365.718467 
L 163.792555 360.610437 
L 164.556 349.850732 
L 166.358086 321.185706 
L 166.553386 311.949374 
L 166.686545 293.790903 
L 166.784195 240.276376 
L 166.917355 80.45654 
L 167.006127 96.959829 
L 167.663045 316.329595 
L 167.884977 366.925921 
L 167.911609 366.991297 
L 167.964873 366.78925 
L 168.257823 364.331338 
L 168.808214 357.844764 
L 170.583668 332.21969 
L 171.071918 323.601625 
L 171.302727 315.349309 
L 171.453641 300.917992 
L 171.560168 263.472431 
L 171.719959 80.46236 
L 171.861995 113.499053 
L 172.714214 366.990862 
L 172.731968 366.954226 
L 172.865127 366.077251 
L 173.335623 361.345538 
L 174.036927 351.699031 
L 175.954418 321.421172 
L 176.158595 311.860642 
L 176.291755 293.501238 
L 176.389405 238.98039 
L 176.522564 80.470307 
L 176.611336 97.285467 
L 177.268255 316.855111 
L 177.481309 366.865435 
L 177.516818 366.990408 
L 177.570082 366.782371 
L 177.863032 364.319951 
L 178.413423 357.828955 
L 180.206632 331.9445 
L 180.686005 323.353468 
L 180.916814 314.777971 
L 181.067727 299.140955 
L 181.165377 262.653566 
L 181.325168 80.481134 
L 181.467205 113.877845 
L 182.310545 366.990677 
L 182.337177 366.950415 
L 182.479214 365.995585 
L 182.949709 361.226292 
L 183.659891 351.41594 
L 185.559627 321.386236 
L 185.763805 311.772632 
L 185.896964 293.210575 
L 185.994614 237.667127 
L 186.127773 80.494458 
L 186.216545 97.610372 
L 186.882341 321.444363 
L 187.086518 366.876006 
L 187.11315 366.991099 
L 187.175291 366.775512 
L 187.468241 364.308666 
L 188.018632 357.813294 
L 189.820718 331.797854 
L 190.291214 323.324619 
L 190.522023 314.710436 
L 190.672936 298.925868 
L 190.770586 261.824849 
L 190.930377 80.510469 
L 191.063536 111.354894 
L 191.915755 366.991468 
L 191.951264 366.911728 
L 192.137686 365.535307 
L 192.634814 360.23747 
L 193.433768 348.862594 
L 195.173714 321.077432 
L 195.369014 311.684289 
L 195.502173 292.916455 
L 195.599823 236.327148 
L 195.732982 80.528287 
L 195.812877 95.458857 
L 196.434286 298.839935 
L 196.709482 366.979048 
L 196.727236 366.988107 
L 196.762745 366.867409 
L 196.993555 365.05446 
L 197.508436 359.328174 
L 198.431673 345.928926 
L 199.958564 321.600875 
L 200.162741 312.30818 
L 200.2959 294.95515 
L 200.39355 245.437607 
L 200.526709 80.533706 
L 200.633236 100.6774 
L 201.352295 349.130528 
L 201.512086 366.980486 
L 201.529841 366.987425 
L 201.556473 366.906766 
L 201.751773 365.447661 
L 202.257777 360.00063 
L 203.083364 348.177897 
L 204.778923 321.041563 
L 204.974223 311.595368 
L 205.107382 292.616649 
L 205.205032 234.943233 
L 205.329314 80.512159 
L 205.418086 95.775425 
L 206.048373 302.914588 
L 206.305814 366.951368 
L 206.323568 366.992196 
L 206.376832 366.813812 
L 206.652027 364.544492 
L 207.193541 358.261298 
L 208.471868 339.613986 
L 209.466123 324.126962 
L 209.705809 316.052806 
L 209.856723 302.989267 
L 209.96325 271.761972 
L 210.052023 159.207123 
L 210.131918 80.494384 
L 210.194059 89.119899 
L 210.495886 188.484121 
L 211.126173 366.992298 
L 211.143927 366.967018 
L 211.259332 366.252481 
L 211.712073 361.811395 
L 212.377868 352.821223 
L 214.3575 321.811033 
L 214.561677 312.819526 
L 214.694836 296.556465 
L 214.792486 252.271754 
L 214.934523 80.480187 
L 215.049927 103.867212 
L 215.928777 366.992316 
L 216.008673 366.639976 
L 216.372641 363.373067 
L 216.958541 356.040136 
L 219.018068 325.28048 
L 219.284386 317.293182 
L 219.444177 305.260133 
L 219.559582 275.858021 
L 219.648355 174.684877 
L 219.737127 80.468772 
L 219.799268 89.393001 
L 220.109973 191.813333 
L 220.731382 366.992268 
L 220.749136 366.963769 
L 220.873418 366.173376 
L 221.335036 361.591312 
L 222.018586 352.275793 
L 223.971586 321.514783 
L 224.175764 312.09496 
L 224.308923 294.266137 
L 224.406573 242.395672 
L 224.539732 80.460887 
L 224.637382 98.933283 
L 225.320932 331.790913 
L 225.507355 366.912931 
L 225.533986 366.992139 
L 225.58725 366.80056 
L 225.871323 364.436567 
L 226.412836 358.110905 
L 227.859832 337.102838 
L 228.658786 324.48092 
L 228.90735 316.386628 
L 229.067141 302.641498 
L 229.173668 270.420038 
L 229.262441 154.500903 
L 229.342336 80.456291 
L 229.404477 89.669962 
L 229.724059 195.120708 
L 230.336591 366.991935 
L 230.354345 366.960295 
L 230.487505 366.092918 
L 230.958 361.368519 
L 231.659305 351.728054 
L 233.576795 321.479645 
L 233.780973 312.007388 
L 233.914132 293.98095 
L 234.011782 241.127212 
L 234.144941 80.455084 
L 234.233714 96.744437 
L 234.881755 312.013603 
L 235.112564 366.920903 
L 235.139195 366.991676 
L 235.192459 366.793716 
L 235.476532 364.425142 
L 236.018045 358.095026 
L 237.482795 336.840082 
L 238.255118 324.65352 
L 238.503682 316.76552 
L 238.663473 303.763224 
L 238.77 274.669794 
L 238.858773 170.037286 
L 238.947545 80.45635 
L 239.000809 87.892305 
L 239.267127 174.691401 
L 239.9418 366.991367 
L 240.003941 366.73655 
L 240.323523 363.981416 
L 240.882791 357.240289 
L 242.862423 328.380051 
L 243.199759 320.894303 
L 243.395059 311.227175 
L 243.528218 291.359116 
L 243.616991 239.834859 
L 243.75015 80.460487 
L 243.838923 97.071693 
L 244.495841 316.510629 
L 244.708895 366.858174 
L 244.744405 366.990992 
L 244.797668 366.786861 
L 245.090618 364.327383 
L 245.641009 357.839272 
L 247.425341 332.084913 
L 247.913591 323.372466 
L 248.1444 314.822403 
L 248.295314 299.281767 
L 248.392964 263.190663 
L 248.552755 80.46755 
L 248.694791 113.630419 
L 249.547009 366.990553 
L 249.564764 366.952917 
L 249.7068 366.001762 
L 250.177295 361.23528 
L 250.887477 351.427238 
L 252.787214 321.409045 
L 252.991391 311.830108 
L 253.12455 293.40086 
L 253.2222 238.528639 
L 253.355359 80.47751 
L 253.444132 97.39724 
L 254.10105 317.03505 
L 254.314105 366.869135 
L 254.349614 366.990068 
L 254.402877 366.780017 
L 254.695827 364.316068 
L 255.246218 357.823565 
L 257.039427 331.938705 
L 257.5188 323.34355 
L 257.749609 314.754762 
L 257.900523 299.067089 
L 257.998173 262.369219 
L 258.157964 80.490046 
L 258.291123 111.111125 
L 259.143341 366.990977 
L 259.17885 366.914962 
L 259.365273 365.541879 
L 259.8624 360.246888 
L 260.661355 348.873957 
L 262.4013 321.100976 
L 262.5966 311.742151 
L 262.729759 293.109517 
L 262.827409 237.208947 
L 262.960568 80.505292 
L 263.040464 95.254183 
L 263.661873 298.541534 
L 263.937068 366.977076 
L 263.954823 366.98894 
L 263.990332 366.871145 
L 264.221141 365.061294 
L 264.736023 359.337826 
L 265.650382 346.072094 
L 267.18615 321.623094 
L 267.390327 312.362879 
L 267.523486 295.130371 
L 267.621136 246.205757 
L 267.763173 80.522642 
L 267.860823 100.454833 
L 268.571005 345.533821 
L 268.730795 366.944709 
L 268.74855 366.991678 
L 268.801814 366.821185 
L 269.068132 364.641866 
L 269.600768 358.515797 
L 270.737059 341.904686 
L 271.926614 323.30028 
L 272.157423 314.653296 
L 272.299459 300.358105 
L 272.405986 261.105368 
L 272.5569 80.541101 
L 272.698936 111.670338 
L 273.551155 366.991948 
L 273.586664 366.907537 
L 273.781964 365.44921 
L 274.287968 360.00285 
L 275.113555 348.180546 
L 276.809114 321.04711 
L 277.004414 311.60913 
L 277.137573 292.663102 
L 277.235223 235.158049 
L 277.359505 80.518389 
L 277.448277 95.726637 
L 278.078564 302.841477 
L 278.336005 366.950517 
L 278.353759 366.99215 
L 278.407023 366.814802 
L 278.682218 364.54618 
L 279.223732 358.263655 
L 280.502059 339.616464 
L 281.496314 324.131073 
L 281.736 316.061911 
L 281.886914 303.015392 
L 281.993441 271.862278 
L 282.082214 159.567908 
L 282.162109 80.499392 
L 282.22425 89.078261 
L 282.526077 188.42476 
L 283.156364 366.992275 
L 283.174118 366.967499 
L 283.289523 366.253876 
L 283.742264 361.81346 
L 284.408059 352.823873 
L 286.387691 321.816219 
L 286.591868 312.831958 
L 286.725027 296.59486 
L 286.822677 252.432197 
L 286.964714 80.484185 
L 287.080118 103.812541 
L 287.958968 366.992319 
L 288.038864 366.641187 
L 288.402832 363.374949 
L 288.988732 356.042674 
L 291.048259 325.284251 
L 291.314577 317.301386 
L 291.474368 305.282892 
L 291.589773 275.947613 
L 291.678545 175.039088 
L 291.767318 80.471916 
L 291.829459 89.350953 
L 292.140164 191.754411 
L 292.761573 366.992286 
L 292.779327 366.964275 
L 292.903609 366.174788 
L 293.365227 361.593394 
L 294.048777 352.278444 
L 296.001777 321.52011 
L 296.205955 312.108226 
L 296.339114 294.309265 
L 296.436764 242.587143 
L 296.569923 80.463024 
L 296.667573 98.881566 
L 297.351123 331.708486 
L 297.537545 366.911666 
L 297.564177 366.992186 
L 297.617441 366.801597 
L 297.901514 364.438308 
L 298.443027 358.113326 
L 299.881145 337.228617 
L 300.688977 324.484978 
L 300.937541 316.395619 
L 301.097332 302.668583 
L 301.203859 270.52515 
L 301.292632 154.862337 
L 301.372527 80.45731 
L 301.434668 89.627033 
L 301.75425 195.061428 
L 302.366782 366.992005 
L 302.384536 366.960845 
L 302.508818 366.165485 
L 302.970436 361.579694 
L 303.653986 352.260999 
L 305.606986 321.485092 
L 305.811164 312.02097 
L 305.944323 294.025221 
L 306.041973 241.324542 
L 306.175132 80.455174 
L 306.272782 99.220101 
L 306.956332 332.247785 
L 307.142755 366.919706 
L 307.169386 366.991758 
L 307.22265 366.794766 
L 307.506723 364.426891 
L 308.048236 358.097457 
L 309.512986 336.842586 
L 310.285309 324.65752 
L 310.533873 316.774221 
L 310.693664 303.788462 
L 310.800191 274.762452 
L 310.888964 170.396301 
L 310.977736 80.455721 
L 311.039877 89.906214 
L 311.368336 198.344788 
L 311.971991 366.991469 
L 311.998623 366.925341 
L 312.176168 365.640283 
L 312.673295 360.388306 
L 313.454495 349.312372 
L 315.221073 321.178655 
L 315.416373 311.932591 
L 315.549532 293.736737 
L 315.647182 240.0353 
L 315.780341 80.458895 
L 315.869114 97.021343 
L 316.526032 316.42948 
L 316.739086 366.856419 
L 316.774595 366.991112 
L 316.827859 366.787914 
L 317.120809 364.329134 
L 317.6712 357.841703 
L 319.455532 332.087522 
L 319.943782 323.376945 
L 320.174591 314.832872 
L 320.325505 299.314852 
L 320.423155 263.316199 
L 320.582945 80.465076 
L 320.724982 113.572044 
L 321.5772 366.990694 
L 321.594955 366.9535 
L 321.736991 366.003218 
L 322.207486 361.2374 
L 322.917668 351.429903 
L 324.817405 321.414427 
L 325.021582 311.843662 
L 325.154741 293.445541 
L 325.252391 238.729912 
L 325.38555 80.474123 
L 325.474323 97.347548 
L 326.131241 316.955053 
L 326.344295 366.867497 
L 326.379805 366.990222 
L 326.433068 366.781065 
L 326.726018 364.317796 
L 327.276409 357.825963 
L 329.069618 331.941283 
L 329.318182 328.050664 
L 329.344814 329.287082 
L 329.717659 340.496651 
L 330.001732 344.180643 
L 330.205909 344.71802 
L 330.312436 344.595589 
L 330.525491 343.889936 
L 331.058127 341.107742 
L 332.114523 335.852839 
L 332.727055 333.815723 
L 333.117655 333.162057 
L 333.357341 333.095931 
L 333.570395 333.291358 
L 333.845591 333.902636 
L 334.387105 335.820556 
L 334.910864 337.306489 
L 335.230445 337.644484 
L 335.487886 337.62607 
L 335.807468 337.348119 
L 336.455509 336.401828 
L 337.281095 335.323888 
L 337.707205 335.102033 
L 338.08005 335.151309 
L 338.532791 335.460806 
L 339.775609 336.42098 
L 340.254982 336.444942 
L 340.849759 336.22684 
L 342.172473 335.684925 
L 342.820514 335.712513 
L 345.244009 336.081786 
L 347.507714 335.88046 
L 350.2863 335.975323 
L 352.638777 335.94705 
L 355.878982 335.947426 
L 368.875309 335.956618 
L 435.845455 335.956467 
L 435.845455 335.956467 
" style="fill:none;stroke:#ff0000;stroke-linecap:square;stroke-width:1.5;"/>
   </g>
   <g id="patch_3">
    <path d="M 63 384.48 
L 63 51.84 
" style="fill:none;stroke:#000000;stroke-linecap:square;stroke-linejoin:miter;stroke-width:0.8;"/>
   </g>
   <g id="patch_4">
    <path d="M 453.6 384.48 
L 453.6 51.84 
" style="fill:none;stroke:#000000;stroke-linecap:square;stroke-linejoin:miter;stroke-width:0.8;"/>
   </g>
   <g id="patch_5">
    <path d="M 63 384.48 
L 453.6 384.48 
" style="fill:none;stroke:#000000;stroke-linecap:square;stroke-linejoin:miter;stroke-width:0.8;"/>
   </g>
   <g id="patch_6">
    <path d="M 63 51.84 
L 453.6 51.84 
" style="fill:none;stroke:#000000;stroke-linecap:square;stroke-linejoin:miter;stroke-width:0.8;"/>
   </g>
   <g id="legend_1">
    <g id="patch_7">
     <path d="M 383.460938 89.19625 
L 446.6 89.19625 
Q 448.6 89.19625 448.6 87.19625 
L 448.6 58.84 
Q 448.6 56.84 446.6 56.84 
L 383.460938 56.84 
Q 381.460938 56.84 381.460938 58.84 
L 381.460938 87.19625 
Q 381.460938 89.19625 383.460938 89.19625 
z
" style="fill:#ffffff;opacity:0.8;stroke:#cccccc;stroke-linejoin:miter;"/>
    </g>
    <g id="line2d_15">
     <path d="M 385.460938 64.938437 
L 405.460938 64.938437 
" style="fill:none;stroke:#1f77b4;stroke-linecap:square;stroke-width:1.5;"/>
    </g>
    <g id="line2d_16"/>
    <g id="text_15">
     <!-- target -->
     <defs>
      <path d="M 41.109375 46.296875 
Q 39.59375 47.171875 37.8125 47.578125 
Q 36.03125 48 33.890625 48 
Q 26.265625 48 22.1875 43.046875 
Q 18.109375 38.09375 18.109375 28.8125 
L 18.109375 0 
L 9.078125 0 
L 9.078125 54.6875 
L 18.109375 54.6875 
L 18.109375 46.1875 
Q 20.953125 51.171875 25.484375 53.578125 
Q 30.03125 56 36.53125 56 
Q 37.453125 56 38.578125 55.875 
Q 39.703125 55.765625 41.0625 55.515625 
z
" id="DejaVuSans-72"/>
     </defs>
     <g transform="translate(413.460938 68.438437)scale(0.1 -0.1)">
      <use xlink:href="#DejaVuSans-74"/>
      <use x="39.208984" xlink:href="#DejaVuSans-61"/>
      <use x="100.488281" xlink:href="#DejaVuSans-72"/>
      <use x="141.585938" xlink:href="#DejaVuSans-67"/>
      <use x="205.0625" xlink:href="#DejaVuSans-65"/>
      <use x="266.585938" xlink:href="#DejaVuSans-74"/>
     </g>
    </g>
    <g id="line2d_17">
     <path d="M 385.460938 79.616562 
L 405.460938 79.616562 
" style="fill:none;stroke:#ff0000;stroke-linecap:square;stroke-width:1.5;"/>
    </g>
    <g id="line2d_18"/>
    <g id="text_16">
     <!-- model -->
     <defs>
      <path d="M 45.40625 46.390625 
L 45.40625 75.984375 
L 54.390625 75.984375 
L 54.390625 0 
L 45.40625 0 
L 45.40625 8.203125 
Q 42.578125 3.328125 38.25 0.953125 
Q 33.9375 -1.421875 27.875 -1.421875 
Q 17.96875 -1.421875 11.734375 6.484375 
Q 5.515625 14.40625 5.515625 27.296875 
Q 5.515625 40.1875 11.734375 48.09375 
Q 17.96875 56 27.875 56 
Q 33.9375 56 38.25 53.625 
Q 42.578125 51.265625 45.40625 46.390625 
z
M 14.796875 27.296875 
Q 14.796875 17.390625 18.875 11.75 
Q 22.953125 6.109375 30.078125 6.109375 
Q 37.203125 6.109375 41.296875 11.75 
Q 45.40625 17.390625 45.40625 27.296875 
Q 45.40625 37.203125 41.296875 42.84375 
Q 37.203125 48.484375 30.078125 48.484375 
Q 22.953125 48.484375 18.875 42.84375 
Q 14.796875 37.203125 14.796875 27.296875 
z
" id="DejaVuSans-64"/>
     </defs>
     <g transform="translate(413.460938 83.116562)scale(0.1 -0.1)">
      <use xlink:href="#DejaVuSans-6d"/>
      <use x="97.412109" xlink:href="#DejaVuSans-6f"/>
      <use x="158.59375" xlink:href="#DejaVuSans-64"/>
      <use x="222.070312" xlink:href="#DejaVuSans-65"/>
      <use x="283.59375" xlink:href="#DejaVuSans-6c"/>
     </g>
    </g>
   </g>
  </g>
 </g>
 <defs>
  <clipPath id="p695b9029a4">
   <rect height="332.64" width="390.6" x="63" y="51.84"/>
  </clipPath>
 </defs>
</svg>
