<?xml version="1.0" encoding="utf-8" standalone="no"?>
<!DOCTYPE svg PUBLIC "-//W3C//DTD SVG 1.1//EN"
  "http://www.w3.org/Graphics/SVG/1.1/DTD/svg11.dtd">
<!-- Created with matplotlib (http://matplotlib.org/) -->
<svg height="432pt" version="1.1" viewBox="0 0 504 432" width="504pt" xmlns="http://www.w3.org/2000/svg" xmlns:xlink="http://www.w3.org/1999/xlink">
 <defs>
  <style type="text/css">
*{stroke-linecap:butt;stroke-linejoin:round;}
  </style>
 </defs>
 <g id="figure_1">
  <g id="patch_1">
   <path d="M 0 432 
L 504 432 
L 504 0 
L 0 0 
z
" style="fill:#ffffff;"/>
  </g>
  <g id="axes_1">
   <g id="patch_2">
    <path d="M 63 384.48 
L 453.6 384.48 
L 453.6 51.84 
L 63 51.84 
z
" style="fill:#ffffff;"/>
   </g>
   <g id="matplotlib.axis_1">
    <g id="xtick_1">
     <g id="line2d_1">
      <defs>
       <path d="M 0 0 
L 0 3.5 
" id="m982ae3d90c" style="stroke:#000000;stroke-width:0.8;"/>
      </defs>
      <g>
       <use style="stroke:#000000;stroke-width:0.8;" x="80.754545" xlink:href="#m982ae3d90c" y="384.48"/>
      </g>
     </g>
     <g id="text_1">
      <!-- 0 -->
      <defs>
       <path d="M 31.78125 66.40625 
Q 24.171875 66.40625 20.328125 58.90625 
Q 16.5 51.421875 16.5 36.375 
Q 16.5 21.390625 20.328125 13.890625 
Q 24.171875 6.390625 31.78125 6.390625 
Q 39.453125 6.390625 43.28125 13.890625 
Q 47.125 21.390625 47.125 36.375 
Q 47.125 51.421875 43.28125 58.90625 
Q 39.453125 66.40625 31.78125 66.40625 
z
M 31.78125 74.21875 
Q 44.046875 74.21875 50.515625 64.515625 
Q 56.984375 54.828125 56.984375 36.375 
Q 56.984375 17.96875 50.515625 8.265625 
Q 44.046875 -1.421875 31.78125 -1.421875 
Q 19.53125 -1.421875 13.0625 8.265625 
Q 6.59375 17.96875 6.59375 36.375 
Q 6.59375 54.828125 13.0625 64.515625 
Q 19.53125 74.21875 31.78125 74.21875 
z
" id="DejaVuSans-30"/>
      </defs>
      <g transform="translate(77.573295 399.078438)scale(0.1 -0.1)">
       <use xlink:href="#DejaVuSans-30"/>
      </g>
     </g>
    </g>
    <g id="xtick_2">
     <g id="line2d_2">
      <g>
       <use style="stroke:#000000;stroke-width:0.8;" x="151.772727" xlink:href="#m982ae3d90c" y="384.48"/>
      </g>
     </g>
     <g id="text_2">
      <!-- 200 -->
      <defs>
       <path d="M 19.1875 8.296875 
L 53.609375 8.296875 
L 53.609375 0 
L 7.328125 0 
L 7.328125 8.296875 
Q 12.9375 14.109375 22.625 23.890625 
Q 32.328125 33.6875 34.8125 36.53125 
Q 39.546875 41.84375 41.421875 45.53125 
Q 43.3125 49.21875 43.3125 52.78125 
Q 43.3125 58.59375 39.234375 62.25 
Q 35.15625 65.921875 28.609375 65.921875 
Q 23.96875 65.921875 18.8125 64.3125 
Q 13.671875 62.703125 7.8125 59.421875 
L 7.8125 69.390625 
Q 13.765625 71.78125 18.9375 73 
Q 24.125 74.21875 28.421875 74.21875 
Q 39.75 74.21875 46.484375 68.546875 
Q 53.21875 62.890625 53.21875 53.421875 
Q 53.21875 48.921875 51.53125 44.890625 
Q 49.859375 40.875 45.40625 35.40625 
Q 44.1875 33.984375 37.640625 27.21875 
Q 31.109375 20.453125 19.1875 8.296875 
z
" id="DejaVuSans-32"/>
      </defs>
      <g transform="translate(142.228977 399.078438)scale(0.1 -0.1)">
       <use xlink:href="#DejaVuSans-32"/>
       <use x="63.623047" xlink:href="#DejaVuSans-30"/>
       <use x="127.246094" xlink:href="#DejaVuSans-30"/>
      </g>
     </g>
    </g>
    <g id="xtick_3">
     <g id="line2d_3">
      <g>
       <use style="stroke:#000000;stroke-width:0.8;" x="222.790909" xlink:href="#m982ae3d90c" y="384.48"/>
      </g>
     </g>
     <g id="text_3">
      <!-- 400 -->
      <defs>
       <path d="M 37.796875 64.3125 
L 12.890625 25.390625 
L 37.796875 25.390625 
z
M 35.203125 72.90625 
L 47.609375 72.90625 
L 47.609375 25.390625 
L 58.015625 25.390625 
L 58.015625 17.1875 
L 47.609375 17.1875 
L 47.609375 0 
L 37.796875 0 
L 37.796875 17.1875 
L 4.890625 17.1875 
L 4.890625 26.703125 
z
" id="DejaVuSans-34"/>
      </defs>
      <g transform="translate(213.247159 399.078438)scale(0.1 -0.1)">
       <use xlink:href="#DejaVuSans-34"/>
       <use x="63.623047" xlink:href="#DejaVuSans-30"/>
       <use x="127.246094" xlink:href="#DejaVuSans-30"/>
      </g>
     </g>
    </g>
    <g id="xtick_4">
     <g id="line2d_4">
      <g>
       <use style="stroke:#000000;stroke-width:0.8;" x="293.809091" xlink:href="#m982ae3d90c" y="384.48"/>
      </g>
     </g>
     <g id="text_4">
      <!-- 600 -->
      <defs>
       <path d="M 33.015625 40.375 
Q 26.375 40.375 22.484375 35.828125 
Q 18.609375 31.296875 18.609375 23.390625 
Q 18.609375 15.53125 22.484375 10.953125 
Q 26.375 6.390625 33.015625 6.390625 
Q 39.65625 6.390625 43.53125 10.953125 
Q 47.40625 15.53125 47.40625 23.390625 
Q 47.40625 31.296875 43.53125 35.828125 
Q 39.65625 40.375 33.015625 40.375 
z
M 52.59375 71.296875 
L 52.59375 62.3125 
Q 48.875 64.0625 45.09375 64.984375 
Q 41.3125 65.921875 37.59375 65.921875 
Q 27.828125 65.921875 22.671875 59.328125 
Q 17.53125 52.734375 16.796875 39.40625 
Q 19.671875 43.65625 24.015625 45.921875 
Q 28.375 48.1875 33.59375 48.1875 
Q 44.578125 48.1875 50.953125 41.515625 
Q 57.328125 34.859375 57.328125 23.390625 
Q 57.328125 12.15625 50.6875 5.359375 
Q 44.046875 -1.421875 33.015625 -1.421875 
Q 20.359375 -1.421875 13.671875 8.265625 
Q 6.984375 17.96875 6.984375 36.375 
Q 6.984375 53.65625 15.1875 63.9375 
Q 23.390625 74.21875 37.203125 74.21875 
Q 40.921875 74.21875 44.703125 73.484375 
Q 48.484375 72.75 52.59375 71.296875 
z
" id="DejaVuSans-36"/>
      </defs>
      <g transform="translate(284.265341 399.078438)scale(0.1 -0.1)">
       <use xlink:href="#DejaVuSans-36"/>
       <use x="63.623047" xlink:href="#DejaVuSans-30"/>
       <use x="127.246094" xlink:href="#DejaVuSans-30"/>
      </g>
     </g>
    </g>
    <g id="xtick_5">
     <g id="line2d_5">
      <g>
       <use style="stroke:#000000;stroke-width:0.8;" x="364.827273" xlink:href="#m982ae3d90c" y="384.48"/>
      </g>
     </g>
     <g id="text_5">
      <!-- 800 -->
      <defs>
       <path d="M 31.78125 34.625 
Q 24.75 34.625 20.71875 30.859375 
Q 16.703125 27.09375 16.703125 20.515625 
Q 16.703125 13.921875 20.71875 10.15625 
Q 24.75 6.390625 31.78125 6.390625 
Q 38.8125 6.390625 42.859375 10.171875 
Q 46.921875 13.96875 46.921875 20.515625 
Q 46.921875 27.09375 42.890625 30.859375 
Q 38.875 34.625 31.78125 34.625 
z
M 21.921875 38.8125 
Q 15.578125 40.375 12.03125 44.71875 
Q 8.5 49.078125 8.5 55.328125 
Q 8.5 64.0625 14.71875 69.140625 
Q 20.953125 74.21875 31.78125 74.21875 
Q 42.671875 74.21875 48.875 69.140625 
Q 55.078125 64.0625 55.078125 55.328125 
Q 55.078125 49.078125 51.53125 44.71875 
Q 48 40.375 41.703125 38.8125 
Q 48.828125 37.15625 52.796875 32.3125 
Q 56.78125 27.484375 56.78125 20.515625 
Q 56.78125 9.90625 50.3125 4.234375 
Q 43.84375 -1.421875 31.78125 -1.421875 
Q 19.734375 -1.421875 13.25 4.234375 
Q 6.78125 9.90625 6.78125 20.515625 
Q 6.78125 27.484375 10.78125 32.3125 
Q 14.796875 37.15625 21.921875 38.8125 
z
M 18.3125 54.390625 
Q 18.3125 48.734375 21.84375 45.5625 
Q 25.390625 42.390625 31.78125 42.390625 
Q 38.140625 42.390625 41.71875 45.5625 
Q 45.3125 48.734375 45.3125 54.390625 
Q 45.3125 60.0625 41.71875 63.234375 
Q 38.140625 66.40625 31.78125 66.40625 
Q 25.390625 66.40625 21.84375 63.234375 
Q 18.3125 60.0625 18.3125 54.390625 
z
" id="DejaVuSans-38"/>
      </defs>
      <g transform="translate(355.283523 399.078438)scale(0.1 -0.1)">
       <use xlink:href="#DejaVuSans-38"/>
       <use x="63.623047" xlink:href="#DejaVuSans-30"/>
       <use x="127.246094" xlink:href="#DejaVuSans-30"/>
      </g>
     </g>
    </g>
    <g id="text_6">
     <!-- time [ms] -->
     <defs>
      <path d="M 18.3125 70.21875 
L 18.3125 54.6875 
L 36.8125 54.6875 
L 36.8125 47.703125 
L 18.3125 47.703125 
L 18.3125 18.015625 
Q 18.3125 11.328125 20.140625 9.421875 
Q 21.96875 7.515625 27.59375 7.515625 
L 36.8125 7.515625 
L 36.8125 0 
L 27.59375 0 
Q 17.1875 0 13.234375 3.875 
Q 9.28125 7.765625 9.28125 18.015625 
L 9.28125 47.703125 
L 2.6875 47.703125 
L 2.6875 54.6875 
L 9.28125 54.6875 
L 9.28125 70.21875 
z
" id="DejaVuSans-74"/>
      <path d="M 9.421875 54.6875 
L 18.40625 54.6875 
L 18.40625 0 
L 9.421875 0 
z
M 9.421875 75.984375 
L 18.40625 75.984375 
L 18.40625 64.59375 
L 9.421875 64.59375 
z
" id="DejaVuSans-69"/>
      <path d="M 52 44.1875 
Q 55.375 50.25 60.0625 53.125 
Q 64.75 56 71.09375 56 
Q 79.640625 56 84.28125 50.015625 
Q 88.921875 44.046875 88.921875 33.015625 
L 88.921875 0 
L 79.890625 0 
L 79.890625 32.71875 
Q 79.890625 40.578125 77.09375 44.375 
Q 74.3125 48.1875 68.609375 48.1875 
Q 61.625 48.1875 57.5625 43.546875 
Q 53.515625 38.921875 53.515625 30.90625 
L 53.515625 0 
L 44.484375 0 
L 44.484375 32.71875 
Q 44.484375 40.625 41.703125 44.40625 
Q 38.921875 48.1875 33.109375 48.1875 
Q 26.21875 48.1875 22.15625 43.53125 
Q 18.109375 38.875 18.109375 30.90625 
L 18.109375 0 
L 9.078125 0 
L 9.078125 54.6875 
L 18.109375 54.6875 
L 18.109375 46.1875 
Q 21.1875 51.21875 25.484375 53.609375 
Q 29.78125 56 35.6875 56 
Q 41.65625 56 45.828125 52.96875 
Q 50 49.953125 52 44.1875 
z
" id="DejaVuSans-6d"/>
      <path d="M 56.203125 29.59375 
L 56.203125 25.203125 
L 14.890625 25.203125 
Q 15.484375 15.921875 20.484375 11.0625 
Q 25.484375 6.203125 34.421875 6.203125 
Q 39.59375 6.203125 44.453125 7.46875 
Q 49.3125 8.734375 54.109375 11.28125 
L 54.109375 2.78125 
Q 49.265625 0.734375 44.1875 -0.34375 
Q 39.109375 -1.421875 33.890625 -1.421875 
Q 20.796875 -1.421875 13.15625 6.1875 
Q 5.515625 13.8125 5.515625 26.8125 
Q 5.515625 40.234375 12.765625 48.109375 
Q 20.015625 56 32.328125 56 
Q 43.359375 56 49.78125 48.890625 
Q 56.203125 41.796875 56.203125 29.59375 
z
M 47.21875 32.234375 
Q 47.125 39.59375 43.09375 43.984375 
Q 39.0625 48.390625 32.421875 48.390625 
Q 24.90625 48.390625 20.390625 44.140625 
Q 15.875 39.890625 15.1875 32.171875 
z
" id="DejaVuSans-65"/>
      <path id="DejaVuSans-20"/>
      <path d="M 8.59375 75.984375 
L 29.296875 75.984375 
L 29.296875 69 
L 17.578125 69 
L 17.578125 -6.203125 
L 29.296875 -6.203125 
L 29.296875 -13.1875 
L 8.59375 -13.1875 
z
" id="DejaVuSans-5b"/>
      <path d="M 44.28125 53.078125 
L 44.28125 44.578125 
Q 40.484375 46.53125 36.375 47.5 
Q 32.28125 48.484375 27.875 48.484375 
Q 21.1875 48.484375 17.84375 46.4375 
Q 14.5 44.390625 14.5 40.28125 
Q 14.5 37.15625 16.890625 35.375 
Q 19.28125 33.59375 26.515625 31.984375 
L 29.59375 31.296875 
Q 39.15625 29.25 43.1875 25.515625 
Q 47.21875 21.78125 47.21875 15.09375 
Q 47.21875 7.46875 41.1875 3.015625 
Q 35.15625 -1.421875 24.609375 -1.421875 
Q 20.21875 -1.421875 15.453125 -0.5625 
Q 10.6875 0.296875 5.421875 2 
L 5.421875 11.28125 
Q 10.40625 8.6875 15.234375 7.390625 
Q 20.0625 6.109375 24.8125 6.109375 
Q 31.15625 6.109375 34.5625 8.28125 
Q 37.984375 10.453125 37.984375 14.40625 
Q 37.984375 18.0625 35.515625 20.015625 
Q 33.0625 21.96875 24.703125 23.78125 
L 21.578125 24.515625 
Q 13.234375 26.265625 9.515625 29.90625 
Q 5.8125 33.546875 5.8125 39.890625 
Q 5.8125 47.609375 11.28125 51.796875 
Q 16.75 56 26.8125 56 
Q 31.78125 56 36.171875 55.265625 
Q 40.578125 54.546875 44.28125 53.078125 
z
" id="DejaVuSans-73"/>
      <path d="M 30.421875 75.984375 
L 30.421875 -13.1875 
L 9.71875 -13.1875 
L 9.71875 -6.203125 
L 21.390625 -6.203125 
L 21.390625 69 
L 9.71875 69 
L 9.71875 75.984375 
z
" id="DejaVuSans-5d"/>
     </defs>
     <g transform="translate(234.038281 412.756563)scale(0.1 -0.1)">
      <use xlink:href="#DejaVuSans-74"/>
      <use x="39.208984" xlink:href="#DejaVuSans-69"/>
      <use x="66.992188" xlink:href="#DejaVuSans-6d"/>
      <use x="164.404297" xlink:href="#DejaVuSans-65"/>
      <use x="225.927734" xlink:href="#DejaVuSans-20"/>
      <use x="257.714844" xlink:href="#DejaVuSans-5b"/>
      <use x="296.728516" xlink:href="#DejaVuSans-6d"/>
      <use x="394.140625" xlink:href="#DejaVuSans-73"/>
      <use x="446.240234" xlink:href="#DejaVuSans-5d"/>
     </g>
    </g>
   </g>
   <g id="matplotlib.axis_2">
    <g id="ytick_1">
     <g id="line2d_6">
      <defs>
       <path d="M 0 0 
L -3.5 0 
" id="ma1a6330e70" style="stroke:#000000;stroke-width:0.8;"/>
      </defs>
      <g>
       <use style="stroke:#000000;stroke-width:0.8;" x="63" xlink:href="#ma1a6330e70" y="342.726006"/>
      </g>
     </g>
     <g id="text_7">
      <!-- −60 -->
      <defs>
       <path d="M 10.59375 35.5 
L 73.1875 35.5 
L 73.1875 27.203125 
L 10.59375 27.203125 
z
" id="DejaVuSans-2212"/>
      </defs>
      <g transform="translate(34.895313 346.525224)scale(0.1 -0.1)">
       <use xlink:href="#DejaVuSans-2212"/>
       <use x="83.789062" xlink:href="#DejaVuSans-36"/>
       <use x="147.412109" xlink:href="#DejaVuSans-30"/>
      </g>
     </g>
    </g>
    <g id="ytick_2">
     <g id="line2d_7">
      <g>
       <use style="stroke:#000000;stroke-width:0.8;" x="63" xlink:href="#ma1a6330e70" y="291.054404"/>
      </g>
     </g>
     <g id="text_8">
      <!-- −40 -->
      <g transform="translate(34.895313 294.853623)scale(0.1 -0.1)">
       <use xlink:href="#DejaVuSans-2212"/>
       <use x="83.789062" xlink:href="#DejaVuSans-34"/>
       <use x="147.412109" xlink:href="#DejaVuSans-30"/>
      </g>
     </g>
    </g>
    <g id="ytick_3">
     <g id="line2d_8">
      <g>
       <use style="stroke:#000000;stroke-width:0.8;" x="63" xlink:href="#ma1a6330e70" y="239.382802"/>
      </g>
     </g>
     <g id="text_9">
      <!-- −20 -->
      <g transform="translate(34.895313 243.182021)scale(0.1 -0.1)">
       <use xlink:href="#DejaVuSans-2212"/>
       <use x="83.789062" xlink:href="#DejaVuSans-32"/>
       <use x="147.412109" xlink:href="#DejaVuSans-30"/>
      </g>
     </g>
    </g>
    <g id="ytick_4">
     <g id="line2d_9">
      <g>
       <use style="stroke:#000000;stroke-width:0.8;" x="63" xlink:href="#ma1a6330e70" y="187.7112"/>
      </g>
     </g>
     <g id="text_10">
      <!-- 0 -->
      <g transform="translate(49.6375 191.510419)scale(0.1 -0.1)">
       <use xlink:href="#DejaVuSans-30"/>
      </g>
     </g>
    </g>
    <g id="ytick_5">
     <g id="line2d_10">
      <g>
       <use style="stroke:#000000;stroke-width:0.8;" x="63" xlink:href="#ma1a6330e70" y="136.039598"/>
      </g>
     </g>
     <g id="text_11">
      <!-- 20 -->
      <g transform="translate(43.275 139.838817)scale(0.1 -0.1)">
       <use xlink:href="#DejaVuSans-32"/>
       <use x="63.623047" xlink:href="#DejaVuSans-30"/>
      </g>
     </g>
    </g>
    <g id="ytick_6">
     <g id="line2d_11">
      <g>
       <use style="stroke:#000000;stroke-width:0.8;" x="63" xlink:href="#ma1a6330e70" y="84.367996"/>
      </g>
     </g>
     <g id="text_12">
      <!-- 40 -->
      <g transform="translate(43.275 88.167215)scale(0.1 -0.1)">
       <use xlink:href="#DejaVuSans-34"/>
       <use x="63.623047" xlink:href="#DejaVuSans-30"/>
      </g>
     </g>
    </g>
    <g id="text_13">
     <!-- voltage [V] -->
     <defs>
      <path d="M 2.984375 54.6875 
L 12.5 54.6875 
L 29.59375 8.796875 
L 46.6875 54.6875 
L 56.203125 54.6875 
L 35.6875 0 
L 23.484375 0 
z
" id="DejaVuSans-76"/>
      <path d="M 30.609375 48.390625 
Q 23.390625 48.390625 19.1875 42.75 
Q 14.984375 37.109375 14.984375 27.296875 
Q 14.984375 17.484375 19.15625 11.84375 
Q 23.34375 6.203125 30.609375 6.203125 
Q 37.796875 6.203125 41.984375 11.859375 
Q 46.1875 17.53125 46.1875 27.296875 
Q 46.1875 37.015625 41.984375 42.703125 
Q 37.796875 48.390625 30.609375 48.390625 
z
M 30.609375 56 
Q 42.328125 56 49.015625 48.375 
Q 55.71875 40.765625 55.71875 27.296875 
Q 55.71875 13.875 49.015625 6.21875 
Q 42.328125 -1.421875 30.609375 -1.421875 
Q 18.84375 -1.421875 12.171875 6.21875 
Q 5.515625 13.875 5.515625 27.296875 
Q 5.515625 40.765625 12.171875 48.375 
Q 18.84375 56 30.609375 56 
z
" id="DejaVuSans-6f"/>
      <path d="M 9.421875 75.984375 
L 18.40625 75.984375 
L 18.40625 0 
L 9.421875 0 
z
" id="DejaVuSans-6c"/>
      <path d="M 34.28125 27.484375 
Q 23.390625 27.484375 19.1875 25 
Q 14.984375 22.515625 14.984375 16.5 
Q 14.984375 11.71875 18.140625 8.90625 
Q 21.296875 6.109375 26.703125 6.109375 
Q 34.1875 6.109375 38.703125 11.40625 
Q 43.21875 16.703125 43.21875 25.484375 
L 43.21875 27.484375 
z
M 52.203125 31.203125 
L 52.203125 0 
L 43.21875 0 
L 43.21875 8.296875 
Q 40.140625 3.328125 35.546875 0.953125 
Q 30.953125 -1.421875 24.3125 -1.421875 
Q 15.921875 -1.421875 10.953125 3.296875 
Q 6 8.015625 6 15.921875 
Q 6 25.140625 12.171875 29.828125 
Q 18.359375 34.515625 30.609375 34.515625 
L 43.21875 34.515625 
L 43.21875 35.40625 
Q 43.21875 41.609375 39.140625 45 
Q 35.0625 48.390625 27.6875 48.390625 
Q 23 48.390625 18.546875 47.265625 
Q 14.109375 46.140625 10.015625 43.890625 
L 10.015625 52.203125 
Q 14.9375 54.109375 19.578125 55.046875 
Q 24.21875 56 28.609375 56 
Q 40.484375 56 46.34375 49.84375 
Q 52.203125 43.703125 52.203125 31.203125 
z
" id="DejaVuSans-61"/>
      <path d="M 45.40625 27.984375 
Q 45.40625 37.75 41.375 43.109375 
Q 37.359375 48.484375 30.078125 48.484375 
Q 22.859375 48.484375 18.828125 43.109375 
Q 14.796875 37.75 14.796875 27.984375 
Q 14.796875 18.265625 18.828125 12.890625 
Q 22.859375 7.515625 30.078125 7.515625 
Q 37.359375 7.515625 41.375 12.890625 
Q 45.40625 18.265625 45.40625 27.984375 
z
M 54.390625 6.78125 
Q 54.390625 -7.171875 48.1875 -13.984375 
Q 42 -20.796875 29.203125 -20.796875 
Q 24.46875 -20.796875 20.265625 -20.09375 
Q 16.0625 -19.390625 12.109375 -17.921875 
L 12.109375 -9.1875 
Q 16.0625 -11.328125 19.921875 -12.34375 
Q 23.78125 -13.375 27.78125 -13.375 
Q 36.625 -13.375 41.015625 -8.765625 
Q 45.40625 -4.15625 45.40625 5.171875 
L 45.40625 9.625 
Q 42.625 4.78125 38.28125 2.390625 
Q 33.9375 0 27.875 0 
Q 17.828125 0 11.671875 7.65625 
Q 5.515625 15.328125 5.515625 27.984375 
Q 5.515625 40.671875 11.671875 48.328125 
Q 17.828125 56 27.875 56 
Q 33.9375 56 38.28125 53.609375 
Q 42.625 51.21875 45.40625 46.390625 
L 45.40625 54.6875 
L 54.390625 54.6875 
z
" id="DejaVuSans-67"/>
      <path d="M 28.609375 0 
L 0.78125 72.90625 
L 11.078125 72.90625 
L 34.1875 11.53125 
L 57.328125 72.90625 
L 67.578125 72.90625 
L 39.796875 0 
z
" id="DejaVuSans-56"/>
     </defs>
     <g transform="translate(28.815625 245.75375)rotate(-90)scale(0.1 -0.1)">
      <use xlink:href="#DejaVuSans-76"/>
      <use x="59.179688" xlink:href="#DejaVuSans-6f"/>
      <use x="120.361328" xlink:href="#DejaVuSans-6c"/>
      <use x="148.144531" xlink:href="#DejaVuSans-74"/>
      <use x="187.353516" xlink:href="#DejaVuSans-61"/>
      <use x="248.632812" xlink:href="#DejaVuSans-67"/>
      <use x="312.109375" xlink:href="#DejaVuSans-65"/>
      <use x="373.632812" xlink:href="#DejaVuSans-20"/>
      <use x="405.419922" xlink:href="#DejaVuSans-5b"/>
      <use x="444.433594" xlink:href="#DejaVuSans-56"/>
      <use x="512.841797" xlink:href="#DejaVuSans-5d"/>
     </g>
    </g>
   </g>
   <g id="line2d_12">
    <path clip-path="url(#p7d4a87c94d)" d="M 80.754545 355.6439 
L 81.873082 355.664034 
L 87.714327 356.147952 
L 100.3023 357.114829 
L 111.931527 357.774827 
L 124.750309 358.274095 
L 139.610864 358.623191 
L 151.772727 358.777739 
L 151.8615 357.220798 
L 152.234345 350.876755 
L 152.731473 346.436398 
L 153.565936 341.190309 
L 154.9863 333.798131 
L 156.726245 325.922663 
L 158.430682 319.198542 
L 160.046345 313.691519 
L 161.608745 309.137142 
L 163.171145 305.257482 
L 164.875582 301.625629 
L 167.467745 296.713756 
L 169.0479 293.491706 
L 169.900118 291.232742 
L 170.450509 289.122545 
L 170.8056 286.90773 
L 171.036409 284.176348 
L 171.1962 278.61116 
L 171.249464 272.424051 
L 171.622309 128.071789 
L 171.675573 126.268758 
L 171.746591 126.454422 
L 171.906382 136.336592 
L 172.190455 176.916485 
L 172.847373 268.026993 
L 173.220218 294.6059 
L 173.5398 304.137909 
L 173.912645 309.108448 
L 174.303245 311.70915 
L 174.782618 313.412159 
L 175.244236 314.29394 
L 175.705855 314.737456 
L 176.149718 314.881298 
L 176.6646 314.795492 
L 177.268255 314.443145 
L 178.013945 313.741467 
L 179.096973 312.387551 
L 180.819164 309.83564 
L 185.240045 303.2142 
L 187.938736 299.662104 
L 192.341864 293.938604 
L 193.4604 292.040442 
L 194.188336 290.388476 
L 194.738727 288.558867 
L 195.093818 286.627296 
L 195.324627 284.349379 
L 195.502173 279.766267 
L 195.573191 272.655753 
L 195.626455 251.490446 
L 195.839509 150.002977 
L 196.017055 143.35633 
L 196.034809 143.32435 
L 196.176845 146.204037 
L 196.407655 159.354663 
L 196.744991 196.940636 
L 197.437418 272.095933 
L 197.810264 291.143313 
L 198.200864 300.17086 
L 198.591464 304.511196 
L 199.070836 307.357977 
L 199.550209 309.027911 
L 200.1006 310.207214 
L 200.668745 310.921679 
L 201.254645 311.299256 
L 201.840545 311.415994 
L 202.479709 311.325201 
L 203.243155 311.000498 
L 204.272918 310.309386 
L 205.7643 309.006382 
L 208.800327 305.964878 
L 212.848364 302.007712 
L 217.961673 297.393169 
L 220.553836 294.888271 
L 222.045218 293.148094 
L 223.074982 291.605625 
L 223.785164 290.158406 
L 224.300045 288.638066 
L 224.690645 286.771584 
L 224.956964 284.356579 
L 225.134509 280.249108 
L 225.223282 273.362867 
L 225.578373 147.356836 
L 225.596127 147.264435 
L 225.649391 147.402177 
L 225.809182 151.621364 
L 226.111009 168.426066 
L 226.483855 204.353294 
L 227.211791 272.330905 
L 227.620145 289.261416 
L 227.992991 296.987099 
L 228.436855 301.730025 
L 228.933982 304.660269 
L 229.502127 306.670198 
L 230.123536 308.04042 
L 230.7627 308.909749 
L 231.419618 309.421653 
L 232.112045 309.664974 
L 232.875491 309.679106 
L 233.727709 309.470825 
L 234.810736 308.973328 
L 236.319873 308.012801 
L 238.716736 306.18467 
L 253.0269 294.615534 
L 254.482773 293.020212 
L 255.512536 291.564557 
L 256.240473 290.161061 
L 256.773109 288.667912 
L 257.181464 286.806992 
L 257.447782 284.49601 
L 257.607573 281.456539 
L 257.696345 276.44496 
L 257.767364 258.603394 
L 257.998173 151.856797 
L 258.122455 147.797724 
L 258.157964 148.266528 
L 258.264491 150.945294 
L 258.566318 166.659625 
L 258.956918 200.834307 
L 259.755873 272.201102 
L 260.181982 289.088752 
L 260.590336 296.896956 
L 261.016445 301.045319 
L 261.495818 303.678906 
L 262.028455 305.482518 
L 262.649864 306.828773 
L 263.289027 307.709658 
L 263.945945 308.260143 
L 264.673882 308.570909 
L 265.455082 308.651298 
L 266.360564 308.509912 
L 267.514609 308.079418 
L 269.023745 307.252748 
L 271.225309 305.771712 
L 277.776736 300.962553 
L 284.097355 296.208659 
L 286.174636 294.359813 
L 287.577245 292.823338 
L 288.553745 291.438187 
L 289.263927 290.065458 
L 289.796564 288.559017 
L 290.204918 286.648286 
L 290.453482 284.438391 
L 290.631027 280.722214 
L 290.7198 274.25191 
L 290.844082 199.270686 
L 291.003873 151.193657 
L 291.128155 148.023634 
L 291.163664 148.431576 
L 291.341209 154.17168 
L 291.643036 172.396525 
L 292.175673 223.179961 
L 292.761573 271.809055 
L 293.152173 287.63957 
L 293.560527 296.057362 
L 294.004391 300.633043 
L 294.483764 303.368482 
L 295.051909 305.320083 
L 295.691073 306.695505 
L 296.365745 307.603817 
L 297.022664 308.134815 
L 297.715091 308.425103 
L 298.478536 308.510933 
L 299.384018 308.382833 
L 300.538064 307.970366 
L 302.0472 307.167534 
L 304.231009 305.731675 
L 310.125518 301.472582 
L 317.262845 296.185112 
L 319.340127 294.355934 
L 320.760491 292.816001 
L 321.7725 291.38708 
L 322.500436 289.966741 
L 323.015318 288.485619 
L 323.388164 286.766001 
L 323.672236 284.263938 
L 323.849782 279.998342 
L 323.938555 271.62405 
L 323.974064 255.776606 
L 324.204873 152.154215 
L 324.3114 147.855663 
L 324.346909 148.224617 
L 324.453436 150.549229 
L 324.755264 166.015491 
L 325.163618 201.170864 
L 325.962573 271.670709 
L 326.388682 288.624283 
L 326.797036 296.608407 
L 327.2409 300.970803 
L 327.738027 303.665742 
L 328.306173 305.514697 
L 328.927582 306.791243 
L 329.602255 307.660591 
L 330.276927 308.174152 
L 331.022618 308.448017 
L 331.821573 308.49529 
L 332.727055 308.328601 
L 333.8811 307.884081 
L 335.407991 307.046579 
L 337.804855 305.445674 
L 347.125991 298.725903 
L 350.854445 295.8774 
L 352.807445 294.120198 
L 354.156791 292.61579 
L 355.115536 291.217199 
L 355.790209 289.861654 
L 356.322845 288.264616 
L 356.677936 286.501444 
L 356.9265 284.18236 
L 357.104045 279.878357 
L 357.175064 273.887078 
L 357.210573 263.001104 
L 357.476891 150.174808 
L 357.565664 147.981875 
L 357.618927 148.432376 
L 357.778718 153.474571 
L 358.116055 173.986159 
L 358.648691 225.22282 
L 359.216836 272.001456 
L 359.625191 288.41611 
L 360.033545 296.582795 
L 360.459655 300.894818 
L 360.939027 303.587599 
L 361.453909 305.352206 
L 362.057564 306.674567 
L 362.696727 307.565907 
L 363.353645 308.123455 
L 364.046073 308.43267 
L 364.827273 308.532603 
L 364.862782 308.532293 
L 364.969309 310.232548 
L 365.306645 315.850918 
L 365.786018 319.812801 
L 366.460691 323.386713 
L 367.348418 326.894219 
L 368.413691 330.199757 
L 369.603245 333.165674 
L 370.881573 335.775067 
L 372.284182 338.148547 
L 373.828827 340.328672 
L 375.533264 342.341407 
L 377.397491 344.187215 
L 379.421509 345.871579 
L 381.640827 347.425916 
L 384.126464 348.888351 
L 386.896173 350.253009 
L 390.020973 351.537407 
L 393.571882 352.748232 
L 397.619918 353.885222 
L 402.2361 354.94344 
L 407.5092 355.917267 
L 413.492482 356.790884 
L 420.274718 357.552276 
L 428.0157 358.191644 
L 435.8277 358.644725 
L 435.8277 358.644725 
" style="fill:none;stroke:#1f77b4;stroke-linecap:square;stroke-width:1.5;"/>
   </g>
   <g id="line2d_13">
    <path clip-path="url(#p7d4a87c94d)" d="M 80.754545 355.643906 
L 80.949845 355.335986 
L 81.429218 355.061244 
L 82.423473 354.787632 
L 84.536264 354.467076 
L 88.175945 354.154186 
L 93.608836 353.923984 
L 101.403082 353.83103 
L 115.375909 353.927308 
L 142.558118 354.090521 
L 151.772727 354.097027 
L 151.985782 346.274668 
L 152.411891 339.206773 
L 153.068809 332.037661 
L 153.974291 324.592123 
L 154.968545 318.189616 
L 155.9628 313.178399 
L 156.992564 309.106171 
L 158.146609 305.454475 
L 161.076109 296.713433 
L 161.448955 294.464167 
L 161.679764 291.691119 
L 161.804045 287.756253 
L 161.875064 277.388223 
L 161.910573 191.732838 
L 161.946082 66.96 
L 162.0171 120.456811 
L 162.425455 350.4017 
L 162.656264 363.63449 
L 162.922582 367.944958 
L 163.1889 369.138124 
L 163.419709 369.36 
L 163.615009 369.242215 
L 163.881327 368.766352 
L 164.289682 367.519789 
L 164.893336 364.874315 
L 165.763309 359.945233 
L 167.130409 350.742153 
L 170.077664 330.710812 
L 171.3915 323.430648 
L 172.545545 318.225402 
L 173.664082 314.17905 
L 174.782618 310.944501 
L 175.972173 308.173662 
L 177.303764 305.634604 
L 179.0082 302.887573 
L 181.5471 298.826311 
L 182.292791 297.158242 
L 182.772164 295.550681 
L 183.091745 293.723836 
L 183.3048 291.205794 
L 183.429082 287.094752 
L 183.5001 273.792138 
L 183.571118 69.166773 
L 183.677645 150.995899 
L 184.103755 353.68125 
L 184.370073 364.269395 
L 184.636391 367.621675 
L 184.902709 368.653474 
L 185.115764 368.819745 
L 185.311064 368.684238 
L 185.595136 368.147103 
L 186.021245 366.804478 
L 186.660409 363.96804 
L 187.6014 358.653214 
L 189.270327 347.699684 
L 191.525155 333.26064 
L 192.892255 325.939159 
L 194.081809 320.722796 
L 195.2181 316.707888 
L 196.336636 313.545624 
L 197.490682 310.932437 
L 198.715745 308.699285 
L 200.065091 306.702639 
L 201.591982 304.845192 
L 203.456209 302.938585 
L 208.072391 298.386825 
L 208.871345 297.16222 
L 209.421736 295.907756 
L 209.812336 294.432867 
L 210.078655 292.496492 
L 210.2562 289.265765 
L 210.344973 283.30021 
L 210.380482 271.37671 
L 210.433745 69.157654 
L 210.540273 141.673783 
L 210.966382 352.545925 
L 211.214945 362.943077 
L 211.499018 367.201839 
L 211.765336 368.549023 
L 211.996145 368.852717 
L 212.173691 368.789812 
L 212.422255 368.410402 
L 212.812855 367.327673 
L 213.398755 364.945536 
L 214.250973 360.442814 
L 215.671336 351.547763 
L 218.405536 334.412771 
L 219.772636 327.329997 
L 220.979945 322.206179 
L 222.116236 318.318336 
L 223.234773 315.255403 
L 224.371064 312.769263 
L 225.560618 310.686888 
L 226.838945 308.893409 
L 228.2238 307.332709 
L 229.750691 305.946691 
L 231.472882 304.684777 
L 233.479145 303.494405 
L 235.947027 302.29775 
L 239.639973 300.784048 
L 243.492709 299.149041 
L 245.090618 298.233631 
L 246.120382 297.400456 
L 246.830564 296.552483 
L 247.345445 295.59778 
L 247.718291 294.445581 
L 248.002364 292.779496 
L 248.179909 290.412073 
L 248.286436 286.260018 
L 248.3397 277.25537 
L 248.375209 194.5681 
L 248.410718 67.99736 
L 248.481736 119.394863 
L 248.890091 348.541548 
L 249.103145 360.639195 
L 249.404973 366.3741 
L 249.689045 368.329267 
L 249.937609 368.851355 
L 250.132909 368.858646 
L 250.363718 368.572127 
L 250.718809 367.694461 
L 251.251445 365.698997 
L 252.032645 361.819614 
L 253.275464 354.374781 
L 256.5423 334.404047 
L 257.873891 327.823038 
L 259.063445 323.00652 
L 260.199736 319.294885 
L 261.318273 316.372423 
L 262.454564 314.005055 
L 263.644118 312.032101 
L 264.904691 310.369889 
L 266.254036 308.957025 
L 267.727664 307.736436 
L 269.361082 306.67469 
L 271.207555 305.74447 
L 273.320345 304.933063 
L 275.823736 304.215995 
L 278.877518 303.581128 
L 282.783518 303.008031 
L 288.145391 302.461545 
L 297.004909 301.811688 
L 316.250836 300.42824 
L 322.713491 299.729633 
L 326.690509 299.092592 
L 329.229409 298.476744 
L 330.898336 297.856414 
L 332.016873 297.215523 
L 332.798073 296.519362 
L 333.366218 295.710993 
L 333.774573 294.741594 
L 334.0764 293.451612 
L 334.289455 291.576488 
L 334.431491 288.2917 
L 334.502509 282.313471 
L 334.538018 265.726966 
L 334.591282 68.045953 
L 334.680055 132.18633 
L 335.088409 350.68837 
L 335.319218 361.992937 
L 335.621045 366.986916 
L 335.905118 368.642475 
L 336.153682 369.055452 
L 336.331227 369.026172 
L 336.562036 368.716988 
L 336.917127 367.81471 
L 337.467518 365.717959 
L 338.266473 361.703121 
L 339.562555 353.892536 
L 342.598582 335.349575 
L 343.947927 328.61534 
L 345.155236 323.678737 
L 346.291527 319.932638 
L 347.410064 316.984277 
L 348.546355 314.600563 
L 349.718155 312.647225 
L 350.960973 311.003162 
L 352.292564 309.609819 
L 353.730682 308.425116 
L 355.328591 307.398649 
L 357.1218 306.514121 
L 359.181327 305.75021 
L 361.6137 305.091051 
L 364.596464 304.522181 
L 364.827273 304.486212 
L 365.040327 312.257344 
L 365.430927 318.192 
L 365.981318 323.163732 
L 366.727009 327.89806 
L 367.668 332.46656 
L 368.768782 336.72675 
L 370.0116 340.651821 
L 371.360945 344.182809 
L 372.816818 347.373244 
L 374.361464 350.226387 
L 375.977127 352.750358 
L 377.646055 354.95406 
L 379.368245 356.864075 
L 381.108191 358.46552 
L 382.865891 359.783575 
L 384.641345 360.837892 
L 386.434555 361.646462 
L 388.298782 362.242023 
L 390.251782 362.630746 
L 392.364573 362.821828 
L 394.743682 362.808812 
L 397.602164 362.562076 
L 401.614691 361.971563 
L 412.604755 360.258659 
L 417.700309 359.754458 
L 423.204218 359.439781 
L 430.021964 359.285172 
L 435.845455 359.264591 
L 435.845455 359.264591 
" style="fill:none;stroke:#ff0000;stroke-linecap:square;stroke-width:1.5;"/>
   </g>
   <g id="patch_3">
    <path d="M 63 384.48 
L 63 51.84 
" style="fill:none;stroke:#000000;stroke-linecap:square;stroke-linejoin:miter;stroke-width:0.8;"/>
   </g>
   <g id="patch_4">
    <path d="M 453.6 384.48 
L 453.6 51.84 
" style="fill:none;stroke:#000000;stroke-linecap:square;stroke-linejoin:miter;stroke-width:0.8;"/>
   </g>
   <g id="patch_5">
    <path d="M 63 384.48 
L 453.6 384.48 
" style="fill:none;stroke:#000000;stroke-linecap:square;stroke-linejoin:miter;stroke-width:0.8;"/>
   </g>
   <g id="patch_6">
    <path d="M 63 51.84 
L 453.6 51.84 
" style="fill:none;stroke:#000000;stroke-linecap:square;stroke-linejoin:miter;stroke-width:0.8;"/>
   </g>
   <g id="legend_1">
    <g id="patch_7">
     <path d="M 383.460938 89.19625 
L 446.6 89.19625 
Q 448.6 89.19625 448.6 87.19625 
L 448.6 58.84 
Q 448.6 56.84 446.6 56.84 
L 383.460938 56.84 
Q 381.460938 56.84 381.460938 58.84 
L 381.460938 87.19625 
Q 381.460938 89.19625 383.460938 89.19625 
z
" style="fill:#ffffff;opacity:0.8;stroke:#cccccc;stroke-linejoin:miter;"/>
    </g>
    <g id="line2d_14">
     <path d="M 385.460938 64.938437 
L 405.460938 64.938437 
" style="fill:none;stroke:#1f77b4;stroke-linecap:square;stroke-width:1.5;"/>
    </g>
    <g id="line2d_15"/>
    <g id="text_14">
     <!-- target -->
     <defs>
      <path d="M 41.109375 46.296875 
Q 39.59375 47.171875 37.8125 47.578125 
Q 36.03125 48 33.890625 48 
Q 26.265625 48 22.1875 43.046875 
Q 18.109375 38.09375 18.109375 28.8125 
L 18.109375 0 
L 9.078125 0 
L 9.078125 54.6875 
L 18.109375 54.6875 
L 18.109375 46.1875 
Q 20.953125 51.171875 25.484375 53.578125 
Q 30.03125 56 36.53125 56 
Q 37.453125 56 38.578125 55.875 
Q 39.703125 55.765625 41.0625 55.515625 
z
" id="DejaVuSans-72"/>
     </defs>
     <g transform="translate(413.460938 68.438437)scale(0.1 -0.1)">
      <use xlink:href="#DejaVuSans-74"/>
      <use x="39.208984" xlink:href="#DejaVuSans-61"/>
      <use x="100.488281" xlink:href="#DejaVuSans-72"/>
      <use x="141.585938" xlink:href="#DejaVuSans-67"/>
      <use x="205.0625" xlink:href="#DejaVuSans-65"/>
      <use x="266.585938" xlink:href="#DejaVuSans-74"/>
     </g>
    </g>
    <g id="line2d_16">
     <path d="M 385.460938 79.616562 
L 405.460938 79.616562 
" style="fill:none;stroke:#ff0000;stroke-linecap:square;stroke-width:1.5;"/>
    </g>
    <g id="line2d_17"/>
    <g id="text_15">
     <!-- model -->
     <defs>
      <path d="M 45.40625 46.390625 
L 45.40625 75.984375 
L 54.390625 75.984375 
L 54.390625 0 
L 45.40625 0 
L 45.40625 8.203125 
Q 42.578125 3.328125 38.25 0.953125 
Q 33.9375 -1.421875 27.875 -1.421875 
Q 17.96875 -1.421875 11.734375 6.484375 
Q 5.515625 14.40625 5.515625 27.296875 
Q 5.515625 40.1875 11.734375 48.09375 
Q 17.96875 56 27.875 56 
Q 33.9375 56 38.25 53.625 
Q 42.578125 51.265625 45.40625 46.390625 
z
M 14.796875 27.296875 
Q 14.796875 17.390625 18.875 11.75 
Q 22.953125 6.109375 30.078125 6.109375 
Q 37.203125 6.109375 41.296875 11.75 
Q 45.40625 17.390625 45.40625 27.296875 
Q 45.40625 37.203125 41.296875 42.84375 
Q 37.203125 48.484375 30.078125 48.484375 
Q 22.953125 48.484375 18.875 42.84375 
Q 14.796875 37.203125 14.796875 27.296875 
z
" id="DejaVuSans-64"/>
     </defs>
     <g transform="translate(413.460938 83.116562)scale(0.1 -0.1)">
      <use xlink:href="#DejaVuSans-6d"/>
      <use x="97.412109" xlink:href="#DejaVuSans-6f"/>
      <use x="158.59375" xlink:href="#DejaVuSans-64"/>
      <use x="222.070312" xlink:href="#DejaVuSans-65"/>
      <use x="283.59375" xlink:href="#DejaVuSans-6c"/>
     </g>
    </g>
   </g>
  </g>
 </g>
 <defs>
  <clipPath id="p7d4a87c94d">
   <rect height="332.64" width="390.6" x="63" y="51.84"/>
  </clipPath>
 </defs>
</svg>
