<?xml version="1.0" encoding="utf-8" standalone="no"?>
<!DOCTYPE svg PUBLIC "-//W3C//DTD SVG 1.1//EN"
  "http://www.w3.org/Graphics/SVG/1.1/DTD/svg11.dtd">
<!-- Created with matplotlib (https://matplotlib.org/) -->
<svg height="432pt" version="1.1" viewBox="0 0 504 432" width="504pt" xmlns="http://www.w3.org/2000/svg" xmlns:xlink="http://www.w3.org/1999/xlink">
 <defs>
  <style type="text/css">
*{stroke-linecap:butt;stroke-linejoin:round;}
  </style>
 </defs>
 <g id="figure_1">
  <g id="patch_1">
   <path d="M 0 432 
L 504 432 
L 504 0 
L 0 0 
z
" style="fill:#ffffff;"/>
  </g>
  <g id="axes_1">
   <g id="patch_2">
    <path d="M 63 384.48 
L 453.6 384.48 
L 453.6 51.84 
L 63 51.84 
z
" style="fill:#ffffff;"/>
   </g>
   <g id="matplotlib.axis_1">
    <g id="xtick_1">
     <g id="line2d_1">
      <defs>
       <path d="M 0 0 
L 0 3.5 
" id="ma82c0b8f0b" style="stroke:#000000;stroke-width:0.8;"/>
      </defs>
      <g>
       <use style="stroke:#000000;stroke-width:0.8;" x="80.754545" xlink:href="#ma82c0b8f0b" y="384.48"/>
      </g>
     </g>
     <g id="text_1">
      <!-- 0 -->
      <defs>
       <path d="M 31.78125 66.40625 
Q 24.171875 66.40625 20.328125 58.90625 
Q 16.5 51.421875 16.5 36.375 
Q 16.5 21.390625 20.328125 13.890625 
Q 24.171875 6.390625 31.78125 6.390625 
Q 39.453125 6.390625 43.28125 13.890625 
Q 47.125 21.390625 47.125 36.375 
Q 47.125 51.421875 43.28125 58.90625 
Q 39.453125 66.40625 31.78125 66.40625 
z
M 31.78125 74.21875 
Q 44.046875 74.21875 50.515625 64.515625 
Q 56.984375 54.828125 56.984375 36.375 
Q 56.984375 17.96875 50.515625 8.265625 
Q 44.046875 -1.421875 31.78125 -1.421875 
Q 19.53125 -1.421875 13.0625 8.265625 
Q 6.59375 17.96875 6.59375 36.375 
Q 6.59375 54.828125 13.0625 64.515625 
Q 19.53125 74.21875 31.78125 74.21875 
z
" id="DejaVuSans-48"/>
      </defs>
      <g transform="translate(77.573295 399.078438)scale(0.1 -0.1)">
       <use xlink:href="#DejaVuSans-48"/>
      </g>
     </g>
    </g>
    <g id="xtick_2">
     <g id="line2d_2">
      <g>
       <use style="stroke:#000000;stroke-width:0.8;" x="151.763044" xlink:href="#ma82c0b8f0b" y="384.48"/>
      </g>
     </g>
     <g id="text_2">
      <!-- 880 -->
      <defs>
       <path d="M 31.78125 34.625 
Q 24.75 34.625 20.71875 30.859375 
Q 16.703125 27.09375 16.703125 20.515625 
Q 16.703125 13.921875 20.71875 10.15625 
Q 24.75 6.390625 31.78125 6.390625 
Q 38.8125 6.390625 42.859375 10.171875 
Q 46.921875 13.96875 46.921875 20.515625 
Q 46.921875 27.09375 42.890625 30.859375 
Q 38.875 34.625 31.78125 34.625 
z
M 21.921875 38.8125 
Q 15.578125 40.375 12.03125 44.71875 
Q 8.5 49.078125 8.5 55.328125 
Q 8.5 64.0625 14.71875 69.140625 
Q 20.953125 74.21875 31.78125 74.21875 
Q 42.671875 74.21875 48.875 69.140625 
Q 55.078125 64.0625 55.078125 55.328125 
Q 55.078125 49.078125 51.53125 44.71875 
Q 48 40.375 41.703125 38.8125 
Q 48.828125 37.15625 52.796875 32.3125 
Q 56.78125 27.484375 56.78125 20.515625 
Q 56.78125 9.90625 50.3125 4.234375 
Q 43.84375 -1.421875 31.78125 -1.421875 
Q 19.734375 -1.421875 13.25 4.234375 
Q 6.78125 9.90625 6.78125 20.515625 
Q 6.78125 27.484375 10.78125 32.3125 
Q 14.796875 37.15625 21.921875 38.8125 
z
M 18.3125 54.390625 
Q 18.3125 48.734375 21.84375 45.5625 
Q 25.390625 42.390625 31.78125 42.390625 
Q 38.140625 42.390625 41.71875 45.5625 
Q 45.3125 48.734375 45.3125 54.390625 
Q 45.3125 60.0625 41.71875 63.234375 
Q 38.140625 66.40625 31.78125 66.40625 
Q 25.390625 66.40625 21.84375 63.234375 
Q 18.3125 60.0625 18.3125 54.390625 
z
" id="DejaVuSans-56"/>
      </defs>
      <g transform="translate(142.219294 399.078438)scale(0.1 -0.1)">
       <use xlink:href="#DejaVuSans-56"/>
       <use x="63.623047" xlink:href="#DejaVuSans-56"/>
       <use x="127.246094" xlink:href="#DejaVuSans-48"/>
      </g>
     </g>
    </g>
    <g id="xtick_3">
     <g id="line2d_3">
      <g>
       <use style="stroke:#000000;stroke-width:0.8;" x="222.771543" xlink:href="#ma82c0b8f0b" y="384.48"/>
      </g>
     </g>
     <g id="text_3">
      <!-- 1760 -->
      <defs>
       <path d="M 12.40625 8.296875 
L 28.515625 8.296875 
L 28.515625 63.921875 
L 10.984375 60.40625 
L 10.984375 69.390625 
L 28.421875 72.90625 
L 38.28125 72.90625 
L 38.28125 8.296875 
L 54.390625 8.296875 
L 54.390625 0 
L 12.40625 0 
z
" id="DejaVuSans-49"/>
       <path d="M 8.203125 72.90625 
L 55.078125 72.90625 
L 55.078125 68.703125 
L 28.609375 0 
L 18.3125 0 
L 43.21875 64.59375 
L 8.203125 64.59375 
z
" id="DejaVuSans-55"/>
       <path d="M 33.015625 40.375 
Q 26.375 40.375 22.484375 35.828125 
Q 18.609375 31.296875 18.609375 23.390625 
Q 18.609375 15.53125 22.484375 10.953125 
Q 26.375 6.390625 33.015625 6.390625 
Q 39.65625 6.390625 43.53125 10.953125 
Q 47.40625 15.53125 47.40625 23.390625 
Q 47.40625 31.296875 43.53125 35.828125 
Q 39.65625 40.375 33.015625 40.375 
z
M 52.59375 71.296875 
L 52.59375 62.3125 
Q 48.875 64.0625 45.09375 64.984375 
Q 41.3125 65.921875 37.59375 65.921875 
Q 27.828125 65.921875 22.671875 59.328125 
Q 17.53125 52.734375 16.796875 39.40625 
Q 19.671875 43.65625 24.015625 45.921875 
Q 28.375 48.1875 33.59375 48.1875 
Q 44.578125 48.1875 50.953125 41.515625 
Q 57.328125 34.859375 57.328125 23.390625 
Q 57.328125 12.15625 50.6875 5.359375 
Q 44.046875 -1.421875 33.015625 -1.421875 
Q 20.359375 -1.421875 13.671875 8.265625 
Q 6.984375 17.96875 6.984375 36.375 
Q 6.984375 53.65625 15.1875 63.9375 
Q 23.390625 74.21875 37.203125 74.21875 
Q 40.921875 74.21875 44.703125 73.484375 
Q 48.484375 72.75 52.59375 71.296875 
z
" id="DejaVuSans-54"/>
      </defs>
      <g transform="translate(210.046543 399.078438)scale(0.1 -0.1)">
       <use xlink:href="#DejaVuSans-49"/>
       <use x="63.623047" xlink:href="#DejaVuSans-55"/>
       <use x="127.246094" xlink:href="#DejaVuSans-54"/>
       <use x="190.869141" xlink:href="#DejaVuSans-48"/>
      </g>
     </g>
    </g>
    <g id="xtick_4">
     <g id="line2d_4">
      <g>
       <use style="stroke:#000000;stroke-width:0.8;" x="293.780042" xlink:href="#ma82c0b8f0b" y="384.48"/>
      </g>
     </g>
     <g id="text_4">
      <!-- 2640 -->
      <defs>
       <path d="M 19.1875 8.296875 
L 53.609375 8.296875 
L 53.609375 0 
L 7.328125 0 
L 7.328125 8.296875 
Q 12.9375 14.109375 22.625 23.890625 
Q 32.328125 33.6875 34.8125 36.53125 
Q 39.546875 41.84375 41.421875 45.53125 
Q 43.3125 49.21875 43.3125 52.78125 
Q 43.3125 58.59375 39.234375 62.25 
Q 35.15625 65.921875 28.609375 65.921875 
Q 23.96875 65.921875 18.8125 64.3125 
Q 13.671875 62.703125 7.8125 59.421875 
L 7.8125 69.390625 
Q 13.765625 71.78125 18.9375 73 
Q 24.125 74.21875 28.421875 74.21875 
Q 39.75 74.21875 46.484375 68.546875 
Q 53.21875 62.890625 53.21875 53.421875 
Q 53.21875 48.921875 51.53125 44.890625 
Q 49.859375 40.875 45.40625 35.40625 
Q 44.1875 33.984375 37.640625 27.21875 
Q 31.109375 20.453125 19.1875 8.296875 
z
" id="DejaVuSans-50"/>
       <path d="M 37.796875 64.3125 
L 12.890625 25.390625 
L 37.796875 25.390625 
z
M 35.203125 72.90625 
L 47.609375 72.90625 
L 47.609375 25.390625 
L 58.015625 25.390625 
L 58.015625 17.1875 
L 47.609375 17.1875 
L 47.609375 0 
L 37.796875 0 
L 37.796875 17.1875 
L 4.890625 17.1875 
L 4.890625 26.703125 
z
" id="DejaVuSans-52"/>
      </defs>
      <g transform="translate(281.055042 399.078438)scale(0.1 -0.1)">
       <use xlink:href="#DejaVuSans-50"/>
       <use x="63.623047" xlink:href="#DejaVuSans-54"/>
       <use x="127.246094" xlink:href="#DejaVuSans-52"/>
       <use x="190.869141" xlink:href="#DejaVuSans-48"/>
      </g>
     </g>
    </g>
    <g id="xtick_5">
     <g id="line2d_5">
      <g>
       <use style="stroke:#000000;stroke-width:0.8;" x="364.788541" xlink:href="#ma82c0b8f0b" y="384.48"/>
      </g>
     </g>
     <g id="text_5">
      <!-- 3520 -->
      <defs>
       <path d="M 40.578125 39.3125 
Q 47.65625 37.796875 51.625 33 
Q 55.609375 28.21875 55.609375 21.1875 
Q 55.609375 10.40625 48.1875 4.484375 
Q 40.765625 -1.421875 27.09375 -1.421875 
Q 22.515625 -1.421875 17.65625 -0.515625 
Q 12.796875 0.390625 7.625 2.203125 
L 7.625 11.71875 
Q 11.71875 9.328125 16.59375 8.109375 
Q 21.484375 6.890625 26.8125 6.890625 
Q 36.078125 6.890625 40.9375 10.546875 
Q 45.796875 14.203125 45.796875 21.1875 
Q 45.796875 27.640625 41.28125 31.265625 
Q 36.765625 34.90625 28.71875 34.90625 
L 20.21875 34.90625 
L 20.21875 43.015625 
L 29.109375 43.015625 
Q 36.375 43.015625 40.234375 45.921875 
Q 44.09375 48.828125 44.09375 54.296875 
Q 44.09375 59.90625 40.109375 62.90625 
Q 36.140625 65.921875 28.71875 65.921875 
Q 24.65625 65.921875 20.015625 65.03125 
Q 15.375 64.15625 9.8125 62.3125 
L 9.8125 71.09375 
Q 15.4375 72.65625 20.34375 73.4375 
Q 25.25 74.21875 29.59375 74.21875 
Q 40.828125 74.21875 47.359375 69.109375 
Q 53.90625 64.015625 53.90625 55.328125 
Q 53.90625 49.265625 50.4375 45.09375 
Q 46.96875 40.921875 40.578125 39.3125 
z
" id="DejaVuSans-51"/>
       <path d="M 10.796875 72.90625 
L 49.515625 72.90625 
L 49.515625 64.59375 
L 19.828125 64.59375 
L 19.828125 46.734375 
Q 21.96875 47.46875 24.109375 47.828125 
Q 26.265625 48.1875 28.421875 48.1875 
Q 40.625 48.1875 47.75 41.5 
Q 54.890625 34.8125 54.890625 23.390625 
Q 54.890625 11.625 47.5625 5.09375 
Q 40.234375 -1.421875 26.90625 -1.421875 
Q 22.3125 -1.421875 17.546875 -0.640625 
Q 12.796875 0.140625 7.71875 1.703125 
L 7.71875 11.625 
Q 12.109375 9.234375 16.796875 8.0625 
Q 21.484375 6.890625 26.703125 6.890625 
Q 35.15625 6.890625 40.078125 11.328125 
Q 45.015625 15.765625 45.015625 23.390625 
Q 45.015625 31 40.078125 35.4375 
Q 35.15625 39.890625 26.703125 39.890625 
Q 22.75 39.890625 18.8125 39.015625 
Q 14.890625 38.140625 10.796875 36.28125 
z
" id="DejaVuSans-53"/>
      </defs>
      <g transform="translate(352.063541 399.078438)scale(0.1 -0.1)">
       <use xlink:href="#DejaVuSans-51"/>
       <use x="63.623047" xlink:href="#DejaVuSans-53"/>
       <use x="127.246094" xlink:href="#DejaVuSans-50"/>
       <use x="190.869141" xlink:href="#DejaVuSans-48"/>
      </g>
     </g>
    </g>
    <g id="text_6">
     <!-- time [ms] -->
     <defs>
      <path d="M 18.3125 70.21875 
L 18.3125 54.6875 
L 36.8125 54.6875 
L 36.8125 47.703125 
L 18.3125 47.703125 
L 18.3125 18.015625 
Q 18.3125 11.328125 20.140625 9.421875 
Q 21.96875 7.515625 27.59375 7.515625 
L 36.8125 7.515625 
L 36.8125 0 
L 27.59375 0 
Q 17.1875 0 13.234375 3.875 
Q 9.28125 7.765625 9.28125 18.015625 
L 9.28125 47.703125 
L 2.6875 47.703125 
L 2.6875 54.6875 
L 9.28125 54.6875 
L 9.28125 70.21875 
z
" id="DejaVuSans-116"/>
      <path d="M 9.421875 54.6875 
L 18.40625 54.6875 
L 18.40625 0 
L 9.421875 0 
z
M 9.421875 75.984375 
L 18.40625 75.984375 
L 18.40625 64.59375 
L 9.421875 64.59375 
z
" id="DejaVuSans-105"/>
      <path d="M 52 44.1875 
Q 55.375 50.25 60.0625 53.125 
Q 64.75 56 71.09375 56 
Q 79.640625 56 84.28125 50.015625 
Q 88.921875 44.046875 88.921875 33.015625 
L 88.921875 0 
L 79.890625 0 
L 79.890625 32.71875 
Q 79.890625 40.578125 77.09375 44.375 
Q 74.3125 48.1875 68.609375 48.1875 
Q 61.625 48.1875 57.5625 43.546875 
Q 53.515625 38.921875 53.515625 30.90625 
L 53.515625 0 
L 44.484375 0 
L 44.484375 32.71875 
Q 44.484375 40.625 41.703125 44.40625 
Q 38.921875 48.1875 33.109375 48.1875 
Q 26.21875 48.1875 22.15625 43.53125 
Q 18.109375 38.875 18.109375 30.90625 
L 18.109375 0 
L 9.078125 0 
L 9.078125 54.6875 
L 18.109375 54.6875 
L 18.109375 46.1875 
Q 21.1875 51.21875 25.484375 53.609375 
Q 29.78125 56 35.6875 56 
Q 41.65625 56 45.828125 52.96875 
Q 50 49.953125 52 44.1875 
z
" id="DejaVuSans-109"/>
      <path d="M 56.203125 29.59375 
L 56.203125 25.203125 
L 14.890625 25.203125 
Q 15.484375 15.921875 20.484375 11.0625 
Q 25.484375 6.203125 34.421875 6.203125 
Q 39.59375 6.203125 44.453125 7.46875 
Q 49.3125 8.734375 54.109375 11.28125 
L 54.109375 2.78125 
Q 49.265625 0.734375 44.1875 -0.34375 
Q 39.109375 -1.421875 33.890625 -1.421875 
Q 20.796875 -1.421875 13.15625 6.1875 
Q 5.515625 13.8125 5.515625 26.8125 
Q 5.515625 40.234375 12.765625 48.109375 
Q 20.015625 56 32.328125 56 
Q 43.359375 56 49.78125 48.890625 
Q 56.203125 41.796875 56.203125 29.59375 
z
M 47.21875 32.234375 
Q 47.125 39.59375 43.09375 43.984375 
Q 39.0625 48.390625 32.421875 48.390625 
Q 24.90625 48.390625 20.390625 44.140625 
Q 15.875 39.890625 15.1875 32.171875 
z
" id="DejaVuSans-101"/>
      <path id="DejaVuSans-32"/>
      <path d="M 8.59375 75.984375 
L 29.296875 75.984375 
L 29.296875 69 
L 17.578125 69 
L 17.578125 -6.203125 
L 29.296875 -6.203125 
L 29.296875 -13.1875 
L 8.59375 -13.1875 
z
" id="DejaVuSans-91"/>
      <path d="M 44.28125 53.078125 
L 44.28125 44.578125 
Q 40.484375 46.53125 36.375 47.5 
Q 32.28125 48.484375 27.875 48.484375 
Q 21.1875 48.484375 17.84375 46.4375 
Q 14.5 44.390625 14.5 40.28125 
Q 14.5 37.15625 16.890625 35.375 
Q 19.28125 33.59375 26.515625 31.984375 
L 29.59375 31.296875 
Q 39.15625 29.25 43.1875 25.515625 
Q 47.21875 21.78125 47.21875 15.09375 
Q 47.21875 7.46875 41.1875 3.015625 
Q 35.15625 -1.421875 24.609375 -1.421875 
Q 20.21875 -1.421875 15.453125 -0.5625 
Q 10.6875 0.296875 5.421875 2 
L 5.421875 11.28125 
Q 10.40625 8.6875 15.234375 7.390625 
Q 20.0625 6.109375 24.8125 6.109375 
Q 31.15625 6.109375 34.5625 8.28125 
Q 37.984375 10.453125 37.984375 14.40625 
Q 37.984375 18.0625 35.515625 20.015625 
Q 33.0625 21.96875 24.703125 23.78125 
L 21.578125 24.515625 
Q 13.234375 26.265625 9.515625 29.90625 
Q 5.8125 33.546875 5.8125 39.890625 
Q 5.8125 47.609375 11.28125 51.796875 
Q 16.75 56 26.8125 56 
Q 31.78125 56 36.171875 55.265625 
Q 40.578125 54.546875 44.28125 53.078125 
z
" id="DejaVuSans-115"/>
      <path d="M 30.421875 75.984375 
L 30.421875 -13.1875 
L 9.71875 -13.1875 
L 9.71875 -6.203125 
L 21.390625 -6.203125 
L 21.390625 69 
L 9.71875 69 
L 9.71875 75.984375 
z
" id="DejaVuSans-93"/>
     </defs>
     <g transform="translate(234.038281 412.756563)scale(0.1 -0.1)">
      <use xlink:href="#DejaVuSans-116"/>
      <use x="39.208984" xlink:href="#DejaVuSans-105"/>
      <use x="66.992188" xlink:href="#DejaVuSans-109"/>
      <use x="164.404297" xlink:href="#DejaVuSans-101"/>
      <use x="225.927734" xlink:href="#DejaVuSans-32"/>
      <use x="257.714844" xlink:href="#DejaVuSans-91"/>
      <use x="296.728516" xlink:href="#DejaVuSans-109"/>
      <use x="394.140625" xlink:href="#DejaVuSans-115"/>
      <use x="446.240234" xlink:href="#DejaVuSans-93"/>
     </g>
    </g>
   </g>
   <g id="matplotlib.axis_2">
    <g id="ytick_1">
     <g id="line2d_6">
      <defs>
       <path d="M 0 0 
L -3.5 0 
" id="mfd3c74de4a" style="stroke:#000000;stroke-width:0.8;"/>
      </defs>
      <g>
       <use style="stroke:#000000;stroke-width:0.8;" x="63" xlink:href="#mfd3c74de4a" y="364.154725"/>
      </g>
     </g>
     <g id="text_7">
      <!-- −125 -->
      <defs>
       <path d="M 10.59375 35.5 
L 73.1875 35.5 
L 73.1875 27.203125 
L 10.59375 27.203125 
z
" id="DejaVuSans-8722"/>
      </defs>
      <g transform="translate(28.532812 367.953944)scale(0.1 -0.1)">
       <use xlink:href="#DejaVuSans-8722"/>
       <use x="83.789062" xlink:href="#DejaVuSans-49"/>
       <use x="147.412109" xlink:href="#DejaVuSans-50"/>
       <use x="211.035156" xlink:href="#DejaVuSans-53"/>
      </g>
     </g>
    </g>
    <g id="ytick_2">
     <g id="line2d_7">
      <g>
       <use style="stroke:#000000;stroke-width:0.8;" x="63" xlink:href="#mfd3c74de4a" y="322.973751"/>
      </g>
     </g>
     <g id="text_8">
      <!-- −100 -->
      <g transform="translate(28.532812 326.77297)scale(0.1 -0.1)">
       <use xlink:href="#DejaVuSans-8722"/>
       <use x="83.789062" xlink:href="#DejaVuSans-49"/>
       <use x="147.412109" xlink:href="#DejaVuSans-48"/>
       <use x="211.035156" xlink:href="#DejaVuSans-48"/>
      </g>
     </g>
    </g>
    <g id="ytick_3">
     <g id="line2d_8">
      <g>
       <use style="stroke:#000000;stroke-width:0.8;" x="63" xlink:href="#mfd3c74de4a" y="281.792777"/>
      </g>
     </g>
     <g id="text_9">
      <!-- −75 -->
      <g transform="translate(34.895313 285.591996)scale(0.1 -0.1)">
       <use xlink:href="#DejaVuSans-8722"/>
       <use x="83.789062" xlink:href="#DejaVuSans-55"/>
       <use x="147.412109" xlink:href="#DejaVuSans-53"/>
      </g>
     </g>
    </g>
    <g id="ytick_4">
     <g id="line2d_9">
      <g>
       <use style="stroke:#000000;stroke-width:0.8;" x="63" xlink:href="#mfd3c74de4a" y="240.611803"/>
      </g>
     </g>
     <g id="text_10">
      <!-- −50 -->
      <g transform="translate(34.895313 244.411021)scale(0.1 -0.1)">
       <use xlink:href="#DejaVuSans-8722"/>
       <use x="83.789062" xlink:href="#DejaVuSans-53"/>
       <use x="147.412109" xlink:href="#DejaVuSans-48"/>
      </g>
     </g>
    </g>
    <g id="ytick_5">
     <g id="line2d_10">
      <g>
       <use style="stroke:#000000;stroke-width:0.8;" x="63" xlink:href="#mfd3c74de4a" y="199.430829"/>
      </g>
     </g>
     <g id="text_11">
      <!-- −25 -->
      <g transform="translate(34.895313 203.230047)scale(0.1 -0.1)">
       <use xlink:href="#DejaVuSans-8722"/>
       <use x="83.789062" xlink:href="#DejaVuSans-50"/>
       <use x="147.412109" xlink:href="#DejaVuSans-53"/>
      </g>
     </g>
    </g>
    <g id="ytick_6">
     <g id="line2d_11">
      <g>
       <use style="stroke:#000000;stroke-width:0.8;" x="63" xlink:href="#mfd3c74de4a" y="158.249855"/>
      </g>
     </g>
     <g id="text_12">
      <!-- 0 -->
      <g transform="translate(49.6375 162.049073)scale(0.1 -0.1)">
       <use xlink:href="#DejaVuSans-48"/>
      </g>
     </g>
    </g>
    <g id="ytick_7">
     <g id="line2d_12">
      <g>
       <use style="stroke:#000000;stroke-width:0.8;" x="63" xlink:href="#mfd3c74de4a" y="117.068881"/>
      </g>
     </g>
     <g id="text_13">
      <!-- 25 -->
      <g transform="translate(43.275 120.868099)scale(0.1 -0.1)">
       <use xlink:href="#DejaVuSans-50"/>
       <use x="63.623047" xlink:href="#DejaVuSans-53"/>
      </g>
     </g>
    </g>
    <g id="ytick_8">
     <g id="line2d_13">
      <g>
       <use style="stroke:#000000;stroke-width:0.8;" x="63" xlink:href="#mfd3c74de4a" y="75.887906"/>
      </g>
     </g>
     <g id="text_14">
      <!-- 50 -->
      <g transform="translate(43.275 79.687125)scale(0.1 -0.1)">
       <use xlink:href="#DejaVuSans-53"/>
       <use x="63.623047" xlink:href="#DejaVuSans-48"/>
      </g>
     </g>
    </g>
    <g id="text_15">
     <!-- voltage [mV] -->
     <defs>
      <path d="M 2.984375 54.6875 
L 12.5 54.6875 
L 29.59375 8.796875 
L 46.6875 54.6875 
L 56.203125 54.6875 
L 35.6875 0 
L 23.484375 0 
z
" id="DejaVuSans-118"/>
      <path d="M 30.609375 48.390625 
Q 23.390625 48.390625 19.1875 42.75 
Q 14.984375 37.109375 14.984375 27.296875 
Q 14.984375 17.484375 19.15625 11.84375 
Q 23.34375 6.203125 30.609375 6.203125 
Q 37.796875 6.203125 41.984375 11.859375 
Q 46.1875 17.53125 46.1875 27.296875 
Q 46.1875 37.015625 41.984375 42.703125 
Q 37.796875 48.390625 30.609375 48.390625 
z
M 30.609375 56 
Q 42.328125 56 49.015625 48.375 
Q 55.71875 40.765625 55.71875 27.296875 
Q 55.71875 13.875 49.015625 6.21875 
Q 42.328125 -1.421875 30.609375 -1.421875 
Q 18.84375 -1.421875 12.171875 6.21875 
Q 5.515625 13.875 5.515625 27.296875 
Q 5.515625 40.765625 12.171875 48.375 
Q 18.84375 56 30.609375 56 
z
" id="DejaVuSans-111"/>
      <path d="M 9.421875 75.984375 
L 18.40625 75.984375 
L 18.40625 0 
L 9.421875 0 
z
" id="DejaVuSans-108"/>
      <path d="M 34.28125 27.484375 
Q 23.390625 27.484375 19.1875 25 
Q 14.984375 22.515625 14.984375 16.5 
Q 14.984375 11.71875 18.140625 8.90625 
Q 21.296875 6.109375 26.703125 6.109375 
Q 34.1875 6.109375 38.703125 11.40625 
Q 43.21875 16.703125 43.21875 25.484375 
L 43.21875 27.484375 
z
M 52.203125 31.203125 
L 52.203125 0 
L 43.21875 0 
L 43.21875 8.296875 
Q 40.140625 3.328125 35.546875 0.953125 
Q 30.953125 -1.421875 24.3125 -1.421875 
Q 15.921875 -1.421875 10.953125 3.296875 
Q 6 8.015625 6 15.921875 
Q 6 25.140625 12.171875 29.828125 
Q 18.359375 34.515625 30.609375 34.515625 
L 43.21875 34.515625 
L 43.21875 35.40625 
Q 43.21875 41.609375 39.140625 45 
Q 35.0625 48.390625 27.6875 48.390625 
Q 23 48.390625 18.546875 47.265625 
Q 14.109375 46.140625 10.015625 43.890625 
L 10.015625 52.203125 
Q 14.9375 54.109375 19.578125 55.046875 
Q 24.21875 56 28.609375 56 
Q 40.484375 56 46.34375 49.84375 
Q 52.203125 43.703125 52.203125 31.203125 
z
" id="DejaVuSans-97"/>
      <path d="M 45.40625 27.984375 
Q 45.40625 37.75 41.375 43.109375 
Q 37.359375 48.484375 30.078125 48.484375 
Q 22.859375 48.484375 18.828125 43.109375 
Q 14.796875 37.75 14.796875 27.984375 
Q 14.796875 18.265625 18.828125 12.890625 
Q 22.859375 7.515625 30.078125 7.515625 
Q 37.359375 7.515625 41.375 12.890625 
Q 45.40625 18.265625 45.40625 27.984375 
z
M 54.390625 6.78125 
Q 54.390625 -7.171875 48.1875 -13.984375 
Q 42 -20.796875 29.203125 -20.796875 
Q 24.46875 -20.796875 20.265625 -20.09375 
Q 16.0625 -19.390625 12.109375 -17.921875 
L 12.109375 -9.1875 
Q 16.0625 -11.328125 19.921875 -12.34375 
Q 23.78125 -13.375 27.78125 -13.375 
Q 36.625 -13.375 41.015625 -8.765625 
Q 45.40625 -4.15625 45.40625 5.171875 
L 45.40625 9.625 
Q 42.625 4.78125 38.28125 2.390625 
Q 33.9375 0 27.875 0 
Q 17.828125 0 11.671875 7.65625 
Q 5.515625 15.328125 5.515625 27.984375 
Q 5.515625 40.671875 11.671875 48.328125 
Q 17.828125 56 27.875 56 
Q 33.9375 56 38.28125 53.609375 
Q 42.625 51.21875 45.40625 46.390625 
L 45.40625 54.6875 
L 54.390625 54.6875 
z
" id="DejaVuSans-103"/>
      <path d="M 28.609375 0 
L 0.78125 72.90625 
L 11.078125 72.90625 
L 34.1875 11.53125 
L 57.328125 72.90625 
L 67.578125 72.90625 
L 39.796875 0 
z
" id="DejaVuSans-86"/>
     </defs>
     <g transform="translate(22.453125 250.624062)rotate(-90)scale(0.1 -0.1)">
      <use xlink:href="#DejaVuSans-118"/>
      <use x="59.179688" xlink:href="#DejaVuSans-111"/>
      <use x="120.361328" xlink:href="#DejaVuSans-108"/>
      <use x="148.144531" xlink:href="#DejaVuSans-116"/>
      <use x="187.353516" xlink:href="#DejaVuSans-97"/>
      <use x="248.632812" xlink:href="#DejaVuSans-103"/>
      <use x="312.109375" xlink:href="#DejaVuSans-101"/>
      <use x="373.632812" xlink:href="#DejaVuSans-32"/>
      <use x="405.419922" xlink:href="#DejaVuSans-91"/>
      <use x="444.433594" xlink:href="#DejaVuSans-109"/>
      <use x="541.845703" xlink:href="#DejaVuSans-86"/>
      <use x="610.253906" xlink:href="#DejaVuSans-93"/>
     </g>
    </g>
   </g>
   <g id="line2d_14">
    <path clip-path="url(#p83d37d0105)" d="M 80.754545 254.606899 
L 83.385088 254.526468 
L 83.417364 254.446036 
L 83.465779 254.606899 
L 83.498056 254.526468 
L 83.514194 254.606899 
L 83.594885 254.526468 
L 83.723992 254.446036 
L 84.547045 254.526468 
L 84.676151 254.606899 
L 84.96664 254.526468 
L 85.095747 254.446036 
L 85.176438 254.526468 
L 85.208715 254.446036 
L 85.337821 254.526468 
L 85.35396 254.606899 
L 85.402374 254.446036 
L 85.434651 254.446036 
L 86.322257 254.526468 
L 86.451364 254.606899 
L 87.419661 254.687331 
L 87.532629 254.767763 
L 87.581044 254.687331 
L 87.645598 254.767763 
L 88.694587 254.848194 
L 88.807555 254.928626 
L 88.85597 254.848194 
L 89.049629 245.678993 
L 89.501501 237.072813 
L 90.356831 225.892822 
L 91.196022 218.573547 
L 91.470373 216.643189 
L 91.777001 214.632399 
L 92.551639 211.334704 
L 92.583916 211.254272 
L 92.793714 210.771683 
L 92.82599 210.691251 
L 93.11648 209.806504 
L 93.310139 209.726072 
L 93.503799 209.323914 
L 93.552214 209.243483 
L 93.745873 208.841325 
L 93.858841 208.760893 
L 94.020224 208.519598 
L 94.213884 208.439167 
L 94.391405 208.11744 
L 95.843851 208.037009 
L 95.989096 207.715282 
L 96.005234 207.795714 
L 96.118202 207.715282 
L 96.247309 207.634851 
L 96.553936 207.554419 
L 96.683043 207.473988 
L 96.892841 207.956577 
L 96.957394 208.037009 
L 97.167192 208.519598 
L 97.393128 208.439167 
L 97.425404 208.358735 
L 97.506096 208.439167 
L 97.845 208.358735 
L 97.990245 208.197872 
L 98.006383 208.278304 
L 98.03866 208.11744 
L 98.103213 208.197872 
L 98.264596 208.278304 
L 98.296872 208.358735 
L 98.361426 208.197872 
L 98.50667 208.278304 
L 98.538947 208.358735 
L 98.571223 208.197872 
L 98.619638 208.278304 
L 99.119925 208.197872 
L 99.26517 208.037009 
L 99.959117 207.956577 
L 100.055947 207.876146 
L 100.072085 207.956577 
L 100.1205 208.037009 
L 100.362574 209.404346 
L 100.604649 210.047799 
L 100.653063 210.12823 
L 100.733755 210.208662 
L 100.766031 210.12823 
L 100.943553 210.047799 
L 101.056521 209.806504 
L 101.088797 209.886935 
L 101.217904 209.806504 
L 101.395425 209.484777 
L 101.427702 209.565209 
L 101.508393 209.484777 
L 101.556808 209.404346 
L 101.702053 209.243483 
L 101.831159 209.163051 
L 101.960265 209.082619 
L 102.040957 209.163051 
L 102.073233 209.082619 
L 102.153925 209.002188 
L 102.331446 208.680462 
L 102.347584 208.760893 
L 102.379861 208.60003 
L 102.428276 208.680462 
L 102.589659 208.439167 
L 102.718765 208.519598 
L 102.993116 208.439167 
L 103.057669 208.197872 
L 103.122223 208.358735 
L 103.235191 208.439167 
L 103.251329 208.519598 
L 103.33202 208.358735 
L 103.348159 208.439167 
L 103.461127 208.278304 
L 103.477265 208.358735 
L 103.687063 208.278304 
L 103.816169 208.197872 
L 104.09052 208.11744 
L 104.18735 208.037009 
L 104.203488 208.11744 
L 104.38101 208.037009 
L 104.526254 207.715282 
L 104.542393 207.795714 
L 104.639222 207.715282 
L 104.687637 207.634851 
L 104.75219 207.715282 
L 104.897435 207.634851 
L 105.026541 207.554419 
L 105.236339 207.634851 
L 105.317031 207.715282 
L 105.349307 207.634851 
L 106.107807 207.554419 
L 106.123945 207.473988 
L 106.17236 207.634851 
L 106.220775 207.554419 
L 106.882445 207.634851 
L 107.011552 207.715282 
L 107.705498 207.634851 
L 107.737775 207.554419 
L 107.78619 207.715282 
L 107.802328 207.715282 
L 108.383307 207.634851 
L 108.528551 207.473988 
L 108.576966 207.393556 
L 108.706073 207.313124 
L 109.254775 207.232693 
L 109.335466 207.152261 
L 109.367743 207.232693 
L 109.690509 207.152261 
L 109.819615 206.991398 
L 109.916445 207.07183 
L 109.932583 206.991398 
L 110.416732 207.07183 
L 110.561977 207.232693 
L 110.691083 207.152261 
L 111.368891 207.232693 
L 111.530274 207.473988 
L 112.256498 207.554419 
L 112.321051 207.473988 
L 112.385604 207.634851 
L 112.821338 207.715282 
L 112.837476 207.795714 
L 112.869753 207.634851 
L 112.934306 207.715282 
L 113.17638 207.795714 
L 113.337763 208.037009 
L 113.434593 208.11744 
L 113.579838 208.278304 
L 113.789636 208.197872 
L 113.870327 208.11744 
L 113.902604 208.197872 
L 114.160817 208.278304 
L 114.257646 208.358735 
L 114.273785 208.278304 
L 114.386753 208.11744 
L 114.402891 208.197872 
L 114.483582 208.11744 
L 114.580412 207.956577 
L 114.612689 208.037009 
L 114.806348 207.956577 
L 114.935455 207.876146 
L 115.35505 207.795714 
L 115.484157 207.715282 
L 115.532572 207.795714 
L 115.580986 207.715282 
L 115.710093 207.634851 
L 115.839199 207.554419 
L 115.984444 207.393556 
L 116.21038 207.313124 
L 116.339486 207.232693 
L 116.484731 207.152261 
L 116.629976 206.991398 
L 116.710667 206.910967 
L 116.742944 206.830535 
L 116.823635 206.910967 
L 117.017295 206.991398 
L 117.033433 207.07183 
L 117.130263 206.991398 
L 117.259369 207.07183 
L 117.501444 207.715282 
L 117.549858 207.795714 
L 117.743518 208.197872 
L 117.921039 208.278304 
L 118.050146 208.358735 
L 118.647263 208.278304 
L 118.776369 208.197872 
L 119.05072 208.11744 
L 119.131411 208.037009 
L 119.163688 208.11744 
L 119.518731 208.037009 
L 119.663975 207.876146 
L 119.80922 207.795714 
L 119.938326 207.715282 
L 120.002879 207.795714 
L 120.051294 207.715282 
L 120.228815 207.393556 
L 120.438613 207.313124 
L 120.56772 207.232693 
L 120.664549 207.152261 
L 120.696826 207.07183 
L 120.745241 207.232693 
L 120.761379 207.232693 
L 120.858209 207.313124 
L 120.874347 207.232693 
L 121.116422 207.313124 
L 121.261666 207.473988 
L 121.471464 207.393556 
L 121.616709 207.232693 
L 121.778092 207.152261 
L 121.939475 206.910967 
L 122.116996 206.830535 
L 122.246102 206.750103 
L 122.407485 206.991398 
L 122.423624 206.910967 
L 122.520453 206.991398 
L 122.697975 206.910967 
L 122.810943 206.750103 
L 122.827081 206.830535 
L 123.133709 206.910967 
L 123.278953 207.07183 
L 123.553304 207.152261 
L 123.682411 207.313124 
L 123.843794 207.07183 
L 123.924485 207.152261 
L 123.940623 207.232693 
L 124.005177 207.07183 
L 124.021315 207.07183 
L 124.360219 206.991398 
L 124.489325 206.910967 
L 124.682985 206.991398 
L 124.844368 207.232693 
L 125.280102 207.313124 
L 125.360793 207.473988 
L 125.39307 207.393556 
L 125.522176 207.313124 
L 125.764251 207.232693 
L 125.780389 207.152261 
L 125.877219 207.232693 
L 126.038602 207.152261 
L 126.167708 207.07183 
L 126.329091 206.991398 
L 126.458197 206.910967 
L 126.587304 206.991398 
L 126.651857 207.07183 
L 126.700272 206.991398 
L 127.136006 206.910967 
L 127.152144 206.830535 
L 127.232836 206.910967 
L 127.248974 206.991398 
L 127.297389 206.830535 
L 127.329665 206.830535 
L 127.394219 206.910967 
L 127.442633 207.07183 
L 127.507187 206.991398 
L 127.636293 206.910967 
L 127.765399 206.991398 
L 127.975197 206.910967 
L 128.120442 206.750103 
L 128.217272 206.669672 
L 128.346378 206.58924 
L 128.410931 206.508809 
L 128.540038 206.428377 
L 129.08874 206.347945 
L 129.137154 206.267514 
L 129.201708 206.347945 
L 129.605165 206.428377 
L 129.734271 206.508809 
L 129.831101 206.428377 
L 130.024761 206.026219 
L 130.137729 205.945787 
L 130.282973 205.784924 
L 130.525048 205.704493 
L 130.541186 205.624061 
L 130.589601 205.784924 
L 130.621878 205.704493 
L 130.670292 205.784924 
L 130.734846 205.704493 
L 131.07375 205.624061 
L 131.218995 205.463198 
L 132.477782 205.543629 
L 132.606888 205.624061 
L 132.768271 205.543629 
L 132.816686 205.463198 
L 132.881239 205.543629 
L 133.268558 205.624061 
L 133.397664 205.704493 
L 133.413803 205.704493 
L 133.559047 206.106651 
L 133.591324 206.026219 
L 133.639739 206.267514 
L 133.655877 206.187082 
L 133.768845 206.267514 
L 133.962505 206.669672 
L 133.994781 206.750103 
L 134.156164 207.07183 
L 134.285271 206.991398 
L 134.430515 207.07183 
L 134.559622 207.232693 
L 134.688728 207.152261 
L 134.979217 207.07183 
L 135.108324 206.991398 
L 135.33426 206.910967 
L 135.414951 206.750103 
L 135.463366 206.830535 
L 135.818409 206.750103 
L 135.834547 206.669672 
L 135.866824 206.830535 
L 135.931377 206.750103 
L 136.044345 206.669672 
L 136.060483 206.58924 
L 136.157313 206.669672 
L 136.883536 206.58924 
L 137.061057 206.267514 
L 137.174025 206.187082 
L 137.206302 206.106651 
L 137.238579 206.267514 
L 137.270855 206.267514 
L 137.367685 206.187082 
L 137.432238 206.026219 
L 137.480653 206.187082 
L 137.690451 206.106651 
L 137.835696 205.945787 
L 137.98094 206.106651 
L 138.110047 206.026219 
L 138.206876 205.784924 
L 138.255291 205.865356 
L 138.707163 205.784924 
L 138.83627 205.704493 
L 138.900823 205.784924 
L 138.949238 205.704493 
L 139.126759 205.784924 
L 139.255866 205.865356 
L 139.30428 205.784924 
L 139.368834 205.865356 
L 139.772291 205.784924 
L 139.901397 205.624061 
L 139.998227 205.704493 
L 140.014365 205.624061 
L 140.756727 205.543629 
L 140.91811 205.302335 
L 141.047216 205.221903 
L 141.127908 205.141472 
L 141.160184 205.221903 
L 141.434535 206.026219 
L 141.902546 205.945787 
L 142.031652 205.865356 
L 142.14462 205.784924 
L 142.273727 205.704493 
L 142.386695 205.784924 
L 142.515801 205.704493 
L 142.80629 205.624061 
L 142.951535 205.463198 
L 144.339429 205.543629 
L 144.468535 205.865356 
L 144.484673 205.784924 
L 144.581503 205.704493 
L 144.597641 205.784924 
L 144.678333 205.865356 
L 144.823577 206.026219 
L 145.340003 205.945787 
L 145.485247 205.784924 
L 145.64663 205.704493 
L 145.775737 205.624061 
L 146.308301 205.543629 
L 146.388992 205.382766 
L 146.437407 205.463198 
L 147.244322 205.543629 
L 147.26046 205.624061 
L 147.35729 205.543629 
L 147.550949 205.463198 
L 147.680056 205.382766 
L 147.809162 205.463198 
L 147.938268 205.382766 
L 147.970545 205.302335 
L 148.051236 205.382766 
L 148.180343 205.463198 
L 148.325587 205.624061 
L 148.374002 205.543629 
L 148.503109 205.463198 
L 148.632215 205.543629 
L 148.858151 205.463198 
L 148.890428 205.302335 
L 148.987258 205.382766 
L 149.100226 205.463198 
L 149.116364 205.543629 
L 149.164779 205.382766 
L 149.213194 205.463198 
L 149.358438 205.302335 
L 149.697343 205.382766 
L 149.826449 205.463198 
L 149.971694 205.463198 
L 150.00397 205.302335 
L 150.084662 205.382766 
L 150.407427 205.463198 
L 150.601087 205.945787 
L 150.76247 205.704493 
L 151.085236 205.784924 
L 151.149789 205.865356 
L 151.198204 205.784924 
L 151.32731 205.704493 
L 151.343449 205.784924 
L 151.375725 205.624061 
L 151.440278 205.704493 
L 151.811459 205.624061 
L 151.843736 205.543629 
L 151.924427 205.624061 
L 152.424714 205.543629 
L 152.586097 205.302335 
L 152.908863 205.221903 
L 152.94114 205.141472 
L 153.005693 205.302335 
L 153.054108 205.221903 
L 153.070246 205.141472 
L 153.150938 205.302335 
L 153.328459 205.221903 
L 153.360736 205.141472 
L 153.40915 205.221903 
L 153.60281 214.391104 
L 154.054682 222.916853 
L 154.425863 228.144906 
L 154.861597 233.131665 
L 154.990703 234.338139 
L 155.265054 236.831518 
L 155.765342 240.772666 
L 155.991278 242.461729 
L 156.314044 244.633382 
L 156.927299 248.252804 
L 157.137097 249.298414 
L 158.460437 255.330784 
L 158.492713 255.411215 
L 158.815479 256.456826 
L 158.847756 256.537258 
L 159.154383 257.502437 
L 159.18666 257.582868 
L 159.428735 258.226321 
L 159.461011 258.306753 
L 159.735362 259.111068 
L 159.816054 259.1915 
L 160.025851 259.67409 
L 160.058128 259.754521 
L 160.284064 260.317542 
L 160.348617 260.397974 
L 160.542277 260.800132 
L 160.60683 260.880563 
L 160.80049 261.363153 
L 160.816628 261.282721 
L 160.865043 261.443585 
L 160.897319 261.443585 
L 160.978011 261.524016 
L 161.139394 261.765311 
L 161.300777 261.845742 
L 161.478298 262.167469 
L 161.526713 262.087037 
L 161.591266 262.167469 
L 161.752649 262.408764 
L 161.897894 262.489195 
L 162.043138 262.650058 
L 162.091553 262.73049 
L 162.236798 262.891353 
L 162.285213 262.971785 
L 162.317489 263.052216 
L 162.398181 262.971785 
L 162.462734 263.052216 
L 162.607979 263.213079 
L 162.995298 263.293511 
L 163.124404 263.373943 
L 163.318064 263.454374 
L 163.431032 263.615237 
L 163.44717 263.534806 
L 163.527861 263.615237 
L 163.656968 263.695669 
L 163.931319 263.776101 
L 164.060425 263.856532 
L 164.544574 263.776101 
L 164.625266 263.695669 
L 164.657542 263.776101 
L 165.997021 263.695669 
L 166.126127 263.534806 
L 166.206818 263.615237 
L 166.239095 263.534806 
L 166.432755 263.454374 
L 166.577999 263.293511 
L 166.900765 263.213079 
L 167.029872 263.132648 
L 167.304223 263.052216 
L 167.465606 262.810922 
L 167.659265 262.73049 
L 167.788371 262.650058 
L 168.014308 262.569627 
L 168.175691 262.328332 
L 168.191829 262.408764 
L 168.288659 262.328332 
L 168.450042 262.2479 
L 168.56301 262.167469 
L 168.579148 262.2479 
L 168.627563 262.087037 
L 168.659839 262.087037 
L 168.837361 262.006606 
L 168.853499 261.926174 
L 168.885775 262.087037 
L 168.950329 262.006606 
L 169.12785 261.926174 
L 169.273095 261.765311 
L 169.418339 261.684879 
L 169.499031 261.604448 
L 169.611999 255.330784 
L 169.708829 255.411215 
L 169.724967 255.491647 
L 169.821797 255.411215 
L 170.951477 255.491647 
L 170.967616 255.572078 
L 171.064445 255.491647 
L 171.790669 255.572078 
L 171.822945 255.65251 
L 171.903637 255.572078 
L 172.048881 255.411215 
L 172.177988 255.491647 
L 172.387786 255.411215 
L 172.516892 255.330784 
L 173.162424 255.250352 
L 173.307668 255.089489 
L 174.518041 255.169921 
L 174.647147 255.250352 
L 175.115157 255.330784 
L 175.147434 255.411215 
L 175.228126 255.330784 
L 175.389508 255.411215 
L 175.405647 255.491647 
L 175.502477 255.411215 
L 175.615445 255.491647 
L 175.712274 255.572078 
L 175.728413 255.491647 
L 175.954349 255.572078 
L 176.083455 255.65251 
L 176.099593 255.572078 
L 176.180285 255.732942 
L 176.196423 255.65251 
L 176.664434 255.572078 
L 176.79354 255.491647 
L 176.938785 255.411215 
L 177.019476 255.491647 
L 177.067891 255.330784 
L 177.213136 255.411215 
L 177.293827 255.491647 
L 177.326104 255.411215 
L 177.616593 255.411215 
L 177.810253 243.426908 
L 178.391231 229.35138 
L 179.149731 216.401894 
L 179.82754 207.876146 
L 180.39238 203.291545 
L 180.924944 201.200324 
L 180.95722 201.119892 
L 181.15088 200.717734 
L 181.312263 200.637303 
L 181.522061 200.154713 
L 181.538199 200.154713 
L 181.683444 199.752555 
L 181.764135 199.672123 
L 181.90938 199.51126 
L 182.328975 199.430829 
L 182.522635 199.028671 
L 182.66788 198.948239 
L 182.861539 198.546081 
L 182.926092 198.626513 
L 182.974507 198.706944 
L 183.03906 198.626513 
L 183.103614 198.546081 
L 183.264997 198.304786 
L 183.313411 198.224355 
L 183.539348 197.661334 
L 183.620039 197.580902 
L 183.829837 197.098313 
L 183.89439 197.017881 
L 184.184879 196.133133 
L 184.233294 196.213565 
L 184.297847 196.133133 
L 184.539922 195.489681 
L 184.814273 195.409249 
L 184.927241 194.92666 
L 184.991794 195.087523 
L 185.072486 195.007091 
L 185.250007 194.44407 
L 185.282283 194.524502 
L 185.346837 194.44407 
L 185.669602 193.398459 
L 185.718017 193.318028 
L 186.411964 189.296448 
L 186.428102 188.813859 
L 186.444241 183.8271 
L 186.492656 74.520569 
L 186.573347 131.70743 
L 186.73473 196.696155 
L 186.944528 198.787376 
L 188.05807 208.921756 
L 188.074208 208.921756 
L 188.25173 209.645641 
L 188.477666 210.208662 
L 188.526081 210.289093 
L 188.752017 210.852114 
L 188.800432 210.932546 
L 188.961815 211.173841 
L 189.026368 211.093409 
L 189.058644 211.173841 
L 189.187751 211.254272 
L 189.720315 211.173841 
L 189.865559 211.012978 
L 190.091495 210.932546 
L 190.23674 210.771683 
L 190.285155 210.691251 
L 190.414261 210.530388 
L 190.4304 210.61082 
L 190.494953 210.449956 
L 190.511091 210.449956 
L 190.591783 210.369525 
L 190.720889 210.289093 
L 190.89841 210.208662 
L 191.027516 210.12823 
L 191.140485 210.047799 
L 191.301868 209.806504 
L 191.46325 209.726072 
L 191.640772 209.404346 
L 192.205612 209.323914 
L 192.366995 209.082619 
L 192.463825 209.002188 
L 192.625208 208.680462 
L 192.754314 208.760893 
L 192.835006 208.680462 
L 192.899559 208.60003 
L 192.947974 208.680462 
L 193.238463 208.60003 
L 193.383708 208.439167 
L 193.512814 208.358735 
L 193.658059 208.197872 
L 193.787165 208.278304 
L 193.964686 207.956577 
L 194.013101 208.037009 
L 194.061516 207.876146 
L 194.448835 207.795714 
L 194.59408 207.634851 
L 194.723186 207.554419 
L 194.900707 207.232693 
L 194.981399 207.152261 
L 195.126643 206.991398 
L 195.271888 206.910967 
L 195.35258 206.750103 
L 195.400994 206.830535 
L 195.465548 206.750103 
L 195.610792 206.58924 
L 195.885143 206.508809 
L 196.01425 206.428377 
L 196.094941 206.347945 
L 196.256324 206.026219 
L 196.353154 206.106651 
L 196.369292 206.026219 
L 196.708196 205.945787 
L 196.837303 205.865356 
L 196.950271 205.945787 
L 196.982547 205.865356 
L 197.063239 205.945787 
L 197.14393 205.865356 
L 197.160069 205.784924 
L 197.224622 205.945787 
L 197.24076 205.945787 
L 197.402143 206.026219 
L 197.579664 206.508809 
L 197.595803 206.428377 
L 197.644218 206.508809 
L 197.821739 206.830535 
L 197.854015 206.750103 
L 197.934707 206.830535 
L 197.966983 206.910967 
L 198.112228 207.07183 
L 198.467271 206.991398 
L 198.483409 206.910967 
L 198.580239 206.991398 
L 198.644792 206.910967 
L 198.822313 206.58924 
L 199.032111 206.508809 
L 199.209632 206.187082 
L 199.241909 206.267514 
L 199.306462 206.106651 
L 199.500121 205.704493 
L 199.629228 205.784924 
L 199.790611 205.704493 
L 199.951994 205.463198 
L 200.032685 205.382766 
L 200.161792 205.302335 
L 200.532972 205.221903 
L 200.662079 204.980608 
L 200.678217 205.06104 
L 200.807323 204.980608 
L 200.968706 204.739314 
L 201.065536 204.658882 
L 201.226919 204.417587 
L 201.372164 204.337156 
L 201.50127 204.256724 
L 201.646515 204.176292 
L 201.807898 203.934998 
L 201.856313 204.015429 
L 201.985419 204.095861 
L 202.146802 203.854566 
L 202.275908 203.934998 
L 202.3566 203.854566 
L 202.517983 203.613271 
L 202.582536 203.53284 
L 202.727781 203.291545 
L 202.743919 203.371977 
L 202.776195 203.211113 
L 202.82461 203.211113 
L 203.034408 203.130682 
L 203.179653 202.969819 
L 203.550834 203.05025 
L 203.67994 203.130682 
L 203.77677 203.211113 
L 203.905876 203.291545 
L 204.632099 203.211113 
L 204.777344 203.05025 
L 204.858035 202.969819 
L 204.987142 202.889387 
L 205.116248 203.05025 
L 205.164663 202.969819 
L 205.19694 203.130682 
L 205.229216 203.05025 
L 205.358323 203.291545 
L 205.374461 203.211113 
L 206.052269 203.291545 
L 206.213652 203.53284 
L 206.455727 203.613271 
L 206.61711 203.854566 
L 206.762354 203.934998 
L 206.907599 204.095861 
L 207.343333 204.015429 
L 207.359471 203.934998 
L 207.456301 204.015429 
L 207.472439 204.095861 
L 207.569269 204.015429 
L 207.666099 204.095861 
L 207.682237 204.176292 
L 207.779067 204.095861 
L 208.021141 204.015429 
L 208.182524 203.774135 
L 208.230939 203.693703 
L 208.40846 203.371977 
L 208.60212 203.291545 
L 208.731226 203.211113 
L 208.989439 203.130682 
L 209.118545 203.05025 
L 209.215375 202.969819 
L 209.36062 202.808955 
L 209.538141 202.728524 
L 209.731801 202.326366 
L 210.038428 202.245934 
L 210.183673 202.085071 
L 210.232088 202.165503 
L 210.393471 202.406797 
L 211.055141 202.326366 
L 211.232662 202.00464 
L 211.297215 202.085071 
L 211.329492 202.00464 
L 211.474737 201.843776 
L 211.652258 201.763345 
L 211.749088 201.682913 
L 211.765226 201.763345 
L 211.813641 201.682913 
L 211.958885 201.52205 
L 212.023439 201.441618 
L 212.039577 201.361187 
L 212.087992 201.52205 
L 212.120268 201.52205 
L 212.217098 201.602482 
L 212.362343 201.763345 
L 212.410758 201.682913 
L 212.475311 201.52205 
L 212.523726 201.682913 
L 212.588279 201.602482 
L 212.636694 201.52205 
L 212.685109 201.602482 
L 212.86263 201.924208 
L 213.185396 201.843776 
L 213.217672 201.763345 
L 213.266087 201.924208 
L 213.282226 201.924208 
L 213.556577 201.843776 
L 213.653406 201.763345 
L 213.669545 201.843776 
L 213.814789 201.763345 
L 214.008449 201.361187 
L 214.056864 201.280755 
L 214.073002 201.200324 
L 214.169832 201.280755 
L 214.2828 201.200324 
L 214.411906 201.119892 
L 214.589427 201.03946 
L 214.734672 200.878597 
L 214.84764 200.959029 
L 214.879917 201.03946 
L 214.928332 200.878597 
L 214.94447 200.878597 
L 215.202683 200.798166 
L 215.331789 200.717734 
L 215.460895 200.798166 
L 215.751385 200.878597 
L 215.767523 200.959029 
L 215.864353 200.878597 
L 216.058012 200.476439 
L 216.138704 200.396008 
L 216.300087 200.074281 
L 216.380778 200.154713 
L 216.413055 200.074281 
L 216.542161 199.99385 
L 216.687406 199.832987 
L 216.92948 199.752555 
L 216.977895 199.672123 
L 217.02631 199.752555 
L 217.042448 199.832987 
L 217.139278 199.752555 
L 217.704118 199.832987 
L 217.833225 199.913418 
L 217.849363 199.832987 
L 217.946193 199.913418 
L 218.204406 199.913418 
L 218.34965 200.315576 
L 218.656278 200.235145 
L 218.785384 200.154713 
L 218.962905 200.235145 
L 219.027459 200.154713 
L 219.075874 200.315576 
L 219.20498 200.235145 
L 219.414778 200.315576 
L 219.576161 200.556871 
L 219.915065 200.637303 
L 220.157139 201.280755 
L 220.270107 201.361187 
L 220.350799 201.52205 
L 220.399214 201.441618 
L 220.496044 201.361187 
L 220.62515 201.280755 
L 220.818809 201.361187 
L 220.834948 201.441618 
L 220.931777 201.361187 
L 221.125437 201.280755 
L 221.254543 201.200324 
L 221.319097 201.119892 
L 221.464341 200.959029 
L 221.722554 200.878597 
L 221.867799 200.717734 
L 221.900075 200.717734 
L 222.029182 200.396008 
L 222.077596 200.315576 
L 222.158288 200.074281 
L 222.222841 200.154713 
L 222.739267 200.074281 
L 222.900649 199.832987 
L 223.013618 199.752555 
L 223.158862 199.51126 
L 223.175001 199.591692 
L 223.239554 199.430829 
L 223.255692 199.51126 
L 223.449352 199.109102 
L 223.626873 199.028671 
L 223.852809 198.46565 
L 223.981915 198.385218 
L 224.046468 198.224355 
L 224.094883 198.304786 
L 224.272405 198.626513 
L 224.320819 198.546081 
L 224.385373 198.46565 
L 224.433788 198.546081 
L 224.514479 198.706944 
L 224.562894 198.626513 
L 224.692 198.706944 
L 224.853383 198.948239 
L 225.127734 198.867808 
L 225.256841 198.787376 
L 225.289117 198.867808 
L 225.305255 198.948239 
L 225.35367 198.787376 
L 225.385947 198.787376 
L 225.54733 198.867808 
L 225.692575 199.028671 
L 225.740989 198.948239 
L 225.886234 198.787376 
L 226.063755 198.706944 
L 226.338106 197.902628 
L 226.547904 197.98306 
L 226.580181 198.063492 
L 226.628596 197.902628 
L 226.644734 197.902628 
L 226.725425 197.822197 
L 226.87067 197.661334 
L 226.886808 197.741765 
L 226.9675 197.580902 
L 226.983638 197.661334 
L 227.06433 197.741765 
L 227.096606 197.822197 
L 227.161159 197.661334 
L 227.403234 197.661334 
L 227.53234 197.339607 
L 227.661447 197.259176 
L 227.677585 197.178744 
L 227.758276 197.259176 
L 227.855106 197.420039 
L 227.887383 197.339607 
L 228.048766 197.259176 
L 228.097181 197.178744 
L 228.161734 197.259176 
L 228.419946 197.178744 
L 228.597468 196.857018 
L 228.823404 196.776586 
L 228.871819 196.615723 
L 228.936372 196.776586 
L 229.081617 196.696155 
L 229.259138 196.374428 
L 229.307553 196.293997 
L 229.468936 196.052702 
L 229.630319 196.133133 
L 229.646457 196.213565 
L 229.71101 196.052702 
L 229.727148 196.052702 
L 230.082191 195.97227 
L 230.098329 195.891839 
L 230.162882 196.052702 
L 230.179021 196.052702 
L 230.905244 195.97227 
L 231.195733 195.087523 
L 231.22801 195.007091 
L 231.421669 194.604933 
L 231.453946 194.524502 
L 231.954233 192.594144 
L 231.970371 192.674575 
L 232.034925 192.43328 
L 232.164031 190.663785 
L 232.180169 187.687817 
L 232.244722 73.635822 
L 232.309276 127.042398 
L 232.470659 195.811407 
L 232.535212 196.45486 
L 232.599765 196.293997 
L 232.74501 196.052702 
L 233.051637 198.143923 
L 233.551924 202.165503 
L 233.584201 202.245934 
L 233.826275 203.613271 
L 234.520222 206.508809 
L 234.584775 206.58924 
L 234.794573 207.07183 
L 234.842988 207.152261 
L 235.036647 207.554419 
L 235.101201 207.634851 
L 235.262584 207.876146 
L 235.359413 207.956577 
L 235.520796 208.197872 
L 235.601488 208.278304 
L 235.746732 208.439167 
L 235.908115 208.519598 
L 236.037222 208.60003 
L 236.117913 208.680462 
L 236.263158 208.921756 
L 236.279296 208.841325 
L 236.359988 209.002188 
L 236.521371 209.243483 
L 236.876413 209.163051 
L 237.005519 209.002188 
L 237.070073 209.163051 
L 237.118488 209.082619 
L 237.247594 209.002188 
L 237.392839 208.921756 
L 237.538083 208.760893 
L 237.57036 208.841325 
L 237.634913 208.760893 
L 237.812434 208.439167 
L 237.860849 208.358735 
L 238.006094 208.197872 
L 238.167477 208.11744 
L 238.312721 207.956577 
L 238.474104 207.876146 
L 238.619349 207.715282 
L 238.829147 207.634851 
L 238.974392 207.473988 
L 239.103498 207.393556 
L 239.264881 207.152261 
L 239.329434 207.07183 
L 239.490817 206.830535 
L 239.732891 206.750103 
L 239.861998 206.669672 
L 240.152487 206.58924 
L 240.281593 206.508809 
L 240.378423 206.58924 
L 240.394561 206.508809 
L 240.572083 206.428377 
L 240.701189 206.347945 
L 240.959402 206.267514 
L 241.104646 206.106651 
L 241.459689 206.026219 
L 241.604934 205.865356 
L 241.717902 205.784924 
L 241.879285 205.543629 
L 242.169774 205.543629 
L 242.363433 217.286642 
L 242.799167 227.018864 
L 243.234901 233.533823 
L 243.654497 238.279287 
L 243.783603 239.48576 
L 244.396859 244.552951 
L 244.638933 246.322446 
L 244.961699 248.494099 
L 246.494837 255.572078 
L 246.55939 255.65251 
L 246.946709 257.019847 
L 246.978986 257.100279 
L 247.237199 257.824163 
L 247.269475 257.904595 
L 247.527688 258.628479 
L 247.592241 258.70891 
L 247.834316 259.352363 
L 247.850454 259.352363 
L 247.995699 259.834953 
L 248.011837 259.754521 
L 248.060252 259.915384 
L 248.092528 259.915384 
L 248.302326 260.397974 
L 248.366879 260.478405 
L 248.576677 260.960995 
L 248.657369 261.041427 
L 248.83489 261.363153 
L 248.996273 261.443585 
L 249.173794 261.765311 
L 249.238347 261.845742 
L 249.383592 262.006606 
L 249.544975 262.087037 
L 249.706358 262.328332 
L 249.819326 262.408764 
L 249.980709 262.650058 
L 250.303475 262.73049 
L 250.416443 262.891353 
L 250.432581 262.810922 
L 250.513273 262.891353 
L 250.610102 263.052216 
L 250.642379 262.971785 
L 250.884453 263.052216 
L 251.01356 263.132648 
L 251.255634 263.213079 
L 251.271772 263.293511 
L 251.352464 263.132648 
L 251.497709 263.213079 
L 251.626815 263.293511 
L 252.43373 263.213079 
L 252.562836 263.052216 
L 252.691942 263.213079 
L 252.837187 263.052216 
L 252.934017 262.971785 
L 252.99857 262.891353 
L 253.046985 262.971785 
L 253.611825 262.891353 
L 253.75707 262.73049 
L 254.273495 262.650058 
L 254.41874 262.489195 
L 254.499431 262.569627 
L 254.531708 262.489195 
L 254.773783 262.408764 
L 254.789921 262.328332 
L 254.838336 262.489195 
L 254.886751 262.408764 
L 255.354761 262.328332 
L 255.483867 262.2479 
L 255.709804 262.167469 
L 255.83891 262.087037 
L 256.000293 262.006606 
L 256.129399 261.845742 
L 256.258506 261.926174 
L 256.387612 261.845742 
L 256.50058 261.765311 
L 256.645825 261.604448 
L 256.968591 261.524016 
L 257.097697 261.443585 
L 257.129974 261.363153 
L 257.275218 261.20229 
L 257.517293 261.121858 
L 257.646399 261.041427 
L 258.01758 260.960995 
L 258.146686 260.800132 
L 258.162824 260.880563 
L 258.259654 260.800132 
L 258.372622 256.1351 
L 259.647548 256.215531 
L 259.679824 256.295963 
L 259.760516 256.215531 
L 260.244665 256.1351 
L 260.276941 255.974236 
L 260.357633 256.1351 
L 261.42276 256.215531 
L 261.471175 256.295963 
L 261.51959 256.1351 
L 261.535728 256.215531 
L 262.616994 256.1351 
L 262.649271 256.054668 
L 262.729962 256.1351 
L 263.230249 256.215531 
L 263.359356 256.295963 
L 264.392206 256.376394 
L 264.521313 256.456826 
L 266.377217 256.456826 
L 266.570876 238.44015 
L 267.151855 217.286642 
L 268.265397 192.272417 
L 268.507472 189.618175 
L 268.846376 183.907532 
L 268.910929 73.314096 
L 268.991621 143.772168 
L 269.153004 196.535291 
L 269.18528 196.776586 
L 269.233695 196.45486 
L 269.395078 195.811407 
L 269.653291 196.535291 
L 269.75012 196.615723 
L 269.959918 197.098313 
L 270.072886 197.178744 
L 270.153578 197.339607 
L 270.201993 197.259176 
L 270.282684 197.339607 
L 270.395652 197.50047 
L 270.411791 197.420039 
L 270.573173 197.339607 
L 270.621588 197.259176 
L 270.653865 197.339607 
L 270.782971 197.580902 
L 270.79911 197.661334 
L 270.879801 197.580902 
L 271.025046 197.420039 
L 271.154152 197.50047 
L 271.218705 197.661334 
L 271.26712 197.580902 
L 271.428503 197.259176 
L 271.444641 197.339607 
L 271.525333 197.259176 
L 271.670578 197.098313 
L 271.735131 197.017881 
L 271.944929 196.535291 
L 272.02562 196.45486 
L 272.283833 195.650544 
L 272.299971 195.730976 
L 272.396801 195.650544 
L 272.445216 195.650544 
L 272.59046 195.248386 
L 272.832535 194.604933 
L 272.88095 194.524502 
L 273.139162 193.800617 
L 273.332822 193.881049 
L 273.510343 194.202775 
L 273.558758 194.283207 
L 273.704003 194.44407 
L 273.800833 194.524502 
L 273.865386 194.604933 
L 273.897662 194.44407 
L 273.913801 194.524502 
L 274.059045 194.122344 
L 274.220428 193.881049 
L 274.268843 193.800617 
L 274.543194 192.755007 
L 274.575471 192.835438 
L 274.86596 192.755007 
L 274.946651 192.594144 
L 274.96279 192.674575 
L 275.043481 192.755007 
L 275.075758 192.674575 
L 275.172588 192.594144 
L 275.366247 192.191986 
L 275.495354 192.111554 
L 275.753566 191.226806 
L 275.769705 191.307238 
L 275.834258 191.226806 
L 276.076332 190.583354 
L 276.140885 190.744217 
L 276.173162 190.583354 
L 276.544343 189.216017 
L 276.560481 189.296448 
L 276.608896 188.974722 
L 276.689587 188.89429 
L 277.060768 186.481343 
L 277.286704 183.505374 
L 277.351257 70.820716 
L 277.431949 131.787862 
L 277.593332 193.559323 
L 277.754715 194.765796 
L 278.255002 197.822197 
L 278.480938 199.028671 
L 278.868257 200.556871 
L 278.884396 200.476439 
L 278.916672 200.556871 
L 279.094193 200.878597 
L 279.158747 200.959029 
L 279.336268 201.280755 
L 279.69131 201.200324 
L 279.852693 200.959029 
L 280.014076 200.878597 
L 280.240012 200.315576 
L 280.54664 200.235145 
L 280.675746 200.154713 
L 280.804853 200.074281 
L 280.820991 199.99385 
L 280.885544 200.154713 
L 280.917821 200.074281 
L 281.079204 199.99385 
L 281.20831 199.913418 
L 281.563353 199.832987 
L 281.708597 199.591692 
L 281.837704 199.672123 
L 282.031363 199.591692 
L 282.160469 199.51126 
L 282.225023 199.591692 
L 282.257299 199.430829 
L 282.273438 199.51126 
L 282.418682 199.350397 
L 282.483235 199.269965 
L 282.644618 199.028671 
L 282.693033 199.109102 
L 282.773725 199.189534 
L 282.806001 199.109102 
L 282.951246 199.028671 
L 283.128767 198.706944 
L 283.499948 198.626513 
L 283.645193 198.46565 
L 283.903405 198.385218 
L 284.097065 197.98306 
L 284.161618 197.902628 
L 284.306863 197.580902 
L 284.323001 197.661334 
L 284.371416 197.580902 
L 284.548937 197.259176 
L 284.597352 197.178744 
L 284.758735 196.776586 
L 284.774873 196.857018 
L 284.871703 196.776586 
L 285.033086 196.535291 
L 285.065363 196.45486 
L 285.27516 195.97227 
L 285.307437 195.891839 
L 285.452682 195.730976 
L 285.484958 195.650544 
L 285.662479 195.248386 
L 285.678618 195.328818 
L 285.743171 195.167954 
L 285.759309 195.167954 
L 285.823862 195.087523 
L 286.001384 194.765796 
L 286.082075 194.846228 
L 286.114352 194.765796 
L 286.146628 194.685365 
L 286.308011 194.363638 
L 286.453256 194.524502 
L 286.517809 194.44407 
L 286.550086 194.363638 
L 286.614639 194.524502 
L 286.630777 194.44407 
L 286.969681 194.363638 
L 287.001958 194.283207 
L 287.082649 194.363638 
L 287.486107 194.283207 
L 287.631352 194.122344 
L 287.776596 194.041912 
L 288.083224 193.076733 
L 288.341436 192.996301 
L 288.486681 192.674575 
L 288.502819 192.755007 
L 288.535096 192.835438 
L 288.567373 192.91587 
L 288.631926 192.755007 
L 288.728756 192.674575 
L 288.954692 192.111554 
L 289.003107 192.191986 
L 289.16449 192.513712 
L 289.212904 192.43328 
L 289.261319 192.594144 
L 289.600224 192.513712 
L 289.745468 192.031122 
L 289.793883 191.950691 
L 289.922989 191.870259 
L 289.987543 191.789828 
L 290.342585 190.502922 
L 290.358723 190.583354 
L 290.391 190.422491 
L 290.455553 190.502922 
L 290.568521 190.342059 
L 290.58466 190.422491 
L 290.681489 190.342059 
L 290.859011 190.020333 
L 290.907425 189.939901 
L 291.068808 189.698606 
L 291.133362 189.618175 
L 291.375436 188.974722 
L 291.423851 188.89429 
L 292.053244 185.274869 
L 292.101659 182.459763 
L 292.166212 71.142443 
L 292.230766 120.205713 
L 292.408287 192.996301 
L 292.553532 193.639754 
L 292.634223 193.720186 
L 293.392723 196.937449 
L 293.424999 197.017881 
L 293.812319 198.385218 
L 293.876872 198.46565 
L 294.118946 199.109102 
L 294.248053 199.189534 
L 294.377159 199.350397 
L 294.506265 199.269965 
L 294.667648 199.350397 
L 294.829031 199.591692 
L 294.877446 199.672123 
L 295.006552 199.752555 
L 295.11952 199.832987 
L 295.21635 199.913418 
L 295.232489 199.832987 
L 295.490701 199.752555 
L 295.652084 199.51126 
L 295.700499 199.430829 
L 295.87802 199.109102 
L 295.990988 199.028671 
L 296.152371 198.787376 
L 296.216925 198.706944 
L 296.394446 198.385218 
L 296.555829 198.304786 
L 296.571967 198.224355 
L 296.652659 198.304786 
L 296.862456 198.787376 
L 297.29819 198.706944 
L 297.475712 198.385218 
L 297.669371 198.304786 
L 297.879169 197.822197 
L 297.911446 197.741765 
L 298.072828 197.50047 
L 298.121243 197.420039 
L 298.282626 197.178744 
L 298.34718 197.098313 
L 298.556977 196.615723 
L 298.686084 196.535291 
L 298.976573 195.650544 
L 299.057265 195.570112 
L 299.299339 194.92666 
L 299.912594 194.846228 
L 300.090115 194.524502 
L 300.380605 194.44407 
L 300.509711 194.363638 
L 300.606541 194.283207 
L 300.703371 194.202775 
L 300.719509 194.283207 
L 300.8002 194.202775 
L 300.913168 194.122344 
L 300.945445 194.202775 
L 300.977722 194.041912 
L 301.009998 194.041912 
L 301.042275 194.041912 
L 301.171381 193.720186 
L 301.268211 193.639754 
L 301.413456 193.478891 
L 301.478009 193.559323 
L 301.510285 193.478891 
L 301.639392 193.318028 
L 301.703945 193.478891 
L 301.768498 193.398459 
L 301.816913 193.478891 
L 301.946019 193.559323 
L 302.139679 193.639754 
L 302.284924 193.881049 
L 302.397892 193.800617 
L 302.51086 193.881049 
L 302.672243 193.478891 
L 302.688381 193.559323 
L 302.849764 193.478891 
L 303.043423 193.076733 
L 303.091838 192.996301 
L 303.285498 192.594144 
L 303.333913 192.513712 
L 303.511434 192.191986 
L 303.608264 192.111554 
L 303.769647 191.870259 
L 303.963306 191.789828 
L 304.092413 191.468101 
L 304.156966 191.38767 
L 304.30221 191.065943 
L 304.318349 191.146375 
L 304.479732 191.065943 
L 304.608838 190.744217 
L 304.641115 190.824649 
L 304.721806 190.824649 
L 304.818636 190.502922 
L 304.850912 190.583354 
L 304.899327 190.583354 
L 305.06071 189.859469 
L 305.109125 189.939901 
L 305.141402 189.698606 
L 305.15754 189.779038 
L 305.189817 189.698606 
L 305.399615 189.216017 
L 305.464168 189.135585 
L 305.81921 187.929111 
L 305.835348 187.929111 
L 306.093561 186.32048 
L 306.125838 186.240048 
L 306.335636 183.505374 
L 306.351774 182.540195 
L 306.416327 71.544601 
L 306.497019 132.029156 
L 306.658402 192.594144 
L 306.739093 193.237596 
L 306.787508 193.076733 
L 306.965029 192.755007 
L 307.207104 192.835438 
L 307.836497 195.409249 
L 307.868774 195.489681 
L 308.062433 195.891839 
L 308.110848 195.97227 
L 308.304508 196.857018 
L 308.482029 197.178744 
L 308.788657 197.098313 
L 308.885486 197.017881 
L 308.901625 197.098313 
L 309.095284 197.178744 
L 309.22439 197.339607 
L 309.353497 197.259176 
L 309.466465 197.339607 
L 309.579433 197.420039 
L 309.740816 197.178744 
L 310.111997 197.259176 
L 310.257241 197.420039 
L 310.434763 197.339607 
L 310.596146 197.098313 
L 310.967326 197.017881 
L 311.112571 196.857018 
L 311.160986 196.776586 
L 311.419199 196.052702 
L 311.548305 195.97227 
L 311.725826 195.650544 
L 311.919486 195.570112 
L 312.048592 195.489681 
L 312.306805 195.409249 
L 312.484326 195.087523 
L 312.532741 195.007091 
L 312.710262 194.685365 
L 312.903922 194.604933 
L 313.065305 194.363638 
L 313.178273 194.283207 
L 313.323517 194.122344 
L 313.67856 194.041912 
L 313.743113 194.122344 
L 313.856081 193.720186 
L 314.162709 193.639754 
L 314.275677 193.559323 
L 314.404783 193.639754 
L 314.646858 192.996301 
L 314.743687 192.91587 
L 314.856655 192.674575 
L 314.888932 192.755007 
L 314.985762 192.674575 
L 315.19556 192.191986 
L 315.260113 192.111554 
L 315.437634 191.789828 
L 315.631294 191.709396 
L 315.776538 191.548533 
L 315.905645 191.468101 
L 315.937921 191.38767 
L 315.986336 191.548533 
L 316.228411 192.996301 
L 316.260687 193.076733 
L 316.42207 193.639754 
L 316.631868 194.202775 
L 316.777113 194.041912 
L 317.116017 193.961481 
L 317.2774 193.720186 
L 317.422644 193.881049 
L 317.713134 193.800617 
L 317.84224 193.720186 
L 317.874517 193.639754 
L 318.229559 192.43328 
L 318.310251 192.352849 
L 318.826676 190.342059 
L 318.891229 190.261627 
L 319.213995 189.216017 
L 319.310825 189.216017 
L 319.472208 188.652996 
L 319.633591 187.36609 
L 319.859527 184.068395 
L 319.891804 129.937935 
L 319.92408 72.590211 
L 319.988633 110.634353 
L 320.166155 190.663785 
L 320.246846 191.38767 
L 320.295261 191.146375 
L 320.359814 191.226806 
L 320.569612 191.709396 
L 320.58575 191.628964 
L 320.618027 191.789828 
L 320.666442 191.789828 
L 320.843963 192.111554 
L 320.892378 192.191986 
L 321.311974 193.720186 
L 321.360388 193.800617 
L 321.554048 194.202775 
L 321.699293 194.283207 
L 321.844537 194.44407 
L 321.941367 194.524502 
L 322.118888 194.846228 
L 322.29641 194.92666 
L 322.441654 195.167954 
L 322.473931 195.087523 
L 322.538484 195.167954 
L 322.699867 195.409249 
L 322.716005 195.328818 
L 322.780558 195.489681 
L 323.022633 196.133133 
L 323.652026 196.052702 
L 323.764994 195.891839 
L 323.781133 195.97227 
L 323.877963 195.891839 
L 324.023207 195.570112 
L 324.039345 195.650544 
L 324.152314 195.570112 
L 324.168452 195.489681 
L 324.233005 195.730976 
L 324.249143 195.650544 
L 324.265282 195.730976 
L 324.329835 195.570112 
L 324.345973 195.570112 
L 324.475079 195.489681 
L 324.701016 195.570112 
L 324.830122 195.730976 
L 324.894675 195.650544 
L 324.94309 195.730976 
L 325.685452 195.650544 
L 325.846835 195.409249 
L 325.911388 195.328818 
L 326.040494 195.248386 
L 326.185739 195.167954 
L 326.379398 194.765796 
L 326.395537 194.765796 
L 326.540781 194.363638 
L 326.589196 194.283207 
L 326.798994 193.800617 
L 326.9281 193.720186 
L 327.073345 193.478891 
L 327.089483 193.559323 
L 327.12176 193.398459 
L 327.154036 193.398459 
L 327.299281 193.237596 
L 327.412249 193.318028 
L 327.525217 193.237596 
L 327.573632 193.318028 
L 327.605909 193.157165 
L 327.622047 193.237596 
L 327.751153 193.157165 
L 327.78343 193.076733 
L 327.960951 192.755007 
L 328.186887 192.674575 
L 328.428962 192.031122 
L 328.493515 192.031122 
L 328.622621 191.548533 
L 328.63876 191.628964 
L 328.961525 191.709396 
L 328.977664 191.789828 
L 329.00994 191.628964 
L 329.058355 191.628964 
L 329.187462 191.548533 
L 329.252015 191.468101 
L 329.461813 190.985512 
L 329.558642 190.90508 
L 329.687749 190.824649 
L 329.800717 190.90508 
L 329.9621 190.422491 
L 329.978238 190.502922 
L 330.091206 190.824649 
L 330.123483 190.663785 
L 330.204174 190.583354 
L 330.397834 190.100764 
L 330.43011 190.181196 
L 330.478525 190.020333 
L 330.494664 190.020333 
L 330.688323 190.020333 
L 330.833568 189.618175 
L 330.930398 189.618175 
L 331.124057 208.037009 
L 331.495238 221.066926 
L 332.076216 232.809938 
L 332.786301 241.818277 
L 333.528663 248.172372 
L 335.158631 255.732942 
L 335.174769 255.732942 
L 335.336152 256.376394 
L 335.35229 256.376394 
L 335.529812 257.100279 
L 335.997822 258.869774 
L 336.046237 258.950205 
L 336.272173 259.513226 
L 336.30445 259.593658 
L 336.530386 260.156679 
L 336.675631 260.237111 
L 336.86929 260.639269 
L 336.917705 260.7197 
L 337.079088 261.121858 
L 337.095226 261.041427 
L 337.111365 261.041427 
L 337.256609 261.443585 
L 337.337301 261.524016 
L 337.53096 261.926174 
L 337.660067 262.006606 
L 337.853726 262.408764 
L 338.015109 262.489195 
L 338.19263 262.810922 
L 338.321737 262.891353 
L 338.466981 263.052216 
L 338.579949 263.132648 
L 338.709056 263.213079 
L 339.306173 263.132648 
L 339.386864 263.052216 
L 339.419141 263.132648 
L 340.758619 263.052216 
L 340.920002 262.810922 
L 341.065247 262.73049 
L 341.22663 262.489195 
L 341.371874 262.408764 
L 341.517119 262.2479 
L 341.662364 262.167469 
L 341.69464 262.087037 
L 341.775332 262.167469 
L 341.936715 262.087037 
L 342.065821 262.006606 
L 342.194928 262.087037 
L 342.630662 262.006606 
L 342.6468 261.926174 
L 342.679076 262.087037 
L 342.74363 262.006606 
L 343.11481 261.926174 
L 343.163225 261.845742 
L 343.227778 261.926174 
L 343.760342 261.845742 
L 343.792619 261.765311 
L 343.87331 261.845742 
L 343.97014 261.765311 
L 344.050831 261.684879 
L 344.083108 261.765311 
L 344.228353 261.684879 
L 344.357459 261.604448 
L 344.680225 261.524016 
L 344.696363 261.443585 
L 344.793193 261.524016 
L 344.922299 261.443585 
L 345.051406 261.363153 
L 345.083682 261.443585 
L 345.164374 261.363153 
L 345.600108 261.282721 
L 345.616246 261.20229 
L 345.713076 261.282721 
L 345.793767 261.20229 
L 345.922874 261.121858 
L 346.068118 261.041427 
L 346.181086 260.880563 
L 346.197225 260.960995 
L 346.261778 260.880563 
L 346.390884 260.800132 
L 346.568406 260.7197 
L 346.584544 260.639269 
L 346.681374 260.7197 
L 346.971863 260.639269 
L 347.117108 260.478405 
L 347.940161 260.558837 
L 347.972437 260.639269 
L 348.053129 260.558837 
L 349.666958 260.639269 
L 349.683097 260.7197 
L 349.779926 260.639269 
L 351.16782 260.7197 
L 351.264649 260.800132 
L 351.280788 260.7197 
L 353.362628 260.639269 
L 353.394904 260.558837 
L 353.443319 260.7197 
L 353.475596 260.639269 
L 354.702106 260.558837 
L 354.815074 260.478405 
L 354.831213 260.558837 
L 354.879628 260.397974 
L 354.928042 260.478405 
L 355.024872 260.397974 
L 355.041011 260.478405 
L 355.121702 260.478405 
L 355.13784 260.317542 
L 355.3315 225.008074 
L 355.79951 189.216017 
L 355.89634 175.944804 
L 355.944755 68.809927 
L 356.009308 122.377365 
L 356.154553 187.607385 
L 356.170691 187.446522 
L 356.364351 181.414153 
L 356.800085 170.555888 
L 356.864638 71.222874 
L 356.945329 121.251323 
L 357.122851 181.414153 
L 357.284234 182.861921 
L 357.494031 183.344511 
L 357.542446 183.264079 
L 357.590861 183.344511 
L 357.703829 183.666237 
L 357.719968 183.585805 
L 357.865212 183.505374 
L 358.187978 182.459763 
L 358.236393 182.379332 
L 358.768957 179.162068 
L 359.043308 175.381783 
L 359.172414 169.751572 
L 359.236967 68.005611 
L 359.30152 108.382269 
L 359.49518 181.655447 
L 359.672701 183.987963 
L 359.898637 184.711848 
L 359.914776 184.631416 
L 360.092297 184.711848 
L 360.140712 184.792279 
L 360.172988 184.631416 
L 360.189127 184.631416 
L 360.25368 184.550985 
L 360.528031 183.746669 
L 360.640999 183.666237 
L 360.834658 183.022784 
L 360.866935 183.103216 
L 360.947627 183.022784 
L 361.092871 182.620626 
L 361.125148 182.701058 
L 361.173563 182.620626 
L 361.383361 182.138037 
L 361.447914 182.057605 
L 361.722265 181.253289 
L 361.786818 181.172858 
L 362.028892 180.529405 
L 362.125722 180.448973 
L 362.43235 179.483794 
L 362.496903 179.403363 
L 363.303818 175.944804 
L 363.352233 176.025236 
L 363.384509 175.783941 
L 363.56203 171.762362 
L 363.626584 66.96 
L 363.707275 118.114491 
L 363.884796 180.609837 
L 364.046179 182.701058 
L 364.143009 182.78149 
L 364.304392 183.022784 
L 364.336669 183.103216 
L 364.352807 183.183647 
L 364.433498 183.103216 
L 364.449637 183.022784 
L 364.530328 183.183647 
L 364.836956 183.264079 
L 364.853094 183.344511 
L 364.885371 183.183647 
L 364.917647 183.183647 
L 365.304966 181.81631 
L 365.595456 181.735879 
L 366.257126 179.001205 
L 366.321679 179.081636 
L 366.370094 179.2425 
L 366.418509 179.001205 
L 366.773551 177.794731 
L 366.805828 177.875163 
L 366.838104 177.633868 
L 366.967211 177.312141 
L 366.999487 177.392573 
L 367.015626 177.473005 
L 367.06404 177.312141 
L 367.080179 177.312141 
L 367.225423 177.151278 
L 367.273838 177.070847 
L 367.45136 176.346962 
L 367.628881 174.899194 
L 367.854817 173.612288 
L 367.887093 173.531857 
L 367.967785 172.084088 
L 368.000062 166.373445 
L 368.064615 68.086042 
L 368.129168 106.532342 
L 368.338966 179.805521 
L 368.516487 181.655447 
L 368.694008 182.057605 
L 368.806976 181.977174 
L 368.952221 182.138037 
L 369.000636 181.977174 
L 369.081327 182.057605 
L 369.194295 182.218468 
L 369.210434 182.138037 
L 369.24271 182.138037 
L 369.323402 181.977174 
L 369.355678 182.057605 
L 369.387955 182.2989 
L 369.484785 182.138037 
L 369.581614 182.057605 
L 369.839827 181.333721 
L 369.952795 181.253289 
L 370.501497 179.081636 
L 370.533774 179.001205 
L 370.695157 178.277321 
L 370.808125 178.357752 
L 371.114753 177.392573 
L 371.163167 177.312141 
L 371.308412 177.070847 
L 371.32455 177.151278 
L 371.389104 176.909983 
L 371.405242 176.990415 
L 371.534348 177.070847 
L 371.679593 177.473005 
L 371.744146 177.312141 
L 371.808699 177.392573 
L 371.857114 177.312141 
L 371.970082 177.070847 
L 372.002359 177.151278 
L 372.08305 177.070847 
L 372.551061 175.22092 
L 372.567199 175.301352 
L 372.615614 175.060057 
L 372.825412 173.612288 
L 372.922242 170.234162 
L 372.986795 67.603453 
L 373.067486 111.358238 
L 373.261146 177.955594 
L 373.454805 179.725089 
L 373.69688 180.368542 
L 373.858263 180.28811 
L 373.955092 180.127247 
L 373.971231 180.207679 
L 374.051922 180.368542 
L 374.084199 180.28811 
L 374.374688 179.403363 
L 374.45538 179.322931 
L 374.616763 179.001205 
L 374.713592 179.081636 
L 374.729731 179.001205 
L 374.842699 178.920773 
L 375.068635 178.357752 
L 375.100911 178.438184 
L 375.197741 178.599047 
L 375.230018 178.518615 
L 375.262294 178.438184 
L 375.617337 177.23171 
L 375.665752 177.151278 
L 375.827135 176.507826 
L 375.859411 176.588257 
L 375.891688 176.668689 
L 375.940103 176.427394 
L 376.149901 175.864373 
L 376.182177 175.944804 
L 376.262869 175.864373 
L 376.295145 175.783941 
L 376.698603 174.336173 
L 376.779294 174.416604 
L 376.795432 174.336173 
L 377.118198 172.16452 
L 377.182752 170.475456 
L 377.215028 141.278789 
L 377.263443 68.246905 
L 377.327996 101.143426 
L 377.537794 176.025236 
L 377.683039 178.116457 
L 377.699177 178.036026 
L 377.95739 178.75991 
L 378.054219 178.840342 
L 378.215602 179.081636 
L 378.393124 179.001205 
L 378.538368 178.840342 
L 378.586783 178.75991 
L 378.877273 177.875163 
L 378.941826 177.794731 
L 378.990241 177.714299 
L 379.022517 177.875163 
L 379.038655 177.875163 
L 379.167762 177.794731 
L 379.474389 176.829552 
L 379.522804 176.74912 
L 379.668049 176.588257 
L 379.74874 176.507826 
L 379.990815 175.864373 
L 380.023091 175.783941 
L 380.216751 174.738331 
L 380.232889 174.818762 
L 380.297442 174.577467 
L 380.426549 174.497036 
L 380.491102 174.577467 
L 380.571794 174.738331 
L 380.620208 174.657899 
L 380.684762 174.577467 
L 380.846145 174.255741 
L 380.862283 174.336173 
L 380.910698 174.014446 
L 380.959113 173.934015 
L 381.394847 171.199341 
L 381.540091 168.14294 
L 381.572368 136.694188 
L 381.620783 67.925179 
L 381.685336 100.33911 
L 381.911272 177.070847 
L 382.104932 178.920773 
L 382.185623 179.001205 
L 382.395421 179.483794 
L 382.459974 179.564226 
L 382.605219 179.725089 
L 382.702048 179.644658 
L 382.944123 179.001205 
L 383.121644 179.081636 
L 383.234612 179.403363 
L 383.283027 179.322931 
L 383.379857 179.403363 
L 383.395995 179.483794 
L 383.44441 179.322931 
L 383.460548 179.322931 
L 383.670346 178.840342 
L 383.702623 178.75991 
L 383.912421 178.277321 
L 383.944697 178.196889 
L 384.089942 177.875163 
L 384.10608 177.955594 
L 384.154495 177.875163 
L 384.348155 177.473005 
L 384.380431 177.392573 
L 384.477261 177.151278 
L 384.525676 177.23171 
L 384.735474 177.151278 
L 384.896857 176.74912 
L 384.912995 176.829552 
L 384.993686 176.74912 
L 385.042101 176.668689 
L 385.106654 176.74912 
L 385.171208 176.668689 
L 385.300314 176.346962 
L 385.332591 176.427394 
L 385.364867 176.588257 
L 385.42942 176.427394 
L 386.123367 172.486246 
L 386.317027 167.982077 
L 386.38158 69.614242 
L 386.47841 117.310175 
L 386.672069 175.70351 
L 386.833452 177.23171 
L 386.84959 177.151278 
L 386.898005 177.473005 
L 387.107803 178.116457 
L 387.123941 178.036026 
L 387.172356 178.116457 
L 387.349877 178.438184 
L 387.527399 178.116457 
L 387.688782 178.036026 
L 387.882441 177.633868 
L 387.979271 177.633868 
L 388.140654 178.277321 
L 388.318175 177.955594 
L 388.415005 178.036026 
L 388.431143 177.955594 
L 388.527973 177.875163 
L 388.657079 177.794731 
L 388.689356 177.875163 
L 388.737771 177.714299 
L 388.753909 177.714299 
L 389.012122 176.990415 
L 389.076675 176.990415 
L 389.238058 176.427394 
L 390.077249 171.68193 
L 390.319324 166.936466 
L 390.3516 127.766282 
L 390.400015 69.212085 
L 390.464568 101.626015 
L 390.674366 173.934015 
L 390.835749 175.944804 
L 390.868026 176.025236 
L 391.142377 176.829552 
L 391.158515 176.829552 
L 391.174653 176.668689 
L 391.271483 176.74912 
L 391.352175 176.588257 
L 391.384451 176.74912 
L 391.497419 176.668689 
L 391.513558 176.588257 
L 391.594249 176.74912 
L 391.739494 176.668689 
L 391.96543 176.105668 
L 392.078398 176.025236 
L 392.417302 174.899194 
L 392.449579 174.899194 
L 392.610962 174.255741 
L 392.659377 174.175309 
L 392.869174 173.129699 
L 392.885313 173.129699 
L 393.175802 171.279772 
L 393.627674 168.464667 
L 393.724504 165.971287 
L 393.756781 135.648578 
L 393.805196 69.775106 
L 393.869749 95.995804 
L 394.111823 173.290562 
L 394.305483 175.783941 
L 394.499142 176.74912 
L 394.547557 176.829552 
L 394.757355 177.312141 
L 394.967153 177.392573 
L 395.015568 177.553436 
L 395.080121 177.473005 
L 395.386749 176.507826 
L 395.419025 176.427394 
L 395.56427 176.266531 
L 395.612685 176.266531 
L 395.757929 175.864373 
L 395.806344 175.783941 
L 395.967727 175.301352 
L 396.000004 175.381783 
L 396.096833 175.301352 
L 396.290493 174.416604 
L 396.32277 174.336173 
L 396.726227 172.888404 
L 396.758504 172.807972 
L 397.048993 171.601499 
L 397.097408 171.68193 
L 397.129684 171.762362 
L 397.161961 171.601499 
L 397.517003 167.419056 
L 397.565418 161.708413 
L 397.629972 70.0164 
L 397.710663 105.004142 
L 397.936599 172.727541 
L 398.130259 175.22092 
L 398.162535 175.301352 
L 398.501439 176.427394 
L 398.582131 176.507826 
L 398.727376 176.668689 
L 398.904897 176.588257 
L 399.050142 176.427394 
L 399.211524 176.346962 
L 399.453599 175.70351 
L 399.582705 175.623078 
L 399.744088 175.301352 
L 399.857056 175.381783 
L 399.889333 175.301352 
L 399.953886 175.462215 
L 400.018439 175.381783 
L 400.438035 173.853583 
L 400.470311 173.773151 
L 401.196535 169.67114 
L 401.406333 165.488698 
L 401.487024 70.0164 
L 401.583854 116.425428 
L 401.777513 171.279772 
L 401.955035 173.853583 
L 402.229386 175.542646 
L 402.358492 175.783941 
L 402.37463 175.70351 
L 402.439183 175.623078 
L 402.519875 175.542646 
L 402.552152 175.623078 
L 402.842641 175.542646 
L 403.068577 174.979625 
L 403.100854 174.899194 
L 403.294513 174.497036 
L 403.342928 174.416604 
L 403.455896 174.255741 
L 403.472034 174.336173 
L 403.923907 174.255741 
L 404.053013 174.175309 
L 404.165981 174.255741 
L 404.214396 174.336173 
L 404.278949 174.255741 
L 404.359641 174.336173 
L 404.424194 174.416604 
L 404.472609 174.336173 
L 404.521024 174.255741 
L 404.730821 173.451425 
L 404.779236 173.531857 
L 404.843789 173.612288 
L 404.892204 173.531857 
L 405.102002 173.451425 
L 405.344077 172.807972 
L 405.392492 172.727541 
L 405.50546 172.244951 
L 405.537736 172.325383 
L 405.602289 172.244951 
L 406.005747 169.67114 
L 406.215545 166.61474 
L 406.296236 162.030139 
L 406.376928 71.062011 
L 406.441481 102.430331 
L 406.667417 172.003656 
L 406.861076 174.899194 
L 407.280672 176.427394 
L 407.442055 176.346962 
L 407.571161 176.025236 
L 407.813236 176.105668 
L 407.893927 176.186099 
L 407.926204 176.105668 
L 408.119863 176.186099 
L 408.200555 176.346962 
L 408.24897 176.266531 
L 408.3458 176.186099 
L 408.523321 175.864373 
L 408.604012 175.864373 
L 408.797672 174.979625 
L 409.104299 174.014446 
L 409.152714 173.934015 
L 409.749831 171.521067 
L 409.798246 171.440635 
L 409.927352 170.877614 
L 409.975767 171.118909 
L 410.395363 171.038477 
L 410.944065 167.740782 
L 411.105448 161.06496 
L 411.186139 71.062011 
L 411.250693 101.062994 
L 411.476629 171.842793 
L 411.65415 174.657899 
L 411.896224 176.025236 
L 412.057607 176.266531 
L 412.138299 176.186099 
L 412.267405 176.025236 
L 412.299682 176.105668 
L 412.348097 175.944804 
L 412.364235 175.944804 
L 412.525618 175.864373 
L 412.590171 175.783941 
L 412.622448 175.944804 
L 412.703139 176.266531 
L 412.767692 176.186099 
L 412.97749 175.70351 
L 413.058182 175.623078 
L 413.203426 175.462215 
L 413.300256 175.381783 
L 413.477777 174.738331 
L 413.510054 174.899194 
L 413.752128 174.818762 
L 414.252416 172.888404 
L 414.316969 172.807972 
L 414.462213 172.647109 
L 414.510628 172.566678 
L 414.801118 171.68193 
L 414.833394 171.601499 
L 415.382096 165.166971 
L 415.414373 157.204244 
L 415.478926 70.820716 
L 415.543479 97.282709 
L 415.785554 172.003656 
L 415.979213 174.577467 
L 416.189011 175.623078 
L 416.414947 176.186099 
L 416.544053 176.105668 
L 416.76999 176.105668 
L 416.931373 175.542646 
L 416.963649 175.623078 
L 417.012064 175.381783 
L 417.060479 175.301352 
L 417.286415 174.738331 
L 417.399383 174.657899 
L 417.818979 173.129699 
L 417.851255 173.049267 
L 418.109468 172.325383 
L 418.238574 172.244951 
L 418.56134 171.199341 
L 418.577479 171.279772 
L 418.625894 171.118909 
L 418.642032 171.118909 
L 419.126181 168.14294 
L 419.335979 164.443087 
L 419.368255 149.40238 
L 419.432808 70.981579 
L 419.497362 98.087025 
L 419.787851 194.122344 
L 420.046064 213.265062 
L 420.433383 227.34059 
L 420.83684 236.107634 
L 421.224159 241.657413 
L 421.627616 246.081151 
L 421.788999 247.448488 
L 422.224733 250.746183 
L 422.757297 253.963447 
L 422.950957 254.848194 
L 423.67718 257.904595 
L 423.709457 257.985026 
L 424.145191 259.593658 
L 424.177467 259.67409 
L 424.451818 260.478405 
L 424.500233 260.558837 
L 424.758446 261.282721 
L 424.855276 261.363153 
L 425.129627 262.167469 
L 425.145765 262.087037 
L 425.178041 262.2479 
L 425.210318 262.2479 
L 425.436254 262.810922 
L 425.549222 262.891353 
L 425.726743 263.213079 
L 425.839712 263.293511 
L 426.017233 263.615237 
L 426.097924 263.695669 
L 426.259307 263.936964 
L 426.32386 264.017395 
L 426.501382 264.339122 
L 426.51752 264.25869 
L 426.582073 264.419553 
L 426.598211 264.419553 
L 426.727318 264.499985 
L 426.824148 264.580417 
L 426.98553 264.821711 
L 427.033945 264.902143 
L 427.163052 264.982574 
L 427.243743 265.063006 
L 427.388988 265.304301 
L 427.421264 265.223869 
L 427.501956 265.304301 
L 428.131349 265.384732 
L 428.276594 265.545596 
L 429.148062 265.626027 
L 429.1642 265.706459 
L 429.244892 265.626027 
L 429.341722 265.545596 
L 429.35786 265.626027 
L 429.729041 265.706459 
L 429.793594 265.78689 
L 429.842009 265.706459 
L 430.697338 265.626027 
L 430.826445 265.545596 
L 431.310594 265.465164 
L 431.375147 265.384732 
L 431.423562 265.465164 
L 431.4397 265.545596 
L 431.520391 265.465164 
L 431.649498 265.384732 
L 432.036817 265.304301 
L 432.165923 265.223869 
L 432.633934 265.143438 
L 432.76304 265.063006 
L 433.392434 264.982574 
L 433.52154 264.902143 
L 433.795891 264.821711 
L 433.860444 264.660848 
L 433.908859 264.74128 
L 433.989551 264.821711 
L 434.021827 264.74128 
L 434.74805 264.660848 
L 434.877157 264.580417 
L 435.232199 264.499985 
L 435.377444 264.339122 
L 435.458135 264.419553 
L 435.490412 264.339122 
L 435.780901 264.339122 
L 435.780901 264.339122 
" style="fill:none;stroke:#1f77b4;stroke-linecap:square;stroke-width:1.5;"/>
   </g>
   <g id="line2d_15">
    <path clip-path="url(#p83d37d0105)" d="M 80.754545 257.084192 
L 81.884226 260.197474 
L 82.804109 261.828241 
L 84.805258 263.722565 
L 84.998917 263.8214 
L 85.289406 263.969651 
L 85.547619 264.068486 
L 85.789694 264.16732 
L 86.128598 264.266154 
L 86.338396 264.332044 
L 86.806406 264.430878 
L 87.000066 264.480295 
L 87.839257 264.57913 
L 88.00064 264.595602 
L 88.904385 264.661492 
L 89.598331 249.786924 
L 90.243863 239.90349 
L 90.857118 233.182755 
L 91.50265 228.273983 
L 92.132044 225.078339 
L 92.696884 223.216959 
L 93.536075 221.750917 
L 94.004086 221.421469 
L 94.988522 221.520303 
L 95.456532 221.849751 
L 95.585639 221.948585 
L 97.021947 223.562879 
L 97.37699 224.040579 
L 97.828862 224.650057 
L 98.200043 225.160701 
L 98.635777 225.753707 
L 99.006957 226.264351 
L 99.507244 226.923247 
L 99.846149 227.368001 
L 100.540095 228.224566 
L 100.846723 228.603431 
L 104.219627 231.897909 
L 104.348733 231.996743 
L 104.881297 232.39208 
L 105.026541 232.490915 
L 105.478414 232.80389 
L 105.639797 232.902724 
L 106.027116 233.14981 
L 106.204637 233.248645 
L 106.543541 233.446313 
L 106.737201 233.545148 
L 107.059967 233.726344 
L 107.269764 233.825178 
L 107.560254 233.97343 
L 107.78619 234.072264 
L 108.060541 234.204043 
L 108.302615 234.302877 
L 108.560828 234.418184 
L 108.819041 234.517019 
L 109.061115 234.615853 
L 109.351605 234.714687 
L 109.593679 234.813522 
L 109.916445 234.912356 
L 110.142381 234.994718 
L 110.481285 235.093552 
L 110.691083 235.159442 
L 111.046126 235.258276 
L 111.255923 235.324166 
L 111.675519 235.423 
L 111.885317 235.48889 
L 112.369466 235.587724 
L 112.563125 235.637141 
L 113.063412 235.735975 
L 113.257072 235.785393 
L 113.854189 235.884227 
L 114.047848 235.933644 
L 114.741795 236.032478 
L 114.919316 236.065423 
L 115.677816 236.164258 
L 115.855337 236.197202 
L 116.77522 236.296037 
L 116.952742 236.328981 
L 118.114699 236.427816 
L 118.276082 236.444288 
L 119.583284 236.543122 
L 119.744667 236.559595 
L 121.536017 236.658429 
L 121.6974 236.674902 
L 124.424772 236.773736 
L 124.586155 236.790208 
L 130.170005 236.889043 
L 130.331388 236.905515 
L 153.457565 236.971405 
L 154.151512 251.862445 
L 154.797044 261.745879 
L 155.410299 268.450141 
L 156.055831 273.358913 
L 156.685224 276.538084 
L 157.233926 278.317103 
L 157.621245 279.157194 
L 158.008565 279.700783 
L 158.52499 280.079648 
L 159.461011 279.980814 
L 159.880607 279.700783 
L 160.009713 279.601949 
L 161.542851 277.88882 
L 161.897894 277.411121 
L 162.349766 276.801643 
L 162.737085 276.258054 
L 163.156681 275.68152 
L 163.527861 275.170876 
L 163.995872 274.544925 
L 164.350915 274.067226 
L 164.996446 273.260079 
L 165.303074 272.881214 
L 169.03102 269.224343 
L 169.176265 269.125509 
L 169.515169 268.878423 
L 169.531307 257.084192 
L 169.628137 257.41364 
L 170.612573 260.082167 
L 171.597009 261.844713 
L 173.582019 263.722565 
L 173.775679 263.8214 
L 174.066168 263.969651 
L 174.324381 264.068486 
L 174.566455 264.16732 
L 174.90536 264.266154 
L 175.115157 264.332044 
L 175.583168 264.430878 
L 175.776828 264.480295 
L 176.616019 264.57913 
L 176.777402 264.595602 
L 177.681146 264.661492 
L 178.391231 244.433397 
L 179.020625 231.63435 
L 179.779125 220.993187 
L 180.473071 212.295765 
L 180.58604 219.181224 
L 180.747422 219.263586 
L 181.586614 226.692633 
L 182.232146 230.547173 
L 183.264997 234.31935 
L 184.249433 236.081896 
L 184.894964 236.59254 
L 185.169315 236.691374 
L 185.362975 236.740791 
L 186.331273 236.641957 
L 186.573347 236.543122 
L 186.799283 236.444288 
L 187.105911 236.279564 
L 187.283432 236.18073 
L 187.686889 235.917172 
L 187.848272 235.818337 
L 188.364698 235.439472 
L 188.509942 235.340638 
L 189.123198 234.862939 
L 189.268442 234.764104 
L 189.930112 234.236988 
L 190.075357 234.138154 
L 190.688612 233.660454 
L 190.833857 233.56162 
L 191.382559 233.14981 
L 191.543942 233.050976 
L 192.028091 232.705056 
L 192.189474 232.606221 
L 192.625208 232.309718 
L 192.802729 232.210884 
L 193.190048 231.963798 
L 193.367569 231.864964 
L 193.706473 231.667295 
L 193.900133 231.568461 
L 194.239037 231.370792 
L 194.448835 231.271958 
L 194.739324 231.123706 
L 194.949122 231.024872 
L 195.239612 230.87662 
L 195.481686 230.777786 
L 195.756037 230.646007 
L 196.01425 230.547173 
L 196.272462 230.431866 
L 196.546813 230.333032 
L 196.788888 230.234197 
L 197.095515 230.135363 
L 197.33759 230.036529 
L 197.660356 229.937694 
L 197.886292 229.855332 
L 198.241334 229.756498 
L 198.451132 229.690608 
L 198.822313 229.591774 
L 199.032111 229.525884 
L 199.451707 229.42705 
L 199.661504 229.361161 
L 200.145653 229.262326 
L 200.339313 229.212909 
L 200.8396 229.114075 
L 201.03326 229.064658 
L 201.630376 228.965823 
L 201.824036 228.916406 
L 202.517983 228.817572 
L 202.695504 228.784627 
L 203.437865 228.685793 
L 203.615387 228.652848 
L 204.519131 228.554014 
L 204.696653 228.521069 
L 205.826333 228.422234 
L 205.987716 228.405762 
L 207.262641 228.306928 
L 207.424024 228.290455 
L 209.134684 228.191621 
L 209.296067 228.175149 
L 211.862056 228.076314 
L 212.023439 228.059842 
L 216.945619 227.961007 
L 217.107002 227.944535 
L 242.234327 227.862173 
L 242.944412 248.10674 
L 243.573806 260.905787 
L 244.219337 270.229159 
L 244.816454 276.241581 
L 245.461986 280.623237 
L 246.09138 283.275292 
L 246.640082 284.609555 
L 247.011263 285.120199 
L 247.430858 285.40023 
L 248.108667 285.301396 
L 249.577251 283.654157 
L 250.222783 282.583451 
L 250.432581 282.221059 
L 251.594538 280.096121 
L 251.788198 279.7502 
L 252.90174 277.724097 
L 253.111538 277.361704 
L 253.821623 276.15922 
L 254.079836 275.74741 
L 254.596261 274.940263 
L 254.919027 274.462563 
L 255.338623 273.853085 
L 255.806633 273.227134 
L 256.145538 272.78238 
L 256.968591 271.794036 
L 257.242942 271.481061 
L 258.291931 270.393883 
L 258.308069 257.084192 
L 258.404899 257.41364 
L 259.389335 260.082167 
L 260.373771 261.844713 
L 262.358781 263.722565 
L 262.552441 263.8214 
L 262.84293 263.969651 
L 263.101143 264.068486 
L 263.343217 264.16732 
L 263.682121 264.266154 
L 263.891919 264.332044 
L 264.35993 264.430878 
L 264.553589 264.480295 
L 265.392781 264.57913 
L 265.554164 264.595602 
L 266.457908 264.661492 
L 267.151855 234.879411 
L 267.86194 212.098096 
L 267.974908 219.181224 
L 268.136291 219.115334 
L 268.749546 213.992421 
L 268.830238 211.406256 
L 268.943206 219.181224 
L 269.08845 219.181224 
L 269.798535 226.560854 
L 270.411791 230.662479 
L 270.992769 233.050976 
L 271.493056 234.25346 
L 272.283833 234.912356 
L 272.703428 234.813522 
L 273.881524 233.462786 
L 280.304565 220.597849 
L 280.54664 220.202512 
L 281.143757 219.230641 
L 281.40197 218.818831 
L 282.128193 217.583402 
L 282.305714 217.253954 
L 282.902831 215.787912 
L 283.128767 214.750151 
L 283.257874 213.465305 
L 283.306288 212.163986 
L 283.419256 219.181224 
L 283.564501 219.181224 
L 283.677469 220.960242 
L 284.339139 230.036529 
L 285.049224 236.197202 
L 285.678618 239.376373 
L 286.082075 240.578858 
L 286.566224 241.336588 
L 286.727607 241.435422 
L 286.937405 241.501312 
L 287.292447 241.402477 
L 288.1155 240.414134 
L 289.503394 237.333797 
L 290.471691 234.714687 
L 290.810596 233.775761 
L 291.940276 230.662479 
L 292.359872 229.558829 
L 293.053819 227.779811 
L 293.731627 226.149045 
L 294.183499 225.111284 
L 296.717212 220.18604 
L 296.959286 219.790702 
L 297.637095 218.654107 
L 297.879169 218.25877 
L 299.073403 215.590243 
L 299.315477 214.19009 
L 299.428445 211.752176 
L 299.541413 219.181224 
L 299.686658 219.181224 
L 300.364466 229.01524 
L 301.026137 235.208859 
L 301.478009 237.992693 
L 302.236509 240.628275 
L 302.688381 241.303643 
L 302.995009 241.468367 
L 303.414604 241.369533 
L 304.221519 240.397662 
L 305.625551 237.28438 
L 306.593848 234.66527 
L 306.948891 233.693399 
L 308.078572 230.580117 
L 308.498167 229.476467 
L 309.192114 227.697449 
L 309.902199 226.000793 
L 310.354071 224.963033 
L 312.774815 220.268402 
L 313.01689 219.873064 
L 313.694698 218.736469 
L 313.936773 218.341132 
L 315.19556 215.540826 
L 315.421496 214.19009 
L 315.518326 212.542851 
L 315.534464 211.818066 
L 315.647432 219.181224 
L 315.792677 219.181224 
L 316.470485 229.01524 
L 317.132155 235.225331 
L 317.713134 238.602171 
L 318.294112 240.529441 
L 318.7944 241.303643 
L 319.101027 241.468367 
L 319.520623 241.369533 
L 320.343676 240.381189 
L 321.715431 237.333797 
L 322.683729 234.714687 
L 323.022633 233.775761 
L 324.136175 230.711897 
L 324.539633 229.641191 
L 325.233579 227.862173 
L 325.895249 226.264351 
L 326.347122 225.226591 
L 328.961525 220.136622 
L 329.187462 219.757757 
L 329.849132 218.654107 
L 330.091206 218.25877 
L 331.011089 216.446807 
L 331.785727 248.45266 
L 332.463536 267.692411 
L 333.125206 280.623237 
L 333.819152 289.567745 
L 334.383993 294.245903 
L 334.997248 297.32624 
L 335.384567 298.462835 
L 335.836439 299.138203 
L 336.11079 299.269982 
L 336.514248 299.171148 
L 337.208194 298.314584 
L 338.354013 295.728418 
L 341.839885 285.40023 
L 342.178789 284.461304 
L 343.034119 282.188114 
L 343.631236 280.722071 
L 344.099246 279.634894 
L 346.584544 274.808484 
L 346.842757 274.396674 
L 347.068693 274.050754 
L 347.084831 257.084192 
L 347.181661 257.41364 
L 348.166097 260.082167 
L 349.150533 261.844713 
L 351.135543 263.722565 
L 351.329203 263.8214 
L 351.619692 263.969651 
L 351.877905 264.068486 
L 352.119979 264.16732 
L 352.458883 264.266154 
L 352.668681 264.332044 
L 353.136692 264.430878 
L 353.330351 264.480295 
L 354.169543 264.57913 
L 354.330926 264.595602 
L 355.23467 264.661492 
L 355.815649 213.119384 
L 355.928617 219.181224 
L 356.073861 219.181224 
L 356.186829 212.592268 
L 356.299798 219.181224 
L 356.445042 219.181224 
L 356.55801 215.096071 
L 356.622563 211.274477 
L 356.735532 219.181224 
L 356.880776 219.181224 
L 357.187404 211.521563 
L 357.300372 219.181224 
L 357.574723 219.082389 
L 357.88135 218.621163 
L 358.252531 217.616347 
L 358.559159 216.347973 
L 358.817372 214.519538 
L 358.93034 212.295765 
L 359.043308 219.181224 
L 359.204691 219.280058 
L 359.721116 224.683002 
L 360.285956 227.928063 
L 360.72169 228.932878 
L 360.963765 229.064658 
L 360.979903 229.048185 
L 361.157424 228.949351 
L 361.447914 228.504596 
L 361.835233 227.466836 
L 362.270967 225.786652 
L 362.851945 222.953401 
L 363.610445 218.505856 
L 364.046179 215.194906 
L 364.191424 212.658158 
L 364.207562 211.883955 
L 364.32053 219.181224 
L 364.465775 219.181224 
L 365.014477 223.678186 
L 365.417934 225.506621 
L 365.772977 226.264351 
L 366.047328 226.412603 
L 366.612168 225.687818 
L 366.934934 224.798309 
L 368.096891 219.593034 
L 368.613317 216.39739 
L 368.87153 213.514722 
L 368.919944 211.801593 
L 369.032912 219.181224 
L 369.178157 219.181224 
L 369.775274 224.155885 
L 370.178731 225.951376 
L 370.533774 226.692633 
L 370.791987 226.80794 
L 370.985646 226.709106 
L 371.276135 226.264351 
L 371.679593 225.193646 
L 372.825412 220.05426 
L 373.390252 216.595059 
L 373.648465 214.008893 
L 373.729156 211.323894 
L 373.842124 219.181224 
L 373.987369 219.181224 
L 374.568348 224.007634 
L 374.971805 225.819597 
L 375.230018 226.445548 
L 375.617337 226.709106 
L 376.133762 226.05021 
L 377.021369 222.986346 
L 377.553932 220.367236 
L 378.393124 214.634844 
L 378.506092 212.032207 
L 378.61906 219.181224 
L 378.780443 219.263586 
L 379.361421 224.073524 
L 379.764879 225.869014 
L 380.119921 226.610272 
L 380.378134 226.742051 
L 380.942974 226.017266 
L 381.26574 225.127756 
L 382.427697 219.922481 
L 383.186197 214.6019 
L 383.299165 211.9169 
L 383.412133 219.181224 
L 383.573516 219.263586 
L 384.154495 224.073524 
L 384.687059 226.214934 
L 385.042101 226.692633 
L 385.187346 226.725578 
L 385.203484 226.709106 
L 385.364867 226.610272 
L 385.671495 226.149045 
L 386.058814 225.111284 
L 387.204633 219.988371 
L 387.963133 214.766623 
L 388.092239 211.702759 
L 388.205207 219.181224 
L 388.350452 219.181224 
L 388.93143 224.024106 
L 389.334888 225.852542 
L 389.68993 226.610272 
L 389.964281 226.742051 
L 390.141803 226.643216 
L 390.464568 226.165517 
L 391.40059 222.969873 
L 392.578685 216.380918 
L 392.836898 213.43236 
L 392.885313 211.521563 
L 392.998281 219.181224 
L 393.143525 219.181224 
L 393.724504 224.024106 
L 394.127961 225.836069 
L 394.402312 226.494965 
L 394.773493 226.725578 
L 394.934876 226.626744 
L 395.241504 226.165517 
L 395.644961 225.094812 
L 396.096833 223.365211 
L 396.69395 220.482543 
L 397.565418 214.486593 
L 397.662248 212.295765 
L 397.775216 219.181224 
L 397.936599 219.263586 
L 398.517578 224.089996 
L 399.050142 226.247879 
L 399.405184 226.742051 
L 399.744088 226.643216 
L 400.018439 226.214934 
L 400.421897 225.144229 
L 400.889907 223.365211 
L 401.487024 220.46607 
L 402.116418 216.693893 
L 402.390769 213.959476 
L 402.455322 212.180458 
L 402.56829 219.181224 
L 402.729673 219.263586 
L 403.310651 224.073524 
L 403.714109 225.885486 
L 404.069151 226.626744 
L 404.327364 226.742051 
L 404.521024 226.643216 
L 404.811513 226.198462 
L 405.21497 225.127756 
L 405.682981 223.348738 
L 406.280098 220.449598 
L 406.909491 216.660948 
L 407.167704 214.173617 
L 407.248395 211.999262 
L 407.361364 219.181224 
L 407.522746 219.263586 
L 408.103725 224.073524 
L 408.636289 226.214934 
L 408.991331 226.709106 
L 409.330236 226.610272 
L 409.604587 226.181989 
L 410.008044 225.111284 
L 410.476055 223.332266 
L 411.75098 216.282083 
L 411.993054 213.514722 
L 412.041469 211.785121 
L 412.154437 219.181224 
L 412.299682 219.181224 
L 412.88066 224.040579 
L 413.429363 226.264351 
L 413.784405 226.742051 
L 414.107171 226.643216 
L 414.39766 226.198462 
L 414.784979 225.177174 
L 415.946937 219.988371 
L 416.705436 214.750151 
L 416.818405 212.509906 
L 416.834543 211.636869 
L 416.947511 219.181224 
L 417.092756 219.181224 
L 417.673734 224.024106 
L 418.077192 225.852542 
L 418.432234 226.610272 
L 418.706585 226.742051 
L 418.884106 226.643216 
L 419.190734 226.181989 
L 419.578053 225.144229 
L 419.787851 224.419444 
L 420.465659 279.832562 
L 421.127329 316.944856 
L 421.772861 341.060435 
L 422.35384 355.094911 
L 422.854127 362.738099 
L 423.289861 366.757362 
L 423.661042 368.635215 
L 423.999946 369.327055 
L 424.306573 369.228221 
L 424.500233 368.882301 
L 424.758446 368.108098 
L 425.048935 366.872669 
L 425.710605 362.935768 
L 426.759594 354.650156 
L 430.197051 324.093873 
L 431.794742 311.93725 
L 434.586668 295.514277 
L 435.587242 290.98437 
L 435.845455 289.930137 
L 435.845455 289.930137 
" style="fill:none;stroke:#ff0000;stroke-linecap:square;stroke-width:1.5;"/>
   </g>
   <g id="patch_3">
    <path d="M 63 384.48 
L 63 51.84 
" style="fill:none;stroke:#000000;stroke-linecap:square;stroke-linejoin:miter;stroke-width:0.8;"/>
   </g>
   <g id="patch_4">
    <path d="M 453.6 384.48 
L 453.6 51.84 
" style="fill:none;stroke:#000000;stroke-linecap:square;stroke-linejoin:miter;stroke-width:0.8;"/>
   </g>
   <g id="patch_5">
    <path d="M 63 384.48 
L 453.6 384.48 
" style="fill:none;stroke:#000000;stroke-linecap:square;stroke-linejoin:miter;stroke-width:0.8;"/>
   </g>
   <g id="patch_6">
    <path d="M 63 51.84 
L 453.6 51.84 
" style="fill:none;stroke:#000000;stroke-linecap:square;stroke-linejoin:miter;stroke-width:0.8;"/>
   </g>
   <g id="legend_1">
    <g id="patch_7">
     <path d="M 70 89.19625 
L 133.139062 89.19625 
Q 135.139062 89.19625 135.139062 87.19625 
L 135.139062 58.84 
Q 135.139062 56.84 133.139062 56.84 
L 70 56.84 
Q 68 56.84 68 58.84 
L 68 87.19625 
Q 68 89.19625 70 89.19625 
z
" style="fill:#ffffff;opacity:0.8;stroke:#cccccc;stroke-linejoin:miter;"/>
    </g>
    <g id="line2d_16">
     <path d="M 72 64.938437 
L 92 64.938437 
" style="fill:none;stroke:#1f77b4;stroke-linecap:square;stroke-width:1.5;"/>
    </g>
    <g id="line2d_17"/>
    <g id="text_16">
     <!-- target -->
     <defs>
      <path d="M 41.109375 46.296875 
Q 39.59375 47.171875 37.8125 47.578125 
Q 36.03125 48 33.890625 48 
Q 26.265625 48 22.1875 43.046875 
Q 18.109375 38.09375 18.109375 28.8125 
L 18.109375 0 
L 9.078125 0 
L 9.078125 54.6875 
L 18.109375 54.6875 
L 18.109375 46.1875 
Q 20.953125 51.171875 25.484375 53.578125 
Q 30.03125 56 36.53125 56 
Q 37.453125 56 38.578125 55.875 
Q 39.703125 55.765625 41.0625 55.515625 
z
" id="DejaVuSans-114"/>
     </defs>
     <g transform="translate(100 68.438437)scale(0.1 -0.1)">
      <use xlink:href="#DejaVuSans-116"/>
      <use x="39.208984" xlink:href="#DejaVuSans-97"/>
      <use x="100.488281" xlink:href="#DejaVuSans-114"/>
      <use x="141.585938" xlink:href="#DejaVuSans-103"/>
      <use x="205.0625" xlink:href="#DejaVuSans-101"/>
      <use x="266.585938" xlink:href="#DejaVuSans-116"/>
     </g>
    </g>
    <g id="line2d_18">
     <path d="M 72 79.616562 
L 92 79.616562 
" style="fill:none;stroke:#ff0000;stroke-linecap:square;stroke-width:1.5;"/>
    </g>
    <g id="line2d_19"/>
    <g id="text_17">
     <!-- model -->
     <defs>
      <path d="M 45.40625 46.390625 
L 45.40625 75.984375 
L 54.390625 75.984375 
L 54.390625 0 
L 45.40625 0 
L 45.40625 8.203125 
Q 42.578125 3.328125 38.25 0.953125 
Q 33.9375 -1.421875 27.875 -1.421875 
Q 17.96875 -1.421875 11.734375 6.484375 
Q 5.515625 14.40625 5.515625 27.296875 
Q 5.515625 40.1875 11.734375 48.09375 
Q 17.96875 56 27.875 56 
Q 33.9375 56 38.25 53.625 
Q 42.578125 51.265625 45.40625 46.390625 
z
M 14.796875 27.296875 
Q 14.796875 17.390625 18.875 11.75 
Q 22.953125 6.109375 30.078125 6.109375 
Q 37.203125 6.109375 41.296875 11.75 
Q 45.40625 17.390625 45.40625 27.296875 
Q 45.40625 37.203125 41.296875 42.84375 
Q 37.203125 48.484375 30.078125 48.484375 
Q 22.953125 48.484375 18.875 42.84375 
Q 14.796875 37.203125 14.796875 27.296875 
z
" id="DejaVuSans-100"/>
     </defs>
     <g transform="translate(100 83.116562)scale(0.1 -0.1)">
      <use xlink:href="#DejaVuSans-109"/>
      <use x="97.412109" xlink:href="#DejaVuSans-111"/>
      <use x="158.59375" xlink:href="#DejaVuSans-100"/>
      <use x="222.070312" xlink:href="#DejaVuSans-101"/>
      <use x="283.59375" xlink:href="#DejaVuSans-108"/>
     </g>
    </g>
   </g>
  </g>
 </g>
 <defs>
  <clipPath id="p83d37d0105">
   <rect height="332.64" width="390.6" x="63" y="51.84"/>
  </clipPath>
 </defs>
</svg>
