<?xml version="1.0" encoding="utf-8" standalone="no"?>
<!DOCTYPE svg PUBLIC "-//W3C//DTD SVG 1.1//EN"
  "http://www.w3.org/Graphics/SVG/1.1/DTD/svg11.dtd">
<!-- Created with matplotlib (https://matplotlib.org/) -->
<svg height="432pt" version="1.1" viewBox="0 0 504 432" width="504pt" xmlns="http://www.w3.org/2000/svg" xmlns:xlink="http://www.w3.org/1999/xlink">
 <defs>
  <style type="text/css">
*{stroke-linecap:butt;stroke-linejoin:round;}
  </style>
 </defs>
 <g id="figure_1">
  <g id="patch_1">
   <path d="M 0 432 
L 504 432 
L 504 0 
L 0 0 
z
" style="fill:#ffffff;"/>
  </g>
  <g id="axes_1">
   <g id="patch_2">
    <path d="M 63 384.48 
L 453.6 384.48 
L 453.6 51.84 
L 63 51.84 
z
" style="fill:#ffffff;"/>
   </g>
   <g id="matplotlib.axis_1">
    <g id="xtick_1">
     <g id="line2d_1">
      <defs>
       <path d="M 0 0 
L 0 3.5 
" id="mb4415aea60" style="stroke:#000000;stroke-width:0.8;"/>
      </defs>
      <g>
       <use style="stroke:#000000;stroke-width:0.8;" x="80.754545" xlink:href="#mb4415aea60" y="384.48"/>
      </g>
     </g>
     <g id="text_1">
      <!-- 0 -->
      <defs>
       <path d="M 31.78125 66.40625 
Q 24.171875 66.40625 20.328125 58.90625 
Q 16.5 51.421875 16.5 36.375 
Q 16.5 21.390625 20.328125 13.890625 
Q 24.171875 6.390625 31.78125 6.390625 
Q 39.453125 6.390625 43.28125 13.890625 
Q 47.125 21.390625 47.125 36.375 
Q 47.125 51.421875 43.28125 58.90625 
Q 39.453125 66.40625 31.78125 66.40625 
z
M 31.78125 74.21875 
Q 44.046875 74.21875 50.515625 64.515625 
Q 56.984375 54.828125 56.984375 36.375 
Q 56.984375 17.96875 50.515625 8.265625 
Q 44.046875 -1.421875 31.78125 -1.421875 
Q 19.53125 -1.421875 13.0625 8.265625 
Q 6.59375 17.96875 6.59375 36.375 
Q 6.59375 54.828125 13.0625 64.515625 
Q 19.53125 74.21875 31.78125 74.21875 
z
" id="DejaVuSans-48"/>
      </defs>
      <g transform="translate(77.573295 399.078438)scale(0.1 -0.1)">
       <use xlink:href="#DejaVuSans-48"/>
      </g>
     </g>
    </g>
    <g id="xtick_2">
     <g id="line2d_2">
      <g>
       <use style="stroke:#000000;stroke-width:0.8;" x="151.772727" xlink:href="#mb4415aea60" y="384.48"/>
      </g>
     </g>
     <g id="text_2">
      <!-- 200 -->
      <defs>
       <path d="M 19.1875 8.296875 
L 53.609375 8.296875 
L 53.609375 0 
L 7.328125 0 
L 7.328125 8.296875 
Q 12.9375 14.109375 22.625 23.890625 
Q 32.328125 33.6875 34.8125 36.53125 
Q 39.546875 41.84375 41.421875 45.53125 
Q 43.3125 49.21875 43.3125 52.78125 
Q 43.3125 58.59375 39.234375 62.25 
Q 35.15625 65.921875 28.609375 65.921875 
Q 23.96875 65.921875 18.8125 64.3125 
Q 13.671875 62.703125 7.8125 59.421875 
L 7.8125 69.390625 
Q 13.765625 71.78125 18.9375 73 
Q 24.125 74.21875 28.421875 74.21875 
Q 39.75 74.21875 46.484375 68.546875 
Q 53.21875 62.890625 53.21875 53.421875 
Q 53.21875 48.921875 51.53125 44.890625 
Q 49.859375 40.875 45.40625 35.40625 
Q 44.1875 33.984375 37.640625 27.21875 
Q 31.109375 20.453125 19.1875 8.296875 
z
" id="DejaVuSans-50"/>
      </defs>
      <g transform="translate(142.228977 399.078438)scale(0.1 -0.1)">
       <use xlink:href="#DejaVuSans-50"/>
       <use x="63.623047" xlink:href="#DejaVuSans-48"/>
       <use x="127.246094" xlink:href="#DejaVuSans-48"/>
      </g>
     </g>
    </g>
    <g id="xtick_3">
     <g id="line2d_3">
      <g>
       <use style="stroke:#000000;stroke-width:0.8;" x="222.790909" xlink:href="#mb4415aea60" y="384.48"/>
      </g>
     </g>
     <g id="text_3">
      <!-- 400 -->
      <defs>
       <path d="M 37.796875 64.3125 
L 12.890625 25.390625 
L 37.796875 25.390625 
z
M 35.203125 72.90625 
L 47.609375 72.90625 
L 47.609375 25.390625 
L 58.015625 25.390625 
L 58.015625 17.1875 
L 47.609375 17.1875 
L 47.609375 0 
L 37.796875 0 
L 37.796875 17.1875 
L 4.890625 17.1875 
L 4.890625 26.703125 
z
" id="DejaVuSans-52"/>
      </defs>
      <g transform="translate(213.247159 399.078438)scale(0.1 -0.1)">
       <use xlink:href="#DejaVuSans-52"/>
       <use x="63.623047" xlink:href="#DejaVuSans-48"/>
       <use x="127.246094" xlink:href="#DejaVuSans-48"/>
      </g>
     </g>
    </g>
    <g id="xtick_4">
     <g id="line2d_4">
      <g>
       <use style="stroke:#000000;stroke-width:0.8;" x="293.809091" xlink:href="#mb4415aea60" y="384.48"/>
      </g>
     </g>
     <g id="text_4">
      <!-- 600 -->
      <defs>
       <path d="M 33.015625 40.375 
Q 26.375 40.375 22.484375 35.828125 
Q 18.609375 31.296875 18.609375 23.390625 
Q 18.609375 15.53125 22.484375 10.953125 
Q 26.375 6.390625 33.015625 6.390625 
Q 39.65625 6.390625 43.53125 10.953125 
Q 47.40625 15.53125 47.40625 23.390625 
Q 47.40625 31.296875 43.53125 35.828125 
Q 39.65625 40.375 33.015625 40.375 
z
M 52.59375 71.296875 
L 52.59375 62.3125 
Q 48.875 64.0625 45.09375 64.984375 
Q 41.3125 65.921875 37.59375 65.921875 
Q 27.828125 65.921875 22.671875 59.328125 
Q 17.53125 52.734375 16.796875 39.40625 
Q 19.671875 43.65625 24.015625 45.921875 
Q 28.375 48.1875 33.59375 48.1875 
Q 44.578125 48.1875 50.953125 41.515625 
Q 57.328125 34.859375 57.328125 23.390625 
Q 57.328125 12.15625 50.6875 5.359375 
Q 44.046875 -1.421875 33.015625 -1.421875 
Q 20.359375 -1.421875 13.671875 8.265625 
Q 6.984375 17.96875 6.984375 36.375 
Q 6.984375 53.65625 15.1875 63.9375 
Q 23.390625 74.21875 37.203125 74.21875 
Q 40.921875 74.21875 44.703125 73.484375 
Q 48.484375 72.75 52.59375 71.296875 
z
" id="DejaVuSans-54"/>
      </defs>
      <g transform="translate(284.265341 399.078438)scale(0.1 -0.1)">
       <use xlink:href="#DejaVuSans-54"/>
       <use x="63.623047" xlink:href="#DejaVuSans-48"/>
       <use x="127.246094" xlink:href="#DejaVuSans-48"/>
      </g>
     </g>
    </g>
    <g id="xtick_5">
     <g id="line2d_5">
      <g>
       <use style="stroke:#000000;stroke-width:0.8;" x="364.827273" xlink:href="#mb4415aea60" y="384.48"/>
      </g>
     </g>
     <g id="text_5">
      <!-- 800 -->
      <defs>
       <path d="M 31.78125 34.625 
Q 24.75 34.625 20.71875 30.859375 
Q 16.703125 27.09375 16.703125 20.515625 
Q 16.703125 13.921875 20.71875 10.15625 
Q 24.75 6.390625 31.78125 6.390625 
Q 38.8125 6.390625 42.859375 10.171875 
Q 46.921875 13.96875 46.921875 20.515625 
Q 46.921875 27.09375 42.890625 30.859375 
Q 38.875 34.625 31.78125 34.625 
z
M 21.921875 38.8125 
Q 15.578125 40.375 12.03125 44.71875 
Q 8.5 49.078125 8.5 55.328125 
Q 8.5 64.0625 14.71875 69.140625 
Q 20.953125 74.21875 31.78125 74.21875 
Q 42.671875 74.21875 48.875 69.140625 
Q 55.078125 64.0625 55.078125 55.328125 
Q 55.078125 49.078125 51.53125 44.71875 
Q 48 40.375 41.703125 38.8125 
Q 48.828125 37.15625 52.796875 32.3125 
Q 56.78125 27.484375 56.78125 20.515625 
Q 56.78125 9.90625 50.3125 4.234375 
Q 43.84375 -1.421875 31.78125 -1.421875 
Q 19.734375 -1.421875 13.25 4.234375 
Q 6.78125 9.90625 6.78125 20.515625 
Q 6.78125 27.484375 10.78125 32.3125 
Q 14.796875 37.15625 21.921875 38.8125 
z
M 18.3125 54.390625 
Q 18.3125 48.734375 21.84375 45.5625 
Q 25.390625 42.390625 31.78125 42.390625 
Q 38.140625 42.390625 41.71875 45.5625 
Q 45.3125 48.734375 45.3125 54.390625 
Q 45.3125 60.0625 41.71875 63.234375 
Q 38.140625 66.40625 31.78125 66.40625 
Q 25.390625 66.40625 21.84375 63.234375 
Q 18.3125 60.0625 18.3125 54.390625 
z
" id="DejaVuSans-56"/>
      </defs>
      <g transform="translate(355.283523 399.078438)scale(0.1 -0.1)">
       <use xlink:href="#DejaVuSans-56"/>
       <use x="63.623047" xlink:href="#DejaVuSans-48"/>
       <use x="127.246094" xlink:href="#DejaVuSans-48"/>
      </g>
     </g>
    </g>
    <g id="text_6">
     <!-- time [ms] -->
     <defs>
      <path d="M 18.3125 70.21875 
L 18.3125 54.6875 
L 36.8125 54.6875 
L 36.8125 47.703125 
L 18.3125 47.703125 
L 18.3125 18.015625 
Q 18.3125 11.328125 20.140625 9.421875 
Q 21.96875 7.515625 27.59375 7.515625 
L 36.8125 7.515625 
L 36.8125 0 
L 27.59375 0 
Q 17.1875 0 13.234375 3.875 
Q 9.28125 7.765625 9.28125 18.015625 
L 9.28125 47.703125 
L 2.6875 47.703125 
L 2.6875 54.6875 
L 9.28125 54.6875 
L 9.28125 70.21875 
z
" id="DejaVuSans-116"/>
      <path d="M 9.421875 54.6875 
L 18.40625 54.6875 
L 18.40625 0 
L 9.421875 0 
z
M 9.421875 75.984375 
L 18.40625 75.984375 
L 18.40625 64.59375 
L 9.421875 64.59375 
z
" id="DejaVuSans-105"/>
      <path d="M 52 44.1875 
Q 55.375 50.25 60.0625 53.125 
Q 64.75 56 71.09375 56 
Q 79.640625 56 84.28125 50.015625 
Q 88.921875 44.046875 88.921875 33.015625 
L 88.921875 0 
L 79.890625 0 
L 79.890625 32.71875 
Q 79.890625 40.578125 77.09375 44.375 
Q 74.3125 48.1875 68.609375 48.1875 
Q 61.625 48.1875 57.5625 43.546875 
Q 53.515625 38.921875 53.515625 30.90625 
L 53.515625 0 
L 44.484375 0 
L 44.484375 32.71875 
Q 44.484375 40.625 41.703125 44.40625 
Q 38.921875 48.1875 33.109375 48.1875 
Q 26.21875 48.1875 22.15625 43.53125 
Q 18.109375 38.875 18.109375 30.90625 
L 18.109375 0 
L 9.078125 0 
L 9.078125 54.6875 
L 18.109375 54.6875 
L 18.109375 46.1875 
Q 21.1875 51.21875 25.484375 53.609375 
Q 29.78125 56 35.6875 56 
Q 41.65625 56 45.828125 52.96875 
Q 50 49.953125 52 44.1875 
z
" id="DejaVuSans-109"/>
      <path d="M 56.203125 29.59375 
L 56.203125 25.203125 
L 14.890625 25.203125 
Q 15.484375 15.921875 20.484375 11.0625 
Q 25.484375 6.203125 34.421875 6.203125 
Q 39.59375 6.203125 44.453125 7.46875 
Q 49.3125 8.734375 54.109375 11.28125 
L 54.109375 2.78125 
Q 49.265625 0.734375 44.1875 -0.34375 
Q 39.109375 -1.421875 33.890625 -1.421875 
Q 20.796875 -1.421875 13.15625 6.1875 
Q 5.515625 13.8125 5.515625 26.8125 
Q 5.515625 40.234375 12.765625 48.109375 
Q 20.015625 56 32.328125 56 
Q 43.359375 56 49.78125 48.890625 
Q 56.203125 41.796875 56.203125 29.59375 
z
M 47.21875 32.234375 
Q 47.125 39.59375 43.09375 43.984375 
Q 39.0625 48.390625 32.421875 48.390625 
Q 24.90625 48.390625 20.390625 44.140625 
Q 15.875 39.890625 15.1875 32.171875 
z
" id="DejaVuSans-101"/>
      <path id="DejaVuSans-32"/>
      <path d="M 8.59375 75.984375 
L 29.296875 75.984375 
L 29.296875 69 
L 17.578125 69 
L 17.578125 -6.203125 
L 29.296875 -6.203125 
L 29.296875 -13.1875 
L 8.59375 -13.1875 
z
" id="DejaVuSans-91"/>
      <path d="M 44.28125 53.078125 
L 44.28125 44.578125 
Q 40.484375 46.53125 36.375 47.5 
Q 32.28125 48.484375 27.875 48.484375 
Q 21.1875 48.484375 17.84375 46.4375 
Q 14.5 44.390625 14.5 40.28125 
Q 14.5 37.15625 16.890625 35.375 
Q 19.28125 33.59375 26.515625 31.984375 
L 29.59375 31.296875 
Q 39.15625 29.25 43.1875 25.515625 
Q 47.21875 21.78125 47.21875 15.09375 
Q 47.21875 7.46875 41.1875 3.015625 
Q 35.15625 -1.421875 24.609375 -1.421875 
Q 20.21875 -1.421875 15.453125 -0.5625 
Q 10.6875 0.296875 5.421875 2 
L 5.421875 11.28125 
Q 10.40625 8.6875 15.234375 7.390625 
Q 20.0625 6.109375 24.8125 6.109375 
Q 31.15625 6.109375 34.5625 8.28125 
Q 37.984375 10.453125 37.984375 14.40625 
Q 37.984375 18.0625 35.515625 20.015625 
Q 33.0625 21.96875 24.703125 23.78125 
L 21.578125 24.515625 
Q 13.234375 26.265625 9.515625 29.90625 
Q 5.8125 33.546875 5.8125 39.890625 
Q 5.8125 47.609375 11.28125 51.796875 
Q 16.75 56 26.8125 56 
Q 31.78125 56 36.171875 55.265625 
Q 40.578125 54.546875 44.28125 53.078125 
z
" id="DejaVuSans-115"/>
      <path d="M 30.421875 75.984375 
L 30.421875 -13.1875 
L 9.71875 -13.1875 
L 9.71875 -6.203125 
L 21.390625 -6.203125 
L 21.390625 69 
L 9.71875 69 
L 9.71875 75.984375 
z
" id="DejaVuSans-93"/>
     </defs>
     <g transform="translate(234.038281 412.756563)scale(0.1 -0.1)">
      <use xlink:href="#DejaVuSans-116"/>
      <use x="39.208984" xlink:href="#DejaVuSans-105"/>
      <use x="66.992188" xlink:href="#DejaVuSans-109"/>
      <use x="164.404297" xlink:href="#DejaVuSans-101"/>
      <use x="225.927734" xlink:href="#DejaVuSans-32"/>
      <use x="257.714844" xlink:href="#DejaVuSans-91"/>
      <use x="296.728516" xlink:href="#DejaVuSans-109"/>
      <use x="394.140625" xlink:href="#DejaVuSans-115"/>
      <use x="446.240234" xlink:href="#DejaVuSans-93"/>
     </g>
    </g>
   </g>
   <g id="matplotlib.axis_2">
    <g id="ytick_1">
     <g id="line2d_6">
      <defs>
       <path d="M 0 0 
L -3.5 0 
" id="m41c76347eb" style="stroke:#000000;stroke-width:0.8;"/>
      </defs>
      <g>
       <use style="stroke:#000000;stroke-width:0.8;" x="63" xlink:href="#m41c76347eb" y="381.97746"/>
      </g>
     </g>
     <g id="text_7">
      <!-- −80 -->
      <defs>
       <path d="M 10.59375 35.5 
L 73.1875 35.5 
L 73.1875 27.203125 
L 10.59375 27.203125 
z
" id="DejaVuSans-8722"/>
      </defs>
      <g transform="translate(34.895313 385.776678)scale(0.1 -0.1)">
       <use xlink:href="#DejaVuSans-8722"/>
       <use x="83.789062" xlink:href="#DejaVuSans-56"/>
       <use x="147.412109" xlink:href="#DejaVuSans-48"/>
      </g>
     </g>
    </g>
    <g id="ytick_2">
     <g id="line2d_7">
      <g>
       <use style="stroke:#000000;stroke-width:0.8;" x="63" xlink:href="#m41c76347eb" y="329.539038"/>
      </g>
     </g>
     <g id="text_8">
      <!-- −60 -->
      <g transform="translate(34.895313 333.338257)scale(0.1 -0.1)">
       <use xlink:href="#DejaVuSans-8722"/>
       <use x="83.789062" xlink:href="#DejaVuSans-54"/>
       <use x="147.412109" xlink:href="#DejaVuSans-48"/>
      </g>
     </g>
    </g>
    <g id="ytick_3">
     <g id="line2d_8">
      <g>
       <use style="stroke:#000000;stroke-width:0.8;" x="63" xlink:href="#m41c76347eb" y="277.100617"/>
      </g>
     </g>
     <g id="text_9">
      <!-- −40 -->
      <g transform="translate(34.895313 280.899836)scale(0.1 -0.1)">
       <use xlink:href="#DejaVuSans-8722"/>
       <use x="83.789062" xlink:href="#DejaVuSans-52"/>
       <use x="147.412109" xlink:href="#DejaVuSans-48"/>
      </g>
     </g>
    </g>
    <g id="ytick_4">
     <g id="line2d_9">
      <g>
       <use style="stroke:#000000;stroke-width:0.8;" x="63" xlink:href="#m41c76347eb" y="224.662196"/>
      </g>
     </g>
     <g id="text_10">
      <!-- −20 -->
      <g transform="translate(34.895313 228.461415)scale(0.1 -0.1)">
       <use xlink:href="#DejaVuSans-8722"/>
       <use x="83.789062" xlink:href="#DejaVuSans-50"/>
       <use x="147.412109" xlink:href="#DejaVuSans-48"/>
      </g>
     </g>
    </g>
    <g id="ytick_5">
     <g id="line2d_10">
      <g>
       <use style="stroke:#000000;stroke-width:0.8;" x="63" xlink:href="#m41c76347eb" y="172.223775"/>
      </g>
     </g>
     <g id="text_11">
      <!-- 0 -->
      <g transform="translate(49.6375 176.022994)scale(0.1 -0.1)">
       <use xlink:href="#DejaVuSans-48"/>
      </g>
     </g>
    </g>
    <g id="ytick_6">
     <g id="line2d_11">
      <g>
       <use style="stroke:#000000;stroke-width:0.8;" x="63" xlink:href="#m41c76347eb" y="119.785354"/>
      </g>
     </g>
     <g id="text_12">
      <!-- 20 -->
      <g transform="translate(43.275 123.584573)scale(0.1 -0.1)">
       <use xlink:href="#DejaVuSans-50"/>
       <use x="63.623047" xlink:href="#DejaVuSans-48"/>
      </g>
     </g>
    </g>
    <g id="ytick_7">
     <g id="line2d_12">
      <g>
       <use style="stroke:#000000;stroke-width:0.8;" x="63" xlink:href="#m41c76347eb" y="67.346933"/>
      </g>
     </g>
     <g id="text_13">
      <!-- 40 -->
      <g transform="translate(43.275 71.146151)scale(0.1 -0.1)">
       <use xlink:href="#DejaVuSans-52"/>
       <use x="63.623047" xlink:href="#DejaVuSans-48"/>
      </g>
     </g>
    </g>
    <g id="text_14">
     <!-- voltage [mV] -->
     <defs>
      <path d="M 2.984375 54.6875 
L 12.5 54.6875 
L 29.59375 8.796875 
L 46.6875 54.6875 
L 56.203125 54.6875 
L 35.6875 0 
L 23.484375 0 
z
" id="DejaVuSans-118"/>
      <path d="M 30.609375 48.390625 
Q 23.390625 48.390625 19.1875 42.75 
Q 14.984375 37.109375 14.984375 27.296875 
Q 14.984375 17.484375 19.15625 11.84375 
Q 23.34375 6.203125 30.609375 6.203125 
Q 37.796875 6.203125 41.984375 11.859375 
Q 46.1875 17.53125 46.1875 27.296875 
Q 46.1875 37.015625 41.984375 42.703125 
Q 37.796875 48.390625 30.609375 48.390625 
z
M 30.609375 56 
Q 42.328125 56 49.015625 48.375 
Q 55.71875 40.765625 55.71875 27.296875 
Q 55.71875 13.875 49.015625 6.21875 
Q 42.328125 -1.421875 30.609375 -1.421875 
Q 18.84375 -1.421875 12.171875 6.21875 
Q 5.515625 13.875 5.515625 27.296875 
Q 5.515625 40.765625 12.171875 48.375 
Q 18.84375 56 30.609375 56 
z
" id="DejaVuSans-111"/>
      <path d="M 9.421875 75.984375 
L 18.40625 75.984375 
L 18.40625 0 
L 9.421875 0 
z
" id="DejaVuSans-108"/>
      <path d="M 34.28125 27.484375 
Q 23.390625 27.484375 19.1875 25 
Q 14.984375 22.515625 14.984375 16.5 
Q 14.984375 11.71875 18.140625 8.90625 
Q 21.296875 6.109375 26.703125 6.109375 
Q 34.1875 6.109375 38.703125 11.40625 
Q 43.21875 16.703125 43.21875 25.484375 
L 43.21875 27.484375 
z
M 52.203125 31.203125 
L 52.203125 0 
L 43.21875 0 
L 43.21875 8.296875 
Q 40.140625 3.328125 35.546875 0.953125 
Q 30.953125 -1.421875 24.3125 -1.421875 
Q 15.921875 -1.421875 10.953125 3.296875 
Q 6 8.015625 6 15.921875 
Q 6 25.140625 12.171875 29.828125 
Q 18.359375 34.515625 30.609375 34.515625 
L 43.21875 34.515625 
L 43.21875 35.40625 
Q 43.21875 41.609375 39.140625 45 
Q 35.0625 48.390625 27.6875 48.390625 
Q 23 48.390625 18.546875 47.265625 
Q 14.109375 46.140625 10.015625 43.890625 
L 10.015625 52.203125 
Q 14.9375 54.109375 19.578125 55.046875 
Q 24.21875 56 28.609375 56 
Q 40.484375 56 46.34375 49.84375 
Q 52.203125 43.703125 52.203125 31.203125 
z
" id="DejaVuSans-97"/>
      <path d="M 45.40625 27.984375 
Q 45.40625 37.75 41.375 43.109375 
Q 37.359375 48.484375 30.078125 48.484375 
Q 22.859375 48.484375 18.828125 43.109375 
Q 14.796875 37.75 14.796875 27.984375 
Q 14.796875 18.265625 18.828125 12.890625 
Q 22.859375 7.515625 30.078125 7.515625 
Q 37.359375 7.515625 41.375 12.890625 
Q 45.40625 18.265625 45.40625 27.984375 
z
M 54.390625 6.78125 
Q 54.390625 -7.171875 48.1875 -13.984375 
Q 42 -20.796875 29.203125 -20.796875 
Q 24.46875 -20.796875 20.265625 -20.09375 
Q 16.0625 -19.390625 12.109375 -17.921875 
L 12.109375 -9.1875 
Q 16.0625 -11.328125 19.921875 -12.34375 
Q 23.78125 -13.375 27.78125 -13.375 
Q 36.625 -13.375 41.015625 -8.765625 
Q 45.40625 -4.15625 45.40625 5.171875 
L 45.40625 9.625 
Q 42.625 4.78125 38.28125 2.390625 
Q 33.9375 0 27.875 0 
Q 17.828125 0 11.671875 7.65625 
Q 5.515625 15.328125 5.515625 27.984375 
Q 5.515625 40.671875 11.671875 48.328125 
Q 17.828125 56 27.875 56 
Q 33.9375 56 38.28125 53.609375 
Q 42.625 51.21875 45.40625 46.390625 
L 45.40625 54.6875 
L 54.390625 54.6875 
z
" id="DejaVuSans-103"/>
      <path d="M 28.609375 0 
L 0.78125 72.90625 
L 11.078125 72.90625 
L 34.1875 11.53125 
L 57.328125 72.90625 
L 67.578125 72.90625 
L 39.796875 0 
z
" id="DejaVuSans-86"/>
     </defs>
     <g transform="translate(28.815625 250.624062)rotate(-90)scale(0.1 -0.1)">
      <use xlink:href="#DejaVuSans-118"/>
      <use x="59.179688" xlink:href="#DejaVuSans-111"/>
      <use x="120.361328" xlink:href="#DejaVuSans-108"/>
      <use x="148.144531" xlink:href="#DejaVuSans-116"/>
      <use x="187.353516" xlink:href="#DejaVuSans-97"/>
      <use x="248.632812" xlink:href="#DejaVuSans-103"/>
      <use x="312.109375" xlink:href="#DejaVuSans-101"/>
      <use x="373.632812" xlink:href="#DejaVuSans-32"/>
      <use x="405.419922" xlink:href="#DejaVuSans-91"/>
      <use x="444.433594" xlink:href="#DejaVuSans-109"/>
      <use x="541.845703" xlink:href="#DejaVuSans-86"/>
      <use x="610.253906" xlink:href="#DejaVuSans-93"/>
     </g>
    </g>
   </g>
   <g id="line2d_13">
    <path clip-path="url(#paa90321fbe)" d="M 80.754545 342.648644 
L 81.961855 342.512304 
L 83.772818 342.569462 
L 85.974382 342.588339 
L 151.772727 342.579687 
L 152.314241 298.107187 
L 152.420768 249.527447 
L 152.562805 68.19696 
L 152.678209 93.385755 
L 153.565936 369.105925 
L 153.610323 369.005505 
L 153.8145 367.62821 
L 154.293873 362.879911 
L 154.959668 353.768997 
L 157.42755 314.922091 
L 157.613973 303.807505 
L 157.738255 281.867008 
L 157.835905 219.381909 
L 157.969064 92.530222 
L 158.031205 105.66762 
L 158.883423 368.68196 
L 158.945564 368.498688 
L 159.203005 366.521759 
L 159.717886 360.855263 
L 160.534595 348.941779 
L 161.8218 330.83217 
L 162.514227 320.477417 
L 162.771668 312.965351 
L 162.940336 300.987629 
L 163.064618 273.053158 
L 163.162268 188.750084 
L 163.268795 93.449468 
L 163.322059 102.951834 
L 163.863573 297.829263 
L 164.147645 368.505505 
L 164.183155 368.650235 
L 164.245295 368.46906 
L 164.493859 366.567643 
L 165.008741 360.920812 
L 165.834327 348.884359 
L 167.112655 330.906632 
L 167.813959 320.442021 
L 168.0714 312.920254 
L 168.240068 300.903203 
L 168.36435 272.807222 
L 168.462 188.005328 
L 168.568527 93.52629 
L 168.621791 103.173649 
L 169.172182 301.776565 
L 169.4385 368.419768 
L 169.482886 368.648137 
L 169.545027 368.46303 
L 169.802468 366.477973 
L 170.31735 360.793648 
L 171.151814 348.595685 
L 172.430141 330.664105 
L 173.113691 320.423668 
L 173.371132 312.883809 
L 173.5398 300.807503 
L 173.664082 272.469518 
L 173.761732 186.855327 
L 173.868259 93.54307 
L 173.921523 103.409359 
L 174.480791 305.843165 
L 174.729355 368.310434 
L 174.782618 368.648137 
L 174.844759 368.458835 
L 175.1022 366.470632 
L 175.617082 360.782898 
L 176.451545 348.582838 
L 177.729873 330.653355 
L 178.413423 320.406887 
L 178.670864 312.847889 
L 178.839532 300.710492 
L 178.963814 272.1229 
L 179.061464 185.671661 
L 179.167991 93.560375 
L 179.221255 103.647692 
L 179.7894 310.012806 
L 180.029086 368.322757 
L 180.08235 368.648399 
L 180.144491 368.454377 
L 180.401932 366.46329 
L 180.916814 360.772411 
L 181.751277 348.570515 
L 183.029605 330.642867 
L 183.713155 320.389845 
L 183.970595 312.811706 
L 184.139264 300.612432 
L 184.263545 271.768154 
L 184.361195 184.467176 
L 184.467723 93.584235 
L 184.520986 103.889695 
L 185.098009 314.274214 
L 185.328818 368.334818 
L 185.382082 368.648399 
L 185.444223 368.450182 
L 185.701664 366.455687 
L 186.216545 360.761923 
L 187.051009 348.557929 
L 188.329336 330.632379 
L 189.012886 320.373065 
L 189.270327 312.775262 
L 189.438995 300.512799 
L 189.563277 271.408164 
L 189.660927 183.257894 
L 189.767455 93.613862 
L 189.820718 104.134058 
L 190.406618 318.607725 
L 190.619673 368.2011 
L 190.681814 368.648137 
L 190.743955 368.445725 
L 191.010273 366.367066 
L 191.525155 360.636595 
L 192.368495 348.272664 
L 193.637945 330.506527 
L 194.312618 320.35576 
L 194.570059 312.738817 
L 194.738727 300.412642 
L 194.863009 271.044766 
L 194.969536 168.69952 
L 195.058309 93.60049 
L 195.12045 104.381043 
L 195.715227 322.987382 
L 195.919405 368.216569 
L 195.981545 368.648137 
L 196.043686 368.441268 
L 196.310005 366.359462 
L 196.833764 360.510743 
L 197.703736 347.715506 
L 198.955432 330.265573 
L 199.61235 320.338717 
L 199.869791 312.701848 
L 200.038459 300.311436 
L 200.162741 270.674027 
L 200.269268 167.437563 
L 200.358041 93.571125 
L 200.420182 104.632223 
L 201.023836 327.376216 
L 201.219136 368.231252 
L 201.281277 368.647613 
L 201.343418 368.43681 
L 201.609736 366.351859 
L 202.133495 360.499731 
L 202.994591 347.838736 
L 204.255164 330.254823 
L 204.912082 320.321151 
L 205.169523 312.664354 
L 205.338191 300.208656 
L 205.462473 270.295683 
L 205.569 166.167137 
L 205.657773 93.548839 
L 205.719914 104.885239 
L 206.332445 331.726245 
L 206.518868 368.245935 
L 206.581009 368.647351 
L 206.634273 368.478761 
L 206.873959 366.665703 
L 207.388841 361.06056 
L 208.187795 349.46223 
L 209.510509 330.81906 
L 210.202936 320.487905 
L 210.460377 313.0191 
L 210.629045 301.170901 
L 210.753327 273.759241 
L 210.850977 191.307873 
L 210.957505 93.533631 
L 211.019645 105.139303 
L 211.641055 335.983458 
L 211.827477 368.391451 
L 211.880741 368.646826 
L 211.934005 368.474566 
L 212.182568 366.578655 
L 212.69745 360.936543 
L 213.514159 349.039838 
L 214.810241 330.80831 
L 215.502668 320.470862 
L 215.760109 312.98318 
L 215.928777 301.074677 
L 216.053059 273.420227 
L 216.150709 190.130106 
L 216.257236 93.527339 
L 216.319377 105.392843 
L 216.949664 340.084405 
L 217.127209 368.401939 
L 217.171595 368.647351 
L 217.233736 368.470371 
L 217.4823 366.571314 
L 217.997182 360.926055 
L 218.822768 348.890651 
L 220.101095 330.912401 
L 220.8024 320.45382 
L 221.059841 312.947522 
L 221.228509 300.978715 
L 221.352791 273.079901 
L 221.450441 188.952916 
L 221.556968 93.527863 
L 221.610232 102.988803 
L 222.151745 297.884585 
L 222.426941 368.411902 
L 222.471327 368.647613 
L 222.533468 368.466176 
L 222.782032 366.563972 
L 223.296914 360.915568 
L 224.1225 348.877804 
L 225.418582 330.672233 
L 226.111009 320.251932 
L 226.36845 312.515167 
L 226.537118 299.795704 
L 226.652523 272.736954 
L 226.750173 187.771033 
L 226.8567 93.533894 
L 226.909964 103.226087 
L 227.460355 301.851814 
L 227.726673 368.421603 
L 227.771059 368.648137 
L 227.8332 368.461981 
L 228.090641 366.476138 
L 228.605523 360.791026 
L 229.439986 348.592539 
L 230.718314 330.661483 
L 231.401864 320.419735 
L 231.659305 312.875419 
L 231.827973 300.785479 
L 231.952255 272.391647 
L 232.049905 186.58894 
L 232.156432 93.546741 
L 232.209695 103.463109 
L 232.768964 305.92156 
L 233.017527 368.313318 
L 233.070791 368.648137 
L 233.132932 368.457786 
L 233.390373 366.468796 
L 233.905255 360.780539 
L 234.739718 348.579953 
L 236.018045 330.650995 
L 236.701595 320.402954 
L 236.959036 312.839761 
L 237.127705 300.688468 
L 237.251986 272.043194 
L 237.349636 185.400082 
L 237.456164 93.565095 
L 237.509427 103.70249 
L 238.077573 310.093561 
L 238.317259 368.325379 
L 238.370523 368.648399 
L 238.432664 368.453591 
L 238.690105 366.461455 
L 239.204986 360.770051 
L 240.03945 348.56763 
L 241.317777 330.640507 
L 242.001327 320.386174 
L 242.258768 312.803578 
L 242.427436 300.589884 
L 242.551718 271.686612 
L 242.649368 184.192792 
L 242.755895 93.590527 
L 242.809159 103.945018 
L 243.386182 314.356805 
L 243.616991 368.33744 
L 243.670255 368.648399 
L 243.732395 368.449133 
L 243.989836 366.454114 
L 244.504718 360.759563 
L 245.348059 348.418705 
L 246.617509 330.629758 
L 247.301059 320.369132 
L 247.5585 312.767134 
L 247.727168 300.489988 
L 247.85145 271.326098 
L 247.9491 182.98233 
L 248.055627 93.621728 
L 248.108891 104.189905 
L 248.694791 318.692151 
L 248.907845 368.20477 
L 248.969986 368.648137 
L 249.032127 368.444938 
L 249.298445 366.365493 
L 249.822205 360.519133 
L 250.692177 347.725469 
L 251.943873 330.273963 
L 252.600791 320.351827 
L 252.858232 312.730427 
L 253.0269 300.389569 
L 253.151182 270.960865 
L 253.257709 168.41221 
L 253.346482 93.593149 
L 253.408623 104.438201 
L 254.0034 323.073381 
L 254.207577 368.219978 
L 254.269718 368.647875 
L 254.331859 368.440481 
L 254.598177 366.357889 
L 255.121936 360.508121 
L 255.983032 347.8487 
L 257.22585 330.493418 
L 257.900523 320.334785 
L 258.157964 312.693458 
L 258.326632 300.288101 
L 258.450914 270.58829 
L 258.557441 167.147657 
L 258.646214 93.565357 
L 258.708355 104.690168 
L 259.312009 327.462215 
L 259.507309 368.23466 
L 259.56945 368.647613 
L 259.631591 368.435762 
L 259.897909 366.350023 
L 260.421668 360.497371 
L 261.291641 347.700037 
L 262.525582 330.482668 
L 263.200255 320.317218 
L 263.457695 312.655964 
L 263.626364 300.185059 
L 263.750645 270.208636 
L 263.857173 165.876707 
L 263.945945 93.544644 
L 264.008086 104.943183 
L 264.620618 331.810933 
L 264.807041 368.249343 
L 264.869182 368.647088 
L 264.922445 368.477975 
L 265.171009 366.584423 
L 265.685891 360.944933 
L 266.511477 348.9132 
L 267.807559 330.70186 
L 268.499986 320.299913 
L 268.757427 312.618471 
L 268.926095 300.082018 
L 269.050377 269.828981 
L 269.156905 164.615222 
L 269.245677 93.531534 
L 269.298941 102.570607 
L 269.8227 290.333191 
L 270.133405 368.560041 
L 270.168914 368.646826 
L 270.222177 368.47378 
L 270.470741 366.577082 
L 270.985623 360.934183 
L 271.802332 349.036954 
L 273.098414 330.805951 
L 273.790841 320.466929 
L 274.048282 312.975052 
L 274.21695 301.052915 
L 274.341232 273.342618 
L 274.438882 189.860678 
L 274.545409 93.527077 
L 274.598673 102.806317 
L 275.131309 294.09591 
L 275.424259 368.498163 
L 275.459768 368.647351 
L 275.521909 368.469584 
L 275.770473 366.56974 
L 276.285355 360.923696 
L 277.110941 348.887767 
L 278.389268 330.910041 
L 279.090573 320.449887 
L 279.348014 312.939132 
L 279.516682 300.95669 
L 279.640964 273.001768 
L 279.738614 188.683383 
L 279.845141 93.528388 
L 279.898405 103.043077 
L 280.439918 297.960359 
L 280.715114 368.414 
L 280.7595 368.647875 
L 280.821641 368.465389 
L 281.079082 366.481906 
L 281.593964 360.799154 
L 282.428427 348.60224 
L 283.706755 330.669611 
L 284.390305 320.432844 
L 284.647745 312.903211 
L 284.816414 300.860204 
L 284.940695 272.658296 
L 285.038345 187.501394 
L 285.144873 93.536253 
L 285.198136 103.280099 
L 285.748527 301.928637 
L 286.014845 368.423701 
L 286.059232 368.648137 
L 286.121373 368.460932 
L 286.378814 366.474565 
L 286.893695 360.788667 
L 287.728159 348.589655 
L 289.006486 330.659123 
L 289.690036 320.416064 
L 289.947477 312.867291 
L 290.116145 300.763455 
L 290.240427 272.312465 
L 290.338077 186.31841 
L 290.444605 93.550412 
L 290.497868 103.517382 
L 291.057136 306.000742 
L 291.3057 368.316202 
L 291.358964 368.648399 
L 291.421105 368.456737 
L 291.678545 366.467223 
L 292.193427 360.778179 
L 293.027891 348.577069 
L 294.315095 330.533533 
L 294.989768 320.399022 
L 295.247209 312.831371 
L 295.415877 300.666182 
L 295.540159 271.962439 
L 295.637809 185.125645 
L 295.744336 93.570338 
L 295.7976 103.75755 
L 296.365745 310.17484 
L 296.605432 368.328263 
L 296.658695 368.648399 
L 296.720836 368.452542 
L 296.978277 366.459882 
L 297.493159 360.767691 
L 298.327623 348.564746 
L 299.60595 330.638148 
L 300.2895 320.382241 
L 300.546941 312.795188 
L 300.715609 300.567073 
L 300.839891 271.604809 
L 300.937541 183.918015 
L 301.044068 93.597082 
L 301.097332 104.00034 
L 301.674355 314.439395 
L 301.905164 368.340062 
L 301.958427 368.648399 
L 302.020568 368.448347 
L 302.286886 366.371261 
L 302.810645 360.527261 
L 303.671741 347.871248 
L 304.914559 330.512558 
L 305.589232 320.365199 
L 305.846673 312.758744 
L 306.015341 300.46744 
L 306.139623 271.24377 
L 306.24615 169.382792 
L 306.334923 93.619106 
L 306.397064 104.246014 
L 306.982964 318.776577 
L 307.196018 368.208179 
L 307.258159 368.648137 
L 307.3203 368.44389 
L 307.586618 366.363657 
L 308.110377 360.516511 
L 308.971473 347.858663 
L 310.214291 330.501808 
L 310.888964 320.348156 
L 311.146405 312.722037 
L 311.315073 300.366758 
L 311.439355 270.876701 
L 311.545882 168.125922 
L 311.634655 93.586332 
L 311.696795 104.495097 
L 312.291573 323.158856 
L 312.49575 368.223386 
L 312.557891 368.647875 
L 312.620032 368.439432 
L 312.88635 366.356054 
L 313.410109 360.505761 
L 314.280082 347.709738 
L 315.531777 330.260591 
L 316.188695 320.330589 
L 316.446136 312.684805 
L 316.614805 300.264765 
L 316.739086 270.502815 
L 316.845614 166.858853 
L 316.934386 93.560113 
L 316.996527 104.747588 
L 317.600182 327.547952 
L 317.795482 368.238069 
L 317.857623 368.647613 
L 317.910886 368.481121 
L 318.150573 366.669636 
L 318.665455 361.066328 
L 319.464409 349.469047 
L 320.787123 330.825091 
L 321.488427 320.313285 
L 321.745868 312.647312 
L 321.914536 300.161462 
L 322.038818 270.12185 
L 322.145345 165.587667 
L 322.234118 93.540973 
L 322.296259 105.001128 
L 322.908791 331.895359 
L 323.095214 368.252752 
L 323.157355 368.647088 
L 323.210618 368.476926 
L 323.459182 366.58285 
L 323.974064 360.942311 
L 324.790773 349.046655 
L 326.095732 330.699238 
L 326.779282 320.480039 
L 327.036723 313.002844 
L 327.205391 301.127115 
L 327.329673 273.60481 
L 327.427323 190.770904 
L 327.53385 93.529699 
L 327.595991 105.25493 
L 328.2174 336.146542 
L 328.403823 368.396171 
L 328.457086 368.646564 
L 328.51035 368.472731 
L 328.758914 366.575246 
L 329.273795 360.931824 
L 329.318182 360.357361 
L 329.335936 361.257728 
L 329.531236 365.25039 
L 329.620009 365.438381 
L 329.664395 365.380961 
L 329.815309 364.773725 
L 330.214786 361.954897 
L 332.176664 347.187976 
L 332.869091 343.963799 
L 333.428359 342.30727 
L 333.889977 341.563693 
L 334.262823 341.336634 
L 334.609036 341.373341 
L 335.061777 341.662539 
L 336.553159 342.753258 
L 337.156814 342.850007 
L 338.097805 342.739887 
L 339.580309 342.54534 
L 342.101455 342.581522 
L 345.723382 342.57759 
L 435.845455 342.579687 
L 435.845455 342.579687 
" style="fill:none;stroke:#1f77b4;stroke-linecap:square;stroke-width:1.5;"/>
   </g>
   <g id="line2d_14">
    <path clip-path="url(#paa90321fbe)" d="M 80.754545 342.648644 
L 81.251673 343.754742 
L 81.704414 344.288233 
L 82.112768 344.445372 
L 82.574386 344.37199 
L 83.40885 343.957805 
L 84.420859 343.54238 
L 85.273077 343.444527 
L 86.72895 343.554784 
L 88.699705 343.620109 
L 99.893945 343.593824 
L 151.772727 343.593784 
L 152.314241 299.091032 
L 152.420768 252.207346 
L 152.571682 66.96 
L 152.687086 94.246854 
L 153.574814 369.36 
L 153.601445 369.317659 
L 153.743482 368.51847 
L 154.187345 364.609873 
L 154.773245 357.273206 
L 157.250005 320.433777 
L 157.498568 312.416032 
L 157.658359 299.606769 
L 157.773764 270.759513 
L 157.871414 178.530122 
L 157.969064 91.638835 
L 158.022327 100.669853 
L 158.537209 285.236554 
L 158.865668 368.876161 
L 158.8923 368.942194 
L 158.945564 368.802179 
L 159.176373 367.161106 
L 159.6735 362.022115 
L 160.392559 351.915832 
L 162.025977 328.663992 
L 162.558614 319.928115 
L 162.807177 311.724594 
L 162.966968 298.213825 
L 163.082373 266.643665 
L 163.1889 153.357835 
L 163.268795 92.660758 
L 163.330936 103.925115 
L 163.934591 327.397825 
L 164.129891 368.477543 
L 164.192032 368.911449 
L 164.254173 368.719777 
L 164.520491 366.725883 
L 165.035373 361.177249 
L 165.82545 349.782726 
L 167.245814 329.668192 
L 167.831714 320.427916 
L 168.089155 312.429807 
L 168.257823 299.013946 
L 168.373227 269.498748 
L 168.479755 162.41172 
L 168.568527 92.700376 
L 168.621791 102.232377 
L 169.163305 297.742973 
L 169.447377 368.752069 
L 169.491764 368.908236 
L 169.545027 368.74594 
L 169.784714 367.004666 
L 170.290718 361.688133 
L 171.036409 351.091966 
L 172.5633 329.38538 
L 173.140323 320.161761 
L 173.388886 312.273878 
L 173.557555 298.568411 
L 173.672959 267.951285 
L 173.779486 157.470912 
L 173.868259 92.76972 
L 173.921523 103.188618 
L 174.498545 314.260009 
L 174.729355 368.580452 
L 174.782618 368.908979 
L 174.844759 368.72987 
L 175.1022 366.822723 
L 175.608205 361.427094 
L 176.37165 350.497293 
L 177.845277 329.57916 
L 178.431177 320.285179 
L 178.679741 312.54075 
L 178.848409 299.333678 
L 178.963814 270.602277 
L 179.070341 166.094094 
L 179.159114 92.726025 
L 179.221255 104.168473 
L 179.833786 331.758775 
L 180.020209 368.488964 
L 180.08235 368.908936 
L 180.144491 368.713462 
L 180.410809 366.716171 
L 180.925691 361.163389 
L 181.715768 349.765893 
L 183.136132 329.654298 
L 183.722032 320.407552 
L 183.979473 312.38742 
L 184.148141 298.895356 
L 184.263545 269.092309 
L 184.370073 161.097751 
L 184.458845 92.713288 
L 184.512109 102.488455 
L 185.071377 305.48286 
L 185.328818 368.667745 
L 185.382082 368.907538 
L 185.435345 368.741513 
L 185.683909 366.920476 
L 186.189914 361.567078 
L 186.944482 350.805984 
L 188.444741 329.49216 
L 189.021764 320.336854 
L 189.270327 312.651375 
L 189.438995 299.644693 
L 189.5544 271.654461 
L 189.65205 183.135763 
L 189.7497 92.803223 
L 189.811841 103.451861 
L 190.397741 318.637564 
L 190.610795 368.445861 
L 190.672936 368.909144 
L 190.735077 368.725488 
L 190.992518 366.815043 
L 191.498523 361.416122 
L 192.261968 350.483811 
L 193.735595 329.567404 
L 194.321495 320.265929 
L 194.570059 312.499297 
L 194.738727 299.215759 
L 194.854132 270.198145 
L 194.960659 164.734927 
L 195.049432 92.710718 
L 195.102695 101.801208 
L 195.626455 290.158965 
L 195.937159 368.810249 
L 195.972668 368.908751 
L 196.025932 368.752971 
L 196.265618 367.017324 
L 196.762745 361.81563 
L 197.499559 351.3865 
L 199.061959 329.167194 
L 199.621227 320.194648 
L 199.869791 312.345417 
L 200.038459 298.774642 
L 200.153864 268.672692 
L 200.260391 159.751935 
L 200.349164 92.728566 
L 200.402427 102.746598 
L 200.970573 309.688466 
L 201.210259 368.557846 
L 201.263523 368.908465 
L 201.325664 368.737216 
L 201.574227 366.912858 
L 202.080232 361.556147 
L 202.8348 350.792481 
L 204.335059 329.480391 
L 204.912082 320.317712 
L 205.160645 312.610472 
L 205.329314 299.53009 
L 205.444718 271.268188 
L 205.542368 181.832158 
L 205.640018 92.767391 
L 205.702159 103.715723 
L 206.296936 323.059332 
L 206.501114 368.462271 
L 206.563255 368.909187 
L 206.625395 368.721072 
L 206.882836 366.807362 
L 207.388841 361.405152 
L 208.152286 350.470338 
L 209.625914 329.555669 
L 210.211814 320.246735 
L 210.460377 312.457946 
L 210.629045 299.097542 
L 210.74445 269.791186 
L 210.850977 163.382766 
L 210.93975 92.704989 
L 210.993014 102.054374 
L 211.52565 293.952776 
L 211.8186 368.746265 
L 211.862986 368.9084 
L 211.925127 368.704408 
L 212.191445 366.700587 
L 212.706327 361.141129 
L 213.496405 349.738821 
L 214.916768 329.630771 
L 215.502668 320.369376 
L 215.751232 312.720638 
L 215.9199 299.837905 
L 216.035305 272.303283 
L 216.132955 185.344266 
L 216.239482 92.750261 
L 216.292745 103.007307 
L 216.869768 313.988481 
L 217.100577 368.571309 
L 217.153841 368.908797 
L 217.215982 368.732879 
L 217.464545 366.905242 
L 217.97055 361.545223 
L 218.725118 350.778992 
L 220.225377 329.46862 
L 220.8024 320.298482 
L 221.050964 312.569278 
L 221.219632 299.414292 
L 221.335036 270.876538 
L 221.432686 180.520383 
L 221.530336 92.739897 
L 221.592477 103.983131 
L 222.196132 327.490156 
L 222.391432 368.47819 
L 222.453573 368.909066 
L 222.515714 368.716573 
L 222.782032 366.721547 
L 223.296914 361.171072 
L 224.086991 349.775244 
L 225.507355 329.662423 
L 226.093255 320.420653 
L 226.350695 312.416203 
L 226.519364 298.977927 
L 226.634768 269.378341 
L 226.741295 162.026919 
L 226.830068 92.707182 
L 226.883332 102.31135 
L 227.433723 301.493906 
L 227.700041 368.660336 
L 227.753305 368.907911 
L 227.806568 368.744466 
L 228.055132 366.925738 
L 228.561136 361.57463 
L 229.315705 350.815318 
L 230.815964 329.50029 
L 231.392986 320.350076 
L 231.64155 312.679574 
L 231.810218 299.72343 
L 231.925623 271.919149 
L 232.023273 184.03134 
L 232.1298 92.780034 
L 232.183064 103.271207 
L 232.768964 318.365362 
L 232.990895 368.584524 
L 233.044159 368.909029 
L 233.1063 368.728486 
L 233.363741 366.820299 
L 233.869745 361.423631 
L 234.633191 350.493038 
L 236.106818 329.575453 
L 236.692718 320.279116 
L 236.941282 312.527715 
L 237.10995 299.296701 
L 237.225355 270.476172 
L 237.331882 165.669691 
L 237.420655 92.720656 
L 237.482795 104.253008 
L 238.095327 331.882028 
L 238.28175 368.49384 
L 238.343891 368.908878 
L 238.406032 368.712054 
L 238.67235 366.713734 
L 239.187232 361.159908 
L 239.977309 349.761658 
L 241.397673 329.650617 
L 241.983573 320.401591 
L 242.241014 312.374295 
L 242.409682 298.857658 
L 242.525086 268.961477 
L 242.631614 160.67557 
L 242.720386 92.717419 
L 242.77365 102.569142 
L 243.332918 305.600126 
L 243.590359 368.671062 
L 243.643623 368.907357 
L 243.696886 368.740171 
L 243.94545 366.918091 
L 244.451455 361.563655 
L 245.206023 350.801755 
L 246.706282 329.488476 
L 247.283305 320.330864 
L 247.531868 312.638597 
L 247.700536 299.608988 
L 247.815941 271.534363 
L 247.913591 182.730124 
L 248.011241 92.790885 
L 248.073382 103.533909 
L 248.668159 322.784987 
L 248.872336 368.45105 
L 248.934477 368.909182 
L 248.996618 368.724123 
L 249.254059 366.812657 
L 249.760064 361.412714 
L 250.523509 350.479625 
L 251.997136 329.563756 
L 252.583036 320.259961 
L 252.8316 312.486441 
L 253.000268 299.179079 
L 253.115673 270.072079 
L 253.2222 164.313384 
L 253.310973 92.707818 
L 253.364236 101.879853 
L 253.887995 290.264512 
L 254.1987 368.812129 
L 254.234209 368.908665 
L 254.287473 368.751667 
L 254.527159 367.014973 
L 255.024286 361.812256 
L 255.7611 351.382294 
L 257.3235 329.163504 
L 257.882768 320.188589 
L 258.131332 312.332286 
L 258.3 298.73687 
L 258.415405 268.540867 
L 258.521932 159.331519 
L 258.610705 92.734461 
L 258.663968 102.827756 
L 259.232114 309.808508 
L 259.4718 368.562101 
L 259.525064 368.908586 
L 259.587205 368.735869 
L 259.835768 366.910484 
L 260.341773 361.55274 
L 261.096341 350.788274 
L 262.5966 329.476722 
L 263.173623 320.311735 
L 263.422186 312.59768 
L 263.590855 299.49416 
L 263.706259 271.146731 
L 263.803909 181.423071 
L 263.901559 92.757868 
L 263.9637 103.798958 
L 264.567355 327.215955 
L 264.762655 368.467298 
L 264.824795 368.909163 
L 264.886936 368.71967 
L 265.144377 366.804943 
L 265.650382 361.401697 
L 266.422705 350.329845 
L 267.887455 329.551976 
L 268.473355 320.240692 
L 268.721918 312.444921 
L 268.890586 299.06024 
L 269.005991 269.662525 
L 269.112518 162.959034 
L 269.201291 92.704956 
L 269.254555 102.134383 
L 269.796068 297.606449 
L 270.080141 368.748802 
L 270.124527 368.908254 
L 270.177791 368.74742 
L 270.417477 367.007392 
L 270.923482 361.692063 
L 271.669173 351.096845 
L 273.196064 329.389693 
L 273.773086 320.16904 
L 274.02165 312.289875 
L 274.190318 298.614754 
L 274.305723 268.114167 
L 274.41225 157.98143 
L 274.501023 92.758901 
L 274.554286 103.089359 
L 275.131309 314.111413 
L 275.362118 368.575456 
L 275.415382 368.908878 
L 275.477523 368.731512 
L 275.734964 366.825619 
L 276.240968 361.431233 
L 277.004414 350.502381 
L 278.478041 329.583595 
L 279.063941 320.29245 
L 279.312505 312.556349 
L 279.481173 299.377803 
L 279.596577 270.752497 
L 279.703105 166.601923 
L 279.791877 92.733132 
L 279.854018 104.067296 
L 280.46655 331.611123 
L 280.652973 368.483101 
L 280.715114 368.909007 
L 280.777255 368.715156 
L 281.043573 366.719098 
L 281.558455 361.167572 
L 282.348532 349.770984 
L 283.768895 329.658722 
L 284.354795 320.414693 
L 284.612236 312.403113 
L 284.780905 298.940386 
L 284.896309 269.248345 
L 285.002836 161.603222 
L 285.091609 92.709466 
L 285.144873 102.392124 
L 285.695264 301.609445 
L 285.961582 368.663732 
L 286.014845 368.907742 
L 286.068109 368.743115 
L 286.316673 366.92333 
L 286.822677 361.571174 
L 287.577245 350.811046 
L 289.077505 329.496572 
L 289.654527 320.344029 
L 289.903091 312.666681 
L 290.071759 299.687441 
L 290.187164 271.798193 
L 290.284814 183.622036 
L 290.391341 92.790569 
L 290.444605 103.353704 
L 291.030505 318.489726 
L 291.243559 368.439601 
L 291.3057 368.909087 
L 291.367841 368.727119 
L 291.625282 366.817899 
L 292.131286 361.420202 
L 292.894732 350.488824 
L 294.368359 329.571776 
L 294.954259 320.273089 
L 295.202823 312.514725 
L 295.371491 299.259768 
L 295.486895 270.349356 
L 295.593423 165.242928 
L 295.682195 92.715652 
L 295.744336 104.337905 
L 296.365745 335.916351 
L 296.552168 368.633593 
L 296.605432 368.908824 
L 296.667573 368.710647 
L 296.933891 366.711299 
L 297.448773 361.156429 
L 298.23885 349.757426 
L 299.659214 329.646937 
L 300.245114 320.39562 
L 300.502555 312.361124 
L 300.671223 298.819803 
L 300.786627 268.829996 
L 300.893155 160.254049 
L 300.981927 92.722262 
L 301.035191 102.650071 
L 301.594459 305.7178 
L 301.843023 368.5527 
L 301.896286 368.908299 
L 301.958427 368.738819 
L 302.206991 366.915694 
L 302.712995 361.560215 
L 303.467564 350.797506 
L 304.967823 329.484773 
L 305.544845 320.324845 
L 305.793409 312.625733 
L 305.962077 299.57293 
L 306.077482 271.412941 
L 306.175132 182.320433 
L 306.272782 92.779697 
L 306.334923 103.616728 
L 306.9297 322.91012 
L 307.133877 368.456212 
L 307.196018 368.9092 
L 307.258159 368.72274 
L 307.5156 366.810248 
L 308.021605 361.409273 
L 308.78505 350.475399 
L 310.258677 329.560076 
L 310.844577 320.253943 
L 311.093141 312.473478 
L 311.261809 299.142001 
L 311.377214 269.94439 
L 311.483741 163.888008 
L 311.572514 92.705858 
L 311.625777 101.959406 
L 312.158414 293.823074 
L 312.451364 368.743206 
L 312.49575 368.908556 
L 312.557891 368.70612 
L 312.824209 366.703507 
L 313.339091 361.145299 
L 314.129168 349.74389 
L 315.549532 329.635173 
L 316.135432 320.376539 
L 316.392873 312.319021 
L 316.561541 298.6987 
L 316.676945 268.407606 
L 316.783473 158.907183 
L 316.872245 92.741187 
L 316.925509 102.90974 
L 317.493655 309.929618 
L 317.733341 368.566332 
L 317.786605 368.90869 
L 317.848745 368.734505 
L 318.097309 366.908089 
L 318.603314 361.549306 
L 319.357882 350.784033 
L 320.858141 329.473021 
L 321.435164 320.305683 
L 321.683727 312.584712 
L 321.852395 299.457713 
L 321.9678 271.023472 
L 322.06545 181.010708 
L 322.1631 92.749039 
L 322.225241 103.882976 
L 322.828895 327.341181 
L 323.024195 368.472302 
L 323.086336 368.90913 
L 323.148477 368.718262 
L 323.405918 366.802516 
L 323.911923 361.398233 
L 324.684245 350.325591 
L 326.148995 329.54827 
L 326.734895 320.234621 
L 326.983459 312.431823 
L 327.152127 299.022702 
L 327.267532 269.532949 
L 327.374059 162.533097 
L 327.462832 92.705519 
L 327.516095 102.215063 
L 328.057609 297.719149 
L 328.341682 368.751339 
L 328.386068 368.908105 
L 328.439332 368.746075 
L 328.679018 367.005003 
L 329.185023 361.688621 
L 329.318182 359.987401 
L 329.335936 360.895005 
L 329.540114 365.287839 
L 329.646641 365.580752 
L 329.691027 365.541742 
L 329.833064 365.063829 
L 330.179277 362.894866 
L 332.531755 346.630434 
L 333.170918 344.163588 
L 333.694677 342.923848 
L 334.111909 342.433599 
L 334.475877 342.315031 
L 334.8576 342.43245 
L 335.4435 342.889263 
L 336.446632 343.636279 
L 337.094673 343.831198 
L 337.875873 343.818293 
L 340.956286 343.554882 
L 347.5521 343.593022 
L 435.845455 343.593784 
L 435.845455 343.593784 
" style="fill:none;stroke:#ff0000;stroke-linecap:square;stroke-width:1.5;"/>
   </g>
   <g id="patch_3">
    <path d="M 63 384.48 
L 63 51.84 
" style="fill:none;stroke:#000000;stroke-linecap:square;stroke-linejoin:miter;stroke-width:0.8;"/>
   </g>
   <g id="patch_4">
    <path d="M 453.6 384.48 
L 453.6 51.84 
" style="fill:none;stroke:#000000;stroke-linecap:square;stroke-linejoin:miter;stroke-width:0.8;"/>
   </g>
   <g id="patch_5">
    <path d="M 63 384.48 
L 453.6 384.48 
" style="fill:none;stroke:#000000;stroke-linecap:square;stroke-linejoin:miter;stroke-width:0.8;"/>
   </g>
   <g id="patch_6">
    <path d="M 63 51.84 
L 453.6 51.84 
" style="fill:none;stroke:#000000;stroke-linecap:square;stroke-linejoin:miter;stroke-width:0.8;"/>
   </g>
   <g id="legend_1">
    <g id="patch_7">
     <path d="M 383.460938 89.19625 
L 446.6 89.19625 
Q 448.6 89.19625 448.6 87.19625 
L 448.6 58.84 
Q 448.6 56.84 446.6 56.84 
L 383.460938 56.84 
Q 381.460938 56.84 381.460938 58.84 
L 381.460938 87.19625 
Q 381.460938 89.19625 383.460938 89.19625 
z
" style="fill:#ffffff;opacity:0.8;stroke:#cccccc;stroke-linejoin:miter;"/>
    </g>
    <g id="line2d_15">
     <path d="M 385.460938 64.938437 
L 405.460938 64.938437 
" style="fill:none;stroke:#1f77b4;stroke-linecap:square;stroke-width:1.5;"/>
    </g>
    <g id="line2d_16"/>
    <g id="text_15">
     <!-- target -->
     <defs>
      <path d="M 41.109375 46.296875 
Q 39.59375 47.171875 37.8125 47.578125 
Q 36.03125 48 33.890625 48 
Q 26.265625 48 22.1875 43.046875 
Q 18.109375 38.09375 18.109375 28.8125 
L 18.109375 0 
L 9.078125 0 
L 9.078125 54.6875 
L 18.109375 54.6875 
L 18.109375 46.1875 
Q 20.953125 51.171875 25.484375 53.578125 
Q 30.03125 56 36.53125 56 
Q 37.453125 56 38.578125 55.875 
Q 39.703125 55.765625 41.0625 55.515625 
z
" id="DejaVuSans-114"/>
     </defs>
     <g transform="translate(413.460938 68.438437)scale(0.1 -0.1)">
      <use xlink:href="#DejaVuSans-116"/>
      <use x="39.208984" xlink:href="#DejaVuSans-97"/>
      <use x="100.488281" xlink:href="#DejaVuSans-114"/>
      <use x="141.585938" xlink:href="#DejaVuSans-103"/>
      <use x="205.0625" xlink:href="#DejaVuSans-101"/>
      <use x="266.585938" xlink:href="#DejaVuSans-116"/>
     </g>
    </g>
    <g id="line2d_17">
     <path d="M 385.460938 79.616562 
L 405.460938 79.616562 
" style="fill:none;stroke:#ff0000;stroke-linecap:square;stroke-width:1.5;"/>
    </g>
    <g id="line2d_18"/>
    <g id="text_16">
     <!-- model -->
     <defs>
      <path d="M 45.40625 46.390625 
L 45.40625 75.984375 
L 54.390625 75.984375 
L 54.390625 0 
L 45.40625 0 
L 45.40625 8.203125 
Q 42.578125 3.328125 38.25 0.953125 
Q 33.9375 -1.421875 27.875 -1.421875 
Q 17.96875 -1.421875 11.734375 6.484375 
Q 5.515625 14.40625 5.515625 27.296875 
Q 5.515625 40.1875 11.734375 48.09375 
Q 17.96875 56 27.875 56 
Q 33.9375 56 38.25 53.625 
Q 42.578125 51.265625 45.40625 46.390625 
z
M 14.796875 27.296875 
Q 14.796875 17.390625 18.875 11.75 
Q 22.953125 6.109375 30.078125 6.109375 
Q 37.203125 6.109375 41.296875 11.75 
Q 45.40625 17.390625 45.40625 27.296875 
Q 45.40625 37.203125 41.296875 42.84375 
Q 37.203125 48.484375 30.078125 48.484375 
Q 22.953125 48.484375 18.875 42.84375 
Q 14.796875 37.203125 14.796875 27.296875 
z
" id="DejaVuSans-100"/>
     </defs>
     <g transform="translate(413.460938 83.116562)scale(0.1 -0.1)">
      <use xlink:href="#DejaVuSans-109"/>
      <use x="97.412109" xlink:href="#DejaVuSans-111"/>
      <use x="158.59375" xlink:href="#DejaVuSans-100"/>
      <use x="222.070312" xlink:href="#DejaVuSans-101"/>
      <use x="283.59375" xlink:href="#DejaVuSans-108"/>
     </g>
    </g>
   </g>
  </g>
 </g>
 <defs>
  <clipPath id="paa90321fbe">
   <rect height="332.64" width="390.6" x="63" y="51.84"/>
  </clipPath>
 </defs>
</svg>
