<?xml version="1.0" encoding="utf-8" standalone="no"?>
<!DOCTYPE svg PUBLIC "-//W3C//DTD SVG 1.1//EN"
  "http://www.w3.org/Graphics/SVG/1.1/DTD/svg11.dtd">
<!-- Created with matplotlib (https://matplotlib.org/) -->
<svg height="432pt" version="1.1" viewBox="0 0 504 432" width="504pt" xmlns="http://www.w3.org/2000/svg" xmlns:xlink="http://www.w3.org/1999/xlink">
 <defs>
  <style type="text/css">
*{stroke-linecap:butt;stroke-linejoin:round;}
  </style>
 </defs>
 <g id="figure_1">
  <g id="patch_1">
   <path d="M 0 432 
L 504 432 
L 504 0 
L 0 0 
z
" style="fill:#ffffff;"/>
  </g>
  <g id="axes_1">
   <g id="patch_2">
    <path d="M 63 384.48 
L 453.6 384.48 
L 453.6 51.84 
L 63 51.84 
z
" style="fill:#ffffff;"/>
   </g>
   <g id="matplotlib.axis_1">
    <g id="xtick_1">
     <g id="line2d_1">
      <defs>
       <path d="M 0 0 
L 0 3.5 
" id="m76c35ad1a5" style="stroke:#000000;stroke-width:0.8;"/>
      </defs>
      <g>
       <use style="stroke:#000000;stroke-width:0.8;" x="80.754545" xlink:href="#m76c35ad1a5" y="384.48"/>
      </g>
     </g>
     <g id="text_1">
      <!-- 0 -->
      <defs>
       <path d="M 31.78125 66.40625 
Q 24.171875 66.40625 20.328125 58.90625 
Q 16.5 51.421875 16.5 36.375 
Q 16.5 21.390625 20.328125 13.890625 
Q 24.171875 6.390625 31.78125 6.390625 
Q 39.453125 6.390625 43.28125 13.890625 
Q 47.125 21.390625 47.125 36.375 
Q 47.125 51.421875 43.28125 58.90625 
Q 39.453125 66.40625 31.78125 66.40625 
z
M 31.78125 74.21875 
Q 44.046875 74.21875 50.515625 64.515625 
Q 56.984375 54.828125 56.984375 36.375 
Q 56.984375 17.96875 50.515625 8.265625 
Q 44.046875 -1.421875 31.78125 -1.421875 
Q 19.53125 -1.421875 13.0625 8.265625 
Q 6.59375 17.96875 6.59375 36.375 
Q 6.59375 54.828125 13.0625 64.515625 
Q 19.53125 74.21875 31.78125 74.21875 
z
" id="DejaVuSans-48"/>
      </defs>
      <g transform="translate(77.573295 399.078438)scale(0.1 -0.1)">
       <use xlink:href="#DejaVuSans-48"/>
      </g>
     </g>
    </g>
    <g id="xtick_2">
     <g id="line2d_2">
      <g>
       <use style="stroke:#000000;stroke-width:0.8;" x="151.763044" xlink:href="#m76c35ad1a5" y="384.48"/>
      </g>
     </g>
     <g id="text_2">
      <!-- 880 -->
      <defs>
       <path d="M 31.78125 34.625 
Q 24.75 34.625 20.71875 30.859375 
Q 16.703125 27.09375 16.703125 20.515625 
Q 16.703125 13.921875 20.71875 10.15625 
Q 24.75 6.390625 31.78125 6.390625 
Q 38.8125 6.390625 42.859375 10.171875 
Q 46.921875 13.96875 46.921875 20.515625 
Q 46.921875 27.09375 42.890625 30.859375 
Q 38.875 34.625 31.78125 34.625 
z
M 21.921875 38.8125 
Q 15.578125 40.375 12.03125 44.71875 
Q 8.5 49.078125 8.5 55.328125 
Q 8.5 64.0625 14.71875 69.140625 
Q 20.953125 74.21875 31.78125 74.21875 
Q 42.671875 74.21875 48.875 69.140625 
Q 55.078125 64.0625 55.078125 55.328125 
Q 55.078125 49.078125 51.53125 44.71875 
Q 48 40.375 41.703125 38.8125 
Q 48.828125 37.15625 52.796875 32.3125 
Q 56.78125 27.484375 56.78125 20.515625 
Q 56.78125 9.90625 50.3125 4.234375 
Q 43.84375 -1.421875 31.78125 -1.421875 
Q 19.734375 -1.421875 13.25 4.234375 
Q 6.78125 9.90625 6.78125 20.515625 
Q 6.78125 27.484375 10.78125 32.3125 
Q 14.796875 37.15625 21.921875 38.8125 
z
M 18.3125 54.390625 
Q 18.3125 48.734375 21.84375 45.5625 
Q 25.390625 42.390625 31.78125 42.390625 
Q 38.140625 42.390625 41.71875 45.5625 
Q 45.3125 48.734375 45.3125 54.390625 
Q 45.3125 60.0625 41.71875 63.234375 
Q 38.140625 66.40625 31.78125 66.40625 
Q 25.390625 66.40625 21.84375 63.234375 
Q 18.3125 60.0625 18.3125 54.390625 
z
" id="DejaVuSans-56"/>
      </defs>
      <g transform="translate(142.219294 399.078438)scale(0.1 -0.1)">
       <use xlink:href="#DejaVuSans-56"/>
       <use x="63.623047" xlink:href="#DejaVuSans-56"/>
       <use x="127.246094" xlink:href="#DejaVuSans-48"/>
      </g>
     </g>
    </g>
    <g id="xtick_3">
     <g id="line2d_3">
      <g>
       <use style="stroke:#000000;stroke-width:0.8;" x="222.771543" xlink:href="#m76c35ad1a5" y="384.48"/>
      </g>
     </g>
     <g id="text_3">
      <!-- 1760 -->
      <defs>
       <path d="M 12.40625 8.296875 
L 28.515625 8.296875 
L 28.515625 63.921875 
L 10.984375 60.40625 
L 10.984375 69.390625 
L 28.421875 72.90625 
L 38.28125 72.90625 
L 38.28125 8.296875 
L 54.390625 8.296875 
L 54.390625 0 
L 12.40625 0 
z
" id="DejaVuSans-49"/>
       <path d="M 8.203125 72.90625 
L 55.078125 72.90625 
L 55.078125 68.703125 
L 28.609375 0 
L 18.3125 0 
L 43.21875 64.59375 
L 8.203125 64.59375 
z
" id="DejaVuSans-55"/>
       <path d="M 33.015625 40.375 
Q 26.375 40.375 22.484375 35.828125 
Q 18.609375 31.296875 18.609375 23.390625 
Q 18.609375 15.53125 22.484375 10.953125 
Q 26.375 6.390625 33.015625 6.390625 
Q 39.65625 6.390625 43.53125 10.953125 
Q 47.40625 15.53125 47.40625 23.390625 
Q 47.40625 31.296875 43.53125 35.828125 
Q 39.65625 40.375 33.015625 40.375 
z
M 52.59375 71.296875 
L 52.59375 62.3125 
Q 48.875 64.0625 45.09375 64.984375 
Q 41.3125 65.921875 37.59375 65.921875 
Q 27.828125 65.921875 22.671875 59.328125 
Q 17.53125 52.734375 16.796875 39.40625 
Q 19.671875 43.65625 24.015625 45.921875 
Q 28.375 48.1875 33.59375 48.1875 
Q 44.578125 48.1875 50.953125 41.515625 
Q 57.328125 34.859375 57.328125 23.390625 
Q 57.328125 12.15625 50.6875 5.359375 
Q 44.046875 -1.421875 33.015625 -1.421875 
Q 20.359375 -1.421875 13.671875 8.265625 
Q 6.984375 17.96875 6.984375 36.375 
Q 6.984375 53.65625 15.1875 63.9375 
Q 23.390625 74.21875 37.203125 74.21875 
Q 40.921875 74.21875 44.703125 73.484375 
Q 48.484375 72.75 52.59375 71.296875 
z
" id="DejaVuSans-54"/>
      </defs>
      <g transform="translate(210.046543 399.078438)scale(0.1 -0.1)">
       <use xlink:href="#DejaVuSans-49"/>
       <use x="63.623047" xlink:href="#DejaVuSans-55"/>
       <use x="127.246094" xlink:href="#DejaVuSans-54"/>
       <use x="190.869141" xlink:href="#DejaVuSans-48"/>
      </g>
     </g>
    </g>
    <g id="xtick_4">
     <g id="line2d_4">
      <g>
       <use style="stroke:#000000;stroke-width:0.8;" x="293.780042" xlink:href="#m76c35ad1a5" y="384.48"/>
      </g>
     </g>
     <g id="text_4">
      <!-- 2640 -->
      <defs>
       <path d="M 19.1875 8.296875 
L 53.609375 8.296875 
L 53.609375 0 
L 7.328125 0 
L 7.328125 8.296875 
Q 12.9375 14.109375 22.625 23.890625 
Q 32.328125 33.6875 34.8125 36.53125 
Q 39.546875 41.84375 41.421875 45.53125 
Q 43.3125 49.21875 43.3125 52.78125 
Q 43.3125 58.59375 39.234375 62.25 
Q 35.15625 65.921875 28.609375 65.921875 
Q 23.96875 65.921875 18.8125 64.3125 
Q 13.671875 62.703125 7.8125 59.421875 
L 7.8125 69.390625 
Q 13.765625 71.78125 18.9375 73 
Q 24.125 74.21875 28.421875 74.21875 
Q 39.75 74.21875 46.484375 68.546875 
Q 53.21875 62.890625 53.21875 53.421875 
Q 53.21875 48.921875 51.53125 44.890625 
Q 49.859375 40.875 45.40625 35.40625 
Q 44.1875 33.984375 37.640625 27.21875 
Q 31.109375 20.453125 19.1875 8.296875 
z
" id="DejaVuSans-50"/>
       <path d="M 37.796875 64.3125 
L 12.890625 25.390625 
L 37.796875 25.390625 
z
M 35.203125 72.90625 
L 47.609375 72.90625 
L 47.609375 25.390625 
L 58.015625 25.390625 
L 58.015625 17.1875 
L 47.609375 17.1875 
L 47.609375 0 
L 37.796875 0 
L 37.796875 17.1875 
L 4.890625 17.1875 
L 4.890625 26.703125 
z
" id="DejaVuSans-52"/>
      </defs>
      <g transform="translate(281.055042 399.078438)scale(0.1 -0.1)">
       <use xlink:href="#DejaVuSans-50"/>
       <use x="63.623047" xlink:href="#DejaVuSans-54"/>
       <use x="127.246094" xlink:href="#DejaVuSans-52"/>
       <use x="190.869141" xlink:href="#DejaVuSans-48"/>
      </g>
     </g>
    </g>
    <g id="xtick_5">
     <g id="line2d_5">
      <g>
       <use style="stroke:#000000;stroke-width:0.8;" x="364.788541" xlink:href="#m76c35ad1a5" y="384.48"/>
      </g>
     </g>
     <g id="text_5">
      <!-- 3520 -->
      <defs>
       <path d="M 40.578125 39.3125 
Q 47.65625 37.796875 51.625 33 
Q 55.609375 28.21875 55.609375 21.1875 
Q 55.609375 10.40625 48.1875 4.484375 
Q 40.765625 -1.421875 27.09375 -1.421875 
Q 22.515625 -1.421875 17.65625 -0.515625 
Q 12.796875 0.390625 7.625 2.203125 
L 7.625 11.71875 
Q 11.71875 9.328125 16.59375 8.109375 
Q 21.484375 6.890625 26.8125 6.890625 
Q 36.078125 6.890625 40.9375 10.546875 
Q 45.796875 14.203125 45.796875 21.1875 
Q 45.796875 27.640625 41.28125 31.265625 
Q 36.765625 34.90625 28.71875 34.90625 
L 20.21875 34.90625 
L 20.21875 43.015625 
L 29.109375 43.015625 
Q 36.375 43.015625 40.234375 45.921875 
Q 44.09375 48.828125 44.09375 54.296875 
Q 44.09375 59.90625 40.109375 62.90625 
Q 36.140625 65.921875 28.71875 65.921875 
Q 24.65625 65.921875 20.015625 65.03125 
Q 15.375 64.15625 9.8125 62.3125 
L 9.8125 71.09375 
Q 15.4375 72.65625 20.34375 73.4375 
Q 25.25 74.21875 29.59375 74.21875 
Q 40.828125 74.21875 47.359375 69.109375 
Q 53.90625 64.015625 53.90625 55.328125 
Q 53.90625 49.265625 50.4375 45.09375 
Q 46.96875 40.921875 40.578125 39.3125 
z
" id="DejaVuSans-51"/>
       <path d="M 10.796875 72.90625 
L 49.515625 72.90625 
L 49.515625 64.59375 
L 19.828125 64.59375 
L 19.828125 46.734375 
Q 21.96875 47.46875 24.109375 47.828125 
Q 26.265625 48.1875 28.421875 48.1875 
Q 40.625 48.1875 47.75 41.5 
Q 54.890625 34.8125 54.890625 23.390625 
Q 54.890625 11.625 47.5625 5.09375 
Q 40.234375 -1.421875 26.90625 -1.421875 
Q 22.3125 -1.421875 17.546875 -0.640625 
Q 12.796875 0.140625 7.71875 1.703125 
L 7.71875 11.625 
Q 12.109375 9.234375 16.796875 8.0625 
Q 21.484375 6.890625 26.703125 6.890625 
Q 35.15625 6.890625 40.078125 11.328125 
Q 45.015625 15.765625 45.015625 23.390625 
Q 45.015625 31 40.078125 35.4375 
Q 35.15625 39.890625 26.703125 39.890625 
Q 22.75 39.890625 18.8125 39.015625 
Q 14.890625 38.140625 10.796875 36.28125 
z
" id="DejaVuSans-53"/>
      </defs>
      <g transform="translate(352.063541 399.078438)scale(0.1 -0.1)">
       <use xlink:href="#DejaVuSans-51"/>
       <use x="63.623047" xlink:href="#DejaVuSans-53"/>
       <use x="127.246094" xlink:href="#DejaVuSans-50"/>
       <use x="190.869141" xlink:href="#DejaVuSans-48"/>
      </g>
     </g>
    </g>
    <g id="text_6">
     <!-- time [ms] -->
     <defs>
      <path d="M 18.3125 70.21875 
L 18.3125 54.6875 
L 36.8125 54.6875 
L 36.8125 47.703125 
L 18.3125 47.703125 
L 18.3125 18.015625 
Q 18.3125 11.328125 20.140625 9.421875 
Q 21.96875 7.515625 27.59375 7.515625 
L 36.8125 7.515625 
L 36.8125 0 
L 27.59375 0 
Q 17.1875 0 13.234375 3.875 
Q 9.28125 7.765625 9.28125 18.015625 
L 9.28125 47.703125 
L 2.6875 47.703125 
L 2.6875 54.6875 
L 9.28125 54.6875 
L 9.28125 70.21875 
z
" id="DejaVuSans-116"/>
      <path d="M 9.421875 54.6875 
L 18.40625 54.6875 
L 18.40625 0 
L 9.421875 0 
z
M 9.421875 75.984375 
L 18.40625 75.984375 
L 18.40625 64.59375 
L 9.421875 64.59375 
z
" id="DejaVuSans-105"/>
      <path d="M 52 44.1875 
Q 55.375 50.25 60.0625 53.125 
Q 64.75 56 71.09375 56 
Q 79.640625 56 84.28125 50.015625 
Q 88.921875 44.046875 88.921875 33.015625 
L 88.921875 0 
L 79.890625 0 
L 79.890625 32.71875 
Q 79.890625 40.578125 77.09375 44.375 
Q 74.3125 48.1875 68.609375 48.1875 
Q 61.625 48.1875 57.5625 43.546875 
Q 53.515625 38.921875 53.515625 30.90625 
L 53.515625 0 
L 44.484375 0 
L 44.484375 32.71875 
Q 44.484375 40.625 41.703125 44.40625 
Q 38.921875 48.1875 33.109375 48.1875 
Q 26.21875 48.1875 22.15625 43.53125 
Q 18.109375 38.875 18.109375 30.90625 
L 18.109375 0 
L 9.078125 0 
L 9.078125 54.6875 
L 18.109375 54.6875 
L 18.109375 46.1875 
Q 21.1875 51.21875 25.484375 53.609375 
Q 29.78125 56 35.6875 56 
Q 41.65625 56 45.828125 52.96875 
Q 50 49.953125 52 44.1875 
z
" id="DejaVuSans-109"/>
      <path d="M 56.203125 29.59375 
L 56.203125 25.203125 
L 14.890625 25.203125 
Q 15.484375 15.921875 20.484375 11.0625 
Q 25.484375 6.203125 34.421875 6.203125 
Q 39.59375 6.203125 44.453125 7.46875 
Q 49.3125 8.734375 54.109375 11.28125 
L 54.109375 2.78125 
Q 49.265625 0.734375 44.1875 -0.34375 
Q 39.109375 -1.421875 33.890625 -1.421875 
Q 20.796875 -1.421875 13.15625 6.1875 
Q 5.515625 13.8125 5.515625 26.8125 
Q 5.515625 40.234375 12.765625 48.109375 
Q 20.015625 56 32.328125 56 
Q 43.359375 56 49.78125 48.890625 
Q 56.203125 41.796875 56.203125 29.59375 
z
M 47.21875 32.234375 
Q 47.125 39.59375 43.09375 43.984375 
Q 39.0625 48.390625 32.421875 48.390625 
Q 24.90625 48.390625 20.390625 44.140625 
Q 15.875 39.890625 15.1875 32.171875 
z
" id="DejaVuSans-101"/>
      <path id="DejaVuSans-32"/>
      <path d="M 8.59375 75.984375 
L 29.296875 75.984375 
L 29.296875 69 
L 17.578125 69 
L 17.578125 -6.203125 
L 29.296875 -6.203125 
L 29.296875 -13.1875 
L 8.59375 -13.1875 
z
" id="DejaVuSans-91"/>
      <path d="M 44.28125 53.078125 
L 44.28125 44.578125 
Q 40.484375 46.53125 36.375 47.5 
Q 32.28125 48.484375 27.875 48.484375 
Q 21.1875 48.484375 17.84375 46.4375 
Q 14.5 44.390625 14.5 40.28125 
Q 14.5 37.15625 16.890625 35.375 
Q 19.28125 33.59375 26.515625 31.984375 
L 29.59375 31.296875 
Q 39.15625 29.25 43.1875 25.515625 
Q 47.21875 21.78125 47.21875 15.09375 
Q 47.21875 7.46875 41.1875 3.015625 
Q 35.15625 -1.421875 24.609375 -1.421875 
Q 20.21875 -1.421875 15.453125 -0.5625 
Q 10.6875 0.296875 5.421875 2 
L 5.421875 11.28125 
Q 10.40625 8.6875 15.234375 7.390625 
Q 20.0625 6.109375 24.8125 6.109375 
Q 31.15625 6.109375 34.5625 8.28125 
Q 37.984375 10.453125 37.984375 14.40625 
Q 37.984375 18.0625 35.515625 20.015625 
Q 33.0625 21.96875 24.703125 23.78125 
L 21.578125 24.515625 
Q 13.234375 26.265625 9.515625 29.90625 
Q 5.8125 33.546875 5.8125 39.890625 
Q 5.8125 47.609375 11.28125 51.796875 
Q 16.75 56 26.8125 56 
Q 31.78125 56 36.171875 55.265625 
Q 40.578125 54.546875 44.28125 53.078125 
z
" id="DejaVuSans-115"/>
      <path d="M 30.421875 75.984375 
L 30.421875 -13.1875 
L 9.71875 -13.1875 
L 9.71875 -6.203125 
L 21.390625 -6.203125 
L 21.390625 69 
L 9.71875 69 
L 9.71875 75.984375 
z
" id="DejaVuSans-93"/>
     </defs>
     <g transform="translate(234.038281 412.756563)scale(0.1 -0.1)">
      <use xlink:href="#DejaVuSans-116"/>
      <use x="39.208984" xlink:href="#DejaVuSans-105"/>
      <use x="66.992188" xlink:href="#DejaVuSans-109"/>
      <use x="164.404297" xlink:href="#DejaVuSans-101"/>
      <use x="225.927734" xlink:href="#DejaVuSans-32"/>
      <use x="257.714844" xlink:href="#DejaVuSans-91"/>
      <use x="296.728516" xlink:href="#DejaVuSans-109"/>
      <use x="394.140625" xlink:href="#DejaVuSans-115"/>
      <use x="446.240234" xlink:href="#DejaVuSans-93"/>
     </g>
    </g>
   </g>
   <g id="matplotlib.axis_2">
    <g id="ytick_1">
     <g id="line2d_6">
      <defs>
       <path d="M 0 0 
L -3.5 0 
" id="m9b7a3580c3" style="stroke:#000000;stroke-width:0.8;"/>
      </defs>
      <g>
       <use style="stroke:#000000;stroke-width:0.8;" x="63" xlink:href="#m9b7a3580c3" y="374.664069"/>
      </g>
     </g>
     <g id="text_7">
      <!-- −125 -->
      <defs>
       <path d="M 10.59375 35.5 
L 73.1875 35.5 
L 73.1875 27.203125 
L 10.59375 27.203125 
z
" id="DejaVuSans-8722"/>
      </defs>
      <g transform="translate(28.532812 378.463287)scale(0.1 -0.1)">
       <use xlink:href="#DejaVuSans-8722"/>
       <use x="83.789062" xlink:href="#DejaVuSans-49"/>
       <use x="147.412109" xlink:href="#DejaVuSans-50"/>
       <use x="211.035156" xlink:href="#DejaVuSans-53"/>
      </g>
     </g>
    </g>
    <g id="ytick_2">
     <g id="line2d_7">
      <g>
       <use style="stroke:#000000;stroke-width:0.8;" x="63" xlink:href="#m9b7a3580c3" y="332.026861"/>
      </g>
     </g>
     <g id="text_8">
      <!-- −100 -->
      <g transform="translate(28.532812 335.82608)scale(0.1 -0.1)">
       <use xlink:href="#DejaVuSans-8722"/>
       <use x="83.789062" xlink:href="#DejaVuSans-49"/>
       <use x="147.412109" xlink:href="#DejaVuSans-48"/>
       <use x="211.035156" xlink:href="#DejaVuSans-48"/>
      </g>
     </g>
    </g>
    <g id="ytick_3">
     <g id="line2d_8">
      <g>
       <use style="stroke:#000000;stroke-width:0.8;" x="63" xlink:href="#m9b7a3580c3" y="289.389653"/>
      </g>
     </g>
     <g id="text_9">
      <!-- −75 -->
      <g transform="translate(34.895313 293.188872)scale(0.1 -0.1)">
       <use xlink:href="#DejaVuSans-8722"/>
       <use x="83.789062" xlink:href="#DejaVuSans-55"/>
       <use x="147.412109" xlink:href="#DejaVuSans-53"/>
      </g>
     </g>
    </g>
    <g id="ytick_4">
     <g id="line2d_9">
      <g>
       <use style="stroke:#000000;stroke-width:0.8;" x="63" xlink:href="#m9b7a3580c3" y="246.752445"/>
      </g>
     </g>
     <g id="text_10">
      <!-- −50 -->
      <g transform="translate(34.895313 250.551664)scale(0.1 -0.1)">
       <use xlink:href="#DejaVuSans-8722"/>
       <use x="83.789062" xlink:href="#DejaVuSans-53"/>
       <use x="147.412109" xlink:href="#DejaVuSans-48"/>
      </g>
     </g>
    </g>
    <g id="ytick_5">
     <g id="line2d_10">
      <g>
       <use style="stroke:#000000;stroke-width:0.8;" x="63" xlink:href="#m9b7a3580c3" y="204.115237"/>
      </g>
     </g>
     <g id="text_11">
      <!-- −25 -->
      <g transform="translate(34.895313 207.914456)scale(0.1 -0.1)">
       <use xlink:href="#DejaVuSans-8722"/>
       <use x="83.789062" xlink:href="#DejaVuSans-50"/>
       <use x="147.412109" xlink:href="#DejaVuSans-53"/>
      </g>
     </g>
    </g>
    <g id="ytick_6">
     <g id="line2d_11">
      <g>
       <use style="stroke:#000000;stroke-width:0.8;" x="63" xlink:href="#m9b7a3580c3" y="161.478029"/>
      </g>
     </g>
     <g id="text_12">
      <!-- 0 -->
      <g transform="translate(49.6375 165.277248)scale(0.1 -0.1)">
       <use xlink:href="#DejaVuSans-48"/>
      </g>
     </g>
    </g>
    <g id="ytick_7">
     <g id="line2d_12">
      <g>
       <use style="stroke:#000000;stroke-width:0.8;" x="63" xlink:href="#m9b7a3580c3" y="118.840821"/>
      </g>
     </g>
     <g id="text_13">
      <!-- 25 -->
      <g transform="translate(43.275 122.64004)scale(0.1 -0.1)">
       <use xlink:href="#DejaVuSans-50"/>
       <use x="63.623047" xlink:href="#DejaVuSans-53"/>
      </g>
     </g>
    </g>
    <g id="ytick_8">
     <g id="line2d_13">
      <g>
       <use style="stroke:#000000;stroke-width:0.8;" x="63" xlink:href="#m9b7a3580c3" y="76.203613"/>
      </g>
     </g>
     <g id="text_14">
      <!-- 50 -->
      <g transform="translate(43.275 80.002832)scale(0.1 -0.1)">
       <use xlink:href="#DejaVuSans-53"/>
       <use x="63.623047" xlink:href="#DejaVuSans-48"/>
      </g>
     </g>
    </g>
    <g id="text_15">
     <!-- voltage [mV] -->
     <defs>
      <path d="M 2.984375 54.6875 
L 12.5 54.6875 
L 29.59375 8.796875 
L 46.6875 54.6875 
L 56.203125 54.6875 
L 35.6875 0 
L 23.484375 0 
z
" id="DejaVuSans-118"/>
      <path d="M 30.609375 48.390625 
Q 23.390625 48.390625 19.1875 42.75 
Q 14.984375 37.109375 14.984375 27.296875 
Q 14.984375 17.484375 19.15625 11.84375 
Q 23.34375 6.203125 30.609375 6.203125 
Q 37.796875 6.203125 41.984375 11.859375 
Q 46.1875 17.53125 46.1875 27.296875 
Q 46.1875 37.015625 41.984375 42.703125 
Q 37.796875 48.390625 30.609375 48.390625 
z
M 30.609375 56 
Q 42.328125 56 49.015625 48.375 
Q 55.71875 40.765625 55.71875 27.296875 
Q 55.71875 13.875 49.015625 6.21875 
Q 42.328125 -1.421875 30.609375 -1.421875 
Q 18.84375 -1.421875 12.171875 6.21875 
Q 5.515625 13.875 5.515625 27.296875 
Q 5.515625 40.765625 12.171875 48.375 
Q 18.84375 56 30.609375 56 
z
" id="DejaVuSans-111"/>
      <path d="M 9.421875 75.984375 
L 18.40625 75.984375 
L 18.40625 0 
L 9.421875 0 
z
" id="DejaVuSans-108"/>
      <path d="M 34.28125 27.484375 
Q 23.390625 27.484375 19.1875 25 
Q 14.984375 22.515625 14.984375 16.5 
Q 14.984375 11.71875 18.140625 8.90625 
Q 21.296875 6.109375 26.703125 6.109375 
Q 34.1875 6.109375 38.703125 11.40625 
Q 43.21875 16.703125 43.21875 25.484375 
L 43.21875 27.484375 
z
M 52.203125 31.203125 
L 52.203125 0 
L 43.21875 0 
L 43.21875 8.296875 
Q 40.140625 3.328125 35.546875 0.953125 
Q 30.953125 -1.421875 24.3125 -1.421875 
Q 15.921875 -1.421875 10.953125 3.296875 
Q 6 8.015625 6 15.921875 
Q 6 25.140625 12.171875 29.828125 
Q 18.359375 34.515625 30.609375 34.515625 
L 43.21875 34.515625 
L 43.21875 35.40625 
Q 43.21875 41.609375 39.140625 45 
Q 35.0625 48.390625 27.6875 48.390625 
Q 23 48.390625 18.546875 47.265625 
Q 14.109375 46.140625 10.015625 43.890625 
L 10.015625 52.203125 
Q 14.9375 54.109375 19.578125 55.046875 
Q 24.21875 56 28.609375 56 
Q 40.484375 56 46.34375 49.84375 
Q 52.203125 43.703125 52.203125 31.203125 
z
" id="DejaVuSans-97"/>
      <path d="M 45.40625 27.984375 
Q 45.40625 37.75 41.375 43.109375 
Q 37.359375 48.484375 30.078125 48.484375 
Q 22.859375 48.484375 18.828125 43.109375 
Q 14.796875 37.75 14.796875 27.984375 
Q 14.796875 18.265625 18.828125 12.890625 
Q 22.859375 7.515625 30.078125 7.515625 
Q 37.359375 7.515625 41.375 12.890625 
Q 45.40625 18.265625 45.40625 27.984375 
z
M 54.390625 6.78125 
Q 54.390625 -7.171875 48.1875 -13.984375 
Q 42 -20.796875 29.203125 -20.796875 
Q 24.46875 -20.796875 20.265625 -20.09375 
Q 16.0625 -19.390625 12.109375 -17.921875 
L 12.109375 -9.1875 
Q 16.0625 -11.328125 19.921875 -12.34375 
Q 23.78125 -13.375 27.78125 -13.375 
Q 36.625 -13.375 41.015625 -8.765625 
Q 45.40625 -4.15625 45.40625 5.171875 
L 45.40625 9.625 
Q 42.625 4.78125 38.28125 2.390625 
Q 33.9375 0 27.875 0 
Q 17.828125 0 11.671875 7.65625 
Q 5.515625 15.328125 5.515625 27.984375 
Q 5.515625 40.671875 11.671875 48.328125 
Q 17.828125 56 27.875 56 
Q 33.9375 56 38.28125 53.609375 
Q 42.625 51.21875 45.40625 46.390625 
L 45.40625 54.6875 
L 54.390625 54.6875 
z
" id="DejaVuSans-103"/>
      <path d="M 28.609375 0 
L 0.78125 72.90625 
L 11.078125 72.90625 
L 34.1875 11.53125 
L 57.328125 72.90625 
L 67.578125 72.90625 
L 39.796875 0 
z
" id="DejaVuSans-86"/>
     </defs>
     <g transform="translate(22.453125 250.624062)rotate(-90)scale(0.1 -0.1)">
      <use xlink:href="#DejaVuSans-118"/>
      <use x="59.179688" xlink:href="#DejaVuSans-111"/>
      <use x="120.361328" xlink:href="#DejaVuSans-108"/>
      <use x="148.144531" xlink:href="#DejaVuSans-116"/>
      <use x="187.353516" xlink:href="#DejaVuSans-97"/>
      <use x="248.632812" xlink:href="#DejaVuSans-103"/>
      <use x="312.109375" xlink:href="#DejaVuSans-101"/>
      <use x="373.632812" xlink:href="#DejaVuSans-32"/>
      <use x="405.419922" xlink:href="#DejaVuSans-91"/>
      <use x="444.433594" xlink:href="#DejaVuSans-109"/>
      <use x="541.845703" xlink:href="#DejaVuSans-86"/>
      <use x="610.253906" xlink:href="#DejaVuSans-93"/>
     </g>
    </g>
   </g>
   <g id="line2d_14">
    <path clip-path="url(#p21dca969ff)" d="M 80.754545 261.242434 
L 83.385088 261.159158 
L 83.417364 261.075882 
L 83.465779 261.242434 
L 83.498056 261.159158 
L 83.514194 261.242434 
L 83.594885 261.159158 
L 83.723992 261.075882 
L 84.547045 261.159158 
L 84.676151 261.242434 
L 84.96664 261.159158 
L 85.095747 261.075882 
L 85.176438 261.159158 
L 85.208715 261.075882 
L 85.337821 261.159158 
L 85.35396 261.242434 
L 85.402374 261.075882 
L 85.434651 261.075882 
L 86.322257 261.159158 
L 86.451364 261.242434 
L 87.419661 261.325709 
L 87.532629 261.408985 
L 87.581044 261.325709 
L 87.645598 261.408985 
L 88.694587 261.492261 
L 88.807555 261.575537 
L 88.85597 261.492261 
L 89.049629 251.99882 
L 89.501501 243.08831 
L 90.356831 231.512974 
L 91.196022 223.934877 
L 91.470373 221.936258 
L 91.777001 219.854363 
L 92.551639 216.440055 
L 92.583916 216.356779 
L 92.793714 215.857124 
L 92.82599 215.773849 
L 93.11648 214.857815 
L 93.310139 214.774539 
L 93.503799 214.35816 
L 93.552214 214.274884 
L 93.745873 213.858505 
L 93.858841 213.77523 
L 94.020224 213.525402 
L 94.213884 213.442126 
L 94.391405 213.109023 
L 95.843851 213.025747 
L 95.989096 212.692644 
L 96.005234 212.77592 
L 96.118202 212.692644 
L 96.247309 212.609368 
L 96.553936 212.526093 
L 96.683043 212.442817 
L 96.892841 212.942472 
L 96.957394 213.025747 
L 97.167192 213.525402 
L 97.393128 213.442126 
L 97.425404 213.358851 
L 97.506096 213.442126 
L 97.845 213.358851 
L 97.990245 213.192299 
L 98.006383 213.275575 
L 98.03866 213.109023 
L 98.103213 213.192299 
L 98.264596 213.275575 
L 98.296872 213.358851 
L 98.361426 213.192299 
L 98.50667 213.275575 
L 98.538947 213.358851 
L 98.571223 213.192299 
L 98.619638 213.275575 
L 99.119925 213.192299 
L 99.26517 213.025747 
L 99.959117 212.942472 
L 100.055947 212.859196 
L 100.072085 212.942472 
L 100.1205 213.025747 
L 100.362574 214.441436 
L 100.604649 215.107642 
L 100.653063 215.190918 
L 100.733755 215.274194 
L 100.766031 215.190918 
L 100.943553 215.107642 
L 101.056521 214.857815 
L 101.088797 214.941091 
L 101.217904 214.857815 
L 101.395425 214.524712 
L 101.427702 214.607987 
L 101.508393 214.524712 
L 101.556808 214.441436 
L 101.702053 214.274884 
L 101.831159 214.191609 
L 101.960265 214.108333 
L 102.040957 214.191609 
L 102.073233 214.108333 
L 102.153925 214.025057 
L 102.331446 213.691954 
L 102.347584 213.77523 
L 102.379861 213.608678 
L 102.428276 213.691954 
L 102.589659 213.442126 
L 102.718765 213.525402 
L 102.993116 213.442126 
L 103.057669 213.192299 
L 103.122223 213.358851 
L 103.235191 213.442126 
L 103.251329 213.525402 
L 103.33202 213.358851 
L 103.348159 213.442126 
L 103.461127 213.275575 
L 103.477265 213.358851 
L 103.687063 213.275575 
L 103.816169 213.192299 
L 104.09052 213.109023 
L 104.18735 213.025747 
L 104.203488 213.109023 
L 104.38101 213.025747 
L 104.526254 212.692644 
L 104.542393 212.77592 
L 104.639222 212.692644 
L 104.687637 212.609368 
L 104.75219 212.692644 
L 104.897435 212.609368 
L 105.026541 212.526093 
L 105.236339 212.609368 
L 105.317031 212.692644 
L 105.349307 212.609368 
L 106.107807 212.526093 
L 106.123945 212.442817 
L 106.17236 212.609368 
L 106.220775 212.526093 
L 106.882445 212.609368 
L 107.011552 212.692644 
L 107.705498 212.609368 
L 107.737775 212.526093 
L 107.78619 212.692644 
L 107.802328 212.692644 
L 108.383307 212.609368 
L 108.528551 212.442817 
L 108.576966 212.359541 
L 108.706073 212.276265 
L 109.254775 212.192989 
L 109.335466 212.109714 
L 109.367743 212.192989 
L 109.690509 212.109714 
L 109.819615 211.943162 
L 109.916445 212.026438 
L 109.932583 211.943162 
L 110.416732 212.026438 
L 110.561977 212.192989 
L 110.691083 212.109714 
L 111.368891 212.192989 
L 111.530274 212.442817 
L 112.256498 212.526093 
L 112.321051 212.442817 
L 112.385604 212.609368 
L 112.821338 212.692644 
L 112.837476 212.77592 
L 112.869753 212.609368 
L 112.934306 212.692644 
L 113.17638 212.77592 
L 113.337763 213.025747 
L 113.434593 213.109023 
L 113.579838 213.275575 
L 113.789636 213.192299 
L 113.870327 213.109023 
L 113.902604 213.192299 
L 114.160817 213.275575 
L 114.257646 213.358851 
L 114.273785 213.275575 
L 114.386753 213.109023 
L 114.402891 213.192299 
L 114.483582 213.109023 
L 114.580412 212.942472 
L 114.612689 213.025747 
L 114.806348 212.942472 
L 114.935455 212.859196 
L 115.35505 212.77592 
L 115.484157 212.692644 
L 115.532572 212.77592 
L 115.580986 212.692644 
L 115.710093 212.609368 
L 115.839199 212.526093 
L 115.984444 212.359541 
L 116.21038 212.276265 
L 116.339486 212.192989 
L 116.484731 212.109714 
L 116.629976 211.943162 
L 116.710667 211.859886 
L 116.742944 211.77661 
L 116.823635 211.859886 
L 117.017295 211.943162 
L 117.033433 212.026438 
L 117.130263 211.943162 
L 117.259369 212.026438 
L 117.501444 212.692644 
L 117.549858 212.77592 
L 117.743518 213.192299 
L 117.921039 213.275575 
L 118.050146 213.358851 
L 118.647263 213.275575 
L 118.776369 213.192299 
L 119.05072 213.109023 
L 119.131411 213.025747 
L 119.163688 213.109023 
L 119.518731 213.025747 
L 119.663975 212.859196 
L 119.80922 212.77592 
L 119.938326 212.692644 
L 120.002879 212.77592 
L 120.051294 212.692644 
L 120.228815 212.359541 
L 120.438613 212.276265 
L 120.56772 212.192989 
L 120.664549 212.109714 
L 120.696826 212.026438 
L 120.745241 212.192989 
L 120.761379 212.192989 
L 120.858209 212.276265 
L 120.874347 212.192989 
L 121.116422 212.276265 
L 121.261666 212.442817 
L 121.471464 212.359541 
L 121.616709 212.192989 
L 121.778092 212.109714 
L 121.939475 211.859886 
L 122.116996 211.77661 
L 122.246102 211.693335 
L 122.407485 211.943162 
L 122.423624 211.859886 
L 122.520453 211.943162 
L 122.697975 211.859886 
L 122.810943 211.693335 
L 122.827081 211.77661 
L 123.133709 211.859886 
L 123.278953 212.026438 
L 123.553304 212.109714 
L 123.682411 212.276265 
L 123.843794 212.026438 
L 123.924485 212.109714 
L 123.940623 212.192989 
L 124.005177 212.026438 
L 124.021315 212.026438 
L 124.360219 211.943162 
L 124.489325 211.859886 
L 124.682985 211.943162 
L 124.844368 212.192989 
L 125.280102 212.276265 
L 125.360793 212.442817 
L 125.39307 212.359541 
L 125.522176 212.276265 
L 125.764251 212.192989 
L 125.780389 212.109714 
L 125.877219 212.192989 
L 126.038602 212.109714 
L 126.167708 212.026438 
L 126.329091 211.943162 
L 126.458197 211.859886 
L 126.587304 211.943162 
L 126.651857 212.026438 
L 126.700272 211.943162 
L 127.136006 211.859886 
L 127.152144 211.77661 
L 127.232836 211.859886 
L 127.248974 211.943162 
L 127.297389 211.77661 
L 127.329665 211.77661 
L 127.394219 211.859886 
L 127.442633 212.026438 
L 127.507187 211.943162 
L 127.636293 211.859886 
L 127.765399 211.943162 
L 127.975197 211.859886 
L 128.120442 211.693335 
L 128.217272 211.610059 
L 128.346378 211.526783 
L 128.410931 211.443507 
L 128.540038 211.360231 
L 129.08874 211.276956 
L 129.137154 211.19368 
L 129.201708 211.276956 
L 129.605165 211.360231 
L 129.734271 211.443507 
L 129.831101 211.360231 
L 130.024761 210.943852 
L 130.137729 210.860577 
L 130.282973 210.694025 
L 130.525048 210.610749 
L 130.541186 210.527473 
L 130.589601 210.694025 
L 130.621878 210.610749 
L 130.670292 210.694025 
L 130.734846 210.610749 
L 131.07375 210.527473 
L 131.218995 210.360922 
L 132.477782 210.444198 
L 132.606888 210.527473 
L 132.768271 210.444198 
L 132.816686 210.360922 
L 132.881239 210.444198 
L 133.268558 210.527473 
L 133.397664 210.610749 
L 133.413803 210.610749 
L 133.559047 211.027128 
L 133.591324 210.943852 
L 133.639739 211.19368 
L 133.655877 211.110404 
L 133.768845 211.19368 
L 133.962505 211.610059 
L 133.994781 211.693335 
L 134.156164 212.026438 
L 134.285271 211.943162 
L 134.430515 212.026438 
L 134.559622 212.192989 
L 134.688728 212.109714 
L 134.979217 212.026438 
L 135.108324 211.943162 
L 135.33426 211.859886 
L 135.414951 211.693335 
L 135.463366 211.77661 
L 135.818409 211.693335 
L 135.834547 211.610059 
L 135.866824 211.77661 
L 135.931377 211.693335 
L 136.044345 211.610059 
L 136.060483 211.526783 
L 136.157313 211.610059 
L 136.883536 211.526783 
L 137.061057 211.19368 
L 137.174025 211.110404 
L 137.206302 211.027128 
L 137.238579 211.19368 
L 137.270855 211.19368 
L 137.367685 211.110404 
L 137.432238 210.943852 
L 137.480653 211.110404 
L 137.690451 211.027128 
L 137.835696 210.860577 
L 137.98094 211.027128 
L 138.110047 210.943852 
L 138.206876 210.694025 
L 138.255291 210.777301 
L 138.707163 210.694025 
L 138.83627 210.610749 
L 138.900823 210.694025 
L 138.949238 210.610749 
L 139.126759 210.694025 
L 139.255866 210.777301 
L 139.30428 210.694025 
L 139.368834 210.777301 
L 139.772291 210.694025 
L 139.901397 210.527473 
L 139.998227 210.610749 
L 140.014365 210.527473 
L 140.756727 210.444198 
L 140.91811 210.19437 
L 141.047216 210.111094 
L 141.127908 210.027819 
L 141.160184 210.111094 
L 141.434535 210.943852 
L 141.902546 210.860577 
L 142.031652 210.777301 
L 142.14462 210.694025 
L 142.273727 210.610749 
L 142.386695 210.694025 
L 142.515801 210.610749 
L 142.80629 210.527473 
L 142.951535 210.360922 
L 144.339429 210.444198 
L 144.468535 210.777301 
L 144.484673 210.694025 
L 144.581503 210.610749 
L 144.597641 210.694025 
L 144.678333 210.777301 
L 144.823577 210.943852 
L 145.340003 210.860577 
L 145.485247 210.694025 
L 145.64663 210.610749 
L 145.775737 210.527473 
L 146.308301 210.444198 
L 146.388992 210.277646 
L 146.437407 210.360922 
L 147.244322 210.444198 
L 147.26046 210.527473 
L 147.35729 210.444198 
L 147.550949 210.360922 
L 147.680056 210.277646 
L 147.809162 210.360922 
L 147.938268 210.277646 
L 147.970545 210.19437 
L 148.051236 210.277646 
L 148.180343 210.360922 
L 148.325587 210.527473 
L 148.374002 210.444198 
L 148.503109 210.360922 
L 148.632215 210.444198 
L 148.858151 210.360922 
L 148.890428 210.19437 
L 148.987258 210.277646 
L 149.100226 210.360922 
L 149.116364 210.444198 
L 149.164779 210.277646 
L 149.213194 210.360922 
L 149.358438 210.19437 
L 149.697343 210.277646 
L 149.826449 210.360922 
L 149.971694 210.360922 
L 150.00397 210.19437 
L 150.084662 210.277646 
L 150.407427 210.360922 
L 150.601087 210.860577 
L 150.76247 210.610749 
L 151.085236 210.694025 
L 151.149789 210.777301 
L 151.198204 210.694025 
L 151.32731 210.610749 
L 151.343449 210.694025 
L 151.375725 210.527473 
L 151.440278 210.610749 
L 151.811459 210.527473 
L 151.843736 210.444198 
L 151.924427 210.527473 
L 152.424714 210.444198 
L 152.586097 210.19437 
L 152.908863 210.111094 
L 152.94114 210.027819 
L 153.005693 210.19437 
L 153.054108 210.111094 
L 153.070246 210.027819 
L 153.150938 210.19437 
L 153.328459 210.111094 
L 153.360736 210.027819 
L 153.40915 210.111094 
L 153.60281 219.604535 
L 154.054682 228.43177 
L 154.425863 233.844697 
L 154.861597 239.007796 
L 154.990703 240.256933 
L 155.265054 242.838483 
L 155.765342 246.918997 
L 155.991278 248.667788 
L 156.314044 250.916235 
L 156.927299 254.663646 
L 157.137097 255.746231 
L 158.460437 261.991916 
L 158.492713 262.075192 
L 158.815479 263.157777 
L 158.847756 263.241053 
L 159.154383 264.240362 
L 159.18666 264.323638 
L 159.428735 264.989844 
L 159.461011 265.07312 
L 159.735362 265.905878 
L 159.816054 265.989154 
L 160.025851 266.488809 
L 160.058128 266.572085 
L 160.284064 267.155015 
L 160.348617 267.238291 
L 160.542277 267.65467 
L 160.60683 267.737946 
L 160.80049 268.237601 
L 160.816628 268.154325 
L 160.865043 268.320876 
L 160.897319 268.320876 
L 160.978011 268.404152 
L 161.139394 268.65398 
L 161.300777 268.737255 
L 161.478298 269.070358 
L 161.526713 268.987083 
L 161.591266 269.070358 
L 161.752649 269.320186 
L 161.897894 269.403462 
L 162.043138 269.570013 
L 162.091553 269.653289 
L 162.236798 269.819841 
L 162.285213 269.903116 
L 162.317489 269.986392 
L 162.398181 269.903116 
L 162.462734 269.986392 
L 162.607979 270.152944 
L 162.995298 270.23622 
L 163.124404 270.319495 
L 163.318064 270.402771 
L 163.431032 270.569323 
L 163.44717 270.486047 
L 163.527861 270.569323 
L 163.656968 270.652599 
L 163.931319 270.735874 
L 164.060425 270.81915 
L 164.544574 270.735874 
L 164.625266 270.652599 
L 164.657542 270.735874 
L 165.997021 270.652599 
L 166.126127 270.486047 
L 166.206818 270.569323 
L 166.239095 270.486047 
L 166.432755 270.402771 
L 166.577999 270.23622 
L 166.900765 270.152944 
L 167.029872 270.069668 
L 167.304223 269.986392 
L 167.465606 269.736565 
L 167.659265 269.653289 
L 167.788371 269.570013 
L 168.014308 269.486737 
L 168.175691 269.23691 
L 168.191829 269.320186 
L 168.288659 269.23691 
L 168.450042 269.153634 
L 168.56301 269.070358 
L 168.579148 269.153634 
L 168.627563 268.987083 
L 168.659839 268.987083 
L 168.837361 268.903807 
L 168.853499 268.820531 
L 168.885775 268.987083 
L 168.950329 268.903807 
L 169.12785 268.820531 
L 169.273095 268.65398 
L 169.418339 268.570704 
L 169.499031 268.487428 
L 169.611999 261.991916 
L 169.708829 262.075192 
L 169.724967 262.158467 
L 169.821797 262.075192 
L 170.951477 262.158467 
L 170.967616 262.241743 
L 171.064445 262.158467 
L 171.790669 262.241743 
L 171.822945 262.325019 
L 171.903637 262.241743 
L 172.048881 262.075192 
L 172.177988 262.158467 
L 172.387786 262.075192 
L 172.516892 261.991916 
L 173.162424 261.90864 
L 173.307668 261.742088 
L 174.518041 261.825364 
L 174.647147 261.90864 
L 175.115157 261.991916 
L 175.147434 262.075192 
L 175.228126 261.991916 
L 175.389508 262.075192 
L 175.405647 262.158467 
L 175.502477 262.075192 
L 175.615445 262.158467 
L 175.712274 262.241743 
L 175.728413 262.158467 
L 175.954349 262.241743 
L 176.083455 262.325019 
L 176.099593 262.241743 
L 176.180285 262.408295 
L 176.196423 262.325019 
L 176.664434 262.241743 
L 176.79354 262.158467 
L 176.938785 262.075192 
L 177.019476 262.158467 
L 177.067891 261.991916 
L 177.213136 262.075192 
L 177.293827 262.158467 
L 177.326104 262.075192 
L 177.616593 262.075192 
L 177.810253 249.667098 
L 178.391231 235.093833 
L 179.149731 221.68643 
L 179.82754 212.859196 
L 180.39238 208.112475 
L 180.924944 205.947305 
L 180.95722 205.864029 
L 181.15088 205.44765 
L 181.312263 205.364374 
L 181.522061 204.864719 
L 181.538199 204.864719 
L 181.683444 204.44834 
L 181.764135 204.365065 
L 181.90938 204.198513 
L 182.328975 204.115237 
L 182.522635 203.698858 
L 182.66788 203.615582 
L 182.861539 203.199203 
L 182.926092 203.282479 
L 182.974507 203.365755 
L 183.03906 203.282479 
L 183.103614 203.199203 
L 183.264997 202.949376 
L 183.313411 202.8661 
L 183.539348 202.28317 
L 183.620039 202.199894 
L 183.829837 201.700239 
L 183.89439 201.616963 
L 184.184879 200.700929 
L 184.233294 200.784205 
L 184.297847 200.700929 
L 184.539922 200.034723 
L 184.814273 199.951447 
L 184.927241 199.451792 
L 184.991794 199.618344 
L 185.072486 199.535068 
L 185.250007 198.952138 
L 185.282283 199.035414 
L 185.346837 198.952138 
L 185.669602 197.869552 
L 185.718017 197.786277 
L 186.411964 193.622487 
L 186.428102 193.122832 
L 186.444241 187.959733 
L 186.492656 74.787925 
L 186.573347 133.997016 
L 186.73473 201.28386 
L 186.944528 203.449031 
L 188.05807 213.941781 
L 188.074208 213.941781 
L 188.25173 214.691263 
L 188.477666 215.274194 
L 188.526081 215.35747 
L 188.752017 215.9404 
L 188.800432 216.023676 
L 188.961815 216.273503 
L 189.026368 216.190228 
L 189.058644 216.273503 
L 189.187751 216.356779 
L 189.720315 216.273503 
L 189.865559 216.106952 
L 190.091495 216.023676 
L 190.23674 215.857124 
L 190.285155 215.773849 
L 190.414261 215.607297 
L 190.4304 215.690573 
L 190.494953 215.524021 
L 190.511091 215.524021 
L 190.591783 215.440745 
L 190.720889 215.35747 
L 190.89841 215.274194 
L 191.027516 215.190918 
L 191.140485 215.107642 
L 191.301868 214.857815 
L 191.46325 214.774539 
L 191.640772 214.441436 
L 192.205612 214.35816 
L 192.366995 214.108333 
L 192.463825 214.025057 
L 192.625208 213.691954 
L 192.754314 213.77523 
L 192.835006 213.691954 
L 192.899559 213.608678 
L 192.947974 213.691954 
L 193.238463 213.608678 
L 193.383708 213.442126 
L 193.512814 213.358851 
L 193.658059 213.192299 
L 193.787165 213.275575 
L 193.964686 212.942472 
L 194.013101 213.025747 
L 194.061516 212.859196 
L 194.448835 212.77592 
L 194.59408 212.609368 
L 194.723186 212.526093 
L 194.900707 212.192989 
L 194.981399 212.109714 
L 195.126643 211.943162 
L 195.271888 211.859886 
L 195.35258 211.693335 
L 195.400994 211.77661 
L 195.465548 211.693335 
L 195.610792 211.526783 
L 195.885143 211.443507 
L 196.01425 211.360231 
L 196.094941 211.276956 
L 196.256324 210.943852 
L 196.353154 211.027128 
L 196.369292 210.943852 
L 196.708196 210.860577 
L 196.837303 210.777301 
L 196.950271 210.860577 
L 196.982547 210.777301 
L 197.063239 210.860577 
L 197.14393 210.777301 
L 197.160069 210.694025 
L 197.224622 210.860577 
L 197.24076 210.860577 
L 197.402143 210.943852 
L 197.579664 211.443507 
L 197.595803 211.360231 
L 197.644218 211.443507 
L 197.821739 211.77661 
L 197.854015 211.693335 
L 197.934707 211.77661 
L 197.966983 211.859886 
L 198.112228 212.026438 
L 198.467271 211.943162 
L 198.483409 211.859886 
L 198.580239 211.943162 
L 198.644792 211.859886 
L 198.822313 211.526783 
L 199.032111 211.443507 
L 199.209632 211.110404 
L 199.241909 211.19368 
L 199.306462 211.027128 
L 199.500121 210.610749 
L 199.629228 210.694025 
L 199.790611 210.610749 
L 199.951994 210.360922 
L 200.032685 210.277646 
L 200.161792 210.19437 
L 200.532972 210.111094 
L 200.662079 209.861267 
L 200.678217 209.944543 
L 200.807323 209.861267 
L 200.968706 209.61144 
L 201.065536 209.528164 
L 201.226919 209.278336 
L 201.372164 209.195061 
L 201.50127 209.111785 
L 201.646515 209.028509 
L 201.807898 208.778682 
L 201.856313 208.861958 
L 201.985419 208.945233 
L 202.146802 208.695406 
L 202.275908 208.778682 
L 202.3566 208.695406 
L 202.517983 208.445579 
L 202.582536 208.362303 
L 202.727781 208.112475 
L 202.743919 208.195751 
L 202.776195 208.0292 
L 202.82461 208.0292 
L 203.034408 207.945924 
L 203.179653 207.779372 
L 203.550834 207.862648 
L 203.67994 207.945924 
L 203.77677 208.0292 
L 203.905876 208.112475 
L 204.632099 208.0292 
L 204.777344 207.862648 
L 204.858035 207.779372 
L 204.987142 207.696096 
L 205.116248 207.862648 
L 205.164663 207.779372 
L 205.19694 207.945924 
L 205.229216 207.862648 
L 205.358323 208.112475 
L 205.374461 208.0292 
L 206.052269 208.112475 
L 206.213652 208.362303 
L 206.455727 208.445579 
L 206.61711 208.695406 
L 206.762354 208.778682 
L 206.907599 208.945233 
L 207.343333 208.861958 
L 207.359471 208.778682 
L 207.456301 208.861958 
L 207.472439 208.945233 
L 207.569269 208.861958 
L 207.666099 208.945233 
L 207.682237 209.028509 
L 207.779067 208.945233 
L 208.021141 208.861958 
L 208.182524 208.61213 
L 208.230939 208.528854 
L 208.40846 208.195751 
L 208.60212 208.112475 
L 208.731226 208.0292 
L 208.989439 207.945924 
L 209.118545 207.862648 
L 209.215375 207.779372 
L 209.36062 207.612821 
L 209.538141 207.529545 
L 209.731801 207.113166 
L 210.038428 207.02989 
L 210.183673 206.863338 
L 210.232088 206.946614 
L 210.393471 207.196442 
L 211.055141 207.113166 
L 211.232662 206.780063 
L 211.297215 206.863338 
L 211.329492 206.780063 
L 211.474737 206.613511 
L 211.652258 206.530235 
L 211.749088 206.446959 
L 211.765226 206.530235 
L 211.813641 206.446959 
L 211.958885 206.280408 
L 212.023439 206.197132 
L 212.039577 206.113856 
L 212.087992 206.280408 
L 212.120268 206.280408 
L 212.217098 206.363684 
L 212.362343 206.530235 
L 212.410758 206.446959 
L 212.475311 206.280408 
L 212.523726 206.446959 
L 212.588279 206.363684 
L 212.636694 206.280408 
L 212.685109 206.363684 
L 212.86263 206.696787 
L 213.185396 206.613511 
L 213.217672 206.530235 
L 213.266087 206.696787 
L 213.282226 206.696787 
L 213.556577 206.613511 
L 213.653406 206.530235 
L 213.669545 206.613511 
L 213.814789 206.530235 
L 214.008449 206.113856 
L 214.056864 206.03058 
L 214.073002 205.947305 
L 214.169832 206.03058 
L 214.2828 205.947305 
L 214.411906 205.864029 
L 214.589427 205.780753 
L 214.734672 205.614201 
L 214.84764 205.697477 
L 214.879917 205.780753 
L 214.928332 205.614201 
L 214.94447 205.614201 
L 215.202683 205.530926 
L 215.331789 205.44765 
L 215.460895 205.530926 
L 215.751385 205.614201 
L 215.767523 205.697477 
L 215.864353 205.614201 
L 216.058012 205.197822 
L 216.138704 205.114547 
L 216.300087 204.781443 
L 216.380778 204.864719 
L 216.413055 204.781443 
L 216.542161 204.698168 
L 216.687406 204.531616 
L 216.92948 204.44834 
L 216.977895 204.365065 
L 217.02631 204.44834 
L 217.042448 204.531616 
L 217.139278 204.44834 
L 217.704118 204.531616 
L 217.833225 204.614892 
L 217.849363 204.531616 
L 217.946193 204.614892 
L 218.204406 204.614892 
L 218.34965 205.031271 
L 218.656278 204.947995 
L 218.785384 204.864719 
L 218.962905 204.947995 
L 219.027459 204.864719 
L 219.075874 205.031271 
L 219.20498 204.947995 
L 219.414778 205.031271 
L 219.576161 205.281098 
L 219.915065 205.364374 
L 220.157139 206.03058 
L 220.270107 206.113856 
L 220.350799 206.280408 
L 220.399214 206.197132 
L 220.496044 206.113856 
L 220.62515 206.03058 
L 220.818809 206.113856 
L 220.834948 206.197132 
L 220.931777 206.113856 
L 221.125437 206.03058 
L 221.254543 205.947305 
L 221.319097 205.864029 
L 221.464341 205.697477 
L 221.722554 205.614201 
L 221.867799 205.44765 
L 221.900075 205.44765 
L 222.029182 205.114547 
L 222.077596 205.031271 
L 222.158288 204.781443 
L 222.222841 204.864719 
L 222.739267 204.781443 
L 222.900649 204.531616 
L 223.013618 204.44834 
L 223.158862 204.198513 
L 223.175001 204.281789 
L 223.239554 204.115237 
L 223.255692 204.198513 
L 223.449352 203.782134 
L 223.626873 203.698858 
L 223.852809 203.115928 
L 223.981915 203.032652 
L 224.046468 202.8661 
L 224.094883 202.949376 
L 224.272405 203.282479 
L 224.320819 203.199203 
L 224.385373 203.115928 
L 224.433788 203.199203 
L 224.514479 203.365755 
L 224.562894 203.282479 
L 224.692 203.365755 
L 224.853383 203.615582 
L 225.127734 203.532307 
L 225.256841 203.449031 
L 225.289117 203.532307 
L 225.305255 203.615582 
L 225.35367 203.449031 
L 225.385947 203.449031 
L 225.54733 203.532307 
L 225.692575 203.698858 
L 225.740989 203.615582 
L 225.886234 203.449031 
L 226.063755 203.365755 
L 226.338106 202.532997 
L 226.547904 202.616273 
L 226.580181 202.699549 
L 226.628596 202.532997 
L 226.644734 202.532997 
L 226.725425 202.449721 
L 226.87067 202.28317 
L 226.886808 202.366445 
L 226.9675 202.199894 
L 226.983638 202.28317 
L 227.06433 202.366445 
L 227.096606 202.449721 
L 227.161159 202.28317 
L 227.403234 202.28317 
L 227.53234 201.950066 
L 227.661447 201.866791 
L 227.677585 201.783515 
L 227.758276 201.866791 
L 227.855106 202.033342 
L 227.887383 201.950066 
L 228.048766 201.866791 
L 228.097181 201.783515 
L 228.161734 201.866791 
L 228.419946 201.783515 
L 228.597468 201.450412 
L 228.823404 201.367136 
L 228.871819 201.200584 
L 228.936372 201.367136 
L 229.081617 201.28386 
L 229.259138 200.950757 
L 229.307553 200.867481 
L 229.468936 200.617654 
L 229.630319 200.700929 
L 229.646457 200.784205 
L 229.71101 200.617654 
L 229.727148 200.617654 
L 230.082191 200.534378 
L 230.098329 200.451102 
L 230.162882 200.617654 
L 230.179021 200.617654 
L 230.905244 200.534378 
L 231.195733 199.618344 
L 231.22801 199.535068 
L 231.421669 199.118689 
L 231.453946 199.035414 
L 231.954233 197.036794 
L 231.970371 197.12007 
L 232.034925 196.870243 
L 232.164031 195.038175 
L 232.180169 191.956971 
L 232.244722 73.871891 
L 232.309276 129.16702 
L 232.470659 200.367826 
L 232.535212 201.034033 
L 232.599765 200.867481 
L 232.74501 200.617654 
L 233.051637 202.782824 
L 233.551924 206.946614 
L 233.584201 207.02989 
L 233.826275 208.445579 
L 234.520222 211.443507 
L 234.584775 211.526783 
L 234.794573 212.026438 
L 234.842988 212.109714 
L 235.036647 212.526093 
L 235.101201 212.609368 
L 235.262584 212.859196 
L 235.359413 212.942472 
L 235.520796 213.192299 
L 235.601488 213.275575 
L 235.746732 213.442126 
L 235.908115 213.525402 
L 236.037222 213.608678 
L 236.117913 213.691954 
L 236.263158 213.941781 
L 236.279296 213.858505 
L 236.359988 214.025057 
L 236.521371 214.274884 
L 236.876413 214.191609 
L 237.005519 214.025057 
L 237.070073 214.191609 
L 237.118488 214.108333 
L 237.247594 214.025057 
L 237.392839 213.941781 
L 237.538083 213.77523 
L 237.57036 213.858505 
L 237.634913 213.77523 
L 237.812434 213.442126 
L 237.860849 213.358851 
L 238.006094 213.192299 
L 238.167477 213.109023 
L 238.312721 212.942472 
L 238.474104 212.859196 
L 238.619349 212.692644 
L 238.829147 212.609368 
L 238.974392 212.442817 
L 239.103498 212.359541 
L 239.264881 212.109714 
L 239.329434 212.026438 
L 239.490817 211.77661 
L 239.732891 211.693335 
L 239.861998 211.610059 
L 240.152487 211.526783 
L 240.281593 211.443507 
L 240.378423 211.526783 
L 240.394561 211.443507 
L 240.572083 211.360231 
L 240.701189 211.276956 
L 240.959402 211.19368 
L 241.104646 211.027128 
L 241.459689 210.943852 
L 241.604934 210.777301 
L 241.717902 210.694025 
L 241.879285 210.444198 
L 242.169774 210.444198 
L 242.363433 222.602464 
L 242.799167 232.678835 
L 243.234901 239.424175 
L 243.654497 244.337447 
L 243.783603 245.586584 
L 244.396859 250.832959 
L 244.638933 252.665027 
L 244.961699 254.913473 
L 246.494837 262.241743 
L 246.55939 262.325019 
L 246.946709 263.740708 
L 246.978986 263.823983 
L 247.237199 264.573465 
L 247.269475 264.656741 
L 247.527688 265.406223 
L 247.592241 265.489499 
L 247.834316 266.155706 
L 247.850454 266.155706 
L 247.995699 266.65536 
L 248.011837 266.572085 
L 248.060252 266.738636 
L 248.092528 266.738636 
L 248.302326 267.238291 
L 248.366879 267.321567 
L 248.576677 267.821222 
L 248.657369 267.904497 
L 248.83489 268.237601 
L 248.996273 268.320876 
L 249.173794 268.65398 
L 249.238347 268.737255 
L 249.383592 268.903807 
L 249.544975 268.987083 
L 249.706358 269.23691 
L 249.819326 269.320186 
L 249.980709 269.570013 
L 250.303475 269.653289 
L 250.416443 269.819841 
L 250.432581 269.736565 
L 250.513273 269.819841 
L 250.610102 269.986392 
L 250.642379 269.903116 
L 250.884453 269.986392 
L 251.01356 270.069668 
L 251.255634 270.152944 
L 251.271772 270.23622 
L 251.352464 270.069668 
L 251.497709 270.152944 
L 251.626815 270.23622 
L 252.43373 270.152944 
L 252.562836 269.986392 
L 252.691942 270.152944 
L 252.837187 269.986392 
L 252.934017 269.903116 
L 252.99857 269.819841 
L 253.046985 269.903116 
L 253.611825 269.819841 
L 253.75707 269.653289 
L 254.273495 269.570013 
L 254.41874 269.403462 
L 254.499431 269.486737 
L 254.531708 269.403462 
L 254.773783 269.320186 
L 254.789921 269.23691 
L 254.838336 269.403462 
L 254.886751 269.320186 
L 255.354761 269.23691 
L 255.483867 269.153634 
L 255.709804 269.070358 
L 255.83891 268.987083 
L 256.000293 268.903807 
L 256.129399 268.737255 
L 256.258506 268.820531 
L 256.387612 268.737255 
L 256.50058 268.65398 
L 256.645825 268.487428 
L 256.968591 268.404152 
L 257.097697 268.320876 
L 257.129974 268.237601 
L 257.275218 268.071049 
L 257.517293 267.987773 
L 257.646399 267.904497 
L 258.01758 267.821222 
L 258.146686 267.65467 
L 258.162824 267.737946 
L 258.259654 267.65467 
L 258.372622 262.824674 
L 259.647548 262.90795 
L 259.679824 262.991225 
L 259.760516 262.90795 
L 260.244665 262.824674 
L 260.276941 262.658122 
L 260.357633 262.824674 
L 261.42276 262.90795 
L 261.471175 262.991225 
L 261.51959 262.824674 
L 261.535728 262.90795 
L 262.616994 262.824674 
L 262.649271 262.741398 
L 262.729962 262.824674 
L 263.230249 262.90795 
L 263.359356 262.991225 
L 264.392206 263.074501 
L 264.521313 263.157777 
L 266.377217 263.157777 
L 266.570876 244.503998 
L 267.151855 222.602464 
L 268.265397 196.703691 
L 268.507472 193.95559 
L 268.846376 188.043008 
L 268.910929 73.538788 
L 268.991621 146.488386 
L 269.153004 201.117308 
L 269.18528 201.367136 
L 269.233695 201.034033 
L 269.395078 200.367826 
L 269.653291 201.117308 
L 269.75012 201.200584 
L 269.959918 201.700239 
L 270.072886 201.783515 
L 270.153578 201.950066 
L 270.201993 201.866791 
L 270.282684 201.950066 
L 270.395652 202.116618 
L 270.411791 202.033342 
L 270.573173 201.950066 
L 270.621588 201.866791 
L 270.653865 201.950066 
L 270.782971 202.199894 
L 270.79911 202.28317 
L 270.879801 202.199894 
L 271.025046 202.033342 
L 271.154152 202.116618 
L 271.218705 202.28317 
L 271.26712 202.199894 
L 271.428503 201.866791 
L 271.444641 201.950066 
L 271.525333 201.866791 
L 271.670578 201.700239 
L 271.735131 201.616963 
L 271.944929 201.117308 
L 272.02562 201.034033 
L 272.283833 200.201275 
L 272.299971 200.28455 
L 272.396801 200.201275 
L 272.445216 200.201275 
L 272.59046 199.784896 
L 272.832535 199.118689 
L 272.88095 199.035414 
L 273.139162 198.285931 
L 273.332822 198.369207 
L 273.510343 198.70231 
L 273.558758 198.785586 
L 273.704003 198.952138 
L 273.800833 199.035414 
L 273.865386 199.118689 
L 273.897662 198.952138 
L 273.913801 199.035414 
L 274.059045 198.619035 
L 274.220428 198.369207 
L 274.268843 198.285931 
L 274.543194 197.203346 
L 274.575471 197.286622 
L 274.86596 197.203346 
L 274.946651 197.036794 
L 274.96279 197.12007 
L 275.043481 197.203346 
L 275.075758 197.12007 
L 275.172588 197.036794 
L 275.366247 196.620415 
L 275.495354 196.53714 
L 275.753566 195.621106 
L 275.769705 195.704382 
L 275.834258 195.621106 
L 276.076332 194.954899 
L 276.140885 195.121451 
L 276.173162 194.954899 
L 276.544343 193.539211 
L 276.560481 193.622487 
L 276.608896 193.289384 
L 276.689587 193.206108 
L 277.060768 190.707834 
L 277.286704 187.626629 
L 277.351257 70.957238 
L 277.431949 134.080292 
L 277.593332 198.036104 
L 277.754715 199.285241 
L 278.255002 202.449721 
L 278.480938 203.698858 
L 278.868257 205.281098 
L 278.884396 205.197822 
L 278.916672 205.281098 
L 279.094193 205.614201 
L 279.158747 205.697477 
L 279.336268 206.03058 
L 279.69131 205.947305 
L 279.852693 205.697477 
L 280.014076 205.614201 
L 280.240012 205.031271 
L 280.54664 204.947995 
L 280.675746 204.864719 
L 280.804853 204.781443 
L 280.820991 204.698168 
L 280.885544 204.864719 
L 280.917821 204.781443 
L 281.079204 204.698168 
L 281.20831 204.614892 
L 281.563353 204.531616 
L 281.708597 204.281789 
L 281.837704 204.365065 
L 282.031363 204.281789 
L 282.160469 204.198513 
L 282.225023 204.281789 
L 282.257299 204.115237 
L 282.273438 204.198513 
L 282.418682 204.031961 
L 282.483235 203.948686 
L 282.644618 203.698858 
L 282.693033 203.782134 
L 282.773725 203.86541 
L 282.806001 203.782134 
L 282.951246 203.698858 
L 283.128767 203.365755 
L 283.499948 203.282479 
L 283.645193 203.115928 
L 283.903405 203.032652 
L 284.097065 202.616273 
L 284.161618 202.532997 
L 284.306863 202.199894 
L 284.323001 202.28317 
L 284.371416 202.199894 
L 284.548937 201.866791 
L 284.597352 201.783515 
L 284.758735 201.367136 
L 284.774873 201.450412 
L 284.871703 201.367136 
L 285.033086 201.117308 
L 285.065363 201.034033 
L 285.27516 200.534378 
L 285.307437 200.451102 
L 285.452682 200.28455 
L 285.484958 200.201275 
L 285.662479 199.784896 
L 285.678618 199.868171 
L 285.743171 199.70162 
L 285.759309 199.70162 
L 285.823862 199.618344 
L 286.001384 199.285241 
L 286.082075 199.368517 
L 286.114352 199.285241 
L 286.146628 199.201965 
L 286.308011 198.868862 
L 286.453256 199.035414 
L 286.517809 198.952138 
L 286.550086 198.868862 
L 286.614639 199.035414 
L 286.630777 198.952138 
L 286.969681 198.868862 
L 287.001958 198.785586 
L 287.082649 198.868862 
L 287.486107 198.785586 
L 287.631352 198.619035 
L 287.776596 198.535759 
L 288.083224 197.536449 
L 288.341436 197.453173 
L 288.486681 197.12007 
L 288.502819 197.203346 
L 288.535096 197.286622 
L 288.567373 197.369898 
L 288.631926 197.203346 
L 288.728756 197.12007 
L 288.954692 196.53714 
L 289.003107 196.620415 
L 289.16449 196.953519 
L 289.212904 196.870243 
L 289.261319 197.036794 
L 289.600224 196.953519 
L 289.745468 196.453864 
L 289.793883 196.370588 
L 289.922989 196.287312 
L 289.987543 196.204036 
L 290.342585 194.871624 
L 290.358723 194.954899 
L 290.391 194.788348 
L 290.455553 194.871624 
L 290.568521 194.705072 
L 290.58466 194.788348 
L 290.681489 194.705072 
L 290.859011 194.371969 
L 290.907425 194.288693 
L 291.068808 194.038866 
L 291.133362 193.95559 
L 291.375436 193.289384 
L 291.423851 193.206108 
L 292.053244 189.458697 
L 292.101659 186.544044 
L 292.166212 71.290341 
L 292.230766 122.088577 
L 292.408287 197.453173 
L 292.553532 198.11938 
L 292.634223 198.202656 
L 293.392723 201.533687 
L 293.424999 201.616963 
L 293.812319 203.032652 
L 293.876872 203.115928 
L 294.118946 203.782134 
L 294.248053 203.86541 
L 294.377159 204.031961 
L 294.506265 203.948686 
L 294.667648 204.031961 
L 294.829031 204.281789 
L 294.877446 204.365065 
L 295.006552 204.44834 
L 295.11952 204.531616 
L 295.21635 204.614892 
L 295.232489 204.531616 
L 295.490701 204.44834 
L 295.652084 204.198513 
L 295.700499 204.115237 
L 295.87802 203.782134 
L 295.990988 203.698858 
L 296.152371 203.449031 
L 296.216925 203.365755 
L 296.394446 203.032652 
L 296.555829 202.949376 
L 296.571967 202.8661 
L 296.652659 202.949376 
L 296.862456 203.449031 
L 297.29819 203.365755 
L 297.475712 203.032652 
L 297.669371 202.949376 
L 297.879169 202.449721 
L 297.911446 202.366445 
L 298.072828 202.116618 
L 298.121243 202.033342 
L 298.282626 201.783515 
L 298.34718 201.700239 
L 298.556977 201.200584 
L 298.686084 201.117308 
L 298.976573 200.201275 
L 299.057265 200.117999 
L 299.299339 199.451792 
L 299.912594 199.368517 
L 300.090115 199.035414 
L 300.380605 198.952138 
L 300.509711 198.868862 
L 300.606541 198.785586 
L 300.703371 198.70231 
L 300.719509 198.785586 
L 300.8002 198.70231 
L 300.913168 198.619035 
L 300.945445 198.70231 
L 300.977722 198.535759 
L 301.009998 198.535759 
L 301.042275 198.535759 
L 301.171381 198.202656 
L 301.268211 198.11938 
L 301.413456 197.952828 
L 301.478009 198.036104 
L 301.510285 197.952828 
L 301.639392 197.786277 
L 301.703945 197.952828 
L 301.768498 197.869552 
L 301.816913 197.952828 
L 301.946019 198.036104 
L 302.139679 198.11938 
L 302.284924 198.369207 
L 302.397892 198.285931 
L 302.51086 198.369207 
L 302.672243 197.952828 
L 302.688381 198.036104 
L 302.849764 197.952828 
L 303.043423 197.536449 
L 303.091838 197.453173 
L 303.285498 197.036794 
L 303.333913 196.953519 
L 303.511434 196.620415 
L 303.608264 196.53714 
L 303.769647 196.287312 
L 303.963306 196.204036 
L 304.092413 195.870933 
L 304.156966 195.787657 
L 304.30221 195.454554 
L 304.318349 195.53783 
L 304.479732 195.454554 
L 304.608838 195.121451 
L 304.641115 195.204727 
L 304.721806 195.204727 
L 304.818636 194.871624 
L 304.850912 194.954899 
L 304.899327 194.954899 
L 305.06071 194.205417 
L 305.109125 194.288693 
L 305.141402 194.038866 
L 305.15754 194.122142 
L 305.189817 194.038866 
L 305.399615 193.539211 
L 305.464168 193.455935 
L 305.81921 192.206798 
L 305.835348 192.206798 
L 306.093561 190.541282 
L 306.125838 190.458006 
L 306.335636 187.626629 
L 306.351774 186.62732 
L 306.416327 71.70672 
L 306.497019 134.33012 
L 306.658402 197.036794 
L 306.739093 197.703001 
L 306.787508 197.536449 
L 306.965029 197.203346 
L 307.207104 197.286622 
L 307.836497 199.951447 
L 307.868774 200.034723 
L 308.062433 200.451102 
L 308.110848 200.534378 
L 308.304508 201.450412 
L 308.482029 201.783515 
L 308.788657 201.700239 
L 308.885486 201.616963 
L 308.901625 201.700239 
L 309.095284 201.783515 
L 309.22439 201.950066 
L 309.353497 201.866791 
L 309.466465 201.950066 
L 309.579433 202.033342 
L 309.740816 201.783515 
L 310.111997 201.866791 
L 310.257241 202.033342 
L 310.434763 201.950066 
L 310.596146 201.700239 
L 310.967326 201.616963 
L 311.112571 201.450412 
L 311.160986 201.367136 
L 311.419199 200.617654 
L 311.548305 200.534378 
L 311.725826 200.201275 
L 311.919486 200.117999 
L 312.048592 200.034723 
L 312.306805 199.951447 
L 312.484326 199.618344 
L 312.532741 199.535068 
L 312.710262 199.201965 
L 312.903922 199.118689 
L 313.065305 198.868862 
L 313.178273 198.785586 
L 313.323517 198.619035 
L 313.67856 198.535759 
L 313.743113 198.619035 
L 313.856081 198.202656 
L 314.162709 198.11938 
L 314.275677 198.036104 
L 314.404783 198.11938 
L 314.646858 197.453173 
L 314.743687 197.369898 
L 314.856655 197.12007 
L 314.888932 197.203346 
L 314.985762 197.12007 
L 315.19556 196.620415 
L 315.260113 196.53714 
L 315.437634 196.204036 
L 315.631294 196.120761 
L 315.776538 195.954209 
L 315.905645 195.870933 
L 315.937921 195.787657 
L 315.986336 195.954209 
L 316.228411 197.453173 
L 316.260687 197.536449 
L 316.42207 198.11938 
L 316.631868 198.70231 
L 316.777113 198.535759 
L 317.116017 198.452483 
L 317.2774 198.202656 
L 317.422644 198.369207 
L 317.713134 198.285931 
L 317.84224 198.202656 
L 317.874517 198.11938 
L 318.229559 196.870243 
L 318.310251 196.786967 
L 318.826676 194.705072 
L 318.891229 194.621796 
L 319.213995 193.539211 
L 319.310825 193.539211 
L 319.472208 192.95628 
L 319.633591 191.623868 
L 319.859527 188.20956 
L 319.891804 132.164949 
L 319.92408 72.789306 
L 319.988633 112.178758 
L 320.166155 195.038175 
L 320.246846 195.787657 
L 320.295261 195.53783 
L 320.359814 195.621106 
L 320.569612 196.120761 
L 320.58575 196.037485 
L 320.618027 196.204036 
L 320.666442 196.204036 
L 320.843963 196.53714 
L 320.892378 196.620415 
L 321.311974 198.202656 
L 321.360388 198.285931 
L 321.554048 198.70231 
L 321.699293 198.785586 
L 321.844537 198.952138 
L 321.941367 199.035414 
L 322.118888 199.368517 
L 322.29641 199.451792 
L 322.441654 199.70162 
L 322.473931 199.618344 
L 322.538484 199.70162 
L 322.699867 199.951447 
L 322.716005 199.868171 
L 322.780558 200.034723 
L 323.022633 200.700929 
L 323.652026 200.617654 
L 323.764994 200.451102 
L 323.781133 200.534378 
L 323.877963 200.451102 
L 324.023207 200.117999 
L 324.039345 200.201275 
L 324.152314 200.117999 
L 324.168452 200.034723 
L 324.233005 200.28455 
L 324.249143 200.201275 
L 324.265282 200.28455 
L 324.329835 200.117999 
L 324.345973 200.117999 
L 324.475079 200.034723 
L 324.701016 200.117999 
L 324.830122 200.28455 
L 324.894675 200.201275 
L 324.94309 200.28455 
L 325.685452 200.201275 
L 325.846835 199.951447 
L 325.911388 199.868171 
L 326.040494 199.784896 
L 326.185739 199.70162 
L 326.379398 199.285241 
L 326.395537 199.285241 
L 326.540781 198.868862 
L 326.589196 198.785586 
L 326.798994 198.285931 
L 326.9281 198.202656 
L 327.073345 197.952828 
L 327.089483 198.036104 
L 327.12176 197.869552 
L 327.154036 197.869552 
L 327.299281 197.703001 
L 327.412249 197.786277 
L 327.525217 197.703001 
L 327.573632 197.786277 
L 327.605909 197.619725 
L 327.622047 197.703001 
L 327.751153 197.619725 
L 327.78343 197.536449 
L 327.960951 197.203346 
L 328.186887 197.12007 
L 328.428962 196.453864 
L 328.493515 196.453864 
L 328.622621 195.954209 
L 328.63876 196.037485 
L 328.961525 196.120761 
L 328.977664 196.204036 
L 329.00994 196.037485 
L 329.058355 196.037485 
L 329.187462 195.954209 
L 329.252015 195.870933 
L 329.461813 195.371278 
L 329.558642 195.288003 
L 329.687749 195.204727 
L 329.800717 195.288003 
L 329.9621 194.788348 
L 329.978238 194.871624 
L 330.091206 195.204727 
L 330.123483 195.038175 
L 330.204174 194.954899 
L 330.397834 194.455245 
L 330.43011 194.53852 
L 330.478525 194.371969 
L 330.494664 194.371969 
L 330.688323 194.371969 
L 330.833568 193.95559 
L 330.930398 193.95559 
L 331.124057 213.025747 
L 331.495238 226.516426 
L 332.076216 238.674693 
L 332.786301 248.001582 
L 333.528663 254.58037 
L 335.158631 262.408295 
L 335.174769 262.408295 
L 335.336152 263.074501 
L 335.35229 263.074501 
L 335.529812 263.823983 
L 335.997822 265.656051 
L 336.046237 265.739327 
L 336.272173 266.322257 
L 336.30445 266.405533 
L 336.530386 266.988464 
L 336.675631 267.071739 
L 336.86929 267.488118 
L 336.917705 267.571394 
L 337.079088 267.987773 
L 337.095226 267.904497 
L 337.111365 267.904497 
L 337.256609 268.320876 
L 337.337301 268.404152 
L 337.53096 268.820531 
L 337.660067 268.903807 
L 337.853726 269.320186 
L 338.015109 269.403462 
L 338.19263 269.736565 
L 338.321737 269.819841 
L 338.466981 269.986392 
L 338.579949 270.069668 
L 338.709056 270.152944 
L 339.306173 270.069668 
L 339.386864 269.986392 
L 339.419141 270.069668 
L 340.758619 269.986392 
L 340.920002 269.736565 
L 341.065247 269.653289 
L 341.22663 269.403462 
L 341.371874 269.320186 
L 341.517119 269.153634 
L 341.662364 269.070358 
L 341.69464 268.987083 
L 341.775332 269.070358 
L 341.936715 268.987083 
L 342.065821 268.903807 
L 342.194928 268.987083 
L 342.630662 268.903807 
L 342.6468 268.820531 
L 342.679076 268.987083 
L 342.74363 268.903807 
L 343.11481 268.820531 
L 343.163225 268.737255 
L 343.227778 268.820531 
L 343.760342 268.737255 
L 343.792619 268.65398 
L 343.87331 268.737255 
L 343.97014 268.65398 
L 344.050831 268.570704 
L 344.083108 268.65398 
L 344.228353 268.570704 
L 344.357459 268.487428 
L 344.680225 268.404152 
L 344.696363 268.320876 
L 344.793193 268.404152 
L 344.922299 268.320876 
L 345.051406 268.237601 
L 345.083682 268.320876 
L 345.164374 268.237601 
L 345.600108 268.154325 
L 345.616246 268.071049 
L 345.713076 268.154325 
L 345.793767 268.071049 
L 345.922874 267.987773 
L 346.068118 267.904497 
L 346.181086 267.737946 
L 346.197225 267.821222 
L 346.261778 267.737946 
L 346.390884 267.65467 
L 346.568406 267.571394 
L 346.584544 267.488118 
L 346.681374 267.571394 
L 346.971863 267.488118 
L 347.117108 267.321567 
L 347.940161 267.404843 
L 347.972437 267.488118 
L 348.053129 267.404843 
L 349.666958 267.488118 
L 349.683097 267.571394 
L 349.779926 267.488118 
L 351.16782 267.571394 
L 351.264649 267.65467 
L 351.280788 267.571394 
L 353.362628 267.488118 
L 353.394904 267.404843 
L 353.443319 267.571394 
L 353.475596 267.488118 
L 354.702106 267.404843 
L 354.815074 267.321567 
L 354.831213 267.404843 
L 354.879628 267.238291 
L 354.928042 267.321567 
L 355.024872 267.238291 
L 355.041011 267.321567 
L 355.121702 267.321567 
L 355.13784 267.155015 
L 355.3315 230.59694 
L 355.79951 193.539211 
L 355.89634 179.798704 
L 355.944755 68.875343 
L 356.009308 124.337024 
L 356.154553 191.873695 
L 356.170691 191.707143 
L 356.364351 185.461459 
L 356.800085 174.219226 
L 356.864638 71.373617 
L 356.945329 123.171163 
L 357.122851 185.461459 
L 357.284234 186.960423 
L 357.494031 187.460078 
L 357.542446 187.376802 
L 357.590861 187.460078 
L 357.703829 187.793181 
L 357.719968 187.709905 
L 357.865212 187.626629 
L 358.187978 186.544044 
L 358.236393 186.460768 
L 358.768957 183.129736 
L 359.043308 179.215774 
L 359.172414 173.386468 
L 359.236967 68.042585 
L 359.30152 109.847035 
L 359.49518 185.711286 
L 359.672701 188.126284 
L 359.898637 188.875766 
L 359.914776 188.792491 
L 360.092297 188.875766 
L 360.140712 188.959042 
L 360.172988 188.792491 
L 360.189127 188.792491 
L 360.25368 188.709215 
L 360.528031 187.876457 
L 360.640999 187.793181 
L 360.834658 187.126975 
L 360.866935 187.21025 
L 360.947627 187.126975 
L 361.092871 186.710596 
L 361.125148 186.793871 
L 361.173563 186.710596 
L 361.383361 186.210941 
L 361.447914 186.127665 
L 361.722265 185.294907 
L 361.786818 185.211631 
L 362.028892 184.545425 
L 362.125722 184.462149 
L 362.43235 183.46284 
L 362.496903 183.379564 
L 363.303818 179.798704 
L 363.352233 179.88198 
L 363.384509 179.632153 
L 363.56203 175.468363 
L 363.626584 66.96 
L 363.707275 119.923407 
L 363.884796 184.628701 
L 364.046179 186.793871 
L 364.143009 186.877147 
L 364.304392 187.126975 
L 364.336669 187.21025 
L 364.352807 187.293526 
L 364.433498 187.21025 
L 364.449637 187.126975 
L 364.530328 187.293526 
L 364.836956 187.376802 
L 364.853094 187.460078 
L 364.885371 187.293526 
L 364.917647 187.293526 
L 365.304966 185.877838 
L 365.595456 185.794562 
L 366.257126 182.963185 
L 366.321679 183.046461 
L 366.370094 183.213012 
L 366.418509 182.963185 
L 366.773551 181.714048 
L 366.805828 181.797324 
L 366.838104 181.547496 
L 366.967211 181.214393 
L 366.999487 181.297669 
L 367.015626 181.380945 
L 367.06404 181.214393 
L 367.080179 181.214393 
L 367.225423 181.047841 
L 367.273838 180.964566 
L 367.45136 180.215083 
L 367.628881 178.716119 
L 367.854817 177.383706 
L 367.887093 177.300431 
L 367.967785 175.801466 
L 368.000062 169.888885 
L 368.064615 68.125861 
L 368.129168 107.931692 
L 368.338966 183.795943 
L 368.516487 185.711286 
L 368.694008 186.127665 
L 368.806976 186.044389 
L 368.952221 186.210941 
L 369.000636 186.044389 
L 369.081327 186.127665 
L 369.194295 186.294217 
L 369.210434 186.210941 
L 369.24271 186.210941 
L 369.323402 186.044389 
L 369.355678 186.127665 
L 369.387955 186.377492 
L 369.484785 186.210941 
L 369.581614 186.127665 
L 369.839827 185.378183 
L 369.952795 185.294907 
L 370.501497 183.046461 
L 370.533774 182.963185 
L 370.695157 182.213703 
L 370.808125 182.296978 
L 371.114753 181.297669 
L 371.163167 181.214393 
L 371.308412 180.964566 
L 371.32455 181.047841 
L 371.389104 180.798014 
L 371.405242 180.88129 
L 371.534348 180.964566 
L 371.679593 181.380945 
L 371.744146 181.214393 
L 371.808699 181.297669 
L 371.857114 181.214393 
L 371.970082 180.964566 
L 372.002359 181.047841 
L 372.08305 180.964566 
L 372.551061 179.049222 
L 372.567199 179.132498 
L 372.615614 178.882671 
L 372.825412 177.383706 
L 372.922242 173.886123 
L 372.986795 67.626206 
L 373.067486 112.92824 
L 373.261146 181.880599 
L 373.454805 183.712667 
L 373.69688 184.378873 
L 373.858263 184.295598 
L 373.955092 184.129046 
L 373.971231 184.212322 
L 374.051922 184.378873 
L 374.084199 184.295598 
L 374.374688 183.379564 
L 374.45538 183.296288 
L 374.616763 182.963185 
L 374.713592 183.046461 
L 374.729731 182.963185 
L 374.842699 182.879909 
L 375.068635 182.296978 
L 375.100911 182.380254 
L 375.197741 182.546806 
L 375.230018 182.46353 
L 375.262294 182.380254 
L 375.617337 181.131117 
L 375.665752 181.047841 
L 375.827135 180.381635 
L 375.859411 180.464911 
L 375.891688 180.548187 
L 375.940103 180.298359 
L 376.149901 179.715429 
L 376.182177 179.798704 
L 376.262869 179.715429 
L 376.295145 179.632153 
L 376.698603 178.133189 
L 376.779294 178.216464 
L 376.795432 178.133189 
L 377.118198 175.884742 
L 377.182752 174.13595 
L 377.215028 143.906836 
L 377.263443 68.292413 
L 377.327996 102.352214 
L 377.537794 179.88198 
L 377.683039 182.047151 
L 377.699177 181.963875 
L 377.95739 182.713357 
L 378.054219 182.796633 
L 378.215602 183.046461 
L 378.393124 182.963185 
L 378.538368 182.796633 
L 378.586783 182.713357 
L 378.877273 181.797324 
L 378.941826 181.714048 
L 378.990241 181.630772 
L 379.022517 181.797324 
L 379.038655 181.797324 
L 379.167762 181.714048 
L 379.474389 180.714738 
L 379.522804 180.631462 
L 379.668049 180.464911 
L 379.74874 180.381635 
L 379.990815 179.715429 
L 380.023091 179.632153 
L 380.216751 178.549568 
L 380.232889 178.632843 
L 380.297442 178.383016 
L 380.426549 178.29974 
L 380.491102 178.383016 
L 380.571794 178.549568 
L 380.620208 178.466292 
L 380.684762 178.383016 
L 380.846145 178.049913 
L 380.862283 178.133189 
L 380.910698 177.800085 
L 380.959113 177.71681 
L 381.394847 174.885432 
L 381.540091 171.720952 
L 381.572368 139.160116 
L 381.620783 67.95931 
L 381.685336 101.519456 
L 381.911272 180.964566 
L 382.104932 182.879909 
L 382.185623 182.963185 
L 382.395421 183.46284 
L 382.459974 183.546115 
L 382.605219 183.712667 
L 382.702048 183.629391 
L 382.944123 182.963185 
L 383.121644 183.046461 
L 383.234612 183.379564 
L 383.283027 183.296288 
L 383.379857 183.379564 
L 383.395995 183.46284 
L 383.44441 183.296288 
L 383.460548 183.296288 
L 383.670346 182.796633 
L 383.702623 182.713357 
L 383.912421 182.213703 
L 383.944697 182.130427 
L 384.089942 181.797324 
L 384.10608 181.880599 
L 384.154495 181.797324 
L 384.348155 181.380945 
L 384.380431 181.297669 
L 384.477261 181.047841 
L 384.525676 181.131117 
L 384.735474 181.047841 
L 384.896857 180.631462 
L 384.912995 180.714738 
L 384.993686 180.631462 
L 385.042101 180.548187 
L 385.106654 180.631462 
L 385.171208 180.548187 
L 385.300314 180.215083 
L 385.332591 180.298359 
L 385.364867 180.464911 
L 385.42942 180.298359 
L 386.123367 176.217845 
L 386.317027 171.554401 
L 386.38158 69.708101 
L 386.47841 119.090649 
L 386.672069 179.548877 
L 386.833452 181.131117 
L 386.84959 181.047841 
L 386.898005 181.380945 
L 387.107803 182.047151 
L 387.123941 181.963875 
L 387.172356 182.047151 
L 387.349877 182.380254 
L 387.527399 182.047151 
L 387.688782 181.963875 
L 387.882441 181.547496 
L 387.979271 181.547496 
L 388.140654 182.213703 
L 388.318175 181.880599 
L 388.415005 181.963875 
L 388.431143 181.880599 
L 388.527973 181.797324 
L 388.657079 181.714048 
L 388.689356 181.797324 
L 388.737771 181.630772 
L 388.753909 181.630772 
L 389.012122 180.88129 
L 389.076675 180.88129 
L 389.238058 180.298359 
L 390.077249 175.385087 
L 390.319324 170.471815 
L 390.3516 129.916502 
L 390.400015 69.291722 
L 390.464568 102.851868 
L 390.674366 177.71681 
L 390.835749 179.798704 
L 390.868026 179.88198 
L 391.142377 180.714738 
L 391.158515 180.714738 
L 391.174653 180.548187 
L 391.271483 180.631462 
L 391.352175 180.464911 
L 391.384451 180.631462 
L 391.497419 180.548187 
L 391.513558 180.464911 
L 391.594249 180.631462 
L 391.739494 180.548187 
L 391.96543 179.965256 
L 392.078398 179.88198 
L 392.417302 178.716119 
L 392.449579 178.716119 
L 392.610962 178.049913 
L 392.659377 177.966637 
L 392.869174 176.884052 
L 392.885313 176.884052 
L 393.175802 174.968708 
L 393.627674 172.054055 
L 393.724504 169.472506 
L 393.756781 138.07753 
L 393.805196 69.874653 
L 393.869749 97.022563 
L 394.111823 177.050603 
L 394.305483 179.632153 
L 394.499142 180.631462 
L 394.547557 180.714738 
L 394.757355 181.214393 
L 394.967153 181.297669 
L 395.015568 181.46422 
L 395.080121 181.380945 
L 395.386749 180.381635 
L 395.419025 180.298359 
L 395.56427 180.131808 
L 395.612685 180.131808 
L 395.757929 179.715429 
L 395.806344 179.632153 
L 395.967727 179.132498 
L 396.000004 179.215774 
L 396.096833 179.132498 
L 396.290493 178.216464 
L 396.32277 178.133189 
L 396.726227 176.634224 
L 396.758504 176.550948 
L 397.048993 175.301811 
L 397.097408 175.385087 
L 397.129684 175.468363 
L 397.161961 175.301811 
L 397.517003 170.97147 
L 397.565418 165.058888 
L 397.629972 70.12448 
L 397.710663 106.349452 
L 397.936599 176.467673 
L 398.130259 179.049222 
L 398.162535 179.132498 
L 398.501439 180.298359 
L 398.582131 180.381635 
L 398.727376 180.548187 
L 398.904897 180.464911 
L 399.050142 180.298359 
L 399.211524 180.215083 
L 399.453599 179.548877 
L 399.582705 179.465601 
L 399.744088 179.132498 
L 399.857056 179.215774 
L 399.889333 179.132498 
L 399.953886 179.29905 
L 400.018439 179.215774 
L 400.438035 177.633534 
L 400.470311 177.550258 
L 401.196535 173.303192 
L 401.406333 168.972851 
L 401.487024 70.12448 
L 401.583854 118.174615 
L 401.777513 174.968708 
L 401.955035 177.633534 
L 402.229386 179.382326 
L 402.358492 179.632153 
L 402.37463 179.548877 
L 402.439183 179.465601 
L 402.519875 179.382326 
L 402.552152 179.465601 
L 402.842641 179.382326 
L 403.068577 178.799395 
L 403.100854 178.716119 
L 403.294513 178.29974 
L 403.342928 178.216464 
L 403.455896 178.049913 
L 403.472034 178.133189 
L 403.923907 178.049913 
L 404.053013 177.966637 
L 404.165981 178.049913 
L 404.214396 178.133189 
L 404.278949 178.049913 
L 404.359641 178.133189 
L 404.424194 178.216464 
L 404.472609 178.133189 
L 404.521024 178.049913 
L 404.730821 177.217155 
L 404.779236 177.300431 
L 404.843789 177.383706 
L 404.892204 177.300431 
L 405.102002 177.217155 
L 405.344077 176.550948 
L 405.392492 176.467673 
L 405.50546 175.968018 
L 405.537736 176.051294 
L 405.602289 175.968018 
L 406.005747 173.303192 
L 406.215545 170.138712 
L 406.296236 165.391992 
L 406.376928 71.207066 
L 406.441481 103.684626 
L 406.667417 175.71819 
L 406.861076 178.716119 
L 407.280672 180.298359 
L 407.442055 180.215083 
L 407.571161 179.88198 
L 407.813236 179.965256 
L 407.893927 180.048532 
L 407.926204 179.965256 
L 408.119863 180.048532 
L 408.200555 180.215083 
L 408.24897 180.131808 
L 408.3458 180.048532 
L 408.523321 179.715429 
L 408.604012 179.715429 
L 408.797672 178.799395 
L 409.104299 177.800085 
L 409.152714 177.71681 
L 409.749831 175.218536 
L 409.798246 175.13526 
L 409.927352 174.552329 
L 409.975767 174.802157 
L 410.395363 174.718881 
L 410.944065 171.304573 
L 411.105448 164.392682 
L 411.186139 71.207066 
L 411.250693 102.268938 
L 411.476629 175.551639 
L 411.65415 178.466292 
L 411.896224 179.88198 
L 412.057607 180.131808 
L 412.138299 180.048532 
L 412.267405 179.88198 
L 412.299682 179.965256 
L 412.348097 179.798704 
L 412.364235 179.798704 
L 412.525618 179.715429 
L 412.590171 179.632153 
L 412.622448 179.798704 
L 412.703139 180.131808 
L 412.767692 180.048532 
L 412.97749 179.548877 
L 413.058182 179.465601 
L 413.203426 179.29905 
L 413.300256 179.215774 
L 413.477777 178.549568 
L 413.510054 178.716119 
L 413.752128 178.632843 
L 414.252416 176.634224 
L 414.316969 176.550948 
L 414.462213 176.384397 
L 414.510628 176.301121 
L 414.801118 175.385087 
L 414.833394 175.301811 
L 415.382096 168.639748 
L 415.414373 160.395444 
L 415.478926 70.957238 
L 415.543479 98.354975 
L 415.785554 175.71819 
L 415.979213 178.383016 
L 416.189011 179.465601 
L 416.414947 180.048532 
L 416.544053 179.965256 
L 416.76999 179.965256 
L 416.931373 179.382326 
L 416.963649 179.465601 
L 417.012064 179.215774 
L 417.060479 179.132498 
L 417.286415 178.549568 
L 417.399383 178.466292 
L 417.818979 176.884052 
L 417.851255 176.800776 
L 418.109468 176.051294 
L 418.238574 175.968018 
L 418.56134 174.885432 
L 418.577479 174.968708 
L 418.625894 174.802157 
L 418.642032 174.802157 
L 419.126181 171.720952 
L 419.335979 167.890266 
L 419.368255 152.317692 
L 419.432808 71.12379 
L 419.497362 99.187733 
L 419.787851 198.619035 
L 420.046064 218.438674 
L 420.433383 233.011939 
L 420.83684 242.089 
L 421.224159 247.83503 
L 421.627616 252.415199 
L 421.788999 253.830888 
L 422.224733 257.245195 
L 422.757297 260.576227 
L 422.950957 261.492261 
L 423.67718 264.656741 
L 423.709457 264.740017 
L 424.145191 266.405533 
L 424.177467 266.488809 
L 424.451818 267.321567 
L 424.500233 267.404843 
L 424.758446 268.154325 
L 424.855276 268.237601 
L 425.129627 269.070358 
L 425.145765 268.987083 
L 425.178041 269.153634 
L 425.210318 269.153634 
L 425.436254 269.736565 
L 425.549222 269.819841 
L 425.726743 270.152944 
L 425.839712 270.23622 
L 426.017233 270.569323 
L 426.097924 270.652599 
L 426.259307 270.902426 
L 426.32386 270.985702 
L 426.501382 271.318805 
L 426.51752 271.235529 
L 426.582073 271.402081 
L 426.598211 271.402081 
L 426.727318 271.485357 
L 426.824148 271.568632 
L 426.98553 271.81846 
L 427.033945 271.901736 
L 427.163052 271.985011 
L 427.243743 272.068287 
L 427.388988 272.318115 
L 427.421264 272.234839 
L 427.501956 272.318115 
L 428.131349 272.40139 
L 428.276594 272.567942 
L 429.148062 272.651218 
L 429.1642 272.734494 
L 429.244892 272.651218 
L 429.341722 272.567942 
L 429.35786 272.651218 
L 429.729041 272.734494 
L 429.793594 272.817769 
L 429.842009 272.734494 
L 430.697338 272.651218 
L 430.826445 272.567942 
L 431.310594 272.484666 
L 431.375147 272.40139 
L 431.423562 272.484666 
L 431.4397 272.567942 
L 431.520391 272.484666 
L 431.649498 272.40139 
L 432.036817 272.318115 
L 432.165923 272.234839 
L 432.633934 272.151563 
L 432.76304 272.068287 
L 433.392434 271.985011 
L 433.52154 271.901736 
L 433.795891 271.81846 
L 433.860444 271.651908 
L 433.908859 271.735184 
L 433.989551 271.81846 
L 434.021827 271.735184 
L 434.74805 271.651908 
L 434.877157 271.568632 
L 435.232199 271.485357 
L 435.377444 271.318805 
L 435.458135 271.402081 
L 435.490412 271.318805 
L 435.780901 271.318805 
L 435.780901 271.318805 
" style="fill:none;stroke:#1f77b4;stroke-linecap:square;stroke-width:1.5;"/>
   </g>
   <g id="line2d_15">
    <path clip-path="url(#p21dca969ff)" d="M 80.754545 263.807328 
L 82.206992 266.621384 
L 82.465205 267.047756 
L 82.965492 267.849335 
L 83.352811 268.412147 
L 83.723992 268.940848 
L 84.450215 269.861812 
L 84.740704 270.219964 
L 86.854821 272.30066 
L 86.983927 272.402989 
L 87.548768 272.846416 
L 87.710151 272.948746 
L 88.178161 273.289843 
L 88.339544 273.392172 
L 88.710725 273.630941 
L 88.888246 273.73327 
L 88.904385 273.750325 
L 88.920523 273.613886 
L 89.921097 266.092682 
L 91.873831 254.410088 
L 92.955097 249.293623 
L 94.391405 243.699621 
L 96.42483 237.611028 
L 99.555659 231.249556 
L 99.894564 230.73791 
L 100.298021 230.140989 
L 100.814446 229.441739 
L 101.137212 229.015367 
L 104.28418 225.843158 
L 104.429424 225.740829 
L 104.961988 225.331512 
L 105.123371 225.229182 
L 105.575243 224.90514 
L 105.752765 224.80281 
L 106.140084 224.546987 
L 106.317605 224.444658 
L 106.656509 224.239999 
L 106.850169 224.13767 
L 107.156796 223.967121 
L 107.366594 223.864792 
L 107.657084 223.711298 
L 107.88302 223.608969 
L 108.157371 223.472529 
L 108.383307 223.3702 
L 108.64152 223.250816 
L 108.899732 223.148487 
L 109.157945 223.029103 
L 109.448434 222.926773 
L 109.690509 222.824444 
L 109.980998 222.722115 
L 110.206934 222.63684 
L 110.513562 222.534511 
L 110.739498 222.449236 
L 111.078402 222.346907 
L 111.304338 222.261633 
L 111.691657 222.159303 
L 111.901455 222.091084 
L 112.288774 221.988755 
L 112.498572 221.920535 
L 112.918168 221.818206 
L 113.111827 221.767041 
L 113.547561 221.664712 
L 113.741221 221.613547 
L 114.209231 221.511218 
L 114.402891 221.460053 
L 114.935455 221.357724 
L 115.129114 221.306559 
L 115.726231 221.20423 
L 115.919891 221.153065 
L 116.581561 221.050736 
L 116.759082 221.016626 
L 117.420752 220.914297 
L 117.598273 220.880187 
L 118.324497 220.777858 
L 118.502018 220.743748 
L 119.308933 220.641419 
L 119.486454 220.607309 
L 120.406337 220.50498 
L 120.583858 220.47087 
L 121.616709 220.368541 
L 121.79423 220.334431 
L 122.956187 220.232102 
L 123.11757 220.215047 
L 124.247251 220.112718 
L 124.408634 220.095663 
L 125.683559 219.993333 
L 125.844942 219.976278 
L 127.265112 219.873949 
L 127.426495 219.856894 
L 129.024186 219.754565 
L 129.185569 219.73751 
L 130.97692 219.635181 
L 131.138303 219.618126 
L 133.139452 219.515797 
L 133.300835 219.498742 
L 135.544058 219.396412 
L 135.705441 219.379358 
L 138.206876 219.277028 
L 138.368259 219.259973 
L 141.160184 219.157644 
L 141.321567 219.140589 
L 144.452397 219.03826 
L 144.61378 219.021205 
L 148.11579 218.918876 
L 148.277173 218.901821 
L 152.198778 218.799492 
L 152.360161 218.782437 
L 153.457565 218.765382 
L 154.92615 230.260373 
L 156.927299 242.249956 
L 157.992426 247.281146 
L 159.412596 252.806929 
L 161.446021 258.895522 
L 164.544574 265.188774 
L 164.86734 265.683365 
L 165.270797 266.280286 
L 165.771085 266.962482 
L 166.09385 267.388854 
L 169.240818 270.561062 
L 169.386063 270.663391 
L 169.515169 270.76572 
L 169.531307 263.807328 
L 169.628137 264.011987 
L 170.983754 266.621384 
L 171.241967 267.047756 
L 171.742254 267.849335 
L 172.129573 268.412147 
L 172.500754 268.940848 
L 173.226977 269.861812 
L 173.517466 270.219964 
L 175.631583 272.30066 
L 175.760689 272.402989 
L 176.32553 272.846416 
L 176.486913 272.948746 
L 176.954923 273.289843 
L 177.116306 273.392172 
L 177.487487 273.630941 
L 177.665008 273.73327 
L 177.681146 273.750325 
L 178.633306 263.977877 
L 179.875955 253.216246 
L 180.731284 246.922994 
L 181.586614 241.397212 
L 183.99122 229.288245 
L 185.169315 224.785755 
L 187.283432 218.441339 
L 188.009655 216.650576 
L 188.445389 215.627283 
L 190.091495 211.892264 
L 191.511665 207.065732 
L 191.769878 204.746268 
L 191.915123 201.079468 
L 192.028091 237.474589 
L 192.157197 237.389314 
L 192.528378 236.860613 
L 193.093218 236.110198 
L 193.432122 235.649716 
L 194.222899 234.660533 
L 194.529527 234.268271 
L 196.127218 232.426343 
L 196.38543 232.13641 
L 199.758334 228.725433 
L 199.871302 228.623104 
L 200.888015 227.702141 
L 201.017121 227.599811 
L 201.872451 226.849396 
L 202.001557 226.747067 
L 202.711642 226.150146 
L 202.840749 226.047817 
L 203.470142 225.53617 
L 203.615387 225.433841 
L 204.228642 224.939249 
L 204.373887 224.83692 
L 204.922589 224.410548 
L 205.067833 224.308219 
L 205.584259 223.915956 
L 205.729503 223.813627 
L 206.213652 223.455475 
L 206.375035 223.353145 
L 206.859184 222.994993 
L 207.020567 222.892663 
L 207.488578 222.551566 
L 207.649961 222.449236 
L 208.085695 222.142249 
L 208.247077 222.039919 
L 208.666673 221.749986 
L 208.828056 221.647657 
L 209.231513 221.374779 
L 209.392896 221.27245 
L 209.780216 221.016626 
L 209.941598 220.914297 
L 210.328918 220.658474 
L 210.506439 220.556144 
L 210.893758 220.300321 
L 211.071279 220.197992 
L 211.458598 219.942169 
L 211.636119 219.839839 
L 212.0073 219.601071 
L 212.184821 219.498742 
L 212.539864 219.277028 
L 212.717385 219.174699 
L 213.072428 218.952985 
L 213.249949 218.850656 
L 213.604991 218.628943 
L 213.782513 218.526613 
L 214.121417 218.321955 
L 214.298938 218.219625 
L 214.653981 217.997912 
L 214.84764 217.895583 
L 215.202683 217.673869 
L 215.396342 217.57154 
L 215.751385 217.349826 
L 215.945044 217.247497 
L 216.300087 217.025784 
L 216.493746 216.923454 
L 216.848789 216.701741 
L 217.042448 216.599412 
L 217.397491 216.377698 
L 217.575012 216.275369 
L 217.913916 216.07071 
L 218.091438 215.968381 
L 218.44648 215.746667 
L 218.624001 215.644338 
L 218.979044 215.422625 
L 219.156565 215.320295 
L 219.527746 215.081527 
L 219.705267 214.979198 
L 220.092586 214.723374 
L 220.270107 214.621045 
L 220.673565 214.348167 
L 220.834948 214.245838 
L 221.254543 213.955905 
L 221.415926 213.853575 
L 221.900075 213.495423 
L 222.061458 213.393094 
L 222.642437 212.932612 
L 222.787681 212.830282 
L 223.739841 211.977538 
L 223.852809 211.875209 
L 225.063181 210.442599 
L 226.30583 207.577378 
L 226.612457 205.83778 
L 226.806117 203.381877 
L 226.87067 201.386456 
L 226.983638 237.474589 
L 227.613032 237.372259 
L 227.806691 237.321095 
L 228.210149 237.218765 
L 228.419946 237.150546 
L 228.742712 237.048216 
L 228.968648 236.962942 
L 229.259138 236.860613 
L 229.517351 236.741229 
L 229.775563 236.638899 
L 230.033776 236.519515 
L 230.259712 236.417186 
L 230.534063 236.280747 
L 230.743861 236.178417 
L 231.050489 236.007869 
L 231.260286 235.905539 
L 231.583052 235.717936 
L 231.776712 235.615606 
L 232.115616 235.410948 
L 232.309276 235.308618 
L 232.680456 235.06985 
L 232.857978 234.967521 
L 233.229158 234.728752 
L 233.40668 234.626423 
L 233.826275 234.33649 
L 234.003797 234.234161 
L 234.439531 233.927173 
L 234.600914 233.824844 
L 235.020509 233.534911 
L 235.181892 233.432581 
L 235.633764 233.108538 
L 235.795147 233.006209 
L 236.279296 232.648057 
L 236.440679 232.545727 
L 236.924828 232.187575 
L 237.070073 232.085245 
L 237.538083 231.744148 
L 237.683328 231.641819 
L 238.167477 231.283666 
L 238.312721 231.181337 
L 238.79687 230.823184 
L 238.942115 230.720855 
L 239.442402 230.345647 
L 239.603785 230.243318 
L 240.12021 229.851056 
L 240.265455 229.748726 
L 240.749604 229.390574 
L 240.894849 229.288245 
L 241.378997 228.930092 
L 241.524242 228.827763 
L 242.008391 228.46961 
L 242.153636 228.367281 
L 242.234327 228.316116 
L 243.638359 241.994133 
L 244.961699 252.261172 
L 246.769188 263.022804 
L 247.769762 267.712896 
L 249.012411 272.488264 
L 250.706932 277.502399 
L 253.240644 282.601809 
L 253.611825 283.147566 
L 253.983006 283.676267 
L 256.871761 286.575597 
L 257.033144 286.677926 
L 257.436601 286.950805 
L 257.614122 287.053134 
L 257.953027 287.257792 
L 258.162824 287.360122 
L 258.291931 287.428341 
L 258.308069 263.807328 
L 258.404899 264.011987 
L 259.760516 266.621384 
L 260.018728 267.047756 
L 260.519016 267.849335 
L 260.906335 268.412147 
L 261.277515 268.940848 
L 262.003739 269.861812 
L 262.294228 270.219964 
L 264.408345 272.30066 
L 264.537451 272.402989 
L 265.102291 272.846416 
L 265.263674 272.948746 
L 265.731685 273.289843 
L 265.893068 273.392172 
L 266.264249 273.630941 
L 266.44177 273.73327 
L 266.457908 273.750325 
L 267.66828 255.143448 
L 269.007759 238.242058 
L 270.105163 226.781177 
L 271.428503 215.235021 
L 272.235418 208.464232 
L 272.558184 203.893524 
L 272.638875 200.8407 
L 272.751843 237.474589 
L 272.832535 237.406369 
L 273.913801 230.209208 
L 277.109183 213.921795 
L 278.029066 209.555745 
L 278.529353 205.735451 
L 278.690736 202.802011 
L 278.723013 201.591114 
L 278.835981 237.474589 
L 278.93281 237.406369 
L 279.739725 234.472929 
L 282.918969 224.751646 
L 283.435395 223.40431 
L 284.000235 221.9717 
L 284.968533 219.669291 
L 285.388128 218.697162 
L 287.695905 213.563642 
L 288.147777 212.489185 
L 288.680341 211.107739 
L 289.519532 208.10608 
L 289.858436 205.786616 
L 290.052096 202.597353 
L 290.084372 201.352346 
L 290.19734 237.474589 
L 290.326447 237.372259 
L 291.456127 235.240399 
L 291.649787 234.882246 
L 292.650361 233.023264 
L 292.860159 232.648057 
L 293.812319 230.891404 
L 294.022116 230.516196 
L 294.845169 229.032421 
L 295.071106 228.640159 
L 295.845744 227.258714 
L 296.087818 226.849396 
L 296.814041 225.57028 
L 297.056116 225.160963 
L 297.701648 224.052396 
L 297.95986 223.626023 
L 298.573116 222.585676 
L 298.831328 222.159303 
L 299.412307 221.187175 
L 299.686658 220.743748 
L 300.251498 219.80573 
L 300.525849 219.362303 
L 301.074551 218.458394 
L 301.365041 217.997912 
L 301.913743 217.094003 
L 302.188094 216.650576 
L 302.769072 215.678448 
L 303.027285 215.252076 
L 303.73737 214.007069 
L 303.947168 213.631862 
L 305.72238 209.623964 
L 306.190391 207.782037 
L 306.513157 205.496683 
L 306.690678 202.341529 
L 306.722955 200.943029 
L 306.835923 237.474589 
L 306.965029 237.372259 
L 307.303933 236.860613 
L 307.771944 236.127253 
L 308.078572 235.649716 
L 308.578859 234.848137 
L 308.869348 234.387655 
L 309.401912 233.517856 
L 309.692401 233.057374 
L 310.224965 232.187575 
L 310.499316 231.744148 
L 311.048018 230.840239 
L 311.322369 230.396812 
L 311.887209 229.458793 
L 312.177698 228.998312 
L 312.742539 228.060293 
L 313.01689 227.616866 
L 313.565592 226.712957 
L 313.856081 226.252475 
L 314.404783 225.348567 
L 314.695273 224.888085 
L 315.227836 224.018286 
L 315.518326 223.557804 
L 316.034751 222.722115 
L 316.341379 222.244578 
L 316.857804 221.408889 
L 317.164432 220.931352 
L 317.664719 220.129772 
L 317.987485 219.635181 
L 318.487772 218.833601 
L 318.7944 218.356065 
L 319.294687 217.554485 
L 319.601314 217.076948 
L 320.11774 216.241259 
L 320.392091 215.797832 
L 320.956931 214.859813 
L 321.199006 214.450496 
L 322.00592 213.000831 
L 322.19958 212.642679 
L 323.377675 209.896842 
L 323.942516 207.764982 
L 324.249143 205.616067 
L 324.426665 202.716737 
L 324.458941 201.557005 
L 324.571909 237.474589 
L 324.717154 237.372259 
L 325.152888 236.707119 
L 325.475654 236.212527 
L 325.943664 235.479167 
L 326.250292 235.00163 
L 326.734441 234.234161 
L 327.02493 233.773679 
L 327.541356 232.93799 
L 327.831845 232.477508 
L 328.364409 231.607709 
L 328.654898 231.147227 
L 329.2036 230.243318 
L 329.477951 229.799891 
L 330.010515 228.930092 
L 330.284866 228.486665 
L 330.833568 227.582756 
L 331.011089 227.292823 
L 332.173046 243.989554 
L 333.46411 258.980796 
L 334.496961 268.736189 
L 335.739609 278.303979 
L 336.530386 283.352224 
L 338.402428 292.647136 
L 339.370726 296.262771 
L 340.790896 300.407107 
L 342.792044 304.380895 
L 343.195502 304.960761 
L 343.534406 305.421243 
L 345.341895 307.177896 
L 345.503278 307.280225 
L 345.890597 307.536049 
L 346.100395 307.638378 
L 346.390884 307.791872 
L 346.632959 307.894201 
L 346.875033 307.99653 
L 347.068693 308.06475 
L 347.084831 263.807328 
L 347.181661 264.011987 
L 348.537278 266.621384 
L 348.79549 267.047756 
L 349.295777 267.849335 
L 349.683097 268.412147 
L 350.054277 268.940848 
L 350.780501 269.861812 
L 351.07099 270.219964 
L 353.185107 272.30066 
L 353.314213 272.402989 
L 353.879053 272.846416 
L 354.040436 272.948746 
L 354.508447 273.289843 
L 354.66983 273.392172 
L 355.041011 273.630941 
L 355.218532 273.73327 
L 355.23467 273.750325 
L 356.364351 238.173839 
L 357.671553 200.908919 
L 357.784521 237.474589 
L 357.849074 237.474589 
L 357.97818 234.524094 
L 359.349935 201.403511 
L 359.462903 237.474589 
L 359.543595 237.474589 
L 360.689414 215.559064 
L 361.286531 203.228383 
L 361.318807 201.693444 
L 361.431775 237.474589 
L 361.512467 237.474589 
L 362.513041 221.494163 
L 363.626584 203.67181 
L 363.674998 201.659334 
L 363.787967 237.474589 
L 363.868658 237.474589 
L 365.256551 219.908059 
L 366.466924 204.643938 
L 366.563753 201.181797 
L 366.676721 237.474589 
L 366.757413 237.372259 
L 368.532625 219.788675 
L 370.033487 204.609829 
L 370.130317 201.522895 
L 370.243285 237.474589 
L 370.323976 237.474589 
L 371.163167 230.533251 
L 374.310135 206.502921 
L 374.519933 202.136871 
L 374.536071 201.369401 
L 374.649039 237.474589 
L 374.729731 237.474589 
L 375.87555 229.816946 
L 378.409262 214.450496 
L 379.054794 210.442599 
L 379.571219 205.83778 
L 379.732602 202.460913 
L 379.764879 200.960084 
L 379.877847 237.474589 
L 379.958538 237.423424 
L 381.217325 230.140989 
L 384.912995 210.016227 
L 385.316452 206.792854 
L 385.52625 203.569481 
L 385.590803 201.250017 
L 385.703771 237.474589 
L 385.784463 237.423424 
L 389.899728 216.275369 
L 390.480707 213.341929 
L 391.30376 208.413068 
L 391.594249 205.513738 
L 391.755632 201.727553 
L 391.77177 200.857754 
L 391.884738 237.474589 
L 391.96543 237.423424 
L 394.628249 223.950066 
L 395.386749 220.266211 
L 397.823631 206.809909 
L 398.049567 203.296603 
L 398.097982 201.57406 
L 398.21095 237.474589 
L 398.30778 237.389314 
L 400.518726 226.30364 
L 401.293365 222.551566 
L 402.536013 216.582357 
L 403.246098 213.103161 
L 404.08529 208.07197 
L 404.391917 204.609829 
L 404.504885 201.386456 
L 404.617853 237.474589 
L 404.714683 237.389314 
L 406.780385 227.07111 
L 407.555023 223.319036 
L 408.749257 217.60565 
L 409.540033 213.785356 
L 410.524469 208.00375 
L 410.782682 205.292024 
L 410.944065 200.994193 
L 411.057033 237.474589 
L 411.137725 237.423424 
L 413.138873 227.446317 
L 413.92965 223.626023 
L 415.123884 217.912638 
L 415.946937 213.955905 
L 416.979787 207.901421 
L 417.270277 204.524554 
L 417.383245 201.113578 
L 417.496213 237.474589 
L 417.576904 237.423424 
L 419.545776 227.616866 
L 419.787851 226.440079 
L 419.803989 226.934671 
L 421.0305 259.952925 
L 422.111765 283.573938 
L 423.451244 306.939128 
L 424.742307 324.403328 
L 425.549222 333.254812 
L 426.904839 345.107956 
L 428.002243 352.407446 
L 429.486966 359.655771 
L 430.245466 362.384553 
L 431.197626 365.045115 
L 432.456413 367.449853 
L 434.134795 369.070067 
L 434.37687 369.172396 
L 434.602806 369.257671 
L 435.845455 369.308835 
L 435.845455 369.308835 
" style="fill:none;stroke:#ff0000;stroke-linecap:square;stroke-width:1.5;"/>
   </g>
   <g id="patch_3">
    <path d="M 63 384.48 
L 63 51.84 
" style="fill:none;stroke:#000000;stroke-linecap:square;stroke-linejoin:miter;stroke-width:0.8;"/>
   </g>
   <g id="patch_4">
    <path d="M 453.6 384.48 
L 453.6 51.84 
" style="fill:none;stroke:#000000;stroke-linecap:square;stroke-linejoin:miter;stroke-width:0.8;"/>
   </g>
   <g id="patch_5">
    <path d="M 63 384.48 
L 453.6 384.48 
" style="fill:none;stroke:#000000;stroke-linecap:square;stroke-linejoin:miter;stroke-width:0.8;"/>
   </g>
   <g id="patch_6">
    <path d="M 63 51.84 
L 453.6 51.84 
" style="fill:none;stroke:#000000;stroke-linecap:square;stroke-linejoin:miter;stroke-width:0.8;"/>
   </g>
   <g id="legend_1">
    <g id="patch_7">
     <path d="M 70 89.19625 
L 133.139062 89.19625 
Q 135.139062 89.19625 135.139062 87.19625 
L 135.139062 58.84 
Q 135.139062 56.84 133.139062 56.84 
L 70 56.84 
Q 68 56.84 68 58.84 
L 68 87.19625 
Q 68 89.19625 70 89.19625 
z
" style="fill:#ffffff;opacity:0.8;stroke:#cccccc;stroke-linejoin:miter;"/>
    </g>
    <g id="line2d_16">
     <path d="M 72 64.938437 
L 92 64.938437 
" style="fill:none;stroke:#1f77b4;stroke-linecap:square;stroke-width:1.5;"/>
    </g>
    <g id="line2d_17"/>
    <g id="text_16">
     <!-- target -->
     <defs>
      <path d="M 41.109375 46.296875 
Q 39.59375 47.171875 37.8125 47.578125 
Q 36.03125 48 33.890625 48 
Q 26.265625 48 22.1875 43.046875 
Q 18.109375 38.09375 18.109375 28.8125 
L 18.109375 0 
L 9.078125 0 
L 9.078125 54.6875 
L 18.109375 54.6875 
L 18.109375 46.1875 
Q 20.953125 51.171875 25.484375 53.578125 
Q 30.03125 56 36.53125 56 
Q 37.453125 56 38.578125 55.875 
Q 39.703125 55.765625 41.0625 55.515625 
z
" id="DejaVuSans-114"/>
     </defs>
     <g transform="translate(100 68.438437)scale(0.1 -0.1)">
      <use xlink:href="#DejaVuSans-116"/>
      <use x="39.208984" xlink:href="#DejaVuSans-97"/>
      <use x="100.488281" xlink:href="#DejaVuSans-114"/>
      <use x="141.585938" xlink:href="#DejaVuSans-103"/>
      <use x="205.0625" xlink:href="#DejaVuSans-101"/>
      <use x="266.585938" xlink:href="#DejaVuSans-116"/>
     </g>
    </g>
    <g id="line2d_18">
     <path d="M 72 79.616562 
L 92 79.616562 
" style="fill:none;stroke:#ff0000;stroke-linecap:square;stroke-width:1.5;"/>
    </g>
    <g id="line2d_19"/>
    <g id="text_17">
     <!-- model -->
     <defs>
      <path d="M 45.40625 46.390625 
L 45.40625 75.984375 
L 54.390625 75.984375 
L 54.390625 0 
L 45.40625 0 
L 45.40625 8.203125 
Q 42.578125 3.328125 38.25 0.953125 
Q 33.9375 -1.421875 27.875 -1.421875 
Q 17.96875 -1.421875 11.734375 6.484375 
Q 5.515625 14.40625 5.515625 27.296875 
Q 5.515625 40.1875 11.734375 48.09375 
Q 17.96875 56 27.875 56 
Q 33.9375 56 38.25 53.625 
Q 42.578125 51.265625 45.40625 46.390625 
z
M 14.796875 27.296875 
Q 14.796875 17.390625 18.875 11.75 
Q 22.953125 6.109375 30.078125 6.109375 
Q 37.203125 6.109375 41.296875 11.75 
Q 45.40625 17.390625 45.40625 27.296875 
Q 45.40625 37.203125 41.296875 42.84375 
Q 37.203125 48.484375 30.078125 48.484375 
Q 22.953125 48.484375 18.875 42.84375 
Q 14.796875 37.203125 14.796875 27.296875 
z
" id="DejaVuSans-100"/>
     </defs>
     <g transform="translate(100 83.116562)scale(0.1 -0.1)">
      <use xlink:href="#DejaVuSans-109"/>
      <use x="97.412109" xlink:href="#DejaVuSans-111"/>
      <use x="158.59375" xlink:href="#DejaVuSans-100"/>
      <use x="222.070312" xlink:href="#DejaVuSans-101"/>
      <use x="283.59375" xlink:href="#DejaVuSans-108"/>
     </g>
    </g>
   </g>
  </g>
 </g>
 <defs>
  <clipPath id="p21dca969ff">
   <rect height="332.64" width="390.6" x="63" y="51.84"/>
  </clipPath>
 </defs>
</svg>
