<?xml version="1.0" encoding="utf-8" standalone="no"?>
<!DOCTYPE svg PUBLIC "-//W3C//DTD SVG 1.1//EN"
  "http://www.w3.org/Graphics/SVG/1.1/DTD/svg11.dtd">
<!-- Created with matplotlib (https://matplotlib.org/) -->
<svg height="432pt" version="1.1" viewBox="0 0 504 432" width="504pt" xmlns="http://www.w3.org/2000/svg" xmlns:xlink="http://www.w3.org/1999/xlink">
 <defs>
  <style type="text/css">
*{stroke-linecap:butt;stroke-linejoin:round;}
  </style>
 </defs>
 <g id="figure_1">
  <g id="patch_1">
   <path d="M 0 432 
L 504 432 
L 504 0 
L 0 0 
z
" style="fill:#ffffff;"/>
  </g>
  <g id="axes_1">
   <g id="patch_2">
    <path d="M 63 384.48 
L 453.6 384.48 
L 453.6 51.84 
L 63 51.84 
z
" style="fill:#ffffff;"/>
   </g>
   <g id="matplotlib.axis_1">
    <g id="xtick_1">
     <g id="line2d_1">
      <defs>
       <path d="M 0 0 
L 0 3.5 
" id="m13325bd69c" style="stroke:#000000;stroke-width:0.8;"/>
      </defs>
      <g>
       <use style="stroke:#000000;stroke-width:0.8;" x="80.754545" xlink:href="#m13325bd69c" y="384.48"/>
      </g>
     </g>
     <g id="text_1">
      <!-- 0 -->
      <defs>
       <path d="M 31.78125 66.40625 
Q 24.171875 66.40625 20.328125 58.90625 
Q 16.5 51.421875 16.5 36.375 
Q 16.5 21.390625 20.328125 13.890625 
Q 24.171875 6.390625 31.78125 6.390625 
Q 39.453125 6.390625 43.28125 13.890625 
Q 47.125 21.390625 47.125 36.375 
Q 47.125 51.421875 43.28125 58.90625 
Q 39.453125 66.40625 31.78125 66.40625 
z
M 31.78125 74.21875 
Q 44.046875 74.21875 50.515625 64.515625 
Q 56.984375 54.828125 56.984375 36.375 
Q 56.984375 17.96875 50.515625 8.265625 
Q 44.046875 -1.421875 31.78125 -1.421875 
Q 19.53125 -1.421875 13.0625 8.265625 
Q 6.59375 17.96875 6.59375 36.375 
Q 6.59375 54.828125 13.0625 64.515625 
Q 19.53125 74.21875 31.78125 74.21875 
z
" id="DejaVuSans-48"/>
      </defs>
      <g transform="translate(77.573295 399.078438)scale(0.1 -0.1)">
       <use xlink:href="#DejaVuSans-48"/>
      </g>
     </g>
    </g>
    <g id="xtick_2">
     <g id="line2d_2">
      <g>
       <use style="stroke:#000000;stroke-width:0.8;" x="151.763044" xlink:href="#m13325bd69c" y="384.48"/>
      </g>
     </g>
     <g id="text_2">
      <!-- 880 -->
      <defs>
       <path d="M 31.78125 34.625 
Q 24.75 34.625 20.71875 30.859375 
Q 16.703125 27.09375 16.703125 20.515625 
Q 16.703125 13.921875 20.71875 10.15625 
Q 24.75 6.390625 31.78125 6.390625 
Q 38.8125 6.390625 42.859375 10.171875 
Q 46.921875 13.96875 46.921875 20.515625 
Q 46.921875 27.09375 42.890625 30.859375 
Q 38.875 34.625 31.78125 34.625 
z
M 21.921875 38.8125 
Q 15.578125 40.375 12.03125 44.71875 
Q 8.5 49.078125 8.5 55.328125 
Q 8.5 64.0625 14.71875 69.140625 
Q 20.953125 74.21875 31.78125 74.21875 
Q 42.671875 74.21875 48.875 69.140625 
Q 55.078125 64.0625 55.078125 55.328125 
Q 55.078125 49.078125 51.53125 44.71875 
Q 48 40.375 41.703125 38.8125 
Q 48.828125 37.15625 52.796875 32.3125 
Q 56.78125 27.484375 56.78125 20.515625 
Q 56.78125 9.90625 50.3125 4.234375 
Q 43.84375 -1.421875 31.78125 -1.421875 
Q 19.734375 -1.421875 13.25 4.234375 
Q 6.78125 9.90625 6.78125 20.515625 
Q 6.78125 27.484375 10.78125 32.3125 
Q 14.796875 37.15625 21.921875 38.8125 
z
M 18.3125 54.390625 
Q 18.3125 48.734375 21.84375 45.5625 
Q 25.390625 42.390625 31.78125 42.390625 
Q 38.140625 42.390625 41.71875 45.5625 
Q 45.3125 48.734375 45.3125 54.390625 
Q 45.3125 60.0625 41.71875 63.234375 
Q 38.140625 66.40625 31.78125 66.40625 
Q 25.390625 66.40625 21.84375 63.234375 
Q 18.3125 60.0625 18.3125 54.390625 
z
" id="DejaVuSans-56"/>
      </defs>
      <g transform="translate(142.219294 399.078438)scale(0.1 -0.1)">
       <use xlink:href="#DejaVuSans-56"/>
       <use x="63.623047" xlink:href="#DejaVuSans-56"/>
       <use x="127.246094" xlink:href="#DejaVuSans-48"/>
      </g>
     </g>
    </g>
    <g id="xtick_3">
     <g id="line2d_3">
      <g>
       <use style="stroke:#000000;stroke-width:0.8;" x="222.771543" xlink:href="#m13325bd69c" y="384.48"/>
      </g>
     </g>
     <g id="text_3">
      <!-- 1760 -->
      <defs>
       <path d="M 12.40625 8.296875 
L 28.515625 8.296875 
L 28.515625 63.921875 
L 10.984375 60.40625 
L 10.984375 69.390625 
L 28.421875 72.90625 
L 38.28125 72.90625 
L 38.28125 8.296875 
L 54.390625 8.296875 
L 54.390625 0 
L 12.40625 0 
z
" id="DejaVuSans-49"/>
       <path d="M 8.203125 72.90625 
L 55.078125 72.90625 
L 55.078125 68.703125 
L 28.609375 0 
L 18.3125 0 
L 43.21875 64.59375 
L 8.203125 64.59375 
z
" id="DejaVuSans-55"/>
       <path d="M 33.015625 40.375 
Q 26.375 40.375 22.484375 35.828125 
Q 18.609375 31.296875 18.609375 23.390625 
Q 18.609375 15.53125 22.484375 10.953125 
Q 26.375 6.390625 33.015625 6.390625 
Q 39.65625 6.390625 43.53125 10.953125 
Q 47.40625 15.53125 47.40625 23.390625 
Q 47.40625 31.296875 43.53125 35.828125 
Q 39.65625 40.375 33.015625 40.375 
z
M 52.59375 71.296875 
L 52.59375 62.3125 
Q 48.875 64.0625 45.09375 64.984375 
Q 41.3125 65.921875 37.59375 65.921875 
Q 27.828125 65.921875 22.671875 59.328125 
Q 17.53125 52.734375 16.796875 39.40625 
Q 19.671875 43.65625 24.015625 45.921875 
Q 28.375 48.1875 33.59375 48.1875 
Q 44.578125 48.1875 50.953125 41.515625 
Q 57.328125 34.859375 57.328125 23.390625 
Q 57.328125 12.15625 50.6875 5.359375 
Q 44.046875 -1.421875 33.015625 -1.421875 
Q 20.359375 -1.421875 13.671875 8.265625 
Q 6.984375 17.96875 6.984375 36.375 
Q 6.984375 53.65625 15.1875 63.9375 
Q 23.390625 74.21875 37.203125 74.21875 
Q 40.921875 74.21875 44.703125 73.484375 
Q 48.484375 72.75 52.59375 71.296875 
z
" id="DejaVuSans-54"/>
      </defs>
      <g transform="translate(210.046543 399.078438)scale(0.1 -0.1)">
       <use xlink:href="#DejaVuSans-49"/>
       <use x="63.623047" xlink:href="#DejaVuSans-55"/>
       <use x="127.246094" xlink:href="#DejaVuSans-54"/>
       <use x="190.869141" xlink:href="#DejaVuSans-48"/>
      </g>
     </g>
    </g>
    <g id="xtick_4">
     <g id="line2d_4">
      <g>
       <use style="stroke:#000000;stroke-width:0.8;" x="293.780042" xlink:href="#m13325bd69c" y="384.48"/>
      </g>
     </g>
     <g id="text_4">
      <!-- 2640 -->
      <defs>
       <path d="M 19.1875 8.296875 
L 53.609375 8.296875 
L 53.609375 0 
L 7.328125 0 
L 7.328125 8.296875 
Q 12.9375 14.109375 22.625 23.890625 
Q 32.328125 33.6875 34.8125 36.53125 
Q 39.546875 41.84375 41.421875 45.53125 
Q 43.3125 49.21875 43.3125 52.78125 
Q 43.3125 58.59375 39.234375 62.25 
Q 35.15625 65.921875 28.609375 65.921875 
Q 23.96875 65.921875 18.8125 64.3125 
Q 13.671875 62.703125 7.8125 59.421875 
L 7.8125 69.390625 
Q 13.765625 71.78125 18.9375 73 
Q 24.125 74.21875 28.421875 74.21875 
Q 39.75 74.21875 46.484375 68.546875 
Q 53.21875 62.890625 53.21875 53.421875 
Q 53.21875 48.921875 51.53125 44.890625 
Q 49.859375 40.875 45.40625 35.40625 
Q 44.1875 33.984375 37.640625 27.21875 
Q 31.109375 20.453125 19.1875 8.296875 
z
" id="DejaVuSans-50"/>
       <path d="M 37.796875 64.3125 
L 12.890625 25.390625 
L 37.796875 25.390625 
z
M 35.203125 72.90625 
L 47.609375 72.90625 
L 47.609375 25.390625 
L 58.015625 25.390625 
L 58.015625 17.1875 
L 47.609375 17.1875 
L 47.609375 0 
L 37.796875 0 
L 37.796875 17.1875 
L 4.890625 17.1875 
L 4.890625 26.703125 
z
" id="DejaVuSans-52"/>
      </defs>
      <g transform="translate(281.055042 399.078438)scale(0.1 -0.1)">
       <use xlink:href="#DejaVuSans-50"/>
       <use x="63.623047" xlink:href="#DejaVuSans-54"/>
       <use x="127.246094" xlink:href="#DejaVuSans-52"/>
       <use x="190.869141" xlink:href="#DejaVuSans-48"/>
      </g>
     </g>
    </g>
    <g id="xtick_5">
     <g id="line2d_5">
      <g>
       <use style="stroke:#000000;stroke-width:0.8;" x="364.788541" xlink:href="#m13325bd69c" y="384.48"/>
      </g>
     </g>
     <g id="text_5">
      <!-- 3520 -->
      <defs>
       <path d="M 40.578125 39.3125 
Q 47.65625 37.796875 51.625 33 
Q 55.609375 28.21875 55.609375 21.1875 
Q 55.609375 10.40625 48.1875 4.484375 
Q 40.765625 -1.421875 27.09375 -1.421875 
Q 22.515625 -1.421875 17.65625 -0.515625 
Q 12.796875 0.390625 7.625 2.203125 
L 7.625 11.71875 
Q 11.71875 9.328125 16.59375 8.109375 
Q 21.484375 6.890625 26.8125 6.890625 
Q 36.078125 6.890625 40.9375 10.546875 
Q 45.796875 14.203125 45.796875 21.1875 
Q 45.796875 27.640625 41.28125 31.265625 
Q 36.765625 34.90625 28.71875 34.90625 
L 20.21875 34.90625 
L 20.21875 43.015625 
L 29.109375 43.015625 
Q 36.375 43.015625 40.234375 45.921875 
Q 44.09375 48.828125 44.09375 54.296875 
Q 44.09375 59.90625 40.109375 62.90625 
Q 36.140625 65.921875 28.71875 65.921875 
Q 24.65625 65.921875 20.015625 65.03125 
Q 15.375 64.15625 9.8125 62.3125 
L 9.8125 71.09375 
Q 15.4375 72.65625 20.34375 73.4375 
Q 25.25 74.21875 29.59375 74.21875 
Q 40.828125 74.21875 47.359375 69.109375 
Q 53.90625 64.015625 53.90625 55.328125 
Q 53.90625 49.265625 50.4375 45.09375 
Q 46.96875 40.921875 40.578125 39.3125 
z
" id="DejaVuSans-51"/>
       <path d="M 10.796875 72.90625 
L 49.515625 72.90625 
L 49.515625 64.59375 
L 19.828125 64.59375 
L 19.828125 46.734375 
Q 21.96875 47.46875 24.109375 47.828125 
Q 26.265625 48.1875 28.421875 48.1875 
Q 40.625 48.1875 47.75 41.5 
Q 54.890625 34.8125 54.890625 23.390625 
Q 54.890625 11.625 47.5625 5.09375 
Q 40.234375 -1.421875 26.90625 -1.421875 
Q 22.3125 -1.421875 17.546875 -0.640625 
Q 12.796875 0.140625 7.71875 1.703125 
L 7.71875 11.625 
Q 12.109375 9.234375 16.796875 8.0625 
Q 21.484375 6.890625 26.703125 6.890625 
Q 35.15625 6.890625 40.078125 11.328125 
Q 45.015625 15.765625 45.015625 23.390625 
Q 45.015625 31 40.078125 35.4375 
Q 35.15625 39.890625 26.703125 39.890625 
Q 22.75 39.890625 18.8125 39.015625 
Q 14.890625 38.140625 10.796875 36.28125 
z
" id="DejaVuSans-53"/>
      </defs>
      <g transform="translate(352.063541 399.078438)scale(0.1 -0.1)">
       <use xlink:href="#DejaVuSans-51"/>
       <use x="63.623047" xlink:href="#DejaVuSans-53"/>
       <use x="127.246094" xlink:href="#DejaVuSans-50"/>
       <use x="190.869141" xlink:href="#DejaVuSans-48"/>
      </g>
     </g>
    </g>
    <g id="text_6">
     <!-- time [ms] -->
     <defs>
      <path d="M 18.3125 70.21875 
L 18.3125 54.6875 
L 36.8125 54.6875 
L 36.8125 47.703125 
L 18.3125 47.703125 
L 18.3125 18.015625 
Q 18.3125 11.328125 20.140625 9.421875 
Q 21.96875 7.515625 27.59375 7.515625 
L 36.8125 7.515625 
L 36.8125 0 
L 27.59375 0 
Q 17.1875 0 13.234375 3.875 
Q 9.28125 7.765625 9.28125 18.015625 
L 9.28125 47.703125 
L 2.6875 47.703125 
L 2.6875 54.6875 
L 9.28125 54.6875 
L 9.28125 70.21875 
z
" id="DejaVuSans-116"/>
      <path d="M 9.421875 54.6875 
L 18.40625 54.6875 
L 18.40625 0 
L 9.421875 0 
z
M 9.421875 75.984375 
L 18.40625 75.984375 
L 18.40625 64.59375 
L 9.421875 64.59375 
z
" id="DejaVuSans-105"/>
      <path d="M 52 44.1875 
Q 55.375 50.25 60.0625 53.125 
Q 64.75 56 71.09375 56 
Q 79.640625 56 84.28125 50.015625 
Q 88.921875 44.046875 88.921875 33.015625 
L 88.921875 0 
L 79.890625 0 
L 79.890625 32.71875 
Q 79.890625 40.578125 77.09375 44.375 
Q 74.3125 48.1875 68.609375 48.1875 
Q 61.625 48.1875 57.5625 43.546875 
Q 53.515625 38.921875 53.515625 30.90625 
L 53.515625 0 
L 44.484375 0 
L 44.484375 32.71875 
Q 44.484375 40.625 41.703125 44.40625 
Q 38.921875 48.1875 33.109375 48.1875 
Q 26.21875 48.1875 22.15625 43.53125 
Q 18.109375 38.875 18.109375 30.90625 
L 18.109375 0 
L 9.078125 0 
L 9.078125 54.6875 
L 18.109375 54.6875 
L 18.109375 46.1875 
Q 21.1875 51.21875 25.484375 53.609375 
Q 29.78125 56 35.6875 56 
Q 41.65625 56 45.828125 52.96875 
Q 50 49.953125 52 44.1875 
z
" id="DejaVuSans-109"/>
      <path d="M 56.203125 29.59375 
L 56.203125 25.203125 
L 14.890625 25.203125 
Q 15.484375 15.921875 20.484375 11.0625 
Q 25.484375 6.203125 34.421875 6.203125 
Q 39.59375 6.203125 44.453125 7.46875 
Q 49.3125 8.734375 54.109375 11.28125 
L 54.109375 2.78125 
Q 49.265625 0.734375 44.1875 -0.34375 
Q 39.109375 -1.421875 33.890625 -1.421875 
Q 20.796875 -1.421875 13.15625 6.1875 
Q 5.515625 13.8125 5.515625 26.8125 
Q 5.515625 40.234375 12.765625 48.109375 
Q 20.015625 56 32.328125 56 
Q 43.359375 56 49.78125 48.890625 
Q 56.203125 41.796875 56.203125 29.59375 
z
M 47.21875 32.234375 
Q 47.125 39.59375 43.09375 43.984375 
Q 39.0625 48.390625 32.421875 48.390625 
Q 24.90625 48.390625 20.390625 44.140625 
Q 15.875 39.890625 15.1875 32.171875 
z
" id="DejaVuSans-101"/>
      <path id="DejaVuSans-32"/>
      <path d="M 8.59375 75.984375 
L 29.296875 75.984375 
L 29.296875 69 
L 17.578125 69 
L 17.578125 -6.203125 
L 29.296875 -6.203125 
L 29.296875 -13.1875 
L 8.59375 -13.1875 
z
" id="DejaVuSans-91"/>
      <path d="M 44.28125 53.078125 
L 44.28125 44.578125 
Q 40.484375 46.53125 36.375 47.5 
Q 32.28125 48.484375 27.875 48.484375 
Q 21.1875 48.484375 17.84375 46.4375 
Q 14.5 44.390625 14.5 40.28125 
Q 14.5 37.15625 16.890625 35.375 
Q 19.28125 33.59375 26.515625 31.984375 
L 29.59375 31.296875 
Q 39.15625 29.25 43.1875 25.515625 
Q 47.21875 21.78125 47.21875 15.09375 
Q 47.21875 7.46875 41.1875 3.015625 
Q 35.15625 -1.421875 24.609375 -1.421875 
Q 20.21875 -1.421875 15.453125 -0.5625 
Q 10.6875 0.296875 5.421875 2 
L 5.421875 11.28125 
Q 10.40625 8.6875 15.234375 7.390625 
Q 20.0625 6.109375 24.8125 6.109375 
Q 31.15625 6.109375 34.5625 8.28125 
Q 37.984375 10.453125 37.984375 14.40625 
Q 37.984375 18.0625 35.515625 20.015625 
Q 33.0625 21.96875 24.703125 23.78125 
L 21.578125 24.515625 
Q 13.234375 26.265625 9.515625 29.90625 
Q 5.8125 33.546875 5.8125 39.890625 
Q 5.8125 47.609375 11.28125 51.796875 
Q 16.75 56 26.8125 56 
Q 31.78125 56 36.171875 55.265625 
Q 40.578125 54.546875 44.28125 53.078125 
z
" id="DejaVuSans-115"/>
      <path d="M 30.421875 75.984375 
L 30.421875 -13.1875 
L 9.71875 -13.1875 
L 9.71875 -6.203125 
L 21.390625 -6.203125 
L 21.390625 69 
L 9.71875 69 
L 9.71875 75.984375 
z
" id="DejaVuSans-93"/>
     </defs>
     <g transform="translate(234.038281 412.756563)scale(0.1 -0.1)">
      <use xlink:href="#DejaVuSans-116"/>
      <use x="39.208984" xlink:href="#DejaVuSans-105"/>
      <use x="66.992188" xlink:href="#DejaVuSans-109"/>
      <use x="164.404297" xlink:href="#DejaVuSans-101"/>
      <use x="225.927734" xlink:href="#DejaVuSans-32"/>
      <use x="257.714844" xlink:href="#DejaVuSans-91"/>
      <use x="296.728516" xlink:href="#DejaVuSans-109"/>
      <use x="394.140625" xlink:href="#DejaVuSans-115"/>
      <use x="446.240234" xlink:href="#DejaVuSans-93"/>
     </g>
    </g>
   </g>
   <g id="matplotlib.axis_2">
    <g id="ytick_1">
     <g id="line2d_6">
      <defs>
       <path d="M 0 0 
L -3.5 0 
" id="mbb691ac9d6" style="stroke:#000000;stroke-width:0.8;"/>
      </defs>
      <g>
       <use style="stroke:#000000;stroke-width:0.8;" x="63" xlink:href="#mbb691ac9d6" y="347.852938"/>
      </g>
     </g>
     <g id="text_7">
      <!-- −100 -->
      <defs>
       <path d="M 10.59375 35.5 
L 73.1875 35.5 
L 73.1875 27.203125 
L 10.59375 27.203125 
z
" id="DejaVuSans-8722"/>
      </defs>
      <g transform="translate(28.532812 351.652156)scale(0.1 -0.1)">
       <use xlink:href="#DejaVuSans-8722"/>
       <use x="83.789062" xlink:href="#DejaVuSans-49"/>
       <use x="147.412109" xlink:href="#DejaVuSans-48"/>
       <use x="211.035156" xlink:href="#DejaVuSans-48"/>
      </g>
     </g>
    </g>
    <g id="ytick_2">
     <g id="line2d_7">
      <g>
       <use style="stroke:#000000;stroke-width:0.8;" x="63" xlink:href="#mbb691ac9d6" y="302.670033"/>
      </g>
     </g>
     <g id="text_8">
      <!-- −75 -->
      <g transform="translate(34.895313 306.469252)scale(0.1 -0.1)">
       <use xlink:href="#DejaVuSans-8722"/>
       <use x="83.789062" xlink:href="#DejaVuSans-55"/>
       <use x="147.412109" xlink:href="#DejaVuSans-53"/>
      </g>
     </g>
    </g>
    <g id="ytick_3">
     <g id="line2d_8">
      <g>
       <use style="stroke:#000000;stroke-width:0.8;" x="63" xlink:href="#mbb691ac9d6" y="257.487129"/>
      </g>
     </g>
     <g id="text_9">
      <!-- −50 -->
      <g transform="translate(34.895313 261.286348)scale(0.1 -0.1)">
       <use xlink:href="#DejaVuSans-8722"/>
       <use x="83.789062" xlink:href="#DejaVuSans-53"/>
       <use x="147.412109" xlink:href="#DejaVuSans-48"/>
      </g>
     </g>
    </g>
    <g id="ytick_4">
     <g id="line2d_9">
      <g>
       <use style="stroke:#000000;stroke-width:0.8;" x="63" xlink:href="#mbb691ac9d6" y="212.304225"/>
      </g>
     </g>
     <g id="text_10">
      <!-- −25 -->
      <g transform="translate(34.895313 216.103444)scale(0.1 -0.1)">
       <use xlink:href="#DejaVuSans-8722"/>
       <use x="83.789062" xlink:href="#DejaVuSans-50"/>
       <use x="147.412109" xlink:href="#DejaVuSans-53"/>
      </g>
     </g>
    </g>
    <g id="ytick_5">
     <g id="line2d_10">
      <g>
       <use style="stroke:#000000;stroke-width:0.8;" x="63" xlink:href="#mbb691ac9d6" y="167.121321"/>
      </g>
     </g>
     <g id="text_11">
      <!-- 0 -->
      <g transform="translate(49.6375 170.92054)scale(0.1 -0.1)">
       <use xlink:href="#DejaVuSans-48"/>
      </g>
     </g>
    </g>
    <g id="ytick_6">
     <g id="line2d_11">
      <g>
       <use style="stroke:#000000;stroke-width:0.8;" x="63" xlink:href="#mbb691ac9d6" y="121.938417"/>
      </g>
     </g>
     <g id="text_12">
      <!-- 25 -->
      <g transform="translate(43.275 125.737635)scale(0.1 -0.1)">
       <use xlink:href="#DejaVuSans-50"/>
       <use x="63.623047" xlink:href="#DejaVuSans-53"/>
      </g>
     </g>
    </g>
    <g id="ytick_7">
     <g id="line2d_12">
      <g>
       <use style="stroke:#000000;stroke-width:0.8;" x="63" xlink:href="#mbb691ac9d6" y="76.755512"/>
      </g>
     </g>
     <g id="text_13">
      <!-- 50 -->
      <g transform="translate(43.275 80.554731)scale(0.1 -0.1)">
       <use xlink:href="#DejaVuSans-53"/>
       <use x="63.623047" xlink:href="#DejaVuSans-48"/>
      </g>
     </g>
    </g>
    <g id="text_14">
     <!-- voltage [mV] -->
     <defs>
      <path d="M 2.984375 54.6875 
L 12.5 54.6875 
L 29.59375 8.796875 
L 46.6875 54.6875 
L 56.203125 54.6875 
L 35.6875 0 
L 23.484375 0 
z
" id="DejaVuSans-118"/>
      <path d="M 30.609375 48.390625 
Q 23.390625 48.390625 19.1875 42.75 
Q 14.984375 37.109375 14.984375 27.296875 
Q 14.984375 17.484375 19.15625 11.84375 
Q 23.34375 6.203125 30.609375 6.203125 
Q 37.796875 6.203125 41.984375 11.859375 
Q 46.1875 17.53125 46.1875 27.296875 
Q 46.1875 37.015625 41.984375 42.703125 
Q 37.796875 48.390625 30.609375 48.390625 
z
M 30.609375 56 
Q 42.328125 56 49.015625 48.375 
Q 55.71875 40.765625 55.71875 27.296875 
Q 55.71875 13.875 49.015625 6.21875 
Q 42.328125 -1.421875 30.609375 -1.421875 
Q 18.84375 -1.421875 12.171875 6.21875 
Q 5.515625 13.875 5.515625 27.296875 
Q 5.515625 40.765625 12.171875 48.375 
Q 18.84375 56 30.609375 56 
z
" id="DejaVuSans-111"/>
      <path d="M 9.421875 75.984375 
L 18.40625 75.984375 
L 18.40625 0 
L 9.421875 0 
z
" id="DejaVuSans-108"/>
      <path d="M 34.28125 27.484375 
Q 23.390625 27.484375 19.1875 25 
Q 14.984375 22.515625 14.984375 16.5 
Q 14.984375 11.71875 18.140625 8.90625 
Q 21.296875 6.109375 26.703125 6.109375 
Q 34.1875 6.109375 38.703125 11.40625 
Q 43.21875 16.703125 43.21875 25.484375 
L 43.21875 27.484375 
z
M 52.203125 31.203125 
L 52.203125 0 
L 43.21875 0 
L 43.21875 8.296875 
Q 40.140625 3.328125 35.546875 0.953125 
Q 30.953125 -1.421875 24.3125 -1.421875 
Q 15.921875 -1.421875 10.953125 3.296875 
Q 6 8.015625 6 15.921875 
Q 6 25.140625 12.171875 29.828125 
Q 18.359375 34.515625 30.609375 34.515625 
L 43.21875 34.515625 
L 43.21875 35.40625 
Q 43.21875 41.609375 39.140625 45 
Q 35.0625 48.390625 27.6875 48.390625 
Q 23 48.390625 18.546875 47.265625 
Q 14.109375 46.140625 10.015625 43.890625 
L 10.015625 52.203125 
Q 14.9375 54.109375 19.578125 55.046875 
Q 24.21875 56 28.609375 56 
Q 40.484375 56 46.34375 49.84375 
Q 52.203125 43.703125 52.203125 31.203125 
z
" id="DejaVuSans-97"/>
      <path d="M 45.40625 27.984375 
Q 45.40625 37.75 41.375 43.109375 
Q 37.359375 48.484375 30.078125 48.484375 
Q 22.859375 48.484375 18.828125 43.109375 
Q 14.796875 37.75 14.796875 27.984375 
Q 14.796875 18.265625 18.828125 12.890625 
Q 22.859375 7.515625 30.078125 7.515625 
Q 37.359375 7.515625 41.375 12.890625 
Q 45.40625 18.265625 45.40625 27.984375 
z
M 54.390625 6.78125 
Q 54.390625 -7.171875 48.1875 -13.984375 
Q 42 -20.796875 29.203125 -20.796875 
Q 24.46875 -20.796875 20.265625 -20.09375 
Q 16.0625 -19.390625 12.109375 -17.921875 
L 12.109375 -9.1875 
Q 16.0625 -11.328125 19.921875 -12.34375 
Q 23.78125 -13.375 27.78125 -13.375 
Q 36.625 -13.375 41.015625 -8.765625 
Q 45.40625 -4.15625 45.40625 5.171875 
L 45.40625 9.625 
Q 42.625 4.78125 38.28125 2.390625 
Q 33.9375 0 27.875 0 
Q 17.828125 0 11.671875 7.65625 
Q 5.515625 15.328125 5.515625 27.984375 
Q 5.515625 40.671875 11.671875 48.328125 
Q 17.828125 56 27.875 56 
Q 33.9375 56 38.28125 53.609375 
Q 42.625 51.21875 45.40625 46.390625 
L 45.40625 54.6875 
L 54.390625 54.6875 
z
" id="DejaVuSans-103"/>
      <path d="M 28.609375 0 
L 0.78125 72.90625 
L 11.078125 72.90625 
L 34.1875 11.53125 
L 57.328125 72.90625 
L 67.578125 72.90625 
L 39.796875 0 
z
" id="DejaVuSans-86"/>
     </defs>
     <g transform="translate(22.453125 250.624062)rotate(-90)scale(0.1 -0.1)">
      <use xlink:href="#DejaVuSans-118"/>
      <use x="59.179688" xlink:href="#DejaVuSans-111"/>
      <use x="120.361328" xlink:href="#DejaVuSans-108"/>
      <use x="148.144531" xlink:href="#DejaVuSans-116"/>
      <use x="187.353516" xlink:href="#DejaVuSans-97"/>
      <use x="248.632812" xlink:href="#DejaVuSans-103"/>
      <use x="312.109375" xlink:href="#DejaVuSans-101"/>
      <use x="373.632812" xlink:href="#DejaVuSans-32"/>
      <use x="405.419922" xlink:href="#DejaVuSans-91"/>
      <use x="444.433594" xlink:href="#DejaVuSans-109"/>
      <use x="541.845703" xlink:href="#DejaVuSans-86"/>
      <use x="610.253906" xlink:href="#DejaVuSans-93"/>
     </g>
    </g>
   </g>
   <g id="line2d_13">
    <path clip-path="url(#pd6063bdcb7)" d="M 80.754545 272.842257 
L 83.385088 272.754009 
L 83.417364 272.665761 
L 83.465779 272.842257 
L 83.481917 272.754009 
L 83.966066 272.665761 
L 84.062896 272.577513 
L 84.175864 272.665761 
L 84.547045 272.754009 
L 84.660013 272.842257 
L 84.96664 272.754009 
L 85.079609 272.665761 
L 85.337821 272.754009 
L 85.35396 272.842257 
L 85.402374 272.665761 
L 85.418513 272.665761 
L 86.322257 272.754009 
L 86.435225 272.842257 
L 87.419661 272.930505 
L 87.532629 273.018753 
L 87.581044 272.930505 
L 87.629459 273.018753 
L 88.694587 273.107 
L 88.807555 273.195248 
L 88.85597 273.107 
L 89.049629 263.046744 
L 89.501501 253.604223 
L 90.356831 241.337771 
L 91.196022 233.307216 
L 91.454235 231.365763 
L 91.777001 228.983071 
L 92.503224 225.541404 
L 92.535501 225.453156 
L 92.713022 225.011917 
L 92.745299 224.923669 
L 92.971235 224.217686 
L 93.01965 224.129438 
L 93.213309 223.599951 
L 93.358554 223.511703 
L 93.536075 223.070464 
L 93.600628 222.982216 
L 93.762011 222.629225 
L 93.858841 222.540977 
L 94.004086 222.276233 
L 94.213884 222.187985 
L 94.359128 221.923242 
L 95.133766 221.834994 
L 95.182181 221.746746 
L 95.230596 221.834994 
L 95.843851 221.746746 
L 95.989096 221.393755 
L 96.053649 221.482002 
L 96.085926 221.393755 
L 96.392553 221.305507 
L 96.505522 221.217259 
L 96.796011 221.305507 
L 97.005809 221.923242 
L 97.070362 222.01149 
L 97.215607 222.276233 
L 97.393128 222.187985 
L 97.425404 222.099737 
L 97.489958 222.187985 
L 97.845 222.099737 
L 97.974106 221.923242 
L 98.264596 222.01149 
L 98.296872 222.099737 
L 98.345287 222.01149 
L 98.458255 221.923242 
L 98.50667 222.01149 
L 98.538947 222.099737 
L 98.571223 221.923242 
L 98.6035 222.01149 
L 99.119925 221.923242 
L 99.249032 221.746746 
L 99.959117 221.658498 
L 100.055947 221.57025 
L 100.572372 223.864695 
L 100.620787 223.952943 
L 100.733755 224.129438 
L 100.862861 223.952943 
L 101.024244 223.864695 
L 101.153351 223.688199 
L 101.298595 223.599951 
L 101.44384 223.335208 
L 101.556808 223.24696 
L 101.685914 223.070464 
L 101.831159 222.982216 
L 101.847297 222.893968 
L 101.927989 222.982216 
L 102.10551 222.893968 
L 102.266893 222.540977 
L 102.363723 222.452729 
L 102.492829 222.276233 
L 102.993116 222.187985 
L 103.057669 221.923242 
L 103.106084 222.01149 
L 103.251329 222.276233 
L 103.380435 222.099737 
L 103.687063 222.01149 
L 103.783893 221.923242 
L 103.880722 222.01149 
L 103.993691 221.923242 
L 104.09052 221.834994 
L 104.18735 221.746746 
L 104.300318 221.834994 
L 104.38101 221.746746 
L 104.526254 221.393755 
L 104.574669 221.482002 
L 104.623084 221.393755 
L 104.897435 221.305507 
L 105.010403 221.217259 
L 105.236339 221.305507 
L 105.317031 221.393755 
L 105.333169 221.305507 
L 106.107807 221.217259 
L 106.123945 221.129011 
L 106.17236 221.305507 
L 106.204637 221.217259 
L 106.882445 221.305507 
L 106.995413 221.393755 
L 107.705498 221.305507 
L 107.737775 221.217259 
L 107.78619 221.393755 
L 108.383307 221.305507 
L 108.512413 221.129011 
L 108.576966 221.040763 
L 108.689934 220.952515 
L 109.254775 220.864267 
L 109.335466 220.77602 
L 109.351605 220.864267 
L 109.690509 220.77602 
L 109.819615 220.599524 
L 109.916445 220.687772 
L 110.013275 220.599524 
L 110.126243 220.687772 
L 110.5297 220.77602 
L 110.610392 220.864267 
L 110.62653 220.77602 
L 111.368891 220.864267 
L 111.497998 221.040763 
L 111.836902 221.129011 
L 111.85304 221.217259 
L 111.933732 221.129011 
L 112.256498 221.217259 
L 112.321051 221.129011 
L 112.369466 221.305507 
L 112.821338 221.393755 
L 112.837476 221.482002 
L 112.869753 221.305507 
L 112.902029 221.305507 
L 113.144104 221.393755 
L 113.289349 221.658498 
L 113.37004 221.746746 
L 113.499146 221.923242 
L 113.595976 222.01149 
L 113.644391 222.099737 
L 113.692806 222.01149 
L 113.789636 221.923242 
L 113.870327 221.834994 
L 113.886465 221.923242 
L 114.160817 222.01149 
L 114.257646 222.099737 
L 114.386753 221.834994 
L 114.419029 221.923242 
L 114.483582 221.834994 
L 114.580412 221.658498 
L 114.59655 221.746746 
L 114.806348 221.658498 
L 114.919316 221.57025 
L 115.35505 221.482002 
L 115.468018 221.393755 
L 115.758508 221.305507 
L 115.887614 221.129011 
L 116.161965 221.040763 
L 116.258795 220.864267 
L 116.274933 220.952515 
L 116.355625 220.864267 
L 116.468593 220.77602 
L 116.533146 220.687772 
L 116.662252 220.511276 
L 117.017295 220.599524 
L 117.033433 220.687772 
L 117.114125 220.599524 
L 117.259369 220.687772 
L 117.43689 221.129011 
L 117.469167 221.217259 
L 117.662827 221.746746 
L 117.711241 221.834994 
L 117.791933 222.01149 
L 117.82421 221.923242 
L 117.921039 222.01149 
L 118.034007 222.099737 
L 118.647263 222.01149 
L 118.760231 221.923242 
L 119.05072 221.834994 
L 119.131411 221.746746 
L 119.14755 221.834994 
L 119.518731 221.746746 
L 119.647837 221.57025 
L 119.80922 221.482002 
L 119.922188 221.393755 
L 120.099709 221.305507 
L 120.244954 221.040763 
L 120.438613 220.952515 
L 120.551581 220.864267 
L 120.664549 220.77602 
L 120.696826 220.687772 
L 120.745241 220.864267 
L 121.116422 220.952515 
L 121.22939 221.040763 
L 121.600571 220.952515 
L 121.729677 220.77602 
L 121.810368 220.687772 
L 121.939475 220.511276 
L 122.116996 220.423028 
L 122.213826 220.33478 
L 122.342932 220.511276 
L 122.778666 220.423028 
L 122.810943 220.33478 
L 122.875496 220.423028 
L 122.923911 220.511276 
L 122.972326 220.423028 
L 123.133709 220.511276 
L 123.262815 220.687772 
L 123.553304 220.77602 
L 123.682411 220.952515 
L 123.827655 220.687772 
L 123.924485 220.77602 
L 123.940623 220.864267 
L 124.005177 220.687772 
L 124.360219 220.599524 
L 124.473187 220.511276 
L 124.682985 220.599524 
L 124.812091 220.77602 
L 125.215549 220.864267 
L 125.328517 221.040763 
L 125.360793 221.129011 
L 125.441485 220.952515 
L 125.764251 220.864267 
L 125.780389 220.77602 
L 125.861081 220.864267 
L 126.038602 220.77602 
L 126.15157 220.687772 
L 126.329091 220.599524 
L 126.425921 220.511276 
L 126.538889 220.599524 
L 127.136006 220.511276 
L 127.152144 220.423028 
L 127.232836 220.511276 
L 127.248974 220.599524 
L 127.297389 220.423028 
L 127.313527 220.423028 
L 127.394219 220.511276 
L 127.442633 220.687772 
L 127.507187 220.599524 
L 127.523325 220.511276 
L 127.604016 220.599524 
L 127.975197 220.511276 
L 128.104304 220.33478 
L 128.217272 220.246532 
L 128.33024 220.158285 
L 128.410931 220.070037 
L 128.523899 219.981789 
L 129.08874 219.893541 
L 129.137154 219.805293 
L 129.185569 219.893541 
L 129.605165 219.981789 
L 129.718133 220.070037 
L 129.831101 219.981789 
L 130.008622 219.54055 
L 130.137729 219.452302 
L 130.266835 219.275806 
L 130.525048 219.187558 
L 130.541186 219.09931 
L 130.589601 219.275806 
L 130.621878 219.187558 
L 130.670292 219.275806 
L 130.718707 219.187558 
L 131.07375 219.09931 
L 131.138303 219.011062 
L 131.17058 219.09931 
L 131.202856 219.011062 
L 131.315824 218.922815 
L 132.477782 219.011062 
L 132.59075 219.09931 
L 132.768271 219.011062 
L 132.816686 218.922815 
L 132.865101 219.011062 
L 133.268558 219.09931 
L 133.381526 219.187558 
L 133.413803 219.187558 
L 133.559047 219.628797 
L 133.591324 219.54055 
L 133.607462 219.717045 
L 133.623601 219.717045 
L 133.736569 219.805293 
L 133.784983 219.893541 
L 133.930228 220.158285 
L 133.978643 220.246532 
L 134.156164 220.687772 
L 134.269132 220.599524 
L 134.430515 220.687772 
L 134.559622 220.864267 
L 134.624175 220.77602 
L 134.656451 220.864267 
L 134.817834 220.77602 
L 134.930802 220.687772 
L 135.301983 220.599524 
L 135.414951 220.33478 
L 135.43109 220.423028 
L 135.818409 220.33478 
L 135.834547 220.246532 
L 135.866824 220.423028 
L 135.915238 220.33478 
L 136.044345 220.246532 
L 136.060483 220.158285 
L 136.141175 220.246532 
L 136.883536 220.158285 
L 137.028781 219.893541 
L 137.157887 219.805293 
L 137.206302 219.628797 
L 137.254717 219.805293 
L 137.367685 219.717045 
L 137.432238 219.54055 
L 137.464515 219.717045 
L 137.690451 219.628797 
L 137.819557 219.452302 
L 137.916387 219.54055 
L 138.013217 219.628797 
L 138.158461 219.364054 
L 138.707163 219.275806 
L 138.820132 219.187558 
L 139.126759 219.275806 
L 139.239727 219.364054 
L 139.772291 219.275806 
L 139.901397 219.09931 
L 139.998227 219.187558 
L 140.095057 219.09931 
L 140.111195 219.187558 
L 140.191887 219.09931 
L 140.756727 219.011062 
L 140.885833 218.834567 
L 140.966525 218.746319 
L 141.095631 218.569823 
L 141.321567 219.275806 
L 141.402259 219.364054 
L 141.531365 219.54055 
L 141.902546 219.452302 
L 142.015514 219.364054 
L 142.14462 219.275806 
L 142.257588 219.187558 
L 142.80629 219.09931 
L 142.935397 218.922815 
L 144.339429 219.011062 
L 144.468535 219.364054 
L 144.484673 219.275806 
L 144.581503 219.187558 
L 144.726748 219.452302 
L 145.049513 219.54055 
L 145.08179 219.628797 
L 145.146343 219.54055 
L 145.340003 219.452302 
L 145.469109 219.275806 
L 145.64663 219.187558 
L 145.759598 219.09931 
L 146.308301 219.011062 
L 146.388992 218.834567 
L 146.421269 218.922815 
L 147.244322 219.011062 
L 147.26046 219.09931 
L 147.341151 219.011062 
L 147.550949 218.922815 
L 147.663917 218.834567 
L 148.180343 218.922815 
L 148.309449 219.09931 
L 148.374002 219.011062 
L 148.48697 218.922815 
L 148.874289 218.834567 
L 148.890428 218.746319 
L 148.971119 218.834567 
L 149.100226 218.922815 
L 149.116364 219.011062 
L 149.164779 218.834567 
L 149.197055 218.922815 
L 149.293885 218.834567 
L 149.406853 218.746319 
L 149.697343 218.834567 
L 149.810311 218.922815 
L 149.971694 218.922815 
L 150.00397 218.746319 
L 150.084662 218.834567 
L 150.407427 218.922815 
L 150.601087 219.452302 
L 150.746332 219.187558 
L 151.085236 219.275806 
L 151.149789 219.364054 
L 151.182066 219.275806 
L 151.359587 219.187558 
L 151.375725 219.09931 
L 151.456417 219.187558 
L 151.811459 219.09931 
L 151.843736 219.011062 
L 151.908289 219.09931 
L 152.424714 219.011062 
L 152.553821 218.834567 
L 152.650651 218.746319 
L 152.715204 218.658071 
L 152.74748 218.746319 
L 152.763619 218.834567 
L 152.812033 218.658071 
L 152.828172 218.658071 
L 153.40915 218.658071 
L 153.60281 228.718327 
L 154.054682 238.0726 
L 154.425863 243.808711 
L 154.861597 249.280078 
L 154.974565 250.4273 
L 155.68465 257.04589 
L 155.894448 258.722599 
L 156.265629 261.634779 
L 156.281767 261.634779 
L 156.556118 263.487984 
L 158.62182 274.254223 
L 158.670235 274.34247 
L 158.993001 275.57794 
L 159.057554 275.666188 
L 159.299628 276.460419 
L 159.331905 276.548667 
L 159.557841 277.25465 
L 159.622394 277.342898 
L 159.832192 277.960633 
L 159.896745 278.048881 
L 160.090405 278.578368 
L 160.122681 278.666616 
L 160.300202 279.107855 
L 160.348617 279.196103 
L 160.493862 279.460846 
L 160.526139 279.549094 
L 160.70366 279.990333 
L 160.768213 280.078581 
L 160.929596 280.431573 
L 161.042564 280.519821 
L 161.187809 280.784564 
L 161.413745 280.872812 
L 161.558989 281.137556 
L 161.639681 281.225803 
L 161.768787 281.402299 
L 161.897894 281.490547 
L 162.027 281.667043 
L 162.091553 281.755291 
L 162.22066 281.931786 
L 162.285213 282.020034 
L 162.317489 282.108282 
L 162.382043 282.020034 
L 162.462734 282.108282 
L 162.59184 282.284778 
L 162.995298 282.373026 
L 163.108266 282.461274 
L 163.318064 282.549521 
L 163.431032 282.726017 
L 163.463308 282.637769 
L 163.527861 282.726017 
L 163.64083 282.814265 
L 163.931319 282.902513 
L 164.044287 282.990761 
L 164.544574 282.902513 
L 164.625266 282.814265 
L 164.641404 282.902513 
L 165.997021 282.814265 
L 166.126127 282.637769 
L 166.206818 282.726017 
L 166.222957 282.637769 
L 166.432755 282.549521 
L 166.561861 282.373026 
L 166.900765 282.284778 
L 167.013733 282.19653 
L 167.304223 282.108282 
L 167.449467 281.843539 
L 167.659265 281.755291 
L 167.772233 281.667043 
L 168.014308 281.578795 
L 168.159552 281.314051 
L 168.450042 281.225803 
L 168.56301 281.137556 
L 168.579148 281.225803 
L 168.627563 281.049308 
L 168.643701 281.137556 
L 168.756669 281.049308 
L 168.837361 280.96106 
L 168.853499 280.872812 
L 168.885775 281.049308 
L 168.93419 280.96106 
L 169.12785 280.872812 
L 169.256956 280.696316 
L 169.418339 280.608068 
L 169.499031 280.519821 
L 169.611999 273.636488 
L 169.708829 273.724735 
L 169.724967 273.812983 
L 169.805658 273.724735 
L 170.951477 273.812983 
L 170.967616 273.901231 
L 171.048307 273.812983 
L 171.790669 273.901231 
L 171.822945 273.989479 
L 171.887498 273.901231 
L 171.952052 273.812983 
L 172.048881 273.724735 
L 172.161849 273.812983 
L 172.387786 273.724735 
L 172.500754 273.636488 
L 173.162424 273.54824 
L 173.29153 273.371744 
L 174.518041 273.459992 
L 174.582594 273.54824 
L 174.61487 273.459992 
L 175.018328 273.54824 
L 175.147434 273.724735 
L 175.260402 273.636488 
L 175.389508 273.724735 
L 175.405647 273.812983 
L 175.486338 273.724735 
L 175.615445 273.812983 
L 175.712274 273.901231 
L 175.825242 273.812983 
L 175.93821 273.901231 
L 176.164147 273.989479 
L 176.277115 274.077727 
L 176.390083 273.989479 
L 176.664434 273.901231 
L 176.777402 273.812983 
L 176.938785 273.724735 
L 176.971061 273.636488 
L 177.019476 273.812983 
L 177.035615 273.724735 
L 177.616593 273.724735 
L 177.810253 260.575804 
L 178.391231 245.132429 
L 179.149731 230.924523 
L 179.82754 221.57025 
L 180.39238 216.540122 
L 180.860391 214.510422 
L 180.876529 214.510422 
L 181.021773 214.069182 
L 181.183156 213.716191 
L 181.312263 213.627943 
L 181.473646 213.274951 
L 181.505922 213.186704 
L 181.699582 212.657216 
L 181.764135 212.568969 
L 181.893241 212.392473 
L 182.328975 212.304225 
L 182.47422 212.039481 
L 182.506497 211.951234 
L 182.635603 211.774738 
L 182.716294 211.68649 
L 182.877677 211.333499 
L 182.926092 211.421746 
L 182.974507 211.509994 
L 183.022922 211.421746 
L 183.103614 211.333499 
L 183.23272 211.157003 
L 183.281135 211.068755 
L 183.442518 210.715764 
L 183.474794 210.627516 
L 183.668454 210.098029 
L 183.70073 210.009781 
L 183.845975 209.745037 
L 183.89439 209.656789 
L 184.168741 208.686063 
L 184.313986 208.597815 
L 184.523784 207.98008 
L 184.814273 207.891832 
L 184.927241 207.362345 
L 184.975656 207.538841 
L 185.072486 207.450593 
L 185.250007 206.832858 
L 185.266145 206.921106 
L 185.346837 206.832858 
L 185.492081 206.568114 
L 185.524358 206.479866 
L 186.411964 201.184995 
L 186.428102 200.655508 
L 186.444241 195.18414 
L 186.492656 75.255299 
L 186.573347 137.999527 
L 186.73473 209.303798 
L 186.944528 211.598242 
L 188.05807 222.717472 
L 188.074208 222.717472 
L 188.25173 223.511703 
L 188.461528 224.129438 
L 188.526081 224.217686 
L 188.71974 224.747173 
L 188.768155 224.835421 
L 188.929538 225.188413 
L 189.026368 225.100165 
L 189.155474 225.27666 
L 189.720315 225.188413 
L 189.849421 225.011917 
L 190.091495 224.923669 
L 190.220602 224.747173 
L 190.285155 224.658925 
L 190.414261 224.48243 
L 190.4304 224.570678 
L 190.494953 224.394182 
L 190.591783 224.305934 
L 190.704751 224.217686 
L 190.89841 224.129438 
L 191.011378 224.04119 
L 191.140485 223.952943 
L 191.285729 223.688199 
L 191.46325 223.599951 
L 191.624633 223.24696 
L 192.205612 223.158712 
L 192.334718 222.982216 
L 192.41541 222.893968 
L 192.544516 222.540977 
L 192.560655 222.629225 
L 192.609069 222.540977 
L 192.625208 222.452729 
L 192.705899 222.540977 
L 192.835006 222.452729 
L 192.899559 222.364481 
L 192.931835 222.452729 
L 193.238463 222.364481 
L 193.367569 222.187985 
L 193.512814 222.099737 
L 193.64192 221.923242 
L 193.916271 221.834994 
L 194.061516 221.57025 
L 194.448835 221.482002 
L 194.577941 221.305507 
L 194.723186 221.217259 
L 194.884569 220.864267 
L 194.981399 220.77602 
L 195.110505 220.599524 
L 195.271888 220.511276 
L 195.35258 220.33478 
L 195.384856 220.423028 
L 195.465548 220.33478 
L 195.594654 220.158285 
L 195.885143 220.070037 
L 195.998111 219.981789 
L 196.094941 219.893541 
L 196.256324 219.54055 
L 196.353154 219.628797 
L 196.449984 219.54055 
L 196.546813 219.628797 
L 196.67592 219.452302 
L 197.14393 219.364054 
L 197.160069 219.275806 
L 197.224622 219.452302 
L 197.402143 219.54055 
L 197.579664 220.070037 
L 197.628079 219.981789 
L 197.660356 220.158285 
L 197.724909 220.246532 
L 197.821739 220.423028 
L 197.837877 220.33478 
L 197.950845 220.423028 
L 198.09609 220.687772 
L 198.467271 220.599524 
L 198.483409 220.511276 
L 198.5641 220.599524 
L 198.644792 220.511276 
L 198.790036 220.246532 
L 198.935281 220.158285 
L 199.080526 219.893541 
L 199.193494 219.805293 
L 199.354877 219.452302 
L 199.41943 219.364054 
L 199.548536 219.187558 
L 199.661504 219.275806 
L 199.790611 219.187558 
L 199.919717 219.011062 
L 199.98427 218.922815 
L 200.048824 218.746319 
L 200.097238 218.834567 
L 200.516834 218.746319 
L 200.662079 218.393327 
L 200.710494 218.481575 
L 200.758908 218.393327 
L 200.871877 218.305079 
L 201.000983 218.128584 
L 201.065536 218.040336 
L 201.210781 217.775592 
L 201.372164 217.687344 
L 201.485132 217.599097 
L 201.646515 217.510849 
L 201.775621 217.334353 
L 202.130664 217.246105 
L 202.195217 217.157857 
L 202.227493 217.246105 
L 202.3566 217.157857 
L 202.485706 216.981362 
L 202.550259 216.893114 
L 202.711642 216.540122 
L 202.969855 216.451874 
L 203.098961 216.275379 
L 203.728355 216.363627 
L 203.792908 216.540122 
L 203.841323 216.451874 
L 204.083397 216.540122 
L 204.14795 216.62837 
L 204.180227 216.540122 
L 204.632099 216.451874 
L 204.728929 216.275379 
L 204.745067 216.363627 
L 204.809621 216.275379 
L 204.938727 216.098883 
L 205.019418 216.187131 
L 205.116248 216.275379 
L 205.164663 216.187131 
L 205.19694 216.363627 
L 205.213078 216.275379 
L 205.261493 216.363627 
L 205.358323 216.540122 
L 205.374461 216.451874 
L 206.052269 216.540122 
L 206.197514 216.804866 
L 206.455727 216.893114 
L 206.584833 217.069609 
L 206.665525 217.157857 
L 206.810769 217.422601 
L 207.343333 217.334353 
L 207.359471 217.246105 
L 207.440163 217.334353 
L 207.666099 217.422601 
L 207.682237 217.510849 
L 207.762929 217.422601 
L 208.021141 217.334353 
L 208.150248 217.157857 
L 208.198663 217.069609 
L 208.360046 216.716618 
L 208.473014 216.62837 
L 208.585982 216.540122 
L 208.924886 216.451874 
L 209.053992 216.275379 
L 209.215375 216.187131 
L 209.344482 216.010635 
L 209.538141 215.922387 
L 209.683386 215.657644 
L 209.715662 215.569396 
L 209.844769 215.3929 
L 210.054567 215.304652 
L 210.11912 215.216404 
L 210.151396 215.304652 
L 210.264364 215.3929 
L 210.393471 215.569396 
L 211.055141 215.481148 
L 211.200385 215.216404 
L 211.329492 215.128157 
L 211.458598 214.951661 
L 211.652258 214.863413 
L 211.749088 214.775165 
L 211.781364 214.863413 
L 211.829779 214.686917 
L 211.845917 214.775165 
L 211.991162 214.510422 
L 212.168683 214.598669 
L 212.313928 214.863413 
L 212.410758 214.775165 
L 212.475311 214.598669 
L 212.507587 214.686917 
L 212.556002 214.775165 
L 212.588279 214.686917 
L 212.636694 214.598669 
L 212.685109 214.686917 
L 212.846492 215.039909 
L 213.185396 214.951661 
L 213.217672 214.863413 
L 213.266087 215.039909 
L 213.556577 214.951661 
L 213.653406 214.863413 
L 213.750236 214.951661 
L 213.927757 214.510422 
L 214.024587 214.422174 
L 214.073002 214.245678 
L 214.137555 214.333926 
L 214.2828 214.245678 
L 214.395768 214.15743 
L 214.589427 214.069182 
L 214.718534 213.892686 
L 214.84764 213.980934 
L 214.879917 214.069182 
L 214.928332 213.892686 
L 215.202683 213.804439 
L 215.315651 213.716191 
L 215.493172 213.804439 
L 215.557725 213.892686 
L 215.590002 213.804439 
L 215.751385 213.892686 
L 215.767523 213.980934 
L 215.848214 213.892686 
L 215.945044 213.804439 
L 216.122566 213.363199 
L 216.187119 213.274951 
L 216.300087 213.010208 
L 216.316225 213.098456 
L 216.46147 213.010208 
L 216.606714 212.745464 
L 216.622853 212.833712 
L 216.703544 212.745464 
L 216.92948 212.657216 
L 216.977895 212.568969 
L 217.02631 212.657216 
L 217.042448 212.745464 
L 217.12314 212.657216 
L 217.704118 212.745464 
L 217.817087 212.833712 
L 218.204406 212.833712 
L 218.34965 213.274951 
L 218.656278 213.186704 
L 218.769246 213.098456 
L 218.962905 213.186704 
L 219.027459 213.098456 
L 219.075874 213.274951 
L 219.140427 213.186704 
L 219.172703 213.274951 
L 219.511608 213.363199 
L 219.640714 213.539695 
L 219.915065 213.627943 
L 220.124863 214.245678 
L 220.205554 214.333926 
L 220.350799 214.598669 
L 220.479905 214.422174 
L 221.125437 214.333926 
L 221.141575 214.245678 
L 221.222267 214.333926 
L 221.270682 214.245678 
L 221.415926 213.980934 
L 221.722554 213.892686 
L 221.85166 213.716191 
L 221.900075 213.716191 
L 222.029182 213.363199 
L 222.077596 213.274951 
L 222.158288 213.010208 
L 222.206703 213.098456 
L 222.739267 213.010208 
L 222.868373 212.833712 
L 222.916788 212.745464 
L 223.045894 212.568969 
L 223.142724 212.480721 
L 223.287969 212.215977 
L 223.384798 212.127729 
L 223.513905 211.951234 
L 223.626873 211.862986 
L 223.836671 211.245251 
L 223.981915 211.157003 
L 224.046468 210.980507 
L 224.094883 211.068755 
L 224.256266 211.421746 
L 224.320819 211.333499 
L 224.385373 211.245251 
L 224.417649 211.333499 
L 224.498341 211.421746 
L 224.514479 211.509994 
L 224.579032 211.421746 
L 224.59517 211.333499 
L 224.643585 211.509994 
L 224.659724 211.509994 
L 224.740415 211.598242 
L 224.869522 211.774738 
L 225.127734 211.68649 
L 225.240702 211.598242 
L 225.289117 211.68649 
L 225.305255 211.774738 
L 225.35367 211.598242 
L 225.369809 211.598242 
L 225.54733 211.68649 
L 225.676436 211.862986 
L 225.740989 211.774738 
L 225.853958 211.68649 
L 226.031479 211.598242 
L 226.289691 210.715764 
L 226.660872 210.627516 
L 226.806117 210.362772 
L 227.06433 210.45102 
L 227.096606 210.539268 
L 227.145021 210.45102 
L 227.257989 210.274524 
L 227.370957 210.45102 
L 227.548479 210.009781 
L 227.661447 209.921533 
L 227.677585 209.833285 
L 227.758276 209.921533 
L 227.855106 210.098029 
L 227.871244 210.009781 
L 228.048766 209.921533 
L 228.097181 209.833285 
L 228.145595 209.921533 
L 228.419946 209.833285 
L 228.532915 209.745037 
L 228.565191 209.656789 
L 228.694297 209.480294 
L 228.823404 209.392046 
L 228.871819 209.21555 
L 228.920234 209.303798 
L 229.000925 209.392046 
L 229.017063 209.303798 
L 229.097755 209.21555 
L 229.243 208.950806 
L 229.307553 208.862559 
L 229.452797 208.597815 
L 229.630319 208.686063 
L 229.646457 208.774311 
L 229.71101 208.597815 
L 230.082191 208.509567 
L 230.098329 208.421319 
L 230.162882 208.597815 
L 230.905244 208.509567 
L 231.179595 207.538841 
L 231.22801 207.450593 
L 231.389393 207.097601 
L 231.437808 207.009353 
L 231.921957 204.891405 
L 232.002648 204.803157 
L 232.115616 203.83243 
L 232.164031 202.685208 
L 232.180169 199.420037 
L 232.244722 74.284572 
L 232.309276 132.881151 
L 232.470659 208.333071 
L 232.535212 209.039054 
L 232.599765 208.862559 
L 232.74501 208.597815 
L 233.035499 210.715764 
L 233.551924 215.304652 
L 233.584201 215.3929 
L 233.826275 216.893114 
L 234.504084 220.070037 
L 234.584775 220.158285 
L 234.762296 220.599524 
L 234.82685 220.687772 
L 234.988233 221.040763 
L 235.020509 221.129011 
L 235.181892 221.482002 
L 235.19803 221.393755 
L 235.230307 221.57025 
L 235.262584 221.57025 
L 235.359413 221.658498 
L 235.504658 221.923242 
L 235.601488 222.01149 
L 235.730594 222.187985 
L 235.908115 222.276233 
L 236.021083 222.364481 
L 236.117913 222.452729 
L 236.263158 222.717472 
L 236.279296 222.629225 
L 236.343849 222.717472 
L 236.505232 223.070464 
L 236.876413 222.982216 
L 237.005519 222.80572 
L 237.070073 222.982216 
L 237.118488 222.893968 
L 237.231456 222.80572 
L 237.392839 222.717472 
L 237.521945 222.540977 
L 237.683328 222.452729 
L 237.844711 222.099737 
L 237.957679 222.01149 
L 238.070647 221.923242 
L 238.167477 221.834994 
L 238.296583 221.658498 
L 238.474104 221.57025 
L 238.554796 221.393755 
L 238.587072 221.482002 
L 238.667764 221.393755 
L 238.780732 221.305507 
L 238.845285 221.217259 
L 238.942115 221.129011 
L 238.958253 221.217259 
L 239.022806 221.040763 
L 239.151913 220.952515 
L 239.297157 220.687772 
L 239.361711 220.599524 
L 239.490817 220.423028 
L 239.732891 220.33478 
L 239.845859 220.246532 
L 240.152487 220.158285 
L 240.265455 220.070037 
L 240.572083 219.981789 
L 240.685051 219.893541 
L 240.959402 219.805293 
L 241.088508 219.628797 
L 241.459689 219.54055 
L 241.588795 219.364054 
L 241.717902 219.275806 
L 241.847008 219.09931 
L 241.895423 219.011062 
L 242.008391 218.922815 
L 242.169774 219.011062 
L 242.363433 231.89525 
L 242.799167 242.573241 
L 243.234901 249.721318 
L 243.654497 254.927941 
L 243.767465 256.075163 
L 244.396859 261.811274 
L 244.606657 263.487984 
L 244.945561 266.047172 
L 246.430284 273.636488 
L 246.46256 273.724735 
L 246.769188 274.871958 
L 246.801465 274.960205 
L 247.108092 276.107428 
L 247.172645 276.195675 
L 247.382443 276.813411 
L 247.41472 276.901658 
L 247.624518 277.519393 
L 247.672933 277.607641 
L 247.898869 278.313624 
L 247.963422 278.401872 
L 248.157081 278.931359 
L 248.221635 279.019607 
L 248.383018 279.372598 
L 248.463709 279.460846 
L 248.64123 279.902086 
L 248.721922 279.990333 
L 248.867166 280.255077 
L 248.996273 280.343325 
L 249.141517 280.608068 
L 249.189932 280.696316 
L 249.335177 280.96106 
L 249.544975 281.049308 
L 249.674081 281.225803 
L 249.722496 281.314051 
L 249.851602 281.490547 
L 249.964571 281.578795 
L 250.093677 281.755291 
L 250.384166 281.843539 
L 250.497134 281.931786 
L 250.593964 282.020034 
L 250.610102 282.108282 
L 250.690794 282.020034 
L 250.884453 282.108282 
L 250.997421 282.19653 
L 251.255634 282.284778 
L 251.271772 282.373026 
L 251.336326 282.284778 
L 251.368602 282.19653 
L 251.433155 282.284778 
L 251.836613 282.373026 
L 251.852751 282.461274 
L 251.933443 282.373026 
L 252.046411 282.284778 
L 252.546698 282.19653 
L 252.562836 282.108282 
L 252.643528 282.19653 
L 252.853325 282.108282 
L 252.982432 281.931786 
L 253.724793 281.843539 
L 253.821623 281.755291 
L 253.934591 281.843539 
L 254.176666 281.755291 
L 254.305772 281.578795 
L 254.741506 281.490547 
L 254.789921 281.314051 
L 254.838336 281.490547 
L 255.015857 281.402299 
L 255.031995 281.314051 
L 255.096548 281.490547 
L 255.112687 281.402299 
L 255.354761 281.314051 
L 255.467729 281.225803 
L 255.709804 281.137556 
L 255.822772 281.049308 
L 256.000293 280.96106 
L 256.129399 280.784564 
L 256.242367 280.872812 
L 256.419889 280.784564 
L 256.548995 280.608068 
L 256.774931 280.519821 
L 256.791069 280.431573 
L 256.871761 280.519821 
L 256.968591 280.431573 
L 257.081559 280.343325 
L 257.129974 280.255077 
L 257.25908 280.078581 
L 257.517293 279.990333 
L 257.630261 279.902086 
L 258.01758 279.813838 
L 258.146686 279.637342 
L 258.162824 279.72559 
L 258.243516 279.637342 
L 258.259654 279.637342 
L 258.372622 274.518966 
L 259.647548 274.607214 
L 259.679824 274.695462 
L 259.744377 274.607214 
L 260.244665 274.518966 
L 260.276941 274.34247 
L 260.341494 274.518966 
L 261.42276 274.607214 
L 261.471175 274.695462 
L 261.503452 274.607214 
L 261.51959 274.518966 
L 261.600281 274.607214 
L 262.616994 274.518966 
L 262.649271 274.430718 
L 262.713824 274.518966 
L 263.230249 274.607214 
L 263.246387 274.695462 
L 263.327079 274.607214 
L 264.16627 274.695462 
L 264.214685 274.78371 
L 264.2631 274.695462 
L 264.392206 274.78371 
L 264.505175 274.871958 
L 266.377217 274.871958 
L 266.570876 255.104437 
L 267.151855 231.89525 
L 268.265397 204.450166 
L 268.507472 201.537986 
L 268.846376 195.272388 
L 268.910929 73.931581 
L 268.991621 151.236706 
L 269.153004 209.127302 
L 269.18528 209.392046 
L 269.233695 209.039054 
L 269.395078 208.333071 
L 269.572599 208.774311 
L 269.604876 208.862559 
L 269.798535 209.392046 
L 269.814674 209.303798 
L 269.863089 209.568541 
L 269.94378 209.656789 
L 270.089025 209.921533 
L 270.282684 210.009781 
L 270.395652 210.186276 
L 270.524759 210.009781 
L 270.653865 210.009781 
L 270.782971 210.274524 
L 270.79911 210.362772 
L 270.879801 210.274524 
L 271.008907 210.098029 
L 271.154152 210.186276 
L 271.218705 210.362772 
L 271.26712 210.274524 
L 271.428503 209.921533 
L 271.444641 210.009781 
L 271.525333 209.921533 
L 271.638301 209.833285 
L 271.702854 209.745037 
L 271.896514 209.21555 
L 272.009482 209.127302 
L 272.283833 208.156576 
L 272.299971 208.244823 
L 272.380663 208.156576 
L 272.445216 208.156576 
L 272.59046 207.715336 
L 272.816397 207.009353 
L 272.88095 206.921106 
L 273.090748 206.303371 
L 273.123024 206.215123 
L 273.25213 206.038627 
L 273.300545 206.126875 
L 273.461928 206.479866 
L 273.526482 206.568114 
L 273.671726 206.832858 
L 273.800833 206.921106 
L 273.865386 207.009353 
L 273.881524 206.921106 
L 274.075184 206.391618 
L 274.172013 206.303371 
L 274.414088 205.50914 
L 274.446364 205.420892 
L 274.623886 204.979653 
L 274.704577 205.067901 
L 274.752992 205.156148 
L 274.785269 204.979653 
L 274.801407 205.067901 
L 274.86596 204.979653 
L 274.946651 204.803157 
L 274.96279 204.891405 
L 275.043481 204.979653 
L 275.05962 204.891405 
L 275.172588 204.803157 
L 275.350109 204.361918 
L 275.495354 204.27367 
L 275.753566 203.302943 
L 275.801981 203.391191 
L 275.834258 203.302943 
L 276.027917 202.773456 
L 276.060194 202.685208 
L 276.140885 202.773456 
L 276.1893 202.508713 
L 276.221577 202.420465 
L 276.399098 201.626234 
L 276.641172 200.743755 
L 276.657311 200.832003 
L 276.705726 200.655508 
L 277.04463 198.361063 
L 277.286704 194.831149 
L 277.351257 71.195897 
L 277.431949 138.087775 
L 277.593332 205.862131 
L 277.754715 207.185849 
L 278.206587 210.186276 
L 278.448662 211.774738 
L 278.480938 211.862986 
L 278.868257 213.539695 
L 278.900534 213.451447 
L 278.93281 213.627943 
L 278.948949 213.627943 
L 279.094193 213.892686 
L 279.158747 213.980934 
L 279.287853 214.15743 
L 279.320129 214.245678 
L 279.433098 214.333926 
L 279.69131 214.245678 
L 279.836555 213.980934 
L 280.014076 213.892686 
L 280.223874 213.274951 
L 280.54664 213.186704 
L 280.64347 213.098456 
L 280.659608 213.186704 
L 280.740299 213.098456 
L 280.804853 213.010208 
L 280.820991 212.92196 
L 280.885544 213.098456 
L 280.901682 213.010208 
L 281.079204 212.92196 
L 281.192172 212.833712 
L 281.563353 212.745464 
L 281.708597 212.480721 
L 281.789289 212.568969 
L 281.805427 212.480721 
L 282.241161 212.392473 
L 282.370267 212.215977 
L 282.483235 212.127729 
L 282.612342 211.951234 
L 282.951246 211.862986 
L 283.096491 211.598242 
L 283.403118 211.509994 
L 283.532225 211.333499 
L 283.85499 211.245251 
L 284.000235 210.980507 
L 284.04865 210.892259 
L 284.210033 210.539268 
L 284.24231 210.45102 
L 284.387554 210.186276 
L 284.484384 210.098029 
L 284.71032 209.392046 
L 284.90398 209.303798 
L 285.033086 209.127302 
L 285.065363 209.039054 
L 285.259022 208.509567 
L 285.307437 208.421319 
L 285.420405 208.333071 
L 285.46882 208.244823 
L 285.662479 207.715336 
L 285.678618 207.803584 
L 285.743171 207.627088 
L 285.823862 207.538841 
L 285.985245 207.185849 
L 286.146628 207.097601 
L 286.308011 206.74461 
L 286.437118 206.921106 
L 286.517809 206.832858 
L 286.550086 206.74461 
L 286.598501 206.832858 
L 286.711469 206.921106 
L 286.743745 206.832858 
L 286.856713 206.74461 
L 287.486107 206.656362 
L 287.582937 206.479866 
L 287.599075 206.568114 
L 287.760458 206.479866 
L 288.067085 205.332644 
L 288.341436 205.244396 
L 288.486681 204.891405 
L 288.567373 205.156148 
L 288.615788 205.067901 
L 288.809447 204.538413 
L 288.841724 204.450166 
L 288.97083 204.27367 
L 289.132213 204.626661 
L 289.245181 204.714909 
L 289.374287 204.891405 
L 289.567947 204.803157 
L 289.810021 204.008926 
L 289.987543 203.920678 
L 290.342585 202.508713 
L 290.358723 202.59696 
L 290.391 202.420465 
L 290.439415 202.508713 
L 290.552383 202.420465 
L 290.665351 202.332217 
L 290.697628 202.243969 
L 290.842872 201.979225 
L 290.907425 201.890978 
L 291.004255 201.714482 
L 291.020394 201.80273 
L 291.05267 201.714482 
L 291.197915 201.449738 
L 291.230191 201.36149 
L 292.069383 196.41961 
L 292.101659 193.683927 
L 292.166212 71.548889 
L 292.230766 125.380083 
L 292.408287 205.244396 
L 292.553532 205.950379 
L 292.634223 206.038627 
L 293.376585 209.568541 
L 293.424999 209.656789 
L 293.780042 211.068755 
L 293.844595 211.157003 
L 294.054393 211.862986 
L 294.070531 211.774738 
L 294.118946 211.951234 
L 294.135084 211.951234 
L 294.248053 212.039481 
L 294.377159 212.215977 
L 294.490127 212.127729 
L 294.667648 212.215977 
L 294.812893 212.480721 
L 294.877446 212.568969 
L 294.990414 212.657216 
L 295.11952 212.745464 
L 295.21635 212.833712 
L 295.345457 212.657216 
L 295.571393 212.568969 
L 295.732776 212.215977 
L 295.797329 212.127729 
L 295.926435 211.951234 
L 295.990988 211.862986 
L 296.120095 211.68649 
L 296.200786 211.598242 
L 296.378308 211.157003 
L 296.555829 211.068755 
L 296.571967 210.980507 
L 296.652659 211.068755 
L 296.83018 211.509994 
L 297.346605 211.421746 
L 297.507988 211.068755 
L 297.717786 210.980507 
L 297.927584 210.362772 
L 298.040552 210.274524 
L 298.15352 210.009781 
L 298.169658 210.098029 
L 298.234211 210.009781 
L 298.444009 209.392046 
L 298.524701 209.303798 
L 298.637669 209.127302 
L 298.653807 209.21555 
L 298.702222 209.039054 
L 298.71836 209.039054 
L 298.976573 208.156576 
L 299.057265 208.068328 
L 299.267062 207.450593 
L 299.315477 207.362345 
L 299.347754 207.274097 
L 299.412307 207.362345 
L 299.912594 207.274097 
L 300.041701 207.097601 
L 300.073977 207.009353 
L 300.170807 206.832858 
L 300.186945 206.921106 
L 300.219222 207.009353 
L 300.267637 206.832858 
L 300.541988 206.74461 
L 300.671094 206.568114 
L 300.735647 206.656362 
L 300.767924 206.568114 
L 300.961583 206.479866 
L 301.139105 206.038627 
L 301.155243 206.126875 
L 301.203658 205.950379 
L 301.219796 205.950379 
L 301.397317 205.862131 
L 301.526424 205.685636 
L 301.816913 205.773883 
L 301.929881 205.862131 
L 302.139679 205.950379 
L 302.284924 206.215123 
L 302.397892 206.126875 
L 302.51086 206.215123 
L 302.672243 205.773883 
L 302.752934 205.950379 
L 302.785211 205.862131 
L 302.849764 205.773883 
L 303.027285 205.332644 
L 303.091838 205.244396 
L 303.26936 204.803157 
L 303.333913 204.714909 
L 303.479157 204.450166 
L 303.575987 204.361918 
L 303.721232 204.097174 
L 303.850338 204.008926 
L 304.011721 203.655935 
L 304.108551 203.567687 
L 304.286072 203.126448 
L 304.528147 203.0382 
L 304.608838 202.773456 
L 304.657253 202.861704 
L 304.721806 202.861704 
L 304.818636 202.508713 
L 304.850912 202.59696 
L 304.899327 202.59696 
L 305.06071 201.80273 
L 305.109125 201.890978 
L 305.125263 201.80273 
L 305.270508 201.36149 
L 305.367338 201.273243 
L 305.560997 200.743755 
L 305.609412 200.655508 
L 306.190391 197.037345 
L 306.351774 193.772174 
L 306.416327 71.990128 
L 306.497019 138.352519 
L 306.658402 204.803157 
L 306.739093 205.50914 
L 306.787508 205.332644 
L 306.932753 204.979653 
L 306.948891 205.067901 
L 306.997306 204.891405 
L 307.029582 204.979653 
L 307.207104 205.067901 
L 307.820359 207.891832 
L 307.868774 207.98008 
L 308.046295 208.421319 
L 308.110848 208.509567 
L 308.304508 209.480294 
L 308.465891 209.833285 
L 308.788657 209.745037 
L 308.885486 209.656789 
L 308.998454 209.745037 
L 309.095284 209.833285 
L 309.22439 210.009781 
L 309.337359 209.921533 
L 309.466465 210.009781 
L 309.579433 210.098029 
L 309.708539 209.921533 
L 309.756954 209.833285 
L 309.789231 209.745037 
L 309.853784 209.833285 
L 310.111997 209.921533 
L 310.224965 210.009781 
L 310.499316 209.921533 
L 310.628422 209.745037 
L 310.967326 209.656789 
L 311.096433 209.480294 
L 311.160986 209.392046 
L 311.322369 209.039054 
L 311.354645 208.950806 
L 311.532167 208.509567 
L 311.564443 208.421319 
L 311.709688 208.156576 
L 311.919486 208.068328 
L 312.032454 207.98008 
L 312.306805 207.891832 
L 312.468188 207.538841 
L 312.532741 207.450593 
L 312.694124 207.097601 
L 312.903922 207.009353 
L 313.033028 206.832858 
L 313.081443 206.74461 
L 313.210549 206.568114 
L 313.355794 206.479866 
L 313.371932 206.391618 
L 313.452624 206.479866 
L 313.67856 206.391618 
L 313.743113 206.479866 
L 313.823805 206.126875 
L 313.936773 206.038627 
L 314.049741 205.950379 
L 314.43706 205.862131 
L 314.646858 205.244396 
L 314.743687 205.156148 
L 314.856655 204.891405 
L 314.872794 204.979653 
L 314.985762 204.891405 
L 315.163283 204.450166 
L 315.243975 204.361918 
L 315.405358 204.008926 
L 315.599017 203.920678 
L 315.728123 203.655935 
L 315.744262 203.744183 
L 315.824953 203.655935 
L 315.937921 203.479439 
L 316.583453 206.479866 
L 316.793251 206.391618 
L 316.809389 206.303371 
L 316.873942 206.391618 
L 316.890081 206.479866 
L 316.938496 206.303371 
L 316.954634 206.303371 
L 317.164432 206.215123 
L 317.2774 206.038627 
L 317.406506 206.215123 
L 317.713134 206.126875 
L 317.826102 206.038627 
L 317.874517 205.950379 
L 318.197283 204.626661 
L 318.213421 204.714909 
L 318.261836 204.538413 
L 318.294112 204.626661 
L 318.713708 202.861704 
L 318.745985 202.773456 
L 318.988059 201.979225 
L 319.020336 201.979225 
L 319.197857 201.096747 
L 319.310825 201.096747 
L 319.472208 200.479012 
L 319.633591 199.067046 
L 319.859527 195.448884 
L 319.891804 136.058074 
L 319.92408 73.13735 
L 319.988633 114.878588 
L 320.166155 202.685208 
L 320.246846 203.479439 
L 320.295261 203.214695 
L 320.359814 203.302943 
L 320.553474 203.83243 
L 320.666442 203.920678 
L 320.811686 204.185422 
L 320.87624 204.27367 
L 321.279697 205.950379 
L 321.328112 206.038627 
L 321.489495 206.391618 
L 321.53791 206.479866 
L 321.667016 206.656362 
L 321.796122 206.74461 
L 321.925229 206.921106 
L 321.989782 207.009353 
L 322.135027 207.274097 
L 322.29641 207.362345 
L 322.441654 207.627088 
L 322.473931 207.538841 
L 322.538484 207.627088 
L 322.66759 207.803584 
L 322.76442 207.891832 
L 322.974218 208.509567 
L 323.006495 208.597815 
L 323.119463 208.686063 
L 323.652026 208.597815 
L 323.764994 208.421319 
L 323.797271 208.509567 
L 323.861824 208.421319 
L 323.910239 208.333071 
L 324.023207 208.068328 
L 324.039345 208.156576 
L 324.152314 208.068328 
L 324.168452 207.98008 
L 324.200728 208.156576 
L 324.216867 208.156576 
L 324.265282 208.244823 
L 324.313696 208.156576 
L 324.426665 207.98008 
L 324.539633 208.068328 
L 324.555771 207.98008 
L 324.636462 208.068328 
L 324.765569 208.156576 
L 324.830122 208.244823 
L 324.862399 208.156576 
L 325.023781 208.244823 
L 325.056058 208.333071 
L 325.120611 208.244823 
L 325.685452 208.156576 
L 325.814558 207.98008 
L 325.895249 207.891832 
L 326.024356 207.715336 
L 326.185739 207.627088 
L 326.347122 207.274097 
L 326.395537 207.185849 
L 326.540781 206.74461 
L 326.589196 206.656362 
L 326.750579 206.303371 
L 326.782856 206.215123 
L 326.911962 206.038627 
L 326.992653 205.950379 
L 327.137898 205.685636 
L 327.21859 205.597388 
L 327.299281 205.50914 
L 327.315419 205.597388 
L 327.58977 205.50914 
L 327.638185 205.420892 
L 327.6866 205.50914 
L 327.767292 205.420892 
L 327.944813 204.979653 
L 328.186887 204.891405 
L 328.412823 204.185422 
L 328.493515 204.185422 
L 328.622621 203.655935 
L 328.63876 203.744183 
L 328.961525 203.83243 
L 328.977664 203.920678 
L 329.00994 203.744183 
L 329.042217 203.744183 
L 329.219738 203.655935 
L 329.332706 203.302943 
L 329.364983 203.391191 
L 329.413398 203.302943 
L 329.590919 202.861704 
L 329.703887 202.949952 
L 329.86527 202.861704 
L 329.9621 202.420465 
L 330.010515 202.59696 
L 330.091206 202.861704 
L 330.123483 202.685208 
L 330.204174 202.59696 
L 330.397834 202.067473 
L 330.43011 202.155721 
L 330.478525 201.979225 
L 330.688323 201.979225 
L 330.833568 201.537986 
L 330.930398 201.537986 
L 331.124057 221.746746 
L 331.495238 236.042899 
L 332.076216 248.927087 
L 332.786301 258.810847 
L 333.528663 265.782428 
L 335.142493 274.077727 
L 335.174769 274.077727 
L 335.336152 274.78371 
L 335.35229 274.78371 
L 335.529812 275.57794 
L 335.933269 277.25465 
L 335.965546 277.342898 
L 336.191482 278.048881 
L 336.239897 278.137128 
L 336.433556 278.666616 
L 336.465833 278.754863 
L 336.594939 278.931359 
L 336.675631 279.019607 
L 336.853152 279.460846 
L 336.917705 279.549094 
L 337.079088 279.990333 
L 337.111365 279.902086 
L 337.127503 280.078581 
L 337.159779 280.078581 
L 337.321162 280.431573 
L 337.385716 280.519821 
L 337.547099 280.872812 
L 337.660067 280.96106 
L 337.82145 281.314051 
L 337.950556 281.402299 
L 338.079662 281.667043 
L 338.095801 281.578795 
L 338.144215 281.755291 
L 338.160354 281.667043 
L 338.305598 281.931786 
L 338.434705 282.020034 
L 338.563811 282.19653 
L 338.741332 282.284778 
L 338.838162 282.373026 
L 338.934992 282.284778 
L 338.983407 282.373026 
L 339.031822 282.284778 
L 339.306173 282.19653 
L 339.386864 282.108282 
L 339.403002 282.19653 
L 340.758619 282.108282 
L 340.887726 281.931786 
L 341.049109 281.843539 
L 341.194353 281.578795 
L 341.258906 281.490547 
L 341.388013 281.314051 
L 341.565534 281.225803 
L 341.69464 281.049308 
L 341.79147 281.137556 
L 341.904438 281.049308 
L 342.630662 280.96106 
L 342.6468 280.872812 
L 342.679076 281.049308 
L 342.711353 281.049308 
L 342.888874 280.96106 
L 343.001842 280.872812 
L 343.760342 280.784564 
L 343.792619 280.696316 
L 343.857172 280.784564 
L 343.97014 280.696316 
L 344.050831 280.608068 
L 344.06697 280.696316 
L 344.228353 280.608068 
L 344.341321 280.519821 
L 344.680225 280.431573 
L 344.696363 280.343325 
L 344.777055 280.431573 
L 344.922299 280.343325 
L 345.035268 280.255077 
L 345.600108 280.166829 
L 345.616246 280.078581 
L 345.696938 280.166829 
L 345.793767 280.078581 
L 345.906735 279.990333 
L 346.068118 279.902086 
L 346.181086 279.72559 
L 346.213363 279.813838 
L 346.261778 279.72559 
L 346.374746 279.637342 
L 346.568406 279.549094 
L 346.584544 279.460846 
L 346.665235 279.549094 
L 346.971863 279.460846 
L 347.100969 279.284351 
L 347.940161 279.372598 
L 347.972437 279.460846 
L 348.03699 279.372598 
L 349.666958 279.460846 
L 349.683097 279.549094 
L 349.763788 279.460846 
L 351.16782 279.549094 
L 351.264649 279.637342 
L 351.361479 279.549094 
L 351.393756 279.637342 
L 351.442171 279.549094 
L 351.539 279.460846 
L 351.555139 279.549094 
L 351.63583 279.460846 
L 352.362054 279.549094 
L 352.475022 279.637342 
L 353.072139 279.549094 
L 353.088277 279.460846 
L 353.168968 279.549094 
L 353.362628 279.460846 
L 353.394904 279.372598 
L 353.443319 279.549094 
L 353.524011 279.460846 
L 353.572426 279.372598 
L 353.604702 279.460846 
L 353.669255 279.549094 
L 353.701532 279.460846 
L 354.702106 279.372598 
L 354.815074 279.284351 
L 354.831213 279.372598 
L 354.879628 279.196103 
L 354.895766 279.284351 
L 355.008734 279.196103 
L 355.13784 279.107855 
L 355.3315 240.367044 
L 355.79951 201.096747 
L 355.89634 186.53585 
L 355.944755 68.989701 
L 356.009308 127.762775 
L 356.154553 199.33179 
L 356.170691 199.155294 
L 356.364351 192.536704 
L 356.800085 180.623243 
L 356.864638 71.637137 
L 356.945329 126.527305 
L 357.122851 192.536704 
L 357.284234 194.125166 
L 357.477893 194.654653 
L 357.590861 194.654653 
L 357.703829 195.007645 
L 357.719968 194.919397 
L 357.865212 194.831149 
L 358.17184 193.683927 
L 358.236393 193.595679 
L 358.73668 190.330508 
L 359.043308 185.918115 
L 359.172414 179.740765 
L 359.236967 68.107222 
L 359.30152 112.407648 
L 359.49518 192.801448 
L 359.672701 195.360636 
L 359.898637 196.154867 
L 359.930914 196.066619 
L 359.995467 196.154867 
L 360.237542 196.066619 
L 360.511893 195.095892 
L 360.640999 195.007645 
L 360.834658 194.301662 
L 360.850797 194.38991 
L 360.947627 194.301662 
L 361.092871 193.860422 
L 361.10901 193.94867 
L 361.173563 193.860422 
L 361.318807 193.595679 
L 361.351084 193.507431 
L 361.625435 192.536704 
L 361.706126 192.448457 
L 361.867509 192.095465 
L 361.883648 192.095465 
L 362.028892 191.565978 
L 362.125722 191.47773 
L 362.416211 190.418756 
L 362.496903 190.330508 
L 363.223126 186.888841 
L 363.255403 186.800594 
L 363.545892 183.623671 
L 363.56203 181.946961 
L 363.626584 66.96 
L 363.707275 123.085639 
L 363.884796 191.654226 
L 364.046179 193.94867 
L 364.143009 194.036918 
L 364.272115 194.213414 
L 364.32053 194.301662 
L 364.352807 194.478157 
L 364.433498 194.38991 
L 364.449637 194.301662 
L 364.51419 194.38991 
L 364.594881 194.566405 
L 364.627158 194.478157 
L 364.836956 194.566405 
L 364.853094 194.654653 
L 364.885371 194.478157 
L 364.917647 194.478157 
L 365.159722 193.683927 
L 365.17586 193.683927 
L 365.337243 192.977944 
L 365.595456 192.889696 
L 366.240987 189.889269 
L 366.321679 189.977517 
L 366.370094 190.154012 
L 366.40237 189.977517 
L 366.757413 188.565551 
L 366.821966 188.565551 
L 366.967211 188.036064 
L 367.015626 188.212559 
L 367.06404 188.036064 
L 367.193147 187.947816 
L 367.91937 183.535423 
L 367.983923 181.59397 
L 368.0162 139.411493 
L 368.064615 68.19547 
L 368.129168 110.377947 
L 368.338966 190.771747 
L 368.516487 192.801448 
L 368.694008 193.242687 
L 368.806976 193.154439 
L 368.919944 193.242687 
L 369.178157 193.330935 
L 369.194295 193.419183 
L 369.24271 193.330935 
L 369.323402 193.154439 
L 369.355678 193.242687 
L 369.387955 193.507431 
L 369.468646 193.419183 
L 369.646168 192.977944 
L 369.662306 193.066192 
L 369.710721 192.889696 
L 369.888242 192.360209 
L 369.920519 192.448457 
L 369.968934 192.271961 
L 370.485359 189.977517 
L 370.533774 189.889269 
L 370.695157 189.095038 
L 370.808125 189.183286 
L 371.050199 188.389055 
L 371.082476 188.300807 
L 371.211582 187.859568 
L 371.243859 187.947816 
L 371.292274 187.859568 
L 371.389104 187.594824 
L 371.42138 187.683072 
L 371.534348 187.77132 
L 371.679593 188.212559 
L 371.744146 188.036064 
L 371.776423 188.212559 
L 371.840976 188.124311 
L 371.970082 187.77132 
L 371.98622 187.859568 
L 372.08305 187.77132 
L 372.502646 186.006363 
L 372.534923 185.918115 
L 372.776997 184.417901 
L 372.857688 183.447175 
L 372.922242 180.270252 
L 372.986795 67.665983 
L 373.067486 115.672819 
L 373.261146 188.742046 
L 373.454805 190.683499 
L 373.680741 191.389482 
L 373.858263 191.301234 
L 373.955092 191.124739 
L 373.971231 191.212987 
L 374.051922 191.389482 
L 374.084199 191.301234 
L 374.293997 190.595252 
L 374.310135 190.683499 
L 374.35855 190.418756 
L 374.519933 189.977517 
L 374.536071 190.065764 
L 374.600624 189.889269 
L 374.842699 189.801021 
L 375.052497 189.183286 
L 375.100911 189.271534 
L 375.197741 189.448029 
L 375.21388 189.359781 
L 375.262294 189.271534 
L 375.488231 188.565551 
L 375.520507 188.477303 
L 375.843273 187.153585 
L 375.891688 187.330081 
L 375.923965 187.153585 
L 376.149901 186.447602 
L 376.182177 186.53585 
L 376.24673 186.447602 
L 376.295145 186.359354 
L 376.666326 184.859141 
L 376.795432 184.770893 
L 377.10206 182.652944 
L 377.182752 180.534996 
L 377.215028 148.501022 
L 377.263443 68.371966 
L 377.327996 104.46534 
L 377.537794 186.624098 
L 377.683039 188.918542 
L 377.699177 188.830294 
L 377.908975 189.448029 
L 377.941251 189.536277 
L 378.102634 189.889269 
L 378.231741 189.977517 
L 378.280156 190.065764 
L 378.32857 189.977517 
L 378.473815 189.712773 
L 378.586783 189.624525 
L 378.828858 188.830294 
L 378.861134 188.742046 
L 378.990241 188.477303 
L 379.119347 188.653799 
L 379.167762 188.565551 
L 379.458251 187.506576 
L 379.522804 187.418329 
L 379.651911 187.241833 
L 379.74874 187.153585 
L 379.974677 186.447602 
L 380.023091 186.359354 
L 380.216751 185.212132 
L 380.232889 185.30038 
L 380.265166 185.123884 
L 380.281304 185.123884 
L 380.410411 184.947388 
L 380.491102 185.035636 
L 380.571794 185.212132 
L 380.60407 185.123884 
L 380.684762 185.035636 
L 380.846145 184.682645 
L 380.862283 184.770893 
L 380.894559 184.506149 
L 381.088219 183.888414 
L 381.104357 183.976662 
L 381.16891 183.800166 
L 381.523953 178.858286 
L 381.55623 173.210423 
L 381.620783 68.018974 
L 381.685336 103.582862 
L 381.911272 187.77132 
L 382.104932 189.801021 
L 382.185623 189.889269 
L 382.347006 190.24226 
L 382.379283 190.330508 
L 382.540666 190.683499 
L 382.702048 190.595252 
L 382.927985 189.889269 
L 383.121644 189.977517 
L 383.234612 190.330508 
L 383.266889 190.24226 
L 383.379857 190.330508 
L 383.395995 190.418756 
L 383.44441 190.24226 
L 383.460548 190.24226 
L 383.654208 189.712773 
L 383.702623 189.624525 
L 383.815591 189.183286 
L 383.864006 189.271534 
L 383.896282 189.183286 
L 384.089942 188.653799 
L 384.122218 188.742046 
L 384.170633 188.565551 
L 384.219048 188.477303 
L 384.396569 188.036064 
L 384.461123 187.947816 
L 384.557952 187.859568 
L 384.606367 188.036064 
L 384.67092 187.947816 
L 384.735474 187.859568 
L 384.896857 187.418329 
L 384.945272 187.506576 
L 384.993686 187.418329 
L 385.042101 187.330081 
L 385.090516 187.418329 
L 385.171208 187.330081 
L 385.300314 186.977089 
L 385.316452 187.065337 
L 385.348729 187.153585 
L 385.364867 187.241833 
L 385.42942 187.065337 
L 386.123367 182.741192 
L 386.317027 177.799312 
L 386.38158 69.872179 
L 386.47841 122.20316 
L 386.672069 186.271106 
L 386.833452 187.947816 
L 386.84959 187.859568 
L 386.881867 188.124311 
L 387.107803 188.918542 
L 387.14008 188.830294 
L 387.188495 189.00679 
L 387.285324 189.095038 
L 387.398292 189.271534 
L 387.575814 188.830294 
L 387.70492 188.742046 
L 387.850165 188.477303 
L 387.89858 188.389055 
L 387.963133 188.300807 
L 387.979271 188.389055 
L 388.140654 189.095038 
L 388.302037 188.742046 
L 388.527973 188.653799 
L 388.640941 188.565551 
L 388.753909 188.477303 
L 388.947569 187.947816 
L 388.979845 187.859568 
L 389.157367 187.418329 
L 389.189643 187.330081 
L 389.641515 185.388628 
L 389.657654 185.388628 
L 389.899728 183.094183 
L 390.093388 181.505722 
L 390.319324 176.65209 
L 390.3516 133.675382 
L 390.400015 69.43094 
L 390.464568 104.994828 
L 390.674366 184.329653 
L 390.835749 186.53585 
L 390.868026 186.624098 
L 391.126239 187.506576 
L 391.158515 187.506576 
L 391.174653 187.330081 
L 391.271483 187.418329 
L 391.352175 187.241833 
L 391.368313 187.330081 
L 391.432866 187.506576 
L 391.481281 187.418329 
L 391.513558 187.241833 
L 391.578111 187.330081 
L 391.691079 187.418329 
L 391.739494 187.330081 
L 391.949292 186.712346 
L 392.078398 186.624098 
L 392.385026 185.476876 
L 392.449579 185.388628 
L 392.610962 184.682645 
L 392.659377 184.594397 
L 392.869174 183.447175 
L 392.885313 183.447175 
L 393.175802 181.417474 
L 393.595398 178.68179 
L 393.724504 175.593115 
L 393.756781 142.323672 
L 393.805196 70.048675 
L 393.869749 98.817477 
L 394.111823 183.623671 
L 394.305483 186.359354 
L 394.499142 187.418329 
L 394.547557 187.506576 
L 394.70894 187.859568 
L 394.741217 187.947816 
L 394.870323 188.124311 
L 394.983291 188.212559 
L 395.015568 188.300807 
L 395.080121 188.212559 
L 395.37061 187.153585 
L 395.419025 187.065337 
L 395.548131 186.888841 
L 395.612685 186.888841 
L 395.757929 186.447602 
L 395.806344 186.359354 
L 395.967727 185.829867 
L 395.983865 185.918115 
L 396.096833 185.829867 
L 396.290493 184.859141 
L 396.32277 184.770893 
L 396.69395 183.270679 
L 396.742365 183.182431 
L 397.048993 181.770466 
L 397.081269 181.858713 
L 397.161961 181.770466 
L 397.517003 177.181577 
L 397.565418 170.915979 
L 397.629972 70.313419 
L 397.710663 108.701238 
L 397.936599 183.005936 
L 398.130259 185.741619 
L 398.162535 185.829867 
L 398.485301 187.065337 
L 398.582131 187.153585 
L 398.711237 187.330081 
L 398.904897 187.241833 
L 399.034003 187.065337 
L 399.211524 186.977089 
L 399.437461 186.271106 
L 399.582705 186.182859 
L 399.744088 185.829867 
L 399.857056 185.918115 
L 399.889333 185.829867 
L 399.937748 185.918115 
L 399.970024 186.006363 
L 400.018439 185.918115 
L 400.405758 184.329653 
L 400.454173 184.241406 
L 401.196535 179.652517 
L 401.406333 175.063628 
L 401.487024 70.313419 
L 401.583854 121.232434 
L 401.777513 181.417474 
L 401.955035 184.241406 
L 402.229386 186.094611 
L 402.358492 186.359354 
L 402.503737 186.094611 
L 402.56829 186.182859 
L 402.584428 186.271106 
L 402.66512 186.182859 
L 402.842641 186.094611 
L 403.052439 185.476876 
L 403.100854 185.388628 
L 403.278375 184.947388 
L 403.342928 184.859141 
L 403.455896 184.682645 
L 403.568864 184.770893 
L 403.923907 184.682645 
L 404.036875 184.594397 
L 404.165981 184.682645 
L 404.214396 184.770893 
L 404.262811 184.682645 
L 404.359641 184.770893 
L 404.424194 184.859141 
L 404.45647 184.770893 
L 404.521024 184.682645 
L 404.730821 183.800166 
L 404.763098 183.888414 
L 405.102002 183.800166 
L 405.327938 183.094183 
L 405.392492 183.005936 
L 405.50546 182.476448 
L 405.537736 182.564696 
L 405.602289 182.476448 
L 405.908917 180.270252 
L 406.247821 175.41662 
L 406.296236 171.26897 
L 406.376928 71.460641 
L 406.441481 105.877306 
L 406.667417 182.211705 
L 406.861076 185.388628 
L 407.248395 186.977089 
L 407.329087 187.065337 
L 407.345225 187.153585 
L 407.39364 186.977089 
L 407.409778 186.977089 
L 407.442055 186.977089 
L 407.571161 186.624098 
L 407.813236 186.712346 
L 407.893927 186.800594 
L 407.910066 186.712346 
L 408.119863 186.800594 
L 408.200555 186.977089 
L 408.232831 186.888841 
L 408.3458 186.800594 
L 408.507182 186.447602 
L 408.604012 186.447602 
L 408.797672 185.476876 
L 409.088161 184.417901 
L 409.152714 184.329653 
L 409.701416 181.770466 
L 409.717555 181.858713 
L 409.749831 181.682218 
L 409.782108 181.682218 
L 409.927352 180.976235 
L 409.959629 181.152731 
L 410.072597 181.240978 
L 410.395363 181.152731 
L 410.927927 177.88756 
L 411.08931 173.210423 
L 411.121586 151.589698 
L 411.186139 71.460641 
L 411.250693 104.377093 
L 411.476629 182.035209 
L 411.65415 185.123884 
L 411.896224 186.624098 
L 412.025331 186.888841 
L 412.154437 186.712346 
L 412.331958 186.624098 
L 412.461065 186.447602 
L 412.622448 186.53585 
L 412.703139 186.888841 
L 412.767692 186.800594 
L 412.961352 186.271106 
L 413.058182 186.182859 
L 413.187288 186.006363 
L 413.300256 185.918115 
L 413.477777 185.212132 
L 413.493916 185.30038 
L 413.623022 185.476876 
L 413.784405 185.123884 
L 413.83282 185.035636 
L 414.284692 183.094183 
L 414.365384 183.005936 
L 414.413799 183.094183 
L 414.49449 182.82944 
L 414.526767 182.741192 
L 414.704288 181.946961 
L 414.752703 182.035209 
L 414.784979 181.946961 
L 415.123884 179.652517 
L 415.398235 173.651662 
L 415.446649 98.464486 
L 415.478926 71.195897 
L 415.543479 100.229443 
L 415.785554 182.211705 
L 415.979213 185.035636 
L 416.189011 186.182859 
L 416.398809 186.800594 
L 416.624745 186.712346 
L 416.705436 186.624098 
L 416.721575 186.712346 
L 416.76999 186.712346 
L 416.931373 186.094611 
L 416.963649 186.182859 
L 416.995926 186.094611 
L 417.14117 185.653371 
L 417.189585 185.565124 
L 417.350968 185.212132 
L 417.399383 185.123884 
L 417.673734 184.153158 
L 417.706011 184.06491 
L 418.077192 182.564696 
L 418.238574 182.476448 
L 418.512926 181.417474 
L 418.529064 181.505722 
L 418.56134 181.329226 
L 418.593617 181.329226 
L 418.642032 181.240978 
L 419.110042 178.152303 
L 419.31984 174.710637 
L 419.352117 171.798457 
L 419.432808 71.372393 
L 419.5135 110.377947 
L 419.771713 203.83243 
L 420.013787 225.7179 
L 420.433383 242.926232 
L 420.83684 252.545249 
L 421.224159 258.634351 
L 421.627616 263.487984 
L 421.756723 264.723454 
L 422.208595 268.518112 
L 422.660467 271.518539 
L 422.870265 272.754009 
L 422.902542 272.842257 
L 423.612627 276.195675 
L 423.644903 276.283923 
L 424.048361 277.960633 
L 424.096776 278.048881 
L 424.354988 278.931359 
L 424.403403 279.019607 
L 424.564786 279.637342 
L 424.645478 279.72559 
L 424.839137 280.255077 
L 424.871414 280.343325 
L 425.081212 280.96106 
L 425.113488 281.049308 
L 425.274871 281.402299 
L 425.339424 281.490547 
L 425.516946 281.931786 
L 425.581499 282.020034 
L 425.726743 282.284778 
L 425.839712 282.373026 
L 426.001094 282.726017 
L 426.097924 282.814265 
L 426.243169 283.079009 
L 426.32386 283.167256 
L 426.469105 283.432 
L 426.565935 283.520248 
L 426.678903 283.696744 
L 426.695041 283.608496 
L 426.759594 283.784991 
L 426.856424 283.873239 
L 426.98553 284.049735 
L 427.033945 284.137983 
L 427.146913 284.226231 
L 427.243743 284.314479 
L 427.388988 284.579222 
L 427.421264 284.490974 
L 427.485818 284.579222 
L 428.131349 284.66747 
L 428.260456 284.843966 
L 429.148062 284.932214 
L 429.1642 285.020461 
L 429.244892 284.932214 
L 429.341722 284.843966 
L 429.45469 284.932214 
L 429.729041 285.020461 
L 429.793594 285.108709 
L 429.82587 285.020461 
L 430.697338 284.932214 
L 430.810306 284.843966 
L 431.310594 284.755718 
L 431.375147 284.66747 
L 431.407423 284.755718 
L 431.972264 284.66747 
L 432.10137 284.490974 
L 432.633934 284.402726 
L 432.746902 284.314479 
L 433.392434 284.226231 
L 433.505402 284.137983 
L 433.795891 284.049735 
L 433.860444 283.873239 
L 433.908859 283.961487 
L 433.989551 284.049735 
L 434.005689 283.961487 
L 434.74805 283.873239 
L 434.861019 283.784991 
L 435.232199 283.696744 
L 435.345167 283.608496 
L 435.635657 283.520248 
L 435.732486 283.432 
L 435.780901 283.520248 
L 435.780901 283.520248 
" style="fill:none;stroke:#1f77b4;stroke-linecap:square;stroke-width:1.5;"/>
   </g>
   <g id="line2d_14">
    <path clip-path="url(#pd6063bdcb7)" d="M 80.754545 275.560291 
L 81.383939 275.451852 
L 81.56146 275.415706 
L 82.497481 275.307267 
L 82.658864 275.289193 
L 84.175864 275.180754 
L 84.337247 275.162681 
L 88.904385 275.054242 
L 89.775852 258.788397 
L 90.550491 248.360183 
L 91.40582 239.992309 
L 92.325703 233.630556 
L 93.181033 229.455655 
L 93.810426 227.142291 
L 94.552788 225.027731 
L 95.714745 222.696293 
L 96.215032 221.973367 
L 96.505522 221.59383 
L 97.764309 220.346782 
L 97.909553 220.238343 
L 98.313011 219.949172 
L 98.490532 219.840733 
L 98.813298 219.641929 
L 99.023096 219.53349 
L 99.297447 219.388904 
L 99.539521 219.280465 
L 99.797734 219.153953 
L 100.088223 219.045514 
L 100.330298 218.937075 
L 100.669202 218.828636 
L 100.879 218.756344 
L 101.234042 218.647905 
L 101.44384 218.575612 
L 101.895712 218.467173 
L 102.089372 218.412954 
L 102.557382 218.304515 
L 102.751042 218.250295 
L 103.33202 218.141856 
L 103.509542 218.10571 
L 104.122797 217.997271 
L 104.300318 217.961125 
L 104.994265 217.852686 
L 105.171786 217.816539 
L 105.978701 217.7081 
L 106.156222 217.671954 
L 107.092243 217.563515 
L 107.269764 217.527369 
L 108.302615 217.41893 
L 108.480137 217.382783 
L 109.642094 217.274344 
L 109.803477 217.256271 
L 110.917019 217.147832 
L 111.078402 217.129759 
L 112.304913 217.02132 
L 112.466296 217.003247 
L 113.789636 216.894808 
L 113.951019 216.876735 
L 115.387327 216.768296 
L 115.54871 216.750223 
L 117.130263 216.641784 
L 117.291646 216.623711 
L 119.018443 216.515272 
L 119.179826 216.497199 
L 121.100283 216.38876 
L 121.261666 216.370686 
L 123.391921 216.262247 
L 123.553304 216.244174 
L 125.941772 216.135735 
L 126.103155 216.117662 
L 128.846665 216.009223 
L 129.008048 215.99115 
L 132.171154 215.882711 
L 132.332537 215.864638 
L 136.09276 215.756199 
L 136.254143 215.738126 
L 140.885833 215.629687 
L 141.047216 215.611614 
L 147.002247 215.503175 
L 147.16363 215.485101 
L 153.457565 215.394736 
L 154.199927 229.582168 
L 155.103671 242.052649 
L 155.733065 248.468622 
L 156.523841 254.57735 
L 157.266203 258.824543 
L 158.363607 263.234395 
L 159.105969 265.348955 
L 160.235649 267.6081 
L 160.719798 268.312953 
L 161.010287 268.692489 
L 162.301351 269.975684 
L 162.446596 270.084123 
L 162.850053 270.373293 
L 163.043713 270.481732 
L 163.366479 270.680537 
L 163.576276 270.788976 
L 163.850627 270.933562 
L 164.092702 271.042 
L 164.350915 271.168513 
L 164.657542 271.276952 
L 164.883478 271.367317 
L 165.206244 271.475756 
L 165.416042 271.548049 
L 165.787223 271.656488 
L 165.997021 271.728781 
L 166.465031 271.83722 
L 166.658691 271.891439 
L 167.158978 271.999878 
L 167.352637 272.054098 
L 167.965893 272.162536 
L 168.143414 272.198683 
L 168.788946 272.307122 
L 168.966467 272.343268 
L 169.515169 272.433634 
L 169.563584 275.560291 
L 169.628137 275.542218 
L 170.273669 275.433779 
L 170.45119 275.397632 
L 171.451764 275.289193 
L 171.613147 275.27112 
L 173.323807 275.162681 
L 173.48519 275.144608 
L 177.681146 275.054242 
L 178.488061 254.740009 
L 179.278838 240.22726 
L 180.053476 229.762899 
L 180.924944 221.25044 
L 181.522061 216.858662 
L 182.813124 210.225811 
L 184.233294 205.834033 
L 185.282283 203.75562 
L 185.701879 203.123059 
L 186.024645 202.67123 
L 188.05807 200.55667 
L 188.203315 200.448231 
L 188.864985 199.86989 
L 188.994091 199.761451 
L 190.817719 197.556525 
L 191.108208 196.652867 
L 191.318006 194.95399 
L 191.366421 193.725015 
L 191.479389 220.22027 
L 191.737601 220.274489 
L 192.447686 223.654171 
L 193.367569 226.383218 
L 193.561229 226.762754 
L 193.980825 227.431461 
L 194.771601 228.154388 
L 195.045952 228.262827 
L 195.239612 228.317046 
L 196.240186 228.208607 
L 196.48226 228.100168 
L 196.708196 227.991729 
L 197.047101 227.774851 
L 197.208484 227.666412 
L 197.692632 227.286876 
L 197.837877 227.178437 
L 198.85459 226.202486 
L 198.967558 226.094047 
L 206.455727 217.870759 
L 206.568695 217.76232 
L 207.827482 216.515272 
L 207.956588 216.406833 
L 208.924886 215.485101 
L 209.053992 215.376663 
L 209.82863 214.671809 
L 209.957737 214.56337 
L 210.603269 214.003102 
L 210.732375 213.894663 
L 211.313354 213.406688 
L 211.458598 213.298249 
L 212.023439 212.828347 
L 212.168683 212.719908 
L 212.685109 212.304225 
L 212.830353 212.195786 
L 213.298364 211.834323 
L 213.459747 211.725884 
L 213.927757 211.364421 
L 214.08914 211.255982 
L 214.524874 210.930665 
L 214.686257 210.822226 
L 215.089715 210.533055 
L 215.251098 210.424616 
L 215.638417 210.153519 
L 215.7998 210.04508 
L 216.17098 209.792056 
L 216.348502 209.683617 
L 216.719682 209.430592 
L 216.897204 209.322153 
L 217.252246 209.087202 
L 217.445906 208.978763 
L 217.800948 208.743812 
L 217.994608 208.635373 
L 218.333512 208.418495 
L 218.527172 208.310056 
L 218.849937 208.111252 
L 219.043597 208.002813 
L 219.350225 207.822081 
L 219.543884 207.713642 
L 219.850512 207.53291 
L 220.06031 207.424471 
L 220.366937 207.24374 
L 220.592873 207.135301 
L 220.899501 206.954569 
L 221.125437 206.84613 
L 221.415926 206.683472 
L 221.641862 206.575033 
L 221.932352 206.412374 
L 222.158288 206.303935 
L 222.432639 206.15935 
L 222.658575 206.050911 
L 222.932926 205.906326 
L 223.175001 205.797887 
L 223.449352 205.653302 
L 223.691426 205.544863 
L 223.949639 205.41835 
L 224.191713 205.309911 
L 224.449926 205.183399 
L 224.708139 205.07496 
L 224.966351 204.948448 
L 225.224564 204.840009 
L 225.482777 204.713497 
L 225.757128 204.605058 
L 226.01534 204.478546 
L 226.289691 204.370107 
L 226.531766 204.261668 
L 226.806117 204.153229 
L 227.048191 204.04479 
L 227.322542 203.936351 
L 227.564617 203.827912 
L 227.855106 203.719473 
L 228.097181 203.611034 
L 228.38767 203.502595 
L 228.629744 203.394156 
L 228.936372 203.285717 
L 229.178446 203.177278 
L 229.485074 203.068839 
L 229.71101 202.978474 
L 230.017638 202.870035 
L 230.259712 202.761596 
L 230.582478 202.653157 
L 230.808414 202.562791 
L 231.115042 202.454352 
L 231.340978 202.363986 
L 231.647605 202.255547 
L 231.873542 202.165181 
L 232.196308 202.056742 
L 232.422244 201.966377 
L 232.728871 201.857938 
L 232.954807 201.767572 
L 233.277573 201.659133 
L 233.503509 201.568767 
L 233.826275 201.460328 
L 234.052211 201.369962 
L 234.358839 201.261523 
L 234.584775 201.171157 
L 234.891403 201.062718 
L 235.117339 200.972353 
L 235.423967 200.863914 
L 235.666041 200.755475 
L 235.988807 200.647036 
L 236.230881 200.538597 
L 236.521371 200.430158 
L 236.763445 200.321719 
L 237.037796 200.21328 
L 237.296009 200.086768 
L 237.57036 199.978329 
L 237.844711 199.833743 
L 238.086785 199.725304 
L 238.377275 199.562646 
L 238.603211 199.454207 
L 238.942115 199.237329 
L 239.119636 199.12889 
L 239.55537 198.803573 
L 239.700615 198.695134 
L 240.604359 197.520379 
L 240.927125 196.544428 
L 241.088508 195.405819 
L 241.185338 192.965942 
L 241.298306 220.22027 
L 241.556519 220.328709 
L 242.266604 224.79278 
L 243.073518 247.420378 
L 243.832018 262.674127 
L 244.606657 273.861414 
L 245.300603 281.072605 
L 246.010688 286.440334 
L 247.027401 291.518893 
L 247.995699 294.392525 
L 248.64123 295.567281 
L 249.754773 296.651671 
L 249.996847 296.76011 
L 250.222783 296.850475 
L 251.885028 296.742036 
L 252.110964 296.651671 
L 252.385315 296.543232 
L 252.643528 296.416719 
L 252.869464 296.30828 
L 253.159953 296.145622 
L 253.353613 296.037183 
L 253.692517 295.820305 
L 253.886176 295.711866 
L 254.273495 295.440769 
L 254.451017 295.33233 
L 254.870612 295.025086 
L 255.031995 294.916647 
L 255.451591 294.609403 
L 255.612974 294.500964 
L 256.080984 294.139501 
L 256.242367 294.031062 
L 256.710378 293.669599 
L 256.871761 293.56116 
L 257.339771 293.199697 
L 257.485016 293.091258 
L 257.936888 292.747868 
L 258.098271 292.639429 
L 258.291931 292.494843 
L 258.404899 275.542218 
L 259.050431 275.433779 
L 259.227952 275.397632 
L 260.228526 275.289193 
L 260.389909 275.27112 
L 262.100569 275.162681 
L 262.261951 275.144608 
L 266.457908 275.054242 
L 267.264823 244.582892 
L 268.007185 223.943341 
L 268.830238 207.135301 
L 269.604876 192.965942 
L 269.717844 220.22027 
L 269.959918 220.22027 
L 271.057322 212.484957 
L 271.686716 208.996836 
L 272.364524 205.797887 
L 272.913226 203.574888 
L 273.54262 201.261523 
L 274.446364 197.845696 
L 274.704577 196.201038 
L 274.833683 194.104551 
L 274.849822 193.399698 
L 274.96279 220.22027 
L 275.253279 220.328709 
L 275.801981 221.286586 
L 276.318407 221.702269 
L 277.206013 221.59383 
L 278.884396 219.551563 
L 279.546066 218.340661 
L 279.755863 217.943051 
L 288.583511 197.917988 
L 288.938553 195.911867 
L 289.051521 193.815381 
L 289.06766 192.911723 
L 289.180628 220.22027 
L 289.454979 220.328709 
L 289.955266 221.64805 
L 290.229617 222.117952 
L 290.503968 222.461342 
L 290.907425 222.750512 
L 291.746617 222.642074 
L 293.392723 220.635953 
L 294.070531 219.388904 
L 294.264191 219.009368 
L 303.350051 198.387891 
L 303.73737 196.72516 
L 303.898753 195.207014 
L 303.963306 193.453917 
L 304.076274 220.22027 
L 304.350625 220.310636 
L 304.850912 221.629976 
L 305.109125 222.081805 
L 305.399615 222.461342 
L 305.786934 222.732439 
L 306.67454 222.624 
L 308.272231 220.672099 
L 308.933901 219.461197 
L 309.143699 219.063587 
L 318.245697 198.405964 
L 318.649155 196.67094 
L 318.810538 195.044356 
L 318.858953 193.761161 
L 318.971921 220.22027 
L 319.246272 220.310636 
L 319.762697 221.666123 
L 320.037048 222.136025 
L 320.311399 222.479415 
L 320.698718 222.750512 
L 321.554048 222.642074 
L 323.200154 220.635953 
L 323.894101 219.352758 
L 324.08776 218.973222 
L 331.011089 203.430303 
L 331.801865 231.732874 
L 332.657195 253.402595 
L 333.383418 266.505637 
L 334.077365 275.686803 
L 334.835865 282.952214 
L 335.610503 288.157285 
L 336.86929 293.308136 
L 338.111939 295.820305 
L 338.983407 296.633597 
L 339.209343 296.742036 
L 339.451417 296.850475 
L 341.275045 296.742036 
L 341.500981 296.651671 
L 341.759194 296.543232 
L 342.017406 296.416719 
L 342.243342 296.30828 
L 342.54997 296.127549 
L 342.74363 296.01911 
L 343.082534 295.802232 
L 343.260055 295.693793 
L 343.631236 295.440769 
L 343.792619 295.33233 
L 344.196076 295.043159 
L 344.357459 294.93472 
L 344.793193 294.609403 
L 344.954576 294.500964 
L 345.406448 294.157574 
L 345.567831 294.049135 
L 346.035842 293.687672 
L 346.181086 293.579233 
L 346.632959 293.235843 
L 346.794342 293.127404 
L 347.068693 292.910526 
L 347.181661 275.542218 
L 347.827193 275.433779 
L 348.004714 275.397632 
L 349.005288 275.289193 
L 349.166671 275.27112 
L 350.87733 275.162681 
L 351.038713 275.144608 
L 355.23467 275.054242 
L 356.041585 214.093468 
L 356.364351 193.996112 
L 356.477319 220.22027 
L 356.719393 220.22027 
L 356.8485 214.039249 
L 357.268095 193.725015 
L 357.381063 220.22027 
L 357.623138 220.22027 
L 357.752244 215.64776 
L 358.381638 193.291259 
L 358.494606 220.22027 
L 358.73668 220.22027 
L 359.640425 199.797597 
L 359.882499 193.273186 
L 359.995467 220.22027 
L 360.237542 220.22027 
L 361.302669 206.303935 
L 362.254828 193.58043 
L 362.367797 220.22027 
L 362.626009 220.184124 
L 366.047328 196.490209 
L 366.176434 193.779234 
L 366.289402 220.22027 
L 366.579892 220.111831 
L 367.548189 216.479125 
L 368.500349 211.707811 
L 370.227146 201.424182 
L 370.888816 196.309477 
L 371.001784 193.996112 
L 371.017923 193.1286 
L 371.130891 220.22027 
L 371.42138 220.111831 
L 371.824838 218.937075 
L 372.518784 216.226101 
L 373.535497 211.165616 
L 375.246156 200.972353 
L 375.843273 196.273331 
L 375.956241 193.851527 
L 375.972379 192.875576 
L 376.085347 220.22027 
L 376.375837 220.111831 
L 376.779294 218.937075 
L 377.489379 216.171882 
L 378.489953 211.183689 
L 380.200613 200.990426 
L 380.79773 196.32755 
L 380.926836 193.146674 
L 381.039804 220.22027 
L 381.330293 220.111831 
L 381.733751 218.937075 
L 382.443836 216.171882 
L 383.460548 211.111396 
L 385.171208 200.918133 
L 385.768325 196.164892 
L 385.881293 193.399698 
L 385.994261 220.22027 
L 386.28475 220.111831 
L 386.704346 218.900929 
L 387.398292 216.189955 
L 388.415005 211.12947 
L 390.125664 200.936206 
L 390.722781 196.201038 
L 390.835749 193.598503 
L 390.948717 220.22027 
L 391.239207 220.129904 
L 391.658802 218.919002 
L 392.352749 216.208028 
L 393.369462 211.147543 
L 395.096259 200.863914 
L 395.677238 196.255257 
L 395.790206 193.797307 
L 395.903174 220.22027 
L 396.193663 220.129904 
L 396.613259 218.919002 
L 397.323344 216.153808 
L 398.323918 211.165616 
L 400.050716 200.881987 
L 400.631694 196.309477 
L 400.744663 193.959966 
L 400.760801 193.074381 
L 400.873769 220.22027 
L 401.164258 220.111831 
L 401.567716 218.937075 
L 402.277801 216.171882 
L 403.278375 211.183689 
L 405.021311 200.809694 
L 405.586151 196.363696 
L 405.715257 193.345478 
L 405.828225 220.22027 
L 406.118715 220.111831 
L 406.522172 218.937075 
L 407.248395 216.117662 
L 408.232831 211.201762 
L 409.975767 200.827767 
L 410.556746 196.201038 
L 410.669714 193.544283 
L 410.782682 220.22027 
L 411.073171 220.129904 
L 411.492767 218.919002 
L 412.186714 216.208028 
L 413.203426 211.147543 
L 414.914086 200.954279 
L 415.511203 196.255257 
L 415.624171 193.761161 
L 415.737139 220.22027 
L 416.027628 220.129904 
L 416.447224 218.919002 
L 417.157309 216.153808 
L 418.157883 211.165616 
L 419.787851 201.496474 
L 420.546351 254.541204 
L 421.272574 291.175503 
L 421.998797 317.526172 
L 422.660467 334.840261 
L 423.338276 347.563767 
L 423.999946 356.275031 
L 424.774584 362.980174 
L 425.355563 366.142977 
L 425.85585 367.878001 
L 426.51752 369.088903 
L 426.872562 369.323854 
L 427.469679 369.215415 
L 428.486392 367.914147 
L 430.245466 363.7031 
L 431.278317 360.61259 
L 431.601083 359.618566 
L 434.393008 350.618131 
L 434.683497 349.6964 
L 435.845455 346.045621 
L 435.845455 346.045621 
" style="fill:none;stroke:#ff0000;stroke-linecap:square;stroke-width:1.5;"/>
   </g>
   <g id="patch_3">
    <path d="M 63 384.48 
L 63 51.84 
" style="fill:none;stroke:#000000;stroke-linecap:square;stroke-linejoin:miter;stroke-width:0.8;"/>
   </g>
   <g id="patch_4">
    <path d="M 453.6 384.48 
L 453.6 51.84 
" style="fill:none;stroke:#000000;stroke-linecap:square;stroke-linejoin:miter;stroke-width:0.8;"/>
   </g>
   <g id="patch_5">
    <path d="M 63 384.48 
L 453.6 384.48 
" style="fill:none;stroke:#000000;stroke-linecap:square;stroke-linejoin:miter;stroke-width:0.8;"/>
   </g>
   <g id="patch_6">
    <path d="M 63 51.84 
L 453.6 51.84 
" style="fill:none;stroke:#000000;stroke-linecap:square;stroke-linejoin:miter;stroke-width:0.8;"/>
   </g>
   <g id="legend_1">
    <g id="patch_7">
     <path d="M 70 89.19625 
L 133.139062 89.19625 
Q 135.139062 89.19625 135.139062 87.19625 
L 135.139062 58.84 
Q 135.139062 56.84 133.139062 56.84 
L 70 56.84 
Q 68 56.84 68 58.84 
L 68 87.19625 
Q 68 89.19625 70 89.19625 
z
" style="fill:#ffffff;opacity:0.8;stroke:#cccccc;stroke-linejoin:miter;"/>
    </g>
    <g id="line2d_15">
     <path d="M 72 64.938437 
L 92 64.938437 
" style="fill:none;stroke:#1f77b4;stroke-linecap:square;stroke-width:1.5;"/>
    </g>
    <g id="line2d_16"/>
    <g id="text_15">
     <!-- target -->
     <defs>
      <path d="M 41.109375 46.296875 
Q 39.59375 47.171875 37.8125 47.578125 
Q 36.03125 48 33.890625 48 
Q 26.265625 48 22.1875 43.046875 
Q 18.109375 38.09375 18.109375 28.8125 
L 18.109375 0 
L 9.078125 0 
L 9.078125 54.6875 
L 18.109375 54.6875 
L 18.109375 46.1875 
Q 20.953125 51.171875 25.484375 53.578125 
Q 30.03125 56 36.53125 56 
Q 37.453125 56 38.578125 55.875 
Q 39.703125 55.765625 41.0625 55.515625 
z
" id="DejaVuSans-114"/>
     </defs>
     <g transform="translate(100 68.438437)scale(0.1 -0.1)">
      <use xlink:href="#DejaVuSans-116"/>
      <use x="39.208984" xlink:href="#DejaVuSans-97"/>
      <use x="100.488281" xlink:href="#DejaVuSans-114"/>
      <use x="141.585938" xlink:href="#DejaVuSans-103"/>
      <use x="205.0625" xlink:href="#DejaVuSans-101"/>
      <use x="266.585938" xlink:href="#DejaVuSans-116"/>
     </g>
    </g>
    <g id="line2d_17">
     <path d="M 72 79.616562 
L 92 79.616562 
" style="fill:none;stroke:#ff0000;stroke-linecap:square;stroke-width:1.5;"/>
    </g>
    <g id="line2d_18"/>
    <g id="text_16">
     <!-- model -->
     <defs>
      <path d="M 45.40625 46.390625 
L 45.40625 75.984375 
L 54.390625 75.984375 
L 54.390625 0 
L 45.40625 0 
L 45.40625 8.203125 
Q 42.578125 3.328125 38.25 0.953125 
Q 33.9375 -1.421875 27.875 -1.421875 
Q 17.96875 -1.421875 11.734375 6.484375 
Q 5.515625 14.40625 5.515625 27.296875 
Q 5.515625 40.1875 11.734375 48.09375 
Q 17.96875 56 27.875 56 
Q 33.9375 56 38.25 53.625 
Q 42.578125 51.265625 45.40625 46.390625 
z
M 14.796875 27.296875 
Q 14.796875 17.390625 18.875 11.75 
Q 22.953125 6.109375 30.078125 6.109375 
Q 37.203125 6.109375 41.296875 11.75 
Q 45.40625 17.390625 45.40625 27.296875 
Q 45.40625 37.203125 41.296875 42.84375 
Q 37.203125 48.484375 30.078125 48.484375 
Q 22.953125 48.484375 18.875 42.84375 
Q 14.796875 37.203125 14.796875 27.296875 
z
" id="DejaVuSans-100"/>
     </defs>
     <g transform="translate(100 83.116562)scale(0.1 -0.1)">
      <use xlink:href="#DejaVuSans-109"/>
      <use x="97.412109" xlink:href="#DejaVuSans-111"/>
      <use x="158.59375" xlink:href="#DejaVuSans-100"/>
      <use x="222.070312" xlink:href="#DejaVuSans-101"/>
      <use x="283.59375" xlink:href="#DejaVuSans-108"/>
     </g>
    </g>
   </g>
  </g>
 </g>
 <defs>
  <clipPath id="pd6063bdcb7">
   <rect height="332.64" width="390.6" x="63" y="51.84"/>
  </clipPath>
 </defs>
</svg>
