<?xml version="1.0" encoding="utf-8" standalone="no"?>
<!DOCTYPE svg PUBLIC "-//W3C//DTD SVG 1.1//EN"
  "http://www.w3.org/Graphics/SVG/1.1/DTD/svg11.dtd">
<!-- Created with matplotlib (https://matplotlib.org/) -->
<svg height="432pt" version="1.1" viewBox="0 0 504 432" width="504pt" xmlns="http://www.w3.org/2000/svg" xmlns:xlink="http://www.w3.org/1999/xlink">
 <defs>
  <style type="text/css">
*{stroke-linecap:butt;stroke-linejoin:round;}
  </style>
 </defs>
 <g id="figure_1">
  <g id="patch_1">
   <path d="M 0 432 
L 504 432 
L 504 0 
L 0 0 
z
" style="fill:#ffffff;"/>
  </g>
  <g id="axes_1">
   <g id="patch_2">
    <path d="M 63 384.48 
L 453.6 384.48 
L 453.6 51.84 
L 63 51.84 
z
" style="fill:#ffffff;"/>
   </g>
   <g id="matplotlib.axis_1">
    <g id="xtick_1">
     <g id="line2d_1">
      <defs>
       <path d="M 0 0 
L 0 3.5 
" id="mc11e8d1c07" style="stroke:#000000;stroke-width:0.8;"/>
      </defs>
      <g>
       <use style="stroke:#000000;stroke-width:0.8;" x="80.754545" xlink:href="#mc11e8d1c07" y="384.48"/>
      </g>
     </g>
     <g id="text_1">
      <!-- 0 -->
      <defs>
       <path d="M 31.78125 66.40625 
Q 24.171875 66.40625 20.328125 58.90625 
Q 16.5 51.421875 16.5 36.375 
Q 16.5 21.390625 20.328125 13.890625 
Q 24.171875 6.390625 31.78125 6.390625 
Q 39.453125 6.390625 43.28125 13.890625 
Q 47.125 21.390625 47.125 36.375 
Q 47.125 51.421875 43.28125 58.90625 
Q 39.453125 66.40625 31.78125 66.40625 
z
M 31.78125 74.21875 
Q 44.046875 74.21875 50.515625 64.515625 
Q 56.984375 54.828125 56.984375 36.375 
Q 56.984375 17.96875 50.515625 8.265625 
Q 44.046875 -1.421875 31.78125 -1.421875 
Q 19.53125 -1.421875 13.0625 8.265625 
Q 6.59375 17.96875 6.59375 36.375 
Q 6.59375 54.828125 13.0625 64.515625 
Q 19.53125 74.21875 31.78125 74.21875 
z
" id="DejaVuSans-48"/>
      </defs>
      <g transform="translate(77.573295 399.078438)scale(0.1 -0.1)">
       <use xlink:href="#DejaVuSans-48"/>
      </g>
     </g>
    </g>
    <g id="xtick_2">
     <g id="line2d_2">
      <g>
       <use style="stroke:#000000;stroke-width:0.8;" x="151.763044" xlink:href="#mc11e8d1c07" y="384.48"/>
      </g>
     </g>
     <g id="text_2">
      <!-- 880 -->
      <defs>
       <path d="M 31.78125 34.625 
Q 24.75 34.625 20.71875 30.859375 
Q 16.703125 27.09375 16.703125 20.515625 
Q 16.703125 13.921875 20.71875 10.15625 
Q 24.75 6.390625 31.78125 6.390625 
Q 38.8125 6.390625 42.859375 10.171875 
Q 46.921875 13.96875 46.921875 20.515625 
Q 46.921875 27.09375 42.890625 30.859375 
Q 38.875 34.625 31.78125 34.625 
z
M 21.921875 38.8125 
Q 15.578125 40.375 12.03125 44.71875 
Q 8.5 49.078125 8.5 55.328125 
Q 8.5 64.0625 14.71875 69.140625 
Q 20.953125 74.21875 31.78125 74.21875 
Q 42.671875 74.21875 48.875 69.140625 
Q 55.078125 64.0625 55.078125 55.328125 
Q 55.078125 49.078125 51.53125 44.71875 
Q 48 40.375 41.703125 38.8125 
Q 48.828125 37.15625 52.796875 32.3125 
Q 56.78125 27.484375 56.78125 20.515625 
Q 56.78125 9.90625 50.3125 4.234375 
Q 43.84375 -1.421875 31.78125 -1.421875 
Q 19.734375 -1.421875 13.25 4.234375 
Q 6.78125 9.90625 6.78125 20.515625 
Q 6.78125 27.484375 10.78125 32.3125 
Q 14.796875 37.15625 21.921875 38.8125 
z
M 18.3125 54.390625 
Q 18.3125 48.734375 21.84375 45.5625 
Q 25.390625 42.390625 31.78125 42.390625 
Q 38.140625 42.390625 41.71875 45.5625 
Q 45.3125 48.734375 45.3125 54.390625 
Q 45.3125 60.0625 41.71875 63.234375 
Q 38.140625 66.40625 31.78125 66.40625 
Q 25.390625 66.40625 21.84375 63.234375 
Q 18.3125 60.0625 18.3125 54.390625 
z
" id="DejaVuSans-56"/>
      </defs>
      <g transform="translate(142.219294 399.078438)scale(0.1 -0.1)">
       <use xlink:href="#DejaVuSans-56"/>
       <use x="63.623047" xlink:href="#DejaVuSans-56"/>
       <use x="127.246094" xlink:href="#DejaVuSans-48"/>
      </g>
     </g>
    </g>
    <g id="xtick_3">
     <g id="line2d_3">
      <g>
       <use style="stroke:#000000;stroke-width:0.8;" x="222.771543" xlink:href="#mc11e8d1c07" y="384.48"/>
      </g>
     </g>
     <g id="text_3">
      <!-- 1760 -->
      <defs>
       <path d="M 12.40625 8.296875 
L 28.515625 8.296875 
L 28.515625 63.921875 
L 10.984375 60.40625 
L 10.984375 69.390625 
L 28.421875 72.90625 
L 38.28125 72.90625 
L 38.28125 8.296875 
L 54.390625 8.296875 
L 54.390625 0 
L 12.40625 0 
z
" id="DejaVuSans-49"/>
       <path d="M 8.203125 72.90625 
L 55.078125 72.90625 
L 55.078125 68.703125 
L 28.609375 0 
L 18.3125 0 
L 43.21875 64.59375 
L 8.203125 64.59375 
z
" id="DejaVuSans-55"/>
       <path d="M 33.015625 40.375 
Q 26.375 40.375 22.484375 35.828125 
Q 18.609375 31.296875 18.609375 23.390625 
Q 18.609375 15.53125 22.484375 10.953125 
Q 26.375 6.390625 33.015625 6.390625 
Q 39.65625 6.390625 43.53125 10.953125 
Q 47.40625 15.53125 47.40625 23.390625 
Q 47.40625 31.296875 43.53125 35.828125 
Q 39.65625 40.375 33.015625 40.375 
z
M 52.59375 71.296875 
L 52.59375 62.3125 
Q 48.875 64.0625 45.09375 64.984375 
Q 41.3125 65.921875 37.59375 65.921875 
Q 27.828125 65.921875 22.671875 59.328125 
Q 17.53125 52.734375 16.796875 39.40625 
Q 19.671875 43.65625 24.015625 45.921875 
Q 28.375 48.1875 33.59375 48.1875 
Q 44.578125 48.1875 50.953125 41.515625 
Q 57.328125 34.859375 57.328125 23.390625 
Q 57.328125 12.15625 50.6875 5.359375 
Q 44.046875 -1.421875 33.015625 -1.421875 
Q 20.359375 -1.421875 13.671875 8.265625 
Q 6.984375 17.96875 6.984375 36.375 
Q 6.984375 53.65625 15.1875 63.9375 
Q 23.390625 74.21875 37.203125 74.21875 
Q 40.921875 74.21875 44.703125 73.484375 
Q 48.484375 72.75 52.59375 71.296875 
z
" id="DejaVuSans-54"/>
      </defs>
      <g transform="translate(210.046543 399.078438)scale(0.1 -0.1)">
       <use xlink:href="#DejaVuSans-49"/>
       <use x="63.623047" xlink:href="#DejaVuSans-55"/>
       <use x="127.246094" xlink:href="#DejaVuSans-54"/>
       <use x="190.869141" xlink:href="#DejaVuSans-48"/>
      </g>
     </g>
    </g>
    <g id="xtick_4">
     <g id="line2d_4">
      <g>
       <use style="stroke:#000000;stroke-width:0.8;" x="293.780042" xlink:href="#mc11e8d1c07" y="384.48"/>
      </g>
     </g>
     <g id="text_4">
      <!-- 2640 -->
      <defs>
       <path d="M 19.1875 8.296875 
L 53.609375 8.296875 
L 53.609375 0 
L 7.328125 0 
L 7.328125 8.296875 
Q 12.9375 14.109375 22.625 23.890625 
Q 32.328125 33.6875 34.8125 36.53125 
Q 39.546875 41.84375 41.421875 45.53125 
Q 43.3125 49.21875 43.3125 52.78125 
Q 43.3125 58.59375 39.234375 62.25 
Q 35.15625 65.921875 28.609375 65.921875 
Q 23.96875 65.921875 18.8125 64.3125 
Q 13.671875 62.703125 7.8125 59.421875 
L 7.8125 69.390625 
Q 13.765625 71.78125 18.9375 73 
Q 24.125 74.21875 28.421875 74.21875 
Q 39.75 74.21875 46.484375 68.546875 
Q 53.21875 62.890625 53.21875 53.421875 
Q 53.21875 48.921875 51.53125 44.890625 
Q 49.859375 40.875 45.40625 35.40625 
Q 44.1875 33.984375 37.640625 27.21875 
Q 31.109375 20.453125 19.1875 8.296875 
z
" id="DejaVuSans-50"/>
       <path d="M 37.796875 64.3125 
L 12.890625 25.390625 
L 37.796875 25.390625 
z
M 35.203125 72.90625 
L 47.609375 72.90625 
L 47.609375 25.390625 
L 58.015625 25.390625 
L 58.015625 17.1875 
L 47.609375 17.1875 
L 47.609375 0 
L 37.796875 0 
L 37.796875 17.1875 
L 4.890625 17.1875 
L 4.890625 26.703125 
z
" id="DejaVuSans-52"/>
      </defs>
      <g transform="translate(281.055042 399.078438)scale(0.1 -0.1)">
       <use xlink:href="#DejaVuSans-50"/>
       <use x="63.623047" xlink:href="#DejaVuSans-54"/>
       <use x="127.246094" xlink:href="#DejaVuSans-52"/>
       <use x="190.869141" xlink:href="#DejaVuSans-48"/>
      </g>
     </g>
    </g>
    <g id="xtick_5">
     <g id="line2d_5">
      <g>
       <use style="stroke:#000000;stroke-width:0.8;" x="364.788541" xlink:href="#mc11e8d1c07" y="384.48"/>
      </g>
     </g>
     <g id="text_5">
      <!-- 3520 -->
      <defs>
       <path d="M 40.578125 39.3125 
Q 47.65625 37.796875 51.625 33 
Q 55.609375 28.21875 55.609375 21.1875 
Q 55.609375 10.40625 48.1875 4.484375 
Q 40.765625 -1.421875 27.09375 -1.421875 
Q 22.515625 -1.421875 17.65625 -0.515625 
Q 12.796875 0.390625 7.625 2.203125 
L 7.625 11.71875 
Q 11.71875 9.328125 16.59375 8.109375 
Q 21.484375 6.890625 26.8125 6.890625 
Q 36.078125 6.890625 40.9375 10.546875 
Q 45.796875 14.203125 45.796875 21.1875 
Q 45.796875 27.640625 41.28125 31.265625 
Q 36.765625 34.90625 28.71875 34.90625 
L 20.21875 34.90625 
L 20.21875 43.015625 
L 29.109375 43.015625 
Q 36.375 43.015625 40.234375 45.921875 
Q 44.09375 48.828125 44.09375 54.296875 
Q 44.09375 59.90625 40.109375 62.90625 
Q 36.140625 65.921875 28.71875 65.921875 
Q 24.65625 65.921875 20.015625 65.03125 
Q 15.375 64.15625 9.8125 62.3125 
L 9.8125 71.09375 
Q 15.4375 72.65625 20.34375 73.4375 
Q 25.25 74.21875 29.59375 74.21875 
Q 40.828125 74.21875 47.359375 69.109375 
Q 53.90625 64.015625 53.90625 55.328125 
Q 53.90625 49.265625 50.4375 45.09375 
Q 46.96875 40.921875 40.578125 39.3125 
z
" id="DejaVuSans-51"/>
       <path d="M 10.796875 72.90625 
L 49.515625 72.90625 
L 49.515625 64.59375 
L 19.828125 64.59375 
L 19.828125 46.734375 
Q 21.96875 47.46875 24.109375 47.828125 
Q 26.265625 48.1875 28.421875 48.1875 
Q 40.625 48.1875 47.75 41.5 
Q 54.890625 34.8125 54.890625 23.390625 
Q 54.890625 11.625 47.5625 5.09375 
Q 40.234375 -1.421875 26.90625 -1.421875 
Q 22.3125 -1.421875 17.546875 -0.640625 
Q 12.796875 0.140625 7.71875 1.703125 
L 7.71875 11.625 
Q 12.109375 9.234375 16.796875 8.0625 
Q 21.484375 6.890625 26.703125 6.890625 
Q 35.15625 6.890625 40.078125 11.328125 
Q 45.015625 15.765625 45.015625 23.390625 
Q 45.015625 31 40.078125 35.4375 
Q 35.15625 39.890625 26.703125 39.890625 
Q 22.75 39.890625 18.8125 39.015625 
Q 14.890625 38.140625 10.796875 36.28125 
z
" id="DejaVuSans-53"/>
      </defs>
      <g transform="translate(352.063541 399.078438)scale(0.1 -0.1)">
       <use xlink:href="#DejaVuSans-51"/>
       <use x="63.623047" xlink:href="#DejaVuSans-53"/>
       <use x="127.246094" xlink:href="#DejaVuSans-50"/>
       <use x="190.869141" xlink:href="#DejaVuSans-48"/>
      </g>
     </g>
    </g>
    <g id="text_6">
     <!-- time [ms] -->
     <defs>
      <path d="M 18.3125 70.21875 
L 18.3125 54.6875 
L 36.8125 54.6875 
L 36.8125 47.703125 
L 18.3125 47.703125 
L 18.3125 18.015625 
Q 18.3125 11.328125 20.140625 9.421875 
Q 21.96875 7.515625 27.59375 7.515625 
L 36.8125 7.515625 
L 36.8125 0 
L 27.59375 0 
Q 17.1875 0 13.234375 3.875 
Q 9.28125 7.765625 9.28125 18.015625 
L 9.28125 47.703125 
L 2.6875 47.703125 
L 2.6875 54.6875 
L 9.28125 54.6875 
L 9.28125 70.21875 
z
" id="DejaVuSans-116"/>
      <path d="M 9.421875 54.6875 
L 18.40625 54.6875 
L 18.40625 0 
L 9.421875 0 
z
M 9.421875 75.984375 
L 18.40625 75.984375 
L 18.40625 64.59375 
L 9.421875 64.59375 
z
" id="DejaVuSans-105"/>
      <path d="M 52 44.1875 
Q 55.375 50.25 60.0625 53.125 
Q 64.75 56 71.09375 56 
Q 79.640625 56 84.28125 50.015625 
Q 88.921875 44.046875 88.921875 33.015625 
L 88.921875 0 
L 79.890625 0 
L 79.890625 32.71875 
Q 79.890625 40.578125 77.09375 44.375 
Q 74.3125 48.1875 68.609375 48.1875 
Q 61.625 48.1875 57.5625 43.546875 
Q 53.515625 38.921875 53.515625 30.90625 
L 53.515625 0 
L 44.484375 0 
L 44.484375 32.71875 
Q 44.484375 40.625 41.703125 44.40625 
Q 38.921875 48.1875 33.109375 48.1875 
Q 26.21875 48.1875 22.15625 43.53125 
Q 18.109375 38.875 18.109375 30.90625 
L 18.109375 0 
L 9.078125 0 
L 9.078125 54.6875 
L 18.109375 54.6875 
L 18.109375 46.1875 
Q 21.1875 51.21875 25.484375 53.609375 
Q 29.78125 56 35.6875 56 
Q 41.65625 56 45.828125 52.96875 
Q 50 49.953125 52 44.1875 
z
" id="DejaVuSans-109"/>
      <path d="M 56.203125 29.59375 
L 56.203125 25.203125 
L 14.890625 25.203125 
Q 15.484375 15.921875 20.484375 11.0625 
Q 25.484375 6.203125 34.421875 6.203125 
Q 39.59375 6.203125 44.453125 7.46875 
Q 49.3125 8.734375 54.109375 11.28125 
L 54.109375 2.78125 
Q 49.265625 0.734375 44.1875 -0.34375 
Q 39.109375 -1.421875 33.890625 -1.421875 
Q 20.796875 -1.421875 13.15625 6.1875 
Q 5.515625 13.8125 5.515625 26.8125 
Q 5.515625 40.234375 12.765625 48.109375 
Q 20.015625 56 32.328125 56 
Q 43.359375 56 49.78125 48.890625 
Q 56.203125 41.796875 56.203125 29.59375 
z
M 47.21875 32.234375 
Q 47.125 39.59375 43.09375 43.984375 
Q 39.0625 48.390625 32.421875 48.390625 
Q 24.90625 48.390625 20.390625 44.140625 
Q 15.875 39.890625 15.1875 32.171875 
z
" id="DejaVuSans-101"/>
      <path id="DejaVuSans-32"/>
      <path d="M 8.59375 75.984375 
L 29.296875 75.984375 
L 29.296875 69 
L 17.578125 69 
L 17.578125 -6.203125 
L 29.296875 -6.203125 
L 29.296875 -13.1875 
L 8.59375 -13.1875 
z
" id="DejaVuSans-91"/>
      <path d="M 44.28125 53.078125 
L 44.28125 44.578125 
Q 40.484375 46.53125 36.375 47.5 
Q 32.28125 48.484375 27.875 48.484375 
Q 21.1875 48.484375 17.84375 46.4375 
Q 14.5 44.390625 14.5 40.28125 
Q 14.5 37.15625 16.890625 35.375 
Q 19.28125 33.59375 26.515625 31.984375 
L 29.59375 31.296875 
Q 39.15625 29.25 43.1875 25.515625 
Q 47.21875 21.78125 47.21875 15.09375 
Q 47.21875 7.46875 41.1875 3.015625 
Q 35.15625 -1.421875 24.609375 -1.421875 
Q 20.21875 -1.421875 15.453125 -0.5625 
Q 10.6875 0.296875 5.421875 2 
L 5.421875 11.28125 
Q 10.40625 8.6875 15.234375 7.390625 
Q 20.0625 6.109375 24.8125 6.109375 
Q 31.15625 6.109375 34.5625 8.28125 
Q 37.984375 10.453125 37.984375 14.40625 
Q 37.984375 18.0625 35.515625 20.015625 
Q 33.0625 21.96875 24.703125 23.78125 
L 21.578125 24.515625 
Q 13.234375 26.265625 9.515625 29.90625 
Q 5.8125 33.546875 5.8125 39.890625 
Q 5.8125 47.609375 11.28125 51.796875 
Q 16.75 56 26.8125 56 
Q 31.78125 56 36.171875 55.265625 
Q 40.578125 54.546875 44.28125 53.078125 
z
" id="DejaVuSans-115"/>
      <path d="M 30.421875 75.984375 
L 30.421875 -13.1875 
L 9.71875 -13.1875 
L 9.71875 -6.203125 
L 21.390625 -6.203125 
L 21.390625 69 
L 9.71875 69 
L 9.71875 75.984375 
z
" id="DejaVuSans-93"/>
     </defs>
     <g transform="translate(234.038281 412.756563)scale(0.1 -0.1)">
      <use xlink:href="#DejaVuSans-116"/>
      <use x="39.208984" xlink:href="#DejaVuSans-105"/>
      <use x="66.992188" xlink:href="#DejaVuSans-109"/>
      <use x="164.404297" xlink:href="#DejaVuSans-101"/>
      <use x="225.927734" xlink:href="#DejaVuSans-32"/>
      <use x="257.714844" xlink:href="#DejaVuSans-91"/>
      <use x="296.728516" xlink:href="#DejaVuSans-109"/>
      <use x="394.140625" xlink:href="#DejaVuSans-115"/>
      <use x="446.240234" xlink:href="#DejaVuSans-93"/>
     </g>
    </g>
   </g>
   <g id="matplotlib.axis_2">
    <g id="ytick_1">
     <g id="line2d_6">
      <defs>
       <path d="M 0 0 
L -3.5 0 
" id="m9469ea4510" style="stroke:#000000;stroke-width:0.8;"/>
      </defs>
      <g>
       <use style="stroke:#000000;stroke-width:0.8;" x="63" xlink:href="#m9469ea4510" y="380.679791"/>
      </g>
     </g>
     <g id="text_7">
      <!-- −125 -->
      <defs>
       <path d="M 10.59375 35.5 
L 73.1875 35.5 
L 73.1875 27.203125 
L 10.59375 27.203125 
z
" id="DejaVuSans-8722"/>
      </defs>
      <g transform="translate(28.532812 384.47901)scale(0.1 -0.1)">
       <use xlink:href="#DejaVuSans-8722"/>
       <use x="83.789062" xlink:href="#DejaVuSans-49"/>
       <use x="147.412109" xlink:href="#DejaVuSans-50"/>
       <use x="211.035156" xlink:href="#DejaVuSans-53"/>
      </g>
     </g>
    </g>
    <g id="ytick_2">
     <g id="line2d_7">
      <g>
       <use style="stroke:#000000;stroke-width:0.8;" x="63" xlink:href="#m9469ea4510" y="337.209011"/>
      </g>
     </g>
     <g id="text_8">
      <!-- −100 -->
      <g transform="translate(28.532812 341.00823)scale(0.1 -0.1)">
       <use xlink:href="#DejaVuSans-8722"/>
       <use x="83.789062" xlink:href="#DejaVuSans-49"/>
       <use x="147.412109" xlink:href="#DejaVuSans-48"/>
       <use x="211.035156" xlink:href="#DejaVuSans-48"/>
      </g>
     </g>
    </g>
    <g id="ytick_3">
     <g id="line2d_8">
      <g>
       <use style="stroke:#000000;stroke-width:0.8;" x="63" xlink:href="#m9469ea4510" y="293.738231"/>
      </g>
     </g>
     <g id="text_9">
      <!-- −75 -->
      <g transform="translate(34.895313 297.537449)scale(0.1 -0.1)">
       <use xlink:href="#DejaVuSans-8722"/>
       <use x="83.789062" xlink:href="#DejaVuSans-55"/>
       <use x="147.412109" xlink:href="#DejaVuSans-53"/>
      </g>
     </g>
    </g>
    <g id="ytick_4">
     <g id="line2d_9">
      <g>
       <use style="stroke:#000000;stroke-width:0.8;" x="63" xlink:href="#m9469ea4510" y="250.26745"/>
      </g>
     </g>
     <g id="text_10">
      <!-- −50 -->
      <g transform="translate(34.895313 254.066669)scale(0.1 -0.1)">
       <use xlink:href="#DejaVuSans-8722"/>
       <use x="83.789062" xlink:href="#DejaVuSans-53"/>
       <use x="147.412109" xlink:href="#DejaVuSans-48"/>
      </g>
     </g>
    </g>
    <g id="ytick_5">
     <g id="line2d_10">
      <g>
       <use style="stroke:#000000;stroke-width:0.8;" x="63" xlink:href="#m9469ea4510" y="206.79667"/>
      </g>
     </g>
     <g id="text_11">
      <!-- −25 -->
      <g transform="translate(34.895313 210.595889)scale(0.1 -0.1)">
       <use xlink:href="#DejaVuSans-8722"/>
       <use x="83.789062" xlink:href="#DejaVuSans-50"/>
       <use x="147.412109" xlink:href="#DejaVuSans-53"/>
      </g>
     </g>
    </g>
    <g id="ytick_6">
     <g id="line2d_11">
      <g>
       <use style="stroke:#000000;stroke-width:0.8;" x="63" xlink:href="#m9469ea4510" y="163.32589"/>
      </g>
     </g>
     <g id="text_12">
      <!-- 0 -->
      <g transform="translate(49.6375 167.125109)scale(0.1 -0.1)">
       <use xlink:href="#DejaVuSans-48"/>
      </g>
     </g>
    </g>
    <g id="ytick_7">
     <g id="line2d_12">
      <g>
       <use style="stroke:#000000;stroke-width:0.8;" x="63" xlink:href="#m9469ea4510" y="119.85511"/>
      </g>
     </g>
     <g id="text_13">
      <!-- 25 -->
      <g transform="translate(43.275 123.654328)scale(0.1 -0.1)">
       <use xlink:href="#DejaVuSans-50"/>
       <use x="63.623047" xlink:href="#DejaVuSans-53"/>
      </g>
     </g>
    </g>
    <g id="ytick_8">
     <g id="line2d_13">
      <g>
       <use style="stroke:#000000;stroke-width:0.8;" x="63" xlink:href="#m9469ea4510" y="76.384329"/>
      </g>
     </g>
     <g id="text_14">
      <!-- 50 -->
      <g transform="translate(43.275 80.183548)scale(0.1 -0.1)">
       <use xlink:href="#DejaVuSans-53"/>
       <use x="63.623047" xlink:href="#DejaVuSans-48"/>
      </g>
     </g>
    </g>
    <g id="text_15">
     <!-- voltage [mV] -->
     <defs>
      <path d="M 2.984375 54.6875 
L 12.5 54.6875 
L 29.59375 8.796875 
L 46.6875 54.6875 
L 56.203125 54.6875 
L 35.6875 0 
L 23.484375 0 
z
" id="DejaVuSans-118"/>
      <path d="M 30.609375 48.390625 
Q 23.390625 48.390625 19.1875 42.75 
Q 14.984375 37.109375 14.984375 27.296875 
Q 14.984375 17.484375 19.15625 11.84375 
Q 23.34375 6.203125 30.609375 6.203125 
Q 37.796875 6.203125 41.984375 11.859375 
Q 46.1875 17.53125 46.1875 27.296875 
Q 46.1875 37.015625 41.984375 42.703125 
Q 37.796875 48.390625 30.609375 48.390625 
z
M 30.609375 56 
Q 42.328125 56 49.015625 48.375 
Q 55.71875 40.765625 55.71875 27.296875 
Q 55.71875 13.875 49.015625 6.21875 
Q 42.328125 -1.421875 30.609375 -1.421875 
Q 18.84375 -1.421875 12.171875 6.21875 
Q 5.515625 13.875 5.515625 27.296875 
Q 5.515625 40.765625 12.171875 48.375 
Q 18.84375 56 30.609375 56 
z
" id="DejaVuSans-111"/>
      <path d="M 9.421875 75.984375 
L 18.40625 75.984375 
L 18.40625 0 
L 9.421875 0 
z
" id="DejaVuSans-108"/>
      <path d="M 34.28125 27.484375 
Q 23.390625 27.484375 19.1875 25 
Q 14.984375 22.515625 14.984375 16.5 
Q 14.984375 11.71875 18.140625 8.90625 
Q 21.296875 6.109375 26.703125 6.109375 
Q 34.1875 6.109375 38.703125 11.40625 
Q 43.21875 16.703125 43.21875 25.484375 
L 43.21875 27.484375 
z
M 52.203125 31.203125 
L 52.203125 0 
L 43.21875 0 
L 43.21875 8.296875 
Q 40.140625 3.328125 35.546875 0.953125 
Q 30.953125 -1.421875 24.3125 -1.421875 
Q 15.921875 -1.421875 10.953125 3.296875 
Q 6 8.015625 6 15.921875 
Q 6 25.140625 12.171875 29.828125 
Q 18.359375 34.515625 30.609375 34.515625 
L 43.21875 34.515625 
L 43.21875 35.40625 
Q 43.21875 41.609375 39.140625 45 
Q 35.0625 48.390625 27.6875 48.390625 
Q 23 48.390625 18.546875 47.265625 
Q 14.109375 46.140625 10.015625 43.890625 
L 10.015625 52.203125 
Q 14.9375 54.109375 19.578125 55.046875 
Q 24.21875 56 28.609375 56 
Q 40.484375 56 46.34375 49.84375 
Q 52.203125 43.703125 52.203125 31.203125 
z
" id="DejaVuSans-97"/>
      <path d="M 45.40625 27.984375 
Q 45.40625 37.75 41.375 43.109375 
Q 37.359375 48.484375 30.078125 48.484375 
Q 22.859375 48.484375 18.828125 43.109375 
Q 14.796875 37.75 14.796875 27.984375 
Q 14.796875 18.265625 18.828125 12.890625 
Q 22.859375 7.515625 30.078125 7.515625 
Q 37.359375 7.515625 41.375 12.890625 
Q 45.40625 18.265625 45.40625 27.984375 
z
M 54.390625 6.78125 
Q 54.390625 -7.171875 48.1875 -13.984375 
Q 42 -20.796875 29.203125 -20.796875 
Q 24.46875 -20.796875 20.265625 -20.09375 
Q 16.0625 -19.390625 12.109375 -17.921875 
L 12.109375 -9.1875 
Q 16.0625 -11.328125 19.921875 -12.34375 
Q 23.78125 -13.375 27.78125 -13.375 
Q 36.625 -13.375 41.015625 -8.765625 
Q 45.40625 -4.15625 45.40625 5.171875 
L 45.40625 9.625 
Q 42.625 4.78125 38.28125 2.390625 
Q 33.9375 0 27.875 0 
Q 17.828125 0 11.671875 7.65625 
Q 5.515625 15.328125 5.515625 27.984375 
Q 5.515625 40.671875 11.671875 48.328125 
Q 17.828125 56 27.875 56 
Q 33.9375 56 38.28125 53.609375 
Q 42.625 51.21875 45.40625 46.390625 
L 45.40625 54.6875 
L 54.390625 54.6875 
z
" id="DejaVuSans-103"/>
      <path d="M 28.609375 0 
L 0.78125 72.90625 
L 11.078125 72.90625 
L 34.1875 11.53125 
L 57.328125 72.90625 
L 67.578125 72.90625 
L 39.796875 0 
z
" id="DejaVuSans-86"/>
     </defs>
     <g transform="translate(22.453125 250.624062)rotate(-90)scale(0.1 -0.1)">
      <use xlink:href="#DejaVuSans-118"/>
      <use x="59.179688" xlink:href="#DejaVuSans-111"/>
      <use x="120.361328" xlink:href="#DejaVuSans-108"/>
      <use x="148.144531" xlink:href="#DejaVuSans-116"/>
      <use x="187.353516" xlink:href="#DejaVuSans-97"/>
      <use x="248.632812" xlink:href="#DejaVuSans-103"/>
      <use x="312.109375" xlink:href="#DejaVuSans-101"/>
      <use x="373.632812" xlink:href="#DejaVuSans-32"/>
      <use x="405.419922" xlink:href="#DejaVuSans-91"/>
      <use x="444.433594" xlink:href="#DejaVuSans-109"/>
      <use x="541.845703" xlink:href="#DejaVuSans-86"/>
      <use x="610.253906" xlink:href="#DejaVuSans-93"/>
     </g>
    </g>
   </g>
   <g id="line2d_14">
    <path clip-path="url(#p3e4d4e7442)" d="M 80.754545 265.040723 
L 83.385088 264.95582 
L 83.417364 264.870916 
L 83.465779 265.040723 
L 83.498056 264.95582 
L 83.514194 265.040723 
L 83.594885 264.95582 
L 83.723992 264.870916 
L 84.547045 264.95582 
L 84.676151 265.040723 
L 84.96664 264.95582 
L 85.095747 264.870916 
L 85.176438 264.95582 
L 85.208715 264.870916 
L 85.337821 264.95582 
L 85.35396 265.040723 
L 85.402374 264.870916 
L 85.434651 264.870916 
L 86.322257 264.95582 
L 86.451364 265.040723 
L 87.419661 265.125627 
L 87.532629 265.210531 
L 87.581044 265.125627 
L 87.645598 265.210531 
L 88.694587 265.295435 
L 88.807555 265.380339 
L 88.85597 265.295435 
L 89.049629 255.616394 
L 89.501501 246.53168 
L 90.356831 234.730043 
L 91.196022 227.003791 
L 91.470373 224.966098 
L 91.777001 222.843501 
L 92.551639 219.362443 
L 92.583916 219.277539 
L 92.793714 218.768115 
L 92.82599 218.683212 
L 93.11648 217.749269 
L 93.310139 217.664365 
L 93.503799 217.239846 
L 93.552214 217.154942 
L 93.745873 216.730423 
L 93.858841 216.645519 
L 94.020224 216.390807 
L 94.213884 216.305903 
L 94.391405 215.966288 
L 95.843851 215.881384 
L 95.989096 215.541769 
L 96.005234 215.626672 
L 96.118202 215.541769 
L 96.247309 215.456865 
L 96.553936 215.371961 
L 96.683043 215.287057 
L 96.892841 215.79648 
L 96.957394 215.881384 
L 97.167192 216.390807 
L 97.393128 216.305903 
L 97.425404 216.220999 
L 97.506096 216.305903 
L 97.845 216.220999 
L 97.990245 216.051192 
L 98.006383 216.136096 
L 98.03866 215.966288 
L 98.103213 216.051192 
L 98.264596 216.136096 
L 98.296872 216.220999 
L 98.361426 216.051192 
L 98.50667 216.136096 
L 98.538947 216.220999 
L 98.571223 216.051192 
L 98.619638 216.136096 
L 99.119925 216.051192 
L 99.26517 215.881384 
L 99.959117 215.79648 
L 100.055947 215.711576 
L 100.072085 215.79648 
L 100.1205 215.881384 
L 100.362574 217.32475 
L 100.604649 218.003981 
L 100.653063 218.088885 
L 100.733755 218.173788 
L 100.766031 218.088885 
L 100.943553 218.003981 
L 101.056521 217.749269 
L 101.088797 217.834173 
L 101.217904 217.749269 
L 101.395425 217.409654 
L 101.427702 217.494557 
L 101.508393 217.409654 
L 101.556808 217.32475 
L 101.702053 217.154942 
L 101.831159 217.070038 
L 101.960265 216.985134 
L 102.040957 217.070038 
L 102.073233 216.985134 
L 102.153925 216.90023 
L 102.331446 216.560615 
L 102.347584 216.645519 
L 102.379861 216.475711 
L 102.428276 216.560615 
L 102.589659 216.305903 
L 102.718765 216.390807 
L 102.993116 216.305903 
L 103.057669 216.051192 
L 103.122223 216.220999 
L 103.235191 216.305903 
L 103.251329 216.390807 
L 103.33202 216.220999 
L 103.348159 216.305903 
L 103.461127 216.136096 
L 103.477265 216.220999 
L 103.687063 216.136096 
L 103.816169 216.051192 
L 104.09052 215.966288 
L 104.18735 215.881384 
L 104.203488 215.966288 
L 104.38101 215.881384 
L 104.526254 215.541769 
L 104.542393 215.626672 
L 104.639222 215.541769 
L 104.687637 215.456865 
L 104.75219 215.541769 
L 104.897435 215.456865 
L 105.026541 215.371961 
L 105.236339 215.456865 
L 105.317031 215.541769 
L 105.349307 215.456865 
L 106.107807 215.371961 
L 106.123945 215.287057 
L 106.17236 215.456865 
L 106.220775 215.371961 
L 106.882445 215.456865 
L 107.011552 215.541769 
L 107.705498 215.456865 
L 107.737775 215.371961 
L 107.78619 215.541769 
L 107.802328 215.541769 
L 108.383307 215.456865 
L 108.528551 215.287057 
L 108.576966 215.202153 
L 108.706073 215.117249 
L 109.254775 215.032345 
L 109.335466 214.947441 
L 109.367743 215.032345 
L 109.690509 214.947441 
L 109.819615 214.777634 
L 109.916445 214.862538 
L 109.932583 214.777634 
L 110.416732 214.862538 
L 110.561977 215.032345 
L 110.691083 214.947441 
L 111.368891 215.032345 
L 111.530274 215.287057 
L 112.256498 215.371961 
L 112.321051 215.287057 
L 112.385604 215.456865 
L 112.821338 215.541769 
L 112.837476 215.626672 
L 112.869753 215.456865 
L 112.934306 215.541769 
L 113.17638 215.626672 
L 113.337763 215.881384 
L 113.434593 215.966288 
L 113.579838 216.136096 
L 113.789636 216.051192 
L 113.870327 215.966288 
L 113.902604 216.051192 
L 114.160817 216.136096 
L 114.257646 216.220999 
L 114.273785 216.136096 
L 114.386753 215.966288 
L 114.402891 216.051192 
L 114.483582 215.966288 
L 114.580412 215.79648 
L 114.612689 215.881384 
L 114.806348 215.79648 
L 114.935455 215.711576 
L 115.35505 215.626672 
L 115.484157 215.541769 
L 115.532572 215.626672 
L 115.580986 215.541769 
L 115.710093 215.456865 
L 115.839199 215.371961 
L 115.984444 215.202153 
L 116.21038 215.117249 
L 116.339486 215.032345 
L 116.484731 214.947441 
L 116.629976 214.777634 
L 116.710667 214.69273 
L 116.742944 214.607826 
L 116.823635 214.69273 
L 117.017295 214.777634 
L 117.033433 214.862538 
L 117.130263 214.777634 
L 117.259369 214.862538 
L 117.501444 215.541769 
L 117.549858 215.626672 
L 117.743518 216.051192 
L 117.921039 216.136096 
L 118.050146 216.220999 
L 118.647263 216.136096 
L 118.776369 216.051192 
L 119.05072 215.966288 
L 119.131411 215.881384 
L 119.163688 215.966288 
L 119.518731 215.881384 
L 119.663975 215.711576 
L 119.80922 215.626672 
L 119.938326 215.541769 
L 120.002879 215.626672 
L 120.051294 215.541769 
L 120.228815 215.202153 
L 120.438613 215.117249 
L 120.56772 215.032345 
L 120.664549 214.947441 
L 120.696826 214.862538 
L 120.745241 215.032345 
L 120.761379 215.032345 
L 120.858209 215.117249 
L 120.874347 215.032345 
L 121.116422 215.117249 
L 121.261666 215.287057 
L 121.471464 215.202153 
L 121.616709 215.032345 
L 121.778092 214.947441 
L 121.939475 214.69273 
L 122.116996 214.607826 
L 122.246102 214.522922 
L 122.407485 214.777634 
L 122.423624 214.69273 
L 122.520453 214.777634 
L 122.697975 214.69273 
L 122.810943 214.522922 
L 122.827081 214.607826 
L 123.133709 214.69273 
L 123.278953 214.862538 
L 123.553304 214.947441 
L 123.682411 215.117249 
L 123.843794 214.862538 
L 123.924485 214.947441 
L 123.940623 215.032345 
L 124.005177 214.862538 
L 124.021315 214.862538 
L 124.360219 214.777634 
L 124.489325 214.69273 
L 124.682985 214.777634 
L 124.844368 215.032345 
L 125.280102 215.117249 
L 125.360793 215.287057 
L 125.39307 215.202153 
L 125.522176 215.117249 
L 125.764251 215.032345 
L 125.780389 214.947441 
L 125.877219 215.032345 
L 126.038602 214.947441 
L 126.167708 214.862538 
L 126.329091 214.777634 
L 126.458197 214.69273 
L 126.587304 214.777634 
L 126.651857 214.862538 
L 126.700272 214.777634 
L 127.136006 214.69273 
L 127.152144 214.607826 
L 127.232836 214.69273 
L 127.248974 214.777634 
L 127.297389 214.607826 
L 127.329665 214.607826 
L 127.394219 214.69273 
L 127.442633 214.862538 
L 127.507187 214.777634 
L 127.636293 214.69273 
L 127.765399 214.777634 
L 127.975197 214.69273 
L 128.120442 214.522922 
L 128.217272 214.438018 
L 128.346378 214.353114 
L 128.410931 214.26821 
L 128.540038 214.183307 
L 129.08874 214.098403 
L 129.137154 214.013499 
L 129.201708 214.098403 
L 129.605165 214.183307 
L 129.734271 214.26821 
L 129.831101 214.183307 
L 130.024761 213.758787 
L 130.137729 213.673883 
L 130.282973 213.504076 
L 130.525048 213.419172 
L 130.541186 213.334268 
L 130.589601 213.504076 
L 130.621878 213.419172 
L 130.670292 213.504076 
L 130.734846 213.419172 
L 131.07375 213.334268 
L 131.218995 213.16446 
L 132.477782 213.249364 
L 132.606888 213.334268 
L 132.768271 213.249364 
L 132.816686 213.16446 
L 132.881239 213.249364 
L 133.268558 213.334268 
L 133.397664 213.419172 
L 133.413803 213.419172 
L 133.559047 213.843691 
L 133.591324 213.758787 
L 133.639739 214.013499 
L 133.655877 213.928595 
L 133.768845 214.013499 
L 133.962505 214.438018 
L 133.994781 214.522922 
L 134.156164 214.862538 
L 134.285271 214.777634 
L 134.430515 214.862538 
L 134.559622 215.032345 
L 134.688728 214.947441 
L 134.979217 214.862538 
L 135.108324 214.777634 
L 135.33426 214.69273 
L 135.414951 214.522922 
L 135.463366 214.607826 
L 135.818409 214.522922 
L 135.834547 214.438018 
L 135.866824 214.607826 
L 135.931377 214.522922 
L 136.044345 214.438018 
L 136.060483 214.353114 
L 136.157313 214.438018 
L 136.883536 214.353114 
L 137.061057 214.013499 
L 137.174025 213.928595 
L 137.206302 213.843691 
L 137.238579 214.013499 
L 137.270855 214.013499 
L 137.367685 213.928595 
L 137.432238 213.758787 
L 137.480653 213.928595 
L 137.690451 213.843691 
L 137.835696 213.673883 
L 137.98094 213.843691 
L 138.110047 213.758787 
L 138.206876 213.504076 
L 138.255291 213.58898 
L 138.707163 213.504076 
L 138.83627 213.419172 
L 138.900823 213.504076 
L 138.949238 213.419172 
L 139.126759 213.504076 
L 139.255866 213.58898 
L 139.30428 213.504076 
L 139.368834 213.58898 
L 139.772291 213.504076 
L 139.901397 213.334268 
L 139.998227 213.419172 
L 140.014365 213.334268 
L 140.756727 213.249364 
L 140.91811 212.994652 
L 141.047216 212.909749 
L 141.127908 212.824845 
L 141.160184 212.909749 
L 141.434535 213.758787 
L 141.902546 213.673883 
L 142.031652 213.58898 
L 142.14462 213.504076 
L 142.273727 213.419172 
L 142.386695 213.504076 
L 142.515801 213.419172 
L 142.80629 213.334268 
L 142.951535 213.16446 
L 144.339429 213.249364 
L 144.468535 213.58898 
L 144.484673 213.504076 
L 144.581503 213.419172 
L 144.597641 213.504076 
L 144.678333 213.58898 
L 144.823577 213.758787 
L 145.340003 213.673883 
L 145.485247 213.504076 
L 145.64663 213.419172 
L 145.775737 213.334268 
L 146.308301 213.249364 
L 146.388992 213.079556 
L 146.437407 213.16446 
L 147.244322 213.249364 
L 147.26046 213.334268 
L 147.35729 213.249364 
L 147.550949 213.16446 
L 147.680056 213.079556 
L 147.809162 213.16446 
L 147.938268 213.079556 
L 147.970545 212.994652 
L 148.051236 213.079556 
L 148.180343 213.16446 
L 148.325587 213.334268 
L 148.374002 213.249364 
L 148.503109 213.16446 
L 148.632215 213.249364 
L 148.858151 213.16446 
L 148.890428 212.994652 
L 148.987258 213.079556 
L 149.100226 213.16446 
L 149.116364 213.249364 
L 149.164779 213.079556 
L 149.213194 213.16446 
L 149.358438 212.994652 
L 149.697343 213.079556 
L 149.826449 213.16446 
L 149.971694 213.16446 
L 150.00397 212.994652 
L 150.084662 213.079556 
L 150.407427 213.16446 
L 150.601087 213.673883 
L 150.76247 213.419172 
L 151.085236 213.504076 
L 151.149789 213.58898 
L 151.198204 213.504076 
L 151.32731 213.419172 
L 151.343449 213.504076 
L 151.375725 213.334268 
L 151.440278 213.419172 
L 151.811459 213.334268 
L 151.843736 213.249364 
L 151.924427 213.334268 
L 152.424714 213.249364 
L 152.586097 212.994652 
L 152.908863 212.909749 
L 152.94114 212.824845 
L 153.005693 212.994652 
L 153.054108 212.909749 
L 153.070246 212.824845 
L 153.150938 212.994652 
L 153.328459 212.909749 
L 153.360736 212.824845 
L 153.40915 212.909749 
L 153.60281 222.58879 
L 154.054682 231.588599 
L 154.425863 237.107351 
L 154.861597 242.371391 
L 154.990703 243.644949 
L 155.265054 246.276969 
L 155.765342 250.437258 
L 155.991278 252.220239 
L 156.314044 254.512644 
L 156.927299 258.333318 
L 157.137097 259.437068 
L 158.460437 265.804858 
L 158.492713 265.889762 
L 158.815479 266.993512 
L 158.847756 267.078416 
L 159.154383 268.097263 
L 159.18666 268.182166 
L 159.428735 268.861397 
L 159.461011 268.946301 
L 159.735362 269.79534 
L 159.816054 269.880244 
L 160.025851 270.389667 
L 160.058128 270.474571 
L 160.284064 271.068898 
L 160.348617 271.153802 
L 160.542277 271.578321 
L 160.60683 271.663225 
L 160.80049 272.172648 
L 160.816628 272.087744 
L 160.865043 272.257552 
L 160.897319 272.257552 
L 160.978011 272.342456 
L 161.139394 272.597168 
L 161.300777 272.682071 
L 161.478298 273.021687 
L 161.526713 272.936783 
L 161.591266 273.021687 
L 161.752649 273.276399 
L 161.897894 273.361302 
L 162.043138 273.53111 
L 162.091553 273.616014 
L 162.236798 273.785822 
L 162.285213 273.870726 
L 162.317489 273.955629 
L 162.398181 273.870726 
L 162.462734 273.955629 
L 162.607979 274.125437 
L 162.995298 274.210341 
L 163.124404 274.295245 
L 163.318064 274.380149 
L 163.431032 274.549957 
L 163.44717 274.465053 
L 163.527861 274.549957 
L 163.656968 274.63486 
L 163.931319 274.719764 
L 164.060425 274.804668 
L 164.544574 274.719764 
L 164.625266 274.63486 
L 164.657542 274.719764 
L 165.997021 274.63486 
L 166.126127 274.465053 
L 166.206818 274.549957 
L 166.239095 274.465053 
L 166.432755 274.380149 
L 166.577999 274.210341 
L 166.900765 274.125437 
L 167.029872 274.040533 
L 167.304223 273.955629 
L 167.465606 273.700918 
L 167.659265 273.616014 
L 167.788371 273.53111 
L 168.014308 273.446206 
L 168.175691 273.191495 
L 168.191829 273.276399 
L 168.288659 273.191495 
L 168.450042 273.106591 
L 168.56301 273.021687 
L 168.579148 273.106591 
L 168.627563 272.936783 
L 168.659839 272.936783 
L 168.837361 272.851879 
L 168.853499 272.766975 
L 168.885775 272.936783 
L 168.950329 272.851879 
L 169.12785 272.766975 
L 169.273095 272.597168 
L 169.418339 272.512264 
L 169.499031 272.42736 
L 169.611999 265.804858 
L 169.708829 265.889762 
L 169.724967 265.974666 
L 169.821797 265.889762 
L 170.951477 265.974666 
L 170.967616 266.05957 
L 171.064445 265.974666 
L 171.790669 266.05957 
L 171.822945 266.144474 
L 171.903637 266.05957 
L 172.048881 265.889762 
L 172.177988 265.974666 
L 172.387786 265.889762 
L 172.516892 265.804858 
L 173.162424 265.719954 
L 173.307668 265.550147 
L 174.518041 265.63505 
L 174.647147 265.719954 
L 175.115157 265.804858 
L 175.147434 265.889762 
L 175.228126 265.804858 
L 175.389508 265.889762 
L 175.405647 265.974666 
L 175.502477 265.889762 
L 175.615445 265.974666 
L 175.712274 266.05957 
L 175.728413 265.974666 
L 175.954349 266.05957 
L 176.083455 266.144474 
L 176.099593 266.05957 
L 176.180285 266.229378 
L 176.196423 266.144474 
L 176.664434 266.05957 
L 176.79354 265.974666 
L 176.938785 265.889762 
L 177.019476 265.974666 
L 177.067891 265.804858 
L 177.213136 265.889762 
L 177.293827 265.974666 
L 177.326104 265.889762 
L 177.616593 265.889762 
L 177.810253 253.239086 
L 178.391231 238.380909 
L 179.149731 224.711386 
L 179.82754 215.711576 
L 180.39238 210.872056 
L 180.924944 208.664555 
L 180.95722 208.579651 
L 181.15088 208.155132 
L 181.312263 208.070228 
L 181.522061 207.560805 
L 181.538199 207.560805 
L 181.683444 207.136286 
L 181.764135 207.051382 
L 181.90938 206.881574 
L 182.328975 206.79667 
L 182.522635 206.372151 
L 182.66788 206.287247 
L 182.861539 205.862728 
L 182.926092 205.947631 
L 182.974507 206.032535 
L 183.03906 205.947631 
L 183.103614 205.862728 
L 183.264997 205.608016 
L 183.313411 205.523112 
L 183.539348 204.928785 
L 183.620039 204.843881 
L 183.829837 204.334458 
L 183.89439 204.249554 
L 184.184879 203.315612 
L 184.233294 203.400515 
L 184.297847 203.315612 
L 184.539922 202.636381 
L 184.814273 202.551477 
L 184.927241 202.042054 
L 184.991794 202.211861 
L 185.072486 202.126957 
L 185.250007 201.53263 
L 185.282283 201.617534 
L 185.346837 201.53263 
L 185.669602 200.42888 
L 185.718017 200.343976 
L 186.411964 196.098783 
L 186.428102 195.58936 
L 186.444241 190.32532 
L 186.492656 74.940964 
L 186.573347 135.307614 
L 186.73473 203.909939 
L 186.944528 206.117439 
L 188.05807 216.815327 
L 188.074208 216.815327 
L 188.25173 217.579461 
L 188.477666 218.173788 
L 188.526081 218.258692 
L 188.752017 218.853019 
L 188.800432 218.937923 
L 188.961815 219.192635 
L 189.026368 219.107731 
L 189.058644 219.192635 
L 189.187751 219.277539 
L 189.720315 219.192635 
L 189.865559 219.022827 
L 190.091495 218.937923 
L 190.23674 218.768115 
L 190.285155 218.683212 
L 190.414261 218.513404 
L 190.4304 218.598308 
L 190.494953 218.4285 
L 190.511091 218.4285 
L 190.591783 218.343596 
L 190.720889 218.258692 
L 190.89841 218.173788 
L 191.027516 218.088885 
L 191.140485 218.003981 
L 191.301868 217.749269 
L 191.46325 217.664365 
L 191.640772 217.32475 
L 192.205612 217.239846 
L 192.366995 216.985134 
L 192.463825 216.90023 
L 192.625208 216.560615 
L 192.754314 216.645519 
L 192.835006 216.560615 
L 192.899559 216.475711 
L 192.947974 216.560615 
L 193.238463 216.475711 
L 193.383708 216.305903 
L 193.512814 216.220999 
L 193.658059 216.051192 
L 193.787165 216.136096 
L 193.964686 215.79648 
L 194.013101 215.881384 
L 194.061516 215.711576 
L 194.448835 215.626672 
L 194.59408 215.456865 
L 194.723186 215.371961 
L 194.900707 215.032345 
L 194.981399 214.947441 
L 195.126643 214.777634 
L 195.271888 214.69273 
L 195.35258 214.522922 
L 195.400994 214.607826 
L 195.465548 214.522922 
L 195.610792 214.353114 
L 195.885143 214.26821 
L 196.01425 214.183307 
L 196.094941 214.098403 
L 196.256324 213.758787 
L 196.353154 213.843691 
L 196.369292 213.758787 
L 196.708196 213.673883 
L 196.837303 213.58898 
L 196.950271 213.673883 
L 196.982547 213.58898 
L 197.063239 213.673883 
L 197.14393 213.58898 
L 197.160069 213.504076 
L 197.224622 213.673883 
L 197.24076 213.673883 
L 197.402143 213.758787 
L 197.579664 214.26821 
L 197.595803 214.183307 
L 197.644218 214.26821 
L 197.821739 214.607826 
L 197.854015 214.522922 
L 197.934707 214.607826 
L 197.966983 214.69273 
L 198.112228 214.862538 
L 198.467271 214.777634 
L 198.483409 214.69273 
L 198.580239 214.777634 
L 198.644792 214.69273 
L 198.822313 214.353114 
L 199.032111 214.26821 
L 199.209632 213.928595 
L 199.241909 214.013499 
L 199.306462 213.843691 
L 199.500121 213.419172 
L 199.629228 213.504076 
L 199.790611 213.419172 
L 199.951994 213.16446 
L 200.032685 213.079556 
L 200.161792 212.994652 
L 200.532972 212.909749 
L 200.662079 212.655037 
L 200.678217 212.739941 
L 200.807323 212.655037 
L 200.968706 212.400325 
L 201.065536 212.315422 
L 201.226919 212.06071 
L 201.372164 211.975806 
L 201.50127 211.890902 
L 201.646515 211.805998 
L 201.807898 211.551287 
L 201.856313 211.636191 
L 201.985419 211.721094 
L 202.146802 211.466383 
L 202.275908 211.551287 
L 202.3566 211.466383 
L 202.517983 211.211671 
L 202.582536 211.126767 
L 202.727781 210.872056 
L 202.743919 210.95696 
L 202.776195 210.787152 
L 202.82461 210.787152 
L 203.034408 210.702248 
L 203.179653 210.53244 
L 203.550834 210.617344 
L 203.67994 210.702248 
L 203.77677 210.787152 
L 203.905876 210.872056 
L 204.632099 210.787152 
L 204.777344 210.617344 
L 204.858035 210.53244 
L 204.987142 210.447536 
L 205.116248 210.617344 
L 205.164663 210.53244 
L 205.19694 210.702248 
L 205.229216 210.617344 
L 205.358323 210.872056 
L 205.374461 210.787152 
L 206.052269 210.872056 
L 206.213652 211.126767 
L 206.455727 211.211671 
L 206.61711 211.466383 
L 206.762354 211.551287 
L 206.907599 211.721094 
L 207.343333 211.636191 
L 207.359471 211.551287 
L 207.456301 211.636191 
L 207.472439 211.721094 
L 207.569269 211.636191 
L 207.666099 211.721094 
L 207.682237 211.805998 
L 207.779067 211.721094 
L 208.021141 211.636191 
L 208.182524 211.381479 
L 208.230939 211.296575 
L 208.40846 210.95696 
L 208.60212 210.872056 
L 208.731226 210.787152 
L 208.989439 210.702248 
L 209.118545 210.617344 
L 209.215375 210.53244 
L 209.36062 210.362633 
L 209.538141 210.277729 
L 209.731801 209.853209 
L 210.038428 209.768305 
L 210.183673 209.598498 
L 210.232088 209.683402 
L 210.393471 209.938113 
L 211.055141 209.853209 
L 211.232662 209.513594 
L 211.297215 209.598498 
L 211.329492 209.513594 
L 211.474737 209.343786 
L 211.652258 209.258882 
L 211.749088 209.173978 
L 211.765226 209.258882 
L 211.813641 209.173978 
L 211.958885 209.004171 
L 212.023439 208.919267 
L 212.039577 208.834363 
L 212.087992 209.004171 
L 212.120268 209.004171 
L 212.217098 209.089075 
L 212.362343 209.258882 
L 212.410758 209.173978 
L 212.475311 209.004171 
L 212.523726 209.173978 
L 212.588279 209.089075 
L 212.636694 209.004171 
L 212.685109 209.089075 
L 212.86263 209.42869 
L 213.185396 209.343786 
L 213.217672 209.258882 
L 213.266087 209.42869 
L 213.282226 209.42869 
L 213.556577 209.343786 
L 213.653406 209.258882 
L 213.669545 209.343786 
L 213.814789 209.258882 
L 214.008449 208.834363 
L 214.056864 208.749459 
L 214.073002 208.664555 
L 214.169832 208.749459 
L 214.2828 208.664555 
L 214.411906 208.579651 
L 214.589427 208.494747 
L 214.734672 208.32494 
L 214.84764 208.409844 
L 214.879917 208.494747 
L 214.928332 208.32494 
L 214.94447 208.32494 
L 215.202683 208.240036 
L 215.331789 208.155132 
L 215.460895 208.240036 
L 215.751385 208.32494 
L 215.767523 208.409844 
L 215.864353 208.32494 
L 216.058012 207.90042 
L 216.138704 207.815517 
L 216.300087 207.475901 
L 216.380778 207.560805 
L 216.413055 207.475901 
L 216.542161 207.390997 
L 216.687406 207.221189 
L 216.92948 207.136286 
L 216.977895 207.051382 
L 217.02631 207.136286 
L 217.042448 207.221189 
L 217.139278 207.136286 
L 217.704118 207.221189 
L 217.833225 207.306093 
L 217.849363 207.221189 
L 217.946193 207.306093 
L 218.204406 207.306093 
L 218.34965 207.730613 
L 218.656278 207.645709 
L 218.785384 207.560805 
L 218.962905 207.645709 
L 219.027459 207.560805 
L 219.075874 207.730613 
L 219.20498 207.645709 
L 219.414778 207.730613 
L 219.576161 207.985324 
L 219.915065 208.070228 
L 220.157139 208.749459 
L 220.270107 208.834363 
L 220.350799 209.004171 
L 220.399214 208.919267 
L 220.496044 208.834363 
L 220.62515 208.749459 
L 220.818809 208.834363 
L 220.834948 208.919267 
L 220.931777 208.834363 
L 221.125437 208.749459 
L 221.254543 208.664555 
L 221.319097 208.579651 
L 221.464341 208.409844 
L 221.722554 208.32494 
L 221.867799 208.155132 
L 221.900075 208.155132 
L 222.029182 207.815517 
L 222.077596 207.730613 
L 222.158288 207.475901 
L 222.222841 207.560805 
L 222.739267 207.475901 
L 222.900649 207.221189 
L 223.013618 207.136286 
L 223.158862 206.881574 
L 223.175001 206.966478 
L 223.239554 206.79667 
L 223.255692 206.881574 
L 223.449352 206.457055 
L 223.626873 206.372151 
L 223.852809 205.777824 
L 223.981915 205.69292 
L 224.046468 205.523112 
L 224.094883 205.608016 
L 224.272405 205.947631 
L 224.320819 205.862728 
L 224.385373 205.777824 
L 224.433788 205.862728 
L 224.514479 206.032535 
L 224.562894 205.947631 
L 224.692 206.032535 
L 224.853383 206.287247 
L 225.127734 206.202343 
L 225.256841 206.117439 
L 225.289117 206.202343 
L 225.305255 206.287247 
L 225.35367 206.117439 
L 225.385947 206.117439 
L 225.54733 206.202343 
L 225.692575 206.372151 
L 225.740989 206.287247 
L 225.886234 206.117439 
L 226.063755 206.032535 
L 226.338106 205.183497 
L 226.547904 205.268401 
L 226.580181 205.353304 
L 226.628596 205.183497 
L 226.644734 205.183497 
L 226.725425 205.098593 
L 226.87067 204.928785 
L 226.886808 205.013689 
L 226.9675 204.843881 
L 226.983638 204.928785 
L 227.06433 205.013689 
L 227.096606 205.098593 
L 227.161159 204.928785 
L 227.403234 204.928785 
L 227.53234 204.58917 
L 227.661447 204.504266 
L 227.677585 204.419362 
L 227.758276 204.504266 
L 227.855106 204.674073 
L 227.887383 204.58917 
L 228.048766 204.504266 
L 228.097181 204.419362 
L 228.161734 204.504266 
L 228.419946 204.419362 
L 228.597468 204.079746 
L 228.823404 203.994842 
L 228.871819 203.825035 
L 228.936372 203.994842 
L 229.081617 203.909939 
L 229.259138 203.570323 
L 229.307553 203.485419 
L 229.468936 203.230708 
L 229.630319 203.315612 
L 229.646457 203.400515 
L 229.71101 203.230708 
L 229.727148 203.230708 
L 230.082191 203.145804 
L 230.098329 203.0609 
L 230.162882 203.230708 
L 230.179021 203.230708 
L 230.905244 203.145804 
L 231.195733 202.211861 
L 231.22801 202.126957 
L 231.421669 201.702438 
L 231.453946 201.617534 
L 231.954233 199.579841 
L 231.970371 199.664745 
L 232.034925 199.410034 
L 232.164031 197.542149 
L 232.180169 194.400705 
L 232.244722 74.007021 
L 232.309276 130.383189 
L 232.470659 202.975996 
L 232.535212 203.655227 
L 232.599765 203.485419 
L 232.74501 203.230708 
L 233.051637 205.438208 
L 233.551924 209.683402 
L 233.584201 209.768305 
L 233.826275 211.211671 
L 234.520222 214.26821 
L 234.584775 214.353114 
L 234.794573 214.862538 
L 234.842988 214.947441 
L 235.036647 215.371961 
L 235.101201 215.456865 
L 235.262584 215.711576 
L 235.359413 215.79648 
L 235.520796 216.051192 
L 235.601488 216.136096 
L 235.746732 216.305903 
L 235.908115 216.390807 
L 236.037222 216.475711 
L 236.117913 216.560615 
L 236.263158 216.815327 
L 236.279296 216.730423 
L 236.359988 216.90023 
L 236.521371 217.154942 
L 236.876413 217.070038 
L 237.005519 216.90023 
L 237.070073 217.070038 
L 237.118488 216.985134 
L 237.247594 216.90023 
L 237.392839 216.815327 
L 237.538083 216.645519 
L 237.57036 216.730423 
L 237.634913 216.645519 
L 237.812434 216.305903 
L 237.860849 216.220999 
L 238.006094 216.051192 
L 238.167477 215.966288 
L 238.312721 215.79648 
L 238.474104 215.711576 
L 238.619349 215.541769 
L 238.829147 215.456865 
L 238.974392 215.287057 
L 239.103498 215.202153 
L 239.264881 214.947441 
L 239.329434 214.862538 
L 239.490817 214.607826 
L 239.732891 214.522922 
L 239.861998 214.438018 
L 240.152487 214.353114 
L 240.281593 214.26821 
L 240.378423 214.353114 
L 240.394561 214.26821 
L 240.572083 214.183307 
L 240.701189 214.098403 
L 240.959402 214.013499 
L 241.104646 213.843691 
L 241.459689 213.758787 
L 241.604934 213.58898 
L 241.717902 213.504076 
L 241.879285 213.249364 
L 242.169774 213.249364 
L 242.363433 225.645329 
L 242.799167 235.918697 
L 243.234901 242.79591 
L 243.654497 247.805238 
L 243.783603 249.078796 
L 244.396859 254.42774 
L 244.638933 256.295625 
L 244.961699 258.588029 
L 246.494837 266.05957 
L 246.55939 266.144474 
L 246.946709 267.587839 
L 246.978986 267.672743 
L 247.237199 268.436878 
L 247.269475 268.521782 
L 247.527688 269.285917 
L 247.592241 269.370821 
L 247.834316 270.050052 
L 247.850454 270.050052 
L 247.995699 270.559475 
L 248.011837 270.474571 
L 248.060252 270.644379 
L 248.092528 270.644379 
L 248.302326 271.153802 
L 248.366879 271.238706 
L 248.576677 271.748129 
L 248.657369 271.833033 
L 248.83489 272.172648 
L 248.996273 272.257552 
L 249.173794 272.597168 
L 249.238347 272.682071 
L 249.383592 272.851879 
L 249.544975 272.936783 
L 249.706358 273.191495 
L 249.819326 273.276399 
L 249.980709 273.53111 
L 250.303475 273.616014 
L 250.416443 273.785822 
L 250.432581 273.700918 
L 250.513273 273.785822 
L 250.610102 273.955629 
L 250.642379 273.870726 
L 250.884453 273.955629 
L 251.01356 274.040533 
L 251.255634 274.125437 
L 251.271772 274.210341 
L 251.352464 274.040533 
L 251.497709 274.125437 
L 251.626815 274.210341 
L 252.43373 274.125437 
L 252.562836 273.955629 
L 252.691942 274.125437 
L 252.837187 273.955629 
L 252.934017 273.870726 
L 252.99857 273.785822 
L 253.046985 273.870726 
L 253.611825 273.785822 
L 253.75707 273.616014 
L 254.273495 273.53111 
L 254.41874 273.361302 
L 254.499431 273.446206 
L 254.531708 273.361302 
L 254.773783 273.276399 
L 254.789921 273.191495 
L 254.838336 273.361302 
L 254.886751 273.276399 
L 255.354761 273.191495 
L 255.483867 273.106591 
L 255.709804 273.021687 
L 255.83891 272.936783 
L 256.000293 272.851879 
L 256.129399 272.682071 
L 256.258506 272.766975 
L 256.387612 272.682071 
L 256.50058 272.597168 
L 256.645825 272.42736 
L 256.968591 272.342456 
L 257.097697 272.257552 
L 257.129974 272.172648 
L 257.275218 272.002841 
L 257.517293 271.917937 
L 257.646399 271.833033 
L 258.01758 271.748129 
L 258.146686 271.578321 
L 258.162824 271.663225 
L 258.259654 271.578321 
L 258.372622 266.653897 
L 259.647548 266.738801 
L 259.679824 266.823705 
L 259.760516 266.738801 
L 260.244665 266.653897 
L 260.276941 266.484089 
L 260.357633 266.653897 
L 261.42276 266.738801 
L 261.471175 266.823705 
L 261.51959 266.653897 
L 261.535728 266.738801 
L 262.616994 266.653897 
L 262.649271 266.568993 
L 262.729962 266.653897 
L 263.230249 266.738801 
L 263.359356 266.823705 
L 264.392206 266.908608 
L 264.521313 266.993512 
L 266.377217 266.993512 
L 266.570876 247.975046 
L 267.151855 225.645329 
L 268.265397 199.240226 
L 268.507472 196.438398 
L 268.846376 190.410224 
L 268.910929 73.667406 
L 268.991621 148.043194 
L 269.153004 203.740131 
L 269.18528 203.994842 
L 269.233695 203.655227 
L 269.395078 202.975996 
L 269.653291 203.740131 
L 269.75012 203.825035 
L 269.959918 204.334458 
L 270.072886 204.419362 
L 270.153578 204.58917 
L 270.201993 204.504266 
L 270.282684 204.58917 
L 270.395652 204.758977 
L 270.411791 204.674073 
L 270.573173 204.58917 
L 270.621588 204.504266 
L 270.653865 204.58917 
L 270.782971 204.843881 
L 270.79911 204.928785 
L 270.879801 204.843881 
L 271.025046 204.674073 
L 271.154152 204.758977 
L 271.218705 204.928785 
L 271.26712 204.843881 
L 271.428503 204.504266 
L 271.444641 204.58917 
L 271.525333 204.504266 
L 271.670578 204.334458 
L 271.735131 204.249554 
L 271.944929 203.740131 
L 272.02562 203.655227 
L 272.283833 202.806188 
L 272.299971 202.891092 
L 272.396801 202.806188 
L 272.445216 202.806188 
L 272.59046 202.381669 
L 272.832535 201.702438 
L 272.88095 201.617534 
L 273.139162 200.853399 
L 273.332822 200.938303 
L 273.510343 201.277919 
L 273.558758 201.362823 
L 273.704003 201.53263 
L 273.800833 201.617534 
L 273.865386 201.702438 
L 273.897662 201.53263 
L 273.913801 201.617534 
L 274.059045 201.193015 
L 274.220428 200.938303 
L 274.268843 200.853399 
L 274.543194 199.749649 
L 274.575471 199.834553 
L 274.86596 199.749649 
L 274.946651 199.579841 
L 274.96279 199.664745 
L 275.043481 199.749649 
L 275.075758 199.664745 
L 275.172588 199.579841 
L 275.366247 199.155322 
L 275.495354 199.070418 
L 275.753566 198.136476 
L 275.769705 198.221379 
L 275.834258 198.136476 
L 276.076332 197.457245 
L 276.140885 197.627052 
L 276.173162 197.457245 
L 276.544343 196.013879 
L 276.560481 196.098783 
L 276.608896 195.759167 
L 276.689587 195.674263 
L 277.060768 193.127147 
L 277.286704 189.985704 
L 277.351257 71.035386 
L 277.431949 135.392517 
L 277.593332 200.598688 
L 277.754715 201.872246 
L 278.255002 205.098593 
L 278.480938 206.372151 
L 278.868257 207.985324 
L 278.884396 207.90042 
L 278.916672 207.985324 
L 279.094193 208.32494 
L 279.158747 208.409844 
L 279.336268 208.749459 
L 279.69131 208.664555 
L 279.852693 208.409844 
L 280.014076 208.32494 
L 280.240012 207.730613 
L 280.54664 207.645709 
L 280.675746 207.560805 
L 280.804853 207.475901 
L 280.820991 207.390997 
L 280.885544 207.560805 
L 280.917821 207.475901 
L 281.079204 207.390997 
L 281.20831 207.306093 
L 281.563353 207.221189 
L 281.708597 206.966478 
L 281.837704 207.051382 
L 282.031363 206.966478 
L 282.160469 206.881574 
L 282.225023 206.966478 
L 282.257299 206.79667 
L 282.273438 206.881574 
L 282.418682 206.711766 
L 282.483235 206.626862 
L 282.644618 206.372151 
L 282.693033 206.457055 
L 282.773725 206.541959 
L 282.806001 206.457055 
L 282.951246 206.372151 
L 283.128767 206.032535 
L 283.499948 205.947631 
L 283.645193 205.777824 
L 283.903405 205.69292 
L 284.097065 205.268401 
L 284.161618 205.183497 
L 284.306863 204.843881 
L 284.323001 204.928785 
L 284.371416 204.843881 
L 284.548937 204.504266 
L 284.597352 204.419362 
L 284.758735 203.994842 
L 284.774873 204.079746 
L 284.871703 203.994842 
L 285.033086 203.740131 
L 285.065363 203.655227 
L 285.27516 203.145804 
L 285.307437 203.0609 
L 285.452682 202.891092 
L 285.484958 202.806188 
L 285.662479 202.381669 
L 285.678618 202.466573 
L 285.743171 202.296765 
L 285.759309 202.296765 
L 285.823862 202.211861 
L 286.001384 201.872246 
L 286.082075 201.95715 
L 286.114352 201.872246 
L 286.146628 201.787342 
L 286.308011 201.447726 
L 286.453256 201.617534 
L 286.517809 201.53263 
L 286.550086 201.447726 
L 286.614639 201.617534 
L 286.630777 201.53263 
L 286.969681 201.447726 
L 287.001958 201.362823 
L 287.082649 201.447726 
L 287.486107 201.362823 
L 287.631352 201.193015 
L 287.776596 201.108111 
L 288.083224 200.089265 
L 288.341436 200.004361 
L 288.486681 199.664745 
L 288.502819 199.749649 
L 288.535096 199.834553 
L 288.567373 199.919457 
L 288.631926 199.749649 
L 288.728756 199.664745 
L 288.954692 199.070418 
L 289.003107 199.155322 
L 289.16449 199.494937 
L 289.212904 199.410034 
L 289.261319 199.579841 
L 289.600224 199.494937 
L 289.745468 198.985514 
L 289.793883 198.90061 
L 289.922989 198.815707 
L 289.987543 198.730803 
L 290.342585 197.372341 
L 290.358723 197.457245 
L 290.391 197.287437 
L 290.455553 197.372341 
L 290.568521 197.202533 
L 290.58466 197.287437 
L 290.681489 197.202533 
L 290.859011 196.862918 
L 290.907425 196.778014 
L 291.068808 196.523302 
L 291.133362 196.438398 
L 291.375436 195.759167 
L 291.423851 195.674263 
L 292.053244 191.853589 
L 292.101659 188.881954 
L 292.166212 71.375001 
L 292.230766 123.16636 
L 292.408287 200.004361 
L 292.553532 200.683592 
L 292.634223 200.768496 
L 293.392723 204.16465 
L 293.424999 204.249554 
L 293.812319 205.69292 
L 293.876872 205.777824 
L 294.118946 206.457055 
L 294.248053 206.541959 
L 294.377159 206.711766 
L 294.506265 206.626862 
L 294.667648 206.711766 
L 294.829031 206.966478 
L 294.877446 207.051382 
L 295.006552 207.136286 
L 295.11952 207.221189 
L 295.21635 207.306093 
L 295.232489 207.221189 
L 295.490701 207.136286 
L 295.652084 206.881574 
L 295.700499 206.79667 
L 295.87802 206.457055 
L 295.990988 206.372151 
L 296.152371 206.117439 
L 296.216925 206.032535 
L 296.394446 205.69292 
L 296.555829 205.608016 
L 296.571967 205.523112 
L 296.652659 205.608016 
L 296.862456 206.117439 
L 297.29819 206.032535 
L 297.475712 205.69292 
L 297.669371 205.608016 
L 297.879169 205.098593 
L 297.911446 205.013689 
L 298.072828 204.758977 
L 298.121243 204.674073 
L 298.282626 204.419362 
L 298.34718 204.334458 
L 298.556977 203.825035 
L 298.686084 203.740131 
L 298.976573 202.806188 
L 299.057265 202.721284 
L 299.299339 202.042054 
L 299.912594 201.95715 
L 300.090115 201.617534 
L 300.380605 201.53263 
L 300.509711 201.447726 
L 300.606541 201.362823 
L 300.703371 201.277919 
L 300.719509 201.362823 
L 300.8002 201.277919 
L 300.913168 201.193015 
L 300.945445 201.277919 
L 300.977722 201.108111 
L 301.009998 201.108111 
L 301.042275 201.108111 
L 301.171381 200.768496 
L 301.268211 200.683592 
L 301.413456 200.513784 
L 301.478009 200.598688 
L 301.510285 200.513784 
L 301.639392 200.343976 
L 301.703945 200.513784 
L 301.768498 200.42888 
L 301.816913 200.513784 
L 301.946019 200.598688 
L 302.139679 200.683592 
L 302.284924 200.938303 
L 302.397892 200.853399 
L 302.51086 200.938303 
L 302.672243 200.513784 
L 302.688381 200.598688 
L 302.849764 200.513784 
L 303.043423 200.089265 
L 303.091838 200.004361 
L 303.285498 199.579841 
L 303.333913 199.494937 
L 303.511434 199.155322 
L 303.608264 199.070418 
L 303.769647 198.815707 
L 303.963306 198.730803 
L 304.092413 198.391187 
L 304.156966 198.306283 
L 304.30221 197.966668 
L 304.318349 198.051572 
L 304.479732 197.966668 
L 304.608838 197.627052 
L 304.641115 197.711956 
L 304.721806 197.711956 
L 304.818636 197.372341 
L 304.850912 197.457245 
L 304.899327 197.457245 
L 305.06071 196.69311 
L 305.109125 196.778014 
L 305.141402 196.523302 
L 305.15754 196.608206 
L 305.189817 196.523302 
L 305.399615 196.013879 
L 305.464168 195.928975 
L 305.81921 194.655417 
L 305.835348 194.655417 
L 306.093561 192.95734 
L 306.125838 192.872436 
L 306.335636 189.985704 
L 306.351774 188.966858 
L 306.416327 71.79952 
L 306.497019 135.647229 
L 306.658402 199.579841 
L 306.739093 200.259072 
L 306.787508 200.089265 
L 306.965029 199.749649 
L 307.207104 199.834553 
L 307.836497 202.551477 
L 307.868774 202.636381 
L 308.062433 203.0609 
L 308.110848 203.145804 
L 308.304508 204.079746 
L 308.482029 204.419362 
L 308.788657 204.334458 
L 308.885486 204.249554 
L 308.901625 204.334458 
L 309.095284 204.419362 
L 309.22439 204.58917 
L 309.353497 204.504266 
L 309.466465 204.58917 
L 309.579433 204.674073 
L 309.740816 204.419362 
L 310.111997 204.504266 
L 310.257241 204.674073 
L 310.434763 204.58917 
L 310.596146 204.334458 
L 310.967326 204.249554 
L 311.112571 204.079746 
L 311.160986 203.994842 
L 311.419199 203.230708 
L 311.548305 203.145804 
L 311.725826 202.806188 
L 311.919486 202.721284 
L 312.048592 202.636381 
L 312.306805 202.551477 
L 312.484326 202.211861 
L 312.532741 202.126957 
L 312.710262 201.787342 
L 312.903922 201.702438 
L 313.065305 201.447726 
L 313.178273 201.362823 
L 313.323517 201.193015 
L 313.67856 201.108111 
L 313.743113 201.193015 
L 313.856081 200.768496 
L 314.162709 200.683592 
L 314.275677 200.598688 
L 314.404783 200.683592 
L 314.646858 200.004361 
L 314.743687 199.919457 
L 314.856655 199.664745 
L 314.888932 199.749649 
L 314.985762 199.664745 
L 315.19556 199.155322 
L 315.260113 199.070418 
L 315.437634 198.730803 
L 315.631294 198.645899 
L 315.776538 198.476091 
L 315.905645 198.391187 
L 315.937921 198.306283 
L 315.986336 198.476091 
L 316.228411 200.004361 
L 316.260687 200.089265 
L 316.42207 200.683592 
L 316.631868 201.277919 
L 316.777113 201.108111 
L 317.116017 201.023207 
L 317.2774 200.768496 
L 317.422644 200.938303 
L 317.713134 200.853399 
L 317.84224 200.768496 
L 317.874517 200.683592 
L 318.229559 199.410034 
L 318.310251 199.32513 
L 318.826676 197.202533 
L 318.891229 197.117629 
L 319.213995 196.013879 
L 319.310825 196.013879 
L 319.472208 195.419552 
L 319.633591 194.06109 
L 319.859527 190.580031 
L 319.891804 133.439728 
L 319.92408 72.903271 
L 319.988633 113.0628 
L 320.166155 197.542149 
L 320.246846 198.306283 
L 320.295261 198.051572 
L 320.359814 198.136476 
L 320.569612 198.645899 
L 320.58575 198.560995 
L 320.618027 198.730803 
L 320.666442 198.730803 
L 320.843963 199.070418 
L 320.892378 199.155322 
L 321.311974 200.768496 
L 321.360388 200.853399 
L 321.554048 201.277919 
L 321.699293 201.362823 
L 321.844537 201.53263 
L 321.941367 201.617534 
L 322.118888 201.95715 
L 322.29641 202.042054 
L 322.441654 202.296765 
L 322.473931 202.211861 
L 322.538484 202.296765 
L 322.699867 202.551477 
L 322.716005 202.466573 
L 322.780558 202.636381 
L 323.022633 203.315612 
L 323.652026 203.230708 
L 323.764994 203.0609 
L 323.781133 203.145804 
L 323.877963 203.0609 
L 324.023207 202.721284 
L 324.039345 202.806188 
L 324.152314 202.721284 
L 324.168452 202.636381 
L 324.233005 202.891092 
L 324.249143 202.806188 
L 324.265282 202.891092 
L 324.329835 202.721284 
L 324.345973 202.721284 
L 324.475079 202.636381 
L 324.701016 202.721284 
L 324.830122 202.891092 
L 324.894675 202.806188 
L 324.94309 202.891092 
L 325.685452 202.806188 
L 325.846835 202.551477 
L 325.911388 202.466573 
L 326.040494 202.381669 
L 326.185739 202.296765 
L 326.379398 201.872246 
L 326.395537 201.872246 
L 326.540781 201.447726 
L 326.589196 201.362823 
L 326.798994 200.853399 
L 326.9281 200.768496 
L 327.073345 200.513784 
L 327.089483 200.598688 
L 327.12176 200.42888 
L 327.154036 200.42888 
L 327.299281 200.259072 
L 327.412249 200.343976 
L 327.525217 200.259072 
L 327.573632 200.343976 
L 327.605909 200.174168 
L 327.622047 200.259072 
L 327.751153 200.174168 
L 327.78343 200.089265 
L 327.960951 199.749649 
L 328.186887 199.664745 
L 328.428962 198.985514 
L 328.493515 198.985514 
L 328.622621 198.476091 
L 328.63876 198.560995 
L 328.961525 198.645899 
L 328.977664 198.730803 
L 329.00994 198.560995 
L 329.058355 198.560995 
L 329.187462 198.476091 
L 329.252015 198.391187 
L 329.461813 197.881764 
L 329.558642 197.79686 
L 329.687749 197.711956 
L 329.800717 197.79686 
L 329.9621 197.287437 
L 329.978238 197.372341 
L 330.091206 197.711956 
L 330.123483 197.542149 
L 330.204174 197.457245 
L 330.397834 196.947821 
L 330.43011 197.032725 
L 330.478525 196.862918 
L 330.494664 196.862918 
L 330.688323 196.862918 
L 330.833568 196.438398 
L 330.930398 196.438398 
L 331.124057 215.881384 
L 331.495238 229.635811 
L 332.076216 242.031775 
L 332.786301 251.541008 
L 333.528663 258.248414 
L 335.158631 266.229378 
L 335.174769 266.229378 
L 335.336152 266.908608 
L 335.35229 266.908608 
L 335.529812 267.672743 
L 335.997822 269.540628 
L 336.046237 269.625532 
L 336.272173 270.219859 
L 336.30445 270.304763 
L 336.530386 270.89909 
L 336.675631 270.983994 
L 336.86929 271.408513 
L 336.917705 271.493417 
L 337.079088 271.917937 
L 337.095226 271.833033 
L 337.111365 271.833033 
L 337.256609 272.257552 
L 337.337301 272.342456 
L 337.53096 272.766975 
L 337.660067 272.851879 
L 337.853726 273.276399 
L 338.015109 273.361302 
L 338.19263 273.700918 
L 338.321737 273.785822 
L 338.466981 273.955629 
L 338.579949 274.040533 
L 338.709056 274.125437 
L 339.306173 274.040533 
L 339.386864 273.955629 
L 339.419141 274.040533 
L 340.758619 273.955629 
L 340.920002 273.700918 
L 341.065247 273.616014 
L 341.22663 273.361302 
L 341.371874 273.276399 
L 341.517119 273.106591 
L 341.662364 273.021687 
L 341.69464 272.936783 
L 341.775332 273.021687 
L 341.936715 272.936783 
L 342.065821 272.851879 
L 342.194928 272.936783 
L 342.630662 272.851879 
L 342.6468 272.766975 
L 342.679076 272.936783 
L 342.74363 272.851879 
L 343.11481 272.766975 
L 343.163225 272.682071 
L 343.227778 272.766975 
L 343.760342 272.682071 
L 343.792619 272.597168 
L 343.87331 272.682071 
L 343.97014 272.597168 
L 344.050831 272.512264 
L 344.083108 272.597168 
L 344.228353 272.512264 
L 344.357459 272.42736 
L 344.680225 272.342456 
L 344.696363 272.257552 
L 344.793193 272.342456 
L 344.922299 272.257552 
L 345.051406 272.172648 
L 345.083682 272.257552 
L 345.164374 272.172648 
L 345.600108 272.087744 
L 345.616246 272.002841 
L 345.713076 272.087744 
L 345.793767 272.002841 
L 345.922874 271.917937 
L 346.068118 271.833033 
L 346.181086 271.663225 
L 346.197225 271.748129 
L 346.261778 271.663225 
L 346.390884 271.578321 
L 346.568406 271.493417 
L 346.584544 271.408513 
L 346.681374 271.493417 
L 346.971863 271.408513 
L 347.117108 271.238706 
L 347.940161 271.32361 
L 347.972437 271.408513 
L 348.053129 271.32361 
L 349.666958 271.408513 
L 349.683097 271.493417 
L 349.779926 271.408513 
L 351.16782 271.493417 
L 351.264649 271.578321 
L 351.280788 271.493417 
L 353.362628 271.408513 
L 353.394904 271.32361 
L 353.443319 271.493417 
L 353.475596 271.408513 
L 354.702106 271.32361 
L 354.815074 271.238706 
L 354.831213 271.32361 
L 354.879628 271.153802 
L 354.928042 271.238706 
L 355.024872 271.153802 
L 355.041011 271.238706 
L 355.121702 271.238706 
L 355.13784 271.068898 
L 355.3315 233.7961 
L 355.79951 196.013879 
L 355.89634 182.004741 
L 355.944755 68.912789 
L 356.009308 125.458765 
L 356.154553 194.315802 
L 356.170691 194.145994 
L 356.364351 187.778204 
L 356.800085 176.316182 
L 356.864638 71.459905 
L 356.945329 124.270111 
L 357.122851 187.778204 
L 357.284234 189.306473 
L 357.494031 189.815897 
L 357.542446 189.730993 
L 357.590861 189.815897 
L 357.703829 190.155512 
L 357.719968 190.070608 
L 357.865212 189.985704 
L 358.187978 188.881954 
L 358.236393 188.79705 
L 358.768957 185.400895 
L 359.043308 181.410414 
L 359.172414 175.467143 
L 359.236967 68.06375 
L 359.30152 110.685492 
L 359.49518 188.032915 
L 359.672701 190.495128 
L 359.898637 191.259262 
L 359.914776 191.174358 
L 360.092297 191.259262 
L 360.140712 191.344166 
L 360.172988 191.174358 
L 360.189127 191.174358 
L 360.25368 191.089455 
L 360.528031 190.240416 
L 360.640999 190.155512 
L 360.834658 189.476281 
L 360.866935 189.561185 
L 360.947627 189.476281 
L 361.092871 189.051762 
L 361.125148 189.136666 
L 361.173563 189.051762 
L 361.383361 188.542339 
L 361.447914 188.457435 
L 361.722265 187.608396 
L 361.786818 187.523492 
L 362.028892 186.844261 
L 362.125722 186.759357 
L 362.43235 185.740511 
L 362.496903 185.655607 
L 363.303818 182.004741 
L 363.352233 182.089645 
L 363.384509 181.834933 
L 363.56203 177.58974 
L 363.626584 66.96 
L 363.707275 120.95886 
L 363.884796 186.929165 
L 364.046179 189.136666 
L 364.143009 189.22157 
L 364.304392 189.476281 
L 364.336669 189.561185 
L 364.352807 189.646089 
L 364.433498 189.561185 
L 364.449637 189.476281 
L 364.530328 189.646089 
L 364.836956 189.730993 
L 364.853094 189.815897 
L 364.885371 189.646089 
L 364.917647 189.646089 
L 365.304966 188.202723 
L 365.595456 188.117819 
L 366.257126 185.231088 
L 366.321679 185.315992 
L 366.370094 185.485799 
L 366.418509 185.231088 
L 366.773551 183.95753 
L 366.805828 184.042434 
L 366.838104 183.787722 
L 366.967211 183.448107 
L 366.999487 183.53301 
L 367.015626 183.617914 
L 367.06404 183.448107 
L 367.080179 183.448107 
L 367.225423 183.278299 
L 367.273838 183.193395 
L 367.45136 182.42926 
L 367.628881 180.90099 
L 367.854817 179.542529 
L 367.887093 179.457625 
L 367.967785 177.929355 
L 368.000062 171.901181 
L 368.064615 68.148654 
L 368.129168 108.732703 
L 368.338966 186.080126 
L 368.516487 188.032915 
L 368.694008 188.457435 
L 368.806976 188.372531 
L 368.952221 188.542339 
L 369.000636 188.372531 
L 369.081327 188.457435 
L 369.194295 188.627242 
L 369.210434 188.542339 
L 369.24271 188.542339 
L 369.323402 188.372531 
L 369.355678 188.457435 
L 369.387955 188.712146 
L 369.484785 188.542339 
L 369.581614 188.457435 
L 369.839827 187.6933 
L 369.952795 187.608396 
L 370.501497 185.315992 
L 370.533774 185.231088 
L 370.695157 184.466953 
L 370.808125 184.551857 
L 371.114753 183.53301 
L 371.163167 183.448107 
L 371.308412 183.193395 
L 371.32455 183.278299 
L 371.389104 183.023587 
L 371.405242 183.108491 
L 371.534348 183.193395 
L 371.679593 183.617914 
L 371.744146 183.448107 
L 371.808699 183.53301 
L 371.857114 183.448107 
L 371.970082 183.193395 
L 372.002359 183.278299 
L 372.08305 183.193395 
L 372.551061 181.240606 
L 372.567199 181.32551 
L 372.615614 181.070798 
L 372.825412 179.542529 
L 372.922242 175.976566 
L 372.986795 67.639231 
L 373.067486 113.826935 
L 373.261146 184.127337 
L 373.454805 185.995223 
L 373.69688 186.674453 
L 373.858263 186.58955 
L 373.955092 186.419742 
L 373.971231 186.504646 
L 374.051922 186.674453 
L 374.084199 186.58955 
L 374.374688 185.655607 
L 374.45538 185.570703 
L 374.616763 185.231088 
L 374.713592 185.315992 
L 374.729731 185.231088 
L 374.842699 185.146184 
L 375.068635 184.551857 
L 375.100911 184.636761 
L 375.197741 184.806568 
L 375.230018 184.721665 
L 375.262294 184.636761 
L 375.617337 183.363203 
L 375.665752 183.278299 
L 375.827135 182.599068 
L 375.859411 182.683972 
L 375.891688 182.768876 
L 375.940103 182.514164 
L 376.149901 181.919837 
L 376.182177 182.004741 
L 376.262869 181.919837 
L 376.295145 181.834933 
L 376.698603 180.306663 
L 376.779294 180.391567 
L 376.795432 180.306663 
L 377.118198 178.014259 
L 377.182752 176.231278 
L 377.215028 145.411174 
L 377.263443 68.318462 
L 377.327996 103.044144 
L 377.537794 182.089645 
L 377.683039 184.297145 
L 377.699177 184.212241 
L 377.95739 184.976376 
L 378.054219 185.06128 
L 378.215602 185.315992 
L 378.393124 185.231088 
L 378.538368 185.06128 
L 378.586783 184.976376 
L 378.877273 184.042434 
L 378.941826 183.95753 
L 378.990241 183.872626 
L 379.022517 184.042434 
L 379.038655 184.042434 
L 379.167762 183.95753 
L 379.474389 182.938683 
L 379.522804 182.853779 
L 379.668049 182.683972 
L 379.74874 182.599068 
L 379.990815 181.919837 
L 380.023091 181.834933 
L 380.216751 180.731183 
L 380.232889 180.816087 
L 380.297442 180.561375 
L 380.426549 180.476471 
L 380.491102 180.561375 
L 380.571794 180.731183 
L 380.620208 180.646279 
L 380.684762 180.561375 
L 380.846145 180.22176 
L 380.862283 180.306663 
L 380.910698 179.967048 
L 380.959113 179.882144 
L 381.394847 176.995413 
L 381.540091 173.769066 
L 381.572368 140.571653 
L 381.620783 67.978846 
L 381.685336 102.195105 
L 381.911272 183.193395 
L 382.104932 185.146184 
L 382.185623 185.231088 
L 382.395421 185.740511 
L 382.459974 185.825415 
L 382.605219 185.995223 
L 382.702048 185.910319 
L 382.944123 185.231088 
L 383.121644 185.315992 
L 383.234612 185.655607 
L 383.283027 185.570703 
L 383.379857 185.655607 
L 383.395995 185.740511 
L 383.44441 185.570703 
L 383.460548 185.570703 
L 383.670346 185.06128 
L 383.702623 184.976376 
L 383.912421 184.466953 
L 383.944697 184.382049 
L 384.089942 184.042434 
L 384.10608 184.127337 
L 384.154495 184.042434 
L 384.348155 183.617914 
L 384.380431 183.53301 
L 384.477261 183.278299 
L 384.525676 183.363203 
L 384.735474 183.278299 
L 384.896857 182.853779 
L 384.912995 182.938683 
L 384.993686 182.853779 
L 385.042101 182.768876 
L 385.106654 182.853779 
L 385.171208 182.768876 
L 385.300314 182.42926 
L 385.332591 182.514164 
L 385.364867 182.683972 
L 385.42942 182.514164 
L 386.123367 178.353874 
L 386.317027 173.599258 
L 386.38158 69.761828 
L 386.47841 120.109821 
L 386.672069 181.750029 
L 386.833452 183.363203 
L 386.84959 183.278299 
L 386.898005 183.617914 
L 387.107803 184.297145 
L 387.123941 184.212241 
L 387.172356 184.297145 
L 387.349877 184.636761 
L 387.527399 184.297145 
L 387.688782 184.212241 
L 387.882441 183.787722 
L 387.979271 183.787722 
L 388.140654 184.466953 
L 388.318175 184.127337 
L 388.415005 184.212241 
L 388.431143 184.127337 
L 388.527973 184.042434 
L 388.657079 183.95753 
L 388.689356 184.042434 
L 388.737771 183.872626 
L 388.753909 183.872626 
L 389.012122 183.108491 
L 389.076675 183.108491 
L 389.238058 182.514164 
L 390.077249 177.504836 
L 390.319324 172.495508 
L 390.3516 131.147324 
L 390.400015 69.337308 
L 390.464568 103.553567 
L 390.674366 179.882144 
L 390.835749 182.004741 
L 390.868026 182.089645 
L 391.142377 182.938683 
L 391.158515 182.938683 
L 391.174653 182.768876 
L 391.271483 182.853779 
L 391.352175 182.683972 
L 391.384451 182.853779 
L 391.497419 182.768876 
L 391.513558 182.683972 
L 391.594249 182.853779 
L 391.739494 182.768876 
L 391.96543 182.174548 
L 392.078398 182.089645 
L 392.417302 180.90099 
L 392.449579 180.90099 
L 392.610962 180.22176 
L 392.659377 180.136856 
L 392.869174 179.033105 
L 392.885313 179.033105 
L 393.175802 177.080316 
L 393.627674 174.108681 
L 393.724504 171.476661 
L 393.756781 139.467903 
L 393.805196 69.931635 
L 393.869749 97.610296 
L 394.111823 179.202913 
L 394.305483 181.834933 
L 394.499142 182.853779 
L 394.547557 182.938683 
L 394.757355 183.448107 
L 394.967153 183.53301 
L 395.015568 183.702818 
L 395.080121 183.617914 
L 395.386749 182.599068 
L 395.419025 182.514164 
L 395.56427 182.344356 
L 395.612685 182.344356 
L 395.757929 181.919837 
L 395.806344 181.834933 
L 395.967727 181.32551 
L 396.000004 181.410414 
L 396.096833 181.32551 
L 396.290493 180.391567 
L 396.32277 180.306663 
L 396.726227 178.778394 
L 396.758504 178.69349 
L 397.048993 177.419932 
L 397.097408 177.504836 
L 397.129684 177.58974 
L 397.161961 177.419932 
L 397.517003 173.004931 
L 397.565418 166.976756 
L 397.629972 70.186347 
L 397.710663 107.119529 
L 397.936599 178.608586 
L 398.130259 181.240606 
L 398.162535 181.32551 
L 398.501439 182.514164 
L 398.582131 182.599068 
L 398.727376 182.768876 
L 398.904897 182.683972 
L 399.050142 182.514164 
L 399.211524 182.42926 
L 399.453599 181.750029 
L 399.582705 181.665125 
L 399.744088 181.32551 
L 399.857056 181.410414 
L 399.889333 181.32551 
L 399.953886 181.495318 
L 400.018439 181.410414 
L 400.438035 179.79724 
L 400.470311 179.712336 
L 401.196535 175.382239 
L 401.406333 170.967238 
L 401.487024 70.186347 
L 401.583854 119.175879 
L 401.777513 177.080316 
L 401.955035 179.79724 
L 402.229386 181.580221 
L 402.358492 181.834933 
L 402.37463 181.750029 
L 402.439183 181.665125 
L 402.519875 181.580221 
L 402.552152 181.665125 
L 402.842641 181.580221 
L 403.068577 180.985894 
L 403.100854 180.90099 
L 403.294513 180.476471 
L 403.342928 180.391567 
L 403.455896 180.22176 
L 403.472034 180.306663 
L 403.923907 180.22176 
L 404.053013 180.136856 
L 404.165981 180.22176 
L 404.214396 180.306663 
L 404.278949 180.22176 
L 404.359641 180.306663 
L 404.424194 180.391567 
L 404.472609 180.306663 
L 404.521024 180.22176 
L 404.730821 179.372721 
L 404.779236 179.457625 
L 404.843789 179.542529 
L 404.892204 179.457625 
L 405.102002 179.372721 
L 405.344077 178.69349 
L 405.392492 178.608586 
L 405.50546 178.099163 
L 405.537736 178.184067 
L 405.602289 178.099163 
L 406.005747 175.382239 
L 406.215545 172.155892 
L 406.296236 167.316372 
L 406.376928 71.290097 
L 406.441481 104.402606 
L 406.667417 177.844451 
L 406.861076 180.90099 
L 407.280672 182.514164 
L 407.442055 182.42926 
L 407.571161 182.089645 
L 407.813236 182.174548 
L 407.893927 182.259452 
L 407.926204 182.174548 
L 408.119863 182.259452 
L 408.200555 182.42926 
L 408.24897 182.344356 
L 408.3458 182.259452 
L 408.523321 181.919837 
L 408.604012 181.919837 
L 408.797672 180.985894 
L 409.104299 179.967048 
L 409.152714 179.882144 
L 409.749831 177.335028 
L 409.798246 177.250124 
L 409.927352 176.655797 
L 409.975767 176.910509 
L 410.395363 176.825605 
L 410.944065 173.344546 
L 411.105448 166.297525 
L 411.186139 71.290097 
L 411.250693 102.95924 
L 411.476629 177.674644 
L 411.65415 180.646279 
L 411.896224 182.089645 
L 412.057607 182.344356 
L 412.138299 182.259452 
L 412.267405 182.089645 
L 412.299682 182.174548 
L 412.348097 182.004741 
L 412.364235 182.004741 
L 412.525618 181.919837 
L 412.590171 181.834933 
L 412.622448 182.004741 
L 412.703139 182.344356 
L 412.767692 182.259452 
L 412.97749 181.750029 
L 413.058182 181.665125 
L 413.203426 181.495318 
L 413.300256 181.410414 
L 413.477777 180.731183 
L 413.510054 180.90099 
L 413.752128 180.816087 
L 414.252416 178.778394 
L 414.316969 178.69349 
L 414.462213 178.523682 
L 414.510628 178.438778 
L 414.801118 177.504836 
L 414.833394 177.419932 
L 415.382096 170.627622 
L 415.414373 162.22214 
L 415.478926 71.035386 
L 415.543479 98.968758 
L 415.785554 177.844451 
L 415.979213 180.561375 
L 416.189011 181.665125 
L 416.414947 182.259452 
L 416.544053 182.174548 
L 416.76999 182.174548 
L 416.931373 181.580221 
L 416.963649 181.665125 
L 417.012064 181.410414 
L 417.060479 181.32551 
L 417.286415 180.731183 
L 417.399383 180.646279 
L 417.818979 179.033105 
L 417.851255 178.948202 
L 418.109468 178.184067 
L 418.238574 178.099163 
L 418.56134 176.995413 
L 418.577479 177.080316 
L 418.625894 176.910509 
L 418.642032 176.910509 
L 419.126181 173.769066 
L 419.335979 169.863488 
L 419.368255 153.986464 
L 419.432808 71.205193 
L 419.497362 99.817797 
L 419.787851 201.193015 
L 420.046064 221.400135 
L 420.433383 236.258312 
L 420.83684 245.512834 
L 421.224159 251.371201 
L 421.627616 256.040913 
L 421.788999 257.484279 
L 422.224733 260.965338 
L 422.757297 264.361492 
L 422.950957 265.295435 
L 423.67718 268.521782 
L 423.709457 268.606686 
L 424.145191 270.304763 
L 424.177467 270.389667 
L 424.451818 271.238706 
L 424.500233 271.32361 
L 424.758446 272.087744 
L 424.855276 272.172648 
L 425.129627 273.021687 
L 425.145765 272.936783 
L 425.178041 273.106591 
L 425.210318 273.106591 
L 425.436254 273.700918 
L 425.549222 273.785822 
L 425.726743 274.125437 
L 425.839712 274.210341 
L 426.017233 274.549957 
L 426.097924 274.63486 
L 426.259307 274.889572 
L 426.32386 274.974476 
L 426.501382 275.314091 
L 426.51752 275.229187 
L 426.582073 275.398995 
L 426.598211 275.398995 
L 426.727318 275.483899 
L 426.824148 275.568803 
L 426.98553 275.823515 
L 427.033945 275.908418 
L 427.163052 275.993322 
L 427.243743 276.078226 
L 427.388988 276.332938 
L 427.421264 276.248034 
L 427.501956 276.332938 
L 428.131349 276.417842 
L 428.276594 276.587649 
L 429.148062 276.672553 
L 429.1642 276.757457 
L 429.244892 276.672553 
L 429.341722 276.587649 
L 429.35786 276.672553 
L 429.729041 276.757457 
L 429.793594 276.842361 
L 429.842009 276.757457 
L 430.697338 276.672553 
L 430.826445 276.587649 
L 431.310594 276.502746 
L 431.375147 276.417842 
L 431.423562 276.502746 
L 431.4397 276.587649 
L 431.520391 276.502746 
L 431.649498 276.417842 
L 432.036817 276.332938 
L 432.165923 276.248034 
L 432.633934 276.16313 
L 432.76304 276.078226 
L 433.392434 275.993322 
L 433.52154 275.908418 
L 433.795891 275.823515 
L 433.860444 275.653707 
L 433.908859 275.738611 
L 433.989551 275.823515 
L 434.021827 275.738611 
L 434.74805 275.653707 
L 434.877157 275.568803 
L 435.232199 275.483899 
L 435.377444 275.314091 
L 435.458135 275.398995 
L 435.490412 275.314091 
L 435.780901 275.314091 
L 435.780901 275.314091 
" style="fill:none;stroke:#1f77b4;stroke-linecap:square;stroke-width:1.5;"/>
   </g>
   <g id="line2d_15">
    <path clip-path="url(#p3e4d4e7442)" d="M 80.754545 267.655762 
L 81.287109 266.299474 
L 82.739556 263.430403 
L 83.07846 262.908753 
L 83.449641 262.369716 
L 85.886523 259.900575 
L 86.047906 259.796245 
L 86.451364 259.518032 
L 86.628885 259.413703 
L 86.951651 259.222431 
L 87.161449 259.118101 
L 87.451938 258.961606 
L 87.694012 258.857277 
L 87.952225 258.735558 
L 88.210438 258.631229 
L 88.452512 258.526899 
L 88.775278 258.422569 
L 88.920523 258.144356 
L 89.759714 247.137554 
L 90.711874 237.174051 
L 91.534927 230.270891 
L 92.519363 223.680721 
L 93.213309 219.907457 
L 93.955671 216.516737 
L 94.827139 213.247734 
L 96.037511 209.700518 
L 98.022521 205.683818 
L 98.393702 205.127392 
L 98.764883 204.588354 
L 101.572946 201.719283 
L 101.734329 201.614953 
L 102.186201 201.284575 
L 102.363723 201.180245 
L 102.734904 200.936809 
L 102.912425 200.832479 
L 103.235191 200.641208 
L 103.444988 200.536878 
L 103.751616 200.362995 
L 103.993691 200.258665 
L 104.268042 200.119558 
L 104.510116 200.015228 
L 104.768329 199.89351 
L 105.026541 199.78918 
L 105.268616 199.68485 
L 105.542967 199.580521 
L 105.768903 199.493579 
L 106.059392 199.389249 
L 106.285328 199.302308 
L 106.624233 199.197978 
L 106.850169 199.111036 
L 107.22135 199.006706 
L 107.431147 198.937153 
L 107.802328 198.832823 
L 108.012126 198.76327 
L 108.431722 198.65894 
L 108.64152 198.589387 
L 109.093392 198.485057 
L 109.287051 198.432892 
L 109.738924 198.328562 
L 109.932583 198.276397 
L 110.416732 198.172067 
L 110.610392 198.119902 
L 111.126817 198.015573 
L 111.320477 197.963408 
L 111.901455 197.859078 
L 112.095115 197.806913 
L 112.692232 197.702583 
L 112.869753 197.667806 
L 113.450732 197.563476 
L 113.628253 197.5287 
L 114.22537 197.42437 
L 114.402891 197.389593 
L 115.048423 197.285263 
L 115.225944 197.250487 
L 115.887614 197.146157 
L 116.065135 197.11138 
L 116.77522 197.00705 
L 116.952742 196.972274 
L 117.678965 196.867944 
L 117.856486 196.833167 
L 118.614986 196.728837 
L 118.792507 196.694061 
L 119.599422 196.589731 
L 119.776943 196.554954 
L 120.599996 196.450624 
L 120.777518 196.415848 
L 121.632847 196.311518 
L 121.810368 196.276741 
L 122.681836 196.172411 
L 122.859358 196.137635 
L 123.77924 196.033305 
L 123.956762 195.998528 
L 124.908921 195.894198 
L 125.086442 195.859422 
L 126.05474 195.755092 
L 126.232261 195.720315 
L 127.248974 195.615985 
L 127.426495 195.581209 
L 128.475484 195.476879 
L 128.653006 195.442102 
L 129.734271 195.337772 
L 129.911793 195.302996 
L 131.041473 195.198666 
L 131.218995 195.163889 
L 132.364813 195.059559 
L 132.526196 195.042171 
L 133.575186 194.937841 
L 133.736569 194.920453 
L 134.817834 194.816123 
L 134.979217 194.798735 
L 136.09276 194.694405 
L 136.254143 194.677017 
L 137.399962 194.572687 
L 137.561345 194.555298 
L 138.755578 194.450969 
L 138.916961 194.43358 
L 140.143472 194.32925 
L 140.304855 194.311862 
L 141.57978 194.207532 
L 141.741163 194.190144 
L 143.064503 194.085814 
L 143.225886 194.068426 
L 144.597641 193.964096 
L 144.759024 193.946707 
L 146.179194 193.842378 
L 146.340577 193.824989 
L 147.8253 193.720659 
L 147.986683 193.703271 
L 149.53596 193.598941 
L 149.697343 193.581553 
L 151.295034 193.477223 
L 151.456417 193.459835 
L 153.150938 193.355505 
L 153.312321 193.338117 
L 153.457565 193.320728 
L 154.216065 203.127736 
L 155.152086 212.899968 
L 156.459288 223.211237 
L 157.572831 229.697077 
L 159.428735 237.208828 
L 160.397032 239.97357 
L 162.349766 243.920716 
L 162.704808 244.459754 
L 163.059851 244.964015 
L 165.754946 247.711369 
L 165.916329 247.815698 
L 166.352063 248.128688 
L 166.529584 248.233018 
L 166.884627 248.459066 
L 167.078286 248.563396 
L 167.401052 248.754667 
L 167.61085 248.858997 
L 167.885201 248.998104 
L 168.111137 249.102433 
L 168.385488 249.24154 
L 168.659839 249.34587 
L 168.918052 249.467588 
L 169.208541 249.571918 
L 169.434478 249.658859 
L 169.515169 249.693636 
L 169.531307 267.655762 
L 169.628137 267.394938 
L 171.790669 262.995695 
L 172.274817 262.317551 
L 172.581445 261.917619 
L 174.453487 260.05707 
L 174.598732 259.95274 
L 175.018328 259.657139 
L 175.179711 259.552809 
L 175.518615 259.344149 
L 175.712274 259.239819 
L 176.018902 259.065936 
L 176.244838 258.961606 
L 176.519189 258.8225 
L 176.777402 258.71817 
L 177.019476 258.61384 
L 177.309966 258.50951 
L 177.535902 258.422569 
L 177.681146 258.370404 
L 178.649444 241.747177 
L 179.650018 228.323401 
L 180.618316 218.168626 
L 181.441369 211.265466 
L 182.441943 204.553578 
L 183.13589 200.762926 
L 184.959518 193.390281 
L 186.008507 190.364715 
L 188.929538 183.809322 
L 189.139336 182.470421 
L 189.203889 181.322793 
L 189.316857 212.500036 
L 189.413687 212.395707 
L 190.688612 209.909178 
L 190.946825 209.47447 
L 191.479389 208.587666 
L 191.834431 208.048629 
L 192.22175 207.474814 
L 192.738176 206.761893 
L 193.060942 206.327186 
L 194.142207 205.005674 
L 194.416558 204.675296 
L 196.934133 202.119214 
L 197.063239 202.014884 
L 197.950845 201.215022 
L 198.079951 201.110692 
L 198.75776 200.536878 
L 198.903005 200.432548 
L 199.51626 199.928287 
L 199.661504 199.823957 
L 200.210206 199.389249 
L 200.355451 199.284919 
L 200.8396 198.919765 
L 200.984845 198.815435 
L 201.452855 198.467669 
L 201.614238 198.363339 
L 202.06611 198.032961 
L 202.227493 197.928631 
L 202.663227 197.615641 
L 202.82461 197.511311 
L 203.228068 197.233098 
L 203.389451 197.128769 
L 203.792908 196.850556 
L 203.970429 196.746226 
L 204.357748 196.485401 
L 204.53527 196.381071 
L 204.922589 196.120246 
L 205.10011 196.015917 
L 205.471291 195.77248 
L 205.648812 195.66815 
L 206.003854 195.442102 
L 206.181376 195.337772 
L 206.536418 195.111724 
L 206.730078 195.007395 
L 207.08512 194.781346 
L 207.27878 194.677017 
L 207.617684 194.468357 
L 207.811343 194.364027 
L 208.150248 194.155367 
L 208.343907 194.051037 
L 208.682811 193.842378 
L 208.892609 193.738048 
L 209.231513 193.529388 
L 209.441311 193.425058 
L 209.764077 193.233787 
L 209.957737 193.129457 
L 210.264364 192.955574 
L 210.474162 192.851244 
L 210.796928 192.659972 
L 211.006726 192.555643 
L 211.313354 192.381759 
L 211.523151 192.27743 
L 211.829779 192.103546 
L 212.039577 191.999217 
L 212.330066 191.842722 
L 212.539864 191.738392 
L 212.830353 191.581897 
L 213.040151 191.477567 
L 213.33064 191.321072 
L 213.556577 191.216742 
L 213.847066 191.060248 
L 214.056864 190.955918 
L 214.347353 190.799423 
L 214.573289 190.695093 
L 214.84764 190.555987 
L 215.073576 190.451657 
L 215.364066 190.295162 
L 215.590002 190.190832 
L 215.864353 190.051726 
L 216.090289 189.947396 
L 216.36464 189.808289 
L 216.590576 189.703959 
L 216.864927 189.564853 
L 217.090863 189.460523 
L 217.365214 189.321416 
L 217.607289 189.217087 
L 217.88164 189.07798 
L 218.107576 188.97365 
L 218.381927 188.834544 
L 218.624001 188.730214 
L 218.898352 188.591107 
L 219.124288 188.486777 
L 219.398639 188.347671 
L 219.640714 188.243341 
L 219.915065 188.104235 
L 220.141001 187.999905 
L 220.415352 187.860798 
L 220.657426 187.756468 
L 220.947916 187.599974 
L 221.173852 187.495644 
L 221.448203 187.356537 
L 221.658001 187.252207 
L 221.94849 187.095713 
L 222.158288 186.991383 
L 222.448777 186.834888 
L 222.642437 186.730558 
L 222.965203 186.539287 
L 223.158862 186.434957 
L 223.513905 186.208909 
L 223.691426 186.104579 
L 224.143298 185.774201 
L 224.288543 185.669871 
L 225.531192 184.174476 
L 225.805543 183.339837 
L 225.983064 181.861831 
L 226.01534 181.04458 
L 226.128309 212.500036 
L 226.273553 212.395707 
L 228.048766 210.639487 
L 228.161734 210.535157 
L 229.339829 209.422305 
L 229.468936 209.317975 
L 230.501787 208.361618 
L 230.630893 208.257288 
L 231.518499 207.457426 
L 231.647605 207.353096 
L 232.422244 206.674952 
L 232.55135 206.570622 
L 233.261435 205.962031 
L 233.390541 205.857701 
L 234.036073 205.318664 
L 234.16518 205.214334 
L 234.778435 204.710073 
L 234.923679 204.605743 
L 235.536935 204.101482 
L 235.682179 203.997152 
L 236.263158 203.527667 
L 236.408403 203.423338 
L 236.957105 202.98863 
L 237.102349 202.8843 
L 237.618775 202.484369 
L 237.764019 202.380039 
L 238.264307 201.997496 
L 238.409551 201.893166 
L 238.8937 201.528012 
L 239.055083 201.423682 
L 239.539232 201.058527 
L 239.684476 200.954197 
L 240.136349 200.623819 
L 240.297732 200.519489 
L 240.749604 200.189112 
L 240.910987 200.084782 
L 241.346721 199.771792 
L 241.508104 199.667462 
L 241.943838 199.354473 
L 242.105221 199.250143 
L 242.234327 199.163201 
L 243.186487 214.621411 
L 244.219337 227.540926 
L 245.219912 237.121886 
L 246.059103 243.416455 
L 247.140369 249.693636 
L 247.866592 252.997415 
L 248.657369 255.918652 
L 249.674081 258.839888 
L 251.271772 262.021949 
L 251.691368 262.63054 
L 252.014134 263.065248 
L 253.627964 264.647584 
L 253.789346 264.751914 
L 254.192804 265.030127 
L 254.386463 265.134457 
L 254.693091 265.30834 
L 254.919027 265.41267 
L 255.17724 265.534388 
L 255.467729 265.638718 
L 255.693665 265.72566 
L 256.03257 265.82999 
L 256.242367 265.899543 
L 256.726516 266.003873 
L 256.920176 266.056038 
L 257.678676 266.160368 
L 257.856197 266.195144 
L 258.291931 266.229921 
L 258.308069 267.655762 
L 258.404899 267.394938 
L 260.56743 262.995695 
L 261.051579 262.317551 
L 261.358207 261.917619 
L 263.230249 260.05707 
L 263.375494 259.95274 
L 263.79509 259.657139 
L 263.956472 259.552809 
L 264.295377 259.344149 
L 264.489036 259.239819 
L 264.795664 259.065936 
L 265.0216 258.961606 
L 265.295951 258.8225 
L 265.554164 258.71817 
L 265.796238 258.61384 
L 266.086727 258.50951 
L 266.312664 258.422569 
L 266.457908 258.370404 
L 267.393929 234.30498 
L 268.394504 214.134538 
L 269.249833 200.467325 
L 270.056748 189.964784 
L 270.70228 181.861831 
L 270.718418 181.340181 
L 270.831386 212.500036 
L 270.879801 212.500036 
L 272.138588 200.136947 
L 273.090748 192.88602 
L 274.720715 181.861831 
L 274.736854 181.427123 
L 274.849822 212.500036 
L 274.914375 212.413095 
L 275.705151 208.013852 
L 276.641172 203.579832 
L 277.89996 198.641552 
L 279.901108 192.538254 
L 280.627331 190.712481 
L 281.046927 189.721348 
L 283.209459 184.800455 
L 283.596778 183.183342 
L 283.725884 181.722724 
L 283.742022 181.288016 
L 283.85499 212.500036 
L 283.935682 212.413095 
L 284.435969 211.074195 
L 284.984671 209.665742 
L 286.162767 206.866223 
L 286.550086 205.979419 
L 289.083798 200.780314 
L 289.277458 200.41516 
L 290.148926 198.798047 
L 290.374862 198.398115 
L 291.084947 197.128769 
L 291.343159 196.694061 
L 291.956415 195.633374 
L 292.230766 195.181278 
L 292.763329 194.294474 
L 293.053819 193.824989 
L 293.537968 193.042515 
L 293.860733 192.538254 
L 294.328744 191.790557 
L 294.683787 191.251519 
L 295.11952 190.573375 
L 295.50684 189.999561 
L 295.926435 189.356193 
L 296.313754 188.782379 
L 296.717212 188.173788 
L 297.104531 187.599974 
L 297.556403 186.887053 
L 297.863031 186.40018 
L 299.057265 183.600662 
L 299.250924 182.035714 
L 299.283201 181.340181 
L 299.396169 212.500036 
L 299.492998 212.395707 
L 303.188668 204.692684 
L 303.382328 204.32753 
L 304.30221 202.606087 
L 304.528147 202.206156 
L 305.286646 200.832479 
L 305.528721 200.41516 
L 306.190391 199.250143 
L 306.448604 198.815435 
L 307.045721 197.789524 
L 307.33621 197.32004 
L 307.884912 196.398459 
L 308.175401 195.928975 
L 308.675688 195.111724 
L 308.998454 194.607463 
L 309.466465 193.859766 
L 309.805369 193.338117 
L 310.257241 192.625196 
L 310.628422 192.06877 
L 311.048018 191.425402 
L 311.419199 190.868976 
L 311.822656 190.260385 
L 312.226113 189.669183 
L 312.629571 189.060592 
L 313.049166 188.452001 
L 313.452624 187.84341 
L 313.856081 187.252207 
L 314.307953 186.539287 
L 314.582304 186.08719 
L 315.56674 183.72238 
L 315.7604 182.435645 
L 315.824953 181.218463 
L 315.937921 212.500036 
L 316.018613 212.413095 
L 319.585176 204.988286 
L 319.778836 204.623131 
L 320.714857 202.866912 
L 320.924654 202.484369 
L 321.683154 201.110692 
L 321.925229 200.693373 
L 322.586899 199.528356 
L 322.845112 199.093648 
L 323.442229 198.067737 
L 323.71658 197.615641 
L 324.265282 196.694061 
L 324.555771 196.224576 
L 325.056058 195.407326 
L 325.362686 194.920453 
L 325.830696 194.172756 
L 326.153462 193.668494 
L 326.605334 192.955574 
L 326.960377 192.416536 
L 327.379973 191.773168 
L 327.751153 191.216742 
L 328.154611 190.608152 
L 328.54193 190.034337 
L 328.945387 189.425746 
L 329.364983 188.817155 
L 329.752302 188.243341 
L 330.139621 187.669527 
L 330.559217 187.026159 
L 330.898121 186.50451 
L 331.011089 186.313238 
L 331.995525 209.857013 
L 333.028376 228.758108 
L 333.915982 241.31247 
L 335.077939 253.762501 
L 336.20762 262.560987 
L 337.224333 268.420848 
L 338.725194 274.402428 
L 339.532109 276.64552 
L 340.887726 279.305932 
L 341.388013 280.001464 
L 341.678502 280.366619 
L 342.711353 281.322976 
L 342.872736 281.427306 
L 343.227778 281.653354 
L 343.437576 281.757684 
L 343.711927 281.89679 
L 344.002417 282.00112 
L 344.212214 282.070673 
L 344.615672 282.175003 
L 344.809331 282.227168 
L 347.068693 282.227168 
L 347.181661 267.394938 
L 349.344192 262.995695 
L 349.828341 262.317551 
L 350.134969 261.917619 
L 352.007011 260.05707 
L 352.152256 259.95274 
L 352.571851 259.657139 
L 352.733234 259.552809 
L 353.072139 259.344149 
L 353.265798 259.239819 
L 353.572426 259.065936 
L 353.798362 258.961606 
L 354.072713 258.8225 
L 354.330926 258.71817 
L 354.573 258.61384 
L 354.863489 258.50951 
L 355.089425 258.422569 
L 355.23467 258.370404 
L 356.219106 208.34423 
L 356.8485 181.827054 
L 356.961468 212.500036 
L 357.009883 212.500036 
L 357.849074 181.913995 
L 357.962042 212.500036 
L 358.010457 212.500036 
L 359.027169 181.04458 
L 359.140138 212.500036 
L 359.172414 212.500036 
L 359.30152 209.144092 
L 360.415063 181.496676 
L 360.528031 212.500036 
L 360.576446 212.500036 
L 361.609297 191.581897 
L 362.14186 181.409734 
L 362.254828 212.500036 
L 362.303243 212.500036 
L 363.497477 193.790213 
L 364.368945 181.288016 
L 364.481913 212.500036 
L 364.530328 212.395707 
L 365.805253 197.337428 
L 366.918796 186.539287 
L 367.306115 182.27915 
L 367.338391 181.444511 
L 367.45136 212.500036 
L 367.499774 212.500036 
L 368.806976 200.902032 
L 371.017923 185.06128 
L 371.276135 182.713858 
L 371.340689 181.35757 
L 371.453657 212.500036 
L 371.502072 212.500036 
L 372.857688 203.110348 
L 374.536071 192.972962 
L 376.214454 183.374614 
L 376.34356 181.374958 
L 376.456528 212.500036 
L 376.521081 212.395707 
L 377.989666 203.614609 
L 381.185049 187.008771 
L 381.669198 184.435301 
L 381.911272 182.192208 
L 381.943549 181.444511 
L 382.056517 212.500036 
L 382.12107 212.413095 
L 383.121644 206.657564 
L 385.961984 191.96444 
L 387.059388 186.747946 
L 387.70492 182.766023 
L 387.785611 181.131521 
L 387.89858 212.500036 
L 387.946994 212.46526 
L 388.850739 207.335708 
L 391.513558 193.598941 
L 392.643238 188.243341 
L 393.643813 182.261762 
L 393.692228 181.04458 
L 393.805196 212.500036 
L 393.85361 212.46526 
L 394.725078 207.544368 
L 397.355621 193.981484 
L 398.485301 188.625884 
L 399.566567 182.296538 
L 399.614982 181.131521 
L 399.72795 212.500036 
L 399.776365 212.46526 
L 400.647833 207.544368 
L 403.22996 194.242309 
L 404.327364 189.025815 
L 405.50546 182.140044 
L 405.537736 181.35757 
L 405.650704 212.500036 
L 405.715257 212.413095 
L 406.570587 207.596532 
L 409.168853 194.207532 
L 410.266257 188.991039 
L 411.428214 182.296538 
L 411.476629 181.096745 
L 411.589597 212.500036 
L 411.638012 212.46526 
L 412.50948 207.544368 
L 415.091607 194.242309 
L 416.205149 188.956262 
L 417.367107 182.157432 
L 417.399383 181.409734 
L 417.512351 212.500036 
L 417.576904 212.413095 
L 418.432234 207.596532 
L 419.787851 200.41516 
L 420.74001 243.920716 
L 421.676031 276.871568 
L 422.660467 303.284414 
L 423.661042 323.420079 
L 424.548648 336.861245 
L 425.468531 347.346397 
L 426.339999 354.73643 
L 427.066222 359.379109 
L 427.93769 363.465362 
L 428.50253 365.412853 
L 429.083509 366.925636 
L 429.82587 368.264536 
L 430.826445 369.186117 
L 431.116934 369.290447 
L 431.310594 369.342612 
L 432.165923 369.238282 
L 432.424136 369.116564 
L 432.617796 369.012234 
L 433.037391 368.716632 
L 433.166498 368.612303 
L 435.119231 366.351822 
L 435.522689 365.743231 
L 435.845455 365.256358 
L 435.845455 365.256358 
" style="fill:none;stroke:#ff0000;stroke-linecap:square;stroke-width:1.5;"/>
   </g>
   <g id="patch_3">
    <path d="M 63 384.48 
L 63 51.84 
" style="fill:none;stroke:#000000;stroke-linecap:square;stroke-linejoin:miter;stroke-width:0.8;"/>
   </g>
   <g id="patch_4">
    <path d="M 453.6 384.48 
L 453.6 51.84 
" style="fill:none;stroke:#000000;stroke-linecap:square;stroke-linejoin:miter;stroke-width:0.8;"/>
   </g>
   <g id="patch_5">
    <path d="M 63 384.48 
L 453.6 384.48 
" style="fill:none;stroke:#000000;stroke-linecap:square;stroke-linejoin:miter;stroke-width:0.8;"/>
   </g>
   <g id="patch_6">
    <path d="M 63 51.84 
L 453.6 51.84 
" style="fill:none;stroke:#000000;stroke-linecap:square;stroke-linejoin:miter;stroke-width:0.8;"/>
   </g>
   <g id="legend_1">
    <g id="patch_7">
     <path d="M 70 89.19625 
L 133.139062 89.19625 
Q 135.139062 89.19625 135.139062 87.19625 
L 135.139062 58.84 
Q 135.139062 56.84 133.139062 56.84 
L 70 56.84 
Q 68 56.84 68 58.84 
L 68 87.19625 
Q 68 89.19625 70 89.19625 
z
" style="fill:#ffffff;opacity:0.8;stroke:#cccccc;stroke-linejoin:miter;"/>
    </g>
    <g id="line2d_16">
     <path d="M 72 64.938437 
L 92 64.938437 
" style="fill:none;stroke:#1f77b4;stroke-linecap:square;stroke-width:1.5;"/>
    </g>
    <g id="line2d_17"/>
    <g id="text_16">
     <!-- target -->
     <defs>
      <path d="M 41.109375 46.296875 
Q 39.59375 47.171875 37.8125 47.578125 
Q 36.03125 48 33.890625 48 
Q 26.265625 48 22.1875 43.046875 
Q 18.109375 38.09375 18.109375 28.8125 
L 18.109375 0 
L 9.078125 0 
L 9.078125 54.6875 
L 18.109375 54.6875 
L 18.109375 46.1875 
Q 20.953125 51.171875 25.484375 53.578125 
Q 30.03125 56 36.53125 56 
Q 37.453125 56 38.578125 55.875 
Q 39.703125 55.765625 41.0625 55.515625 
z
" id="DejaVuSans-114"/>
     </defs>
     <g transform="translate(100 68.438437)scale(0.1 -0.1)">
      <use xlink:href="#DejaVuSans-116"/>
      <use x="39.208984" xlink:href="#DejaVuSans-97"/>
      <use x="100.488281" xlink:href="#DejaVuSans-114"/>
      <use x="141.585938" xlink:href="#DejaVuSans-103"/>
      <use x="205.0625" xlink:href="#DejaVuSans-101"/>
      <use x="266.585938" xlink:href="#DejaVuSans-116"/>
     </g>
    </g>
    <g id="line2d_18">
     <path d="M 72 79.616562 
L 92 79.616562 
" style="fill:none;stroke:#ff0000;stroke-linecap:square;stroke-width:1.5;"/>
    </g>
    <g id="line2d_19"/>
    <g id="text_17">
     <!-- model -->
     <defs>
      <path d="M 45.40625 46.390625 
L 45.40625 75.984375 
L 54.390625 75.984375 
L 54.390625 0 
L 45.40625 0 
L 45.40625 8.203125 
Q 42.578125 3.328125 38.25 0.953125 
Q 33.9375 -1.421875 27.875 -1.421875 
Q 17.96875 -1.421875 11.734375 6.484375 
Q 5.515625 14.40625 5.515625 27.296875 
Q 5.515625 40.1875 11.734375 48.09375 
Q 17.96875 56 27.875 56 
Q 33.9375 56 38.25 53.625 
Q 42.578125 51.265625 45.40625 46.390625 
z
M 14.796875 27.296875 
Q 14.796875 17.390625 18.875 11.75 
Q 22.953125 6.109375 30.078125 6.109375 
Q 37.203125 6.109375 41.296875 11.75 
Q 45.40625 17.390625 45.40625 27.296875 
Q 45.40625 37.203125 41.296875 42.84375 
Q 37.203125 48.484375 30.078125 48.484375 
Q 22.953125 48.484375 18.875 42.84375 
Q 14.796875 37.203125 14.796875 27.296875 
z
" id="DejaVuSans-100"/>
     </defs>
     <g transform="translate(100 83.116562)scale(0.1 -0.1)">
      <use xlink:href="#DejaVuSans-109"/>
      <use x="97.412109" xlink:href="#DejaVuSans-111"/>
      <use x="158.59375" xlink:href="#DejaVuSans-100"/>
      <use x="222.070312" xlink:href="#DejaVuSans-101"/>
      <use x="283.59375" xlink:href="#DejaVuSans-108"/>
     </g>
    </g>
   </g>
  </g>
 </g>
 <defs>
  <clipPath id="p3e4d4e7442">
   <rect height="332.64" width="390.6" x="63" y="51.84"/>
  </clipPath>
 </defs>
</svg>
