<?xml version="1.0" encoding="utf-8" standalone="no"?>
<!DOCTYPE svg PUBLIC "-//W3C//DTD SVG 1.1//EN"
  "http://www.w3.org/Graphics/SVG/1.1/DTD/svg11.dtd">
<!-- Created with matplotlib (http://matplotlib.org/) -->
<svg height="432pt" version="1.1" viewBox="0 0 504 432" width="504pt" xmlns="http://www.w3.org/2000/svg" xmlns:xlink="http://www.w3.org/1999/xlink">
 <defs>
  <style type="text/css">
*{stroke-linecap:butt;stroke-linejoin:round;}
  </style>
 </defs>
 <g id="figure_1">
  <g id="patch_1">
   <path d="M 0 432 
L 504 432 
L 504 0 
L 0 0 
z
" style="fill:#ffffff;"/>
  </g>
  <g id="axes_1">
   <g id="patch_2">
    <path d="M 63 384.48 
L 453.6 384.48 
L 453.6 51.84 
L 63 51.84 
z
" style="fill:#ffffff;"/>
   </g>
   <g id="matplotlib.axis_1">
    <g id="xtick_1">
     <g id="line2d_1">
      <defs>
       <path d="M 0 0 
L 0 3.5 
" id="md016705ea2" style="stroke:#000000;stroke-width:0.8;"/>
      </defs>
      <g>
       <use style="stroke:#000000;stroke-width:0.8;" x="80.754545" xlink:href="#md016705ea2" y="384.48"/>
      </g>
     </g>
     <g id="text_1">
      <!-- 0 -->
      <defs>
       <path d="M 31.78125 66.40625 
Q 24.171875 66.40625 20.328125 58.90625 
Q 16.5 51.421875 16.5 36.375 
Q 16.5 21.390625 20.328125 13.890625 
Q 24.171875 6.390625 31.78125 6.390625 
Q 39.453125 6.390625 43.28125 13.890625 
Q 47.125 21.390625 47.125 36.375 
Q 47.125 51.421875 43.28125 58.90625 
Q 39.453125 66.40625 31.78125 66.40625 
z
M 31.78125 74.21875 
Q 44.046875 74.21875 50.515625 64.515625 
Q 56.984375 54.828125 56.984375 36.375 
Q 56.984375 17.96875 50.515625 8.265625 
Q 44.046875 -1.421875 31.78125 -1.421875 
Q 19.53125 -1.421875 13.0625 8.265625 
Q 6.59375 17.96875 6.59375 36.375 
Q 6.59375 54.828125 13.0625 64.515625 
Q 19.53125 74.21875 31.78125 74.21875 
z
" id="DejaVuSans-30"/>
      </defs>
      <g transform="translate(77.573295 399.078438)scale(0.1 -0.1)">
       <use xlink:href="#DejaVuSans-30"/>
      </g>
     </g>
    </g>
    <g id="xtick_2">
     <g id="line2d_2">
      <g>
       <use style="stroke:#000000;stroke-width:0.8;" x="151.772727" xlink:href="#md016705ea2" y="384.48"/>
      </g>
     </g>
     <g id="text_2">
      <!-- 200 -->
      <defs>
       <path d="M 19.1875 8.296875 
L 53.609375 8.296875 
L 53.609375 0 
L 7.328125 0 
L 7.328125 8.296875 
Q 12.9375 14.109375 22.625 23.890625 
Q 32.328125 33.6875 34.8125 36.53125 
Q 39.546875 41.84375 41.421875 45.53125 
Q 43.3125 49.21875 43.3125 52.78125 
Q 43.3125 58.59375 39.234375 62.25 
Q 35.15625 65.921875 28.609375 65.921875 
Q 23.96875 65.921875 18.8125 64.3125 
Q 13.671875 62.703125 7.8125 59.421875 
L 7.8125 69.390625 
Q 13.765625 71.78125 18.9375 73 
Q 24.125 74.21875 28.421875 74.21875 
Q 39.75 74.21875 46.484375 68.546875 
Q 53.21875 62.890625 53.21875 53.421875 
Q 53.21875 48.921875 51.53125 44.890625 
Q 49.859375 40.875 45.40625 35.40625 
Q 44.1875 33.984375 37.640625 27.21875 
Q 31.109375 20.453125 19.1875 8.296875 
z
" id="DejaVuSans-32"/>
      </defs>
      <g transform="translate(142.228977 399.078438)scale(0.1 -0.1)">
       <use xlink:href="#DejaVuSans-32"/>
       <use x="63.623047" xlink:href="#DejaVuSans-30"/>
       <use x="127.246094" xlink:href="#DejaVuSans-30"/>
      </g>
     </g>
    </g>
    <g id="xtick_3">
     <g id="line2d_3">
      <g>
       <use style="stroke:#000000;stroke-width:0.8;" x="222.790909" xlink:href="#md016705ea2" y="384.48"/>
      </g>
     </g>
     <g id="text_3">
      <!-- 400 -->
      <defs>
       <path d="M 37.796875 64.3125 
L 12.890625 25.390625 
L 37.796875 25.390625 
z
M 35.203125 72.90625 
L 47.609375 72.90625 
L 47.609375 25.390625 
L 58.015625 25.390625 
L 58.015625 17.1875 
L 47.609375 17.1875 
L 47.609375 0 
L 37.796875 0 
L 37.796875 17.1875 
L 4.890625 17.1875 
L 4.890625 26.703125 
z
" id="DejaVuSans-34"/>
      </defs>
      <g transform="translate(213.247159 399.078438)scale(0.1 -0.1)">
       <use xlink:href="#DejaVuSans-34"/>
       <use x="63.623047" xlink:href="#DejaVuSans-30"/>
       <use x="127.246094" xlink:href="#DejaVuSans-30"/>
      </g>
     </g>
    </g>
    <g id="xtick_4">
     <g id="line2d_4">
      <g>
       <use style="stroke:#000000;stroke-width:0.8;" x="293.809091" xlink:href="#md016705ea2" y="384.48"/>
      </g>
     </g>
     <g id="text_4">
      <!-- 600 -->
      <defs>
       <path d="M 33.015625 40.375 
Q 26.375 40.375 22.484375 35.828125 
Q 18.609375 31.296875 18.609375 23.390625 
Q 18.609375 15.53125 22.484375 10.953125 
Q 26.375 6.390625 33.015625 6.390625 
Q 39.65625 6.390625 43.53125 10.953125 
Q 47.40625 15.53125 47.40625 23.390625 
Q 47.40625 31.296875 43.53125 35.828125 
Q 39.65625 40.375 33.015625 40.375 
z
M 52.59375 71.296875 
L 52.59375 62.3125 
Q 48.875 64.0625 45.09375 64.984375 
Q 41.3125 65.921875 37.59375 65.921875 
Q 27.828125 65.921875 22.671875 59.328125 
Q 17.53125 52.734375 16.796875 39.40625 
Q 19.671875 43.65625 24.015625 45.921875 
Q 28.375 48.1875 33.59375 48.1875 
Q 44.578125 48.1875 50.953125 41.515625 
Q 57.328125 34.859375 57.328125 23.390625 
Q 57.328125 12.15625 50.6875 5.359375 
Q 44.046875 -1.421875 33.015625 -1.421875 
Q 20.359375 -1.421875 13.671875 8.265625 
Q 6.984375 17.96875 6.984375 36.375 
Q 6.984375 53.65625 15.1875 63.9375 
Q 23.390625 74.21875 37.203125 74.21875 
Q 40.921875 74.21875 44.703125 73.484375 
Q 48.484375 72.75 52.59375 71.296875 
z
" id="DejaVuSans-36"/>
      </defs>
      <g transform="translate(284.265341 399.078438)scale(0.1 -0.1)">
       <use xlink:href="#DejaVuSans-36"/>
       <use x="63.623047" xlink:href="#DejaVuSans-30"/>
       <use x="127.246094" xlink:href="#DejaVuSans-30"/>
      </g>
     </g>
    </g>
    <g id="xtick_5">
     <g id="line2d_5">
      <g>
       <use style="stroke:#000000;stroke-width:0.8;" x="364.827273" xlink:href="#md016705ea2" y="384.48"/>
      </g>
     </g>
     <g id="text_5">
      <!-- 800 -->
      <defs>
       <path d="M 31.78125 34.625 
Q 24.75 34.625 20.71875 30.859375 
Q 16.703125 27.09375 16.703125 20.515625 
Q 16.703125 13.921875 20.71875 10.15625 
Q 24.75 6.390625 31.78125 6.390625 
Q 38.8125 6.390625 42.859375 10.171875 
Q 46.921875 13.96875 46.921875 20.515625 
Q 46.921875 27.09375 42.890625 30.859375 
Q 38.875 34.625 31.78125 34.625 
z
M 21.921875 38.8125 
Q 15.578125 40.375 12.03125 44.71875 
Q 8.5 49.078125 8.5 55.328125 
Q 8.5 64.0625 14.71875 69.140625 
Q 20.953125 74.21875 31.78125 74.21875 
Q 42.671875 74.21875 48.875 69.140625 
Q 55.078125 64.0625 55.078125 55.328125 
Q 55.078125 49.078125 51.53125 44.71875 
Q 48 40.375 41.703125 38.8125 
Q 48.828125 37.15625 52.796875 32.3125 
Q 56.78125 27.484375 56.78125 20.515625 
Q 56.78125 9.90625 50.3125 4.234375 
Q 43.84375 -1.421875 31.78125 -1.421875 
Q 19.734375 -1.421875 13.25 4.234375 
Q 6.78125 9.90625 6.78125 20.515625 
Q 6.78125 27.484375 10.78125 32.3125 
Q 14.796875 37.15625 21.921875 38.8125 
z
M 18.3125 54.390625 
Q 18.3125 48.734375 21.84375 45.5625 
Q 25.390625 42.390625 31.78125 42.390625 
Q 38.140625 42.390625 41.71875 45.5625 
Q 45.3125 48.734375 45.3125 54.390625 
Q 45.3125 60.0625 41.71875 63.234375 
Q 38.140625 66.40625 31.78125 66.40625 
Q 25.390625 66.40625 21.84375 63.234375 
Q 18.3125 60.0625 18.3125 54.390625 
z
" id="DejaVuSans-38"/>
      </defs>
      <g transform="translate(355.283523 399.078438)scale(0.1 -0.1)">
       <use xlink:href="#DejaVuSans-38"/>
       <use x="63.623047" xlink:href="#DejaVuSans-30"/>
       <use x="127.246094" xlink:href="#DejaVuSans-30"/>
      </g>
     </g>
    </g>
    <g id="text_6">
     <!-- time [ms] -->
     <defs>
      <path d="M 18.3125 70.21875 
L 18.3125 54.6875 
L 36.8125 54.6875 
L 36.8125 47.703125 
L 18.3125 47.703125 
L 18.3125 18.015625 
Q 18.3125 11.328125 20.140625 9.421875 
Q 21.96875 7.515625 27.59375 7.515625 
L 36.8125 7.515625 
L 36.8125 0 
L 27.59375 0 
Q 17.1875 0 13.234375 3.875 
Q 9.28125 7.765625 9.28125 18.015625 
L 9.28125 47.703125 
L 2.6875 47.703125 
L 2.6875 54.6875 
L 9.28125 54.6875 
L 9.28125 70.21875 
z
" id="DejaVuSans-74"/>
      <path d="M 9.421875 54.6875 
L 18.40625 54.6875 
L 18.40625 0 
L 9.421875 0 
z
M 9.421875 75.984375 
L 18.40625 75.984375 
L 18.40625 64.59375 
L 9.421875 64.59375 
z
" id="DejaVuSans-69"/>
      <path d="M 52 44.1875 
Q 55.375 50.25 60.0625 53.125 
Q 64.75 56 71.09375 56 
Q 79.640625 56 84.28125 50.015625 
Q 88.921875 44.046875 88.921875 33.015625 
L 88.921875 0 
L 79.890625 0 
L 79.890625 32.71875 
Q 79.890625 40.578125 77.09375 44.375 
Q 74.3125 48.1875 68.609375 48.1875 
Q 61.625 48.1875 57.5625 43.546875 
Q 53.515625 38.921875 53.515625 30.90625 
L 53.515625 0 
L 44.484375 0 
L 44.484375 32.71875 
Q 44.484375 40.625 41.703125 44.40625 
Q 38.921875 48.1875 33.109375 48.1875 
Q 26.21875 48.1875 22.15625 43.53125 
Q 18.109375 38.875 18.109375 30.90625 
L 18.109375 0 
L 9.078125 0 
L 9.078125 54.6875 
L 18.109375 54.6875 
L 18.109375 46.1875 
Q 21.1875 51.21875 25.484375 53.609375 
Q 29.78125 56 35.6875 56 
Q 41.65625 56 45.828125 52.96875 
Q 50 49.953125 52 44.1875 
z
" id="DejaVuSans-6d"/>
      <path d="M 56.203125 29.59375 
L 56.203125 25.203125 
L 14.890625 25.203125 
Q 15.484375 15.921875 20.484375 11.0625 
Q 25.484375 6.203125 34.421875 6.203125 
Q 39.59375 6.203125 44.453125 7.46875 
Q 49.3125 8.734375 54.109375 11.28125 
L 54.109375 2.78125 
Q 49.265625 0.734375 44.1875 -0.34375 
Q 39.109375 -1.421875 33.890625 -1.421875 
Q 20.796875 -1.421875 13.15625 6.1875 
Q 5.515625 13.8125 5.515625 26.8125 
Q 5.515625 40.234375 12.765625 48.109375 
Q 20.015625 56 32.328125 56 
Q 43.359375 56 49.78125 48.890625 
Q 56.203125 41.796875 56.203125 29.59375 
z
M 47.21875 32.234375 
Q 47.125 39.59375 43.09375 43.984375 
Q 39.0625 48.390625 32.421875 48.390625 
Q 24.90625 48.390625 20.390625 44.140625 
Q 15.875 39.890625 15.1875 32.171875 
z
" id="DejaVuSans-65"/>
      <path id="DejaVuSans-20"/>
      <path d="M 8.59375 75.984375 
L 29.296875 75.984375 
L 29.296875 69 
L 17.578125 69 
L 17.578125 -6.203125 
L 29.296875 -6.203125 
L 29.296875 -13.1875 
L 8.59375 -13.1875 
z
" id="DejaVuSans-5b"/>
      <path d="M 44.28125 53.078125 
L 44.28125 44.578125 
Q 40.484375 46.53125 36.375 47.5 
Q 32.28125 48.484375 27.875 48.484375 
Q 21.1875 48.484375 17.84375 46.4375 
Q 14.5 44.390625 14.5 40.28125 
Q 14.5 37.15625 16.890625 35.375 
Q 19.28125 33.59375 26.515625 31.984375 
L 29.59375 31.296875 
Q 39.15625 29.25 43.1875 25.515625 
Q 47.21875 21.78125 47.21875 15.09375 
Q 47.21875 7.46875 41.1875 3.015625 
Q 35.15625 -1.421875 24.609375 -1.421875 
Q 20.21875 -1.421875 15.453125 -0.5625 
Q 10.6875 0.296875 5.421875 2 
L 5.421875 11.28125 
Q 10.40625 8.6875 15.234375 7.390625 
Q 20.0625 6.109375 24.8125 6.109375 
Q 31.15625 6.109375 34.5625 8.28125 
Q 37.984375 10.453125 37.984375 14.40625 
Q 37.984375 18.0625 35.515625 20.015625 
Q 33.0625 21.96875 24.703125 23.78125 
L 21.578125 24.515625 
Q 13.234375 26.265625 9.515625 29.90625 
Q 5.8125 33.546875 5.8125 39.890625 
Q 5.8125 47.609375 11.28125 51.796875 
Q 16.75 56 26.8125 56 
Q 31.78125 56 36.171875 55.265625 
Q 40.578125 54.546875 44.28125 53.078125 
z
" id="DejaVuSans-73"/>
      <path d="M 30.421875 75.984375 
L 30.421875 -13.1875 
L 9.71875 -13.1875 
L 9.71875 -6.203125 
L 21.390625 -6.203125 
L 21.390625 69 
L 9.71875 69 
L 9.71875 75.984375 
z
" id="DejaVuSans-5d"/>
     </defs>
     <g transform="translate(234.038281 412.756563)scale(0.1 -0.1)">
      <use xlink:href="#DejaVuSans-74"/>
      <use x="39.208984" xlink:href="#DejaVuSans-69"/>
      <use x="66.992188" xlink:href="#DejaVuSans-6d"/>
      <use x="164.404297" xlink:href="#DejaVuSans-65"/>
      <use x="225.927734" xlink:href="#DejaVuSans-20"/>
      <use x="257.714844" xlink:href="#DejaVuSans-5b"/>
      <use x="296.728516" xlink:href="#DejaVuSans-6d"/>
      <use x="394.140625" xlink:href="#DejaVuSans-73"/>
      <use x="446.240234" xlink:href="#DejaVuSans-5d"/>
     </g>
    </g>
   </g>
   <g id="matplotlib.axis_2">
    <g id="ytick_1">
     <g id="line2d_6">
      <defs>
       <path d="M 0 0 
L -3.5 0 
" id="m212ee54e9f" style="stroke:#000000;stroke-width:0.8;"/>
      </defs>
      <g>
       <use style="stroke:#000000;stroke-width:0.8;" x="63" xlink:href="#m212ee54e9f" y="382.004866"/>
      </g>
     </g>
     <g id="text_7">
      <!-- −80 -->
      <defs>
       <path d="M 10.59375 35.5 
L 73.1875 35.5 
L 73.1875 27.203125 
L 10.59375 27.203125 
z
" id="DejaVuSans-2212"/>
      </defs>
      <g transform="translate(34.895313 385.804085)scale(0.1 -0.1)">
       <use xlink:href="#DejaVuSans-2212"/>
       <use x="83.789062" xlink:href="#DejaVuSans-38"/>
       <use x="147.412109" xlink:href="#DejaVuSans-30"/>
      </g>
     </g>
    </g>
    <g id="ytick_2">
     <g id="line2d_7">
      <g>
       <use style="stroke:#000000;stroke-width:0.8;" x="63" xlink:href="#m212ee54e9f" y="329.550575"/>
      </g>
     </g>
     <g id="text_8">
      <!-- −60 -->
      <g transform="translate(34.895313 333.349794)scale(0.1 -0.1)">
       <use xlink:href="#DejaVuSans-2212"/>
       <use x="83.789062" xlink:href="#DejaVuSans-36"/>
       <use x="147.412109" xlink:href="#DejaVuSans-30"/>
      </g>
     </g>
    </g>
    <g id="ytick_3">
     <g id="line2d_8">
      <g>
       <use style="stroke:#000000;stroke-width:0.8;" x="63" xlink:href="#m212ee54e9f" y="277.096284"/>
      </g>
     </g>
     <g id="text_9">
      <!-- −40 -->
      <g transform="translate(34.895313 280.895503)scale(0.1 -0.1)">
       <use xlink:href="#DejaVuSans-2212"/>
       <use x="83.789062" xlink:href="#DejaVuSans-34"/>
       <use x="147.412109" xlink:href="#DejaVuSans-30"/>
      </g>
     </g>
    </g>
    <g id="ytick_4">
     <g id="line2d_9">
      <g>
       <use style="stroke:#000000;stroke-width:0.8;" x="63" xlink:href="#m212ee54e9f" y="224.641993"/>
      </g>
     </g>
     <g id="text_10">
      <!-- −20 -->
      <g transform="translate(34.895313 228.441212)scale(0.1 -0.1)">
       <use xlink:href="#DejaVuSans-2212"/>
       <use x="83.789062" xlink:href="#DejaVuSans-32"/>
       <use x="147.412109" xlink:href="#DejaVuSans-30"/>
      </g>
     </g>
    </g>
    <g id="ytick_5">
     <g id="line2d_10">
      <g>
       <use style="stroke:#000000;stroke-width:0.8;" x="63" xlink:href="#m212ee54e9f" y="172.187702"/>
      </g>
     </g>
     <g id="text_11">
      <!-- 0 -->
      <g transform="translate(49.6375 175.986921)scale(0.1 -0.1)">
       <use xlink:href="#DejaVuSans-30"/>
      </g>
     </g>
    </g>
    <g id="ytick_6">
     <g id="line2d_11">
      <g>
       <use style="stroke:#000000;stroke-width:0.8;" x="63" xlink:href="#m212ee54e9f" y="119.733411"/>
      </g>
     </g>
     <g id="text_12">
      <!-- 20 -->
      <g transform="translate(43.275 123.53263)scale(0.1 -0.1)">
       <use xlink:href="#DejaVuSans-32"/>
       <use x="63.623047" xlink:href="#DejaVuSans-30"/>
      </g>
     </g>
    </g>
    <g id="ytick_7">
     <g id="line2d_12">
      <g>
       <use style="stroke:#000000;stroke-width:0.8;" x="63" xlink:href="#m212ee54e9f" y="67.27912"/>
      </g>
     </g>
     <g id="text_13">
      <!-- 40 -->
      <g transform="translate(43.275 71.078339)scale(0.1 -0.1)">
       <use xlink:href="#DejaVuSans-34"/>
       <use x="63.623047" xlink:href="#DejaVuSans-30"/>
      </g>
     </g>
    </g>
    <g id="text_14">
     <!-- voltage [mV] -->
     <defs>
      <path d="M 2.984375 54.6875 
L 12.5 54.6875 
L 29.59375 8.796875 
L 46.6875 54.6875 
L 56.203125 54.6875 
L 35.6875 0 
L 23.484375 0 
z
" id="DejaVuSans-76"/>
      <path d="M 30.609375 48.390625 
Q 23.390625 48.390625 19.1875 42.75 
Q 14.984375 37.109375 14.984375 27.296875 
Q 14.984375 17.484375 19.15625 11.84375 
Q 23.34375 6.203125 30.609375 6.203125 
Q 37.796875 6.203125 41.984375 11.859375 
Q 46.1875 17.53125 46.1875 27.296875 
Q 46.1875 37.015625 41.984375 42.703125 
Q 37.796875 48.390625 30.609375 48.390625 
z
M 30.609375 56 
Q 42.328125 56 49.015625 48.375 
Q 55.71875 40.765625 55.71875 27.296875 
Q 55.71875 13.875 49.015625 6.21875 
Q 42.328125 -1.421875 30.609375 -1.421875 
Q 18.84375 -1.421875 12.171875 6.21875 
Q 5.515625 13.875 5.515625 27.296875 
Q 5.515625 40.765625 12.171875 48.375 
Q 18.84375 56 30.609375 56 
z
" id="DejaVuSans-6f"/>
      <path d="M 9.421875 75.984375 
L 18.40625 75.984375 
L 18.40625 0 
L 9.421875 0 
z
" id="DejaVuSans-6c"/>
      <path d="M 34.28125 27.484375 
Q 23.390625 27.484375 19.1875 25 
Q 14.984375 22.515625 14.984375 16.5 
Q 14.984375 11.71875 18.140625 8.90625 
Q 21.296875 6.109375 26.703125 6.109375 
Q 34.1875 6.109375 38.703125 11.40625 
Q 43.21875 16.703125 43.21875 25.484375 
L 43.21875 27.484375 
z
M 52.203125 31.203125 
L 52.203125 0 
L 43.21875 0 
L 43.21875 8.296875 
Q 40.140625 3.328125 35.546875 0.953125 
Q 30.953125 -1.421875 24.3125 -1.421875 
Q 15.921875 -1.421875 10.953125 3.296875 
Q 6 8.015625 6 15.921875 
Q 6 25.140625 12.171875 29.828125 
Q 18.359375 34.515625 30.609375 34.515625 
L 43.21875 34.515625 
L 43.21875 35.40625 
Q 43.21875 41.609375 39.140625 45 
Q 35.0625 48.390625 27.6875 48.390625 
Q 23 48.390625 18.546875 47.265625 
Q 14.109375 46.140625 10.015625 43.890625 
L 10.015625 52.203125 
Q 14.9375 54.109375 19.578125 55.046875 
Q 24.21875 56 28.609375 56 
Q 40.484375 56 46.34375 49.84375 
Q 52.203125 43.703125 52.203125 31.203125 
z
" id="DejaVuSans-61"/>
      <path d="M 45.40625 27.984375 
Q 45.40625 37.75 41.375 43.109375 
Q 37.359375 48.484375 30.078125 48.484375 
Q 22.859375 48.484375 18.828125 43.109375 
Q 14.796875 37.75 14.796875 27.984375 
Q 14.796875 18.265625 18.828125 12.890625 
Q 22.859375 7.515625 30.078125 7.515625 
Q 37.359375 7.515625 41.375 12.890625 
Q 45.40625 18.265625 45.40625 27.984375 
z
M 54.390625 6.78125 
Q 54.390625 -7.171875 48.1875 -13.984375 
Q 42 -20.796875 29.203125 -20.796875 
Q 24.46875 -20.796875 20.265625 -20.09375 
Q 16.0625 -19.390625 12.109375 -17.921875 
L 12.109375 -9.1875 
Q 16.0625 -11.328125 19.921875 -12.34375 
Q 23.78125 -13.375 27.78125 -13.375 
Q 36.625 -13.375 41.015625 -8.765625 
Q 45.40625 -4.15625 45.40625 5.171875 
L 45.40625 9.625 
Q 42.625 4.78125 38.28125 2.390625 
Q 33.9375 0 27.875 0 
Q 17.828125 0 11.671875 7.65625 
Q 5.515625 15.328125 5.515625 27.984375 
Q 5.515625 40.671875 11.671875 48.328125 
Q 17.828125 56 27.875 56 
Q 33.9375 56 38.28125 53.609375 
Q 42.625 51.21875 45.40625 46.390625 
L 45.40625 54.6875 
L 54.390625 54.6875 
z
" id="DejaVuSans-67"/>
      <path d="M 28.609375 0 
L 0.78125 72.90625 
L 11.078125 72.90625 
L 34.1875 11.53125 
L 57.328125 72.90625 
L 67.578125 72.90625 
L 39.796875 0 
z
" id="DejaVuSans-56"/>
     </defs>
     <g transform="translate(28.815625 250.624062)rotate(-90)scale(0.1 -0.1)">
      <use xlink:href="#DejaVuSans-76"/>
      <use x="59.179688" xlink:href="#DejaVuSans-6f"/>
      <use x="120.361328" xlink:href="#DejaVuSans-6c"/>
      <use x="148.144531" xlink:href="#DejaVuSans-74"/>
      <use x="187.353516" xlink:href="#DejaVuSans-61"/>
      <use x="248.632812" xlink:href="#DejaVuSans-67"/>
      <use x="312.109375" xlink:href="#DejaVuSans-65"/>
      <use x="373.632812" xlink:href="#DejaVuSans-20"/>
      <use x="405.419922" xlink:href="#DejaVuSans-5b"/>
      <use x="444.433594" xlink:href="#DejaVuSans-6d"/>
      <use x="541.845703" xlink:href="#DejaVuSans-56"/>
      <use x="610.253906" xlink:href="#DejaVuSans-5d"/>
     </g>
    </g>
   </g>
   <g id="line2d_13">
    <path clip-path="url(#p125b29171a)" d="M 80.754545 342.664148 
L 81.961855 342.527767 
L 83.772818 342.584942 
L 85.974382 342.603825 
L 151.772727 342.59517 
L 152.314241 298.109211 
L 152.420768 249.514769 
L 152.562805 68.129404 
L 152.678209 93.325823 
L 153.565936 369.129436 
L 153.610323 369.028986 
L 153.8145 367.651274 
L 154.293873 362.901538 
L 154.959668 353.787867 
L 157.42755 314.929204 
L 157.613973 303.811254 
L 157.738255 281.864117 
L 157.835905 219.360108 
L 157.969064 92.470031 
L 158.031205 105.611404 
L 158.883423 368.705343 
L 158.945564 368.522015 
L 159.203005 366.544488 
L 159.717886 360.876278 
L 160.534595 348.959187 
L 161.8218 330.844098 
L 162.514227 320.486211 
L 162.771668 312.971872 
L 162.940336 300.990525 
L 163.064618 273.0476 
L 163.162268 188.719013 
L 163.268795 93.389555 
L 163.322059 102.894797 
L 163.863573 297.831203 
L 164.147645 368.528834 
L 164.183155 368.673608 
L 164.245295 368.492379 
L 164.493859 366.590386 
L 165.008741 360.941846 
L 165.834327 348.90175 
L 167.112655 330.918583 
L 167.813959 320.450805 
L 168.0714 312.926761 
L 168.240068 300.906074 
L 168.36435 272.801589 
L 168.462 187.974031 
L 168.568527 93.4664 
L 168.621791 103.116678 
L 169.172182 301.7797 
L 169.4385 368.443071 
L 169.482886 368.67151 
L 169.545027 368.486346 
L 169.802468 366.500689 
L 170.31735 360.814644 
L 171.151814 348.612989 
L 172.430141 330.675982 
L 173.113691 320.432446 
L 173.371132 312.890305 
L 173.5398 300.810344 
L 173.664082 272.463783 
L 173.761732 186.823682 
L 173.868259 93.483185 
L 173.921523 103.35246 
L 174.480791 305.84753 
L 174.729355 368.333704 
L 174.782618 368.67151 
L 174.844759 368.48215 
L 175.1022 366.493345 
L 175.617082 360.803891 
L 176.451545 348.600138 
L 177.729873 330.665229 
L 178.413423 320.41566 
L 178.670864 312.854374 
L 178.839532 300.713304 
L 178.963814 272.11706 
L 179.061464 185.639657 
L 179.167991 93.500495 
L 179.221255 103.590865 
L 179.7894 310.018433 
L 180.029086 368.346031 
L 180.08235 368.671772 
L 180.144491 368.477691 
L 180.401932 366.486002 
L 180.916814 360.7934 
L 181.751277 348.587811 
L 183.029605 330.654738 
L 183.713155 320.398613 
L 183.970595 312.818181 
L 184.139264 300.615215 
L 184.263545 271.762207 
L 184.361195 184.434808 
L 184.467723 93.524362 
L 184.520986 103.832942 
L 185.098009 314.281131 
L 185.328818 368.358096 
L 185.382082 368.671772 
L 185.444223 368.473495 
L 185.701664 366.478396 
L 186.216545 360.782909 
L 187.051009 348.575222 
L 188.329336 330.644247 
L 189.012886 320.381827 
L 189.270327 312.781725 
L 189.438995 300.515551 
L 189.563277 271.402108 
L 189.660927 183.22516 
L 189.767455 93.553999 
L 189.820718 104.077379 
L 190.406618 318.615954 
L 190.619673 368.224337 
L 190.681814 368.67151 
L 190.743955 368.469036 
L 191.010273 366.389748 
L 191.525155 360.657543 
L 192.368495 348.289871 
L 193.637945 330.518357 
L 194.312618 320.364517 
L 194.570059 312.745269 
L 194.738727 300.415364 
L 194.863009 271.0386 
L 194.969536 168.66238 
L 195.058309 93.540623 
L 195.12045 104.324438 
L 195.715227 322.996936 
L 195.919405 368.239811 
L 195.981545 368.67151 
L 196.043686 368.464578 
L 196.310005 366.382142 
L 196.833764 360.531653 
L 197.703736 347.732544 
L 198.955432 330.277329 
L 199.61235 320.34747 
L 199.869791 312.708289 
L 200.038459 300.314127 
L 200.162741 270.667748 
L 200.269268 167.400041 
L 200.358041 93.511248 
L 200.420182 104.575694 
L 201.023836 327.387098 
L 201.219136 368.254498 
L 201.281277 368.670985 
L 201.343418 368.460119 
L 201.609736 366.374536 
L 202.133495 360.520638 
L 202.994591 347.855811 
L 204.255164 330.266576 
L 204.912082 320.329898 
L 205.169523 312.670784 
L 205.338191 300.211316 
L 205.462473 270.289291 
L 205.569 166.129231 
L 205.657773 93.488955 
L 205.719914 104.828786 
L 206.332445 331.738444 
L 206.518868 368.269185 
L 206.581009 368.670723 
L 206.634273 368.502083 
L 206.873959 366.688475 
L 207.388841 361.081636 
L 208.187795 349.479796 
L 209.510509 330.830984 
L 210.202936 320.496702 
L 210.460377 313.025638 
L 210.629045 301.173853 
L 210.753327 273.753897 
L 210.850977 191.277576 
L 210.957505 93.473744 
L 211.019645 105.082927 
L 211.641055 335.996945 
L 211.827477 368.414746 
L 211.880741 368.670199 
L 211.934005 368.497886 
L 212.182568 366.601401 
L 212.69745 360.957582 
L 213.514159 349.057277 
L 214.810241 330.820231 
L 215.502668 320.479655 
L 215.760109 312.989706 
L 215.928777 301.077599 
L 216.053059 273.41478 
L 216.150709 190.099452 
L 216.257236 93.467449 
L 216.319377 105.336544 
L 216.949664 340.099133 
L 217.127209 368.425237 
L 217.171595 368.670723 
L 217.233736 368.49369 
L 217.4823 366.594058 
L 217.997182 360.947091 
L 218.822768 348.908044 
L 220.101095 330.924353 
L 220.8024 320.462607 
L 221.059841 312.954037 
L 221.228509 300.981608 
L 221.352791 273.074351 
L 221.450441 188.921906 
L 221.556968 93.467974 
L 221.610232 102.931777 
L 222.151745 297.886542 
L 222.426941 368.435203 
L 222.471327 368.670985 
L 222.533468 368.489494 
L 222.782032 366.586714 
L 223.296914 360.9366 
L 224.1225 348.895193 
L 225.418582 330.684112 
L 226.111009 320.260658 
L 226.36845 312.521552 
L 226.537118 299.798239 
L 226.652523 272.7313 
L 226.750173 187.739665 
L 226.8567 93.474006 
L 226.909964 103.169133 
L 227.460355 301.854972 
L 227.726673 368.444907 
L 227.771059 368.67151 
L 227.8332 368.485297 
L 228.090641 366.498853 
L 228.605523 360.812021 
L 229.439986 348.609842 
L 230.718314 330.673359 
L 231.401864 320.428512 
L 231.659305 312.881913 
L 231.827973 300.788314 
L 231.952255 272.385889 
L 232.049905 186.557214 
L 232.156432 93.486857 
L 232.209695 103.406226 
L 232.768964 305.925949 
L 233.017527 368.336589 
L 233.070791 368.67151 
L 233.132932 368.481101 
L 233.390373 366.49151 
L 233.905255 360.80153 
L 234.739718 348.597253 
L 236.018045 330.662868 
L 236.701595 320.411726 
L 236.959036 312.846244 
L 237.127705 300.691273 
L 237.251986 272.03733 
L 237.349636 185.367997 
L 237.456164 93.505216 
L 237.509427 103.64568 
L 238.077573 310.099213 
L 238.317259 368.348654 
L 238.370523 368.671772 
L 238.432664 368.476904 
L 238.690105 366.484166 
L 239.204986 360.791039 
L 240.03945 348.584926 
L 241.317777 330.652377 
L 242.001327 320.394941 
L 242.258768 312.81005 
L 242.427436 300.592659 
L 242.551718 271.680641 
L 242.649368 184.160341 
L 242.755895 93.530657 
L 242.809159 103.888281 
L 243.386182 314.363746 
L 243.616991 368.360718 
L 243.670255 368.671772 
L 243.732395 368.472446 
L 243.989836 366.476822 
L 244.504718 360.780549 
L 245.348059 348.435956 
L 246.617509 330.641624 
L 247.301059 320.377893 
L 247.5585 312.773595 
L 247.727168 300.492734 
L 247.85145 271.320018 
L 247.9491 182.949513 
L 248.055627 93.561867 
L 248.108891 104.133242 
L 248.694791 318.700405 
L 248.907845 368.228009 
L 248.969986 368.67151 
L 249.032127 368.46825 
L 249.298445 366.388175 
L 249.822205 360.540046 
L 250.692177 347.74251 
L 251.943873 330.285722 
L 252.600791 320.360583 
L 252.858232 312.736877 
L 253.0269 300.392284 
L 253.151182 270.954673 
L 253.257709 168.374983 
L 253.346482 93.533279 
L 253.408623 104.381614 
L 254.0034 323.082961 
L 254.207577 368.243221 
L 254.269718 368.671248 
L 254.331859 368.463791 
L 254.598177 366.380569 
L 255.121936 360.52903 
L 255.983032 347.865778 
L 257.22585 330.505243 
L 257.900523 320.343536 
L 258.157964 312.699896 
L 258.326632 300.290785 
L 258.450914 270.581986 
L 258.557441 167.110048 
L 258.646214 93.505479 
L 258.708355 104.633656 
L 259.312009 327.473123 
L 259.507309 368.257908 
L 259.56945 368.670985 
L 259.631591 368.45907 
L 259.897909 366.372701 
L 260.421668 360.518277 
L 261.291641 347.71707 
L 262.525582 330.49449 
L 263.200255 320.325963 
L 263.457695 312.662392 
L 263.626364 300.187712 
L 263.750645 270.202217 
L 263.857173 165.838713 
L 263.945945 93.484759 
L 264.008086 104.886748 
L 264.620618 331.823157 
L 264.807041 368.272595 
L 264.869182 368.670461 
L 264.922445 368.501296 
L 265.171009 366.607171 
L 265.685891 360.965975 
L 266.511477 348.9306 
L 267.807559 330.713749 
L 268.499986 320.308654 
L 268.757427 312.624887 
L 268.926095 300.084639 
L 269.050377 269.822447 
L 269.156905 164.576847 
L 269.245677 93.471646 
L 269.298941 102.513454 
L 269.8227 290.332862 
L 270.133405 368.583387 
L 270.168914 368.670199 
L 270.222177 368.497099 
L 270.470741 366.599828 
L 270.985623 360.955221 
L 271.802332 349.054392 
L 273.098414 330.817871 
L 273.790841 320.47572 
L 274.048282 312.981576 
L 274.21695 301.055831 
L 274.341232 273.337147 
L 274.438882 189.829942 
L 274.545409 93.467187 
L 274.598673 102.749236 
L 275.131309 294.09672 
L 275.424259 368.521491 
L 275.459768 368.670723 
L 275.521909 368.492903 
L 275.770473 366.592484 
L 276.285355 360.944731 
L 277.110941 348.905159 
L 278.389268 330.921993 
L 279.090573 320.458673 
L 279.348014 312.945645 
L 279.516682 300.959577 
L 279.640964 272.996194 
L 279.738614 188.652291 
L 279.845141 93.468498 
L 279.898405 102.986067 
L 280.439918 297.962339 
L 280.715114 368.437301 
L 280.7595 368.671248 
L 280.821641 368.488707 
L 281.079082 366.504623 
L 281.593964 360.820152 
L 282.428427 348.619546 
L 283.706755 330.68149 
L 284.390305 320.441625 
L 284.647745 312.909714 
L 284.816414 300.863061 
L 284.940695 272.652619 
L 285.038345 187.469945 
L 285.144873 93.476366 
L 285.198136 103.22316 
L 285.748527 301.931817 
L 286.014845 368.447006 
L 286.059232 368.67151 
L 286.121373 368.484248 
L 286.378814 366.49728 
L 286.893695 360.809661 
L 287.728159 348.606957 
L 289.006486 330.670999 
L 289.690036 320.42484 
L 289.947477 312.873782 
L 290.116145 300.766283 
L 290.240427 272.306683 
L 290.338077 186.286602 
L 290.444605 93.490529 
L 290.497868 103.460516 
L 291.057136 306.005155 
L 291.3057 368.339474 
L 291.358964 368.671772 
L 291.421105 368.480052 
L 291.678545 366.489936 
L 292.193427 360.79917 
L 293.027891 348.594368 
L 294.315095 330.545371 
L 294.989768 320.407792 
L 295.247209 312.837851 
L 295.415877 300.66898 
L 295.540159 271.95655 
L 295.637809 185.093477 
L 295.744336 93.510462 
L 295.7976 103.700757 
L 296.365745 310.180517 
L 296.605432 368.351539 
L 296.658695 368.671772 
L 296.720836 368.475855 
L 296.978277 366.482592 
L 297.493159 360.788679 
L 298.327623 348.582041 
L 299.60595 330.650017 
L 300.2895 320.391007 
L 300.546941 312.801658 
L 300.715609 300.569842 
L 300.839891 271.598812 
L 300.937541 183.885481 
L 301.044068 93.537213 
L 301.097332 103.94362 
L 301.674355 314.446362 
L 301.905164 368.363341 
L 301.958427 368.671772 
L 302.020568 368.471659 
L 302.286886 366.393945 
L 302.810645 360.548176 
L 303.671741 347.888333 
L 304.914559 330.524389 
L 305.589232 320.373959 
L 305.846673 312.765202 
L 306.015341 300.470178 
L 306.139623 271.237664 
L 306.24615 169.34586 
L 306.334923 93.559244 
L 306.397064 104.189369 
L 306.982964 318.784856 
L 307.196018 368.231418 
L 307.258159 368.67151 
L 307.3203 368.4672 
L 307.586618 366.386339 
L 308.110377 360.537423 
L 308.971473 347.875744 
L 310.214291 330.513636 
L 310.888964 320.356911 
L 311.146405 312.728484 
L 311.315073 300.369466 
L 311.439355 270.870484 
L 311.545882 168.088609 
L 311.634655 93.52646 
L 311.696795 104.438526 
L 312.291573 323.168461 
L 312.49575 368.24663 
L 312.557891 368.671248 
L 312.620032 368.462742 
L 312.88635 366.378733 
L 313.410109 360.52667 
L 314.280082 347.726774 
L 315.531777 330.272346 
L 316.188695 320.339339 
L 316.446136 312.691241 
L 316.614805 300.267443 
L 316.739086 270.496485 
L 316.845614 166.821156 
L 316.934386 93.500233 
L 316.996527 104.691094 
L 317.600182 327.558886 
L 317.795482 368.261317 
L 317.857623 368.670985 
L 317.910886 368.504443 
L 318.150573 366.69241 
L 318.665455 361.087406 
L 319.464409 349.486615 
L 320.787123 330.837017 
L 321.488427 320.322029 
L 321.745868 312.653737 
L 321.914536 300.164108 
L 322.038818 270.115405 
L 322.145345 165.549585 
L 322.234118 93.481087 
L 322.296259 104.94471 
L 322.908791 331.907609 
L 323.095214 368.276005 
L 323.157355 368.670461 
L 323.210618 368.500247 
L 323.459182 366.605598 
L 323.974064 360.963352 
L 324.790773 349.064096 
L 326.095732 330.711126 
L 326.779282 320.488834 
L 327.036723 313.009377 
L 327.205391 301.130053 
L 327.329673 273.599419 
L 327.427323 190.740444 
L 327.53385 93.46981 
L 327.595991 105.198589 
L 328.2174 336.160078 
L 328.403823 368.419467 
L 328.457086 368.669936 
L 328.51035 368.49605 
L 328.758914 366.597992 
L 329.273795 360.952861 
L 329.318182 360.378224 
L 329.335936 361.278864 
L 329.531236 365.272734 
L 329.620009 365.460783 
L 329.664395 365.403345 
L 329.815309 364.795925 
L 330.214786 361.976244 
L 332.176664 347.204854 
L 332.869091 343.979701 
L 333.428359 342.32267 
L 333.889977 341.578869 
L 334.262823 341.351741 
L 334.609036 341.388459 
L 335.061777 341.677745 
L 336.553159 342.768794 
L 337.156814 342.865572 
L 338.097805 342.755418 
L 339.580309 342.560813 
L 342.101455 342.597006 
L 345.723382 342.593072 
L 435.845455 342.59517 
L 435.845455 342.59517 
" style="fill:none;stroke:#1f77b4;stroke-linecap:square;stroke-width:1.5;"/>
   </g>
   <g id="line2d_14">
    <path clip-path="url(#p125b29171a)" d="M 80.754545 342.664148 
L 81.251673 343.837207 
L 81.695536 344.398522 
L 82.095014 344.573792 
L 82.538877 344.515266 
L 83.275691 344.145398 
L 84.38535 343.63717 
L 85.210936 343.518618 
L 86.453755 343.602422 
L 88.513282 343.704648 
L 111.079309 343.674742 
L 151.772727 343.674742 
L 152.314241 299.363126 
L 152.420768 253.747406 
L 152.571682 66.96 
L 152.695964 96.656168 
L 153.574814 369.36 
L 153.583691 369.357313 
L 153.654709 369.09667 
L 153.965414 366.769659 
L 154.480295 361.223019 
L 155.261495 349.946245 
L 156.770632 328.397584 
L 157.276636 319.781794 
L 157.516323 311.565746 
L 157.676114 297.484481 
L 157.791518 263.730291 
L 157.906923 132.194652 
L 157.977941 92.131401 
L 158.031205 102.388028 
L 158.608227 313.051263 
L 158.839036 368.556154 
L 158.901177 368.933507 
L 158.954441 368.771968 
L 159.194127 367.031787 
L 159.691255 361.822414 
L 160.428068 351.374664 
L 161.990468 329.100874 
L 162.549736 320.116261 
L 162.7983 312.284033 
L 162.966968 298.823535 
L 163.082373 269.270017 
L 163.1889 162.787035 
L 163.277673 93.10925 
L 163.330936 102.549215 
L 163.87245 298.267377 
L 164.147645 368.652816 
L 164.200909 368.901869 
L 164.26305 368.695228 
L 164.529368 366.682805 
L 165.04425 361.101759 
L 165.834327 349.66918 
L 167.245814 329.646783 
L 167.840591 320.258304 
L 168.098032 312.201825 
L 168.2667 298.629023 
L 168.382105 268.653494 
L 168.488632 160.923584 
L 168.577405 93.191307 
L 168.630668 102.985571 
L 169.189936 306.288494 
L 169.4385 368.547718 
L 169.491764 368.899828 
L 169.553905 368.73045 
L 169.802468 366.901272 
L 170.308473 361.525759 
L 171.063041 350.734453 
L 172.554423 329.505288 
L 173.140323 320.22309 
L 173.388886 312.545405 
L 173.557555 299.604841 
L 173.672959 271.976034 
L 173.770609 185.305707 
L 173.877136 93.226767 
L 173.9304 103.443887 
L 174.507423 314.718319 
L 174.738232 368.571099 
L 174.791495 368.900281 
L 174.853636 368.722663 
L 175.1022 366.887616 
L 175.608205 361.506189 
L 176.37165 350.573858 
L 177.854155 329.484348 
L 178.440055 320.189057 
L 178.688618 312.472894 
L 178.857286 299.402005 
L 178.972691 271.296975 
L 179.079218 169.705147 
L 179.176868 93.280689 
L 179.230132 103.908954 
L 179.816032 319.396012 
L 180.029086 368.449624 
L 180.091227 368.900533 
L 180.153368 368.714897 
L 180.410809 366.796413 
L 180.916814 361.375782 
L 181.689136 350.276917 
L 183.145009 329.582202 
L 183.739786 320.154993 
L 183.98835 312.400033 
L 184.157018 299.196232 
L 184.272423 270.601358 
L 184.37895 167.328957 
L 184.467723 93.234109 
L 184.529864 104.383628 
L 185.133518 328.139192 
L 185.328818 368.477949 
L 185.390959 368.900411 
L 185.4531 368.706918 
L 185.710541 366.782579 
L 186.216545 361.356047 
L 186.988868 350.25271 
L 188.444741 329.561173 
L 189.030641 320.31376 
L 189.288082 312.3262 
L 189.45675 298.986798 
L 189.572155 269.886978 
L 189.678682 164.942377 
L 189.767455 93.197844 
L 189.829595 104.864025 
L 190.451005 336.684477 
L 190.637427 368.635722 
L 190.690691 368.899997 
L 190.752832 368.698894 
L 191.01915 366.690281 
L 191.534032 361.112447 
L 192.324109 349.682198 
L 193.735595 329.658812 
L 194.330373 320.279921 
L 194.587814 312.251996 
L 194.756482 298.775568 
L 194.871886 269.163152 
L 194.978414 162.573411 
L 195.067186 93.189606 
L 195.12045 102.674226 
L 195.661964 298.446613 
L 195.937159 368.655211 
L 195.990423 368.899226 
L 196.043686 368.735489 
L 196.283373 366.987085 
L 196.789377 361.649027 
L 197.535068 351.023264 
L 199.053082 329.400583 
L 199.630105 320.246047 
L 199.887545 312.1772 
L 200.056214 298.561631 
L 200.171618 268.424297 
L 200.278145 160.20719 
L 200.366918 93.204295 
L 200.420182 103.130353 
L 200.97945 306.49946 
L 201.228014 368.555075 
L 201.281277 368.899876 
L 201.343418 368.727875 
L 201.591982 366.896813 
L 202.097986 361.519369 
L 202.852555 350.726572 
L 204.343936 329.498488 
L 204.929836 320.212144 
L 205.1784 312.522209 
L 205.347068 299.540545 
L 205.462473 271.761469 
L 205.560123 184.579567 
L 205.66665 93.242076 
L 205.719914 103.591465 
L 206.296936 314.939198 
L 206.518868 368.429802 
L 206.581009 368.900403 
L 206.64315 368.720191 
L 206.900591 366.805694 
L 207.406595 361.389028 
L 208.178918 350.293177 
L 209.634791 329.596342 
L 210.229568 320.178204 
L 210.478132 312.449715 
L 210.6468 299.336652 
L 210.762205 271.077079 
L 210.868732 168.949415 
L 210.957505 93.273464 
L 211.019645 104.059405 
L 211.614423 323.638231 
L 211.8186 368.458711 
L 211.880741 368.90051 
L 211.942882 368.712361 
L 212.200323 366.79201 
L 212.706327 361.3695 
L 213.47865 350.269209 
L 214.934523 329.575504 
L 215.5293 320.144023 
L 215.777864 312.376563 
L 215.946532 299.129736 
L 216.061936 270.374718 
L 216.168464 166.566796 
L 216.257236 93.219575 
L 216.319377 104.536297 
L 216.931909 332.337607 
L 217.118332 368.486786 
L 217.180473 368.900334 
L 217.242614 368.704374 
L 217.508932 366.699738 
L 218.023814 361.125944 
L 218.813891 349.698598 
L 220.225377 329.673044 
L 220.820155 320.302976 
L 221.077595 312.302571 
L 221.246264 298.919594 
L 221.361668 269.657243 
L 221.468195 164.183714 
L 221.556968 93.192037 
L 221.610232 102.367083 
L 222.142868 294.465845 
L 222.435818 368.738271 
L 222.480205 368.899783 
L 222.542345 368.696295 
L 222.808664 366.685822 
L 223.323545 361.106084 
L 224.113623 349.67447 
L 225.525109 329.652114 
L 226.119886 320.269071 
L 226.377327 312.228058 
L 226.545995 298.707168 
L 226.6614 268.927701 
L 226.767927 161.812717 
L 226.8567 93.19132 
L 226.909964 102.820299 
L 227.460355 302.304858 
L 227.726673 368.661235 
L 227.779936 368.898914 
L 227.8332 368.733056 
L 228.081764 366.905996 
L 228.587768 361.532533 
L 229.342336 350.742814 
L 230.842595 329.393881 
L 231.419618 320.235198 
L 231.677059 312.153188 
L 231.845727 298.492809 
L 231.961132 268.185178 
L 232.067659 159.451819 
L 232.156432 93.213566 
L 232.209695 103.277264 
L 232.777841 310.553492 
L 233.017527 368.562649 
L 233.070791 368.900082 
L 233.132932 368.725433 
L 233.381495 366.892496 
L 233.8875 361.513182 
L 234.642068 350.718941 
L 236.13345 329.491846 
L 236.71935 320.201297 
L 236.967914 312.499041 
L 237.136582 299.475697 
L 237.251986 271.544245 
L 237.349636 183.849388 
L 237.456164 93.258908 
L 237.509427 103.739638 
L 238.095327 319.14166 
L 238.308382 368.439167 
L 238.370523 368.900491 
L 238.432664 368.717725 
L 238.690105 366.801358 
L 239.196109 361.382838 
L 239.968432 350.285577 
L 241.424305 329.58974 
L 242.019082 320.167372 
L 242.267645 312.426538 
L 242.436314 299.271215 
L 242.551718 270.856086 
L 242.658245 168.193793 
L 242.747018 93.253825 
L 242.809159 104.210377 
L 243.412814 327.881489 
L 243.608114 368.46772 
L 243.670255 368.900465 
L 243.732395 368.709816 
L 243.989836 366.787601 
L 244.495841 361.36321 
L 245.268164 350.261494 
L 246.724036 329.568803 
L 247.318814 320.133051 
L 247.567377 312.353074 
L 247.736045 299.063134 
L 247.85145 270.147566 
L 247.957977 165.809074 
L 248.04675 93.207975 
L 248.108891 104.688464 
L 248.721423 332.557198 
L 248.907845 368.495328 
L 248.969986 368.900201 
L 249.032127 368.701836 
L 249.298445 366.695347 
L 249.813327 361.119676 
L 250.603405 349.690981 
L 252.014891 329.666431 
L 252.609668 320.292269 
L 252.867109 312.279084 
L 253.035777 298.85273 
L 253.151182 269.428061 
L 253.257709 163.434498 
L 253.346482 93.189708 
L 253.399745 102.509434 
L 253.941259 298.215512 
L 254.216455 368.6482 
L 254.269718 368.899536 
L 254.331859 368.693721 
L 254.598177 366.681423 
L 255.113059 361.09981 
L 255.903136 349.666851 
L 257.314623 329.645515 
L 257.9094 320.258385 
L 258.166841 312.204458 
L 258.335509 298.639658 
L 258.450914 268.694447 
L 258.557441 161.063388 
L 258.646214 93.195846 
L 258.699477 102.964625 
L 259.258745 306.258306 
L 259.507309 368.546402 
L 259.560573 368.899618 
L 259.622714 368.730639 
L 259.871277 366.901707 
L 260.377282 361.526384 
L 261.13185 350.735226 
L 262.623232 329.506015 
L 263.209132 320.224431 
L 263.457695 312.54843 
L 263.626364 299.61346 
L 263.741768 272.005024 
L 263.839418 185.40462 
L 263.945945 93.225304 
L 263.999209 103.424209 
L 264.576232 314.688861 
L 264.807041 368.570096 
L 264.860305 368.900249 
L 264.922445 368.72298 
L 265.171009 366.88818 
L 265.677014 361.506997 
L 266.440459 350.574855 
L 267.922964 329.485217 
L 268.508864 320.190483 
L 268.757427 312.475951 
L 268.926095 299.410638 
L 269.0415 271.325967 
L 269.148027 169.805157 
L 269.245677 93.277945 
L 269.298941 103.889114 
L 269.884841 319.366269 
L 270.097895 368.448414 
L 270.160036 368.900532 
L 270.222177 368.71523 
L 270.479618 366.796993 
L 270.985623 361.37661 
L 271.757945 350.277933 
L 273.213818 329.583086 
L 273.808595 320.156444 
L 274.057159 312.403139 
L 274.225827 299.205032 
L 274.341232 270.631346 
L 274.447759 167.4305 
L 274.536532 93.236294 
L 274.598673 104.363263 
L 275.202327 328.108936 
L 275.397627 368.476752 
L 275.459768 368.900418 
L 275.521909 368.707258 
L 275.77935 366.783167 
L 276.285355 361.356886 
L 277.057677 350.253739 
L 278.51355 329.562068 
L 279.108327 320.122016 
L 279.356891 312.329358 
L 279.525559 298.995775 
L 279.640964 269.917634 
L 279.747491 165.043928 
L 279.836264 93.198821 
L 279.898405 104.843378 
L 280.519814 336.655707 
L 280.706236 368.634868 
L 280.7595 368.900024 
L 280.821641 368.699241 
L 281.087959 366.690877 
L 281.602841 361.113298 
L 282.392918 349.683231 
L 283.804405 329.659708 
L 284.399182 320.281371 
L 284.656623 312.255178 
L 284.825291 298.784634 
L 284.940695 269.194285 
L 285.047223 162.674297 
L 285.135995 93.1895 
L 285.189259 102.654871 
L 285.730773 298.41953 
L 286.005968 368.654392 
L 286.059232 368.899262 
L 286.112495 368.735812 
L 286.352182 366.98766 
L 286.858186 361.649856 
L 287.603877 351.024291 
L 289.130768 329.282593 
L 289.707791 320.053091 
L 289.956355 312.180387 
L 290.125023 298.570758 
L 290.240427 268.455992 
L 290.346955 160.307505 
L 290.435727 93.203205 
L 290.488991 103.110906 
L 291.048259 306.471224 
L 291.296823 368.554064 
L 291.350086 368.899847 
L 291.412227 368.728199 
L 291.660791 366.897385 
L 292.166795 361.520189 
L 292.921364 350.727584 
L 294.412745 329.499369 
L 294.998645 320.213583 
L 295.247209 312.52528 
L 295.415877 299.549092 
L 295.531282 271.790055 
L 295.628932 184.676383 
L 295.735459 93.239991 
L 295.788723 103.571826 
L 296.365745 314.909853 
L 296.596555 368.577462 
L 296.649818 368.900391 
L 296.711959 368.72052 
L 296.9694 366.806273 
L 297.475405 361.389854 
L 298.247727 350.294191 
L 299.7036 329.597222 
L 300.298377 320.179648 
L 300.546941 312.452802 
L 300.715609 299.345364 
L 300.831014 271.106449 
L 300.937541 169.050229 
L 301.026314 93.276257 
L 301.088455 104.039292 
L 301.683232 323.608064 
L 301.887409 368.457504 
L 301.94955 368.900515 
L 302.011691 368.7127 
L 302.269132 366.792598 
L 302.775136 361.370339 
L 303.547459 350.270239 
L 305.003332 329.576398 
L 305.598109 320.145487 
L 305.846673 312.379695 
L 306.015341 299.138611 
L 306.130745 270.404974 
L 306.237273 166.667853 
L 306.326045 93.22131 
L 306.388186 104.516101 
L 307.000718 332.308301 
L 307.187141 368.485631 
L 307.249282 368.900346 
L 307.311423 368.704709 
L 307.577741 366.700321 
L 308.092623 361.126777 
L 308.8827 349.69961 
L 310.294186 329.673922 
L 310.888964 320.304397 
L 311.146405 312.305686 
L 311.315073 298.928457 
L 311.430477 269.687561 
L 311.537005 164.283543 
L 311.625777 93.192613 
L 311.679041 102.348167 
L 312.211677 294.439851 
L 312.504627 368.737664 
L 312.549014 368.899813 
L 312.611155 368.696637 
L 312.877473 366.686408 
L 313.392355 361.10692 
L 314.182432 349.675485 
L 315.593918 329.652994 
L 316.188695 320.270496 
L 316.446136 312.231206 
L 316.614805 298.716169 
L 316.730209 268.958753 
L 316.836736 161.912701 
L 316.925509 93.190949 
L 316.978773 102.801076 
L 317.529164 302.277387 
L 317.795482 368.660454 
L 317.848745 368.898958 
L 317.902009 368.733376 
L 318.150573 366.906566 
L 318.656577 361.533352 
L 319.411145 350.743824 
L 320.911405 329.39476 
L 321.488427 320.236625 
L 321.745868 312.156354 
L 321.914536 298.50189 
L 322.029941 268.216744 
L 322.136468 159.551401 
L 322.225241 93.212231 
L 322.278505 103.257834 
L 322.84665 310.524726 
L 323.086336 368.561655 
L 323.1396 368.900057 
L 323.201741 368.725756 
L 323.450305 366.893067 
L 323.956309 361.514 
L 324.710877 350.71995 
L 326.202259 329.492724 
L 326.788159 320.202731 
L 327.036723 312.502103 
L 327.205391 299.484322 
L 327.320795 271.573174 
L 327.418445 183.946452 
L 327.524973 93.25656 
L 327.578236 103.719903 
L 328.164136 319.111986 
L 328.377191 368.437934 
L 328.439332 368.900482 
L 328.501473 368.718053 
L 328.758914 366.801933 
L 329.264918 361.383659 
L 329.318182 360.707003 
L 329.335936 361.615725 
L 329.540114 365.88114 
L 329.637764 366.122723 
L 329.68215 366.082029 
L 329.824186 365.600818 
L 330.179277 363.381099 
L 332.61165 346.599837 
L 333.250814 344.176717 
L 333.774573 342.969065 
L 334.191805 342.499882 
L 334.555773 342.395692 
L 334.946373 342.527382 
L 335.576659 343.027356 
L 336.51765 343.712741 
L 337.174568 343.909693 
L 337.964645 343.89709 
L 341.062814 343.636275 
L 347.7474 343.674038 
L 435.845455 343.674742 
L 435.845455 343.674742 
" style="fill:none;stroke:#ff0000;stroke-linecap:square;stroke-width:1.5;"/>
   </g>
   <g id="patch_3">
    <path d="M 63 384.48 
L 63 51.84 
" style="fill:none;stroke:#000000;stroke-linecap:square;stroke-linejoin:miter;stroke-width:0.8;"/>
   </g>
   <g id="patch_4">
    <path d="M 453.6 384.48 
L 453.6 51.84 
" style="fill:none;stroke:#000000;stroke-linecap:square;stroke-linejoin:miter;stroke-width:0.8;"/>
   </g>
   <g id="patch_5">
    <path d="M 63 384.48 
L 453.6 384.48 
" style="fill:none;stroke:#000000;stroke-linecap:square;stroke-linejoin:miter;stroke-width:0.8;"/>
   </g>
   <g id="patch_6">
    <path d="M 63 51.84 
L 453.6 51.84 
" style="fill:none;stroke:#000000;stroke-linecap:square;stroke-linejoin:miter;stroke-width:0.8;"/>
   </g>
   <g id="legend_1">
    <g id="patch_7">
     <path d="M 383.460938 89.19625 
L 446.6 89.19625 
Q 448.6 89.19625 448.6 87.19625 
L 448.6 58.84 
Q 448.6 56.84 446.6 56.84 
L 383.460938 56.84 
Q 381.460938 56.84 381.460938 58.84 
L 381.460938 87.19625 
Q 381.460938 89.19625 383.460938 89.19625 
z
" style="fill:#ffffff;opacity:0.8;stroke:#cccccc;stroke-linejoin:miter;"/>
    </g>
    <g id="line2d_15">
     <path d="M 385.460938 64.938437 
L 405.460938 64.938437 
" style="fill:none;stroke:#1f77b4;stroke-linecap:square;stroke-width:1.5;"/>
    </g>
    <g id="line2d_16"/>
    <g id="text_15">
     <!-- target -->
     <defs>
      <path d="M 41.109375 46.296875 
Q 39.59375 47.171875 37.8125 47.578125 
Q 36.03125 48 33.890625 48 
Q 26.265625 48 22.1875 43.046875 
Q 18.109375 38.09375 18.109375 28.8125 
L 18.109375 0 
L 9.078125 0 
L 9.078125 54.6875 
L 18.109375 54.6875 
L 18.109375 46.1875 
Q 20.953125 51.171875 25.484375 53.578125 
Q 30.03125 56 36.53125 56 
Q 37.453125 56 38.578125 55.875 
Q 39.703125 55.765625 41.0625 55.515625 
z
" id="DejaVuSans-72"/>
     </defs>
     <g transform="translate(413.460938 68.438437)scale(0.1 -0.1)">
      <use xlink:href="#DejaVuSans-74"/>
      <use x="39.208984" xlink:href="#DejaVuSans-61"/>
      <use x="100.488281" xlink:href="#DejaVuSans-72"/>
      <use x="141.585938" xlink:href="#DejaVuSans-67"/>
      <use x="205.0625" xlink:href="#DejaVuSans-65"/>
      <use x="266.585938" xlink:href="#DejaVuSans-74"/>
     </g>
    </g>
    <g id="line2d_17">
     <path d="M 385.460938 79.616562 
L 405.460938 79.616562 
" style="fill:none;stroke:#ff0000;stroke-linecap:square;stroke-width:1.5;"/>
    </g>
    <g id="line2d_18"/>
    <g id="text_16">
     <!-- model -->
     <defs>
      <path d="M 45.40625 46.390625 
L 45.40625 75.984375 
L 54.390625 75.984375 
L 54.390625 0 
L 45.40625 0 
L 45.40625 8.203125 
Q 42.578125 3.328125 38.25 0.953125 
Q 33.9375 -1.421875 27.875 -1.421875 
Q 17.96875 -1.421875 11.734375 6.484375 
Q 5.515625 14.40625 5.515625 27.296875 
Q 5.515625 40.1875 11.734375 48.09375 
Q 17.96875 56 27.875 56 
Q 33.9375 56 38.25 53.625 
Q 42.578125 51.265625 45.40625 46.390625 
z
M 14.796875 27.296875 
Q 14.796875 17.390625 18.875 11.75 
Q 22.953125 6.109375 30.078125 6.109375 
Q 37.203125 6.109375 41.296875 11.75 
Q 45.40625 17.390625 45.40625 27.296875 
Q 45.40625 37.203125 41.296875 42.84375 
Q 37.203125 48.484375 30.078125 48.484375 
Q 22.953125 48.484375 18.875 42.84375 
Q 14.796875 37.203125 14.796875 27.296875 
z
" id="DejaVuSans-64"/>
     </defs>
     <g transform="translate(413.460938 83.116562)scale(0.1 -0.1)">
      <use xlink:href="#DejaVuSans-6d"/>
      <use x="97.412109" xlink:href="#DejaVuSans-6f"/>
      <use x="158.59375" xlink:href="#DejaVuSans-64"/>
      <use x="222.070312" xlink:href="#DejaVuSans-65"/>
      <use x="283.59375" xlink:href="#DejaVuSans-6c"/>
     </g>
    </g>
   </g>
  </g>
 </g>
 <defs>
  <clipPath id="p125b29171a">
   <rect height="332.64" width="390.6" x="63" y="51.84"/>
  </clipPath>
 </defs>
</svg>
