<?xml version="1.0" encoding="utf-8" standalone="no"?>
<!DOCTYPE svg PUBLIC "-//W3C//DTD SVG 1.1//EN"
  "http://www.w3.org/Graphics/SVG/1.1/DTD/svg11.dtd">
<!-- Created with matplotlib (http://matplotlib.org/) -->
<svg height="432pt" version="1.1" viewBox="0 0 504 432" width="504pt" xmlns="http://www.w3.org/2000/svg" xmlns:xlink="http://www.w3.org/1999/xlink">
 <defs>
  <style type="text/css">
*{stroke-linecap:butt;stroke-linejoin:round;}
  </style>
 </defs>
 <g id="figure_1">
  <g id="patch_1">
   <path d="M 0 432 
L 504 432 
L 504 0 
L 0 0 
z
" style="fill:#ffffff;"/>
  </g>
  <g id="axes_1">
   <g id="patch_2">
    <path d="M 63 384.48 
L 453.6 384.48 
L 453.6 51.84 
L 63 51.84 
z
" style="fill:#ffffff;"/>
   </g>
   <g id="matplotlib.axis_1">
    <g id="xtick_1">
     <g id="line2d_1">
      <defs>
       <path d="M 0 0 
L 0 3.5 
" id="mdd287d0108" style="stroke:#000000;stroke-width:0.8;"/>
      </defs>
      <g>
       <use style="stroke:#000000;stroke-width:0.8;" x="80.754545" xlink:href="#mdd287d0108" y="384.48"/>
      </g>
     </g>
     <g id="text_1">
      <!-- 0 -->
      <defs>
       <path d="M 31.78125 66.40625 
Q 24.171875 66.40625 20.328125 58.90625 
Q 16.5 51.421875 16.5 36.375 
Q 16.5 21.390625 20.328125 13.890625 
Q 24.171875 6.390625 31.78125 6.390625 
Q 39.453125 6.390625 43.28125 13.890625 
Q 47.125 21.390625 47.125 36.375 
Q 47.125 51.421875 43.28125 58.90625 
Q 39.453125 66.40625 31.78125 66.40625 
z
M 31.78125 74.21875 
Q 44.046875 74.21875 50.515625 64.515625 
Q 56.984375 54.828125 56.984375 36.375 
Q 56.984375 17.96875 50.515625 8.265625 
Q 44.046875 -1.421875 31.78125 -1.421875 
Q 19.53125 -1.421875 13.0625 8.265625 
Q 6.59375 17.96875 6.59375 36.375 
Q 6.59375 54.828125 13.0625 64.515625 
Q 19.53125 74.21875 31.78125 74.21875 
z
" id="DejaVuSans-30"/>
      </defs>
      <g transform="translate(77.573295 399.078438)scale(0.1 -0.1)">
       <use xlink:href="#DejaVuSans-30"/>
      </g>
     </g>
    </g>
    <g id="xtick_2">
     <g id="line2d_2">
      <g>
       <use style="stroke:#000000;stroke-width:0.8;" x="151.772727" xlink:href="#mdd287d0108" y="384.48"/>
      </g>
     </g>
     <g id="text_2">
      <!-- 200 -->
      <defs>
       <path d="M 19.1875 8.296875 
L 53.609375 8.296875 
L 53.609375 0 
L 7.328125 0 
L 7.328125 8.296875 
Q 12.9375 14.109375 22.625 23.890625 
Q 32.328125 33.6875 34.8125 36.53125 
Q 39.546875 41.84375 41.421875 45.53125 
Q 43.3125 49.21875 43.3125 52.78125 
Q 43.3125 58.59375 39.234375 62.25 
Q 35.15625 65.921875 28.609375 65.921875 
Q 23.96875 65.921875 18.8125 64.3125 
Q 13.671875 62.703125 7.8125 59.421875 
L 7.8125 69.390625 
Q 13.765625 71.78125 18.9375 73 
Q 24.125 74.21875 28.421875 74.21875 
Q 39.75 74.21875 46.484375 68.546875 
Q 53.21875 62.890625 53.21875 53.421875 
Q 53.21875 48.921875 51.53125 44.890625 
Q 49.859375 40.875 45.40625 35.40625 
Q 44.1875 33.984375 37.640625 27.21875 
Q 31.109375 20.453125 19.1875 8.296875 
z
" id="DejaVuSans-32"/>
      </defs>
      <g transform="translate(142.228977 399.078438)scale(0.1 -0.1)">
       <use xlink:href="#DejaVuSans-32"/>
       <use x="63.623047" xlink:href="#DejaVuSans-30"/>
       <use x="127.246094" xlink:href="#DejaVuSans-30"/>
      </g>
     </g>
    </g>
    <g id="xtick_3">
     <g id="line2d_3">
      <g>
       <use style="stroke:#000000;stroke-width:0.8;" x="222.790909" xlink:href="#mdd287d0108" y="384.48"/>
      </g>
     </g>
     <g id="text_3">
      <!-- 400 -->
      <defs>
       <path d="M 37.796875 64.3125 
L 12.890625 25.390625 
L 37.796875 25.390625 
z
M 35.203125 72.90625 
L 47.609375 72.90625 
L 47.609375 25.390625 
L 58.015625 25.390625 
L 58.015625 17.1875 
L 47.609375 17.1875 
L 47.609375 0 
L 37.796875 0 
L 37.796875 17.1875 
L 4.890625 17.1875 
L 4.890625 26.703125 
z
" id="DejaVuSans-34"/>
      </defs>
      <g transform="translate(213.247159 399.078438)scale(0.1 -0.1)">
       <use xlink:href="#DejaVuSans-34"/>
       <use x="63.623047" xlink:href="#DejaVuSans-30"/>
       <use x="127.246094" xlink:href="#DejaVuSans-30"/>
      </g>
     </g>
    </g>
    <g id="xtick_4">
     <g id="line2d_4">
      <g>
       <use style="stroke:#000000;stroke-width:0.8;" x="293.809091" xlink:href="#mdd287d0108" y="384.48"/>
      </g>
     </g>
     <g id="text_4">
      <!-- 600 -->
      <defs>
       <path d="M 33.015625 40.375 
Q 26.375 40.375 22.484375 35.828125 
Q 18.609375 31.296875 18.609375 23.390625 
Q 18.609375 15.53125 22.484375 10.953125 
Q 26.375 6.390625 33.015625 6.390625 
Q 39.65625 6.390625 43.53125 10.953125 
Q 47.40625 15.53125 47.40625 23.390625 
Q 47.40625 31.296875 43.53125 35.828125 
Q 39.65625 40.375 33.015625 40.375 
z
M 52.59375 71.296875 
L 52.59375 62.3125 
Q 48.875 64.0625 45.09375 64.984375 
Q 41.3125 65.921875 37.59375 65.921875 
Q 27.828125 65.921875 22.671875 59.328125 
Q 17.53125 52.734375 16.796875 39.40625 
Q 19.671875 43.65625 24.015625 45.921875 
Q 28.375 48.1875 33.59375 48.1875 
Q 44.578125 48.1875 50.953125 41.515625 
Q 57.328125 34.859375 57.328125 23.390625 
Q 57.328125 12.15625 50.6875 5.359375 
Q 44.046875 -1.421875 33.015625 -1.421875 
Q 20.359375 -1.421875 13.671875 8.265625 
Q 6.984375 17.96875 6.984375 36.375 
Q 6.984375 53.65625 15.1875 63.9375 
Q 23.390625 74.21875 37.203125 74.21875 
Q 40.921875 74.21875 44.703125 73.484375 
Q 48.484375 72.75 52.59375 71.296875 
z
" id="DejaVuSans-36"/>
      </defs>
      <g transform="translate(284.265341 399.078438)scale(0.1 -0.1)">
       <use xlink:href="#DejaVuSans-36"/>
       <use x="63.623047" xlink:href="#DejaVuSans-30"/>
       <use x="127.246094" xlink:href="#DejaVuSans-30"/>
      </g>
     </g>
    </g>
    <g id="xtick_5">
     <g id="line2d_5">
      <g>
       <use style="stroke:#000000;stroke-width:0.8;" x="364.827273" xlink:href="#mdd287d0108" y="384.48"/>
      </g>
     </g>
     <g id="text_5">
      <!-- 800 -->
      <defs>
       <path d="M 31.78125 34.625 
Q 24.75 34.625 20.71875 30.859375 
Q 16.703125 27.09375 16.703125 20.515625 
Q 16.703125 13.921875 20.71875 10.15625 
Q 24.75 6.390625 31.78125 6.390625 
Q 38.8125 6.390625 42.859375 10.171875 
Q 46.921875 13.96875 46.921875 20.515625 
Q 46.921875 27.09375 42.890625 30.859375 
Q 38.875 34.625 31.78125 34.625 
z
M 21.921875 38.8125 
Q 15.578125 40.375 12.03125 44.71875 
Q 8.5 49.078125 8.5 55.328125 
Q 8.5 64.0625 14.71875 69.140625 
Q 20.953125 74.21875 31.78125 74.21875 
Q 42.671875 74.21875 48.875 69.140625 
Q 55.078125 64.0625 55.078125 55.328125 
Q 55.078125 49.078125 51.53125 44.71875 
Q 48 40.375 41.703125 38.8125 
Q 48.828125 37.15625 52.796875 32.3125 
Q 56.78125 27.484375 56.78125 20.515625 
Q 56.78125 9.90625 50.3125 4.234375 
Q 43.84375 -1.421875 31.78125 -1.421875 
Q 19.734375 -1.421875 13.25 4.234375 
Q 6.78125 9.90625 6.78125 20.515625 
Q 6.78125 27.484375 10.78125 32.3125 
Q 14.796875 37.15625 21.921875 38.8125 
z
M 18.3125 54.390625 
Q 18.3125 48.734375 21.84375 45.5625 
Q 25.390625 42.390625 31.78125 42.390625 
Q 38.140625 42.390625 41.71875 45.5625 
Q 45.3125 48.734375 45.3125 54.390625 
Q 45.3125 60.0625 41.71875 63.234375 
Q 38.140625 66.40625 31.78125 66.40625 
Q 25.390625 66.40625 21.84375 63.234375 
Q 18.3125 60.0625 18.3125 54.390625 
z
" id="DejaVuSans-38"/>
      </defs>
      <g transform="translate(355.283523 399.078438)scale(0.1 -0.1)">
       <use xlink:href="#DejaVuSans-38"/>
       <use x="63.623047" xlink:href="#DejaVuSans-30"/>
       <use x="127.246094" xlink:href="#DejaVuSans-30"/>
      </g>
     </g>
    </g>
    <g id="text_6">
     <!-- time [ms] -->
     <defs>
      <path d="M 18.3125 70.21875 
L 18.3125 54.6875 
L 36.8125 54.6875 
L 36.8125 47.703125 
L 18.3125 47.703125 
L 18.3125 18.015625 
Q 18.3125 11.328125 20.140625 9.421875 
Q 21.96875 7.515625 27.59375 7.515625 
L 36.8125 7.515625 
L 36.8125 0 
L 27.59375 0 
Q 17.1875 0 13.234375 3.875 
Q 9.28125 7.765625 9.28125 18.015625 
L 9.28125 47.703125 
L 2.6875 47.703125 
L 2.6875 54.6875 
L 9.28125 54.6875 
L 9.28125 70.21875 
z
" id="DejaVuSans-74"/>
      <path d="M 9.421875 54.6875 
L 18.40625 54.6875 
L 18.40625 0 
L 9.421875 0 
z
M 9.421875 75.984375 
L 18.40625 75.984375 
L 18.40625 64.59375 
L 9.421875 64.59375 
z
" id="DejaVuSans-69"/>
      <path d="M 52 44.1875 
Q 55.375 50.25 60.0625 53.125 
Q 64.75 56 71.09375 56 
Q 79.640625 56 84.28125 50.015625 
Q 88.921875 44.046875 88.921875 33.015625 
L 88.921875 0 
L 79.890625 0 
L 79.890625 32.71875 
Q 79.890625 40.578125 77.09375 44.375 
Q 74.3125 48.1875 68.609375 48.1875 
Q 61.625 48.1875 57.5625 43.546875 
Q 53.515625 38.921875 53.515625 30.90625 
L 53.515625 0 
L 44.484375 0 
L 44.484375 32.71875 
Q 44.484375 40.625 41.703125 44.40625 
Q 38.921875 48.1875 33.109375 48.1875 
Q 26.21875 48.1875 22.15625 43.53125 
Q 18.109375 38.875 18.109375 30.90625 
L 18.109375 0 
L 9.078125 0 
L 9.078125 54.6875 
L 18.109375 54.6875 
L 18.109375 46.1875 
Q 21.1875 51.21875 25.484375 53.609375 
Q 29.78125 56 35.6875 56 
Q 41.65625 56 45.828125 52.96875 
Q 50 49.953125 52 44.1875 
z
" id="DejaVuSans-6d"/>
      <path d="M 56.203125 29.59375 
L 56.203125 25.203125 
L 14.890625 25.203125 
Q 15.484375 15.921875 20.484375 11.0625 
Q 25.484375 6.203125 34.421875 6.203125 
Q 39.59375 6.203125 44.453125 7.46875 
Q 49.3125 8.734375 54.109375 11.28125 
L 54.109375 2.78125 
Q 49.265625 0.734375 44.1875 -0.34375 
Q 39.109375 -1.421875 33.890625 -1.421875 
Q 20.796875 -1.421875 13.15625 6.1875 
Q 5.515625 13.8125 5.515625 26.8125 
Q 5.515625 40.234375 12.765625 48.109375 
Q 20.015625 56 32.328125 56 
Q 43.359375 56 49.78125 48.890625 
Q 56.203125 41.796875 56.203125 29.59375 
z
M 47.21875 32.234375 
Q 47.125 39.59375 43.09375 43.984375 
Q 39.0625 48.390625 32.421875 48.390625 
Q 24.90625 48.390625 20.390625 44.140625 
Q 15.875 39.890625 15.1875 32.171875 
z
" id="DejaVuSans-65"/>
      <path id="DejaVuSans-20"/>
      <path d="M 8.59375 75.984375 
L 29.296875 75.984375 
L 29.296875 69 
L 17.578125 69 
L 17.578125 -6.203125 
L 29.296875 -6.203125 
L 29.296875 -13.1875 
L 8.59375 -13.1875 
z
" id="DejaVuSans-5b"/>
      <path d="M 44.28125 53.078125 
L 44.28125 44.578125 
Q 40.484375 46.53125 36.375 47.5 
Q 32.28125 48.484375 27.875 48.484375 
Q 21.1875 48.484375 17.84375 46.4375 
Q 14.5 44.390625 14.5 40.28125 
Q 14.5 37.15625 16.890625 35.375 
Q 19.28125 33.59375 26.515625 31.984375 
L 29.59375 31.296875 
Q 39.15625 29.25 43.1875 25.515625 
Q 47.21875 21.78125 47.21875 15.09375 
Q 47.21875 7.46875 41.1875 3.015625 
Q 35.15625 -1.421875 24.609375 -1.421875 
Q 20.21875 -1.421875 15.453125 -0.5625 
Q 10.6875 0.296875 5.421875 2 
L 5.421875 11.28125 
Q 10.40625 8.6875 15.234375 7.390625 
Q 20.0625 6.109375 24.8125 6.109375 
Q 31.15625 6.109375 34.5625 8.28125 
Q 37.984375 10.453125 37.984375 14.40625 
Q 37.984375 18.0625 35.515625 20.015625 
Q 33.0625 21.96875 24.703125 23.78125 
L 21.578125 24.515625 
Q 13.234375 26.265625 9.515625 29.90625 
Q 5.8125 33.546875 5.8125 39.890625 
Q 5.8125 47.609375 11.28125 51.796875 
Q 16.75 56 26.8125 56 
Q 31.78125 56 36.171875 55.265625 
Q 40.578125 54.546875 44.28125 53.078125 
z
" id="DejaVuSans-73"/>
      <path d="M 30.421875 75.984375 
L 30.421875 -13.1875 
L 9.71875 -13.1875 
L 9.71875 -6.203125 
L 21.390625 -6.203125 
L 21.390625 69 
L 9.71875 69 
L 9.71875 75.984375 
z
" id="DejaVuSans-5d"/>
     </defs>
     <g transform="translate(234.038281 412.756563)scale(0.1 -0.1)">
      <use xlink:href="#DejaVuSans-74"/>
      <use x="39.208984" xlink:href="#DejaVuSans-69"/>
      <use x="66.992188" xlink:href="#DejaVuSans-6d"/>
      <use x="164.404297" xlink:href="#DejaVuSans-65"/>
      <use x="225.927734" xlink:href="#DejaVuSans-20"/>
      <use x="257.714844" xlink:href="#DejaVuSans-5b"/>
      <use x="296.728516" xlink:href="#DejaVuSans-6d"/>
      <use x="394.140625" xlink:href="#DejaVuSans-73"/>
      <use x="446.240234" xlink:href="#DejaVuSans-5d"/>
     </g>
    </g>
   </g>
   <g id="matplotlib.axis_2">
    <g id="ytick_1">
     <g id="line2d_6">
      <defs>
       <path d="M 0 0 
L -3.5 0 
" id="m25fedd348b" style="stroke:#000000;stroke-width:0.8;"/>
      </defs>
      <g>
       <use style="stroke:#000000;stroke-width:0.8;" x="63" xlink:href="#m25fedd348b" y="379.889636"/>
      </g>
     </g>
     <g id="text_7">
      <!-- −80 -->
      <defs>
       <path d="M 10.59375 35.5 
L 73.1875 35.5 
L 73.1875 27.203125 
L 10.59375 27.203125 
z
" id="DejaVuSans-2212"/>
      </defs>
      <g transform="translate(34.895313 383.688855)scale(0.1 -0.1)">
       <use xlink:href="#DejaVuSans-2212"/>
       <use x="83.789062" xlink:href="#DejaVuSans-38"/>
       <use x="147.412109" xlink:href="#DejaVuSans-30"/>
      </g>
     </g>
    </g>
    <g id="ytick_2">
     <g id="line2d_7">
      <g>
       <use style="stroke:#000000;stroke-width:0.8;" x="63" xlink:href="#m25fedd348b" y="328.898749"/>
      </g>
     </g>
     <g id="text_8">
      <!-- −60 -->
      <g transform="translate(34.895313 332.697968)scale(0.1 -0.1)">
       <use xlink:href="#DejaVuSans-2212"/>
       <use x="83.789062" xlink:href="#DejaVuSans-36"/>
       <use x="147.412109" xlink:href="#DejaVuSans-30"/>
      </g>
     </g>
    </g>
    <g id="ytick_3">
     <g id="line2d_8">
      <g>
       <use style="stroke:#000000;stroke-width:0.8;" x="63" xlink:href="#m25fedd348b" y="277.907862"/>
      </g>
     </g>
     <g id="text_9">
      <!-- −40 -->
      <g transform="translate(34.895313 281.707081)scale(0.1 -0.1)">
       <use xlink:href="#DejaVuSans-2212"/>
       <use x="83.789062" xlink:href="#DejaVuSans-34"/>
       <use x="147.412109" xlink:href="#DejaVuSans-30"/>
      </g>
     </g>
    </g>
    <g id="ytick_4">
     <g id="line2d_9">
      <g>
       <use style="stroke:#000000;stroke-width:0.8;" x="63" xlink:href="#m25fedd348b" y="226.916975"/>
      </g>
     </g>
     <g id="text_10">
      <!-- −20 -->
      <g transform="translate(34.895313 230.716194)scale(0.1 -0.1)">
       <use xlink:href="#DejaVuSans-2212"/>
       <use x="83.789062" xlink:href="#DejaVuSans-32"/>
       <use x="147.412109" xlink:href="#DejaVuSans-30"/>
      </g>
     </g>
    </g>
    <g id="ytick_5">
     <g id="line2d_10">
      <g>
       <use style="stroke:#000000;stroke-width:0.8;" x="63" xlink:href="#m25fedd348b" y="175.926088"/>
      </g>
     </g>
     <g id="text_11">
      <!-- 0 -->
      <g transform="translate(49.6375 179.725306)scale(0.1 -0.1)">
       <use xlink:href="#DejaVuSans-30"/>
      </g>
     </g>
    </g>
    <g id="ytick_6">
     <g id="line2d_11">
      <g>
       <use style="stroke:#000000;stroke-width:0.8;" x="63" xlink:href="#m25fedd348b" y="124.9352"/>
      </g>
     </g>
     <g id="text_12">
      <!-- 20 -->
      <g transform="translate(43.275 128.734419)scale(0.1 -0.1)">
       <use xlink:href="#DejaVuSans-32"/>
       <use x="63.623047" xlink:href="#DejaVuSans-30"/>
      </g>
     </g>
    </g>
    <g id="ytick_7">
     <g id="line2d_12">
      <g>
       <use style="stroke:#000000;stroke-width:0.8;" x="63" xlink:href="#m25fedd348b" y="73.944313"/>
      </g>
     </g>
     <g id="text_13">
      <!-- 40 -->
      <g transform="translate(43.275 77.743532)scale(0.1 -0.1)">
       <use xlink:href="#DejaVuSans-34"/>
       <use x="63.623047" xlink:href="#DejaVuSans-30"/>
      </g>
     </g>
    </g>
    <g id="text_14">
     <!-- voltage [mV] -->
     <defs>
      <path d="M 2.984375 54.6875 
L 12.5 54.6875 
L 29.59375 8.796875 
L 46.6875 54.6875 
L 56.203125 54.6875 
L 35.6875 0 
L 23.484375 0 
z
" id="DejaVuSans-76"/>
      <path d="M 30.609375 48.390625 
Q 23.390625 48.390625 19.1875 42.75 
Q 14.984375 37.109375 14.984375 27.296875 
Q 14.984375 17.484375 19.15625 11.84375 
Q 23.34375 6.203125 30.609375 6.203125 
Q 37.796875 6.203125 41.984375 11.859375 
Q 46.1875 17.53125 46.1875 27.296875 
Q 46.1875 37.015625 41.984375 42.703125 
Q 37.796875 48.390625 30.609375 48.390625 
z
M 30.609375 56 
Q 42.328125 56 49.015625 48.375 
Q 55.71875 40.765625 55.71875 27.296875 
Q 55.71875 13.875 49.015625 6.21875 
Q 42.328125 -1.421875 30.609375 -1.421875 
Q 18.84375 -1.421875 12.171875 6.21875 
Q 5.515625 13.875 5.515625 27.296875 
Q 5.515625 40.765625 12.171875 48.375 
Q 18.84375 56 30.609375 56 
z
" id="DejaVuSans-6f"/>
      <path d="M 9.421875 75.984375 
L 18.40625 75.984375 
L 18.40625 0 
L 9.421875 0 
z
" id="DejaVuSans-6c"/>
      <path d="M 34.28125 27.484375 
Q 23.390625 27.484375 19.1875 25 
Q 14.984375 22.515625 14.984375 16.5 
Q 14.984375 11.71875 18.140625 8.90625 
Q 21.296875 6.109375 26.703125 6.109375 
Q 34.1875 6.109375 38.703125 11.40625 
Q 43.21875 16.703125 43.21875 25.484375 
L 43.21875 27.484375 
z
M 52.203125 31.203125 
L 52.203125 0 
L 43.21875 0 
L 43.21875 8.296875 
Q 40.140625 3.328125 35.546875 0.953125 
Q 30.953125 -1.421875 24.3125 -1.421875 
Q 15.921875 -1.421875 10.953125 3.296875 
Q 6 8.015625 6 15.921875 
Q 6 25.140625 12.171875 29.828125 
Q 18.359375 34.515625 30.609375 34.515625 
L 43.21875 34.515625 
L 43.21875 35.40625 
Q 43.21875 41.609375 39.140625 45 
Q 35.0625 48.390625 27.6875 48.390625 
Q 23 48.390625 18.546875 47.265625 
Q 14.109375 46.140625 10.015625 43.890625 
L 10.015625 52.203125 
Q 14.9375 54.109375 19.578125 55.046875 
Q 24.21875 56 28.609375 56 
Q 40.484375 56 46.34375 49.84375 
Q 52.203125 43.703125 52.203125 31.203125 
z
" id="DejaVuSans-61"/>
      <path d="M 45.40625 27.984375 
Q 45.40625 37.75 41.375 43.109375 
Q 37.359375 48.484375 30.078125 48.484375 
Q 22.859375 48.484375 18.828125 43.109375 
Q 14.796875 37.75 14.796875 27.984375 
Q 14.796875 18.265625 18.828125 12.890625 
Q 22.859375 7.515625 30.078125 7.515625 
Q 37.359375 7.515625 41.375 12.890625 
Q 45.40625 18.265625 45.40625 27.984375 
z
M 54.390625 6.78125 
Q 54.390625 -7.171875 48.1875 -13.984375 
Q 42 -20.796875 29.203125 -20.796875 
Q 24.46875 -20.796875 20.265625 -20.09375 
Q 16.0625 -19.390625 12.109375 -17.921875 
L 12.109375 -9.1875 
Q 16.0625 -11.328125 19.921875 -12.34375 
Q 23.78125 -13.375 27.78125 -13.375 
Q 36.625 -13.375 41.015625 -8.765625 
Q 45.40625 -4.15625 45.40625 5.171875 
L 45.40625 9.625 
Q 42.625 4.78125 38.28125 2.390625 
Q 33.9375 0 27.875 0 
Q 17.828125 0 11.671875 7.65625 
Q 5.515625 15.328125 5.515625 27.984375 
Q 5.515625 40.671875 11.671875 48.328125 
Q 17.828125 56 27.875 56 
Q 33.9375 56 38.28125 53.609375 
Q 42.625 51.21875 45.40625 46.390625 
L 45.40625 54.6875 
L 54.390625 54.6875 
z
" id="DejaVuSans-67"/>
      <path d="M 28.609375 0 
L 0.78125 72.90625 
L 11.078125 72.90625 
L 34.1875 11.53125 
L 57.328125 72.90625 
L 67.578125 72.90625 
L 39.796875 0 
z
" id="DejaVuSans-56"/>
     </defs>
     <g transform="translate(28.815625 250.624062)rotate(-90)scale(0.1 -0.1)">
      <use xlink:href="#DejaVuSans-76"/>
      <use x="59.179688" xlink:href="#DejaVuSans-6f"/>
      <use x="120.361328" xlink:href="#DejaVuSans-6c"/>
      <use x="148.144531" xlink:href="#DejaVuSans-74"/>
      <use x="187.353516" xlink:href="#DejaVuSans-61"/>
      <use x="248.632812" xlink:href="#DejaVuSans-67"/>
      <use x="312.109375" xlink:href="#DejaVuSans-65"/>
      <use x="373.632812" xlink:href="#DejaVuSans-20"/>
      <use x="405.419922" xlink:href="#DejaVuSans-5b"/>
      <use x="444.433594" xlink:href="#DejaVuSans-6d"/>
      <use x="541.845703" xlink:href="#DejaVuSans-56"/>
      <use x="610.253906" xlink:href="#DejaVuSans-5d"/>
     </g>
    </g>
   </g>
   <g id="line2d_13">
    <path clip-path="url(#p65039148f8)" d="M 80.754545 341.646471 
L 81.979609 341.513385 
L 151.772727 341.579418 
L 152.314241 298.334556 
L 152.420768 251.095834 
L 152.562805 74.770876 
L 152.678209 99.264348 
L 153.565936 367.373413 
L 153.610323 367.275766 
L 153.8145 365.93649 
L 154.293873 361.319265 
L 154.959668 352.459853 
L 157.42755 314.685294 
L 157.613973 303.877521 
L 157.738255 282.542679 
L 157.835905 221.782447 
L 157.969064 98.432432 
L 158.031205 111.207179 
L 158.883423 366.961152 
L 158.945564 366.782939 
L 159.203005 364.860582 
L 159.717886 359.350507 
L 160.534595 347.765887 
L 161.8218 330.156184 
L 162.514227 320.087269 
L 162.771668 312.782569 
L 162.940336 301.135486 
L 163.064618 273.97213 
L 163.162268 191.996197 
L 163.268795 99.326302 
L 163.322059 108.566361 
L 163.863573 298.064305 
L 164.147645 366.789567 
L 164.183155 366.930302 
L 164.245295 366.754129 
L 164.493859 364.905199 
L 165.008741 359.414246 
L 165.834327 347.710052 
L 167.112655 330.228591 
L 167.813959 320.05285 
L 168.0714 312.738717 
L 168.240068 301.053391 
L 168.36435 273.732983 
L 168.462 191.271999 
L 168.568527 99.401004 
L 168.621791 108.782052 
L 169.172182 301.902644 
L 169.4385 366.706197 
L 169.482886 366.928263 
L 169.545027 366.748265 
L 169.802468 364.818005 
L 170.31735 359.290593 
L 171.151814 347.429347 
L 172.430141 329.992759 
L 173.113691 320.035003 
L 173.371132 312.703279 
L 173.5398 300.960332 
L 173.664082 273.404602 
L 173.761732 190.153743 
L 173.868259 99.417321 
L 173.921523 109.011256 
L 174.480791 305.856987 
L 174.729355 366.599881 
L 174.782618 366.928263 
L 174.844759 366.744186 
L 175.1022 364.810866 
L 175.617082 359.28014 
L 176.451545 347.416855 
L 177.729873 329.982305 
L 178.413423 320.018686 
L 178.670864 312.66835 
L 178.839532 300.865999 
L 178.963814 273.067552 
L 179.061464 189.002752 
L 179.167991 99.434148 
L 179.221255 109.24301 
L 179.7894 309.911527 
L 180.029086 366.611864 
L 180.08235 366.928518 
L 180.144491 366.739851 
L 180.401932 364.803727 
L 180.916814 359.269941 
L 181.751277 347.404872 
L 183.029605 329.972107 
L 183.713155 320.002114 
L 183.970595 312.633166 
L 184.139264 300.770646 
L 184.263545 272.722599 
L 184.361195 187.831516 
L 184.467723 99.457349 
L 184.520986 109.478333 
L 185.098009 314.055302 
L 185.328818 366.623592 
L 185.382082 366.928518 
L 185.444223 366.735772 
L 185.701664 364.796334 
L 186.216545 359.259743 
L 187.051009 347.392634 
L 188.329336 329.961909 
L 189.012886 319.985797 
L 189.270327 312.597727 
L 189.438995 300.673763 
L 189.563277 272.372546 
L 189.660927 186.655616 
L 189.767455 99.486159 
L 189.820718 109.71595 
L 190.406618 318.269189 
L 190.619673 366.493565 
L 190.681814 366.928263 
L 190.743955 366.731438 
L 191.010273 364.710159 
L 191.525155 359.137875 
L 192.368495 347.115244 
L 193.637945 329.839531 
L 194.312618 319.96897 
L 194.570059 312.562289 
L 194.738727 300.576371 
L 194.863009 272.019179 
L 194.969536 172.499118 
L 195.058309 99.473156 
L 195.12045 109.956117 
L 195.715227 322.527948 
L 195.919405 366.508608 
L 195.981545 366.928263 
L 196.043686 366.727104 
L 196.310005 364.702765 
L 196.833764 359.015497 
L 197.703736 346.573465 
L 198.955432 329.605228 
L 199.61235 319.952398 
L 199.869791 312.52634 
L 200.038459 300.477958 
L 200.162741 271.658674 
L 200.269268 171.271996 
L 200.358041 99.444601 
L 200.420182 110.200364 
L 201.023836 326.79563 
L 201.219136 366.522885 
L 201.281277 366.927753 
L 201.343418 366.722769 
L 201.609736 364.695372 
L 202.133495 359.004789 
L 202.994591 346.693294 
L 204.255164 329.594775 
L 204.912082 319.935316 
L 205.169523 312.489882 
L 205.338191 300.378016 
L 205.462473 271.290775 
L 205.569 170.03664 
L 205.657773 99.42293 
L 205.719914 110.446395 
L 206.332445 331.025579 
L 206.518868 366.537163 
L 206.581009 366.927498 
L 206.634273 366.763562 
L 206.873959 365.000552 
L 207.388841 359.550136 
L 208.187795 348.271972 
L 209.510509 330.143437 
L 210.202936 320.097467 
L 210.460377 312.834835 
L 210.629045 301.313699 
L 210.753327 274.658723 
L 210.850977 194.48338 
L 210.957505 99.408143 
L 211.019645 110.693446 
L 211.641055 335.165274 
L 211.827477 366.678662 
L 211.880741 366.926988 
L 211.934005 366.759483 
L 212.182568 364.915907 
L 212.69745 359.429543 
L 213.514159 347.86124 
L 214.810241 330.132984 
L 215.502668 320.080895 
L 215.760109 312.799906 
L 215.928777 301.220131 
L 216.053059 274.329067 
L 216.150709 193.338124 
L 216.257236 99.402024 
L 216.319377 110.939987 
L 216.949664 339.153017 
L 217.127209 366.68886 
L 217.171595 366.927498 
L 217.233736 366.755404 
L 217.4823 364.908769 
L 217.997182 359.419345 
L 218.822768 347.716171 
L 220.101095 330.2342 
L 220.8024 320.064323 
L 221.059841 312.765232 
L 221.228509 301.126817 
L 221.352791 273.998136 
L 221.450441 192.19343 
L 221.556968 99.402534 
L 221.610232 108.602309 
L 222.151745 298.1181 
L 222.426941 366.698549 
L 222.471327 366.927753 
L 222.533468 366.751324 
L 222.782032 364.90163 
L 223.296914 359.409146 
L 224.1225 347.703678 
L 225.418582 330.000662 
L 226.111009 319.868008 
L 226.36845 312.344813 
L 226.537118 299.976463 
L 226.652523 273.664655 
L 226.750173 191.044172 
L 226.8567 99.408397 
L 226.909964 108.833043 
L 227.460355 301.975816 
L 227.726673 366.707982 
L 227.771059 366.928263 
L 227.8332 366.747245 
L 228.090641 364.81622 
L 228.605523 359.288043 
L 229.439986 347.426288 
L 230.718314 329.990209 
L 231.401864 320.031179 
L 231.659305 312.69512 
L 231.827973 300.938916 
L 231.952255 273.32888 
L 232.049905 189.89471 
L 232.156432 99.42089 
L 232.209695 109.063522 
L 232.768964 305.933218 
L 233.017527 366.602686 
L 233.070791 366.928263 
L 233.132932 366.743166 
L 233.390373 364.809081 
L 233.905255 359.277845 
L 234.739718 347.41405 
L 236.018045 329.980011 
L 236.701595 320.014862 
L 236.959036 312.660446 
L 237.127705 300.844583 
L 237.251986 272.990046 
L 237.349636 188.73867 
L 237.456164 99.438737 
L 237.509427 109.296295 
L 238.077573 309.990053 
L 238.317259 366.614414 
L 238.370523 366.928518 
L 238.432664 366.739086 
L 238.690105 364.801943 
L 239.204986 359.267647 
L 240.03945 347.402067 
L 241.317777 329.969813 
L 242.001327 319.998545 
L 242.258768 312.625262 
L 242.427436 300.74872 
L 242.551718 272.643308 
L 242.649368 187.564707 
L 242.755895 99.463468 
L 242.809159 109.532128 
L 243.386182 314.135613 
L 243.616991 366.626142 
L 243.670255 366.928518 
L 243.732395 366.734752 
L 243.989836 364.794804 
L 244.504718 359.257449 
L 245.348059 347.257253 
L 246.617509 329.95936 
L 247.301059 319.981973 
L 247.5585 312.589824 
L 247.727168 300.651582 
L 247.85145 272.292745 
L 247.9491 186.387658 
L 248.055627 99.493807 
L 248.108891 109.770256 
L 248.694791 318.351284 
L 248.907845 366.497135 
L 248.969986 366.928263 
L 249.032127 366.730673 
L 249.298445 364.708629 
L 249.822205 359.023655 
L 250.692177 346.583154 
L 251.943873 329.613386 
L 252.600791 319.965146 
L 252.858232 312.55413 
L 253.0269 300.553935 
L 253.151182 271.937594 
L 253.257709 172.219739 
L 253.346482 99.466017 
L 253.408623 110.011698 
L 254.0034 322.611573 
L 254.207577 366.511922 
L 254.269718 366.928008 
L 254.331859 366.726339 
L 254.598177 364.701236 
L 255.121936 359.012947 
L 255.983032 346.702982 
L 257.22585 329.826783 
L 257.900523 319.948574 
L 258.157964 312.518182 
L 258.326632 300.455267 
L 258.450914 271.575304 
L 258.557441 170.990093 
L 258.646214 99.438992 
L 258.708355 110.256709 
L 259.312009 326.879255 
L 259.507309 366.5262 
L 259.56945 366.927753 
L 259.631591 366.72175 
L 259.897909 364.693587 
L 260.421668 359.002494 
L 261.291641 346.558423 
L 262.525582 329.81633 
L 263.200255 319.931492 
L 263.457695 312.481723 
L 263.626364 300.35507 
L 263.750645 271.20613 
L 263.857173 169.754227 
L 263.945945 99.418851 
L 264.008086 110.50274 
L 264.620618 331.107929 
L 264.807041 366.540477 
L 264.869182 366.927243 
L 264.922445 366.762797 
L 265.171009 364.921516 
L 265.685891 359.437701 
L 266.511477 347.738097 
L 267.807559 330.029472 
L 268.499986 319.914665 
L 268.757427 312.445265 
L 268.926095 300.254873 
L 269.050377 270.836956 
L 269.156905 168.527565 
L 269.245677 99.406103 
L 269.298941 108.195657 
L 269.8227 290.775157 
L 270.133405 366.842598 
L 270.168914 366.926988 
L 270.222177 366.758718 
L 270.470741 364.914378 
L 270.985623 359.427248 
L 271.802332 347.858436 
L 273.098414 330.130689 
L 273.790841 320.077071 
L 274.048282 312.792003 
L 274.21695 301.198969 
L 274.341232 274.2536 
L 274.438882 193.076133 
L 274.545409 99.401769 
L 274.598673 108.424861 
L 275.131309 294.434008 
L 275.424259 366.782429 
L 275.459768 366.927498 
L 275.521909 366.754639 
L 275.770473 364.907239 
L 276.285355 359.41705 
L 277.110941 347.713367 
L 278.389268 330.231906 
L 279.090573 320.060499 
L 279.348014 312.757074 
L 279.516682 301.105401 
L 279.640964 273.922159 
L 279.738614 191.931337 
L 279.845141 99.403043 
L 279.898405 108.655085 
L 280.439918 298.191782 
L 280.715114 366.700588 
L 280.7595 366.928008 
L 280.821641 366.750559 
L 281.079082 364.821829 
L 281.593964 359.295947 
L 282.428427 347.435721 
L 283.706755 329.998113 
L 284.390305 320.043927 
L 284.647745 312.722145 
L 284.816414 301.011578 
L 284.940695 273.588169 
L 285.038345 190.781977 
L 285.144873 99.410692 
L 285.198136 108.885564 
L 285.748527 302.050517 
L 286.014845 366.710022 
L 286.059232 366.928263 
L 286.121373 366.746225 
L 286.378814 364.81469 
L 286.902573 359.174333 
L 287.754791 347.02601 
L 289.006486 329.987914 
L 289.690036 320.02761 
L 289.947477 312.687216 
L 290.116145 300.9175 
L 290.240427 273.251884 
L 290.338077 189.631648 
L 290.444605 99.42446 
L 290.497868 109.116298 
L 291.057136 306.010215 
L 291.3057 366.60549 
L 291.358964 366.928518 
L 291.421105 366.742146 
L 291.678545 364.807552 
L 292.193427 359.27555 
L 293.027891 347.411246 
L 294.315095 329.865791 
L 294.989768 320.011037 
L 295.247209 312.652288 
L 295.415877 300.822912 
L 295.540159 272.91152 
L 295.637809 188.471809 
L 295.744336 99.443836 
L 295.7976 109.349836 
L 296.365745 310.069089 
L 296.605432 366.617218 
L 296.658695 366.928518 
L 296.720836 366.738067 
L 296.978277 364.800413 
L 297.493159 359.265352 
L 298.327623 347.399263 
L 299.60595 329.967518 
L 300.2895 319.99472 
L 300.546941 312.617104 
L 300.715609 300.726539 
L 300.839891 272.563762 
L 300.937541 187.297514 
L 301.044068 99.469842 
L 301.097332 109.585924 
L 301.674355 314.215923 
L 301.905164 366.628691 
L 301.958427 366.928518 
L 302.020568 366.733987 
L 302.286886 364.714238 
L 302.810645 359.031559 
L 303.671741 346.724908 
L 304.914559 329.845395 
L 305.589232 319.978148 
L 305.846673 312.581665 
L 306.015341 300.629656 
L 306.139623 272.21269 
L 306.24615 173.163529 
L 306.334923 99.491258 
L 306.397064 109.824816 
L 306.982964 318.433379 
L 307.196018 366.500449 
L 307.258159 366.928263 
L 307.3203 366.729653 
L 307.586618 364.706845 
L 308.110377 359.021106 
L 308.971473 346.712671 
L 310.214291 329.834942 
L 310.888964 319.961576 
L 311.146405 312.545972 
L 311.315073 300.531754 
L 311.439355 271.855754 
L 311.545882 171.941354 
L 311.634655 99.459388 
L 311.696795 110.067023 
L 312.291573 322.694688 
L 312.49575 366.515236 
L 312.557891 366.928008 
L 312.620032 366.725319 
L 312.88635 364.699451 
L 313.410109 359.010653 
L 314.280082 346.567856 
L 315.531777 329.600384 
L 316.188695 319.944494 
L 316.446136 312.509768 
L 316.614805 300.432576 
L 316.739086 271.492189 
L 316.845614 170.709261 
L 316.934386 99.433893 
L 316.996527 110.312544 
L 317.600182 326.962625 
L 317.795482 366.529514 
L 317.857623 366.927753 
L 317.910886 366.765857 
L 318.15945 364.927125 
L 318.674332 359.445605 
L 319.491041 347.880362 
L 320.796 330.037376 
L 321.488427 319.927667 
L 321.745868 312.47331 
L 321.914536 300.332124 
L 322.038818 271.12174 
L 322.145345 169.473165 
L 322.234118 99.415281 
L 322.296259 110.559085 
L 322.908791 331.190025 
L 323.095214 366.543791 
L 323.157355 366.927243 
L 323.210618 366.761777 
L 323.459182 364.919987 
L 323.974064 359.435152 
L 324.790773 347.867869 
L 326.095732 330.026923 
L 326.779282 320.089818 
L 327.036723 312.819028 
L 327.205391 301.271122 
L 327.329673 274.508554 
L 327.427323 193.961233 
L 327.53385 99.404318 
L 327.595991 110.805881 
L 328.2174 335.323856 
L 328.403823 366.683251 
L 328.457086 366.926733 
L 328.51035 366.757698 
L 328.758914 364.912593 
L 329.273795 359.424954 
L 329.318182 358.866348 
L 329.335936 359.741862 
L 329.531236 363.624308 
L 329.620009 363.80711 
L 329.664395 363.751275 
L 329.815309 363.160801 
L 330.214786 360.419786 
L 332.176664 346.060497 
L 332.869091 342.925322 
L 333.428359 341.31452 
L 333.889977 340.591469 
L 334.262823 340.370679 
L 334.617914 340.409687 
L 335.106164 340.723791 
L 336.553159 341.748198 
L 337.165691 341.842276 
L 338.115559 341.731881 
L 339.917645 341.533781 
L 435.845455 341.579418 
L 435.845455 341.579418 
" style="fill:none;stroke:#1f77b4;stroke-linecap:square;stroke-width:1.5;"/>
   </g>
   <g id="line2d_14">
    <path clip-path="url(#p65039148f8)" d="M 80.754545 341.646471 
L 81.189532 331.951558 
L 81.473605 323.404174 
L 81.633395 310.845069 
L 81.739923 279.76804 
L 81.819818 156.637708 
L 81.890836 66.96 
L 81.952977 73.089845 
L 82.157155 129.509606 
L 82.947232 369.36 
L 82.982741 369.296365 
L 83.231305 368.197198 
L 83.7018 365.188957 
L 84.332086 359.523587 
L 86.089786 342.965036 
L 86.915373 337.660105 
L 87.634432 334.306478 
L 88.09605 333.02845 
L 88.362368 332.792946 
L 88.531036 332.916935 
L 88.744091 333.430763 
L 89.063673 334.914634 
L 89.800486 338.417567 
L 90.075682 338.788137 
L 90.279859 338.744143 
L 90.546177 338.401528 
L 91.078814 337.252113 
L 91.851136 335.727498 
L 92.268368 335.31897 
L 92.570195 335.296977 
L 92.8809 335.515577 
L 93.36915 336.193056 
L 94.043823 337.045681 
L 94.416668 337.168574 
L 94.807268 337.051322 
L 95.588468 336.504799 
L 96.316405 336.137481 
L 96.840164 336.122006 
L 97.488205 336.354779 
L 98.464705 336.688211 
L 99.139377 336.638919 
L 101.092377 336.360025 
L 104.084018 336.473707 
L 105.628664 336.442277 
L 108.327355 336.473976 
L 110.990536 336.486224 
L 120.045355 336.477309 
L 151.772727 336.475268 
L 152.207714 301.226763 
L 152.296486 256.360545 
L 152.429645 70.077349 
L 152.54505 91.071544 
L 153.175336 293.910481 
L 153.450532 367.788207 
L 153.459409 367.775138 
L 153.574814 367.161751 
L 154.018677 363.489545 
L 154.613455 356.470382 
L 156.850527 325.116796 
L 157.072459 317.432051 
L 157.214495 303.962681 
L 157.312145 270.294433 
L 157.400918 128.203203 
L 157.463059 77.596814 
L 157.5252 85.64692 
L 157.791518 170.636726 
L 158.448436 367.679875 
L 158.475068 367.620219 
L 158.670368 366.369313 
L 159.149741 361.946868 
L 159.833291 353.232611 
L 161.946082 322.250453 
L 162.132505 312.717958 
L 162.256786 292.257442 
L 162.345559 226.230033 
L 162.460964 77.754258 
L 162.531982 89.265784 
L 162.89595 207.935561 
L 163.437464 367.673957 
L 163.508482 367.402376 
L 163.881327 364.538566 
L 164.422841 358.598667 
L 166.482368 331.148979 
L 166.872968 324.063969 
L 167.077145 316.055032 
L 167.210305 301.420139 
L 167.307955 259.538793 
L 167.449991 77.730518 
L 167.574273 103.609452 
L 168.426491 367.673239 
L 168.541895 367.134231 
L 168.976882 363.540436 
L 169.562782 356.657726 
L 171.808732 325.377555 
L 172.039541 317.659419 
L 172.181577 304.7715 
L 172.279227 273.72477 
L 172.368 140.035097 
L 172.439018 77.714653 
L 172.501159 86.568644 
L 172.785232 178.100257 
L 173.415518 367.672452 
L 173.459905 367.5575 
L 173.726223 365.705509 
L 174.22335 360.784664 
L 175.00455 350.41691 
L 176.930918 321.797866 
L 177.108464 312.287916 
L 177.232745 290.657131 
L 177.321518 218.321785 
L 177.428045 77.710827 
L 177.499064 88.314663 
L 177.827523 195.279644 
L 178.413423 367.671932 
L 178.466686 367.474094 
L 178.795145 365.04651 
L 179.318905 359.529924 
L 180.313159 345.984787 
L 181.875559 323.206956 
L 182.070859 314.529341 
L 182.204018 296.305675 
L 182.292791 245.40049 
L 182.417073 77.721761 
L 182.514723 94.788372 
L 183.136132 297.879982 
L 183.40245 367.672823 
L 183.411327 367.661072 
L 183.517855 367.101644 
L 183.952841 363.491398 
L 184.547618 356.473559 
L 186.793568 325.061766 
L 187.0155 317.393451 
L 187.157536 303.964519 
L 187.255186 270.495988 
L 187.343959 129.241262 
L 187.4061 77.74593 
L 187.468241 85.707408 
L 187.725682 167.755178 
L 188.391477 367.673428 
L 188.418109 367.612033 
L 188.613409 366.358169 
L 189.092782 361.930581 
L 189.776332 353.211933 
L 191.889123 322.215284 
L 192.075545 312.628801 
L 192.199827 291.935589 
L 192.2886 224.663263 
L 192.395127 77.786255 
L 192.475023 89.518889 
L 192.847868 211.068235 
L 193.380505 367.673671 
L 193.451523 367.395909 
L 193.824368 364.528501 
L 194.365882 358.584702 
L 196.434286 331.007558 
L 196.816009 324.035764 
L 197.020186 315.987387 
L 197.153345 301.206986 
L 197.250995 258.562424 
L 197.393032 77.754044 
L 197.517314 103.940254 
L 198.369532 367.673567 
L 198.476059 367.184775 
L 198.902168 363.703835 
L 199.479191 356.995717 
L 201.725141 325.933703 
L 201.964827 318.501531 
L 202.115741 305.953013 
L 202.222268 273.034614 
L 202.311041 137.586316 
L 202.382059 77.727263 
L 202.4442 86.816287 
L 202.728273 178.469628 
L 203.358559 367.673126 
L 203.402945 367.552336 
L 203.669264 365.696614 
L 204.175268 360.668548 
L 204.974223 350.02694 
L 206.873959 321.760965 
L 207.051505 312.189676 
L 207.166909 293.146812 
L 207.255682 230.600967 
L 207.371086 77.713143 
L 207.450982 90.75634 
L 207.885968 231.753127 
L 208.347586 367.672292 
L 208.436359 367.312959 
L 208.835836 364.153807 
L 209.395105 357.840735 
L 211.614423 327.707959 
L 211.889618 320.866413 
L 212.058286 310.613598 
L 212.173691 287.525338 
L 212.253586 218.676323 
L 212.360114 77.711654 
L 212.431132 88.264807 
L 212.759591 195.211183 
L 213.345491 367.672096 
L 213.398755 367.475232 
L 213.727214 365.048334 
L 214.250973 359.532496 
L 215.245227 345.987668 
L 216.807627 323.212921 
L 217.002927 314.544573 
L 217.136086 296.360037 
L 217.224859 245.645255 
L 217.349141 77.724885 
L 217.446791 94.731143 
L 218.0682 297.792679 
L 218.334518 367.672939 
L 218.343395 367.66149 
L 218.449923 367.103027 
L 218.884909 363.493474 
L 219.479686 356.476355 
L 221.725636 325.066626 
L 221.947568 317.404813 
L 222.089605 303.999314 
L 222.187255 270.637085 
L 222.276027 129.677793 
L 222.338168 77.751337 
L 222.400309 85.662128 
L 222.65775 167.683902 
L 223.323545 367.67349 
L 223.350177 367.612823 
L 223.545477 366.359731 
L 224.02485 361.932868 
L 224.7084 353.214845 
L 226.821191 322.221946 
L 227.007614 312.646775 
L 227.131895 292.002357 
L 227.220668 224.99287 
L 227.336073 77.78595 
L 227.407091 89.4676 
L 227.771059 208.202405 
L 228.312573 367.673672 
L 228.383591 367.39713 
L 228.756436 364.530411 
L 229.29795 358.587352 
L 231.366355 331.010545 
L 231.748077 324.041218 
L 231.952255 316.000528 
L 232.085414 301.248504 
L 232.183064 258.753051 
L 232.3251 77.748834 
L 232.449382 103.876586 
L 233.3016 367.673515 
L 233.408127 367.186123 
L 233.834236 363.705874 
L 234.411259 356.998476 
L 236.657209 325.938136 
L 236.896895 318.51165 
L 237.047809 305.983685 
L 237.154336 273.167898 
L 237.243109 138.05364 
L 237.314127 77.724121 
L 237.376268 86.768675 
L 237.660341 178.398884 
L 238.290627 367.673018 
L 238.335014 367.55333 
L 238.601332 365.698318 
L 239.107336 360.671002 
L 239.906291 350.029896 
L 241.806027 321.76806 
L 241.983573 312.208592 
L 242.098977 293.210599 
L 242.18775 230.911651 
L 242.303155 77.712033 
L 242.38305 90.702519 
L 242.809159 228.994152 
L 243.279655 367.672122 
L 243.368427 367.314272 
L 243.767905 364.155823 
L 244.327173 357.843503 
L 246.546491 327.711797 
L 246.821686 320.874355 
L 246.990355 310.635492 
L 247.105759 287.60725 
L 247.185655 219.034135 
L 247.292182 77.712826 
L 247.3632 88.214659 
L 247.691659 195.142279 
L 248.277559 367.672254 
L 248.330823 367.476375 
L 248.659282 365.050168 
L 249.183041 359.535081 
L 250.177295 345.990564 
L 251.748573 322.962812 
L 251.943873 313.898426 
L 252.068155 296.414662 
L 252.156927 245.890958 
L 252.281209 77.728274 
L 252.378859 94.673707 
L 252.991391 294.083807 
L 253.266586 367.673045 
L 253.275464 367.661903 
L 253.381991 367.10442 
L 253.816977 363.495565 
L 254.402877 356.597382 
L 256.648827 325.275094 
L 256.870759 317.88608 
L 257.021673 304.034258 
L 257.119323 270.77872 
L 257.208095 130.117643 
L 257.270236 77.757133 
L 257.332377 85.616776 
L 257.589818 167.612404 
L 258.255614 367.673546 
L 258.282245 367.613613 
L 258.477545 366.361296 
L 258.956918 361.935158 
L 259.640468 353.217763 
L 261.753259 322.228624 
L 261.939682 312.664784 
L 262.063964 292.069225 
L 262.152736 225.322316 
L 262.268141 77.778978 
L 262.339159 89.41612 
L 262.703127 208.13563 
L 263.244641 367.673674 
L 263.315659 367.398365 
L 263.688505 364.532341 
L 264.230018 358.590029 
L 266.298423 331.013561 
L 266.680145 324.046723 
L 266.884323 316.013786 
L 267.017482 301.290367 
L 267.115132 258.945172 
L 267.257168 77.743994 
L 267.38145 103.811555 
L 268.233668 367.673453 
L 268.349073 367.129851 
L 268.784059 363.533832 
L 269.369959 356.648836 
L 271.615909 325.362492 
L 271.846718 317.623854 
L 271.988755 304.664913 
L 272.086405 273.30352 
L 272.175177 138.532123 
L 272.246195 77.721429 
L 272.308336 86.720121 
L 272.592409 178.326614 
L 273.222695 367.672897 
L 273.267082 367.55434 
L 273.5334 365.700053 
L 274.039405 360.673501 
L 274.838359 350.032907 
L 276.738095 321.775276 
L 276.915641 312.227814 
L 277.031045 293.275079 
L 277.119818 231.223327 
L 277.235223 77.711164 
L 277.315118 90.648278 
L 277.741227 228.928567 
L 278.211723 367.671947 
L 278.300495 367.315601 
L 278.699973 364.157862 
L 279.259241 357.846303 
L 281.478559 327.71568 
L 281.753755 320.882387 
L 281.922423 310.657624 
L 282.037827 287.689877 
L 282.117723 219.39471 
L 282.22425 77.714394 
L 282.295268 88.16412 
L 282.61485 192.176856 
L 283.209627 367.672402 
L 283.262891 367.477524 
L 283.59135 365.052016 
L 284.115109 359.537687 
L 285.109364 345.993482 
L 286.680641 322.969034 
L 286.875941 313.914742 
L 287.000223 296.469275 
L 287.088995 246.135369 
L 287.213277 77.731921 
L 287.310927 94.616241 
L 287.923459 293.999124 
L 288.198655 367.673148 
L 288.207532 367.662316 
L 288.314059 367.105819 
L 288.749045 363.497668 
L 289.334945 356.600206 
L 291.580895 325.27989 
L 291.802827 317.896975 
L 291.953741 304.069276 
L 292.051391 270.920595 
L 292.140164 130.56071 
L 292.202305 77.763372 
L 292.273323 87.559463 
L 292.57515 185.477622 
L 293.187682 367.673596 
L 293.232068 367.536701 
L 293.516141 365.5248 
L 294.022145 360.422112 
L 294.847732 349.357936 
L 296.694205 321.948055 
L 296.87175 312.68287 
L 296.996032 292.136343 
L 297.084805 225.652306 
L 297.200209 77.772372 
L 297.271227 89.3644 
L 297.635195 208.068466 
L 298.176709 367.673665 
L 298.247727 367.3996 
L 298.620573 364.534274 
L 299.162086 358.592712 
L 301.230491 331.016584 
L 301.612214 324.052239 
L 301.816391 316.027065 
L 301.94955 301.332278 
L 302.0472 259.137429 
L 302.189236 77.739502 
L 302.313518 103.746257 
L 303.165736 367.673383 
L 303.281141 367.131256 
L 303.716127 363.535951 
L 304.302027 356.651688 
L 306.547977 325.367333 
L 306.778786 317.635291 
L 306.920823 304.699211 
L 307.018473 273.439283 
L 307.107245 139.013621 
L 307.178264 77.71896 
L 307.240405 86.671375 
L 307.524477 178.253902 
L 308.154764 367.672767 
L 308.19915 367.555356 
L 308.465468 365.701802 
L 308.962595 360.779349 
L 309.752673 350.285608 
L 311.670164 321.782531 
L 311.847709 312.247129 
L 311.971991 290.50274 
L 312.051886 231.533865 
L 312.167291 77.710609 
L 312.247186 90.594273 
L 312.673295 228.863191 
L 313.143791 367.671761 
L 313.232564 367.316921 
L 313.632041 364.15989 
L 314.191309 357.849087 
L 316.410627 327.719541 
L 316.685823 320.890371 
L 316.854491 310.679614 
L 316.969895 287.771731 
L 317.049791 219.751807 
L 317.156318 77.716257 
L 317.227336 88.113908 
L 317.546918 192.107252 
L 318.141695 367.672545 
L 318.194959 367.478668 
L 318.523418 365.053858 
L 319.047177 359.540284 
L 320.041432 345.996392 
L 321.612709 322.975233 
L 321.808009 313.930918 
L 321.932291 296.52337 
L 322.021064 246.376748 
L 322.145345 77.735796 
L 322.242995 94.559434 
L 322.855527 293.915451 
L 323.130723 367.673247 
L 323.1396 367.662722 
L 323.246127 367.107206 
L 323.681114 363.499749 
L 324.267014 356.603003 
L 326.512964 325.284638 
L 326.734895 317.907757 
L 326.885809 304.103914 
L 326.983459 271.060776 
L 327.072232 131.002129 
L 327.134373 77.770174 
L 327.205391 87.511152 
L 327.507218 185.408454 
L 328.11975 367.673631 
L 328.164136 367.537719 
L 328.448209 365.526516 
L 328.954214 360.424564 
L 329.318182 355.787162 
L 329.344814 356.946548 
L 329.495727 358.914553 
L 329.513482 358.895863 
L 329.611132 358.437459 
L 329.948468 355.33159 
L 331.182409 343.918407 
L 332.007995 338.430301 
L 332.753686 334.841639 
L 333.233059 333.421143 
L 333.526009 333.09177 
L 333.703555 333.169628 
L 333.907732 333.566958 
L 334.209559 334.744496 
L 335.061777 338.312342 
L 335.328095 338.571464 
L 335.54115 338.493629 
L 335.842977 338.089154 
L 337.485273 335.433064 
L 337.804855 335.426198 
L 338.142191 335.666524 
L 338.736968 336.441001 
L 339.287359 337.005526 
L 339.669082 337.096362 
L 340.095191 336.95533 
L 341.835136 336.139133 
L 342.421036 336.257795 
L 343.912418 336.673718 
L 344.782391 336.534643 
L 346.08735 336.361283 
L 347.312414 336.493821 
L 348.546355 336.535122 
L 351.404836 336.475784 
L 353.464364 336.476801 
L 356.331723 336.486447 
L 370.854941 336.474914 
L 435.845455 336.47527 
L 435.845455 336.47527 
" style="fill:none;stroke:#ff0000;stroke-linecap:square;stroke-width:1.5;"/>
   </g>
   <g id="patch_3">
    <path d="M 63 384.48 
L 63 51.84 
" style="fill:none;stroke:#000000;stroke-linecap:square;stroke-linejoin:miter;stroke-width:0.8;"/>
   </g>
   <g id="patch_4">
    <path d="M 453.6 384.48 
L 453.6 51.84 
" style="fill:none;stroke:#000000;stroke-linecap:square;stroke-linejoin:miter;stroke-width:0.8;"/>
   </g>
   <g id="patch_5">
    <path d="M 63 384.48 
L 453.6 384.48 
" style="fill:none;stroke:#000000;stroke-linecap:square;stroke-linejoin:miter;stroke-width:0.8;"/>
   </g>
   <g id="patch_6">
    <path d="M 63 51.84 
L 453.6 51.84 
" style="fill:none;stroke:#000000;stroke-linecap:square;stroke-linejoin:miter;stroke-width:0.8;"/>
   </g>
   <g id="legend_1">
    <g id="patch_7">
     <path d="M 383.460938 89.19625 
L 446.6 89.19625 
Q 448.6 89.19625 448.6 87.19625 
L 448.6 58.84 
Q 448.6 56.84 446.6 56.84 
L 383.460938 56.84 
Q 381.460938 56.84 381.460938 58.84 
L 381.460938 87.19625 
Q 381.460938 89.19625 383.460938 89.19625 
z
" style="fill:#ffffff;opacity:0.8;stroke:#cccccc;stroke-linejoin:miter;"/>
    </g>
    <g id="line2d_15">
     <path d="M 385.460938 64.938437 
L 405.460938 64.938437 
" style="fill:none;stroke:#1f77b4;stroke-linecap:square;stroke-width:1.5;"/>
    </g>
    <g id="line2d_16"/>
    <g id="text_15">
     <!-- target -->
     <defs>
      <path d="M 41.109375 46.296875 
Q 39.59375 47.171875 37.8125 47.578125 
Q 36.03125 48 33.890625 48 
Q 26.265625 48 22.1875 43.046875 
Q 18.109375 38.09375 18.109375 28.8125 
L 18.109375 0 
L 9.078125 0 
L 9.078125 54.6875 
L 18.109375 54.6875 
L 18.109375 46.1875 
Q 20.953125 51.171875 25.484375 53.578125 
Q 30.03125 56 36.53125 56 
Q 37.453125 56 38.578125 55.875 
Q 39.703125 55.765625 41.0625 55.515625 
z
" id="DejaVuSans-72"/>
     </defs>
     <g transform="translate(413.460938 68.438437)scale(0.1 -0.1)">
      <use xlink:href="#DejaVuSans-74"/>
      <use x="39.208984" xlink:href="#DejaVuSans-61"/>
      <use x="100.488281" xlink:href="#DejaVuSans-72"/>
      <use x="141.585938" xlink:href="#DejaVuSans-67"/>
      <use x="205.0625" xlink:href="#DejaVuSans-65"/>
      <use x="266.585938" xlink:href="#DejaVuSans-74"/>
     </g>
    </g>
    <g id="line2d_17">
     <path d="M 385.460938 79.616562 
L 405.460938 79.616562 
" style="fill:none;stroke:#ff0000;stroke-linecap:square;stroke-width:1.5;"/>
    </g>
    <g id="line2d_18"/>
    <g id="text_16">
     <!-- model -->
     <defs>
      <path d="M 45.40625 46.390625 
L 45.40625 75.984375 
L 54.390625 75.984375 
L 54.390625 0 
L 45.40625 0 
L 45.40625 8.203125 
Q 42.578125 3.328125 38.25 0.953125 
Q 33.9375 -1.421875 27.875 -1.421875 
Q 17.96875 -1.421875 11.734375 6.484375 
Q 5.515625 14.40625 5.515625 27.296875 
Q 5.515625 40.1875 11.734375 48.09375 
Q 17.96875 56 27.875 56 
Q 33.9375 56 38.25 53.625 
Q 42.578125 51.265625 45.40625 46.390625 
z
M 14.796875 27.296875 
Q 14.796875 17.390625 18.875 11.75 
Q 22.953125 6.109375 30.078125 6.109375 
Q 37.203125 6.109375 41.296875 11.75 
Q 45.40625 17.390625 45.40625 27.296875 
Q 45.40625 37.203125 41.296875 42.84375 
Q 37.203125 48.484375 30.078125 48.484375 
Q 22.953125 48.484375 18.875 42.84375 
Q 14.796875 37.203125 14.796875 27.296875 
z
" id="DejaVuSans-64"/>
     </defs>
     <g transform="translate(413.460938 83.116562)scale(0.1 -0.1)">
      <use xlink:href="#DejaVuSans-6d"/>
      <use x="97.412109" xlink:href="#DejaVuSans-6f"/>
      <use x="158.59375" xlink:href="#DejaVuSans-64"/>
      <use x="222.070312" xlink:href="#DejaVuSans-65"/>
      <use x="283.59375" xlink:href="#DejaVuSans-6c"/>
     </g>
    </g>
   </g>
  </g>
 </g>
 <defs>
  <clipPath id="p65039148f8">
   <rect height="332.64" width="390.6" x="63" y="51.84"/>
  </clipPath>
 </defs>
</svg>
