<?xml version="1.0" encoding="utf-8" standalone="no"?>
<!DOCTYPE svg PUBLIC "-//W3C//DTD SVG 1.1//EN"
  "http://www.w3.org/Graphics/SVG/1.1/DTD/svg11.dtd">
<!-- Created with matplotlib (https://matplotlib.org/) -->
<svg height="432pt" version="1.1" viewBox="0 0 504 432" width="504pt" xmlns="http://www.w3.org/2000/svg" xmlns:xlink="http://www.w3.org/1999/xlink">
 <defs>
  <style type="text/css">
*{stroke-linecap:butt;stroke-linejoin:round;}
  </style>
 </defs>
 <g id="figure_1">
  <g id="patch_1">
   <path d="M 0 432 
L 504 432 
L 504 0 
L 0 0 
z
" style="fill:#ffffff;"/>
  </g>
  <g id="axes_1">
   <g id="patch_2">
    <path d="M 63 384.48 
L 453.6 384.48 
L 453.6 51.84 
L 63 51.84 
z
" style="fill:#ffffff;"/>
   </g>
   <g id="matplotlib.axis_1">
    <g id="xtick_1">
     <g id="line2d_1">
      <defs>
       <path d="M 0 0 
L 0 3.5 
" id="mf09eee4592" style="stroke:#000000;stroke-width:0.8;"/>
      </defs>
      <g>
       <use style="stroke:#000000;stroke-width:0.8;" x="80.754545" xlink:href="#mf09eee4592" y="384.48"/>
      </g>
     </g>
     <g id="text_1">
      <!-- 0 -->
      <defs>
       <path d="M 31.78125 66.40625 
Q 24.171875 66.40625 20.328125 58.90625 
Q 16.5 51.421875 16.5 36.375 
Q 16.5 21.390625 20.328125 13.890625 
Q 24.171875 6.390625 31.78125 6.390625 
Q 39.453125 6.390625 43.28125 13.890625 
Q 47.125 21.390625 47.125 36.375 
Q 47.125 51.421875 43.28125 58.90625 
Q 39.453125 66.40625 31.78125 66.40625 
z
M 31.78125 74.21875 
Q 44.046875 74.21875 50.515625 64.515625 
Q 56.984375 54.828125 56.984375 36.375 
Q 56.984375 17.96875 50.515625 8.265625 
Q 44.046875 -1.421875 31.78125 -1.421875 
Q 19.53125 -1.421875 13.0625 8.265625 
Q 6.59375 17.96875 6.59375 36.375 
Q 6.59375 54.828125 13.0625 64.515625 
Q 19.53125 74.21875 31.78125 74.21875 
z
" id="DejaVuSans-48"/>
      </defs>
      <g transform="translate(77.573295 399.078438)scale(0.1 -0.1)">
       <use xlink:href="#DejaVuSans-48"/>
      </g>
     </g>
    </g>
    <g id="xtick_2">
     <g id="line2d_2">
      <g>
       <use style="stroke:#000000;stroke-width:0.8;" x="151.772727" xlink:href="#mf09eee4592" y="384.48"/>
      </g>
     </g>
     <g id="text_2">
      <!-- 200 -->
      <defs>
       <path d="M 19.1875 8.296875 
L 53.609375 8.296875 
L 53.609375 0 
L 7.328125 0 
L 7.328125 8.296875 
Q 12.9375 14.109375 22.625 23.890625 
Q 32.328125 33.6875 34.8125 36.53125 
Q 39.546875 41.84375 41.421875 45.53125 
Q 43.3125 49.21875 43.3125 52.78125 
Q 43.3125 58.59375 39.234375 62.25 
Q 35.15625 65.921875 28.609375 65.921875 
Q 23.96875 65.921875 18.8125 64.3125 
Q 13.671875 62.703125 7.8125 59.421875 
L 7.8125 69.390625 
Q 13.765625 71.78125 18.9375 73 
Q 24.125 74.21875 28.421875 74.21875 
Q 39.75 74.21875 46.484375 68.546875 
Q 53.21875 62.890625 53.21875 53.421875 
Q 53.21875 48.921875 51.53125 44.890625 
Q 49.859375 40.875 45.40625 35.40625 
Q 44.1875 33.984375 37.640625 27.21875 
Q 31.109375 20.453125 19.1875 8.296875 
z
" id="DejaVuSans-50"/>
      </defs>
      <g transform="translate(142.228977 399.078438)scale(0.1 -0.1)">
       <use xlink:href="#DejaVuSans-50"/>
       <use x="63.623047" xlink:href="#DejaVuSans-48"/>
       <use x="127.246094" xlink:href="#DejaVuSans-48"/>
      </g>
     </g>
    </g>
    <g id="xtick_3">
     <g id="line2d_3">
      <g>
       <use style="stroke:#000000;stroke-width:0.8;" x="222.790909" xlink:href="#mf09eee4592" y="384.48"/>
      </g>
     </g>
     <g id="text_3">
      <!-- 400 -->
      <defs>
       <path d="M 37.796875 64.3125 
L 12.890625 25.390625 
L 37.796875 25.390625 
z
M 35.203125 72.90625 
L 47.609375 72.90625 
L 47.609375 25.390625 
L 58.015625 25.390625 
L 58.015625 17.1875 
L 47.609375 17.1875 
L 47.609375 0 
L 37.796875 0 
L 37.796875 17.1875 
L 4.890625 17.1875 
L 4.890625 26.703125 
z
" id="DejaVuSans-52"/>
      </defs>
      <g transform="translate(213.247159 399.078438)scale(0.1 -0.1)">
       <use xlink:href="#DejaVuSans-52"/>
       <use x="63.623047" xlink:href="#DejaVuSans-48"/>
       <use x="127.246094" xlink:href="#DejaVuSans-48"/>
      </g>
     </g>
    </g>
    <g id="xtick_4">
     <g id="line2d_4">
      <g>
       <use style="stroke:#000000;stroke-width:0.8;" x="293.809091" xlink:href="#mf09eee4592" y="384.48"/>
      </g>
     </g>
     <g id="text_4">
      <!-- 600 -->
      <defs>
       <path d="M 33.015625 40.375 
Q 26.375 40.375 22.484375 35.828125 
Q 18.609375 31.296875 18.609375 23.390625 
Q 18.609375 15.53125 22.484375 10.953125 
Q 26.375 6.390625 33.015625 6.390625 
Q 39.65625 6.390625 43.53125 10.953125 
Q 47.40625 15.53125 47.40625 23.390625 
Q 47.40625 31.296875 43.53125 35.828125 
Q 39.65625 40.375 33.015625 40.375 
z
M 52.59375 71.296875 
L 52.59375 62.3125 
Q 48.875 64.0625 45.09375 64.984375 
Q 41.3125 65.921875 37.59375 65.921875 
Q 27.828125 65.921875 22.671875 59.328125 
Q 17.53125 52.734375 16.796875 39.40625 
Q 19.671875 43.65625 24.015625 45.921875 
Q 28.375 48.1875 33.59375 48.1875 
Q 44.578125 48.1875 50.953125 41.515625 
Q 57.328125 34.859375 57.328125 23.390625 
Q 57.328125 12.15625 50.6875 5.359375 
Q 44.046875 -1.421875 33.015625 -1.421875 
Q 20.359375 -1.421875 13.671875 8.265625 
Q 6.984375 17.96875 6.984375 36.375 
Q 6.984375 53.65625 15.1875 63.9375 
Q 23.390625 74.21875 37.203125 74.21875 
Q 40.921875 74.21875 44.703125 73.484375 
Q 48.484375 72.75 52.59375 71.296875 
z
" id="DejaVuSans-54"/>
      </defs>
      <g transform="translate(284.265341 399.078438)scale(0.1 -0.1)">
       <use xlink:href="#DejaVuSans-54"/>
       <use x="63.623047" xlink:href="#DejaVuSans-48"/>
       <use x="127.246094" xlink:href="#DejaVuSans-48"/>
      </g>
     </g>
    </g>
    <g id="xtick_5">
     <g id="line2d_5">
      <g>
       <use style="stroke:#000000;stroke-width:0.8;" x="364.827273" xlink:href="#mf09eee4592" y="384.48"/>
      </g>
     </g>
     <g id="text_5">
      <!-- 800 -->
      <defs>
       <path d="M 31.78125 34.625 
Q 24.75 34.625 20.71875 30.859375 
Q 16.703125 27.09375 16.703125 20.515625 
Q 16.703125 13.921875 20.71875 10.15625 
Q 24.75 6.390625 31.78125 6.390625 
Q 38.8125 6.390625 42.859375 10.171875 
Q 46.921875 13.96875 46.921875 20.515625 
Q 46.921875 27.09375 42.890625 30.859375 
Q 38.875 34.625 31.78125 34.625 
z
M 21.921875 38.8125 
Q 15.578125 40.375 12.03125 44.71875 
Q 8.5 49.078125 8.5 55.328125 
Q 8.5 64.0625 14.71875 69.140625 
Q 20.953125 74.21875 31.78125 74.21875 
Q 42.671875 74.21875 48.875 69.140625 
Q 55.078125 64.0625 55.078125 55.328125 
Q 55.078125 49.078125 51.53125 44.71875 
Q 48 40.375 41.703125 38.8125 
Q 48.828125 37.15625 52.796875 32.3125 
Q 56.78125 27.484375 56.78125 20.515625 
Q 56.78125 9.90625 50.3125 4.234375 
Q 43.84375 -1.421875 31.78125 -1.421875 
Q 19.734375 -1.421875 13.25 4.234375 
Q 6.78125 9.90625 6.78125 20.515625 
Q 6.78125 27.484375 10.78125 32.3125 
Q 14.796875 37.15625 21.921875 38.8125 
z
M 18.3125 54.390625 
Q 18.3125 48.734375 21.84375 45.5625 
Q 25.390625 42.390625 31.78125 42.390625 
Q 38.140625 42.390625 41.71875 45.5625 
Q 45.3125 48.734375 45.3125 54.390625 
Q 45.3125 60.0625 41.71875 63.234375 
Q 38.140625 66.40625 31.78125 66.40625 
Q 25.390625 66.40625 21.84375 63.234375 
Q 18.3125 60.0625 18.3125 54.390625 
z
" id="DejaVuSans-56"/>
      </defs>
      <g transform="translate(355.283523 399.078438)scale(0.1 -0.1)">
       <use xlink:href="#DejaVuSans-56"/>
       <use x="63.623047" xlink:href="#DejaVuSans-48"/>
       <use x="127.246094" xlink:href="#DejaVuSans-48"/>
      </g>
     </g>
    </g>
    <g id="text_6">
     <!-- time [ms] -->
     <defs>
      <path d="M 18.3125 70.21875 
L 18.3125 54.6875 
L 36.8125 54.6875 
L 36.8125 47.703125 
L 18.3125 47.703125 
L 18.3125 18.015625 
Q 18.3125 11.328125 20.140625 9.421875 
Q 21.96875 7.515625 27.59375 7.515625 
L 36.8125 7.515625 
L 36.8125 0 
L 27.59375 0 
Q 17.1875 0 13.234375 3.875 
Q 9.28125 7.765625 9.28125 18.015625 
L 9.28125 47.703125 
L 2.6875 47.703125 
L 2.6875 54.6875 
L 9.28125 54.6875 
L 9.28125 70.21875 
z
" id="DejaVuSans-116"/>
      <path d="M 9.421875 54.6875 
L 18.40625 54.6875 
L 18.40625 0 
L 9.421875 0 
z
M 9.421875 75.984375 
L 18.40625 75.984375 
L 18.40625 64.59375 
L 9.421875 64.59375 
z
" id="DejaVuSans-105"/>
      <path d="M 52 44.1875 
Q 55.375 50.25 60.0625 53.125 
Q 64.75 56 71.09375 56 
Q 79.640625 56 84.28125 50.015625 
Q 88.921875 44.046875 88.921875 33.015625 
L 88.921875 0 
L 79.890625 0 
L 79.890625 32.71875 
Q 79.890625 40.578125 77.09375 44.375 
Q 74.3125 48.1875 68.609375 48.1875 
Q 61.625 48.1875 57.5625 43.546875 
Q 53.515625 38.921875 53.515625 30.90625 
L 53.515625 0 
L 44.484375 0 
L 44.484375 32.71875 
Q 44.484375 40.625 41.703125 44.40625 
Q 38.921875 48.1875 33.109375 48.1875 
Q 26.21875 48.1875 22.15625 43.53125 
Q 18.109375 38.875 18.109375 30.90625 
L 18.109375 0 
L 9.078125 0 
L 9.078125 54.6875 
L 18.109375 54.6875 
L 18.109375 46.1875 
Q 21.1875 51.21875 25.484375 53.609375 
Q 29.78125 56 35.6875 56 
Q 41.65625 56 45.828125 52.96875 
Q 50 49.953125 52 44.1875 
z
" id="DejaVuSans-109"/>
      <path d="M 56.203125 29.59375 
L 56.203125 25.203125 
L 14.890625 25.203125 
Q 15.484375 15.921875 20.484375 11.0625 
Q 25.484375 6.203125 34.421875 6.203125 
Q 39.59375 6.203125 44.453125 7.46875 
Q 49.3125 8.734375 54.109375 11.28125 
L 54.109375 2.78125 
Q 49.265625 0.734375 44.1875 -0.34375 
Q 39.109375 -1.421875 33.890625 -1.421875 
Q 20.796875 -1.421875 13.15625 6.1875 
Q 5.515625 13.8125 5.515625 26.8125 
Q 5.515625 40.234375 12.765625 48.109375 
Q 20.015625 56 32.328125 56 
Q 43.359375 56 49.78125 48.890625 
Q 56.203125 41.796875 56.203125 29.59375 
z
M 47.21875 32.234375 
Q 47.125 39.59375 43.09375 43.984375 
Q 39.0625 48.390625 32.421875 48.390625 
Q 24.90625 48.390625 20.390625 44.140625 
Q 15.875 39.890625 15.1875 32.171875 
z
" id="DejaVuSans-101"/>
      <path id="DejaVuSans-32"/>
      <path d="M 8.59375 75.984375 
L 29.296875 75.984375 
L 29.296875 69 
L 17.578125 69 
L 17.578125 -6.203125 
L 29.296875 -6.203125 
L 29.296875 -13.1875 
L 8.59375 -13.1875 
z
" id="DejaVuSans-91"/>
      <path d="M 44.28125 53.078125 
L 44.28125 44.578125 
Q 40.484375 46.53125 36.375 47.5 
Q 32.28125 48.484375 27.875 48.484375 
Q 21.1875 48.484375 17.84375 46.4375 
Q 14.5 44.390625 14.5 40.28125 
Q 14.5 37.15625 16.890625 35.375 
Q 19.28125 33.59375 26.515625 31.984375 
L 29.59375 31.296875 
Q 39.15625 29.25 43.1875 25.515625 
Q 47.21875 21.78125 47.21875 15.09375 
Q 47.21875 7.46875 41.1875 3.015625 
Q 35.15625 -1.421875 24.609375 -1.421875 
Q 20.21875 -1.421875 15.453125 -0.5625 
Q 10.6875 0.296875 5.421875 2 
L 5.421875 11.28125 
Q 10.40625 8.6875 15.234375 7.390625 
Q 20.0625 6.109375 24.8125 6.109375 
Q 31.15625 6.109375 34.5625 8.28125 
Q 37.984375 10.453125 37.984375 14.40625 
Q 37.984375 18.0625 35.515625 20.015625 
Q 33.0625 21.96875 24.703125 23.78125 
L 21.578125 24.515625 
Q 13.234375 26.265625 9.515625 29.90625 
Q 5.8125 33.546875 5.8125 39.890625 
Q 5.8125 47.609375 11.28125 51.796875 
Q 16.75 56 26.8125 56 
Q 31.78125 56 36.171875 55.265625 
Q 40.578125 54.546875 44.28125 53.078125 
z
" id="DejaVuSans-115"/>
      <path d="M 30.421875 75.984375 
L 30.421875 -13.1875 
L 9.71875 -13.1875 
L 9.71875 -6.203125 
L 21.390625 -6.203125 
L 21.390625 69 
L 9.71875 69 
L 9.71875 75.984375 
z
" id="DejaVuSans-93"/>
     </defs>
     <g transform="translate(234.038281 412.756563)scale(0.1 -0.1)">
      <use xlink:href="#DejaVuSans-116"/>
      <use x="39.208984" xlink:href="#DejaVuSans-105"/>
      <use x="66.992188" xlink:href="#DejaVuSans-109"/>
      <use x="164.404297" xlink:href="#DejaVuSans-101"/>
      <use x="225.927734" xlink:href="#DejaVuSans-32"/>
      <use x="257.714844" xlink:href="#DejaVuSans-91"/>
      <use x="296.728516" xlink:href="#DejaVuSans-109"/>
      <use x="394.140625" xlink:href="#DejaVuSans-115"/>
      <use x="446.240234" xlink:href="#DejaVuSans-93"/>
     </g>
    </g>
   </g>
   <g id="matplotlib.axis_2">
    <g id="ytick_1">
     <g id="line2d_6">
      <defs>
       <path d="M 0 0 
L -3.5 0 
" id="m36b9c3899e" style="stroke:#000000;stroke-width:0.8;"/>
      </defs>
      <g>
       <use style="stroke:#000000;stroke-width:0.8;" x="63" xlink:href="#m36b9c3899e" y="346.407518"/>
      </g>
     </g>
     <g id="text_7">
      <!-- −60 -->
      <defs>
       <path d="M 10.59375 35.5 
L 73.1875 35.5 
L 73.1875 27.203125 
L 10.59375 27.203125 
z
" id="DejaVuSans-8722"/>
      </defs>
      <g transform="translate(34.895313 350.206737)scale(0.1 -0.1)">
       <use xlink:href="#DejaVuSans-8722"/>
       <use x="83.789062" xlink:href="#DejaVuSans-54"/>
       <use x="147.412109" xlink:href="#DejaVuSans-48"/>
      </g>
     </g>
    </g>
    <g id="ytick_2">
     <g id="line2d_7">
      <g>
       <use style="stroke:#000000;stroke-width:0.8;" x="63" xlink:href="#m36b9c3899e" y="279.699191"/>
      </g>
     </g>
     <g id="text_8">
      <!-- −40 -->
      <g transform="translate(34.895313 283.49841)scale(0.1 -0.1)">
       <use xlink:href="#DejaVuSans-8722"/>
       <use x="83.789062" xlink:href="#DejaVuSans-52"/>
       <use x="147.412109" xlink:href="#DejaVuSans-48"/>
      </g>
     </g>
    </g>
    <g id="ytick_3">
     <g id="line2d_8">
      <g>
       <use style="stroke:#000000;stroke-width:0.8;" x="63" xlink:href="#m36b9c3899e" y="212.990864"/>
      </g>
     </g>
     <g id="text_9">
      <!-- −20 -->
      <g transform="translate(34.895313 216.790083)scale(0.1 -0.1)">
       <use xlink:href="#DejaVuSans-8722"/>
       <use x="83.789062" xlink:href="#DejaVuSans-50"/>
       <use x="147.412109" xlink:href="#DejaVuSans-48"/>
      </g>
     </g>
    </g>
    <g id="ytick_4">
     <g id="line2d_9">
      <g>
       <use style="stroke:#000000;stroke-width:0.8;" x="63" xlink:href="#m36b9c3899e" y="146.282537"/>
      </g>
     </g>
     <g id="text_10">
      <!-- 0 -->
      <g transform="translate(49.6375 150.081755)scale(0.1 -0.1)">
       <use xlink:href="#DejaVuSans-48"/>
      </g>
     </g>
    </g>
    <g id="ytick_5">
     <g id="line2d_10">
      <g>
       <use style="stroke:#000000;stroke-width:0.8;" x="63" xlink:href="#m36b9c3899e" y="79.57421"/>
      </g>
     </g>
     <g id="text_11">
      <!-- 20 -->
      <g transform="translate(43.275 83.373428)scale(0.1 -0.1)">
       <use xlink:href="#DejaVuSans-50"/>
       <use x="63.623047" xlink:href="#DejaVuSans-48"/>
      </g>
     </g>
    </g>
    <g id="text_12">
     <!-- voltage [V] -->
     <defs>
      <path d="M 2.984375 54.6875 
L 12.5 54.6875 
L 29.59375 8.796875 
L 46.6875 54.6875 
L 56.203125 54.6875 
L 35.6875 0 
L 23.484375 0 
z
" id="DejaVuSans-118"/>
      <path d="M 30.609375 48.390625 
Q 23.390625 48.390625 19.1875 42.75 
Q 14.984375 37.109375 14.984375 27.296875 
Q 14.984375 17.484375 19.15625 11.84375 
Q 23.34375 6.203125 30.609375 6.203125 
Q 37.796875 6.203125 41.984375 11.859375 
Q 46.1875 17.53125 46.1875 27.296875 
Q 46.1875 37.015625 41.984375 42.703125 
Q 37.796875 48.390625 30.609375 48.390625 
z
M 30.609375 56 
Q 42.328125 56 49.015625 48.375 
Q 55.71875 40.765625 55.71875 27.296875 
Q 55.71875 13.875 49.015625 6.21875 
Q 42.328125 -1.421875 30.609375 -1.421875 
Q 18.84375 -1.421875 12.171875 6.21875 
Q 5.515625 13.875 5.515625 27.296875 
Q 5.515625 40.765625 12.171875 48.375 
Q 18.84375 56 30.609375 56 
z
" id="DejaVuSans-111"/>
      <path d="M 9.421875 75.984375 
L 18.40625 75.984375 
L 18.40625 0 
L 9.421875 0 
z
" id="DejaVuSans-108"/>
      <path d="M 34.28125 27.484375 
Q 23.390625 27.484375 19.1875 25 
Q 14.984375 22.515625 14.984375 16.5 
Q 14.984375 11.71875 18.140625 8.90625 
Q 21.296875 6.109375 26.703125 6.109375 
Q 34.1875 6.109375 38.703125 11.40625 
Q 43.21875 16.703125 43.21875 25.484375 
L 43.21875 27.484375 
z
M 52.203125 31.203125 
L 52.203125 0 
L 43.21875 0 
L 43.21875 8.296875 
Q 40.140625 3.328125 35.546875 0.953125 
Q 30.953125 -1.421875 24.3125 -1.421875 
Q 15.921875 -1.421875 10.953125 3.296875 
Q 6 8.015625 6 15.921875 
Q 6 25.140625 12.171875 29.828125 
Q 18.359375 34.515625 30.609375 34.515625 
L 43.21875 34.515625 
L 43.21875 35.40625 
Q 43.21875 41.609375 39.140625 45 
Q 35.0625 48.390625 27.6875 48.390625 
Q 23 48.390625 18.546875 47.265625 
Q 14.109375 46.140625 10.015625 43.890625 
L 10.015625 52.203125 
Q 14.9375 54.109375 19.578125 55.046875 
Q 24.21875 56 28.609375 56 
Q 40.484375 56 46.34375 49.84375 
Q 52.203125 43.703125 52.203125 31.203125 
z
" id="DejaVuSans-97"/>
      <path d="M 45.40625 27.984375 
Q 45.40625 37.75 41.375 43.109375 
Q 37.359375 48.484375 30.078125 48.484375 
Q 22.859375 48.484375 18.828125 43.109375 
Q 14.796875 37.75 14.796875 27.984375 
Q 14.796875 18.265625 18.828125 12.890625 
Q 22.859375 7.515625 30.078125 7.515625 
Q 37.359375 7.515625 41.375 12.890625 
Q 45.40625 18.265625 45.40625 27.984375 
z
M 54.390625 6.78125 
Q 54.390625 -7.171875 48.1875 -13.984375 
Q 42 -20.796875 29.203125 -20.796875 
Q 24.46875 -20.796875 20.265625 -20.09375 
Q 16.0625 -19.390625 12.109375 -17.921875 
L 12.109375 -9.1875 
Q 16.0625 -11.328125 19.921875 -12.34375 
Q 23.78125 -13.375 27.78125 -13.375 
Q 36.625 -13.375 41.015625 -8.765625 
Q 45.40625 -4.15625 45.40625 5.171875 
L 45.40625 9.625 
Q 42.625 4.78125 38.28125 2.390625 
Q 33.9375 0 27.875 0 
Q 17.828125 0 11.671875 7.65625 
Q 5.515625 15.328125 5.515625 27.984375 
Q 5.515625 40.671875 11.671875 48.328125 
Q 17.828125 56 27.875 56 
Q 33.9375 56 38.28125 53.609375 
Q 42.625 51.21875 45.40625 46.390625 
L 45.40625 54.6875 
L 54.390625 54.6875 
z
" id="DejaVuSans-103"/>
      <path d="M 28.609375 0 
L 0.78125 72.90625 
L 11.078125 72.90625 
L 34.1875 11.53125 
L 57.328125 72.90625 
L 67.578125 72.90625 
L 39.796875 0 
z
" id="DejaVuSans-86"/>
     </defs>
     <g transform="translate(28.815625 245.75375)rotate(-90)scale(0.1 -0.1)">
      <use xlink:href="#DejaVuSans-118"/>
      <use x="59.179688" xlink:href="#DejaVuSans-111"/>
      <use x="120.361328" xlink:href="#DejaVuSans-108"/>
      <use x="148.144531" xlink:href="#DejaVuSans-116"/>
      <use x="187.353516" xlink:href="#DejaVuSans-97"/>
      <use x="248.632812" xlink:href="#DejaVuSans-103"/>
      <use x="312.109375" xlink:href="#DejaVuSans-101"/>
      <use x="373.632812" xlink:href="#DejaVuSans-32"/>
      <use x="405.419922" xlink:href="#DejaVuSans-91"/>
      <use x="444.433594" xlink:href="#DejaVuSans-86"/>
      <use x="512.841797" xlink:href="#DejaVuSans-93"/>
     </g>
    </g>
   </g>
   <g id="line2d_11">
    <path clip-path="url(#pdd6687b63e)" d="M 80.754545 363.084592 
L 81.695536 363.096498 
L 85.743573 363.516215 
L 98.5446 364.829577 
L 108.646936 365.623141 
L 119.494964 366.249049 
L 131.656827 366.723343 
L 145.878218 367.049065 
L 151.772727 367.130395 
L 151.8615 365.120376 
L 152.234345 356.930181 
L 152.731473 351.197656 
L 153.565936 344.424925 
L 154.9863 334.881581 
L 156.726245 324.714309 
L 158.412927 316.117537 
L 160.028591 308.996005 
L 161.590991 303.105625 
L 163.153391 298.08799 
L 164.840073 293.438079 
L 167.236936 287.565883 
L 168.941373 283.158644 
L 169.793591 280.350191 
L 170.361736 277.731754 
L 170.752336 274.894791 
L 171.036409 270.819583 
L 171.1962 263.634893 
L 171.249464 255.647302 
L 171.622309 69.287723 
L 171.675573 66.96 
L 171.746591 67.199693 
L 171.906382 79.957631 
L 172.190455 132.346499 
L 172.847373 249.970675 
L 173.220218 284.284193 
L 173.5398 296.590069 
L 173.912645 303.007063 
L 174.303245 306.364583 
L 174.782618 308.563178 
L 175.226482 309.670792 
L 175.6881 310.259631 
L 176.096455 310.452223 
L 176.522564 310.408753 
L 177.019691 310.117386 
L 177.676609 309.436652 
L 178.528827 308.206507 
L 179.771645 305.995945 
L 182.807673 299.976669 
L 185.470855 294.986271 
L 188.134036 290.494729 
L 192.217582 283.662758 
L 193.336118 281.280042 
L 194.117318 279.081703 
L 194.685464 276.76139 
L 195.093818 273.98377 
L 195.324627 271.042966 
L 195.502173 265.126142 
L 195.573191 255.94643 
L 195.626455 228.6219 
L 195.839509 97.60101 
L 196.017055 89.020151 
L 196.034809 88.978865 
L 196.176845 92.696557 
L 196.407655 109.674089 
L 196.744991 158.19779 
L 197.437418 255.223698 
L 197.810264 279.813972 
L 198.200864 291.468587 
L 198.591464 297.071985 
L 199.070836 300.747195 
L 199.550209 302.90309 
L 200.082845 304.388612 
L 200.650991 305.327342 
L 201.219136 305.81723 
L 201.787282 305.984302 
L 202.390936 305.899572 
L 203.083364 305.557982 
L 203.988845 304.832671 
L 205.231664 303.512173 
L 207.220173 301.023023 
L 212.9904 293.66929 
L 217.855145 288.007538 
L 220.4118 284.841308 
L 221.885427 282.669202 
L 222.915191 280.759986 
L 223.660882 278.919448 
L 224.229027 276.904216 
L 224.637382 274.590713 
L 224.9037 271.880486 
L 225.081245 268.144666 
L 225.205527 258.945524 
L 225.241036 245.515726 
L 225.525109 96.402295 
L 225.596127 94.065537 
L 225.667145 94.614224 
L 225.862445 102.491567 
L 226.164273 126.723107 
L 226.679155 195.372004 
L 227.229545 256.801138 
L 227.6379 278.050886 
L 228.046255 288.315313 
L 228.454609 293.65382 
L 228.933982 297.264439 
L 229.502127 299.859268 
L 230.105782 301.587718 
L 230.691682 302.652409 
L 231.313091 303.331225 
L 231.898991 303.663573 
L 232.538155 303.771455 
L 233.266091 303.652502 
L 234.136064 303.265373 
L 235.236845 302.51447 
L 236.781491 301.163318 
L 239.320391 298.607077 
L 247.416464 290.347826 
L 251.446745 286.170541 
L 253.346482 283.881265 
L 254.642564 281.977104 
L 255.601309 280.166341 
L 256.275982 278.439594 
L 256.808618 276.453793 
L 257.181464 274.215758 
L 257.447782 271.232268 
L 257.607573 267.308293 
L 257.696345 260.838317 
L 257.767364 237.804756 
L 257.998173 99.994302 
L 258.122455 94.754015 
L 258.157964 95.359245 
L 258.264491 98.817546 
L 258.566318 119.104835 
L 258.956918 163.224541 
L 259.755873 255.359472 
L 260.181982 277.161523 
L 260.590336 287.241958 
L 261.016445 292.597518 
L 261.495818 295.997494 
L 262.028455 298.325967 
L 262.649864 300.063989 
L 263.271273 301.176015 
L 263.892682 301.867774 
L 264.531845 302.260947 
L 265.206518 302.414558 
L 265.952209 302.350227 
L 266.839936 302.039568 
L 267.958473 301.396337 
L 269.449855 300.264986 
L 271.722436 298.238476 
L 281.185609 289.264558 
L 284.434691 285.991795 
L 286.281164 283.830286 
L 287.577245 281.982894 
L 288.518236 280.27003 
L 289.246173 278.4753 
L 289.778809 276.55703 
L 290.151655 274.431038 
L 290.435727 271.464661 
L 290.631027 266.360276 
L 290.7198 258.007077 
L 290.844082 161.205898 
L 291.003873 99.138185 
L 291.128155 95.045667 
L 291.163664 95.572322 
L 291.341209 102.982828 
L 291.643036 126.511205 
L 292.175673 192.072905 
L 292.761573 254.853337 
L 293.152173 275.290621 
L 293.560527 286.158038 
L 294.004391 292.065267 
L 294.483764 295.596734 
L 295.051909 298.116262 
L 295.673318 299.852278 
L 296.276973 300.941228 
L 296.916136 301.663448 
L 297.5553 302.064736 
L 298.247727 302.23047 
L 299.028927 302.167047 
L 299.952164 301.844817 
L 301.141718 301.159045 
L 302.686364 299.989148 
L 305.154245 297.803936 
L 315.451882 288.145999 
L 318.150573 285.363733 
L 319.837255 283.316608 
L 321.062318 281.476333 
L 321.950045 279.736917 
L 322.589209 278.017673 
L 323.068582 276.127391 
L 323.423673 273.862461 
L 323.672236 270.932661 
L 323.849782 265.425753 
L 323.938555 254.614496 
L 323.974064 234.155356 
L 324.204873 100.37827 
L 324.3114 94.828815 
L 324.346909 95.305137 
L 324.453436 98.306224 
L 324.755264 118.273255 
L 325.163618 163.659039 
L 325.962573 254.674733 
L 326.388682 276.561892 
L 326.797036 286.86944 
L 327.2409 292.501318 
L 327.738027 295.9805 
L 328.306173 298.36751 
L 328.927582 300.015539 
L 329.5845 301.115166 
L 330.223664 301.761541 
L 330.880582 302.112121 
L 331.555255 302.225746 
L 332.354209 302.119251 
L 333.2952 301.751905 
L 334.484755 301.032829 
L 336.135927 299.749922 
L 338.834618 297.329727 
L 350.197527 286.613779 
L 352.274809 284.320348 
L 353.677418 282.460418 
L 354.724936 280.710662 
L 355.506136 278.970997 
L 356.092036 277.109186 
L 356.518145 275.000564 
L 356.819973 272.377667 
L 357.015273 268.828523 
L 357.139555 262.448462 
L 357.210573 243.482224 
L 357.476891 97.822844 
L 357.565664 94.991755 
L 357.618927 95.573355 
L 357.778718 102.082857 
L 358.116055 128.563431 
L 358.648691 194.710248 
L 359.216836 255.101729 
L 359.625191 276.293138 
L 360.033545 286.836374 
L 360.459655 292.40322 
L 360.939027 295.879615 
L 361.453909 298.157734 
L 362.057564 299.864908 
L 362.678973 300.990685 
L 363.318136 301.706299 
L 363.975055 302.107498 
L 364.649727 302.259149 
L 364.862782 302.263244 
L 364.969309 304.458282 
L 365.306645 311.711629 
L 365.786018 316.826442 
L 366.460691 321.440383 
L 367.348418 325.968592 
L 368.395936 330.172125 
L 369.532227 333.857782 
L 370.775045 337.176709 
L 372.1599 340.248252 
L 373.633527 342.983474 
L 375.213682 345.457799 
L 376.900364 347.698382 
L 378.729082 349.766175 
L 380.735345 351.697804 
L 382.9014 353.474123 
L 385.280509 355.135748 
L 387.890427 356.6861 
L 390.819927 358.16136 
L 394.051255 359.535822 
L 397.673182 360.831596 
L 401.721218 362.041537 
L 406.266382 363.166013 
L 411.361936 364.195253 
L 417.061145 365.116926 
L 423.417273 365.917177 
L 430.572355 366.589538 
L 435.8277 366.958674 
L 435.8277 366.958674 
" style="fill:none;stroke:#1f77b4;stroke-linecap:square;stroke-width:1.5;"/>
   </g>
   <g id="line2d_12">
    <path clip-path="url(#pdd6687b63e)" d="M 80.754545 363.0846 
L 81.482482 363.235186 
L 92.454791 365.783073 
L 97.443818 366.595575 
L 102.752427 367.231955 
L 108.611427 367.705683 
L 115.3404 368.020303 
L 123.667282 368.176227 
L 135.775882 368.158227 
L 151.772727 368.012715 
L 151.985782 357.869984 
L 152.429645 348.254441 
L 153.139827 337.956908 
L 154.151836 326.541899 
L 155.270373 316.335037 
L 156.335645 308.564475 
L 157.365409 302.628467 
L 158.412927 297.866836 
L 159.513709 293.884233 
L 160.721018 290.338138 
L 162.159136 286.81573 
L 164.573755 281.612019 
L 165.9231 278.415903 
L 166.686545 276.03349 
L 167.201427 273.715824 
L 167.574273 271.01034 
L 167.840591 267.29778 
L 168.000382 261.881169 
L 168.089155 251.946597 
L 168.142418 217.617372 
L 168.284455 83.394395 
L 168.302209 84.737667 
L 168.426491 116.520872 
L 168.923618 253.01013 
L 169.172182 270.449591 
L 169.402991 274.324968 
L 169.598291 274.883733 
L 169.775836 274.853236 
L 170.113173 274.796654 
L 170.343982 275.02277 
L 170.699073 275.754328 
L 171.675573 278.544685 
L 172.581055 280.707841 
L 173.415518 282.139983 
L 174.267736 283.168231 
L 175.137709 283.877827 
L 176.060945 284.346743 
L 177.0552 284.602467 
L 178.173736 284.655332 
L 179.452064 284.486779 
L 180.9612 284.054881 
L 182.736655 283.307145 
L 184.725164 282.223678 
L 186.660409 280.918265 
L 188.258318 279.581953 
L 189.501136 278.262804 
L 190.459882 276.925985 
L 191.205573 275.49889 
L 191.773718 273.92667 
L 192.217582 272.019315 
L 192.554918 269.502397 
L 192.785727 266.025662 
L 192.945518 259.584452 
L 193.034291 243.012853 
L 193.194082 89.488791 
L 193.318364 113.897185 
L 193.833245 245.351845 
L 194.117318 265.091567 
L 194.419145 272.422875 
L 194.774236 275.858975 
L 195.573191 280.739966 
L 196.372145 284.517851 
L 197.100082 286.929868 
L 197.828018 288.607383 
L 198.573709 289.78801 
L 199.3194 290.573553 
L 200.1006 291.08054 
L 200.917309 291.348791 
L 201.822791 291.410042 
L 202.870309 291.25174 
L 204.148636 290.823671 
L 205.817564 290.014068 
L 208.232182 288.570564 
L 212.635309 285.63577 
L 217.215982 282.360182 
L 219.506318 280.464214 
L 221.033209 278.920749 
L 222.133991 277.497288 
L 222.9507 276.085507 
L 223.589864 274.527364 
L 224.069236 272.767172 
L 224.442082 270.506445 
L 224.7084 267.446613 
L 224.885945 262.72992 
L 224.992473 253.616476 
L 225.045736 231.707368 
L 225.187773 89.323345 
L 225.241036 95.033965 
L 225.471845 167.164397 
L 225.826936 245.901575 
L 226.111009 265.507367 
L 226.395082 272.267262 
L 226.732418 275.494964 
L 227.460355 279.751659 
L 228.312573 283.696987 
L 229.058264 286.134459 
L 229.803955 287.835948 
L 230.549645 289.013019 
L 231.313091 289.823064 
L 232.112045 290.351573 
L 232.946509 290.640177 
L 233.869745 290.723046 
L 234.935018 290.590377 
L 236.2311 290.195859 
L 237.900027 289.442592 
L 240.279136 288.103373 
L 244.291664 285.555041 
L 248.712545 282.514182 
L 251.109409 280.615754 
L 252.707318 279.07742 
L 253.861364 277.662349 
L 254.713582 276.272147 
L 255.3705 274.775775 
L 255.867627 273.098301 
L 256.258227 270.971191 
L 256.5423 268.135091 
L 256.7376 263.823114 
L 256.861882 255.205952 
L 256.915145 239.38883 
L 257.074936 89.532387 
L 257.163709 105.334284 
L 257.785118 253.970576 
L 258.069191 268.490007 
L 258.371018 273.798808 
L 258.779373 276.878351 
L 259.720364 281.870005 
L 260.501564 284.941328 
L 261.247255 286.996398 
L 261.992945 288.427784 
L 262.756391 289.429949 
L 263.537591 290.098304 
L 264.3543 290.507175 
L 265.242027 290.697967 
L 266.236282 290.677484 
L 267.408082 290.423513 
L 268.881709 289.864024 
L 270.870218 288.852021 
L 273.924 287.020895 
L 278.984045 283.710181 
L 282.1266 281.426279 
L 284.044091 279.77183 
L 285.375682 278.341821 
L 286.369936 276.952298 
L 287.115627 275.531692 
L 287.683773 273.980371 
L 288.127636 272.116534 
L 288.464973 269.69499 
L 288.695782 266.453646 
L 288.855573 260.93232 
L 288.944345 250.034738 
L 288.997609 208.241142 
L 289.121891 89.419719 
L 289.139645 90.068494 
L 289.246173 113.222152 
L 289.778809 248.013224 
L 290.062882 266.626396 
L 290.346955 272.978223 
L 290.702045 276.157012 
L 291.483245 280.547598 
L 292.317709 284.187548 
L 293.0634 286.47678 
L 293.809091 288.076094 
L 294.572536 289.203117 
L 295.353736 289.966724 
L 296.152691 290.443404 
L 297.004909 290.695683 
L 297.963655 290.74196 
L 299.082191 290.563228 
L 300.449291 290.108344 
L 302.2425 289.262614 
L 304.887927 287.744591 
L 309.575127 284.763407 
L 313.552145 282.014704 
L 315.753709 280.237753 
L 317.245091 278.758782 
L 318.328118 277.379391 
L 319.144827 275.982681 
L 319.766236 274.483393 
L 320.245609 272.747119 
L 320.618455 270.519171 
L 320.884773 267.519593 
L 321.062318 262.970232 
L 321.168845 254.60159 
L 321.222109 236.721332 
L 321.364145 89.541933 
L 321.452918 101.69452 
L 322.145345 258.359549 
L 322.429418 270.076066 
L 322.731245 274.46028 
L 323.175109 277.497326 
L 324.151609 282.483072 
L 324.915055 285.313129 
L 325.660745 287.253361 
L 326.406436 288.605015 
L 327.169882 289.549476 
L 327.951082 290.175393 
L 328.767791 290.552328 
L 329.655518 290.718694 
L 330.667527 290.677609 
L 331.874836 290.397059 
L 333.401727 289.799715 
L 335.479009 288.729184 
L 338.781355 286.747282 
L 344.089964 283.293384 
L 347.037218 281.141727 
L 348.865936 279.543802 
L 350.144264 278.144649 
L 351.103009 276.771754 
L 351.830945 275.341205 
L 352.399091 273.715804 
L 352.8252 271.804941 
L 353.144782 269.321641 
L 353.375591 265.650084 
L 353.517627 259.756941 
L 353.6064 244.108528 
L 353.677418 130.103393 
L 353.766191 89.463479 
L 353.819455 94.854094 
L 354.032509 160.84146 
L 354.3876 243.676373 
L 354.671673 265.229242 
L 354.955745 272.454609 
L 355.293082 275.75161 
L 355.985509 279.753334 
L 356.855482 283.729441 
L 357.601173 286.143089 
L 358.346864 287.834499 
L 359.110309 289.031472 
L 359.891509 289.849818 
L 360.690464 290.37046 
L 361.542682 290.660086 
L 362.483673 290.740267 
L 363.5667 290.60346 
L 364.827273 290.226076 
L 365.040327 300.258989 
L 365.430927 308.074334 
L 365.981318 314.584923 
L 366.709255 320.526127 
L 367.596982 325.972797 
L 368.626745 330.923795 
L 369.763036 335.306924 
L 370.9881 339.163192 
L 372.301936 342.581664 
L 373.7223 345.665392 
L 375.249191 348.453155 
L 376.900364 351.005711 
L 378.675818 353.343065 
L 380.593309 355.502422 
L 382.670591 357.507701 
L 384.907664 359.358938 
L 387.322282 361.067467 
L 389.896691 362.616859 
L 392.648645 364.013562 
L 395.578145 365.250779 
L 398.702945 366.32817 
L 402.0408 367.242549 
L 405.644973 367.996561 
L 409.568727 368.586878 
L 413.936345 369.014431 
L 418.943127 369.275076 
L 425.032936 369.359722 
L 433.413082 369.2357 
L 435.845455 369.172953 
L 435.845455 369.172953 
" style="fill:none;stroke:#ff0000;stroke-linecap:square;stroke-width:1.5;"/>
   </g>
   <g id="patch_3">
    <path d="M 63 384.48 
L 63 51.84 
" style="fill:none;stroke:#000000;stroke-linecap:square;stroke-linejoin:miter;stroke-width:0.8;"/>
   </g>
   <g id="patch_4">
    <path d="M 453.6 384.48 
L 453.6 51.84 
" style="fill:none;stroke:#000000;stroke-linecap:square;stroke-linejoin:miter;stroke-width:0.8;"/>
   </g>
   <g id="patch_5">
    <path d="M 63 384.48 
L 453.6 384.48 
" style="fill:none;stroke:#000000;stroke-linecap:square;stroke-linejoin:miter;stroke-width:0.8;"/>
   </g>
   <g id="patch_6">
    <path d="M 63 51.84 
L 453.6 51.84 
" style="fill:none;stroke:#000000;stroke-linecap:square;stroke-linejoin:miter;stroke-width:0.8;"/>
   </g>
   <g id="legend_1">
    <g id="patch_7">
     <path d="M 383.460938 89.19625 
L 446.6 89.19625 
Q 448.6 89.19625 448.6 87.19625 
L 448.6 58.84 
Q 448.6 56.84 446.6 56.84 
L 383.460938 56.84 
Q 381.460938 56.84 381.460938 58.84 
L 381.460938 87.19625 
Q 381.460938 89.19625 383.460938 89.19625 
z
" style="fill:#ffffff;opacity:0.8;stroke:#cccccc;stroke-linejoin:miter;"/>
    </g>
    <g id="line2d_13">
     <path d="M 385.460938 64.938437 
L 405.460938 64.938437 
" style="fill:none;stroke:#1f77b4;stroke-linecap:square;stroke-width:1.5;"/>
    </g>
    <g id="line2d_14"/>
    <g id="text_13">
     <!-- target -->
     <defs>
      <path d="M 41.109375 46.296875 
Q 39.59375 47.171875 37.8125 47.578125 
Q 36.03125 48 33.890625 48 
Q 26.265625 48 22.1875 43.046875 
Q 18.109375 38.09375 18.109375 28.8125 
L 18.109375 0 
L 9.078125 0 
L 9.078125 54.6875 
L 18.109375 54.6875 
L 18.109375 46.1875 
Q 20.953125 51.171875 25.484375 53.578125 
Q 30.03125 56 36.53125 56 
Q 37.453125 56 38.578125 55.875 
Q 39.703125 55.765625 41.0625 55.515625 
z
" id="DejaVuSans-114"/>
     </defs>
     <g transform="translate(413.460938 68.438437)scale(0.1 -0.1)">
      <use xlink:href="#DejaVuSans-116"/>
      <use x="39.208984" xlink:href="#DejaVuSans-97"/>
      <use x="100.488281" xlink:href="#DejaVuSans-114"/>
      <use x="141.585938" xlink:href="#DejaVuSans-103"/>
      <use x="205.0625" xlink:href="#DejaVuSans-101"/>
      <use x="266.585938" xlink:href="#DejaVuSans-116"/>
     </g>
    </g>
    <g id="line2d_15">
     <path d="M 385.460938 79.616562 
L 405.460938 79.616562 
" style="fill:none;stroke:#ff0000;stroke-linecap:square;stroke-width:1.5;"/>
    </g>
    <g id="line2d_16"/>
    <g id="text_14">
     <!-- model -->
     <defs>
      <path d="M 45.40625 46.390625 
L 45.40625 75.984375 
L 54.390625 75.984375 
L 54.390625 0 
L 45.40625 0 
L 45.40625 8.203125 
Q 42.578125 3.328125 38.25 0.953125 
Q 33.9375 -1.421875 27.875 -1.421875 
Q 17.96875 -1.421875 11.734375 6.484375 
Q 5.515625 14.40625 5.515625 27.296875 
Q 5.515625 40.1875 11.734375 48.09375 
Q 17.96875 56 27.875 56 
Q 33.9375 56 38.25 53.625 
Q 42.578125 51.265625 45.40625 46.390625 
z
M 14.796875 27.296875 
Q 14.796875 17.390625 18.875 11.75 
Q 22.953125 6.109375 30.078125 6.109375 
Q 37.203125 6.109375 41.296875 11.75 
Q 45.40625 17.390625 45.40625 27.296875 
Q 45.40625 37.203125 41.296875 42.84375 
Q 37.203125 48.484375 30.078125 48.484375 
Q 22.953125 48.484375 18.875 42.84375 
Q 14.796875 37.203125 14.796875 27.296875 
z
" id="DejaVuSans-100"/>
     </defs>
     <g transform="translate(413.460938 83.116562)scale(0.1 -0.1)">
      <use xlink:href="#DejaVuSans-109"/>
      <use x="97.412109" xlink:href="#DejaVuSans-111"/>
      <use x="158.59375" xlink:href="#DejaVuSans-100"/>
      <use x="222.070312" xlink:href="#DejaVuSans-101"/>
      <use x="283.59375" xlink:href="#DejaVuSans-108"/>
     </g>
    </g>
   </g>
  </g>
 </g>
 <defs>
  <clipPath id="pdd6687b63e">
   <rect height="332.64" width="390.6" x="63" y="51.84"/>
  </clipPath>
 </defs>
</svg>
