<?xml version="1.0" encoding="utf-8" standalone="no"?>
<!DOCTYPE svg PUBLIC "-//W3C//DTD SVG 1.1//EN"
  "http://www.w3.org/Graphics/SVG/1.1/DTD/svg11.dtd">
<!-- Created with matplotlib (https://matplotlib.org/) -->
<svg height="432pt" version="1.1" viewBox="0 0 504 432" width="504pt" xmlns="http://www.w3.org/2000/svg" xmlns:xlink="http://www.w3.org/1999/xlink">
 <defs>
  <style type="text/css">
*{stroke-linecap:butt;stroke-linejoin:round;}
  </style>
 </defs>
 <g id="figure_1">
  <g id="patch_1">
   <path d="M 0 432 
L 504 432 
L 504 0 
L 0 0 
z
" style="fill:#ffffff;"/>
  </g>
  <g id="axes_1">
   <g id="patch_2">
    <path d="M 63 384.48 
L 453.6 384.48 
L 453.6 51.84 
L 63 51.84 
z
" style="fill:#ffffff;"/>
   </g>
   <g id="matplotlib.axis_1">
    <g id="xtick_1">
     <g id="line2d_1">
      <defs>
       <path d="M 0 0 
L 0 3.5 
" id="m5f9b0e406e" style="stroke:#000000;stroke-width:0.8;"/>
      </defs>
      <g>
       <use style="stroke:#000000;stroke-width:0.8;" x="80.754545" xlink:href="#m5f9b0e406e" y="384.48"/>
      </g>
     </g>
     <g id="text_1">
      <!-- 0 -->
      <defs>
       <path d="M 31.78125 66.40625 
Q 24.171875 66.40625 20.328125 58.90625 
Q 16.5 51.421875 16.5 36.375 
Q 16.5 21.390625 20.328125 13.890625 
Q 24.171875 6.390625 31.78125 6.390625 
Q 39.453125 6.390625 43.28125 13.890625 
Q 47.125 21.390625 47.125 36.375 
Q 47.125 51.421875 43.28125 58.90625 
Q 39.453125 66.40625 31.78125 66.40625 
z
M 31.78125 74.21875 
Q 44.046875 74.21875 50.515625 64.515625 
Q 56.984375 54.828125 56.984375 36.375 
Q 56.984375 17.96875 50.515625 8.265625 
Q 44.046875 -1.421875 31.78125 -1.421875 
Q 19.53125 -1.421875 13.0625 8.265625 
Q 6.59375 17.96875 6.59375 36.375 
Q 6.59375 54.828125 13.0625 64.515625 
Q 19.53125 74.21875 31.78125 74.21875 
z
" id="DejaVuSans-48"/>
      </defs>
      <g transform="translate(77.573295 399.078438)scale(0.1 -0.1)">
       <use xlink:href="#DejaVuSans-48"/>
      </g>
     </g>
    </g>
    <g id="xtick_2">
     <g id="line2d_2">
      <g>
       <use style="stroke:#000000;stroke-width:0.8;" x="151.772727" xlink:href="#m5f9b0e406e" y="384.48"/>
      </g>
     </g>
     <g id="text_2">
      <!-- 200 -->
      <defs>
       <path d="M 19.1875 8.296875 
L 53.609375 8.296875 
L 53.609375 0 
L 7.328125 0 
L 7.328125 8.296875 
Q 12.9375 14.109375 22.625 23.890625 
Q 32.328125 33.6875 34.8125 36.53125 
Q 39.546875 41.84375 41.421875 45.53125 
Q 43.3125 49.21875 43.3125 52.78125 
Q 43.3125 58.59375 39.234375 62.25 
Q 35.15625 65.921875 28.609375 65.921875 
Q 23.96875 65.921875 18.8125 64.3125 
Q 13.671875 62.703125 7.8125 59.421875 
L 7.8125 69.390625 
Q 13.765625 71.78125 18.9375 73 
Q 24.125 74.21875 28.421875 74.21875 
Q 39.75 74.21875 46.484375 68.546875 
Q 53.21875 62.890625 53.21875 53.421875 
Q 53.21875 48.921875 51.53125 44.890625 
Q 49.859375 40.875 45.40625 35.40625 
Q 44.1875 33.984375 37.640625 27.21875 
Q 31.109375 20.453125 19.1875 8.296875 
z
" id="DejaVuSans-50"/>
      </defs>
      <g transform="translate(142.228977 399.078438)scale(0.1 -0.1)">
       <use xlink:href="#DejaVuSans-50"/>
       <use x="63.623047" xlink:href="#DejaVuSans-48"/>
       <use x="127.246094" xlink:href="#DejaVuSans-48"/>
      </g>
     </g>
    </g>
    <g id="xtick_3">
     <g id="line2d_3">
      <g>
       <use style="stroke:#000000;stroke-width:0.8;" x="222.790909" xlink:href="#m5f9b0e406e" y="384.48"/>
      </g>
     </g>
     <g id="text_3">
      <!-- 400 -->
      <defs>
       <path d="M 37.796875 64.3125 
L 12.890625 25.390625 
L 37.796875 25.390625 
z
M 35.203125 72.90625 
L 47.609375 72.90625 
L 47.609375 25.390625 
L 58.015625 25.390625 
L 58.015625 17.1875 
L 47.609375 17.1875 
L 47.609375 0 
L 37.796875 0 
L 37.796875 17.1875 
L 4.890625 17.1875 
L 4.890625 26.703125 
z
" id="DejaVuSans-52"/>
      </defs>
      <g transform="translate(213.247159 399.078438)scale(0.1 -0.1)">
       <use xlink:href="#DejaVuSans-52"/>
       <use x="63.623047" xlink:href="#DejaVuSans-48"/>
       <use x="127.246094" xlink:href="#DejaVuSans-48"/>
      </g>
     </g>
    </g>
    <g id="xtick_4">
     <g id="line2d_4">
      <g>
       <use style="stroke:#000000;stroke-width:0.8;" x="293.809091" xlink:href="#m5f9b0e406e" y="384.48"/>
      </g>
     </g>
     <g id="text_4">
      <!-- 600 -->
      <defs>
       <path d="M 33.015625 40.375 
Q 26.375 40.375 22.484375 35.828125 
Q 18.609375 31.296875 18.609375 23.390625 
Q 18.609375 15.53125 22.484375 10.953125 
Q 26.375 6.390625 33.015625 6.390625 
Q 39.65625 6.390625 43.53125 10.953125 
Q 47.40625 15.53125 47.40625 23.390625 
Q 47.40625 31.296875 43.53125 35.828125 
Q 39.65625 40.375 33.015625 40.375 
z
M 52.59375 71.296875 
L 52.59375 62.3125 
Q 48.875 64.0625 45.09375 64.984375 
Q 41.3125 65.921875 37.59375 65.921875 
Q 27.828125 65.921875 22.671875 59.328125 
Q 17.53125 52.734375 16.796875 39.40625 
Q 19.671875 43.65625 24.015625 45.921875 
Q 28.375 48.1875 33.59375 48.1875 
Q 44.578125 48.1875 50.953125 41.515625 
Q 57.328125 34.859375 57.328125 23.390625 
Q 57.328125 12.15625 50.6875 5.359375 
Q 44.046875 -1.421875 33.015625 -1.421875 
Q 20.359375 -1.421875 13.671875 8.265625 
Q 6.984375 17.96875 6.984375 36.375 
Q 6.984375 53.65625 15.1875 63.9375 
Q 23.390625 74.21875 37.203125 74.21875 
Q 40.921875 74.21875 44.703125 73.484375 
Q 48.484375 72.75 52.59375 71.296875 
z
" id="DejaVuSans-54"/>
      </defs>
      <g transform="translate(284.265341 399.078438)scale(0.1 -0.1)">
       <use xlink:href="#DejaVuSans-54"/>
       <use x="63.623047" xlink:href="#DejaVuSans-48"/>
       <use x="127.246094" xlink:href="#DejaVuSans-48"/>
      </g>
     </g>
    </g>
    <g id="xtick_5">
     <g id="line2d_5">
      <g>
       <use style="stroke:#000000;stroke-width:0.8;" x="364.827273" xlink:href="#m5f9b0e406e" y="384.48"/>
      </g>
     </g>
     <g id="text_5">
      <!-- 800 -->
      <defs>
       <path d="M 31.78125 34.625 
Q 24.75 34.625 20.71875 30.859375 
Q 16.703125 27.09375 16.703125 20.515625 
Q 16.703125 13.921875 20.71875 10.15625 
Q 24.75 6.390625 31.78125 6.390625 
Q 38.8125 6.390625 42.859375 10.171875 
Q 46.921875 13.96875 46.921875 20.515625 
Q 46.921875 27.09375 42.890625 30.859375 
Q 38.875 34.625 31.78125 34.625 
z
M 21.921875 38.8125 
Q 15.578125 40.375 12.03125 44.71875 
Q 8.5 49.078125 8.5 55.328125 
Q 8.5 64.0625 14.71875 69.140625 
Q 20.953125 74.21875 31.78125 74.21875 
Q 42.671875 74.21875 48.875 69.140625 
Q 55.078125 64.0625 55.078125 55.328125 
Q 55.078125 49.078125 51.53125 44.71875 
Q 48 40.375 41.703125 38.8125 
Q 48.828125 37.15625 52.796875 32.3125 
Q 56.78125 27.484375 56.78125 20.515625 
Q 56.78125 9.90625 50.3125 4.234375 
Q 43.84375 -1.421875 31.78125 -1.421875 
Q 19.734375 -1.421875 13.25 4.234375 
Q 6.78125 9.90625 6.78125 20.515625 
Q 6.78125 27.484375 10.78125 32.3125 
Q 14.796875 37.15625 21.921875 38.8125 
z
M 18.3125 54.390625 
Q 18.3125 48.734375 21.84375 45.5625 
Q 25.390625 42.390625 31.78125 42.390625 
Q 38.140625 42.390625 41.71875 45.5625 
Q 45.3125 48.734375 45.3125 54.390625 
Q 45.3125 60.0625 41.71875 63.234375 
Q 38.140625 66.40625 31.78125 66.40625 
Q 25.390625 66.40625 21.84375 63.234375 
Q 18.3125 60.0625 18.3125 54.390625 
z
" id="DejaVuSans-56"/>
      </defs>
      <g transform="translate(355.283523 399.078438)scale(0.1 -0.1)">
       <use xlink:href="#DejaVuSans-56"/>
       <use x="63.623047" xlink:href="#DejaVuSans-48"/>
       <use x="127.246094" xlink:href="#DejaVuSans-48"/>
      </g>
     </g>
    </g>
    <g id="text_6">
     <!-- time [ms] -->
     <defs>
      <path d="M 18.3125 70.21875 
L 18.3125 54.6875 
L 36.8125 54.6875 
L 36.8125 47.703125 
L 18.3125 47.703125 
L 18.3125 18.015625 
Q 18.3125 11.328125 20.140625 9.421875 
Q 21.96875 7.515625 27.59375 7.515625 
L 36.8125 7.515625 
L 36.8125 0 
L 27.59375 0 
Q 17.1875 0 13.234375 3.875 
Q 9.28125 7.765625 9.28125 18.015625 
L 9.28125 47.703125 
L 2.6875 47.703125 
L 2.6875 54.6875 
L 9.28125 54.6875 
L 9.28125 70.21875 
z
" id="DejaVuSans-116"/>
      <path d="M 9.421875 54.6875 
L 18.40625 54.6875 
L 18.40625 0 
L 9.421875 0 
z
M 9.421875 75.984375 
L 18.40625 75.984375 
L 18.40625 64.59375 
L 9.421875 64.59375 
z
" id="DejaVuSans-105"/>
      <path d="M 52 44.1875 
Q 55.375 50.25 60.0625 53.125 
Q 64.75 56 71.09375 56 
Q 79.640625 56 84.28125 50.015625 
Q 88.921875 44.046875 88.921875 33.015625 
L 88.921875 0 
L 79.890625 0 
L 79.890625 32.71875 
Q 79.890625 40.578125 77.09375 44.375 
Q 74.3125 48.1875 68.609375 48.1875 
Q 61.625 48.1875 57.5625 43.546875 
Q 53.515625 38.921875 53.515625 30.90625 
L 53.515625 0 
L 44.484375 0 
L 44.484375 32.71875 
Q 44.484375 40.625 41.703125 44.40625 
Q 38.921875 48.1875 33.109375 48.1875 
Q 26.21875 48.1875 22.15625 43.53125 
Q 18.109375 38.875 18.109375 30.90625 
L 18.109375 0 
L 9.078125 0 
L 9.078125 54.6875 
L 18.109375 54.6875 
L 18.109375 46.1875 
Q 21.1875 51.21875 25.484375 53.609375 
Q 29.78125 56 35.6875 56 
Q 41.65625 56 45.828125 52.96875 
Q 50 49.953125 52 44.1875 
z
" id="DejaVuSans-109"/>
      <path d="M 56.203125 29.59375 
L 56.203125 25.203125 
L 14.890625 25.203125 
Q 15.484375 15.921875 20.484375 11.0625 
Q 25.484375 6.203125 34.421875 6.203125 
Q 39.59375 6.203125 44.453125 7.46875 
Q 49.3125 8.734375 54.109375 11.28125 
L 54.109375 2.78125 
Q 49.265625 0.734375 44.1875 -0.34375 
Q 39.109375 -1.421875 33.890625 -1.421875 
Q 20.796875 -1.421875 13.15625 6.1875 
Q 5.515625 13.8125 5.515625 26.8125 
Q 5.515625 40.234375 12.765625 48.109375 
Q 20.015625 56 32.328125 56 
Q 43.359375 56 49.78125 48.890625 
Q 56.203125 41.796875 56.203125 29.59375 
z
M 47.21875 32.234375 
Q 47.125 39.59375 43.09375 43.984375 
Q 39.0625 48.390625 32.421875 48.390625 
Q 24.90625 48.390625 20.390625 44.140625 
Q 15.875 39.890625 15.1875 32.171875 
z
" id="DejaVuSans-101"/>
      <path id="DejaVuSans-32"/>
      <path d="M 8.59375 75.984375 
L 29.296875 75.984375 
L 29.296875 69 
L 17.578125 69 
L 17.578125 -6.203125 
L 29.296875 -6.203125 
L 29.296875 -13.1875 
L 8.59375 -13.1875 
z
" id="DejaVuSans-91"/>
      <path d="M 44.28125 53.078125 
L 44.28125 44.578125 
Q 40.484375 46.53125 36.375 47.5 
Q 32.28125 48.484375 27.875 48.484375 
Q 21.1875 48.484375 17.84375 46.4375 
Q 14.5 44.390625 14.5 40.28125 
Q 14.5 37.15625 16.890625 35.375 
Q 19.28125 33.59375 26.515625 31.984375 
L 29.59375 31.296875 
Q 39.15625 29.25 43.1875 25.515625 
Q 47.21875 21.78125 47.21875 15.09375 
Q 47.21875 7.46875 41.1875 3.015625 
Q 35.15625 -1.421875 24.609375 -1.421875 
Q 20.21875 -1.421875 15.453125 -0.5625 
Q 10.6875 0.296875 5.421875 2 
L 5.421875 11.28125 
Q 10.40625 8.6875 15.234375 7.390625 
Q 20.0625 6.109375 24.8125 6.109375 
Q 31.15625 6.109375 34.5625 8.28125 
Q 37.984375 10.453125 37.984375 14.40625 
Q 37.984375 18.0625 35.515625 20.015625 
Q 33.0625 21.96875 24.703125 23.78125 
L 21.578125 24.515625 
Q 13.234375 26.265625 9.515625 29.90625 
Q 5.8125 33.546875 5.8125 39.890625 
Q 5.8125 47.609375 11.28125 51.796875 
Q 16.75 56 26.8125 56 
Q 31.78125 56 36.171875 55.265625 
Q 40.578125 54.546875 44.28125 53.078125 
z
" id="DejaVuSans-115"/>
      <path d="M 30.421875 75.984375 
L 30.421875 -13.1875 
L 9.71875 -13.1875 
L 9.71875 -6.203125 
L 21.390625 -6.203125 
L 21.390625 69 
L 9.71875 69 
L 9.71875 75.984375 
z
" id="DejaVuSans-93"/>
     </defs>
     <g transform="translate(234.038281 412.756563)scale(0.1 -0.1)">
      <use xlink:href="#DejaVuSans-116"/>
      <use x="39.208984" xlink:href="#DejaVuSans-105"/>
      <use x="66.992188" xlink:href="#DejaVuSans-109"/>
      <use x="164.404297" xlink:href="#DejaVuSans-101"/>
      <use x="225.927734" xlink:href="#DejaVuSans-32"/>
      <use x="257.714844" xlink:href="#DejaVuSans-91"/>
      <use x="296.728516" xlink:href="#DejaVuSans-109"/>
      <use x="394.140625" xlink:href="#DejaVuSans-115"/>
      <use x="446.240234" xlink:href="#DejaVuSans-93"/>
     </g>
    </g>
   </g>
   <g id="matplotlib.axis_2">
    <g id="ytick_1">
     <g id="line2d_6">
      <defs>
       <path d="M 0 0 
L -3.5 0 
" id="m678afb4f4b" style="stroke:#000000;stroke-width:0.8;"/>
      </defs>
      <g>
       <use style="stroke:#000000;stroke-width:0.8;" x="63" xlink:href="#m678afb4f4b" y="344.717066"/>
      </g>
     </g>
     <g id="text_7">
      <!-- −60 -->
      <defs>
       <path d="M 10.59375 35.5 
L 73.1875 35.5 
L 73.1875 27.203125 
L 10.59375 27.203125 
z
" id="DejaVuSans-8722"/>
      </defs>
      <g transform="translate(34.895313 348.516285)scale(0.1 -0.1)">
       <use xlink:href="#DejaVuSans-8722"/>
       <use x="83.789062" xlink:href="#DejaVuSans-54"/>
       <use x="147.412109" xlink:href="#DejaVuSans-48"/>
      </g>
     </g>
    </g>
    <g id="ytick_2">
     <g id="line2d_7">
      <g>
       <use style="stroke:#000000;stroke-width:0.8;" x="63" xlink:href="#m678afb4f4b" y="278.412276"/>
      </g>
     </g>
     <g id="text_8">
      <!-- −40 -->
      <g transform="translate(34.895313 282.211494)scale(0.1 -0.1)">
       <use xlink:href="#DejaVuSans-8722"/>
       <use x="83.789062" xlink:href="#DejaVuSans-52"/>
       <use x="147.412109" xlink:href="#DejaVuSans-48"/>
      </g>
     </g>
    </g>
    <g id="ytick_3">
     <g id="line2d_8">
      <g>
       <use style="stroke:#000000;stroke-width:0.8;" x="63" xlink:href="#m678afb4f4b" y="212.107485"/>
      </g>
     </g>
     <g id="text_9">
      <!-- −20 -->
      <g transform="translate(34.895313 215.906703)scale(0.1 -0.1)">
       <use xlink:href="#DejaVuSans-8722"/>
       <use x="83.789062" xlink:href="#DejaVuSans-50"/>
       <use x="147.412109" xlink:href="#DejaVuSans-48"/>
      </g>
     </g>
    </g>
    <g id="ytick_4">
     <g id="line2d_9">
      <g>
       <use style="stroke:#000000;stroke-width:0.8;" x="63" xlink:href="#m678afb4f4b" y="145.802694"/>
      </g>
     </g>
     <g id="text_10">
      <!-- 0 -->
      <g transform="translate(49.6375 149.601913)scale(0.1 -0.1)">
       <use xlink:href="#DejaVuSans-48"/>
      </g>
     </g>
    </g>
    <g id="ytick_5">
     <g id="line2d_10">
      <g>
       <use style="stroke:#000000;stroke-width:0.8;" x="63" xlink:href="#m678afb4f4b" y="79.497903"/>
      </g>
     </g>
     <g id="text_11">
      <!-- 20 -->
      <g transform="translate(43.275 83.297122)scale(0.1 -0.1)">
       <use xlink:href="#DejaVuSans-50"/>
       <use x="63.623047" xlink:href="#DejaVuSans-48"/>
      </g>
     </g>
    </g>
    <g id="text_12">
     <!-- voltage [V] -->
     <defs>
      <path d="M 2.984375 54.6875 
L 12.5 54.6875 
L 29.59375 8.796875 
L 46.6875 54.6875 
L 56.203125 54.6875 
L 35.6875 0 
L 23.484375 0 
z
" id="DejaVuSans-118"/>
      <path d="M 30.609375 48.390625 
Q 23.390625 48.390625 19.1875 42.75 
Q 14.984375 37.109375 14.984375 27.296875 
Q 14.984375 17.484375 19.15625 11.84375 
Q 23.34375 6.203125 30.609375 6.203125 
Q 37.796875 6.203125 41.984375 11.859375 
Q 46.1875 17.53125 46.1875 27.296875 
Q 46.1875 37.015625 41.984375 42.703125 
Q 37.796875 48.390625 30.609375 48.390625 
z
M 30.609375 56 
Q 42.328125 56 49.015625 48.375 
Q 55.71875 40.765625 55.71875 27.296875 
Q 55.71875 13.875 49.015625 6.21875 
Q 42.328125 -1.421875 30.609375 -1.421875 
Q 18.84375 -1.421875 12.171875 6.21875 
Q 5.515625 13.875 5.515625 27.296875 
Q 5.515625 40.765625 12.171875 48.375 
Q 18.84375 56 30.609375 56 
z
" id="DejaVuSans-111"/>
      <path d="M 9.421875 75.984375 
L 18.40625 75.984375 
L 18.40625 0 
L 9.421875 0 
z
" id="DejaVuSans-108"/>
      <path d="M 34.28125 27.484375 
Q 23.390625 27.484375 19.1875 25 
Q 14.984375 22.515625 14.984375 16.5 
Q 14.984375 11.71875 18.140625 8.90625 
Q 21.296875 6.109375 26.703125 6.109375 
Q 34.1875 6.109375 38.703125 11.40625 
Q 43.21875 16.703125 43.21875 25.484375 
L 43.21875 27.484375 
z
M 52.203125 31.203125 
L 52.203125 0 
L 43.21875 0 
L 43.21875 8.296875 
Q 40.140625 3.328125 35.546875 0.953125 
Q 30.953125 -1.421875 24.3125 -1.421875 
Q 15.921875 -1.421875 10.953125 3.296875 
Q 6 8.015625 6 15.921875 
Q 6 25.140625 12.171875 29.828125 
Q 18.359375 34.515625 30.609375 34.515625 
L 43.21875 34.515625 
L 43.21875 35.40625 
Q 43.21875 41.609375 39.140625 45 
Q 35.0625 48.390625 27.6875 48.390625 
Q 23 48.390625 18.546875 47.265625 
Q 14.109375 46.140625 10.015625 43.890625 
L 10.015625 52.203125 
Q 14.9375 54.109375 19.578125 55.046875 
Q 24.21875 56 28.609375 56 
Q 40.484375 56 46.34375 49.84375 
Q 52.203125 43.703125 52.203125 31.203125 
z
" id="DejaVuSans-97"/>
      <path d="M 45.40625 27.984375 
Q 45.40625 37.75 41.375 43.109375 
Q 37.359375 48.484375 30.078125 48.484375 
Q 22.859375 48.484375 18.828125 43.109375 
Q 14.796875 37.75 14.796875 27.984375 
Q 14.796875 18.265625 18.828125 12.890625 
Q 22.859375 7.515625 30.078125 7.515625 
Q 37.359375 7.515625 41.375 12.890625 
Q 45.40625 18.265625 45.40625 27.984375 
z
M 54.390625 6.78125 
Q 54.390625 -7.171875 48.1875 -13.984375 
Q 42 -20.796875 29.203125 -20.796875 
Q 24.46875 -20.796875 20.265625 -20.09375 
Q 16.0625 -19.390625 12.109375 -17.921875 
L 12.109375 -9.1875 
Q 16.0625 -11.328125 19.921875 -12.34375 
Q 23.78125 -13.375 27.78125 -13.375 
Q 36.625 -13.375 41.015625 -8.765625 
Q 45.40625 -4.15625 45.40625 5.171875 
L 45.40625 9.625 
Q 42.625 4.78125 38.28125 2.390625 
Q 33.9375 0 27.875 0 
Q 17.828125 0 11.671875 7.65625 
Q 5.515625 15.328125 5.515625 27.984375 
Q 5.515625 40.671875 11.671875 48.328125 
Q 17.828125 56 27.875 56 
Q 33.9375 56 38.28125 53.609375 
Q 42.625 51.21875 45.40625 46.390625 
L 45.40625 54.6875 
L 54.390625 54.6875 
z
" id="DejaVuSans-103"/>
      <path d="M 28.609375 0 
L 0.78125 72.90625 
L 11.078125 72.90625 
L 34.1875 11.53125 
L 57.328125 72.90625 
L 67.578125 72.90625 
L 39.796875 0 
z
" id="DejaVuSans-86"/>
     </defs>
     <g transform="translate(28.815625 245.75375)rotate(-90)scale(0.1 -0.1)">
      <use xlink:href="#DejaVuSans-118"/>
      <use x="59.179688" xlink:href="#DejaVuSans-111"/>
      <use x="120.361328" xlink:href="#DejaVuSans-108"/>
      <use x="148.144531" xlink:href="#DejaVuSans-116"/>
      <use x="187.353516" xlink:href="#DejaVuSans-97"/>
      <use x="248.632812" xlink:href="#DejaVuSans-103"/>
      <use x="312.109375" xlink:href="#DejaVuSans-101"/>
      <use x="373.632812" xlink:href="#DejaVuSans-32"/>
      <use x="405.419922" xlink:href="#DejaVuSans-91"/>
      <use x="444.433594" xlink:href="#DejaVuSans-86"/>
      <use x="512.841797" xlink:href="#DejaVuSans-93"/>
     </g>
    </g>
   </g>
   <g id="line2d_11">
    <path clip-path="url(#pdb1f0d420a)" d="M 80.754545 361.293256 
L 81.695536 361.30509 
L 85.761327 361.724233 
L 98.580109 363.030847 
L 108.753464 363.823631 
L 119.690264 364.447884 
L 131.9409 364.918612 
L 146.268818 365.239936 
L 151.772727 365.314586 
L 151.8615 363.316726 
L 152.234345 355.176075 
L 152.731473 349.478227 
L 153.565936 342.746467 
L 154.9863 333.260853 
L 156.726245 323.155086 
L 158.412927 314.610317 
L 160.028591 307.531866 
L 161.590991 301.677118 
L 163.153391 296.689836 
L 164.840073 292.068053 
L 167.236936 286.23138 
L 168.941373 281.850802 
L 169.793591 279.059337 
L 170.361736 276.45674 
L 170.752336 273.636939 
L 171.036409 269.586383 
L 171.1962 262.445155 
L 171.249464 254.505882 
L 171.622309 69.273642 
L 171.675573 66.96 
L 171.746591 67.198243 
L 171.906382 79.879005 
L 172.190455 131.950959 
L 172.847373 248.863595 
L 173.220218 282.969542 
L 173.5398 295.200976 
L 173.912645 301.579152 
L 174.303245 304.916362 
L 174.782618 307.101657 
L 175.226482 308.202571 
L 175.6881 308.787848 
L 176.096455 308.979275 
L 176.522564 308.936067 
L 177.019691 308.646463 
L 177.676609 307.969847 
L 178.528827 306.747144 
L 179.771645 304.549954 
L 182.825427 298.532411 
L 185.470855 293.60688 
L 188.134036 289.142509 
L 192.217582 282.351866 
L 193.336118 279.983564 
L 194.117318 277.798523 
L 194.685464 275.492247 
L 195.093818 272.731429 
L 195.324627 269.808415 
L 195.502173 263.927383 
L 195.573191 254.803202 
L 195.626455 227.643964 
L 195.839509 97.415654 
L 196.017055 88.886703 
L 196.034809 88.845667 
L 196.176845 92.54087 
L 196.407655 109.4157 
L 196.744991 157.645869 
L 197.437418 254.084842 
L 197.810264 278.526363 
L 198.200864 290.110476 
L 198.591464 295.679977 
L 199.070836 299.332955 
L 199.550209 301.475808 
L 200.082845 302.952344 
L 200.650991 303.885396 
L 201.219136 304.37232 
L 201.787282 304.538381 
L 202.390936 304.454164 
L 203.083364 304.11464 
L 203.988845 303.393717 
L 205.231664 302.081206 
L 207.237927 299.584067 
L 212.9904 292.297865 
L 217.8729 286.649672 
L 220.4118 283.523287 
L 221.885427 281.36432 
L 222.915191 279.466654 
L 223.660882 277.63725 
L 224.229027 275.634208 
L 224.637382 273.3347 
L 224.9037 270.640869 
L 225.081245 266.927647 
L 225.205527 257.784153 
L 225.241036 244.435595 
L 225.525109 96.22419 
L 225.596127 93.901569 
L 225.667145 94.446936 
L 225.862445 102.276627 
L 226.164273 126.361584 
L 226.679155 194.595206 
L 227.229545 255.652739 
L 227.6379 276.773941 
L 228.046255 286.976276 
L 228.454609 292.28249 
L 228.933982 295.871267 
L 229.502127 298.4504 
L 230.105782 300.168393 
L 230.691682 301.226644 
L 231.313091 301.901354 
L 231.898991 302.23169 
L 232.538155 302.338921 
L 233.266091 302.220687 
L 234.153818 301.825876 
L 235.236845 301.089539 
L 236.781491 299.746561 
L 239.320391 297.205783 
L 247.434218 288.97889 
L 251.446745 284.844479 
L 253.346482 282.569051 
L 254.642564 280.676409 
L 255.601309 278.8766 
L 256.275982 277.160298 
L 256.808618 275.18651 
L 257.181464 272.962014 
L 257.447782 269.996572 
L 257.607573 266.096334 
L 257.696345 259.665496 
L 257.767364 236.771271 
L 257.998173 99.794469 
L 258.122455 94.585882 
L 258.157964 95.18745 
L 258.264491 98.624831 
L 258.566318 118.789397 
L 258.956918 162.642211 
L 259.755873 254.219794 
L 260.181982 275.889959 
L 260.590336 285.909415 
L 261.016445 291.232577 
L 261.495818 294.611986 
L 262.028455 296.926373 
L 262.649864 298.653882 
L 263.271273 299.759181 
L 263.892682 300.446755 
L 264.531845 300.83755 
L 265.206518 300.990232 
L 265.952209 300.926289 
L 266.857691 300.609289 
L 267.993982 299.954458 
L 269.538627 298.780111 
L 271.935491 296.641298 
L 282.694745 286.455804 
L 285.215891 283.801694 
L 286.8138 281.811479 
L 287.9856 279.998063 
L 288.820064 278.311376 
L 289.459227 276.525336 
L 289.9386 274.510099 
L 290.293691 271.96217 
L 290.542255 268.126389 
L 290.666536 262.793 
L 290.737555 248.875195 
L 290.844082 160.63578 
L 291.003873 98.94353 
L 291.128155 94.875769 
L 291.163664 95.399239 
L 291.341209 102.764917 
L 291.643036 126.150964 
L 292.175673 191.316065 
L 292.761573 253.716721 
L 293.152173 274.030375 
L 293.560527 284.832052 
L 294.004391 290.703546 
L 294.483764 294.213651 
L 295.051909 296.717937 
L 295.673318 298.443452 
L 296.276973 299.525814 
L 296.916136 300.243665 
L 297.5553 300.642526 
L 298.247727 300.807258 
L 299.028927 300.744217 
L 299.952164 300.423937 
L 301.141718 299.742313 
L 302.686364 298.579494 
L 305.154245 296.407501 
L 315.451882 286.807987 
L 318.150573 284.042551 
L 319.837255 282.00781 
L 321.062318 280.178668 
L 321.950045 278.449774 
L 322.589209 276.74093 
L 323.068582 274.862083 
L 323.423673 272.610854 
L 323.672236 269.698777 
L 323.849782 264.225182 
L 323.938555 253.479324 
L 323.974064 233.143947 
L 324.204873 100.176114 
L 324.3114 94.660229 
L 324.346909 95.13367 
L 324.453436 98.116602 
L 324.755264 117.962847 
L 325.163618 163.074081 
L 325.962573 253.539197 
L 326.388682 275.293955 
L 326.797036 285.53915 
L 327.2409 291.136959 
L 327.738027 294.595094 
L 328.306173 296.967666 
L 328.927582 298.605725 
L 329.5845 299.6987 
L 330.241418 300.354199 
L 330.880582 300.689624 
L 331.573009 300.802604 
L 332.371964 300.691926 
L 333.2952 300.331587 
L 334.484755 299.616861 
L 336.135927 298.341714 
L 338.834618 295.93616 
L 350.197527 285.285035 
L 352.274809 283.005479 
L 353.677418 281.156799 
L 354.724936 279.417628 
L 355.506136 277.688487 
L 356.092036 275.837938 
L 356.518145 273.742072 
L 356.819973 271.135042 
L 357.015273 267.607367 
L 357.139555 261.265901 
L 357.210573 242.414395 
L 357.476891 97.636147 
L 357.565664 94.822184 
L 357.618927 95.400266 
L 357.778718 101.87039 
L 358.116055 128.190776 
L 358.648691 193.937453 
L 359.216836 253.96361 
L 359.625191 275.026827 
L 360.033545 285.506284 
L 360.459655 291.039455 
L 360.939027 294.49482 
L 361.453909 296.759158 
L 362.057564 298.456005 
L 362.678973 299.574972 
L 363.318136 300.286257 
L 363.975055 300.685029 
L 364.649727 300.835763 
L 364.862782 300.839832 
L 364.969309 303.021593 
L 365.306645 310.231062 
L 365.786018 315.314935 
L 366.460691 319.900964 
L 367.348418 324.401781 
L 368.395936 328.579885 
L 369.532227 332.243247 
L 370.775045 335.542097 
L 372.1599 338.59506 
L 373.633527 341.313735 
L 375.213682 343.773093 
L 376.900364 346.000122 
L 378.746836 348.073796 
L 380.735345 349.97535 
L 382.9014 351.740923 
L 385.280509 353.392498 
L 387.890427 354.933471 
L 390.837682 356.407977 
L 394.069009 357.772847 
L 397.726445 359.071201 
L 401.809991 360.280517 
L 406.426173 361.409676 
L 411.592745 362.438629 
L 417.327464 363.351054 
L 423.754609 364.145205 
L 430.998464 364.810335 
L 435.8277 365.143903 
L 435.8277 365.143903 
" style="fill:none;stroke:#1f77b4;stroke-linecap:square;stroke-width:1.5;"/>
   </g>
   <g id="line2d_12">
    <path clip-path="url(#pdb1f0d420a)" d="M 80.754545 361.293264 
L 81.482482 361.4429 
L 92.472545 363.978491 
L 97.479327 364.787736 
L 102.805691 365.420544 
L 108.682445 365.890555 
L 115.446927 366.202182 
L 123.827073 366.354973 
L 136.095464 366.333481 
L 151.772727 366.191269 
L 151.985782 356.109872 
L 152.429645 346.552376 
L 153.139827 336.316784 
L 154.151836 324.969895 
L 155.270373 314.82291 
L 156.335645 307.096511 
L 157.365409 301.192425 
L 158.412927 296.453896 
L 159.513709 292.486856 
L 160.738773 288.901005 
L 162.194645 285.339493 
L 166.153909 276.066587 
L 166.775318 273.696589 
L 167.201427 271.192157 
L 167.503255 268.066851 
L 167.698555 263.764224 
L 167.822836 255.682585 
L 167.893855 228.334244 
L 168.053645 77.733495 
L 168.089155 78.932297 
L 168.888109 129.658779 
L 169.225445 138.28693 
L 169.456255 151.199231 
L 169.704818 179.682422 
L 170.432755 281.660466 
L 170.752336 289.859203 
L 171.160691 294.902785 
L 171.657818 298.358522 
L 172.154945 300.404993 
L 172.634318 301.521752 
L 173.078182 302.043793 
L 173.504291 302.227182 
L 173.965909 302.185556 
L 174.480791 301.916448 
L 175.173218 301.235187 
L 176.345018 299.725057 
L 181.760155 292.417409 
L 184.139264 289.727679 
L 186.713673 287.156017 
L 189.838473 284.363857 
L 195.661964 279.231696 
L 197.117836 277.592902 
L 198.1476 276.10338 
L 198.911045 274.608374 
L 199.496945 272.957838 
L 199.940809 271.01221 
L 200.260391 268.614696 
L 200.4912 265.192463 
L 200.650991 258.924954 
L 200.739764 243.210274 
L 200.793027 160.051165 
L 200.917309 83.864628 
L 200.935064 84.318385 
L 201.0771 99.607422 
L 201.4677 134.084886 
L 201.805036 164.350415 
L 202.089109 213.301228 
L 202.461955 270.492392 
L 202.728273 281.905873 
L 203.047855 286.993507 
L 203.473964 290.279297 
L 203.953336 292.382587 
L 204.468218 293.741542 
L 204.9831 294.516244 
L 205.480227 294.891138 
L 206.012864 295.017184 
L 206.634273 294.923078 
L 207.433227 294.560182 
L 208.587273 293.766856 
L 210.611291 292.060011 
L 216.559064 286.957618 
L 220.660364 283.808206 
L 225.8802 279.788594 
L 227.620145 278.152802 
L 228.827455 276.722648 
L 229.715182 275.332801 
L 230.389855 273.864882 
L 230.904736 272.211742 
L 231.295336 270.211459 
L 231.597164 267.406071 
L 231.792464 263.484556 
L 231.916745 256.491951 
L 231.987764 238.176115 
L 232.147555 84.222705 
L 232.236327 90.044053 
L 232.751209 138.200968 
L 233.053036 167.892146 
L 233.354864 223.59585 
L 233.674445 270.498899 
L 233.940764 282.12589 
L 234.260345 287.120258 
L 234.6687 290.145326 
L 235.165827 292.216316 
L 235.698464 293.541642 
L 236.213345 294.266749 
L 236.728227 294.623557 
L 237.278618 294.729862 
L 237.917782 294.616753 
L 238.77 294.219392 
L 240.012818 293.365845 
L 242.320909 291.459415 
L 247.469727 287.203153 
L 251.393482 284.290065 
L 258.033682 279.415582 
L 259.702609 277.865384 
L 260.874409 276.478595 
L 261.744382 275.102664 
L 262.4013 273.64275 
L 262.898427 271.998852 
L 263.289027 269.903058 
L 263.5731 267.088996 
L 263.7684 262.760156 
L 263.892682 253.835443 
L 263.945945 236.167248 
L 264.105736 84.311857 
L 264.176755 88.517969 
L 264.815918 147.138675 
L 265.099991 182.035669 
L 265.774664 278.538909 
L 266.058736 285.244807 
L 266.413827 288.812338 
L 266.857691 291.195877 
L 267.390327 292.893914 
L 267.905209 293.860064 
L 268.420091 294.384268 
L 268.934973 294.607898 
L 269.520873 294.616227 
L 270.248809 294.389484 
L 271.243064 293.828514 
L 272.823218 292.650133 
L 282.144355 285.303416 
L 291.731809 278.391136 
L 293.081155 276.999773 
L 294.057655 275.681686 
L 294.803345 274.301416 
L 295.371491 272.778469 
L 295.815355 270.924256 
L 296.152691 268.467517 
L 296.3835 265.063965 
L 296.543291 258.759907 
L 296.632064 242.644634 
L 296.703082 124.931265 
L 296.809609 84.376417 
L 296.845118 85.943444 
L 297.715091 169.540979 
L 298.016918 226.198219 
L 298.3365 271.376896 
L 298.602818 282.391181 
L 298.9224 287.185303 
L 299.330755 290.111657 
L 299.827882 292.128952 
L 300.360518 293.428413 
L 300.8754 294.143734 
L 301.390282 294.499987 
L 301.940673 294.612259 
L 302.597591 294.50607 
L 303.449809 294.126206 
L 304.710382 293.294119 
L 307.071736 291.416625 
L 312.060764 287.457393 
L 315.771464 284.828301 
L 324.808527 278.589876 
L 326.246645 277.214494 
L 327.294164 275.91272 
L 328.075364 274.594765 
L 328.679018 273.14258 
L 329.140636 271.457018 
L 329.495727 269.308894 
L 329.762045 266.225145 
L 329.939591 261.28141 
L 330.046118 250.673654 
L 330.099382 217.847085 
L 330.241418 84.530276 
L 330.259173 84.674302 
L 330.3657 94.838316 
L 330.791809 134.647118 
L 331.129145 166.181455 
L 331.430973 220.746646 
L 331.768309 270.758186 
L 332.034627 282.137395 
L 332.354209 287.036336 
L 332.762564 289.99848 
L 333.259691 292.034463 
L 333.792327 293.349339 
L 334.307209 294.077696 
L 334.822091 294.445627 
L 335.372482 294.569299 
L 336.0294 294.475681 
L 336.881618 294.110942 
L 338.124436 293.312263 
L 340.432527 291.514125 
L 345.563591 287.511181 
L 349.221027 284.974581 
L 355.151045 281.19489 
L 358.080545 279.17082 
L 359.784982 277.735238 
L 360.992291 276.43522 
L 361.880018 275.159429 
L 362.554691 273.808519 
L 363.087327 272.232969 
L 363.495682 270.296871 
L 363.797509 267.737675 
L 364.010564 263.906501 
L 364.134845 258.00647 
L 364.205864 246.07445 
L 364.259127 181.387066 
L 364.383409 84.640562 
L 364.401164 84.718321 
L 364.489936 92.550113 
L 365.413173 218.55822 
L 365.786018 285.160339 
L 366.070091 298.729083 
L 366.460691 306.988902 
L 367.064345 314.931707 
L 367.792282 321.691303 
L 368.626745 327.400587 
L 369.567736 332.316578 
L 370.615255 336.619524 
L 371.7693 340.427351 
L 373.029873 343.821793 
L 374.396973 346.86439 
L 375.8706 349.60431 
L 377.468509 352.107538 
L 379.1907 354.395964 
L 381.072682 356.526323 
L 383.0967 358.482829 
L 385.298264 360.300256 
L 387.659618 361.959644 
L 390.180764 363.45865 
L 392.8617 364.793145 
L 395.702427 365.958043 
L 398.7207 366.953769 
L 401.934273 367.777611 
L 405.378655 368.429288 
L 409.142618 368.912261 
L 413.350445 369.223646 
L 418.2507 369.356348 
L 424.393773 369.288731 
L 433.945718 368.932425 
L 435.845455 368.849008 
L 435.845455 368.849008 
" style="fill:none;stroke:#ff0000;stroke-linecap:square;stroke-width:1.5;"/>
   </g>
   <g id="patch_3">
    <path d="M 63 384.48 
L 63 51.84 
" style="fill:none;stroke:#000000;stroke-linecap:square;stroke-linejoin:miter;stroke-width:0.8;"/>
   </g>
   <g id="patch_4">
    <path d="M 453.6 384.48 
L 453.6 51.84 
" style="fill:none;stroke:#000000;stroke-linecap:square;stroke-linejoin:miter;stroke-width:0.8;"/>
   </g>
   <g id="patch_5">
    <path d="M 63 384.48 
L 453.6 384.48 
" style="fill:none;stroke:#000000;stroke-linecap:square;stroke-linejoin:miter;stroke-width:0.8;"/>
   </g>
   <g id="patch_6">
    <path d="M 63 51.84 
L 453.6 51.84 
" style="fill:none;stroke:#000000;stroke-linecap:square;stroke-linejoin:miter;stroke-width:0.8;"/>
   </g>
   <g id="legend_1">
    <g id="patch_7">
     <path d="M 383.460938 89.19625 
L 446.6 89.19625 
Q 448.6 89.19625 448.6 87.19625 
L 448.6 58.84 
Q 448.6 56.84 446.6 56.84 
L 383.460938 56.84 
Q 381.460938 56.84 381.460938 58.84 
L 381.460938 87.19625 
Q 381.460938 89.19625 383.460938 89.19625 
z
" style="fill:#ffffff;opacity:0.8;stroke:#cccccc;stroke-linejoin:miter;"/>
    </g>
    <g id="line2d_13">
     <path d="M 385.460938 64.938437 
L 405.460938 64.938437 
" style="fill:none;stroke:#1f77b4;stroke-linecap:square;stroke-width:1.5;"/>
    </g>
    <g id="line2d_14"/>
    <g id="text_13">
     <!-- target -->
     <defs>
      <path d="M 41.109375 46.296875 
Q 39.59375 47.171875 37.8125 47.578125 
Q 36.03125 48 33.890625 48 
Q 26.265625 48 22.1875 43.046875 
Q 18.109375 38.09375 18.109375 28.8125 
L 18.109375 0 
L 9.078125 0 
L 9.078125 54.6875 
L 18.109375 54.6875 
L 18.109375 46.1875 
Q 20.953125 51.171875 25.484375 53.578125 
Q 30.03125 56 36.53125 56 
Q 37.453125 56 38.578125 55.875 
Q 39.703125 55.765625 41.0625 55.515625 
z
" id="DejaVuSans-114"/>
     </defs>
     <g transform="translate(413.460938 68.438437)scale(0.1 -0.1)">
      <use xlink:href="#DejaVuSans-116"/>
      <use x="39.208984" xlink:href="#DejaVuSans-97"/>
      <use x="100.488281" xlink:href="#DejaVuSans-114"/>
      <use x="141.585938" xlink:href="#DejaVuSans-103"/>
      <use x="205.0625" xlink:href="#DejaVuSans-101"/>
      <use x="266.585938" xlink:href="#DejaVuSans-116"/>
     </g>
    </g>
    <g id="line2d_15">
     <path d="M 385.460938 79.616562 
L 405.460938 79.616562 
" style="fill:none;stroke:#ff0000;stroke-linecap:square;stroke-width:1.5;"/>
    </g>
    <g id="line2d_16"/>
    <g id="text_14">
     <!-- model -->
     <defs>
      <path d="M 45.40625 46.390625 
L 45.40625 75.984375 
L 54.390625 75.984375 
L 54.390625 0 
L 45.40625 0 
L 45.40625 8.203125 
Q 42.578125 3.328125 38.25 0.953125 
Q 33.9375 -1.421875 27.875 -1.421875 
Q 17.96875 -1.421875 11.734375 6.484375 
Q 5.515625 14.40625 5.515625 27.296875 
Q 5.515625 40.1875 11.734375 48.09375 
Q 17.96875 56 27.875 56 
Q 33.9375 56 38.25 53.625 
Q 42.578125 51.265625 45.40625 46.390625 
z
M 14.796875 27.296875 
Q 14.796875 17.390625 18.875 11.75 
Q 22.953125 6.109375 30.078125 6.109375 
Q 37.203125 6.109375 41.296875 11.75 
Q 45.40625 17.390625 45.40625 27.296875 
Q 45.40625 37.203125 41.296875 42.84375 
Q 37.203125 48.484375 30.078125 48.484375 
Q 22.953125 48.484375 18.875 42.84375 
Q 14.796875 37.203125 14.796875 27.296875 
z
" id="DejaVuSans-100"/>
     </defs>
     <g transform="translate(413.460938 83.116562)scale(0.1 -0.1)">
      <use xlink:href="#DejaVuSans-109"/>
      <use x="97.412109" xlink:href="#DejaVuSans-111"/>
      <use x="158.59375" xlink:href="#DejaVuSans-100"/>
      <use x="222.070312" xlink:href="#DejaVuSans-101"/>
      <use x="283.59375" xlink:href="#DejaVuSans-108"/>
     </g>
    </g>
   </g>
  </g>
 </g>
 <defs>
  <clipPath id="pdb1f0d420a">
   <rect height="332.64" width="390.6" x="63" y="51.84"/>
  </clipPath>
 </defs>
</svg>
