<?xml version="1.0" encoding="utf-8" standalone="no"?>
<!DOCTYPE svg PUBLIC "-//W3C//DTD SVG 1.1//EN"
  "http://www.w3.org/Graphics/SVG/1.1/DTD/svg11.dtd">
<!-- Created with matplotlib (http://matplotlib.org/) -->
<svg height="432pt" version="1.1" viewBox="0 0 504 432" width="504pt" xmlns="http://www.w3.org/2000/svg" xmlns:xlink="http://www.w3.org/1999/xlink">
 <defs>
  <style type="text/css">
*{stroke-linecap:butt;stroke-linejoin:round;}
  </style>
 </defs>
 <g id="figure_1">
  <g id="patch_1">
   <path d="M 0 432 
L 504 432 
L 504 0 
L 0 0 
z
" style="fill:#ffffff;"/>
  </g>
  <g id="axes_1">
   <g id="patch_2">
    <path d="M 63 384.48 
L 453.6 384.48 
L 453.6 51.84 
L 63 51.84 
z
" style="fill:#ffffff;"/>
   </g>
   <g id="matplotlib.axis_1">
    <g id="xtick_1">
     <g id="line2d_1">
      <defs>
       <path d="M 0 0 
L 0 3.5 
" id="m30398c253d" style="stroke:#000000;stroke-width:0.8;"/>
      </defs>
      <g>
       <use style="stroke:#000000;stroke-width:0.8;" x="80.754545" xlink:href="#m30398c253d" y="384.48"/>
      </g>
     </g>
     <g id="text_1">
      <!-- 0 -->
      <defs>
       <path d="M 31.78125 66.40625 
Q 24.171875 66.40625 20.328125 58.90625 
Q 16.5 51.421875 16.5 36.375 
Q 16.5 21.390625 20.328125 13.890625 
Q 24.171875 6.390625 31.78125 6.390625 
Q 39.453125 6.390625 43.28125 13.890625 
Q 47.125 21.390625 47.125 36.375 
Q 47.125 51.421875 43.28125 58.90625 
Q 39.453125 66.40625 31.78125 66.40625 
z
M 31.78125 74.21875 
Q 44.046875 74.21875 50.515625 64.515625 
Q 56.984375 54.828125 56.984375 36.375 
Q 56.984375 17.96875 50.515625 8.265625 
Q 44.046875 -1.421875 31.78125 -1.421875 
Q 19.53125 -1.421875 13.0625 8.265625 
Q 6.59375 17.96875 6.59375 36.375 
Q 6.59375 54.828125 13.0625 64.515625 
Q 19.53125 74.21875 31.78125 74.21875 
z
" id="DejaVuSans-30"/>
      </defs>
      <g transform="translate(77.573295 399.078438)scale(0.1 -0.1)">
       <use xlink:href="#DejaVuSans-30"/>
      </g>
     </g>
    </g>
    <g id="xtick_2">
     <g id="line2d_2">
      <g>
       <use style="stroke:#000000;stroke-width:0.8;" x="151.772727" xlink:href="#m30398c253d" y="384.48"/>
      </g>
     </g>
     <g id="text_2">
      <!-- 200 -->
      <defs>
       <path d="M 19.1875 8.296875 
L 53.609375 8.296875 
L 53.609375 0 
L 7.328125 0 
L 7.328125 8.296875 
Q 12.9375 14.109375 22.625 23.890625 
Q 32.328125 33.6875 34.8125 36.53125 
Q 39.546875 41.84375 41.421875 45.53125 
Q 43.3125 49.21875 43.3125 52.78125 
Q 43.3125 58.59375 39.234375 62.25 
Q 35.15625 65.921875 28.609375 65.921875 
Q 23.96875 65.921875 18.8125 64.3125 
Q 13.671875 62.703125 7.8125 59.421875 
L 7.8125 69.390625 
Q 13.765625 71.78125 18.9375 73 
Q 24.125 74.21875 28.421875 74.21875 
Q 39.75 74.21875 46.484375 68.546875 
Q 53.21875 62.890625 53.21875 53.421875 
Q 53.21875 48.921875 51.53125 44.890625 
Q 49.859375 40.875 45.40625 35.40625 
Q 44.1875 33.984375 37.640625 27.21875 
Q 31.109375 20.453125 19.1875 8.296875 
z
" id="DejaVuSans-32"/>
      </defs>
      <g transform="translate(142.228977 399.078438)scale(0.1 -0.1)">
       <use xlink:href="#DejaVuSans-32"/>
       <use x="63.623047" xlink:href="#DejaVuSans-30"/>
       <use x="127.246094" xlink:href="#DejaVuSans-30"/>
      </g>
     </g>
    </g>
    <g id="xtick_3">
     <g id="line2d_3">
      <g>
       <use style="stroke:#000000;stroke-width:0.8;" x="222.790909" xlink:href="#m30398c253d" y="384.48"/>
      </g>
     </g>
     <g id="text_3">
      <!-- 400 -->
      <defs>
       <path d="M 37.796875 64.3125 
L 12.890625 25.390625 
L 37.796875 25.390625 
z
M 35.203125 72.90625 
L 47.609375 72.90625 
L 47.609375 25.390625 
L 58.015625 25.390625 
L 58.015625 17.1875 
L 47.609375 17.1875 
L 47.609375 0 
L 37.796875 0 
L 37.796875 17.1875 
L 4.890625 17.1875 
L 4.890625 26.703125 
z
" id="DejaVuSans-34"/>
      </defs>
      <g transform="translate(213.247159 399.078438)scale(0.1 -0.1)">
       <use xlink:href="#DejaVuSans-34"/>
       <use x="63.623047" xlink:href="#DejaVuSans-30"/>
       <use x="127.246094" xlink:href="#DejaVuSans-30"/>
      </g>
     </g>
    </g>
    <g id="xtick_4">
     <g id="line2d_4">
      <g>
       <use style="stroke:#000000;stroke-width:0.8;" x="293.809091" xlink:href="#m30398c253d" y="384.48"/>
      </g>
     </g>
     <g id="text_4">
      <!-- 600 -->
      <defs>
       <path d="M 33.015625 40.375 
Q 26.375 40.375 22.484375 35.828125 
Q 18.609375 31.296875 18.609375 23.390625 
Q 18.609375 15.53125 22.484375 10.953125 
Q 26.375 6.390625 33.015625 6.390625 
Q 39.65625 6.390625 43.53125 10.953125 
Q 47.40625 15.53125 47.40625 23.390625 
Q 47.40625 31.296875 43.53125 35.828125 
Q 39.65625 40.375 33.015625 40.375 
z
M 52.59375 71.296875 
L 52.59375 62.3125 
Q 48.875 64.0625 45.09375 64.984375 
Q 41.3125 65.921875 37.59375 65.921875 
Q 27.828125 65.921875 22.671875 59.328125 
Q 17.53125 52.734375 16.796875 39.40625 
Q 19.671875 43.65625 24.015625 45.921875 
Q 28.375 48.1875 33.59375 48.1875 
Q 44.578125 48.1875 50.953125 41.515625 
Q 57.328125 34.859375 57.328125 23.390625 
Q 57.328125 12.15625 50.6875 5.359375 
Q 44.046875 -1.421875 33.015625 -1.421875 
Q 20.359375 -1.421875 13.671875 8.265625 
Q 6.984375 17.96875 6.984375 36.375 
Q 6.984375 53.65625 15.1875 63.9375 
Q 23.390625 74.21875 37.203125 74.21875 
Q 40.921875 74.21875 44.703125 73.484375 
Q 48.484375 72.75 52.59375 71.296875 
z
" id="DejaVuSans-36"/>
      </defs>
      <g transform="translate(284.265341 399.078438)scale(0.1 -0.1)">
       <use xlink:href="#DejaVuSans-36"/>
       <use x="63.623047" xlink:href="#DejaVuSans-30"/>
       <use x="127.246094" xlink:href="#DejaVuSans-30"/>
      </g>
     </g>
    </g>
    <g id="xtick_5">
     <g id="line2d_5">
      <g>
       <use style="stroke:#000000;stroke-width:0.8;" x="364.827273" xlink:href="#m30398c253d" y="384.48"/>
      </g>
     </g>
     <g id="text_5">
      <!-- 800 -->
      <defs>
       <path d="M 31.78125 34.625 
Q 24.75 34.625 20.71875 30.859375 
Q 16.703125 27.09375 16.703125 20.515625 
Q 16.703125 13.921875 20.71875 10.15625 
Q 24.75 6.390625 31.78125 6.390625 
Q 38.8125 6.390625 42.859375 10.171875 
Q 46.921875 13.96875 46.921875 20.515625 
Q 46.921875 27.09375 42.890625 30.859375 
Q 38.875 34.625 31.78125 34.625 
z
M 21.921875 38.8125 
Q 15.578125 40.375 12.03125 44.71875 
Q 8.5 49.078125 8.5 55.328125 
Q 8.5 64.0625 14.71875 69.140625 
Q 20.953125 74.21875 31.78125 74.21875 
Q 42.671875 74.21875 48.875 69.140625 
Q 55.078125 64.0625 55.078125 55.328125 
Q 55.078125 49.078125 51.53125 44.71875 
Q 48 40.375 41.703125 38.8125 
Q 48.828125 37.15625 52.796875 32.3125 
Q 56.78125 27.484375 56.78125 20.515625 
Q 56.78125 9.90625 50.3125 4.234375 
Q 43.84375 -1.421875 31.78125 -1.421875 
Q 19.734375 -1.421875 13.25 4.234375 
Q 6.78125 9.90625 6.78125 20.515625 
Q 6.78125 27.484375 10.78125 32.3125 
Q 14.796875 37.15625 21.921875 38.8125 
z
M 18.3125 54.390625 
Q 18.3125 48.734375 21.84375 45.5625 
Q 25.390625 42.390625 31.78125 42.390625 
Q 38.140625 42.390625 41.71875 45.5625 
Q 45.3125 48.734375 45.3125 54.390625 
Q 45.3125 60.0625 41.71875 63.234375 
Q 38.140625 66.40625 31.78125 66.40625 
Q 25.390625 66.40625 21.84375 63.234375 
Q 18.3125 60.0625 18.3125 54.390625 
z
" id="DejaVuSans-38"/>
      </defs>
      <g transform="translate(355.283523 399.078438)scale(0.1 -0.1)">
       <use xlink:href="#DejaVuSans-38"/>
       <use x="63.623047" xlink:href="#DejaVuSans-30"/>
       <use x="127.246094" xlink:href="#DejaVuSans-30"/>
      </g>
     </g>
    </g>
    <g id="text_6">
     <!-- time [ms] -->
     <defs>
      <path d="M 18.3125 70.21875 
L 18.3125 54.6875 
L 36.8125 54.6875 
L 36.8125 47.703125 
L 18.3125 47.703125 
L 18.3125 18.015625 
Q 18.3125 11.328125 20.140625 9.421875 
Q 21.96875 7.515625 27.59375 7.515625 
L 36.8125 7.515625 
L 36.8125 0 
L 27.59375 0 
Q 17.1875 0 13.234375 3.875 
Q 9.28125 7.765625 9.28125 18.015625 
L 9.28125 47.703125 
L 2.6875 47.703125 
L 2.6875 54.6875 
L 9.28125 54.6875 
L 9.28125 70.21875 
z
" id="DejaVuSans-74"/>
      <path d="M 9.421875 54.6875 
L 18.40625 54.6875 
L 18.40625 0 
L 9.421875 0 
z
M 9.421875 75.984375 
L 18.40625 75.984375 
L 18.40625 64.59375 
L 9.421875 64.59375 
z
" id="DejaVuSans-69"/>
      <path d="M 52 44.1875 
Q 55.375 50.25 60.0625 53.125 
Q 64.75 56 71.09375 56 
Q 79.640625 56 84.28125 50.015625 
Q 88.921875 44.046875 88.921875 33.015625 
L 88.921875 0 
L 79.890625 0 
L 79.890625 32.71875 
Q 79.890625 40.578125 77.09375 44.375 
Q 74.3125 48.1875 68.609375 48.1875 
Q 61.625 48.1875 57.5625 43.546875 
Q 53.515625 38.921875 53.515625 30.90625 
L 53.515625 0 
L 44.484375 0 
L 44.484375 32.71875 
Q 44.484375 40.625 41.703125 44.40625 
Q 38.921875 48.1875 33.109375 48.1875 
Q 26.21875 48.1875 22.15625 43.53125 
Q 18.109375 38.875 18.109375 30.90625 
L 18.109375 0 
L 9.078125 0 
L 9.078125 54.6875 
L 18.109375 54.6875 
L 18.109375 46.1875 
Q 21.1875 51.21875 25.484375 53.609375 
Q 29.78125 56 35.6875 56 
Q 41.65625 56 45.828125 52.96875 
Q 50 49.953125 52 44.1875 
z
" id="DejaVuSans-6d"/>
      <path d="M 56.203125 29.59375 
L 56.203125 25.203125 
L 14.890625 25.203125 
Q 15.484375 15.921875 20.484375 11.0625 
Q 25.484375 6.203125 34.421875 6.203125 
Q 39.59375 6.203125 44.453125 7.46875 
Q 49.3125 8.734375 54.109375 11.28125 
L 54.109375 2.78125 
Q 49.265625 0.734375 44.1875 -0.34375 
Q 39.109375 -1.421875 33.890625 -1.421875 
Q 20.796875 -1.421875 13.15625 6.1875 
Q 5.515625 13.8125 5.515625 26.8125 
Q 5.515625 40.234375 12.765625 48.109375 
Q 20.015625 56 32.328125 56 
Q 43.359375 56 49.78125 48.890625 
Q 56.203125 41.796875 56.203125 29.59375 
z
M 47.21875 32.234375 
Q 47.125 39.59375 43.09375 43.984375 
Q 39.0625 48.390625 32.421875 48.390625 
Q 24.90625 48.390625 20.390625 44.140625 
Q 15.875 39.890625 15.1875 32.171875 
z
" id="DejaVuSans-65"/>
      <path id="DejaVuSans-20"/>
      <path d="M 8.59375 75.984375 
L 29.296875 75.984375 
L 29.296875 69 
L 17.578125 69 
L 17.578125 -6.203125 
L 29.296875 -6.203125 
L 29.296875 -13.1875 
L 8.59375 -13.1875 
z
" id="DejaVuSans-5b"/>
      <path d="M 44.28125 53.078125 
L 44.28125 44.578125 
Q 40.484375 46.53125 36.375 47.5 
Q 32.28125 48.484375 27.875 48.484375 
Q 21.1875 48.484375 17.84375 46.4375 
Q 14.5 44.390625 14.5 40.28125 
Q 14.5 37.15625 16.890625 35.375 
Q 19.28125 33.59375 26.515625 31.984375 
L 29.59375 31.296875 
Q 39.15625 29.25 43.1875 25.515625 
Q 47.21875 21.78125 47.21875 15.09375 
Q 47.21875 7.46875 41.1875 3.015625 
Q 35.15625 -1.421875 24.609375 -1.421875 
Q 20.21875 -1.421875 15.453125 -0.5625 
Q 10.6875 0.296875 5.421875 2 
L 5.421875 11.28125 
Q 10.40625 8.6875 15.234375 7.390625 
Q 20.0625 6.109375 24.8125 6.109375 
Q 31.15625 6.109375 34.5625 8.28125 
Q 37.984375 10.453125 37.984375 14.40625 
Q 37.984375 18.0625 35.515625 20.015625 
Q 33.0625 21.96875 24.703125 23.78125 
L 21.578125 24.515625 
Q 13.234375 26.265625 9.515625 29.90625 
Q 5.8125 33.546875 5.8125 39.890625 
Q 5.8125 47.609375 11.28125 51.796875 
Q 16.75 56 26.8125 56 
Q 31.78125 56 36.171875 55.265625 
Q 40.578125 54.546875 44.28125 53.078125 
z
" id="DejaVuSans-73"/>
      <path d="M 30.421875 75.984375 
L 30.421875 -13.1875 
L 9.71875 -13.1875 
L 9.71875 -6.203125 
L 21.390625 -6.203125 
L 21.390625 69 
L 9.71875 69 
L 9.71875 75.984375 
z
" id="DejaVuSans-5d"/>
     </defs>
     <g transform="translate(234.038281 412.756563)scale(0.1 -0.1)">
      <use xlink:href="#DejaVuSans-74"/>
      <use x="39.208984" xlink:href="#DejaVuSans-69"/>
      <use x="66.992188" xlink:href="#DejaVuSans-6d"/>
      <use x="164.404297" xlink:href="#DejaVuSans-65"/>
      <use x="225.927734" xlink:href="#DejaVuSans-20"/>
      <use x="257.714844" xlink:href="#DejaVuSans-5b"/>
      <use x="296.728516" xlink:href="#DejaVuSans-6d"/>
      <use x="394.140625" xlink:href="#DejaVuSans-73"/>
      <use x="446.240234" xlink:href="#DejaVuSans-5d"/>
     </g>
    </g>
   </g>
   <g id="matplotlib.axis_2">
    <g id="ytick_1">
     <g id="line2d_6">
      <defs>
       <path d="M 0 0 
L -3.5 0 
" id="m40716f2097" style="stroke:#000000;stroke-width:0.8;"/>
      </defs>
      <g>
       <use style="stroke:#000000;stroke-width:0.8;" x="63" xlink:href="#m40716f2097" y="334.541894"/>
      </g>
     </g>
     <g id="text_7">
      <!-- −60 -->
      <defs>
       <path d="M 10.59375 35.5 
L 73.1875 35.5 
L 73.1875 27.203125 
L 10.59375 27.203125 
z
" id="DejaVuSans-2212"/>
      </defs>
      <g transform="translate(34.895313 338.341113)scale(0.1 -0.1)">
       <use xlink:href="#DejaVuSans-2212"/>
       <use x="83.789062" xlink:href="#DejaVuSans-36"/>
       <use x="147.412109" xlink:href="#DejaVuSans-30"/>
      </g>
     </g>
    </g>
    <g id="ytick_2">
     <g id="line2d_7">
      <g>
       <use style="stroke:#000000;stroke-width:0.8;" x="63" xlink:href="#m40716f2097" y="283.974158"/>
      </g>
     </g>
     <g id="text_8">
      <!-- −40 -->
      <g transform="translate(34.895313 287.773377)scale(0.1 -0.1)">
       <use xlink:href="#DejaVuSans-2212"/>
       <use x="83.789062" xlink:href="#DejaVuSans-34"/>
       <use x="147.412109" xlink:href="#DejaVuSans-30"/>
      </g>
     </g>
    </g>
    <g id="ytick_3">
     <g id="line2d_8">
      <g>
       <use style="stroke:#000000;stroke-width:0.8;" x="63" xlink:href="#m40716f2097" y="233.406422"/>
      </g>
     </g>
     <g id="text_9">
      <!-- −20 -->
      <g transform="translate(34.895313 237.205641)scale(0.1 -0.1)">
       <use xlink:href="#DejaVuSans-2212"/>
       <use x="83.789062" xlink:href="#DejaVuSans-32"/>
       <use x="147.412109" xlink:href="#DejaVuSans-30"/>
      </g>
     </g>
    </g>
    <g id="ytick_4">
     <g id="line2d_9">
      <g>
       <use style="stroke:#000000;stroke-width:0.8;" x="63" xlink:href="#m40716f2097" y="182.838687"/>
      </g>
     </g>
     <g id="text_10">
      <!-- 0 -->
      <g transform="translate(49.6375 186.637905)scale(0.1 -0.1)">
       <use xlink:href="#DejaVuSans-30"/>
      </g>
     </g>
    </g>
    <g id="ytick_5">
     <g id="line2d_10">
      <g>
       <use style="stroke:#000000;stroke-width:0.8;" x="63" xlink:href="#m40716f2097" y="132.270951"/>
      </g>
     </g>
     <g id="text_11">
      <!-- 20 -->
      <g transform="translate(43.275 136.070169)scale(0.1 -0.1)">
       <use xlink:href="#DejaVuSans-32"/>
       <use x="63.623047" xlink:href="#DejaVuSans-30"/>
      </g>
     </g>
    </g>
    <g id="ytick_6">
     <g id="line2d_11">
      <g>
       <use style="stroke:#000000;stroke-width:0.8;" x="63" xlink:href="#m40716f2097" y="81.703215"/>
      </g>
     </g>
     <g id="text_12">
      <!-- 40 -->
      <g transform="translate(43.275 85.502433)scale(0.1 -0.1)">
       <use xlink:href="#DejaVuSans-34"/>
       <use x="63.623047" xlink:href="#DejaVuSans-30"/>
      </g>
     </g>
    </g>
    <g id="text_13">
     <!-- voltage [V] -->
     <defs>
      <path d="M 2.984375 54.6875 
L 12.5 54.6875 
L 29.59375 8.796875 
L 46.6875 54.6875 
L 56.203125 54.6875 
L 35.6875 0 
L 23.484375 0 
z
" id="DejaVuSans-76"/>
      <path d="M 30.609375 48.390625 
Q 23.390625 48.390625 19.1875 42.75 
Q 14.984375 37.109375 14.984375 27.296875 
Q 14.984375 17.484375 19.15625 11.84375 
Q 23.34375 6.203125 30.609375 6.203125 
Q 37.796875 6.203125 41.984375 11.859375 
Q 46.1875 17.53125 46.1875 27.296875 
Q 46.1875 37.015625 41.984375 42.703125 
Q 37.796875 48.390625 30.609375 48.390625 
z
M 30.609375 56 
Q 42.328125 56 49.015625 48.375 
Q 55.71875 40.765625 55.71875 27.296875 
Q 55.71875 13.875 49.015625 6.21875 
Q 42.328125 -1.421875 30.609375 -1.421875 
Q 18.84375 -1.421875 12.171875 6.21875 
Q 5.515625 13.875 5.515625 27.296875 
Q 5.515625 40.765625 12.171875 48.375 
Q 18.84375 56 30.609375 56 
z
" id="DejaVuSans-6f"/>
      <path d="M 9.421875 75.984375 
L 18.40625 75.984375 
L 18.40625 0 
L 9.421875 0 
z
" id="DejaVuSans-6c"/>
      <path d="M 34.28125 27.484375 
Q 23.390625 27.484375 19.1875 25 
Q 14.984375 22.515625 14.984375 16.5 
Q 14.984375 11.71875 18.140625 8.90625 
Q 21.296875 6.109375 26.703125 6.109375 
Q 34.1875 6.109375 38.703125 11.40625 
Q 43.21875 16.703125 43.21875 25.484375 
L 43.21875 27.484375 
z
M 52.203125 31.203125 
L 52.203125 0 
L 43.21875 0 
L 43.21875 8.296875 
Q 40.140625 3.328125 35.546875 0.953125 
Q 30.953125 -1.421875 24.3125 -1.421875 
Q 15.921875 -1.421875 10.953125 3.296875 
Q 6 8.015625 6 15.921875 
Q 6 25.140625 12.171875 29.828125 
Q 18.359375 34.515625 30.609375 34.515625 
L 43.21875 34.515625 
L 43.21875 35.40625 
Q 43.21875 41.609375 39.140625 45 
Q 35.0625 48.390625 27.6875 48.390625 
Q 23 48.390625 18.546875 47.265625 
Q 14.109375 46.140625 10.015625 43.890625 
L 10.015625 52.203125 
Q 14.9375 54.109375 19.578125 55.046875 
Q 24.21875 56 28.609375 56 
Q 40.484375 56 46.34375 49.84375 
Q 52.203125 43.703125 52.203125 31.203125 
z
" id="DejaVuSans-61"/>
      <path d="M 45.40625 27.984375 
Q 45.40625 37.75 41.375 43.109375 
Q 37.359375 48.484375 30.078125 48.484375 
Q 22.859375 48.484375 18.828125 43.109375 
Q 14.796875 37.75 14.796875 27.984375 
Q 14.796875 18.265625 18.828125 12.890625 
Q 22.859375 7.515625 30.078125 7.515625 
Q 37.359375 7.515625 41.375 12.890625 
Q 45.40625 18.265625 45.40625 27.984375 
z
M 54.390625 6.78125 
Q 54.390625 -7.171875 48.1875 -13.984375 
Q 42 -20.796875 29.203125 -20.796875 
Q 24.46875 -20.796875 20.265625 -20.09375 
Q 16.0625 -19.390625 12.109375 -17.921875 
L 12.109375 -9.1875 
Q 16.0625 -11.328125 19.921875 -12.34375 
Q 23.78125 -13.375 27.78125 -13.375 
Q 36.625 -13.375 41.015625 -8.765625 
Q 45.40625 -4.15625 45.40625 5.171875 
L 45.40625 9.625 
Q 42.625 4.78125 38.28125 2.390625 
Q 33.9375 0 27.875 0 
Q 17.828125 0 11.671875 7.65625 
Q 5.515625 15.328125 5.515625 27.984375 
Q 5.515625 40.671875 11.671875 48.328125 
Q 17.828125 56 27.875 56 
Q 33.9375 56 38.28125 53.609375 
Q 42.625 51.21875 45.40625 46.390625 
L 45.40625 54.6875 
L 54.390625 54.6875 
z
" id="DejaVuSans-67"/>
      <path d="M 28.609375 0 
L 0.78125 72.90625 
L 11.078125 72.90625 
L 34.1875 11.53125 
L 57.328125 72.90625 
L 67.578125 72.90625 
L 39.796875 0 
z
" id="DejaVuSans-56"/>
     </defs>
     <g transform="translate(28.815625 245.75375)rotate(-90)scale(0.1 -0.1)">
      <use xlink:href="#DejaVuSans-76"/>
      <use x="59.179688" xlink:href="#DejaVuSans-6f"/>
      <use x="120.361328" xlink:href="#DejaVuSans-6c"/>
      <use x="148.144531" xlink:href="#DejaVuSans-74"/>
      <use x="187.353516" xlink:href="#DejaVuSans-61"/>
      <use x="248.632812" xlink:href="#DejaVuSans-67"/>
      <use x="312.109375" xlink:href="#DejaVuSans-65"/>
      <use x="373.632812" xlink:href="#DejaVuSans-20"/>
      <use x="405.419922" xlink:href="#DejaVuSans-5b"/>
      <use x="444.433594" xlink:href="#DejaVuSans-56"/>
      <use x="512.841797" xlink:href="#DejaVuSans-5d"/>
     </g>
    </g>
   </g>
   <g id="line2d_12">
    <path clip-path="url(#p87068efef8)" d="M 80.754545 347.183822 
L 81.890836 347.204634 
L 88.406755 347.734966 
L 100.781673 348.654261 
L 112.588445 349.299548 
L 125.638036 349.784302 
L 140.853682 350.119434 
L 151.772727 350.250712 
L 151.8615 348.727033 
L 152.234345 342.518518 
L 152.731473 338.173021 
L 153.565936 333.039005 
L 154.9863 325.804746 
L 156.726245 318.097524 
L 158.430682 311.51705 
L 160.046345 306.127674 
L 161.608745 301.670593 
L 163.171145 297.873815 
L 164.875582 294.319549 
L 167.467745 289.512609 
L 169.0479 286.359392 
L 169.900118 284.148687 
L 170.468264 282.000085 
L 170.841109 279.608045 
L 171.071918 276.520743 
L 171.1962 271.796741 
L 171.249464 265.741808 
L 171.622309 124.473358 
L 171.675573 122.708846 
L 171.746591 122.890543 
L 171.906382 132.5616 
L 172.190455 172.27458 
L 172.847373 261.438685 
L 173.220218 287.449784 
L 173.5398 296.778159 
L 173.912645 301.642512 
L 174.303245 304.187655 
L 174.782618 305.854283 
L 175.244236 306.717226 
L 175.705855 307.151267 
L 176.149718 307.292036 
L 176.682355 307.201314 
L 177.268255 306.863243 
L 178.0317 306.157423 
L 179.114727 304.827702 
L 180.854673 302.300448 
L 185.115764 296.043337 
L 187.778945 292.595348 
L 192.430636 286.66437 
L 193.513664 284.836179 
L 194.2416 283.178845 
L 194.738727 281.531934 
L 195.093818 279.641627 
L 195.324627 277.412374 
L 195.502173 272.927171 
L 195.573191 265.96856 
L 195.626455 245.255409 
L 195.839509 145.936028 
L 196.017055 139.431374 
L 196.034809 139.400078 
L 196.176845 142.218246 
L 196.407655 155.087934 
L 196.744991 191.870953 
L 197.437418 265.420699 
L 197.810264 284.061168 
L 198.200864 292.895859 
L 198.591464 297.143472 
L 199.070836 299.929436 
L 199.550209 301.563696 
L 200.1006 302.717805 
L 200.668745 303.417006 
L 201.254645 303.786517 
L 201.840545 303.900761 
L 202.497464 303.807077 
L 203.349682 303.435747 
L 204.468218 302.666512 
L 205.995109 301.326661 
L 209.563773 297.810885 
L 213.434264 294.162388 
L 221.246264 286.98073 
L 222.524591 285.372414 
L 223.412318 283.89912 
L 224.033727 282.453981 
L 224.5131 280.742153 
L 224.850436 278.581407 
L 225.045736 275.94812 
L 225.170018 271.404865 
L 225.241036 258.061645 
L 225.525109 145.027351 
L 225.596127 143.255991 
L 225.667145 143.671918 
L 225.862445 149.643278 
L 226.164273 168.011811 
L 226.679155 220.050581 
L 227.229545 266.616465 
L 227.6379 282.724673 
L 228.046255 290.505543 
L 228.454609 294.552358 
L 228.933982 297.28936 
L 229.502127 299.256351 
L 230.123536 300.597301 
L 230.7627 301.448058 
L 231.419618 301.949026 
L 232.112045 302.187149 
L 232.875491 302.200979 
L 233.745464 301.991044 
L 234.881755 301.471694 
L 236.4264 300.496361 
L 238.894282 298.642217 
L 253.204445 287.285809 
L 254.607055 285.745215 
L 255.583555 284.357682 
L 256.293736 282.977734 
L 256.826373 281.451689 
L 257.199218 279.70814 
L 257.465536 277.344892 
L 257.625327 273.954404 
L 257.731855 264.044438 
L 257.767364 252.216403 
L 257.998173 147.750245 
L 258.122455 143.777886 
L 258.157964 144.236676 
L 258.264491 146.858214 
L 258.566318 162.236838 
L 258.956918 195.681443 
L 259.755873 265.523621 
L 260.181982 282.050499 
L 260.590336 289.691895 
L 261.016445 293.751636 
L 261.495818 296.328962 
L 262.028455 298.094043 
L 262.649864 299.411538 
L 263.289027 300.273605 
L 263.9637 300.822808 
L 264.673882 301.116456 
L 265.455082 301.195128 
L 266.360564 301.056763 
L 267.514609 300.635465 
L 269.023745 299.826455 
L 271.243064 298.364666 
L 277.954282 293.543745 
L 284.0796 289.032563 
L 286.174636 287.208953 
L 287.595 285.683734 
L 288.589255 284.292417 
L 289.317191 282.88389 
L 289.832073 281.404689 
L 290.204918 279.662169 
L 290.453482 277.499484 
L 290.631027 273.862696 
L 290.7198 267.530618 
L 290.844082 194.151226 
L 291.003873 147.101272 
L 291.128155 143.99897 
L 291.163664 144.398197 
L 291.341209 150.015674 
L 291.643036 167.85118 
L 292.175673 217.549724 
L 292.761573 265.13995 
L 293.152173 280.632276 
L 293.560527 288.870238 
L 294.004391 293.348168 
L 294.483764 296.025169 
L 295.051909 297.935078 
L 295.691073 299.281117 
L 296.365745 300.170025 
L 297.022664 300.689679 
L 297.715091 300.973765 
L 298.496291 301.057399 
L 299.401773 300.927886 
L 300.555818 300.520891 
L 302.064955 299.732664 
L 304.266518 298.313567 
L 310.214291 294.107046 
L 317.333864 288.93861 
L 319.393391 287.154269 
L 320.760491 285.698123 
L 321.7725 284.299728 
L 322.500436 282.909731 
L 323.015318 281.460251 
L 323.388164 279.77737 
L 323.672236 277.328758 
L 323.849782 273.154288 
L 323.938555 264.958897 
L 323.974064 249.450004 
L 324.204873 148.041309 
L 324.3114 143.834587 
L 324.346909 144.19566 
L 324.453436 146.470611 
L 324.755264 161.606465 
L 325.163618 196.010811 
L 325.962573 265.00456 
L 326.388682 281.595953 
L 326.797036 289.40951 
L 327.2409 293.678713 
L 327.738027 296.31608 
L 328.306173 298.125535 
L 328.927582 299.37481 
L 329.602255 300.225586 
L 330.276927 300.728176 
L 331.022618 300.99619 
L 331.821573 301.042453 
L 332.744809 300.874334 
L 333.898855 300.436156 
L 335.496764 299.571262 
L 337.911382 297.9843 
L 347.605364 291.139529 
L 351.049745 288.53488 
L 352.967236 286.816787 
L 354.263318 285.368011 
L 355.1688 284.04349 
L 355.843473 282.679322 
L 356.358355 281.108973 
L 356.7312 279.150541 
L 356.962009 276.724039 
L 357.104045 273.036866 
L 357.175064 267.17358 
L 357.210573 256.520164 
L 357.476891 146.104188 
L 357.565664 143.958103 
L 357.618927 144.39898 
L 357.778718 149.333458 
L 358.116055 169.406855 
L 358.648691 219.548942 
L 359.216836 265.328241 
L 359.625191 281.392226 
L 360.033545 289.384446 
L 360.459655 293.60435 
L 360.939027 296.239605 
L 361.453909 297.966515 
L 362.057564 299.260626 
L 362.696727 300.132925 
L 363.3714 300.689603 
L 364.081582 300.990721 
L 364.880536 301.226583 
L 365.750509 311.890624 
L 366.389673 315.296963 
L 367.259645 318.741632 
L 368.271655 321.892513 
L 369.443455 324.829608 
L 370.739536 327.478864 
L 372.142145 329.84565 
L 373.686791 332.014951 
L 375.391227 334.014197 
L 377.255455 335.844966 
L 379.279473 337.513527 
L 381.498791 339.051609 
L 384.002182 340.506776 
L 386.754136 341.845189 
L 389.896691 343.11928 
L 393.4476 344.312176 
L 397.495636 345.431688 
L 402.111818 346.473151 
L 407.402673 347.434125 
L 413.421464 348.297342 
L 420.256964 349.04974 
L 428.033455 349.67834 
L 435.8277 350.12054 
L 435.8277 350.12054 
" style="fill:none;stroke:#1f77b4;stroke-linecap:square;stroke-width:1.5;"/>
   </g>
   <g id="line2d_13">
    <path clip-path="url(#p87068efef8)" d="M 80.754545 347.183828 
L 80.949845 346.838203 
L 81.411464 346.531954 
L 82.352455 346.217347 
L 84.252191 345.84654 
L 87.376991 345.475755 
L 91.762364 345.190609 
L 97.674627 345.040464 
L 106.392109 345.062355 
L 145.824955 345.386212 
L 151.772727 345.386281 
L 151.985782 337.748826 
L 152.411891 330.915708 
L 153.051055 324.252585 
L 153.903273 317.650686 
L 154.844264 312.025937 
L 155.785255 307.681034 
L 156.744 304.25411 
L 157.773764 301.385969 
L 158.8923 298.918805 
L 160.206136 296.562288 
L 162.176891 293.542152 
L 163.632764 291.159869 
L 164.325191 289.593336 
L 164.769055 288.021884 
L 165.053127 286.198092 
L 165.230673 283.696644 
L 165.3372 279.124821 
L 165.390464 266.6102 
L 165.443727 66.96 
L 165.550255 165.799229 
L 165.976364 360.434839 
L 166.224927 366.990412 
L 166.473491 368.842886 
L 166.7043 369.262546 
L 166.8996 369.246127 
L 167.148164 368.944755 
L 167.521009 368.068809 
L 168.035891 366.22848 
L 168.746073 362.773398 
L 169.687064 356.971369 
L 171.107427 346.61961 
L 174.019173 325.216446 
L 175.279745 317.712777 
L 176.380527 312.42678 
L 177.428045 308.438011 
L 178.475564 305.29642 
L 179.558591 302.732455 
L 180.712636 300.55773 
L 181.990964 298.619852 
L 183.446836 296.819991 
L 185.240045 294.970617 
L 189.430118 290.804549 
L 190.175809 289.633703 
L 190.672936 288.446642 
L 191.028027 287.000078 
L 191.258836 285.131132 
L 191.418627 281.7043 
L 191.489645 275.959497 
L 191.525155 260.160059 
L 191.578418 68.888691 
L 191.667191 158.79248 
L 192.075545 358.889729 
L 192.341864 366.223399 
L 192.608182 368.672207 
L 192.856745 369.306309 
L 193.052045 369.341676 
L 193.282855 369.09823 
L 193.620191 368.362949 
L 194.117318 366.679581 
L 194.791991 363.533721 
L 195.697473 358.147144 
L 197.029064 348.703875 
L 200.313655 324.946652 
L 201.556473 317.784937 
L 202.657255 312.668806 
L 203.704773 308.806386 
L 204.752291 305.76223 
L 205.835318 303.27996 
L 206.989364 301.183234 
L 208.232182 299.378687 
L 209.617036 297.757353 
L 211.197191 296.250797 
L 213.132436 294.722974 
L 218.671855 290.557282 
L 219.4353 289.56417 
L 219.967936 288.499046 
L 220.340782 287.233989 
L 220.6071 285.448839 
L 220.766891 282.85039 
L 220.855664 278.290575 
L 220.908927 260.247672 
L 220.962191 68.904942 
L 221.050964 158.696825 
L 221.459318 359.092645 
L 221.725636 365.716211 
L 222.027464 368.400927 
L 222.276027 369.059737 
L 222.471327 369.116309 
L 222.684382 368.913158 
L 223.003964 368.253817 
L 223.483336 366.68661 
L 224.140255 363.699778 
L 225.027982 358.521284 
L 226.324064 349.469716 
L 229.750691 324.960765 
L 230.993509 317.934532 
L 232.094291 312.920253 
L 233.141809 309.134754 
L 234.189327 306.151508 
L 235.272355 303.721884 
L 236.408645 301.70456 
L 237.633709 299.97257 
L 238.983055 298.446586 
L 240.492191 297.076396 
L 242.232136 295.802777 
L 244.327173 294.554574 
L 247.327691 293.05206 
L 250.647791 291.343561 
L 251.926118 290.436769 
L 252.742827 289.599159 
L 253.310973 288.707799 
L 253.719327 287.654401 
L 254.021155 286.212824 
L 254.216455 284.177151 
L 254.340736 280.486493 
L 254.411755 268.861262 
L 254.447264 142.45482 
L 254.465018 70.775194 
L 254.553791 149.602955 
L 254.944391 357.395195 
L 255.192955 364.600704 
L 255.494782 367.653395 
L 255.7611 368.565061 
L 255.974155 368.699108 
L 256.169455 368.557299 
L 256.471282 368.001296 
L 256.915145 366.647915 
L 257.536555 363.965808 
L 258.371018 359.297596 
L 259.578327 351.130002 
L 263.502082 323.633252 
L 264.709391 317.161745 
L 265.810173 312.428823 
L 266.857691 308.866222 
L 267.905209 306.058586 
L 268.988236 303.769229 
L 270.142282 301.840694 
L 271.3851 300.194307 
L 272.734445 298.773165 
L 274.243582 297.509805 
L 275.948018 296.379117 
L 277.918773 295.345983 
L 280.280127 294.367469 
L 283.369418 293.34235 
L 290.773064 290.987651 
L 292.140164 290.260882 
L 293.027891 289.545882 
L 293.631545 288.78591 
L 294.075409 287.868104 
L 294.394991 286.687385 
L 294.6258 284.933402 
L 294.767836 282.209777 
L 294.856609 275.646893 
L 294.892118 258.217906 
L 294.945382 69.490959 
L 295.0164 146.152266 
L 295.407 357.84322 
L 295.655564 365.152621 
L 295.957391 368.159756 
L 296.223709 369.0166 
L 296.436764 369.133451 
L 296.649818 368.961933 
L 296.9694 368.338463 
L 297.431018 366.879684 
L 298.070182 364.054635 
L 298.940155 359.098507 
L 300.200727 350.465145 
L 303.8049 325.097038 
L 305.047718 318.257121 
L 306.1485 313.380418 
L 307.196018 309.697682 
L 308.243536 306.795494 
L 309.326564 304.436012 
L 310.462855 302.486087 
L 311.670164 300.848102 
L 312.984 299.436846 
L 314.422118 298.216188 
L 316.037782 297.1391 
L 317.8665 296.1913 
L 319.979291 295.350729 
L 322.500436 294.593342 
L 325.625236 293.896914 
L 329.726536 293.22405 
L 336.579791 292.361618 
L 343.077955 291.47236 
L 345.865418 290.877207 
L 347.5521 290.305168 
L 348.635127 289.719709 
L 349.380818 289.073923 
L 349.913455 288.316468 
L 350.304055 287.354443 
L 350.588127 286.018181 
L 350.783427 283.949721 
L 350.907709 279.897202 
L 350.960973 272.369418 
L 350.996482 218.123666 
L 351.031991 68.182867 
L 351.103009 143.834717 
L 351.493609 357.899498 
L 351.742173 365.362244 
L 352.026245 368.315291 
L 352.292564 369.21356 
L 352.505618 369.343745 
L 352.700918 369.203126 
L 353.002745 368.653629 
L 353.446609 367.317457 
L 354.068018 364.667768 
L 354.902482 360.044459 
L 356.092036 352.053797 
L 360.140073 323.821076 
L 361.347382 317.435162 
L 362.448164 312.77103 
L 363.495682 309.263401 
L 364.5432 306.503049 
L 364.827273 305.861164 
L 365.022573 312.461774 
L 365.377664 316.993979 
L 365.874791 320.504562 
L 366.549464 323.675342 
L 367.419436 326.696432 
L 368.466955 329.542038 
L 369.692018 332.23285 
L 371.076873 334.742347 
L 372.621518 337.081217 
L 374.3082 339.231665 
L 376.119164 341.183334 
L 378.054409 342.943794 
L 380.078427 344.487626 
L 382.191218 345.821906 
L 384.392782 346.948765 
L 386.665364 347.86266 
L 389.044473 348.580006 
L 391.583373 349.110939 
L 394.335327 349.456207 
L 397.442373 349.616597 
L 401.153073 349.577166 
L 406.248627 349.282541 
L 424.233982 348.077032 
L 432.773918 347.837378 
L 435.845455 347.794847 
L 435.845455 347.794847 
" style="fill:none;stroke:#ff0000;stroke-linecap:square;stroke-width:1.5;"/>
   </g>
   <g id="patch_3">
    <path d="M 63 384.48 
L 63 51.84 
" style="fill:none;stroke:#000000;stroke-linecap:square;stroke-linejoin:miter;stroke-width:0.8;"/>
   </g>
   <g id="patch_4">
    <path d="M 453.6 384.48 
L 453.6 51.84 
" style="fill:none;stroke:#000000;stroke-linecap:square;stroke-linejoin:miter;stroke-width:0.8;"/>
   </g>
   <g id="patch_5">
    <path d="M 63 384.48 
L 453.6 384.48 
" style="fill:none;stroke:#000000;stroke-linecap:square;stroke-linejoin:miter;stroke-width:0.8;"/>
   </g>
   <g id="patch_6">
    <path d="M 63 51.84 
L 453.6 51.84 
" style="fill:none;stroke:#000000;stroke-linecap:square;stroke-linejoin:miter;stroke-width:0.8;"/>
   </g>
   <g id="legend_1">
    <g id="patch_7">
     <path d="M 383.460938 89.19625 
L 446.6 89.19625 
Q 448.6 89.19625 448.6 87.19625 
L 448.6 58.84 
Q 448.6 56.84 446.6 56.84 
L 383.460938 56.84 
Q 381.460938 56.84 381.460938 58.84 
L 381.460938 87.19625 
Q 381.460938 89.19625 383.460938 89.19625 
z
" style="fill:#ffffff;opacity:0.8;stroke:#cccccc;stroke-linejoin:miter;"/>
    </g>
    <g id="line2d_14">
     <path d="M 385.460938 64.938437 
L 405.460938 64.938437 
" style="fill:none;stroke:#1f77b4;stroke-linecap:square;stroke-width:1.5;"/>
    </g>
    <g id="line2d_15"/>
    <g id="text_14">
     <!-- target -->
     <defs>
      <path d="M 41.109375 46.296875 
Q 39.59375 47.171875 37.8125 47.578125 
Q 36.03125 48 33.890625 48 
Q 26.265625 48 22.1875 43.046875 
Q 18.109375 38.09375 18.109375 28.8125 
L 18.109375 0 
L 9.078125 0 
L 9.078125 54.6875 
L 18.109375 54.6875 
L 18.109375 46.1875 
Q 20.953125 51.171875 25.484375 53.578125 
Q 30.03125 56 36.53125 56 
Q 37.453125 56 38.578125 55.875 
Q 39.703125 55.765625 41.0625 55.515625 
z
" id="DejaVuSans-72"/>
     </defs>
     <g transform="translate(413.460938 68.438437)scale(0.1 -0.1)">
      <use xlink:href="#DejaVuSans-74"/>
      <use x="39.208984" xlink:href="#DejaVuSans-61"/>
      <use x="100.488281" xlink:href="#DejaVuSans-72"/>
      <use x="141.585938" xlink:href="#DejaVuSans-67"/>
      <use x="205.0625" xlink:href="#DejaVuSans-65"/>
      <use x="266.585938" xlink:href="#DejaVuSans-74"/>
     </g>
    </g>
    <g id="line2d_16">
     <path d="M 385.460938 79.616562 
L 405.460938 79.616562 
" style="fill:none;stroke:#ff0000;stroke-linecap:square;stroke-width:1.5;"/>
    </g>
    <g id="line2d_17"/>
    <g id="text_15">
     <!-- model -->
     <defs>
      <path d="M 45.40625 46.390625 
L 45.40625 75.984375 
L 54.390625 75.984375 
L 54.390625 0 
L 45.40625 0 
L 45.40625 8.203125 
Q 42.578125 3.328125 38.25 0.953125 
Q 33.9375 -1.421875 27.875 -1.421875 
Q 17.96875 -1.421875 11.734375 6.484375 
Q 5.515625 14.40625 5.515625 27.296875 
Q 5.515625 40.1875 11.734375 48.09375 
Q 17.96875 56 27.875 56 
Q 33.9375 56 38.25 53.625 
Q 42.578125 51.265625 45.40625 46.390625 
z
M 14.796875 27.296875 
Q 14.796875 17.390625 18.875 11.75 
Q 22.953125 6.109375 30.078125 6.109375 
Q 37.203125 6.109375 41.296875 11.75 
Q 45.40625 17.390625 45.40625 27.296875 
Q 45.40625 37.203125 41.296875 42.84375 
Q 37.203125 48.484375 30.078125 48.484375 
Q 22.953125 48.484375 18.875 42.84375 
Q 14.796875 37.203125 14.796875 27.296875 
z
" id="DejaVuSans-64"/>
     </defs>
     <g transform="translate(413.460938 83.116562)scale(0.1 -0.1)">
      <use xlink:href="#DejaVuSans-6d"/>
      <use x="97.412109" xlink:href="#DejaVuSans-6f"/>
      <use x="158.59375" xlink:href="#DejaVuSans-64"/>
      <use x="222.070312" xlink:href="#DejaVuSans-65"/>
      <use x="283.59375" xlink:href="#DejaVuSans-6c"/>
     </g>
    </g>
   </g>
  </g>
 </g>
 <defs>
  <clipPath id="p87068efef8">
   <rect height="332.64" width="390.6" x="63" y="51.84"/>
  </clipPath>
 </defs>
</svg>
