<?xml version="1.0" encoding="utf-8" standalone="no"?>
<!DOCTYPE svg PUBLIC "-//W3C//DTD SVG 1.1//EN"
  "http://www.w3.org/Graphics/SVG/1.1/DTD/svg11.dtd">
<!-- Created with matplotlib (https://matplotlib.org/) -->
<svg height="432pt" version="1.1" viewBox="0 0 504 432" width="504pt" xmlns="http://www.w3.org/2000/svg" xmlns:xlink="http://www.w3.org/1999/xlink">
 <defs>
  <style type="text/css">
*{stroke-linecap:butt;stroke-linejoin:round;}
  </style>
 </defs>
 <g id="figure_1">
  <g id="patch_1">
   <path d="M 0 432 
L 504 432 
L 504 0 
L 0 0 
z
" style="fill:#ffffff;"/>
  </g>
  <g id="axes_1">
   <g id="patch_2">
    <path d="M 63 384.48 
L 453.6 384.48 
L 453.6 51.84 
L 63 51.84 
z
" style="fill:#ffffff;"/>
   </g>
   <g id="matplotlib.axis_1">
    <g id="xtick_1">
     <g id="line2d_1">
      <defs>
       <path d="M 0 0 
L 0 3.5 
" id="m47c2159d37" style="stroke:#000000;stroke-width:0.8;"/>
      </defs>
      <g>
       <use style="stroke:#000000;stroke-width:0.8;" x="80.754545" xlink:href="#m47c2159d37" y="384.48"/>
      </g>
     </g>
     <g id="text_1">
      <!-- 0 -->
      <defs>
       <path d="M 31.78125 66.40625 
Q 24.171875 66.40625 20.328125 58.90625 
Q 16.5 51.421875 16.5 36.375 
Q 16.5 21.390625 20.328125 13.890625 
Q 24.171875 6.390625 31.78125 6.390625 
Q 39.453125 6.390625 43.28125 13.890625 
Q 47.125 21.390625 47.125 36.375 
Q 47.125 51.421875 43.28125 58.90625 
Q 39.453125 66.40625 31.78125 66.40625 
z
M 31.78125 74.21875 
Q 44.046875 74.21875 50.515625 64.515625 
Q 56.984375 54.828125 56.984375 36.375 
Q 56.984375 17.96875 50.515625 8.265625 
Q 44.046875 -1.421875 31.78125 -1.421875 
Q 19.53125 -1.421875 13.0625 8.265625 
Q 6.59375 17.96875 6.59375 36.375 
Q 6.59375 54.828125 13.0625 64.515625 
Q 19.53125 74.21875 31.78125 74.21875 
z
" id="DejaVuSans-48"/>
      </defs>
      <g transform="translate(77.573295 399.078438)scale(0.1 -0.1)">
       <use xlink:href="#DejaVuSans-48"/>
      </g>
     </g>
    </g>
    <g id="xtick_2">
     <g id="line2d_2">
      <g>
       <use style="stroke:#000000;stroke-width:0.8;" x="151.767796" xlink:href="#m47c2159d37" y="384.48"/>
      </g>
     </g>
     <g id="text_2">
      <!-- 720 -->
      <defs>
       <path d="M 8.203125 72.90625 
L 55.078125 72.90625 
L 55.078125 68.703125 
L 28.609375 0 
L 18.3125 0 
L 43.21875 64.59375 
L 8.203125 64.59375 
z
" id="DejaVuSans-55"/>
       <path d="M 19.1875 8.296875 
L 53.609375 8.296875 
L 53.609375 0 
L 7.328125 0 
L 7.328125 8.296875 
Q 12.9375 14.109375 22.625 23.890625 
Q 32.328125 33.6875 34.8125 36.53125 
Q 39.546875 41.84375 41.421875 45.53125 
Q 43.3125 49.21875 43.3125 52.78125 
Q 43.3125 58.59375 39.234375 62.25 
Q 35.15625 65.921875 28.609375 65.921875 
Q 23.96875 65.921875 18.8125 64.3125 
Q 13.671875 62.703125 7.8125 59.421875 
L 7.8125 69.390625 
Q 13.765625 71.78125 18.9375 73 
Q 24.125 74.21875 28.421875 74.21875 
Q 39.75 74.21875 46.484375 68.546875 
Q 53.21875 62.890625 53.21875 53.421875 
Q 53.21875 48.921875 51.53125 44.890625 
Q 49.859375 40.875 45.40625 35.40625 
Q 44.1875 33.984375 37.640625 27.21875 
Q 31.109375 20.453125 19.1875 8.296875 
z
" id="DejaVuSans-50"/>
      </defs>
      <g transform="translate(142.224046 399.078438)scale(0.1 -0.1)">
       <use xlink:href="#DejaVuSans-55"/>
       <use x="63.623047" xlink:href="#DejaVuSans-50"/>
       <use x="127.246094" xlink:href="#DejaVuSans-48"/>
      </g>
     </g>
    </g>
    <g id="xtick_3">
     <g id="line2d_3">
      <g>
       <use style="stroke:#000000;stroke-width:0.8;" x="222.781046" xlink:href="#m47c2159d37" y="384.48"/>
      </g>
     </g>
     <g id="text_3">
      <!-- 1440 -->
      <defs>
       <path d="M 12.40625 8.296875 
L 28.515625 8.296875 
L 28.515625 63.921875 
L 10.984375 60.40625 
L 10.984375 69.390625 
L 28.421875 72.90625 
L 38.28125 72.90625 
L 38.28125 8.296875 
L 54.390625 8.296875 
L 54.390625 0 
L 12.40625 0 
z
" id="DejaVuSans-49"/>
       <path d="M 37.796875 64.3125 
L 12.890625 25.390625 
L 37.796875 25.390625 
z
M 35.203125 72.90625 
L 47.609375 72.90625 
L 47.609375 25.390625 
L 58.015625 25.390625 
L 58.015625 17.1875 
L 47.609375 17.1875 
L 47.609375 0 
L 37.796875 0 
L 37.796875 17.1875 
L 4.890625 17.1875 
L 4.890625 26.703125 
z
" id="DejaVuSans-52"/>
      </defs>
      <g transform="translate(210.056046 399.078438)scale(0.1 -0.1)">
       <use xlink:href="#DejaVuSans-49"/>
       <use x="63.623047" xlink:href="#DejaVuSans-52"/>
       <use x="127.246094" xlink:href="#DejaVuSans-52"/>
       <use x="190.869141" xlink:href="#DejaVuSans-48"/>
      </g>
     </g>
    </g>
    <g id="xtick_4">
     <g id="line2d_4">
      <g>
       <use style="stroke:#000000;stroke-width:0.8;" x="293.794296" xlink:href="#m47c2159d37" y="384.48"/>
      </g>
     </g>
     <g id="text_4">
      <!-- 2160 -->
      <defs>
       <path d="M 33.015625 40.375 
Q 26.375 40.375 22.484375 35.828125 
Q 18.609375 31.296875 18.609375 23.390625 
Q 18.609375 15.53125 22.484375 10.953125 
Q 26.375 6.390625 33.015625 6.390625 
Q 39.65625 6.390625 43.53125 10.953125 
Q 47.40625 15.53125 47.40625 23.390625 
Q 47.40625 31.296875 43.53125 35.828125 
Q 39.65625 40.375 33.015625 40.375 
z
M 52.59375 71.296875 
L 52.59375 62.3125 
Q 48.875 64.0625 45.09375 64.984375 
Q 41.3125 65.921875 37.59375 65.921875 
Q 27.828125 65.921875 22.671875 59.328125 
Q 17.53125 52.734375 16.796875 39.40625 
Q 19.671875 43.65625 24.015625 45.921875 
Q 28.375 48.1875 33.59375 48.1875 
Q 44.578125 48.1875 50.953125 41.515625 
Q 57.328125 34.859375 57.328125 23.390625 
Q 57.328125 12.15625 50.6875 5.359375 
Q 44.046875 -1.421875 33.015625 -1.421875 
Q 20.359375 -1.421875 13.671875 8.265625 
Q 6.984375 17.96875 6.984375 36.375 
Q 6.984375 53.65625 15.1875 63.9375 
Q 23.390625 74.21875 37.203125 74.21875 
Q 40.921875 74.21875 44.703125 73.484375 
Q 48.484375 72.75 52.59375 71.296875 
z
" id="DejaVuSans-54"/>
      </defs>
      <g transform="translate(281.069296 399.078438)scale(0.1 -0.1)">
       <use xlink:href="#DejaVuSans-50"/>
       <use x="63.623047" xlink:href="#DejaVuSans-49"/>
       <use x="127.246094" xlink:href="#DejaVuSans-54"/>
       <use x="190.869141" xlink:href="#DejaVuSans-48"/>
      </g>
     </g>
    </g>
    <g id="xtick_5">
     <g id="line2d_5">
      <g>
       <use style="stroke:#000000;stroke-width:0.8;" x="364.807547" xlink:href="#m47c2159d37" y="384.48"/>
      </g>
     </g>
     <g id="text_5">
      <!-- 2880 -->
      <defs>
       <path d="M 31.78125 34.625 
Q 24.75 34.625 20.71875 30.859375 
Q 16.703125 27.09375 16.703125 20.515625 
Q 16.703125 13.921875 20.71875 10.15625 
Q 24.75 6.390625 31.78125 6.390625 
Q 38.8125 6.390625 42.859375 10.171875 
Q 46.921875 13.96875 46.921875 20.515625 
Q 46.921875 27.09375 42.890625 30.859375 
Q 38.875 34.625 31.78125 34.625 
z
M 21.921875 38.8125 
Q 15.578125 40.375 12.03125 44.71875 
Q 8.5 49.078125 8.5 55.328125 
Q 8.5 64.0625 14.71875 69.140625 
Q 20.953125 74.21875 31.78125 74.21875 
Q 42.671875 74.21875 48.875 69.140625 
Q 55.078125 64.0625 55.078125 55.328125 
Q 55.078125 49.078125 51.53125 44.71875 
Q 48 40.375 41.703125 38.8125 
Q 48.828125 37.15625 52.796875 32.3125 
Q 56.78125 27.484375 56.78125 20.515625 
Q 56.78125 9.90625 50.3125 4.234375 
Q 43.84375 -1.421875 31.78125 -1.421875 
Q 19.734375 -1.421875 13.25 4.234375 
Q 6.78125 9.90625 6.78125 20.515625 
Q 6.78125 27.484375 10.78125 32.3125 
Q 14.796875 37.15625 21.921875 38.8125 
z
M 18.3125 54.390625 
Q 18.3125 48.734375 21.84375 45.5625 
Q 25.390625 42.390625 31.78125 42.390625 
Q 38.140625 42.390625 41.71875 45.5625 
Q 45.3125 48.734375 45.3125 54.390625 
Q 45.3125 60.0625 41.71875 63.234375 
Q 38.140625 66.40625 31.78125 66.40625 
Q 25.390625 66.40625 21.84375 63.234375 
Q 18.3125 60.0625 18.3125 54.390625 
z
" id="DejaVuSans-56"/>
      </defs>
      <g transform="translate(352.082547 399.078438)scale(0.1 -0.1)">
       <use xlink:href="#DejaVuSans-50"/>
       <use x="63.623047" xlink:href="#DejaVuSans-56"/>
       <use x="127.246094" xlink:href="#DejaVuSans-56"/>
       <use x="190.869141" xlink:href="#DejaVuSans-48"/>
      </g>
     </g>
    </g>
    <g id="text_6">
     <!-- time [ms] -->
     <defs>
      <path d="M 18.3125 70.21875 
L 18.3125 54.6875 
L 36.8125 54.6875 
L 36.8125 47.703125 
L 18.3125 47.703125 
L 18.3125 18.015625 
Q 18.3125 11.328125 20.140625 9.421875 
Q 21.96875 7.515625 27.59375 7.515625 
L 36.8125 7.515625 
L 36.8125 0 
L 27.59375 0 
Q 17.1875 0 13.234375 3.875 
Q 9.28125 7.765625 9.28125 18.015625 
L 9.28125 47.703125 
L 2.6875 47.703125 
L 2.6875 54.6875 
L 9.28125 54.6875 
L 9.28125 70.21875 
z
" id="DejaVuSans-116"/>
      <path d="M 9.421875 54.6875 
L 18.40625 54.6875 
L 18.40625 0 
L 9.421875 0 
z
M 9.421875 75.984375 
L 18.40625 75.984375 
L 18.40625 64.59375 
L 9.421875 64.59375 
z
" id="DejaVuSans-105"/>
      <path d="M 52 44.1875 
Q 55.375 50.25 60.0625 53.125 
Q 64.75 56 71.09375 56 
Q 79.640625 56 84.28125 50.015625 
Q 88.921875 44.046875 88.921875 33.015625 
L 88.921875 0 
L 79.890625 0 
L 79.890625 32.71875 
Q 79.890625 40.578125 77.09375 44.375 
Q 74.3125 48.1875 68.609375 48.1875 
Q 61.625 48.1875 57.5625 43.546875 
Q 53.515625 38.921875 53.515625 30.90625 
L 53.515625 0 
L 44.484375 0 
L 44.484375 32.71875 
Q 44.484375 40.625 41.703125 44.40625 
Q 38.921875 48.1875 33.109375 48.1875 
Q 26.21875 48.1875 22.15625 43.53125 
Q 18.109375 38.875 18.109375 30.90625 
L 18.109375 0 
L 9.078125 0 
L 9.078125 54.6875 
L 18.109375 54.6875 
L 18.109375 46.1875 
Q 21.1875 51.21875 25.484375 53.609375 
Q 29.78125 56 35.6875 56 
Q 41.65625 56 45.828125 52.96875 
Q 50 49.953125 52 44.1875 
z
" id="DejaVuSans-109"/>
      <path d="M 56.203125 29.59375 
L 56.203125 25.203125 
L 14.890625 25.203125 
Q 15.484375 15.921875 20.484375 11.0625 
Q 25.484375 6.203125 34.421875 6.203125 
Q 39.59375 6.203125 44.453125 7.46875 
Q 49.3125 8.734375 54.109375 11.28125 
L 54.109375 2.78125 
Q 49.265625 0.734375 44.1875 -0.34375 
Q 39.109375 -1.421875 33.890625 -1.421875 
Q 20.796875 -1.421875 13.15625 6.1875 
Q 5.515625 13.8125 5.515625 26.8125 
Q 5.515625 40.234375 12.765625 48.109375 
Q 20.015625 56 32.328125 56 
Q 43.359375 56 49.78125 48.890625 
Q 56.203125 41.796875 56.203125 29.59375 
z
M 47.21875 32.234375 
Q 47.125 39.59375 43.09375 43.984375 
Q 39.0625 48.390625 32.421875 48.390625 
Q 24.90625 48.390625 20.390625 44.140625 
Q 15.875 39.890625 15.1875 32.171875 
z
" id="DejaVuSans-101"/>
      <path id="DejaVuSans-32"/>
      <path d="M 8.59375 75.984375 
L 29.296875 75.984375 
L 29.296875 69 
L 17.578125 69 
L 17.578125 -6.203125 
L 29.296875 -6.203125 
L 29.296875 -13.1875 
L 8.59375 -13.1875 
z
" id="DejaVuSans-91"/>
      <path d="M 44.28125 53.078125 
L 44.28125 44.578125 
Q 40.484375 46.53125 36.375 47.5 
Q 32.28125 48.484375 27.875 48.484375 
Q 21.1875 48.484375 17.84375 46.4375 
Q 14.5 44.390625 14.5 40.28125 
Q 14.5 37.15625 16.890625 35.375 
Q 19.28125 33.59375 26.515625 31.984375 
L 29.59375 31.296875 
Q 39.15625 29.25 43.1875 25.515625 
Q 47.21875 21.78125 47.21875 15.09375 
Q 47.21875 7.46875 41.1875 3.015625 
Q 35.15625 -1.421875 24.609375 -1.421875 
Q 20.21875 -1.421875 15.453125 -0.5625 
Q 10.6875 0.296875 5.421875 2 
L 5.421875 11.28125 
Q 10.40625 8.6875 15.234375 7.390625 
Q 20.0625 6.109375 24.8125 6.109375 
Q 31.15625 6.109375 34.5625 8.28125 
Q 37.984375 10.453125 37.984375 14.40625 
Q 37.984375 18.0625 35.515625 20.015625 
Q 33.0625 21.96875 24.703125 23.78125 
L 21.578125 24.515625 
Q 13.234375 26.265625 9.515625 29.90625 
Q 5.8125 33.546875 5.8125 39.890625 
Q 5.8125 47.609375 11.28125 51.796875 
Q 16.75 56 26.8125 56 
Q 31.78125 56 36.171875 55.265625 
Q 40.578125 54.546875 44.28125 53.078125 
z
" id="DejaVuSans-115"/>
      <path d="M 30.421875 75.984375 
L 30.421875 -13.1875 
L 9.71875 -13.1875 
L 9.71875 -6.203125 
L 21.390625 -6.203125 
L 21.390625 69 
L 9.71875 69 
L 9.71875 75.984375 
z
" id="DejaVuSans-93"/>
     </defs>
     <g transform="translate(234.038281 412.756563)scale(0.1 -0.1)">
      <use xlink:href="#DejaVuSans-116"/>
      <use x="39.208984" xlink:href="#DejaVuSans-105"/>
      <use x="66.992188" xlink:href="#DejaVuSans-109"/>
      <use x="164.404297" xlink:href="#DejaVuSans-101"/>
      <use x="225.927734" xlink:href="#DejaVuSans-32"/>
      <use x="257.714844" xlink:href="#DejaVuSans-91"/>
      <use x="296.728516" xlink:href="#DejaVuSans-109"/>
      <use x="394.140625" xlink:href="#DejaVuSans-115"/>
      <use x="446.240234" xlink:href="#DejaVuSans-93"/>
     </g>
    </g>
   </g>
   <g id="matplotlib.axis_2">
    <g id="ytick_1">
     <g id="line2d_6">
      <defs>
       <path d="M 0 0 
L -3.5 0 
" id="m2efc240c64" style="stroke:#000000;stroke-width:0.8;"/>
      </defs>
      <g>
       <use style="stroke:#000000;stroke-width:0.8;" x="63" xlink:href="#m2efc240c64" y="369.379629"/>
      </g>
     </g>
     <g id="text_7">
      <!-- −80 -->
      <defs>
       <path d="M 10.59375 35.5 
L 73.1875 35.5 
L 73.1875 27.203125 
L 10.59375 27.203125 
z
" id="DejaVuSans-8722"/>
      </defs>
      <g transform="translate(34.895313 373.178848)scale(0.1 -0.1)">
       <use xlink:href="#DejaVuSans-8722"/>
       <use x="83.789062" xlink:href="#DejaVuSans-56"/>
       <use x="147.412109" xlink:href="#DejaVuSans-48"/>
      </g>
     </g>
    </g>
    <g id="ytick_2">
     <g id="line2d_7">
      <g>
       <use style="stroke:#000000;stroke-width:0.8;" x="63" xlink:href="#m2efc240c64" y="315.753224"/>
      </g>
     </g>
     <g id="text_8">
      <!-- −60 -->
      <g transform="translate(34.895313 319.552442)scale(0.1 -0.1)">
       <use xlink:href="#DejaVuSans-8722"/>
       <use x="83.789062" xlink:href="#DejaVuSans-54"/>
       <use x="147.412109" xlink:href="#DejaVuSans-48"/>
      </g>
     </g>
    </g>
    <g id="ytick_3">
     <g id="line2d_8">
      <g>
       <use style="stroke:#000000;stroke-width:0.8;" x="63" xlink:href="#m2efc240c64" y="262.126818"/>
      </g>
     </g>
     <g id="text_9">
      <!-- −40 -->
      <g transform="translate(34.895313 265.926037)scale(0.1 -0.1)">
       <use xlink:href="#DejaVuSans-8722"/>
       <use x="83.789062" xlink:href="#DejaVuSans-52"/>
       <use x="147.412109" xlink:href="#DejaVuSans-48"/>
      </g>
     </g>
    </g>
    <g id="ytick_4">
     <g id="line2d_9">
      <g>
       <use style="stroke:#000000;stroke-width:0.8;" x="63" xlink:href="#m2efc240c64" y="208.500413"/>
      </g>
     </g>
     <g id="text_10">
      <!-- −20 -->
      <g transform="translate(34.895313 212.299632)scale(0.1 -0.1)">
       <use xlink:href="#DejaVuSans-8722"/>
       <use x="83.789062" xlink:href="#DejaVuSans-50"/>
       <use x="147.412109" xlink:href="#DejaVuSans-48"/>
      </g>
     </g>
    </g>
    <g id="ytick_5">
     <g id="line2d_10">
      <g>
       <use style="stroke:#000000;stroke-width:0.8;" x="63" xlink:href="#m2efc240c64" y="154.874008"/>
      </g>
     </g>
     <g id="text_11">
      <!-- 0 -->
      <g transform="translate(49.6375 158.673226)scale(0.1 -0.1)">
       <use xlink:href="#DejaVuSans-48"/>
      </g>
     </g>
    </g>
    <g id="ytick_6">
     <g id="line2d_11">
      <g>
       <use style="stroke:#000000;stroke-width:0.8;" x="63" xlink:href="#m2efc240c64" y="101.247602"/>
      </g>
     </g>
     <g id="text_12">
      <!-- 20 -->
      <g transform="translate(43.275 105.046821)scale(0.1 -0.1)">
       <use xlink:href="#DejaVuSans-50"/>
       <use x="63.623047" xlink:href="#DejaVuSans-48"/>
      </g>
     </g>
    </g>
    <g id="text_13">
     <!-- Voltage [mV] -->
     <defs>
      <path d="M 28.609375 0 
L 0.78125 72.90625 
L 11.078125 72.90625 
L 34.1875 11.53125 
L 57.328125 72.90625 
L 67.578125 72.90625 
L 39.796875 0 
z
" id="DejaVuSans-86"/>
      <path d="M 30.609375 48.390625 
Q 23.390625 48.390625 19.1875 42.75 
Q 14.984375 37.109375 14.984375 27.296875 
Q 14.984375 17.484375 19.15625 11.84375 
Q 23.34375 6.203125 30.609375 6.203125 
Q 37.796875 6.203125 41.984375 11.859375 
Q 46.1875 17.53125 46.1875 27.296875 
Q 46.1875 37.015625 41.984375 42.703125 
Q 37.796875 48.390625 30.609375 48.390625 
z
M 30.609375 56 
Q 42.328125 56 49.015625 48.375 
Q 55.71875 40.765625 55.71875 27.296875 
Q 55.71875 13.875 49.015625 6.21875 
Q 42.328125 -1.421875 30.609375 -1.421875 
Q 18.84375 -1.421875 12.171875 6.21875 
Q 5.515625 13.875 5.515625 27.296875 
Q 5.515625 40.765625 12.171875 48.375 
Q 18.84375 56 30.609375 56 
z
" id="DejaVuSans-111"/>
      <path d="M 9.421875 75.984375 
L 18.40625 75.984375 
L 18.40625 0 
L 9.421875 0 
z
" id="DejaVuSans-108"/>
      <path d="M 34.28125 27.484375 
Q 23.390625 27.484375 19.1875 25 
Q 14.984375 22.515625 14.984375 16.5 
Q 14.984375 11.71875 18.140625 8.90625 
Q 21.296875 6.109375 26.703125 6.109375 
Q 34.1875 6.109375 38.703125 11.40625 
Q 43.21875 16.703125 43.21875 25.484375 
L 43.21875 27.484375 
z
M 52.203125 31.203125 
L 52.203125 0 
L 43.21875 0 
L 43.21875 8.296875 
Q 40.140625 3.328125 35.546875 0.953125 
Q 30.953125 -1.421875 24.3125 -1.421875 
Q 15.921875 -1.421875 10.953125 3.296875 
Q 6 8.015625 6 15.921875 
Q 6 25.140625 12.171875 29.828125 
Q 18.359375 34.515625 30.609375 34.515625 
L 43.21875 34.515625 
L 43.21875 35.40625 
Q 43.21875 41.609375 39.140625 45 
Q 35.0625 48.390625 27.6875 48.390625 
Q 23 48.390625 18.546875 47.265625 
Q 14.109375 46.140625 10.015625 43.890625 
L 10.015625 52.203125 
Q 14.9375 54.109375 19.578125 55.046875 
Q 24.21875 56 28.609375 56 
Q 40.484375 56 46.34375 49.84375 
Q 52.203125 43.703125 52.203125 31.203125 
z
" id="DejaVuSans-97"/>
      <path d="M 45.40625 27.984375 
Q 45.40625 37.75 41.375 43.109375 
Q 37.359375 48.484375 30.078125 48.484375 
Q 22.859375 48.484375 18.828125 43.109375 
Q 14.796875 37.75 14.796875 27.984375 
Q 14.796875 18.265625 18.828125 12.890625 
Q 22.859375 7.515625 30.078125 7.515625 
Q 37.359375 7.515625 41.375 12.890625 
Q 45.40625 18.265625 45.40625 27.984375 
z
M 54.390625 6.78125 
Q 54.390625 -7.171875 48.1875 -13.984375 
Q 42 -20.796875 29.203125 -20.796875 
Q 24.46875 -20.796875 20.265625 -20.09375 
Q 16.0625 -19.390625 12.109375 -17.921875 
L 12.109375 -9.1875 
Q 16.0625 -11.328125 19.921875 -12.34375 
Q 23.78125 -13.375 27.78125 -13.375 
Q 36.625 -13.375 41.015625 -8.765625 
Q 45.40625 -4.15625 45.40625 5.171875 
L 45.40625 9.625 
Q 42.625 4.78125 38.28125 2.390625 
Q 33.9375 0 27.875 0 
Q 17.828125 0 11.671875 7.65625 
Q 5.515625 15.328125 5.515625 27.984375 
Q 5.515625 40.671875 11.671875 48.328125 
Q 17.828125 56 27.875 56 
Q 33.9375 56 38.28125 53.609375 
Q 42.625 51.21875 45.40625 46.390625 
L 45.40625 54.6875 
L 54.390625 54.6875 
z
" id="DejaVuSans-103"/>
     </defs>
     <g transform="translate(28.815625 251.079531)rotate(-90)scale(0.1 -0.1)">
      <use xlink:href="#DejaVuSans-86"/>
      <use x="68.298828" xlink:href="#DejaVuSans-111"/>
      <use x="129.480469" xlink:href="#DejaVuSans-108"/>
      <use x="157.263672" xlink:href="#DejaVuSans-116"/>
      <use x="196.472656" xlink:href="#DejaVuSans-97"/>
      <use x="257.751953" xlink:href="#DejaVuSans-103"/>
      <use x="321.228516" xlink:href="#DejaVuSans-101"/>
      <use x="382.751953" xlink:href="#DejaVuSans-32"/>
      <use x="414.539062" xlink:href="#DejaVuSans-91"/>
      <use x="453.552734" xlink:href="#DejaVuSans-109"/>
      <use x="550.964844" xlink:href="#DejaVuSans-86"/>
      <use x="619.373047" xlink:href="#DejaVuSans-93"/>
     </g>
    </g>
   </g>
   <g id="line2d_12">
    <path clip-path="url(#pa83e3c1000)" d="M 80.754545 329.159825 
L 81.681663 329.747955 
L 82.470699 329.963868 
L 83.728225 330.048638 
L 87.870665 329.986336 
L 99.326483 329.927677 
L 100.480448 329.926614 
L 100.633324 345.477698 
L 100.963733 356.331725 
L 101.392771 363.845269 
L 101.802084 367.582272 
L 102.147287 369.009301 
L 102.413587 369.352198 
L 102.610846 369.29853 
L 102.872214 368.941661 
L 103.32591 367.868743 
L 104.884256 363.951062 
L 105.574663 362.905726 
L 106.250275 362.269143 
L 106.985065 361.879878 
L 107.892456 361.661254 
L 109.283132 361.581703 
L 120.452925 361.619442 
L 130.069303 361.616926 
L 130.222178 346.206184 
L 130.542724 336.010616 
L 130.956968 329.167027 
L 131.376144 325.551114 
L 131.770662 323.854223 
L 132.130659 323.156717 
L 132.451205 322.956565 
L 132.781614 323.012703 
L 133.230379 323.345908 
L 134.029278 324.270362 
L 135.898307 326.451918 
L 137.071998 327.447334 
L 138.299936 328.196657 
L 139.680749 328.775248 
L 139.932254 328.857619 
L 140.045678 329.212941 
L 141.115808 329.840763 
L 142.013337 330.008059 
L 143.645655 330.047398 
L 159.663088 329.926614 
L 159.815964 326.815216 
L 160.146373 324.650528 
L 160.590206 323.108612 
L 161.058696 322.223245 
L 161.556775 321.732357 
L 162.128826 321.480032 
L 162.898136 321.400531 
L 164.274018 321.52133 
L 168.776456 321.986429 
L 173.352865 322.170586 
L 182.111166 322.2617 
L 189.251943 322.27551 
L 189.404818 325.384895 
L 189.730296 327.509693 
L 190.169197 329.023954 
L 190.637687 329.898549 
L 191.130835 330.374082 
L 191.702886 330.617451 
L 192.486991 330.69199 
L 193.991091 330.566057 
L 198.271612 330.182245 
L 199.114894 330.138816 
L 199.119826 329.159825 
L 199.228318 329.212941 
L 200.298448 329.840763 
L 201.195977 330.008059 
L 202.828295 330.047398 
L 218.845729 329.926614 
L 218.998604 323.702672 
L 219.324082 319.412994 
L 219.762983 316.312257 
L 220.236405 314.435116 
L 220.764073 313.21712 
L 221.311466 311.990182 
L 221.336124 311.541687 
L 221.35585 295.998634 
L 221.419959 70.009802 
L 221.493931 172.010157 
L 221.696121 313.328469 
L 221.878586 319.922551 
L 222.070914 320.876149 
L 222.179406 320.844178 
L 222.189269 320.831117 
L 222.386528 320.362382 
L 223.811725 316.324341 
L 224.36405 315.660006 
L 224.985416 315.257978 
L 225.789246 315.015955 
L 227.046773 314.896066 
L 230.197986 314.891477 
L 244.898715 314.893382 
L 248.434583 314.88715 
L 248.587459 321.112407 
L 248.908004 325.293896 
L 249.337043 328.236601 
L 249.785807 329.906411 
L 250.234571 330.793367 
L 250.69813 331.246277 
L 251.215935 331.444181 
L 251.911273 331.455458 
L 253.223046 331.208718 
L 256.408779 330.604767 
L 258.297534 330.387404 
L 258.302466 329.159825 
L 258.410958 329.212941 
L 259.481088 329.840763 
L 260.378617 330.008059 
L 262.010935 330.047398 
L 278.028369 329.926614 
L 278.181244 320.588019 
L 278.511653 314.053177 
L 278.97028 309.1058 
L 279.40425 304.923858 
L 279.419045 295.256519 
L 279.483154 68.524566 
L 279.562058 178.443881 
L 279.764248 311.00674 
L 279.941781 316.260174 
L 280.040411 316.538732 
L 280.084794 316.492056 
L 280.227807 315.981363 
L 280.711091 313.088724 
L 281.366978 309.784207 
L 281.948892 307.956105 
L 282.614641 305.967576 
L 282.64423 305.143462 
L 282.663956 274.574426 
L 282.728065 76.094254 
L 282.802037 176.297508 
L 283.004228 310.981785 
L 283.186692 316.712454 
L 283.324774 317.170168 
L 283.349431 317.155771 
L 283.467786 316.876581 
L 283.783401 315.380351 
L 284.61682 311.515305 
L 285.174077 309.991404 
L 285.770785 308.989269 
L 287.052969 307.099587 
L 287.082558 306.541296 
L 287.102284 288.928115 
L 287.171325 81.947302 
L 287.240365 167.478523 
L 287.447487 308.090193 
L 287.634883 314.884622 
L 287.832142 315.884399 
L 287.935703 315.853604 
L 287.945566 315.840385 
L 288.137894 315.36631 
L 289.681446 310.746877 
L 290.302812 309.909847 
L 291.077053 309.247515 
L 292.916494 307.822912 
L 293.034849 307.312647 
L 293.049644 305.88702 
L 293.084164 227.78238 
L 293.133479 85.931978 
L 293.207451 173.032774 
L 293.414573 306.619509 
L 293.6069 313.743562 
L 293.818954 315.072679 
L 293.947172 315.143388 
L 293.97183 315.125374 
L 294.149363 314.812813 
L 294.657305 313.284985 
L 295.337848 311.558894 
L 295.949351 310.5946 
L 296.659484 309.889498 
L 297.630985 309.257433 
L 299.524671 308.091727 
L 299.726862 307.655793 
L 299.776177 307.099872 
L 299.795902 292.51119 
L 299.869875 88.627416 
L 299.933984 162.65407 
L 300.146037 305.413773 
L 300.338365 313.06053 
L 300.55535 314.63866 
L 300.713157 314.789258 
L 300.727951 314.782224 
L 300.89069 314.558362 
L 301.285208 313.511308 
L 302.064381 311.586051 
L 302.690679 310.632492 
L 303.415606 309.935072 
L 304.411764 309.303349 
L 306.399148 308.11023 
L 306.60627 307.663803 
L 306.650654 307.275694 
L 306.67038 298.631798 
L 306.744352 90.158559 
L 306.828187 183.554828 
L 307.035309 305.614006 
L 307.227636 312.70362 
L 307.454484 314.346612 
L 307.617223 314.51705 
L 307.770099 323.459465 
L 308.061056 328.215372 
L 308.430916 330.991316 
L 308.825434 332.43558 
L 309.224884 333.135411 
L 309.629265 333.428896 
L 310.087892 333.485396 
L 310.733916 333.317687 
L 312.173906 332.644843 
L 314.230332 331.775918 
L 316.207854 331.192966 
L 317.480174 330.921583 
L 317.485106 329.159825 
L 317.593598 329.212941 
L 318.663729 329.840763 
L 319.561257 330.008059 
L 321.193576 330.047398 
L 337.211009 329.926614 
L 337.363884 317.469998 
L 337.694293 308.662315 
L 338.202235 296.70547 
L 338.236756 183.880858 
L 338.271276 67.450874 
L 338.345248 171.878554 
L 338.547439 307.837869 
L 338.715109 312.561467 
L 338.759492 312.63252 
L 338.813738 312.513717 
L 338.981408 311.446349 
L 340.579207 297.707527 
L 340.598933 289.239068 
L 340.663042 74.007896 
L 340.741945 177.024114 
L 340.944136 310.666479 
L 341.111806 315.031282 
L 341.156189 315.09858 
L 341.210436 314.981472 
L 341.378106 313.91959 
L 342.778645 303.42076 
L 343.340833 300.110822 
L 343.375353 297.6672 
L 343.409874 205.257933 
L 343.454257 80.381517 
L 343.523298 169.08657 
L 343.73042 308.001642 
L 343.907953 313.283004 
L 343.996719 313.52687 
L 344.046034 313.460706 
L 344.193978 312.825631 
L 344.736441 309.064172 
L 345.387395 305.395145 
L 346.127117 302.595992 
L 346.378622 301.203377 
L 346.418074 299.42645 
L 346.447663 231.412703 
L 346.496977 84.89161 
L 346.575881 176.440583 
L 346.783003 306.304025 
L 346.965468 311.922594 
L 347.103549 312.403014 
L 347.128206 312.388969 
L 347.24163 312.114233 
L 347.537519 310.629101 
L 348.464636 305.917426 
L 349.14518 303.744002 
L 349.598876 302.1368 
L 349.672848 301.028262 
L 349.687642 292.724021 
L 349.761614 87.895 
L 349.835587 173.290856 
L 350.042709 304.69912 
L 350.230105 311.030362 
L 350.412569 311.776692 
L 350.506267 311.660314 
L 350.713389 310.91995 
L 352.133654 305.025707 
L 353.045977 302.193967 
L 353.085429 301.274951 
L 353.105155 272.754577 
L 353.174196 90.079936 
L 353.243236 167.492268 
L 353.45529 303.792933 
L 353.642686 310.448122 
L 353.835013 311.412117 
L 353.938574 311.342359 
L 354.12597 310.782761 
L 355.837192 304.557089 
L 356.49801 302.706132 
L 356.581845 301.770483 
L 356.59664 295.955876 
L 356.670612 91.476078 
L 356.76431 193.288463 
L 356.9665 303.970213 
L 357.158828 310.242092 
L 357.356087 311.201091 
L 357.459648 311.144048 
L 357.642113 310.642263 
L 358.317725 307.774543 
L 358.978543 305.602136 
L 360.117713 302.239178 
L 360.137439 301.351436 
L 360.157165 267.372783 
L 360.221274 92.329131 
L 360.295247 168.314059 
L 360.5073 302.516825 
L 360.699628 309.73721 
L 360.901818 310.950634 
L 360.990585 310.970767 
L 361.025105 310.933243 
L 361.202638 310.487555 
L 361.754963 308.236417 
L 362.450301 305.878018 
L 363.293584 303.887349 
L 363.633856 302.803282 
L 363.707828 301.968552 
L 363.722622 296.668899 
L 363.801526 92.816963 
L 363.895224 197.489618 
L 364.092483 302.922662 
L 364.28481 309.598534 
L 364.491932 310.80074 
L 364.58563 310.816763 
L 364.615219 310.784755 
L 364.792752 310.355468 
L 365.335215 308.210365 
L 366.040416 305.870528 
L 366.799863 304.101318 
L 366.952739 316.314064 
L 367.263422 323.862173 
L 367.672734 328.855688 
L 368.09191 331.5264 
L 368.506154 332.876794 
L 368.905603 333.50139 
L 369.309984 333.747591 
L 369.773543 333.763154 
L 370.454087 333.536451 
L 372.712702 332.399665 
L 374.557074 331.669826 
L 376.588842 331.112214 
L 376.662814 331.095806 
L 376.667746 329.159825 
L 376.776238 329.212941 
L 377.846369 329.840763 
L 378.743897 330.008059 
L 380.376216 330.047398 
L 396.393649 329.926614 
L 396.546525 314.34673 
L 396.891728 302.678853 
L 397.13337 294.353765 
L 397.153096 254.764078 
L 397.202411 66.96 
L 397.286246 180.8397 
L 397.483505 305.038758 
L 397.646244 308.908449 
L 397.695558 308.777513 
L 397.853366 307.423786 
L 398.750894 296.327433 
L 398.967879 292.00944 
L 399.007331 285.810413 
L 399.07144 72.280815 
L 399.160207 190.950849 
L 399.352534 310.658249 
L 399.500479 313.915647 
L 399.510341 313.908583 
L 399.574451 313.615376 
L 399.781573 311.29796 
L 400.999647 296.381636 
L 401.172249 293.007712 
L 401.196906 288.930635 
L 401.265947 78.552595 
L 401.369508 210.871924 
L 401.551972 308.295638 
L 401.719643 311.955513 
L 401.7443 311.945256 
L 401.773889 311.863759 
L 401.916902 310.845673 
L 403.435796 295.480465 
L 403.5147 292.776076 
L 403.529494 276.26204 
L 403.593603 82.989582 
L 403.667575 169.576581 
L 403.874697 305.704882 
L 404.047299 310.456008 
L 404.096614 310.550047 
L 404.15086 310.443693 
L 404.308667 309.478701 
L 405.88674 295.986163 
L 405.95578 293.704239 
L 405.970575 278.152418 
L 406.039615 86.277384 
L 406.108656 166.673386 
L 406.320709 304.382921 
L 406.498243 309.483189 
L 406.572215 309.677755 
L 406.626461 309.59607 
L 406.779337 308.8311 
L 407.321799 304.464365 
L 408.12563 298.92648 
L 408.436313 296.231406 
L 408.490559 293.914137 
L 408.515216 239.109114 
L 408.569462 88.575942 
L 408.648366 174.766238 
L 408.855488 303.342099 
L 409.033021 308.769641 
L 409.136582 309.103072 
L 409.180965 309.051234 
L 409.319047 308.493951 
L 409.723428 305.622234 
L 410.581504 299.950542 
L 411.025337 296.740972 
L 411.084515 295.000946 
L 411.099309 284.949569 
L 411.16835 90.033011 
L 411.237391 161.866888 
L 411.454376 302.530395 
L 411.63684 308.359583 
L 411.755196 308.785466 
L 411.794647 308.751528 
L 411.922866 308.313161 
L 412.268069 306.091208 
L 413.214912 300.11184 
L 413.663677 297.075005 
L 413.732717 294.821515 
L 413.752443 255.922149 
L 413.816553 90.988872 
L 413.890525 171.885416 
L 414.102578 302.014127 
L 414.285043 307.900927 
L 414.423124 308.431767 
L 414.452713 308.411943 
L 414.566137 308.094376 
L 414.857094 306.427836 
L 416.001196 299.578003 
L 416.341468 297.183069 
L 416.405577 295.196235 
L 416.425303 258.917095 
L 416.489412 91.539609 
L 416.563384 170.326158 
L 416.775438 301.554979 
L 416.957903 307.685492 
L 417.110778 308.300583 
L 417.130504 308.28971 
L 417.234065 308.042655 
L 417.490502 306.694091 
L 419.093232 295.938157 
L 419.108026 291.195338 
L 419.181998 92.000411 
L 419.275696 192.573411 
L 419.477887 301.952822 
L 419.665283 307.687508 
L 419.808296 308.228957 
L 419.832953 308.217293 
L 419.941445 307.956255 
L 420.207745 306.557905 
L 421.800612 296.000932 
L 421.815406 290.970509 
L 421.889378 92.235116 
L 421.978145 186.866013 
L 422.185267 301.707888 
L 422.372663 307.542868 
L 422.525539 308.130302 
L 422.545265 308.120892 
L 422.648826 307.888378 
L 422.905262 306.593843 
L 424.512923 296.18448 
L 424.532649 288.221214 
L 424.606621 92.450678 
L 424.680594 171.47069 
L 424.892647 300.806393 
L 425.080043 307.282261 
L 425.247713 307.995732 
L 425.257576 307.992859 
L 425.351274 307.822741 
L 425.573191 306.808255 
L 425.982503 304.294884 
L 426.135379 318.739979 
L 426.426336 326.257136 
L 426.80606 330.813108 
L 427.205509 333.19215 
L 427.600027 334.341322 
L 427.979751 334.833293 
L 428.359474 334.982955 
L 428.818102 334.910376 
L 429.538097 334.537103 
L 433.246567 332.342969 
L 435.056418 331.654501 
L 435.845455 331.420231 
L 435.845455 331.420231 
" style="fill:none;stroke:#ff0000;stroke-linecap:square;stroke-width:1.5;"/>
   </g>
   <g id="patch_3">
    <path d="M 63 384.48 
L 63 51.84 
" style="fill:none;stroke:#000000;stroke-linecap:square;stroke-linejoin:miter;stroke-width:0.8;"/>
   </g>
   <g id="patch_4">
    <path d="M 453.6 384.48 
L 453.6 51.84 
" style="fill:none;stroke:#000000;stroke-linecap:square;stroke-linejoin:miter;stroke-width:0.8;"/>
   </g>
   <g id="patch_5">
    <path d="M 63 384.48 
L 453.6 384.48 
" style="fill:none;stroke:#000000;stroke-linecap:square;stroke-linejoin:miter;stroke-width:0.8;"/>
   </g>
   <g id="patch_6">
    <path d="M 63 51.84 
L 453.6 51.84 
" style="fill:none;stroke:#000000;stroke-linecap:square;stroke-linejoin:miter;stroke-width:0.8;"/>
   </g>
   <g id="legend_1">
    <g id="patch_7">
     <path d="M 70 74.518125 
L 133.139062 74.518125 
Q 135.139062 74.518125 135.139062 72.518125 
L 135.139062 58.84 
Q 135.139062 56.84 133.139062 56.84 
L 70 56.84 
Q 68 56.84 68 58.84 
L 68 72.518125 
Q 68 74.518125 70 74.518125 
z
" style="fill:#ffffff;opacity:0.8;stroke:#cccccc;stroke-linejoin:miter;"/>
    </g>
    <g id="line2d_13">
     <path d="M 72 64.938438 
L 92 64.938438 
" style="fill:none;stroke:#ff0000;stroke-linecap:square;stroke-width:1.5;"/>
    </g>
    <g id="line2d_14"/>
    <g id="text_14">
     <!-- model -->
     <defs>
      <path d="M 45.40625 46.390625 
L 45.40625 75.984375 
L 54.390625 75.984375 
L 54.390625 0 
L 45.40625 0 
L 45.40625 8.203125 
Q 42.578125 3.328125 38.25 0.953125 
Q 33.9375 -1.421875 27.875 -1.421875 
Q 17.96875 -1.421875 11.734375 6.484375 
Q 5.515625 14.40625 5.515625 27.296875 
Q 5.515625 40.1875 11.734375 48.09375 
Q 17.96875 56 27.875 56 
Q 33.9375 56 38.25 53.625 
Q 42.578125 51.265625 45.40625 46.390625 
z
M 14.796875 27.296875 
Q 14.796875 17.390625 18.875 11.75 
Q 22.953125 6.109375 30.078125 6.109375 
Q 37.203125 6.109375 41.296875 11.75 
Q 45.40625 17.390625 45.40625 27.296875 
Q 45.40625 37.203125 41.296875 42.84375 
Q 37.203125 48.484375 30.078125 48.484375 
Q 22.953125 48.484375 18.875 42.84375 
Q 14.796875 37.203125 14.796875 27.296875 
z
" id="DejaVuSans-100"/>
     </defs>
     <g transform="translate(100 68.438438)scale(0.1 -0.1)">
      <use xlink:href="#DejaVuSans-109"/>
      <use x="97.412109" xlink:href="#DejaVuSans-111"/>
      <use x="158.59375" xlink:href="#DejaVuSans-100"/>
      <use x="222.070312" xlink:href="#DejaVuSans-101"/>
      <use x="283.59375" xlink:href="#DejaVuSans-108"/>
     </g>
    </g>
   </g>
  </g>
 </g>
 <defs>
  <clipPath id="pa83e3c1000">
   <rect height="332.64" width="390.6" x="63" y="51.84"/>
  </clipPath>
 </defs>
</svg>
