<?xml version="1.0" encoding="utf-8" standalone="no"?>
<!DOCTYPE svg PUBLIC "-//W3C//DTD SVG 1.1//EN"
  "http://www.w3.org/Graphics/SVG/1.1/DTD/svg11.dtd">
<!-- Created with matplotlib (https://matplotlib.org/) -->
<svg height="432pt" version="1.1" viewBox="0 0 504 432" width="504pt" xmlns="http://www.w3.org/2000/svg" xmlns:xlink="http://www.w3.org/1999/xlink">
 <defs>
  <style type="text/css">
*{stroke-linecap:butt;stroke-linejoin:round;}
  </style>
 </defs>
 <g id="figure_1">
  <g id="patch_1">
   <path d="M 0 432 
L 504 432 
L 504 0 
L 0 0 
z
" style="fill:#ffffff;"/>
  </g>
  <g id="axes_1">
   <g id="patch_2">
    <path d="M 63 384.48 
L 453.6 384.48 
L 453.6 51.84 
L 63 51.84 
z
" style="fill:#ffffff;"/>
   </g>
   <g id="matplotlib.axis_1">
    <g id="xtick_1">
     <g id="line2d_1">
      <defs>
       <path d="M 0 0 
L 0 3.5 
" id="mca8ffb4bcb" style="stroke:#000000;stroke-width:0.8;"/>
      </defs>
      <g>
       <use style="stroke:#000000;stroke-width:0.8;" x="80.754545" xlink:href="#mca8ffb4bcb" y="384.48"/>
      </g>
     </g>
     <g id="text_1">
      <!-- 0 -->
      <defs>
       <path d="M 31.78125 66.40625 
Q 24.171875 66.40625 20.328125 58.90625 
Q 16.5 51.421875 16.5 36.375 
Q 16.5 21.390625 20.328125 13.890625 
Q 24.171875 6.390625 31.78125 6.390625 
Q 39.453125 6.390625 43.28125 13.890625 
Q 47.125 21.390625 47.125 36.375 
Q 47.125 51.421875 43.28125 58.90625 
Q 39.453125 66.40625 31.78125 66.40625 
z
M 31.78125 74.21875 
Q 44.046875 74.21875 50.515625 64.515625 
Q 56.984375 54.828125 56.984375 36.375 
Q 56.984375 17.96875 50.515625 8.265625 
Q 44.046875 -1.421875 31.78125 -1.421875 
Q 19.53125 -1.421875 13.0625 8.265625 
Q 6.59375 17.96875 6.59375 36.375 
Q 6.59375 54.828125 13.0625 64.515625 
Q 19.53125 74.21875 31.78125 74.21875 
z
" id="DejaVuSans-48"/>
      </defs>
      <g transform="translate(77.573295 399.078438)scale(0.1 -0.1)">
       <use xlink:href="#DejaVuSans-48"/>
      </g>
     </g>
    </g>
    <g id="xtick_2">
     <g id="line2d_2">
      <g>
       <use style="stroke:#000000;stroke-width:0.8;" x="151.763044" xlink:href="#mca8ffb4bcb" y="384.48"/>
      </g>
     </g>
     <g id="text_2">
      <!-- 880 -->
      <defs>
       <path d="M 31.78125 34.625 
Q 24.75 34.625 20.71875 30.859375 
Q 16.703125 27.09375 16.703125 20.515625 
Q 16.703125 13.921875 20.71875 10.15625 
Q 24.75 6.390625 31.78125 6.390625 
Q 38.8125 6.390625 42.859375 10.171875 
Q 46.921875 13.96875 46.921875 20.515625 
Q 46.921875 27.09375 42.890625 30.859375 
Q 38.875 34.625 31.78125 34.625 
z
M 21.921875 38.8125 
Q 15.578125 40.375 12.03125 44.71875 
Q 8.5 49.078125 8.5 55.328125 
Q 8.5 64.0625 14.71875 69.140625 
Q 20.953125 74.21875 31.78125 74.21875 
Q 42.671875 74.21875 48.875 69.140625 
Q 55.078125 64.0625 55.078125 55.328125 
Q 55.078125 49.078125 51.53125 44.71875 
Q 48 40.375 41.703125 38.8125 
Q 48.828125 37.15625 52.796875 32.3125 
Q 56.78125 27.484375 56.78125 20.515625 
Q 56.78125 9.90625 50.3125 4.234375 
Q 43.84375 -1.421875 31.78125 -1.421875 
Q 19.734375 -1.421875 13.25 4.234375 
Q 6.78125 9.90625 6.78125 20.515625 
Q 6.78125 27.484375 10.78125 32.3125 
Q 14.796875 37.15625 21.921875 38.8125 
z
M 18.3125 54.390625 
Q 18.3125 48.734375 21.84375 45.5625 
Q 25.390625 42.390625 31.78125 42.390625 
Q 38.140625 42.390625 41.71875 45.5625 
Q 45.3125 48.734375 45.3125 54.390625 
Q 45.3125 60.0625 41.71875 63.234375 
Q 38.140625 66.40625 31.78125 66.40625 
Q 25.390625 66.40625 21.84375 63.234375 
Q 18.3125 60.0625 18.3125 54.390625 
z
" id="DejaVuSans-56"/>
      </defs>
      <g transform="translate(142.219294 399.078438)scale(0.1 -0.1)">
       <use xlink:href="#DejaVuSans-56"/>
       <use x="63.623047" xlink:href="#DejaVuSans-56"/>
       <use x="127.246094" xlink:href="#DejaVuSans-48"/>
      </g>
     </g>
    </g>
    <g id="xtick_3">
     <g id="line2d_3">
      <g>
       <use style="stroke:#000000;stroke-width:0.8;" x="222.771543" xlink:href="#mca8ffb4bcb" y="384.48"/>
      </g>
     </g>
     <g id="text_3">
      <!-- 1760 -->
      <defs>
       <path d="M 12.40625 8.296875 
L 28.515625 8.296875 
L 28.515625 63.921875 
L 10.984375 60.40625 
L 10.984375 69.390625 
L 28.421875 72.90625 
L 38.28125 72.90625 
L 38.28125 8.296875 
L 54.390625 8.296875 
L 54.390625 0 
L 12.40625 0 
z
" id="DejaVuSans-49"/>
       <path d="M 8.203125 72.90625 
L 55.078125 72.90625 
L 55.078125 68.703125 
L 28.609375 0 
L 18.3125 0 
L 43.21875 64.59375 
L 8.203125 64.59375 
z
" id="DejaVuSans-55"/>
       <path d="M 33.015625 40.375 
Q 26.375 40.375 22.484375 35.828125 
Q 18.609375 31.296875 18.609375 23.390625 
Q 18.609375 15.53125 22.484375 10.953125 
Q 26.375 6.390625 33.015625 6.390625 
Q 39.65625 6.390625 43.53125 10.953125 
Q 47.40625 15.53125 47.40625 23.390625 
Q 47.40625 31.296875 43.53125 35.828125 
Q 39.65625 40.375 33.015625 40.375 
z
M 52.59375 71.296875 
L 52.59375 62.3125 
Q 48.875 64.0625 45.09375 64.984375 
Q 41.3125 65.921875 37.59375 65.921875 
Q 27.828125 65.921875 22.671875 59.328125 
Q 17.53125 52.734375 16.796875 39.40625 
Q 19.671875 43.65625 24.015625 45.921875 
Q 28.375 48.1875 33.59375 48.1875 
Q 44.578125 48.1875 50.953125 41.515625 
Q 57.328125 34.859375 57.328125 23.390625 
Q 57.328125 12.15625 50.6875 5.359375 
Q 44.046875 -1.421875 33.015625 -1.421875 
Q 20.359375 -1.421875 13.671875 8.265625 
Q 6.984375 17.96875 6.984375 36.375 
Q 6.984375 53.65625 15.1875 63.9375 
Q 23.390625 74.21875 37.203125 74.21875 
Q 40.921875 74.21875 44.703125 73.484375 
Q 48.484375 72.75 52.59375 71.296875 
z
" id="DejaVuSans-54"/>
      </defs>
      <g transform="translate(210.046543 399.078438)scale(0.1 -0.1)">
       <use xlink:href="#DejaVuSans-49"/>
       <use x="63.623047" xlink:href="#DejaVuSans-55"/>
       <use x="127.246094" xlink:href="#DejaVuSans-54"/>
       <use x="190.869141" xlink:href="#DejaVuSans-48"/>
      </g>
     </g>
    </g>
    <g id="xtick_4">
     <g id="line2d_4">
      <g>
       <use style="stroke:#000000;stroke-width:0.8;" x="293.780042" xlink:href="#mca8ffb4bcb" y="384.48"/>
      </g>
     </g>
     <g id="text_4">
      <!-- 2640 -->
      <defs>
       <path d="M 19.1875 8.296875 
L 53.609375 8.296875 
L 53.609375 0 
L 7.328125 0 
L 7.328125 8.296875 
Q 12.9375 14.109375 22.625 23.890625 
Q 32.328125 33.6875 34.8125 36.53125 
Q 39.546875 41.84375 41.421875 45.53125 
Q 43.3125 49.21875 43.3125 52.78125 
Q 43.3125 58.59375 39.234375 62.25 
Q 35.15625 65.921875 28.609375 65.921875 
Q 23.96875 65.921875 18.8125 64.3125 
Q 13.671875 62.703125 7.8125 59.421875 
L 7.8125 69.390625 
Q 13.765625 71.78125 18.9375 73 
Q 24.125 74.21875 28.421875 74.21875 
Q 39.75 74.21875 46.484375 68.546875 
Q 53.21875 62.890625 53.21875 53.421875 
Q 53.21875 48.921875 51.53125 44.890625 
Q 49.859375 40.875 45.40625 35.40625 
Q 44.1875 33.984375 37.640625 27.21875 
Q 31.109375 20.453125 19.1875 8.296875 
z
" id="DejaVuSans-50"/>
       <path d="M 37.796875 64.3125 
L 12.890625 25.390625 
L 37.796875 25.390625 
z
M 35.203125 72.90625 
L 47.609375 72.90625 
L 47.609375 25.390625 
L 58.015625 25.390625 
L 58.015625 17.1875 
L 47.609375 17.1875 
L 47.609375 0 
L 37.796875 0 
L 37.796875 17.1875 
L 4.890625 17.1875 
L 4.890625 26.703125 
z
" id="DejaVuSans-52"/>
      </defs>
      <g transform="translate(281.055042 399.078438)scale(0.1 -0.1)">
       <use xlink:href="#DejaVuSans-50"/>
       <use x="63.623047" xlink:href="#DejaVuSans-54"/>
       <use x="127.246094" xlink:href="#DejaVuSans-52"/>
       <use x="190.869141" xlink:href="#DejaVuSans-48"/>
      </g>
     </g>
    </g>
    <g id="xtick_5">
     <g id="line2d_5">
      <g>
       <use style="stroke:#000000;stroke-width:0.8;" x="364.788541" xlink:href="#mca8ffb4bcb" y="384.48"/>
      </g>
     </g>
     <g id="text_5">
      <!-- 3520 -->
      <defs>
       <path d="M 40.578125 39.3125 
Q 47.65625 37.796875 51.625 33 
Q 55.609375 28.21875 55.609375 21.1875 
Q 55.609375 10.40625 48.1875 4.484375 
Q 40.765625 -1.421875 27.09375 -1.421875 
Q 22.515625 -1.421875 17.65625 -0.515625 
Q 12.796875 0.390625 7.625 2.203125 
L 7.625 11.71875 
Q 11.71875 9.328125 16.59375 8.109375 
Q 21.484375 6.890625 26.8125 6.890625 
Q 36.078125 6.890625 40.9375 10.546875 
Q 45.796875 14.203125 45.796875 21.1875 
Q 45.796875 27.640625 41.28125 31.265625 
Q 36.765625 34.90625 28.71875 34.90625 
L 20.21875 34.90625 
L 20.21875 43.015625 
L 29.109375 43.015625 
Q 36.375 43.015625 40.234375 45.921875 
Q 44.09375 48.828125 44.09375 54.296875 
Q 44.09375 59.90625 40.109375 62.90625 
Q 36.140625 65.921875 28.71875 65.921875 
Q 24.65625 65.921875 20.015625 65.03125 
Q 15.375 64.15625 9.8125 62.3125 
L 9.8125 71.09375 
Q 15.4375 72.65625 20.34375 73.4375 
Q 25.25 74.21875 29.59375 74.21875 
Q 40.828125 74.21875 47.359375 69.109375 
Q 53.90625 64.015625 53.90625 55.328125 
Q 53.90625 49.265625 50.4375 45.09375 
Q 46.96875 40.921875 40.578125 39.3125 
z
" id="DejaVuSans-51"/>
       <path d="M 10.796875 72.90625 
L 49.515625 72.90625 
L 49.515625 64.59375 
L 19.828125 64.59375 
L 19.828125 46.734375 
Q 21.96875 47.46875 24.109375 47.828125 
Q 26.265625 48.1875 28.421875 48.1875 
Q 40.625 48.1875 47.75 41.5 
Q 54.890625 34.8125 54.890625 23.390625 
Q 54.890625 11.625 47.5625 5.09375 
Q 40.234375 -1.421875 26.90625 -1.421875 
Q 22.3125 -1.421875 17.546875 -0.640625 
Q 12.796875 0.140625 7.71875 1.703125 
L 7.71875 11.625 
Q 12.109375 9.234375 16.796875 8.0625 
Q 21.484375 6.890625 26.703125 6.890625 
Q 35.15625 6.890625 40.078125 11.328125 
Q 45.015625 15.765625 45.015625 23.390625 
Q 45.015625 31 40.078125 35.4375 
Q 35.15625 39.890625 26.703125 39.890625 
Q 22.75 39.890625 18.8125 39.015625 
Q 14.890625 38.140625 10.796875 36.28125 
z
" id="DejaVuSans-53"/>
      </defs>
      <g transform="translate(352.063541 399.078438)scale(0.1 -0.1)">
       <use xlink:href="#DejaVuSans-51"/>
       <use x="63.623047" xlink:href="#DejaVuSans-53"/>
       <use x="127.246094" xlink:href="#DejaVuSans-50"/>
       <use x="190.869141" xlink:href="#DejaVuSans-48"/>
      </g>
     </g>
    </g>
    <g id="text_6">
     <!-- time [ms] -->
     <defs>
      <path d="M 18.3125 70.21875 
L 18.3125 54.6875 
L 36.8125 54.6875 
L 36.8125 47.703125 
L 18.3125 47.703125 
L 18.3125 18.015625 
Q 18.3125 11.328125 20.140625 9.421875 
Q 21.96875 7.515625 27.59375 7.515625 
L 36.8125 7.515625 
L 36.8125 0 
L 27.59375 0 
Q 17.1875 0 13.234375 3.875 
Q 9.28125 7.765625 9.28125 18.015625 
L 9.28125 47.703125 
L 2.6875 47.703125 
L 2.6875 54.6875 
L 9.28125 54.6875 
L 9.28125 70.21875 
z
" id="DejaVuSans-116"/>
      <path d="M 9.421875 54.6875 
L 18.40625 54.6875 
L 18.40625 0 
L 9.421875 0 
z
M 9.421875 75.984375 
L 18.40625 75.984375 
L 18.40625 64.59375 
L 9.421875 64.59375 
z
" id="DejaVuSans-105"/>
      <path d="M 52 44.1875 
Q 55.375 50.25 60.0625 53.125 
Q 64.75 56 71.09375 56 
Q 79.640625 56 84.28125 50.015625 
Q 88.921875 44.046875 88.921875 33.015625 
L 88.921875 0 
L 79.890625 0 
L 79.890625 32.71875 
Q 79.890625 40.578125 77.09375 44.375 
Q 74.3125 48.1875 68.609375 48.1875 
Q 61.625 48.1875 57.5625 43.546875 
Q 53.515625 38.921875 53.515625 30.90625 
L 53.515625 0 
L 44.484375 0 
L 44.484375 32.71875 
Q 44.484375 40.625 41.703125 44.40625 
Q 38.921875 48.1875 33.109375 48.1875 
Q 26.21875 48.1875 22.15625 43.53125 
Q 18.109375 38.875 18.109375 30.90625 
L 18.109375 0 
L 9.078125 0 
L 9.078125 54.6875 
L 18.109375 54.6875 
L 18.109375 46.1875 
Q 21.1875 51.21875 25.484375 53.609375 
Q 29.78125 56 35.6875 56 
Q 41.65625 56 45.828125 52.96875 
Q 50 49.953125 52 44.1875 
z
" id="DejaVuSans-109"/>
      <path d="M 56.203125 29.59375 
L 56.203125 25.203125 
L 14.890625 25.203125 
Q 15.484375 15.921875 20.484375 11.0625 
Q 25.484375 6.203125 34.421875 6.203125 
Q 39.59375 6.203125 44.453125 7.46875 
Q 49.3125 8.734375 54.109375 11.28125 
L 54.109375 2.78125 
Q 49.265625 0.734375 44.1875 -0.34375 
Q 39.109375 -1.421875 33.890625 -1.421875 
Q 20.796875 -1.421875 13.15625 6.1875 
Q 5.515625 13.8125 5.515625 26.8125 
Q 5.515625 40.234375 12.765625 48.109375 
Q 20.015625 56 32.328125 56 
Q 43.359375 56 49.78125 48.890625 
Q 56.203125 41.796875 56.203125 29.59375 
z
M 47.21875 32.234375 
Q 47.125 39.59375 43.09375 43.984375 
Q 39.0625 48.390625 32.421875 48.390625 
Q 24.90625 48.390625 20.390625 44.140625 
Q 15.875 39.890625 15.1875 32.171875 
z
" id="DejaVuSans-101"/>
      <path id="DejaVuSans-32"/>
      <path d="M 8.59375 75.984375 
L 29.296875 75.984375 
L 29.296875 69 
L 17.578125 69 
L 17.578125 -6.203125 
L 29.296875 -6.203125 
L 29.296875 -13.1875 
L 8.59375 -13.1875 
z
" id="DejaVuSans-91"/>
      <path d="M 44.28125 53.078125 
L 44.28125 44.578125 
Q 40.484375 46.53125 36.375 47.5 
Q 32.28125 48.484375 27.875 48.484375 
Q 21.1875 48.484375 17.84375 46.4375 
Q 14.5 44.390625 14.5 40.28125 
Q 14.5 37.15625 16.890625 35.375 
Q 19.28125 33.59375 26.515625 31.984375 
L 29.59375 31.296875 
Q 39.15625 29.25 43.1875 25.515625 
Q 47.21875 21.78125 47.21875 15.09375 
Q 47.21875 7.46875 41.1875 3.015625 
Q 35.15625 -1.421875 24.609375 -1.421875 
Q 20.21875 -1.421875 15.453125 -0.5625 
Q 10.6875 0.296875 5.421875 2 
L 5.421875 11.28125 
Q 10.40625 8.6875 15.234375 7.390625 
Q 20.0625 6.109375 24.8125 6.109375 
Q 31.15625 6.109375 34.5625 8.28125 
Q 37.984375 10.453125 37.984375 14.40625 
Q 37.984375 18.0625 35.515625 20.015625 
Q 33.0625 21.96875 24.703125 23.78125 
L 21.578125 24.515625 
Q 13.234375 26.265625 9.515625 29.90625 
Q 5.8125 33.546875 5.8125 39.890625 
Q 5.8125 47.609375 11.28125 51.796875 
Q 16.75 56 26.8125 56 
Q 31.78125 56 36.171875 55.265625 
Q 40.578125 54.546875 44.28125 53.078125 
z
" id="DejaVuSans-115"/>
      <path d="M 30.421875 75.984375 
L 30.421875 -13.1875 
L 9.71875 -13.1875 
L 9.71875 -6.203125 
L 21.390625 -6.203125 
L 21.390625 69 
L 9.71875 69 
L 9.71875 75.984375 
z
" id="DejaVuSans-93"/>
     </defs>
     <g transform="translate(234.038281 412.756563)scale(0.1 -0.1)">
      <use xlink:href="#DejaVuSans-116"/>
      <use x="39.208984" xlink:href="#DejaVuSans-105"/>
      <use x="66.992188" xlink:href="#DejaVuSans-109"/>
      <use x="164.404297" xlink:href="#DejaVuSans-101"/>
      <use x="225.927734" xlink:href="#DejaVuSans-32"/>
      <use x="257.714844" xlink:href="#DejaVuSans-91"/>
      <use x="296.728516" xlink:href="#DejaVuSans-109"/>
      <use x="394.140625" xlink:href="#DejaVuSans-115"/>
      <use x="446.240234" xlink:href="#DejaVuSans-93"/>
     </g>
    </g>
   </g>
   <g id="matplotlib.axis_2">
    <g id="ytick_1">
     <g id="line2d_6">
      <defs>
       <path d="M 0 0 
L -3.5 0 
" id="m7e50e18022" style="stroke:#000000;stroke-width:0.8;"/>
      </defs>
      <g>
       <use style="stroke:#000000;stroke-width:0.8;" x="63" xlink:href="#m7e50e18022" y="378.47042"/>
      </g>
     </g>
     <g id="text_7">
      <!-- −200 -->
      <defs>
       <path d="M 10.59375 35.5 
L 73.1875 35.5 
L 73.1875 27.203125 
L 10.59375 27.203125 
z
" id="DejaVuSans-8722"/>
      </defs>
      <g transform="translate(28.532812 382.269639)scale(0.1 -0.1)">
       <use xlink:href="#DejaVuSans-8722"/>
       <use x="83.789062" xlink:href="#DejaVuSans-50"/>
       <use x="147.412109" xlink:href="#DejaVuSans-48"/>
       <use x="211.035156" xlink:href="#DejaVuSans-48"/>
      </g>
     </g>
    </g>
    <g id="ytick_2">
     <g id="line2d_7">
      <g>
       <use style="stroke:#000000;stroke-width:0.8;" x="63" xlink:href="#m7e50e18022" y="317.490365"/>
      </g>
     </g>
     <g id="text_8">
      <!-- −150 -->
      <g transform="translate(28.532812 321.289584)scale(0.1 -0.1)">
       <use xlink:href="#DejaVuSans-8722"/>
       <use x="83.789062" xlink:href="#DejaVuSans-49"/>
       <use x="147.412109" xlink:href="#DejaVuSans-53"/>
       <use x="211.035156" xlink:href="#DejaVuSans-48"/>
      </g>
     </g>
    </g>
    <g id="ytick_3">
     <g id="line2d_8">
      <g>
       <use style="stroke:#000000;stroke-width:0.8;" x="63" xlink:href="#m7e50e18022" y="256.510309"/>
      </g>
     </g>
     <g id="text_9">
      <!-- −100 -->
      <g transform="translate(28.532812 260.309528)scale(0.1 -0.1)">
       <use xlink:href="#DejaVuSans-8722"/>
       <use x="83.789062" xlink:href="#DejaVuSans-49"/>
       <use x="147.412109" xlink:href="#DejaVuSans-48"/>
       <use x="211.035156" xlink:href="#DejaVuSans-48"/>
      </g>
     </g>
    </g>
    <g id="ytick_4">
     <g id="line2d_9">
      <g>
       <use style="stroke:#000000;stroke-width:0.8;" x="63" xlink:href="#m7e50e18022" y="195.530254"/>
      </g>
     </g>
     <g id="text_10">
      <!-- −50 -->
      <g transform="translate(34.895313 199.329473)scale(0.1 -0.1)">
       <use xlink:href="#DejaVuSans-8722"/>
       <use x="83.789062" xlink:href="#DejaVuSans-53"/>
       <use x="147.412109" xlink:href="#DejaVuSans-48"/>
      </g>
     </g>
    </g>
    <g id="ytick_5">
     <g id="line2d_10">
      <g>
       <use style="stroke:#000000;stroke-width:0.8;" x="63" xlink:href="#m7e50e18022" y="134.550198"/>
      </g>
     </g>
     <g id="text_11">
      <!-- 0 -->
      <g transform="translate(49.6375 138.349417)scale(0.1 -0.1)">
       <use xlink:href="#DejaVuSans-48"/>
      </g>
     </g>
    </g>
    <g id="ytick_6">
     <g id="line2d_11">
      <g>
       <use style="stroke:#000000;stroke-width:0.8;" x="63" xlink:href="#m7e50e18022" y="73.570143"/>
      </g>
     </g>
     <g id="text_12">
      <!-- 50 -->
      <g transform="translate(43.275 77.369361)scale(0.1 -0.1)">
       <use xlink:href="#DejaVuSans-53"/>
       <use x="63.623047" xlink:href="#DejaVuSans-48"/>
      </g>
     </g>
    </g>
    <g id="text_13">
     <!-- voltage [mV] -->
     <defs>
      <path d="M 2.984375 54.6875 
L 12.5 54.6875 
L 29.59375 8.796875 
L 46.6875 54.6875 
L 56.203125 54.6875 
L 35.6875 0 
L 23.484375 0 
z
" id="DejaVuSans-118"/>
      <path d="M 30.609375 48.390625 
Q 23.390625 48.390625 19.1875 42.75 
Q 14.984375 37.109375 14.984375 27.296875 
Q 14.984375 17.484375 19.15625 11.84375 
Q 23.34375 6.203125 30.609375 6.203125 
Q 37.796875 6.203125 41.984375 11.859375 
Q 46.1875 17.53125 46.1875 27.296875 
Q 46.1875 37.015625 41.984375 42.703125 
Q 37.796875 48.390625 30.609375 48.390625 
z
M 30.609375 56 
Q 42.328125 56 49.015625 48.375 
Q 55.71875 40.765625 55.71875 27.296875 
Q 55.71875 13.875 49.015625 6.21875 
Q 42.328125 -1.421875 30.609375 -1.421875 
Q 18.84375 -1.421875 12.171875 6.21875 
Q 5.515625 13.875 5.515625 27.296875 
Q 5.515625 40.765625 12.171875 48.375 
Q 18.84375 56 30.609375 56 
z
" id="DejaVuSans-111"/>
      <path d="M 9.421875 75.984375 
L 18.40625 75.984375 
L 18.40625 0 
L 9.421875 0 
z
" id="DejaVuSans-108"/>
      <path d="M 34.28125 27.484375 
Q 23.390625 27.484375 19.1875 25 
Q 14.984375 22.515625 14.984375 16.5 
Q 14.984375 11.71875 18.140625 8.90625 
Q 21.296875 6.109375 26.703125 6.109375 
Q 34.1875 6.109375 38.703125 11.40625 
Q 43.21875 16.703125 43.21875 25.484375 
L 43.21875 27.484375 
z
M 52.203125 31.203125 
L 52.203125 0 
L 43.21875 0 
L 43.21875 8.296875 
Q 40.140625 3.328125 35.546875 0.953125 
Q 30.953125 -1.421875 24.3125 -1.421875 
Q 15.921875 -1.421875 10.953125 3.296875 
Q 6 8.015625 6 15.921875 
Q 6 25.140625 12.171875 29.828125 
Q 18.359375 34.515625 30.609375 34.515625 
L 43.21875 34.515625 
L 43.21875 35.40625 
Q 43.21875 41.609375 39.140625 45 
Q 35.0625 48.390625 27.6875 48.390625 
Q 23 48.390625 18.546875 47.265625 
Q 14.109375 46.140625 10.015625 43.890625 
L 10.015625 52.203125 
Q 14.9375 54.109375 19.578125 55.046875 
Q 24.21875 56 28.609375 56 
Q 40.484375 56 46.34375 49.84375 
Q 52.203125 43.703125 52.203125 31.203125 
z
" id="DejaVuSans-97"/>
      <path d="M 45.40625 27.984375 
Q 45.40625 37.75 41.375 43.109375 
Q 37.359375 48.484375 30.078125 48.484375 
Q 22.859375 48.484375 18.828125 43.109375 
Q 14.796875 37.75 14.796875 27.984375 
Q 14.796875 18.265625 18.828125 12.890625 
Q 22.859375 7.515625 30.078125 7.515625 
Q 37.359375 7.515625 41.375 12.890625 
Q 45.40625 18.265625 45.40625 27.984375 
z
M 54.390625 6.78125 
Q 54.390625 -7.171875 48.1875 -13.984375 
Q 42 -20.796875 29.203125 -20.796875 
Q 24.46875 -20.796875 20.265625 -20.09375 
Q 16.0625 -19.390625 12.109375 -17.921875 
L 12.109375 -9.1875 
Q 16.0625 -11.328125 19.921875 -12.34375 
Q 23.78125 -13.375 27.78125 -13.375 
Q 36.625 -13.375 41.015625 -8.765625 
Q 45.40625 -4.15625 45.40625 5.171875 
L 45.40625 9.625 
Q 42.625 4.78125 38.28125 2.390625 
Q 33.9375 0 27.875 0 
Q 17.828125 0 11.671875 7.65625 
Q 5.515625 15.328125 5.515625 27.984375 
Q 5.515625 40.671875 11.671875 48.328125 
Q 17.828125 56 27.875 56 
Q 33.9375 56 38.28125 53.609375 
Q 42.625 51.21875 45.40625 46.390625 
L 45.40625 54.6875 
L 54.390625 54.6875 
z
" id="DejaVuSans-103"/>
      <path d="M 28.609375 0 
L 0.78125 72.90625 
L 11.078125 72.90625 
L 34.1875 11.53125 
L 57.328125 72.90625 
L 67.578125 72.90625 
L 39.796875 0 
z
" id="DejaVuSans-86"/>
     </defs>
     <g transform="translate(22.453125 250.624062)rotate(-90)scale(0.1 -0.1)">
      <use xlink:href="#DejaVuSans-118"/>
      <use x="59.179688" xlink:href="#DejaVuSans-111"/>
      <use x="120.361328" xlink:href="#DejaVuSans-108"/>
      <use x="148.144531" xlink:href="#DejaVuSans-116"/>
      <use x="187.353516" xlink:href="#DejaVuSans-97"/>
      <use x="248.632812" xlink:href="#DejaVuSans-103"/>
      <use x="312.109375" xlink:href="#DejaVuSans-101"/>
      <use x="373.632812" xlink:href="#DejaVuSans-32"/>
      <use x="405.419922" xlink:href="#DejaVuSans-91"/>
      <use x="444.433594" xlink:href="#DejaVuSans-109"/>
      <use x="541.845703" xlink:href="#DejaVuSans-86"/>
      <use x="610.253906" xlink:href="#DejaVuSans-93"/>
     </g>
    </g>
   </g>
   <g id="line2d_12">
    <path clip-path="url(#pb50bf09514)" d="M 80.754545 205.892099 
L 83.385088 205.832548 
L 83.417364 205.772997 
L 83.465779 205.892099 
L 83.498056 205.832548 
L 83.514194 205.892099 
L 83.594885 205.832548 
L 83.723992 205.772997 
L 84.547045 205.832548 
L 84.676151 205.892099 
L 84.96664 205.832548 
L 85.095747 205.772997 
L 85.176438 205.832548 
L 85.208715 205.772997 
L 85.337821 205.832548 
L 85.35396 205.892099 
L 85.402374 205.772997 
L 85.434651 205.772997 
L 86.322257 205.832548 
L 86.451364 205.892099 
L 87.419661 205.95165 
L 87.532629 206.011201 
L 87.581044 205.95165 
L 87.645598 206.011201 
L 88.694587 206.070752 
L 88.807555 206.130302 
L 88.85597 206.070752 
L 89.049629 199.281956 
L 89.501501 192.910017 
L 90.356831 184.632451 
L 91.196022 179.213325 
L 91.470373 177.784105 
L 91.777001 176.295334 
L 92.551639 173.85375 
L 92.583916 173.794199 
L 92.793714 173.436894 
L 92.82599 173.377343 
L 93.11648 172.722284 
L 93.310139 172.662733 
L 93.503799 172.364979 
L 93.552214 172.305428 
L 93.745873 172.007674 
L 93.858841 171.948123 
L 94.020224 171.76947 
L 94.213884 171.70992 
L 94.391405 171.471716 
L 95.843851 171.412165 
L 95.989096 171.173962 
L 96.005234 171.233513 
L 96.118202 171.173962 
L 96.247309 171.114411 
L 96.553936 171.05486 
L 96.683043 170.99531 
L 96.892841 171.352615 
L 96.957394 171.412165 
L 97.167192 171.76947 
L 97.393128 171.70992 
L 97.425404 171.650369 
L 97.506096 171.70992 
L 97.845 171.650369 
L 97.990245 171.531267 
L 98.006383 171.590818 
L 98.03866 171.471716 
L 98.103213 171.531267 
L 98.264596 171.590818 
L 98.296872 171.650369 
L 98.361426 171.531267 
L 98.50667 171.590818 
L 98.538947 171.650369 
L 98.571223 171.531267 
L 98.619638 171.590818 
L 99.119925 171.531267 
L 99.26517 171.412165 
L 99.959117 171.352615 
L 100.055947 171.293064 
L 100.072085 171.352615 
L 100.1205 171.412165 
L 100.362574 172.42453 
L 100.604649 172.900936 
L 100.653063 172.960487 
L 100.733755 173.020038 
L 100.766031 172.960487 
L 100.943553 172.900936 
L 101.056521 172.722284 
L 101.088797 172.781835 
L 101.217904 172.722284 
L 101.395425 172.48408 
L 101.427702 172.543631 
L 101.508393 172.48408 
L 101.556808 172.42453 
L 101.702053 172.305428 
L 101.831159 172.245877 
L 101.960265 172.186326 
L 102.040957 172.245877 
L 102.073233 172.186326 
L 102.153925 172.126775 
L 102.331446 171.888572 
L 102.347584 171.948123 
L 102.379861 171.829021 
L 102.428276 171.888572 
L 102.589659 171.70992 
L 102.718765 171.76947 
L 102.993116 171.70992 
L 103.057669 171.531267 
L 103.122223 171.650369 
L 103.235191 171.70992 
L 103.251329 171.76947 
L 103.33202 171.650369 
L 103.348159 171.70992 
L 103.461127 171.590818 
L 103.477265 171.650369 
L 103.687063 171.590818 
L 103.816169 171.531267 
L 104.09052 171.471716 
L 104.18735 171.412165 
L 104.203488 171.471716 
L 104.38101 171.412165 
L 104.526254 171.173962 
L 104.542393 171.233513 
L 104.639222 171.173962 
L 104.687637 171.114411 
L 104.75219 171.173962 
L 104.897435 171.114411 
L 105.026541 171.05486 
L 105.236339 171.114411 
L 105.317031 171.173962 
L 105.349307 171.114411 
L 106.107807 171.05486 
L 106.123945 170.99531 
L 106.17236 171.114411 
L 106.220775 171.05486 
L 106.882445 171.114411 
L 107.011552 171.173962 
L 107.705498 171.114411 
L 107.737775 171.05486 
L 107.78619 171.173962 
L 107.802328 171.173962 
L 108.383307 171.114411 
L 108.528551 170.99531 
L 108.576966 170.935759 
L 108.706073 170.876208 
L 109.254775 170.816657 
L 109.335466 170.757106 
L 109.367743 170.816657 
L 109.690509 170.757106 
L 109.819615 170.638005 
L 109.916445 170.697555 
L 109.932583 170.638005 
L 110.416732 170.697555 
L 110.561977 170.816657 
L 110.691083 170.757106 
L 111.368891 170.816657 
L 111.530274 170.99531 
L 112.256498 171.05486 
L 112.321051 170.99531 
L 112.385604 171.114411 
L 112.821338 171.173962 
L 112.837476 171.233513 
L 112.869753 171.114411 
L 112.934306 171.173962 
L 113.17638 171.233513 
L 113.337763 171.412165 
L 113.434593 171.471716 
L 113.579838 171.590818 
L 113.789636 171.531267 
L 113.870327 171.471716 
L 113.902604 171.531267 
L 114.160817 171.590818 
L 114.257646 171.650369 
L 114.273785 171.590818 
L 114.386753 171.471716 
L 114.402891 171.531267 
L 114.483582 171.471716 
L 114.580412 171.352615 
L 114.612689 171.412165 
L 114.806348 171.352615 
L 114.935455 171.293064 
L 115.35505 171.233513 
L 115.484157 171.173962 
L 115.532572 171.233513 
L 115.580986 171.173962 
L 115.710093 171.114411 
L 115.839199 171.05486 
L 115.984444 170.935759 
L 116.21038 170.876208 
L 116.339486 170.816657 
L 116.484731 170.757106 
L 116.629976 170.638005 
L 116.710667 170.578454 
L 116.742944 170.518903 
L 116.823635 170.578454 
L 117.017295 170.638005 
L 117.033433 170.697555 
L 117.130263 170.638005 
L 117.259369 170.697555 
L 117.501444 171.173962 
L 117.549858 171.233513 
L 117.743518 171.531267 
L 117.921039 171.590818 
L 118.050146 171.650369 
L 118.647263 171.590818 
L 118.776369 171.531267 
L 119.05072 171.471716 
L 119.131411 171.412165 
L 119.163688 171.471716 
L 119.518731 171.412165 
L 119.663975 171.293064 
L 119.80922 171.233513 
L 119.938326 171.173962 
L 120.002879 171.233513 
L 120.051294 171.173962 
L 120.228815 170.935759 
L 120.438613 170.876208 
L 120.56772 170.816657 
L 120.664549 170.757106 
L 120.696826 170.697555 
L 120.745241 170.816657 
L 120.761379 170.816657 
L 120.858209 170.876208 
L 120.874347 170.816657 
L 121.116422 170.876208 
L 121.261666 170.99531 
L 121.471464 170.935759 
L 121.616709 170.816657 
L 121.778092 170.757106 
L 121.939475 170.578454 
L 122.116996 170.518903 
L 122.246102 170.459352 
L 122.407485 170.638005 
L 122.423624 170.578454 
L 122.520453 170.638005 
L 122.697975 170.578454 
L 122.810943 170.459352 
L 122.827081 170.518903 
L 123.133709 170.578454 
L 123.278953 170.697555 
L 123.553304 170.757106 
L 123.682411 170.876208 
L 123.843794 170.697555 
L 123.924485 170.757106 
L 123.940623 170.816657 
L 124.005177 170.697555 
L 124.021315 170.697555 
L 124.360219 170.638005 
L 124.489325 170.578454 
L 124.682985 170.638005 
L 124.844368 170.816657 
L 125.280102 170.876208 
L 125.360793 170.99531 
L 125.39307 170.935759 
L 125.522176 170.876208 
L 125.764251 170.816657 
L 125.780389 170.757106 
L 125.877219 170.816657 
L 126.038602 170.757106 
L 126.167708 170.697555 
L 126.329091 170.638005 
L 126.458197 170.578454 
L 126.587304 170.638005 
L 126.651857 170.697555 
L 126.700272 170.638005 
L 127.136006 170.578454 
L 127.152144 170.518903 
L 127.232836 170.578454 
L 127.248974 170.638005 
L 127.297389 170.518903 
L 127.329665 170.518903 
L 127.394219 170.578454 
L 127.442633 170.697555 
L 127.507187 170.638005 
L 127.636293 170.578454 
L 127.765399 170.638005 
L 127.975197 170.578454 
L 128.120442 170.459352 
L 128.217272 170.399801 
L 128.346378 170.34025 
L 128.410931 170.2807 
L 128.540038 170.221149 
L 129.08874 170.161598 
L 129.137154 170.102047 
L 129.201708 170.161598 
L 129.605165 170.221149 
L 129.734271 170.2807 
L 129.831101 170.221149 
L 130.024761 169.923395 
L 130.137729 169.863844 
L 130.282973 169.744742 
L 130.525048 169.685191 
L 130.541186 169.62564 
L 130.589601 169.744742 
L 130.621878 169.685191 
L 130.670292 169.744742 
L 130.734846 169.685191 
L 131.07375 169.62564 
L 131.218995 169.506539 
L 132.477782 169.56609 
L 132.606888 169.62564 
L 132.768271 169.56609 
L 132.816686 169.506539 
L 132.881239 169.56609 
L 133.268558 169.62564 
L 133.397664 169.685191 
L 133.413803 169.685191 
L 133.559047 169.982945 
L 133.591324 169.923395 
L 133.639739 170.102047 
L 133.655877 170.042496 
L 133.768845 170.102047 
L 133.962505 170.399801 
L 133.994781 170.459352 
L 134.156164 170.697555 
L 134.285271 170.638005 
L 134.430515 170.697555 
L 134.559622 170.816657 
L 134.688728 170.757106 
L 134.979217 170.697555 
L 135.108324 170.638005 
L 135.33426 170.578454 
L 135.414951 170.459352 
L 135.463366 170.518903 
L 135.818409 170.459352 
L 135.834547 170.399801 
L 135.866824 170.518903 
L 135.931377 170.459352 
L 136.044345 170.399801 
L 136.060483 170.34025 
L 136.157313 170.399801 
L 136.883536 170.34025 
L 137.061057 170.102047 
L 137.174025 170.042496 
L 137.206302 169.982945 
L 137.238579 170.102047 
L 137.270855 170.102047 
L 137.367685 170.042496 
L 137.432238 169.923395 
L 137.480653 170.042496 
L 137.690451 169.982945 
L 137.835696 169.863844 
L 137.98094 169.982945 
L 138.110047 169.923395 
L 138.206876 169.744742 
L 138.255291 169.804293 
L 138.707163 169.744742 
L 138.83627 169.685191 
L 138.900823 169.744742 
L 138.949238 169.685191 
L 139.126759 169.744742 
L 139.255866 169.804293 
L 139.30428 169.744742 
L 139.368834 169.804293 
L 139.772291 169.744742 
L 139.901397 169.62564 
L 139.998227 169.685191 
L 140.014365 169.62564 
L 140.756727 169.56609 
L 140.91811 169.387437 
L 141.047216 169.327886 
L 141.127908 169.268335 
L 141.160184 169.327886 
L 141.434535 169.923395 
L 141.902546 169.863844 
L 142.031652 169.804293 
L 142.14462 169.744742 
L 142.273727 169.685191 
L 142.386695 169.744742 
L 142.515801 169.685191 
L 142.80629 169.62564 
L 142.951535 169.506539 
L 144.339429 169.56609 
L 144.468535 169.804293 
L 144.484673 169.744742 
L 144.581503 169.685191 
L 144.597641 169.744742 
L 144.678333 169.804293 
L 144.823577 169.923395 
L 145.340003 169.863844 
L 145.485247 169.744742 
L 145.64663 169.685191 
L 145.775737 169.62564 
L 146.308301 169.56609 
L 146.388992 169.446988 
L 146.437407 169.506539 
L 147.244322 169.56609 
L 147.26046 169.62564 
L 147.35729 169.56609 
L 147.550949 169.506539 
L 147.680056 169.446988 
L 147.809162 169.506539 
L 147.938268 169.446988 
L 147.970545 169.387437 
L 148.051236 169.446988 
L 148.180343 169.506539 
L 148.325587 169.62564 
L 148.374002 169.56609 
L 148.503109 169.506539 
L 148.632215 169.56609 
L 148.858151 169.506539 
L 148.890428 169.387437 
L 148.987258 169.446988 
L 149.100226 169.506539 
L 149.116364 169.56609 
L 149.164779 169.446988 
L 149.213194 169.506539 
L 149.358438 169.387437 
L 149.697343 169.446988 
L 149.826449 169.506539 
L 149.971694 169.506539 
L 150.00397 169.387437 
L 150.084662 169.446988 
L 150.407427 169.506539 
L 150.601087 169.863844 
L 150.76247 169.685191 
L 151.085236 169.744742 
L 151.149789 169.804293 
L 151.198204 169.744742 
L 151.32731 169.685191 
L 151.343449 169.744742 
L 151.375725 169.62564 
L 151.440278 169.685191 
L 151.811459 169.62564 
L 151.843736 169.56609 
L 151.924427 169.62564 
L 152.424714 169.56609 
L 152.586097 169.387437 
L 152.908863 169.327886 
L 152.94114 169.268335 
L 153.005693 169.387437 
L 153.054108 169.327886 
L 153.070246 169.268335 
L 153.150938 169.387437 
L 153.328459 169.327886 
L 153.360736 169.268335 
L 153.40915 169.327886 
L 153.60281 176.116681 
L 154.054682 182.42907 
L 154.425863 186.299874 
L 154.861597 189.992026 
L 154.990703 190.885289 
L 155.265054 192.731365 
L 155.765342 195.649355 
L 155.991278 196.899923 
L 156.314044 198.507796 
L 156.927299 201.187583 
L 157.137097 201.961744 
L 158.460437 206.428057 
L 158.492713 206.487607 
L 158.815479 207.261768 
L 158.847756 207.321319 
L 159.154383 208.035929 
L 159.18666 208.09548 
L 159.428735 208.571887 
L 159.461011 208.631438 
L 159.735362 209.226946 
L 159.816054 209.286497 
L 160.025851 209.643802 
L 160.058128 209.703353 
L 160.284064 210.120208 
L 160.348617 210.179759 
L 160.542277 210.477513 
L 160.60683 210.537064 
L 160.80049 210.894369 
L 160.816628 210.834818 
L 160.865043 210.95392 
L 160.897319 210.95392 
L 160.978011 211.013471 
L 161.139394 211.192123 
L 161.300777 211.251674 
L 161.478298 211.489878 
L 161.526713 211.430327 
L 161.591266 211.489878 
L 161.752649 211.66853 
L 161.897894 211.728081 
L 162.043138 211.847183 
L 162.091553 211.906734 
L 162.236798 212.025835 
L 162.285213 212.085386 
L 162.317489 212.144937 
L 162.398181 212.085386 
L 162.462734 212.144937 
L 162.607979 212.264039 
L 162.995298 212.323589 
L 163.124404 212.38314 
L 163.318064 212.442691 
L 163.431032 212.561793 
L 163.44717 212.502242 
L 163.527861 212.561793 
L 163.656968 212.621344 
L 163.931319 212.680894 
L 164.060425 212.740445 
L 164.544574 212.680894 
L 164.625266 212.621344 
L 164.657542 212.680894 
L 165.997021 212.621344 
L 166.126127 212.502242 
L 166.206818 212.561793 
L 166.239095 212.502242 
L 166.432755 212.442691 
L 166.577999 212.323589 
L 166.900765 212.264039 
L 167.029872 212.204488 
L 167.304223 212.144937 
L 167.465606 211.966284 
L 167.659265 211.906734 
L 167.788371 211.847183 
L 168.014308 211.787632 
L 168.175691 211.608979 
L 168.191829 211.66853 
L 168.288659 211.608979 
L 168.450042 211.549429 
L 168.56301 211.489878 
L 168.579148 211.549429 
L 168.627563 211.430327 
L 168.659839 211.430327 
L 168.837361 211.370776 
L 168.853499 211.311225 
L 168.885775 211.430327 
L 168.950329 211.370776 
L 169.12785 211.311225 
L 169.273095 211.192123 
L 169.418339 211.132573 
L 169.499031 211.073022 
L 169.611999 206.428057 
L 169.708829 206.487607 
L 169.724967 206.547158 
L 169.821797 206.487607 
L 170.951477 206.547158 
L 170.967616 206.606709 
L 171.064445 206.547158 
L 171.790669 206.606709 
L 171.822945 206.66626 
L 171.903637 206.606709 
L 172.048881 206.487607 
L 172.177988 206.547158 
L 172.387786 206.487607 
L 172.516892 206.428057 
L 173.162424 206.368506 
L 173.307668 206.249404 
L 174.518041 206.308955 
L 174.647147 206.368506 
L 175.115157 206.428057 
L 175.147434 206.487607 
L 175.228126 206.428057 
L 175.389508 206.487607 
L 175.405647 206.547158 
L 175.502477 206.487607 
L 175.615445 206.547158 
L 175.712274 206.606709 
L 175.728413 206.547158 
L 175.954349 206.606709 
L 176.083455 206.66626 
L 176.099593 206.606709 
L 176.180285 206.725811 
L 176.196423 206.66626 
L 176.664434 206.606709 
L 176.79354 206.547158 
L 176.938785 206.487607 
L 177.019476 206.547158 
L 177.067891 206.428057 
L 177.213136 206.487607 
L 177.293827 206.547158 
L 177.326104 206.487607 
L 177.616593 206.487607 
L 177.810253 197.614533 
L 178.391231 187.193137 
L 179.149731 177.605452 
L 179.82754 171.293064 
L 180.39238 167.898666 
L 180.924944 166.350344 
L 180.95722 166.290794 
L 181.15088 165.993039 
L 181.312263 165.933489 
L 181.522061 165.576184 
L 181.538199 165.576184 
L 181.683444 165.278429 
L 181.764135 165.218879 
L 181.90938 165.099777 
L 182.328975 165.040226 
L 182.522635 164.742472 
L 182.66788 164.682921 
L 182.861539 164.385167 
L 182.926092 164.444718 
L 182.974507 164.504268 
L 183.03906 164.444718 
L 183.103614 164.385167 
L 183.264997 164.206514 
L 183.313411 164.146963 
L 183.539348 163.730108 
L 183.620039 163.670557 
L 183.829837 163.313252 
L 183.89439 163.253701 
L 184.184879 162.598642 
L 184.233294 162.658193 
L 184.297847 162.598642 
L 184.539922 162.122235 
L 184.814273 162.062684 
L 184.927241 161.705379 
L 184.991794 161.824481 
L 185.072486 161.76493 
L 185.250007 161.348074 
L 185.282283 161.407625 
L 185.346837 161.348074 
L 185.669602 160.573913 
L 185.718017 160.514363 
L 186.411964 157.536821 
L 186.428102 157.179516 
L 186.444241 153.487364 
L 186.492656 72.557779 
L 186.573347 114.898423 
L 186.73473 163.015498 
L 186.944528 164.563819 
L 188.05807 172.067225 
L 188.074208 172.067225 
L 188.25173 172.603182 
L 188.477666 173.020038 
L 188.526081 173.079589 
L 188.752017 173.496445 
L 188.800432 173.555995 
L 188.961815 173.734648 
L 189.026368 173.675097 
L 189.058644 173.734648 
L 189.187751 173.794199 
L 189.720315 173.734648 
L 189.865559 173.615546 
L 190.091495 173.555995 
L 190.23674 173.436894 
L 190.285155 173.377343 
L 190.414261 173.258241 
L 190.4304 173.317792 
L 190.494953 173.19869 
L 190.511091 173.19869 
L 190.591783 173.13914 
L 190.720889 173.079589 
L 190.89841 173.020038 
L 191.027516 172.960487 
L 191.140485 172.900936 
L 191.301868 172.722284 
L 191.46325 172.662733 
L 191.640772 172.42453 
L 192.205612 172.364979 
L 192.366995 172.186326 
L 192.463825 172.126775 
L 192.625208 171.888572 
L 192.754314 171.948123 
L 192.835006 171.888572 
L 192.899559 171.829021 
L 192.947974 171.888572 
L 193.238463 171.829021 
L 193.383708 171.70992 
L 193.512814 171.650369 
L 193.658059 171.531267 
L 193.787165 171.590818 
L 193.964686 171.352615 
L 194.013101 171.412165 
L 194.061516 171.293064 
L 194.448835 171.233513 
L 194.59408 171.114411 
L 194.723186 171.05486 
L 194.900707 170.816657 
L 194.981399 170.757106 
L 195.126643 170.638005 
L 195.271888 170.578454 
L 195.35258 170.459352 
L 195.400994 170.518903 
L 195.465548 170.459352 
L 195.610792 170.34025 
L 195.885143 170.2807 
L 196.01425 170.221149 
L 196.094941 170.161598 
L 196.256324 169.923395 
L 196.353154 169.982945 
L 196.369292 169.923395 
L 196.708196 169.863844 
L 196.837303 169.804293 
L 196.950271 169.863844 
L 196.982547 169.804293 
L 197.063239 169.863844 
L 197.14393 169.804293 
L 197.160069 169.744742 
L 197.224622 169.863844 
L 197.24076 169.863844 
L 197.402143 169.923395 
L 197.579664 170.2807 
L 197.595803 170.221149 
L 197.644218 170.2807 
L 197.821739 170.518903 
L 197.854015 170.459352 
L 197.934707 170.518903 
L 197.966983 170.578454 
L 198.112228 170.697555 
L 198.467271 170.638005 
L 198.483409 170.578454 
L 198.580239 170.638005 
L 198.644792 170.578454 
L 198.822313 170.34025 
L 199.032111 170.2807 
L 199.209632 170.042496 
L 199.241909 170.102047 
L 199.306462 169.982945 
L 199.500121 169.685191 
L 199.629228 169.744742 
L 199.790611 169.685191 
L 199.951994 169.506539 
L 200.032685 169.446988 
L 200.161792 169.387437 
L 200.532972 169.327886 
L 200.662079 169.149234 
L 200.678217 169.208784 
L 200.807323 169.149234 
L 200.968706 168.970581 
L 201.065536 168.91103 
L 201.226919 168.732378 
L 201.372164 168.672827 
L 201.50127 168.613276 
L 201.646515 168.553725 
L 201.807898 168.375073 
L 201.856313 168.434624 
L 201.985419 168.494174 
L 202.146802 168.315522 
L 202.275908 168.375073 
L 202.3566 168.315522 
L 202.517983 168.136869 
L 202.582536 168.077319 
L 202.727781 167.898666 
L 202.743919 167.958217 
L 202.776195 167.839115 
L 202.82461 167.839115 
L 203.034408 167.779564 
L 203.179653 167.660463 
L 203.550834 167.720014 
L 203.67994 167.779564 
L 203.77677 167.839115 
L 203.905876 167.898666 
L 204.632099 167.839115 
L 204.777344 167.720014 
L 204.858035 167.660463 
L 204.987142 167.600912 
L 205.116248 167.720014 
L 205.164663 167.660463 
L 205.19694 167.779564 
L 205.229216 167.720014 
L 205.358323 167.898666 
L 205.374461 167.839115 
L 206.052269 167.898666 
L 206.213652 168.077319 
L 206.455727 168.136869 
L 206.61711 168.315522 
L 206.762354 168.375073 
L 206.907599 168.494174 
L 207.343333 168.434624 
L 207.359471 168.375073 
L 207.456301 168.434624 
L 207.472439 168.494174 
L 207.569269 168.434624 
L 207.666099 168.494174 
L 207.682237 168.553725 
L 207.779067 168.494174 
L 208.021141 168.434624 
L 208.182524 168.255971 
L 208.230939 168.19642 
L 208.40846 167.958217 
L 208.60212 167.898666 
L 208.731226 167.839115 
L 208.989439 167.779564 
L 209.118545 167.720014 
L 209.215375 167.660463 
L 209.36062 167.541361 
L 209.538141 167.48181 
L 209.731801 167.184056 
L 210.038428 167.124505 
L 210.183673 167.005404 
L 210.232088 167.064954 
L 210.393471 167.243607 
L 211.055141 167.184056 
L 211.232662 166.945853 
L 211.297215 167.005404 
L 211.329492 166.945853 
L 211.474737 166.826751 
L 211.652258 166.7672 
L 211.749088 166.707649 
L 211.765226 166.7672 
L 211.813641 166.707649 
L 211.958885 166.588548 
L 212.023439 166.528997 
L 212.039577 166.469446 
L 212.087992 166.588548 
L 212.120268 166.588548 
L 212.217098 166.648099 
L 212.362343 166.7672 
L 212.410758 166.707649 
L 212.475311 166.588548 
L 212.523726 166.707649 
L 212.588279 166.648099 
L 212.636694 166.588548 
L 212.685109 166.648099 
L 212.86263 166.886302 
L 213.185396 166.826751 
L 213.217672 166.7672 
L 213.266087 166.886302 
L 213.282226 166.886302 
L 213.556577 166.826751 
L 213.653406 166.7672 
L 213.669545 166.826751 
L 213.814789 166.7672 
L 214.008449 166.469446 
L 214.056864 166.409895 
L 214.073002 166.350344 
L 214.169832 166.409895 
L 214.2828 166.350344 
L 214.411906 166.290794 
L 214.589427 166.231243 
L 214.734672 166.112141 
L 214.84764 166.171692 
L 214.879917 166.231243 
L 214.928332 166.112141 
L 214.94447 166.112141 
L 215.202683 166.05259 
L 215.331789 165.993039 
L 215.460895 166.05259 
L 215.751385 166.112141 
L 215.767523 166.171692 
L 215.864353 166.112141 
L 216.058012 165.814387 
L 216.138704 165.754836 
L 216.300087 165.516633 
L 216.380778 165.576184 
L 216.413055 165.516633 
L 216.542161 165.457082 
L 216.687406 165.33798 
L 216.92948 165.278429 
L 216.977895 165.218879 
L 217.02631 165.278429 
L 217.042448 165.33798 
L 217.139278 165.278429 
L 217.704118 165.33798 
L 217.833225 165.397531 
L 217.849363 165.33798 
L 217.946193 165.397531 
L 218.204406 165.397531 
L 218.34965 165.695285 
L 218.656278 165.635734 
L 218.785384 165.576184 
L 218.962905 165.635734 
L 219.027459 165.576184 
L 219.075874 165.695285 
L 219.20498 165.635734 
L 219.414778 165.695285 
L 219.576161 165.873938 
L 219.915065 165.933489 
L 220.157139 166.409895 
L 220.270107 166.469446 
L 220.350799 166.588548 
L 220.399214 166.528997 
L 220.496044 166.469446 
L 220.62515 166.409895 
L 220.818809 166.469446 
L 220.834948 166.528997 
L 220.931777 166.469446 
L 221.125437 166.409895 
L 221.254543 166.350344 
L 221.319097 166.290794 
L 221.464341 166.171692 
L 221.722554 166.112141 
L 221.867799 165.993039 
L 221.900075 165.993039 
L 222.029182 165.754836 
L 222.077596 165.695285 
L 222.158288 165.516633 
L 222.222841 165.576184 
L 222.739267 165.516633 
L 222.900649 165.33798 
L 223.013618 165.278429 
L 223.158862 165.099777 
L 223.175001 165.159328 
L 223.239554 165.040226 
L 223.255692 165.099777 
L 223.449352 164.802023 
L 223.626873 164.742472 
L 223.852809 164.325616 
L 223.981915 164.266065 
L 224.046468 164.146963 
L 224.094883 164.206514 
L 224.272405 164.444718 
L 224.320819 164.385167 
L 224.385373 164.325616 
L 224.433788 164.385167 
L 224.514479 164.504268 
L 224.562894 164.444718 
L 224.692 164.504268 
L 224.853383 164.682921 
L 225.127734 164.62337 
L 225.256841 164.563819 
L 225.289117 164.62337 
L 225.305255 164.682921 
L 225.35367 164.563819 
L 225.385947 164.563819 
L 225.54733 164.62337 
L 225.692575 164.742472 
L 225.740989 164.682921 
L 225.886234 164.563819 
L 226.063755 164.504268 
L 226.338106 163.90876 
L 226.547904 163.968311 
L 226.580181 164.027862 
L 226.628596 163.90876 
L 226.644734 163.90876 
L 226.725425 163.849209 
L 226.87067 163.730108 
L 226.886808 163.789658 
L 226.9675 163.670557 
L 226.983638 163.730108 
L 227.06433 163.789658 
L 227.096606 163.849209 
L 227.161159 163.730108 
L 227.403234 163.730108 
L 227.53234 163.491904 
L 227.661447 163.432353 
L 227.677585 163.372803 
L 227.758276 163.432353 
L 227.855106 163.551455 
L 227.887383 163.491904 
L 228.048766 163.432353 
L 228.097181 163.372803 
L 228.161734 163.432353 
L 228.419946 163.372803 
L 228.597468 163.134599 
L 228.823404 163.075048 
L 228.871819 162.955947 
L 228.936372 163.075048 
L 229.081617 163.015498 
L 229.259138 162.777294 
L 229.307553 162.717743 
L 229.468936 162.539091 
L 229.630319 162.598642 
L 229.646457 162.658193 
L 229.71101 162.539091 
L 229.727148 162.539091 
L 230.082191 162.47954 
L 230.098329 162.419989 
L 230.162882 162.539091 
L 230.179021 162.539091 
L 230.905244 162.47954 
L 231.195733 161.824481 
L 231.22801 161.76493 
L 231.421669 161.467176 
L 231.453946 161.407625 
L 231.954233 159.978405 
L 231.970371 160.037956 
L 232.034925 159.859303 
L 232.164031 158.549185 
L 232.180169 156.345804 
L 232.244722 71.902719 
L 232.309276 111.444474 
L 232.470659 162.360438 
L 232.535212 162.836845 
L 232.599765 162.717743 
L 232.74501 162.539091 
L 233.051637 164.087413 
L 233.551924 167.064954 
L 233.584201 167.124505 
L 233.826275 168.136869 
L 234.520222 170.2807 
L 234.584775 170.34025 
L 234.794573 170.697555 
L 234.842988 170.757106 
L 235.036647 171.05486 
L 235.101201 171.114411 
L 235.262584 171.293064 
L 235.359413 171.352615 
L 235.520796 171.531267 
L 235.601488 171.590818 
L 235.746732 171.70992 
L 235.908115 171.76947 
L 236.037222 171.829021 
L 236.117913 171.888572 
L 236.263158 172.067225 
L 236.279296 172.007674 
L 236.359988 172.126775 
L 236.521371 172.305428 
L 236.876413 172.245877 
L 237.005519 172.126775 
L 237.070073 172.245877 
L 237.118488 172.186326 
L 237.247594 172.126775 
L 237.392839 172.067225 
L 237.538083 171.948123 
L 237.57036 172.007674 
L 237.634913 171.948123 
L 237.812434 171.70992 
L 237.860849 171.650369 
L 238.006094 171.531267 
L 238.167477 171.471716 
L 238.312721 171.352615 
L 238.474104 171.293064 
L 238.619349 171.173962 
L 238.829147 171.114411 
L 238.974392 170.99531 
L 239.103498 170.935759 
L 239.264881 170.757106 
L 239.329434 170.697555 
L 239.490817 170.518903 
L 239.732891 170.459352 
L 239.861998 170.399801 
L 240.152487 170.34025 
L 240.281593 170.2807 
L 240.378423 170.34025 
L 240.394561 170.2807 
L 240.572083 170.221149 
L 240.701189 170.161598 
L 240.959402 170.102047 
L 241.104646 169.982945 
L 241.459689 169.923395 
L 241.604934 169.804293 
L 241.717902 169.744742 
L 241.879285 169.56609 
L 242.169774 169.56609 
L 242.363433 178.260511 
L 242.799167 185.466163 
L 243.234901 190.28978 
L 243.654497 193.80328 
L 243.783603 194.696542 
L 244.396859 198.448245 
L 244.638933 199.758363 
L 244.961699 201.366236 
L 246.494837 206.606709 
L 246.55939 206.66626 
L 246.946709 207.678624 
L 246.978986 207.738175 
L 247.237199 208.274133 
L 247.269475 208.333683 
L 247.527688 208.869641 
L 247.592241 208.929192 
L 247.834316 209.405598 
L 247.850454 209.405598 
L 247.995699 209.762903 
L 248.011837 209.703353 
L 248.060252 209.822454 
L 248.092528 209.822454 
L 248.302326 210.179759 
L 248.366879 210.23931 
L 248.576677 210.596615 
L 248.657369 210.656166 
L 248.83489 210.894369 
L 248.996273 210.95392 
L 249.173794 211.192123 
L 249.238347 211.251674 
L 249.383592 211.370776 
L 249.544975 211.430327 
L 249.706358 211.608979 
L 249.819326 211.66853 
L 249.980709 211.847183 
L 250.303475 211.906734 
L 250.416443 212.025835 
L 250.432581 211.966284 
L 250.513273 212.025835 
L 250.610102 212.144937 
L 250.642379 212.085386 
L 250.884453 212.144937 
L 251.01356 212.204488 
L 251.255634 212.264039 
L 251.271772 212.323589 
L 251.352464 212.204488 
L 251.497709 212.264039 
L 251.626815 212.323589 
L 252.43373 212.264039 
L 252.562836 212.144937 
L 252.691942 212.264039 
L 252.837187 212.144937 
L 252.934017 212.085386 
L 252.99857 212.025835 
L 253.046985 212.085386 
L 253.611825 212.025835 
L 253.75707 211.906734 
L 254.273495 211.847183 
L 254.41874 211.728081 
L 254.499431 211.787632 
L 254.531708 211.728081 
L 254.773783 211.66853 
L 254.789921 211.608979 
L 254.838336 211.728081 
L 254.886751 211.66853 
L 255.354761 211.608979 
L 255.483867 211.549429 
L 255.709804 211.489878 
L 255.83891 211.430327 
L 256.000293 211.370776 
L 256.129399 211.251674 
L 256.258506 211.311225 
L 256.387612 211.251674 
L 256.50058 211.192123 
L 256.645825 211.073022 
L 256.968591 211.013471 
L 257.097697 210.95392 
L 257.129974 210.894369 
L 257.275218 210.775268 
L 257.517293 210.715717 
L 257.646399 210.656166 
L 258.01758 210.596615 
L 258.146686 210.477513 
L 258.162824 210.537064 
L 258.259654 210.477513 
L 258.372622 207.023565 
L 259.647548 207.083116 
L 259.679824 207.142667 
L 259.760516 207.083116 
L 260.244665 207.023565 
L 260.276941 206.904463 
L 260.357633 207.023565 
L 261.42276 207.083116 
L 261.471175 207.142667 
L 261.51959 207.023565 
L 261.535728 207.083116 
L 262.616994 207.023565 
L 262.649271 206.964014 
L 262.729962 207.023565 
L 263.230249 207.083116 
L 263.359356 207.142667 
L 264.392206 207.202218 
L 264.521313 207.261768 
L 266.377217 207.261768 
L 266.570876 193.922381 
L 267.151855 178.260511 
L 268.265397 159.740202 
L 268.507472 157.775024 
L 268.846376 153.546915 
L 268.910929 71.664516 
L 268.991621 123.831048 
L 269.153004 162.896396 
L 269.18528 163.075048 
L 269.233695 162.836845 
L 269.395078 162.360438 
L 269.653291 162.896396 
L 269.75012 162.955947 
L 269.959918 163.313252 
L 270.072886 163.372803 
L 270.153578 163.491904 
L 270.201993 163.432353 
L 270.282684 163.491904 
L 270.395652 163.611006 
L 270.411791 163.551455 
L 270.573173 163.491904 
L 270.621588 163.432353 
L 270.653865 163.491904 
L 270.782971 163.670557 
L 270.79911 163.730108 
L 270.879801 163.670557 
L 271.025046 163.551455 
L 271.154152 163.611006 
L 271.218705 163.730108 
L 271.26712 163.670557 
L 271.428503 163.432353 
L 271.444641 163.491904 
L 271.525333 163.432353 
L 271.670578 163.313252 
L 271.735131 163.253701 
L 271.944929 162.896396 
L 272.02562 162.836845 
L 272.283833 162.241337 
L 272.299971 162.300888 
L 272.396801 162.241337 
L 272.445216 162.241337 
L 272.59046 161.943583 
L 272.832535 161.467176 
L 272.88095 161.407625 
L 273.139162 160.871668 
L 273.332822 160.931218 
L 273.510343 161.169422 
L 273.558758 161.228973 
L 273.704003 161.348074 
L 273.800833 161.407625 
L 273.865386 161.467176 
L 273.897662 161.348074 
L 273.913801 161.407625 
L 274.059045 161.109871 
L 274.220428 160.931218 
L 274.268843 160.871668 
L 274.543194 160.097507 
L 274.575471 160.157057 
L 274.86596 160.097507 
L 274.946651 159.978405 
L 274.96279 160.037956 
L 275.043481 160.097507 
L 275.075758 160.037956 
L 275.172588 159.978405 
L 275.366247 159.680651 
L 275.495354 159.6211 
L 275.753566 158.966041 
L 275.769705 159.025592 
L 275.834258 158.966041 
L 276.076332 158.489634 
L 276.140885 158.608736 
L 276.173162 158.489634 
L 276.544343 157.47727 
L 276.560481 157.536821 
L 276.608896 157.298617 
L 276.689587 157.239067 
L 277.060768 155.452542 
L 277.286704 153.249161 
L 277.351257 69.81844 
L 277.431949 114.957973 
L 277.593332 160.693015 
L 277.754715 161.586278 
L 278.255002 163.849209 
L 278.480938 164.742472 
L 278.868257 165.873938 
L 278.884396 165.814387 
L 278.916672 165.873938 
L 279.094193 166.112141 
L 279.158747 166.171692 
L 279.336268 166.409895 
L 279.69131 166.350344 
L 279.852693 166.171692 
L 280.014076 166.112141 
L 280.240012 165.695285 
L 280.54664 165.635734 
L 280.675746 165.576184 
L 280.804853 165.516633 
L 280.820991 165.457082 
L 280.885544 165.576184 
L 280.917821 165.516633 
L 281.079204 165.457082 
L 281.20831 165.397531 
L 281.563353 165.33798 
L 281.708597 165.159328 
L 281.837704 165.218879 
L 282.031363 165.159328 
L 282.160469 165.099777 
L 282.225023 165.159328 
L 282.257299 165.040226 
L 282.273438 165.099777 
L 282.418682 164.980675 
L 282.483235 164.921124 
L 282.644618 164.742472 
L 282.693033 164.802023 
L 282.773725 164.861574 
L 282.806001 164.802023 
L 282.951246 164.742472 
L 283.128767 164.504268 
L 283.499948 164.444718 
L 283.645193 164.325616 
L 283.903405 164.266065 
L 284.097065 163.968311 
L 284.161618 163.90876 
L 284.306863 163.670557 
L 284.323001 163.730108 
L 284.371416 163.670557 
L 284.548937 163.432353 
L 284.597352 163.372803 
L 284.758735 163.075048 
L 284.774873 163.134599 
L 284.871703 163.075048 
L 285.033086 162.896396 
L 285.065363 162.836845 
L 285.27516 162.47954 
L 285.307437 162.419989 
L 285.452682 162.300888 
L 285.484958 162.241337 
L 285.662479 161.943583 
L 285.678618 162.003133 
L 285.743171 161.884032 
L 285.759309 161.884032 
L 285.823862 161.824481 
L 286.001384 161.586278 
L 286.082075 161.645828 
L 286.114352 161.586278 
L 286.146628 161.526727 
L 286.308011 161.288523 
L 286.453256 161.407625 
L 286.517809 161.348074 
L 286.550086 161.288523 
L 286.614639 161.407625 
L 286.630777 161.348074 
L 286.969681 161.288523 
L 287.001958 161.228973 
L 287.082649 161.288523 
L 287.486107 161.228973 
L 287.631352 161.109871 
L 287.776596 161.05032 
L 288.083224 160.33571 
L 288.341436 160.276159 
L 288.486681 160.037956 
L 288.502819 160.097507 
L 288.535096 160.157057 
L 288.567373 160.216608 
L 288.631926 160.097507 
L 288.728756 160.037956 
L 288.954692 159.6211 
L 289.003107 159.680651 
L 289.16449 159.918854 
L 289.212904 159.859303 
L 289.261319 159.978405 
L 289.600224 159.918854 
L 289.745468 159.561549 
L 289.793883 159.501998 
L 289.922989 159.442447 
L 289.987543 159.382897 
L 290.342585 158.430083 
L 290.358723 158.489634 
L 290.391 158.370532 
L 290.455553 158.430083 
L 290.568521 158.310982 
L 290.58466 158.370532 
L 290.681489 158.310982 
L 290.859011 158.072778 
L 290.907425 158.013227 
L 291.068808 157.834575 
L 291.133362 157.775024 
L 291.375436 157.298617 
L 291.423851 157.239067 
L 292.053244 154.559279 
L 292.101659 152.475 
L 292.166212 70.056643 
L 292.230766 106.382653 
L 292.408287 160.276159 
L 292.553532 160.752566 
L 292.634223 160.812117 
L 293.392723 163.19415 
L 293.424999 163.253701 
L 293.812319 164.266065 
L 293.876872 164.325616 
L 294.118946 164.802023 
L 294.248053 164.861574 
L 294.377159 164.980675 
L 294.506265 164.921124 
L 294.667648 164.980675 
L 294.829031 165.159328 
L 294.877446 165.218879 
L 295.006552 165.278429 
L 295.11952 165.33798 
L 295.21635 165.397531 
L 295.232489 165.33798 
L 295.490701 165.278429 
L 295.652084 165.099777 
L 295.700499 165.040226 
L 295.87802 164.802023 
L 295.990988 164.742472 
L 296.152371 164.563819 
L 296.216925 164.504268 
L 296.394446 164.266065 
L 296.555829 164.206514 
L 296.571967 164.146963 
L 296.652659 164.206514 
L 296.862456 164.563819 
L 297.29819 164.504268 
L 297.475712 164.266065 
L 297.669371 164.206514 
L 297.879169 163.849209 
L 297.911446 163.789658 
L 298.072828 163.611006 
L 298.121243 163.551455 
L 298.282626 163.372803 
L 298.34718 163.313252 
L 298.556977 162.955947 
L 298.686084 162.896396 
L 298.976573 162.241337 
L 299.057265 162.181786 
L 299.299339 161.705379 
L 299.912594 161.645828 
L 300.090115 161.407625 
L 300.380605 161.348074 
L 300.509711 161.288523 
L 300.606541 161.228973 
L 300.703371 161.169422 
L 300.719509 161.228973 
L 300.8002 161.169422 
L 300.913168 161.109871 
L 300.945445 161.169422 
L 300.977722 161.05032 
L 301.009998 161.05032 
L 301.042275 161.05032 
L 301.171381 160.812117 
L 301.268211 160.752566 
L 301.413456 160.633464 
L 301.478009 160.693015 
L 301.510285 160.633464 
L 301.639392 160.514363 
L 301.703945 160.633464 
L 301.768498 160.573913 
L 301.816913 160.633464 
L 301.946019 160.693015 
L 302.139679 160.752566 
L 302.284924 160.931218 
L 302.397892 160.871668 
L 302.51086 160.931218 
L 302.672243 160.633464 
L 302.688381 160.693015 
L 302.849764 160.633464 
L 303.043423 160.33571 
L 303.091838 160.276159 
L 303.285498 159.978405 
L 303.333913 159.918854 
L 303.511434 159.680651 
L 303.608264 159.6211 
L 303.769647 159.442447 
L 303.963306 159.382897 
L 304.092413 159.144693 
L 304.156966 159.085142 
L 304.30221 158.846939 
L 304.318349 158.90649 
L 304.479732 158.846939 
L 304.608838 158.608736 
L 304.641115 158.668287 
L 304.721806 158.668287 
L 304.818636 158.430083 
L 304.850912 158.489634 
L 304.899327 158.489634 
L 305.06071 157.953677 
L 305.109125 158.013227 
L 305.141402 157.834575 
L 305.15754 157.894126 
L 305.189817 157.834575 
L 305.399615 157.47727 
L 305.464168 157.417719 
L 305.81921 156.524457 
L 305.835348 156.524457 
L 306.093561 155.33344 
L 306.125838 155.273889 
L 306.335636 153.249161 
L 306.351774 152.534551 
L 306.416327 70.354398 
L 306.497019 115.136626 
L 306.658402 159.978405 
L 306.739093 160.454812 
L 306.787508 160.33571 
L 306.965029 160.097507 
L 307.207104 160.157057 
L 307.836497 162.062684 
L 307.868774 162.122235 
L 308.062433 162.419989 
L 308.110848 162.47954 
L 308.304508 163.134599 
L 308.482029 163.372803 
L 308.788657 163.313252 
L 308.885486 163.253701 
L 308.901625 163.313252 
L 309.095284 163.372803 
L 309.22439 163.491904 
L 309.353497 163.432353 
L 309.466465 163.491904 
L 309.579433 163.551455 
L 309.740816 163.372803 
L 310.111997 163.432353 
L 310.257241 163.551455 
L 310.434763 163.491904 
L 310.596146 163.313252 
L 310.967326 163.253701 
L 311.112571 163.134599 
L 311.160986 163.075048 
L 311.419199 162.539091 
L 311.548305 162.47954 
L 311.725826 162.241337 
L 311.919486 162.181786 
L 312.048592 162.122235 
L 312.306805 162.062684 
L 312.484326 161.824481 
L 312.532741 161.76493 
L 312.710262 161.526727 
L 312.903922 161.467176 
L 313.065305 161.288523 
L 313.178273 161.228973 
L 313.323517 161.109871 
L 313.67856 161.05032 
L 313.743113 161.109871 
L 313.856081 160.812117 
L 314.162709 160.752566 
L 314.275677 160.693015 
L 314.404783 160.752566 
L 314.646858 160.276159 
L 314.743687 160.216608 
L 314.856655 160.037956 
L 314.888932 160.097507 
L 314.985762 160.037956 
L 315.19556 159.680651 
L 315.260113 159.6211 
L 315.437634 159.382897 
L 315.631294 159.323346 
L 315.776538 159.204244 
L 315.905645 159.144693 
L 315.937921 159.085142 
L 315.986336 159.204244 
L 316.228411 160.276159 
L 316.260687 160.33571 
L 316.42207 160.752566 
L 316.631868 161.169422 
L 316.777113 161.05032 
L 317.116017 160.990769 
L 317.2774 160.812117 
L 317.422644 160.931218 
L 317.713134 160.871668 
L 317.84224 160.812117 
L 317.874517 160.752566 
L 318.229559 159.859303 
L 318.310251 159.799752 
L 318.826676 158.310982 
L 318.891229 158.251431 
L 319.213995 157.47727 
L 319.310825 157.47727 
L 319.472208 157.060414 
L 319.633591 156.107601 
L 319.859527 153.666016 
L 319.891804 113.588304 
L 319.92408 71.128558 
L 319.988633 99.296104 
L 320.166155 158.549185 
L 320.246846 159.085142 
L 320.295261 158.90649 
L 320.359814 158.966041 
L 320.569612 159.323346 
L 320.58575 159.263795 
L 320.618027 159.382897 
L 320.666442 159.382897 
L 320.843963 159.6211 
L 320.892378 159.680651 
L 321.311974 160.812117 
L 321.360388 160.871668 
L 321.554048 161.169422 
L 321.699293 161.228973 
L 321.844537 161.348074 
L 321.941367 161.407625 
L 322.118888 161.645828 
L 322.29641 161.705379 
L 322.441654 161.884032 
L 322.473931 161.824481 
L 322.538484 161.884032 
L 322.699867 162.062684 
L 322.716005 162.003133 
L 322.780558 162.122235 
L 323.022633 162.598642 
L 323.652026 162.539091 
L 323.764994 162.419989 
L 323.781133 162.47954 
L 323.877963 162.419989 
L 324.023207 162.181786 
L 324.039345 162.241337 
L 324.152314 162.181786 
L 324.168452 162.122235 
L 324.233005 162.300888 
L 324.249143 162.241337 
L 324.265282 162.300888 
L 324.329835 162.181786 
L 324.345973 162.181786 
L 324.475079 162.122235 
L 324.701016 162.181786 
L 324.830122 162.300888 
L 324.894675 162.241337 
L 324.94309 162.300888 
L 325.685452 162.241337 
L 325.846835 162.062684 
L 325.911388 162.003133 
L 326.040494 161.943583 
L 326.185739 161.884032 
L 326.379398 161.586278 
L 326.395537 161.586278 
L 326.540781 161.288523 
L 326.589196 161.228973 
L 326.798994 160.871668 
L 326.9281 160.812117 
L 327.073345 160.633464 
L 327.089483 160.693015 
L 327.12176 160.573913 
L 327.154036 160.573913 
L 327.299281 160.454812 
L 327.412249 160.514363 
L 327.525217 160.454812 
L 327.573632 160.514363 
L 327.605909 160.395261 
L 327.622047 160.454812 
L 327.751153 160.395261 
L 327.78343 160.33571 
L 327.960951 160.097507 
L 328.186887 160.037956 
L 328.428962 159.561549 
L 328.493515 159.561549 
L 328.622621 159.204244 
L 328.63876 159.263795 
L 328.961525 159.323346 
L 328.977664 159.382897 
L 329.00994 159.263795 
L 329.058355 159.263795 
L 329.187462 159.204244 
L 329.252015 159.144693 
L 329.461813 158.787388 
L 329.558642 158.727837 
L 329.687749 158.668287 
L 329.800717 158.727837 
L 329.9621 158.370532 
L 329.978238 158.430083 
L 330.091206 158.668287 
L 330.123483 158.549185 
L 330.204174 158.489634 
L 330.397834 158.132329 
L 330.43011 158.19188 
L 330.478525 158.072778 
L 330.494664 158.072778 
L 330.688323 158.072778 
L 330.833568 157.775024 
L 330.930398 157.775024 
L 331.124057 171.412165 
L 331.495238 181.059401 
L 332.076216 189.753823 
L 332.786301 196.423516 
L 333.528663 201.128032 
L 335.158631 206.725811 
L 335.174769 206.725811 
L 335.336152 207.202218 
L 335.35229 207.202218 
L 335.529812 207.738175 
L 335.997822 209.048293 
L 336.046237 209.107844 
L 336.272173 209.5247 
L 336.30445 209.584251 
L 336.530386 210.001107 
L 336.675631 210.060658 
L 336.86929 210.358412 
L 336.917705 210.417963 
L 337.079088 210.715717 
L 337.095226 210.656166 
L 337.111365 210.656166 
L 337.256609 210.95392 
L 337.337301 211.013471 
L 337.53096 211.311225 
L 337.660067 211.370776 
L 337.853726 211.66853 
L 338.015109 211.728081 
L 338.19263 211.966284 
L 338.321737 212.025835 
L 338.466981 212.144937 
L 338.579949 212.204488 
L 338.709056 212.264039 
L 339.306173 212.204488 
L 339.386864 212.144937 
L 339.419141 212.204488 
L 340.758619 212.144937 
L 340.920002 211.966284 
L 341.065247 211.906734 
L 341.22663 211.728081 
L 341.371874 211.66853 
L 341.517119 211.549429 
L 341.662364 211.489878 
L 341.69464 211.430327 
L 341.775332 211.489878 
L 341.936715 211.430327 
L 342.065821 211.370776 
L 342.194928 211.430327 
L 342.630662 211.370776 
L 342.6468 211.311225 
L 342.679076 211.430327 
L 342.74363 211.370776 
L 343.11481 211.311225 
L 343.163225 211.251674 
L 343.227778 211.311225 
L 343.760342 211.251674 
L 343.792619 211.192123 
L 343.87331 211.251674 
L 343.97014 211.192123 
L 344.050831 211.132573 
L 344.083108 211.192123 
L 344.228353 211.132573 
L 344.357459 211.073022 
L 344.680225 211.013471 
L 344.696363 210.95392 
L 344.793193 211.013471 
L 344.922299 210.95392 
L 345.051406 210.894369 
L 345.083682 210.95392 
L 345.164374 210.894369 
L 345.600108 210.834818 
L 345.616246 210.775268 
L 345.713076 210.834818 
L 345.793767 210.775268 
L 345.922874 210.715717 
L 346.068118 210.656166 
L 346.181086 210.537064 
L 346.197225 210.596615 
L 346.261778 210.537064 
L 346.390884 210.477513 
L 346.568406 210.417963 
L 346.584544 210.358412 
L 346.681374 210.417963 
L 346.971863 210.358412 
L 347.117108 210.23931 
L 347.940161 210.298861 
L 347.972437 210.358412 
L 348.053129 210.298861 
L 349.666958 210.358412 
L 349.683097 210.417963 
L 349.779926 210.358412 
L 351.16782 210.417963 
L 351.264649 210.477513 
L 351.280788 210.417963 
L 353.362628 210.358412 
L 353.394904 210.298861 
L 353.443319 210.417963 
L 353.475596 210.358412 
L 354.702106 210.298861 
L 354.815074 210.23931 
L 354.831213 210.298861 
L 354.879628 210.179759 
L 354.928042 210.23931 
L 355.024872 210.179759 
L 355.041011 210.23931 
L 355.121702 210.23931 
L 355.13784 210.120208 
L 355.3315 183.977392 
L 355.79951 157.47727 
L 355.89634 147.651382 
L 355.944755 68.329669 
L 356.009308 107.990526 
L 356.154553 156.286253 
L 356.170691 156.167152 
L 356.364351 151.700839 
L 356.800085 143.661476 
L 356.864638 70.116194 
L 356.945329 107.156814 
L 357.122851 151.700839 
L 357.284234 152.772754 
L 357.494031 153.130059 
L 357.542446 153.070508 
L 357.590861 153.130059 
L 357.703829 153.368262 
L 357.719968 153.308711 
L 357.865212 153.249161 
L 358.187978 152.475 
L 358.236393 152.415449 
L 358.768957 150.033415 
L 359.043308 147.234526 
L 359.172414 143.065968 
L 359.236967 67.734161 
L 359.30152 97.62868 
L 359.49518 151.879491 
L 359.672701 153.606466 
L 359.898637 154.142423 
L 359.914776 154.082872 
L 360.092297 154.142423 
L 360.140712 154.201974 
L 360.172988 154.082872 
L 360.189127 154.082872 
L 360.25368 154.023321 
L 360.528031 153.427813 
L 360.640999 153.368262 
L 360.834658 152.891856 
L 360.866935 152.951406 
L 360.947627 152.891856 
L 361.092871 152.594101 
L 361.125148 152.653652 
L 361.173563 152.594101 
L 361.383361 152.236796 
L 361.447914 152.177246 
L 361.722265 151.581737 
L 361.786818 151.522186 
L 362.028892 151.04578 
L 362.125722 150.986229 
L 362.43235 150.271619 
L 362.496903 150.212068 
L 363.303818 147.651382 
L 363.352233 147.710933 
L 363.384509 147.53228 
L 363.56203 144.554739 
L 363.626584 66.96 
L 363.707275 104.834331 
L 363.884796 151.105331 
L 364.046179 152.653652 
L 364.143009 152.713203 
L 364.304392 152.891856 
L 364.336669 152.951406 
L 364.352807 153.010957 
L 364.433498 152.951406 
L 364.449637 152.891856 
L 364.530328 153.010957 
L 364.836956 153.070508 
L 364.853094 153.130059 
L 364.885371 153.010957 
L 364.917647 153.010957 
L 365.304966 151.998593 
L 365.595456 151.939042 
L 366.257126 149.914314 
L 366.321679 149.973865 
L 366.370094 150.092966 
L 366.418509 149.914314 
L 366.773551 149.021051 
L 366.805828 149.080602 
L 366.838104 148.90195 
L 366.967211 148.663746 
L 366.999487 148.723297 
L 367.015626 148.782848 
L 367.06404 148.663746 
L 367.080179 148.663746 
L 367.225423 148.544645 
L 367.273838 148.485094 
L 367.45136 147.949136 
L 367.628881 146.877221 
L 367.854817 145.924408 
L 367.887093 145.864857 
L 367.967785 144.792942 
L 368.000062 140.564833 
L 368.064615 67.793712 
L 368.129168 96.259011 
L 368.338966 150.509822 
L 368.516487 151.879491 
L 368.694008 152.177246 
L 368.806976 152.117695 
L 368.952221 152.236796 
L 369.000636 152.117695 
L 369.081327 152.177246 
L 369.194295 152.296347 
L 369.210434 152.236796 
L 369.24271 152.236796 
L 369.323402 152.117695 
L 369.355678 152.177246 
L 369.387955 152.355898 
L 369.484785 152.236796 
L 369.581614 152.177246 
L 369.839827 151.641288 
L 369.952795 151.581737 
L 370.501497 149.973865 
L 370.533774 149.914314 
L 370.695157 149.378356 
L 370.808125 149.437907 
L 371.114753 148.723297 
L 371.163167 148.663746 
L 371.308412 148.485094 
L 371.32455 148.544645 
L 371.389104 148.365992 
L 371.405242 148.425543 
L 371.534348 148.485094 
L 371.679593 148.782848 
L 371.744146 148.663746 
L 371.808699 148.723297 
L 371.857114 148.663746 
L 371.970082 148.485094 
L 372.002359 148.544645 
L 372.08305 148.485094 
L 372.551061 147.115425 
L 372.567199 147.174975 
L 372.615614 146.996323 
L 372.825412 145.924408 
L 372.922242 143.423273 
L 372.986795 67.436407 
L 373.067486 99.832061 
L 373.261146 149.140153 
L 373.454805 150.450271 
L 373.69688 150.926678 
L 373.858263 150.867127 
L 373.955092 150.748025 
L 373.971231 150.807576 
L 374.051922 150.926678 
L 374.084199 150.867127 
L 374.374688 150.212068 
L 374.45538 150.152517 
L 374.616763 149.914314 
L 374.713592 149.973865 
L 374.729731 149.914314 
L 374.842699 149.854763 
L 375.068635 149.437907 
L 375.100911 149.497458 
L 375.197741 149.61656 
L 375.230018 149.557009 
L 375.262294 149.497458 
L 375.617337 148.604195 
L 375.665752 148.544645 
L 375.827135 148.068238 
L 375.859411 148.127789 
L 375.891688 148.18734 
L 375.940103 148.008687 
L 376.149901 147.591831 
L 376.182177 147.651382 
L 376.262869 147.591831 
L 376.295145 147.53228 
L 376.698603 146.460365 
L 376.779294 146.519916 
L 376.795432 146.460365 
L 377.118198 144.852493 
L 377.182752 143.601925 
L 377.215028 121.984972 
L 377.263443 67.912813 
L 377.327996 92.269105 
L 377.537794 147.710933 
L 377.683039 149.259255 
L 377.699177 149.199704 
L 377.95739 149.735661 
L 378.054219 149.795212 
L 378.215602 149.973865 
L 378.393124 149.914314 
L 378.538368 149.795212 
L 378.586783 149.735661 
L 378.877273 149.080602 
L 378.941826 149.021051 
L 378.990241 148.9615 
L 379.022517 149.080602 
L 379.038655 149.080602 
L 379.167762 149.021051 
L 379.474389 148.306441 
L 379.522804 148.24689 
L 379.668049 148.127789 
L 379.74874 148.068238 
L 379.990815 147.591831 
L 380.023091 147.53228 
L 380.216751 146.75812 
L 380.232889 146.81767 
L 380.297442 146.639018 
L 380.426549 146.579467 
L 380.491102 146.639018 
L 380.571794 146.75812 
L 380.620208 146.698569 
L 380.684762 146.639018 
L 380.846145 146.400815 
L 380.862283 146.460365 
L 380.910698 146.222162 
L 380.959113 146.162611 
L 381.394847 144.137883 
L 381.540091 141.874951 
L 381.572368 118.590574 
L 381.620783 67.67461 
L 381.685336 91.673597 
L 381.911272 148.485094 
L 382.104932 149.854763 
L 382.185623 149.914314 
L 382.395421 150.271619 
L 382.459974 150.33117 
L 382.605219 150.450271 
L 382.702048 150.39072 
L 382.944123 149.914314 
L 383.121644 149.973865 
L 383.234612 150.212068 
L 383.283027 150.152517 
L 383.379857 150.212068 
L 383.395995 150.271619 
L 383.44441 150.152517 
L 383.460548 150.152517 
L 383.670346 149.795212 
L 383.702623 149.735661 
L 383.912421 149.378356 
L 383.944697 149.318805 
L 384.089942 149.080602 
L 384.10608 149.140153 
L 384.154495 149.080602 
L 384.348155 148.782848 
L 384.380431 148.723297 
L 384.477261 148.544645 
L 384.525676 148.604195 
L 384.735474 148.544645 
L 384.896857 148.24689 
L 384.912995 148.306441 
L 384.993686 148.24689 
L 385.042101 148.18734 
L 385.106654 148.24689 
L 385.171208 148.18734 
L 385.300314 147.949136 
L 385.332591 148.008687 
L 385.364867 148.127789 
L 385.42942 148.008687 
L 386.123367 145.090696 
L 386.317027 141.755849 
L 386.38158 68.925178 
L 386.47841 104.238823 
L 386.672069 147.47273 
L 386.833452 148.604195 
L 386.84959 148.544645 
L 386.898005 148.782848 
L 387.107803 149.259255 
L 387.123941 149.199704 
L 387.172356 149.259255 
L 387.349877 149.497458 
L 387.527399 149.259255 
L 387.688782 149.199704 
L 387.882441 148.90195 
L 387.979271 148.90195 
L 388.140654 149.378356 
L 388.318175 149.140153 
L 388.415005 149.199704 
L 388.431143 149.140153 
L 388.527973 149.080602 
L 388.657079 149.021051 
L 388.689356 149.080602 
L 388.737771 148.9615 
L 388.753909 148.9615 
L 389.012122 148.425543 
L 389.076675 148.425543 
L 389.238058 148.008687 
L 390.077249 144.495188 
L 390.319324 140.981688 
L 390.3516 111.980432 
L 390.400015 68.627423 
L 390.464568 92.62641 
L 390.674366 146.162611 
L 390.835749 147.651382 
L 390.868026 147.710933 
L 391.142377 148.306441 
L 391.158515 148.306441 
L 391.174653 148.18734 
L 391.271483 148.24689 
L 391.352175 148.127789 
L 391.384451 148.24689 
L 391.497419 148.18734 
L 391.513558 148.127789 
L 391.594249 148.24689 
L 391.739494 148.18734 
L 391.96543 147.770484 
L 392.078398 147.710933 
L 392.417302 146.877221 
L 392.449579 146.877221 
L 392.610962 146.400815 
L 392.659377 146.341264 
L 392.869174 145.567103 
L 392.885313 145.567103 
L 393.175802 144.197434 
L 393.627674 142.113154 
L 393.724504 140.267078 
L 393.756781 117.816413 
L 393.805196 69.044279 
L 393.869749 88.457852 
L 394.111823 145.686204 
L 394.305483 147.53228 
L 394.499142 148.24689 
L 394.547557 148.306441 
L 394.757355 148.663746 
L 394.967153 148.723297 
L 395.015568 148.842399 
L 395.080121 148.782848 
L 395.386749 148.068238 
L 395.419025 148.008687 
L 395.56427 147.889585 
L 395.612685 147.889585 
L 395.757929 147.591831 
L 395.806344 147.53228 
L 395.967727 147.174975 
L 396.000004 147.234526 
L 396.096833 147.174975 
L 396.290493 146.519916 
L 396.32277 146.460365 
L 396.726227 145.38845 
L 396.758504 145.328899 
L 397.048993 144.435637 
L 397.097408 144.495188 
L 397.129684 144.554739 
L 397.161961 144.435637 
L 397.517003 141.338993 
L 397.565418 137.110884 
L 397.629972 69.222932 
L 397.710663 95.127545 
L 397.936599 145.269349 
L 398.130259 147.115425 
L 398.162535 147.174975 
L 398.501439 148.008687 
L 398.582131 148.068238 
L 398.727376 148.18734 
L 398.904897 148.127789 
L 399.050142 148.008687 
L 399.211524 147.949136 
L 399.453599 147.47273 
L 399.582705 147.413179 
L 399.744088 147.174975 
L 399.857056 147.234526 
L 399.889333 147.174975 
L 399.953886 147.294077 
L 400.018439 147.234526 
L 400.438035 146.10306 
L 400.470311 146.04351 
L 401.196535 143.006417 
L 401.406333 139.909773 
L 401.487024 69.222932 
L 401.583854 103.583764 
L 401.777513 144.197434 
L 401.955035 146.10306 
L 402.229386 147.353628 
L 402.358492 147.53228 
L 402.37463 147.47273 
L 402.439183 147.413179 
L 402.519875 147.353628 
L 402.552152 147.413179 
L 402.842641 147.353628 
L 403.068577 146.936772 
L 403.100854 146.877221 
L 403.294513 146.579467 
L 403.342928 146.519916 
L 403.455896 146.400815 
L 403.472034 146.460365 
L 403.923907 146.400815 
L 404.053013 146.341264 
L 404.165981 146.400815 
L 404.214396 146.460365 
L 404.278949 146.400815 
L 404.359641 146.460365 
L 404.424194 146.519916 
L 404.472609 146.460365 
L 404.521024 146.400815 
L 404.730821 145.805306 
L 404.779236 145.864857 
L 404.843789 145.924408 
L 404.892204 145.864857 
L 405.102002 145.805306 
L 405.344077 145.328899 
L 405.392492 145.269349 
L 405.50546 144.912044 
L 405.537736 144.971594 
L 405.602289 144.912044 
L 406.005747 143.006417 
L 406.215545 140.743485 
L 406.296236 137.349088 
L 406.376928 69.997093 
L 406.441481 93.221918 
L 406.667417 144.733391 
L 406.861076 146.877221 
L 407.280672 148.008687 
L 407.442055 147.949136 
L 407.571161 147.710933 
L 407.813236 147.770484 
L 407.893927 147.830035 
L 407.926204 147.770484 
L 408.119863 147.830035 
L 408.200555 147.949136 
L 408.24897 147.889585 
L 408.3458 147.830035 
L 408.523321 147.591831 
L 408.604012 147.591831 
L 408.797672 146.936772 
L 409.104299 146.222162 
L 409.152714 146.162611 
L 409.749831 144.376086 
L 409.798246 144.316535 
L 409.927352 143.899679 
L 409.975767 144.078332 
L 410.395363 144.018781 
L 410.944065 141.577197 
L 411.105448 136.634477 
L 411.186139 69.997093 
L 411.250693 92.209554 
L 411.476629 144.614289 
L 411.65415 146.698569 
L 411.896224 147.710933 
L 412.057607 147.889585 
L 412.138299 147.830035 
L 412.267405 147.710933 
L 412.299682 147.770484 
L 412.348097 147.651382 
L 412.364235 147.651382 
L 412.525618 147.591831 
L 412.590171 147.53228 
L 412.622448 147.651382 
L 412.703139 147.889585 
L 412.767692 147.830035 
L 412.97749 147.47273 
L 413.058182 147.413179 
L 413.203426 147.294077 
L 413.300256 147.234526 
L 413.477777 146.75812 
L 413.510054 146.877221 
L 413.752128 146.81767 
L 414.252416 145.38845 
L 414.316969 145.328899 
L 414.462213 145.209798 
L 414.510628 145.150247 
L 414.801118 144.495188 
L 414.833394 144.435637 
L 415.382096 139.67157 
L 415.414373 133.776037 
L 415.478926 69.81844 
L 415.543479 89.410665 
L 415.785554 144.733391 
L 415.979213 146.639018 
L 416.189011 147.413179 
L 416.414947 147.830035 
L 416.544053 147.770484 
L 416.76999 147.770484 
L 416.931373 147.353628 
L 416.963649 147.413179 
L 417.012064 147.234526 
L 417.060479 147.174975 
L 417.286415 146.75812 
L 417.399383 146.698569 
L 417.818979 145.567103 
L 417.851255 145.507552 
L 418.109468 144.971594 
L 418.238574 144.912044 
L 418.56134 144.137883 
L 418.577479 144.197434 
L 418.625894 144.078332 
L 418.642032 144.078332 
L 419.126181 141.874951 
L 419.335979 139.135613 
L 419.368255 127.999606 
L 419.432808 69.937542 
L 419.497362 90.006173 
L 419.787851 161.109871 
L 420.046064 175.28297 
L 420.433383 185.704366 
L 420.83684 192.195407 
L 421.224159 196.304415 
L 421.627616 199.579711 
L 421.788999 200.592075 
L 422.224733 203.033659 
L 422.757297 205.415692 
L 422.950957 206.070752 
L 423.67718 208.333683 
L 423.709457 208.393234 
L 424.145191 209.584251 
L 424.177467 209.643802 
L 424.451818 210.23931 
L 424.500233 210.298861 
L 424.758446 210.834818 
L 424.855276 210.894369 
L 425.129627 211.489878 
L 425.145765 211.430327 
L 425.178041 211.549429 
L 425.210318 211.549429 
L 425.436254 211.966284 
L 425.549222 212.025835 
L 425.726743 212.264039 
L 425.839712 212.323589 
L 426.017233 212.561793 
L 426.097924 212.621344 
L 426.259307 212.799996 
L 426.32386 212.859547 
L 426.501382 213.09775 
L 426.51752 213.038199 
L 426.582073 213.157301 
L 426.598211 213.157301 
L 426.727318 213.216852 
L 426.824148 213.276403 
L 426.98553 213.455055 
L 427.033945 213.514606 
L 427.163052 213.574157 
L 427.243743 213.633708 
L 427.388988 213.81236 
L 427.421264 213.752809 
L 427.501956 213.81236 
L 428.131349 213.871911 
L 428.276594 213.991013 
L 429.148062 214.050564 
L 429.1642 214.110114 
L 429.244892 214.050564 
L 429.341722 213.991013 
L 429.35786 214.050564 
L 429.729041 214.110114 
L 429.793594 214.169665 
L 429.842009 214.110114 
L 430.697338 214.050564 
L 430.826445 213.991013 
L 431.310594 213.931462 
L 431.375147 213.871911 
L 431.423562 213.931462 
L 431.4397 213.991013 
L 431.520391 213.931462 
L 431.649498 213.871911 
L 432.036817 213.81236 
L 432.165923 213.752809 
L 432.633934 213.693259 
L 432.76304 213.633708 
L 433.392434 213.574157 
L 433.52154 213.514606 
L 433.795891 213.455055 
L 433.860444 213.335954 
L 433.908859 213.395504 
L 433.989551 213.455055 
L 434.021827 213.395504 
L 434.74805 213.335954 
L 434.877157 213.276403 
L 435.232199 213.216852 
L 435.377444 213.09775 
L 435.458135 213.157301 
L 435.490412 213.09775 
L 435.780901 213.09775 
L 435.780901 213.09775 
" style="fill:none;stroke:#1f77b4;stroke-linecap:square;stroke-width:1.5;"/>
   </g>
   <g id="line2d_13">
    <path clip-path="url(#pb50bf09514)" d="M 80.754545 207.726265 
L 81.254833 207.836029 
L 81.496907 207.884813 
L 82.303822 207.994577 
L 82.51362 208.018969 
L 84.208141 208.128733 
L 84.4018 208.140929 
L 88.904385 208.201909 
L 89.630608 195.652214 
L 90.27614 187.944335 
L 90.986225 182.053661 
L 91.664033 178.199722 
L 92.180458 176.06542 
L 93.245586 173.187161 
L 94.665756 171.2358 
L 95.924543 170.418667 
L 96.215032 170.308903 
L 96.537798 170.199139 
L 96.973532 170.089375 
L 97.231745 170.028395 
L 98.022521 169.91863 
L 98.232319 169.894238 
L 106.914722 170.004003 
L 107.108382 170.016199 
L 110.255349 170.125963 
L 110.449009 170.138159 
L 113.854189 170.247923 
L 114.047848 170.260119 
L 117.82421 170.369883 
L 118.017869 170.382079 
L 122.262241 170.491843 
L 122.4559 170.504039 
L 127.28125 170.613803 
L 127.47491 170.625999 
L 133.05876 170.735763 
L 133.25242 170.747959 
L 139.885259 170.857723 
L 140.078919 170.869919 
L 148.212619 170.979683 
L 148.406279 170.991879 
L 153.457565 171.052859 
L 154.183789 183.614751 
L 154.942288 192.420271 
L 155.68465 198.176788 
L 156.44315 202.103904 
L 157.346894 205.091926 
L 158.315192 207.018896 
L 159.041415 207.921401 
L 160.60683 208.970258 
L 160.913458 209.080022 
L 161.220085 209.17759 
L 161.671958 209.287354 
L 161.93017 209.348334 
L 162.801638 209.458098 
L 163.011436 209.48249 
L 169.515169 209.470294 
L 169.547446 207.726265 
L 169.628137 207.750657 
L 170.160701 207.860421 
L 170.402775 207.909205 
L 171.322658 208.018969 
L 171.532456 208.043361 
L 173.711126 208.153125 
L 173.904785 208.165321 
L 177.681146 208.201909 
L 178.40737 191.468982 
L 179.06904 180.980413 
L 179.795263 173.053005 
L 180.440795 168.186797 
L 181.183156 164.345053 
L 182.086901 161.344835 
L 183.03906 159.454453 
L 183.765284 158.551948 
L 185.282283 157.539679 
L 185.588911 157.429915 
L 185.895539 157.332347 
L 186.395826 157.222583 
L 186.6379 157.173799 
L 187.654613 157.064035 
L 187.848272 157.051839 
L 193.496676 157.161603 
L 193.690335 157.173799 
L 195.949697 157.283563 
L 196.143356 157.295759 
L 198.434994 157.405523 
L 198.628654 157.417719 
L 201.065536 157.527483 
L 201.259196 157.539679 
L 203.889738 157.649443 
L 204.083397 157.661639 
L 206.939876 157.771403 
L 207.133535 157.783599 
L 210.232088 157.893364 
L 210.425747 157.90556 
L 213.863204 158.015324 
L 214.056864 158.02752 
L 217.865501 158.137284 
L 218.059161 158.14948 
L 222.335809 158.259244 
L 222.529469 158.27144 
L 227.403234 158.381204 
L 227.596893 158.3934 
L 233.261435 158.503164 
L 233.455095 158.51536 
L 240.184764 158.625124 
L 240.378423 158.63732 
L 242.234327 158.661712 
L 242.895997 174.175038 
L 243.557667 185.041684 
L 244.251614 192.969091 
L 244.993976 198.725609 
L 245.752475 202.640528 
L 246.301178 204.628478 
L 247.043539 206.51886 
L 247.592241 207.494541 
L 248.350741 208.44583 
L 249.851602 209.445902 
L 250.15823 209.555667 
L 250.480996 209.665431 
L 250.981283 209.775195 
L 251.223358 209.823979 
L 252.110964 209.933743 
L 252.320762 209.958135 
L 258.291931 209.897155 
L 258.324207 207.726265 
L 258.404899 207.750657 
L 258.937463 207.860421 
L 259.179537 207.909205 
L 260.09942 208.018969 
L 260.309218 208.043361 
L 262.487888 208.153125 
L 262.681547 208.165321 
L 266.457908 208.201909 
L 267.135717 184.480668 
L 267.829663 167.68676 
L 268.539748 155.905414 
L 269.217557 148.160947 
L 269.653291 143.453286 
L 269.685567 142.441017 
L 269.798535 172.528577 
L 269.814674 172.528577 
L 269.94378 178.455838 
L 270.60545 204.40895 
L 271.26712 221.934618 
L 271.864237 232.654912 
L 272.509769 240.350595 
L 273.042333 244.52163 
L 273.63945 247.473065 
L 274.123598 248.875606 
L 274.527056 249.534191 
L 275.124173 249.851287 
L 275.495354 249.741523 
L 276.1893 249.082939 
L 277.270566 247.253537 
L 279.901108 241.021375 
L 280.708023 238.935857 
L 281.547214 236.764967 
L 282.354129 234.679449 
L 283.338565 232.179267 
L 284.032512 230.435238 
L 285.501097 226.837414 
L 286.065937 225.483657 
L 291.649787 213.09251 
L 292.020968 212.336357 
L 293.102234 210.153271 
L 293.537968 209.29955 
L 294.377159 207.665285 
L 294.893584 206.689604 
L 295.587531 205.384631 
L 296.184648 204.28699 
L 296.781765 203.201545 
L 297.507988 201.908768 
L 298.040552 200.969675 
L 298.992711 199.335409 
L 299.460722 198.542669 
L 300.945445 196.103466 
L 301.365041 195.42049 
L 307.287795 186.663754 
L 307.513731 186.358853 
L 308.643412 184.846548 
L 308.885486 184.529452 
L 309.789231 183.358635 
L 310.063582 183.017146 
L 310.870497 181.992681 
L 311.160986 181.638997 
L 311.854933 180.785276 
L 312.16156 180.419396 
L 312.774815 179.687635 
L 313.097581 179.309559 
L 313.662422 178.650974 
L 314.017464 178.248506 
L 314.550028 177.638705 
L 314.921209 177.224041 
L 315.421496 176.663025 
L 315.841092 176.211772 
L 316.309102 175.69954 
L 316.744836 175.236091 
L 317.196708 174.748251 
L 317.696995 174.236018 
L 318.116591 173.796962 
L 318.633017 173.272534 
L 319.036474 172.857869 
L 319.633591 172.272461 
L 320.004772 171.90658 
L 320.650303 171.284584 
L 321.021484 170.918703 
L 321.796122 170.199139 
L 322.135027 169.882042 
L 323.006495 169.089302 
L 323.32926 168.796597 
L 324.394388 167.857505 
L 324.701016 167.589192 
L 326.201877 166.320807 
L 326.492366 166.076887 
L 331.011089 162.564436 
L 331.688897 185.797837 
L 332.382844 202.103904 
L 333.076791 213.177882 
L 333.754599 220.507684 
L 334.513099 225.910517 
L 335.271599 229.325401 
L 335.788024 230.862098 
L 336.546524 232.313423 
L 337.079088 232.923224 
L 337.902141 233.411064 
L 339.919428 233.3013 
L 340.27447 233.167144 
L 340.56496 233.05738 
L 341.000694 232.862244 
L 341.242768 232.75248 
L 341.79147 232.471971 
L 342.017406 232.362207 
L 342.662938 232.008523 
L 342.872736 231.898759 
L 343.598959 231.484094 
L 343.808757 231.37433 
L 344.567257 230.935274 
L 344.760916 230.82551 
L 345.48714 230.410846 
L 345.696938 230.301081 
L 346.439299 229.874221 
L 346.649097 229.764457 
L 347.068693 229.532733 
L 347.100969 207.726265 
L 347.181661 207.750657 
L 347.714225 207.860421 
L 347.956299 207.909205 
L 348.876182 208.018969 
L 349.08598 208.043361 
L 351.264649 208.153125 
L 351.458309 208.165321 
L 355.23467 208.201909 
L 355.912478 160.759426 
L 356.251383 141.843413 
L 356.364351 172.528577 
L 356.380489 172.528577 
L 356.913053 176.37032 
L 357.397202 178.650974 
L 357.865212 180.016928 
L 358.591435 180.919432 
L 359.285382 180.809668 
L 359.850222 180.248652 
L 360.866935 178.516818 
L 363.045605 173.309122 
L 364.030041 170.686979 
L 364.675573 168.955146 
L 365.756839 166.040299 
L 366.434647 164.235289 
L 367.35453 161.808283 
L 368.209859 159.600805 
L 368.968359 157.661639 
L 370.259423 154.466284 
L 370.85654 153.014959 
L 373.196593 147.441382 
L 374.035784 144.563123 
L 374.16489 143.050818 
L 374.181029 142.575174 
L 374.293997 172.528577 
L 374.310135 172.528577 
L 374.439241 179.090031 
L 375.084773 207.055484 
L 375.698028 225.032405 
L 376.327422 237.289396 
L 376.940677 244.911903 
L 377.553932 249.485407 
L 378.070358 251.619709 
L 378.457677 252.449038 
L 378.764304 252.729546 
L 379.248453 252.619782 
L 380.200613 250.985516 
L 381.830581 245.704643 
L 383.379857 239.423698 
L 385.52625 230.203513 
L 386.397718 226.48373 
L 387.946994 219.97106 
L 389.463994 213.812074 
L 390.3516 210.299623 
L 395.015568 193.103248 
L 395.903174 190.066441 
L 396.88761 186.773518 
L 398.646684 181.102373 
L 399.308354 179.029051 
L 403.42362 166.942804 
L 403.98846 165.39391 
L 405.102002 162.381496 
L 405.844364 160.430134 
L 406.651279 158.344616 
L 407.748683 155.588317 
L 408.394214 153.99064 
L 410.79882 148.270711 
L 412.009193 144.307007 
L 412.122161 142.52639 
L 412.235129 172.528577 
L 412.251267 172.528577 
L 412.380373 179.090031 
L 413.025905 207.055484 
L 413.671437 225.788557 
L 414.268554 237.2772 
L 414.881809 244.899707 
L 415.398235 248.912194 
L 415.882383 251.205044 
L 416.414947 252.461234 
L 416.705436 252.71735 
L 417.189585 252.607586 
L 417.512351 252.229509 
L 418.012638 251.278221 
L 418.65817 249.546387 
L 419.578053 246.412012 
L 419.787851 245.631467 
L 420.449521 289.524911 
L 421.095053 318.783142 
L 421.740585 338.589464 
L 422.35384 351.200139 
L 422.950957 359.322683 
L 423.548074 364.481596 
L 424.177467 367.61597 
L 424.564786 368.677023 
L 425.113488 369.323412 
L 425.66219 369.213648 
L 426.049509 368.786787 
L 426.678903 367.640362 
L 427.582647 365.32312 
L 429.212615 360.042248 
L 431.520391 351.74896 
L 432.117508 349.590266 
L 434.08638 342.57756 
L 434.893295 339.784673 
L 435.845455 336.55273 
L 435.845455 336.55273 
" style="fill:none;stroke:#ff0000;stroke-linecap:square;stroke-width:1.5;"/>
   </g>
   <g id="patch_3">
    <path d="M 63 384.48 
L 63 51.84 
" style="fill:none;stroke:#000000;stroke-linecap:square;stroke-linejoin:miter;stroke-width:0.8;"/>
   </g>
   <g id="patch_4">
    <path d="M 453.6 384.48 
L 453.6 51.84 
" style="fill:none;stroke:#000000;stroke-linecap:square;stroke-linejoin:miter;stroke-width:0.8;"/>
   </g>
   <g id="patch_5">
    <path d="M 63 384.48 
L 453.6 384.48 
" style="fill:none;stroke:#000000;stroke-linecap:square;stroke-linejoin:miter;stroke-width:0.8;"/>
   </g>
   <g id="patch_6">
    <path d="M 63 51.84 
L 453.6 51.84 
" style="fill:none;stroke:#000000;stroke-linecap:square;stroke-linejoin:miter;stroke-width:0.8;"/>
   </g>
   <g id="legend_1">
    <g id="patch_7">
     <path d="M 70 89.19625 
L 133.139062 89.19625 
Q 135.139062 89.19625 135.139062 87.19625 
L 135.139062 58.84 
Q 135.139062 56.84 133.139062 56.84 
L 70 56.84 
Q 68 56.84 68 58.84 
L 68 87.19625 
Q 68 89.19625 70 89.19625 
z
" style="fill:#ffffff;opacity:0.8;stroke:#cccccc;stroke-linejoin:miter;"/>
    </g>
    <g id="line2d_14">
     <path d="M 72 64.938437 
L 92 64.938437 
" style="fill:none;stroke:#1f77b4;stroke-linecap:square;stroke-width:1.5;"/>
    </g>
    <g id="line2d_15"/>
    <g id="text_14">
     <!-- target -->
     <defs>
      <path d="M 41.109375 46.296875 
Q 39.59375 47.171875 37.8125 47.578125 
Q 36.03125 48 33.890625 48 
Q 26.265625 48 22.1875 43.046875 
Q 18.109375 38.09375 18.109375 28.8125 
L 18.109375 0 
L 9.078125 0 
L 9.078125 54.6875 
L 18.109375 54.6875 
L 18.109375 46.1875 
Q 20.953125 51.171875 25.484375 53.578125 
Q 30.03125 56 36.53125 56 
Q 37.453125 56 38.578125 55.875 
Q 39.703125 55.765625 41.0625 55.515625 
z
" id="DejaVuSans-114"/>
     </defs>
     <g transform="translate(100 68.438437)scale(0.1 -0.1)">
      <use xlink:href="#DejaVuSans-116"/>
      <use x="39.208984" xlink:href="#DejaVuSans-97"/>
      <use x="100.488281" xlink:href="#DejaVuSans-114"/>
      <use x="141.585938" xlink:href="#DejaVuSans-103"/>
      <use x="205.0625" xlink:href="#DejaVuSans-101"/>
      <use x="266.585938" xlink:href="#DejaVuSans-116"/>
     </g>
    </g>
    <g id="line2d_16">
     <path d="M 72 79.616562 
L 92 79.616562 
" style="fill:none;stroke:#ff0000;stroke-linecap:square;stroke-width:1.5;"/>
    </g>
    <g id="line2d_17"/>
    <g id="text_15">
     <!-- model -->
     <defs>
      <path d="M 45.40625 46.390625 
L 45.40625 75.984375 
L 54.390625 75.984375 
L 54.390625 0 
L 45.40625 0 
L 45.40625 8.203125 
Q 42.578125 3.328125 38.25 0.953125 
Q 33.9375 -1.421875 27.875 -1.421875 
Q 17.96875 -1.421875 11.734375 6.484375 
Q 5.515625 14.40625 5.515625 27.296875 
Q 5.515625 40.1875 11.734375 48.09375 
Q 17.96875 56 27.875 56 
Q 33.9375 56 38.25 53.625 
Q 42.578125 51.265625 45.40625 46.390625 
z
M 14.796875 27.296875 
Q 14.796875 17.390625 18.875 11.75 
Q 22.953125 6.109375 30.078125 6.109375 
Q 37.203125 6.109375 41.296875 11.75 
Q 45.40625 17.390625 45.40625 27.296875 
Q 45.40625 37.203125 41.296875 42.84375 
Q 37.203125 48.484375 30.078125 48.484375 
Q 22.953125 48.484375 18.875 42.84375 
Q 14.796875 37.203125 14.796875 27.296875 
z
" id="DejaVuSans-100"/>
     </defs>
     <g transform="translate(100 83.116562)scale(0.1 -0.1)">
      <use xlink:href="#DejaVuSans-109"/>
      <use x="97.412109" xlink:href="#DejaVuSans-111"/>
      <use x="158.59375" xlink:href="#DejaVuSans-100"/>
      <use x="222.070312" xlink:href="#DejaVuSans-101"/>
      <use x="283.59375" xlink:href="#DejaVuSans-108"/>
     </g>
    </g>
   </g>
  </g>
 </g>
 <defs>
  <clipPath id="pb50bf09514">
   <rect height="332.64" width="390.6" x="63" y="51.84"/>
  </clipPath>
 </defs>
</svg>
