<?xml version="1.0" encoding="utf-8" standalone="no"?>
<!DOCTYPE svg PUBLIC "-//W3C//DTD SVG 1.1//EN"
  "http://www.w3.org/Graphics/SVG/1.1/DTD/svg11.dtd">
<!-- Created with matplotlib (http://matplotlib.org/) -->
<svg height="432pt" version="1.1" viewBox="0 0 504 432" width="504pt" xmlns="http://www.w3.org/2000/svg" xmlns:xlink="http://www.w3.org/1999/xlink">
 <defs>
  <style type="text/css">
*{stroke-linecap:butt;stroke-linejoin:round;}
  </style>
 </defs>
 <g id="figure_1">
  <g id="patch_1">
   <path d="M 0 432 
L 504 432 
L 504 0 
L 0 0 
z
" style="fill:#ffffff;"/>
  </g>
  <g id="axes_1">
   <g id="patch_2">
    <path d="M 63 384.48 
L 453.6 384.48 
L 453.6 51.84 
L 63 51.84 
z
" style="fill:#ffffff;"/>
   </g>
   <g id="matplotlib.axis_1">
    <g id="xtick_1">
     <g id="line2d_1">
      <defs>
       <path d="M 0 0 
L 0 3.5 
" id="m19df45625e" style="stroke:#000000;stroke-width:0.8;"/>
      </defs>
      <g>
       <use style="stroke:#000000;stroke-width:0.8;" x="80.754545" xlink:href="#m19df45625e" y="384.48"/>
      </g>
     </g>
     <g id="text_1">
      <!-- 0 -->
      <defs>
       <path d="M 31.78125 66.40625 
Q 24.171875 66.40625 20.328125 58.90625 
Q 16.5 51.421875 16.5 36.375 
Q 16.5 21.390625 20.328125 13.890625 
Q 24.171875 6.390625 31.78125 6.390625 
Q 39.453125 6.390625 43.28125 13.890625 
Q 47.125 21.390625 47.125 36.375 
Q 47.125 51.421875 43.28125 58.90625 
Q 39.453125 66.40625 31.78125 66.40625 
z
M 31.78125 74.21875 
Q 44.046875 74.21875 50.515625 64.515625 
Q 56.984375 54.828125 56.984375 36.375 
Q 56.984375 17.96875 50.515625 8.265625 
Q 44.046875 -1.421875 31.78125 -1.421875 
Q 19.53125 -1.421875 13.0625 8.265625 
Q 6.59375 17.96875 6.59375 36.375 
Q 6.59375 54.828125 13.0625 64.515625 
Q 19.53125 74.21875 31.78125 74.21875 
z
" id="DejaVuSans-30"/>
      </defs>
      <g transform="translate(77.573295 399.078438)scale(0.1 -0.1)">
       <use xlink:href="#DejaVuSans-30"/>
      </g>
     </g>
    </g>
    <g id="xtick_2">
     <g id="line2d_2">
      <g>
       <use style="stroke:#000000;stroke-width:0.8;" x="151.772727" xlink:href="#m19df45625e" y="384.48"/>
      </g>
     </g>
     <g id="text_2">
      <!-- 200 -->
      <defs>
       <path d="M 19.1875 8.296875 
L 53.609375 8.296875 
L 53.609375 0 
L 7.328125 0 
L 7.328125 8.296875 
Q 12.9375 14.109375 22.625 23.890625 
Q 32.328125 33.6875 34.8125 36.53125 
Q 39.546875 41.84375 41.421875 45.53125 
Q 43.3125 49.21875 43.3125 52.78125 
Q 43.3125 58.59375 39.234375 62.25 
Q 35.15625 65.921875 28.609375 65.921875 
Q 23.96875 65.921875 18.8125 64.3125 
Q 13.671875 62.703125 7.8125 59.421875 
L 7.8125 69.390625 
Q 13.765625 71.78125 18.9375 73 
Q 24.125 74.21875 28.421875 74.21875 
Q 39.75 74.21875 46.484375 68.546875 
Q 53.21875 62.890625 53.21875 53.421875 
Q 53.21875 48.921875 51.53125 44.890625 
Q 49.859375 40.875 45.40625 35.40625 
Q 44.1875 33.984375 37.640625 27.21875 
Q 31.109375 20.453125 19.1875 8.296875 
z
" id="DejaVuSans-32"/>
      </defs>
      <g transform="translate(142.228977 399.078438)scale(0.1 -0.1)">
       <use xlink:href="#DejaVuSans-32"/>
       <use x="63.623047" xlink:href="#DejaVuSans-30"/>
       <use x="127.246094" xlink:href="#DejaVuSans-30"/>
      </g>
     </g>
    </g>
    <g id="xtick_3">
     <g id="line2d_3">
      <g>
       <use style="stroke:#000000;stroke-width:0.8;" x="222.790909" xlink:href="#m19df45625e" y="384.48"/>
      </g>
     </g>
     <g id="text_3">
      <!-- 400 -->
      <defs>
       <path d="M 37.796875 64.3125 
L 12.890625 25.390625 
L 37.796875 25.390625 
z
M 35.203125 72.90625 
L 47.609375 72.90625 
L 47.609375 25.390625 
L 58.015625 25.390625 
L 58.015625 17.1875 
L 47.609375 17.1875 
L 47.609375 0 
L 37.796875 0 
L 37.796875 17.1875 
L 4.890625 17.1875 
L 4.890625 26.703125 
z
" id="DejaVuSans-34"/>
      </defs>
      <g transform="translate(213.247159 399.078438)scale(0.1 -0.1)">
       <use xlink:href="#DejaVuSans-34"/>
       <use x="63.623047" xlink:href="#DejaVuSans-30"/>
       <use x="127.246094" xlink:href="#DejaVuSans-30"/>
      </g>
     </g>
    </g>
    <g id="xtick_4">
     <g id="line2d_4">
      <g>
       <use style="stroke:#000000;stroke-width:0.8;" x="293.809091" xlink:href="#m19df45625e" y="384.48"/>
      </g>
     </g>
     <g id="text_4">
      <!-- 600 -->
      <defs>
       <path d="M 33.015625 40.375 
Q 26.375 40.375 22.484375 35.828125 
Q 18.609375 31.296875 18.609375 23.390625 
Q 18.609375 15.53125 22.484375 10.953125 
Q 26.375 6.390625 33.015625 6.390625 
Q 39.65625 6.390625 43.53125 10.953125 
Q 47.40625 15.53125 47.40625 23.390625 
Q 47.40625 31.296875 43.53125 35.828125 
Q 39.65625 40.375 33.015625 40.375 
z
M 52.59375 71.296875 
L 52.59375 62.3125 
Q 48.875 64.0625 45.09375 64.984375 
Q 41.3125 65.921875 37.59375 65.921875 
Q 27.828125 65.921875 22.671875 59.328125 
Q 17.53125 52.734375 16.796875 39.40625 
Q 19.671875 43.65625 24.015625 45.921875 
Q 28.375 48.1875 33.59375 48.1875 
Q 44.578125 48.1875 50.953125 41.515625 
Q 57.328125 34.859375 57.328125 23.390625 
Q 57.328125 12.15625 50.6875 5.359375 
Q 44.046875 -1.421875 33.015625 -1.421875 
Q 20.359375 -1.421875 13.671875 8.265625 
Q 6.984375 17.96875 6.984375 36.375 
Q 6.984375 53.65625 15.1875 63.9375 
Q 23.390625 74.21875 37.203125 74.21875 
Q 40.921875 74.21875 44.703125 73.484375 
Q 48.484375 72.75 52.59375 71.296875 
z
" id="DejaVuSans-36"/>
      </defs>
      <g transform="translate(284.265341 399.078438)scale(0.1 -0.1)">
       <use xlink:href="#DejaVuSans-36"/>
       <use x="63.623047" xlink:href="#DejaVuSans-30"/>
       <use x="127.246094" xlink:href="#DejaVuSans-30"/>
      </g>
     </g>
    </g>
    <g id="xtick_5">
     <g id="line2d_5">
      <g>
       <use style="stroke:#000000;stroke-width:0.8;" x="364.827273" xlink:href="#m19df45625e" y="384.48"/>
      </g>
     </g>
     <g id="text_5">
      <!-- 800 -->
      <defs>
       <path d="M 31.78125 34.625 
Q 24.75 34.625 20.71875 30.859375 
Q 16.703125 27.09375 16.703125 20.515625 
Q 16.703125 13.921875 20.71875 10.15625 
Q 24.75 6.390625 31.78125 6.390625 
Q 38.8125 6.390625 42.859375 10.171875 
Q 46.921875 13.96875 46.921875 20.515625 
Q 46.921875 27.09375 42.890625 30.859375 
Q 38.875 34.625 31.78125 34.625 
z
M 21.921875 38.8125 
Q 15.578125 40.375 12.03125 44.71875 
Q 8.5 49.078125 8.5 55.328125 
Q 8.5 64.0625 14.71875 69.140625 
Q 20.953125 74.21875 31.78125 74.21875 
Q 42.671875 74.21875 48.875 69.140625 
Q 55.078125 64.0625 55.078125 55.328125 
Q 55.078125 49.078125 51.53125 44.71875 
Q 48 40.375 41.703125 38.8125 
Q 48.828125 37.15625 52.796875 32.3125 
Q 56.78125 27.484375 56.78125 20.515625 
Q 56.78125 9.90625 50.3125 4.234375 
Q 43.84375 -1.421875 31.78125 -1.421875 
Q 19.734375 -1.421875 13.25 4.234375 
Q 6.78125 9.90625 6.78125 20.515625 
Q 6.78125 27.484375 10.78125 32.3125 
Q 14.796875 37.15625 21.921875 38.8125 
z
M 18.3125 54.390625 
Q 18.3125 48.734375 21.84375 45.5625 
Q 25.390625 42.390625 31.78125 42.390625 
Q 38.140625 42.390625 41.71875 45.5625 
Q 45.3125 48.734375 45.3125 54.390625 
Q 45.3125 60.0625 41.71875 63.234375 
Q 38.140625 66.40625 31.78125 66.40625 
Q 25.390625 66.40625 21.84375 63.234375 
Q 18.3125 60.0625 18.3125 54.390625 
z
" id="DejaVuSans-38"/>
      </defs>
      <g transform="translate(355.283523 399.078438)scale(0.1 -0.1)">
       <use xlink:href="#DejaVuSans-38"/>
       <use x="63.623047" xlink:href="#DejaVuSans-30"/>
       <use x="127.246094" xlink:href="#DejaVuSans-30"/>
      </g>
     </g>
    </g>
    <g id="text_6">
     <!-- time [ms] -->
     <defs>
      <path d="M 18.3125 70.21875 
L 18.3125 54.6875 
L 36.8125 54.6875 
L 36.8125 47.703125 
L 18.3125 47.703125 
L 18.3125 18.015625 
Q 18.3125 11.328125 20.140625 9.421875 
Q 21.96875 7.515625 27.59375 7.515625 
L 36.8125 7.515625 
L 36.8125 0 
L 27.59375 0 
Q 17.1875 0 13.234375 3.875 
Q 9.28125 7.765625 9.28125 18.015625 
L 9.28125 47.703125 
L 2.6875 47.703125 
L 2.6875 54.6875 
L 9.28125 54.6875 
L 9.28125 70.21875 
z
" id="DejaVuSans-74"/>
      <path d="M 9.421875 54.6875 
L 18.40625 54.6875 
L 18.40625 0 
L 9.421875 0 
z
M 9.421875 75.984375 
L 18.40625 75.984375 
L 18.40625 64.59375 
L 9.421875 64.59375 
z
" id="DejaVuSans-69"/>
      <path d="M 52 44.1875 
Q 55.375 50.25 60.0625 53.125 
Q 64.75 56 71.09375 56 
Q 79.640625 56 84.28125 50.015625 
Q 88.921875 44.046875 88.921875 33.015625 
L 88.921875 0 
L 79.890625 0 
L 79.890625 32.71875 
Q 79.890625 40.578125 77.09375 44.375 
Q 74.3125 48.1875 68.609375 48.1875 
Q 61.625 48.1875 57.5625 43.546875 
Q 53.515625 38.921875 53.515625 30.90625 
L 53.515625 0 
L 44.484375 0 
L 44.484375 32.71875 
Q 44.484375 40.625 41.703125 44.40625 
Q 38.921875 48.1875 33.109375 48.1875 
Q 26.21875 48.1875 22.15625 43.53125 
Q 18.109375 38.875 18.109375 30.90625 
L 18.109375 0 
L 9.078125 0 
L 9.078125 54.6875 
L 18.109375 54.6875 
L 18.109375 46.1875 
Q 21.1875 51.21875 25.484375 53.609375 
Q 29.78125 56 35.6875 56 
Q 41.65625 56 45.828125 52.96875 
Q 50 49.953125 52 44.1875 
z
" id="DejaVuSans-6d"/>
      <path d="M 56.203125 29.59375 
L 56.203125 25.203125 
L 14.890625 25.203125 
Q 15.484375 15.921875 20.484375 11.0625 
Q 25.484375 6.203125 34.421875 6.203125 
Q 39.59375 6.203125 44.453125 7.46875 
Q 49.3125 8.734375 54.109375 11.28125 
L 54.109375 2.78125 
Q 49.265625 0.734375 44.1875 -0.34375 
Q 39.109375 -1.421875 33.890625 -1.421875 
Q 20.796875 -1.421875 13.15625 6.1875 
Q 5.515625 13.8125 5.515625 26.8125 
Q 5.515625 40.234375 12.765625 48.109375 
Q 20.015625 56 32.328125 56 
Q 43.359375 56 49.78125 48.890625 
Q 56.203125 41.796875 56.203125 29.59375 
z
M 47.21875 32.234375 
Q 47.125 39.59375 43.09375 43.984375 
Q 39.0625 48.390625 32.421875 48.390625 
Q 24.90625 48.390625 20.390625 44.140625 
Q 15.875 39.890625 15.1875 32.171875 
z
" id="DejaVuSans-65"/>
      <path id="DejaVuSans-20"/>
      <path d="M 8.59375 75.984375 
L 29.296875 75.984375 
L 29.296875 69 
L 17.578125 69 
L 17.578125 -6.203125 
L 29.296875 -6.203125 
L 29.296875 -13.1875 
L 8.59375 -13.1875 
z
" id="DejaVuSans-5b"/>
      <path d="M 44.28125 53.078125 
L 44.28125 44.578125 
Q 40.484375 46.53125 36.375 47.5 
Q 32.28125 48.484375 27.875 48.484375 
Q 21.1875 48.484375 17.84375 46.4375 
Q 14.5 44.390625 14.5 40.28125 
Q 14.5 37.15625 16.890625 35.375 
Q 19.28125 33.59375 26.515625 31.984375 
L 29.59375 31.296875 
Q 39.15625 29.25 43.1875 25.515625 
Q 47.21875 21.78125 47.21875 15.09375 
Q 47.21875 7.46875 41.1875 3.015625 
Q 35.15625 -1.421875 24.609375 -1.421875 
Q 20.21875 -1.421875 15.453125 -0.5625 
Q 10.6875 0.296875 5.421875 2 
L 5.421875 11.28125 
Q 10.40625 8.6875 15.234375 7.390625 
Q 20.0625 6.109375 24.8125 6.109375 
Q 31.15625 6.109375 34.5625 8.28125 
Q 37.984375 10.453125 37.984375 14.40625 
Q 37.984375 18.0625 35.515625 20.015625 
Q 33.0625 21.96875 24.703125 23.78125 
L 21.578125 24.515625 
Q 13.234375 26.265625 9.515625 29.90625 
Q 5.8125 33.546875 5.8125 39.890625 
Q 5.8125 47.609375 11.28125 51.796875 
Q 16.75 56 26.8125 56 
Q 31.78125 56 36.171875 55.265625 
Q 40.578125 54.546875 44.28125 53.078125 
z
" id="DejaVuSans-73"/>
      <path d="M 30.421875 75.984375 
L 30.421875 -13.1875 
L 9.71875 -13.1875 
L 9.71875 -6.203125 
L 21.390625 -6.203125 
L 21.390625 69 
L 9.71875 69 
L 9.71875 75.984375 
z
" id="DejaVuSans-5d"/>
     </defs>
     <g transform="translate(234.038281 412.756563)scale(0.1 -0.1)">
      <use xlink:href="#DejaVuSans-74"/>
      <use x="39.208984" xlink:href="#DejaVuSans-69"/>
      <use x="66.992188" xlink:href="#DejaVuSans-6d"/>
      <use x="164.404297" xlink:href="#DejaVuSans-65"/>
      <use x="225.927734" xlink:href="#DejaVuSans-20"/>
      <use x="257.714844" xlink:href="#DejaVuSans-5b"/>
      <use x="296.728516" xlink:href="#DejaVuSans-6d"/>
      <use x="394.140625" xlink:href="#DejaVuSans-73"/>
      <use x="446.240234" xlink:href="#DejaVuSans-5d"/>
     </g>
    </g>
   </g>
   <g id="matplotlib.axis_2">
    <g id="ytick_1">
     <g id="line2d_6">
      <defs>
       <path d="M 0 0 
L -3.5 0 
" id="m8a6ddd1a95" style="stroke:#000000;stroke-width:0.8;"/>
      </defs>
      <g>
       <use style="stroke:#000000;stroke-width:0.8;" x="63" xlink:href="#m8a6ddd1a95" y="379.130401"/>
      </g>
     </g>
     <g id="text_7">
      <!-- −80 -->
      <defs>
       <path d="M 10.59375 35.5 
L 73.1875 35.5 
L 73.1875 27.203125 
L 10.59375 27.203125 
z
" id="DejaVuSans-2212"/>
      </defs>
      <g transform="translate(34.895313 382.929619)scale(0.1 -0.1)">
       <use xlink:href="#DejaVuSans-2212"/>
       <use x="83.789062" xlink:href="#DejaVuSans-38"/>
       <use x="147.412109" xlink:href="#DejaVuSans-30"/>
      </g>
     </g>
    </g>
    <g id="ytick_2">
     <g id="line2d_7">
      <g>
       <use style="stroke:#000000;stroke-width:0.8;" x="63" xlink:href="#m8a6ddd1a95" y="328.576367"/>
      </g>
     </g>
     <g id="text_8">
      <!-- −60 -->
      <g transform="translate(34.895313 332.375586)scale(0.1 -0.1)">
       <use xlink:href="#DejaVuSans-2212"/>
       <use x="83.789062" xlink:href="#DejaVuSans-36"/>
       <use x="147.412109" xlink:href="#DejaVuSans-30"/>
      </g>
     </g>
    </g>
    <g id="ytick_3">
     <g id="line2d_8">
      <g>
       <use style="stroke:#000000;stroke-width:0.8;" x="63" xlink:href="#m8a6ddd1a95" y="278.022334"/>
      </g>
     </g>
     <g id="text_9">
      <!-- −40 -->
      <g transform="translate(34.895313 281.821553)scale(0.1 -0.1)">
       <use xlink:href="#DejaVuSans-2212"/>
       <use x="83.789062" xlink:href="#DejaVuSans-34"/>
       <use x="147.412109" xlink:href="#DejaVuSans-30"/>
      </g>
     </g>
    </g>
    <g id="ytick_4">
     <g id="line2d_9">
      <g>
       <use style="stroke:#000000;stroke-width:0.8;" x="63" xlink:href="#m8a6ddd1a95" y="227.468301"/>
      </g>
     </g>
     <g id="text_10">
      <!-- −20 -->
      <g transform="translate(34.895313 231.26752)scale(0.1 -0.1)">
       <use xlink:href="#DejaVuSans-2212"/>
       <use x="83.789062" xlink:href="#DejaVuSans-32"/>
       <use x="147.412109" xlink:href="#DejaVuSans-30"/>
      </g>
     </g>
    </g>
    <g id="ytick_5">
     <g id="line2d_10">
      <g>
       <use style="stroke:#000000;stroke-width:0.8;" x="63" xlink:href="#m8a6ddd1a95" y="176.914268"/>
      </g>
     </g>
     <g id="text_11">
      <!-- 0 -->
      <g transform="translate(49.6375 180.713487)scale(0.1 -0.1)">
       <use xlink:href="#DejaVuSans-30"/>
      </g>
     </g>
    </g>
    <g id="ytick_6">
     <g id="line2d_11">
      <g>
       <use style="stroke:#000000;stroke-width:0.8;" x="63" xlink:href="#m8a6ddd1a95" y="126.360235"/>
      </g>
     </g>
     <g id="text_12">
      <!-- 20 -->
      <g transform="translate(43.275 130.159454)scale(0.1 -0.1)">
       <use xlink:href="#DejaVuSans-32"/>
       <use x="63.623047" xlink:href="#DejaVuSans-30"/>
      </g>
     </g>
    </g>
    <g id="ytick_7">
     <g id="line2d_12">
      <g>
       <use style="stroke:#000000;stroke-width:0.8;" x="63" xlink:href="#m8a6ddd1a95" y="75.806202"/>
      </g>
     </g>
     <g id="text_13">
      <!-- 40 -->
      <g transform="translate(43.275 79.605421)scale(0.1 -0.1)">
       <use xlink:href="#DejaVuSans-34"/>
       <use x="63.623047" xlink:href="#DejaVuSans-30"/>
      </g>
     </g>
    </g>
    <g id="text_14">
     <!-- voltage [mV] -->
     <defs>
      <path d="M 2.984375 54.6875 
L 12.5 54.6875 
L 29.59375 8.796875 
L 46.6875 54.6875 
L 56.203125 54.6875 
L 35.6875 0 
L 23.484375 0 
z
" id="DejaVuSans-76"/>
      <path d="M 30.609375 48.390625 
Q 23.390625 48.390625 19.1875 42.75 
Q 14.984375 37.109375 14.984375 27.296875 
Q 14.984375 17.484375 19.15625 11.84375 
Q 23.34375 6.203125 30.609375 6.203125 
Q 37.796875 6.203125 41.984375 11.859375 
Q 46.1875 17.53125 46.1875 27.296875 
Q 46.1875 37.015625 41.984375 42.703125 
Q 37.796875 48.390625 30.609375 48.390625 
z
M 30.609375 56 
Q 42.328125 56 49.015625 48.375 
Q 55.71875 40.765625 55.71875 27.296875 
Q 55.71875 13.875 49.015625 6.21875 
Q 42.328125 -1.421875 30.609375 -1.421875 
Q 18.84375 -1.421875 12.171875 6.21875 
Q 5.515625 13.875 5.515625 27.296875 
Q 5.515625 40.765625 12.171875 48.375 
Q 18.84375 56 30.609375 56 
z
" id="DejaVuSans-6f"/>
      <path d="M 9.421875 75.984375 
L 18.40625 75.984375 
L 18.40625 0 
L 9.421875 0 
z
" id="DejaVuSans-6c"/>
      <path d="M 34.28125 27.484375 
Q 23.390625 27.484375 19.1875 25 
Q 14.984375 22.515625 14.984375 16.5 
Q 14.984375 11.71875 18.140625 8.90625 
Q 21.296875 6.109375 26.703125 6.109375 
Q 34.1875 6.109375 38.703125 11.40625 
Q 43.21875 16.703125 43.21875 25.484375 
L 43.21875 27.484375 
z
M 52.203125 31.203125 
L 52.203125 0 
L 43.21875 0 
L 43.21875 8.296875 
Q 40.140625 3.328125 35.546875 0.953125 
Q 30.953125 -1.421875 24.3125 -1.421875 
Q 15.921875 -1.421875 10.953125 3.296875 
Q 6 8.015625 6 15.921875 
Q 6 25.140625 12.171875 29.828125 
Q 18.359375 34.515625 30.609375 34.515625 
L 43.21875 34.515625 
L 43.21875 35.40625 
Q 43.21875 41.609375 39.140625 45 
Q 35.0625 48.390625 27.6875 48.390625 
Q 23 48.390625 18.546875 47.265625 
Q 14.109375 46.140625 10.015625 43.890625 
L 10.015625 52.203125 
Q 14.9375 54.109375 19.578125 55.046875 
Q 24.21875 56 28.609375 56 
Q 40.484375 56 46.34375 49.84375 
Q 52.203125 43.703125 52.203125 31.203125 
z
" id="DejaVuSans-61"/>
      <path d="M 45.40625 27.984375 
Q 45.40625 37.75 41.375 43.109375 
Q 37.359375 48.484375 30.078125 48.484375 
Q 22.859375 48.484375 18.828125 43.109375 
Q 14.796875 37.75 14.796875 27.984375 
Q 14.796875 18.265625 18.828125 12.890625 
Q 22.859375 7.515625 30.078125 7.515625 
Q 37.359375 7.515625 41.375 12.890625 
Q 45.40625 18.265625 45.40625 27.984375 
z
M 54.390625 6.78125 
Q 54.390625 -7.171875 48.1875 -13.984375 
Q 42 -20.796875 29.203125 -20.796875 
Q 24.46875 -20.796875 20.265625 -20.09375 
Q 16.0625 -19.390625 12.109375 -17.921875 
L 12.109375 -9.1875 
Q 16.0625 -11.328125 19.921875 -12.34375 
Q 23.78125 -13.375 27.78125 -13.375 
Q 36.625 -13.375 41.015625 -8.765625 
Q 45.40625 -4.15625 45.40625 5.171875 
L 45.40625 9.625 
Q 42.625 4.78125 38.28125 2.390625 
Q 33.9375 0 27.875 0 
Q 17.828125 0 11.671875 7.65625 
Q 5.515625 15.328125 5.515625 27.984375 
Q 5.515625 40.671875 11.671875 48.328125 
Q 17.828125 56 27.875 56 
Q 33.9375 56 38.28125 53.609375 
Q 42.625 51.21875 45.40625 46.390625 
L 45.40625 54.6875 
L 54.390625 54.6875 
z
" id="DejaVuSans-67"/>
      <path d="M 28.609375 0 
L 0.78125 72.90625 
L 11.078125 72.90625 
L 34.1875 11.53125 
L 57.328125 72.90625 
L 67.578125 72.90625 
L 39.796875 0 
z
" id="DejaVuSans-56"/>
     </defs>
     <g transform="translate(28.815625 250.624062)rotate(-90)scale(0.1 -0.1)">
      <use xlink:href="#DejaVuSans-76"/>
      <use x="59.179688" xlink:href="#DejaVuSans-6f"/>
      <use x="120.361328" xlink:href="#DejaVuSans-6c"/>
      <use x="148.144531" xlink:href="#DejaVuSans-74"/>
      <use x="187.353516" xlink:href="#DejaVuSans-61"/>
      <use x="248.632812" xlink:href="#DejaVuSans-67"/>
      <use x="312.109375" xlink:href="#DejaVuSans-65"/>
      <use x="373.632812" xlink:href="#DejaVuSans-20"/>
      <use x="405.419922" xlink:href="#DejaVuSans-5b"/>
      <use x="444.433594" xlink:href="#DejaVuSans-6d"/>
      <use x="541.845703" xlink:href="#DejaVuSans-56"/>
      <use x="610.253906" xlink:href="#DejaVuSans-5d"/>
     </g>
    </g>
   </g>
   <g id="line2d_13">
    <path clip-path="url(#p4a2b393838)" d="M 80.754545 341.214876 
L 81.979609 341.08293 
L 151.772727 341.148397 
L 152.314241 298.274027 
L 152.420768 251.440013 
L 152.562805 76.625683 
L 152.678209 100.909312 
L 153.565936 366.721408 
L 153.610323 366.624597 
L 153.8145 365.296795 
L 154.293873 360.719127 
L 154.959668 351.935617 
L 157.42755 314.484683 
L 157.613973 303.769503 
L 157.738255 282.617443 
L 157.835905 222.377763 
L 157.969064 100.084523 
L 158.031205 112.749825 
L 158.883423 366.312678 
L 158.945564 366.135992 
L 159.203005 364.230105 
L 159.717886 358.767236 
L 160.534595 347.281865 
L 161.8218 329.82303 
L 162.514227 319.840378 
L 162.771668 312.59826 
L 162.940336 301.05096 
L 163.064618 274.120321 
L 163.162268 192.8467 
L 163.268795 100.970736 
L 163.322059 110.131632 
L 163.863573 298.006091 
L 164.147645 366.142564 
L 164.183155 366.282093 
L 164.245295 366.107429 
L 164.493859 364.27434 
L 165.008741 358.830429 
L 165.834327 347.226509 
L 167.112655 329.894817 
L 167.813959 319.806254 
L 168.0714 312.554783 
L 168.240068 300.969568 
L 168.36435 273.883223 
L 168.462 192.128707 
L 168.568527 101.044797 
L 168.621791 110.345476 
L 169.172182 301.811546 
L 169.4385 366.059908 
L 169.482886 366.280071 
L 169.545027 366.101615 
L 169.802468 364.187892 
L 170.31735 358.707835 
L 171.151814 346.948209 
L 172.430141 329.661004 
L 173.113691 319.78856 
L 173.371132 312.519648 
L 173.5398 300.877307 
L 173.664082 273.557655 
L 173.761732 191.020031 
L 173.868259 101.060975 
L 173.921523 110.572716 
L 174.480791 305.732011 
L 174.729355 365.954503 
L 174.782618 366.280071 
L 174.844759 366.097571 
L 175.1022 364.180815 
L 175.617082 358.697471 
L 176.451545 346.935823 
L 177.729873 329.650641 
L 178.413423 319.772383 
L 178.670864 312.485019 
L 178.839532 300.783782 
L 178.963814 273.223493 
L 179.061464 189.8789 
L 179.167991 101.077657 
L 179.221255 110.802484 
L 179.7894 309.751815 
L 180.029086 365.966383 
L 180.08235 366.280324 
L 180.144491 366.093274 
L 180.401932 364.173737 
L 180.916814 358.687361 
L 181.751277 346.923943 
L 183.029605 329.64053 
L 183.713155 319.755953 
L 183.970595 312.450136 
L 184.139264 300.689246 
L 184.263545 272.881495 
L 184.361195 188.7177 
L 184.467723 101.100659 
L 184.520986 111.035791 
L 185.098009 313.860088 
L 185.328818 365.978011 
L 185.382082 366.280324 
L 185.444223 366.089229 
L 185.701664 364.166407 
L 186.216545 358.67725 
L 187.051009 346.91181 
L 188.329336 329.630419 
L 189.012886 319.739775 
L 189.270327 312.415001 
L 189.438995 300.593193 
L 189.563277 272.534441 
L 189.660927 187.551873 
L 189.767455 101.129222 
L 189.820718 111.271373 
L 190.406618 318.037874 
L 190.619673 365.849098 
L 190.681814 366.280071 
L 190.743955 366.084932 
L 191.010273 364.08097 
L 191.525155 358.556426 
L 192.368495 346.636796 
L 193.637945 329.509089 
L 194.312618 319.723092 
L 194.570059 312.379866 
L 194.738727 300.496635 
L 194.863009 272.184102 
L 194.969536 173.516658 
L 195.058309 101.116331 
L 195.12045 111.509482 
L 195.715227 322.260147 
L 195.919405 365.864011 
L 195.981545 366.280071 
L 196.043686 366.080635 
L 196.310005 364.07364 
L 196.833764 358.435096 
L 197.703736 346.099659 
L 198.955432 329.276794 
L 199.61235 319.706662 
L 199.869791 312.344226 
L 200.038459 300.399066 
L 200.162741 271.826685 
L 200.269268 172.30005 
L 200.358041 101.088021 
L 200.420182 111.751636 
L 201.023836 326.491266 
L 201.219136 365.878166 
L 201.281277 366.279565 
L 201.343418 366.076338 
L 201.609736 364.06631 
L 202.133495 358.42448 
L 202.994591 346.218461 
L 204.255164 329.26643 
L 204.912082 319.689727 
L 205.169523 312.30808 
L 205.338191 300.29998 
L 205.462473 271.461937 
L 205.569 171.075277 
L 205.657773 101.066535 
L 205.719914 111.995559 
L 206.332445 330.684976 
L 206.518868 365.892321 
L 206.581009 366.279313 
L 206.634273 366.116781 
L 206.873959 364.368876 
L 207.388841 358.965155 
L 208.187795 347.783614 
L 209.510509 329.810391 
L 210.202936 319.850489 
L 210.460377 312.650078 
L 210.629045 301.227647 
L 210.753327 274.801031 
L 210.850977 195.312574 
L 210.957505 101.051875 
L 211.019645 112.240493 
L 211.641055 334.789205 
L 211.827477 366.032609 
L 211.880741 366.278807 
L 211.934005 366.112737 
L 212.182568 364.284956 
L 212.69745 358.845595 
L 213.514159 347.376401 
L 214.810241 329.800028 
L 215.502668 319.834059 
L 215.760109 312.615448 
L 215.928777 301.13488 
L 216.053059 274.474199 
L 216.150709 194.177131 
L 216.257236 101.045808 
L 216.319377 112.484922 
L 216.949664 338.742784 
L 217.127209 366.04272 
L 217.171595 366.279313 
L 217.233736 366.108693 
L 217.4823 364.277878 
L 217.997182 358.835484 
L 218.822768 347.232575 
L 220.101095 329.900378 
L 220.8024 319.817628 
L 221.059841 312.581071 
L 221.228509 301.042366 
L 221.352791 274.146104 
L 221.450441 193.042243 
L 221.556968 101.046314 
L 221.610232 110.167273 
L 222.151745 298.059425 
L 222.426941 366.052325 
L 222.471327 366.279565 
L 222.533468 366.104648 
L 222.782032 364.270801 
L 223.296914 358.825373 
L 224.1225 347.220189 
L 225.418582 329.66884 
L 226.111009 319.622995 
L 226.36845 312.164253 
L 226.537118 299.901867 
L 226.652523 273.81548 
L 226.750173 191.902831 
L 226.8567 101.052128 
L 226.909964 110.39603 
L 227.460355 301.884091 
L 227.726673 366.061677 
L 227.771059 366.280071 
L 227.8332 366.100604 
L 228.090641 364.186123 
L 228.605523 358.705307 
L 229.439986 346.945175 
L 230.718314 329.658477 
L 231.401864 319.784768 
L 231.659305 312.51156 
L 231.827973 300.856074 
L 231.952255 273.482582 
L 232.049905 190.763217 
L 232.156432 101.064513 
L 232.209695 110.624534 
L 232.768964 305.807589 
L 233.017527 365.957283 
L 233.070791 366.280071 
L 233.132932 366.09656 
L 233.390373 364.179045 
L 233.905255 358.695197 
L 234.739718 346.933042 
L 236.018045 329.648366 
L 236.701595 319.768591 
L 236.959036 312.477183 
L 237.127705 300.76255 
L 237.251986 273.146651 
L 237.349636 189.617081 
L 237.456164 101.082207 
L 237.509427 110.855313 
L 238.077573 309.829668 
L 238.317259 365.968911 
L 238.370523 366.280324 
L 238.432664 366.092515 
L 238.690105 364.171968 
L 239.204986 358.685086 
L 240.03945 346.921162 
L 241.317777 329.638255 
L 242.001327 319.752414 
L 242.258768 312.442301 
L 242.427436 300.667508 
L 242.551718 272.802883 
L 242.649368 188.453176 
L 242.755895 101.106726 
L 242.809159 111.089125 
L 243.386182 313.939711 
L 243.616991 365.980538 
L 243.670255 366.280324 
L 243.732395 366.088218 
L 243.989836 364.16489 
L 244.504718 358.674975 
L 245.348059 346.777589 
L 246.617509 329.627891 
L 247.301059 319.735984 
L 247.5585 312.407165 
L 247.727168 300.571202 
L 247.85145 272.455324 
L 247.9491 187.286212 
L 248.055627 101.136806 
L 248.108891 111.325213 
L 248.694791 318.119266 
L 248.907845 365.852637 
L 248.969986 366.280071 
L 249.032127 366.084174 
L 249.298445 364.079454 
L 249.822205 358.443185 
L 250.692177 346.109264 
L 251.943873 329.284882 
L 252.600791 319.719301 
L 252.858232 312.371778 
L 253.0269 300.474392 
L 253.151182 272.103215 
L 253.257709 173.239672 
L 253.346482 101.109254 
L 253.408623 111.564586 
L 254.0034 322.343055 
L 254.207577 365.867297 
L 254.269718 366.279818 
L 254.331859 366.079877 
L 254.598177 364.072124 
L 255.121936 358.432568 
L 255.983032 346.228066 
L 257.22585 329.496451 
L 257.900523 319.702871 
L 258.157964 312.336137 
L 258.326632 300.376569 
L 258.450914 271.744029 
L 258.557441 172.020562 
L 258.646214 101.08246 
L 258.708355 111.807498 
L 259.312009 326.574175 
L 259.507309 365.881452 
L 259.56945 366.279565 
L 259.631591 366.075327 
L 259.897909 364.06454 
L 260.421668 358.422205 
L 261.291641 346.084746 
L 262.525582 329.486087 
L 263.200255 319.685935 
L 263.457695 312.299991 
L 263.626364 300.277231 
L 263.750645 271.378018 
L 263.857173 170.795284 
L 263.945945 101.062491 
L 264.008086 112.051421 
L 264.620618 330.766621 
L 264.807041 365.895607 
L 264.869182 366.27906 
L 264.922445 366.116023 
L 265.171009 364.290517 
L 265.685891 358.853683 
L 266.511477 347.254313 
L 267.807559 329.697403 
L 268.499986 319.669252 
L 268.757427 312.263845 
L 268.926095 300.177892 
L 269.050377 271.012007 
L 269.156905 169.579131 
L 269.245677 101.049853 
L 269.298941 109.764104 
L 269.8227 290.779392 
L 270.133405 366.19514 
L 270.168914 366.278807 
L 270.222177 366.111979 
L 270.470741 364.283439 
L 270.985623 358.84332 
L 271.802332 347.373621 
L 273.098414 329.797753 
L 273.790841 319.830267 
L 274.048282 312.607612 
L 274.21695 301.1139 
L 274.341232 274.39938 
L 274.438882 193.917384 
L 274.545409 101.045556 
L 274.598673 109.991345 
L 275.131309 294.406896 
L 275.424259 366.135486 
L 275.459768 366.279313 
L 275.521909 366.107934 
L 275.770473 364.276362 
L 276.285355 358.833209 
L 277.110941 347.229795 
L 278.389268 329.898103 
L 279.090573 319.813837 
L 279.348014 312.572983 
L 279.516682 301.021133 
L 279.640964 274.070778 
L 279.738614 192.782395 
L 279.845141 101.046819 
L 279.898405 110.219596 
L 280.439918 298.132476 
L 280.715114 366.054347 
L 280.7595 366.279818 
L 280.821641 366.10389 
L 281.079082 364.191684 
L 281.593964 358.713143 
L 282.428427 346.954528 
L 283.706755 329.666312 
L 284.390305 319.797407 
L 284.647745 312.538353 
L 284.816414 300.928114 
L 284.940695 273.739649 
L 285.038345 191.642882 
L 285.144873 101.054403 
L 285.198136 110.4481 
L 285.748527 301.958152 
L 286.014845 366.0637 
L 286.059232 366.280071 
L 286.121373 366.099593 
L 286.378814 364.184606 
L 286.902573 358.592572 
L 287.754791 346.548326 
L 289.006486 329.656202 
L 289.690036 319.78123 
L 289.947477 312.503724 
L 290.116145 300.834842 
L 290.240427 273.406246 
L 290.338077 190.502409 
L 290.444605 101.068052 
L 290.497868 110.676857 
L 291.057136 305.883926 
L 291.3057 365.960064 
L 291.358964 366.280324 
L 291.421105 366.095549 
L 291.678545 364.177529 
L 292.193427 358.692922 
L 293.027891 346.930262 
L 294.315095 329.535125 
L 294.989768 319.764799 
L 295.247209 312.469094 
L 295.415877 300.741064 
L 295.540159 273.068797 
L 295.637809 189.352507 
L 295.744336 101.087263 
L 295.7976 110.908395 
L 296.365745 309.908027 
L 296.605432 365.971691 
L 296.658695 366.280324 
L 296.720836 366.091504 
L 296.978277 364.170451 
L 297.493159 358.682811 
L 298.327623 346.918382 
L 299.60595 329.63598 
L 300.2895 319.748622 
L 300.546941 312.434212 
L 300.715609 300.645517 
L 300.839891 272.724019 
L 300.937541 188.188272 
L 301.044068 101.113045 
L 301.097332 111.14246 
L 301.674355 314.019334 
L 301.905164 365.983066 
L 301.958427 366.280324 
L 302.020568 366.08746 
L 302.286886 364.085015 
L 302.810645 358.451021 
L 303.671741 346.249805 
L 304.914559 329.514903 
L 305.589232 319.732192 
L 305.846673 312.399077 
L 306.015341 300.549464 
L 306.139623 272.375954 
L 306.24615 174.175377 
L 306.334923 101.134278 
L 306.397064 111.379305 
L 306.982964 318.200658 
L 307.196018 365.855923 
L 307.258159 366.280071 
L 307.3203 366.083163 
L 307.586618 364.077684 
L 308.110377 358.440657 
L 308.971473 346.237672 
L 310.214291 329.50454 
L 310.888964 319.715762 
L 311.146405 312.363689 
L 311.315073 300.452401 
L 311.439355 272.022076 
L 311.545882 172.963673 
L 311.634655 101.102682 
L 311.696795 111.619437 
L 312.291573 322.425458 
L 312.49575 365.870583 
L 312.557891 366.279818 
L 312.620032 366.078866 
L 312.88635 364.070354 
L 313.410109 358.430293 
L 314.280082 346.094098 
L 315.531777 329.271991 
L 316.188695 319.698826 
L 316.446136 312.327796 
L 316.614805 300.354073 
L 316.739086 271.661626 
L 316.845614 171.742135 
L 316.934386 101.077405 
L 316.996527 111.862855 
L 317.600182 326.656831 
L 317.795482 365.884738 
L 317.857623 366.279565 
L 317.910886 366.119056 
L 318.15945 364.296078 
L 318.674332 358.861519 
L 319.491041 347.395359 
L 320.796 329.705239 
L 321.488427 319.682144 
L 321.745868 312.29165 
L 321.914536 300.254481 
L 322.038818 271.294351 
L 322.145345 170.51663 
L 322.234118 101.058952 
L 322.296259 112.107284 
L 322.908791 330.848013 
L 323.095214 365.898893 
L 323.157355 366.27906 
L 323.210618 366.115012 
L 323.459182 364.289 
L 323.974064 358.851156 
L 324.790773 347.382973 
L 326.095732 329.694875 
L 326.779282 319.842905 
L 327.036723 312.634406 
L 327.205391 301.185434 
L 327.329673 274.65215 
L 327.427323 194.794901 
L 327.53385 101.048083 
L 327.595991 112.351965 
L 328.2174 334.946428 
L 328.403823 366.037159 
L 328.457086 366.278554 
L 328.51035 366.110968 
L 328.758914 364.28167 
L 329.273795 358.841045 
L 329.318182 358.287226 
L 329.335936 359.155238 
L 329.531236 363.004422 
L 329.620009 363.185659 
L 329.664395 363.130302 
L 329.815309 362.544886 
L 330.214786 359.827354 
L 332.176664 345.591086 
L 332.869091 342.482771 
L 333.428359 340.885769 
L 333.889977 340.168913 
L 334.262823 339.950014 
L 334.617914 339.988688 
L 335.106164 340.300101 
L 336.562036 341.318764 
L 337.218955 341.408498 
L 338.124436 341.298037 
L 339.917645 341.103151 
L 435.845455 341.148397 
L 435.845455 341.148397 
" style="fill:none;stroke:#1f77b4;stroke-linecap:square;stroke-width:1.5;"/>
   </g>
   <g id="line2d_14">
    <path clip-path="url(#p4a2b393838)" d="M 80.754545 341.214876 
L 81.083005 344.022012 
L 81.384832 345.144378 
L 81.606764 345.318889 
L 81.802064 345.187597 
L 82.157155 344.604834 
L 83.151409 342.910334 
L 83.60415 342.568552 
L 84.021382 342.521741 
L 84.616159 342.713834 
L 85.619291 343.016434 
L 86.489264 343.002415 
L 88.602055 342.912405 
L 94.239123 342.927959 
L 151.772727 342.927413 
L 152.260977 304.703208 
L 152.340873 259.207974 
L 152.456277 66.96 
L 152.571682 86.341383 
L 153.077686 252.061669 
L 153.441655 369.36 
L 153.548182 369.08513 
L 153.956536 367.286255 
L 154.418155 364.16594 
L 155.012932 358.426088 
L 157.214495 335.502536 
L 158.182118 326.528914 
L 158.412927 321.62386 
L 158.563841 312.855525 
L 158.670368 290.968281 
L 158.750264 208.757918 
L 158.839036 77.026768 
L 158.910055 87.18821 
L 159.203005 186.246459 
L 159.77115 369.265697 
L 159.842168 369.101993 
L 160.223891 367.461046 
L 160.685509 364.427407 
L 161.262532 358.974308 
L 163.632764 334.592395 
L 164.547123 326.221808 
L 164.769055 321.625999 
L 164.919968 313.316749 
L 165.026495 293.277379 
L 165.106391 221.863964 
L 165.204041 77.365374 
L 165.275059 88.172839 
L 165.594641 196.779438 
L 166.127277 369.259035 
L 166.21605 369.05234 
L 166.60665 367.334518 
L 167.068268 364.238025 
L 167.654168 358.621307 
L 169.900118 335.347633 
L 170.921005 326.047732 
L 171.142936 321.246047 
L 171.29385 312.194573 
L 171.400377 288.825281 
L 171.480273 198.308717 
L 171.569045 77.39809 
L 171.631186 86.604632 
L 171.906382 179.273803 
L 172.492282 369.259794 
L 172.554423 369.131502 
L 172.918391 367.601894 
L 173.371132 364.708373 
L 173.939277 359.453924 
L 176.504809 333.379329 
L 177.241623 326.625716 
L 177.481309 322.025553 
L 177.632223 314.493521 
L 177.747627 294.820866 
L 177.827523 229.871612 
L 177.93405 77.448493 
L 178.005068 89.305292 
L 178.360159 210.117025 
L 178.857286 369.260043 
L 178.954936 369.005801 
L 179.354414 367.212208 
L 179.824909 363.983332 
L 180.428564 358.083591 
L 182.505845 336.337913 
L 183.668768 325.718294 
L 183.881823 320.773519 
L 184.023859 311.713496 
L 184.130386 286.788437 
L 184.210282 187.553384 
L 184.290177 77.418523 
L 184.352318 85.592093 
L 184.600882 168.309265 
L 185.222291 369.259619 
L 185.275555 369.145208 
L 185.630645 367.669577 
L 186.083386 364.810313 
L 186.642655 359.688192 
L 189.314714 332.70227 
L 189.980509 326.449093 
L 190.211318 321.892278 
L 190.362232 314.117671 
L 190.468759 296.28224 
L 190.548655 237.232162 
L 190.655182 77.389049 
L 190.735077 90.431408 
L 191.143432 228.726484 
L 191.578418 369.258756 
L 191.693823 368.958998 
L 192.102177 367.08863 
L 192.572673 363.799635 
L 193.185205 357.739537 
L 195.164836 336.901109 
L 196.425409 325.223445 
L 196.629586 319.902443 
L 196.771623 308.949166 
L 196.869273 279.586736 
L 196.949168 152.666804 
L 197.020186 77.398789 
L 197.082327 86.59487 
L 197.357523 179.259238 
L 197.943423 369.259763 
L 198.005564 369.131611 
L 198.369532 367.602075 
L 198.822273 364.708645 
L 199.390418 359.454299 
L 201.95595 333.379631 
L 202.692764 326.626294 
L 202.93245 322.026965 
L 203.083364 314.497566 
L 203.198768 294.837262 
L 203.278664 229.955433 
L 203.385191 77.447145 
L 203.456209 89.293085 
L 203.8113 210.101217 
L 204.308427 369.260044 
L 204.406077 369.005967 
L 204.805555 367.21247 
L 205.27605 363.983723 
L 205.879705 358.084116 
L 207.956986 336.338312 
L 209.119909 325.719029 
L 209.332964 320.775297 
L 209.475 311.718864 
L 209.581527 286.811634 
L 209.661423 187.674637 
L 209.741318 77.419757 
L 209.803459 85.581207 
L 210.052023 168.291958 
L 210.673432 369.259633 
L 210.726695 369.145357 
L 211.072909 367.714468 
L 211.52565 364.878132 
L 212.084918 359.781919 
L 214.801364 332.415562 
L 215.440527 326.328903 
L 215.671336 321.61535 
L 215.82225 313.314156 
L 215.928777 293.298496 
L 216.008673 222.024649 
L 216.106323 77.38927 
L 216.177341 88.176911 
L 216.496923 196.789251 
L 217.029559 369.258728 
L 217.118332 369.051878 
L 217.508932 367.333801 
L 217.97055 364.236957 
L 218.55645 358.619865 
L 220.8024 335.346751 
L 221.823286 326.048141 
L 222.045218 321.2486 
L 222.196132 312.204233 
L 222.302659 288.86746 
L 222.382555 198.536774 
L 222.471327 77.39816 
L 222.533468 86.583427 
L 222.808664 179.242055 
L 223.394564 369.259747 
L 223.456705 369.131764 
L 223.820673 367.602326 
L 224.273414 364.709023 
L 224.841559 359.454819 
L 227.407091 333.380023 
L 228.143905 326.626935 
L 228.383591 322.028435 
L 228.543382 313.726615 
L 228.649909 294.853835 
L 228.729805 230.039997 
L 228.836332 77.445717 
L 228.90735 89.280653 
L 229.262441 210.085085 
L 229.759568 369.260046 
L 229.857218 369.006137 
L 230.256695 367.21274 
L 230.727191 363.984125 
L 231.330845 358.084656 
L 233.408127 336.338722 
L 234.57105 325.719775 
L 234.784105 320.777097 
L 234.926141 311.724292 
L 235.032668 286.835082 
L 235.112564 187.797185 
L 235.192459 77.42102 
L 235.2546 85.570209 
L 235.503164 168.27447 
L 236.124573 369.259647 
L 236.177836 369.145506 
L 236.52405 367.714713 
L 236.976791 364.878503 
L 237.536059 359.782432 
L 240.252505 332.415959 
L 240.891668 326.329579 
L 241.122477 321.616925 
L 241.273391 313.318799 
L 241.379918 293.316342 
L 241.459814 222.116961 
L 241.557464 77.38951 
L 241.628482 88.165013 
L 241.948064 196.77286 
L 242.4807 369.258699 
L 242.569473 369.052041 
L 242.960073 367.334062 
L 243.421691 364.237345 
L 244.007591 358.62039 
L 246.253541 335.347149 
L 247.274427 326.048847 
L 247.496359 321.250287 
L 247.647273 312.209476 
L 247.7538 288.889295 
L 247.833695 198.65305 
L 247.922468 77.397543 
L 247.984609 86.571903 
L 248.259805 179.224743 
L 248.845705 369.259731 
L 248.907845 369.131918 
L 249.271814 367.602579 
L 249.724555 364.709403 
L 250.2927 359.455342 
L 252.858232 333.380419 
L 253.595045 326.627582 
L 253.834732 322.029916 
L 253.994523 313.731118 
L 254.10105 294.870533 
L 254.180945 230.12519 
L 254.287473 77.444295 
L 254.358491 89.268091 
L 254.713582 210.068773 
L 255.210709 369.260049 
L 255.308359 369.006309 
L 255.707836 367.213013 
L 256.178332 363.984532 
L 256.781986 358.085202 
L 258.859268 336.339137 
L 260.022191 325.720531 
L 260.235245 320.778919 
L 260.377282 311.729787 
L 260.483809 286.858815 
L 260.563705 187.921231 
L 260.6436 77.422318 
L 260.705741 85.559089 
L 260.954305 168.256782 
L 261.575714 369.259661 
L 261.628977 369.145657 
L 261.975191 367.714961 
L 262.427932 364.878877 
L 262.9872 359.78295 
L 265.703645 332.41636 
L 266.342809 326.330262 
L 266.573618 321.618517 
L 266.724532 313.32349 
L 266.831059 293.334371 
L 266.910955 222.210209 
L 267.008605 77.38977 
L 267.079623 88.153006 
L 267.399205 196.756315 
L 267.940718 369.258648 
L 268.020614 369.052206 
L 268.411214 367.334324 
L 268.872832 364.237737 
L 269.458732 358.62092 
L 271.704682 335.347551 
L 272.725568 326.049561 
L 272.9475 321.251982 
L 273.098414 312.214742 
L 273.204941 288.911218 
L 273.284836 198.769788 
L 273.373609 77.396938 
L 273.43575 86.560342 
L 273.710945 179.207371 
L 274.296845 369.259714 
L 274.358986 369.132073 
L 274.722955 367.602832 
L 275.175695 364.709784 
L 275.743841 359.455867 
L 278.309373 333.380816 
L 279.046186 326.628231 
L 279.285873 322.031404 
L 279.445664 313.735644 
L 279.552191 294.887312 
L 279.632086 230.210795 
L 279.738614 77.44288 
L 279.809632 89.255478 
L 280.164723 210.052393 
L 280.66185 369.260051 
L 280.7595 369.006482 
L 281.158977 367.213287 
L 281.629473 363.984941 
L 282.233127 358.08575 
L 284.310409 336.339554 
L 285.473332 325.721289 
L 285.686386 320.780747 
L 285.828423 311.735296 
L 285.93495 286.882609 
L 286.014845 188.045598 
L 286.094741 77.423639 
L 286.156882 85.547952 
L 286.405445 168.239061 
L 287.026855 369.259675 
L 287.080118 369.145809 
L 287.426332 367.715209 
L 287.879073 364.879252 
L 288.438341 359.78347 
L 291.154786 332.416762 
L 291.79395 326.330947 
L 292.024759 321.620114 
L 292.175673 313.328195 
L 292.2822 293.352455 
L 292.362095 222.303739 
L 292.459745 77.390049 
L 292.530764 88.140973 
L 292.850345 196.739732 
L 293.391859 369.258679 
L 293.471755 369.052372 
L 293.862355 367.334588 
L 294.323973 364.23813 
L 294.909873 358.621451 
L 297.155823 335.347954 
L 298.176709 326.050278 
L 298.398641 321.253684 
L 298.549555 312.220026 
L 298.656082 288.933219 
L 298.735977 198.88698 
L 298.82475 77.396338 
L 298.886891 86.548737 
L 299.162086 179.189922 
L 299.747986 369.259697 
L 299.810127 369.132228 
L 300.174095 367.603087 
L 300.626836 364.710167 
L 301.194982 359.456394 
L 303.760514 333.381215 
L 304.497327 326.628883 
L 304.737014 322.032898 
L 304.896805 313.740189 
L 305.003332 294.904162 
L 305.083227 230.296884 
L 305.189755 77.44144 
L 305.260773 89.242759 
L 305.615864 210.035848 
L 306.112991 369.260053 
L 306.210641 369.006658 
L 306.610118 367.213565 
L 307.080614 363.985356 
L 307.684268 358.086307 
L 309.76155 336.339976 
L 310.924473 325.722052 
L 311.137527 320.782583 
L 311.279564 311.740827 
L 311.386091 286.90649 
L 311.465986 188.170408 
L 311.545882 77.424982 
L 311.608023 85.536783 
L 311.856586 168.221286 
L 312.477995 369.259689 
L 312.531259 369.14596 
L 312.877473 367.715457 
L 313.330214 364.879628 
L 313.889482 359.78399 
L 316.605927 332.417166 
L 317.245091 326.331635 
L 317.4759 321.621718 
L 317.626814 313.33292 
L 317.733341 293.370612 
L 317.813236 222.397752 
L 317.910886 77.390349 
L 317.981905 88.128858 
L 318.301486 196.723023 
L 318.843 369.258708 
L 318.922895 369.052539 
L 319.313495 367.334854 
L 319.775114 364.238527 
L 320.361014 358.621987 
L 322.606964 335.34836 
L 323.62785 326.050999 
L 323.849782 321.255397 
L 324.000695 312.225345 
L 324.107223 288.955359 
L 324.187118 199.005021 
L 324.275891 77.395741 
L 324.338032 86.537005 
L 324.613227 179.172262 
L 325.199127 369.25968 
L 325.261268 369.132386 
L 325.625236 367.603346 
L 326.077977 364.710556 
L 326.646123 359.45693 
L 329.211655 333.381619 
L 329.318182 332.525354 
L 329.327059 333.025839 
L 329.699905 347.021055 
L 329.948468 350.301594 
L 330.099382 350.644355 
L 330.126014 350.632419 
L 330.250295 350.391862 
L 330.543245 349.182159 
L 331.723923 343.986976 
L 332.229927 342.766827 
L 332.629405 342.298836 
L 332.966741 342.218007 
L 333.357341 342.377948 
L 334.706686 343.101318 
L 335.381359 343.077245 
L 337.334359 342.894218 
L 342.891532 342.928503 
L 435.845455 342.927413 
L 435.845455 342.927413 
" style="fill:none;stroke:#ff0000;stroke-linecap:square;stroke-width:1.5;"/>
   </g>
   <g id="patch_3">
    <path d="M 63 384.48 
L 63 51.84 
" style="fill:none;stroke:#000000;stroke-linecap:square;stroke-linejoin:miter;stroke-width:0.8;"/>
   </g>
   <g id="patch_4">
    <path d="M 453.6 384.48 
L 453.6 51.84 
" style="fill:none;stroke:#000000;stroke-linecap:square;stroke-linejoin:miter;stroke-width:0.8;"/>
   </g>
   <g id="patch_5">
    <path d="M 63 384.48 
L 453.6 384.48 
" style="fill:none;stroke:#000000;stroke-linecap:square;stroke-linejoin:miter;stroke-width:0.8;"/>
   </g>
   <g id="patch_6">
    <path d="M 63 51.84 
L 453.6 51.84 
" style="fill:none;stroke:#000000;stroke-linecap:square;stroke-linejoin:miter;stroke-width:0.8;"/>
   </g>
   <g id="legend_1">
    <g id="patch_7">
     <path d="M 383.460938 89.19625 
L 446.6 89.19625 
Q 448.6 89.19625 448.6 87.19625 
L 448.6 58.84 
Q 448.6 56.84 446.6 56.84 
L 383.460938 56.84 
Q 381.460938 56.84 381.460938 58.84 
L 381.460938 87.19625 
Q 381.460938 89.19625 383.460938 89.19625 
z
" style="fill:#ffffff;opacity:0.8;stroke:#cccccc;stroke-linejoin:miter;"/>
    </g>
    <g id="line2d_15">
     <path d="M 385.460938 64.938437 
L 405.460938 64.938437 
" style="fill:none;stroke:#1f77b4;stroke-linecap:square;stroke-width:1.5;"/>
    </g>
    <g id="line2d_16"/>
    <g id="text_15">
     <!-- target -->
     <defs>
      <path d="M 41.109375 46.296875 
Q 39.59375 47.171875 37.8125 47.578125 
Q 36.03125 48 33.890625 48 
Q 26.265625 48 22.1875 43.046875 
Q 18.109375 38.09375 18.109375 28.8125 
L 18.109375 0 
L 9.078125 0 
L 9.078125 54.6875 
L 18.109375 54.6875 
L 18.109375 46.1875 
Q 20.953125 51.171875 25.484375 53.578125 
Q 30.03125 56 36.53125 56 
Q 37.453125 56 38.578125 55.875 
Q 39.703125 55.765625 41.0625 55.515625 
z
" id="DejaVuSans-72"/>
     </defs>
     <g transform="translate(413.460938 68.438437)scale(0.1 -0.1)">
      <use xlink:href="#DejaVuSans-74"/>
      <use x="39.208984" xlink:href="#DejaVuSans-61"/>
      <use x="100.488281" xlink:href="#DejaVuSans-72"/>
      <use x="141.585938" xlink:href="#DejaVuSans-67"/>
      <use x="205.0625" xlink:href="#DejaVuSans-65"/>
      <use x="266.585938" xlink:href="#DejaVuSans-74"/>
     </g>
    </g>
    <g id="line2d_17">
     <path d="M 385.460938 79.616562 
L 405.460938 79.616562 
" style="fill:none;stroke:#ff0000;stroke-linecap:square;stroke-width:1.5;"/>
    </g>
    <g id="line2d_18"/>
    <g id="text_16">
     <!-- model -->
     <defs>
      <path d="M 45.40625 46.390625 
L 45.40625 75.984375 
L 54.390625 75.984375 
L 54.390625 0 
L 45.40625 0 
L 45.40625 8.203125 
Q 42.578125 3.328125 38.25 0.953125 
Q 33.9375 -1.421875 27.875 -1.421875 
Q 17.96875 -1.421875 11.734375 6.484375 
Q 5.515625 14.40625 5.515625 27.296875 
Q 5.515625 40.1875 11.734375 48.09375 
Q 17.96875 56 27.875 56 
Q 33.9375 56 38.25 53.625 
Q 42.578125 51.265625 45.40625 46.390625 
z
M 14.796875 27.296875 
Q 14.796875 17.390625 18.875 11.75 
Q 22.953125 6.109375 30.078125 6.109375 
Q 37.203125 6.109375 41.296875 11.75 
Q 45.40625 17.390625 45.40625 27.296875 
Q 45.40625 37.203125 41.296875 42.84375 
Q 37.203125 48.484375 30.078125 48.484375 
Q 22.953125 48.484375 18.875 42.84375 
Q 14.796875 37.203125 14.796875 27.296875 
z
" id="DejaVuSans-64"/>
     </defs>
     <g transform="translate(413.460938 83.116562)scale(0.1 -0.1)">
      <use xlink:href="#DejaVuSans-6d"/>
      <use x="97.412109" xlink:href="#DejaVuSans-6f"/>
      <use x="158.59375" xlink:href="#DejaVuSans-64"/>
      <use x="222.070312" xlink:href="#DejaVuSans-65"/>
      <use x="283.59375" xlink:href="#DejaVuSans-6c"/>
     </g>
    </g>
   </g>
  </g>
 </g>
 <defs>
  <clipPath id="p4a2b393838">
   <rect height="332.64" width="390.6" x="63" y="51.84"/>
  </clipPath>
 </defs>
</svg>
