<?xml version="1.0" encoding="utf-8" standalone="no"?>
<!DOCTYPE svg PUBLIC "-//W3C//DTD SVG 1.1//EN"
  "http://www.w3.org/Graphics/SVG/1.1/DTD/svg11.dtd">
<!-- Created with matplotlib (https://matplotlib.org/) -->
<svg height="432pt" version="1.1" viewBox="0 0 504 432" width="504pt" xmlns="http://www.w3.org/2000/svg" xmlns:xlink="http://www.w3.org/1999/xlink">
 <defs>
  <style type="text/css">
*{stroke-linecap:butt;stroke-linejoin:round;}
  </style>
 </defs>
 <g id="figure_1">
  <g id="patch_1">
   <path d="M 0 432 
L 504 432 
L 504 0 
L 0 0 
z
" style="fill:#ffffff;"/>
  </g>
  <g id="axes_1">
   <g id="patch_2">
    <path d="M 63 384.48 
L 453.6 384.48 
L 453.6 51.84 
L 63 51.84 
z
" style="fill:#ffffff;"/>
   </g>
   <g id="matplotlib.axis_1">
    <g id="xtick_1">
     <g id="line2d_1">
      <defs>
       <path d="M 0 0 
L 0 3.5 
" id="md9559ec94b" style="stroke:#000000;stroke-width:0.8;"/>
      </defs>
      <g>
       <use style="stroke:#000000;stroke-width:0.8;" x="80.754545" xlink:href="#md9559ec94b" y="384.48"/>
      </g>
     </g>
     <g id="text_1">
      <!-- 0 -->
      <defs>
       <path d="M 31.78125 66.40625 
Q 24.171875 66.40625 20.328125 58.90625 
Q 16.5 51.421875 16.5 36.375 
Q 16.5 21.390625 20.328125 13.890625 
Q 24.171875 6.390625 31.78125 6.390625 
Q 39.453125 6.390625 43.28125 13.890625 
Q 47.125 21.390625 47.125 36.375 
Q 47.125 51.421875 43.28125 58.90625 
Q 39.453125 66.40625 31.78125 66.40625 
z
M 31.78125 74.21875 
Q 44.046875 74.21875 50.515625 64.515625 
Q 56.984375 54.828125 56.984375 36.375 
Q 56.984375 17.96875 50.515625 8.265625 
Q 44.046875 -1.421875 31.78125 -1.421875 
Q 19.53125 -1.421875 13.0625 8.265625 
Q 6.59375 17.96875 6.59375 36.375 
Q 6.59375 54.828125 13.0625 64.515625 
Q 19.53125 74.21875 31.78125 74.21875 
z
" id="DejaVuSans-48"/>
      </defs>
      <g transform="translate(77.573295 399.078438)scale(0.1 -0.1)">
       <use xlink:href="#DejaVuSans-48"/>
      </g>
     </g>
    </g>
    <g id="xtick_2">
     <g id="line2d_2">
      <g>
       <use style="stroke:#000000;stroke-width:0.8;" x="151.767796" xlink:href="#md9559ec94b" y="384.48"/>
      </g>
     </g>
     <g id="text_2">
      <!-- 720 -->
      <defs>
       <path d="M 8.203125 72.90625 
L 55.078125 72.90625 
L 55.078125 68.703125 
L 28.609375 0 
L 18.3125 0 
L 43.21875 64.59375 
L 8.203125 64.59375 
z
" id="DejaVuSans-55"/>
       <path d="M 19.1875 8.296875 
L 53.609375 8.296875 
L 53.609375 0 
L 7.328125 0 
L 7.328125 8.296875 
Q 12.9375 14.109375 22.625 23.890625 
Q 32.328125 33.6875 34.8125 36.53125 
Q 39.546875 41.84375 41.421875 45.53125 
Q 43.3125 49.21875 43.3125 52.78125 
Q 43.3125 58.59375 39.234375 62.25 
Q 35.15625 65.921875 28.609375 65.921875 
Q 23.96875 65.921875 18.8125 64.3125 
Q 13.671875 62.703125 7.8125 59.421875 
L 7.8125 69.390625 
Q 13.765625 71.78125 18.9375 73 
Q 24.125 74.21875 28.421875 74.21875 
Q 39.75 74.21875 46.484375 68.546875 
Q 53.21875 62.890625 53.21875 53.421875 
Q 53.21875 48.921875 51.53125 44.890625 
Q 49.859375 40.875 45.40625 35.40625 
Q 44.1875 33.984375 37.640625 27.21875 
Q 31.109375 20.453125 19.1875 8.296875 
z
" id="DejaVuSans-50"/>
      </defs>
      <g transform="translate(142.224046 399.078438)scale(0.1 -0.1)">
       <use xlink:href="#DejaVuSans-55"/>
       <use x="63.623047" xlink:href="#DejaVuSans-50"/>
       <use x="127.246094" xlink:href="#DejaVuSans-48"/>
      </g>
     </g>
    </g>
    <g id="xtick_3">
     <g id="line2d_3">
      <g>
       <use style="stroke:#000000;stroke-width:0.8;" x="222.781046" xlink:href="#md9559ec94b" y="384.48"/>
      </g>
     </g>
     <g id="text_3">
      <!-- 1440 -->
      <defs>
       <path d="M 12.40625 8.296875 
L 28.515625 8.296875 
L 28.515625 63.921875 
L 10.984375 60.40625 
L 10.984375 69.390625 
L 28.421875 72.90625 
L 38.28125 72.90625 
L 38.28125 8.296875 
L 54.390625 8.296875 
L 54.390625 0 
L 12.40625 0 
z
" id="DejaVuSans-49"/>
       <path d="M 37.796875 64.3125 
L 12.890625 25.390625 
L 37.796875 25.390625 
z
M 35.203125 72.90625 
L 47.609375 72.90625 
L 47.609375 25.390625 
L 58.015625 25.390625 
L 58.015625 17.1875 
L 47.609375 17.1875 
L 47.609375 0 
L 37.796875 0 
L 37.796875 17.1875 
L 4.890625 17.1875 
L 4.890625 26.703125 
z
" id="DejaVuSans-52"/>
      </defs>
      <g transform="translate(210.056046 399.078438)scale(0.1 -0.1)">
       <use xlink:href="#DejaVuSans-49"/>
       <use x="63.623047" xlink:href="#DejaVuSans-52"/>
       <use x="127.246094" xlink:href="#DejaVuSans-52"/>
       <use x="190.869141" xlink:href="#DejaVuSans-48"/>
      </g>
     </g>
    </g>
    <g id="xtick_4">
     <g id="line2d_4">
      <g>
       <use style="stroke:#000000;stroke-width:0.8;" x="293.794296" xlink:href="#md9559ec94b" y="384.48"/>
      </g>
     </g>
     <g id="text_4">
      <!-- 2160 -->
      <defs>
       <path d="M 33.015625 40.375 
Q 26.375 40.375 22.484375 35.828125 
Q 18.609375 31.296875 18.609375 23.390625 
Q 18.609375 15.53125 22.484375 10.953125 
Q 26.375 6.390625 33.015625 6.390625 
Q 39.65625 6.390625 43.53125 10.953125 
Q 47.40625 15.53125 47.40625 23.390625 
Q 47.40625 31.296875 43.53125 35.828125 
Q 39.65625 40.375 33.015625 40.375 
z
M 52.59375 71.296875 
L 52.59375 62.3125 
Q 48.875 64.0625 45.09375 64.984375 
Q 41.3125 65.921875 37.59375 65.921875 
Q 27.828125 65.921875 22.671875 59.328125 
Q 17.53125 52.734375 16.796875 39.40625 
Q 19.671875 43.65625 24.015625 45.921875 
Q 28.375 48.1875 33.59375 48.1875 
Q 44.578125 48.1875 50.953125 41.515625 
Q 57.328125 34.859375 57.328125 23.390625 
Q 57.328125 12.15625 50.6875 5.359375 
Q 44.046875 -1.421875 33.015625 -1.421875 
Q 20.359375 -1.421875 13.671875 8.265625 
Q 6.984375 17.96875 6.984375 36.375 
Q 6.984375 53.65625 15.1875 63.9375 
Q 23.390625 74.21875 37.203125 74.21875 
Q 40.921875 74.21875 44.703125 73.484375 
Q 48.484375 72.75 52.59375 71.296875 
z
" id="DejaVuSans-54"/>
      </defs>
      <g transform="translate(281.069296 399.078438)scale(0.1 -0.1)">
       <use xlink:href="#DejaVuSans-50"/>
       <use x="63.623047" xlink:href="#DejaVuSans-49"/>
       <use x="127.246094" xlink:href="#DejaVuSans-54"/>
       <use x="190.869141" xlink:href="#DejaVuSans-48"/>
      </g>
     </g>
    </g>
    <g id="xtick_5">
     <g id="line2d_5">
      <g>
       <use style="stroke:#000000;stroke-width:0.8;" x="364.807547" xlink:href="#md9559ec94b" y="384.48"/>
      </g>
     </g>
     <g id="text_5">
      <!-- 2880 -->
      <defs>
       <path d="M 31.78125 34.625 
Q 24.75 34.625 20.71875 30.859375 
Q 16.703125 27.09375 16.703125 20.515625 
Q 16.703125 13.921875 20.71875 10.15625 
Q 24.75 6.390625 31.78125 6.390625 
Q 38.8125 6.390625 42.859375 10.171875 
Q 46.921875 13.96875 46.921875 20.515625 
Q 46.921875 27.09375 42.890625 30.859375 
Q 38.875 34.625 31.78125 34.625 
z
M 21.921875 38.8125 
Q 15.578125 40.375 12.03125 44.71875 
Q 8.5 49.078125 8.5 55.328125 
Q 8.5 64.0625 14.71875 69.140625 
Q 20.953125 74.21875 31.78125 74.21875 
Q 42.671875 74.21875 48.875 69.140625 
Q 55.078125 64.0625 55.078125 55.328125 
Q 55.078125 49.078125 51.53125 44.71875 
Q 48 40.375 41.703125 38.8125 
Q 48.828125 37.15625 52.796875 32.3125 
Q 56.78125 27.484375 56.78125 20.515625 
Q 56.78125 9.90625 50.3125 4.234375 
Q 43.84375 -1.421875 31.78125 -1.421875 
Q 19.734375 -1.421875 13.25 4.234375 
Q 6.78125 9.90625 6.78125 20.515625 
Q 6.78125 27.484375 10.78125 32.3125 
Q 14.796875 37.15625 21.921875 38.8125 
z
M 18.3125 54.390625 
Q 18.3125 48.734375 21.84375 45.5625 
Q 25.390625 42.390625 31.78125 42.390625 
Q 38.140625 42.390625 41.71875 45.5625 
Q 45.3125 48.734375 45.3125 54.390625 
Q 45.3125 60.0625 41.71875 63.234375 
Q 38.140625 66.40625 31.78125 66.40625 
Q 25.390625 66.40625 21.84375 63.234375 
Q 18.3125 60.0625 18.3125 54.390625 
z
" id="DejaVuSans-56"/>
      </defs>
      <g transform="translate(352.082547 399.078438)scale(0.1 -0.1)">
       <use xlink:href="#DejaVuSans-50"/>
       <use x="63.623047" xlink:href="#DejaVuSans-56"/>
       <use x="127.246094" xlink:href="#DejaVuSans-56"/>
       <use x="190.869141" xlink:href="#DejaVuSans-48"/>
      </g>
     </g>
    </g>
    <g id="text_6">
     <!-- time [ms] -->
     <defs>
      <path d="M 18.3125 70.21875 
L 18.3125 54.6875 
L 36.8125 54.6875 
L 36.8125 47.703125 
L 18.3125 47.703125 
L 18.3125 18.015625 
Q 18.3125 11.328125 20.140625 9.421875 
Q 21.96875 7.515625 27.59375 7.515625 
L 36.8125 7.515625 
L 36.8125 0 
L 27.59375 0 
Q 17.1875 0 13.234375 3.875 
Q 9.28125 7.765625 9.28125 18.015625 
L 9.28125 47.703125 
L 2.6875 47.703125 
L 2.6875 54.6875 
L 9.28125 54.6875 
L 9.28125 70.21875 
z
" id="DejaVuSans-116"/>
      <path d="M 9.421875 54.6875 
L 18.40625 54.6875 
L 18.40625 0 
L 9.421875 0 
z
M 9.421875 75.984375 
L 18.40625 75.984375 
L 18.40625 64.59375 
L 9.421875 64.59375 
z
" id="DejaVuSans-105"/>
      <path d="M 52 44.1875 
Q 55.375 50.25 60.0625 53.125 
Q 64.75 56 71.09375 56 
Q 79.640625 56 84.28125 50.015625 
Q 88.921875 44.046875 88.921875 33.015625 
L 88.921875 0 
L 79.890625 0 
L 79.890625 32.71875 
Q 79.890625 40.578125 77.09375 44.375 
Q 74.3125 48.1875 68.609375 48.1875 
Q 61.625 48.1875 57.5625 43.546875 
Q 53.515625 38.921875 53.515625 30.90625 
L 53.515625 0 
L 44.484375 0 
L 44.484375 32.71875 
Q 44.484375 40.625 41.703125 44.40625 
Q 38.921875 48.1875 33.109375 48.1875 
Q 26.21875 48.1875 22.15625 43.53125 
Q 18.109375 38.875 18.109375 30.90625 
L 18.109375 0 
L 9.078125 0 
L 9.078125 54.6875 
L 18.109375 54.6875 
L 18.109375 46.1875 
Q 21.1875 51.21875 25.484375 53.609375 
Q 29.78125 56 35.6875 56 
Q 41.65625 56 45.828125 52.96875 
Q 50 49.953125 52 44.1875 
z
" id="DejaVuSans-109"/>
      <path d="M 56.203125 29.59375 
L 56.203125 25.203125 
L 14.890625 25.203125 
Q 15.484375 15.921875 20.484375 11.0625 
Q 25.484375 6.203125 34.421875 6.203125 
Q 39.59375 6.203125 44.453125 7.46875 
Q 49.3125 8.734375 54.109375 11.28125 
L 54.109375 2.78125 
Q 49.265625 0.734375 44.1875 -0.34375 
Q 39.109375 -1.421875 33.890625 -1.421875 
Q 20.796875 -1.421875 13.15625 6.1875 
Q 5.515625 13.8125 5.515625 26.8125 
Q 5.515625 40.234375 12.765625 48.109375 
Q 20.015625 56 32.328125 56 
Q 43.359375 56 49.78125 48.890625 
Q 56.203125 41.796875 56.203125 29.59375 
z
M 47.21875 32.234375 
Q 47.125 39.59375 43.09375 43.984375 
Q 39.0625 48.390625 32.421875 48.390625 
Q 24.90625 48.390625 20.390625 44.140625 
Q 15.875 39.890625 15.1875 32.171875 
z
" id="DejaVuSans-101"/>
      <path id="DejaVuSans-32"/>
      <path d="M 8.59375 75.984375 
L 29.296875 75.984375 
L 29.296875 69 
L 17.578125 69 
L 17.578125 -6.203125 
L 29.296875 -6.203125 
L 29.296875 -13.1875 
L 8.59375 -13.1875 
z
" id="DejaVuSans-91"/>
      <path d="M 44.28125 53.078125 
L 44.28125 44.578125 
Q 40.484375 46.53125 36.375 47.5 
Q 32.28125 48.484375 27.875 48.484375 
Q 21.1875 48.484375 17.84375 46.4375 
Q 14.5 44.390625 14.5 40.28125 
Q 14.5 37.15625 16.890625 35.375 
Q 19.28125 33.59375 26.515625 31.984375 
L 29.59375 31.296875 
Q 39.15625 29.25 43.1875 25.515625 
Q 47.21875 21.78125 47.21875 15.09375 
Q 47.21875 7.46875 41.1875 3.015625 
Q 35.15625 -1.421875 24.609375 -1.421875 
Q 20.21875 -1.421875 15.453125 -0.5625 
Q 10.6875 0.296875 5.421875 2 
L 5.421875 11.28125 
Q 10.40625 8.6875 15.234375 7.390625 
Q 20.0625 6.109375 24.8125 6.109375 
Q 31.15625 6.109375 34.5625 8.28125 
Q 37.984375 10.453125 37.984375 14.40625 
Q 37.984375 18.0625 35.515625 20.015625 
Q 33.0625 21.96875 24.703125 23.78125 
L 21.578125 24.515625 
Q 13.234375 26.265625 9.515625 29.90625 
Q 5.8125 33.546875 5.8125 39.890625 
Q 5.8125 47.609375 11.28125 51.796875 
Q 16.75 56 26.8125 56 
Q 31.78125 56 36.171875 55.265625 
Q 40.578125 54.546875 44.28125 53.078125 
z
" id="DejaVuSans-115"/>
      <path d="M 30.421875 75.984375 
L 30.421875 -13.1875 
L 9.71875 -13.1875 
L 9.71875 -6.203125 
L 21.390625 -6.203125 
L 21.390625 69 
L 9.71875 69 
L 9.71875 75.984375 
z
" id="DejaVuSans-93"/>
     </defs>
     <g transform="translate(234.038281 412.756563)scale(0.1 -0.1)">
      <use xlink:href="#DejaVuSans-116"/>
      <use x="39.208984" xlink:href="#DejaVuSans-105"/>
      <use x="66.992188" xlink:href="#DejaVuSans-109"/>
      <use x="164.404297" xlink:href="#DejaVuSans-101"/>
      <use x="225.927734" xlink:href="#DejaVuSans-32"/>
      <use x="257.714844" xlink:href="#DejaVuSans-91"/>
      <use x="296.728516" xlink:href="#DejaVuSans-109"/>
      <use x="394.140625" xlink:href="#DejaVuSans-115"/>
      <use x="446.240234" xlink:href="#DejaVuSans-93"/>
     </g>
    </g>
   </g>
   <g id="matplotlib.axis_2">
    <g id="ytick_1">
     <g id="line2d_6">
      <defs>
       <path d="M 0 0 
L -3.5 0 
" id="mbdc9dba8a1" style="stroke:#000000;stroke-width:0.8;"/>
      </defs>
      <g>
       <use style="stroke:#000000;stroke-width:0.8;" x="63" xlink:href="#mbdc9dba8a1" y="365.476067"/>
      </g>
     </g>
     <g id="text_7">
      <!-- −80 -->
      <defs>
       <path d="M 10.59375 35.5 
L 73.1875 35.5 
L 73.1875 27.203125 
L 10.59375 27.203125 
z
" id="DejaVuSans-8722"/>
      </defs>
      <g transform="translate(34.895313 369.275286)scale(0.1 -0.1)">
       <use xlink:href="#DejaVuSans-8722"/>
       <use x="83.789062" xlink:href="#DejaVuSans-56"/>
       <use x="147.412109" xlink:href="#DejaVuSans-48"/>
      </g>
     </g>
    </g>
    <g id="ytick_2">
     <g id="line2d_7">
      <g>
       <use style="stroke:#000000;stroke-width:0.8;" x="63" xlink:href="#mbdc9dba8a1" y="313.287967"/>
      </g>
     </g>
     <g id="text_8">
      <!-- −60 -->
      <g transform="translate(34.895313 317.087186)scale(0.1 -0.1)">
       <use xlink:href="#DejaVuSans-8722"/>
       <use x="83.789062" xlink:href="#DejaVuSans-54"/>
       <use x="147.412109" xlink:href="#DejaVuSans-48"/>
      </g>
     </g>
    </g>
    <g id="ytick_3">
     <g id="line2d_8">
      <g>
       <use style="stroke:#000000;stroke-width:0.8;" x="63" xlink:href="#mbdc9dba8a1" y="261.099867"/>
      </g>
     </g>
     <g id="text_9">
      <!-- −40 -->
      <g transform="translate(34.895313 264.899085)scale(0.1 -0.1)">
       <use xlink:href="#DejaVuSans-8722"/>
       <use x="83.789062" xlink:href="#DejaVuSans-52"/>
       <use x="147.412109" xlink:href="#DejaVuSans-48"/>
      </g>
     </g>
    </g>
    <g id="ytick_4">
     <g id="line2d_9">
      <g>
       <use style="stroke:#000000;stroke-width:0.8;" x="63" xlink:href="#mbdc9dba8a1" y="208.911766"/>
      </g>
     </g>
     <g id="text_10">
      <!-- −20 -->
      <g transform="translate(34.895313 212.710985)scale(0.1 -0.1)">
       <use xlink:href="#DejaVuSans-8722"/>
       <use x="83.789062" xlink:href="#DejaVuSans-50"/>
       <use x="147.412109" xlink:href="#DejaVuSans-48"/>
      </g>
     </g>
    </g>
    <g id="ytick_5">
     <g id="line2d_10">
      <g>
       <use style="stroke:#000000;stroke-width:0.8;" x="63" xlink:href="#mbdc9dba8a1" y="156.723666"/>
      </g>
     </g>
     <g id="text_11">
      <!-- 0 -->
      <g transform="translate(49.6375 160.522885)scale(0.1 -0.1)">
       <use xlink:href="#DejaVuSans-48"/>
      </g>
     </g>
    </g>
    <g id="ytick_6">
     <g id="line2d_11">
      <g>
       <use style="stroke:#000000;stroke-width:0.8;" x="63" xlink:href="#mbdc9dba8a1" y="104.535566"/>
      </g>
     </g>
     <g id="text_12">
      <!-- 20 -->
      <g transform="translate(43.275 108.334785)scale(0.1 -0.1)">
       <use xlink:href="#DejaVuSans-50"/>
       <use x="63.623047" xlink:href="#DejaVuSans-48"/>
      </g>
     </g>
    </g>
    <g id="ytick_7">
     <g id="line2d_12">
      <g>
       <use style="stroke:#000000;stroke-width:0.8;" x="63" xlink:href="#mbdc9dba8a1" y="52.347466"/>
      </g>
     </g>
     <g id="text_13">
      <!-- 40 -->
      <g transform="translate(43.275 56.146684)scale(0.1 -0.1)">
       <use xlink:href="#DejaVuSans-52"/>
       <use x="63.623047" xlink:href="#DejaVuSans-48"/>
      </g>
     </g>
    </g>
    <g id="text_14">
     <!-- Voltage [mV] -->
     <defs>
      <path d="M 28.609375 0 
L 0.78125 72.90625 
L 11.078125 72.90625 
L 34.1875 11.53125 
L 57.328125 72.90625 
L 67.578125 72.90625 
L 39.796875 0 
z
" id="DejaVuSans-86"/>
      <path d="M 30.609375 48.390625 
Q 23.390625 48.390625 19.1875 42.75 
Q 14.984375 37.109375 14.984375 27.296875 
Q 14.984375 17.484375 19.15625 11.84375 
Q 23.34375 6.203125 30.609375 6.203125 
Q 37.796875 6.203125 41.984375 11.859375 
Q 46.1875 17.53125 46.1875 27.296875 
Q 46.1875 37.015625 41.984375 42.703125 
Q 37.796875 48.390625 30.609375 48.390625 
z
M 30.609375 56 
Q 42.328125 56 49.015625 48.375 
Q 55.71875 40.765625 55.71875 27.296875 
Q 55.71875 13.875 49.015625 6.21875 
Q 42.328125 -1.421875 30.609375 -1.421875 
Q 18.84375 -1.421875 12.171875 6.21875 
Q 5.515625 13.875 5.515625 27.296875 
Q 5.515625 40.765625 12.171875 48.375 
Q 18.84375 56 30.609375 56 
z
" id="DejaVuSans-111"/>
      <path d="M 9.421875 75.984375 
L 18.40625 75.984375 
L 18.40625 0 
L 9.421875 0 
z
" id="DejaVuSans-108"/>
      <path d="M 34.28125 27.484375 
Q 23.390625 27.484375 19.1875 25 
Q 14.984375 22.515625 14.984375 16.5 
Q 14.984375 11.71875 18.140625 8.90625 
Q 21.296875 6.109375 26.703125 6.109375 
Q 34.1875 6.109375 38.703125 11.40625 
Q 43.21875 16.703125 43.21875 25.484375 
L 43.21875 27.484375 
z
M 52.203125 31.203125 
L 52.203125 0 
L 43.21875 0 
L 43.21875 8.296875 
Q 40.140625 3.328125 35.546875 0.953125 
Q 30.953125 -1.421875 24.3125 -1.421875 
Q 15.921875 -1.421875 10.953125 3.296875 
Q 6 8.015625 6 15.921875 
Q 6 25.140625 12.171875 29.828125 
Q 18.359375 34.515625 30.609375 34.515625 
L 43.21875 34.515625 
L 43.21875 35.40625 
Q 43.21875 41.609375 39.140625 45 
Q 35.0625 48.390625 27.6875 48.390625 
Q 23 48.390625 18.546875 47.265625 
Q 14.109375 46.140625 10.015625 43.890625 
L 10.015625 52.203125 
Q 14.9375 54.109375 19.578125 55.046875 
Q 24.21875 56 28.609375 56 
Q 40.484375 56 46.34375 49.84375 
Q 52.203125 43.703125 52.203125 31.203125 
z
" id="DejaVuSans-97"/>
      <path d="M 45.40625 27.984375 
Q 45.40625 37.75 41.375 43.109375 
Q 37.359375 48.484375 30.078125 48.484375 
Q 22.859375 48.484375 18.828125 43.109375 
Q 14.796875 37.75 14.796875 27.984375 
Q 14.796875 18.265625 18.828125 12.890625 
Q 22.859375 7.515625 30.078125 7.515625 
Q 37.359375 7.515625 41.375 12.890625 
Q 45.40625 18.265625 45.40625 27.984375 
z
M 54.390625 6.78125 
Q 54.390625 -7.171875 48.1875 -13.984375 
Q 42 -20.796875 29.203125 -20.796875 
Q 24.46875 -20.796875 20.265625 -20.09375 
Q 16.0625 -19.390625 12.109375 -17.921875 
L 12.109375 -9.1875 
Q 16.0625 -11.328125 19.921875 -12.34375 
Q 23.78125 -13.375 27.78125 -13.375 
Q 36.625 -13.375 41.015625 -8.765625 
Q 45.40625 -4.15625 45.40625 5.171875 
L 45.40625 9.625 
Q 42.625 4.78125 38.28125 2.390625 
Q 33.9375 0 27.875 0 
Q 17.828125 0 11.671875 7.65625 
Q 5.515625 15.328125 5.515625 27.984375 
Q 5.515625 40.671875 11.671875 48.328125 
Q 17.828125 56 27.875 56 
Q 33.9375 56 38.28125 53.609375 
Q 42.625 51.21875 45.40625 46.390625 
L 45.40625 54.6875 
L 54.390625 54.6875 
z
" id="DejaVuSans-103"/>
     </defs>
     <g transform="translate(28.815625 251.079531)rotate(-90)scale(0.1 -0.1)">
      <use xlink:href="#DejaVuSans-86"/>
      <use x="68.298828" xlink:href="#DejaVuSans-111"/>
      <use x="129.480469" xlink:href="#DejaVuSans-108"/>
      <use x="157.263672" xlink:href="#DejaVuSans-116"/>
      <use x="196.472656" xlink:href="#DejaVuSans-97"/>
      <use x="257.751953" xlink:href="#DejaVuSans-103"/>
      <use x="321.228516" xlink:href="#DejaVuSans-101"/>
      <use x="382.751953" xlink:href="#DejaVuSans-32"/>
      <use x="414.539062" xlink:href="#DejaVuSans-91"/>
      <use x="453.552734" xlink:href="#DejaVuSans-109"/>
      <use x="550.964844" xlink:href="#DejaVuSans-86"/>
      <use x="619.373047" xlink:href="#DejaVuSans-93"/>
     </g>
    </g>
   </g>
   <g id="line2d_13">
    <path clip-path="url(#p3d2080915e)" d="M 80.754545 326.334992 
L 81.193447 326.451075 
L 82.327686 326.701379 
L 83.935347 326.790023 
L 88.679427 326.727444 
L 100.480448 326.681222 
L 100.638256 342.377146 
L 100.998253 354.887055 
L 101.471675 364.428764 
L 101.851399 368.327418 
L 102.12263 369.315303 
L 102.25578 369.33456 
L 102.270574 369.320161 
L 102.428381 368.985255 
L 102.704544 367.766389 
L 103.32591 363.716646 
L 104.105083 359.215231 
L 104.657408 357.227169 
L 105.135761 356.249856 
L 105.569731 355.821332 
L 105.993838 355.702992 
L 106.491917 355.809282 
L 107.310542 356.25344 
L 108.750533 357.009666 
L 109.731897 357.252971 
L 110.94504 357.307287 
L 122.085243 357.169524 
L 130.069303 357.168093 
L 130.222178 342.044838 
L 130.557519 331.238746 
L 131.006283 323.329304 
L 131.455047 318.951724 
L 131.879154 316.743502 
L 132.263809 315.762341 
L 132.594218 315.437272 
L 132.890107 315.433993 
L 133.230379 315.675351 
L 133.713663 316.328661 
L 134.561877 317.920875 
L 136.361866 321.293285 
L 137.461585 322.857629 
L 138.531715 324.002898 
L 139.631434 324.859333 
L 139.932254 325.04683 
L 140.045678 326.351395 
L 142.575525 326.778659 
L 145.519616 326.765614 
L 156.122289 326.684055 
L 159.663088 326.681222 
L 159.820896 323.540896 
L 160.180893 321.038038 
L 160.70363 318.863518 
L 161.255955 317.448762 
L 161.823075 316.572873 
L 162.40992 316.057692 
L 163.065807 315.775951 
L 163.884432 315.676409 
L 165.132095 315.773874 
L 171.321097 316.498883 
L 175.892575 316.660027 
L 185.651965 316.731551 
L 189.251943 316.736903 
L 189.40975 319.882842 
L 189.769748 322.383362 
L 190.287553 324.521426 
L 190.839878 325.920918 
L 191.402066 326.777811 
L 191.988912 327.284557 
L 192.644798 327.55845 
L 193.468354 327.650954 
L 194.750538 327.543712 
L 199.114894 326.984685 
L 199.119826 326.334992 
L 199.228318 326.351395 
L 201.758165 326.778659 
L 204.702256 326.765614 
L 215.304929 326.684055 
L 218.845729 326.681222 
L 219.003536 320.399252 
L 219.363533 315.383188 
L 219.891201 310.951132 
L 220.473116 307.843832 
L 221.163522 305.369561 
L 221.607355 303.603828 
L 221.65667 302.504903 
L 221.676396 268.513076 
L 221.735573 69.197566 
L 221.814477 168.301321 
L 222.021599 312.753227 
L 222.199132 317.751523 
L 222.302693 318.047288 
L 222.347076 318.005722 
L 222.490089 317.527185 
L 222.938853 314.948867 
L 223.678575 311.180338 
L 224.26542 309.287195 
L 224.847334 308.113817 
L 225.458837 307.3593 
L 226.129518 306.878488 
L 226.923486 306.587624 
L 227.97389 306.453865 
L 229.694975 306.489198 
L 237.26479 306.81533 
L 247.285549 306.856507 
L 248.434583 306.855754 
L 248.59239 313.206838 
L 248.947456 318.213054 
L 249.450467 322.368599 
L 249.983066 325.051054 
L 250.515666 326.681462 
L 251.048265 327.645235 
L 251.585796 328.181272 
L 252.157847 328.443665 
L 252.843322 328.505626 
L 253.834549 328.349489 
L 258.297534 327.307472 
L 258.302466 326.334992 
L 258.410958 326.351395 
L 260.940805 326.778659 
L 263.884896 326.765614 
L 274.487569 326.684055 
L 278.028369 326.681222 
L 278.186176 317.255221 
L 278.551105 309.604748 
L 279.142882 301.839776 
L 279.473291 296.766573 
L 279.493017 289.393475 
L 279.557126 68.00676 
L 279.640961 173.531017 
L 279.848083 310.513443 
L 280.015753 314.283254 
L 280.045342 314.309536 
L 280.094657 314.204937 
L 280.252464 313.189798 
L 281.026706 305.743017 
L 281.74177 300.453546 
L 282.506149 294.957515 
L 282.565326 292.957724 
L 282.580121 279.386462 
L 282.64423 74.209497 
L 282.718202 161.716833 
L 282.930255 310.366797 
L 283.102857 314.65799 
L 283.14724 314.720254 
L 283.201487 314.607948 
L 283.364225 313.61757 
L 285.040927 301.259249 
L 285.780648 298.409055 
L 286.52037 295.509242 
L 286.673246 293.823046 
L 286.702834 291.35001 
L 286.737355 195.354447 
L 286.781738 79.275827 
L 286.850779 157.395755 
L 287.062832 306.872106 
L 287.240365 312.160826 
L 287.3242 312.394888 
L 287.378447 312.321447 
L 287.531322 311.638449 
L 288.088579 307.662933 
L 288.783917 303.548947 
L 289.415146 301.097978 
L 290.115416 299.253949 
L 291.175683 297.170016 
L 291.73294 295.845008 
L 291.959788 294.698244 
L 292.043623 293.111778 
L 292.058417 288.656956 
L 292.137321 83.190042 
L 292.226087 186.217683 
L 292.428278 305.669415 
L 292.610742 310.730098 
L 292.719235 311.039345 
L 292.758687 311.002614 
L 292.891836 310.569593 
L 293.281423 308.293303 
L 294.095117 303.862226 
L 294.726345 301.642715 
L 295.406889 300.041051 
L 296.230445 298.675242 
L 298.010708 295.921506 
L 298.237556 294.950946 
L 298.331254 293.561239 
L 298.35098 288.68489 
L 298.429884 85.622303 
L 298.51865 184.244532 
L 298.720841 304.211518 
L 298.903305 309.713007 
L 299.041387 310.18021 
L 299.066044 310.166098 
L 299.179468 309.8978 
L 299.475357 308.459918 
L 300.476446 303.480516 
L 301.112606 301.512847 
L 301.812876 300.054918 
L 302.670953 298.790318 
L 304.653406 296.074261 
L 304.890117 295.184444 
L 304.998609 293.830935 
L 305.018335 291.3471 
L 305.057787 173.147315 
L 305.10217 87.344081 
L 305.171211 159.286276 
L 305.388196 302.848663 
L 305.57066 308.90504 
L 305.733399 309.541183 
L 305.743262 309.538915 
L 305.841892 309.377663 
L 306.078602 308.422539 
L 307.360786 302.676904 
L 307.617223 301.934185 
L 307.770099 310.940388 
L 308.100508 317.319904 
L 308.573929 322.432556 
L 309.081871 325.688413 
L 309.594745 327.642767 
L 310.097755 328.752178 
L 310.590903 329.340837 
L 311.093913 329.611191 
L 311.670896 329.663429 
L 312.445138 329.491951 
L 313.978827 328.869283 
L 316.202922 328.038355 
L 317.480174 327.698847 
L 317.485106 326.334992 
L 317.593598 326.351395 
L 320.123445 326.778659 
L 323.067536 326.765614 
L 333.670209 326.684055 
L 337.211009 326.681222 
L 337.368816 314.107292 
L 337.738677 303.639094 
L 338.182509 291.62494 
L 338.197304 274.481018 
L 338.256482 67.214222 
L 338.335385 167.246774 
L 338.542507 307.666573 
L 338.690451 310.877933 
L 338.700314 310.874089 
L 338.759492 310.638292 
L 338.946888 308.68589 
L 340.105785 292.300045 
L 340.243866 287.893466 
L 340.268524 279.50667 
L 340.332633 73.097202 
L 340.411536 171.383806 
L 340.618658 311.234495 
L 340.761671 314.169995 
L 340.776466 314.156802 
L 340.850438 313.765436 
L 341.082217 310.960384 
L 342.645495 287.264545 
L 342.665221 277.636196 
L 342.734262 78.483339 
L 342.803302 160.947399 
L 343.015356 308.099983 
L 343.178094 311.816225 
L 343.202752 311.803133 
L 343.227409 311.731872 
L 343.360559 310.735315 
L 343.833981 304.834031 
L 344.692057 295.274513 
L 345.10137 290.0456 
L 345.180273 286.198854 
L 345.195068 274.037642 
L 345.264109 82.260666 
L 345.333149 159.010185 
L 345.545203 305.701232 
L 345.712873 310.088481 
L 345.742462 310.126028 
L 345.796708 309.99755 
L 345.954515 308.835652 
L 346.679442 300.817037 
L 347.803819 288.050604 
L 347.838339 279.944614 
L 347.912311 85.060547 
L 347.986283 166.580517 
L 348.198337 304.242792 
L 348.370938 308.721873 
L 348.415322 308.787274 
L 348.469568 308.664493 
L 348.632306 307.583139 
L 349.34737 300.435396 
L 350.530925 288.402384 
L 350.570376 283.626917 
L 350.64928 86.918554 
L 350.74791 197.74525 
L 350.945169 303.727025 
L 351.11777 307.892763 
L 351.167085 307.979991 
L 351.221331 307.878687 
L 351.379138 306.944426 
L 351.95119 301.599621 
L 352.828992 294.475508 
L 353.258031 290.363059 
L 353.361592 287.229047 
L 353.386249 274.962266 
L 353.45529 88.075594 
L 353.52433 153.778971 
L 353.746247 302.120523 
L 353.92378 307.191009 
L 353.992821 307.359569 
L 354.047067 307.265751 
L 354.199943 306.433069 
L 354.712816 301.925739 
L 355.59555 295.002174 
L 356.103492 290.584557 
L 356.221848 287.361915 
L 356.246505 278.373586 
L 356.320477 88.794354 
L 356.389518 158.046393 
L 356.606503 301.277655 
L 356.784036 306.647946 
L 356.862939 306.880411 
L 356.917186 306.800737 
L 357.06513 306.060003 
L 357.528689 302.196882 
L 358.441012 295.218839 
L 358.988405 290.703143 
L 359.111692 287.683765 
L 359.13635 283.563623 
L 359.215253 89.293883 
L 359.313883 194.980413 
L 359.511142 301.606236 
L 359.688675 306.40656 
L 359.767579 306.613226 
L 359.821825 306.531232 
L 359.974701 305.776794 
L 360.457985 301.842266 
L 361.370308 295.073795 
L 361.902908 290.763804 
L 362.031126 287.692058 
L 362.055783 283.461234 
L 362.134687 89.606038 
L 362.233316 194.796368 
L 362.435507 301.626334 
L 362.61304 306.20749 
L 362.691944 306.412515 
L 362.74619 306.335615 
L 362.894134 305.636401 
L 363.34783 302.041396 
L 364.279879 295.193051 
L 364.832204 290.835934 
L 364.965354 287.748949 
L 364.990011 283.881479 
L 365.068915 89.765092 
L 365.172476 199.605101 
L 365.369735 301.304637 
L 365.5522 306.028604 
L 365.631103 306.23042 
L 365.68535 306.156658 
L 365.833294 305.474464 
L 366.282058 301.983726 
L 366.799863 297.997505 
L 366.952739 309.551659 
L 367.268353 316.877276 
L 367.722049 322.570996 
L 368.215197 326.193621 
L 368.713276 328.348318 
L 369.201492 329.558606 
L 369.674913 330.185251 
L 370.148335 330.46108 
L 370.671071 330.505134 
L 371.356547 330.321821 
L 372.559827 329.727538 
L 374.986113 328.539391 
L 376.662814 327.97045 
L 376.667746 326.334992 
L 376.776238 326.351395 
L 379.306085 326.778659 
L 382.250176 326.765614 
L 392.852849 326.684055 
L 396.393649 326.681222 
L 396.551456 310.953164 
L 396.950906 296.372477 
L 397.09885 288.511013 
L 397.118576 249.292895 
L 397.172822 66.96 
L 397.251726 170.882587 
L 397.453916 304.920507 
L 397.577203 307.583988 
L 397.606792 307.498524 
L 397.725147 306.273229 
L 398.154186 298.660838 
L 398.657196 287.051003 
L 398.706511 280.512714 
L 398.775552 72.736056 
L 398.874181 204.425286 
L 399.061577 311.849894 
L 399.165138 313.714381 
L 399.20459 313.566499 
L 399.342671 311.824972 
L 399.90486 300.632217 
L 400.536088 286.089059 
L 400.570609 279.285117 
L 400.639649 78.152019 
L 400.723484 181.904667 
L 400.925675 308.798813 
L 401.04403 311.205624 
L 401.078551 311.120409 
L 401.196906 309.927364 
L 401.61115 302.674888 
L 402.434707 285.344541 
L 402.464295 277.729725 
L 402.533336 82.05191 
L 402.61224 173.212169 
L 402.819362 306.500319 
L 402.957443 309.419241 
L 402.977169 309.387669 
L 403.065935 308.752577 
L 403.34703 304.640104 
L 404.343188 286.1404 
L 404.387571 278.085958 
L 404.456612 84.933322 
L 404.535515 169.979636 
L 404.747569 304.936468 
L 404.895513 308.088281 
L 404.910307 308.075335 
L 404.98428 307.678924 
L 405.211127 304.864802 
L 406.246737 287.846558 
L 406.330572 282.548476 
L 406.350298 245.062443 
L 406.409476 86.759644 
L 406.483448 163.115323 
L 406.695502 303.280736 
L 406.85824 307.110888 
L 406.902624 307.020507 
L 407.030842 305.974619 
L 407.450017 300.114248 
L 408.263711 286.353432 
L 408.313026 279.942243 
L 408.386998 87.889998 
L 408.485627 195.378956 
L 408.682886 303.110127 
L 408.850556 306.475422 
L 408.899871 306.34555 
L 409.047815 305.08353 
L 409.56562 297.999501 
L 410.251096 286.799239 
L 410.310273 280.914306 
L 410.344794 174.886655 
L 410.389177 88.827647 
L 410.458218 161.19135 
L 410.675202 301.821053 
L 410.842873 305.857184 
L 410.862599 305.865624 
L 410.90205 305.76952 
L 411.040132 304.713202 
L 411.483964 298.982565 
L 412.263138 286.819971 
L 412.322315 281.407533 
L 412.351904 203.54629 
L 412.401219 89.205239 
L 412.47026 159.064811 
L 412.687245 301.185532 
L 412.854915 305.488598 
L 412.879572 305.513638 
L 412.928887 305.392307 
L 413.076831 304.235309 
L 413.569979 297.965304 
L 414.285043 287.033245 
L 414.349152 281.941872 
L 414.373809 225.029305 
L 414.428056 89.520547 
L 414.502028 163.320479 
L 414.719013 301.145368 
L 414.886683 305.323892 
L 414.916272 305.349231 
L 414.960655 305.238199 
L 415.108599 304.115601 
L 415.586952 298.152741 
L 416.326674 287.051718 
L 416.390783 282.109637 
L 416.41544 226.37331 
L 416.469686 89.761636 
L 416.543659 162.554569 
L 416.760644 300.832798 
L 416.933245 305.149139 
L 416.962834 305.171939 
L 417.007217 305.061632 
L 417.155162 303.958674 
L 417.628583 298.151133 
L 418.373236 287.183752 
L 418.442277 281.881853 
L 418.466934 224.366107 
L 418.52118 89.853588 
L 418.595152 163.286823 
L 418.812137 300.641928 
L 418.984739 304.983778 
L 419.014328 305.013454 
L 419.063643 304.893787 
L 419.211587 303.795484 
L 419.68994 297.995571 
L 420.429661 287.194936 
L 420.498702 282.025495 
L 420.523359 225.51815 
L 420.577606 89.954809 
L 420.651578 162.70822 
L 420.868563 300.47876 
L 421.041164 304.89835 
L 421.070753 304.93537 
L 421.120068 304.826566 
L 421.263081 303.801646 
L 421.716777 298.383915 
L 422.491018 287.225967 
L 422.560059 282.308286 
L 422.579785 241.743511 
L 422.638963 90.088188 
L 422.712935 161.548157 
L 422.92992 300.292278 
L 423.102521 304.81249 
L 423.137042 304.856018 
L 423.186356 304.739841 
L 423.334301 303.663948 
L 423.807722 298.012351 
L 424.557307 287.198522 
L 424.626347 282.043091 
L 424.651005 225.566616 
L 424.705251 90.043328 
L 424.779223 162.5985 
L 424.996208 300.272284 
L 425.16881 304.760665 
L 425.20333 304.805365 
L 425.252645 304.691681 
L 425.400589 303.625407 
L 425.869079 298.066261 
L 425.982503 296.650675 
L 426.135379 310.316128 
L 426.436199 317.801136 
L 426.870169 323.412655 
L 427.353453 327.022157 
L 427.846601 329.164278 
L 428.324954 330.333056 
L 428.783581 330.913923 
L 429.237277 331.148521 
L 429.740288 331.154564 
L 430.410968 330.920268 
L 431.61918 330.216426 
L 433.863001 328.937927 
L 435.534772 328.261593 
L 435.845455 328.160875 
L 435.845455 328.160875 
" style="fill:none;stroke:#ff0000;stroke-linecap:square;stroke-width:1.5;"/>
   </g>
   <g id="patch_3">
    <path d="M 63 384.48 
L 63 51.84 
" style="fill:none;stroke:#000000;stroke-linecap:square;stroke-linejoin:miter;stroke-width:0.8;"/>
   </g>
   <g id="patch_4">
    <path d="M 453.6 384.48 
L 453.6 51.84 
" style="fill:none;stroke:#000000;stroke-linecap:square;stroke-linejoin:miter;stroke-width:0.8;"/>
   </g>
   <g id="patch_5">
    <path d="M 63 384.48 
L 453.6 384.48 
" style="fill:none;stroke:#000000;stroke-linecap:square;stroke-linejoin:miter;stroke-width:0.8;"/>
   </g>
   <g id="patch_6">
    <path d="M 63 51.84 
L 453.6 51.84 
" style="fill:none;stroke:#000000;stroke-linecap:square;stroke-linejoin:miter;stroke-width:0.8;"/>
   </g>
   <g id="legend_1">
    <g id="patch_7">
     <path d="M 70 74.518125 
L 133.139062 74.518125 
Q 135.139062 74.518125 135.139062 72.518125 
L 135.139062 58.84 
Q 135.139062 56.84 133.139062 56.84 
L 70 56.84 
Q 68 56.84 68 58.84 
L 68 72.518125 
Q 68 74.518125 70 74.518125 
z
" style="fill:#ffffff;opacity:0.8;stroke:#cccccc;stroke-linejoin:miter;"/>
    </g>
    <g id="line2d_14">
     <path d="M 72 64.938438 
L 92 64.938438 
" style="fill:none;stroke:#ff0000;stroke-linecap:square;stroke-width:1.5;"/>
    </g>
    <g id="line2d_15"/>
    <g id="text_15">
     <!-- model -->
     <defs>
      <path d="M 45.40625 46.390625 
L 45.40625 75.984375 
L 54.390625 75.984375 
L 54.390625 0 
L 45.40625 0 
L 45.40625 8.203125 
Q 42.578125 3.328125 38.25 0.953125 
Q 33.9375 -1.421875 27.875 -1.421875 
Q 17.96875 -1.421875 11.734375 6.484375 
Q 5.515625 14.40625 5.515625 27.296875 
Q 5.515625 40.1875 11.734375 48.09375 
Q 17.96875 56 27.875 56 
Q 33.9375 56 38.25 53.625 
Q 42.578125 51.265625 45.40625 46.390625 
z
M 14.796875 27.296875 
Q 14.796875 17.390625 18.875 11.75 
Q 22.953125 6.109375 30.078125 6.109375 
Q 37.203125 6.109375 41.296875 11.75 
Q 45.40625 17.390625 45.40625 27.296875 
Q 45.40625 37.203125 41.296875 42.84375 
Q 37.203125 48.484375 30.078125 48.484375 
Q 22.953125 48.484375 18.875 42.84375 
Q 14.796875 37.203125 14.796875 27.296875 
z
" id="DejaVuSans-100"/>
     </defs>
     <g transform="translate(100 68.438438)scale(0.1 -0.1)">
      <use xlink:href="#DejaVuSans-109"/>
      <use x="97.412109" xlink:href="#DejaVuSans-111"/>
      <use x="158.59375" xlink:href="#DejaVuSans-100"/>
      <use x="222.070312" xlink:href="#DejaVuSans-101"/>
      <use x="283.59375" xlink:href="#DejaVuSans-108"/>
     </g>
    </g>
   </g>
  </g>
 </g>
 <defs>
  <clipPath id="p3d2080915e">
   <rect height="332.64" width="390.6" x="63" y="51.84"/>
  </clipPath>
 </defs>
</svg>
