<?xml version="1.0" encoding="utf-8" standalone="no"?>
<!DOCTYPE svg PUBLIC "-//W3C//DTD SVG 1.1//EN"
  "http://www.w3.org/Graphics/SVG/1.1/DTD/svg11.dtd">
<!-- Created with matplotlib (https://matplotlib.org/) -->
<svg height="432pt" version="1.1" viewBox="0 0 504 432" width="504pt" xmlns="http://www.w3.org/2000/svg" xmlns:xlink="http://www.w3.org/1999/xlink">
 <defs>
  <style type="text/css">
*{stroke-linecap:butt;stroke-linejoin:round;}
  </style>
 </defs>
 <g id="figure_1">
  <g id="patch_1">
   <path d="M 0 432 
L 504 432 
L 504 0 
L 0 0 
z
" style="fill:#ffffff;"/>
  </g>
  <g id="axes_1">
   <g id="patch_2">
    <path d="M 63 384.48 
L 453.6 384.48 
L 453.6 51.84 
L 63 51.84 
z
" style="fill:#ffffff;"/>
   </g>
   <g id="matplotlib.axis_1">
    <g id="xtick_1">
     <g id="line2d_1">
      <defs>
       <path d="M 0 0 
L 0 3.5 
" id="m0edcc7fd09" style="stroke:#000000;stroke-width:0.8;"/>
      </defs>
      <g>
       <use style="stroke:#000000;stroke-width:0.8;" x="80.754545" xlink:href="#m0edcc7fd09" y="384.48"/>
      </g>
     </g>
     <g id="text_1">
      <!-- 0 -->
      <defs>
       <path d="M 31.78125 66.40625 
Q 24.171875 66.40625 20.328125 58.90625 
Q 16.5 51.421875 16.5 36.375 
Q 16.5 21.390625 20.328125 13.890625 
Q 24.171875 6.390625 31.78125 6.390625 
Q 39.453125 6.390625 43.28125 13.890625 
Q 47.125 21.390625 47.125 36.375 
Q 47.125 51.421875 43.28125 58.90625 
Q 39.453125 66.40625 31.78125 66.40625 
z
M 31.78125 74.21875 
Q 44.046875 74.21875 50.515625 64.515625 
Q 56.984375 54.828125 56.984375 36.375 
Q 56.984375 17.96875 50.515625 8.265625 
Q 44.046875 -1.421875 31.78125 -1.421875 
Q 19.53125 -1.421875 13.0625 8.265625 
Q 6.59375 17.96875 6.59375 36.375 
Q 6.59375 54.828125 13.0625 64.515625 
Q 19.53125 74.21875 31.78125 74.21875 
z
" id="DejaVuSans-48"/>
      </defs>
      <g transform="translate(77.573295 399.078438)scale(0.1 -0.1)">
       <use xlink:href="#DejaVuSans-48"/>
      </g>
     </g>
    </g>
    <g id="xtick_2">
     <g id="line2d_2">
      <g>
       <use style="stroke:#000000;stroke-width:0.8;" x="151.767796" xlink:href="#m0edcc7fd09" y="384.48"/>
      </g>
     </g>
     <g id="text_2">
      <!-- 720 -->
      <defs>
       <path d="M 8.203125 72.90625 
L 55.078125 72.90625 
L 55.078125 68.703125 
L 28.609375 0 
L 18.3125 0 
L 43.21875 64.59375 
L 8.203125 64.59375 
z
" id="DejaVuSans-55"/>
       <path d="M 19.1875 8.296875 
L 53.609375 8.296875 
L 53.609375 0 
L 7.328125 0 
L 7.328125 8.296875 
Q 12.9375 14.109375 22.625 23.890625 
Q 32.328125 33.6875 34.8125 36.53125 
Q 39.546875 41.84375 41.421875 45.53125 
Q 43.3125 49.21875 43.3125 52.78125 
Q 43.3125 58.59375 39.234375 62.25 
Q 35.15625 65.921875 28.609375 65.921875 
Q 23.96875 65.921875 18.8125 64.3125 
Q 13.671875 62.703125 7.8125 59.421875 
L 7.8125 69.390625 
Q 13.765625 71.78125 18.9375 73 
Q 24.125 74.21875 28.421875 74.21875 
Q 39.75 74.21875 46.484375 68.546875 
Q 53.21875 62.890625 53.21875 53.421875 
Q 53.21875 48.921875 51.53125 44.890625 
Q 49.859375 40.875 45.40625 35.40625 
Q 44.1875 33.984375 37.640625 27.21875 
Q 31.109375 20.453125 19.1875 8.296875 
z
" id="DejaVuSans-50"/>
      </defs>
      <g transform="translate(142.224046 399.078438)scale(0.1 -0.1)">
       <use xlink:href="#DejaVuSans-55"/>
       <use x="63.623047" xlink:href="#DejaVuSans-50"/>
       <use x="127.246094" xlink:href="#DejaVuSans-48"/>
      </g>
     </g>
    </g>
    <g id="xtick_3">
     <g id="line2d_3">
      <g>
       <use style="stroke:#000000;stroke-width:0.8;" x="222.781046" xlink:href="#m0edcc7fd09" y="384.48"/>
      </g>
     </g>
     <g id="text_3">
      <!-- 1440 -->
      <defs>
       <path d="M 12.40625 8.296875 
L 28.515625 8.296875 
L 28.515625 63.921875 
L 10.984375 60.40625 
L 10.984375 69.390625 
L 28.421875 72.90625 
L 38.28125 72.90625 
L 38.28125 8.296875 
L 54.390625 8.296875 
L 54.390625 0 
L 12.40625 0 
z
" id="DejaVuSans-49"/>
       <path d="M 37.796875 64.3125 
L 12.890625 25.390625 
L 37.796875 25.390625 
z
M 35.203125 72.90625 
L 47.609375 72.90625 
L 47.609375 25.390625 
L 58.015625 25.390625 
L 58.015625 17.1875 
L 47.609375 17.1875 
L 47.609375 0 
L 37.796875 0 
L 37.796875 17.1875 
L 4.890625 17.1875 
L 4.890625 26.703125 
z
" id="DejaVuSans-52"/>
      </defs>
      <g transform="translate(210.056046 399.078438)scale(0.1 -0.1)">
       <use xlink:href="#DejaVuSans-49"/>
       <use x="63.623047" xlink:href="#DejaVuSans-52"/>
       <use x="127.246094" xlink:href="#DejaVuSans-52"/>
       <use x="190.869141" xlink:href="#DejaVuSans-48"/>
      </g>
     </g>
    </g>
    <g id="xtick_4">
     <g id="line2d_4">
      <g>
       <use style="stroke:#000000;stroke-width:0.8;" x="293.794296" xlink:href="#m0edcc7fd09" y="384.48"/>
      </g>
     </g>
     <g id="text_4">
      <!-- 2160 -->
      <defs>
       <path d="M 33.015625 40.375 
Q 26.375 40.375 22.484375 35.828125 
Q 18.609375 31.296875 18.609375 23.390625 
Q 18.609375 15.53125 22.484375 10.953125 
Q 26.375 6.390625 33.015625 6.390625 
Q 39.65625 6.390625 43.53125 10.953125 
Q 47.40625 15.53125 47.40625 23.390625 
Q 47.40625 31.296875 43.53125 35.828125 
Q 39.65625 40.375 33.015625 40.375 
z
M 52.59375 71.296875 
L 52.59375 62.3125 
Q 48.875 64.0625 45.09375 64.984375 
Q 41.3125 65.921875 37.59375 65.921875 
Q 27.828125 65.921875 22.671875 59.328125 
Q 17.53125 52.734375 16.796875 39.40625 
Q 19.671875 43.65625 24.015625 45.921875 
Q 28.375 48.1875 33.59375 48.1875 
Q 44.578125 48.1875 50.953125 41.515625 
Q 57.328125 34.859375 57.328125 23.390625 
Q 57.328125 12.15625 50.6875 5.359375 
Q 44.046875 -1.421875 33.015625 -1.421875 
Q 20.359375 -1.421875 13.671875 8.265625 
Q 6.984375 17.96875 6.984375 36.375 
Q 6.984375 53.65625 15.1875 63.9375 
Q 23.390625 74.21875 37.203125 74.21875 
Q 40.921875 74.21875 44.703125 73.484375 
Q 48.484375 72.75 52.59375 71.296875 
z
" id="DejaVuSans-54"/>
      </defs>
      <g transform="translate(281.069296 399.078438)scale(0.1 -0.1)">
       <use xlink:href="#DejaVuSans-50"/>
       <use x="63.623047" xlink:href="#DejaVuSans-49"/>
       <use x="127.246094" xlink:href="#DejaVuSans-54"/>
       <use x="190.869141" xlink:href="#DejaVuSans-48"/>
      </g>
     </g>
    </g>
    <g id="xtick_5">
     <g id="line2d_5">
      <g>
       <use style="stroke:#000000;stroke-width:0.8;" x="364.807547" xlink:href="#m0edcc7fd09" y="384.48"/>
      </g>
     </g>
     <g id="text_5">
      <!-- 2880 -->
      <defs>
       <path d="M 31.78125 34.625 
Q 24.75 34.625 20.71875 30.859375 
Q 16.703125 27.09375 16.703125 20.515625 
Q 16.703125 13.921875 20.71875 10.15625 
Q 24.75 6.390625 31.78125 6.390625 
Q 38.8125 6.390625 42.859375 10.171875 
Q 46.921875 13.96875 46.921875 20.515625 
Q 46.921875 27.09375 42.890625 30.859375 
Q 38.875 34.625 31.78125 34.625 
z
M 21.921875 38.8125 
Q 15.578125 40.375 12.03125 44.71875 
Q 8.5 49.078125 8.5 55.328125 
Q 8.5 64.0625 14.71875 69.140625 
Q 20.953125 74.21875 31.78125 74.21875 
Q 42.671875 74.21875 48.875 69.140625 
Q 55.078125 64.0625 55.078125 55.328125 
Q 55.078125 49.078125 51.53125 44.71875 
Q 48 40.375 41.703125 38.8125 
Q 48.828125 37.15625 52.796875 32.3125 
Q 56.78125 27.484375 56.78125 20.515625 
Q 56.78125 9.90625 50.3125 4.234375 
Q 43.84375 -1.421875 31.78125 -1.421875 
Q 19.734375 -1.421875 13.25 4.234375 
Q 6.78125 9.90625 6.78125 20.515625 
Q 6.78125 27.484375 10.78125 32.3125 
Q 14.796875 37.15625 21.921875 38.8125 
z
M 18.3125 54.390625 
Q 18.3125 48.734375 21.84375 45.5625 
Q 25.390625 42.390625 31.78125 42.390625 
Q 38.140625 42.390625 41.71875 45.5625 
Q 45.3125 48.734375 45.3125 54.390625 
Q 45.3125 60.0625 41.71875 63.234375 
Q 38.140625 66.40625 31.78125 66.40625 
Q 25.390625 66.40625 21.84375 63.234375 
Q 18.3125 60.0625 18.3125 54.390625 
z
" id="DejaVuSans-56"/>
      </defs>
      <g transform="translate(352.082547 399.078438)scale(0.1 -0.1)">
       <use xlink:href="#DejaVuSans-50"/>
       <use x="63.623047" xlink:href="#DejaVuSans-56"/>
       <use x="127.246094" xlink:href="#DejaVuSans-56"/>
       <use x="190.869141" xlink:href="#DejaVuSans-48"/>
      </g>
     </g>
    </g>
    <g id="text_6">
     <!-- time [ms] -->
     <defs>
      <path d="M 18.3125 70.21875 
L 18.3125 54.6875 
L 36.8125 54.6875 
L 36.8125 47.703125 
L 18.3125 47.703125 
L 18.3125 18.015625 
Q 18.3125 11.328125 20.140625 9.421875 
Q 21.96875 7.515625 27.59375 7.515625 
L 36.8125 7.515625 
L 36.8125 0 
L 27.59375 0 
Q 17.1875 0 13.234375 3.875 
Q 9.28125 7.765625 9.28125 18.015625 
L 9.28125 47.703125 
L 2.6875 47.703125 
L 2.6875 54.6875 
L 9.28125 54.6875 
L 9.28125 70.21875 
z
" id="DejaVuSans-116"/>
      <path d="M 9.421875 54.6875 
L 18.40625 54.6875 
L 18.40625 0 
L 9.421875 0 
z
M 9.421875 75.984375 
L 18.40625 75.984375 
L 18.40625 64.59375 
L 9.421875 64.59375 
z
" id="DejaVuSans-105"/>
      <path d="M 52 44.1875 
Q 55.375 50.25 60.0625 53.125 
Q 64.75 56 71.09375 56 
Q 79.640625 56 84.28125 50.015625 
Q 88.921875 44.046875 88.921875 33.015625 
L 88.921875 0 
L 79.890625 0 
L 79.890625 32.71875 
Q 79.890625 40.578125 77.09375 44.375 
Q 74.3125 48.1875 68.609375 48.1875 
Q 61.625 48.1875 57.5625 43.546875 
Q 53.515625 38.921875 53.515625 30.90625 
L 53.515625 0 
L 44.484375 0 
L 44.484375 32.71875 
Q 44.484375 40.625 41.703125 44.40625 
Q 38.921875 48.1875 33.109375 48.1875 
Q 26.21875 48.1875 22.15625 43.53125 
Q 18.109375 38.875 18.109375 30.90625 
L 18.109375 0 
L 9.078125 0 
L 9.078125 54.6875 
L 18.109375 54.6875 
L 18.109375 46.1875 
Q 21.1875 51.21875 25.484375 53.609375 
Q 29.78125 56 35.6875 56 
Q 41.65625 56 45.828125 52.96875 
Q 50 49.953125 52 44.1875 
z
" id="DejaVuSans-109"/>
      <path d="M 56.203125 29.59375 
L 56.203125 25.203125 
L 14.890625 25.203125 
Q 15.484375 15.921875 20.484375 11.0625 
Q 25.484375 6.203125 34.421875 6.203125 
Q 39.59375 6.203125 44.453125 7.46875 
Q 49.3125 8.734375 54.109375 11.28125 
L 54.109375 2.78125 
Q 49.265625 0.734375 44.1875 -0.34375 
Q 39.109375 -1.421875 33.890625 -1.421875 
Q 20.796875 -1.421875 13.15625 6.1875 
Q 5.515625 13.8125 5.515625 26.8125 
Q 5.515625 40.234375 12.765625 48.109375 
Q 20.015625 56 32.328125 56 
Q 43.359375 56 49.78125 48.890625 
Q 56.203125 41.796875 56.203125 29.59375 
z
M 47.21875 32.234375 
Q 47.125 39.59375 43.09375 43.984375 
Q 39.0625 48.390625 32.421875 48.390625 
Q 24.90625 48.390625 20.390625 44.140625 
Q 15.875 39.890625 15.1875 32.171875 
z
" id="DejaVuSans-101"/>
      <path id="DejaVuSans-32"/>
      <path d="M 8.59375 75.984375 
L 29.296875 75.984375 
L 29.296875 69 
L 17.578125 69 
L 17.578125 -6.203125 
L 29.296875 -6.203125 
L 29.296875 -13.1875 
L 8.59375 -13.1875 
z
" id="DejaVuSans-91"/>
      <path d="M 44.28125 53.078125 
L 44.28125 44.578125 
Q 40.484375 46.53125 36.375 47.5 
Q 32.28125 48.484375 27.875 48.484375 
Q 21.1875 48.484375 17.84375 46.4375 
Q 14.5 44.390625 14.5 40.28125 
Q 14.5 37.15625 16.890625 35.375 
Q 19.28125 33.59375 26.515625 31.984375 
L 29.59375 31.296875 
Q 39.15625 29.25 43.1875 25.515625 
Q 47.21875 21.78125 47.21875 15.09375 
Q 47.21875 7.46875 41.1875 3.015625 
Q 35.15625 -1.421875 24.609375 -1.421875 
Q 20.21875 -1.421875 15.453125 -0.5625 
Q 10.6875 0.296875 5.421875 2 
L 5.421875 11.28125 
Q 10.40625 8.6875 15.234375 7.390625 
Q 20.0625 6.109375 24.8125 6.109375 
Q 31.15625 6.109375 34.5625 8.28125 
Q 37.984375 10.453125 37.984375 14.40625 
Q 37.984375 18.0625 35.515625 20.015625 
Q 33.0625 21.96875 24.703125 23.78125 
L 21.578125 24.515625 
Q 13.234375 26.265625 9.515625 29.90625 
Q 5.8125 33.546875 5.8125 39.890625 
Q 5.8125 47.609375 11.28125 51.796875 
Q 16.75 56 26.8125 56 
Q 31.78125 56 36.171875 55.265625 
Q 40.578125 54.546875 44.28125 53.078125 
z
" id="DejaVuSans-115"/>
      <path d="M 30.421875 75.984375 
L 30.421875 -13.1875 
L 9.71875 -13.1875 
L 9.71875 -6.203125 
L 21.390625 -6.203125 
L 21.390625 69 
L 9.71875 69 
L 9.71875 75.984375 
z
" id="DejaVuSans-93"/>
     </defs>
     <g transform="translate(234.038281 412.756563)scale(0.1 -0.1)">
      <use xlink:href="#DejaVuSans-116"/>
      <use x="39.208984" xlink:href="#DejaVuSans-105"/>
      <use x="66.992188" xlink:href="#DejaVuSans-109"/>
      <use x="164.404297" xlink:href="#DejaVuSans-101"/>
      <use x="225.927734" xlink:href="#DejaVuSans-32"/>
      <use x="257.714844" xlink:href="#DejaVuSans-91"/>
      <use x="296.728516" xlink:href="#DejaVuSans-109"/>
      <use x="394.140625" xlink:href="#DejaVuSans-115"/>
      <use x="446.240234" xlink:href="#DejaVuSans-93"/>
     </g>
    </g>
   </g>
   <g id="matplotlib.axis_2">
    <g id="ytick_1">
     <g id="line2d_6">
      <defs>
       <path d="M 0 0 
L -3.5 0 
" id="m56c44ce304" style="stroke:#000000;stroke-width:0.8;"/>
      </defs>
      <g>
       <use style="stroke:#000000;stroke-width:0.8;" x="63" xlink:href="#m56c44ce304" y="367.08614"/>
      </g>
     </g>
     <g id="text_7">
      <!-- −80 -->
      <defs>
       <path d="M 10.59375 35.5 
L 73.1875 35.5 
L 73.1875 27.203125 
L 10.59375 27.203125 
z
" id="DejaVuSans-8722"/>
      </defs>
      <g transform="translate(34.895313 370.885359)scale(0.1 -0.1)">
       <use xlink:href="#DejaVuSans-8722"/>
       <use x="83.789062" xlink:href="#DejaVuSans-56"/>
       <use x="147.412109" xlink:href="#DejaVuSans-48"/>
      </g>
     </g>
    </g>
    <g id="ytick_2">
     <g id="line2d_7">
      <g>
       <use style="stroke:#000000;stroke-width:0.8;" x="63" xlink:href="#m56c44ce304" y="315.250823"/>
      </g>
     </g>
     <g id="text_8">
      <!-- −60 -->
      <g transform="translate(34.895313 319.050041)scale(0.1 -0.1)">
       <use xlink:href="#DejaVuSans-8722"/>
       <use x="83.789062" xlink:href="#DejaVuSans-54"/>
       <use x="147.412109" xlink:href="#DejaVuSans-48"/>
      </g>
     </g>
    </g>
    <g id="ytick_3">
     <g id="line2d_8">
      <g>
       <use style="stroke:#000000;stroke-width:0.8;" x="63" xlink:href="#m56c44ce304" y="263.415505"/>
      </g>
     </g>
     <g id="text_9">
      <!-- −40 -->
      <g transform="translate(34.895313 267.214724)scale(0.1 -0.1)">
       <use xlink:href="#DejaVuSans-8722"/>
       <use x="83.789062" xlink:href="#DejaVuSans-52"/>
       <use x="147.412109" xlink:href="#DejaVuSans-48"/>
      </g>
     </g>
    </g>
    <g id="ytick_4">
     <g id="line2d_9">
      <g>
       <use style="stroke:#000000;stroke-width:0.8;" x="63" xlink:href="#m56c44ce304" y="211.580187"/>
      </g>
     </g>
     <g id="text_10">
      <!-- −20 -->
      <g transform="translate(34.895313 215.379406)scale(0.1 -0.1)">
       <use xlink:href="#DejaVuSans-8722"/>
       <use x="83.789062" xlink:href="#DejaVuSans-50"/>
       <use x="147.412109" xlink:href="#DejaVuSans-48"/>
      </g>
     </g>
    </g>
    <g id="ytick_5">
     <g id="line2d_10">
      <g>
       <use style="stroke:#000000;stroke-width:0.8;" x="63" xlink:href="#m56c44ce304" y="159.744869"/>
      </g>
     </g>
     <g id="text_11">
      <!-- 0 -->
      <g transform="translate(49.6375 163.544088)scale(0.1 -0.1)">
       <use xlink:href="#DejaVuSans-48"/>
      </g>
     </g>
    </g>
    <g id="ytick_6">
     <g id="line2d_11">
      <g>
       <use style="stroke:#000000;stroke-width:0.8;" x="63" xlink:href="#m56c44ce304" y="107.909552"/>
      </g>
     </g>
     <g id="text_12">
      <!-- 20 -->
      <g transform="translate(43.275 111.70877)scale(0.1 -0.1)">
       <use xlink:href="#DejaVuSans-50"/>
       <use x="63.623047" xlink:href="#DejaVuSans-48"/>
      </g>
     </g>
    </g>
    <g id="ytick_7">
     <g id="line2d_12">
      <g>
       <use style="stroke:#000000;stroke-width:0.8;" x="63" xlink:href="#m56c44ce304" y="56.074234"/>
      </g>
     </g>
     <g id="text_13">
      <!-- 40 -->
      <g transform="translate(43.275 59.873453)scale(0.1 -0.1)">
       <use xlink:href="#DejaVuSans-52"/>
       <use x="63.623047" xlink:href="#DejaVuSans-48"/>
      </g>
     </g>
    </g>
    <g id="text_14">
     <!-- Voltage [mV] -->
     <defs>
      <path d="M 28.609375 0 
L 0.78125 72.90625 
L 11.078125 72.90625 
L 34.1875 11.53125 
L 57.328125 72.90625 
L 67.578125 72.90625 
L 39.796875 0 
z
" id="DejaVuSans-86"/>
      <path d="M 30.609375 48.390625 
Q 23.390625 48.390625 19.1875 42.75 
Q 14.984375 37.109375 14.984375 27.296875 
Q 14.984375 17.484375 19.15625 11.84375 
Q 23.34375 6.203125 30.609375 6.203125 
Q 37.796875 6.203125 41.984375 11.859375 
Q 46.1875 17.53125 46.1875 27.296875 
Q 46.1875 37.015625 41.984375 42.703125 
Q 37.796875 48.390625 30.609375 48.390625 
z
M 30.609375 56 
Q 42.328125 56 49.015625 48.375 
Q 55.71875 40.765625 55.71875 27.296875 
Q 55.71875 13.875 49.015625 6.21875 
Q 42.328125 -1.421875 30.609375 -1.421875 
Q 18.84375 -1.421875 12.171875 6.21875 
Q 5.515625 13.875 5.515625 27.296875 
Q 5.515625 40.765625 12.171875 48.375 
Q 18.84375 56 30.609375 56 
z
" id="DejaVuSans-111"/>
      <path d="M 9.421875 75.984375 
L 18.40625 75.984375 
L 18.40625 0 
L 9.421875 0 
z
" id="DejaVuSans-108"/>
      <path d="M 34.28125 27.484375 
Q 23.390625 27.484375 19.1875 25 
Q 14.984375 22.515625 14.984375 16.5 
Q 14.984375 11.71875 18.140625 8.90625 
Q 21.296875 6.109375 26.703125 6.109375 
Q 34.1875 6.109375 38.703125 11.40625 
Q 43.21875 16.703125 43.21875 25.484375 
L 43.21875 27.484375 
z
M 52.203125 31.203125 
L 52.203125 0 
L 43.21875 0 
L 43.21875 8.296875 
Q 40.140625 3.328125 35.546875 0.953125 
Q 30.953125 -1.421875 24.3125 -1.421875 
Q 15.921875 -1.421875 10.953125 3.296875 
Q 6 8.015625 6 15.921875 
Q 6 25.140625 12.171875 29.828125 
Q 18.359375 34.515625 30.609375 34.515625 
L 43.21875 34.515625 
L 43.21875 35.40625 
Q 43.21875 41.609375 39.140625 45 
Q 35.0625 48.390625 27.6875 48.390625 
Q 23 48.390625 18.546875 47.265625 
Q 14.109375 46.140625 10.015625 43.890625 
L 10.015625 52.203125 
Q 14.9375 54.109375 19.578125 55.046875 
Q 24.21875 56 28.609375 56 
Q 40.484375 56 46.34375 49.84375 
Q 52.203125 43.703125 52.203125 31.203125 
z
" id="DejaVuSans-97"/>
      <path d="M 45.40625 27.984375 
Q 45.40625 37.75 41.375 43.109375 
Q 37.359375 48.484375 30.078125 48.484375 
Q 22.859375 48.484375 18.828125 43.109375 
Q 14.796875 37.75 14.796875 27.984375 
Q 14.796875 18.265625 18.828125 12.890625 
Q 22.859375 7.515625 30.078125 7.515625 
Q 37.359375 7.515625 41.375 12.890625 
Q 45.40625 18.265625 45.40625 27.984375 
z
M 54.390625 6.78125 
Q 54.390625 -7.171875 48.1875 -13.984375 
Q 42 -20.796875 29.203125 -20.796875 
Q 24.46875 -20.796875 20.265625 -20.09375 
Q 16.0625 -19.390625 12.109375 -17.921875 
L 12.109375 -9.1875 
Q 16.0625 -11.328125 19.921875 -12.34375 
Q 23.78125 -13.375 27.78125 -13.375 
Q 36.625 -13.375 41.015625 -8.765625 
Q 45.40625 -4.15625 45.40625 5.171875 
L 45.40625 9.625 
Q 42.625 4.78125 38.28125 2.390625 
Q 33.9375 0 27.875 0 
Q 17.828125 0 11.671875 7.65625 
Q 5.515625 15.328125 5.515625 27.984375 
Q 5.515625 40.671875 11.671875 48.328125 
Q 17.828125 56 27.875 56 
Q 33.9375 56 38.28125 53.609375 
Q 42.625 51.21875 45.40625 46.390625 
L 45.40625 54.6875 
L 54.390625 54.6875 
z
" id="DejaVuSans-103"/>
     </defs>
     <g transform="translate(28.815625 251.079531)rotate(-90)scale(0.1 -0.1)">
      <use xlink:href="#DejaVuSans-86"/>
      <use x="68.298828" xlink:href="#DejaVuSans-111"/>
      <use x="129.480469" xlink:href="#DejaVuSans-108"/>
      <use x="157.263672" xlink:href="#DejaVuSans-116"/>
      <use x="196.472656" xlink:href="#DejaVuSans-97"/>
      <use x="257.751953" xlink:href="#DejaVuSans-103"/>
      <use x="321.228516" xlink:href="#DejaVuSans-101"/>
      <use x="382.751953" xlink:href="#DejaVuSans-32"/>
      <use x="414.539062" xlink:href="#DejaVuSans-91"/>
      <use x="453.552734" xlink:href="#DejaVuSans-109"/>
      <use x="550.964844" xlink:href="#DejaVuSans-86"/>
      <use x="619.373047" xlink:href="#DejaVuSans-93"/>
     </g>
    </g>
   </g>
   <g id="line2d_13">
    <path clip-path="url(#p46eaf1d965)" d="M 80.754545 328.209652 
L 81.612622 328.545679 
L 82.579191 328.728127 
L 84.329865 328.792165 
L 100.480448 328.736243 
L 100.633324 343.82107 
L 100.968664 354.668138 
L 101.417429 362.620371 
L 101.85633 366.865817 
L 102.240985 368.703843 
L 102.551668 369.28953 
L 102.788379 369.348928 
L 103.034953 369.155459 
L 103.419608 368.516445 
L 104.43056 366.221789 
L 105.2985 364.580894 
L 106.03329 363.646364 
L 106.76808 363.062386 
L 107.581773 362.700608 
L 108.617383 362.495415 
L 110.284222 362.421921 
L 129.876975 362.447143 
L 130.069303 362.447136 
L 130.222178 347.535087 
L 130.547656 337.479515 
L 130.971763 330.577052 
L 131.405733 326.78307 
L 131.824908 324.873117 
L 132.219426 323.998065 
L 132.584355 323.670089 
L 132.954216 323.627316 
L 133.422706 323.817805 
L 134.211742 324.419725 
L 136.54433 326.279439 
L 137.915281 327.037112 
L 139.424312 327.61302 
L 139.932254 327.759882 
L 140.045678 328.235986 
L 141.628682 328.713556 
L 143.221548 328.790528 
L 151.106978 328.748417 
L 159.663088 328.736243 
L 159.815964 325.717527 
L 160.151305 323.549769 
L 160.609932 321.930813 
L 161.103079 320.949421 
L 161.630747 320.371639 
L 162.237319 320.03638 
L 163.036218 319.863168 
L 164.362785 319.834458 
L 179.714469 320.158305 
L 189.251943 320.174117 
L 189.40975 323.246012 
L 189.74509 325.389622 
L 190.203718 326.988311 
L 190.696865 327.952988 
L 191.224533 328.518092 
L 191.831105 328.844062 
L 192.639867 329.012302 
L 194.010817 329.037767 
L 199.114894 328.850696 
L 199.119826 328.209652 
L 199.228318 328.235986 
L 200.811322 328.713556 
L 202.404188 328.790528 
L 210.289618 328.748417 
L 218.845729 328.736243 
L 218.998604 322.697272 
L 219.333945 318.350221 
L 219.792572 315.079154 
L 220.285719 313.045256 
L 220.803524 311.791234 
L 221.360781 310.998534 
L 221.987079 310.488515 
L 222.736663 310.16883 
L 223.639123 310.028639 
L 224.595829 310.10277 
L 225.86815 310.455844 
L 227.722385 310.922578 
L 229.70977 311.158917 
L 233.245638 311.321331 
L 241.14093 311.421295 
L 248.434583 311.441823 
L 248.59239 317.647579 
L 248.92773 322.022924 
L 249.376495 325.208863 
L 249.849916 327.108455 
L 250.333201 328.201162 
L 250.836212 328.82354 
L 251.3984 329.171494 
L 252.108532 329.338843 
L 253.227977 329.346662 
L 258.297534 328.981138 
L 258.302466 328.209652 
L 258.410958 328.235986 
L 259.993962 328.713556 
L 261.586829 328.790528 
L 269.472258 328.748417 
L 278.028369 328.736243 
L 278.181244 319.674457 
L 278.516585 313.11302 
L 278.994938 307.836944 
L 279.685344 301.196883 
L 279.70507 265.776428 
L 279.759317 67.993094 
L 279.843152 176.182329 
L 280.050274 314.006594 
L 280.222875 317.744392 
L 280.262327 317.782281 
L 280.311642 317.683099 
L 280.469449 316.765914 
L 282.047521 305.618405 
L 282.683682 303.484706 
L 283.403677 301.12354 
L 283.497375 299.956568 
L 283.51217 297.632138 
L 283.54669 196.545547 
L 283.586142 73.919586 
L 283.660114 167.676328 
L 283.867236 312.872431 
L 284.039838 317.251967 
L 284.099015 317.363031 
L 284.153261 317.266555 
L 284.316 316.388561 
L 285.8201 306.562892 
L 286.377357 304.933818 
L 286.978997 303.837651 
L 287.694061 302.996126 
L 289.380626 301.20922 
L 289.538433 300.502855 
L 289.587748 299.420228 
L 289.602542 288.257067 
L 289.671583 78.760165 
L 289.740623 161.755191 
L 289.952677 310.897658 
L 290.13021 315.760615 
L 290.214045 315.970446 
L 290.26336 315.904597 
L 290.411304 315.270661 
L 290.948835 311.540425 
L 291.580064 308.004115 
L 292.127458 306.125692 
L 292.684714 304.96143 
L 293.301149 304.171721 
L 294.04087 303.587511 
L 295.037028 303.098924 
L 296.718662 302.557564 
L 298.493993 301.931378 
L 298.982209 301.533031 
L 299.213988 301.05651 
L 299.322481 300.317937 
L 299.347138 298.75343 
L 299.376727 229.76328 
L 299.426042 81.873644 
L 299.500014 166.267593 
L 299.712067 310.042874 
L 299.8896 315.007163 
L 299.98823 315.291308 
L 300.032613 315.244948 
L 300.170695 314.738497 
L 300.604664 311.981713 
L 301.29014 308.180807 
L 301.837533 306.323506 
L 302.39479 305.173492 
L 303.011225 304.397995 
L 303.750946 303.828957 
L 304.742173 303.360705 
L 306.320245 302.887881 
L 307.617223 302.576385 
L 307.77503 312.076544 
L 308.105439 318.805724 
L 308.54434 323.611443 
L 309.007899 326.446685 
L 309.476389 328.053813 
L 309.954742 328.959914 
L 310.452821 329.453938 
L 311.024873 329.708043 
L 311.789251 329.786897 
L 313.150339 329.664603 
L 317.480174 329.174444 
L 317.485106 328.209652 
L 317.593598 328.235986 
L 319.176602 328.713556 
L 320.769469 328.790528 
L 328.654898 328.748417 
L 337.211009 328.736243 
L 337.363884 316.64768 
L 337.704156 307.683828 
L 338.271276 295.426452 
L 338.295933 236.794977 
L 338.340317 67.199268 
L 338.424152 176.422657 
L 338.626342 311.142836 
L 338.789081 314.363271 
L 338.843327 314.212709 
L 339.006066 312.84088 
L 340.579207 294.656546 
L 340.638384 291.434092 
L 340.65811 250.784635 
L 340.712356 72.530411 
L 340.79126 174.548779 
L 340.998382 313.025657 
L 341.151258 315.937665 
L 341.161121 315.93403 
L 341.22523 315.696868 
L 341.417557 313.846388 
L 342.734262 299.478477 
L 343.222478 294.54359 
L 343.29645 291.183827 
L 343.316176 251.090081 
L 343.370422 77.601026 
L 343.449325 171.370291 
L 343.656447 310.933226 
L 343.824118 314.451556 
L 343.853706 314.433356 
L 343.878364 314.362594 
L 344.016445 313.400378 
L 344.544113 307.448435 
L 345.239451 300.943548 
L 346.063008 293.764047 
L 346.117254 290.439112 
L 346.146843 215.756986 
L 346.191226 81.090222 
L 346.265198 164.48214 
L 346.477252 309.438999 
L 346.644922 313.372886 
L 346.674511 313.403844 
L 346.723825 313.297448 
L 346.876701 312.262778 
L 348.80984 296.010582 
L 349.01203 293.453414 
L 349.061345 289.692933 
L 349.095865 184.703766 
L 349.135317 83.566988 
L 349.209289 165.333903 
L 349.421343 308.23391 
L 349.593944 312.475531 
L 349.633396 312.531205 
L 349.687642 312.417756 
L 349.845449 311.403834 
L 351.665164 297.034179 
L 351.98571 294.33665 
L 352.074477 291.746567 
L 352.094202 278.120209 
L 352.163243 85.302256 
L 352.232284 161.683588 
L 352.444337 307.197285 
L 352.616939 311.897055 
L 352.671185 312.006952 
L 352.725431 311.901958 
L 352.883239 310.945889 
L 353.618028 304.194965 
L 354.293641 299.515064 
L 355.062951 294.380292 
L 355.156649 291.81346 
L 355.176375 281.189882 
L 355.245415 86.37917 
L 355.314456 159.748569 
L 355.531441 306.778479 
L 355.704043 311.440232 
L 355.76322 311.575204 
L 355.822398 311.465194 
L 355.985137 310.501636 
L 357.819646 297.130318 
L 358.169781 294.514113 
L 358.273341 291.959156 
L 358.293067 284.861187 
L 358.362108 87.220557 
L 358.441012 170.166769 
L 358.653065 306.359767 
L 358.830598 311.020603 
L 358.894707 311.153219 
L 358.948954 311.053699 
L 359.106761 310.173312 
L 359.73799 304.702963 
L 360.423465 299.978673 
L 361.330856 294.182442 
L 361.414692 291.597259 
L 361.429486 285.59589 
L 361.498527 87.759531 
L 361.57743 169.024861 
L 361.789484 305.892789 
L 361.967017 310.73104 
L 362.036057 310.897754 
L 362.090304 310.808812 
L 362.243179 309.999087 
L 362.785642 305.387257 
L 363.490843 300.386308 
L 364.501795 293.848253 
L 364.570836 290.80071 
L 364.590562 251.256323 
L 364.64974 87.973929 
L 364.728643 170.339119 
L 364.940697 305.71137 
L 365.11823 310.559766 
L 365.192202 310.741997 
L 365.246448 310.651685 
L 365.399324 309.852064 
L 365.941786 305.301458 
L 366.646987 300.357456 
L 366.799863 299.502336 
L 366.952739 311.280821 
L 367.263422 318.68002 
L 367.682597 323.80064 
L 368.136293 326.841563 
L 368.59492 328.542915 
L 369.058479 329.481225 
L 369.536832 329.980094 
L 370.074363 330.222204 
L 370.774632 330.278851 
L 371.972981 330.11718 
L 376.574048 329.373818 
L 376.662814 329.364039 
L 376.667746 328.209652 
L 376.776238 328.235986 
L 378.359242 328.713556 
L 379.952109 328.790528 
L 387.837538 328.748417 
L 396.393649 328.736243 
L 396.551456 313.374172 
L 396.911454 301.39913 
L 397.138302 292.81473 
L 397.153096 280.844892 
L 397.212274 66.96 
L 397.291177 172.041898 
L 397.498299 308.610227 
L 397.621586 311.060835 
L 397.651175 311.00746 
L 397.759668 310.10775 
L 398.13446 304.472782 
L 398.888976 290.444464 
L 398.928427 284.965002 
L 398.967879 120.091736 
L 398.992537 71.905159 
L 399.066509 164.067371 
L 399.273631 312.354921 
L 399.396918 314.797152 
L 399.426506 314.721168 
L 399.53993 313.646476 
L 399.93938 306.980372 
L 400.891155 288.607019 
L 400.910881 282.922993 
L 400.97499 76.973431 
L 401.063756 186.006916 
L 401.265947 311.08305 
L 401.389234 313.334767 
L 401.418823 313.276103 
L 401.527315 312.368399 
L 401.892244 306.779587 
L 402.908128 288.555871 
L 402.932786 278.230138 
L 402.996895 80.500972 
L 403.070867 167.069433 
L 403.277989 309.200242 
L 403.421002 312.259977 
L 403.435796 312.247996 
L 403.509768 311.849311 
L 403.736616 309.022373 
L 404.944828 289.453399 
L 404.979348 284.02507 
L 405.048389 83.139921 
L 405.147018 198.801764 
L 405.339346 308.555206 
L 405.48729 311.393612 
L 405.497153 311.386025 
L 405.566194 311.066782 
L 405.773316 308.724999 
L 406.996322 290.386283 
L 407.050568 285.451215 
L 407.080157 206.503579 
L 407.12454 84.787334 
L 407.198512 166.591519 
L 407.410566 307.319106 
L 407.573304 310.678043 
L 407.622619 310.542336 
L 407.770563 309.239682 
L 408.377135 300.937611 
L 409.09713 289.914763 
L 409.141514 285.089569 
L 409.171102 202.974714 
L 409.215486 85.974322 
L 409.284526 160.208977 
L 409.501511 306.579835 
L 409.66425 310.132622 
L 409.693839 310.104566 
L 409.713565 310.039777 
L 409.846715 309.003257 
L 410.30041 303.067407 
L 411.212733 289.233209 
L 411.247254 283.021696 
L 411.316294 86.830521 
L 411.405061 183.902633 
L 411.607251 306.256435 
L 411.774922 309.794427 
L 411.824236 309.699386 
L 411.957386 308.689338 
L 412.40615 302.956426 
L 413.323405 289.380475 
L 413.357925 284.849388 
L 413.392446 175.334314 
L 413.431897 87.269079 
L 413.500938 160.157979 
L 413.717923 305.570848 
L 413.885593 309.430466 
L 413.905319 309.437209 
L 413.944771 309.341235 
L 414.082852 308.304422 
L 414.546411 302.494415 
L 415.439008 289.556006 
L 415.47846 284.273536 
L 415.527775 109.77269 
L 415.552432 87.645655 
L 415.61161 148.075627 
L 415.833526 305.027596 
L 416.001196 309.245634 
L 416.025854 309.268431 
L 416.075168 309.144593 
L 416.223113 307.987179 
L 416.760644 301.269293 
L 417.559543 289.829132 
L 417.603926 284.915071 
L 417.638446 176.653971 
L 417.677898 87.791917 
L 417.746939 159.526907 
L 417.963924 304.966291 
L 418.131594 309.019698 
L 418.156251 309.041869 
L 418.205566 308.92084 
L 418.35351 307.785579 
L 418.881178 301.285455 
L 419.685009 289.963057 
L 419.734323 284.172543 
L 419.808296 87.992045 
L 419.911856 205.371178 
L 420.104184 305.588969 
L 420.271854 308.978546 
L 420.296512 308.977075 
L 420.331032 308.887356 
L 420.469113 307.892208 
L 420.922809 302.398449 
L 421.825269 289.712939 
L 421.869652 283.492296 
L 421.943624 88.15379 
L 422.037323 194.26891 
L 422.234582 305.215998 
L 422.402252 308.883708 
L 422.426909 308.896711 
L 422.471292 308.786854 
L 422.619237 307.681799 
L 423.127179 301.506408 
L 423.955667 289.970983 
L 424.004981 284.327267 
L 424.049365 124.405726 
L 424.078953 88.120448 
L 424.143063 154.476382 
L 424.364979 304.698366 
L 424.537581 308.787616 
L 424.562238 308.806786 
L 424.606621 308.706542 
L 424.749634 307.67359 
L 425.218124 302.046817 
L 425.982503 292.593535 
L 426.14031 307.730822 
L 426.44113 316.697234 
L 426.850443 322.800738 
L 427.294276 326.406761 
L 427.747971 328.445625 
L 428.206599 329.571469 
L 428.670157 330.165283 
L 429.173168 330.458631 
L 429.789602 330.551465 
L 430.736446 330.443473 
L 435.845455 329.478395 
L 435.845455 329.478395 
" style="fill:none;stroke:#ff0000;stroke-linecap:square;stroke-width:1.5;"/>
   </g>
   <g id="patch_3">
    <path d="M 63 384.48 
L 63 51.84 
" style="fill:none;stroke:#000000;stroke-linecap:square;stroke-linejoin:miter;stroke-width:0.8;"/>
   </g>
   <g id="patch_4">
    <path d="M 453.6 384.48 
L 453.6 51.84 
" style="fill:none;stroke:#000000;stroke-linecap:square;stroke-linejoin:miter;stroke-width:0.8;"/>
   </g>
   <g id="patch_5">
    <path d="M 63 384.48 
L 453.6 384.48 
" style="fill:none;stroke:#000000;stroke-linecap:square;stroke-linejoin:miter;stroke-width:0.8;"/>
   </g>
   <g id="patch_6">
    <path d="M 63 51.84 
L 453.6 51.84 
" style="fill:none;stroke:#000000;stroke-linecap:square;stroke-linejoin:miter;stroke-width:0.8;"/>
   </g>
   <g id="legend_1">
    <g id="patch_7">
     <path d="M 70 74.518125 
L 133.139062 74.518125 
Q 135.139062 74.518125 135.139062 72.518125 
L 135.139062 58.84 
Q 135.139062 56.84 133.139062 56.84 
L 70 56.84 
Q 68 56.84 68 58.84 
L 68 72.518125 
Q 68 74.518125 70 74.518125 
z
" style="fill:#ffffff;opacity:0.8;stroke:#cccccc;stroke-linejoin:miter;"/>
    </g>
    <g id="line2d_14">
     <path d="M 72 64.938438 
L 92 64.938438 
" style="fill:none;stroke:#ff0000;stroke-linecap:square;stroke-width:1.5;"/>
    </g>
    <g id="line2d_15"/>
    <g id="text_15">
     <!-- model -->
     <defs>
      <path d="M 45.40625 46.390625 
L 45.40625 75.984375 
L 54.390625 75.984375 
L 54.390625 0 
L 45.40625 0 
L 45.40625 8.203125 
Q 42.578125 3.328125 38.25 0.953125 
Q 33.9375 -1.421875 27.875 -1.421875 
Q 17.96875 -1.421875 11.734375 6.484375 
Q 5.515625 14.40625 5.515625 27.296875 
Q 5.515625 40.1875 11.734375 48.09375 
Q 17.96875 56 27.875 56 
Q 33.9375 56 38.25 53.625 
Q 42.578125 51.265625 45.40625 46.390625 
z
M 14.796875 27.296875 
Q 14.796875 17.390625 18.875 11.75 
Q 22.953125 6.109375 30.078125 6.109375 
Q 37.203125 6.109375 41.296875 11.75 
Q 45.40625 17.390625 45.40625 27.296875 
Q 45.40625 37.203125 41.296875 42.84375 
Q 37.203125 48.484375 30.078125 48.484375 
Q 22.953125 48.484375 18.875 42.84375 
Q 14.796875 37.203125 14.796875 27.296875 
z
" id="DejaVuSans-100"/>
     </defs>
     <g transform="translate(100 68.438438)scale(0.1 -0.1)">
      <use xlink:href="#DejaVuSans-109"/>
      <use x="97.412109" xlink:href="#DejaVuSans-111"/>
      <use x="158.59375" xlink:href="#DejaVuSans-100"/>
      <use x="222.070312" xlink:href="#DejaVuSans-101"/>
      <use x="283.59375" xlink:href="#DejaVuSans-108"/>
     </g>
    </g>
   </g>
  </g>
 </g>
 <defs>
  <clipPath id="p46eaf1d965">
   <rect height="332.64" width="390.6" x="63" y="51.84"/>
  </clipPath>
 </defs>
</svg>
