<?xml version="1.0" encoding="utf-8" standalone="no"?>
<!DOCTYPE svg PUBLIC "-//W3C//DTD SVG 1.1//EN"
  "http://www.w3.org/Graphics/SVG/1.1/DTD/svg11.dtd">
<!-- Created with matplotlib (https://matplotlib.org/) -->
<svg height="432pt" version="1.1" viewBox="0 0 504 432" width="504pt" xmlns="http://www.w3.org/2000/svg" xmlns:xlink="http://www.w3.org/1999/xlink">
 <metadata>
  <rdf:RDF xmlns:cc="http://creativecommons.org/ns#" xmlns:dc="http://purl.org/dc/elements/1.1/" xmlns:rdf="http://www.w3.org/1999/02/22-rdf-syntax-ns#">
   <cc:Work>
    <dc:type rdf:resource="http://purl.org/dc/dcmitype/StillImage"/>
    <dc:date>2021-02-07T10:01:18.406043</dc:date>
    <dc:format>image/svg+xml</dc:format>
    <dc:creator>
     <cc:Agent>
      <dc:title>Matplotlib v3.3.2, https://matplotlib.org/</dc:title>
     </cc:Agent>
    </dc:creator>
   </cc:Work>
  </rdf:RDF>
 </metadata>
 <defs>
  <style type="text/css">*{stroke-linecap:butt;stroke-linejoin:round;}</style>
 </defs>
 <g id="figure_1">
  <g id="patch_1">
   <path d="M 0 432 
L 504 432 
L 504 0 
L 0 0 
z
" style="fill:#ffffff;"/>
  </g>
  <g id="axes_1">
   <g id="patch_2">
    <path d="M 63 384.48 
L 453.6 384.48 
L 453.6 51.84 
L 63 51.84 
z
" style="fill:#ffffff;"/>
   </g>
   <g id="matplotlib.axis_1">
    <g id="xtick_1">
     <g id="line2d_1">
      <defs>
       <path d="M 0 0 
L 0 3.5 
" id="m7a69e74889" style="stroke:#000000;stroke-width:0.8;"/>
      </defs>
      <g>
       <use style="stroke:#000000;stroke-width:0.8;" x="80.754545" xlink:href="#m7a69e74889" y="384.48"/>
      </g>
     </g>
     <g id="text_1">
      <!-- 0 -->
      <g transform="translate(77.573295 399.078438)scale(0.1 -0.1)">
       <defs>
        <path d="M 31.78125 66.40625 
Q 24.171875 66.40625 20.328125 58.90625 
Q 16.5 51.421875 16.5 36.375 
Q 16.5 21.390625 20.328125 13.890625 
Q 24.171875 6.390625 31.78125 6.390625 
Q 39.453125 6.390625 43.28125 13.890625 
Q 47.125 21.390625 47.125 36.375 
Q 47.125 51.421875 43.28125 58.90625 
Q 39.453125 66.40625 31.78125 66.40625 
z
M 31.78125 74.21875 
Q 44.046875 74.21875 50.515625 64.515625 
Q 56.984375 54.828125 56.984375 36.375 
Q 56.984375 17.96875 50.515625 8.265625 
Q 44.046875 -1.421875 31.78125 -1.421875 
Q 19.53125 -1.421875 13.0625 8.265625 
Q 6.59375 17.96875 6.59375 36.375 
Q 6.59375 54.828125 13.0625 64.515625 
Q 19.53125 74.21875 31.78125 74.21875 
z
" id="DejaVuSans-48"/>
       </defs>
       <use xlink:href="#DejaVuSans-48"/>
      </g>
     </g>
    </g>
    <g id="xtick_2">
     <g id="line2d_2">
      <g>
       <use style="stroke:#000000;stroke-width:0.8;" x="151.772727" xlink:href="#m7a69e74889" y="384.48"/>
      </g>
     </g>
     <g id="text_2">
      <!-- 200 -->
      <g transform="translate(142.228977 399.078438)scale(0.1 -0.1)">
       <defs>
        <path d="M 19.1875 8.296875 
L 53.609375 8.296875 
L 53.609375 0 
L 7.328125 0 
L 7.328125 8.296875 
Q 12.9375 14.109375 22.625 23.890625 
Q 32.328125 33.6875 34.8125 36.53125 
Q 39.546875 41.84375 41.421875 45.53125 
Q 43.3125 49.21875 43.3125 52.78125 
Q 43.3125 58.59375 39.234375 62.25 
Q 35.15625 65.921875 28.609375 65.921875 
Q 23.96875 65.921875 18.8125 64.3125 
Q 13.671875 62.703125 7.8125 59.421875 
L 7.8125 69.390625 
Q 13.765625 71.78125 18.9375 73 
Q 24.125 74.21875 28.421875 74.21875 
Q 39.75 74.21875 46.484375 68.546875 
Q 53.21875 62.890625 53.21875 53.421875 
Q 53.21875 48.921875 51.53125 44.890625 
Q 49.859375 40.875 45.40625 35.40625 
Q 44.1875 33.984375 37.640625 27.21875 
Q 31.109375 20.453125 19.1875 8.296875 
z
" id="DejaVuSans-50"/>
       </defs>
       <use xlink:href="#DejaVuSans-50"/>
       <use x="63.623047" xlink:href="#DejaVuSans-48"/>
       <use x="127.246094" xlink:href="#DejaVuSans-48"/>
      </g>
     </g>
    </g>
    <g id="xtick_3">
     <g id="line2d_3">
      <g>
       <use style="stroke:#000000;stroke-width:0.8;" x="222.790909" xlink:href="#m7a69e74889" y="384.48"/>
      </g>
     </g>
     <g id="text_3">
      <!-- 400 -->
      <g transform="translate(213.247159 399.078438)scale(0.1 -0.1)">
       <defs>
        <path d="M 37.796875 64.3125 
L 12.890625 25.390625 
L 37.796875 25.390625 
z
M 35.203125 72.90625 
L 47.609375 72.90625 
L 47.609375 25.390625 
L 58.015625 25.390625 
L 58.015625 17.1875 
L 47.609375 17.1875 
L 47.609375 0 
L 37.796875 0 
L 37.796875 17.1875 
L 4.890625 17.1875 
L 4.890625 26.703125 
z
" id="DejaVuSans-52"/>
       </defs>
       <use xlink:href="#DejaVuSans-52"/>
       <use x="63.623047" xlink:href="#DejaVuSans-48"/>
       <use x="127.246094" xlink:href="#DejaVuSans-48"/>
      </g>
     </g>
    </g>
    <g id="xtick_4">
     <g id="line2d_4">
      <g>
       <use style="stroke:#000000;stroke-width:0.8;" x="293.809091" xlink:href="#m7a69e74889" y="384.48"/>
      </g>
     </g>
     <g id="text_4">
      <!-- 600 -->
      <g transform="translate(284.265341 399.078438)scale(0.1 -0.1)">
       <defs>
        <path d="M 33.015625 40.375 
Q 26.375 40.375 22.484375 35.828125 
Q 18.609375 31.296875 18.609375 23.390625 
Q 18.609375 15.53125 22.484375 10.953125 
Q 26.375 6.390625 33.015625 6.390625 
Q 39.65625 6.390625 43.53125 10.953125 
Q 47.40625 15.53125 47.40625 23.390625 
Q 47.40625 31.296875 43.53125 35.828125 
Q 39.65625 40.375 33.015625 40.375 
z
M 52.59375 71.296875 
L 52.59375 62.3125 
Q 48.875 64.0625 45.09375 64.984375 
Q 41.3125 65.921875 37.59375 65.921875 
Q 27.828125 65.921875 22.671875 59.328125 
Q 17.53125 52.734375 16.796875 39.40625 
Q 19.671875 43.65625 24.015625 45.921875 
Q 28.375 48.1875 33.59375 48.1875 
Q 44.578125 48.1875 50.953125 41.515625 
Q 57.328125 34.859375 57.328125 23.390625 
Q 57.328125 12.15625 50.6875 5.359375 
Q 44.046875 -1.421875 33.015625 -1.421875 
Q 20.359375 -1.421875 13.671875 8.265625 
Q 6.984375 17.96875 6.984375 36.375 
Q 6.984375 53.65625 15.1875 63.9375 
Q 23.390625 74.21875 37.203125 74.21875 
Q 40.921875 74.21875 44.703125 73.484375 
Q 48.484375 72.75 52.59375 71.296875 
z
" id="DejaVuSans-54"/>
       </defs>
       <use xlink:href="#DejaVuSans-54"/>
       <use x="63.623047" xlink:href="#DejaVuSans-48"/>
       <use x="127.246094" xlink:href="#DejaVuSans-48"/>
      </g>
     </g>
    </g>
    <g id="xtick_5">
     <g id="line2d_5">
      <g>
       <use style="stroke:#000000;stroke-width:0.8;" x="364.827273" xlink:href="#m7a69e74889" y="384.48"/>
      </g>
     </g>
     <g id="text_5">
      <!-- 800 -->
      <g transform="translate(355.283523 399.078438)scale(0.1 -0.1)">
       <defs>
        <path d="M 31.78125 34.625 
Q 24.75 34.625 20.71875 30.859375 
Q 16.703125 27.09375 16.703125 20.515625 
Q 16.703125 13.921875 20.71875 10.15625 
Q 24.75 6.390625 31.78125 6.390625 
Q 38.8125 6.390625 42.859375 10.171875 
Q 46.921875 13.96875 46.921875 20.515625 
Q 46.921875 27.09375 42.890625 30.859375 
Q 38.875 34.625 31.78125 34.625 
z
M 21.921875 38.8125 
Q 15.578125 40.375 12.03125 44.71875 
Q 8.5 49.078125 8.5 55.328125 
Q 8.5 64.0625 14.71875 69.140625 
Q 20.953125 74.21875 31.78125 74.21875 
Q 42.671875 74.21875 48.875 69.140625 
Q 55.078125 64.0625 55.078125 55.328125 
Q 55.078125 49.078125 51.53125 44.71875 
Q 48 40.375 41.703125 38.8125 
Q 48.828125 37.15625 52.796875 32.3125 
Q 56.78125 27.484375 56.78125 20.515625 
Q 56.78125 9.90625 50.3125 4.234375 
Q 43.84375 -1.421875 31.78125 -1.421875 
Q 19.734375 -1.421875 13.25 4.234375 
Q 6.78125 9.90625 6.78125 20.515625 
Q 6.78125 27.484375 10.78125 32.3125 
Q 14.796875 37.15625 21.921875 38.8125 
z
M 18.3125 54.390625 
Q 18.3125 48.734375 21.84375 45.5625 
Q 25.390625 42.390625 31.78125 42.390625 
Q 38.140625 42.390625 41.71875 45.5625 
Q 45.3125 48.734375 45.3125 54.390625 
Q 45.3125 60.0625 41.71875 63.234375 
Q 38.140625 66.40625 31.78125 66.40625 
Q 25.390625 66.40625 21.84375 63.234375 
Q 18.3125 60.0625 18.3125 54.390625 
z
" id="DejaVuSans-56"/>
       </defs>
       <use xlink:href="#DejaVuSans-56"/>
       <use x="63.623047" xlink:href="#DejaVuSans-48"/>
       <use x="127.246094" xlink:href="#DejaVuSans-48"/>
      </g>
     </g>
    </g>
    <g id="text_6">
     <!-- time [ms] -->
     <g transform="translate(234.038281 412.756563)scale(0.1 -0.1)">
      <defs>
       <path d="M 18.3125 70.21875 
L 18.3125 54.6875 
L 36.8125 54.6875 
L 36.8125 47.703125 
L 18.3125 47.703125 
L 18.3125 18.015625 
Q 18.3125 11.328125 20.140625 9.421875 
Q 21.96875 7.515625 27.59375 7.515625 
L 36.8125 7.515625 
L 36.8125 0 
L 27.59375 0 
Q 17.1875 0 13.234375 3.875 
Q 9.28125 7.765625 9.28125 18.015625 
L 9.28125 47.703125 
L 2.6875 47.703125 
L 2.6875 54.6875 
L 9.28125 54.6875 
L 9.28125 70.21875 
z
" id="DejaVuSans-116"/>
       <path d="M 9.421875 54.6875 
L 18.40625 54.6875 
L 18.40625 0 
L 9.421875 0 
z
M 9.421875 75.984375 
L 18.40625 75.984375 
L 18.40625 64.59375 
L 9.421875 64.59375 
z
" id="DejaVuSans-105"/>
       <path d="M 52 44.1875 
Q 55.375 50.25 60.0625 53.125 
Q 64.75 56 71.09375 56 
Q 79.640625 56 84.28125 50.015625 
Q 88.921875 44.046875 88.921875 33.015625 
L 88.921875 0 
L 79.890625 0 
L 79.890625 32.71875 
Q 79.890625 40.578125 77.09375 44.375 
Q 74.3125 48.1875 68.609375 48.1875 
Q 61.625 48.1875 57.5625 43.546875 
Q 53.515625 38.921875 53.515625 30.90625 
L 53.515625 0 
L 44.484375 0 
L 44.484375 32.71875 
Q 44.484375 40.625 41.703125 44.40625 
Q 38.921875 48.1875 33.109375 48.1875 
Q 26.21875 48.1875 22.15625 43.53125 
Q 18.109375 38.875 18.109375 30.90625 
L 18.109375 0 
L 9.078125 0 
L 9.078125 54.6875 
L 18.109375 54.6875 
L 18.109375 46.1875 
Q 21.1875 51.21875 25.484375 53.609375 
Q 29.78125 56 35.6875 56 
Q 41.65625 56 45.828125 52.96875 
Q 50 49.953125 52 44.1875 
z
" id="DejaVuSans-109"/>
       <path d="M 56.203125 29.59375 
L 56.203125 25.203125 
L 14.890625 25.203125 
Q 15.484375 15.921875 20.484375 11.0625 
Q 25.484375 6.203125 34.421875 6.203125 
Q 39.59375 6.203125 44.453125 7.46875 
Q 49.3125 8.734375 54.109375 11.28125 
L 54.109375 2.78125 
Q 49.265625 0.734375 44.1875 -0.34375 
Q 39.109375 -1.421875 33.890625 -1.421875 
Q 20.796875 -1.421875 13.15625 6.1875 
Q 5.515625 13.8125 5.515625 26.8125 
Q 5.515625 40.234375 12.765625 48.109375 
Q 20.015625 56 32.328125 56 
Q 43.359375 56 49.78125 48.890625 
Q 56.203125 41.796875 56.203125 29.59375 
z
M 47.21875 32.234375 
Q 47.125 39.59375 43.09375 43.984375 
Q 39.0625 48.390625 32.421875 48.390625 
Q 24.90625 48.390625 20.390625 44.140625 
Q 15.875 39.890625 15.1875 32.171875 
z
" id="DejaVuSans-101"/>
       <path id="DejaVuSans-32"/>
       <path d="M 8.59375 75.984375 
L 29.296875 75.984375 
L 29.296875 69 
L 17.578125 69 
L 17.578125 -6.203125 
L 29.296875 -6.203125 
L 29.296875 -13.1875 
L 8.59375 -13.1875 
z
" id="DejaVuSans-91"/>
       <path d="M 44.28125 53.078125 
L 44.28125 44.578125 
Q 40.484375 46.53125 36.375 47.5 
Q 32.28125 48.484375 27.875 48.484375 
Q 21.1875 48.484375 17.84375 46.4375 
Q 14.5 44.390625 14.5 40.28125 
Q 14.5 37.15625 16.890625 35.375 
Q 19.28125 33.59375 26.515625 31.984375 
L 29.59375 31.296875 
Q 39.15625 29.25 43.1875 25.515625 
Q 47.21875 21.78125 47.21875 15.09375 
Q 47.21875 7.46875 41.1875 3.015625 
Q 35.15625 -1.421875 24.609375 -1.421875 
Q 20.21875 -1.421875 15.453125 -0.5625 
Q 10.6875 0.296875 5.421875 2 
L 5.421875 11.28125 
Q 10.40625 8.6875 15.234375 7.390625 
Q 20.0625 6.109375 24.8125 6.109375 
Q 31.15625 6.109375 34.5625 8.28125 
Q 37.984375 10.453125 37.984375 14.40625 
Q 37.984375 18.0625 35.515625 20.015625 
Q 33.0625 21.96875 24.703125 23.78125 
L 21.578125 24.515625 
Q 13.234375 26.265625 9.515625 29.90625 
Q 5.8125 33.546875 5.8125 39.890625 
Q 5.8125 47.609375 11.28125 51.796875 
Q 16.75 56 26.8125 56 
Q 31.78125 56 36.171875 55.265625 
Q 40.578125 54.546875 44.28125 53.078125 
z
" id="DejaVuSans-115"/>
       <path d="M 30.421875 75.984375 
L 30.421875 -13.1875 
L 9.71875 -13.1875 
L 9.71875 -6.203125 
L 21.390625 -6.203125 
L 21.390625 69 
L 9.71875 69 
L 9.71875 75.984375 
z
" id="DejaVuSans-93"/>
      </defs>
      <use xlink:href="#DejaVuSans-116"/>
      <use x="39.208984" xlink:href="#DejaVuSans-105"/>
      <use x="66.992188" xlink:href="#DejaVuSans-109"/>
      <use x="164.404297" xlink:href="#DejaVuSans-101"/>
      <use x="225.927734" xlink:href="#DejaVuSans-32"/>
      <use x="257.714844" xlink:href="#DejaVuSans-91"/>
      <use x="296.728516" xlink:href="#DejaVuSans-109"/>
      <use x="394.140625" xlink:href="#DejaVuSans-115"/>
      <use x="446.240234" xlink:href="#DejaVuSans-93"/>
     </g>
    </g>
   </g>
   <g id="matplotlib.axis_2">
    <g id="ytick_1">
     <g id="line2d_6">
      <defs>
       <path d="M 0 0 
L -3.5 0 
" id="m05543da976" style="stroke:#000000;stroke-width:0.8;"/>
      </defs>
      <g>
       <use style="stroke:#000000;stroke-width:0.8;" x="63" xlink:href="#m05543da976" y="345.73429"/>
      </g>
     </g>
     <g id="text_7">
      <!-- −60 -->
      <g transform="translate(34.895313 349.533509)scale(0.1 -0.1)">
       <defs>
        <path d="M 10.59375 35.5 
L 73.1875 35.5 
L 73.1875 27.203125 
L 10.59375 27.203125 
z
" id="DejaVuSans-8722"/>
       </defs>
       <use xlink:href="#DejaVuSans-8722"/>
       <use x="83.789062" xlink:href="#DejaVuSans-54"/>
       <use x="147.412109" xlink:href="#DejaVuSans-48"/>
      </g>
     </g>
    </g>
    <g id="ytick_2">
     <g id="line2d_7">
      <g>
       <use style="stroke:#000000;stroke-width:0.8;" x="63" xlink:href="#m05543da976" y="279.186673"/>
      </g>
     </g>
     <g id="text_8">
      <!-- −40 -->
      <g transform="translate(34.895313 282.985891)scale(0.1 -0.1)">
       <use xlink:href="#DejaVuSans-8722"/>
       <use x="83.789062" xlink:href="#DejaVuSans-52"/>
       <use x="147.412109" xlink:href="#DejaVuSans-48"/>
      </g>
     </g>
    </g>
    <g id="ytick_3">
     <g id="line2d_8">
      <g>
       <use style="stroke:#000000;stroke-width:0.8;" x="63" xlink:href="#m05543da976" y="212.639055"/>
      </g>
     </g>
     <g id="text_9">
      <!-- −20 -->
      <g transform="translate(34.895313 216.438274)scale(0.1 -0.1)">
       <use xlink:href="#DejaVuSans-8722"/>
       <use x="83.789062" xlink:href="#DejaVuSans-50"/>
       <use x="147.412109" xlink:href="#DejaVuSans-48"/>
      </g>
     </g>
    </g>
    <g id="ytick_4">
     <g id="line2d_9">
      <g>
       <use style="stroke:#000000;stroke-width:0.8;" x="63" xlink:href="#m05543da976" y="146.091438"/>
      </g>
     </g>
     <g id="text_10">
      <!-- 0 -->
      <g transform="translate(49.6375 149.890656)scale(0.1 -0.1)">
       <use xlink:href="#DejaVuSans-48"/>
      </g>
     </g>
    </g>
    <g id="ytick_5">
     <g id="line2d_10">
      <g>
       <use style="stroke:#000000;stroke-width:0.8;" x="63" xlink:href="#m05543da976" y="79.54382"/>
      </g>
     </g>
     <g id="text_11">
      <!-- 20 -->
      <g transform="translate(43.275 83.343039)scale(0.1 -0.1)">
       <use xlink:href="#DejaVuSans-50"/>
       <use x="63.623047" xlink:href="#DejaVuSans-48"/>
      </g>
     </g>
    </g>
    <g id="text_12">
     <!-- voltage [V] -->
     <g transform="translate(28.815625 245.75375)rotate(-90)scale(0.1 -0.1)">
      <defs>
       <path d="M 2.984375 54.6875 
L 12.5 54.6875 
L 29.59375 8.796875 
L 46.6875 54.6875 
L 56.203125 54.6875 
L 35.6875 0 
L 23.484375 0 
z
" id="DejaVuSans-118"/>
       <path d="M 30.609375 48.390625 
Q 23.390625 48.390625 19.1875 42.75 
Q 14.984375 37.109375 14.984375 27.296875 
Q 14.984375 17.484375 19.15625 11.84375 
Q 23.34375 6.203125 30.609375 6.203125 
Q 37.796875 6.203125 41.984375 11.859375 
Q 46.1875 17.53125 46.1875 27.296875 
Q 46.1875 37.015625 41.984375 42.703125 
Q 37.796875 48.390625 30.609375 48.390625 
z
M 30.609375 56 
Q 42.328125 56 49.015625 48.375 
Q 55.71875 40.765625 55.71875 27.296875 
Q 55.71875 13.875 49.015625 6.21875 
Q 42.328125 -1.421875 30.609375 -1.421875 
Q 18.84375 -1.421875 12.171875 6.21875 
Q 5.515625 13.875 5.515625 27.296875 
Q 5.515625 40.765625 12.171875 48.375 
Q 18.84375 56 30.609375 56 
z
" id="DejaVuSans-111"/>
       <path d="M 9.421875 75.984375 
L 18.40625 75.984375 
L 18.40625 0 
L 9.421875 0 
z
" id="DejaVuSans-108"/>
       <path d="M 34.28125 27.484375 
Q 23.390625 27.484375 19.1875 25 
Q 14.984375 22.515625 14.984375 16.5 
Q 14.984375 11.71875 18.140625 8.90625 
Q 21.296875 6.109375 26.703125 6.109375 
Q 34.1875 6.109375 38.703125 11.40625 
Q 43.21875 16.703125 43.21875 25.484375 
L 43.21875 27.484375 
z
M 52.203125 31.203125 
L 52.203125 0 
L 43.21875 0 
L 43.21875 8.296875 
Q 40.140625 3.328125 35.546875 0.953125 
Q 30.953125 -1.421875 24.3125 -1.421875 
Q 15.921875 -1.421875 10.953125 3.296875 
Q 6 8.015625 6 15.921875 
Q 6 25.140625 12.171875 29.828125 
Q 18.359375 34.515625 30.609375 34.515625 
L 43.21875 34.515625 
L 43.21875 35.40625 
Q 43.21875 41.609375 39.140625 45 
Q 35.0625 48.390625 27.6875 48.390625 
Q 23 48.390625 18.546875 47.265625 
Q 14.109375 46.140625 10.015625 43.890625 
L 10.015625 52.203125 
Q 14.9375 54.109375 19.578125 55.046875 
Q 24.21875 56 28.609375 56 
Q 40.484375 56 46.34375 49.84375 
Q 52.203125 43.703125 52.203125 31.203125 
z
" id="DejaVuSans-97"/>
       <path d="M 45.40625 27.984375 
Q 45.40625 37.75 41.375 43.109375 
Q 37.359375 48.484375 30.078125 48.484375 
Q 22.859375 48.484375 18.828125 43.109375 
Q 14.796875 37.75 14.796875 27.984375 
Q 14.796875 18.265625 18.828125 12.890625 
Q 22.859375 7.515625 30.078125 7.515625 
Q 37.359375 7.515625 41.375 12.890625 
Q 45.40625 18.265625 45.40625 27.984375 
z
M 54.390625 6.78125 
Q 54.390625 -7.171875 48.1875 -13.984375 
Q 42 -20.796875 29.203125 -20.796875 
Q 24.46875 -20.796875 20.265625 -20.09375 
Q 16.0625 -19.390625 12.109375 -17.921875 
L 12.109375 -9.1875 
Q 16.0625 -11.328125 19.921875 -12.34375 
Q 23.78125 -13.375 27.78125 -13.375 
Q 36.625 -13.375 41.015625 -8.765625 
Q 45.40625 -4.15625 45.40625 5.171875 
L 45.40625 9.625 
Q 42.625 4.78125 38.28125 2.390625 
Q 33.9375 0 27.875 0 
Q 17.828125 0 11.671875 7.65625 
Q 5.515625 15.328125 5.515625 27.984375 
Q 5.515625 40.671875 11.671875 48.328125 
Q 17.828125 56 27.875 56 
Q 33.9375 56 38.28125 53.609375 
Q 42.625 51.21875 45.40625 46.390625 
L 45.40625 54.6875 
L 54.390625 54.6875 
z
" id="DejaVuSans-103"/>
       <path d="M 28.609375 0 
L 0.78125 72.90625 
L 11.078125 72.90625 
L 34.1875 11.53125 
L 57.328125 72.90625 
L 67.578125 72.90625 
L 39.796875 0 
z
" id="DejaVuSans-86"/>
      </defs>
      <use xlink:href="#DejaVuSans-118"/>
      <use x="59.179688" xlink:href="#DejaVuSans-111"/>
      <use x="120.361328" xlink:href="#DejaVuSans-108"/>
      <use x="148.144531" xlink:href="#DejaVuSans-116"/>
      <use x="187.353516" xlink:href="#DejaVuSans-97"/>
      <use x="248.632812" xlink:href="#DejaVuSans-103"/>
      <use x="312.109375" xlink:href="#DejaVuSans-101"/>
      <use x="373.632812" xlink:href="#DejaVuSans-32"/>
      <use x="405.419922" xlink:href="#DejaVuSans-91"/>
      <use x="444.433594" xlink:href="#DejaVuSans-86"/>
      <use x="512.841797" xlink:href="#DejaVuSans-93"/>
     </g>
    </g>
   </g>
   <g id="line2d_11">
    <path clip-path="url(#p10a64692ec)" d="M 80.754545 362.371186 
L 81.695536 362.383064 
L 85.743573 362.80177 
L 98.562355 364.113554 
L 108.664691 364.904824 
L 119.565982 365.531426 
L 131.763355 366.004426 
L 146.073518 366.32923 
L 151.772727 366.407243 
L 151.8615 364.402066 
L 152.234345 356.231603 
L 152.731473 350.512888 
L 153.565936 343.756474 
L 154.9863 334.236121 
L 156.726245 324.093343 
L 158.412927 315.517282 
L 160.028591 308.412907 
L 161.590991 302.536717 
L 163.153391 297.53117 
L 164.840073 292.892462 
L 167.236936 287.034413 
L 168.941373 282.637792 
L 169.793591 279.836104 
L 170.361736 277.223976 
L 170.752336 274.393847 
L 171.036409 270.328457 
L 171.1962 263.161076 
L 171.249464 255.192728 
L 171.622309 69.282115 
L 171.675573 66.96 
L 171.746591 67.199115 
L 171.906382 79.926318 
L 172.190455 132.188974 
L 172.847373 249.529777 
L 173.220218 283.760628 
L 173.5398 296.036858 
L 173.912645 302.438393 
L 174.303245 305.787824 
L 174.782618 307.981122 
L 175.226482 309.086068 
L 175.6881 309.673489 
L 176.096455 309.865616 
L 176.522564 309.822251 
L 177.019691 309.531586 
L 177.676609 308.852492 
L 178.528827 307.625311 
L 179.771645 305.420074 
L 182.807673 299.415299 
L 185.470855 294.436924 
L 188.134036 289.956203 
L 192.217582 283.140691 
L 193.336118 280.763715 
L 194.117318 278.570672 
L 194.685464 276.25595 
L 195.093818 273.485021 
L 195.324627 270.551302 
L 195.502173 264.648733 
L 195.573191 255.491136 
L 195.626455 228.232434 
L 195.839509 97.527191 
L 196.017055 88.967005 
L 196.034809 88.925819 
L 196.176845 92.634554 
L 196.407655 109.571185 
L 196.744991 157.977985 
L 197.437418 254.770145 
L 197.810264 279.301178 
L 198.200864 290.927715 
L 198.591464 296.517613 
L 199.070836 300.183969 
L 199.550209 302.33467 
L 200.082845 303.816614 
L 200.650991 304.753082 
L 201.219136 305.241789 
L 201.787282 305.408459 
L 202.390936 305.323933 
L 203.083364 304.983166 
L 203.988845 304.259603 
L 205.231664 302.942285 
L 207.220173 300.459133 
L 212.9904 293.123115 
L 217.855145 287.475004 
L 220.4118 284.316402 
L 221.885427 282.149529 
L 222.915191 280.244913 
L 223.660882 278.408809 
L 224.229027 276.398431 
L 224.637382 274.090501 
L 224.9037 271.386804 
L 225.081245 267.659984 
L 225.205527 258.483004 
L 225.241036 245.08556 
L 225.525109 96.331364 
L 225.596127 94.000236 
L 225.667145 94.547601 
L 225.862445 102.405967 
L 226.164273 126.579129 
L 226.679155 195.062642 
L 227.229545 256.343784 
L 227.6379 277.542338 
L 228.046255 287.782037 
L 228.454609 293.107684 
L 228.933982 296.709604 
L 229.502127 299.298182 
L 230.105782 301.022467 
L 230.691682 302.084594 
L 231.313091 302.761774 
L 231.898991 303.093321 
L 232.538155 303.200944 
L 233.266091 303.082277 
L 234.153818 302.68602 
L 235.236845 301.946986 
L 236.781491 300.59909 
L 239.320391 298.049007 
L 247.416464 289.809653 
L 251.446745 285.642433 
L 253.346482 283.358672 
L 254.642564 281.459098 
L 255.601309 279.652698 
L 256.275982 277.93011 
L 256.808618 275.949093 
L 257.181464 273.71645 
L 257.447782 270.740148 
L 257.607573 266.825626 
L 257.696345 260.371237 
L 257.767364 237.393167 
L 257.998173 99.914718 
L 258.122455 94.687056 
L 258.157964 95.290827 
L 258.264491 98.740797 
L 258.566318 118.979211 
L 258.956918 162.992626 
L 259.755873 254.905592 
L 260.181982 276.655118 
L 260.590336 286.711268 
L 261.016445 292.053926 
L 261.495818 295.44571 
L 262.028455 297.768574 
L 262.649864 299.502409 
L 263.271273 300.611756 
L 263.892682 301.301849 
L 264.531845 301.694074 
L 265.206518 301.847316 
L 265.952209 301.783139 
L 266.839936 301.473229 
L 267.958473 300.831548 
L 269.449855 299.702922 
L 271.722436 297.681294 
L 281.203364 288.711988 
L 284.452445 285.444939 
L 286.298918 283.285036 
L 287.577245 281.464874 
L 288.518236 279.756136 
L 289.246173 277.96573 
L 289.778809 276.052081 
L 290.151655 273.931212 
L 290.435727 270.971981 
L 290.631027 265.879893 
L 290.7198 257.546818 
L 290.844082 160.978847 
L 291.003873 99.060663 
L 291.128155 94.978005 
L 291.163664 95.503391 
L 291.341209 102.896044 
L 291.643036 126.367738 
L 292.175673 191.771491 
L 292.761573 254.400676 
L 293.152173 274.788724 
L 293.560527 285.62996 
L 294.004391 291.522957 
L 294.483764 295.045917 
L 295.051909 297.559375 
L 295.673318 299.291208 
L 296.276973 300.377535 
L 296.916136 301.098014 
L 297.5553 301.498336 
L 298.247727 301.663671 
L 299.028927 301.6004 
L 299.952164 301.278947 
L 301.141718 300.594827 
L 302.686364 299.427749 
L 305.154245 297.247801 
L 315.451882 287.613131 
L 318.150573 284.837568 
L 319.837255 282.795375 
L 321.062318 280.959534 
L 321.950045 279.224308 
L 322.589209 277.509206 
L 323.068582 275.623478 
L 323.423673 273.364004 
L 323.672236 270.441262 
L 323.849782 264.947622 
L 323.938555 254.16241 
L 323.974064 233.752559 
L 324.204873 100.297761 
L 324.3114 94.761675 
L 324.346909 95.23685 
L 324.453436 98.230707 
L 324.755264 118.149634 
L 325.163618 163.426077 
L 325.962573 254.222502 
L 326.388682 276.056932 
L 326.797036 286.339647 
L 327.2409 291.957958 
L 327.738027 295.428757 
L 328.306173 297.810018 
L 328.927582 299.454076 
L 329.5845 300.551054 
L 330.223664 301.195872 
L 330.880582 301.545607 
L 331.555255 301.658958 
L 332.354209 301.55272 
L 333.2952 301.186259 
L 334.484755 300.468915 
L 336.135927 299.189098 
L 338.834618 296.774734 
L 350.197527 286.084602 
L 352.274809 283.796697 
L 353.677418 281.941247 
L 354.724936 280.195707 
L 355.506136 278.460233 
L 356.092036 276.602907 
L 356.518145 274.499366 
L 356.819973 271.882788 
L 357.015273 268.342194 
L 357.139555 261.977503 
L 357.210573 243.056957 
L 357.476891 97.748492 
L 357.565664 94.924223 
L 357.618927 95.504422 
L 357.778718 101.998241 
L 358.116055 128.41502 
L 358.648691 194.40248 
L 359.216836 254.64847 
L 359.625191 275.788826 
L 360.033545 286.306662 
L 360.459655 291.860096 
L 360.939027 295.328116 
L 361.453909 297.600746 
L 362.057564 299.303808 
L 362.678973 300.426872 
L 363.318136 301.140763 
L 363.975055 301.540995 
L 364.649727 301.692281 
L 364.862782 301.696365 
L 364.969309 303.886116 
L 365.306645 311.121988 
L 365.786018 316.224479 
L 366.460691 320.827304 
L 367.348418 325.344605 
L 368.395936 329.53801 
L 369.532227 333.214788 
L 370.775045 336.52572 
L 372.1599 339.589863 
L 373.633527 342.318495 
L 375.213682 344.786859 
L 376.900364 347.022045 
L 378.729082 349.084856 
L 380.735345 351.011831 
L 382.9014 352.78387 
L 385.280509 354.441493 
L 387.890427 355.98811 
L 390.819927 357.459815 
L 394.051255 358.830966 
L 397.673182 360.123618 
L 401.738973 361.335472 
L 406.3374 362.468273 
L 411.450709 363.495213 
L 417.167673 364.413833 
L 423.577064 365.214365 
L 430.732145 365.880312 
L 435.8277 366.235935 
L 435.8277 366.235935 
" style="fill:none;stroke:#1f77b4;stroke-linecap:square;stroke-width:1.5;"/>
   </g>
   <g id="line2d_12">
    <path clip-path="url(#p10a64692ec)" d="M 80.754545 362.371194 
L 81.287182 362.574594 
L 85.441745 363.851754 
L 89.525291 364.883865 
L 93.679855 365.703071 
L 98.082982 366.342035 
L 102.894464 366.811834 
L 108.380618 367.117915 
L 115.056327 367.257458 
L 124.466236 367.211531 
L 151.772727 366.846269 
L 151.985782 346.747008 
L 152.394136 329.711884 
L 152.944527 315.666899 
L 153.565936 305.242003 
L 154.222855 297.775732 
L 154.968545 291.776763 
L 155.909536 286.059595 
L 158.075591 273.618979 
L 158.448436 269.611759 
L 158.661491 264.748302 
L 158.768018 257.418352 
L 158.821282 241.719906 
L 158.910055 95.320729 
L 158.998827 163.731904 
L 159.265145 281.998152 
L 159.2829 282.16768 
L 159.318409 281.872673 
L 159.442691 280.611715 
L 159.495955 280.822461 
L 159.780027 282.748185 
L 159.833291 282.669262 
L 159.993082 281.81017 
L 160.827545 276.467204 
L 161.963836 271.173034 
L 162.283418 268.099771 
L 162.478718 264.032388 
L 162.585245 257.779864 
L 162.656264 236.484422 
L 162.745036 101.561422 
L 162.816055 147.944521 
L 163.082373 276.690177 
L 163.135636 278.881964 
L 163.206655 278.040722 
L 163.348691 276.380241 
L 163.3842 276.487982 
L 163.508482 278.067241 
L 163.881327 282.656506 
L 164.094382 283.16556 
L 164.289682 283.16184 
L 165.354955 282.597886 
L 165.887591 282.006304 
L 166.597773 280.841 
L 167.556518 278.806852 
L 168.497509 276.297527 
L 169.189936 273.842987 
L 169.687064 271.25185 
L 170.006645 268.440257 
L 170.2197 264.53517 
L 170.343982 257.825567 
L 170.415 237.268522 
L 170.503773 101.909253 
L 170.574791 147.537817 
L 170.858864 280.556016 
L 170.894373 281.228567 
L 170.947636 280.242164 
L 171.249464 274.289784 
L 171.302727 274.496522 
L 171.462518 276.60304 
L 171.870873 281.59009 
L 172.1727 282.769556 
L 172.510036 283.257821 
L 172.900636 283.455095 
L 173.308991 283.41537 
L 173.788364 283.123598 
L 174.427527 282.443309 
L 175.333009 281.122967 
L 176.4693 279.057279 
L 177.499064 276.732171 
L 178.280264 274.42016 
L 178.830655 272.101977 
L 179.221255 269.45543 
L 179.469818 266.217846 
L 179.629609 260.872633 
L 179.718382 248.237549 
L 179.771645 173.816084 
L 179.824909 101.820944 
L 179.878173 130.654895 
L 180.162245 279.815704 
L 180.215509 282.193688 
L 180.286527 281.033298 
L 180.5706 275.72914 
L 180.606109 275.717596 
L 180.623864 275.760472 
L 180.730391 276.5716 
L 181.387309 282.882825 
L 181.724645 283.808681 
L 182.115245 284.267916 
L 182.505845 284.405837 
L 182.931955 284.315637 
L 183.464591 283.957115 
L 184.210282 283.159748 
L 185.2578 281.688971 
L 186.518373 279.529936 
L 187.636909 277.182517 
L 188.471373 274.926112 
L 189.075027 272.657648 
L 189.501136 270.172127 
L 189.785209 267.145539 
L 189.962755 262.733642 
L 190.069282 253.248372 
L 190.122545 222.120717 
L 190.193564 101.768395 
L 190.264582 143.871396 
L 190.548655 281.384056 
L 190.584164 282.48378 
L 190.655182 281.473865 
L 190.939255 276.773111 
L 191.010273 277.055019 
L 191.223327 279.516039 
L 191.596173 282.895153 
L 191.933509 284.122932 
L 192.306355 284.70989 
L 192.696955 284.94254 
L 193.105309 284.931447 
L 193.602436 284.677397 
L 194.277109 284.05545 
L 195.235855 282.842567 
L 196.514182 280.850798 
L 197.792509 278.455117 
L 198.786764 276.133753 
L 199.5147 273.873773 
L 200.029582 271.546348 
L 200.384673 268.88706 
L 200.615482 265.409786 
L 200.757518 259.52959 
L 200.828536 247.69862 
L 200.8818 168.608612 
L 200.935064 101.896796 
L 200.988327 131.847228 
L 201.2724 280.297496 
L 201.325664 282.608622 
L 201.396682 281.543445 
L 201.663 277.194256 
L 201.716264 277.35616 
L 201.876055 279.017412 
L 202.302164 283.124689 
L 202.6395 284.363627 
L 203.012345 284.949012 
L 203.402945 285.178019 
L 203.8113 285.164723 
L 204.308427 284.910671 
L 204.9831 284.292212 
L 205.9596 283.064536 
L 207.273436 281.03262 
L 208.587273 278.596394 
L 209.599282 276.268975 
L 210.344973 274.000367 
L 210.877609 271.646995 
L 211.2327 269.072394 
L 211.463509 265.826204 
L 211.605545 260.837391 
L 211.694318 248.077392 
L 211.747582 172.212692 
L 211.800845 101.812702 
L 211.854109 130.996813 
L 212.138182 280.218683 
L 212.191445 282.63486 
L 212.262464 281.615006 
L 212.528782 277.345945 
L 212.5998 277.655179 
L 212.848364 280.577325 
L 213.203455 283.457232 
L 213.540791 284.551048 
L 213.913636 285.067276 
L 214.304236 285.254466 
L 214.730345 285.205284 
L 215.245227 284.905975 
L 215.955409 284.215234 
L 216.985173 282.876 
L 218.334518 280.739744 
L 219.6306 278.277006 
L 220.6071 275.957938 
L 221.317282 273.705008 
L 221.814409 271.399208 
L 222.151745 268.81818 
L 222.382555 265.263164 
L 222.524591 259.035291 
L 222.595609 245.253894 
L 222.648873 149.230218 
L 222.702136 102.903026 
L 222.7554 136.77904 
L 223.039473 280.896727 
L 223.092736 282.677661 
L 223.146 281.900086 
L 223.412318 277.417647 
L 223.430073 277.430741 
L 223.518845 277.967638 
L 224.229027 284.071139 
L 224.584118 284.868871 
L 224.974718 285.224804 
L 225.365318 285.296791 
L 225.826936 285.141697 
L 226.430591 284.675775 
L 227.282809 283.70693 
L 228.490118 281.971756 
L 229.874973 279.589969 
L 231.029018 277.175162 
L 231.881236 274.878999 
L 232.484891 272.61334 
L 232.911 270.12473 
L 233.195073 267.075589 
L 233.372618 262.56512 
L 233.479145 252.44254 
L 233.532409 215.469089 
L 233.603427 102.012854 
L 233.656691 132.701743 
L 233.940764 280.440629 
L 233.994027 282.666254 
L 234.065045 281.592036 
L 234.313609 277.458614 
L 234.331364 277.464042 
L 234.402382 277.818877 
L 235.272355 284.510455 
L 235.6452 285.097688 
L 236.0358 285.3209 
L 236.444155 285.302932 
L 236.941282 285.046211 
L 237.633709 284.408419 
L 238.627964 283.155523 
L 239.959555 281.100301 
L 241.291145 278.644796 
L 242.320909 276.293143 
L 243.0666 274.044655 
L 243.599236 271.726881 
L 243.972082 269.052671 
L 244.202891 265.795691 
L 244.344927 260.760735 
L 244.4337 247.653832 
L 244.486964 168.228099 
L 244.540227 101.916421 
L 244.593491 131.932336 
L 244.877564 280.342804 
L 244.930827 282.658864 
L 245.001845 281.615646 
L 245.250409 277.467197 
L 245.268164 277.47169 
L 245.339182 277.824402 
L 245.694273 281.915049 
L 246.031609 283.986014 
L 246.368945 284.830842 
L 246.741791 285.227271 
L 247.132391 285.340711 
L 247.576255 285.228626 
L 248.1444 284.832727 
L 248.943355 283.976361 
L 250.0974 282.381759 
L 251.500009 280.052864 
L 252.707318 277.634023 
L 253.6128 275.332374 
L 254.251964 273.117839 
L 254.713582 270.705902 
L 255.015409 267.96966 
L 255.210709 264.232882 
L 255.334991 257.001289 
L 255.388255 244.120088 
L 255.477027 102.382495 
L 255.583555 165.970327 
L 255.867627 282.564691 
L 255.885382 282.67426 
L 255.920891 282.240999 
L 256.204964 277.452528 
L 256.240473 277.531492 
L 256.364755 278.640797 
L 256.861882 283.456188 
L 257.199218 284.587053 
L 257.572064 285.108036 
L 257.962664 285.293381 
L 258.388773 285.242685 
L 258.921409 284.929346 
L 259.649345 284.213767 
L 260.696864 282.843972 
L 262.063964 280.675188 
L 263.360045 278.209292 
L 264.336545 275.883948 
L 265.046727 273.615442 
L 265.543855 271.273882 
L 265.881191 268.606207 
L 266.094245 265.225431 
L 266.236282 258.919273 
L 266.3073 244.652653 
L 266.360564 145.654276 
L 266.396073 102.659406 
L 266.467091 137.808347 
L 266.751164 280.986414 
L 266.804427 282.672861 
L 266.857691 281.87149 
L 267.124009 277.461359 
L 267.141764 277.481588 
L 267.230536 278.049418 
L 267.922964 284.068291 
L 268.278055 284.882419 
L 268.6509 285.232536 
L 269.0415 285.316104 
L 269.485364 285.180664 
L 270.071264 284.748803 
L 270.905727 283.825902 
L 272.095282 282.148816 
L 273.497891 279.779783 
L 274.687445 277.342326 
L 275.557418 275.059933 
L 276.178827 272.809418 
L 276.622691 270.331511 
L 276.906764 267.49955 
L 277.102064 263.023032 
L 277.208591 254.585839 
L 277.261855 231.602037 
L 277.332873 102.56115 
L 277.403891 138.120623 
L 277.687964 281.012566 
L 277.741227 282.669028 
L 277.794491 281.858978 
L 278.060809 277.457834 
L 278.078564 277.478908 
L 278.167336 278.050015 
L 278.859764 284.0655 
L 279.214855 284.878217 
L 279.5877 285.227671 
L 279.9783 285.311018 
L 280.422164 285.175714 
L 281.008064 284.744424 
L 281.842527 283.822783 
L 283.032082 282.147998 
L 284.434691 279.782432 
L 285.624245 277.349298 
L 286.494218 275.072548 
L 287.115627 272.830765 
L 287.559491 270.369941 
L 287.843564 267.576492 
L 288.038864 263.238577 
L 288.145391 255.471967 
L 288.198655 236.823037 
L 288.287427 102.167484 
L 288.358445 147.750865 
L 288.642518 281.77758 
L 288.678027 282.657103 
L 288.731291 281.993385 
L 288.997609 277.477944 
L 289.015364 277.488141 
L 289.104136 278.019494 
L 289.814318 284.144113 
L 290.169409 284.937098 
L 290.542255 285.27943 
L 290.932855 285.359221 
L 291.394473 285.21241 
L 291.998127 284.75681 
L 292.850345 283.8023 
L 294.057655 282.08994 
L 295.460264 279.712759 
L 296.632064 277.305821 
L 297.502036 275.017636 
L 298.123445 272.754013 
L 298.549555 270.375434 
L 298.851382 267.335642 
L 299.028927 263.275947 
L 299.135455 255.620439 
L 299.188718 237.623145 
L 299.277491 102.035989 
L 299.348509 146.93047 
L 299.632582 281.717184 
L 299.668091 282.647263 
L 299.739109 281.581556 
L 299.987673 277.471293 
L 300.005427 277.479195 
L 300.076445 277.843948 
L 300.928664 284.492719 
L 301.283755 285.082028 
L 301.674355 285.329787 
L 302.082709 285.33022 
L 302.579836 285.091183 
L 303.254509 284.491612 
L 304.231009 283.291421 
L 305.5626 281.27717 
L 306.9297 278.807362 
L 307.994973 276.429515 
L 308.758418 274.188304 
L 309.308809 271.869179 
L 309.681655 269.322972 
L 309.930218 266.034307 
L 310.090009 260.37858 
L 310.178782 245.289148 
L 310.232045 149.547736 
L 310.285309 102.902921 
L 310.338573 136.673355 
L 310.622645 280.85136 
L 310.675909 282.65869 
L 310.729173 281.894412 
L 310.995491 277.458922 
L 311.013245 277.476769 
L 311.102018 278.036475 
L 311.794445 284.071952 
L 312.149536 284.891889 
L 312.522382 285.246823 
L 312.912982 285.335222 
L 313.356845 285.205216 
L 313.942745 284.780477 
L 314.777209 283.86767 
L 315.966764 282.205892 
L 317.369373 279.860064 
L 318.558927 277.455451 
L 319.446655 275.168818 
L 320.085818 272.901316 
L 320.529682 270.494207 
L 320.831509 267.57926 
L 321.026809 263.255002 
L 321.133336 255.545932 
L 321.1866 237.234622 
L 321.275373 102.105167 
L 321.346391 147.320308 
L 321.630464 281.732301 
L 321.665973 282.640655 
L 321.736991 281.562698 
L 321.985555 277.466537 
L 322.003309 277.475495 
L 322.092082 278.002311 
L 322.802264 284.133654 
L 323.157355 284.929795 
L 323.547955 285.284036 
L 323.956309 285.355078 
L 324.417927 285.19548 
L 325.021582 284.73067 
L 325.891555 283.748698 
L 327.116618 282.00415 
L 328.519227 279.619733 
L 329.691027 277.200096 
L 330.543245 274.941159 
L 331.1469 272.73092 
L 331.573009 270.345796 
L 331.857082 267.539983 
L 332.052382 263.150287 
L 332.158909 255.130781 
L 332.212173 234.922742 
L 332.300945 102.554603 
L 332.371964 149.526038 
L 332.656036 281.873219 
L 332.691545 282.649273 
L 332.744809 281.928474 
L 333.011127 277.460665 
L 333.028882 277.475316 
L 333.117655 278.023334 
L 333.827836 284.135368 
L 334.182927 284.925849 
L 334.573527 285.277541 
L 334.981882 285.347221 
L 335.4435 285.186837 
L 336.047155 284.721733 
L 336.917127 283.740152 
L 338.142191 281.996883 
L 339.5448 279.614349 
L 340.7166 277.196555 
L 341.568818 274.939294 
L 342.172473 272.7308 
L 342.598582 270.348047 
L 342.882655 267.546664 
L 343.077955 263.171465 
L 343.184482 255.219729 
L 343.237745 235.437196 
L 343.326518 102.447128 
L 343.397536 149.055562 
L 343.681609 281.838466 
L 343.717118 282.643269 
L 343.770382 281.938823 
L 344.0367 277.459069 
L 344.054455 277.472501 
L 344.143227 278.016016 
L 344.853409 284.134025 
L 345.2085 284.926669 
L 345.5991 285.279956 
L 346.007455 285.351031 
L 346.469073 285.192058 
L 347.072727 284.728631 
L 347.9427 283.749316 
L 349.167764 282.009362 
L 350.570373 279.631792 
L 351.742173 277.221079 
L 352.594391 274.974456 
L 353.2158 272.705032 
L 353.641909 270.308235 
L 353.925982 267.471915 
L 354.103527 263.628082 
L 354.210055 256.927551 
L 354.263318 243.83704 
L 354.352091 102.306446 
L 354.458618 166.309576 
L 354.742691 282.532328 
L 354.760445 282.636884 
L 354.795955 282.199328 
L 355.080027 277.428286 
L 355.115536 277.509758 
L 355.239818 278.625527 
L 355.736945 283.442223 
L 356.074282 284.573641 
L 356.447127 285.097251 
L 356.837727 285.286876 
L 357.263836 285.242088 
L 357.796473 284.937299 
L 358.524409 284.234682 
L 359.571927 282.885532 
L 360.939027 280.749195 
L 362.252864 278.291443 
L 363.247118 275.969593 
L 363.9573 273.760505 
L 364.472182 271.420262 
L 364.827273 268.707327 
L 365.058082 291.844623 
L 365.377664 302.845789 
L 365.839282 311.257748 
L 366.478445 318.858661 
L 367.259645 325.510678 
L 368.147373 331.209449 
L 369.141627 336.173516 
L 370.224655 340.464442 
L 371.396455 344.206233 
L 372.657027 347.491099 
L 374.006373 350.392791 
L 375.462245 353.000559 
L 377.024645 355.349284 
L 378.729082 357.510048 
L 380.5578 359.469942 
L 382.528555 361.256032 
L 384.641345 362.869168 
L 386.878418 364.297577 
L 389.257527 365.551976 
L 391.778673 366.627659 
L 394.441855 367.520704 
L 397.282582 368.237234 
L 400.354118 368.779978 
L 403.745236 369.148624 
L 407.597973 369.337097 
L 412.214155 369.330948 
L 418.463755 369.082891 
L 435.845455 368.128821 
L 435.845455 368.128821 
" style="fill:none;stroke:#ff0000;stroke-linecap:square;stroke-width:1.5;"/>
   </g>
   <g id="patch_3">
    <path d="M 63 384.48 
L 63 51.84 
" style="fill:none;stroke:#000000;stroke-linecap:square;stroke-linejoin:miter;stroke-width:0.8;"/>
   </g>
   <g id="patch_4">
    <path d="M 453.6 384.48 
L 453.6 51.84 
" style="fill:none;stroke:#000000;stroke-linecap:square;stroke-linejoin:miter;stroke-width:0.8;"/>
   </g>
   <g id="patch_5">
    <path d="M 63 384.48 
L 453.6 384.48 
" style="fill:none;stroke:#000000;stroke-linecap:square;stroke-linejoin:miter;stroke-width:0.8;"/>
   </g>
   <g id="patch_6">
    <path d="M 63 51.84 
L 453.6 51.84 
" style="fill:none;stroke:#000000;stroke-linecap:square;stroke-linejoin:miter;stroke-width:0.8;"/>
   </g>
   <g id="legend_1">
    <g id="patch_7">
     <path d="M 383.460938 89.19625 
L 446.6 89.19625 
Q 448.6 89.19625 448.6 87.19625 
L 448.6 58.84 
Q 448.6 56.84 446.6 56.84 
L 383.460938 56.84 
Q 381.460938 56.84 381.460938 58.84 
L 381.460938 87.19625 
Q 381.460938 89.19625 383.460938 89.19625 
z
" style="fill:#ffffff;opacity:0.8;stroke:#cccccc;stroke-linejoin:miter;"/>
    </g>
    <g id="line2d_13">
     <path d="M 385.460938 64.938437 
L 405.460938 64.938437 
" style="fill:none;stroke:#1f77b4;stroke-linecap:square;stroke-width:1.5;"/>
    </g>
    <g id="line2d_14"/>
    <g id="text_13">
     <!-- target -->
     <g transform="translate(413.460938 68.438437)scale(0.1 -0.1)">
      <defs>
       <path d="M 41.109375 46.296875 
Q 39.59375 47.171875 37.8125 47.578125 
Q 36.03125 48 33.890625 48 
Q 26.265625 48 22.1875 43.046875 
Q 18.109375 38.09375 18.109375 28.8125 
L 18.109375 0 
L 9.078125 0 
L 9.078125 54.6875 
L 18.109375 54.6875 
L 18.109375 46.1875 
Q 20.953125 51.171875 25.484375 53.578125 
Q 30.03125 56 36.53125 56 
Q 37.453125 56 38.578125 55.875 
Q 39.703125 55.765625 41.0625 55.515625 
z
" id="DejaVuSans-114"/>
      </defs>
      <use xlink:href="#DejaVuSans-116"/>
      <use x="39.208984" xlink:href="#DejaVuSans-97"/>
      <use x="100.488281" xlink:href="#DejaVuSans-114"/>
      <use x="139.851562" xlink:href="#DejaVuSans-103"/>
      <use x="203.328125" xlink:href="#DejaVuSans-101"/>
      <use x="264.851562" xlink:href="#DejaVuSans-116"/>
     </g>
    </g>
    <g id="line2d_15">
     <path d="M 385.460938 79.616562 
L 405.460938 79.616562 
" style="fill:none;stroke:#ff0000;stroke-linecap:square;stroke-width:1.5;"/>
    </g>
    <g id="line2d_16"/>
    <g id="text_14">
     <!-- model -->
     <g transform="translate(413.460938 83.116562)scale(0.1 -0.1)">
      <defs>
       <path d="M 45.40625 46.390625 
L 45.40625 75.984375 
L 54.390625 75.984375 
L 54.390625 0 
L 45.40625 0 
L 45.40625 8.203125 
Q 42.578125 3.328125 38.25 0.953125 
Q 33.9375 -1.421875 27.875 -1.421875 
Q 17.96875 -1.421875 11.734375 6.484375 
Q 5.515625 14.40625 5.515625 27.296875 
Q 5.515625 40.1875 11.734375 48.09375 
Q 17.96875 56 27.875 56 
Q 33.9375 56 38.25 53.625 
Q 42.578125 51.265625 45.40625 46.390625 
z
M 14.796875 27.296875 
Q 14.796875 17.390625 18.875 11.75 
Q 22.953125 6.109375 30.078125 6.109375 
Q 37.203125 6.109375 41.296875 11.75 
Q 45.40625 17.390625 45.40625 27.296875 
Q 45.40625 37.203125 41.296875 42.84375 
Q 37.203125 48.484375 30.078125 48.484375 
Q 22.953125 48.484375 18.875 42.84375 
Q 14.796875 37.203125 14.796875 27.296875 
z
" id="DejaVuSans-100"/>
      </defs>
      <use xlink:href="#DejaVuSans-109"/>
      <use x="97.412109" xlink:href="#DejaVuSans-111"/>
      <use x="158.59375" xlink:href="#DejaVuSans-100"/>
      <use x="222.070312" xlink:href="#DejaVuSans-101"/>
      <use x="283.59375" xlink:href="#DejaVuSans-108"/>
     </g>
    </g>
   </g>
  </g>
 </g>
 <defs>
  <clipPath id="p10a64692ec">
   <rect height="332.64" width="390.6" x="63" y="51.84"/>
  </clipPath>
 </defs>
</svg>
