<?xml version="1.0" encoding="utf-8" standalone="no"?>
<!DOCTYPE svg PUBLIC "-//W3C//DTD SVG 1.1//EN"
  "http://www.w3.org/Graphics/SVG/1.1/DTD/svg11.dtd">
<!-- Created with matplotlib (https://matplotlib.org/) -->
<svg height="432pt" version="1.1" viewBox="0 0 504 432" width="504pt" xmlns="http://www.w3.org/2000/svg" xmlns:xlink="http://www.w3.org/1999/xlink">
 <defs>
  <style type="text/css">
*{stroke-linecap:butt;stroke-linejoin:round;}
  </style>
 </defs>
 <g id="figure_1">
  <g id="patch_1">
   <path d="M 0 432 
L 504 432 
L 504 0 
L 0 0 
z
" style="fill:#ffffff;"/>
  </g>
  <g id="axes_1">
   <g id="patch_2">
    <path d="M 63 384.48 
L 453.6 384.48 
L 453.6 51.84 
L 63 51.84 
z
" style="fill:#ffffff;"/>
   </g>
   <g id="matplotlib.axis_1">
    <g id="xtick_1">
     <g id="line2d_1">
      <defs>
       <path d="M 0 0 
L 0 3.5 
" id="mc7677525f7" style="stroke:#000000;stroke-width:0.8;"/>
      </defs>
      <g>
       <use style="stroke:#000000;stroke-width:0.8;" x="80.754545" xlink:href="#mc7677525f7" y="384.48"/>
      </g>
     </g>
     <g id="text_1">
      <!-- 0 -->
      <defs>
       <path d="M 31.78125 66.40625 
Q 24.171875 66.40625 20.328125 58.90625 
Q 16.5 51.421875 16.5 36.375 
Q 16.5 21.390625 20.328125 13.890625 
Q 24.171875 6.390625 31.78125 6.390625 
Q 39.453125 6.390625 43.28125 13.890625 
Q 47.125 21.390625 47.125 36.375 
Q 47.125 51.421875 43.28125 58.90625 
Q 39.453125 66.40625 31.78125 66.40625 
z
M 31.78125 74.21875 
Q 44.046875 74.21875 50.515625 64.515625 
Q 56.984375 54.828125 56.984375 36.375 
Q 56.984375 17.96875 50.515625 8.265625 
Q 44.046875 -1.421875 31.78125 -1.421875 
Q 19.53125 -1.421875 13.0625 8.265625 
Q 6.59375 17.96875 6.59375 36.375 
Q 6.59375 54.828125 13.0625 64.515625 
Q 19.53125 74.21875 31.78125 74.21875 
z
" id="DejaVuSans-48"/>
      </defs>
      <g transform="translate(77.573295 399.078438)scale(0.1 -0.1)">
       <use xlink:href="#DejaVuSans-48"/>
      </g>
     </g>
    </g>
    <g id="xtick_2">
     <g id="line2d_2">
      <g>
       <use style="stroke:#000000;stroke-width:0.8;" x="151.767796" xlink:href="#mc7677525f7" y="384.48"/>
      </g>
     </g>
     <g id="text_2">
      <!-- 720 -->
      <defs>
       <path d="M 8.203125 72.90625 
L 55.078125 72.90625 
L 55.078125 68.703125 
L 28.609375 0 
L 18.3125 0 
L 43.21875 64.59375 
L 8.203125 64.59375 
z
" id="DejaVuSans-55"/>
       <path d="M 19.1875 8.296875 
L 53.609375 8.296875 
L 53.609375 0 
L 7.328125 0 
L 7.328125 8.296875 
Q 12.9375 14.109375 22.625 23.890625 
Q 32.328125 33.6875 34.8125 36.53125 
Q 39.546875 41.84375 41.421875 45.53125 
Q 43.3125 49.21875 43.3125 52.78125 
Q 43.3125 58.59375 39.234375 62.25 
Q 35.15625 65.921875 28.609375 65.921875 
Q 23.96875 65.921875 18.8125 64.3125 
Q 13.671875 62.703125 7.8125 59.421875 
L 7.8125 69.390625 
Q 13.765625 71.78125 18.9375 73 
Q 24.125 74.21875 28.421875 74.21875 
Q 39.75 74.21875 46.484375 68.546875 
Q 53.21875 62.890625 53.21875 53.421875 
Q 53.21875 48.921875 51.53125 44.890625 
Q 49.859375 40.875 45.40625 35.40625 
Q 44.1875 33.984375 37.640625 27.21875 
Q 31.109375 20.453125 19.1875 8.296875 
z
" id="DejaVuSans-50"/>
      </defs>
      <g transform="translate(142.224046 399.078438)scale(0.1 -0.1)">
       <use xlink:href="#DejaVuSans-55"/>
       <use x="63.623047" xlink:href="#DejaVuSans-50"/>
       <use x="127.246094" xlink:href="#DejaVuSans-48"/>
      </g>
     </g>
    </g>
    <g id="xtick_3">
     <g id="line2d_3">
      <g>
       <use style="stroke:#000000;stroke-width:0.8;" x="222.781046" xlink:href="#mc7677525f7" y="384.48"/>
      </g>
     </g>
     <g id="text_3">
      <!-- 1440 -->
      <defs>
       <path d="M 12.40625 8.296875 
L 28.515625 8.296875 
L 28.515625 63.921875 
L 10.984375 60.40625 
L 10.984375 69.390625 
L 28.421875 72.90625 
L 38.28125 72.90625 
L 38.28125 8.296875 
L 54.390625 8.296875 
L 54.390625 0 
L 12.40625 0 
z
" id="DejaVuSans-49"/>
       <path d="M 37.796875 64.3125 
L 12.890625 25.390625 
L 37.796875 25.390625 
z
M 35.203125 72.90625 
L 47.609375 72.90625 
L 47.609375 25.390625 
L 58.015625 25.390625 
L 58.015625 17.1875 
L 47.609375 17.1875 
L 47.609375 0 
L 37.796875 0 
L 37.796875 17.1875 
L 4.890625 17.1875 
L 4.890625 26.703125 
z
" id="DejaVuSans-52"/>
      </defs>
      <g transform="translate(210.056046 399.078438)scale(0.1 -0.1)">
       <use xlink:href="#DejaVuSans-49"/>
       <use x="63.623047" xlink:href="#DejaVuSans-52"/>
       <use x="127.246094" xlink:href="#DejaVuSans-52"/>
       <use x="190.869141" xlink:href="#DejaVuSans-48"/>
      </g>
     </g>
    </g>
    <g id="xtick_4">
     <g id="line2d_4">
      <g>
       <use style="stroke:#000000;stroke-width:0.8;" x="293.794296" xlink:href="#mc7677525f7" y="384.48"/>
      </g>
     </g>
     <g id="text_4">
      <!-- 2160 -->
      <defs>
       <path d="M 33.015625 40.375 
Q 26.375 40.375 22.484375 35.828125 
Q 18.609375 31.296875 18.609375 23.390625 
Q 18.609375 15.53125 22.484375 10.953125 
Q 26.375 6.390625 33.015625 6.390625 
Q 39.65625 6.390625 43.53125 10.953125 
Q 47.40625 15.53125 47.40625 23.390625 
Q 47.40625 31.296875 43.53125 35.828125 
Q 39.65625 40.375 33.015625 40.375 
z
M 52.59375 71.296875 
L 52.59375 62.3125 
Q 48.875 64.0625 45.09375 64.984375 
Q 41.3125 65.921875 37.59375 65.921875 
Q 27.828125 65.921875 22.671875 59.328125 
Q 17.53125 52.734375 16.796875 39.40625 
Q 19.671875 43.65625 24.015625 45.921875 
Q 28.375 48.1875 33.59375 48.1875 
Q 44.578125 48.1875 50.953125 41.515625 
Q 57.328125 34.859375 57.328125 23.390625 
Q 57.328125 12.15625 50.6875 5.359375 
Q 44.046875 -1.421875 33.015625 -1.421875 
Q 20.359375 -1.421875 13.671875 8.265625 
Q 6.984375 17.96875 6.984375 36.375 
Q 6.984375 53.65625 15.1875 63.9375 
Q 23.390625 74.21875 37.203125 74.21875 
Q 40.921875 74.21875 44.703125 73.484375 
Q 48.484375 72.75 52.59375 71.296875 
z
" id="DejaVuSans-54"/>
      </defs>
      <g transform="translate(281.069296 399.078438)scale(0.1 -0.1)">
       <use xlink:href="#DejaVuSans-50"/>
       <use x="63.623047" xlink:href="#DejaVuSans-49"/>
       <use x="127.246094" xlink:href="#DejaVuSans-54"/>
       <use x="190.869141" xlink:href="#DejaVuSans-48"/>
      </g>
     </g>
    </g>
    <g id="xtick_5">
     <g id="line2d_5">
      <g>
       <use style="stroke:#000000;stroke-width:0.8;" x="364.807547" xlink:href="#mc7677525f7" y="384.48"/>
      </g>
     </g>
     <g id="text_5">
      <!-- 2880 -->
      <defs>
       <path d="M 31.78125 34.625 
Q 24.75 34.625 20.71875 30.859375 
Q 16.703125 27.09375 16.703125 20.515625 
Q 16.703125 13.921875 20.71875 10.15625 
Q 24.75 6.390625 31.78125 6.390625 
Q 38.8125 6.390625 42.859375 10.171875 
Q 46.921875 13.96875 46.921875 20.515625 
Q 46.921875 27.09375 42.890625 30.859375 
Q 38.875 34.625 31.78125 34.625 
z
M 21.921875 38.8125 
Q 15.578125 40.375 12.03125 44.71875 
Q 8.5 49.078125 8.5 55.328125 
Q 8.5 64.0625 14.71875 69.140625 
Q 20.953125 74.21875 31.78125 74.21875 
Q 42.671875 74.21875 48.875 69.140625 
Q 55.078125 64.0625 55.078125 55.328125 
Q 55.078125 49.078125 51.53125 44.71875 
Q 48 40.375 41.703125 38.8125 
Q 48.828125 37.15625 52.796875 32.3125 
Q 56.78125 27.484375 56.78125 20.515625 
Q 56.78125 9.90625 50.3125 4.234375 
Q 43.84375 -1.421875 31.78125 -1.421875 
Q 19.734375 -1.421875 13.25 4.234375 
Q 6.78125 9.90625 6.78125 20.515625 
Q 6.78125 27.484375 10.78125 32.3125 
Q 14.796875 37.15625 21.921875 38.8125 
z
M 18.3125 54.390625 
Q 18.3125 48.734375 21.84375 45.5625 
Q 25.390625 42.390625 31.78125 42.390625 
Q 38.140625 42.390625 41.71875 45.5625 
Q 45.3125 48.734375 45.3125 54.390625 
Q 45.3125 60.0625 41.71875 63.234375 
Q 38.140625 66.40625 31.78125 66.40625 
Q 25.390625 66.40625 21.84375 63.234375 
Q 18.3125 60.0625 18.3125 54.390625 
z
" id="DejaVuSans-56"/>
      </defs>
      <g transform="translate(352.082547 399.078438)scale(0.1 -0.1)">
       <use xlink:href="#DejaVuSans-50"/>
       <use x="63.623047" xlink:href="#DejaVuSans-56"/>
       <use x="127.246094" xlink:href="#DejaVuSans-56"/>
       <use x="190.869141" xlink:href="#DejaVuSans-48"/>
      </g>
     </g>
    </g>
    <g id="text_6">
     <!-- time [ms] -->
     <defs>
      <path d="M 18.3125 70.21875 
L 18.3125 54.6875 
L 36.8125 54.6875 
L 36.8125 47.703125 
L 18.3125 47.703125 
L 18.3125 18.015625 
Q 18.3125 11.328125 20.140625 9.421875 
Q 21.96875 7.515625 27.59375 7.515625 
L 36.8125 7.515625 
L 36.8125 0 
L 27.59375 0 
Q 17.1875 0 13.234375 3.875 
Q 9.28125 7.765625 9.28125 18.015625 
L 9.28125 47.703125 
L 2.6875 47.703125 
L 2.6875 54.6875 
L 9.28125 54.6875 
L 9.28125 70.21875 
z
" id="DejaVuSans-116"/>
      <path d="M 9.421875 54.6875 
L 18.40625 54.6875 
L 18.40625 0 
L 9.421875 0 
z
M 9.421875 75.984375 
L 18.40625 75.984375 
L 18.40625 64.59375 
L 9.421875 64.59375 
z
" id="DejaVuSans-105"/>
      <path d="M 52 44.1875 
Q 55.375 50.25 60.0625 53.125 
Q 64.75 56 71.09375 56 
Q 79.640625 56 84.28125 50.015625 
Q 88.921875 44.046875 88.921875 33.015625 
L 88.921875 0 
L 79.890625 0 
L 79.890625 32.71875 
Q 79.890625 40.578125 77.09375 44.375 
Q 74.3125 48.1875 68.609375 48.1875 
Q 61.625 48.1875 57.5625 43.546875 
Q 53.515625 38.921875 53.515625 30.90625 
L 53.515625 0 
L 44.484375 0 
L 44.484375 32.71875 
Q 44.484375 40.625 41.703125 44.40625 
Q 38.921875 48.1875 33.109375 48.1875 
Q 26.21875 48.1875 22.15625 43.53125 
Q 18.109375 38.875 18.109375 30.90625 
L 18.109375 0 
L 9.078125 0 
L 9.078125 54.6875 
L 18.109375 54.6875 
L 18.109375 46.1875 
Q 21.1875 51.21875 25.484375 53.609375 
Q 29.78125 56 35.6875 56 
Q 41.65625 56 45.828125 52.96875 
Q 50 49.953125 52 44.1875 
z
" id="DejaVuSans-109"/>
      <path d="M 56.203125 29.59375 
L 56.203125 25.203125 
L 14.890625 25.203125 
Q 15.484375 15.921875 20.484375 11.0625 
Q 25.484375 6.203125 34.421875 6.203125 
Q 39.59375 6.203125 44.453125 7.46875 
Q 49.3125 8.734375 54.109375 11.28125 
L 54.109375 2.78125 
Q 49.265625 0.734375 44.1875 -0.34375 
Q 39.109375 -1.421875 33.890625 -1.421875 
Q 20.796875 -1.421875 13.15625 6.1875 
Q 5.515625 13.8125 5.515625 26.8125 
Q 5.515625 40.234375 12.765625 48.109375 
Q 20.015625 56 32.328125 56 
Q 43.359375 56 49.78125 48.890625 
Q 56.203125 41.796875 56.203125 29.59375 
z
M 47.21875 32.234375 
Q 47.125 39.59375 43.09375 43.984375 
Q 39.0625 48.390625 32.421875 48.390625 
Q 24.90625 48.390625 20.390625 44.140625 
Q 15.875 39.890625 15.1875 32.171875 
z
" id="DejaVuSans-101"/>
      <path id="DejaVuSans-32"/>
      <path d="M 8.59375 75.984375 
L 29.296875 75.984375 
L 29.296875 69 
L 17.578125 69 
L 17.578125 -6.203125 
L 29.296875 -6.203125 
L 29.296875 -13.1875 
L 8.59375 -13.1875 
z
" id="DejaVuSans-91"/>
      <path d="M 44.28125 53.078125 
L 44.28125 44.578125 
Q 40.484375 46.53125 36.375 47.5 
Q 32.28125 48.484375 27.875 48.484375 
Q 21.1875 48.484375 17.84375 46.4375 
Q 14.5 44.390625 14.5 40.28125 
Q 14.5 37.15625 16.890625 35.375 
Q 19.28125 33.59375 26.515625 31.984375 
L 29.59375 31.296875 
Q 39.15625 29.25 43.1875 25.515625 
Q 47.21875 21.78125 47.21875 15.09375 
Q 47.21875 7.46875 41.1875 3.015625 
Q 35.15625 -1.421875 24.609375 -1.421875 
Q 20.21875 -1.421875 15.453125 -0.5625 
Q 10.6875 0.296875 5.421875 2 
L 5.421875 11.28125 
Q 10.40625 8.6875 15.234375 7.390625 
Q 20.0625 6.109375 24.8125 6.109375 
Q 31.15625 6.109375 34.5625 8.28125 
Q 37.984375 10.453125 37.984375 14.40625 
Q 37.984375 18.0625 35.515625 20.015625 
Q 33.0625 21.96875 24.703125 23.78125 
L 21.578125 24.515625 
Q 13.234375 26.265625 9.515625 29.90625 
Q 5.8125 33.546875 5.8125 39.890625 
Q 5.8125 47.609375 11.28125 51.796875 
Q 16.75 56 26.8125 56 
Q 31.78125 56 36.171875 55.265625 
Q 40.578125 54.546875 44.28125 53.078125 
z
" id="DejaVuSans-115"/>
      <path d="M 30.421875 75.984375 
L 30.421875 -13.1875 
L 9.71875 -13.1875 
L 9.71875 -6.203125 
L 21.390625 -6.203125 
L 21.390625 69 
L 9.71875 69 
L 9.71875 75.984375 
z
" id="DejaVuSans-93"/>
     </defs>
     <g transform="translate(234.038281 412.756563)scale(0.1 -0.1)">
      <use xlink:href="#DejaVuSans-116"/>
      <use x="39.208984" xlink:href="#DejaVuSans-105"/>
      <use x="66.992188" xlink:href="#DejaVuSans-109"/>
      <use x="164.404297" xlink:href="#DejaVuSans-101"/>
      <use x="225.927734" xlink:href="#DejaVuSans-32"/>
      <use x="257.714844" xlink:href="#DejaVuSans-91"/>
      <use x="296.728516" xlink:href="#DejaVuSans-109"/>
      <use x="394.140625" xlink:href="#DejaVuSans-115"/>
      <use x="446.240234" xlink:href="#DejaVuSans-93"/>
     </g>
    </g>
   </g>
   <g id="matplotlib.axis_2">
    <g id="ytick_1">
     <g id="line2d_6">
      <defs>
       <path d="M 0 0 
L -3.5 0 
" id="m6c7408e154" style="stroke:#000000;stroke-width:0.8;"/>
      </defs>
      <g>
       <use style="stroke:#000000;stroke-width:0.8;" x="63" xlink:href="#m6c7408e154" y="370.83644"/>
      </g>
     </g>
     <g id="text_7">
      <!-- −80 -->
      <defs>
       <path d="M 10.59375 35.5 
L 73.1875 35.5 
L 73.1875 27.203125 
L 10.59375 27.203125 
z
" id="DejaVuSans-8722"/>
      </defs>
      <g transform="translate(34.895313 374.635659)scale(0.1 -0.1)">
       <use xlink:href="#DejaVuSans-8722"/>
       <use x="83.789062" xlink:href="#DejaVuSans-56"/>
       <use x="147.412109" xlink:href="#DejaVuSans-48"/>
      </g>
     </g>
    </g>
    <g id="ytick_2">
     <g id="line2d_7">
      <g>
       <use style="stroke:#000000;stroke-width:0.8;" x="63" xlink:href="#m6c7408e154" y="318.342159"/>
      </g>
     </g>
     <g id="text_8">
      <!-- −60 -->
      <g transform="translate(34.895313 322.141378)scale(0.1 -0.1)">
       <use xlink:href="#DejaVuSans-8722"/>
       <use x="83.789062" xlink:href="#DejaVuSans-54"/>
       <use x="147.412109" xlink:href="#DejaVuSans-48"/>
      </g>
     </g>
    </g>
    <g id="ytick_3">
     <g id="line2d_8">
      <g>
       <use style="stroke:#000000;stroke-width:0.8;" x="63" xlink:href="#m6c7408e154" y="265.847877"/>
      </g>
     </g>
     <g id="text_9">
      <!-- −40 -->
      <g transform="translate(34.895313 269.647096)scale(0.1 -0.1)">
       <use xlink:href="#DejaVuSans-8722"/>
       <use x="83.789062" xlink:href="#DejaVuSans-52"/>
       <use x="147.412109" xlink:href="#DejaVuSans-48"/>
      </g>
     </g>
    </g>
    <g id="ytick_4">
     <g id="line2d_9">
      <g>
       <use style="stroke:#000000;stroke-width:0.8;" x="63" xlink:href="#m6c7408e154" y="213.353596"/>
      </g>
     </g>
     <g id="text_10">
      <!-- −20 -->
      <g transform="translate(34.895313 217.152815)scale(0.1 -0.1)">
       <use xlink:href="#DejaVuSans-8722"/>
       <use x="83.789062" xlink:href="#DejaVuSans-50"/>
       <use x="147.412109" xlink:href="#DejaVuSans-48"/>
      </g>
     </g>
    </g>
    <g id="ytick_5">
     <g id="line2d_10">
      <g>
       <use style="stroke:#000000;stroke-width:0.8;" x="63" xlink:href="#m6c7408e154" y="160.859314"/>
      </g>
     </g>
     <g id="text_11">
      <!-- 0 -->
      <g transform="translate(49.6375 164.658533)scale(0.1 -0.1)">
       <use xlink:href="#DejaVuSans-48"/>
      </g>
     </g>
    </g>
    <g id="ytick_6">
     <g id="line2d_11">
      <g>
       <use style="stroke:#000000;stroke-width:0.8;" x="63" xlink:href="#m6c7408e154" y="108.365033"/>
      </g>
     </g>
     <g id="text_12">
      <!-- 20 -->
      <g transform="translate(43.275 112.164252)scale(0.1 -0.1)">
       <use xlink:href="#DejaVuSans-50"/>
       <use x="63.623047" xlink:href="#DejaVuSans-48"/>
      </g>
     </g>
    </g>
    <g id="ytick_7">
     <g id="line2d_12">
      <g>
       <use style="stroke:#000000;stroke-width:0.8;" x="63" xlink:href="#m6c7408e154" y="55.870752"/>
      </g>
     </g>
     <g id="text_13">
      <!-- 40 -->
      <g transform="translate(43.275 59.66997)scale(0.1 -0.1)">
       <use xlink:href="#DejaVuSans-52"/>
       <use x="63.623047" xlink:href="#DejaVuSans-48"/>
      </g>
     </g>
    </g>
    <g id="text_14">
     <!-- Voltage [mV] -->
     <defs>
      <path d="M 28.609375 0 
L 0.78125 72.90625 
L 11.078125 72.90625 
L 34.1875 11.53125 
L 57.328125 72.90625 
L 67.578125 72.90625 
L 39.796875 0 
z
" id="DejaVuSans-86"/>
      <path d="M 30.609375 48.390625 
Q 23.390625 48.390625 19.1875 42.75 
Q 14.984375 37.109375 14.984375 27.296875 
Q 14.984375 17.484375 19.15625 11.84375 
Q 23.34375 6.203125 30.609375 6.203125 
Q 37.796875 6.203125 41.984375 11.859375 
Q 46.1875 17.53125 46.1875 27.296875 
Q 46.1875 37.015625 41.984375 42.703125 
Q 37.796875 48.390625 30.609375 48.390625 
z
M 30.609375 56 
Q 42.328125 56 49.015625 48.375 
Q 55.71875 40.765625 55.71875 27.296875 
Q 55.71875 13.875 49.015625 6.21875 
Q 42.328125 -1.421875 30.609375 -1.421875 
Q 18.84375 -1.421875 12.171875 6.21875 
Q 5.515625 13.875 5.515625 27.296875 
Q 5.515625 40.765625 12.171875 48.375 
Q 18.84375 56 30.609375 56 
z
" id="DejaVuSans-111"/>
      <path d="M 9.421875 75.984375 
L 18.40625 75.984375 
L 18.40625 0 
L 9.421875 0 
z
" id="DejaVuSans-108"/>
      <path d="M 34.28125 27.484375 
Q 23.390625 27.484375 19.1875 25 
Q 14.984375 22.515625 14.984375 16.5 
Q 14.984375 11.71875 18.140625 8.90625 
Q 21.296875 6.109375 26.703125 6.109375 
Q 34.1875 6.109375 38.703125 11.40625 
Q 43.21875 16.703125 43.21875 25.484375 
L 43.21875 27.484375 
z
M 52.203125 31.203125 
L 52.203125 0 
L 43.21875 0 
L 43.21875 8.296875 
Q 40.140625 3.328125 35.546875 0.953125 
Q 30.953125 -1.421875 24.3125 -1.421875 
Q 15.921875 -1.421875 10.953125 3.296875 
Q 6 8.015625 6 15.921875 
Q 6 25.140625 12.171875 29.828125 
Q 18.359375 34.515625 30.609375 34.515625 
L 43.21875 34.515625 
L 43.21875 35.40625 
Q 43.21875 41.609375 39.140625 45 
Q 35.0625 48.390625 27.6875 48.390625 
Q 23 48.390625 18.546875 47.265625 
Q 14.109375 46.140625 10.015625 43.890625 
L 10.015625 52.203125 
Q 14.9375 54.109375 19.578125 55.046875 
Q 24.21875 56 28.609375 56 
Q 40.484375 56 46.34375 49.84375 
Q 52.203125 43.703125 52.203125 31.203125 
z
" id="DejaVuSans-97"/>
      <path d="M 45.40625 27.984375 
Q 45.40625 37.75 41.375 43.109375 
Q 37.359375 48.484375 30.078125 48.484375 
Q 22.859375 48.484375 18.828125 43.109375 
Q 14.796875 37.75 14.796875 27.984375 
Q 14.796875 18.265625 18.828125 12.890625 
Q 22.859375 7.515625 30.078125 7.515625 
Q 37.359375 7.515625 41.375 12.890625 
Q 45.40625 18.265625 45.40625 27.984375 
z
M 54.390625 6.78125 
Q 54.390625 -7.171875 48.1875 -13.984375 
Q 42 -20.796875 29.203125 -20.796875 
Q 24.46875 -20.796875 20.265625 -20.09375 
Q 16.0625 -19.390625 12.109375 -17.921875 
L 12.109375 -9.1875 
Q 16.0625 -11.328125 19.921875 -12.34375 
Q 23.78125 -13.375 27.78125 -13.375 
Q 36.625 -13.375 41.015625 -8.765625 
Q 45.40625 -4.15625 45.40625 5.171875 
L 45.40625 9.625 
Q 42.625 4.78125 38.28125 2.390625 
Q 33.9375 0 27.875 0 
Q 17.828125 0 11.671875 7.65625 
Q 5.515625 15.328125 5.515625 27.984375 
Q 5.515625 40.671875 11.671875 48.328125 
Q 17.828125 56 27.875 56 
Q 33.9375 56 38.28125 53.609375 
Q 42.625 51.21875 45.40625 46.390625 
L 45.40625 54.6875 
L 54.390625 54.6875 
z
" id="DejaVuSans-103"/>
     </defs>
     <g transform="translate(28.815625 251.079531)rotate(-90)scale(0.1 -0.1)">
      <use xlink:href="#DejaVuSans-86"/>
      <use x="68.298828" xlink:href="#DejaVuSans-111"/>
      <use x="129.480469" xlink:href="#DejaVuSans-108"/>
      <use x="157.263672" xlink:href="#DejaVuSans-116"/>
      <use x="196.472656" xlink:href="#DejaVuSans-97"/>
      <use x="257.751953" xlink:href="#DejaVuSans-103"/>
      <use x="321.228516" xlink:href="#DejaVuSans-101"/>
      <use x="382.751953" xlink:href="#DejaVuSans-32"/>
      <use x="414.539062" xlink:href="#DejaVuSans-91"/>
      <use x="453.552734" xlink:href="#DejaVuSans-109"/>
      <use x="550.964844" xlink:href="#DejaVuSans-86"/>
      <use x="619.373047" xlink:href="#DejaVuSans-93"/>
     </g>
    </g>
   </g>
   <g id="line2d_13">
    <path clip-path="url(#pe622b2964c)" d="M 80.754545 331.465729 
L 81.065228 331.855138 
L 81.652074 332.460687 
L 82.27344 332.776704 
L 83.111791 332.936773 
L 84.640548 332.962785 
L 97.038278 332.818784 
L 100.480448 332.815244 
L 100.633324 348.0333 
L 100.958801 358.463168 
L 101.373045 365.369007 
L 101.742906 368.364472 
L 102.033863 369.265547 
L 102.231122 369.347417 
L 102.413587 369.143619 
L 102.719338 368.394359 
L 103.463991 365.773375 
L 104.26289 363.353698 
L 104.889188 362.121791 
L 105.485896 361.410599 
L 106.112194 361.002436 
L 106.856846 360.790096 
L 107.966428 360.730532 
L 126.592612 360.82854 
L 130.069303 360.828373 
L 130.222178 345.880513 
L 130.537793 336.462933 
L 130.937242 330.538282 
L 131.33176 327.61378 
L 131.701621 326.316402 
L 132.036961 325.84174 
L 132.337781 325.762089 
L 132.682985 325.918897 
L 133.210653 326.439717 
L 136.499947 330.139544 
L 137.693364 330.942789 
L 139.015 331.561839 
L 139.932254 331.86867 
L 139.937186 331.465729 
L 140.045678 331.574092 
L 140.879097 332.492284 
L 141.510326 332.793986 
L 142.378266 332.943777 
L 144.020447 332.958396 
L 154.401204 332.822371 
L 159.663088 332.815244 
L 159.815964 329.769295 
L 160.141442 327.675472 
L 160.580343 326.177814 
L 161.048833 325.31089 
L 161.551844 324.826147 
L 162.143621 324.567749 
L 162.967177 324.47029 
L 164.594564 324.550313 
L 169.49152 324.81803 
L 176.61257 324.91654 
L 189.251943 324.93951 
L 189.404818 327.991906 
L 189.730296 330.090861 
L 190.169197 331.58951 
L 190.637687 332.457521 
L 191.135766 332.938023 
L 191.722612 333.19291 
L 192.536306 333.284324 
L 194.168624 333.192845 
L 198.656267 332.933309 
L 199.114894 332.919783 
L 199.119826 331.465729 
L 199.228318 331.574092 
L 200.061738 332.492284 
L 200.692966 332.793986 
L 201.560906 332.943777 
L 203.203088 332.958396 
L 213.583844 332.822371 
L 218.845729 332.815244 
L 218.998604 326.721575 
L 219.324082 322.521072 
L 219.762983 319.490645 
L 220.231473 317.679798 
L 220.729552 316.582947 
L 221.29174 315.866697 
L 222.450637 314.584597 
L 222.495021 313.977726 
L 222.514746 292.600597 
L 222.573924 70.279487 
L 222.647896 197.92545 
L 222.825429 335.37124 
L 222.998031 338.700561 
L 223.037483 338.74233 
L 223.086798 338.648452 
L 223.224879 337.806559 
L 223.555288 334.071315 
L 224.442953 324.012296 
L 224.96569 320.580296 
L 225.458837 318.691319 
L 225.951985 317.61253 
L 226.46979 316.9854 
L 227.051704 316.626152 
L 227.781563 316.447342 
L 228.881282 316.430319 
L 238.763959 316.824791 
L 248.434583 316.834509 
L 248.59239 323.076051 
L 248.922799 327.313797 
L 249.356769 330.256813 
L 249.810465 331.942685 
L 250.269092 332.865197 
L 250.747445 333.358181 
L 251.289907 333.599613 
L 252.019766 333.663572 
L 253.400579 333.515572 
L 257.025214 333.113183 
L 258.297534 333.035839 
L 258.302466 331.465729 
L 258.410958 331.574092 
L 259.244378 332.492284 
L 259.875606 332.793986 
L 260.743546 332.943777 
L 262.385728 332.958396 
L 272.766484 332.822371 
L 278.028369 332.815244 
L 278.181244 323.670953 
L 278.511653 317.257753 
L 278.97028 312.382161 
L 279.5374 307.28998 
L 279.552195 299.487849 
L 279.611372 68.42377 
L 279.690276 201.613314 
L 279.862878 333.351946 
L 280.025616 336.097084 
L 280.074931 336.005603 
L 280.203149 335.085562 
L 280.508901 330.910062 
L 281.495196 316.935383 
L 282.037658 312.568058 
L 282.634367 309.546113 
L 283.004228 307.467286 
L 283.038748 306.094557 
L 283.063405 252.069119 
L 283.107789 75.007381 
L 283.186692 200.621582 
L 283.354362 331.736367 
L 283.522033 335.345083 
L 283.54669 335.363522 
L 283.591073 335.268938 
L 283.724223 334.319742 
L 284.039838 330.075693 
L 284.971886 317.302746 
L 285.504486 313.10962 
L 286.042017 310.531187 
L 286.870505 306.998309 
L 286.885299 304.669629 
L 286.919819 207.11268 
L 286.95434 79.498926 
L 287.028312 196.375548 
L 287.200913 330.458196 
L 287.368584 334.385323 
L 287.403104 334.434047 
L 287.45735 334.314201 
L 287.600363 333.251677 
L 287.950498 328.52602 
L 288.778986 317.594273 
L 289.311585 313.437958 
L 289.839253 310.963374 
L 290.450756 309.155535 
L 290.934041 307.628247 
L 291.003081 306.599169 
L 291.017876 297.292197 
L 291.081985 83.238349 
L 291.155957 199.176047 
L 291.323627 328.994532 
L 291.496229 333.629619 
L 291.545544 333.720139 
L 291.59979 333.594943 
L 291.742803 332.544751 
L 292.097869 327.850812 
L 292.906631 317.509794 
L 293.434299 313.504192 
L 293.957035 311.125752 
L 294.534018 309.504991 
L 295.273739 307.538795 
L 295.332917 306.668823 
L 295.347711 298.891181 
L 295.411821 85.848967 
L 295.490724 205.646759 
L 295.648531 327.305671 
L 295.821133 332.868872 
L 295.885242 333.053622 
L 295.939488 332.946141 
L 296.07757 331.993279 
L 296.417842 327.674051 
L 297.251261 317.300378 
L 297.778929 313.433864 
L 298.296734 311.160827 
L 298.863854 309.630593 
L 299.746588 307.457315 
L 299.795902 306.575604 
L 299.810697 296.785911 
L 299.874806 87.784488 
L 299.948778 197.291036 
L 300.116448 327.07445 
L 300.28905 332.469123 
L 300.358091 332.67752 
L 300.412337 332.572875 
L 300.550418 331.638124 
L 300.885759 327.450781 
L 301.719178 317.226505 
L 302.246846 313.418524 
L 302.764651 311.183256 
L 303.326839 309.696229 
L 304.288477 307.417878 
L 304.33286 306.493941 
L 304.347655 294.43298 
L 304.411764 89.153053 
L 304.480804 189.298814 
L 304.663269 327.357669 
L 304.840802 332.200837 
L 304.904911 332.356336 
L 304.959158 332.245288 
L 305.10217 331.266886 
L 305.452305 326.896654 
L 306.256136 317.19368 
L 306.783804 313.417 
L 307.301608 311.20061 
L 307.617223 310.293555 
L 307.770099 319.251762 
L 308.085713 325.02743 
L 308.50982 329.052216 
L 308.958584 331.377892 
L 309.41228 332.658001 
L 309.875839 333.346664 
L 310.368986 333.696018 
L 310.965695 333.839664 
L 311.873086 333.803112 
L 317.480174 333.132861 
L 317.485106 331.465729 
L 317.593598 331.574092 
L 318.427018 332.492284 
L 319.058247 332.793986 
L 319.926186 332.943777 
L 321.568368 332.958396 
L 331.949124 332.822371 
L 337.211009 332.815244 
L 337.363884 320.615881 
L 337.699225 311.843816 
L 338.21703 300.846639 
L 338.246619 222.909527 
L 338.281139 67.482802 
L 338.360043 198.965782 
L 338.537576 331.692389 
L 338.665794 333.656922 
L 338.690451 333.625698 
L 338.784149 333.03102 
L 339.02086 329.716548 
L 340.460851 306.633885 
L 340.92441 300.567646 
L 340.953999 298.044061 
L 340.983588 216.973428 
L 341.018108 73.348948 
L 341.097012 201.820759 
L 341.25975 330.011958 
L 341.417557 333.175458 
L 341.422489 333.174434 
L 341.476735 333.005855 
L 341.624679 331.584385 
L 341.984677 325.458161 
L 342.837822 311.206217 
L 343.478914 304.466549 
L 343.784666 300.556376 
L 343.819186 297.542527 
L 343.853706 186.512014 
L 343.883295 78.334672 
L 343.962199 201.817944 
L 344.124938 328.50616 
L 344.287676 332.164872 
L 344.307402 332.162778 
L 344.341923 332.067531 
L 344.470141 331.016291 
L 344.780824 326.169497 
L 345.747393 310.605201 
L 346.378622 304.453103 
L 346.713962 300.651521 
L 346.753414 298.221 
L 346.783003 223.342105 
L 346.822455 81.975972 
L 346.896427 196.027833 
L 347.064097 327.45273 
L 347.231767 331.432982 
L 347.251493 331.443591 
L 347.290945 331.351626 
L 347.414232 330.392688 
L 347.710121 325.953022 
L 348.706279 310.357898 
L 349.327645 304.560374 
L 349.697505 300.676827 
L 349.741889 297.246549 
L 349.776409 189.717319 
L 349.810929 84.846868 
L 349.884901 199.143866 
L 350.04764 326.028205 
L 350.21531 330.657657 
L 350.249831 330.702637 
L 350.299145 330.57072 
L 350.437227 329.402372 
L 350.772567 324.217959 
L 351.640507 310.900405 
L 352.242147 305.228398 
L 352.715568 300.60741 
L 352.75502 298.374177 
L 352.784609 226.329938 
L 352.824061 87.101625 
L 352.898033 192.328672 
L 353.070635 325.755602 
L 353.238305 330.222321 
L 353.272825 330.280673 
L 353.327071 330.148225 
L 353.465153 329.00032 
L 353.800493 323.887421 
L 354.663501 310.839452 
L 355.265141 305.256654 
L 355.753357 300.593214 
L 355.792809 298.181602 
L 355.822398 224.014828 
L 355.86185 88.45727 
L 355.935822 192.996893 
L 356.108424 325.11994 
L 356.281025 329.792121 
L 356.320477 329.854409 
L 356.369792 329.734263 
L 356.507873 328.621026 
L 356.838282 323.679041 
L 357.711153 310.688794 
L 358.312793 305.205616 
L 358.801009 300.614218 
L 358.840461 298.44666 
L 358.865119 241.50851 
L 358.914433 89.593873 
L 358.988405 200.60594 
L 359.146213 323.693853 
L 359.318814 329.459085 
L 359.373061 329.601216 
L 359.427307 329.471667 
L 359.565388 328.356669 
L 359.900728 323.363682 
L 360.758805 310.701971 
L 361.360445 305.244919 
L 361.853593 300.708252 
L 361.897976 298.206431 
L 361.927565 224.364203 
L 361.967017 90.265715 
L 362.040989 192.101431 
L 362.213591 324.234964 
L 362.386192 329.245801 
L 362.435507 329.351199 
L 362.489753 329.217877 
L 362.632766 328.050669 
L 362.977969 322.898849 
L 363.811389 310.721852 
L 364.413029 305.282699 
L 364.916039 300.672122 
L 364.960423 297.514862 
L 364.994943 195.77338 
L 365.029463 90.464778 
L 365.103435 195.134501 
L 365.271106 323.583485 
L 365.443707 328.95776 
L 365.497953 329.095419 
L 365.5522 328.96964 
L 365.690281 327.877619 
L 366.025621 322.971815 
L 366.799863 311.498216 
L 366.947807 321.894478 
L 367.228901 326.925581 
L 367.618488 330.18569 
L 368.047526 332.065504 
L 368.496291 333.111342 
L 368.954918 333.657413 
L 369.46286 333.9246 
L 370.113815 334.00263 
L 371.218465 333.875422 
L 375.44474 333.266874 
L 376.662814 333.169502 
L 376.667746 331.465729 
L 376.776238 331.574092 
L 377.609658 332.492284 
L 378.240887 332.793986 
L 379.108826 332.943777 
L 380.751008 332.958396 
L 391.131764 332.822371 
L 396.393649 332.815244 
L 396.546525 317.554036 
L 396.896659 305.825263 
L 397.113644 297.373291 
L 397.13337 254.418746 
L 397.177753 66.96 
L 397.256657 199.093332 
L 397.43419 329.757886 
L 397.537751 331.241338 
L 397.577203 331.136171 
L 397.70049 329.90754 
L 398.006241 324.162871 
L 399.37226 292.869829 
L 399.391986 249.065004 
L 399.436369 72.56923 
L 399.515273 202.280591 
L 399.678012 328.652202 
L 399.811161 331.204699 
L 399.830887 331.176498 
L 399.919654 330.567337 
L 400.146502 327.057892 
L 401.699917 294.99895 
L 401.724574 289.278839 
L 401.783752 77.359693 
L 401.867587 216.289759 
L 402.015531 326.492568 
L 402.168407 330.110009 
L 402.173338 330.108251 
L 402.227585 329.904012 
L 402.38046 328.175825 
L 402.755252 320.811349 
L 403.623192 304.16683 
L 404.062094 295.665798 
L 404.101545 288.211964 
L 404.160723 81.190293 
L 404.239627 203.7301 
L 404.397434 325.492302 
L 404.555241 329.205233 
L 404.560173 329.204424 
L 404.609487 329.044423 
L 404.7525 327.556283 
L 405.102635 320.990165 
L 406.014958 303.914892 
L 406.458791 295.546387 
L 406.493311 291.492684 
L 406.5229 205.62992 
L 406.55742 84.133104 
L 406.631392 192.872374 
L 406.803994 325.067817 
L 406.961801 328.50003 
L 406.966733 328.499916 
L 407.016047 328.351513 
L 407.154129 326.978798 
L 407.489469 320.887633 
L 408.431381 303.630386 
L 408.865351 295.673931 
L 408.904803 290.890647 
L 408.944255 138.948735 
L 408.968912 86.247868 
L 409.042884 194.693366 
L 409.210554 323.974261 
L 409.373293 328.013915 
L 409.393019 328.017858 
L 409.427539 327.922678 
L 409.550826 326.847481 
L 409.846715 321.825651 
L 410.926708 302.456837 
L 411.286705 295.672558 
L 411.326157 291.060507 
L 411.365609 142.650922 
L 411.390266 87.814213 
L 411.464239 193.224286 
L 411.631909 323.235017 
L 411.799579 327.562454 
L 411.819305 327.571931 
L 411.858757 327.466619 
L 411.986975 326.3348 
L 412.292727 321.133368 
L 413.323405 302.827217 
L 413.712992 295.708218 
L 413.752443 291.549669 
L 413.782032 208.260331 
L 413.821484 88.937673 
L 413.890525 190.089936 
L 414.068058 323.267556 
L 414.235728 327.15307 
L 414.255454 327.15419 
L 414.289974 327.060062 
L 414.413261 326.015729 
L 414.704218 321.214406 
L 415.794074 302.19163 
L 416.139278 295.845179 
L 416.183661 290.919468 
L 416.223113 143.235952 
L 416.24777 89.642582 
L 416.321742 192.840632 
L 416.489412 322.33391 
L 416.657083 327.000551 
L 416.686671 327.032053 
L 416.731055 326.909275 
L 416.864205 325.711914 
L 417.179819 320.340197 
L 418.166114 303.068416 
L 418.575427 295.814627 
L 418.61981 290.389611 
L 418.683919 90.073775 
L 418.772686 229.902275 
L 418.92063 321.68176 
L 419.0883 326.819285 
L 419.12282 326.877296 
L 419.172135 326.744529 
L 419.305285 325.541675 
L 419.620899 320.185715 
L 420.607195 303.007165 
L 421.016507 295.686478 
L 421.055959 291.391539 
L 421.090479 179.438721 
L 421.125 90.643236 
L 421.19404 190.330406 
L 421.366642 322.022622 
L 421.534312 326.602534 
L 421.563901 326.639626 
L 421.613216 326.503674 
L 421.751297 325.237481 
L 422.076774 319.677175 
L 423.028549 303.194924 
L 423.452656 295.702378 
L 423.492108 291.612679 
L 423.521697 209.499709 
L 423.561149 90.693748 
L 423.630189 188.931135 
L 423.807722 322.126785 
L 423.975392 326.456218 
L 424.004981 326.485767 
L 424.049365 326.365325 
L 424.182514 325.189423 
L 424.498129 319.900564 
L 425.484424 302.916318 
L 425.888805 295.742448 
L 425.933188 289.173858 
L 425.997298 93.080328 
L 426.076201 210.604317 
L 426.229077 330.050021 
L 426.416473 339.566339 
L 426.643321 341.889575 
L 426.786334 342.120116 
L 426.810991 342.10705 
L 426.944141 341.857382 
L 427.249892 340.670441 
L 428.260845 336.616777 
L 428.808239 335.374095 
L 429.365495 334.631848 
L 430.006587 334.144594 
L 430.84987 333.795303 
L 432.161642 333.516331 
L 434.59286 333.257485 
L 435.845455 333.173076 
L 435.845455 333.173076 
" style="fill:none;stroke:#ff0000;stroke-linecap:square;stroke-width:1.5;"/>
   </g>
   <g id="patch_3">
    <path d="M 63 384.48 
L 63 51.84 
" style="fill:none;stroke:#000000;stroke-linecap:square;stroke-linejoin:miter;stroke-width:0.8;"/>
   </g>
   <g id="patch_4">
    <path d="M 453.6 384.48 
L 453.6 51.84 
" style="fill:none;stroke:#000000;stroke-linecap:square;stroke-linejoin:miter;stroke-width:0.8;"/>
   </g>
   <g id="patch_5">
    <path d="M 63 384.48 
L 453.6 384.48 
" style="fill:none;stroke:#000000;stroke-linecap:square;stroke-linejoin:miter;stroke-width:0.8;"/>
   </g>
   <g id="patch_6">
    <path d="M 63 51.84 
L 453.6 51.84 
" style="fill:none;stroke:#000000;stroke-linecap:square;stroke-linejoin:miter;stroke-width:0.8;"/>
   </g>
   <g id="legend_1">
    <g id="patch_7">
     <path d="M 70 74.518125 
L 133.139062 74.518125 
Q 135.139062 74.518125 135.139062 72.518125 
L 135.139062 58.84 
Q 135.139062 56.84 133.139062 56.84 
L 70 56.84 
Q 68 56.84 68 58.84 
L 68 72.518125 
Q 68 74.518125 70 74.518125 
z
" style="fill:#ffffff;opacity:0.8;stroke:#cccccc;stroke-linejoin:miter;"/>
    </g>
    <g id="line2d_14">
     <path d="M 72 64.938438 
L 92 64.938438 
" style="fill:none;stroke:#ff0000;stroke-linecap:square;stroke-width:1.5;"/>
    </g>
    <g id="line2d_15"/>
    <g id="text_15">
     <!-- model -->
     <defs>
      <path d="M 45.40625 46.390625 
L 45.40625 75.984375 
L 54.390625 75.984375 
L 54.390625 0 
L 45.40625 0 
L 45.40625 8.203125 
Q 42.578125 3.328125 38.25 0.953125 
Q 33.9375 -1.421875 27.875 -1.421875 
Q 17.96875 -1.421875 11.734375 6.484375 
Q 5.515625 14.40625 5.515625 27.296875 
Q 5.515625 40.1875 11.734375 48.09375 
Q 17.96875 56 27.875 56 
Q 33.9375 56 38.25 53.625 
Q 42.578125 51.265625 45.40625 46.390625 
z
M 14.796875 27.296875 
Q 14.796875 17.390625 18.875 11.75 
Q 22.953125 6.109375 30.078125 6.109375 
Q 37.203125 6.109375 41.296875 11.75 
Q 45.40625 17.390625 45.40625 27.296875 
Q 45.40625 37.203125 41.296875 42.84375 
Q 37.203125 48.484375 30.078125 48.484375 
Q 22.953125 48.484375 18.875 42.84375 
Q 14.796875 37.203125 14.796875 27.296875 
z
" id="DejaVuSans-100"/>
     </defs>
     <g transform="translate(100 68.438438)scale(0.1 -0.1)">
      <use xlink:href="#DejaVuSans-109"/>
      <use x="97.412109" xlink:href="#DejaVuSans-111"/>
      <use x="158.59375" xlink:href="#DejaVuSans-100"/>
      <use x="222.070312" xlink:href="#DejaVuSans-101"/>
      <use x="283.59375" xlink:href="#DejaVuSans-108"/>
     </g>
    </g>
   </g>
  </g>
 </g>
 <defs>
  <clipPath id="pe622b2964c">
   <rect height="332.64" width="390.6" x="63" y="51.84"/>
  </clipPath>
 </defs>
</svg>
