<?xml version="1.0" encoding="utf-8" standalone="no"?>
<!DOCTYPE svg PUBLIC "-//W3C//DTD SVG 1.1//EN"
  "http://www.w3.org/Graphics/SVG/1.1/DTD/svg11.dtd">
<!-- Created with matplotlib (http://matplotlib.org/) -->
<svg height="432pt" version="1.1" viewBox="0 0 504 432" width="504pt" xmlns="http://www.w3.org/2000/svg" xmlns:xlink="http://www.w3.org/1999/xlink">
 <defs>
  <style type="text/css">
*{stroke-linecap:butt;stroke-linejoin:round;}
  </style>
 </defs>
 <g id="figure_1">
  <g id="patch_1">
   <path d="M 0 432 
L 504 432 
L 504 0 
L 0 0 
z
" style="fill:#ffffff;"/>
  </g>
  <g id="axes_1">
   <g id="patch_2">
    <path d="M 63 384.48 
L 453.6 384.48 
L 453.6 51.84 
L 63 51.84 
z
" style="fill:#ffffff;"/>
   </g>
   <g id="matplotlib.axis_1">
    <g id="xtick_1">
     <g id="line2d_1">
      <defs>
       <path d="M 0 0 
L 0 3.5 
" id="m42dc38ade6" style="stroke:#000000;stroke-width:0.8;"/>
      </defs>
      <g>
       <use style="stroke:#000000;stroke-width:0.8;" x="80.754545" xlink:href="#m42dc38ade6" y="384.48"/>
      </g>
     </g>
     <g id="text_1">
      <!-- 0 -->
      <defs>
       <path d="M 31.78125 66.40625 
Q 24.171875 66.40625 20.328125 58.90625 
Q 16.5 51.421875 16.5 36.375 
Q 16.5 21.390625 20.328125 13.890625 
Q 24.171875 6.390625 31.78125 6.390625 
Q 39.453125 6.390625 43.28125 13.890625 
Q 47.125 21.390625 47.125 36.375 
Q 47.125 51.421875 43.28125 58.90625 
Q 39.453125 66.40625 31.78125 66.40625 
z
M 31.78125 74.21875 
Q 44.046875 74.21875 50.515625 64.515625 
Q 56.984375 54.828125 56.984375 36.375 
Q 56.984375 17.96875 50.515625 8.265625 
Q 44.046875 -1.421875 31.78125 -1.421875 
Q 19.53125 -1.421875 13.0625 8.265625 
Q 6.59375 17.96875 6.59375 36.375 
Q 6.59375 54.828125 13.0625 64.515625 
Q 19.53125 74.21875 31.78125 74.21875 
z
" id="DejaVuSans-30"/>
      </defs>
      <g transform="translate(77.573295 399.078438)scale(0.1 -0.1)">
       <use xlink:href="#DejaVuSans-30"/>
      </g>
     </g>
    </g>
    <g id="xtick_2">
     <g id="line2d_2">
      <g>
       <use style="stroke:#000000;stroke-width:0.8;" x="151.772727" xlink:href="#m42dc38ade6" y="384.48"/>
      </g>
     </g>
     <g id="text_2">
      <!-- 200 -->
      <defs>
       <path d="M 19.1875 8.296875 
L 53.609375 8.296875 
L 53.609375 0 
L 7.328125 0 
L 7.328125 8.296875 
Q 12.9375 14.109375 22.625 23.890625 
Q 32.328125 33.6875 34.8125 36.53125 
Q 39.546875 41.84375 41.421875 45.53125 
Q 43.3125 49.21875 43.3125 52.78125 
Q 43.3125 58.59375 39.234375 62.25 
Q 35.15625 65.921875 28.609375 65.921875 
Q 23.96875 65.921875 18.8125 64.3125 
Q 13.671875 62.703125 7.8125 59.421875 
L 7.8125 69.390625 
Q 13.765625 71.78125 18.9375 73 
Q 24.125 74.21875 28.421875 74.21875 
Q 39.75 74.21875 46.484375 68.546875 
Q 53.21875 62.890625 53.21875 53.421875 
Q 53.21875 48.921875 51.53125 44.890625 
Q 49.859375 40.875 45.40625 35.40625 
Q 44.1875 33.984375 37.640625 27.21875 
Q 31.109375 20.453125 19.1875 8.296875 
z
" id="DejaVuSans-32"/>
      </defs>
      <g transform="translate(142.228977 399.078438)scale(0.1 -0.1)">
       <use xlink:href="#DejaVuSans-32"/>
       <use x="63.623047" xlink:href="#DejaVuSans-30"/>
       <use x="127.246094" xlink:href="#DejaVuSans-30"/>
      </g>
     </g>
    </g>
    <g id="xtick_3">
     <g id="line2d_3">
      <g>
       <use style="stroke:#000000;stroke-width:0.8;" x="222.790909" xlink:href="#m42dc38ade6" y="384.48"/>
      </g>
     </g>
     <g id="text_3">
      <!-- 400 -->
      <defs>
       <path d="M 37.796875 64.3125 
L 12.890625 25.390625 
L 37.796875 25.390625 
z
M 35.203125 72.90625 
L 47.609375 72.90625 
L 47.609375 25.390625 
L 58.015625 25.390625 
L 58.015625 17.1875 
L 47.609375 17.1875 
L 47.609375 0 
L 37.796875 0 
L 37.796875 17.1875 
L 4.890625 17.1875 
L 4.890625 26.703125 
z
" id="DejaVuSans-34"/>
      </defs>
      <g transform="translate(213.247159 399.078438)scale(0.1 -0.1)">
       <use xlink:href="#DejaVuSans-34"/>
       <use x="63.623047" xlink:href="#DejaVuSans-30"/>
       <use x="127.246094" xlink:href="#DejaVuSans-30"/>
      </g>
     </g>
    </g>
    <g id="xtick_4">
     <g id="line2d_4">
      <g>
       <use style="stroke:#000000;stroke-width:0.8;" x="293.809091" xlink:href="#m42dc38ade6" y="384.48"/>
      </g>
     </g>
     <g id="text_4">
      <!-- 600 -->
      <defs>
       <path d="M 33.015625 40.375 
Q 26.375 40.375 22.484375 35.828125 
Q 18.609375 31.296875 18.609375 23.390625 
Q 18.609375 15.53125 22.484375 10.953125 
Q 26.375 6.390625 33.015625 6.390625 
Q 39.65625 6.390625 43.53125 10.953125 
Q 47.40625 15.53125 47.40625 23.390625 
Q 47.40625 31.296875 43.53125 35.828125 
Q 39.65625 40.375 33.015625 40.375 
z
M 52.59375 71.296875 
L 52.59375 62.3125 
Q 48.875 64.0625 45.09375 64.984375 
Q 41.3125 65.921875 37.59375 65.921875 
Q 27.828125 65.921875 22.671875 59.328125 
Q 17.53125 52.734375 16.796875 39.40625 
Q 19.671875 43.65625 24.015625 45.921875 
Q 28.375 48.1875 33.59375 48.1875 
Q 44.578125 48.1875 50.953125 41.515625 
Q 57.328125 34.859375 57.328125 23.390625 
Q 57.328125 12.15625 50.6875 5.359375 
Q 44.046875 -1.421875 33.015625 -1.421875 
Q 20.359375 -1.421875 13.671875 8.265625 
Q 6.984375 17.96875 6.984375 36.375 
Q 6.984375 53.65625 15.1875 63.9375 
Q 23.390625 74.21875 37.203125 74.21875 
Q 40.921875 74.21875 44.703125 73.484375 
Q 48.484375 72.75 52.59375 71.296875 
z
" id="DejaVuSans-36"/>
      </defs>
      <g transform="translate(284.265341 399.078438)scale(0.1 -0.1)">
       <use xlink:href="#DejaVuSans-36"/>
       <use x="63.623047" xlink:href="#DejaVuSans-30"/>
       <use x="127.246094" xlink:href="#DejaVuSans-30"/>
      </g>
     </g>
    </g>
    <g id="xtick_5">
     <g id="line2d_5">
      <g>
       <use style="stroke:#000000;stroke-width:0.8;" x="364.827273" xlink:href="#m42dc38ade6" y="384.48"/>
      </g>
     </g>
     <g id="text_5">
      <!-- 800 -->
      <defs>
       <path d="M 31.78125 34.625 
Q 24.75 34.625 20.71875 30.859375 
Q 16.703125 27.09375 16.703125 20.515625 
Q 16.703125 13.921875 20.71875 10.15625 
Q 24.75 6.390625 31.78125 6.390625 
Q 38.8125 6.390625 42.859375 10.171875 
Q 46.921875 13.96875 46.921875 20.515625 
Q 46.921875 27.09375 42.890625 30.859375 
Q 38.875 34.625 31.78125 34.625 
z
M 21.921875 38.8125 
Q 15.578125 40.375 12.03125 44.71875 
Q 8.5 49.078125 8.5 55.328125 
Q 8.5 64.0625 14.71875 69.140625 
Q 20.953125 74.21875 31.78125 74.21875 
Q 42.671875 74.21875 48.875 69.140625 
Q 55.078125 64.0625 55.078125 55.328125 
Q 55.078125 49.078125 51.53125 44.71875 
Q 48 40.375 41.703125 38.8125 
Q 48.828125 37.15625 52.796875 32.3125 
Q 56.78125 27.484375 56.78125 20.515625 
Q 56.78125 9.90625 50.3125 4.234375 
Q 43.84375 -1.421875 31.78125 -1.421875 
Q 19.734375 -1.421875 13.25 4.234375 
Q 6.78125 9.90625 6.78125 20.515625 
Q 6.78125 27.484375 10.78125 32.3125 
Q 14.796875 37.15625 21.921875 38.8125 
z
M 18.3125 54.390625 
Q 18.3125 48.734375 21.84375 45.5625 
Q 25.390625 42.390625 31.78125 42.390625 
Q 38.140625 42.390625 41.71875 45.5625 
Q 45.3125 48.734375 45.3125 54.390625 
Q 45.3125 60.0625 41.71875 63.234375 
Q 38.140625 66.40625 31.78125 66.40625 
Q 25.390625 66.40625 21.84375 63.234375 
Q 18.3125 60.0625 18.3125 54.390625 
z
" id="DejaVuSans-38"/>
      </defs>
      <g transform="translate(355.283523 399.078438)scale(0.1 -0.1)">
       <use xlink:href="#DejaVuSans-38"/>
       <use x="63.623047" xlink:href="#DejaVuSans-30"/>
       <use x="127.246094" xlink:href="#DejaVuSans-30"/>
      </g>
     </g>
    </g>
    <g id="text_6">
     <!-- time [ms] -->
     <defs>
      <path d="M 18.3125 70.21875 
L 18.3125 54.6875 
L 36.8125 54.6875 
L 36.8125 47.703125 
L 18.3125 47.703125 
L 18.3125 18.015625 
Q 18.3125 11.328125 20.140625 9.421875 
Q 21.96875 7.515625 27.59375 7.515625 
L 36.8125 7.515625 
L 36.8125 0 
L 27.59375 0 
Q 17.1875 0 13.234375 3.875 
Q 9.28125 7.765625 9.28125 18.015625 
L 9.28125 47.703125 
L 2.6875 47.703125 
L 2.6875 54.6875 
L 9.28125 54.6875 
L 9.28125 70.21875 
z
" id="DejaVuSans-74"/>
      <path d="M 9.421875 54.6875 
L 18.40625 54.6875 
L 18.40625 0 
L 9.421875 0 
z
M 9.421875 75.984375 
L 18.40625 75.984375 
L 18.40625 64.59375 
L 9.421875 64.59375 
z
" id="DejaVuSans-69"/>
      <path d="M 52 44.1875 
Q 55.375 50.25 60.0625 53.125 
Q 64.75 56 71.09375 56 
Q 79.640625 56 84.28125 50.015625 
Q 88.921875 44.046875 88.921875 33.015625 
L 88.921875 0 
L 79.890625 0 
L 79.890625 32.71875 
Q 79.890625 40.578125 77.09375 44.375 
Q 74.3125 48.1875 68.609375 48.1875 
Q 61.625 48.1875 57.5625 43.546875 
Q 53.515625 38.921875 53.515625 30.90625 
L 53.515625 0 
L 44.484375 0 
L 44.484375 32.71875 
Q 44.484375 40.625 41.703125 44.40625 
Q 38.921875 48.1875 33.109375 48.1875 
Q 26.21875 48.1875 22.15625 43.53125 
Q 18.109375 38.875 18.109375 30.90625 
L 18.109375 0 
L 9.078125 0 
L 9.078125 54.6875 
L 18.109375 54.6875 
L 18.109375 46.1875 
Q 21.1875 51.21875 25.484375 53.609375 
Q 29.78125 56 35.6875 56 
Q 41.65625 56 45.828125 52.96875 
Q 50 49.953125 52 44.1875 
z
" id="DejaVuSans-6d"/>
      <path d="M 56.203125 29.59375 
L 56.203125 25.203125 
L 14.890625 25.203125 
Q 15.484375 15.921875 20.484375 11.0625 
Q 25.484375 6.203125 34.421875 6.203125 
Q 39.59375 6.203125 44.453125 7.46875 
Q 49.3125 8.734375 54.109375 11.28125 
L 54.109375 2.78125 
Q 49.265625 0.734375 44.1875 -0.34375 
Q 39.109375 -1.421875 33.890625 -1.421875 
Q 20.796875 -1.421875 13.15625 6.1875 
Q 5.515625 13.8125 5.515625 26.8125 
Q 5.515625 40.234375 12.765625 48.109375 
Q 20.015625 56 32.328125 56 
Q 43.359375 56 49.78125 48.890625 
Q 56.203125 41.796875 56.203125 29.59375 
z
M 47.21875 32.234375 
Q 47.125 39.59375 43.09375 43.984375 
Q 39.0625 48.390625 32.421875 48.390625 
Q 24.90625 48.390625 20.390625 44.140625 
Q 15.875 39.890625 15.1875 32.171875 
z
" id="DejaVuSans-65"/>
      <path id="DejaVuSans-20"/>
      <path d="M 8.59375 75.984375 
L 29.296875 75.984375 
L 29.296875 69 
L 17.578125 69 
L 17.578125 -6.203125 
L 29.296875 -6.203125 
L 29.296875 -13.1875 
L 8.59375 -13.1875 
z
" id="DejaVuSans-5b"/>
      <path d="M 44.28125 53.078125 
L 44.28125 44.578125 
Q 40.484375 46.53125 36.375 47.5 
Q 32.28125 48.484375 27.875 48.484375 
Q 21.1875 48.484375 17.84375 46.4375 
Q 14.5 44.390625 14.5 40.28125 
Q 14.5 37.15625 16.890625 35.375 
Q 19.28125 33.59375 26.515625 31.984375 
L 29.59375 31.296875 
Q 39.15625 29.25 43.1875 25.515625 
Q 47.21875 21.78125 47.21875 15.09375 
Q 47.21875 7.46875 41.1875 3.015625 
Q 35.15625 -1.421875 24.609375 -1.421875 
Q 20.21875 -1.421875 15.453125 -0.5625 
Q 10.6875 0.296875 5.421875 2 
L 5.421875 11.28125 
Q 10.40625 8.6875 15.234375 7.390625 
Q 20.0625 6.109375 24.8125 6.109375 
Q 31.15625 6.109375 34.5625 8.28125 
Q 37.984375 10.453125 37.984375 14.40625 
Q 37.984375 18.0625 35.515625 20.015625 
Q 33.0625 21.96875 24.703125 23.78125 
L 21.578125 24.515625 
Q 13.234375 26.265625 9.515625 29.90625 
Q 5.8125 33.546875 5.8125 39.890625 
Q 5.8125 47.609375 11.28125 51.796875 
Q 16.75 56 26.8125 56 
Q 31.78125 56 36.171875 55.265625 
Q 40.578125 54.546875 44.28125 53.078125 
z
" id="DejaVuSans-73"/>
      <path d="M 30.421875 75.984375 
L 30.421875 -13.1875 
L 9.71875 -13.1875 
L 9.71875 -6.203125 
L 21.390625 -6.203125 
L 21.390625 69 
L 9.71875 69 
L 9.71875 75.984375 
z
" id="DejaVuSans-5d"/>
     </defs>
     <g transform="translate(234.038281 412.756563)scale(0.1 -0.1)">
      <use xlink:href="#DejaVuSans-74"/>
      <use x="39.208984" xlink:href="#DejaVuSans-69"/>
      <use x="66.992188" xlink:href="#DejaVuSans-6d"/>
      <use x="164.404297" xlink:href="#DejaVuSans-65"/>
      <use x="225.927734" xlink:href="#DejaVuSans-20"/>
      <use x="257.714844" xlink:href="#DejaVuSans-5b"/>
      <use x="296.728516" xlink:href="#DejaVuSans-6d"/>
      <use x="394.140625" xlink:href="#DejaVuSans-73"/>
      <use x="446.240234" xlink:href="#DejaVuSans-5d"/>
     </g>
    </g>
   </g>
   <g id="matplotlib.axis_2">
    <g id="ytick_1">
     <g id="line2d_6">
      <defs>
       <path d="M 0 0 
L -3.5 0 
" id="m4211a9e167" style="stroke:#000000;stroke-width:0.8;"/>
      </defs>
      <g>
       <use style="stroke:#000000;stroke-width:0.8;" x="63" xlink:href="#m4211a9e167" y="382.132486"/>
      </g>
     </g>
     <g id="text_7">
      <!-- −80 -->
      <defs>
       <path d="M 10.59375 35.5 
L 73.1875 35.5 
L 73.1875 27.203125 
L 10.59375 27.203125 
z
" id="DejaVuSans-2212"/>
      </defs>
      <g transform="translate(34.895313 385.931705)scale(0.1 -0.1)">
       <use xlink:href="#DejaVuSans-2212"/>
       <use x="83.789062" xlink:href="#DejaVuSans-38"/>
       <use x="147.412109" xlink:href="#DejaVuSans-30"/>
      </g>
     </g>
    </g>
    <g id="ytick_2">
     <g id="line2d_7">
      <g>
       <use style="stroke:#000000;stroke-width:0.8;" x="63" xlink:href="#m4211a9e167" y="329.573355"/>
      </g>
     </g>
     <g id="text_8">
      <!-- −60 -->
      <g transform="translate(34.895313 333.372574)scale(0.1 -0.1)">
       <use xlink:href="#DejaVuSans-2212"/>
       <use x="83.789062" xlink:href="#DejaVuSans-36"/>
       <use x="147.412109" xlink:href="#DejaVuSans-30"/>
      </g>
     </g>
    </g>
    <g id="ytick_3">
     <g id="line2d_8">
      <g>
       <use style="stroke:#000000;stroke-width:0.8;" x="63" xlink:href="#m4211a9e167" y="277.014225"/>
      </g>
     </g>
     <g id="text_9">
      <!-- −40 -->
      <g transform="translate(34.895313 280.813443)scale(0.1 -0.1)">
       <use xlink:href="#DejaVuSans-2212"/>
       <use x="83.789062" xlink:href="#DejaVuSans-34"/>
       <use x="147.412109" xlink:href="#DejaVuSans-30"/>
      </g>
     </g>
    </g>
    <g id="ytick_4">
     <g id="line2d_9">
      <g>
       <use style="stroke:#000000;stroke-width:0.8;" x="63" xlink:href="#m4211a9e167" y="224.455094"/>
      </g>
     </g>
     <g id="text_10">
      <!-- −20 -->
      <g transform="translate(34.895313 228.254312)scale(0.1 -0.1)">
       <use xlink:href="#DejaVuSans-2212"/>
       <use x="83.789062" xlink:href="#DejaVuSans-32"/>
       <use x="147.412109" xlink:href="#DejaVuSans-30"/>
      </g>
     </g>
    </g>
    <g id="ytick_5">
     <g id="line2d_10">
      <g>
       <use style="stroke:#000000;stroke-width:0.8;" x="63" xlink:href="#m4211a9e167" y="171.895963"/>
      </g>
     </g>
     <g id="text_11">
      <!-- 0 -->
      <g transform="translate(49.6375 175.695182)scale(0.1 -0.1)">
       <use xlink:href="#DejaVuSans-30"/>
      </g>
     </g>
    </g>
    <g id="ytick_6">
     <g id="line2d_11">
      <g>
       <use style="stroke:#000000;stroke-width:0.8;" x="63" xlink:href="#m4211a9e167" y="119.336832"/>
      </g>
     </g>
     <g id="text_12">
      <!-- 20 -->
      <g transform="translate(43.275 123.136051)scale(0.1 -0.1)">
       <use xlink:href="#DejaVuSans-32"/>
       <use x="63.623047" xlink:href="#DejaVuSans-30"/>
      </g>
     </g>
    </g>
    <g id="ytick_7">
     <g id="line2d_12">
      <g>
       <use style="stroke:#000000;stroke-width:0.8;" x="63" xlink:href="#m4211a9e167" y="66.777701"/>
      </g>
     </g>
     <g id="text_13">
      <!-- 40 -->
      <g transform="translate(43.275 70.57692)scale(0.1 -0.1)">
       <use xlink:href="#DejaVuSans-34"/>
       <use x="63.623047" xlink:href="#DejaVuSans-30"/>
      </g>
     </g>
    </g>
    <g id="text_14">
     <!-- voltage [mV] -->
     <defs>
      <path d="M 2.984375 54.6875 
L 12.5 54.6875 
L 29.59375 8.796875 
L 46.6875 54.6875 
L 56.203125 54.6875 
L 35.6875 0 
L 23.484375 0 
z
" id="DejaVuSans-76"/>
      <path d="M 30.609375 48.390625 
Q 23.390625 48.390625 19.1875 42.75 
Q 14.984375 37.109375 14.984375 27.296875 
Q 14.984375 17.484375 19.15625 11.84375 
Q 23.34375 6.203125 30.609375 6.203125 
Q 37.796875 6.203125 41.984375 11.859375 
Q 46.1875 17.53125 46.1875 27.296875 
Q 46.1875 37.015625 41.984375 42.703125 
Q 37.796875 48.390625 30.609375 48.390625 
z
M 30.609375 56 
Q 42.328125 56 49.015625 48.375 
Q 55.71875 40.765625 55.71875 27.296875 
Q 55.71875 13.875 49.015625 6.21875 
Q 42.328125 -1.421875 30.609375 -1.421875 
Q 18.84375 -1.421875 12.171875 6.21875 
Q 5.515625 13.875 5.515625 27.296875 
Q 5.515625 40.765625 12.171875 48.375 
Q 18.84375 56 30.609375 56 
z
" id="DejaVuSans-6f"/>
      <path d="M 9.421875 75.984375 
L 18.40625 75.984375 
L 18.40625 0 
L 9.421875 0 
z
" id="DejaVuSans-6c"/>
      <path d="M 34.28125 27.484375 
Q 23.390625 27.484375 19.1875 25 
Q 14.984375 22.515625 14.984375 16.5 
Q 14.984375 11.71875 18.140625 8.90625 
Q 21.296875 6.109375 26.703125 6.109375 
Q 34.1875 6.109375 38.703125 11.40625 
Q 43.21875 16.703125 43.21875 25.484375 
L 43.21875 27.484375 
z
M 52.203125 31.203125 
L 52.203125 0 
L 43.21875 0 
L 43.21875 8.296875 
Q 40.140625 3.328125 35.546875 0.953125 
Q 30.953125 -1.421875 24.3125 -1.421875 
Q 15.921875 -1.421875 10.953125 3.296875 
Q 6 8.015625 6 15.921875 
Q 6 25.140625 12.171875 29.828125 
Q 18.359375 34.515625 30.609375 34.515625 
L 43.21875 34.515625 
L 43.21875 35.40625 
Q 43.21875 41.609375 39.140625 45 
Q 35.0625 48.390625 27.6875 48.390625 
Q 23 48.390625 18.546875 47.265625 
Q 14.109375 46.140625 10.015625 43.890625 
L 10.015625 52.203125 
Q 14.9375 54.109375 19.578125 55.046875 
Q 24.21875 56 28.609375 56 
Q 40.484375 56 46.34375 49.84375 
Q 52.203125 43.703125 52.203125 31.203125 
z
" id="DejaVuSans-61"/>
      <path d="M 45.40625 27.984375 
Q 45.40625 37.75 41.375 43.109375 
Q 37.359375 48.484375 30.078125 48.484375 
Q 22.859375 48.484375 18.828125 43.109375 
Q 14.796875 37.75 14.796875 27.984375 
Q 14.796875 18.265625 18.828125 12.890625 
Q 22.859375 7.515625 30.078125 7.515625 
Q 37.359375 7.515625 41.375 12.890625 
Q 45.40625 18.265625 45.40625 27.984375 
z
M 54.390625 6.78125 
Q 54.390625 -7.171875 48.1875 -13.984375 
Q 42 -20.796875 29.203125 -20.796875 
Q 24.46875 -20.796875 20.265625 -20.09375 
Q 16.0625 -19.390625 12.109375 -17.921875 
L 12.109375 -9.1875 
Q 16.0625 -11.328125 19.921875 -12.34375 
Q 23.78125 -13.375 27.78125 -13.375 
Q 36.625 -13.375 41.015625 -8.765625 
Q 45.40625 -4.15625 45.40625 5.171875 
L 45.40625 9.625 
Q 42.625 4.78125 38.28125 2.390625 
Q 33.9375 0 27.875 0 
Q 17.828125 0 11.671875 7.65625 
Q 5.515625 15.328125 5.515625 27.984375 
Q 5.515625 40.671875 11.671875 48.328125 
Q 17.828125 56 27.875 56 
Q 33.9375 56 38.28125 53.609375 
Q 42.625 51.21875 45.40625 46.390625 
L 45.40625 54.6875 
L 54.390625 54.6875 
z
" id="DejaVuSans-67"/>
      <path d="M 28.609375 0 
L 0.78125 72.90625 
L 11.078125 72.90625 
L 34.1875 11.53125 
L 57.328125 72.90625 
L 67.578125 72.90625 
L 39.796875 0 
z
" id="DejaVuSans-56"/>
     </defs>
     <g transform="translate(28.815625 250.624062)rotate(-90)scale(0.1 -0.1)">
      <use xlink:href="#DejaVuSans-76"/>
      <use x="59.179688" xlink:href="#DejaVuSans-6f"/>
      <use x="120.361328" xlink:href="#DejaVuSans-6c"/>
      <use x="148.144531" xlink:href="#DejaVuSans-74"/>
      <use x="187.353516" xlink:href="#DejaVuSans-61"/>
      <use x="248.632812" xlink:href="#DejaVuSans-67"/>
      <use x="312.109375" xlink:href="#DejaVuSans-65"/>
      <use x="373.632812" xlink:href="#DejaVuSans-20"/>
      <use x="405.419922" xlink:href="#DejaVuSans-5b"/>
      <use x="444.433594" xlink:href="#DejaVuSans-6d"/>
      <use x="541.845703" xlink:href="#DejaVuSans-56"/>
      <use x="610.253906" xlink:href="#DejaVuSans-5d"/>
     </g>
    </g>
   </g>
   <g id="line2d_13">
    <path clip-path="url(#pebef8901e4)" d="M 80.754545 342.713138 
L 81.952977 342.576747 
L 83.772818 342.633774 
L 85.965505 342.652695 
L 151.772727 342.644023 
L 152.314241 298.06915 
L 152.420768 249.377582 
L 152.562805 67.629685 
L 152.678209 92.876463 
L 153.565936 369.231322 
L 153.610323 369.130671 
L 153.8145 367.750206 
L 154.293873 362.990976 
L 154.959668 353.85909 
L 157.42755 314.92276 
L 157.613973 303.78259 
L 157.738255 281.791587 
L 157.835905 219.162652 
L 157.969064 92.018961 
L 158.031205 105.1866 
L 158.883423 368.806381 
L 158.945564 368.622687 
L 159.203005 366.641208 
L 159.717886 360.961668 
L 160.534595 349.020759 
L 161.8218 330.869464 
L 162.514227 320.490875 
L 162.771668 312.961517 
L 162.940336 300.956223 
L 163.064618 272.957448 
L 163.162268 188.460315 
L 163.268795 92.940322 
L 163.322059 102.464562 
L 163.863573 297.790586 
L 164.147645 368.62952 
L 164.183155 368.774583 
L 164.245295 368.592991 
L 164.493859 366.687197 
L 165.008741 361.027367 
L 165.834327 348.963207 
L 167.112655 330.944098 
L 167.813959 320.455397 
L 168.0714 312.916316 
L 168.240068 300.871602 
L 168.36435 272.710946 
L 168.462 187.713843 
L 168.568527 93.017321 
L 168.621791 102.686888 
L 169.172182 301.746975 
L 169.4385 368.543586 
L 169.482886 368.772481 
L 169.545027 368.586947 
L 169.802468 366.597321 
L 170.31735 360.899911 
L 171.151814 348.673869 
L 172.430141 330.701012 
L 173.113691 320.437002 
L 173.371132 312.879787 
L 173.5398 300.775682 
L 173.664082 272.372465 
L 173.761732 186.561195 
L 173.868259 93.03414 
L 173.921523 102.923141 
L 174.480791 305.822935 
L 174.729355 368.434 
L 174.782618 368.772481 
L 174.844759 368.582742 
L 175.1022 366.589963 
L 175.617082 360.889137 
L 176.451545 348.660992 
L 177.729873 330.690237 
L 178.413423 320.420183 
L 178.670864 312.843784 
L 178.839532 300.678448 
L 178.963814 272.025049 
L 179.061464 185.374804 
L 179.167991 93.051485 
L 179.221255 103.162022 
L 179.7894 310.002175 
L 180.029086 368.446351 
L 180.08235 368.772744 
L 180.144491 368.578275 
L 180.401932 366.582605 
L 180.916814 360.878625 
L 181.751277 348.648641 
L 183.029605 330.679725 
L 183.713155 320.403101 
L 183.970595 312.807518 
L 184.139264 300.580162 
L 184.263545 271.669487 
L 184.361195 184.167547 
L 184.467723 93.075399 
L 184.520986 103.404583 
L 185.098009 314.273392 
L 185.328818 368.45844 
L 185.382082 368.772744 
L 185.444223 368.57407 
L 185.701664 366.574984 
L 186.216545 360.868113 
L 187.051009 348.636027 
L 188.329336 330.669213 
L 189.012886 320.386282 
L 189.270327 312.77099 
L 189.438995 300.4803 
L 189.563277 271.308668 
L 189.660927 182.955481 
L 189.767455 93.105095 
L 189.820718 103.649508 
L 190.406618 318.616879 
L 190.619673 368.324414 
L 190.681814 368.772481 
L 190.743955 368.569603 
L 191.010273 366.486159 
L 191.525155 360.742497 
L 192.368495 348.350105 
L 193.637945 330.543071 
L 194.312618 320.368938 
L 194.570059 312.734461 
L 194.738727 300.379912 
L 194.863009 270.944433 
L 194.969536 168.363595 
L 195.058309 93.091693 
L 195.12045 103.897062 
L 195.715227 323.006618 
L 195.919405 368.339919 
L 195.981545 368.772481 
L 196.043686 368.565135 
L 196.310005 366.478538 
L 196.833764 360.616355 
L 197.703736 347.791664 
L 198.955432 330.301562 
L 199.61235 320.351856 
L 199.869791 312.697407 
L 200.038459 300.278473 
L 200.162741 270.57284 
L 200.269268 167.098733 
L 200.358041 93.06226 
L 200.420182 104.14882 
L 201.023836 327.405554 
L 201.219136 368.354636 
L 201.281277 368.771955 
L 201.343418 368.560668 
L 201.609736 366.470917 
L 202.133495 360.605317 
L 202.994591 347.915178 
L 204.255164 330.290788 
L 204.912082 320.334249 
L 205.169523 312.659827 
L 205.338191 300.175457 
L 205.462473 270.193626 
L 205.569 165.825383 
L 205.657773 93.039922 
L 205.719914 104.402418 
L 206.332445 331.765597 
L 206.518868 368.369352 
L 206.581009 368.771692 
L 206.634273 368.602715 
L 206.873959 366.785483 
L 207.388841 361.167437 
L 208.187795 349.542409 
L 209.510509 330.856324 
L 210.202936 320.501387 
L 210.460377 313.01539 
L 210.629045 301.139917 
L 210.753327 273.665157 
L 210.850977 191.023991 
L 210.957505 93.02468 
L 211.019645 104.657067 
L 211.641055 336.03261 
L 211.827477 368.515204 
L 211.880741 368.771167 
L 211.934005 368.59851 
L 212.182568 366.698235 
L 212.69745 361.043135 
L 213.514159 349.119045 
L 214.810241 330.845549 
L 215.502668 320.484305 
L 215.760109 312.979387 
L 215.928777 301.043471 
L 216.053059 273.325362 
L 216.150709 189.843513 
L 216.257236 93.018373 
L 216.319377 104.91119 
L 216.949664 340.142997 
L 217.127209 368.525716 
L 217.171595 368.771692 
L 217.233736 368.594305 
L 217.4823 366.690876 
L 217.997182 361.032623 
L 218.822768 348.969514 
L 220.101095 330.949879 
L 220.8024 320.467223 
L 221.059841 312.943646 
L 221.228509 300.947288 
L 221.352791 272.984253 
L 221.450441 188.663613 
L 221.556968 93.018898 
L 221.610232 102.501617 
L 222.151745 297.846036 
L 222.426941 368.535702 
L 222.471327 368.771955 
L 222.533468 368.590101 
L 222.782032 366.683518 
L 223.296914 361.022111 
L 224.1225 348.956637 
L 225.418582 330.709158 
L 226.111009 320.264871 
L 226.36845 312.510296 
L 226.537118 299.761554 
L 226.652523 272.640516 
L 226.750173 187.479009 
L 226.8567 93.024943 
L 226.909964 102.739447 
L 227.460355 301.822397 
L 227.726673 368.545425 
L 227.771059 368.772481 
L 227.8332 368.585896 
L 228.090641 366.595482 
L 228.605523 360.897283 
L 229.439986 348.670716 
L 230.718314 330.698384 
L 231.401864 320.43306 
L 231.659305 312.871378 
L 231.827973 300.753607 
L 231.952255 272.294415 
L 232.049905 186.294195 
L 232.156432 93.03782 
L 232.209695 102.977014 
L 232.768964 305.901511 
L 233.017527 368.436891 
L 233.070791 368.772481 
L 233.132932 368.581691 
L 233.390373 366.588123 
L 233.905255 360.886772 
L 234.739718 348.658101 
L 236.018045 330.687872 
L 236.701595 320.416241 
L 236.959036 312.835637 
L 237.127705 300.656373 
L 237.251986 271.945159 
L 237.349636 185.102601 
L 237.456164 93.056215 
L 237.509427 103.216946 
L 238.077573 310.083116 
L 238.317259 368.448979 
L 238.370523 368.772744 
L 238.432664 368.577486 
L 238.690105 366.580765 
L 239.204986 360.87626 
L 240.03945 348.64575 
L 241.317777 330.67736 
L 242.001327 320.399422 
L 242.258768 312.799372 
L 242.427436 300.557562 
L 242.551718 271.587757 
L 242.649368 183.892532 
L 242.755895 93.081706 
L 242.809159 103.460032 
L 243.386182 314.356173 
L 243.616991 368.461068 
L 243.670255 368.772744 
L 243.732395 368.573019 
L 243.989836 366.573407 
L 244.504718 360.865748 
L 245.348059 348.496482 
L 246.617509 330.666585 
L 247.301059 320.38234 
L 247.5585 312.762843 
L 247.727168 300.457436 
L 247.85145 271.226413 
L 247.9491 182.679283 
L 248.055627 93.112979 
L 248.108891 103.705484 
L 248.694791 318.701499 
L 248.907845 368.328093 
L 248.969986 368.772481 
L 249.032127 368.568814 
L 249.298445 366.484582 
L 249.822205 360.624764 
L 250.692177 347.80165 
L 251.943873 330.309972 
L 252.600791 320.364996 
L 252.858232 312.726052 
L 253.0269 300.356786 
L 253.151182 270.860339 
L 253.257709 168.075624 
L 253.346482 93.084334 
L 253.408623 103.954351 
L 254.0034 323.092815 
L 254.207577 368.343336 
L 254.269718 368.772218 
L 254.331859 368.564347 
L 254.598177 366.476961 
L 255.121936 360.613727 
L 255.983032 347.925164 
L 257.22585 330.529932 
L 257.900523 320.347914 
L 258.157964 312.688997 
L 258.326632 300.255084 
L 258.450914 270.486906 
L 258.557441 166.80816 
L 258.646214 93.056478 
L 258.708355 104.206898 
L 259.312009 327.491751 
L 259.507309 368.358052 
L 259.56945 368.771955 
L 259.631591 368.559616 
L 259.897909 366.469077 
L 260.421668 360.602952 
L 261.291641 347.776159 
L 262.525582 330.519157 
L 263.200255 320.330307 
L 263.457695 312.651418 
L 263.626364 300.151805 
L 263.750645 270.106378 
L 263.857173 165.534284 
L 263.945945 93.035717 
L 264.008086 104.460495 
L 264.620618 331.85048 
L 264.807041 368.372769 
L 264.869182 368.77143 
L 264.922445 368.601926 
L 265.171009 366.704016 
L 265.685891 361.051545 
L 266.511477 348.992115 
L 267.807559 330.738854 
L 268.499986 320.312962 
L 268.757427 312.613838 
L 268.926095 300.048526 
L 269.050377 269.72585 
L 269.156905 164.269896 
L 269.245677 93.022577 
L 269.298941 102.082458 
L 269.8227 290.277258 
L 270.133405 368.684182 
L 270.168914 368.771167 
L 270.222177 368.597722 
L 270.470741 366.696658 
L 270.985623 361.04077 
L 271.802332 349.116154 
L 273.098414 330.843184 
L 273.790841 320.480363 
L 274.048282 312.97124 
L 274.21695 301.021659 
L 274.341232 273.247574 
L 274.438882 189.573464 
L 274.545409 93.01811 
L 274.598673 102.318711 
L 275.131309 294.048639 
L 275.424259 368.622162 
L 275.459768 368.771692 
L 275.521909 368.593517 
L 275.770473 366.6893 
L 276.285355 361.030258 
L 277.110941 348.966624 
L 278.389268 330.947514 
L 279.090573 320.463281 
L 279.348014 312.935237 
L 279.516682 300.925213 
L 279.640964 272.90594 
L 279.738614 188.393459 
L 279.845141 93.019424 
L 279.898405 102.556015 
L 280.439918 297.921984 
L 280.715114 368.537804 
L 280.7595 368.772218 
L 280.821641 368.589312 
L 281.079082 366.601263 
L 281.593964 360.90543 
L 282.428427 348.680439 
L 283.706755 330.70653 
L 284.390305 320.4462 
L 284.647745 312.899234 
L 284.816414 300.828504 
L 284.940695 272.561678 
L 285.038345 187.20875 
L 285.144873 93.027308 
L 285.198136 102.793583 
L 285.748527 301.899396 
L 286.014845 368.547528 
L 286.059232 368.772481 
L 286.121373 368.584845 
L 286.378814 366.593905 
L 286.893695 360.894918 
L 287.728159 348.667825 
L 289.006486 330.696018 
L 289.690036 320.429381 
L 289.947477 312.863231 
L 290.116145 300.731532 
L 290.240427 272.21505 
L 290.338077 186.023042 
L 290.444605 93.041499 
L 290.497868 103.031413 
L 291.057136 305.980876 
L 291.3057 368.439782 
L 291.358964 368.772744 
L 291.421105 368.58064 
L 291.678545 366.586547 
L 292.193427 360.884406 
L 293.027891 348.655211 
L 294.315095 330.570139 
L 294.989768 320.412299 
L 295.247209 312.827228 
L 295.415877 300.634035 
L 295.540159 271.864218 
L 295.637809 184.827532 
L 295.744336 93.061471 
L 295.7976 103.272134 
L 296.365745 310.164582 
L 296.605432 368.45187 
L 296.658695 368.772744 
L 296.720836 368.576435 
L 296.978277 366.579188 
L 297.493159 360.873895 
L 298.327623 348.642859 
L 299.60595 330.674995 
L 300.2895 320.39548 
L 300.546941 312.790962 
L 300.715609 300.534698 
L 300.839891 271.505765 
L 300.937541 183.617122 
L 301.044068 93.088276 
L 301.097332 103.515482 
L 301.674355 314.438954 
L 301.905164 368.463696 
L 301.958427 368.772744 
L 302.020568 368.572231 
L 302.286886 366.490363 
L 302.810645 360.632911 
L 303.671741 347.947765 
L 304.914559 330.549116 
L 305.589232 320.378398 
L 305.846673 312.754434 
L 306.015341 300.434836 
L 306.139623 271.143895 
L 306.24615 169.04844 
L 306.334923 93.110351 
L 306.397064 103.761722 
L 306.982964 318.786119 
L 307.196018 368.33151 
L 307.258159 368.772481 
L 307.3203 368.567763 
L 307.586618 366.482742 
L 308.110377 360.622136 
L 308.971473 347.935151 
L 310.214291 330.538341 
L 310.888964 320.361317 
L 311.146405 312.717642 
L 311.315073 300.333923 
L 311.439355 270.775981 
L 311.545882 167.788677 
L 311.634655 93.077502 
L 311.696795 104.011378 
L 312.291573 323.178486 
L 312.49575 368.346752 
L 312.557891 368.772218 
L 312.620032 368.563296 
L 312.88635 366.475121 
L 313.410109 360.611362 
L 314.280082 347.785883 
L 315.531777 330.296569 
L 316.188695 320.343709 
L 316.446136 312.680325 
L 316.614805 300.231695 
L 316.739086 270.401235 
L 316.845614 166.518691 
L 316.934386 93.051222 
L 316.996527 104.26445 
L 317.600182 327.577685 
L 317.795482 368.361468 
L 317.857623 368.771955 
L 317.910886 368.60508 
L 318.150573 366.789425 
L 318.665455 361.173219 
L 319.464409 349.549242 
L 320.787123 330.862368 
L 321.488427 320.326365 
L 321.745868 312.642745 
L 321.914536 300.128154 
L 322.038818 270.019393 
L 322.145345 165.244578 
L 322.234118 93.032038 
L 322.296259 104.518573 
L 322.908791 331.9351 
L 323.095214 368.376185 
L 323.157355 368.77143 
L 323.210618 368.600875 
L 323.459182 366.702439 
L 323.974064 361.048917 
L 324.790773 349.125878 
L 326.095732 330.736226 
L 326.779282 320.493503 
L 327.036723 312.999096 
L 327.205391 301.09603 
L 327.329673 273.51037 
L 327.427323 190.485786 
L 327.53385 93.020738 
L 327.595991 104.77296 
L 328.2174 336.196069 
L 328.403823 368.519934 
L 328.457086 368.770904 
L 328.51035 368.596671 
L 328.758914 366.694818 
L 329.273795 361.038405 
L 329.318182 360.462619 
L 329.335936 361.36506 
L 329.531236 365.366912 
L 329.620009 365.555336 
L 329.664395 365.497784 
L 329.815309 364.889149 
L 330.214786 362.063833 
L 332.176664 347.262919 
L 332.869091 344.031321 
L 333.428359 342.370978 
L 333.889977 341.62569 
L 334.262823 341.398109 
L 334.609036 341.4349 
L 335.061777 341.724764 
L 336.553159 342.817994 
L 337.156814 342.914965 
L 338.097805 342.804591 
L 339.580309 342.609597 
L 342.101455 342.645862 
L 345.714505 342.641921 
L 435.845455 342.644023 
L 435.845455 342.644023 
" style="fill:none;stroke:#1f77b4;stroke-linecap:square;stroke-width:1.5;"/>
   </g>
   <g id="line2d_14">
    <path clip-path="url(#pebef8901e4)" d="M 80.754545 342.713138 
L 81.26055 343.499503 
L 81.739923 343.87938 
L 82.210418 343.971957 
L 82.82295 343.840896 
L 84.77595 343.288261 
L 85.974382 343.298952 
L 89.054795 343.386494 
L 99.263659 343.373155 
L 151.772727 343.373143 
L 152.314241 299.053046 
L 152.420768 253.20599 
L 152.571682 66.96 
L 152.695964 96.801045 
L 153.574814 369.36 
L 153.583691 369.355483 
L 153.663586 369.0327 
L 154.000923 366.382327 
L 154.524682 360.49411 
L 155.394655 347.637989 
L 156.752877 328.429437 
L 157.267759 319.77152 
L 157.507445 311.744196 
L 157.667236 298.281968 
L 157.782641 267.084074 
L 157.889168 155.101789 
L 157.969064 92.222174 
L 158.031205 102.92879 
L 158.617105 318.075758 
L 158.839036 368.584026 
L 158.8923 368.927302 
L 158.954441 368.749815 
L 159.203005 366.890028 
L 159.709009 361.444646 
L 160.481332 350.297092 
L 161.910573 329.943939 
L 162.531982 320.282835 
L 162.789423 312.428295 
L 162.958091 299.529073 
L 163.073495 272.100466 
L 163.171145 186.462117 
L 163.277673 93.187122 
L 163.330936 103.092153 
L 163.890205 306.6651 
L 164.138768 368.553816 
L 164.192032 368.894946 
L 164.254173 368.71679 
L 164.502736 366.850251 
L 165.008741 361.388231 
L 165.781064 350.228482 
L 167.201427 330.012062 
L 167.831714 320.23183 
L 168.089155 312.349298 
L 168.257823 299.347595 
L 168.373227 271.547503 
L 168.479755 171.507815 
L 168.577405 93.288748 
L 168.630668 103.526357 
L 169.207691 315.071891 
L 169.429623 368.424386 
L 169.491764 368.892994 
L 169.553905 368.70722 
L 169.811345 366.75577 
L 170.326227 361.14082 
L 171.125182 349.516139 
L 172.492282 330.107135 
L 173.131445 320.197728 
L 173.388886 312.277283 
L 173.557555 299.148158 
L 173.672959 270.881931 
L 173.779486 169.229485 
L 173.877136 93.347201 
L 173.9304 103.98467 
L 174.5163 319.738678 
L 174.729355 368.452536 
L 174.791495 368.89282 
L 174.853636 368.699197 
L 175.111077 366.741896 
L 175.625959 361.121031 
L 176.424914 349.492183 
L 177.792014 330.086651 
L 178.431177 320.164686 
L 178.688618 312.2052 
L 178.857286 298.944713 
L 178.972691 270.193181 
L 179.079218 166.902678 
L 179.167991 93.300246 
L 179.230132 104.452106 
L 179.833786 328.459917 
L 180.029086 368.480135 
L 180.091227 368.892548 
L 180.153368 368.691174 
L 180.419686 366.648185 
L 180.934568 360.987665 
L 181.751277 349.057035 
L 183.091745 330.066207 
L 183.722032 320.321396 
L 183.979473 312.545215 
L 184.148141 299.894228 
L 184.272423 269.494701 
L 184.37895 164.593152 
L 184.467723 93.265546 
L 184.529864 104.921244 
L 185.151273 336.960194 
L 185.337695 368.635123 
L 185.390959 368.891926 
L 185.4531 368.683127 
L 185.719418 366.634362 
L 186.2343 360.968038 
L 187.051009 349.033423 
L 188.391477 330.045979 
L 189.021764 320.288892 
L 189.279205 312.47539 
L 189.447873 299.702297 
L 189.572155 268.788843 
L 189.678682 162.304956 
L 189.767455 93.256329 
L 189.820718 102.716187 
L 190.362232 298.719545 
L 190.637427 368.653738 
L 190.690691 368.89098 
L 190.743955 368.720884 
L 190.992518 366.858943 
L 191.498523 361.40066 
L 192.270845 350.24372 
L 193.691209 330.025861 
L 194.321495 320.256458 
L 194.578936 312.405428 
L 194.747605 299.50794 
L 194.863009 272.085698 
L 194.960659 186.526305 
L 195.067186 93.268158 
L 195.12045 103.160388 
L 195.679718 306.76819 
L 195.928282 368.554249 
L 195.981545 368.892489 
L 196.043686 368.713297 
L 196.29225 366.845533 
L 196.798255 361.381531 
L 197.579455 350.083266 
L 198.990941 330.005794 
L 199.621227 320.223965 
L 199.878668 312.334651 
L 200.047336 299.309636 
L 200.162741 271.424982 
L 200.269268 171.093258 
L 200.366918 93.302719 
L 200.420182 103.614231 
L 200.997205 315.203432 
L 201.219136 368.429709 
L 201.281277 368.892838 
L 201.343418 368.705547 
L 201.600859 366.752944 
L 202.115741 361.136789 
L 202.914695 349.511261 
L 204.281795 330.103006 
L 204.920959 320.1912 
L 205.1784 312.263212 
L 205.347068 299.108725 
L 205.462473 270.748979 
L 205.569 168.77743 
L 205.657773 93.348053 
L 205.719914 104.075487 
L 206.314691 323.888439 
L 206.518868 368.457994 
L 206.581009 368.892776 
L 206.64315 368.697624 
L 206.900591 366.73918 
L 207.415473 361.117158 
L 208.214427 349.487497 
L 209.581527 330.082642 
L 210.220691 320.158215 
L 210.478132 312.191061 
L 210.6468 298.904735 
L 210.762205 270.057613 
L 210.868732 166.452309 
L 210.957505 93.291272 
L 211.019645 104.543003 
L 211.632177 332.556119 
L 211.8186 368.485258 
L 211.880741 368.892452 
L 211.942882 368.689624 
L 212.2092 366.64551 
L 212.724082 360.983866 
L 213.540791 349.052463 
L 214.881259 330.062286 
L 215.511545 320.315086 
L 215.768986 312.531657 
L 215.937655 299.856983 
L 216.061936 269.35803 
L 216.168464 164.14578 
L 216.257236 93.261554 
L 216.3105 102.36351 
L 216.834259 291.199006 
L 217.136086 368.734233 
L 217.180473 368.891764 
L 217.233736 368.726938 
L 217.473423 366.947852 
L 217.979427 361.527788 
L 218.742873 350.536641 
L 220.180991 330.042031 
L 220.811277 320.282536 
L 221.068718 312.461723 
L 221.237386 299.66452 
L 221.361668 268.649111 
L 221.468195 161.856675 
L 221.556968 93.256748 
L 221.610232 102.802618 
L 222.160623 302.499496 
L 222.426941 368.657243 
L 222.471327 368.891988 
L 222.533468 368.719405 
L 222.782032 366.856321 
L 223.288036 361.396919 
L 224.060359 350.239143 
L 225.480723 330.021933 
L 226.111009 320.250093 
L 226.36845 312.391566 
L 226.537118 299.469129 
L 226.652523 271.956485 
L 226.750173 186.088076 
L 226.8567 93.273025 
L 226.909964 103.249328 
L 227.478109 310.740405 
L 227.717795 368.558819 
L 227.771059 368.892591 
L 227.8332 368.711784 
L 228.081764 366.842872 
L 228.587768 361.377735 
L 229.368968 350.078626 
L 230.780455 330.001814 
L 231.410741 320.217524 
L 231.668182 312.320614 
L 231.83685 299.270262 
L 231.952255 271.293223 
L 232.058782 170.640126 
L 232.156432 93.312424 
L 232.209695 103.703818 
L 232.786718 315.336775 
L 233.00865 368.435304 
L 233.070791 368.89285 
L 233.132932 368.704013 
L 233.390373 366.750267 
L 233.905255 361.132971 
L 234.704209 349.506637 
L 236.071309 330.099045 
L 236.710473 320.184777 
L 236.967914 312.249161 
L 237.136582 299.069024 
L 237.251986 270.614545 
L 237.358514 168.320572 
L 237.447286 93.335032 
L 237.509427 104.166936 
L 238.104205 324.025688 
L 238.308382 368.463471 
L 238.370523 368.892738 
L 238.432664 368.696055 
L 238.690105 366.736464 
L 239.204986 361.113286 
L 240.003941 349.482812 
L 241.371041 330.078629 
L 242.010205 320.151716 
L 242.267645 312.176838 
L 242.436314 298.864474 
L 242.551718 269.920996 
L 242.658245 165.99999 
L 242.747018 93.283738 
L 242.809159 104.634443 
L 243.421691 332.687827 
L 243.608114 368.490358 
L 243.670255 368.892335 
L 243.732395 368.688053 
L 243.998714 366.64281 
L 244.513595 360.980031 
L 245.330305 349.047849 
L 246.670773 330.058333 
L 247.301059 320.308733 
L 247.5585 312.518011 
L 247.727168 299.81949 
L 247.85145 269.220414 
L 247.957977 163.698586 
L 248.04675 93.25903 
L 248.100014 102.449008 
L 248.63265 294.786055 
L 248.9256 368.736936 
L 248.969986 368.89159 
L 249.02325 368.725467 
L 249.262936 366.945235 
L 249.768941 361.524038 
L 250.532386 350.532033 
L 251.970505 330.038086 
L 252.600791 320.276188 
L 252.858232 312.448082 
L 253.0269 299.626817 
L 253.151182 268.509184 
L 253.257709 161.409329 
L 253.346482 93.257954 
L 253.399745 102.889236 
L 253.950136 302.623704 
L 254.216455 368.660728 
L 254.260841 368.892128 
L 254.322982 368.717925 
L 254.571545 366.853699 
L 255.07755 361.393177 
L 255.849873 350.234567 
L 257.270236 330.018007 
L 257.900523 320.243734 
L 258.157964 312.377715 
L 258.326632 299.430335 
L 258.442036 271.827282 
L 258.539686 185.65014 
L 258.646214 93.278791 
L 258.699477 103.338616 
L 259.267623 310.872829 
L 259.507309 368.563371 
L 259.560573 368.892679 
L 259.622714 368.710258 
L 259.871277 366.840193 
L 260.377282 361.373915 
L 261.158482 350.073956 
L 262.561091 330.115261 
L 263.200255 320.21105 
L 263.457695 312.306509 
L 263.626364 299.230654 
L 263.741768 271.160327 
L 263.848295 170.183769 
L 263.945945 93.322971 
L 263.999209 103.794446 
L 264.585109 319.453102 
L 264.798164 368.440909 
L 264.860305 368.892849 
L 264.922445 368.70246 
L 265.179886 366.747563 
L 265.694768 361.129113 
L 266.493723 349.501967 
L 267.860823 330.095038 
L 268.499986 320.178283 
L 268.757427 312.234955 
L 268.926095 299.028869 
L 269.0415 270.478493 
L 269.148027 167.859926 
L 269.2368 93.322693 
L 269.298941 104.259336 
L 269.902595 328.174513 
L 270.097895 368.468949 
L 270.160036 368.892691 
L 270.222177 368.694471 
L 270.488495 366.653903 
L 271.003377 360.995787 
L 271.820086 349.066812 
L 273.160555 330.074586 
L 273.799718 320.145161 
L 274.057159 312.16248 
L 274.225827 298.823803 
L 274.341232 269.782924 
L 274.447759 165.543476 
L 274.536532 93.277031 
L 274.598673 104.727199 
L 275.211205 332.821421 
L 275.397627 368.4955 
L 275.459768 368.892208 
L 275.513032 368.731481 
L 275.752718 366.955993 
L 276.258723 361.539454 
L 277.022168 350.550986 
L 278.469164 329.936819 
L 279.09945 320.112103 
L 279.356891 312.089911 
L 279.525559 298.61788 
L 279.640964 269.080835 
L 279.747491 163.246869 
L 279.836264 93.257594 
L 279.889527 102.535469 
L 280.422164 294.904543 
L 280.715114 368.739639 
L 280.7595 368.891405 
L 280.812764 368.72398 
L 281.05245 366.942596 
L 281.558455 361.520257 
L 282.3219 350.527386 
L 283.760018 330.034112 
L 284.390305 320.269798 
L 284.647745 312.434352 
L 284.816414 299.588726 
L 284.940695 268.367683 
L 285.047223 160.959806 
L 285.135995 93.260459 
L 285.189259 102.976328 
L 285.73965 302.74806 
L 286.005968 368.664178 
L 286.050355 368.892248 
L 286.112495 368.716432 
L 286.361059 366.851064 
L 286.867064 361.38942 
L 287.639386 350.229971 
L 289.05975 330.014067 
L 289.690036 320.237357 
L 289.947477 312.36383 
L 290.116145 299.39144 
L 290.23155 271.697699 
L 290.338077 172.04014 
L 290.435727 93.285451 
L 290.488991 103.427778 
L 291.057136 311.004634 
L 291.296823 368.567865 
L 291.350086 368.892754 
L 291.412227 368.708733 
L 291.669668 366.758531 
L 292.18455 361.144762 
L 292.983505 349.520917 
L 294.350605 330.111277 
L 294.989768 320.204602 
L 295.247209 312.292455 
L 295.415877 299.191102 
L 295.531282 271.027027 
L 295.637809 169.726331 
L 295.735459 93.334229 
L 295.788723 103.885645 
L 296.374623 319.590098 
L 296.587677 368.4465 
L 296.649818 368.892836 
L 296.711959 368.700893 
L 296.9694 366.744841 
L 297.484282 361.125231 
L 298.283236 349.497267 
L 299.650336 330.091009 
L 300.2895 320.171753 
L 300.546941 312.220668 
L 300.715609 298.988473 
L 300.831014 270.341572 
L 300.937541 167.398611 
L 301.026314 93.311537 
L 301.088455 104.352224 
L 301.692109 328.312354 
L 301.887409 368.474382 
L 301.94955 368.892627 
L 302.011691 368.692877 
L 302.278009 366.651136 
L 302.792891 360.991856 
L 303.6096 349.062081 
L 304.950068 330.070534 
L 305.589232 320.138597 
L 305.846673 312.148105 
L 306.015341 298.783079 
L 306.130745 269.644541 
L 306.237273 165.086092 
L 306.326045 93.271067 
L 306.388186 104.820479 
L 307.009595 336.81995 
L 307.196018 368.630963 
L 307.249282 368.892076 
L 307.311423 368.684854 
L 307.577741 366.637321 
L 308.092623 360.972238 
L 308.909332 349.038474 
L 310.2498 330.050306 
L 310.880086 320.295844 
L 311.137527 312.490332 
L 311.306195 299.743416 
L 311.430477 268.940628 
L 311.537005 162.793691 
L 311.625777 93.256676 
L 311.679041 102.622311 
L 312.220555 298.587809 
L 312.49575 368.649884 
L 312.549014 368.891213 
L 312.602277 368.722492 
L 312.850841 366.861801 
L 313.356845 361.404739 
L 314.129168 350.248711 
L 315.549532 330.030137 
L 316.179818 320.263383 
L 316.437259 312.420477 
L 316.605927 299.550043 
L 316.721332 272.225795 
L 316.818982 187.001693 
L 316.925509 93.263822 
L 316.978773 103.064329 
L 317.538041 306.62845 
L 317.786605 368.549262 
L 317.839868 368.892365 
L 317.902009 368.71493 
L 318.150573 366.848413 
L 318.656577 361.385638 
L 319.4289 350.225348 
L 320.849264 330.010101 
L 321.47955 320.230937 
L 321.736991 312.349846 
L 321.905659 299.352245 
L 322.021064 271.567062 
L 322.127591 171.585392 
L 322.225241 93.293241 
L 322.278505 103.517179 
L 322.855527 315.058437 
L 323.077459 368.423569 
L 323.1396 368.892807 
L 323.201741 368.707208 
L 323.459182 366.755849 
L 323.974064 361.140935 
L 324.773018 349.516281 
L 326.140118 330.107307 
L 326.779282 320.198173 
L 327.036723 312.278434 
L 327.205391 299.151626 
L 327.320795 270.89392 
L 327.427323 169.271061 
L 327.524973 93.346452 
L 327.578236 103.976807 
L 328.164136 319.726923 
L 328.377191 368.452044 
L 328.439332 368.89281 
L 328.501473 368.69932 
L 328.758914 366.742116 
L 329.273795 361.121345 
L 329.318182 360.548599 
L 329.335936 361.456638 
L 329.540114 365.699024 
L 329.637764 365.922673 
L 329.68215 365.873024 
L 329.824186 365.361266 
L 330.188155 362.996719 
L 332.460736 346.83891 
L 333.117655 344.157719 
L 333.650291 342.809973 
L 334.085277 342.249181 
L 334.449245 342.101752 
L 334.822091 342.193723 
L 335.363605 342.594397 
L 336.473264 343.434918 
L 337.121305 343.615629 
L 337.920259 343.587849 
L 340.681091 343.331199 
L 351.786559 343.373143 
L 435.845455 343.373143 
L 435.845455 343.373143 
" style="fill:none;stroke:#ff0000;stroke-linecap:square;stroke-width:1.5;"/>
   </g>
   <g id="patch_3">
    <path d="M 63 384.48 
L 63 51.84 
" style="fill:none;stroke:#000000;stroke-linecap:square;stroke-linejoin:miter;stroke-width:0.8;"/>
   </g>
   <g id="patch_4">
    <path d="M 453.6 384.48 
L 453.6 51.84 
" style="fill:none;stroke:#000000;stroke-linecap:square;stroke-linejoin:miter;stroke-width:0.8;"/>
   </g>
   <g id="patch_5">
    <path d="M 63 384.48 
L 453.6 384.48 
" style="fill:none;stroke:#000000;stroke-linecap:square;stroke-linejoin:miter;stroke-width:0.8;"/>
   </g>
   <g id="patch_6">
    <path d="M 63 51.84 
L 453.6 51.84 
" style="fill:none;stroke:#000000;stroke-linecap:square;stroke-linejoin:miter;stroke-width:0.8;"/>
   </g>
   <g id="legend_1">
    <g id="patch_7">
     <path d="M 383.460938 89.19625 
L 446.6 89.19625 
Q 448.6 89.19625 448.6 87.19625 
L 448.6 58.84 
Q 448.6 56.84 446.6 56.84 
L 383.460938 56.84 
Q 381.460938 56.84 381.460938 58.84 
L 381.460938 87.19625 
Q 381.460938 89.19625 383.460938 89.19625 
z
" style="fill:#ffffff;opacity:0.8;stroke:#cccccc;stroke-linejoin:miter;"/>
    </g>
    <g id="line2d_15">
     <path d="M 385.460938 64.938437 
L 405.460938 64.938437 
" style="fill:none;stroke:#1f77b4;stroke-linecap:square;stroke-width:1.5;"/>
    </g>
    <g id="line2d_16"/>
    <g id="text_15">
     <!-- target -->
     <defs>
      <path d="M 41.109375 46.296875 
Q 39.59375 47.171875 37.8125 47.578125 
Q 36.03125 48 33.890625 48 
Q 26.265625 48 22.1875 43.046875 
Q 18.109375 38.09375 18.109375 28.8125 
L 18.109375 0 
L 9.078125 0 
L 9.078125 54.6875 
L 18.109375 54.6875 
L 18.109375 46.1875 
Q 20.953125 51.171875 25.484375 53.578125 
Q 30.03125 56 36.53125 56 
Q 37.453125 56 38.578125 55.875 
Q 39.703125 55.765625 41.0625 55.515625 
z
" id="DejaVuSans-72"/>
     </defs>
     <g transform="translate(413.460938 68.438437)scale(0.1 -0.1)">
      <use xlink:href="#DejaVuSans-74"/>
      <use x="39.208984" xlink:href="#DejaVuSans-61"/>
      <use x="100.488281" xlink:href="#DejaVuSans-72"/>
      <use x="141.585938" xlink:href="#DejaVuSans-67"/>
      <use x="205.0625" xlink:href="#DejaVuSans-65"/>
      <use x="266.585938" xlink:href="#DejaVuSans-74"/>
     </g>
    </g>
    <g id="line2d_17">
     <path d="M 385.460938 79.616562 
L 405.460938 79.616562 
" style="fill:none;stroke:#ff0000;stroke-linecap:square;stroke-width:1.5;"/>
    </g>
    <g id="line2d_18"/>
    <g id="text_16">
     <!-- model -->
     <defs>
      <path d="M 45.40625 46.390625 
L 45.40625 75.984375 
L 54.390625 75.984375 
L 54.390625 0 
L 45.40625 0 
L 45.40625 8.203125 
Q 42.578125 3.328125 38.25 0.953125 
Q 33.9375 -1.421875 27.875 -1.421875 
Q 17.96875 -1.421875 11.734375 6.484375 
Q 5.515625 14.40625 5.515625 27.296875 
Q 5.515625 40.1875 11.734375 48.09375 
Q 17.96875 56 27.875 56 
Q 33.9375 56 38.25 53.625 
Q 42.578125 51.265625 45.40625 46.390625 
z
M 14.796875 27.296875 
Q 14.796875 17.390625 18.875 11.75 
Q 22.953125 6.109375 30.078125 6.109375 
Q 37.203125 6.109375 41.296875 11.75 
Q 45.40625 17.390625 45.40625 27.296875 
Q 45.40625 37.203125 41.296875 42.84375 
Q 37.203125 48.484375 30.078125 48.484375 
Q 22.953125 48.484375 18.875 42.84375 
Q 14.796875 37.203125 14.796875 27.296875 
z
" id="DejaVuSans-64"/>
     </defs>
     <g transform="translate(413.460938 83.116562)scale(0.1 -0.1)">
      <use xlink:href="#DejaVuSans-6d"/>
      <use x="97.412109" xlink:href="#DejaVuSans-6f"/>
      <use x="158.59375" xlink:href="#DejaVuSans-64"/>
      <use x="222.070312" xlink:href="#DejaVuSans-65"/>
      <use x="283.59375" xlink:href="#DejaVuSans-6c"/>
     </g>
    </g>
   </g>
  </g>
 </g>
 <defs>
  <clipPath id="pebef8901e4">
   <rect height="332.64" width="390.6" x="63" y="51.84"/>
  </clipPath>
 </defs>
</svg>
