<?xml version="1.0" encoding="utf-8" standalone="no"?>
<!DOCTYPE svg PUBLIC "-//W3C//DTD SVG 1.1//EN"
  "http://www.w3.org/Graphics/SVG/1.1/DTD/svg11.dtd">
<!-- Created with matplotlib (https://matplotlib.org/) -->
<svg height="432pt" version="1.1" viewBox="0 0 504 432" width="504pt" xmlns="http://www.w3.org/2000/svg" xmlns:xlink="http://www.w3.org/1999/xlink">
 <defs>
  <style type="text/css">
*{stroke-linecap:butt;stroke-linejoin:round;}
  </style>
 </defs>
 <g id="figure_1">
  <g id="patch_1">
   <path d="M 0 432 
L 504 432 
L 504 0 
L 0 0 
z
" style="fill:#ffffff;"/>
  </g>
  <g id="axes_1">
   <g id="patch_2">
    <path d="M 63 384.48 
L 453.6 384.48 
L 453.6 51.84 
L 63 51.84 
z
" style="fill:#ffffff;"/>
   </g>
   <g id="matplotlib.axis_1">
    <g id="xtick_1">
     <g id="line2d_1">
      <defs>
       <path d="M 0 0 
L 0 3.5 
" id="m9b96464549" style="stroke:#000000;stroke-width:0.8;"/>
      </defs>
      <g>
       <use style="stroke:#000000;stroke-width:0.8;" x="80.754545" xlink:href="#m9b96464549" y="384.48"/>
      </g>
     </g>
     <g id="text_1">
      <!-- 0 -->
      <defs>
       <path d="M 31.78125 66.40625 
Q 24.171875 66.40625 20.328125 58.90625 
Q 16.5 51.421875 16.5 36.375 
Q 16.5 21.390625 20.328125 13.890625 
Q 24.171875 6.390625 31.78125 6.390625 
Q 39.453125 6.390625 43.28125 13.890625 
Q 47.125 21.390625 47.125 36.375 
Q 47.125 51.421875 43.28125 58.90625 
Q 39.453125 66.40625 31.78125 66.40625 
z
M 31.78125 74.21875 
Q 44.046875 74.21875 50.515625 64.515625 
Q 56.984375 54.828125 56.984375 36.375 
Q 56.984375 17.96875 50.515625 8.265625 
Q 44.046875 -1.421875 31.78125 -1.421875 
Q 19.53125 -1.421875 13.0625 8.265625 
Q 6.59375 17.96875 6.59375 36.375 
Q 6.59375 54.828125 13.0625 64.515625 
Q 19.53125 74.21875 31.78125 74.21875 
z
" id="DejaVuSans-48"/>
      </defs>
      <g transform="translate(77.573295 399.078438)scale(0.1 -0.1)">
       <use xlink:href="#DejaVuSans-48"/>
      </g>
     </g>
    </g>
    <g id="xtick_2">
     <g id="line2d_2">
      <g>
       <use style="stroke:#000000;stroke-width:0.8;" x="151.763044" xlink:href="#m9b96464549" y="384.48"/>
      </g>
     </g>
     <g id="text_2">
      <!-- 880 -->
      <defs>
       <path d="M 31.78125 34.625 
Q 24.75 34.625 20.71875 30.859375 
Q 16.703125 27.09375 16.703125 20.515625 
Q 16.703125 13.921875 20.71875 10.15625 
Q 24.75 6.390625 31.78125 6.390625 
Q 38.8125 6.390625 42.859375 10.171875 
Q 46.921875 13.96875 46.921875 20.515625 
Q 46.921875 27.09375 42.890625 30.859375 
Q 38.875 34.625 31.78125 34.625 
z
M 21.921875 38.8125 
Q 15.578125 40.375 12.03125 44.71875 
Q 8.5 49.078125 8.5 55.328125 
Q 8.5 64.0625 14.71875 69.140625 
Q 20.953125 74.21875 31.78125 74.21875 
Q 42.671875 74.21875 48.875 69.140625 
Q 55.078125 64.0625 55.078125 55.328125 
Q 55.078125 49.078125 51.53125 44.71875 
Q 48 40.375 41.703125 38.8125 
Q 48.828125 37.15625 52.796875 32.3125 
Q 56.78125 27.484375 56.78125 20.515625 
Q 56.78125 9.90625 50.3125 4.234375 
Q 43.84375 -1.421875 31.78125 -1.421875 
Q 19.734375 -1.421875 13.25 4.234375 
Q 6.78125 9.90625 6.78125 20.515625 
Q 6.78125 27.484375 10.78125 32.3125 
Q 14.796875 37.15625 21.921875 38.8125 
z
M 18.3125 54.390625 
Q 18.3125 48.734375 21.84375 45.5625 
Q 25.390625 42.390625 31.78125 42.390625 
Q 38.140625 42.390625 41.71875 45.5625 
Q 45.3125 48.734375 45.3125 54.390625 
Q 45.3125 60.0625 41.71875 63.234375 
Q 38.140625 66.40625 31.78125 66.40625 
Q 25.390625 66.40625 21.84375 63.234375 
Q 18.3125 60.0625 18.3125 54.390625 
z
" id="DejaVuSans-56"/>
      </defs>
      <g transform="translate(142.219294 399.078438)scale(0.1 -0.1)">
       <use xlink:href="#DejaVuSans-56"/>
       <use x="63.623047" xlink:href="#DejaVuSans-56"/>
       <use x="127.246094" xlink:href="#DejaVuSans-48"/>
      </g>
     </g>
    </g>
    <g id="xtick_3">
     <g id="line2d_3">
      <g>
       <use style="stroke:#000000;stroke-width:0.8;" x="222.771543" xlink:href="#m9b96464549" y="384.48"/>
      </g>
     </g>
     <g id="text_3">
      <!-- 1760 -->
      <defs>
       <path d="M 12.40625 8.296875 
L 28.515625 8.296875 
L 28.515625 63.921875 
L 10.984375 60.40625 
L 10.984375 69.390625 
L 28.421875 72.90625 
L 38.28125 72.90625 
L 38.28125 8.296875 
L 54.390625 8.296875 
L 54.390625 0 
L 12.40625 0 
z
" id="DejaVuSans-49"/>
       <path d="M 8.203125 72.90625 
L 55.078125 72.90625 
L 55.078125 68.703125 
L 28.609375 0 
L 18.3125 0 
L 43.21875 64.59375 
L 8.203125 64.59375 
z
" id="DejaVuSans-55"/>
       <path d="M 33.015625 40.375 
Q 26.375 40.375 22.484375 35.828125 
Q 18.609375 31.296875 18.609375 23.390625 
Q 18.609375 15.53125 22.484375 10.953125 
Q 26.375 6.390625 33.015625 6.390625 
Q 39.65625 6.390625 43.53125 10.953125 
Q 47.40625 15.53125 47.40625 23.390625 
Q 47.40625 31.296875 43.53125 35.828125 
Q 39.65625 40.375 33.015625 40.375 
z
M 52.59375 71.296875 
L 52.59375 62.3125 
Q 48.875 64.0625 45.09375 64.984375 
Q 41.3125 65.921875 37.59375 65.921875 
Q 27.828125 65.921875 22.671875 59.328125 
Q 17.53125 52.734375 16.796875 39.40625 
Q 19.671875 43.65625 24.015625 45.921875 
Q 28.375 48.1875 33.59375 48.1875 
Q 44.578125 48.1875 50.953125 41.515625 
Q 57.328125 34.859375 57.328125 23.390625 
Q 57.328125 12.15625 50.6875 5.359375 
Q 44.046875 -1.421875 33.015625 -1.421875 
Q 20.359375 -1.421875 13.671875 8.265625 
Q 6.984375 17.96875 6.984375 36.375 
Q 6.984375 53.65625 15.1875 63.9375 
Q 23.390625 74.21875 37.203125 74.21875 
Q 40.921875 74.21875 44.703125 73.484375 
Q 48.484375 72.75 52.59375 71.296875 
z
" id="DejaVuSans-54"/>
      </defs>
      <g transform="translate(210.046543 399.078438)scale(0.1 -0.1)">
       <use xlink:href="#DejaVuSans-49"/>
       <use x="63.623047" xlink:href="#DejaVuSans-55"/>
       <use x="127.246094" xlink:href="#DejaVuSans-54"/>
       <use x="190.869141" xlink:href="#DejaVuSans-48"/>
      </g>
     </g>
    </g>
    <g id="xtick_4">
     <g id="line2d_4">
      <g>
       <use style="stroke:#000000;stroke-width:0.8;" x="293.780042" xlink:href="#m9b96464549" y="384.48"/>
      </g>
     </g>
     <g id="text_4">
      <!-- 2640 -->
      <defs>
       <path d="M 19.1875 8.296875 
L 53.609375 8.296875 
L 53.609375 0 
L 7.328125 0 
L 7.328125 8.296875 
Q 12.9375 14.109375 22.625 23.890625 
Q 32.328125 33.6875 34.8125 36.53125 
Q 39.546875 41.84375 41.421875 45.53125 
Q 43.3125 49.21875 43.3125 52.78125 
Q 43.3125 58.59375 39.234375 62.25 
Q 35.15625 65.921875 28.609375 65.921875 
Q 23.96875 65.921875 18.8125 64.3125 
Q 13.671875 62.703125 7.8125 59.421875 
L 7.8125 69.390625 
Q 13.765625 71.78125 18.9375 73 
Q 24.125 74.21875 28.421875 74.21875 
Q 39.75 74.21875 46.484375 68.546875 
Q 53.21875 62.890625 53.21875 53.421875 
Q 53.21875 48.921875 51.53125 44.890625 
Q 49.859375 40.875 45.40625 35.40625 
Q 44.1875 33.984375 37.640625 27.21875 
Q 31.109375 20.453125 19.1875 8.296875 
z
" id="DejaVuSans-50"/>
       <path d="M 37.796875 64.3125 
L 12.890625 25.390625 
L 37.796875 25.390625 
z
M 35.203125 72.90625 
L 47.609375 72.90625 
L 47.609375 25.390625 
L 58.015625 25.390625 
L 58.015625 17.1875 
L 47.609375 17.1875 
L 47.609375 0 
L 37.796875 0 
L 37.796875 17.1875 
L 4.890625 17.1875 
L 4.890625 26.703125 
z
" id="DejaVuSans-52"/>
      </defs>
      <g transform="translate(281.055042 399.078438)scale(0.1 -0.1)">
       <use xlink:href="#DejaVuSans-50"/>
       <use x="63.623047" xlink:href="#DejaVuSans-54"/>
       <use x="127.246094" xlink:href="#DejaVuSans-52"/>
       <use x="190.869141" xlink:href="#DejaVuSans-48"/>
      </g>
     </g>
    </g>
    <g id="xtick_5">
     <g id="line2d_5">
      <g>
       <use style="stroke:#000000;stroke-width:0.8;" x="364.788541" xlink:href="#m9b96464549" y="384.48"/>
      </g>
     </g>
     <g id="text_5">
      <!-- 3520 -->
      <defs>
       <path d="M 40.578125 39.3125 
Q 47.65625 37.796875 51.625 33 
Q 55.609375 28.21875 55.609375 21.1875 
Q 55.609375 10.40625 48.1875 4.484375 
Q 40.765625 -1.421875 27.09375 -1.421875 
Q 22.515625 -1.421875 17.65625 -0.515625 
Q 12.796875 0.390625 7.625 2.203125 
L 7.625 11.71875 
Q 11.71875 9.328125 16.59375 8.109375 
Q 21.484375 6.890625 26.8125 6.890625 
Q 36.078125 6.890625 40.9375 10.546875 
Q 45.796875 14.203125 45.796875 21.1875 
Q 45.796875 27.640625 41.28125 31.265625 
Q 36.765625 34.90625 28.71875 34.90625 
L 20.21875 34.90625 
L 20.21875 43.015625 
L 29.109375 43.015625 
Q 36.375 43.015625 40.234375 45.921875 
Q 44.09375 48.828125 44.09375 54.296875 
Q 44.09375 59.90625 40.109375 62.90625 
Q 36.140625 65.921875 28.71875 65.921875 
Q 24.65625 65.921875 20.015625 65.03125 
Q 15.375 64.15625 9.8125 62.3125 
L 9.8125 71.09375 
Q 15.4375 72.65625 20.34375 73.4375 
Q 25.25 74.21875 29.59375 74.21875 
Q 40.828125 74.21875 47.359375 69.109375 
Q 53.90625 64.015625 53.90625 55.328125 
Q 53.90625 49.265625 50.4375 45.09375 
Q 46.96875 40.921875 40.578125 39.3125 
z
" id="DejaVuSans-51"/>
       <path d="M 10.796875 72.90625 
L 49.515625 72.90625 
L 49.515625 64.59375 
L 19.828125 64.59375 
L 19.828125 46.734375 
Q 21.96875 47.46875 24.109375 47.828125 
Q 26.265625 48.1875 28.421875 48.1875 
Q 40.625 48.1875 47.75 41.5 
Q 54.890625 34.8125 54.890625 23.390625 
Q 54.890625 11.625 47.5625 5.09375 
Q 40.234375 -1.421875 26.90625 -1.421875 
Q 22.3125 -1.421875 17.546875 -0.640625 
Q 12.796875 0.140625 7.71875 1.703125 
L 7.71875 11.625 
Q 12.109375 9.234375 16.796875 8.0625 
Q 21.484375 6.890625 26.703125 6.890625 
Q 35.15625 6.890625 40.078125 11.328125 
Q 45.015625 15.765625 45.015625 23.390625 
Q 45.015625 31 40.078125 35.4375 
Q 35.15625 39.890625 26.703125 39.890625 
Q 22.75 39.890625 18.8125 39.015625 
Q 14.890625 38.140625 10.796875 36.28125 
z
" id="DejaVuSans-53"/>
      </defs>
      <g transform="translate(352.063541 399.078438)scale(0.1 -0.1)">
       <use xlink:href="#DejaVuSans-51"/>
       <use x="63.623047" xlink:href="#DejaVuSans-53"/>
       <use x="127.246094" xlink:href="#DejaVuSans-50"/>
       <use x="190.869141" xlink:href="#DejaVuSans-48"/>
      </g>
     </g>
    </g>
    <g id="text_6">
     <!-- time [ms] -->
     <defs>
      <path d="M 18.3125 70.21875 
L 18.3125 54.6875 
L 36.8125 54.6875 
L 36.8125 47.703125 
L 18.3125 47.703125 
L 18.3125 18.015625 
Q 18.3125 11.328125 20.140625 9.421875 
Q 21.96875 7.515625 27.59375 7.515625 
L 36.8125 7.515625 
L 36.8125 0 
L 27.59375 0 
Q 17.1875 0 13.234375 3.875 
Q 9.28125 7.765625 9.28125 18.015625 
L 9.28125 47.703125 
L 2.6875 47.703125 
L 2.6875 54.6875 
L 9.28125 54.6875 
L 9.28125 70.21875 
z
" id="DejaVuSans-116"/>
      <path d="M 9.421875 54.6875 
L 18.40625 54.6875 
L 18.40625 0 
L 9.421875 0 
z
M 9.421875 75.984375 
L 18.40625 75.984375 
L 18.40625 64.59375 
L 9.421875 64.59375 
z
" id="DejaVuSans-105"/>
      <path d="M 52 44.1875 
Q 55.375 50.25 60.0625 53.125 
Q 64.75 56 71.09375 56 
Q 79.640625 56 84.28125 50.015625 
Q 88.921875 44.046875 88.921875 33.015625 
L 88.921875 0 
L 79.890625 0 
L 79.890625 32.71875 
Q 79.890625 40.578125 77.09375 44.375 
Q 74.3125 48.1875 68.609375 48.1875 
Q 61.625 48.1875 57.5625 43.546875 
Q 53.515625 38.921875 53.515625 30.90625 
L 53.515625 0 
L 44.484375 0 
L 44.484375 32.71875 
Q 44.484375 40.625 41.703125 44.40625 
Q 38.921875 48.1875 33.109375 48.1875 
Q 26.21875 48.1875 22.15625 43.53125 
Q 18.109375 38.875 18.109375 30.90625 
L 18.109375 0 
L 9.078125 0 
L 9.078125 54.6875 
L 18.109375 54.6875 
L 18.109375 46.1875 
Q 21.1875 51.21875 25.484375 53.609375 
Q 29.78125 56 35.6875 56 
Q 41.65625 56 45.828125 52.96875 
Q 50 49.953125 52 44.1875 
z
" id="DejaVuSans-109"/>
      <path d="M 56.203125 29.59375 
L 56.203125 25.203125 
L 14.890625 25.203125 
Q 15.484375 15.921875 20.484375 11.0625 
Q 25.484375 6.203125 34.421875 6.203125 
Q 39.59375 6.203125 44.453125 7.46875 
Q 49.3125 8.734375 54.109375 11.28125 
L 54.109375 2.78125 
Q 49.265625 0.734375 44.1875 -0.34375 
Q 39.109375 -1.421875 33.890625 -1.421875 
Q 20.796875 -1.421875 13.15625 6.1875 
Q 5.515625 13.8125 5.515625 26.8125 
Q 5.515625 40.234375 12.765625 48.109375 
Q 20.015625 56 32.328125 56 
Q 43.359375 56 49.78125 48.890625 
Q 56.203125 41.796875 56.203125 29.59375 
z
M 47.21875 32.234375 
Q 47.125 39.59375 43.09375 43.984375 
Q 39.0625 48.390625 32.421875 48.390625 
Q 24.90625 48.390625 20.390625 44.140625 
Q 15.875 39.890625 15.1875 32.171875 
z
" id="DejaVuSans-101"/>
      <path id="DejaVuSans-32"/>
      <path d="M 8.59375 75.984375 
L 29.296875 75.984375 
L 29.296875 69 
L 17.578125 69 
L 17.578125 -6.203125 
L 29.296875 -6.203125 
L 29.296875 -13.1875 
L 8.59375 -13.1875 
z
" id="DejaVuSans-91"/>
      <path d="M 44.28125 53.078125 
L 44.28125 44.578125 
Q 40.484375 46.53125 36.375 47.5 
Q 32.28125 48.484375 27.875 48.484375 
Q 21.1875 48.484375 17.84375 46.4375 
Q 14.5 44.390625 14.5 40.28125 
Q 14.5 37.15625 16.890625 35.375 
Q 19.28125 33.59375 26.515625 31.984375 
L 29.59375 31.296875 
Q 39.15625 29.25 43.1875 25.515625 
Q 47.21875 21.78125 47.21875 15.09375 
Q 47.21875 7.46875 41.1875 3.015625 
Q 35.15625 -1.421875 24.609375 -1.421875 
Q 20.21875 -1.421875 15.453125 -0.5625 
Q 10.6875 0.296875 5.421875 2 
L 5.421875 11.28125 
Q 10.40625 8.6875 15.234375 7.390625 
Q 20.0625 6.109375 24.8125 6.109375 
Q 31.15625 6.109375 34.5625 8.28125 
Q 37.984375 10.453125 37.984375 14.40625 
Q 37.984375 18.0625 35.515625 20.015625 
Q 33.0625 21.96875 24.703125 23.78125 
L 21.578125 24.515625 
Q 13.234375 26.265625 9.515625 29.90625 
Q 5.8125 33.546875 5.8125 39.890625 
Q 5.8125 47.609375 11.28125 51.796875 
Q 16.75 56 26.8125 56 
Q 31.78125 56 36.171875 55.265625 
Q 40.578125 54.546875 44.28125 53.078125 
z
" id="DejaVuSans-115"/>
      <path d="M 30.421875 75.984375 
L 30.421875 -13.1875 
L 9.71875 -13.1875 
L 9.71875 -6.203125 
L 21.390625 -6.203125 
L 21.390625 69 
L 9.71875 69 
L 9.71875 75.984375 
z
" id="DejaVuSans-93"/>
     </defs>
     <g transform="translate(234.038281 412.756563)scale(0.1 -0.1)">
      <use xlink:href="#DejaVuSans-116"/>
      <use x="39.208984" xlink:href="#DejaVuSans-105"/>
      <use x="66.992188" xlink:href="#DejaVuSans-109"/>
      <use x="164.404297" xlink:href="#DejaVuSans-101"/>
      <use x="225.927734" xlink:href="#DejaVuSans-32"/>
      <use x="257.714844" xlink:href="#DejaVuSans-91"/>
      <use x="296.728516" xlink:href="#DejaVuSans-109"/>
      <use x="394.140625" xlink:href="#DejaVuSans-115"/>
      <use x="446.240234" xlink:href="#DejaVuSans-93"/>
     </g>
    </g>
   </g>
   <g id="matplotlib.axis_2">
    <g id="ytick_1">
     <g id="line2d_6">
      <defs>
       <path d="M 0 0 
L -3.5 0 
" id="m8521ab4205" style="stroke:#000000;stroke-width:0.8;"/>
      </defs>
      <g>
       <use style="stroke:#000000;stroke-width:0.8;" x="63" xlink:href="#m8521ab4205" y="367.064553"/>
      </g>
     </g>
     <g id="text_7">
      <!-- −125 -->
      <defs>
       <path d="M 10.59375 35.5 
L 73.1875 35.5 
L 73.1875 27.203125 
L 10.59375 27.203125 
z
" id="DejaVuSans-8722"/>
      </defs>
      <g transform="translate(28.532812 370.863772)scale(0.1 -0.1)">
       <use xlink:href="#DejaVuSans-8722"/>
       <use x="83.789062" xlink:href="#DejaVuSans-49"/>
       <use x="147.412109" xlink:href="#DejaVuSans-50"/>
       <use x="211.035156" xlink:href="#DejaVuSans-53"/>
      </g>
     </g>
    </g>
    <g id="ytick_2">
     <g id="line2d_7">
      <g>
       <use style="stroke:#000000;stroke-width:0.8;" x="63" xlink:href="#m8521ab4205" y="325.480377"/>
      </g>
     </g>
     <g id="text_8">
      <!-- −100 -->
      <g transform="translate(28.532812 329.279596)scale(0.1 -0.1)">
       <use xlink:href="#DejaVuSans-8722"/>
       <use x="83.789062" xlink:href="#DejaVuSans-49"/>
       <use x="147.412109" xlink:href="#DejaVuSans-48"/>
       <use x="211.035156" xlink:href="#DejaVuSans-48"/>
      </g>
     </g>
    </g>
    <g id="ytick_3">
     <g id="line2d_8">
      <g>
       <use style="stroke:#000000;stroke-width:0.8;" x="63" xlink:href="#m8521ab4205" y="283.896201"/>
      </g>
     </g>
     <g id="text_9">
      <!-- −75 -->
      <g transform="translate(34.895313 287.69542)scale(0.1 -0.1)">
       <use xlink:href="#DejaVuSans-8722"/>
       <use x="83.789062" xlink:href="#DejaVuSans-55"/>
       <use x="147.412109" xlink:href="#DejaVuSans-53"/>
      </g>
     </g>
    </g>
    <g id="ytick_4">
     <g id="line2d_9">
      <g>
       <use style="stroke:#000000;stroke-width:0.8;" x="63" xlink:href="#m8521ab4205" y="242.312025"/>
      </g>
     </g>
     <g id="text_10">
      <!-- −50 -->
      <g transform="translate(34.895313 246.111243)scale(0.1 -0.1)">
       <use xlink:href="#DejaVuSans-8722"/>
       <use x="83.789062" xlink:href="#DejaVuSans-53"/>
       <use x="147.412109" xlink:href="#DejaVuSans-48"/>
      </g>
     </g>
    </g>
    <g id="ytick_5">
     <g id="line2d_10">
      <g>
       <use style="stroke:#000000;stroke-width:0.8;" x="63" xlink:href="#m8521ab4205" y="200.727848"/>
      </g>
     </g>
     <g id="text_11">
      <!-- −25 -->
      <g transform="translate(34.895313 204.527067)scale(0.1 -0.1)">
       <use xlink:href="#DejaVuSans-8722"/>
       <use x="83.789062" xlink:href="#DejaVuSans-50"/>
       <use x="147.412109" xlink:href="#DejaVuSans-53"/>
      </g>
     </g>
    </g>
    <g id="ytick_6">
     <g id="line2d_11">
      <g>
       <use style="stroke:#000000;stroke-width:0.8;" x="63" xlink:href="#m8521ab4205" y="159.143672"/>
      </g>
     </g>
     <g id="text_12">
      <!-- 0 -->
      <g transform="translate(49.6375 162.942891)scale(0.1 -0.1)">
       <use xlink:href="#DejaVuSans-48"/>
      </g>
     </g>
    </g>
    <g id="ytick_7">
     <g id="line2d_12">
      <g>
       <use style="stroke:#000000;stroke-width:0.8;" x="63" xlink:href="#m8521ab4205" y="117.559496"/>
      </g>
     </g>
     <g id="text_13">
      <!-- 25 -->
      <g transform="translate(43.275 121.358715)scale(0.1 -0.1)">
       <use xlink:href="#DejaVuSans-50"/>
       <use x="63.623047" xlink:href="#DejaVuSans-53"/>
      </g>
     </g>
    </g>
    <g id="ytick_8">
     <g id="line2d_13">
      <g>
       <use style="stroke:#000000;stroke-width:0.8;" x="63" xlink:href="#m8521ab4205" y="75.975319"/>
      </g>
     </g>
     <g id="text_14">
      <!-- 50 -->
      <g transform="translate(43.275 79.774538)scale(0.1 -0.1)">
       <use xlink:href="#DejaVuSans-53"/>
       <use x="63.623047" xlink:href="#DejaVuSans-48"/>
      </g>
     </g>
    </g>
    <g id="text_15">
     <!-- voltage [mV] -->
     <defs>
      <path d="M 2.984375 54.6875 
L 12.5 54.6875 
L 29.59375 8.796875 
L 46.6875 54.6875 
L 56.203125 54.6875 
L 35.6875 0 
L 23.484375 0 
z
" id="DejaVuSans-118"/>
      <path d="M 30.609375 48.390625 
Q 23.390625 48.390625 19.1875 42.75 
Q 14.984375 37.109375 14.984375 27.296875 
Q 14.984375 17.484375 19.15625 11.84375 
Q 23.34375 6.203125 30.609375 6.203125 
Q 37.796875 6.203125 41.984375 11.859375 
Q 46.1875 17.53125 46.1875 27.296875 
Q 46.1875 37.015625 41.984375 42.703125 
Q 37.796875 48.390625 30.609375 48.390625 
z
M 30.609375 56 
Q 42.328125 56 49.015625 48.375 
Q 55.71875 40.765625 55.71875 27.296875 
Q 55.71875 13.875 49.015625 6.21875 
Q 42.328125 -1.421875 30.609375 -1.421875 
Q 18.84375 -1.421875 12.171875 6.21875 
Q 5.515625 13.875 5.515625 27.296875 
Q 5.515625 40.765625 12.171875 48.375 
Q 18.84375 56 30.609375 56 
z
" id="DejaVuSans-111"/>
      <path d="M 9.421875 75.984375 
L 18.40625 75.984375 
L 18.40625 0 
L 9.421875 0 
z
" id="DejaVuSans-108"/>
      <path d="M 34.28125 27.484375 
Q 23.390625 27.484375 19.1875 25 
Q 14.984375 22.515625 14.984375 16.5 
Q 14.984375 11.71875 18.140625 8.90625 
Q 21.296875 6.109375 26.703125 6.109375 
Q 34.1875 6.109375 38.703125 11.40625 
Q 43.21875 16.703125 43.21875 25.484375 
L 43.21875 27.484375 
z
M 52.203125 31.203125 
L 52.203125 0 
L 43.21875 0 
L 43.21875 8.296875 
Q 40.140625 3.328125 35.546875 0.953125 
Q 30.953125 -1.421875 24.3125 -1.421875 
Q 15.921875 -1.421875 10.953125 3.296875 
Q 6 8.015625 6 15.921875 
Q 6 25.140625 12.171875 29.828125 
Q 18.359375 34.515625 30.609375 34.515625 
L 43.21875 34.515625 
L 43.21875 35.40625 
Q 43.21875 41.609375 39.140625 45 
Q 35.0625 48.390625 27.6875 48.390625 
Q 23 48.390625 18.546875 47.265625 
Q 14.109375 46.140625 10.015625 43.890625 
L 10.015625 52.203125 
Q 14.9375 54.109375 19.578125 55.046875 
Q 24.21875 56 28.609375 56 
Q 40.484375 56 46.34375 49.84375 
Q 52.203125 43.703125 52.203125 31.203125 
z
" id="DejaVuSans-97"/>
      <path d="M 45.40625 27.984375 
Q 45.40625 37.75 41.375 43.109375 
Q 37.359375 48.484375 30.078125 48.484375 
Q 22.859375 48.484375 18.828125 43.109375 
Q 14.796875 37.75 14.796875 27.984375 
Q 14.796875 18.265625 18.828125 12.890625 
Q 22.859375 7.515625 30.078125 7.515625 
Q 37.359375 7.515625 41.375 12.890625 
Q 45.40625 18.265625 45.40625 27.984375 
z
M 54.390625 6.78125 
Q 54.390625 -7.171875 48.1875 -13.984375 
Q 42 -20.796875 29.203125 -20.796875 
Q 24.46875 -20.796875 20.265625 -20.09375 
Q 16.0625 -19.390625 12.109375 -17.921875 
L 12.109375 -9.1875 
Q 16.0625 -11.328125 19.921875 -12.34375 
Q 23.78125 -13.375 27.78125 -13.375 
Q 36.625 -13.375 41.015625 -8.765625 
Q 45.40625 -4.15625 45.40625 5.171875 
L 45.40625 9.625 
Q 42.625 4.78125 38.28125 2.390625 
Q 33.9375 0 27.875 0 
Q 17.828125 0 11.671875 7.65625 
Q 5.515625 15.328125 5.515625 27.984375 
Q 5.515625 40.671875 11.671875 48.328125 
Q 17.828125 56 27.875 56 
Q 33.9375 56 38.28125 53.609375 
Q 42.625 51.21875 45.40625 46.390625 
L 45.40625 54.6875 
L 54.390625 54.6875 
z
" id="DejaVuSans-103"/>
      <path d="M 28.609375 0 
L 0.78125 72.90625 
L 11.078125 72.90625 
L 34.1875 11.53125 
L 57.328125 72.90625 
L 67.578125 72.90625 
L 39.796875 0 
z
" id="DejaVuSans-86"/>
     </defs>
     <g transform="translate(22.453125 250.624062)rotate(-90)scale(0.1 -0.1)">
      <use xlink:href="#DejaVuSans-118"/>
      <use x="59.179688" xlink:href="#DejaVuSans-111"/>
      <use x="120.361328" xlink:href="#DejaVuSans-108"/>
      <use x="148.144531" xlink:href="#DejaVuSans-116"/>
      <use x="187.353516" xlink:href="#DejaVuSans-97"/>
      <use x="248.632812" xlink:href="#DejaVuSans-103"/>
      <use x="312.109375" xlink:href="#DejaVuSans-101"/>
      <use x="373.632812" xlink:href="#DejaVuSans-32"/>
      <use x="405.419922" xlink:href="#DejaVuSans-91"/>
      <use x="444.433594" xlink:href="#DejaVuSans-109"/>
      <use x="541.845703" xlink:href="#DejaVuSans-86"/>
      <use x="610.253906" xlink:href="#DejaVuSans-93"/>
     </g>
    </g>
   </g>
   <g id="line2d_14">
    <path clip-path="url(#p3fa70bda50)" d="M 80.754545 256.444147 
L 83.385088 256.362928 
L 83.417364 256.281709 
L 83.465779 256.444147 
L 83.498056 256.362928 
L 83.514194 256.444147 
L 83.594885 256.362928 
L 83.723992 256.281709 
L 84.547045 256.362928 
L 84.676151 256.444147 
L 84.96664 256.362928 
L 85.095747 256.281709 
L 85.176438 256.362928 
L 85.208715 256.281709 
L 85.337821 256.362928 
L 85.35396 256.444147 
L 85.402374 256.281709 
L 85.434651 256.281709 
L 86.322257 256.362928 
L 86.451364 256.444147 
L 87.419661 256.525366 
L 87.532629 256.606585 
L 87.581044 256.525366 
L 87.645598 256.606585 
L 88.694587 256.687804 
L 88.807555 256.769023 
L 88.85597 256.687804 
L 89.049629 247.428828 
L 89.501501 238.738384 
L 90.356831 227.44893 
L 91.196022 220.057993 
L 91.470373 218.108735 
L 91.777001 216.078257 
L 92.551639 212.748274 
L 92.583916 212.667055 
L 92.793714 212.179741 
L 92.82599 212.098522 
L 93.11648 211.205112 
L 93.310139 211.123892 
L 93.503799 210.717797 
L 93.552214 210.636578 
L 93.745873 210.230482 
L 93.858841 210.149263 
L 94.020224 209.905606 
L 94.213884 209.824387 
L 94.391405 209.499511 
L 95.843851 209.418291 
L 95.989096 209.093415 
L 96.005234 209.174634 
L 96.118202 209.093415 
L 96.247309 209.012196 
L 96.553936 208.930977 
L 96.683043 208.849758 
L 96.892841 209.337072 
L 96.957394 209.418291 
L 97.167192 209.905606 
L 97.393128 209.824387 
L 97.425404 209.743168 
L 97.506096 209.824387 
L 97.845 209.743168 
L 97.990245 209.58073 
L 98.006383 209.661949 
L 98.03866 209.499511 
L 98.103213 209.58073 
L 98.264596 209.661949 
L 98.296872 209.743168 
L 98.361426 209.58073 
L 98.50667 209.661949 
L 98.538947 209.743168 
L 98.571223 209.58073 
L 98.619638 209.661949 
L 99.119925 209.58073 
L 99.26517 209.418291 
L 99.959117 209.337072 
L 100.055947 209.255853 
L 100.072085 209.337072 
L 100.1205 209.418291 
L 100.362574 210.799016 
L 100.604649 211.448769 
L 100.653063 211.529988 
L 100.733755 211.611207 
L 100.766031 211.529988 
L 100.943553 211.448769 
L 101.056521 211.205112 
L 101.088797 211.286331 
L 101.217904 211.205112 
L 101.395425 210.880235 
L 101.427702 210.961454 
L 101.508393 210.880235 
L 101.556808 210.799016 
L 101.702053 210.636578 
L 101.831159 210.555359 
L 101.960265 210.47414 
L 102.040957 210.555359 
L 102.073233 210.47414 
L 102.153925 210.392921 
L 102.331446 210.068044 
L 102.347584 210.149263 
L 102.379861 209.986825 
L 102.428276 210.068044 
L 102.589659 209.824387 
L 102.718765 209.905606 
L 102.993116 209.824387 
L 103.057669 209.58073 
L 103.122223 209.743168 
L 103.235191 209.824387 
L 103.251329 209.905606 
L 103.33202 209.743168 
L 103.348159 209.824387 
L 103.461127 209.661949 
L 103.477265 209.743168 
L 103.687063 209.661949 
L 103.816169 209.58073 
L 104.09052 209.499511 
L 104.18735 209.418291 
L 104.203488 209.499511 
L 104.38101 209.418291 
L 104.526254 209.093415 
L 104.542393 209.174634 
L 104.639222 209.093415 
L 104.687637 209.012196 
L 104.75219 209.093415 
L 104.897435 209.012196 
L 105.026541 208.930977 
L 105.236339 209.012196 
L 105.317031 209.093415 
L 105.349307 209.012196 
L 106.107807 208.930977 
L 106.123945 208.849758 
L 106.17236 209.012196 
L 106.220775 208.930977 
L 106.882445 209.012196 
L 107.011552 209.093415 
L 107.705498 209.012196 
L 107.737775 208.930977 
L 107.78619 209.093415 
L 107.802328 209.093415 
L 108.383307 209.012196 
L 108.528551 208.849758 
L 108.576966 208.768539 
L 108.706073 208.68732 
L 109.254775 208.6061 
L 109.335466 208.524881 
L 109.367743 208.6061 
L 109.690509 208.524881 
L 109.819615 208.362443 
L 109.916445 208.443662 
L 109.932583 208.362443 
L 110.416732 208.443662 
L 110.561977 208.6061 
L 110.691083 208.524881 
L 111.368891 208.6061 
L 111.530274 208.849758 
L 112.256498 208.930977 
L 112.321051 208.849758 
L 112.385604 209.012196 
L 112.821338 209.093415 
L 112.837476 209.174634 
L 112.869753 209.012196 
L 112.934306 209.093415 
L 113.17638 209.174634 
L 113.337763 209.418291 
L 113.434593 209.499511 
L 113.579838 209.661949 
L 113.789636 209.58073 
L 113.870327 209.499511 
L 113.902604 209.58073 
L 114.160817 209.661949 
L 114.257646 209.743168 
L 114.273785 209.661949 
L 114.386753 209.499511 
L 114.402891 209.58073 
L 114.483582 209.499511 
L 114.580412 209.337072 
L 114.612689 209.418291 
L 114.806348 209.337072 
L 114.935455 209.255853 
L 115.35505 209.174634 
L 115.484157 209.093415 
L 115.532572 209.174634 
L 115.580986 209.093415 
L 115.710093 209.012196 
L 115.839199 208.930977 
L 115.984444 208.768539 
L 116.21038 208.68732 
L 116.339486 208.6061 
L 116.484731 208.524881 
L 116.629976 208.362443 
L 116.710667 208.281224 
L 116.742944 208.200005 
L 116.823635 208.281224 
L 117.017295 208.362443 
L 117.033433 208.443662 
L 117.130263 208.362443 
L 117.259369 208.443662 
L 117.501444 209.093415 
L 117.549858 209.174634 
L 117.743518 209.58073 
L 117.921039 209.661949 
L 118.050146 209.743168 
L 118.647263 209.661949 
L 118.776369 209.58073 
L 119.05072 209.499511 
L 119.131411 209.418291 
L 119.163688 209.499511 
L 119.518731 209.418291 
L 119.663975 209.255853 
L 119.80922 209.174634 
L 119.938326 209.093415 
L 120.002879 209.174634 
L 120.051294 209.093415 
L 120.228815 208.768539 
L 120.438613 208.68732 
L 120.56772 208.6061 
L 120.664549 208.524881 
L 120.696826 208.443662 
L 120.745241 208.6061 
L 120.761379 208.6061 
L 120.858209 208.68732 
L 120.874347 208.6061 
L 121.116422 208.68732 
L 121.261666 208.849758 
L 121.471464 208.768539 
L 121.616709 208.6061 
L 121.778092 208.524881 
L 121.939475 208.281224 
L 122.116996 208.200005 
L 122.246102 208.118786 
L 122.407485 208.362443 
L 122.423624 208.281224 
L 122.520453 208.362443 
L 122.697975 208.281224 
L 122.810943 208.118786 
L 122.827081 208.200005 
L 123.133709 208.281224 
L 123.278953 208.443662 
L 123.553304 208.524881 
L 123.682411 208.68732 
L 123.843794 208.443662 
L 123.924485 208.524881 
L 123.940623 208.6061 
L 124.005177 208.443662 
L 124.021315 208.443662 
L 124.360219 208.362443 
L 124.489325 208.281224 
L 124.682985 208.362443 
L 124.844368 208.6061 
L 125.280102 208.68732 
L 125.360793 208.849758 
L 125.39307 208.768539 
L 125.522176 208.68732 
L 125.764251 208.6061 
L 125.780389 208.524881 
L 125.877219 208.6061 
L 126.038602 208.524881 
L 126.167708 208.443662 
L 126.329091 208.362443 
L 126.458197 208.281224 
L 126.587304 208.362443 
L 126.651857 208.443662 
L 126.700272 208.362443 
L 127.136006 208.281224 
L 127.152144 208.200005 
L 127.232836 208.281224 
L 127.248974 208.362443 
L 127.297389 208.200005 
L 127.329665 208.200005 
L 127.394219 208.281224 
L 127.442633 208.443662 
L 127.507187 208.362443 
L 127.636293 208.281224 
L 127.765399 208.362443 
L 127.975197 208.281224 
L 128.120442 208.118786 
L 128.217272 208.037567 
L 128.346378 207.956348 
L 128.410931 207.875129 
L 128.540038 207.79391 
L 129.08874 207.71269 
L 129.137154 207.631471 
L 129.201708 207.71269 
L 129.605165 207.79391 
L 129.734271 207.875129 
L 129.831101 207.79391 
L 130.024761 207.387814 
L 130.137729 207.306595 
L 130.282973 207.144157 
L 130.525048 207.062938 
L 130.541186 206.981719 
L 130.589601 207.144157 
L 130.621878 207.062938 
L 130.670292 207.144157 
L 130.734846 207.062938 
L 131.07375 206.981719 
L 131.218995 206.81928 
L 132.477782 206.900499 
L 132.606888 206.981719 
L 132.768271 206.900499 
L 132.816686 206.81928 
L 132.881239 206.900499 
L 133.268558 206.981719 
L 133.397664 207.062938 
L 133.413803 207.062938 
L 133.559047 207.469033 
L 133.591324 207.387814 
L 133.639739 207.631471 
L 133.655877 207.550252 
L 133.768845 207.631471 
L 133.962505 208.037567 
L 133.994781 208.118786 
L 134.156164 208.443662 
L 134.285271 208.362443 
L 134.430515 208.443662 
L 134.559622 208.6061 
L 134.688728 208.524881 
L 134.979217 208.443662 
L 135.108324 208.362443 
L 135.33426 208.281224 
L 135.414951 208.118786 
L 135.463366 208.200005 
L 135.818409 208.118786 
L 135.834547 208.037567 
L 135.866824 208.200005 
L 135.931377 208.118786 
L 136.044345 208.037567 
L 136.060483 207.956348 
L 136.157313 208.037567 
L 136.883536 207.956348 
L 137.061057 207.631471 
L 137.174025 207.550252 
L 137.206302 207.469033 
L 137.238579 207.631471 
L 137.270855 207.631471 
L 137.367685 207.550252 
L 137.432238 207.387814 
L 137.480653 207.550252 
L 137.690451 207.469033 
L 137.835696 207.306595 
L 137.98094 207.469033 
L 138.110047 207.387814 
L 138.206876 207.144157 
L 138.255291 207.225376 
L 138.707163 207.144157 
L 138.83627 207.062938 
L 138.900823 207.144157 
L 138.949238 207.062938 
L 139.126759 207.144157 
L 139.255866 207.225376 
L 139.30428 207.144157 
L 139.368834 207.225376 
L 139.772291 207.144157 
L 139.901397 206.981719 
L 139.998227 207.062938 
L 140.014365 206.981719 
L 140.756727 206.900499 
L 140.91811 206.656842 
L 141.047216 206.575623 
L 141.127908 206.494404 
L 141.160184 206.575623 
L 141.434535 207.387814 
L 141.902546 207.306595 
L 142.031652 207.225376 
L 142.14462 207.144157 
L 142.273727 207.062938 
L 142.386695 207.144157 
L 142.515801 207.062938 
L 142.80629 206.981719 
L 142.951535 206.81928 
L 144.339429 206.900499 
L 144.468535 207.225376 
L 144.484673 207.144157 
L 144.581503 207.062938 
L 144.597641 207.144157 
L 144.678333 207.225376 
L 144.823577 207.387814 
L 145.340003 207.306595 
L 145.485247 207.144157 
L 145.64663 207.062938 
L 145.775737 206.981719 
L 146.308301 206.900499 
L 146.388992 206.738061 
L 146.437407 206.81928 
L 147.244322 206.900499 
L 147.26046 206.981719 
L 147.35729 206.900499 
L 147.550949 206.81928 
L 147.680056 206.738061 
L 147.809162 206.81928 
L 147.938268 206.738061 
L 147.970545 206.656842 
L 148.051236 206.738061 
L 148.180343 206.81928 
L 148.325587 206.981719 
L 148.374002 206.900499 
L 148.503109 206.81928 
L 148.632215 206.900499 
L 148.858151 206.81928 
L 148.890428 206.656842 
L 148.987258 206.738061 
L 149.100226 206.81928 
L 149.116364 206.900499 
L 149.164779 206.738061 
L 149.213194 206.81928 
L 149.358438 206.656842 
L 149.697343 206.738061 
L 149.826449 206.81928 
L 149.971694 206.81928 
L 150.00397 206.656842 
L 150.084662 206.738061 
L 150.407427 206.81928 
L 150.601087 207.306595 
L 150.76247 207.062938 
L 151.085236 207.144157 
L 151.149789 207.225376 
L 151.198204 207.144157 
L 151.32731 207.062938 
L 151.343449 207.144157 
L 151.375725 206.981719 
L 151.440278 207.062938 
L 151.811459 206.981719 
L 151.843736 206.900499 
L 151.924427 206.981719 
L 152.424714 206.900499 
L 152.586097 206.656842 
L 152.908863 206.575623 
L 152.94114 206.494404 
L 153.005693 206.656842 
L 153.054108 206.575623 
L 153.070246 206.494404 
L 153.150938 206.656842 
L 153.328459 206.575623 
L 153.360736 206.494404 
L 153.40915 206.575623 
L 153.60281 215.8346 
L 154.054682 224.443824 
L 154.425863 229.723065 
L 154.861597 234.758649 
L 154.990703 235.976935 
L 155.265054 238.494727 
L 155.765342 242.474463 
L 155.991278 244.180064 
L 156.314044 246.372979 
L 156.927299 250.027839 
L 157.137097 251.083687 
L 158.460437 257.175119 
L 158.492713 257.256338 
L 158.815479 258.312186 
L 158.847756 258.393405 
L 159.154383 259.368034 
L 159.18666 259.449254 
L 159.428735 260.099006 
L 159.461011 260.180225 
L 159.735362 260.992416 
L 159.816054 261.073635 
L 160.025851 261.56095 
L 160.058128 261.642169 
L 160.284064 262.210703 
L 160.348617 262.291922 
L 160.542277 262.698017 
L 160.60683 262.779236 
L 160.80049 263.266551 
L 160.816628 263.185332 
L 160.865043 263.34777 
L 160.897319 263.34777 
L 160.978011 263.428989 
L 161.139394 263.672646 
L 161.300777 263.753866 
L 161.478298 264.078742 
L 161.526713 263.997523 
L 161.591266 264.078742 
L 161.752649 264.322399 
L 161.897894 264.403618 
L 162.043138 264.566056 
L 162.091553 264.647276 
L 162.236798 264.809714 
L 162.285213 264.890933 
L 162.317489 264.972152 
L 162.398181 264.890933 
L 162.462734 264.972152 
L 162.607979 265.13459 
L 162.995298 265.215809 
L 163.124404 265.297028 
L 163.318064 265.378247 
L 163.431032 265.540686 
L 163.44717 265.459467 
L 163.527861 265.540686 
L 163.656968 265.621905 
L 163.931319 265.703124 
L 164.060425 265.784343 
L 164.544574 265.703124 
L 164.625266 265.621905 
L 164.657542 265.703124 
L 165.997021 265.621905 
L 166.126127 265.459467 
L 166.206818 265.540686 
L 166.239095 265.459467 
L 166.432755 265.378247 
L 166.577999 265.215809 
L 166.900765 265.13459 
L 167.029872 265.053371 
L 167.304223 264.972152 
L 167.465606 264.728495 
L 167.659265 264.647276 
L 167.788371 264.566056 
L 168.014308 264.484837 
L 168.175691 264.24118 
L 168.191829 264.322399 
L 168.288659 264.24118 
L 168.450042 264.159961 
L 168.56301 264.078742 
L 168.579148 264.159961 
L 168.627563 263.997523 
L 168.659839 263.997523 
L 168.837361 263.916304 
L 168.853499 263.835085 
L 168.885775 263.997523 
L 168.950329 263.916304 
L 169.12785 263.835085 
L 169.273095 263.672646 
L 169.418339 263.591427 
L 169.499031 263.510208 
L 169.611999 257.175119 
L 169.708829 257.256338 
L 169.724967 257.337557 
L 169.821797 257.256338 
L 170.951477 257.337557 
L 170.967616 257.418776 
L 171.064445 257.337557 
L 171.790669 257.418776 
L 171.822945 257.499995 
L 171.903637 257.418776 
L 172.048881 257.256338 
L 172.177988 257.337557 
L 172.387786 257.256338 
L 172.516892 257.175119 
L 173.162424 257.0939 
L 173.307668 256.931462 
L 174.518041 257.012681 
L 174.647147 257.0939 
L 175.115157 257.175119 
L 175.147434 257.256338 
L 175.228126 257.175119 
L 175.389508 257.256338 
L 175.405647 257.337557 
L 175.502477 257.256338 
L 175.615445 257.337557 
L 175.712274 257.418776 
L 175.728413 257.337557 
L 175.954349 257.418776 
L 176.083455 257.499995 
L 176.099593 257.418776 
L 176.180285 257.581214 
L 176.196423 257.499995 
L 176.664434 257.418776 
L 176.79354 257.337557 
L 176.938785 257.256338 
L 177.019476 257.337557 
L 177.067891 257.175119 
L 177.213136 257.256338 
L 177.293827 257.337557 
L 177.326104 257.256338 
L 177.616593 257.256338 
L 177.810253 245.154693 
L 178.391231 230.941351 
L 179.149731 217.865077 
L 179.82754 209.255853 
L 180.39238 204.626365 
L 180.924944 202.514668 
L 180.95722 202.433449 
L 181.15088 202.027354 
L 181.312263 201.946135 
L 181.522061 201.45882 
L 181.538199 201.45882 
L 181.683444 201.052725 
L 181.764135 200.971506 
L 181.90938 200.809067 
L 182.328975 200.727848 
L 182.522635 200.321753 
L 182.66788 200.240534 
L 182.861539 199.834438 
L 182.926092 199.915657 
L 182.974507 199.996876 
L 183.03906 199.915657 
L 183.103614 199.834438 
L 183.264997 199.590781 
L 183.313411 199.509562 
L 183.539348 198.941028 
L 183.620039 198.859809 
L 183.829837 198.372495 
L 183.89439 198.291276 
L 184.184879 197.397865 
L 184.233294 197.479085 
L 184.297847 197.397865 
L 184.539922 196.748113 
L 184.814273 196.666894 
L 184.927241 196.179579 
L 184.991794 196.342017 
L 185.072486 196.260798 
L 185.250007 195.692264 
L 185.282283 195.773484 
L 185.346837 195.692264 
L 185.669602 194.636416 
L 185.718017 194.555197 
L 186.411964 190.494242 
L 186.428102 190.006928 
L 186.444241 184.971344 
L 186.492656 74.594595 
L 186.573347 132.341371 
L 186.73473 197.966399 
L 186.944528 200.078096 
L 188.05807 210.311701 
L 188.074208 210.311701 
L 188.25173 211.042673 
L 188.477666 211.611207 
L 188.526081 211.692426 
L 188.752017 212.26096 
L 188.800432 212.342179 
L 188.961815 212.585836 
L 189.026368 212.504617 
L 189.058644 212.585836 
L 189.187751 212.667055 
L 189.720315 212.585836 
L 189.865559 212.423398 
L 190.091495 212.342179 
L 190.23674 212.179741 
L 190.285155 212.098522 
L 190.414261 211.936083 
L 190.4304 212.017302 
L 190.494953 211.854864 
L 190.511091 211.854864 
L 190.591783 211.773645 
L 190.720889 211.692426 
L 190.89841 211.611207 
L 191.027516 211.529988 
L 191.140485 211.448769 
L 191.301868 211.205112 
L 191.46325 211.123892 
L 191.640772 210.799016 
L 192.205612 210.717797 
L 192.366995 210.47414 
L 192.463825 210.392921 
L 192.625208 210.068044 
L 192.754314 210.149263 
L 192.835006 210.068044 
L 192.899559 209.986825 
L 192.947974 210.068044 
L 193.238463 209.986825 
L 193.383708 209.824387 
L 193.512814 209.743168 
L 193.658059 209.58073 
L 193.787165 209.661949 
L 193.964686 209.337072 
L 194.013101 209.418291 
L 194.061516 209.255853 
L 194.448835 209.174634 
L 194.59408 209.012196 
L 194.723186 208.930977 
L 194.900707 208.6061 
L 194.981399 208.524881 
L 195.126643 208.362443 
L 195.271888 208.281224 
L 195.35258 208.118786 
L 195.400994 208.200005 
L 195.465548 208.118786 
L 195.610792 207.956348 
L 195.885143 207.875129 
L 196.01425 207.79391 
L 196.094941 207.71269 
L 196.256324 207.387814 
L 196.353154 207.469033 
L 196.369292 207.387814 
L 196.708196 207.306595 
L 196.837303 207.225376 
L 196.950271 207.306595 
L 196.982547 207.225376 
L 197.063239 207.306595 
L 197.14393 207.225376 
L 197.160069 207.144157 
L 197.224622 207.306595 
L 197.24076 207.306595 
L 197.402143 207.387814 
L 197.579664 207.875129 
L 197.595803 207.79391 
L 197.644218 207.875129 
L 197.821739 208.200005 
L 197.854015 208.118786 
L 197.934707 208.200005 
L 197.966983 208.281224 
L 198.112228 208.443662 
L 198.467271 208.362443 
L 198.483409 208.281224 
L 198.580239 208.362443 
L 198.644792 208.281224 
L 198.822313 207.956348 
L 199.032111 207.875129 
L 199.209632 207.550252 
L 199.241909 207.631471 
L 199.306462 207.469033 
L 199.500121 207.062938 
L 199.629228 207.144157 
L 199.790611 207.062938 
L 199.951994 206.81928 
L 200.032685 206.738061 
L 200.161792 206.656842 
L 200.532972 206.575623 
L 200.662079 206.331966 
L 200.678217 206.413185 
L 200.807323 206.331966 
L 200.968706 206.088309 
L 201.065536 206.007089 
L 201.226919 205.763432 
L 201.372164 205.682213 
L 201.50127 205.600994 
L 201.646515 205.519775 
L 201.807898 205.276118 
L 201.856313 205.357337 
L 201.985419 205.438556 
L 202.146802 205.194899 
L 202.275908 205.276118 
L 202.3566 205.194899 
L 202.517983 204.951241 
L 202.582536 204.870022 
L 202.727781 204.626365 
L 202.743919 204.707584 
L 202.776195 204.545146 
L 202.82461 204.545146 
L 203.034408 204.463927 
L 203.179653 204.301488 
L 203.550834 204.382708 
L 203.67994 204.463927 
L 203.77677 204.545146 
L 203.905876 204.626365 
L 204.632099 204.545146 
L 204.777344 204.382708 
L 204.858035 204.301488 
L 204.987142 204.220269 
L 205.116248 204.382708 
L 205.164663 204.301488 
L 205.19694 204.463927 
L 205.229216 204.382708 
L 205.358323 204.626365 
L 205.374461 204.545146 
L 206.052269 204.626365 
L 206.213652 204.870022 
L 206.455727 204.951241 
L 206.61711 205.194899 
L 206.762354 205.276118 
L 206.907599 205.438556 
L 207.343333 205.357337 
L 207.359471 205.276118 
L 207.456301 205.357337 
L 207.472439 205.438556 
L 207.569269 205.357337 
L 207.666099 205.438556 
L 207.682237 205.519775 
L 207.779067 205.438556 
L 208.021141 205.357337 
L 208.182524 205.113679 
L 208.230939 205.03246 
L 208.40846 204.707584 
L 208.60212 204.626365 
L 208.731226 204.545146 
L 208.989439 204.463927 
L 209.118545 204.382708 
L 209.215375 204.301488 
L 209.36062 204.13905 
L 209.538141 204.057831 
L 209.731801 203.651736 
L 210.038428 203.570517 
L 210.183673 203.408078 
L 210.232088 203.489298 
L 210.393471 203.732955 
L 211.055141 203.651736 
L 211.232662 203.326859 
L 211.297215 203.408078 
L 211.329492 203.326859 
L 211.474737 203.164421 
L 211.652258 203.083202 
L 211.749088 203.001983 
L 211.765226 203.083202 
L 211.813641 203.001983 
L 211.958885 202.839545 
L 212.023439 202.758326 
L 212.039577 202.677107 
L 212.087992 202.839545 
L 212.120268 202.839545 
L 212.217098 202.920764 
L 212.362343 203.083202 
L 212.410758 203.001983 
L 212.475311 202.839545 
L 212.523726 203.001983 
L 212.588279 202.920764 
L 212.636694 202.839545 
L 212.685109 202.920764 
L 212.86263 203.24564 
L 213.185396 203.164421 
L 213.217672 203.083202 
L 213.266087 203.24564 
L 213.282226 203.24564 
L 213.556577 203.164421 
L 213.653406 203.083202 
L 213.669545 203.164421 
L 213.814789 203.083202 
L 214.008449 202.677107 
L 214.056864 202.595888 
L 214.073002 202.514668 
L 214.169832 202.595888 
L 214.2828 202.514668 
L 214.411906 202.433449 
L 214.589427 202.35223 
L 214.734672 202.189792 
L 214.84764 202.271011 
L 214.879917 202.35223 
L 214.928332 202.189792 
L 214.94447 202.189792 
L 215.202683 202.108573 
L 215.331789 202.027354 
L 215.460895 202.108573 
L 215.751385 202.189792 
L 215.767523 202.271011 
L 215.864353 202.189792 
L 216.058012 201.783697 
L 216.138704 201.702477 
L 216.300087 201.377601 
L 216.380778 201.45882 
L 216.413055 201.377601 
L 216.542161 201.296382 
L 216.687406 201.133944 
L 216.92948 201.052725 
L 216.977895 200.971506 
L 217.02631 201.052725 
L 217.042448 201.133944 
L 217.139278 201.052725 
L 217.704118 201.133944 
L 217.833225 201.215163 
L 217.849363 201.133944 
L 217.946193 201.215163 
L 218.204406 201.215163 
L 218.34965 201.621258 
L 218.656278 201.540039 
L 218.785384 201.45882 
L 218.962905 201.540039 
L 219.027459 201.45882 
L 219.075874 201.621258 
L 219.20498 201.540039 
L 219.414778 201.621258 
L 219.576161 201.864916 
L 219.915065 201.946135 
L 220.157139 202.595888 
L 220.270107 202.677107 
L 220.350799 202.839545 
L 220.399214 202.758326 
L 220.496044 202.677107 
L 220.62515 202.595888 
L 220.818809 202.677107 
L 220.834948 202.758326 
L 220.931777 202.677107 
L 221.125437 202.595888 
L 221.254543 202.514668 
L 221.319097 202.433449 
L 221.464341 202.271011 
L 221.722554 202.189792 
L 221.867799 202.027354 
L 221.900075 202.027354 
L 222.029182 201.702477 
L 222.077596 201.621258 
L 222.158288 201.377601 
L 222.222841 201.45882 
L 222.739267 201.377601 
L 222.900649 201.133944 
L 223.013618 201.052725 
L 223.158862 200.809067 
L 223.175001 200.890287 
L 223.239554 200.727848 
L 223.255692 200.809067 
L 223.449352 200.402972 
L 223.626873 200.321753 
L 223.852809 199.753219 
L 223.981915 199.672 
L 224.046468 199.509562 
L 224.094883 199.590781 
L 224.272405 199.915657 
L 224.320819 199.834438 
L 224.385373 199.753219 
L 224.433788 199.834438 
L 224.514479 199.996876 
L 224.562894 199.915657 
L 224.692 199.996876 
L 224.853383 200.240534 
L 225.127734 200.159315 
L 225.256841 200.078096 
L 225.289117 200.159315 
L 225.305255 200.240534 
L 225.35367 200.078096 
L 225.385947 200.078096 
L 225.54733 200.159315 
L 225.692575 200.321753 
L 225.740989 200.240534 
L 225.886234 200.078096 
L 226.063755 199.996876 
L 226.338106 199.184686 
L 226.547904 199.265905 
L 226.580181 199.347124 
L 226.628596 199.184686 
L 226.644734 199.184686 
L 226.725425 199.103466 
L 226.87067 198.941028 
L 226.886808 199.022247 
L 226.9675 198.859809 
L 226.983638 198.941028 
L 227.06433 199.022247 
L 227.096606 199.103466 
L 227.161159 198.941028 
L 227.403234 198.941028 
L 227.53234 198.616152 
L 227.661447 198.534933 
L 227.677585 198.453714 
L 227.758276 198.534933 
L 227.855106 198.697371 
L 227.887383 198.616152 
L 228.048766 198.534933 
L 228.097181 198.453714 
L 228.161734 198.534933 
L 228.419946 198.453714 
L 228.597468 198.128837 
L 228.823404 198.047618 
L 228.871819 197.88518 
L 228.936372 198.047618 
L 229.081617 197.966399 
L 229.259138 197.641523 
L 229.307553 197.560304 
L 229.468936 197.316646 
L 229.630319 197.397865 
L 229.646457 197.479085 
L 229.71101 197.316646 
L 229.727148 197.316646 
L 230.082191 197.235427 
L 230.098329 197.154208 
L 230.162882 197.316646 
L 230.179021 197.316646 
L 230.905244 197.235427 
L 231.195733 196.342017 
L 231.22801 196.260798 
L 231.421669 195.854703 
L 231.453946 195.773484 
L 231.954233 193.824225 
L 231.970371 193.905444 
L 232.034925 193.661787 
L 232.164031 191.874967 
L 232.180169 188.869861 
L 232.244722 73.701185 
L 232.309276 127.630663 
L 232.470659 197.072989 
L 232.535212 197.722742 
L 232.599765 197.560304 
L 232.74501 197.316646 
L 233.051637 199.428343 
L 233.551924 203.489298 
L 233.584201 203.570517 
L 233.826275 204.951241 
L 234.520222 207.875129 
L 234.584775 207.956348 
L 234.794573 208.443662 
L 234.842988 208.524881 
L 235.036647 208.930977 
L 235.101201 209.012196 
L 235.262584 209.255853 
L 235.359413 209.337072 
L 235.520796 209.58073 
L 235.601488 209.661949 
L 235.746732 209.824387 
L 235.908115 209.905606 
L 236.037222 209.986825 
L 236.117913 210.068044 
L 236.263158 210.311701 
L 236.279296 210.230482 
L 236.359988 210.392921 
L 236.521371 210.636578 
L 236.876413 210.555359 
L 237.005519 210.392921 
L 237.070073 210.555359 
L 237.118488 210.47414 
L 237.247594 210.392921 
L 237.392839 210.311701 
L 237.538083 210.149263 
L 237.57036 210.230482 
L 237.634913 210.149263 
L 237.812434 209.824387 
L 237.860849 209.743168 
L 238.006094 209.58073 
L 238.167477 209.499511 
L 238.312721 209.337072 
L 238.474104 209.255853 
L 238.619349 209.093415 
L 238.829147 209.012196 
L 238.974392 208.849758 
L 239.103498 208.768539 
L 239.264881 208.524881 
L 239.329434 208.443662 
L 239.490817 208.200005 
L 239.732891 208.118786 
L 239.861998 208.037567 
L 240.152487 207.956348 
L 240.281593 207.875129 
L 240.378423 207.956348 
L 240.394561 207.875129 
L 240.572083 207.79391 
L 240.701189 207.71269 
L 240.959402 207.631471 
L 241.104646 207.469033 
L 241.459689 207.387814 
L 241.604934 207.225376 
L 241.717902 207.144157 
L 241.879285 206.900499 
L 242.169774 206.900499 
L 242.363433 218.758487 
L 242.799167 228.585998 
L 243.234901 235.164744 
L 243.654497 239.956671 
L 243.783603 241.174957 
L 244.396859 246.29176 
L 244.638933 248.07858 
L 244.961699 250.271496 
L 246.494837 257.418776 
L 246.55939 257.499995 
L 246.946709 258.88072 
L 246.978986 258.961939 
L 247.237199 259.692911 
L 247.269475 259.77413 
L 247.527688 260.505102 
L 247.592241 260.586321 
L 247.834316 261.236074 
L 247.850454 261.236074 
L 247.995699 261.723388 
L 248.011837 261.642169 
L 248.060252 261.804607 
L 248.092528 261.804607 
L 248.302326 262.291922 
L 248.366879 262.373141 
L 248.576677 262.860455 
L 248.657369 262.941675 
L 248.83489 263.266551 
L 248.996273 263.34777 
L 249.173794 263.672646 
L 249.238347 263.753866 
L 249.383592 263.916304 
L 249.544975 263.997523 
L 249.706358 264.24118 
L 249.819326 264.322399 
L 249.980709 264.566056 
L 250.303475 264.647276 
L 250.416443 264.809714 
L 250.432581 264.728495 
L 250.513273 264.809714 
L 250.610102 264.972152 
L 250.642379 264.890933 
L 250.884453 264.972152 
L 251.01356 265.053371 
L 251.255634 265.13459 
L 251.271772 265.215809 
L 251.352464 265.053371 
L 251.497709 265.13459 
L 251.626815 265.215809 
L 252.43373 265.13459 
L 252.562836 264.972152 
L 252.691942 265.13459 
L 252.837187 264.972152 
L 252.934017 264.890933 
L 252.99857 264.809714 
L 253.046985 264.890933 
L 253.611825 264.809714 
L 253.75707 264.647276 
L 254.273495 264.566056 
L 254.41874 264.403618 
L 254.499431 264.484837 
L 254.531708 264.403618 
L 254.773783 264.322399 
L 254.789921 264.24118 
L 254.838336 264.403618 
L 254.886751 264.322399 
L 255.354761 264.24118 
L 255.483867 264.159961 
L 255.709804 264.078742 
L 255.83891 263.997523 
L 256.000293 263.916304 
L 256.129399 263.753866 
L 256.258506 263.835085 
L 256.387612 263.753866 
L 256.50058 263.672646 
L 256.645825 263.510208 
L 256.968591 263.428989 
L 257.097697 263.34777 
L 257.129974 263.266551 
L 257.275218 263.104113 
L 257.517293 263.022894 
L 257.646399 262.941675 
L 258.01758 262.860455 
L 258.146686 262.698017 
L 258.162824 262.779236 
L 258.259654 262.698017 
L 258.372622 257.98731 
L 259.647548 258.068529 
L 259.679824 258.149748 
L 259.760516 258.068529 
L 260.244665 257.98731 
L 260.276941 257.824872 
L 260.357633 257.98731 
L 261.42276 258.068529 
L 261.471175 258.149748 
L 261.51959 257.98731 
L 261.535728 258.068529 
L 262.616994 257.98731 
L 262.649271 257.906091 
L 262.729962 257.98731 
L 263.230249 258.068529 
L 263.359356 258.149748 
L 264.392206 258.230967 
L 264.521313 258.312186 
L 266.377217 258.312186 
L 266.570876 240.119109 
L 267.151855 218.758487 
L 268.265397 193.499349 
L 268.507472 190.819119 
L 268.846376 185.052563 
L 268.910929 73.376308 
L 268.991621 144.524235 
L 269.153004 197.803961 
L 269.18528 198.047618 
L 269.233695 197.722742 
L 269.395078 197.072989 
L 269.653291 197.803961 
L 269.75012 197.88518 
L 269.959918 198.372495 
L 270.072886 198.453714 
L 270.153578 198.616152 
L 270.201993 198.534933 
L 270.282684 198.616152 
L 270.395652 198.77859 
L 270.411791 198.697371 
L 270.573173 198.616152 
L 270.621588 198.534933 
L 270.653865 198.616152 
L 270.782971 198.859809 
L 270.79911 198.941028 
L 270.879801 198.859809 
L 271.025046 198.697371 
L 271.154152 198.77859 
L 271.218705 198.941028 
L 271.26712 198.859809 
L 271.428503 198.534933 
L 271.444641 198.616152 
L 271.525333 198.534933 
L 271.670578 198.372495 
L 271.735131 198.291276 
L 271.944929 197.803961 
L 272.02562 197.722742 
L 272.283833 196.910551 
L 272.299971 196.99177 
L 272.396801 196.910551 
L 272.445216 196.910551 
L 272.59046 196.504455 
L 272.832535 195.854703 
L 272.88095 195.773484 
L 273.139162 195.042512 
L 273.332822 195.123731 
L 273.510343 195.448607 
L 273.558758 195.529826 
L 273.704003 195.692264 
L 273.800833 195.773484 
L 273.865386 195.854703 
L 273.897662 195.692264 
L 273.913801 195.773484 
L 274.059045 195.367388 
L 274.220428 195.123731 
L 274.268843 195.042512 
L 274.543194 193.986664 
L 274.575471 194.067883 
L 274.86596 193.986664 
L 274.946651 193.824225 
L 274.96279 193.905444 
L 275.043481 193.986664 
L 275.075758 193.905444 
L 275.172588 193.824225 
L 275.366247 193.41813 
L 275.495354 193.336911 
L 275.753566 192.443501 
L 275.769705 192.52472 
L 275.834258 192.443501 
L 276.076332 191.793748 
L 276.140885 191.956186 
L 276.173162 191.793748 
L 276.544343 190.413023 
L 276.560481 190.494242 
L 276.608896 190.169366 
L 276.689587 190.088147 
L 277.060768 187.651574 
L 277.286704 184.646468 
L 277.351257 70.858517 
L 277.431949 132.42259 
L 277.593332 194.798854 
L 277.754715 196.017141 
L 278.255002 199.103466 
L 278.480938 200.321753 
L 278.868257 201.864916 
L 278.884396 201.783697 
L 278.916672 201.864916 
L 279.094193 202.189792 
L 279.158747 202.271011 
L 279.336268 202.595888 
L 279.69131 202.514668 
L 279.852693 202.271011 
L 280.014076 202.189792 
L 280.240012 201.621258 
L 280.54664 201.540039 
L 280.675746 201.45882 
L 280.804853 201.377601 
L 280.820991 201.296382 
L 280.885544 201.45882 
L 280.917821 201.377601 
L 281.079204 201.296382 
L 281.20831 201.215163 
L 281.563353 201.133944 
L 281.708597 200.890287 
L 281.837704 200.971506 
L 282.031363 200.890287 
L 282.160469 200.809067 
L 282.225023 200.890287 
L 282.257299 200.727848 
L 282.273438 200.809067 
L 282.418682 200.646629 
L 282.483235 200.56541 
L 282.644618 200.321753 
L 282.693033 200.402972 
L 282.773725 200.484191 
L 282.806001 200.402972 
L 282.951246 200.321753 
L 283.128767 199.996876 
L 283.499948 199.915657 
L 283.645193 199.753219 
L 283.903405 199.672 
L 284.097065 199.265905 
L 284.161618 199.184686 
L 284.306863 198.859809 
L 284.323001 198.941028 
L 284.371416 198.859809 
L 284.548937 198.534933 
L 284.597352 198.453714 
L 284.758735 198.047618 
L 284.774873 198.128837 
L 284.871703 198.047618 
L 285.033086 197.803961 
L 285.065363 197.722742 
L 285.27516 197.235427 
L 285.307437 197.154208 
L 285.452682 196.99177 
L 285.484958 196.910551 
L 285.662479 196.504455 
L 285.678618 196.585675 
L 285.743171 196.423236 
L 285.759309 196.423236 
L 285.823862 196.342017 
L 286.001384 196.017141 
L 286.082075 196.09836 
L 286.114352 196.017141 
L 286.146628 195.935922 
L 286.308011 195.611045 
L 286.453256 195.773484 
L 286.517809 195.692264 
L 286.550086 195.611045 
L 286.614639 195.773484 
L 286.630777 195.692264 
L 286.969681 195.611045 
L 287.001958 195.529826 
L 287.082649 195.611045 
L 287.486107 195.529826 
L 287.631352 195.367388 
L 287.776596 195.286169 
L 288.083224 194.31154 
L 288.341436 194.230321 
L 288.486681 193.905444 
L 288.502819 193.986664 
L 288.535096 194.067883 
L 288.567373 194.149102 
L 288.631926 193.986664 
L 288.728756 193.905444 
L 288.954692 193.336911 
L 289.003107 193.41813 
L 289.16449 193.743006 
L 289.212904 193.661787 
L 289.261319 193.824225 
L 289.600224 193.743006 
L 289.745468 193.255692 
L 289.793883 193.174473 
L 289.922989 193.093253 
L 289.987543 193.012034 
L 290.342585 191.712529 
L 290.358723 191.793748 
L 290.391 191.63131 
L 290.455553 191.712529 
L 290.568521 191.550091 
L 290.58466 191.63131 
L 290.681489 191.550091 
L 290.859011 191.225214 
L 290.907425 191.143995 
L 291.068808 190.900338 
L 291.133362 190.819119 
L 291.375436 190.169366 
L 291.423851 190.088147 
L 292.053244 186.433288 
L 292.101659 183.590619 
L 292.166212 71.183393 
L 292.230766 120.72704 
L 292.408287 194.230321 
L 292.553532 194.880074 
L 292.634223 194.961293 
L 293.392723 198.210056 
L 293.424999 198.291276 
L 293.812319 199.672 
L 293.876872 199.753219 
L 294.118946 200.402972 
L 294.248053 200.484191 
L 294.377159 200.646629 
L 294.506265 200.56541 
L 294.667648 200.646629 
L 294.829031 200.890287 
L 294.877446 200.971506 
L 295.006552 201.052725 
L 295.11952 201.133944 
L 295.21635 201.215163 
L 295.232489 201.133944 
L 295.490701 201.052725 
L 295.652084 200.809067 
L 295.700499 200.727848 
L 295.87802 200.402972 
L 295.990988 200.321753 
L 296.152371 200.078096 
L 296.216925 199.996876 
L 296.394446 199.672 
L 296.555829 199.590781 
L 296.571967 199.509562 
L 296.652659 199.590781 
L 296.862456 200.078096 
L 297.29819 199.996876 
L 297.475712 199.672 
L 297.669371 199.590781 
L 297.879169 199.103466 
L 297.911446 199.022247 
L 298.072828 198.77859 
L 298.121243 198.697371 
L 298.282626 198.453714 
L 298.34718 198.372495 
L 298.556977 197.88518 
L 298.686084 197.803961 
L 298.976573 196.910551 
L 299.057265 196.829332 
L 299.299339 196.179579 
L 299.912594 196.09836 
L 300.090115 195.773484 
L 300.380605 195.692264 
L 300.509711 195.611045 
L 300.606541 195.529826 
L 300.703371 195.448607 
L 300.719509 195.529826 
L 300.8002 195.448607 
L 300.913168 195.367388 
L 300.945445 195.448607 
L 300.977722 195.286169 
L 301.009998 195.286169 
L 301.042275 195.286169 
L 301.171381 194.961293 
L 301.268211 194.880074 
L 301.413456 194.717635 
L 301.478009 194.798854 
L 301.510285 194.717635 
L 301.639392 194.555197 
L 301.703945 194.717635 
L 301.768498 194.636416 
L 301.816913 194.717635 
L 301.946019 194.798854 
L 302.139679 194.880074 
L 302.284924 195.123731 
L 302.397892 195.042512 
L 302.51086 195.123731 
L 302.672243 194.717635 
L 302.688381 194.798854 
L 302.849764 194.717635 
L 303.043423 194.31154 
L 303.091838 194.230321 
L 303.285498 193.824225 
L 303.333913 193.743006 
L 303.511434 193.41813 
L 303.608264 193.336911 
L 303.769647 193.093253 
L 303.963306 193.012034 
L 304.092413 192.687158 
L 304.156966 192.605939 
L 304.30221 192.281063 
L 304.318349 192.362282 
L 304.479732 192.281063 
L 304.608838 191.956186 
L 304.641115 192.037405 
L 304.721806 192.037405 
L 304.818636 191.712529 
L 304.850912 191.793748 
L 304.899327 191.793748 
L 305.06071 191.062776 
L 305.109125 191.143995 
L 305.141402 190.900338 
L 305.15754 190.981557 
L 305.189817 190.900338 
L 305.399615 190.413023 
L 305.464168 190.331804 
L 305.81921 189.113518 
L 305.835348 189.113518 
L 306.093561 187.489136 
L 306.125838 187.407917 
L 306.335636 184.646468 
L 306.351774 183.671839 
L 306.416327 71.589488 
L 306.497019 132.666247 
L 306.658402 193.824225 
L 306.739093 194.473978 
L 306.787508 194.31154 
L 306.965029 193.986664 
L 307.207104 194.067883 
L 307.836497 196.666894 
L 307.868774 196.748113 
L 308.062433 197.154208 
L 308.110848 197.235427 
L 308.304508 198.128837 
L 308.482029 198.453714 
L 308.788657 198.372495 
L 308.885486 198.291276 
L 308.901625 198.372495 
L 309.095284 198.453714 
L 309.22439 198.616152 
L 309.353497 198.534933 
L 309.466465 198.616152 
L 309.579433 198.697371 
L 309.740816 198.453714 
L 310.111997 198.534933 
L 310.257241 198.697371 
L 310.434763 198.616152 
L 310.596146 198.372495 
L 310.967326 198.291276 
L 311.112571 198.128837 
L 311.160986 198.047618 
L 311.419199 197.316646 
L 311.548305 197.235427 
L 311.725826 196.910551 
L 311.919486 196.829332 
L 312.048592 196.748113 
L 312.306805 196.666894 
L 312.484326 196.342017 
L 312.532741 196.260798 
L 312.710262 195.935922 
L 312.903922 195.854703 
L 313.065305 195.611045 
L 313.178273 195.529826 
L 313.323517 195.367388 
L 313.67856 195.286169 
L 313.743113 195.367388 
L 313.856081 194.961293 
L 314.162709 194.880074 
L 314.275677 194.798854 
L 314.404783 194.880074 
L 314.646858 194.230321 
L 314.743687 194.149102 
L 314.856655 193.905444 
L 314.888932 193.986664 
L 314.985762 193.905444 
L 315.19556 193.41813 
L 315.260113 193.336911 
L 315.437634 193.012034 
L 315.631294 192.930815 
L 315.776538 192.768377 
L 315.905645 192.687158 
L 315.937921 192.605939 
L 315.986336 192.768377 
L 316.228411 194.230321 
L 316.260687 194.31154 
L 316.42207 194.880074 
L 316.631868 195.448607 
L 316.777113 195.286169 
L 317.116017 195.20495 
L 317.2774 194.961293 
L 317.422644 195.123731 
L 317.713134 195.042512 
L 317.84224 194.961293 
L 317.874517 194.880074 
L 318.229559 193.661787 
L 318.310251 193.580568 
L 318.826676 191.550091 
L 318.891229 191.468872 
L 319.213995 190.413023 
L 319.310825 190.413023 
L 319.472208 189.84449 
L 319.633591 188.544984 
L 319.859527 185.215001 
L 319.891804 130.554551 
L 319.92408 72.645337 
L 319.988633 111.061968 
L 320.166155 191.874967 
L 320.246846 192.605939 
L 320.295261 192.362282 
L 320.359814 192.443501 
L 320.569612 192.930815 
L 320.58575 192.849596 
L 320.618027 193.012034 
L 320.666442 193.012034 
L 320.843963 193.336911 
L 320.892378 193.41813 
L 321.311974 194.961293 
L 321.360388 195.042512 
L 321.554048 195.448607 
L 321.699293 195.529826 
L 321.844537 195.692264 
L 321.941367 195.773484 
L 322.118888 196.09836 
L 322.29641 196.179579 
L 322.441654 196.423236 
L 322.473931 196.342017 
L 322.538484 196.423236 
L 322.699867 196.666894 
L 322.716005 196.585675 
L 322.780558 196.748113 
L 323.022633 197.397865 
L 323.652026 197.316646 
L 323.764994 197.154208 
L 323.781133 197.235427 
L 323.877963 197.154208 
L 324.023207 196.829332 
L 324.039345 196.910551 
L 324.152314 196.829332 
L 324.168452 196.748113 
L 324.233005 196.99177 
L 324.249143 196.910551 
L 324.265282 196.99177 
L 324.329835 196.829332 
L 324.345973 196.829332 
L 324.475079 196.748113 
L 324.701016 196.829332 
L 324.830122 196.99177 
L 324.894675 196.910551 
L 324.94309 196.99177 
L 325.685452 196.910551 
L 325.846835 196.666894 
L 325.911388 196.585675 
L 326.040494 196.504455 
L 326.185739 196.423236 
L 326.379398 196.017141 
L 326.395537 196.017141 
L 326.540781 195.611045 
L 326.589196 195.529826 
L 326.798994 195.042512 
L 326.9281 194.961293 
L 327.073345 194.717635 
L 327.089483 194.798854 
L 327.12176 194.636416 
L 327.154036 194.636416 
L 327.299281 194.473978 
L 327.412249 194.555197 
L 327.525217 194.473978 
L 327.573632 194.555197 
L 327.605909 194.392759 
L 327.622047 194.473978 
L 327.751153 194.392759 
L 327.78343 194.31154 
L 327.960951 193.986664 
L 328.186887 193.905444 
L 328.428962 193.255692 
L 328.493515 193.255692 
L 328.622621 192.768377 
L 328.63876 192.849596 
L 328.961525 192.930815 
L 328.977664 193.012034 
L 329.00994 192.849596 
L 329.058355 192.849596 
L 329.187462 192.768377 
L 329.252015 192.687158 
L 329.461813 192.199843 
L 329.558642 192.118624 
L 329.687749 192.037405 
L 329.800717 192.118624 
L 329.9621 191.63131 
L 329.978238 191.712529 
L 330.091206 192.037405 
L 330.123483 191.874967 
L 330.204174 191.793748 
L 330.397834 191.306433 
L 330.43011 191.387652 
L 330.478525 191.225214 
L 330.494664 191.225214 
L 330.688323 191.225214 
L 330.833568 190.819119 
L 330.930398 190.819119 
L 331.124057 209.418291 
L 331.495238 222.575785 
L 332.076216 234.433772 
L 332.786301 243.530311 
L 333.528663 249.946619 
L 335.158631 257.581214 
L 335.174769 257.581214 
L 335.336152 258.230967 
L 335.35229 258.230967 
L 335.529812 258.961939 
L 335.997822 260.748759 
L 336.046237 260.829978 
L 336.272173 261.398512 
L 336.30445 261.479731 
L 336.530386 262.048265 
L 336.675631 262.129484 
L 336.86929 262.535579 
L 336.917705 262.616798 
L 337.079088 263.022894 
L 337.095226 262.941675 
L 337.111365 262.941675 
L 337.256609 263.34777 
L 337.337301 263.428989 
L 337.53096 263.835085 
L 337.660067 263.916304 
L 337.853726 264.322399 
L 338.015109 264.403618 
L 338.19263 264.728495 
L 338.321737 264.809714 
L 338.466981 264.972152 
L 338.579949 265.053371 
L 338.709056 265.13459 
L 339.306173 265.053371 
L 339.386864 264.972152 
L 339.419141 265.053371 
L 340.758619 264.972152 
L 340.920002 264.728495 
L 341.065247 264.647276 
L 341.22663 264.403618 
L 341.371874 264.322399 
L 341.517119 264.159961 
L 341.662364 264.078742 
L 341.69464 263.997523 
L 341.775332 264.078742 
L 341.936715 263.997523 
L 342.065821 263.916304 
L 342.194928 263.997523 
L 342.630662 263.916304 
L 342.6468 263.835085 
L 342.679076 263.997523 
L 342.74363 263.916304 
L 343.11481 263.835085 
L 343.163225 263.753866 
L 343.227778 263.835085 
L 343.760342 263.753866 
L 343.792619 263.672646 
L 343.87331 263.753866 
L 343.97014 263.672646 
L 344.050831 263.591427 
L 344.083108 263.672646 
L 344.228353 263.591427 
L 344.357459 263.510208 
L 344.680225 263.428989 
L 344.696363 263.34777 
L 344.793193 263.428989 
L 344.922299 263.34777 
L 345.051406 263.266551 
L 345.083682 263.34777 
L 345.164374 263.266551 
L 345.600108 263.185332 
L 345.616246 263.104113 
L 345.713076 263.185332 
L 345.793767 263.104113 
L 345.922874 263.022894 
L 346.068118 262.941675 
L 346.181086 262.779236 
L 346.197225 262.860455 
L 346.261778 262.779236 
L 346.390884 262.698017 
L 346.568406 262.616798 
L 346.584544 262.535579 
L 346.681374 262.616798 
L 346.971863 262.535579 
L 347.117108 262.373141 
L 347.940161 262.45436 
L 347.972437 262.535579 
L 348.053129 262.45436 
L 349.666958 262.535579 
L 349.683097 262.616798 
L 349.779926 262.535579 
L 351.16782 262.616798 
L 351.264649 262.698017 
L 351.280788 262.616798 
L 353.362628 262.535579 
L 353.394904 262.45436 
L 353.443319 262.616798 
L 353.475596 262.535579 
L 354.702106 262.45436 
L 354.815074 262.373141 
L 354.831213 262.45436 
L 354.879628 262.291922 
L 354.928042 262.373141 
L 355.024872 262.291922 
L 355.041011 262.373141 
L 355.121702 262.373141 
L 355.13784 262.210703 
L 355.3315 226.55552 
L 355.79951 190.413023 
L 355.89634 177.011873 
L 355.944755 68.828039 
L 356.009308 122.919956 
L 356.154553 188.788641 
L 356.170691 188.626203 
L 356.364351 182.534771 
L 356.800085 171.570193 
L 356.864638 71.264612 
L 356.945329 121.782889 
L 357.122851 182.534771 
L 357.284234 183.996715 
L 357.494031 184.484029 
L 357.542446 184.40281 
L 357.590861 184.484029 
L 357.703829 184.808906 
L 357.719968 184.727687 
L 357.865212 184.646468 
L 358.187978 183.590619 
L 358.236393 183.5094 
L 358.768957 180.260637 
L 359.043308 176.443339 
L 359.172414 170.758003 
L 359.236967 68.015848 
L 359.30152 108.787834 
L 359.49518 182.778428 
L 359.672701 185.133782 
L 359.898637 185.864754 
L 359.914776 185.783535 
L 360.092297 185.864754 
L 360.140712 185.945973 
L 360.172988 185.783535 
L 360.189127 185.783535 
L 360.25368 185.702316 
L 360.528031 184.890125 
L 360.640999 184.808906 
L 360.834658 184.159153 
L 360.866935 184.240372 
L 360.947627 184.159153 
L 361.092871 183.753058 
L 361.125148 183.834277 
L 361.173563 183.753058 
L 361.383361 183.265743 
L 361.447914 183.184524 
L 361.722265 182.372333 
L 361.786818 182.291114 
L 362.028892 181.641361 
L 362.125722 181.560142 
L 362.43235 180.585513 
L 362.496903 180.504294 
L 363.303818 177.011873 
L 363.352233 177.093092 
L 363.384509 176.849435 
L 363.56203 172.78848 
L 363.626584 66.96 
L 363.707275 118.615344 
L 363.884796 181.72258 
L 364.046179 183.834277 
L 364.143009 183.915496 
L 364.304392 184.159153 
L 364.336669 184.240372 
L 364.352807 184.321591 
L 364.433498 184.240372 
L 364.449637 184.159153 
L 364.530328 184.321591 
L 364.836956 184.40281 
L 364.853094 184.484029 
L 364.885371 184.321591 
L 364.917647 184.321591 
L 365.304966 182.940867 
L 365.595456 182.859648 
L 366.257126 180.098198 
L 366.321679 180.179417 
L 366.370094 180.341856 
L 366.418509 180.098198 
L 366.773551 178.879912 
L 366.805828 178.961131 
L 366.838104 178.717474 
L 366.967211 178.392597 
L 366.999487 178.473816 
L 367.015626 178.555036 
L 367.06404 178.392597 
L 367.080179 178.392597 
L 367.225423 178.230159 
L 367.273838 178.14894 
L 367.45136 177.417968 
L 367.628881 175.956025 
L 367.854817 174.656519 
L 367.887093 174.5753 
L 367.967785 173.113356 
L 368.000062 167.346801 
L 368.064615 68.097067 
L 368.129168 106.919794 
L 368.338966 180.910389 
L 368.516487 182.778428 
L 368.694008 183.184524 
L 368.806976 183.103305 
L 368.952221 183.265743 
L 369.000636 183.103305 
L 369.081327 183.184524 
L 369.194295 183.346962 
L 369.210434 183.265743 
L 369.24271 183.265743 
L 369.323402 183.103305 
L 369.355678 183.184524 
L 369.387955 183.428181 
L 369.484785 183.265743 
L 369.581614 183.184524 
L 369.839827 182.453552 
L 369.952795 182.372333 
L 370.501497 180.179417 
L 370.533774 180.098198 
L 370.695157 179.367227 
L 370.808125 179.448446 
L 371.114753 178.473816 
L 371.163167 178.392597 
L 371.308412 178.14894 
L 371.32455 178.230159 
L 371.389104 177.986502 
L 371.405242 178.067721 
L 371.534348 178.14894 
L 371.679593 178.555036 
L 371.744146 178.392597 
L 371.808699 178.473816 
L 371.857114 178.392597 
L 371.970082 178.14894 
L 372.002359 178.230159 
L 372.08305 178.14894 
L 372.551061 176.280901 
L 372.567199 176.36212 
L 372.615614 176.118463 
L 372.825412 174.656519 
L 372.922242 171.245317 
L 372.986795 67.609753 
L 373.067486 111.79294 
L 373.261146 179.04235 
L 373.454805 180.82917 
L 373.69688 181.478923 
L 373.858263 181.397704 
L 373.955092 181.235266 
L 373.971231 181.316485 
L 374.051922 181.478923 
L 374.084199 181.397704 
L 374.374688 180.504294 
L 374.45538 180.423075 
L 374.616763 180.098198 
L 374.713592 180.179417 
L 374.729731 180.098198 
L 374.842699 180.016979 
L 375.068635 179.448446 
L 375.100911 179.529665 
L 375.197741 179.692103 
L 375.230018 179.610884 
L 375.262294 179.529665 
L 375.617337 178.311378 
L 375.665752 178.230159 
L 375.827135 177.580406 
L 375.859411 177.661626 
L 375.891688 177.742845 
L 375.940103 177.499187 
L 376.149901 176.930654 
L 376.182177 177.011873 
L 376.262869 176.930654 
L 376.295145 176.849435 
L 376.698603 175.387491 
L 376.779294 175.46871 
L 376.795432 175.387491 
L 377.118198 173.194575 
L 377.182752 171.488974 
L 377.215028 142.006443 
L 377.263443 68.259506 
L 377.327996 101.478115 
L 377.537794 177.093092 
L 377.683039 179.204788 
L 377.699177 179.123569 
L 377.95739 179.854541 
L 378.054219 179.93576 
L 378.215602 180.179417 
L 378.393124 180.098198 
L 378.538368 179.93576 
L 378.586783 179.854541 
L 378.877273 178.961131 
L 378.941826 178.879912 
L 378.990241 178.798693 
L 379.022517 178.961131 
L 379.038655 178.961131 
L 379.167762 178.879912 
L 379.474389 177.905283 
L 379.522804 177.824064 
L 379.668049 177.661626 
L 379.74874 177.580406 
L 379.990815 176.930654 
L 380.023091 176.849435 
L 380.216751 175.793586 
L 380.232889 175.874805 
L 380.297442 175.631148 
L 380.426549 175.549929 
L 380.491102 175.631148 
L 380.571794 175.793586 
L 380.620208 175.712367 
L 380.684762 175.631148 
L 380.846145 175.306272 
L 380.862283 175.387491 
L 380.910698 175.062615 
L 380.959113 174.981395 
L 381.394847 172.219946 
L 381.540091 169.133621 
L 381.572368 137.376955 
L 381.620783 67.934629 
L 381.685336 100.665924 
L 381.911272 178.14894 
L 382.104932 180.016979 
L 382.185623 180.098198 
L 382.395421 180.585513 
L 382.459974 180.666732 
L 382.605219 180.82917 
L 382.702048 180.747951 
L 382.944123 180.098198 
L 383.121644 180.179417 
L 383.234612 180.504294 
L 383.283027 180.423075 
L 383.379857 180.504294 
L 383.395995 180.585513 
L 383.44441 180.423075 
L 383.460548 180.423075 
L 383.670346 179.93576 
L 383.702623 179.854541 
L 383.912421 179.367227 
L 383.944697 179.286007 
L 384.089942 178.961131 
L 384.10608 179.04235 
L 384.154495 178.961131 
L 384.348155 178.555036 
L 384.380431 178.473816 
L 384.477261 178.230159 
L 384.525676 178.311378 
L 384.735474 178.230159 
L 384.896857 177.824064 
L 384.912995 177.905283 
L 384.993686 177.824064 
L 385.042101 177.742845 
L 385.106654 177.824064 
L 385.171208 177.742845 
L 385.300314 177.417968 
L 385.332591 177.499187 
L 385.364867 177.661626 
L 385.42942 177.499187 
L 386.123367 173.519452 
L 386.317027 168.971182 
L 386.38158 69.64023 
L 386.47841 117.803153 
L 386.672069 176.768216 
L 386.833452 178.311378 
L 386.84959 178.230159 
L 386.898005 178.555036 
L 387.107803 179.204788 
L 387.123941 179.123569 
L 387.172356 179.204788 
L 387.349877 179.529665 
L 387.527399 179.204788 
L 387.688782 179.123569 
L 387.882441 178.717474 
L 387.979271 178.717474 
L 388.140654 179.367227 
L 388.318175 179.04235 
L 388.415005 179.123569 
L 388.431143 179.04235 
L 388.527973 178.961131 
L 388.657079 178.879912 
L 388.689356 178.961131 
L 388.737771 178.798693 
L 388.753909 178.798693 
L 389.012122 178.067721 
L 389.076675 178.067721 
L 389.238058 177.499187 
L 390.077249 172.707261 
L 390.319324 167.915334 
L 390.3516 128.361635 
L 390.400015 69.234135 
L 390.464568 101.96543 
L 390.674366 174.981395 
L 390.835749 177.011873 
L 390.868026 177.093092 
L 391.142377 177.905283 
L 391.158515 177.905283 
L 391.174653 177.742845 
L 391.271483 177.824064 
L 391.352175 177.661626 
L 391.384451 177.824064 
L 391.497419 177.742845 
L 391.513558 177.661626 
L 391.594249 177.824064 
L 391.739494 177.742845 
L 391.96543 177.174311 
L 392.078398 177.093092 
L 392.417302 175.956025 
L 392.449579 175.956025 
L 392.610962 175.306272 
L 392.659377 175.225053 
L 392.869174 174.169205 
L 392.885313 174.169205 
L 393.175802 172.301165 
L 393.627674 169.458497 
L 393.724504 166.940705 
L 393.756781 136.321107 
L 393.805196 69.802668 
L 393.869749 96.280093 
L 394.111823 174.331643 
L 394.305483 176.849435 
L 394.499142 177.824064 
L 394.547557 177.905283 
L 394.757355 178.392597 
L 394.967153 178.473816 
L 395.015568 178.636255 
L 395.080121 178.555036 
L 395.386749 177.580406 
L 395.419025 177.499187 
L 395.56427 177.336749 
L 395.612685 177.336749 
L 395.757929 176.930654 
L 395.806344 176.849435 
L 395.967727 176.36212 
L 396.000004 176.443339 
L 396.096833 176.36212 
L 396.290493 175.46871 
L 396.32277 175.387491 
L 396.726227 173.925547 
L 396.758504 173.844328 
L 397.048993 172.626042 
L 397.097408 172.707261 
L 397.129684 172.78848 
L 397.161961 172.626042 
L 397.517003 168.402649 
L 397.565418 162.636093 
L 397.629972 70.046326 
L 397.710663 105.376632 
L 397.936599 173.763109 
L 398.130259 176.280901 
L 398.162535 176.36212 
L 398.501439 177.499187 
L 398.582131 177.580406 
L 398.727376 177.742845 
L 398.904897 177.661626 
L 399.050142 177.499187 
L 399.211524 177.417968 
L 399.453599 176.768216 
L 399.582705 176.686996 
L 399.744088 176.36212 
L 399.857056 176.443339 
L 399.889333 176.36212 
L 399.953886 176.524558 
L 400.018439 176.443339 
L 400.438035 174.900176 
L 400.470311 174.818957 
L 401.196535 170.676783 
L 401.406333 166.453391 
L 401.487024 70.046326 
L 401.583854 116.909743 
L 401.777513 172.301165 
L 401.955035 174.900176 
L 402.229386 176.605777 
L 402.358492 176.849435 
L 402.37463 176.768216 
L 402.439183 176.686996 
L 402.519875 176.605777 
L 402.552152 176.686996 
L 402.842641 176.605777 
L 403.068577 176.037244 
L 403.100854 175.956025 
L 403.294513 175.549929 
L 403.342928 175.46871 
L 403.455896 175.306272 
L 403.472034 175.387491 
L 403.923907 175.306272 
L 404.053013 175.225053 
L 404.165981 175.306272 
L 404.214396 175.387491 
L 404.278949 175.306272 
L 404.359641 175.387491 
L 404.424194 175.46871 
L 404.472609 175.387491 
L 404.521024 175.306272 
L 404.730821 174.494081 
L 404.779236 174.5753 
L 404.843789 174.656519 
L 404.892204 174.5753 
L 405.102002 174.494081 
L 405.344077 173.844328 
L 405.392492 173.763109 
L 405.50546 173.275794 
L 405.537736 173.357014 
L 405.602289 173.275794 
L 406.005747 170.676783 
L 406.215545 167.590458 
L 406.296236 162.960969 
L 406.376928 71.102174 
L 406.441481 102.777621 
L 406.667417 173.032137 
L 406.861076 175.956025 
L 407.280672 177.499187 
L 407.442055 177.417968 
L 407.571161 177.093092 
L 407.813236 177.174311 
L 407.893927 177.25553 
L 407.926204 177.174311 
L 408.119863 177.25553 
L 408.200555 177.417968 
L 408.24897 177.336749 
L 408.3458 177.25553 
L 408.523321 176.930654 
L 408.604012 176.930654 
L 408.797672 176.037244 
L 409.104299 175.062615 
L 409.152714 174.981395 
L 409.749831 172.544823 
L 409.798246 172.463604 
L 409.927352 171.89507 
L 409.975767 172.138727 
L 410.395363 172.057508 
L 410.944065 168.727525 
L 411.105448 161.98634 
L 411.186139 71.102174 
L 411.250693 101.396896 
L 411.476629 172.869699 
L 411.65415 175.712367 
L 411.896224 177.093092 
L 412.057607 177.336749 
L 412.138299 177.25553 
L 412.267405 177.093092 
L 412.299682 177.174311 
L 412.348097 177.011873 
L 412.364235 177.011873 
L 412.525618 176.930654 
L 412.590171 176.849435 
L 412.622448 177.011873 
L 412.703139 177.336749 
L 412.767692 177.25553 
L 412.97749 176.768216 
L 413.058182 176.686996 
L 413.203426 176.524558 
L 413.300256 176.443339 
L 413.477777 175.793586 
L 413.510054 175.956025 
L 413.752128 175.874805 
L 414.252416 173.925547 
L 414.316969 173.844328 
L 414.462213 173.68189 
L 414.510628 173.600671 
L 414.801118 172.707261 
L 414.833394 172.626042 
L 415.382096 166.128514 
L 415.414373 158.087824 
L 415.478926 70.858517 
L 415.543479 97.579599 
L 415.785554 173.032137 
L 415.979213 175.631148 
L 416.189011 176.686996 
L 416.414947 177.25553 
L 416.544053 177.174311 
L 416.76999 177.174311 
L 416.931373 176.605777 
L 416.963649 176.686996 
L 417.012064 176.443339 
L 417.060479 176.36212 
L 417.286415 175.793586 
L 417.399383 175.712367 
L 417.818979 174.169205 
L 417.851255 174.087985 
L 418.109468 173.357014 
L 418.238574 173.275794 
L 418.56134 172.219946 
L 418.577479 172.301165 
L 418.625894 172.138727 
L 418.642032 172.138727 
L 419.126181 169.133621 
L 419.335979 165.397542 
L 419.368255 150.209572 
L 419.432808 71.020955 
L 419.497362 98.39179 
L 419.787851 195.367388 
L 420.046064 214.697533 
L 420.433383 228.910874 
L 420.83684 237.763755 
L 421.224159 243.367873 
L 421.627616 247.834923 
L 421.788999 249.215648 
L 422.224733 252.54563 
L 422.757297 255.794394 
L 422.950957 256.687804 
L 423.67718 259.77413 
L 423.709457 259.855349 
L 424.145191 261.479731 
L 424.177467 261.56095 
L 424.451818 262.373141 
L 424.500233 262.45436 
L 424.758446 263.185332 
L 424.855276 263.266551 
L 425.129627 264.078742 
L 425.145765 263.997523 
L 425.178041 264.159961 
L 425.210318 264.159961 
L 425.436254 264.728495 
L 425.549222 264.809714 
L 425.726743 265.13459 
L 425.839712 265.215809 
L 426.017233 265.540686 
L 426.097924 265.621905 
L 426.259307 265.865562 
L 426.32386 265.946781 
L 426.501382 266.271657 
L 426.51752 266.190438 
L 426.582073 266.352877 
L 426.598211 266.352877 
L 426.727318 266.434096 
L 426.824148 266.515315 
L 426.98553 266.758972 
L 427.033945 266.840191 
L 427.163052 266.92141 
L 427.243743 267.002629 
L 427.388988 267.246287 
L 427.421264 267.165067 
L 427.501956 267.246287 
L 428.131349 267.327506 
L 428.276594 267.489944 
L 429.148062 267.571163 
L 429.1642 267.652382 
L 429.244892 267.571163 
L 429.341722 267.489944 
L 429.35786 267.571163 
L 429.729041 267.652382 
L 429.793594 267.733601 
L 429.842009 267.652382 
L 430.697338 267.571163 
L 430.826445 267.489944 
L 431.310594 267.408725 
L 431.375147 267.327506 
L 431.423562 267.408725 
L 431.4397 267.489944 
L 431.520391 267.408725 
L 431.649498 267.327506 
L 432.036817 267.246287 
L 432.165923 267.165067 
L 432.633934 267.083848 
L 432.76304 267.002629 
L 433.392434 266.92141 
L 433.52154 266.840191 
L 433.795891 266.758972 
L 433.860444 266.596534 
L 433.908859 266.677753 
L 433.989551 266.758972 
L 434.021827 266.677753 
L 434.74805 266.596534 
L 434.877157 266.515315 
L 435.232199 266.434096 
L 435.377444 266.271657 
L 435.458135 266.352877 
L 435.490412 266.271657 
L 435.780901 266.271657 
L 435.780901 266.271657 
" style="fill:none;stroke:#1f77b4;stroke-linecap:square;stroke-width:1.5;"/>
   </g>
   <g id="line2d_15">
    <path clip-path="url(#p3fa70bda50)" d="M 80.754545 258.945695 
L 81.109588 258.729457 
L 81.335524 258.629655 
L 81.609875 258.496586 
L 81.916503 258.396784 
L 82.142439 258.313616 
L 82.562035 258.213814 
L 82.755694 258.163913 
L 83.385088 258.064111 
L 83.562609 258.030843 
L 84.692289 257.931041 
L 84.853672 257.914408 
L 88.904385 257.814606 
L 89.566055 241.230836 
L 90.211586 230.152811 
L 90.824842 222.867264 
L 91.40582 217.993598 
L 92.019075 214.367458 
L 93.035788 210.641516 
L 93.503799 209.543694 
L 94.133192 208.495772 
L 95.440394 207.298148 
L 95.650192 207.198346 
L 95.924543 207.065277 
L 96.231171 206.965475 
L 96.440968 206.89894 
L 96.941256 206.799138 
L 97.118777 206.765871 
L 101.879574 206.865673 
L 102.040957 206.882306 
L 103.170637 206.982108 
L 103.33202 206.998742 
L 104.445563 207.098544 
L 104.606946 207.115178 
L 105.720488 207.21498 
L 105.881871 207.231614 
L 107.059967 207.331416 
L 107.22135 207.348049 
L 108.44786 207.447851 
L 108.609243 207.464485 
L 109.900307 207.564287 
L 110.06169 207.580921 
L 111.449583 207.680723 
L 111.610966 207.697356 
L 113.079551 207.797158 
L 113.240934 207.813792 
L 114.806348 207.913594 
L 114.967731 207.930228 
L 116.662252 208.03003 
L 116.823635 208.046663 
L 118.647263 208.146465 
L 118.808646 208.163099 
L 120.793656 208.262901 
L 120.955039 208.279535 
L 123.11757 208.379337 
L 123.278953 208.39597 
L 125.667421 208.495772 
L 125.828804 208.512406 
L 128.475484 208.612208 
L 128.636867 208.628842 
L 131.606314 208.728644 
L 131.767697 208.745278 
L 135.156739 208.84508 
L 135.318121 208.861713 
L 139.223589 208.961515 
L 139.384972 208.978149 
L 144.032801 209.077951 
L 144.194184 209.094585 
L 149.874864 209.194387 
L 150.036247 209.21102 
L 153.457565 209.260921 
L 154.119235 225.861324 
L 154.764767 236.939349 
L 155.378022 244.24153 
L 156.152661 250.412622 
L 156.830469 253.922327 
L 157.524416 256.317575 
L 158.024703 257.515199 
L 158.702511 258.662923 
L 160.025851 259.877181 
L 160.235649 259.976983 
L 160.51 260.110052 
L 160.80049 260.209854 
L 161.010287 260.276389 
L 161.478298 260.376191 
L 161.655819 260.409458 
L 162.898468 260.50926 
L 163.059851 260.525894 
L 165.62584 260.426092 
L 165.787223 260.409458 
L 167.14284 260.309656 
L 167.304223 260.293022 
L 168.56301 260.19322 
L 168.724393 260.176587 
L 169.515169 260.110052 
L 169.628137 258.87916 
L 169.805658 258.779358 
L 170.096148 258.629655 
L 170.338222 258.529853 
L 170.580296 258.430051 
L 170.903062 258.330249 
L 171.11286 258.263715 
L 171.564732 258.163913 
L 171.758392 258.114012 
L 172.53303 258.01421 
L 172.710551 257.980942 
L 174.437349 257.88114 
L 174.598732 257.864507 
L 177.681146 257.814606 
L 178.326678 236.140933 
L 179.036763 220.03954 
L 179.666157 210.375377 
L 180.360103 203.139731 
L 181.05405 198.3326 
L 181.554337 195.904084 
L 182.216007 193.641905 
L 182.716294 192.44428 
L 183.377965 191.329824 
L 184.620613 190.198735 
L 184.830411 190.098933 
L 185.104762 189.965864 
L 185.427528 189.866061 
L 185.637326 189.799527 
L 186.250581 189.699725 
L 186.428102 189.666457 
L 189.558932 189.766259 
L 189.736453 189.799527 
L 190.753165 189.899329 
L 190.930687 189.932596 
L 191.866708 190.032398 
L 192.044229 190.065666 
L 192.947974 190.165468 
L 193.125495 190.198735 
L 194.045378 190.298537 
L 194.222899 190.331804 
L 195.175058 190.431606 
L 195.35258 190.464874 
L 196.337016 190.564676 
L 196.514537 190.597943 
L 197.531249 190.697745 
L 197.708771 190.731012 
L 198.790036 190.830814 
L 198.967558 190.864082 
L 200.113377 190.963884 
L 200.27476 190.980517 
L 201.323749 191.080319 
L 201.485132 191.096953 
L 202.582536 191.196755 
L 202.743919 191.213389 
L 203.922014 191.313191 
L 204.083397 191.329824 
L 205.309908 191.429627 
L 205.471291 191.44626 
L 206.778493 191.546062 
L 206.939876 191.562696 
L 208.327769 191.662498 
L 208.489152 191.679132 
L 209.973875 191.778934 
L 210.135258 191.795567 
L 211.732949 191.895369 
L 211.894332 191.912003 
L 213.604991 192.011805 
L 213.766374 192.028439 
L 215.622278 192.128241 
L 215.783661 192.144874 
L 217.800948 192.244676 
L 217.962331 192.26131 
L 220.173278 192.361112 
L 220.334661 192.377746 
L 222.755405 192.477548 
L 222.916788 192.494181 
L 225.628021 192.593983 
L 225.789404 192.610617 
L 228.839542 192.710419 
L 229.000925 192.727053 
L 232.470659 192.826855 
L 232.632041 192.843489 
L 236.682754 192.943291 
L 236.844137 192.959924 
L 241.653349 193.059726 
L 241.814731 193.07636 
L 242.234327 193.07636 
L 242.879859 214.766666 
L 243.589944 230.884693 
L 244.219337 240.548856 
L 244.913284 247.801136 
L 245.607231 252.6249 
L 246.430284 256.284308 
L 247.285614 258.579754 
L 247.931145 259.660943 
L 249.222209 260.841934 
L 249.432007 260.941736 
L 249.706358 261.074805 
L 250.029124 261.174607 
L 250.238922 261.241142 
L 250.803762 261.340944 
L 250.981283 261.374211 
L 254.628538 261.274409 
L 254.806059 261.241142 
L 255.903463 261.14134 
L 256.080984 261.108072 
L 257.113835 261.00827 
L 257.291357 260.975003 
L 258.291931 260.875201 
L 258.404899 258.87916 
L 258.58242 258.779358 
L 258.872909 258.629655 
L 259.114984 258.529853 
L 259.357058 258.430051 
L 259.679824 258.330249 
L 259.889622 258.263715 
L 260.341494 258.163913 
L 260.535154 258.114012 
L 261.309792 258.01421 
L 261.487313 257.980942 
L 263.214111 257.88114 
L 263.375494 257.864507 
L 266.457908 257.814606 
L 267.119578 224.647067 
L 267.76511 202.491017 
L 268.442919 186.672397 
L 268.846376 178.871205 
L 268.959344 182.763484 
L 269.233695 182.696949 
L 269.572599 179.636354 
L 269.604876 178.771403 
L 269.717844 182.763484 
L 270.024471 182.846653 
L 270.734556 184.06091 
L 271.589886 184.792792 
L 271.896514 184.892594 
L 272.090173 184.942495 
L 273.074609 184.842693 
L 273.300545 184.759525 
L 273.558758 184.659723 
L 273.833109 184.526653 
L 274.042907 184.426851 
L 274.381811 184.227247 
L 274.559332 184.127445 
L 274.978928 183.844673 
L 275.124173 183.744871 
L 275.640598 183.362296 
L 275.785843 183.262494 
L 277.528779 181.316355 
L 277.80313 180.517939 
L 277.932236 179.536552 
L 277.964513 178.871205 
L 278.077481 182.763484 
L 278.351832 182.813385 
L 278.948949 186.838733 
L 279.642895 189.832794 
L 280.272289 191.429627 
L 280.514363 191.828835 
L 280.837129 192.244676 
L 281.337416 192.610617 
L 281.660182 192.710419 
L 281.837704 192.743686 
L 282.53165 192.643884 
L 282.773725 192.544082 
L 282.999661 192.44428 
L 283.338565 192.244676 
L 283.499948 192.144874 
L 284.000235 191.778934 
L 284.14548 191.679132 
L 285.000809 190.94725 
L 285.113777 190.847448 
L 286.630777 189.433586 
L 286.743745 189.333784 
L 288.615788 187.553981 
L 288.728756 187.454179 
L 290.100511 186.19002 
L 290.213479 186.090218 
L 291.278606 185.142099 
L 291.407713 185.042297 
L 292.424425 184.144079 
L 292.553532 184.044277 
L 295.022691 181.349622 
L 295.297042 180.534572 
L 295.442286 179.303681 
L 295.474563 178.205858 
L 295.587531 182.763484 
L 295.845744 182.763484 
L 296.668797 187.903288 
L 297.136807 189.749626 
L 297.750063 191.313191 
L 297.992137 191.712399 
L 298.314903 192.128241 
L 298.847467 192.527449 
L 299.186371 192.627251 
L 299.363892 192.660518 
L 300.009424 192.560716 
L 300.251498 192.460914 
L 300.477434 192.361112 
L 300.8002 192.178142 
L 300.961583 192.07834 
L 301.429594 191.745666 
L 301.574839 191.645864 
L 302.381753 190.963884 
L 302.51086 190.864082 
L 304.076274 189.400319 
L 304.189242 189.300517 
L 306.01287 187.570615 
L 306.125838 187.470813 
L 307.497593 186.206654 
L 307.626699 186.106852 
L 308.772518 185.075564 
L 308.901625 184.975762 
L 309.918337 184.077544 
L 310.047444 183.977742 
L 312.419773 181.38289 
L 312.710262 180.551206 
L 312.839369 179.61972 
L 312.887783 178.455364 
L 313.000752 182.763484 
L 313.258964 182.763484 
L 314.082017 187.903288 
L 314.550028 189.749626 
L 315.179421 191.346458 
L 315.421496 191.745666 
L 315.728123 192.128241 
L 316.276825 192.544082 
L 316.696421 192.643884 
L 316.857804 192.660518 
L 317.438783 192.560716 
L 317.680857 192.460914 
L 317.906793 192.361112 
L 318.245697 192.161508 
L 318.40708 192.061706 
L 318.891229 191.712399 
L 319.036474 191.612597 
L 319.891804 190.880715 
L 320.02091 190.780913 
L 321.650878 189.250616 
L 321.763846 189.150814 
L 323.571335 187.437546 
L 323.684303 187.337744 
L 325.007643 186.123486 
L 325.120611 186.023684 
L 326.1696 185.092198 
L 326.298707 184.992396 
L 327.315419 184.094178 
L 327.444526 183.994376 
L 329.849132 181.366256 
L 330.123483 180.56784 
L 330.252589 179.669621 
L 330.301004 178.6217 
L 330.413972 182.763484 
L 330.672185 182.763484 
L 331.011089 185.225267 
L 331.672759 221.85261 
L 332.302153 245.572224 
L 332.947684 262.122726 
L 333.593216 273.234018 
L 334.271025 280.90214 
L 335.013386 286.125113 
L 335.658918 288.886302 
L 336.272173 290.449867 
L 336.514248 290.849075 
L 336.820875 291.23165 
L 337.337301 291.614224 
L 338.676779 291.514422 
L 338.999545 291.331452 
L 339.177066 291.23165 
L 339.693492 290.849075 
L 339.822598 290.749273 
L 341.065247 289.618184 
L 341.178215 289.518382 
L 347.068693 283.596795 
L 347.181661 258.87916 
L 347.359182 258.779358 
L 347.649671 258.629655 
L 347.891746 258.529853 
L 348.13382 258.430051 
L 348.456586 258.330249 
L 348.666384 258.263715 
L 349.118256 258.163913 
L 349.311916 258.114012 
L 350.086554 258.01421 
L 350.264075 257.980942 
L 351.990873 257.88114 
L 352.152256 257.864507 
L 355.23467 257.814606 
L 355.89634 191.479528 
L 356.057723 178.272393 
L 356.106138 182.763484 
L 356.428904 182.763484 
L 356.477319 179.320314 
L 356.525734 182.763484 
L 356.8485 182.763484 
L 356.913053 179.287047 
L 356.945329 182.763484 
L 357.284234 182.763484 
L 357.364925 178.871205 
L 357.381063 182.763484 
L 357.736106 182.763484 
L 357.816797 179.336948 
L 357.832936 182.763484 
L 358.187978 182.763484 
L 358.284808 179.93576 
L 358.300946 179.237146 
L 358.317084 182.763484 
L 358.672127 182.763484 
L 358.785095 180.43477 
L 358.83351 178.821304 
L 358.946478 182.763484 
L 359.204691 182.763484 
L 359.349935 180.967048 
L 359.446765 179.020908 
L 359.559733 182.763484 
L 359.834084 182.730217 
L 360.334371 179.636354 
L 360.366648 178.871205 
L 360.479616 182.763484 
L 360.770105 182.830019 
L 361.092871 183.711603 
L 361.496329 184.293782 
L 361.754541 184.410218 
L 362.093446 184.310416 
L 362.690562 183.545267 
L 363.352233 181.931801 
L 363.642722 180.700909 
L 363.771828 179.420116 
L 363.804105 178.405463 
L 363.917073 182.763484 
L 364.191424 182.830019 
L 364.772403 184.759525 
L 365.17586 185.341703 
L 365.869807 185.241901 
L 366.337817 184.609822 
L 367.177009 182.630415 
L 367.612742 180.967048 
L 367.790264 179.270413 
L 367.806402 178.804671 
L 367.91937 182.763484 
L 368.209859 182.863286 
L 368.710147 184.460119 
L 369.129742 185.075564 
L 369.371817 185.175366 
L 369.710721 185.075564 
L 370.323976 184.293782 
L 371.098614 182.447444 
L 371.502072 180.867246 
L 371.663455 179.25378 
L 371.679593 178.771403 
L 371.792561 182.763484 
L 372.08305 182.863286 
L 372.599476 184.526653 
L 373.002933 185.125465 
L 373.245007 185.225267 
L 373.390252 185.225267 
L 373.60005 185.125465 
L 374.213305 184.343683 
L 374.987943 182.497345 
L 375.407539 180.850612 
L 375.568922 179.187245 
L 375.58506 178.671601 
L 375.698028 182.763484 
L 375.988518 182.863286 
L 376.488805 184.476752 
L 376.908401 185.108832 
L 377.166613 185.208634 
L 377.311858 185.208634 
L 378.215602 184.127445 
L 378.877273 182.513979 
L 379.296868 180.883879 
L 379.458251 179.320314 
L 379.474389 178.904473 
L 379.587358 182.763484 
L 379.877847 182.863286 
L 380.394272 184.526653 
L 380.79773 185.125465 
L 381.039804 185.225267 
L 381.185049 185.225267 
L 381.394847 185.125465 
L 382.008102 184.343683 
L 382.78274 182.497345 
L 383.202336 180.850612 
L 383.363719 179.187245 
L 383.379857 178.671601 
L 383.492825 182.763484 
L 383.783314 182.863286 
L 384.283601 184.476752 
L 384.703197 185.108832 
L 384.96141 185.208634 
L 385.106654 185.208634 
L 386.010399 184.127445 
L 386.672069 182.513979 
L 387.091665 180.883879 
L 387.253048 179.320314 
L 387.269186 178.904473 
L 387.382154 182.763484 
L 387.672643 182.863286 
L 388.189069 184.526653 
L 388.592526 185.125465 
L 388.834601 185.225267 
L 388.979845 185.225267 
L 389.189643 185.125465 
L 389.802898 184.343683 
L 390.577537 182.497345 
L 390.997132 180.850612 
L 391.158515 179.187245 
L 391.174653 178.671601 
L 391.287622 182.763484 
L 391.578111 182.863286 
L 392.078398 184.476752 
L 392.497994 185.108832 
L 392.756206 185.208634 
L 392.901451 185.208634 
L 393.805196 184.127445 
L 394.466866 182.513979 
L 394.886461 180.883879 
L 395.047844 179.320314 
L 395.063983 178.904473 
L 395.176951 182.763484 
L 395.46744 182.863286 
L 395.983865 184.526653 
L 396.387323 185.125465 
L 396.629397 185.225267 
L 396.774642 185.225267 
L 396.98444 185.125465 
L 397.597695 184.343683 
L 398.372333 182.497345 
L 398.791929 180.850612 
L 398.953312 179.187245 
L 398.96945 178.654968 
L 399.082418 182.763484 
L 399.372907 182.863286 
L 399.873195 184.476752 
L 400.29279 185.108832 
L 400.551003 185.208634 
L 400.696248 185.208634 
L 401.599992 184.127445 
L 402.261662 182.513979 
L 402.681258 180.883879 
L 402.842641 179.320314 
L 402.858779 178.904473 
L 402.971747 182.763484 
L 403.262237 182.863286 
L 403.778662 184.526653 
L 404.182119 185.125465 
L 404.424194 185.225267 
L 404.569438 185.225267 
L 404.779236 185.125465 
L 405.392492 184.343683 
L 406.16713 182.497345 
L 406.586725 180.850612 
L 406.748108 179.187245 
L 406.764247 178.654968 
L 406.877215 182.763484 
L 407.167704 182.863286 
L 407.667991 184.476752 
L 408.087587 185.108832 
L 408.3458 185.208634 
L 408.491044 185.208634 
L 409.394789 184.127445 
L 410.056459 182.513979 
L 410.476055 180.883879 
L 410.637437 179.320314 
L 410.653576 178.904473 
L 410.766544 182.763484 
L 411.057033 182.863286 
L 411.573459 184.526653 
L 411.976916 185.125465 
L 412.21899 185.225267 
L 412.364235 185.225267 
L 412.574033 185.125465 
L 413.187288 184.343683 
L 413.961926 182.497345 
L 414.381522 180.850612 
L 414.542905 179.187245 
L 414.559043 178.671601 
L 414.672011 182.763484 
L 414.962501 182.863286 
L 415.462788 184.476752 
L 415.882383 185.108832 
L 416.124458 185.208634 
L 416.269702 185.208634 
L 416.4795 185.108832 
L 417.076617 184.343683 
L 417.867394 182.464078 
L 418.270851 180.883879 
L 418.432234 179.336948 
L 418.448372 178.904473 
L 418.56134 182.763484 
L 418.85183 182.863286 
L 419.368255 184.526653 
L 419.771713 185.125465 
L 419.787851 185.125465 
L 420.417244 248.749255 
L 421.046638 292.0966 
L 421.69217 321.937405 
L 422.305425 340.76672 
L 422.902542 352.892666 
L 423.451244 360.194848 
L 424.032222 365.068513 
L 424.548648 367.613465 
L 425.09735 368.977426 
L 425.613775 369.36 
L 425.920403 369.260198 
L 426.646626 368.36198 
L 427.663339 366.016632 
L 430.665062 356.385737 
L 431.326732 354.123558 
L 432.682349 349.582566 
L 433.247189 347.719595 
L 435.845455 339.569096 
L 435.845455 339.569096 
" style="fill:none;stroke:#ff0000;stroke-linecap:square;stroke-width:1.5;"/>
   </g>
   <g id="patch_3">
    <path d="M 63 384.48 
L 63 51.84 
" style="fill:none;stroke:#000000;stroke-linecap:square;stroke-linejoin:miter;stroke-width:0.8;"/>
   </g>
   <g id="patch_4">
    <path d="M 453.6 384.48 
L 453.6 51.84 
" style="fill:none;stroke:#000000;stroke-linecap:square;stroke-linejoin:miter;stroke-width:0.8;"/>
   </g>
   <g id="patch_5">
    <path d="M 63 384.48 
L 453.6 384.48 
" style="fill:none;stroke:#000000;stroke-linecap:square;stroke-linejoin:miter;stroke-width:0.8;"/>
   </g>
   <g id="patch_6">
    <path d="M 63 51.84 
L 453.6 51.84 
" style="fill:none;stroke:#000000;stroke-linecap:square;stroke-linejoin:miter;stroke-width:0.8;"/>
   </g>
   <g id="legend_1">
    <g id="patch_7">
     <path d="M 70 89.19625 
L 133.139062 89.19625 
Q 135.139062 89.19625 135.139062 87.19625 
L 135.139062 58.84 
Q 135.139062 56.84 133.139062 56.84 
L 70 56.84 
Q 68 56.84 68 58.84 
L 68 87.19625 
Q 68 89.19625 70 89.19625 
z
" style="fill:#ffffff;opacity:0.8;stroke:#cccccc;stroke-linejoin:miter;"/>
    </g>
    <g id="line2d_16">
     <path d="M 72 64.938437 
L 92 64.938437 
" style="fill:none;stroke:#1f77b4;stroke-linecap:square;stroke-width:1.5;"/>
    </g>
    <g id="line2d_17"/>
    <g id="text_16">
     <!-- target -->
     <defs>
      <path d="M 41.109375 46.296875 
Q 39.59375 47.171875 37.8125 47.578125 
Q 36.03125 48 33.890625 48 
Q 26.265625 48 22.1875 43.046875 
Q 18.109375 38.09375 18.109375 28.8125 
L 18.109375 0 
L 9.078125 0 
L 9.078125 54.6875 
L 18.109375 54.6875 
L 18.109375 46.1875 
Q 20.953125 51.171875 25.484375 53.578125 
Q 30.03125 56 36.53125 56 
Q 37.453125 56 38.578125 55.875 
Q 39.703125 55.765625 41.0625 55.515625 
z
" id="DejaVuSans-114"/>
     </defs>
     <g transform="translate(100 68.438437)scale(0.1 -0.1)">
      <use xlink:href="#DejaVuSans-116"/>
      <use x="39.208984" xlink:href="#DejaVuSans-97"/>
      <use x="100.488281" xlink:href="#DejaVuSans-114"/>
      <use x="141.585938" xlink:href="#DejaVuSans-103"/>
      <use x="205.0625" xlink:href="#DejaVuSans-101"/>
      <use x="266.585938" xlink:href="#DejaVuSans-116"/>
     </g>
    </g>
    <g id="line2d_18">
     <path d="M 72 79.616562 
L 92 79.616562 
" style="fill:none;stroke:#ff0000;stroke-linecap:square;stroke-width:1.5;"/>
    </g>
    <g id="line2d_19"/>
    <g id="text_17">
     <!-- model -->
     <defs>
      <path d="M 45.40625 46.390625 
L 45.40625 75.984375 
L 54.390625 75.984375 
L 54.390625 0 
L 45.40625 0 
L 45.40625 8.203125 
Q 42.578125 3.328125 38.25 0.953125 
Q 33.9375 -1.421875 27.875 -1.421875 
Q 17.96875 -1.421875 11.734375 6.484375 
Q 5.515625 14.40625 5.515625 27.296875 
Q 5.515625 40.1875 11.734375 48.09375 
Q 17.96875 56 27.875 56 
Q 33.9375 56 38.25 53.625 
Q 42.578125 51.265625 45.40625 46.390625 
z
M 14.796875 27.296875 
Q 14.796875 17.390625 18.875 11.75 
Q 22.953125 6.109375 30.078125 6.109375 
Q 37.203125 6.109375 41.296875 11.75 
Q 45.40625 17.390625 45.40625 27.296875 
Q 45.40625 37.203125 41.296875 42.84375 
Q 37.203125 48.484375 30.078125 48.484375 
Q 22.953125 48.484375 18.875 42.84375 
Q 14.796875 37.203125 14.796875 27.296875 
z
" id="DejaVuSans-100"/>
     </defs>
     <g transform="translate(100 83.116562)scale(0.1 -0.1)">
      <use xlink:href="#DejaVuSans-109"/>
      <use x="97.412109" xlink:href="#DejaVuSans-111"/>
      <use x="158.59375" xlink:href="#DejaVuSans-100"/>
      <use x="222.070312" xlink:href="#DejaVuSans-101"/>
      <use x="283.59375" xlink:href="#DejaVuSans-108"/>
     </g>
    </g>
   </g>
  </g>
 </g>
 <defs>
  <clipPath id="p3fa70bda50">
   <rect height="332.64" width="390.6" x="63" y="51.84"/>
  </clipPath>
 </defs>
</svg>
