<?xml version="1.0" encoding="utf-8" standalone="no"?>
<!DOCTYPE svg PUBLIC "-//W3C//DTD SVG 1.1//EN"
  "http://www.w3.org/Graphics/SVG/1.1/DTD/svg11.dtd">
<!-- Created with matplotlib (https://matplotlib.org/) -->
<svg height="432pt" version="1.1" viewBox="0 0 504 432" width="504pt" xmlns="http://www.w3.org/2000/svg" xmlns:xlink="http://www.w3.org/1999/xlink">
 <defs>
  <style type="text/css">
*{stroke-linecap:butt;stroke-linejoin:round;}
  </style>
 </defs>
 <g id="figure_1">
  <g id="patch_1">
   <path d="M 0 432 
L 504 432 
L 504 0 
L 0 0 
z
" style="fill:#ffffff;"/>
  </g>
  <g id="axes_1">
   <g id="patch_2">
    <path d="M 63 384.48 
L 453.6 384.48 
L 453.6 51.84 
L 63 51.84 
z
" style="fill:#ffffff;"/>
   </g>
   <g id="matplotlib.axis_1">
    <g id="xtick_1">
     <g id="line2d_1">
      <defs>
       <path d="M 0 0 
L 0 3.5 
" id="m35273f0f46" style="stroke:#000000;stroke-width:0.8;"/>
      </defs>
      <g>
       <use style="stroke:#000000;stroke-width:0.8;" x="80.754545" xlink:href="#m35273f0f46" y="384.48"/>
      </g>
     </g>
     <g id="text_1">
      <!-- 0 -->
      <defs>
       <path d="M 31.78125 66.40625 
Q 24.171875 66.40625 20.328125 58.90625 
Q 16.5 51.421875 16.5 36.375 
Q 16.5 21.390625 20.328125 13.890625 
Q 24.171875 6.390625 31.78125 6.390625 
Q 39.453125 6.390625 43.28125 13.890625 
Q 47.125 21.390625 47.125 36.375 
Q 47.125 51.421875 43.28125 58.90625 
Q 39.453125 66.40625 31.78125 66.40625 
z
M 31.78125 74.21875 
Q 44.046875 74.21875 50.515625 64.515625 
Q 56.984375 54.828125 56.984375 36.375 
Q 56.984375 17.96875 50.515625 8.265625 
Q 44.046875 -1.421875 31.78125 -1.421875 
Q 19.53125 -1.421875 13.0625 8.265625 
Q 6.59375 17.96875 6.59375 36.375 
Q 6.59375 54.828125 13.0625 64.515625 
Q 19.53125 74.21875 31.78125 74.21875 
z
" id="DejaVuSans-48"/>
      </defs>
      <g transform="translate(77.573295 399.078438)scale(0.1 -0.1)">
       <use xlink:href="#DejaVuSans-48"/>
      </g>
     </g>
    </g>
    <g id="xtick_2">
     <g id="line2d_2">
      <g>
       <use style="stroke:#000000;stroke-width:0.8;" x="151.767796" xlink:href="#m35273f0f46" y="384.48"/>
      </g>
     </g>
     <g id="text_2">
      <!-- 720 -->
      <defs>
       <path d="M 8.203125 72.90625 
L 55.078125 72.90625 
L 55.078125 68.703125 
L 28.609375 0 
L 18.3125 0 
L 43.21875 64.59375 
L 8.203125 64.59375 
z
" id="DejaVuSans-55"/>
       <path d="M 19.1875 8.296875 
L 53.609375 8.296875 
L 53.609375 0 
L 7.328125 0 
L 7.328125 8.296875 
Q 12.9375 14.109375 22.625 23.890625 
Q 32.328125 33.6875 34.8125 36.53125 
Q 39.546875 41.84375 41.421875 45.53125 
Q 43.3125 49.21875 43.3125 52.78125 
Q 43.3125 58.59375 39.234375 62.25 
Q 35.15625 65.921875 28.609375 65.921875 
Q 23.96875 65.921875 18.8125 64.3125 
Q 13.671875 62.703125 7.8125 59.421875 
L 7.8125 69.390625 
Q 13.765625 71.78125 18.9375 73 
Q 24.125 74.21875 28.421875 74.21875 
Q 39.75 74.21875 46.484375 68.546875 
Q 53.21875 62.890625 53.21875 53.421875 
Q 53.21875 48.921875 51.53125 44.890625 
Q 49.859375 40.875 45.40625 35.40625 
Q 44.1875 33.984375 37.640625 27.21875 
Q 31.109375 20.453125 19.1875 8.296875 
z
" id="DejaVuSans-50"/>
      </defs>
      <g transform="translate(142.224046 399.078438)scale(0.1 -0.1)">
       <use xlink:href="#DejaVuSans-55"/>
       <use x="63.623047" xlink:href="#DejaVuSans-50"/>
       <use x="127.246094" xlink:href="#DejaVuSans-48"/>
      </g>
     </g>
    </g>
    <g id="xtick_3">
     <g id="line2d_3">
      <g>
       <use style="stroke:#000000;stroke-width:0.8;" x="222.781046" xlink:href="#m35273f0f46" y="384.48"/>
      </g>
     </g>
     <g id="text_3">
      <!-- 1440 -->
      <defs>
       <path d="M 12.40625 8.296875 
L 28.515625 8.296875 
L 28.515625 63.921875 
L 10.984375 60.40625 
L 10.984375 69.390625 
L 28.421875 72.90625 
L 38.28125 72.90625 
L 38.28125 8.296875 
L 54.390625 8.296875 
L 54.390625 0 
L 12.40625 0 
z
" id="DejaVuSans-49"/>
       <path d="M 37.796875 64.3125 
L 12.890625 25.390625 
L 37.796875 25.390625 
z
M 35.203125 72.90625 
L 47.609375 72.90625 
L 47.609375 25.390625 
L 58.015625 25.390625 
L 58.015625 17.1875 
L 47.609375 17.1875 
L 47.609375 0 
L 37.796875 0 
L 37.796875 17.1875 
L 4.890625 17.1875 
L 4.890625 26.703125 
z
" id="DejaVuSans-52"/>
      </defs>
      <g transform="translate(210.056046 399.078438)scale(0.1 -0.1)">
       <use xlink:href="#DejaVuSans-49"/>
       <use x="63.623047" xlink:href="#DejaVuSans-52"/>
       <use x="127.246094" xlink:href="#DejaVuSans-52"/>
       <use x="190.869141" xlink:href="#DejaVuSans-48"/>
      </g>
     </g>
    </g>
    <g id="xtick_4">
     <g id="line2d_4">
      <g>
       <use style="stroke:#000000;stroke-width:0.8;" x="293.794296" xlink:href="#m35273f0f46" y="384.48"/>
      </g>
     </g>
     <g id="text_4">
      <!-- 2160 -->
      <defs>
       <path d="M 33.015625 40.375 
Q 26.375 40.375 22.484375 35.828125 
Q 18.609375 31.296875 18.609375 23.390625 
Q 18.609375 15.53125 22.484375 10.953125 
Q 26.375 6.390625 33.015625 6.390625 
Q 39.65625 6.390625 43.53125 10.953125 
Q 47.40625 15.53125 47.40625 23.390625 
Q 47.40625 31.296875 43.53125 35.828125 
Q 39.65625 40.375 33.015625 40.375 
z
M 52.59375 71.296875 
L 52.59375 62.3125 
Q 48.875 64.0625 45.09375 64.984375 
Q 41.3125 65.921875 37.59375 65.921875 
Q 27.828125 65.921875 22.671875 59.328125 
Q 17.53125 52.734375 16.796875 39.40625 
Q 19.671875 43.65625 24.015625 45.921875 
Q 28.375 48.1875 33.59375 48.1875 
Q 44.578125 48.1875 50.953125 41.515625 
Q 57.328125 34.859375 57.328125 23.390625 
Q 57.328125 12.15625 50.6875 5.359375 
Q 44.046875 -1.421875 33.015625 -1.421875 
Q 20.359375 -1.421875 13.671875 8.265625 
Q 6.984375 17.96875 6.984375 36.375 
Q 6.984375 53.65625 15.1875 63.9375 
Q 23.390625 74.21875 37.203125 74.21875 
Q 40.921875 74.21875 44.703125 73.484375 
Q 48.484375 72.75 52.59375 71.296875 
z
" id="DejaVuSans-54"/>
      </defs>
      <g transform="translate(281.069296 399.078438)scale(0.1 -0.1)">
       <use xlink:href="#DejaVuSans-50"/>
       <use x="63.623047" xlink:href="#DejaVuSans-49"/>
       <use x="127.246094" xlink:href="#DejaVuSans-54"/>
       <use x="190.869141" xlink:href="#DejaVuSans-48"/>
      </g>
     </g>
    </g>
    <g id="xtick_5">
     <g id="line2d_5">
      <g>
       <use style="stroke:#000000;stroke-width:0.8;" x="364.807547" xlink:href="#m35273f0f46" y="384.48"/>
      </g>
     </g>
     <g id="text_5">
      <!-- 2880 -->
      <defs>
       <path d="M 31.78125 34.625 
Q 24.75 34.625 20.71875 30.859375 
Q 16.703125 27.09375 16.703125 20.515625 
Q 16.703125 13.921875 20.71875 10.15625 
Q 24.75 6.390625 31.78125 6.390625 
Q 38.8125 6.390625 42.859375 10.171875 
Q 46.921875 13.96875 46.921875 20.515625 
Q 46.921875 27.09375 42.890625 30.859375 
Q 38.875 34.625 31.78125 34.625 
z
M 21.921875 38.8125 
Q 15.578125 40.375 12.03125 44.71875 
Q 8.5 49.078125 8.5 55.328125 
Q 8.5 64.0625 14.71875 69.140625 
Q 20.953125 74.21875 31.78125 74.21875 
Q 42.671875 74.21875 48.875 69.140625 
Q 55.078125 64.0625 55.078125 55.328125 
Q 55.078125 49.078125 51.53125 44.71875 
Q 48 40.375 41.703125 38.8125 
Q 48.828125 37.15625 52.796875 32.3125 
Q 56.78125 27.484375 56.78125 20.515625 
Q 56.78125 9.90625 50.3125 4.234375 
Q 43.84375 -1.421875 31.78125 -1.421875 
Q 19.734375 -1.421875 13.25 4.234375 
Q 6.78125 9.90625 6.78125 20.515625 
Q 6.78125 27.484375 10.78125 32.3125 
Q 14.796875 37.15625 21.921875 38.8125 
z
M 18.3125 54.390625 
Q 18.3125 48.734375 21.84375 45.5625 
Q 25.390625 42.390625 31.78125 42.390625 
Q 38.140625 42.390625 41.71875 45.5625 
Q 45.3125 48.734375 45.3125 54.390625 
Q 45.3125 60.0625 41.71875 63.234375 
Q 38.140625 66.40625 31.78125 66.40625 
Q 25.390625 66.40625 21.84375 63.234375 
Q 18.3125 60.0625 18.3125 54.390625 
z
" id="DejaVuSans-56"/>
      </defs>
      <g transform="translate(352.082547 399.078438)scale(0.1 -0.1)">
       <use xlink:href="#DejaVuSans-50"/>
       <use x="63.623047" xlink:href="#DejaVuSans-56"/>
       <use x="127.246094" xlink:href="#DejaVuSans-56"/>
       <use x="190.869141" xlink:href="#DejaVuSans-48"/>
      </g>
     </g>
    </g>
    <g id="text_6">
     <!-- time [ms] -->
     <defs>
      <path d="M 18.3125 70.21875 
L 18.3125 54.6875 
L 36.8125 54.6875 
L 36.8125 47.703125 
L 18.3125 47.703125 
L 18.3125 18.015625 
Q 18.3125 11.328125 20.140625 9.421875 
Q 21.96875 7.515625 27.59375 7.515625 
L 36.8125 7.515625 
L 36.8125 0 
L 27.59375 0 
Q 17.1875 0 13.234375 3.875 
Q 9.28125 7.765625 9.28125 18.015625 
L 9.28125 47.703125 
L 2.6875 47.703125 
L 2.6875 54.6875 
L 9.28125 54.6875 
L 9.28125 70.21875 
z
" id="DejaVuSans-116"/>
      <path d="M 9.421875 54.6875 
L 18.40625 54.6875 
L 18.40625 0 
L 9.421875 0 
z
M 9.421875 75.984375 
L 18.40625 75.984375 
L 18.40625 64.59375 
L 9.421875 64.59375 
z
" id="DejaVuSans-105"/>
      <path d="M 52 44.1875 
Q 55.375 50.25 60.0625 53.125 
Q 64.75 56 71.09375 56 
Q 79.640625 56 84.28125 50.015625 
Q 88.921875 44.046875 88.921875 33.015625 
L 88.921875 0 
L 79.890625 0 
L 79.890625 32.71875 
Q 79.890625 40.578125 77.09375 44.375 
Q 74.3125 48.1875 68.609375 48.1875 
Q 61.625 48.1875 57.5625 43.546875 
Q 53.515625 38.921875 53.515625 30.90625 
L 53.515625 0 
L 44.484375 0 
L 44.484375 32.71875 
Q 44.484375 40.625 41.703125 44.40625 
Q 38.921875 48.1875 33.109375 48.1875 
Q 26.21875 48.1875 22.15625 43.53125 
Q 18.109375 38.875 18.109375 30.90625 
L 18.109375 0 
L 9.078125 0 
L 9.078125 54.6875 
L 18.109375 54.6875 
L 18.109375 46.1875 
Q 21.1875 51.21875 25.484375 53.609375 
Q 29.78125 56 35.6875 56 
Q 41.65625 56 45.828125 52.96875 
Q 50 49.953125 52 44.1875 
z
" id="DejaVuSans-109"/>
      <path d="M 56.203125 29.59375 
L 56.203125 25.203125 
L 14.890625 25.203125 
Q 15.484375 15.921875 20.484375 11.0625 
Q 25.484375 6.203125 34.421875 6.203125 
Q 39.59375 6.203125 44.453125 7.46875 
Q 49.3125 8.734375 54.109375 11.28125 
L 54.109375 2.78125 
Q 49.265625 0.734375 44.1875 -0.34375 
Q 39.109375 -1.421875 33.890625 -1.421875 
Q 20.796875 -1.421875 13.15625 6.1875 
Q 5.515625 13.8125 5.515625 26.8125 
Q 5.515625 40.234375 12.765625 48.109375 
Q 20.015625 56 32.328125 56 
Q 43.359375 56 49.78125 48.890625 
Q 56.203125 41.796875 56.203125 29.59375 
z
M 47.21875 32.234375 
Q 47.125 39.59375 43.09375 43.984375 
Q 39.0625 48.390625 32.421875 48.390625 
Q 24.90625 48.390625 20.390625 44.140625 
Q 15.875 39.890625 15.1875 32.171875 
z
" id="DejaVuSans-101"/>
      <path id="DejaVuSans-32"/>
      <path d="M 8.59375 75.984375 
L 29.296875 75.984375 
L 29.296875 69 
L 17.578125 69 
L 17.578125 -6.203125 
L 29.296875 -6.203125 
L 29.296875 -13.1875 
L 8.59375 -13.1875 
z
" id="DejaVuSans-91"/>
      <path d="M 44.28125 53.078125 
L 44.28125 44.578125 
Q 40.484375 46.53125 36.375 47.5 
Q 32.28125 48.484375 27.875 48.484375 
Q 21.1875 48.484375 17.84375 46.4375 
Q 14.5 44.390625 14.5 40.28125 
Q 14.5 37.15625 16.890625 35.375 
Q 19.28125 33.59375 26.515625 31.984375 
L 29.59375 31.296875 
Q 39.15625 29.25 43.1875 25.515625 
Q 47.21875 21.78125 47.21875 15.09375 
Q 47.21875 7.46875 41.1875 3.015625 
Q 35.15625 -1.421875 24.609375 -1.421875 
Q 20.21875 -1.421875 15.453125 -0.5625 
Q 10.6875 0.296875 5.421875 2 
L 5.421875 11.28125 
Q 10.40625 8.6875 15.234375 7.390625 
Q 20.0625 6.109375 24.8125 6.109375 
Q 31.15625 6.109375 34.5625 8.28125 
Q 37.984375 10.453125 37.984375 14.40625 
Q 37.984375 18.0625 35.515625 20.015625 
Q 33.0625 21.96875 24.703125 23.78125 
L 21.578125 24.515625 
Q 13.234375 26.265625 9.515625 29.90625 
Q 5.8125 33.546875 5.8125 39.890625 
Q 5.8125 47.609375 11.28125 51.796875 
Q 16.75 56 26.8125 56 
Q 31.78125 56 36.171875 55.265625 
Q 40.578125 54.546875 44.28125 53.078125 
z
" id="DejaVuSans-115"/>
      <path d="M 30.421875 75.984375 
L 30.421875 -13.1875 
L 9.71875 -13.1875 
L 9.71875 -6.203125 
L 21.390625 -6.203125 
L 21.390625 69 
L 9.71875 69 
L 9.71875 75.984375 
z
" id="DejaVuSans-93"/>
     </defs>
     <g transform="translate(234.038281 412.756563)scale(0.1 -0.1)">
      <use xlink:href="#DejaVuSans-116"/>
      <use x="39.208984" xlink:href="#DejaVuSans-105"/>
      <use x="66.992188" xlink:href="#DejaVuSans-109"/>
      <use x="164.404297" xlink:href="#DejaVuSans-101"/>
      <use x="225.927734" xlink:href="#DejaVuSans-32"/>
      <use x="257.714844" xlink:href="#DejaVuSans-91"/>
      <use x="296.728516" xlink:href="#DejaVuSans-109"/>
      <use x="394.140625" xlink:href="#DejaVuSans-115"/>
      <use x="446.240234" xlink:href="#DejaVuSans-93"/>
     </g>
    </g>
   </g>
   <g id="matplotlib.axis_2">
    <g id="ytick_1">
     <g id="line2d_6">
      <defs>
       <path d="M 0 0 
L -3.5 0 
" id="m510b24dffe" style="stroke:#000000;stroke-width:0.8;"/>
      </defs>
      <g>
       <use style="stroke:#000000;stroke-width:0.8;" x="63" xlink:href="#m510b24dffe" y="365.434371"/>
      </g>
     </g>
     <g id="text_7">
      <!-- −80 -->
      <defs>
       <path d="M 10.59375 35.5 
L 73.1875 35.5 
L 73.1875 27.203125 
L 10.59375 27.203125 
z
" id="DejaVuSans-8722"/>
      </defs>
      <g transform="translate(34.895313 369.23359)scale(0.1 -0.1)">
       <use xlink:href="#DejaVuSans-8722"/>
       <use x="83.789062" xlink:href="#DejaVuSans-56"/>
       <use x="147.412109" xlink:href="#DejaVuSans-48"/>
      </g>
     </g>
    </g>
    <g id="ytick_2">
     <g id="line2d_7">
      <g>
       <use style="stroke:#000000;stroke-width:0.8;" x="63" xlink:href="#m510b24dffe" y="318.819863"/>
      </g>
     </g>
     <g id="text_8">
      <!-- −60 -->
      <g transform="translate(34.895313 322.619081)scale(0.1 -0.1)">
       <use xlink:href="#DejaVuSans-8722"/>
       <use x="83.789062" xlink:href="#DejaVuSans-54"/>
       <use x="147.412109" xlink:href="#DejaVuSans-48"/>
      </g>
     </g>
    </g>
    <g id="ytick_3">
     <g id="line2d_8">
      <g>
       <use style="stroke:#000000;stroke-width:0.8;" x="63" xlink:href="#m510b24dffe" y="272.205354"/>
      </g>
     </g>
     <g id="text_9">
      <!-- −40 -->
      <g transform="translate(34.895313 276.004573)scale(0.1 -0.1)">
       <use xlink:href="#DejaVuSans-8722"/>
       <use x="83.789062" xlink:href="#DejaVuSans-52"/>
       <use x="147.412109" xlink:href="#DejaVuSans-48"/>
      </g>
     </g>
    </g>
    <g id="ytick_4">
     <g id="line2d_9">
      <g>
       <use style="stroke:#000000;stroke-width:0.8;" x="63" xlink:href="#m510b24dffe" y="225.590845"/>
      </g>
     </g>
     <g id="text_10">
      <!-- −20 -->
      <g transform="translate(34.895313 229.390064)scale(0.1 -0.1)">
       <use xlink:href="#DejaVuSans-8722"/>
       <use x="83.789062" xlink:href="#DejaVuSans-50"/>
       <use x="147.412109" xlink:href="#DejaVuSans-48"/>
      </g>
     </g>
    </g>
    <g id="ytick_5">
     <g id="line2d_10">
      <g>
       <use style="stroke:#000000;stroke-width:0.8;" x="63" xlink:href="#m510b24dffe" y="178.976336"/>
      </g>
     </g>
     <g id="text_11">
      <!-- 0 -->
      <g transform="translate(49.6375 182.775555)scale(0.1 -0.1)">
       <use xlink:href="#DejaVuSans-48"/>
      </g>
     </g>
    </g>
    <g id="ytick_6">
     <g id="line2d_11">
      <g>
       <use style="stroke:#000000;stroke-width:0.8;" x="63" xlink:href="#m510b24dffe" y="132.361828"/>
      </g>
     </g>
     <g id="text_12">
      <!-- 20 -->
      <g transform="translate(43.275 136.161046)scale(0.1 -0.1)">
       <use xlink:href="#DejaVuSans-50"/>
       <use x="63.623047" xlink:href="#DejaVuSans-48"/>
      </g>
     </g>
    </g>
    <g id="ytick_7">
     <g id="line2d_12">
      <g>
       <use style="stroke:#000000;stroke-width:0.8;" x="63" xlink:href="#m510b24dffe" y="85.747319"/>
      </g>
     </g>
     <g id="text_13">
      <!-- 40 -->
      <g transform="translate(43.275 89.546538)scale(0.1 -0.1)">
       <use xlink:href="#DejaVuSans-52"/>
       <use x="63.623047" xlink:href="#DejaVuSans-48"/>
      </g>
     </g>
    </g>
    <g id="text_14">
     <!-- Voltage [mV] -->
     <defs>
      <path d="M 28.609375 0 
L 0.78125 72.90625 
L 11.078125 72.90625 
L 34.1875 11.53125 
L 57.328125 72.90625 
L 67.578125 72.90625 
L 39.796875 0 
z
" id="DejaVuSans-86"/>
      <path d="M 30.609375 48.390625 
Q 23.390625 48.390625 19.1875 42.75 
Q 14.984375 37.109375 14.984375 27.296875 
Q 14.984375 17.484375 19.15625 11.84375 
Q 23.34375 6.203125 30.609375 6.203125 
Q 37.796875 6.203125 41.984375 11.859375 
Q 46.1875 17.53125 46.1875 27.296875 
Q 46.1875 37.015625 41.984375 42.703125 
Q 37.796875 48.390625 30.609375 48.390625 
z
M 30.609375 56 
Q 42.328125 56 49.015625 48.375 
Q 55.71875 40.765625 55.71875 27.296875 
Q 55.71875 13.875 49.015625 6.21875 
Q 42.328125 -1.421875 30.609375 -1.421875 
Q 18.84375 -1.421875 12.171875 6.21875 
Q 5.515625 13.875 5.515625 27.296875 
Q 5.515625 40.765625 12.171875 48.375 
Q 18.84375 56 30.609375 56 
z
" id="DejaVuSans-111"/>
      <path d="M 9.421875 75.984375 
L 18.40625 75.984375 
L 18.40625 0 
L 9.421875 0 
z
" id="DejaVuSans-108"/>
      <path d="M 34.28125 27.484375 
Q 23.390625 27.484375 19.1875 25 
Q 14.984375 22.515625 14.984375 16.5 
Q 14.984375 11.71875 18.140625 8.90625 
Q 21.296875 6.109375 26.703125 6.109375 
Q 34.1875 6.109375 38.703125 11.40625 
Q 43.21875 16.703125 43.21875 25.484375 
L 43.21875 27.484375 
z
M 52.203125 31.203125 
L 52.203125 0 
L 43.21875 0 
L 43.21875 8.296875 
Q 40.140625 3.328125 35.546875 0.953125 
Q 30.953125 -1.421875 24.3125 -1.421875 
Q 15.921875 -1.421875 10.953125 3.296875 
Q 6 8.015625 6 15.921875 
Q 6 25.140625 12.171875 29.828125 
Q 18.359375 34.515625 30.609375 34.515625 
L 43.21875 34.515625 
L 43.21875 35.40625 
Q 43.21875 41.609375 39.140625 45 
Q 35.0625 48.390625 27.6875 48.390625 
Q 23 48.390625 18.546875 47.265625 
Q 14.109375 46.140625 10.015625 43.890625 
L 10.015625 52.203125 
Q 14.9375 54.109375 19.578125 55.046875 
Q 24.21875 56 28.609375 56 
Q 40.484375 56 46.34375 49.84375 
Q 52.203125 43.703125 52.203125 31.203125 
z
" id="DejaVuSans-97"/>
      <path d="M 45.40625 27.984375 
Q 45.40625 37.75 41.375 43.109375 
Q 37.359375 48.484375 30.078125 48.484375 
Q 22.859375 48.484375 18.828125 43.109375 
Q 14.796875 37.75 14.796875 27.984375 
Q 14.796875 18.265625 18.828125 12.890625 
Q 22.859375 7.515625 30.078125 7.515625 
Q 37.359375 7.515625 41.375 12.890625 
Q 45.40625 18.265625 45.40625 27.984375 
z
M 54.390625 6.78125 
Q 54.390625 -7.171875 48.1875 -13.984375 
Q 42 -20.796875 29.203125 -20.796875 
Q 24.46875 -20.796875 20.265625 -20.09375 
Q 16.0625 -19.390625 12.109375 -17.921875 
L 12.109375 -9.1875 
Q 16.0625 -11.328125 19.921875 -12.34375 
Q 23.78125 -13.375 27.78125 -13.375 
Q 36.625 -13.375 41.015625 -8.765625 
Q 45.40625 -4.15625 45.40625 5.171875 
L 45.40625 9.625 
Q 42.625 4.78125 38.28125 2.390625 
Q 33.9375 0 27.875 0 
Q 17.828125 0 11.671875 7.65625 
Q 5.515625 15.328125 5.515625 27.984375 
Q 5.515625 40.671875 11.671875 48.328125 
Q 17.828125 56 27.875 56 
Q 33.9375 56 38.28125 53.609375 
Q 42.625 51.21875 45.40625 46.390625 
L 45.40625 54.6875 
L 54.390625 54.6875 
z
" id="DejaVuSans-103"/>
     </defs>
     <g transform="translate(28.815625 251.079531)rotate(-90)scale(0.1 -0.1)">
      <use xlink:href="#DejaVuSans-86"/>
      <use x="68.298828" xlink:href="#DejaVuSans-111"/>
      <use x="129.480469" xlink:href="#DejaVuSans-108"/>
      <use x="157.263672" xlink:href="#DejaVuSans-116"/>
      <use x="196.472656" xlink:href="#DejaVuSans-97"/>
      <use x="257.751953" xlink:href="#DejaVuSans-103"/>
      <use x="321.228516" xlink:href="#DejaVuSans-101"/>
      <use x="382.751953" xlink:href="#DejaVuSans-32"/>
      <use x="414.539062" xlink:href="#DejaVuSans-91"/>
      <use x="453.552734" xlink:href="#DejaVuSans-109"/>
      <use x="550.964844" xlink:href="#DejaVuSans-86"/>
      <use x="619.373047" xlink:href="#DejaVuSans-93"/>
     </g>
    </g>
   </g>
   <g id="line2d_13">
    <path clip-path="url(#p3d7710c721)" d="M 80.754545 330.47349 
L 80.784134 330.593567 
L 80.90249 330.833648 
L 80.941942 330.809337 
L 81.114543 330.467452 
L 82.110701 328.234124 
L 82.722204 327.488528 
L 83.397816 327.011886 
L 84.231236 326.704718 
L 85.424653 326.521048 
L 87.643817 326.442786 
L 96.771979 326.479869 
L 100.480448 326.495872 
L 100.633324 339.94196 
L 100.968664 349.496068 
L 101.451949 357.334158 
L 101.974685 362.479128 
L 102.507285 365.684678 
L 103.02509 367.55737 
L 103.523169 368.596109 
L 104.001522 369.12064 
L 104.484807 369.335535 
L 105.042063 369.33204 
L 105.816305 369.082301 
L 109.914361 367.449539 
L 111.67983 367.15924 
L 114.111047 367.003948 
L 118.983345 366.965684 
L 130.069303 366.979387 
L 130.22711 353.048096 
L 130.582176 342.255265 
L 131.085187 333.19796 
L 131.602992 327.549301 
L 132.106002 324.296421 
L 132.579424 322.555696 
L 133.013394 321.714595 
L 133.412843 321.374498 
L 133.812293 321.316671 
L 134.295577 321.489105 
L 135.035299 322.022798 
L 137.895555 324.272156 
L 139.261573 324.966923 
L 139.932254 325.2252 
L 140.045678 330.817795 
L 140.124582 330.809337 
L 140.15417 330.772144 
L 140.395813 330.206705 
L 141.165123 328.444582 
L 141.771695 327.619766 
L 142.427581 327.096754 
L 143.216617 326.758569 
L 144.306473 326.550707 
L 146.185365 326.450907 
L 151.984781 326.457355 
L 159.663088 326.495872 
L 159.815964 323.793205 
L 160.156236 321.819723 
L 160.634589 320.267743 
L 161.142531 319.322815 
L 161.670199 318.786919 
L 162.247182 318.514229 
L 162.957314 318.434449 
L 164.042239 318.562806 
L 169.235083 319.40556 
L 172.770951 319.621574 
L 178.831735 319.737972 
L 189.251943 319.769214 
L 189.404818 322.475251 
L 189.735227 324.369307 
L 190.193855 325.802781 
L 190.691934 326.676379 
L 191.224533 327.178905 
L 191.831105 327.445885 
L 192.625072 327.539229 
L 193.936845 327.438564 
L 199.114894 326.852123 
L 199.228318 330.817795 
L 199.307222 330.809337 
L 199.336811 330.772144 
L 199.578453 330.206705 
L 200.347763 328.444582 
L 200.954335 327.619766 
L 201.610221 327.096754 
L 202.399257 326.758569 
L 203.489113 326.550707 
L 205.368005 326.450907 
L 211.167421 326.457355 
L 218.845729 326.495872 
L 218.998604 321.079474 
L 219.343808 316.998163 
L 219.85175 313.491662 
L 220.423801 311.012719 
L 221.025441 309.333947 
L 221.602423 308.325076 
L 222.095571 307.865699 
L 222.495021 307.770602 
L 222.879676 307.912528 
L 223.348166 308.347631 
L 224.186517 309.499778 
L 225.404591 311.072969 
L 226.30212 311.866074 
L 227.248963 312.405882 
L 228.368408 312.780861 
L 229.872508 313.034815 
L 232.274137 313.188605 
L 237.723418 313.261063 
L 248.434583 313.277307 
L 248.59239 318.85994 
L 248.922799 322.658167 
L 249.366632 325.392509 
L 249.835122 327.002847 
L 250.308544 327.90043 
L 250.79676 328.378741 
L 251.334291 328.598808 
L 252.014834 328.625553 
L 253.089896 328.417426 
L 257.967125 327.272771 
L 258.297534 327.221985 
L 258.410958 330.817795 
L 258.489862 330.809337 
L 258.519451 330.772144 
L 258.761093 330.206705 
L 259.530403 328.444582 
L 260.136975 327.619766 
L 260.792861 327.096754 
L 261.581897 326.758569 
L 262.671753 326.550707 
L 264.550645 326.450907 
L 270.350061 326.457355 
L 278.028369 326.495872 
L 278.181244 318.350045 
L 278.546174 311.651479 
L 279.059047 302.565668 
L 279.088636 296.504883 
L 279.133019 66.985176 
L 279.23658 175.577557 
L 279.458497 340.899332 
L 279.542332 341.443619 
L 279.591646 341.335022 
L 279.729728 340.28544 
L 280.025616 336.004259 
L 281.366978 314.326279 
L 281.939029 309.669966 
L 282.713271 305.315865 
L 283.142309 302.420073 
L 283.270527 299.86537 
L 283.300116 294.442896 
L 283.344499 68.061826 
L 283.452992 185.87942 
L 283.660114 339.980365 
L 283.763675 340.875019 
L 283.808058 340.797161 
L 283.931345 339.965342 
L 284.207508 336.269647 
L 285.543938 316.143382 
L 286.076537 312.342636 
L 286.633794 309.875369 
L 287.235434 308.173775 
L 287.881457 306.986952 
L 288.557069 306.190108 
L 289.247476 305.705651 
L 289.947745 305.478609 
L 290.707193 305.470032 
L 291.654036 305.697358 
L 295.801407 306.952909 
L 297.764134 307.139779 
L 301.083018 307.196326 
L 307.617223 307.171711 
L 307.77503 315.715542 
L 308.095576 321.325214 
L 308.524614 325.244571 
L 308.97831 327.5145 
L 309.436937 328.765691 
L 309.890633 329.409719 
L 310.359123 329.708387 
L 310.896654 329.784332 
L 311.636376 329.645388 
L 313.061572 329.1026 
L 315.744295 328.114545 
L 317.480174 327.658185 
L 317.593598 330.817795 
L 317.672502 330.809337 
L 317.702091 330.772144 
L 317.943733 330.206705 
L 318.713043 328.444582 
L 319.319615 327.619766 
L 319.975501 327.096754 
L 320.764537 326.758569 
L 321.854393 326.550707 
L 323.733286 326.450907 
L 329.532701 326.457355 
L 337.211009 326.495872 
L 337.368816 315.420269 
L 337.827443 297.799914 
L 337.857032 102.070975 
L 337.871826 66.96 
L 337.955662 145.890781 
L 338.202235 339.525744 
L 338.261413 339.808932 
L 338.320591 339.603277 
L 338.483329 337.936816 
L 338.823601 331.766316 
L 340.036744 308.031475 
L 340.465783 300.234081 
L 340.505234 295.888715 
L 340.529892 191.263583 
L 340.554549 68.35913 
L 340.638384 159.45417 
L 340.875095 339.851136 
L 340.939204 340.194858 
L 340.993451 340.025409 
L 341.146326 338.557948 
L 341.471804 332.935702 
L 342.660289 310.704335 
L 343.626859 297.236146 
L 343.646585 282.663279 
L 343.686036 69.321415 
L 343.784666 176.604958 
L 344.006582 338.630459 
L 344.080554 339.137032 
L 344.134801 338.994039 
L 344.282745 337.653127 
L 344.603291 332.30588 
L 345.722736 312.249584 
L 346.299718 306.607505 
L 347.147932 298.967466 
L 347.212041 295.228477 
L 347.231767 251.904675 
L 347.266288 69.819971 
L 347.355054 167.847266 
L 347.586834 337.849691 
L 347.665737 338.400978 
L 347.719983 338.266186 
L 347.862996 337.024724 
L 348.173679 332.017907 
L 349.27833 312.900342 
L 349.830655 307.781189 
L 350.540788 303.352658 
L 351.043798 299.843645 
L 351.172016 297.236861 
L 351.201605 292.095394 
L 351.25092 70.3193 
L 351.354481 190.226442 
L 351.556672 336.996309 
L 351.655301 337.903016 
L 351.699684 337.810402 
L 351.827903 336.816499 
L 352.113928 332.504713 
L 353.32214 312.44886 
L 353.869534 307.831888 
L 354.530351 304.145152 
L 355.309525 299.821014 
L 355.452537 297.507254 
L 355.491989 292.378667 
L 355.541304 70.575828 
L 355.649796 196.880172 
L 355.837192 336.363238 
L 355.950616 337.618259 
L 355.985137 337.56016 
L 356.098561 336.792031 
L 356.354997 333.224206 
L 357.730879 311.434406 
L 358.288136 307.289431 
L 358.96868 303.906971 
L 359.767579 299.951911 
L 359.930317 297.80101 
L 359.979632 293.431291 
L 360.004289 192.739972 
L 360.028947 70.885537 
L 360.112782 159.493892 
L 360.349493 336.73951 
L 360.443191 337.446282 
L 360.487574 337.350095 
L 360.615792 336.369652 
L 360.901818 332.121348 
L 362.080441 312.893413 
L 362.622903 308.381752 
L 363.244269 305.045864 
L 364.437686 299.186728 
L 364.55111 296.667829 
L 364.575767 291.233946 
L 364.625082 70.961365 
L 364.723712 184.141631 
L 364.935765 336.452552 
L 365.034395 337.314651 
L 365.078778 337.228557 
L 365.206996 336.265787 
L 365.493022 332.042149 
L 366.671645 312.920752 
L 366.799863 311.660936 
L 366.947807 320.793877 
L 367.228901 325.037093 
L 367.623419 327.859314 
L 368.052458 329.462856 
L 368.486428 330.300218 
L 368.920398 330.691021 
L 369.388888 330.819953 
L 369.980665 330.739226 
L 370.912714 330.358543 
L 375.282001 328.34476 
L 376.662814 327.918105 
L 376.776238 330.817795 
L 376.855142 330.809337 
L 376.884731 330.772144 
L 377.126373 330.206705 
L 377.895683 328.444582 
L 378.502255 327.619766 
L 379.158141 327.096754 
L 379.947177 326.758569 
L 381.037033 326.550707 
L 382.915926 326.450907 
L 388.715341 326.457355 
L 396.393649 326.495872 
L 396.551456 312.580084 
L 396.817756 295.852968 
L 396.862139 66.984375 
L 396.9657 176.972477 
L 397.187616 338.050275 
L 397.227068 338.221538 
L 397.286246 337.994312 
L 397.453916 335.999412 
L 397.804051 328.743748 
L 399.002399 296.98864 
L 399.017194 285.493576 
L 399.056646 68.298045 
L 399.155275 179.117358 
L 399.37226 339.145909 
L 399.416643 339.373429 
L 399.480753 339.117056 
L 399.653354 337.032944 
L 400.013352 329.594682 
L 401.231426 302.693011 
L 401.413891 296.939376 
L 401.433617 291.350025 
L 401.478 69.280295 
L 401.57663 182.822037 
L 401.788683 338.0788 
L 401.842929 338.415764 
L 401.902107 338.203776 
L 402.064846 336.356274 
L 402.414981 329.403261 
L 403.529494 305.939346 
L 403.968396 297.306735 
L 404.002916 291.342484 
L 404.047299 70.160701 
L 404.15086 188.987776 
L 404.353051 337.179982 
L 404.422091 337.685211 
L 404.476338 337.494357 
L 404.634145 335.779128 
L 404.974417 329.230228 
L 406.059341 307.134746 
L 406.670844 296.654369 
L 406.700433 291.757189 
L 406.749748 70.590665 
L 406.85824 203.326122 
L 407.02591 335.912261 
L 407.12454 337.19144 
L 407.168923 337.06662 
L 407.307005 335.744312 
L 407.612756 330.29894 
L 408.840694 306.382434 
L 409.466991 296.586109 
L 409.501511 290.374667 
L 409.550826 71.07313 
L 409.649456 189.422301 
L 409.851646 336.23609 
L 409.925618 336.836057 
L 409.979864 336.668386 
L 410.127809 335.163596 
L 410.453286 329.193125 
L 411.543142 307.927164 
L 412.351904 295.387723 
L 412.37163 288.771665 
L 412.416013 71.166782 
L 412.509711 177.431422 
L 412.731628 336.199064 
L 412.795737 336.624167 
L 412.854915 336.436933 
L 413.012722 334.78462 
L 413.352994 328.437452 
L 414.363946 308.741342 
L 415.271338 294.941785 
L 415.291064 277.195355 
L 415.335447 71.347496 
L 415.424214 175.194769 
L 415.64613 336.000495 
L 415.715171 336.46208 
L 415.769417 336.290354 
L 415.922293 334.73162 
L 416.257633 328.569809 
L 417.28338 308.752636 
L 418.22036 294.53922 
L 418.235155 285.354858 
L 418.279538 71.308113 
L 418.373236 179.210447 
L 418.595152 335.960285 
L 418.664193 336.387269 
L 418.718439 336.208738 
L 418.871315 334.651451 
L 419.206655 328.512033 
L 420.227471 308.864375 
L 421.189109 294.559925 
L 421.203903 286.204091 
L 421.248286 71.377869 
L 421.341984 178.825514 
L 421.563901 335.881188 
L 421.632942 336.318198 
L 421.687188 336.145039 
L 421.840064 334.59968 
L 422.170472 328.588264 
L 423.206082 308.765727 
L 424.16772 294.880552 
L 424.187446 278.1404 
L 424.231829 71.464615 
L 424.320596 174.725147 
L 424.547444 335.844573 
L 424.611553 336.249591 
L 424.670731 336.063057 
L 424.828538 334.427699 
L 425.16881 328.14312 
L 425.982503 311.734863 
L 426.130447 322.346485 
L 426.391816 326.307643 
L 426.766608 328.848479 
L 427.185783 330.298162 
L 427.60989 331.03611 
L 428.033997 331.362087 
L 428.502487 331.442771 
L 429.11399 331.303718 
L 430.11508 330.81402 
L 433.882727 328.824214 
L 435.845455 328.108923 
L 435.845455 328.108923 
" style="fill:none;stroke:#ff0000;stroke-linecap:square;stroke-width:1.5;"/>
   </g>
   <g id="patch_3">
    <path d="M 63 384.48 
L 63 51.84 
" style="fill:none;stroke:#000000;stroke-linecap:square;stroke-linejoin:miter;stroke-width:0.8;"/>
   </g>
   <g id="patch_4">
    <path d="M 453.6 384.48 
L 453.6 51.84 
" style="fill:none;stroke:#000000;stroke-linecap:square;stroke-linejoin:miter;stroke-width:0.8;"/>
   </g>
   <g id="patch_5">
    <path d="M 63 384.48 
L 453.6 384.48 
" style="fill:none;stroke:#000000;stroke-linecap:square;stroke-linejoin:miter;stroke-width:0.8;"/>
   </g>
   <g id="patch_6">
    <path d="M 63 51.84 
L 453.6 51.84 
" style="fill:none;stroke:#000000;stroke-linecap:square;stroke-linejoin:miter;stroke-width:0.8;"/>
   </g>
   <g id="legend_1">
    <g id="patch_7">
     <path d="M 70 74.518125 
L 133.139062 74.518125 
Q 135.139062 74.518125 135.139062 72.518125 
L 135.139062 58.84 
Q 135.139062 56.84 133.139062 56.84 
L 70 56.84 
Q 68 56.84 68 58.84 
L 68 72.518125 
Q 68 74.518125 70 74.518125 
z
" style="fill:#ffffff;opacity:0.8;stroke:#cccccc;stroke-linejoin:miter;"/>
    </g>
    <g id="line2d_14">
     <path d="M 72 64.938438 
L 92 64.938438 
" style="fill:none;stroke:#ff0000;stroke-linecap:square;stroke-width:1.5;"/>
    </g>
    <g id="line2d_15"/>
    <g id="text_15">
     <!-- model -->
     <defs>
      <path d="M 45.40625 46.390625 
L 45.40625 75.984375 
L 54.390625 75.984375 
L 54.390625 0 
L 45.40625 0 
L 45.40625 8.203125 
Q 42.578125 3.328125 38.25 0.953125 
Q 33.9375 -1.421875 27.875 -1.421875 
Q 17.96875 -1.421875 11.734375 6.484375 
Q 5.515625 14.40625 5.515625 27.296875 
Q 5.515625 40.1875 11.734375 48.09375 
Q 17.96875 56 27.875 56 
Q 33.9375 56 38.25 53.625 
Q 42.578125 51.265625 45.40625 46.390625 
z
M 14.796875 27.296875 
Q 14.796875 17.390625 18.875 11.75 
Q 22.953125 6.109375 30.078125 6.109375 
Q 37.203125 6.109375 41.296875 11.75 
Q 45.40625 17.390625 45.40625 27.296875 
Q 45.40625 37.203125 41.296875 42.84375 
Q 37.203125 48.484375 30.078125 48.484375 
Q 22.953125 48.484375 18.875 42.84375 
Q 14.796875 37.203125 14.796875 27.296875 
z
" id="DejaVuSans-100"/>
     </defs>
     <g transform="translate(100 68.438438)scale(0.1 -0.1)">
      <use xlink:href="#DejaVuSans-109"/>
      <use x="97.412109" xlink:href="#DejaVuSans-111"/>
      <use x="158.59375" xlink:href="#DejaVuSans-100"/>
      <use x="222.070312" xlink:href="#DejaVuSans-101"/>
      <use x="283.59375" xlink:href="#DejaVuSans-108"/>
     </g>
    </g>
   </g>
  </g>
 </g>
 <defs>
  <clipPath id="p3d7710c721">
   <rect height="332.64" width="390.6" x="63" y="51.84"/>
  </clipPath>
 </defs>
</svg>
