<?xml version="1.0" encoding="utf-8" standalone="no"?>
<!DOCTYPE svg PUBLIC "-//W3C//DTD SVG 1.1//EN"
  "http://www.w3.org/Graphics/SVG/1.1/DTD/svg11.dtd">
<!-- Created with matplotlib (http://matplotlib.org/) -->
<svg height="432pt" version="1.1" viewBox="0 0 504 432" width="504pt" xmlns="http://www.w3.org/2000/svg" xmlns:xlink="http://www.w3.org/1999/xlink">
 <defs>
  <style type="text/css">
*{stroke-linecap:butt;stroke-linejoin:round;}
  </style>
 </defs>
 <g id="figure_1">
  <g id="patch_1">
   <path d="M 0 432 
L 504 432 
L 504 0 
L 0 0 
z
" style="fill:#ffffff;"/>
  </g>
  <g id="axes_1">
   <g id="patch_2">
    <path d="M 63 384.48 
L 453.6 384.48 
L 453.6 51.84 
L 63 51.84 
z
" style="fill:#ffffff;"/>
   </g>
   <g id="matplotlib.axis_1">
    <g id="xtick_1">
     <g id="line2d_1">
      <defs>
       <path d="M 0 0 
L 0 3.5 
" id="me0bf30b88b" style="stroke:#000000;stroke-width:0.8;"/>
      </defs>
      <g>
       <use style="stroke:#000000;stroke-width:0.8;" x="80.754545" xlink:href="#me0bf30b88b" y="384.48"/>
      </g>
     </g>
     <g id="text_1">
      <!-- 0 -->
      <defs>
       <path d="M 31.78125 66.40625 
Q 24.171875 66.40625 20.328125 58.90625 
Q 16.5 51.421875 16.5 36.375 
Q 16.5 21.390625 20.328125 13.890625 
Q 24.171875 6.390625 31.78125 6.390625 
Q 39.453125 6.390625 43.28125 13.890625 
Q 47.125 21.390625 47.125 36.375 
Q 47.125 51.421875 43.28125 58.90625 
Q 39.453125 66.40625 31.78125 66.40625 
z
M 31.78125 74.21875 
Q 44.046875 74.21875 50.515625 64.515625 
Q 56.984375 54.828125 56.984375 36.375 
Q 56.984375 17.96875 50.515625 8.265625 
Q 44.046875 -1.421875 31.78125 -1.421875 
Q 19.53125 -1.421875 13.0625 8.265625 
Q 6.59375 17.96875 6.59375 36.375 
Q 6.59375 54.828125 13.0625 64.515625 
Q 19.53125 74.21875 31.78125 74.21875 
z
" id="DejaVuSans-30"/>
      </defs>
      <g transform="translate(77.573295 399.078438)scale(0.1 -0.1)">
       <use xlink:href="#DejaVuSans-30"/>
      </g>
     </g>
    </g>
    <g id="xtick_2">
     <g id="line2d_2">
      <g>
       <use style="stroke:#000000;stroke-width:0.8;" x="151.772727" xlink:href="#me0bf30b88b" y="384.48"/>
      </g>
     </g>
     <g id="text_2">
      <!-- 200 -->
      <defs>
       <path d="M 19.1875 8.296875 
L 53.609375 8.296875 
L 53.609375 0 
L 7.328125 0 
L 7.328125 8.296875 
Q 12.9375 14.109375 22.625 23.890625 
Q 32.328125 33.6875 34.8125 36.53125 
Q 39.546875 41.84375 41.421875 45.53125 
Q 43.3125 49.21875 43.3125 52.78125 
Q 43.3125 58.59375 39.234375 62.25 
Q 35.15625 65.921875 28.609375 65.921875 
Q 23.96875 65.921875 18.8125 64.3125 
Q 13.671875 62.703125 7.8125 59.421875 
L 7.8125 69.390625 
Q 13.765625 71.78125 18.9375 73 
Q 24.125 74.21875 28.421875 74.21875 
Q 39.75 74.21875 46.484375 68.546875 
Q 53.21875 62.890625 53.21875 53.421875 
Q 53.21875 48.921875 51.53125 44.890625 
Q 49.859375 40.875 45.40625 35.40625 
Q 44.1875 33.984375 37.640625 27.21875 
Q 31.109375 20.453125 19.1875 8.296875 
z
" id="DejaVuSans-32"/>
      </defs>
      <g transform="translate(142.228977 399.078438)scale(0.1 -0.1)">
       <use xlink:href="#DejaVuSans-32"/>
       <use x="63.623047" xlink:href="#DejaVuSans-30"/>
       <use x="127.246094" xlink:href="#DejaVuSans-30"/>
      </g>
     </g>
    </g>
    <g id="xtick_3">
     <g id="line2d_3">
      <g>
       <use style="stroke:#000000;stroke-width:0.8;" x="222.790909" xlink:href="#me0bf30b88b" y="384.48"/>
      </g>
     </g>
     <g id="text_3">
      <!-- 400 -->
      <defs>
       <path d="M 37.796875 64.3125 
L 12.890625 25.390625 
L 37.796875 25.390625 
z
M 35.203125 72.90625 
L 47.609375 72.90625 
L 47.609375 25.390625 
L 58.015625 25.390625 
L 58.015625 17.1875 
L 47.609375 17.1875 
L 47.609375 0 
L 37.796875 0 
L 37.796875 17.1875 
L 4.890625 17.1875 
L 4.890625 26.703125 
z
" id="DejaVuSans-34"/>
      </defs>
      <g transform="translate(213.247159 399.078438)scale(0.1 -0.1)">
       <use xlink:href="#DejaVuSans-34"/>
       <use x="63.623047" xlink:href="#DejaVuSans-30"/>
       <use x="127.246094" xlink:href="#DejaVuSans-30"/>
      </g>
     </g>
    </g>
    <g id="xtick_4">
     <g id="line2d_4">
      <g>
       <use style="stroke:#000000;stroke-width:0.8;" x="293.809091" xlink:href="#me0bf30b88b" y="384.48"/>
      </g>
     </g>
     <g id="text_4">
      <!-- 600 -->
      <defs>
       <path d="M 33.015625 40.375 
Q 26.375 40.375 22.484375 35.828125 
Q 18.609375 31.296875 18.609375 23.390625 
Q 18.609375 15.53125 22.484375 10.953125 
Q 26.375 6.390625 33.015625 6.390625 
Q 39.65625 6.390625 43.53125 10.953125 
Q 47.40625 15.53125 47.40625 23.390625 
Q 47.40625 31.296875 43.53125 35.828125 
Q 39.65625 40.375 33.015625 40.375 
z
M 52.59375 71.296875 
L 52.59375 62.3125 
Q 48.875 64.0625 45.09375 64.984375 
Q 41.3125 65.921875 37.59375 65.921875 
Q 27.828125 65.921875 22.671875 59.328125 
Q 17.53125 52.734375 16.796875 39.40625 
Q 19.671875 43.65625 24.015625 45.921875 
Q 28.375 48.1875 33.59375 48.1875 
Q 44.578125 48.1875 50.953125 41.515625 
Q 57.328125 34.859375 57.328125 23.390625 
Q 57.328125 12.15625 50.6875 5.359375 
Q 44.046875 -1.421875 33.015625 -1.421875 
Q 20.359375 -1.421875 13.671875 8.265625 
Q 6.984375 17.96875 6.984375 36.375 
Q 6.984375 53.65625 15.1875 63.9375 
Q 23.390625 74.21875 37.203125 74.21875 
Q 40.921875 74.21875 44.703125 73.484375 
Q 48.484375 72.75 52.59375 71.296875 
z
" id="DejaVuSans-36"/>
      </defs>
      <g transform="translate(284.265341 399.078438)scale(0.1 -0.1)">
       <use xlink:href="#DejaVuSans-36"/>
       <use x="63.623047" xlink:href="#DejaVuSans-30"/>
       <use x="127.246094" xlink:href="#DejaVuSans-30"/>
      </g>
     </g>
    </g>
    <g id="xtick_5">
     <g id="line2d_5">
      <g>
       <use style="stroke:#000000;stroke-width:0.8;" x="364.827273" xlink:href="#me0bf30b88b" y="384.48"/>
      </g>
     </g>
     <g id="text_5">
      <!-- 800 -->
      <defs>
       <path d="M 31.78125 34.625 
Q 24.75 34.625 20.71875 30.859375 
Q 16.703125 27.09375 16.703125 20.515625 
Q 16.703125 13.921875 20.71875 10.15625 
Q 24.75 6.390625 31.78125 6.390625 
Q 38.8125 6.390625 42.859375 10.171875 
Q 46.921875 13.96875 46.921875 20.515625 
Q 46.921875 27.09375 42.890625 30.859375 
Q 38.875 34.625 31.78125 34.625 
z
M 21.921875 38.8125 
Q 15.578125 40.375 12.03125 44.71875 
Q 8.5 49.078125 8.5 55.328125 
Q 8.5 64.0625 14.71875 69.140625 
Q 20.953125 74.21875 31.78125 74.21875 
Q 42.671875 74.21875 48.875 69.140625 
Q 55.078125 64.0625 55.078125 55.328125 
Q 55.078125 49.078125 51.53125 44.71875 
Q 48 40.375 41.703125 38.8125 
Q 48.828125 37.15625 52.796875 32.3125 
Q 56.78125 27.484375 56.78125 20.515625 
Q 56.78125 9.90625 50.3125 4.234375 
Q 43.84375 -1.421875 31.78125 -1.421875 
Q 19.734375 -1.421875 13.25 4.234375 
Q 6.78125 9.90625 6.78125 20.515625 
Q 6.78125 27.484375 10.78125 32.3125 
Q 14.796875 37.15625 21.921875 38.8125 
z
M 18.3125 54.390625 
Q 18.3125 48.734375 21.84375 45.5625 
Q 25.390625 42.390625 31.78125 42.390625 
Q 38.140625 42.390625 41.71875 45.5625 
Q 45.3125 48.734375 45.3125 54.390625 
Q 45.3125 60.0625 41.71875 63.234375 
Q 38.140625 66.40625 31.78125 66.40625 
Q 25.390625 66.40625 21.84375 63.234375 
Q 18.3125 60.0625 18.3125 54.390625 
z
" id="DejaVuSans-38"/>
      </defs>
      <g transform="translate(355.283523 399.078438)scale(0.1 -0.1)">
       <use xlink:href="#DejaVuSans-38"/>
       <use x="63.623047" xlink:href="#DejaVuSans-30"/>
       <use x="127.246094" xlink:href="#DejaVuSans-30"/>
      </g>
     </g>
    </g>
    <g id="text_6">
     <!-- time [ms] -->
     <defs>
      <path d="M 18.3125 70.21875 
L 18.3125 54.6875 
L 36.8125 54.6875 
L 36.8125 47.703125 
L 18.3125 47.703125 
L 18.3125 18.015625 
Q 18.3125 11.328125 20.140625 9.421875 
Q 21.96875 7.515625 27.59375 7.515625 
L 36.8125 7.515625 
L 36.8125 0 
L 27.59375 0 
Q 17.1875 0 13.234375 3.875 
Q 9.28125 7.765625 9.28125 18.015625 
L 9.28125 47.703125 
L 2.6875 47.703125 
L 2.6875 54.6875 
L 9.28125 54.6875 
L 9.28125 70.21875 
z
" id="DejaVuSans-74"/>
      <path d="M 9.421875 54.6875 
L 18.40625 54.6875 
L 18.40625 0 
L 9.421875 0 
z
M 9.421875 75.984375 
L 18.40625 75.984375 
L 18.40625 64.59375 
L 9.421875 64.59375 
z
" id="DejaVuSans-69"/>
      <path d="M 52 44.1875 
Q 55.375 50.25 60.0625 53.125 
Q 64.75 56 71.09375 56 
Q 79.640625 56 84.28125 50.015625 
Q 88.921875 44.046875 88.921875 33.015625 
L 88.921875 0 
L 79.890625 0 
L 79.890625 32.71875 
Q 79.890625 40.578125 77.09375 44.375 
Q 74.3125 48.1875 68.609375 48.1875 
Q 61.625 48.1875 57.5625 43.546875 
Q 53.515625 38.921875 53.515625 30.90625 
L 53.515625 0 
L 44.484375 0 
L 44.484375 32.71875 
Q 44.484375 40.625 41.703125 44.40625 
Q 38.921875 48.1875 33.109375 48.1875 
Q 26.21875 48.1875 22.15625 43.53125 
Q 18.109375 38.875 18.109375 30.90625 
L 18.109375 0 
L 9.078125 0 
L 9.078125 54.6875 
L 18.109375 54.6875 
L 18.109375 46.1875 
Q 21.1875 51.21875 25.484375 53.609375 
Q 29.78125 56 35.6875 56 
Q 41.65625 56 45.828125 52.96875 
Q 50 49.953125 52 44.1875 
z
" id="DejaVuSans-6d"/>
      <path d="M 56.203125 29.59375 
L 56.203125 25.203125 
L 14.890625 25.203125 
Q 15.484375 15.921875 20.484375 11.0625 
Q 25.484375 6.203125 34.421875 6.203125 
Q 39.59375 6.203125 44.453125 7.46875 
Q 49.3125 8.734375 54.109375 11.28125 
L 54.109375 2.78125 
Q 49.265625 0.734375 44.1875 -0.34375 
Q 39.109375 -1.421875 33.890625 -1.421875 
Q 20.796875 -1.421875 13.15625 6.1875 
Q 5.515625 13.8125 5.515625 26.8125 
Q 5.515625 40.234375 12.765625 48.109375 
Q 20.015625 56 32.328125 56 
Q 43.359375 56 49.78125 48.890625 
Q 56.203125 41.796875 56.203125 29.59375 
z
M 47.21875 32.234375 
Q 47.125 39.59375 43.09375 43.984375 
Q 39.0625 48.390625 32.421875 48.390625 
Q 24.90625 48.390625 20.390625 44.140625 
Q 15.875 39.890625 15.1875 32.171875 
z
" id="DejaVuSans-65"/>
      <path id="DejaVuSans-20"/>
      <path d="M 8.59375 75.984375 
L 29.296875 75.984375 
L 29.296875 69 
L 17.578125 69 
L 17.578125 -6.203125 
L 29.296875 -6.203125 
L 29.296875 -13.1875 
L 8.59375 -13.1875 
z
" id="DejaVuSans-5b"/>
      <path d="M 44.28125 53.078125 
L 44.28125 44.578125 
Q 40.484375 46.53125 36.375 47.5 
Q 32.28125 48.484375 27.875 48.484375 
Q 21.1875 48.484375 17.84375 46.4375 
Q 14.5 44.390625 14.5 40.28125 
Q 14.5 37.15625 16.890625 35.375 
Q 19.28125 33.59375 26.515625 31.984375 
L 29.59375 31.296875 
Q 39.15625 29.25 43.1875 25.515625 
Q 47.21875 21.78125 47.21875 15.09375 
Q 47.21875 7.46875 41.1875 3.015625 
Q 35.15625 -1.421875 24.609375 -1.421875 
Q 20.21875 -1.421875 15.453125 -0.5625 
Q 10.6875 0.296875 5.421875 2 
L 5.421875 11.28125 
Q 10.40625 8.6875 15.234375 7.390625 
Q 20.0625 6.109375 24.8125 6.109375 
Q 31.15625 6.109375 34.5625 8.28125 
Q 37.984375 10.453125 37.984375 14.40625 
Q 37.984375 18.0625 35.515625 20.015625 
Q 33.0625 21.96875 24.703125 23.78125 
L 21.578125 24.515625 
Q 13.234375 26.265625 9.515625 29.90625 
Q 5.8125 33.546875 5.8125 39.890625 
Q 5.8125 47.609375 11.28125 51.796875 
Q 16.75 56 26.8125 56 
Q 31.78125 56 36.171875 55.265625 
Q 40.578125 54.546875 44.28125 53.078125 
z
" id="DejaVuSans-73"/>
      <path d="M 30.421875 75.984375 
L 30.421875 -13.1875 
L 9.71875 -13.1875 
L 9.71875 -6.203125 
L 21.390625 -6.203125 
L 21.390625 69 
L 9.71875 69 
L 9.71875 75.984375 
z
" id="DejaVuSans-5d"/>
     </defs>
     <g transform="translate(234.038281 412.756563)scale(0.1 -0.1)">
      <use xlink:href="#DejaVuSans-74"/>
      <use x="39.208984" xlink:href="#DejaVuSans-69"/>
      <use x="66.992188" xlink:href="#DejaVuSans-6d"/>
      <use x="164.404297" xlink:href="#DejaVuSans-65"/>
      <use x="225.927734" xlink:href="#DejaVuSans-20"/>
      <use x="257.714844" xlink:href="#DejaVuSans-5b"/>
      <use x="296.728516" xlink:href="#DejaVuSans-6d"/>
      <use x="394.140625" xlink:href="#DejaVuSans-73"/>
      <use x="446.240234" xlink:href="#DejaVuSans-5d"/>
     </g>
    </g>
   </g>
   <g id="matplotlib.axis_2">
    <g id="ytick_1">
     <g id="line2d_6">
      <defs>
       <path d="M 0 0 
L -3.5 0 
" id="mb7636722e8" style="stroke:#000000;stroke-width:0.8;"/>
      </defs>
      <g>
       <use style="stroke:#000000;stroke-width:0.8;" x="63" xlink:href="#mb7636722e8" y="382.288203"/>
      </g>
     </g>
     <g id="text_7">
      <!-- −80 -->
      <defs>
       <path d="M 10.59375 35.5 
L 73.1875 35.5 
L 73.1875 27.203125 
L 10.59375 27.203125 
z
" id="DejaVuSans-2212"/>
      </defs>
      <g transform="translate(34.895313 386.087421)scale(0.1 -0.1)">
       <use xlink:href="#DejaVuSans-2212"/>
       <use x="83.789062" xlink:href="#DejaVuSans-38"/>
       <use x="147.412109" xlink:href="#DejaVuSans-30"/>
      </g>
     </g>
    </g>
    <g id="ytick_2">
     <g id="line2d_7">
      <g>
       <use style="stroke:#000000;stroke-width:0.8;" x="63" xlink:href="#mb7636722e8" y="329.596298"/>
      </g>
     </g>
     <g id="text_8">
      <!-- −60 -->
      <g transform="translate(34.895313 333.395517)scale(0.1 -0.1)">
       <use xlink:href="#DejaVuSans-2212"/>
       <use x="83.789062" xlink:href="#DejaVuSans-36"/>
       <use x="147.412109" xlink:href="#DejaVuSans-30"/>
      </g>
     </g>
    </g>
    <g id="ytick_3">
     <g id="line2d_8">
      <g>
       <use style="stroke:#000000;stroke-width:0.8;" x="63" xlink:href="#mb7636722e8" y="276.904394"/>
      </g>
     </g>
     <g id="text_9">
      <!-- −40 -->
      <g transform="translate(34.895313 280.703613)scale(0.1 -0.1)">
       <use xlink:href="#DejaVuSans-2212"/>
       <use x="83.789062" xlink:href="#DejaVuSans-34"/>
       <use x="147.412109" xlink:href="#DejaVuSans-30"/>
      </g>
     </g>
    </g>
    <g id="ytick_4">
     <g id="line2d_9">
      <g>
       <use style="stroke:#000000;stroke-width:0.8;" x="63" xlink:href="#mb7636722e8" y="224.21249"/>
      </g>
     </g>
     <g id="text_10">
      <!-- −20 -->
      <g transform="translate(34.895313 228.011709)scale(0.1 -0.1)">
       <use xlink:href="#DejaVuSans-2212"/>
       <use x="83.789062" xlink:href="#DejaVuSans-32"/>
       <use x="147.412109" xlink:href="#DejaVuSans-30"/>
      </g>
     </g>
    </g>
    <g id="ytick_5">
     <g id="line2d_10">
      <g>
       <use style="stroke:#000000;stroke-width:0.8;" x="63" xlink:href="#mb7636722e8" y="171.520586"/>
      </g>
     </g>
     <g id="text_11">
      <!-- 0 -->
      <g transform="translate(49.6375 175.319805)scale(0.1 -0.1)">
       <use xlink:href="#DejaVuSans-30"/>
      </g>
     </g>
    </g>
    <g id="ytick_6">
     <g id="line2d_11">
      <g>
       <use style="stroke:#000000;stroke-width:0.8;" x="63" xlink:href="#mb7636722e8" y="118.828682"/>
      </g>
     </g>
     <g id="text_12">
      <!-- 20 -->
      <g transform="translate(43.275 122.627901)scale(0.1 -0.1)">
       <use xlink:href="#DejaVuSans-32"/>
       <use x="63.623047" xlink:href="#DejaVuSans-30"/>
      </g>
     </g>
    </g>
    <g id="ytick_7">
     <g id="line2d_12">
      <g>
       <use style="stroke:#000000;stroke-width:0.8;" x="63" xlink:href="#mb7636722e8" y="66.136778"/>
      </g>
     </g>
     <g id="text_13">
      <!-- 40 -->
      <g transform="translate(43.275 69.935996)scale(0.1 -0.1)">
       <use xlink:href="#DejaVuSans-34"/>
       <use x="63.623047" xlink:href="#DejaVuSans-30"/>
      </g>
     </g>
    </g>
    <g id="text_14">
     <!-- voltage [mV] -->
     <defs>
      <path d="M 2.984375 54.6875 
L 12.5 54.6875 
L 29.59375 8.796875 
L 46.6875 54.6875 
L 56.203125 54.6875 
L 35.6875 0 
L 23.484375 0 
z
" id="DejaVuSans-76"/>
      <path d="M 30.609375 48.390625 
Q 23.390625 48.390625 19.1875 42.75 
Q 14.984375 37.109375 14.984375 27.296875 
Q 14.984375 17.484375 19.15625 11.84375 
Q 23.34375 6.203125 30.609375 6.203125 
Q 37.796875 6.203125 41.984375 11.859375 
Q 46.1875 17.53125 46.1875 27.296875 
Q 46.1875 37.015625 41.984375 42.703125 
Q 37.796875 48.390625 30.609375 48.390625 
z
M 30.609375 56 
Q 42.328125 56 49.015625 48.375 
Q 55.71875 40.765625 55.71875 27.296875 
Q 55.71875 13.875 49.015625 6.21875 
Q 42.328125 -1.421875 30.609375 -1.421875 
Q 18.84375 -1.421875 12.171875 6.21875 
Q 5.515625 13.875 5.515625 27.296875 
Q 5.515625 40.765625 12.171875 48.375 
Q 18.84375 56 30.609375 56 
z
" id="DejaVuSans-6f"/>
      <path d="M 9.421875 75.984375 
L 18.40625 75.984375 
L 18.40625 0 
L 9.421875 0 
z
" id="DejaVuSans-6c"/>
      <path d="M 34.28125 27.484375 
Q 23.390625 27.484375 19.1875 25 
Q 14.984375 22.515625 14.984375 16.5 
Q 14.984375 11.71875 18.140625 8.90625 
Q 21.296875 6.109375 26.703125 6.109375 
Q 34.1875 6.109375 38.703125 11.40625 
Q 43.21875 16.703125 43.21875 25.484375 
L 43.21875 27.484375 
z
M 52.203125 31.203125 
L 52.203125 0 
L 43.21875 0 
L 43.21875 8.296875 
Q 40.140625 3.328125 35.546875 0.953125 
Q 30.953125 -1.421875 24.3125 -1.421875 
Q 15.921875 -1.421875 10.953125 3.296875 
Q 6 8.015625 6 15.921875 
Q 6 25.140625 12.171875 29.828125 
Q 18.359375 34.515625 30.609375 34.515625 
L 43.21875 34.515625 
L 43.21875 35.40625 
Q 43.21875 41.609375 39.140625 45 
Q 35.0625 48.390625 27.6875 48.390625 
Q 23 48.390625 18.546875 47.265625 
Q 14.109375 46.140625 10.015625 43.890625 
L 10.015625 52.203125 
Q 14.9375 54.109375 19.578125 55.046875 
Q 24.21875 56 28.609375 56 
Q 40.484375 56 46.34375 49.84375 
Q 52.203125 43.703125 52.203125 31.203125 
z
" id="DejaVuSans-61"/>
      <path d="M 45.40625 27.984375 
Q 45.40625 37.75 41.375 43.109375 
Q 37.359375 48.484375 30.078125 48.484375 
Q 22.859375 48.484375 18.828125 43.109375 
Q 14.796875 37.75 14.796875 27.984375 
Q 14.796875 18.265625 18.828125 12.890625 
Q 22.859375 7.515625 30.078125 7.515625 
Q 37.359375 7.515625 41.375 12.890625 
Q 45.40625 18.265625 45.40625 27.984375 
z
M 54.390625 6.78125 
Q 54.390625 -7.171875 48.1875 -13.984375 
Q 42 -20.796875 29.203125 -20.796875 
Q 24.46875 -20.796875 20.265625 -20.09375 
Q 16.0625 -19.390625 12.109375 -17.921875 
L 12.109375 -9.1875 
Q 16.0625 -11.328125 19.921875 -12.34375 
Q 23.78125 -13.375 27.78125 -13.375 
Q 36.625 -13.375 41.015625 -8.765625 
Q 45.40625 -4.15625 45.40625 5.171875 
L 45.40625 9.625 
Q 42.625 4.78125 38.28125 2.390625 
Q 33.9375 0 27.875 0 
Q 17.828125 0 11.671875 7.65625 
Q 5.515625 15.328125 5.515625 27.984375 
Q 5.515625 40.671875 11.671875 48.328125 
Q 17.828125 56 27.875 56 
Q 33.9375 56 38.28125 53.609375 
Q 42.625 51.21875 45.40625 46.390625 
L 45.40625 54.6875 
L 54.390625 54.6875 
z
" id="DejaVuSans-67"/>
      <path d="M 28.609375 0 
L 0.78125 72.90625 
L 11.078125 72.90625 
L 34.1875 11.53125 
L 57.328125 72.90625 
L 67.578125 72.90625 
L 39.796875 0 
z
" id="DejaVuSans-56"/>
     </defs>
     <g transform="translate(28.815625 250.624062)rotate(-90)scale(0.1 -0.1)">
      <use xlink:href="#DejaVuSans-76"/>
      <use x="59.179688" xlink:href="#DejaVuSans-6f"/>
      <use x="120.361328" xlink:href="#DejaVuSans-6c"/>
      <use x="148.144531" xlink:href="#DejaVuSans-74"/>
      <use x="187.353516" xlink:href="#DejaVuSans-61"/>
      <use x="248.632812" xlink:href="#DejaVuSans-67"/>
      <use x="312.109375" xlink:href="#DejaVuSans-65"/>
      <use x="373.632812" xlink:href="#DejaVuSans-20"/>
      <use x="405.419922" xlink:href="#DejaVuSans-5b"/>
      <use x="444.433594" xlink:href="#DejaVuSans-6d"/>
      <use x="541.845703" xlink:href="#DejaVuSans-56"/>
      <use x="610.253906" xlink:href="#DejaVuSans-5d"/>
     </g>
    </g>
   </g>
   <g id="line2d_13">
    <path clip-path="url(#p4301229edd)" d="M 80.754545 342.769274 
L 81.952977 342.632539 
L 83.763941 342.689446 
L 87.749836 342.696823 
L 151.772727 342.699985 
L 152.314241 298.012508 
L 152.420768 249.197937 
L 152.562805 66.990913 
L 152.678209 92.30147 
L 153.565936 369.354448 
L 153.610323 369.253543 
L 153.8145 367.86959 
L 154.293873 363.098338 
L 154.959668 353.943383 
L 157.42755 314.908694 
L 157.613973 303.740381 
L 157.738255 281.693825 
L 157.835905 218.906679 
L 157.969064 91.441801 
L 158.031205 104.642704 
L 158.883423 368.928434 
L 158.945564 368.744276 
L 159.203005 366.757791 
L 159.717886 361.063904 
L 160.534595 349.09283 
L 161.8218 330.895681 
L 162.514227 320.490874 
L 162.771668 312.942495 
L 162.940336 300.906874 
L 163.064618 272.83737 
L 163.162268 188.126782 
L 163.268795 92.36549 
L 163.322059 101.91379 
L 163.863573 297.73324 
L 164.147645 368.751125 
L 164.183155 368.896555 
L 164.245295 368.714505 
L 164.493859 366.803896 
L 165.008741 361.129768 
L 165.834327 349.035132 
L 167.112655 330.970503 
L 167.813959 320.455307 
L 168.0714 312.89718 
L 168.240068 300.82204 
L 168.36435 272.590245 
L 168.462 187.378425 
L 168.568527 92.442684 
L 168.621791 102.136677 
L 169.172182 301.699624 
L 169.4385 368.664974 
L 169.482886 368.894447 
L 169.545027 368.708445 
L 169.802468 366.713793 
L 170.31735 361.001991 
L 171.151814 348.745063 
L 172.430141 330.726803 
L 173.113691 320.436865 
L 173.371132 312.860559 
L 173.5398 300.725877 
L 173.664082 272.250909 
L 173.761732 186.222865 
L 173.868259 92.459545 
L 173.921523 102.373527 
L 174.480791 305.785881 
L 174.729355 368.555112 
L 174.782618 368.894447 
L 174.844759 368.70423 
L 175.1022 366.706416 
L 175.617082 360.991189 
L 176.451545 348.732154 
L 177.729873 330.716001 
L 178.413423 320.420003 
L 178.670864 312.824465 
L 178.839532 300.628397 
L 178.963814 271.902615 
L 179.061464 185.033477 
L 179.167991 92.476934 
L 179.221255 102.613012 
L 179.7894 309.975677 
L 180.029086 368.567494 
L 180.08235 368.894711 
L 180.144491 368.699751 
L 180.401932 366.699039 
L 180.916814 360.98065 
L 181.751277 348.719771 
L 183.029605 330.705463 
L 183.713155 320.402878 
L 183.970595 312.788108 
L 184.139264 300.529863 
L 184.263545 271.546154 
L 184.361195 183.823171 
L 184.467723 92.500908 
L 184.520986 102.856185 
L 185.098009 314.257685 
L 185.328818 368.579613 
L 185.382082 368.894711 
L 185.444223 368.695535 
L 185.701664 366.691399 
L 186.216545 360.970112 
L 187.051009 348.707125 
L 188.329336 330.694925 
L 189.012886 320.386017 
L 189.270327 312.751487 
L 189.438995 300.429749 
L 189.563277 271.184425 
L 189.660927 182.608043 
L 189.767455 92.530679 
L 189.820718 103.101729 
L 190.406618 318.612144 
L 190.619673 368.445249 
L 190.681814 368.894447 
L 190.743955 368.691057 
L 191.010273 366.60235 
L 191.525155 360.844178 
L 192.368495 348.420481 
L 193.637945 330.568464 
L 194.312618 320.368629 
L 194.570059 312.714866 
L 194.738727 300.329107 
L 194.863009 270.81927 
L 194.969536 167.979295 
L 195.058309 92.517243 
L 195.12045 103.349908 
L 195.715227 323.012972 
L 195.919405 368.460793 
L 195.981545 368.894447 
L 196.043686 368.686578 
L 196.310005 366.594709 
L 196.833764 360.717718 
L 197.703736 347.86063 
L 198.955432 330.326345 
L 199.61235 320.351504 
L 199.869791 312.677718 
L 200.038459 300.227412 
L 200.162741 270.446738 
L 200.269268 166.711238 
L 200.358041 92.487735 
L 200.420182 103.602302 
L 201.023836 327.423021 
L 201.219136 368.475547 
L 201.281277 368.893921 
L 201.343418 368.682099 
L 201.609736 366.587069 
L 202.133495 360.706652 
L 202.994591 347.984456 
L 204.255164 330.315543 
L 204.912082 320.333852 
L 205.169523 312.640044 
L 205.338191 300.124136 
L 205.462473 270.066566 
L 205.569 165.434671 
L 205.657773 92.465341 
L 205.719914 103.856541 
L 206.332445 331.794078 
L 206.518868 368.490301 
L 206.581009 368.893657 
L 206.634273 368.724253 
L 206.873959 366.90243 
L 207.388841 361.270192 
L 208.187795 349.615797 
L 209.510509 330.882508 
L 210.202936 320.501412 
L 210.460377 312.996504 
L 210.629045 301.091032 
L 210.753327 273.546866 
L 210.850977 190.696935 
L 210.957505 92.450061 
L 211.019645 104.111833 
L 211.641055 336.07187 
L 211.827477 368.636521 
L 211.880741 368.89313 
L 211.934005 368.720037 
L 212.182568 366.814961 
L 212.69745 361.145576 
L 213.514159 349.191364 
L 214.810241 330.871706 
L 215.502668 320.484287 
L 215.760109 312.96041 
L 215.928777 300.994342 
L 216.053059 273.206213 
L 216.150709 189.513475 
L 216.257236 92.443738 
L 216.319377 104.366598 
L 216.949664 340.19264 
L 217.127209 368.647059 
L 217.171595 368.893657 
L 217.233736 368.715822 
L 217.4823 366.807585 
L 217.997182 361.135038 
L 218.822768 349.041455 
L 220.101095 330.976299 
L 220.8024 320.467163 
L 221.059841 312.92458 
L 221.228509 300.897916 
L 221.352791 272.864242 
L 221.450441 188.330594 
L 221.556968 92.444265 
L 221.610232 101.950938 
L 222.151745 297.78883 
L 222.426941 368.65707 
L 222.471327 368.893921 
L 222.533468 368.711607 
L 222.782032 366.800208 
L 223.296914 361.124499 
L 224.1225 349.028546 
L 225.418582 330.73497 
L 226.111009 320.264299 
L 226.36845 312.490135 
L 226.537118 299.709187 
L 226.652523 272.519637 
L 226.750173 187.142998 
L 226.8567 92.450324 
L 226.909964 102.189369 
L 227.460355 301.775236 
L 227.726673 368.666818 
L 227.771059 368.894447 
L 227.8332 368.707391 
L 228.090641 366.711949 
L 228.605523 360.999356 
L 229.439986 348.741902 
L 230.718314 330.724169 
L 231.401864 320.432913 
L 231.659305 312.852129 
L 231.827973 300.703747 
L 231.952255 272.172661 
L 232.049905 185.955191 
L 232.156432 92.463234 
L 232.209695 102.427536 
L 232.768964 305.864655 
L 233.017527 368.55801 
L 233.070791 368.894447 
L 233.132932 368.703176 
L 233.390373 366.704572 
L 233.905255 360.988818 
L 234.739718 348.729256 
L 236.018045 330.71363 
L 236.701595 320.416051 
L 236.959036 312.816298 
L 237.127705 300.606267 
L 237.251986 271.822524 
L 237.349636 184.760586 
L 237.456164 92.481676 
L 237.509427 102.668075 
L 238.077573 310.056823 
L 238.317259 368.570129 
L 238.370523 368.894711 
L 238.432664 368.69896 
L 238.690105 366.697195 
L 239.204986 360.978279 
L 240.03945 348.716873 
L 241.317777 330.703092 
L 242.001327 320.39919 
L 242.258768 312.779941 
L 242.427436 300.507206 
L 242.551718 271.464219 
L 242.649368 183.54746 
L 242.755895 92.507231 
L 242.809159 102.911775 
L 243.386182 314.340675 
L 243.616991 368.582248 
L 243.670255 368.894711 
L 243.732395 368.694482 
L 243.989836 366.689818 
L 244.504718 360.967741 
L 245.348059 348.567228 
L 246.617509 330.69229 
L 247.301059 320.382065 
L 247.5585 312.74332 
L 247.727168 300.406828 
L 247.85145 271.101962 
L 247.9491 182.331147 
L 248.055627 92.538583 
L 248.108891 103.157846 
L 248.694791 318.696978 
L 248.907845 368.448937 
L 248.969986 368.894447 
L 249.032127 368.690266 
L 249.298445 366.600769 
L 249.822205 360.726148 
L 250.692177 347.870641 
L 251.943873 330.334775 
L 252.600791 320.364677 
L 252.858232 312.706435 
L 253.0269 300.305923 
L 253.151182 270.734963 
L 253.257709 167.690596 
L 253.346482 92.509866 
L 253.408623 103.407342 
L 254.0034 323.099387 
L 254.207577 368.464218 
L 254.269718 368.894184 
L 254.331859 368.685787 
L 254.598177 366.593129 
L 255.121936 360.715083 
L 255.983032 347.994467 
L 257.22585 330.555291 
L 257.900523 320.347552 
L 258.157964 312.669288 
L 258.326632 300.203964 
L 258.450914 270.360587 
L 258.557441 166.419931 
L 258.646214 92.481939 
L 258.708355 103.660527 
L 259.312009 327.509436 
L 259.507309 368.478972 
L 259.56945 368.893921 
L 259.631591 368.681045 
L 259.897909 366.585225 
L 260.421668 360.704281 
L 261.291641 347.845086 
L 262.525582 330.544489 
L 263.200255 320.3299 
L 263.457695 312.631613 
L 263.626364 300.100424 
L 263.750645 269.979097 
L 263.857173 165.142837 
L 263.945945 92.461126 
L 264.008086 103.914765 
L 264.620618 331.879175 
L 264.807041 368.493725 
L 264.869182 368.893394 
L 264.922445 368.723462 
L 265.171009 366.820758 
L 265.685891 361.154007 
L 266.511477 349.064113 
L 267.807559 330.764741 
L 268.499986 320.312512 
L 268.757427 312.593938 
L 268.926095 299.996885 
L 269.050377 269.597608 
L 269.156905 163.875254 
L 269.245677 92.447953 
L 269.298941 101.53072 
L 269.8227 290.200933 
L 270.133405 368.805925 
L 270.168914 368.89313 
L 270.222177 368.719247 
L 270.470741 366.813381 
L 270.985623 361.143205 
L 271.802332 349.188466 
L 273.098414 330.869335 
L 273.790841 320.480336 
L 274.048282 312.952243 
L 274.21695 300.972475 
L 274.341232 273.128229 
L 274.438882 189.242744 
L 274.545409 92.443474 
L 274.598673 101.76757 
L 275.131309 293.98184 
L 275.424259 368.743749 
L 275.459768 368.893657 
L 275.521909 368.715031 
L 275.770473 366.806004 
L 276.285355 361.132666 
L 277.110941 349.038557 
L 278.389268 330.973928 
L 279.090573 320.463211 
L 279.348014 312.916149 
L 279.516682 300.875786 
L 279.640964 272.785732 
L 279.738614 188.059758 
L 279.845141 92.444792 
L 279.898405 102.005474 
L 280.439918 297.86497 
L 280.715114 368.659178 
L 280.7595 368.894184 
L 280.821641 368.710816 
L 281.079082 366.717745 
L 281.593964 361.007523 
L 282.428427 348.75165 
L 283.706755 330.732336 
L 284.390305 320.446086 
L 284.647745 312.880055 
L 284.816414 300.778833 
L 284.940695 272.4406 
L 285.038345 186.872056 
L 285.144873 92.452695 
L 285.198136 102.243641 
L 285.748527 301.85243 
L 286.014845 368.668926 
L 286.059232 368.894447 
L 286.121373 368.706337 
L 286.378814 366.710368 
L 286.893695 360.996985 
L 287.728159 348.739004 
L 289.006486 330.721797 
L 289.690036 320.429224 
L 289.947477 312.843961 
L 290.116145 300.681616 
L 290.240427 272.093096 
L 290.338077 185.683353 
L 290.444605 92.466922 
L 290.497868 102.482072 
L 291.057136 305.94422 
L 291.3057 368.560908 
L 291.358964 368.894711 
L 291.421105 368.702122 
L 291.678545 366.702991 
L 292.193427 360.986446 
L 293.027891 348.726358 
L 294.315095 330.5956 
L 294.989768 320.412099 
L 295.247209 312.807867 
L 295.415877 300.583873 
L 295.540159 271.741378 
L 295.637809 184.484823 
L 295.744336 92.486945 
L 295.7976 102.723401 
L 296.365745 310.138495 
L 296.605432 368.573027 
L 296.658695 368.894711 
L 296.720836 368.697907 
L 296.978277 366.695614 
L 297.493159 360.975908 
L 298.327623 348.713975 
L 299.60595 330.700721 
L 300.2895 320.395238 
L 300.546941 312.77151 
L 300.715609 300.484285 
L 300.839891 271.382019 
L 300.937541 183.271355 
L 301.044068 92.513818 
L 301.097332 102.967365 
L 301.674355 314.423665 
L 301.905164 368.584882 
L 301.958427 368.894711 
L 302.020568 368.693691 
L 302.286886 366.606565 
L 302.810645 360.734316 
L 303.671741 348.017125 
L 304.914559 330.574524 
L 305.589232 320.378113 
L 305.846673 312.734889 
L 306.015341 300.38417 
L 306.139623 271.019235 
L 306.24615 168.66587 
L 306.334923 92.535949 
L 306.397064 103.214226 
L 306.982964 318.781812 
L 307.196018 368.452362 
L 307.258159 368.894447 
L 307.3203 368.689212 
L 307.586618 366.598925 
L 308.110377 360.723514 
L 308.971473 348.004479 
L 310.214291 330.563722 
L 310.888964 320.360988 
L 311.146405 312.698005 
L 311.315073 300.283002 
L 311.439355 270.650392 
L 311.545882 167.402924 
L 311.634655 92.503016 
L 311.696795 103.464513 
L 312.291573 323.185274 
L 312.49575 368.467643 
L 312.557891 368.894184 
L 312.620032 368.684734 
L 312.88635 366.591284 
L 313.410109 360.712712 
L 314.280082 347.854834 
L 315.531777 330.321339 
L 316.188695 320.343337 
L 316.446136 312.660593 
L 316.614805 300.180516 
L 316.739086 270.274699 
L 316.845614 166.12973 
L 316.934386 92.47667 
L 316.996527 103.718224 
L 317.600182 327.595587 
L 317.795482 368.482397 
L 317.857623 368.893921 
L 317.910886 368.726624 
L 318.150573 366.906382 
L 318.665455 361.275988 
L 319.464409 349.622647 
L 320.787123 330.888567 
L 321.488427 320.325948 
L 321.745868 312.622919 
L 321.914536 300.076713 
L 322.038818 269.891892 
L 322.145345 164.852399 
L 322.234118 92.457438 
L 322.296259 103.97299 
L 322.908791 331.964009 
L 323.095214 368.49715 
L 323.157355 368.893394 
L 323.210618 368.722408 
L 323.459182 366.819177 
L 323.974064 361.151372 
L 324.790773 349.198214 
L 326.095732 330.762107 
L 326.779282 320.493508 
L 327.036723 312.98017 
L 327.205391 301.047034 
L 327.329673 273.391688 
L 327.427323 190.15737 
L 327.53385 92.446109 
L 327.595991 104.228019 
L 328.2174 336.235742 
L 328.403823 368.641263 
L 328.457086 368.892867 
L 328.51035 368.718193 
L 328.758914 366.811536 
L 329.273795 361.140834 
L 329.318182 360.563594 
L 329.335936 361.468314 
L 329.531236 365.480275 
L 329.620009 365.669176 
L 329.664395 365.611478 
L 329.815309 365.001306 
L 330.214786 362.168853 
L 332.176664 347.330549 
L 332.869091 344.090787 
L 333.428359 342.42625 
L 333.889977 341.679079 
L 334.262823 341.450923 
L 334.609036 341.487807 
L 335.061777 341.778403 
L 336.553159 342.874395 
L 337.156814 342.971611 
L 338.097805 342.860958 
L 339.580309 342.665471 
L 342.092577 342.701829 
L 435.845455 342.699985 
L 435.845455 342.699985 
" style="fill:none;stroke:#1f77b4;stroke-linecap:square;stroke-width:1.5;"/>
   </g>
   <g id="line2d_14">
    <path clip-path="url(#p4301229edd)" d="M 80.754545 342.769274 
L 81.961855 342.650721 
L 84.2877 342.714478 
L 89.640695 342.70893 
L 151.772727 342.709264 
L 152.314241 298.005982 
L 152.420768 249.114371 
L 152.562805 66.96 
L 152.678209 92.312696 
L 153.565936 369.36 
L 153.610323 369.258734 
L 153.8145 367.875513 
L 154.293873 363.10735 
L 154.959668 353.956351 
L 157.42755 314.920394 
L 157.613973 303.748204 
L 157.738255 281.683596 
L 157.835905 218.794855 
L 157.969064 91.39904 
L 158.031205 104.636024 
L 158.883423 368.934716 
L 158.945564 368.750191 
L 159.203005 366.765 
L 159.717886 361.074715 
L 160.543473 348.970358 
L 161.830677 330.79426 
L 162.514227 320.503608 
L 162.771668 312.953335 
L 162.940336 300.911032 
L 163.064618 272.806896 
L 163.162268 187.929446 
L 163.268795 92.316204 
L 163.322059 101.909327 
L 163.863573 297.741135 
L 164.138768 368.665837 
L 164.183155 368.902782 
L 164.245295 368.720424 
L 164.493859 366.81084 
L 165.008741 361.140221 
L 165.82545 349.18657 
L 167.121532 330.868823 
L 167.813959 320.467562 
L 168.0714 312.90703 
L 168.240068 300.823301 
L 168.36435 272.549393 
L 168.462 187.144641 
L 168.568527 92.394514 
L 168.621791 102.139176 
L 169.172182 301.718272 
L 169.4385 368.672566 
L 169.482886 368.900749 
L 169.545027 368.714213 
L 169.802468 366.720695 
L 170.31735 361.012151 
L 171.142936 348.896126 
L 172.430141 330.740238 
L 173.113691 320.448729 
L 173.371132 312.86931 
L 173.5398 300.724514 
L 173.664082 272.200499 
L 173.761732 185.956681 
L 173.868259 92.413004 
L 173.921523 102.382439 
L 174.480791 305.814958 
L 174.729355 368.563519 
L 174.782618 368.900807 
L 174.844759 368.709737 
L 175.1022 366.712955 
L 175.617082 361.001179 
L 176.451545 348.746001 
L 177.729873 330.729247 
L 178.413423 320.431268 
L 178.670864 312.832405 
L 178.839532 300.625028 
L 178.963814 271.843937 
L 179.061464 184.739575 
L 179.167991 92.432428 
L 179.221255 102.62774 
L 179.7894 310.014212 
L 180.029086 368.57606 
L 180.08235 368.900871 
L 180.144491 368.705359 
L 180.401932 366.705377 
L 180.916814 360.990436 
L 181.751277 348.733182 
L 183.029605 330.718433 
L 183.713155 320.413909 
L 183.970595 312.795269 
L 184.139264 300.523711 
L 184.263545 271.477851 
L 184.361195 183.499009 
L 184.467723 92.458804 
L 184.520986 102.876867 
L 185.098009 314.306161 
L 185.328818 368.58837 
L 185.382082 368.900836 
L 185.444223 368.700922 
L 185.710541 366.616336 
L 186.2343 360.748856 
L 187.095395 348.036082 
L 188.347091 330.476338 
L 189.012886 320.396427 
L 189.270327 312.757824 
L 189.438995 300.421277 
L 189.563277 271.106916 
L 189.660927 182.252972 
L 189.758577 92.490628 
L 189.820718 103.12884 
L 190.406618 318.67196 
L 190.619673 368.455262 
L 190.681814 368.900738 
L 190.743955 368.696447 
L 191.010273 366.608601 
L 191.534032 360.737891 
L 192.395127 348.023153 
L 193.646823 330.465393 
L 194.312618 320.37885 
L 194.570059 312.720139 
L 194.738727 300.318058 
L 194.863009 270.731552 
L 194.969536 167.571022 
L 195.058309 92.456194 
L 195.12045 103.383932 
L 195.715227 323.0838 
L 195.919405 368.470885 
L 195.981545 368.900493 
L 196.043686 368.691872 
L 196.310005 366.600764 
L 196.833764 360.726784 
L 197.694859 348.010065 
L 198.946555 330.454312 
L 199.61235 320.361071 
L 199.869791 312.68203 
L 200.038459 300.213435 
L 200.162741 270.347681 
L 200.269268 166.267388 
L 200.358041 92.428474 
L 200.420182 103.643553 
L 201.023836 327.505045 
L 201.219136 368.486157 
L 201.281277 368.900117 
L 201.343418 368.687219 
L 201.609736 366.592854 
L 202.133495 360.715578 
L 202.994591 347.996864 
L 204.246286 330.443123 
L 204.912082 320.34307 
L 205.169523 312.643348 
L 205.338191 300.106921 
L 205.462473 269.955264 
L 205.569 164.954636 
L 205.657773 92.408254 
L 205.719914 103.90486 
L 206.332445 331.886184 
L 206.518868 368.501203 
L 206.581009 368.899717 
L 206.634273 368.729366 
L 206.882836 366.828023 
L 207.397718 361.164723 
L 208.214427 349.216051 
L 209.519386 330.77879 
L 210.211814 320.325152 
L 210.469255 312.604742 
L 210.637923 300.000236 
L 210.762205 269.561604 
L 210.868732 163.647534 
L 210.957505 92.395856 
L 211.010768 101.525831 
L 211.534527 290.207237 
L 211.845232 368.812731 
L 211.880741 368.899206 
L 211.934005 368.725011 
L 212.182568 366.820279 
L 212.69745 361.15369 
L 213.514159 349.202792 
L 214.810241 330.883078 
L 215.502668 320.492458 
L 215.760109 312.961882 
L 215.928777 300.973357 
L 216.053059 273.086592 
L 216.150709 189.006714 
L 216.257236 92.392797 
L 216.3105 101.770848 
L 216.843136 293.999693 
L 217.136086 368.751108 
L 217.171595 368.900078 
L 217.233736 368.720623 
L 217.4823 366.812568 
L 217.997182 361.142708 
L 218.813891 349.189599 
L 220.109973 330.871982 
L 220.8024 320.474868 
L 221.059841 312.924797 
L 221.228509 300.873882 
L 221.352791 272.733744 
L 221.450441 187.78799 
L 221.556968 92.395771 
L 221.610232 102.015762 
L 222.160623 301.542339 
L 222.426941 368.667325 
L 222.471327 368.900437 
L 222.533468 368.716254 
L 222.790909 366.724369 
L 223.305791 361.017365 
L 224.131377 348.902356 
L 225.418582 330.745528 
L 226.102132 320.457339 
L 226.359573 312.887711 
L 226.528241 300.774218 
L 226.652523 272.378538 
L 226.750173 186.566492 
L 226.8567 92.405941 
L 226.909964 102.260487 
L 227.469232 305.637512 
L 227.717795 368.557002 
L 227.771059 368.900686 
L 227.8332 368.711889 
L 228.090641 366.716726 
L 228.605523 361.006526 
L 229.439986 348.752384 
L 230.718314 330.73463 
L 231.401864 320.439904 
L 231.659305 312.850767 
L 231.827973 300.67473 
L 231.952255 272.022322 
L 232.049905 185.348027 
L 232.156432 92.421945 
L 232.209695 102.505193 
L 232.777841 309.832971 
L 233.017527 368.569881 
L 233.070791 368.900863 
L 233.132932 368.707548 
L 233.390373 366.709155 
L 233.905255 360.995792 
L 234.739718 348.739572 
L 236.018045 330.723824 
L 236.701595 320.42257 
L 236.959036 312.813813 
L 237.127705 300.574397 
L 237.251986 271.661235 
L 237.349636 184.119088 
L 237.456164 92.445031 
L 237.509427 102.75234 
L 238.08645 314.11985 
L 238.317259 368.582242 
L 238.370523 368.900855 
L 238.432664 368.703134 
L 238.690105 366.701547 
L 239.204986 360.98501 
L 240.03945 348.726708 
L 241.317777 330.712974 
L 242.001327 320.405149 
L 242.258768 312.776518 
L 242.427436 300.47244 
L 242.551718 271.29226 
L 242.649368 182.875187 
L 242.755895 92.474233 
L 242.809159 103.002725 
L 243.395059 318.481684 
L 243.608114 368.447325 
L 243.670255 368.900804 
L 243.732395 368.698694 
L 243.998714 366.612476 
L 244.522473 360.743384 
L 245.383568 348.029629 
L 246.635264 330.470875 
L 247.301059 320.387657 
L 247.5585 312.739024 
L 247.727168 300.369795 
L 247.85145 270.919972 
L 247.957977 168.216845 
L 248.04675 92.472551 
L 248.108891 103.25585 
L 248.703668 322.890879 
L 248.907845 368.463139 
L 248.969986 368.900635 
L 249.032127 368.694168 
L 249.298445 366.604687 
L 249.822205 360.732343 
L 250.6833 348.016615 
L 251.934995 330.459859 
L 252.600791 320.369973 
L 252.858232 312.701116 
L 253.0269 300.265873 
L 253.151182 270.540494 
L 253.257709 166.921013 
L 253.346482 92.44162 
L 253.408623 103.513314 
L 254.0034 323.277849 
L 254.207577 368.478551 
L 254.269718 368.900313 
L 254.331859 368.689549 
L 254.598177 366.596811 
L 255.121936 360.721183 
L 255.983032 348.003466 
L 257.234727 330.44872 
L 257.900523 320.35208 
L 258.157964 312.662726 
L 258.326632 300.160345 
L 258.450914 270.152172 
L 258.557441 165.612039 
L 258.646214 92.417544 
L 258.708355 103.773719 
L 259.312009 327.698377 
L 259.507309 368.493687 
L 259.56945 368.89992 
L 259.622714 368.731512 
L 259.8624 366.911564 
L 260.368405 361.397263 
L 261.158482 349.908511 
L 262.49895 330.899786 
L 263.200255 320.334116 
L 263.457695 312.624058 
L 263.626364 300.053628 
L 263.750645 269.758673 
L 263.857173 164.299677 
L 263.945945 92.400891 
L 264.008086 104.036409 
L 264.620618 332.077935 
L 264.807041 368.508637 
L 264.869182 368.89948 
L 264.922445 368.727197 
L 265.171009 366.824156 
L 265.685891 361.159213 
L 266.5026 349.209429 
L 267.807559 330.773213 
L 268.499986 320.316162 
L 268.757427 312.585379 
L 268.926095 299.946703 
L 269.050377 269.363767 
L 269.156905 162.998158 
L 269.245677 92.393403 
L 269.298941 101.648114 
L 269.831577 293.831539 
L 270.124527 368.747305 
L 270.168914 368.898899 
L 270.222177 368.722825 
L 270.470741 366.816424 
L 270.985623 361.148199 
L 271.802332 349.196194 
L 273.098414 330.877531 
L 273.790841 320.48367 
L 274.048282 312.943362 
L 274.21695 300.923702 
L 274.341232 272.91059 
L 274.438882 188.397962 
L 274.545409 92.393672 
L 274.598673 101.893189 
L 275.140186 297.722293 
L 275.424259 368.754864 
L 275.459768 368.900263 
L 275.521909 368.718433 
L 275.770473 366.808735 
L 276.285355 361.137251 
L 277.102064 349.183045 
L 278.398145 330.86647 
L 279.090573 320.466082 
L 279.348014 312.906221 
L 279.516682 300.823983 
L 279.640964 272.556096 
L 279.738614 187.175777 
L 279.845141 92.399926 
L 279.898405 102.138588 
L 280.448795 301.717724 
L 280.715114 368.672333 
L 280.7595 368.90057 
L 280.821641 368.714059 
L 281.079082 366.720523 
L 281.593964 361.01191 
L 282.41955 348.89584 
L 283.706755 330.740043 
L 284.390305 320.448579 
L 284.647745 312.869158 
L 284.816414 300.724312 
L 284.940695 272.200082 
L 285.038345 185.955835 
L 285.144873 92.413423 
L 285.198136 102.383016 
L 285.757405 305.815819 
L 286.005968 368.563534 
L 286.059232 368.900795 
L 286.121373 368.709715 
L 286.378814 366.712924 
L 286.893695 361.001134 
L 287.728159 348.745948 
L 289.006486 330.729206 
L 289.690036 320.431213 
L 289.947477 312.8323 
L 290.116145 300.624759 
L 290.240427 271.842993 
L 290.338077 184.736408 
L 290.444605 92.432518 
L 290.497868 102.628407 
L 291.066014 310.015198 
L 291.3057 368.576092 
L 291.358964 368.90087 
L 291.421105 368.705346 
L 291.678545 366.705355 
L 292.193427 360.990406 
L 293.027891 348.733146 
L 294.306218 330.718402 
L 294.989768 320.413861 
L 295.247209 312.795167 
L 295.415877 300.523433 
L 295.540159 271.476847 
L 295.637809 183.495637 
L 295.744336 92.458885 
L 295.7976 102.877547 
L 296.374623 314.307178 
L 296.605432 368.588403 
L 296.658695 368.900836 
L 296.720836 368.70091 
L 296.987155 366.616315 
L 297.510914 360.748826 
L 298.372009 348.036047 
L 299.623705 330.476309 
L 300.2895 320.396379 
L 300.546941 312.757722 
L 300.715609 300.420997 
L 300.839891 271.105905 
L 300.937541 182.249583 
L 301.035191 92.490525 
L 301.097332 103.129526 
L 301.683232 318.672996 
L 301.896286 368.455304 
L 301.958427 368.900737 
L 302.020568 368.696435 
L 302.286886 366.60858 
L 302.810645 360.737861 
L 303.671741 348.023118 
L 304.923436 330.465363 
L 305.589232 320.378801 
L 305.846673 312.720036 
L 306.015341 300.317776 
L 306.139623 270.730519 
L 306.24615 167.567497 
L 306.334923 92.45611 
L 306.397064 103.384632 
L 306.991841 323.084856 
L 307.196018 368.470927 
L 307.258159 368.900492 
L 307.3203 368.69186 
L 307.586618 366.600743 
L 308.110377 360.726754 
L 308.971473 348.010029 
L 310.223168 330.454282 
L 310.888964 320.361022 
L 311.146405 312.681925 
L 311.315073 300.213147 
L 311.439355 270.346623 
L 311.545882 166.263807 
L 311.634655 92.428409 
L 311.696795 103.644267 
L 312.30045 327.506107 
L 312.49575 368.486199 
L 312.557891 368.900116 
L 312.620032 368.687206 
L 312.88635 366.592833 
L 313.410109 360.715547 
L 314.271205 347.996828 
L 315.5229 330.443092 
L 316.188695 320.343021 
L 316.446136 312.643242 
L 316.614805 300.106628 
L 316.739086 269.954185 
L 316.845614 164.951038 
L 316.934386 92.408208 
L 316.996527 103.90558 
L 317.609059 331.887235 
L 317.795482 368.501244 
L 317.857623 368.899715 
L 317.910886 368.729354 
L 318.15945 366.828002 
L 318.674332 361.164693 
L 319.491041 349.216015 
L 320.796 330.77876 
L 321.488427 320.325103 
L 321.745868 312.604636 
L 321.914536 299.999944 
L 322.038818 269.560522 
L 322.145345 163.643964 
L 322.234118 92.395833 
L 322.287382 101.526502 
L 322.811141 290.208137 
L 323.121845 368.812746 
L 323.157355 368.899205 
L 323.210618 368.724999 
L 323.459182 366.820258 
L 323.974064 361.15366 
L 324.790773 349.202755 
L 326.086855 330.883048 
L 326.779282 320.49241 
L 327.036723 312.96178 
L 327.205391 300.973085 
L 327.329673 273.085626 
L 327.427323 189.003365 
L 327.53385 92.392798 
L 327.587114 101.77152 
L 328.11975 294.000612 
L 328.4127 368.751129 
L 328.448209 368.900079 
L 328.51035 368.720611 
L 328.758914 366.812547 
L 329.273795 361.142678 
L 329.318182 360.565601 
L 329.335936 361.470429 
L 329.531236 365.483467 
L 329.620009 365.672883 
L 329.664395 365.615308 
L 329.815309 365.005769 
L 330.205909 362.246285 
L 332.185541 347.291155 
L 332.869091 344.100651 
L 333.428359 342.435541 
L 333.889977 341.688037 
L 334.262823 341.459558 
L 334.617914 341.499736 
L 335.088409 341.809136 
L 336.508773 342.867955 
L 337.130182 342.980364 
L 338.017909 342.884247 
L 339.891014 342.66318 
L 342.429914 342.716653 
L 350.747918 342.709302 
L 435.845455 342.709264 
L 435.845455 342.709264 
" style="fill:none;stroke:#ff0000;stroke-linecap:square;stroke-width:1.5;"/>
   </g>
   <g id="patch_3">
    <path d="M 63 384.48 
L 63 51.84 
" style="fill:none;stroke:#000000;stroke-linecap:square;stroke-linejoin:miter;stroke-width:0.8;"/>
   </g>
   <g id="patch_4">
    <path d="M 453.6 384.48 
L 453.6 51.84 
" style="fill:none;stroke:#000000;stroke-linecap:square;stroke-linejoin:miter;stroke-width:0.8;"/>
   </g>
   <g id="patch_5">
    <path d="M 63 384.48 
L 453.6 384.48 
" style="fill:none;stroke:#000000;stroke-linecap:square;stroke-linejoin:miter;stroke-width:0.8;"/>
   </g>
   <g id="patch_6">
    <path d="M 63 51.84 
L 453.6 51.84 
" style="fill:none;stroke:#000000;stroke-linecap:square;stroke-linejoin:miter;stroke-width:0.8;"/>
   </g>
   <g id="legend_1">
    <g id="patch_7">
     <path d="M 383.460938 89.19625 
L 446.6 89.19625 
Q 448.6 89.19625 448.6 87.19625 
L 448.6 58.84 
Q 448.6 56.84 446.6 56.84 
L 383.460938 56.84 
Q 381.460938 56.84 381.460938 58.84 
L 381.460938 87.19625 
Q 381.460938 89.19625 383.460938 89.19625 
z
" style="fill:#ffffff;opacity:0.8;stroke:#cccccc;stroke-linejoin:miter;"/>
    </g>
    <g id="line2d_15">
     <path d="M 385.460938 64.938437 
L 405.460938 64.938437 
" style="fill:none;stroke:#1f77b4;stroke-linecap:square;stroke-width:1.5;"/>
    </g>
    <g id="line2d_16"/>
    <g id="text_15">
     <!-- target -->
     <defs>
      <path d="M 41.109375 46.296875 
Q 39.59375 47.171875 37.8125 47.578125 
Q 36.03125 48 33.890625 48 
Q 26.265625 48 22.1875 43.046875 
Q 18.109375 38.09375 18.109375 28.8125 
L 18.109375 0 
L 9.078125 0 
L 9.078125 54.6875 
L 18.109375 54.6875 
L 18.109375 46.1875 
Q 20.953125 51.171875 25.484375 53.578125 
Q 30.03125 56 36.53125 56 
Q 37.453125 56 38.578125 55.875 
Q 39.703125 55.765625 41.0625 55.515625 
z
" id="DejaVuSans-72"/>
     </defs>
     <g transform="translate(413.460938 68.438437)scale(0.1 -0.1)">
      <use xlink:href="#DejaVuSans-74"/>
      <use x="39.208984" xlink:href="#DejaVuSans-61"/>
      <use x="100.488281" xlink:href="#DejaVuSans-72"/>
      <use x="141.585938" xlink:href="#DejaVuSans-67"/>
      <use x="205.0625" xlink:href="#DejaVuSans-65"/>
      <use x="266.585938" xlink:href="#DejaVuSans-74"/>
     </g>
    </g>
    <g id="line2d_17">
     <path d="M 385.460938 79.616562 
L 405.460938 79.616562 
" style="fill:none;stroke:#ff0000;stroke-linecap:square;stroke-width:1.5;"/>
    </g>
    <g id="line2d_18"/>
    <g id="text_16">
     <!-- model -->
     <defs>
      <path d="M 45.40625 46.390625 
L 45.40625 75.984375 
L 54.390625 75.984375 
L 54.390625 0 
L 45.40625 0 
L 45.40625 8.203125 
Q 42.578125 3.328125 38.25 0.953125 
Q 33.9375 -1.421875 27.875 -1.421875 
Q 17.96875 -1.421875 11.734375 6.484375 
Q 5.515625 14.40625 5.515625 27.296875 
Q 5.515625 40.1875 11.734375 48.09375 
Q 17.96875 56 27.875 56 
Q 33.9375 56 38.25 53.625 
Q 42.578125 51.265625 45.40625 46.390625 
z
M 14.796875 27.296875 
Q 14.796875 17.390625 18.875 11.75 
Q 22.953125 6.109375 30.078125 6.109375 
Q 37.203125 6.109375 41.296875 11.75 
Q 45.40625 17.390625 45.40625 27.296875 
Q 45.40625 37.203125 41.296875 42.84375 
Q 37.203125 48.484375 30.078125 48.484375 
Q 22.953125 48.484375 18.875 42.84375 
Q 14.796875 37.203125 14.796875 27.296875 
z
" id="DejaVuSans-64"/>
     </defs>
     <g transform="translate(413.460938 83.116562)scale(0.1 -0.1)">
      <use xlink:href="#DejaVuSans-6d"/>
      <use x="97.412109" xlink:href="#DejaVuSans-6f"/>
      <use x="158.59375" xlink:href="#DejaVuSans-64"/>
      <use x="222.070312" xlink:href="#DejaVuSans-65"/>
      <use x="283.59375" xlink:href="#DejaVuSans-6c"/>
     </g>
    </g>
   </g>
  </g>
 </g>
 <defs>
  <clipPath id="p4301229edd">
   <rect height="332.64" width="390.6" x="63" y="51.84"/>
  </clipPath>
 </defs>
</svg>
