<?xml version="1.0" encoding="utf-8" standalone="no"?>
<!DOCTYPE svg PUBLIC "-//W3C//DTD SVG 1.1//EN"
  "http://www.w3.org/Graphics/SVG/1.1/DTD/svg11.dtd">
<!-- Created with matplotlib (https://matplotlib.org/) -->
<svg height="432pt" version="1.1" viewBox="0 0 504 432" width="504pt" xmlns="http://www.w3.org/2000/svg" xmlns:xlink="http://www.w3.org/1999/xlink">
 <defs>
  <style type="text/css">
*{stroke-linecap:butt;stroke-linejoin:round;}
  </style>
 </defs>
 <g id="figure_1">
  <g id="patch_1">
   <path d="M 0 432 
L 504 432 
L 504 0 
L 0 0 
z
" style="fill:#ffffff;"/>
  </g>
  <g id="axes_1">
   <g id="patch_2">
    <path d="M 63 384.48 
L 453.6 384.48 
L 453.6 51.84 
L 63 51.84 
z
" style="fill:#ffffff;"/>
   </g>
   <g id="matplotlib.axis_1">
    <g id="xtick_1">
     <g id="line2d_1">
      <defs>
       <path d="M 0 0 
L 0 3.5 
" id="mb3429b5de8" style="stroke:#000000;stroke-width:0.8;"/>
      </defs>
      <g>
       <use style="stroke:#000000;stroke-width:0.8;" x="80.754545" xlink:href="#mb3429b5de8" y="384.48"/>
      </g>
     </g>
     <g id="text_1">
      <!-- 0 -->
      <defs>
       <path d="M 31.78125 66.40625 
Q 24.171875 66.40625 20.328125 58.90625 
Q 16.5 51.421875 16.5 36.375 
Q 16.5 21.390625 20.328125 13.890625 
Q 24.171875 6.390625 31.78125 6.390625 
Q 39.453125 6.390625 43.28125 13.890625 
Q 47.125 21.390625 47.125 36.375 
Q 47.125 51.421875 43.28125 58.90625 
Q 39.453125 66.40625 31.78125 66.40625 
z
M 31.78125 74.21875 
Q 44.046875 74.21875 50.515625 64.515625 
Q 56.984375 54.828125 56.984375 36.375 
Q 56.984375 17.96875 50.515625 8.265625 
Q 44.046875 -1.421875 31.78125 -1.421875 
Q 19.53125 -1.421875 13.0625 8.265625 
Q 6.59375 17.96875 6.59375 36.375 
Q 6.59375 54.828125 13.0625 64.515625 
Q 19.53125 74.21875 31.78125 74.21875 
z
" id="DejaVuSans-48"/>
      </defs>
      <g transform="translate(77.573295 399.078438)scale(0.1 -0.1)">
       <use xlink:href="#DejaVuSans-48"/>
      </g>
     </g>
    </g>
    <g id="xtick_2">
     <g id="line2d_2">
      <g>
       <use style="stroke:#000000;stroke-width:0.8;" x="151.767796" xlink:href="#mb3429b5de8" y="384.48"/>
      </g>
     </g>
     <g id="text_2">
      <!-- 720 -->
      <defs>
       <path d="M 8.203125 72.90625 
L 55.078125 72.90625 
L 55.078125 68.703125 
L 28.609375 0 
L 18.3125 0 
L 43.21875 64.59375 
L 8.203125 64.59375 
z
" id="DejaVuSans-55"/>
       <path d="M 19.1875 8.296875 
L 53.609375 8.296875 
L 53.609375 0 
L 7.328125 0 
L 7.328125 8.296875 
Q 12.9375 14.109375 22.625 23.890625 
Q 32.328125 33.6875 34.8125 36.53125 
Q 39.546875 41.84375 41.421875 45.53125 
Q 43.3125 49.21875 43.3125 52.78125 
Q 43.3125 58.59375 39.234375 62.25 
Q 35.15625 65.921875 28.609375 65.921875 
Q 23.96875 65.921875 18.8125 64.3125 
Q 13.671875 62.703125 7.8125 59.421875 
L 7.8125 69.390625 
Q 13.765625 71.78125 18.9375 73 
Q 24.125 74.21875 28.421875 74.21875 
Q 39.75 74.21875 46.484375 68.546875 
Q 53.21875 62.890625 53.21875 53.421875 
Q 53.21875 48.921875 51.53125 44.890625 
Q 49.859375 40.875 45.40625 35.40625 
Q 44.1875 33.984375 37.640625 27.21875 
Q 31.109375 20.453125 19.1875 8.296875 
z
" id="DejaVuSans-50"/>
      </defs>
      <g transform="translate(142.224046 399.078438)scale(0.1 -0.1)">
       <use xlink:href="#DejaVuSans-55"/>
       <use x="63.623047" xlink:href="#DejaVuSans-50"/>
       <use x="127.246094" xlink:href="#DejaVuSans-48"/>
      </g>
     </g>
    </g>
    <g id="xtick_3">
     <g id="line2d_3">
      <g>
       <use style="stroke:#000000;stroke-width:0.8;" x="222.781046" xlink:href="#mb3429b5de8" y="384.48"/>
      </g>
     </g>
     <g id="text_3">
      <!-- 1440 -->
      <defs>
       <path d="M 12.40625 8.296875 
L 28.515625 8.296875 
L 28.515625 63.921875 
L 10.984375 60.40625 
L 10.984375 69.390625 
L 28.421875 72.90625 
L 38.28125 72.90625 
L 38.28125 8.296875 
L 54.390625 8.296875 
L 54.390625 0 
L 12.40625 0 
z
" id="DejaVuSans-49"/>
       <path d="M 37.796875 64.3125 
L 12.890625 25.390625 
L 37.796875 25.390625 
z
M 35.203125 72.90625 
L 47.609375 72.90625 
L 47.609375 25.390625 
L 58.015625 25.390625 
L 58.015625 17.1875 
L 47.609375 17.1875 
L 47.609375 0 
L 37.796875 0 
L 37.796875 17.1875 
L 4.890625 17.1875 
L 4.890625 26.703125 
z
" id="DejaVuSans-52"/>
      </defs>
      <g transform="translate(210.056046 399.078438)scale(0.1 -0.1)">
       <use xlink:href="#DejaVuSans-49"/>
       <use x="63.623047" xlink:href="#DejaVuSans-52"/>
       <use x="127.246094" xlink:href="#DejaVuSans-52"/>
       <use x="190.869141" xlink:href="#DejaVuSans-48"/>
      </g>
     </g>
    </g>
    <g id="xtick_4">
     <g id="line2d_4">
      <g>
       <use style="stroke:#000000;stroke-width:0.8;" x="293.794296" xlink:href="#mb3429b5de8" y="384.48"/>
      </g>
     </g>
     <g id="text_4">
      <!-- 2160 -->
      <defs>
       <path d="M 33.015625 40.375 
Q 26.375 40.375 22.484375 35.828125 
Q 18.609375 31.296875 18.609375 23.390625 
Q 18.609375 15.53125 22.484375 10.953125 
Q 26.375 6.390625 33.015625 6.390625 
Q 39.65625 6.390625 43.53125 10.953125 
Q 47.40625 15.53125 47.40625 23.390625 
Q 47.40625 31.296875 43.53125 35.828125 
Q 39.65625 40.375 33.015625 40.375 
z
M 52.59375 71.296875 
L 52.59375 62.3125 
Q 48.875 64.0625 45.09375 64.984375 
Q 41.3125 65.921875 37.59375 65.921875 
Q 27.828125 65.921875 22.671875 59.328125 
Q 17.53125 52.734375 16.796875 39.40625 
Q 19.671875 43.65625 24.015625 45.921875 
Q 28.375 48.1875 33.59375 48.1875 
Q 44.578125 48.1875 50.953125 41.515625 
Q 57.328125 34.859375 57.328125 23.390625 
Q 57.328125 12.15625 50.6875 5.359375 
Q 44.046875 -1.421875 33.015625 -1.421875 
Q 20.359375 -1.421875 13.671875 8.265625 
Q 6.984375 17.96875 6.984375 36.375 
Q 6.984375 53.65625 15.1875 63.9375 
Q 23.390625 74.21875 37.203125 74.21875 
Q 40.921875 74.21875 44.703125 73.484375 
Q 48.484375 72.75 52.59375 71.296875 
z
" id="DejaVuSans-54"/>
      </defs>
      <g transform="translate(281.069296 399.078438)scale(0.1 -0.1)">
       <use xlink:href="#DejaVuSans-50"/>
       <use x="63.623047" xlink:href="#DejaVuSans-49"/>
       <use x="127.246094" xlink:href="#DejaVuSans-54"/>
       <use x="190.869141" xlink:href="#DejaVuSans-48"/>
      </g>
     </g>
    </g>
    <g id="xtick_5">
     <g id="line2d_5">
      <g>
       <use style="stroke:#000000;stroke-width:0.8;" x="364.807547" xlink:href="#mb3429b5de8" y="384.48"/>
      </g>
     </g>
     <g id="text_5">
      <!-- 2880 -->
      <defs>
       <path d="M 31.78125 34.625 
Q 24.75 34.625 20.71875 30.859375 
Q 16.703125 27.09375 16.703125 20.515625 
Q 16.703125 13.921875 20.71875 10.15625 
Q 24.75 6.390625 31.78125 6.390625 
Q 38.8125 6.390625 42.859375 10.171875 
Q 46.921875 13.96875 46.921875 20.515625 
Q 46.921875 27.09375 42.890625 30.859375 
Q 38.875 34.625 31.78125 34.625 
z
M 21.921875 38.8125 
Q 15.578125 40.375 12.03125 44.71875 
Q 8.5 49.078125 8.5 55.328125 
Q 8.5 64.0625 14.71875 69.140625 
Q 20.953125 74.21875 31.78125 74.21875 
Q 42.671875 74.21875 48.875 69.140625 
Q 55.078125 64.0625 55.078125 55.328125 
Q 55.078125 49.078125 51.53125 44.71875 
Q 48 40.375 41.703125 38.8125 
Q 48.828125 37.15625 52.796875 32.3125 
Q 56.78125 27.484375 56.78125 20.515625 
Q 56.78125 9.90625 50.3125 4.234375 
Q 43.84375 -1.421875 31.78125 -1.421875 
Q 19.734375 -1.421875 13.25 4.234375 
Q 6.78125 9.90625 6.78125 20.515625 
Q 6.78125 27.484375 10.78125 32.3125 
Q 14.796875 37.15625 21.921875 38.8125 
z
M 18.3125 54.390625 
Q 18.3125 48.734375 21.84375 45.5625 
Q 25.390625 42.390625 31.78125 42.390625 
Q 38.140625 42.390625 41.71875 45.5625 
Q 45.3125 48.734375 45.3125 54.390625 
Q 45.3125 60.0625 41.71875 63.234375 
Q 38.140625 66.40625 31.78125 66.40625 
Q 25.390625 66.40625 21.84375 63.234375 
Q 18.3125 60.0625 18.3125 54.390625 
z
" id="DejaVuSans-56"/>
      </defs>
      <g transform="translate(352.082547 399.078438)scale(0.1 -0.1)">
       <use xlink:href="#DejaVuSans-50"/>
       <use x="63.623047" xlink:href="#DejaVuSans-56"/>
       <use x="127.246094" xlink:href="#DejaVuSans-56"/>
       <use x="190.869141" xlink:href="#DejaVuSans-48"/>
      </g>
     </g>
    </g>
    <g id="text_6">
     <!-- time [ms] -->
     <defs>
      <path d="M 18.3125 70.21875 
L 18.3125 54.6875 
L 36.8125 54.6875 
L 36.8125 47.703125 
L 18.3125 47.703125 
L 18.3125 18.015625 
Q 18.3125 11.328125 20.140625 9.421875 
Q 21.96875 7.515625 27.59375 7.515625 
L 36.8125 7.515625 
L 36.8125 0 
L 27.59375 0 
Q 17.1875 0 13.234375 3.875 
Q 9.28125 7.765625 9.28125 18.015625 
L 9.28125 47.703125 
L 2.6875 47.703125 
L 2.6875 54.6875 
L 9.28125 54.6875 
L 9.28125 70.21875 
z
" id="DejaVuSans-116"/>
      <path d="M 9.421875 54.6875 
L 18.40625 54.6875 
L 18.40625 0 
L 9.421875 0 
z
M 9.421875 75.984375 
L 18.40625 75.984375 
L 18.40625 64.59375 
L 9.421875 64.59375 
z
" id="DejaVuSans-105"/>
      <path d="M 52 44.1875 
Q 55.375 50.25 60.0625 53.125 
Q 64.75 56 71.09375 56 
Q 79.640625 56 84.28125 50.015625 
Q 88.921875 44.046875 88.921875 33.015625 
L 88.921875 0 
L 79.890625 0 
L 79.890625 32.71875 
Q 79.890625 40.578125 77.09375 44.375 
Q 74.3125 48.1875 68.609375 48.1875 
Q 61.625 48.1875 57.5625 43.546875 
Q 53.515625 38.921875 53.515625 30.90625 
L 53.515625 0 
L 44.484375 0 
L 44.484375 32.71875 
Q 44.484375 40.625 41.703125 44.40625 
Q 38.921875 48.1875 33.109375 48.1875 
Q 26.21875 48.1875 22.15625 43.53125 
Q 18.109375 38.875 18.109375 30.90625 
L 18.109375 0 
L 9.078125 0 
L 9.078125 54.6875 
L 18.109375 54.6875 
L 18.109375 46.1875 
Q 21.1875 51.21875 25.484375 53.609375 
Q 29.78125 56 35.6875 56 
Q 41.65625 56 45.828125 52.96875 
Q 50 49.953125 52 44.1875 
z
" id="DejaVuSans-109"/>
      <path d="M 56.203125 29.59375 
L 56.203125 25.203125 
L 14.890625 25.203125 
Q 15.484375 15.921875 20.484375 11.0625 
Q 25.484375 6.203125 34.421875 6.203125 
Q 39.59375 6.203125 44.453125 7.46875 
Q 49.3125 8.734375 54.109375 11.28125 
L 54.109375 2.78125 
Q 49.265625 0.734375 44.1875 -0.34375 
Q 39.109375 -1.421875 33.890625 -1.421875 
Q 20.796875 -1.421875 13.15625 6.1875 
Q 5.515625 13.8125 5.515625 26.8125 
Q 5.515625 40.234375 12.765625 48.109375 
Q 20.015625 56 32.328125 56 
Q 43.359375 56 49.78125 48.890625 
Q 56.203125 41.796875 56.203125 29.59375 
z
M 47.21875 32.234375 
Q 47.125 39.59375 43.09375 43.984375 
Q 39.0625 48.390625 32.421875 48.390625 
Q 24.90625 48.390625 20.390625 44.140625 
Q 15.875 39.890625 15.1875 32.171875 
z
" id="DejaVuSans-101"/>
      <path id="DejaVuSans-32"/>
      <path d="M 8.59375 75.984375 
L 29.296875 75.984375 
L 29.296875 69 
L 17.578125 69 
L 17.578125 -6.203125 
L 29.296875 -6.203125 
L 29.296875 -13.1875 
L 8.59375 -13.1875 
z
" id="DejaVuSans-91"/>
      <path d="M 44.28125 53.078125 
L 44.28125 44.578125 
Q 40.484375 46.53125 36.375 47.5 
Q 32.28125 48.484375 27.875 48.484375 
Q 21.1875 48.484375 17.84375 46.4375 
Q 14.5 44.390625 14.5 40.28125 
Q 14.5 37.15625 16.890625 35.375 
Q 19.28125 33.59375 26.515625 31.984375 
L 29.59375 31.296875 
Q 39.15625 29.25 43.1875 25.515625 
Q 47.21875 21.78125 47.21875 15.09375 
Q 47.21875 7.46875 41.1875 3.015625 
Q 35.15625 -1.421875 24.609375 -1.421875 
Q 20.21875 -1.421875 15.453125 -0.5625 
Q 10.6875 0.296875 5.421875 2 
L 5.421875 11.28125 
Q 10.40625 8.6875 15.234375 7.390625 
Q 20.0625 6.109375 24.8125 6.109375 
Q 31.15625 6.109375 34.5625 8.28125 
Q 37.984375 10.453125 37.984375 14.40625 
Q 37.984375 18.0625 35.515625 20.015625 
Q 33.0625 21.96875 24.703125 23.78125 
L 21.578125 24.515625 
Q 13.234375 26.265625 9.515625 29.90625 
Q 5.8125 33.546875 5.8125 39.890625 
Q 5.8125 47.609375 11.28125 51.796875 
Q 16.75 56 26.8125 56 
Q 31.78125 56 36.171875 55.265625 
Q 40.578125 54.546875 44.28125 53.078125 
z
" id="DejaVuSans-115"/>
      <path d="M 30.421875 75.984375 
L 30.421875 -13.1875 
L 9.71875 -13.1875 
L 9.71875 -6.203125 
L 21.390625 -6.203125 
L 21.390625 69 
L 9.71875 69 
L 9.71875 75.984375 
z
" id="DejaVuSans-93"/>
     </defs>
     <g transform="translate(234.038281 412.756563)scale(0.1 -0.1)">
      <use xlink:href="#DejaVuSans-116"/>
      <use x="39.208984" xlink:href="#DejaVuSans-105"/>
      <use x="66.992188" xlink:href="#DejaVuSans-109"/>
      <use x="164.404297" xlink:href="#DejaVuSans-101"/>
      <use x="225.927734" xlink:href="#DejaVuSans-32"/>
      <use x="257.714844" xlink:href="#DejaVuSans-91"/>
      <use x="296.728516" xlink:href="#DejaVuSans-109"/>
      <use x="394.140625" xlink:href="#DejaVuSans-115"/>
      <use x="446.240234" xlink:href="#DejaVuSans-93"/>
     </g>
    </g>
   </g>
   <g id="matplotlib.axis_2">
    <g id="ytick_1">
     <g id="line2d_6">
      <defs>
       <path d="M 0 0 
L -3.5 0 
" id="md6d23d7247" style="stroke:#000000;stroke-width:0.8;"/>
      </defs>
      <g>
       <use style="stroke:#000000;stroke-width:0.8;" x="63" xlink:href="#md6d23d7247" y="359.725009"/>
      </g>
     </g>
     <g id="text_7">
      <!-- −80 -->
      <defs>
       <path d="M 10.59375 35.5 
L 73.1875 35.5 
L 73.1875 27.203125 
L 10.59375 27.203125 
z
" id="DejaVuSans-8722"/>
      </defs>
      <g transform="translate(34.895313 363.524227)scale(0.1 -0.1)">
       <use xlink:href="#DejaVuSans-8722"/>
       <use x="83.789062" xlink:href="#DejaVuSans-56"/>
       <use x="147.412109" xlink:href="#DejaVuSans-48"/>
      </g>
     </g>
    </g>
    <g id="ytick_2">
     <g id="line2d_7">
      <g>
       <use style="stroke:#000000;stroke-width:0.8;" x="63" xlink:href="#md6d23d7247" y="311.620434"/>
      </g>
     </g>
     <g id="text_8">
      <!-- −60 -->
      <g transform="translate(34.895313 315.419653)scale(0.1 -0.1)">
       <use xlink:href="#DejaVuSans-8722"/>
       <use x="83.789062" xlink:href="#DejaVuSans-54"/>
       <use x="147.412109" xlink:href="#DejaVuSans-48"/>
      </g>
     </g>
    </g>
    <g id="ytick_3">
     <g id="line2d_8">
      <g>
       <use style="stroke:#000000;stroke-width:0.8;" x="63" xlink:href="#md6d23d7247" y="263.51586"/>
      </g>
     </g>
     <g id="text_9">
      <!-- −40 -->
      <g transform="translate(34.895313 267.315078)scale(0.1 -0.1)">
       <use xlink:href="#DejaVuSans-8722"/>
       <use x="83.789062" xlink:href="#DejaVuSans-52"/>
       <use x="147.412109" xlink:href="#DejaVuSans-48"/>
      </g>
     </g>
    </g>
    <g id="ytick_4">
     <g id="line2d_9">
      <g>
       <use style="stroke:#000000;stroke-width:0.8;" x="63" xlink:href="#md6d23d7247" y="215.411285"/>
      </g>
     </g>
     <g id="text_10">
      <!-- −20 -->
      <g transform="translate(34.895313 219.210504)scale(0.1 -0.1)">
       <use xlink:href="#DejaVuSans-8722"/>
       <use x="83.789062" xlink:href="#DejaVuSans-50"/>
       <use x="147.412109" xlink:href="#DejaVuSans-48"/>
      </g>
     </g>
    </g>
    <g id="ytick_5">
     <g id="line2d_10">
      <g>
       <use style="stroke:#000000;stroke-width:0.8;" x="63" xlink:href="#md6d23d7247" y="167.306711"/>
      </g>
     </g>
     <g id="text_11">
      <!-- 0 -->
      <g transform="translate(49.6375 171.10593)scale(0.1 -0.1)">
       <use xlink:href="#DejaVuSans-48"/>
      </g>
     </g>
    </g>
    <g id="ytick_6">
     <g id="line2d_11">
      <g>
       <use style="stroke:#000000;stroke-width:0.8;" x="63" xlink:href="#md6d23d7247" y="119.202136"/>
      </g>
     </g>
     <g id="text_12">
      <!-- 20 -->
      <g transform="translate(43.275 123.001355)scale(0.1 -0.1)">
       <use xlink:href="#DejaVuSans-50"/>
       <use x="63.623047" xlink:href="#DejaVuSans-48"/>
      </g>
     </g>
    </g>
    <g id="ytick_7">
     <g id="line2d_12">
      <g>
       <use style="stroke:#000000;stroke-width:0.8;" x="63" xlink:href="#md6d23d7247" y="71.097562"/>
      </g>
     </g>
     <g id="text_13">
      <!-- 40 -->
      <g transform="translate(43.275 74.896781)scale(0.1 -0.1)">
       <use xlink:href="#DejaVuSans-52"/>
       <use x="63.623047" xlink:href="#DejaVuSans-48"/>
      </g>
     </g>
    </g>
    <g id="text_14">
     <!-- Voltage [mV] -->
     <defs>
      <path d="M 28.609375 0 
L 0.78125 72.90625 
L 11.078125 72.90625 
L 34.1875 11.53125 
L 57.328125 72.90625 
L 67.578125 72.90625 
L 39.796875 0 
z
" id="DejaVuSans-86"/>
      <path d="M 30.609375 48.390625 
Q 23.390625 48.390625 19.1875 42.75 
Q 14.984375 37.109375 14.984375 27.296875 
Q 14.984375 17.484375 19.15625 11.84375 
Q 23.34375 6.203125 30.609375 6.203125 
Q 37.796875 6.203125 41.984375 11.859375 
Q 46.1875 17.53125 46.1875 27.296875 
Q 46.1875 37.015625 41.984375 42.703125 
Q 37.796875 48.390625 30.609375 48.390625 
z
M 30.609375 56 
Q 42.328125 56 49.015625 48.375 
Q 55.71875 40.765625 55.71875 27.296875 
Q 55.71875 13.875 49.015625 6.21875 
Q 42.328125 -1.421875 30.609375 -1.421875 
Q 18.84375 -1.421875 12.171875 6.21875 
Q 5.515625 13.875 5.515625 27.296875 
Q 5.515625 40.765625 12.171875 48.375 
Q 18.84375 56 30.609375 56 
z
" id="DejaVuSans-111"/>
      <path d="M 9.421875 75.984375 
L 18.40625 75.984375 
L 18.40625 0 
L 9.421875 0 
z
" id="DejaVuSans-108"/>
      <path d="M 34.28125 27.484375 
Q 23.390625 27.484375 19.1875 25 
Q 14.984375 22.515625 14.984375 16.5 
Q 14.984375 11.71875 18.140625 8.90625 
Q 21.296875 6.109375 26.703125 6.109375 
Q 34.1875 6.109375 38.703125 11.40625 
Q 43.21875 16.703125 43.21875 25.484375 
L 43.21875 27.484375 
z
M 52.203125 31.203125 
L 52.203125 0 
L 43.21875 0 
L 43.21875 8.296875 
Q 40.140625 3.328125 35.546875 0.953125 
Q 30.953125 -1.421875 24.3125 -1.421875 
Q 15.921875 -1.421875 10.953125 3.296875 
Q 6 8.015625 6 15.921875 
Q 6 25.140625 12.171875 29.828125 
Q 18.359375 34.515625 30.609375 34.515625 
L 43.21875 34.515625 
L 43.21875 35.40625 
Q 43.21875 41.609375 39.140625 45 
Q 35.0625 48.390625 27.6875 48.390625 
Q 23 48.390625 18.546875 47.265625 
Q 14.109375 46.140625 10.015625 43.890625 
L 10.015625 52.203125 
Q 14.9375 54.109375 19.578125 55.046875 
Q 24.21875 56 28.609375 56 
Q 40.484375 56 46.34375 49.84375 
Q 52.203125 43.703125 52.203125 31.203125 
z
" id="DejaVuSans-97"/>
      <path d="M 45.40625 27.984375 
Q 45.40625 37.75 41.375 43.109375 
Q 37.359375 48.484375 30.078125 48.484375 
Q 22.859375 48.484375 18.828125 43.109375 
Q 14.796875 37.75 14.796875 27.984375 
Q 14.796875 18.265625 18.828125 12.890625 
Q 22.859375 7.515625 30.078125 7.515625 
Q 37.359375 7.515625 41.375 12.890625 
Q 45.40625 18.265625 45.40625 27.984375 
z
M 54.390625 6.78125 
Q 54.390625 -7.171875 48.1875 -13.984375 
Q 42 -20.796875 29.203125 -20.796875 
Q 24.46875 -20.796875 20.265625 -20.09375 
Q 16.0625 -19.390625 12.109375 -17.921875 
L 12.109375 -9.1875 
Q 16.0625 -11.328125 19.921875 -12.34375 
Q 23.78125 -13.375 27.78125 -13.375 
Q 36.625 -13.375 41.015625 -8.765625 
Q 45.40625 -4.15625 45.40625 5.171875 
L 45.40625 9.625 
Q 42.625 4.78125 38.28125 2.390625 
Q 33.9375 0 27.875 0 
Q 17.828125 0 11.671875 7.65625 
Q 5.515625 15.328125 5.515625 27.984375 
Q 5.515625 40.671875 11.671875 48.328125 
Q 17.828125 56 27.875 56 
Q 33.9375 56 38.28125 53.609375 
Q 42.625 51.21875 45.40625 46.390625 
L 45.40625 54.6875 
L 54.390625 54.6875 
z
" id="DejaVuSans-103"/>
     </defs>
     <g transform="translate(28.815625 251.079531)rotate(-90)scale(0.1 -0.1)">
      <use xlink:href="#DejaVuSans-86"/>
      <use x="68.298828" xlink:href="#DejaVuSans-111"/>
      <use x="129.480469" xlink:href="#DejaVuSans-108"/>
      <use x="157.263672" xlink:href="#DejaVuSans-116"/>
      <use x="196.472656" xlink:href="#DejaVuSans-97"/>
      <use x="257.751953" xlink:href="#DejaVuSans-103"/>
      <use x="321.228516" xlink:href="#DejaVuSans-101"/>
      <use x="382.751953" xlink:href="#DejaVuSans-32"/>
      <use x="414.539062" xlink:href="#DejaVuSans-91"/>
      <use x="453.552734" xlink:href="#DejaVuSans-109"/>
      <use x="550.964844" xlink:href="#DejaVuSans-86"/>
      <use x="619.373047" xlink:href="#DejaVuSans-93"/>
     </g>
    </g>
   </g>
   <g id="line2d_13">
    <path clip-path="url(#pf9f8e264c7)" d="M 80.754545 323.646578 
L 82.189605 329.342275 
L 82.835628 330.701612 
L 83.452063 331.513453 
L 84.053703 331.956599 
L 84.68 332.145036 
L 85.404927 332.121823 
L 86.396154 331.846943 
L 90.523799 330.482271 
L 92.348445 330.247807 
L 94.902949 330.166157 
L 100.480448 330.204075 
L 100.638256 344.88849 
L 101.013048 357.642509 
L 101.461812 366.518422 
L 101.772495 369.122134 
L 101.915508 369.358131 
L 101.945097 369.337143 
L 102.063452 369.034818 
L 102.280437 367.712295 
L 102.719338 363.305163 
L 103.557689 355.228585 
L 104.0607 352.412213 
L 104.479875 351.177315 
L 104.820147 350.761519 
L 105.106173 350.725732 
L 105.416856 350.931795 
L 105.86562 351.53466 
L 108.055195 354.879824 
L 108.602589 355.1496 
L 109.17464 355.181041 
L 109.958745 354.975508 
L 111.877089 354.41258 
L 113.080369 354.356175 
L 121.246893 354.452888 
L 130.069303 354.453916 
L 130.222178 340.423424 
L 130.567382 329.789645 
L 131.055598 321.072552 
L 131.553677 315.809195 
L 132.022167 312.973901 
L 132.451205 311.589968 
L 132.830929 311.026526 
L 133.338871 310.472141 
L 133.353665 309.371373 
L 133.383254 246.402662 
L 133.427638 70.094545 
L 133.511473 177.349342 
L 133.698869 326.639048 
L 133.891196 332.693351 
L 134.132839 334.508195 
L 134.339961 334.812206 
L 134.517494 334.712722 
L 134.946532 334.101787 
L 135.893375 332.846455 
L 136.766247 332.082883 
L 137.939938 331.3618 
L 139.246779 330.815807 
L 139.932254 330.619616 
L 139.937186 323.646578 
L 140.045678 324.202205 
L 140.810057 327.611989 
L 141.475806 329.601189 
L 142.116898 330.860077 
L 142.728401 331.602749 
L 143.330041 332.000399 
L 143.966201 332.155209 
L 144.715786 332.098448 
L 145.785916 331.770519 
L 149.257675 330.575701 
L 151.003417 330.294775 
L 153.257101 330.17399 
L 158.375973 330.197136 
L 159.663088 330.204075 
L 159.820896 327.265275 
L 160.210482 324.574143 
L 160.826917 321.778317 
L 161.47294 319.806896 
L 162.104169 318.547509 
L 162.715672 317.79344 
L 163.327175 317.378618 
L 163.97813 317.205224 
L 164.74744 317.23937 
L 165.827433 317.531471 
L 170.571513 319.050532 
L 172.677253 319.354377 
L 175.483263 319.517347 
L 180.937475 319.56295 
L 189.251943 319.561566 
L 189.40975 322.506017 
L 189.799337 325.200399 
L 190.415771 327.983252 
L 191.061794 329.939538 
L 191.688092 331.173766 
L 192.2848 331.890338 
L 192.871646 332.26254 
L 193.48808 332.391212 
L 194.217939 332.306465 
L 195.273275 331.934753 
L 198.53298 330.669882 
L 199.114894 330.53032 
L 199.119826 323.646578 
L 199.228318 324.202205 
L 199.992697 327.611989 
L 200.658446 329.601189 
L 201.299538 330.860077 
L 201.911041 331.602749 
L 202.512681 332.000399 
L 203.148841 332.155209 
L 203.898426 332.098448 
L 204.968556 331.770519 
L 208.440315 330.575701 
L 210.186057 330.294775 
L 212.439742 330.17399 
L 217.558613 330.197136 
L 218.845729 330.204075 
L 219.003536 324.32449 
L 219.393122 318.920455 
L 220.024351 313.100046 
L 220.734484 308.517289 
L 221.720779 303.758236 
L 221.996942 301.784897 
L 222.041325 299.730397 
L 222.070914 225.132712 
L 222.110365 68.075849 
L 222.189269 167.307086 
L 222.39146 323.743859 
L 222.578856 328.099776 
L 222.7268 328.604022 
L 222.751457 328.588938 
L 222.855018 328.314064 
L 223.086798 326.895536 
L 224.812814 314.579835 
L 225.508152 311.791895 
L 226.208422 309.853023 
L 226.913623 308.519557 
L 227.618824 307.638111 
L 228.333888 307.087374 
L 229.088404 306.784158 
L 229.941549 306.686162 
L 231.031405 306.798894 
L 233.013858 307.275065 
L 235.736033 307.861485 
L 238.157387 308.138478 
L 241.422024 308.268369 
L 248.434583 308.276898 
L 248.59239 314.229382 
L 248.972114 319.566637 
L 249.558959 324.850111 
L 250.185257 328.6084 
L 250.801691 331.048243 
L 251.383605 332.511622 
L 251.921136 333.311763 
L 252.424147 333.692052 
L 252.927157 333.802704 
L 253.499208 333.692831 
L 254.268519 333.297826 
L 256.226314 331.930295 
L 257.626854 331.140245 
L 258.297534 330.863723 
L 258.302466 323.646578 
L 258.410958 324.202205 
L 259.175337 327.611989 
L 259.841086 329.601189 
L 260.482178 330.860077 
L 261.093681 331.602749 
L 261.695321 332.000399 
L 262.331481 332.155209 
L 263.081066 332.098448 
L 264.151196 331.770519 
L 267.622955 330.575701 
L 269.368697 330.294775 
L 271.622382 330.17399 
L 276.741253 330.197136 
L 278.028369 330.204075 
L 278.186176 321.381751 
L 278.580694 313.137136 
L 279.40425 301.042622 
L 279.596578 296.411856 
L 279.616304 285.322293 
L 279.67055 67.565517 
L 279.754385 168.872218 
L 279.956576 322.271742 
L 280.134109 325.833331 
L 280.203149 325.962426 
L 280.252464 325.880413 
L 280.385614 325.15561 
L 280.681503 322.038434 
L 282.151082 305.079111 
L 283.038748 296.006494 
L 283.097926 293.037571 
L 283.117652 252.546324 
L 283.166966 72.161756 
L 283.250801 177.949193 
L 283.428335 319.876832 
L 283.605868 325.204904 
L 283.71436 325.585221 
L 283.758743 325.529662 
L 283.88203 324.95429 
L 284.158193 322.348768 
L 285.627773 306.984767 
L 286.480918 301.17845 
L 287.136804 296.42151 
L 287.279817 293.6067 
L 287.304474 289.194978 
L 287.368584 75.685901 
L 287.462282 200.572469 
L 287.62502 318.089775 
L 287.802553 324.216349 
L 287.930772 324.753636 
L 287.965292 324.720589 
L 288.078716 324.271339 
L 288.335153 322.095323 
L 289.873773 307.353725 
L 290.648015 302.757744 
L 291.959788 295.414473 
L 292.078143 292.888551 
L 292.1028 286.015099 
L 292.166909 78.266496 
L 292.245813 174.124254 
L 292.433209 318.179814 
L 292.615674 323.751487 
L 292.738961 324.226537 
L 292.773481 324.195529 
L 292.881973 323.790673 
L 293.133479 321.764901 
L 294.667168 307.756483 
L 295.416752 303.569887 
L 296.457293 299.131507 
L 297.044139 296.2346 
L 297.246329 294.094806 
L 297.310439 290.688523 
L 297.340028 215.759263 
L 297.384411 80.25172 
L 297.458383 169.939161 
L 297.655642 318.061943 
L 297.838107 323.335828 
L 297.961393 323.802595 
L 298.000845 323.764111 
L 298.119201 323.294747 
L 298.390432 321.064994 
L 299.751519 308.756115 
L 300.481378 304.580493 
L 301.349317 300.918957 
L 302.483557 296.208891 
L 302.69561 294.181 
L 302.764651 291.521101 
L 302.779445 278.355966 
L 302.843554 81.414699 
L 302.917527 169.774539 
L 303.114786 317.601594 
L 303.29725 323.0301 
L 303.425469 323.540048 
L 303.459989 323.512028 
L 303.568481 323.125277 
L 303.819987 321.180669 
L 305.314224 308.133948 
L 306.053945 304.179927 
L 306.946542 300.639634 
L 307.617223 298.23384 
L 307.77503 307.145151 
L 308.139959 314.747856 
L 308.692285 321.838449 
L 309.298856 326.933509 
L 309.910359 330.308192 
L 310.497205 332.389092 
L 311.039667 333.565715 
L 311.542678 334.168853 
L 312.016099 334.409117 
L 312.504315 334.408635 
L 313.101024 334.170023 
L 313.98869 333.543398 
L 316.686207 331.517644 
L 317.480174 331.115462 
L 317.485106 323.646578 
L 317.593598 324.202205 
L 318.357977 327.611989 
L 319.023726 329.601189 
L 319.664818 330.860077 
L 320.276321 331.602749 
L 320.877961 332.000399 
L 321.514121 332.155209 
L 322.263706 332.098448 
L 323.333836 331.770519 
L 326.805595 330.575701 
L 328.551337 330.294775 
L 330.805022 330.17399 
L 335.923894 330.197136 
L 337.211009 330.204075 
L 337.368816 318.436193 
L 337.773197 307.062499 
L 338.246619 293.644679 
L 338.266345 279.385868 
L 338.320591 67.017865 
L 338.404426 171.825213 
L 338.606616 320.654804 
L 338.774287 323.454403 
L 338.803875 323.465278 
L 338.843327 323.378435 
L 338.971546 322.512792 
L 339.257571 318.695833 
L 340.648247 294.605859 
L 340.746877 289.183422 
L 340.766603 250.939094 
L 340.815917 72.098863 
L 340.899753 181.257225 
L 341.072354 318.463833 
L 341.244956 323.285566 
L 341.309065 323.433035 
L 341.363311 323.316756 
L 341.501393 322.356006 
L 341.807144 318.318229 
L 343.434531 291.208621 
L 343.46412 285.609449 
L 343.528229 75.929182 
L 343.616996 196.729999 
L 343.779734 316.891497 
L 343.952336 322.402439 
L 344.03124 322.644889 
L 344.080554 322.554508 
L 344.213704 321.703884 
L 344.509593 318.031117 
L 346.284924 290.498378 
L 346.309581 284.84918 
L 346.373691 78.754333 
L 346.457526 185.328319 
L 346.625196 315.838662 
L 346.797798 321.706363 
L 346.886564 322.019798 
L 346.935879 321.934975 
L 347.064097 321.155508 
L 347.355054 317.698935 
L 349.233947 289.894848 
L 349.253672 284.674706 
L 349.317782 80.817292 
L 349.401617 184.395333 
L 349.569287 315.001356 
L 349.741889 321.189883 
L 349.840518 321.567967 
L 349.884901 321.49714 
L 350.008188 320.795511 
L 350.289282 317.60125 
L 352.247078 289.868914 
L 352.271736 276.886093 
L 352.330913 82.386265 
L 352.409817 172.999734 
L 352.597213 315.680486 
L 352.774746 320.998497 
L 352.858581 321.273375 
L 352.912827 321.182269 
L 353.045977 320.373404 
L 353.351729 316.80598 
L 354.747336 299.2156 
L 355.235552 292.752352 
L 355.319388 288.624493 
L 355.334182 276.447375 
L 355.39336 83.350584 
L 355.472263 172.763063 
L 355.659659 315.241319 
L 355.837192 320.717883 
L 355.925959 321.024789 
L 355.975274 320.949606 
L 356.103492 320.215908 
L 356.394449 316.940802 
L 357.873892 298.696271 
L 358.327588 292.711335 
L 358.411423 288.633767 
L 358.426217 277.109227 
L 358.490326 84.022009 
L 358.564299 172.191437 
L 358.751695 314.910655 
L 358.929228 320.526457 
L 359.022926 320.861665 
L 359.072241 320.784608 
L 359.200459 320.051914 
L 359.496347 316.732933 
L 360.931407 299.173559 
L 361.434417 292.803015 
L 361.523184 288.658077 
L 361.537978 277.771982 
L 361.602088 84.386174 
L 361.67606 171.712064 
L 361.863456 314.667455 
L 362.040989 320.389231 
L 362.139618 320.747092 
L 362.184002 320.679657 
L 362.307289 320.005675 
L 362.588383 316.939781 
L 364.127003 298.380263 
L 364.560973 292.745664 
L 364.64974 288.306245 
L 364.669466 253.766177 
L 364.723712 84.47442 
L 364.802615 174.854446 
L 364.98508 314.193348 
L 365.162613 320.217413 
L 365.266174 320.615907 
L 365.310557 320.549033 
L 365.433844 319.87906 
L 365.714938 316.830973 
L 366.799863 303.092304 
L 366.952739 313.160434 
L 367.273285 319.391326 
L 367.786158 325.159848 
L 368.368072 329.355203 
L 368.949986 332.047705 
L 369.49738 333.619265 
L 370.000391 334.452678 
L 370.463949 334.827493 
L 370.917645 334.918261 
L 371.425587 334.784295 
L 372.106131 334.353165 
L 373.437629 333.180414 
L 375.000907 331.915591 
L 376.209119 331.224921 
L 376.662814 331.031719 
L 376.667746 323.646578 
L 376.776238 324.202205 
L 377.540617 327.611989 
L 378.206366 329.601189 
L 378.847458 330.860077 
L 379.458961 331.602749 
L 380.060601 332.000399 
L 380.696762 332.155209 
L 381.446346 332.098448 
L 382.516476 331.770519 
L 385.988235 330.575701 
L 387.733977 330.294775 
L 389.987662 330.17399 
L 395.106534 330.197136 
L 396.393649 330.204075 
L 396.551456 315.486483 
L 396.985426 299.808471 
L 397.153096 290.766921 
L 397.172822 250.97697 
L 397.217205 66.96 
L 397.305972 177.630861 
L 397.498299 318.704426 
L 397.651175 321.170243 
L 397.661038 321.167487 
L 397.720216 320.969093 
L 397.873092 319.461441 
L 398.208432 313.476533 
L 399.125686 292.063854 
L 399.194727 286.58431 
L 399.219384 228.929787 
L 399.258836 72.05309 
L 399.33774 168.949864 
L 399.530067 318.105075 
L 399.692806 321.358763 
L 399.717463 321.36636 
L 399.756915 321.267938 
L 399.885134 320.27234 
L 400.166228 315.946088 
L 401.172249 295.103457 
L 401.349782 288.477307 
L 401.374439 273.017666 
L 401.428686 76.140463 
L 401.507589 170.585876 
L 401.694985 316.683235 
L 401.862655 320.62715 
L 401.892244 320.664342 
L 401.941559 320.553858 
L 402.074709 319.505595 
L 402.365666 315.056537 
L 403.485111 292.586845 
L 403.588672 287.173897 
L 403.608398 259.647177 
L 403.662644 79.077824 
L 403.741548 176.280795 
L 403.919081 315.218996 
L 404.086751 320.001611 
L 404.136066 320.102498 
L 404.190312 319.967253 
L 404.328393 318.846009 
L 404.639076 314.076342 
L 405.807836 290.940181 
L 405.871945 285.716244 
L 405.896603 227.955104 
L 405.940986 81.213262 
L 406.014958 168.356783 
L 406.207285 315.190417 
L 406.379887 319.503869 
L 406.419339 319.570631 
L 406.473585 319.447183 
L 406.611666 318.362151 
L 406.917418 313.796429 
L 408.120698 290.668724 
L 408.179876 285.817327 
L 408.204533 229.707632 
L 408.248916 82.806935 
L 408.32782 175.53896 
L 408.505353 313.74576 
L 408.677955 319.095121 
L 408.737133 319.240648 
L 408.791379 319.110591 
L 408.92946 318.028072 
L 409.240143 313.435426 
L 410.463149 290.266663 
L 410.517395 284.275631 
L 410.556847 126.891501 
L 410.581504 84.040304 
L 410.655477 165.174538 
L 410.852736 314.421661 
L 411.025337 318.915993 
L 411.074652 319.017709 
L 411.128898 318.896111 
L 411.26698 317.837529 
L 411.577663 313.308775 
L 412.815463 290.232353 
L 412.869709 284.135985 
L 412.914092 109.085843 
L 412.933818 84.709488 
L 413.002859 157.59805 
L 413.214912 314.767024 
L 413.387514 318.746141 
L 413.431897 318.821696 
L 413.486144 318.697819 
L 413.624225 317.642387 
L 413.934908 313.148424 
L 415.182571 290.114723 
L 415.231886 285.27033 
L 415.261475 203.221411 
L 415.300927 84.812925 
L 415.374899 168.495199 
L 415.567226 313.543397 
L 415.739828 318.439897 
L 415.799006 318.584897 
L 415.853252 318.461752 
L 415.991333 317.412221 
L 416.302016 312.954703 
L 417.554611 290.046214 
L 417.603926 284.777222 
L 417.633515 195.618398 
L 417.672967 85.226904 
L 417.746939 170.758439 
L 417.934335 313.112868 
L 418.106936 318.363117 
L 418.171046 318.546135 
L 418.225292 318.430459 
L 418.363373 317.397775 
L 418.674056 312.968556 
L 419.931582 290.150631 
L 419.985829 283.348149 
L 420.049938 85.442216 
L 420.143636 206.214017 
L 420.306375 312.268487 
L 420.478976 318.194034 
L 420.552948 318.438989 
L 420.607195 318.32128 
L 420.745276 317.288456 
L 421.055959 312.873989 
L 422.318417 290.008463 
L 422.367731 284.411477 
L 422.402252 158.057636 
L 422.436772 85.664171 
L 422.510744 172.100359 
L 422.693209 312.526361 
L 422.86581 318.20918 
L 422.939783 318.441053 
L 422.989097 318.337589 
L 423.122247 317.380492 
L 423.423067 313.189488 
L 424.695388 290.472585 
L 424.754566 285.104677 
L 424.784155 200.759381 
L 424.823606 85.49603 
L 424.897578 169.009157 
L 425.089906 313.078718 
L 425.262508 318.133828 
L 425.326617 318.312162 
L 425.380863 318.196212 
L 425.518944 317.170078 
L 425.829627 312.78026 
L 425.982503 310.180241 
L 425.987435 311.59976 
L 426.150173 321.644687 
L 426.44113 326.078502 
L 426.909621 329.879916 
L 427.466877 332.69199 
L 428.00934 334.383023 
L 428.502487 335.259513 
L 428.94632 335.634682 
L 429.370427 335.713412 
L 429.843849 335.563497 
L 430.475077 335.106502 
L 431.638906 333.930299 
L 433.271224 332.365119 
L 434.435052 331.562067 
L 435.608744 331.022642 
L 435.845455 330.941761 
L 435.845455 330.941761 
" style="fill:none;stroke:#ff0000;stroke-linecap:square;stroke-width:1.5;"/>
   </g>
   <g id="patch_3">
    <path d="M 63 384.48 
L 63 51.84 
" style="fill:none;stroke:#000000;stroke-linecap:square;stroke-linejoin:miter;stroke-width:0.8;"/>
   </g>
   <g id="patch_4">
    <path d="M 453.6 384.48 
L 453.6 51.84 
" style="fill:none;stroke:#000000;stroke-linecap:square;stroke-linejoin:miter;stroke-width:0.8;"/>
   </g>
   <g id="patch_5">
    <path d="M 63 384.48 
L 453.6 384.48 
" style="fill:none;stroke:#000000;stroke-linecap:square;stroke-linejoin:miter;stroke-width:0.8;"/>
   </g>
   <g id="patch_6">
    <path d="M 63 51.84 
L 453.6 51.84 
" style="fill:none;stroke:#000000;stroke-linecap:square;stroke-linejoin:miter;stroke-width:0.8;"/>
   </g>
   <g id="legend_1">
    <g id="patch_7">
     <path d="M 383.460938 379.48 
L 446.6 379.48 
Q 448.6 379.48 448.6 377.48 
L 448.6 363.801875 
Q 448.6 361.801875 446.6 361.801875 
L 383.460938 361.801875 
Q 381.460938 361.801875 381.460938 363.801875 
L 381.460938 377.48 
Q 381.460938 379.48 383.460938 379.48 
z
" style="fill:#ffffff;opacity:0.8;stroke:#cccccc;stroke-linejoin:miter;"/>
    </g>
    <g id="line2d_14">
     <path d="M 385.460938 369.900312 
L 405.460938 369.900312 
" style="fill:none;stroke:#ff0000;stroke-linecap:square;stroke-width:1.5;"/>
    </g>
    <g id="line2d_15"/>
    <g id="text_15">
     <!-- model -->
     <defs>
      <path d="M 45.40625 46.390625 
L 45.40625 75.984375 
L 54.390625 75.984375 
L 54.390625 0 
L 45.40625 0 
L 45.40625 8.203125 
Q 42.578125 3.328125 38.25 0.953125 
Q 33.9375 -1.421875 27.875 -1.421875 
Q 17.96875 -1.421875 11.734375 6.484375 
Q 5.515625 14.40625 5.515625 27.296875 
Q 5.515625 40.1875 11.734375 48.09375 
Q 17.96875 56 27.875 56 
Q 33.9375 56 38.25 53.625 
Q 42.578125 51.265625 45.40625 46.390625 
z
M 14.796875 27.296875 
Q 14.796875 17.390625 18.875 11.75 
Q 22.953125 6.109375 30.078125 6.109375 
Q 37.203125 6.109375 41.296875 11.75 
Q 45.40625 17.390625 45.40625 27.296875 
Q 45.40625 37.203125 41.296875 42.84375 
Q 37.203125 48.484375 30.078125 48.484375 
Q 22.953125 48.484375 18.875 42.84375 
Q 14.796875 37.203125 14.796875 27.296875 
z
" id="DejaVuSans-100"/>
     </defs>
     <g transform="translate(413.460938 373.400312)scale(0.1 -0.1)">
      <use xlink:href="#DejaVuSans-109"/>
      <use x="97.412109" xlink:href="#DejaVuSans-111"/>
      <use x="158.59375" xlink:href="#DejaVuSans-100"/>
      <use x="222.070312" xlink:href="#DejaVuSans-101"/>
      <use x="283.59375" xlink:href="#DejaVuSans-108"/>
     </g>
    </g>
   </g>
  </g>
 </g>
 <defs>
  <clipPath id="pf9f8e264c7">
   <rect height="332.64" width="390.6" x="63" y="51.84"/>
  </clipPath>
 </defs>
</svg>
