<?xml version="1.0" encoding="utf-8" standalone="no"?>
<!DOCTYPE svg PUBLIC "-//W3C//DTD SVG 1.1//EN"
  "http://www.w3.org/Graphics/SVG/1.1/DTD/svg11.dtd">
<!-- Created with matplotlib (http://matplotlib.org/) -->
<svg height="432pt" version="1.1" viewBox="0 0 504 432" width="504pt" xmlns="http://www.w3.org/2000/svg" xmlns:xlink="http://www.w3.org/1999/xlink">
 <defs>
  <style type="text/css">
*{stroke-linecap:butt;stroke-linejoin:round;}
  </style>
 </defs>
 <g id="figure_1">
  <g id="patch_1">
   <path d="M 0 432 
L 504 432 
L 504 0 
L 0 0 
z
" style="fill:#ffffff;"/>
  </g>
  <g id="axes_1">
   <g id="patch_2">
    <path d="M 63 384.48 
L 453.6 384.48 
L 453.6 51.84 
L 63 51.84 
z
" style="fill:#ffffff;"/>
   </g>
   <g id="matplotlib.axis_1">
    <g id="xtick_1">
     <g id="line2d_1">
      <defs>
       <path d="M 0 0 
L 0 3.5 
" id="macd2183222" style="stroke:#000000;stroke-width:0.8;"/>
      </defs>
      <g>
       <use style="stroke:#000000;stroke-width:0.8;" x="80.754545" xlink:href="#macd2183222" y="384.48"/>
      </g>
     </g>
     <g id="text_1">
      <!-- 0 -->
      <defs>
       <path d="M 31.78125 66.40625 
Q 24.171875 66.40625 20.328125 58.90625 
Q 16.5 51.421875 16.5 36.375 
Q 16.5 21.390625 20.328125 13.890625 
Q 24.171875 6.390625 31.78125 6.390625 
Q 39.453125 6.390625 43.28125 13.890625 
Q 47.125 21.390625 47.125 36.375 
Q 47.125 51.421875 43.28125 58.90625 
Q 39.453125 66.40625 31.78125 66.40625 
z
M 31.78125 74.21875 
Q 44.046875 74.21875 50.515625 64.515625 
Q 56.984375 54.828125 56.984375 36.375 
Q 56.984375 17.96875 50.515625 8.265625 
Q 44.046875 -1.421875 31.78125 -1.421875 
Q 19.53125 -1.421875 13.0625 8.265625 
Q 6.59375 17.96875 6.59375 36.375 
Q 6.59375 54.828125 13.0625 64.515625 
Q 19.53125 74.21875 31.78125 74.21875 
z
" id="DejaVuSans-30"/>
      </defs>
      <g transform="translate(77.573295 399.078438)scale(0.1 -0.1)">
       <use xlink:href="#DejaVuSans-30"/>
      </g>
     </g>
    </g>
    <g id="xtick_2">
     <g id="line2d_2">
      <g>
       <use style="stroke:#000000;stroke-width:0.8;" x="151.767796" xlink:href="#macd2183222" y="384.48"/>
      </g>
     </g>
     <g id="text_2">
      <!-- 720 -->
      <defs>
       <path d="M 8.203125 72.90625 
L 55.078125 72.90625 
L 55.078125 68.703125 
L 28.609375 0 
L 18.3125 0 
L 43.21875 64.59375 
L 8.203125 64.59375 
z
" id="DejaVuSans-37"/>
       <path d="M 19.1875 8.296875 
L 53.609375 8.296875 
L 53.609375 0 
L 7.328125 0 
L 7.328125 8.296875 
Q 12.9375 14.109375 22.625 23.890625 
Q 32.328125 33.6875 34.8125 36.53125 
Q 39.546875 41.84375 41.421875 45.53125 
Q 43.3125 49.21875 43.3125 52.78125 
Q 43.3125 58.59375 39.234375 62.25 
Q 35.15625 65.921875 28.609375 65.921875 
Q 23.96875 65.921875 18.8125 64.3125 
Q 13.671875 62.703125 7.8125 59.421875 
L 7.8125 69.390625 
Q 13.765625 71.78125 18.9375 73 
Q 24.125 74.21875 28.421875 74.21875 
Q 39.75 74.21875 46.484375 68.546875 
Q 53.21875 62.890625 53.21875 53.421875 
Q 53.21875 48.921875 51.53125 44.890625 
Q 49.859375 40.875 45.40625 35.40625 
Q 44.1875 33.984375 37.640625 27.21875 
Q 31.109375 20.453125 19.1875 8.296875 
z
" id="DejaVuSans-32"/>
      </defs>
      <g transform="translate(142.224046 399.078438)scale(0.1 -0.1)">
       <use xlink:href="#DejaVuSans-37"/>
       <use x="63.623047" xlink:href="#DejaVuSans-32"/>
       <use x="127.246094" xlink:href="#DejaVuSans-30"/>
      </g>
     </g>
    </g>
    <g id="xtick_3">
     <g id="line2d_3">
      <g>
       <use style="stroke:#000000;stroke-width:0.8;" x="222.781046" xlink:href="#macd2183222" y="384.48"/>
      </g>
     </g>
     <g id="text_3">
      <!-- 1440 -->
      <defs>
       <path d="M 12.40625 8.296875 
L 28.515625 8.296875 
L 28.515625 63.921875 
L 10.984375 60.40625 
L 10.984375 69.390625 
L 28.421875 72.90625 
L 38.28125 72.90625 
L 38.28125 8.296875 
L 54.390625 8.296875 
L 54.390625 0 
L 12.40625 0 
z
" id="DejaVuSans-31"/>
       <path d="M 37.796875 64.3125 
L 12.890625 25.390625 
L 37.796875 25.390625 
z
M 35.203125 72.90625 
L 47.609375 72.90625 
L 47.609375 25.390625 
L 58.015625 25.390625 
L 58.015625 17.1875 
L 47.609375 17.1875 
L 47.609375 0 
L 37.796875 0 
L 37.796875 17.1875 
L 4.890625 17.1875 
L 4.890625 26.703125 
z
" id="DejaVuSans-34"/>
      </defs>
      <g transform="translate(210.056046 399.078438)scale(0.1 -0.1)">
       <use xlink:href="#DejaVuSans-31"/>
       <use x="63.623047" xlink:href="#DejaVuSans-34"/>
       <use x="127.246094" xlink:href="#DejaVuSans-34"/>
       <use x="190.869141" xlink:href="#DejaVuSans-30"/>
      </g>
     </g>
    </g>
    <g id="xtick_4">
     <g id="line2d_4">
      <g>
       <use style="stroke:#000000;stroke-width:0.8;" x="293.794296" xlink:href="#macd2183222" y="384.48"/>
      </g>
     </g>
     <g id="text_4">
      <!-- 2160 -->
      <defs>
       <path d="M 33.015625 40.375 
Q 26.375 40.375 22.484375 35.828125 
Q 18.609375 31.296875 18.609375 23.390625 
Q 18.609375 15.53125 22.484375 10.953125 
Q 26.375 6.390625 33.015625 6.390625 
Q 39.65625 6.390625 43.53125 10.953125 
Q 47.40625 15.53125 47.40625 23.390625 
Q 47.40625 31.296875 43.53125 35.828125 
Q 39.65625 40.375 33.015625 40.375 
z
M 52.59375 71.296875 
L 52.59375 62.3125 
Q 48.875 64.0625 45.09375 64.984375 
Q 41.3125 65.921875 37.59375 65.921875 
Q 27.828125 65.921875 22.671875 59.328125 
Q 17.53125 52.734375 16.796875 39.40625 
Q 19.671875 43.65625 24.015625 45.921875 
Q 28.375 48.1875 33.59375 48.1875 
Q 44.578125 48.1875 50.953125 41.515625 
Q 57.328125 34.859375 57.328125 23.390625 
Q 57.328125 12.15625 50.6875 5.359375 
Q 44.046875 -1.421875 33.015625 -1.421875 
Q 20.359375 -1.421875 13.671875 8.265625 
Q 6.984375 17.96875 6.984375 36.375 
Q 6.984375 53.65625 15.1875 63.9375 
Q 23.390625 74.21875 37.203125 74.21875 
Q 40.921875 74.21875 44.703125 73.484375 
Q 48.484375 72.75 52.59375 71.296875 
z
" id="DejaVuSans-36"/>
      </defs>
      <g transform="translate(281.069296 399.078438)scale(0.1 -0.1)">
       <use xlink:href="#DejaVuSans-32"/>
       <use x="63.623047" xlink:href="#DejaVuSans-31"/>
       <use x="127.246094" xlink:href="#DejaVuSans-36"/>
       <use x="190.869141" xlink:href="#DejaVuSans-30"/>
      </g>
     </g>
    </g>
    <g id="xtick_5">
     <g id="line2d_5">
      <g>
       <use style="stroke:#000000;stroke-width:0.8;" x="364.807547" xlink:href="#macd2183222" y="384.48"/>
      </g>
     </g>
     <g id="text_5">
      <!-- 2880 -->
      <defs>
       <path d="M 31.78125 34.625 
Q 24.75 34.625 20.71875 30.859375 
Q 16.703125 27.09375 16.703125 20.515625 
Q 16.703125 13.921875 20.71875 10.15625 
Q 24.75 6.390625 31.78125 6.390625 
Q 38.8125 6.390625 42.859375 10.171875 
Q 46.921875 13.96875 46.921875 20.515625 
Q 46.921875 27.09375 42.890625 30.859375 
Q 38.875 34.625 31.78125 34.625 
z
M 21.921875 38.8125 
Q 15.578125 40.375 12.03125 44.71875 
Q 8.5 49.078125 8.5 55.328125 
Q 8.5 64.0625 14.71875 69.140625 
Q 20.953125 74.21875 31.78125 74.21875 
Q 42.671875 74.21875 48.875 69.140625 
Q 55.078125 64.0625 55.078125 55.328125 
Q 55.078125 49.078125 51.53125 44.71875 
Q 48 40.375 41.703125 38.8125 
Q 48.828125 37.15625 52.796875 32.3125 
Q 56.78125 27.484375 56.78125 20.515625 
Q 56.78125 9.90625 50.3125 4.234375 
Q 43.84375 -1.421875 31.78125 -1.421875 
Q 19.734375 -1.421875 13.25 4.234375 
Q 6.78125 9.90625 6.78125 20.515625 
Q 6.78125 27.484375 10.78125 32.3125 
Q 14.796875 37.15625 21.921875 38.8125 
z
M 18.3125 54.390625 
Q 18.3125 48.734375 21.84375 45.5625 
Q 25.390625 42.390625 31.78125 42.390625 
Q 38.140625 42.390625 41.71875 45.5625 
Q 45.3125 48.734375 45.3125 54.390625 
Q 45.3125 60.0625 41.71875 63.234375 
Q 38.140625 66.40625 31.78125 66.40625 
Q 25.390625 66.40625 21.84375 63.234375 
Q 18.3125 60.0625 18.3125 54.390625 
z
" id="DejaVuSans-38"/>
      </defs>
      <g transform="translate(352.082547 399.078438)scale(0.1 -0.1)">
       <use xlink:href="#DejaVuSans-32"/>
       <use x="63.623047" xlink:href="#DejaVuSans-38"/>
       <use x="127.246094" xlink:href="#DejaVuSans-38"/>
       <use x="190.869141" xlink:href="#DejaVuSans-30"/>
      </g>
     </g>
    </g>
    <g id="text_6">
     <!-- time [ms] -->
     <defs>
      <path d="M 18.3125 70.21875 
L 18.3125 54.6875 
L 36.8125 54.6875 
L 36.8125 47.703125 
L 18.3125 47.703125 
L 18.3125 18.015625 
Q 18.3125 11.328125 20.140625 9.421875 
Q 21.96875 7.515625 27.59375 7.515625 
L 36.8125 7.515625 
L 36.8125 0 
L 27.59375 0 
Q 17.1875 0 13.234375 3.875 
Q 9.28125 7.765625 9.28125 18.015625 
L 9.28125 47.703125 
L 2.6875 47.703125 
L 2.6875 54.6875 
L 9.28125 54.6875 
L 9.28125 70.21875 
z
" id="DejaVuSans-74"/>
      <path d="M 9.421875 54.6875 
L 18.40625 54.6875 
L 18.40625 0 
L 9.421875 0 
z
M 9.421875 75.984375 
L 18.40625 75.984375 
L 18.40625 64.59375 
L 9.421875 64.59375 
z
" id="DejaVuSans-69"/>
      <path d="M 52 44.1875 
Q 55.375 50.25 60.0625 53.125 
Q 64.75 56 71.09375 56 
Q 79.640625 56 84.28125 50.015625 
Q 88.921875 44.046875 88.921875 33.015625 
L 88.921875 0 
L 79.890625 0 
L 79.890625 32.71875 
Q 79.890625 40.578125 77.09375 44.375 
Q 74.3125 48.1875 68.609375 48.1875 
Q 61.625 48.1875 57.5625 43.546875 
Q 53.515625 38.921875 53.515625 30.90625 
L 53.515625 0 
L 44.484375 0 
L 44.484375 32.71875 
Q 44.484375 40.625 41.703125 44.40625 
Q 38.921875 48.1875 33.109375 48.1875 
Q 26.21875 48.1875 22.15625 43.53125 
Q 18.109375 38.875 18.109375 30.90625 
L 18.109375 0 
L 9.078125 0 
L 9.078125 54.6875 
L 18.109375 54.6875 
L 18.109375 46.1875 
Q 21.1875 51.21875 25.484375 53.609375 
Q 29.78125 56 35.6875 56 
Q 41.65625 56 45.828125 52.96875 
Q 50 49.953125 52 44.1875 
z
" id="DejaVuSans-6d"/>
      <path d="M 56.203125 29.59375 
L 56.203125 25.203125 
L 14.890625 25.203125 
Q 15.484375 15.921875 20.484375 11.0625 
Q 25.484375 6.203125 34.421875 6.203125 
Q 39.59375 6.203125 44.453125 7.46875 
Q 49.3125 8.734375 54.109375 11.28125 
L 54.109375 2.78125 
Q 49.265625 0.734375 44.1875 -0.34375 
Q 39.109375 -1.421875 33.890625 -1.421875 
Q 20.796875 -1.421875 13.15625 6.1875 
Q 5.515625 13.8125 5.515625 26.8125 
Q 5.515625 40.234375 12.765625 48.109375 
Q 20.015625 56 32.328125 56 
Q 43.359375 56 49.78125 48.890625 
Q 56.203125 41.796875 56.203125 29.59375 
z
M 47.21875 32.234375 
Q 47.125 39.59375 43.09375 43.984375 
Q 39.0625 48.390625 32.421875 48.390625 
Q 24.90625 48.390625 20.390625 44.140625 
Q 15.875 39.890625 15.1875 32.171875 
z
" id="DejaVuSans-65"/>
      <path id="DejaVuSans-20"/>
      <path d="M 8.59375 75.984375 
L 29.296875 75.984375 
L 29.296875 69 
L 17.578125 69 
L 17.578125 -6.203125 
L 29.296875 -6.203125 
L 29.296875 -13.1875 
L 8.59375 -13.1875 
z
" id="DejaVuSans-5b"/>
      <path d="M 44.28125 53.078125 
L 44.28125 44.578125 
Q 40.484375 46.53125 36.375 47.5 
Q 32.28125 48.484375 27.875 48.484375 
Q 21.1875 48.484375 17.84375 46.4375 
Q 14.5 44.390625 14.5 40.28125 
Q 14.5 37.15625 16.890625 35.375 
Q 19.28125 33.59375 26.515625 31.984375 
L 29.59375 31.296875 
Q 39.15625 29.25 43.1875 25.515625 
Q 47.21875 21.78125 47.21875 15.09375 
Q 47.21875 7.46875 41.1875 3.015625 
Q 35.15625 -1.421875 24.609375 -1.421875 
Q 20.21875 -1.421875 15.453125 -0.5625 
Q 10.6875 0.296875 5.421875 2 
L 5.421875 11.28125 
Q 10.40625 8.6875 15.234375 7.390625 
Q 20.0625 6.109375 24.8125 6.109375 
Q 31.15625 6.109375 34.5625 8.28125 
Q 37.984375 10.453125 37.984375 14.40625 
Q 37.984375 18.0625 35.515625 20.015625 
Q 33.0625 21.96875 24.703125 23.78125 
L 21.578125 24.515625 
Q 13.234375 26.265625 9.515625 29.90625 
Q 5.8125 33.546875 5.8125 39.890625 
Q 5.8125 47.609375 11.28125 51.796875 
Q 16.75 56 26.8125 56 
Q 31.78125 56 36.171875 55.265625 
Q 40.578125 54.546875 44.28125 53.078125 
z
" id="DejaVuSans-73"/>
      <path d="M 30.421875 75.984375 
L 30.421875 -13.1875 
L 9.71875 -13.1875 
L 9.71875 -6.203125 
L 21.390625 -6.203125 
L 21.390625 69 
L 9.71875 69 
L 9.71875 75.984375 
z
" id="DejaVuSans-5d"/>
     </defs>
     <g transform="translate(234.038281 412.756563)scale(0.1 -0.1)">
      <use xlink:href="#DejaVuSans-74"/>
      <use x="39.208984" xlink:href="#DejaVuSans-69"/>
      <use x="66.992188" xlink:href="#DejaVuSans-6d"/>
      <use x="164.404297" xlink:href="#DejaVuSans-65"/>
      <use x="225.927734" xlink:href="#DejaVuSans-20"/>
      <use x="257.714844" xlink:href="#DejaVuSans-5b"/>
      <use x="296.728516" xlink:href="#DejaVuSans-6d"/>
      <use x="394.140625" xlink:href="#DejaVuSans-73"/>
      <use x="446.240234" xlink:href="#DejaVuSans-5d"/>
     </g>
    </g>
   </g>
   <g id="matplotlib.axis_2">
    <g id="ytick_1">
     <g id="line2d_6">
      <defs>
       <path d="M 0 0 
L -3.5 0 
" id="m5a94ca570b" style="stroke:#000000;stroke-width:0.8;"/>
      </defs>
      <g>
       <use style="stroke:#000000;stroke-width:0.8;" x="63" xlink:href="#m5a94ca570b" y="370.221093"/>
      </g>
     </g>
     <g id="text_7">
      <!-- −80 -->
      <defs>
       <path d="M 10.59375 35.5 
L 73.1875 35.5 
L 73.1875 27.203125 
L 10.59375 27.203125 
z
" id="DejaVuSans-2212"/>
      </defs>
      <g transform="translate(34.895313 374.020312)scale(0.1 -0.1)">
       <use xlink:href="#DejaVuSans-2212"/>
       <use x="83.789062" xlink:href="#DejaVuSans-38"/>
       <use x="147.412109" xlink:href="#DejaVuSans-30"/>
      </g>
     </g>
    </g>
    <g id="ytick_2">
     <g id="line2d_7">
      <g>
       <use style="stroke:#000000;stroke-width:0.8;" x="63" xlink:href="#m5a94ca570b" y="316.595442"/>
      </g>
     </g>
     <g id="text_8">
      <!-- −60 -->
      <g transform="translate(34.895313 320.394661)scale(0.1 -0.1)">
       <use xlink:href="#DejaVuSans-2212"/>
       <use x="83.789062" xlink:href="#DejaVuSans-36"/>
       <use x="147.412109" xlink:href="#DejaVuSans-30"/>
      </g>
     </g>
    </g>
    <g id="ytick_3">
     <g id="line2d_8">
      <g>
       <use style="stroke:#000000;stroke-width:0.8;" x="63" xlink:href="#m5a94ca570b" y="262.969792"/>
      </g>
     </g>
     <g id="text_9">
      <!-- −40 -->
      <g transform="translate(34.895313 266.76901)scale(0.1 -0.1)">
       <use xlink:href="#DejaVuSans-2212"/>
       <use x="83.789062" xlink:href="#DejaVuSans-34"/>
       <use x="147.412109" xlink:href="#DejaVuSans-30"/>
      </g>
     </g>
    </g>
    <g id="ytick_4">
     <g id="line2d_9">
      <g>
       <use style="stroke:#000000;stroke-width:0.8;" x="63" xlink:href="#m5a94ca570b" y="209.344141"/>
      </g>
     </g>
     <g id="text_10">
      <!-- −20 -->
      <g transform="translate(34.895313 213.14336)scale(0.1 -0.1)">
       <use xlink:href="#DejaVuSans-2212"/>
       <use x="83.789062" xlink:href="#DejaVuSans-32"/>
       <use x="147.412109" xlink:href="#DejaVuSans-30"/>
      </g>
     </g>
    </g>
    <g id="ytick_5">
     <g id="line2d_10">
      <g>
       <use style="stroke:#000000;stroke-width:0.8;" x="63" xlink:href="#m5a94ca570b" y="155.71849"/>
      </g>
     </g>
     <g id="text_11">
      <!-- 0 -->
      <g transform="translate(49.6375 159.517709)scale(0.1 -0.1)">
       <use xlink:href="#DejaVuSans-30"/>
      </g>
     </g>
    </g>
    <g id="ytick_6">
     <g id="line2d_11">
      <g>
       <use style="stroke:#000000;stroke-width:0.8;" x="63" xlink:href="#m5a94ca570b" y="102.09284"/>
      </g>
     </g>
     <g id="text_12">
      <!-- 20 -->
      <g transform="translate(43.275 105.892059)scale(0.1 -0.1)">
       <use xlink:href="#DejaVuSans-32"/>
       <use x="63.623047" xlink:href="#DejaVuSans-30"/>
      </g>
     </g>
    </g>
    <g id="text_13">
     <!-- Voltage [mV] -->
     <defs>
      <path d="M 28.609375 0 
L 0.78125 72.90625 
L 11.078125 72.90625 
L 34.1875 11.53125 
L 57.328125 72.90625 
L 67.578125 72.90625 
L 39.796875 0 
z
" id="DejaVuSans-56"/>
      <path d="M 30.609375 48.390625 
Q 23.390625 48.390625 19.1875 42.75 
Q 14.984375 37.109375 14.984375 27.296875 
Q 14.984375 17.484375 19.15625 11.84375 
Q 23.34375 6.203125 30.609375 6.203125 
Q 37.796875 6.203125 41.984375 11.859375 
Q 46.1875 17.53125 46.1875 27.296875 
Q 46.1875 37.015625 41.984375 42.703125 
Q 37.796875 48.390625 30.609375 48.390625 
z
M 30.609375 56 
Q 42.328125 56 49.015625 48.375 
Q 55.71875 40.765625 55.71875 27.296875 
Q 55.71875 13.875 49.015625 6.21875 
Q 42.328125 -1.421875 30.609375 -1.421875 
Q 18.84375 -1.421875 12.171875 6.21875 
Q 5.515625 13.875 5.515625 27.296875 
Q 5.515625 40.765625 12.171875 48.375 
Q 18.84375 56 30.609375 56 
z
" id="DejaVuSans-6f"/>
      <path d="M 9.421875 75.984375 
L 18.40625 75.984375 
L 18.40625 0 
L 9.421875 0 
z
" id="DejaVuSans-6c"/>
      <path d="M 34.28125 27.484375 
Q 23.390625 27.484375 19.1875 25 
Q 14.984375 22.515625 14.984375 16.5 
Q 14.984375 11.71875 18.140625 8.90625 
Q 21.296875 6.109375 26.703125 6.109375 
Q 34.1875 6.109375 38.703125 11.40625 
Q 43.21875 16.703125 43.21875 25.484375 
L 43.21875 27.484375 
z
M 52.203125 31.203125 
L 52.203125 0 
L 43.21875 0 
L 43.21875 8.296875 
Q 40.140625 3.328125 35.546875 0.953125 
Q 30.953125 -1.421875 24.3125 -1.421875 
Q 15.921875 -1.421875 10.953125 3.296875 
Q 6 8.015625 6 15.921875 
Q 6 25.140625 12.171875 29.828125 
Q 18.359375 34.515625 30.609375 34.515625 
L 43.21875 34.515625 
L 43.21875 35.40625 
Q 43.21875 41.609375 39.140625 45 
Q 35.0625 48.390625 27.6875 48.390625 
Q 23 48.390625 18.546875 47.265625 
Q 14.109375 46.140625 10.015625 43.890625 
L 10.015625 52.203125 
Q 14.9375 54.109375 19.578125 55.046875 
Q 24.21875 56 28.609375 56 
Q 40.484375 56 46.34375 49.84375 
Q 52.203125 43.703125 52.203125 31.203125 
z
" id="DejaVuSans-61"/>
      <path d="M 45.40625 27.984375 
Q 45.40625 37.75 41.375 43.109375 
Q 37.359375 48.484375 30.078125 48.484375 
Q 22.859375 48.484375 18.828125 43.109375 
Q 14.796875 37.75 14.796875 27.984375 
Q 14.796875 18.265625 18.828125 12.890625 
Q 22.859375 7.515625 30.078125 7.515625 
Q 37.359375 7.515625 41.375 12.890625 
Q 45.40625 18.265625 45.40625 27.984375 
z
M 54.390625 6.78125 
Q 54.390625 -7.171875 48.1875 -13.984375 
Q 42 -20.796875 29.203125 -20.796875 
Q 24.46875 -20.796875 20.265625 -20.09375 
Q 16.0625 -19.390625 12.109375 -17.921875 
L 12.109375 -9.1875 
Q 16.0625 -11.328125 19.921875 -12.34375 
Q 23.78125 -13.375 27.78125 -13.375 
Q 36.625 -13.375 41.015625 -8.765625 
Q 45.40625 -4.15625 45.40625 5.171875 
L 45.40625 9.625 
Q 42.625 4.78125 38.28125 2.390625 
Q 33.9375 0 27.875 0 
Q 17.828125 0 11.671875 7.65625 
Q 5.515625 15.328125 5.515625 27.984375 
Q 5.515625 40.671875 11.671875 48.328125 
Q 17.828125 56 27.875 56 
Q 33.9375 56 38.28125 53.609375 
Q 42.625 51.21875 45.40625 46.390625 
L 45.40625 54.6875 
L 54.390625 54.6875 
z
" id="DejaVuSans-67"/>
     </defs>
     <g transform="translate(28.815625 251.079531)rotate(-90)scale(0.1 -0.1)">
      <use xlink:href="#DejaVuSans-56"/>
      <use x="68.298828" xlink:href="#DejaVuSans-6f"/>
      <use x="129.480469" xlink:href="#DejaVuSans-6c"/>
      <use x="157.263672" xlink:href="#DejaVuSans-74"/>
      <use x="196.472656" xlink:href="#DejaVuSans-61"/>
      <use x="257.751953" xlink:href="#DejaVuSans-67"/>
      <use x="321.228516" xlink:href="#DejaVuSans-65"/>
      <use x="382.751953" xlink:href="#DejaVuSans-20"/>
      <use x="414.539062" xlink:href="#DejaVuSans-5b"/>
      <use x="453.552734" xlink:href="#DejaVuSans-6d"/>
      <use x="550.964844" xlink:href="#DejaVuSans-56"/>
      <use x="619.373047" xlink:href="#DejaVuSans-5d"/>
     </g>
    </g>
   </g>
   <g id="line2d_12">
    <path clip-path="url(#peee9359b95)" d="M 80.754545 330.001855 
L 80.887695 330.027797 
L 82.061387 330.73486 
L 82.978641 330.89561 
L 84.749041 330.935238 
L 100.480448 330.861332 
L 100.633324 346.415807 
L 100.958801 357.086818 
L 101.382908 364.388811 
L 101.777426 367.842923 
L 102.107835 369.100917 
L 102.354409 369.358885 
L 102.546737 369.269567 
L 102.817968 368.84242 
L 103.320978 367.548826 
L 104.578505 364.271987 
L 105.26398 363.134597 
L 105.929729 362.444091 
L 106.639861 362.023626 
L 107.50287 361.778843 
L 108.780122 361.670398 
L 112.454071 361.683814 
L 130.069303 361.686372 
L 130.222178 346.376325 
L 130.537793 336.606753 
L 130.942174 330.245408 
L 131.346555 326.979455 
L 131.73121 325.46135 
L 132.081345 324.863542 
L 132.396959 324.711487 
L 132.742162 324.80076 
L 133.245173 325.193879 
L 134.468179 326.532299 
L 135.829266 327.858815 
L 137.052272 328.739242 
L 138.364045 329.408343 
L 139.878008 329.925847 
L 140.188691 330.123876 
L 140.938275 330.622645 
L 141.712517 330.841183 
L 142.96018 330.932861 
L 147.097688 330.897857 
L 159.663088 330.861332 
L 159.815964 327.747943 
L 160.146373 325.581624 
L 160.585274 324.060282 
L 161.053765 323.179542 
L 161.556775 322.684797 
L 162.148552 322.415483 
L 162.97704 322.30101 
L 164.609359 322.347297 
L 170.56165 322.580404 
L 180.439396 322.654212 
L 189.251943 322.663546 
L 189.404818 325.782117 
L 189.730296 327.92452 
L 190.169197 329.448515 
L 190.637687 330.330553 
L 191.140698 330.8267 
L 191.732475 331.09681 
L 192.560963 331.211123 
L 194.193281 331.163832 
L 199.114894 330.955593 
L 199.159277 329.986086 
L 199.228318 330.011387 
L 200.702829 330.805224 
L 201.797617 330.923084 
L 204.500066 330.91867 
L 217.154232 330.86221 
L 218.845729 330.861332 
L 218.998604 324.632896 
L 219.324082 320.334616 
L 219.762983 317.244652 
L 220.226542 315.435502 
L 220.709826 314.379001 
L 221.232563 313.744726 
L 221.844066 313.351191 
L 222.662691 313.103857 
L 224.013915 312.958565 
L 225.986505 312.734861 
L 226.257737 312.483809 
L 226.346503 312.156065 
L 226.361298 310.509951 
L 226.395818 226.480025 
L 226.43527 70.27394 
L 226.514173 182.528199 
L 226.711432 314.136842 
L 226.893897 320.341268 
L 227.076361 321.098645 
L 227.179922 321.01311 
L 227.391976 320.413347 
L 228.619913 316.446905 
L 229.147581 315.656281 
L 229.719632 315.187705 
L 230.439628 314.894524 
L 231.539347 314.71143 
L 233.911387 314.592873 
L 242.368868 314.466639 
L 248.434583 314.433665 
L 248.59239 320.796711 
L 248.917867 325.044981 
L 249.346906 328.000099 
L 249.800602 329.709398 
L 250.26416 330.654933 
L 250.747445 331.165471 
L 251.29977 331.428962 
L 252.049355 331.523543 
L 253.449894 331.432834 
L 258.065755 331.075612 
L 258.297534 331.065427 
L 258.341918 329.986086 
L 258.410958 330.011387 
L 259.885469 330.805224 
L 260.980257 330.923084 
L 263.682706 330.91867 
L 276.336872 330.86221 
L 278.028369 330.861332 
L 278.181244 321.515304 
L 278.511653 314.960591 
L 278.960418 310.131481 
L 279.695207 303.402981 
L 279.724796 231.380156 
L 279.76918 68.887628 
L 279.848083 185.58533 
L 280.040411 311.015762 
L 280.213012 316.401926 
L 280.301779 316.657361 
L 280.351094 316.5951 
L 280.503969 315.957908 
L 281.14013 311.797624 
L 281.74177 308.803841 
L 282.318752 307.012388 
L 283.275459 304.369241 
L 283.305048 303.577657 
L 283.319842 292.609555 
L 283.383951 75.149742 
L 283.457923 175.955739 
L 283.660114 310.945573 
L 283.837647 316.194796 
L 283.936277 316.470754 
L 283.98066 316.422966 
L 284.123673 315.908232 
L 284.606957 312.998098 
L 285.252981 309.750097 
L 285.795443 308.097033 
L 286.362563 307.051124 
L 287.043106 306.267242 
L 288.162551 305.054369 
L 288.310495 304.462246 
L 288.340084 303.83399 
L 288.35981 282.429315 
L 288.423919 80.338471 
L 288.497892 176.860747 
L 288.700082 308.707834 
L 288.882547 314.543504 
L 289.025559 315.035189 
L 289.050217 315.023199 
L 289.168572 314.763146 
L 289.479255 313.3644 
L 290.312675 309.669194 
L 290.860068 308.255262 
L 291.427188 307.380679 
L 292.083074 306.775997 
L 292.97074 306.277871 
L 294.820043 305.315473 
L 295.051823 304.887176 
L 295.145521 304.225753 
L 295.160315 301.165046 
L 295.199767 184.168996 
L 295.234287 84.184027 
L 295.30826 173.811411 
L 295.51045 307.127977 
L 295.692915 313.510253 
L 295.875379 314.244273 
L 295.974009 314.127185 
L 296.195925 313.382113 
L 297.374548 308.943394 
L 297.926873 307.894016 
L 298.528513 307.213566 
L 299.273166 306.714006 
L 300.377817 306.265875 
L 302.375064 305.48286 
L 302.69561 305.098558 
L 302.838623 304.552236 
L 302.868212 303.414642 
L 302.892869 252.276012 
L 302.952047 86.500406 
L 303.026019 178.825569 
L 303.22821 306.591717 
L 303.410674 312.91318 
L 303.59807 313.771246 
L 303.701631 313.695606 
L 303.89889 313.132403 
L 305.274772 308.509263 
L 305.841892 307.637346 
L 306.487915 307.047679 
L 307.331197 306.591466 
L 307.617223 306.477987 
L 307.77503 316.085734 
L 308.100508 322.49168 
L 308.524614 326.832713 
L 308.968447 329.298596 
L 309.417212 330.650645 
L 309.875839 331.377906 
L 310.359123 331.7477 
L 310.941038 331.9082 
L 311.808977 331.89182 
L 314.718548 331.474884 
L 317.480174 331.2149 
L 317.524558 329.986086 
L 317.593598 330.011387 
L 319.06811 330.805224 
L 320.162897 330.923084 
L 322.865346 330.91867 
L 335.519513 330.86221 
L 337.211009 330.861332 
L 337.363884 318.393944 
L 337.699225 309.457098 
L 338.310728 296.67685 
L 338.345248 184.046486 
L 338.374837 67.832922 
L 338.453741 177.447755 
L 338.651 307.866227 
L 338.81867 312.553322 
L 338.85319 312.599892 
L 338.907436 312.475912 
L 339.075107 311.336565 
L 340.65811 296.705587 
L 340.692631 294.255761 
L 340.722219 217.650004 
L 340.761671 73.260741 
L 340.840575 179.749749 
L 341.037834 310.229147 
L 341.205504 314.428364 
L 341.230161 314.447023 
L 341.274545 314.348674 
L 341.422489 313.345943 
L 343.355627 295.650966 
L 343.370422 288.129607 
L 343.434531 78.629561 
L 343.513435 180.259797 
L 343.710694 308.154801 
L 343.883295 312.816165 
L 343.927679 312.882945 
L 343.981925 312.768305 
L 344.149595 311.725414 
L 345.688215 300.30399 
L 346.092596 297.532881 
L 346.166569 295.616119 
L 346.181363 287.442889 
L 346.250404 82.609379 
L 346.324376 178.179642 
L 346.526566 306.790035 
L 346.699168 311.611524 
L 346.763277 311.754943 
L 346.817523 311.66295 
L 346.975331 310.834061 
L 348.799977 299.056412 
L 349.031756 297.147254 
L 349.086002 294.444201 
L 349.120523 201.839993 
L 349.159974 85.427357 
L 349.233947 172.063475 
L 349.441068 305.655456 
L 349.618602 310.783583 
L 349.697505 310.990979 
L 349.751751 310.914153 
L 349.904627 310.208574 
L 350.466815 306.077819 
L 351.147359 301.980118 
L 352.015299 297.17214 
L 352.069545 294.688402 
L 352.099134 223.099949 
L 352.148449 87.316924 
L 352.222421 176.697486 
L 352.424611 304.667273 
L 352.602144 310.163795 
L 352.700774 310.46622 
L 352.745157 310.415991 
L 352.883239 309.876187 
L 353.302414 307.026347 
L 354.05693 302.396026 
L 355.062951 296.885707 
L 355.102403 293.707952 
L 355.141854 170.077814 
L 355.176375 88.575278 
L 355.250347 172.276136 
L 355.457469 304.116313 
L 355.635002 309.698692 
L 355.748426 310.069702 
L 355.787878 310.029506 
L 355.921028 309.557743 
L 356.300751 307.129531 
L 357.104582 302.331525 
L 358.120466 296.93607 
L 358.159918 294.399311 
L 358.194438 201.660029 
L 358.238821 89.541931 
L 358.307862 170.068 
L 358.514984 303.522853 
L 358.692517 309.413114 
L 358.815804 309.85931 
L 358.850324 309.831218 
L 358.973611 309.442272 
L 359.308951 307.415489 
L 360.181823 302.269709 
L 361.192775 297.07058 
L 361.237158 294.867791 
L 361.266747 224.585846 
L 361.316062 90.016766 
L 361.390034 174.513429 
L 361.597156 303.374711 
L 361.779621 309.186841 
L 361.902908 309.621663 
L 361.937428 309.596912 
L 362.055783 309.248171 
L 362.371398 307.424609 
L 363.293584 302.114927 
L 364.274947 297.187244 
L 364.324262 295.224048 
L 364.343988 255.962878 
L 364.403166 90.40102 
L 364.482069 178.618261 
L 364.689191 303.260102 
L 364.871656 308.943114 
L 365.004806 309.403858 
L 365.034395 309.381741 
L 365.15275 309.047267 
L 365.463433 307.305416 
L 366.405345 302.001102 
L 366.799863 300.374865 
L 366.95767 313.006134 
L 367.273285 320.930963 
L 367.687529 326.188596 
L 368.12643 329.171916 
L 368.570263 330.792892 
L 369.014096 331.645591 
L 369.472723 332.077188 
L 369.995459 332.266371 
L 370.715455 332.27262 
L 372.185034 332.009587 
L 375.217892 331.501013 
L 376.662814 331.346695 
L 376.707198 329.986086 
L 376.776238 330.011387 
L 378.25075 330.805224 
L 379.345537 330.923084 
L 382.047986 330.91867 
L 394.702153 330.86221 
L 396.393649 330.861332 
L 396.546525 315.266987 
L 396.891728 303.56207 
L 397.177753 293.81903 
L 397.192548 271.850826 
L 397.246794 66.96 
L 397.325698 180.873516 
L 397.518025 304.655641 
L 397.675832 308.767391 
L 397.680764 308.767277 
L 397.730079 308.616534 
L 397.892817 307.110598 
L 398.701579 296.308341 
L 398.918564 291.521343 
L 398.958016 286.824508 
L 398.987605 196.513693 
L 399.022125 71.930315 
L 399.101029 178.421803 
L 399.298288 309.87344 
L 399.436369 313.065734 
L 399.456095 313.039309 
L 399.544862 312.427455 
L 399.845682 308.252978 
L 400.945401 289.594673 
L 400.965127 274.114333 
L 401.024304 77.203969 
L 401.098277 173.442022 
L 401.300467 308.013299 
L 401.453343 311.499943 
L 401.463206 311.492377 
L 401.532246 311.164858 
L 401.754163 308.647032 
L 402.962374 290.961764 
L 402.996895 284.225585 
L 403.065935 81.292729 
L 403.144839 185.242333 
L 403.342098 306.611641 
L 403.504837 310.252165 
L 403.554152 310.135616 
L 403.702096 308.915615 
L 404.476338 299.351239 
L 404.994142 292.143939 
L 405.05332 288.306492 
L 405.073046 248.69637 
L 405.127292 84.078518 
L 405.206196 178.856226 
L 405.408386 305.391005 
L 405.576057 309.276974 
L 405.600714 309.270279 
L 405.630303 309.189958 
L 405.768384 308.196245 
L 406.291121 302.106075 
L 407.099883 291.339365 
L 407.144266 285.253529 
L 407.213307 85.881946 
L 407.302073 193.231093 
L 407.499332 304.962771 
L 407.667002 308.702818 
L 407.69166 308.708393 
L 407.731111 308.610253 
L 407.879056 307.563841 
L 408.451107 301.165178 
L 409.190828 291.734501 
L 409.245075 286.222028 
L 409.314115 87.436549 
L 409.417676 209.242174 
L 409.605072 304.474524 
L 409.772742 308.208099 
L 409.802331 308.225537 
L 409.846715 308.119828 
L 409.99959 307.068066 
L 410.581504 300.785512 
L 411.296568 291.968614 
L 411.355746 287.525148 
L 411.385335 210.833204 
L 411.429718 88.121619 
L 411.50369 172.656319 
L 411.710812 303.364568 
L 411.883414 307.888219 
L 411.917934 307.937866 
L 411.972181 307.82223 
L 412.129988 306.749641 
L 412.736559 300.347359 
L 413.417103 292.104732 
L 413.481212 287.517539 
L 413.510801 210.718463 
L 413.555184 88.726875 
L 413.629156 172.342448 
L 413.836278 302.87859 
L 414.00888 307.573276 
L 414.053263 307.646419 
L 414.10751 307.527743 
L 414.265317 306.479882 
L 414.862025 300.317741 
L 415.5475 292.148213 
L 415.61161 288.033567 
L 415.631336 245.319031 
L 415.685582 89.360128 
L 415.764485 176.638372 
L 415.971607 302.774862 
L 416.144209 307.318274 
L 416.188592 307.397953 
L 416.242839 307.291247 
L 416.395714 306.325533 
L 416.928314 300.947629 
L 417.687761 292.013156 
L 417.746939 288.079946 
L 417.766665 245.786357 
L 417.820911 89.657107 
L 417.899814 176.264291 
L 418.106936 302.520257 
L 418.279538 307.139978 
L 418.328853 307.234372 
L 418.383099 307.128084 
L 418.535975 306.179291 
L 419.058711 300.974264 
L 419.82309 292.114672 
L 419.887199 287.752226 
L 419.911856 228.988838 
L 419.961171 89.632136 
L 420.035143 171.032821 
L 420.242265 302.076031 
L 420.414867 307.051055 
L 420.469113 307.17414 
L 420.528291 307.056866 
L 420.686098 306.061414 
L 421.243355 300.525758 
L 421.96335 292.20651 
L 422.02746 288.547426 
L 422.042254 270.609553 
L 422.106363 89.661283 
L 422.175404 166.4639 
L 422.387457 302.008099 
L 422.560059 306.947651 
L 422.619237 307.074311 
L 422.673483 306.964055 
L 422.83129 305.985976 
L 423.373752 300.64503 
L 424.108542 292.217081 
L 424.172652 288.630938 
L 424.187446 272.55169 
L 424.251555 89.725047 
L 424.320596 165.788868 
L 424.532649 301.871283 
L 424.705251 306.891514 
L 424.764429 307.029282 
L 424.818675 306.927077 
L 424.971551 306.005322 
L 425.479493 301.047572 
L 425.982503 296.084863 
L 426.135379 311.241517 
L 426.431267 320.029579 
L 426.830717 325.809006 
L 427.259755 329.094154 
L 427.698657 330.894598 
L 428.137558 331.839956 
L 428.586322 332.314557 
L 429.084401 332.521637 
L 429.745219 332.537893 
L 430.958362 332.301752 
L 434.198342 331.646062 
L 435.845455 331.436721 
L 435.845455 331.436721 
" style="fill:none;stroke:#ff0000;stroke-linecap:square;stroke-width:1.5;"/>
   </g>
   <g id="patch_3">
    <path d="M 63 384.48 
L 63 51.84 
" style="fill:none;stroke:#000000;stroke-linecap:square;stroke-linejoin:miter;stroke-width:0.8;"/>
   </g>
   <g id="patch_4">
    <path d="M 453.6 384.48 
L 453.6 51.84 
" style="fill:none;stroke:#000000;stroke-linecap:square;stroke-linejoin:miter;stroke-width:0.8;"/>
   </g>
   <g id="patch_5">
    <path d="M 63 384.48 
L 453.6 384.48 
" style="fill:none;stroke:#000000;stroke-linecap:square;stroke-linejoin:miter;stroke-width:0.8;"/>
   </g>
   <g id="patch_6">
    <path d="M 63 51.84 
L 453.6 51.84 
" style="fill:none;stroke:#000000;stroke-linecap:square;stroke-linejoin:miter;stroke-width:0.8;"/>
   </g>
   <g id="legend_1">
    <g id="patch_7">
     <path d="M 70 74.518125 
L 133.139062 74.518125 
Q 135.139062 74.518125 135.139062 72.518125 
L 135.139062 58.84 
Q 135.139062 56.84 133.139062 56.84 
L 70 56.84 
Q 68 56.84 68 58.84 
L 68 72.518125 
Q 68 74.518125 70 74.518125 
z
" style="fill:#ffffff;opacity:0.8;stroke:#cccccc;stroke-linejoin:miter;"/>
    </g>
    <g id="line2d_13">
     <path d="M 72 64.938438 
L 92 64.938438 
" style="fill:none;stroke:#ff0000;stroke-linecap:square;stroke-width:1.5;"/>
    </g>
    <g id="line2d_14"/>
    <g id="text_14">
     <!-- model -->
     <defs>
      <path d="M 45.40625 46.390625 
L 45.40625 75.984375 
L 54.390625 75.984375 
L 54.390625 0 
L 45.40625 0 
L 45.40625 8.203125 
Q 42.578125 3.328125 38.25 0.953125 
Q 33.9375 -1.421875 27.875 -1.421875 
Q 17.96875 -1.421875 11.734375 6.484375 
Q 5.515625 14.40625 5.515625 27.296875 
Q 5.515625 40.1875 11.734375 48.09375 
Q 17.96875 56 27.875 56 
Q 33.9375 56 38.25 53.625 
Q 42.578125 51.265625 45.40625 46.390625 
z
M 14.796875 27.296875 
Q 14.796875 17.390625 18.875 11.75 
Q 22.953125 6.109375 30.078125 6.109375 
Q 37.203125 6.109375 41.296875 11.75 
Q 45.40625 17.390625 45.40625 27.296875 
Q 45.40625 37.203125 41.296875 42.84375 
Q 37.203125 48.484375 30.078125 48.484375 
Q 22.953125 48.484375 18.875 42.84375 
Q 14.796875 37.203125 14.796875 27.296875 
z
" id="DejaVuSans-64"/>
     </defs>
     <g transform="translate(100 68.438438)scale(0.1 -0.1)">
      <use xlink:href="#DejaVuSans-6d"/>
      <use x="97.412109" xlink:href="#DejaVuSans-6f"/>
      <use x="158.59375" xlink:href="#DejaVuSans-64"/>
      <use x="222.070312" xlink:href="#DejaVuSans-65"/>
      <use x="283.59375" xlink:href="#DejaVuSans-6c"/>
     </g>
    </g>
   </g>
  </g>
 </g>
 <defs>
  <clipPath id="peee9359b95">
   <rect height="332.64" width="390.6" x="63" y="51.84"/>
  </clipPath>
 </defs>
</svg>
