<?xml version="1.0" encoding="utf-8" standalone="no"?>
<!DOCTYPE svg PUBLIC "-//W3C//DTD SVG 1.1//EN"
  "http://www.w3.org/Graphics/SVG/1.1/DTD/svg11.dtd">
<!-- Created with matplotlib (https://matplotlib.org/) -->
<svg height="432pt" version="1.1" viewBox="0 0 504 432" width="504pt" xmlns="http://www.w3.org/2000/svg" xmlns:xlink="http://www.w3.org/1999/xlink">
 <defs>
  <style type="text/css">
*{stroke-linecap:butt;stroke-linejoin:round;}
  </style>
 </defs>
 <g id="figure_1">
  <g id="patch_1">
   <path d="M 0 432 
L 504 432 
L 504 0 
L 0 0 
z
" style="fill:#ffffff;"/>
  </g>
  <g id="axes_1">
   <g id="patch_2">
    <path d="M 63 384.48 
L 453.6 384.48 
L 453.6 51.84 
L 63 51.84 
z
" style="fill:#ffffff;"/>
   </g>
   <g id="matplotlib.axis_1">
    <g id="xtick_1">
     <g id="line2d_1">
      <defs>
       <path d="M 0 0 
L 0 3.5 
" id="m0c31c8d667" style="stroke:#000000;stroke-width:0.8;"/>
      </defs>
      <g>
       <use style="stroke:#000000;stroke-width:0.8;" x="80.754545" xlink:href="#m0c31c8d667" y="384.48"/>
      </g>
     </g>
     <g id="text_1">
      <!-- 0 -->
      <defs>
       <path d="M 31.78125 66.40625 
Q 24.171875 66.40625 20.328125 58.90625 
Q 16.5 51.421875 16.5 36.375 
Q 16.5 21.390625 20.328125 13.890625 
Q 24.171875 6.390625 31.78125 6.390625 
Q 39.453125 6.390625 43.28125 13.890625 
Q 47.125 21.390625 47.125 36.375 
Q 47.125 51.421875 43.28125 58.90625 
Q 39.453125 66.40625 31.78125 66.40625 
z
M 31.78125 74.21875 
Q 44.046875 74.21875 50.515625 64.515625 
Q 56.984375 54.828125 56.984375 36.375 
Q 56.984375 17.96875 50.515625 8.265625 
Q 44.046875 -1.421875 31.78125 -1.421875 
Q 19.53125 -1.421875 13.0625 8.265625 
Q 6.59375 17.96875 6.59375 36.375 
Q 6.59375 54.828125 13.0625 64.515625 
Q 19.53125 74.21875 31.78125 74.21875 
z
" id="DejaVuSans-48"/>
      </defs>
      <g transform="translate(77.573295 399.078438)scale(0.1 -0.1)">
       <use xlink:href="#DejaVuSans-48"/>
      </g>
     </g>
    </g>
    <g id="xtick_2">
     <g id="line2d_2">
      <g>
       <use style="stroke:#000000;stroke-width:0.8;" x="151.772727" xlink:href="#m0c31c8d667" y="384.48"/>
      </g>
     </g>
     <g id="text_2">
      <!-- 200 -->
      <defs>
       <path d="M 19.1875 8.296875 
L 53.609375 8.296875 
L 53.609375 0 
L 7.328125 0 
L 7.328125 8.296875 
Q 12.9375 14.109375 22.625 23.890625 
Q 32.328125 33.6875 34.8125 36.53125 
Q 39.546875 41.84375 41.421875 45.53125 
Q 43.3125 49.21875 43.3125 52.78125 
Q 43.3125 58.59375 39.234375 62.25 
Q 35.15625 65.921875 28.609375 65.921875 
Q 23.96875 65.921875 18.8125 64.3125 
Q 13.671875 62.703125 7.8125 59.421875 
L 7.8125 69.390625 
Q 13.765625 71.78125 18.9375 73 
Q 24.125 74.21875 28.421875 74.21875 
Q 39.75 74.21875 46.484375 68.546875 
Q 53.21875 62.890625 53.21875 53.421875 
Q 53.21875 48.921875 51.53125 44.890625 
Q 49.859375 40.875 45.40625 35.40625 
Q 44.1875 33.984375 37.640625 27.21875 
Q 31.109375 20.453125 19.1875 8.296875 
z
" id="DejaVuSans-50"/>
      </defs>
      <g transform="translate(142.228977 399.078438)scale(0.1 -0.1)">
       <use xlink:href="#DejaVuSans-50"/>
       <use x="63.623047" xlink:href="#DejaVuSans-48"/>
       <use x="127.246094" xlink:href="#DejaVuSans-48"/>
      </g>
     </g>
    </g>
    <g id="xtick_3">
     <g id="line2d_3">
      <g>
       <use style="stroke:#000000;stroke-width:0.8;" x="222.790909" xlink:href="#m0c31c8d667" y="384.48"/>
      </g>
     </g>
     <g id="text_3">
      <!-- 400 -->
      <defs>
       <path d="M 37.796875 64.3125 
L 12.890625 25.390625 
L 37.796875 25.390625 
z
M 35.203125 72.90625 
L 47.609375 72.90625 
L 47.609375 25.390625 
L 58.015625 25.390625 
L 58.015625 17.1875 
L 47.609375 17.1875 
L 47.609375 0 
L 37.796875 0 
L 37.796875 17.1875 
L 4.890625 17.1875 
L 4.890625 26.703125 
z
" id="DejaVuSans-52"/>
      </defs>
      <g transform="translate(213.247159 399.078438)scale(0.1 -0.1)">
       <use xlink:href="#DejaVuSans-52"/>
       <use x="63.623047" xlink:href="#DejaVuSans-48"/>
       <use x="127.246094" xlink:href="#DejaVuSans-48"/>
      </g>
     </g>
    </g>
    <g id="xtick_4">
     <g id="line2d_4">
      <g>
       <use style="stroke:#000000;stroke-width:0.8;" x="293.809091" xlink:href="#m0c31c8d667" y="384.48"/>
      </g>
     </g>
     <g id="text_4">
      <!-- 600 -->
      <defs>
       <path d="M 33.015625 40.375 
Q 26.375 40.375 22.484375 35.828125 
Q 18.609375 31.296875 18.609375 23.390625 
Q 18.609375 15.53125 22.484375 10.953125 
Q 26.375 6.390625 33.015625 6.390625 
Q 39.65625 6.390625 43.53125 10.953125 
Q 47.40625 15.53125 47.40625 23.390625 
Q 47.40625 31.296875 43.53125 35.828125 
Q 39.65625 40.375 33.015625 40.375 
z
M 52.59375 71.296875 
L 52.59375 62.3125 
Q 48.875 64.0625 45.09375 64.984375 
Q 41.3125 65.921875 37.59375 65.921875 
Q 27.828125 65.921875 22.671875 59.328125 
Q 17.53125 52.734375 16.796875 39.40625 
Q 19.671875 43.65625 24.015625 45.921875 
Q 28.375 48.1875 33.59375 48.1875 
Q 44.578125 48.1875 50.953125 41.515625 
Q 57.328125 34.859375 57.328125 23.390625 
Q 57.328125 12.15625 50.6875 5.359375 
Q 44.046875 -1.421875 33.015625 -1.421875 
Q 20.359375 -1.421875 13.671875 8.265625 
Q 6.984375 17.96875 6.984375 36.375 
Q 6.984375 53.65625 15.1875 63.9375 
Q 23.390625 74.21875 37.203125 74.21875 
Q 40.921875 74.21875 44.703125 73.484375 
Q 48.484375 72.75 52.59375 71.296875 
z
" id="DejaVuSans-54"/>
      </defs>
      <g transform="translate(284.265341 399.078438)scale(0.1 -0.1)">
       <use xlink:href="#DejaVuSans-54"/>
       <use x="63.623047" xlink:href="#DejaVuSans-48"/>
       <use x="127.246094" xlink:href="#DejaVuSans-48"/>
      </g>
     </g>
    </g>
    <g id="xtick_5">
     <g id="line2d_5">
      <g>
       <use style="stroke:#000000;stroke-width:0.8;" x="364.827273" xlink:href="#m0c31c8d667" y="384.48"/>
      </g>
     </g>
     <g id="text_5">
      <!-- 800 -->
      <defs>
       <path d="M 31.78125 34.625 
Q 24.75 34.625 20.71875 30.859375 
Q 16.703125 27.09375 16.703125 20.515625 
Q 16.703125 13.921875 20.71875 10.15625 
Q 24.75 6.390625 31.78125 6.390625 
Q 38.8125 6.390625 42.859375 10.171875 
Q 46.921875 13.96875 46.921875 20.515625 
Q 46.921875 27.09375 42.890625 30.859375 
Q 38.875 34.625 31.78125 34.625 
z
M 21.921875 38.8125 
Q 15.578125 40.375 12.03125 44.71875 
Q 8.5 49.078125 8.5 55.328125 
Q 8.5 64.0625 14.71875 69.140625 
Q 20.953125 74.21875 31.78125 74.21875 
Q 42.671875 74.21875 48.875 69.140625 
Q 55.078125 64.0625 55.078125 55.328125 
Q 55.078125 49.078125 51.53125 44.71875 
Q 48 40.375 41.703125 38.8125 
Q 48.828125 37.15625 52.796875 32.3125 
Q 56.78125 27.484375 56.78125 20.515625 
Q 56.78125 9.90625 50.3125 4.234375 
Q 43.84375 -1.421875 31.78125 -1.421875 
Q 19.734375 -1.421875 13.25 4.234375 
Q 6.78125 9.90625 6.78125 20.515625 
Q 6.78125 27.484375 10.78125 32.3125 
Q 14.796875 37.15625 21.921875 38.8125 
z
M 18.3125 54.390625 
Q 18.3125 48.734375 21.84375 45.5625 
Q 25.390625 42.390625 31.78125 42.390625 
Q 38.140625 42.390625 41.71875 45.5625 
Q 45.3125 48.734375 45.3125 54.390625 
Q 45.3125 60.0625 41.71875 63.234375 
Q 38.140625 66.40625 31.78125 66.40625 
Q 25.390625 66.40625 21.84375 63.234375 
Q 18.3125 60.0625 18.3125 54.390625 
z
" id="DejaVuSans-56"/>
      </defs>
      <g transform="translate(355.283523 399.078438)scale(0.1 -0.1)">
       <use xlink:href="#DejaVuSans-56"/>
       <use x="63.623047" xlink:href="#DejaVuSans-48"/>
       <use x="127.246094" xlink:href="#DejaVuSans-48"/>
      </g>
     </g>
    </g>
    <g id="text_6">
     <!-- time [ms] -->
     <defs>
      <path d="M 18.3125 70.21875 
L 18.3125 54.6875 
L 36.8125 54.6875 
L 36.8125 47.703125 
L 18.3125 47.703125 
L 18.3125 18.015625 
Q 18.3125 11.328125 20.140625 9.421875 
Q 21.96875 7.515625 27.59375 7.515625 
L 36.8125 7.515625 
L 36.8125 0 
L 27.59375 0 
Q 17.1875 0 13.234375 3.875 
Q 9.28125 7.765625 9.28125 18.015625 
L 9.28125 47.703125 
L 2.6875 47.703125 
L 2.6875 54.6875 
L 9.28125 54.6875 
L 9.28125 70.21875 
z
" id="DejaVuSans-116"/>
      <path d="M 9.421875 54.6875 
L 18.40625 54.6875 
L 18.40625 0 
L 9.421875 0 
z
M 9.421875 75.984375 
L 18.40625 75.984375 
L 18.40625 64.59375 
L 9.421875 64.59375 
z
" id="DejaVuSans-105"/>
      <path d="M 52 44.1875 
Q 55.375 50.25 60.0625 53.125 
Q 64.75 56 71.09375 56 
Q 79.640625 56 84.28125 50.015625 
Q 88.921875 44.046875 88.921875 33.015625 
L 88.921875 0 
L 79.890625 0 
L 79.890625 32.71875 
Q 79.890625 40.578125 77.09375 44.375 
Q 74.3125 48.1875 68.609375 48.1875 
Q 61.625 48.1875 57.5625 43.546875 
Q 53.515625 38.921875 53.515625 30.90625 
L 53.515625 0 
L 44.484375 0 
L 44.484375 32.71875 
Q 44.484375 40.625 41.703125 44.40625 
Q 38.921875 48.1875 33.109375 48.1875 
Q 26.21875 48.1875 22.15625 43.53125 
Q 18.109375 38.875 18.109375 30.90625 
L 18.109375 0 
L 9.078125 0 
L 9.078125 54.6875 
L 18.109375 54.6875 
L 18.109375 46.1875 
Q 21.1875 51.21875 25.484375 53.609375 
Q 29.78125 56 35.6875 56 
Q 41.65625 56 45.828125 52.96875 
Q 50 49.953125 52 44.1875 
z
" id="DejaVuSans-109"/>
      <path d="M 56.203125 29.59375 
L 56.203125 25.203125 
L 14.890625 25.203125 
Q 15.484375 15.921875 20.484375 11.0625 
Q 25.484375 6.203125 34.421875 6.203125 
Q 39.59375 6.203125 44.453125 7.46875 
Q 49.3125 8.734375 54.109375 11.28125 
L 54.109375 2.78125 
Q 49.265625 0.734375 44.1875 -0.34375 
Q 39.109375 -1.421875 33.890625 -1.421875 
Q 20.796875 -1.421875 13.15625 6.1875 
Q 5.515625 13.8125 5.515625 26.8125 
Q 5.515625 40.234375 12.765625 48.109375 
Q 20.015625 56 32.328125 56 
Q 43.359375 56 49.78125 48.890625 
Q 56.203125 41.796875 56.203125 29.59375 
z
M 47.21875 32.234375 
Q 47.125 39.59375 43.09375 43.984375 
Q 39.0625 48.390625 32.421875 48.390625 
Q 24.90625 48.390625 20.390625 44.140625 
Q 15.875 39.890625 15.1875 32.171875 
z
" id="DejaVuSans-101"/>
      <path id="DejaVuSans-32"/>
      <path d="M 8.59375 75.984375 
L 29.296875 75.984375 
L 29.296875 69 
L 17.578125 69 
L 17.578125 -6.203125 
L 29.296875 -6.203125 
L 29.296875 -13.1875 
L 8.59375 -13.1875 
z
" id="DejaVuSans-91"/>
      <path d="M 44.28125 53.078125 
L 44.28125 44.578125 
Q 40.484375 46.53125 36.375 47.5 
Q 32.28125 48.484375 27.875 48.484375 
Q 21.1875 48.484375 17.84375 46.4375 
Q 14.5 44.390625 14.5 40.28125 
Q 14.5 37.15625 16.890625 35.375 
Q 19.28125 33.59375 26.515625 31.984375 
L 29.59375 31.296875 
Q 39.15625 29.25 43.1875 25.515625 
Q 47.21875 21.78125 47.21875 15.09375 
Q 47.21875 7.46875 41.1875 3.015625 
Q 35.15625 -1.421875 24.609375 -1.421875 
Q 20.21875 -1.421875 15.453125 -0.5625 
Q 10.6875 0.296875 5.421875 2 
L 5.421875 11.28125 
Q 10.40625 8.6875 15.234375 7.390625 
Q 20.0625 6.109375 24.8125 6.109375 
Q 31.15625 6.109375 34.5625 8.28125 
Q 37.984375 10.453125 37.984375 14.40625 
Q 37.984375 18.0625 35.515625 20.015625 
Q 33.0625 21.96875 24.703125 23.78125 
L 21.578125 24.515625 
Q 13.234375 26.265625 9.515625 29.90625 
Q 5.8125 33.546875 5.8125 39.890625 
Q 5.8125 47.609375 11.28125 51.796875 
Q 16.75 56 26.8125 56 
Q 31.78125 56 36.171875 55.265625 
Q 40.578125 54.546875 44.28125 53.078125 
z
" id="DejaVuSans-115"/>
      <path d="M 30.421875 75.984375 
L 30.421875 -13.1875 
L 9.71875 -13.1875 
L 9.71875 -6.203125 
L 21.390625 -6.203125 
L 21.390625 69 
L 9.71875 69 
L 9.71875 75.984375 
z
" id="DejaVuSans-93"/>
     </defs>
     <g transform="translate(234.038281 412.756563)scale(0.1 -0.1)">
      <use xlink:href="#DejaVuSans-116"/>
      <use x="39.208984" xlink:href="#DejaVuSans-105"/>
      <use x="66.992188" xlink:href="#DejaVuSans-109"/>
      <use x="164.404297" xlink:href="#DejaVuSans-101"/>
      <use x="225.927734" xlink:href="#DejaVuSans-32"/>
      <use x="257.714844" xlink:href="#DejaVuSans-91"/>
      <use x="296.728516" xlink:href="#DejaVuSans-109"/>
      <use x="394.140625" xlink:href="#DejaVuSans-115"/>
      <use x="446.240234" xlink:href="#DejaVuSans-93"/>
     </g>
    </g>
   </g>
   <g id="matplotlib.axis_2">
    <g id="ytick_1">
     <g id="line2d_6">
      <defs>
       <path d="M 0 0 
L -3.5 0 
" id="m4bb3d61d48" style="stroke:#000000;stroke-width:0.8;"/>
      </defs>
      <g>
       <use style="stroke:#000000;stroke-width:0.8;" x="63" xlink:href="#m4bb3d61d48" y="348.375999"/>
      </g>
     </g>
     <g id="text_7">
      <!-- −60 -->
      <defs>
       <path d="M 10.59375 35.5 
L 73.1875 35.5 
L 73.1875 27.203125 
L 10.59375 27.203125 
z
" id="DejaVuSans-8722"/>
      </defs>
      <g transform="translate(34.895313 352.175217)scale(0.1 -0.1)">
       <use xlink:href="#DejaVuSans-8722"/>
       <use x="83.789062" xlink:href="#DejaVuSans-54"/>
       <use x="147.412109" xlink:href="#DejaVuSans-48"/>
      </g>
     </g>
    </g>
    <g id="ytick_2">
     <g id="line2d_7">
      <g>
       <use style="stroke:#000000;stroke-width:0.8;" x="63" xlink:href="#m4bb3d61d48" y="286.818174"/>
      </g>
     </g>
     <g id="text_8">
      <!-- −40 -->
      <g transform="translate(34.895313 290.617392)scale(0.1 -0.1)">
       <use xlink:href="#DejaVuSans-8722"/>
       <use x="83.789062" xlink:href="#DejaVuSans-52"/>
       <use x="147.412109" xlink:href="#DejaVuSans-48"/>
      </g>
     </g>
    </g>
    <g id="ytick_3">
     <g id="line2d_8">
      <g>
       <use style="stroke:#000000;stroke-width:0.8;" x="63" xlink:href="#m4bb3d61d48" y="225.260349"/>
      </g>
     </g>
     <g id="text_9">
      <!-- −20 -->
      <g transform="translate(34.895313 229.059567)scale(0.1 -0.1)">
       <use xlink:href="#DejaVuSans-8722"/>
       <use x="83.789062" xlink:href="#DejaVuSans-50"/>
       <use x="147.412109" xlink:href="#DejaVuSans-48"/>
      </g>
     </g>
    </g>
    <g id="ytick_4">
     <g id="line2d_9">
      <g>
       <use style="stroke:#000000;stroke-width:0.8;" x="63" xlink:href="#m4bb3d61d48" y="163.702524"/>
      </g>
     </g>
     <g id="text_10">
      <!-- 0 -->
      <g transform="translate(49.6375 167.501742)scale(0.1 -0.1)">
       <use xlink:href="#DejaVuSans-48"/>
      </g>
     </g>
    </g>
    <g id="ytick_5">
     <g id="line2d_10">
      <g>
       <use style="stroke:#000000;stroke-width:0.8;" x="63" xlink:href="#m4bb3d61d48" y="102.144698"/>
      </g>
     </g>
     <g id="text_11">
      <!-- 20 -->
      <g transform="translate(43.275 105.943917)scale(0.1 -0.1)">
       <use xlink:href="#DejaVuSans-50"/>
       <use x="63.623047" xlink:href="#DejaVuSans-48"/>
      </g>
     </g>
    </g>
    <g id="text_12">
     <!-- voltage [V] -->
     <defs>
      <path d="M 2.984375 54.6875 
L 12.5 54.6875 
L 29.59375 8.796875 
L 46.6875 54.6875 
L 56.203125 54.6875 
L 35.6875 0 
L 23.484375 0 
z
" id="DejaVuSans-118"/>
      <path d="M 30.609375 48.390625 
Q 23.390625 48.390625 19.1875 42.75 
Q 14.984375 37.109375 14.984375 27.296875 
Q 14.984375 17.484375 19.15625 11.84375 
Q 23.34375 6.203125 30.609375 6.203125 
Q 37.796875 6.203125 41.984375 11.859375 
Q 46.1875 17.53125 46.1875 27.296875 
Q 46.1875 37.015625 41.984375 42.703125 
Q 37.796875 48.390625 30.609375 48.390625 
z
M 30.609375 56 
Q 42.328125 56 49.015625 48.375 
Q 55.71875 40.765625 55.71875 27.296875 
Q 55.71875 13.875 49.015625 6.21875 
Q 42.328125 -1.421875 30.609375 -1.421875 
Q 18.84375 -1.421875 12.171875 6.21875 
Q 5.515625 13.875 5.515625 27.296875 
Q 5.515625 40.765625 12.171875 48.375 
Q 18.84375 56 30.609375 56 
z
" id="DejaVuSans-111"/>
      <path d="M 9.421875 75.984375 
L 18.40625 75.984375 
L 18.40625 0 
L 9.421875 0 
z
" id="DejaVuSans-108"/>
      <path d="M 34.28125 27.484375 
Q 23.390625 27.484375 19.1875 25 
Q 14.984375 22.515625 14.984375 16.5 
Q 14.984375 11.71875 18.140625 8.90625 
Q 21.296875 6.109375 26.703125 6.109375 
Q 34.1875 6.109375 38.703125 11.40625 
Q 43.21875 16.703125 43.21875 25.484375 
L 43.21875 27.484375 
z
M 52.203125 31.203125 
L 52.203125 0 
L 43.21875 0 
L 43.21875 8.296875 
Q 40.140625 3.328125 35.546875 0.953125 
Q 30.953125 -1.421875 24.3125 -1.421875 
Q 15.921875 -1.421875 10.953125 3.296875 
Q 6 8.015625 6 15.921875 
Q 6 25.140625 12.171875 29.828125 
Q 18.359375 34.515625 30.609375 34.515625 
L 43.21875 34.515625 
L 43.21875 35.40625 
Q 43.21875 41.609375 39.140625 45 
Q 35.0625 48.390625 27.6875 48.390625 
Q 23 48.390625 18.546875 47.265625 
Q 14.109375 46.140625 10.015625 43.890625 
L 10.015625 52.203125 
Q 14.9375 54.109375 19.578125 55.046875 
Q 24.21875 56 28.609375 56 
Q 40.484375 56 46.34375 49.84375 
Q 52.203125 43.703125 52.203125 31.203125 
z
" id="DejaVuSans-97"/>
      <path d="M 45.40625 27.984375 
Q 45.40625 37.75 41.375 43.109375 
Q 37.359375 48.484375 30.078125 48.484375 
Q 22.859375 48.484375 18.828125 43.109375 
Q 14.796875 37.75 14.796875 27.984375 
Q 14.796875 18.265625 18.828125 12.890625 
Q 22.859375 7.515625 30.078125 7.515625 
Q 37.359375 7.515625 41.375 12.890625 
Q 45.40625 18.265625 45.40625 27.984375 
z
M 54.390625 6.78125 
Q 54.390625 -7.171875 48.1875 -13.984375 
Q 42 -20.796875 29.203125 -20.796875 
Q 24.46875 -20.796875 20.265625 -20.09375 
Q 16.0625 -19.390625 12.109375 -17.921875 
L 12.109375 -9.1875 
Q 16.0625 -11.328125 19.921875 -12.34375 
Q 23.78125 -13.375 27.78125 -13.375 
Q 36.625 -13.375 41.015625 -8.765625 
Q 45.40625 -4.15625 45.40625 5.171875 
L 45.40625 9.625 
Q 42.625 4.78125 38.28125 2.390625 
Q 33.9375 0 27.875 0 
Q 17.828125 0 11.671875 7.65625 
Q 5.515625 15.328125 5.515625 27.984375 
Q 5.515625 40.671875 11.671875 48.328125 
Q 17.828125 56 27.875 56 
Q 33.9375 56 38.28125 53.609375 
Q 42.625 51.21875 45.40625 46.390625 
L 45.40625 54.6875 
L 54.390625 54.6875 
z
" id="DejaVuSans-103"/>
      <path d="M 28.609375 0 
L 0.78125 72.90625 
L 11.078125 72.90625 
L 34.1875 11.53125 
L 57.328125 72.90625 
L 67.578125 72.90625 
L 39.796875 0 
z
" id="DejaVuSans-86"/>
     </defs>
     <g transform="translate(28.815625 245.75375)rotate(-90)scale(0.1 -0.1)">
      <use xlink:href="#DejaVuSans-118"/>
      <use x="59.179688" xlink:href="#DejaVuSans-111"/>
      <use x="120.361328" xlink:href="#DejaVuSans-108"/>
      <use x="148.144531" xlink:href="#DejaVuSans-116"/>
      <use x="187.353516" xlink:href="#DejaVuSans-97"/>
      <use x="248.632812" xlink:href="#DejaVuSans-103"/>
      <use x="312.109375" xlink:href="#DejaVuSans-101"/>
      <use x="373.632812" xlink:href="#DejaVuSans-32"/>
      <use x="405.419922" xlink:href="#DejaVuSans-91"/>
      <use x="444.433594" xlink:href="#DejaVuSans-86"/>
      <use x="512.841797" xlink:href="#DejaVuSans-93"/>
     </g>
    </g>
   </g>
   <g id="line2d_11">
    <path clip-path="url(#paaf14d9016)" d="M 80.754545 363.765447 
L 81.7488 363.780178 
L 86.436 364.234915 
L 98.917445 365.406377 
L 109.445891 366.15749 
L 120.879818 366.74565 
L 133.805127 367.181504 
L 149.180564 367.468874 
L 151.772727 367.498877 
L 151.8615 365.644051 
L 152.234345 358.086214 
L 152.731473 352.796293 
L 153.565936 346.546481 
L 154.9863 337.739971 
L 156.726245 328.357707 
L 158.430682 320.347073 
L 160.028591 313.853002 
L 161.590991 308.417414 
L 163.153391 303.787186 
L 164.857827 299.454063 
L 167.396727 293.719952 
L 168.994636 289.86694 
L 169.846855 287.2271 
L 170.415 284.71594 
L 170.787845 282.046989 
L 171.036409 278.624154 
L 171.1962 271.994189 
L 171.249464 264.623313 
L 171.622309 92.652424 
L 171.675573 90.504423 
L 171.746591 90.725609 
L 171.906382 102.498516 
L 172.190455 150.842477 
L 172.847373 259.384975 
L 173.220218 291.049171 
L 173.5398 302.404919 
L 173.912645 308.326462 
L 174.303245 311.42475 
L 174.782618 313.453593 
L 175.226482 314.475689 
L 175.6881 315.019064 
L 176.096455 315.196786 
L 176.540318 315.150797 
L 177.037445 314.874381 
L 177.694364 314.239366 
L 178.564336 313.071595 
L 179.931436 310.802475 
L 186.944482 298.584878 
L 192.910009 289.177797 
L 193.833245 287.063765 
L 194.472409 285.021625 
L 194.934027 282.732922 
L 195.235855 280.084656 
L 195.4134 276.901333 
L 195.537682 271.35659 
L 195.626455 239.684523 
L 195.839509 118.779662 
L 196.017055 110.861325 
L 196.034809 110.823227 
L 196.176845 114.253879 
L 196.407655 129.920588 
L 196.744991 174.697809 
L 197.437418 264.232416 
L 197.810264 286.924093 
L 198.200864 297.678863 
L 198.591464 302.849627 
L 199.070836 306.241076 
L 199.550209 308.230516 
L 200.082845 309.601343 
L 200.668745 310.486614 
L 201.219136 310.919657 
L 201.805036 311.074403 
L 202.426445 310.984968 
L 203.172136 310.625971 
L 204.095373 309.917885 
L 205.391455 308.619306 
L 207.557509 306.088359 
L 212.830609 299.886872 
L 217.500055 294.867408 
L 220.305273 291.694951 
L 221.814409 289.66599 
L 222.879682 287.866678 
L 223.660882 286.098634 
L 224.229027 284.238996 
L 224.655136 281.984652 
L 224.939209 279.132299 
L 225.116755 274.705214 
L 225.223282 265.741751 
L 225.578373 115.627241 
L 225.596127 115.517161 
L 225.649391 115.681257 
L 225.809182 120.707692 
L 226.111009 140.727603 
L 226.483855 183.528716 
L 227.211791 264.512346 
L 227.620145 284.682137 
L 227.992991 293.885959 
L 228.436855 299.53634 
L 228.933982 303.027222 
L 229.502127 305.421706 
L 230.105782 307.016703 
L 230.691682 307.999191 
L 231.313091 308.625596 
L 231.916745 308.93793 
L 232.591418 309.030861 
L 233.319355 308.906526 
L 234.242591 308.508005 
L 235.432145 307.728473 
L 237.065564 306.374028 
L 240.030573 303.582833 
L 246.848318 297.16717 
L 251.446745 292.789876 
L 253.364236 290.655601 
L 254.678073 288.865645 
L 255.601309 287.249256 
L 256.293736 285.605192 
L 256.808618 283.823351 
L 257.181464 281.758113 
L 257.447782 279.004976 
L 257.607573 275.383968 
L 257.696345 269.413534 
L 257.767364 248.158378 
L 257.998173 120.98817 
L 258.122455 116.152482 
L 258.157964 116.710982 
L 258.264491 119.90227 
L 258.566318 138.623193 
L 258.956918 179.336448 
L 259.755873 264.357707 
L 260.181982 284.476437 
L 260.590336 293.778569 
L 261.016445 298.72063 
L 261.495818 301.858096 
L 262.028455 304.006789 
L 262.649864 305.61062 
L 263.271273 306.636788 
L 263.892682 307.275136 
L 264.5496 307.644512 
L 265.224273 307.780702 
L 266.040982 307.701056 
L 266.964218 307.378754 
L 268.153773 306.716863 
L 269.787191 305.533908 
L 272.503636 303.24804 
L 284.008582 293.045265 
L 286.0326 290.920991 
L 287.435209 289.132584 
L 288.429464 287.513981 
L 289.1574 285.924913 
L 289.725545 284.134508 
L 290.151655 281.956771 
L 290.435727 279.219426 
L 290.631027 274.509146 
L 290.7198 266.800892 
L 290.844082 177.473663 
L 291.003873 120.198153 
L 291.128155 116.421616 
L 291.163664 116.907608 
L 291.341209 123.745954 
L 291.643036 145.457722 
L 292.175673 205.957451 
L 292.761573 263.89065 
L 293.152173 282.749986 
L 293.560527 292.778338 
L 294.004391 298.229474 
L 294.483764 301.488279 
L 295.051909 303.813276 
L 295.673318 305.415256 
L 296.294727 306.443379 
L 296.933891 307.100429 
L 297.573055 307.463628 
L 298.265482 307.610746 
L 299.064436 307.543857 
L 299.987673 307.238441 
L 301.177227 306.599028 
L 302.792891 305.460093 
L 305.491582 303.23663 
L 316.747964 293.422484 
L 318.949527 291.193549 
L 320.4054 289.418605 
L 321.488427 287.745493 
L 322.269627 286.127168 
L 322.855527 284.389457 
L 323.281636 282.408481 
L 323.583464 279.914777 
L 323.761009 276.914715 
L 323.885291 271.843638 
L 323.974064 244.790746 
L 324.204873 121.342493 
L 324.3114 116.221507 
L 324.346909 116.661052 
L 324.453436 119.430427 
L 324.755264 137.855818 
L 325.163618 179.737398 
L 325.962573 263.725836 
L 326.388682 283.923103 
L 326.797036 293.434813 
L 327.2409 298.631858 
L 327.738027 301.842414 
L 328.306173 304.045126 
L 328.927582 305.565911 
L 329.5845 306.580637 
L 330.241418 307.189207 
L 330.898336 307.506086 
L 331.590764 307.605488 
L 332.407473 307.49387 
L 333.419482 307.109483 
L 334.715564 306.353942 
L 336.508773 305.02724 
L 339.633573 302.399619 
L 350.818936 292.598923 
L 352.736427 290.554508 
L 354.068018 288.811259 
L 355.026764 287.18946 
L 355.736945 285.547073 
L 356.251827 283.805852 
L 356.624673 281.797756 
L 356.908745 278.924442 
L 357.086291 274.325794 
L 357.175064 266.366258 
L 357.210573 253.397493 
L 357.476891 118.984369 
L 357.565664 116.371867 
L 357.618927 116.908562 
L 357.778718 122.91547 
L 358.116055 147.351498 
L 358.648691 208.391166 
L 359.216836 264.119864 
L 359.625191 283.6751 
L 360.033545 293.4043 
L 360.459655 298.541334 
L 360.939027 301.749319 
L 361.453909 303.851546 
L 362.057564 305.42691 
L 362.678973 306.465766 
L 363.335891 307.13957 
L 363.992809 307.502911 
L 364.667482 307.637242 
L 364.862782 307.640072 
L 364.969309 309.665633 
L 365.306645 316.358954 
L 365.786018 321.078857 
L 366.460691 325.336558 
L 367.348418 329.515148 
L 368.395936 333.394128 
L 369.532227 336.795219 
L 370.7928 339.897632 
L 372.177655 342.72547 
L 373.669036 345.27211 
L 375.2847 347.593667 
L 377.024645 349.706938 
L 378.924382 351.66194 
L 380.983909 353.459659 
L 383.238736 355.129877 
L 385.706618 356.680235 
L 388.440818 358.134624 
L 391.4946 359.505414 
L 394.921227 360.797532 
L 398.809473 362.020885 
L 403.177091 363.157653 
L 408.112855 364.208188 
L 413.652273 365.15631 
L 419.866364 365.991286 
L 426.861655 366.702858 
L 434.744673 367.277226 
L 435.8277 367.340414 
L 435.8277 367.340414 
" style="fill:none;stroke:#1f77b4;stroke-linecap:square;stroke-width:1.5;"/>
   </g>
   <g id="line2d_12">
    <path clip-path="url(#paaf14d9016)" d="M 80.754545 363.765455 
L 81.020864 363.724455 
L 82.157155 363.843162 
L 96.076718 365.770183 
L 102.131018 366.236465 
L 109.019782 366.537611 
L 117.595227 366.678451 
L 130.609309 366.643363 
L 151.772727 366.477722 
L 151.985782 357.12637 
L 152.411891 348.569521 
L 153.104318 339.282214 
L 154.098573 329.011862 
L 155.1816 320.028249 
L 156.229118 313.107055 
L 157.258882 307.73977 
L 158.3064 303.419002 
L 159.460445 299.590788 
L 160.863055 295.728266 
L 163.597255 288.413349 
L 164.200909 285.989799 
L 164.609264 283.414898 
L 164.875582 280.293292 
L 165.035373 275.978153 
L 165.124145 268.500057 
L 165.177409 240.701184 
L 165.283936 66.96 
L 165.3372 83.56747 
L 165.852082 286.877515 
L 166.082891 307.885156 
L 166.349209 314.708995 
L 166.668791 317.740327 
L 167.059391 319.552717 
L 167.432236 320.374367 
L 167.734064 320.584419 
L 168.000382 320.51404 
L 168.337718 320.164842 
L 168.834845 319.278525 
L 169.6338 317.323789 
L 173.717345 306.665741 
L 175.190973 303.738879 
L 176.771127 301.095525 
L 178.546582 298.564647 
L 180.748145 295.829288 
L 185.524118 290.031705 
L 186.571636 288.308219 
L 187.299573 286.688839 
L 187.832209 284.959092 
L 188.222809 282.906917 
L 188.489127 280.3242 
L 188.666673 276.458015 
L 188.7732 269.027037 
L 188.826464 248.107543 
L 188.932991 70.999329 
L 189.004009 92.938846 
L 189.483382 276.476071 
L 189.731945 303.552501 
L 190.016018 313.442514 
L 190.353355 318.084242 
L 190.743955 320.601838 
L 191.152309 321.910742 
L 191.5074 322.404564 
L 191.809227 322.49884 
L 192.128809 322.359364 
L 192.554918 321.894983 
L 193.176327 320.839083 
L 194.188336 318.61108 
L 198.236373 309.303291 
L 199.940809 306.126483 
L 201.680755 303.348106 
L 203.562736 300.762641 
L 205.675527 298.241689 
L 208.374218 295.388209 
L 212.830609 290.71583 
L 214.108936 289.005677 
L 214.978909 287.480184 
L 215.618073 285.91105 
L 216.079691 284.19658 
L 216.417027 282.102975 
L 216.665591 279.030978 
L 216.807627 274.6631 
L 216.8964 264.473252 
L 216.931909 241.79788 
L 217.038436 71.672817 
L 217.0917 87.286138 
L 217.624336 283.331821 
L 217.8729 304.443125 
L 218.174727 313.429151 
L 218.529818 317.891279 
L 218.920418 320.263527 
L 219.311018 321.454318 
L 219.666109 321.92364 
L 219.967936 322.006545 
L 220.287518 321.863654 
L 220.713627 321.405828 
L 221.335036 320.375479 
L 222.3648 318.170851 
L 226.359573 309.258211 
L 228.081764 306.132401 
L 229.839464 303.399113 
L 231.721445 300.881279 
L 233.834236 298.428502 
L 236.444155 295.75314 
L 241.752764 290.410699 
L 242.977827 288.783347 
L 243.830045 287.285092 
L 244.451455 285.74104 
L 244.913073 283.98024 
L 245.250409 281.761073 
L 245.481218 278.658991 
L 245.623255 273.622475 
L 245.694273 264.491964 
L 245.729782 241.957659 
L 245.836309 71.724351 
L 245.889573 87.266391 
L 246.422209 283.525694 
L 246.670773 304.45444 
L 246.9726 313.266624 
L 247.327691 317.702361 
L 247.718291 320.094055 
L 248.108891 321.299018 
L 248.463982 321.775682 
L 248.765809 321.862915 
L 249.085391 321.723976 
L 249.5115 321.271437 
L 250.132909 320.249839 
L 251.162673 318.063062 
L 255.104182 309.343147 
L 256.808618 306.270389 
L 258.566318 303.55672 
L 260.4483 301.061832 
L 262.543336 298.658127 
L 265.082236 296.097791 
L 271.278573 290.016759 
L 272.414864 288.474183 
L 273.213818 287.025291 
L 273.799718 285.5142 
L 274.243582 283.742513 
L 274.563164 281.523476 
L 274.776218 278.534985 
L 274.918255 273.267603 
L 274.989273 262.968789 
L 275.024782 233.095499 
L 275.113555 71.49962 
L 275.166818 82.105367 
L 275.770473 291.124063 
L 276.036791 307.602389 
L 276.356373 314.823844 
L 276.729218 318.557055 
L 277.137573 320.593802 
L 277.528173 321.535608 
L 277.865509 321.849769 
L 278.167336 321.856078 
L 278.522427 321.621926 
L 279.019555 320.986192 
L 279.765245 319.618009 
L 281.1501 316.518737 
L 283.777773 310.688406 
L 285.517718 307.3999 
L 287.239909 304.613696 
L 289.068627 302.077914 
L 291.057136 299.701987 
L 293.347473 297.317897 
L 296.454518 294.432294 
L 300.218482 290.901089 
L 301.638845 289.252948 
L 302.615345 287.783673 
L 303.307773 286.350284 
L 303.822655 284.784872 
L 304.213255 282.863134 
L 304.497327 280.234065 
L 304.674873 276.46237 
L 304.7814 269.326836 
L 304.834664 250.576515 
L 304.941191 71.380928 
L 305.029964 100.676742 
L 305.456073 268.13291 
L 305.704636 300.364948 
L 305.988709 311.319885 
L 306.326045 316.589961 
L 306.716645 319.486669 
L 307.125 321.005018 
L 307.497845 321.630956 
L 307.817427 321.784249 
L 308.137009 321.685198 
L 308.545364 321.294602 
L 309.131264 320.387942 
L 310.072255 318.463957 
L 314.617418 308.641685 
L 316.321855 305.725593 
L 318.097309 303.128087 
L 319.997045 300.742431 
L 322.127591 298.427449 
L 324.702 295.970578 
L 331.217918 289.924999 
L 332.371964 288.428341 
L 333.188673 287.008529 
L 333.792327 285.507718 
L 334.236191 283.799128 
L 334.555773 281.689521 
L 334.786582 278.595763 
L 334.928618 273.52755 
L 334.999636 264.19326 
L 335.035145 240.459101 
L 335.123918 71.844981 
L 335.194936 87.681179 
L 335.727573 283.552804 
L 335.976136 304.582026 
L 336.277964 313.29056 
L 336.633055 317.640454 
L 337.041409 320.08508 
L 337.432009 321.246331 
L 337.7871 321.699564 
L 338.106682 321.771737 
L 338.444018 321.600063 
L 338.905636 321.073882 
L 339.580309 319.918674 
L 340.752109 317.39135 
L 343.947927 310.367575 
L 345.670118 307.201361 
L 347.392309 304.494998 
L 349.221027 302.034935 
L 351.209536 299.733225 
L 353.482118 297.446905 
L 356.429373 294.81645 
L 361.063309 290.701761 
L 362.465918 289.127993 
L 363.424664 287.730955 
L 364.134845 286.303333 
L 364.649727 284.775965 
L 364.827273 284.047924 
L 365.075836 295.910312 
L 365.466436 304.579656 
L 365.999073 311.45335 
L 366.6915 317.519477 
L 367.561473 323.213624 
L 368.591236 328.487803 
L 369.727527 333.173361 
L 370.970345 337.378297 
L 372.319691 341.16802 
L 373.757809 344.554017 
L 375.302455 347.628603 
L 376.953627 350.42508 
L 378.729082 352.995869 
L 380.628818 355.35461 
L 382.652836 357.51301 
L 384.801136 359.480081 
L 387.091473 361.274782 
L 389.506091 362.883754 
L 392.044991 364.308823 
L 394.725927 365.557807 
L 397.5489 366.62623 
L 400.531664 367.515922 
L 403.709727 368.230173 
L 407.154109 368.773056 
L 410.953582 369.142308 
L 415.285691 369.334124 
L 420.541036 369.334638 
L 427.855909 369.093514 
L 435.845455 368.719782 
L 435.845455 368.719782 
" style="fill:none;stroke:#ff0000;stroke-linecap:square;stroke-width:1.5;"/>
   </g>
   <g id="patch_3">
    <path d="M 63 384.48 
L 63 51.84 
" style="fill:none;stroke:#000000;stroke-linecap:square;stroke-linejoin:miter;stroke-width:0.8;"/>
   </g>
   <g id="patch_4">
    <path d="M 453.6 384.48 
L 453.6 51.84 
" style="fill:none;stroke:#000000;stroke-linecap:square;stroke-linejoin:miter;stroke-width:0.8;"/>
   </g>
   <g id="patch_5">
    <path d="M 63 384.48 
L 453.6 384.48 
" style="fill:none;stroke:#000000;stroke-linecap:square;stroke-linejoin:miter;stroke-width:0.8;"/>
   </g>
   <g id="patch_6">
    <path d="M 63 51.84 
L 453.6 51.84 
" style="fill:none;stroke:#000000;stroke-linecap:square;stroke-linejoin:miter;stroke-width:0.8;"/>
   </g>
   <g id="legend_1">
    <g id="patch_7">
     <path d="M 383.460938 89.19625 
L 446.6 89.19625 
Q 448.6 89.19625 448.6 87.19625 
L 448.6 58.84 
Q 448.6 56.84 446.6 56.84 
L 383.460938 56.84 
Q 381.460938 56.84 381.460938 58.84 
L 381.460938 87.19625 
Q 381.460938 89.19625 383.460938 89.19625 
z
" style="fill:#ffffff;opacity:0.8;stroke:#cccccc;stroke-linejoin:miter;"/>
    </g>
    <g id="line2d_13">
     <path d="M 385.460938 64.938437 
L 405.460938 64.938437 
" style="fill:none;stroke:#1f77b4;stroke-linecap:square;stroke-width:1.5;"/>
    </g>
    <g id="line2d_14"/>
    <g id="text_13">
     <!-- target -->
     <defs>
      <path d="M 41.109375 46.296875 
Q 39.59375 47.171875 37.8125 47.578125 
Q 36.03125 48 33.890625 48 
Q 26.265625 48 22.1875 43.046875 
Q 18.109375 38.09375 18.109375 28.8125 
L 18.109375 0 
L 9.078125 0 
L 9.078125 54.6875 
L 18.109375 54.6875 
L 18.109375 46.1875 
Q 20.953125 51.171875 25.484375 53.578125 
Q 30.03125 56 36.53125 56 
Q 37.453125 56 38.578125 55.875 
Q 39.703125 55.765625 41.0625 55.515625 
z
" id="DejaVuSans-114"/>
     </defs>
     <g transform="translate(413.460938 68.438437)scale(0.1 -0.1)">
      <use xlink:href="#DejaVuSans-116"/>
      <use x="39.208984" xlink:href="#DejaVuSans-97"/>
      <use x="100.488281" xlink:href="#DejaVuSans-114"/>
      <use x="141.585938" xlink:href="#DejaVuSans-103"/>
      <use x="205.0625" xlink:href="#DejaVuSans-101"/>
      <use x="266.585938" xlink:href="#DejaVuSans-116"/>
     </g>
    </g>
    <g id="line2d_15">
     <path d="M 385.460938 79.616562 
L 405.460938 79.616562 
" style="fill:none;stroke:#ff0000;stroke-linecap:square;stroke-width:1.5;"/>
    </g>
    <g id="line2d_16"/>
    <g id="text_14">
     <!-- model -->
     <defs>
      <path d="M 45.40625 46.390625 
L 45.40625 75.984375 
L 54.390625 75.984375 
L 54.390625 0 
L 45.40625 0 
L 45.40625 8.203125 
Q 42.578125 3.328125 38.25 0.953125 
Q 33.9375 -1.421875 27.875 -1.421875 
Q 17.96875 -1.421875 11.734375 6.484375 
Q 5.515625 14.40625 5.515625 27.296875 
Q 5.515625 40.1875 11.734375 48.09375 
Q 17.96875 56 27.875 56 
Q 33.9375 56 38.25 53.625 
Q 42.578125 51.265625 45.40625 46.390625 
z
M 14.796875 27.296875 
Q 14.796875 17.390625 18.875 11.75 
Q 22.953125 6.109375 30.078125 6.109375 
Q 37.203125 6.109375 41.296875 11.75 
Q 45.40625 17.390625 45.40625 27.296875 
Q 45.40625 37.203125 41.296875 42.84375 
Q 37.203125 48.484375 30.078125 48.484375 
Q 22.953125 48.484375 18.875 42.84375 
Q 14.796875 37.203125 14.796875 27.296875 
z
" id="DejaVuSans-100"/>
     </defs>
     <g transform="translate(413.460938 83.116562)scale(0.1 -0.1)">
      <use xlink:href="#DejaVuSans-109"/>
      <use x="97.412109" xlink:href="#DejaVuSans-111"/>
      <use x="158.59375" xlink:href="#DejaVuSans-100"/>
      <use x="222.070312" xlink:href="#DejaVuSans-101"/>
      <use x="283.59375" xlink:href="#DejaVuSans-108"/>
     </g>
    </g>
   </g>
  </g>
 </g>
 <defs>
  <clipPath id="paaf14d9016">
   <rect height="332.64" width="390.6" x="63" y="51.84"/>
  </clipPath>
 </defs>
</svg>
