<?xml version="1.0" encoding="utf-8" standalone="no"?>
<!DOCTYPE svg PUBLIC "-//W3C//DTD SVG 1.1//EN"
  "http://www.w3.org/Graphics/SVG/1.1/DTD/svg11.dtd">
<!-- Created with matplotlib (http://matplotlib.org/) -->
<svg height="432pt" version="1.1" viewBox="0 0 504 432" width="504pt" xmlns="http://www.w3.org/2000/svg" xmlns:xlink="http://www.w3.org/1999/xlink">
 <defs>
  <style type="text/css">
*{stroke-linecap:butt;stroke-linejoin:round;}
  </style>
 </defs>
 <g id="figure_1">
  <g id="patch_1">
   <path d="M 0 432 
L 504 432 
L 504 0 
L 0 0 
z
" style="fill:#ffffff;"/>
  </g>
  <g id="axes_1">
   <g id="patch_2">
    <path d="M 63 384.48 
L 453.6 384.48 
L 453.6 51.84 
L 63 51.84 
z
" style="fill:#ffffff;"/>
   </g>
   <g id="matplotlib.axis_1">
    <g id="xtick_1">
     <g id="line2d_1">
      <defs>
       <path d="M 0 0 
L 0 3.5 
" id="m0e5b21d1db" style="stroke:#000000;stroke-width:0.8;"/>
      </defs>
      <g>
       <use style="stroke:#000000;stroke-width:0.8;" x="80.754545" xlink:href="#m0e5b21d1db" y="384.48"/>
      </g>
     </g>
     <g id="text_1">
      <!-- 0 -->
      <defs>
       <path d="M 31.78125 66.40625 
Q 24.171875 66.40625 20.328125 58.90625 
Q 16.5 51.421875 16.5 36.375 
Q 16.5 21.390625 20.328125 13.890625 
Q 24.171875 6.390625 31.78125 6.390625 
Q 39.453125 6.390625 43.28125 13.890625 
Q 47.125 21.390625 47.125 36.375 
Q 47.125 51.421875 43.28125 58.90625 
Q 39.453125 66.40625 31.78125 66.40625 
z
M 31.78125 74.21875 
Q 44.046875 74.21875 50.515625 64.515625 
Q 56.984375 54.828125 56.984375 36.375 
Q 56.984375 17.96875 50.515625 8.265625 
Q 44.046875 -1.421875 31.78125 -1.421875 
Q 19.53125 -1.421875 13.0625 8.265625 
Q 6.59375 17.96875 6.59375 36.375 
Q 6.59375 54.828125 13.0625 64.515625 
Q 19.53125 74.21875 31.78125 74.21875 
z
" id="DejaVuSans-30"/>
      </defs>
      <g transform="translate(77.573295 399.078438)scale(0.1 -0.1)">
       <use xlink:href="#DejaVuSans-30"/>
      </g>
     </g>
    </g>
    <g id="xtick_2">
     <g id="line2d_2">
      <g>
       <use style="stroke:#000000;stroke-width:0.8;" x="151.772727" xlink:href="#m0e5b21d1db" y="384.48"/>
      </g>
     </g>
     <g id="text_2">
      <!-- 200 -->
      <defs>
       <path d="M 19.1875 8.296875 
L 53.609375 8.296875 
L 53.609375 0 
L 7.328125 0 
L 7.328125 8.296875 
Q 12.9375 14.109375 22.625 23.890625 
Q 32.328125 33.6875 34.8125 36.53125 
Q 39.546875 41.84375 41.421875 45.53125 
Q 43.3125 49.21875 43.3125 52.78125 
Q 43.3125 58.59375 39.234375 62.25 
Q 35.15625 65.921875 28.609375 65.921875 
Q 23.96875 65.921875 18.8125 64.3125 
Q 13.671875 62.703125 7.8125 59.421875 
L 7.8125 69.390625 
Q 13.765625 71.78125 18.9375 73 
Q 24.125 74.21875 28.421875 74.21875 
Q 39.75 74.21875 46.484375 68.546875 
Q 53.21875 62.890625 53.21875 53.421875 
Q 53.21875 48.921875 51.53125 44.890625 
Q 49.859375 40.875 45.40625 35.40625 
Q 44.1875 33.984375 37.640625 27.21875 
Q 31.109375 20.453125 19.1875 8.296875 
z
" id="DejaVuSans-32"/>
      </defs>
      <g transform="translate(142.228977 399.078438)scale(0.1 -0.1)">
       <use xlink:href="#DejaVuSans-32"/>
       <use x="63.623047" xlink:href="#DejaVuSans-30"/>
       <use x="127.246094" xlink:href="#DejaVuSans-30"/>
      </g>
     </g>
    </g>
    <g id="xtick_3">
     <g id="line2d_3">
      <g>
       <use style="stroke:#000000;stroke-width:0.8;" x="222.790909" xlink:href="#m0e5b21d1db" y="384.48"/>
      </g>
     </g>
     <g id="text_3">
      <!-- 400 -->
      <defs>
       <path d="M 37.796875 64.3125 
L 12.890625 25.390625 
L 37.796875 25.390625 
z
M 35.203125 72.90625 
L 47.609375 72.90625 
L 47.609375 25.390625 
L 58.015625 25.390625 
L 58.015625 17.1875 
L 47.609375 17.1875 
L 47.609375 0 
L 37.796875 0 
L 37.796875 17.1875 
L 4.890625 17.1875 
L 4.890625 26.703125 
z
" id="DejaVuSans-34"/>
      </defs>
      <g transform="translate(213.247159 399.078438)scale(0.1 -0.1)">
       <use xlink:href="#DejaVuSans-34"/>
       <use x="63.623047" xlink:href="#DejaVuSans-30"/>
       <use x="127.246094" xlink:href="#DejaVuSans-30"/>
      </g>
     </g>
    </g>
    <g id="xtick_4">
     <g id="line2d_4">
      <g>
       <use style="stroke:#000000;stroke-width:0.8;" x="293.809091" xlink:href="#m0e5b21d1db" y="384.48"/>
      </g>
     </g>
     <g id="text_4">
      <!-- 600 -->
      <defs>
       <path d="M 33.015625 40.375 
Q 26.375 40.375 22.484375 35.828125 
Q 18.609375 31.296875 18.609375 23.390625 
Q 18.609375 15.53125 22.484375 10.953125 
Q 26.375 6.390625 33.015625 6.390625 
Q 39.65625 6.390625 43.53125 10.953125 
Q 47.40625 15.53125 47.40625 23.390625 
Q 47.40625 31.296875 43.53125 35.828125 
Q 39.65625 40.375 33.015625 40.375 
z
M 52.59375 71.296875 
L 52.59375 62.3125 
Q 48.875 64.0625 45.09375 64.984375 
Q 41.3125 65.921875 37.59375 65.921875 
Q 27.828125 65.921875 22.671875 59.328125 
Q 17.53125 52.734375 16.796875 39.40625 
Q 19.671875 43.65625 24.015625 45.921875 
Q 28.375 48.1875 33.59375 48.1875 
Q 44.578125 48.1875 50.953125 41.515625 
Q 57.328125 34.859375 57.328125 23.390625 
Q 57.328125 12.15625 50.6875 5.359375 
Q 44.046875 -1.421875 33.015625 -1.421875 
Q 20.359375 -1.421875 13.671875 8.265625 
Q 6.984375 17.96875 6.984375 36.375 
Q 6.984375 53.65625 15.1875 63.9375 
Q 23.390625 74.21875 37.203125 74.21875 
Q 40.921875 74.21875 44.703125 73.484375 
Q 48.484375 72.75 52.59375 71.296875 
z
" id="DejaVuSans-36"/>
      </defs>
      <g transform="translate(284.265341 399.078438)scale(0.1 -0.1)">
       <use xlink:href="#DejaVuSans-36"/>
       <use x="63.623047" xlink:href="#DejaVuSans-30"/>
       <use x="127.246094" xlink:href="#DejaVuSans-30"/>
      </g>
     </g>
    </g>
    <g id="xtick_5">
     <g id="line2d_5">
      <g>
       <use style="stroke:#000000;stroke-width:0.8;" x="364.827273" xlink:href="#m0e5b21d1db" y="384.48"/>
      </g>
     </g>
     <g id="text_5">
      <!-- 800 -->
      <defs>
       <path d="M 31.78125 34.625 
Q 24.75 34.625 20.71875 30.859375 
Q 16.703125 27.09375 16.703125 20.515625 
Q 16.703125 13.921875 20.71875 10.15625 
Q 24.75 6.390625 31.78125 6.390625 
Q 38.8125 6.390625 42.859375 10.171875 
Q 46.921875 13.96875 46.921875 20.515625 
Q 46.921875 27.09375 42.890625 30.859375 
Q 38.875 34.625 31.78125 34.625 
z
M 21.921875 38.8125 
Q 15.578125 40.375 12.03125 44.71875 
Q 8.5 49.078125 8.5 55.328125 
Q 8.5 64.0625 14.71875 69.140625 
Q 20.953125 74.21875 31.78125 74.21875 
Q 42.671875 74.21875 48.875 69.140625 
Q 55.078125 64.0625 55.078125 55.328125 
Q 55.078125 49.078125 51.53125 44.71875 
Q 48 40.375 41.703125 38.8125 
Q 48.828125 37.15625 52.796875 32.3125 
Q 56.78125 27.484375 56.78125 20.515625 
Q 56.78125 9.90625 50.3125 4.234375 
Q 43.84375 -1.421875 31.78125 -1.421875 
Q 19.734375 -1.421875 13.25 4.234375 
Q 6.78125 9.90625 6.78125 20.515625 
Q 6.78125 27.484375 10.78125 32.3125 
Q 14.796875 37.15625 21.921875 38.8125 
z
M 18.3125 54.390625 
Q 18.3125 48.734375 21.84375 45.5625 
Q 25.390625 42.390625 31.78125 42.390625 
Q 38.140625 42.390625 41.71875 45.5625 
Q 45.3125 48.734375 45.3125 54.390625 
Q 45.3125 60.0625 41.71875 63.234375 
Q 38.140625 66.40625 31.78125 66.40625 
Q 25.390625 66.40625 21.84375 63.234375 
Q 18.3125 60.0625 18.3125 54.390625 
z
" id="DejaVuSans-38"/>
      </defs>
      <g transform="translate(355.283523 399.078438)scale(0.1 -0.1)">
       <use xlink:href="#DejaVuSans-38"/>
       <use x="63.623047" xlink:href="#DejaVuSans-30"/>
       <use x="127.246094" xlink:href="#DejaVuSans-30"/>
      </g>
     </g>
    </g>
    <g id="text_6">
     <!-- time [ms] -->
     <defs>
      <path d="M 18.3125 70.21875 
L 18.3125 54.6875 
L 36.8125 54.6875 
L 36.8125 47.703125 
L 18.3125 47.703125 
L 18.3125 18.015625 
Q 18.3125 11.328125 20.140625 9.421875 
Q 21.96875 7.515625 27.59375 7.515625 
L 36.8125 7.515625 
L 36.8125 0 
L 27.59375 0 
Q 17.1875 0 13.234375 3.875 
Q 9.28125 7.765625 9.28125 18.015625 
L 9.28125 47.703125 
L 2.6875 47.703125 
L 2.6875 54.6875 
L 9.28125 54.6875 
L 9.28125 70.21875 
z
" id="DejaVuSans-74"/>
      <path d="M 9.421875 54.6875 
L 18.40625 54.6875 
L 18.40625 0 
L 9.421875 0 
z
M 9.421875 75.984375 
L 18.40625 75.984375 
L 18.40625 64.59375 
L 9.421875 64.59375 
z
" id="DejaVuSans-69"/>
      <path d="M 52 44.1875 
Q 55.375 50.25 60.0625 53.125 
Q 64.75 56 71.09375 56 
Q 79.640625 56 84.28125 50.015625 
Q 88.921875 44.046875 88.921875 33.015625 
L 88.921875 0 
L 79.890625 0 
L 79.890625 32.71875 
Q 79.890625 40.578125 77.09375 44.375 
Q 74.3125 48.1875 68.609375 48.1875 
Q 61.625 48.1875 57.5625 43.546875 
Q 53.515625 38.921875 53.515625 30.90625 
L 53.515625 0 
L 44.484375 0 
L 44.484375 32.71875 
Q 44.484375 40.625 41.703125 44.40625 
Q 38.921875 48.1875 33.109375 48.1875 
Q 26.21875 48.1875 22.15625 43.53125 
Q 18.109375 38.875 18.109375 30.90625 
L 18.109375 0 
L 9.078125 0 
L 9.078125 54.6875 
L 18.109375 54.6875 
L 18.109375 46.1875 
Q 21.1875 51.21875 25.484375 53.609375 
Q 29.78125 56 35.6875 56 
Q 41.65625 56 45.828125 52.96875 
Q 50 49.953125 52 44.1875 
z
" id="DejaVuSans-6d"/>
      <path d="M 56.203125 29.59375 
L 56.203125 25.203125 
L 14.890625 25.203125 
Q 15.484375 15.921875 20.484375 11.0625 
Q 25.484375 6.203125 34.421875 6.203125 
Q 39.59375 6.203125 44.453125 7.46875 
Q 49.3125 8.734375 54.109375 11.28125 
L 54.109375 2.78125 
Q 49.265625 0.734375 44.1875 -0.34375 
Q 39.109375 -1.421875 33.890625 -1.421875 
Q 20.796875 -1.421875 13.15625 6.1875 
Q 5.515625 13.8125 5.515625 26.8125 
Q 5.515625 40.234375 12.765625 48.109375 
Q 20.015625 56 32.328125 56 
Q 43.359375 56 49.78125 48.890625 
Q 56.203125 41.796875 56.203125 29.59375 
z
M 47.21875 32.234375 
Q 47.125 39.59375 43.09375 43.984375 
Q 39.0625 48.390625 32.421875 48.390625 
Q 24.90625 48.390625 20.390625 44.140625 
Q 15.875 39.890625 15.1875 32.171875 
z
" id="DejaVuSans-65"/>
      <path id="DejaVuSans-20"/>
      <path d="M 8.59375 75.984375 
L 29.296875 75.984375 
L 29.296875 69 
L 17.578125 69 
L 17.578125 -6.203125 
L 29.296875 -6.203125 
L 29.296875 -13.1875 
L 8.59375 -13.1875 
z
" id="DejaVuSans-5b"/>
      <path d="M 44.28125 53.078125 
L 44.28125 44.578125 
Q 40.484375 46.53125 36.375 47.5 
Q 32.28125 48.484375 27.875 48.484375 
Q 21.1875 48.484375 17.84375 46.4375 
Q 14.5 44.390625 14.5 40.28125 
Q 14.5 37.15625 16.890625 35.375 
Q 19.28125 33.59375 26.515625 31.984375 
L 29.59375 31.296875 
Q 39.15625 29.25 43.1875 25.515625 
Q 47.21875 21.78125 47.21875 15.09375 
Q 47.21875 7.46875 41.1875 3.015625 
Q 35.15625 -1.421875 24.609375 -1.421875 
Q 20.21875 -1.421875 15.453125 -0.5625 
Q 10.6875 0.296875 5.421875 2 
L 5.421875 11.28125 
Q 10.40625 8.6875 15.234375 7.390625 
Q 20.0625 6.109375 24.8125 6.109375 
Q 31.15625 6.109375 34.5625 8.28125 
Q 37.984375 10.453125 37.984375 14.40625 
Q 37.984375 18.0625 35.515625 20.015625 
Q 33.0625 21.96875 24.703125 23.78125 
L 21.578125 24.515625 
Q 13.234375 26.265625 9.515625 29.90625 
Q 5.8125 33.546875 5.8125 39.890625 
Q 5.8125 47.609375 11.28125 51.796875 
Q 16.75 56 26.8125 56 
Q 31.78125 56 36.171875 55.265625 
Q 40.578125 54.546875 44.28125 53.078125 
z
" id="DejaVuSans-73"/>
      <path d="M 30.421875 75.984375 
L 30.421875 -13.1875 
L 9.71875 -13.1875 
L 9.71875 -6.203125 
L 21.390625 -6.203125 
L 21.390625 69 
L 9.71875 69 
L 9.71875 75.984375 
z
" id="DejaVuSans-5d"/>
     </defs>
     <g transform="translate(234.038281 412.756563)scale(0.1 -0.1)">
      <use xlink:href="#DejaVuSans-74"/>
      <use x="39.208984" xlink:href="#DejaVuSans-69"/>
      <use x="66.992188" xlink:href="#DejaVuSans-6d"/>
      <use x="164.404297" xlink:href="#DejaVuSans-65"/>
      <use x="225.927734" xlink:href="#DejaVuSans-20"/>
      <use x="257.714844" xlink:href="#DejaVuSans-5b"/>
      <use x="296.728516" xlink:href="#DejaVuSans-6d"/>
      <use x="394.140625" xlink:href="#DejaVuSans-73"/>
      <use x="446.240234" xlink:href="#DejaVuSans-5d"/>
     </g>
    </g>
   </g>
   <g id="matplotlib.axis_2">
    <g id="ytick_1">
     <g id="line2d_6">
      <defs>
       <path d="M 0 0 
L -3.5 0 
" id="md5846c3dbb" style="stroke:#000000;stroke-width:0.8;"/>
      </defs>
      <g>
       <use style="stroke:#000000;stroke-width:0.8;" x="63" xlink:href="#md5846c3dbb" y="382.284048"/>
      </g>
     </g>
     <g id="text_7">
      <!-- −80 -->
      <defs>
       <path d="M 10.59375 35.5 
L 73.1875 35.5 
L 73.1875 27.203125 
L 10.59375 27.203125 
z
" id="DejaVuSans-2212"/>
      </defs>
      <g transform="translate(34.895313 386.083266)scale(0.1 -0.1)">
       <use xlink:href="#DejaVuSans-2212"/>
       <use x="83.789062" xlink:href="#DejaVuSans-38"/>
       <use x="147.412109" xlink:href="#DejaVuSans-30"/>
      </g>
     </g>
    </g>
    <g id="ytick_2">
     <g id="line2d_7">
      <g>
       <use style="stroke:#000000;stroke-width:0.8;" x="63" xlink:href="#md5846c3dbb" y="329.595005"/>
      </g>
     </g>
     <g id="text_8">
      <!-- −60 -->
      <g transform="translate(34.895313 333.394224)scale(0.1 -0.1)">
       <use xlink:href="#DejaVuSans-2212"/>
       <use x="83.789062" xlink:href="#DejaVuSans-36"/>
       <use x="147.412109" xlink:href="#DejaVuSans-30"/>
      </g>
     </g>
    </g>
    <g id="ytick_3">
     <g id="line2d_8">
      <g>
       <use style="stroke:#000000;stroke-width:0.8;" x="63" xlink:href="#md5846c3dbb" y="276.905963"/>
      </g>
     </g>
     <g id="text_9">
      <!-- −40 -->
      <g transform="translate(34.895313 280.705182)scale(0.1 -0.1)">
       <use xlink:href="#DejaVuSans-2212"/>
       <use x="83.789062" xlink:href="#DejaVuSans-34"/>
       <use x="147.412109" xlink:href="#DejaVuSans-30"/>
      </g>
     </g>
    </g>
    <g id="ytick_4">
     <g id="line2d_9">
      <g>
       <use style="stroke:#000000;stroke-width:0.8;" x="63" xlink:href="#md5846c3dbb" y="224.216921"/>
      </g>
     </g>
     <g id="text_10">
      <!-- −20 -->
      <g transform="translate(34.895313 228.016139)scale(0.1 -0.1)">
       <use xlink:href="#DejaVuSans-2212"/>
       <use x="83.789062" xlink:href="#DejaVuSans-32"/>
       <use x="147.412109" xlink:href="#DejaVuSans-30"/>
      </g>
     </g>
    </g>
    <g id="ytick_5">
     <g id="line2d_10">
      <g>
       <use style="stroke:#000000;stroke-width:0.8;" x="63" xlink:href="#md5846c3dbb" y="171.527878"/>
      </g>
     </g>
     <g id="text_11">
      <!-- 0 -->
      <g transform="translate(49.6375 175.327097)scale(0.1 -0.1)">
       <use xlink:href="#DejaVuSans-30"/>
      </g>
     </g>
    </g>
    <g id="ytick_6">
     <g id="line2d_11">
      <g>
       <use style="stroke:#000000;stroke-width:0.8;" x="63" xlink:href="#md5846c3dbb" y="118.838836"/>
      </g>
     </g>
     <g id="text_12">
      <!-- 20 -->
      <g transform="translate(43.275 122.638055)scale(0.1 -0.1)">
       <use xlink:href="#DejaVuSans-32"/>
       <use x="63.623047" xlink:href="#DejaVuSans-30"/>
      </g>
     </g>
    </g>
    <g id="ytick_7">
     <g id="line2d_12">
      <g>
       <use style="stroke:#000000;stroke-width:0.8;" x="63" xlink:href="#md5846c3dbb" y="66.149793"/>
      </g>
     </g>
     <g id="text_13">
      <!-- 40 -->
      <g transform="translate(43.275 69.949012)scale(0.1 -0.1)">
       <use xlink:href="#DejaVuSans-34"/>
       <use x="63.623047" xlink:href="#DejaVuSans-30"/>
      </g>
     </g>
    </g>
    <g id="text_14">
     <!-- voltage [mV] -->
     <defs>
      <path d="M 2.984375 54.6875 
L 12.5 54.6875 
L 29.59375 8.796875 
L 46.6875 54.6875 
L 56.203125 54.6875 
L 35.6875 0 
L 23.484375 0 
z
" id="DejaVuSans-76"/>
      <path d="M 30.609375 48.390625 
Q 23.390625 48.390625 19.1875 42.75 
Q 14.984375 37.109375 14.984375 27.296875 
Q 14.984375 17.484375 19.15625 11.84375 
Q 23.34375 6.203125 30.609375 6.203125 
Q 37.796875 6.203125 41.984375 11.859375 
Q 46.1875 17.53125 46.1875 27.296875 
Q 46.1875 37.015625 41.984375 42.703125 
Q 37.796875 48.390625 30.609375 48.390625 
z
M 30.609375 56 
Q 42.328125 56 49.015625 48.375 
Q 55.71875 40.765625 55.71875 27.296875 
Q 55.71875 13.875 49.015625 6.21875 
Q 42.328125 -1.421875 30.609375 -1.421875 
Q 18.84375 -1.421875 12.171875 6.21875 
Q 5.515625 13.875 5.515625 27.296875 
Q 5.515625 40.765625 12.171875 48.375 
Q 18.84375 56 30.609375 56 
z
" id="DejaVuSans-6f"/>
      <path d="M 9.421875 75.984375 
L 18.40625 75.984375 
L 18.40625 0 
L 9.421875 0 
z
" id="DejaVuSans-6c"/>
      <path d="M 34.28125 27.484375 
Q 23.390625 27.484375 19.1875 25 
Q 14.984375 22.515625 14.984375 16.5 
Q 14.984375 11.71875 18.140625 8.90625 
Q 21.296875 6.109375 26.703125 6.109375 
Q 34.1875 6.109375 38.703125 11.40625 
Q 43.21875 16.703125 43.21875 25.484375 
L 43.21875 27.484375 
z
M 52.203125 31.203125 
L 52.203125 0 
L 43.21875 0 
L 43.21875 8.296875 
Q 40.140625 3.328125 35.546875 0.953125 
Q 30.953125 -1.421875 24.3125 -1.421875 
Q 15.921875 -1.421875 10.953125 3.296875 
Q 6 8.015625 6 15.921875 
Q 6 25.140625 12.171875 29.828125 
Q 18.359375 34.515625 30.609375 34.515625 
L 43.21875 34.515625 
L 43.21875 35.40625 
Q 43.21875 41.609375 39.140625 45 
Q 35.0625 48.390625 27.6875 48.390625 
Q 23 48.390625 18.546875 47.265625 
Q 14.109375 46.140625 10.015625 43.890625 
L 10.015625 52.203125 
Q 14.9375 54.109375 19.578125 55.046875 
Q 24.21875 56 28.609375 56 
Q 40.484375 56 46.34375 49.84375 
Q 52.203125 43.703125 52.203125 31.203125 
z
" id="DejaVuSans-61"/>
      <path d="M 45.40625 27.984375 
Q 45.40625 37.75 41.375 43.109375 
Q 37.359375 48.484375 30.078125 48.484375 
Q 22.859375 48.484375 18.828125 43.109375 
Q 14.796875 37.75 14.796875 27.984375 
Q 14.796875 18.265625 18.828125 12.890625 
Q 22.859375 7.515625 30.078125 7.515625 
Q 37.359375 7.515625 41.375 12.890625 
Q 45.40625 18.265625 45.40625 27.984375 
z
M 54.390625 6.78125 
Q 54.390625 -7.171875 48.1875 -13.984375 
Q 42 -20.796875 29.203125 -20.796875 
Q 24.46875 -20.796875 20.265625 -20.09375 
Q 16.0625 -19.390625 12.109375 -17.921875 
L 12.109375 -9.1875 
Q 16.0625 -11.328125 19.921875 -12.34375 
Q 23.78125 -13.375 27.78125 -13.375 
Q 36.625 -13.375 41.015625 -8.765625 
Q 45.40625 -4.15625 45.40625 5.171875 
L 45.40625 9.625 
Q 42.625 4.78125 38.28125 2.390625 
Q 33.9375 0 27.875 0 
Q 17.828125 0 11.671875 7.65625 
Q 5.515625 15.328125 5.515625 27.984375 
Q 5.515625 40.671875 11.671875 48.328125 
Q 17.828125 56 27.875 56 
Q 33.9375 56 38.28125 53.609375 
Q 42.625 51.21875 45.40625 46.390625 
L 45.40625 54.6875 
L 54.390625 54.6875 
z
" id="DejaVuSans-67"/>
      <path d="M 28.609375 0 
L 0.78125 72.90625 
L 11.078125 72.90625 
L 34.1875 11.53125 
L 57.328125 72.90625 
L 67.578125 72.90625 
L 39.796875 0 
z
" id="DejaVuSans-56"/>
     </defs>
     <g transform="translate(28.815625 250.624062)rotate(-90)scale(0.1 -0.1)">
      <use xlink:href="#DejaVuSans-76"/>
      <use x="59.179688" xlink:href="#DejaVuSans-6f"/>
      <use x="120.361328" xlink:href="#DejaVuSans-6c"/>
      <use x="148.144531" xlink:href="#DejaVuSans-74"/>
      <use x="187.353516" xlink:href="#DejaVuSans-61"/>
      <use x="248.632812" xlink:href="#DejaVuSans-67"/>
      <use x="312.109375" xlink:href="#DejaVuSans-65"/>
      <use x="373.632812" xlink:href="#DejaVuSans-20"/>
      <use x="405.419922" xlink:href="#DejaVuSans-5b"/>
      <use x="444.433594" xlink:href="#DejaVuSans-6d"/>
      <use x="541.845703" xlink:href="#DejaVuSans-56"/>
      <use x="610.253906" xlink:href="#DejaVuSans-5d"/>
     </g>
    </g>
   </g>
   <g id="line2d_13">
    <path clip-path="url(#p11a9749bc5)" d="M 80.754545 342.767266 
L 81.952977 342.630538 
L 83.763941 342.687442 
L 87.749836 342.694818 
L 151.772727 342.69798 
L 152.314241 298.01293 
L 152.420768 249.201011 
L 152.562805 67.003883 
L 152.678209 92.313064 
L 153.565936 369.350995 
L 153.610323 369.250096 
L 153.8145 367.866218 
L 154.293873 363.095225 
L 154.959668 353.940768 
L 157.42755 314.908198 
L 157.613973 303.740492 
L 157.738255 281.695133 
L 157.835905 218.911397 
L 157.969064 91.453443 
L 158.031205 104.653628 
L 158.883423 368.925004 
L 158.945564 368.740856 
L 159.203005 366.754479 
L 159.717886 361.060901 
L 160.534595 349.090478 
L 161.8218 330.894317 
L 162.514227 320.490075 
L 162.771668 312.942107 
L 162.940336 300.907139 
L 163.064618 272.839159 
L 163.162268 188.133172 
L 163.268795 92.377081 
L 163.322059 101.924863 
L 163.863573 297.733678 
L 164.147645 368.747706 
L 164.183155 368.893128 
L 164.245295 368.711087 
L 164.493859 366.800582 
L 165.008741 361.126763 
L 165.834327 349.032783 
L 167.112655 330.969135 
L 167.813959 320.45451 
L 168.0714 312.896794 
L 168.240068 300.82231 
L 168.36435 272.592048 
L 168.462 187.384856 
L 168.568527 92.454271 
L 168.621791 102.147738 
L 169.172182 301.699846 
L 169.4385 368.661559 
L 169.482886 368.89102 
L 169.545027 368.705028 
L 169.802468 366.710484 
L 170.31735 360.998992 
L 171.151814 348.74273 
L 172.430141 330.725449 
L 173.113691 320.436069 
L 173.371132 312.860175 
L 173.5398 300.726152 
L 173.664082 272.25273 
L 173.761732 186.229359 
L 173.868259 92.471131 
L 173.921523 102.384575 
L 174.480791 305.785881 
L 174.729355 368.551703 
L 174.782618 368.89102 
L 174.844759 368.700813 
L 175.1022 366.703107 
L 175.617082 360.98819 
L 176.451545 348.729821 
L 177.729873 330.714647 
L 178.413423 320.419209 
L 178.670864 312.824083 
L 178.839532 300.628677 
L 178.963814 271.904456 
L 179.061464 185.040036 
L 179.167991 92.488519 
L 179.221255 102.624046 
L 179.7894 309.97545 
L 180.029086 368.564084 
L 180.08235 368.891283 
L 180.144491 368.696334 
L 180.401932 366.695731 
L 180.916814 360.977653 
L 181.751277 348.717439 
L 183.029605 330.70411 
L 183.713155 320.402085 
L 183.970595 312.787728 
L 184.139264 300.530149 
L 184.263545 271.548014 
L 184.361195 183.829795 
L 184.467723 92.512492 
L 184.520986 102.867206 
L 185.098009 314.257225 
L 185.328818 368.576203 
L 185.382082 368.891283 
L 185.444223 368.692119 
L 185.701664 366.688091 
L 186.216545 360.967115 
L 187.051009 348.704794 
L 188.329336 330.693572 
L 189.012886 320.385224 
L 189.270327 312.751109 
L 189.438995 300.43004 
L 189.563277 271.186304 
L 189.660927 182.614733 
L 189.767455 92.542262 
L 189.820718 103.112737 
L 190.406618 318.611447 
L 190.619673 368.441846 
L 190.681814 368.89102 
L 190.743955 368.68764 
L 191.010273 366.599047 
L 191.525155 360.841188 
L 192.368495 348.418166 
L 193.637945 330.567118 
L 194.312618 320.367837 
L 194.570059 312.71449 
L 194.738727 300.329404 
L 194.863009 270.821169 
L 194.969536 167.986779 
L 195.058309 92.528826 
L 195.12045 103.360903 
L 195.715227 323.012036 
L 195.919405 368.457389 
L 195.981545 368.89102 
L 196.043686 368.683162 
L 196.310005 366.591407 
L 196.833764 360.714734 
L 197.703736 347.858345 
L 198.955432 330.325012 
L 199.61235 320.350713 
L 199.869791 312.677344 
L 200.038459 300.227714 
L 200.162741 270.448657 
L 200.269268 166.718791 
L 200.358041 92.49932 
L 200.420182 103.613283 
L 201.023836 327.421846 
L 201.219136 368.472142 
L 201.281277 368.890493 
L 201.343418 368.678683 
L 201.609736 366.583767 
L 202.133495 360.70367 
L 202.994591 347.982164 
L 204.255164 330.314211 
L 204.912082 320.333062 
L 205.169523 312.639671 
L 205.338191 300.124443 
L 205.462473 270.068506 
L 205.569 165.442294 
L 205.657773 92.476927 
L 205.719914 103.867508 
L 206.332445 331.792665 
L 206.518868 368.486895 
L 206.581009 368.89023 
L 206.634273 368.720834 
L 206.873959 366.899111 
L 207.388841 361.267179 
L 208.187795 349.613417 
L 209.510509 330.881145 
L 210.202936 320.500613 
L 210.460377 312.996113 
L 210.629045 301.091287 
L 210.753327 273.548617 
L 210.850977 190.703186 
L 210.957505 92.461647 
L 211.019645 104.122786 
L 211.641055 336.070225 
L 211.827477 368.633107 
L 211.880741 368.889703 
L 211.934005 368.716619 
L 212.182568 366.811647 
L 212.69745 361.142569 
L 213.514159 349.189006 
L 214.810241 330.870344 
L 215.502668 320.483489 
L 215.760109 312.960021 
L 215.928777 300.994603 
L 216.053059 273.207982 
L 216.150709 189.51979 
L 216.257236 92.455325 
L 216.319377 104.377538 
L 216.949664 340.190772 
L 217.127209 368.643645 
L 217.171595 368.89023 
L 217.233736 368.712404 
L 217.4823 366.80427 
L 217.997182 361.132032 
L 218.822768 349.039106 
L 220.101095 330.974931 
L 220.8024 320.466365 
L 221.059841 312.924192 
L 221.228509 300.898182 
L 221.352791 272.866031 
L 221.450441 188.336974 
L 221.556968 92.455852 
L 221.610232 101.962009 
L 222.151745 297.789265 
L 222.426941 368.653656 
L 222.471327 368.890493 
L 222.533468 368.708189 
L 222.782032 366.796894 
L 223.296914 361.121494 
L 224.1225 349.026197 
L 225.418582 330.733615 
L 226.111009 320.263512 
L 226.36845 312.489771 
L 226.537118 299.709517 
L 226.652523 272.521444 
L 226.750173 187.149442 
L 226.8567 92.461911 
L 226.909964 102.200427 
L 227.460355 301.775454 
L 227.726673 368.663403 
L 227.771059 368.89102 
L 227.8332 368.703974 
L 228.090641 366.70864 
L 228.605523 360.996357 
L 229.439986 348.739569 
L 230.718314 330.722814 
L 231.401864 320.432117 
L 231.659305 312.851745 
L 231.827973 300.704023 
L 231.952255 272.174487 
L 232.049905 185.961699 
L 232.156432 92.47482 
L 232.209695 102.438581 
L 232.768964 305.864651 
L 233.017527 368.5546 
L 233.070791 368.89102 
L 233.132932 368.699759 
L 233.390373 366.701263 
L 233.905255 360.985819 
L 234.739718 348.726923 
L 236.018045 330.712276 
L 236.701595 320.415257 
L 236.959036 312.815916 
L 237.127705 300.606548 
L 237.251986 271.824368 
L 237.349636 184.767159 
L 237.456164 92.493261 
L 237.509427 102.679106 
L 238.077573 310.056591 
L 238.317259 368.566719 
L 238.370523 368.891283 
L 238.432664 368.695544 
L 238.690105 366.693887 
L 239.204986 360.975282 
L 240.03945 348.714542 
L 241.317777 330.701739 
L 242.001327 320.398396 
L 242.258768 312.779561 
L 242.427436 300.507493 
L 242.551718 271.466083 
L 242.649368 183.554099 
L 242.755895 92.518815 
L 242.809159 102.922793 
L 243.386182 314.34021 
L 243.616991 368.578837 
L 243.670255 368.891283 
L 243.732395 368.691065 
L 243.989836 366.68651 
L 244.504718 360.964744 
L 245.348059 348.564905 
L 246.617509 330.690937 
L 247.301059 320.381272 
L 247.5585 312.742942 
L 247.727168 300.40712 
L 247.85145 271.103846 
L 247.9491 182.337852 
L 248.055627 92.550165 
L 248.108891 103.168851 
L 248.694791 318.696277 
L 248.907845 368.445534 
L 248.969986 368.89102 
L 249.032127 368.68685 
L 249.298445 366.597466 
L 249.822205 360.723165 
L 250.692177 347.868355 
L 251.943873 330.333442 
L 252.600791 320.363885 
L 252.858232 312.70606 
L 253.0269 300.30622 
L 253.151182 270.736866 
L 253.257709 167.698096 
L 253.346482 92.521449 
L 253.408623 103.418334 
L 254.0034 323.098446 
L 254.207577 368.460814 
L 254.269718 368.890757 
L 254.331859 368.682371 
L 254.598177 366.589826 
L 255.121936 360.7121 
L 255.983032 347.992175 
L 257.22585 330.553946 
L 257.900523 320.346761 
L 258.157964 312.668914 
L 258.326632 300.204267 
L 258.450914 270.362511 
L 258.557441 166.4275 
L 258.646214 92.493524 
L 258.708355 103.671505 
L 259.312009 327.508256 
L 259.507309 368.475567 
L 259.56945 368.890493 
L 259.631591 368.677629 
L 259.897909 366.581923 
L 260.421668 360.701299 
L 261.291641 347.842801 
L 262.525582 330.543145 
L 263.200255 320.32911 
L 263.457695 312.631241 
L 263.626364 300.100733 
L 263.750645 269.981042 
L 263.857173 165.150476 
L 263.945945 92.472712 
L 264.008086 103.925729 
L 264.620618 331.877758 
L 264.807041 368.49032 
L 264.869182 368.889966 
L 264.922445 368.720044 
L 265.171009 366.817443 
L 265.685891 361.151 
L 266.511477 349.061762 
L 267.807559 330.763385 
L 268.499986 320.311723 
L 268.757427 312.593569 
L 268.926095 299.997199 
L 269.050377 269.599573 
L 269.156905 163.882962 
L 269.245677 92.45954 
L 269.298941 101.541814 
L 269.8227 290.201779 
L 270.133405 368.802502 
L 270.168914 368.889703 
L 270.222177 368.715829 
L 270.470741 366.810066 
L 270.985623 361.140198 
L 271.802332 349.186108 
L 273.098414 330.867973 
L 273.790841 320.479537 
L 274.048282 312.951854 
L 274.21695 300.972737 
L 274.341232 273.130003 
L 274.438882 189.249074 
L 274.545409 92.455061 
L 274.598673 101.778651 
L 275.131309 293.982482 
L 275.424259 368.740329 
L 275.459768 368.89023 
L 275.521909 368.711614 
L 275.770473 366.80269 
L 276.285355 361.129661 
L 277.110941 349.036208 
L 278.389268 330.97256 
L 279.090573 320.462414 
L 279.348014 312.915762 
L 279.516682 300.876052 
L 279.640964 272.787524 
L 279.738614 188.066152 
L 279.845141 92.456378 
L 279.898405 102.016542 
L 280.439918 297.865401 
L 280.715114 368.655763 
L 280.7595 368.890757 
L 280.821641 368.707399 
L 281.079082 366.714436 
L 281.593964 361.004524 
L 282.428427 348.749316 
L 283.706755 330.730981 
L 284.390305 320.44529 
L 284.647745 312.87967 
L 284.816414 300.779105 
L 284.940695 272.442411 
L 285.038345 186.878515 
L 285.144873 92.464282 
L 285.198136 102.254696 
L 285.748527 301.852644 
L 286.014845 368.665511 
L 286.059232 368.89102 
L 286.121373 368.70292 
L 286.378814 366.707059 
L 286.893695 360.993986 
L 287.728159 348.736671 
L 289.006486 330.720443 
L 289.690036 320.428429 
L 289.947477 312.843578 
L 290.116145 300.681893 
L 290.240427 272.094926 
L 290.338077 185.689876 
L 290.444605 92.478508 
L 290.497868 102.493114 
L 291.057136 305.944211 
L 291.3057 368.557498 
L 291.358964 368.891283 
L 291.421105 368.698705 
L 291.678545 366.699683 
L 292.193427 360.983448 
L 293.027891 348.724026 
L 294.315095 330.594253 
L 294.989768 320.411305 
L 295.247209 312.807486 
L 295.415877 300.584155 
L 295.540159 271.743227 
L 295.637809 184.491411 
L 295.744336 92.49853 
L 295.7976 102.73443 
L 296.365745 310.138259 
L 296.605432 368.569617 
L 296.658695 368.891283 
L 296.720836 368.69449 
L 296.978277 366.692306 
L 297.493159 360.972911 
L 298.327623 348.711644 
L 299.60595 330.699368 
L 300.2895 320.394445 
L 300.546941 312.771131 
L 300.715609 300.484573 
L 300.839891 271.383888 
L 300.937541 183.278009 
L 301.044068 92.525401 
L 301.097332 102.97838 
L 301.674355 314.423196 
L 301.905164 368.581472 
L 301.958427 368.891283 
L 302.020568 368.690275 
L 302.286886 366.603262 
L 302.810645 360.731331 
L 303.671741 348.014831 
L 304.914559 330.573177 
L 305.589232 320.377321 
L 305.846673 312.734512 
L 306.015341 300.384464 
L 306.139623 271.021124 
L 306.24615 168.673318 
L 306.334923 92.547531 
L 306.397064 103.225228 
L 306.982964 318.781106 
L 307.196018 368.448959 
L 307.258159 368.89102 
L 307.3203 368.685796 
L 307.586618 366.595622 
L 308.110377 360.72053 
L 308.971473 348.002186 
L 310.214291 330.562376 
L 310.888964 320.360197 
L 311.146405 312.697629 
L 311.315073 300.283301 
L 311.439355 270.6523 
L 311.545882 167.41044 
L 311.634655 92.5146 
L 311.696795 103.475501 
L 312.291573 323.184329 
L 312.49575 368.464239 
L 312.557891 368.890757 
L 312.620032 368.681318 
L 312.88635 366.587982 
L 313.410109 360.709729 
L 314.280082 347.852549 
L 315.531777 330.320006 
L 316.188695 320.342546 
L 316.446136 312.66022 
L 316.614805 300.18082 
L 316.739086 270.276628 
L 316.845614 166.137315 
L 316.934386 92.488255 
L 316.996527 103.729199 
L 317.600182 327.594402 
L 317.795482 368.478992 
L 317.857623 368.890493 
L 317.910886 368.723205 
L 318.150573 366.903062 
L 318.665455 361.272975 
L 319.464409 349.620266 
L 320.787123 330.887204 
L 321.488427 320.325159 
L 321.745868 312.622547 
L 321.914536 300.077023 
L 322.038818 269.893842 
L 322.145345 164.860054 
L 322.234118 92.469024 
L 322.296259 103.983951 
L 322.908791 331.962587 
L 323.095214 368.493745 
L 323.157355 368.889966 
L 323.210618 368.71899 
L 323.459182 366.815862 
L 323.974064 361.148365 
L 324.790773 349.195856 
L 326.095732 330.76075 
L 326.779282 320.49271 
L 327.036723 312.979779 
L 327.205391 301.047292 
L 327.329673 273.393448 
L 327.427323 190.16365 
L 327.53385 92.457696 
L 327.595991 104.238966 
L 328.2174 336.234088 
L 328.403823 368.637849 
L 328.457086 368.889439 
L 328.51035 368.714775 
L 328.758914 366.808222 
L 329.273795 361.137827 
L 329.318182 360.560619 
L 329.335936 361.46529 
L 329.531236 365.477033 
L 329.620009 365.665924 
L 329.664395 365.608229 
L 329.815309 364.99809 
L 330.214786 362.165791 
L 332.176664 347.328293 
L 332.869091 344.088707 
L 333.428359 342.42426 
L 333.889977 341.67713 
L 334.262823 341.448986 
L 334.609036 341.485868 
L 335.061777 341.776448 
L 336.553159 342.87238 
L 337.156814 342.969592 
L 338.097805 342.858945 
L 339.580309 342.663468 
L 342.092577 342.699824 
L 435.845455 342.69798 
L 435.845455 342.69798 
" style="fill:none;stroke:#1f77b4;stroke-linecap:square;stroke-width:1.5;"/>
   </g>
   <g id="line2d_14">
    <path clip-path="url(#p11a9749bc5)" d="M 80.754545 342.767266 
L 82.263682 342.687836 
L 112.055809 342.727634 
L 151.772727 342.727634 
L 152.314241 298.033687 
L 152.420768 249.22693 
L 152.562805 66.96 
L 152.678209 92.267321 
L 153.565936 369.36 
L 153.610323 369.259776 
L 153.8145 367.878411 
L 154.293873 363.113757 
L 154.959668 353.966387 
L 157.42755 314.927861 
L 157.613973 303.770172 
L 157.738255 281.761343 
L 157.835905 219.106959 
L 157.969064 91.408348 
L 158.031205 104.57009 
L 158.883423 368.934415 
L 158.954441 368.704105 
L 159.238514 366.441761 
L 159.762273 360.504108 
L 160.65 347.340226 
L 161.883941 330.104454 
L 162.523105 320.322778 
L 162.780545 312.566477 
L 162.949214 299.85713 
L 163.073495 268.981606 
L 163.180023 161.659993 
L 163.268795 92.335883 
L 163.322059 101.842105 
L 163.863573 297.648166 
L 164.147645 368.755288 
L 164.183155 368.902427 
L 164.245295 368.722038 
L 164.493859 366.81492 
L 165.008741 361.148175 
L 165.82545 349.197486 
L 167.130409 330.759279 
L 167.813959 320.472839 
L 168.0714 312.91804 
L 168.240068 300.856411 
L 168.36435 272.679207 
L 168.462 187.623914 
L 168.568527 92.412142 
L 168.621791 102.064529 
L 169.172182 301.612668 
L 169.4385 368.668541 
L 169.482886 368.900435 
L 169.545027 368.715974 
L 169.802468 366.725076 
L 170.31735 361.020492 
L 171.142936 348.907413 
L 172.430141 330.746477 
L 173.113691 320.454535 
L 173.371132 312.881469 
L 173.5398 300.760784 
L 173.664082 272.342249 
L 173.761732 186.473651 
L 173.868259 92.427713 
L 173.921523 102.300238 
L 174.480791 305.696084 
L 174.729355 368.557972 
L 174.782618 368.900505 
L 174.844759 368.711625 
L 175.1022 366.71755 
L 175.617082 361.009819 
L 176.442668 348.894663 
L 177.729873 330.73578 
L 178.413423 320.437581 
L 178.670864 312.845704 
L 178.839532 300.664618 
L 178.963814 271.998124 
L 179.061464 185.297471 
L 179.167991 92.443763 
L 179.221255 102.536988 
L 179.7894 309.88062 
L 180.029086 368.570354 
L 180.08235 368.900652 
L 180.144491 368.707418 
L 180.401932 366.710221 
L 180.916814 360.999428 
L 181.751277 348.745226 
L 183.029605 330.725319 
L 183.713155 320.420801 
L 183.970595 312.809909 
L 184.139264 300.567367 
L 184.263545 271.648002 
L 184.361195 184.106536 
L 184.467723 92.466318 
L 184.520986 102.776543 
L 185.098009 314.156441 
L 185.328818 368.582315 
L 185.382082 368.900643 
L 185.444223 368.703142 
L 185.701664 366.702852 
L 186.216545 360.988983 
L 187.051009 348.732759 
L 188.329336 330.714799 
L 189.012886 320.403914 
L 189.270327 312.773764 
L 189.438995 300.468576 
L 189.563277 271.290588 
L 189.660927 182.902063 
L 189.767455 92.494572 
L 189.820718 103.019085 
L 190.406618 318.506452 
L 190.619673 368.447061 
L 190.681814 368.900599 
L 190.743955 368.698847 
L 191.010273 366.614073 
L 191.534032 360.747789 
L 192.395127 348.036051 
L 193.646823 330.472961 
L 194.312618 320.386962 
L 194.570059 312.737434 
L 194.738727 300.369142 
L 194.863009 270.930053 
L 194.969536 168.288881 
L 195.058309 92.495656 
L 195.12045 103.264266 
L 195.70635 318.875919 
L 195.919405 368.462384 
L 195.981545 368.900442 
L 196.043686 368.694468 
L 196.310005 366.606531 
L 196.833764 360.737097 
L 197.694859 348.023442 
L 198.946555 330.462293 
L 199.61235 320.369834 
L 199.869791 312.700722 
L 200.038459 300.268528 
L 200.162741 270.562806 
L 200.269268 167.034333 
L 200.358041 92.465208 
L 200.420182 103.513514 
L 201.014959 323.278007 
L 201.219136 368.477316 
L 201.281277 368.900137 
L 201.343418 368.69 
L 201.609736 366.598908 
L 202.133495 360.726293 
L 202.994591 348.010707 
L 204.246286 330.451503 
L 204.912082 320.352502 
L 205.169523 312.663545 
L 205.338191 300.166368 
L 205.462473 270.187084 
L 205.569 165.766218 
L 205.657773 92.441072 
L 205.719914 103.765928 
L 206.323568 327.686349 
L 206.518868 368.492014 
L 206.581009 368.899763 
L 206.634273 368.732022 
L 206.873959 366.913687 
L 207.379964 361.402413 
L 208.170041 349.916197 
L 209.510509 330.903041 
L 210.211814 320.335063 
L 210.469255 312.626017 
L 210.637923 300.062847 
L 210.762205 269.805543 
L 210.868732 164.493363 
L 210.957505 92.423963 
L 211.019645 104.020406 
L 211.632177 332.053743 
L 211.8186 368.506542 
L 211.880741 368.899355 
L 211.934005 368.727853 
L 212.182568 366.826579 
L 212.69745 361.164812 
L 213.514159 349.217525 
L 214.819118 330.776774 
L 215.511545 320.317658 
L 215.768986 312.588528 
L 215.937655 299.959247 
L 216.061936 269.423132 
L 216.168464 163.229952 
L 216.257236 92.415099 
L 216.3105 101.62709 
L 216.834259 290.344278 
L 217.144964 368.814308 
L 217.180473 368.898815 
L 217.233736 368.72362 
L 217.4823 366.819078 
L 217.997182 361.154125 
L 218.813891 349.204677 
L 220.11885 330.765954 
L 220.8024 320.485664 
L 221.059841 312.9474 
L 221.228509 300.938023 
L 221.352791 272.973067 
L 221.450441 188.645254 
L 221.556968 92.41433 
L 221.610232 101.864852 
L 222.151745 297.683598 
L 222.435818 368.753159 
L 222.471327 368.89997 
L 222.533468 368.719361 
L 222.782032 366.811612 
L 223.296914 361.143492 
L 224.113623 349.1919 
L 225.418582 330.755196 
L 226.102132 320.468605 
L 226.359573 312.911414 
L 226.528241 300.841466 
L 226.652523 272.630271 
L 226.750173 187.463304 
L 226.8567 92.418849 
L 226.909964 102.102423 
L 227.460355 301.66706 
L 227.726673 368.669875 
L 227.771059 368.900297 
L 227.8332 368.715134 
L 228.090641 366.7237 
L 228.605523 361.018543 
L 229.431109 348.905086 
L 230.718314 330.744562 
L 231.401864 320.451642 
L 231.659305 312.875512 
L 231.827973 300.744969 
L 231.952255 272.28609 
L 232.049905 186.282145 
L 232.156432 92.430442 
L 232.209695 102.339109 
L 232.768964 305.752712 
L 233.017527 368.560032 
L 233.070791 368.900527 
L 233.132932 368.710923 
L 233.390373 366.716328 
L 233.905255 361.008086 
L 234.730841 348.892593 
L 236.018045 330.734041 
L 236.701595 320.434807 
L 236.959036 312.839834 
L 237.127705 300.648761 
L 237.251986 271.941273 
L 237.349636 185.10351 
L 237.456164 92.446978 
L 237.509427 102.576106 
L 238.077573 309.938524 
L 238.317259 368.57233 
L 238.370523 368.900655 
L 238.432664 368.706718 
L 238.690105 366.709014 
L 239.204986 360.997716 
L 240.03945 348.743183 
L 241.317777 330.723594 
L 242.001327 320.41803 
L 242.258768 312.803977 
L 242.427436 300.551159 
L 242.551718 271.589389 
L 242.649368 183.907613 
L 242.755895 92.470584 
L 242.809159 102.816499 
L 243.386182 314.216247 
L 243.616991 368.584285 
L 243.670255 368.900637 
L 243.732395 368.702432 
L 243.989836 366.701629 
L 244.504718 360.987249 
L 245.339182 348.730691 
L 246.617509 330.713053 
L 247.301059 320.401109 
L 247.5585 312.767755 
L 247.727168 300.45214 
L 247.85145 271.231083 
L 247.9491 182.702204 
L 248.055627 92.499822 
L 248.108891 103.059591 
L 248.694791 318.567572 
L 248.907845 368.449623 
L 248.969986 368.900584 
L 249.032127 368.69813 
L 249.298445 366.612833 
L 249.822205 360.74603 
L 250.6833 348.033977 
L 251.934995 330.471205 
L 252.600791 320.384146 
L 252.858232 312.731398 
L 253.0269 300.352617 
L 253.151182 270.869933 
L 253.257709 168.082422 
L 253.346482 92.490176 
L 253.408623 103.305185 
L 254.0034 322.96502 
L 254.207577 368.46487 
L 254.269718 368.900398 
L 254.331859 368.693734 
L 254.598177 366.605276 
L 255.121936 360.735317 
L 255.983032 348.021344 
L 257.234727 330.460518 
L 257.900523 320.366985 
L 258.157964 312.694616 
L 258.326632 300.251761 
L 258.450914 270.501336 
L 258.557441 166.825525 
L 258.646214 92.460742 
L 258.708355 103.555158 
L 259.312009 327.372941 
L 259.507309 368.479766 
L 259.56945 368.900076 
L 259.631591 368.689253 
L 259.897909 366.597638 
L 260.421668 360.724494 
L 261.282764 348.008587 
L 262.534459 330.449705 
L 263.200255 320.34961 
L 263.457695 312.657334 
L 263.626364 300.149282 
L 263.750645 270.124163 
L 263.857173 165.556001 
L 263.945945 92.437787 
L 264.008086 103.807723 
L 264.611741 327.748367 
L 264.807041 368.494425 
L 264.869182 368.899703 
L 264.922445 368.731339 
L 265.162132 366.912471 
L 265.668136 361.400681 
L 266.458214 349.914093 
L 267.798682 330.901268 
L 268.499986 320.332198 
L 268.757427 312.619844 
L 268.926095 300.045791 
L 269.050377 269.742627 
L 269.156905 164.284184 
L 269.245677 92.421874 
L 269.307818 104.062551 
L 269.929227 336.022963 
L 270.11565 368.641025 
L 270.168914 368.899274 
L 270.222177 368.727156 
L 270.470741 366.825339 
L 270.985623 361.163044 
L 271.802332 349.215399 
L 273.107291 330.774983 
L 273.799718 320.314773 
L 274.057159 312.582313 
L 274.225827 299.942065 
L 274.350109 269.359642 
L 274.456636 163.022435 
L 274.545409 92.414627 
L 274.598673 101.66627 
L 275.131309 293.857577 
L 275.424259 368.747023 
L 275.468645 368.89871 
L 275.521909 368.722919 
L 275.770473 366.817846 
L 276.285355 361.152369 
L 277.102064 349.202567 
L 278.407023 330.764178 
L 279.090573 320.482852 
L 279.348014 312.941475 
L 279.516682 300.922137 
L 279.640964 272.916766 
L 279.738614 188.450899 
L 279.845141 92.414709 
L 279.898405 101.903946 
L 280.439918 297.738406 
L 280.723991 368.754357 
L 280.7595 368.90003 
L 280.821641 368.718663 
L 281.070205 366.810391 
L 281.585086 361.141753 
L 282.401795 349.18981 
L 283.706755 330.753437 
L 284.390305 320.465803 
L 284.647745 312.905486 
L 284.816414 300.825542 
L 284.940695 272.573542 
L 285.038345 187.267761 
L 285.144873 92.420271 
L 285.198136 102.141656 
L 285.748527 301.723084 
L 286.014845 368.671466 
L 286.059232 368.900336 
L 286.121373 368.714432 
L 286.378814 366.722471 
L 286.893695 361.0168 
L 287.719282 348.903003 
L 289.006486 330.742807 
L 289.690036 320.448841 
L 289.947477 312.869578 
L 290.116145 300.729008 
L 290.240427 272.228929 
L 290.338077 186.08654 
L 290.444605 92.432827 
L 290.497868 102.378335 
L 291.057136 305.809821 
L 291.3057 368.562122 
L 291.358964 368.900564 
L 291.421105 368.710228 
L 291.678545 366.715112 
L 292.193427 361.006362 
L 293.019014 348.890534 
L 294.306218 330.732307 
L 294.989768 320.432026 
L 295.247209 312.833912 
L 295.415877 300.632733 
L 295.540159 271.883759 
L 295.637809 184.907365 
L 295.744336 92.450429 
L 295.7976 102.615634 
L 296.365745 309.996982 
L 296.605432 368.574317 
L 296.658695 368.900656 
L 296.720836 368.706011 
L 296.978277 366.707794 
L 297.493159 360.995987 
L 298.327623 348.741119 
L 299.60595 330.721851 
L 300.2895 320.415232 
L 300.546941 312.797989 
L 300.715609 300.534798 
L 300.839891 271.530211 
L 300.937541 183.707726 
L 301.044068 92.475017 
L 301.097332 102.856634 
L 301.674355 314.276327 
L 301.905164 368.586261 
L 301.958427 368.900632 
L 302.020568 368.70172 
L 302.286886 366.619053 
L 302.810645 360.754852 
L 303.671741 348.044385 
L 304.923436 330.480021 
L 305.589232 320.398294 
L 305.846673 312.761722 
L 306.015341 300.43563 
L 306.139623 271.17129 
L 306.237273 182.501432 
L 306.3438 92.505301 
L 306.397064 103.100327 
L 306.982964 318.629045 
L 307.196018 368.452188 
L 307.258159 368.900564 
L 307.3203 368.697405 
L 307.586618 366.611581 
L 308.110377 360.744256 
L 308.971473 348.031884 
L 310.223168 330.469434 
L 310.888964 320.381299 
L 311.146405 312.725294 
L 311.315073 300.335896 
L 311.439355 270.809088 
L 311.545882 167.873888 
L 311.634655 92.484764 
L 311.696795 103.346539 
L 312.291573 323.027311 
L 312.49575 368.467373 
L 312.557891 368.900354 
L 312.620032 368.692995 
L 312.88635 366.604011 
L 313.410109 360.733525 
L 314.271205 348.019231 
L 315.5229 330.458729 
L 316.188695 320.364112 
L 316.446136 312.688456 
L 316.614805 300.234841 
L 316.739086 270.439102 
L 316.845614 166.614574 
L 316.934386 92.45631 
L 316.996527 103.597148 
L 317.600182 327.435458 
L 317.795482 368.482223 
L 317.857623 368.900017 
L 317.919764 368.688504 
L 318.186082 366.596365 
L 318.709841 360.722689 
L 319.570936 348.00646 
L 320.822632 330.447901 
L 321.488427 320.346704 
L 321.745868 312.651084 
L 321.914536 300.13206 
L 322.038818 270.060713 
L 322.145345 165.344121 
L 322.234118 92.434646 
L 322.296259 103.849933 
L 322.908791 331.80506 
L 323.095214 368.496852 
L 323.157355 368.89964 
L 323.210618 368.73065 
L 323.459182 366.831581 
L 323.974064 361.171941 
L 324.790773 349.226098 
L 326.095732 330.784 
L 326.788159 320.32931 
L 327.0456 312.613622 
L 327.214268 300.0286 
L 327.33855 269.679206 
L 327.445077 164.073958 
L 327.53385 92.420029 
L 327.587114 101.468299 
L 328.101995 286.758012 
L 328.421577 368.810718 
L 328.457086 368.899189 
L 328.51035 368.726453 
L 328.758914 366.82409 
L 329.273795 361.161265 
L 329.318182 360.584722 
L 329.335936 361.48966 
L 329.531236 365.50357 
L 329.620009 365.693755 
L 329.664395 365.63665 
L 329.815309 365.02897 
L 330.205909 362.274693 
L 332.185541 347.325101 
L 332.869091 344.130509 
L 333.428359 342.460756 
L 333.889977 341.709553 
L 334.262823 341.47792 
L 334.617914 341.515496 
L 335.088409 341.82276 
L 336.51765 342.887196 
L 337.139059 342.997948 
L 338.026786 342.901376 
L 339.891014 342.68254 
L 342.438791 342.734896 
L 350.889955 342.727647 
L 435.845455 342.727634 
L 435.845455 342.727634 
" style="fill:none;stroke:#ff0000;stroke-linecap:square;stroke-width:1.5;"/>
   </g>
   <g id="patch_3">
    <path d="M 63 384.48 
L 63 51.84 
" style="fill:none;stroke:#000000;stroke-linecap:square;stroke-linejoin:miter;stroke-width:0.8;"/>
   </g>
   <g id="patch_4">
    <path d="M 453.6 384.48 
L 453.6 51.84 
" style="fill:none;stroke:#000000;stroke-linecap:square;stroke-linejoin:miter;stroke-width:0.8;"/>
   </g>
   <g id="patch_5">
    <path d="M 63 384.48 
L 453.6 384.48 
" style="fill:none;stroke:#000000;stroke-linecap:square;stroke-linejoin:miter;stroke-width:0.8;"/>
   </g>
   <g id="patch_6">
    <path d="M 63 51.84 
L 453.6 51.84 
" style="fill:none;stroke:#000000;stroke-linecap:square;stroke-linejoin:miter;stroke-width:0.8;"/>
   </g>
   <g id="legend_1">
    <g id="patch_7">
     <path d="M 383.460938 89.19625 
L 446.6 89.19625 
Q 448.6 89.19625 448.6 87.19625 
L 448.6 58.84 
Q 448.6 56.84 446.6 56.84 
L 383.460938 56.84 
Q 381.460938 56.84 381.460938 58.84 
L 381.460938 87.19625 
Q 381.460938 89.19625 383.460938 89.19625 
z
" style="fill:#ffffff;opacity:0.8;stroke:#cccccc;stroke-linejoin:miter;"/>
    </g>
    <g id="line2d_15">
     <path d="M 385.460938 64.938437 
L 405.460938 64.938437 
" style="fill:none;stroke:#1f77b4;stroke-linecap:square;stroke-width:1.5;"/>
    </g>
    <g id="line2d_16"/>
    <g id="text_15">
     <!-- target -->
     <defs>
      <path d="M 41.109375 46.296875 
Q 39.59375 47.171875 37.8125 47.578125 
Q 36.03125 48 33.890625 48 
Q 26.265625 48 22.1875 43.046875 
Q 18.109375 38.09375 18.109375 28.8125 
L 18.109375 0 
L 9.078125 0 
L 9.078125 54.6875 
L 18.109375 54.6875 
L 18.109375 46.1875 
Q 20.953125 51.171875 25.484375 53.578125 
Q 30.03125 56 36.53125 56 
Q 37.453125 56 38.578125 55.875 
Q 39.703125 55.765625 41.0625 55.515625 
z
" id="DejaVuSans-72"/>
     </defs>
     <g transform="translate(413.460938 68.438437)scale(0.1 -0.1)">
      <use xlink:href="#DejaVuSans-74"/>
      <use x="39.208984" xlink:href="#DejaVuSans-61"/>
      <use x="100.488281" xlink:href="#DejaVuSans-72"/>
      <use x="141.585938" xlink:href="#DejaVuSans-67"/>
      <use x="205.0625" xlink:href="#DejaVuSans-65"/>
      <use x="266.585938" xlink:href="#DejaVuSans-74"/>
     </g>
    </g>
    <g id="line2d_17">
     <path d="M 385.460938 79.616562 
L 405.460938 79.616562 
" style="fill:none;stroke:#ff0000;stroke-linecap:square;stroke-width:1.5;"/>
    </g>
    <g id="line2d_18"/>
    <g id="text_16">
     <!-- model -->
     <defs>
      <path d="M 45.40625 46.390625 
L 45.40625 75.984375 
L 54.390625 75.984375 
L 54.390625 0 
L 45.40625 0 
L 45.40625 8.203125 
Q 42.578125 3.328125 38.25 0.953125 
Q 33.9375 -1.421875 27.875 -1.421875 
Q 17.96875 -1.421875 11.734375 6.484375 
Q 5.515625 14.40625 5.515625 27.296875 
Q 5.515625 40.1875 11.734375 48.09375 
Q 17.96875 56 27.875 56 
Q 33.9375 56 38.25 53.625 
Q 42.578125 51.265625 45.40625 46.390625 
z
M 14.796875 27.296875 
Q 14.796875 17.390625 18.875 11.75 
Q 22.953125 6.109375 30.078125 6.109375 
Q 37.203125 6.109375 41.296875 11.75 
Q 45.40625 17.390625 45.40625 27.296875 
Q 45.40625 37.203125 41.296875 42.84375 
Q 37.203125 48.484375 30.078125 48.484375 
Q 22.953125 48.484375 18.875 42.84375 
Q 14.796875 37.203125 14.796875 27.296875 
z
" id="DejaVuSans-64"/>
     </defs>
     <g transform="translate(413.460938 83.116562)scale(0.1 -0.1)">
      <use xlink:href="#DejaVuSans-6d"/>
      <use x="97.412109" xlink:href="#DejaVuSans-6f"/>
      <use x="158.59375" xlink:href="#DejaVuSans-64"/>
      <use x="222.070312" xlink:href="#DejaVuSans-65"/>
      <use x="283.59375" xlink:href="#DejaVuSans-6c"/>
     </g>
    </g>
   </g>
  </g>
 </g>
 <defs>
  <clipPath id="p11a9749bc5">
   <rect height="332.64" width="390.6" x="63" y="51.84"/>
  </clipPath>
 </defs>
</svg>
