<?xml version="1.0" encoding="utf-8" standalone="no"?>
<!DOCTYPE svg PUBLIC "-//W3C//DTD SVG 1.1//EN"
  "http://www.w3.org/Graphics/SVG/1.1/DTD/svg11.dtd">
<!-- Created with matplotlib (https://matplotlib.org/) -->
<svg height="432pt" version="1.1" viewBox="0 0 504 432" width="504pt" xmlns="http://www.w3.org/2000/svg" xmlns:xlink="http://www.w3.org/1999/xlink">
 <defs>
  <style type="text/css">
*{stroke-linecap:butt;stroke-linejoin:round;}
  </style>
 </defs>
 <g id="figure_1">
  <g id="patch_1">
   <path d="M 0 432 
L 504 432 
L 504 0 
L 0 0 
z
" style="fill:#ffffff;"/>
  </g>
  <g id="axes_1">
   <g id="patch_2">
    <path d="M 63 384.48 
L 453.6 384.48 
L 453.6 51.84 
L 63 51.84 
z
" style="fill:#ffffff;"/>
   </g>
   <g id="matplotlib.axis_1">
    <g id="xtick_1">
     <g id="line2d_1">
      <defs>
       <path d="M 0 0 
L 0 3.5 
" id="m3e12be23c1" style="stroke:#000000;stroke-width:0.8;"/>
      </defs>
      <g>
       <use style="stroke:#000000;stroke-width:0.8;" x="80.754545" xlink:href="#m3e12be23c1" y="384.48"/>
      </g>
     </g>
     <g id="text_1">
      <!-- 0 -->
      <defs>
       <path d="M 31.78125 66.40625 
Q 24.171875 66.40625 20.328125 58.90625 
Q 16.5 51.421875 16.5 36.375 
Q 16.5 21.390625 20.328125 13.890625 
Q 24.171875 6.390625 31.78125 6.390625 
Q 39.453125 6.390625 43.28125 13.890625 
Q 47.125 21.390625 47.125 36.375 
Q 47.125 51.421875 43.28125 58.90625 
Q 39.453125 66.40625 31.78125 66.40625 
z
M 31.78125 74.21875 
Q 44.046875 74.21875 50.515625 64.515625 
Q 56.984375 54.828125 56.984375 36.375 
Q 56.984375 17.96875 50.515625 8.265625 
Q 44.046875 -1.421875 31.78125 -1.421875 
Q 19.53125 -1.421875 13.0625 8.265625 
Q 6.59375 17.96875 6.59375 36.375 
Q 6.59375 54.828125 13.0625 64.515625 
Q 19.53125 74.21875 31.78125 74.21875 
z
" id="DejaVuSans-48"/>
      </defs>
      <g transform="translate(77.573295 399.078438)scale(0.1 -0.1)">
       <use xlink:href="#DejaVuSans-48"/>
      </g>
     </g>
    </g>
    <g id="xtick_2">
     <g id="line2d_2">
      <g>
       <use style="stroke:#000000;stroke-width:0.8;" x="151.772727" xlink:href="#m3e12be23c1" y="384.48"/>
      </g>
     </g>
     <g id="text_2">
      <!-- 200 -->
      <defs>
       <path d="M 19.1875 8.296875 
L 53.609375 8.296875 
L 53.609375 0 
L 7.328125 0 
L 7.328125 8.296875 
Q 12.9375 14.109375 22.625 23.890625 
Q 32.328125 33.6875 34.8125 36.53125 
Q 39.546875 41.84375 41.421875 45.53125 
Q 43.3125 49.21875 43.3125 52.78125 
Q 43.3125 58.59375 39.234375 62.25 
Q 35.15625 65.921875 28.609375 65.921875 
Q 23.96875 65.921875 18.8125 64.3125 
Q 13.671875 62.703125 7.8125 59.421875 
L 7.8125 69.390625 
Q 13.765625 71.78125 18.9375 73 
Q 24.125 74.21875 28.421875 74.21875 
Q 39.75 74.21875 46.484375 68.546875 
Q 53.21875 62.890625 53.21875 53.421875 
Q 53.21875 48.921875 51.53125 44.890625 
Q 49.859375 40.875 45.40625 35.40625 
Q 44.1875 33.984375 37.640625 27.21875 
Q 31.109375 20.453125 19.1875 8.296875 
z
" id="DejaVuSans-50"/>
      </defs>
      <g transform="translate(142.228977 399.078438)scale(0.1 -0.1)">
       <use xlink:href="#DejaVuSans-50"/>
       <use x="63.623047" xlink:href="#DejaVuSans-48"/>
       <use x="127.246094" xlink:href="#DejaVuSans-48"/>
      </g>
     </g>
    </g>
    <g id="xtick_3">
     <g id="line2d_3">
      <g>
       <use style="stroke:#000000;stroke-width:0.8;" x="222.790909" xlink:href="#m3e12be23c1" y="384.48"/>
      </g>
     </g>
     <g id="text_3">
      <!-- 400 -->
      <defs>
       <path d="M 37.796875 64.3125 
L 12.890625 25.390625 
L 37.796875 25.390625 
z
M 35.203125 72.90625 
L 47.609375 72.90625 
L 47.609375 25.390625 
L 58.015625 25.390625 
L 58.015625 17.1875 
L 47.609375 17.1875 
L 47.609375 0 
L 37.796875 0 
L 37.796875 17.1875 
L 4.890625 17.1875 
L 4.890625 26.703125 
z
" id="DejaVuSans-52"/>
      </defs>
      <g transform="translate(213.247159 399.078438)scale(0.1 -0.1)">
       <use xlink:href="#DejaVuSans-52"/>
       <use x="63.623047" xlink:href="#DejaVuSans-48"/>
       <use x="127.246094" xlink:href="#DejaVuSans-48"/>
      </g>
     </g>
    </g>
    <g id="xtick_4">
     <g id="line2d_4">
      <g>
       <use style="stroke:#000000;stroke-width:0.8;" x="293.809091" xlink:href="#m3e12be23c1" y="384.48"/>
      </g>
     </g>
     <g id="text_4">
      <!-- 600 -->
      <defs>
       <path d="M 33.015625 40.375 
Q 26.375 40.375 22.484375 35.828125 
Q 18.609375 31.296875 18.609375 23.390625 
Q 18.609375 15.53125 22.484375 10.953125 
Q 26.375 6.390625 33.015625 6.390625 
Q 39.65625 6.390625 43.53125 10.953125 
Q 47.40625 15.53125 47.40625 23.390625 
Q 47.40625 31.296875 43.53125 35.828125 
Q 39.65625 40.375 33.015625 40.375 
z
M 52.59375 71.296875 
L 52.59375 62.3125 
Q 48.875 64.0625 45.09375 64.984375 
Q 41.3125 65.921875 37.59375 65.921875 
Q 27.828125 65.921875 22.671875 59.328125 
Q 17.53125 52.734375 16.796875 39.40625 
Q 19.671875 43.65625 24.015625 45.921875 
Q 28.375 48.1875 33.59375 48.1875 
Q 44.578125 48.1875 50.953125 41.515625 
Q 57.328125 34.859375 57.328125 23.390625 
Q 57.328125 12.15625 50.6875 5.359375 
Q 44.046875 -1.421875 33.015625 -1.421875 
Q 20.359375 -1.421875 13.671875 8.265625 
Q 6.984375 17.96875 6.984375 36.375 
Q 6.984375 53.65625 15.1875 63.9375 
Q 23.390625 74.21875 37.203125 74.21875 
Q 40.921875 74.21875 44.703125 73.484375 
Q 48.484375 72.75 52.59375 71.296875 
z
" id="DejaVuSans-54"/>
      </defs>
      <g transform="translate(284.265341 399.078438)scale(0.1 -0.1)">
       <use xlink:href="#DejaVuSans-54"/>
       <use x="63.623047" xlink:href="#DejaVuSans-48"/>
       <use x="127.246094" xlink:href="#DejaVuSans-48"/>
      </g>
     </g>
    </g>
    <g id="xtick_5">
     <g id="line2d_5">
      <g>
       <use style="stroke:#000000;stroke-width:0.8;" x="364.827273" xlink:href="#m3e12be23c1" y="384.48"/>
      </g>
     </g>
     <g id="text_5">
      <!-- 800 -->
      <defs>
       <path d="M 31.78125 34.625 
Q 24.75 34.625 20.71875 30.859375 
Q 16.703125 27.09375 16.703125 20.515625 
Q 16.703125 13.921875 20.71875 10.15625 
Q 24.75 6.390625 31.78125 6.390625 
Q 38.8125 6.390625 42.859375 10.171875 
Q 46.921875 13.96875 46.921875 20.515625 
Q 46.921875 27.09375 42.890625 30.859375 
Q 38.875 34.625 31.78125 34.625 
z
M 21.921875 38.8125 
Q 15.578125 40.375 12.03125 44.71875 
Q 8.5 49.078125 8.5 55.328125 
Q 8.5 64.0625 14.71875 69.140625 
Q 20.953125 74.21875 31.78125 74.21875 
Q 42.671875 74.21875 48.875 69.140625 
Q 55.078125 64.0625 55.078125 55.328125 
Q 55.078125 49.078125 51.53125 44.71875 
Q 48 40.375 41.703125 38.8125 
Q 48.828125 37.15625 52.796875 32.3125 
Q 56.78125 27.484375 56.78125 20.515625 
Q 56.78125 9.90625 50.3125 4.234375 
Q 43.84375 -1.421875 31.78125 -1.421875 
Q 19.734375 -1.421875 13.25 4.234375 
Q 6.78125 9.90625 6.78125 20.515625 
Q 6.78125 27.484375 10.78125 32.3125 
Q 14.796875 37.15625 21.921875 38.8125 
z
M 18.3125 54.390625 
Q 18.3125 48.734375 21.84375 45.5625 
Q 25.390625 42.390625 31.78125 42.390625 
Q 38.140625 42.390625 41.71875 45.5625 
Q 45.3125 48.734375 45.3125 54.390625 
Q 45.3125 60.0625 41.71875 63.234375 
Q 38.140625 66.40625 31.78125 66.40625 
Q 25.390625 66.40625 21.84375 63.234375 
Q 18.3125 60.0625 18.3125 54.390625 
z
" id="DejaVuSans-56"/>
      </defs>
      <g transform="translate(355.283523 399.078438)scale(0.1 -0.1)">
       <use xlink:href="#DejaVuSans-56"/>
       <use x="63.623047" xlink:href="#DejaVuSans-48"/>
       <use x="127.246094" xlink:href="#DejaVuSans-48"/>
      </g>
     </g>
    </g>
    <g id="text_6">
     <!-- time [ms] -->
     <defs>
      <path d="M 18.3125 70.21875 
L 18.3125 54.6875 
L 36.8125 54.6875 
L 36.8125 47.703125 
L 18.3125 47.703125 
L 18.3125 18.015625 
Q 18.3125 11.328125 20.140625 9.421875 
Q 21.96875 7.515625 27.59375 7.515625 
L 36.8125 7.515625 
L 36.8125 0 
L 27.59375 0 
Q 17.1875 0 13.234375 3.875 
Q 9.28125 7.765625 9.28125 18.015625 
L 9.28125 47.703125 
L 2.6875 47.703125 
L 2.6875 54.6875 
L 9.28125 54.6875 
L 9.28125 70.21875 
z
" id="DejaVuSans-116"/>
      <path d="M 9.421875 54.6875 
L 18.40625 54.6875 
L 18.40625 0 
L 9.421875 0 
z
M 9.421875 75.984375 
L 18.40625 75.984375 
L 18.40625 64.59375 
L 9.421875 64.59375 
z
" id="DejaVuSans-105"/>
      <path d="M 52 44.1875 
Q 55.375 50.25 60.0625 53.125 
Q 64.75 56 71.09375 56 
Q 79.640625 56 84.28125 50.015625 
Q 88.921875 44.046875 88.921875 33.015625 
L 88.921875 0 
L 79.890625 0 
L 79.890625 32.71875 
Q 79.890625 40.578125 77.09375 44.375 
Q 74.3125 48.1875 68.609375 48.1875 
Q 61.625 48.1875 57.5625 43.546875 
Q 53.515625 38.921875 53.515625 30.90625 
L 53.515625 0 
L 44.484375 0 
L 44.484375 32.71875 
Q 44.484375 40.625 41.703125 44.40625 
Q 38.921875 48.1875 33.109375 48.1875 
Q 26.21875 48.1875 22.15625 43.53125 
Q 18.109375 38.875 18.109375 30.90625 
L 18.109375 0 
L 9.078125 0 
L 9.078125 54.6875 
L 18.109375 54.6875 
L 18.109375 46.1875 
Q 21.1875 51.21875 25.484375 53.609375 
Q 29.78125 56 35.6875 56 
Q 41.65625 56 45.828125 52.96875 
Q 50 49.953125 52 44.1875 
z
" id="DejaVuSans-109"/>
      <path d="M 56.203125 29.59375 
L 56.203125 25.203125 
L 14.890625 25.203125 
Q 15.484375 15.921875 20.484375 11.0625 
Q 25.484375 6.203125 34.421875 6.203125 
Q 39.59375 6.203125 44.453125 7.46875 
Q 49.3125 8.734375 54.109375 11.28125 
L 54.109375 2.78125 
Q 49.265625 0.734375 44.1875 -0.34375 
Q 39.109375 -1.421875 33.890625 -1.421875 
Q 20.796875 -1.421875 13.15625 6.1875 
Q 5.515625 13.8125 5.515625 26.8125 
Q 5.515625 40.234375 12.765625 48.109375 
Q 20.015625 56 32.328125 56 
Q 43.359375 56 49.78125 48.890625 
Q 56.203125 41.796875 56.203125 29.59375 
z
M 47.21875 32.234375 
Q 47.125 39.59375 43.09375 43.984375 
Q 39.0625 48.390625 32.421875 48.390625 
Q 24.90625 48.390625 20.390625 44.140625 
Q 15.875 39.890625 15.1875 32.171875 
z
" id="DejaVuSans-101"/>
      <path id="DejaVuSans-32"/>
      <path d="M 8.59375 75.984375 
L 29.296875 75.984375 
L 29.296875 69 
L 17.578125 69 
L 17.578125 -6.203125 
L 29.296875 -6.203125 
L 29.296875 -13.1875 
L 8.59375 -13.1875 
z
" id="DejaVuSans-91"/>
      <path d="M 44.28125 53.078125 
L 44.28125 44.578125 
Q 40.484375 46.53125 36.375 47.5 
Q 32.28125 48.484375 27.875 48.484375 
Q 21.1875 48.484375 17.84375 46.4375 
Q 14.5 44.390625 14.5 40.28125 
Q 14.5 37.15625 16.890625 35.375 
Q 19.28125 33.59375 26.515625 31.984375 
L 29.59375 31.296875 
Q 39.15625 29.25 43.1875 25.515625 
Q 47.21875 21.78125 47.21875 15.09375 
Q 47.21875 7.46875 41.1875 3.015625 
Q 35.15625 -1.421875 24.609375 -1.421875 
Q 20.21875 -1.421875 15.453125 -0.5625 
Q 10.6875 0.296875 5.421875 2 
L 5.421875 11.28125 
Q 10.40625 8.6875 15.234375 7.390625 
Q 20.0625 6.109375 24.8125 6.109375 
Q 31.15625 6.109375 34.5625 8.28125 
Q 37.984375 10.453125 37.984375 14.40625 
Q 37.984375 18.0625 35.515625 20.015625 
Q 33.0625 21.96875 24.703125 23.78125 
L 21.578125 24.515625 
Q 13.234375 26.265625 9.515625 29.90625 
Q 5.8125 33.546875 5.8125 39.890625 
Q 5.8125 47.609375 11.28125 51.796875 
Q 16.75 56 26.8125 56 
Q 31.78125 56 36.171875 55.265625 
Q 40.578125 54.546875 44.28125 53.078125 
z
" id="DejaVuSans-115"/>
      <path d="M 30.421875 75.984375 
L 30.421875 -13.1875 
L 9.71875 -13.1875 
L 9.71875 -6.203125 
L 21.390625 -6.203125 
L 21.390625 69 
L 9.71875 69 
L 9.71875 75.984375 
z
" id="DejaVuSans-93"/>
     </defs>
     <g transform="translate(234.038281 412.756563)scale(0.1 -0.1)">
      <use xlink:href="#DejaVuSans-116"/>
      <use x="39.208984" xlink:href="#DejaVuSans-105"/>
      <use x="66.992188" xlink:href="#DejaVuSans-109"/>
      <use x="164.404297" xlink:href="#DejaVuSans-101"/>
      <use x="225.927734" xlink:href="#DejaVuSans-32"/>
      <use x="257.714844" xlink:href="#DejaVuSans-91"/>
      <use x="296.728516" xlink:href="#DejaVuSans-109"/>
      <use x="394.140625" xlink:href="#DejaVuSans-115"/>
      <use x="446.240234" xlink:href="#DejaVuSans-93"/>
     </g>
    </g>
   </g>
   <g id="matplotlib.axis_2">
    <g id="ytick_1">
     <g id="line2d_6">
      <defs>
       <path d="M 0 0 
L -3.5 0 
" id="md9b144d3e6" style="stroke:#000000;stroke-width:0.8;"/>
      </defs>
      <g>
       <use style="stroke:#000000;stroke-width:0.8;" x="63" xlink:href="#md9b144d3e6" y="377.57737"/>
      </g>
     </g>
     <g id="text_7">
      <!-- −80 -->
      <defs>
       <path d="M 10.59375 35.5 
L 73.1875 35.5 
L 73.1875 27.203125 
L 10.59375 27.203125 
z
" id="DejaVuSans-8722"/>
      </defs>
      <g transform="translate(34.895313 381.376589)scale(0.1 -0.1)">
       <use xlink:href="#DejaVuSans-8722"/>
       <use x="83.789062" xlink:href="#DejaVuSans-56"/>
       <use x="147.412109" xlink:href="#DejaVuSans-48"/>
      </g>
     </g>
    </g>
    <g id="ytick_2">
     <g id="line2d_7">
      <g>
       <use style="stroke:#000000;stroke-width:0.8;" x="63" xlink:href="#md9b144d3e6" y="329.032558"/>
      </g>
     </g>
     <g id="text_8">
      <!-- −60 -->
      <g transform="translate(34.895313 332.831776)scale(0.1 -0.1)">
       <use xlink:href="#DejaVuSans-8722"/>
       <use x="83.789062" xlink:href="#DejaVuSans-54"/>
       <use x="147.412109" xlink:href="#DejaVuSans-48"/>
      </g>
     </g>
    </g>
    <g id="ytick_3">
     <g id="line2d_8">
      <g>
       <use style="stroke:#000000;stroke-width:0.8;" x="63" xlink:href="#md9b144d3e6" y="280.487746"/>
      </g>
     </g>
     <g id="text_9">
      <!-- −40 -->
      <g transform="translate(34.895313 284.286964)scale(0.1 -0.1)">
       <use xlink:href="#DejaVuSans-8722"/>
       <use x="83.789062" xlink:href="#DejaVuSans-52"/>
       <use x="147.412109" xlink:href="#DejaVuSans-48"/>
      </g>
     </g>
    </g>
    <g id="ytick_4">
     <g id="line2d_9">
      <g>
       <use style="stroke:#000000;stroke-width:0.8;" x="63" xlink:href="#md9b144d3e6" y="231.942934"/>
      </g>
     </g>
     <g id="text_10">
      <!-- −20 -->
      <g transform="translate(34.895313 235.742152)scale(0.1 -0.1)">
       <use xlink:href="#DejaVuSans-8722"/>
       <use x="83.789062" xlink:href="#DejaVuSans-50"/>
       <use x="147.412109" xlink:href="#DejaVuSans-48"/>
      </g>
     </g>
    </g>
    <g id="ytick_5">
     <g id="line2d_10">
      <g>
       <use style="stroke:#000000;stroke-width:0.8;" x="63" xlink:href="#md9b144d3e6" y="183.398121"/>
      </g>
     </g>
     <g id="text_11">
      <!-- 0 -->
      <g transform="translate(49.6375 187.19734)scale(0.1 -0.1)">
       <use xlink:href="#DejaVuSans-48"/>
      </g>
     </g>
    </g>
    <g id="ytick_6">
     <g id="line2d_11">
      <g>
       <use style="stroke:#000000;stroke-width:0.8;" x="63" xlink:href="#md9b144d3e6" y="134.853309"/>
      </g>
     </g>
     <g id="text_12">
      <!-- 20 -->
      <g transform="translate(43.275 138.652528)scale(0.1 -0.1)">
       <use xlink:href="#DejaVuSans-50"/>
       <use x="63.623047" xlink:href="#DejaVuSans-48"/>
      </g>
     </g>
    </g>
    <g id="ytick_7">
     <g id="line2d_12">
      <g>
       <use style="stroke:#000000;stroke-width:0.8;" x="63" xlink:href="#md9b144d3e6" y="86.308497"/>
      </g>
     </g>
     <g id="text_13">
      <!-- 40 -->
      <g transform="translate(43.275 90.107716)scale(0.1 -0.1)">
       <use xlink:href="#DejaVuSans-52"/>
       <use x="63.623047" xlink:href="#DejaVuSans-48"/>
      </g>
     </g>
    </g>
    <g id="text_14">
     <!-- voltage [mV] -->
     <defs>
      <path d="M 2.984375 54.6875 
L 12.5 54.6875 
L 29.59375 8.796875 
L 46.6875 54.6875 
L 56.203125 54.6875 
L 35.6875 0 
L 23.484375 0 
z
" id="DejaVuSans-118"/>
      <path d="M 30.609375 48.390625 
Q 23.390625 48.390625 19.1875 42.75 
Q 14.984375 37.109375 14.984375 27.296875 
Q 14.984375 17.484375 19.15625 11.84375 
Q 23.34375 6.203125 30.609375 6.203125 
Q 37.796875 6.203125 41.984375 11.859375 
Q 46.1875 17.53125 46.1875 27.296875 
Q 46.1875 37.015625 41.984375 42.703125 
Q 37.796875 48.390625 30.609375 48.390625 
z
M 30.609375 56 
Q 42.328125 56 49.015625 48.375 
Q 55.71875 40.765625 55.71875 27.296875 
Q 55.71875 13.875 49.015625 6.21875 
Q 42.328125 -1.421875 30.609375 -1.421875 
Q 18.84375 -1.421875 12.171875 6.21875 
Q 5.515625 13.875 5.515625 27.296875 
Q 5.515625 40.765625 12.171875 48.375 
Q 18.84375 56 30.609375 56 
z
" id="DejaVuSans-111"/>
      <path d="M 9.421875 75.984375 
L 18.40625 75.984375 
L 18.40625 0 
L 9.421875 0 
z
" id="DejaVuSans-108"/>
      <path d="M 34.28125 27.484375 
Q 23.390625 27.484375 19.1875 25 
Q 14.984375 22.515625 14.984375 16.5 
Q 14.984375 11.71875 18.140625 8.90625 
Q 21.296875 6.109375 26.703125 6.109375 
Q 34.1875 6.109375 38.703125 11.40625 
Q 43.21875 16.703125 43.21875 25.484375 
L 43.21875 27.484375 
z
M 52.203125 31.203125 
L 52.203125 0 
L 43.21875 0 
L 43.21875 8.296875 
Q 40.140625 3.328125 35.546875 0.953125 
Q 30.953125 -1.421875 24.3125 -1.421875 
Q 15.921875 -1.421875 10.953125 3.296875 
Q 6 8.015625 6 15.921875 
Q 6 25.140625 12.171875 29.828125 
Q 18.359375 34.515625 30.609375 34.515625 
L 43.21875 34.515625 
L 43.21875 35.40625 
Q 43.21875 41.609375 39.140625 45 
Q 35.0625 48.390625 27.6875 48.390625 
Q 23 48.390625 18.546875 47.265625 
Q 14.109375 46.140625 10.015625 43.890625 
L 10.015625 52.203125 
Q 14.9375 54.109375 19.578125 55.046875 
Q 24.21875 56 28.609375 56 
Q 40.484375 56 46.34375 49.84375 
Q 52.203125 43.703125 52.203125 31.203125 
z
" id="DejaVuSans-97"/>
      <path d="M 45.40625 27.984375 
Q 45.40625 37.75 41.375 43.109375 
Q 37.359375 48.484375 30.078125 48.484375 
Q 22.859375 48.484375 18.828125 43.109375 
Q 14.796875 37.75 14.796875 27.984375 
Q 14.796875 18.265625 18.828125 12.890625 
Q 22.859375 7.515625 30.078125 7.515625 
Q 37.359375 7.515625 41.375 12.890625 
Q 45.40625 18.265625 45.40625 27.984375 
z
M 54.390625 6.78125 
Q 54.390625 -7.171875 48.1875 -13.984375 
Q 42 -20.796875 29.203125 -20.796875 
Q 24.46875 -20.796875 20.265625 -20.09375 
Q 16.0625 -19.390625 12.109375 -17.921875 
L 12.109375 -9.1875 
Q 16.0625 -11.328125 19.921875 -12.34375 
Q 23.78125 -13.375 27.78125 -13.375 
Q 36.625 -13.375 41.015625 -8.765625 
Q 45.40625 -4.15625 45.40625 5.171875 
L 45.40625 9.625 
Q 42.625 4.78125 38.28125 2.390625 
Q 33.9375 0 27.875 0 
Q 17.828125 0 11.671875 7.65625 
Q 5.515625 15.328125 5.515625 27.984375 
Q 5.515625 40.671875 11.671875 48.328125 
Q 17.828125 56 27.875 56 
Q 33.9375 56 38.28125 53.609375 
Q 42.625 51.21875 45.40625 46.390625 
L 45.40625 54.6875 
L 54.390625 54.6875 
z
" id="DejaVuSans-103"/>
      <path d="M 28.609375 0 
L 0.78125 72.90625 
L 11.078125 72.90625 
L 34.1875 11.53125 
L 57.328125 72.90625 
L 67.578125 72.90625 
L 39.796875 0 
z
" id="DejaVuSans-86"/>
     </defs>
     <g transform="translate(28.815625 250.624062)rotate(-90)scale(0.1 -0.1)">
      <use xlink:href="#DejaVuSans-118"/>
      <use x="59.179688" xlink:href="#DejaVuSans-111"/>
      <use x="120.361328" xlink:href="#DejaVuSans-108"/>
      <use x="148.144531" xlink:href="#DejaVuSans-116"/>
      <use x="187.353516" xlink:href="#DejaVuSans-97"/>
      <use x="248.632812" xlink:href="#DejaVuSans-103"/>
      <use x="312.109375" xlink:href="#DejaVuSans-101"/>
      <use x="373.632812" xlink:href="#DejaVuSans-32"/>
      <use x="405.419922" xlink:href="#DejaVuSans-91"/>
      <use x="444.433594" xlink:href="#DejaVuSans-109"/>
      <use x="541.845703" xlink:href="#DejaVuSans-86"/>
      <use x="610.253906" xlink:href="#DejaVuSans-93"/>
     </g>
    </g>
   </g>
   <g id="line2d_13">
    <path clip-path="url(#p1f1ac675ba)" d="M 80.754545 341.168761 
L 82.006241 341.041573 
L 151.772727 341.104924 
L 152.314241 299.934555 
L 152.420768 254.961913 
L 152.562805 87.095409 
L 152.678209 110.413909 
L 153.565936 365.66156 
L 153.610323 365.568597 
L 153.8145 364.293567 
L 154.293873 359.897835 
L 154.959668 351.463416 
L 157.42755 315.500934 
L 157.613973 305.211618 
L 157.738255 284.900226 
L 157.835905 227.054714 
L 157.969064 109.6219 
L 158.031205 121.783832 
L 158.883423 365.269075 
L 158.945564 365.099411 
L 159.203005 363.269272 
L 159.717886 358.023519 
L 160.534595 346.994624 
L 161.8218 330.229673 
L 162.514227 320.643771 
L 162.771668 313.689484 
L 162.940336 302.601121 
L 163.064618 276.740814 
L 163.162268 198.697334 
L 163.268795 110.472891 
L 163.322059 119.269696 
L 163.863573 299.677267 
L 164.147645 365.105722 
L 164.183155 365.239706 
L 164.245295 365.071983 
L 164.493859 363.311749 
L 165.008741 358.084201 
L 165.834327 346.941467 
L 167.112655 330.298606 
L 167.813959 320.611004 
L 168.0714 313.647736 
L 168.240068 302.522964 
L 168.36435 276.513139 
L 168.462 198.007877 
L 168.568527 110.544009 
L 168.621791 119.475041 
L 169.172182 303.331478 
L 169.4385 365.026351 
L 169.482886 365.237764 
L 169.545027 365.066401 
L 169.802468 363.228737 
L 170.31735 357.966479 
L 171.151814 346.674228 
L 172.430141 330.074087 
L 173.113691 320.594013 
L 173.371132 313.613997 
L 173.5398 302.43437 
L 173.664082 276.200511 
L 173.761732 196.943265 
L 173.868259 110.559544 
L 173.921523 119.69325 
L 174.480791 307.096128 
L 174.729355 364.925135 
L 174.782618 365.237764 
L 174.844759 365.062517 
L 175.1022 363.221941 
L 175.617082 357.956528 
L 176.451545 346.662334 
L 177.729873 330.064135 
L 178.413423 320.578479 
L 178.670864 313.580744 
L 178.839532 302.344562 
L 178.963814 275.879629 
L 179.061464 195.847487 
L 179.167991 110.575563 
L 179.221255 119.913886 
L 179.7894 310.956169 
L 180.029086 364.936543 
L 180.08235 365.238007 
L 180.144491 365.058391 
L 180.401932 363.215144 
L 180.916814 357.946819 
L 181.751277 346.650926 
L 183.029605 330.054426 
L 183.713155 320.562702 
L 183.970595 313.547248 
L 184.139264 302.253783 
L 184.263545 275.551224 
L 184.361195 194.732437 
L 184.467723 110.597651 
L 184.520986 120.13792 
L 185.098009 314.901163 
L 185.328818 364.947709 
L 185.382082 365.238007 
L 185.444223 365.054507 
L 185.701664 363.208105 
L 186.216545 357.93711 
L 187.051009 346.639276 
L 188.329336 330.044717 
L 189.012886 320.547167 
L 189.270327 313.513509 
L 189.438995 302.161548 
L 189.563277 275.217964 
L 189.660927 193.612945 
L 189.767455 110.625079 
L 189.820718 120.364139 
L 190.406618 318.912906 
L 190.619673 364.82392 
L 190.681814 365.237764 
L 190.743955 365.050381 
L 191.010273 363.126065 
L 191.525155 357.821088 
L 192.368495 346.375192 
L 193.637945 329.928209 
L 194.312618 320.531147 
L 194.570059 313.479771 
L 194.738727 302.068827 
L 194.863009 274.881548 
L 194.969536 180.135546 
L 195.058309 110.6127 
L 195.12045 120.592785 
L 195.715227 322.967369 
L 195.919405 364.83824 
L 195.981545 365.237764 
L 196.043686 365.046255 
L 196.310005 363.119026 
L 196.833764 357.70458 
L 197.703736 345.859403 
L 198.955432 329.705146 
L 199.61235 320.51537 
L 199.869791 313.445547 
L 200.038459 301.975136 
L 200.162741 274.538336 
L 200.269268 178.967291 
L 200.358041 110.585515 
L 200.420182 120.825315 
L 201.023836 327.030327 
L 201.219136 364.851833 
L 201.281277 365.237279 
L 201.343418 365.042128 
L 201.609736 363.111987 
L 202.133495 357.694386 
L 202.994591 345.973484 
L 204.255164 329.695194 
L 204.912082 320.499108 
L 205.169523 313.410837 
L 205.338191 301.879988 
L 205.462473 274.188085 
L 205.569 177.791196 
L 205.657773 110.564883 
L 205.719914 121.059544 
L 206.332445 331.057362 
L 206.518868 364.865425 
L 206.581009 365.237036 
L 206.634273 365.080964 
L 206.882836 363.328982 
L 207.397718 358.108716 
L 208.214427 347.097296 
L 209.510509 330.217537 
L 210.202936 320.65348 
L 210.460377 313.739243 
L 210.629045 302.770785 
L 210.753327 277.39447 
L 210.850977 201.065205 
L 210.957505 110.550805 
L 211.019645 121.294743 
L 211.641055 334.998472 
L 211.827477 365.000137 
L 211.880741 365.23655 
L 211.934005 365.077081 
L 212.182568 363.321943 
L 212.69745 358.098764 
L 213.514159 347.085402 
L 214.810241 330.207585 
L 215.502668 320.637703 
L 215.760109 313.70599 
L 215.928777 302.681706 
L 216.053059 277.080628 
L 216.150709 199.974888 
L 216.257236 110.54498 
L 216.319377 121.529457 
L 216.949664 338.794919 
L 217.127209 365.009846 
L 217.171595 365.237036 
L 217.233736 365.073197 
L 217.4823 363.315147 
L 217.997182 358.089055 
L 218.822768 346.947292 
L 220.101095 330.303946 
L 220.8024 320.621926 
L 221.059841 313.672979 
L 221.228509 302.592869 
L 221.352791 276.765572 
L 221.450441 198.885106 
L 221.556968 110.545466 
L 221.610232 119.303921 
L 222.151745 299.728482 
L 222.426941 365.01907 
L 222.471327 365.237279 
L 222.533468 365.069314 
L 222.782032 363.30835 
L 223.296914 358.079346 
L 224.1225 346.935399 
L 225.418582 330.081611 
L 226.111009 320.435029 
L 226.36845 313.272727 
L 226.537118 301.497698 
L 226.652523 276.448089 
L 226.750173 197.790979 
L 226.8567 110.551048 
L 226.909964 119.523586 
L 227.460355 303.40114 
L 227.726673 365.02805 
L 227.771059 365.237764 
L 227.8332 365.06543 
L 228.090641 363.227038 
L 228.605523 357.964052 
L 229.439986 346.671315 
L 230.718314 330.071659 
L 231.401864 320.590372 
L 231.659305 313.60623 
L 231.827973 302.413981 
L 231.952255 276.128421 
L 232.049905 196.696657 
L 232.156432 110.562942 
L 232.209695 119.743008 
L 232.768964 307.168703 
L 233.017527 364.927805 
L 233.070791 365.237764 
L 233.132932 365.061546 
L 233.390373 363.220242 
L 233.905255 357.954343 
L 234.739718 346.659664 
L 236.018045 330.06195 
L 236.701595 320.574838 
L 236.959036 313.57322 
L 237.127705 302.324173 
L 237.251986 275.805841 
L 237.349636 195.596073 
L 237.456164 110.579932 
L 237.509427 119.964615 
L 238.077573 311.030928 
L 238.317259 364.938971 
L 238.370523 365.238007 
L 238.432664 365.057663 
L 238.698982 363.138444 
L 239.213864 357.838564 
L 240.057205 346.395823 
L 241.317777 330.052241 
L 242.001327 320.559303 
L 242.258768 313.539724 
L 242.427436 302.232909 
L 242.551718 275.475736 
L 242.649368 194.478426 
L 242.755895 110.603477 
L 242.809159 120.189135 
L 243.386182 314.977621 
L 243.616991 364.950136 
L 243.670255 365.238007 
L 243.732395 365.053536 
L 243.989836 363.206649 
L 244.504718 357.934925 
L 245.348059 346.510389 
L 246.617509 330.04229 
L 247.301059 320.543526 
L 247.5585 313.505985 
L 247.727168 302.140431 
L 247.85145 275.141991 
L 247.9491 193.357842 
L 248.055627 110.632361 
L 248.108891 120.415839 
L 248.694791 318.991063 
L 248.907845 364.827318 
L 248.969986 365.237764 
L 249.032127 365.049653 
L 249.298445 363.124608 
L 249.822205 357.712347 
L 250.692177 345.868627 
L 251.943873 329.712913 
L 252.600791 320.527507 
L 252.858232 313.472004 
L 253.0269 302.047468 
L 253.151182 274.803876 
L 253.257709 179.869569 
L 253.346482 110.605904 
L 253.408623 120.645699 
L 254.0034 323.046982 
L 254.207577 364.841396 
L 254.269718 365.237521 
L 254.331859 365.045527 
L 254.598177 363.117569 
L 255.121936 357.702153 
L 255.983032 345.982707 
L 257.22585 329.916073 
L 257.900523 320.51173 
L 258.157964 313.43778 
L 258.326632 301.953533 
L 258.450914 274.458965 
L 258.557441 178.698911 
L 258.646214 110.580175 
L 258.708355 120.878957 
L 259.312009 327.10994 
L 259.507309 364.854988 
L 259.56945 365.237279 
L 259.631591 365.041158 
L 259.906786 363.034558 
L 260.430545 357.584917 
L 261.309395 345.593378 
L 262.552214 329.586211 
L 263.200255 320.495467 
L 263.457695 313.40307 
L 263.626364 301.858143 
L 263.750645 274.107501 
L 263.857173 177.52233 
L 263.945945 110.561 
L 264.008086 121.113186 
L 264.620618 331.135762 
L 264.807041 364.868581 
L 264.869182 365.236793 
L 264.922445 365.080236 
L 265.171009 363.327283 
L 265.685891 358.106531 
L 266.511477 346.968167 
L 267.807559 330.109039 
L 268.499986 320.479447 
L 268.757427 313.36836 
L 268.926095 301.762752 
L 269.050377 273.756037 
L 269.156905 176.354512 
L 269.245677 110.548864 
L 269.298941 118.916776 
L 269.8227 292.737786 
L 270.133405 365.156209 
L 270.168914 365.23655 
L 270.222177 365.076353 
L 270.470741 363.320487 
L 270.985623 358.096579 
L 271.802332 347.082732 
L 273.098414 330.2054 
L 273.790841 320.634062 
L 274.048282 313.698465 
L 274.21695 302.661559 
L 274.341232 277.008782 
L 274.438882 199.725465 
L 274.545409 110.544737 
L 274.598673 119.134985 
L 275.131309 296.221119 
L 275.424259 365.098926 
L 275.468645 365.235822 
L 275.521909 365.072469 
L 275.770473 363.31369 
L 276.285355 358.08687 
L 277.110941 346.944622 
L 278.389268 330.301762 
L 279.090573 320.618285 
L 279.348014 313.665212 
L 279.516682 302.57248 
L 279.640964 276.69324 
L 279.738614 198.635585 
L 279.845141 110.545951 
L 279.898405 119.354164 
L 280.439918 299.798629 
L 280.715114 365.021011 
L 280.7595 365.237521 
L 280.821641 365.068585 
L 281.079082 363.232378 
L 281.593964 357.971577 
L 282.428427 346.680296 
L 283.706755 330.079184 
L 284.390305 320.602508 
L 284.647745 313.631959 
L 284.816414 302.483157 
L 284.940695 276.375272 
L 285.038345 197.541361 
L 285.144873 110.553233 
L 285.198136 119.573587 
L 285.748527 303.472258 
L 286.014845 365.029992 
L 286.059232 365.237764 
L 286.121373 365.064459 
L 286.378814 363.225582 
L 286.902573 357.855797 
L 287.754791 346.290238 
L 289.006486 330.069475 
L 289.690036 320.586974 
L 289.947477 313.598706 
L 290.116145 302.393592 
L 290.240427 276.055119 
L 290.338077 196.446214 
L 290.444605 110.56634 
L 290.497868 119.793252 
L 291.057136 307.242005 
L 291.3057 364.930475 
L 291.358964 365.238007 
L 291.421105 365.060575 
L 291.678545 363.218785 
L 292.193427 357.952159 
L 293.027891 346.656994 
L 294.315095 329.95321 
L 294.989768 320.571197 
L 295.247209 313.565452 
L 295.415877 302.303541 
L 295.540159 275.731082 
L 295.637809 195.342014 
L 295.744336 110.584787 
L 295.7976 120.015587 
L 296.365745 311.106172 
L 296.605432 364.941641 
L 296.658695 365.238007 
L 296.720836 365.056692 
L 296.987155 363.136987 
L 297.510914 357.729823 
L 298.372009 346.014989 
L 299.632582 329.730389 
L 300.298377 320.383571 
L 300.555818 313.160831 
L 300.724486 301.184341 
L 300.839891 275.400007 
L 300.937541 194.224051 
L 301.044068 110.609545 
L 301.097332 120.24035 
L 301.674355 315.054079 
L 301.905164 364.952563 
L 301.958427 365.238007 
L 302.020568 365.052808 
L 302.286886 363.129948 
L 302.810645 357.719872 
L 303.671741 346.003581 
L 304.914559 329.933792 
L 305.589232 320.539886 
L 305.846673 313.498218 
L 306.015341 302.119557 
L 306.139623 275.065776 
L 306.24615 180.768085 
L 306.334923 110.629934 
L 306.397064 120.467782 
L 306.982964 319.06922 
L 307.196018 364.830473 
L 307.258159 365.237764 
L 307.3203 365.048682 
L 307.586618 363.122909 
L 308.110377 357.70992 
L 308.971473 345.991931 
L 310.214291 329.92384 
L 310.888964 320.524108 
L 311.146405 313.464236 
L 311.315073 302.026351 
L 311.439355 274.725962 
L 311.545882 179.604539 
L 311.634655 110.599593 
L 311.696795 120.69837 
L 312.291573 323.12611 
L 312.49575 364.844551 
L 312.557891 365.237521 
L 312.620032 365.044556 
L 312.88635 363.11587 
L 313.410109 357.699968 
L 314.280082 345.854063 
L 315.531777 329.700534 
L 316.188695 320.507846 
L 316.446136 313.42977 
L 316.614805 301.931931 
L 316.739086 274.379837 
L 316.845614 178.43155 
L 316.934386 110.575321 
L 316.996527 120.932114 
L 317.600182 327.189311 
L 317.795482 364.858144 
L 317.857623 365.237279 
L 317.910886 365.083149 
L 318.15945 363.332623 
L 318.674332 358.114056 
L 319.491041 347.103607 
L 320.796 330.116563 
L 321.488427 320.491826 
L 321.745868 313.39506 
L 321.914536 301.836298 
L 322.038818 274.027159 
L 322.145345 177.254751 
L 322.234118 110.557602 
L 322.296259 121.166828 
L 322.908791 331.213919 
L 323.095214 364.871736 
L 323.157355 365.236793 
L 323.210618 365.079265 
L 323.459182 363.325827 
L 323.974064 358.104104 
L 324.790773 347.091713 
L 326.095732 330.106612 
L 326.779282 320.646199 
L 327.036723 313.724194 
L 327.205391 302.73025 
L 327.329673 277.251506 
L 327.427323 200.568106 
L 327.53385 110.547165 
L 327.595991 121.401785 
L 328.2174 335.149447 
L 328.403823 365.004506 
L 328.457086 365.236308 
L 328.51035 365.075382 
L 328.758914 363.318788 
L 329.273795 358.094395 
L 329.318182 357.562587 
L 329.335936 358.396101 
L 329.531236 362.092303 
L 329.620009 362.266336 
L 329.664395 362.21318 
L 329.815309 361.651031 
L 330.214786 359.041504 
L 332.176664 345.371042 
L 332.869091 342.386265 
L 333.428359 340.852734 
L 333.889977 340.164369 
L 334.2717 339.95247 
L 334.644545 340.001501 
L 335.159427 340.332576 
L 336.402245 341.210995 
L 337.032532 341.351289 
L 337.88475 341.287453 
L 340.361509 341.060506 
L 435.845455 341.104924 
L 435.845455 341.104924 
" style="fill:none;stroke:#1f77b4;stroke-linecap:square;stroke-width:1.5;"/>
   </g>
   <g id="line2d_14">
    <path clip-path="url(#p1f1ac675ba)" d="M 80.754545 341.168761 
L 81.180655 357.420122 
L 81.517991 363.171542 
L 81.864205 365.68977 
L 82.219295 366.809238 
L 82.583264 367.288751 
L 82.964986 367.445432 
L 83.444359 367.389177 
L 84.145664 367.058105 
L 85.388482 366.184552 
L 88.255841 364.137231 
L 89.65845 363.433754 
L 90.998918 363.009104 
L 92.499177 362.775601 
L 94.452177 362.714052 
L 120.506973 362.866556 
L 151.772727 362.866541 
L 152.314241 320.848921 
L 152.411891 289.129519 
L 152.474032 185.162842 
L 152.54505 66.96 
L 152.607191 71.597952 
L 152.758105 101.491487 
L 153.406145 307.961074 
L 153.636955 369.358545 
L 153.734605 369.262553 
L 154.134082 368.478195 
L 154.560191 367.120618 
L 155.021809 364.84111 
L 155.563323 360.929167 
L 156.309014 353.68518 
L 157.756009 337.06854 
L 158.1111 330.494161 
L 158.3064 322.275608 
L 158.430682 306.565097 
L 158.519455 256.837047 
L 158.625982 78.546034 
L 158.741386 96.877371 
L 159.274023 265.505156 
L 159.629114 369.293598 
L 159.700132 369.215425 
L 160.090732 368.425421 
L 160.516841 367.036834 
L 160.978459 364.715223 
L 161.519973 360.752756 
L 162.274541 353.372844 
L 163.730414 336.625623 
L 164.06775 330.257316 
L 164.26305 321.823989 
L 164.387332 305.218633 
L 164.467227 261.216826 
L 164.582632 78.631169 
L 164.698036 98.446396 
L 165.283936 286.13866 
L 165.576886 369.291756 
L 165.603518 369.274623 
L 165.869836 368.816658 
L 166.287068 367.696174 
L 166.730932 365.816666 
L 167.236936 362.610931 
L 167.8761 356.96993 
L 169.127795 343.389614 
L 169.837977 334.122216 
L 170.104295 327.436083 
L 170.264086 317.224991 
L 170.370614 293.897256 
L 170.441632 220.904685 
L 170.530405 78.629728 
L 170.601423 87.672755 
L 170.841109 160.806616 
L 171.524659 369.291752 
L 171.560168 369.266182 
L 171.861995 368.724492 
L 172.279227 367.547627 
L 172.731968 365.541539 
L 173.24685 362.145214 
L 173.912645 356.087934 
L 175.306377 340.743648 
L 175.839014 333.157866 
L 176.0787 326.399849 
L 176.229614 315.263839 
L 176.327264 290.339544 
L 176.398282 203.179145 
L 176.478177 78.637225 
L 176.549195 87.420737 
L 176.788882 160.383916 
L 177.472432 369.291736 
L 177.507941 369.267617 
L 177.800891 368.746533 
L 178.218123 367.583054 
L 178.670864 365.595978 
L 179.185745 362.223716 
L 179.851541 356.190856 
L 181.236395 340.967396 
L 181.786786 333.182041 
L 182.026473 326.453564 
L 182.177386 315.422605 
L 182.275036 290.952926 
L 182.346055 206.251967 
L 182.42595 78.657234 
L 182.496968 87.17198 
L 182.727777 156.941386 
L 183.420205 369.291581 
L 183.455714 369.269023 
L 183.748664 368.749221 
L 184.165895 367.587379 
L 184.618636 365.602631 
L 185.133518 362.233324 
L 185.790436 356.293565 
L 187.157536 341.293833 
L 187.725682 333.376807 
L 187.974245 326.506949 
L 188.125159 315.57957 
L 188.222809 291.555763 
L 188.293827 209.266612 
L 188.373723 78.691534 
L 188.444741 86.924444 
L 188.67555 156.516724 
L 189.367977 369.291315 
L 189.403486 369.270411 
L 189.687559 368.770983 
L 190.104791 367.622424 
L 190.548655 365.703551 
L 191.054659 362.447151 
L 191.7027 356.664448 
L 193.016536 342.335431 
L 193.6557 333.732046 
L 193.913141 326.930322 
L 194.072932 315.735441 
L 194.179459 287.643375 
L 194.250477 189.709437 
L 194.330373 78.681674 
L 194.392514 86.677153 
L 194.614445 153.062081 
L 195.324627 369.291266 
L 195.351259 369.271779 
L 195.626455 368.79248 
L 196.043686 367.657101 
L 196.48755 365.756675 
L 196.993555 362.523957 
L 197.641595 356.766014 
L 198.937677 342.65429 
L 199.594595 333.916319 
L 199.852036 327.33364 
L 200.011827 316.931212 
L 200.118355 292.728755 
L 200.189373 215.140774 
L 200.278145 78.653884 
L 200.349164 88.212965 
L 200.597727 164.709246 
L 201.2724 369.291532 
L 201.307909 369.263067 
L 201.618614 368.699071 
L 202.044723 367.475058 
L 202.497464 365.430391 
L 203.012345 361.985576 
L 203.687018 355.788772 
L 205.107382 340.07667 
L 205.604509 332.751343 
L 205.835318 325.88488 
L 205.986232 313.689162 
L 206.083882 283.888851 
L 206.1549 171.573731 
L 206.225918 78.636421 
L 206.288059 86.19299 
L 206.509991 152.208569 
L 207.220173 369.291675 
L 207.255682 369.264549 
L 207.557509 368.721441 
L 207.983618 367.511279 
L 208.436359 365.485808 
L 208.951241 362.065063 
L 209.625914 355.892472 
L 211.0374 340.304952 
L 211.543405 332.955429 
L 211.783091 325.942052 
L 211.934005 313.868515 
L 212.031655 284.655331 
L 212.102673 175.17803 
L 212.173691 78.629923 
L 212.235832 85.957529 
L 212.448886 148.758814 
L 213.167945 369.291745 
L 213.203455 369.266007 
L 213.505282 368.724163 
L 213.922514 367.547099 
L 214.375255 365.54073 
L 214.890136 362.144049 
L 215.555932 356.086408 
L 216.949664 340.741881 
L 217.4823 333.154949 
L 217.721986 326.393332 
L 217.8729 315.244527 
L 217.97055 290.264803 
L 218.041568 202.805646 
L 218.121464 78.635686 
L 218.192482 87.45093 
L 218.432168 160.434834 
L 219.115718 369.291743 
L 219.151227 369.267445 
L 219.444177 368.746208 
L 219.861409 367.582532 
L 220.31415 365.595175 
L 220.829032 362.222557 
L 221.494827 356.189334 
L 222.879682 340.965637 
L 223.430073 333.179124 
L 223.669759 326.447109 
L 223.820673 315.403562 
L 223.918323 290.879469 
L 223.989341 205.883628 
L 224.069236 78.654144 
L 224.140255 87.202001 
L 224.371064 156.99262 
L 225.063491 369.291607 
L 225.099 369.268853 
L 225.39195 368.748893 
L 225.809182 367.586851 
L 226.261923 365.60182 
L 226.776805 362.232152 
L 227.4426 356.201937 
L 228.818577 341.084361 
L 229.368968 333.373915 
L 229.617532 326.500448 
L 229.768445 315.560528 
L 229.866095 291.482873 
L 229.937114 208.901513 
L 230.017009 78.686504 
L 230.088027 86.954628 
L 230.318836 156.568746 
L 231.011264 369.291353 
L 231.046773 369.270243 
L 231.330845 368.770657 
L 231.748077 367.621898 
L 232.191941 365.702747 
L 232.697945 362.44599 
L 233.345986 356.662915 
L 234.659823 342.333682 
L 235.298986 333.729247 
L 235.556427 326.924123 
L 235.716218 315.716541 
L 235.822745 287.558398 
L 235.893764 189.287831 
L 235.973659 78.68565 
L 236.0358 86.707038 
L 236.257732 153.114118 
L 236.967914 369.29123 
L 236.994545 369.271615 
L 237.269741 368.792161 
L 237.686973 367.656586 
L 238.130836 365.755885 
L 238.636841 362.522813 
L 239.284882 356.764499 
L 240.580964 342.652563 
L 241.237882 333.913591 
L 241.495323 327.327763 
L 241.655114 316.914219 
L 241.761641 292.660339 
L 241.832659 214.802679 
L 241.921432 78.656799 
L 241.99245 88.244046 
L 242.241014 164.759918 
L 242.915686 369.291506 
L 242.951195 369.262885 
L 243.2619 368.698736 
L 243.688009 367.474516 
L 244.14075 365.429563 
L 244.655632 361.98439 
L 245.330305 355.787227 
L 246.750668 340.074854 
L 247.247795 332.748282 
L 247.478605 325.877965 
L 247.629518 313.667437 
L 247.727168 283.795846 
L 247.798186 171.139119 
L 247.869205 78.637892 
L 247.931345 86.221467 
L 248.153277 152.259296 
L 248.863459 369.291663 
L 248.898968 369.264373 
L 249.209673 368.701508 
L 249.635782 367.479001 
L 250.088523 365.436418 
L 250.603405 361.994211 
L 251.278077 355.800019 
L 252.698441 340.0899 
L 253.195568 332.773642 
L 253.426377 325.935212 
L 253.577291 313.847083 
L 253.674941 284.563869 
L 253.745959 174.743423 
L 253.816977 78.630101 
L 253.879118 85.985874 
L 254.092173 148.809892 
L 254.811232 369.29174 
L 254.846741 369.265831 
L 255.148568 368.723834 
L 255.5658 367.546571 
L 256.018541 365.539919 
L 256.533423 362.142881 
L 257.199218 356.084881 
L 258.59295 340.74011 
L 259.125586 333.152023 
L 259.365273 326.386787 
L 259.516186 315.225122 
L 259.613836 290.189661 
L 259.684855 202.429381 
L 259.76475 78.634446 
L 259.835768 87.481128 
L 260.075455 160.485697 
L 260.759005 369.291747 
L 260.794514 369.267271 
L 261.087464 368.745884 
L 261.504695 367.58201 
L 261.957436 365.594371 
L 262.472318 362.221396 
L 263.138114 356.187809 
L 264.522968 340.963875 
L 265.064482 333.347359 
L 265.313045 326.440647 
L 265.463959 315.384494 
L 265.561609 290.805889 
L 265.632627 205.513644 
L 265.712523 78.651159 
L 265.783541 87.232159 
L 266.01435 157.044033 
L 266.706777 369.291632 
L 266.742286 369.268683 
L 267.035236 368.748565 
L 267.452468 367.586324 
L 267.905209 365.601008 
L 268.420091 362.230979 
L 269.085886 356.200397 
L 270.461864 341.082584 
L 271.012255 333.371022 
L 271.260818 326.49394 
L 271.411732 315.541462 
L 271.509382 291.40986 
L 271.5804 208.53591 
L 271.660295 78.681769 
L 271.731314 86.984803 
L 271.962123 156.620694 
L 272.65455 369.291388 
L 272.690059 369.270074 
L 272.974132 368.77033 
L 273.391364 367.621371 
L 273.835227 365.70194 
L 274.341232 362.444825 
L 274.989273 356.661378 
L 276.303109 342.331929 
L 276.942273 333.726442 
L 277.199714 326.91791 
L 277.359505 315.697594 
L 277.466032 287.473176 
L 277.53705 188.864404 
L 277.616945 78.689749 
L 277.679086 86.737041 
L 277.909895 156.192282 
L 278.6112 369.291193 
L 278.646709 369.26117 
L 278.966291 368.675714 
L 279.3924 367.437305 
L 279.845141 365.372755 
L 280.3689 361.832643 
L 281.05245 355.498747 
L 282.499445 339.407573 
L 282.961064 332.348403 
L 283.182995 325.390148 
L 283.325032 313.461517 
L 283.422682 282.9044 
L 283.4937 167.044801 
L 283.564718 78.659881 
L 283.626859 86.490066 
L 283.848791 152.734385 
L 284.558973 369.291478 
L 284.594482 369.262703 
L 284.905186 368.6984 
L 285.331295 367.473972 
L 285.784036 365.42873 
L 286.298918 361.983198 
L 286.973591 355.785674 
L 288.393955 340.073028 
L 288.891082 332.745203 
L 289.121891 325.871008 
L 289.272805 313.645566 
L 289.370455 283.702181 
L 289.441473 170.702748 
L 289.512491 78.63955 
L 289.574632 86.250034 
L 289.796564 152.310104 
L 290.506745 369.291648 
L 290.542255 369.264196 
L 290.852959 368.701177 
L 291.279068 367.478465 
L 291.731809 365.435597 
L 292.246691 361.993035 
L 292.921364 355.798487 
L 294.341727 340.088097 
L 294.838855 332.770604 
L 295.069664 325.928359 
L 295.220577 313.825606 
L 295.318227 284.472179 
L 295.389245 174.308807 
L 295.460264 78.630388 
L 295.522405 86.014266 
L 295.735459 148.860981 
L 296.454518 369.291734 
L 296.490027 369.265656 
L 296.791855 368.723506 
L 297.209086 367.546043 
L 297.661827 365.539109 
L 298.176709 362.141714 
L 298.842505 356.083354 
L 300.236236 340.738339 
L 300.768873 333.149095 
L 301.008559 326.380238 
L 301.159473 315.205696 
L 301.257123 290.11409 
L 301.328141 202.047671 
L 301.408036 78.633276 
L 301.479055 87.51161 
L 301.718741 160.536968 
L 302.402291 369.291752 
L 302.4378 369.267098 
L 302.73075 368.745557 
L 303.147982 367.581485 
L 303.600723 365.593564 
L 304.115605 362.220231 
L 304.7814 356.186279 
L 306.166255 340.962107 
L 306.707768 333.344479 
L 306.956332 326.434155 
L 307.107245 315.365327 
L 307.204895 290.731895 
L 307.275914 205.142846 
L 307.355809 78.648333 
L 307.426827 87.262332 
L 307.657636 157.095379 
L 308.350064 369.291657 
L 308.385573 369.268514 
L 308.678523 368.748239 
L 309.095755 367.585799 
L 309.548495 365.6002 
L 310.063377 362.229813 
L 310.729173 356.198865 
L 312.10515 341.080817 
L 312.655541 333.368145 
L 312.904105 326.487466 
L 313.055018 315.522484 
L 313.152668 291.337155 
L 313.223686 208.172439 
L 313.303582 78.677206 
L 313.3746 87.014781 
L 313.605409 156.672221 
L 314.297836 369.291423 
L 314.333345 369.269906 
L 314.617418 368.770007 
L 315.03465 367.620851 
L 315.478514 365.701143 
L 315.984518 362.443675 
L 316.632559 356.659859 
L 317.946395 342.330196 
L 318.585559 333.723668 
L 318.843 326.911747 
L 319.002791 315.67879 
L 319.109318 287.388553 
L 319.180336 188.443564 
L 319.260232 78.69396 
L 319.322373 86.766859 
L 319.553182 156.244042 
L 320.254486 369.291156 
L 320.289995 369.260986 
L 320.609577 368.675375 
L 321.035686 367.436757 
L 321.488427 365.37192 
L 322.012186 361.831443 
L 322.695736 355.497192 
L 324.142732 339.40571 
L 324.60435 332.345183 
L 324.826282 325.382782 
L 324.968318 313.439092 
L 325.065968 282.806023 
L 325.136986 166.596221 
L 325.208005 78.663016 
L 325.270145 86.519564 
L 325.492077 152.78625 
L 326.202259 369.291448 
L 326.237768 369.262518 
L 326.548473 368.69806 
L 326.974582 367.473423 
L 327.427323 365.427892 
L 327.942205 361.981997 
L 328.616877 355.784111 
L 329.318182 348.221137 
L 329.335936 349.141135 
L 329.664395 360.108976 
L 329.992855 364.609821 
L 330.330191 366.509974 
L 330.676405 367.326218 
L 331.031495 367.646778 
L 331.430973 367.710177 
L 331.972486 367.54932 
L 332.824705 367.033679 
L 334.777705 365.512463 
L 336.695195 364.156896 
L 338.08005 363.445528 
L 339.402764 363.01414 
L 340.876391 362.774964 
L 342.776127 362.707861 
L 376.234568 362.866542 
L 435.845455 362.866541 
L 435.845455 362.866541 
" style="fill:none;stroke:#ff0000;stroke-linecap:square;stroke-width:1.5;"/>
   </g>
   <g id="patch_3">
    <path d="M 63 384.48 
L 63 51.84 
" style="fill:none;stroke:#000000;stroke-linecap:square;stroke-linejoin:miter;stroke-width:0.8;"/>
   </g>
   <g id="patch_4">
    <path d="M 453.6 384.48 
L 453.6 51.84 
" style="fill:none;stroke:#000000;stroke-linecap:square;stroke-linejoin:miter;stroke-width:0.8;"/>
   </g>
   <g id="patch_5">
    <path d="M 63 384.48 
L 453.6 384.48 
" style="fill:none;stroke:#000000;stroke-linecap:square;stroke-linejoin:miter;stroke-width:0.8;"/>
   </g>
   <g id="patch_6">
    <path d="M 63 51.84 
L 453.6 51.84 
" style="fill:none;stroke:#000000;stroke-linecap:square;stroke-linejoin:miter;stroke-width:0.8;"/>
   </g>
   <g id="legend_1">
    <g id="patch_7">
     <path d="M 383.460938 89.19625 
L 446.6 89.19625 
Q 448.6 89.19625 448.6 87.19625 
L 448.6 58.84 
Q 448.6 56.84 446.6 56.84 
L 383.460938 56.84 
Q 381.460938 56.84 381.460938 58.84 
L 381.460938 87.19625 
Q 381.460938 89.19625 383.460938 89.19625 
z
" style="fill:#ffffff;opacity:0.8;stroke:#cccccc;stroke-linejoin:miter;"/>
    </g>
    <g id="line2d_15">
     <path d="M 385.460938 64.938437 
L 405.460938 64.938437 
" style="fill:none;stroke:#1f77b4;stroke-linecap:square;stroke-width:1.5;"/>
    </g>
    <g id="line2d_16"/>
    <g id="text_15">
     <!-- target -->
     <defs>
      <path d="M 41.109375 46.296875 
Q 39.59375 47.171875 37.8125 47.578125 
Q 36.03125 48 33.890625 48 
Q 26.265625 48 22.1875 43.046875 
Q 18.109375 38.09375 18.109375 28.8125 
L 18.109375 0 
L 9.078125 0 
L 9.078125 54.6875 
L 18.109375 54.6875 
L 18.109375 46.1875 
Q 20.953125 51.171875 25.484375 53.578125 
Q 30.03125 56 36.53125 56 
Q 37.453125 56 38.578125 55.875 
Q 39.703125 55.765625 41.0625 55.515625 
z
" id="DejaVuSans-114"/>
     </defs>
     <g transform="translate(413.460938 68.438437)scale(0.1 -0.1)">
      <use xlink:href="#DejaVuSans-116"/>
      <use x="39.208984" xlink:href="#DejaVuSans-97"/>
      <use x="100.488281" xlink:href="#DejaVuSans-114"/>
      <use x="141.585938" xlink:href="#DejaVuSans-103"/>
      <use x="205.0625" xlink:href="#DejaVuSans-101"/>
      <use x="266.585938" xlink:href="#DejaVuSans-116"/>
     </g>
    </g>
    <g id="line2d_17">
     <path d="M 385.460938 79.616562 
L 405.460938 79.616562 
" style="fill:none;stroke:#ff0000;stroke-linecap:square;stroke-width:1.5;"/>
    </g>
    <g id="line2d_18"/>
    <g id="text_16">
     <!-- model -->
     <defs>
      <path d="M 45.40625 46.390625 
L 45.40625 75.984375 
L 54.390625 75.984375 
L 54.390625 0 
L 45.40625 0 
L 45.40625 8.203125 
Q 42.578125 3.328125 38.25 0.953125 
Q 33.9375 -1.421875 27.875 -1.421875 
Q 17.96875 -1.421875 11.734375 6.484375 
Q 5.515625 14.40625 5.515625 27.296875 
Q 5.515625 40.1875 11.734375 48.09375 
Q 17.96875 56 27.875 56 
Q 33.9375 56 38.25 53.625 
Q 42.578125 51.265625 45.40625 46.390625 
z
M 14.796875 27.296875 
Q 14.796875 17.390625 18.875 11.75 
Q 22.953125 6.109375 30.078125 6.109375 
Q 37.203125 6.109375 41.296875 11.75 
Q 45.40625 17.390625 45.40625 27.296875 
Q 45.40625 37.203125 41.296875 42.84375 
Q 37.203125 48.484375 30.078125 48.484375 
Q 22.953125 48.484375 18.875 42.84375 
Q 14.796875 37.203125 14.796875 27.296875 
z
" id="DejaVuSans-100"/>
     </defs>
     <g transform="translate(413.460938 83.116562)scale(0.1 -0.1)">
      <use xlink:href="#DejaVuSans-109"/>
      <use x="97.412109" xlink:href="#DejaVuSans-111"/>
      <use x="158.59375" xlink:href="#DejaVuSans-100"/>
      <use x="222.070312" xlink:href="#DejaVuSans-101"/>
      <use x="283.59375" xlink:href="#DejaVuSans-108"/>
     </g>
    </g>
   </g>
  </g>
 </g>
 <defs>
  <clipPath id="p1f1ac675ba">
   <rect height="332.64" width="390.6" x="63" y="51.84"/>
  </clipPath>
 </defs>
</svg>
