<?xml version="1.0" encoding="utf-8" standalone="no"?>
<!DOCTYPE svg PUBLIC "-//W3C//DTD SVG 1.1//EN"
  "http://www.w3.org/Graphics/SVG/1.1/DTD/svg11.dtd">
<!-- Created with matplotlib (http://matplotlib.org/) -->
<svg height="432pt" version="1.1" viewBox="0 0 504 432" width="504pt" xmlns="http://www.w3.org/2000/svg" xmlns:xlink="http://www.w3.org/1999/xlink">
 <defs>
  <style type="text/css">
*{stroke-linecap:butt;stroke-linejoin:round;}
  </style>
 </defs>
 <g id="figure_1">
  <g id="patch_1">
   <path d="M 0 432 
L 504 432 
L 504 0 
L 0 0 
z
" style="fill:#ffffff;"/>
  </g>
  <g id="axes_1">
   <g id="patch_2">
    <path d="M 63 384.48 
L 453.6 384.48 
L 453.6 51.84 
L 63 51.84 
z
" style="fill:#ffffff;"/>
   </g>
   <g id="matplotlib.axis_1">
    <g id="xtick_1">
     <g id="line2d_1">
      <defs>
       <path d="M 0 0 
L 0 3.5 
" id="m3863c5849f" style="stroke:#000000;stroke-width:0.8;"/>
      </defs>
      <g>
       <use style="stroke:#000000;stroke-width:0.8;" x="80.754545" xlink:href="#m3863c5849f" y="384.48"/>
      </g>
     </g>
     <g id="text_1">
      <!-- 0 -->
      <defs>
       <path d="M 31.78125 66.40625 
Q 24.171875 66.40625 20.328125 58.90625 
Q 16.5 51.421875 16.5 36.375 
Q 16.5 21.390625 20.328125 13.890625 
Q 24.171875 6.390625 31.78125 6.390625 
Q 39.453125 6.390625 43.28125 13.890625 
Q 47.125 21.390625 47.125 36.375 
Q 47.125 51.421875 43.28125 58.90625 
Q 39.453125 66.40625 31.78125 66.40625 
z
M 31.78125 74.21875 
Q 44.046875 74.21875 50.515625 64.515625 
Q 56.984375 54.828125 56.984375 36.375 
Q 56.984375 17.96875 50.515625 8.265625 
Q 44.046875 -1.421875 31.78125 -1.421875 
Q 19.53125 -1.421875 13.0625 8.265625 
Q 6.59375 17.96875 6.59375 36.375 
Q 6.59375 54.828125 13.0625 64.515625 
Q 19.53125 74.21875 31.78125 74.21875 
z
" id="DejaVuSans-30"/>
      </defs>
      <g transform="translate(77.573295 399.078438)scale(0.1 -0.1)">
       <use xlink:href="#DejaVuSans-30"/>
      </g>
     </g>
    </g>
    <g id="xtick_2">
     <g id="line2d_2">
      <g>
       <use style="stroke:#000000;stroke-width:0.8;" x="151.767796" xlink:href="#m3863c5849f" y="384.48"/>
      </g>
     </g>
     <g id="text_2">
      <!-- 720 -->
      <defs>
       <path d="M 8.203125 72.90625 
L 55.078125 72.90625 
L 55.078125 68.703125 
L 28.609375 0 
L 18.3125 0 
L 43.21875 64.59375 
L 8.203125 64.59375 
z
" id="DejaVuSans-37"/>
       <path d="M 19.1875 8.296875 
L 53.609375 8.296875 
L 53.609375 0 
L 7.328125 0 
L 7.328125 8.296875 
Q 12.9375 14.109375 22.625 23.890625 
Q 32.328125 33.6875 34.8125 36.53125 
Q 39.546875 41.84375 41.421875 45.53125 
Q 43.3125 49.21875 43.3125 52.78125 
Q 43.3125 58.59375 39.234375 62.25 
Q 35.15625 65.921875 28.609375 65.921875 
Q 23.96875 65.921875 18.8125 64.3125 
Q 13.671875 62.703125 7.8125 59.421875 
L 7.8125 69.390625 
Q 13.765625 71.78125 18.9375 73 
Q 24.125 74.21875 28.421875 74.21875 
Q 39.75 74.21875 46.484375 68.546875 
Q 53.21875 62.890625 53.21875 53.421875 
Q 53.21875 48.921875 51.53125 44.890625 
Q 49.859375 40.875 45.40625 35.40625 
Q 44.1875 33.984375 37.640625 27.21875 
Q 31.109375 20.453125 19.1875 8.296875 
z
" id="DejaVuSans-32"/>
      </defs>
      <g transform="translate(142.224046 399.078438)scale(0.1 -0.1)">
       <use xlink:href="#DejaVuSans-37"/>
       <use x="63.623047" xlink:href="#DejaVuSans-32"/>
       <use x="127.246094" xlink:href="#DejaVuSans-30"/>
      </g>
     </g>
    </g>
    <g id="xtick_3">
     <g id="line2d_3">
      <g>
       <use style="stroke:#000000;stroke-width:0.8;" x="222.781046" xlink:href="#m3863c5849f" y="384.48"/>
      </g>
     </g>
     <g id="text_3">
      <!-- 1440 -->
      <defs>
       <path d="M 12.40625 8.296875 
L 28.515625 8.296875 
L 28.515625 63.921875 
L 10.984375 60.40625 
L 10.984375 69.390625 
L 28.421875 72.90625 
L 38.28125 72.90625 
L 38.28125 8.296875 
L 54.390625 8.296875 
L 54.390625 0 
L 12.40625 0 
z
" id="DejaVuSans-31"/>
       <path d="M 37.796875 64.3125 
L 12.890625 25.390625 
L 37.796875 25.390625 
z
M 35.203125 72.90625 
L 47.609375 72.90625 
L 47.609375 25.390625 
L 58.015625 25.390625 
L 58.015625 17.1875 
L 47.609375 17.1875 
L 47.609375 0 
L 37.796875 0 
L 37.796875 17.1875 
L 4.890625 17.1875 
L 4.890625 26.703125 
z
" id="DejaVuSans-34"/>
      </defs>
      <g transform="translate(210.056046 399.078438)scale(0.1 -0.1)">
       <use xlink:href="#DejaVuSans-31"/>
       <use x="63.623047" xlink:href="#DejaVuSans-34"/>
       <use x="127.246094" xlink:href="#DejaVuSans-34"/>
       <use x="190.869141" xlink:href="#DejaVuSans-30"/>
      </g>
     </g>
    </g>
    <g id="xtick_4">
     <g id="line2d_4">
      <g>
       <use style="stroke:#000000;stroke-width:0.8;" x="293.794296" xlink:href="#m3863c5849f" y="384.48"/>
      </g>
     </g>
     <g id="text_4">
      <!-- 2160 -->
      <defs>
       <path d="M 33.015625 40.375 
Q 26.375 40.375 22.484375 35.828125 
Q 18.609375 31.296875 18.609375 23.390625 
Q 18.609375 15.53125 22.484375 10.953125 
Q 26.375 6.390625 33.015625 6.390625 
Q 39.65625 6.390625 43.53125 10.953125 
Q 47.40625 15.53125 47.40625 23.390625 
Q 47.40625 31.296875 43.53125 35.828125 
Q 39.65625 40.375 33.015625 40.375 
z
M 52.59375 71.296875 
L 52.59375 62.3125 
Q 48.875 64.0625 45.09375 64.984375 
Q 41.3125 65.921875 37.59375 65.921875 
Q 27.828125 65.921875 22.671875 59.328125 
Q 17.53125 52.734375 16.796875 39.40625 
Q 19.671875 43.65625 24.015625 45.921875 
Q 28.375 48.1875 33.59375 48.1875 
Q 44.578125 48.1875 50.953125 41.515625 
Q 57.328125 34.859375 57.328125 23.390625 
Q 57.328125 12.15625 50.6875 5.359375 
Q 44.046875 -1.421875 33.015625 -1.421875 
Q 20.359375 -1.421875 13.671875 8.265625 
Q 6.984375 17.96875 6.984375 36.375 
Q 6.984375 53.65625 15.1875 63.9375 
Q 23.390625 74.21875 37.203125 74.21875 
Q 40.921875 74.21875 44.703125 73.484375 
Q 48.484375 72.75 52.59375 71.296875 
z
" id="DejaVuSans-36"/>
      </defs>
      <g transform="translate(281.069296 399.078438)scale(0.1 -0.1)">
       <use xlink:href="#DejaVuSans-32"/>
       <use x="63.623047" xlink:href="#DejaVuSans-31"/>
       <use x="127.246094" xlink:href="#DejaVuSans-36"/>
       <use x="190.869141" xlink:href="#DejaVuSans-30"/>
      </g>
     </g>
    </g>
    <g id="xtick_5">
     <g id="line2d_5">
      <g>
       <use style="stroke:#000000;stroke-width:0.8;" x="364.807547" xlink:href="#m3863c5849f" y="384.48"/>
      </g>
     </g>
     <g id="text_5">
      <!-- 2880 -->
      <defs>
       <path d="M 31.78125 34.625 
Q 24.75 34.625 20.71875 30.859375 
Q 16.703125 27.09375 16.703125 20.515625 
Q 16.703125 13.921875 20.71875 10.15625 
Q 24.75 6.390625 31.78125 6.390625 
Q 38.8125 6.390625 42.859375 10.171875 
Q 46.921875 13.96875 46.921875 20.515625 
Q 46.921875 27.09375 42.890625 30.859375 
Q 38.875 34.625 31.78125 34.625 
z
M 21.921875 38.8125 
Q 15.578125 40.375 12.03125 44.71875 
Q 8.5 49.078125 8.5 55.328125 
Q 8.5 64.0625 14.71875 69.140625 
Q 20.953125 74.21875 31.78125 74.21875 
Q 42.671875 74.21875 48.875 69.140625 
Q 55.078125 64.0625 55.078125 55.328125 
Q 55.078125 49.078125 51.53125 44.71875 
Q 48 40.375 41.703125 38.8125 
Q 48.828125 37.15625 52.796875 32.3125 
Q 56.78125 27.484375 56.78125 20.515625 
Q 56.78125 9.90625 50.3125 4.234375 
Q 43.84375 -1.421875 31.78125 -1.421875 
Q 19.734375 -1.421875 13.25 4.234375 
Q 6.78125 9.90625 6.78125 20.515625 
Q 6.78125 27.484375 10.78125 32.3125 
Q 14.796875 37.15625 21.921875 38.8125 
z
M 18.3125 54.390625 
Q 18.3125 48.734375 21.84375 45.5625 
Q 25.390625 42.390625 31.78125 42.390625 
Q 38.140625 42.390625 41.71875 45.5625 
Q 45.3125 48.734375 45.3125 54.390625 
Q 45.3125 60.0625 41.71875 63.234375 
Q 38.140625 66.40625 31.78125 66.40625 
Q 25.390625 66.40625 21.84375 63.234375 
Q 18.3125 60.0625 18.3125 54.390625 
z
" id="DejaVuSans-38"/>
      </defs>
      <g transform="translate(352.082547 399.078438)scale(0.1 -0.1)">
       <use xlink:href="#DejaVuSans-32"/>
       <use x="63.623047" xlink:href="#DejaVuSans-38"/>
       <use x="127.246094" xlink:href="#DejaVuSans-38"/>
       <use x="190.869141" xlink:href="#DejaVuSans-30"/>
      </g>
     </g>
    </g>
    <g id="text_6">
     <!-- time [ms] -->
     <defs>
      <path d="M 18.3125 70.21875 
L 18.3125 54.6875 
L 36.8125 54.6875 
L 36.8125 47.703125 
L 18.3125 47.703125 
L 18.3125 18.015625 
Q 18.3125 11.328125 20.140625 9.421875 
Q 21.96875 7.515625 27.59375 7.515625 
L 36.8125 7.515625 
L 36.8125 0 
L 27.59375 0 
Q 17.1875 0 13.234375 3.875 
Q 9.28125 7.765625 9.28125 18.015625 
L 9.28125 47.703125 
L 2.6875 47.703125 
L 2.6875 54.6875 
L 9.28125 54.6875 
L 9.28125 70.21875 
z
" id="DejaVuSans-74"/>
      <path d="M 9.421875 54.6875 
L 18.40625 54.6875 
L 18.40625 0 
L 9.421875 0 
z
M 9.421875 75.984375 
L 18.40625 75.984375 
L 18.40625 64.59375 
L 9.421875 64.59375 
z
" id="DejaVuSans-69"/>
      <path d="M 52 44.1875 
Q 55.375 50.25 60.0625 53.125 
Q 64.75 56 71.09375 56 
Q 79.640625 56 84.28125 50.015625 
Q 88.921875 44.046875 88.921875 33.015625 
L 88.921875 0 
L 79.890625 0 
L 79.890625 32.71875 
Q 79.890625 40.578125 77.09375 44.375 
Q 74.3125 48.1875 68.609375 48.1875 
Q 61.625 48.1875 57.5625 43.546875 
Q 53.515625 38.921875 53.515625 30.90625 
L 53.515625 0 
L 44.484375 0 
L 44.484375 32.71875 
Q 44.484375 40.625 41.703125 44.40625 
Q 38.921875 48.1875 33.109375 48.1875 
Q 26.21875 48.1875 22.15625 43.53125 
Q 18.109375 38.875 18.109375 30.90625 
L 18.109375 0 
L 9.078125 0 
L 9.078125 54.6875 
L 18.109375 54.6875 
L 18.109375 46.1875 
Q 21.1875 51.21875 25.484375 53.609375 
Q 29.78125 56 35.6875 56 
Q 41.65625 56 45.828125 52.96875 
Q 50 49.953125 52 44.1875 
z
" id="DejaVuSans-6d"/>
      <path d="M 56.203125 29.59375 
L 56.203125 25.203125 
L 14.890625 25.203125 
Q 15.484375 15.921875 20.484375 11.0625 
Q 25.484375 6.203125 34.421875 6.203125 
Q 39.59375 6.203125 44.453125 7.46875 
Q 49.3125 8.734375 54.109375 11.28125 
L 54.109375 2.78125 
Q 49.265625 0.734375 44.1875 -0.34375 
Q 39.109375 -1.421875 33.890625 -1.421875 
Q 20.796875 -1.421875 13.15625 6.1875 
Q 5.515625 13.8125 5.515625 26.8125 
Q 5.515625 40.234375 12.765625 48.109375 
Q 20.015625 56 32.328125 56 
Q 43.359375 56 49.78125 48.890625 
Q 56.203125 41.796875 56.203125 29.59375 
z
M 47.21875 32.234375 
Q 47.125 39.59375 43.09375 43.984375 
Q 39.0625 48.390625 32.421875 48.390625 
Q 24.90625 48.390625 20.390625 44.140625 
Q 15.875 39.890625 15.1875 32.171875 
z
" id="DejaVuSans-65"/>
      <path id="DejaVuSans-20"/>
      <path d="M 8.59375 75.984375 
L 29.296875 75.984375 
L 29.296875 69 
L 17.578125 69 
L 17.578125 -6.203125 
L 29.296875 -6.203125 
L 29.296875 -13.1875 
L 8.59375 -13.1875 
z
" id="DejaVuSans-5b"/>
      <path d="M 44.28125 53.078125 
L 44.28125 44.578125 
Q 40.484375 46.53125 36.375 47.5 
Q 32.28125 48.484375 27.875 48.484375 
Q 21.1875 48.484375 17.84375 46.4375 
Q 14.5 44.390625 14.5 40.28125 
Q 14.5 37.15625 16.890625 35.375 
Q 19.28125 33.59375 26.515625 31.984375 
L 29.59375 31.296875 
Q 39.15625 29.25 43.1875 25.515625 
Q 47.21875 21.78125 47.21875 15.09375 
Q 47.21875 7.46875 41.1875 3.015625 
Q 35.15625 -1.421875 24.609375 -1.421875 
Q 20.21875 -1.421875 15.453125 -0.5625 
Q 10.6875 0.296875 5.421875 2 
L 5.421875 11.28125 
Q 10.40625 8.6875 15.234375 7.390625 
Q 20.0625 6.109375 24.8125 6.109375 
Q 31.15625 6.109375 34.5625 8.28125 
Q 37.984375 10.453125 37.984375 14.40625 
Q 37.984375 18.0625 35.515625 20.015625 
Q 33.0625 21.96875 24.703125 23.78125 
L 21.578125 24.515625 
Q 13.234375 26.265625 9.515625 29.90625 
Q 5.8125 33.546875 5.8125 39.890625 
Q 5.8125 47.609375 11.28125 51.796875 
Q 16.75 56 26.8125 56 
Q 31.78125 56 36.171875 55.265625 
Q 40.578125 54.546875 44.28125 53.078125 
z
" id="DejaVuSans-73"/>
      <path d="M 30.421875 75.984375 
L 30.421875 -13.1875 
L 9.71875 -13.1875 
L 9.71875 -6.203125 
L 21.390625 -6.203125 
L 21.390625 69 
L 9.71875 69 
L 9.71875 75.984375 
z
" id="DejaVuSans-5d"/>
     </defs>
     <g transform="translate(234.038281 412.756563)scale(0.1 -0.1)">
      <use xlink:href="#DejaVuSans-74"/>
      <use x="39.208984" xlink:href="#DejaVuSans-69"/>
      <use x="66.992188" xlink:href="#DejaVuSans-6d"/>
      <use x="164.404297" xlink:href="#DejaVuSans-65"/>
      <use x="225.927734" xlink:href="#DejaVuSans-20"/>
      <use x="257.714844" xlink:href="#DejaVuSans-5b"/>
      <use x="296.728516" xlink:href="#DejaVuSans-6d"/>
      <use x="394.140625" xlink:href="#DejaVuSans-73"/>
      <use x="446.240234" xlink:href="#DejaVuSans-5d"/>
     </g>
    </g>
   </g>
   <g id="matplotlib.axis_2">
    <g id="ytick_1">
     <g id="line2d_6">
      <defs>
       <path d="M 0 0 
L -3.5 0 
" id="m7ede25c6eb" style="stroke:#000000;stroke-width:0.8;"/>
      </defs>
      <g>
       <use style="stroke:#000000;stroke-width:0.8;" x="63" xlink:href="#m7ede25c6eb" y="335.4302"/>
      </g>
     </g>
     <g id="text_7">
      <!-- −60 -->
      <defs>
       <path d="M 10.59375 35.5 
L 73.1875 35.5 
L 73.1875 27.203125 
L 10.59375 27.203125 
z
" id="DejaVuSans-2212"/>
      </defs>
      <g transform="translate(34.895313 339.229419)scale(0.1 -0.1)">
       <use xlink:href="#DejaVuSans-2212"/>
       <use x="83.789062" xlink:href="#DejaVuSans-36"/>
       <use x="147.412109" xlink:href="#DejaVuSans-30"/>
      </g>
     </g>
    </g>
    <g id="ytick_2">
     <g id="line2d_7">
      <g>
       <use style="stroke:#000000;stroke-width:0.8;" x="63" xlink:href="#m7ede25c6eb" y="285.337504"/>
      </g>
     </g>
     <g id="text_8">
      <!-- −40 -->
      <g transform="translate(34.895313 289.136723)scale(0.1 -0.1)">
       <use xlink:href="#DejaVuSans-2212"/>
       <use x="83.789062" xlink:href="#DejaVuSans-34"/>
       <use x="147.412109" xlink:href="#DejaVuSans-30"/>
      </g>
     </g>
    </g>
    <g id="ytick_3">
     <g id="line2d_8">
      <g>
       <use style="stroke:#000000;stroke-width:0.8;" x="63" xlink:href="#m7ede25c6eb" y="235.244808"/>
      </g>
     </g>
     <g id="text_9">
      <!-- −20 -->
      <g transform="translate(34.895313 239.044027)scale(0.1 -0.1)">
       <use xlink:href="#DejaVuSans-2212"/>
       <use x="83.789062" xlink:href="#DejaVuSans-32"/>
       <use x="147.412109" xlink:href="#DejaVuSans-30"/>
      </g>
     </g>
    </g>
    <g id="ytick_4">
     <g id="line2d_9">
      <g>
       <use style="stroke:#000000;stroke-width:0.8;" x="63" xlink:href="#m7ede25c6eb" y="185.152113"/>
      </g>
     </g>
     <g id="text_10">
      <!-- 0 -->
      <g transform="translate(49.6375 188.951332)scale(0.1 -0.1)">
       <use xlink:href="#DejaVuSans-30"/>
      </g>
     </g>
    </g>
    <g id="ytick_5">
     <g id="line2d_10">
      <g>
       <use style="stroke:#000000;stroke-width:0.8;" x="63" xlink:href="#m7ede25c6eb" y="135.059417"/>
      </g>
     </g>
     <g id="text_11">
      <!-- 20 -->
      <g transform="translate(43.275 138.858636)scale(0.1 -0.1)">
       <use xlink:href="#DejaVuSans-32"/>
       <use x="63.623047" xlink:href="#DejaVuSans-30"/>
      </g>
     </g>
    </g>
    <g id="ytick_6">
     <g id="line2d_11">
      <g>
       <use style="stroke:#000000;stroke-width:0.8;" x="63" xlink:href="#m7ede25c6eb" y="84.966721"/>
      </g>
     </g>
     <g id="text_12">
      <!-- 40 -->
      <g transform="translate(43.275 88.76594)scale(0.1 -0.1)">
       <use xlink:href="#DejaVuSans-34"/>
       <use x="63.623047" xlink:href="#DejaVuSans-30"/>
      </g>
     </g>
    </g>
    <g id="text_13">
     <!-- Voltage [mV] -->
     <defs>
      <path d="M 28.609375 0 
L 0.78125 72.90625 
L 11.078125 72.90625 
L 34.1875 11.53125 
L 57.328125 72.90625 
L 67.578125 72.90625 
L 39.796875 0 
z
" id="DejaVuSans-56"/>
      <path d="M 30.609375 48.390625 
Q 23.390625 48.390625 19.1875 42.75 
Q 14.984375 37.109375 14.984375 27.296875 
Q 14.984375 17.484375 19.15625 11.84375 
Q 23.34375 6.203125 30.609375 6.203125 
Q 37.796875 6.203125 41.984375 11.859375 
Q 46.1875 17.53125 46.1875 27.296875 
Q 46.1875 37.015625 41.984375 42.703125 
Q 37.796875 48.390625 30.609375 48.390625 
z
M 30.609375 56 
Q 42.328125 56 49.015625 48.375 
Q 55.71875 40.765625 55.71875 27.296875 
Q 55.71875 13.875 49.015625 6.21875 
Q 42.328125 -1.421875 30.609375 -1.421875 
Q 18.84375 -1.421875 12.171875 6.21875 
Q 5.515625 13.875 5.515625 27.296875 
Q 5.515625 40.765625 12.171875 48.375 
Q 18.84375 56 30.609375 56 
z
" id="DejaVuSans-6f"/>
      <path d="M 9.421875 75.984375 
L 18.40625 75.984375 
L 18.40625 0 
L 9.421875 0 
z
" id="DejaVuSans-6c"/>
      <path d="M 34.28125 27.484375 
Q 23.390625 27.484375 19.1875 25 
Q 14.984375 22.515625 14.984375 16.5 
Q 14.984375 11.71875 18.140625 8.90625 
Q 21.296875 6.109375 26.703125 6.109375 
Q 34.1875 6.109375 38.703125 11.40625 
Q 43.21875 16.703125 43.21875 25.484375 
L 43.21875 27.484375 
z
M 52.203125 31.203125 
L 52.203125 0 
L 43.21875 0 
L 43.21875 8.296875 
Q 40.140625 3.328125 35.546875 0.953125 
Q 30.953125 -1.421875 24.3125 -1.421875 
Q 15.921875 -1.421875 10.953125 3.296875 
Q 6 8.015625 6 15.921875 
Q 6 25.140625 12.171875 29.828125 
Q 18.359375 34.515625 30.609375 34.515625 
L 43.21875 34.515625 
L 43.21875 35.40625 
Q 43.21875 41.609375 39.140625 45 
Q 35.0625 48.390625 27.6875 48.390625 
Q 23 48.390625 18.546875 47.265625 
Q 14.109375 46.140625 10.015625 43.890625 
L 10.015625 52.203125 
Q 14.9375 54.109375 19.578125 55.046875 
Q 24.21875 56 28.609375 56 
Q 40.484375 56 46.34375 49.84375 
Q 52.203125 43.703125 52.203125 31.203125 
z
" id="DejaVuSans-61"/>
      <path d="M 45.40625 27.984375 
Q 45.40625 37.75 41.375 43.109375 
Q 37.359375 48.484375 30.078125 48.484375 
Q 22.859375 48.484375 18.828125 43.109375 
Q 14.796875 37.75 14.796875 27.984375 
Q 14.796875 18.265625 18.828125 12.890625 
Q 22.859375 7.515625 30.078125 7.515625 
Q 37.359375 7.515625 41.375 12.890625 
Q 45.40625 18.265625 45.40625 27.984375 
z
M 54.390625 6.78125 
Q 54.390625 -7.171875 48.1875 -13.984375 
Q 42 -20.796875 29.203125 -20.796875 
Q 24.46875 -20.796875 20.265625 -20.09375 
Q 16.0625 -19.390625 12.109375 -17.921875 
L 12.109375 -9.1875 
Q 16.0625 -11.328125 19.921875 -12.34375 
Q 23.78125 -13.375 27.78125 -13.375 
Q 36.625 -13.375 41.015625 -8.765625 
Q 45.40625 -4.15625 45.40625 5.171875 
L 45.40625 9.625 
Q 42.625 4.78125 38.28125 2.390625 
Q 33.9375 0 27.875 0 
Q 17.828125 0 11.671875 7.65625 
Q 5.515625 15.328125 5.515625 27.984375 
Q 5.515625 40.671875 11.671875 48.328125 
Q 17.828125 56 27.875 56 
Q 33.9375 56 38.28125 53.609375 
Q 42.625 51.21875 45.40625 46.390625 
L 45.40625 54.6875 
L 54.390625 54.6875 
z
" id="DejaVuSans-67"/>
     </defs>
     <g transform="translate(28.815625 251.079531)rotate(-90)scale(0.1 -0.1)">
      <use xlink:href="#DejaVuSans-56"/>
      <use x="68.298828" xlink:href="#DejaVuSans-6f"/>
      <use x="129.480469" xlink:href="#DejaVuSans-6c"/>
      <use x="157.263672" xlink:href="#DejaVuSans-74"/>
      <use x="196.472656" xlink:href="#DejaVuSans-61"/>
      <use x="257.751953" xlink:href="#DejaVuSans-67"/>
      <use x="321.228516" xlink:href="#DejaVuSans-65"/>
      <use x="382.751953" xlink:href="#DejaVuSans-20"/>
      <use x="414.539062" xlink:href="#DejaVuSans-5b"/>
      <use x="453.552734" xlink:href="#DejaVuSans-6d"/>
      <use x="550.964844" xlink:href="#DejaVuSans-56"/>
      <use x="619.373047" xlink:href="#DejaVuSans-5d"/>
     </g>
    </g>
   </g>
   <g id="line2d_12">
    <path clip-path="url(#p40592511e3)" d="M 80.754545 347.953374 
L 81.114543 342.460675 
L 81.543582 338.55425 
L 81.943031 336.721637 
L 82.317823 335.919893 
L 82.67289 335.629831 
L 83.052613 335.604518 
L 83.590144 335.818802 
L 87.303545 337.725422 
L 89.034493 338.160982 
L 91.302972 338.490054 
L 94.547883 338.71919 
L 99.967575 338.851689 
L 100.480448 338.85722 
L 100.633324 352.986585 
L 100.929213 360.850391 
L 101.299073 365.413407 
L 101.683728 367.705984 
L 102.063452 368.775477 
L 102.433313 369.22347 
L 102.817968 369.358041 
L 103.316047 369.279707 
L 104.218507 368.869462 
L 106.723697 367.691744 
L 108.577931 367.103225 
L 110.757644 366.652459 
L 113.529133 366.317762 
L 117.415136 366.089328 
L 123.904958 365.958861 
L 130.069303 365.925919 
L 130.222178 351.499552 
L 130.542724 341.995484 
L 130.952037 335.829389 
L 131.361349 332.65814 
L 131.736141 331.253892 
L 132.041893 330.823408 
L 132.278604 330.818426 
L 132.549835 331.069532 
L 133.008462 331.859509 
L 134.645712 334.877068 
L 135.50872 335.907552 
L 136.455564 336.693927 
L 137.565146 337.323113 
L 138.931165 337.834438 
L 139.932254 338.092499 
L 139.937186 347.953374 
L 140.045678 346.075541 
L 140.524031 340.080892 
L 140.938275 337.420154 
L 141.327862 336.208246 
L 141.692791 335.72108 
L 142.052789 335.589992 
L 142.49169 335.682938 
L 143.270863 336.120517 
L 145.223728 337.239948 
L 146.693307 337.789575 
L 148.478501 338.210136 
L 150.840678 338.525634 
L 154.272985 338.741974 
L 159.663088 338.85722 
L 159.815964 335.992247 
L 160.121716 334.255414 
L 160.496508 333.266953 
L 160.881163 332.821405 
L 161.295407 332.669774 
L 161.857595 332.721493 
L 163.124984 333.133405 
L 164.998945 333.651586 
L 167.080028 333.977704 
L 170.058639 334.200927 
L 175.128196 334.329078 
L 188.369209 334.372413 
L 189.251943 334.372746 
L 189.404818 337.242441 
L 189.700707 338.87039 
L 190.060705 339.740607 
L 190.440428 340.127217 
L 190.889193 340.264913 
L 191.569736 340.211905 
L 197.640383 339.21297 
L 199.114894 339.116156 
L 199.119826 347.953374 
L 199.228318 346.075541 
L 199.706671 340.080892 
L 200.120915 337.420154 
L 200.510502 336.208246 
L 200.875431 335.72108 
L 201.235429 335.589992 
L 201.67433 335.682938 
L 202.453503 336.120517 
L 204.406368 337.239948 
L 205.875947 337.789575 
L 207.661142 338.210136 
L 210.023318 338.525634 
L 213.455626 338.741974 
L 218.845729 338.85722 
L 218.998604 333.094879 
L 219.31915 329.249339 
L 219.762983 326.429052 
L 220.359692 324.102733 
L 220.714758 322.441721 
L 220.828182 320.662601 
L 220.862702 316.872487 
L 220.887359 222.037139 
L 220.907085 66.999686 
L 221.000783 179.658619 
L 221.227631 360.488624 
L 221.267083 360.618469 
L 221.326261 360.413516 
L 221.503794 358.628595 
L 221.883518 352.217289 
L 222.736663 337.735084 
L 223.190359 333.755658 
L 223.619397 331.757551 
L 224.048435 330.729219 
L 224.492268 330.203086 
L 225.010073 329.931488 
L 225.744863 329.818377 
L 227.288415 329.860573 
L 232.984269 330.064775 
L 243.088863 330.129156 
L 248.434583 330.1295 
L 248.587459 335.891568 
L 248.878416 339.039071 
L 249.223619 340.64062 
L 249.573754 341.33378 
L 249.92882 341.58595 
L 250.352927 341.605674 
L 251.053196 341.378405 
L 254.327696 340.121235 
L 256.369327 339.665378 
L 258.297534 339.396507 
L 258.302466 347.953374 
L 258.410958 346.075541 
L 258.889311 340.080892 
L 259.303555 337.420154 
L 259.693142 336.208246 
L 260.058071 335.72108 
L 260.418069 335.589992 
L 260.85697 335.682938 
L 261.636143 336.120517 
L 263.589008 337.239948 
L 265.058587 337.789575 
L 266.843782 338.210136 
L 269.205959 338.525634 
L 272.638266 338.741974 
L 278.028369 338.85722 
L 278.181244 330.149456 
L 278.630009 316.577272 
L 278.654666 232.255271 
L 278.674392 67.303682 
L 278.76809 180.557634 
L 278.994938 358.758903 
L 279.014664 358.795278 
L 279.063979 358.610925 
L 279.231649 356.736513 
L 279.606441 349.707766 
L 280.543421 331.614472 
L 281.026706 326.77084 
L 281.539579 323.753448 
L 282.372999 319.37516 
L 282.446971 316.45599 
L 282.461765 306.584768 
L 282.501217 68.573244 
L 282.594915 187.316867 
L 282.816832 358.63889 
L 282.84642 358.725767 
L 282.900667 358.531333 
L 283.068337 356.724872 
L 283.44806 349.835657 
L 284.301206 334.229037 
L 284.759833 329.900523 
L 285.198734 327.675027 
L 285.637636 326.496915 
L 286.091331 325.870027 
L 286.594342 325.545313 
L 287.235434 325.409807 
L 288.295701 325.446322 
L 293.631558 325.835749 
L 299.909326 325.932734 
L 307.617223 325.939869 
L 307.77503 334.823033 
L 308.061056 339.363691 
L 308.401328 341.621372 
L 308.741599 342.567255 
L 309.067077 342.898818 
L 309.417212 342.947118 
L 309.920222 342.762737 
L 311.197474 341.969094 
L 312.903765 341.029505 
L 314.570604 340.372089 
L 316.479085 339.864454 
L 317.480174 339.675046 
L 317.485106 347.953374 
L 317.593598 346.075541 
L 318.071951 340.080892 
L 318.486195 337.420154 
L 318.875782 336.208246 
L 319.240711 335.72108 
L 319.600709 335.589992 
L 320.03961 335.682938 
L 320.818783 336.120517 
L 322.771648 337.239948 
L 324.241228 337.789575 
L 326.026422 338.210136 
L 328.388599 338.525634 
L 331.820906 338.741974 
L 337.211009 338.85722 
L 337.368816 326.927686 
L 337.575938 315.287989 
L 337.600595 210.522107 
L 337.620321 66.96 
L 337.709088 176.927791 
L 337.940867 357.113565 
L 337.975387 357.013963 
L 338.108537 355.54808 
L 338.448809 348.997458 
L 339.652089 323.810937 
L 339.992361 317.362827 
L 340.026881 312.027804 
L 340.071265 68.669306 
L 340.179757 218.876448 
L 340.342496 357.383106 
L 340.391811 357.767678 
L 340.45592 357.440734 
L 340.65811 354.676275 
L 341.097012 345.246458 
L 341.86139 329.435819 
L 342.374264 323.440218 
L 342.946315 317.211056 
L 342.990698 313.552977 
L 343.010424 263.928302 
L 343.040013 69.973975 
L 343.133711 194.48797 
L 343.345764 356.964248 
L 343.370422 357.030805 
L 343.424668 356.802857 
L 343.602201 354.630718 
L 344.001651 346.612181 
L 344.810413 330.572819 
L 345.283834 325.5298 
L 345.776982 322.496922 
L 346.837249 316.910924 
L 346.886564 313.829249 
L 346.901358 286.654849 
L 346.94081 71.067839 
L 347.034508 198.14776 
L 347.24163 356.247641 
L 347.276151 356.393118 
L 347.335328 356.163824 
L 347.50793 354.137716 
L 347.902448 346.446442 
L 348.686553 331.480413 
L 349.150111 326.758053 
L 349.61367 324.136806 
L 350.101886 322.570067 
L 350.639417 321.556522 
L 351.236126 320.888914 
L 351.872286 320.49889 
L 352.508446 320.363239 
L 353.169264 320.454673 
L 354.135833 320.850253 
L 355.546235 321.380691 
L 356.76431 321.576378 
L 358.677723 321.62482 
L 366.799863 321.59842 
L 366.95767 333.790107 
L 367.233833 339.743935 
L 367.564242 342.657845 
L 367.894651 343.867352 
L 368.210265 344.292491 
L 368.520948 344.364154 
L 368.930261 344.203788 
L 369.72916 343.596722 
L 371.810242 341.99927 
L 373.329137 341.140809 
L 374.97625 340.468412 
L 376.662814 339.9901 
L 376.667746 347.953374 
L 376.776238 346.075541 
L 377.254592 340.080892 
L 377.668835 337.420154 
L 378.058422 336.208246 
L 378.423351 335.72108 
L 378.783349 335.589992 
L 379.22225 335.682938 
L 380.001424 336.120517 
L 381.954288 337.239948 
L 383.423868 337.789575 
L 385.209062 338.210136 
L 387.571239 338.525634 
L 391.003546 338.741974 
L 396.393649 338.85722 
L 396.551456 323.685551 
L 396.655017 312.753753 
L 396.694469 67.30955 
L 396.807893 212.012815 
L 396.990357 355.349139 
L 397.010083 355.400684 
L 397.059398 355.135904 
L 397.241863 352.423822 
L 397.661038 342.538746 
L 398.7361 311.737825 
L 398.760757 203.178682 
L 398.780483 68.675933 
L 398.86925 185.971255 
L 399.086235 356.63064 
L 399.091166 356.628373 
L 399.140481 356.345365 
L 399.332808 353.497362 
L 399.766778 343.452476 
L 400.619923 323.836446 
L 401.024304 315.149683 
L 401.048962 310.507569 
L 401.093345 70.101908 
L 401.201838 223.610351 
L 401.354713 355.565114 
L 401.404028 356.034858 
L 401.468137 355.683457 
L 401.675259 352.597064 
L 402.133887 341.997668 
L 402.868676 325.966746 
L 403.544289 313.359306 
L 403.559083 299.845015 
L 403.598535 71.213031 
L 403.692233 198.104841 
L 403.899355 355.464615 
L 403.919081 355.500317 
L 403.963464 355.302014 
L 404.131134 353.147157 
L 404.520721 344.910585 
L 405.388661 326.421738 
L 405.965643 319.47818 
L 406.202354 315.670922 
L 406.246737 310.03474 
L 406.291121 72.174006 
L 406.399613 223.614688 
L 406.55742 354.582975 
L 406.616598 355.111984 
L 406.675776 354.812046 
L 406.868103 352.187928 
L 407.297142 342.84774 
L 408.036863 327.541392 
L 408.549736 321.52502 
L 409.052747 315.809006 
L 409.102062 311.512513 
L 409.126719 224.407057 
L 409.151376 72.436827 
L 409.235212 186.412872 
L 409.457128 354.779213 
L 409.476854 354.819664 
L 409.526169 354.615881 
L 409.693839 352.548129 
L 410.078494 344.643886 
L 410.911913 327.558127 
L 411.414924 321.956758 
L 412.041221 315.590157 
L 412.085605 311.407305 
L 412.110262 222.556757 
L 412.134919 72.79049 
L 412.218754 186.721848 
L 412.440671 354.573939 
L 412.465328 354.623549 
L 412.514643 354.408717 
L 412.682313 352.35385 
L 413.066968 344.499657 
L 413.885593 327.866895 
L 414.383672 322.376932 
L 415.123394 315.138358 
L 415.157914 310.451899 
L 415.187503 135.0378 
L 415.207229 73.173516 
L 415.291064 189.169196 
L 415.508049 354.418589 
L 415.537638 354.497408 
L 415.591884 354.252942 
L 415.769417 352.027685 
L 416.168866 343.767726 
L 416.943108 328.165314 
L 417.436256 322.709314 
L 418.259812 314.81408 
L 418.289401 309.008944 
L 418.333784 73.385111 
L 418.432414 206.8017 
L 418.629673 354.226241 
L 418.664193 354.379679 
L 418.723371 354.132134 
L 418.900904 351.91176 
L 419.300354 343.670515 
L 420.069664 328.253121 
L 420.55788 322.873105 
L 421.430751 314.581371 
L 421.455408 309.777084 
L 421.504723 73.559192 
L 421.608284 223.086098 
L 421.771023 353.758225 
L 421.835132 354.320941 
L 421.89431 354.052662 
L 422.076774 351.741448 
L 422.486087 343.239751 
L 423.235671 328.311036 
L 423.723887 322.94559 
L 424.621416 314.526107 
L 424.646073 308.973631 
L 424.690456 73.57212 
L 424.789086 206.86138 
L 424.986345 354.095579 
L 425.025797 354.257839 
L 425.084975 353.987285 
L 425.267439 351.67764 
L 425.676752 343.186199 
L 425.982503 336.222722 
L 425.987435 337.674954 
L 426.14031 346.076663 
L 426.337569 347.382624 
L 426.515102 347.509319 
L 426.722224 347.318863 
L 429.572617 343.761116 
L 431.012608 342.537822 
L 432.496983 341.565435 
L 434.075055 340.797929 
L 435.825729 340.197477 
L 435.845455 340.191943 
L 435.845455 340.191943 
" style="fill:none;stroke:#ff0000;stroke-linecap:square;stroke-width:1.5;"/>
   </g>
   <g id="patch_3">
    <path d="M 63 384.48 
L 63 51.84 
" style="fill:none;stroke:#000000;stroke-linecap:square;stroke-linejoin:miter;stroke-width:0.8;"/>
   </g>
   <g id="patch_4">
    <path d="M 453.6 384.48 
L 453.6 51.84 
" style="fill:none;stroke:#000000;stroke-linecap:square;stroke-linejoin:miter;stroke-width:0.8;"/>
   </g>
   <g id="patch_5">
    <path d="M 63 384.48 
L 453.6 384.48 
" style="fill:none;stroke:#000000;stroke-linecap:square;stroke-linejoin:miter;stroke-width:0.8;"/>
   </g>
   <g id="patch_6">
    <path d="M 63 51.84 
L 453.6 51.84 
" style="fill:none;stroke:#000000;stroke-linecap:square;stroke-linejoin:miter;stroke-width:0.8;"/>
   </g>
   <g id="legend_1">
    <g id="patch_7">
     <path d="M 70 74.518125 
L 133.139062 74.518125 
Q 135.139062 74.518125 135.139062 72.518125 
L 135.139062 58.84 
Q 135.139062 56.84 133.139062 56.84 
L 70 56.84 
Q 68 56.84 68 58.84 
L 68 72.518125 
Q 68 74.518125 70 74.518125 
z
" style="fill:#ffffff;opacity:0.8;stroke:#cccccc;stroke-linejoin:miter;"/>
    </g>
    <g id="line2d_13">
     <path d="M 72 64.938438 
L 92 64.938438 
" style="fill:none;stroke:#ff0000;stroke-linecap:square;stroke-width:1.5;"/>
    </g>
    <g id="line2d_14"/>
    <g id="text_14">
     <!-- model -->
     <defs>
      <path d="M 45.40625 46.390625 
L 45.40625 75.984375 
L 54.390625 75.984375 
L 54.390625 0 
L 45.40625 0 
L 45.40625 8.203125 
Q 42.578125 3.328125 38.25 0.953125 
Q 33.9375 -1.421875 27.875 -1.421875 
Q 17.96875 -1.421875 11.734375 6.484375 
Q 5.515625 14.40625 5.515625 27.296875 
Q 5.515625 40.1875 11.734375 48.09375 
Q 17.96875 56 27.875 56 
Q 33.9375 56 38.25 53.625 
Q 42.578125 51.265625 45.40625 46.390625 
z
M 14.796875 27.296875 
Q 14.796875 17.390625 18.875 11.75 
Q 22.953125 6.109375 30.078125 6.109375 
Q 37.203125 6.109375 41.296875 11.75 
Q 45.40625 17.390625 45.40625 27.296875 
Q 45.40625 37.203125 41.296875 42.84375 
Q 37.203125 48.484375 30.078125 48.484375 
Q 22.953125 48.484375 18.875 42.84375 
Q 14.796875 37.203125 14.796875 27.296875 
z
" id="DejaVuSans-64"/>
     </defs>
     <g transform="translate(100 68.438438)scale(0.1 -0.1)">
      <use xlink:href="#DejaVuSans-6d"/>
      <use x="97.412109" xlink:href="#DejaVuSans-6f"/>
      <use x="158.59375" xlink:href="#DejaVuSans-64"/>
      <use x="222.070312" xlink:href="#DejaVuSans-65"/>
      <use x="283.59375" xlink:href="#DejaVuSans-6c"/>
     </g>
    </g>
   </g>
  </g>
 </g>
 <defs>
  <clipPath id="p40592511e3">
   <rect height="332.64" width="390.6" x="63" y="51.84"/>
  </clipPath>
 </defs>
</svg>
