<?xml version="1.0" encoding="utf-8" standalone="no"?>
<!DOCTYPE svg PUBLIC "-//W3C//DTD SVG 1.1//EN"
  "http://www.w3.org/Graphics/SVG/1.1/DTD/svg11.dtd">
<!-- Created with matplotlib (https://matplotlib.org/) -->
<svg height="432pt" version="1.1" viewBox="0 0 504 432" width="504pt" xmlns="http://www.w3.org/2000/svg" xmlns:xlink="http://www.w3.org/1999/xlink">
 <defs>
  <style type="text/css">
*{stroke-linecap:butt;stroke-linejoin:round;}
  </style>
 </defs>
 <g id="figure_1">
  <g id="patch_1">
   <path d="M 0 432 
L 504 432 
L 504 0 
L 0 0 
z
" style="fill:#ffffff;"/>
  </g>
  <g id="axes_1">
   <g id="patch_2">
    <path d="M 63 384.48 
L 453.6 384.48 
L 453.6 51.84 
L 63 51.84 
z
" style="fill:#ffffff;"/>
   </g>
   <g id="matplotlib.axis_1">
    <g id="xtick_1">
     <g id="line2d_1">
      <defs>
       <path d="M 0 0 
L 0 3.5 
" id="m1801353f6d" style="stroke:#000000;stroke-width:0.8;"/>
      </defs>
      <g>
       <use style="stroke:#000000;stroke-width:0.8;" x="80.754545" xlink:href="#m1801353f6d" y="384.48"/>
      </g>
     </g>
     <g id="text_1">
      <!-- 0 -->
      <defs>
       <path d="M 31.78125 66.40625 
Q 24.171875 66.40625 20.328125 58.90625 
Q 16.5 51.421875 16.5 36.375 
Q 16.5 21.390625 20.328125 13.890625 
Q 24.171875 6.390625 31.78125 6.390625 
Q 39.453125 6.390625 43.28125 13.890625 
Q 47.125 21.390625 47.125 36.375 
Q 47.125 51.421875 43.28125 58.90625 
Q 39.453125 66.40625 31.78125 66.40625 
z
M 31.78125 74.21875 
Q 44.046875 74.21875 50.515625 64.515625 
Q 56.984375 54.828125 56.984375 36.375 
Q 56.984375 17.96875 50.515625 8.265625 
Q 44.046875 -1.421875 31.78125 -1.421875 
Q 19.53125 -1.421875 13.0625 8.265625 
Q 6.59375 17.96875 6.59375 36.375 
Q 6.59375 54.828125 13.0625 64.515625 
Q 19.53125 74.21875 31.78125 74.21875 
z
" id="DejaVuSans-48"/>
      </defs>
      <g transform="translate(77.573295 399.078438)scale(0.1 -0.1)">
       <use xlink:href="#DejaVuSans-48"/>
      </g>
     </g>
    </g>
    <g id="xtick_2">
     <g id="line2d_2">
      <g>
       <use style="stroke:#000000;stroke-width:0.8;" x="151.772727" xlink:href="#m1801353f6d" y="384.48"/>
      </g>
     </g>
     <g id="text_2">
      <!-- 200 -->
      <defs>
       <path d="M 19.1875 8.296875 
L 53.609375 8.296875 
L 53.609375 0 
L 7.328125 0 
L 7.328125 8.296875 
Q 12.9375 14.109375 22.625 23.890625 
Q 32.328125 33.6875 34.8125 36.53125 
Q 39.546875 41.84375 41.421875 45.53125 
Q 43.3125 49.21875 43.3125 52.78125 
Q 43.3125 58.59375 39.234375 62.25 
Q 35.15625 65.921875 28.609375 65.921875 
Q 23.96875 65.921875 18.8125 64.3125 
Q 13.671875 62.703125 7.8125 59.421875 
L 7.8125 69.390625 
Q 13.765625 71.78125 18.9375 73 
Q 24.125 74.21875 28.421875 74.21875 
Q 39.75 74.21875 46.484375 68.546875 
Q 53.21875 62.890625 53.21875 53.421875 
Q 53.21875 48.921875 51.53125 44.890625 
Q 49.859375 40.875 45.40625 35.40625 
Q 44.1875 33.984375 37.640625 27.21875 
Q 31.109375 20.453125 19.1875 8.296875 
z
" id="DejaVuSans-50"/>
      </defs>
      <g transform="translate(142.228977 399.078438)scale(0.1 -0.1)">
       <use xlink:href="#DejaVuSans-50"/>
       <use x="63.623047" xlink:href="#DejaVuSans-48"/>
       <use x="127.246094" xlink:href="#DejaVuSans-48"/>
      </g>
     </g>
    </g>
    <g id="xtick_3">
     <g id="line2d_3">
      <g>
       <use style="stroke:#000000;stroke-width:0.8;" x="222.790909" xlink:href="#m1801353f6d" y="384.48"/>
      </g>
     </g>
     <g id="text_3">
      <!-- 400 -->
      <defs>
       <path d="M 37.796875 64.3125 
L 12.890625 25.390625 
L 37.796875 25.390625 
z
M 35.203125 72.90625 
L 47.609375 72.90625 
L 47.609375 25.390625 
L 58.015625 25.390625 
L 58.015625 17.1875 
L 47.609375 17.1875 
L 47.609375 0 
L 37.796875 0 
L 37.796875 17.1875 
L 4.890625 17.1875 
L 4.890625 26.703125 
z
" id="DejaVuSans-52"/>
      </defs>
      <g transform="translate(213.247159 399.078438)scale(0.1 -0.1)">
       <use xlink:href="#DejaVuSans-52"/>
       <use x="63.623047" xlink:href="#DejaVuSans-48"/>
       <use x="127.246094" xlink:href="#DejaVuSans-48"/>
      </g>
     </g>
    </g>
    <g id="xtick_4">
     <g id="line2d_4">
      <g>
       <use style="stroke:#000000;stroke-width:0.8;" x="293.809091" xlink:href="#m1801353f6d" y="384.48"/>
      </g>
     </g>
     <g id="text_4">
      <!-- 600 -->
      <defs>
       <path d="M 33.015625 40.375 
Q 26.375 40.375 22.484375 35.828125 
Q 18.609375 31.296875 18.609375 23.390625 
Q 18.609375 15.53125 22.484375 10.953125 
Q 26.375 6.390625 33.015625 6.390625 
Q 39.65625 6.390625 43.53125 10.953125 
Q 47.40625 15.53125 47.40625 23.390625 
Q 47.40625 31.296875 43.53125 35.828125 
Q 39.65625 40.375 33.015625 40.375 
z
M 52.59375 71.296875 
L 52.59375 62.3125 
Q 48.875 64.0625 45.09375 64.984375 
Q 41.3125 65.921875 37.59375 65.921875 
Q 27.828125 65.921875 22.671875 59.328125 
Q 17.53125 52.734375 16.796875 39.40625 
Q 19.671875 43.65625 24.015625 45.921875 
Q 28.375 48.1875 33.59375 48.1875 
Q 44.578125 48.1875 50.953125 41.515625 
Q 57.328125 34.859375 57.328125 23.390625 
Q 57.328125 12.15625 50.6875 5.359375 
Q 44.046875 -1.421875 33.015625 -1.421875 
Q 20.359375 -1.421875 13.671875 8.265625 
Q 6.984375 17.96875 6.984375 36.375 
Q 6.984375 53.65625 15.1875 63.9375 
Q 23.390625 74.21875 37.203125 74.21875 
Q 40.921875 74.21875 44.703125 73.484375 
Q 48.484375 72.75 52.59375 71.296875 
z
" id="DejaVuSans-54"/>
      </defs>
      <g transform="translate(284.265341 399.078438)scale(0.1 -0.1)">
       <use xlink:href="#DejaVuSans-54"/>
       <use x="63.623047" xlink:href="#DejaVuSans-48"/>
       <use x="127.246094" xlink:href="#DejaVuSans-48"/>
      </g>
     </g>
    </g>
    <g id="xtick_5">
     <g id="line2d_5">
      <g>
       <use style="stroke:#000000;stroke-width:0.8;" x="364.827273" xlink:href="#m1801353f6d" y="384.48"/>
      </g>
     </g>
     <g id="text_5">
      <!-- 800 -->
      <defs>
       <path d="M 31.78125 34.625 
Q 24.75 34.625 20.71875 30.859375 
Q 16.703125 27.09375 16.703125 20.515625 
Q 16.703125 13.921875 20.71875 10.15625 
Q 24.75 6.390625 31.78125 6.390625 
Q 38.8125 6.390625 42.859375 10.171875 
Q 46.921875 13.96875 46.921875 20.515625 
Q 46.921875 27.09375 42.890625 30.859375 
Q 38.875 34.625 31.78125 34.625 
z
M 21.921875 38.8125 
Q 15.578125 40.375 12.03125 44.71875 
Q 8.5 49.078125 8.5 55.328125 
Q 8.5 64.0625 14.71875 69.140625 
Q 20.953125 74.21875 31.78125 74.21875 
Q 42.671875 74.21875 48.875 69.140625 
Q 55.078125 64.0625 55.078125 55.328125 
Q 55.078125 49.078125 51.53125 44.71875 
Q 48 40.375 41.703125 38.8125 
Q 48.828125 37.15625 52.796875 32.3125 
Q 56.78125 27.484375 56.78125 20.515625 
Q 56.78125 9.90625 50.3125 4.234375 
Q 43.84375 -1.421875 31.78125 -1.421875 
Q 19.734375 -1.421875 13.25 4.234375 
Q 6.78125 9.90625 6.78125 20.515625 
Q 6.78125 27.484375 10.78125 32.3125 
Q 14.796875 37.15625 21.921875 38.8125 
z
M 18.3125 54.390625 
Q 18.3125 48.734375 21.84375 45.5625 
Q 25.390625 42.390625 31.78125 42.390625 
Q 38.140625 42.390625 41.71875 45.5625 
Q 45.3125 48.734375 45.3125 54.390625 
Q 45.3125 60.0625 41.71875 63.234375 
Q 38.140625 66.40625 31.78125 66.40625 
Q 25.390625 66.40625 21.84375 63.234375 
Q 18.3125 60.0625 18.3125 54.390625 
z
" id="DejaVuSans-56"/>
      </defs>
      <g transform="translate(355.283523 399.078438)scale(0.1 -0.1)">
       <use xlink:href="#DejaVuSans-56"/>
       <use x="63.623047" xlink:href="#DejaVuSans-48"/>
       <use x="127.246094" xlink:href="#DejaVuSans-48"/>
      </g>
     </g>
    </g>
    <g id="text_6">
     <!-- time [ms] -->
     <defs>
      <path d="M 18.3125 70.21875 
L 18.3125 54.6875 
L 36.8125 54.6875 
L 36.8125 47.703125 
L 18.3125 47.703125 
L 18.3125 18.015625 
Q 18.3125 11.328125 20.140625 9.421875 
Q 21.96875 7.515625 27.59375 7.515625 
L 36.8125 7.515625 
L 36.8125 0 
L 27.59375 0 
Q 17.1875 0 13.234375 3.875 
Q 9.28125 7.765625 9.28125 18.015625 
L 9.28125 47.703125 
L 2.6875 47.703125 
L 2.6875 54.6875 
L 9.28125 54.6875 
L 9.28125 70.21875 
z
" id="DejaVuSans-116"/>
      <path d="M 9.421875 54.6875 
L 18.40625 54.6875 
L 18.40625 0 
L 9.421875 0 
z
M 9.421875 75.984375 
L 18.40625 75.984375 
L 18.40625 64.59375 
L 9.421875 64.59375 
z
" id="DejaVuSans-105"/>
      <path d="M 52 44.1875 
Q 55.375 50.25 60.0625 53.125 
Q 64.75 56 71.09375 56 
Q 79.640625 56 84.28125 50.015625 
Q 88.921875 44.046875 88.921875 33.015625 
L 88.921875 0 
L 79.890625 0 
L 79.890625 32.71875 
Q 79.890625 40.578125 77.09375 44.375 
Q 74.3125 48.1875 68.609375 48.1875 
Q 61.625 48.1875 57.5625 43.546875 
Q 53.515625 38.921875 53.515625 30.90625 
L 53.515625 0 
L 44.484375 0 
L 44.484375 32.71875 
Q 44.484375 40.625 41.703125 44.40625 
Q 38.921875 48.1875 33.109375 48.1875 
Q 26.21875 48.1875 22.15625 43.53125 
Q 18.109375 38.875 18.109375 30.90625 
L 18.109375 0 
L 9.078125 0 
L 9.078125 54.6875 
L 18.109375 54.6875 
L 18.109375 46.1875 
Q 21.1875 51.21875 25.484375 53.609375 
Q 29.78125 56 35.6875 56 
Q 41.65625 56 45.828125 52.96875 
Q 50 49.953125 52 44.1875 
z
" id="DejaVuSans-109"/>
      <path d="M 56.203125 29.59375 
L 56.203125 25.203125 
L 14.890625 25.203125 
Q 15.484375 15.921875 20.484375 11.0625 
Q 25.484375 6.203125 34.421875 6.203125 
Q 39.59375 6.203125 44.453125 7.46875 
Q 49.3125 8.734375 54.109375 11.28125 
L 54.109375 2.78125 
Q 49.265625 0.734375 44.1875 -0.34375 
Q 39.109375 -1.421875 33.890625 -1.421875 
Q 20.796875 -1.421875 13.15625 6.1875 
Q 5.515625 13.8125 5.515625 26.8125 
Q 5.515625 40.234375 12.765625 48.109375 
Q 20.015625 56 32.328125 56 
Q 43.359375 56 49.78125 48.890625 
Q 56.203125 41.796875 56.203125 29.59375 
z
M 47.21875 32.234375 
Q 47.125 39.59375 43.09375 43.984375 
Q 39.0625 48.390625 32.421875 48.390625 
Q 24.90625 48.390625 20.390625 44.140625 
Q 15.875 39.890625 15.1875 32.171875 
z
" id="DejaVuSans-101"/>
      <path id="DejaVuSans-32"/>
      <path d="M 8.59375 75.984375 
L 29.296875 75.984375 
L 29.296875 69 
L 17.578125 69 
L 17.578125 -6.203125 
L 29.296875 -6.203125 
L 29.296875 -13.1875 
L 8.59375 -13.1875 
z
" id="DejaVuSans-91"/>
      <path d="M 44.28125 53.078125 
L 44.28125 44.578125 
Q 40.484375 46.53125 36.375 47.5 
Q 32.28125 48.484375 27.875 48.484375 
Q 21.1875 48.484375 17.84375 46.4375 
Q 14.5 44.390625 14.5 40.28125 
Q 14.5 37.15625 16.890625 35.375 
Q 19.28125 33.59375 26.515625 31.984375 
L 29.59375 31.296875 
Q 39.15625 29.25 43.1875 25.515625 
Q 47.21875 21.78125 47.21875 15.09375 
Q 47.21875 7.46875 41.1875 3.015625 
Q 35.15625 -1.421875 24.609375 -1.421875 
Q 20.21875 -1.421875 15.453125 -0.5625 
Q 10.6875 0.296875 5.421875 2 
L 5.421875 11.28125 
Q 10.40625 8.6875 15.234375 7.390625 
Q 20.0625 6.109375 24.8125 6.109375 
Q 31.15625 6.109375 34.5625 8.28125 
Q 37.984375 10.453125 37.984375 14.40625 
Q 37.984375 18.0625 35.515625 20.015625 
Q 33.0625 21.96875 24.703125 23.78125 
L 21.578125 24.515625 
Q 13.234375 26.265625 9.515625 29.90625 
Q 5.8125 33.546875 5.8125 39.890625 
Q 5.8125 47.609375 11.28125 51.796875 
Q 16.75 56 26.8125 56 
Q 31.78125 56 36.171875 55.265625 
Q 40.578125 54.546875 44.28125 53.078125 
z
" id="DejaVuSans-115"/>
      <path d="M 30.421875 75.984375 
L 30.421875 -13.1875 
L 9.71875 -13.1875 
L 9.71875 -6.203125 
L 21.390625 -6.203125 
L 21.390625 69 
L 9.71875 69 
L 9.71875 75.984375 
z
" id="DejaVuSans-93"/>
     </defs>
     <g transform="translate(234.038281 412.756563)scale(0.1 -0.1)">
      <use xlink:href="#DejaVuSans-116"/>
      <use x="39.208984" xlink:href="#DejaVuSans-105"/>
      <use x="66.992188" xlink:href="#DejaVuSans-109"/>
      <use x="164.404297" xlink:href="#DejaVuSans-101"/>
      <use x="225.927734" xlink:href="#DejaVuSans-32"/>
      <use x="257.714844" xlink:href="#DejaVuSans-91"/>
      <use x="296.728516" xlink:href="#DejaVuSans-109"/>
      <use x="394.140625" xlink:href="#DejaVuSans-115"/>
      <use x="446.240234" xlink:href="#DejaVuSans-93"/>
     </g>
    </g>
   </g>
   <g id="matplotlib.axis_2">
    <g id="ytick_1">
     <g id="line2d_6">
      <defs>
       <path d="M 0 0 
L -3.5 0 
" id="m4a88d837a3" style="stroke:#000000;stroke-width:0.8;"/>
      </defs>
      <g>
       <use style="stroke:#000000;stroke-width:0.8;" x="63" xlink:href="#m4a88d837a3" y="381.69861"/>
      </g>
     </g>
     <g id="text_7">
      <!-- −80 -->
      <defs>
       <path d="M 10.59375 35.5 
L 73.1875 35.5 
L 73.1875 27.203125 
L 10.59375 27.203125 
z
" id="DejaVuSans-8722"/>
      </defs>
      <g transform="translate(34.895313 385.497829)scale(0.1 -0.1)">
       <use xlink:href="#DejaVuSans-8722"/>
       <use x="83.789062" xlink:href="#DejaVuSans-56"/>
       <use x="147.412109" xlink:href="#DejaVuSans-48"/>
      </g>
     </g>
    </g>
    <g id="ytick_2">
     <g id="line2d_7">
      <g>
       <use style="stroke:#000000;stroke-width:0.8;" x="63" xlink:href="#m4a88d837a3" y="329.100072"/>
      </g>
     </g>
     <g id="text_8">
      <!-- −60 -->
      <g transform="translate(34.895313 332.89929)scale(0.1 -0.1)">
       <use xlink:href="#DejaVuSans-8722"/>
       <use x="83.789062" xlink:href="#DejaVuSans-54"/>
       <use x="147.412109" xlink:href="#DejaVuSans-48"/>
      </g>
     </g>
    </g>
    <g id="ytick_3">
     <g id="line2d_8">
      <g>
       <use style="stroke:#000000;stroke-width:0.8;" x="63" xlink:href="#m4a88d837a3" y="276.501533"/>
      </g>
     </g>
     <g id="text_9">
      <!-- −40 -->
      <g transform="translate(34.895313 280.300752)scale(0.1 -0.1)">
       <use xlink:href="#DejaVuSans-8722"/>
       <use x="83.789062" xlink:href="#DejaVuSans-52"/>
       <use x="147.412109" xlink:href="#DejaVuSans-48"/>
      </g>
     </g>
    </g>
    <g id="ytick_4">
     <g id="line2d_9">
      <g>
       <use style="stroke:#000000;stroke-width:0.8;" x="63" xlink:href="#m4a88d837a3" y="223.902994"/>
      </g>
     </g>
     <g id="text_10">
      <!-- −20 -->
      <g transform="translate(34.895313 227.702213)scale(0.1 -0.1)">
       <use xlink:href="#DejaVuSans-8722"/>
       <use x="83.789062" xlink:href="#DejaVuSans-50"/>
       <use x="147.412109" xlink:href="#DejaVuSans-48"/>
      </g>
     </g>
    </g>
    <g id="ytick_5">
     <g id="line2d_10">
      <g>
       <use style="stroke:#000000;stroke-width:0.8;" x="63" xlink:href="#m4a88d837a3" y="171.304455"/>
      </g>
     </g>
     <g id="text_11">
      <!-- 0 -->
      <g transform="translate(49.6375 175.103674)scale(0.1 -0.1)">
       <use xlink:href="#DejaVuSans-48"/>
      </g>
     </g>
    </g>
    <g id="ytick_6">
     <g id="line2d_11">
      <g>
       <use style="stroke:#000000;stroke-width:0.8;" x="63" xlink:href="#m4a88d837a3" y="118.705916"/>
      </g>
     </g>
     <g id="text_12">
      <!-- 20 -->
      <g transform="translate(43.275 122.505135)scale(0.1 -0.1)">
       <use xlink:href="#DejaVuSans-50"/>
       <use x="63.623047" xlink:href="#DejaVuSans-48"/>
      </g>
     </g>
    </g>
    <g id="ytick_7">
     <g id="line2d_12">
      <g>
       <use style="stroke:#000000;stroke-width:0.8;" x="63" xlink:href="#m4a88d837a3" y="66.107378"/>
      </g>
     </g>
     <g id="text_13">
      <!-- 40 -->
      <g transform="translate(43.275 69.906596)scale(0.1 -0.1)">
       <use xlink:href="#DejaVuSans-52"/>
       <use x="63.623047" xlink:href="#DejaVuSans-48"/>
      </g>
     </g>
    </g>
    <g id="text_14">
     <!-- voltage [mV] -->
     <defs>
      <path d="M 2.984375 54.6875 
L 12.5 54.6875 
L 29.59375 8.796875 
L 46.6875 54.6875 
L 56.203125 54.6875 
L 35.6875 0 
L 23.484375 0 
z
" id="DejaVuSans-118"/>
      <path d="M 30.609375 48.390625 
Q 23.390625 48.390625 19.1875 42.75 
Q 14.984375 37.109375 14.984375 27.296875 
Q 14.984375 17.484375 19.15625 11.84375 
Q 23.34375 6.203125 30.609375 6.203125 
Q 37.796875 6.203125 41.984375 11.859375 
Q 46.1875 17.53125 46.1875 27.296875 
Q 46.1875 37.015625 41.984375 42.703125 
Q 37.796875 48.390625 30.609375 48.390625 
z
M 30.609375 56 
Q 42.328125 56 49.015625 48.375 
Q 55.71875 40.765625 55.71875 27.296875 
Q 55.71875 13.875 49.015625 6.21875 
Q 42.328125 -1.421875 30.609375 -1.421875 
Q 18.84375 -1.421875 12.171875 6.21875 
Q 5.515625 13.875 5.515625 27.296875 
Q 5.515625 40.765625 12.171875 48.375 
Q 18.84375 56 30.609375 56 
z
" id="DejaVuSans-111"/>
      <path d="M 9.421875 75.984375 
L 18.40625 75.984375 
L 18.40625 0 
L 9.421875 0 
z
" id="DejaVuSans-108"/>
      <path d="M 34.28125 27.484375 
Q 23.390625 27.484375 19.1875 25 
Q 14.984375 22.515625 14.984375 16.5 
Q 14.984375 11.71875 18.140625 8.90625 
Q 21.296875 6.109375 26.703125 6.109375 
Q 34.1875 6.109375 38.703125 11.40625 
Q 43.21875 16.703125 43.21875 25.484375 
L 43.21875 27.484375 
z
M 52.203125 31.203125 
L 52.203125 0 
L 43.21875 0 
L 43.21875 8.296875 
Q 40.140625 3.328125 35.546875 0.953125 
Q 30.953125 -1.421875 24.3125 -1.421875 
Q 15.921875 -1.421875 10.953125 3.296875 
Q 6 8.015625 6 15.921875 
Q 6 25.140625 12.171875 29.828125 
Q 18.359375 34.515625 30.609375 34.515625 
L 43.21875 34.515625 
L 43.21875 35.40625 
Q 43.21875 41.609375 39.140625 45 
Q 35.0625 48.390625 27.6875 48.390625 
Q 23 48.390625 18.546875 47.265625 
Q 14.109375 46.140625 10.015625 43.890625 
L 10.015625 52.203125 
Q 14.9375 54.109375 19.578125 55.046875 
Q 24.21875 56 28.609375 56 
Q 40.484375 56 46.34375 49.84375 
Q 52.203125 43.703125 52.203125 31.203125 
z
" id="DejaVuSans-97"/>
      <path d="M 45.40625 27.984375 
Q 45.40625 37.75 41.375 43.109375 
Q 37.359375 48.484375 30.078125 48.484375 
Q 22.859375 48.484375 18.828125 43.109375 
Q 14.796875 37.75 14.796875 27.984375 
Q 14.796875 18.265625 18.828125 12.890625 
Q 22.859375 7.515625 30.078125 7.515625 
Q 37.359375 7.515625 41.375 12.890625 
Q 45.40625 18.265625 45.40625 27.984375 
z
M 54.390625 6.78125 
Q 54.390625 -7.171875 48.1875 -13.984375 
Q 42 -20.796875 29.203125 -20.796875 
Q 24.46875 -20.796875 20.265625 -20.09375 
Q 16.0625 -19.390625 12.109375 -17.921875 
L 12.109375 -9.1875 
Q 16.0625 -11.328125 19.921875 -12.34375 
Q 23.78125 -13.375 27.78125 -13.375 
Q 36.625 -13.375 41.015625 -8.765625 
Q 45.40625 -4.15625 45.40625 5.171875 
L 45.40625 9.625 
Q 42.625 4.78125 38.28125 2.390625 
Q 33.9375 0 27.875 0 
Q 17.828125 0 11.671875 7.65625 
Q 5.515625 15.328125 5.515625 27.984375 
Q 5.515625 40.671875 11.671875 48.328125 
Q 17.828125 56 27.875 56 
Q 33.9375 56 38.28125 53.609375 
Q 42.625 51.21875 45.40625 46.390625 
L 45.40625 54.6875 
L 54.390625 54.6875 
z
" id="DejaVuSans-103"/>
      <path d="M 28.609375 0 
L 0.78125 72.90625 
L 11.078125 72.90625 
L 34.1875 11.53125 
L 57.328125 72.90625 
L 67.578125 72.90625 
L 39.796875 0 
z
" id="DejaVuSans-86"/>
     </defs>
     <g transform="translate(28.815625 250.624062)rotate(-90)scale(0.1 -0.1)">
      <use xlink:href="#DejaVuSans-118"/>
      <use x="59.179688" xlink:href="#DejaVuSans-111"/>
      <use x="120.361328" xlink:href="#DejaVuSans-108"/>
      <use x="148.144531" xlink:href="#DejaVuSans-116"/>
      <use x="187.353516" xlink:href="#DejaVuSans-97"/>
      <use x="248.632812" xlink:href="#DejaVuSans-103"/>
      <use x="312.109375" xlink:href="#DejaVuSans-101"/>
      <use x="373.632812" xlink:href="#DejaVuSans-32"/>
      <use x="405.419922" xlink:href="#DejaVuSans-91"/>
      <use x="444.433594" xlink:href="#DejaVuSans-109"/>
      <use x="541.845703" xlink:href="#DejaVuSans-86"/>
      <use x="610.253906" xlink:href="#DejaVuSans-93"/>
     </g>
    </g>
   </g>
   <g id="line2d_13">
    <path clip-path="url(#pe0b6cb5f71)" d="M 80.754545 342.249706 
L 81.952977 342.113213 
L 83.772818 342.170282 
L 85.965505 342.189218 
L 151.772727 342.180539 
L 152.314241 297.572244 
L 152.420768 248.844169 
L 152.562805 66.96 
L 152.678209 92.225708 
L 153.565936 368.787773 
L 153.610323 368.687047 
L 153.8145 367.305546 
L 154.293873 362.542749 
L 154.959668 353.404015 
L 157.42755 314.438492 
L 157.613973 303.289969 
L 157.738255 281.282477 
L 157.835905 218.606584 
L 157.969064 91.367563 
L 158.031205 104.545075 
L 158.883423 368.362514 
L 158.945564 368.178682 
L 159.203005 366.195717 
L 159.717886 360.511919 
L 160.534595 348.562057 
L 161.8218 330.397152 
L 162.514227 320.010781 
L 162.771668 312.475777 
L 162.940336 300.461482 
L 163.064618 272.441715 
L 163.162268 187.881227 
L 163.268795 92.289615 
L 163.322059 101.820997 
L 163.863573 297.293472 
L 164.147645 368.18552 
L 164.183155 368.330692 
L 164.245295 368.148964 
L 164.493859 366.241741 
L 165.008741 360.577667 
L 165.834327 348.504462 
L 167.112655 330.471841 
L 167.813959 319.975277 
L 168.0714 312.430543 
L 168.240068 300.376799 
L 168.36435 272.195027 
L 168.462 187.134196 
L 168.568527 92.366672 
L 168.621791 102.043488 
L 169.172182 301.252827 
L 169.4385 368.099521 
L 169.482886 368.328588 
L 169.545027 368.142915 
L 169.802468 366.151797 
L 170.31735 360.450116 
L 171.151814 348.214907 
L 172.430141 330.228573 
L 173.113691 319.956868 
L 173.371132 312.393987 
L 173.5398 300.280806 
L 173.664082 271.856293 
L 173.761732 185.980684 
L 173.868259 92.383504 
L 173.921523 102.279919 
L 174.480791 305.331844 
L 174.729355 367.989853 
L 174.782618 368.328588 
L 174.844759 368.138707 
L 175.1022 366.144433 
L 175.617082 360.439333 
L 176.451545 348.20202 
L 177.729873 330.217791 
L 178.413423 319.940036 
L 178.670864 312.357957 
L 178.839532 300.183499 
L 178.963814 271.508617 
L 179.061464 184.793403 
L 179.167991 92.400861 
L 179.221255 102.518979 
L 179.7894 309.514217 
L 180.029086 368.002214 
L 180.08235 368.328851 
L 180.144491 368.134236 
L 180.401932 366.13707 
L 180.916814 360.428813 
L 181.751277 348.189659 
L 183.029605 330.207271 
L 183.713155 319.922942 
L 183.970595 312.321664 
L 184.139264 300.08514 
L 184.263545 271.152787 
L 184.361195 183.585241 
L 184.467723 92.424794 
L 184.520986 102.761721 
L 185.098009 313.788637 
L 185.328818 368.014312 
L 185.382082 368.328851 
L 185.444223 368.130028 
L 185.701664 366.129443 
L 186.216545 360.418294 
L 187.051009 348.177036 
L 188.329336 330.196751 
L 189.012886 319.90611 
L 189.270327 312.285108 
L 189.438995 299.985202 
L 189.563277 270.791698 
L 189.660927 182.372266 
L 189.767455 92.454512 
L 189.820718 103.006831 
L 190.406618 318.13538 
L 190.619673 367.880185 
L 190.681814 368.328588 
L 190.743955 368.125557 
L 191.010273 366.040551 
L 191.525155 360.292583 
L 192.368495 347.8909 
L 193.637945 330.070515 
L 194.312618 319.888752 
L 194.570059 312.248552 
L 194.738727 299.884739 
L 194.863009 270.427191 
L 194.969536 167.769439 
L 195.058309 92.441099 
L 195.12045 103.25457 
L 195.715227 322.52841 
L 195.919405 367.895702 
L 195.981545 368.328588 
L 196.043686 368.121087 
L 196.310005 366.032925 
L 196.833764 360.166347 
L 197.703736 347.33204 
L 198.955432 329.828824 
L 199.61235 319.871658 
L 199.869791 312.21147 
L 200.038459 299.783224 
L 200.162741 270.055319 
L 200.269268 166.503629 
L 200.358041 92.411644 
L 200.420182 103.506517 
L 201.023836 326.930645 
L 201.219136 367.910429 
L 201.281277 368.328062 
L 201.343418 368.116616 
L 201.609736 366.025298 
L 202.133495 360.155301 
L 202.994591 347.455647 
L 204.255164 329.818042 
L 204.912082 319.854037 
L 205.169523 312.173862 
L 205.338191 299.680131 
L 205.462473 269.67582 
L 205.569 165.229324 
L 205.657773 92.38929 
L 205.719914 103.760305 
L 206.332445 331.293957 
L 206.518868 367.925157 
L 206.581009 368.327799 
L 206.634273 368.158695 
L 206.873959 366.3401 
L 207.388841 360.717842 
L 208.187795 349.084097 
L 209.510509 330.384002 
L 210.202936 320.021301 
L 210.460377 312.529691 
L 210.629045 300.645314 
L 210.753327 273.149954 
L 210.850977 190.446826 
L 210.957505 92.374036 
L 211.019645 104.015145 
L 211.641055 335.564169 
L 211.827477 368.071118 
L 211.880741 368.327273 
L 211.934005 368.154487 
L 212.182568 366.252786 
L 212.69745 360.593447 
L 213.514159 348.660416 
L 214.810241 330.373219 
L 215.502668 320.004206 
L 215.760109 312.493661 
L 215.928777 300.548796 
L 216.053059 272.809904 
L 216.150709 189.265462 
L 216.257236 92.367724 
L 216.319377 104.269459 
L 216.949664 339.677638 
L 217.127209 368.081638 
L 217.171595 368.327799 
L 217.233736 368.150279 
L 217.4823 366.245423 
L 217.997182 360.582927 
L 218.822768 348.510773 
L 220.101095 330.477627 
L 220.8024 319.987112 
L 221.059841 312.457894 
L 221.228509 300.45254 
L 221.352791 272.46854 
L 221.450441 188.084678 
L 221.556968 92.36825 
L 221.610232 101.858079 
L 222.151745 297.348964 
L 222.426941 368.091631 
L 222.471327 368.328062 
L 222.533468 368.146071 
L 222.782032 366.238059 
L 223.296914 360.572407 
L 224.1225 348.497887 
L 225.418582 330.236726 
L 226.111009 319.784607 
L 226.36845 312.024219 
L 226.537118 299.265917 
L 226.652523 272.124545 
L 226.750173 186.899186 
L 226.8567 92.374299 
L 226.909964 102.096087 
L 227.460355 301.328306 
L 227.726673 368.101362 
L 227.771059 368.328588 
L 227.8332 368.141863 
L 228.090641 366.149956 
L 228.605523 360.447486 
L 229.439986 348.211751 
L 230.718314 330.225943 
L 231.401864 319.952923 
L 231.659305 312.385571 
L 231.827973 300.258715 
L 231.952255 271.778184 
L 232.049905 185.713483 
L 232.156432 92.387186 
L 232.209695 102.333832 
L 232.768964 305.410479 
L 233.017527 367.992746 
L 233.070791 368.328588 
L 233.132932 368.137655 
L 233.390373 366.142593 
L 233.905255 360.436966 
L 234.739718 348.199127 
L 236.018045 330.215424 
L 236.701595 319.936091 
L 236.959036 312.349804 
L 237.127705 300.161408 
L 237.251986 271.428667 
L 237.349636 184.520995 
L 237.456164 92.405595 
L 237.509427 102.573945 
L 238.077573 309.595218 
L 238.317259 368.004844 
L 238.370523 368.328851 
L 238.432664 368.133447 
L 238.690105 366.135229 
L 239.204986 360.426446 
L 240.03945 348.186766 
L 241.317777 330.204904 
L 242.001327 319.91926 
L 242.258768 312.313511 
L 242.427436 300.062522 
L 242.551718 271.070997 
L 242.649368 183.310019 
L 242.755895 92.431105 
L 242.809159 102.817213 
L 243.386182 313.87148 
L 243.616991 368.016941 
L 243.670255 368.328851 
L 243.732395 368.128976 
L 243.989836 366.127865 
L 244.504718 360.415927 
L 245.348059 348.037387 
L 246.617509 330.194121 
L 247.301059 319.902165 
L 247.5585 312.276955 
L 247.727168 299.962322 
L 247.85145 270.709382 
L 247.9491 182.095861 
L 248.055627 92.462402 
L 248.108891 103.062848 
L 248.694791 318.220064 
L 248.907845 367.883867 
L 248.969986 368.328588 
L 249.032127 368.124768 
L 249.298445 366.038973 
L 249.822205 360.174762 
L 250.692177 347.342034 
L 251.943873 329.83724 
L 252.600791 319.884808 
L 252.858232 312.240136 
L 253.0269 299.861596 
L 253.151182 270.343033 
L 253.257709 167.481252 
L 253.346482 92.433735 
L 253.408623 103.311902 
L 254.0034 322.614672 
L 254.207577 367.899121 
L 254.269718 368.328325 
L 254.331859 368.120298 
L 254.598177 366.031347 
L 255.121936 360.163717 
L 255.983032 347.46564 
L 257.22585 330.057365 
L 257.900523 319.867713 
L 258.157964 312.203054 
L 258.326632 299.759818 
L 258.450914 269.96932 
L 258.557441 166.212838 
L 258.646214 92.405858 
L 258.708355 103.564638 
L 259.312009 327.016906 
L 259.507309 367.913848 
L 259.56945 368.328062 
L 259.631591 368.115564 
L 259.897909 366.023457 
L 260.421668 360.152934 
L 261.291641 347.316524 
L 262.525582 330.046582 
L 263.200255 319.850093 
L 263.457695 312.165446 
L 263.626364 299.656462 
L 263.750645 269.588507 
L 263.857173 164.938007 
L 263.945945 92.385082 
L 264.008086 103.818426 
L 264.620618 331.378903 
L 264.807041 367.928576 
L 264.869182 368.327536 
L 264.922445 368.157906 
L 265.171009 366.258572 
L 265.685891 360.601862 
L 266.511477 348.533391 
L 267.807559 330.266444 
L 268.499986 319.832735 
L 268.757427 312.127838 
L 268.926095 299.553105 
L 269.050377 269.207693 
L 269.156905 163.67267 
L 269.245677 92.371932 
L 269.298941 101.438605 
L 269.8227 289.774511 
L 270.133405 368.240222 
L 270.168914 368.327273 
L 270.222177 368.153698 
L 270.470741 366.251209 
L 270.985623 360.59108 
L 271.802332 348.657523 
L 273.098414 330.370852 
L 273.790841 320.000261 
L 274.048282 312.485508 
L 274.21695 300.526967 
L 274.341232 272.732059 
L 274.438882 188.995211 
L 274.545409 92.367461 
L 274.598673 101.675036 
L 275.131309 293.548719 
L 275.424259 368.178156 
L 275.459768 368.327799 
L 275.521909 368.14949 
L 275.770473 366.243845 
L 276.285355 360.58056 
L 277.110941 348.50788 
L 278.389268 330.47526 
L 279.090573 319.983167 
L 279.348014 312.449478 
L 279.516682 300.430449 
L 279.640964 272.390168 
L 279.738614 187.814321 
L 279.845141 92.368776 
L 279.898405 101.912518 
L 280.439918 297.424969 
L 280.715114 368.093735 
L 280.7595 368.328325 
L 280.821641 368.145282 
L 281.079082 366.155742 
L 281.593964 360.455639 
L 282.428427 348.221481 
L 283.706755 330.234096 
L 284.390305 319.966072 
L 284.647745 312.413448 
L 284.816414 300.333668 
L 284.940695 272.045648 
L 285.038345 186.628724 
L 285.144873 92.376666 
L 285.198136 102.150263 
L 285.748527 301.405363 
L 286.014845 368.103466 
L 286.059232 368.328588 
L 286.121373 368.140811 
L 286.378814 366.148378 
L 286.893695 360.445119 
L 287.728159 348.208858 
L 289.006486 330.223576 
L 289.690036 319.949241 
L 289.947477 312.377418 
L 290.116145 300.236623 
L 290.240427 271.69876 
L 290.338077 185.442127 
L 290.444605 92.390868 
L 290.497868 102.388272 
L 291.057136 305.489902 
L 291.3057 367.995639 
L 291.358964 368.328851 
L 291.421105 368.136603 
L 291.678545 366.141015 
L 292.193427 360.434599 
L 293.027891 348.196234 
L 294.315095 330.097603 
L 294.989768 319.932146 
L 295.247209 312.341388 
L 295.415877 300.139053 
L 295.540159 271.347665 
L 295.637809 184.245721 
L 295.744336 92.410855 
L 295.7976 102.629173 
L 296.365745 309.676746 
L 296.605432 368.007737 
L 296.658695 368.328851 
L 296.720836 368.132395 
L 296.978277 366.133651 
L 297.493159 360.424079 
L 298.327623 348.183873 
L 299.60595 330.202537 
L 300.2895 319.915315 
L 300.546941 312.305095 
L 300.715609 300.039642 
L 300.839891 270.988943 
L 300.937541 183.034403 
L 301.044068 92.43768 
L 301.097332 102.872704 
L 301.674355 313.954322 
L 301.905164 368.019571 
L 301.958427 368.328851 
L 302.020568 368.128187 
L 302.286886 366.044759 
L 302.810645 360.182915 
L 303.671741 347.488258 
L 304.914559 330.076563 
L 305.589232 319.89822 
L 305.846673 312.268539 
L 306.015341 299.939705 
L 306.139623 270.626802 
L 306.24615 168.454798 
L 306.334923 92.459772 
L 306.397064 103.119128 
L 306.982964 318.304747 
L 307.196018 367.887286 
L 307.258159 368.328588 
L 307.3203 368.123716 
L 307.586618 366.037132 
L 308.110377 360.172132 
L 308.971473 347.475634 
L 310.214291 330.065781 
L 310.888964 319.881126 
L 311.146405 312.23172 
L 311.315073 299.838715 
L 311.439355 270.258612 
L 311.545882 167.19409 
L 311.634655 92.426898 
L 311.696795 103.368972 
L 312.291573 322.700407 
L 312.49575 367.90254 
L 312.557891 368.328325 
L 312.620032 368.119246 
L 312.88635 366.029506 
L 313.410109 360.16135 
L 314.280082 347.326254 
L 315.531777 329.823827 
L 316.188695 319.863505 
L 316.446136 312.194375 
L 316.614805 299.736411 
L 316.739086 269.883585 
L 316.845614 165.923151 
L 316.934386 92.400598 
L 316.996527 103.622234 
L 317.600182 327.102905 
L 317.795482 367.917267 
L 317.857623 368.328062 
L 317.910886 368.161061 
L 318.150573 366.344045 
L 318.665455 360.723628 
L 319.464409 349.090935 
L 320.787123 330.390051 
L 321.488427 319.846148 
L 321.745868 312.156767 
L 321.914536 299.632792 
L 322.038818 269.501456 
L 322.145345 164.648084 
L 322.234118 92.3814 
L 322.296259 103.876547 
L 322.908791 331.463587 
L 323.095214 367.931995 
L 323.157355 368.327536 
L 323.210618 368.156854 
L 323.459182 366.256994 
L 323.974064 360.599233 
L 324.790773 348.667254 
L 326.095732 330.263814 
L 326.779282 320.013411 
L 327.036723 312.513385 
L 327.205391 300.601394 
L 327.329673 272.995051 
L 327.427323 189.908217 
L 327.53385 92.370091 
L 327.595991 104.131124 
L 328.2174 335.72775 
L 328.403823 368.075852 
L 328.457086 368.32701 
L 328.51035 368.152646 
L 328.758914 366.249368 
L 329.273795 360.588713 
L 329.318182 360.012496 
L 329.335936 360.915613 
L 329.531236 364.920465 
L 329.620009 365.109031 
L 329.664395 365.051436 
L 329.815309 364.442345 
L 330.214786 361.61491 
L 332.176664 346.802899 
L 332.869091 343.568878 
L 333.428359 341.90729 
L 333.889977 341.161443 
L 334.262823 340.933691 
L 334.609036 340.97051 
L 335.061777 341.260591 
L 336.553159 342.35464 
L 337.156814 342.451685 
L 338.097805 342.341228 
L 339.580309 342.146087 
L 342.101455 342.18238 
L 345.714505 342.178435 
L 435.845455 342.180539 
L 435.845455 342.180539 
" style="fill:none;stroke:#1f77b4;stroke-linecap:square;stroke-width:1.5;"/>
   </g>
   <g id="line2d_14">
    <path clip-path="url(#pe0b6cb5f71)" d="M 80.754545 342.249706 
L 81.136268 333.133338 
L 81.731045 319.836059 
L 81.917468 308.690921 
L 82.04175 284.952165 
L 82.130523 214.244659 
L 82.245927 70.347273 
L 82.316945 82.13397 
L 82.689791 211.204406 
L 83.249059 369.36 
L 83.275691 369.315403 
L 83.435482 368.454928 
L 83.932609 364.488357 
L 84.722686 356.056885 
L 85.823468 344.874816 
L 86.551405 339.711429 
L 87.181691 336.689912 
L 87.70545 335.153156 
L 88.09605 334.594422 
L 88.406755 334.490319 
L 88.726336 334.629365 
L 89.303359 335.190282 
L 89.995786 335.752379 
L 90.510668 335.884538 
L 91.176464 335.7993 
L 92.729986 335.549913 
L 94.851655 335.629152 
L 104.50125 335.617591 
L 151.772727 335.617624 
L 152.314241 291.633657 
L 152.411891 237.843632 
L 152.54505 74.502308 
L 152.6427 93.984642 
L 153.52155 366.811484 
L 153.610323 366.315417 
L 154.000923 362.120731 
L 154.711105 351.907908 
L 155.9628 334.182753 
L 157.223373 317.649393 
L 157.454182 309.983413 
L 157.605095 296.721307 
L 157.7205 261.922262 
L 157.835905 125.706926 
L 157.898045 92.678377 
L 157.960186 103.588597 
L 158.537209 306.991496 
L 158.776895 366.270384 
L 158.812405 366.428723 
L 158.865668 366.201176 
L 159.131986 363.547144 
L 159.744518 355.246129 
L 161.351305 332.595628 
L 162.478718 318.160701 
L 162.718405 311.06103 
L 162.878195 298.958773 
L 162.9936 270.807292 
L 163.09125 178.574416 
L 163.1889 93.412306 
L 163.242164 101.795739 
L 163.659395 248.077729 
L 164.103259 366.398029 
L 164.138768 366.270448 
L 164.342945 364.381198 
L 164.911091 357.022834 
L 166.846336 330.204242 
L 167.716309 319.127693 
L 167.97375 312.452426 
L 168.142418 301.784863 
L 168.2667 277.190661 
L 168.36435 201.589547 
L 168.479755 93.461964 
L 168.541895 104.882423 
L 169.127795 312.843602 
L 169.358605 366.281187 
L 169.385236 366.397113 
L 169.447377 366.140106 
L 169.73145 363.255114 
L 170.361736 354.593786 
L 171.87975 333.136015 
L 173.069305 317.873041 
L 173.300114 310.853498 
L 173.459905 298.403149 
L 173.575309 268.870745 
L 173.672959 172.235453 
L 173.770609 93.500259 
L 173.823873 102.975203 
L 174.338755 281.862581 
L 174.676091 366.397583 
L 174.720477 366.242816 
L 174.942409 364.137413 
L 175.528309 356.431592 
L 177.339273 331.160227 
L 178.306895 318.881961 
L 178.564336 311.922594 
L 178.733005 300.333394 
L 178.848409 275.568646 
L 178.946059 195.570834 
L 179.052586 93.540697 
L 179.114727 103.579218 
L 179.665118 296.038545 
L 179.949191 366.366533 
L 179.966945 366.397144 
L 180.011332 366.229521 
L 180.242141 364.015111 
L 180.836918 356.135197 
L 182.594618 331.540813 
L 183.59775 318.841392 
L 183.846314 312.195464 
L 184.014982 301.090657 
L 184.139264 274.719933 
L 184.236914 192.459223 
L 184.343441 93.478437 
L 184.405582 104.192848 
L 184.973727 304.16973 
L 185.231168 366.331094 
L 185.2578 366.395845 
L 185.302186 366.215983 
L 185.541873 363.891897 
L 186.13665 355.97041 
L 187.867718 331.719539 
L 188.888605 318.800725 
L 189.137168 312.108621 
L 189.305836 300.851265 
L 189.430118 273.848416 
L 189.527768 189.30735 
L 189.634295 93.465455 
L 189.687559 102.321723 
L 190.149177 262.976072 
L 190.539777 366.396779 
L 190.575286 366.305197 
L 190.752832 364.736724 
L 191.303223 357.766426 
L 193.424891 328.680866 
L 194.14395 319.411221 
L 194.410268 312.717687 
L 194.578936 302.490355 
L 194.703218 279.622741 
L 194.800868 210.788056 
L 194.92515 93.495101 
L 194.987291 105.450632 
L 195.590945 321.644322 
L 195.795123 366.207212 
L 195.830632 366.397562 
L 195.892773 366.126064 
L 196.185723 363.128209 
L 196.824886 354.292964 
L 198.298514 333.42683 
L 199.5147 317.832344 
L 199.745509 310.763208 
L 199.9053 298.144815 
L 200.020705 267.937246 
L 200.127232 155.52283 
L 200.207127 93.550288 
L 200.269268 103.515446 
L 200.810782 292.475106 
L 201.103732 366.365591 
L 201.121486 366.397233 
L 201.165873 366.230917 
L 201.396682 364.017615 
L 201.991459 356.138557 
L 203.749159 331.543396 
L 204.752291 318.84564 
L 205.000855 312.204524 
L 205.169523 301.115573 
L 205.293805 274.810247 
L 205.391455 192.789083 
L 205.497982 93.482695 
L 205.560123 104.127646 
L 206.128268 304.073969 
L 206.385709 366.329585 
L 206.412341 366.396018 
L 206.456727 366.217428 
L 206.696414 363.894455 
L 207.291191 355.973822 
L 209.022259 331.722158 
L 210.052023 318.635886 
L 210.300586 311.752047 
L 210.469255 299.850068 
L 210.584659 273.941394 
L 210.682309 189.641859 
L 210.788836 93.464741 
L 210.8421 102.260314 
L 211.303718 262.90196 
L 211.694318 366.39663 
L 211.729827 366.306329 
L 211.907373 364.739112 
L 212.457764 357.769708 
L 214.588309 328.583776 
L 215.298491 319.415269 
L 215.564809 312.726269 
L 215.733477 302.512799 
L 215.857759 279.698775 
L 215.955409 211.076528 
L 216.079691 93.489914 
L 216.141832 105.383428 
L 216.745486 321.541724 
L 216.949664 366.204441 
L 216.985173 366.397553 
L 217.047314 366.127714 
L 217.340264 363.130891 
L 217.979427 354.296451 
L 219.453055 333.429524 
L 220.669241 317.837132 
L 220.90005 310.773884 
L 221.059841 298.175534 
L 221.175245 268.048765 
L 221.281773 155.872822 
L 221.370545 93.557845 
L 221.423809 103.451099 
L 221.965323 292.386486 
L 222.258273 366.36463 
L 222.276027 366.397323 
L 222.320414 366.23234 
L 222.551223 364.020167 
L 223.146 356.141979 
L 224.9037 331.546024 
L 225.906832 318.849949 
L 226.155395 312.213703 
L 226.324064 301.140795 
L 226.448345 274.901617 
L 226.545995 193.123754 
L 226.652523 93.487586 
L 226.714664 104.061545 
L 227.282809 303.976792 
L 227.54025 366.328044 
L 227.566882 366.396189 
L 227.620145 366.159933 
L 227.895341 363.391246 
L 228.51675 354.906918 
L 230.07915 332.856893 
L 231.233195 318.114465 
L 231.472882 310.984302 
L 231.632673 298.774705 
L 231.748077 270.202163 
L 231.845727 176.62564 
L 231.943377 93.46451 
L 231.996641 102.198067 
L 232.449382 259.945395 
L 232.848859 366.396471 
L 232.884368 366.307474 
L 233.061914 364.741536 
L 233.612305 357.77304 
L 235.74285 328.58637 
L 236.461909 319.260653 
L 236.71935 312.734964 
L 236.888018 302.535532 
L 237.0123 279.775769 
L 237.10995 211.368802 
L 237.234232 93.485011 
L 237.296373 105.315435 
L 237.900027 321.43795 
L 238.104205 366.20162 
L 238.139714 366.397537 
L 238.201855 366.129381 
L 238.494805 363.133604 
L 239.133968 354.299978 
L 240.607595 333.432248 
L 241.823782 317.841974 
L 242.054591 310.784676 
L 242.214382 298.20648 
L 242.329786 268.160928 
L 242.436314 156.226948 
L 242.525086 93.548763 
L 242.57835 103.386091 
L 243.119864 292.29696 
L 243.412814 366.363626 
L 243.430568 366.397394 
L 243.474955 366.233775 
L 243.705764 364.022753 
L 244.291664 356.277676 
L 246.075995 331.34578 
L 247.061373 318.8543 
L 247.309936 312.222956 
L 247.478605 301.1662 
L 247.602886 274.993598 
L 247.700536 193.461071 
L 247.807064 93.493187 
L 247.869205 103.994866 
L 248.428473 300.204052 
L 248.694791 366.326474 
L 248.721423 366.396356 
L 248.774686 366.161554 
L 249.049882 363.393957 
L 249.671291 354.910473 
L 251.233691 332.859635 
L 252.387736 318.119216 
L 252.627423 310.994976 
L 252.787214 298.804903 
L 252.902618 270.309172 
L 253.000268 176.983886 
L 253.097918 93.464731 
L 253.151182 102.135175 
L 253.595045 257.007447 
L 254.0034 366.3963 
L 254.038909 366.30863 
L 254.207577 364.836755 
L 254.749091 358.031835 
L 256.950655 327.98991 
L 257.61645 319.264872 
L 257.873891 312.74376 
L 258.042559 302.558473 
L 258.166841 279.853399 
L 258.264491 211.663584 
L 258.388773 93.480518 
L 258.450914 105.246968 
L 259.054568 321.333053 
L 259.258745 366.198725 
L 259.294255 366.397499 
L 259.356395 366.131058 
L 259.649345 363.136339 
L 260.288509 354.303535 
L 261.762136 333.434996 
L 262.978323 317.846861 
L 263.209132 310.795567 
L 263.368923 298.237701 
L 263.484327 268.274052 
L 263.590855 156.584968 
L 263.679627 93.540026 
L 263.732891 103.320687 
L 264.265527 288.827459 
L 264.576232 366.390345 
L 264.593986 366.387774 
L 264.620618 366.286344 
L 264.807041 364.604538 
L 265.366309 357.456605 
L 267.408082 329.337975 
L 268.189282 319.346507 
L 268.4556 312.579382 
L 268.624268 302.126143 
L 268.74855 278.380342 
L 268.8462 206.076069 
L 268.961605 93.499388 
L 269.023745 103.928049 
L 269.583014 300.108103 
L 269.849332 366.324876 
L 269.875964 366.396508 
L 269.929227 366.163171 
L 270.204423 363.396669 
L 270.825832 354.91403 
L 272.388232 332.862378 
L 273.542277 318.123966 
L 273.781964 311.005648 
L 273.941755 298.835082 
L 274.057159 270.415904 
L 274.154809 177.342407 
L 274.252459 93.465419 
L 274.305723 102.072162 
L 274.740709 254.08326 
L 275.157941 366.396124 
L 275.19345 366.309792 
L 275.362118 364.839203 
L 275.903632 358.035209 
L 278.105195 327.992565 
L 278.770991 319.269109 
L 279.028432 312.752587 
L 279.1971 302.581438 
L 279.321382 279.931036 
L 279.419032 211.959523 
L 279.543314 93.476448 
L 279.605455 105.17791 
L 280.200232 317.236562 
L 280.413286 366.195771 
L 280.448795 366.397451 
L 280.510936 366.132754 
L 280.803886 363.139112 
L 281.44305 354.307141 
L 282.925555 333.332999 
L 284.132864 317.851804 
L 284.363673 310.806574 
L 284.523464 298.269236 
L 284.638868 268.388119 
L 284.745395 156.946054 
L 284.834168 93.531508 
L 284.887432 103.254881 
L 285.420068 288.738875 
L 285.730773 366.389899 
L 285.748527 366.388226 
L 285.775159 366.287614 
L 285.961582 364.607054 
L 286.52085 357.460047 
L 288.562623 329.340634 
L 289.343823 319.350712 
L 289.610141 312.588419 
L 289.778809 302.150074 
L 289.903091 278.462666 
L 290.000741 206.387648 
L 290.116145 93.506058 
L 290.178286 103.861275 
L 290.737555 300.012022 
L 291.003873 366.323256 
L 291.030505 366.396649 
L 291.083768 366.164787 
L 291.358964 363.399384 
L 291.980373 354.91759 
L 293.542773 332.865126 
L 294.696818 318.128719 
L 294.936505 311.016323 
L 295.096295 298.865211 
L 295.2117 270.52231 
L 295.30935 177.700957 
L 295.407 93.466712 
L 295.460264 102.009158 
L 295.89525 254.007907 
L 296.312482 366.395943 
L 296.347991 366.310953 
L 296.516659 364.841654 
L 297.058173 358.038589 
L 299.259736 327.995225 
L 299.925532 319.273357 
L 300.19185 312.421466 
L 300.360518 301.704197 
L 300.4848 276.909678 
L 300.58245 200.545261 
L 300.697855 93.473086 
L 300.759995 105.108549 
L 301.354773 317.13069 
L 301.567827 366.192722 
L 301.603336 366.397368 
L 301.665477 366.13445 
L 301.958427 363.141897 
L 302.597591 354.310764 
L 304.080095 333.335792 
L 305.287405 317.856766 
L 305.518214 310.817583 
L 305.678005 298.300713 
L 305.793409 268.5019 
L 305.899936 157.307508 
L 305.988709 93.523363 
L 306.041973 103.189193 
L 306.565732 285.357073 
L 306.894191 366.397532 
L 306.938577 366.238111 
L 307.160509 364.128878 
L 307.746409 356.420106 
L 309.557373 331.151426 
L 310.524995 318.867512 
L 310.782436 311.890753 
L 310.951105 300.243812 
L 311.066509 275.269865 
L 311.164159 194.473385 
L 311.270686 93.513122 
L 311.332827 103.795109 
L 311.892095 299.916723 
L 312.158414 366.321638 
L 312.185045 366.396785 
L 312.238309 366.166391 
L 312.513505 363.40208 
L 313.134914 354.921127 
L 314.697314 332.867856 
L 315.851359 318.133445 
L 316.091045 311.026941 
L 316.250836 298.895137 
L 316.366241 270.627893 
L 316.463891 178.058142 
L 316.561541 93.468608 
L 316.614805 101.946479 
L 317.040914 251.092994 
L 317.467023 366.395747 
L 317.511409 366.265054 
L 317.715586 364.372791 
L 318.283732 357.011473 
L 320.218977 330.195952 
L 321.08895 319.116545 
L 321.346391 312.430647 
L 321.515059 301.728811 
L 321.639341 276.996567 
L 321.736991 200.870226 
L 321.852395 93.470388 
L 321.914536 105.039438 
L 322.509314 317.025064 
L 322.722368 366.189629 
L 322.757877 366.397262 
L 322.820018 366.136135 
L 323.104091 363.248652 
L 323.734377 354.585352 
L 325.252391 333.129532 
L 326.441945 317.861718 
L 326.672755 310.828566 
L 326.832545 298.332109 
L 326.94795 268.615146 
L 327.054477 157.66963 
L 327.14325 93.515785 
L 327.196514 103.123567 
L 327.720273 285.27064 
L 328.048732 366.397551 
L 328.093118 366.23955 
L 328.31505 364.131486 
L 328.90095 356.423615 
L 329.318182 350.021538 
L 329.344814 351.266766 
L 329.531236 354.517273 
L 329.575623 354.560263 
L 329.620009 354.4695 
L 329.770923 353.571594 
L 330.347945 348.116641 
L 331.1469 341.611141 
L 331.821573 337.822298 
L 332.380841 335.800032 
L 332.833582 334.882219 
L 333.179795 334.611882 
L 333.4905 334.637952 
L 333.907732 334.932536 
L 334.999636 335.778056 
L 335.54115 335.865916 
L 336.348982 335.734689 
L 337.636186 335.562015 
L 339.882136 335.630256 
L 360.042423 335.617624 
L 435.845455 335.617624 
L 435.845455 335.617624 
" style="fill:none;stroke:#ff0000;stroke-linecap:square;stroke-width:1.5;"/>
   </g>
   <g id="patch_3">
    <path d="M 63 384.48 
L 63 51.84 
" style="fill:none;stroke:#000000;stroke-linecap:square;stroke-linejoin:miter;stroke-width:0.8;"/>
   </g>
   <g id="patch_4">
    <path d="M 453.6 384.48 
L 453.6 51.84 
" style="fill:none;stroke:#000000;stroke-linecap:square;stroke-linejoin:miter;stroke-width:0.8;"/>
   </g>
   <g id="patch_5">
    <path d="M 63 384.48 
L 453.6 384.48 
" style="fill:none;stroke:#000000;stroke-linecap:square;stroke-linejoin:miter;stroke-width:0.8;"/>
   </g>
   <g id="patch_6">
    <path d="M 63 51.84 
L 453.6 51.84 
" style="fill:none;stroke:#000000;stroke-linecap:square;stroke-linejoin:miter;stroke-width:0.8;"/>
   </g>
   <g id="legend_1">
    <g id="patch_7">
     <path d="M 383.460938 89.19625 
L 446.6 89.19625 
Q 448.6 89.19625 448.6 87.19625 
L 448.6 58.84 
Q 448.6 56.84 446.6 56.84 
L 383.460938 56.84 
Q 381.460938 56.84 381.460938 58.84 
L 381.460938 87.19625 
Q 381.460938 89.19625 383.460938 89.19625 
z
" style="fill:#ffffff;opacity:0.8;stroke:#cccccc;stroke-linejoin:miter;"/>
    </g>
    <g id="line2d_15">
     <path d="M 385.460938 64.938437 
L 405.460938 64.938437 
" style="fill:none;stroke:#1f77b4;stroke-linecap:square;stroke-width:1.5;"/>
    </g>
    <g id="line2d_16"/>
    <g id="text_15">
     <!-- target -->
     <defs>
      <path d="M 41.109375 46.296875 
Q 39.59375 47.171875 37.8125 47.578125 
Q 36.03125 48 33.890625 48 
Q 26.265625 48 22.1875 43.046875 
Q 18.109375 38.09375 18.109375 28.8125 
L 18.109375 0 
L 9.078125 0 
L 9.078125 54.6875 
L 18.109375 54.6875 
L 18.109375 46.1875 
Q 20.953125 51.171875 25.484375 53.578125 
Q 30.03125 56 36.53125 56 
Q 37.453125 56 38.578125 55.875 
Q 39.703125 55.765625 41.0625 55.515625 
z
" id="DejaVuSans-114"/>
     </defs>
     <g transform="translate(413.460938 68.438437)scale(0.1 -0.1)">
      <use xlink:href="#DejaVuSans-116"/>
      <use x="39.208984" xlink:href="#DejaVuSans-97"/>
      <use x="100.488281" xlink:href="#DejaVuSans-114"/>
      <use x="141.585938" xlink:href="#DejaVuSans-103"/>
      <use x="205.0625" xlink:href="#DejaVuSans-101"/>
      <use x="266.585938" xlink:href="#DejaVuSans-116"/>
     </g>
    </g>
    <g id="line2d_17">
     <path d="M 385.460938 79.616562 
L 405.460938 79.616562 
" style="fill:none;stroke:#ff0000;stroke-linecap:square;stroke-width:1.5;"/>
    </g>
    <g id="line2d_18"/>
    <g id="text_16">
     <!-- model -->
     <defs>
      <path d="M 45.40625 46.390625 
L 45.40625 75.984375 
L 54.390625 75.984375 
L 54.390625 0 
L 45.40625 0 
L 45.40625 8.203125 
Q 42.578125 3.328125 38.25 0.953125 
Q 33.9375 -1.421875 27.875 -1.421875 
Q 17.96875 -1.421875 11.734375 6.484375 
Q 5.515625 14.40625 5.515625 27.296875 
Q 5.515625 40.1875 11.734375 48.09375 
Q 17.96875 56 27.875 56 
Q 33.9375 56 38.25 53.625 
Q 42.578125 51.265625 45.40625 46.390625 
z
M 14.796875 27.296875 
Q 14.796875 17.390625 18.875 11.75 
Q 22.953125 6.109375 30.078125 6.109375 
Q 37.203125 6.109375 41.296875 11.75 
Q 45.40625 17.390625 45.40625 27.296875 
Q 45.40625 37.203125 41.296875 42.84375 
Q 37.203125 48.484375 30.078125 48.484375 
Q 22.953125 48.484375 18.875 42.84375 
Q 14.796875 37.203125 14.796875 27.296875 
z
" id="DejaVuSans-100"/>
     </defs>
     <g transform="translate(413.460938 83.116562)scale(0.1 -0.1)">
      <use xlink:href="#DejaVuSans-109"/>
      <use x="97.412109" xlink:href="#DejaVuSans-111"/>
      <use x="158.59375" xlink:href="#DejaVuSans-100"/>
      <use x="222.070312" xlink:href="#DejaVuSans-101"/>
      <use x="283.59375" xlink:href="#DejaVuSans-108"/>
     </g>
    </g>
   </g>
  </g>
 </g>
 <defs>
  <clipPath id="pe0b6cb5f71">
   <rect height="332.64" width="390.6" x="63" y="51.84"/>
  </clipPath>
 </defs>
</svg>
