<?xml version="1.0" encoding="utf-8" standalone="no"?>
<!DOCTYPE svg PUBLIC "-//W3C//DTD SVG 1.1//EN"
  "http://www.w3.org/Graphics/SVG/1.1/DTD/svg11.dtd">
<!-- Created with matplotlib (https://matplotlib.org/) -->
<svg height="432pt" version="1.1" viewBox="0 0 504 432" width="504pt" xmlns="http://www.w3.org/2000/svg" xmlns:xlink="http://www.w3.org/1999/xlink">
 <defs>
  <style type="text/css">
*{stroke-linecap:butt;stroke-linejoin:round;}
  </style>
 </defs>
 <g id="figure_1">
  <g id="patch_1">
   <path d="M 0 432 
L 504 432 
L 504 0 
L 0 0 
z
" style="fill:#ffffff;"/>
  </g>
  <g id="axes_1">
   <g id="patch_2">
    <path d="M 63 384.48 
L 453.6 384.48 
L 453.6 51.84 
L 63 51.84 
z
" style="fill:#ffffff;"/>
   </g>
   <g id="matplotlib.axis_1">
    <g id="xtick_1">
     <g id="line2d_1">
      <defs>
       <path d="M 0 0 
L 0 3.5 
" id="mf533fe6392" style="stroke:#000000;stroke-width:0.8;"/>
      </defs>
      <g>
       <use style="stroke:#000000;stroke-width:0.8;" x="80.754545" xlink:href="#mf533fe6392" y="384.48"/>
      </g>
     </g>
     <g id="text_1">
      <!-- 0 -->
      <defs>
       <path d="M 31.78125 66.40625 
Q 24.171875 66.40625 20.328125 58.90625 
Q 16.5 51.421875 16.5 36.375 
Q 16.5 21.390625 20.328125 13.890625 
Q 24.171875 6.390625 31.78125 6.390625 
Q 39.453125 6.390625 43.28125 13.890625 
Q 47.125 21.390625 47.125 36.375 
Q 47.125 51.421875 43.28125 58.90625 
Q 39.453125 66.40625 31.78125 66.40625 
z
M 31.78125 74.21875 
Q 44.046875 74.21875 50.515625 64.515625 
Q 56.984375 54.828125 56.984375 36.375 
Q 56.984375 17.96875 50.515625 8.265625 
Q 44.046875 -1.421875 31.78125 -1.421875 
Q 19.53125 -1.421875 13.0625 8.265625 
Q 6.59375 17.96875 6.59375 36.375 
Q 6.59375 54.828125 13.0625 64.515625 
Q 19.53125 74.21875 31.78125 74.21875 
z
" id="DejaVuSans-48"/>
      </defs>
      <g transform="translate(77.573295 399.078438)scale(0.1 -0.1)">
       <use xlink:href="#DejaVuSans-48"/>
      </g>
     </g>
    </g>
    <g id="xtick_2">
     <g id="line2d_2">
      <g>
       <use style="stroke:#000000;stroke-width:0.8;" x="151.772727" xlink:href="#mf533fe6392" y="384.48"/>
      </g>
     </g>
     <g id="text_2">
      <!-- 200 -->
      <defs>
       <path d="M 19.1875 8.296875 
L 53.609375 8.296875 
L 53.609375 0 
L 7.328125 0 
L 7.328125 8.296875 
Q 12.9375 14.109375 22.625 23.890625 
Q 32.328125 33.6875 34.8125 36.53125 
Q 39.546875 41.84375 41.421875 45.53125 
Q 43.3125 49.21875 43.3125 52.78125 
Q 43.3125 58.59375 39.234375 62.25 
Q 35.15625 65.921875 28.609375 65.921875 
Q 23.96875 65.921875 18.8125 64.3125 
Q 13.671875 62.703125 7.8125 59.421875 
L 7.8125 69.390625 
Q 13.765625 71.78125 18.9375 73 
Q 24.125 74.21875 28.421875 74.21875 
Q 39.75 74.21875 46.484375 68.546875 
Q 53.21875 62.890625 53.21875 53.421875 
Q 53.21875 48.921875 51.53125 44.890625 
Q 49.859375 40.875 45.40625 35.40625 
Q 44.1875 33.984375 37.640625 27.21875 
Q 31.109375 20.453125 19.1875 8.296875 
z
" id="DejaVuSans-50"/>
      </defs>
      <g transform="translate(142.228977 399.078438)scale(0.1 -0.1)">
       <use xlink:href="#DejaVuSans-50"/>
       <use x="63.623047" xlink:href="#DejaVuSans-48"/>
       <use x="127.246094" xlink:href="#DejaVuSans-48"/>
      </g>
     </g>
    </g>
    <g id="xtick_3">
     <g id="line2d_3">
      <g>
       <use style="stroke:#000000;stroke-width:0.8;" x="222.790909" xlink:href="#mf533fe6392" y="384.48"/>
      </g>
     </g>
     <g id="text_3">
      <!-- 400 -->
      <defs>
       <path d="M 37.796875 64.3125 
L 12.890625 25.390625 
L 37.796875 25.390625 
z
M 35.203125 72.90625 
L 47.609375 72.90625 
L 47.609375 25.390625 
L 58.015625 25.390625 
L 58.015625 17.1875 
L 47.609375 17.1875 
L 47.609375 0 
L 37.796875 0 
L 37.796875 17.1875 
L 4.890625 17.1875 
L 4.890625 26.703125 
z
" id="DejaVuSans-52"/>
      </defs>
      <g transform="translate(213.247159 399.078438)scale(0.1 -0.1)">
       <use xlink:href="#DejaVuSans-52"/>
       <use x="63.623047" xlink:href="#DejaVuSans-48"/>
       <use x="127.246094" xlink:href="#DejaVuSans-48"/>
      </g>
     </g>
    </g>
    <g id="xtick_4">
     <g id="line2d_4">
      <g>
       <use style="stroke:#000000;stroke-width:0.8;" x="293.809091" xlink:href="#mf533fe6392" y="384.48"/>
      </g>
     </g>
     <g id="text_4">
      <!-- 600 -->
      <defs>
       <path d="M 33.015625 40.375 
Q 26.375 40.375 22.484375 35.828125 
Q 18.609375 31.296875 18.609375 23.390625 
Q 18.609375 15.53125 22.484375 10.953125 
Q 26.375 6.390625 33.015625 6.390625 
Q 39.65625 6.390625 43.53125 10.953125 
Q 47.40625 15.53125 47.40625 23.390625 
Q 47.40625 31.296875 43.53125 35.828125 
Q 39.65625 40.375 33.015625 40.375 
z
M 52.59375 71.296875 
L 52.59375 62.3125 
Q 48.875 64.0625 45.09375 64.984375 
Q 41.3125 65.921875 37.59375 65.921875 
Q 27.828125 65.921875 22.671875 59.328125 
Q 17.53125 52.734375 16.796875 39.40625 
Q 19.671875 43.65625 24.015625 45.921875 
Q 28.375 48.1875 33.59375 48.1875 
Q 44.578125 48.1875 50.953125 41.515625 
Q 57.328125 34.859375 57.328125 23.390625 
Q 57.328125 12.15625 50.6875 5.359375 
Q 44.046875 -1.421875 33.015625 -1.421875 
Q 20.359375 -1.421875 13.671875 8.265625 
Q 6.984375 17.96875 6.984375 36.375 
Q 6.984375 53.65625 15.1875 63.9375 
Q 23.390625 74.21875 37.203125 74.21875 
Q 40.921875 74.21875 44.703125 73.484375 
Q 48.484375 72.75 52.59375 71.296875 
z
" id="DejaVuSans-54"/>
      </defs>
      <g transform="translate(284.265341 399.078438)scale(0.1 -0.1)">
       <use xlink:href="#DejaVuSans-54"/>
       <use x="63.623047" xlink:href="#DejaVuSans-48"/>
       <use x="127.246094" xlink:href="#DejaVuSans-48"/>
      </g>
     </g>
    </g>
    <g id="xtick_5">
     <g id="line2d_5">
      <g>
       <use style="stroke:#000000;stroke-width:0.8;" x="364.827273" xlink:href="#mf533fe6392" y="384.48"/>
      </g>
     </g>
     <g id="text_5">
      <!-- 800 -->
      <defs>
       <path d="M 31.78125 34.625 
Q 24.75 34.625 20.71875 30.859375 
Q 16.703125 27.09375 16.703125 20.515625 
Q 16.703125 13.921875 20.71875 10.15625 
Q 24.75 6.390625 31.78125 6.390625 
Q 38.8125 6.390625 42.859375 10.171875 
Q 46.921875 13.96875 46.921875 20.515625 
Q 46.921875 27.09375 42.890625 30.859375 
Q 38.875 34.625 31.78125 34.625 
z
M 21.921875 38.8125 
Q 15.578125 40.375 12.03125 44.71875 
Q 8.5 49.078125 8.5 55.328125 
Q 8.5 64.0625 14.71875 69.140625 
Q 20.953125 74.21875 31.78125 74.21875 
Q 42.671875 74.21875 48.875 69.140625 
Q 55.078125 64.0625 55.078125 55.328125 
Q 55.078125 49.078125 51.53125 44.71875 
Q 48 40.375 41.703125 38.8125 
Q 48.828125 37.15625 52.796875 32.3125 
Q 56.78125 27.484375 56.78125 20.515625 
Q 56.78125 9.90625 50.3125 4.234375 
Q 43.84375 -1.421875 31.78125 -1.421875 
Q 19.734375 -1.421875 13.25 4.234375 
Q 6.78125 9.90625 6.78125 20.515625 
Q 6.78125 27.484375 10.78125 32.3125 
Q 14.796875 37.15625 21.921875 38.8125 
z
M 18.3125 54.390625 
Q 18.3125 48.734375 21.84375 45.5625 
Q 25.390625 42.390625 31.78125 42.390625 
Q 38.140625 42.390625 41.71875 45.5625 
Q 45.3125 48.734375 45.3125 54.390625 
Q 45.3125 60.0625 41.71875 63.234375 
Q 38.140625 66.40625 31.78125 66.40625 
Q 25.390625 66.40625 21.84375 63.234375 
Q 18.3125 60.0625 18.3125 54.390625 
z
" id="DejaVuSans-56"/>
      </defs>
      <g transform="translate(355.283523 399.078438)scale(0.1 -0.1)">
       <use xlink:href="#DejaVuSans-56"/>
       <use x="63.623047" xlink:href="#DejaVuSans-48"/>
       <use x="127.246094" xlink:href="#DejaVuSans-48"/>
      </g>
     </g>
    </g>
    <g id="text_6">
     <!-- time [ms] -->
     <defs>
      <path d="M 18.3125 70.21875 
L 18.3125 54.6875 
L 36.8125 54.6875 
L 36.8125 47.703125 
L 18.3125 47.703125 
L 18.3125 18.015625 
Q 18.3125 11.328125 20.140625 9.421875 
Q 21.96875 7.515625 27.59375 7.515625 
L 36.8125 7.515625 
L 36.8125 0 
L 27.59375 0 
Q 17.1875 0 13.234375 3.875 
Q 9.28125 7.765625 9.28125 18.015625 
L 9.28125 47.703125 
L 2.6875 47.703125 
L 2.6875 54.6875 
L 9.28125 54.6875 
L 9.28125 70.21875 
z
" id="DejaVuSans-116"/>
      <path d="M 9.421875 54.6875 
L 18.40625 54.6875 
L 18.40625 0 
L 9.421875 0 
z
M 9.421875 75.984375 
L 18.40625 75.984375 
L 18.40625 64.59375 
L 9.421875 64.59375 
z
" id="DejaVuSans-105"/>
      <path d="M 52 44.1875 
Q 55.375 50.25 60.0625 53.125 
Q 64.75 56 71.09375 56 
Q 79.640625 56 84.28125 50.015625 
Q 88.921875 44.046875 88.921875 33.015625 
L 88.921875 0 
L 79.890625 0 
L 79.890625 32.71875 
Q 79.890625 40.578125 77.09375 44.375 
Q 74.3125 48.1875 68.609375 48.1875 
Q 61.625 48.1875 57.5625 43.546875 
Q 53.515625 38.921875 53.515625 30.90625 
L 53.515625 0 
L 44.484375 0 
L 44.484375 32.71875 
Q 44.484375 40.625 41.703125 44.40625 
Q 38.921875 48.1875 33.109375 48.1875 
Q 26.21875 48.1875 22.15625 43.53125 
Q 18.109375 38.875 18.109375 30.90625 
L 18.109375 0 
L 9.078125 0 
L 9.078125 54.6875 
L 18.109375 54.6875 
L 18.109375 46.1875 
Q 21.1875 51.21875 25.484375 53.609375 
Q 29.78125 56 35.6875 56 
Q 41.65625 56 45.828125 52.96875 
Q 50 49.953125 52 44.1875 
z
" id="DejaVuSans-109"/>
      <path d="M 56.203125 29.59375 
L 56.203125 25.203125 
L 14.890625 25.203125 
Q 15.484375 15.921875 20.484375 11.0625 
Q 25.484375 6.203125 34.421875 6.203125 
Q 39.59375 6.203125 44.453125 7.46875 
Q 49.3125 8.734375 54.109375 11.28125 
L 54.109375 2.78125 
Q 49.265625 0.734375 44.1875 -0.34375 
Q 39.109375 -1.421875 33.890625 -1.421875 
Q 20.796875 -1.421875 13.15625 6.1875 
Q 5.515625 13.8125 5.515625 26.8125 
Q 5.515625 40.234375 12.765625 48.109375 
Q 20.015625 56 32.328125 56 
Q 43.359375 56 49.78125 48.890625 
Q 56.203125 41.796875 56.203125 29.59375 
z
M 47.21875 32.234375 
Q 47.125 39.59375 43.09375 43.984375 
Q 39.0625 48.390625 32.421875 48.390625 
Q 24.90625 48.390625 20.390625 44.140625 
Q 15.875 39.890625 15.1875 32.171875 
z
" id="DejaVuSans-101"/>
      <path id="DejaVuSans-32"/>
      <path d="M 8.59375 75.984375 
L 29.296875 75.984375 
L 29.296875 69 
L 17.578125 69 
L 17.578125 -6.203125 
L 29.296875 -6.203125 
L 29.296875 -13.1875 
L 8.59375 -13.1875 
z
" id="DejaVuSans-91"/>
      <path d="M 44.28125 53.078125 
L 44.28125 44.578125 
Q 40.484375 46.53125 36.375 47.5 
Q 32.28125 48.484375 27.875 48.484375 
Q 21.1875 48.484375 17.84375 46.4375 
Q 14.5 44.390625 14.5 40.28125 
Q 14.5 37.15625 16.890625 35.375 
Q 19.28125 33.59375 26.515625 31.984375 
L 29.59375 31.296875 
Q 39.15625 29.25 43.1875 25.515625 
Q 47.21875 21.78125 47.21875 15.09375 
Q 47.21875 7.46875 41.1875 3.015625 
Q 35.15625 -1.421875 24.609375 -1.421875 
Q 20.21875 -1.421875 15.453125 -0.5625 
Q 10.6875 0.296875 5.421875 2 
L 5.421875 11.28125 
Q 10.40625 8.6875 15.234375 7.390625 
Q 20.0625 6.109375 24.8125 6.109375 
Q 31.15625 6.109375 34.5625 8.28125 
Q 37.984375 10.453125 37.984375 14.40625 
Q 37.984375 18.0625 35.515625 20.015625 
Q 33.0625 21.96875 24.703125 23.78125 
L 21.578125 24.515625 
Q 13.234375 26.265625 9.515625 29.90625 
Q 5.8125 33.546875 5.8125 39.890625 
Q 5.8125 47.609375 11.28125 51.796875 
Q 16.75 56 26.8125 56 
Q 31.78125 56 36.171875 55.265625 
Q 40.578125 54.546875 44.28125 53.078125 
z
" id="DejaVuSans-115"/>
      <path d="M 30.421875 75.984375 
L 30.421875 -13.1875 
L 9.71875 -13.1875 
L 9.71875 -6.203125 
L 21.390625 -6.203125 
L 21.390625 69 
L 9.71875 69 
L 9.71875 75.984375 
z
" id="DejaVuSans-93"/>
     </defs>
     <g transform="translate(234.038281 412.756563)scale(0.1 -0.1)">
      <use xlink:href="#DejaVuSans-116"/>
      <use x="39.208984" xlink:href="#DejaVuSans-105"/>
      <use x="66.992188" xlink:href="#DejaVuSans-109"/>
      <use x="164.404297" xlink:href="#DejaVuSans-101"/>
      <use x="225.927734" xlink:href="#DejaVuSans-32"/>
      <use x="257.714844" xlink:href="#DejaVuSans-91"/>
      <use x="296.728516" xlink:href="#DejaVuSans-109"/>
      <use x="394.140625" xlink:href="#DejaVuSans-115"/>
      <use x="446.240234" xlink:href="#DejaVuSans-93"/>
     </g>
    </g>
   </g>
   <g id="matplotlib.axis_2">
    <g id="ytick_1">
     <g id="line2d_6">
      <defs>
       <path d="M 0 0 
L -3.5 0 
" id="m10fa123a01" style="stroke:#000000;stroke-width:0.8;"/>
      </defs>
      <g>
       <use style="stroke:#000000;stroke-width:0.8;" x="63" xlink:href="#m10fa123a01" y="348.362123"/>
      </g>
     </g>
     <g id="text_7">
      <!-- −60 -->
      <defs>
       <path d="M 10.59375 35.5 
L 73.1875 35.5 
L 73.1875 27.203125 
L 10.59375 27.203125 
z
" id="DejaVuSans-8722"/>
      </defs>
      <g transform="translate(34.895313 352.161341)scale(0.1 -0.1)">
       <use xlink:href="#DejaVuSans-8722"/>
       <use x="83.789062" xlink:href="#DejaVuSans-54"/>
       <use x="147.412109" xlink:href="#DejaVuSans-48"/>
      </g>
     </g>
    </g>
    <g id="ytick_2">
     <g id="line2d_7">
      <g>
       <use style="stroke:#000000;stroke-width:0.8;" x="63" xlink:href="#m10fa123a01" y="281.187202"/>
      </g>
     </g>
     <g id="text_8">
      <!-- −40 -->
      <g transform="translate(34.895313 284.986421)scale(0.1 -0.1)">
       <use xlink:href="#DejaVuSans-8722"/>
       <use x="83.789062" xlink:href="#DejaVuSans-52"/>
       <use x="147.412109" xlink:href="#DejaVuSans-48"/>
      </g>
     </g>
    </g>
    <g id="ytick_3">
     <g id="line2d_8">
      <g>
       <use style="stroke:#000000;stroke-width:0.8;" x="63" xlink:href="#m10fa123a01" y="214.012281"/>
      </g>
     </g>
     <g id="text_9">
      <!-- −20 -->
      <g transform="translate(34.895313 217.8115)scale(0.1 -0.1)">
       <use xlink:href="#DejaVuSans-8722"/>
       <use x="83.789062" xlink:href="#DejaVuSans-50"/>
       <use x="147.412109" xlink:href="#DejaVuSans-48"/>
      </g>
     </g>
    </g>
    <g id="ytick_4">
     <g id="line2d_9">
      <g>
       <use style="stroke:#000000;stroke-width:0.8;" x="63" xlink:href="#m10fa123a01" y="146.837361"/>
      </g>
     </g>
     <g id="text_10">
      <!-- 0 -->
      <g transform="translate(49.6375 150.63658)scale(0.1 -0.1)">
       <use xlink:href="#DejaVuSans-48"/>
      </g>
     </g>
    </g>
    <g id="ytick_5">
     <g id="line2d_10">
      <g>
       <use style="stroke:#000000;stroke-width:0.8;" x="63" xlink:href="#m10fa123a01" y="79.66244"/>
      </g>
     </g>
     <g id="text_11">
      <!-- 20 -->
      <g transform="translate(43.275 83.461659)scale(0.1 -0.1)">
       <use xlink:href="#DejaVuSans-50"/>
       <use x="63.623047" xlink:href="#DejaVuSans-48"/>
      </g>
     </g>
    </g>
    <g id="text_12">
     <!-- voltage [V] -->
     <defs>
      <path d="M 2.984375 54.6875 
L 12.5 54.6875 
L 29.59375 8.796875 
L 46.6875 54.6875 
L 56.203125 54.6875 
L 35.6875 0 
L 23.484375 0 
z
" id="DejaVuSans-118"/>
      <path d="M 30.609375 48.390625 
Q 23.390625 48.390625 19.1875 42.75 
Q 14.984375 37.109375 14.984375 27.296875 
Q 14.984375 17.484375 19.15625 11.84375 
Q 23.34375 6.203125 30.609375 6.203125 
Q 37.796875 6.203125 41.984375 11.859375 
Q 46.1875 17.53125 46.1875 27.296875 
Q 46.1875 37.015625 41.984375 42.703125 
Q 37.796875 48.390625 30.609375 48.390625 
z
M 30.609375 56 
Q 42.328125 56 49.015625 48.375 
Q 55.71875 40.765625 55.71875 27.296875 
Q 55.71875 13.875 49.015625 6.21875 
Q 42.328125 -1.421875 30.609375 -1.421875 
Q 18.84375 -1.421875 12.171875 6.21875 
Q 5.515625 13.875 5.515625 27.296875 
Q 5.515625 40.765625 12.171875 48.375 
Q 18.84375 56 30.609375 56 
z
" id="DejaVuSans-111"/>
      <path d="M 9.421875 75.984375 
L 18.40625 75.984375 
L 18.40625 0 
L 9.421875 0 
z
" id="DejaVuSans-108"/>
      <path d="M 34.28125 27.484375 
Q 23.390625 27.484375 19.1875 25 
Q 14.984375 22.515625 14.984375 16.5 
Q 14.984375 11.71875 18.140625 8.90625 
Q 21.296875 6.109375 26.703125 6.109375 
Q 34.1875 6.109375 38.703125 11.40625 
Q 43.21875 16.703125 43.21875 25.484375 
L 43.21875 27.484375 
z
M 52.203125 31.203125 
L 52.203125 0 
L 43.21875 0 
L 43.21875 8.296875 
Q 40.140625 3.328125 35.546875 0.953125 
Q 30.953125 -1.421875 24.3125 -1.421875 
Q 15.921875 -1.421875 10.953125 3.296875 
Q 6 8.015625 6 15.921875 
Q 6 25.140625 12.171875 29.828125 
Q 18.359375 34.515625 30.609375 34.515625 
L 43.21875 34.515625 
L 43.21875 35.40625 
Q 43.21875 41.609375 39.140625 45 
Q 35.0625 48.390625 27.6875 48.390625 
Q 23 48.390625 18.546875 47.265625 
Q 14.109375 46.140625 10.015625 43.890625 
L 10.015625 52.203125 
Q 14.9375 54.109375 19.578125 55.046875 
Q 24.21875 56 28.609375 56 
Q 40.484375 56 46.34375 49.84375 
Q 52.203125 43.703125 52.203125 31.203125 
z
" id="DejaVuSans-97"/>
      <path d="M 45.40625 27.984375 
Q 45.40625 37.75 41.375 43.109375 
Q 37.359375 48.484375 30.078125 48.484375 
Q 22.859375 48.484375 18.828125 43.109375 
Q 14.796875 37.75 14.796875 27.984375 
Q 14.796875 18.265625 18.828125 12.890625 
Q 22.859375 7.515625 30.078125 7.515625 
Q 37.359375 7.515625 41.375 12.890625 
Q 45.40625 18.265625 45.40625 27.984375 
z
M 54.390625 6.78125 
Q 54.390625 -7.171875 48.1875 -13.984375 
Q 42 -20.796875 29.203125 -20.796875 
Q 24.46875 -20.796875 20.265625 -20.09375 
Q 16.0625 -19.390625 12.109375 -17.921875 
L 12.109375 -9.1875 
Q 16.0625 -11.328125 19.921875 -12.34375 
Q 23.78125 -13.375 27.78125 -13.375 
Q 36.625 -13.375 41.015625 -8.765625 
Q 45.40625 -4.15625 45.40625 5.171875 
L 45.40625 9.625 
Q 42.625 4.78125 38.28125 2.390625 
Q 33.9375 0 27.875 0 
Q 17.828125 0 11.671875 7.65625 
Q 5.515625 15.328125 5.515625 27.984375 
Q 5.515625 40.671875 11.671875 48.328125 
Q 17.828125 56 27.875 56 
Q 33.9375 56 38.28125 53.609375 
Q 42.625 51.21875 45.40625 46.390625 
L 45.40625 54.6875 
L 54.390625 54.6875 
z
" id="DejaVuSans-103"/>
      <path d="M 28.609375 0 
L 0.78125 72.90625 
L 11.078125 72.90625 
L 34.1875 11.53125 
L 57.328125 72.90625 
L 67.578125 72.90625 
L 39.796875 0 
z
" id="DejaVuSans-86"/>
     </defs>
     <g transform="translate(28.815625 245.75375)rotate(-90)scale(0.1 -0.1)">
      <use xlink:href="#DejaVuSans-118"/>
      <use x="59.179688" xlink:href="#DejaVuSans-111"/>
      <use x="120.361328" xlink:href="#DejaVuSans-108"/>
      <use x="148.144531" xlink:href="#DejaVuSans-116"/>
      <use x="187.353516" xlink:href="#DejaVuSans-97"/>
      <use x="248.632812" xlink:href="#DejaVuSans-103"/>
      <use x="312.109375" xlink:href="#DejaVuSans-101"/>
      <use x="373.632812" xlink:href="#DejaVuSans-32"/>
      <use x="405.419922" xlink:href="#DejaVuSans-91"/>
      <use x="444.433594" xlink:href="#DejaVuSans-86"/>
      <use x="512.841797" xlink:href="#DejaVuSans-93"/>
     </g>
    </g>
   </g>
   <g id="line2d_11">
    <path clip-path="url(#peefc84906f)" d="M 80.754545 365.155845 
L 81.695536 365.167834 
L 85.708064 365.586508 
L 98.526845 366.911434 
L 108.611427 367.70972 
L 119.459455 368.340714 
L 131.585809 368.817849 
L 145.753936 369.146026 
L 151.772727 369.229947 
L 151.8615 367.205869 
L 152.234345 358.958387 
L 152.731473 353.185765 
L 153.565936 346.365663 
L 154.9863 336.755567 
L 156.726245 326.51718 
L 158.412927 317.860277 
L 160.028591 310.688934 
L 161.590991 304.757353 
L 163.153391 299.704622 
L 164.840073 295.022187 
L 167.236936 289.108918 
L 168.941373 284.670853 
L 169.793591 281.842755 
L 170.361736 279.206004 
L 170.752336 276.349198 
L 171.036409 272.245485 
L 171.1962 265.010542 
L 171.249464 256.967081 
L 171.622309 69.304004 
L 171.675573 66.96 
L 171.746591 67.201369 
L 171.906382 80.048543 
L 172.190455 132.803847 
L 172.847373 251.250749 
L 173.220218 285.804274 
L 173.5398 298.196224 
L 173.912645 304.658102 
L 174.303245 308.039106 
L 174.782618 310.253079 
L 175.226482 311.368441 
L 175.6881 311.961399 
L 176.096455 312.155337 
L 176.522564 312.111563 
L 177.019691 311.818159 
L 177.676609 311.132663 
L 178.511073 309.922713 
L 179.771645 307.66789 
L 182.807673 301.606511 
L 185.470855 296.581208 
L 188.134036 292.05825 
L 192.199827 285.212817 
L 193.336118 282.77911 
L 194.117318 280.565395 
L 194.685464 278.228853 
L 195.093818 275.431804 
L 195.324627 272.470431 
L 195.502173 266.512222 
L 195.573191 257.268302 
L 195.626455 229.752649 
L 195.839509 97.815329 
L 196.017055 89.174451 
L 196.034809 89.132877 
L 196.176845 92.876572 
L 196.407655 109.972854 
L 196.744991 158.835956 
L 197.437418 256.540515 
L 197.810264 281.302787 
L 198.200864 293.03892 
L 198.591464 298.681511 
L 199.070836 302.382427 
L 199.550209 304.553401 
L 200.082845 306.049315 
L 200.650991 306.99461 
L 201.219136 307.487924 
L 201.787282 307.656165 
L 202.390936 307.570842 
L 203.083364 307.226864 
L 203.988845 306.496479 
L 205.231664 305.166744 
L 207.220173 302.660184 
L 212.9904 295.255015 
L 217.837391 289.574617 
L 220.4118 286.365286 
L 221.885427 284.177987 
L 222.915191 282.255417 
L 223.660882 280.402006 
L 224.229027 278.372677 
L 224.637382 276.042992 
L 224.9037 273.313809 
L 225.081245 269.551859 
L 225.205527 260.288373 
L 225.241036 246.76464 
L 225.525109 96.60823 
L 225.596127 94.255128 
L 225.667145 94.807652 
L 225.862445 102.740094 
L 226.164273 127.141122 
L 226.679155 196.270186 
L 227.229545 258.128988 
L 227.6379 279.527368 
L 228.046255 289.863589 
L 228.454609 295.239438 
L 228.933982 298.875311 
L 229.502127 301.48829 
L 230.105782 303.228829 
L 230.691682 304.300968 
L 231.313091 304.984532 
L 231.898991 305.319203 
L 232.538155 305.427841 
L 233.266091 305.308055 
L 234.136064 304.918218 
L 235.236845 304.162063 
L 236.781491 302.801461 
L 239.302636 300.245932 
L 247.398709 291.928154 
L 251.428991 287.723764 
L 253.310973 285.44576 
L 254.607055 283.539899 
L 255.548045 281.77432 
L 256.258227 279.972917 
L 256.790864 278.001891 
L 257.181464 275.665416 
L 257.447782 272.661057 
L 257.607573 268.709636 
L 257.696345 262.194405 
L 257.767364 238.999735 
L 257.998173 100.225362 
L 258.122455 94.948421 
L 258.157964 95.557884 
L 258.264491 99.040374 
L 258.566318 119.469564 
L 258.956918 163.897866 
L 259.755873 256.677238 
L 260.181982 278.631784 
L 260.590336 288.782727 
L 261.016445 294.175747 
L 261.495818 297.599504 
L 262.028455 299.944263 
L 262.649864 301.694443 
L 263.271273 302.814247 
L 263.892682 303.510844 
L 264.531845 303.906767 
L 265.206518 304.061453 
L 265.952209 303.996671 
L 266.839936 303.68384 
L 267.940718 303.048093 
L 269.449855 301.896845 
L 271.722436 299.856161 
L 281.167855 290.836639 
L 284.434691 287.52382 
L 286.281164 285.347192 
L 287.577245 283.486879 
L 288.518236 281.762033 
L 289.246173 279.95475 
L 289.778809 278.023063 
L 290.151655 275.882201 
L 290.435727 272.895076 
L 290.631027 267.754987 
L 290.7198 259.343362 
L 290.844082 161.865104 
L 291.003873 99.363256 
L 291.128155 95.242113 
L 291.163664 95.772452 
L 291.341209 103.234791 
L 291.643036 126.927738 
L 292.175673 192.948012 
L 292.761573 256.167563 
L 293.152173 276.747796 
L 293.560527 287.691226 
L 294.004391 293.639773 
L 294.483764 297.195941 
L 295.051909 299.733092 
L 295.673318 301.481251 
L 296.276973 302.577817 
L 296.916136 303.305089 
L 297.5553 303.709184 
L 298.247727 303.876077 
L 299.028927 303.81221 
L 299.952164 303.487727 
L 301.123964 302.809153 
L 302.668609 301.633867 
L 305.136491 299.435088 
L 315.434127 289.710507 
L 318.150573 286.891365 
L 319.837255 284.829921 
L 321.062318 282.976775 
L 321.950045 281.225192 
L 322.589209 279.493923 
L 323.068582 277.59042 
L 323.423673 275.309647 
L 323.672236 272.359354 
L 323.849782 266.813928 
L 323.938555 255.927051 
L 323.974064 235.324809 
L 324.204873 100.612016 
L 324.3114 95.023744 
L 324.346909 95.503398 
L 324.453436 98.525476 
L 324.755264 118.632167 
L 325.163618 164.335403 
L 325.962573 255.98771 
L 326.388682 278.027959 
L 326.797036 288.407603 
L 327.2409 294.078874 
L 327.738027 297.582391 
L 328.306173 299.986098 
L 328.927582 301.645653 
L 329.5845 302.752972 
L 330.223664 303.403868 
L 330.880582 303.756901 
L 331.555255 303.87132 
L 332.354209 303.76408 
L 333.2952 303.394165 
L 334.484755 302.670059 
L 336.118173 301.393255 
L 338.834618 298.941055 
L 350.179773 288.168541 
L 352.274809 285.840682 
L 353.677418 283.967742 
L 354.707182 282.240024 
L 355.488382 280.501051 
L 356.074282 278.649364 
L 356.518145 276.455711 
L 356.819973 273.814468 
L 357.015273 270.240499 
L 357.139555 263.815813 
L 357.210573 244.716914 
L 357.476891 98.038716 
L 357.565664 95.187824 
L 357.618927 95.773492 
L 357.778718 102.328525 
L 358.116055 128.994319 
L 358.648691 195.603801 
L 359.216836 256.417693 
L 359.625191 277.757326 
L 360.033545 288.374307 
L 360.459655 293.98009 
L 360.939027 297.480801 
L 361.453909 299.774854 
L 362.057564 301.493969 
L 362.678973 302.62762 
L 363.318136 303.34824 
L 363.975055 303.752245 
L 364.649727 303.904957 
L 364.862782 303.90908 
L 364.969309 306.119472 
L 365.306645 313.423552 
L 365.786018 318.574141 
L 366.460691 323.220354 
L 367.348418 327.780236 
L 368.395936 332.01317 
L 369.532227 335.724607 
L 370.775045 339.066749 
L 372.1599 342.159776 
L 373.633527 344.914129 
L 375.213682 347.405761 
L 376.900364 349.662016 
L 378.729082 351.744272 
L 380.735345 353.689412 
L 382.9014 355.478155 
L 385.262755 357.139884 
L 387.890427 358.712599 
L 390.819927 360.198177 
L 394.051255 361.582253 
L 397.655427 362.881227 
L 401.685709 364.095741 
L 406.230873 365.229813 
L 411.326427 366.267787 
L 417.043391 367.199828 
L 423.381764 368.004319 
L 430.465827 368.676755 
L 435.8277 369.057024 
L 435.8277 369.057024 
" style="fill:none;stroke:#1f77b4;stroke-linecap:square;stroke-width:1.5;"/>
   </g>
   <g id="line2d_12">
    <path clip-path="url(#peefc84906f)" d="M 80.754545 365.155853 
L 80.9676 365.024023 
L 81.624518 364.962083 
L 83.453236 365.072067 
L 98.775409 366.31425 
L 106.409864 366.578559 
L 116.210373 366.681344 
L 133.929409 366.600156 
L 151.772727 366.506174 
L 151.985782 356.307263 
L 152.411891 346.989995 
L 153.104318 336.9077 
L 154.080818 325.989408 
L 155.146091 316.450822 
L 156.175855 309.119495 
L 157.187864 303.441539 
L 158.217627 298.884881 
L 159.318409 295.001934 
L 160.543473 291.493088 
L 161.981591 288.054661 
L 164.325191 283.128965 
L 165.781064 279.817659 
L 166.580018 277.446352 
L 167.130409 275.109538 
L 167.521009 272.464436 
L 167.787327 269.170352 
L 167.964873 264.263831 
L 168.0714 255.016544 
L 168.124664 233.217648 
L 168.302209 83.790757 
L 168.337718 84.92228 
L 168.604036 108.086926 
L 169.0479 155.032065 
L 169.296464 206.599829 
L 169.687064 292.315115 
L 169.900118 298.026556 
L 170.059909 298.525307 
L 170.077664 298.52276 
L 170.255209 298.327352 
L 170.521527 298.165904 
L 170.716827 298.339354 
L 171.036409 299.002035 
L 171.764345 300.553869 
L 172.279227 301.06925 
L 172.794109 301.284001 
L 173.3445 301.273474 
L 174.001418 301.027547 
L 174.835882 300.462771 
L 175.989927 299.391012 
L 177.8364 297.332958 
L 183.553364 290.818405 
L 186.642655 287.731506 
L 193.6557 280.889099 
L 194.880764 279.261065 
L 195.768491 277.719181 
L 196.443164 276.097119 
L 196.958045 274.259271 
L 197.348645 271.986765 
L 197.632718 268.901353 
L 197.828018 263.94655 
L 197.934545 255.390457 
L 197.987809 237.298527 
L 198.165355 89.807947 
L 198.218618 92.77055 
L 198.7335 149.608559 
L 198.964309 198.924735 
L 199.390418 295.064782 
L 199.585718 299.323157 
L 199.656736 299.486757 
L 199.71 299.432757 
L 199.923055 298.704481 
L 200.278145 297.786399 
L 200.526709 297.661079 
L 200.793027 297.802431 
L 202.408691 299.035873 
L 203.0301 299.093284 
L 203.740282 298.930598 
L 204.628009 298.4823 
L 205.799809 297.61927 
L 207.557509 296.016712 
L 215.547055 288.426653 
L 219.967936 284.768965 
L 223.270282 281.928397 
L 224.9037 280.23428 
L 226.039991 278.739844 
L 226.874455 277.277603 
L 227.513618 275.702594 
L 227.992991 273.933471 
L 228.365836 271.680388 
L 228.632155 268.681326 
L 228.8097 264.239233 
L 228.916227 256.56469 
L 228.987245 228.958299 
L 229.147036 90.100221 
L 229.182545 91.16154 
L 229.3956 113.285669 
L 229.821709 168.533807 
L 230.105782 250.078472 
L 230.354345 293.782738 
L 230.549645 298.994597 
L 230.656173 299.293727 
L 230.691682 299.255243 
L 230.869227 298.698161 
L 231.259827 297.665248 
L 231.508391 297.532485 
L 231.774709 297.661236 
L 233.479145 298.889434 
L 234.118309 298.923104 
L 234.864 298.729831 
L 235.787236 298.244809 
L 237.030055 297.318207 
L 238.9653 295.560884 
L 245.587745 289.374166 
L 249.191918 286.425439 
L 255.086427 281.648693 
L 256.666582 280.036985 
L 257.767364 278.607389 
L 258.584073 277.19378 
L 259.223236 275.635748 
L 259.702609 273.878897 
L 260.075455 271.63339 
L 260.341773 268.633244 
L 260.519318 264.167467 
L 260.625845 256.37899 
L 260.696864 227.624424 
L 260.856655 90.220888 
L 260.874409 90.497773 
L 260.998691 101.73147 
L 261.566836 176.957506 
L 262.188245 298.125658 
L 262.348036 299.224123 
L 262.365791 299.22219 
L 262.472318 299.000135 
L 263.022709 297.545349 
L 263.253518 297.477295 
L 263.555345 297.659258 
L 264.957955 298.753608 
L 265.597118 298.870994 
L 266.3073 298.764108 
L 267.159518 298.397084 
L 268.278055 297.652671 
L 269.893718 296.282144 
L 279.498927 287.670234 
L 285.091609 283.391531 
L 287.559491 281.320769 
L 289.050873 279.791685 
L 290.116145 278.390491 
L 290.9151 276.976464 
L 291.518755 275.465337 
L 291.998127 273.647361 
L 292.353218 271.409205 
L 292.619536 268.205396 
L 292.797082 263.076158 
L 292.903609 252.108979 
L 292.956873 219.475179 
L 293.116664 90.341972 
L 293.187682 94.829059 
L 293.755827 163.386031 
L 294.022145 236.10059 
L 294.306218 293.072827 
L 294.501518 298.79832 
L 294.608045 299.179279 
L 294.643555 299.156018 
L 294.803345 298.695989 
L 295.2117 297.589657 
L 295.460264 297.446245 
L 295.726582 297.567962 
L 297.502036 298.826453 
L 298.158955 298.847982 
L 298.9224 298.63942 
L 299.881145 298.128314 
L 301.177227 297.161243 
L 303.254509 295.294893 
L 309.024736 290.018851 
L 312.362591 287.338065 
L 320.9913 280.600102 
L 322.287382 279.165306 
L 323.228373 277.800971 
L 323.938555 276.390401 
L 324.488945 274.809422 
L 324.915055 272.904261 
L 325.234636 270.442205 
L 325.465445 266.863049 
L 325.607482 261.38771 
L 325.696255 249.010572 
L 325.749518 197.350787 
L 325.891555 90.392282 
L 325.944818 92.762496 
L 326.388682 140.784254 
L 326.637245 185.68081 
L 327.169882 296.811913 
L 327.365182 299.123602 
L 327.418445 299.122256 
L 327.453955 299.062404 
L 327.755782 298.061181 
L 328.057609 297.477328 
L 328.288418 297.412072 
L 328.590245 297.597089 
L 329.992855 298.709873 
L 330.632018 298.838074 
L 331.3422 298.744122 
L 332.194418 298.393369 
L 333.2952 297.684059 
L 334.893109 296.364006 
L 338.976655 292.579432 
L 342.350018 289.649418 
L 345.705627 287.037495 
L 354.014755 280.741795 
L 355.381855 279.302943 
L 356.358355 277.962735 
L 357.104045 276.567353 
L 357.672191 275.040301 
L 358.116055 273.20649 
L 358.453391 270.840016 
L 358.701955 267.378221 
L 358.861745 261.757777 
L 358.950518 250.705166 
L 359.003782 209.988331 
L 359.145818 90.547685 
L 359.163573 90.573163 
L 359.252345 97.322354 
L 359.838245 171.57623 
L 360.530673 298.605165 
L 360.654955 299.10603 
L 360.690464 299.077216 
L 360.850255 298.611349 
L 361.258609 297.526004 
L 361.507173 297.393149 
L 361.773491 297.522183 
L 363.531191 298.801043 
L 364.188109 298.837966 
L 364.827273 298.691572 
L 365.022573 308.065139 
L 365.395418 315.362599 
L 365.9103 321.161155 
L 366.620482 326.651175 
L 367.508209 331.796374 
L 368.537973 336.464919 
L 369.674264 340.594889 
L 370.899327 344.227436 
L 372.230918 347.487268 
L 373.651282 350.3856 
L 375.178173 353.004781 
L 376.829345 355.398792 
L 378.6048 357.582013 
L 380.504536 359.566501 
L 382.528555 361.36087 
L 384.676855 362.970086 
L 386.949436 364.395975 
L 389.3463 365.638226 
L 391.8852 366.702349 
L 394.566136 367.583366 
L 397.424618 368.286864 
L 400.513909 368.815559 
L 403.922782 369.169501 
L 407.811027 369.343675 
L 412.498227 369.321828 
L 418.925373 369.051701 
L 435.845455 368.114546 
L 435.845455 368.114546 
" style="fill:none;stroke:#ff0000;stroke-linecap:square;stroke-width:1.5;"/>
   </g>
   <g id="patch_3">
    <path d="M 63 384.48 
L 63 51.84 
" style="fill:none;stroke:#000000;stroke-linecap:square;stroke-linejoin:miter;stroke-width:0.8;"/>
   </g>
   <g id="patch_4">
    <path d="M 453.6 384.48 
L 453.6 51.84 
" style="fill:none;stroke:#000000;stroke-linecap:square;stroke-linejoin:miter;stroke-width:0.8;"/>
   </g>
   <g id="patch_5">
    <path d="M 63 384.48 
L 453.6 384.48 
" style="fill:none;stroke:#000000;stroke-linecap:square;stroke-linejoin:miter;stroke-width:0.8;"/>
   </g>
   <g id="patch_6">
    <path d="M 63 51.84 
L 453.6 51.84 
" style="fill:none;stroke:#000000;stroke-linecap:square;stroke-linejoin:miter;stroke-width:0.8;"/>
   </g>
   <g id="legend_1">
    <g id="patch_7">
     <path d="M 383.460938 89.19625 
L 446.6 89.19625 
Q 448.6 89.19625 448.6 87.19625 
L 448.6 58.84 
Q 448.6 56.84 446.6 56.84 
L 383.460938 56.84 
Q 381.460938 56.84 381.460938 58.84 
L 381.460938 87.19625 
Q 381.460938 89.19625 383.460938 89.19625 
z
" style="fill:#ffffff;opacity:0.8;stroke:#cccccc;stroke-linejoin:miter;"/>
    </g>
    <g id="line2d_13">
     <path d="M 385.460938 64.938437 
L 405.460938 64.938437 
" style="fill:none;stroke:#1f77b4;stroke-linecap:square;stroke-width:1.5;"/>
    </g>
    <g id="line2d_14"/>
    <g id="text_13">
     <!-- target -->
     <defs>
      <path d="M 41.109375 46.296875 
Q 39.59375 47.171875 37.8125 47.578125 
Q 36.03125 48 33.890625 48 
Q 26.265625 48 22.1875 43.046875 
Q 18.109375 38.09375 18.109375 28.8125 
L 18.109375 0 
L 9.078125 0 
L 9.078125 54.6875 
L 18.109375 54.6875 
L 18.109375 46.1875 
Q 20.953125 51.171875 25.484375 53.578125 
Q 30.03125 56 36.53125 56 
Q 37.453125 56 38.578125 55.875 
Q 39.703125 55.765625 41.0625 55.515625 
z
" id="DejaVuSans-114"/>
     </defs>
     <g transform="translate(413.460938 68.438437)scale(0.1 -0.1)">
      <use xlink:href="#DejaVuSans-116"/>
      <use x="39.208984" xlink:href="#DejaVuSans-97"/>
      <use x="100.488281" xlink:href="#DejaVuSans-114"/>
      <use x="141.585938" xlink:href="#DejaVuSans-103"/>
      <use x="205.0625" xlink:href="#DejaVuSans-101"/>
      <use x="266.585938" xlink:href="#DejaVuSans-116"/>
     </g>
    </g>
    <g id="line2d_15">
     <path d="M 385.460938 79.616562 
L 405.460938 79.616562 
" style="fill:none;stroke:#ff0000;stroke-linecap:square;stroke-width:1.5;"/>
    </g>
    <g id="line2d_16"/>
    <g id="text_14">
     <!-- model -->
     <defs>
      <path d="M 45.40625 46.390625 
L 45.40625 75.984375 
L 54.390625 75.984375 
L 54.390625 0 
L 45.40625 0 
L 45.40625 8.203125 
Q 42.578125 3.328125 38.25 0.953125 
Q 33.9375 -1.421875 27.875 -1.421875 
Q 17.96875 -1.421875 11.734375 6.484375 
Q 5.515625 14.40625 5.515625 27.296875 
Q 5.515625 40.1875 11.734375 48.09375 
Q 17.96875 56 27.875 56 
Q 33.9375 56 38.25 53.625 
Q 42.578125 51.265625 45.40625 46.390625 
z
M 14.796875 27.296875 
Q 14.796875 17.390625 18.875 11.75 
Q 22.953125 6.109375 30.078125 6.109375 
Q 37.203125 6.109375 41.296875 11.75 
Q 45.40625 17.390625 45.40625 27.296875 
Q 45.40625 37.203125 41.296875 42.84375 
Q 37.203125 48.484375 30.078125 48.484375 
Q 22.953125 48.484375 18.875 42.84375 
Q 14.796875 37.203125 14.796875 27.296875 
z
" id="DejaVuSans-100"/>
     </defs>
     <g transform="translate(413.460938 83.116562)scale(0.1 -0.1)">
      <use xlink:href="#DejaVuSans-109"/>
      <use x="97.412109" xlink:href="#DejaVuSans-111"/>
      <use x="158.59375" xlink:href="#DejaVuSans-100"/>
      <use x="222.070312" xlink:href="#DejaVuSans-101"/>
      <use x="283.59375" xlink:href="#DejaVuSans-108"/>
     </g>
    </g>
   </g>
  </g>
 </g>
 <defs>
  <clipPath id="peefc84906f">
   <rect height="332.64" width="390.6" x="63" y="51.84"/>
  </clipPath>
 </defs>
</svg>
