<?xml version="1.0" encoding="utf-8" standalone="no"?>
<!DOCTYPE svg PUBLIC "-//W3C//DTD SVG 1.1//EN"
  "http://www.w3.org/Graphics/SVG/1.1/DTD/svg11.dtd">
<!-- Created with matplotlib (https://matplotlib.org/) -->
<svg height="432pt" version="1.1" viewBox="0 0 504 432" width="504pt" xmlns="http://www.w3.org/2000/svg" xmlns:xlink="http://www.w3.org/1999/xlink">
 <defs>
  <style type="text/css">
*{stroke-linecap:butt;stroke-linejoin:round;}
  </style>
 </defs>
 <g id="figure_1">
  <g id="patch_1">
   <path d="M 0 432 
L 504 432 
L 504 0 
L 0 0 
z
" style="fill:#ffffff;"/>
  </g>
  <g id="axes_1">
   <g id="patch_2">
    <path d="M 63 384.48 
L 453.6 384.48 
L 453.6 51.84 
L 63 51.84 
z
" style="fill:#ffffff;"/>
   </g>
   <g id="matplotlib.axis_1">
    <g id="xtick_1">
     <g id="line2d_1">
      <defs>
       <path d="M 0 0 
L 0 3.5 
" id="m273b748683" style="stroke:#000000;stroke-width:0.8;"/>
      </defs>
      <g>
       <use style="stroke:#000000;stroke-width:0.8;" x="80.754545" xlink:href="#m273b748683" y="384.48"/>
      </g>
     </g>
     <g id="text_1">
      <!-- 0 -->
      <defs>
       <path d="M 31.78125 66.40625 
Q 24.171875 66.40625 20.328125 58.90625 
Q 16.5 51.421875 16.5 36.375 
Q 16.5 21.390625 20.328125 13.890625 
Q 24.171875 6.390625 31.78125 6.390625 
Q 39.453125 6.390625 43.28125 13.890625 
Q 47.125 21.390625 47.125 36.375 
Q 47.125 51.421875 43.28125 58.90625 
Q 39.453125 66.40625 31.78125 66.40625 
z
M 31.78125 74.21875 
Q 44.046875 74.21875 50.515625 64.515625 
Q 56.984375 54.828125 56.984375 36.375 
Q 56.984375 17.96875 50.515625 8.265625 
Q 44.046875 -1.421875 31.78125 -1.421875 
Q 19.53125 -1.421875 13.0625 8.265625 
Q 6.59375 17.96875 6.59375 36.375 
Q 6.59375 54.828125 13.0625 64.515625 
Q 19.53125 74.21875 31.78125 74.21875 
z
" id="DejaVuSans-48"/>
      </defs>
      <g transform="translate(77.573295 399.078438)scale(0.1 -0.1)">
       <use xlink:href="#DejaVuSans-48"/>
      </g>
     </g>
    </g>
    <g id="xtick_2">
     <g id="line2d_2">
      <g>
       <use style="stroke:#000000;stroke-width:0.8;" x="151.763044" xlink:href="#m273b748683" y="384.48"/>
      </g>
     </g>
     <g id="text_2">
      <!-- 880 -->
      <defs>
       <path d="M 31.78125 34.625 
Q 24.75 34.625 20.71875 30.859375 
Q 16.703125 27.09375 16.703125 20.515625 
Q 16.703125 13.921875 20.71875 10.15625 
Q 24.75 6.390625 31.78125 6.390625 
Q 38.8125 6.390625 42.859375 10.171875 
Q 46.921875 13.96875 46.921875 20.515625 
Q 46.921875 27.09375 42.890625 30.859375 
Q 38.875 34.625 31.78125 34.625 
z
M 21.921875 38.8125 
Q 15.578125 40.375 12.03125 44.71875 
Q 8.5 49.078125 8.5 55.328125 
Q 8.5 64.0625 14.71875 69.140625 
Q 20.953125 74.21875 31.78125 74.21875 
Q 42.671875 74.21875 48.875 69.140625 
Q 55.078125 64.0625 55.078125 55.328125 
Q 55.078125 49.078125 51.53125 44.71875 
Q 48 40.375 41.703125 38.8125 
Q 48.828125 37.15625 52.796875 32.3125 
Q 56.78125 27.484375 56.78125 20.515625 
Q 56.78125 9.90625 50.3125 4.234375 
Q 43.84375 -1.421875 31.78125 -1.421875 
Q 19.734375 -1.421875 13.25 4.234375 
Q 6.78125 9.90625 6.78125 20.515625 
Q 6.78125 27.484375 10.78125 32.3125 
Q 14.796875 37.15625 21.921875 38.8125 
z
M 18.3125 54.390625 
Q 18.3125 48.734375 21.84375 45.5625 
Q 25.390625 42.390625 31.78125 42.390625 
Q 38.140625 42.390625 41.71875 45.5625 
Q 45.3125 48.734375 45.3125 54.390625 
Q 45.3125 60.0625 41.71875 63.234375 
Q 38.140625 66.40625 31.78125 66.40625 
Q 25.390625 66.40625 21.84375 63.234375 
Q 18.3125 60.0625 18.3125 54.390625 
z
" id="DejaVuSans-56"/>
      </defs>
      <g transform="translate(142.219294 399.078438)scale(0.1 -0.1)">
       <use xlink:href="#DejaVuSans-56"/>
       <use x="63.623047" xlink:href="#DejaVuSans-56"/>
       <use x="127.246094" xlink:href="#DejaVuSans-48"/>
      </g>
     </g>
    </g>
    <g id="xtick_3">
     <g id="line2d_3">
      <g>
       <use style="stroke:#000000;stroke-width:0.8;" x="222.771543" xlink:href="#m273b748683" y="384.48"/>
      </g>
     </g>
     <g id="text_3">
      <!-- 1760 -->
      <defs>
       <path d="M 12.40625 8.296875 
L 28.515625 8.296875 
L 28.515625 63.921875 
L 10.984375 60.40625 
L 10.984375 69.390625 
L 28.421875 72.90625 
L 38.28125 72.90625 
L 38.28125 8.296875 
L 54.390625 8.296875 
L 54.390625 0 
L 12.40625 0 
z
" id="DejaVuSans-49"/>
       <path d="M 8.203125 72.90625 
L 55.078125 72.90625 
L 55.078125 68.703125 
L 28.609375 0 
L 18.3125 0 
L 43.21875 64.59375 
L 8.203125 64.59375 
z
" id="DejaVuSans-55"/>
       <path d="M 33.015625 40.375 
Q 26.375 40.375 22.484375 35.828125 
Q 18.609375 31.296875 18.609375 23.390625 
Q 18.609375 15.53125 22.484375 10.953125 
Q 26.375 6.390625 33.015625 6.390625 
Q 39.65625 6.390625 43.53125 10.953125 
Q 47.40625 15.53125 47.40625 23.390625 
Q 47.40625 31.296875 43.53125 35.828125 
Q 39.65625 40.375 33.015625 40.375 
z
M 52.59375 71.296875 
L 52.59375 62.3125 
Q 48.875 64.0625 45.09375 64.984375 
Q 41.3125 65.921875 37.59375 65.921875 
Q 27.828125 65.921875 22.671875 59.328125 
Q 17.53125 52.734375 16.796875 39.40625 
Q 19.671875 43.65625 24.015625 45.921875 
Q 28.375 48.1875 33.59375 48.1875 
Q 44.578125 48.1875 50.953125 41.515625 
Q 57.328125 34.859375 57.328125 23.390625 
Q 57.328125 12.15625 50.6875 5.359375 
Q 44.046875 -1.421875 33.015625 -1.421875 
Q 20.359375 -1.421875 13.671875 8.265625 
Q 6.984375 17.96875 6.984375 36.375 
Q 6.984375 53.65625 15.1875 63.9375 
Q 23.390625 74.21875 37.203125 74.21875 
Q 40.921875 74.21875 44.703125 73.484375 
Q 48.484375 72.75 52.59375 71.296875 
z
" id="DejaVuSans-54"/>
      </defs>
      <g transform="translate(210.046543 399.078438)scale(0.1 -0.1)">
       <use xlink:href="#DejaVuSans-49"/>
       <use x="63.623047" xlink:href="#DejaVuSans-55"/>
       <use x="127.246094" xlink:href="#DejaVuSans-54"/>
       <use x="190.869141" xlink:href="#DejaVuSans-48"/>
      </g>
     </g>
    </g>
    <g id="xtick_4">
     <g id="line2d_4">
      <g>
       <use style="stroke:#000000;stroke-width:0.8;" x="293.780042" xlink:href="#m273b748683" y="384.48"/>
      </g>
     </g>
     <g id="text_4">
      <!-- 2640 -->
      <defs>
       <path d="M 19.1875 8.296875 
L 53.609375 8.296875 
L 53.609375 0 
L 7.328125 0 
L 7.328125 8.296875 
Q 12.9375 14.109375 22.625 23.890625 
Q 32.328125 33.6875 34.8125 36.53125 
Q 39.546875 41.84375 41.421875 45.53125 
Q 43.3125 49.21875 43.3125 52.78125 
Q 43.3125 58.59375 39.234375 62.25 
Q 35.15625 65.921875 28.609375 65.921875 
Q 23.96875 65.921875 18.8125 64.3125 
Q 13.671875 62.703125 7.8125 59.421875 
L 7.8125 69.390625 
Q 13.765625 71.78125 18.9375 73 
Q 24.125 74.21875 28.421875 74.21875 
Q 39.75 74.21875 46.484375 68.546875 
Q 53.21875 62.890625 53.21875 53.421875 
Q 53.21875 48.921875 51.53125 44.890625 
Q 49.859375 40.875 45.40625 35.40625 
Q 44.1875 33.984375 37.640625 27.21875 
Q 31.109375 20.453125 19.1875 8.296875 
z
" id="DejaVuSans-50"/>
       <path d="M 37.796875 64.3125 
L 12.890625 25.390625 
L 37.796875 25.390625 
z
M 35.203125 72.90625 
L 47.609375 72.90625 
L 47.609375 25.390625 
L 58.015625 25.390625 
L 58.015625 17.1875 
L 47.609375 17.1875 
L 47.609375 0 
L 37.796875 0 
L 37.796875 17.1875 
L 4.890625 17.1875 
L 4.890625 26.703125 
z
" id="DejaVuSans-52"/>
      </defs>
      <g transform="translate(281.055042 399.078438)scale(0.1 -0.1)">
       <use xlink:href="#DejaVuSans-50"/>
       <use x="63.623047" xlink:href="#DejaVuSans-54"/>
       <use x="127.246094" xlink:href="#DejaVuSans-52"/>
       <use x="190.869141" xlink:href="#DejaVuSans-48"/>
      </g>
     </g>
    </g>
    <g id="xtick_5">
     <g id="line2d_5">
      <g>
       <use style="stroke:#000000;stroke-width:0.8;" x="364.788541" xlink:href="#m273b748683" y="384.48"/>
      </g>
     </g>
     <g id="text_5">
      <!-- 3520 -->
      <defs>
       <path d="M 40.578125 39.3125 
Q 47.65625 37.796875 51.625 33 
Q 55.609375 28.21875 55.609375 21.1875 
Q 55.609375 10.40625 48.1875 4.484375 
Q 40.765625 -1.421875 27.09375 -1.421875 
Q 22.515625 -1.421875 17.65625 -0.515625 
Q 12.796875 0.390625 7.625 2.203125 
L 7.625 11.71875 
Q 11.71875 9.328125 16.59375 8.109375 
Q 21.484375 6.890625 26.8125 6.890625 
Q 36.078125 6.890625 40.9375 10.546875 
Q 45.796875 14.203125 45.796875 21.1875 
Q 45.796875 27.640625 41.28125 31.265625 
Q 36.765625 34.90625 28.71875 34.90625 
L 20.21875 34.90625 
L 20.21875 43.015625 
L 29.109375 43.015625 
Q 36.375 43.015625 40.234375 45.921875 
Q 44.09375 48.828125 44.09375 54.296875 
Q 44.09375 59.90625 40.109375 62.90625 
Q 36.140625 65.921875 28.71875 65.921875 
Q 24.65625 65.921875 20.015625 65.03125 
Q 15.375 64.15625 9.8125 62.3125 
L 9.8125 71.09375 
Q 15.4375 72.65625 20.34375 73.4375 
Q 25.25 74.21875 29.59375 74.21875 
Q 40.828125 74.21875 47.359375 69.109375 
Q 53.90625 64.015625 53.90625 55.328125 
Q 53.90625 49.265625 50.4375 45.09375 
Q 46.96875 40.921875 40.578125 39.3125 
z
" id="DejaVuSans-51"/>
       <path d="M 10.796875 72.90625 
L 49.515625 72.90625 
L 49.515625 64.59375 
L 19.828125 64.59375 
L 19.828125 46.734375 
Q 21.96875 47.46875 24.109375 47.828125 
Q 26.265625 48.1875 28.421875 48.1875 
Q 40.625 48.1875 47.75 41.5 
Q 54.890625 34.8125 54.890625 23.390625 
Q 54.890625 11.625 47.5625 5.09375 
Q 40.234375 -1.421875 26.90625 -1.421875 
Q 22.3125 -1.421875 17.546875 -0.640625 
Q 12.796875 0.140625 7.71875 1.703125 
L 7.71875 11.625 
Q 12.109375 9.234375 16.796875 8.0625 
Q 21.484375 6.890625 26.703125 6.890625 
Q 35.15625 6.890625 40.078125 11.328125 
Q 45.015625 15.765625 45.015625 23.390625 
Q 45.015625 31 40.078125 35.4375 
Q 35.15625 39.890625 26.703125 39.890625 
Q 22.75 39.890625 18.8125 39.015625 
Q 14.890625 38.140625 10.796875 36.28125 
z
" id="DejaVuSans-53"/>
      </defs>
      <g transform="translate(352.063541 399.078438)scale(0.1 -0.1)">
       <use xlink:href="#DejaVuSans-51"/>
       <use x="63.623047" xlink:href="#DejaVuSans-53"/>
       <use x="127.246094" xlink:href="#DejaVuSans-50"/>
       <use x="190.869141" xlink:href="#DejaVuSans-48"/>
      </g>
     </g>
    </g>
    <g id="text_6">
     <!-- time [ms] -->
     <defs>
      <path d="M 18.3125 70.21875 
L 18.3125 54.6875 
L 36.8125 54.6875 
L 36.8125 47.703125 
L 18.3125 47.703125 
L 18.3125 18.015625 
Q 18.3125 11.328125 20.140625 9.421875 
Q 21.96875 7.515625 27.59375 7.515625 
L 36.8125 7.515625 
L 36.8125 0 
L 27.59375 0 
Q 17.1875 0 13.234375 3.875 
Q 9.28125 7.765625 9.28125 18.015625 
L 9.28125 47.703125 
L 2.6875 47.703125 
L 2.6875 54.6875 
L 9.28125 54.6875 
L 9.28125 70.21875 
z
" id="DejaVuSans-116"/>
      <path d="M 9.421875 54.6875 
L 18.40625 54.6875 
L 18.40625 0 
L 9.421875 0 
z
M 9.421875 75.984375 
L 18.40625 75.984375 
L 18.40625 64.59375 
L 9.421875 64.59375 
z
" id="DejaVuSans-105"/>
      <path d="M 52 44.1875 
Q 55.375 50.25 60.0625 53.125 
Q 64.75 56 71.09375 56 
Q 79.640625 56 84.28125 50.015625 
Q 88.921875 44.046875 88.921875 33.015625 
L 88.921875 0 
L 79.890625 0 
L 79.890625 32.71875 
Q 79.890625 40.578125 77.09375 44.375 
Q 74.3125 48.1875 68.609375 48.1875 
Q 61.625 48.1875 57.5625 43.546875 
Q 53.515625 38.921875 53.515625 30.90625 
L 53.515625 0 
L 44.484375 0 
L 44.484375 32.71875 
Q 44.484375 40.625 41.703125 44.40625 
Q 38.921875 48.1875 33.109375 48.1875 
Q 26.21875 48.1875 22.15625 43.53125 
Q 18.109375 38.875 18.109375 30.90625 
L 18.109375 0 
L 9.078125 0 
L 9.078125 54.6875 
L 18.109375 54.6875 
L 18.109375 46.1875 
Q 21.1875 51.21875 25.484375 53.609375 
Q 29.78125 56 35.6875 56 
Q 41.65625 56 45.828125 52.96875 
Q 50 49.953125 52 44.1875 
z
" id="DejaVuSans-109"/>
      <path d="M 56.203125 29.59375 
L 56.203125 25.203125 
L 14.890625 25.203125 
Q 15.484375 15.921875 20.484375 11.0625 
Q 25.484375 6.203125 34.421875 6.203125 
Q 39.59375 6.203125 44.453125 7.46875 
Q 49.3125 8.734375 54.109375 11.28125 
L 54.109375 2.78125 
Q 49.265625 0.734375 44.1875 -0.34375 
Q 39.109375 -1.421875 33.890625 -1.421875 
Q 20.796875 -1.421875 13.15625 6.1875 
Q 5.515625 13.8125 5.515625 26.8125 
Q 5.515625 40.234375 12.765625 48.109375 
Q 20.015625 56 32.328125 56 
Q 43.359375 56 49.78125 48.890625 
Q 56.203125 41.796875 56.203125 29.59375 
z
M 47.21875 32.234375 
Q 47.125 39.59375 43.09375 43.984375 
Q 39.0625 48.390625 32.421875 48.390625 
Q 24.90625 48.390625 20.390625 44.140625 
Q 15.875 39.890625 15.1875 32.171875 
z
" id="DejaVuSans-101"/>
      <path id="DejaVuSans-32"/>
      <path d="M 8.59375 75.984375 
L 29.296875 75.984375 
L 29.296875 69 
L 17.578125 69 
L 17.578125 -6.203125 
L 29.296875 -6.203125 
L 29.296875 -13.1875 
L 8.59375 -13.1875 
z
" id="DejaVuSans-91"/>
      <path d="M 44.28125 53.078125 
L 44.28125 44.578125 
Q 40.484375 46.53125 36.375 47.5 
Q 32.28125 48.484375 27.875 48.484375 
Q 21.1875 48.484375 17.84375 46.4375 
Q 14.5 44.390625 14.5 40.28125 
Q 14.5 37.15625 16.890625 35.375 
Q 19.28125 33.59375 26.515625 31.984375 
L 29.59375 31.296875 
Q 39.15625 29.25 43.1875 25.515625 
Q 47.21875 21.78125 47.21875 15.09375 
Q 47.21875 7.46875 41.1875 3.015625 
Q 35.15625 -1.421875 24.609375 -1.421875 
Q 20.21875 -1.421875 15.453125 -0.5625 
Q 10.6875 0.296875 5.421875 2 
L 5.421875 11.28125 
Q 10.40625 8.6875 15.234375 7.390625 
Q 20.0625 6.109375 24.8125 6.109375 
Q 31.15625 6.109375 34.5625 8.28125 
Q 37.984375 10.453125 37.984375 14.40625 
Q 37.984375 18.0625 35.515625 20.015625 
Q 33.0625 21.96875 24.703125 23.78125 
L 21.578125 24.515625 
Q 13.234375 26.265625 9.515625 29.90625 
Q 5.8125 33.546875 5.8125 39.890625 
Q 5.8125 47.609375 11.28125 51.796875 
Q 16.75 56 26.8125 56 
Q 31.78125 56 36.171875 55.265625 
Q 40.578125 54.546875 44.28125 53.078125 
z
" id="DejaVuSans-115"/>
      <path d="M 30.421875 75.984375 
L 30.421875 -13.1875 
L 9.71875 -13.1875 
L 9.71875 -6.203125 
L 21.390625 -6.203125 
L 21.390625 69 
L 9.71875 69 
L 9.71875 75.984375 
z
" id="DejaVuSans-93"/>
     </defs>
     <g transform="translate(234.038281 412.756563)scale(0.1 -0.1)">
      <use xlink:href="#DejaVuSans-116"/>
      <use x="39.208984" xlink:href="#DejaVuSans-105"/>
      <use x="66.992188" xlink:href="#DejaVuSans-109"/>
      <use x="164.404297" xlink:href="#DejaVuSans-101"/>
      <use x="225.927734" xlink:href="#DejaVuSans-32"/>
      <use x="257.714844" xlink:href="#DejaVuSans-91"/>
      <use x="296.728516" xlink:href="#DejaVuSans-109"/>
      <use x="394.140625" xlink:href="#DejaVuSans-115"/>
      <use x="446.240234" xlink:href="#DejaVuSans-93"/>
     </g>
    </g>
   </g>
   <g id="matplotlib.axis_2">
    <g id="ytick_1">
     <g id="line2d_6">
      <defs>
       <path d="M 0 0 
L -3.5 0 
" id="me513789098" style="stroke:#000000;stroke-width:0.8;"/>
      </defs>
      <g>
       <use style="stroke:#000000;stroke-width:0.8;" x="63" xlink:href="#me513789098" y="384.413625"/>
      </g>
     </g>
     <g id="text_7">
      <!-- −100 -->
      <defs>
       <path d="M 10.59375 35.5 
L 73.1875 35.5 
L 73.1875 27.203125 
L 10.59375 27.203125 
z
" id="DejaVuSans-8722"/>
      </defs>
      <g transform="translate(28.532812 388.212844)scale(0.1 -0.1)">
       <use xlink:href="#DejaVuSans-8722"/>
       <use x="83.789062" xlink:href="#DejaVuSans-49"/>
       <use x="147.412109" xlink:href="#DejaVuSans-48"/>
       <use x="211.035156" xlink:href="#DejaVuSans-48"/>
      </g>
     </g>
    </g>
    <g id="ytick_2">
     <g id="line2d_7">
      <g>
       <use style="stroke:#000000;stroke-width:0.8;" x="63" xlink:href="#me513789098" y="343.56254"/>
      </g>
     </g>
     <g id="text_8">
      <!-- −80 -->
      <g transform="translate(34.895313 347.361758)scale(0.1 -0.1)">
       <use xlink:href="#DejaVuSans-8722"/>
       <use x="83.789062" xlink:href="#DejaVuSans-56"/>
       <use x="147.412109" xlink:href="#DejaVuSans-48"/>
      </g>
     </g>
    </g>
    <g id="ytick_3">
     <g id="line2d_8">
      <g>
       <use style="stroke:#000000;stroke-width:0.8;" x="63" xlink:href="#me513789098" y="302.711454"/>
      </g>
     </g>
     <g id="text_9">
      <!-- −60 -->
      <g transform="translate(34.895313 306.510673)scale(0.1 -0.1)">
       <use xlink:href="#DejaVuSans-8722"/>
       <use x="83.789062" xlink:href="#DejaVuSans-54"/>
       <use x="147.412109" xlink:href="#DejaVuSans-48"/>
      </g>
     </g>
    </g>
    <g id="ytick_4">
     <g id="line2d_9">
      <g>
       <use style="stroke:#000000;stroke-width:0.8;" x="63" xlink:href="#me513789098" y="261.860369"/>
      </g>
     </g>
     <g id="text_10">
      <!-- −40 -->
      <g transform="translate(34.895313 265.659588)scale(0.1 -0.1)">
       <use xlink:href="#DejaVuSans-8722"/>
       <use x="83.789062" xlink:href="#DejaVuSans-52"/>
       <use x="147.412109" xlink:href="#DejaVuSans-48"/>
      </g>
     </g>
    </g>
    <g id="ytick_5">
     <g id="line2d_10">
      <g>
       <use style="stroke:#000000;stroke-width:0.8;" x="63" xlink:href="#me513789098" y="221.009283"/>
      </g>
     </g>
     <g id="text_11">
      <!-- −20 -->
      <g transform="translate(34.895313 224.808502)scale(0.1 -0.1)">
       <use xlink:href="#DejaVuSans-8722"/>
       <use x="83.789062" xlink:href="#DejaVuSans-50"/>
       <use x="147.412109" xlink:href="#DejaVuSans-48"/>
      </g>
     </g>
    </g>
    <g id="ytick_6">
     <g id="line2d_11">
      <g>
       <use style="stroke:#000000;stroke-width:0.8;" x="63" xlink:href="#me513789098" y="180.158198"/>
      </g>
     </g>
     <g id="text_12">
      <!-- 0 -->
      <g transform="translate(49.6375 183.957417)scale(0.1 -0.1)">
       <use xlink:href="#DejaVuSans-48"/>
      </g>
     </g>
    </g>
    <g id="ytick_7">
     <g id="line2d_12">
      <g>
       <use style="stroke:#000000;stroke-width:0.8;" x="63" xlink:href="#me513789098" y="139.307113"/>
      </g>
     </g>
     <g id="text_13">
      <!-- 20 -->
      <g transform="translate(43.275 143.106331)scale(0.1 -0.1)">
       <use xlink:href="#DejaVuSans-50"/>
       <use x="63.623047" xlink:href="#DejaVuSans-48"/>
      </g>
     </g>
    </g>
    <g id="ytick_8">
     <g id="line2d_13">
      <g>
       <use style="stroke:#000000;stroke-width:0.8;" x="63" xlink:href="#me513789098" y="98.456027"/>
      </g>
     </g>
     <g id="text_14">
      <!-- 40 -->
      <g transform="translate(43.275 102.255246)scale(0.1 -0.1)">
       <use xlink:href="#DejaVuSans-52"/>
       <use x="63.623047" xlink:href="#DejaVuSans-48"/>
      </g>
     </g>
    </g>
    <g id="ytick_9">
     <g id="line2d_14">
      <g>
       <use style="stroke:#000000;stroke-width:0.8;" x="63" xlink:href="#me513789098" y="57.604942"/>
      </g>
     </g>
     <g id="text_15">
      <!-- 60 -->
      <g transform="translate(43.275 61.404161)scale(0.1 -0.1)">
       <use xlink:href="#DejaVuSans-54"/>
       <use x="63.623047" xlink:href="#DejaVuSans-48"/>
      </g>
     </g>
    </g>
    <g id="text_16">
     <!-- voltage [mV] -->
     <defs>
      <path d="M 2.984375 54.6875 
L 12.5 54.6875 
L 29.59375 8.796875 
L 46.6875 54.6875 
L 56.203125 54.6875 
L 35.6875 0 
L 23.484375 0 
z
" id="DejaVuSans-118"/>
      <path d="M 30.609375 48.390625 
Q 23.390625 48.390625 19.1875 42.75 
Q 14.984375 37.109375 14.984375 27.296875 
Q 14.984375 17.484375 19.15625 11.84375 
Q 23.34375 6.203125 30.609375 6.203125 
Q 37.796875 6.203125 41.984375 11.859375 
Q 46.1875 17.53125 46.1875 27.296875 
Q 46.1875 37.015625 41.984375 42.703125 
Q 37.796875 48.390625 30.609375 48.390625 
z
M 30.609375 56 
Q 42.328125 56 49.015625 48.375 
Q 55.71875 40.765625 55.71875 27.296875 
Q 55.71875 13.875 49.015625 6.21875 
Q 42.328125 -1.421875 30.609375 -1.421875 
Q 18.84375 -1.421875 12.171875 6.21875 
Q 5.515625 13.875 5.515625 27.296875 
Q 5.515625 40.765625 12.171875 48.375 
Q 18.84375 56 30.609375 56 
z
" id="DejaVuSans-111"/>
      <path d="M 9.421875 75.984375 
L 18.40625 75.984375 
L 18.40625 0 
L 9.421875 0 
z
" id="DejaVuSans-108"/>
      <path d="M 34.28125 27.484375 
Q 23.390625 27.484375 19.1875 25 
Q 14.984375 22.515625 14.984375 16.5 
Q 14.984375 11.71875 18.140625 8.90625 
Q 21.296875 6.109375 26.703125 6.109375 
Q 34.1875 6.109375 38.703125 11.40625 
Q 43.21875 16.703125 43.21875 25.484375 
L 43.21875 27.484375 
z
M 52.203125 31.203125 
L 52.203125 0 
L 43.21875 0 
L 43.21875 8.296875 
Q 40.140625 3.328125 35.546875 0.953125 
Q 30.953125 -1.421875 24.3125 -1.421875 
Q 15.921875 -1.421875 10.953125 3.296875 
Q 6 8.015625 6 15.921875 
Q 6 25.140625 12.171875 29.828125 
Q 18.359375 34.515625 30.609375 34.515625 
L 43.21875 34.515625 
L 43.21875 35.40625 
Q 43.21875 41.609375 39.140625 45 
Q 35.0625 48.390625 27.6875 48.390625 
Q 23 48.390625 18.546875 47.265625 
Q 14.109375 46.140625 10.015625 43.890625 
L 10.015625 52.203125 
Q 14.9375 54.109375 19.578125 55.046875 
Q 24.21875 56 28.609375 56 
Q 40.484375 56 46.34375 49.84375 
Q 52.203125 43.703125 52.203125 31.203125 
z
" id="DejaVuSans-97"/>
      <path d="M 45.40625 27.984375 
Q 45.40625 37.75 41.375 43.109375 
Q 37.359375 48.484375 30.078125 48.484375 
Q 22.859375 48.484375 18.828125 43.109375 
Q 14.796875 37.75 14.796875 27.984375 
Q 14.796875 18.265625 18.828125 12.890625 
Q 22.859375 7.515625 30.078125 7.515625 
Q 37.359375 7.515625 41.375 12.890625 
Q 45.40625 18.265625 45.40625 27.984375 
z
M 54.390625 6.78125 
Q 54.390625 -7.171875 48.1875 -13.984375 
Q 42 -20.796875 29.203125 -20.796875 
Q 24.46875 -20.796875 20.265625 -20.09375 
Q 16.0625 -19.390625 12.109375 -17.921875 
L 12.109375 -9.1875 
Q 16.0625 -11.328125 19.921875 -12.34375 
Q 23.78125 -13.375 27.78125 -13.375 
Q 36.625 -13.375 41.015625 -8.765625 
Q 45.40625 -4.15625 45.40625 5.171875 
L 45.40625 9.625 
Q 42.625 4.78125 38.28125 2.390625 
Q 33.9375 0 27.875 0 
Q 17.828125 0 11.671875 7.65625 
Q 5.515625 15.328125 5.515625 27.984375 
Q 5.515625 40.671875 11.671875 48.328125 
Q 17.828125 56 27.875 56 
Q 33.9375 56 38.28125 53.609375 
Q 42.625 51.21875 45.40625 46.390625 
L 45.40625 54.6875 
L 54.390625 54.6875 
z
" id="DejaVuSans-103"/>
      <path d="M 28.609375 0 
L 0.78125 72.90625 
L 11.078125 72.90625 
L 34.1875 11.53125 
L 57.328125 72.90625 
L 67.578125 72.90625 
L 39.796875 0 
z
" id="DejaVuSans-86"/>
     </defs>
     <g transform="translate(22.453125 250.624062)rotate(-90)scale(0.1 -0.1)">
      <use xlink:href="#DejaVuSans-118"/>
      <use x="59.179688" xlink:href="#DejaVuSans-111"/>
      <use x="120.361328" xlink:href="#DejaVuSans-108"/>
      <use x="148.144531" xlink:href="#DejaVuSans-116"/>
      <use x="187.353516" xlink:href="#DejaVuSans-97"/>
      <use x="248.632812" xlink:href="#DejaVuSans-103"/>
      <use x="312.109375" xlink:href="#DejaVuSans-101"/>
      <use x="373.632812" xlink:href="#DejaVuSans-32"/>
      <use x="405.419922" xlink:href="#DejaVuSans-91"/>
      <use x="444.433594" xlink:href="#DejaVuSans-109"/>
      <use x="541.845703" xlink:href="#DejaVuSans-86"/>
      <use x="610.253906" xlink:href="#DejaVuSans-93"/>
     </g>
    </g>
   </g>
   <g id="line2d_15">
    <path clip-path="url(#p0e8c69f0c3)" d="M 80.754545 299.639644 
L 83.385088 299.53991 
L 83.417364 299.440176 
L 83.465779 299.639644 
L 83.481917 299.53991 
L 83.966066 299.440176 
L 84.062896 299.340442 
L 84.175864 299.440176 
L 84.547045 299.53991 
L 84.660013 299.639644 
L 84.96664 299.53991 
L 85.079609 299.440176 
L 85.337821 299.53991 
L 85.35396 299.639644 
L 85.402374 299.440176 
L 85.418513 299.440176 
L 86.322257 299.53991 
L 86.435225 299.639644 
L 87.419661 299.739378 
L 87.532629 299.839112 
L 87.581044 299.739378 
L 87.629459 299.839112 
L 88.694587 299.938846 
L 88.807555 300.03858 
L 88.85597 299.938846 
L 89.049629 288.56916 
L 89.501501 277.897611 
L 90.356831 264.034572 
L 91.196022 254.958769 
L 91.454235 252.764619 
L 91.777001 250.071799 
L 92.503224 246.182169 
L 92.535501 246.082435 
L 92.713022 245.583764 
L 92.745299 245.48403 
L 92.971235 244.686158 
L 93.01965 244.586424 
L 93.213309 243.988019 
L 93.358554 243.888285 
L 93.536075 243.389614 
L 93.600628 243.28988 
L 93.762011 242.890944 
L 93.858841 242.79121 
L 94.004086 242.492008 
L 94.213884 242.392273 
L 94.359128 242.093071 
L 95.133766 241.993337 
L 95.182181 241.893603 
L 95.230596 241.993337 
L 95.843851 241.893603 
L 95.989096 241.494667 
L 96.053649 241.594401 
L 96.085926 241.494667 
L 96.392553 241.394932 
L 96.505522 241.295198 
L 96.796011 241.394932 
L 97.005809 242.093071 
L 97.070362 242.192805 
L 97.215607 242.492008 
L 97.393128 242.392273 
L 97.425404 242.292539 
L 97.489958 242.392273 
L 97.845 242.292539 
L 97.974106 242.093071 
L 98.264596 242.192805 
L 98.296872 242.292539 
L 98.345287 242.192805 
L 98.458255 242.093071 
L 98.50667 242.192805 
L 98.538947 242.292539 
L 98.571223 242.093071 
L 98.6035 242.192805 
L 99.119925 242.093071 
L 99.249032 241.893603 
L 99.959117 241.793869 
L 100.055947 241.694135 
L 100.572372 244.287221 
L 100.620787 244.386955 
L 100.733755 244.586424 
L 100.862861 244.386955 
L 101.024244 244.287221 
L 101.153351 244.087753 
L 101.298595 243.988019 
L 101.44384 243.688817 
L 101.556808 243.589083 
L 101.685914 243.389614 
L 101.831159 243.28988 
L 101.847297 243.190146 
L 101.927989 243.28988 
L 102.10551 243.190146 
L 102.266893 242.79121 
L 102.363723 242.691476 
L 102.492829 242.492008 
L 102.993116 242.392273 
L 103.057669 242.093071 
L 103.106084 242.192805 
L 103.251329 242.492008 
L 103.380435 242.292539 
L 103.687063 242.192805 
L 103.783893 242.093071 
L 103.880722 242.192805 
L 103.993691 242.093071 
L 104.09052 241.993337 
L 104.18735 241.893603 
L 104.300318 241.993337 
L 104.38101 241.893603 
L 104.526254 241.494667 
L 104.574669 241.594401 
L 104.623084 241.494667 
L 104.897435 241.394932 
L 105.010403 241.295198 
L 105.236339 241.394932 
L 105.317031 241.494667 
L 105.333169 241.394932 
L 106.107807 241.295198 
L 106.123945 241.195464 
L 106.17236 241.394932 
L 106.204637 241.295198 
L 106.882445 241.394932 
L 106.995413 241.494667 
L 107.705498 241.394932 
L 107.737775 241.295198 
L 107.78619 241.494667 
L 108.383307 241.394932 
L 108.512413 241.195464 
L 108.576966 241.09573 
L 108.689934 240.995996 
L 109.254775 240.896262 
L 109.335466 240.796528 
L 109.351605 240.896262 
L 109.690509 240.796528 
L 109.819615 240.59706 
L 109.916445 240.696794 
L 110.013275 240.59706 
L 110.126243 240.696794 
L 110.5297 240.796528 
L 110.610392 240.896262 
L 110.62653 240.796528 
L 111.368891 240.896262 
L 111.497998 241.09573 
L 111.836902 241.195464 
L 111.85304 241.295198 
L 111.933732 241.195464 
L 112.256498 241.295198 
L 112.321051 241.195464 
L 112.369466 241.394932 
L 112.821338 241.494667 
L 112.837476 241.594401 
L 112.869753 241.394932 
L 112.902029 241.394932 
L 113.144104 241.494667 
L 113.289349 241.793869 
L 113.37004 241.893603 
L 113.499146 242.093071 
L 113.595976 242.192805 
L 113.644391 242.292539 
L 113.692806 242.192805 
L 113.789636 242.093071 
L 113.870327 241.993337 
L 113.886465 242.093071 
L 114.160817 242.192805 
L 114.257646 242.292539 
L 114.386753 241.993337 
L 114.419029 242.093071 
L 114.483582 241.993337 
L 114.580412 241.793869 
L 114.59655 241.893603 
L 114.806348 241.793869 
L 114.919316 241.694135 
L 115.35505 241.594401 
L 115.468018 241.494667 
L 115.758508 241.394932 
L 115.887614 241.195464 
L 116.161965 241.09573 
L 116.258795 240.896262 
L 116.274933 240.995996 
L 116.355625 240.896262 
L 116.468593 240.796528 
L 116.533146 240.696794 
L 116.662252 240.497326 
L 117.017295 240.59706 
L 117.033433 240.696794 
L 117.114125 240.59706 
L 117.259369 240.696794 
L 117.43689 241.195464 
L 117.469167 241.295198 
L 117.662827 241.893603 
L 117.711241 241.993337 
L 117.791933 242.192805 
L 117.82421 242.093071 
L 117.921039 242.192805 
L 118.034007 242.292539 
L 118.647263 242.192805 
L 118.760231 242.093071 
L 119.05072 241.993337 
L 119.131411 241.893603 
L 119.14755 241.993337 
L 119.518731 241.893603 
L 119.647837 241.694135 
L 119.80922 241.594401 
L 119.922188 241.494667 
L 120.099709 241.394932 
L 120.244954 241.09573 
L 120.438613 240.995996 
L 120.551581 240.896262 
L 120.664549 240.796528 
L 120.696826 240.696794 
L 120.745241 240.896262 
L 121.116422 240.995996 
L 121.22939 241.09573 
L 121.600571 240.995996 
L 121.729677 240.796528 
L 121.810368 240.696794 
L 121.939475 240.497326 
L 122.116996 240.397592 
L 122.213826 240.297857 
L 122.342932 240.497326 
L 122.778666 240.397592 
L 122.810943 240.297857 
L 122.875496 240.397592 
L 122.923911 240.497326 
L 122.972326 240.397592 
L 123.133709 240.497326 
L 123.262815 240.696794 
L 123.553304 240.796528 
L 123.682411 240.995996 
L 123.827655 240.696794 
L 123.924485 240.796528 
L 123.940623 240.896262 
L 124.005177 240.696794 
L 124.360219 240.59706 
L 124.473187 240.497326 
L 124.682985 240.59706 
L 124.812091 240.796528 
L 125.215549 240.896262 
L 125.328517 241.09573 
L 125.360793 241.195464 
L 125.441485 240.995996 
L 125.764251 240.896262 
L 125.780389 240.796528 
L 125.861081 240.896262 
L 126.038602 240.796528 
L 126.15157 240.696794 
L 126.329091 240.59706 
L 126.425921 240.497326 
L 126.538889 240.59706 
L 127.136006 240.497326 
L 127.152144 240.397592 
L 127.232836 240.497326 
L 127.248974 240.59706 
L 127.297389 240.397592 
L 127.313527 240.397592 
L 127.394219 240.497326 
L 127.442633 240.696794 
L 127.507187 240.59706 
L 127.523325 240.497326 
L 127.604016 240.59706 
L 127.975197 240.497326 
L 128.104304 240.297857 
L 128.217272 240.198123 
L 128.33024 240.098389 
L 128.410931 239.998655 
L 128.523899 239.898921 
L 129.08874 239.799187 
L 129.137154 239.699453 
L 129.185569 239.799187 
L 129.605165 239.898921 
L 129.718133 239.998655 
L 129.831101 239.898921 
L 130.008622 239.400251 
L 130.137729 239.300516 
L 130.266835 239.101048 
L 130.525048 239.001314 
L 130.541186 238.90158 
L 130.589601 239.101048 
L 130.621878 239.001314 
L 130.670292 239.101048 
L 130.718707 239.001314 
L 131.07375 238.90158 
L 131.138303 238.801846 
L 131.17058 238.90158 
L 131.202856 238.801846 
L 131.315824 238.702112 
L 132.477782 238.801846 
L 132.59075 238.90158 
L 132.768271 238.801846 
L 132.816686 238.702112 
L 132.865101 238.801846 
L 133.268558 238.90158 
L 133.381526 239.001314 
L 133.413803 239.001314 
L 133.559047 239.499985 
L 133.591324 239.400251 
L 133.607462 239.599719 
L 133.623601 239.599719 
L 133.736569 239.699453 
L 133.784983 239.799187 
L 133.930228 240.098389 
L 133.978643 240.198123 
L 134.156164 240.696794 
L 134.269132 240.59706 
L 134.430515 240.696794 
L 134.559622 240.896262 
L 134.624175 240.796528 
L 134.656451 240.896262 
L 134.817834 240.796528 
L 134.930802 240.696794 
L 135.301983 240.59706 
L 135.414951 240.297857 
L 135.43109 240.397592 
L 135.818409 240.297857 
L 135.834547 240.198123 
L 135.866824 240.397592 
L 135.915238 240.297857 
L 136.044345 240.198123 
L 136.060483 240.098389 
L 136.141175 240.198123 
L 136.883536 240.098389 
L 137.028781 239.799187 
L 137.157887 239.699453 
L 137.206302 239.499985 
L 137.254717 239.699453 
L 137.367685 239.599719 
L 137.432238 239.400251 
L 137.464515 239.599719 
L 137.690451 239.499985 
L 137.819557 239.300516 
L 137.916387 239.400251 
L 138.013217 239.499985 
L 138.158461 239.200782 
L 138.707163 239.101048 
L 138.820132 239.001314 
L 139.126759 239.101048 
L 139.239727 239.200782 
L 139.772291 239.101048 
L 139.901397 238.90158 
L 139.998227 239.001314 
L 140.095057 238.90158 
L 140.111195 239.001314 
L 140.191887 238.90158 
L 140.756727 238.801846 
L 140.885833 238.602378 
L 140.966525 238.502644 
L 141.095631 238.303176 
L 141.321567 239.101048 
L 141.402259 239.200782 
L 141.531365 239.400251 
L 141.902546 239.300516 
L 142.015514 239.200782 
L 142.14462 239.101048 
L 142.257588 239.001314 
L 142.80629 238.90158 
L 142.935397 238.702112 
L 144.339429 238.801846 
L 144.468535 239.200782 
L 144.484673 239.101048 
L 144.581503 239.001314 
L 144.726748 239.300516 
L 145.049513 239.400251 
L 145.08179 239.499985 
L 145.146343 239.400251 
L 145.340003 239.300516 
L 145.469109 239.101048 
L 145.64663 239.001314 
L 145.759598 238.90158 
L 146.308301 238.801846 
L 146.388992 238.602378 
L 146.421269 238.702112 
L 147.244322 238.801846 
L 147.26046 238.90158 
L 147.341151 238.801846 
L 147.550949 238.702112 
L 147.663917 238.602378 
L 148.180343 238.702112 
L 148.309449 238.90158 
L 148.374002 238.801846 
L 148.48697 238.702112 
L 148.874289 238.602378 
L 148.890428 238.502644 
L 148.971119 238.602378 
L 149.100226 238.702112 
L 149.116364 238.801846 
L 149.164779 238.602378 
L 149.197055 238.702112 
L 149.293885 238.602378 
L 149.406853 238.502644 
L 149.697343 238.602378 
L 149.810311 238.702112 
L 149.971694 238.702112 
L 150.00397 238.502644 
L 150.084662 238.602378 
L 150.407427 238.702112 
L 150.601087 239.300516 
L 150.746332 239.001314 
L 151.085236 239.101048 
L 151.149789 239.200782 
L 151.182066 239.101048 
L 151.359587 239.001314 
L 151.375725 238.90158 
L 151.456417 239.001314 
L 151.811459 238.90158 
L 151.843736 238.801846 
L 151.908289 238.90158 
L 152.424714 238.801846 
L 152.553821 238.602378 
L 152.650651 238.502644 
L 152.715204 238.40291 
L 152.74748 238.502644 
L 152.763619 238.602378 
L 152.812033 238.40291 
L 152.828172 238.40291 
L 153.40915 238.40291 
L 153.60281 249.772596 
L 154.054682 260.344411 
L 154.425863 266.827127 
L 154.861597 273.010641 
L 154.974565 274.307184 
L 155.68465 281.787241 
L 155.894448 283.682189 
L 156.265629 286.973414 
L 156.281767 286.973414 
L 156.556118 289.06783 
L 158.62182 301.23539 
L 158.670235 301.335124 
L 158.993001 302.731401 
L 159.057554 302.831135 
L 159.299628 303.728742 
L 159.331905 303.828476 
L 159.557841 304.626349 
L 159.622394 304.726083 
L 159.832192 305.424222 
L 159.896745 305.523956 
L 160.090405 306.12236 
L 160.122681 306.222094 
L 160.300202 306.720765 
L 160.348617 306.820499 
L 160.493862 307.119701 
L 160.526139 307.219435 
L 160.70366 307.718106 
L 160.768213 307.81784 
L 160.929596 308.216776 
L 161.042564 308.31651 
L 161.187809 308.615713 
L 161.413745 308.715447 
L 161.558989 309.014649 
L 161.639681 309.114383 
L 161.768787 309.313851 
L 161.897894 309.413585 
L 162.027 309.613054 
L 162.091553 309.712788 
L 162.22066 309.912256 
L 162.285213 310.01199 
L 162.317489 310.111724 
L 162.382043 310.01199 
L 162.462734 310.111724 
L 162.59184 310.311192 
L 162.995298 310.410926 
L 163.108266 310.51066 
L 163.318064 310.610395 
L 163.431032 310.809863 
L 163.463308 310.710129 
L 163.527861 310.809863 
L 163.64083 310.909597 
L 163.931319 311.009331 
L 164.044287 311.109065 
L 164.544574 311.009331 
L 164.625266 310.909597 
L 164.641404 311.009331 
L 165.997021 310.909597 
L 166.126127 310.710129 
L 166.206818 310.809863 
L 166.222957 310.710129 
L 166.432755 310.610395 
L 166.561861 310.410926 
L 166.900765 310.311192 
L 167.013733 310.211458 
L 167.304223 310.111724 
L 167.449467 309.812522 
L 167.659265 309.712788 
L 167.772233 309.613054 
L 168.014308 309.513319 
L 168.159552 309.214117 
L 168.450042 309.114383 
L 168.56301 309.014649 
L 168.579148 309.114383 
L 168.627563 308.914915 
L 168.643701 309.014649 
L 168.756669 308.914915 
L 168.837361 308.815181 
L 168.853499 308.715447 
L 168.885775 308.914915 
L 168.93419 308.815181 
L 169.12785 308.715447 
L 169.256956 308.515979 
L 169.418339 308.416244 
L 169.499031 308.31651 
L 169.611999 300.537251 
L 169.708829 300.636985 
L 169.724967 300.736719 
L 169.805658 300.636985 
L 170.951477 300.736719 
L 170.967616 300.836453 
L 171.048307 300.736719 
L 171.790669 300.836453 
L 171.822945 300.936187 
L 171.887498 300.836453 
L 171.952052 300.736719 
L 172.048881 300.636985 
L 172.161849 300.736719 
L 172.387786 300.636985 
L 172.500754 300.537251 
L 173.162424 300.437517 
L 173.29153 300.238049 
L 174.518041 300.337783 
L 174.582594 300.437517 
L 174.61487 300.337783 
L 175.018328 300.437517 
L 175.147434 300.636985 
L 175.260402 300.537251 
L 175.389508 300.636985 
L 175.405647 300.736719 
L 175.486338 300.636985 
L 175.615445 300.736719 
L 175.712274 300.836453 
L 175.825242 300.736719 
L 175.93821 300.836453 
L 176.164147 300.936187 
L 176.277115 301.035921 
L 176.390083 300.936187 
L 176.664434 300.836453 
L 176.777402 300.736719 
L 176.938785 300.636985 
L 176.971061 300.537251 
L 177.019476 300.736719 
L 177.035615 300.636985 
L 177.616593 300.636985 
L 177.810253 285.776605 
L 178.391231 268.323138 
L 179.149731 252.265949 
L 179.82754 241.694135 
L 180.39238 236.009291 
L 180.860391 233.715407 
L 180.876529 233.715407 
L 181.021773 233.216737 
L 181.183156 232.8178 
L 181.312263 232.718066 
L 181.473646 232.31913 
L 181.505922 232.219396 
L 181.699582 231.620991 
L 181.764135 231.521257 
L 181.893241 231.321789 
L 182.328975 231.222055 
L 182.47422 230.922852 
L 182.506497 230.823118 
L 182.635603 230.62365 
L 182.716294 230.523916 
L 182.877677 230.12498 
L 182.926092 230.224714 
L 182.974507 230.324448 
L 183.022922 230.224714 
L 183.103614 230.12498 
L 183.23272 229.925512 
L 183.281135 229.825777 
L 183.442518 229.426841 
L 183.474794 229.327107 
L 183.668454 228.728702 
L 183.70073 228.628968 
L 183.845975 228.329766 
L 183.89439 228.230032 
L 184.168741 227.132957 
L 184.313986 227.033223 
L 184.523784 226.335084 
L 184.814273 226.23535 
L 184.927241 225.636945 
L 184.975656 225.836414 
L 185.072486 225.73668 
L 185.250007 225.038541 
L 185.266145 225.138275 
L 185.346837 225.038541 
L 185.492081 224.739339 
L 185.524358 224.639604 
L 186.411964 218.655559 
L 186.428102 218.057154 
L 186.444241 211.87364 
L 186.492656 76.335005 
L 186.573347 147.245947 
L 186.73473 227.831096 
L 186.944528 230.424182 
L 188.05807 242.990678 
L 188.074208 242.990678 
L 188.25173 243.888285 
L 188.461528 244.586424 
L 188.526081 244.686158 
L 188.71974 245.284562 
L 188.768155 245.384296 
L 188.929538 245.783233 
L 189.026368 245.683499 
L 189.155474 245.882967 
L 189.720315 245.783233 
L 189.849421 245.583764 
L 190.091495 245.48403 
L 190.220602 245.284562 
L 190.285155 245.184828 
L 190.414261 244.98536 
L 190.4304 245.085094 
L 190.494953 244.885626 
L 190.591783 244.785892 
L 190.704751 244.686158 
L 190.89841 244.586424 
L 191.011378 244.486689 
L 191.140485 244.386955 
L 191.285729 244.087753 
L 191.46325 243.988019 
L 191.624633 243.589083 
L 192.205612 243.489348 
L 192.334718 243.28988 
L 192.41541 243.190146 
L 192.544516 242.79121 
L 192.560655 242.890944 
L 192.609069 242.79121 
L 192.625208 242.691476 
L 192.705899 242.79121 
L 192.835006 242.691476 
L 192.899559 242.591742 
L 192.931835 242.691476 
L 193.238463 242.591742 
L 193.367569 242.392273 
L 193.512814 242.292539 
L 193.64192 242.093071 
L 193.916271 241.993337 
L 194.061516 241.694135 
L 194.448835 241.594401 
L 194.577941 241.394932 
L 194.723186 241.295198 
L 194.884569 240.896262 
L 194.981399 240.796528 
L 195.110505 240.59706 
L 195.271888 240.497326 
L 195.35258 240.297857 
L 195.384856 240.397592 
L 195.465548 240.297857 
L 195.594654 240.098389 
L 195.885143 239.998655 
L 195.998111 239.898921 
L 196.094941 239.799187 
L 196.256324 239.400251 
L 196.353154 239.499985 
L 196.449984 239.400251 
L 196.546813 239.499985 
L 196.67592 239.300516 
L 197.14393 239.200782 
L 197.160069 239.101048 
L 197.224622 239.300516 
L 197.402143 239.400251 
L 197.579664 239.998655 
L 197.628079 239.898921 
L 197.660356 240.098389 
L 197.724909 240.198123 
L 197.821739 240.397592 
L 197.837877 240.297857 
L 197.950845 240.397592 
L 198.09609 240.696794 
L 198.467271 240.59706 
L 198.483409 240.497326 
L 198.5641 240.59706 
L 198.644792 240.497326 
L 198.790036 240.198123 
L 198.935281 240.098389 
L 199.080526 239.799187 
L 199.193494 239.699453 
L 199.354877 239.300516 
L 199.41943 239.200782 
L 199.548536 239.001314 
L 199.661504 239.101048 
L 199.790611 239.001314 
L 199.919717 238.801846 
L 199.98427 238.702112 
L 200.048824 238.502644 
L 200.097238 238.602378 
L 200.516834 238.502644 
L 200.662079 238.103707 
L 200.710494 238.203441 
L 200.758908 238.103707 
L 200.871877 238.003973 
L 201.000983 237.804505 
L 201.065536 237.704771 
L 201.210781 237.405569 
L 201.372164 237.305835 
L 201.485132 237.2061 
L 201.646515 237.106366 
L 201.775621 236.906898 
L 202.130664 236.807164 
L 202.195217 236.70743 
L 202.227493 236.807164 
L 202.3566 236.70743 
L 202.485706 236.507962 
L 202.550259 236.408228 
L 202.711642 236.009291 
L 202.969855 235.909557 
L 203.098961 235.710089 
L 203.728355 235.809823 
L 203.792908 236.009291 
L 203.841323 235.909557 
L 204.083397 236.009291 
L 204.14795 236.109025 
L 204.180227 236.009291 
L 204.632099 235.909557 
L 204.728929 235.710089 
L 204.745067 235.809823 
L 204.809621 235.710089 
L 204.938727 235.510621 
L 205.019418 235.610355 
L 205.116248 235.710089 
L 205.164663 235.610355 
L 205.19694 235.809823 
L 205.213078 235.710089 
L 205.261493 235.809823 
L 205.358323 236.009291 
L 205.374461 235.909557 
L 206.052269 236.009291 
L 206.197514 236.308494 
L 206.455727 236.408228 
L 206.584833 236.607696 
L 206.665525 236.70743 
L 206.810769 237.006632 
L 207.343333 236.906898 
L 207.359471 236.807164 
L 207.440163 236.906898 
L 207.666099 237.006632 
L 207.682237 237.106366 
L 207.762929 237.006632 
L 208.021141 236.906898 
L 208.150248 236.70743 
L 208.198663 236.607696 
L 208.360046 236.20876 
L 208.473014 236.109025 
L 208.585982 236.009291 
L 208.924886 235.909557 
L 209.053992 235.710089 
L 209.215375 235.610355 
L 209.344482 235.410887 
L 209.538141 235.311153 
L 209.683386 235.01195 
L 209.715662 234.912216 
L 209.844769 234.712748 
L 210.054567 234.613014 
L 210.11912 234.51328 
L 210.151396 234.613014 
L 210.264364 234.712748 
L 210.393471 234.912216 
L 211.055141 234.812482 
L 211.200385 234.51328 
L 211.329492 234.413546 
L 211.458598 234.214078 
L 211.652258 234.114344 
L 211.749088 234.014609 
L 211.781364 234.114344 
L 211.829779 233.914875 
L 211.845917 234.014609 
L 211.991162 233.715407 
L 212.168683 233.815141 
L 212.313928 234.114344 
L 212.410758 234.014609 
L 212.475311 233.815141 
L 212.507587 233.914875 
L 212.556002 234.014609 
L 212.588279 233.914875 
L 212.636694 233.815141 
L 212.685109 233.914875 
L 212.846492 234.313812 
L 213.185396 234.214078 
L 213.217672 234.114344 
L 213.266087 234.313812 
L 213.556577 234.214078 
L 213.653406 234.114344 
L 213.750236 234.214078 
L 213.927757 233.715407 
L 214.024587 233.615673 
L 214.073002 233.416205 
L 214.137555 233.515939 
L 214.2828 233.416205 
L 214.395768 233.316471 
L 214.589427 233.216737 
L 214.718534 233.017268 
L 214.84764 233.117003 
L 214.879917 233.216737 
L 214.928332 233.017268 
L 215.202683 232.917534 
L 215.315651 232.8178 
L 215.493172 232.917534 
L 215.557725 233.017268 
L 215.590002 232.917534 
L 215.751385 233.017268 
L 215.767523 233.117003 
L 215.848214 233.017268 
L 215.945044 232.917534 
L 216.122566 232.418864 
L 216.187119 232.31913 
L 216.300087 232.019928 
L 216.316225 232.119662 
L 216.46147 232.019928 
L 216.606714 231.720725 
L 216.622853 231.820459 
L 216.703544 231.720725 
L 216.92948 231.620991 
L 216.977895 231.521257 
L 217.02631 231.620991 
L 217.042448 231.720725 
L 217.12314 231.620991 
L 217.704118 231.720725 
L 217.817087 231.820459 
L 218.204406 231.820459 
L 218.34965 232.31913 
L 218.656278 232.219396 
L 218.769246 232.119662 
L 218.962905 232.219396 
L 219.027459 232.119662 
L 219.075874 232.31913 
L 219.140427 232.219396 
L 219.172703 232.31913 
L 219.511608 232.418864 
L 219.640714 232.618332 
L 219.915065 232.718066 
L 220.124863 233.416205 
L 220.205554 233.515939 
L 220.350799 233.815141 
L 220.479905 233.615673 
L 221.125437 233.515939 
L 221.141575 233.416205 
L 221.222267 233.515939 
L 221.270682 233.416205 
L 221.415926 233.117003 
L 221.722554 233.017268 
L 221.85166 232.8178 
L 221.900075 232.8178 
L 222.029182 232.418864 
L 222.077596 232.31913 
L 222.158288 232.019928 
L 222.206703 232.119662 
L 222.739267 232.019928 
L 222.868373 231.820459 
L 222.916788 231.720725 
L 223.045894 231.521257 
L 223.142724 231.421523 
L 223.287969 231.122321 
L 223.384798 231.022587 
L 223.513905 230.823118 
L 223.626873 230.723384 
L 223.836671 230.025246 
L 223.981915 229.925512 
L 224.046468 229.726043 
L 224.094883 229.825777 
L 224.256266 230.224714 
L 224.320819 230.12498 
L 224.385373 230.025246 
L 224.417649 230.12498 
L 224.498341 230.224714 
L 224.514479 230.324448 
L 224.579032 230.224714 
L 224.59517 230.12498 
L 224.643585 230.324448 
L 224.659724 230.324448 
L 224.740415 230.424182 
L 224.869522 230.62365 
L 225.127734 230.523916 
L 225.240702 230.424182 
L 225.289117 230.523916 
L 225.305255 230.62365 
L 225.35367 230.424182 
L 225.369809 230.424182 
L 225.54733 230.523916 
L 225.676436 230.723384 
L 225.740989 230.62365 
L 225.853958 230.523916 
L 226.031479 230.424182 
L 226.289691 229.426841 
L 226.660872 229.327107 
L 226.806117 229.027905 
L 227.06433 229.127639 
L 227.096606 229.227373 
L 227.145021 229.127639 
L 227.257989 228.928171 
L 227.370957 229.127639 
L 227.548479 228.628968 
L 227.661447 228.529234 
L 227.677585 228.4295 
L 227.758276 228.529234 
L 227.855106 228.728702 
L 227.871244 228.628968 
L 228.048766 228.529234 
L 228.097181 228.4295 
L 228.145595 228.529234 
L 228.419946 228.4295 
L 228.532915 228.329766 
L 228.565191 228.230032 
L 228.694297 228.030564 
L 228.823404 227.93083 
L 228.871819 227.731361 
L 228.920234 227.831096 
L 229.000925 227.93083 
L 229.017063 227.831096 
L 229.097755 227.731361 
L 229.243 227.432159 
L 229.307553 227.332425 
L 229.452797 227.033223 
L 229.630319 227.132957 
L 229.646457 227.232691 
L 229.71101 227.033223 
L 230.082191 226.933489 
L 230.098329 226.833755 
L 230.162882 227.033223 
L 230.905244 226.933489 
L 231.179595 225.836414 
L 231.22801 225.73668 
L 231.389393 225.337743 
L 231.437808 225.238009 
L 231.921957 222.844391 
L 232.002648 222.744657 
L 232.115616 221.647582 
L 232.164031 220.351038 
L 232.180169 216.660877 
L 232.244722 75.23793 
L 232.309276 141.461369 
L 232.470659 226.73402 
L 232.535212 227.531893 
L 232.599765 227.332425 
L 232.74501 227.033223 
L 233.035499 229.426841 
L 233.551924 234.613014 
L 233.584201 234.712748 
L 233.826275 236.408228 
L 234.504084 239.998655 
L 234.584775 240.098389 
L 234.762296 240.59706 
L 234.82685 240.696794 
L 234.988233 241.09573 
L 235.020509 241.195464 
L 235.181892 241.594401 
L 235.19803 241.494667 
L 235.230307 241.694135 
L 235.262584 241.694135 
L 235.359413 241.793869 
L 235.504658 242.093071 
L 235.601488 242.192805 
L 235.730594 242.392273 
L 235.908115 242.492008 
L 236.021083 242.591742 
L 236.117913 242.691476 
L 236.263158 242.990678 
L 236.279296 242.890944 
L 236.343849 242.990678 
L 236.505232 243.389614 
L 236.876413 243.28988 
L 237.005519 243.090412 
L 237.070073 243.28988 
L 237.118488 243.190146 
L 237.231456 243.090412 
L 237.392839 242.990678 
L 237.521945 242.79121 
L 237.683328 242.691476 
L 237.844711 242.292539 
L 237.957679 242.192805 
L 238.070647 242.093071 
L 238.167477 241.993337 
L 238.296583 241.793869 
L 238.474104 241.694135 
L 238.554796 241.494667 
L 238.587072 241.594401 
L 238.667764 241.494667 
L 238.780732 241.394932 
L 238.845285 241.295198 
L 238.942115 241.195464 
L 238.958253 241.295198 
L 239.022806 241.09573 
L 239.151913 240.995996 
L 239.297157 240.696794 
L 239.361711 240.59706 
L 239.490817 240.397592 
L 239.732891 240.297857 
L 239.845859 240.198123 
L 240.152487 240.098389 
L 240.265455 239.998655 
L 240.572083 239.898921 
L 240.685051 239.799187 
L 240.959402 239.699453 
L 241.088508 239.499985 
L 241.459689 239.400251 
L 241.588795 239.200782 
L 241.717902 239.101048 
L 241.847008 238.90158 
L 241.895423 238.801846 
L 242.008391 238.702112 
L 242.169774 238.801846 
L 242.363433 253.363024 
L 242.799167 265.430849 
L 243.234901 273.509311 
L 243.654497 279.393623 
L 243.767465 280.690166 
L 244.396859 287.172882 
L 244.606657 289.06783 
L 244.945561 291.960119 
L 246.430284 300.537251 
L 246.46256 300.636985 
L 246.769188 301.933528 
L 246.801465 302.033262 
L 247.108092 303.329806 
L 247.172645 303.42954 
L 247.382443 304.127678 
L 247.41472 304.227412 
L 247.624518 304.925551 
L 247.672933 305.025285 
L 247.898869 305.823158 
L 247.963422 305.922892 
L 248.157081 306.521297 
L 248.221635 306.621031 
L 248.383018 307.019967 
L 248.463709 307.119701 
L 248.64123 307.618372 
L 248.721922 307.718106 
L 248.867166 308.017308 
L 248.996273 308.117042 
L 249.141517 308.416244 
L 249.189932 308.515979 
L 249.335177 308.815181 
L 249.544975 308.914915 
L 249.674081 309.114383 
L 249.722496 309.214117 
L 249.851602 309.413585 
L 249.964571 309.513319 
L 250.093677 309.712788 
L 250.384166 309.812522 
L 250.497134 309.912256 
L 250.593964 310.01199 
L 250.610102 310.111724 
L 250.690794 310.01199 
L 250.884453 310.111724 
L 250.997421 310.211458 
L 251.255634 310.311192 
L 251.271772 310.410926 
L 251.336326 310.311192 
L 251.368602 310.211458 
L 251.433155 310.311192 
L 251.836613 310.410926 
L 251.852751 310.51066 
L 251.933443 310.410926 
L 252.046411 310.311192 
L 252.546698 310.211458 
L 252.562836 310.111724 
L 252.643528 310.211458 
L 252.853325 310.111724 
L 252.982432 309.912256 
L 253.724793 309.812522 
L 253.821623 309.712788 
L 253.934591 309.812522 
L 254.176666 309.712788 
L 254.305772 309.513319 
L 254.741506 309.413585 
L 254.789921 309.214117 
L 254.838336 309.413585 
L 255.015857 309.313851 
L 255.031995 309.214117 
L 255.096548 309.413585 
L 255.112687 309.313851 
L 255.354761 309.214117 
L 255.467729 309.114383 
L 255.709804 309.014649 
L 255.822772 308.914915 
L 256.000293 308.815181 
L 256.129399 308.615713 
L 256.242367 308.715447 
L 256.419889 308.615713 
L 256.548995 308.416244 
L 256.774931 308.31651 
L 256.791069 308.216776 
L 256.871761 308.31651 
L 256.968591 308.216776 
L 257.081559 308.117042 
L 257.129974 308.017308 
L 257.25908 307.81784 
L 257.517293 307.718106 
L 257.630261 307.618372 
L 258.01758 307.518638 
L 258.146686 307.319169 
L 258.162824 307.418903 
L 258.243516 307.319169 
L 258.259654 307.319169 
L 258.372622 301.534592 
L 259.647548 301.634326 
L 259.679824 301.73406 
L 259.744377 301.634326 
L 260.244665 301.534592 
L 260.276941 301.335124 
L 260.341494 301.534592 
L 261.42276 301.634326 
L 261.471175 301.73406 
L 261.503452 301.634326 
L 261.51959 301.534592 
L 261.600281 301.634326 
L 262.616994 301.534592 
L 262.649271 301.434858 
L 262.713824 301.534592 
L 263.230249 301.634326 
L 263.246387 301.73406 
L 263.327079 301.634326 
L 264.16627 301.73406 
L 264.214685 301.833794 
L 264.2631 301.73406 
L 264.392206 301.833794 
L 264.505175 301.933528 
L 266.377217 301.933528 
L 266.570876 279.593091 
L 267.151855 253.363024 
L 268.265397 222.34572 
L 268.507472 219.054495 
L 268.846376 211.973374 
L 268.910929 74.838994 
L 268.991621 162.206061 
L 269.153004 227.631627 
L 269.18528 227.93083 
L 269.233695 227.531893 
L 269.395078 226.73402 
L 269.572599 227.232691 
L 269.604876 227.332425 
L 269.798535 227.93083 
L 269.814674 227.831096 
L 269.863089 228.130298 
L 269.94378 228.230032 
L 270.089025 228.529234 
L 270.282684 228.628968 
L 270.395652 228.828436 
L 270.524759 228.628968 
L 270.653865 228.628968 
L 270.782971 228.928171 
L 270.79911 229.027905 
L 270.879801 228.928171 
L 271.008907 228.728702 
L 271.154152 228.828436 
L 271.218705 229.027905 
L 271.26712 228.928171 
L 271.428503 228.529234 
L 271.444641 228.628968 
L 271.525333 228.529234 
L 271.638301 228.4295 
L 271.702854 228.329766 
L 271.896514 227.731361 
L 272.009482 227.631627 
L 272.283833 226.534552 
L 272.299971 226.634286 
L 272.380663 226.534552 
L 272.445216 226.534552 
L 272.59046 226.035882 
L 272.816397 225.238009 
L 272.88095 225.138275 
L 273.090748 224.440136 
L 273.123024 224.340402 
L 273.25213 224.140934 
L 273.300545 224.240668 
L 273.461928 224.639604 
L 273.526482 224.739339 
L 273.671726 225.038541 
L 273.800833 225.138275 
L 273.865386 225.238009 
L 273.881524 225.138275 
L 274.075184 224.53987 
L 274.172013 224.440136 
L 274.414088 223.542529 
L 274.446364 223.442795 
L 274.623886 222.944125 
L 274.704577 223.043859 
L 274.752992 223.143593 
L 274.785269 222.944125 
L 274.801407 223.043859 
L 274.86596 222.944125 
L 274.946651 222.744657 
L 274.96279 222.844391 
L 275.043481 222.944125 
L 275.05962 222.844391 
L 275.172588 222.744657 
L 275.350109 222.245986 
L 275.495354 222.146252 
L 275.753566 221.049177 
L 275.801981 221.148911 
L 275.834258 221.049177 
L 276.027917 220.450772 
L 276.060194 220.351038 
L 276.140885 220.450772 
L 276.1893 220.15157 
L 276.221577 220.051836 
L 276.399098 219.154229 
L 276.641172 218.156888 
L 276.657311 218.256622 
L 276.705726 218.057154 
L 277.04463 215.464068 
L 277.286704 211.474704 
L 277.351257 71.747237 
L 277.431949 147.345681 
L 277.593332 223.941466 
L 277.754715 225.437477 
L 278.206587 228.828436 
L 278.448662 230.62365 
L 278.480938 230.723384 
L 278.868257 232.618332 
L 278.900534 232.518598 
L 278.93281 232.718066 
L 278.948949 232.718066 
L 279.094193 233.017268 
L 279.158747 233.117003 
L 279.287853 233.316471 
L 279.320129 233.416205 
L 279.433098 233.515939 
L 279.69131 233.416205 
L 279.836555 233.117003 
L 280.014076 233.017268 
L 280.223874 232.31913 
L 280.54664 232.219396 
L 280.64347 232.119662 
L 280.659608 232.219396 
L 280.740299 232.119662 
L 280.804853 232.019928 
L 280.820991 231.920193 
L 280.885544 232.119662 
L 280.901682 232.019928 
L 281.079204 231.920193 
L 281.192172 231.820459 
L 281.563353 231.720725 
L 281.708597 231.421523 
L 281.789289 231.521257 
L 281.805427 231.421523 
L 282.241161 231.321789 
L 282.370267 231.122321 
L 282.483235 231.022587 
L 282.612342 230.823118 
L 282.951246 230.723384 
L 283.096491 230.424182 
L 283.403118 230.324448 
L 283.532225 230.12498 
L 283.85499 230.025246 
L 284.000235 229.726043 
L 284.04865 229.626309 
L 284.210033 229.227373 
L 284.24231 229.127639 
L 284.387554 228.828436 
L 284.484384 228.728702 
L 284.71032 227.93083 
L 284.90398 227.831096 
L 285.033086 227.631627 
L 285.065363 227.531893 
L 285.259022 226.933489 
L 285.307437 226.833755 
L 285.420405 226.73402 
L 285.46882 226.634286 
L 285.662479 226.035882 
L 285.678618 226.135616 
L 285.743171 225.936148 
L 285.823862 225.836414 
L 285.985245 225.437477 
L 286.146628 225.337743 
L 286.308011 224.938807 
L 286.437118 225.138275 
L 286.517809 225.038541 
L 286.550086 224.938807 
L 286.598501 225.038541 
L 286.711469 225.138275 
L 286.743745 225.038541 
L 286.856713 224.938807 
L 287.486107 224.839073 
L 287.582937 224.639604 
L 287.599075 224.739339 
L 287.760458 224.639604 
L 288.067085 223.343061 
L 288.341436 223.243327 
L 288.486681 222.844391 
L 288.567373 223.143593 
L 288.615788 223.043859 
L 288.809447 222.445454 
L 288.841724 222.34572 
L 288.97083 222.146252 
L 289.132213 222.545188 
L 289.245181 222.644923 
L 289.374287 222.844391 
L 289.567947 222.744657 
L 289.810021 221.84705 
L 289.987543 221.747316 
L 290.342585 220.15157 
L 290.358723 220.251304 
L 290.391 220.051836 
L 290.439415 220.15157 
L 290.552383 220.051836 
L 290.665351 219.952102 
L 290.697628 219.852368 
L 290.842872 219.553166 
L 290.907425 219.453432 
L 291.004255 219.253963 
L 291.020394 219.353697 
L 291.05267 219.253963 
L 291.197915 218.954761 
L 291.230191 218.855027 
L 292.069383 213.269918 
L 292.101659 210.178161 
L 292.166212 72.146173 
L 292.230766 132.983971 
L 292.408287 223.243327 
L 292.553532 224.0412 
L 292.634223 224.140934 
L 293.376585 228.130298 
L 293.424999 228.230032 
L 293.780042 229.825777 
L 293.844595 229.925512 
L 294.054393 230.723384 
L 294.070531 230.62365 
L 294.118946 230.823118 
L 294.135084 230.823118 
L 294.248053 230.922852 
L 294.377159 231.122321 
L 294.490127 231.022587 
L 294.667648 231.122321 
L 294.812893 231.421523 
L 294.877446 231.521257 
L 294.990414 231.620991 
L 295.11952 231.720725 
L 295.21635 231.820459 
L 295.345457 231.620991 
L 295.571393 231.521257 
L 295.732776 231.122321 
L 295.797329 231.022587 
L 295.926435 230.823118 
L 295.990988 230.723384 
L 296.120095 230.523916 
L 296.200786 230.424182 
L 296.378308 229.925512 
L 296.555829 229.825777 
L 296.571967 229.726043 
L 296.652659 229.825777 
L 296.83018 230.324448 
L 297.346605 230.224714 
L 297.507988 229.825777 
L 297.717786 229.726043 
L 297.927584 229.027905 
L 298.040552 228.928171 
L 298.15352 228.628968 
L 298.169658 228.728702 
L 298.234211 228.628968 
L 298.444009 227.93083 
L 298.524701 227.831096 
L 298.637669 227.631627 
L 298.653807 227.731361 
L 298.702222 227.531893 
L 298.71836 227.531893 
L 298.976573 226.534552 
L 299.057265 226.434818 
L 299.267062 225.73668 
L 299.315477 225.636945 
L 299.347754 225.537211 
L 299.412307 225.636945 
L 299.912594 225.537211 
L 300.041701 225.337743 
L 300.073977 225.238009 
L 300.170807 225.038541 
L 300.186945 225.138275 
L 300.219222 225.238009 
L 300.267637 225.038541 
L 300.541988 224.938807 
L 300.671094 224.739339 
L 300.735647 224.839073 
L 300.767924 224.739339 
L 300.961583 224.639604 
L 301.139105 224.140934 
L 301.155243 224.240668 
L 301.203658 224.0412 
L 301.219796 224.0412 
L 301.397317 223.941466 
L 301.526424 223.741998 
L 301.816913 223.841732 
L 301.929881 223.941466 
L 302.139679 224.0412 
L 302.284924 224.340402 
L 302.397892 224.240668 
L 302.51086 224.340402 
L 302.672243 223.841732 
L 302.752934 224.0412 
L 302.785211 223.941466 
L 302.849764 223.841732 
L 303.027285 223.343061 
L 303.091838 223.243327 
L 303.26936 222.744657 
L 303.333913 222.644923 
L 303.479157 222.34572 
L 303.575987 222.245986 
L 303.721232 221.946784 
L 303.850338 221.84705 
L 304.011721 221.448113 
L 304.108551 221.348379 
L 304.286072 220.849709 
L 304.528147 220.749975 
L 304.608838 220.450772 
L 304.657253 220.550507 
L 304.721806 220.550507 
L 304.818636 220.15157 
L 304.850912 220.251304 
L 304.899327 220.251304 
L 305.06071 219.353697 
L 305.109125 219.453432 
L 305.125263 219.353697 
L 305.270508 218.855027 
L 305.367338 218.755293 
L 305.560997 218.156888 
L 305.609412 218.057154 
L 306.190391 213.968056 
L 306.351774 210.277895 
L 306.416327 72.644843 
L 306.497019 147.644883 
L 306.658402 222.744657 
L 306.739093 223.542529 
L 306.787508 223.343061 
L 306.932753 222.944125 
L 306.948891 223.043859 
L 306.997306 222.844391 
L 307.029582 222.944125 
L 307.207104 223.043859 
L 307.820359 226.23535 
L 307.868774 226.335084 
L 308.046295 226.833755 
L 308.110848 226.933489 
L 308.304508 228.030564 
L 308.465891 228.4295 
L 308.788657 228.329766 
L 308.885486 228.230032 
L 308.998454 228.329766 
L 309.095284 228.4295 
L 309.22439 228.628968 
L 309.337359 228.529234 
L 309.466465 228.628968 
L 309.579433 228.728702 
L 309.708539 228.529234 
L 309.756954 228.4295 
L 309.789231 228.329766 
L 309.853784 228.4295 
L 310.111997 228.529234 
L 310.224965 228.628968 
L 310.499316 228.529234 
L 310.628422 228.329766 
L 310.967326 228.230032 
L 311.096433 228.030564 
L 311.160986 227.93083 
L 311.322369 227.531893 
L 311.354645 227.432159 
L 311.532167 226.933489 
L 311.564443 226.833755 
L 311.709688 226.534552 
L 311.919486 226.434818 
L 312.032454 226.335084 
L 312.306805 226.23535 
L 312.468188 225.836414 
L 312.532741 225.73668 
L 312.694124 225.337743 
L 312.903922 225.238009 
L 313.033028 225.038541 
L 313.081443 224.938807 
L 313.210549 224.739339 
L 313.355794 224.639604 
L 313.371932 224.53987 
L 313.452624 224.639604 
L 313.67856 224.53987 
L 313.743113 224.639604 
L 313.823805 224.240668 
L 313.936773 224.140934 
L 314.049741 224.0412 
L 314.43706 223.941466 
L 314.646858 223.243327 
L 314.743687 223.143593 
L 314.856655 222.844391 
L 314.872794 222.944125 
L 314.985762 222.844391 
L 315.163283 222.34572 
L 315.243975 222.245986 
L 315.405358 221.84705 
L 315.599017 221.747316 
L 315.728123 221.448113 
L 315.744262 221.547848 
L 315.824953 221.448113 
L 315.937921 221.248645 
L 316.583453 224.639604 
L 316.793251 224.53987 
L 316.809389 224.440136 
L 316.873942 224.53987 
L 316.890081 224.639604 
L 316.938496 224.440136 
L 316.954634 224.440136 
L 317.164432 224.340402 
L 317.2774 224.140934 
L 317.406506 224.340402 
L 317.713134 224.240668 
L 317.826102 224.140934 
L 317.874517 224.0412 
L 318.197283 222.545188 
L 318.213421 222.644923 
L 318.261836 222.445454 
L 318.294112 222.545188 
L 318.713708 220.550507 
L 318.745985 220.450772 
L 318.988059 219.553166 
L 319.020336 219.553166 
L 319.197857 218.555825 
L 319.310825 218.555825 
L 319.472208 217.857686 
L 319.633591 216.26194 
L 319.859527 212.172843 
L 319.891804 145.051797 
L 319.92408 73.941387 
L 319.988633 121.115614 
L 320.166155 220.351038 
L 320.246846 221.248645 
L 320.295261 220.949443 
L 320.359814 221.049177 
L 320.553474 221.647582 
L 320.666442 221.747316 
L 320.811686 222.046518 
L 320.87624 222.146252 
L 321.279697 224.0412 
L 321.328112 224.140934 
L 321.489495 224.53987 
L 321.53791 224.639604 
L 321.667016 224.839073 
L 321.796122 224.938807 
L 321.925229 225.138275 
L 321.989782 225.238009 
L 322.135027 225.537211 
L 322.29641 225.636945 
L 322.441654 225.936148 
L 322.473931 225.836414 
L 322.538484 225.936148 
L 322.66759 226.135616 
L 322.76442 226.23535 
L 322.974218 226.933489 
L 323.006495 227.033223 
L 323.119463 227.132957 
L 323.652026 227.033223 
L 323.764994 226.833755 
L 323.797271 226.933489 
L 323.861824 226.833755 
L 323.910239 226.73402 
L 324.023207 226.434818 
L 324.039345 226.534552 
L 324.152314 226.434818 
L 324.168452 226.335084 
L 324.200728 226.534552 
L 324.216867 226.534552 
L 324.265282 226.634286 
L 324.313696 226.534552 
L 324.426665 226.335084 
L 324.539633 226.434818 
L 324.555771 226.335084 
L 324.636462 226.434818 
L 324.765569 226.534552 
L 324.830122 226.634286 
L 324.862399 226.534552 
L 325.023781 226.634286 
L 325.056058 226.73402 
L 325.120611 226.634286 
L 325.685452 226.534552 
L 325.814558 226.335084 
L 325.895249 226.23535 
L 326.024356 226.035882 
L 326.185739 225.936148 
L 326.347122 225.537211 
L 326.395537 225.437477 
L 326.540781 224.938807 
L 326.589196 224.839073 
L 326.750579 224.440136 
L 326.782856 224.340402 
L 326.911962 224.140934 
L 326.992653 224.0412 
L 327.137898 223.741998 
L 327.21859 223.642264 
L 327.299281 223.542529 
L 327.315419 223.642264 
L 327.58977 223.542529 
L 327.638185 223.442795 
L 327.6866 223.542529 
L 327.767292 223.442795 
L 327.944813 222.944125 
L 328.186887 222.844391 
L 328.412823 222.046518 
L 328.493515 222.046518 
L 328.622621 221.448113 
L 328.63876 221.547848 
L 328.961525 221.647582 
L 328.977664 221.747316 
L 329.00994 221.547848 
L 329.042217 221.547848 
L 329.219738 221.448113 
L 329.332706 221.049177 
L 329.364983 221.148911 
L 329.413398 221.049177 
L 329.590919 220.550507 
L 329.703887 220.650241 
L 329.86527 220.550507 
L 329.9621 220.051836 
L 330.010515 220.251304 
L 330.091206 220.550507 
L 330.123483 220.351038 
L 330.204174 220.251304 
L 330.397834 219.6529 
L 330.43011 219.752634 
L 330.478525 219.553166 
L 330.688323 219.553166 
L 330.833568 219.054495 
L 330.930398 219.054495 
L 331.124057 241.893603 
L 331.495238 258.050526 
L 332.076216 272.611704 
L 332.786301 283.781923 
L 333.528663 291.660916 
L 335.142493 301.035921 
L 335.174769 301.035921 
L 335.336152 301.833794 
L 335.35229 301.833794 
L 335.529812 302.731401 
L 335.933269 304.626349 
L 335.965546 304.726083 
L 336.191482 305.523956 
L 336.239897 305.62369 
L 336.433556 306.222094 
L 336.465833 306.321828 
L 336.594939 306.521297 
L 336.675631 306.621031 
L 336.853152 307.119701 
L 336.917705 307.219435 
L 337.079088 307.718106 
L 337.111365 307.618372 
L 337.127503 307.81784 
L 337.159779 307.81784 
L 337.321162 308.216776 
L 337.385716 308.31651 
L 337.547099 308.715447 
L 337.660067 308.815181 
L 337.82145 309.214117 
L 337.950556 309.313851 
L 338.079662 309.613054 
L 338.095801 309.513319 
L 338.144215 309.712788 
L 338.160354 309.613054 
L 338.305598 309.912256 
L 338.434705 310.01199 
L 338.563811 310.211458 
L 338.741332 310.311192 
L 338.838162 310.410926 
L 338.934992 310.311192 
L 338.983407 310.410926 
L 339.031822 310.311192 
L 339.306173 310.211458 
L 339.386864 310.111724 
L 339.403002 310.211458 
L 340.758619 310.111724 
L 340.887726 309.912256 
L 341.049109 309.812522 
L 341.194353 309.513319 
L 341.258906 309.413585 
L 341.388013 309.214117 
L 341.565534 309.114383 
L 341.69464 308.914915 
L 341.79147 309.014649 
L 341.904438 308.914915 
L 342.630662 308.815181 
L 342.6468 308.715447 
L 342.679076 308.914915 
L 342.711353 308.914915 
L 342.888874 308.815181 
L 343.001842 308.715447 
L 343.760342 308.615713 
L 343.792619 308.515979 
L 343.857172 308.615713 
L 343.97014 308.515979 
L 344.050831 308.416244 
L 344.06697 308.515979 
L 344.228353 308.416244 
L 344.341321 308.31651 
L 344.680225 308.216776 
L 344.696363 308.117042 
L 344.777055 308.216776 
L 344.922299 308.117042 
L 345.035268 308.017308 
L 345.600108 307.917574 
L 345.616246 307.81784 
L 345.696938 307.917574 
L 345.793767 307.81784 
L 345.906735 307.718106 
L 346.068118 307.618372 
L 346.181086 307.418903 
L 346.213363 307.518638 
L 346.261778 307.418903 
L 346.374746 307.319169 
L 346.568406 307.219435 
L 346.584544 307.119701 
L 346.665235 307.219435 
L 346.971863 307.119701 
L 347.100969 306.920233 
L 347.940161 307.019967 
L 347.972437 307.119701 
L 348.03699 307.019967 
L 349.666958 307.119701 
L 349.683097 307.219435 
L 349.763788 307.119701 
L 351.16782 307.219435 
L 351.264649 307.319169 
L 351.361479 307.219435 
L 351.393756 307.319169 
L 351.442171 307.219435 
L 351.539 307.119701 
L 351.555139 307.219435 
L 351.63583 307.119701 
L 352.362054 307.219435 
L 352.475022 307.319169 
L 353.072139 307.219435 
L 353.088277 307.119701 
L 353.168968 307.219435 
L 353.362628 307.119701 
L 353.394904 307.019967 
L 353.443319 307.219435 
L 353.524011 307.119701 
L 353.572426 307.019967 
L 353.604702 307.119701 
L 353.669255 307.219435 
L 353.701532 307.119701 
L 354.702106 307.019967 
L 354.815074 306.920233 
L 354.831213 307.019967 
L 354.879628 306.820499 
L 354.895766 306.920233 
L 355.008734 306.820499 
L 355.13784 306.720765 
L 355.3315 262.937497 
L 355.79951 218.555825 
L 355.89634 202.099699 
L 355.944755 69.253884 
L 356.009308 135.676792 
L 356.154553 216.561143 
L 356.170691 216.361675 
L 356.364351 208.881617 
L 356.800085 195.417515 
L 356.864638 72.245907 
L 356.945329 134.280514 
L 357.122851 208.881617 
L 357.284234 210.676831 
L 357.477893 211.275236 
L 357.590861 211.275236 
L 357.703829 211.674172 
L 357.719968 211.574438 
L 357.865212 211.474704 
L 358.17184 210.178161 
L 358.236393 210.078427 
L 358.73668 206.388265 
L 359.043308 201.40156 
L 359.172414 194.420174 
L 359.236967 68.256543 
L 359.30152 118.323059 
L 359.49518 209.18082 
L 359.672701 212.073108 
L 359.898637 212.970715 
L 359.930914 212.870981 
L 359.995467 212.970715 
L 360.237542 212.870981 
L 360.511893 211.773906 
L 360.640999 211.674172 
L 360.834658 210.876299 
L 360.850797 210.976033 
L 360.947627 210.876299 
L 361.092871 210.377629 
L 361.10901 210.477363 
L 361.173563 210.377629 
L 361.318807 210.078427 
L 361.351084 209.978693 
L 361.625435 208.881617 
L 361.706126 208.781883 
L 361.867509 208.382947 
L 361.883648 208.382947 
L 362.028892 207.784542 
L 362.125722 207.684808 
L 362.416211 206.487999 
L 362.496903 206.388265 
L 363.223126 202.498635 
L 363.255403 202.398901 
L 363.545892 198.808474 
L 363.56203 196.913526 
L 363.626584 66.96 
L 363.707275 130.390885 
L 363.884796 207.884276 
L 364.046179 210.477363 
L 364.143009 210.577097 
L 364.272115 210.776565 
L 364.32053 210.876299 
L 364.352807 211.075768 
L 364.433498 210.976033 
L 364.449637 210.876299 
L 364.51419 210.976033 
L 364.594881 211.175502 
L 364.627158 211.075768 
L 364.836956 211.175502 
L 364.853094 211.275236 
L 364.885371 211.075768 
L 364.917647 211.075768 
L 365.159722 210.178161 
L 365.17586 210.178161 
L 365.337243 209.380288 
L 365.595456 209.280554 
L 366.240987 205.889595 
L 366.321679 205.989329 
L 366.370094 206.188797 
L 366.40237 205.989329 
L 366.757413 204.393583 
L 366.821966 204.393583 
L 366.967211 203.795179 
L 367.015626 203.994647 
L 367.06404 203.795179 
L 367.193147 203.695445 
L 367.91937 198.70874 
L 367.983923 196.51459 
L 368.0162 148.841692 
L 368.064615 68.356277 
L 368.129168 116.029175 
L 368.338966 206.886936 
L 368.516487 209.18082 
L 368.694008 209.67949 
L 368.806976 209.579756 
L 368.919944 209.67949 
L 369.178157 209.779224 
L 369.194295 209.878958 
L 369.24271 209.779224 
L 369.323402 209.579756 
L 369.355678 209.67949 
L 369.387955 209.978693 
L 369.468646 209.878958 
L 369.646168 209.380288 
L 369.662306 209.480022 
L 369.710721 209.280554 
L 369.888242 208.682149 
L 369.920519 208.781883 
L 369.968934 208.582415 
L 370.485359 205.989329 
L 370.533774 205.889595 
L 370.695157 204.991988 
L 370.808125 205.091722 
L 371.050199 204.194115 
L 371.082476 204.094381 
L 371.211582 203.59571 
L 371.243859 203.695445 
L 371.292274 203.59571 
L 371.389104 203.296508 
L 371.42138 203.396242 
L 371.534348 203.495976 
L 371.679593 203.994647 
L 371.744146 203.795179 
L 371.776423 203.994647 
L 371.840976 203.894913 
L 371.970082 203.495976 
L 371.98622 203.59571 
L 372.08305 203.495976 
L 372.502646 201.501294 
L 372.534923 201.40156 
L 372.776997 199.706081 
L 372.857688 198.609006 
L 372.922242 195.018578 
L 372.986795 67.757873 
L 373.067486 122.013221 
L 373.261146 204.593051 
L 373.454805 206.787201 
L 373.680741 207.585074 
L 373.858263 207.48534 
L 373.955092 207.285872 
L 373.971231 207.385606 
L 374.051922 207.585074 
L 374.084199 207.48534 
L 374.293997 206.687467 
L 374.310135 206.787201 
L 374.35855 206.487999 
L 374.519933 205.989329 
L 374.536071 206.089063 
L 374.600624 205.889595 
L 374.842699 205.789861 
L 375.052497 205.091722 
L 375.100911 205.191456 
L 375.197741 205.390924 
L 375.21388 205.29119 
L 375.262294 205.191456 
L 375.488231 204.393583 
L 375.520507 204.293849 
L 375.843273 202.797838 
L 375.891688 202.997306 
L 375.923965 202.797838 
L 376.149901 201.999965 
L 376.182177 202.099699 
L 376.24673 201.999965 
L 376.295145 201.900231 
L 376.666326 200.204751 
L 376.795432 200.105017 
L 377.10206 197.711399 
L 377.182752 195.317781 
L 377.215028 159.114304 
L 377.263443 68.555746 
L 377.327996 109.34699 
L 377.537794 202.199433 
L 377.683039 204.79252 
L 377.699177 204.692785 
L 377.908975 205.390924 
L 377.941251 205.490658 
L 378.102634 205.889595 
L 378.231741 205.989329 
L 378.280156 206.089063 
L 378.32857 205.989329 
L 378.473815 205.690126 
L 378.586783 205.590392 
L 378.828858 204.692785 
L 378.861134 204.593051 
L 378.990241 204.293849 
L 379.119347 204.493317 
L 379.167762 204.393583 
L 379.458251 203.196774 
L 379.522804 203.09704 
L 379.651911 202.897572 
L 379.74874 202.797838 
L 379.974677 201.999965 
L 380.023091 201.900231 
L 380.216751 200.603688 
L 380.232889 200.703422 
L 380.265166 200.503953 
L 380.281304 200.503953 
L 380.410411 200.304485 
L 380.491102 200.404219 
L 380.571794 200.603688 
L 380.60407 200.503953 
L 380.684762 200.404219 
L 380.846145 200.005283 
L 380.862283 200.105017 
L 380.894559 199.805815 
L 381.088219 199.107676 
L 381.104357 199.20741 
L 381.16891 199.007942 
L 381.523953 193.422833 
L 381.55623 187.039851 
L 381.620783 68.156809 
L 381.685336 108.34965 
L 381.911272 203.495976 
L 382.104932 205.789861 
L 382.185623 205.889595 
L 382.347006 206.288531 
L 382.379283 206.388265 
L 382.540666 206.787201 
L 382.702048 206.687467 
L 382.927985 205.889595 
L 383.121644 205.989329 
L 383.234612 206.388265 
L 383.266889 206.288531 
L 383.379857 206.388265 
L 383.395995 206.487999 
L 383.44441 206.288531 
L 383.460548 206.288531 
L 383.654208 205.690126 
L 383.702623 205.590392 
L 383.815591 205.091722 
L 383.864006 205.191456 
L 383.896282 205.091722 
L 384.089942 204.493317 
L 384.122218 204.593051 
L 384.170633 204.393583 
L 384.219048 204.293849 
L 384.396569 203.795179 
L 384.461123 203.695445 
L 384.557952 203.59571 
L 384.606367 203.795179 
L 384.67092 203.695445 
L 384.735474 203.59571 
L 384.896857 203.09704 
L 384.945272 203.196774 
L 384.993686 203.09704 
L 385.042101 202.997306 
L 385.090516 203.09704 
L 385.171208 202.997306 
L 385.300314 202.598369 
L 385.316452 202.698104 
L 385.348729 202.797838 
L 385.364867 202.897572 
L 385.42942 202.698104 
L 386.123367 197.811133 
L 386.317027 192.226024 
L 386.38158 70.251225 
L 386.47841 129.393544 
L 386.672069 201.800497 
L 386.833452 203.695445 
L 386.84959 203.59571 
L 386.881867 203.894913 
L 387.107803 204.79252 
L 387.14008 204.692785 
L 387.188495 204.892254 
L 387.285324 204.991988 
L 387.398292 205.191456 
L 387.575814 204.692785 
L 387.70492 204.593051 
L 387.850165 204.293849 
L 387.89858 204.194115 
L 387.963133 204.094381 
L 387.979271 204.194115 
L 388.140654 204.991988 
L 388.302037 204.593051 
L 388.527973 204.493317 
L 388.640941 204.393583 
L 388.753909 204.293849 
L 388.947569 203.695445 
L 388.979845 203.59571 
L 389.157367 203.09704 
L 389.189643 202.997306 
L 389.641515 200.803156 
L 389.657654 200.803156 
L 389.899728 198.210069 
L 390.093388 196.414856 
L 390.319324 190.92948 
L 390.3516 142.358976 
L 390.400015 69.752555 
L 390.464568 109.945395 
L 390.674366 199.606347 
L 390.835749 202.099699 
L 390.868026 202.199433 
L 391.126239 203.196774 
L 391.158515 203.196774 
L 391.174653 202.997306 
L 391.271483 203.09704 
L 391.352175 202.897572 
L 391.368313 202.997306 
L 391.432866 203.196774 
L 391.481281 203.09704 
L 391.513558 202.897572 
L 391.578111 202.997306 
L 391.691079 203.09704 
L 391.739494 202.997306 
L 391.949292 202.299167 
L 392.078398 202.199433 
L 392.385026 200.90289 
L 392.449579 200.803156 
L 392.610962 200.005283 
L 392.659377 199.905549 
L 392.869174 198.609006 
L 392.885313 198.609006 
L 393.175802 196.315121 
L 393.595398 193.223365 
L 393.724504 189.732671 
L 393.756781 152.132917 
L 393.805196 70.450693 
L 393.869749 102.964008 
L 394.111823 198.808474 
L 394.305483 201.900231 
L 394.499142 203.09704 
L 394.547557 203.196774 
L 394.70894 203.59571 
L 394.741217 203.695445 
L 394.870323 203.894913 
L 394.983291 203.994647 
L 395.015568 204.094381 
L 395.080121 203.994647 
L 395.37061 202.797838 
L 395.419025 202.698104 
L 395.548131 202.498635 
L 395.612685 202.498635 
L 395.757929 201.999965 
L 395.806344 201.900231 
L 395.967727 201.301826 
L 395.983865 201.40156 
L 396.096833 201.301826 
L 396.290493 200.204751 
L 396.32277 200.105017 
L 396.69395 198.409537 
L 396.742365 198.309803 
L 397.048993 196.714058 
L 397.081269 196.813792 
L 397.161961 196.714058 
L 397.517003 191.527885 
L 397.565418 184.446764 
L 397.629972 70.749896 
L 397.710663 114.134227 
L 397.936599 198.110335 
L 398.130259 201.202092 
L 398.162535 201.301826 
L 398.485301 202.698104 
L 398.582131 202.797838 
L 398.711237 202.997306 
L 398.904897 202.897572 
L 399.034003 202.698104 
L 399.211524 202.598369 
L 399.437461 201.800497 
L 399.582705 201.700763 
L 399.744088 201.301826 
L 399.857056 201.40156 
L 399.889333 201.301826 
L 399.937748 201.40156 
L 399.970024 201.501294 
L 400.018439 201.40156 
L 400.405758 199.606347 
L 400.454173 199.506613 
L 401.196535 194.32044 
L 401.406333 189.134267 
L 401.487024 70.749896 
L 401.583854 128.296469 
L 401.777513 196.315121 
L 401.955035 199.506613 
L 402.229386 201.601029 
L 402.358492 201.900231 
L 402.503737 201.601029 
L 402.56829 201.700763 
L 402.584428 201.800497 
L 402.66512 201.700763 
L 402.842641 201.601029 
L 403.052439 200.90289 
L 403.100854 200.803156 
L 403.278375 200.304485 
L 403.342928 200.204751 
L 403.455896 200.005283 
L 403.568864 200.105017 
L 403.923907 200.005283 
L 404.036875 199.905549 
L 404.165981 200.005283 
L 404.214396 200.105017 
L 404.262811 200.005283 
L 404.359641 200.105017 
L 404.424194 200.204751 
L 404.45647 200.105017 
L 404.521024 200.005283 
L 404.730821 199.007942 
L 404.763098 199.107676 
L 405.102002 199.007942 
L 405.327938 198.210069 
L 405.392492 198.110335 
L 405.50546 197.511931 
L 405.537736 197.611665 
L 405.602289 197.511931 
L 405.908917 195.018578 
L 406.247821 189.533203 
L 406.296236 184.845701 
L 406.376928 72.046439 
L 406.441481 110.942736 
L 406.667417 197.212728 
L 406.861076 200.803156 
L 407.248395 202.598369 
L 407.329087 202.698104 
L 407.345225 202.797838 
L 407.39364 202.598369 
L 407.409778 202.598369 
L 407.442055 202.598369 
L 407.571161 202.199433 
L 407.813236 202.299167 
L 407.893927 202.398901 
L 407.910066 202.299167 
L 408.119863 202.398901 
L 408.200555 202.598369 
L 408.232831 202.498635 
L 408.3458 202.398901 
L 408.507182 201.999965 
L 408.604012 201.999965 
L 408.797672 200.90289 
L 409.088161 199.706081 
L 409.152714 199.606347 
L 409.701416 196.714058 
L 409.717555 196.813792 
L 409.749831 196.614324 
L 409.782108 196.614324 
L 409.927352 195.816451 
L 409.959629 196.015919 
L 410.072597 196.115653 
L 410.395363 196.015919 
L 410.927927 192.325758 
L 411.08931 187.039851 
L 411.121586 162.604997 
L 411.186139 72.046439 
L 411.250693 109.247256 
L 411.476629 197.01326 
L 411.65415 200.503953 
L 411.896224 202.199433 
L 412.025331 202.498635 
L 412.154437 202.299167 
L 412.331958 202.199433 
L 412.461065 201.999965 
L 412.622448 202.099699 
L 412.703139 202.498635 
L 412.767692 202.398901 
L 412.961352 201.800497 
L 413.058182 201.700763 
L 413.187288 201.501294 
L 413.300256 201.40156 
L 413.477777 200.603688 
L 413.493916 200.703422 
L 413.623022 200.90289 
L 413.784405 200.503953 
L 413.83282 200.404219 
L 414.284692 198.210069 
L 414.365384 198.110335 
L 414.413799 198.210069 
L 414.49449 197.910867 
L 414.526767 197.811133 
L 414.704288 196.913526 
L 414.752703 197.01326 
L 414.784979 196.913526 
L 415.123884 194.32044 
L 415.398235 187.538521 
L 415.446649 102.565072 
L 415.478926 71.747237 
L 415.543479 104.559754 
L 415.785554 197.212728 
L 415.979213 200.404219 
L 416.189011 201.700763 
L 416.398809 202.398901 
L 416.624745 202.299167 
L 416.705436 202.199433 
L 416.721575 202.299167 
L 416.76999 202.299167 
L 416.931373 201.601029 
L 416.963649 201.700763 
L 416.995926 201.601029 
L 417.14117 201.102358 
L 417.189585 201.002624 
L 417.350968 200.603688 
L 417.399383 200.503953 
L 417.673734 199.406878 
L 417.706011 199.307144 
L 418.077192 197.611665 
L 418.238574 197.511931 
L 418.512926 196.315121 
L 418.529064 196.414856 
L 418.56134 196.215387 
L 418.593617 196.215387 
L 418.642032 196.115653 
L 419.110042 192.62496 
L 419.31984 188.73533 
L 419.352117 185.444105 
L 419.432808 71.946705 
L 419.5135 116.029175 
L 419.771713 221.647582 
L 420.013787 246.381637 
L 420.433383 265.829786 
L 420.83684 276.700802 
L 421.224159 283.582455 
L 421.627616 289.06783 
L 421.756723 290.464107 
L 422.208595 294.752673 
L 422.660467 298.143633 
L 422.870265 299.53991 
L 422.902542 299.639644 
L 423.612627 303.42954 
L 423.644903 303.529274 
L 424.048361 305.424222 
L 424.096776 305.523956 
L 424.354988 306.521297 
L 424.403403 306.621031 
L 424.564786 307.319169 
L 424.645478 307.418903 
L 424.839137 308.017308 
L 424.871414 308.117042 
L 425.081212 308.815181 
L 425.113488 308.914915 
L 425.274871 309.313851 
L 425.339424 309.413585 
L 425.516946 309.912256 
L 425.581499 310.01199 
L 425.726743 310.311192 
L 425.839712 310.410926 
L 426.001094 310.809863 
L 426.097924 310.909597 
L 426.243169 311.208799 
L 426.32386 311.308533 
L 426.469105 311.607735 
L 426.565935 311.70747 
L 426.678903 311.906938 
L 426.695041 311.807204 
L 426.759594 312.006672 
L 426.856424 312.106406 
L 426.98553 312.305874 
L 427.033945 312.405608 
L 427.146913 312.505342 
L 427.243743 312.605076 
L 427.388988 312.904279 
L 427.421264 312.804545 
L 427.485818 312.904279 
L 428.131349 313.004013 
L 428.260456 313.203481 
L 429.148062 313.303215 
L 429.1642 313.402949 
L 429.244892 313.303215 
L 429.341722 313.203481 
L 429.45469 313.303215 
L 429.729041 313.402949 
L 429.793594 313.502683 
L 429.82587 313.402949 
L 430.697338 313.303215 
L 430.810306 313.203481 
L 431.310594 313.103747 
L 431.375147 313.004013 
L 431.407423 313.103747 
L 431.972264 313.004013 
L 432.10137 312.804545 
L 432.633934 312.704811 
L 432.746902 312.605076 
L 433.392434 312.505342 
L 433.505402 312.405608 
L 433.795891 312.305874 
L 433.860444 312.106406 
L 433.908859 312.20614 
L 433.989551 312.305874 
L 434.005689 312.20614 
L 434.74805 312.106406 
L 434.861019 312.006672 
L 435.232199 311.906938 
L 435.345167 311.807204 
L 435.635657 311.70747 
L 435.732486 311.607735 
L 435.780901 311.70747 
L 435.780901 311.70747 
" style="fill:none;stroke:#1f77b4;stroke-linecap:square;stroke-width:1.5;"/>
   </g>
   <g id="line2d_16">
    <path clip-path="url(#p0e8c69f0c3)" d="M 80.754545 302.711454 
L 82.917077 307.899542 
L 83.320534 308.573585 
L 83.627162 309.063798 
L 85.660587 311.474012 
L 85.789694 311.57614 
L 86.209289 311.943799 
L 86.338396 312.045927 
L 86.661161 312.291034 
L 86.806406 312.393161 
L 87.096895 312.597417 
L 87.274417 312.699545 
L 87.548768 312.883374 
L 87.742427 312.985502 
L 88.00064 313.148907 
L 88.210438 313.251034 
L 88.436374 313.373587 
L 88.66231 313.475715 
L 88.872108 313.577843 
L 88.904385 313.598268 
L 89.840406 306.285924 
L 91.664033 295.419535 
L 92.099767 293.33613 
L 92.890543 289.904639 
L 94.617341 283.776976 
L 95.327426 281.693571 
L 95.747022 280.529315 
L 97.619064 276.076547 
L 97.828862 275.64761 
L 98.393702 274.50378 
L 98.651915 274.013567 
L 99.087649 273.196545 
L 99.410415 272.62463 
L 99.781595 271.971012 
L 100.217329 271.256118 
L 100.540095 270.725054 
L 101.169489 269.765054 
L 101.44384 269.356543 
L 102.928563 267.313989 
L 103.170637 266.98718 
L 105.171786 264.617817 
L 105.268616 264.515689 
L 106.075531 263.657817 
L 106.188499 263.555689 
L 106.850169 262.881646 
L 106.963137 262.779518 
L 107.495701 262.26888 
L 107.608669 262.166752 
L 108.076679 261.737816 
L 108.205786 261.635688 
L 108.657658 261.227177 
L 108.786764 261.125049 
L 109.20636 260.75739 
L 109.335466 260.655262 
L 109.706647 260.348879 
L 109.851892 260.246751 
L 110.223072 259.940368 
L 110.368317 259.83824 
L 110.72336 259.552282 
L 110.868604 259.450155 
L 111.19137 259.205048 
L 111.352753 259.102921 
L 111.675519 258.857814 
L 111.836902 258.755686 
L 112.14353 258.531005 
L 112.304913 258.428878 
L 112.61154 258.204197 
L 112.789061 258.102069 
L 113.079551 257.897814 
L 113.257072 257.795686 
L 113.531423 257.611856 
L 113.708944 257.509728 
L 113.983295 257.325898 
L 114.160817 257.223771 
L 114.419029 257.060366 
L 114.612689 256.958239 
L 114.870901 256.794834 
L 115.064561 256.692707 
L 115.322774 256.529302 
L 115.532572 256.427174 
L 115.774646 256.284196 
L 115.968306 256.182068 
L 116.21038 256.039089 
L 116.436316 255.936961 
L 116.678391 255.793983 
L 116.904327 255.691855 
L 117.146401 255.548876 
L 117.372337 255.446748 
L 117.598273 255.324195 
L 117.840348 255.222067 
L 118.066284 255.099514 
L 118.308358 254.997386 
L 118.534294 254.874833 
L 118.776369 254.772705 
L 118.986167 254.670578 
L 119.228241 254.56845 
L 119.438039 254.466322 
L 119.696252 254.364195 
L 119.90605 254.262067 
L 120.180401 254.159939 
L 120.390198 254.057812 
L 120.664549 253.955684 
L 120.874347 253.853556 
L 121.164837 253.751428 
L 121.358496 253.669726 
L 121.632847 253.567598 
L 121.826507 253.485896 
L 122.116996 253.383769 
L 122.310656 253.302066 
L 122.617283 253.199939 
L 122.810943 253.118237 
L 123.11757 253.016109 
L 123.31123 252.934407 
L 123.650134 252.832279 
L 123.843794 252.750577 
L 124.198836 252.648449 
L 124.392496 252.566747 
L 124.747538 252.464619 
L 124.925059 252.403343 
L 125.263964 252.301215 
L 125.441485 252.239938 
L 125.796527 252.13781 
L 125.974049 252.076534 
L 126.345229 251.974406 
L 126.522751 251.91313 
L 126.926208 251.811002 
L 127.103729 251.749725 
L 127.507187 251.647597 
L 127.684708 251.586321 
L 128.120442 251.484193 
L 128.297963 251.422916 
L 128.749835 251.320789 
L 128.927357 251.259512 
L 129.395367 251.157384 
L 129.55675 251.116533 
L 129.992484 251.014406 
L 130.153867 250.973555 
L 130.605739 250.871427 
L 130.767122 250.830576 
L 131.251271 250.728448 
L 131.412654 250.687597 
L 131.912941 250.585469 
L 132.074324 250.544618 
L 132.606888 250.44249 
L 132.768271 250.401639 
L 133.316973 250.299512 
L 133.478356 250.258661 
L 134.075473 250.156533 
L 134.236856 250.115682 
L 134.850111 250.013554 
L 135.011494 249.972703 
L 135.673164 249.870575 
L 135.834547 249.829724 
L 136.544632 249.727596 
L 136.706015 249.686745 
L 137.448376 249.584618 
L 137.609759 249.543767 
L 138.400536 249.441639 
L 138.561919 249.400788 
L 139.40111 249.29866 
L 139.546355 249.278235 
L 140.320993 249.176107 
L 140.466238 249.155681 
L 141.289291 249.053554 
L 141.434535 249.033128 
L 142.306003 248.931 
L 142.451248 248.910575 
L 143.387269 248.808447 
L 143.532514 248.788021 
L 144.533088 248.685894 
L 144.678333 248.665468 
L 145.775737 248.563341 
L 145.920981 248.542915 
L 147.099077 248.440787 
L 147.244322 248.420362 
L 148.519247 248.318234 
L 148.664492 248.297808 
L 150.068523 248.195681 
L 150.213768 248.175255 
L 151.763044 248.073127 
L 151.908289 248.052702 
L 153.473704 248.093553 
L 154.603384 257.142068 
L 156.491565 268.396542 
L 157.605107 273.462077 
L 159.541703 280.386336 
L 160.251788 282.469741 
L 160.655245 283.572721 
L 162.607979 288.229744 
L 162.817777 288.658681 
L 163.382617 289.802511 
L 163.64083 290.292724 
L 164.076564 291.109746 
L 164.399329 291.681661 
L 164.77051 292.335279 
L 165.173968 293.009321 
L 165.496734 293.540386 
L 166.077712 294.439109 
L 166.368201 294.888471 
L 167.546297 296.54294 
L 167.788371 296.869749 
L 169.515169 299.014431 
L 169.628137 303.017837 
L 171.613147 307.756563 
L 171.984328 308.389755 
L 172.307094 308.920819 
L 174.501902 311.535289 
L 174.631009 311.637416 
L 175.034466 311.984651 
L 175.179711 312.086778 
L 175.518615 312.35231 
L 175.679998 312.454438 
L 175.970487 312.658693 
L 176.148008 312.760821 
L 176.422359 312.944651 
L 176.616019 313.046779 
L 176.858093 313.189758 
L 177.067891 313.291885 
L 177.293827 313.414439 
L 177.535902 313.516566 
L 177.681146 313.598268 
L 178.843104 301.608475 
L 180.118029 291.293576 
L 180.989497 285.513147 
L 182.006209 279.77357 
L 183.426379 273.155694 
L 185.685741 265.005902 
L 186.298996 263.167604 
L 186.750868 261.880794 
L 189.445964 255.344621 
L 189.655761 254.915684 
L 190.252878 253.690152 
L 190.511091 253.199939 
L 190.979102 252.301215 
L 191.269591 251.770151 
L 191.673048 251.034831 
L 192.044229 250.401639 
L 192.399272 249.788873 
L 192.851144 249.053554 
L 193.17391 248.522489 
L 193.771027 247.60334 
L 194.061516 247.153978 
L 194.884569 245.948871 
L 195.15892 245.54036 
L 196.449984 243.742912 
L 196.708196 243.375253 
L 197.837877 241.78206 
L 198.128366 241.332698 
L 198.693207 240.4544 
L 199.080526 239.759932 
L 199.338739 239.269719 
L 200.27476 236.614398 
L 200.516834 235.266312 
L 200.710494 233.101205 
L 200.791185 230.711416 
L 200.904153 282.490167 
L 200.920291 282.490167 
L 201.485132 286.513999 
L 202.582536 291.518257 
L 203.502419 293.560811 
L 204.051121 294.091875 
L 205.067833 293.989747 
L 205.519706 293.581237 
L 205.616535 293.479109 
L 206.488003 292.212725 
L 206.923737 291.395704 
L 207.149673 290.946342 
L 211.53929 279.548889 
L 211.975024 278.323356 
L 213.233811 274.851014 
L 213.637268 273.748035 
L 218.54331 261.615262 
L 218.736969 261.206751 
L 219.511608 259.531857 
L 219.721405 259.102921 
L 220.334661 257.836537 
L 220.576735 257.366749 
L 221.09316 256.345472 
L 221.367511 255.834834 
L 221.819384 254.976961 
L 222.109873 254.445897 
L 222.51333 253.710577 
L 222.852235 253.118237 
L 223.223415 252.464619 
L 223.626873 251.790576 
L 223.965777 251.218661 
L 224.449926 250.44249 
L 224.772692 249.911426 
L 225.402085 248.951426 
L 225.692575 248.502064 
L 226.531766 247.276531 
L 226.806117 246.86802 
L 228.210149 244.927594 
L 228.468361 244.559934 
L 230.211297 242.190571 
L 230.485648 241.78206 
L 231.22801 240.679081 
L 231.566914 240.107166 
L 231.873542 239.555676 
L 233.003222 236.430568 
L 233.30985 234.306312 
L 233.455095 231.630566 
L 233.487371 230.09865 
L 233.600339 282.490167 
L 233.842414 284.287615 
L 234.455669 288.107191 
L 235.181892 291.232299 
L 236.24702 293.642513 
L 236.71503 294.07145 
L 237.037796 294.173577 
L 237.183041 294.194003 
L 237.57036 294.091875 
L 237.828573 293.928471 
L 237.973817 293.826343 
L 239.313296 291.967619 
L 239.829721 290.946342 
L 240.039519 290.517405 
L 242.234327 285.063785 
L 242.250465 285.206764 
L 242.928274 290.966767 
L 243.880433 297.359962 
L 244.558242 300.954858 
L 245.33288 304.304647 
L 246.333454 307.674861 
L 247.866592 311.269757 
L 248.221635 311.882523 
L 248.544401 312.413587 
L 250.464858 314.680822 
L 250.593964 314.78295 
L 250.965145 315.089333 
L 251.110389 315.191461 
L 251.417017 315.416142 
L 251.594538 315.518269 
L 251.852751 315.681674 
L 252.046411 315.783802 
L 252.288485 315.92678 
L 252.514421 316.028908 
L 252.740357 316.151461 
L 253.014708 316.253589 
L 253.224506 316.355717 
L 253.531134 316.457844 
L 253.724793 316.539547 
L 254.095974 316.641674 
L 254.273495 316.702951 
L 254.676953 316.805079 
L 254.854474 316.866355 
L 255.387038 316.968483 
L 255.548421 317.009334 
L 256.161676 317.111462 
L 256.323059 317.152313 
L 257.16225 317.254441 
L 257.307495 317.274866 
L 258.291931 317.376994 
L 258.308069 302.711454 
L 258.404899 303.017837 
L 260.389909 307.756563 
L 260.76109 308.389755 
L 261.083856 308.920819 
L 263.278664 311.535289 
L 263.40777 311.637416 
L 263.811228 311.984651 
L 263.956472 312.086778 
L 264.295377 312.35231 
L 264.45676 312.454438 
L 264.747249 312.658693 
L 264.92477 312.760821 
L 265.199121 312.944651 
L 265.392781 313.046779 
L 265.634855 313.189758 
L 265.844653 313.291885 
L 266.070589 313.414439 
L 266.312664 313.516566 
L 266.457908 313.598268 
L 267.506897 296.971877 
L 268.71727 281.65272 
L 269.798535 270.602501 
L 271.299397 258.265473 
L 274.075184 241.393975 
L 274.720715 237.553973 
L 275.075758 234.04078 
L 275.204864 230.159927 
L 275.317832 282.490167 
L 275.592183 283.470593 
L 275.979502 284.532721 
L 276.899385 285.533573 
L 277.318981 285.431445 
L 278.416385 283.879104 
L 279.755863 280.202506 
L 282.967384 267.579521 
L 283.725884 264.311434 
L 284.565075 260.696113 
L 285.307437 257.509728 
L 286.372564 253.036534 
L 286.98582 250.503767 
L 289.16449 241.802486 
L 290.374862 235.18461 
L 290.568521 231.732693 
L 290.600798 230.139501 
L 290.713766 282.490167 
L 290.842872 283.082508 
L 291.310883 284.900381 
L 292.037106 286.452722 
L 292.408287 286.759105 
L 293.053819 286.656978 
L 293.98984 285.308892 
L 295.426148 281.387188 
L 298.34718 269.867182 
L 299.154094 266.353988 
L 299.928732 262.983774 
L 300.735647 259.47058 
L 301.623253 255.671429 
L 302.301062 252.811853 
L 303.979445 246.010148 
L 304.512008 243.885891 
L 305.593274 239.351421 
L 306.158114 235.960781 
L 306.384051 233.080779 
L 306.464742 230.200778 
L 306.57771 282.490167 
L 306.706816 283.082508 
L 307.174827 284.879955 
L 307.546008 285.860381 
L 307.884912 286.432297 
L 308.272231 286.759105 
L 308.901625 286.656978 
L 309.886061 285.247615 
L 311.257816 281.489315 
L 314.2434 269.724203 
L 315.050315 266.211009 
L 315.824953 262.840795 
L 316.648006 259.245899 
L 317.567889 255.324195 
L 318.229559 252.546321 
L 319.940218 245.622062 
L 320.472782 243.497806 
L 321.473357 239.269719 
L 322.022059 235.940355 
L 322.247995 233.060354 
L 322.328686 230.139501 
L 322.441654 282.490167 
L 322.570761 283.082508 
L 323.038771 284.879955 
L 323.409952 285.860381 
L 324.28142 286.799956 
L 324.701016 286.697829 
L 325.782281 285.165913 
L 327.105622 281.530166 
L 330.139621 269.581224 
L 330.946536 266.068031 
L 331.011089 265.782073 
L 331.027227 266.006754 
L 331.882557 276.403355 
L 333.044514 287.065488 
L 334.061227 293.969322 
L 335.707333 301.731028 
L 336.594939 304.672306 
L 338.28946 308.675713 
L 338.628364 309.268053 
L 338.967269 309.839969 
L 341.178215 312.474864 
L 341.307321 312.576991 
L 341.69464 312.9038 
L 341.839885 313.005928 
L 342.162651 313.251034 
L 342.324034 313.353162 
L 342.598385 313.536992 
L 342.775906 313.63912 
L 343.034119 313.802524 
L 343.243917 313.904652 
L 343.485991 314.04763 
L 343.711927 314.149758 
L 343.937863 314.272311 
L 344.196076 314.374439 
L 344.405874 314.476567 
L 344.696363 314.578694 
L 344.890023 314.660397 
L 345.19665 314.762524 
L 345.39031 314.844227 
L 345.745352 314.946354 
L 345.922874 315.007631 
L 346.294055 315.109759 
L 346.471576 315.171035 
L 346.90731 315.273163 
L 347.068693 315.314014 
L 347.084831 302.711454 
L 347.181661 303.017837 
L 349.166671 307.756563 
L 349.537852 308.389755 
L 349.860618 308.920819 
L 352.055426 311.535289 
L 352.184532 311.637416 
L 352.58799 311.984651 
L 352.733234 312.086778 
L 353.072139 312.35231 
L 353.233521 312.454438 
L 353.524011 312.658693 
L 353.701532 312.760821 
L 353.975883 312.944651 
L 354.169543 313.046779 
L 354.411617 313.189758 
L 354.621415 313.291885 
L 354.847351 313.414439 
L 355.089425 313.516566 
L 355.23467 313.598268 
L 356.332074 278.527612 
L 357.558585 247.41951 
L 358.204116 230.976948 
L 358.317084 282.490167 
L 358.333223 282.490167 
L 360.092297 261.186326 
L 361.641573 242.987167 
L 362.254828 234.776099 
L 362.383935 230.711416 
L 362.496903 282.490167 
L 362.545318 282.388039 
L 363.287679 279.140378 
L 363.900935 275.484206 
L 365.918221 259.327602 
L 367.499774 244.335253 
L 368.322827 234.878227 
L 368.468072 230.425459 
L 368.58104 282.490167 
L 368.645593 282.388039 
L 369.210434 280.672294 
L 369.742997 278.221229 
L 370.388529 274.381226 
L 372.421954 258.102069 
L 374.778146 233.387162 
L 374.858837 229.996522 
L 374.971805 282.490167 
L 375.036358 282.388039 
L 375.617337 280.631443 
L 376.133762 278.241654 
L 376.779294 274.401652 
L 377.553932 268.805053 
L 378.61906 259.879091 
L 380.394272 243.170997 
L 381.104357 234.857801 
L 381.249602 230.364182 
L 381.36257 282.490167 
L 381.427123 282.388039 
L 382.008102 280.631443 
L 382.540666 278.180377 
L 383.170059 274.422078 
L 383.944697 268.845904 
L 387.14008 239.555676 
L 387.495122 234.939504 
L 387.640367 230.670565 
L 387.753335 282.490167 
L 387.817888 282.408465 
L 388.398867 280.651868 
L 388.93143 278.200803 
L 389.576962 274.360801 
L 390.335462 268.886755 
L 393.530845 239.616953 
L 393.95044 233.734397 
L 394.031132 230.956523 
L 394.1441 282.490167 
L 394.208653 282.408465 
L 394.80577 280.611017 
L 395.322195 278.221229 
L 395.967727 274.381226 
L 396.742365 268.784628 
L 397.807493 259.858666 
L 399.211524 246.765893 
L 400.002301 238.779506 
L 400.341205 233.836524 
L 400.438035 230.200778 
L 400.551003 282.490167 
L 400.615556 282.388039 
L 401.196535 280.631443 
L 401.729099 278.180377 
L 403.278375 267.681648 
L 404.230534 259.613559 
L 405.97347 243.191423 
L 406.683555 234.919078 
L 406.8288 230.548012 
L 406.941768 282.490167 
L 407.006321 282.388039 
L 407.5873 280.651868 
L 408.894502 273.462077 
L 409.57231 268.478245 
L 410.589023 259.919942 
L 412.380373 243.06887 
L 413.07432 234.980355 
L 413.219565 230.813544 
L 413.332533 282.490167 
L 413.397086 282.408465 
L 413.994203 280.611017 
L 415.285266 273.502928 
L 415.963075 268.519096 
L 416.995926 259.83824 
L 418.771138 243.130146 
L 419.465085 235.082482 
L 419.61033 231.099502 
L 419.626468 230.078224 
L 419.739436 282.490167 
L 419.787851 282.408465 
L 420.64318 307.879116 
L 421.530787 327.548914 
L 422.547499 343.623816 
L 423.418967 353.244247 
L 423.999946 358.023824 
L 425.065073 364.069784 
L 425.516946 365.805956 
L 426.727318 368.583829 
L 427.324435 369.17617 
L 427.566509 369.278298 
L 427.74403 369.339574 
L 428.518669 369.237447 
L 428.760743 369.094468 
L 428.922126 368.99234 
L 429.341722 368.62468 
L 429.45469 368.522553 
L 431.036243 366.357445 
L 431.391285 365.744679 
L 431.746328 365.131913 
L 432.182062 364.314891 
L 432.456413 363.804252 
L 432.972838 362.782975 
L 433.214912 362.313188 
L 433.795891 361.128506 
L 434.021827 360.679144 
L 434.635082 359.412761 
L 434.84488 358.983824 
L 435.458135 357.717441 
L 435.684072 357.268079 
L 435.845455 356.920845 
L 435.845455 356.920845 
" style="fill:none;stroke:#ff0000;stroke-linecap:square;stroke-width:1.5;"/>
   </g>
   <g id="patch_3">
    <path d="M 63 384.48 
L 63 51.84 
" style="fill:none;stroke:#000000;stroke-linecap:square;stroke-linejoin:miter;stroke-width:0.8;"/>
   </g>
   <g id="patch_4">
    <path d="M 453.6 384.48 
L 453.6 51.84 
" style="fill:none;stroke:#000000;stroke-linecap:square;stroke-linejoin:miter;stroke-width:0.8;"/>
   </g>
   <g id="patch_5">
    <path d="M 63 384.48 
L 453.6 384.48 
" style="fill:none;stroke:#000000;stroke-linecap:square;stroke-linejoin:miter;stroke-width:0.8;"/>
   </g>
   <g id="patch_6">
    <path d="M 63 51.84 
L 453.6 51.84 
" style="fill:none;stroke:#000000;stroke-linecap:square;stroke-linejoin:miter;stroke-width:0.8;"/>
   </g>
   <g id="legend_1">
    <g id="patch_7">
     <path d="M 70 89.19625 
L 133.139062 89.19625 
Q 135.139062 89.19625 135.139062 87.19625 
L 135.139062 58.84 
Q 135.139062 56.84 133.139062 56.84 
L 70 56.84 
Q 68 56.84 68 58.84 
L 68 87.19625 
Q 68 89.19625 70 89.19625 
z
" style="fill:#ffffff;opacity:0.8;stroke:#cccccc;stroke-linejoin:miter;"/>
    </g>
    <g id="line2d_17">
     <path d="M 72 64.938437 
L 92 64.938437 
" style="fill:none;stroke:#1f77b4;stroke-linecap:square;stroke-width:1.5;"/>
    </g>
    <g id="line2d_18"/>
    <g id="text_17">
     <!-- target -->
     <defs>
      <path d="M 41.109375 46.296875 
Q 39.59375 47.171875 37.8125 47.578125 
Q 36.03125 48 33.890625 48 
Q 26.265625 48 22.1875 43.046875 
Q 18.109375 38.09375 18.109375 28.8125 
L 18.109375 0 
L 9.078125 0 
L 9.078125 54.6875 
L 18.109375 54.6875 
L 18.109375 46.1875 
Q 20.953125 51.171875 25.484375 53.578125 
Q 30.03125 56 36.53125 56 
Q 37.453125 56 38.578125 55.875 
Q 39.703125 55.765625 41.0625 55.515625 
z
" id="DejaVuSans-114"/>
     </defs>
     <g transform="translate(100 68.438437)scale(0.1 -0.1)">
      <use xlink:href="#DejaVuSans-116"/>
      <use x="39.208984" xlink:href="#DejaVuSans-97"/>
      <use x="100.488281" xlink:href="#DejaVuSans-114"/>
      <use x="141.585938" xlink:href="#DejaVuSans-103"/>
      <use x="205.0625" xlink:href="#DejaVuSans-101"/>
      <use x="266.585938" xlink:href="#DejaVuSans-116"/>
     </g>
    </g>
    <g id="line2d_19">
     <path d="M 72 79.616562 
L 92 79.616562 
" style="fill:none;stroke:#ff0000;stroke-linecap:square;stroke-width:1.5;"/>
    </g>
    <g id="line2d_20"/>
    <g id="text_18">
     <!-- model -->
     <defs>
      <path d="M 45.40625 46.390625 
L 45.40625 75.984375 
L 54.390625 75.984375 
L 54.390625 0 
L 45.40625 0 
L 45.40625 8.203125 
Q 42.578125 3.328125 38.25 0.953125 
Q 33.9375 -1.421875 27.875 -1.421875 
Q 17.96875 -1.421875 11.734375 6.484375 
Q 5.515625 14.40625 5.515625 27.296875 
Q 5.515625 40.1875 11.734375 48.09375 
Q 17.96875 56 27.875 56 
Q 33.9375 56 38.25 53.625 
Q 42.578125 51.265625 45.40625 46.390625 
z
M 14.796875 27.296875 
Q 14.796875 17.390625 18.875 11.75 
Q 22.953125 6.109375 30.078125 6.109375 
Q 37.203125 6.109375 41.296875 11.75 
Q 45.40625 17.390625 45.40625 27.296875 
Q 45.40625 37.203125 41.296875 42.84375 
Q 37.203125 48.484375 30.078125 48.484375 
Q 22.953125 48.484375 18.875 42.84375 
Q 14.796875 37.203125 14.796875 27.296875 
z
" id="DejaVuSans-100"/>
     </defs>
     <g transform="translate(100 83.116562)scale(0.1 -0.1)">
      <use xlink:href="#DejaVuSans-109"/>
      <use x="97.412109" xlink:href="#DejaVuSans-111"/>
      <use x="158.59375" xlink:href="#DejaVuSans-100"/>
      <use x="222.070312" xlink:href="#DejaVuSans-101"/>
      <use x="283.59375" xlink:href="#DejaVuSans-108"/>
     </g>
    </g>
   </g>
  </g>
 </g>
 <defs>
  <clipPath id="p0e8c69f0c3">
   <rect height="332.64" width="390.6" x="63" y="51.84"/>
  </clipPath>
 </defs>
</svg>
