<?xml version="1.0" encoding="utf-8" standalone="no"?>
<!DOCTYPE svg PUBLIC "-//W3C//DTD SVG 1.1//EN"
  "http://www.w3.org/Graphics/SVG/1.1/DTD/svg11.dtd">
<!-- Created with matplotlib (https://matplotlib.org/) -->
<svg height="432pt" version="1.1" viewBox="0 0 504 432" width="504pt" xmlns="http://www.w3.org/2000/svg" xmlns:xlink="http://www.w3.org/1999/xlink">
 <defs>
  <style type="text/css">
*{stroke-linecap:butt;stroke-linejoin:round;}
  </style>
 </defs>
 <g id="figure_1">
  <g id="patch_1">
   <path d="M 0 432 
L 504 432 
L 504 0 
L 0 0 
z
" style="fill:#ffffff;"/>
  </g>
  <g id="axes_1">
   <g id="patch_2">
    <path d="M 63 384.48 
L 453.6 384.48 
L 453.6 51.84 
L 63 51.84 
z
" style="fill:#ffffff;"/>
   </g>
   <g id="matplotlib.axis_1">
    <g id="xtick_1">
     <g id="line2d_1">
      <defs>
       <path d="M 0 0 
L 0 3.5 
" id="m5bccccddcf" style="stroke:#000000;stroke-width:0.8;"/>
      </defs>
      <g>
       <use style="stroke:#000000;stroke-width:0.8;" x="80.754545" xlink:href="#m5bccccddcf" y="384.48"/>
      </g>
     </g>
     <g id="text_1">
      <!-- 0 -->
      <defs>
       <path d="M 31.78125 66.40625 
Q 24.171875 66.40625 20.328125 58.90625 
Q 16.5 51.421875 16.5 36.375 
Q 16.5 21.390625 20.328125 13.890625 
Q 24.171875 6.390625 31.78125 6.390625 
Q 39.453125 6.390625 43.28125 13.890625 
Q 47.125 21.390625 47.125 36.375 
Q 47.125 51.421875 43.28125 58.90625 
Q 39.453125 66.40625 31.78125 66.40625 
z
M 31.78125 74.21875 
Q 44.046875 74.21875 50.515625 64.515625 
Q 56.984375 54.828125 56.984375 36.375 
Q 56.984375 17.96875 50.515625 8.265625 
Q 44.046875 -1.421875 31.78125 -1.421875 
Q 19.53125 -1.421875 13.0625 8.265625 
Q 6.59375 17.96875 6.59375 36.375 
Q 6.59375 54.828125 13.0625 64.515625 
Q 19.53125 74.21875 31.78125 74.21875 
z
" id="DejaVuSans-48"/>
      </defs>
      <g transform="translate(77.573295 399.078438)scale(0.1 -0.1)">
       <use xlink:href="#DejaVuSans-48"/>
      </g>
     </g>
    </g>
    <g id="xtick_2">
     <g id="line2d_2">
      <g>
       <use style="stroke:#000000;stroke-width:0.8;" x="151.763044" xlink:href="#m5bccccddcf" y="384.48"/>
      </g>
     </g>
     <g id="text_2">
      <!-- 880 -->
      <defs>
       <path d="M 31.78125 34.625 
Q 24.75 34.625 20.71875 30.859375 
Q 16.703125 27.09375 16.703125 20.515625 
Q 16.703125 13.921875 20.71875 10.15625 
Q 24.75 6.390625 31.78125 6.390625 
Q 38.8125 6.390625 42.859375 10.171875 
Q 46.921875 13.96875 46.921875 20.515625 
Q 46.921875 27.09375 42.890625 30.859375 
Q 38.875 34.625 31.78125 34.625 
z
M 21.921875 38.8125 
Q 15.578125 40.375 12.03125 44.71875 
Q 8.5 49.078125 8.5 55.328125 
Q 8.5 64.0625 14.71875 69.140625 
Q 20.953125 74.21875 31.78125 74.21875 
Q 42.671875 74.21875 48.875 69.140625 
Q 55.078125 64.0625 55.078125 55.328125 
Q 55.078125 49.078125 51.53125 44.71875 
Q 48 40.375 41.703125 38.8125 
Q 48.828125 37.15625 52.796875 32.3125 
Q 56.78125 27.484375 56.78125 20.515625 
Q 56.78125 9.90625 50.3125 4.234375 
Q 43.84375 -1.421875 31.78125 -1.421875 
Q 19.734375 -1.421875 13.25 4.234375 
Q 6.78125 9.90625 6.78125 20.515625 
Q 6.78125 27.484375 10.78125 32.3125 
Q 14.796875 37.15625 21.921875 38.8125 
z
M 18.3125 54.390625 
Q 18.3125 48.734375 21.84375 45.5625 
Q 25.390625 42.390625 31.78125 42.390625 
Q 38.140625 42.390625 41.71875 45.5625 
Q 45.3125 48.734375 45.3125 54.390625 
Q 45.3125 60.0625 41.71875 63.234375 
Q 38.140625 66.40625 31.78125 66.40625 
Q 25.390625 66.40625 21.84375 63.234375 
Q 18.3125 60.0625 18.3125 54.390625 
z
" id="DejaVuSans-56"/>
      </defs>
      <g transform="translate(142.219294 399.078438)scale(0.1 -0.1)">
       <use xlink:href="#DejaVuSans-56"/>
       <use x="63.623047" xlink:href="#DejaVuSans-56"/>
       <use x="127.246094" xlink:href="#DejaVuSans-48"/>
      </g>
     </g>
    </g>
    <g id="xtick_3">
     <g id="line2d_3">
      <g>
       <use style="stroke:#000000;stroke-width:0.8;" x="222.771543" xlink:href="#m5bccccddcf" y="384.48"/>
      </g>
     </g>
     <g id="text_3">
      <!-- 1760 -->
      <defs>
       <path d="M 12.40625 8.296875 
L 28.515625 8.296875 
L 28.515625 63.921875 
L 10.984375 60.40625 
L 10.984375 69.390625 
L 28.421875 72.90625 
L 38.28125 72.90625 
L 38.28125 8.296875 
L 54.390625 8.296875 
L 54.390625 0 
L 12.40625 0 
z
" id="DejaVuSans-49"/>
       <path d="M 8.203125 72.90625 
L 55.078125 72.90625 
L 55.078125 68.703125 
L 28.609375 0 
L 18.3125 0 
L 43.21875 64.59375 
L 8.203125 64.59375 
z
" id="DejaVuSans-55"/>
       <path d="M 33.015625 40.375 
Q 26.375 40.375 22.484375 35.828125 
Q 18.609375 31.296875 18.609375 23.390625 
Q 18.609375 15.53125 22.484375 10.953125 
Q 26.375 6.390625 33.015625 6.390625 
Q 39.65625 6.390625 43.53125 10.953125 
Q 47.40625 15.53125 47.40625 23.390625 
Q 47.40625 31.296875 43.53125 35.828125 
Q 39.65625 40.375 33.015625 40.375 
z
M 52.59375 71.296875 
L 52.59375 62.3125 
Q 48.875 64.0625 45.09375 64.984375 
Q 41.3125 65.921875 37.59375 65.921875 
Q 27.828125 65.921875 22.671875 59.328125 
Q 17.53125 52.734375 16.796875 39.40625 
Q 19.671875 43.65625 24.015625 45.921875 
Q 28.375 48.1875 33.59375 48.1875 
Q 44.578125 48.1875 50.953125 41.515625 
Q 57.328125 34.859375 57.328125 23.390625 
Q 57.328125 12.15625 50.6875 5.359375 
Q 44.046875 -1.421875 33.015625 -1.421875 
Q 20.359375 -1.421875 13.671875 8.265625 
Q 6.984375 17.96875 6.984375 36.375 
Q 6.984375 53.65625 15.1875 63.9375 
Q 23.390625 74.21875 37.203125 74.21875 
Q 40.921875 74.21875 44.703125 73.484375 
Q 48.484375 72.75 52.59375 71.296875 
z
" id="DejaVuSans-54"/>
      </defs>
      <g transform="translate(210.046543 399.078438)scale(0.1 -0.1)">
       <use xlink:href="#DejaVuSans-49"/>
       <use x="63.623047" xlink:href="#DejaVuSans-55"/>
       <use x="127.246094" xlink:href="#DejaVuSans-54"/>
       <use x="190.869141" xlink:href="#DejaVuSans-48"/>
      </g>
     </g>
    </g>
    <g id="xtick_4">
     <g id="line2d_4">
      <g>
       <use style="stroke:#000000;stroke-width:0.8;" x="293.780042" xlink:href="#m5bccccddcf" y="384.48"/>
      </g>
     </g>
     <g id="text_4">
      <!-- 2640 -->
      <defs>
       <path d="M 19.1875 8.296875 
L 53.609375 8.296875 
L 53.609375 0 
L 7.328125 0 
L 7.328125 8.296875 
Q 12.9375 14.109375 22.625 23.890625 
Q 32.328125 33.6875 34.8125 36.53125 
Q 39.546875 41.84375 41.421875 45.53125 
Q 43.3125 49.21875 43.3125 52.78125 
Q 43.3125 58.59375 39.234375 62.25 
Q 35.15625 65.921875 28.609375 65.921875 
Q 23.96875 65.921875 18.8125 64.3125 
Q 13.671875 62.703125 7.8125 59.421875 
L 7.8125 69.390625 
Q 13.765625 71.78125 18.9375 73 
Q 24.125 74.21875 28.421875 74.21875 
Q 39.75 74.21875 46.484375 68.546875 
Q 53.21875 62.890625 53.21875 53.421875 
Q 53.21875 48.921875 51.53125 44.890625 
Q 49.859375 40.875 45.40625 35.40625 
Q 44.1875 33.984375 37.640625 27.21875 
Q 31.109375 20.453125 19.1875 8.296875 
z
" id="DejaVuSans-50"/>
       <path d="M 37.796875 64.3125 
L 12.890625 25.390625 
L 37.796875 25.390625 
z
M 35.203125 72.90625 
L 47.609375 72.90625 
L 47.609375 25.390625 
L 58.015625 25.390625 
L 58.015625 17.1875 
L 47.609375 17.1875 
L 47.609375 0 
L 37.796875 0 
L 37.796875 17.1875 
L 4.890625 17.1875 
L 4.890625 26.703125 
z
" id="DejaVuSans-52"/>
      </defs>
      <g transform="translate(281.055042 399.078438)scale(0.1 -0.1)">
       <use xlink:href="#DejaVuSans-50"/>
       <use x="63.623047" xlink:href="#DejaVuSans-54"/>
       <use x="127.246094" xlink:href="#DejaVuSans-52"/>
       <use x="190.869141" xlink:href="#DejaVuSans-48"/>
      </g>
     </g>
    </g>
    <g id="xtick_5">
     <g id="line2d_5">
      <g>
       <use style="stroke:#000000;stroke-width:0.8;" x="364.788541" xlink:href="#m5bccccddcf" y="384.48"/>
      </g>
     </g>
     <g id="text_5">
      <!-- 3520 -->
      <defs>
       <path d="M 40.578125 39.3125 
Q 47.65625 37.796875 51.625 33 
Q 55.609375 28.21875 55.609375 21.1875 
Q 55.609375 10.40625 48.1875 4.484375 
Q 40.765625 -1.421875 27.09375 -1.421875 
Q 22.515625 -1.421875 17.65625 -0.515625 
Q 12.796875 0.390625 7.625 2.203125 
L 7.625 11.71875 
Q 11.71875 9.328125 16.59375 8.109375 
Q 21.484375 6.890625 26.8125 6.890625 
Q 36.078125 6.890625 40.9375 10.546875 
Q 45.796875 14.203125 45.796875 21.1875 
Q 45.796875 27.640625 41.28125 31.265625 
Q 36.765625 34.90625 28.71875 34.90625 
L 20.21875 34.90625 
L 20.21875 43.015625 
L 29.109375 43.015625 
Q 36.375 43.015625 40.234375 45.921875 
Q 44.09375 48.828125 44.09375 54.296875 
Q 44.09375 59.90625 40.109375 62.90625 
Q 36.140625 65.921875 28.71875 65.921875 
Q 24.65625 65.921875 20.015625 65.03125 
Q 15.375 64.15625 9.8125 62.3125 
L 9.8125 71.09375 
Q 15.4375 72.65625 20.34375 73.4375 
Q 25.25 74.21875 29.59375 74.21875 
Q 40.828125 74.21875 47.359375 69.109375 
Q 53.90625 64.015625 53.90625 55.328125 
Q 53.90625 49.265625 50.4375 45.09375 
Q 46.96875 40.921875 40.578125 39.3125 
z
" id="DejaVuSans-51"/>
       <path d="M 10.796875 72.90625 
L 49.515625 72.90625 
L 49.515625 64.59375 
L 19.828125 64.59375 
L 19.828125 46.734375 
Q 21.96875 47.46875 24.109375 47.828125 
Q 26.265625 48.1875 28.421875 48.1875 
Q 40.625 48.1875 47.75 41.5 
Q 54.890625 34.8125 54.890625 23.390625 
Q 54.890625 11.625 47.5625 5.09375 
Q 40.234375 -1.421875 26.90625 -1.421875 
Q 22.3125 -1.421875 17.546875 -0.640625 
Q 12.796875 0.140625 7.71875 1.703125 
L 7.71875 11.625 
Q 12.109375 9.234375 16.796875 8.0625 
Q 21.484375 6.890625 26.703125 6.890625 
Q 35.15625 6.890625 40.078125 11.328125 
Q 45.015625 15.765625 45.015625 23.390625 
Q 45.015625 31 40.078125 35.4375 
Q 35.15625 39.890625 26.703125 39.890625 
Q 22.75 39.890625 18.8125 39.015625 
Q 14.890625 38.140625 10.796875 36.28125 
z
" id="DejaVuSans-53"/>
      </defs>
      <g transform="translate(352.063541 399.078438)scale(0.1 -0.1)">
       <use xlink:href="#DejaVuSans-51"/>
       <use x="63.623047" xlink:href="#DejaVuSans-53"/>
       <use x="127.246094" xlink:href="#DejaVuSans-50"/>
       <use x="190.869141" xlink:href="#DejaVuSans-48"/>
      </g>
     </g>
    </g>
    <g id="text_6">
     <!-- time [ms] -->
     <defs>
      <path d="M 18.3125 70.21875 
L 18.3125 54.6875 
L 36.8125 54.6875 
L 36.8125 47.703125 
L 18.3125 47.703125 
L 18.3125 18.015625 
Q 18.3125 11.328125 20.140625 9.421875 
Q 21.96875 7.515625 27.59375 7.515625 
L 36.8125 7.515625 
L 36.8125 0 
L 27.59375 0 
Q 17.1875 0 13.234375 3.875 
Q 9.28125 7.765625 9.28125 18.015625 
L 9.28125 47.703125 
L 2.6875 47.703125 
L 2.6875 54.6875 
L 9.28125 54.6875 
L 9.28125 70.21875 
z
" id="DejaVuSans-116"/>
      <path d="M 9.421875 54.6875 
L 18.40625 54.6875 
L 18.40625 0 
L 9.421875 0 
z
M 9.421875 75.984375 
L 18.40625 75.984375 
L 18.40625 64.59375 
L 9.421875 64.59375 
z
" id="DejaVuSans-105"/>
      <path d="M 52 44.1875 
Q 55.375 50.25 60.0625 53.125 
Q 64.75 56 71.09375 56 
Q 79.640625 56 84.28125 50.015625 
Q 88.921875 44.046875 88.921875 33.015625 
L 88.921875 0 
L 79.890625 0 
L 79.890625 32.71875 
Q 79.890625 40.578125 77.09375 44.375 
Q 74.3125 48.1875 68.609375 48.1875 
Q 61.625 48.1875 57.5625 43.546875 
Q 53.515625 38.921875 53.515625 30.90625 
L 53.515625 0 
L 44.484375 0 
L 44.484375 32.71875 
Q 44.484375 40.625 41.703125 44.40625 
Q 38.921875 48.1875 33.109375 48.1875 
Q 26.21875 48.1875 22.15625 43.53125 
Q 18.109375 38.875 18.109375 30.90625 
L 18.109375 0 
L 9.078125 0 
L 9.078125 54.6875 
L 18.109375 54.6875 
L 18.109375 46.1875 
Q 21.1875 51.21875 25.484375 53.609375 
Q 29.78125 56 35.6875 56 
Q 41.65625 56 45.828125 52.96875 
Q 50 49.953125 52 44.1875 
z
" id="DejaVuSans-109"/>
      <path d="M 56.203125 29.59375 
L 56.203125 25.203125 
L 14.890625 25.203125 
Q 15.484375 15.921875 20.484375 11.0625 
Q 25.484375 6.203125 34.421875 6.203125 
Q 39.59375 6.203125 44.453125 7.46875 
Q 49.3125 8.734375 54.109375 11.28125 
L 54.109375 2.78125 
Q 49.265625 0.734375 44.1875 -0.34375 
Q 39.109375 -1.421875 33.890625 -1.421875 
Q 20.796875 -1.421875 13.15625 6.1875 
Q 5.515625 13.8125 5.515625 26.8125 
Q 5.515625 40.234375 12.765625 48.109375 
Q 20.015625 56 32.328125 56 
Q 43.359375 56 49.78125 48.890625 
Q 56.203125 41.796875 56.203125 29.59375 
z
M 47.21875 32.234375 
Q 47.125 39.59375 43.09375 43.984375 
Q 39.0625 48.390625 32.421875 48.390625 
Q 24.90625 48.390625 20.390625 44.140625 
Q 15.875 39.890625 15.1875 32.171875 
z
" id="DejaVuSans-101"/>
      <path id="DejaVuSans-32"/>
      <path d="M 8.59375 75.984375 
L 29.296875 75.984375 
L 29.296875 69 
L 17.578125 69 
L 17.578125 -6.203125 
L 29.296875 -6.203125 
L 29.296875 -13.1875 
L 8.59375 -13.1875 
z
" id="DejaVuSans-91"/>
      <path d="M 44.28125 53.078125 
L 44.28125 44.578125 
Q 40.484375 46.53125 36.375 47.5 
Q 32.28125 48.484375 27.875 48.484375 
Q 21.1875 48.484375 17.84375 46.4375 
Q 14.5 44.390625 14.5 40.28125 
Q 14.5 37.15625 16.890625 35.375 
Q 19.28125 33.59375 26.515625 31.984375 
L 29.59375 31.296875 
Q 39.15625 29.25 43.1875 25.515625 
Q 47.21875 21.78125 47.21875 15.09375 
Q 47.21875 7.46875 41.1875 3.015625 
Q 35.15625 -1.421875 24.609375 -1.421875 
Q 20.21875 -1.421875 15.453125 -0.5625 
Q 10.6875 0.296875 5.421875 2 
L 5.421875 11.28125 
Q 10.40625 8.6875 15.234375 7.390625 
Q 20.0625 6.109375 24.8125 6.109375 
Q 31.15625 6.109375 34.5625 8.28125 
Q 37.984375 10.453125 37.984375 14.40625 
Q 37.984375 18.0625 35.515625 20.015625 
Q 33.0625 21.96875 24.703125 23.78125 
L 21.578125 24.515625 
Q 13.234375 26.265625 9.515625 29.90625 
Q 5.8125 33.546875 5.8125 39.890625 
Q 5.8125 47.609375 11.28125 51.796875 
Q 16.75 56 26.8125 56 
Q 31.78125 56 36.171875 55.265625 
Q 40.578125 54.546875 44.28125 53.078125 
z
" id="DejaVuSans-115"/>
      <path d="M 30.421875 75.984375 
L 30.421875 -13.1875 
L 9.71875 -13.1875 
L 9.71875 -6.203125 
L 21.390625 -6.203125 
L 21.390625 69 
L 9.71875 69 
L 9.71875 75.984375 
z
" id="DejaVuSans-93"/>
     </defs>
     <g transform="translate(234.038281 412.756563)scale(0.1 -0.1)">
      <use xlink:href="#DejaVuSans-116"/>
      <use x="39.208984" xlink:href="#DejaVuSans-105"/>
      <use x="66.992188" xlink:href="#DejaVuSans-109"/>
      <use x="164.404297" xlink:href="#DejaVuSans-101"/>
      <use x="225.927734" xlink:href="#DejaVuSans-32"/>
      <use x="257.714844" xlink:href="#DejaVuSans-91"/>
      <use x="296.728516" xlink:href="#DejaVuSans-109"/>
      <use x="394.140625" xlink:href="#DejaVuSans-115"/>
      <use x="446.240234" xlink:href="#DejaVuSans-93"/>
     </g>
    </g>
   </g>
   <g id="matplotlib.axis_2">
    <g id="ytick_1">
     <g id="line2d_6">
      <defs>
       <path d="M 0 0 
L -3.5 0 
" id="m10bd75f015" style="stroke:#000000;stroke-width:0.8;"/>
      </defs>
      <g>
       <use style="stroke:#000000;stroke-width:0.8;" x="63" xlink:href="#m10bd75f015" y="377.512456"/>
      </g>
     </g>
     <g id="text_7">
      <!-- −100 -->
      <defs>
       <path d="M 10.59375 35.5 
L 73.1875 35.5 
L 73.1875 27.203125 
L 10.59375 27.203125 
z
" id="DejaVuSans-8722"/>
      </defs>
      <g transform="translate(28.532812 381.311674)scale(0.1 -0.1)">
       <use xlink:href="#DejaVuSans-8722"/>
       <use x="83.789062" xlink:href="#DejaVuSans-49"/>
       <use x="147.412109" xlink:href="#DejaVuSans-48"/>
       <use x="211.035156" xlink:href="#DejaVuSans-48"/>
      </g>
     </g>
    </g>
    <g id="ytick_2">
     <g id="line2d_7">
      <g>
       <use style="stroke:#000000;stroke-width:0.8;" x="63" xlink:href="#m10bd75f015" y="337.549438"/>
      </g>
     </g>
     <g id="text_8">
      <!-- −80 -->
      <g transform="translate(34.895313 341.348657)scale(0.1 -0.1)">
       <use xlink:href="#DejaVuSans-8722"/>
       <use x="83.789062" xlink:href="#DejaVuSans-56"/>
       <use x="147.412109" xlink:href="#DejaVuSans-48"/>
      </g>
     </g>
    </g>
    <g id="ytick_3">
     <g id="line2d_8">
      <g>
       <use style="stroke:#000000;stroke-width:0.8;" x="63" xlink:href="#m10bd75f015" y="297.58642"/>
      </g>
     </g>
     <g id="text_9">
      <!-- −60 -->
      <g transform="translate(34.895313 301.385639)scale(0.1 -0.1)">
       <use xlink:href="#DejaVuSans-8722"/>
       <use x="83.789062" xlink:href="#DejaVuSans-54"/>
       <use x="147.412109" xlink:href="#DejaVuSans-48"/>
      </g>
     </g>
    </g>
    <g id="ytick_4">
     <g id="line2d_9">
      <g>
       <use style="stroke:#000000;stroke-width:0.8;" x="63" xlink:href="#m10bd75f015" y="257.623402"/>
      </g>
     </g>
     <g id="text_10">
      <!-- −40 -->
      <g transform="translate(34.895313 261.422621)scale(0.1 -0.1)">
       <use xlink:href="#DejaVuSans-8722"/>
       <use x="83.789062" xlink:href="#DejaVuSans-52"/>
       <use x="147.412109" xlink:href="#DejaVuSans-48"/>
      </g>
     </g>
    </g>
    <g id="ytick_5">
     <g id="line2d_10">
      <g>
       <use style="stroke:#000000;stroke-width:0.8;" x="63" xlink:href="#m10bd75f015" y="217.660384"/>
      </g>
     </g>
     <g id="text_11">
      <!-- −20 -->
      <g transform="translate(34.895313 221.459603)scale(0.1 -0.1)">
       <use xlink:href="#DejaVuSans-8722"/>
       <use x="83.789062" xlink:href="#DejaVuSans-50"/>
       <use x="147.412109" xlink:href="#DejaVuSans-48"/>
      </g>
     </g>
    </g>
    <g id="ytick_6">
     <g id="line2d_11">
      <g>
       <use style="stroke:#000000;stroke-width:0.8;" x="63" xlink:href="#m10bd75f015" y="177.697366"/>
      </g>
     </g>
     <g id="text_12">
      <!-- 0 -->
      <g transform="translate(49.6375 181.496585)scale(0.1 -0.1)">
       <use xlink:href="#DejaVuSans-48"/>
      </g>
     </g>
    </g>
    <g id="ytick_7">
     <g id="line2d_12">
      <g>
       <use style="stroke:#000000;stroke-width:0.8;" x="63" xlink:href="#m10bd75f015" y="137.734349"/>
      </g>
     </g>
     <g id="text_13">
      <!-- 20 -->
      <g transform="translate(43.275 141.533567)scale(0.1 -0.1)">
       <use xlink:href="#DejaVuSans-50"/>
       <use x="63.623047" xlink:href="#DejaVuSans-48"/>
      </g>
     </g>
    </g>
    <g id="ytick_8">
     <g id="line2d_13">
      <g>
       <use style="stroke:#000000;stroke-width:0.8;" x="63" xlink:href="#m10bd75f015" y="97.771331"/>
      </g>
     </g>
     <g id="text_14">
      <!-- 40 -->
      <g transform="translate(43.275 101.570549)scale(0.1 -0.1)">
       <use xlink:href="#DejaVuSans-52"/>
       <use x="63.623047" xlink:href="#DejaVuSans-48"/>
      </g>
     </g>
    </g>
    <g id="ytick_9">
     <g id="line2d_14">
      <g>
       <use style="stroke:#000000;stroke-width:0.8;" x="63" xlink:href="#m10bd75f015" y="57.808313"/>
      </g>
     </g>
     <g id="text_15">
      <!-- 60 -->
      <g transform="translate(43.275 61.607532)scale(0.1 -0.1)">
       <use xlink:href="#DejaVuSans-54"/>
       <use x="63.623047" xlink:href="#DejaVuSans-48"/>
      </g>
     </g>
    </g>
    <g id="text_16">
     <!-- voltage [mV] -->
     <defs>
      <path d="M 2.984375 54.6875 
L 12.5 54.6875 
L 29.59375 8.796875 
L 46.6875 54.6875 
L 56.203125 54.6875 
L 35.6875 0 
L 23.484375 0 
z
" id="DejaVuSans-118"/>
      <path d="M 30.609375 48.390625 
Q 23.390625 48.390625 19.1875 42.75 
Q 14.984375 37.109375 14.984375 27.296875 
Q 14.984375 17.484375 19.15625 11.84375 
Q 23.34375 6.203125 30.609375 6.203125 
Q 37.796875 6.203125 41.984375 11.859375 
Q 46.1875 17.53125 46.1875 27.296875 
Q 46.1875 37.015625 41.984375 42.703125 
Q 37.796875 48.390625 30.609375 48.390625 
z
M 30.609375 56 
Q 42.328125 56 49.015625 48.375 
Q 55.71875 40.765625 55.71875 27.296875 
Q 55.71875 13.875 49.015625 6.21875 
Q 42.328125 -1.421875 30.609375 -1.421875 
Q 18.84375 -1.421875 12.171875 6.21875 
Q 5.515625 13.875 5.515625 27.296875 
Q 5.515625 40.765625 12.171875 48.375 
Q 18.84375 56 30.609375 56 
z
" id="DejaVuSans-111"/>
      <path d="M 9.421875 75.984375 
L 18.40625 75.984375 
L 18.40625 0 
L 9.421875 0 
z
" id="DejaVuSans-108"/>
      <path d="M 34.28125 27.484375 
Q 23.390625 27.484375 19.1875 25 
Q 14.984375 22.515625 14.984375 16.5 
Q 14.984375 11.71875 18.140625 8.90625 
Q 21.296875 6.109375 26.703125 6.109375 
Q 34.1875 6.109375 38.703125 11.40625 
Q 43.21875 16.703125 43.21875 25.484375 
L 43.21875 27.484375 
z
M 52.203125 31.203125 
L 52.203125 0 
L 43.21875 0 
L 43.21875 8.296875 
Q 40.140625 3.328125 35.546875 0.953125 
Q 30.953125 -1.421875 24.3125 -1.421875 
Q 15.921875 -1.421875 10.953125 3.296875 
Q 6 8.015625 6 15.921875 
Q 6 25.140625 12.171875 29.828125 
Q 18.359375 34.515625 30.609375 34.515625 
L 43.21875 34.515625 
L 43.21875 35.40625 
Q 43.21875 41.609375 39.140625 45 
Q 35.0625 48.390625 27.6875 48.390625 
Q 23 48.390625 18.546875 47.265625 
Q 14.109375 46.140625 10.015625 43.890625 
L 10.015625 52.203125 
Q 14.9375 54.109375 19.578125 55.046875 
Q 24.21875 56 28.609375 56 
Q 40.484375 56 46.34375 49.84375 
Q 52.203125 43.703125 52.203125 31.203125 
z
" id="DejaVuSans-97"/>
      <path d="M 45.40625 27.984375 
Q 45.40625 37.75 41.375 43.109375 
Q 37.359375 48.484375 30.078125 48.484375 
Q 22.859375 48.484375 18.828125 43.109375 
Q 14.796875 37.75 14.796875 27.984375 
Q 14.796875 18.265625 18.828125 12.890625 
Q 22.859375 7.515625 30.078125 7.515625 
Q 37.359375 7.515625 41.375 12.890625 
Q 45.40625 18.265625 45.40625 27.984375 
z
M 54.390625 6.78125 
Q 54.390625 -7.171875 48.1875 -13.984375 
Q 42 -20.796875 29.203125 -20.796875 
Q 24.46875 -20.796875 20.265625 -20.09375 
Q 16.0625 -19.390625 12.109375 -17.921875 
L 12.109375 -9.1875 
Q 16.0625 -11.328125 19.921875 -12.34375 
Q 23.78125 -13.375 27.78125 -13.375 
Q 36.625 -13.375 41.015625 -8.765625 
Q 45.40625 -4.15625 45.40625 5.171875 
L 45.40625 9.625 
Q 42.625 4.78125 38.28125 2.390625 
Q 33.9375 0 27.875 0 
Q 17.828125 0 11.671875 7.65625 
Q 5.515625 15.328125 5.515625 27.984375 
Q 5.515625 40.671875 11.671875 48.328125 
Q 17.828125 56 27.875 56 
Q 33.9375 56 38.28125 53.609375 
Q 42.625 51.21875 45.40625 46.390625 
L 45.40625 54.6875 
L 54.390625 54.6875 
z
" id="DejaVuSans-103"/>
      <path d="M 28.609375 0 
L 0.78125 72.90625 
L 11.078125 72.90625 
L 34.1875 11.53125 
L 57.328125 72.90625 
L 67.578125 72.90625 
L 39.796875 0 
z
" id="DejaVuSans-86"/>
     </defs>
     <g transform="translate(22.453125 250.624062)rotate(-90)scale(0.1 -0.1)">
      <use xlink:href="#DejaVuSans-118"/>
      <use x="59.179688" xlink:href="#DejaVuSans-111"/>
      <use x="120.361328" xlink:href="#DejaVuSans-108"/>
      <use x="148.144531" xlink:href="#DejaVuSans-116"/>
      <use x="187.353516" xlink:href="#DejaVuSans-97"/>
      <use x="248.632812" xlink:href="#DejaVuSans-103"/>
      <use x="312.109375" xlink:href="#DejaVuSans-101"/>
      <use x="373.632812" xlink:href="#DejaVuSans-32"/>
      <use x="405.419922" xlink:href="#DejaVuSans-91"/>
      <use x="444.433594" xlink:href="#DejaVuSans-109"/>
      <use x="541.845703" xlink:href="#DejaVuSans-86"/>
      <use x="610.253906" xlink:href="#DejaVuSans-93"/>
     </g>
    </g>
   </g>
   <g id="line2d_15">
    <path clip-path="url(#p2ad9c17cff)" d="M 80.754545 294.581388 
L 83.385088 294.483822 
L 83.417364 294.386256 
L 83.465779 294.581388 
L 83.481917 294.483822 
L 83.966066 294.386256 
L 84.062896 294.28869 
L 84.175864 294.386256 
L 84.547045 294.483822 
L 84.660013 294.581388 
L 84.96664 294.483822 
L 85.079609 294.386256 
L 85.337821 294.483822 
L 85.35396 294.581388 
L 85.402374 294.386256 
L 85.418513 294.386256 
L 86.322257 294.483822 
L 86.435225 294.581388 
L 87.419661 294.678954 
L 87.532629 294.77652 
L 87.581044 294.678954 
L 87.629459 294.77652 
L 88.694587 294.874086 
L 88.807555 294.971652 
L 88.85597 294.874086 
L 89.049629 283.751567 
L 89.501501 273.312009 
L 90.356831 259.75034 
L 91.196022 250.871838 
L 91.454235 248.725386 
L 91.777001 246.091105 
L 92.503224 242.286033 
L 92.535501 242.188467 
L 92.713022 241.700637 
L 92.745299 241.603071 
L 92.971235 240.822544 
L 93.01965 240.724978 
L 93.213309 240.139582 
L 93.358554 240.042016 
L 93.536075 239.554186 
L 93.600628 239.45662 
L 93.762011 239.066356 
L 93.858841 238.96879 
L 94.004086 238.676092 
L 94.213884 238.578526 
L 94.359128 238.285829 
L 95.133766 238.188263 
L 95.182181 238.090697 
L 95.230596 238.188263 
L 95.843851 238.090697 
L 95.989096 237.700433 
L 96.053649 237.797999 
L 96.085926 237.700433 
L 96.392553 237.602867 
L 96.505522 237.505301 
L 96.796011 237.602867 
L 97.005809 238.285829 
L 97.070362 238.383394 
L 97.215607 238.676092 
L 97.393128 238.578526 
L 97.425404 238.48096 
L 97.489958 238.578526 
L 97.845 238.48096 
L 97.974106 238.285829 
L 98.264596 238.383394 
L 98.296872 238.48096 
L 98.345287 238.383394 
L 98.458255 238.285829 
L 98.50667 238.383394 
L 98.538947 238.48096 
L 98.571223 238.285829 
L 98.6035 238.383394 
L 99.119925 238.285829 
L 99.249032 238.090697 
L 99.959117 237.993131 
L 100.055947 237.895565 
L 100.572372 240.43228 
L 100.620787 240.529846 
L 100.733755 240.724978 
L 100.862861 240.529846 
L 101.024244 240.43228 
L 101.153351 240.237148 
L 101.298595 240.139582 
L 101.44384 239.846884 
L 101.556808 239.749318 
L 101.685914 239.554186 
L 101.831159 239.45662 
L 101.847297 239.359054 
L 101.927989 239.45662 
L 102.10551 239.359054 
L 102.266893 238.96879 
L 102.363723 238.871224 
L 102.492829 238.676092 
L 102.993116 238.578526 
L 103.057669 238.285829 
L 103.106084 238.383394 
L 103.251329 238.676092 
L 103.380435 238.48096 
L 103.687063 238.383394 
L 103.783893 238.285829 
L 103.880722 238.383394 
L 103.993691 238.285829 
L 104.09052 238.188263 
L 104.18735 238.090697 
L 104.300318 238.188263 
L 104.38101 238.090697 
L 104.526254 237.700433 
L 104.574669 237.797999 
L 104.623084 237.700433 
L 104.897435 237.602867 
L 105.010403 237.505301 
L 105.236339 237.602867 
L 105.317031 237.700433 
L 105.333169 237.602867 
L 106.107807 237.505301 
L 106.123945 237.407735 
L 106.17236 237.602867 
L 106.204637 237.505301 
L 106.882445 237.602867 
L 106.995413 237.700433 
L 107.705498 237.602867 
L 107.737775 237.505301 
L 107.78619 237.700433 
L 108.383307 237.602867 
L 108.512413 237.407735 
L 108.576966 237.310169 
L 108.689934 237.212603 
L 109.254775 237.115037 
L 109.335466 237.017471 
L 109.351605 237.115037 
L 109.690509 237.017471 
L 109.819615 236.822339 
L 109.916445 236.919905 
L 110.013275 236.822339 
L 110.126243 236.919905 
L 110.5297 237.017471 
L 110.610392 237.115037 
L 110.62653 237.017471 
L 111.368891 237.115037 
L 111.497998 237.310169 
L 111.836902 237.407735 
L 111.85304 237.505301 
L 111.933732 237.407735 
L 112.256498 237.505301 
L 112.321051 237.407735 
L 112.369466 237.602867 
L 112.821338 237.700433 
L 112.837476 237.797999 
L 112.869753 237.602867 
L 112.902029 237.602867 
L 113.144104 237.700433 
L 113.289349 237.993131 
L 113.37004 238.090697 
L 113.499146 238.285829 
L 113.595976 238.383394 
L 113.644391 238.48096 
L 113.692806 238.383394 
L 113.789636 238.285829 
L 113.870327 238.188263 
L 113.886465 238.285829 
L 114.160817 238.383394 
L 114.257646 238.48096 
L 114.386753 238.188263 
L 114.419029 238.285829 
L 114.483582 238.188263 
L 114.580412 237.993131 
L 114.59655 238.090697 
L 114.806348 237.993131 
L 114.919316 237.895565 
L 115.35505 237.797999 
L 115.468018 237.700433 
L 115.758508 237.602867 
L 115.887614 237.407735 
L 116.161965 237.310169 
L 116.258795 237.115037 
L 116.274933 237.212603 
L 116.355625 237.115037 
L 116.468593 237.017471 
L 116.533146 236.919905 
L 116.662252 236.724773 
L 117.017295 236.822339 
L 117.033433 236.919905 
L 117.114125 236.822339 
L 117.259369 236.919905 
L 117.43689 237.407735 
L 117.469167 237.505301 
L 117.662827 238.090697 
L 117.711241 238.188263 
L 117.791933 238.383394 
L 117.82421 238.285829 
L 117.921039 238.383394 
L 118.034007 238.48096 
L 118.647263 238.383394 
L 118.760231 238.285829 
L 119.05072 238.188263 
L 119.131411 238.090697 
L 119.14755 238.188263 
L 119.518731 238.090697 
L 119.647837 237.895565 
L 119.80922 237.797999 
L 119.922188 237.700433 
L 120.099709 237.602867 
L 120.244954 237.310169 
L 120.438613 237.212603 
L 120.551581 237.115037 
L 120.664549 237.017471 
L 120.696826 236.919905 
L 120.745241 237.115037 
L 121.116422 237.212603 
L 121.22939 237.310169 
L 121.600571 237.212603 
L 121.729677 237.017471 
L 121.810368 236.919905 
L 121.939475 236.724773 
L 122.116996 236.627207 
L 122.213826 236.529641 
L 122.342932 236.724773 
L 122.778666 236.627207 
L 122.810943 236.529641 
L 122.875496 236.627207 
L 122.923911 236.724773 
L 122.972326 236.627207 
L 123.133709 236.724773 
L 123.262815 236.919905 
L 123.553304 237.017471 
L 123.682411 237.212603 
L 123.827655 236.919905 
L 123.924485 237.017471 
L 123.940623 237.115037 
L 124.005177 236.919905 
L 124.360219 236.822339 
L 124.473187 236.724773 
L 124.682985 236.822339 
L 124.812091 237.017471 
L 125.215549 237.115037 
L 125.328517 237.310169 
L 125.360793 237.407735 
L 125.441485 237.212603 
L 125.764251 237.115037 
L 125.780389 237.017471 
L 125.861081 237.115037 
L 126.038602 237.017471 
L 126.15157 236.919905 
L 126.329091 236.822339 
L 126.425921 236.724773 
L 126.538889 236.822339 
L 127.136006 236.724773 
L 127.152144 236.627207 
L 127.232836 236.724773 
L 127.248974 236.822339 
L 127.297389 236.627207 
L 127.313527 236.627207 
L 127.394219 236.724773 
L 127.442633 236.919905 
L 127.507187 236.822339 
L 127.523325 236.724773 
L 127.604016 236.822339 
L 127.975197 236.724773 
L 128.104304 236.529641 
L 128.217272 236.432075 
L 128.33024 236.334509 
L 128.410931 236.236943 
L 128.523899 236.139377 
L 129.08874 236.041811 
L 129.137154 235.944245 
L 129.185569 236.041811 
L 129.605165 236.139377 
L 129.718133 236.236943 
L 129.831101 236.139377 
L 130.008622 235.651548 
L 130.137729 235.553982 
L 130.266835 235.35885 
L 130.525048 235.261284 
L 130.541186 235.163718 
L 130.589601 235.35885 
L 130.621878 235.261284 
L 130.670292 235.35885 
L 130.718707 235.261284 
L 131.07375 235.163718 
L 131.138303 235.066152 
L 131.17058 235.163718 
L 131.202856 235.066152 
L 131.315824 234.968586 
L 132.477782 235.066152 
L 132.59075 235.163718 
L 132.768271 235.066152 
L 132.816686 234.968586 
L 132.865101 235.066152 
L 133.268558 235.163718 
L 133.381526 235.261284 
L 133.413803 235.261284 
L 133.559047 235.749114 
L 133.591324 235.651548 
L 133.607462 235.846679 
L 133.623601 235.846679 
L 133.736569 235.944245 
L 133.784983 236.041811 
L 133.930228 236.334509 
L 133.978643 236.432075 
L 134.156164 236.919905 
L 134.269132 236.822339 
L 134.430515 236.919905 
L 134.559622 237.115037 
L 134.624175 237.017471 
L 134.656451 237.115037 
L 134.817834 237.017471 
L 134.930802 236.919905 
L 135.301983 236.822339 
L 135.414951 236.529641 
L 135.43109 236.627207 
L 135.818409 236.529641 
L 135.834547 236.432075 
L 135.866824 236.627207 
L 135.915238 236.529641 
L 136.044345 236.432075 
L 136.060483 236.334509 
L 136.141175 236.432075 
L 136.883536 236.334509 
L 137.028781 236.041811 
L 137.157887 235.944245 
L 137.206302 235.749114 
L 137.254717 235.944245 
L 137.367685 235.846679 
L 137.432238 235.651548 
L 137.464515 235.846679 
L 137.690451 235.749114 
L 137.819557 235.553982 
L 137.916387 235.651548 
L 138.013217 235.749114 
L 138.158461 235.456416 
L 138.707163 235.35885 
L 138.820132 235.261284 
L 139.126759 235.35885 
L 139.239727 235.456416 
L 139.772291 235.35885 
L 139.901397 235.163718 
L 139.998227 235.261284 
L 140.095057 235.163718 
L 140.111195 235.261284 
L 140.191887 235.163718 
L 140.756727 235.066152 
L 140.885833 234.87102 
L 140.966525 234.773454 
L 141.095631 234.578322 
L 141.321567 235.35885 
L 141.402259 235.456416 
L 141.531365 235.651548 
L 141.902546 235.553982 
L 142.015514 235.456416 
L 142.14462 235.35885 
L 142.257588 235.261284 
L 142.80629 235.163718 
L 142.935397 234.968586 
L 144.339429 235.066152 
L 144.468535 235.456416 
L 144.484673 235.35885 
L 144.581503 235.261284 
L 144.726748 235.553982 
L 145.049513 235.651548 
L 145.08179 235.749114 
L 145.146343 235.651548 
L 145.340003 235.553982 
L 145.469109 235.35885 
L 145.64663 235.261284 
L 145.759598 235.163718 
L 146.308301 235.066152 
L 146.388992 234.87102 
L 146.421269 234.968586 
L 147.244322 235.066152 
L 147.26046 235.163718 
L 147.341151 235.066152 
L 147.550949 234.968586 
L 147.663917 234.87102 
L 148.180343 234.968586 
L 148.309449 235.163718 
L 148.374002 235.066152 
L 148.48697 234.968586 
L 148.874289 234.87102 
L 148.890428 234.773454 
L 148.971119 234.87102 
L 149.100226 234.968586 
L 149.116364 235.066152 
L 149.164779 234.87102 
L 149.197055 234.968586 
L 149.293885 234.87102 
L 149.406853 234.773454 
L 149.697343 234.87102 
L 149.810311 234.968586 
L 149.971694 234.968586 
L 150.00397 234.773454 
L 150.084662 234.87102 
L 150.407427 234.968586 
L 150.601087 235.553982 
L 150.746332 235.261284 
L 151.085236 235.35885 
L 151.149789 235.456416 
L 151.182066 235.35885 
L 151.359587 235.261284 
L 151.375725 235.163718 
L 151.456417 235.261284 
L 151.811459 235.163718 
L 151.843736 235.066152 
L 151.908289 235.163718 
L 152.424714 235.066152 
L 152.553821 234.87102 
L 152.650651 234.773454 
L 152.715204 234.675888 
L 152.74748 234.773454 
L 152.763619 234.87102 
L 152.812033 234.675888 
L 152.828172 234.675888 
L 153.40915 234.675888 
L 153.60281 245.798408 
L 154.054682 256.140399 
L 154.425863 262.482187 
L 154.861597 268.531277 
L 154.974565 269.799634 
L 155.68465 277.117081 
L 155.894448 278.970834 
L 156.265629 282.190511 
L 156.281767 282.190511 
L 156.556118 284.239396 
L 158.62182 296.142444 
L 158.670235 296.24001 
L 158.993001 297.605933 
L 159.057554 297.703499 
L 159.299628 298.581593 
L 159.331905 298.679159 
L 159.557841 299.459686 
L 159.622394 299.557252 
L 159.832192 300.240214 
L 159.896745 300.33778 
L 160.090405 300.923176 
L 160.122681 301.020742 
L 160.300202 301.508572 
L 160.348617 301.606138 
L 160.493862 301.898835 
L 160.526139 301.996401 
L 160.70366 302.484231 
L 160.768213 302.581797 
L 160.929596 302.972061 
L 161.042564 303.069627 
L 161.187809 303.362325 
L 161.413745 303.459891 
L 161.558989 303.752589 
L 161.639681 303.850155 
L 161.768787 304.045287 
L 161.897894 304.142853 
L 162.027 304.337984 
L 162.091553 304.43555 
L 162.22066 304.630682 
L 162.285213 304.728248 
L 162.317489 304.825814 
L 162.382043 304.728248 
L 162.462734 304.825814 
L 162.59184 305.020946 
L 162.995298 305.118512 
L 163.108266 305.216078 
L 163.318064 305.313644 
L 163.431032 305.508776 
L 163.463308 305.41121 
L 163.527861 305.508776 
L 163.64083 305.606342 
L 163.931319 305.703908 
L 164.044287 305.801474 
L 164.544574 305.703908 
L 164.625266 305.606342 
L 164.641404 305.703908 
L 165.997021 305.606342 
L 166.126127 305.41121 
L 166.206818 305.508776 
L 166.222957 305.41121 
L 166.432755 305.313644 
L 166.561861 305.118512 
L 166.900765 305.020946 
L 167.013733 304.92338 
L 167.304223 304.825814 
L 167.449467 304.533116 
L 167.659265 304.43555 
L 167.772233 304.337984 
L 168.014308 304.240419 
L 168.159552 303.947721 
L 168.450042 303.850155 
L 168.56301 303.752589 
L 168.579148 303.850155 
L 168.627563 303.655023 
L 168.643701 303.752589 
L 168.756669 303.655023 
L 168.837361 303.557457 
L 168.853499 303.459891 
L 168.885775 303.655023 
L 168.93419 303.557457 
L 169.12785 303.459891 
L 169.256956 303.264759 
L 169.418339 303.167193 
L 169.499031 303.069627 
L 169.611999 295.459482 
L 169.708829 295.557048 
L 169.724967 295.654614 
L 169.805658 295.557048 
L 170.951477 295.654614 
L 170.967616 295.75218 
L 171.048307 295.654614 
L 171.790669 295.75218 
L 171.822945 295.849746 
L 171.887498 295.75218 
L 171.952052 295.654614 
L 172.048881 295.557048 
L 172.161849 295.654614 
L 172.387786 295.557048 
L 172.500754 295.459482 
L 173.162424 295.361916 
L 173.29153 295.166784 
L 174.518041 295.26435 
L 174.582594 295.361916 
L 174.61487 295.26435 
L 175.018328 295.361916 
L 175.147434 295.557048 
L 175.260402 295.459482 
L 175.389508 295.557048 
L 175.405647 295.654614 
L 175.486338 295.557048 
L 175.615445 295.654614 
L 175.712274 295.75218 
L 175.825242 295.654614 
L 175.93821 295.75218 
L 176.164147 295.849746 
L 176.277115 295.947312 
L 176.390083 295.849746 
L 176.664434 295.75218 
L 176.777402 295.654614 
L 176.938785 295.557048 
L 176.971061 295.459482 
L 177.019476 295.654614 
L 177.035615 295.557048 
L 177.616593 295.557048 
L 177.810253 281.01972 
L 178.391231 263.945676 
L 179.149731 248.237557 
L 179.82754 237.895565 
L 180.39238 232.334305 
L 180.860391 230.090288 
L 180.876529 230.090288 
L 181.021773 229.602458 
L 181.183156 229.212194 
L 181.312263 229.114628 
L 181.473646 228.724364 
L 181.505922 228.626798 
L 181.699582 228.041403 
L 181.764135 227.943837 
L 181.893241 227.748705 
L 182.328975 227.651139 
L 182.47422 227.358441 
L 182.506497 227.260875 
L 182.635603 227.065743 
L 182.716294 226.968177 
L 182.877677 226.577913 
L 182.926092 226.675479 
L 182.974507 226.773045 
L 183.022922 226.675479 
L 183.103614 226.577913 
L 183.23272 226.382781 
L 183.281135 226.285215 
L 183.442518 225.894951 
L 183.474794 225.797385 
L 183.668454 225.21199 
L 183.70073 225.114424 
L 183.845975 224.821726 
L 183.89439 224.72416 
L 184.168741 223.650934 
L 184.313986 223.553368 
L 184.523784 222.870407 
L 184.814273 222.772841 
L 184.927241 222.187445 
L 184.975656 222.382577 
L 185.072486 222.285011 
L 185.250007 221.602049 
L 185.266145 221.699615 
L 185.346837 221.602049 
L 185.492081 221.309351 
L 185.524358 221.211785 
L 186.411964 215.357828 
L 186.428102 214.772432 
L 186.444241 208.723342 
L 186.492656 76.1312 
L 186.573347 145.500599 
L 186.73473 224.333896 
L 186.944528 226.870611 
L 188.05807 239.163922 
L 188.074208 239.163922 
L 188.25173 240.042016 
L 188.461528 240.724978 
L 188.526081 240.822544 
L 188.71974 241.407939 
L 188.768155 241.505505 
L 188.929538 241.895769 
L 189.026368 241.798203 
L 189.155474 241.993335 
L 189.720315 241.895769 
L 189.849421 241.700637 
L 190.091495 241.603071 
L 190.220602 241.407939 
L 190.285155 241.310373 
L 190.414261 241.115241 
L 190.4304 241.212807 
L 190.494953 241.017675 
L 190.591783 240.920109 
L 190.704751 240.822544 
L 190.89841 240.724978 
L 191.011378 240.627412 
L 191.140485 240.529846 
L 191.285729 240.237148 
L 191.46325 240.139582 
L 191.624633 239.749318 
L 192.205612 239.651752 
L 192.334718 239.45662 
L 192.41541 239.359054 
L 192.544516 238.96879 
L 192.560655 239.066356 
L 192.609069 238.96879 
L 192.625208 238.871224 
L 192.705899 238.96879 
L 192.835006 238.871224 
L 192.899559 238.773658 
L 192.931835 238.871224 
L 193.238463 238.773658 
L 193.367569 238.578526 
L 193.512814 238.48096 
L 193.64192 238.285829 
L 193.916271 238.188263 
L 194.061516 237.895565 
L 194.448835 237.797999 
L 194.577941 237.602867 
L 194.723186 237.505301 
L 194.884569 237.115037 
L 194.981399 237.017471 
L 195.110505 236.822339 
L 195.271888 236.724773 
L 195.35258 236.529641 
L 195.384856 236.627207 
L 195.465548 236.529641 
L 195.594654 236.334509 
L 195.885143 236.236943 
L 195.998111 236.139377 
L 196.094941 236.041811 
L 196.256324 235.651548 
L 196.353154 235.749114 
L 196.449984 235.651548 
L 196.546813 235.749114 
L 196.67592 235.553982 
L 197.14393 235.456416 
L 197.160069 235.35885 
L 197.224622 235.553982 
L 197.402143 235.651548 
L 197.579664 236.236943 
L 197.628079 236.139377 
L 197.660356 236.334509 
L 197.724909 236.432075 
L 197.821739 236.627207 
L 197.837877 236.529641 
L 197.950845 236.627207 
L 198.09609 236.919905 
L 198.467271 236.822339 
L 198.483409 236.724773 
L 198.5641 236.822339 
L 198.644792 236.724773 
L 198.790036 236.432075 
L 198.935281 236.334509 
L 199.080526 236.041811 
L 199.193494 235.944245 
L 199.354877 235.553982 
L 199.41943 235.456416 
L 199.548536 235.261284 
L 199.661504 235.35885 
L 199.790611 235.261284 
L 199.919717 235.066152 
L 199.98427 234.968586 
L 200.048824 234.773454 
L 200.097238 234.87102 
L 200.516834 234.773454 
L 200.662079 234.38319 
L 200.710494 234.480756 
L 200.758908 234.38319 
L 200.871877 234.285624 
L 201.000983 234.090492 
L 201.065536 233.992926 
L 201.210781 233.700228 
L 201.372164 233.602662 
L 201.485132 233.505096 
L 201.646515 233.40753 
L 201.775621 233.212399 
L 202.130664 233.114833 
L 202.195217 233.017267 
L 202.227493 233.114833 
L 202.3566 233.017267 
L 202.485706 232.822135 
L 202.550259 232.724569 
L 202.711642 232.334305 
L 202.969855 232.236739 
L 203.098961 232.041607 
L 203.728355 232.139173 
L 203.792908 232.334305 
L 203.841323 232.236739 
L 204.083397 232.334305 
L 204.14795 232.431871 
L 204.180227 232.334305 
L 204.632099 232.236739 
L 204.728929 232.041607 
L 204.745067 232.139173 
L 204.809621 232.041607 
L 204.938727 231.846475 
L 205.019418 231.944041 
L 205.116248 232.041607 
L 205.164663 231.944041 
L 205.19694 232.139173 
L 205.213078 232.041607 
L 205.261493 232.139173 
L 205.358323 232.334305 
L 205.374461 232.236739 
L 206.052269 232.334305 
L 206.197514 232.627003 
L 206.455727 232.724569 
L 206.584833 232.919701 
L 206.665525 233.017267 
L 206.810769 233.309964 
L 207.343333 233.212399 
L 207.359471 233.114833 
L 207.440163 233.212399 
L 207.666099 233.309964 
L 207.682237 233.40753 
L 207.762929 233.309964 
L 208.021141 233.212399 
L 208.150248 233.017267 
L 208.198663 232.919701 
L 208.360046 232.529437 
L 208.473014 232.431871 
L 208.585982 232.334305 
L 208.924886 232.236739 
L 209.053992 232.041607 
L 209.215375 231.944041 
L 209.344482 231.748909 
L 209.538141 231.651343 
L 209.683386 231.358645 
L 209.715662 231.261079 
L 209.844769 231.065947 
L 210.054567 230.968381 
L 210.11912 230.870815 
L 210.151396 230.968381 
L 210.264364 231.065947 
L 210.393471 231.261079 
L 211.055141 231.163513 
L 211.200385 230.870815 
L 211.329492 230.773249 
L 211.458598 230.578118 
L 211.652258 230.480552 
L 211.749088 230.382986 
L 211.781364 230.480552 
L 211.829779 230.28542 
L 211.845917 230.382986 
L 211.991162 230.090288 
L 212.168683 230.187854 
L 212.313928 230.480552 
L 212.410758 230.382986 
L 212.475311 230.187854 
L 212.507587 230.28542 
L 212.556002 230.382986 
L 212.588279 230.28542 
L 212.636694 230.187854 
L 212.685109 230.28542 
L 212.846492 230.675684 
L 213.185396 230.578118 
L 213.217672 230.480552 
L 213.266087 230.675684 
L 213.556577 230.578118 
L 213.653406 230.480552 
L 213.750236 230.578118 
L 213.927757 230.090288 
L 214.024587 229.992722 
L 214.073002 229.79759 
L 214.137555 229.895156 
L 214.2828 229.79759 
L 214.395768 229.700024 
L 214.589427 229.602458 
L 214.718534 229.407326 
L 214.84764 229.504892 
L 214.879917 229.602458 
L 214.928332 229.407326 
L 215.202683 229.30976 
L 215.315651 229.212194 
L 215.493172 229.30976 
L 215.557725 229.407326 
L 215.590002 229.30976 
L 215.751385 229.407326 
L 215.767523 229.504892 
L 215.848214 229.407326 
L 215.945044 229.30976 
L 216.122566 228.82193 
L 216.187119 228.724364 
L 216.300087 228.431666 
L 216.316225 228.529232 
L 216.46147 228.431666 
L 216.606714 228.138969 
L 216.622853 228.236534 
L 216.703544 228.138969 
L 216.92948 228.041403 
L 216.977895 227.943837 
L 217.02631 228.041403 
L 217.042448 228.138969 
L 217.12314 228.041403 
L 217.704118 228.138969 
L 217.817087 228.236534 
L 218.204406 228.236534 
L 218.34965 228.724364 
L 218.656278 228.626798 
L 218.769246 228.529232 
L 218.962905 228.626798 
L 219.027459 228.529232 
L 219.075874 228.724364 
L 219.140427 228.626798 
L 219.172703 228.724364 
L 219.511608 228.82193 
L 219.640714 229.017062 
L 219.915065 229.114628 
L 220.124863 229.79759 
L 220.205554 229.895156 
L 220.350799 230.187854 
L 220.479905 229.992722 
L 221.125437 229.895156 
L 221.141575 229.79759 
L 221.222267 229.895156 
L 221.270682 229.79759 
L 221.415926 229.504892 
L 221.722554 229.407326 
L 221.85166 229.212194 
L 221.900075 229.212194 
L 222.029182 228.82193 
L 222.077596 228.724364 
L 222.158288 228.431666 
L 222.206703 228.529232 
L 222.739267 228.431666 
L 222.868373 228.236534 
L 222.916788 228.138969 
L 223.045894 227.943837 
L 223.142724 227.846271 
L 223.287969 227.553573 
L 223.384798 227.456007 
L 223.513905 227.260875 
L 223.626873 227.163309 
L 223.836671 226.480347 
L 223.981915 226.382781 
L 224.046468 226.187649 
L 224.094883 226.285215 
L 224.256266 226.675479 
L 224.320819 226.577913 
L 224.385373 226.480347 
L 224.417649 226.577913 
L 224.498341 226.675479 
L 224.514479 226.773045 
L 224.579032 226.675479 
L 224.59517 226.577913 
L 224.643585 226.773045 
L 224.659724 226.773045 
L 224.740415 226.870611 
L 224.869522 227.065743 
L 225.127734 226.968177 
L 225.240702 226.870611 
L 225.289117 226.968177 
L 225.305255 227.065743 
L 225.35367 226.870611 
L 225.369809 226.870611 
L 225.54733 226.968177 
L 225.676436 227.163309 
L 225.740989 227.065743 
L 225.853958 226.968177 
L 226.031479 226.870611 
L 226.289691 225.894951 
L 226.660872 225.797385 
L 226.806117 225.504688 
L 227.06433 225.602254 
L 227.096606 225.699819 
L 227.145021 225.602254 
L 227.257989 225.407122 
L 227.370957 225.602254 
L 227.548479 225.114424 
L 227.661447 225.016858 
L 227.677585 224.919292 
L 227.758276 225.016858 
L 227.855106 225.21199 
L 227.871244 225.114424 
L 228.048766 225.016858 
L 228.097181 224.919292 
L 228.145595 225.016858 
L 228.419946 224.919292 
L 228.532915 224.821726 
L 228.565191 224.72416 
L 228.694297 224.529028 
L 228.823404 224.431462 
L 228.871819 224.23633 
L 228.920234 224.333896 
L 229.000925 224.431462 
L 229.017063 224.333896 
L 229.097755 224.23633 
L 229.243 223.943632 
L 229.307553 223.846066 
L 229.452797 223.553368 
L 229.630319 223.650934 
L 229.646457 223.7485 
L 229.71101 223.553368 
L 230.082191 223.455802 
L 230.098329 223.358236 
L 230.162882 223.553368 
L 230.905244 223.455802 
L 231.179595 222.382577 
L 231.22801 222.285011 
L 231.389393 221.894747 
L 231.437808 221.797181 
L 231.921957 219.455598 
L 232.002648 219.358032 
L 232.115616 218.284806 
L 232.164031 217.016449 
L 232.180169 213.406508 
L 232.244722 75.057975 
L 232.309276 139.841773 
L 232.470659 223.26067 
L 232.535212 224.041198 
L 232.599765 223.846066 
L 232.74501 223.553368 
L 233.035499 225.894951 
L 233.551924 230.968381 
L 233.584201 231.065947 
L 233.826275 232.724569 
L 234.504084 236.236943 
L 234.584775 236.334509 
L 234.762296 236.822339 
L 234.82685 236.919905 
L 234.988233 237.310169 
L 235.020509 237.407735 
L 235.181892 237.797999 
L 235.19803 237.700433 
L 235.230307 237.895565 
L 235.262584 237.895565 
L 235.359413 237.993131 
L 235.504658 238.285829 
L 235.601488 238.383394 
L 235.730594 238.578526 
L 235.908115 238.676092 
L 236.021083 238.773658 
L 236.117913 238.871224 
L 236.263158 239.163922 
L 236.279296 239.066356 
L 236.343849 239.163922 
L 236.505232 239.554186 
L 236.876413 239.45662 
L 237.005519 239.261488 
L 237.070073 239.45662 
L 237.118488 239.359054 
L 237.231456 239.261488 
L 237.392839 239.163922 
L 237.521945 238.96879 
L 237.683328 238.871224 
L 237.844711 238.48096 
L 237.957679 238.383394 
L 238.070647 238.285829 
L 238.167477 238.188263 
L 238.296583 237.993131 
L 238.474104 237.895565 
L 238.554796 237.700433 
L 238.587072 237.797999 
L 238.667764 237.700433 
L 238.780732 237.602867 
L 238.845285 237.505301 
L 238.942115 237.407735 
L 238.958253 237.505301 
L 239.022806 237.310169 
L 239.151913 237.212603 
L 239.297157 236.919905 
L 239.361711 236.822339 
L 239.490817 236.627207 
L 239.732891 236.529641 
L 239.845859 236.432075 
L 240.152487 236.334509 
L 240.265455 236.236943 
L 240.572083 236.139377 
L 240.685051 236.041811 
L 240.959402 235.944245 
L 241.088508 235.749114 
L 241.459689 235.651548 
L 241.588795 235.456416 
L 241.717902 235.35885 
L 241.847008 235.163718 
L 241.895423 235.066152 
L 242.008391 234.968586 
L 242.169774 235.066152 
L 242.363433 249.310782 
L 242.799167 261.116264 
L 243.234901 269.019106 
L 243.654497 274.775498 
L 243.767465 276.043856 
L 244.396859 282.385643 
L 244.606657 284.239396 
L 244.945561 287.068809 
L 246.430284 295.459482 
L 246.46256 295.557048 
L 246.769188 296.825405 
L 246.801465 296.922971 
L 247.108092 298.191329 
L 247.172645 298.288895 
L 247.382443 298.971857 
L 247.41472 299.069423 
L 247.624518 299.752384 
L 247.672933 299.84995 
L 247.898869 300.630478 
L 247.963422 300.728044 
L 248.157081 301.31344 
L 248.221635 301.411006 
L 248.383018 301.801269 
L 248.463709 301.898835 
L 248.64123 302.386665 
L 248.721922 302.484231 
L 248.867166 302.776929 
L 248.996273 302.874495 
L 249.141517 303.167193 
L 249.189932 303.264759 
L 249.335177 303.557457 
L 249.544975 303.655023 
L 249.674081 303.850155 
L 249.722496 303.947721 
L 249.851602 304.142853 
L 249.964571 304.240419 
L 250.093677 304.43555 
L 250.384166 304.533116 
L 250.497134 304.630682 
L 250.593964 304.728248 
L 250.610102 304.825814 
L 250.690794 304.728248 
L 250.884453 304.825814 
L 250.997421 304.92338 
L 251.255634 305.020946 
L 251.271772 305.118512 
L 251.336326 305.020946 
L 251.368602 304.92338 
L 251.433155 305.020946 
L 251.836613 305.118512 
L 251.852751 305.216078 
L 251.933443 305.118512 
L 252.046411 305.020946 
L 252.546698 304.92338 
L 252.562836 304.825814 
L 252.643528 304.92338 
L 252.853325 304.825814 
L 252.982432 304.630682 
L 253.724793 304.533116 
L 253.821623 304.43555 
L 253.934591 304.533116 
L 254.176666 304.43555 
L 254.305772 304.240419 
L 254.741506 304.142853 
L 254.789921 303.947721 
L 254.838336 304.142853 
L 255.015857 304.045287 
L 255.031995 303.947721 
L 255.096548 304.142853 
L 255.112687 304.045287 
L 255.354761 303.947721 
L 255.467729 303.850155 
L 255.709804 303.752589 
L 255.822772 303.655023 
L 256.000293 303.557457 
L 256.129399 303.362325 
L 256.242367 303.459891 
L 256.419889 303.362325 
L 256.548995 303.167193 
L 256.774931 303.069627 
L 256.791069 302.972061 
L 256.871761 303.069627 
L 256.968591 302.972061 
L 257.081559 302.874495 
L 257.129974 302.776929 
L 257.25908 302.581797 
L 257.517293 302.484231 
L 257.630261 302.386665 
L 258.01758 302.289099 
L 258.146686 302.093967 
L 258.162824 302.191533 
L 258.243516 302.093967 
L 258.259654 302.093967 
L 258.372622 296.435142 
L 259.647548 296.532708 
L 259.679824 296.630274 
L 259.744377 296.532708 
L 260.244665 296.435142 
L 260.276941 296.24001 
L 260.341494 296.435142 
L 261.42276 296.532708 
L 261.471175 296.630274 
L 261.503452 296.532708 
L 261.51959 296.435142 
L 261.600281 296.532708 
L 262.616994 296.435142 
L 262.649271 296.337576 
L 262.713824 296.435142 
L 263.230249 296.532708 
L 263.246387 296.630274 
L 263.327079 296.532708 
L 264.16627 296.630274 
L 264.214685 296.727839 
L 264.2631 296.630274 
L 264.392206 296.727839 
L 264.505175 296.825405 
L 266.377217 296.825405 
L 266.570876 274.97063 
L 267.151855 249.310782 
L 268.265397 218.967768 
L 268.507472 215.748091 
L 268.846376 208.820908 
L 268.910929 74.667711 
L 268.991621 160.135493 
L 269.153004 224.138764 
L 269.18528 224.431462 
L 269.233695 224.041198 
L 269.395078 223.26067 
L 269.572599 223.7485 
L 269.604876 223.846066 
L 269.798535 224.431462 
L 269.814674 224.333896 
L 269.863089 224.626594 
L 269.94378 224.72416 
L 270.089025 225.016858 
L 270.282684 225.114424 
L 270.395652 225.309556 
L 270.524759 225.114424 
L 270.653865 225.114424 
L 270.782971 225.407122 
L 270.79911 225.504688 
L 270.879801 225.407122 
L 271.008907 225.21199 
L 271.154152 225.309556 
L 271.218705 225.504688 
L 271.26712 225.407122 
L 271.428503 225.016858 
L 271.444641 225.114424 
L 271.525333 225.016858 
L 271.638301 224.919292 
L 271.702854 224.821726 
L 271.896514 224.23633 
L 272.009482 224.138764 
L 272.283833 223.065539 
L 272.299971 223.163104 
L 272.380663 223.065539 
L 272.445216 223.065539 
L 272.59046 222.577709 
L 272.816397 221.797181 
L 272.88095 221.699615 
L 273.090748 221.016653 
L 273.123024 220.919087 
L 273.25213 220.723955 
L 273.300545 220.821521 
L 273.461928 221.211785 
L 273.526482 221.309351 
L 273.671726 221.602049 
L 273.800833 221.699615 
L 273.865386 221.797181 
L 273.881524 221.699615 
L 274.075184 221.114219 
L 274.172013 221.016653 
L 274.414088 220.13856 
L 274.446364 220.040994 
L 274.623886 219.553164 
L 274.704577 219.65073 
L 274.752992 219.748296 
L 274.785269 219.553164 
L 274.801407 219.65073 
L 274.86596 219.553164 
L 274.946651 219.358032 
L 274.96279 219.455598 
L 275.043481 219.553164 
L 275.05962 219.455598 
L 275.172588 219.358032 
L 275.350109 218.870202 
L 275.495354 218.772636 
L 275.753566 217.699411 
L 275.801981 217.796977 
L 275.834258 217.699411 
L 276.027917 217.114015 
L 276.060194 217.016449 
L 276.140885 217.114015 
L 276.1893 216.821317 
L 276.221577 216.723751 
L 276.399098 215.845657 
L 276.641172 214.869998 
L 276.657311 214.967564 
L 276.705726 214.772432 
L 277.04463 212.235717 
L 277.286704 208.333078 
L 277.351257 71.643166 
L 277.431949 145.598165 
L 277.593332 220.528824 
L 277.754715 221.992313 
L 278.206587 225.309556 
L 278.448662 227.065743 
L 278.480938 227.163309 
L 278.868257 229.017062 
L 278.900534 228.919496 
L 278.93281 229.114628 
L 278.948949 229.114628 
L 279.094193 229.407326 
L 279.158747 229.504892 
L 279.287853 229.700024 
L 279.320129 229.79759 
L 279.433098 229.895156 
L 279.69131 229.79759 
L 279.836555 229.504892 
L 280.014076 229.407326 
L 280.223874 228.724364 
L 280.54664 228.626798 
L 280.64347 228.529232 
L 280.659608 228.626798 
L 280.740299 228.529232 
L 280.804853 228.431666 
L 280.820991 228.3341 
L 280.885544 228.529232 
L 280.901682 228.431666 
L 281.079204 228.3341 
L 281.192172 228.236534 
L 281.563353 228.138969 
L 281.708597 227.846271 
L 281.789289 227.943837 
L 281.805427 227.846271 
L 282.241161 227.748705 
L 282.370267 227.553573 
L 282.483235 227.456007 
L 282.612342 227.260875 
L 282.951246 227.163309 
L 283.096491 226.870611 
L 283.403118 226.773045 
L 283.532225 226.577913 
L 283.85499 226.480347 
L 284.000235 226.187649 
L 284.04865 226.090083 
L 284.210033 225.699819 
L 284.24231 225.602254 
L 284.387554 225.309556 
L 284.484384 225.21199 
L 284.71032 224.431462 
L 284.90398 224.333896 
L 285.033086 224.138764 
L 285.065363 224.041198 
L 285.259022 223.455802 
L 285.307437 223.358236 
L 285.420405 223.26067 
L 285.46882 223.163104 
L 285.662479 222.577709 
L 285.678618 222.675275 
L 285.743171 222.480143 
L 285.823862 222.382577 
L 285.985245 221.992313 
L 286.146628 221.894747 
L 286.308011 221.504483 
L 286.437118 221.699615 
L 286.517809 221.602049 
L 286.550086 221.504483 
L 286.598501 221.602049 
L 286.711469 221.699615 
L 286.743745 221.602049 
L 286.856713 221.504483 
L 287.486107 221.406917 
L 287.582937 221.211785 
L 287.599075 221.309351 
L 287.760458 221.211785 
L 288.067085 219.943428 
L 288.341436 219.845862 
L 288.486681 219.455598 
L 288.567373 219.748296 
L 288.615788 219.65073 
L 288.809447 219.065334 
L 288.841724 218.967768 
L 288.97083 218.772636 
L 289.132213 219.1629 
L 289.245181 219.260466 
L 289.374287 219.455598 
L 289.567947 219.358032 
L 289.810021 218.479938 
L 289.987543 218.382372 
L 290.342585 216.821317 
L 290.358723 216.918883 
L 290.391 216.723751 
L 290.439415 216.821317 
L 290.552383 216.723751 
L 290.665351 216.626185 
L 290.697628 216.528619 
L 290.842872 216.235921 
L 290.907425 216.138355 
L 291.004255 215.943223 
L 291.020394 216.040789 
L 291.05267 215.943223 
L 291.197915 215.650525 
L 291.230191 215.552959 
L 292.069383 210.089266 
L 292.101659 207.064721 
L 292.166212 72.03343 
L 292.230766 131.548667 
L 292.408287 219.845862 
L 292.553532 220.626389 
L 292.634223 220.723955 
L 293.376585 224.626594 
L 293.424999 224.72416 
L 293.780042 226.285215 
L 293.844595 226.382781 
L 294.054393 227.163309 
L 294.070531 227.065743 
L 294.118946 227.260875 
L 294.135084 227.260875 
L 294.248053 227.358441 
L 294.377159 227.553573 
L 294.490127 227.456007 
L 294.667648 227.553573 
L 294.812893 227.846271 
L 294.877446 227.943837 
L 294.990414 228.041403 
L 295.11952 228.138969 
L 295.21635 228.236534 
L 295.345457 228.041403 
L 295.571393 227.943837 
L 295.732776 227.553573 
L 295.797329 227.456007 
L 295.926435 227.260875 
L 295.990988 227.163309 
L 296.120095 226.968177 
L 296.200786 226.870611 
L 296.378308 226.382781 
L 296.555829 226.285215 
L 296.571967 226.187649 
L 296.652659 226.285215 
L 296.83018 226.773045 
L 297.346605 226.675479 
L 297.507988 226.285215 
L 297.717786 226.187649 
L 297.927584 225.504688 
L 298.040552 225.407122 
L 298.15352 225.114424 
L 298.169658 225.21199 
L 298.234211 225.114424 
L 298.444009 224.431462 
L 298.524701 224.333896 
L 298.637669 224.138764 
L 298.653807 224.23633 
L 298.702222 224.041198 
L 298.71836 224.041198 
L 298.976573 223.065539 
L 299.057265 222.967973 
L 299.267062 222.285011 
L 299.315477 222.187445 
L 299.347754 222.089879 
L 299.412307 222.187445 
L 299.912594 222.089879 
L 300.041701 221.894747 
L 300.073977 221.797181 
L 300.170807 221.602049 
L 300.186945 221.699615 
L 300.219222 221.797181 
L 300.267637 221.602049 
L 300.541988 221.504483 
L 300.671094 221.309351 
L 300.735647 221.406917 
L 300.767924 221.309351 
L 300.961583 221.211785 
L 301.139105 220.723955 
L 301.155243 220.821521 
L 301.203658 220.626389 
L 301.219796 220.626389 
L 301.397317 220.528824 
L 301.526424 220.333692 
L 301.816913 220.431258 
L 301.929881 220.528824 
L 302.139679 220.626389 
L 302.284924 220.919087 
L 302.397892 220.821521 
L 302.51086 220.919087 
L 302.672243 220.431258 
L 302.752934 220.626389 
L 302.785211 220.528824 
L 302.849764 220.431258 
L 303.027285 219.943428 
L 303.091838 219.845862 
L 303.26936 219.358032 
L 303.333913 219.260466 
L 303.479157 218.967768 
L 303.575987 218.870202 
L 303.721232 218.577504 
L 303.850338 218.479938 
L 304.011721 218.089674 
L 304.108551 217.992109 
L 304.286072 217.504279 
L 304.528147 217.406713 
L 304.608838 217.114015 
L 304.657253 217.211581 
L 304.721806 217.211581 
L 304.818636 216.821317 
L 304.850912 216.918883 
L 304.899327 216.918883 
L 305.06071 216.040789 
L 305.109125 216.138355 
L 305.125263 216.040789 
L 305.270508 215.552959 
L 305.367338 215.455394 
L 305.560997 214.869998 
L 305.609412 214.772432 
L 306.190391 210.772227 
L 306.351774 207.162287 
L 306.416327 72.52126 
L 306.497019 145.890863 
L 306.658402 219.358032 
L 306.739093 220.13856 
L 306.787508 219.943428 
L 306.932753 219.553164 
L 306.948891 219.65073 
L 306.997306 219.455598 
L 307.029582 219.553164 
L 307.207104 219.65073 
L 307.820359 222.772841 
L 307.868774 222.870407 
L 308.046295 223.358236 
L 308.110848 223.455802 
L 308.304508 224.529028 
L 308.465891 224.919292 
L 308.788657 224.821726 
L 308.885486 224.72416 
L 308.998454 224.821726 
L 309.095284 224.919292 
L 309.22439 225.114424 
L 309.337359 225.016858 
L 309.466465 225.114424 
L 309.579433 225.21199 
L 309.708539 225.016858 
L 309.756954 224.919292 
L 309.789231 224.821726 
L 309.853784 224.919292 
L 310.111997 225.016858 
L 310.224965 225.114424 
L 310.499316 225.016858 
L 310.628422 224.821726 
L 310.967326 224.72416 
L 311.096433 224.529028 
L 311.160986 224.431462 
L 311.322369 224.041198 
L 311.354645 223.943632 
L 311.532167 223.455802 
L 311.564443 223.358236 
L 311.709688 223.065539 
L 311.919486 222.967973 
L 312.032454 222.870407 
L 312.306805 222.772841 
L 312.468188 222.382577 
L 312.532741 222.285011 
L 312.694124 221.894747 
L 312.903922 221.797181 
L 313.033028 221.602049 
L 313.081443 221.504483 
L 313.210549 221.309351 
L 313.355794 221.211785 
L 313.371932 221.114219 
L 313.452624 221.211785 
L 313.67856 221.114219 
L 313.743113 221.211785 
L 313.823805 220.821521 
L 313.936773 220.723955 
L 314.049741 220.626389 
L 314.43706 220.528824 
L 314.646858 219.845862 
L 314.743687 219.748296 
L 314.856655 219.455598 
L 314.872794 219.553164 
L 314.985762 219.455598 
L 315.163283 218.967768 
L 315.243975 218.870202 
L 315.405358 218.479938 
L 315.599017 218.382372 
L 315.728123 218.089674 
L 315.744262 218.18724 
L 315.824953 218.089674 
L 315.937921 217.894543 
L 316.583453 221.211785 
L 316.793251 221.114219 
L 316.809389 221.016653 
L 316.873942 221.114219 
L 316.890081 221.211785 
L 316.938496 221.016653 
L 316.954634 221.016653 
L 317.164432 220.919087 
L 317.2774 220.723955 
L 317.406506 220.919087 
L 317.713134 220.821521 
L 317.826102 220.723955 
L 317.874517 220.626389 
L 318.197283 219.1629 
L 318.213421 219.260466 
L 318.261836 219.065334 
L 318.294112 219.1629 
L 318.713708 217.211581 
L 318.745985 217.114015 
L 318.988059 216.235921 
L 319.020336 216.235921 
L 319.197857 215.260262 
L 319.310825 215.260262 
L 319.472208 214.5773 
L 319.633591 213.016244 
L 319.859527 209.01604 
L 319.891804 143.354148 
L 319.92408 73.789617 
L 319.988633 119.938317 
L 320.166155 217.016449 
L 320.246846 217.894543 
L 320.295261 217.601845 
L 320.359814 217.699411 
L 320.553474 218.284806 
L 320.666442 218.382372 
L 320.811686 218.67507 
L 320.87624 218.772636 
L 321.279697 220.626389 
L 321.328112 220.723955 
L 321.489495 221.114219 
L 321.53791 221.211785 
L 321.667016 221.406917 
L 321.796122 221.504483 
L 321.925229 221.699615 
L 321.989782 221.797181 
L 322.135027 222.089879 
L 322.29641 222.187445 
L 322.441654 222.480143 
L 322.473931 222.382577 
L 322.538484 222.480143 
L 322.66759 222.675275 
L 322.76442 222.772841 
L 322.974218 223.455802 
L 323.006495 223.553368 
L 323.119463 223.650934 
L 323.652026 223.553368 
L 323.764994 223.358236 
L 323.797271 223.455802 
L 323.861824 223.358236 
L 323.910239 223.26067 
L 324.023207 222.967973 
L 324.039345 223.065539 
L 324.152314 222.967973 
L 324.168452 222.870407 
L 324.200728 223.065539 
L 324.216867 223.065539 
L 324.265282 223.163104 
L 324.313696 223.065539 
L 324.426665 222.870407 
L 324.539633 222.967973 
L 324.555771 222.870407 
L 324.636462 222.967973 
L 324.765569 223.065539 
L 324.830122 223.163104 
L 324.862399 223.065539 
L 325.023781 223.163104 
L 325.056058 223.26067 
L 325.120611 223.163104 
L 325.685452 223.065539 
L 325.814558 222.870407 
L 325.895249 222.772841 
L 326.024356 222.577709 
L 326.185739 222.480143 
L 326.347122 222.089879 
L 326.395537 221.992313 
L 326.540781 221.504483 
L 326.589196 221.406917 
L 326.750579 221.016653 
L 326.782856 220.919087 
L 326.911962 220.723955 
L 326.992653 220.626389 
L 327.137898 220.333692 
L 327.21859 220.236126 
L 327.299281 220.13856 
L 327.315419 220.236126 
L 327.58977 220.13856 
L 327.638185 220.040994 
L 327.6866 220.13856 
L 327.767292 220.040994 
L 327.944813 219.553164 
L 328.186887 219.455598 
L 328.412823 218.67507 
L 328.493515 218.67507 
L 328.622621 218.089674 
L 328.63876 218.18724 
L 328.961525 218.284806 
L 328.977664 218.382372 
L 329.00994 218.18724 
L 329.042217 218.18724 
L 329.219738 218.089674 
L 329.332706 217.699411 
L 329.364983 217.796977 
L 329.413398 217.699411 
L 329.590919 217.211581 
L 329.703887 217.309147 
L 329.86527 217.211581 
L 329.9621 216.723751 
L 330.010515 216.918883 
L 330.091206 217.211581 
L 330.123483 217.016449 
L 330.204174 216.918883 
L 330.397834 216.333487 
L 330.43011 216.431053 
L 330.478525 216.235921 
L 330.688323 216.235921 
L 330.833568 215.748091 
L 330.930398 215.748091 
L 331.124057 238.090697 
L 331.495238 253.896382 
L 332.076216 268.141013 
L 332.786301 279.0684 
L 333.528663 286.776111 
L 335.142493 295.947312 
L 335.174769 295.947312 
L 335.336152 296.727839 
L 335.35229 296.727839 
L 335.529812 297.605933 
L 335.933269 299.459686 
L 335.965546 299.557252 
L 336.191482 300.33778 
L 336.239897 300.435346 
L 336.433556 301.020742 
L 336.465833 301.118308 
L 336.594939 301.31344 
L 336.675631 301.411006 
L 336.853152 301.898835 
L 336.917705 301.996401 
L 337.079088 302.484231 
L 337.111365 302.386665 
L 337.127503 302.581797 
L 337.159779 302.581797 
L 337.321162 302.972061 
L 337.385716 303.069627 
L 337.547099 303.459891 
L 337.660067 303.557457 
L 337.82145 303.947721 
L 337.950556 304.045287 
L 338.079662 304.337984 
L 338.095801 304.240419 
L 338.144215 304.43555 
L 338.160354 304.337984 
L 338.305598 304.630682 
L 338.434705 304.728248 
L 338.563811 304.92338 
L 338.741332 305.020946 
L 338.838162 305.118512 
L 338.934992 305.020946 
L 338.983407 305.118512 
L 339.031822 305.020946 
L 339.306173 304.92338 
L 339.386864 304.825814 
L 339.403002 304.92338 
L 340.758619 304.825814 
L 340.887726 304.630682 
L 341.049109 304.533116 
L 341.194353 304.240419 
L 341.258906 304.142853 
L 341.388013 303.947721 
L 341.565534 303.850155 
L 341.69464 303.655023 
L 341.79147 303.752589 
L 341.904438 303.655023 
L 342.630662 303.557457 
L 342.6468 303.459891 
L 342.679076 303.655023 
L 342.711353 303.655023 
L 342.888874 303.557457 
L 343.001842 303.459891 
L 343.760342 303.362325 
L 343.792619 303.264759 
L 343.857172 303.362325 
L 343.97014 303.264759 
L 344.050831 303.167193 
L 344.06697 303.264759 
L 344.228353 303.167193 
L 344.341321 303.069627 
L 344.680225 302.972061 
L 344.696363 302.874495 
L 344.777055 302.972061 
L 344.922299 302.874495 
L 345.035268 302.776929 
L 345.600108 302.679363 
L 345.616246 302.581797 
L 345.696938 302.679363 
L 345.793767 302.581797 
L 345.906735 302.484231 
L 346.068118 302.386665 
L 346.181086 302.191533 
L 346.213363 302.289099 
L 346.261778 302.191533 
L 346.374746 302.093967 
L 346.568406 301.996401 
L 346.584544 301.898835 
L 346.665235 301.996401 
L 346.971863 301.898835 
L 347.100969 301.703704 
L 347.940161 301.801269 
L 347.972437 301.898835 
L 348.03699 301.801269 
L 349.666958 301.898835 
L 349.683097 301.996401 
L 349.763788 301.898835 
L 351.16782 301.996401 
L 351.264649 302.093967 
L 351.361479 301.996401 
L 351.393756 302.093967 
L 351.442171 301.996401 
L 351.539 301.898835 
L 351.555139 301.996401 
L 351.63583 301.898835 
L 352.362054 301.996401 
L 352.475022 302.093967 
L 353.072139 301.996401 
L 353.088277 301.898835 
L 353.168968 301.996401 
L 353.362628 301.898835 
L 353.394904 301.801269 
L 353.443319 301.996401 
L 353.524011 301.898835 
L 353.572426 301.801269 
L 353.604702 301.898835 
L 353.669255 301.996401 
L 353.701532 301.898835 
L 354.702106 301.801269 
L 354.815074 301.703704 
L 354.831213 301.801269 
L 354.879628 301.606138 
L 354.895766 301.703704 
L 355.008734 301.606138 
L 355.13784 301.508572 
L 355.3315 258.677114 
L 355.79951 215.260262 
L 355.89634 199.161878 
L 355.944755 69.204017 
L 356.009308 134.182948 
L 356.154553 213.308942 
L 356.170691 213.11381 
L 356.364351 205.796363 
L 356.800085 192.624959 
L 356.864638 72.130996 
L 356.945329 132.817024 
L 357.122851 205.796363 
L 357.284234 207.552551 
L 357.477893 208.137946 
L 357.590861 208.137946 
L 357.703829 208.52821 
L 357.719968 208.430644 
L 357.865212 208.333078 
L 358.17184 207.064721 
L 358.236393 206.967155 
L 358.73668 203.357214 
L 359.043308 198.478916 
L 359.172414 191.649299 
L 359.236967 68.228358 
L 359.30152 117.20647 
L 359.49518 206.089061 
L 359.672701 208.918474 
L 359.898637 209.796568 
L 359.930914 209.699002 
L 359.995467 209.796568 
L 360.237542 209.699002 
L 360.511893 208.625776 
L 360.640999 208.52821 
L 360.834658 207.747683 
L 360.850797 207.845249 
L 360.947627 207.747683 
L 361.092871 207.259853 
L 361.10901 207.357419 
L 361.173563 207.259853 
L 361.318807 206.967155 
L 361.351084 206.869589 
L 361.625435 205.796363 
L 361.706126 205.698797 
L 361.867509 205.308534 
L 361.883648 205.308534 
L 362.028892 204.723138 
L 362.125722 204.625572 
L 362.416211 203.45478 
L 362.496903 203.357214 
L 363.223126 199.552142 
L 363.255403 199.454576 
L 363.545892 195.942201 
L 363.56203 194.088448 
L 363.626584 66.96 
L 363.707275 129.011952 
L 363.884796 204.820704 
L 364.046179 207.357419 
L 364.143009 207.454985 
L 364.272115 207.650117 
L 364.32053 207.747683 
L 364.352807 207.942814 
L 364.433498 207.845249 
L 364.449637 207.747683 
L 364.51419 207.845249 
L 364.594881 208.04038 
L 364.627158 207.942814 
L 364.836956 208.04038 
L 364.853094 208.137946 
L 364.885371 207.942814 
L 364.917647 207.942814 
L 365.159722 207.064721 
L 365.17586 207.064721 
L 365.337243 206.284193 
L 365.595456 206.186627 
L 366.240987 202.869384 
L 366.321679 202.96695 
L 366.370094 203.162082 
L 366.40237 202.96695 
L 366.757413 201.405895 
L 366.821966 201.405895 
L 366.967211 200.820499 
L 367.015626 201.015631 
L 367.06404 200.820499 
L 367.193147 200.722933 
L 367.91937 195.844635 
L 367.983923 193.698184 
L 368.0162 147.061654 
L 368.064615 68.325923 
L 368.129168 114.962453 
L 368.338966 203.845044 
L 368.516487 206.089061 
L 368.694008 206.576891 
L 368.806976 206.479325 
L 368.919944 206.576891 
L 369.178157 206.674457 
L 369.194295 206.772023 
L 369.24271 206.674457 
L 369.323402 206.479325 
L 369.355678 206.576891 
L 369.387955 206.869589 
L 369.468646 206.772023 
L 369.646168 206.284193 
L 369.662306 206.381759 
L 369.710721 206.186627 
L 369.888242 205.601231 
L 369.920519 205.698797 
L 369.968934 205.503665 
L 370.485359 202.96695 
L 370.533774 202.869384 
L 370.695157 201.991291 
L 370.808125 202.088857 
L 371.050199 201.210763 
L 371.082476 201.113197 
L 371.211582 200.625367 
L 371.243859 200.722933 
L 371.292274 200.625367 
L 371.389104 200.332669 
L 371.42138 200.430235 
L 371.534348 200.527801 
L 371.679593 201.015631 
L 371.744146 200.820499 
L 371.776423 201.015631 
L 371.840976 200.918065 
L 371.970082 200.527801 
L 371.98622 200.625367 
L 372.08305 200.527801 
L 372.502646 198.576482 
L 372.534923 198.478916 
L 372.776997 196.820295 
L 372.857688 195.747069 
L 372.922242 192.234695 
L 372.986795 67.740528 
L 373.067486 120.816411 
L 373.261146 201.601027 
L 373.454805 203.747478 
L 373.680741 204.528006 
L 373.858263 204.43044 
L 373.955092 204.235308 
L 373.971231 204.332874 
L 374.051922 204.528006 
L 374.084199 204.43044 
L 374.293997 203.649912 
L 374.310135 203.747478 
L 374.35855 203.45478 
L 374.519933 202.96695 
L 374.536071 203.064516 
L 374.600624 202.869384 
L 374.842699 202.771819 
L 375.052497 202.088857 
L 375.100911 202.186423 
L 375.197741 202.381555 
L 375.21388 202.283989 
L 375.262294 202.186423 
L 375.488231 201.405895 
L 375.520507 201.308329 
L 375.843273 199.84484 
L 375.891688 200.039972 
L 375.923965 199.84484 
L 376.149901 199.064312 
L 376.182177 199.161878 
L 376.24673 199.064312 
L 376.295145 198.966746 
L 376.666326 197.308125 
L 376.795432 197.210559 
L 377.10206 194.868976 
L 377.182752 192.527393 
L 377.215028 157.110948 
L 377.263443 68.521055 
L 377.327996 108.425534 
L 377.537794 199.259444 
L 377.683039 201.796159 
L 377.699177 201.698593 
L 377.908975 202.381555 
L 377.941251 202.479121 
L 378.102634 202.869384 
L 378.231741 202.96695 
L 378.280156 203.064516 
L 378.32857 202.96695 
L 378.473815 202.674253 
L 378.586783 202.576687 
L 378.828858 201.698593 
L 378.861134 201.601027 
L 378.990241 201.308329 
L 379.119347 201.503461 
L 379.167762 201.405895 
L 379.458251 200.235104 
L 379.522804 200.137538 
L 379.651911 199.942406 
L 379.74874 199.84484 
L 379.974677 199.064312 
L 380.023091 198.966746 
L 380.216751 197.698389 
L 380.232889 197.795954 
L 380.265166 197.600823 
L 380.281304 197.600823 
L 380.410411 197.405691 
L 380.491102 197.503257 
L 380.571794 197.698389 
L 380.60407 197.600823 
L 380.684762 197.503257 
L 380.846145 197.112993 
L 380.862283 197.210559 
L 380.894559 196.917861 
L 381.088219 196.234899 
L 381.104357 196.332465 
L 381.16891 196.137333 
L 381.523953 190.673639 
L 381.55623 184.429418 
L 381.620783 68.130792 
L 381.685336 107.449874 
L 381.911272 200.527801 
L 382.104932 202.771819 
L 382.185623 202.869384 
L 382.347006 203.259648 
L 382.379283 203.357214 
L 382.540666 203.747478 
L 382.702048 203.649912 
L 382.927985 202.869384 
L 383.121644 202.96695 
L 383.234612 203.357214 
L 383.266889 203.259648 
L 383.379857 203.357214 
L 383.395995 203.45478 
L 383.44441 203.259648 
L 383.460548 203.259648 
L 383.654208 202.674253 
L 383.702623 202.576687 
L 383.815591 202.088857 
L 383.864006 202.186423 
L 383.896282 202.088857 
L 384.089942 201.503461 
L 384.122218 201.601027 
L 384.170633 201.405895 
L 384.219048 201.308329 
L 384.396569 200.820499 
L 384.461123 200.722933 
L 384.557952 200.625367 
L 384.606367 200.820499 
L 384.67092 200.722933 
L 384.735474 200.625367 
L 384.896857 200.137538 
L 384.945272 200.235104 
L 384.993686 200.137538 
L 385.042101 200.039972 
L 385.090516 200.137538 
L 385.171208 200.039972 
L 385.300314 199.649708 
L 385.316452 199.747274 
L 385.348729 199.84484 
L 385.364867 199.942406 
L 385.42942 199.747274 
L 386.123367 194.966542 
L 386.317027 189.502848 
L 386.38158 70.179677 
L 386.47841 128.036292 
L 386.672069 198.86918 
L 386.833452 200.722933 
L 386.84959 200.625367 
L 386.881867 200.918065 
L 387.107803 201.796159 
L 387.14008 201.698593 
L 387.188495 201.893725 
L 387.285324 201.991291 
L 387.398292 202.186423 
L 387.575814 201.698593 
L 387.70492 201.601027 
L 387.850165 201.308329 
L 387.89858 201.210763 
L 387.963133 201.113197 
L 387.979271 201.210763 
L 388.140654 201.991291 
L 388.302037 201.601027 
L 388.527973 201.503461 
L 388.640941 201.405895 
L 388.753909 201.308329 
L 388.947569 200.722933 
L 388.979845 200.625367 
L 389.157367 200.137538 
L 389.189643 200.039972 
L 389.641515 197.89352 
L 389.657654 197.89352 
L 389.899728 195.356805 
L 390.093388 193.600618 
L 390.319324 188.23449 
L 390.3516 140.719867 
L 390.400015 69.691847 
L 390.464568 109.010929 
L 390.674366 196.722729 
L 390.835749 199.161878 
L 390.868026 199.259444 
L 391.126239 200.235104 
L 391.158515 200.235104 
L 391.174653 200.039972 
L 391.271483 200.137538 
L 391.352175 199.942406 
L 391.368313 200.039972 
L 391.432866 200.235104 
L 391.481281 200.137538 
L 391.513558 199.942406 
L 391.578111 200.039972 
L 391.691079 200.137538 
L 391.739494 200.039972 
L 391.949292 199.35701 
L 392.078398 199.259444 
L 392.385026 197.991086 
L 392.449579 197.89352 
L 392.610962 197.112993 
L 392.659377 197.015427 
L 392.869174 195.747069 
L 392.885313 195.747069 
L 393.175802 193.503052 
L 393.595398 190.478507 
L 393.724504 187.063699 
L 393.756781 150.281331 
L 393.805196 70.374809 
L 393.869749 102.181312 
L 394.111823 195.942201 
L 394.305483 198.966746 
L 394.499142 200.137538 
L 394.547557 200.235104 
L 394.70894 200.625367 
L 394.741217 200.722933 
L 394.870323 200.918065 
L 394.983291 201.015631 
L 395.015568 201.113197 
L 395.080121 201.015631 
L 395.37061 199.84484 
L 395.419025 199.747274 
L 395.548131 199.552142 
L 395.612685 199.552142 
L 395.757929 199.064312 
L 395.806344 198.966746 
L 395.967727 198.38135 
L 395.983865 198.478916 
L 396.096833 198.38135 
L 396.290493 197.308125 
L 396.32277 197.210559 
L 396.69395 195.551937 
L 396.742365 195.454371 
L 397.048993 193.893316 
L 397.081269 193.990882 
L 397.161961 193.893316 
L 397.517003 188.819886 
L 397.565418 181.892703 
L 397.629972 70.667507 
L 397.710663 113.1087 
L 397.936599 195.259239 
L 398.130259 198.283784 
L 398.162535 198.38135 
L 398.485301 199.747274 
L 398.582131 199.84484 
L 398.711237 200.039972 
L 398.904897 199.942406 
L 399.034003 199.747274 
L 399.211524 199.649708 
L 399.437461 198.86918 
L 399.582705 198.771614 
L 399.744088 198.38135 
L 399.857056 198.478916 
L 399.889333 198.38135 
L 399.937748 198.478916 
L 399.970024 198.576482 
L 400.018439 198.478916 
L 400.405758 196.722729 
L 400.454173 196.625163 
L 401.196535 191.551733 
L 401.406333 186.478303 
L 401.487024 70.667507 
L 401.583854 126.963066 
L 401.777513 193.503052 
L 401.955035 196.625163 
L 402.229386 198.674048 
L 402.358492 198.966746 
L 402.503737 198.674048 
L 402.56829 198.771614 
L 402.584428 198.86918 
L 402.66512 198.771614 
L 402.842641 198.674048 
L 403.052439 197.991086 
L 403.100854 197.89352 
L 403.278375 197.405691 
L 403.342928 197.308125 
L 403.455896 197.112993 
L 403.568864 197.210559 
L 403.923907 197.112993 
L 404.036875 197.015427 
L 404.165981 197.112993 
L 404.214396 197.210559 
L 404.262811 197.112993 
L 404.359641 197.210559 
L 404.424194 197.308125 
L 404.45647 197.210559 
L 404.521024 197.112993 
L 404.730821 196.137333 
L 404.763098 196.234899 
L 405.102002 196.137333 
L 405.327938 195.356805 
L 405.392492 195.259239 
L 405.50546 194.673844 
L 405.537736 194.77141 
L 405.602289 194.673844 
L 405.908917 192.234695 
L 406.247821 186.868567 
L 406.296236 182.282967 
L 406.376928 71.935864 
L 406.441481 109.986589 
L 406.667417 194.381146 
L 406.861076 197.89352 
L 407.248395 199.649708 
L 407.329087 199.747274 
L 407.345225 199.84484 
L 407.39364 199.649708 
L 407.409778 199.649708 
L 407.442055 199.649708 
L 407.571161 199.259444 
L 407.813236 199.35701 
L 407.893927 199.454576 
L 407.910066 199.35701 
L 408.119863 199.454576 
L 408.200555 199.649708 
L 408.232831 199.552142 
L 408.3458 199.454576 
L 408.507182 199.064312 
L 408.604012 199.064312 
L 408.797672 197.991086 
L 409.088161 196.820295 
L 409.152714 196.722729 
L 409.701416 193.893316 
L 409.717555 193.990882 
L 409.749831 193.79575 
L 409.782108 193.79575 
L 409.927352 193.015222 
L 409.959629 193.210354 
L 410.072597 193.30792 
L 410.395363 193.210354 
L 410.927927 189.600414 
L 411.08931 184.429418 
L 411.121586 160.525757 
L 411.186139 71.935864 
L 411.250693 108.327968 
L 411.476629 194.186014 
L 411.65415 197.600823 
L 411.896224 199.259444 
L 412.025331 199.552142 
L 412.154437 199.35701 
L 412.331958 199.259444 
L 412.461065 199.064312 
L 412.622448 199.161878 
L 412.703139 199.552142 
L 412.767692 199.454576 
L 412.961352 198.86918 
L 413.058182 198.771614 
L 413.187288 198.576482 
L 413.300256 198.478916 
L 413.477777 197.698389 
L 413.493916 197.795954 
L 413.623022 197.991086 
L 413.784405 197.600823 
L 413.83282 197.503257 
L 414.284692 195.356805 
L 414.365384 195.259239 
L 414.413799 195.356805 
L 414.49449 195.064108 
L 414.526767 194.966542 
L 414.704288 194.088448 
L 414.752703 194.186014 
L 414.784979 194.088448 
L 415.123884 191.551733 
L 415.398235 184.917248 
L 415.446649 101.791048 
L 415.478926 71.643166 
L 415.543479 103.742368 
L 415.785554 194.381146 
L 415.979213 197.503257 
L 416.189011 198.771614 
L 416.398809 199.454576 
L 416.624745 199.35701 
L 416.705436 199.259444 
L 416.721575 199.35701 
L 416.76999 199.35701 
L 416.931373 198.674048 
L 416.963649 198.771614 
L 416.995926 198.674048 
L 417.14117 198.186218 
L 417.189585 198.088652 
L 417.350968 197.698389 
L 417.399383 197.600823 
L 417.673734 196.527597 
L 417.706011 196.430031 
L 418.077192 194.77141 
L 418.238574 194.673844 
L 418.512926 193.503052 
L 418.529064 193.600618 
L 418.56134 193.405486 
L 418.593617 193.405486 
L 418.642032 193.30792 
L 419.110042 189.893112 
L 419.31984 186.088039 
L 419.352117 182.868362 
L 419.432808 71.838298 
L 419.5135 114.962453 
L 419.771713 218.284806 
L 420.013787 242.481165 
L 420.433383 261.506527 
L 420.83684 272.141217 
L 421.224159 278.873269 
L 421.627616 284.239396 
L 421.756723 285.60532 
L 422.208595 289.800656 
L 422.660467 293.117899 
L 422.870265 294.483822 
L 422.902542 294.581388 
L 423.612627 298.288895 
L 423.644903 298.386461 
L 424.048361 300.240214 
L 424.096776 300.33778 
L 424.354988 301.31344 
L 424.403403 301.411006 
L 424.564786 302.093967 
L 424.645478 302.191533 
L 424.839137 302.776929 
L 424.871414 302.874495 
L 425.081212 303.557457 
L 425.113488 303.655023 
L 425.274871 304.045287 
L 425.339424 304.142853 
L 425.516946 304.630682 
L 425.581499 304.728248 
L 425.726743 305.020946 
L 425.839712 305.118512 
L 426.001094 305.508776 
L 426.097924 305.606342 
L 426.243169 305.89904 
L 426.32386 305.996606 
L 426.469105 306.289304 
L 426.565935 306.38687 
L 426.678903 306.582002 
L 426.695041 306.484436 
L 426.759594 306.679568 
L 426.856424 306.777134 
L 426.98553 306.972265 
L 427.033945 307.069831 
L 427.146913 307.167397 
L 427.243743 307.264963 
L 427.388988 307.557661 
L 427.421264 307.460095 
L 427.485818 307.557661 
L 428.131349 307.655227 
L 428.260456 307.850359 
L 429.148062 307.947925 
L 429.1642 308.045491 
L 429.244892 307.947925 
L 429.341722 307.850359 
L 429.45469 307.947925 
L 429.729041 308.045491 
L 429.793594 308.143057 
L 429.82587 308.045491 
L 430.697338 307.947925 
L 430.810306 307.850359 
L 431.310594 307.752793 
L 431.375147 307.655227 
L 431.407423 307.752793 
L 431.972264 307.655227 
L 432.10137 307.460095 
L 432.633934 307.362529 
L 432.746902 307.264963 
L 433.392434 307.167397 
L 433.505402 307.069831 
L 433.795891 306.972265 
L 433.860444 306.777134 
L 433.908859 306.874699 
L 433.989551 306.972265 
L 434.005689 306.874699 
L 434.74805 306.777134 
L 434.861019 306.679568 
L 435.232199 306.582002 
L 435.345167 306.484436 
L 435.635657 306.38687 
L 435.732486 306.289304 
L 435.780901 306.38687 
L 435.780901 306.38687 
" style="fill:none;stroke:#1f77b4;stroke-linecap:square;stroke-width:1.5;"/>
   </g>
   <g id="line2d_16">
    <path clip-path="url(#p2ad9c17cff)" d="M 80.754545 297.58642 
L 81.287109 296.547381 
L 81.56146 296.047844 
L 81.964918 295.328509 
L 82.31996 294.729064 
L 82.658864 294.169582 
L 83.223705 293.310377 
L 83.514194 292.870784 
L 86.612747 289.194186 
L 86.725715 289.094279 
L 87.24214 288.614722 
L 87.371246 288.514815 
L 87.80698 288.135166 
L 87.936087 288.035259 
L 88.291129 287.755518 
L 88.436374 287.65561 
L 88.775278 287.39585 
L 88.904385 287.315924 
L 89.872682 274.54774 
L 91.712448 255.265584 
L 93.01965 244.895181 
L 93.874979 239.360303 
L 96.150479 228.650214 
L 97.038085 225.772877 
L 98.70033 221.936427 
L 99.136064 221.237074 
L 99.410415 220.837444 
L 100.523957 219.618572 
L 100.669202 219.518665 
L 100.975829 219.298868 
L 101.169489 219.19896 
L 101.395425 219.079071 
L 101.669776 218.979164 
L 101.847297 218.919219 
L 103.800031 219.019127 
L 103.993691 219.099053 
L 104.251903 219.19896 
L 104.477839 219.318849 
L 104.671499 219.418757 
L 104.929712 219.578609 
L 105.107233 219.678517 
L 105.429999 219.918295 
L 105.575243 220.018202 
L 105.930286 220.297943 
L 106.059392 220.397851 
L 106.511265 220.797481 
L 106.624233 220.897389 
L 107.237488 221.496834 
L 107.350456 221.596741 
L 108.480137 222.835595 
L 108.576966 222.935503 
L 114.806348 230.808217 
L 115.048423 231.127921 
L 118.614986 235.383983 
L 118.711816 235.48389 
L 119.760805 236.622836 
L 119.857635 236.722744 
L 120.616135 237.502023 
L 120.729103 237.60193 
L 121.406911 238.281301 
L 121.519879 238.381209 
L 122.084719 238.92071 
L 122.197688 239.020617 
L 122.681836 239.46021 
L 122.810943 239.560118 
L 123.295092 239.999711 
L 123.424198 240.099619 
L 123.843794 240.459286 
L 123.9729 240.559193 
L 124.360219 240.878898 
L 124.505464 240.978805 
L 124.892783 241.298509 
L 125.038027 241.398417 
L 125.39307 241.678158 
L 125.538315 241.778066 
L 125.861081 242.017844 
L 126.022463 242.117751 
L 126.345229 242.357529 
L 126.506612 242.457437 
L 126.81324 242.677233 
L 126.974623 242.777141 
L 127.265112 242.976956 
L 127.442633 243.076864 
L 127.733123 243.276679 
L 127.910644 243.376586 
L 128.184995 243.55642 
L 128.378655 243.656327 
L 128.636867 243.816179 
L 128.814389 243.916087 
L 129.072601 244.075939 
L 129.282399 244.175847 
L 129.524474 244.315717 
L 129.718133 244.415625 
L 129.960207 244.555495 
L 130.186144 244.655403 
L 130.428218 244.795273 
L 130.654154 244.895181 
L 130.88009 245.01507 
L 131.106026 245.114977 
L 131.331963 245.234867 
L 131.590175 245.334774 
L 131.816111 245.454663 
L 132.074324 245.554571 
L 132.284122 245.654478 
L 132.542335 245.754386 
L 132.752133 245.854293 
L 133.026484 245.954201 
L 133.220143 246.034127 
L 133.494494 246.134034 
L 133.688154 246.21396 
L 133.962505 246.313868 
L 134.156164 246.393794 
L 134.462792 246.493702 
L 134.656451 246.573628 
L 134.995356 246.673535 
L 135.189015 246.753461 
L 135.544058 246.853369 
L 135.721579 246.913313 
L 136.060483 247.013221 
L 136.238004 247.073165 
L 136.609185 247.173073 
L 136.786706 247.233017 
L 137.190164 247.332925 
L 137.367685 247.39287 
L 137.803419 247.492777 
L 137.98094 247.552722 
L 138.465089 247.652629 
L 138.64261 247.712574 
L 139.159036 247.812481 
L 139.320419 247.852444 
L 139.820706 247.952352 
L 139.982089 247.992315 
L 140.530791 248.092222 
L 140.692174 248.132185 
L 141.305429 248.232093 
L 141.466812 248.272056 
L 142.14462 248.371963 
L 142.306003 248.411926 
L 143.064503 248.511834 
L 143.225886 248.551797 
L 144.113492 248.651705 
L 144.258737 248.671686 
L 145.130205 248.771594 
L 145.27545 248.791575 
L 146.276024 248.891483 
L 146.421269 248.911464 
L 147.631641 249.011372 
L 147.776885 249.031353 
L 149.277747 249.131261 
L 149.422991 249.151242 
L 151.42414 249.25115 
L 151.569385 249.271131 
L 153.457565 249.351057 
L 154.635661 263.897596 
L 155.862171 276.346076 
L 157.314618 287.995296 
L 159.202798 299.005107 
L 160.106543 302.921483 
L 161.316915 306.997711 
L 162.914606 310.674308 
L 163.318064 311.333698 
L 163.608553 311.773291 
L 164.705957 312.972182 
L 164.851202 313.072089 
L 165.173968 313.311867 
L 165.367627 313.411775 
L 165.593563 313.531664 
L 165.884053 313.631572 
L 166.061574 313.691516 
L 168.094999 313.591609 
L 168.288659 313.511683 
L 168.546871 313.411775 
L 168.772807 313.291886 
L 168.982605 313.191978 
L 169.240818 313.032126 
L 169.418339 312.932219 
L 169.515169 312.872274 
L 169.628137 297.386605 
L 169.870212 296.92703 
L 170.35436 296.007881 
L 170.677126 295.448398 
L 171.048307 294.80899 
L 171.467903 294.129619 
L 171.790669 293.6101 
L 172.613722 292.431191 
L 172.871934 292.071523 
L 175.082881 289.493909 
L 175.195849 289.394001 
L 175.792966 288.814538 
L 175.922072 288.71463 
L 176.390083 288.295018 
L 176.519189 288.195111 
L 176.906508 287.875407 
L 177.051753 287.775499 
L 177.390657 287.515739 
L 177.535902 287.415832 
L 177.681146 287.315924 
L 178.939933 265.955691 
L 180.29555 247.432833 
L 181.344539 235.803594 
L 182.57105 224.75382 
L 184.120326 214.063713 
L 185.007932 209.248169 
L 186.153751 204.132903 
L 187.783719 198.498117 
L 190.833857 191.224848 
L 191.075931 190.765273 
L 191.543942 189.886087 
L 191.834431 189.366568 
L 192.237889 188.647233 
L 192.560655 188.087751 
L 192.947974 187.40838 
L 193.27074 186.848897 
L 193.690335 186.0896 
L 193.980825 185.570081 
L 194.513388 184.531042 
L 194.723186 184.111431 
L 196.094941 180.434833 
L 196.692058 177.797274 
L 197.224622 173.820954 
L 197.579664 168.705687 
L 197.8056 161.732141 
L 197.934707 151.12196 
L 197.950845 148.224641 
L 198.063813 257.623402 
L 198.370441 257.583439 
L 199.22577 253.906841 
L 201.275334 246.713498 
L 202.114525 244.35568 
L 202.485706 243.396568 
L 203.77677 240.479267 
L 204.002706 240.039674 
L 204.470716 239.160488 
L 204.809621 238.581024 
L 205.148525 238.021542 
L 205.745642 237.122374 
L 206.003854 236.762707 
L 207.84362 234.644667 
L 207.956588 234.544759 
L 208.40846 234.145129 
L 208.537567 234.045222 
L 208.892609 233.76548 
L 209.037854 233.665573 
L 209.344482 233.445776 
L 209.505864 233.345869 
L 209.780216 233.166035 
L 209.973875 233.066128 
L 210.215949 232.926257 
L 210.425747 232.82635 
L 210.651683 232.70646 
L 210.893758 232.606553 
L 211.103556 232.506645 
L 211.377907 232.406738 
L 211.571566 232.326812 
L 211.91047 232.226904 
L 212.087992 232.16696 
L 212.475311 232.067052 
L 212.652832 232.007108 
L 213.217672 231.9072 
L 213.379055 231.867237 
L 214.2828 231.76733 
L 214.428045 231.747348 
L 217.897778 231.847256 
L 218.043023 231.867237 
L 218.769246 231.967145 
L 218.930629 232.007108 
L 219.624576 232.107015 
L 219.785959 232.146978 
L 220.366937 232.246886 
L 220.52832 232.286849 
L 221.060884 232.386756 
L 221.222267 232.426719 
L 221.722554 232.526627 
L 221.883937 232.56659 
L 222.351947 232.666497 
L 222.529469 232.726442 
L 223.045894 232.82635 
L 223.223415 232.886294 
L 223.707564 232.986202 
L 223.868947 233.026165 
L 224.288543 233.126072 
L 224.449926 233.166035 
L 224.869522 233.265943 
L 225.047043 233.325887 
L 225.531192 233.425795 
L 225.708713 233.485739 
L 226.176723 233.585647 
L 226.354245 233.645591 
L 226.838394 233.745499 
L 227.015915 233.805443 
L 227.500064 233.905351 
L 227.677585 233.965296 
L 228.161734 234.065203 
L 228.323117 234.105166 
L 228.758851 234.205074 
L 228.920234 234.245037 
L 229.372106 234.344944 
L 229.533489 234.384907 
L 229.985361 234.484815 
L 230.146744 234.524778 
L 230.614755 234.624685 
L 230.776138 234.664648 
L 231.260286 234.764556 
L 231.421669 234.804519 
L 231.921957 234.904426 
L 232.083339 234.944389 
L 232.599765 235.044297 
L 232.761148 235.08426 
L 233.30985 235.184168 
L 233.471233 235.224131 
L 234.036073 235.324038 
L 234.197456 235.364001 
L 234.794573 235.463909 
L 234.955956 235.503872 
L 235.58535 235.603779 
L 235.746732 235.643742 
L 236.424541 235.74365 
L 236.585924 235.783613 
L 237.296009 235.88352 
L 237.457392 235.923483 
L 238.23203 236.023391 
L 238.393413 236.063354 
L 239.232604 236.163261 
L 239.393987 236.203225 
L 240.297732 236.303132 
L 240.442976 236.323114 
L 241.282168 236.423021 
L 241.427412 236.443003 
L 242.234327 236.54291 
L 243.767465 261.220074 
L 245.203773 279.283358 
L 246.301178 290.273188 
L 247.624518 300.783461 
L 248.399156 305.738876 
L 250.368028 314.93037 
L 251.207219 317.627873 
L 252.546698 320.665063 
L 253.014708 321.404379 
L 253.272921 321.764046 
L 254.063698 322.583288 
L 254.208942 322.683195 
L 254.483293 322.863029 
L 254.693091 322.962936 
L 254.902889 323.062844 
L 255.322485 323.162751 
L 255.467729 323.182733 
L 256.516718 323.082825 
L 256.710378 323.002899 
L 256.984729 322.902992 
L 257.226803 322.763121 
L 257.420463 322.663214 
L 257.694814 322.48338 
L 257.840059 322.383473 
L 258.195101 322.103731 
L 258.291931 322.023805 
L 258.404899 297.386605 
L 258.646973 296.92703 
L 259.131122 296.007881 
L 259.453888 295.448398 
L 259.825069 294.80899 
L 260.244665 294.129619 
L 260.56743 293.6101 
L 261.390484 292.431191 
L 261.648696 292.071523 
L 263.859643 289.493909 
L 263.972611 289.394001 
L 264.569728 288.814538 
L 264.698834 288.71463 
L 265.166845 288.295018 
L 265.295951 288.195111 
L 265.68327 287.875407 
L 265.828515 287.775499 
L 266.167419 287.515739 
L 266.312664 287.415832 
L 266.457908 287.315924 
L 267.523036 260.141072 
L 268.668855 235.74365 
L 269.717844 217.160847 
L 271.073461 197.119393 
L 272.509769 174.160639 
L 272.78412 165.288849 
L 272.945503 153.160073 
L 272.961641 150.622422 
L 273.074609 257.623402 
L 273.381237 257.623402 
L 274.752992 234.185092 
L 275.656736 221.396926 
L 277.335119 201.9749 
L 279.174885 182.652781 
L 279.675172 175.119752 
L 280.014076 166.22798 
L 280.191597 155.158224 
L 280.223874 150.742311 
L 280.336842 257.623402 
L 280.64347 257.623402 
L 282.047501 238.40119 
L 283.177182 225.772877 
L 284.565075 213.1046 
L 286.856713 196.899596 
L 288.567373 185.630025 
L 289.212904 180.035203 
L 289.6325 174.780066 
L 289.955266 167.986353 
L 290.148926 159.554156 
L 290.245755 148.504382 
L 290.358723 257.623402 
L 290.665351 257.523495 
L 292.150074 242.197677 
L 293.89301 228.050769 
L 296.265339 214.043731 
L 297.459573 208.688687 
L 299.718935 200.716065 
L 300.283775 199.037618 
L 300.767924 197.658894 
L 302.188094 193.862407 
L 302.575413 192.84335 
L 303.963306 189.126789 
L 304.528147 187.448343 
L 304.899327 186.249452 
L 305.996731 181.753613 
L 306.803646 176.078864 
L 307.158689 171.543062 
L 307.43304 164.889219 
L 307.594423 155.657762 
L 307.642838 149.123809 
L 307.755806 257.623402 
L 308.062433 257.563458 
L 309.51488 247.592685 
L 310.967326 239.280377 
L 312.742539 231.047995 
L 315.050315 222.89554 
L 315.889506 220.537722 
L 316.276825 219.518665 
L 317.713134 216.241697 
L 317.922932 215.822085 
L 318.423219 214.862973 
L 318.713708 214.343454 
L 319.101027 213.664082 
L 319.552899 212.944748 
L 319.859527 212.465192 
L 322.845112 208.928465 
L 322.974218 208.828557 
L 323.42609 208.428927 
L 323.555197 208.32902 
L 323.910239 208.049278 
L 324.055484 207.949371 
L 324.362111 207.729574 
L 324.523494 207.629667 
L 324.797845 207.449833 
L 324.975367 207.349926 
L 325.233579 207.190074 
L 325.427239 207.090166 
L 325.669313 206.950295 
L 325.895249 206.850388 
L 326.121186 206.730499 
L 326.379398 206.630591 
L 326.589196 206.530684 
L 326.879685 206.430776 
L 327.073345 206.35085 
L 327.412249 206.250943 
L 327.58977 206.190998 
L 327.960951 206.091091 
L 328.138472 206.031146 
L 328.671036 205.931238 
L 328.832419 205.891275 
L 329.607057 205.791368 
L 329.752302 205.771386 
L 331.011089 205.711442 
L 332.657195 245.67446 
L 333.625493 264.776782 
L 335.061801 287.755518 
L 335.917131 298.825273 
L 337.353439 313.61159 
L 338.450843 322.163676 
L 339.160928 326.619552 
L 339.854875 330.236206 
L 341.807608 337.069882 
L 342.501555 338.50855 
L 343.986278 340.186997 
L 344.228353 340.286905 
L 344.422012 340.366831 
L 345.567831 340.266923 
L 345.777629 340.167015 
L 345.95515 340.067108 
L 346.24564 339.867293 
L 346.390884 339.767385 
L 346.955725 339.227885 
L 347.052554 339.127977 
L 347.068693 339.107995 
L 347.181661 297.386605 
L 347.423735 296.92703 
L 347.907884 296.007881 
L 348.23065 295.448398 
L 348.601831 294.80899 
L 349.021426 294.129619 
L 349.344192 293.6101 
L 350.167245 292.431191 
L 350.425458 292.071523 
L 352.636405 289.493909 
L 352.749373 289.394001 
L 353.34649 288.814538 
L 353.475596 288.71463 
L 353.943606 288.295018 
L 354.072713 288.195111 
L 354.460032 287.875407 
L 354.605277 287.775499 
L 354.944181 287.515739 
L 355.089425 287.415832 
L 355.23467 287.315924 
L 356.477319 225.573062 
L 357.865212 159.73399 
L 357.929765 150.622422 
L 358.042733 257.623402 
L 358.349361 257.623402 
L 359.640425 201.994881 
L 360.463478 165.228905 
L 360.592584 150.922144 
L 360.705552 257.623402 
L 361.01218 257.623402 
L 362.33552 203.553439 
L 363.223126 166.787463 
L 363.384509 149.643328 
L 363.497477 257.623402 
L 363.787967 257.623402 
L 363.900935 253.147544 
L 365.159722 204.792292 
L 366.111881 168.026316 
L 366.289402 151.26183 
L 366.305541 147.725103 
L 366.418509 257.623402 
L 366.708998 257.623402 
L 366.821966 253.367341 
L 368.161445 204.692385 
L 369.178157 167.187093 
L 369.33954 152.32085 
L 369.355678 149.183753 
L 369.468646 257.623402 
L 369.759136 257.623402 
L 369.888242 252.967711 
L 371.082476 211.306264 
L 372.389678 165.668498 
L 372.534923 151.341756 
L 372.551061 147.904937 
L 372.664029 257.623402 
L 372.954518 257.623402 
L 373.083625 253.187507 
L 374.197167 215.921993 
L 375.730305 165.408738 
L 375.87555 151.022052 
L 375.988518 257.623402 
L 376.295145 257.623402 
L 377.440964 220.417832 
L 379.216177 164.809293 
L 379.361421 149.603365 
L 379.474389 257.623402 
L 379.781017 257.623402 
L 381.120496 216.54142 
L 382.78274 168.306057 
L 382.960261 155.118261 
L 382.992538 149.963032 
L 383.105506 257.623402 
L 383.412133 257.623402 
L 384.719335 219.05909 
L 386.542963 168.945465 
L 386.736622 155.178206 
L 386.768899 150.122884 
L 386.881867 257.623402 
L 387.188495 257.623402 
L 388.495696 220.537722 
L 390.54526 164.489589 
L 390.690505 149.823161 
L 390.803473 257.623402 
L 391.1101 257.623402 
L 392.465717 220.637629 
L 394.579834 165.82835 
L 394.741217 151.541571 
L 394.757355 148.324548 
L 394.870323 257.623402 
L 395.160812 257.623402 
L 395.289919 254.14662 
L 396.580982 220.477777 
L 398.743514 167.127148 
L 398.921035 153.299944 
L 398.937173 150.662385 
L 399.050142 257.623402 
L 399.356769 257.623402 
L 400.567141 226.292396 
L 402.100279 192.803387 
L 402.858779 174.520306 
L 403.13313 162.671272 
L 403.262237 147.825011 
L 403.375205 257.623402 
L 403.665694 257.623402 
L 403.778662 254.766046 
L 405.005172 224.334208 
L 407.49047 166.727518 
L 407.667991 152.640554 
L 407.684129 149.823161 
L 407.797098 257.623402 
L 408.103725 257.623402 
L 409.281821 228.550307 
L 410.863374 195.76065 
L 411.783256 175.419474 
L 412.089884 163.090883 
L 412.21899 149.603365 
L 412.331958 257.623402 
L 412.638586 257.623402 
L 413.994203 225.253358 
L 415.204575 200.756028 
L 416.463362 173.741028 
L 416.737713 161.752122 
L 416.850681 148.824086 
L 416.963649 257.623402 
L 417.254138 257.623402 
L 417.367107 254.94588 
L 418.85183 220.897389 
L 419.787851 202.5144 
L 419.803989 203.093864 
L 421.240297 249.071316 
L 422.402255 279.023598 
L 423.757871 306.797896 
L 424.677754 321.863953 
L 425.710605 335.59125 
L 426.549797 344.60291 
L 428.002243 356.232149 
L 429.018956 361.846953 
L 430.519817 367.002182 
L 431.100796 368.161109 
L 432.085232 369.220129 
L 432.359583 369.320037 
L 432.520966 369.36 
L 433.150359 369.260092 
L 433.392434 369.120222 
L 433.537678 369.020314 
L 435.232199 366.762404 
L 435.845455 365.52355 
L 435.845455 365.52355 
" style="fill:none;stroke:#ff0000;stroke-linecap:square;stroke-width:1.5;"/>
   </g>
   <g id="patch_3">
    <path d="M 63 384.48 
L 63 51.84 
" style="fill:none;stroke:#000000;stroke-linecap:square;stroke-linejoin:miter;stroke-width:0.8;"/>
   </g>
   <g id="patch_4">
    <path d="M 453.6 384.48 
L 453.6 51.84 
" style="fill:none;stroke:#000000;stroke-linecap:square;stroke-linejoin:miter;stroke-width:0.8;"/>
   </g>
   <g id="patch_5">
    <path d="M 63 384.48 
L 453.6 384.48 
" style="fill:none;stroke:#000000;stroke-linecap:square;stroke-linejoin:miter;stroke-width:0.8;"/>
   </g>
   <g id="patch_6">
    <path d="M 63 51.84 
L 453.6 51.84 
" style="fill:none;stroke:#000000;stroke-linecap:square;stroke-linejoin:miter;stroke-width:0.8;"/>
   </g>
   <g id="legend_1">
    <g id="patch_7">
     <path d="M 70 89.19625 
L 133.139062 89.19625 
Q 135.139062 89.19625 135.139062 87.19625 
L 135.139062 58.84 
Q 135.139062 56.84 133.139062 56.84 
L 70 56.84 
Q 68 56.84 68 58.84 
L 68 87.19625 
Q 68 89.19625 70 89.19625 
z
" style="fill:#ffffff;opacity:0.8;stroke:#cccccc;stroke-linejoin:miter;"/>
    </g>
    <g id="line2d_17">
     <path d="M 72 64.938437 
L 92 64.938437 
" style="fill:none;stroke:#1f77b4;stroke-linecap:square;stroke-width:1.5;"/>
    </g>
    <g id="line2d_18"/>
    <g id="text_17">
     <!-- target -->
     <defs>
      <path d="M 41.109375 46.296875 
Q 39.59375 47.171875 37.8125 47.578125 
Q 36.03125 48 33.890625 48 
Q 26.265625 48 22.1875 43.046875 
Q 18.109375 38.09375 18.109375 28.8125 
L 18.109375 0 
L 9.078125 0 
L 9.078125 54.6875 
L 18.109375 54.6875 
L 18.109375 46.1875 
Q 20.953125 51.171875 25.484375 53.578125 
Q 30.03125 56 36.53125 56 
Q 37.453125 56 38.578125 55.875 
Q 39.703125 55.765625 41.0625 55.515625 
z
" id="DejaVuSans-114"/>
     </defs>
     <g transform="translate(100 68.438437)scale(0.1 -0.1)">
      <use xlink:href="#DejaVuSans-116"/>
      <use x="39.208984" xlink:href="#DejaVuSans-97"/>
      <use x="100.488281" xlink:href="#DejaVuSans-114"/>
      <use x="141.585938" xlink:href="#DejaVuSans-103"/>
      <use x="205.0625" xlink:href="#DejaVuSans-101"/>
      <use x="266.585938" xlink:href="#DejaVuSans-116"/>
     </g>
    </g>
    <g id="line2d_19">
     <path d="M 72 79.616562 
L 92 79.616562 
" style="fill:none;stroke:#ff0000;stroke-linecap:square;stroke-width:1.5;"/>
    </g>
    <g id="line2d_20"/>
    <g id="text_18">
     <!-- model -->
     <defs>
      <path d="M 45.40625 46.390625 
L 45.40625 75.984375 
L 54.390625 75.984375 
L 54.390625 0 
L 45.40625 0 
L 45.40625 8.203125 
Q 42.578125 3.328125 38.25 0.953125 
Q 33.9375 -1.421875 27.875 -1.421875 
Q 17.96875 -1.421875 11.734375 6.484375 
Q 5.515625 14.40625 5.515625 27.296875 
Q 5.515625 40.1875 11.734375 48.09375 
Q 17.96875 56 27.875 56 
Q 33.9375 56 38.25 53.625 
Q 42.578125 51.265625 45.40625 46.390625 
z
M 14.796875 27.296875 
Q 14.796875 17.390625 18.875 11.75 
Q 22.953125 6.109375 30.078125 6.109375 
Q 37.203125 6.109375 41.296875 11.75 
Q 45.40625 17.390625 45.40625 27.296875 
Q 45.40625 37.203125 41.296875 42.84375 
Q 37.203125 48.484375 30.078125 48.484375 
Q 22.953125 48.484375 18.875 42.84375 
Q 14.796875 37.203125 14.796875 27.296875 
z
" id="DejaVuSans-100"/>
     </defs>
     <g transform="translate(100 83.116562)scale(0.1 -0.1)">
      <use xlink:href="#DejaVuSans-109"/>
      <use x="97.412109" xlink:href="#DejaVuSans-111"/>
      <use x="158.59375" xlink:href="#DejaVuSans-100"/>
      <use x="222.070312" xlink:href="#DejaVuSans-101"/>
      <use x="283.59375" xlink:href="#DejaVuSans-108"/>
     </g>
    </g>
   </g>
  </g>
 </g>
 <defs>
  <clipPath id="p2ad9c17cff">
   <rect height="332.64" width="390.6" x="63" y="51.84"/>
  </clipPath>
 </defs>
</svg>
