<?xml version="1.0" encoding="utf-8" standalone="no"?>
<!DOCTYPE svg PUBLIC "-//W3C//DTD SVG 1.1//EN"
  "http://www.w3.org/Graphics/SVG/1.1/DTD/svg11.dtd">
<!-- Created with matplotlib (https://matplotlib.org/) -->
<svg height="432pt" version="1.1" viewBox="0 0 504 432" width="504pt" xmlns="http://www.w3.org/2000/svg" xmlns:xlink="http://www.w3.org/1999/xlink">
 <defs>
  <style type="text/css">
*{stroke-linecap:butt;stroke-linejoin:round;}
  </style>
 </defs>
 <g id="figure_1">
  <g id="patch_1">
   <path d="M 0 432 
L 504 432 
L 504 0 
L 0 0 
z
" style="fill:#ffffff;"/>
  </g>
  <g id="axes_1">
   <g id="patch_2">
    <path d="M 63 384.48 
L 453.6 384.48 
L 453.6 51.84 
L 63 51.84 
z
" style="fill:#ffffff;"/>
   </g>
   <g id="matplotlib.axis_1">
    <g id="xtick_1">
     <g id="line2d_1">
      <defs>
       <path d="M 0 0 
L 0 3.5 
" id="me2bd73d374" style="stroke:#000000;stroke-width:0.8;"/>
      </defs>
      <g>
       <use style="stroke:#000000;stroke-width:0.8;" x="80.754545" xlink:href="#me2bd73d374" y="384.48"/>
      </g>
     </g>
     <g id="text_1">
      <!-- 0 -->
      <defs>
       <path d="M 31.78125 66.40625 
Q 24.171875 66.40625 20.328125 58.90625 
Q 16.5 51.421875 16.5 36.375 
Q 16.5 21.390625 20.328125 13.890625 
Q 24.171875 6.390625 31.78125 6.390625 
Q 39.453125 6.390625 43.28125 13.890625 
Q 47.125 21.390625 47.125 36.375 
Q 47.125 51.421875 43.28125 58.90625 
Q 39.453125 66.40625 31.78125 66.40625 
z
M 31.78125 74.21875 
Q 44.046875 74.21875 50.515625 64.515625 
Q 56.984375 54.828125 56.984375 36.375 
Q 56.984375 17.96875 50.515625 8.265625 
Q 44.046875 -1.421875 31.78125 -1.421875 
Q 19.53125 -1.421875 13.0625 8.265625 
Q 6.59375 17.96875 6.59375 36.375 
Q 6.59375 54.828125 13.0625 64.515625 
Q 19.53125 74.21875 31.78125 74.21875 
z
" id="DejaVuSans-48"/>
      </defs>
      <g transform="translate(77.573295 399.078438)scale(0.1 -0.1)">
       <use xlink:href="#DejaVuSans-48"/>
      </g>
     </g>
    </g>
    <g id="xtick_2">
     <g id="line2d_2">
      <g>
       <use style="stroke:#000000;stroke-width:0.8;" x="151.767796" xlink:href="#me2bd73d374" y="384.48"/>
      </g>
     </g>
     <g id="text_2">
      <!-- 720 -->
      <defs>
       <path d="M 8.203125 72.90625 
L 55.078125 72.90625 
L 55.078125 68.703125 
L 28.609375 0 
L 18.3125 0 
L 43.21875 64.59375 
L 8.203125 64.59375 
z
" id="DejaVuSans-55"/>
       <path d="M 19.1875 8.296875 
L 53.609375 8.296875 
L 53.609375 0 
L 7.328125 0 
L 7.328125 8.296875 
Q 12.9375 14.109375 22.625 23.890625 
Q 32.328125 33.6875 34.8125 36.53125 
Q 39.546875 41.84375 41.421875 45.53125 
Q 43.3125 49.21875 43.3125 52.78125 
Q 43.3125 58.59375 39.234375 62.25 
Q 35.15625 65.921875 28.609375 65.921875 
Q 23.96875 65.921875 18.8125 64.3125 
Q 13.671875 62.703125 7.8125 59.421875 
L 7.8125 69.390625 
Q 13.765625 71.78125 18.9375 73 
Q 24.125 74.21875 28.421875 74.21875 
Q 39.75 74.21875 46.484375 68.546875 
Q 53.21875 62.890625 53.21875 53.421875 
Q 53.21875 48.921875 51.53125 44.890625 
Q 49.859375 40.875 45.40625 35.40625 
Q 44.1875 33.984375 37.640625 27.21875 
Q 31.109375 20.453125 19.1875 8.296875 
z
" id="DejaVuSans-50"/>
      </defs>
      <g transform="translate(142.224046 399.078438)scale(0.1 -0.1)">
       <use xlink:href="#DejaVuSans-55"/>
       <use x="63.623047" xlink:href="#DejaVuSans-50"/>
       <use x="127.246094" xlink:href="#DejaVuSans-48"/>
      </g>
     </g>
    </g>
    <g id="xtick_3">
     <g id="line2d_3">
      <g>
       <use style="stroke:#000000;stroke-width:0.8;" x="222.781046" xlink:href="#me2bd73d374" y="384.48"/>
      </g>
     </g>
     <g id="text_3">
      <!-- 1440 -->
      <defs>
       <path d="M 12.40625 8.296875 
L 28.515625 8.296875 
L 28.515625 63.921875 
L 10.984375 60.40625 
L 10.984375 69.390625 
L 28.421875 72.90625 
L 38.28125 72.90625 
L 38.28125 8.296875 
L 54.390625 8.296875 
L 54.390625 0 
L 12.40625 0 
z
" id="DejaVuSans-49"/>
       <path d="M 37.796875 64.3125 
L 12.890625 25.390625 
L 37.796875 25.390625 
z
M 35.203125 72.90625 
L 47.609375 72.90625 
L 47.609375 25.390625 
L 58.015625 25.390625 
L 58.015625 17.1875 
L 47.609375 17.1875 
L 47.609375 0 
L 37.796875 0 
L 37.796875 17.1875 
L 4.890625 17.1875 
L 4.890625 26.703125 
z
" id="DejaVuSans-52"/>
      </defs>
      <g transform="translate(210.056046 399.078438)scale(0.1 -0.1)">
       <use xlink:href="#DejaVuSans-49"/>
       <use x="63.623047" xlink:href="#DejaVuSans-52"/>
       <use x="127.246094" xlink:href="#DejaVuSans-52"/>
       <use x="190.869141" xlink:href="#DejaVuSans-48"/>
      </g>
     </g>
    </g>
    <g id="xtick_4">
     <g id="line2d_4">
      <g>
       <use style="stroke:#000000;stroke-width:0.8;" x="293.794296" xlink:href="#me2bd73d374" y="384.48"/>
      </g>
     </g>
     <g id="text_4">
      <!-- 2160 -->
      <defs>
       <path d="M 33.015625 40.375 
Q 26.375 40.375 22.484375 35.828125 
Q 18.609375 31.296875 18.609375 23.390625 
Q 18.609375 15.53125 22.484375 10.953125 
Q 26.375 6.390625 33.015625 6.390625 
Q 39.65625 6.390625 43.53125 10.953125 
Q 47.40625 15.53125 47.40625 23.390625 
Q 47.40625 31.296875 43.53125 35.828125 
Q 39.65625 40.375 33.015625 40.375 
z
M 52.59375 71.296875 
L 52.59375 62.3125 
Q 48.875 64.0625 45.09375 64.984375 
Q 41.3125 65.921875 37.59375 65.921875 
Q 27.828125 65.921875 22.671875 59.328125 
Q 17.53125 52.734375 16.796875 39.40625 
Q 19.671875 43.65625 24.015625 45.921875 
Q 28.375 48.1875 33.59375 48.1875 
Q 44.578125 48.1875 50.953125 41.515625 
Q 57.328125 34.859375 57.328125 23.390625 
Q 57.328125 12.15625 50.6875 5.359375 
Q 44.046875 -1.421875 33.015625 -1.421875 
Q 20.359375 -1.421875 13.671875 8.265625 
Q 6.984375 17.96875 6.984375 36.375 
Q 6.984375 53.65625 15.1875 63.9375 
Q 23.390625 74.21875 37.203125 74.21875 
Q 40.921875 74.21875 44.703125 73.484375 
Q 48.484375 72.75 52.59375 71.296875 
z
" id="DejaVuSans-54"/>
      </defs>
      <g transform="translate(281.069296 399.078438)scale(0.1 -0.1)">
       <use xlink:href="#DejaVuSans-50"/>
       <use x="63.623047" xlink:href="#DejaVuSans-49"/>
       <use x="127.246094" xlink:href="#DejaVuSans-54"/>
       <use x="190.869141" xlink:href="#DejaVuSans-48"/>
      </g>
     </g>
    </g>
    <g id="xtick_5">
     <g id="line2d_5">
      <g>
       <use style="stroke:#000000;stroke-width:0.8;" x="364.807547" xlink:href="#me2bd73d374" y="384.48"/>
      </g>
     </g>
     <g id="text_5">
      <!-- 2880 -->
      <defs>
       <path d="M 31.78125 34.625 
Q 24.75 34.625 20.71875 30.859375 
Q 16.703125 27.09375 16.703125 20.515625 
Q 16.703125 13.921875 20.71875 10.15625 
Q 24.75 6.390625 31.78125 6.390625 
Q 38.8125 6.390625 42.859375 10.171875 
Q 46.921875 13.96875 46.921875 20.515625 
Q 46.921875 27.09375 42.890625 30.859375 
Q 38.875 34.625 31.78125 34.625 
z
M 21.921875 38.8125 
Q 15.578125 40.375 12.03125 44.71875 
Q 8.5 49.078125 8.5 55.328125 
Q 8.5 64.0625 14.71875 69.140625 
Q 20.953125 74.21875 31.78125 74.21875 
Q 42.671875 74.21875 48.875 69.140625 
Q 55.078125 64.0625 55.078125 55.328125 
Q 55.078125 49.078125 51.53125 44.71875 
Q 48 40.375 41.703125 38.8125 
Q 48.828125 37.15625 52.796875 32.3125 
Q 56.78125 27.484375 56.78125 20.515625 
Q 56.78125 9.90625 50.3125 4.234375 
Q 43.84375 -1.421875 31.78125 -1.421875 
Q 19.734375 -1.421875 13.25 4.234375 
Q 6.78125 9.90625 6.78125 20.515625 
Q 6.78125 27.484375 10.78125 32.3125 
Q 14.796875 37.15625 21.921875 38.8125 
z
M 18.3125 54.390625 
Q 18.3125 48.734375 21.84375 45.5625 
Q 25.390625 42.390625 31.78125 42.390625 
Q 38.140625 42.390625 41.71875 45.5625 
Q 45.3125 48.734375 45.3125 54.390625 
Q 45.3125 60.0625 41.71875 63.234375 
Q 38.140625 66.40625 31.78125 66.40625 
Q 25.390625 66.40625 21.84375 63.234375 
Q 18.3125 60.0625 18.3125 54.390625 
z
" id="DejaVuSans-56"/>
      </defs>
      <g transform="translate(352.082547 399.078438)scale(0.1 -0.1)">
       <use xlink:href="#DejaVuSans-50"/>
       <use x="63.623047" xlink:href="#DejaVuSans-56"/>
       <use x="127.246094" xlink:href="#DejaVuSans-56"/>
       <use x="190.869141" xlink:href="#DejaVuSans-48"/>
      </g>
     </g>
    </g>
    <g id="text_6">
     <!-- time [ms] -->
     <defs>
      <path d="M 18.3125 70.21875 
L 18.3125 54.6875 
L 36.8125 54.6875 
L 36.8125 47.703125 
L 18.3125 47.703125 
L 18.3125 18.015625 
Q 18.3125 11.328125 20.140625 9.421875 
Q 21.96875 7.515625 27.59375 7.515625 
L 36.8125 7.515625 
L 36.8125 0 
L 27.59375 0 
Q 17.1875 0 13.234375 3.875 
Q 9.28125 7.765625 9.28125 18.015625 
L 9.28125 47.703125 
L 2.6875 47.703125 
L 2.6875 54.6875 
L 9.28125 54.6875 
L 9.28125 70.21875 
z
" id="DejaVuSans-116"/>
      <path d="M 9.421875 54.6875 
L 18.40625 54.6875 
L 18.40625 0 
L 9.421875 0 
z
M 9.421875 75.984375 
L 18.40625 75.984375 
L 18.40625 64.59375 
L 9.421875 64.59375 
z
" id="DejaVuSans-105"/>
      <path d="M 52 44.1875 
Q 55.375 50.25 60.0625 53.125 
Q 64.75 56 71.09375 56 
Q 79.640625 56 84.28125 50.015625 
Q 88.921875 44.046875 88.921875 33.015625 
L 88.921875 0 
L 79.890625 0 
L 79.890625 32.71875 
Q 79.890625 40.578125 77.09375 44.375 
Q 74.3125 48.1875 68.609375 48.1875 
Q 61.625 48.1875 57.5625 43.546875 
Q 53.515625 38.921875 53.515625 30.90625 
L 53.515625 0 
L 44.484375 0 
L 44.484375 32.71875 
Q 44.484375 40.625 41.703125 44.40625 
Q 38.921875 48.1875 33.109375 48.1875 
Q 26.21875 48.1875 22.15625 43.53125 
Q 18.109375 38.875 18.109375 30.90625 
L 18.109375 0 
L 9.078125 0 
L 9.078125 54.6875 
L 18.109375 54.6875 
L 18.109375 46.1875 
Q 21.1875 51.21875 25.484375 53.609375 
Q 29.78125 56 35.6875 56 
Q 41.65625 56 45.828125 52.96875 
Q 50 49.953125 52 44.1875 
z
" id="DejaVuSans-109"/>
      <path d="M 56.203125 29.59375 
L 56.203125 25.203125 
L 14.890625 25.203125 
Q 15.484375 15.921875 20.484375 11.0625 
Q 25.484375 6.203125 34.421875 6.203125 
Q 39.59375 6.203125 44.453125 7.46875 
Q 49.3125 8.734375 54.109375 11.28125 
L 54.109375 2.78125 
Q 49.265625 0.734375 44.1875 -0.34375 
Q 39.109375 -1.421875 33.890625 -1.421875 
Q 20.796875 -1.421875 13.15625 6.1875 
Q 5.515625 13.8125 5.515625 26.8125 
Q 5.515625 40.234375 12.765625 48.109375 
Q 20.015625 56 32.328125 56 
Q 43.359375 56 49.78125 48.890625 
Q 56.203125 41.796875 56.203125 29.59375 
z
M 47.21875 32.234375 
Q 47.125 39.59375 43.09375 43.984375 
Q 39.0625 48.390625 32.421875 48.390625 
Q 24.90625 48.390625 20.390625 44.140625 
Q 15.875 39.890625 15.1875 32.171875 
z
" id="DejaVuSans-101"/>
      <path id="DejaVuSans-32"/>
      <path d="M 8.59375 75.984375 
L 29.296875 75.984375 
L 29.296875 69 
L 17.578125 69 
L 17.578125 -6.203125 
L 29.296875 -6.203125 
L 29.296875 -13.1875 
L 8.59375 -13.1875 
z
" id="DejaVuSans-91"/>
      <path d="M 44.28125 53.078125 
L 44.28125 44.578125 
Q 40.484375 46.53125 36.375 47.5 
Q 32.28125 48.484375 27.875 48.484375 
Q 21.1875 48.484375 17.84375 46.4375 
Q 14.5 44.390625 14.5 40.28125 
Q 14.5 37.15625 16.890625 35.375 
Q 19.28125 33.59375 26.515625 31.984375 
L 29.59375 31.296875 
Q 39.15625 29.25 43.1875 25.515625 
Q 47.21875 21.78125 47.21875 15.09375 
Q 47.21875 7.46875 41.1875 3.015625 
Q 35.15625 -1.421875 24.609375 -1.421875 
Q 20.21875 -1.421875 15.453125 -0.5625 
Q 10.6875 0.296875 5.421875 2 
L 5.421875 11.28125 
Q 10.40625 8.6875 15.234375 7.390625 
Q 20.0625 6.109375 24.8125 6.109375 
Q 31.15625 6.109375 34.5625 8.28125 
Q 37.984375 10.453125 37.984375 14.40625 
Q 37.984375 18.0625 35.515625 20.015625 
Q 33.0625 21.96875 24.703125 23.78125 
L 21.578125 24.515625 
Q 13.234375 26.265625 9.515625 29.90625 
Q 5.8125 33.546875 5.8125 39.890625 
Q 5.8125 47.609375 11.28125 51.796875 
Q 16.75 56 26.8125 56 
Q 31.78125 56 36.171875 55.265625 
Q 40.578125 54.546875 44.28125 53.078125 
z
" id="DejaVuSans-115"/>
      <path d="M 30.421875 75.984375 
L 30.421875 -13.1875 
L 9.71875 -13.1875 
L 9.71875 -6.203125 
L 21.390625 -6.203125 
L 21.390625 69 
L 9.71875 69 
L 9.71875 75.984375 
z
" id="DejaVuSans-93"/>
     </defs>
     <g transform="translate(234.038281 412.756563)scale(0.1 -0.1)">
      <use xlink:href="#DejaVuSans-116"/>
      <use x="39.208984" xlink:href="#DejaVuSans-105"/>
      <use x="66.992188" xlink:href="#DejaVuSans-109"/>
      <use x="164.404297" xlink:href="#DejaVuSans-101"/>
      <use x="225.927734" xlink:href="#DejaVuSans-32"/>
      <use x="257.714844" xlink:href="#DejaVuSans-91"/>
      <use x="296.728516" xlink:href="#DejaVuSans-109"/>
      <use x="394.140625" xlink:href="#DejaVuSans-115"/>
      <use x="446.240234" xlink:href="#DejaVuSans-93"/>
     </g>
    </g>
   </g>
   <g id="matplotlib.axis_2">
    <g id="ytick_1">
     <g id="line2d_6">
      <defs>
       <path d="M 0 0 
L -3.5 0 
" id="m0b20986d73" style="stroke:#000000;stroke-width:0.8;"/>
      </defs>
      <g>
       <use style="stroke:#000000;stroke-width:0.8;" x="63" xlink:href="#m0b20986d73" y="371.353971"/>
      </g>
     </g>
     <g id="text_7">
      <!-- −80 -->
      <defs>
       <path d="M 10.59375 35.5 
L 73.1875 35.5 
L 73.1875 27.203125 
L 10.59375 27.203125 
z
" id="DejaVuSans-8722"/>
      </defs>
      <g transform="translate(34.895313 375.15319)scale(0.1 -0.1)">
       <use xlink:href="#DejaVuSans-8722"/>
       <use x="83.789062" xlink:href="#DejaVuSans-56"/>
       <use x="147.412109" xlink:href="#DejaVuSans-48"/>
      </g>
     </g>
    </g>
    <g id="ytick_2">
     <g id="line2d_7">
      <g>
       <use style="stroke:#000000;stroke-width:0.8;" x="63" xlink:href="#m0b20986d73" y="317.830755"/>
      </g>
     </g>
     <g id="text_8">
      <!-- −60 -->
      <g transform="translate(34.895313 321.629974)scale(0.1 -0.1)">
       <use xlink:href="#DejaVuSans-8722"/>
       <use x="83.789062" xlink:href="#DejaVuSans-54"/>
       <use x="147.412109" xlink:href="#DejaVuSans-48"/>
      </g>
     </g>
    </g>
    <g id="ytick_3">
     <g id="line2d_8">
      <g>
       <use style="stroke:#000000;stroke-width:0.8;" x="63" xlink:href="#m0b20986d73" y="264.307538"/>
      </g>
     </g>
     <g id="text_9">
      <!-- −40 -->
      <g transform="translate(34.895313 268.106757)scale(0.1 -0.1)">
       <use xlink:href="#DejaVuSans-8722"/>
       <use x="83.789062" xlink:href="#DejaVuSans-52"/>
       <use x="147.412109" xlink:href="#DejaVuSans-48"/>
      </g>
     </g>
    </g>
    <g id="ytick_4">
     <g id="line2d_9">
      <g>
       <use style="stroke:#000000;stroke-width:0.8;" x="63" xlink:href="#m0b20986d73" y="210.784321"/>
      </g>
     </g>
     <g id="text_10">
      <!-- −20 -->
      <g transform="translate(34.895313 214.58354)scale(0.1 -0.1)">
       <use xlink:href="#DejaVuSans-8722"/>
       <use x="83.789062" xlink:href="#DejaVuSans-50"/>
       <use x="147.412109" xlink:href="#DejaVuSans-48"/>
      </g>
     </g>
    </g>
    <g id="ytick_5">
     <g id="line2d_10">
      <g>
       <use style="stroke:#000000;stroke-width:0.8;" x="63" xlink:href="#m0b20986d73" y="157.261105"/>
      </g>
     </g>
     <g id="text_11">
      <!-- 0 -->
      <g transform="translate(49.6375 161.060323)scale(0.1 -0.1)">
       <use xlink:href="#DejaVuSans-48"/>
      </g>
     </g>
    </g>
    <g id="ytick_6">
     <g id="line2d_11">
      <g>
       <use style="stroke:#000000;stroke-width:0.8;" x="63" xlink:href="#m0b20986d73" y="103.737888"/>
      </g>
     </g>
     <g id="text_12">
      <!-- 20 -->
      <g transform="translate(43.275 107.537107)scale(0.1 -0.1)">
       <use xlink:href="#DejaVuSans-50"/>
       <use x="63.623047" xlink:href="#DejaVuSans-48"/>
      </g>
     </g>
    </g>
    <g id="text_13">
     <!-- Voltage [mV] -->
     <defs>
      <path d="M 28.609375 0 
L 0.78125 72.90625 
L 11.078125 72.90625 
L 34.1875 11.53125 
L 57.328125 72.90625 
L 67.578125 72.90625 
L 39.796875 0 
z
" id="DejaVuSans-86"/>
      <path d="M 30.609375 48.390625 
Q 23.390625 48.390625 19.1875 42.75 
Q 14.984375 37.109375 14.984375 27.296875 
Q 14.984375 17.484375 19.15625 11.84375 
Q 23.34375 6.203125 30.609375 6.203125 
Q 37.796875 6.203125 41.984375 11.859375 
Q 46.1875 17.53125 46.1875 27.296875 
Q 46.1875 37.015625 41.984375 42.703125 
Q 37.796875 48.390625 30.609375 48.390625 
z
M 30.609375 56 
Q 42.328125 56 49.015625 48.375 
Q 55.71875 40.765625 55.71875 27.296875 
Q 55.71875 13.875 49.015625 6.21875 
Q 42.328125 -1.421875 30.609375 -1.421875 
Q 18.84375 -1.421875 12.171875 6.21875 
Q 5.515625 13.875 5.515625 27.296875 
Q 5.515625 40.765625 12.171875 48.375 
Q 18.84375 56 30.609375 56 
z
" id="DejaVuSans-111"/>
      <path d="M 9.421875 75.984375 
L 18.40625 75.984375 
L 18.40625 0 
L 9.421875 0 
z
" id="DejaVuSans-108"/>
      <path d="M 34.28125 27.484375 
Q 23.390625 27.484375 19.1875 25 
Q 14.984375 22.515625 14.984375 16.5 
Q 14.984375 11.71875 18.140625 8.90625 
Q 21.296875 6.109375 26.703125 6.109375 
Q 34.1875 6.109375 38.703125 11.40625 
Q 43.21875 16.703125 43.21875 25.484375 
L 43.21875 27.484375 
z
M 52.203125 31.203125 
L 52.203125 0 
L 43.21875 0 
L 43.21875 8.296875 
Q 40.140625 3.328125 35.546875 0.953125 
Q 30.953125 -1.421875 24.3125 -1.421875 
Q 15.921875 -1.421875 10.953125 3.296875 
Q 6 8.015625 6 15.921875 
Q 6 25.140625 12.171875 29.828125 
Q 18.359375 34.515625 30.609375 34.515625 
L 43.21875 34.515625 
L 43.21875 35.40625 
Q 43.21875 41.609375 39.140625 45 
Q 35.0625 48.390625 27.6875 48.390625 
Q 23 48.390625 18.546875 47.265625 
Q 14.109375 46.140625 10.015625 43.890625 
L 10.015625 52.203125 
Q 14.9375 54.109375 19.578125 55.046875 
Q 24.21875 56 28.609375 56 
Q 40.484375 56 46.34375 49.84375 
Q 52.203125 43.703125 52.203125 31.203125 
z
" id="DejaVuSans-97"/>
      <path d="M 45.40625 27.984375 
Q 45.40625 37.75 41.375 43.109375 
Q 37.359375 48.484375 30.078125 48.484375 
Q 22.859375 48.484375 18.828125 43.109375 
Q 14.796875 37.75 14.796875 27.984375 
Q 14.796875 18.265625 18.828125 12.890625 
Q 22.859375 7.515625 30.078125 7.515625 
Q 37.359375 7.515625 41.375 12.890625 
Q 45.40625 18.265625 45.40625 27.984375 
z
M 54.390625 6.78125 
Q 54.390625 -7.171875 48.1875 -13.984375 
Q 42 -20.796875 29.203125 -20.796875 
Q 24.46875 -20.796875 20.265625 -20.09375 
Q 16.0625 -19.390625 12.109375 -17.921875 
L 12.109375 -9.1875 
Q 16.0625 -11.328125 19.921875 -12.34375 
Q 23.78125 -13.375 27.78125 -13.375 
Q 36.625 -13.375 41.015625 -8.765625 
Q 45.40625 -4.15625 45.40625 5.171875 
L 45.40625 9.625 
Q 42.625 4.78125 38.28125 2.390625 
Q 33.9375 0 27.875 0 
Q 17.828125 0 11.671875 7.65625 
Q 5.515625 15.328125 5.515625 27.984375 
Q 5.515625 40.671875 11.671875 48.328125 
Q 17.828125 56 27.875 56 
Q 33.9375 56 38.28125 53.609375 
Q 42.625 51.21875 45.40625 46.390625 
L 45.40625 54.6875 
L 54.390625 54.6875 
z
" id="DejaVuSans-103"/>
     </defs>
     <g transform="translate(28.815625 251.079531)rotate(-90)scale(0.1 -0.1)">
      <use xlink:href="#DejaVuSans-86"/>
      <use x="68.298828" xlink:href="#DejaVuSans-111"/>
      <use x="129.480469" xlink:href="#DejaVuSans-108"/>
      <use x="157.263672" xlink:href="#DejaVuSans-116"/>
      <use x="196.472656" xlink:href="#DejaVuSans-97"/>
      <use x="257.751953" xlink:href="#DejaVuSans-103"/>
      <use x="321.228516" xlink:href="#DejaVuSans-101"/>
      <use x="382.751953" xlink:href="#DejaVuSans-32"/>
      <use x="414.539062" xlink:href="#DejaVuSans-91"/>
      <use x="453.552734" xlink:href="#DejaVuSans-109"/>
      <use x="550.964844" xlink:href="#DejaVuSans-86"/>
      <use x="619.373047" xlink:href="#DejaVuSans-93"/>
     </g>
    </g>
   </g>
   <g id="line2d_12">
    <path clip-path="url(#p5d721a5ebe)" d="M 80.754545 331.211559 
L 80.932079 331.218511 
L 82.199468 331.732953 
L 83.358365 331.835157 
L 86.588481 331.807635 
L 98.162655 331.754544 
L 100.480448 331.753252 
L 100.633324 347.282477 
L 100.958801 357.945108 
L 101.373045 365.047795 
L 101.752769 368.25073 
L 102.053589 369.242174 
L 102.25578 369.352999 
L 102.438244 369.171252 
L 102.734133 368.486304 
L 103.385088 366.253174 
L 104.267822 363.504971 
L 104.908914 362.202187 
L 105.510554 361.452755 
L 106.136851 361.017578 
L 106.871641 360.784316 
L 107.926977 360.705653 
L 112.621742 360.804494 
L 130.069303 360.800322 
L 130.222178 345.52538 
L 130.537793 335.817754 
L 130.937242 329.64844 
L 131.336692 326.554329 
L 131.706553 325.201067 
L 132.036961 324.708456 
L 132.33285 324.618376 
L 132.66819 324.764417 
L 133.181064 325.269749 
L 136.568988 329.109083 
L 137.762405 329.903125 
L 139.088972 330.515844 
L 139.932254 330.796606 
L 139.937186 331.211559 
L 140.045678 331.190226 
L 140.514168 331.444321 
L 141.278547 331.712328 
L 142.363472 331.829464 
L 144.991948 331.819381 
L 156.0927 331.755601 
L 159.663088 331.753252 
L 159.815964 328.645387 
L 160.141442 326.509823 
L 160.575411 325.005256 
L 161.03897 324.139528 
L 161.532118 323.66484 
L 162.114032 323.416244 
L 162.922794 323.33145 
L 164.555112 323.434277 
L 169.042755 323.724423 
L 175.24162 323.846391 
L 189.251943 323.886768 
L 189.404818 326.998571 
L 189.730296 329.130238 
L 190.164266 330.625027 
L 190.627824 331.486152 
L 191.120972 331.959116 
L 191.697955 332.205002 
L 192.506717 332.288361 
L 194.143967 332.181439 
L 198.429419 331.903713 
L 199.114894 331.880353 
L 199.188866 331.183695 
L 199.228318 331.190226 
L 199.696808 331.444321 
L 200.461187 331.712328 
L 201.546112 331.829464 
L 204.174588 331.819381 
L 215.27534 331.755601 
L 218.845729 331.753252 
L 218.998604 325.535908 
L 219.324082 321.254886 
L 219.758052 318.22462 
L 220.216679 316.458685 
L 220.695032 315.438351 
L 221.207905 314.844183 
L 221.794751 314.501431 
L 222.539404 314.33371 
L 223.486247 314.354759 
L 224.595829 314.60955 
L 227.37225 315.351524 
L 229.487853 315.583918 
L 233.339336 315.750786 
L 241.584763 315.847869 
L 248.434583 315.865507 
L 248.59239 322.226866 
L 248.917867 326.476849 
L 249.346906 329.421762 
L 249.79567 331.095843 
L 250.249366 332.002581 
L 250.722788 332.479232 
L 251.255387 332.702603 
L 251.980314 332.747431 
L 253.380853 332.562987 
L 256.724394 332.128168 
L 258.297534 332.012957 
L 258.371506 331.183695 
L 258.410958 331.190226 
L 258.879448 331.444321 
L 259.643827 331.712328 
L 260.728752 331.829464 
L 263.357228 331.819381 
L 274.45798 331.755601 
L 278.028369 331.753252 
L 278.181244 322.423807 
L 278.511653 315.89591 
L 278.960418 311.109182 
L 279.640961 304.94218 
L 279.665619 249.588202 
L 279.710002 68.475528 
L 279.793837 192.614421 
L 279.986164 314.99295 
L 280.153835 319.86774 
L 280.208081 319.973561 
L 280.262327 319.868878 
L 280.429997 318.91517 
L 281.687524 310.58287 
L 282.225054 308.872759 
L 282.831626 307.675088 
L 283.586142 306.238144 
L 283.689703 305.45187 
L 283.704497 303.642249 
L 283.739017 210.197364 
L 283.773538 74.736144 
L 283.852441 185.997051 
L 284.0497 314.700469 
L 284.222302 319.618894 
L 284.286411 319.757326 
L 284.340658 319.669548 
L 284.503396 318.866627 
L 285.805306 311.273121 
L 286.318179 309.929396 
L 286.85571 309.113041 
L 287.462282 308.58785 
L 288.231592 308.224285 
L 289.351037 307.960544 
L 291.294038 307.760928 
L 295.663326 307.582525 
L 301.650137 307.297229 
L 302.498351 307.056977 
L 302.818897 306.756576 
L 302.966841 306.311921 
L 303.011225 305.494444 
L 303.026019 294.905654 
L 303.090128 78.456731 
L 303.1641 181.630773 
L 303.361359 312.428738 
L 303.538893 318.088487 
L 303.637522 318.385827 
L 303.681905 318.343343 
L 303.824918 317.847543 
L 304.352586 314.82214 
L 304.954226 312.089224 
L 305.476962 310.684729 
L 306.014493 309.848453 
L 306.621065 309.310205 
L 307.400238 308.927475 
L 307.617223 308.854396 
L 307.77503 318.405889 
L 308.095576 324.60151 
L 308.514752 328.754072 
L 308.953653 331.079757 
L 309.392554 332.318841 
L 309.836387 332.958574 
L 310.304877 333.259552 
L 310.871997 333.350835 
L 311.744868 333.237976 
L 316.799631 332.28755 
L 317.480174 332.218542 
L 317.554146 331.183695 
L 317.593598 331.190226 
L 318.062088 331.444321 
L 318.826467 331.712328 
L 319.911392 331.829464 
L 322.539868 331.819381 
L 333.64062 331.755601 
L 337.211009 331.753252 
L 337.363884 319.307666 
L 337.694293 310.495054 
L 338.266345 299.09502 
L 338.291002 240.558887 
L 338.335385 67.558669 
L 338.414289 189.883591 
L 338.606616 311.970735 
L 338.769355 316.258623 
L 338.789081 316.256235 
L 338.81867 316.179375 
L 338.956751 315.166108 
L 340.692631 297.429782 
L 340.712356 292.151734 
L 340.776466 72.664637 
L 340.865232 205.263776 
L 341.047697 314.943875 
L 341.205504 318.705012 
L 341.210436 318.704507 
L 341.264682 318.53365 
L 341.437283 316.956676 
L 342.586317 305.090795 
L 343.557818 297.601165 
L 343.577544 291.549734 
L 343.641653 77.68715 
L 343.725488 194.863167 
L 343.917816 312.59612 
L 344.085486 316.689891 
L 344.110143 316.693679 
L 344.144664 316.610229 
L 344.287676 315.646133 
L 345.73753 303.767567 
L 346.689305 298.531599 
L 346.733688 295.441743 
L 346.768209 192.714432 
L 346.802729 81.657463 
L 346.876701 177.831819 
L 347.078892 310.463374 
L 347.246562 315.154779 
L 347.290945 315.22995 
L 347.345191 315.11657 
L 347.512861 314.064457 
L 348.819703 304.437539 
L 349.490383 301.824034 
L 349.998325 299.659159 
L 350.121612 297.964668 
L 350.141338 295.328818 
L 350.18079 164.066302 
L 350.21531 84.393481 
L 350.284351 176.148404 
L 350.486541 308.965017 
L 350.659143 314.07865 
L 350.718321 314.215986 
L 350.777498 314.11284 
L 350.945169 313.189911 
L 352.325982 304.170252 
L 353.011457 301.84898 
L 353.548988 299.879335 
L 353.687069 298.463159 
L 353.716658 296.828987 
L 353.741315 242.309992 
L 353.795562 86.378318 
L 353.869534 182.903939 
L 354.071724 308.421456 
L 354.244326 313.39721 
L 354.318298 313.577694 
L 354.372544 313.491831 
L 354.530351 312.72412 
L 356.059109 303.704025 
L 356.853076 301.330726 
L 357.242663 299.854789 
L 357.375813 298.383923 
L 357.40047 296.60324 
L 357.430059 224.820846 
L 357.474442 87.581499 
L 357.548415 176.99859 
L 357.750605 307.430847 
L 357.928138 312.950906 
L 358.011973 313.188045 
L 358.06622 313.114453 
L 358.219095 312.431664 
L 358.90457 307.704986 
L 359.50621 304.649161 
L 360.142371 302.553252 
L 360.980722 299.908011 
L 361.113872 298.517368 
L 361.14346 295.966894 
L 361.177981 198.597731 
L 361.217433 88.326612 
L 361.291405 178.932213 
L 361.493595 306.986995 
L 361.671128 312.57139 
L 361.764826 312.855119 
L 361.814141 312.796836 
L 361.962085 312.191765 
L 362.484822 308.680057 
L 363.125914 305.16465 
L 363.737417 303.016895 
L 364.802615 299.597019 
L 364.901245 297.993713 
L 364.920971 290.165037 
L 364.990011 89.013406 
L 365.063984 180.537169 
L 365.266174 306.674479 
L 365.443707 312.267414 
L 365.547268 312.588542 
L 365.591651 312.539067 
L 365.734664 311.993636 
L 366.198223 308.986609 
L 366.799863 305.584479 
L 366.952739 317.527242 
L 367.253559 324.498066 
L 367.653008 329.064378 
L 368.077115 331.617644 
L 368.506154 332.974884 
L 368.930261 333.648971 
L 369.369162 333.953164 
L 369.882035 334.032206 
L 370.636551 333.897546 
L 376.016791 332.513452 
L 376.662814 332.423702 
L 376.736787 331.183695 
L 376.776238 331.190226 
L 377.244729 331.444321 
L 378.009107 331.712328 
L 379.094032 331.829464 
L 381.722509 331.819381 
L 392.82326 331.755601 
L 396.393649 331.753252 
L 396.546525 316.185358 
L 396.891728 304.470852 
L 397.143233 295.52794 
L 397.158028 277.361539 
L 397.212274 66.96 
L 397.291177 188.600501 
L 397.483505 308.759797 
L 397.626518 312.51789 
L 397.641312 312.498828 
L 397.720216 311.989054 
L 398.006241 308.147224 
L 398.913633 292.941988 
L 398.948153 285.695003 
L 399.007331 71.548075 
L 399.091166 195.936218 
L 399.278562 315.368197 
L 399.396918 318.193111 
L 399.426506 318.113889 
L 399.53993 316.92544 
L 400.082393 307.614191 
L 400.999647 291.351623 
L 401.019373 270.08597 
L 401.073619 77.003508 
L 401.152523 186.501249 
L 401.349782 313.202078 
L 401.478 316.179084 
L 401.502658 316.13403 
L 401.601287 315.319207 
L 401.981011 309.585639 
L 402.740458 299.325169 
L 403.085661 293.957321 
L 403.139908 290.033008 
L 403.159633 246.784629 
L 403.208948 80.672248 
L 403.287852 186.027337 
L 403.485111 311.371657 
L 403.628124 314.716973 
L 403.642918 314.702366 
L 403.71689 314.283478 
L 403.968396 311.143752 
L 404.915239 299.115693 
L 405.270305 294.086943 
L 405.334414 289.203061 
L 405.364003 206.748965 
L 405.403455 83.228327 
L 405.477427 180.012054 
L 405.679618 309.915839 
L 405.837425 313.520508 
L 405.842356 313.517816 
L 405.901534 313.292691 
L 406.08893 311.406726 
L 407.553578 292.08427 
L 407.578236 283.235374 
L 407.642345 85.219072 
L 407.716317 180.728599 
L 407.918508 308.955174 
L 408.081246 312.752626 
L 408.12563 312.665273 
L 408.258779 311.657346 
L 408.855488 304.505168 
L 409.822057 292.430632 
L 409.851646 282.880374 
L 409.915755 86.594605 
L 409.989727 179.775676 
L 410.191918 308.133147 
L 410.354657 312.17931 
L 410.374382 312.186225 
L 410.413834 312.088306 
L 410.556847 311.022307 
L 411.967249 296.044145 
L 412.120125 292.636343 
L 412.149714 287.226446 
L 412.218754 87.574149 
L 412.307521 200.471027 
L 412.499848 307.937171 
L 412.667519 311.777665 
L 412.692176 311.773965 
L 412.721765 311.699102 
L 412.859846 310.746642 
L 413.422034 304.522418 
L 414.447781 292.42605 
L 414.472439 288.057075 
L 414.541479 88.163765 
L 414.635177 204.945064 
L 414.827505 307.706695 
L 414.995175 311.418177 
L 415.019833 311.42154 
L 415.054353 311.340089 
L 415.192434 310.417606 
L 415.739828 304.532679 
L 416.785301 292.450452 
L 416.809958 288.148654 
L 416.878999 88.590526 
L 416.977628 210.416681 
L 417.165025 307.363696 
L 417.332695 311.176077 
L 417.357352 311.190683 
L 417.401735 311.090407 
L 417.54968 310.083708 
L 418.230223 302.967351 
L 419.112957 293.429862 
L 419.157341 288.734172 
L 419.201724 127.05129 
L 419.226381 88.924794 
L 419.295422 170.697382 
L 419.502544 306.262077 
L 419.670214 310.940803 
L 419.704735 310.995043 
L 419.758981 310.876674 
L 419.916788 309.779731 
L 421.346916 295.813833 
L 421.484997 292.684731 
L 421.514586 287.027938 
L 421.583627 89.099145 
L 421.667462 192.79794 
L 421.864721 306.59839 
L 422.032391 310.861113 
L 422.066911 310.902269 
L 422.116226 310.792846 
L 422.269102 309.762738 
L 423.620326 296.834259 
L 423.827448 293.559092 
L 423.871832 289.992294 
L 423.896489 231.127265 
L 423.945804 89.190996 
L 424.019776 179.184942 
L 424.226898 306.412145 
L 424.394568 310.765535 
L 424.429088 310.81586 
L 424.483334 310.699403 
L 424.641142 309.62767 
L 425.982503 296.878791 
L 425.987435 298.50139 
L 426.164968 313.836328 
L 426.480582 322.746477 
L 426.880032 328.325625 
L 427.304139 331.435512 
L 427.728246 333.069151 
L 428.147421 333.888455 
L 428.571528 334.263026 
L 429.040018 334.380724 
L 429.676178 334.291528 
L 430.987951 333.825448 
L 433.246567 333.081117 
L 435.416416 332.6188 
L 435.845455 332.550259 
L 435.845455 332.550259 
" style="fill:none;stroke:#ff0000;stroke-linecap:square;stroke-width:1.5;"/>
   </g>
   <g id="patch_3">
    <path d="M 63 384.48 
L 63 51.84 
" style="fill:none;stroke:#000000;stroke-linecap:square;stroke-linejoin:miter;stroke-width:0.8;"/>
   </g>
   <g id="patch_4">
    <path d="M 453.6 384.48 
L 453.6 51.84 
" style="fill:none;stroke:#000000;stroke-linecap:square;stroke-linejoin:miter;stroke-width:0.8;"/>
   </g>
   <g id="patch_5">
    <path d="M 63 384.48 
L 453.6 384.48 
" style="fill:none;stroke:#000000;stroke-linecap:square;stroke-linejoin:miter;stroke-width:0.8;"/>
   </g>
   <g id="patch_6">
    <path d="M 63 51.84 
L 453.6 51.84 
" style="fill:none;stroke:#000000;stroke-linecap:square;stroke-linejoin:miter;stroke-width:0.8;"/>
   </g>
   <g id="legend_1">
    <g id="patch_7">
     <path d="M 70 74.518125 
L 133.139062 74.518125 
Q 135.139062 74.518125 135.139062 72.518125 
L 135.139062 58.84 
Q 135.139062 56.84 133.139062 56.84 
L 70 56.84 
Q 68 56.84 68 58.84 
L 68 72.518125 
Q 68 74.518125 70 74.518125 
z
" style="fill:#ffffff;opacity:0.8;stroke:#cccccc;stroke-linejoin:miter;"/>
    </g>
    <g id="line2d_13">
     <path d="M 72 64.938438 
L 92 64.938438 
" style="fill:none;stroke:#ff0000;stroke-linecap:square;stroke-width:1.5;"/>
    </g>
    <g id="line2d_14"/>
    <g id="text_14">
     <!-- model -->
     <defs>
      <path d="M 45.40625 46.390625 
L 45.40625 75.984375 
L 54.390625 75.984375 
L 54.390625 0 
L 45.40625 0 
L 45.40625 8.203125 
Q 42.578125 3.328125 38.25 0.953125 
Q 33.9375 -1.421875 27.875 -1.421875 
Q 17.96875 -1.421875 11.734375 6.484375 
Q 5.515625 14.40625 5.515625 27.296875 
Q 5.515625 40.1875 11.734375 48.09375 
Q 17.96875 56 27.875 56 
Q 33.9375 56 38.25 53.625 
Q 42.578125 51.265625 45.40625 46.390625 
z
M 14.796875 27.296875 
Q 14.796875 17.390625 18.875 11.75 
Q 22.953125 6.109375 30.078125 6.109375 
Q 37.203125 6.109375 41.296875 11.75 
Q 45.40625 17.390625 45.40625 27.296875 
Q 45.40625 37.203125 41.296875 42.84375 
Q 37.203125 48.484375 30.078125 48.484375 
Q 22.953125 48.484375 18.875 42.84375 
Q 14.796875 37.203125 14.796875 27.296875 
z
" id="DejaVuSans-100"/>
     </defs>
     <g transform="translate(100 68.438438)scale(0.1 -0.1)">
      <use xlink:href="#DejaVuSans-109"/>
      <use x="97.412109" xlink:href="#DejaVuSans-111"/>
      <use x="158.59375" xlink:href="#DejaVuSans-100"/>
      <use x="222.070312" xlink:href="#DejaVuSans-101"/>
      <use x="283.59375" xlink:href="#DejaVuSans-108"/>
     </g>
    </g>
   </g>
  </g>
 </g>
 <defs>
  <clipPath id="p5d721a5ebe">
   <rect height="332.64" width="390.6" x="63" y="51.84"/>
  </clipPath>
 </defs>
</svg>
