<?xml version="1.0" encoding="utf-8" standalone="no"?>
<!DOCTYPE svg PUBLIC "-//W3C//DTD SVG 1.1//EN"
  "http://www.w3.org/Graphics/SVG/1.1/DTD/svg11.dtd">
<!-- Created with matplotlib (https://matplotlib.org/) -->
<svg height="432pt" version="1.1" viewBox="0 0 504 432" width="504pt" xmlns="http://www.w3.org/2000/svg" xmlns:xlink="http://www.w3.org/1999/xlink">
 <defs>
  <style type="text/css">
*{stroke-linecap:butt;stroke-linejoin:round;}
  </style>
 </defs>
 <g id="figure_1">
  <g id="patch_1">
   <path d="M 0 432 
L 504 432 
L 504 0 
L 0 0 
z
" style="fill:#ffffff;"/>
  </g>
  <g id="axes_1">
   <g id="patch_2">
    <path d="M 63 384.48 
L 453.6 384.48 
L 453.6 51.84 
L 63 51.84 
z
" style="fill:#ffffff;"/>
   </g>
   <g id="matplotlib.axis_1">
    <g id="xtick_1">
     <g id="line2d_1">
      <defs>
       <path d="M 0 0 
L 0 3.5 
" id="m538d53c63d" style="stroke:#000000;stroke-width:0.8;"/>
      </defs>
      <g>
       <use style="stroke:#000000;stroke-width:0.8;" x="80.754545" xlink:href="#m538d53c63d" y="384.48"/>
      </g>
     </g>
     <g id="text_1">
      <!-- 0 -->
      <defs>
       <path d="M 31.78125 66.40625 
Q 24.171875 66.40625 20.328125 58.90625 
Q 16.5 51.421875 16.5 36.375 
Q 16.5 21.390625 20.328125 13.890625 
Q 24.171875 6.390625 31.78125 6.390625 
Q 39.453125 6.390625 43.28125 13.890625 
Q 47.125 21.390625 47.125 36.375 
Q 47.125 51.421875 43.28125 58.90625 
Q 39.453125 66.40625 31.78125 66.40625 
z
M 31.78125 74.21875 
Q 44.046875 74.21875 50.515625 64.515625 
Q 56.984375 54.828125 56.984375 36.375 
Q 56.984375 17.96875 50.515625 8.265625 
Q 44.046875 -1.421875 31.78125 -1.421875 
Q 19.53125 -1.421875 13.0625 8.265625 
Q 6.59375 17.96875 6.59375 36.375 
Q 6.59375 54.828125 13.0625 64.515625 
Q 19.53125 74.21875 31.78125 74.21875 
z
" id="DejaVuSans-48"/>
      </defs>
      <g transform="translate(77.573295 399.078438)scale(0.1 -0.1)">
       <use xlink:href="#DejaVuSans-48"/>
      </g>
     </g>
    </g>
    <g id="xtick_2">
     <g id="line2d_2">
      <g>
       <use style="stroke:#000000;stroke-width:0.8;" x="151.772727" xlink:href="#m538d53c63d" y="384.48"/>
      </g>
     </g>
     <g id="text_2">
      <!-- 200 -->
      <defs>
       <path d="M 19.1875 8.296875 
L 53.609375 8.296875 
L 53.609375 0 
L 7.328125 0 
L 7.328125 8.296875 
Q 12.9375 14.109375 22.625 23.890625 
Q 32.328125 33.6875 34.8125 36.53125 
Q 39.546875 41.84375 41.421875 45.53125 
Q 43.3125 49.21875 43.3125 52.78125 
Q 43.3125 58.59375 39.234375 62.25 
Q 35.15625 65.921875 28.609375 65.921875 
Q 23.96875 65.921875 18.8125 64.3125 
Q 13.671875 62.703125 7.8125 59.421875 
L 7.8125 69.390625 
Q 13.765625 71.78125 18.9375 73 
Q 24.125 74.21875 28.421875 74.21875 
Q 39.75 74.21875 46.484375 68.546875 
Q 53.21875 62.890625 53.21875 53.421875 
Q 53.21875 48.921875 51.53125 44.890625 
Q 49.859375 40.875 45.40625 35.40625 
Q 44.1875 33.984375 37.640625 27.21875 
Q 31.109375 20.453125 19.1875 8.296875 
z
" id="DejaVuSans-50"/>
      </defs>
      <g transform="translate(142.228977 399.078438)scale(0.1 -0.1)">
       <use xlink:href="#DejaVuSans-50"/>
       <use x="63.623047" xlink:href="#DejaVuSans-48"/>
       <use x="127.246094" xlink:href="#DejaVuSans-48"/>
      </g>
     </g>
    </g>
    <g id="xtick_3">
     <g id="line2d_3">
      <g>
       <use style="stroke:#000000;stroke-width:0.8;" x="222.790909" xlink:href="#m538d53c63d" y="384.48"/>
      </g>
     </g>
     <g id="text_3">
      <!-- 400 -->
      <defs>
       <path d="M 37.796875 64.3125 
L 12.890625 25.390625 
L 37.796875 25.390625 
z
M 35.203125 72.90625 
L 47.609375 72.90625 
L 47.609375 25.390625 
L 58.015625 25.390625 
L 58.015625 17.1875 
L 47.609375 17.1875 
L 47.609375 0 
L 37.796875 0 
L 37.796875 17.1875 
L 4.890625 17.1875 
L 4.890625 26.703125 
z
" id="DejaVuSans-52"/>
      </defs>
      <g transform="translate(213.247159 399.078438)scale(0.1 -0.1)">
       <use xlink:href="#DejaVuSans-52"/>
       <use x="63.623047" xlink:href="#DejaVuSans-48"/>
       <use x="127.246094" xlink:href="#DejaVuSans-48"/>
      </g>
     </g>
    </g>
    <g id="xtick_4">
     <g id="line2d_4">
      <g>
       <use style="stroke:#000000;stroke-width:0.8;" x="293.809091" xlink:href="#m538d53c63d" y="384.48"/>
      </g>
     </g>
     <g id="text_4">
      <!-- 600 -->
      <defs>
       <path d="M 33.015625 40.375 
Q 26.375 40.375 22.484375 35.828125 
Q 18.609375 31.296875 18.609375 23.390625 
Q 18.609375 15.53125 22.484375 10.953125 
Q 26.375 6.390625 33.015625 6.390625 
Q 39.65625 6.390625 43.53125 10.953125 
Q 47.40625 15.53125 47.40625 23.390625 
Q 47.40625 31.296875 43.53125 35.828125 
Q 39.65625 40.375 33.015625 40.375 
z
M 52.59375 71.296875 
L 52.59375 62.3125 
Q 48.875 64.0625 45.09375 64.984375 
Q 41.3125 65.921875 37.59375 65.921875 
Q 27.828125 65.921875 22.671875 59.328125 
Q 17.53125 52.734375 16.796875 39.40625 
Q 19.671875 43.65625 24.015625 45.921875 
Q 28.375 48.1875 33.59375 48.1875 
Q 44.578125 48.1875 50.953125 41.515625 
Q 57.328125 34.859375 57.328125 23.390625 
Q 57.328125 12.15625 50.6875 5.359375 
Q 44.046875 -1.421875 33.015625 -1.421875 
Q 20.359375 -1.421875 13.671875 8.265625 
Q 6.984375 17.96875 6.984375 36.375 
Q 6.984375 53.65625 15.1875 63.9375 
Q 23.390625 74.21875 37.203125 74.21875 
Q 40.921875 74.21875 44.703125 73.484375 
Q 48.484375 72.75 52.59375 71.296875 
z
" id="DejaVuSans-54"/>
      </defs>
      <g transform="translate(284.265341 399.078438)scale(0.1 -0.1)">
       <use xlink:href="#DejaVuSans-54"/>
       <use x="63.623047" xlink:href="#DejaVuSans-48"/>
       <use x="127.246094" xlink:href="#DejaVuSans-48"/>
      </g>
     </g>
    </g>
    <g id="xtick_5">
     <g id="line2d_5">
      <g>
       <use style="stroke:#000000;stroke-width:0.8;" x="364.827273" xlink:href="#m538d53c63d" y="384.48"/>
      </g>
     </g>
     <g id="text_5">
      <!-- 800 -->
      <defs>
       <path d="M 31.78125 34.625 
Q 24.75 34.625 20.71875 30.859375 
Q 16.703125 27.09375 16.703125 20.515625 
Q 16.703125 13.921875 20.71875 10.15625 
Q 24.75 6.390625 31.78125 6.390625 
Q 38.8125 6.390625 42.859375 10.171875 
Q 46.921875 13.96875 46.921875 20.515625 
Q 46.921875 27.09375 42.890625 30.859375 
Q 38.875 34.625 31.78125 34.625 
z
M 21.921875 38.8125 
Q 15.578125 40.375 12.03125 44.71875 
Q 8.5 49.078125 8.5 55.328125 
Q 8.5 64.0625 14.71875 69.140625 
Q 20.953125 74.21875 31.78125 74.21875 
Q 42.671875 74.21875 48.875 69.140625 
Q 55.078125 64.0625 55.078125 55.328125 
Q 55.078125 49.078125 51.53125 44.71875 
Q 48 40.375 41.703125 38.8125 
Q 48.828125 37.15625 52.796875 32.3125 
Q 56.78125 27.484375 56.78125 20.515625 
Q 56.78125 9.90625 50.3125 4.234375 
Q 43.84375 -1.421875 31.78125 -1.421875 
Q 19.734375 -1.421875 13.25 4.234375 
Q 6.78125 9.90625 6.78125 20.515625 
Q 6.78125 27.484375 10.78125 32.3125 
Q 14.796875 37.15625 21.921875 38.8125 
z
M 18.3125 54.390625 
Q 18.3125 48.734375 21.84375 45.5625 
Q 25.390625 42.390625 31.78125 42.390625 
Q 38.140625 42.390625 41.71875 45.5625 
Q 45.3125 48.734375 45.3125 54.390625 
Q 45.3125 60.0625 41.71875 63.234375 
Q 38.140625 66.40625 31.78125 66.40625 
Q 25.390625 66.40625 21.84375 63.234375 
Q 18.3125 60.0625 18.3125 54.390625 
z
" id="DejaVuSans-56"/>
      </defs>
      <g transform="translate(355.283523 399.078438)scale(0.1 -0.1)">
       <use xlink:href="#DejaVuSans-56"/>
       <use x="63.623047" xlink:href="#DejaVuSans-48"/>
       <use x="127.246094" xlink:href="#DejaVuSans-48"/>
      </g>
     </g>
    </g>
    <g id="text_6">
     <!-- time [ms] -->
     <defs>
      <path d="M 18.3125 70.21875 
L 18.3125 54.6875 
L 36.8125 54.6875 
L 36.8125 47.703125 
L 18.3125 47.703125 
L 18.3125 18.015625 
Q 18.3125 11.328125 20.140625 9.421875 
Q 21.96875 7.515625 27.59375 7.515625 
L 36.8125 7.515625 
L 36.8125 0 
L 27.59375 0 
Q 17.1875 0 13.234375 3.875 
Q 9.28125 7.765625 9.28125 18.015625 
L 9.28125 47.703125 
L 2.6875 47.703125 
L 2.6875 54.6875 
L 9.28125 54.6875 
L 9.28125 70.21875 
z
" id="DejaVuSans-116"/>
      <path d="M 9.421875 54.6875 
L 18.40625 54.6875 
L 18.40625 0 
L 9.421875 0 
z
M 9.421875 75.984375 
L 18.40625 75.984375 
L 18.40625 64.59375 
L 9.421875 64.59375 
z
" id="DejaVuSans-105"/>
      <path d="M 52 44.1875 
Q 55.375 50.25 60.0625 53.125 
Q 64.75 56 71.09375 56 
Q 79.640625 56 84.28125 50.015625 
Q 88.921875 44.046875 88.921875 33.015625 
L 88.921875 0 
L 79.890625 0 
L 79.890625 32.71875 
Q 79.890625 40.578125 77.09375 44.375 
Q 74.3125 48.1875 68.609375 48.1875 
Q 61.625 48.1875 57.5625 43.546875 
Q 53.515625 38.921875 53.515625 30.90625 
L 53.515625 0 
L 44.484375 0 
L 44.484375 32.71875 
Q 44.484375 40.625 41.703125 44.40625 
Q 38.921875 48.1875 33.109375 48.1875 
Q 26.21875 48.1875 22.15625 43.53125 
Q 18.109375 38.875 18.109375 30.90625 
L 18.109375 0 
L 9.078125 0 
L 9.078125 54.6875 
L 18.109375 54.6875 
L 18.109375 46.1875 
Q 21.1875 51.21875 25.484375 53.609375 
Q 29.78125 56 35.6875 56 
Q 41.65625 56 45.828125 52.96875 
Q 50 49.953125 52 44.1875 
z
" id="DejaVuSans-109"/>
      <path d="M 56.203125 29.59375 
L 56.203125 25.203125 
L 14.890625 25.203125 
Q 15.484375 15.921875 20.484375 11.0625 
Q 25.484375 6.203125 34.421875 6.203125 
Q 39.59375 6.203125 44.453125 7.46875 
Q 49.3125 8.734375 54.109375 11.28125 
L 54.109375 2.78125 
Q 49.265625 0.734375 44.1875 -0.34375 
Q 39.109375 -1.421875 33.890625 -1.421875 
Q 20.796875 -1.421875 13.15625 6.1875 
Q 5.515625 13.8125 5.515625 26.8125 
Q 5.515625 40.234375 12.765625 48.109375 
Q 20.015625 56 32.328125 56 
Q 43.359375 56 49.78125 48.890625 
Q 56.203125 41.796875 56.203125 29.59375 
z
M 47.21875 32.234375 
Q 47.125 39.59375 43.09375 43.984375 
Q 39.0625 48.390625 32.421875 48.390625 
Q 24.90625 48.390625 20.390625 44.140625 
Q 15.875 39.890625 15.1875 32.171875 
z
" id="DejaVuSans-101"/>
      <path id="DejaVuSans-32"/>
      <path d="M 8.59375 75.984375 
L 29.296875 75.984375 
L 29.296875 69 
L 17.578125 69 
L 17.578125 -6.203125 
L 29.296875 -6.203125 
L 29.296875 -13.1875 
L 8.59375 -13.1875 
z
" id="DejaVuSans-91"/>
      <path d="M 44.28125 53.078125 
L 44.28125 44.578125 
Q 40.484375 46.53125 36.375 47.5 
Q 32.28125 48.484375 27.875 48.484375 
Q 21.1875 48.484375 17.84375 46.4375 
Q 14.5 44.390625 14.5 40.28125 
Q 14.5 37.15625 16.890625 35.375 
Q 19.28125 33.59375 26.515625 31.984375 
L 29.59375 31.296875 
Q 39.15625 29.25 43.1875 25.515625 
Q 47.21875 21.78125 47.21875 15.09375 
Q 47.21875 7.46875 41.1875 3.015625 
Q 35.15625 -1.421875 24.609375 -1.421875 
Q 20.21875 -1.421875 15.453125 -0.5625 
Q 10.6875 0.296875 5.421875 2 
L 5.421875 11.28125 
Q 10.40625 8.6875 15.234375 7.390625 
Q 20.0625 6.109375 24.8125 6.109375 
Q 31.15625 6.109375 34.5625 8.28125 
Q 37.984375 10.453125 37.984375 14.40625 
Q 37.984375 18.0625 35.515625 20.015625 
Q 33.0625 21.96875 24.703125 23.78125 
L 21.578125 24.515625 
Q 13.234375 26.265625 9.515625 29.90625 
Q 5.8125 33.546875 5.8125 39.890625 
Q 5.8125 47.609375 11.28125 51.796875 
Q 16.75 56 26.8125 56 
Q 31.78125 56 36.171875 55.265625 
Q 40.578125 54.546875 44.28125 53.078125 
z
" id="DejaVuSans-115"/>
      <path d="M 30.421875 75.984375 
L 30.421875 -13.1875 
L 9.71875 -13.1875 
L 9.71875 -6.203125 
L 21.390625 -6.203125 
L 21.390625 69 
L 9.71875 69 
L 9.71875 75.984375 
z
" id="DejaVuSans-93"/>
     </defs>
     <g transform="translate(234.038281 412.756563)scale(0.1 -0.1)">
      <use xlink:href="#DejaVuSans-116"/>
      <use x="39.208984" xlink:href="#DejaVuSans-105"/>
      <use x="66.992188" xlink:href="#DejaVuSans-109"/>
      <use x="164.404297" xlink:href="#DejaVuSans-101"/>
      <use x="225.927734" xlink:href="#DejaVuSans-32"/>
      <use x="257.714844" xlink:href="#DejaVuSans-91"/>
      <use x="296.728516" xlink:href="#DejaVuSans-109"/>
      <use x="394.140625" xlink:href="#DejaVuSans-115"/>
      <use x="446.240234" xlink:href="#DejaVuSans-93"/>
     </g>
    </g>
   </g>
   <g id="matplotlib.axis_2">
    <g id="ytick_1">
     <g id="line2d_6">
      <defs>
       <path d="M 0 0 
L -3.5 0 
" id="m23a0c58ac7" style="stroke:#000000;stroke-width:0.8;"/>
      </defs>
      <g>
       <use style="stroke:#000000;stroke-width:0.8;" x="63" xlink:href="#m23a0c58ac7" y="347.785154"/>
      </g>
     </g>
     <g id="text_7">
      <!-- −60 -->
      <defs>
       <path d="M 10.59375 35.5 
L 73.1875 35.5 
L 73.1875 27.203125 
L 10.59375 27.203125 
z
" id="DejaVuSans-8722"/>
      </defs>
      <g transform="translate(34.895313 351.584372)scale(0.1 -0.1)">
       <use xlink:href="#DejaVuSans-8722"/>
       <use x="83.789062" xlink:href="#DejaVuSans-54"/>
       <use x="147.412109" xlink:href="#DejaVuSans-48"/>
      </g>
     </g>
    </g>
    <g id="ytick_2">
     <g id="line2d_7">
      <g>
       <use style="stroke:#000000;stroke-width:0.8;" x="63" xlink:href="#m23a0c58ac7" y="280.747964"/>
      </g>
     </g>
     <g id="text_8">
      <!-- −40 -->
      <g transform="translate(34.895313 284.547183)scale(0.1 -0.1)">
       <use xlink:href="#DejaVuSans-8722"/>
       <use x="83.789062" xlink:href="#DejaVuSans-52"/>
       <use x="147.412109" xlink:href="#DejaVuSans-48"/>
      </g>
     </g>
    </g>
    <g id="ytick_3">
     <g id="line2d_8">
      <g>
       <use style="stroke:#000000;stroke-width:0.8;" x="63" xlink:href="#m23a0c58ac7" y="213.710775"/>
      </g>
     </g>
     <g id="text_9">
      <!-- −20 -->
      <g transform="translate(34.895313 217.509993)scale(0.1 -0.1)">
       <use xlink:href="#DejaVuSans-8722"/>
       <use x="83.789062" xlink:href="#DejaVuSans-50"/>
       <use x="147.412109" xlink:href="#DejaVuSans-48"/>
      </g>
     </g>
    </g>
    <g id="ytick_4">
     <g id="line2d_9">
      <g>
       <use style="stroke:#000000;stroke-width:0.8;" x="63" xlink:href="#m23a0c58ac7" y="146.673585"/>
      </g>
     </g>
     <g id="text_10">
      <!-- 0 -->
      <g transform="translate(49.6375 150.472804)scale(0.1 -0.1)">
       <use xlink:href="#DejaVuSans-48"/>
      </g>
     </g>
    </g>
    <g id="ytick_5">
     <g id="line2d_10">
      <g>
       <use style="stroke:#000000;stroke-width:0.8;" x="63" xlink:href="#m23a0c58ac7" y="79.636396"/>
      </g>
     </g>
     <g id="text_11">
      <!-- 20 -->
      <g transform="translate(43.275 83.435615)scale(0.1 -0.1)">
       <use xlink:href="#DejaVuSans-50"/>
       <use x="63.623047" xlink:href="#DejaVuSans-48"/>
      </g>
     </g>
    </g>
    <g id="text_12">
     <!-- voltage [V] -->
     <defs>
      <path d="M 2.984375 54.6875 
L 12.5 54.6875 
L 29.59375 8.796875 
L 46.6875 54.6875 
L 56.203125 54.6875 
L 35.6875 0 
L 23.484375 0 
z
" id="DejaVuSans-118"/>
      <path d="M 30.609375 48.390625 
Q 23.390625 48.390625 19.1875 42.75 
Q 14.984375 37.109375 14.984375 27.296875 
Q 14.984375 17.484375 19.15625 11.84375 
Q 23.34375 6.203125 30.609375 6.203125 
Q 37.796875 6.203125 41.984375 11.859375 
Q 46.1875 17.53125 46.1875 27.296875 
Q 46.1875 37.015625 41.984375 42.703125 
Q 37.796875 48.390625 30.609375 48.390625 
z
M 30.609375 56 
Q 42.328125 56 49.015625 48.375 
Q 55.71875 40.765625 55.71875 27.296875 
Q 55.71875 13.875 49.015625 6.21875 
Q 42.328125 -1.421875 30.609375 -1.421875 
Q 18.84375 -1.421875 12.171875 6.21875 
Q 5.515625 13.875 5.515625 27.296875 
Q 5.515625 40.765625 12.171875 48.375 
Q 18.84375 56 30.609375 56 
z
" id="DejaVuSans-111"/>
      <path d="M 9.421875 75.984375 
L 18.40625 75.984375 
L 18.40625 0 
L 9.421875 0 
z
" id="DejaVuSans-108"/>
      <path d="M 34.28125 27.484375 
Q 23.390625 27.484375 19.1875 25 
Q 14.984375 22.515625 14.984375 16.5 
Q 14.984375 11.71875 18.140625 8.90625 
Q 21.296875 6.109375 26.703125 6.109375 
Q 34.1875 6.109375 38.703125 11.40625 
Q 43.21875 16.703125 43.21875 25.484375 
L 43.21875 27.484375 
z
M 52.203125 31.203125 
L 52.203125 0 
L 43.21875 0 
L 43.21875 8.296875 
Q 40.140625 3.328125 35.546875 0.953125 
Q 30.953125 -1.421875 24.3125 -1.421875 
Q 15.921875 -1.421875 10.953125 3.296875 
Q 6 8.015625 6 15.921875 
Q 6 25.140625 12.171875 29.828125 
Q 18.359375 34.515625 30.609375 34.515625 
L 43.21875 34.515625 
L 43.21875 35.40625 
Q 43.21875 41.609375 39.140625 45 
Q 35.0625 48.390625 27.6875 48.390625 
Q 23 48.390625 18.546875 47.265625 
Q 14.109375 46.140625 10.015625 43.890625 
L 10.015625 52.203125 
Q 14.9375 54.109375 19.578125 55.046875 
Q 24.21875 56 28.609375 56 
Q 40.484375 56 46.34375 49.84375 
Q 52.203125 43.703125 52.203125 31.203125 
z
" id="DejaVuSans-97"/>
      <path d="M 45.40625 27.984375 
Q 45.40625 37.75 41.375 43.109375 
Q 37.359375 48.484375 30.078125 48.484375 
Q 22.859375 48.484375 18.828125 43.109375 
Q 14.796875 37.75 14.796875 27.984375 
Q 14.796875 18.265625 18.828125 12.890625 
Q 22.859375 7.515625 30.078125 7.515625 
Q 37.359375 7.515625 41.375 12.890625 
Q 45.40625 18.265625 45.40625 27.984375 
z
M 54.390625 6.78125 
Q 54.390625 -7.171875 48.1875 -13.984375 
Q 42 -20.796875 29.203125 -20.796875 
Q 24.46875 -20.796875 20.265625 -20.09375 
Q 16.0625 -19.390625 12.109375 -17.921875 
L 12.109375 -9.1875 
Q 16.0625 -11.328125 19.921875 -12.34375 
Q 23.78125 -13.375 27.78125 -13.375 
Q 36.625 -13.375 41.015625 -8.765625 
Q 45.40625 -4.15625 45.40625 5.171875 
L 45.40625 9.625 
Q 42.625 4.78125 38.28125 2.390625 
Q 33.9375 0 27.875 0 
Q 17.828125 0 11.671875 7.65625 
Q 5.515625 15.328125 5.515625 27.984375 
Q 5.515625 40.671875 11.671875 48.328125 
Q 17.828125 56 27.875 56 
Q 33.9375 56 38.28125 53.609375 
Q 42.625 51.21875 45.40625 46.390625 
L 45.40625 54.6875 
L 54.390625 54.6875 
z
" id="DejaVuSans-103"/>
      <path d="M 28.609375 0 
L 0.78125 72.90625 
L 11.078125 72.90625 
L 34.1875 11.53125 
L 57.328125 72.90625 
L 67.578125 72.90625 
L 39.796875 0 
z
" id="DejaVuSans-86"/>
     </defs>
     <g transform="translate(28.815625 245.75375)rotate(-90)scale(0.1 -0.1)">
      <use xlink:href="#DejaVuSans-118"/>
      <use x="59.179688" xlink:href="#DejaVuSans-111"/>
      <use x="120.361328" xlink:href="#DejaVuSans-108"/>
      <use x="148.144531" xlink:href="#DejaVuSans-116"/>
      <use x="187.353516" xlink:href="#DejaVuSans-97"/>
      <use x="248.632812" xlink:href="#DejaVuSans-103"/>
      <use x="312.109375" xlink:href="#DejaVuSans-101"/>
      <use x="373.632812" xlink:href="#DejaVuSans-32"/>
      <use x="405.419922" xlink:href="#DejaVuSans-91"/>
      <use x="444.433594" xlink:href="#DejaVuSans-86"/>
      <use x="512.841797" xlink:href="#DejaVuSans-93"/>
     </g>
    </g>
   </g>
   <g id="line2d_11">
    <path clip-path="url(#p93f93c6cee)" d="M 80.754545 364.544443 
L 81.695536 364.556408 
L 85.725818 364.976208 
L 98.526845 366.296433 
L 108.629182 367.094295 
L 119.459455 367.722782 
L 131.603564 368.199488 
L 145.8072 368.527309 
L 151.772727 368.610192 
L 151.8615 366.590264 
L 152.234345 358.359692 
L 152.731473 352.598906 
L 153.565936 345.792787 
L 154.9863 336.202396 
L 156.726245 325.985 
L 158.412927 317.345847 
L 160.028591 310.189208 
L 161.590991 304.269788 
L 163.153391 299.227417 
L 164.840073 294.554583 
L 167.236936 288.653438 
L 168.941373 284.224472 
L 169.793591 281.402173 
L 170.361736 278.770828 
L 170.752336 275.919879 
L 171.036409 271.824581 
L 171.1962 264.604472 
L 171.249464 256.577503 
L 171.622309 69.299198 
L 171.675573 66.96 
L 171.746591 67.200875 
L 171.906382 80.021707 
L 172.190455 132.668845 
L 172.847373 250.872891 
L 173.220218 285.355569 
L 173.5398 297.722112 
L 173.912645 304.170741 
L 174.303245 307.544813 
L 174.782618 309.754247 
L 175.226482 310.867321 
L 175.6881 311.459063 
L 176.096455 311.652604 
L 176.522564 311.60892 
L 177.019691 311.316117 
L 177.676609 310.632027 
L 178.528827 309.395818 
L 179.771645 307.174357 
L 182.807673 301.125407 
L 185.470855 296.110407 
L 188.134036 291.596723 
L 192.199827 284.765325 
L 193.336118 282.336608 
L 194.117318 280.127432 
L 194.685464 277.795681 
L 195.093818 275.004367 
L 195.324627 272.049066 
L 195.502173 266.103073 
L 195.573191 256.878106 
L 195.626455 229.418869 
L 195.839509 97.752065 
L 196.017055 89.128904 
L 196.034809 89.087415 
L 196.176845 92.823435 
L 196.407655 109.884663 
L 196.744991 158.647579 
L 197.437418 256.151811 
L 197.810264 280.863312 
L 198.200864 292.575382 
L 198.591464 298.206404 
L 199.070836 301.899732 
L 199.550209 304.066255 
L 200.082845 305.559101 
L 200.650991 306.502459 
L 201.219136 306.994761 
L 201.787282 307.162657 
L 202.390936 307.077509 
L 203.083364 306.734236 
L 203.988845 306.005349 
L 205.231664 304.67834 
L 207.220173 302.17692 
L 212.9904 294.786933 
L 217.837391 289.118182 
L 220.4118 285.915432 
L 221.885427 283.732617 
L 222.915191 281.813989 
L 223.660882 279.964378 
L 224.229027 277.93921 
L 224.637382 275.614302 
L 224.9037 272.890715 
L 225.081245 269.136477 
L 225.205527 259.891985 
L 225.241036 246.395979 
L 225.525109 96.547441 
L 225.596127 94.199164 
L 225.667145 94.750555 
L 225.862445 102.666733 
L 226.164273 127.01773 
L 226.679155 196.005056 
L 227.229545 257.737027 
L 227.6379 279.091533 
L 228.046255 289.406562 
L 228.454609 294.771388 
L 228.933982 298.399807 
L 229.502127 301.007428 
L 230.105782 302.744399 
L 230.691682 303.814339 
L 231.313091 304.496501 
L 231.898991 304.830487 
L 232.538155 304.938901 
L 233.266091 304.819362 
L 234.136064 304.430324 
L 235.236845 303.675719 
L 236.781491 302.317907 
L 239.320391 299.749063 
L 247.398709 291.466894 
L 251.428991 287.271124 
L 253.310973 284.997791 
L 254.607055 283.095838 
L 255.548045 281.333878 
L 256.258227 279.536169 
L 256.790864 277.569184 
L 257.181464 275.237499 
L 257.447782 272.239301 
L 257.607573 268.295981 
L 257.696345 261.794109 
L 257.767364 238.646996 
L 257.998173 100.157156 
L 258.122455 94.891036 
L 258.157964 95.499249 
L 258.264491 98.974599 
L 258.566318 119.361901 
L 258.956918 163.699111 
L 259.755873 256.288254 
L 260.181982 278.197786 
L 260.590336 288.327916 
L 261.016445 293.709878 
L 261.495818 297.126615 
L 262.028455 299.466567 
L 262.649864 301.213158 
L 263.271273 302.330666 
L 263.892682 303.025835 
L 264.531845 303.420947 
L 265.206518 303.575315 
L 265.952209 303.510666 
L 266.839936 303.198476 
L 267.940718 302.564033 
L 269.449855 301.415145 
L 271.722436 299.378646 
L 281.167855 290.377616 
L 284.434691 287.07159 
L 286.281164 284.899425 
L 287.577245 283.042926 
L 288.518236 281.321617 
L 289.246173 279.518039 
L 289.778809 277.590313 
L 290.151655 275.45384 
L 290.435727 272.472839 
L 290.631027 267.34329 
L 290.7198 258.948911 
L 290.844082 161.670517 
L 291.003873 99.296819 
L 291.128155 95.184125 
L 291.163664 95.713377 
L 291.341209 103.160415 
L 291.643036 126.804784 
L 292.175673 192.689694 
L 292.761573 255.779624 
L 293.152173 276.317661 
L 293.560527 287.238653 
L 294.004391 293.175003 
L 294.483764 296.72388 
L 295.051909 299.255829 
L 295.673318 301.000403 
L 296.276973 302.094721 
L 296.916136 302.820502 
L 297.5553 303.223769 
L 298.247727 303.39032 
L 299.028927 303.326583 
L 299.952164 303.002765 
L 301.123964 302.325582 
L 302.668609 301.152706 
L 305.136491 298.958436 
L 315.434127 289.253793 
L 318.150573 286.440432 
L 319.837255 284.383214 
L 321.062318 282.533868 
L 321.950045 280.785876 
L 322.589209 279.058157 
L 323.068582 277.158556 
L 323.423673 274.88246 
L 323.672236 271.938216 
L 323.849782 266.40416 
L 323.938555 255.539605 
L 323.974064 234.979605 
L 324.204873 100.543018 
L 324.3114 94.966204 
L 324.346909 95.444874 
L 324.453436 98.460756 
L 324.755264 118.526222 
L 325.163618 164.135751 
L 325.962573 255.600139 
L 326.388682 277.595199 
L 326.797036 287.953561 
L 327.2409 293.613204 
L 327.738027 297.109537 
L 328.306173 299.508316 
L 328.927582 301.164469 
L 329.5845 302.269517 
L 330.223664 302.919079 
L 330.880582 303.271387 
L 331.555255 303.385572 
L 332.354209 303.278552 
L 333.2952 302.909395 
L 334.484755 302.186774 
L 336.135927 300.897542 
L 338.834618 298.465416 
L 350.179773 287.714989 
L 352.274809 285.391903 
L 353.677418 283.522803 
L 354.707182 281.798628 
L 355.488382 280.06322 
L 356.074282 278.215329 
L 356.518145 276.026174 
L 356.819973 273.390347 
L 357.015273 269.823705 
L 357.139555 263.412192 
L 357.210573 244.352453 
L 357.476891 97.974994 
L 357.565664 95.129948 
L 357.618927 95.714415 
L 357.778718 102.256008 
L 358.116055 128.867127 
L 358.648691 195.340038 
L 359.216836 256.02924 
L 359.625191 277.32512 
L 360.033545 287.920333 
L 360.459655 293.514623 
L 360.939027 297.008156 
L 361.453909 299.297505 
L 362.057564 301.013096 
L 362.678973 302.144422 
L 363.318136 302.863564 
L 363.975055 303.266741 
L 364.649727 303.41914 
L 364.862782 303.423254 
L 364.969309 305.629114 
L 365.306645 312.918219 
L 365.786018 318.058248 
L 366.460691 322.694934 
L 367.348418 327.245467 
L 368.395936 331.469722 
L 369.532227 335.173549 
L 370.775045 338.508838 
L 372.1599 341.595524 
L 373.633527 344.34423 
L 375.213682 346.830753 
L 376.900364 349.082382 
L 378.729082 351.160368 
L 380.735345 353.10152 
L 382.9014 354.886596 
L 385.262755 356.544918 
L 387.890427 358.114408 
L 390.819927 359.59694 
L 394.051255 360.978178 
L 397.655427 362.274489 
L 401.685709 363.486513 
L 406.248627 364.622263 
L 411.344182 365.657343 
L 417.043391 366.584235 
L 423.399518 367.389037 
L 430.5546 368.065248 
L 435.8277 368.437624 
L 435.8277 368.437624 
" style="fill:none;stroke:#1f77b4;stroke-linecap:square;stroke-width:1.5;"/>
   </g>
   <g id="line2d_12">
    <path clip-path="url(#p93f93c6cee)" d="M 80.754545 364.544451 
L 80.985355 364.488199 
L 81.908591 364.560564 
L 85.725818 365.184825 
L 91.975418 366.113882 
L 97.603609 366.718434 
L 103.693418 367.14402 
L 110.741973 367.406609 
L 119.761282 367.507152 
L 134.976927 367.417737 
L 151.772727 367.283267 
L 151.985782 357.099433 
L 152.411891 347.779474 
L 153.104318 337.661487 
L 154.098573 326.467661 
L 155.1816 316.670092 
L 156.229118 309.119366 
L 157.258882 303.270767 
L 158.3064 298.584676 
L 159.424936 294.596633 
L 160.667755 290.984191 
L 162.2124 287.196088 
L 165.230673 279.976569 
L 165.940855 277.545479 
L 166.437982 275.023829 
L 166.775318 272.145223 
L 167.006127 268.199467 
L 167.148164 261.744999 
L 167.219182 249.597137 
L 167.272445 173.035946 
L 167.378973 73.541291 
L 167.414482 76.423406 
L 167.556518 123.432166 
L 168.000382 265.286945 
L 168.248945 285.465197 
L 168.479755 289.492584 
L 168.728318 290.426256 
L 169.385236 292.009051 
L 170.468264 294.91127 
L 171.107427 295.955287 
L 171.728836 296.56845 
L 172.368 296.897211 
L 173.060427 296.999839 
L 173.841627 296.883703 
L 174.800373 296.501737 
L 176.025436 295.757399 
L 177.765382 294.414986 
L 181.067727 291.525262 
L 191.276591 282.269822 
L 192.661445 280.592472 
L 193.6557 279.048385 
L 194.401391 277.480642 
L 194.969536 275.755854 
L 195.395645 273.730044 
L 195.715227 271.049969 
L 195.928282 267.329374 
L 196.070318 260.371249 
L 196.141336 245.097883 
L 196.283373 79.661435 
L 196.425409 111.267927 
L 196.904782 252.123224 
L 197.188855 276.772514 
L 197.472927 285.358205 
L 197.810264 289.4593 
L 198.3429 293.033367 
L 199.035327 296.238846 
L 199.692245 298.301194 
L 200.331409 299.627289 
L 200.970573 300.463342 
L 201.591982 300.926172 
L 202.231145 301.12847 
L 202.923573 301.107636 
L 203.722527 300.849787 
L 204.716782 300.277176 
L 206.030618 299.240998 
L 208.036882 297.340665 
L 215.191964 290.369992 
L 219.364282 286.764317 
L 223.554355 283.08429 
L 225.258791 281.288047 
L 226.430591 279.739889 
L 227.282809 278.257581 
L 227.939727 276.66714 
L 228.436855 274.869295 
L 228.8097 272.665372 
L 229.076018 269.749115 
L 229.253564 265.429039 
L 229.360091 257.818701 
L 229.413355 242.648519 
L 229.555391 79.684224 
L 229.661918 100.535861 
L 230.230064 259.909916 
L 230.514136 279.092205 
L 230.815964 286.264802 
L 231.188809 290.092317 
L 231.774709 293.685858 
L 232.449382 296.53221 
L 233.1063 298.397935 
L 233.745464 299.588913 
L 234.384627 300.330116 
L 235.006036 300.727515 
L 235.662955 300.883426 
L 236.373136 300.818326 
L 237.2076 300.509783 
L 238.255118 299.870756 
L 239.675482 298.721261 
L 242.001327 296.508881 
L 247.700536 291.033026 
L 251.535518 287.72296 
L 257.216973 282.84374 
L 258.850391 281.115968 
L 259.986682 279.60324 
L 260.8389 278.099025 
L 261.478064 276.515085 
L 261.957436 274.736906 
L 262.330282 272.455524 
L 262.5966 269.34066 
L 262.774145 264.374314 
L 262.880673 253.522508 
L 262.933936 216.268085 
L 263.058218 79.763449 
L 263.093727 83.465189 
L 263.253518 136.150903 
L 263.644118 249.068039 
L 263.928191 275.82183 
L 264.212264 284.833332 
L 264.5496 289.122794 
L 265.064482 292.696401 
L 265.739155 295.873873 
L 266.396073 297.972216 
L 267.035236 299.327212 
L 267.6744 300.189389 
L 268.295809 300.675847 
L 268.934973 300.901136 
L 269.6274 300.904062 
L 270.426355 300.672433 
L 271.402855 300.142496 
L 272.681182 299.178211 
L 274.616427 297.407151 
L 282.481691 289.955156 
L 286.920327 286.248991 
L 290.684291 283.017473 
L 292.406482 281.247343 
L 293.578282 279.736934 
L 294.448255 278.260215 
L 295.105173 276.709144 
L 295.6023 274.969111 
L 295.975145 272.868844 
L 296.259218 269.919191 
L 296.454518 265.19553 
L 296.561045 257.01882 
L 296.614309 238.981993 
L 296.756345 79.772713 
L 296.845118 96.608104 
L 297.466527 264.507821 
L 297.7506 280.953776 
L 298.052427 287.081026 
L 298.460782 290.811595 
L 299.082191 294.350148 
L 299.756864 296.988231 
L 300.413782 298.705687 
L 301.052945 299.79275 
L 301.692109 300.457773 
L 302.331273 300.80579 
L 302.988191 300.91143 
L 303.716127 300.800956 
L 304.5861 300.435795 
L 305.704636 299.7067 
L 307.249282 298.408588 
L 310.072255 295.687128 
L 314.581909 291.399632 
L 318.2571 288.238436 
L 325.074845 282.461405 
L 326.601736 280.811216 
L 327.684764 279.32307 
L 328.483718 277.857176 
L 329.105127 276.242781 
L 329.566745 274.419378 
L 329.921836 272.065164 
L 330.1704 268.862528 
L 330.330191 263.96848 
L 330.418964 255.533916 
L 330.472227 230.736804 
L 330.596509 79.862308 
L 330.649773 84.993054 
L 330.845073 153.072308 
L 331.217918 252.978176 
L 331.501991 277.182415 
L 331.786064 285.348639 
L 332.141155 289.485301 
L 332.673791 292.986657 
L 333.348464 296.035267 
L 334.005382 298.046498 
L 334.644545 299.34243 
L 335.283709 300.163372 
L 335.905118 300.621599 
L 336.544282 300.826575 
L 337.236709 300.81485 
L 338.035664 300.573325 
L 339.029918 300.027025 
L 340.343755 299.031774 
L 342.350018 297.199507 
L 349.647136 290.334718 
L 353.712927 286.957666 
L 358.435636 283.00486 
L 360.175582 281.246635 
L 361.365136 279.738127 
L 362.235109 278.285962 
L 362.892027 276.767306 
L 363.406909 275.001525 
L 363.797509 272.81083 
L 364.081582 269.819616 
L 364.259127 265.653651 
L 364.365655 258.634144 
L 364.436673 233.926172 
L 364.578709 79.964689 
L 364.631973 88.328693 
L 364.898291 188.351267 
L 365.235627 271.431058 
L 365.5197 294.143942 
L 365.857036 304.876062 
L 366.371918 313.882694 
L 367.099855 322.723644 
L 367.916564 330.001296 
L 368.804291 335.970727 
L 369.763036 340.942768 
L 370.775045 345.058147 
L 371.858073 348.554733 
L 373.012118 351.538925 
L 374.237182 354.098689 
L 375.551018 356.334643 
L 376.971382 358.315361 
L 378.516027 360.088327 
L 380.202709 361.686183 
L 382.049182 363.130254 
L 384.090955 364.442866 
L 386.328027 365.613723 
L 388.7604 366.634091 
L 391.405827 367.501142 
L 394.282064 368.208199 
L 397.442373 368.75295 
L 400.957773 369.12889 
L 404.9703 369.32914 
L 409.817291 369.339188 
L 416.350964 369.113738 
L 435.845455 368.146976 
L 435.845455 368.146976 
" style="fill:none;stroke:#ff0000;stroke-linecap:square;stroke-width:1.5;"/>
   </g>
   <g id="patch_3">
    <path d="M 63 384.48 
L 63 51.84 
" style="fill:none;stroke:#000000;stroke-linecap:square;stroke-linejoin:miter;stroke-width:0.8;"/>
   </g>
   <g id="patch_4">
    <path d="M 453.6 384.48 
L 453.6 51.84 
" style="fill:none;stroke:#000000;stroke-linecap:square;stroke-linejoin:miter;stroke-width:0.8;"/>
   </g>
   <g id="patch_5">
    <path d="M 63 384.48 
L 453.6 384.48 
" style="fill:none;stroke:#000000;stroke-linecap:square;stroke-linejoin:miter;stroke-width:0.8;"/>
   </g>
   <g id="patch_6">
    <path d="M 63 51.84 
L 453.6 51.84 
" style="fill:none;stroke:#000000;stroke-linecap:square;stroke-linejoin:miter;stroke-width:0.8;"/>
   </g>
   <g id="legend_1">
    <g id="patch_7">
     <path d="M 383.460938 89.19625 
L 446.6 89.19625 
Q 448.6 89.19625 448.6 87.19625 
L 448.6 58.84 
Q 448.6 56.84 446.6 56.84 
L 383.460938 56.84 
Q 381.460938 56.84 381.460938 58.84 
L 381.460938 87.19625 
Q 381.460938 89.19625 383.460938 89.19625 
z
" style="fill:#ffffff;opacity:0.8;stroke:#cccccc;stroke-linejoin:miter;"/>
    </g>
    <g id="line2d_13">
     <path d="M 385.460938 64.938437 
L 405.460938 64.938437 
" style="fill:none;stroke:#1f77b4;stroke-linecap:square;stroke-width:1.5;"/>
    </g>
    <g id="line2d_14"/>
    <g id="text_13">
     <!-- target -->
     <defs>
      <path d="M 41.109375 46.296875 
Q 39.59375 47.171875 37.8125 47.578125 
Q 36.03125 48 33.890625 48 
Q 26.265625 48 22.1875 43.046875 
Q 18.109375 38.09375 18.109375 28.8125 
L 18.109375 0 
L 9.078125 0 
L 9.078125 54.6875 
L 18.109375 54.6875 
L 18.109375 46.1875 
Q 20.953125 51.171875 25.484375 53.578125 
Q 30.03125 56 36.53125 56 
Q 37.453125 56 38.578125 55.875 
Q 39.703125 55.765625 41.0625 55.515625 
z
" id="DejaVuSans-114"/>
     </defs>
     <g transform="translate(413.460938 68.438437)scale(0.1 -0.1)">
      <use xlink:href="#DejaVuSans-116"/>
      <use x="39.208984" xlink:href="#DejaVuSans-97"/>
      <use x="100.488281" xlink:href="#DejaVuSans-114"/>
      <use x="141.585938" xlink:href="#DejaVuSans-103"/>
      <use x="205.0625" xlink:href="#DejaVuSans-101"/>
      <use x="266.585938" xlink:href="#DejaVuSans-116"/>
     </g>
    </g>
    <g id="line2d_15">
     <path d="M 385.460938 79.616562 
L 405.460938 79.616562 
" style="fill:none;stroke:#ff0000;stroke-linecap:square;stroke-width:1.5;"/>
    </g>
    <g id="line2d_16"/>
    <g id="text_14">
     <!-- model -->
     <defs>
      <path d="M 45.40625 46.390625 
L 45.40625 75.984375 
L 54.390625 75.984375 
L 54.390625 0 
L 45.40625 0 
L 45.40625 8.203125 
Q 42.578125 3.328125 38.25 0.953125 
Q 33.9375 -1.421875 27.875 -1.421875 
Q 17.96875 -1.421875 11.734375 6.484375 
Q 5.515625 14.40625 5.515625 27.296875 
Q 5.515625 40.1875 11.734375 48.09375 
Q 17.96875 56 27.875 56 
Q 33.9375 56 38.25 53.625 
Q 42.578125 51.265625 45.40625 46.390625 
z
M 14.796875 27.296875 
Q 14.796875 17.390625 18.875 11.75 
Q 22.953125 6.109375 30.078125 6.109375 
Q 37.203125 6.109375 41.296875 11.75 
Q 45.40625 17.390625 45.40625 27.296875 
Q 45.40625 37.203125 41.296875 42.84375 
Q 37.203125 48.484375 30.078125 48.484375 
Q 22.953125 48.484375 18.875 42.84375 
Q 14.796875 37.203125 14.796875 27.296875 
z
" id="DejaVuSans-100"/>
     </defs>
     <g transform="translate(413.460938 83.116562)scale(0.1 -0.1)">
      <use xlink:href="#DejaVuSans-109"/>
      <use x="97.412109" xlink:href="#DejaVuSans-111"/>
      <use x="158.59375" xlink:href="#DejaVuSans-100"/>
      <use x="222.070312" xlink:href="#DejaVuSans-101"/>
      <use x="283.59375" xlink:href="#DejaVuSans-108"/>
     </g>
    </g>
   </g>
  </g>
 </g>
 <defs>
  <clipPath id="p93f93c6cee">
   <rect height="332.64" width="390.6" x="63" y="51.84"/>
  </clipPath>
 </defs>
</svg>
