<?xml version="1.0" encoding="utf-8" standalone="no"?>
<!DOCTYPE svg PUBLIC "-//W3C//DTD SVG 1.1//EN"
  "http://www.w3.org/Graphics/SVG/1.1/DTD/svg11.dtd">
<!-- Created with matplotlib (https://matplotlib.org/) -->
<svg height="432pt" version="1.1" viewBox="0 0 504 432" width="504pt" xmlns="http://www.w3.org/2000/svg" xmlns:xlink="http://www.w3.org/1999/xlink">
 <defs>
  <style type="text/css">
*{stroke-linecap:butt;stroke-linejoin:round;}
  </style>
 </defs>
 <g id="figure_1">
  <g id="patch_1">
   <path d="M 0 432 
L 504 432 
L 504 0 
L 0 0 
z
" style="fill:#ffffff;"/>
  </g>
  <g id="axes_1">
   <g id="patch_2">
    <path d="M 63 384.48 
L 453.6 384.48 
L 453.6 51.84 
L 63 51.84 
z
" style="fill:#ffffff;"/>
   </g>
   <g id="matplotlib.axis_1">
    <g id="xtick_1">
     <g id="line2d_1">
      <defs>
       <path d="M 0 0 
L 0 3.5 
" id="m9b95951161" style="stroke:#000000;stroke-width:0.8;"/>
      </defs>
      <g>
       <use style="stroke:#000000;stroke-width:0.8;" x="80.754545" xlink:href="#m9b95951161" y="384.48"/>
      </g>
     </g>
     <g id="text_1">
      <!-- 0 -->
      <defs>
       <path d="M 31.78125 66.40625 
Q 24.171875 66.40625 20.328125 58.90625 
Q 16.5 51.421875 16.5 36.375 
Q 16.5 21.390625 20.328125 13.890625 
Q 24.171875 6.390625 31.78125 6.390625 
Q 39.453125 6.390625 43.28125 13.890625 
Q 47.125 21.390625 47.125 36.375 
Q 47.125 51.421875 43.28125 58.90625 
Q 39.453125 66.40625 31.78125 66.40625 
z
M 31.78125 74.21875 
Q 44.046875 74.21875 50.515625 64.515625 
Q 56.984375 54.828125 56.984375 36.375 
Q 56.984375 17.96875 50.515625 8.265625 
Q 44.046875 -1.421875 31.78125 -1.421875 
Q 19.53125 -1.421875 13.0625 8.265625 
Q 6.59375 17.96875 6.59375 36.375 
Q 6.59375 54.828125 13.0625 64.515625 
Q 19.53125 74.21875 31.78125 74.21875 
z
" id="DejaVuSans-48"/>
      </defs>
      <g transform="translate(77.573295 399.078438)scale(0.1 -0.1)">
       <use xlink:href="#DejaVuSans-48"/>
      </g>
     </g>
    </g>
    <g id="xtick_2">
     <g id="line2d_2">
      <g>
       <use style="stroke:#000000;stroke-width:0.8;" x="151.763044" xlink:href="#m9b95951161" y="384.48"/>
      </g>
     </g>
     <g id="text_2">
      <!-- 880 -->
      <defs>
       <path d="M 31.78125 34.625 
Q 24.75 34.625 20.71875 30.859375 
Q 16.703125 27.09375 16.703125 20.515625 
Q 16.703125 13.921875 20.71875 10.15625 
Q 24.75 6.390625 31.78125 6.390625 
Q 38.8125 6.390625 42.859375 10.171875 
Q 46.921875 13.96875 46.921875 20.515625 
Q 46.921875 27.09375 42.890625 30.859375 
Q 38.875 34.625 31.78125 34.625 
z
M 21.921875 38.8125 
Q 15.578125 40.375 12.03125 44.71875 
Q 8.5 49.078125 8.5 55.328125 
Q 8.5 64.0625 14.71875 69.140625 
Q 20.953125 74.21875 31.78125 74.21875 
Q 42.671875 74.21875 48.875 69.140625 
Q 55.078125 64.0625 55.078125 55.328125 
Q 55.078125 49.078125 51.53125 44.71875 
Q 48 40.375 41.703125 38.8125 
Q 48.828125 37.15625 52.796875 32.3125 
Q 56.78125 27.484375 56.78125 20.515625 
Q 56.78125 9.90625 50.3125 4.234375 
Q 43.84375 -1.421875 31.78125 -1.421875 
Q 19.734375 -1.421875 13.25 4.234375 
Q 6.78125 9.90625 6.78125 20.515625 
Q 6.78125 27.484375 10.78125 32.3125 
Q 14.796875 37.15625 21.921875 38.8125 
z
M 18.3125 54.390625 
Q 18.3125 48.734375 21.84375 45.5625 
Q 25.390625 42.390625 31.78125 42.390625 
Q 38.140625 42.390625 41.71875 45.5625 
Q 45.3125 48.734375 45.3125 54.390625 
Q 45.3125 60.0625 41.71875 63.234375 
Q 38.140625 66.40625 31.78125 66.40625 
Q 25.390625 66.40625 21.84375 63.234375 
Q 18.3125 60.0625 18.3125 54.390625 
z
" id="DejaVuSans-56"/>
      </defs>
      <g transform="translate(142.219294 399.078438)scale(0.1 -0.1)">
       <use xlink:href="#DejaVuSans-56"/>
       <use x="63.623047" xlink:href="#DejaVuSans-56"/>
       <use x="127.246094" xlink:href="#DejaVuSans-48"/>
      </g>
     </g>
    </g>
    <g id="xtick_3">
     <g id="line2d_3">
      <g>
       <use style="stroke:#000000;stroke-width:0.8;" x="222.771543" xlink:href="#m9b95951161" y="384.48"/>
      </g>
     </g>
     <g id="text_3">
      <!-- 1760 -->
      <defs>
       <path d="M 12.40625 8.296875 
L 28.515625 8.296875 
L 28.515625 63.921875 
L 10.984375 60.40625 
L 10.984375 69.390625 
L 28.421875 72.90625 
L 38.28125 72.90625 
L 38.28125 8.296875 
L 54.390625 8.296875 
L 54.390625 0 
L 12.40625 0 
z
" id="DejaVuSans-49"/>
       <path d="M 8.203125 72.90625 
L 55.078125 72.90625 
L 55.078125 68.703125 
L 28.609375 0 
L 18.3125 0 
L 43.21875 64.59375 
L 8.203125 64.59375 
z
" id="DejaVuSans-55"/>
       <path d="M 33.015625 40.375 
Q 26.375 40.375 22.484375 35.828125 
Q 18.609375 31.296875 18.609375 23.390625 
Q 18.609375 15.53125 22.484375 10.953125 
Q 26.375 6.390625 33.015625 6.390625 
Q 39.65625 6.390625 43.53125 10.953125 
Q 47.40625 15.53125 47.40625 23.390625 
Q 47.40625 31.296875 43.53125 35.828125 
Q 39.65625 40.375 33.015625 40.375 
z
M 52.59375 71.296875 
L 52.59375 62.3125 
Q 48.875 64.0625 45.09375 64.984375 
Q 41.3125 65.921875 37.59375 65.921875 
Q 27.828125 65.921875 22.671875 59.328125 
Q 17.53125 52.734375 16.796875 39.40625 
Q 19.671875 43.65625 24.015625 45.921875 
Q 28.375 48.1875 33.59375 48.1875 
Q 44.578125 48.1875 50.953125 41.515625 
Q 57.328125 34.859375 57.328125 23.390625 
Q 57.328125 12.15625 50.6875 5.359375 
Q 44.046875 -1.421875 33.015625 -1.421875 
Q 20.359375 -1.421875 13.671875 8.265625 
Q 6.984375 17.96875 6.984375 36.375 
Q 6.984375 53.65625 15.1875 63.9375 
Q 23.390625 74.21875 37.203125 74.21875 
Q 40.921875 74.21875 44.703125 73.484375 
Q 48.484375 72.75 52.59375 71.296875 
z
" id="DejaVuSans-54"/>
      </defs>
      <g transform="translate(210.046543 399.078438)scale(0.1 -0.1)">
       <use xlink:href="#DejaVuSans-49"/>
       <use x="63.623047" xlink:href="#DejaVuSans-55"/>
       <use x="127.246094" xlink:href="#DejaVuSans-54"/>
       <use x="190.869141" xlink:href="#DejaVuSans-48"/>
      </g>
     </g>
    </g>
    <g id="xtick_4">
     <g id="line2d_4">
      <g>
       <use style="stroke:#000000;stroke-width:0.8;" x="293.780042" xlink:href="#m9b95951161" y="384.48"/>
      </g>
     </g>
     <g id="text_4">
      <!-- 2640 -->
      <defs>
       <path d="M 19.1875 8.296875 
L 53.609375 8.296875 
L 53.609375 0 
L 7.328125 0 
L 7.328125 8.296875 
Q 12.9375 14.109375 22.625 23.890625 
Q 32.328125 33.6875 34.8125 36.53125 
Q 39.546875 41.84375 41.421875 45.53125 
Q 43.3125 49.21875 43.3125 52.78125 
Q 43.3125 58.59375 39.234375 62.25 
Q 35.15625 65.921875 28.609375 65.921875 
Q 23.96875 65.921875 18.8125 64.3125 
Q 13.671875 62.703125 7.8125 59.421875 
L 7.8125 69.390625 
Q 13.765625 71.78125 18.9375 73 
Q 24.125 74.21875 28.421875 74.21875 
Q 39.75 74.21875 46.484375 68.546875 
Q 53.21875 62.890625 53.21875 53.421875 
Q 53.21875 48.921875 51.53125 44.890625 
Q 49.859375 40.875 45.40625 35.40625 
Q 44.1875 33.984375 37.640625 27.21875 
Q 31.109375 20.453125 19.1875 8.296875 
z
" id="DejaVuSans-50"/>
       <path d="M 37.796875 64.3125 
L 12.890625 25.390625 
L 37.796875 25.390625 
z
M 35.203125 72.90625 
L 47.609375 72.90625 
L 47.609375 25.390625 
L 58.015625 25.390625 
L 58.015625 17.1875 
L 47.609375 17.1875 
L 47.609375 0 
L 37.796875 0 
L 37.796875 17.1875 
L 4.890625 17.1875 
L 4.890625 26.703125 
z
" id="DejaVuSans-52"/>
      </defs>
      <g transform="translate(281.055042 399.078438)scale(0.1 -0.1)">
       <use xlink:href="#DejaVuSans-50"/>
       <use x="63.623047" xlink:href="#DejaVuSans-54"/>
       <use x="127.246094" xlink:href="#DejaVuSans-52"/>
       <use x="190.869141" xlink:href="#DejaVuSans-48"/>
      </g>
     </g>
    </g>
    <g id="xtick_5">
     <g id="line2d_5">
      <g>
       <use style="stroke:#000000;stroke-width:0.8;" x="364.788541" xlink:href="#m9b95951161" y="384.48"/>
      </g>
     </g>
     <g id="text_5">
      <!-- 3520 -->
      <defs>
       <path d="M 40.578125 39.3125 
Q 47.65625 37.796875 51.625 33 
Q 55.609375 28.21875 55.609375 21.1875 
Q 55.609375 10.40625 48.1875 4.484375 
Q 40.765625 -1.421875 27.09375 -1.421875 
Q 22.515625 -1.421875 17.65625 -0.515625 
Q 12.796875 0.390625 7.625 2.203125 
L 7.625 11.71875 
Q 11.71875 9.328125 16.59375 8.109375 
Q 21.484375 6.890625 26.8125 6.890625 
Q 36.078125 6.890625 40.9375 10.546875 
Q 45.796875 14.203125 45.796875 21.1875 
Q 45.796875 27.640625 41.28125 31.265625 
Q 36.765625 34.90625 28.71875 34.90625 
L 20.21875 34.90625 
L 20.21875 43.015625 
L 29.109375 43.015625 
Q 36.375 43.015625 40.234375 45.921875 
Q 44.09375 48.828125 44.09375 54.296875 
Q 44.09375 59.90625 40.109375 62.90625 
Q 36.140625 65.921875 28.71875 65.921875 
Q 24.65625 65.921875 20.015625 65.03125 
Q 15.375 64.15625 9.8125 62.3125 
L 9.8125 71.09375 
Q 15.4375 72.65625 20.34375 73.4375 
Q 25.25 74.21875 29.59375 74.21875 
Q 40.828125 74.21875 47.359375 69.109375 
Q 53.90625 64.015625 53.90625 55.328125 
Q 53.90625 49.265625 50.4375 45.09375 
Q 46.96875 40.921875 40.578125 39.3125 
z
" id="DejaVuSans-51"/>
       <path d="M 10.796875 72.90625 
L 49.515625 72.90625 
L 49.515625 64.59375 
L 19.828125 64.59375 
L 19.828125 46.734375 
Q 21.96875 47.46875 24.109375 47.828125 
Q 26.265625 48.1875 28.421875 48.1875 
Q 40.625 48.1875 47.75 41.5 
Q 54.890625 34.8125 54.890625 23.390625 
Q 54.890625 11.625 47.5625 5.09375 
Q 40.234375 -1.421875 26.90625 -1.421875 
Q 22.3125 -1.421875 17.546875 -0.640625 
Q 12.796875 0.140625 7.71875 1.703125 
L 7.71875 11.625 
Q 12.109375 9.234375 16.796875 8.0625 
Q 21.484375 6.890625 26.703125 6.890625 
Q 35.15625 6.890625 40.078125 11.328125 
Q 45.015625 15.765625 45.015625 23.390625 
Q 45.015625 31 40.078125 35.4375 
Q 35.15625 39.890625 26.703125 39.890625 
Q 22.75 39.890625 18.8125 39.015625 
Q 14.890625 38.140625 10.796875 36.28125 
z
" id="DejaVuSans-53"/>
      </defs>
      <g transform="translate(352.063541 399.078438)scale(0.1 -0.1)">
       <use xlink:href="#DejaVuSans-51"/>
       <use x="63.623047" xlink:href="#DejaVuSans-53"/>
       <use x="127.246094" xlink:href="#DejaVuSans-50"/>
       <use x="190.869141" xlink:href="#DejaVuSans-48"/>
      </g>
     </g>
    </g>
    <g id="text_6">
     <!-- time [ms] -->
     <defs>
      <path d="M 18.3125 70.21875 
L 18.3125 54.6875 
L 36.8125 54.6875 
L 36.8125 47.703125 
L 18.3125 47.703125 
L 18.3125 18.015625 
Q 18.3125 11.328125 20.140625 9.421875 
Q 21.96875 7.515625 27.59375 7.515625 
L 36.8125 7.515625 
L 36.8125 0 
L 27.59375 0 
Q 17.1875 0 13.234375 3.875 
Q 9.28125 7.765625 9.28125 18.015625 
L 9.28125 47.703125 
L 2.6875 47.703125 
L 2.6875 54.6875 
L 9.28125 54.6875 
L 9.28125 70.21875 
z
" id="DejaVuSans-116"/>
      <path d="M 9.421875 54.6875 
L 18.40625 54.6875 
L 18.40625 0 
L 9.421875 0 
z
M 9.421875 75.984375 
L 18.40625 75.984375 
L 18.40625 64.59375 
L 9.421875 64.59375 
z
" id="DejaVuSans-105"/>
      <path d="M 52 44.1875 
Q 55.375 50.25 60.0625 53.125 
Q 64.75 56 71.09375 56 
Q 79.640625 56 84.28125 50.015625 
Q 88.921875 44.046875 88.921875 33.015625 
L 88.921875 0 
L 79.890625 0 
L 79.890625 32.71875 
Q 79.890625 40.578125 77.09375 44.375 
Q 74.3125 48.1875 68.609375 48.1875 
Q 61.625 48.1875 57.5625 43.546875 
Q 53.515625 38.921875 53.515625 30.90625 
L 53.515625 0 
L 44.484375 0 
L 44.484375 32.71875 
Q 44.484375 40.625 41.703125 44.40625 
Q 38.921875 48.1875 33.109375 48.1875 
Q 26.21875 48.1875 22.15625 43.53125 
Q 18.109375 38.875 18.109375 30.90625 
L 18.109375 0 
L 9.078125 0 
L 9.078125 54.6875 
L 18.109375 54.6875 
L 18.109375 46.1875 
Q 21.1875 51.21875 25.484375 53.609375 
Q 29.78125 56 35.6875 56 
Q 41.65625 56 45.828125 52.96875 
Q 50 49.953125 52 44.1875 
z
" id="DejaVuSans-109"/>
      <path d="M 56.203125 29.59375 
L 56.203125 25.203125 
L 14.890625 25.203125 
Q 15.484375 15.921875 20.484375 11.0625 
Q 25.484375 6.203125 34.421875 6.203125 
Q 39.59375 6.203125 44.453125 7.46875 
Q 49.3125 8.734375 54.109375 11.28125 
L 54.109375 2.78125 
Q 49.265625 0.734375 44.1875 -0.34375 
Q 39.109375 -1.421875 33.890625 -1.421875 
Q 20.796875 -1.421875 13.15625 6.1875 
Q 5.515625 13.8125 5.515625 26.8125 
Q 5.515625 40.234375 12.765625 48.109375 
Q 20.015625 56 32.328125 56 
Q 43.359375 56 49.78125 48.890625 
Q 56.203125 41.796875 56.203125 29.59375 
z
M 47.21875 32.234375 
Q 47.125 39.59375 43.09375 43.984375 
Q 39.0625 48.390625 32.421875 48.390625 
Q 24.90625 48.390625 20.390625 44.140625 
Q 15.875 39.890625 15.1875 32.171875 
z
" id="DejaVuSans-101"/>
      <path id="DejaVuSans-32"/>
      <path d="M 8.59375 75.984375 
L 29.296875 75.984375 
L 29.296875 69 
L 17.578125 69 
L 17.578125 -6.203125 
L 29.296875 -6.203125 
L 29.296875 -13.1875 
L 8.59375 -13.1875 
z
" id="DejaVuSans-91"/>
      <path d="M 44.28125 53.078125 
L 44.28125 44.578125 
Q 40.484375 46.53125 36.375 47.5 
Q 32.28125 48.484375 27.875 48.484375 
Q 21.1875 48.484375 17.84375 46.4375 
Q 14.5 44.390625 14.5 40.28125 
Q 14.5 37.15625 16.890625 35.375 
Q 19.28125 33.59375 26.515625 31.984375 
L 29.59375 31.296875 
Q 39.15625 29.25 43.1875 25.515625 
Q 47.21875 21.78125 47.21875 15.09375 
Q 47.21875 7.46875 41.1875 3.015625 
Q 35.15625 -1.421875 24.609375 -1.421875 
Q 20.21875 -1.421875 15.453125 -0.5625 
Q 10.6875 0.296875 5.421875 2 
L 5.421875 11.28125 
Q 10.40625 8.6875 15.234375 7.390625 
Q 20.0625 6.109375 24.8125 6.109375 
Q 31.15625 6.109375 34.5625 8.28125 
Q 37.984375 10.453125 37.984375 14.40625 
Q 37.984375 18.0625 35.515625 20.015625 
Q 33.0625 21.96875 24.703125 23.78125 
L 21.578125 24.515625 
Q 13.234375 26.265625 9.515625 29.90625 
Q 5.8125 33.546875 5.8125 39.890625 
Q 5.8125 47.609375 11.28125 51.796875 
Q 16.75 56 26.8125 56 
Q 31.78125 56 36.171875 55.265625 
Q 40.578125 54.546875 44.28125 53.078125 
z
" id="DejaVuSans-115"/>
      <path d="M 30.421875 75.984375 
L 30.421875 -13.1875 
L 9.71875 -13.1875 
L 9.71875 -6.203125 
L 21.390625 -6.203125 
L 21.390625 69 
L 9.71875 69 
L 9.71875 75.984375 
z
" id="DejaVuSans-93"/>
     </defs>
     <g transform="translate(234.038281 412.756563)scale(0.1 -0.1)">
      <use xlink:href="#DejaVuSans-116"/>
      <use x="39.208984" xlink:href="#DejaVuSans-105"/>
      <use x="66.992188" xlink:href="#DejaVuSans-109"/>
      <use x="164.404297" xlink:href="#DejaVuSans-101"/>
      <use x="225.927734" xlink:href="#DejaVuSans-32"/>
      <use x="257.714844" xlink:href="#DejaVuSans-91"/>
      <use x="296.728516" xlink:href="#DejaVuSans-109"/>
      <use x="394.140625" xlink:href="#DejaVuSans-115"/>
      <use x="446.240234" xlink:href="#DejaVuSans-93"/>
     </g>
    </g>
   </g>
   <g id="matplotlib.axis_2">
    <g id="ytick_1">
     <g id="line2d_6">
      <defs>
       <path d="M 0 0 
L -3.5 0 
" id="mad1ba41587" style="stroke:#000000;stroke-width:0.8;"/>
      </defs>
      <g>
       <use style="stroke:#000000;stroke-width:0.8;" x="63" xlink:href="#mad1ba41587" y="358.820931"/>
      </g>
     </g>
     <g id="text_7">
      <!-- −80 -->
      <defs>
       <path d="M 10.59375 35.5 
L 73.1875 35.5 
L 73.1875 27.203125 
L 10.59375 27.203125 
z
" id="DejaVuSans-8722"/>
      </defs>
      <g transform="translate(34.895313 362.620149)scale(0.1 -0.1)">
       <use xlink:href="#DejaVuSans-8722"/>
       <use x="83.789062" xlink:href="#DejaVuSans-56"/>
       <use x="147.412109" xlink:href="#DejaVuSans-48"/>
      </g>
     </g>
    </g>
    <g id="ytick_2">
     <g id="line2d_7">
      <g>
       <use style="stroke:#000000;stroke-width:0.8;" x="63" xlink:href="#mad1ba41587" y="315.716352"/>
      </g>
     </g>
     <g id="text_8">
      <!-- −60 -->
      <g transform="translate(34.895313 319.515571)scale(0.1 -0.1)">
       <use xlink:href="#DejaVuSans-8722"/>
       <use x="83.789062" xlink:href="#DejaVuSans-54"/>
       <use x="147.412109" xlink:href="#DejaVuSans-48"/>
      </g>
     </g>
    </g>
    <g id="ytick_3">
     <g id="line2d_8">
      <g>
       <use style="stroke:#000000;stroke-width:0.8;" x="63" xlink:href="#mad1ba41587" y="272.611774"/>
      </g>
     </g>
     <g id="text_9">
      <!-- −40 -->
      <g transform="translate(34.895313 276.410993)scale(0.1 -0.1)">
       <use xlink:href="#DejaVuSans-8722"/>
       <use x="83.789062" xlink:href="#DejaVuSans-52"/>
       <use x="147.412109" xlink:href="#DejaVuSans-48"/>
      </g>
     </g>
    </g>
    <g id="ytick_4">
     <g id="line2d_9">
      <g>
       <use style="stroke:#000000;stroke-width:0.8;" x="63" xlink:href="#mad1ba41587" y="229.507196"/>
      </g>
     </g>
     <g id="text_10">
      <!-- −20 -->
      <g transform="translate(34.895313 233.306415)scale(0.1 -0.1)">
       <use xlink:href="#DejaVuSans-8722"/>
       <use x="83.789062" xlink:href="#DejaVuSans-50"/>
       <use x="147.412109" xlink:href="#DejaVuSans-48"/>
      </g>
     </g>
    </g>
    <g id="ytick_5">
     <g id="line2d_10">
      <g>
       <use style="stroke:#000000;stroke-width:0.8;" x="63" xlink:href="#mad1ba41587" y="186.402618"/>
      </g>
     </g>
     <g id="text_11">
      <!-- 0 -->
      <g transform="translate(49.6375 190.201837)scale(0.1 -0.1)">
       <use xlink:href="#DejaVuSans-48"/>
      </g>
     </g>
    </g>
    <g id="ytick_6">
     <g id="line2d_11">
      <g>
       <use style="stroke:#000000;stroke-width:0.8;" x="63" xlink:href="#mad1ba41587" y="143.29804"/>
      </g>
     </g>
     <g id="text_12">
      <!-- 20 -->
      <g transform="translate(43.275 147.097258)scale(0.1 -0.1)">
       <use xlink:href="#DejaVuSans-50"/>
       <use x="63.623047" xlink:href="#DejaVuSans-48"/>
      </g>
     </g>
    </g>
    <g id="ytick_7">
     <g id="line2d_12">
      <g>
       <use style="stroke:#000000;stroke-width:0.8;" x="63" xlink:href="#mad1ba41587" y="100.193461"/>
      </g>
     </g>
     <g id="text_13">
      <!-- 40 -->
      <g transform="translate(43.275 103.99268)scale(0.1 -0.1)">
       <use xlink:href="#DejaVuSans-52"/>
       <use x="63.623047" xlink:href="#DejaVuSans-48"/>
      </g>
     </g>
    </g>
    <g id="ytick_8">
     <g id="line2d_13">
      <g>
       <use style="stroke:#000000;stroke-width:0.8;" x="63" xlink:href="#mad1ba41587" y="57.088883"/>
      </g>
     </g>
     <g id="text_14">
      <!-- 60 -->
      <g transform="translate(43.275 60.888102)scale(0.1 -0.1)">
       <use xlink:href="#DejaVuSans-54"/>
       <use x="63.623047" xlink:href="#DejaVuSans-48"/>
      </g>
     </g>
    </g>
    <g id="text_15">
     <!-- voltage [mV] -->
     <defs>
      <path d="M 2.984375 54.6875 
L 12.5 54.6875 
L 29.59375 8.796875 
L 46.6875 54.6875 
L 56.203125 54.6875 
L 35.6875 0 
L 23.484375 0 
z
" id="DejaVuSans-118"/>
      <path d="M 30.609375 48.390625 
Q 23.390625 48.390625 19.1875 42.75 
Q 14.984375 37.109375 14.984375 27.296875 
Q 14.984375 17.484375 19.15625 11.84375 
Q 23.34375 6.203125 30.609375 6.203125 
Q 37.796875 6.203125 41.984375 11.859375 
Q 46.1875 17.53125 46.1875 27.296875 
Q 46.1875 37.015625 41.984375 42.703125 
Q 37.796875 48.390625 30.609375 48.390625 
z
M 30.609375 56 
Q 42.328125 56 49.015625 48.375 
Q 55.71875 40.765625 55.71875 27.296875 
Q 55.71875 13.875 49.015625 6.21875 
Q 42.328125 -1.421875 30.609375 -1.421875 
Q 18.84375 -1.421875 12.171875 6.21875 
Q 5.515625 13.875 5.515625 27.296875 
Q 5.515625 40.765625 12.171875 48.375 
Q 18.84375 56 30.609375 56 
z
" id="DejaVuSans-111"/>
      <path d="M 9.421875 75.984375 
L 18.40625 75.984375 
L 18.40625 0 
L 9.421875 0 
z
" id="DejaVuSans-108"/>
      <path d="M 34.28125 27.484375 
Q 23.390625 27.484375 19.1875 25 
Q 14.984375 22.515625 14.984375 16.5 
Q 14.984375 11.71875 18.140625 8.90625 
Q 21.296875 6.109375 26.703125 6.109375 
Q 34.1875 6.109375 38.703125 11.40625 
Q 43.21875 16.703125 43.21875 25.484375 
L 43.21875 27.484375 
z
M 52.203125 31.203125 
L 52.203125 0 
L 43.21875 0 
L 43.21875 8.296875 
Q 40.140625 3.328125 35.546875 0.953125 
Q 30.953125 -1.421875 24.3125 -1.421875 
Q 15.921875 -1.421875 10.953125 3.296875 
Q 6 8.015625 6 15.921875 
Q 6 25.140625 12.171875 29.828125 
Q 18.359375 34.515625 30.609375 34.515625 
L 43.21875 34.515625 
L 43.21875 35.40625 
Q 43.21875 41.609375 39.140625 45 
Q 35.0625 48.390625 27.6875 48.390625 
Q 23 48.390625 18.546875 47.265625 
Q 14.109375 46.140625 10.015625 43.890625 
L 10.015625 52.203125 
Q 14.9375 54.109375 19.578125 55.046875 
Q 24.21875 56 28.609375 56 
Q 40.484375 56 46.34375 49.84375 
Q 52.203125 43.703125 52.203125 31.203125 
z
" id="DejaVuSans-97"/>
      <path d="M 45.40625 27.984375 
Q 45.40625 37.75 41.375 43.109375 
Q 37.359375 48.484375 30.078125 48.484375 
Q 22.859375 48.484375 18.828125 43.109375 
Q 14.796875 37.75 14.796875 27.984375 
Q 14.796875 18.265625 18.828125 12.890625 
Q 22.859375 7.515625 30.078125 7.515625 
Q 37.359375 7.515625 41.375 12.890625 
Q 45.40625 18.265625 45.40625 27.984375 
z
M 54.390625 6.78125 
Q 54.390625 -7.171875 48.1875 -13.984375 
Q 42 -20.796875 29.203125 -20.796875 
Q 24.46875 -20.796875 20.265625 -20.09375 
Q 16.0625 -19.390625 12.109375 -17.921875 
L 12.109375 -9.1875 
Q 16.0625 -11.328125 19.921875 -12.34375 
Q 23.78125 -13.375 27.78125 -13.375 
Q 36.625 -13.375 41.015625 -8.765625 
Q 45.40625 -4.15625 45.40625 5.171875 
L 45.40625 9.625 
Q 42.625 4.78125 38.28125 2.390625 
Q 33.9375 0 27.875 0 
Q 17.828125 0 11.671875 7.65625 
Q 5.515625 15.328125 5.515625 27.984375 
Q 5.515625 40.671875 11.671875 48.328125 
Q 17.828125 56 27.875 56 
Q 33.9375 56 38.28125 53.609375 
Q 42.625 51.21875 45.40625 46.390625 
L 45.40625 54.6875 
L 54.390625 54.6875 
z
" id="DejaVuSans-103"/>
      <path d="M 28.609375 0 
L 0.78125 72.90625 
L 11.078125 72.90625 
L 34.1875 11.53125 
L 57.328125 72.90625 
L 67.578125 72.90625 
L 39.796875 0 
z
" id="DejaVuSans-86"/>
     </defs>
     <g transform="translate(28.815625 250.624062)rotate(-90)scale(0.1 -0.1)">
      <use xlink:href="#DejaVuSans-118"/>
      <use x="59.179688" xlink:href="#DejaVuSans-111"/>
      <use x="120.361328" xlink:href="#DejaVuSans-108"/>
      <use x="148.144531" xlink:href="#DejaVuSans-116"/>
      <use x="187.353516" xlink:href="#DejaVuSans-97"/>
      <use x="248.632812" xlink:href="#DejaVuSans-103"/>
      <use x="312.109375" xlink:href="#DejaVuSans-101"/>
      <use x="373.632812" xlink:href="#DejaVuSans-32"/>
      <use x="405.419922" xlink:href="#DejaVuSans-91"/>
      <use x="444.433594" xlink:href="#DejaVuSans-109"/>
      <use x="541.845703" xlink:href="#DejaVuSans-86"/>
      <use x="610.253906" xlink:href="#DejaVuSans-93"/>
     </g>
    </g>
   </g>
   <g id="line2d_14">
    <path clip-path="url(#pfaa34d0241)" d="M 80.754545 312.47509 
L 83.385088 312.369854 
L 83.417364 312.264619 
L 83.465779 312.47509 
L 83.481917 312.369854 
L 83.966066 312.264619 
L 84.062896 312.159383 
L 84.175864 312.264619 
L 84.547045 312.369854 
L 84.660013 312.47509 
L 84.96664 312.369854 
L 85.079609 312.264619 
L 85.337821 312.369854 
L 85.35396 312.47509 
L 85.402374 312.264619 
L 85.418513 312.264619 
L 86.322257 312.369854 
L 86.435225 312.47509 
L 87.419661 312.580326 
L 87.532629 312.685562 
L 87.581044 312.580326 
L 87.629459 312.685562 
L 88.694587 312.790798 
L 88.807555 312.896033 
L 88.85597 312.790798 
L 89.049629 300.793918 
L 89.501501 289.533689 
L 90.356831 274.905914 
L 91.196022 265.329458 
L 91.454235 263.01427 
L 91.777001 260.172904 
L 92.503224 256.068709 
L 92.535501 255.963473 
L 92.713022 255.437294 
L 92.745299 255.332058 
L 92.971235 254.490172 
L 93.01965 254.384936 
L 93.213309 253.753521 
L 93.358554 253.648285 
L 93.536075 253.122107 
L 93.600628 253.016871 
L 93.762011 252.595928 
L 93.858841 252.490692 
L 94.004086 252.174984 
L 94.213884 252.069749 
L 94.359128 251.754041 
L 95.133766 251.648806 
L 95.182181 251.54357 
L 95.230596 251.648806 
L 95.843851 251.54357 
L 95.989096 251.122627 
L 96.053649 251.227862 
L 96.085926 251.122627 
L 96.392553 251.017391 
L 96.505522 250.912155 
L 96.796011 251.017391 
L 97.005809 251.754041 
L 97.070362 251.859277 
L 97.215607 252.174984 
L 97.393128 252.069749 
L 97.425404 251.964513 
L 97.489958 252.069749 
L 97.845 251.964513 
L 97.974106 251.754041 
L 98.264596 251.859277 
L 98.296872 251.964513 
L 98.345287 251.859277 
L 98.458255 251.754041 
L 98.50667 251.859277 
L 98.538947 251.964513 
L 98.571223 251.754041 
L 98.6035 251.859277 
L 99.119925 251.754041 
L 99.249032 251.54357 
L 99.959117 251.438334 
L 100.055947 251.333098 
L 100.572372 254.069229 
L 100.620787 254.174464 
L 100.733755 254.384936 
L 100.862861 254.174464 
L 101.024244 254.069229 
L 101.153351 253.858757 
L 101.298595 253.753521 
L 101.44384 253.437814 
L 101.556808 253.332578 
L 101.685914 253.122107 
L 101.831159 253.016871 
L 101.847297 252.911635 
L 101.927989 253.016871 
L 102.10551 252.911635 
L 102.266893 252.490692 
L 102.363723 252.385456 
L 102.492829 252.174984 
L 102.993116 252.069749 
L 103.057669 251.754041 
L 103.106084 251.859277 
L 103.251329 252.174984 
L 103.380435 251.964513 
L 103.687063 251.859277 
L 103.783893 251.754041 
L 103.880722 251.859277 
L 103.993691 251.754041 
L 104.09052 251.648806 
L 104.18735 251.54357 
L 104.300318 251.648806 
L 104.38101 251.54357 
L 104.526254 251.122627 
L 104.574669 251.227862 
L 104.623084 251.122627 
L 104.897435 251.017391 
L 105.010403 250.912155 
L 105.236339 251.017391 
L 105.317031 251.122627 
L 105.333169 251.017391 
L 106.107807 250.912155 
L 106.123945 250.806919 
L 106.17236 251.017391 
L 106.204637 250.912155 
L 106.882445 251.017391 
L 106.995413 251.122627 
L 107.705498 251.017391 
L 107.737775 250.912155 
L 107.78619 251.122627 
L 108.383307 251.017391 
L 108.512413 250.806919 
L 108.576966 250.701683 
L 108.689934 250.596448 
L 109.254775 250.491212 
L 109.335466 250.385976 
L 109.351605 250.491212 
L 109.690509 250.385976 
L 109.819615 250.175505 
L 109.916445 250.28074 
L 110.013275 250.175505 
L 110.126243 250.28074 
L 110.5297 250.385976 
L 110.610392 250.491212 
L 110.62653 250.385976 
L 111.368891 250.491212 
L 111.497998 250.701683 
L 111.836902 250.806919 
L 111.85304 250.912155 
L 111.933732 250.806919 
L 112.256498 250.912155 
L 112.321051 250.806919 
L 112.369466 251.017391 
L 112.821338 251.122627 
L 112.837476 251.227862 
L 112.869753 251.017391 
L 112.902029 251.017391 
L 113.144104 251.122627 
L 113.289349 251.438334 
L 113.37004 251.54357 
L 113.499146 251.754041 
L 113.595976 251.859277 
L 113.644391 251.964513 
L 113.692806 251.859277 
L 113.789636 251.754041 
L 113.870327 251.648806 
L 113.886465 251.754041 
L 114.160817 251.859277 
L 114.257646 251.964513 
L 114.386753 251.648806 
L 114.419029 251.754041 
L 114.483582 251.648806 
L 114.580412 251.438334 
L 114.59655 251.54357 
L 114.806348 251.438334 
L 114.919316 251.333098 
L 115.35505 251.227862 
L 115.468018 251.122627 
L 115.758508 251.017391 
L 115.887614 250.806919 
L 116.161965 250.701683 
L 116.258795 250.491212 
L 116.274933 250.596448 
L 116.355625 250.491212 
L 116.468593 250.385976 
L 116.533146 250.28074 
L 116.662252 250.070269 
L 117.017295 250.175505 
L 117.033433 250.28074 
L 117.114125 250.175505 
L 117.259369 250.28074 
L 117.43689 250.806919 
L 117.469167 250.912155 
L 117.662827 251.54357 
L 117.711241 251.648806 
L 117.791933 251.859277 
L 117.82421 251.754041 
L 117.921039 251.859277 
L 118.034007 251.964513 
L 118.647263 251.859277 
L 118.760231 251.754041 
L 119.05072 251.648806 
L 119.131411 251.54357 
L 119.14755 251.648806 
L 119.518731 251.54357 
L 119.647837 251.333098 
L 119.80922 251.227862 
L 119.922188 251.122627 
L 120.099709 251.017391 
L 120.244954 250.701683 
L 120.438613 250.596448 
L 120.551581 250.491212 
L 120.664549 250.385976 
L 120.696826 250.28074 
L 120.745241 250.491212 
L 121.116422 250.596448 
L 121.22939 250.701683 
L 121.600571 250.596448 
L 121.729677 250.385976 
L 121.810368 250.28074 
L 121.939475 250.070269 
L 122.116996 249.965033 
L 122.213826 249.859797 
L 122.342932 250.070269 
L 122.778666 249.965033 
L 122.810943 249.859797 
L 122.875496 249.965033 
L 122.923911 250.070269 
L 122.972326 249.965033 
L 123.133709 250.070269 
L 123.262815 250.28074 
L 123.553304 250.385976 
L 123.682411 250.596448 
L 123.827655 250.28074 
L 123.924485 250.385976 
L 123.940623 250.491212 
L 124.005177 250.28074 
L 124.360219 250.175505 
L 124.473187 250.070269 
L 124.682985 250.175505 
L 124.812091 250.385976 
L 125.215549 250.491212 
L 125.328517 250.701683 
L 125.360793 250.806919 
L 125.441485 250.596448 
L 125.764251 250.491212 
L 125.780389 250.385976 
L 125.861081 250.491212 
L 126.038602 250.385976 
L 126.15157 250.28074 
L 126.329091 250.175505 
L 126.425921 250.070269 
L 126.538889 250.175505 
L 127.136006 250.070269 
L 127.152144 249.965033 
L 127.232836 250.070269 
L 127.248974 250.175505 
L 127.297389 249.965033 
L 127.313527 249.965033 
L 127.394219 250.070269 
L 127.442633 250.28074 
L 127.507187 250.175505 
L 127.523325 250.070269 
L 127.604016 250.175505 
L 127.975197 250.070269 
L 128.104304 249.859797 
L 128.217272 249.754561 
L 128.33024 249.649326 
L 128.410931 249.54409 
L 128.523899 249.438854 
L 129.08874 249.333618 
L 129.137154 249.228382 
L 129.185569 249.333618 
L 129.605165 249.438854 
L 129.718133 249.54409 
L 129.831101 249.438854 
L 130.008622 248.912675 
L 130.137729 248.807439 
L 130.266835 248.596968 
L 130.525048 248.491732 
L 130.541186 248.386496 
L 130.589601 248.596968 
L 130.621878 248.491732 
L 130.670292 248.596968 
L 130.718707 248.491732 
L 131.07375 248.386496 
L 131.138303 248.28126 
L 131.17058 248.386496 
L 131.202856 248.28126 
L 131.315824 248.176025 
L 132.477782 248.28126 
L 132.59075 248.386496 
L 132.768271 248.28126 
L 132.816686 248.176025 
L 132.865101 248.28126 
L 133.268558 248.386496 
L 133.381526 248.491732 
L 133.413803 248.491732 
L 133.559047 249.017911 
L 133.591324 248.912675 
L 133.607462 249.123147 
L 133.623601 249.123147 
L 133.736569 249.228382 
L 133.784983 249.333618 
L 133.930228 249.649326 
L 133.978643 249.754561 
L 134.156164 250.28074 
L 134.269132 250.175505 
L 134.430515 250.28074 
L 134.559622 250.491212 
L 134.624175 250.385976 
L 134.656451 250.491212 
L 134.817834 250.385976 
L 134.930802 250.28074 
L 135.301983 250.175505 
L 135.414951 249.859797 
L 135.43109 249.965033 
L 135.818409 249.859797 
L 135.834547 249.754561 
L 135.866824 249.965033 
L 135.915238 249.859797 
L 136.044345 249.754561 
L 136.060483 249.649326 
L 136.141175 249.754561 
L 136.883536 249.649326 
L 137.028781 249.333618 
L 137.157887 249.228382 
L 137.206302 249.017911 
L 137.254717 249.228382 
L 137.367685 249.123147 
L 137.432238 248.912675 
L 137.464515 249.123147 
L 137.690451 249.017911 
L 137.819557 248.807439 
L 137.916387 248.912675 
L 138.013217 249.017911 
L 138.158461 248.702204 
L 138.707163 248.596968 
L 138.820132 248.491732 
L 139.126759 248.596968 
L 139.239727 248.702204 
L 139.772291 248.596968 
L 139.901397 248.386496 
L 139.998227 248.491732 
L 140.095057 248.386496 
L 140.111195 248.491732 
L 140.191887 248.386496 
L 140.756727 248.28126 
L 140.885833 248.070789 
L 140.966525 247.965553 
L 141.095631 247.755081 
L 141.321567 248.596968 
L 141.402259 248.702204 
L 141.531365 248.912675 
L 141.902546 248.807439 
L 142.015514 248.702204 
L 142.14462 248.596968 
L 142.257588 248.491732 
L 142.80629 248.386496 
L 142.935397 248.176025 
L 144.339429 248.28126 
L 144.468535 248.702204 
L 144.484673 248.596968 
L 144.581503 248.491732 
L 144.726748 248.807439 
L 145.049513 248.912675 
L 145.08179 249.017911 
L 145.146343 248.912675 
L 145.340003 248.807439 
L 145.469109 248.596968 
L 145.64663 248.491732 
L 145.759598 248.386496 
L 146.308301 248.28126 
L 146.388992 248.070789 
L 146.421269 248.176025 
L 147.244322 248.28126 
L 147.26046 248.386496 
L 147.341151 248.28126 
L 147.550949 248.176025 
L 147.663917 248.070789 
L 148.180343 248.176025 
L 148.309449 248.386496 
L 148.374002 248.28126 
L 148.48697 248.176025 
L 148.874289 248.070789 
L 148.890428 247.965553 
L 148.971119 248.070789 
L 149.100226 248.176025 
L 149.116364 248.28126 
L 149.164779 248.070789 
L 149.197055 248.176025 
L 149.293885 248.070789 
L 149.406853 247.965553 
L 149.697343 248.070789 
L 149.810311 248.176025 
L 149.971694 248.176025 
L 150.00397 247.965553 
L 150.084662 248.070789 
L 150.407427 248.176025 
L 150.601087 248.807439 
L 150.746332 248.491732 
L 151.085236 248.596968 
L 151.149789 248.702204 
L 151.182066 248.596968 
L 151.359587 248.491732 
L 151.375725 248.386496 
L 151.456417 248.491732 
L 151.811459 248.386496 
L 151.843736 248.28126 
L 151.908289 248.386496 
L 152.424714 248.28126 
L 152.553821 248.070789 
L 152.650651 247.965553 
L 152.715204 247.860317 
L 152.74748 247.965553 
L 152.763619 248.070789 
L 152.812033 247.860317 
L 152.828172 247.860317 
L 153.40915 247.860317 
L 153.60281 259.857197 
L 154.054682 271.01219 
L 154.425863 277.852516 
L 154.861597 284.377135 
L 154.974565 285.7452 
L 155.68465 293.637884 
L 155.894448 295.637364 
L 156.265629 299.110145 
L 156.281767 299.110145 
L 156.556118 301.320097 
L 158.62182 314.158863 
L 158.670235 314.264099 
L 158.993001 315.7374 
L 159.057554 315.842635 
L 159.299628 316.789757 
L 159.331905 316.894993 
L 159.557841 317.73688 
L 159.622394 317.842115 
L 159.832192 318.578766 
L 159.896745 318.684002 
L 160.090405 319.315416 
L 160.122681 319.420652 
L 160.300202 319.946831 
L 160.348617 320.052067 
L 160.493862 320.367774 
L 160.526139 320.47301 
L 160.70366 320.999189 
L 160.768213 321.104425 
L 160.929596 321.525368 
L 161.042564 321.630604 
L 161.187809 321.946311 
L 161.413745 322.051547 
L 161.558989 322.367254 
L 161.639681 322.47249 
L 161.768787 322.682962 
L 161.897894 322.788197 
L 162.027 322.998669 
L 162.091553 323.103905 
L 162.22066 323.314376 
L 162.285213 323.419612 
L 162.317489 323.524848 
L 162.382043 323.419612 
L 162.462734 323.524848 
L 162.59184 323.735319 
L 162.995298 323.840555 
L 163.108266 323.945791 
L 163.318064 324.051027 
L 163.431032 324.261498 
L 163.463308 324.156263 
L 163.527861 324.261498 
L 163.64083 324.366734 
L 163.931319 324.47197 
L 164.044287 324.577206 
L 164.544574 324.47197 
L 164.625266 324.366734 
L 164.641404 324.47197 
L 165.997021 324.366734 
L 166.126127 324.156263 
L 166.206818 324.261498 
L 166.222957 324.156263 
L 166.432755 324.051027 
L 166.561861 323.840555 
L 166.900765 323.735319 
L 167.013733 323.630084 
L 167.304223 323.524848 
L 167.449467 323.20914 
L 167.659265 323.103905 
L 167.772233 322.998669 
L 168.014308 322.893433 
L 168.159552 322.577726 
L 168.450042 322.47249 
L 168.56301 322.367254 
L 168.579148 322.47249 
L 168.627563 322.262018 
L 168.643701 322.367254 
L 168.756669 322.262018 
L 168.837361 322.156783 
L 168.853499 322.051547 
L 168.885775 322.262018 
L 168.93419 322.156783 
L 169.12785 322.051547 
L 169.256956 321.841075 
L 169.418339 321.735839 
L 169.499031 321.630604 
L 169.611999 313.422212 
L 169.708829 313.527448 
L 169.724967 313.632684 
L 169.805658 313.527448 
L 170.951477 313.632684 
L 170.967616 313.73792 
L 171.048307 313.632684 
L 171.790669 313.73792 
L 171.822945 313.843155 
L 171.887498 313.73792 
L 171.952052 313.632684 
L 172.048881 313.527448 
L 172.161849 313.632684 
L 172.387786 313.527448 
L 172.500754 313.422212 
L 173.162424 313.316976 
L 173.29153 313.106505 
L 174.518041 313.211741 
L 174.582594 313.316976 
L 174.61487 313.211741 
L 175.018328 313.316976 
L 175.147434 313.527448 
L 175.260402 313.422212 
L 175.389508 313.527448 
L 175.405647 313.632684 
L 175.486338 313.527448 
L 175.615445 313.632684 
L 175.712274 313.73792 
L 175.825242 313.632684 
L 175.93821 313.73792 
L 176.164147 313.843155 
L 176.277115 313.948391 
L 176.390083 313.843155 
L 176.664434 313.73792 
L 176.777402 313.632684 
L 176.938785 313.527448 
L 176.971061 313.422212 
L 177.019476 313.632684 
L 177.035615 313.527448 
L 177.616593 313.527448 
L 177.810253 297.847316 
L 178.391231 279.431053 
L 179.149731 262.488092 
L 179.82754 251.333098 
L 180.39238 245.334658 
L 180.860391 242.914235 
L 180.876529 242.914235 
L 181.021773 242.388056 
L 181.183156 241.967113 
L 181.312263 241.861877 
L 181.473646 241.440934 
L 181.505922 241.335698 
L 181.699582 240.704284 
L 181.764135 240.599048 
L 181.893241 240.388576 
L 182.328975 240.283341 
L 182.47422 239.967633 
L 182.506497 239.862397 
L 182.635603 239.651926 
L 182.716294 239.54669 
L 182.877677 239.125747 
L 182.926092 239.230983 
L 182.974507 239.336219 
L 183.022922 239.230983 
L 183.103614 239.125747 
L 183.23272 238.915275 
L 183.281135 238.81004 
L 183.442518 238.389096 
L 183.474794 238.283861 
L 183.668454 237.652446 
L 183.70073 237.54721 
L 183.845975 237.231503 
L 183.89439 237.126267 
L 184.168741 235.968673 
L 184.313986 235.863438 
L 184.523784 235.126787 
L 184.814273 235.021551 
L 184.927241 234.390137 
L 184.975656 234.600608 
L 185.072486 234.495372 
L 185.250007 233.758722 
L 185.266145 233.863958 
L 185.346837 233.758722 
L 185.492081 233.443014 
L 185.524358 233.337779 
L 186.411964 227.023631 
L 186.428102 226.392217 
L 186.444241 219.867598 
L 186.492656 76.852164 
L 186.573347 151.674808 
L 186.73473 236.705324 
L 186.944528 239.441454 
L 188.05807 252.701163 
L 188.074208 252.701163 
L 188.25173 253.648285 
L 188.461528 254.384936 
L 188.526081 254.490172 
L 188.71974 255.121587 
L 188.768155 255.226822 
L 188.929538 255.647765 
L 189.026368 255.54253 
L 189.155474 255.753001 
L 189.720315 255.647765 
L 189.849421 255.437294 
L 190.091495 255.332058 
L 190.220602 255.121587 
L 190.285155 255.016351 
L 190.414261 254.805879 
L 190.4304 254.911115 
L 190.494953 254.700643 
L 190.591783 254.595408 
L 190.704751 254.490172 
L 190.89841 254.384936 
L 191.011378 254.2797 
L 191.140485 254.174464 
L 191.285729 253.858757 
L 191.46325 253.753521 
L 191.624633 253.332578 
L 192.205612 253.227342 
L 192.334718 253.016871 
L 192.41541 252.911635 
L 192.544516 252.490692 
L 192.560655 252.595928 
L 192.609069 252.490692 
L 192.625208 252.385456 
L 192.705899 252.490692 
L 192.835006 252.385456 
L 192.899559 252.28022 
L 192.931835 252.385456 
L 193.238463 252.28022 
L 193.367569 252.069749 
L 193.512814 251.964513 
L 193.64192 251.754041 
L 193.916271 251.648806 
L 194.061516 251.333098 
L 194.448835 251.227862 
L 194.577941 251.017391 
L 194.723186 250.912155 
L 194.884569 250.491212 
L 194.981399 250.385976 
L 195.110505 250.175505 
L 195.271888 250.070269 
L 195.35258 249.859797 
L 195.384856 249.965033 
L 195.465548 249.859797 
L 195.594654 249.649326 
L 195.885143 249.54409 
L 195.998111 249.438854 
L 196.094941 249.333618 
L 196.256324 248.912675 
L 196.353154 249.017911 
L 196.449984 248.912675 
L 196.546813 249.017911 
L 196.67592 248.807439 
L 197.14393 248.702204 
L 197.160069 248.596968 
L 197.224622 248.807439 
L 197.402143 248.912675 
L 197.579664 249.54409 
L 197.628079 249.438854 
L 197.660356 249.649326 
L 197.724909 249.754561 
L 197.821739 249.965033 
L 197.837877 249.859797 
L 197.950845 249.965033 
L 198.09609 250.28074 
L 198.467271 250.175505 
L 198.483409 250.070269 
L 198.5641 250.175505 
L 198.644792 250.070269 
L 198.790036 249.754561 
L 198.935281 249.649326 
L 199.080526 249.333618 
L 199.193494 249.228382 
L 199.354877 248.807439 
L 199.41943 248.702204 
L 199.548536 248.491732 
L 199.661504 248.596968 
L 199.790611 248.491732 
L 199.919717 248.28126 
L 199.98427 248.176025 
L 200.048824 247.965553 
L 200.097238 248.070789 
L 200.516834 247.965553 
L 200.662079 247.54461 
L 200.710494 247.649846 
L 200.758908 247.54461 
L 200.871877 247.439374 
L 201.000983 247.228902 
L 201.065536 247.123667 
L 201.210781 246.807959 
L 201.372164 246.702724 
L 201.485132 246.597488 
L 201.646515 246.492252 
L 201.775621 246.28178 
L 202.130664 246.176545 
L 202.195217 246.071309 
L 202.227493 246.176545 
L 202.3566 246.071309 
L 202.485706 245.860837 
L 202.550259 245.755601 
L 202.711642 245.334658 
L 202.969855 245.229423 
L 203.098961 245.018951 
L 203.728355 245.124187 
L 203.792908 245.334658 
L 203.841323 245.229423 
L 204.083397 245.334658 
L 204.14795 245.439894 
L 204.180227 245.334658 
L 204.632099 245.229423 
L 204.728929 245.018951 
L 204.745067 245.124187 
L 204.809621 245.018951 
L 204.938727 244.808479 
L 205.019418 244.913715 
L 205.116248 245.018951 
L 205.164663 244.913715 
L 205.19694 245.124187 
L 205.213078 245.018951 
L 205.261493 245.124187 
L 205.358323 245.334658 
L 205.374461 245.229423 
L 206.052269 245.334658 
L 206.197514 245.650366 
L 206.455727 245.755601 
L 206.584833 245.966073 
L 206.665525 246.071309 
L 206.810769 246.387016 
L 207.343333 246.28178 
L 207.359471 246.176545 
L 207.440163 246.28178 
L 207.666099 246.387016 
L 207.682237 246.492252 
L 207.762929 246.387016 
L 208.021141 246.28178 
L 208.150248 246.071309 
L 208.198663 245.966073 
L 208.360046 245.54513 
L 208.473014 245.439894 
L 208.585982 245.334658 
L 208.924886 245.229423 
L 209.053992 245.018951 
L 209.215375 244.913715 
L 209.344482 244.703244 
L 209.538141 244.598008 
L 209.683386 244.2823 
L 209.715662 244.177065 
L 209.844769 243.966593 
L 210.054567 243.861357 
L 210.11912 243.756122 
L 210.151396 243.861357 
L 210.264364 243.966593 
L 210.393471 244.177065 
L 211.055141 244.071829 
L 211.200385 243.756122 
L 211.329492 243.650886 
L 211.458598 243.440414 
L 211.652258 243.335178 
L 211.749088 243.229943 
L 211.781364 243.335178 
L 211.829779 243.124707 
L 211.845917 243.229943 
L 211.991162 242.914235 
L 212.168683 243.019471 
L 212.313928 243.335178 
L 212.410758 243.229943 
L 212.475311 243.019471 
L 212.507587 243.124707 
L 212.556002 243.229943 
L 212.588279 243.124707 
L 212.636694 243.019471 
L 212.685109 243.124707 
L 212.846492 243.54565 
L 213.185396 243.440414 
L 213.217672 243.335178 
L 213.266087 243.54565 
L 213.556577 243.440414 
L 213.653406 243.335178 
L 213.750236 243.440414 
L 213.927757 242.914235 
L 214.024587 242.808999 
L 214.073002 242.598528 
L 214.137555 242.703764 
L 214.2828 242.598528 
L 214.395768 242.493292 
L 214.589427 242.388056 
L 214.718534 242.177585 
L 214.84764 242.282821 
L 214.879917 242.388056 
L 214.928332 242.177585 
L 215.202683 242.072349 
L 215.315651 241.967113 
L 215.493172 242.072349 
L 215.557725 242.177585 
L 215.590002 242.072349 
L 215.751385 242.177585 
L 215.767523 242.282821 
L 215.848214 242.177585 
L 215.945044 242.072349 
L 216.122566 241.54617 
L 216.187119 241.440934 
L 216.300087 241.125227 
L 216.316225 241.230463 
L 216.46147 241.125227 
L 216.606714 240.80952 
L 216.622853 240.914755 
L 216.703544 240.80952 
L 216.92948 240.704284 
L 216.977895 240.599048 
L 217.02631 240.704284 
L 217.042448 240.80952 
L 217.12314 240.704284 
L 217.704118 240.80952 
L 217.817087 240.914755 
L 218.204406 240.914755 
L 218.34965 241.440934 
L 218.656278 241.335698 
L 218.769246 241.230463 
L 218.962905 241.335698 
L 219.027459 241.230463 
L 219.075874 241.440934 
L 219.140427 241.335698 
L 219.172703 241.440934 
L 219.511608 241.54617 
L 219.640714 241.756642 
L 219.915065 241.861877 
L 220.124863 242.598528 
L 220.205554 242.703764 
L 220.350799 243.019471 
L 220.479905 242.808999 
L 221.125437 242.703764 
L 221.141575 242.598528 
L 221.222267 242.703764 
L 221.270682 242.598528 
L 221.415926 242.282821 
L 221.722554 242.177585 
L 221.85166 241.967113 
L 221.900075 241.967113 
L 222.029182 241.54617 
L 222.077596 241.440934 
L 222.158288 241.125227 
L 222.206703 241.230463 
L 222.739267 241.125227 
L 222.868373 240.914755 
L 222.916788 240.80952 
L 223.045894 240.599048 
L 223.142724 240.493812 
L 223.287969 240.178105 
L 223.384798 240.072869 
L 223.513905 239.862397 
L 223.626873 239.757162 
L 223.836671 239.020511 
L 223.981915 238.915275 
L 224.046468 238.704804 
L 224.094883 238.81004 
L 224.256266 239.230983 
L 224.320819 239.125747 
L 224.385373 239.020511 
L 224.417649 239.125747 
L 224.498341 239.230983 
L 224.514479 239.336219 
L 224.579032 239.230983 
L 224.59517 239.125747 
L 224.643585 239.336219 
L 224.659724 239.336219 
L 224.740415 239.441454 
L 224.869522 239.651926 
L 225.127734 239.54669 
L 225.240702 239.441454 
L 225.289117 239.54669 
L 225.305255 239.651926 
L 225.35367 239.441454 
L 225.369809 239.441454 
L 225.54733 239.54669 
L 225.676436 239.757162 
L 225.740989 239.651926 
L 225.853958 239.54669 
L 226.031479 239.441454 
L 226.289691 238.389096 
L 226.660872 238.283861 
L 226.806117 237.968153 
L 227.06433 238.073389 
L 227.096606 238.178625 
L 227.145021 238.073389 
L 227.257989 237.862917 
L 227.370957 238.073389 
L 227.548479 237.54721 
L 227.661447 237.441974 
L 227.677585 237.336739 
L 227.758276 237.441974 
L 227.855106 237.652446 
L 227.871244 237.54721 
L 228.048766 237.441974 
L 228.097181 237.336739 
L 228.145595 237.441974 
L 228.419946 237.336739 
L 228.532915 237.231503 
L 228.565191 237.126267 
L 228.694297 236.915795 
L 228.823404 236.81056 
L 228.871819 236.600088 
L 228.920234 236.705324 
L 229.000925 236.81056 
L 229.017063 236.705324 
L 229.097755 236.600088 
L 229.243 236.284381 
L 229.307553 236.179145 
L 229.452797 235.863438 
L 229.630319 235.968673 
L 229.646457 236.073909 
L 229.71101 235.863438 
L 230.082191 235.758202 
L 230.098329 235.652966 
L 230.162882 235.863438 
L 230.905244 235.758202 
L 231.179595 234.600608 
L 231.22801 234.495372 
L 231.389393 234.074429 
L 231.437808 233.969193 
L 231.921957 231.443535 
L 232.002648 231.338299 
L 232.115616 230.180705 
L 232.164031 228.81264 
L 232.180169 224.918916 
L 232.244722 75.69457 
L 232.309276 145.571133 
L 232.470659 235.54773 
L 232.535212 236.389616 
L 232.599765 236.179145 
L 232.74501 235.863438 
L 233.035499 238.389096 
L 233.551924 243.861357 
L 233.584201 243.966593 
L 233.826275 245.755601 
L 234.504084 249.54409 
L 234.584775 249.649326 
L 234.762296 250.175505 
L 234.82685 250.28074 
L 234.988233 250.701683 
L 235.020509 250.806919 
L 235.181892 251.227862 
L 235.19803 251.122627 
L 235.230307 251.333098 
L 235.262584 251.333098 
L 235.359413 251.438334 
L 235.504658 251.754041 
L 235.601488 251.859277 
L 235.730594 252.069749 
L 235.908115 252.174984 
L 236.021083 252.28022 
L 236.117913 252.385456 
L 236.263158 252.701163 
L 236.279296 252.595928 
L 236.343849 252.701163 
L 236.505232 253.122107 
L 236.876413 253.016871 
L 237.005519 252.806399 
L 237.070073 253.016871 
L 237.118488 252.911635 
L 237.231456 252.806399 
L 237.392839 252.701163 
L 237.521945 252.490692 
L 237.683328 252.385456 
L 237.844711 251.964513 
L 237.957679 251.859277 
L 238.070647 251.754041 
L 238.167477 251.648806 
L 238.296583 251.438334 
L 238.474104 251.333098 
L 238.554796 251.122627 
L 238.587072 251.227862 
L 238.667764 251.122627 
L 238.780732 251.017391 
L 238.845285 250.912155 
L 238.942115 250.806919 
L 238.958253 250.912155 
L 239.022806 250.701683 
L 239.151913 250.596448 
L 239.297157 250.28074 
L 239.361711 250.175505 
L 239.490817 249.965033 
L 239.732891 249.859797 
L 239.845859 249.754561 
L 240.152487 249.649326 
L 240.265455 249.54409 
L 240.572083 249.438854 
L 240.685051 249.333618 
L 240.959402 249.228382 
L 241.088508 249.017911 
L 241.459689 248.912675 
L 241.588795 248.702204 
L 241.717902 248.596968 
L 241.847008 248.386496 
L 241.895423 248.28126 
L 242.008391 248.176025 
L 242.169774 248.28126 
L 242.363433 263.645685 
L 242.799167 276.379215 
L 243.234901 284.903314 
L 243.654497 291.112226 
L 243.767465 292.480291 
L 244.396859 299.320617 
L 244.606657 301.320097 
L 244.945561 304.371935 
L 246.430284 313.422212 
L 246.46256 313.527448 
L 246.769188 314.895513 
L 246.801465 315.000749 
L 247.108092 316.368814 
L 247.172645 316.47405 
L 247.382443 317.210701 
L 247.41472 317.315936 
L 247.624518 318.052587 
L 247.672933 318.157823 
L 247.898869 318.999709 
L 247.963422 319.104945 
L 248.157081 319.736359 
L 248.221635 319.841595 
L 248.383018 320.262538 
L 248.463709 320.367774 
L 248.64123 320.893953 
L 248.721922 320.999189 
L 248.867166 321.314896 
L 248.996273 321.420132 
L 249.141517 321.735839 
L 249.189932 321.841075 
L 249.335177 322.156783 
L 249.544975 322.262018 
L 249.674081 322.47249 
L 249.722496 322.577726 
L 249.851602 322.788197 
L 249.964571 322.893433 
L 250.093677 323.103905 
L 250.384166 323.20914 
L 250.497134 323.314376 
L 250.593964 323.419612 
L 250.610102 323.524848 
L 250.690794 323.419612 
L 250.884453 323.524848 
L 250.997421 323.630084 
L 251.255634 323.735319 
L 251.271772 323.840555 
L 251.336326 323.735319 
L 251.368602 323.630084 
L 251.433155 323.735319 
L 251.836613 323.840555 
L 251.852751 323.945791 
L 251.933443 323.840555 
L 252.046411 323.735319 
L 252.546698 323.630084 
L 252.562836 323.524848 
L 252.643528 323.630084 
L 252.853325 323.524848 
L 252.982432 323.314376 
L 253.724793 323.20914 
L 253.821623 323.103905 
L 253.934591 323.20914 
L 254.176666 323.103905 
L 254.305772 322.893433 
L 254.741506 322.788197 
L 254.789921 322.577726 
L 254.838336 322.788197 
L 255.015857 322.682962 
L 255.031995 322.577726 
L 255.096548 322.788197 
L 255.112687 322.682962 
L 255.354761 322.577726 
L 255.467729 322.47249 
L 255.709804 322.367254 
L 255.822772 322.262018 
L 256.000293 322.156783 
L 256.129399 321.946311 
L 256.242367 322.051547 
L 256.419889 321.946311 
L 256.548995 321.735839 
L 256.774931 321.630604 
L 256.791069 321.525368 
L 256.871761 321.630604 
L 256.968591 321.525368 
L 257.081559 321.420132 
L 257.129974 321.314896 
L 257.25908 321.104425 
L 257.517293 320.999189 
L 257.630261 320.893953 
L 258.01758 320.788717 
L 258.146686 320.578246 
L 258.162824 320.683482 
L 258.243516 320.578246 
L 258.259654 320.578246 
L 258.372622 314.47457 
L 259.647548 314.579806 
L 259.679824 314.685042 
L 259.744377 314.579806 
L 260.244665 314.47457 
L 260.276941 314.264099 
L 260.341494 314.47457 
L 261.42276 314.579806 
L 261.471175 314.685042 
L 261.503452 314.579806 
L 261.51959 314.47457 
L 261.600281 314.579806 
L 262.616994 314.47457 
L 262.649271 314.369334 
L 262.713824 314.47457 
L 263.230249 314.579806 
L 263.246387 314.685042 
L 263.327079 314.579806 
L 264.16627 314.685042 
L 264.214685 314.790278 
L 264.2631 314.685042 
L 264.392206 314.790278 
L 264.505175 314.895513 
L 266.377217 314.895513 
L 266.570876 291.322697 
L 267.151855 263.645685 
L 268.265397 230.917356 
L 268.507472 227.444575 
L 268.846376 219.972834 
L 268.910929 75.273627 
L 268.991621 167.460176 
L 269.153004 236.494852 
L 269.18528 236.81056 
L 269.233695 236.389616 
L 269.395078 235.54773 
L 269.572599 236.073909 
L 269.604876 236.179145 
L 269.798535 236.81056 
L 269.814674 236.705324 
L 269.863089 237.021031 
L 269.94378 237.126267 
L 270.089025 237.441974 
L 270.282684 237.54721 
L 270.395652 237.757682 
L 270.524759 237.54721 
L 270.653865 237.54721 
L 270.782971 237.862917 
L 270.79911 237.968153 
L 270.879801 237.862917 
L 271.008907 237.652446 
L 271.154152 237.757682 
L 271.218705 237.968153 
L 271.26712 237.862917 
L 271.428503 237.441974 
L 271.444641 237.54721 
L 271.525333 237.441974 
L 271.638301 237.336739 
L 271.702854 237.231503 
L 271.896514 236.600088 
L 272.009482 236.494852 
L 272.283833 235.337259 
L 272.299971 235.442494 
L 272.380663 235.337259 
L 272.445216 235.337259 
L 272.59046 234.81108 
L 272.816397 233.969193 
L 272.88095 233.863958 
L 273.090748 233.127307 
L 273.123024 233.022071 
L 273.25213 232.8116 
L 273.300545 232.916836 
L 273.461928 233.337779 
L 273.526482 233.443014 
L 273.671726 233.758722 
L 273.800833 233.863958 
L 273.865386 233.969193 
L 273.881524 233.863958 
L 274.075184 233.232543 
L 274.172013 233.127307 
L 274.414088 232.180185 
L 274.446364 232.074949 
L 274.623886 231.54877 
L 274.704577 231.654006 
L 274.752992 231.759242 
L 274.785269 231.54877 
L 274.801407 231.654006 
L 274.86596 231.54877 
L 274.946651 231.338299 
L 274.96279 231.443535 
L 275.043481 231.54877 
L 275.05962 231.443535 
L 275.172588 231.338299 
L 275.350109 230.81212 
L 275.495354 230.706884 
L 275.753566 229.54929 
L 275.801981 229.654526 
L 275.834258 229.54929 
L 276.027917 228.917876 
L 276.060194 228.81264 
L 276.140885 228.917876 
L 276.1893 228.602168 
L 276.221577 228.496932 
L 276.399098 227.54981 
L 276.641172 226.497453 
L 276.657311 226.602688 
L 276.705726 226.392217 
L 277.04463 223.656086 
L 277.286704 219.446655 
L 277.351257 72.011318 
L 277.431949 151.780044 
L 277.593332 232.601128 
L 277.754715 234.179665 
L 278.206587 237.757682 
L 278.448662 239.651926 
L 278.480938 239.757162 
L 278.868257 241.756642 
L 278.900534 241.651406 
L 278.93281 241.861877 
L 278.948949 241.861877 
L 279.094193 242.177585 
L 279.158747 242.282821 
L 279.287853 242.493292 
L 279.320129 242.598528 
L 279.433098 242.703764 
L 279.69131 242.598528 
L 279.836555 242.282821 
L 280.014076 242.177585 
L 280.223874 241.440934 
L 280.54664 241.335698 
L 280.64347 241.230463 
L 280.659608 241.335698 
L 280.740299 241.230463 
L 280.804853 241.125227 
L 280.820991 241.019991 
L 280.885544 241.230463 
L 280.901682 241.125227 
L 281.079204 241.019991 
L 281.192172 240.914755 
L 281.563353 240.80952 
L 281.708597 240.493812 
L 281.789289 240.599048 
L 281.805427 240.493812 
L 282.241161 240.388576 
L 282.370267 240.178105 
L 282.483235 240.072869 
L 282.612342 239.862397 
L 282.951246 239.757162 
L 283.096491 239.441454 
L 283.403118 239.336219 
L 283.532225 239.125747 
L 283.85499 239.020511 
L 284.000235 238.704804 
L 284.04865 238.599568 
L 284.210033 238.178625 
L 284.24231 238.073389 
L 284.387554 237.757682 
L 284.484384 237.652446 
L 284.71032 236.81056 
L 284.90398 236.705324 
L 285.033086 236.494852 
L 285.065363 236.389616 
L 285.259022 235.758202 
L 285.307437 235.652966 
L 285.420405 235.54773 
L 285.46882 235.442494 
L 285.662479 234.81108 
L 285.678618 234.916315 
L 285.743171 234.705844 
L 285.823862 234.600608 
L 285.985245 234.179665 
L 286.146628 234.074429 
L 286.308011 233.653486 
L 286.437118 233.863958 
L 286.517809 233.758722 
L 286.550086 233.653486 
L 286.598501 233.758722 
L 286.711469 233.863958 
L 286.743745 233.758722 
L 286.856713 233.653486 
L 287.486107 233.54825 
L 287.582937 233.337779 
L 287.599075 233.443014 
L 287.760458 233.337779 
L 288.067085 231.969713 
L 288.341436 231.864478 
L 288.486681 231.443535 
L 288.567373 231.759242 
L 288.615788 231.654006 
L 288.809447 231.022591 
L 288.841724 230.917356 
L 288.97083 230.706884 
L 289.132213 231.127827 
L 289.245181 231.233063 
L 289.374287 231.443535 
L 289.567947 231.338299 
L 289.810021 230.391177 
L 289.987543 230.285941 
L 290.342585 228.602168 
L 290.358723 228.707404 
L 290.391 228.496932 
L 290.439415 228.602168 
L 290.552383 228.496932 
L 290.665351 228.391697 
L 290.697628 228.286461 
L 290.842872 227.970754 
L 290.907425 227.865518 
L 291.004255 227.655046 
L 291.020394 227.760282 
L 291.05267 227.655046 
L 291.197915 227.339339 
L 291.230191 227.234103 
L 292.069383 221.340899 
L 292.101659 218.07859 
L 292.166212 72.432261 
L 292.230766 136.626091 
L 292.408287 231.864478 
L 292.553532 232.706364 
L 292.634223 232.8116 
L 293.376585 237.021031 
L 293.424999 237.126267 
L 293.780042 238.81004 
L 293.844595 238.915275 
L 294.054393 239.757162 
L 294.070531 239.651926 
L 294.118946 239.862397 
L 294.135084 239.862397 
L 294.248053 239.967633 
L 294.377159 240.178105 
L 294.490127 240.072869 
L 294.667648 240.178105 
L 294.812893 240.493812 
L 294.877446 240.599048 
L 294.990414 240.704284 
L 295.11952 240.80952 
L 295.21635 240.914755 
L 295.345457 240.704284 
L 295.571393 240.599048 
L 295.732776 240.178105 
L 295.797329 240.072869 
L 295.926435 239.862397 
L 295.990988 239.757162 
L 296.120095 239.54669 
L 296.200786 239.441454 
L 296.378308 238.915275 
L 296.555829 238.81004 
L 296.571967 238.704804 
L 296.652659 238.81004 
L 296.83018 239.336219 
L 297.346605 239.230983 
L 297.507988 238.81004 
L 297.717786 238.704804 
L 297.927584 237.968153 
L 298.040552 237.862917 
L 298.15352 237.54721 
L 298.169658 237.652446 
L 298.234211 237.54721 
L 298.444009 236.81056 
L 298.524701 236.705324 
L 298.637669 236.494852 
L 298.653807 236.600088 
L 298.702222 236.389616 
L 298.71836 236.389616 
L 298.976573 235.337259 
L 299.057265 235.232023 
L 299.267062 234.495372 
L 299.315477 234.390137 
L 299.347754 234.284901 
L 299.412307 234.390137 
L 299.912594 234.284901 
L 300.041701 234.074429 
L 300.073977 233.969193 
L 300.170807 233.758722 
L 300.186945 233.863958 
L 300.219222 233.969193 
L 300.267637 233.758722 
L 300.541988 233.653486 
L 300.671094 233.443014 
L 300.735647 233.54825 
L 300.767924 233.443014 
L 300.961583 233.337779 
L 301.139105 232.8116 
L 301.155243 232.916836 
L 301.203658 232.706364 
L 301.219796 232.706364 
L 301.397317 232.601128 
L 301.526424 232.390657 
L 301.816913 232.495892 
L 301.929881 232.601128 
L 302.139679 232.706364 
L 302.284924 233.022071 
L 302.397892 232.916836 
L 302.51086 233.022071 
L 302.672243 232.495892 
L 302.752934 232.706364 
L 302.785211 232.601128 
L 302.849764 232.495892 
L 303.027285 231.969713 
L 303.091838 231.864478 
L 303.26936 231.338299 
L 303.333913 231.233063 
L 303.479157 230.917356 
L 303.575987 230.81212 
L 303.721232 230.496412 
L 303.850338 230.391177 
L 304.011721 229.970233 
L 304.108551 229.864998 
L 304.286072 229.338819 
L 304.528147 229.233583 
L 304.608838 228.917876 
L 304.657253 229.023111 
L 304.721806 229.023111 
L 304.818636 228.602168 
L 304.850912 228.707404 
L 304.899327 228.707404 
L 305.06071 227.760282 
L 305.109125 227.865518 
L 305.125263 227.760282 
L 305.270508 227.234103 
L 305.367338 227.128867 
L 305.560997 226.497453 
L 305.609412 226.392217 
L 306.190391 222.07755 
L 306.351774 218.183825 
L 306.416327 72.95844 
L 306.497019 152.095751 
L 306.658402 231.338299 
L 306.739093 232.180185 
L 306.787508 231.969713 
L 306.932753 231.54877 
L 306.948891 231.654006 
L 306.997306 231.443535 
L 307.029582 231.54877 
L 307.207104 231.654006 
L 307.820359 235.021551 
L 307.868774 235.126787 
L 308.046295 235.652966 
L 308.110848 235.758202 
L 308.304508 236.915795 
L 308.465891 237.336739 
L 308.788657 237.231503 
L 308.885486 237.126267 
L 308.998454 237.231503 
L 309.095284 237.336739 
L 309.22439 237.54721 
L 309.337359 237.441974 
L 309.466465 237.54721 
L 309.579433 237.652446 
L 309.708539 237.441974 
L 309.756954 237.336739 
L 309.789231 237.231503 
L 309.853784 237.336739 
L 310.111997 237.441974 
L 310.224965 237.54721 
L 310.499316 237.441974 
L 310.628422 237.231503 
L 310.967326 237.126267 
L 311.096433 236.915795 
L 311.160986 236.81056 
L 311.322369 236.389616 
L 311.354645 236.284381 
L 311.532167 235.758202 
L 311.564443 235.652966 
L 311.709688 235.337259 
L 311.919486 235.232023 
L 312.032454 235.126787 
L 312.306805 235.021551 
L 312.468188 234.600608 
L 312.532741 234.495372 
L 312.694124 234.074429 
L 312.903922 233.969193 
L 313.033028 233.758722 
L 313.081443 233.653486 
L 313.210549 233.443014 
L 313.355794 233.337779 
L 313.371932 233.232543 
L 313.452624 233.337779 
L 313.67856 233.232543 
L 313.743113 233.337779 
L 313.823805 232.916836 
L 313.936773 232.8116 
L 314.049741 232.706364 
L 314.43706 232.601128 
L 314.646858 231.864478 
L 314.743687 231.759242 
L 314.856655 231.443535 
L 314.872794 231.54877 
L 314.985762 231.443535 
L 315.163283 230.917356 
L 315.243975 230.81212 
L 315.405358 230.391177 
L 315.599017 230.285941 
L 315.728123 229.970233 
L 315.744262 230.075469 
L 315.824953 229.970233 
L 315.937921 229.759762 
L 316.583453 233.337779 
L 316.793251 233.232543 
L 316.809389 233.127307 
L 316.873942 233.232543 
L 316.890081 233.337779 
L 316.938496 233.127307 
L 316.954634 233.127307 
L 317.164432 233.022071 
L 317.2774 232.8116 
L 317.406506 233.022071 
L 317.713134 232.916836 
L 317.826102 232.8116 
L 317.874517 232.706364 
L 318.197283 231.127827 
L 318.213421 231.233063 
L 318.261836 231.022591 
L 318.294112 231.127827 
L 318.713708 229.023111 
L 318.745985 228.917876 
L 318.988059 227.970754 
L 319.020336 227.970754 
L 319.197857 226.918396 
L 319.310825 226.918396 
L 319.472208 226.181745 
L 319.633591 224.497973 
L 319.859527 220.183305 
L 319.891804 149.359621 
L 319.92408 74.326505 
L 319.988633 124.103032 
L 320.166155 228.81264 
L 320.246846 229.759762 
L 320.295261 229.444055 
L 320.359814 229.54929 
L 320.553474 230.180705 
L 320.666442 230.285941 
L 320.811686 230.601648 
L 320.87624 230.706884 
L 321.279697 232.706364 
L 321.328112 232.8116 
L 321.489495 233.232543 
L 321.53791 233.337779 
L 321.667016 233.54825 
L 321.796122 233.653486 
L 321.925229 233.863958 
L 321.989782 233.969193 
L 322.135027 234.284901 
L 322.29641 234.390137 
L 322.441654 234.705844 
L 322.473931 234.600608 
L 322.538484 234.705844 
L 322.66759 234.916315 
L 322.76442 235.021551 
L 322.974218 235.758202 
L 323.006495 235.863438 
L 323.119463 235.968673 
L 323.652026 235.863438 
L 323.764994 235.652966 
L 323.797271 235.758202 
L 323.861824 235.652966 
L 323.910239 235.54773 
L 324.023207 235.232023 
L 324.039345 235.337259 
L 324.152314 235.232023 
L 324.168452 235.126787 
L 324.200728 235.337259 
L 324.216867 235.337259 
L 324.265282 235.442494 
L 324.313696 235.337259 
L 324.426665 235.126787 
L 324.539633 235.232023 
L 324.555771 235.126787 
L 324.636462 235.232023 
L 324.765569 235.337259 
L 324.830122 235.442494 
L 324.862399 235.337259 
L 325.023781 235.442494 
L 325.056058 235.54773 
L 325.120611 235.442494 
L 325.685452 235.337259 
L 325.814558 235.126787 
L 325.895249 235.021551 
L 326.024356 234.81108 
L 326.185739 234.705844 
L 326.347122 234.284901 
L 326.395537 234.179665 
L 326.540781 233.653486 
L 326.589196 233.54825 
L 326.750579 233.127307 
L 326.782856 233.022071 
L 326.911962 232.8116 
L 326.992653 232.706364 
L 327.137898 232.390657 
L 327.21859 232.285421 
L 327.299281 232.180185 
L 327.315419 232.285421 
L 327.58977 232.180185 
L 327.638185 232.074949 
L 327.6866 232.180185 
L 327.767292 232.074949 
L 327.944813 231.54877 
L 328.186887 231.443535 
L 328.412823 230.601648 
L 328.493515 230.601648 
L 328.622621 229.970233 
L 328.63876 230.075469 
L 328.961525 230.180705 
L 328.977664 230.285941 
L 329.00994 230.075469 
L 329.042217 230.075469 
L 329.219738 229.970233 
L 329.332706 229.54929 
L 329.364983 229.654526 
L 329.413398 229.54929 
L 329.590919 229.023111 
L 329.703887 229.128347 
L 329.86527 229.023111 
L 329.9621 228.496932 
L 330.010515 228.707404 
L 330.091206 229.023111 
L 330.123483 228.81264 
L 330.204174 228.707404 
L 330.397834 228.075989 
L 330.43011 228.181225 
L 330.478525 227.970754 
L 330.688323 227.970754 
L 330.833568 227.444575 
L 330.930398 227.444575 
L 331.124057 251.54357 
L 331.495238 268.591767 
L 332.076216 283.956192 
L 332.786301 295.7426 
L 333.528663 304.056227 
L 335.142493 313.948391 
L 335.174769 313.948391 
L 335.336152 314.790278 
L 335.35229 314.790278 
L 335.529812 315.7374 
L 335.933269 317.73688 
L 335.965546 317.842115 
L 336.191482 318.684002 
L 336.239897 318.789237 
L 336.433556 319.420652 
L 336.465833 319.525888 
L 336.594939 319.736359 
L 336.675631 319.841595 
L 336.853152 320.367774 
L 336.917705 320.47301 
L 337.079088 320.999189 
L 337.111365 320.893953 
L 337.127503 321.104425 
L 337.159779 321.104425 
L 337.321162 321.525368 
L 337.385716 321.630604 
L 337.547099 322.051547 
L 337.660067 322.156783 
L 337.82145 322.577726 
L 337.950556 322.682962 
L 338.079662 322.998669 
L 338.095801 322.893433 
L 338.144215 323.103905 
L 338.160354 322.998669 
L 338.305598 323.314376 
L 338.434705 323.419612 
L 338.563811 323.630084 
L 338.741332 323.735319 
L 338.838162 323.840555 
L 338.934992 323.735319 
L 338.983407 323.840555 
L 339.031822 323.735319 
L 339.306173 323.630084 
L 339.386864 323.524848 
L 339.403002 323.630084 
L 340.758619 323.524848 
L 340.887726 323.314376 
L 341.049109 323.20914 
L 341.194353 322.893433 
L 341.258906 322.788197 
L 341.388013 322.577726 
L 341.565534 322.47249 
L 341.69464 322.262018 
L 341.79147 322.367254 
L 341.904438 322.262018 
L 342.630662 322.156783 
L 342.6468 322.051547 
L 342.679076 322.262018 
L 342.711353 322.262018 
L 342.888874 322.156783 
L 343.001842 322.051547 
L 343.760342 321.946311 
L 343.792619 321.841075 
L 343.857172 321.946311 
L 343.97014 321.841075 
L 344.050831 321.735839 
L 344.06697 321.841075 
L 344.228353 321.735839 
L 344.341321 321.630604 
L 344.680225 321.525368 
L 344.696363 321.420132 
L 344.777055 321.525368 
L 344.922299 321.420132 
L 345.035268 321.314896 
L 345.600108 321.209661 
L 345.616246 321.104425 
L 345.696938 321.209661 
L 345.793767 321.104425 
L 345.906735 320.999189 
L 346.068118 320.893953 
L 346.181086 320.683482 
L 346.213363 320.788717 
L 346.261778 320.683482 
L 346.374746 320.578246 
L 346.568406 320.47301 
L 346.584544 320.367774 
L 346.665235 320.47301 
L 346.971863 320.367774 
L 347.100969 320.157303 
L 347.940161 320.262538 
L 347.972437 320.367774 
L 348.03699 320.262538 
L 349.666958 320.367774 
L 349.683097 320.47301 
L 349.763788 320.367774 
L 351.16782 320.47301 
L 351.264649 320.578246 
L 351.361479 320.47301 
L 351.393756 320.578246 
L 351.442171 320.47301 
L 351.539 320.367774 
L 351.555139 320.47301 
L 351.63583 320.367774 
L 352.362054 320.47301 
L 352.475022 320.578246 
L 353.072139 320.47301 
L 353.088277 320.367774 
L 353.168968 320.47301 
L 353.362628 320.367774 
L 353.394904 320.262538 
L 353.443319 320.47301 
L 353.524011 320.367774 
L 353.572426 320.262538 
L 353.604702 320.367774 
L 353.669255 320.47301 
L 353.701532 320.367774 
L 354.702106 320.262538 
L 354.815074 320.157303 
L 354.831213 320.262538 
L 354.879628 320.052067 
L 354.895766 320.157303 
L 355.008734 320.052067 
L 355.13784 319.946831 
L 355.3315 273.748321 
L 355.79951 226.918396 
L 355.89634 209.554491 
L 355.944755 69.380423 
L 356.009308 139.467457 
L 356.154553 224.81368 
L 356.170691 224.603208 
L 356.364351 216.710524 
L 356.800085 202.503693 
L 356.864638 72.537497 
L 356.945329 137.994156 
L 357.122851 216.710524 
L 357.284234 218.604769 
L 357.477893 219.236183 
L 357.590861 219.236183 
L 357.703829 219.657126 
L 357.719968 219.551891 
L 357.865212 219.446655 
L 358.17184 218.07859 
L 358.236393 217.973354 
L 358.73668 214.07963 
L 359.043308 208.81784 
L 359.172414 201.451335 
L 359.236967 68.328065 
L 359.30152 121.15643 
L 359.49518 217.026232 
L 359.672701 220.07807 
L 359.898637 221.025192 
L 359.930914 220.919956 
L 359.995467 221.025192 
L 360.237542 220.919956 
L 360.511893 219.762362 
L 360.640999 219.657126 
L 360.834658 218.81524 
L 360.850797 218.920476 
L 360.947627 218.81524 
L 361.092871 218.289061 
L 361.10901 218.394297 
L 361.173563 218.289061 
L 361.318807 217.973354 
L 361.351084 217.868118 
L 361.625435 216.710524 
L 361.706126 216.605289 
L 361.867509 216.184345 
L 361.883648 216.184345 
L 362.028892 215.552931 
L 362.125722 215.447695 
L 362.416211 214.184865 
L 362.496903 214.07963 
L 363.223126 209.975434 
L 363.255403 209.870198 
L 363.545892 206.08171 
L 363.56203 204.08223 
L 363.626584 66.96 
L 363.707275 133.88996 
L 363.884796 215.658167 
L 364.046179 218.394297 
L 364.143009 218.499533 
L 364.272115 218.710004 
L 364.32053 218.81524 
L 364.352807 219.025712 
L 364.433498 218.920476 
L 364.449637 218.81524 
L 364.51419 218.920476 
L 364.594881 219.130947 
L 364.627158 219.025712 
L 364.836956 219.130947 
L 364.853094 219.236183 
L 364.885371 219.025712 
L 364.917647 219.025712 
L 365.159722 218.07859 
L 365.17586 218.07859 
L 365.337243 217.236703 
L 365.595456 217.131468 
L 366.240987 213.553451 
L 366.321679 213.658687 
L 366.370094 213.869158 
L 366.40237 213.658687 
L 366.757413 211.974914 
L 366.821966 211.974914 
L 366.967211 211.343499 
L 367.015626 211.553971 
L 367.06404 211.343499 
L 367.193147 211.238263 
L 367.91937 205.976474 
L 367.983923 203.661287 
L 368.0162 153.358581 
L 368.064615 68.433301 
L 368.129168 118.736007 
L 368.338966 214.605809 
L 368.516487 217.026232 
L 368.694008 217.552411 
L 368.806976 217.447175 
L 368.919944 217.552411 
L 369.178157 217.657646 
L 369.194295 217.762882 
L 369.24271 217.657646 
L 369.323402 217.447175 
L 369.355678 217.552411 
L 369.387955 217.868118 
L 369.468646 217.762882 
L 369.646168 217.236703 
L 369.662306 217.341939 
L 369.710721 217.131468 
L 369.888242 216.500053 
L 369.920519 216.605289 
L 369.968934 216.394817 
L 370.485359 213.658687 
L 370.533774 213.553451 
L 370.695157 212.606329 
L 370.808125 212.711564 
L 371.050199 211.764442 
L 371.082476 211.659207 
L 371.211582 211.133028 
L 371.243859 211.238263 
L 371.292274 211.133028 
L 371.389104 210.81732 
L 371.42138 210.922556 
L 371.534348 211.027792 
L 371.679593 211.553971 
L 371.744146 211.343499 
L 371.776423 211.553971 
L 371.840976 211.448735 
L 371.970082 211.027792 
L 371.98622 211.133028 
L 372.08305 211.027792 
L 372.502646 208.923076 
L 372.534923 208.81784 
L 372.776997 207.028832 
L 372.857688 205.871238 
L 372.922242 202.08275 
L 372.986795 67.801886 
L 373.067486 125.050154 
L 373.261146 212.185386 
L 373.454805 214.500573 
L 373.680741 215.342459 
L 373.858263 215.237223 
L 373.955092 215.026752 
L 373.971231 215.131988 
L 374.051922 215.342459 
L 374.084199 215.237223 
L 374.293997 214.395337 
L 374.310135 214.500573 
L 374.35855 214.184865 
L 374.519933 213.658687 
L 374.536071 213.763922 
L 374.600624 213.553451 
L 374.842699 213.448215 
L 375.052497 212.711564 
L 375.100911 212.8168 
L 375.197741 213.027272 
L 375.21388 212.922036 
L 375.262294 212.8168 
L 375.488231 211.974914 
L 375.520507 211.869678 
L 375.843273 210.291141 
L 375.891688 210.501613 
L 375.923965 210.291141 
L 376.149901 209.449255 
L 376.182177 209.554491 
L 376.24673 209.449255 
L 376.295145 209.344019 
L 376.666326 207.555011 
L 376.795432 207.449775 
L 377.10206 204.924116 
L 377.182752 202.398457 
L 377.215028 164.197867 
L 377.263443 68.643773 
L 377.327996 111.685209 
L 377.537794 209.659727 
L 377.683039 212.395857 
L 377.699177 212.290621 
L 377.908975 213.027272 
L 377.941251 213.132508 
L 378.102634 213.553451 
L 378.231741 213.658687 
L 378.280156 213.763922 
L 378.32857 213.658687 
L 378.473815 213.342979 
L 378.586783 213.237743 
L 378.828858 212.290621 
L 378.861134 212.185386 
L 378.990241 211.869678 
L 379.119347 212.08015 
L 379.167762 211.974914 
L 379.458251 210.712085 
L 379.522804 210.606849 
L 379.651911 210.396377 
L 379.74874 210.291141 
L 379.974677 209.449255 
L 380.023091 209.344019 
L 380.216751 207.975954 
L 380.232889 208.08119 
L 380.265166 207.870718 
L 380.281304 207.870718 
L 380.410411 207.660247 
L 380.491102 207.765483 
L 380.571794 207.975954 
L 380.60407 207.870718 
L 380.684762 207.765483 
L 380.846145 207.344539 
L 380.862283 207.449775 
L 380.894559 207.134068 
L 381.088219 206.397417 
L 381.104357 206.502653 
L 381.16891 206.292182 
L 381.523953 200.398977 
L 381.55623 193.663887 
L 381.620783 68.222829 
L 381.685336 110.632851 
L 381.911272 211.027792 
L 382.104932 213.448215 
L 382.185623 213.553451 
L 382.347006 213.974394 
L 382.379283 214.07963 
L 382.540666 214.500573 
L 382.702048 214.395337 
L 382.927985 213.553451 
L 383.121644 213.658687 
L 383.234612 214.07963 
L 383.266889 213.974394 
L 383.379857 214.07963 
L 383.395995 214.184865 
L 383.44441 213.974394 
L 383.460548 213.974394 
L 383.654208 213.342979 
L 383.702623 213.237743 
L 383.815591 212.711564 
L 383.864006 212.8168 
L 383.896282 212.711564 
L 384.089942 212.08015 
L 384.122218 212.185386 
L 384.170633 211.974914 
L 384.219048 211.869678 
L 384.396569 211.343499 
L 384.461123 211.238263 
L 384.557952 211.133028 
L 384.606367 211.343499 
L 384.67092 211.238263 
L 384.735474 211.133028 
L 384.896857 210.606849 
L 384.945272 210.712085 
L 384.993686 210.606849 
L 385.042101 210.501613 
L 385.090516 210.606849 
L 385.171208 210.501613 
L 385.300314 210.08067 
L 385.316452 210.185906 
L 385.348729 210.291141 
L 385.364867 210.396377 
L 385.42942 210.185906 
L 386.123367 205.029352 
L 386.317027 199.136148 
L 386.38158 70.432781 
L 386.47841 132.837602 
L 386.672069 209.238784 
L 386.833452 211.238263 
L 386.84959 211.133028 
L 386.881867 211.448735 
L 387.107803 212.395857 
L 387.14008 212.290621 
L 387.188495 212.501093 
L 387.285324 212.606329 
L 387.398292 212.8168 
L 387.575814 212.290621 
L 387.70492 212.185386 
L 387.850165 211.869678 
L 387.89858 211.764442 
L 387.963133 211.659207 
L 387.979271 211.764442 
L 388.140654 212.606329 
L 388.302037 212.185386 
L 388.527973 212.08015 
L 388.640941 211.974914 
L 388.753909 211.869678 
L 388.947569 211.238263 
L 388.979845 211.133028 
L 389.157367 210.606849 
L 389.189643 210.501613 
L 389.641515 208.186426 
L 389.657654 208.186426 
L 389.899728 205.450295 
L 390.093388 203.556051 
L 390.319324 197.768083 
L 390.3516 146.518255 
L 390.400015 69.906602 
L 390.464568 112.316624 
L 390.674366 206.923596 
L 390.835749 209.554491 
L 390.868026 209.659727 
L 391.126239 210.712085 
L 391.158515 210.712085 
L 391.174653 210.501613 
L 391.271483 210.606849 
L 391.352175 210.396377 
L 391.368313 210.501613 
L 391.432866 210.712085 
L 391.481281 210.606849 
L 391.513558 210.396377 
L 391.578111 210.501613 
L 391.691079 210.606849 
L 391.739494 210.501613 
L 391.949292 209.764962 
L 392.078398 209.659727 
L 392.385026 208.291661 
L 392.449579 208.186426 
L 392.610962 207.344539 
L 392.659377 207.239304 
L 392.869174 205.871238 
L 392.885313 205.871238 
L 393.175802 203.450815 
L 393.595398 200.188506 
L 393.724504 196.505253 
L 393.756781 156.831362 
L 393.805196 70.643253 
L 393.869749 104.950119 
L 394.111823 206.08171 
L 394.305483 209.344019 
L 394.499142 210.606849 
L 394.547557 210.712085 
L 394.70894 211.133028 
L 394.741217 211.238263 
L 394.870323 211.448735 
L 394.983291 211.553971 
L 395.015568 211.659207 
L 395.080121 211.553971 
L 395.37061 210.291141 
L 395.419025 210.185906 
L 395.548131 209.975434 
L 395.612685 209.975434 
L 395.757929 209.449255 
L 395.806344 209.344019 
L 395.967727 208.712605 
L 395.983865 208.81784 
L 396.096833 208.712605 
L 396.290493 207.555011 
L 396.32277 207.449775 
L 396.69395 205.660767 
L 396.742365 205.555531 
L 397.048993 203.871758 
L 397.081269 203.976994 
L 397.161961 203.871758 
L 397.517003 198.399498 
L 397.565418 190.927757 
L 397.629972 70.95896 
L 397.710663 116.736527 
L 397.936599 205.345059 
L 398.130259 208.607369 
L 398.162535 208.712605 
L 398.485301 210.185906 
L 398.582131 210.291141 
L 398.711237 210.501613 
L 398.904897 210.396377 
L 399.034003 210.185906 
L 399.211524 210.08067 
L 399.437461 209.238784 
L 399.582705 209.133548 
L 399.744088 208.712605 
L 399.857056 208.81784 
L 399.889333 208.712605 
L 399.937748 208.81784 
L 399.970024 208.923076 
L 400.018439 208.81784 
L 400.405758 206.923596 
L 400.454173 206.81836 
L 401.196535 201.3461 
L 401.406333 195.873839 
L 401.487024 70.95896 
L 401.583854 131.680009 
L 401.777513 203.450815 
L 401.955035 206.81836 
L 402.229386 209.028312 
L 402.358492 209.344019 
L 402.503737 209.028312 
L 402.56829 209.133548 
L 402.584428 209.238784 
L 402.66512 209.133548 
L 402.842641 209.028312 
L 403.052439 208.291661 
L 403.100854 208.186426 
L 403.278375 207.660247 
L 403.342928 207.555011 
L 403.455896 207.344539 
L 403.568864 207.449775 
L 403.923907 207.344539 
L 404.036875 207.239304 
L 404.165981 207.344539 
L 404.214396 207.449775 
L 404.262811 207.344539 
L 404.359641 207.449775 
L 404.424194 207.555011 
L 404.45647 207.449775 
L 404.521024 207.344539 
L 404.730821 206.292182 
L 404.763098 206.397417 
L 405.102002 206.292182 
L 405.327938 205.450295 
L 405.392492 205.345059 
L 405.50546 204.713645 
L 405.537736 204.81888 
L 405.602289 204.713645 
L 405.908917 202.08275 
L 406.247821 196.294782 
L 406.296236 191.3487 
L 406.376928 72.327025 
L 406.441481 113.368982 
L 406.667417 204.397937 
L 406.861076 208.186426 
L 407.248395 210.08067 
L 407.329087 210.185906 
L 407.345225 210.291141 
L 407.39364 210.08067 
L 407.409778 210.08067 
L 407.442055 210.08067 
L 407.571161 209.659727 
L 407.813236 209.764962 
L 407.893927 209.870198 
L 407.910066 209.764962 
L 408.119863 209.870198 
L 408.200555 210.08067 
L 408.232831 209.975434 
L 408.3458 209.870198 
L 408.507182 209.449255 
L 408.604012 209.449255 
L 408.797672 208.291661 
L 409.088161 207.028832 
L 409.152714 206.923596 
L 409.701416 203.871758 
L 409.717555 203.976994 
L 409.749831 203.766523 
L 409.782108 203.766523 
L 409.927352 202.924636 
L 409.959629 203.135108 
L 410.072597 203.240344 
L 410.395363 203.135108 
L 410.927927 199.241384 
L 411.08931 193.663887 
L 411.121586 167.881119 
L 411.186139 72.327025 
L 411.250693 111.579974 
L 411.476629 204.187466 
L 411.65415 207.870718 
L 411.896224 209.659727 
L 412.025331 209.975434 
L 412.154437 209.764962 
L 412.331958 209.659727 
L 412.461065 209.449255 
L 412.622448 209.554491 
L 412.703139 209.975434 
L 412.767692 209.870198 
L 412.961352 209.238784 
L 413.058182 209.133548 
L 413.187288 208.923076 
L 413.300256 208.81784 
L 413.477777 207.975954 
L 413.493916 208.08119 
L 413.623022 208.291661 
L 413.784405 207.870718 
L 413.83282 207.765483 
L 414.284692 205.450295 
L 414.365384 205.345059 
L 414.413799 205.450295 
L 414.49449 205.134588 
L 414.526767 205.029352 
L 414.704288 204.08223 
L 414.752703 204.187466 
L 414.784979 204.08223 
L 415.123884 201.3461 
L 415.398235 194.190066 
L 415.446649 104.529176 
L 415.478926 72.011318 
L 415.543479 106.633892 
L 415.785554 204.397937 
L 415.979213 207.765483 
L 416.189011 209.133548 
L 416.398809 209.870198 
L 416.624745 209.764962 
L 416.705436 209.659727 
L 416.721575 209.764962 
L 416.76999 209.764962 
L 416.931373 209.028312 
L 416.963649 209.133548 
L 416.995926 209.028312 
L 417.14117 208.502133 
L 417.189585 208.396897 
L 417.350968 207.975954 
L 417.399383 207.870718 
L 417.673734 206.713125 
L 417.706011 206.607889 
L 418.077192 204.81888 
L 418.238574 204.713645 
L 418.512926 203.450815 
L 418.529064 203.556051 
L 418.56134 203.345579 
L 418.593617 203.345579 
L 418.642032 203.240344 
L 419.110042 199.557091 
L 419.31984 195.452895 
L 419.352117 191.980115 
L 419.432808 72.221789 
L 419.5135 118.736007 
L 419.771713 230.180705 
L 420.013787 256.27918 
L 420.433383 276.800159 
L 420.83684 288.270859 
L 421.224159 295.532129 
L 421.627616 301.320097 
L 421.756723 302.793398 
L 422.208595 307.318537 
L 422.660467 310.896553 
L 422.870265 312.369854 
L 422.902542 312.47509 
L 423.612627 316.47405 
L 423.644903 316.579286 
L 424.048361 318.578766 
L 424.096776 318.684002 
L 424.354988 319.736359 
L 424.403403 319.841595 
L 424.564786 320.578246 
L 424.645478 320.683482 
L 424.839137 321.314896 
L 424.871414 321.420132 
L 425.081212 322.156783 
L 425.113488 322.262018 
L 425.274871 322.682962 
L 425.339424 322.788197 
L 425.516946 323.314376 
L 425.581499 323.419612 
L 425.726743 323.735319 
L 425.839712 323.840555 
L 426.001094 324.261498 
L 426.097924 324.366734 
L 426.243169 324.682441 
L 426.32386 324.787677 
L 426.469105 325.103385 
L 426.565935 325.20862 
L 426.678903 325.419092 
L 426.695041 325.313856 
L 426.759594 325.524328 
L 426.856424 325.629564 
L 426.98553 325.840035 
L 427.033945 325.945271 
L 427.146913 326.050507 
L 427.243743 326.155742 
L 427.388988 326.47145 
L 427.421264 326.366214 
L 427.485818 326.47145 
L 428.131349 326.576686 
L 428.260456 326.787157 
L 429.148062 326.892393 
L 429.1642 326.997629 
L 429.244892 326.892393 
L 429.341722 326.787157 
L 429.45469 326.892393 
L 429.729041 326.997629 
L 429.793594 327.102865 
L 429.82587 326.997629 
L 430.697338 326.892393 
L 430.810306 326.787157 
L 431.310594 326.681921 
L 431.375147 326.576686 
L 431.407423 326.681921 
L 431.972264 326.576686 
L 432.10137 326.366214 
L 432.633934 326.260978 
L 432.746902 326.155742 
L 433.392434 326.050507 
L 433.505402 325.945271 
L 433.795891 325.840035 
L 433.860444 325.629564 
L 433.908859 325.734799 
L 433.989551 325.840035 
L 434.005689 325.734799 
L 434.74805 325.629564 
L 434.861019 325.524328 
L 435.232199 325.419092 
L 435.345167 325.313856 
L 435.635657 325.20862 
L 435.732486 325.103385 
L 435.780901 325.20862 
L 435.780901 325.20862 
" style="fill:none;stroke:#1f77b4;stroke-linecap:square;stroke-width:1.5;"/>
   </g>
   <g id="line2d_15">
    <path clip-path="url(#pfaa34d0241)" d="M 80.754545 315.716352 
L 82.206992 312.138672 
L 82.481343 311.599865 
L 82.868662 310.867087 
L 83.449641 309.918787 
L 83.723992 309.487741 
L 85.305545 307.548035 
L 85.418513 307.440273 
L 85.870385 307.009228 
L 85.999491 306.901466 
L 86.354534 306.599734 
L 86.515917 306.491973 
L 86.838683 306.233345 
L 87.016204 306.125584 
L 87.290555 305.931613 
L 87.484215 305.823852 
L 87.742427 305.651433 
L 87.952225 305.543672 
L 88.178161 305.414358 
L 88.404097 305.306597 
L 88.613895 305.198835 
L 88.872108 305.091074 
L 88.920523 304.875551 
L 89.921097 294.185616 
L 91.002363 285.112102 
L 91.728586 280.155075 
L 93.697458 270.241022 
L 94.714171 266.620238 
L 96.796011 261.361479 
L 97.102638 260.779568 
L 97.457681 260.132999 
L 98.216181 258.947623 
L 98.458255 258.602786 
L 99.83001 256.94326 
L 99.942978 256.835499 
L 100.410989 256.382901 
L 100.540095 256.275139 
L 100.911276 255.951855 
L 101.056521 255.844093 
L 101.363148 255.607018 
L 101.524531 255.499257 
L 101.815021 255.283734 
L 101.992542 255.175972 
L 102.250755 255.003554 
L 102.460552 254.895793 
L 102.702627 254.744927 
L 102.928563 254.637165 
L 103.154499 254.507851 
L 103.396574 254.40009 
L 103.606371 254.292328 
L 103.864584 254.184567 
L 104.058244 254.098358 
L 104.348733 253.990596 
L 104.542393 253.904387 
L 104.865158 253.796626 
L 105.04268 253.731969 
L 105.397722 253.624208 
L 105.575243 253.559551 
L 105.994839 253.451789 
L 106.17236 253.387132 
L 106.672648 253.279371 
L 106.83403 253.236266 
L 107.382733 253.128505 
L 107.544115 253.0854 
L 108.221924 252.977639 
L 108.383307 252.934534 
L 109.270913 252.826773 
L 109.416158 252.805221 
L 110.43287 252.697459 
L 110.578115 252.675907 
L 112.127391 252.568145 
L 112.272636 252.546593 
L 115.774646 252.438832 
L 115.919891 252.417279 
L 132.526196 252.525041 
L 132.671441 252.546593 
L 153.457565 252.654355 
L 154.377448 262.374437 
L 155.523267 272.072967 
L 157.10482 281.900811 
L 157.992426 286.03885 
L 159.251213 290.629488 
L 161.203947 295.54341 
L 161.542851 296.168426 
L 161.881755 296.77189 
L 164.431606 300.004734 
L 164.560712 300.112495 
L 164.931893 300.435779 
L 165.077138 300.543541 
L 165.383765 300.780616 
L 165.545148 300.888378 
L 165.819499 301.082348 
L 166.013159 301.19011 
L 166.271372 301.362528 
L 166.48117 301.470289 
L 166.707106 301.599603 
L 166.933042 301.707365 
L 167.14284 301.815126 
L 167.401052 301.922887 
L 167.61085 302.030649 
L 167.917478 302.13841 
L 168.111137 302.224619 
L 168.46618 302.332381 
L 168.643701 302.397038 
L 169.014882 302.504799 
L 169.192403 302.569456 
L 169.515169 302.655665 
L 169.531307 315.716352 
L 169.628137 315.436173 
L 170.935339 312.246434 
L 171.193552 311.729179 
L 171.580871 310.996401 
L 172.048881 310.198966 
L 172.323232 309.767921 
L 174.211413 307.418721 
L 174.340519 307.31096 
L 174.792392 306.879914 
L 174.937636 306.772152 
L 175.27654 306.491973 
L 175.421785 306.384211 
L 175.712274 306.168688 
L 175.889796 306.060927 
L 176.164147 305.866956 
L 176.357806 305.759195 
L 176.599881 305.608329 
L 176.809678 305.500567 
L 177.035615 305.371254 
L 177.277689 305.263492 
L 177.487487 305.155731 
L 177.681146 305.069522 
L 178.649444 291.319161 
L 179.472497 281.793049 
L 181.134742 267.288359 
L 182.554912 258.538129 
L 183.571624 253.710417 
L 185.137039 247.891299 
L 186.040783 245.17571 
L 186.411964 244.1412 
L 188.090347 239.960056 
L 188.284006 239.52901 
L 189.107059 237.632409 
L 189.300719 237.201363 
L 190.220602 235.046134 
L 190.381985 234.658193 
L 192.076506 229.83048 
L 193.028665 225.563127 
L 193.399846 222.998405 
L 193.754888 219.291411 
L 194.061516 213.25677 
L 194.239037 204.398779 
L 194.287452 198.062406 
L 194.40042 240.606625 
L 194.448835 240.692834 
L 195.110505 244.378276 
L 196.046526 248.774942 
L 197.063239 252.395727 
L 198.322026 255.456152 
L 198.838451 256.318244 
L 199.080526 256.66308 
L 199.839026 257.50362 
L 199.98427 257.611381 
L 200.290898 257.848456 
L 200.500696 257.956218 
L 200.710494 258.063979 
L 201.03326 258.171741 
L 201.194642 258.214845 
L 202.969855 258.107084 
L 203.147376 258.042427 
L 203.421727 257.934665 
L 203.631525 257.826904 
L 203.889738 257.719142 
L 204.131812 257.568276 
L 204.34161 257.460515 
L 204.583684 257.309649 
L 204.761206 257.201888 
L 205.035557 257.007917 
L 205.19694 256.900155 
L 205.487429 256.684633 
L 205.632674 256.576871 
L 205.95544 256.318244 
L 206.100684 256.210482 
L 206.439588 255.930302 
L 206.584833 255.822541 
L 206.972152 255.477704 
L 207.101259 255.369943 
L 207.504716 255.003554 
L 207.633822 254.895793 
L 208.053418 254.507851 
L 208.182524 254.40009 
L 208.650535 253.947492 
L 208.779641 253.83973 
L 209.26379 253.36558 
L 209.392896 253.257819 
L 209.893184 252.762116 
L 210.02229 252.654355 
L 210.522577 252.158652 
L 210.635545 252.05089 
L 211.119694 251.57674 
L 211.2488 251.468979 
L 211.765226 250.951724 
L 211.878194 250.843962 
L 212.362343 250.369812 
L 212.491449 250.26205 
L 212.991736 249.766348 
L 213.120843 249.658586 
L 213.62113 249.162884 
L 213.750236 249.055122 
L 214.250523 248.55942 
L 214.37963 248.451658 
L 214.863778 247.977508 
L 214.992885 247.869746 
L 215.460895 247.417148 
L 215.590002 247.309387 
L 216.041874 246.878341 
L 216.17098 246.77058 
L 216.622853 246.339534 
L 216.751959 246.231772 
L 217.203831 245.800727 
L 217.332938 245.692965 
L 217.768672 245.283472 
L 217.897778 245.17571 
L 218.333512 244.766217 
L 218.462618 244.658455 
L 218.898352 244.248962 
L 219.027459 244.1412 
L 219.447054 243.753259 
L 219.576161 243.645498 
L 220.011895 243.236004 
L 220.141001 243.128243 
L 220.576735 242.718749 
L 220.705841 242.610988 
L 221.141575 242.201494 
L 221.270682 242.093733 
L 221.706416 241.684239 
L 221.835522 241.576478 
L 222.287394 241.145432 
L 222.416501 241.037671 
L 222.900649 240.56352 
L 223.029756 240.455759 
L 223.513905 239.981609 
L 223.643011 239.873847 
L 224.175575 239.33504 
L 224.288543 239.227278 
L 224.837245 238.666919 
L 224.950213 238.559157 
L 225.579606 237.891036 
L 225.692575 237.783275 
L 226.515628 236.856527 
L 226.612457 236.748765 
L 229.468936 232.761592 
L 229.856255 232.028814 
L 230.114467 231.511559 
L 231.712159 226.942474 
L 232.196308 224.571722 
L 232.74501 220.175055 
L 233.019361 216.123224 
L 233.229158 210.023927 
L 233.358265 199.829694 
L 233.374403 196.790821 
L 233.487371 240.606625 
L 233.519648 240.649729 
L 234.63319 247.352491 
L 235.133477 249.809452 
L 235.698318 252.223309 
L 236.489094 254.938897 
L 237.66719 257.783799 
L 239.393987 259.917476 
L 239.587647 260.025237 
L 239.813583 260.154551 
L 240.104072 260.262313 
L 240.281593 260.326969 
L 242.008391 260.219208 
L 242.202051 260.132999 
L 242.234327 260.132999 
L 243.315593 274.400614 
L 244.122508 282.784455 
L 245.074667 290.65104 
L 246.365731 298.539178 
L 247.140369 302.073753 
L 248.108667 305.500567 
L 249.512698 308.948934 
L 249.916156 309.660159 
L 250.206645 310.13431 
L 251.449294 311.621418 
L 251.5784 311.729179 
L 251.917304 312.009359 
L 252.078687 312.11712 
L 252.3369 312.289538 
L 252.546698 312.3973 
L 252.756496 312.505061 
L 253.030847 312.612823 
L 253.224506 312.699032 
L 253.644102 312.806793 
L 253.805485 312.849898 
L 256.871761 312.742137 
L 257.033144 312.699032 
L 257.485016 312.591271 
L 257.662537 312.526614 
L 258.082133 312.418852 
L 258.259654 312.354195 
L 258.291931 312.354195 
L 258.308069 315.716352 
L 258.404899 315.436173 
L 259.712101 312.246434 
L 259.970314 311.729179 
L 260.357633 310.996401 
L 260.825643 310.198966 
L 261.099994 309.767921 
L 262.988175 307.418721 
L 263.117281 307.31096 
L 263.569153 306.879914 
L 263.714398 306.772152 
L 264.053302 306.491973 
L 264.198547 306.384211 
L 264.489036 306.168688 
L 264.666557 306.060927 
L 264.940908 305.866956 
L 265.134568 305.759195 
L 265.376642 305.608329 
L 265.58644 305.500567 
L 265.812376 305.371254 
L 266.054451 305.263492 
L 266.264249 305.155731 
L 266.457908 305.069522 
L 267.393929 285.241416 
L 268.200844 271.25398 
L 269.169142 257.482067 
L 270.734556 240.003161 
L 271.718992 229.787376 
L 272.364524 220.713862 
L 272.638875 213.774025 
L 272.816397 203.127194 
L 272.848673 198.342586 
L 272.961641 240.606625 
L 273.042333 240.520416 
L 273.54262 239.485906 
L 273.752418 239.033308 
L 275.818119 233.21419 
L 276.915524 228.364925 
L 277.399672 225.196738 
L 277.851545 220.713862 
L 278.125896 216.08012 
L 278.335693 209.010969 
L 278.448662 198.256377 
L 278.56163 240.606625 
L 278.610044 240.671282 
L 279.336268 243.128243 
L 280.369119 245.585204 
L 281.644044 247.115416 
L 281.886118 247.223178 
L 282.079778 247.309387 
L 283.128767 247.201625 
L 283.354703 247.072312 
L 283.532225 246.96455 
L 283.85499 246.705923 
L 283.984097 246.598161 
L 284.758735 245.73607 
L 284.855565 245.628308 
L 285.823862 244.162753 
L 286.162767 243.559289 
L 286.485533 242.955824 
L 286.969681 241.964419 
L 287.195618 241.490269 
L 288.244607 238.990203 
L 288.389851 238.623814 
L 289.53567 235.261657 
L 291.214053 228.084745 
L 291.908 222.739777 
L 292.279181 217.610332 
L 292.521255 210.907571 
L 292.6665 199.50641 
L 292.682638 196.252014 
L 292.795606 240.606625 
L 292.844021 240.692834 
L 293.473414 242.761854 
L 294.490127 245.17571 
L 295.765052 246.705923 
L 295.990988 246.813684 
L 296.16851 246.878341 
L 297.330467 246.77058 
L 297.572541 246.619714 
L 297.750063 246.511952 
L 298.088967 246.231772 
L 298.218073 246.124011 
L 300.299913 243.171347 
L 300.703371 242.395465 
L 300.961583 241.87821 
L 301.574839 240.541968 
L 301.75236 240.132475 
L 303.769647 234.44267 
L 305.141402 228.494238 
L 305.609412 225.412261 
L 306.077423 220.778519 
L 306.384051 215.347342 
L 306.57771 208.148878 
L 306.67454 198.342586 
L 306.787508 240.606625 
L 306.852061 240.714386 
L 307.497593 242.848063 
L 308.498167 245.218815 
L 309.773093 246.749027 
L 309.98289 246.856789 
L 310.17655 246.942998 
L 311.322369 246.835236 
L 311.564443 246.68437 
L 311.741965 246.576609 
L 312.080869 246.296429 
L 312.209975 246.188668 
L 314.34023 243.171347 
L 314.759826 242.35236 
L 315.034177 241.813553 
L 315.711985 240.304893 
L 315.889506 239.895399 
L 317.729272 234.679745 
L 319.197857 228.343372 
L 319.649729 225.326052 
L 320.101601 220.843176 
L 320.424367 215.088715 
L 320.618027 207.480757 
L 320.714857 196.014939 
L 320.827825 240.606625 
L 320.87624 240.692834 
L 321.521771 242.826511 
L 322.522346 245.197262 
L 323.813409 246.749027 
L 324.039345 246.856789 
L 324.216867 246.921446 
L 325.362686 246.813684 
L 325.588622 246.68437 
L 325.766143 246.576609 
L 326.121186 246.274877 
L 326.250292 246.167116 
L 328.364409 243.171347 
L 328.784004 242.35236 
L 329.058355 241.813553 
L 329.736164 240.304893 
L 329.913685 239.895399 
L 331.011089 237.007393 
L 332.382844 262.30978 
L 333.335003 275.823065 
L 334.464684 288.064766 
L 335.368429 295.500305 
L 336.611077 303.065159 
L 337.353439 306.427316 
L 338.273322 309.660159 
L 339.564385 312.806793 
L 339.967843 313.518019 
L 340.242194 313.949065 
L 341.32346 315.22065 
L 341.452566 315.328411 
L 341.775332 315.587039 
L 341.952853 315.6948 
L 342.194928 315.845666 
L 342.437002 315.953428 
L 342.630662 316.039637 
L 342.953427 316.147398 
L 343.130949 316.212055 
L 345.777629 316.104294 
L 345.95515 316.039637 
L 346.358608 315.931875 
L 346.536129 315.867218 
L 346.858895 315.759457 
L 347.052554 315.673248 
L 347.133246 315.587039 
L 347.504427 314.552529 
L 348.456586 312.311091 
L 348.714799 311.793836 
L 349.118256 311.017953 
L 349.602405 310.198966 
L 349.876756 309.767921 
L 351.764937 307.418721 
L 351.894043 307.31096 
L 352.345915 306.879914 
L 352.49116 306.772152 
L 352.830064 306.491973 
L 352.975309 306.384211 
L 353.265798 306.168688 
L 353.443319 306.060927 
L 353.71767 305.866956 
L 353.91133 305.759195 
L 354.153404 305.608329 
L 354.363202 305.500567 
L 354.589138 305.371254 
L 354.831213 305.263492 
L 355.041011 305.155731 
L 355.23467 305.069522 
L 356.251383 262.740826 
L 357.671553 208.278191 
L 357.752244 197.092553 
L 357.865212 240.606625 
L 357.88135 240.606625 
L 357.994319 237.977246 
L 358.73668 216.3603 
L 358.93034 203.127194 
L 358.962616 197.652913 
L 359.075584 240.606625 
L 359.107861 240.606625 
L 360.043882 222.524254 
L 360.35051 212.179156 
L 360.495754 199.312439 
L 360.511893 195.691654 
L 360.624861 240.606625 
L 360.657137 240.520416 
L 361.641573 228.839075 
L 362.093446 221.338878 
L 362.367797 213.774025 
L 362.529179 203.859972 
L 362.577594 195.950282 
L 362.690562 240.606625 
L 362.722839 240.56352 
L 363.481339 235.908226 
L 364.159147 230.649467 
L 364.772403 223.925153 
L 365.111307 217.912064 
L 365.337243 210.368763 
L 365.466349 198.515004 
L 365.579317 240.606625 
L 365.660009 240.498863 
L 366.531477 237.869484 
L 367.273838 234.44267 
L 367.887093 230.563258 
L 368.548764 224.399304 
L 368.919944 218.644842 
L 369.178157 210.864466 
L 369.307263 200.648681 
L 369.323402 197.803779 
L 369.43637 240.606625 
L 369.581614 240.498863 
L 370.130317 239.593667 
L 370.969508 237.050497 
L 371.695731 233.68834 
L 372.260571 230.067556 
L 372.889965 224.162228 
L 373.245007 218.687947 
L 373.50322 211.058437 
L 373.632327 201.273697 
L 373.664603 194.915772 
L 373.777571 240.606625 
L 373.938954 240.498863 
L 374.552209 239.507458 
L 375.391401 236.964288 
L 376.101486 233.666788 
L 376.666326 230.067556 
L 377.29572 224.183781 
L 377.650762 218.687947 
L 377.892837 211.812767 
L 378.038081 201.403011 
L 378.070358 195.174399 
L 378.183326 240.606625 
L 378.344709 240.498863 
L 378.974102 239.485906 
L 379.797155 236.98584 
L 380.523379 233.623683 
L 381.523953 226.209696 
L 381.878995 221.877686 
L 382.185623 215.821492 
L 382.395421 206.85574 
L 382.476112 196.87703 
L 382.58908 240.606625 
L 382.750463 240.498863 
L 383.395995 239.464354 
L 384.20291 237.007393 
L 384.929133 233.645236 
L 385.493974 230.046003 
L 386.123367 224.140676 
L 386.47841 218.62329 
L 386.720484 211.661901 
L 386.865729 200.950413 
L 386.881867 198.234825 
L 386.994835 240.606625 
L 387.156218 240.498863 
L 387.817888 239.442801 
L 388.624803 236.98584 
L 389.334888 233.68834 
L 389.899728 230.089108 
L 390.54526 224.032915 
L 390.964856 217.006868 
L 391.190792 208.795446 
L 391.30376 196.230462 
L 391.416728 240.606625 
L 391.578111 240.498863 
L 392.223643 239.464354 
L 393.030557 237.007393 
L 393.756781 233.645236 
L 394.757355 226.2528 
L 395.112397 221.942343 
L 395.419025 215.929254 
L 395.612685 208.235087 
L 395.709514 197.803779 
L 395.822482 240.606625 
L 395.983865 240.498863 
L 396.645536 239.442801 
L 397.436312 237.028945 
L 398.162535 233.666788 
L 398.743514 229.959794 
L 399.356769 224.205333 
L 399.792503 216.942211 
L 400.018439 208.666132 
L 400.131407 195.626998 
L 400.244375 240.606625 
L 400.405758 240.498863 
L 401.035152 239.485906 
L 401.874343 236.942736 
L 402.56829 233.709892 
L 403.149268 230.002899 
L 403.778662 224.076019 
L 404.133704 218.537081 
L 404.375779 211.489482 
L 404.521024 200.303844 
L 404.537162 197.308076 
L 404.65013 240.606625 
L 404.811513 240.498863 
L 405.473183 239.442801 
L 406.263959 237.028945 
L 406.990183 233.666788 
L 407.555023 230.046003 
L 407.95848 226.619189 
L 408.3458 222.006999 
L 408.652427 216.058568 
L 408.846087 208.515266 
L 408.959055 195.001981 
L 409.072023 240.606625 
L 409.233406 240.498863 
L 409.862799 239.485906 
L 410.685852 236.98584 
L 411.395937 233.709892 
L 412.41265 226.209696 
L 412.88066 220.045741 
L 413.17115 212.717963 
L 413.332533 202.24355 
L 413.364809 196.812373 
L 413.477777 240.606625 
L 413.63916 240.498863 
L 414.284692 239.464354 
L 415.091607 237.007393 
L 415.81783 233.645236 
L 416.382671 230.024451 
L 416.786128 226.597637 
L 417.173447 221.985447 
L 417.52849 214.593012 
L 417.706011 206.079858 
L 417.770564 198.19172 
L 417.883532 240.606625 
L 418.044915 240.498863 
L 418.706585 239.442801 
L 419.5135 236.98584 
L 419.787851 235.843569 
L 420.965946 280.025762 
L 421.869691 305.52212 
L 422.837989 326.190765 
L 423.87084 342.24722 
L 424.952105 353.928561 
L 425.984956 361.320996 
L 426.452967 363.7133 
L 426.920977 365.609902 
L 427.405126 367.09701 
L 427.969966 368.303938 
L 428.79302 369.230686 
L 429.131924 369.338448 
L 429.277168 369.36 
L 429.793594 369.252239 
L 430.035668 369.101373 
L 430.197051 368.993611 
L 432.085232 366.299575 
L 432.569381 365.30817 
L 432.795317 364.834019 
L 433.650646 362.851209 
L 433.812029 362.463267 
L 435.845455 357.204509 
L 435.845455 357.204509 
" style="fill:none;stroke:#ff0000;stroke-linecap:square;stroke-width:1.5;"/>
   </g>
   <g id="patch_3">
    <path d="M 63 384.48 
L 63 51.84 
" style="fill:none;stroke:#000000;stroke-linecap:square;stroke-linejoin:miter;stroke-width:0.8;"/>
   </g>
   <g id="patch_4">
    <path d="M 453.6 384.48 
L 453.6 51.84 
" style="fill:none;stroke:#000000;stroke-linecap:square;stroke-linejoin:miter;stroke-width:0.8;"/>
   </g>
   <g id="patch_5">
    <path d="M 63 384.48 
L 453.6 384.48 
" style="fill:none;stroke:#000000;stroke-linecap:square;stroke-linejoin:miter;stroke-width:0.8;"/>
   </g>
   <g id="patch_6">
    <path d="M 63 51.84 
L 453.6 51.84 
" style="fill:none;stroke:#000000;stroke-linecap:square;stroke-linejoin:miter;stroke-width:0.8;"/>
   </g>
   <g id="legend_1">
    <g id="patch_7">
     <path d="M 70 89.19625 
L 133.139062 89.19625 
Q 135.139062 89.19625 135.139062 87.19625 
L 135.139062 58.84 
Q 135.139062 56.84 133.139062 56.84 
L 70 56.84 
Q 68 56.84 68 58.84 
L 68 87.19625 
Q 68 89.19625 70 89.19625 
z
" style="fill:#ffffff;opacity:0.8;stroke:#cccccc;stroke-linejoin:miter;"/>
    </g>
    <g id="line2d_16">
     <path d="M 72 64.938437 
L 92 64.938437 
" style="fill:none;stroke:#1f77b4;stroke-linecap:square;stroke-width:1.5;"/>
    </g>
    <g id="line2d_17"/>
    <g id="text_16">
     <!-- target -->
     <defs>
      <path d="M 41.109375 46.296875 
Q 39.59375 47.171875 37.8125 47.578125 
Q 36.03125 48 33.890625 48 
Q 26.265625 48 22.1875 43.046875 
Q 18.109375 38.09375 18.109375 28.8125 
L 18.109375 0 
L 9.078125 0 
L 9.078125 54.6875 
L 18.109375 54.6875 
L 18.109375 46.1875 
Q 20.953125 51.171875 25.484375 53.578125 
Q 30.03125 56 36.53125 56 
Q 37.453125 56 38.578125 55.875 
Q 39.703125 55.765625 41.0625 55.515625 
z
" id="DejaVuSans-114"/>
     </defs>
     <g transform="translate(100 68.438437)scale(0.1 -0.1)">
      <use xlink:href="#DejaVuSans-116"/>
      <use x="39.208984" xlink:href="#DejaVuSans-97"/>
      <use x="100.488281" xlink:href="#DejaVuSans-114"/>
      <use x="141.585938" xlink:href="#DejaVuSans-103"/>
      <use x="205.0625" xlink:href="#DejaVuSans-101"/>
      <use x="266.585938" xlink:href="#DejaVuSans-116"/>
     </g>
    </g>
    <g id="line2d_18">
     <path d="M 72 79.616562 
L 92 79.616562 
" style="fill:none;stroke:#ff0000;stroke-linecap:square;stroke-width:1.5;"/>
    </g>
    <g id="line2d_19"/>
    <g id="text_17">
     <!-- model -->
     <defs>
      <path d="M 45.40625 46.390625 
L 45.40625 75.984375 
L 54.390625 75.984375 
L 54.390625 0 
L 45.40625 0 
L 45.40625 8.203125 
Q 42.578125 3.328125 38.25 0.953125 
Q 33.9375 -1.421875 27.875 -1.421875 
Q 17.96875 -1.421875 11.734375 6.484375 
Q 5.515625 14.40625 5.515625 27.296875 
Q 5.515625 40.1875 11.734375 48.09375 
Q 17.96875 56 27.875 56 
Q 33.9375 56 38.25 53.625 
Q 42.578125 51.265625 45.40625 46.390625 
z
M 14.796875 27.296875 
Q 14.796875 17.390625 18.875 11.75 
Q 22.953125 6.109375 30.078125 6.109375 
Q 37.203125 6.109375 41.296875 11.75 
Q 45.40625 17.390625 45.40625 27.296875 
Q 45.40625 37.203125 41.296875 42.84375 
Q 37.203125 48.484375 30.078125 48.484375 
Q 22.953125 48.484375 18.875 42.84375 
Q 14.796875 37.203125 14.796875 27.296875 
z
" id="DejaVuSans-100"/>
     </defs>
     <g transform="translate(100 83.116562)scale(0.1 -0.1)">
      <use xlink:href="#DejaVuSans-109"/>
      <use x="97.412109" xlink:href="#DejaVuSans-111"/>
      <use x="158.59375" xlink:href="#DejaVuSans-100"/>
      <use x="222.070312" xlink:href="#DejaVuSans-101"/>
      <use x="283.59375" xlink:href="#DejaVuSans-108"/>
     </g>
    </g>
   </g>
  </g>
 </g>
 <defs>
  <clipPath id="pfaa34d0241">
   <rect height="332.64" width="390.6" x="63" y="51.84"/>
  </clipPath>
 </defs>
</svg>
