<?xml version="1.0" encoding="utf-8" standalone="no"?>
<!DOCTYPE svg PUBLIC "-//W3C//DTD SVG 1.1//EN"
  "http://www.w3.org/Graphics/SVG/1.1/DTD/svg11.dtd">
<!-- Created with matplotlib (http://matplotlib.org/) -->
<svg height="432pt" version="1.1" viewBox="0 0 504 432" width="504pt" xmlns="http://www.w3.org/2000/svg" xmlns:xlink="http://www.w3.org/1999/xlink">
 <defs>
  <style type="text/css">
*{stroke-linecap:butt;stroke-linejoin:round;}
  </style>
 </defs>
 <g id="figure_1">
  <g id="patch_1">
   <path d="M 0 432 
L 504 432 
L 504 0 
L 0 0 
z
" style="fill:#ffffff;"/>
  </g>
  <g id="axes_1">
   <g id="patch_2">
    <path d="M 63 384.48 
L 453.6 384.48 
L 453.6 51.84 
L 63 51.84 
z
" style="fill:#ffffff;"/>
   </g>
   <g id="matplotlib.axis_1">
    <g id="xtick_1">
     <g id="line2d_1">
      <defs>
       <path d="M 0 0 
L 0 3.5 
" id="m50b358ea26" style="stroke:#000000;stroke-width:0.8;"/>
      </defs>
      <g>
       <use style="stroke:#000000;stroke-width:0.8;" x="80.754545" xlink:href="#m50b358ea26" y="384.48"/>
      </g>
     </g>
     <g id="text_1">
      <!-- 0 -->
      <defs>
       <path d="M 31.78125 66.40625 
Q 24.171875 66.40625 20.328125 58.90625 
Q 16.5 51.421875 16.5 36.375 
Q 16.5 21.390625 20.328125 13.890625 
Q 24.171875 6.390625 31.78125 6.390625 
Q 39.453125 6.390625 43.28125 13.890625 
Q 47.125 21.390625 47.125 36.375 
Q 47.125 51.421875 43.28125 58.90625 
Q 39.453125 66.40625 31.78125 66.40625 
z
M 31.78125 74.21875 
Q 44.046875 74.21875 50.515625 64.515625 
Q 56.984375 54.828125 56.984375 36.375 
Q 56.984375 17.96875 50.515625 8.265625 
Q 44.046875 -1.421875 31.78125 -1.421875 
Q 19.53125 -1.421875 13.0625 8.265625 
Q 6.59375 17.96875 6.59375 36.375 
Q 6.59375 54.828125 13.0625 64.515625 
Q 19.53125 74.21875 31.78125 74.21875 
z
" id="DejaVuSans-30"/>
      </defs>
      <g transform="translate(77.573295 399.078438)scale(0.1 -0.1)">
       <use xlink:href="#DejaVuSans-30"/>
      </g>
     </g>
    </g>
    <g id="xtick_2">
     <g id="line2d_2">
      <g>
       <use style="stroke:#000000;stroke-width:0.8;" x="151.772727" xlink:href="#m50b358ea26" y="384.48"/>
      </g>
     </g>
     <g id="text_2">
      <!-- 200 -->
      <defs>
       <path d="M 19.1875 8.296875 
L 53.609375 8.296875 
L 53.609375 0 
L 7.328125 0 
L 7.328125 8.296875 
Q 12.9375 14.109375 22.625 23.890625 
Q 32.328125 33.6875 34.8125 36.53125 
Q 39.546875 41.84375 41.421875 45.53125 
Q 43.3125 49.21875 43.3125 52.78125 
Q 43.3125 58.59375 39.234375 62.25 
Q 35.15625 65.921875 28.609375 65.921875 
Q 23.96875 65.921875 18.8125 64.3125 
Q 13.671875 62.703125 7.8125 59.421875 
L 7.8125 69.390625 
Q 13.765625 71.78125 18.9375 73 
Q 24.125 74.21875 28.421875 74.21875 
Q 39.75 74.21875 46.484375 68.546875 
Q 53.21875 62.890625 53.21875 53.421875 
Q 53.21875 48.921875 51.53125 44.890625 
Q 49.859375 40.875 45.40625 35.40625 
Q 44.1875 33.984375 37.640625 27.21875 
Q 31.109375 20.453125 19.1875 8.296875 
z
" id="DejaVuSans-32"/>
      </defs>
      <g transform="translate(142.228977 399.078438)scale(0.1 -0.1)">
       <use xlink:href="#DejaVuSans-32"/>
       <use x="63.623047" xlink:href="#DejaVuSans-30"/>
       <use x="127.246094" xlink:href="#DejaVuSans-30"/>
      </g>
     </g>
    </g>
    <g id="xtick_3">
     <g id="line2d_3">
      <g>
       <use style="stroke:#000000;stroke-width:0.8;" x="222.790909" xlink:href="#m50b358ea26" y="384.48"/>
      </g>
     </g>
     <g id="text_3">
      <!-- 400 -->
      <defs>
       <path d="M 37.796875 64.3125 
L 12.890625 25.390625 
L 37.796875 25.390625 
z
M 35.203125 72.90625 
L 47.609375 72.90625 
L 47.609375 25.390625 
L 58.015625 25.390625 
L 58.015625 17.1875 
L 47.609375 17.1875 
L 47.609375 0 
L 37.796875 0 
L 37.796875 17.1875 
L 4.890625 17.1875 
L 4.890625 26.703125 
z
" id="DejaVuSans-34"/>
      </defs>
      <g transform="translate(213.247159 399.078438)scale(0.1 -0.1)">
       <use xlink:href="#DejaVuSans-34"/>
       <use x="63.623047" xlink:href="#DejaVuSans-30"/>
       <use x="127.246094" xlink:href="#DejaVuSans-30"/>
      </g>
     </g>
    </g>
    <g id="xtick_4">
     <g id="line2d_4">
      <g>
       <use style="stroke:#000000;stroke-width:0.8;" x="293.809091" xlink:href="#m50b358ea26" y="384.48"/>
      </g>
     </g>
     <g id="text_4">
      <!-- 600 -->
      <defs>
       <path d="M 33.015625 40.375 
Q 26.375 40.375 22.484375 35.828125 
Q 18.609375 31.296875 18.609375 23.390625 
Q 18.609375 15.53125 22.484375 10.953125 
Q 26.375 6.390625 33.015625 6.390625 
Q 39.65625 6.390625 43.53125 10.953125 
Q 47.40625 15.53125 47.40625 23.390625 
Q 47.40625 31.296875 43.53125 35.828125 
Q 39.65625 40.375 33.015625 40.375 
z
M 52.59375 71.296875 
L 52.59375 62.3125 
Q 48.875 64.0625 45.09375 64.984375 
Q 41.3125 65.921875 37.59375 65.921875 
Q 27.828125 65.921875 22.671875 59.328125 
Q 17.53125 52.734375 16.796875 39.40625 
Q 19.671875 43.65625 24.015625 45.921875 
Q 28.375 48.1875 33.59375 48.1875 
Q 44.578125 48.1875 50.953125 41.515625 
Q 57.328125 34.859375 57.328125 23.390625 
Q 57.328125 12.15625 50.6875 5.359375 
Q 44.046875 -1.421875 33.015625 -1.421875 
Q 20.359375 -1.421875 13.671875 8.265625 
Q 6.984375 17.96875 6.984375 36.375 
Q 6.984375 53.65625 15.1875 63.9375 
Q 23.390625 74.21875 37.203125 74.21875 
Q 40.921875 74.21875 44.703125 73.484375 
Q 48.484375 72.75 52.59375 71.296875 
z
" id="DejaVuSans-36"/>
      </defs>
      <g transform="translate(284.265341 399.078438)scale(0.1 -0.1)">
       <use xlink:href="#DejaVuSans-36"/>
       <use x="63.623047" xlink:href="#DejaVuSans-30"/>
       <use x="127.246094" xlink:href="#DejaVuSans-30"/>
      </g>
     </g>
    </g>
    <g id="xtick_5">
     <g id="line2d_5">
      <g>
       <use style="stroke:#000000;stroke-width:0.8;" x="364.827273" xlink:href="#m50b358ea26" y="384.48"/>
      </g>
     </g>
     <g id="text_5">
      <!-- 800 -->
      <defs>
       <path d="M 31.78125 34.625 
Q 24.75 34.625 20.71875 30.859375 
Q 16.703125 27.09375 16.703125 20.515625 
Q 16.703125 13.921875 20.71875 10.15625 
Q 24.75 6.390625 31.78125 6.390625 
Q 38.8125 6.390625 42.859375 10.171875 
Q 46.921875 13.96875 46.921875 20.515625 
Q 46.921875 27.09375 42.890625 30.859375 
Q 38.875 34.625 31.78125 34.625 
z
M 21.921875 38.8125 
Q 15.578125 40.375 12.03125 44.71875 
Q 8.5 49.078125 8.5 55.328125 
Q 8.5 64.0625 14.71875 69.140625 
Q 20.953125 74.21875 31.78125 74.21875 
Q 42.671875 74.21875 48.875 69.140625 
Q 55.078125 64.0625 55.078125 55.328125 
Q 55.078125 49.078125 51.53125 44.71875 
Q 48 40.375 41.703125 38.8125 
Q 48.828125 37.15625 52.796875 32.3125 
Q 56.78125 27.484375 56.78125 20.515625 
Q 56.78125 9.90625 50.3125 4.234375 
Q 43.84375 -1.421875 31.78125 -1.421875 
Q 19.734375 -1.421875 13.25 4.234375 
Q 6.78125 9.90625 6.78125 20.515625 
Q 6.78125 27.484375 10.78125 32.3125 
Q 14.796875 37.15625 21.921875 38.8125 
z
M 18.3125 54.390625 
Q 18.3125 48.734375 21.84375 45.5625 
Q 25.390625 42.390625 31.78125 42.390625 
Q 38.140625 42.390625 41.71875 45.5625 
Q 45.3125 48.734375 45.3125 54.390625 
Q 45.3125 60.0625 41.71875 63.234375 
Q 38.140625 66.40625 31.78125 66.40625 
Q 25.390625 66.40625 21.84375 63.234375 
Q 18.3125 60.0625 18.3125 54.390625 
z
" id="DejaVuSans-38"/>
      </defs>
      <g transform="translate(355.283523 399.078438)scale(0.1 -0.1)">
       <use xlink:href="#DejaVuSans-38"/>
       <use x="63.623047" xlink:href="#DejaVuSans-30"/>
       <use x="127.246094" xlink:href="#DejaVuSans-30"/>
      </g>
     </g>
    </g>
    <g id="text_6">
     <!-- time [ms] -->
     <defs>
      <path d="M 18.3125 70.21875 
L 18.3125 54.6875 
L 36.8125 54.6875 
L 36.8125 47.703125 
L 18.3125 47.703125 
L 18.3125 18.015625 
Q 18.3125 11.328125 20.140625 9.421875 
Q 21.96875 7.515625 27.59375 7.515625 
L 36.8125 7.515625 
L 36.8125 0 
L 27.59375 0 
Q 17.1875 0 13.234375 3.875 
Q 9.28125 7.765625 9.28125 18.015625 
L 9.28125 47.703125 
L 2.6875 47.703125 
L 2.6875 54.6875 
L 9.28125 54.6875 
L 9.28125 70.21875 
z
" id="DejaVuSans-74"/>
      <path d="M 9.421875 54.6875 
L 18.40625 54.6875 
L 18.40625 0 
L 9.421875 0 
z
M 9.421875 75.984375 
L 18.40625 75.984375 
L 18.40625 64.59375 
L 9.421875 64.59375 
z
" id="DejaVuSans-69"/>
      <path d="M 52 44.1875 
Q 55.375 50.25 60.0625 53.125 
Q 64.75 56 71.09375 56 
Q 79.640625 56 84.28125 50.015625 
Q 88.921875 44.046875 88.921875 33.015625 
L 88.921875 0 
L 79.890625 0 
L 79.890625 32.71875 
Q 79.890625 40.578125 77.09375 44.375 
Q 74.3125 48.1875 68.609375 48.1875 
Q 61.625 48.1875 57.5625 43.546875 
Q 53.515625 38.921875 53.515625 30.90625 
L 53.515625 0 
L 44.484375 0 
L 44.484375 32.71875 
Q 44.484375 40.625 41.703125 44.40625 
Q 38.921875 48.1875 33.109375 48.1875 
Q 26.21875 48.1875 22.15625 43.53125 
Q 18.109375 38.875 18.109375 30.90625 
L 18.109375 0 
L 9.078125 0 
L 9.078125 54.6875 
L 18.109375 54.6875 
L 18.109375 46.1875 
Q 21.1875 51.21875 25.484375 53.609375 
Q 29.78125 56 35.6875 56 
Q 41.65625 56 45.828125 52.96875 
Q 50 49.953125 52 44.1875 
z
" id="DejaVuSans-6d"/>
      <path d="M 56.203125 29.59375 
L 56.203125 25.203125 
L 14.890625 25.203125 
Q 15.484375 15.921875 20.484375 11.0625 
Q 25.484375 6.203125 34.421875 6.203125 
Q 39.59375 6.203125 44.453125 7.46875 
Q 49.3125 8.734375 54.109375 11.28125 
L 54.109375 2.78125 
Q 49.265625 0.734375 44.1875 -0.34375 
Q 39.109375 -1.421875 33.890625 -1.421875 
Q 20.796875 -1.421875 13.15625 6.1875 
Q 5.515625 13.8125 5.515625 26.8125 
Q 5.515625 40.234375 12.765625 48.109375 
Q 20.015625 56 32.328125 56 
Q 43.359375 56 49.78125 48.890625 
Q 56.203125 41.796875 56.203125 29.59375 
z
M 47.21875 32.234375 
Q 47.125 39.59375 43.09375 43.984375 
Q 39.0625 48.390625 32.421875 48.390625 
Q 24.90625 48.390625 20.390625 44.140625 
Q 15.875 39.890625 15.1875 32.171875 
z
" id="DejaVuSans-65"/>
      <path id="DejaVuSans-20"/>
      <path d="M 8.59375 75.984375 
L 29.296875 75.984375 
L 29.296875 69 
L 17.578125 69 
L 17.578125 -6.203125 
L 29.296875 -6.203125 
L 29.296875 -13.1875 
L 8.59375 -13.1875 
z
" id="DejaVuSans-5b"/>
      <path d="M 44.28125 53.078125 
L 44.28125 44.578125 
Q 40.484375 46.53125 36.375 47.5 
Q 32.28125 48.484375 27.875 48.484375 
Q 21.1875 48.484375 17.84375 46.4375 
Q 14.5 44.390625 14.5 40.28125 
Q 14.5 37.15625 16.890625 35.375 
Q 19.28125 33.59375 26.515625 31.984375 
L 29.59375 31.296875 
Q 39.15625 29.25 43.1875 25.515625 
Q 47.21875 21.78125 47.21875 15.09375 
Q 47.21875 7.46875 41.1875 3.015625 
Q 35.15625 -1.421875 24.609375 -1.421875 
Q 20.21875 -1.421875 15.453125 -0.5625 
Q 10.6875 0.296875 5.421875 2 
L 5.421875 11.28125 
Q 10.40625 8.6875 15.234375 7.390625 
Q 20.0625 6.109375 24.8125 6.109375 
Q 31.15625 6.109375 34.5625 8.28125 
Q 37.984375 10.453125 37.984375 14.40625 
Q 37.984375 18.0625 35.515625 20.015625 
Q 33.0625 21.96875 24.703125 23.78125 
L 21.578125 24.515625 
Q 13.234375 26.265625 9.515625 29.90625 
Q 5.8125 33.546875 5.8125 39.890625 
Q 5.8125 47.609375 11.28125 51.796875 
Q 16.75 56 26.8125 56 
Q 31.78125 56 36.171875 55.265625 
Q 40.578125 54.546875 44.28125 53.078125 
z
" id="DejaVuSans-73"/>
      <path d="M 30.421875 75.984375 
L 30.421875 -13.1875 
L 9.71875 -13.1875 
L 9.71875 -6.203125 
L 21.390625 -6.203125 
L 21.390625 69 
L 9.71875 69 
L 9.71875 75.984375 
z
" id="DejaVuSans-5d"/>
     </defs>
     <g transform="translate(234.038281 412.756563)scale(0.1 -0.1)">
      <use xlink:href="#DejaVuSans-74"/>
      <use x="39.208984" xlink:href="#DejaVuSans-69"/>
      <use x="66.992188" xlink:href="#DejaVuSans-6d"/>
      <use x="164.404297" xlink:href="#DejaVuSans-65"/>
      <use x="225.927734" xlink:href="#DejaVuSans-20"/>
      <use x="257.714844" xlink:href="#DejaVuSans-5b"/>
      <use x="296.728516" xlink:href="#DejaVuSans-6d"/>
      <use x="394.140625" xlink:href="#DejaVuSans-73"/>
      <use x="446.240234" xlink:href="#DejaVuSans-5d"/>
     </g>
    </g>
   </g>
   <g id="matplotlib.axis_2">
    <g id="ytick_1">
     <g id="line2d_6">
      <defs>
       <path d="M 0 0 
L -3.5 0 
" id="m0de7e97936" style="stroke:#000000;stroke-width:0.8;"/>
      </defs>
      <g>
       <use style="stroke:#000000;stroke-width:0.8;" x="63" xlink:href="#m0de7e97936" y="382.222714"/>
      </g>
     </g>
     <g id="text_7">
      <!-- −80 -->
      <defs>
       <path d="M 10.59375 35.5 
L 73.1875 35.5 
L 73.1875 27.203125 
L 10.59375 27.203125 
z
" id="DejaVuSans-2212"/>
      </defs>
      <g transform="translate(34.895313 386.021933)scale(0.1 -0.1)">
       <use xlink:href="#DejaVuSans-2212"/>
       <use x="83.789062" xlink:href="#DejaVuSans-38"/>
       <use x="147.412109" xlink:href="#DejaVuSans-30"/>
      </g>
     </g>
    </g>
    <g id="ytick_2">
     <g id="line2d_7">
      <g>
       <use style="stroke:#000000;stroke-width:0.8;" x="63" xlink:href="#m0de7e97936" y="329.582938"/>
      </g>
     </g>
     <g id="text_8">
      <!-- −60 -->
      <g transform="translate(34.895313 333.382156)scale(0.1 -0.1)">
       <use xlink:href="#DejaVuSans-2212"/>
       <use x="83.789062" xlink:href="#DejaVuSans-36"/>
       <use x="147.412109" xlink:href="#DejaVuSans-30"/>
      </g>
     </g>
    </g>
    <g id="ytick_3">
     <g id="line2d_8">
      <g>
       <use style="stroke:#000000;stroke-width:0.8;" x="63" xlink:href="#m0de7e97936" y="276.943161"/>
      </g>
     </g>
     <g id="text_9">
      <!-- −40 -->
      <g transform="translate(34.895313 280.74238)scale(0.1 -0.1)">
       <use xlink:href="#DejaVuSans-2212"/>
       <use x="83.789062" xlink:href="#DejaVuSans-34"/>
       <use x="147.412109" xlink:href="#DejaVuSans-30"/>
      </g>
     </g>
    </g>
    <g id="ytick_4">
     <g id="line2d_9">
      <g>
       <use style="stroke:#000000;stroke-width:0.8;" x="63" xlink:href="#m0de7e97936" y="224.303385"/>
      </g>
     </g>
     <g id="text_10">
      <!-- −20 -->
      <g transform="translate(34.895313 228.102604)scale(0.1 -0.1)">
       <use xlink:href="#DejaVuSans-2212"/>
       <use x="83.789062" xlink:href="#DejaVuSans-32"/>
       <use x="147.412109" xlink:href="#DejaVuSans-30"/>
      </g>
     </g>
    </g>
    <g id="ytick_5">
     <g id="line2d_10">
      <g>
       <use style="stroke:#000000;stroke-width:0.8;" x="63" xlink:href="#m0de7e97936" y="171.663609"/>
      </g>
     </g>
     <g id="text_11">
      <!-- 0 -->
      <g transform="translate(49.6375 175.462828)scale(0.1 -0.1)">
       <use xlink:href="#DejaVuSans-30"/>
      </g>
     </g>
    </g>
    <g id="ytick_6">
     <g id="line2d_11">
      <g>
       <use style="stroke:#000000;stroke-width:0.8;" x="63" xlink:href="#m0de7e97936" y="119.023832"/>
      </g>
     </g>
     <g id="text_12">
      <!-- 20 -->
      <g transform="translate(43.275 122.823051)scale(0.1 -0.1)">
       <use xlink:href="#DejaVuSans-32"/>
       <use x="63.623047" xlink:href="#DejaVuSans-30"/>
      </g>
     </g>
    </g>
    <g id="ytick_7">
     <g id="line2d_12">
      <g>
       <use style="stroke:#000000;stroke-width:0.8;" x="63" xlink:href="#m0de7e97936" y="66.384056"/>
      </g>
     </g>
     <g id="text_13">
      <!-- 40 -->
      <g transform="translate(43.275 70.183275)scale(0.1 -0.1)">
       <use xlink:href="#DejaVuSans-34"/>
       <use x="63.623047" xlink:href="#DejaVuSans-30"/>
      </g>
     </g>
    </g>
    <g id="text_14">
     <!-- voltage [mV] -->
     <defs>
      <path d="M 2.984375 54.6875 
L 12.5 54.6875 
L 29.59375 8.796875 
L 46.6875 54.6875 
L 56.203125 54.6875 
L 35.6875 0 
L 23.484375 0 
z
" id="DejaVuSans-76"/>
      <path d="M 30.609375 48.390625 
Q 23.390625 48.390625 19.1875 42.75 
Q 14.984375 37.109375 14.984375 27.296875 
Q 14.984375 17.484375 19.15625 11.84375 
Q 23.34375 6.203125 30.609375 6.203125 
Q 37.796875 6.203125 41.984375 11.859375 
Q 46.1875 17.53125 46.1875 27.296875 
Q 46.1875 37.015625 41.984375 42.703125 
Q 37.796875 48.390625 30.609375 48.390625 
z
M 30.609375 56 
Q 42.328125 56 49.015625 48.375 
Q 55.71875 40.765625 55.71875 27.296875 
Q 55.71875 13.875 49.015625 6.21875 
Q 42.328125 -1.421875 30.609375 -1.421875 
Q 18.84375 -1.421875 12.171875 6.21875 
Q 5.515625 13.875 5.515625 27.296875 
Q 5.515625 40.765625 12.171875 48.375 
Q 18.84375 56 30.609375 56 
z
" id="DejaVuSans-6f"/>
      <path d="M 9.421875 75.984375 
L 18.40625 75.984375 
L 18.40625 0 
L 9.421875 0 
z
" id="DejaVuSans-6c"/>
      <path d="M 34.28125 27.484375 
Q 23.390625 27.484375 19.1875 25 
Q 14.984375 22.515625 14.984375 16.5 
Q 14.984375 11.71875 18.140625 8.90625 
Q 21.296875 6.109375 26.703125 6.109375 
Q 34.1875 6.109375 38.703125 11.40625 
Q 43.21875 16.703125 43.21875 25.484375 
L 43.21875 27.484375 
z
M 52.203125 31.203125 
L 52.203125 0 
L 43.21875 0 
L 43.21875 8.296875 
Q 40.140625 3.328125 35.546875 0.953125 
Q 30.953125 -1.421875 24.3125 -1.421875 
Q 15.921875 -1.421875 10.953125 3.296875 
Q 6 8.015625 6 15.921875 
Q 6 25.140625 12.171875 29.828125 
Q 18.359375 34.515625 30.609375 34.515625 
L 43.21875 34.515625 
L 43.21875 35.40625 
Q 43.21875 41.609375 39.140625 45 
Q 35.0625 48.390625 27.6875 48.390625 
Q 23 48.390625 18.546875 47.265625 
Q 14.109375 46.140625 10.015625 43.890625 
L 10.015625 52.203125 
Q 14.9375 54.109375 19.578125 55.046875 
Q 24.21875 56 28.609375 56 
Q 40.484375 56 46.34375 49.84375 
Q 52.203125 43.703125 52.203125 31.203125 
z
" id="DejaVuSans-61"/>
      <path d="M 45.40625 27.984375 
Q 45.40625 37.75 41.375 43.109375 
Q 37.359375 48.484375 30.078125 48.484375 
Q 22.859375 48.484375 18.828125 43.109375 
Q 14.796875 37.75 14.796875 27.984375 
Q 14.796875 18.265625 18.828125 12.890625 
Q 22.859375 7.515625 30.078125 7.515625 
Q 37.359375 7.515625 41.375 12.890625 
Q 45.40625 18.265625 45.40625 27.984375 
z
M 54.390625 6.78125 
Q 54.390625 -7.171875 48.1875 -13.984375 
Q 42 -20.796875 29.203125 -20.796875 
Q 24.46875 -20.796875 20.265625 -20.09375 
Q 16.0625 -19.390625 12.109375 -17.921875 
L 12.109375 -9.1875 
Q 16.0625 -11.328125 19.921875 -12.34375 
Q 23.78125 -13.375 27.78125 -13.375 
Q 36.625 -13.375 41.015625 -8.765625 
Q 45.40625 -4.15625 45.40625 5.171875 
L 45.40625 9.625 
Q 42.625 4.78125 38.28125 2.390625 
Q 33.9375 0 27.875 0 
Q 17.828125 0 11.671875 7.65625 
Q 5.515625 15.328125 5.515625 27.984375 
Q 5.515625 40.671875 11.671875 48.328125 
Q 17.828125 56 27.875 56 
Q 33.9375 56 38.28125 53.609375 
Q 42.625 51.21875 45.40625 46.390625 
L 45.40625 54.6875 
L 54.390625 54.6875 
z
" id="DejaVuSans-67"/>
      <path d="M 28.609375 0 
L 0.78125 72.90625 
L 11.078125 72.90625 
L 34.1875 11.53125 
L 57.328125 72.90625 
L 67.578125 72.90625 
L 39.796875 0 
z
" id="DejaVuSans-56"/>
     </defs>
     <g transform="translate(28.815625 250.624062)rotate(-90)scale(0.1 -0.1)">
      <use xlink:href="#DejaVuSans-76"/>
      <use x="59.179688" xlink:href="#DejaVuSans-6f"/>
      <use x="120.361328" xlink:href="#DejaVuSans-6c"/>
      <use x="148.144531" xlink:href="#DejaVuSans-74"/>
      <use x="187.353516" xlink:href="#DejaVuSans-61"/>
      <use x="248.632812" xlink:href="#DejaVuSans-67"/>
      <use x="312.109375" xlink:href="#DejaVuSans-65"/>
      <use x="373.632812" xlink:href="#DejaVuSans-20"/>
      <use x="405.419922" xlink:href="#DejaVuSans-5b"/>
      <use x="444.433594" xlink:href="#DejaVuSans-6d"/>
      <use x="541.845703" xlink:href="#DejaVuSans-56"/>
      <use x="610.253906" xlink:href="#DejaVuSans-5d"/>
     </g>
    </g>
   </g>
   <g id="line2d_13">
    <path clip-path="url(#pd297d9dedf)" d="M 80.754545 342.742882 
L 81.952977 342.606281 
L 83.772818 342.663396 
L 85.965505 342.682346 
L 151.772727 342.67366 
L 152.314241 298.030392 
L 152.420768 249.264114 
L 152.562805 67.237347 
L 152.678209 92.522863 
L 153.565936 369.301754 
L 153.610323 369.200949 
L 153.8145 367.818365 
L 154.293873 363.051834 
L 154.959668 353.905936 
L 157.42755 314.909863 
L 157.613973 303.752599 
L 157.738255 281.727854 
L 157.835905 219.002823 
L 157.969064 91.664046 
L 158.031205 104.851889 
L 158.883423 368.876162 
L 158.945564 368.692186 
L 159.203005 366.707666 
L 159.717886 361.019412 
L 160.534595 349.060181 
L 161.8218 330.881034 
L 162.514227 320.486521 
L 162.771668 312.94561 
L 162.940336 300.921895 
L 163.064618 272.88016 
L 163.162268 188.253376 
L 163.268795 92.586821 
L 163.322059 102.125675 
L 163.863573 297.751402 
L 164.147645 368.699029 
L 164.183155 368.844315 
L 164.245295 368.662444 
L 164.493859 366.753726 
L 165.008741 361.085212 
L 165.834327 349.002541 
L 167.112655 330.955783 
L 167.813959 320.450989 
L 168.0714 312.90034 
L 168.240068 300.837145 
L 168.36435 272.63328 
L 168.462 187.50576 
L 168.568527 92.663938 
L 168.621791 102.348341 
L 169.172182 301.713861 
L 169.4385 368.612963 
L 169.482886 368.842209 
L 169.545027 368.656391 
L 169.802468 366.663712 
L 170.31735 360.95756 
L 171.151814 348.712759 
L 172.430141 330.712324 
L 173.113691 320.432565 
L 173.371132 312.863755 
L 173.5398 300.741078 
L 173.664082 272.294279 
L 173.761732 186.351343 
L 173.868259 92.680783 
L 173.921523 102.584957 
L 174.480791 305.796075 
L 174.729355 368.503209 
L 174.782618 368.842209 
L 174.844759 368.65218 
L 175.1022 366.656342 
L 175.617082 360.946769 
L 176.451545 348.699862 
L 177.729873 330.701533 
L 178.413423 320.415721 
L 178.670864 312.827697 
L 178.839532 300.643694 
L 178.963814 271.946331 
L 179.061464 185.163132 
L 179.167991 92.698154 
L 179.221255 102.824205 
L 179.7894 309.981727 
L 180.029086 368.515579 
L 180.08235 368.842472 
L 180.144491 368.647705 
L 180.401932 366.648973 
L 180.916814 360.936241 
L 181.751277 348.687492 
L 183.029605 330.691005 
L 183.713155 320.398613 
L 183.970595 312.791375 
L 184.139264 300.545258 
L 184.263545 271.590222 
L 184.361195 183.954023 
L 184.467723 92.722105 
L 184.520986 103.067137 
L 185.098009 314.259499 
L 185.328818 368.527686 
L 185.382082 368.842472 
L 185.444223 368.643494 
L 185.701664 366.64134 
L 186.216545 360.925713 
L 187.051009 348.674858 
L 188.329336 330.680477 
L 189.012886 320.381768 
L 189.270327 312.754791 
L 189.438995 300.445242 
L 189.563277 271.22885 
L 189.660927 182.740097 
L 189.767455 92.751847 
L 189.820718 103.312438 
L 190.406618 318.60965 
L 190.619673 368.393455 
L 190.681814 368.842209 
L 190.743955 368.63902 
L 191.010273 366.552379 
L 191.525155 360.799904 
L 192.368495 348.388498 
L 193.637945 330.554141 
L 194.312618 320.364397 
L 194.570059 312.718206 
L 194.738727 300.3447 
L 194.863009 270.864057 
L 194.969536 168.125821 
L 195.058309 92.738423 
L 195.12045 103.560372 
L 195.715227 323.006124 
L 195.919405 368.408984 
L 195.981545 368.842209 
L 196.043686 368.634545 
L 196.310005 366.544746 
L 196.833764 360.673569 
L 197.703736 347.8292 
L 198.955432 330.312262 
L 199.61235 320.347289 
L 199.869791 312.681095 
L 200.038459 300.243105 
L 200.162741 270.491894 
L 200.269268 166.859018 
L 200.358041 92.708945 
L 200.420182 103.812516 
L 201.023836 327.41181 
L 201.219136 368.423723 
L 201.281277 368.841683 
L 201.343418 368.630071 
L 201.609736 366.537113 
L 202.133495 360.662514 
L 202.994591 347.952904 
L 204.255164 330.301471 
L 204.912082 320.329655 
L 205.169523 312.643458 
L 205.338191 300.139932 
L 205.462473 270.112098 
L 205.569 165.583715 
L 205.657773 92.686573 
L 205.719914 104.066503 
L 206.332445 331.778543 
L 206.518868 368.438462 
L 206.581009 368.84142 
L 206.634273 368.672183 
L 206.873959 366.852162 
L 207.388841 361.225497 
L 208.187795 349.582631 
L 209.510509 330.867875 
L 210.202936 320.497049 
L 210.460377 312.999566 
L 210.629045 301.105871 
L 210.753327 273.588955 
L 210.850977 190.820987 
L 210.957505 92.671308 
L 211.019645 104.321543 
L 211.641055 336.052103 
L 211.827477 368.584537 
L 211.880741 368.840893 
L 211.934005 368.667971 
L 212.182568 366.76478 
L 212.69745 361.101004 
L 213.514159 349.158618 
L 214.810241 330.857083 
L 215.502668 320.479941 
L 215.760109 312.963507 
L 215.928777 301.009277 
L 216.053059 273.248639 
L 216.150709 189.638697 
L 216.257236 92.664991 
L 216.319377 104.576056 
L 216.949664 340.168797 
L 217.127209 368.595065 
L 217.171595 368.84142 
L 217.233736 368.66376 
L 217.4823 366.757411 
L 217.997182 361.090476 
L 218.822768 349.008857 
L 220.101095 330.961573 
L 220.8024 320.462833 
L 221.059841 312.927712 
L 221.228509 300.912947 
L 221.352791 272.907006 
L 221.450441 188.456987 
L 221.556968 92.665517 
L 221.610232 102.162786 
L 222.151745 297.806937 
L 222.426941 368.605067 
L 222.471327 368.841683 
L 222.533468 368.659549 
L 222.782032 366.750041 
L 223.296914 361.079948 
L 224.1225 348.995961 
L 225.418582 330.720483 
L 226.111009 320.26017 
L 226.36845 312.493697 
L 226.537118 299.725393 
L 226.652523 272.562742 
L 226.750173 187.270565 
L 226.8567 92.671571 
L 226.909964 102.400981 
L 227.460355 301.789399 
L 227.726673 368.614805 
L 227.771059 368.842209 
L 227.8332 368.655338 
L 228.090641 366.66187 
L 228.605523 360.954928 
L 229.439986 348.7096 
L 230.718314 330.709692 
L 231.401864 320.428617 
L 231.659305 312.855333 
L 231.827973 300.718969 
L 231.952255 272.216109 
L 232.049905 186.083933 
L 232.156432 92.684468 
L 232.209695 102.638913 
L 232.768964 305.874772 
L 233.017527 368.506104 
L 233.070791 368.842209 
L 233.132932 368.651127 
L 233.390373 366.6545 
L 233.905255 360.9444 
L 234.739718 348.696967 
L 236.018045 330.699164 
L 236.701595 320.411773 
L 236.959036 312.819538 
L 237.127705 300.621585 
L 237.251986 271.866318 
L 237.349636 184.890511 
L 237.456164 92.702892 
L 237.509427 102.879213 
L 238.077573 310.062793 
L 238.317259 368.518211 
L 238.370523 368.842472 
L 238.432664 368.646916 
L 238.690105 366.64713 
L 239.204986 360.933872 
L 240.03945 348.684596 
L 241.317777 330.688636 
L 242.001327 320.394928 
L 242.258768 312.783216 
L 242.427436 300.522623 
L 242.551718 271.508368 
L 242.649368 183.678585 
L 242.755895 92.728422 
L 242.809159 103.122672 
L 243.386182 314.342406 
L 243.616991 368.530318 
L 243.670255 368.842472 
L 243.732395 368.642441 
L 243.989836 366.639761 
L 244.504718 360.923344 
L 245.348059 348.535099 
L 246.617509 330.677845 
L 247.301059 320.37782 
L 247.5585 312.746632 
L 247.727168 300.422344 
L 247.85145 271.146469 
L 247.9491 182.463475 
L 248.055627 92.759742 
L 248.108891 103.3685 
L 248.694791 318.6944 
L 248.907845 368.39714 
L 248.969986 368.842209 
L 249.032127 368.63823 
L 249.298445 366.5508 
L 249.822205 360.681991 
L 250.692177 347.839202 
L 251.943873 330.320684 
L 252.600791 320.360449 
L 252.858232 312.709784 
L 253.0269 300.321539 
L 253.151182 270.779833 
L 253.257709 167.837408 
L 253.346482 92.731054 
L 253.408623 103.617749 
L 254.0034 323.092453 
L 254.207577 368.412405 
L 254.269718 368.841946 
L 254.331859 368.633756 
L 254.598177 366.543167 
L 255.121936 360.670937 
L 255.983032 347.962905 
L 257.22585 330.540982 
L 257.900523 320.343341 
L 258.157964 312.672673 
L 258.326632 300.219681 
L 258.450914 270.405827 
L 258.557441 166.567999 
L 258.646214 92.703155 
L 258.708355 103.870683 
L 259.312009 327.498139 
L 259.507309 368.427145 
L 259.56945 368.841683 
L 259.631591 368.629018 
L 259.897909 366.535271 
L 260.421668 360.660146 
L 261.291641 347.813671 
L 262.525582 330.53019 
L 263.200255 320.325707 
L 263.457695 312.635035 
L 263.626364 300.116244 
L 263.750645 270.024716 
L 263.857173 165.292169 
L 263.945945 92.682362 
L 264.008086 104.12467 
L 264.620618 331.863556 
L 264.807041 368.441884 
L 264.869182 368.841156 
L 264.922445 368.671393 
L 265.171009 366.770571 
L 265.685891 361.109426 
L 266.511477 349.031493 
L 267.807559 330.750225 
L 268.499986 320.308335 
L 268.757427 312.597398 
L 268.926095 300.012806 
L 269.050377 269.643604 
L 269.156905 164.02584 
L 269.245677 92.669202 
L 269.298941 101.742984 
L 269.8227 290.226546 
L 270.133405 368.753774 
L 270.168914 368.840893 
L 270.222177 368.667182 
L 270.470741 366.763201 
L 270.985623 361.098635 
L 271.802332 349.155722 
L 273.098414 330.854715 
L 273.790841 320.475993 
L 274.048282 312.955348 
L 274.21695 300.987432 
L 274.341232 273.170732 
L 274.438882 189.368234 
L 274.545409 92.664728 
L 274.598673 101.979599 
L 275.131309 294.003713 
L 275.424259 368.691659 
L 275.459768 368.84142 
L 275.521909 368.662971 
L 275.770473 366.755832 
L 276.285355 361.088107 
L 277.110941 349.005962 
L 278.389268 330.959205 
L 279.090573 320.458885 
L 279.348014 312.91929 
L 279.516682 300.890838 
L 279.640964 272.828573 
L 279.738614 188.186419 
L 279.845141 92.666044 
L 279.898405 102.217268 
L 280.439918 297.883001 
L 280.715114 368.607173 
L 280.7595 368.841946 
L 280.821641 368.65876 
L 281.079082 366.66766 
L 281.593964 360.963087 
L 282.428427 348.719339 
L 283.706755 330.717851 
L 284.390305 320.441777 
L 284.647745 312.883232 
L 284.816414 300.793981 
L 284.940695 272.483783 
L 285.038345 186.999892 
L 285.144873 92.67394 
L 285.198136 102.4552 
L 285.748527 301.866516 
L 286.014845 368.616911 
L 286.059232 368.842209 
L 286.121373 368.654285 
L 286.378814 366.66029 
L 286.893695 360.952559 
L 287.728159 348.706705 
L 289.006486 330.707323 
L 289.690036 320.424933 
L 289.947477 312.847174 
L 290.116145 300.69686 
L 290.240427 272.136623 
L 290.338077 185.812365 
L 290.444605 92.688152 
L 290.497868 102.693395 
L 291.057136 305.954258 
L 291.3057 368.508999 
L 291.358964 368.842472 
L 291.421105 368.650074 
L 291.678545 366.652921 
L 292.193427 360.942032 
L 293.027891 348.694072 
L 294.315095 330.581251 
L 294.989768 320.407825 
L 295.247209 312.811115 
L 295.415877 300.599214 
L 295.540159 271.785253 
L 295.637809 184.61502 
L 295.744336 92.708156 
L 295.7976 102.934485 
L 296.365745 310.144384 
L 296.605432 368.521107 
L 296.658695 368.842472 
L 296.720836 368.645863 
L 296.978277 366.645551 
L 297.493159 360.931504 
L 298.327623 348.681701 
L 299.60595 330.686267 
L 300.2895 320.39098 
L 300.546941 312.774794 
L 300.715609 300.499724 
L 300.839891 271.42625 
L 300.937541 183.402753 
L 301.044068 92.735002 
L 301.097332 103.178207 
L 301.674355 314.425314 
L 301.905164 368.53295 
L 301.958427 368.842472 
L 302.020568 368.641652 
L 302.286886 366.55659 
L 302.810645 360.69015 
L 303.671741 347.98554 
L 304.914559 330.560195 
L 305.589232 320.373872 
L 305.846673 312.738209 
L 306.015341 300.399709 
L 306.139623 271.063825 
L 306.24615 168.811717 
L 306.334923 92.757111 
L 306.397064 103.424824 
L 306.982964 318.77915 
L 307.196018 368.400561 
L 307.258159 368.842209 
L 307.3203 368.637177 
L 307.586618 366.548957 
L 308.110377 360.679359 
L 308.971473 347.972907 
L 310.214291 330.549404 
L 310.888964 320.356764 
L 311.146405 312.701361 
L 311.315073 300.29864 
L 311.439355 270.695346 
L 311.545882 167.550021 
L 311.634655 92.724211 
L 311.696795 103.674863 
L 312.291573 323.178256 
L 312.49575 368.415827 
L 312.557891 368.841946 
L 312.620032 368.632703 
L 312.88635 366.541325 
L 313.410109 360.668568 
L 314.280082 347.82341 
L 315.531777 330.307261 
L 316.188695 320.33913 
L 316.446136 312.663987 
L 316.614805 300.196256 
L 316.739086 270.320025 
L 316.845614 166.278086 
L 316.934386 92.697891 
L 316.996527 103.928324 
L 317.600182 327.584205 
L 317.795482 368.430566 
L 317.857623 368.841683 
L 317.910886 368.674551 
L 318.150573 366.85611 
L 318.665455 361.231287 
L 319.464409 349.589474 
L 320.787123 330.873928 
L 321.488427 320.321759 
L 321.745868 312.62635 
L 321.914536 300.092556 
L 322.038818 269.937597 
L 322.145345 165.002019 
L 322.234118 92.678677 
L 322.296259 104.182837 
L 322.908791 331.948306 
L 323.095214 368.445305 
L 323.157355 368.841156 
L 323.210618 368.67034 
L 323.459182 366.768992 
L 323.974064 361.106794 
L 324.790773 349.165461 
L 326.095732 330.747593 
L 326.779282 320.489153 
L 327.036723 312.983247 
L 327.205391 301.061917 
L 327.329673 273.433931 
L 327.427323 190.281955 
L 327.53385 92.66736 
L 327.595991 104.437614 
L 328.2174 336.215813 
L 328.403823 368.589275 
L 328.457086 368.84063 
L 328.51035 368.666129 
L 328.758914 366.761359 
L 329.273795 361.096266 
L 329.318182 360.519597 
L 329.335936 361.423422 
L 329.531236 365.431415 
L 329.620009 365.620128 
L 329.664395 365.562488 
L 329.815309 364.952919 
L 330.214786 362.123268 
L 332.176664 347.299644 
L 332.869091 344.063087 
L 333.428359 342.400197 
L 333.889977 341.653765 
L 334.262823 341.425834 
L 334.609036 341.462682 
L 335.061777 341.752991 
L 336.553159 342.847898 
L 337.156814 342.945018 
L 338.097805 342.834475 
L 339.580309 342.639181 
L 342.101455 342.675503 
L 345.714505 342.671555 
L 435.845455 342.67366 
L 435.845455 342.67366 
" style="fill:none;stroke:#1f77b4;stroke-linecap:square;stroke-width:1.5;"/>
   </g>
   <g id="line2d_14">
    <path clip-path="url(#pd297d9dedf)" d="M 80.754545 342.742882 
L 81.500236 342.973029 
L 82.405718 343.018149 
L 87.625555 342.89178 
L 121.953968 342.888058 
L 151.772727 342.888058 
L 152.314241 298.212619 
L 152.420768 249.675498 
L 152.562805 66.96 
L 152.687086 95.108639 
L 153.565936 369.36 
L 153.592568 369.326248 
L 153.725727 368.573685 
L 154.160714 364.667794 
L 154.755491 357.102582 
L 157.312145 318.576588 
L 157.534077 310.00012 
L 157.684991 294.506281 
L 157.791518 258.22229 
L 157.969064 91.425359 
L 158.093345 126.794317 
L 158.821282 368.400651 
L 158.883423 368.936461 
L 158.945564 368.759765 
L 159.194127 366.876749 
L 159.709009 361.267252 
L 160.507964 349.642974 
L 161.848432 330.652988 
L 162.523105 320.381336 
L 162.780545 312.607728 
L 162.949214 299.86242 
L 163.064618 272.801821 
L 163.162268 187.695646 
L 163.268795 92.364321 
L 163.322059 102.041426 
L 163.87245 301.482539 
L 164.138768 368.668301 
L 164.183155 368.905136 
L 164.245295 368.725751 
L 164.493859 366.834754 
L 165.008741 361.207584 
L 165.816573 349.434313 
L 167.148164 330.600513 
L 167.822836 320.325783 
L 168.080277 312.518049 
L 168.248945 299.651273 
L 168.36435 272.148569 
L 168.462 185.553646 
L 168.568527 92.461204 
L 168.621791 102.542686 
L 169.189936 309.789311 
L 169.429623 368.56802 
L 169.482886 368.903422 
L 169.545027 368.714868 
L 169.802468 366.737102 
L 170.31735 361.068498 
L 171.134059 349.129898 
L 172.447895 330.57531 
L 173.113691 320.473978 
L 173.371132 312.839241 
L 173.5398 300.540574 
L 173.664082 271.390798 
L 173.761732 182.989309 
L 173.868259 92.5213 
L 173.921523 103.064139 
L 174.507423 318.47167 
L 174.720477 368.446103 
L 174.782618 368.903317 
L 174.844759 368.705559 
L 175.111077 366.640397 
L 175.625959 360.931321 
L 176.460423 348.691906 
L 177.747627 330.552216 
L 178.413423 320.437096 
L 178.670864 312.760637 
L 178.839532 300.325392 
L 178.963814 270.608443 
L 179.070341 166.914747 
L 179.159114 92.483403 
L 179.221255 103.596307 
L 179.824909 327.332393 
L 180.020209 368.478686 
L 180.08235 368.90291 
L 180.144491 368.696154 
L 180.410809 366.624221 
L 180.934568 360.793408 
L 181.786786 348.254383 
L 183.056236 330.412954 
L 183.713155 320.400024 
L 183.970595 312.680927 
L 184.139264 300.105896 
L 184.263545 269.799507 
L 184.370073 164.200366 
L 184.458845 92.444059 
L 184.512109 101.501293 
L 185.026991 286.721421 
L 185.346573 368.811245 
L 185.382082 368.902143 
L 185.435345 368.733008 
L 185.683909 366.848963 
L 186.198791 361.227902 
L 186.997745 349.595905 
L 188.338214 330.621948 
L 189.012886 320.362764 
L 189.270327 312.600486 
L 189.438995 299.883256 
L 189.563277 268.974478 
L 189.669805 161.497292 
L 189.758577 92.439824 
L 189.811841 102.012318 
L 190.353355 297.799858 
L 190.62855 368.664193 
L 190.672936 368.902624 
L 190.735077 368.724003 
L 190.983641 366.833061 
L 191.498523 361.205193 
L 192.306355 349.431465 
L 193.637945 330.598742 
L 194.312618 320.325184 
L 194.570059 312.519131 
L 194.738727 299.657247 
L 194.854132 272.172422 
L 194.951782 185.643334 
L 195.058309 92.465493 
L 195.111573 102.530256 
L 195.679718 309.771204 
L 195.919405 368.567166 
L 195.972668 368.903237 
L 196.034809 368.714921 
L 196.29225 366.737291 
L 196.807132 361.068768 
L 197.623841 349.130225 
L 198.937677 330.575634 
L 199.603473 320.474657 
L 199.860914 312.840853 
L 200.029582 300.54519 
L 200.153864 271.40784 
L 200.251514 183.04726 
L 200.358041 92.520202 
L 200.411305 103.052833 
L 200.997205 318.454614 
L 201.210259 368.445367 
L 201.2724 368.903305 
L 201.334541 368.705745 
L 201.600859 366.640726 
L 202.115741 360.931787 
L 202.950205 348.692462 
L 204.237409 330.552691 
L 204.903205 320.437871 
L 205.160645 312.762316 
L 205.329314 300.330019 
L 205.453595 270.625414 
L 205.560123 166.972571 
L 205.648895 92.484639 
L 205.711036 103.584821 
L 206.314691 327.315275 
L 206.509991 368.478007 
L 206.572132 368.902923 
L 206.634273 368.696356 
L 206.900591 366.624566 
L 207.42435 360.793898 
L 208.276568 348.254965 
L 209.546018 330.413449 
L 210.202936 320.400818 
L 210.460377 312.682639 
L 210.629045 300.11062 
L 210.753327 269.816957 
L 210.859855 164.258342 
L 210.948627 92.444543 
L 211.001891 101.490439 
L 211.516773 286.70715 
L 211.836355 368.810991 
L 211.871864 368.902164 
L 211.925127 368.733198 
L 212.173691 366.849303 
L 212.688573 361.228389 
L 213.487527 349.596494 
L 214.827995 330.622445 
L 215.502668 320.363568 
L 215.760109 312.602224 
L 215.928777 299.888077 
L 216.053059 268.992396 
L 216.159586 161.555452 
L 216.248359 92.439621 
L 216.301623 102.001213 
L 216.843136 297.784324 
L 217.118332 368.663728 
L 217.162718 368.902606 
L 217.224859 368.724198 
L 217.473423 366.833403 
L 217.988305 361.205682 
L 218.796136 349.432056 
L 220.127727 330.599241 
L 220.8024 320.325996 
L 221.059841 312.520891 
L 221.228509 299.662142 
L 221.343914 272.188788 
L 221.441564 185.699386 
L 221.548091 92.464686 
L 221.601355 102.518995 
L 222.1695 309.754507 
L 222.409186 368.566581 
L 222.46245 368.903228 
L 222.524591 368.715117 
L 222.782032 366.737634 
L 223.296914 361.069256 
L 224.113623 349.130811 
L 225.427459 330.576131 
L 226.093255 320.475453 
L 226.350695 312.842546 
L 226.519364 300.54982 
L 226.643645 271.42462 
L 226.741295 183.103746 
L 226.847823 92.518751 
L 226.901086 103.041422 
L 227.486986 318.437374 
L 227.700041 368.44464 
L 227.762182 368.903306 
L 227.824323 368.705944 
L 228.090641 366.641072 
L 228.605523 360.932277 
L 229.439986 348.693047 
L 230.727191 330.553187 
L 231.392986 320.438668 
L 231.650427 312.764031 
L 231.819095 300.334729 
L 231.943377 270.642671 
L 232.049905 167.031326 
L 232.138677 92.485881 
L 232.200818 103.573128 
L 232.804473 327.297844 
L 232.999773 368.477316 
L 233.061914 368.902937 
L 233.124055 368.696562 
L 233.390373 366.624919 
L 233.914132 360.794399 
L 234.76635 348.255559 
L 236.0358 330.413954 
L 236.692718 320.401628 
L 236.950159 312.684383 
L 237.118827 300.115432 
L 237.243109 269.834729 
L 237.349636 164.317393 
L 237.438409 92.445053 
L 237.491673 101.479389 
L 238.006555 286.692614 
L 238.326136 368.810732 
L 238.361645 368.902185 
L 238.414909 368.733393 
L 238.663473 366.84965 
L 239.178355 361.228884 
L 239.977309 349.597092 
L 241.317777 330.622952 
L 241.99245 320.364387 
L 242.249891 312.603994 
L 242.418559 299.892989 
L 242.542841 269.01065 
L 242.649368 161.614718 
L 242.738141 92.43943 
L 242.791405 101.989905 
L 243.332918 297.768496 
L 243.608114 368.663252 
L 243.6525 368.902587 
L 243.714641 368.724397 
L 243.963205 366.833752 
L 244.478086 361.20618 
L 245.285918 349.432657 
L 246.617509 330.59975 
L 247.292182 320.326822 
L 247.549623 312.522684 
L 247.718291 299.667131 
L 247.833695 272.205465 
L 247.931345 185.756503 
L 248.037873 92.463878 
L 248.091136 102.507528 
L 248.659282 309.737502 
L 248.898968 368.565984 
L 248.952232 368.903219 
L 249.014373 368.715317 
L 249.271814 366.737984 
L 249.786695 361.069753 
L 250.603405 349.131408 
L 251.917241 330.576637 
L 252.583036 320.476264 
L 252.840477 312.844271 
L 253.009145 300.554537 
L 253.133427 271.441715 
L 253.231077 183.161301 
L 253.337605 92.517285 
L 253.390868 103.029802 
L 253.976768 318.419817 
L 254.189823 368.443899 
L 254.251964 368.903306 
L 254.314105 368.706146 
L 254.580423 366.641424 
L 255.095305 360.932776 
L 255.929768 348.693643 
L 257.216973 330.553692 
L 257.882768 320.439479 
L 258.140209 312.765778 
L 258.308877 300.339528 
L 258.433159 270.66025 
L 258.539686 167.091167 
L 258.628459 92.487142 
L 258.6906 103.561207 
L 259.285377 323.246849 
L 259.489555 368.476611 
L 259.551695 368.902951 
L 259.613836 368.696773 
L 259.880155 366.625279 
L 260.403914 360.794911 
L 261.256132 348.256165 
L 262.525582 330.41447 
L 263.1825 320.402454 
L 263.439941 312.686162 
L 263.608609 300.120338 
L 263.732891 269.852847 
L 263.839418 164.377604 
L 263.928191 92.445594 
L 263.981455 101.468127 
L 264.496336 286.677794 
L 264.815918 368.810468 
L 264.851427 368.902206 
L 264.904691 368.733591 
L 265.153255 366.850004 
L 265.668136 361.229389 
L 266.467091 349.597703 
L 267.807559 330.623469 
L 268.482232 320.365222 
L 268.739673 312.6058 
L 268.908341 299.897998 
L 269.032623 269.029266 
L 269.13915 161.67517 
L 269.227923 92.439264 
L 269.281186 101.978375 
L 269.8227 297.752348 
L 270.106773 368.755644 
L 270.142282 368.902567 
L 270.204423 368.724599 
L 270.452986 366.834108 
L 270.967868 361.206688 
L 271.7757 349.433271 
L 273.107291 330.600269 
L 273.781964 320.327666 
L 274.039405 312.524513 
L 274.208073 299.672221 
L 274.323477 272.222482 
L 274.421127 185.814791 
L 274.527655 92.463069 
L 274.580918 102.495834 
L 275.149064 309.720146 
L 275.38875 368.565373 
L 275.442014 368.903209 
L 275.504155 368.715521 
L 275.761595 366.73834 
L 276.276477 361.07026 
L 277.093186 349.132017 
L 278.407023 330.577153 
L 279.072818 320.477091 
L 279.330259 312.846031 
L 279.498927 300.559348 
L 279.623209 271.459147 
L 279.720859 183.219992 
L 279.827386 92.515804 
L 279.88065 103.01796 
L 280.46655 318.401921 
L 280.679605 368.443143 
L 280.741745 368.903307 
L 280.803886 368.706353 
L 281.070205 366.641784 
L 281.585086 360.933285 
L 282.41955 348.69425 
L 283.706755 330.554207 
L 284.37255 320.440307 
L 284.629991 312.767559 
L 284.798659 300.344422 
L 284.922941 270.678175 
L 285.029468 167.152184 
L 285.118241 92.488434 
L 285.180382 103.54905 
L 285.775159 323.228657 
L 285.979336 368.475893 
L 286.041477 368.902966 
L 286.103618 368.696988 
L 286.369936 366.625646 
L 286.893695 360.795433 
L 287.745914 348.256784 
L 289.015364 330.414996 
L 289.672282 320.403298 
L 289.929723 312.687977 
L 290.098391 300.125345 
L 290.222673 269.871334 
L 290.3292 164.439125 
L 290.417973 92.446168 
L 290.480114 104.089917 
L 291.101523 335.965456 
L 291.287945 368.640011 
L 291.341209 368.902227 
L 291.40335 368.687496 
L 291.678545 366.527907 
L 292.202305 360.656851 
L 293.0634 347.956438 
L 294.323973 330.275623 
L 294.972014 320.366074 
L 295.229455 312.607641 
L 295.398123 299.903104 
L 295.522405 269.04824 
L 295.628932 161.736797 
L 295.717705 92.439109 
L 295.770968 101.966628 
L 296.312482 297.735888 
L 296.596555 368.755283 
L 296.632064 368.902547 
L 296.694205 368.724805 
L 296.942768 366.83447 
L 297.45765 361.207205 
L 298.265482 349.433895 
L 299.597073 330.600798 
L 300.271745 320.328526 
L 300.529186 312.526379 
L 300.697855 299.677411 
L 300.813259 272.239831 
L 300.910909 185.874244 
L 301.017436 92.462245 
L 301.0707 102.4839 
L 301.629968 305.866594 
L 301.878532 368.564749 
L 301.931795 368.903199 
L 301.993936 368.71573 
L 302.251377 366.738705 
L 302.766259 361.070778 
L 303.582968 349.132639 
L 304.896805 330.577681 
L 305.5626 320.477936 
L 305.820041 312.847828 
L 305.988709 300.564261 
L 306.112991 271.476947 
L 306.210641 183.279929 
L 306.317168 92.514305 
L 306.370432 103.005873 
L 306.947455 314.397923 
L 307.178264 368.590889 
L 307.231527 368.903308 
L 307.293668 368.706564 
L 307.551109 366.722829 
L 308.065991 361.048217 
L 308.8827 349.105559 
L 310.196536 330.554733 
L 310.862332 320.441153 
L 311.119773 312.769379 
L 311.288441 300.349419 
L 311.412723 270.696451 
L 311.51925 167.214394 
L 311.608023 92.489762 
L 311.670164 103.536659 
L 312.264941 323.210112 
L 312.469118 368.47516 
L 312.531259 368.902981 
L 312.5934 368.697208 
L 312.859718 366.626021 
L 313.383477 360.795965 
L 314.235695 348.257416 
L 315.505145 330.415533 
L 316.162064 320.404158 
L 316.419505 312.689829 
L 316.588173 300.13045 
L 316.712455 269.890188 
L 316.818982 164.502024 
L 316.907755 92.446785 
L 316.969895 104.077267 
L 317.582427 332.036987 
L 317.76885 368.506415 
L 317.830991 368.902248 
L 317.884255 368.733998 
L 318.132818 366.850733 
L 318.6477 361.230431 
L 319.446655 349.598962 
L 320.787123 330.624534 
L 321.461795 320.366944 
L 321.719236 312.609523 
L 321.887905 299.908323 
L 322.012186 269.067634 
L 322.118714 161.799739 
L 322.207486 92.438938 
L 322.26075 101.954611 
L 322.802264 297.719041 
L 323.086336 368.754915 
L 323.121845 368.902527 
L 323.183986 368.725017 
L 323.43255 366.834842 
L 323.947432 361.207736 
L 324.755264 349.434537 
L 326.086855 330.60134 
L 326.761527 320.329407 
L 327.018968 312.528289 
L 327.187636 299.682727 
L 327.303041 272.257598 
L 327.400691 185.935151 
L 327.507218 92.461399 
L 327.560482 102.471666 
L 328.11975 305.848811 
L 328.368314 368.564108 
L 328.421577 368.903189 
L 328.483718 368.715944 
L 328.741159 366.73908 
L 329.256041 361.071311 
L 329.318182 360.260748 
L 329.335936 361.166189 
L 329.531236 365.285624 
L 329.628886 365.519434 
L 329.673273 365.465172 
L 329.824186 364.8742 
L 330.214786 362.162673 
L 332.203295 347.34814 
L 332.886845 344.209241 
L 333.446114 342.574762 
L 333.898855 341.858042 
L 334.2717 341.633105 
L 334.626791 341.673281 
L 335.097286 341.980994 
L 336.526527 343.044848 
L 337.156814 343.154853 
L 338.062295 343.056784 
L 339.908768 342.845947 
L 342.971427 342.896552 
L 410.465332 342.888058 
L 435.845455 342.888058 
L 435.845455 342.888058 
" style="fill:none;stroke:#ff0000;stroke-linecap:square;stroke-width:1.5;"/>
   </g>
   <g id="patch_3">
    <path d="M 63 384.48 
L 63 51.84 
" style="fill:none;stroke:#000000;stroke-linecap:square;stroke-linejoin:miter;stroke-width:0.8;"/>
   </g>
   <g id="patch_4">
    <path d="M 453.6 384.48 
L 453.6 51.84 
" style="fill:none;stroke:#000000;stroke-linecap:square;stroke-linejoin:miter;stroke-width:0.8;"/>
   </g>
   <g id="patch_5">
    <path d="M 63 384.48 
L 453.6 384.48 
" style="fill:none;stroke:#000000;stroke-linecap:square;stroke-linejoin:miter;stroke-width:0.8;"/>
   </g>
   <g id="patch_6">
    <path d="M 63 51.84 
L 453.6 51.84 
" style="fill:none;stroke:#000000;stroke-linecap:square;stroke-linejoin:miter;stroke-width:0.8;"/>
   </g>
   <g id="legend_1">
    <g id="patch_7">
     <path d="M 383.460938 89.19625 
L 446.6 89.19625 
Q 448.6 89.19625 448.6 87.19625 
L 448.6 58.84 
Q 448.6 56.84 446.6 56.84 
L 383.460938 56.84 
Q 381.460938 56.84 381.460938 58.84 
L 381.460938 87.19625 
Q 381.460938 89.19625 383.460938 89.19625 
z
" style="fill:#ffffff;opacity:0.8;stroke:#cccccc;stroke-linejoin:miter;"/>
    </g>
    <g id="line2d_15">
     <path d="M 385.460938 64.938437 
L 405.460938 64.938437 
" style="fill:none;stroke:#1f77b4;stroke-linecap:square;stroke-width:1.5;"/>
    </g>
    <g id="line2d_16"/>
    <g id="text_15">
     <!-- target -->
     <defs>
      <path d="M 41.109375 46.296875 
Q 39.59375 47.171875 37.8125 47.578125 
Q 36.03125 48 33.890625 48 
Q 26.265625 48 22.1875 43.046875 
Q 18.109375 38.09375 18.109375 28.8125 
L 18.109375 0 
L 9.078125 0 
L 9.078125 54.6875 
L 18.109375 54.6875 
L 18.109375 46.1875 
Q 20.953125 51.171875 25.484375 53.578125 
Q 30.03125 56 36.53125 56 
Q 37.453125 56 38.578125 55.875 
Q 39.703125 55.765625 41.0625 55.515625 
z
" id="DejaVuSans-72"/>
     </defs>
     <g transform="translate(413.460938 68.438437)scale(0.1 -0.1)">
      <use xlink:href="#DejaVuSans-74"/>
      <use x="39.208984" xlink:href="#DejaVuSans-61"/>
      <use x="100.488281" xlink:href="#DejaVuSans-72"/>
      <use x="141.585938" xlink:href="#DejaVuSans-67"/>
      <use x="205.0625" xlink:href="#DejaVuSans-65"/>
      <use x="266.585938" xlink:href="#DejaVuSans-74"/>
     </g>
    </g>
    <g id="line2d_17">
     <path d="M 385.460938 79.616562 
L 405.460938 79.616562 
" style="fill:none;stroke:#ff0000;stroke-linecap:square;stroke-width:1.5;"/>
    </g>
    <g id="line2d_18"/>
    <g id="text_16">
     <!-- model -->
     <defs>
      <path d="M 45.40625 46.390625 
L 45.40625 75.984375 
L 54.390625 75.984375 
L 54.390625 0 
L 45.40625 0 
L 45.40625 8.203125 
Q 42.578125 3.328125 38.25 0.953125 
Q 33.9375 -1.421875 27.875 -1.421875 
Q 17.96875 -1.421875 11.734375 6.484375 
Q 5.515625 14.40625 5.515625 27.296875 
Q 5.515625 40.1875 11.734375 48.09375 
Q 17.96875 56 27.875 56 
Q 33.9375 56 38.25 53.625 
Q 42.578125 51.265625 45.40625 46.390625 
z
M 14.796875 27.296875 
Q 14.796875 17.390625 18.875 11.75 
Q 22.953125 6.109375 30.078125 6.109375 
Q 37.203125 6.109375 41.296875 11.75 
Q 45.40625 17.390625 45.40625 27.296875 
Q 45.40625 37.203125 41.296875 42.84375 
Q 37.203125 48.484375 30.078125 48.484375 
Q 22.953125 48.484375 18.875 42.84375 
Q 14.796875 37.203125 14.796875 27.296875 
z
" id="DejaVuSans-64"/>
     </defs>
     <g transform="translate(413.460938 83.116562)scale(0.1 -0.1)">
      <use xlink:href="#DejaVuSans-6d"/>
      <use x="97.412109" xlink:href="#DejaVuSans-6f"/>
      <use x="158.59375" xlink:href="#DejaVuSans-64"/>
      <use x="222.070312" xlink:href="#DejaVuSans-65"/>
      <use x="283.59375" xlink:href="#DejaVuSans-6c"/>
     </g>
    </g>
   </g>
  </g>
 </g>
 <defs>
  <clipPath id="pd297d9dedf">
   <rect height="332.64" width="390.6" x="63" y="51.84"/>
  </clipPath>
 </defs>
</svg>
