<?xml version="1.0" encoding="utf-8" standalone="no"?>
<!DOCTYPE svg PUBLIC "-//W3C//DTD SVG 1.1//EN"
  "http://www.w3.org/Graphics/SVG/1.1/DTD/svg11.dtd">
<!-- Created with matplotlib (http://matplotlib.org/) -->
<svg height="432pt" version="1.1" viewBox="0 0 504 432" width="504pt" xmlns="http://www.w3.org/2000/svg" xmlns:xlink="http://www.w3.org/1999/xlink">
 <defs>
  <style type="text/css">
*{stroke-linecap:butt;stroke-linejoin:round;}
  </style>
 </defs>
 <g id="figure_1">
  <g id="patch_1">
   <path d="M 0 432 
L 504 432 
L 504 0 
L 0 0 
z
" style="fill:#ffffff;"/>
  </g>
  <g id="axes_1">
   <g id="patch_2">
    <path d="M 63 384.48 
L 453.6 384.48 
L 453.6 51.84 
L 63 51.84 
z
" style="fill:#ffffff;"/>
   </g>
   <g id="matplotlib.axis_1">
    <g id="xtick_1">
     <g id="line2d_1">
      <defs>
       <path d="M 0 0 
L 0 3.5 
" id="m09750cc506" style="stroke:#000000;stroke-width:0.8;"/>
      </defs>
      <g>
       <use style="stroke:#000000;stroke-width:0.8;" x="80.754545" xlink:href="#m09750cc506" y="384.48"/>
      </g>
     </g>
     <g id="text_1">
      <!-- 0 -->
      <defs>
       <path d="M 31.78125 66.40625 
Q 24.171875 66.40625 20.328125 58.90625 
Q 16.5 51.421875 16.5 36.375 
Q 16.5 21.390625 20.328125 13.890625 
Q 24.171875 6.390625 31.78125 6.390625 
Q 39.453125 6.390625 43.28125 13.890625 
Q 47.125 21.390625 47.125 36.375 
Q 47.125 51.421875 43.28125 58.90625 
Q 39.453125 66.40625 31.78125 66.40625 
z
M 31.78125 74.21875 
Q 44.046875 74.21875 50.515625 64.515625 
Q 56.984375 54.828125 56.984375 36.375 
Q 56.984375 17.96875 50.515625 8.265625 
Q 44.046875 -1.421875 31.78125 -1.421875 
Q 19.53125 -1.421875 13.0625 8.265625 
Q 6.59375 17.96875 6.59375 36.375 
Q 6.59375 54.828125 13.0625 64.515625 
Q 19.53125 74.21875 31.78125 74.21875 
z
" id="DejaVuSans-30"/>
      </defs>
      <g transform="translate(77.573295 399.078438)scale(0.1 -0.1)">
       <use xlink:href="#DejaVuSans-30"/>
      </g>
     </g>
    </g>
    <g id="xtick_2">
     <g id="line2d_2">
      <g>
       <use style="stroke:#000000;stroke-width:0.8;" x="151.767796" xlink:href="#m09750cc506" y="384.48"/>
      </g>
     </g>
     <g id="text_2">
      <!-- 720 -->
      <defs>
       <path d="M 8.203125 72.90625 
L 55.078125 72.90625 
L 55.078125 68.703125 
L 28.609375 0 
L 18.3125 0 
L 43.21875 64.59375 
L 8.203125 64.59375 
z
" id="DejaVuSans-37"/>
       <path d="M 19.1875 8.296875 
L 53.609375 8.296875 
L 53.609375 0 
L 7.328125 0 
L 7.328125 8.296875 
Q 12.9375 14.109375 22.625 23.890625 
Q 32.328125 33.6875 34.8125 36.53125 
Q 39.546875 41.84375 41.421875 45.53125 
Q 43.3125 49.21875 43.3125 52.78125 
Q 43.3125 58.59375 39.234375 62.25 
Q 35.15625 65.921875 28.609375 65.921875 
Q 23.96875 65.921875 18.8125 64.3125 
Q 13.671875 62.703125 7.8125 59.421875 
L 7.8125 69.390625 
Q 13.765625 71.78125 18.9375 73 
Q 24.125 74.21875 28.421875 74.21875 
Q 39.75 74.21875 46.484375 68.546875 
Q 53.21875 62.890625 53.21875 53.421875 
Q 53.21875 48.921875 51.53125 44.890625 
Q 49.859375 40.875 45.40625 35.40625 
Q 44.1875 33.984375 37.640625 27.21875 
Q 31.109375 20.453125 19.1875 8.296875 
z
" id="DejaVuSans-32"/>
      </defs>
      <g transform="translate(142.224046 399.078438)scale(0.1 -0.1)">
       <use xlink:href="#DejaVuSans-37"/>
       <use x="63.623047" xlink:href="#DejaVuSans-32"/>
       <use x="127.246094" xlink:href="#DejaVuSans-30"/>
      </g>
     </g>
    </g>
    <g id="xtick_3">
     <g id="line2d_3">
      <g>
       <use style="stroke:#000000;stroke-width:0.8;" x="222.781046" xlink:href="#m09750cc506" y="384.48"/>
      </g>
     </g>
     <g id="text_3">
      <!-- 1440 -->
      <defs>
       <path d="M 12.40625 8.296875 
L 28.515625 8.296875 
L 28.515625 63.921875 
L 10.984375 60.40625 
L 10.984375 69.390625 
L 28.421875 72.90625 
L 38.28125 72.90625 
L 38.28125 8.296875 
L 54.390625 8.296875 
L 54.390625 0 
L 12.40625 0 
z
" id="DejaVuSans-31"/>
       <path d="M 37.796875 64.3125 
L 12.890625 25.390625 
L 37.796875 25.390625 
z
M 35.203125 72.90625 
L 47.609375 72.90625 
L 47.609375 25.390625 
L 58.015625 25.390625 
L 58.015625 17.1875 
L 47.609375 17.1875 
L 47.609375 0 
L 37.796875 0 
L 37.796875 17.1875 
L 4.890625 17.1875 
L 4.890625 26.703125 
z
" id="DejaVuSans-34"/>
      </defs>
      <g transform="translate(210.056046 399.078438)scale(0.1 -0.1)">
       <use xlink:href="#DejaVuSans-31"/>
       <use x="63.623047" xlink:href="#DejaVuSans-34"/>
       <use x="127.246094" xlink:href="#DejaVuSans-34"/>
       <use x="190.869141" xlink:href="#DejaVuSans-30"/>
      </g>
     </g>
    </g>
    <g id="xtick_4">
     <g id="line2d_4">
      <g>
       <use style="stroke:#000000;stroke-width:0.8;" x="293.794296" xlink:href="#m09750cc506" y="384.48"/>
      </g>
     </g>
     <g id="text_4">
      <!-- 2160 -->
      <defs>
       <path d="M 33.015625 40.375 
Q 26.375 40.375 22.484375 35.828125 
Q 18.609375 31.296875 18.609375 23.390625 
Q 18.609375 15.53125 22.484375 10.953125 
Q 26.375 6.390625 33.015625 6.390625 
Q 39.65625 6.390625 43.53125 10.953125 
Q 47.40625 15.53125 47.40625 23.390625 
Q 47.40625 31.296875 43.53125 35.828125 
Q 39.65625 40.375 33.015625 40.375 
z
M 52.59375 71.296875 
L 52.59375 62.3125 
Q 48.875 64.0625 45.09375 64.984375 
Q 41.3125 65.921875 37.59375 65.921875 
Q 27.828125 65.921875 22.671875 59.328125 
Q 17.53125 52.734375 16.796875 39.40625 
Q 19.671875 43.65625 24.015625 45.921875 
Q 28.375 48.1875 33.59375 48.1875 
Q 44.578125 48.1875 50.953125 41.515625 
Q 57.328125 34.859375 57.328125 23.390625 
Q 57.328125 12.15625 50.6875 5.359375 
Q 44.046875 -1.421875 33.015625 -1.421875 
Q 20.359375 -1.421875 13.671875 8.265625 
Q 6.984375 17.96875 6.984375 36.375 
Q 6.984375 53.65625 15.1875 63.9375 
Q 23.390625 74.21875 37.203125 74.21875 
Q 40.921875 74.21875 44.703125 73.484375 
Q 48.484375 72.75 52.59375 71.296875 
z
" id="DejaVuSans-36"/>
      </defs>
      <g transform="translate(281.069296 399.078438)scale(0.1 -0.1)">
       <use xlink:href="#DejaVuSans-32"/>
       <use x="63.623047" xlink:href="#DejaVuSans-31"/>
       <use x="127.246094" xlink:href="#DejaVuSans-36"/>
       <use x="190.869141" xlink:href="#DejaVuSans-30"/>
      </g>
     </g>
    </g>
    <g id="xtick_5">
     <g id="line2d_5">
      <g>
       <use style="stroke:#000000;stroke-width:0.8;" x="364.807547" xlink:href="#m09750cc506" y="384.48"/>
      </g>
     </g>
     <g id="text_5">
      <!-- 2880 -->
      <defs>
       <path d="M 31.78125 34.625 
Q 24.75 34.625 20.71875 30.859375 
Q 16.703125 27.09375 16.703125 20.515625 
Q 16.703125 13.921875 20.71875 10.15625 
Q 24.75 6.390625 31.78125 6.390625 
Q 38.8125 6.390625 42.859375 10.171875 
Q 46.921875 13.96875 46.921875 20.515625 
Q 46.921875 27.09375 42.890625 30.859375 
Q 38.875 34.625 31.78125 34.625 
z
M 21.921875 38.8125 
Q 15.578125 40.375 12.03125 44.71875 
Q 8.5 49.078125 8.5 55.328125 
Q 8.5 64.0625 14.71875 69.140625 
Q 20.953125 74.21875 31.78125 74.21875 
Q 42.671875 74.21875 48.875 69.140625 
Q 55.078125 64.0625 55.078125 55.328125 
Q 55.078125 49.078125 51.53125 44.71875 
Q 48 40.375 41.703125 38.8125 
Q 48.828125 37.15625 52.796875 32.3125 
Q 56.78125 27.484375 56.78125 20.515625 
Q 56.78125 9.90625 50.3125 4.234375 
Q 43.84375 -1.421875 31.78125 -1.421875 
Q 19.734375 -1.421875 13.25 4.234375 
Q 6.78125 9.90625 6.78125 20.515625 
Q 6.78125 27.484375 10.78125 32.3125 
Q 14.796875 37.15625 21.921875 38.8125 
z
M 18.3125 54.390625 
Q 18.3125 48.734375 21.84375 45.5625 
Q 25.390625 42.390625 31.78125 42.390625 
Q 38.140625 42.390625 41.71875 45.5625 
Q 45.3125 48.734375 45.3125 54.390625 
Q 45.3125 60.0625 41.71875 63.234375 
Q 38.140625 66.40625 31.78125 66.40625 
Q 25.390625 66.40625 21.84375 63.234375 
Q 18.3125 60.0625 18.3125 54.390625 
z
" id="DejaVuSans-38"/>
      </defs>
      <g transform="translate(352.082547 399.078438)scale(0.1 -0.1)">
       <use xlink:href="#DejaVuSans-32"/>
       <use x="63.623047" xlink:href="#DejaVuSans-38"/>
       <use x="127.246094" xlink:href="#DejaVuSans-38"/>
       <use x="190.869141" xlink:href="#DejaVuSans-30"/>
      </g>
     </g>
    </g>
    <g id="text_6">
     <!-- time [ms] -->
     <defs>
      <path d="M 18.3125 70.21875 
L 18.3125 54.6875 
L 36.8125 54.6875 
L 36.8125 47.703125 
L 18.3125 47.703125 
L 18.3125 18.015625 
Q 18.3125 11.328125 20.140625 9.421875 
Q 21.96875 7.515625 27.59375 7.515625 
L 36.8125 7.515625 
L 36.8125 0 
L 27.59375 0 
Q 17.1875 0 13.234375 3.875 
Q 9.28125 7.765625 9.28125 18.015625 
L 9.28125 47.703125 
L 2.6875 47.703125 
L 2.6875 54.6875 
L 9.28125 54.6875 
L 9.28125 70.21875 
z
" id="DejaVuSans-74"/>
      <path d="M 9.421875 54.6875 
L 18.40625 54.6875 
L 18.40625 0 
L 9.421875 0 
z
M 9.421875 75.984375 
L 18.40625 75.984375 
L 18.40625 64.59375 
L 9.421875 64.59375 
z
" id="DejaVuSans-69"/>
      <path d="M 52 44.1875 
Q 55.375 50.25 60.0625 53.125 
Q 64.75 56 71.09375 56 
Q 79.640625 56 84.28125 50.015625 
Q 88.921875 44.046875 88.921875 33.015625 
L 88.921875 0 
L 79.890625 0 
L 79.890625 32.71875 
Q 79.890625 40.578125 77.09375 44.375 
Q 74.3125 48.1875 68.609375 48.1875 
Q 61.625 48.1875 57.5625 43.546875 
Q 53.515625 38.921875 53.515625 30.90625 
L 53.515625 0 
L 44.484375 0 
L 44.484375 32.71875 
Q 44.484375 40.625 41.703125 44.40625 
Q 38.921875 48.1875 33.109375 48.1875 
Q 26.21875 48.1875 22.15625 43.53125 
Q 18.109375 38.875 18.109375 30.90625 
L 18.109375 0 
L 9.078125 0 
L 9.078125 54.6875 
L 18.109375 54.6875 
L 18.109375 46.1875 
Q 21.1875 51.21875 25.484375 53.609375 
Q 29.78125 56 35.6875 56 
Q 41.65625 56 45.828125 52.96875 
Q 50 49.953125 52 44.1875 
z
" id="DejaVuSans-6d"/>
      <path d="M 56.203125 29.59375 
L 56.203125 25.203125 
L 14.890625 25.203125 
Q 15.484375 15.921875 20.484375 11.0625 
Q 25.484375 6.203125 34.421875 6.203125 
Q 39.59375 6.203125 44.453125 7.46875 
Q 49.3125 8.734375 54.109375 11.28125 
L 54.109375 2.78125 
Q 49.265625 0.734375 44.1875 -0.34375 
Q 39.109375 -1.421875 33.890625 -1.421875 
Q 20.796875 -1.421875 13.15625 6.1875 
Q 5.515625 13.8125 5.515625 26.8125 
Q 5.515625 40.234375 12.765625 48.109375 
Q 20.015625 56 32.328125 56 
Q 43.359375 56 49.78125 48.890625 
Q 56.203125 41.796875 56.203125 29.59375 
z
M 47.21875 32.234375 
Q 47.125 39.59375 43.09375 43.984375 
Q 39.0625 48.390625 32.421875 48.390625 
Q 24.90625 48.390625 20.390625 44.140625 
Q 15.875 39.890625 15.1875 32.171875 
z
" id="DejaVuSans-65"/>
      <path id="DejaVuSans-20"/>
      <path d="M 8.59375 75.984375 
L 29.296875 75.984375 
L 29.296875 69 
L 17.578125 69 
L 17.578125 -6.203125 
L 29.296875 -6.203125 
L 29.296875 -13.1875 
L 8.59375 -13.1875 
z
" id="DejaVuSans-5b"/>
      <path d="M 44.28125 53.078125 
L 44.28125 44.578125 
Q 40.484375 46.53125 36.375 47.5 
Q 32.28125 48.484375 27.875 48.484375 
Q 21.1875 48.484375 17.84375 46.4375 
Q 14.5 44.390625 14.5 40.28125 
Q 14.5 37.15625 16.890625 35.375 
Q 19.28125 33.59375 26.515625 31.984375 
L 29.59375 31.296875 
Q 39.15625 29.25 43.1875 25.515625 
Q 47.21875 21.78125 47.21875 15.09375 
Q 47.21875 7.46875 41.1875 3.015625 
Q 35.15625 -1.421875 24.609375 -1.421875 
Q 20.21875 -1.421875 15.453125 -0.5625 
Q 10.6875 0.296875 5.421875 2 
L 5.421875 11.28125 
Q 10.40625 8.6875 15.234375 7.390625 
Q 20.0625 6.109375 24.8125 6.109375 
Q 31.15625 6.109375 34.5625 8.28125 
Q 37.984375 10.453125 37.984375 14.40625 
Q 37.984375 18.0625 35.515625 20.015625 
Q 33.0625 21.96875 24.703125 23.78125 
L 21.578125 24.515625 
Q 13.234375 26.265625 9.515625 29.90625 
Q 5.8125 33.546875 5.8125 39.890625 
Q 5.8125 47.609375 11.28125 51.796875 
Q 16.75 56 26.8125 56 
Q 31.78125 56 36.171875 55.265625 
Q 40.578125 54.546875 44.28125 53.078125 
z
" id="DejaVuSans-73"/>
      <path d="M 30.421875 75.984375 
L 30.421875 -13.1875 
L 9.71875 -13.1875 
L 9.71875 -6.203125 
L 21.390625 -6.203125 
L 21.390625 69 
L 9.71875 69 
L 9.71875 75.984375 
z
" id="DejaVuSans-5d"/>
     </defs>
     <g transform="translate(234.038281 412.756563)scale(0.1 -0.1)">
      <use xlink:href="#DejaVuSans-74"/>
      <use x="39.208984" xlink:href="#DejaVuSans-69"/>
      <use x="66.992188" xlink:href="#DejaVuSans-6d"/>
      <use x="164.404297" xlink:href="#DejaVuSans-65"/>
      <use x="225.927734" xlink:href="#DejaVuSans-20"/>
      <use x="257.714844" xlink:href="#DejaVuSans-5b"/>
      <use x="296.728516" xlink:href="#DejaVuSans-6d"/>
      <use x="394.140625" xlink:href="#DejaVuSans-73"/>
      <use x="446.240234" xlink:href="#DejaVuSans-5d"/>
     </g>
    </g>
   </g>
   <g id="matplotlib.axis_2">
    <g id="ytick_1">
     <g id="line2d_6">
      <defs>
       <path d="M 0 0 
L -3.5 0 
" id="m5541cb48ae" style="stroke:#000000;stroke-width:0.8;"/>
      </defs>
      <g>
       <use style="stroke:#000000;stroke-width:0.8;" x="63" xlink:href="#m5541cb48ae" y="361.134713"/>
      </g>
     </g>
     <g id="text_7">
      <!-- −80 -->
      <defs>
       <path d="M 10.59375 35.5 
L 73.1875 35.5 
L 73.1875 27.203125 
L 10.59375 27.203125 
z
" id="DejaVuSans-2212"/>
      </defs>
      <g transform="translate(34.895313 364.933932)scale(0.1 -0.1)">
       <use xlink:href="#DejaVuSans-2212"/>
       <use x="83.789062" xlink:href="#DejaVuSans-38"/>
       <use x="147.412109" xlink:href="#DejaVuSans-30"/>
      </g>
     </g>
    </g>
    <g id="ytick_2">
     <g id="line2d_7">
      <g>
       <use style="stroke:#000000;stroke-width:0.8;" x="63" xlink:href="#m5541cb48ae" y="311.939581"/>
      </g>
     </g>
     <g id="text_8">
      <!-- −60 -->
      <g transform="translate(34.895313 315.738799)scale(0.1 -0.1)">
       <use xlink:href="#DejaVuSans-2212"/>
       <use x="83.789062" xlink:href="#DejaVuSans-36"/>
       <use x="147.412109" xlink:href="#DejaVuSans-30"/>
      </g>
     </g>
    </g>
    <g id="ytick_3">
     <g id="line2d_8">
      <g>
       <use style="stroke:#000000;stroke-width:0.8;" x="63" xlink:href="#m5541cb48ae" y="262.744448"/>
      </g>
     </g>
     <g id="text_9">
      <!-- −40 -->
      <g transform="translate(34.895313 266.543667)scale(0.1 -0.1)">
       <use xlink:href="#DejaVuSans-2212"/>
       <use x="83.789062" xlink:href="#DejaVuSans-34"/>
       <use x="147.412109" xlink:href="#DejaVuSans-30"/>
      </g>
     </g>
    </g>
    <g id="ytick_4">
     <g id="line2d_9">
      <g>
       <use style="stroke:#000000;stroke-width:0.8;" x="63" xlink:href="#m5541cb48ae" y="213.549316"/>
      </g>
     </g>
     <g id="text_10">
      <!-- −20 -->
      <g transform="translate(34.895313 217.348535)scale(0.1 -0.1)">
       <use xlink:href="#DejaVuSans-2212"/>
       <use x="83.789062" xlink:href="#DejaVuSans-32"/>
       <use x="147.412109" xlink:href="#DejaVuSans-30"/>
      </g>
     </g>
    </g>
    <g id="ytick_5">
     <g id="line2d_10">
      <g>
       <use style="stroke:#000000;stroke-width:0.8;" x="63" xlink:href="#m5541cb48ae" y="164.354184"/>
      </g>
     </g>
     <g id="text_11">
      <!-- 0 -->
      <g transform="translate(49.6375 168.153403)scale(0.1 -0.1)">
       <use xlink:href="#DejaVuSans-30"/>
      </g>
     </g>
    </g>
    <g id="ytick_6">
     <g id="line2d_11">
      <g>
       <use style="stroke:#000000;stroke-width:0.8;" x="63" xlink:href="#m5541cb48ae" y="115.159052"/>
      </g>
     </g>
     <g id="text_12">
      <!-- 20 -->
      <g transform="translate(43.275 118.958271)scale(0.1 -0.1)">
       <use xlink:href="#DejaVuSans-32"/>
       <use x="63.623047" xlink:href="#DejaVuSans-30"/>
      </g>
     </g>
    </g>
    <g id="ytick_7">
     <g id="line2d_12">
      <g>
       <use style="stroke:#000000;stroke-width:0.8;" x="63" xlink:href="#m5541cb48ae" y="65.96392"/>
      </g>
     </g>
     <g id="text_13">
      <!-- 40 -->
      <g transform="translate(43.275 69.763139)scale(0.1 -0.1)">
       <use xlink:href="#DejaVuSans-34"/>
       <use x="63.623047" xlink:href="#DejaVuSans-30"/>
      </g>
     </g>
    </g>
    <g id="text_14">
     <!-- Voltage [mV] -->
     <defs>
      <path d="M 28.609375 0 
L 0.78125 72.90625 
L 11.078125 72.90625 
L 34.1875 11.53125 
L 57.328125 72.90625 
L 67.578125 72.90625 
L 39.796875 0 
z
" id="DejaVuSans-56"/>
      <path d="M 30.609375 48.390625 
Q 23.390625 48.390625 19.1875 42.75 
Q 14.984375 37.109375 14.984375 27.296875 
Q 14.984375 17.484375 19.15625 11.84375 
Q 23.34375 6.203125 30.609375 6.203125 
Q 37.796875 6.203125 41.984375 11.859375 
Q 46.1875 17.53125 46.1875 27.296875 
Q 46.1875 37.015625 41.984375 42.703125 
Q 37.796875 48.390625 30.609375 48.390625 
z
M 30.609375 56 
Q 42.328125 56 49.015625 48.375 
Q 55.71875 40.765625 55.71875 27.296875 
Q 55.71875 13.875 49.015625 6.21875 
Q 42.328125 -1.421875 30.609375 -1.421875 
Q 18.84375 -1.421875 12.171875 6.21875 
Q 5.515625 13.875 5.515625 27.296875 
Q 5.515625 40.765625 12.171875 48.375 
Q 18.84375 56 30.609375 56 
z
" id="DejaVuSans-6f"/>
      <path d="M 9.421875 75.984375 
L 18.40625 75.984375 
L 18.40625 0 
L 9.421875 0 
z
" id="DejaVuSans-6c"/>
      <path d="M 34.28125 27.484375 
Q 23.390625 27.484375 19.1875 25 
Q 14.984375 22.515625 14.984375 16.5 
Q 14.984375 11.71875 18.140625 8.90625 
Q 21.296875 6.109375 26.703125 6.109375 
Q 34.1875 6.109375 38.703125 11.40625 
Q 43.21875 16.703125 43.21875 25.484375 
L 43.21875 27.484375 
z
M 52.203125 31.203125 
L 52.203125 0 
L 43.21875 0 
L 43.21875 8.296875 
Q 40.140625 3.328125 35.546875 0.953125 
Q 30.953125 -1.421875 24.3125 -1.421875 
Q 15.921875 -1.421875 10.953125 3.296875 
Q 6 8.015625 6 15.921875 
Q 6 25.140625 12.171875 29.828125 
Q 18.359375 34.515625 30.609375 34.515625 
L 43.21875 34.515625 
L 43.21875 35.40625 
Q 43.21875 41.609375 39.140625 45 
Q 35.0625 48.390625 27.6875 48.390625 
Q 23 48.390625 18.546875 47.265625 
Q 14.109375 46.140625 10.015625 43.890625 
L 10.015625 52.203125 
Q 14.9375 54.109375 19.578125 55.046875 
Q 24.21875 56 28.609375 56 
Q 40.484375 56 46.34375 49.84375 
Q 52.203125 43.703125 52.203125 31.203125 
z
" id="DejaVuSans-61"/>
      <path d="M 45.40625 27.984375 
Q 45.40625 37.75 41.375 43.109375 
Q 37.359375 48.484375 30.078125 48.484375 
Q 22.859375 48.484375 18.828125 43.109375 
Q 14.796875 37.75 14.796875 27.984375 
Q 14.796875 18.265625 18.828125 12.890625 
Q 22.859375 7.515625 30.078125 7.515625 
Q 37.359375 7.515625 41.375 12.890625 
Q 45.40625 18.265625 45.40625 27.984375 
z
M 54.390625 6.78125 
Q 54.390625 -7.171875 48.1875 -13.984375 
Q 42 -20.796875 29.203125 -20.796875 
Q 24.46875 -20.796875 20.265625 -20.09375 
Q 16.0625 -19.390625 12.109375 -17.921875 
L 12.109375 -9.1875 
Q 16.0625 -11.328125 19.921875 -12.34375 
Q 23.78125 -13.375 27.78125 -13.375 
Q 36.625 -13.375 41.015625 -8.765625 
Q 45.40625 -4.15625 45.40625 5.171875 
L 45.40625 9.625 
Q 42.625 4.78125 38.28125 2.390625 
Q 33.9375 0 27.875 0 
Q 17.828125 0 11.671875 7.65625 
Q 5.515625 15.328125 5.515625 27.984375 
Q 5.515625 40.671875 11.671875 48.328125 
Q 17.828125 56 27.875 56 
Q 33.9375 56 38.28125 53.609375 
Q 42.625 51.21875 45.40625 46.390625 
L 45.40625 54.6875 
L 54.390625 54.6875 
z
" id="DejaVuSans-67"/>
     </defs>
     <g transform="translate(28.815625 251.079531)rotate(-90)scale(0.1 -0.1)">
      <use xlink:href="#DejaVuSans-56"/>
      <use x="68.298828" xlink:href="#DejaVuSans-6f"/>
      <use x="129.480469" xlink:href="#DejaVuSans-6c"/>
      <use x="157.263672" xlink:href="#DejaVuSans-74"/>
      <use x="196.472656" xlink:href="#DejaVuSans-61"/>
      <use x="257.751953" xlink:href="#DejaVuSans-67"/>
      <use x="321.228516" xlink:href="#DejaVuSans-65"/>
      <use x="382.751953" xlink:href="#DejaVuSans-20"/>
      <use x="414.539062" xlink:href="#DejaVuSans-5b"/>
      <use x="453.552734" xlink:href="#DejaVuSans-6d"/>
      <use x="550.964844" xlink:href="#DejaVuSans-56"/>
      <use x="619.373047" xlink:href="#DejaVuSans-5d"/>
     </g>
    </g>
   </g>
   <g id="line2d_13">
    <path clip-path="url(#pf26aebc6cb)" d="M 80.754545 324.238364 
L 81.528787 324.944905 
L 82.219194 325.012249 
L 83.752883 324.892977 
L 89.236684 324.379342 
L 93.80323 324.258063 
L 100.480448 324.236032 
L 100.638256 339.21601 
L 101.022911 352.653321 
L 101.550579 364.214173 
L 101.930302 368.501383 
L 102.171944 369.3513 
L 102.280437 369.289056 
L 102.433313 368.794514 
L 102.704544 367.00231 
L 103.380156 360.500205 
L 104.0607 355.052979 
L 104.573573 352.573019 
L 105.002612 351.464409 
L 105.357678 351.079598 
L 105.658498 351.049019 
L 105.993838 351.258333 
L 106.46726 351.853539 
L 107.562047 353.716686 
L 108.395467 354.880061 
L 109.016833 355.388298 
L 109.588884 355.578984 
L 110.225044 355.549069 
L 111.221202 355.242115 
L 112.754891 354.807246 
L 113.958171 354.722251 
L 116.45843 354.851676 
L 119.397589 354.860267 
L 127.894522 354.84375 
L 130.069303 354.843021 
L 130.22711 340.186414 
L 130.582176 328.897383 
L 131.075324 319.666517 
L 131.568471 314.209463 
L 132.027098 311.339213 
L 132.436411 310.012211 
L 132.776683 309.546103 
L 133.057777 309.486975 
L 133.353665 309.666296 
L 133.762978 310.209854 
L 134.409001 311.490448 
L 137.920212 319.044126 
L 139.024863 320.648028 
L 139.932254 321.668963 
L 140.045678 324.449497 
L 140.400744 324.8142 
L 140.879097 324.979672 
L 141.737174 325.002091 
L 143.892229 324.779345 
L 147.936039 324.405712 
L 152.221492 324.267286 
L 159.663088 324.236032 
L 159.820896 321.238629 
L 160.205551 318.557419 
L 160.807191 315.845754 
L 161.443351 313.941778 
L 162.07458 312.714557 
L 162.700877 311.958101 
L 163.346901 311.515404 
L 164.061965 311.295285 
L 164.94963 311.265398 
L 166.28606 311.468262 
L 171.400001 312.405642 
L 174.541351 312.653466 
L 179.403786 312.787302 
L 189.251943 312.83283 
L 189.40975 315.831149 
L 189.784542 318.415019 
L 190.366456 320.955583 
L 191.002617 322.795051 
L 191.653571 324.033942 
L 192.309458 324.828967 
L 192.990001 325.316437 
L 193.739586 325.579312 
L 194.642046 325.650359 
L 195.909435 325.50669 
L 199.114894 324.875063 
L 199.119826 324.238364 
L 199.228318 324.449497 
L 199.583384 324.8142 
L 200.061738 324.979672 
L 200.919814 325.002091 
L 203.074869 324.779345 
L 207.118679 324.405712 
L 211.404132 324.267286 
L 218.845729 324.236032 
L 219.003536 318.239605 
L 219.388191 312.866185 
L 219.989831 307.403303 
L 220.645717 303.358663 
L 221.341055 300.398685 
L 222.09064 298.147618 
L 222.938853 296.295414 
L 224.66487 292.791749 
L 224.857197 291.473575 
L 224.945964 289.246761 
L 224.970621 284.488857 
L 225.029799 66.96 
L 225.13336 186.744539 
L 225.330619 292.904002 
L 225.518015 304.176999 
L 225.730069 306.252802 
L 225.942122 306.627429 
L 226.16897 306.609798 
L 234.157961 303.539383 
L 236.337673 303.078468 
L 238.892177 302.774454 
L 242.368868 302.601946 
L 248.434583 302.541023 
L 248.59239 308.604308 
L 248.957319 313.651526 
L 249.499782 318.233097 
L 250.101422 321.526604 
L 250.717856 323.735423 
L 251.329359 325.152995 
L 251.935931 326.029289 
L 252.542502 326.531134 
L 253.178662 326.77386 
L 253.913452 326.810361 
L 254.884953 326.619439 
L 256.719462 325.98122 
L 258.297534 325.445441 
L 258.302466 324.238364 
L 258.410958 324.449497 
L 258.766024 324.8142 
L 259.244378 324.979672 
L 260.102454 325.002091 
L 262.257509 324.779345 
L 266.301319 324.405712 
L 270.586772 324.267286 
L 278.028369 324.236032 
L 278.186176 315.237721 
L 278.575762 307.034206 
L 279.596578 288.230555 
L 279.611372 276.032425 
L 279.665619 67.847356 
L 279.749454 167.44709 
L 279.961507 288.685314 
L 280.143972 298.833983 
L 280.311642 299.839977 
L 280.316573 299.83962 
L 280.400408 299.708975 
L 280.622325 298.780676 
L 282.47656 288.8298 
L 282.599847 286.054566 
L 282.629435 281.219515 
L 282.693545 71.576692 
L 282.797106 193.623439 
L 282.994365 293.340818 
L 283.176829 302.315699 
L 283.349431 303.20048 
L 283.438197 303.080598 
L 283.67984 302.222634 
L 284.528054 299.172867 
L 285.203666 297.642457 
L 286.05188 296.281085 
L 287.210776 294.859823 
L 289.311585 292.703703 
L 290.618426 291.20938 
L 291.244724 290.161035 
L 291.624447 289.083209 
L 291.851295 287.739628 
L 291.96965 285.5112 
L 292.004171 280.253502 
L 292.06828 74.994657 
L 292.171841 189.652769 
L 292.3691 289.180366 
L 292.556496 299.068763 
L 292.758687 300.634042 
L 292.921425 300.748666 
L 292.926357 300.746369 
L 293.133479 300.51852 
L 294.450183 298.77436 
L 296.289623 297.035142 
L 299.357001 294.402163 
L 303.178895 291.164254 
L 303.879164 290.226951 
L 304.29834 289.296262 
L 304.559708 288.154143 
L 304.707652 286.410963 
L 304.761898 283.247652 
L 304.781624 250.293515 
L 304.835871 77.523065 
L 304.919706 167.586341 
L 305.131759 287.724125 
L 305.319155 298.19282 
L 305.526277 299.985753 
L 305.718605 300.214381 
L 305.925727 300.090119 
L 307.617223 298.501547 
L 307.77503 307.36683 
L 308.120233 313.917697 
L 308.623244 319.462139 
L 309.180501 323.311557 
L 309.752552 325.828609 
L 310.319672 327.394991 
L 310.867065 328.302397 
L 311.394733 328.776759 
L 311.932264 328.969583 
L 312.528973 328.942583 
L 313.293351 328.669437 
L 314.511426 327.963231 
L 317.36675 326.269603 
L 317.480174 326.214807 
L 317.485106 324.238364 
L 317.593598 324.449497 
L 317.948665 324.8142 
L 318.427018 324.979672 
L 319.285094 325.002091 
L 321.440149 324.779345 
L 325.483959 324.405712 
L 329.769412 324.267286 
L 337.211009 324.236032 
L 337.368816 312.231182 
L 337.768265 300.835059 
L 338.157852 288.879715 
L 338.177578 283.346646 
L 338.236756 68.208411 
L 338.330454 182.151358 
L 338.527713 285.240702 
L 338.705246 294.471381 
L 338.789081 294.897054 
L 338.843327 294.787826 
L 338.991271 293.764648 
L 339.326612 289.659953 
L 339.509076 285.005512 
L 339.543597 277.207037 
L 339.602774 72.84576 
L 339.68661 174.743827 
L 339.898663 300.012856 
L 340.066333 306.758604 
L 340.095922 306.823804 
L 340.150168 306.664324 
L 340.312907 305.144727 
L 341.979746 284.197908 
L 342.009335 279.430932 
L 342.073444 75.381773 
L 342.181936 200.311616 
L 342.374264 292.687275 
L 342.551797 300.305788 
L 342.630701 300.603584 
L 342.684947 300.506056 
L 342.847685 299.579883 
L 344.716715 285.20453 
L 344.790687 281.885136 
L 344.810413 262.498714 
L 344.86959 77.860008 
L 344.948494 165.863636 
L 345.160548 289.381026 
L 345.338081 298.340819 
L 345.461368 298.965443 
L 345.495888 298.936862 
L 345.619175 298.521293 
L 346.122185 295.638694 
L 346.891496 291.941954 
L 347.90738 287.207044 
L 348.124364 284.921078 
L 348.203268 281.748089 
L 348.222994 266.790752 
L 348.282172 79.773391 
L 348.361075 161.585703 
L 348.573129 286.888391 
L 348.755593 296.532902 
L 348.923264 297.406641 
L 348.928195 297.405522 
L 349.021893 297.254502 
L 349.288193 296.231749 
L 350.249831 292.49279 
L 351.699684 287.401304 
L 351.95119 285.400211 
L 352.059682 282.589023 
L 352.084339 277.119116 
L 352.15338 81.10939 
L 352.242147 177.183746 
L 352.449269 286.7674 
L 352.631733 295.602741 
L 352.809266 296.551096 
L 352.902964 296.467771 
L 353.129812 295.808613 
L 354.333092 291.994939 
L 355.590619 288.315704 
L 355.945685 286.47563 
L 356.123218 284.326206 
L 356.187327 280.144602 
L 356.211985 222.867261 
L 356.261299 81.845173 
L 356.335272 157.727484 
L 356.547325 284.51491 
L 356.72979 294.818541 
L 356.917186 296.058361 
L 357.005952 296.038124 
L 357.025678 296.011864 
L 357.237732 295.489697 
L 358.677723 291.459285 
L 359.683744 288.713245 
L 360.088125 286.939416 
L 360.300178 285.007782 
L 360.388945 281.960082 
L 360.40867 273.031381 
L 360.47278 82.388767 
L 360.546752 156.295808 
L 360.763737 284.501266 
L 360.946201 294.472694 
L 361.133597 295.741872 
L 361.222364 295.746719 
L 361.251953 295.7137 
L 361.459075 295.249778 
L 363.116051 290.951274 
L 363.94947 288.68068 
L 364.353851 286.917884 
L 364.565905 284.964516 
L 364.64974 282.130168 
L 364.669466 275.682682 
L 364.733575 82.853584 
L 364.81741 165.874152 
L 365.029463 284.64174 
L 365.216859 294.360444 
L 365.404255 295.552888 
L 365.497953 295.555004 
L 365.522611 295.528425 
L 365.729733 295.089447 
L 366.799863 292.289124 
L 366.95767 304.148856 
L 367.288079 312.328472 
L 367.766432 318.984426 
L 368.308895 323.615432 
L 368.866151 326.599739 
L 369.418477 328.440859 
L 369.951076 329.501913 
L 370.454087 330.047851 
L 370.947234 330.272001 
L 371.474902 330.266786 
L 372.125857 330.023516 
L 373.067769 329.407572 
L 376.662814 326.771815 
L 376.667746 324.238364 
L 376.776238 324.449497 
L 377.131305 324.8142 
L 377.609658 324.979672 
L 378.467735 325.002091 
L 380.622789 324.779345 
L 384.6666 324.405712 
L 388.952052 324.267286 
L 396.393649 324.236032 
L 396.551456 309.217243 
L 397.074192 282.581625 
L 397.13337 68.458979 
L 397.227068 183.648296 
L 397.419396 281.849978 
L 397.591997 290.258855 
L 397.631449 290.386188 
L 397.685695 290.186773 
L 397.828708 288.461184 
L 398.016104 283.524238 
L 398.060488 275.710778 
L 398.124597 76.733759 
L 398.208432 183.195618 
L 398.415554 302.033683 
L 398.563498 306.875263 
L 398.573361 306.862283 
L 398.642402 306.363872 
L 398.879113 302.464646 
L 399.737189 284.105574 
L 399.776641 276.358863 
L 399.835819 76.05981 
L 399.924585 180.025969 
L 400.131707 295.637744 
L 400.299378 301.926688 
L 400.314172 301.937895 
L 400.353624 301.81628 
L 400.491705 300.436875 
L 401.196906 289.781824 
L 401.492795 283.366124 
L 401.537178 276.161594 
L 401.601287 78.513693 
L 401.690054 182.061351 
L 401.897176 294.252297 
L 402.064846 300.488928 
L 402.089503 300.523634 
L 402.138818 300.369624 
L 402.301557 298.828534 
L 403.277989 285.831855 
L 403.421002 281.239622 
L 403.445659 267.301694 
L 403.504837 80.219503 
L 403.58374 166.880194 
L 403.795794 291.561302 
L 403.968396 298.914911 
L 404.007847 299.01969 
L 404.067025 298.854878 
L 404.244558 297.342503 
L 405.334414 284.682457 
L 405.447838 280.737975 
L 405.467564 274.482179 
L 405.531673 81.339124 
L 405.615508 172.57589 
L 405.827562 290.825403 
L 406.000163 297.822052 
L 406.049478 297.958083 
L 406.108656 297.807534 
L 406.286189 296.473962 
L 407.464812 284.475776 
L 407.583167 280.891084 
L 407.607825 273.372453 
L 407.671934 82.07925 
L 407.750837 166.019894 
L 407.962891 289.089042 
L 408.135492 296.882148 
L 408.204533 297.125352 
L 408.258779 297.005375 
L 408.431381 295.870032 
L 409.654387 284.871234 
L 409.807263 281.371505 
L 409.836852 277.105209 
L 409.871372 148.049776 
L 409.905892 82.556245 
L 409.979864 159.487722 
L 410.196849 288.217143 
L 410.374382 296.25422 
L 410.448355 296.521908 
L 410.502601 296.417004 
L 410.670271 295.421564 
L 411.913003 285.261708 
L 412.095467 282.064678 
L 412.139851 278.12804 
L 412.164508 218.405989 
L 412.213823 82.983585 
L 412.287795 161.093503 
L 412.50478 287.815832 
L 412.682313 295.777949 
L 412.761217 296.083142 
L 412.815463 295.992182 
L 412.978202 295.105221 
L 414.201208 285.830861 
L 414.428056 282.73867 
L 414.492165 279.211381 
L 414.511891 249.551093 
L 414.571068 83.165718 
L 414.649972 166.461132 
L 414.862025 287.35725 
L 415.039558 295.438503 
L 415.128325 295.784321 
L 415.17764 295.703304 
L 415.335447 294.89777 
L 416.51407 286.425967 
L 416.795164 283.250036 
L 416.878999 279.947217 
L 416.898725 268.992857 
L 416.962834 83.236657 
L 417.036806 159.670211 
L 417.253791 286.892631 
L 417.431324 295.177174 
L 417.525022 295.565018 
L 417.574337 295.490142 
L 417.732144 294.718143 
L 418.876247 286.776354 
L 419.191861 283.565938 
L 419.290491 280.361636 
L 419.315148 267.057197 
L 419.379257 83.373615 
L 419.453229 160.167578 
L 419.670214 286.851662 
L 419.847747 295.041745 
L 419.941445 295.437511 
L 419.99076 295.36913 
L 420.143636 294.65098 
L 421.189109 287.572406 
L 421.588558 284.056823 
L 421.711845 280.998454 
L 421.741434 274.678614 
L 421.805543 83.423255 
L 421.89431 172.776361 
L 422.106363 287.478489 
L 422.283896 295.010816 
L 422.372663 295.354922 
L 422.421978 295.288182 
L 422.574853 294.581312 
L 423.6006 287.722695 
L 424.019776 284.141245 
L 424.147994 281.10787 
L 424.177583 276.210685 
L 424.246624 83.387597 
L 424.350185 192.124662 
L 424.552375 288.057271 
L 424.729908 294.945664 
L 424.818675 295.247191 
L 424.86799 295.17218 
L 425.025797 294.434965 
L 425.982503 288.110749 
L 426.14031 302.7021 
L 426.460856 311.990142 
L 426.924415 319.296271 
L 427.452083 324.31754 
L 427.999477 327.546698 
L 428.541939 329.515224 
L 429.059744 330.626271 
L 429.54796 331.189262 
L 430.01645 331.409221 
L 430.509598 331.39537 
L 431.111238 331.142902 
L 431.969315 330.516457 
L 435.845455 327.258958 
L 435.845455 327.258958 
" style="fill:none;stroke:#ff0000;stroke-linecap:square;stroke-width:1.5;"/>
   </g>
   <g id="patch_3">
    <path d="M 63 384.48 
L 63 51.84 
" style="fill:none;stroke:#000000;stroke-linecap:square;stroke-linejoin:miter;stroke-width:0.8;"/>
   </g>
   <g id="patch_4">
    <path d="M 453.6 384.48 
L 453.6 51.84 
" style="fill:none;stroke:#000000;stroke-linecap:square;stroke-linejoin:miter;stroke-width:0.8;"/>
   </g>
   <g id="patch_5">
    <path d="M 63 384.48 
L 453.6 384.48 
" style="fill:none;stroke:#000000;stroke-linecap:square;stroke-linejoin:miter;stroke-width:0.8;"/>
   </g>
   <g id="patch_6">
    <path d="M 63 51.84 
L 453.6 51.84 
" style="fill:none;stroke:#000000;stroke-linecap:square;stroke-linejoin:miter;stroke-width:0.8;"/>
   </g>
   <g id="legend_1">
    <g id="patch_7">
     <path d="M 70 74.518125 
L 133.139062 74.518125 
Q 135.139062 74.518125 135.139062 72.518125 
L 135.139062 58.84 
Q 135.139062 56.84 133.139062 56.84 
L 70 56.84 
Q 68 56.84 68 58.84 
L 68 72.518125 
Q 68 74.518125 70 74.518125 
z
" style="fill:#ffffff;opacity:0.8;stroke:#cccccc;stroke-linejoin:miter;"/>
    </g>
    <g id="line2d_14">
     <path d="M 72 64.938438 
L 92 64.938438 
" style="fill:none;stroke:#ff0000;stroke-linecap:square;stroke-width:1.5;"/>
    </g>
    <g id="line2d_15"/>
    <g id="text_15">
     <!-- model -->
     <defs>
      <path d="M 45.40625 46.390625 
L 45.40625 75.984375 
L 54.390625 75.984375 
L 54.390625 0 
L 45.40625 0 
L 45.40625 8.203125 
Q 42.578125 3.328125 38.25 0.953125 
Q 33.9375 -1.421875 27.875 -1.421875 
Q 17.96875 -1.421875 11.734375 6.484375 
Q 5.515625 14.40625 5.515625 27.296875 
Q 5.515625 40.1875 11.734375 48.09375 
Q 17.96875 56 27.875 56 
Q 33.9375 56 38.25 53.625 
Q 42.578125 51.265625 45.40625 46.390625 
z
M 14.796875 27.296875 
Q 14.796875 17.390625 18.875 11.75 
Q 22.953125 6.109375 30.078125 6.109375 
Q 37.203125 6.109375 41.296875 11.75 
Q 45.40625 17.390625 45.40625 27.296875 
Q 45.40625 37.203125 41.296875 42.84375 
Q 37.203125 48.484375 30.078125 48.484375 
Q 22.953125 48.484375 18.875 42.84375 
Q 14.796875 37.203125 14.796875 27.296875 
z
" id="DejaVuSans-64"/>
     </defs>
     <g transform="translate(100 68.438438)scale(0.1 -0.1)">
      <use xlink:href="#DejaVuSans-6d"/>
      <use x="97.412109" xlink:href="#DejaVuSans-6f"/>
      <use x="158.59375" xlink:href="#DejaVuSans-64"/>
      <use x="222.070312" xlink:href="#DejaVuSans-65"/>
      <use x="283.59375" xlink:href="#DejaVuSans-6c"/>
     </g>
    </g>
   </g>
  </g>
 </g>
 <defs>
  <clipPath id="pf26aebc6cb">
   <rect height="332.64" width="390.6" x="63" y="51.84"/>
  </clipPath>
 </defs>
</svg>
