<?xml version="1.0" encoding="utf-8" standalone="no"?>
<!DOCTYPE svg PUBLIC "-//W3C//DTD SVG 1.1//EN"
  "http://www.w3.org/Graphics/SVG/1.1/DTD/svg11.dtd">
<!-- Created with matplotlib (https://matplotlib.org/) -->
<svg height="432pt" version="1.1" viewBox="0 0 504 432" width="504pt" xmlns="http://www.w3.org/2000/svg" xmlns:xlink="http://www.w3.org/1999/xlink">
 <defs>
  <style type="text/css">
*{stroke-linecap:butt;stroke-linejoin:round;}
  </style>
 </defs>
 <g id="figure_1">
  <g id="patch_1">
   <path d="M 0 432 
L 504 432 
L 504 0 
L 0 0 
z
" style="fill:#ffffff;"/>
  </g>
  <g id="axes_1">
   <g id="patch_2">
    <path d="M 63 384.48 
L 453.6 384.48 
L 453.6 51.84 
L 63 51.84 
z
" style="fill:#ffffff;"/>
   </g>
   <g id="matplotlib.axis_1">
    <g id="xtick_1">
     <g id="line2d_1">
      <defs>
       <path d="M 0 0 
L 0 3.5 
" id="m708614024f" style="stroke:#000000;stroke-width:0.8;"/>
      </defs>
      <g>
       <use style="stroke:#000000;stroke-width:0.8;" x="80.754545" xlink:href="#m708614024f" y="384.48"/>
      </g>
     </g>
     <g id="text_1">
      <!-- 0 -->
      <defs>
       <path d="M 31.78125 66.40625 
Q 24.171875 66.40625 20.328125 58.90625 
Q 16.5 51.421875 16.5 36.375 
Q 16.5 21.390625 20.328125 13.890625 
Q 24.171875 6.390625 31.78125 6.390625 
Q 39.453125 6.390625 43.28125 13.890625 
Q 47.125 21.390625 47.125 36.375 
Q 47.125 51.421875 43.28125 58.90625 
Q 39.453125 66.40625 31.78125 66.40625 
z
M 31.78125 74.21875 
Q 44.046875 74.21875 50.515625 64.515625 
Q 56.984375 54.828125 56.984375 36.375 
Q 56.984375 17.96875 50.515625 8.265625 
Q 44.046875 -1.421875 31.78125 -1.421875 
Q 19.53125 -1.421875 13.0625 8.265625 
Q 6.59375 17.96875 6.59375 36.375 
Q 6.59375 54.828125 13.0625 64.515625 
Q 19.53125 74.21875 31.78125 74.21875 
z
" id="DejaVuSans-48"/>
      </defs>
      <g transform="translate(77.573295 399.078438)scale(0.1 -0.1)">
       <use xlink:href="#DejaVuSans-48"/>
      </g>
     </g>
    </g>
    <g id="xtick_2">
     <g id="line2d_2">
      <g>
       <use style="stroke:#000000;stroke-width:0.8;" x="151.772727" xlink:href="#m708614024f" y="384.48"/>
      </g>
     </g>
     <g id="text_2">
      <!-- 200 -->
      <defs>
       <path d="M 19.1875 8.296875 
L 53.609375 8.296875 
L 53.609375 0 
L 7.328125 0 
L 7.328125 8.296875 
Q 12.9375 14.109375 22.625 23.890625 
Q 32.328125 33.6875 34.8125 36.53125 
Q 39.546875 41.84375 41.421875 45.53125 
Q 43.3125 49.21875 43.3125 52.78125 
Q 43.3125 58.59375 39.234375 62.25 
Q 35.15625 65.921875 28.609375 65.921875 
Q 23.96875 65.921875 18.8125 64.3125 
Q 13.671875 62.703125 7.8125 59.421875 
L 7.8125 69.390625 
Q 13.765625 71.78125 18.9375 73 
Q 24.125 74.21875 28.421875 74.21875 
Q 39.75 74.21875 46.484375 68.546875 
Q 53.21875 62.890625 53.21875 53.421875 
Q 53.21875 48.921875 51.53125 44.890625 
Q 49.859375 40.875 45.40625 35.40625 
Q 44.1875 33.984375 37.640625 27.21875 
Q 31.109375 20.453125 19.1875 8.296875 
z
" id="DejaVuSans-50"/>
      </defs>
      <g transform="translate(142.228977 399.078438)scale(0.1 -0.1)">
       <use xlink:href="#DejaVuSans-50"/>
       <use x="63.623047" xlink:href="#DejaVuSans-48"/>
       <use x="127.246094" xlink:href="#DejaVuSans-48"/>
      </g>
     </g>
    </g>
    <g id="xtick_3">
     <g id="line2d_3">
      <g>
       <use style="stroke:#000000;stroke-width:0.8;" x="222.790909" xlink:href="#m708614024f" y="384.48"/>
      </g>
     </g>
     <g id="text_3">
      <!-- 400 -->
      <defs>
       <path d="M 37.796875 64.3125 
L 12.890625 25.390625 
L 37.796875 25.390625 
z
M 35.203125 72.90625 
L 47.609375 72.90625 
L 47.609375 25.390625 
L 58.015625 25.390625 
L 58.015625 17.1875 
L 47.609375 17.1875 
L 47.609375 0 
L 37.796875 0 
L 37.796875 17.1875 
L 4.890625 17.1875 
L 4.890625 26.703125 
z
" id="DejaVuSans-52"/>
      </defs>
      <g transform="translate(213.247159 399.078438)scale(0.1 -0.1)">
       <use xlink:href="#DejaVuSans-52"/>
       <use x="63.623047" xlink:href="#DejaVuSans-48"/>
       <use x="127.246094" xlink:href="#DejaVuSans-48"/>
      </g>
     </g>
    </g>
    <g id="xtick_4">
     <g id="line2d_4">
      <g>
       <use style="stroke:#000000;stroke-width:0.8;" x="293.809091" xlink:href="#m708614024f" y="384.48"/>
      </g>
     </g>
     <g id="text_4">
      <!-- 600 -->
      <defs>
       <path d="M 33.015625 40.375 
Q 26.375 40.375 22.484375 35.828125 
Q 18.609375 31.296875 18.609375 23.390625 
Q 18.609375 15.53125 22.484375 10.953125 
Q 26.375 6.390625 33.015625 6.390625 
Q 39.65625 6.390625 43.53125 10.953125 
Q 47.40625 15.53125 47.40625 23.390625 
Q 47.40625 31.296875 43.53125 35.828125 
Q 39.65625 40.375 33.015625 40.375 
z
M 52.59375 71.296875 
L 52.59375 62.3125 
Q 48.875 64.0625 45.09375 64.984375 
Q 41.3125 65.921875 37.59375 65.921875 
Q 27.828125 65.921875 22.671875 59.328125 
Q 17.53125 52.734375 16.796875 39.40625 
Q 19.671875 43.65625 24.015625 45.921875 
Q 28.375 48.1875 33.59375 48.1875 
Q 44.578125 48.1875 50.953125 41.515625 
Q 57.328125 34.859375 57.328125 23.390625 
Q 57.328125 12.15625 50.6875 5.359375 
Q 44.046875 -1.421875 33.015625 -1.421875 
Q 20.359375 -1.421875 13.671875 8.265625 
Q 6.984375 17.96875 6.984375 36.375 
Q 6.984375 53.65625 15.1875 63.9375 
Q 23.390625 74.21875 37.203125 74.21875 
Q 40.921875 74.21875 44.703125 73.484375 
Q 48.484375 72.75 52.59375 71.296875 
z
" id="DejaVuSans-54"/>
      </defs>
      <g transform="translate(284.265341 399.078438)scale(0.1 -0.1)">
       <use xlink:href="#DejaVuSans-54"/>
       <use x="63.623047" xlink:href="#DejaVuSans-48"/>
       <use x="127.246094" xlink:href="#DejaVuSans-48"/>
      </g>
     </g>
    </g>
    <g id="xtick_5">
     <g id="line2d_5">
      <g>
       <use style="stroke:#000000;stroke-width:0.8;" x="364.827273" xlink:href="#m708614024f" y="384.48"/>
      </g>
     </g>
     <g id="text_5">
      <!-- 800 -->
      <defs>
       <path d="M 31.78125 34.625 
Q 24.75 34.625 20.71875 30.859375 
Q 16.703125 27.09375 16.703125 20.515625 
Q 16.703125 13.921875 20.71875 10.15625 
Q 24.75 6.390625 31.78125 6.390625 
Q 38.8125 6.390625 42.859375 10.171875 
Q 46.921875 13.96875 46.921875 20.515625 
Q 46.921875 27.09375 42.890625 30.859375 
Q 38.875 34.625 31.78125 34.625 
z
M 21.921875 38.8125 
Q 15.578125 40.375 12.03125 44.71875 
Q 8.5 49.078125 8.5 55.328125 
Q 8.5 64.0625 14.71875 69.140625 
Q 20.953125 74.21875 31.78125 74.21875 
Q 42.671875 74.21875 48.875 69.140625 
Q 55.078125 64.0625 55.078125 55.328125 
Q 55.078125 49.078125 51.53125 44.71875 
Q 48 40.375 41.703125 38.8125 
Q 48.828125 37.15625 52.796875 32.3125 
Q 56.78125 27.484375 56.78125 20.515625 
Q 56.78125 9.90625 50.3125 4.234375 
Q 43.84375 -1.421875 31.78125 -1.421875 
Q 19.734375 -1.421875 13.25 4.234375 
Q 6.78125 9.90625 6.78125 20.515625 
Q 6.78125 27.484375 10.78125 32.3125 
Q 14.796875 37.15625 21.921875 38.8125 
z
M 18.3125 54.390625 
Q 18.3125 48.734375 21.84375 45.5625 
Q 25.390625 42.390625 31.78125 42.390625 
Q 38.140625 42.390625 41.71875 45.5625 
Q 45.3125 48.734375 45.3125 54.390625 
Q 45.3125 60.0625 41.71875 63.234375 
Q 38.140625 66.40625 31.78125 66.40625 
Q 25.390625 66.40625 21.84375 63.234375 
Q 18.3125 60.0625 18.3125 54.390625 
z
" id="DejaVuSans-56"/>
      </defs>
      <g transform="translate(355.283523 399.078438)scale(0.1 -0.1)">
       <use xlink:href="#DejaVuSans-56"/>
       <use x="63.623047" xlink:href="#DejaVuSans-48"/>
       <use x="127.246094" xlink:href="#DejaVuSans-48"/>
      </g>
     </g>
    </g>
    <g id="text_6">
     <!-- time [ms] -->
     <defs>
      <path d="M 18.3125 70.21875 
L 18.3125 54.6875 
L 36.8125 54.6875 
L 36.8125 47.703125 
L 18.3125 47.703125 
L 18.3125 18.015625 
Q 18.3125 11.328125 20.140625 9.421875 
Q 21.96875 7.515625 27.59375 7.515625 
L 36.8125 7.515625 
L 36.8125 0 
L 27.59375 0 
Q 17.1875 0 13.234375 3.875 
Q 9.28125 7.765625 9.28125 18.015625 
L 9.28125 47.703125 
L 2.6875 47.703125 
L 2.6875 54.6875 
L 9.28125 54.6875 
L 9.28125 70.21875 
z
" id="DejaVuSans-116"/>
      <path d="M 9.421875 54.6875 
L 18.40625 54.6875 
L 18.40625 0 
L 9.421875 0 
z
M 9.421875 75.984375 
L 18.40625 75.984375 
L 18.40625 64.59375 
L 9.421875 64.59375 
z
" id="DejaVuSans-105"/>
      <path d="M 52 44.1875 
Q 55.375 50.25 60.0625 53.125 
Q 64.75 56 71.09375 56 
Q 79.640625 56 84.28125 50.015625 
Q 88.921875 44.046875 88.921875 33.015625 
L 88.921875 0 
L 79.890625 0 
L 79.890625 32.71875 
Q 79.890625 40.578125 77.09375 44.375 
Q 74.3125 48.1875 68.609375 48.1875 
Q 61.625 48.1875 57.5625 43.546875 
Q 53.515625 38.921875 53.515625 30.90625 
L 53.515625 0 
L 44.484375 0 
L 44.484375 32.71875 
Q 44.484375 40.625 41.703125 44.40625 
Q 38.921875 48.1875 33.109375 48.1875 
Q 26.21875 48.1875 22.15625 43.53125 
Q 18.109375 38.875 18.109375 30.90625 
L 18.109375 0 
L 9.078125 0 
L 9.078125 54.6875 
L 18.109375 54.6875 
L 18.109375 46.1875 
Q 21.1875 51.21875 25.484375 53.609375 
Q 29.78125 56 35.6875 56 
Q 41.65625 56 45.828125 52.96875 
Q 50 49.953125 52 44.1875 
z
" id="DejaVuSans-109"/>
      <path d="M 56.203125 29.59375 
L 56.203125 25.203125 
L 14.890625 25.203125 
Q 15.484375 15.921875 20.484375 11.0625 
Q 25.484375 6.203125 34.421875 6.203125 
Q 39.59375 6.203125 44.453125 7.46875 
Q 49.3125 8.734375 54.109375 11.28125 
L 54.109375 2.78125 
Q 49.265625 0.734375 44.1875 -0.34375 
Q 39.109375 -1.421875 33.890625 -1.421875 
Q 20.796875 -1.421875 13.15625 6.1875 
Q 5.515625 13.8125 5.515625 26.8125 
Q 5.515625 40.234375 12.765625 48.109375 
Q 20.015625 56 32.328125 56 
Q 43.359375 56 49.78125 48.890625 
Q 56.203125 41.796875 56.203125 29.59375 
z
M 47.21875 32.234375 
Q 47.125 39.59375 43.09375 43.984375 
Q 39.0625 48.390625 32.421875 48.390625 
Q 24.90625 48.390625 20.390625 44.140625 
Q 15.875 39.890625 15.1875 32.171875 
z
" id="DejaVuSans-101"/>
      <path id="DejaVuSans-32"/>
      <path d="M 8.59375 75.984375 
L 29.296875 75.984375 
L 29.296875 69 
L 17.578125 69 
L 17.578125 -6.203125 
L 29.296875 -6.203125 
L 29.296875 -13.1875 
L 8.59375 -13.1875 
z
" id="DejaVuSans-91"/>
      <path d="M 44.28125 53.078125 
L 44.28125 44.578125 
Q 40.484375 46.53125 36.375 47.5 
Q 32.28125 48.484375 27.875 48.484375 
Q 21.1875 48.484375 17.84375 46.4375 
Q 14.5 44.390625 14.5 40.28125 
Q 14.5 37.15625 16.890625 35.375 
Q 19.28125 33.59375 26.515625 31.984375 
L 29.59375 31.296875 
Q 39.15625 29.25 43.1875 25.515625 
Q 47.21875 21.78125 47.21875 15.09375 
Q 47.21875 7.46875 41.1875 3.015625 
Q 35.15625 -1.421875 24.609375 -1.421875 
Q 20.21875 -1.421875 15.453125 -0.5625 
Q 10.6875 0.296875 5.421875 2 
L 5.421875 11.28125 
Q 10.40625 8.6875 15.234375 7.390625 
Q 20.0625 6.109375 24.8125 6.109375 
Q 31.15625 6.109375 34.5625 8.28125 
Q 37.984375 10.453125 37.984375 14.40625 
Q 37.984375 18.0625 35.515625 20.015625 
Q 33.0625 21.96875 24.703125 23.78125 
L 21.578125 24.515625 
Q 13.234375 26.265625 9.515625 29.90625 
Q 5.8125 33.546875 5.8125 39.890625 
Q 5.8125 47.609375 11.28125 51.796875 
Q 16.75 56 26.8125 56 
Q 31.78125 56 36.171875 55.265625 
Q 40.578125 54.546875 44.28125 53.078125 
z
" id="DejaVuSans-115"/>
      <path d="M 30.421875 75.984375 
L 30.421875 -13.1875 
L 9.71875 -13.1875 
L 9.71875 -6.203125 
L 21.390625 -6.203125 
L 21.390625 69 
L 9.71875 69 
L 9.71875 75.984375 
z
" id="DejaVuSans-93"/>
     </defs>
     <g transform="translate(234.038281 412.756563)scale(0.1 -0.1)">
      <use xlink:href="#DejaVuSans-116"/>
      <use x="39.208984" xlink:href="#DejaVuSans-105"/>
      <use x="66.992188" xlink:href="#DejaVuSans-109"/>
      <use x="164.404297" xlink:href="#DejaVuSans-101"/>
      <use x="225.927734" xlink:href="#DejaVuSans-32"/>
      <use x="257.714844" xlink:href="#DejaVuSans-91"/>
      <use x="296.728516" xlink:href="#DejaVuSans-109"/>
      <use x="394.140625" xlink:href="#DejaVuSans-115"/>
      <use x="446.240234" xlink:href="#DejaVuSans-93"/>
     </g>
    </g>
   </g>
   <g id="matplotlib.axis_2">
    <g id="ytick_1">
     <g id="line2d_6">
      <defs>
       <path d="M 0 0 
L -3.5 0 
" id="meeb54ca214" style="stroke:#000000;stroke-width:0.8;"/>
      </defs>
      <g>
       <use style="stroke:#000000;stroke-width:0.8;" x="63" xlink:href="#meeb54ca214" y="346.841423"/>
      </g>
     </g>
     <g id="text_7">
      <!-- −60 -->
      <defs>
       <path d="M 10.59375 35.5 
L 73.1875 35.5 
L 73.1875 27.203125 
L 10.59375 27.203125 
z
" id="DejaVuSans-8722"/>
      </defs>
      <g transform="translate(34.895313 350.640642)scale(0.1 -0.1)">
       <use xlink:href="#DejaVuSans-8722"/>
       <use x="83.789062" xlink:href="#DejaVuSans-54"/>
       <use x="147.412109" xlink:href="#DejaVuSans-48"/>
      </g>
     </g>
    </g>
    <g id="ytick_2">
     <g id="line2d_7">
      <g>
       <use style="stroke:#000000;stroke-width:0.8;" x="63" xlink:href="#meeb54ca214" y="280.029516"/>
      </g>
     </g>
     <g id="text_8">
      <!-- −40 -->
      <g transform="translate(34.895313 283.828735)scale(0.1 -0.1)">
       <use xlink:href="#DejaVuSans-8722"/>
       <use x="83.789062" xlink:href="#DejaVuSans-52"/>
       <use x="147.412109" xlink:href="#DejaVuSans-48"/>
      </g>
     </g>
    </g>
    <g id="ytick_3">
     <g id="line2d_8">
      <g>
       <use style="stroke:#000000;stroke-width:0.8;" x="63" xlink:href="#meeb54ca214" y="213.21761"/>
      </g>
     </g>
     <g id="text_9">
      <!-- −20 -->
      <g transform="translate(34.895313 217.016828)scale(0.1 -0.1)">
       <use xlink:href="#DejaVuSans-8722"/>
       <use x="83.789062" xlink:href="#DejaVuSans-50"/>
       <use x="147.412109" xlink:href="#DejaVuSans-48"/>
      </g>
     </g>
    </g>
    <g id="ytick_4">
     <g id="line2d_9">
      <g>
       <use style="stroke:#000000;stroke-width:0.8;" x="63" xlink:href="#meeb54ca214" y="146.405703"/>
      </g>
     </g>
     <g id="text_10">
      <!-- 0 -->
      <g transform="translate(49.6375 150.204922)scale(0.1 -0.1)">
       <use xlink:href="#DejaVuSans-48"/>
      </g>
     </g>
    </g>
    <g id="ytick_5">
     <g id="line2d_10">
      <g>
       <use style="stroke:#000000;stroke-width:0.8;" x="63" xlink:href="#meeb54ca214" y="79.593796"/>
      </g>
     </g>
     <g id="text_11">
      <!-- 20 -->
      <g transform="translate(43.275 83.393015)scale(0.1 -0.1)">
       <use xlink:href="#DejaVuSans-50"/>
       <use x="63.623047" xlink:href="#DejaVuSans-48"/>
      </g>
     </g>
    </g>
    <g id="text_12">
     <!-- voltage [V] -->
     <defs>
      <path d="M 2.984375 54.6875 
L 12.5 54.6875 
L 29.59375 8.796875 
L 46.6875 54.6875 
L 56.203125 54.6875 
L 35.6875 0 
L 23.484375 0 
z
" id="DejaVuSans-118"/>
      <path d="M 30.609375 48.390625 
Q 23.390625 48.390625 19.1875 42.75 
Q 14.984375 37.109375 14.984375 27.296875 
Q 14.984375 17.484375 19.15625 11.84375 
Q 23.34375 6.203125 30.609375 6.203125 
Q 37.796875 6.203125 41.984375 11.859375 
Q 46.1875 17.53125 46.1875 27.296875 
Q 46.1875 37.015625 41.984375 42.703125 
Q 37.796875 48.390625 30.609375 48.390625 
z
M 30.609375 56 
Q 42.328125 56 49.015625 48.375 
Q 55.71875 40.765625 55.71875 27.296875 
Q 55.71875 13.875 49.015625 6.21875 
Q 42.328125 -1.421875 30.609375 -1.421875 
Q 18.84375 -1.421875 12.171875 6.21875 
Q 5.515625 13.875 5.515625 27.296875 
Q 5.515625 40.765625 12.171875 48.375 
Q 18.84375 56 30.609375 56 
z
" id="DejaVuSans-111"/>
      <path d="M 9.421875 75.984375 
L 18.40625 75.984375 
L 18.40625 0 
L 9.421875 0 
z
" id="DejaVuSans-108"/>
      <path d="M 34.28125 27.484375 
Q 23.390625 27.484375 19.1875 25 
Q 14.984375 22.515625 14.984375 16.5 
Q 14.984375 11.71875 18.140625 8.90625 
Q 21.296875 6.109375 26.703125 6.109375 
Q 34.1875 6.109375 38.703125 11.40625 
Q 43.21875 16.703125 43.21875 25.484375 
L 43.21875 27.484375 
z
M 52.203125 31.203125 
L 52.203125 0 
L 43.21875 0 
L 43.21875 8.296875 
Q 40.140625 3.328125 35.546875 0.953125 
Q 30.953125 -1.421875 24.3125 -1.421875 
Q 15.921875 -1.421875 10.953125 3.296875 
Q 6 8.015625 6 15.921875 
Q 6 25.140625 12.171875 29.828125 
Q 18.359375 34.515625 30.609375 34.515625 
L 43.21875 34.515625 
L 43.21875 35.40625 
Q 43.21875 41.609375 39.140625 45 
Q 35.0625 48.390625 27.6875 48.390625 
Q 23 48.390625 18.546875 47.265625 
Q 14.109375 46.140625 10.015625 43.890625 
L 10.015625 52.203125 
Q 14.9375 54.109375 19.578125 55.046875 
Q 24.21875 56 28.609375 56 
Q 40.484375 56 46.34375 49.84375 
Q 52.203125 43.703125 52.203125 31.203125 
z
" id="DejaVuSans-97"/>
      <path d="M 45.40625 27.984375 
Q 45.40625 37.75 41.375 43.109375 
Q 37.359375 48.484375 30.078125 48.484375 
Q 22.859375 48.484375 18.828125 43.109375 
Q 14.796875 37.75 14.796875 27.984375 
Q 14.796875 18.265625 18.828125 12.890625 
Q 22.859375 7.515625 30.078125 7.515625 
Q 37.359375 7.515625 41.375 12.890625 
Q 45.40625 18.265625 45.40625 27.984375 
z
M 54.390625 6.78125 
Q 54.390625 -7.171875 48.1875 -13.984375 
Q 42 -20.796875 29.203125 -20.796875 
Q 24.46875 -20.796875 20.265625 -20.09375 
Q 16.0625 -19.390625 12.109375 -17.921875 
L 12.109375 -9.1875 
Q 16.0625 -11.328125 19.921875 -12.34375 
Q 23.78125 -13.375 27.78125 -13.375 
Q 36.625 -13.375 41.015625 -8.765625 
Q 45.40625 -4.15625 45.40625 5.171875 
L 45.40625 9.625 
Q 42.625 4.78125 38.28125 2.390625 
Q 33.9375 0 27.875 0 
Q 17.828125 0 11.671875 7.65625 
Q 5.515625 15.328125 5.515625 27.984375 
Q 5.515625 40.671875 11.671875 48.328125 
Q 17.828125 56 27.875 56 
Q 33.9375 56 38.28125 53.609375 
Q 42.625 51.21875 45.40625 46.390625 
L 45.40625 54.6875 
L 54.390625 54.6875 
z
" id="DejaVuSans-103"/>
      <path d="M 28.609375 0 
L 0.78125 72.90625 
L 11.078125 72.90625 
L 34.1875 11.53125 
L 57.328125 72.90625 
L 67.578125 72.90625 
L 39.796875 0 
z
" id="DejaVuSans-86"/>
     </defs>
     <g transform="translate(28.815625 245.75375)rotate(-90)scale(0.1 -0.1)">
      <use xlink:href="#DejaVuSans-118"/>
      <use x="59.179688" xlink:href="#DejaVuSans-111"/>
      <use x="120.361328" xlink:href="#DejaVuSans-108"/>
      <use x="148.144531" xlink:href="#DejaVuSans-116"/>
      <use x="187.353516" xlink:href="#DejaVuSans-97"/>
      <use x="248.632812" xlink:href="#DejaVuSans-103"/>
      <use x="312.109375" xlink:href="#DejaVuSans-101"/>
      <use x="373.632812" xlink:href="#DejaVuSans-32"/>
      <use x="405.419922" xlink:href="#DejaVuSans-91"/>
      <use x="444.433594" xlink:href="#DejaVuSans-86"/>
      <use x="512.841797" xlink:href="#DejaVuSans-93"/>
     </g>
    </g>
   </g>
   <g id="line2d_11">
    <path clip-path="url(#peb982239d3)" d="M 80.754545 363.544392 
L 81.695536 363.556316 
L 85.725818 363.974706 
L 98.5446 365.292087 
L 108.646936 366.086883 
L 119.477209 366.712906 
L 131.656827 367.188793 
L 145.878218 367.515021 
L 151.772727 367.596477 
L 151.8615 365.583337 
L 152.234345 357.380425 
L 152.731473 351.638999 
L 153.565936 344.855752 
L 154.9863 335.29759 
L 156.726245 325.114531 
L 158.412927 316.50441 
L 160.028591 309.371821 
L 161.590991 303.472294 
L 163.153391 298.446868 
L 164.840073 293.789737 
L 167.236936 287.908424 
L 168.941373 283.494341 
L 169.793591 280.681527 
L 170.361736 278.059025 
L 170.752336 275.217657 
L 171.036409 271.136121 
L 171.1962 263.940275 
L 171.249464 255.940281 
L 171.622309 69.291337 
L 171.675573 66.96 
L 171.746591 67.200065 
L 171.906382 79.977813 
L 172.190455 132.448026 
L 172.847373 250.25484 
L 173.220218 284.621637 
L 173.5398 296.946621 
L 173.912645 303.373579 
L 174.303245 306.736313 
L 174.782618 308.938321 
L 175.226482 310.047655 
L 175.6881 310.637409 
L 176.096455 310.8303 
L 176.522564 310.786762 
L 177.019691 310.494943 
L 177.676609 309.813152 
L 178.528827 308.581097 
L 179.771645 306.367102 
L 182.807673 300.338479 
L 185.470855 295.340333 
L 188.134036 290.841817 
L 192.199827 284.033377 
L 193.336118 281.612822 
L 194.117318 279.41107 
L 194.685464 277.087154 
L 195.093818 274.305221 
L 195.324627 271.359851 
L 195.502173 265.43384 
L 195.573191 256.239874 
L 195.626455 228.872916 
L 195.839509 97.648587 
L 196.017055 89.054404 
L 196.034809 89.013055 
L 196.176845 92.736519 
L 196.407655 109.740412 
L 196.744991 158.339457 
L 197.437418 255.51602 
L 197.810264 280.144476 
L 198.200864 291.817187 
L 198.591464 297.429286 
L 199.070836 301.110202 
L 199.550209 303.269444 
L 200.082845 304.757274 
L 200.650991 305.697461 
L 201.219136 306.188109 
L 201.787282 306.355441 
L 202.390936 306.270579 
L 203.083364 305.928459 
L 203.988845 305.202022 
L 205.231664 303.879473 
L 207.220173 301.386459 
L 212.9904 294.021307 
L 217.855145 288.350764 
L 220.4118 285.179618 
L 221.885427 283.004139 
L 222.915191 281.091959 
L 223.660882 279.248563 
L 224.229027 277.230201 
L 224.637382 274.913106 
L 224.9037 272.198672 
L 225.081245 268.45705 
L 225.205527 259.243625 
L 225.241036 245.792974 
L 225.525109 96.44801 
L 225.596127 94.107625 
L 225.667145 94.657163 
L 225.862445 102.546738 
L 226.164273 126.815903 
L 226.679155 195.571392 
L 227.229545 257.095909 
L 227.6379 278.378652 
L 228.046255 288.659017 
L 228.454609 294.005814 
L 228.933982 297.622039 
L 229.502127 300.220897 
L 230.105782 301.95203 
L 230.691682 303.018375 
L 231.313091 303.698245 
L 231.898991 304.031108 
L 232.538155 304.139158 
L 233.266091 304.02002 
L 234.136064 303.63229 
L 235.236845 302.880221 
L 236.781491 301.526972 
L 239.320391 298.966761 
L 247.416464 290.694686 
L 251.428991 286.530754 
L 253.328727 284.241573 
L 254.607055 282.3695 
L 255.548045 280.613461 
L 256.258227 278.821793 
L 256.790864 276.861419 
L 257.181464 274.53757 
L 257.447782 271.549447 
L 257.607573 267.619379 
L 257.696345 261.139356 
L 257.767364 238.070031 
L 257.998173 100.045595 
L 258.122455 94.797172 
L 258.157964 95.403341 
L 258.264491 98.867012 
L 258.566318 119.185802 
L 258.956918 163.374013 
L 259.755873 255.652005 
L 260.181982 277.487908 
L 260.590336 287.583995 
L 261.016445 292.947871 
L 261.495818 296.353126 
L 262.028455 298.685214 
L 262.649864 300.425936 
L 263.271273 301.539688 
L 263.892682 302.232521 
L 264.531845 302.626305 
L 265.206518 302.780155 
L 265.952209 302.715723 
L 266.839936 302.404582 
L 267.958473 301.760353 
L 269.449855 300.627244 
L 271.722436 298.597588 
L 281.185609 289.609736 
L 284.434691 286.331891 
L 286.281164 284.167026 
L 287.577245 282.316766 
L 288.518236 280.601241 
L 289.246173 278.803725 
L 289.778809 276.882476 
L 290.151655 274.753184 
L 290.435727 271.782201 
L 290.631027 266.669889 
L 290.7198 258.303721 
L 290.844082 161.352236 
L 291.003873 99.188149 
L 291.128155 95.089276 
L 291.163664 95.616749 
L 291.341209 103.038762 
L 291.643036 126.603672 
L 292.175673 192.267171 
L 292.761573 255.145084 
L 293.152173 275.614101 
L 293.560527 286.498392 
L 294.004391 292.414794 
L 294.483764 295.951744 
L 295.051909 298.475184 
L 295.673318 300.213896 
L 296.276973 301.304536 
L 296.916136 302.027878 
L 297.5553 302.429789 
L 298.247727 302.595781 
L 299.028927 302.532258 
L 299.952164 302.209529 
L 301.141718 301.522691 
L 302.686364 300.350979 
L 305.154245 298.162374 
L 315.451882 288.48944 
L 318.150573 285.702854 
L 319.837255 283.65255 
L 321.062318 281.809418 
L 321.950045 280.067301 
L 322.589209 278.345388 
L 323.068582 276.452171 
L 323.423673 274.183724 
L 323.672236 271.249374 
L 323.849782 265.733916 
L 323.938555 254.905871 
L 323.974064 234.414965 
L 324.204873 100.43016 
L 324.3114 94.872088 
L 324.346909 95.349149 
L 324.453436 98.354896 
L 324.755264 118.35293 
L 325.163618 163.809186 
L 325.962573 254.966202 
L 326.388682 276.887346 
L 326.797036 287.210899 
L 327.2409 292.851522 
L 327.738027 296.336105 
L 328.306173 298.726823 
L 328.927582 300.37741 
L 329.5845 301.478745 
L 330.223664 302.126123 
L 330.880582 302.477248 
L 331.555255 302.591049 
L 332.354209 302.484389 
L 333.2952 302.116473 
L 334.484755 301.39628 
L 336.135927 300.11138 
L 338.834618 297.687427 
L 350.179773 286.973128 
L 352.274809 284.657849 
L 353.677418 282.795031 
L 354.724936 281.042558 
L 355.506136 279.300192 
L 356.092036 277.43549 
L 356.518145 275.323594 
L 356.819973 272.696625 
L 357.015273 269.141969 
L 357.139555 262.752002 
L 357.210573 243.756314 
L 357.476891 97.870766 
L 357.565664 95.035281 
L 357.618927 95.617784 
L 357.778718 102.137393 
L 358.116055 128.659085 
L 358.648691 194.908609 
L 359.216836 255.393861 
L 359.625191 276.618175 
L 360.033545 287.177782 
L 360.459655 292.753272 
L 360.939027 296.235065 
L 361.453909 298.51672 
L 362.057564 300.226546 
L 362.678973 301.35407 
L 363.318136 302.070796 
L 363.975055 302.472618 
L 364.649727 302.624504 
L 364.862782 302.628605 
L 364.969309 304.827052 
L 365.306645 312.091661 
L 365.786018 317.214416 
L 366.460691 321.835521 
L 367.348418 326.370762 
L 368.395936 330.580821 
L 369.532227 334.272201 
L 370.775045 337.596281 
L 372.1599 340.672594 
L 373.633527 343.412063 
L 375.213682 345.89023 
L 376.900364 348.134292 
L 378.729082 350.205295 
L 380.735345 352.139923 
L 382.9014 353.919 
L 385.280509 355.583206 
L 387.890427 357.135965 
L 390.819927 358.613515 
L 394.051255 359.990112 
L 397.673182 361.287898 
L 401.721218 362.499718 
L 406.266382 363.62594 
L 411.361936 364.656778 
L 417.061145 365.579882 
L 423.417273 366.381375 
L 430.5546 367.053365 
L 435.8277 367.424489 
L 435.8277 367.424489 
" style="fill:none;stroke:#1f77b4;stroke-linecap:square;stroke-width:1.5;"/>
   </g>
   <g id="line2d_12">
    <path clip-path="url(#peb982239d3)" d="M 80.754545 363.5444 
L 80.985355 363.462286 
L 81.802064 363.483509 
L 84.589527 363.852812 
L 92.348264 364.867999 
L 98.313791 365.403534 
L 104.847464 365.761251 
L 112.659464 365.957343 
L 123.436473 365.98713 
L 151.772727 365.782057 
L 151.985782 355.634599 
L 152.411891 346.354049 
L 153.104318 336.29095 
L 154.080818 325.357504 
L 155.163845 315.622222 
L 156.211364 308.136842 
L 157.223373 302.438035 
L 158.253136 297.861181 
L 159.353918 293.961643 
L 160.578982 290.439259 
L 162.034855 286.946339 
L 166.242682 277.309742 
L 166.846336 274.982562 
L 167.272445 272.416292 
L 167.574273 269.115836 
L 167.769573 264.274723 
L 167.8761 256.32654 
L 167.929364 240.427781 
L 168.106909 78.842124 
L 168.195682 85.554527 
L 168.6573 126.786623 
L 169.136673 157.280914 
L 169.367482 191.811634 
L 169.971136 296.753568 
L 170.290718 308.028392 
L 170.663564 313.923235 
L 171.036409 316.651605 
L 171.373745 317.725629 
L 171.640064 317.991781 
L 171.870873 317.929556 
L 172.154945 317.576505 
L 172.581055 316.642625 
L 173.273482 314.509262 
L 175.031182 308.072827 
L 176.558073 302.970879 
L 177.871909 299.338047 
L 179.185745 296.35069 
L 180.5706 293.751975 
L 182.079736 291.392112 
L 183.784173 289.141426 
L 185.808191 286.844227 
L 188.666673 283.968453 
L 192.040036 280.527768 
L 193.407136 278.804359 
L 194.365882 277.239373 
L 195.076064 275.646484 
L 195.6087 273.893756 
L 196.017055 271.739177 
L 196.318882 268.814542 
L 196.514182 264.65863 
L 196.638464 256.818487 
L 196.709482 232.148229 
L 196.869273 84.723057 
L 196.904782 86.347342 
L 197.9523 187.745841 
L 198.609218 293.253399 
L 198.9288 302.693562 
L 199.301645 307.631787 
L 199.692245 310.130953 
L 200.047336 311.188544 
L 200.349164 311.527446 
L 200.615482 311.529307 
L 200.917309 311.286015 
L 201.361173 310.600985 
L 202.071355 309.026676 
L 203.846809 304.333885 
L 205.515736 300.270204 
L 206.971609 297.303995 
L 208.462991 294.76779 
L 210.0609 292.487389 
L 211.836355 290.340491 
L 213.878127 288.223057 
L 216.399273 285.941662 
L 223.767409 279.496585 
L 224.939209 278.02369 
L 225.791427 276.598971 
L 226.430591 275.104326 
L 226.927718 273.369241 
L 227.300564 271.250349 
L 227.584636 268.234422 
L 227.762182 264.027417 
L 227.868709 257.009253 
L 227.939727 233.978071 
L 228.099518 85.121795 
L 228.152782 88.096343 
L 228.8097 144.915035 
L 229.093773 175.356563 
L 229.3956 239.314597 
L 229.715182 286.984923 
L 229.999255 299.219724 
L 230.354345 305.555198 
L 230.744945 308.841107 
L 231.117791 310.343765 
L 231.455127 310.916237 
L 231.7392 311.013069 
L 232.023273 310.859533 
L 232.413873 310.361211 
L 233.017527 309.177995 
L 234.153818 306.353131 
L 236.4264 300.731257 
L 237.900027 297.714981 
L 239.373655 295.1982 
L 240.953809 292.937328 
L 242.693755 290.835209 
L 244.682264 288.785587 
L 247.043618 286.67983 
L 250.2927 284.106287 
L 254.607055 280.667888 
L 256.187209 279.111541 
L 257.287991 277.725929 
L 258.1047 276.34758 
L 258.726109 274.867233 
L 259.205482 273.148158 
L 259.578327 270.932493 
L 259.844645 267.930319 
L 260.022191 263.327769 
L 260.128718 254.642164 
L 260.181982 234.911794 
L 260.341773 85.298586 
L 260.395036 88.129929 
L 261.087464 147.824497 
L 261.353782 178.325197 
L 261.708873 254.812574 
L 261.992945 289.278789 
L 262.294773 300.457766 
L 262.649864 306.044122 
L 263.040464 308.995852 
L 263.413309 310.331182 
L 263.732891 310.798384 
L 263.999209 310.862908 
L 264.301036 310.68122 
L 264.709391 310.133788 
L 265.348555 308.849172 
L 266.626882 305.656368 
L 268.6509 300.734351 
L 270.124527 297.750589 
L 271.598155 295.2638 
L 273.178309 293.033433 
L 274.918255 290.964291 
L 276.889009 288.970181 
L 279.1971 286.957033 
L 282.197618 284.65192 
L 287.914582 280.320553 
L 289.423718 278.849212 
L 290.488991 277.509031 
L 291.287945 276.149378 
L 291.8916 274.688124 
L 292.370973 272.919034 
L 292.726064 270.724125 
L 292.992382 267.545115 
L 293.169927 262.327606 
L 293.276455 250.254999 
L 293.329718 206.195519 
L 293.471755 85.420243 
L 293.525018 88.526537 
L 294.164182 143.854072 
L 294.448255 173.174951 
L 294.732327 231.526089 
L 295.069664 285.744254 
L 295.353736 298.660747 
L 295.691073 304.977607 
L 296.081673 308.45904 
L 296.454518 310.060696 
L 296.791855 310.692702 
L 297.075927 310.827603 
L 297.36 310.704944 
L 297.732845 310.268147 
L 298.300991 309.215421 
L 299.313 306.790042 
L 301.887409 300.534928 
L 303.343282 297.646259 
L 304.816909 295.209119 
L 306.397064 293.024045 
L 308.137009 290.998092 
L 310.107764 289.048409 
L 312.415855 287.086297 
L 315.3276 284.918441 
L 322.127591 279.975678 
L 323.565709 278.571697 
L 324.595473 277.258976 
L 325.358918 275.930885 
L 325.944818 274.470791 
L 326.406436 272.70346 
L 326.743773 270.538103 
L 326.992336 267.513848 
L 327.169882 262.290062 
L 327.276409 250.145738 
L 327.329673 205.503451 
L 327.471709 85.537665 
L 327.524973 88.652301 
L 328.164136 143.794671 
L 328.448209 172.980938 
L 328.732282 231.13273 
L 329.069618 285.550919 
L 329.353691 298.551629 
L 329.691027 304.899099 
L 330.081627 308.397105 
L 330.454473 310.009283 
L 330.791809 310.649087 
L 331.075882 310.789936 
L 331.359955 310.672851 
L 331.7328 310.243031 
L 332.300945 309.200516 
L 333.312955 306.792614 
L 335.887364 300.578172 
L 337.343236 297.709852 
L 338.816864 295.291859 
L 340.397018 293.126483 
L 342.136964 291.122197 
L 344.089964 289.214342 
L 346.362545 287.31171 
L 349.150009 285.278691 
L 357.405873 279.459438 
L 358.701955 278.140052 
L 359.642945 276.872855 
L 360.353127 275.552807 
L 360.903518 274.066359 
L 361.329627 272.274024 
L 361.649209 269.973197 
L 361.880018 266.703825 
L 362.039809 260.949058 
L 362.128582 248.624387 
L 362.181845 193.332669 
L 362.323882 85.699751 
L 362.412655 93.236623 
L 362.838764 132.26722 
L 363.229364 164.054018 
L 363.477927 206.586481 
L 363.921791 285.731904 
L 364.205864 298.584127 
L 364.5432 304.8897 
L 364.845027 309.494977 
L 365.075836 319.313482 
L 365.466436 326.927482 
L 365.981318 332.752695 
L 366.602727 337.320309 
L 367.330664 341.077248 
L 368.182882 344.337005 
L 369.177136 347.272796 
L 370.331182 349.989037 
L 371.645018 352.515884 
L 373.118645 354.872853 
L 374.752064 357.067491 
L 376.527518 359.080788 
L 378.427255 360.901554 
L 380.469027 362.551202 
L 382.635082 364.016581 
L 384.943173 365.309097 
L 387.375545 366.416805 
L 389.967709 367.351501 
L 392.719664 368.105974 
L 395.684673 368.68593 
L 398.933755 369.090707 
L 402.573436 369.315121 
L 406.852282 369.348497 
L 412.338436 369.155697 
L 422.192209 368.541109 
L 434.318564 367.857906 
L 435.845455 367.793143 
L 435.845455 367.793143 
" style="fill:none;stroke:#ff0000;stroke-linecap:square;stroke-width:1.5;"/>
   </g>
   <g id="patch_3">
    <path d="M 63 384.48 
L 63 51.84 
" style="fill:none;stroke:#000000;stroke-linecap:square;stroke-linejoin:miter;stroke-width:0.8;"/>
   </g>
   <g id="patch_4">
    <path d="M 453.6 384.48 
L 453.6 51.84 
" style="fill:none;stroke:#000000;stroke-linecap:square;stroke-linejoin:miter;stroke-width:0.8;"/>
   </g>
   <g id="patch_5">
    <path d="M 63 384.48 
L 453.6 384.48 
" style="fill:none;stroke:#000000;stroke-linecap:square;stroke-linejoin:miter;stroke-width:0.8;"/>
   </g>
   <g id="patch_6">
    <path d="M 63 51.84 
L 453.6 51.84 
" style="fill:none;stroke:#000000;stroke-linecap:square;stroke-linejoin:miter;stroke-width:0.8;"/>
   </g>
   <g id="legend_1">
    <g id="patch_7">
     <path d="M 383.460938 89.19625 
L 446.6 89.19625 
Q 448.6 89.19625 448.6 87.19625 
L 448.6 58.84 
Q 448.6 56.84 446.6 56.84 
L 383.460938 56.84 
Q 381.460938 56.84 381.460938 58.84 
L 381.460938 87.19625 
Q 381.460938 89.19625 383.460938 89.19625 
z
" style="fill:#ffffff;opacity:0.8;stroke:#cccccc;stroke-linejoin:miter;"/>
    </g>
    <g id="line2d_13">
     <path d="M 385.460938 64.938437 
L 405.460938 64.938437 
" style="fill:none;stroke:#1f77b4;stroke-linecap:square;stroke-width:1.5;"/>
    </g>
    <g id="line2d_14"/>
    <g id="text_13">
     <!-- target -->
     <defs>
      <path d="M 41.109375 46.296875 
Q 39.59375 47.171875 37.8125 47.578125 
Q 36.03125 48 33.890625 48 
Q 26.265625 48 22.1875 43.046875 
Q 18.109375 38.09375 18.109375 28.8125 
L 18.109375 0 
L 9.078125 0 
L 9.078125 54.6875 
L 18.109375 54.6875 
L 18.109375 46.1875 
Q 20.953125 51.171875 25.484375 53.578125 
Q 30.03125 56 36.53125 56 
Q 37.453125 56 38.578125 55.875 
Q 39.703125 55.765625 41.0625 55.515625 
z
" id="DejaVuSans-114"/>
     </defs>
     <g transform="translate(413.460938 68.438437)scale(0.1 -0.1)">
      <use xlink:href="#DejaVuSans-116"/>
      <use x="39.208984" xlink:href="#DejaVuSans-97"/>
      <use x="100.488281" xlink:href="#DejaVuSans-114"/>
      <use x="141.585938" xlink:href="#DejaVuSans-103"/>
      <use x="205.0625" xlink:href="#DejaVuSans-101"/>
      <use x="266.585938" xlink:href="#DejaVuSans-116"/>
     </g>
    </g>
    <g id="line2d_15">
     <path d="M 385.460938 79.616562 
L 405.460938 79.616562 
" style="fill:none;stroke:#ff0000;stroke-linecap:square;stroke-width:1.5;"/>
    </g>
    <g id="line2d_16"/>
    <g id="text_14">
     <!-- model -->
     <defs>
      <path d="M 45.40625 46.390625 
L 45.40625 75.984375 
L 54.390625 75.984375 
L 54.390625 0 
L 45.40625 0 
L 45.40625 8.203125 
Q 42.578125 3.328125 38.25 0.953125 
Q 33.9375 -1.421875 27.875 -1.421875 
Q 17.96875 -1.421875 11.734375 6.484375 
Q 5.515625 14.40625 5.515625 27.296875 
Q 5.515625 40.1875 11.734375 48.09375 
Q 17.96875 56 27.875 56 
Q 33.9375 56 38.25 53.625 
Q 42.578125 51.265625 45.40625 46.390625 
z
M 14.796875 27.296875 
Q 14.796875 17.390625 18.875 11.75 
Q 22.953125 6.109375 30.078125 6.109375 
Q 37.203125 6.109375 41.296875 11.75 
Q 45.40625 17.390625 45.40625 27.296875 
Q 45.40625 37.203125 41.296875 42.84375 
Q 37.203125 48.484375 30.078125 48.484375 
Q 22.953125 48.484375 18.875 42.84375 
Q 14.796875 37.203125 14.796875 27.296875 
z
" id="DejaVuSans-100"/>
     </defs>
     <g transform="translate(413.460938 83.116562)scale(0.1 -0.1)">
      <use xlink:href="#DejaVuSans-109"/>
      <use x="97.412109" xlink:href="#DejaVuSans-111"/>
      <use x="158.59375" xlink:href="#DejaVuSans-100"/>
      <use x="222.070312" xlink:href="#DejaVuSans-101"/>
      <use x="283.59375" xlink:href="#DejaVuSans-108"/>
     </g>
    </g>
   </g>
  </g>
 </g>
 <defs>
  <clipPath id="peb982239d3">
   <rect height="332.64" width="390.6" x="63" y="51.84"/>
  </clipPath>
 </defs>
</svg>
