<?xml version="1.0" encoding="utf-8" standalone="no"?>
<!DOCTYPE svg PUBLIC "-//W3C//DTD SVG 1.1//EN"
  "http://www.w3.org/Graphics/SVG/1.1/DTD/svg11.dtd">
<!-- Created with matplotlib (https://matplotlib.org/) -->
<svg height="432pt" version="1.1" viewBox="0 0 504 432" width="504pt" xmlns="http://www.w3.org/2000/svg" xmlns:xlink="http://www.w3.org/1999/xlink">
 <defs>
  <style type="text/css">
*{stroke-linecap:butt;stroke-linejoin:round;}
  </style>
 </defs>
 <g id="figure_1">
  <g id="patch_1">
   <path d="M 0 432 
L 504 432 
L 504 0 
L 0 0 
z
" style="fill:#ffffff;"/>
  </g>
  <g id="axes_1">
   <g id="patch_2">
    <path d="M 63 384.48 
L 453.6 384.48 
L 453.6 51.84 
L 63 51.84 
z
" style="fill:#ffffff;"/>
   </g>
   <g id="matplotlib.axis_1">
    <g id="xtick_1">
     <g id="line2d_1">
      <defs>
       <path d="M 0 0 
L 0 3.5 
" id="m007e609696" style="stroke:#000000;stroke-width:0.8;"/>
      </defs>
      <g>
       <use style="stroke:#000000;stroke-width:0.8;" x="80.754545" xlink:href="#m007e609696" y="384.48"/>
      </g>
     </g>
     <g id="text_1">
      <!-- 0 -->
      <defs>
       <path d="M 31.78125 66.40625 
Q 24.171875 66.40625 20.328125 58.90625 
Q 16.5 51.421875 16.5 36.375 
Q 16.5 21.390625 20.328125 13.890625 
Q 24.171875 6.390625 31.78125 6.390625 
Q 39.453125 6.390625 43.28125 13.890625 
Q 47.125 21.390625 47.125 36.375 
Q 47.125 51.421875 43.28125 58.90625 
Q 39.453125 66.40625 31.78125 66.40625 
z
M 31.78125 74.21875 
Q 44.046875 74.21875 50.515625 64.515625 
Q 56.984375 54.828125 56.984375 36.375 
Q 56.984375 17.96875 50.515625 8.265625 
Q 44.046875 -1.421875 31.78125 -1.421875 
Q 19.53125 -1.421875 13.0625 8.265625 
Q 6.59375 17.96875 6.59375 36.375 
Q 6.59375 54.828125 13.0625 64.515625 
Q 19.53125 74.21875 31.78125 74.21875 
z
" id="DejaVuSans-48"/>
      </defs>
      <g transform="translate(77.573295 399.078438)scale(0.1 -0.1)">
       <use xlink:href="#DejaVuSans-48"/>
      </g>
     </g>
    </g>
    <g id="xtick_2">
     <g id="line2d_2">
      <g>
       <use style="stroke:#000000;stroke-width:0.8;" x="151.767796" xlink:href="#m007e609696" y="384.48"/>
      </g>
     </g>
     <g id="text_2">
      <!-- 720 -->
      <defs>
       <path d="M 8.203125 72.90625 
L 55.078125 72.90625 
L 55.078125 68.703125 
L 28.609375 0 
L 18.3125 0 
L 43.21875 64.59375 
L 8.203125 64.59375 
z
" id="DejaVuSans-55"/>
       <path d="M 19.1875 8.296875 
L 53.609375 8.296875 
L 53.609375 0 
L 7.328125 0 
L 7.328125 8.296875 
Q 12.9375 14.109375 22.625 23.890625 
Q 32.328125 33.6875 34.8125 36.53125 
Q 39.546875 41.84375 41.421875 45.53125 
Q 43.3125 49.21875 43.3125 52.78125 
Q 43.3125 58.59375 39.234375 62.25 
Q 35.15625 65.921875 28.609375 65.921875 
Q 23.96875 65.921875 18.8125 64.3125 
Q 13.671875 62.703125 7.8125 59.421875 
L 7.8125 69.390625 
Q 13.765625 71.78125 18.9375 73 
Q 24.125 74.21875 28.421875 74.21875 
Q 39.75 74.21875 46.484375 68.546875 
Q 53.21875 62.890625 53.21875 53.421875 
Q 53.21875 48.921875 51.53125 44.890625 
Q 49.859375 40.875 45.40625 35.40625 
Q 44.1875 33.984375 37.640625 27.21875 
Q 31.109375 20.453125 19.1875 8.296875 
z
" id="DejaVuSans-50"/>
      </defs>
      <g transform="translate(142.224046 399.078438)scale(0.1 -0.1)">
       <use xlink:href="#DejaVuSans-55"/>
       <use x="63.623047" xlink:href="#DejaVuSans-50"/>
       <use x="127.246094" xlink:href="#DejaVuSans-48"/>
      </g>
     </g>
    </g>
    <g id="xtick_3">
     <g id="line2d_3">
      <g>
       <use style="stroke:#000000;stroke-width:0.8;" x="222.781046" xlink:href="#m007e609696" y="384.48"/>
      </g>
     </g>
     <g id="text_3">
      <!-- 1440 -->
      <defs>
       <path d="M 12.40625 8.296875 
L 28.515625 8.296875 
L 28.515625 63.921875 
L 10.984375 60.40625 
L 10.984375 69.390625 
L 28.421875 72.90625 
L 38.28125 72.90625 
L 38.28125 8.296875 
L 54.390625 8.296875 
L 54.390625 0 
L 12.40625 0 
z
" id="DejaVuSans-49"/>
       <path d="M 37.796875 64.3125 
L 12.890625 25.390625 
L 37.796875 25.390625 
z
M 35.203125 72.90625 
L 47.609375 72.90625 
L 47.609375 25.390625 
L 58.015625 25.390625 
L 58.015625 17.1875 
L 47.609375 17.1875 
L 47.609375 0 
L 37.796875 0 
L 37.796875 17.1875 
L 4.890625 17.1875 
L 4.890625 26.703125 
z
" id="DejaVuSans-52"/>
      </defs>
      <g transform="translate(210.056046 399.078438)scale(0.1 -0.1)">
       <use xlink:href="#DejaVuSans-49"/>
       <use x="63.623047" xlink:href="#DejaVuSans-52"/>
       <use x="127.246094" xlink:href="#DejaVuSans-52"/>
       <use x="190.869141" xlink:href="#DejaVuSans-48"/>
      </g>
     </g>
    </g>
    <g id="xtick_4">
     <g id="line2d_4">
      <g>
       <use style="stroke:#000000;stroke-width:0.8;" x="293.794296" xlink:href="#m007e609696" y="384.48"/>
      </g>
     </g>
     <g id="text_4">
      <!-- 2160 -->
      <defs>
       <path d="M 33.015625 40.375 
Q 26.375 40.375 22.484375 35.828125 
Q 18.609375 31.296875 18.609375 23.390625 
Q 18.609375 15.53125 22.484375 10.953125 
Q 26.375 6.390625 33.015625 6.390625 
Q 39.65625 6.390625 43.53125 10.953125 
Q 47.40625 15.53125 47.40625 23.390625 
Q 47.40625 31.296875 43.53125 35.828125 
Q 39.65625 40.375 33.015625 40.375 
z
M 52.59375 71.296875 
L 52.59375 62.3125 
Q 48.875 64.0625 45.09375 64.984375 
Q 41.3125 65.921875 37.59375 65.921875 
Q 27.828125 65.921875 22.671875 59.328125 
Q 17.53125 52.734375 16.796875 39.40625 
Q 19.671875 43.65625 24.015625 45.921875 
Q 28.375 48.1875 33.59375 48.1875 
Q 44.578125 48.1875 50.953125 41.515625 
Q 57.328125 34.859375 57.328125 23.390625 
Q 57.328125 12.15625 50.6875 5.359375 
Q 44.046875 -1.421875 33.015625 -1.421875 
Q 20.359375 -1.421875 13.671875 8.265625 
Q 6.984375 17.96875 6.984375 36.375 
Q 6.984375 53.65625 15.1875 63.9375 
Q 23.390625 74.21875 37.203125 74.21875 
Q 40.921875 74.21875 44.703125 73.484375 
Q 48.484375 72.75 52.59375 71.296875 
z
" id="DejaVuSans-54"/>
      </defs>
      <g transform="translate(281.069296 399.078438)scale(0.1 -0.1)">
       <use xlink:href="#DejaVuSans-50"/>
       <use x="63.623047" xlink:href="#DejaVuSans-49"/>
       <use x="127.246094" xlink:href="#DejaVuSans-54"/>
       <use x="190.869141" xlink:href="#DejaVuSans-48"/>
      </g>
     </g>
    </g>
    <g id="xtick_5">
     <g id="line2d_5">
      <g>
       <use style="stroke:#000000;stroke-width:0.8;" x="364.807547" xlink:href="#m007e609696" y="384.48"/>
      </g>
     </g>
     <g id="text_5">
      <!-- 2880 -->
      <defs>
       <path d="M 31.78125 34.625 
Q 24.75 34.625 20.71875 30.859375 
Q 16.703125 27.09375 16.703125 20.515625 
Q 16.703125 13.921875 20.71875 10.15625 
Q 24.75 6.390625 31.78125 6.390625 
Q 38.8125 6.390625 42.859375 10.171875 
Q 46.921875 13.96875 46.921875 20.515625 
Q 46.921875 27.09375 42.890625 30.859375 
Q 38.875 34.625 31.78125 34.625 
z
M 21.921875 38.8125 
Q 15.578125 40.375 12.03125 44.71875 
Q 8.5 49.078125 8.5 55.328125 
Q 8.5 64.0625 14.71875 69.140625 
Q 20.953125 74.21875 31.78125 74.21875 
Q 42.671875 74.21875 48.875 69.140625 
Q 55.078125 64.0625 55.078125 55.328125 
Q 55.078125 49.078125 51.53125 44.71875 
Q 48 40.375 41.703125 38.8125 
Q 48.828125 37.15625 52.796875 32.3125 
Q 56.78125 27.484375 56.78125 20.515625 
Q 56.78125 9.90625 50.3125 4.234375 
Q 43.84375 -1.421875 31.78125 -1.421875 
Q 19.734375 -1.421875 13.25 4.234375 
Q 6.78125 9.90625 6.78125 20.515625 
Q 6.78125 27.484375 10.78125 32.3125 
Q 14.796875 37.15625 21.921875 38.8125 
z
M 18.3125 54.390625 
Q 18.3125 48.734375 21.84375 45.5625 
Q 25.390625 42.390625 31.78125 42.390625 
Q 38.140625 42.390625 41.71875 45.5625 
Q 45.3125 48.734375 45.3125 54.390625 
Q 45.3125 60.0625 41.71875 63.234375 
Q 38.140625 66.40625 31.78125 66.40625 
Q 25.390625 66.40625 21.84375 63.234375 
Q 18.3125 60.0625 18.3125 54.390625 
z
" id="DejaVuSans-56"/>
      </defs>
      <g transform="translate(352.082547 399.078438)scale(0.1 -0.1)">
       <use xlink:href="#DejaVuSans-50"/>
       <use x="63.623047" xlink:href="#DejaVuSans-56"/>
       <use x="127.246094" xlink:href="#DejaVuSans-56"/>
       <use x="190.869141" xlink:href="#DejaVuSans-48"/>
      </g>
     </g>
    </g>
    <g id="text_6">
     <!-- time [ms] -->
     <defs>
      <path d="M 18.3125 70.21875 
L 18.3125 54.6875 
L 36.8125 54.6875 
L 36.8125 47.703125 
L 18.3125 47.703125 
L 18.3125 18.015625 
Q 18.3125 11.328125 20.140625 9.421875 
Q 21.96875 7.515625 27.59375 7.515625 
L 36.8125 7.515625 
L 36.8125 0 
L 27.59375 0 
Q 17.1875 0 13.234375 3.875 
Q 9.28125 7.765625 9.28125 18.015625 
L 9.28125 47.703125 
L 2.6875 47.703125 
L 2.6875 54.6875 
L 9.28125 54.6875 
L 9.28125 70.21875 
z
" id="DejaVuSans-116"/>
      <path d="M 9.421875 54.6875 
L 18.40625 54.6875 
L 18.40625 0 
L 9.421875 0 
z
M 9.421875 75.984375 
L 18.40625 75.984375 
L 18.40625 64.59375 
L 9.421875 64.59375 
z
" id="DejaVuSans-105"/>
      <path d="M 52 44.1875 
Q 55.375 50.25 60.0625 53.125 
Q 64.75 56 71.09375 56 
Q 79.640625 56 84.28125 50.015625 
Q 88.921875 44.046875 88.921875 33.015625 
L 88.921875 0 
L 79.890625 0 
L 79.890625 32.71875 
Q 79.890625 40.578125 77.09375 44.375 
Q 74.3125 48.1875 68.609375 48.1875 
Q 61.625 48.1875 57.5625 43.546875 
Q 53.515625 38.921875 53.515625 30.90625 
L 53.515625 0 
L 44.484375 0 
L 44.484375 32.71875 
Q 44.484375 40.625 41.703125 44.40625 
Q 38.921875 48.1875 33.109375 48.1875 
Q 26.21875 48.1875 22.15625 43.53125 
Q 18.109375 38.875 18.109375 30.90625 
L 18.109375 0 
L 9.078125 0 
L 9.078125 54.6875 
L 18.109375 54.6875 
L 18.109375 46.1875 
Q 21.1875 51.21875 25.484375 53.609375 
Q 29.78125 56 35.6875 56 
Q 41.65625 56 45.828125 52.96875 
Q 50 49.953125 52 44.1875 
z
" id="DejaVuSans-109"/>
      <path d="M 56.203125 29.59375 
L 56.203125 25.203125 
L 14.890625 25.203125 
Q 15.484375 15.921875 20.484375 11.0625 
Q 25.484375 6.203125 34.421875 6.203125 
Q 39.59375 6.203125 44.453125 7.46875 
Q 49.3125 8.734375 54.109375 11.28125 
L 54.109375 2.78125 
Q 49.265625 0.734375 44.1875 -0.34375 
Q 39.109375 -1.421875 33.890625 -1.421875 
Q 20.796875 -1.421875 13.15625 6.1875 
Q 5.515625 13.8125 5.515625 26.8125 
Q 5.515625 40.234375 12.765625 48.109375 
Q 20.015625 56 32.328125 56 
Q 43.359375 56 49.78125 48.890625 
Q 56.203125 41.796875 56.203125 29.59375 
z
M 47.21875 32.234375 
Q 47.125 39.59375 43.09375 43.984375 
Q 39.0625 48.390625 32.421875 48.390625 
Q 24.90625 48.390625 20.390625 44.140625 
Q 15.875 39.890625 15.1875 32.171875 
z
" id="DejaVuSans-101"/>
      <path id="DejaVuSans-32"/>
      <path d="M 8.59375 75.984375 
L 29.296875 75.984375 
L 29.296875 69 
L 17.578125 69 
L 17.578125 -6.203125 
L 29.296875 -6.203125 
L 29.296875 -13.1875 
L 8.59375 -13.1875 
z
" id="DejaVuSans-91"/>
      <path d="M 44.28125 53.078125 
L 44.28125 44.578125 
Q 40.484375 46.53125 36.375 47.5 
Q 32.28125 48.484375 27.875 48.484375 
Q 21.1875 48.484375 17.84375 46.4375 
Q 14.5 44.390625 14.5 40.28125 
Q 14.5 37.15625 16.890625 35.375 
Q 19.28125 33.59375 26.515625 31.984375 
L 29.59375 31.296875 
Q 39.15625 29.25 43.1875 25.515625 
Q 47.21875 21.78125 47.21875 15.09375 
Q 47.21875 7.46875 41.1875 3.015625 
Q 35.15625 -1.421875 24.609375 -1.421875 
Q 20.21875 -1.421875 15.453125 -0.5625 
Q 10.6875 0.296875 5.421875 2 
L 5.421875 11.28125 
Q 10.40625 8.6875 15.234375 7.390625 
Q 20.0625 6.109375 24.8125 6.109375 
Q 31.15625 6.109375 34.5625 8.28125 
Q 37.984375 10.453125 37.984375 14.40625 
Q 37.984375 18.0625 35.515625 20.015625 
Q 33.0625 21.96875 24.703125 23.78125 
L 21.578125 24.515625 
Q 13.234375 26.265625 9.515625 29.90625 
Q 5.8125 33.546875 5.8125 39.890625 
Q 5.8125 47.609375 11.28125 51.796875 
Q 16.75 56 26.8125 56 
Q 31.78125 56 36.171875 55.265625 
Q 40.578125 54.546875 44.28125 53.078125 
z
" id="DejaVuSans-115"/>
      <path d="M 30.421875 75.984375 
L 30.421875 -13.1875 
L 9.71875 -13.1875 
L 9.71875 -6.203125 
L 21.390625 -6.203125 
L 21.390625 69 
L 9.71875 69 
L 9.71875 75.984375 
z
" id="DejaVuSans-93"/>
     </defs>
     <g transform="translate(234.038281 412.756563)scale(0.1 -0.1)">
      <use xlink:href="#DejaVuSans-116"/>
      <use x="39.208984" xlink:href="#DejaVuSans-105"/>
      <use x="66.992188" xlink:href="#DejaVuSans-109"/>
      <use x="164.404297" xlink:href="#DejaVuSans-101"/>
      <use x="225.927734" xlink:href="#DejaVuSans-32"/>
      <use x="257.714844" xlink:href="#DejaVuSans-91"/>
      <use x="296.728516" xlink:href="#DejaVuSans-109"/>
      <use x="394.140625" xlink:href="#DejaVuSans-115"/>
      <use x="446.240234" xlink:href="#DejaVuSans-93"/>
     </g>
    </g>
   </g>
   <g id="matplotlib.axis_2">
    <g id="ytick_1">
     <g id="line2d_6">
      <defs>
       <path d="M 0 0 
L -3.5 0 
" id="mb936f505a6" style="stroke:#000000;stroke-width:0.8;"/>
      </defs>
      <g>
       <use style="stroke:#000000;stroke-width:0.8;" x="63" xlink:href="#mb936f505a6" y="372.513606"/>
      </g>
     </g>
     <g id="text_7">
      <!-- −80 -->
      <defs>
       <path d="M 10.59375 35.5 
L 73.1875 35.5 
L 73.1875 27.203125 
L 10.59375 27.203125 
z
" id="DejaVuSans-8722"/>
      </defs>
      <g transform="translate(34.895313 376.312825)scale(0.1 -0.1)">
       <use xlink:href="#DejaVuSans-8722"/>
       <use x="83.789062" xlink:href="#DejaVuSans-56"/>
       <use x="147.412109" xlink:href="#DejaVuSans-48"/>
      </g>
     </g>
    </g>
    <g id="ytick_2">
     <g id="line2d_7">
      <g>
       <use style="stroke:#000000;stroke-width:0.8;" x="63" xlink:href="#mb936f505a6" y="318.544436"/>
      </g>
     </g>
     <g id="text_8">
      <!-- −60 -->
      <g transform="translate(34.895313 322.343654)scale(0.1 -0.1)">
       <use xlink:href="#DejaVuSans-8722"/>
       <use x="83.789062" xlink:href="#DejaVuSans-54"/>
       <use x="147.412109" xlink:href="#DejaVuSans-48"/>
      </g>
     </g>
    </g>
    <g id="ytick_3">
     <g id="line2d_8">
      <g>
       <use style="stroke:#000000;stroke-width:0.8;" x="63" xlink:href="#mb936f505a6" y="264.575265"/>
      </g>
     </g>
     <g id="text_9">
      <!-- −40 -->
      <g transform="translate(34.895313 268.374484)scale(0.1 -0.1)">
       <use xlink:href="#DejaVuSans-8722"/>
       <use x="83.789062" xlink:href="#DejaVuSans-52"/>
       <use x="147.412109" xlink:href="#DejaVuSans-48"/>
      </g>
     </g>
    </g>
    <g id="ytick_4">
     <g id="line2d_9">
      <g>
       <use style="stroke:#000000;stroke-width:0.8;" x="63" xlink:href="#mb936f505a6" y="210.606095"/>
      </g>
     </g>
     <g id="text_10">
      <!-- −20 -->
      <g transform="translate(34.895313 214.405314)scale(0.1 -0.1)">
       <use xlink:href="#DejaVuSans-8722"/>
       <use x="83.789062" xlink:href="#DejaVuSans-50"/>
       <use x="147.412109" xlink:href="#DejaVuSans-48"/>
      </g>
     </g>
    </g>
    <g id="ytick_5">
     <g id="line2d_10">
      <g>
       <use style="stroke:#000000;stroke-width:0.8;" x="63" xlink:href="#mb936f505a6" y="156.636925"/>
      </g>
     </g>
     <g id="text_11">
      <!-- 0 -->
      <g transform="translate(49.6375 160.436144)scale(0.1 -0.1)">
       <use xlink:href="#DejaVuSans-48"/>
      </g>
     </g>
    </g>
    <g id="ytick_6">
     <g id="line2d_11">
      <g>
       <use style="stroke:#000000;stroke-width:0.8;" x="63" xlink:href="#mb936f505a6" y="102.667755"/>
      </g>
     </g>
     <g id="text_12">
      <!-- 20 -->
      <g transform="translate(43.275 106.466973)scale(0.1 -0.1)">
       <use xlink:href="#DejaVuSans-50"/>
       <use x="63.623047" xlink:href="#DejaVuSans-48"/>
      </g>
     </g>
    </g>
    <g id="text_13">
     <!-- Voltage [mV] -->
     <defs>
      <path d="M 28.609375 0 
L 0.78125 72.90625 
L 11.078125 72.90625 
L 34.1875 11.53125 
L 57.328125 72.90625 
L 67.578125 72.90625 
L 39.796875 0 
z
" id="DejaVuSans-86"/>
      <path d="M 30.609375 48.390625 
Q 23.390625 48.390625 19.1875 42.75 
Q 14.984375 37.109375 14.984375 27.296875 
Q 14.984375 17.484375 19.15625 11.84375 
Q 23.34375 6.203125 30.609375 6.203125 
Q 37.796875 6.203125 41.984375 11.859375 
Q 46.1875 17.53125 46.1875 27.296875 
Q 46.1875 37.015625 41.984375 42.703125 
Q 37.796875 48.390625 30.609375 48.390625 
z
M 30.609375 56 
Q 42.328125 56 49.015625 48.375 
Q 55.71875 40.765625 55.71875 27.296875 
Q 55.71875 13.875 49.015625 6.21875 
Q 42.328125 -1.421875 30.609375 -1.421875 
Q 18.84375 -1.421875 12.171875 6.21875 
Q 5.515625 13.875 5.515625 27.296875 
Q 5.515625 40.765625 12.171875 48.375 
Q 18.84375 56 30.609375 56 
z
" id="DejaVuSans-111"/>
      <path d="M 9.421875 75.984375 
L 18.40625 75.984375 
L 18.40625 0 
L 9.421875 0 
z
" id="DejaVuSans-108"/>
      <path d="M 34.28125 27.484375 
Q 23.390625 27.484375 19.1875 25 
Q 14.984375 22.515625 14.984375 16.5 
Q 14.984375 11.71875 18.140625 8.90625 
Q 21.296875 6.109375 26.703125 6.109375 
Q 34.1875 6.109375 38.703125 11.40625 
Q 43.21875 16.703125 43.21875 25.484375 
L 43.21875 27.484375 
z
M 52.203125 31.203125 
L 52.203125 0 
L 43.21875 0 
L 43.21875 8.296875 
Q 40.140625 3.328125 35.546875 0.953125 
Q 30.953125 -1.421875 24.3125 -1.421875 
Q 15.921875 -1.421875 10.953125 3.296875 
Q 6 8.015625 6 15.921875 
Q 6 25.140625 12.171875 29.828125 
Q 18.359375 34.515625 30.609375 34.515625 
L 43.21875 34.515625 
L 43.21875 35.40625 
Q 43.21875 41.609375 39.140625 45 
Q 35.0625 48.390625 27.6875 48.390625 
Q 23 48.390625 18.546875 47.265625 
Q 14.109375 46.140625 10.015625 43.890625 
L 10.015625 52.203125 
Q 14.9375 54.109375 19.578125 55.046875 
Q 24.21875 56 28.609375 56 
Q 40.484375 56 46.34375 49.84375 
Q 52.203125 43.703125 52.203125 31.203125 
z
" id="DejaVuSans-97"/>
      <path d="M 45.40625 27.984375 
Q 45.40625 37.75 41.375 43.109375 
Q 37.359375 48.484375 30.078125 48.484375 
Q 22.859375 48.484375 18.828125 43.109375 
Q 14.796875 37.75 14.796875 27.984375 
Q 14.796875 18.265625 18.828125 12.890625 
Q 22.859375 7.515625 30.078125 7.515625 
Q 37.359375 7.515625 41.375 12.890625 
Q 45.40625 18.265625 45.40625 27.984375 
z
M 54.390625 6.78125 
Q 54.390625 -7.171875 48.1875 -13.984375 
Q 42 -20.796875 29.203125 -20.796875 
Q 24.46875 -20.796875 20.265625 -20.09375 
Q 16.0625 -19.390625 12.109375 -17.921875 
L 12.109375 -9.1875 
Q 16.0625 -11.328125 19.921875 -12.34375 
Q 23.78125 -13.375 27.78125 -13.375 
Q 36.625 -13.375 41.015625 -8.765625 
Q 45.40625 -4.15625 45.40625 5.171875 
L 45.40625 9.625 
Q 42.625 4.78125 38.28125 2.390625 
Q 33.9375 0 27.875 0 
Q 17.828125 0 11.671875 7.65625 
Q 5.515625 15.328125 5.515625 27.984375 
Q 5.515625 40.671875 11.671875 48.328125 
Q 17.828125 56 27.875 56 
Q 33.9375 56 38.28125 53.609375 
Q 42.625 51.21875 45.40625 46.390625 
L 45.40625 54.6875 
L 54.390625 54.6875 
z
" id="DejaVuSans-103"/>
     </defs>
     <g transform="translate(28.815625 251.079531)rotate(-90)scale(0.1 -0.1)">
      <use xlink:href="#DejaVuSans-86"/>
      <use x="68.298828" xlink:href="#DejaVuSans-111"/>
      <use x="129.480469" xlink:href="#DejaVuSans-108"/>
      <use x="157.263672" xlink:href="#DejaVuSans-116"/>
      <use x="196.472656" xlink:href="#DejaVuSans-97"/>
      <use x="257.751953" xlink:href="#DejaVuSans-103"/>
      <use x="321.228516" xlink:href="#DejaVuSans-101"/>
      <use x="382.751953" xlink:href="#DejaVuSans-32"/>
      <use x="414.539062" xlink:href="#DejaVuSans-91"/>
      <use x="453.552734" xlink:href="#DejaVuSans-109"/>
      <use x="550.964844" xlink:href="#DejaVuSans-86"/>
      <use x="619.373047" xlink:href="#DejaVuSans-93"/>
     </g>
    </g>
   </g>
   <g id="line2d_12">
    <path clip-path="url(#p96ec146108)" d="M 80.754545 332.036728 
L 81.006051 332.110391 
L 81.947963 332.439235 
L 83.096996 332.550139 
L 86.248209 332.544152 
L 100.480448 332.50803 
L 100.633324 348.079779 
L 100.95387 358.469053 
L 101.363182 365.303436 
L 101.733043 368.304243 
L 102.033863 369.251024 
L 102.240985 369.350688 
L 102.428381 369.161542 
L 102.734133 368.472455 
L 103.473854 366.073733 
L 104.297411 363.756487 
L 104.943434 362.568658 
L 105.5648 361.869202 
L 106.225618 361.454415 
L 107.024517 361.223557 
L 108.222865 361.13373 
L 113.035986 361.176625 
L 130.069303 361.17415 
L 130.222178 345.848822 
L 130.532861 336.451829 
L 130.922448 330.726485 
L 131.307103 327.971707 
L 131.672032 326.765135 
L 132.002441 326.334784 
L 132.313124 326.266135 
L 132.682985 326.432138 
L 133.284625 326.986414 
L 136.016662 329.754328 
L 137.259394 330.580326 
L 138.61555 331.212399 
L 139.932254 331.631076 
L 140.045678 332.050265 
L 142.013337 332.538656 
L 144.380445 332.554418 
L 159.663088 332.50803 
L 159.815964 329.393449 
L 160.13651 327.327545 
L 160.560617 325.911605 
L 161.019244 325.098815 
L 161.517323 324.649724 
L 162.118963 324.410774 
L 163.001697 324.321283 
L 164.998945 324.40497 
L 170.315076 324.605471 
L 179.882139 324.680553 
L 189.251943 324.69032 
L 189.404818 327.809545 
L 189.725364 329.880616 
L 190.154403 331.316856 
L 190.61303 332.134444 
L 191.111109 332.586498 
L 191.707818 332.821721 
L 192.575757 332.901401 
L 194.587799 332.794784 
L 199.114894 332.5999 
L 199.119826 332.036728 
L 199.228318 332.050265 
L 201.195977 332.538656 
L 203.563085 332.554418 
L 218.845729 332.50803 
L 218.998604 326.277912 
L 219.31915 322.143813 
L 219.743257 319.304371 
L 220.196953 317.653369 
L 220.675306 316.69256 
L 221.207905 316.104123 
L 221.853929 315.725204 
L 222.805704 315.448522 
L 224.13227 315.057533 
L 224.349255 314.754399 
L 224.403502 314.446184 
L 224.418296 311.550522 
L 224.457748 192.984154 
L 224.492268 70.313497 
L 224.56624 183.187743 
L 224.763499 315.893493 
L 224.945964 322.310038 
L 225.123497 322.989363 
L 225.227058 322.875271 
L 225.463769 322.141685 
L 226.474721 318.748979 
L 226.987595 317.879457 
L 227.525126 317.387782 
L 228.176081 317.09833 
L 229.14265 316.934388 
L 231.243458 316.858121 
L 247.009386 316.744138 
L 248.434583 316.739982 
L 248.587459 323.00376 
L 248.908004 327.164955 
L 249.332111 330.006851 
L 249.775944 331.607651 
L 250.22964 332.47892 
L 250.707993 332.940357 
L 251.260318 333.164238 
L 252.039492 333.220232 
L 253.721125 333.057887 
L 257.326034 332.751153 
L 258.297534 332.704508 
L 258.302466 332.036728 
L 258.410958 332.050265 
L 260.378617 332.538656 
L 262.745725 332.554418 
L 278.028369 332.50803 
L 278.181244 323.160502 
L 278.50179 316.937704 
L 278.93576 312.496135 
L 279.542332 308.7239 
L 279.655756 307.309478 
L 279.67055 299.801681 
L 279.734659 68.578889 
L 279.818494 194.119417 
L 280.00589 312.746452 
L 280.178492 318.421472 
L 280.262327 318.651319 
L 280.311642 318.580756 
L 280.469449 317.88238 
L 281.879851 310.35237 
L 282.471628 308.896509 
L 283.142309 307.28731 
L 283.216281 306.395389 
L 283.231075 299.183276 
L 283.295185 75.105724 
L 283.383951 197.804858 
L 283.571347 312.817072 
L 283.743949 318.269281 
L 283.837647 318.542061 
L 283.886962 318.481016 
L 284.039838 317.873763 
L 285.494623 310.811098 
L 286.032154 309.726641 
L 286.643657 308.986789 
L 288.167483 307.388796 
L 288.251318 306.700365 
L 288.266112 301.920797 
L 288.335153 80.327184 
L 288.438714 217.853002 
L 288.616247 310.878997 
L 288.79378 316.517539 
L 288.92693 316.969245 
L 288.956519 316.953222 
L 289.079806 316.661498 
L 289.425009 315.078415 
L 290.159799 311.942399 
L 290.692398 310.615106 
L 291.239792 309.817326 
L 291.880884 309.274741 
L 292.753755 308.844338 
L 294.977851 307.863252 
L 295.194836 307.444648 
L 295.273739 306.833037 
L 295.288534 302.83445 
L 295.332917 149.463479 
L 295.362506 83.587945 
L 295.436478 179.413302 
L 295.638668 309.103815 
L 295.821133 315.42508 
L 295.998666 316.089706 
L 296.102227 315.952615 
L 296.343869 315.122138 
L 297.344959 311.430578 
L 297.88249 310.380965 
L 298.459473 309.726541 
L 299.164674 309.267881 
L 300.205215 308.879813 
L 302.799171 308.0018 
L 303.080265 307.62941 
L 303.203552 307.057882 
L 303.223278 305.317811 
L 303.257798 220.504156 
L 303.302182 86.004729 
L 303.376154 179.757959 
L 303.578344 308.270508 
L 303.760809 314.776001 
L 303.948205 315.600722 
L 304.051766 315.515035 
L 304.263819 314.903884 
L 305.452305 311.002562 
L 305.999699 310.134888 
L 306.611202 309.573744 
L 307.405169 309.157858 
L 307.617223 309.078081 
L 307.77503 318.673018 
L 308.095576 324.856977 
L 308.514752 328.99864 
L 308.953653 331.314743 
L 309.392554 332.549257 
L 309.841318 333.198676 
L 310.319672 333.516525 
L 310.911449 333.634318 
L 311.848429 333.564549 
L 317.450586 332.851177 
L 317.480174 332.849178 
L 317.485106 332.036728 
L 317.593598 332.050265 
L 319.561257 332.538656 
L 321.928365 332.554418 
L 337.211009 332.50803 
L 337.363884 320.039892 
L 337.689362 311.572941 
L 338.300865 298.901246 
L 338.335385 180.559904 
L 338.364974 67.559551 
L 338.443878 182.801064 
L 338.641137 309.984238 
L 338.808807 314.697559 
L 338.838396 314.72465 
L 338.88771 314.603083 
L 339.055381 313.422513 
L 340.65811 298.279489 
L 340.672905 292.4193 
L 340.737014 72.845772 
L 340.820849 193.428042 
L 341.013176 312.825221 
L 341.175915 316.873507 
L 341.195641 316.879449 
L 341.235093 316.782051 
L 341.383037 315.707855 
L 342.808234 303.279193 
L 343.266861 299.876488 
L 343.321107 298.101264 
L 343.335902 285.149969 
L 343.400011 78.275734 
L 343.469051 173.971443 
L 343.671242 310.371265 
L 343.838912 315.164996 
L 343.878364 315.223308 
L 343.93261 315.098962 
L 344.10028 313.983364 
L 345.407121 303.879291 
L 346.072871 299.824546 
L 346.127117 298.102518 
L 346.141911 284.628782 
L 346.20602 82.047839 
L 346.275061 171.396056 
L 346.477252 308.426271 
L 346.649853 313.831414 
L 346.709031 313.968707 
L 346.763277 313.871745 
L 346.926016 312.963171 
L 348.385733 303.215967 
L 348.957784 300.155719 
L 349.036687 298.403428 
L 349.051482 291.183362 
L 349.120523 84.885043 
L 349.194495 179.201748 
L 349.396685 307.544867 
L 349.569287 312.817251 
L 349.64819 313.023903 
L 349.697505 312.949013 
L 349.850381 312.226634 
L 351.556672 302.275293 
L 351.931464 300.263049 
L 352.02023 298.474216 
L 352.035025 291.728002 
L 352.104065 86.799055 
L 352.182969 183.915357 
L 352.385159 306.913082 
L 352.562693 312.208631 
L 352.651459 312.443704 
L 352.700774 312.375162 
L 352.85365 311.714525 
L 353.475016 307.495727 
L 354.121039 304.086655 
L 355.003773 299.828304 
L 355.058019 297.809355 
L 355.082677 243.679995 
L 355.136923 88.154295 
L 355.215827 183.859793 
L 355.418017 306.230612 
L 355.59555 311.716593 
L 355.69418 312.024753 
L 355.743494 311.970862 
L 355.886507 311.420975 
L 356.359929 308.364452 
L 357.050336 304.557081 
L 358.085945 299.518627 
L 358.120466 297.742729 
L 358.145123 242.582311 
L 358.199369 89.068677 
L 358.273341 177.282055 
L 358.480463 305.751208 
L 358.657997 311.38995 
L 358.771421 311.755353 
L 358.810872 311.715563 
L 358.944022 311.256213 
L 359.343472 308.806408 
L 360.088125 304.6747 
L 361.173049 299.403045 
L 361.202638 297.359697 
L 361.237158 207.013779 
L 361.281542 89.793838 
L 361.350582 172.493116 
L 361.557704 305.044696 
L 361.735237 311.116291 
L 361.858524 311.568181 
L 361.893045 311.541652 
L 362.016332 311.164555 
L 362.361535 309.15676 
L 363.170297 304.675843 
L 364.265084 299.430692 
L 364.294673 297.545865 
L 364.324262 226.446178 
L 364.373577 90.115497 
L 364.447549 178.068755 
L 364.654671 305.05527 
L 364.837136 310.941496 
L 364.960423 311.365229 
L 364.994943 311.339059 
L 365.11823 310.973163 
L 365.458502 309.047651 
L 366.277127 304.604378 
L 366.799863 302.614971 
L 366.95767 315.311333 
L 367.268353 323.099933 
L 367.677666 328.245326 
L 368.106704 331.108278 
L 368.540674 332.649201 
L 368.974644 333.446206 
L 369.423408 333.836882 
L 369.941213 333.99343 
L 370.680934 333.962506 
L 372.490786 333.583719 
L 375.084742 333.143568 
L 376.662814 332.974264 
L 376.667746 332.036728 
L 376.776238 332.050265 
L 378.743897 332.538656 
L 381.111006 332.554418 
L 396.393649 332.50803 
L 396.546525 316.914092 
L 396.881865 305.847308 
L 397.172822 296.773116 
L 397.187616 280.021666 
L 397.241863 66.96 
L 397.320766 182.915338 
L 397.513094 306.456581 
L 397.670901 310.914242 
L 397.675832 310.91386 
L 397.725147 310.752496 
L 397.892817 309.127329 
L 398.80514 296.729147 
L 398.933359 292.446298 
L 398.953085 287.164336 
L 399.017194 71.708418 
L 399.101029 195.865546 
L 399.288425 312.800254 
L 399.416643 315.994929 
L 399.441301 315.954423 
L 399.534999 315.187768 
L 399.894997 309.695277 
L 400.945401 290.931215 
L 400.965127 249.341997 
L 401.019373 77.186151 
L 401.093345 182.649318 
L 401.290604 310.763719 
L 401.433617 314.252084 
L 401.448411 314.236087 
L 401.527315 313.756794 
L 401.798546 310.235641 
L 402.977169 291.419695 
L 402.991963 279.865058 
L 403.056072 80.936037 
L 403.125113 174.588625 
L 403.327304 308.979757 
L 403.485111 312.916413 
L 403.490042 312.915348 
L 403.544289 312.727969 
L 403.71689 311.032844 
L 405.004005 293.928153 
L 405.048389 289.879516 
L 405.077978 209.404375 
L 405.122361 83.735304 
L 405.191401 174.2779 
L 405.393592 307.549585 
L 405.556331 311.842484 
L 405.576057 311.843695 
L 405.610577 311.749456 
L 405.748658 310.672265 
L 406.468654 302.109942 
L 407.080157 294.179204 
L 407.134403 289.525576 
L 407.168923 181.350423 
L 407.203444 85.709665 
L 407.277416 174.07943 
L 407.484538 306.944144 
L 407.652208 311.11546 
L 407.671934 311.117964 
L 407.706454 311.033896 
L 407.844535 310.041936 
L 408.431381 303.362503 
L 409.190828 293.819525 
L 409.235212 289.533501 
L 409.269732 182.436814 
L 409.309184 87.023359 
L 409.378224 172.961233 
L 409.585346 306.138983 
L 409.753017 310.581958 
L 409.777674 310.605008 
L 409.826989 310.486873 
L 409.979864 309.364357 
L 410.892187 299.587269 
L 411.276843 294.627653 
L 411.345883 290.511501 
L 411.365609 247.328452 
L 411.419855 87.855402 
L 411.498759 181.658527 
L 411.700949 305.780761 
L 411.86862 310.241765 
L 411.898208 310.27581 
L 411.947523 310.163389 
L 412.100399 309.085888 
L 412.859846 301.063699 
L 413.402309 294.592292 
L 413.471349 290.219394 
L 413.496007 230.768207 
L 413.545321 88.384196 
L 413.619293 175.799014 
L 413.826415 305.346506 
L 413.994086 309.937453 
L 414.028606 309.990228 
L 414.082852 309.869537 
L 414.240659 308.768603 
L 415.064216 300.288391 
L 415.527775 294.755625 
L 415.601747 290.753911 
L 415.621473 250.155757 
L 415.675719 89.035792 
L 415.754622 179.572806 
L 415.961744 305.150813 
L 416.134346 309.645662 
L 416.168866 309.689341 
L 416.223113 309.56654 
L 416.385851 308.448875 
L 417.24886 299.758985 
L 417.663104 294.745773 
L 417.737076 290.73808 
L 417.756802 249.945929 
L 417.811048 89.29883 
L 417.889951 179.447646 
L 418.097073 304.87723 
L 418.269675 309.442984 
L 418.309127 309.499005 
L 418.363373 309.378065 
L 418.526112 308.284335 
L 419.315148 300.415707 
L 419.798433 294.822691 
L 419.872405 291.377428 
L 419.887199 280.911101 
L 419.951308 89.296332 
L 420.02528 174.456536 
L 420.232402 304.449194 
L 420.405004 309.344416 
L 420.449387 309.422819 
L 420.503634 309.308242 
L 420.661441 308.276804 
L 421.337053 301.551303 
L 421.953487 294.554319 
L 422.017597 291.110061 
L 422.032391 274.830677 
L 422.0965 89.341873 
L 422.165541 169.852169 
L 422.377594 304.395191 
L 422.550196 309.255133 
L 422.594579 309.33701 
L 422.648826 309.227844 
L 422.806633 308.213073 
L 423.452656 301.819017 
L 424.098679 294.570281 
L 424.16772 290.086756 
L 424.197309 213.138813 
L 424.241692 89.413138 
L 424.315664 175.629257 
L 424.522786 304.259813 
L 424.695388 309.201476 
L 424.744703 309.290404 
L 424.798949 309.172461 
L 424.961688 308.109366 
L 425.686615 300.984203 
L 425.982503 298.169591 
L 426.14031 313.67544 
L 426.44113 322.428743 
L 426.835648 327.984425 
L 427.259755 331.119459 
L 427.688794 332.797891 
L 428.117832 333.664489 
L 428.556733 334.085158 
L 429.049881 334.252385 
L 429.725493 334.227947 
L 431.140827 333.896209 
L 433.754509 333.335932 
L 435.845455 333.059831 
L 435.845455 333.059831 
" style="fill:none;stroke:#ff0000;stroke-linecap:square;stroke-width:1.5;"/>
   </g>
   <g id="patch_3">
    <path d="M 63 384.48 
L 63 51.84 
" style="fill:none;stroke:#000000;stroke-linecap:square;stroke-linejoin:miter;stroke-width:0.8;"/>
   </g>
   <g id="patch_4">
    <path d="M 453.6 384.48 
L 453.6 51.84 
" style="fill:none;stroke:#000000;stroke-linecap:square;stroke-linejoin:miter;stroke-width:0.8;"/>
   </g>
   <g id="patch_5">
    <path d="M 63 384.48 
L 453.6 384.48 
" style="fill:none;stroke:#000000;stroke-linecap:square;stroke-linejoin:miter;stroke-width:0.8;"/>
   </g>
   <g id="patch_6">
    <path d="M 63 51.84 
L 453.6 51.84 
" style="fill:none;stroke:#000000;stroke-linecap:square;stroke-linejoin:miter;stroke-width:0.8;"/>
   </g>
   <g id="legend_1">
    <g id="patch_7">
     <path d="M 70 74.518125 
L 133.139062 74.518125 
Q 135.139062 74.518125 135.139062 72.518125 
L 135.139062 58.84 
Q 135.139062 56.84 133.139062 56.84 
L 70 56.84 
Q 68 56.84 68 58.84 
L 68 72.518125 
Q 68 74.518125 70 74.518125 
z
" style="fill:#ffffff;opacity:0.8;stroke:#cccccc;stroke-linejoin:miter;"/>
    </g>
    <g id="line2d_13">
     <path d="M 72 64.938438 
L 92 64.938438 
" style="fill:none;stroke:#ff0000;stroke-linecap:square;stroke-width:1.5;"/>
    </g>
    <g id="line2d_14"/>
    <g id="text_14">
     <!-- model -->
     <defs>
      <path d="M 45.40625 46.390625 
L 45.40625 75.984375 
L 54.390625 75.984375 
L 54.390625 0 
L 45.40625 0 
L 45.40625 8.203125 
Q 42.578125 3.328125 38.25 0.953125 
Q 33.9375 -1.421875 27.875 -1.421875 
Q 17.96875 -1.421875 11.734375 6.484375 
Q 5.515625 14.40625 5.515625 27.296875 
Q 5.515625 40.1875 11.734375 48.09375 
Q 17.96875 56 27.875 56 
Q 33.9375 56 38.25 53.625 
Q 42.578125 51.265625 45.40625 46.390625 
z
M 14.796875 27.296875 
Q 14.796875 17.390625 18.875 11.75 
Q 22.953125 6.109375 30.078125 6.109375 
Q 37.203125 6.109375 41.296875 11.75 
Q 45.40625 17.390625 45.40625 27.296875 
Q 45.40625 37.203125 41.296875 42.84375 
Q 37.203125 48.484375 30.078125 48.484375 
Q 22.953125 48.484375 18.875 42.84375 
Q 14.796875 37.203125 14.796875 27.296875 
z
" id="DejaVuSans-100"/>
     </defs>
     <g transform="translate(100 68.438438)scale(0.1 -0.1)">
      <use xlink:href="#DejaVuSans-109"/>
      <use x="97.412109" xlink:href="#DejaVuSans-111"/>
      <use x="158.59375" xlink:href="#DejaVuSans-100"/>
      <use x="222.070312" xlink:href="#DejaVuSans-101"/>
      <use x="283.59375" xlink:href="#DejaVuSans-108"/>
     </g>
    </g>
   </g>
  </g>
 </g>
 <defs>
  <clipPath id="p96ec146108">
   <rect height="332.64" width="390.6" x="63" y="51.84"/>
  </clipPath>
 </defs>
</svg>
