<?xml version="1.0" encoding="utf-8" standalone="no"?>
<!DOCTYPE svg PUBLIC "-//W3C//DTD SVG 1.1//EN"
  "http://www.w3.org/Graphics/SVG/1.1/DTD/svg11.dtd">
<!-- Created with matplotlib (https://matplotlib.org/) -->
<svg height="432pt" version="1.1" viewBox="0 0 504 432" width="504pt" xmlns="http://www.w3.org/2000/svg" xmlns:xlink="http://www.w3.org/1999/xlink">
 <metadata>
  <rdf:RDF xmlns:cc="http://creativecommons.org/ns#" xmlns:dc="http://purl.org/dc/elements/1.1/" xmlns:rdf="http://www.w3.org/1999/02/22-rdf-syntax-ns#">
   <cc:Work>
    <dc:type rdf:resource="http://purl.org/dc/dcmitype/StillImage"/>
    <dc:date>2021-02-02T14:40:40.326767</dc:date>
    <dc:format>image/svg+xml</dc:format>
    <dc:creator>
     <cc:Agent>
      <dc:title>Matplotlib v3.3.2, https://matplotlib.org/</dc:title>
     </cc:Agent>
    </dc:creator>
   </cc:Work>
  </rdf:RDF>
 </metadata>
 <defs>
  <style type="text/css">*{stroke-linecap:butt;stroke-linejoin:round;}</style>
 </defs>
 <g id="figure_1">
  <g id="patch_1">
   <path d="M 0 432 
L 504 432 
L 504 0 
L 0 0 
z
" style="fill:#ffffff;"/>
  </g>
  <g id="axes_1">
   <g id="patch_2">
    <path d="M 63 384.48 
L 453.6 384.48 
L 453.6 51.84 
L 63 51.84 
z
" style="fill:#ffffff;"/>
   </g>
   <g id="matplotlib.axis_1">
    <g id="xtick_1">
     <g id="line2d_1">
      <defs>
       <path d="M 0 0 
L 0 3.5 
" id="ma9369a3394" style="stroke:#000000;stroke-width:0.8;"/>
      </defs>
      <g>
       <use style="stroke:#000000;stroke-width:0.8;" x="80.754545" xlink:href="#ma9369a3394" y="384.48"/>
      </g>
     </g>
     <g id="text_1">
      <!-- 0 -->
      <g transform="translate(77.573295 399.078438)scale(0.1 -0.1)">
       <defs>
        <path d="M 31.78125 66.40625 
Q 24.171875 66.40625 20.328125 58.90625 
Q 16.5 51.421875 16.5 36.375 
Q 16.5 21.390625 20.328125 13.890625 
Q 24.171875 6.390625 31.78125 6.390625 
Q 39.453125 6.390625 43.28125 13.890625 
Q 47.125 21.390625 47.125 36.375 
Q 47.125 51.421875 43.28125 58.90625 
Q 39.453125 66.40625 31.78125 66.40625 
z
M 31.78125 74.21875 
Q 44.046875 74.21875 50.515625 64.515625 
Q 56.984375 54.828125 56.984375 36.375 
Q 56.984375 17.96875 50.515625 8.265625 
Q 44.046875 -1.421875 31.78125 -1.421875 
Q 19.53125 -1.421875 13.0625 8.265625 
Q 6.59375 17.96875 6.59375 36.375 
Q 6.59375 54.828125 13.0625 64.515625 
Q 19.53125 74.21875 31.78125 74.21875 
z
" id="DejaVuSans-48"/>
       </defs>
       <use xlink:href="#DejaVuSans-48"/>
      </g>
     </g>
    </g>
    <g id="xtick_2">
     <g id="line2d_2">
      <g>
       <use style="stroke:#000000;stroke-width:0.8;" x="151.772727" xlink:href="#ma9369a3394" y="384.48"/>
      </g>
     </g>
     <g id="text_2">
      <!-- 200 -->
      <g transform="translate(142.228977 399.078438)scale(0.1 -0.1)">
       <defs>
        <path d="M 19.1875 8.296875 
L 53.609375 8.296875 
L 53.609375 0 
L 7.328125 0 
L 7.328125 8.296875 
Q 12.9375 14.109375 22.625 23.890625 
Q 32.328125 33.6875 34.8125 36.53125 
Q 39.546875 41.84375 41.421875 45.53125 
Q 43.3125 49.21875 43.3125 52.78125 
Q 43.3125 58.59375 39.234375 62.25 
Q 35.15625 65.921875 28.609375 65.921875 
Q 23.96875 65.921875 18.8125 64.3125 
Q 13.671875 62.703125 7.8125 59.421875 
L 7.8125 69.390625 
Q 13.765625 71.78125 18.9375 73 
Q 24.125 74.21875 28.421875 74.21875 
Q 39.75 74.21875 46.484375 68.546875 
Q 53.21875 62.890625 53.21875 53.421875 
Q 53.21875 48.921875 51.53125 44.890625 
Q 49.859375 40.875 45.40625 35.40625 
Q 44.1875 33.984375 37.640625 27.21875 
Q 31.109375 20.453125 19.1875 8.296875 
z
" id="DejaVuSans-50"/>
       </defs>
       <use xlink:href="#DejaVuSans-50"/>
       <use x="63.623047" xlink:href="#DejaVuSans-48"/>
       <use x="127.246094" xlink:href="#DejaVuSans-48"/>
      </g>
     </g>
    </g>
    <g id="xtick_3">
     <g id="line2d_3">
      <g>
       <use style="stroke:#000000;stroke-width:0.8;" x="222.790909" xlink:href="#ma9369a3394" y="384.48"/>
      </g>
     </g>
     <g id="text_3">
      <!-- 400 -->
      <g transform="translate(213.247159 399.078438)scale(0.1 -0.1)">
       <defs>
        <path d="M 37.796875 64.3125 
L 12.890625 25.390625 
L 37.796875 25.390625 
z
M 35.203125 72.90625 
L 47.609375 72.90625 
L 47.609375 25.390625 
L 58.015625 25.390625 
L 58.015625 17.1875 
L 47.609375 17.1875 
L 47.609375 0 
L 37.796875 0 
L 37.796875 17.1875 
L 4.890625 17.1875 
L 4.890625 26.703125 
z
" id="DejaVuSans-52"/>
       </defs>
       <use xlink:href="#DejaVuSans-52"/>
       <use x="63.623047" xlink:href="#DejaVuSans-48"/>
       <use x="127.246094" xlink:href="#DejaVuSans-48"/>
      </g>
     </g>
    </g>
    <g id="xtick_4">
     <g id="line2d_4">
      <g>
       <use style="stroke:#000000;stroke-width:0.8;" x="293.809091" xlink:href="#ma9369a3394" y="384.48"/>
      </g>
     </g>
     <g id="text_4">
      <!-- 600 -->
      <g transform="translate(284.265341 399.078438)scale(0.1 -0.1)">
       <defs>
        <path d="M 33.015625 40.375 
Q 26.375 40.375 22.484375 35.828125 
Q 18.609375 31.296875 18.609375 23.390625 
Q 18.609375 15.53125 22.484375 10.953125 
Q 26.375 6.390625 33.015625 6.390625 
Q 39.65625 6.390625 43.53125 10.953125 
Q 47.40625 15.53125 47.40625 23.390625 
Q 47.40625 31.296875 43.53125 35.828125 
Q 39.65625 40.375 33.015625 40.375 
z
M 52.59375 71.296875 
L 52.59375 62.3125 
Q 48.875 64.0625 45.09375 64.984375 
Q 41.3125 65.921875 37.59375 65.921875 
Q 27.828125 65.921875 22.671875 59.328125 
Q 17.53125 52.734375 16.796875 39.40625 
Q 19.671875 43.65625 24.015625 45.921875 
Q 28.375 48.1875 33.59375 48.1875 
Q 44.578125 48.1875 50.953125 41.515625 
Q 57.328125 34.859375 57.328125 23.390625 
Q 57.328125 12.15625 50.6875 5.359375 
Q 44.046875 -1.421875 33.015625 -1.421875 
Q 20.359375 -1.421875 13.671875 8.265625 
Q 6.984375 17.96875 6.984375 36.375 
Q 6.984375 53.65625 15.1875 63.9375 
Q 23.390625 74.21875 37.203125 74.21875 
Q 40.921875 74.21875 44.703125 73.484375 
Q 48.484375 72.75 52.59375 71.296875 
z
" id="DejaVuSans-54"/>
       </defs>
       <use xlink:href="#DejaVuSans-54"/>
       <use x="63.623047" xlink:href="#DejaVuSans-48"/>
       <use x="127.246094" xlink:href="#DejaVuSans-48"/>
      </g>
     </g>
    </g>
    <g id="xtick_5">
     <g id="line2d_5">
      <g>
       <use style="stroke:#000000;stroke-width:0.8;" x="364.827273" xlink:href="#ma9369a3394" y="384.48"/>
      </g>
     </g>
     <g id="text_5">
      <!-- 800 -->
      <g transform="translate(355.283523 399.078438)scale(0.1 -0.1)">
       <defs>
        <path d="M 31.78125 34.625 
Q 24.75 34.625 20.71875 30.859375 
Q 16.703125 27.09375 16.703125 20.515625 
Q 16.703125 13.921875 20.71875 10.15625 
Q 24.75 6.390625 31.78125 6.390625 
Q 38.8125 6.390625 42.859375 10.171875 
Q 46.921875 13.96875 46.921875 20.515625 
Q 46.921875 27.09375 42.890625 30.859375 
Q 38.875 34.625 31.78125 34.625 
z
M 21.921875 38.8125 
Q 15.578125 40.375 12.03125 44.71875 
Q 8.5 49.078125 8.5 55.328125 
Q 8.5 64.0625 14.71875 69.140625 
Q 20.953125 74.21875 31.78125 74.21875 
Q 42.671875 74.21875 48.875 69.140625 
Q 55.078125 64.0625 55.078125 55.328125 
Q 55.078125 49.078125 51.53125 44.71875 
Q 48 40.375 41.703125 38.8125 
Q 48.828125 37.15625 52.796875 32.3125 
Q 56.78125 27.484375 56.78125 20.515625 
Q 56.78125 9.90625 50.3125 4.234375 
Q 43.84375 -1.421875 31.78125 -1.421875 
Q 19.734375 -1.421875 13.25 4.234375 
Q 6.78125 9.90625 6.78125 20.515625 
Q 6.78125 27.484375 10.78125 32.3125 
Q 14.796875 37.15625 21.921875 38.8125 
z
M 18.3125 54.390625 
Q 18.3125 48.734375 21.84375 45.5625 
Q 25.390625 42.390625 31.78125 42.390625 
Q 38.140625 42.390625 41.71875 45.5625 
Q 45.3125 48.734375 45.3125 54.390625 
Q 45.3125 60.0625 41.71875 63.234375 
Q 38.140625 66.40625 31.78125 66.40625 
Q 25.390625 66.40625 21.84375 63.234375 
Q 18.3125 60.0625 18.3125 54.390625 
z
" id="DejaVuSans-56"/>
       </defs>
       <use xlink:href="#DejaVuSans-56"/>
       <use x="63.623047" xlink:href="#DejaVuSans-48"/>
       <use x="127.246094" xlink:href="#DejaVuSans-48"/>
      </g>
     </g>
    </g>
    <g id="text_6">
     <!-- time [ms] -->
     <g transform="translate(234.038281 412.756563)scale(0.1 -0.1)">
      <defs>
       <path d="M 18.3125 70.21875 
L 18.3125 54.6875 
L 36.8125 54.6875 
L 36.8125 47.703125 
L 18.3125 47.703125 
L 18.3125 18.015625 
Q 18.3125 11.328125 20.140625 9.421875 
Q 21.96875 7.515625 27.59375 7.515625 
L 36.8125 7.515625 
L 36.8125 0 
L 27.59375 0 
Q 17.1875 0 13.234375 3.875 
Q 9.28125 7.765625 9.28125 18.015625 
L 9.28125 47.703125 
L 2.6875 47.703125 
L 2.6875 54.6875 
L 9.28125 54.6875 
L 9.28125 70.21875 
z
" id="DejaVuSans-116"/>
       <path d="M 9.421875 54.6875 
L 18.40625 54.6875 
L 18.40625 0 
L 9.421875 0 
z
M 9.421875 75.984375 
L 18.40625 75.984375 
L 18.40625 64.59375 
L 9.421875 64.59375 
z
" id="DejaVuSans-105"/>
       <path d="M 52 44.1875 
Q 55.375 50.25 60.0625 53.125 
Q 64.75 56 71.09375 56 
Q 79.640625 56 84.28125 50.015625 
Q 88.921875 44.046875 88.921875 33.015625 
L 88.921875 0 
L 79.890625 0 
L 79.890625 32.71875 
Q 79.890625 40.578125 77.09375 44.375 
Q 74.3125 48.1875 68.609375 48.1875 
Q 61.625 48.1875 57.5625 43.546875 
Q 53.515625 38.921875 53.515625 30.90625 
L 53.515625 0 
L 44.484375 0 
L 44.484375 32.71875 
Q 44.484375 40.625 41.703125 44.40625 
Q 38.921875 48.1875 33.109375 48.1875 
Q 26.21875 48.1875 22.15625 43.53125 
Q 18.109375 38.875 18.109375 30.90625 
L 18.109375 0 
L 9.078125 0 
L 9.078125 54.6875 
L 18.109375 54.6875 
L 18.109375 46.1875 
Q 21.1875 51.21875 25.484375 53.609375 
Q 29.78125 56 35.6875 56 
Q 41.65625 56 45.828125 52.96875 
Q 50 49.953125 52 44.1875 
z
" id="DejaVuSans-109"/>
       <path d="M 56.203125 29.59375 
L 56.203125 25.203125 
L 14.890625 25.203125 
Q 15.484375 15.921875 20.484375 11.0625 
Q 25.484375 6.203125 34.421875 6.203125 
Q 39.59375 6.203125 44.453125 7.46875 
Q 49.3125 8.734375 54.109375 11.28125 
L 54.109375 2.78125 
Q 49.265625 0.734375 44.1875 -0.34375 
Q 39.109375 -1.421875 33.890625 -1.421875 
Q 20.796875 -1.421875 13.15625 6.1875 
Q 5.515625 13.8125 5.515625 26.8125 
Q 5.515625 40.234375 12.765625 48.109375 
Q 20.015625 56 32.328125 56 
Q 43.359375 56 49.78125 48.890625 
Q 56.203125 41.796875 56.203125 29.59375 
z
M 47.21875 32.234375 
Q 47.125 39.59375 43.09375 43.984375 
Q 39.0625 48.390625 32.421875 48.390625 
Q 24.90625 48.390625 20.390625 44.140625 
Q 15.875 39.890625 15.1875 32.171875 
z
" id="DejaVuSans-101"/>
       <path id="DejaVuSans-32"/>
       <path d="M 8.59375 75.984375 
L 29.296875 75.984375 
L 29.296875 69 
L 17.578125 69 
L 17.578125 -6.203125 
L 29.296875 -6.203125 
L 29.296875 -13.1875 
L 8.59375 -13.1875 
z
" id="DejaVuSans-91"/>
       <path d="M 44.28125 53.078125 
L 44.28125 44.578125 
Q 40.484375 46.53125 36.375 47.5 
Q 32.28125 48.484375 27.875 48.484375 
Q 21.1875 48.484375 17.84375 46.4375 
Q 14.5 44.390625 14.5 40.28125 
Q 14.5 37.15625 16.890625 35.375 
Q 19.28125 33.59375 26.515625 31.984375 
L 29.59375 31.296875 
Q 39.15625 29.25 43.1875 25.515625 
Q 47.21875 21.78125 47.21875 15.09375 
Q 47.21875 7.46875 41.1875 3.015625 
Q 35.15625 -1.421875 24.609375 -1.421875 
Q 20.21875 -1.421875 15.453125 -0.5625 
Q 10.6875 0.296875 5.421875 2 
L 5.421875 11.28125 
Q 10.40625 8.6875 15.234375 7.390625 
Q 20.0625 6.109375 24.8125 6.109375 
Q 31.15625 6.109375 34.5625 8.28125 
Q 37.984375 10.453125 37.984375 14.40625 
Q 37.984375 18.0625 35.515625 20.015625 
Q 33.0625 21.96875 24.703125 23.78125 
L 21.578125 24.515625 
Q 13.234375 26.265625 9.515625 29.90625 
Q 5.8125 33.546875 5.8125 39.890625 
Q 5.8125 47.609375 11.28125 51.796875 
Q 16.75 56 26.8125 56 
Q 31.78125 56 36.171875 55.265625 
Q 40.578125 54.546875 44.28125 53.078125 
z
" id="DejaVuSans-115"/>
       <path d="M 30.421875 75.984375 
L 30.421875 -13.1875 
L 9.71875 -13.1875 
L 9.71875 -6.203125 
L 21.390625 -6.203125 
L 21.390625 69 
L 9.71875 69 
L 9.71875 75.984375 
z
" id="DejaVuSans-93"/>
      </defs>
      <use xlink:href="#DejaVuSans-116"/>
      <use x="39.208984" xlink:href="#DejaVuSans-105"/>
      <use x="66.992188" xlink:href="#DejaVuSans-109"/>
      <use x="164.404297" xlink:href="#DejaVuSans-101"/>
      <use x="225.927734" xlink:href="#DejaVuSans-32"/>
      <use x="257.714844" xlink:href="#DejaVuSans-91"/>
      <use x="296.728516" xlink:href="#DejaVuSans-109"/>
      <use x="394.140625" xlink:href="#DejaVuSans-115"/>
      <use x="446.240234" xlink:href="#DejaVuSans-93"/>
     </g>
    </g>
   </g>
   <g id="matplotlib.axis_2">
    <g id="ytick_1">
     <g id="line2d_6">
      <defs>
       <path d="M 0 0 
L -3.5 0 
" id="m1f9399d3d3" style="stroke:#000000;stroke-width:0.8;"/>
      </defs>
      <g>
       <use style="stroke:#000000;stroke-width:0.8;" x="63" xlink:href="#m1f9399d3d3" y="378.410004"/>
      </g>
     </g>
     <g id="text_7">
      <!-- −80 -->
      <g transform="translate(34.895313 382.209223)scale(0.1 -0.1)">
       <defs>
        <path d="M 10.59375 35.5 
L 73.1875 35.5 
L 73.1875 27.203125 
L 10.59375 27.203125 
z
" id="DejaVuSans-8722"/>
       </defs>
       <use xlink:href="#DejaVuSans-8722"/>
       <use x="83.789062" xlink:href="#DejaVuSans-56"/>
       <use x="147.412109" xlink:href="#DejaVuSans-48"/>
      </g>
     </g>
    </g>
    <g id="ytick_2">
     <g id="line2d_7">
      <g>
       <use style="stroke:#000000;stroke-width:0.8;" x="63" xlink:href="#m1f9399d3d3" y="327.19973"/>
      </g>
     </g>
     <g id="text_8">
      <!-- −60 -->
      <g transform="translate(34.895313 330.998949)scale(0.1 -0.1)">
       <use xlink:href="#DejaVuSans-8722"/>
       <use x="83.789062" xlink:href="#DejaVuSans-54"/>
       <use x="147.412109" xlink:href="#DejaVuSans-48"/>
      </g>
     </g>
    </g>
    <g id="ytick_3">
     <g id="line2d_8">
      <g>
       <use style="stroke:#000000;stroke-width:0.8;" x="63" xlink:href="#m1f9399d3d3" y="275.989456"/>
      </g>
     </g>
     <g id="text_9">
      <!-- −40 -->
      <g transform="translate(34.895313 279.788675)scale(0.1 -0.1)">
       <use xlink:href="#DejaVuSans-8722"/>
       <use x="83.789062" xlink:href="#DejaVuSans-52"/>
       <use x="147.412109" xlink:href="#DejaVuSans-48"/>
      </g>
     </g>
    </g>
    <g id="ytick_4">
     <g id="line2d_9">
      <g>
       <use style="stroke:#000000;stroke-width:0.8;" x="63" xlink:href="#m1f9399d3d3" y="224.779182"/>
      </g>
     </g>
     <g id="text_10">
      <!-- −20 -->
      <g transform="translate(34.895313 228.578401)scale(0.1 -0.1)">
       <use xlink:href="#DejaVuSans-8722"/>
       <use x="83.789062" xlink:href="#DejaVuSans-50"/>
       <use x="147.412109" xlink:href="#DejaVuSans-48"/>
      </g>
     </g>
    </g>
    <g id="ytick_5">
     <g id="line2d_10">
      <g>
       <use style="stroke:#000000;stroke-width:0.8;" x="63" xlink:href="#m1f9399d3d3" y="173.568908"/>
      </g>
     </g>
     <g id="text_11">
      <!-- 0 -->
      <g transform="translate(49.6375 177.368127)scale(0.1 -0.1)">
       <use xlink:href="#DejaVuSans-48"/>
      </g>
     </g>
    </g>
    <g id="ytick_6">
     <g id="line2d_11">
      <g>
       <use style="stroke:#000000;stroke-width:0.8;" x="63" xlink:href="#m1f9399d3d3" y="122.358634"/>
      </g>
     </g>
     <g id="text_12">
      <!-- 20 -->
      <g transform="translate(43.275 126.157853)scale(0.1 -0.1)">
       <use xlink:href="#DejaVuSans-50"/>
       <use x="63.623047" xlink:href="#DejaVuSans-48"/>
      </g>
     </g>
    </g>
    <g id="ytick_7">
     <g id="line2d_12">
      <g>
       <use style="stroke:#000000;stroke-width:0.8;" x="63" xlink:href="#m1f9399d3d3" y="71.14836"/>
      </g>
     </g>
     <g id="text_13">
      <!-- 40 -->
      <g transform="translate(43.275 74.947579)scale(0.1 -0.1)">
       <use xlink:href="#DejaVuSans-52"/>
       <use x="63.623047" xlink:href="#DejaVuSans-48"/>
      </g>
     </g>
    </g>
    <g id="text_14">
     <!-- voltage [mV] -->
     <g transform="translate(28.815625 250.624062)rotate(-90)scale(0.1 -0.1)">
      <defs>
       <path d="M 2.984375 54.6875 
L 12.5 54.6875 
L 29.59375 8.796875 
L 46.6875 54.6875 
L 56.203125 54.6875 
L 35.6875 0 
L 23.484375 0 
z
" id="DejaVuSans-118"/>
       <path d="M 30.609375 48.390625 
Q 23.390625 48.390625 19.1875 42.75 
Q 14.984375 37.109375 14.984375 27.296875 
Q 14.984375 17.484375 19.15625 11.84375 
Q 23.34375 6.203125 30.609375 6.203125 
Q 37.796875 6.203125 41.984375 11.859375 
Q 46.1875 17.53125 46.1875 27.296875 
Q 46.1875 37.015625 41.984375 42.703125 
Q 37.796875 48.390625 30.609375 48.390625 
z
M 30.609375 56 
Q 42.328125 56 49.015625 48.375 
Q 55.71875 40.765625 55.71875 27.296875 
Q 55.71875 13.875 49.015625 6.21875 
Q 42.328125 -1.421875 30.609375 -1.421875 
Q 18.84375 -1.421875 12.171875 6.21875 
Q 5.515625 13.875 5.515625 27.296875 
Q 5.515625 40.765625 12.171875 48.375 
Q 18.84375 56 30.609375 56 
z
" id="DejaVuSans-111"/>
       <path d="M 9.421875 75.984375 
L 18.40625 75.984375 
L 18.40625 0 
L 9.421875 0 
z
" id="DejaVuSans-108"/>
       <path d="M 34.28125 27.484375 
Q 23.390625 27.484375 19.1875 25 
Q 14.984375 22.515625 14.984375 16.5 
Q 14.984375 11.71875 18.140625 8.90625 
Q 21.296875 6.109375 26.703125 6.109375 
Q 34.1875 6.109375 38.703125 11.40625 
Q 43.21875 16.703125 43.21875 25.484375 
L 43.21875 27.484375 
z
M 52.203125 31.203125 
L 52.203125 0 
L 43.21875 0 
L 43.21875 8.296875 
Q 40.140625 3.328125 35.546875 0.953125 
Q 30.953125 -1.421875 24.3125 -1.421875 
Q 15.921875 -1.421875 10.953125 3.296875 
Q 6 8.015625 6 15.921875 
Q 6 25.140625 12.171875 29.828125 
Q 18.359375 34.515625 30.609375 34.515625 
L 43.21875 34.515625 
L 43.21875 35.40625 
Q 43.21875 41.609375 39.140625 45 
Q 35.0625 48.390625 27.6875 48.390625 
Q 23 48.390625 18.546875 47.265625 
Q 14.109375 46.140625 10.015625 43.890625 
L 10.015625 52.203125 
Q 14.9375 54.109375 19.578125 55.046875 
Q 24.21875 56 28.609375 56 
Q 40.484375 56 46.34375 49.84375 
Q 52.203125 43.703125 52.203125 31.203125 
z
" id="DejaVuSans-97"/>
       <path d="M 45.40625 27.984375 
Q 45.40625 37.75 41.375 43.109375 
Q 37.359375 48.484375 30.078125 48.484375 
Q 22.859375 48.484375 18.828125 43.109375 
Q 14.796875 37.75 14.796875 27.984375 
Q 14.796875 18.265625 18.828125 12.890625 
Q 22.859375 7.515625 30.078125 7.515625 
Q 37.359375 7.515625 41.375 12.890625 
Q 45.40625 18.265625 45.40625 27.984375 
z
M 54.390625 6.78125 
Q 54.390625 -7.171875 48.1875 -13.984375 
Q 42 -20.796875 29.203125 -20.796875 
Q 24.46875 -20.796875 20.265625 -20.09375 
Q 16.0625 -19.390625 12.109375 -17.921875 
L 12.109375 -9.1875 
Q 16.0625 -11.328125 19.921875 -12.34375 
Q 23.78125 -13.375 27.78125 -13.375 
Q 36.625 -13.375 41.015625 -8.765625 
Q 45.40625 -4.15625 45.40625 5.171875 
L 45.40625 9.625 
Q 42.625 4.78125 38.28125 2.390625 
Q 33.9375 0 27.875 0 
Q 17.828125 0 11.671875 7.65625 
Q 5.515625 15.328125 5.515625 27.984375 
Q 5.515625 40.671875 11.671875 48.328125 
Q 17.828125 56 27.875 56 
Q 33.9375 56 38.28125 53.609375 
Q 42.625 51.21875 45.40625 46.390625 
L 45.40625 54.6875 
L 54.390625 54.6875 
z
" id="DejaVuSans-103"/>
       <path d="M 28.609375 0 
L 0.78125 72.90625 
L 11.078125 72.90625 
L 34.1875 11.53125 
L 57.328125 72.90625 
L 67.578125 72.90625 
L 39.796875 0 
z
" id="DejaVuSans-86"/>
      </defs>
      <use xlink:href="#DejaVuSans-118"/>
      <use x="59.179688" xlink:href="#DejaVuSans-111"/>
      <use x="120.361328" xlink:href="#DejaVuSans-108"/>
      <use x="148.144531" xlink:href="#DejaVuSans-116"/>
      <use x="187.353516" xlink:href="#DejaVuSans-97"/>
      <use x="248.632812" xlink:href="#DejaVuSans-103"/>
      <use x="312.109375" xlink:href="#DejaVuSans-101"/>
      <use x="373.632812" xlink:href="#DejaVuSans-32"/>
      <use x="405.419922" xlink:href="#DejaVuSans-91"/>
      <use x="444.433594" xlink:href="#DejaVuSans-109"/>
      <use x="541.845703" xlink:href="#DejaVuSans-86"/>
      <use x="610.253906" xlink:href="#DejaVuSans-93"/>
     </g>
    </g>
   </g>
   <g id="line2d_13">
    <path clip-path="url(#p3fa0205333)" d="M 80.754545 340.002299 
L 81.970732 339.868896 
L 83.817205 339.926764 
L 87.847486 339.931885 
L 151.772727 339.934957 
L 152.314241 296.504036 
L 152.420768 249.06207 
L 152.562805 71.978479 
L 152.678209 96.577334 
L 153.565936 365.83993 
L 153.610323 365.741863 
L 153.8145 364.396825 
L 154.293873 359.759735 
L 154.959668 350.862206 
L 157.42755 312.925122 
L 157.613973 302.070849 
L 157.738255 280.644214 
L 157.835905 219.622564 
L 157.969064 95.741838 
L 158.031205 108.571548 
L 158.883423 365.425895 
L 158.945564 365.246915 
L 159.203005 363.316288 
L 159.717886 357.782506 
L 160.534595 346.148044 
L 161.8218 328.462576 
L 162.514227 318.350339 
L 162.771668 311.014211 
L 162.940336 299.317016 
L 163.064618 272.036791 
L 163.162268 189.708159 
L 163.268795 96.639554 
L 163.322059 105.919368 
L 163.863573 296.232622 
L 164.147645 365.253573 
L 164.183155 365.394913 
L 164.245295 365.217982 
L 164.493859 363.361097 
L 165.008741 357.846519 
L 165.834327 346.091969 
L 167.112655 328.535294 
L 167.813959 318.315772 
L 168.0714 310.97017 
L 168.240068 299.234568 
L 168.36435 271.796615 
L 168.462 188.980845 
L 168.568527 96.714577 
L 168.621791 106.135987 
L 169.172182 300.087475 
L 169.4385 365.169844 
L 169.482886 365.392865 
L 169.545027 365.212093 
L 169.802468 363.273528 
L 170.31735 357.722334 
L 171.151814 345.810056 
L 172.430141 328.298447 
L 173.113691 318.297848 
L 173.371132 310.934579 
L 173.5398 299.141109 
L 173.664082 271.466821 
L 173.761732 187.857778 
L 173.868259 96.730965 
L 173.921523 106.366178 
L 174.480791 304.058832 
L 174.729355 365.063071 
L 174.782618 365.392865 
L 174.844759 365.207996 
L 175.1022 363.266358 
L 175.617082 357.711836 
L 176.451545 345.797509 
L 177.729873 328.287949 
L 178.413423 318.281461 
L 178.670864 310.8995 
L 178.839532 299.04637 
L 178.963814 271.128321 
L 179.061464 186.701834 
L 179.167991 96.747864 
L 179.221255 106.598928 
L 179.7894 308.130817 
L 180.029086 365.075105 
L 180.08235 365.393121 
L 180.144491 365.203643 
L 180.401932 363.259189 
L 180.916814 357.701594 
L 181.751277 345.785475 
L 183.029605 328.277707 
L 183.713155 318.264818 
L 183.970595 310.864165 
L 184.139264 298.950607 
L 184.263545 270.781883 
L 184.361195 185.52556 
L 184.467723 96.771165 
L 184.520986 106.835264 
L 185.098009 312.29242 
L 185.328818 365.086883 
L 185.382082 365.393121 
L 185.444223 365.199546 
L 185.701664 363.251763 
L 186.216545 357.691352 
L 187.051009 345.773185 
L 188.329336 328.267464 
L 189.012886 318.24843 
L 189.270327 310.828574 
L 189.438995 298.853307 
L 189.563277 270.430325 
L 189.660927 184.3446 
L 189.767455 96.800098 
L 189.820718 107.073904 
L 190.406618 316.524437 
L 190.619673 364.956297 
L 190.681814 365.392865 
L 190.743955 365.195193 
L 191.010273 363.165218 
L 191.525155 357.568959 
L 192.368495 345.494601 
L 193.637945 328.14456 
L 194.312618 318.231531 
L 194.570059 310.792983 
L 194.738727 298.755496 
L 194.863009 270.075438 
L 194.969536 170.127194 
L 195.058309 96.78704 
L 195.12045 107.315104 
L 195.715227 320.801519 
L 195.919405 364.971404 
L 195.981545 365.392865 
L 196.043686 365.19084 
L 196.310005 363.157792 
L 196.833764 357.446054 
L 197.703736 344.950492 
L 198.955432 327.909249 
L 199.61235 318.214888 
L 199.869791 310.756879 
L 200.038459 298.65666 
L 200.162741 269.713381 
L 200.269268 168.894793 
L 200.358041 96.758362 
L 200.420182 107.560401 
L 201.023836 325.087563 
L 201.219136 364.985743 
L 201.281277 365.392353 
L 201.343418 365.186487 
L 201.609736 363.150367 
L 202.133495 357.4353 
L 202.994591 345.070836 
L 204.255164 327.898751 
L 204.912082 318.197732 
L 205.169523 310.720264 
L 205.338191 298.556288 
L 205.462473 269.343899 
L 205.569 167.654121 
L 205.657773 96.736598 
L 205.719914 107.807491 
L 206.332445 329.335711 
L 206.518868 365.000082 
L 206.581009 365.392097 
L 206.634273 365.227456 
L 206.873959 363.45686 
L 207.388841 357.982994 
L 208.187795 346.656306 
L 209.510509 328.449773 
L 210.202936 318.360581 
L 210.460377 311.066702 
L 210.629045 299.495996 
L 210.753327 272.726338 
L 210.850977 192.206042 
L 210.957505 96.721747 
L 211.019645 108.055605 
L 211.641055 333.493217 
L 211.827477 365.14219 
L 211.880741 365.391585 
L 211.934005 365.223359 
L 212.182568 363.371851 
L 212.69745 357.861882 
L 213.514159 346.243807 
L 214.810241 328.439275 
L 215.502668 318.343938 
L 215.760109 311.031623 
L 215.928777 299.402025 
L 216.053059 272.395263 
L 216.150709 191.05586 
L 216.257236 96.715601 
L 216.319377 108.303206 
L 216.949664 337.498116 
L 217.127209 365.152433 
L 217.171595 365.392097 
L 217.233736 365.219262 
L 217.4823 363.364682 
L 217.997182 357.85164 
L 218.822768 346.098114 
L 220.101095 328.540927 
L 220.8024 318.327294 
L 221.059841 310.9968 
L 221.228509 299.308311 
L 221.352791 272.062908 
L 221.450441 189.90624 
L 221.556968 96.716114 
L 221.610232 105.955471 
L 222.151745 296.286648 
L 222.426941 365.162162 
L 222.471327 365.392353 
L 222.533468 365.215165 
L 222.782032 363.357512 
L 223.296914 357.841398 
L 224.1225 346.085567 
L 225.418582 328.306384 
L 226.111009 318.130135 
L 226.36845 310.574571 
L 226.537118 298.153007 
L 226.652523 271.727993 
L 226.750173 188.752037 
L 226.8567 96.722003 
L 226.909964 106.187198 
L 227.460355 300.160962 
L 227.726673 365.171636 
L 227.771059 365.392865 
L 227.8332 365.211068 
L 228.090641 363.271735 
L 228.605523 357.719773 
L 229.439986 345.806983 
L 230.718314 328.295886 
L 231.401864 318.294008 
L 231.659305 310.926385 
L 231.827973 299.119601 
L 231.952255 271.390774 
L 232.049905 187.59763 
L 232.156432 96.734549 
L 232.209695 106.418668 
L 232.768964 304.135391 
L 233.017527 365.065887 
L 233.070791 365.392865 
L 233.132932 365.206971 
L 233.390373 363.264566 
L 233.905255 357.709531 
L 234.739718 345.794693 
L 236.018045 328.285644 
L 236.701595 318.27762 
L 236.959036 310.891562 
L 237.127705 299.024862 
L 237.251986 271.050481 
L 237.349636 186.436616 
L 237.456164 96.752473 
L 237.509427 106.652443 
L 238.077573 308.20968 
L 238.317259 365.077666 
L 238.370523 365.393121 
L 238.432664 365.202875 
L 238.690105 363.257396 
L 239.204986 357.699289 
L 240.03945 345.782658 
L 241.317777 328.275402 
L 242.001327 318.261233 
L 242.258768 310.856227 
L 242.427436 298.928586 
L 242.551718 270.702251 
L 242.649368 185.257602 
L 242.755895 96.77731 
L 242.809159 106.889291 
L 243.386182 312.373076 
L 243.616991 365.089444 
L 243.670255 365.393121 
L 243.732395 365.198522 
L 243.989836 363.250227 
L 244.504718 357.689047 
L 245.348059 345.637221 
L 246.617509 328.264904 
L 247.301059 318.24459 
L 247.5585 310.820636 
L 247.727168 298.831031 
L 247.85145 270.350181 
L 247.9491 184.07549 
L 248.055627 96.80778 
L 248.108891 107.128443 
L 248.694791 316.606885 
L 248.907845 364.959882 
L 248.969986 365.392865 
L 249.032127 365.194425 
L 249.298445 363.163682 
L 249.822205 357.454248 
L 250.692177 344.960221 
L 251.943873 327.917442 
L 252.600791 318.22769 
L 252.858232 310.784789 
L 253.0269 298.732963 
L 253.151182 269.993501 
L 253.257709 169.846613 
L 253.346482 96.77987 
L 253.408623 107.370923 
L 254.0034 320.885503 
L 254.207577 364.974733 
L 254.269718 365.392609 
L 254.331859 365.190072 
L 254.598177 363.156256 
L 255.121936 357.443494 
L 255.983032 345.080566 
L 257.22585 328.131757 
L 257.900523 318.211047 
L 258.157964 310.748686 
L 258.326632 298.633871 
L 258.450914 269.629652 
L 258.557441 168.611677 
L 258.646214 96.752729 
L 258.708355 107.616989 
L 259.312009 325.171547 
L 259.507309 364.989072 
L 259.56945 365.392353 
L 259.631591 365.185463 
L 259.897909 363.148575 
L 260.421668 357.432996 
L 261.291641 344.935384 
L 262.525582 328.121259 
L 263.200255 318.193891 
L 263.457695 310.71207 
L 263.626364 298.533243 
L 263.750645 269.25889 
L 263.857173 167.370493 
L 263.945945 96.732501 
L 264.008086 107.864078 
L 264.620618 329.418415 
L 264.807041 365.003411 
L 264.869182 365.391841 
L 264.922445 365.226687 
L 265.171009 363.377484 
L 265.685891 357.870076 
L 266.511477 346.120134 
L 267.807559 328.335318 
L 268.499986 318.176992 
L 268.757427 310.675455 
L 268.926095 298.432615 
L 269.050377 268.888128 
L 269.156905 166.138553 
L 269.245677 96.719698 
L 269.298941 105.547069 
L 269.8227 288.912113 
L 270.133405 365.306832 
L 270.168914 365.391585 
L 270.222177 365.222591 
L 270.470741 363.370315 
L 270.985623 357.859577 
L 271.802332 346.24099 
L 273.098414 328.436971 
L 273.790841 318.340097 
L 274.048282 311.023685 
L 274.21695 299.380773 
L 274.341232 272.319472 
L 274.438882 190.792741 
L 274.545409 96.715345 
L 274.598673 105.777259 
L 275.131309 292.586706 
L 275.424259 365.246403 
L 275.459768 365.392097 
L 275.521909 365.218494 
L 275.770473 363.363146 
L 276.285355 357.849335 
L 277.110941 346.095297 
L 278.389268 328.538623 
L 279.090573 318.323453 
L 279.348014 310.988606 
L 279.516682 299.286802 
L 279.640964 271.986605 
L 279.738614 189.643019 
L 279.845141 96.716626 
L 279.898405 106.008474 
L 280.439918 296.360647 
L 280.715114 365.164211 
L 280.7595 365.392609 
L 280.821641 365.214397 
L 281.079082 363.277368 
L 281.593964 357.727711 
L 282.428427 345.816457 
L 283.706755 328.303824 
L 284.390305 318.30681 
L 284.647745 310.953527 
L 284.816414 299.192575 
L 284.940695 271.651178 
L 285.038345 188.488714 
L 285.144873 96.724307 
L 285.198136 106.239944 
L 285.748527 300.235985 
L 286.014845 365.173685 
L 286.059232 365.392865 
L 286.121373 365.210044 
L 286.378814 363.270199 
L 286.893695 357.717469 
L 287.728159 345.804167 
L 289.006486 328.293582 
L 289.690036 318.290423 
L 289.947477 310.918448 
L 290.116145 299.098092 
L 290.240427 271.313446 
L 290.338077 187.333436 
L 290.444605 96.738134 
L 290.497868 106.471671 
L 291.057136 304.212719 
L 291.3057 365.068704 
L 291.358964 365.393121 
L 291.421105 365.205947 
L 291.678545 363.263029 
L 292.193427 357.707227 
L 293.027891 345.791876 
L 294.315095 328.170933 
L 294.989768 318.27378 
L 295.247209 310.883369 
L 295.415877 299.003097 
L 295.540159 270.971618 
L 295.637809 186.168607 
L 295.744336 96.757594 
L 295.7976 106.706214 
L 296.365745 308.289056 
L 296.605432 365.080482 
L 296.658695 365.393121 
L 296.720836 365.20185 
L 296.978277 363.25586 
L 297.493159 357.696985 
L 298.327623 345.779842 
L 299.60595 328.273098 
L 300.2895 318.257392 
L 300.546941 310.848034 
L 300.715609 298.90631 
L 300.839891 270.622363 
L 300.937541 184.98926 
L 301.044068 96.783711 
L 301.097332 106.943317 
L 301.674355 312.453732 
L 301.905164 365.092004 
L 301.958427 365.393121 
L 302.020568 365.197754 
L 302.286886 363.169315 
L 302.810645 357.462186 
L 303.671741 345.102586 
L 304.914559 328.150449 
L 305.589232 318.240749 
L 305.846673 310.812443 
L 306.015341 298.80901 
L 306.139623 270.269781 
L 306.24615 170.794463 
L 306.334923 96.805219 
L 306.397064 107.183237 
L 306.982964 316.689334 
L 307.196018 364.963211 
L 307.258159 365.392865 
L 307.3203 365.193401 
L 307.586618 363.161889 
L 308.110377 357.451688 
L 308.971473 345.090296 
L 310.214291 328.139951 
L 310.888964 318.224106 
L 311.146405 310.776595 
L 311.315073 298.710687 
L 311.439355 269.911309 
L 311.545882 169.56703 
L 311.634655 96.773213 
L 311.696795 107.426486 
L 312.291573 320.968976 
L 312.49575 364.978062 
L 312.557891 365.392609 
L 312.620032 365.189048 
L 312.88635 363.154464 
L 313.410109 357.441189 
L 314.280082 344.944858 
L 315.531777 327.904384 
L 316.188695 318.20695 
L 316.446136 310.740236 
L 316.614805 298.611083 
L 316.739086 269.54618 
L 316.845614 168.329636 
L 316.934386 96.747608 
L 316.996527 107.673064 
L 317.600182 325.255276 
L 317.795482 364.9924 
L 317.857623 365.392353 
L 317.910886 365.22976 
L 318.15945 363.383118 
L 318.674332 357.878013 
L 319.491041 346.263011 
L 320.796 328.343256 
L 321.488427 318.190051 
L 321.745868 310.703621 
L 321.914536 298.510198 
L 322.038818 269.174137 
L 322.145345 167.088222 
L 322.234118 96.728916 
L 322.296259 107.920665 
L 322.908791 329.500864 
L 323.095214 365.006739 
L 323.157355 365.391841 
L 323.210618 365.225663 
L 323.459182 363.375948 
L 323.974064 357.867515 
L 324.790773 346.250464 
L 326.095732 328.332758 
L 326.779282 318.352899 
L 327.036723 311.050826 
L 327.205391 299.453236 
L 327.329673 272.575523 
L 327.427323 191.681649 
L 327.53385 96.717906 
L 327.595991 108.168523 
L 328.2174 333.652481 
L 328.403823 365.146799 
L 328.457086 365.391328 
L 328.51035 365.221566 
L 328.758914 363.368523 
L 329.273795 357.857273 
L 329.318182 357.296264 
L 329.335936 358.175545 
L 329.531236 362.074695 
L 329.620009 362.258284 
L 329.664395 362.202209 
L 329.815309 361.609194 
L 330.214786 358.856385 
L 332.176664 344.435316 
L 332.869091 341.286652 
L 333.428359 339.66892 
L 333.889977 338.942758 
L 334.262823 338.721018 
L 334.617914 338.760194 
L 335.106164 339.075649 
L 336.553159 340.104463 
L 337.165691 340.198946 
L 338.115559 340.088076 
L 339.908768 339.88938 
L 342.110332 339.937006 
L 345.821032 339.932909 
L 435.845455 339.934957 
L 435.845455 339.934957 
" style="fill:none;stroke:#1f77b4;stroke-linecap:square;stroke-width:1.5;"/>
   </g>
   <g id="line2d_14">
    <path clip-path="url(#p3fa0205333)" d="M 80.754545 340.002299 
L 80.949845 354.558284 
L 81.109636 355.91031 
L 81.118514 355.908579 
L 81.198409 355.743617 
L 81.491359 354.355004 
L 82.219295 351.176574 
L 82.778564 349.661697 
L 83.293445 348.849615 
L 83.808327 348.433307 
L 84.438614 348.220128 
L 85.512764 348.130396 
L 90.430773 348.112468 
L 151.772727 348.110905 
L 152.021291 330.469086 
L 152.216591 314.770487 
L 152.305364 285.846757 
L 152.367505 174.106029 
L 152.438523 66.96 
L 152.500664 77.423479 
L 152.758105 177.690319 
L 153.272986 369.36 
L 153.344005 369.266045 
L 153.725727 368.247674 
L 154.160714 366.41333 
L 154.657841 363.246995 
L 155.350268 357.182272 
L 156.513191 347.127394 
L 157.081336 344.068099 
L 157.542955 342.642143 
L 157.960186 342.01038 
L 158.368541 341.766422 
L 158.945564 341.712994 
L 166.029627 341.739997 
L 329.318182 341.739787 
L 329.513482 353.102093 
L 329.691027 354.481232 
L 329.770923 354.377875 
L 330.001732 353.48863 
L 330.782932 350.505893 
L 331.324445 349.29163 
L 331.83045 348.658163 
L 332.371964 348.331791 
L 333.0999 348.172366 
L 334.6623 348.118044 
L 354.09465 348.110913 
L 435.845455 348.110905 
L 435.845455 348.110905 
" style="fill:none;stroke:#ff0000;stroke-linecap:square;stroke-width:1.5;"/>
   </g>
   <g id="patch_3">
    <path d="M 63 384.48 
L 63 51.84 
" style="fill:none;stroke:#000000;stroke-linecap:square;stroke-linejoin:miter;stroke-width:0.8;"/>
   </g>
   <g id="patch_4">
    <path d="M 453.6 384.48 
L 453.6 51.84 
" style="fill:none;stroke:#000000;stroke-linecap:square;stroke-linejoin:miter;stroke-width:0.8;"/>
   </g>
   <g id="patch_5">
    <path d="M 63 384.48 
L 453.6 384.48 
" style="fill:none;stroke:#000000;stroke-linecap:square;stroke-linejoin:miter;stroke-width:0.8;"/>
   </g>
   <g id="patch_6">
    <path d="M 63 51.84 
L 453.6 51.84 
" style="fill:none;stroke:#000000;stroke-linecap:square;stroke-linejoin:miter;stroke-width:0.8;"/>
   </g>
   <g id="legend_1">
    <g id="patch_7">
     <path d="M 383.460938 89.19625 
L 446.6 89.19625 
Q 448.6 89.19625 448.6 87.19625 
L 448.6 58.84 
Q 448.6 56.84 446.6 56.84 
L 383.460938 56.84 
Q 381.460938 56.84 381.460938 58.84 
L 381.460938 87.19625 
Q 381.460938 89.19625 383.460938 89.19625 
z
" style="fill:#ffffff;opacity:0.8;stroke:#cccccc;stroke-linejoin:miter;"/>
    </g>
    <g id="line2d_15">
     <path d="M 385.460938 64.938437 
L 405.460938 64.938437 
" style="fill:none;stroke:#1f77b4;stroke-linecap:square;stroke-width:1.5;"/>
    </g>
    <g id="line2d_16"/>
    <g id="text_15">
     <!-- target -->
     <g transform="translate(413.460938 68.438437)scale(0.1 -0.1)">
      <defs>
       <path d="M 41.109375 46.296875 
Q 39.59375 47.171875 37.8125 47.578125 
Q 36.03125 48 33.890625 48 
Q 26.265625 48 22.1875 43.046875 
Q 18.109375 38.09375 18.109375 28.8125 
L 18.109375 0 
L 9.078125 0 
L 9.078125 54.6875 
L 18.109375 54.6875 
L 18.109375 46.1875 
Q 20.953125 51.171875 25.484375 53.578125 
Q 30.03125 56 36.53125 56 
Q 37.453125 56 38.578125 55.875 
Q 39.703125 55.765625 41.0625 55.515625 
z
" id="DejaVuSans-114"/>
      </defs>
      <use xlink:href="#DejaVuSans-116"/>
      <use x="39.208984" xlink:href="#DejaVuSans-97"/>
      <use x="100.488281" xlink:href="#DejaVuSans-114"/>
      <use x="139.851562" xlink:href="#DejaVuSans-103"/>
      <use x="203.328125" xlink:href="#DejaVuSans-101"/>
      <use x="264.851562" xlink:href="#DejaVuSans-116"/>
     </g>
    </g>
    <g id="line2d_17">
     <path d="M 385.460938 79.616562 
L 405.460938 79.616562 
" style="fill:none;stroke:#ff0000;stroke-linecap:square;stroke-width:1.5;"/>
    </g>
    <g id="line2d_18"/>
    <g id="text_16">
     <!-- model -->
     <g transform="translate(413.460938 83.116562)scale(0.1 -0.1)">
      <defs>
       <path d="M 45.40625 46.390625 
L 45.40625 75.984375 
L 54.390625 75.984375 
L 54.390625 0 
L 45.40625 0 
L 45.40625 8.203125 
Q 42.578125 3.328125 38.25 0.953125 
Q 33.9375 -1.421875 27.875 -1.421875 
Q 17.96875 -1.421875 11.734375 6.484375 
Q 5.515625 14.40625 5.515625 27.296875 
Q 5.515625 40.1875 11.734375 48.09375 
Q 17.96875 56 27.875 56 
Q 33.9375 56 38.25 53.625 
Q 42.578125 51.265625 45.40625 46.390625 
z
M 14.796875 27.296875 
Q 14.796875 17.390625 18.875 11.75 
Q 22.953125 6.109375 30.078125 6.109375 
Q 37.203125 6.109375 41.296875 11.75 
Q 45.40625 17.390625 45.40625 27.296875 
Q 45.40625 37.203125 41.296875 42.84375 
Q 37.203125 48.484375 30.078125 48.484375 
Q 22.953125 48.484375 18.875 42.84375 
Q 14.796875 37.203125 14.796875 27.296875 
z
" id="DejaVuSans-100"/>
      </defs>
      <use xlink:href="#DejaVuSans-109"/>
      <use x="97.412109" xlink:href="#DejaVuSans-111"/>
      <use x="158.59375" xlink:href="#DejaVuSans-100"/>
      <use x="222.070312" xlink:href="#DejaVuSans-101"/>
      <use x="283.59375" xlink:href="#DejaVuSans-108"/>
     </g>
    </g>
   </g>
  </g>
 </g>
 <defs>
  <clipPath id="p3fa0205333">
   <rect height="332.64" width="390.6" x="63" y="51.84"/>
  </clipPath>
 </defs>
</svg>
