<?xml version="1.0" encoding="utf-8" standalone="no"?>
<!DOCTYPE svg PUBLIC "-//W3C//DTD SVG 1.1//EN"
  "http://www.w3.org/Graphics/SVG/1.1/DTD/svg11.dtd">
<!-- Created with matplotlib (http://matplotlib.org/) -->
<svg height="432pt" version="1.1" viewBox="0 0 504 432" width="504pt" xmlns="http://www.w3.org/2000/svg" xmlns:xlink="http://www.w3.org/1999/xlink">
 <defs>
  <style type="text/css">
*{stroke-linecap:butt;stroke-linejoin:round;}
  </style>
 </defs>
 <g id="figure_1">
  <g id="patch_1">
   <path d="M 0 432 
L 504 432 
L 504 0 
L 0 0 
z
" style="fill:#ffffff;"/>
  </g>
  <g id="axes_1">
   <g id="patch_2">
    <path d="M 63 384.48 
L 453.6 384.48 
L 453.6 51.84 
L 63 51.84 
z
" style="fill:#ffffff;"/>
   </g>
   <g id="matplotlib.axis_1">
    <g id="xtick_1">
     <g id="line2d_1">
      <defs>
       <path d="M 0 0 
L 0 3.5 
" id="m99e1ed7b1d" style="stroke:#000000;stroke-width:0.8;"/>
      </defs>
      <g>
       <use style="stroke:#000000;stroke-width:0.8;" x="80.754545" xlink:href="#m99e1ed7b1d" y="384.48"/>
      </g>
     </g>
     <g id="text_1">
      <!-- 0 -->
      <defs>
       <path d="M 31.78125 66.40625 
Q 24.171875 66.40625 20.328125 58.90625 
Q 16.5 51.421875 16.5 36.375 
Q 16.5 21.390625 20.328125 13.890625 
Q 24.171875 6.390625 31.78125 6.390625 
Q 39.453125 6.390625 43.28125 13.890625 
Q 47.125 21.390625 47.125 36.375 
Q 47.125 51.421875 43.28125 58.90625 
Q 39.453125 66.40625 31.78125 66.40625 
z
M 31.78125 74.21875 
Q 44.046875 74.21875 50.515625 64.515625 
Q 56.984375 54.828125 56.984375 36.375 
Q 56.984375 17.96875 50.515625 8.265625 
Q 44.046875 -1.421875 31.78125 -1.421875 
Q 19.53125 -1.421875 13.0625 8.265625 
Q 6.59375 17.96875 6.59375 36.375 
Q 6.59375 54.828125 13.0625 64.515625 
Q 19.53125 74.21875 31.78125 74.21875 
z
" id="DejaVuSans-30"/>
      </defs>
      <g transform="translate(77.573295 399.078438)scale(0.1 -0.1)">
       <use xlink:href="#DejaVuSans-30"/>
      </g>
     </g>
    </g>
    <g id="xtick_2">
     <g id="line2d_2">
      <g>
       <use style="stroke:#000000;stroke-width:0.8;" x="151.772727" xlink:href="#m99e1ed7b1d" y="384.48"/>
      </g>
     </g>
     <g id="text_2">
      <!-- 200 -->
      <defs>
       <path d="M 19.1875 8.296875 
L 53.609375 8.296875 
L 53.609375 0 
L 7.328125 0 
L 7.328125 8.296875 
Q 12.9375 14.109375 22.625 23.890625 
Q 32.328125 33.6875 34.8125 36.53125 
Q 39.546875 41.84375 41.421875 45.53125 
Q 43.3125 49.21875 43.3125 52.78125 
Q 43.3125 58.59375 39.234375 62.25 
Q 35.15625 65.921875 28.609375 65.921875 
Q 23.96875 65.921875 18.8125 64.3125 
Q 13.671875 62.703125 7.8125 59.421875 
L 7.8125 69.390625 
Q 13.765625 71.78125 18.9375 73 
Q 24.125 74.21875 28.421875 74.21875 
Q 39.75 74.21875 46.484375 68.546875 
Q 53.21875 62.890625 53.21875 53.421875 
Q 53.21875 48.921875 51.53125 44.890625 
Q 49.859375 40.875 45.40625 35.40625 
Q 44.1875 33.984375 37.640625 27.21875 
Q 31.109375 20.453125 19.1875 8.296875 
z
" id="DejaVuSans-32"/>
      </defs>
      <g transform="translate(142.228977 399.078438)scale(0.1 -0.1)">
       <use xlink:href="#DejaVuSans-32"/>
       <use x="63.623047" xlink:href="#DejaVuSans-30"/>
       <use x="127.246094" xlink:href="#DejaVuSans-30"/>
      </g>
     </g>
    </g>
    <g id="xtick_3">
     <g id="line2d_3">
      <g>
       <use style="stroke:#000000;stroke-width:0.8;" x="222.790909" xlink:href="#m99e1ed7b1d" y="384.48"/>
      </g>
     </g>
     <g id="text_3">
      <!-- 400 -->
      <defs>
       <path d="M 37.796875 64.3125 
L 12.890625 25.390625 
L 37.796875 25.390625 
z
M 35.203125 72.90625 
L 47.609375 72.90625 
L 47.609375 25.390625 
L 58.015625 25.390625 
L 58.015625 17.1875 
L 47.609375 17.1875 
L 47.609375 0 
L 37.796875 0 
L 37.796875 17.1875 
L 4.890625 17.1875 
L 4.890625 26.703125 
z
" id="DejaVuSans-34"/>
      </defs>
      <g transform="translate(213.247159 399.078438)scale(0.1 -0.1)">
       <use xlink:href="#DejaVuSans-34"/>
       <use x="63.623047" xlink:href="#DejaVuSans-30"/>
       <use x="127.246094" xlink:href="#DejaVuSans-30"/>
      </g>
     </g>
    </g>
    <g id="xtick_4">
     <g id="line2d_4">
      <g>
       <use style="stroke:#000000;stroke-width:0.8;" x="293.809091" xlink:href="#m99e1ed7b1d" y="384.48"/>
      </g>
     </g>
     <g id="text_4">
      <!-- 600 -->
      <defs>
       <path d="M 33.015625 40.375 
Q 26.375 40.375 22.484375 35.828125 
Q 18.609375 31.296875 18.609375 23.390625 
Q 18.609375 15.53125 22.484375 10.953125 
Q 26.375 6.390625 33.015625 6.390625 
Q 39.65625 6.390625 43.53125 10.953125 
Q 47.40625 15.53125 47.40625 23.390625 
Q 47.40625 31.296875 43.53125 35.828125 
Q 39.65625 40.375 33.015625 40.375 
z
M 52.59375 71.296875 
L 52.59375 62.3125 
Q 48.875 64.0625 45.09375 64.984375 
Q 41.3125 65.921875 37.59375 65.921875 
Q 27.828125 65.921875 22.671875 59.328125 
Q 17.53125 52.734375 16.796875 39.40625 
Q 19.671875 43.65625 24.015625 45.921875 
Q 28.375 48.1875 33.59375 48.1875 
Q 44.578125 48.1875 50.953125 41.515625 
Q 57.328125 34.859375 57.328125 23.390625 
Q 57.328125 12.15625 50.6875 5.359375 
Q 44.046875 -1.421875 33.015625 -1.421875 
Q 20.359375 -1.421875 13.671875 8.265625 
Q 6.984375 17.96875 6.984375 36.375 
Q 6.984375 53.65625 15.1875 63.9375 
Q 23.390625 74.21875 37.203125 74.21875 
Q 40.921875 74.21875 44.703125 73.484375 
Q 48.484375 72.75 52.59375 71.296875 
z
" id="DejaVuSans-36"/>
      </defs>
      <g transform="translate(284.265341 399.078438)scale(0.1 -0.1)">
       <use xlink:href="#DejaVuSans-36"/>
       <use x="63.623047" xlink:href="#DejaVuSans-30"/>
       <use x="127.246094" xlink:href="#DejaVuSans-30"/>
      </g>
     </g>
    </g>
    <g id="xtick_5">
     <g id="line2d_5">
      <g>
       <use style="stroke:#000000;stroke-width:0.8;" x="364.827273" xlink:href="#m99e1ed7b1d" y="384.48"/>
      </g>
     </g>
     <g id="text_5">
      <!-- 800 -->
      <defs>
       <path d="M 31.78125 34.625 
Q 24.75 34.625 20.71875 30.859375 
Q 16.703125 27.09375 16.703125 20.515625 
Q 16.703125 13.921875 20.71875 10.15625 
Q 24.75 6.390625 31.78125 6.390625 
Q 38.8125 6.390625 42.859375 10.171875 
Q 46.921875 13.96875 46.921875 20.515625 
Q 46.921875 27.09375 42.890625 30.859375 
Q 38.875 34.625 31.78125 34.625 
z
M 21.921875 38.8125 
Q 15.578125 40.375 12.03125 44.71875 
Q 8.5 49.078125 8.5 55.328125 
Q 8.5 64.0625 14.71875 69.140625 
Q 20.953125 74.21875 31.78125 74.21875 
Q 42.671875 74.21875 48.875 69.140625 
Q 55.078125 64.0625 55.078125 55.328125 
Q 55.078125 49.078125 51.53125 44.71875 
Q 48 40.375 41.703125 38.8125 
Q 48.828125 37.15625 52.796875 32.3125 
Q 56.78125 27.484375 56.78125 20.515625 
Q 56.78125 9.90625 50.3125 4.234375 
Q 43.84375 -1.421875 31.78125 -1.421875 
Q 19.734375 -1.421875 13.25 4.234375 
Q 6.78125 9.90625 6.78125 20.515625 
Q 6.78125 27.484375 10.78125 32.3125 
Q 14.796875 37.15625 21.921875 38.8125 
z
M 18.3125 54.390625 
Q 18.3125 48.734375 21.84375 45.5625 
Q 25.390625 42.390625 31.78125 42.390625 
Q 38.140625 42.390625 41.71875 45.5625 
Q 45.3125 48.734375 45.3125 54.390625 
Q 45.3125 60.0625 41.71875 63.234375 
Q 38.140625 66.40625 31.78125 66.40625 
Q 25.390625 66.40625 21.84375 63.234375 
Q 18.3125 60.0625 18.3125 54.390625 
z
" id="DejaVuSans-38"/>
      </defs>
      <g transform="translate(355.283523 399.078438)scale(0.1 -0.1)">
       <use xlink:href="#DejaVuSans-38"/>
       <use x="63.623047" xlink:href="#DejaVuSans-30"/>
       <use x="127.246094" xlink:href="#DejaVuSans-30"/>
      </g>
     </g>
    </g>
    <g id="text_6">
     <!-- time [ms] -->
     <defs>
      <path d="M 18.3125 70.21875 
L 18.3125 54.6875 
L 36.8125 54.6875 
L 36.8125 47.703125 
L 18.3125 47.703125 
L 18.3125 18.015625 
Q 18.3125 11.328125 20.140625 9.421875 
Q 21.96875 7.515625 27.59375 7.515625 
L 36.8125 7.515625 
L 36.8125 0 
L 27.59375 0 
Q 17.1875 0 13.234375 3.875 
Q 9.28125 7.765625 9.28125 18.015625 
L 9.28125 47.703125 
L 2.6875 47.703125 
L 2.6875 54.6875 
L 9.28125 54.6875 
L 9.28125 70.21875 
z
" id="DejaVuSans-74"/>
      <path d="M 9.421875 54.6875 
L 18.40625 54.6875 
L 18.40625 0 
L 9.421875 0 
z
M 9.421875 75.984375 
L 18.40625 75.984375 
L 18.40625 64.59375 
L 9.421875 64.59375 
z
" id="DejaVuSans-69"/>
      <path d="M 52 44.1875 
Q 55.375 50.25 60.0625 53.125 
Q 64.75 56 71.09375 56 
Q 79.640625 56 84.28125 50.015625 
Q 88.921875 44.046875 88.921875 33.015625 
L 88.921875 0 
L 79.890625 0 
L 79.890625 32.71875 
Q 79.890625 40.578125 77.09375 44.375 
Q 74.3125 48.1875 68.609375 48.1875 
Q 61.625 48.1875 57.5625 43.546875 
Q 53.515625 38.921875 53.515625 30.90625 
L 53.515625 0 
L 44.484375 0 
L 44.484375 32.71875 
Q 44.484375 40.625 41.703125 44.40625 
Q 38.921875 48.1875 33.109375 48.1875 
Q 26.21875 48.1875 22.15625 43.53125 
Q 18.109375 38.875 18.109375 30.90625 
L 18.109375 0 
L 9.078125 0 
L 9.078125 54.6875 
L 18.109375 54.6875 
L 18.109375 46.1875 
Q 21.1875 51.21875 25.484375 53.609375 
Q 29.78125 56 35.6875 56 
Q 41.65625 56 45.828125 52.96875 
Q 50 49.953125 52 44.1875 
z
" id="DejaVuSans-6d"/>
      <path d="M 56.203125 29.59375 
L 56.203125 25.203125 
L 14.890625 25.203125 
Q 15.484375 15.921875 20.484375 11.0625 
Q 25.484375 6.203125 34.421875 6.203125 
Q 39.59375 6.203125 44.453125 7.46875 
Q 49.3125 8.734375 54.109375 11.28125 
L 54.109375 2.78125 
Q 49.265625 0.734375 44.1875 -0.34375 
Q 39.109375 -1.421875 33.890625 -1.421875 
Q 20.796875 -1.421875 13.15625 6.1875 
Q 5.515625 13.8125 5.515625 26.8125 
Q 5.515625 40.234375 12.765625 48.109375 
Q 20.015625 56 32.328125 56 
Q 43.359375 56 49.78125 48.890625 
Q 56.203125 41.796875 56.203125 29.59375 
z
M 47.21875 32.234375 
Q 47.125 39.59375 43.09375 43.984375 
Q 39.0625 48.390625 32.421875 48.390625 
Q 24.90625 48.390625 20.390625 44.140625 
Q 15.875 39.890625 15.1875 32.171875 
z
" id="DejaVuSans-65"/>
      <path id="DejaVuSans-20"/>
      <path d="M 8.59375 75.984375 
L 29.296875 75.984375 
L 29.296875 69 
L 17.578125 69 
L 17.578125 -6.203125 
L 29.296875 -6.203125 
L 29.296875 -13.1875 
L 8.59375 -13.1875 
z
" id="DejaVuSans-5b"/>
      <path d="M 44.28125 53.078125 
L 44.28125 44.578125 
Q 40.484375 46.53125 36.375 47.5 
Q 32.28125 48.484375 27.875 48.484375 
Q 21.1875 48.484375 17.84375 46.4375 
Q 14.5 44.390625 14.5 40.28125 
Q 14.5 37.15625 16.890625 35.375 
Q 19.28125 33.59375 26.515625 31.984375 
L 29.59375 31.296875 
Q 39.15625 29.25 43.1875 25.515625 
Q 47.21875 21.78125 47.21875 15.09375 
Q 47.21875 7.46875 41.1875 3.015625 
Q 35.15625 -1.421875 24.609375 -1.421875 
Q 20.21875 -1.421875 15.453125 -0.5625 
Q 10.6875 0.296875 5.421875 2 
L 5.421875 11.28125 
Q 10.40625 8.6875 15.234375 7.390625 
Q 20.0625 6.109375 24.8125 6.109375 
Q 31.15625 6.109375 34.5625 8.28125 
Q 37.984375 10.453125 37.984375 14.40625 
Q 37.984375 18.0625 35.515625 20.015625 
Q 33.0625 21.96875 24.703125 23.78125 
L 21.578125 24.515625 
Q 13.234375 26.265625 9.515625 29.90625 
Q 5.8125 33.546875 5.8125 39.890625 
Q 5.8125 47.609375 11.28125 51.796875 
Q 16.75 56 26.8125 56 
Q 31.78125 56 36.171875 55.265625 
Q 40.578125 54.546875 44.28125 53.078125 
z
" id="DejaVuSans-73"/>
      <path d="M 30.421875 75.984375 
L 30.421875 -13.1875 
L 9.71875 -13.1875 
L 9.71875 -6.203125 
L 21.390625 -6.203125 
L 21.390625 69 
L 9.71875 69 
L 9.71875 75.984375 
z
" id="DejaVuSans-5d"/>
     </defs>
     <g transform="translate(234.038281 412.756563)scale(0.1 -0.1)">
      <use xlink:href="#DejaVuSans-74"/>
      <use x="39.208984" xlink:href="#DejaVuSans-69"/>
      <use x="66.992188" xlink:href="#DejaVuSans-6d"/>
      <use x="164.404297" xlink:href="#DejaVuSans-65"/>
      <use x="225.927734" xlink:href="#DejaVuSans-20"/>
      <use x="257.714844" xlink:href="#DejaVuSans-5b"/>
      <use x="296.728516" xlink:href="#DejaVuSans-6d"/>
      <use x="394.140625" xlink:href="#DejaVuSans-73"/>
      <use x="446.240234" xlink:href="#DejaVuSans-5d"/>
     </g>
    </g>
   </g>
   <g id="matplotlib.axis_2">
    <g id="ytick_1">
     <g id="line2d_6">
      <defs>
       <path d="M 0 0 
L -3.5 0 
" id="m45c6de78b0" style="stroke:#000000;stroke-width:0.8;"/>
      </defs>
      <g>
       <use style="stroke:#000000;stroke-width:0.8;" x="63" xlink:href="#m45c6de78b0" y="380.274416"/>
      </g>
     </g>
     <g id="text_7">
      <!-- −80 -->
      <defs>
       <path d="M 10.59375 35.5 
L 73.1875 35.5 
L 73.1875 27.203125 
L 10.59375 27.203125 
z
" id="DejaVuSans-2212"/>
      </defs>
      <g transform="translate(34.895313 384.073635)scale(0.1 -0.1)">
       <use xlink:href="#DejaVuSans-2212"/>
       <use x="83.789062" xlink:href="#DejaVuSans-38"/>
       <use x="147.412109" xlink:href="#DejaVuSans-30"/>
      </g>
     </g>
    </g>
    <g id="ytick_2">
     <g id="line2d_7">
      <g>
       <use style="stroke:#000000;stroke-width:0.8;" x="63" xlink:href="#m45c6de78b0" y="328.899512"/>
      </g>
     </g>
     <g id="text_8">
      <!-- −60 -->
      <g transform="translate(34.895313 332.69873)scale(0.1 -0.1)">
       <use xlink:href="#DejaVuSans-2212"/>
       <use x="83.789062" xlink:href="#DejaVuSans-36"/>
       <use x="147.412109" xlink:href="#DejaVuSans-30"/>
      </g>
     </g>
    </g>
    <g id="ytick_3">
     <g id="line2d_8">
      <g>
       <use style="stroke:#000000;stroke-width:0.8;" x="63" xlink:href="#m45c6de78b0" y="277.524608"/>
      </g>
     </g>
     <g id="text_9">
      <!-- −40 -->
      <g transform="translate(34.895313 281.323826)scale(0.1 -0.1)">
       <use xlink:href="#DejaVuSans-2212"/>
       <use x="83.789062" xlink:href="#DejaVuSans-34"/>
       <use x="147.412109" xlink:href="#DejaVuSans-30"/>
      </g>
     </g>
    </g>
    <g id="ytick_4">
     <g id="line2d_9">
      <g>
       <use style="stroke:#000000;stroke-width:0.8;" x="63" xlink:href="#m45c6de78b0" y="226.149704"/>
      </g>
     </g>
     <g id="text_10">
      <!-- −20 -->
      <g transform="translate(34.895313 229.948922)scale(0.1 -0.1)">
       <use xlink:href="#DejaVuSans-2212"/>
       <use x="83.789062" xlink:href="#DejaVuSans-32"/>
       <use x="147.412109" xlink:href="#DejaVuSans-30"/>
      </g>
     </g>
    </g>
    <g id="ytick_5">
     <g id="line2d_10">
      <g>
       <use style="stroke:#000000;stroke-width:0.8;" x="63" xlink:href="#m45c6de78b0" y="174.774799"/>
      </g>
     </g>
     <g id="text_11">
      <!-- 0 -->
      <g transform="translate(49.6375 178.574018)scale(0.1 -0.1)">
       <use xlink:href="#DejaVuSans-30"/>
      </g>
     </g>
    </g>
    <g id="ytick_6">
     <g id="line2d_11">
      <g>
       <use style="stroke:#000000;stroke-width:0.8;" x="63" xlink:href="#m45c6de78b0" y="123.399895"/>
      </g>
     </g>
     <g id="text_12">
      <!-- 20 -->
      <g transform="translate(43.275 127.199114)scale(0.1 -0.1)">
       <use xlink:href="#DejaVuSans-32"/>
       <use x="63.623047" xlink:href="#DejaVuSans-30"/>
      </g>
     </g>
    </g>
    <g id="ytick_7">
     <g id="line2d_12">
      <g>
       <use style="stroke:#000000;stroke-width:0.8;" x="63" xlink:href="#m45c6de78b0" y="72.024991"/>
      </g>
     </g>
     <g id="text_13">
      <!-- 40 -->
      <g transform="translate(43.275 75.82421)scale(0.1 -0.1)">
       <use xlink:href="#DejaVuSans-34"/>
       <use x="63.623047" xlink:href="#DejaVuSans-30"/>
      </g>
     </g>
    </g>
    <g id="text_14">
     <!-- voltage [mV] -->
     <defs>
      <path d="M 2.984375 54.6875 
L 12.5 54.6875 
L 29.59375 8.796875 
L 46.6875 54.6875 
L 56.203125 54.6875 
L 35.6875 0 
L 23.484375 0 
z
" id="DejaVuSans-76"/>
      <path d="M 30.609375 48.390625 
Q 23.390625 48.390625 19.1875 42.75 
Q 14.984375 37.109375 14.984375 27.296875 
Q 14.984375 17.484375 19.15625 11.84375 
Q 23.34375 6.203125 30.609375 6.203125 
Q 37.796875 6.203125 41.984375 11.859375 
Q 46.1875 17.53125 46.1875 27.296875 
Q 46.1875 37.015625 41.984375 42.703125 
Q 37.796875 48.390625 30.609375 48.390625 
z
M 30.609375 56 
Q 42.328125 56 49.015625 48.375 
Q 55.71875 40.765625 55.71875 27.296875 
Q 55.71875 13.875 49.015625 6.21875 
Q 42.328125 -1.421875 30.609375 -1.421875 
Q 18.84375 -1.421875 12.171875 6.21875 
Q 5.515625 13.875 5.515625 27.296875 
Q 5.515625 40.765625 12.171875 48.375 
Q 18.84375 56 30.609375 56 
z
" id="DejaVuSans-6f"/>
      <path d="M 9.421875 75.984375 
L 18.40625 75.984375 
L 18.40625 0 
L 9.421875 0 
z
" id="DejaVuSans-6c"/>
      <path d="M 34.28125 27.484375 
Q 23.390625 27.484375 19.1875 25 
Q 14.984375 22.515625 14.984375 16.5 
Q 14.984375 11.71875 18.140625 8.90625 
Q 21.296875 6.109375 26.703125 6.109375 
Q 34.1875 6.109375 38.703125 11.40625 
Q 43.21875 16.703125 43.21875 25.484375 
L 43.21875 27.484375 
z
M 52.203125 31.203125 
L 52.203125 0 
L 43.21875 0 
L 43.21875 8.296875 
Q 40.140625 3.328125 35.546875 0.953125 
Q 30.953125 -1.421875 24.3125 -1.421875 
Q 15.921875 -1.421875 10.953125 3.296875 
Q 6 8.015625 6 15.921875 
Q 6 25.140625 12.171875 29.828125 
Q 18.359375 34.515625 30.609375 34.515625 
L 43.21875 34.515625 
L 43.21875 35.40625 
Q 43.21875 41.609375 39.140625 45 
Q 35.0625 48.390625 27.6875 48.390625 
Q 23 48.390625 18.546875 47.265625 
Q 14.109375 46.140625 10.015625 43.890625 
L 10.015625 52.203125 
Q 14.9375 54.109375 19.578125 55.046875 
Q 24.21875 56 28.609375 56 
Q 40.484375 56 46.34375 49.84375 
Q 52.203125 43.703125 52.203125 31.203125 
z
" id="DejaVuSans-61"/>
      <path d="M 45.40625 27.984375 
Q 45.40625 37.75 41.375 43.109375 
Q 37.359375 48.484375 30.078125 48.484375 
Q 22.859375 48.484375 18.828125 43.109375 
Q 14.796875 37.75 14.796875 27.984375 
Q 14.796875 18.265625 18.828125 12.890625 
Q 22.859375 7.515625 30.078125 7.515625 
Q 37.359375 7.515625 41.375 12.890625 
Q 45.40625 18.265625 45.40625 27.984375 
z
M 54.390625 6.78125 
Q 54.390625 -7.171875 48.1875 -13.984375 
Q 42 -20.796875 29.203125 -20.796875 
Q 24.46875 -20.796875 20.265625 -20.09375 
Q 16.0625 -19.390625 12.109375 -17.921875 
L 12.109375 -9.1875 
Q 16.0625 -11.328125 19.921875 -12.34375 
Q 23.78125 -13.375 27.78125 -13.375 
Q 36.625 -13.375 41.015625 -8.765625 
Q 45.40625 -4.15625 45.40625 5.171875 
L 45.40625 9.625 
Q 42.625 4.78125 38.28125 2.390625 
Q 33.9375 0 27.875 0 
Q 17.828125 0 11.671875 7.65625 
Q 5.515625 15.328125 5.515625 27.984375 
Q 5.515625 40.671875 11.671875 48.328125 
Q 17.828125 56 27.875 56 
Q 33.9375 56 38.28125 53.609375 
Q 42.625 51.21875 45.40625 46.390625 
L 45.40625 54.6875 
L 54.390625 54.6875 
z
" id="DejaVuSans-67"/>
      <path d="M 28.609375 0 
L 0.78125 72.90625 
L 11.078125 72.90625 
L 34.1875 11.53125 
L 57.328125 72.90625 
L 67.578125 72.90625 
L 39.796875 0 
z
" id="DejaVuSans-56"/>
     </defs>
     <g transform="translate(28.815625 250.624062)rotate(-90)scale(0.1 -0.1)">
      <use xlink:href="#DejaVuSans-76"/>
      <use x="59.179688" xlink:href="#DejaVuSans-6f"/>
      <use x="120.361328" xlink:href="#DejaVuSans-6c"/>
      <use x="148.144531" xlink:href="#DejaVuSans-74"/>
      <use x="187.353516" xlink:href="#DejaVuSans-61"/>
      <use x="248.632812" xlink:href="#DejaVuSans-67"/>
      <use x="312.109375" xlink:href="#DejaVuSans-65"/>
      <use x="373.632812" xlink:href="#DejaVuSans-20"/>
      <use x="405.419922" xlink:href="#DejaVuSans-5b"/>
      <use x="444.433594" xlink:href="#DejaVuSans-6d"/>
      <use x="541.845703" xlink:href="#DejaVuSans-56"/>
      <use x="610.253906" xlink:href="#DejaVuSans-5d"/>
     </g>
    </g>
   </g>
   <g id="line2d_13">
    <path clip-path="url(#p1e2b58af4d)" d="M 80.754545 341.743238 
L 81.970732 341.609406 
L 83.808327 341.667203 
L 87.829732 341.672597 
L 151.772727 341.67568 
L 152.314241 298.105137 
L 152.420768 250.510656 
L 152.562805 72.857778 
L 152.678209 97.535714 
L 153.565936 367.663932 
L 153.610323 367.565549 
L 153.8145 366.216187 
L 154.293873 361.564189 
L 154.959668 352.638057 
L 157.42755 314.579014 
L 157.613973 303.689846 
L 157.738255 282.19433 
L 157.835905 220.976508 
L 157.969064 96.697532 
L 158.031205 109.568487 
L 158.883423 367.248566 
L 158.945564 367.06901 
L 159.203005 365.132177 
L 159.717886 359.580604 
L 160.534595 347.90874 
L 161.8218 330.166417 
L 162.514227 320.021671 
L 162.771668 312.66196 
L 162.940336 300.927161 
L 163.064618 273.559236 
L 163.162268 190.965934 
L 163.268795 97.598134 
L 163.322059 106.907781 
L 163.863573 297.83285 
L 164.147645 367.075689 
L 164.183155 367.217484 
L 164.245295 367.039984 
L 164.493859 365.17713 
L 165.008741 359.644823 
L 165.834327 347.852484 
L 167.112655 330.239369 
L 167.813959 319.986993 
L 168.0714 312.617777 
L 168.240068 300.844447 
L 168.36435 273.318287 
L 168.462 190.236282 
L 168.568527 97.673398 
L 168.621791 107.125096 
L 169.172182 301.700096 
L 169.4385 366.991691 
L 169.482886 367.215429 
L 169.545027 367.034076 
L 169.802468 365.089279 
L 170.31735 359.520239 
L 171.151814 347.569666 
L 172.430141 330.00176 
L 173.113691 319.969012 
L 173.371132 312.582072 
L 173.5398 300.750688 
L 173.664082 272.987433 
L 173.761732 189.109605 
L 173.868259 97.689838 
L 173.921523 107.356027 
L 174.480791 305.68422 
L 174.729355 366.884575 
L 174.782618 367.215429 
L 174.844759 367.029966 
L 175.1022 365.082086 
L 175.617082 359.509707 
L 176.451545 347.557079 
L 177.729873 329.991228 
L 178.413423 319.952572 
L 178.670864 312.54688 
L 178.839532 300.655644 
L 178.963814 272.647845 
L 179.061464 187.949945 
L 179.167991 97.706792 
L 179.221255 107.589526 
L 179.7894 309.769296 
L 180.029086 366.896648 
L 180.08235 367.215686 
L 180.144491 367.025599 
L 180.401932 365.074894 
L 180.916814 359.499432 
L 181.751277 347.545006 
L 183.029605 329.980953 
L 183.713155 319.935875 
L 183.970595 312.511431 
L 184.139264 300.559573 
L 184.263545 272.300294 
L 184.361195 186.769889 
L 184.467723 97.730168 
L 184.520986 107.826621 
L 185.098009 313.944277 
L 185.328818 366.908464 
L 185.382082 367.215686 
L 185.444223 367.021489 
L 185.701664 365.067444 
L 186.216545 359.489157 
L 187.051009 347.532676 
L 188.329336 329.970678 
L 189.012886 319.919435 
L 189.270327 312.475726 
L 189.438995 300.461961 
L 189.563277 271.947605 
L 189.660927 185.585132 
L 189.767455 97.759195 
L 189.820718 108.066028 
L 190.406618 318.189899 
L 190.619673 366.777458 
L 190.681814 367.215429 
L 190.743955 367.017122 
L 191.010273 364.980621 
L 191.525155 359.366371 
L 192.368495 347.253196 
L 193.637945 329.847379 
L 194.312618 319.902482 
L 194.570059 312.44002 
L 194.738727 300.363835 
L 194.863009 271.591577 
L 194.969536 171.322021 
L 195.058309 97.746094 
L 195.12045 108.308004 
L 195.715227 322.480731 
L 195.919405 366.792613 
L 195.981545 367.215429 
L 196.043686 367.012755 
L 196.310005 364.973171 
L 196.833764 359.243071 
L 197.703736 346.707338 
L 198.955432 329.611311 
L 199.61235 319.885785 
L 199.869791 312.403801 
L 200.038459 300.264681 
L 200.162741 271.228356 
L 200.269268 170.085658 
L 200.358041 97.717324 
L 200.420182 108.554089 
L 201.023836 326.780554 
L 201.219136 366.806998 
L 201.281277 367.214915 
L 201.343418 367.008388 
L 201.609736 364.965722 
L 202.133495 359.232283 
L 202.994591 346.828069 
L 204.255164 329.600779 
L 204.912082 319.868574 
L 205.169523 312.367068 
L 205.338191 300.163987 
L 205.462473 270.857686 
L 205.569 168.840998 
L 205.657773 97.69549 
L 205.719914 108.801973 
L 206.332445 331.042359 
L 206.518868 366.821383 
L 206.581009 367.214658 
L 206.634273 367.049488 
L 206.873959 365.273201 
L 207.388841 359.781737 
L 208.187795 348.418636 
L 209.510509 330.153573 
L 210.202936 320.031946 
L 210.460377 312.714619 
L 210.629045 301.106716 
L 210.753327 274.250999 
L 210.850977 193.471848 
L 210.957505 97.680591 
L 211.019645 109.050885 
L 211.641055 335.213231 
L 211.827477 366.963949 
L 211.880741 367.214145 
L 211.934005 367.045378 
L 212.182568 365.187918 
L 212.69745 359.660236 
L 213.514159 348.004811 
L 214.810241 330.143041 
L 215.502668 320.01525 
L 215.760109 312.679427 
L 215.928777 301.012443 
L 216.053059 273.91886 
L 216.150709 192.317968 
L 216.257236 97.674426 
L 216.319377 109.299282 
L 216.949664 339.231005 
L 217.127209 366.974224 
L 217.171595 367.214658 
L 217.233736 367.041268 
L 217.4823 365.180726 
L 217.997182 359.649961 
L 218.822768 347.858649 
L 220.101095 330.24502 
L 220.8024 319.998553 
L 221.059841 312.644492 
L 221.228509 300.918427 
L 221.352791 273.585437 
L 221.450441 191.164653 
L 221.556968 97.67494 
L 221.610232 106.944 
L 222.151745 297.887051 
L 222.426941 366.983985 
L 222.471327 367.214915 
L 222.533468 367.037158 
L 222.782032 365.173533 
L 223.296914 359.639686 
L 224.1225 347.846063 
L 225.418582 330.009723 
L 226.111009 319.800759 
L 226.36845 312.220906 
L 226.537118 299.759409 
L 226.652523 273.249445 
L 226.750173 190.006739 
L 226.8567 97.680848 
L 226.909964 107.176471 
L 227.460355 301.773819 
L 227.726673 366.993489 
L 227.771059 367.215429 
L 227.8332 367.033048 
L 228.090641 365.08748 
L 228.605523 359.51767 
L 229.439986 347.566583 
L 230.718314 329.999192 
L 231.401864 319.965159 
L 231.659305 312.573852 
L 231.827973 300.729111 
L 231.952255 272.911141 
L 232.049905 188.848621 
L 232.156432 97.693435 
L 232.209695 107.408686 
L 232.768964 305.761026 
L 233.017527 366.8874 
L 233.070791 367.215429 
L 233.132932 367.028938 
L 233.390373 365.080288 
L 233.905255 359.507395 
L 234.739718 347.554253 
L 236.018045 329.988917 
L 236.701595 319.948719 
L 236.959036 312.538917 
L 237.127705 300.634067 
L 237.251986 272.569755 
L 237.349636 187.683874 
L 237.456164 97.711416 
L 237.509427 107.643212 
L 238.077573 309.848413 
L 238.317259 366.899216 
L 238.370523 367.215686 
L 238.432664 367.024828 
L 238.690105 365.073095 
L 239.204986 359.49712 
L 240.03945 347.54218 
L 241.317777 329.978642 
L 242.001327 319.932279 
L 242.258768 312.503468 
L 242.427436 300.537482 
L 242.551718 272.220406 
L 242.649368 186.50107 
L 242.755895 97.736333 
L 242.809159 107.880821 
L 243.386182 314.025193 
L 243.616991 366.911033 
L 243.670255 367.215686 
L 243.732395 367.020461 
L 243.989836 365.065903 
L 244.504718 359.486845 
L 245.348059 347.396275 
L 246.617509 329.96811 
L 247.301059 319.915582 
L 247.5585 312.467762 
L 247.727168 300.439613 
L 247.85145 271.867203 
L 247.9491 185.315157 
L 248.055627 97.766901 
L 248.108891 108.120742 
L 248.694791 318.272613 
L 248.907845 366.781054 
L 248.969986 367.215429 
L 249.032127 367.016351 
L 249.298445 364.979079 
L 249.822205 359.251291 
L 250.692177 346.717099 
L 251.943873 329.619531 
L 252.600791 319.898629 
L 252.858232 312.4318 
L 253.0269 300.34123 
L 253.151182 271.509377 
L 253.257709 171.040538 
L 253.346482 97.738901 
L 253.408623 108.364002 
L 254.0034 322.564986 
L 254.207577 366.795953 
L 254.269718 367.215172 
L 254.331859 367.011984 
L 254.598177 364.97163 
L 255.121936 359.240503 
L 255.983032 346.83783 
L 257.22585 329.834535 
L 257.900523 319.881932 
L 258.157964 312.395581 
L 258.326632 300.24182 
L 258.450914 271.144358 
L 258.557441 169.801632 
L 258.646214 97.711673 
L 258.708355 108.610859 
L 259.312009 326.864809 
L 259.507309 366.810338 
L 259.56945 367.214915 
L 259.631591 367.007361 
L 259.897909 364.963924 
L 260.421668 359.229971 
L 261.291641 346.692182 
L 262.525582 329.824003 
L 263.200255 319.864721 
L 263.457695 312.358848 
L 263.626364 300.140868 
L 263.750645 270.772404 
L 263.857173 168.556458 
L 263.945945 97.69138 
L 264.008086 108.858743 
L 264.620618 331.125329 
L 264.807041 366.824723 
L 264.869182 367.214401 
L 264.922445 367.048717 
L 265.171009 365.19357 
L 265.685891 359.668456 
L 266.511477 347.880741 
L 267.807559 330.03875 
L 268.499986 319.847767 
L 268.757427 312.322115 
L 268.926095 300.039916 
L 269.050377 270.40045 
L 269.156905 167.320558 
L 269.245677 97.678536 
L 269.298941 106.534285 
L 269.8227 290.488808 
L 270.133405 367.129119 
L 270.168914 367.214145 
L 270.222177 367.044607 
L 270.470741 365.186377 
L 270.985623 359.657924 
L 271.802332 348.001985 
L 273.098414 330.140729 
L 273.790841 320.011396 
L 274.048282 312.671464 
L 274.21695 300.991123 
L 274.341232 273.842825 
L 274.438882 192.054004 
L 274.545409 97.674169 
L 274.598673 106.765215 
L 275.131309 294.175214 
L 275.424259 367.068497 
L 275.459768 367.214658 
L 275.521909 367.040497 
L 275.770473 365.179185 
L 276.285355 359.647649 
L 277.110941 347.855824 
L 278.389268 330.242709 
L 279.090573 319.9947 
L 279.348014 312.636272 
L 279.516682 300.89685 
L 279.640964 273.508888 
L 279.738614 190.900586 
L 279.845141 97.675453 
L 279.898405 106.997173 
L 280.439918 297.961288 
L 280.715114 366.98604 
L 280.7595 367.215172 
L 280.821641 367.036387 
L 281.079082 365.093132 
L 281.593964 359.525633 
L 282.428427 347.576087 
L 283.706755 330.007155 
L 284.390305 319.978003 
L 284.647745 312.60108 
L 284.816414 300.80232 
L 284.940695 273.172383 
L 285.038345 189.74257 
L 285.144873 97.68316 
L 285.198136 107.229387 
L 285.748527 301.849083 
L 286.014845 366.995544 
L 286.059232 367.215429 
L 286.121373 367.032021 
L 286.378814 365.085939 
L 286.893695 359.515358 
L 287.728159 347.563757 
L 289.006486 329.99688 
L 289.690036 319.961563 
L 289.947477 312.565888 
L 290.116145 300.707533 
L 290.240427 272.833565 
L 290.338077 188.583577 
L 290.444605 97.697031 
L 290.497868 107.461859 
L 291.057136 305.838602 
L 291.3057 366.890226 
L 291.358964 367.215686 
L 291.421105 367.027911 
L 291.678545 365.078747 
L 292.193427 359.505083 
L 293.027891 347.551428 
L 294.315095 329.873837 
L 294.989768 319.944866 
L 295.247209 312.530697 
L 295.415877 300.612233 
L 295.540159 272.490638 
L 295.637809 187.415004 
L 295.744336 97.716553 
L 295.7976 107.697156 
L 296.365745 309.928044 
L 296.605432 366.902042 
L 296.658695 367.215686 
L 296.720836 367.023801 
L 296.978277 365.071554 
L 297.493159 359.494808 
L 298.327623 347.539354 
L 299.60595 329.97633 
L 300.2895 319.928426 
L 300.546941 312.495248 
L 300.715609 300.515134 
L 300.839891 272.140261 
L 300.937541 186.231865 
L 301.044068 97.742755 
L 301.097332 107.935022 
L 301.674355 314.106108 
L 301.905164 366.913601 
L 301.958427 367.215686 
L 302.020568 367.019691 
L 302.286886 364.984731 
L 302.810645 359.259254 
L 303.671741 346.859921 
L 304.914559 329.853287 
L 305.589232 319.911729 
L 305.846673 312.459542 
L 306.015341 300.417522 
L 306.139623 271.786545 
L 306.24615 171.991436 
L 306.334923 97.764332 
L 306.397064 108.175713 
L 306.982964 318.355326 
L 307.196018 366.784393 
L 307.258159 367.215429 
L 307.3203 367.015324 
L 307.586618 364.977281 
L 308.110377 359.248723 
L 308.971473 346.847591 
L 310.214291 329.842755 
L 310.888964 319.895032 
L 311.146405 312.42358 
L 311.315073 300.318882 
L 311.439355 271.42692 
L 311.545882 170.760056 
L 311.634655 97.732223 
L 311.696795 108.419744 
L 312.291573 322.648727 
L 312.49575 366.799292 
L 312.557891 367.215172 
L 312.620032 367.010957 
L 312.88635 364.969832 
L 313.410109 359.238191 
L 314.280082 346.701687 
L 315.531777 329.60643 
L 316.188695 319.877822 
L 316.446136 312.387104 
L 316.614805 300.218958 
L 316.739086 271.060617 
L 316.845614 169.518684 
L 316.934386 97.706535 
L 316.996527 108.667114 
L 317.600182 326.948807 
L 317.795482 366.813677 
L 317.857623 367.214915 
L 317.910886 367.0518 
L 318.15945 365.199221 
L 318.674332 359.676419 
L 319.491041 348.024077 
L 320.796 330.046713 
L 321.488427 319.860868 
L 321.745868 312.350371 
L 321.914536 300.117749 
L 322.038818 270.687379 
L 322.145345 168.27328 
L 322.234118 97.687783 
L 322.296259 108.915512 
L 322.908791 331.208043 
L 323.095214 366.828062 
L 323.157355 367.214401 
L 323.210618 367.04769 
L 323.459182 365.192028 
L 323.974064 359.665887 
L 324.790773 348.01149 
L 326.095732 330.036181 
L 326.779282 320.02424 
L 327.036723 312.698693 
L 327.205391 301.063818 
L 327.329673 274.0997 
L 327.427323 192.945769 
L 327.53385 97.676738 
L 327.595991 109.164166 
L 328.2174 335.373007 
L 328.403823 366.968573 
L 328.457086 367.213888 
L 328.51035 367.04358 
L 328.758914 365.184579 
L 329.273795 359.655612 
L 329.318182 359.0928 
L 329.335936 359.974907 
L 329.531236 363.886592 
L 329.620009 364.070771 
L 329.664395 364.014516 
L 329.815309 363.419594 
L 330.214786 360.657936 
L 332.176664 346.190506 
L 332.869091 343.03172 
L 333.428359 341.408787 
L 333.889977 340.680291 
L 334.262823 340.457838 
L 334.617914 340.497139 
L 335.106164 340.813609 
L 336.553159 341.845731 
L 337.156814 341.940517 
L 338.106682 341.830832 
L 339.908768 341.629956 
L 342.101455 341.677478 
L 345.803277 341.673625 
L 435.845455 341.67568 
L 435.845455 341.67568 
" style="fill:none;stroke:#1f77b4;stroke-linecap:square;stroke-width:1.5;"/>
   </g>
   <g id="line2d_14">
    <path clip-path="url(#p1e2b58af4d)" d="M 80.754545 341.743238 
L 81.5535 341.858846 
L 83.000495 341.808272 
L 85.521641 341.794651 
L 99.956086 341.7952 
L 151.772727 341.795199 
L 152.278732 301.037615 
L 152.367505 253.129625 
L 152.491786 66.96 
L 152.607191 89.156644 
L 153.237477 308.913104 
L 153.468286 369.36 
L 153.512673 369.275887 
L 153.787868 367.851408 
L 154.249486 364.341271 
L 154.835386 357.970994 
L 157.205618 330.078519 
L 157.667236 323.877709 
L 157.898045 317.382388 
L 158.048959 305.765769 
L 158.155486 276.339492 
L 158.244259 158.516663 
L 158.324155 80.243872 
L 158.377418 88.898095 
L 158.670368 191.635711 
L 159.238514 369.194994 
L 159.2829 369.100983 
L 159.558095 367.618135 
L 160.028591 363.910983 
L 160.641123 357.063203 
L 162.647386 333.201311 
L 163.375323 324.751763 
L 163.623886 318.937434 
L 163.783677 309.565791 
L 163.899082 287.542012 
L 163.987855 210.606317 
L 164.094382 80.659282 
L 164.156523 91.887303 
L 164.591509 242.777981 
L 165.008741 369.186131 
L 165.088636 368.928893 
L 165.470359 366.617757 
L 165.967486 362.178195 
L 166.695423 353.331231 
L 168.0714 336.695269 
L 169.198814 323.769045 
L 169.429623 317.429093 
L 169.580536 306.249657 
L 169.687064 278.722629 
L 169.766959 188.359766 
L 169.855732 80.610802 
L 169.917873 90.318131 
L 170.255209 208.906462 
L 170.778968 369.184719 
L 170.841109 368.995361 
L 171.1962 366.91366 
L 171.68445 362.69919 
L 172.368 354.570421 
L 173.894891 336.11082 
L 174.942409 324.193883 
L 175.182095 318.04363 
L 175.341886 306.993896 
L 175.448414 281.582364 
L 175.528309 200.149992 
L 175.625959 80.603288 
L 175.6881 91.074658 
L 176.060945 221.690143 
L 176.540318 369.185133 
L 176.620214 368.942415 
L 177.001936 366.639148 
L 177.499064 362.209085 
L 178.218123 353.486517 
L 179.611855 336.633396 
L 180.730391 323.824566 
L 180.9612 317.559175 
L 181.112114 306.635328 
L 181.218641 280.219842 
L 181.298536 194.504136 
L 181.396186 80.672503 
L 181.458327 91.847583 
L 181.884436 239.888304 
L 182.310545 369.185607 
L 182.390441 368.928961 
L 182.772164 366.617925 
L 183.269291 362.178439 
L 183.997227 353.331544 
L 185.373205 336.695648 
L 186.500618 323.771032 
L 186.731427 317.434639 
L 186.882341 306.26713 
L 186.988868 278.792161 
L 187.068764 188.644006 
L 187.157536 80.614643 
L 187.219677 90.283737 
L 187.557014 208.861529 
L 188.080773 369.184758 
L 188.142914 368.995913 
L 188.498005 366.914552 
L 188.986255 362.700489 
L 189.669805 354.572078 
L 191.196695 336.112143 
L 192.244214 324.196184 
L 192.4839 318.048947 
L 192.643691 307.010229 
L 192.750218 281.643538 
L 192.830114 200.404916 
L 192.927764 80.602049 
L 192.989905 91.039702 
L 193.36275 221.646493 
L 193.842123 369.185072 
L 193.922018 368.943021 
L 194.303741 366.640107 
L 194.800868 362.210471 
L 195.519927 353.48825 
L 196.913659 336.634773 
L 198.032195 323.826985 
L 198.263005 317.564795 
L 198.413918 306.651904 
L 198.520445 280.283432 
L 198.600341 194.765884 
L 198.697991 80.667808 
L 198.760132 91.812046 
L 199.186241 239.845696 
L 199.61235 369.185614 
L 199.692245 368.929576 
L 200.073968 366.618892 
L 200.571095 362.179834 
L 201.299032 353.333289 
L 202.675009 336.697035 
L 203.802423 323.773485 
L 204.033232 317.440359 
L 204.184145 306.284087 
L 204.290673 278.858294 
L 204.370568 188.91338 
L 204.459341 80.617325 
L 204.521482 90.249868 
L 204.858818 208.816934 
L 205.382577 369.184823 
L 205.444718 368.99649 
L 205.799809 366.91548 
L 206.288059 362.70184 
L 206.971609 354.573801 
L 208.4985 336.113511 
L 209.546018 324.198495 
L 209.785705 318.054237 
L 209.945495 307.026377 
L 210.052023 281.703921 
L 210.131918 200.656381 
L 210.229568 80.601138 
L 210.291709 91.004932 
L 210.664555 221.602982 
L 211.143927 369.185006 
L 211.223823 368.943623 
L 211.605545 366.641062 
L 212.102673 362.211851 
L 212.821732 353.489976 
L 214.215464 336.636145 
L 215.334 323.829398 
L 215.564809 317.570403 
L 215.715723 306.668441 
L 215.82225 280.346858 
L 215.902145 195.026965 
L 215.999795 80.663276 
L 216.061936 91.776663 
L 216.488045 239.803303 
L 216.914155 369.185616 
L 216.99405 368.930188 
L 217.375773 366.619854 
L 217.8729 362.181223 
L 218.600836 353.335024 
L 219.976814 336.698415 
L 221.104227 323.775927 
L 221.335036 317.446052 
L 221.48595 306.300959 
L 221.592477 278.924084 
L 221.672373 189.182233 
L 221.761145 80.620179 
L 221.823286 90.216089 
L 222.160623 208.772389 
L 222.684382 369.184887 
L 222.746523 368.997067 
L 223.101614 366.916406 
L 223.589864 362.703189 
L 224.273414 354.575523 
L 225.800305 336.114878 
L 226.847823 324.200805 
L 227.087509 318.059498 
L 227.2473 307.042363 
L 227.353827 281.763664 
L 227.433723 200.905744 
L 227.531373 80.600288 
L 227.593514 90.970354 
L 227.966359 221.559631 
L 228.445732 369.184941 
L 228.525627 368.944226 
L 228.90735 366.642018 
L 229.404477 362.213232 
L 230.123536 353.491704 
L 231.517268 336.637518 
L 232.635805 323.831808 
L 232.866614 317.575985 
L 233.017527 306.684849 
L 233.124055 280.409754 
L 233.20395 195.286023 
L 233.3016 80.658885 
L 233.363741 91.741517 
L 233.780973 236.909093 
L 234.215959 369.185617 
L 234.295855 368.930795 
L 234.677577 366.62081 
L 235.174705 362.182603 
L 235.902641 353.336749 
L 237.278618 336.699787 
L 238.406032 323.778349 
L 238.636841 317.4517 
L 238.787755 306.317696 
L 238.894282 278.989329 
L 238.974177 189.448869 
L 239.06295 80.623214 
L 239.125091 90.182643 
L 239.45355 205.722232 
L 239.986186 369.184948 
L 240.03945 369.035434 
L 240.367909 367.162269 
L 240.847282 363.151748 
L 241.5042 355.498373 
L 243.173127 335.384974 
L 244.14075 324.356497 
L 244.380436 318.409913 
L 244.540227 308.086452 
L 244.646755 285.568593 
L 244.72665 216.839752 
L 244.833177 80.599431 
L 244.904195 93.331739 
L 245.427955 273.996325 
L 245.747536 369.184879 
L 245.8008 369.059624 
L 246.111505 367.321307 
L 246.590877 363.385629 
L 247.230041 356.031446 
L 248.996618 334.810004 
L 249.9021 324.457999 
L 250.141786 318.633587 
L 250.301577 308.731671 
L 250.416982 284.395115 
L 250.496877 211.929536 
L 250.603405 80.654644 
L 250.665545 91.706557 
L 251.082777 236.867083 
L 251.517764 369.185615 
L 251.597659 368.9314 
L 251.979382 366.621762 
L 252.476509 362.183977 
L 253.204445 353.338467 
L 254.580423 336.701153 
L 255.707836 323.78076 
L 255.938645 317.457319 
L 256.089559 306.334342 
L 256.196086 279.054203 
L 256.275982 189.714319 
L 256.364755 80.626291 
L 256.426895 90.149267 
L 256.755355 205.677813 
L 257.287991 369.185007 
L 257.341255 369.035977 
L 257.669714 367.163158 
L 258.149086 363.153051 
L 258.806005 355.500063 
L 260.474932 335.386319 
L 261.442555 324.358738 
L 261.682241 318.414884 
L 261.842032 308.100966 
L 261.948559 285.619827 
L 262.028455 217.053407 
L 262.134982 80.598683 
L 262.206 93.295438 
L 262.729759 273.949647 
L 263.049341 369.184816 
L 263.102605 369.060146 
L 263.413309 367.322177 
L 263.892682 363.386915 
L 264.531845 356.033128 
L 266.298423 334.811344 
L 267.203905 324.460205 
L 267.443591 318.638406 
L 267.603382 308.745389 
L 267.718786 284.448692 
L 267.798682 212.153457 
L 267.905209 80.65059 
L 267.96735 91.671673 
L 268.384582 236.825071 
L 268.819568 369.185614 
L 268.899464 368.932006 
L 269.281186 366.622716 
L 269.778314 362.185354 
L 270.50625 353.340187 
L 271.882227 336.702522 
L 273.009641 323.783162 
L 273.24045 317.462911 
L 273.391364 306.350899 
L 273.497891 279.118707 
L 273.577786 189.978457 
L 273.666559 80.629502 
L 273.7287 90.116035 
L 274.057159 205.633529 
L 274.589795 369.185064 
L 274.643059 369.036518 
L 274.971518 367.164044 
L 275.450891 363.154349 
L 276.107809 355.501749 
L 277.776736 335.38766 
L 278.744359 324.360968 
L 278.984045 318.419829 
L 279.143836 308.11537 
L 279.250364 285.670636 
L 279.330259 217.265047 
L 279.436786 80.598103 
L 279.507805 93.25944 
L 280.031564 273.903333 
L 280.351145 369.184752 
L 280.404409 369.060664 
L 280.715114 367.323041 
L 281.194486 363.38819 
L 281.83365 356.034796 
L 283.600227 334.812673 
L 284.505709 324.462395 
L 284.745395 318.643192 
L 284.905186 308.759011 
L 285.020591 284.501881 
L 285.100486 212.375732 
L 285.207014 80.646739 
L 285.269155 91.63707 
L 285.686386 236.783369 
L 286.121373 369.185607 
L 286.201268 368.932607 
L 286.582991 366.623661 
L 287.080118 362.18672 
L 287.808055 353.341895 
L 289.184032 336.703879 
L 290.311445 323.785544 
L 290.542255 317.468455 
L 290.693168 306.36731 
L 290.799695 279.18263 
L 290.879591 190.240227 
L 290.968364 80.632927 
L 291.030505 90.083113 
L 291.358964 205.5896 
L 291.8916 369.185117 
L 291.944864 369.037052 
L 292.273323 367.164921 
L 292.752695 363.155634 
L 293.409614 355.503417 
L 295.078541 335.388987 
L 296.046164 324.363178 
L 296.28585 318.42473 
L 296.445641 308.129604 
L 296.561045 281.997786 
L 296.640941 201.881043 
L 296.738591 80.597615 
L 296.800732 90.834598 
L 297.1647 218.463855 
L 297.65295 369.184686 
L 297.723968 368.986546 
L 298.079059 366.899575 
L 298.567309 362.678691 
L 299.250859 354.544285 
L 300.768873 336.181904 
L 301.825268 324.158984 
L 302.064955 317.963745 
L 302.215868 307.80202 
L 302.322395 284.554216 
L 302.402291 212.594386 
L 302.508818 80.643006 
L 302.570959 91.603024 
L 302.979314 233.884331 
L 303.423177 369.1856 
L 303.503073 368.933199 
L 303.884795 366.624595 
L 304.381923 362.188067 
L 305.109859 353.343579 
L 306.485836 336.705219 
L 307.61325 323.787889 
L 307.844059 317.473909 
L 307.994973 306.383445 
L 308.1015 279.245459 
L 308.181395 190.49752 
L 308.270168 80.636527 
L 308.332309 90.050726 
L 308.660768 205.546336 
L 309.193405 369.185167 
L 309.246668 369.037578 
L 309.575127 367.165783 
L 310.0545 363.156897 
L 310.711418 355.505058 
L 312.380345 335.390293 
L 313.347968 324.365356 
L 313.587655 318.429562 
L 313.747445 308.143636 
L 313.86285 282.054617 
L 313.942745 202.117932 
L 314.040395 80.597239 
L 314.102536 90.801643 
L 314.466505 218.422029 
L 314.954755 369.184618 
L 315.025773 368.987107 
L 315.380864 366.900468 
L 315.869114 362.67999 
L 316.552664 354.54594 
L 318.070677 336.183217 
L 319.127073 324.161195 
L 319.366759 317.968812 
L 319.517673 307.816329 
L 319.6242 284.605779 
L 319.704095 212.809781 
L 319.810623 80.639422 
L 319.872764 91.569523 
L 320.281118 233.843776 
L 320.724982 369.185591 
L 320.804877 368.933783 
L 321.1866 366.625514 
L 321.683727 362.189394 
L 322.411664 353.345238 
L 323.787641 336.706537 
L 324.915055 323.790201 
L 325.145864 317.479288 
L 325.296777 306.39936 
L 325.403305 279.307418 
L 325.4832 190.751267 
L 325.571973 80.640252 
L 325.634114 90.018848 
L 325.962573 205.503741 
L 326.495209 369.185211 
L 326.548473 369.038095 
L 326.876932 367.166632 
L 327.356305 363.158141 
L 328.013223 355.506673 
L 329.318182 339.241109 
L 329.327059 339.731721 
L 329.593377 348.189104 
L 329.833064 350.411702 
L 329.957345 350.574752 
L 329.992855 350.547646 
L 330.143768 350.189108 
L 330.489982 348.613873 
L 331.626273 343.261507 
L 332.167786 341.74261 
L 332.602773 341.112973 
L 332.957864 340.944769 
L 333.312955 341.02621 
L 333.889977 341.437959 
L 334.671177 341.925639 
L 335.2482 342.009472 
L 336.206945 341.874701 
L 337.529659 341.759099 
L 415.534255 341.795199 
L 435.845455 341.795199 
L 435.845455 341.795199 
" style="fill:none;stroke:#ff0000;stroke-linecap:square;stroke-width:1.5;"/>
   </g>
   <g id="patch_3">
    <path d="M 63 384.48 
L 63 51.84 
" style="fill:none;stroke:#000000;stroke-linecap:square;stroke-linejoin:miter;stroke-width:0.8;"/>
   </g>
   <g id="patch_4">
    <path d="M 453.6 384.48 
L 453.6 51.84 
" style="fill:none;stroke:#000000;stroke-linecap:square;stroke-linejoin:miter;stroke-width:0.8;"/>
   </g>
   <g id="patch_5">
    <path d="M 63 384.48 
L 453.6 384.48 
" style="fill:none;stroke:#000000;stroke-linecap:square;stroke-linejoin:miter;stroke-width:0.8;"/>
   </g>
   <g id="patch_6">
    <path d="M 63 51.84 
L 453.6 51.84 
" style="fill:none;stroke:#000000;stroke-linecap:square;stroke-linejoin:miter;stroke-width:0.8;"/>
   </g>
   <g id="legend_1">
    <g id="patch_7">
     <path d="M 383.460938 89.19625 
L 446.6 89.19625 
Q 448.6 89.19625 448.6 87.19625 
L 448.6 58.84 
Q 448.6 56.84 446.6 56.84 
L 383.460938 56.84 
Q 381.460938 56.84 381.460938 58.84 
L 381.460938 87.19625 
Q 381.460938 89.19625 383.460938 89.19625 
z
" style="fill:#ffffff;opacity:0.8;stroke:#cccccc;stroke-linejoin:miter;"/>
    </g>
    <g id="line2d_15">
     <path d="M 385.460938 64.938437 
L 405.460938 64.938437 
" style="fill:none;stroke:#1f77b4;stroke-linecap:square;stroke-width:1.5;"/>
    </g>
    <g id="line2d_16"/>
    <g id="text_15">
     <!-- target -->
     <defs>
      <path d="M 41.109375 46.296875 
Q 39.59375 47.171875 37.8125 47.578125 
Q 36.03125 48 33.890625 48 
Q 26.265625 48 22.1875 43.046875 
Q 18.109375 38.09375 18.109375 28.8125 
L 18.109375 0 
L 9.078125 0 
L 9.078125 54.6875 
L 18.109375 54.6875 
L 18.109375 46.1875 
Q 20.953125 51.171875 25.484375 53.578125 
Q 30.03125 56 36.53125 56 
Q 37.453125 56 38.578125 55.875 
Q 39.703125 55.765625 41.0625 55.515625 
z
" id="DejaVuSans-72"/>
     </defs>
     <g transform="translate(413.460938 68.438437)scale(0.1 -0.1)">
      <use xlink:href="#DejaVuSans-74"/>
      <use x="39.208984" xlink:href="#DejaVuSans-61"/>
      <use x="100.488281" xlink:href="#DejaVuSans-72"/>
      <use x="141.585938" xlink:href="#DejaVuSans-67"/>
      <use x="205.0625" xlink:href="#DejaVuSans-65"/>
      <use x="266.585938" xlink:href="#DejaVuSans-74"/>
     </g>
    </g>
    <g id="line2d_17">
     <path d="M 385.460938 79.616562 
L 405.460938 79.616562 
" style="fill:none;stroke:#ff0000;stroke-linecap:square;stroke-width:1.5;"/>
    </g>
    <g id="line2d_18"/>
    <g id="text_16">
     <!-- model -->
     <defs>
      <path d="M 45.40625 46.390625 
L 45.40625 75.984375 
L 54.390625 75.984375 
L 54.390625 0 
L 45.40625 0 
L 45.40625 8.203125 
Q 42.578125 3.328125 38.25 0.953125 
Q 33.9375 -1.421875 27.875 -1.421875 
Q 17.96875 -1.421875 11.734375 6.484375 
Q 5.515625 14.40625 5.515625 27.296875 
Q 5.515625 40.1875 11.734375 48.09375 
Q 17.96875 56 27.875 56 
Q 33.9375 56 38.25 53.625 
Q 42.578125 51.265625 45.40625 46.390625 
z
M 14.796875 27.296875 
Q 14.796875 17.390625 18.875 11.75 
Q 22.953125 6.109375 30.078125 6.109375 
Q 37.203125 6.109375 41.296875 11.75 
Q 45.40625 17.390625 45.40625 27.296875 
Q 45.40625 37.203125 41.296875 42.84375 
Q 37.203125 48.484375 30.078125 48.484375 
Q 22.953125 48.484375 18.875 42.84375 
Q 14.796875 37.203125 14.796875 27.296875 
z
" id="DejaVuSans-64"/>
     </defs>
     <g transform="translate(413.460938 83.116562)scale(0.1 -0.1)">
      <use xlink:href="#DejaVuSans-6d"/>
      <use x="97.412109" xlink:href="#DejaVuSans-6f"/>
      <use x="158.59375" xlink:href="#DejaVuSans-64"/>
      <use x="222.070312" xlink:href="#DejaVuSans-65"/>
      <use x="283.59375" xlink:href="#DejaVuSans-6c"/>
     </g>
    </g>
   </g>
  </g>
 </g>
 <defs>
  <clipPath id="p1e2b58af4d">
   <rect height="332.64" width="390.6" x="63" y="51.84"/>
  </clipPath>
 </defs>
</svg>
