<?xml version="1.0" encoding="utf-8" standalone="no"?>
<!DOCTYPE svg PUBLIC "-//W3C//DTD SVG 1.1//EN"
  "http://www.w3.org/Graphics/SVG/1.1/DTD/svg11.dtd">
<!-- Created with matplotlib (http://matplotlib.org/) -->
<svg height="432pt" version="1.1" viewBox="0 0 504 432" width="504pt" xmlns="http://www.w3.org/2000/svg" xmlns:xlink="http://www.w3.org/1999/xlink">
 <defs>
  <style type="text/css">
*{stroke-linecap:butt;stroke-linejoin:round;}
  </style>
 </defs>
 <g id="figure_1">
  <g id="patch_1">
   <path d="M 0 432 
L 504 432 
L 504 0 
L 0 0 
z
" style="fill:#ffffff;"/>
  </g>
  <g id="axes_1">
   <g id="patch_2">
    <path d="M 63 384.48 
L 453.6 384.48 
L 453.6 51.84 
L 63 51.84 
z
" style="fill:#ffffff;"/>
   </g>
   <g id="matplotlib.axis_1">
    <g id="xtick_1">
     <g id="line2d_1">
      <defs>
       <path d="M 0 0 
L 0 3.5 
" id="mf9ee0bfd9f" style="stroke:#000000;stroke-width:0.8;"/>
      </defs>
      <g>
       <use style="stroke:#000000;stroke-width:0.8;" x="80.754545" xlink:href="#mf9ee0bfd9f" y="384.48"/>
      </g>
     </g>
     <g id="text_1">
      <!-- 0 -->
      <defs>
       <path d="M 31.78125 66.40625 
Q 24.171875 66.40625 20.328125 58.90625 
Q 16.5 51.421875 16.5 36.375 
Q 16.5 21.390625 20.328125 13.890625 
Q 24.171875 6.390625 31.78125 6.390625 
Q 39.453125 6.390625 43.28125 13.890625 
Q 47.125 21.390625 47.125 36.375 
Q 47.125 51.421875 43.28125 58.90625 
Q 39.453125 66.40625 31.78125 66.40625 
z
M 31.78125 74.21875 
Q 44.046875 74.21875 50.515625 64.515625 
Q 56.984375 54.828125 56.984375 36.375 
Q 56.984375 17.96875 50.515625 8.265625 
Q 44.046875 -1.421875 31.78125 -1.421875 
Q 19.53125 -1.421875 13.0625 8.265625 
Q 6.59375 17.96875 6.59375 36.375 
Q 6.59375 54.828125 13.0625 64.515625 
Q 19.53125 74.21875 31.78125 74.21875 
z
" id="DejaVuSans-30"/>
      </defs>
      <g transform="translate(77.573295 399.078438)scale(0.1 -0.1)">
       <use xlink:href="#DejaVuSans-30"/>
      </g>
     </g>
    </g>
    <g id="xtick_2">
     <g id="line2d_2">
      <g>
       <use style="stroke:#000000;stroke-width:0.8;" x="151.772727" xlink:href="#mf9ee0bfd9f" y="384.48"/>
      </g>
     </g>
     <g id="text_2">
      <!-- 200 -->
      <defs>
       <path d="M 19.1875 8.296875 
L 53.609375 8.296875 
L 53.609375 0 
L 7.328125 0 
L 7.328125 8.296875 
Q 12.9375 14.109375 22.625 23.890625 
Q 32.328125 33.6875 34.8125 36.53125 
Q 39.546875 41.84375 41.421875 45.53125 
Q 43.3125 49.21875 43.3125 52.78125 
Q 43.3125 58.59375 39.234375 62.25 
Q 35.15625 65.921875 28.609375 65.921875 
Q 23.96875 65.921875 18.8125 64.3125 
Q 13.671875 62.703125 7.8125 59.421875 
L 7.8125 69.390625 
Q 13.765625 71.78125 18.9375 73 
Q 24.125 74.21875 28.421875 74.21875 
Q 39.75 74.21875 46.484375 68.546875 
Q 53.21875 62.890625 53.21875 53.421875 
Q 53.21875 48.921875 51.53125 44.890625 
Q 49.859375 40.875 45.40625 35.40625 
Q 44.1875 33.984375 37.640625 27.21875 
Q 31.109375 20.453125 19.1875 8.296875 
z
" id="DejaVuSans-32"/>
      </defs>
      <g transform="translate(142.228977 399.078438)scale(0.1 -0.1)">
       <use xlink:href="#DejaVuSans-32"/>
       <use x="63.623047" xlink:href="#DejaVuSans-30"/>
       <use x="127.246094" xlink:href="#DejaVuSans-30"/>
      </g>
     </g>
    </g>
    <g id="xtick_3">
     <g id="line2d_3">
      <g>
       <use style="stroke:#000000;stroke-width:0.8;" x="222.790909" xlink:href="#mf9ee0bfd9f" y="384.48"/>
      </g>
     </g>
     <g id="text_3">
      <!-- 400 -->
      <defs>
       <path d="M 37.796875 64.3125 
L 12.890625 25.390625 
L 37.796875 25.390625 
z
M 35.203125 72.90625 
L 47.609375 72.90625 
L 47.609375 25.390625 
L 58.015625 25.390625 
L 58.015625 17.1875 
L 47.609375 17.1875 
L 47.609375 0 
L 37.796875 0 
L 37.796875 17.1875 
L 4.890625 17.1875 
L 4.890625 26.703125 
z
" id="DejaVuSans-34"/>
      </defs>
      <g transform="translate(213.247159 399.078438)scale(0.1 -0.1)">
       <use xlink:href="#DejaVuSans-34"/>
       <use x="63.623047" xlink:href="#DejaVuSans-30"/>
       <use x="127.246094" xlink:href="#DejaVuSans-30"/>
      </g>
     </g>
    </g>
    <g id="xtick_4">
     <g id="line2d_4">
      <g>
       <use style="stroke:#000000;stroke-width:0.8;" x="293.809091" xlink:href="#mf9ee0bfd9f" y="384.48"/>
      </g>
     </g>
     <g id="text_4">
      <!-- 600 -->
      <defs>
       <path d="M 33.015625 40.375 
Q 26.375 40.375 22.484375 35.828125 
Q 18.609375 31.296875 18.609375 23.390625 
Q 18.609375 15.53125 22.484375 10.953125 
Q 26.375 6.390625 33.015625 6.390625 
Q 39.65625 6.390625 43.53125 10.953125 
Q 47.40625 15.53125 47.40625 23.390625 
Q 47.40625 31.296875 43.53125 35.828125 
Q 39.65625 40.375 33.015625 40.375 
z
M 52.59375 71.296875 
L 52.59375 62.3125 
Q 48.875 64.0625 45.09375 64.984375 
Q 41.3125 65.921875 37.59375 65.921875 
Q 27.828125 65.921875 22.671875 59.328125 
Q 17.53125 52.734375 16.796875 39.40625 
Q 19.671875 43.65625 24.015625 45.921875 
Q 28.375 48.1875 33.59375 48.1875 
Q 44.578125 48.1875 50.953125 41.515625 
Q 57.328125 34.859375 57.328125 23.390625 
Q 57.328125 12.15625 50.6875 5.359375 
Q 44.046875 -1.421875 33.015625 -1.421875 
Q 20.359375 -1.421875 13.671875 8.265625 
Q 6.984375 17.96875 6.984375 36.375 
Q 6.984375 53.65625 15.1875 63.9375 
Q 23.390625 74.21875 37.203125 74.21875 
Q 40.921875 74.21875 44.703125 73.484375 
Q 48.484375 72.75 52.59375 71.296875 
z
" id="DejaVuSans-36"/>
      </defs>
      <g transform="translate(284.265341 399.078438)scale(0.1 -0.1)">
       <use xlink:href="#DejaVuSans-36"/>
       <use x="63.623047" xlink:href="#DejaVuSans-30"/>
       <use x="127.246094" xlink:href="#DejaVuSans-30"/>
      </g>
     </g>
    </g>
    <g id="xtick_5">
     <g id="line2d_5">
      <g>
       <use style="stroke:#000000;stroke-width:0.8;" x="364.827273" xlink:href="#mf9ee0bfd9f" y="384.48"/>
      </g>
     </g>
     <g id="text_5">
      <!-- 800 -->
      <defs>
       <path d="M 31.78125 34.625 
Q 24.75 34.625 20.71875 30.859375 
Q 16.703125 27.09375 16.703125 20.515625 
Q 16.703125 13.921875 20.71875 10.15625 
Q 24.75 6.390625 31.78125 6.390625 
Q 38.8125 6.390625 42.859375 10.171875 
Q 46.921875 13.96875 46.921875 20.515625 
Q 46.921875 27.09375 42.890625 30.859375 
Q 38.875 34.625 31.78125 34.625 
z
M 21.921875 38.8125 
Q 15.578125 40.375 12.03125 44.71875 
Q 8.5 49.078125 8.5 55.328125 
Q 8.5 64.0625 14.71875 69.140625 
Q 20.953125 74.21875 31.78125 74.21875 
Q 42.671875 74.21875 48.875 69.140625 
Q 55.078125 64.0625 55.078125 55.328125 
Q 55.078125 49.078125 51.53125 44.71875 
Q 48 40.375 41.703125 38.8125 
Q 48.828125 37.15625 52.796875 32.3125 
Q 56.78125 27.484375 56.78125 20.515625 
Q 56.78125 9.90625 50.3125 4.234375 
Q 43.84375 -1.421875 31.78125 -1.421875 
Q 19.734375 -1.421875 13.25 4.234375 
Q 6.78125 9.90625 6.78125 20.515625 
Q 6.78125 27.484375 10.78125 32.3125 
Q 14.796875 37.15625 21.921875 38.8125 
z
M 18.3125 54.390625 
Q 18.3125 48.734375 21.84375 45.5625 
Q 25.390625 42.390625 31.78125 42.390625 
Q 38.140625 42.390625 41.71875 45.5625 
Q 45.3125 48.734375 45.3125 54.390625 
Q 45.3125 60.0625 41.71875 63.234375 
Q 38.140625 66.40625 31.78125 66.40625 
Q 25.390625 66.40625 21.84375 63.234375 
Q 18.3125 60.0625 18.3125 54.390625 
z
" id="DejaVuSans-38"/>
      </defs>
      <g transform="translate(355.283523 399.078438)scale(0.1 -0.1)">
       <use xlink:href="#DejaVuSans-38"/>
       <use x="63.623047" xlink:href="#DejaVuSans-30"/>
       <use x="127.246094" xlink:href="#DejaVuSans-30"/>
      </g>
     </g>
    </g>
    <g id="text_6">
     <!-- time [ms] -->
     <defs>
      <path d="M 18.3125 70.21875 
L 18.3125 54.6875 
L 36.8125 54.6875 
L 36.8125 47.703125 
L 18.3125 47.703125 
L 18.3125 18.015625 
Q 18.3125 11.328125 20.140625 9.421875 
Q 21.96875 7.515625 27.59375 7.515625 
L 36.8125 7.515625 
L 36.8125 0 
L 27.59375 0 
Q 17.1875 0 13.234375 3.875 
Q 9.28125 7.765625 9.28125 18.015625 
L 9.28125 47.703125 
L 2.6875 47.703125 
L 2.6875 54.6875 
L 9.28125 54.6875 
L 9.28125 70.21875 
z
" id="DejaVuSans-74"/>
      <path d="M 9.421875 54.6875 
L 18.40625 54.6875 
L 18.40625 0 
L 9.421875 0 
z
M 9.421875 75.984375 
L 18.40625 75.984375 
L 18.40625 64.59375 
L 9.421875 64.59375 
z
" id="DejaVuSans-69"/>
      <path d="M 52 44.1875 
Q 55.375 50.25 60.0625 53.125 
Q 64.75 56 71.09375 56 
Q 79.640625 56 84.28125 50.015625 
Q 88.921875 44.046875 88.921875 33.015625 
L 88.921875 0 
L 79.890625 0 
L 79.890625 32.71875 
Q 79.890625 40.578125 77.09375 44.375 
Q 74.3125 48.1875 68.609375 48.1875 
Q 61.625 48.1875 57.5625 43.546875 
Q 53.515625 38.921875 53.515625 30.90625 
L 53.515625 0 
L 44.484375 0 
L 44.484375 32.71875 
Q 44.484375 40.625 41.703125 44.40625 
Q 38.921875 48.1875 33.109375 48.1875 
Q 26.21875 48.1875 22.15625 43.53125 
Q 18.109375 38.875 18.109375 30.90625 
L 18.109375 0 
L 9.078125 0 
L 9.078125 54.6875 
L 18.109375 54.6875 
L 18.109375 46.1875 
Q 21.1875 51.21875 25.484375 53.609375 
Q 29.78125 56 35.6875 56 
Q 41.65625 56 45.828125 52.96875 
Q 50 49.953125 52 44.1875 
z
" id="DejaVuSans-6d"/>
      <path d="M 56.203125 29.59375 
L 56.203125 25.203125 
L 14.890625 25.203125 
Q 15.484375 15.921875 20.484375 11.0625 
Q 25.484375 6.203125 34.421875 6.203125 
Q 39.59375 6.203125 44.453125 7.46875 
Q 49.3125 8.734375 54.109375 11.28125 
L 54.109375 2.78125 
Q 49.265625 0.734375 44.1875 -0.34375 
Q 39.109375 -1.421875 33.890625 -1.421875 
Q 20.796875 -1.421875 13.15625 6.1875 
Q 5.515625 13.8125 5.515625 26.8125 
Q 5.515625 40.234375 12.765625 48.109375 
Q 20.015625 56 32.328125 56 
Q 43.359375 56 49.78125 48.890625 
Q 56.203125 41.796875 56.203125 29.59375 
z
M 47.21875 32.234375 
Q 47.125 39.59375 43.09375 43.984375 
Q 39.0625 48.390625 32.421875 48.390625 
Q 24.90625 48.390625 20.390625 44.140625 
Q 15.875 39.890625 15.1875 32.171875 
z
" id="DejaVuSans-65"/>
      <path id="DejaVuSans-20"/>
      <path d="M 8.59375 75.984375 
L 29.296875 75.984375 
L 29.296875 69 
L 17.578125 69 
L 17.578125 -6.203125 
L 29.296875 -6.203125 
L 29.296875 -13.1875 
L 8.59375 -13.1875 
z
" id="DejaVuSans-5b"/>
      <path d="M 44.28125 53.078125 
L 44.28125 44.578125 
Q 40.484375 46.53125 36.375 47.5 
Q 32.28125 48.484375 27.875 48.484375 
Q 21.1875 48.484375 17.84375 46.4375 
Q 14.5 44.390625 14.5 40.28125 
Q 14.5 37.15625 16.890625 35.375 
Q 19.28125 33.59375 26.515625 31.984375 
L 29.59375 31.296875 
Q 39.15625 29.25 43.1875 25.515625 
Q 47.21875 21.78125 47.21875 15.09375 
Q 47.21875 7.46875 41.1875 3.015625 
Q 35.15625 -1.421875 24.609375 -1.421875 
Q 20.21875 -1.421875 15.453125 -0.5625 
Q 10.6875 0.296875 5.421875 2 
L 5.421875 11.28125 
Q 10.40625 8.6875 15.234375 7.390625 
Q 20.0625 6.109375 24.8125 6.109375 
Q 31.15625 6.109375 34.5625 8.28125 
Q 37.984375 10.453125 37.984375 14.40625 
Q 37.984375 18.0625 35.515625 20.015625 
Q 33.0625 21.96875 24.703125 23.78125 
L 21.578125 24.515625 
Q 13.234375 26.265625 9.515625 29.90625 
Q 5.8125 33.546875 5.8125 39.890625 
Q 5.8125 47.609375 11.28125 51.796875 
Q 16.75 56 26.8125 56 
Q 31.78125 56 36.171875 55.265625 
Q 40.578125 54.546875 44.28125 53.078125 
z
" id="DejaVuSans-73"/>
      <path d="M 30.421875 75.984375 
L 30.421875 -13.1875 
L 9.71875 -13.1875 
L 9.71875 -6.203125 
L 21.390625 -6.203125 
L 21.390625 69 
L 9.71875 69 
L 9.71875 75.984375 
z
" id="DejaVuSans-5d"/>
     </defs>
     <g transform="translate(234.038281 412.756563)scale(0.1 -0.1)">
      <use xlink:href="#DejaVuSans-74"/>
      <use x="39.208984" xlink:href="#DejaVuSans-69"/>
      <use x="66.992188" xlink:href="#DejaVuSans-6d"/>
      <use x="164.404297" xlink:href="#DejaVuSans-65"/>
      <use x="225.927734" xlink:href="#DejaVuSans-20"/>
      <use x="257.714844" xlink:href="#DejaVuSans-5b"/>
      <use x="296.728516" xlink:href="#DejaVuSans-6d"/>
      <use x="394.140625" xlink:href="#DejaVuSans-73"/>
      <use x="446.240234" xlink:href="#DejaVuSans-5d"/>
     </g>
    </g>
   </g>
   <g id="matplotlib.axis_2">
    <g id="ytick_1">
     <g id="line2d_6">
      <defs>
       <path d="M 0 0 
L -3.5 0 
" id="m2bf331a582" style="stroke:#000000;stroke-width:0.8;"/>
      </defs>
      <g>
       <use style="stroke:#000000;stroke-width:0.8;" x="63" xlink:href="#m2bf331a582" y="381.733555"/>
      </g>
     </g>
     <g id="text_7">
      <!-- −80 -->
      <defs>
       <path d="M 10.59375 35.5 
L 73.1875 35.5 
L 73.1875 27.203125 
L 10.59375 27.203125 
z
" id="DejaVuSans-2212"/>
      </defs>
      <g transform="translate(34.895313 385.532774)scale(0.1 -0.1)">
       <use xlink:href="#DejaVuSans-2212"/>
       <use x="83.789062" xlink:href="#DejaVuSans-38"/>
       <use x="147.412109" xlink:href="#DejaVuSans-30"/>
      </g>
     </g>
    </g>
    <g id="ytick_2">
     <g id="line2d_7">
      <g>
       <use style="stroke:#000000;stroke-width:0.8;" x="63" xlink:href="#m2bf331a582" y="329.50769"/>
      </g>
     </g>
     <g id="text_8">
      <!-- −60 -->
      <g transform="translate(34.895313 333.306909)scale(0.1 -0.1)">
       <use xlink:href="#DejaVuSans-2212"/>
       <use x="83.789062" xlink:href="#DejaVuSans-36"/>
       <use x="147.412109" xlink:href="#DejaVuSans-30"/>
      </g>
     </g>
    </g>
    <g id="ytick_3">
     <g id="line2d_8">
      <g>
       <use style="stroke:#000000;stroke-width:0.8;" x="63" xlink:href="#m2bf331a582" y="277.281825"/>
      </g>
     </g>
     <g id="text_9">
      <!-- −40 -->
      <g transform="translate(34.895313 281.081043)scale(0.1 -0.1)">
       <use xlink:href="#DejaVuSans-2212"/>
       <use x="83.789062" xlink:href="#DejaVuSans-34"/>
       <use x="147.412109" xlink:href="#DejaVuSans-30"/>
      </g>
     </g>
    </g>
    <g id="ytick_4">
     <g id="line2d_9">
      <g>
       <use style="stroke:#000000;stroke-width:0.8;" x="63" xlink:href="#m2bf331a582" y="225.055959"/>
      </g>
     </g>
     <g id="text_10">
      <!-- −20 -->
      <g transform="translate(34.895313 228.855178)scale(0.1 -0.1)">
       <use xlink:href="#DejaVuSans-2212"/>
       <use x="83.789062" xlink:href="#DejaVuSans-32"/>
       <use x="147.412109" xlink:href="#DejaVuSans-30"/>
      </g>
     </g>
    </g>
    <g id="ytick_5">
     <g id="line2d_10">
      <g>
       <use style="stroke:#000000;stroke-width:0.8;" x="63" xlink:href="#m2bf331a582" y="172.830094"/>
      </g>
     </g>
     <g id="text_11">
      <!-- 0 -->
      <g transform="translate(49.6375 176.629313)scale(0.1 -0.1)">
       <use xlink:href="#DejaVuSans-30"/>
      </g>
     </g>
    </g>
    <g id="ytick_6">
     <g id="line2d_11">
      <g>
       <use style="stroke:#000000;stroke-width:0.8;" x="63" xlink:href="#m2bf331a582" y="120.604229"/>
      </g>
     </g>
     <g id="text_12">
      <!-- 20 -->
      <g transform="translate(43.275 124.403447)scale(0.1 -0.1)">
       <use xlink:href="#DejaVuSans-32"/>
       <use x="63.623047" xlink:href="#DejaVuSans-30"/>
      </g>
     </g>
    </g>
    <g id="ytick_7">
     <g id="line2d_12">
      <g>
       <use style="stroke:#000000;stroke-width:0.8;" x="63" xlink:href="#m2bf331a582" y="68.378363"/>
      </g>
     </g>
     <g id="text_13">
      <!-- 40 -->
      <g transform="translate(43.275 72.177582)scale(0.1 -0.1)">
       <use xlink:href="#DejaVuSans-34"/>
       <use x="63.623047" xlink:href="#DejaVuSans-30"/>
      </g>
     </g>
    </g>
    <g id="text_14">
     <!-- voltage [mV] -->
     <defs>
      <path d="M 2.984375 54.6875 
L 12.5 54.6875 
L 29.59375 8.796875 
L 46.6875 54.6875 
L 56.203125 54.6875 
L 35.6875 0 
L 23.484375 0 
z
" id="DejaVuSans-76"/>
      <path d="M 30.609375 48.390625 
Q 23.390625 48.390625 19.1875 42.75 
Q 14.984375 37.109375 14.984375 27.296875 
Q 14.984375 17.484375 19.15625 11.84375 
Q 23.34375 6.203125 30.609375 6.203125 
Q 37.796875 6.203125 41.984375 11.859375 
Q 46.1875 17.53125 46.1875 27.296875 
Q 46.1875 37.015625 41.984375 42.703125 
Q 37.796875 48.390625 30.609375 48.390625 
z
M 30.609375 56 
Q 42.328125 56 49.015625 48.375 
Q 55.71875 40.765625 55.71875 27.296875 
Q 55.71875 13.875 49.015625 6.21875 
Q 42.328125 -1.421875 30.609375 -1.421875 
Q 18.84375 -1.421875 12.171875 6.21875 
Q 5.515625 13.875 5.515625 27.296875 
Q 5.515625 40.765625 12.171875 48.375 
Q 18.84375 56 30.609375 56 
z
" id="DejaVuSans-6f"/>
      <path d="M 9.421875 75.984375 
L 18.40625 75.984375 
L 18.40625 0 
L 9.421875 0 
z
" id="DejaVuSans-6c"/>
      <path d="M 34.28125 27.484375 
Q 23.390625 27.484375 19.1875 25 
Q 14.984375 22.515625 14.984375 16.5 
Q 14.984375 11.71875 18.140625 8.90625 
Q 21.296875 6.109375 26.703125 6.109375 
Q 34.1875 6.109375 38.703125 11.40625 
Q 43.21875 16.703125 43.21875 25.484375 
L 43.21875 27.484375 
z
M 52.203125 31.203125 
L 52.203125 0 
L 43.21875 0 
L 43.21875 8.296875 
Q 40.140625 3.328125 35.546875 0.953125 
Q 30.953125 -1.421875 24.3125 -1.421875 
Q 15.921875 -1.421875 10.953125 3.296875 
Q 6 8.015625 6 15.921875 
Q 6 25.140625 12.171875 29.828125 
Q 18.359375 34.515625 30.609375 34.515625 
L 43.21875 34.515625 
L 43.21875 35.40625 
Q 43.21875 41.609375 39.140625 45 
Q 35.0625 48.390625 27.6875 48.390625 
Q 23 48.390625 18.546875 47.265625 
Q 14.109375 46.140625 10.015625 43.890625 
L 10.015625 52.203125 
Q 14.9375 54.109375 19.578125 55.046875 
Q 24.21875 56 28.609375 56 
Q 40.484375 56 46.34375 49.84375 
Q 52.203125 43.703125 52.203125 31.203125 
z
" id="DejaVuSans-61"/>
      <path d="M 45.40625 27.984375 
Q 45.40625 37.75 41.375 43.109375 
Q 37.359375 48.484375 30.078125 48.484375 
Q 22.859375 48.484375 18.828125 43.109375 
Q 14.796875 37.75 14.796875 27.984375 
Q 14.796875 18.265625 18.828125 12.890625 
Q 22.859375 7.515625 30.078125 7.515625 
Q 37.359375 7.515625 41.375 12.890625 
Q 45.40625 18.265625 45.40625 27.984375 
z
M 54.390625 6.78125 
Q 54.390625 -7.171875 48.1875 -13.984375 
Q 42 -20.796875 29.203125 -20.796875 
Q 24.46875 -20.796875 20.265625 -20.09375 
Q 16.0625 -19.390625 12.109375 -17.921875 
L 12.109375 -9.1875 
Q 16.0625 -11.328125 19.921875 -12.34375 
Q 23.78125 -13.375 27.78125 -13.375 
Q 36.625 -13.375 41.015625 -8.765625 
Q 45.40625 -4.15625 45.40625 5.171875 
L 45.40625 9.625 
Q 42.625 4.78125 38.28125 2.390625 
Q 33.9375 0 27.875 0 
Q 17.828125 0 11.671875 7.65625 
Q 5.515625 15.328125 5.515625 27.984375 
Q 5.515625 40.671875 11.671875 48.328125 
Q 17.828125 56 27.875 56 
Q 33.9375 56 38.28125 53.609375 
Q 42.625 51.21875 45.40625 46.390625 
L 45.40625 54.6875 
L 54.390625 54.6875 
z
" id="DejaVuSans-67"/>
      <path d="M 28.609375 0 
L 0.78125 72.90625 
L 11.078125 72.90625 
L 34.1875 11.53125 
L 57.328125 72.90625 
L 67.578125 72.90625 
L 39.796875 0 
z
" id="DejaVuSans-56"/>
     </defs>
     <g transform="translate(28.815625 250.624062)rotate(-90)scale(0.1 -0.1)">
      <use xlink:href="#DejaVuSans-76"/>
      <use x="59.179688" xlink:href="#DejaVuSans-6f"/>
      <use x="120.361328" xlink:href="#DejaVuSans-6c"/>
      <use x="148.144531" xlink:href="#DejaVuSans-74"/>
      <use x="187.353516" xlink:href="#DejaVuSans-61"/>
      <use x="248.632812" xlink:href="#DejaVuSans-67"/>
      <use x="312.109375" xlink:href="#DejaVuSans-65"/>
      <use x="373.632812" xlink:href="#DejaVuSans-20"/>
      <use x="405.419922" xlink:href="#DejaVuSans-5b"/>
      <use x="444.433594" xlink:href="#DejaVuSans-6d"/>
      <use x="541.845703" xlink:href="#DejaVuSans-56"/>
      <use x="610.253906" xlink:href="#DejaVuSans-5d"/>
     </g>
    </g>
   </g>
   <g id="line2d_13">
    <path clip-path="url(#p65dda672d3)" d="M 80.754545 342.564156 
L 81.961855 342.428369 
L 83.781695 342.485817 
L 87.776468 342.492346 
L 151.772727 342.495479 
L 152.314241 298.203245 
L 152.420768 249.82042 
L 152.562805 69.224945 
L 152.678209 94.311639 
L 153.565936 368.914194 
L 153.610323 368.814182 
L 153.8145 367.442469 
L 154.293873 362.713417 
L 154.959668 353.639434 
L 157.42755 314.949991 
L 157.613973 303.880458 
L 157.738255 282.028895 
L 157.835905 219.797076 
L 157.969064 93.459574 
L 158.031205 106.54372 
L 158.883423 368.491948 
L 158.945564 368.309419 
L 159.203005 366.340504 
L 159.717886 360.696977 
L 160.534595 348.831782 
L 161.8218 330.79558 
L 162.514227 320.482799 
L 162.771668 313.001183 
L 162.940336 301.072012 
L 163.064618 273.250771 
L 163.162268 189.289415 
L 163.268795 94.375093 
L 163.322059 103.838943 
L 163.863573 297.926448 
L 164.147645 368.316208 
L 164.183155 368.460351 
L 164.245295 368.279911 
L 164.493859 366.386201 
L 165.008741 360.762259 
L 165.834327 348.774595 
L 167.112655 330.86974 
L 167.813959 320.447547 
L 168.0714 312.956269 
L 168.240068 300.987928 
L 168.36435 273.005832 
L 168.462 188.547677 
L 168.568527 94.451604 
L 168.621791 104.059858 
L 169.172182 301.85775 
L 169.4385 368.230819 
L 169.482886 368.458262 
L 169.545027 368.273905 
L 169.802468 366.296895 
L 170.31735 360.635611 
L 171.151814 348.487092 
L 172.430141 330.628196 
L 173.113691 320.429268 
L 173.371132 312.919972 
L 173.5398 300.892616 
L 173.664082 272.669497 
L 173.761732 187.402338 
L 173.868259 94.468317 
L 173.921523 104.294613 
L 174.480791 305.907866 
L 174.729355 368.121928 
L 174.782618 368.458262 
L 174.844759 368.269727 
L 175.1022 366.289583 
L 175.617082 360.624905 
L 176.451545 348.474296 
L 177.729873 330.617489 
L 178.413423 320.412555 
L 178.670864 312.884197 
L 178.839532 300.795998 
L 178.963814 272.324284 
L 179.061464 186.223469 
L 179.167991 94.485551 
L 179.221255 104.53198 
L 179.7894 310.060605 
L 180.029086 368.134201 
L 180.08235 368.458524 
L 180.144491 368.265288 
L 180.401932 366.282272 
L 180.916814 360.61446 
L 181.751277 348.462023 
L 183.029605 330.607044 
L 183.713155 320.395582 
L 183.970595 312.848161 
L 184.139264 300.698336 
L 184.263545 271.970976 
L 184.361195 185.023867 
L 184.467723 94.509314 
L 184.520986 104.773002 
L 185.098009 314.30474 
L 185.328818 368.146213 
L 185.382082 368.458524 
L 185.444223 368.26111 
L 185.701664 366.274699 
L 186.216545 360.604015 
L 187.051009 348.449489 
L 188.329336 330.596599 
L 189.012886 320.37887 
L 189.270327 312.811864 
L 189.438995 300.599107 
L 189.563277 271.612446 
L 189.660927 183.819487 
L 189.767455 94.538822 
L 189.820718 105.016375 
L 190.406618 318.620686 
L 190.619673 368.013037 
L 190.681814 368.458262 
L 190.743955 368.256671 
L 191.010273 366.186437 
L 191.525155 360.479195 
L 192.368495 348.16538 
L 193.637945 330.471257 
L 194.312618 320.361635 
L 194.570059 312.775567 
L 194.738727 300.499355 
L 194.863009 271.25052 
L 194.969536 169.320124 
L 195.058309 94.525504 
L 195.12045 105.262359 
L 195.715227 322.98259 
L 195.919405 368.028444 
L 195.981545 368.458262 
L 196.043686 368.252231 
L 196.310005 366.178865 
L 196.833764 360.353853 
L 197.703736 347.61048 
L 198.955432 330.231279 
L 199.61235 320.344662 
L 199.869791 312.738748 
L 200.038459 300.398559 
L 200.162741 270.881284 
L 200.269268 168.063283 
L 200.358041 94.496258 
L 200.420182 105.51252 
L 201.023836 327.353634 
L 201.219136 368.043067 
L 201.281277 368.45774 
L 201.343418 368.247792 
L 201.609736 366.171292 
L 202.133495 360.342885 
L 202.994591 347.733211 
L 204.255164 330.220573 
L 204.912082 320.327166 
L 205.169523 312.701406 
L 205.338191 300.296197 
L 205.462473 270.504474 
L 205.569 166.798007 
L 205.657773 94.474062 
L 205.719914 105.76451 
L 206.332445 331.686031 
L 206.518868 368.05769 
L 206.581009 368.457479 
L 206.634273 368.289573 
L 206.873959 366.483864 
L 207.388841 360.901441 
L 208.187795 349.350124 
L 209.510509 330.782523 
L 210.202936 320.493244 
L 210.460377 313.054714 
L 210.629045 301.254541 
L 210.753327 273.953992 
L 210.850977 191.836836 
L 210.957505 94.458916 
L 211.019645 106.017545 
L 211.641055 335.925988 
L 211.827477 368.202617 
L 211.880741 368.456957 
L 211.934005 368.285395 
L 212.182568 366.397169 
L 212.69745 360.777927 
L 213.514159 348.929445 
L 214.810241 330.771817 
L 215.502668 320.476271 
L 215.760109 313.01894 
L 215.928777 301.158707 
L 216.053059 273.616352 
L 216.150709 190.663843 
L 216.257236 94.452649 
L 216.319377 106.270057 
L 216.949664 340.010311 
L 217.127209 368.213062 
L 217.171595 368.457479 
L 217.233736 368.281217 
L 217.4823 366.389857 
L 217.997182 360.767481 
L 218.822768 348.780862 
L 220.101095 330.875485 
L 220.8024 320.459298 
L 221.059841 312.983426 
L 221.228509 301.063133 
L 221.352791 273.277406 
L 221.450441 189.491425 
L 221.556968 94.453171 
L 221.610232 103.875762 
L 222.151745 297.981546 
L 222.426941 368.222985 
L 222.471327 368.45774 
L 222.533468 368.277039 
L 222.782032 366.382545 
L 223.296914 360.757036 
L 224.1225 348.768067 
L 225.418582 330.636291 
L 226.111009 320.258228 
L 226.36845 312.552824 
L 226.537118 299.884918 
L 226.652523 272.935849 
L 226.750173 188.314332 
L 226.8567 94.459177 
L 226.909964 104.112084 
L 227.460355 301.932694 
L 227.726673 368.232647 
L 227.771059 368.458262 
L 227.8332 368.272861 
L 228.090641 366.295067 
L 228.605523 360.633 
L 229.439986 348.483958 
L 230.718314 330.625584 
L 231.401864 320.425351 
L 231.659305 312.911615 
L 231.827973 300.870681 
L 231.952255 272.591942 
L 232.049905 187.13703 
L 232.156432 94.471972 
L 232.209695 104.348145 
L 232.768964 305.985943 
L 233.017527 368.1248 
L 233.070791 368.458262 
L 233.132932 368.268683 
L 233.390373 366.287755 
L 233.905255 360.622555 
L 234.739718 348.471424 
L 236.018045 330.615139 
L 236.701595 320.408638 
L 236.959036 312.876102 
L 237.127705 300.774063 
L 237.251986 272.244901 
L 237.349636 185.952992 
L 237.456164 94.490252 
L 237.509427 104.586556 
L 238.077573 310.141033 
L 238.317259 368.136812 
L 238.370523 368.458524 
L 238.432664 368.264504 
L 238.690105 366.280444 
L 239.204986 360.61211 
L 240.03945 348.459151 
L 241.317777 330.604694 
L 242.001327 320.391926 
L 242.258768 312.840066 
L 242.427436 300.675879 
L 242.551718 271.889765 
L 242.649368 184.750595 
L 242.755895 94.515581 
L 242.809159 104.8281 
L 243.386182 314.386996 
L 243.616991 368.148824 
L 243.670255 368.458524 
L 243.732395 368.260065 
L 243.989836 366.273132 
L 244.504718 360.601664 
L 245.348059 348.310829 
L 246.617509 330.593988 
L 247.301059 320.374953 
L 247.5585 312.803769 
L 247.727168 300.576388 
L 247.85145 271.530712 
L 247.9491 183.54504 
L 248.055627 94.546655 
L 248.108891 105.071995 
L 248.694791 318.70477 
L 248.907845 368.016693 
L 248.969986 368.458262 
L 249.032127 368.255887 
L 249.298445 366.18487 
L 249.822205 360.362209 
L 250.692177 347.620403 
L 251.943873 330.239635 
L 252.600791 320.357718 
L 252.858232 312.767211 
L 253.0269 300.476376 
L 253.151182 271.166959 
L 253.257709 169.033979 
L 253.346482 94.518192 
L 253.408623 105.319285 
L 254.0034 323.068241 
L 254.207577 368.031838 
L 254.269718 368.458001 
L 254.331859 368.251448 
L 254.598177 366.177298 
L 255.121936 360.351241 
L 255.983032 347.743134 
L 257.22585 330.458201 
L 257.900523 320.340745 
L 258.157964 312.730392 
L 258.326632 300.375319 
L 258.450914 270.795894 
L 258.557441 167.774552 
L 258.646214 94.490513 
L 258.708355 105.57023 
L 259.312009 327.439284 
L 259.507309 368.046461 
L 259.56945 368.45774 
L 259.631591 368.246748 
L 259.897909 366.169464 
L 260.421668 360.340535 
L 261.291641 347.595074 
L 262.525582 330.447494 
L 263.200255 320.323249 
L 263.457695 312.69305 
L 263.626364 300.272695 
L 263.750645 270.417779 
L 263.857173 166.508754 
L 263.945945 94.469883 
L 264.008086 105.82222 
L 264.620618 331.770375 
L 264.807041 368.061085 
L 264.869182 368.457218 
L 264.922445 368.288789 
L 265.171009 366.402913 
L 265.685891 360.786283 
L 266.511477 348.803319 
L 267.807559 330.665798 
L 268.499986 320.306015 
L 268.757427 312.655709 
L 268.926095 300.170071 
L 269.050377 270.039664 
L 269.156905 165.252382 
L 269.245677 94.456827 
L 269.298941 103.459261 
L 269.8227 290.460761 
L 270.133405 368.370523 
L 270.168914 368.456957 
L 270.222177 368.284611 
L 270.470741 366.395602 
L 270.985623 360.775576 
L 271.802332 348.926572 
L 273.098414 330.769467 
L 273.790841 320.472354 
L 274.048282 313.010845 
L 274.21695 301.137033 
L 274.341232 273.539058 
L 274.438882 190.395506 
L 274.545409 94.452388 
L 274.598673 103.694016 
L 275.131309 294.208227 
L 275.424259 368.308896 
L 275.459768 368.457479 
L 275.521909 368.280433 
L 275.770473 366.38829 
L 276.285355 360.765131 
L 277.110941 348.77799 
L 278.389268 330.873135 
L 279.090573 320.455381 
L 279.348014 312.97507 
L 279.516682 301.041199 
L 279.640964 273.19959 
L 279.738614 189.222984 
L 279.845141 94.453693 
L 279.898405 103.929816 
L 280.439918 298.057013 
L 280.715114 368.225074 
L 280.7595 368.458001 
L 280.821641 368.276255 
L 281.079082 366.300812 
L 281.593964 360.641095 
L 282.428427 348.49362 
L 283.706755 330.633679 
L 284.390305 320.438407 
L 284.647745 312.939295 
L 284.816414 300.945103 
L 284.940695 272.85751 
L 285.038345 188.045786 
L 285.144873 94.461527 
L 285.198136 104.165876 
L 285.748527 302.009205 
L 286.014845 368.234736 
L 286.059232 368.458262 
L 286.121373 368.271816 
L 286.378814 366.2935 
L 286.893695 360.63065 
L 287.728159 348.481086 
L 289.006486 330.623234 
L 289.690036 320.421695 
L 289.947477 312.90352 
L 290.116145 300.848746 
L 290.240427 272.513081 
L 290.338077 186.867597 
L 290.444605 94.475628 
L 290.497868 104.402199 
L 291.057136 306.064805 
L 291.3057 368.127673 
L 291.358964 368.458524 
L 291.421105 368.267638 
L 291.678545 366.286189 
L 292.193427 360.620205 
L 293.027891 348.468551 
L 294.315095 330.498153 
L 294.989768 320.404721 
L 295.247209 312.867746 
L 295.415877 300.751867 
L 295.540159 272.164473 
L 295.637809 185.679668 
L 295.744336 94.495474 
L 295.7976 104.641393 
L 296.365745 310.221983 
L 296.605432 368.139685 
L 296.658695 368.458524 
L 296.720836 368.26346 
L 296.978277 366.278877 
L 297.493159 360.609759 
L 298.327623 348.456278 
L 299.60595 330.602344 
L 300.2895 320.388009 
L 300.546941 312.83171 
L 300.715609 300.65316 
L 300.839891 271.808293 
L 300.937541 184.476932 
L 301.044068 94.522109 
L 301.097332 104.883199 
L 301.674355 314.469252 
L 301.905164 368.151435 
L 301.958427 368.458524 
L 302.020568 368.259282 
L 302.286886 366.190615 
L 302.810645 360.370304 
L 303.671741 347.765591 
L 304.914559 330.477263 
L 305.589232 320.371036 
L 305.846673 312.795413 
L 306.015341 300.553931 
L 306.139623 271.448718 
L 306.24615 170.000627 
L 306.334923 94.544044 
L 306.397064 105.127877 
L 306.982964 318.788853 
L 307.196018 368.020087 
L 307.258159 368.458262 
L 307.3203 368.254843 
L 307.586618 366.183043 
L 308.110377 360.359597 
L 308.971473 347.753057 
L 310.214291 330.466557 
L 310.888964 320.354062 
L 311.146405 312.758855 
L 311.315073 300.453658 
L 311.439355 271.083137 
L 311.545882 168.748851 
L 311.634655 94.511403 
L 311.696795 105.37595 
L 312.291573 323.153369 
L 312.49575 368.035233 
L 312.557891 368.458001 
L 312.620032 368.250403 
L 312.88635 366.17547 
L 313.410109 360.348891 
L 314.280082 347.604736 
L 315.531777 330.226318 
L 316.188695 320.336567 
L 316.446136 312.721774 
L 316.614805 300.352078 
L 316.739086 270.710766 
L 316.845614 167.486918 
L 316.934386 94.48529 
L 316.996527 105.627417 
L 317.600182 327.524674 
L 317.795482 368.049856 
L 317.857623 368.45774 
L 317.910886 368.291923 
L 318.150573 366.48778 
L 318.665455 360.907186 
L 319.464409 349.356913 
L 320.787123 330.788529 
L 321.488427 320.319332 
L 321.745868 312.684433 
L 321.914536 300.249193 
L 322.038818 270.331345 
L 322.145345 166.220885 
L 322.234118 94.466228 
L 322.296259 105.879929 
L 322.908791 331.854459 
L 323.095214 368.064479 
L 323.157355 368.457218 
L 323.210618 368.287745 
L 323.459182 366.401347 
L 323.974064 360.783671 
L 324.790773 348.936234 
L 326.095732 330.663187 
L 326.779282 320.48541 
L 327.036723 313.038524 
L 327.205391 301.210933 
L 327.329673 273.800187 
L 327.427323 191.302043 
L 327.53385 94.454999 
L 327.595991 106.132703 
L 328.2174 336.08841 
L 328.403823 368.207317 
L 328.457086 368.456696 
L 328.51035 368.283567 
L 328.758914 366.393774 
L 329.273795 360.773226 
L 329.318182 360.201092 
L 329.335936 361.09781 
L 329.531236 365.074287 
L 329.620009 365.261517 
L 329.664395 365.20433 
L 329.815309 364.599554 
L 330.214786 361.792153 
L 332.176664 347.085088 
L 332.869091 343.873981 
L 333.428359 342.224166 
L 333.889977 341.483603 
L 334.262823 341.257465 
L 334.617914 341.297418 
L 335.097286 341.611556 
L 336.473264 342.639361 
L 337.10355 342.763659 
L 337.964645 342.67827 
L 339.899891 342.449259 
L 342.065945 342.496524 
L 345.732259 342.49339 
L 435.845455 342.495479 
L 435.845455 342.495479 
" style="fill:none;stroke:#1f77b4;stroke-linecap:square;stroke-width:1.5;"/>
   </g>
   <g id="line2d_14">
    <path clip-path="url(#p65dda672d3)" d="M 80.754545 342.564156 
L 81.251673 344.797726 
L 81.677782 345.859011 
L 82.023995 346.210955 
L 82.343577 346.242534 
L 82.743055 346.032177 
L 83.586395 345.252895 
L 84.465245 344.582222 
L 85.139918 344.338541 
L 85.885609 344.315667 
L 90.164455 344.598117 
L 94.105964 344.579584 
L 125.20305 344.579014 
L 151.772727 344.579014 
L 152.314241 300.554544 
L 152.420768 257.293398 
L 152.571682 66.96 
L 152.704841 98.318513 
L 153.583691 369.36 
L 153.636955 369.227909 
L 153.876641 367.659797 
L 154.356014 363.076785 
L 155.004055 354.446933 
L 157.374286 317.750553 
L 157.587341 308.125158 
L 157.729377 290.10091 
L 157.835905 241.28753 
L 157.986818 92.545436 
L 158.075591 113.727095 
L 158.8923 368.914215 
L 158.910055 368.938457 
L 158.954441 368.838113 
L 159.149741 367.571633 
L 159.629114 362.954633 
L 160.286032 354.158941 
L 162.709527 316.511104 
L 162.904827 306.907858 
L 163.046864 286.872838 
L 163.153391 229.627653 
L 163.295427 93.639126 
L 163.366445 109.723974 
L 164.209786 368.906939 
L 164.227541 368.893868 
L 164.325191 368.443901 
L 164.698036 365.378521 
L 165.248427 358.941539 
L 166.349209 342.579475 
L 168.009259 316.533409 
L 168.204559 306.994833 
L 168.346595 287.20242 
L 168.453123 231.033623 
L 168.595159 93.673632 
L 168.675055 112.343381 
L 169.509518 368.904146 
L 169.553905 368.820123 
L 169.740327 367.633338 
L 170.210823 363.147084 
L 170.858864 354.542256 
L 173.300114 316.845971 
L 173.504291 307.078856 
L 173.646327 287.4775 
L 173.752855 232.139353 
L 173.894891 93.661227 
L 173.974786 111.963768 
L 174.80925 368.90327 
L 174.853636 368.824012 
L 175.031182 367.709432 
L 175.501677 363.259149 
L 176.140841 354.820326 
L 178.590968 317.149835 
L 178.795145 307.819422 
L 178.937182 289.816248 
L 179.043709 241.317866 
L 179.194623 93.656646 
L 179.283395 114.69265 
L 180.091227 368.859131 
L 180.117859 368.904649 
L 180.171123 368.755182 
L 180.410809 367.083624 
L 180.907936 362.036085 
L 181.618118 352.178427 
L 183.952841 315.125082 
L 184.139264 304.230494 
L 184.272423 280.521993 
L 184.370073 215.159499 
L 184.494355 93.662874 
L 184.565373 108.240994 
L 185.417591 368.904964 
L 185.4531 368.831902 
L 185.630645 367.726074 
L 186.092264 363.382967 
L 186.72255 355.113681 
L 189.181555 317.47675 
L 189.394609 307.97618 
L 189.536645 290.300092 
L 189.643173 243.177174 
L 189.794086 93.683678 
L 189.891736 117.096925 
L 190.681814 368.797903 
L 190.717323 368.905086 
L 190.779464 368.723737 
L 191.036905 366.879286 
L 191.542909 361.63362 
L 192.279723 351.26706 
L 194.019668 326.432863 
L 194.4369 318.719072 
L 194.658832 310.327719 
L 194.809745 295.568761 
L 194.92515 256.960989 
L 195.093818 93.715761 
L 195.2181 126.682468 
L 195.946036 368.290956 
L 196.017055 368.905104 
L 196.070318 368.769936 
L 196.301127 367.183625 
L 196.789377 362.286461 
L 197.481805 352.765323 
L 199.843159 315.562483 
L 200.029582 305.343857 
L 200.162741 284.227003 
L 200.260391 228.713155 
L 200.402427 93.75122 
L 200.473445 110.095263 
L 201.316786 368.904917 
L 201.334541 368.889553 
L 201.441068 368.377976 
L 201.831668 365.102682 
L 202.390936 358.440163 
L 204.663518 325.803834 
L 205.062995 318.070578 
L 205.27605 309.385741 
L 205.426964 292.785589 
L 205.533491 252.473987 
L 205.702159 93.710748 
L 205.808686 122.466834 
L 206.563255 368.577974 
L 206.616518 368.904587 
L 206.678659 368.739418 
L 206.927223 366.981528 
L 207.42435 361.888604 
L 208.143409 351.857344 
L 210.460377 314.999086 
L 210.6468 303.901057 
L 210.779959 279.381589 
L 210.877609 210.980143 
L 211.001891 93.681512 
L 211.064032 106.485023 
L 211.91625 368.90406 
L 211.978391 368.744493 
L 212.226955 366.990594 
L 212.724082 361.901673 
L 213.443141 351.873823 
L 215.760109 315.03958 
L 215.946532 304.007189 
L 216.079691 279.750362 
L 216.177341 212.332918 
L 216.301623 93.663205 
L 216.363764 106.142159 
L 217.224859 368.904087 
L 217.287 368.706886 
L 217.553318 366.774631 
L 218.059323 361.483095 
L 218.805014 350.943989 
L 220.482818 327.02901 
L 220.926682 319.081391 
L 221.157491 310.640044 
L 221.308405 296.45052 
L 221.423809 260.308894 
L 221.601355 93.656716 
L 221.734514 131.461665 
L 222.444695 368.156918 
L 222.524591 368.904593 
L 222.577855 368.754549 
L 222.817541 367.082481 
L 223.314668 362.03443 
L 224.02485 352.176332 
L 226.359573 315.120019 
L 226.545995 304.217296 
L 226.679155 280.476515 
L 226.776805 214.992839 
L 226.901086 93.66123 
L 226.972105 108.286526 
L 227.824323 368.904933 
L 227.859832 368.831409 
L 228.037377 367.725015 
L 228.498995 363.381411 
L 229.129282 355.111632 
L 231.588286 317.472699 
L 231.801341 307.966255 
L 231.943377 290.26963 
L 232.049905 243.060338 
L 232.200818 93.680387 
L 232.298468 117.147452 
L 233.088545 368.798871 
L 233.124055 368.905079 
L 233.186195 368.723068 
L 233.443636 366.878117 
L 233.949641 361.631935 
L 234.686455 351.264954 
L 236.4264 326.430829 
L 236.843632 318.715516 
L 237.065564 310.319667 
L 237.216477 295.54578 
L 237.331882 256.872701 
L 237.50055 93.71103 
L 237.624832 126.735826 
L 238.352768 368.294127 
L 238.423786 368.905114 
L 238.47705 368.769322 
L 238.707859 367.182486 
L 239.196109 362.284812 
L 239.888536 352.763219 
L 242.249891 315.557593 
L 242.436314 305.331721 
L 242.569473 284.187935 
L 242.667123 228.571174 
L 242.800282 93.7536 
L 242.880177 110.141696 
L 243.723518 368.904951 
L 243.741273 368.889301 
L 243.8478 368.377085 
L 244.2384 365.101311 
L 244.797668 358.438277 
L 247.07025 325.801747 
L 247.469727 318.066791 
L 247.682782 309.377036 
L 247.833695 292.759167 
L 247.940223 252.377547 
L 248.108891 93.715321 
L 248.215418 122.518693 
L 248.969986 368.579943 
L 249.02325 368.904633 
L 249.085391 368.738769 
L 249.333955 366.98038 
L 249.831082 361.886951 
L 250.550141 351.855261 
L 252.867109 314.993955 
L 253.053532 303.887596 
L 253.186691 279.334759 
L 253.284341 210.808474 
L 253.408623 93.684401 
L 253.470764 106.528576 
L 254.322982 368.904145 
L 254.385123 368.743856 
L 254.633686 366.989446 
L 255.130814 361.900018 
L 255.849873 351.871736 
L 258.166841 315.034449 
L 258.353264 303.993747 
L 258.486423 279.703731 
L 258.584073 212.161911 
L 258.708355 93.665048 
L 258.770495 106.18566 
L 259.631591 368.904011 
L 259.693732 368.706193 
L 259.96005 366.773444 
L 260.466055 361.481392 
L 261.211745 350.941871 
L 262.880673 327.154704 
L 263.333414 319.077953 
L 263.564223 310.632246 
L 263.715136 296.428626 
L 263.830541 260.226751 
L 264.008086 93.656898 
L 264.141245 131.516184 
L 264.851427 368.16057 
L 264.931323 368.904536 
L 264.984586 368.753912 
L 265.224273 367.081331 
L 265.7214 362.032765 
L 266.431582 352.174222 
L 268.766305 315.114919 
L 268.952727 304.203998 
L 269.085886 280.430677 
L 269.183536 214.82502 
L 269.307818 93.659835 
L 269.378836 108.332305 
L 270.231055 368.904902 
L 270.266564 368.830915 
L 270.444109 367.723953 
L 270.905727 363.379849 
L 271.536014 355.109576 
L 273.995018 317.468636 
L 274.208073 307.956298 
L 274.350109 290.239067 
L 274.456636 242.943135 
L 274.60755 93.677219 
L 274.7052 117.19813 
L 275.495277 368.79984 
L 275.530786 368.905073 
L 275.592927 368.722398 
L 275.850368 366.876947 
L 276.356373 361.630248 
L 277.093186 351.262845 
L 278.833132 326.42879 
L 279.250364 318.71195 
L 279.472295 310.311592 
L 279.623209 295.522697 
L 279.738614 256.783865 
L 279.907282 93.706464 
L 280.031564 126.789467 
L 280.7595 368.297286 
L 280.830518 368.905117 
L 280.883782 368.768702 
L 281.114591 367.181341 
L 281.602841 362.283155 
L 282.295268 352.761105 
L 284.656623 315.552668 
L 284.843045 305.319477 
L 284.976205 284.1485 
L 285.073855 228.427834 
L 285.207014 93.74739 
L 285.286909 110.188506 
L 286.13025 368.904984 
L 286.148005 368.889044 
L 286.254532 368.376186 
L 286.645132 365.099928 
L 287.2044 358.436375 
L 289.476982 325.799644 
L 289.876459 318.062975 
L 290.089514 309.368266 
L 290.240427 292.732546 
L 290.346955 252.280334 
L 290.515623 93.720057 
L 290.62215 122.570775 
L 291.376718 368.581912 
L 291.429982 368.904677 
L 291.492123 368.738118 
L 291.740686 366.979229 
L 292.237814 361.885292 
L 292.956873 351.85317 
L 295.273841 314.98879 
L 295.460264 303.87404 
L 295.593423 279.287538 
L 295.691073 210.635296 
L 295.815355 93.687525 
L 295.877495 106.572512 
L 296.729714 368.904225 
L 296.791855 368.743212 
L 297.040418 366.98829 
L 297.537545 361.898351 
L 298.256605 351.869633 
L 300.573573 315.02928 
L 300.759995 303.980205 
L 300.893155 279.656715 
L 300.990805 211.989337 
L 301.115086 93.66706 
L 301.177227 106.229533 
L 302.038323 368.903932 
L 302.091586 368.748233 
L 302.331273 367.071133 
L 302.8284 362.018004 
L 303.538582 352.155532 
L 305.873305 315.069616 
L 306.059727 304.085757 
L 306.192886 280.022462 
L 306.290536 213.329143 
L 306.414818 93.657266 
L 306.476959 105.887365 
L 307.338055 368.904475 
L 307.400195 368.710937 
L 307.666514 366.781593 
L 308.172518 361.493088 
L 308.918209 350.956417 
L 310.596014 327.040731 
L 311.039877 319.101563 
L 311.270686 310.685783 
L 311.430477 295.129604 
L 311.545882 255.259593 
L 311.71455 93.658748 
L 311.829955 124.283915 
L 312.575645 368.514896 
L 312.637786 368.904868 
L 312.699927 368.716351 
L 312.966245 366.790958 
L 313.47225 361.506533 
L 314.217941 350.973146 
L 315.895745 327.056483 
L 316.339609 319.128619 
L 316.570418 310.747029 
L 316.730209 295.31551 
L 316.845614 255.982672 
L 317.014282 93.674267 
L 317.138564 127.265942 
L 317.8665 368.324707 
L 317.937518 368.90506 
L 317.990782 368.763213 
L 318.221591 367.171251 
L 318.709841 362.268555 
L 319.402268 352.742479 
L 321.763623 315.509093 
L 321.950045 305.210468 
L 322.083205 283.796076 
L 322.180855 227.146478 
L 322.314014 93.702033 
L 322.393909 110.605902 
L 323.23725 368.905118 
L 323.246127 368.900341 
L 323.326023 368.585864 
L 323.654482 366.022744 
L 324.187118 360.077064 
L 325.065968 347.204898 
L 326.521841 326.702637 
L 326.956827 318.736486 
L 327.178759 310.36707 
L 327.329673 295.68064 
L 327.445077 257.389198 
L 327.613745 93.741454 
L 327.738027 126.421915 
L 328.465964 368.27524 
L 328.536982 368.905012 
L 328.599123 368.732308 
L 328.847686 366.968979 
L 329.318182 362.189333 
L 329.344814 363.502143 
L 329.540114 367.19624 
L 329.637764 367.398889 
L 329.68215 367.354462 
L 329.833064 366.864215 
L 330.214786 364.647603 
L 331.351077 356.283638 
L 332.363086 349.718249 
L 333.0999 346.28615 
L 333.694677 344.46108 
L 334.182927 343.594599 
L 334.582405 343.285638 
L 334.946373 343.269899 
L 335.390236 343.49466 
L 337.405377 344.80423 
L 338.142191 344.841034 
L 339.677959 344.617781 
L 341.195973 344.529177 
L 370.10925 344.579015 
L 435.845455 344.579014 
L 435.845455 344.579014 
" style="fill:none;stroke:#ff0000;stroke-linecap:square;stroke-width:1.5;"/>
   </g>
   <g id="patch_3">
    <path d="M 63 384.48 
L 63 51.84 
" style="fill:none;stroke:#000000;stroke-linecap:square;stroke-linejoin:miter;stroke-width:0.8;"/>
   </g>
   <g id="patch_4">
    <path d="M 453.6 384.48 
L 453.6 51.84 
" style="fill:none;stroke:#000000;stroke-linecap:square;stroke-linejoin:miter;stroke-width:0.8;"/>
   </g>
   <g id="patch_5">
    <path d="M 63 384.48 
L 453.6 384.48 
" style="fill:none;stroke:#000000;stroke-linecap:square;stroke-linejoin:miter;stroke-width:0.8;"/>
   </g>
   <g id="patch_6">
    <path d="M 63 51.84 
L 453.6 51.84 
" style="fill:none;stroke:#000000;stroke-linecap:square;stroke-linejoin:miter;stroke-width:0.8;"/>
   </g>
   <g id="legend_1">
    <g id="patch_7">
     <path d="M 383.460938 89.19625 
L 446.6 89.19625 
Q 448.6 89.19625 448.6 87.19625 
L 448.6 58.84 
Q 448.6 56.84 446.6 56.84 
L 383.460938 56.84 
Q 381.460938 56.84 381.460938 58.84 
L 381.460938 87.19625 
Q 381.460938 89.19625 383.460938 89.19625 
z
" style="fill:#ffffff;opacity:0.8;stroke:#cccccc;stroke-linejoin:miter;"/>
    </g>
    <g id="line2d_15">
     <path d="M 385.460938 64.938437 
L 405.460938 64.938437 
" style="fill:none;stroke:#1f77b4;stroke-linecap:square;stroke-width:1.5;"/>
    </g>
    <g id="line2d_16"/>
    <g id="text_15">
     <!-- target -->
     <defs>
      <path d="M 41.109375 46.296875 
Q 39.59375 47.171875 37.8125 47.578125 
Q 36.03125 48 33.890625 48 
Q 26.265625 48 22.1875 43.046875 
Q 18.109375 38.09375 18.109375 28.8125 
L 18.109375 0 
L 9.078125 0 
L 9.078125 54.6875 
L 18.109375 54.6875 
L 18.109375 46.1875 
Q 20.953125 51.171875 25.484375 53.578125 
Q 30.03125 56 36.53125 56 
Q 37.453125 56 38.578125 55.875 
Q 39.703125 55.765625 41.0625 55.515625 
z
" id="DejaVuSans-72"/>
     </defs>
     <g transform="translate(413.460938 68.438437)scale(0.1 -0.1)">
      <use xlink:href="#DejaVuSans-74"/>
      <use x="39.208984" xlink:href="#DejaVuSans-61"/>
      <use x="100.488281" xlink:href="#DejaVuSans-72"/>
      <use x="141.585938" xlink:href="#DejaVuSans-67"/>
      <use x="205.0625" xlink:href="#DejaVuSans-65"/>
      <use x="266.585938" xlink:href="#DejaVuSans-74"/>
     </g>
    </g>
    <g id="line2d_17">
     <path d="M 385.460938 79.616562 
L 405.460938 79.616562 
" style="fill:none;stroke:#ff0000;stroke-linecap:square;stroke-width:1.5;"/>
    </g>
    <g id="line2d_18"/>
    <g id="text_16">
     <!-- model -->
     <defs>
      <path d="M 45.40625 46.390625 
L 45.40625 75.984375 
L 54.390625 75.984375 
L 54.390625 0 
L 45.40625 0 
L 45.40625 8.203125 
Q 42.578125 3.328125 38.25 0.953125 
Q 33.9375 -1.421875 27.875 -1.421875 
Q 17.96875 -1.421875 11.734375 6.484375 
Q 5.515625 14.40625 5.515625 27.296875 
Q 5.515625 40.1875 11.734375 48.09375 
Q 17.96875 56 27.875 56 
Q 33.9375 56 38.25 53.625 
Q 42.578125 51.265625 45.40625 46.390625 
z
M 14.796875 27.296875 
Q 14.796875 17.390625 18.875 11.75 
Q 22.953125 6.109375 30.078125 6.109375 
Q 37.203125 6.109375 41.296875 11.75 
Q 45.40625 17.390625 45.40625 27.296875 
Q 45.40625 37.203125 41.296875 42.84375 
Q 37.203125 48.484375 30.078125 48.484375 
Q 22.953125 48.484375 18.875 42.84375 
Q 14.796875 37.203125 14.796875 27.296875 
z
" id="DejaVuSans-64"/>
     </defs>
     <g transform="translate(413.460938 83.116562)scale(0.1 -0.1)">
      <use xlink:href="#DejaVuSans-6d"/>
      <use x="97.412109" xlink:href="#DejaVuSans-6f"/>
      <use x="158.59375" xlink:href="#DejaVuSans-64"/>
      <use x="222.070312" xlink:href="#DejaVuSans-65"/>
      <use x="283.59375" xlink:href="#DejaVuSans-6c"/>
     </g>
    </g>
   </g>
  </g>
 </g>
 <defs>
  <clipPath id="p65dda672d3">
   <rect height="332.64" width="390.6" x="63" y="51.84"/>
  </clipPath>
 </defs>
</svg>
