<?xml version="1.0" encoding="utf-8" standalone="no"?>
<!DOCTYPE svg PUBLIC "-//W3C//DTD SVG 1.1//EN"
  "http://www.w3.org/Graphics/SVG/1.1/DTD/svg11.dtd">
<!-- Created with matplotlib (https://matplotlib.org/) -->
<svg height="432pt" version="1.1" viewBox="0 0 504 432" width="504pt" xmlns="http://www.w3.org/2000/svg" xmlns:xlink="http://www.w3.org/1999/xlink">
 <defs>
  <style type="text/css">
*{stroke-linecap:butt;stroke-linejoin:round;}
  </style>
 </defs>
 <g id="figure_1">
  <g id="patch_1">
   <path d="M 0 432 
L 504 432 
L 504 0 
L 0 0 
z
" style="fill:#ffffff;"/>
  </g>
  <g id="axes_1">
   <g id="patch_2">
    <path d="M 63 384.48 
L 453.6 384.48 
L 453.6 51.84 
L 63 51.84 
z
" style="fill:#ffffff;"/>
   </g>
   <g id="matplotlib.axis_1">
    <g id="xtick_1">
     <g id="line2d_1">
      <defs>
       <path d="M 0 0 
L 0 3.5 
" id="mf7251f933d" style="stroke:#000000;stroke-width:0.8;"/>
      </defs>
      <g>
       <use style="stroke:#000000;stroke-width:0.8;" x="80.754545" xlink:href="#mf7251f933d" y="384.48"/>
      </g>
     </g>
     <g id="text_1">
      <!-- 0 -->
      <defs>
       <path d="M 31.78125 66.40625 
Q 24.171875 66.40625 20.328125 58.90625 
Q 16.5 51.421875 16.5 36.375 
Q 16.5 21.390625 20.328125 13.890625 
Q 24.171875 6.390625 31.78125 6.390625 
Q 39.453125 6.390625 43.28125 13.890625 
Q 47.125 21.390625 47.125 36.375 
Q 47.125 51.421875 43.28125 58.90625 
Q 39.453125 66.40625 31.78125 66.40625 
z
M 31.78125 74.21875 
Q 44.046875 74.21875 50.515625 64.515625 
Q 56.984375 54.828125 56.984375 36.375 
Q 56.984375 17.96875 50.515625 8.265625 
Q 44.046875 -1.421875 31.78125 -1.421875 
Q 19.53125 -1.421875 13.0625 8.265625 
Q 6.59375 17.96875 6.59375 36.375 
Q 6.59375 54.828125 13.0625 64.515625 
Q 19.53125 74.21875 31.78125 74.21875 
z
" id="DejaVuSans-48"/>
      </defs>
      <g transform="translate(77.573295 399.078438)scale(0.1 -0.1)">
       <use xlink:href="#DejaVuSans-48"/>
      </g>
     </g>
    </g>
    <g id="xtick_2">
     <g id="line2d_2">
      <g>
       <use style="stroke:#000000;stroke-width:0.8;" x="151.767796" xlink:href="#mf7251f933d" y="384.48"/>
      </g>
     </g>
     <g id="text_2">
      <!-- 720 -->
      <defs>
       <path d="M 8.203125 72.90625 
L 55.078125 72.90625 
L 55.078125 68.703125 
L 28.609375 0 
L 18.3125 0 
L 43.21875 64.59375 
L 8.203125 64.59375 
z
" id="DejaVuSans-55"/>
       <path d="M 19.1875 8.296875 
L 53.609375 8.296875 
L 53.609375 0 
L 7.328125 0 
L 7.328125 8.296875 
Q 12.9375 14.109375 22.625 23.890625 
Q 32.328125 33.6875 34.8125 36.53125 
Q 39.546875 41.84375 41.421875 45.53125 
Q 43.3125 49.21875 43.3125 52.78125 
Q 43.3125 58.59375 39.234375 62.25 
Q 35.15625 65.921875 28.609375 65.921875 
Q 23.96875 65.921875 18.8125 64.3125 
Q 13.671875 62.703125 7.8125 59.421875 
L 7.8125 69.390625 
Q 13.765625 71.78125 18.9375 73 
Q 24.125 74.21875 28.421875 74.21875 
Q 39.75 74.21875 46.484375 68.546875 
Q 53.21875 62.890625 53.21875 53.421875 
Q 53.21875 48.921875 51.53125 44.890625 
Q 49.859375 40.875 45.40625 35.40625 
Q 44.1875 33.984375 37.640625 27.21875 
Q 31.109375 20.453125 19.1875 8.296875 
z
" id="DejaVuSans-50"/>
      </defs>
      <g transform="translate(142.224046 399.078438)scale(0.1 -0.1)">
       <use xlink:href="#DejaVuSans-55"/>
       <use x="63.623047" xlink:href="#DejaVuSans-50"/>
       <use x="127.246094" xlink:href="#DejaVuSans-48"/>
      </g>
     </g>
    </g>
    <g id="xtick_3">
     <g id="line2d_3">
      <g>
       <use style="stroke:#000000;stroke-width:0.8;" x="222.781046" xlink:href="#mf7251f933d" y="384.48"/>
      </g>
     </g>
     <g id="text_3">
      <!-- 1440 -->
      <defs>
       <path d="M 12.40625 8.296875 
L 28.515625 8.296875 
L 28.515625 63.921875 
L 10.984375 60.40625 
L 10.984375 69.390625 
L 28.421875 72.90625 
L 38.28125 72.90625 
L 38.28125 8.296875 
L 54.390625 8.296875 
L 54.390625 0 
L 12.40625 0 
z
" id="DejaVuSans-49"/>
       <path d="M 37.796875 64.3125 
L 12.890625 25.390625 
L 37.796875 25.390625 
z
M 35.203125 72.90625 
L 47.609375 72.90625 
L 47.609375 25.390625 
L 58.015625 25.390625 
L 58.015625 17.1875 
L 47.609375 17.1875 
L 47.609375 0 
L 37.796875 0 
L 37.796875 17.1875 
L 4.890625 17.1875 
L 4.890625 26.703125 
z
" id="DejaVuSans-52"/>
      </defs>
      <g transform="translate(210.056046 399.078438)scale(0.1 -0.1)">
       <use xlink:href="#DejaVuSans-49"/>
       <use x="63.623047" xlink:href="#DejaVuSans-52"/>
       <use x="127.246094" xlink:href="#DejaVuSans-52"/>
       <use x="190.869141" xlink:href="#DejaVuSans-48"/>
      </g>
     </g>
    </g>
    <g id="xtick_4">
     <g id="line2d_4">
      <g>
       <use style="stroke:#000000;stroke-width:0.8;" x="293.794296" xlink:href="#mf7251f933d" y="384.48"/>
      </g>
     </g>
     <g id="text_4">
      <!-- 2160 -->
      <defs>
       <path d="M 33.015625 40.375 
Q 26.375 40.375 22.484375 35.828125 
Q 18.609375 31.296875 18.609375 23.390625 
Q 18.609375 15.53125 22.484375 10.953125 
Q 26.375 6.390625 33.015625 6.390625 
Q 39.65625 6.390625 43.53125 10.953125 
Q 47.40625 15.53125 47.40625 23.390625 
Q 47.40625 31.296875 43.53125 35.828125 
Q 39.65625 40.375 33.015625 40.375 
z
M 52.59375 71.296875 
L 52.59375 62.3125 
Q 48.875 64.0625 45.09375 64.984375 
Q 41.3125 65.921875 37.59375 65.921875 
Q 27.828125 65.921875 22.671875 59.328125 
Q 17.53125 52.734375 16.796875 39.40625 
Q 19.671875 43.65625 24.015625 45.921875 
Q 28.375 48.1875 33.59375 48.1875 
Q 44.578125 48.1875 50.953125 41.515625 
Q 57.328125 34.859375 57.328125 23.390625 
Q 57.328125 12.15625 50.6875 5.359375 
Q 44.046875 -1.421875 33.015625 -1.421875 
Q 20.359375 -1.421875 13.671875 8.265625 
Q 6.984375 17.96875 6.984375 36.375 
Q 6.984375 53.65625 15.1875 63.9375 
Q 23.390625 74.21875 37.203125 74.21875 
Q 40.921875 74.21875 44.703125 73.484375 
Q 48.484375 72.75 52.59375 71.296875 
z
" id="DejaVuSans-54"/>
      </defs>
      <g transform="translate(281.069296 399.078438)scale(0.1 -0.1)">
       <use xlink:href="#DejaVuSans-50"/>
       <use x="63.623047" xlink:href="#DejaVuSans-49"/>
       <use x="127.246094" xlink:href="#DejaVuSans-54"/>
       <use x="190.869141" xlink:href="#DejaVuSans-48"/>
      </g>
     </g>
    </g>
    <g id="xtick_5">
     <g id="line2d_5">
      <g>
       <use style="stroke:#000000;stroke-width:0.8;" x="364.807547" xlink:href="#mf7251f933d" y="384.48"/>
      </g>
     </g>
     <g id="text_5">
      <!-- 2880 -->
      <defs>
       <path d="M 31.78125 34.625 
Q 24.75 34.625 20.71875 30.859375 
Q 16.703125 27.09375 16.703125 20.515625 
Q 16.703125 13.921875 20.71875 10.15625 
Q 24.75 6.390625 31.78125 6.390625 
Q 38.8125 6.390625 42.859375 10.171875 
Q 46.921875 13.96875 46.921875 20.515625 
Q 46.921875 27.09375 42.890625 30.859375 
Q 38.875 34.625 31.78125 34.625 
z
M 21.921875 38.8125 
Q 15.578125 40.375 12.03125 44.71875 
Q 8.5 49.078125 8.5 55.328125 
Q 8.5 64.0625 14.71875 69.140625 
Q 20.953125 74.21875 31.78125 74.21875 
Q 42.671875 74.21875 48.875 69.140625 
Q 55.078125 64.0625 55.078125 55.328125 
Q 55.078125 49.078125 51.53125 44.71875 
Q 48 40.375 41.703125 38.8125 
Q 48.828125 37.15625 52.796875 32.3125 
Q 56.78125 27.484375 56.78125 20.515625 
Q 56.78125 9.90625 50.3125 4.234375 
Q 43.84375 -1.421875 31.78125 -1.421875 
Q 19.734375 -1.421875 13.25 4.234375 
Q 6.78125 9.90625 6.78125 20.515625 
Q 6.78125 27.484375 10.78125 32.3125 
Q 14.796875 37.15625 21.921875 38.8125 
z
M 18.3125 54.390625 
Q 18.3125 48.734375 21.84375 45.5625 
Q 25.390625 42.390625 31.78125 42.390625 
Q 38.140625 42.390625 41.71875 45.5625 
Q 45.3125 48.734375 45.3125 54.390625 
Q 45.3125 60.0625 41.71875 63.234375 
Q 38.140625 66.40625 31.78125 66.40625 
Q 25.390625 66.40625 21.84375 63.234375 
Q 18.3125 60.0625 18.3125 54.390625 
z
" id="DejaVuSans-56"/>
      </defs>
      <g transform="translate(352.082547 399.078438)scale(0.1 -0.1)">
       <use xlink:href="#DejaVuSans-50"/>
       <use x="63.623047" xlink:href="#DejaVuSans-56"/>
       <use x="127.246094" xlink:href="#DejaVuSans-56"/>
       <use x="190.869141" xlink:href="#DejaVuSans-48"/>
      </g>
     </g>
    </g>
    <g id="text_6">
     <!-- time [ms] -->
     <defs>
      <path d="M 18.3125 70.21875 
L 18.3125 54.6875 
L 36.8125 54.6875 
L 36.8125 47.703125 
L 18.3125 47.703125 
L 18.3125 18.015625 
Q 18.3125 11.328125 20.140625 9.421875 
Q 21.96875 7.515625 27.59375 7.515625 
L 36.8125 7.515625 
L 36.8125 0 
L 27.59375 0 
Q 17.1875 0 13.234375 3.875 
Q 9.28125 7.765625 9.28125 18.015625 
L 9.28125 47.703125 
L 2.6875 47.703125 
L 2.6875 54.6875 
L 9.28125 54.6875 
L 9.28125 70.21875 
z
" id="DejaVuSans-116"/>
      <path d="M 9.421875 54.6875 
L 18.40625 54.6875 
L 18.40625 0 
L 9.421875 0 
z
M 9.421875 75.984375 
L 18.40625 75.984375 
L 18.40625 64.59375 
L 9.421875 64.59375 
z
" id="DejaVuSans-105"/>
      <path d="M 52 44.1875 
Q 55.375 50.25 60.0625 53.125 
Q 64.75 56 71.09375 56 
Q 79.640625 56 84.28125 50.015625 
Q 88.921875 44.046875 88.921875 33.015625 
L 88.921875 0 
L 79.890625 0 
L 79.890625 32.71875 
Q 79.890625 40.578125 77.09375 44.375 
Q 74.3125 48.1875 68.609375 48.1875 
Q 61.625 48.1875 57.5625 43.546875 
Q 53.515625 38.921875 53.515625 30.90625 
L 53.515625 0 
L 44.484375 0 
L 44.484375 32.71875 
Q 44.484375 40.625 41.703125 44.40625 
Q 38.921875 48.1875 33.109375 48.1875 
Q 26.21875 48.1875 22.15625 43.53125 
Q 18.109375 38.875 18.109375 30.90625 
L 18.109375 0 
L 9.078125 0 
L 9.078125 54.6875 
L 18.109375 54.6875 
L 18.109375 46.1875 
Q 21.1875 51.21875 25.484375 53.609375 
Q 29.78125 56 35.6875 56 
Q 41.65625 56 45.828125 52.96875 
Q 50 49.953125 52 44.1875 
z
" id="DejaVuSans-109"/>
      <path d="M 56.203125 29.59375 
L 56.203125 25.203125 
L 14.890625 25.203125 
Q 15.484375 15.921875 20.484375 11.0625 
Q 25.484375 6.203125 34.421875 6.203125 
Q 39.59375 6.203125 44.453125 7.46875 
Q 49.3125 8.734375 54.109375 11.28125 
L 54.109375 2.78125 
Q 49.265625 0.734375 44.1875 -0.34375 
Q 39.109375 -1.421875 33.890625 -1.421875 
Q 20.796875 -1.421875 13.15625 6.1875 
Q 5.515625 13.8125 5.515625 26.8125 
Q 5.515625 40.234375 12.765625 48.109375 
Q 20.015625 56 32.328125 56 
Q 43.359375 56 49.78125 48.890625 
Q 56.203125 41.796875 56.203125 29.59375 
z
M 47.21875 32.234375 
Q 47.125 39.59375 43.09375 43.984375 
Q 39.0625 48.390625 32.421875 48.390625 
Q 24.90625 48.390625 20.390625 44.140625 
Q 15.875 39.890625 15.1875 32.171875 
z
" id="DejaVuSans-101"/>
      <path id="DejaVuSans-32"/>
      <path d="M 8.59375 75.984375 
L 29.296875 75.984375 
L 29.296875 69 
L 17.578125 69 
L 17.578125 -6.203125 
L 29.296875 -6.203125 
L 29.296875 -13.1875 
L 8.59375 -13.1875 
z
" id="DejaVuSans-91"/>
      <path d="M 44.28125 53.078125 
L 44.28125 44.578125 
Q 40.484375 46.53125 36.375 47.5 
Q 32.28125 48.484375 27.875 48.484375 
Q 21.1875 48.484375 17.84375 46.4375 
Q 14.5 44.390625 14.5 40.28125 
Q 14.5 37.15625 16.890625 35.375 
Q 19.28125 33.59375 26.515625 31.984375 
L 29.59375 31.296875 
Q 39.15625 29.25 43.1875 25.515625 
Q 47.21875 21.78125 47.21875 15.09375 
Q 47.21875 7.46875 41.1875 3.015625 
Q 35.15625 -1.421875 24.609375 -1.421875 
Q 20.21875 -1.421875 15.453125 -0.5625 
Q 10.6875 0.296875 5.421875 2 
L 5.421875 11.28125 
Q 10.40625 8.6875 15.234375 7.390625 
Q 20.0625 6.109375 24.8125 6.109375 
Q 31.15625 6.109375 34.5625 8.28125 
Q 37.984375 10.453125 37.984375 14.40625 
Q 37.984375 18.0625 35.515625 20.015625 
Q 33.0625 21.96875 24.703125 23.78125 
L 21.578125 24.515625 
Q 13.234375 26.265625 9.515625 29.90625 
Q 5.8125 33.546875 5.8125 39.890625 
Q 5.8125 47.609375 11.28125 51.796875 
Q 16.75 56 26.8125 56 
Q 31.78125 56 36.171875 55.265625 
Q 40.578125 54.546875 44.28125 53.078125 
z
" id="DejaVuSans-115"/>
      <path d="M 30.421875 75.984375 
L 30.421875 -13.1875 
L 9.71875 -13.1875 
L 9.71875 -6.203125 
L 21.390625 -6.203125 
L 21.390625 69 
L 9.71875 69 
L 9.71875 75.984375 
z
" id="DejaVuSans-93"/>
     </defs>
     <g transform="translate(234.038281 412.756563)scale(0.1 -0.1)">
      <use xlink:href="#DejaVuSans-116"/>
      <use x="39.208984" xlink:href="#DejaVuSans-105"/>
      <use x="66.992188" xlink:href="#DejaVuSans-109"/>
      <use x="164.404297" xlink:href="#DejaVuSans-101"/>
      <use x="225.927734" xlink:href="#DejaVuSans-32"/>
      <use x="257.714844" xlink:href="#DejaVuSans-91"/>
      <use x="296.728516" xlink:href="#DejaVuSans-109"/>
      <use x="394.140625" xlink:href="#DejaVuSans-115"/>
      <use x="446.240234" xlink:href="#DejaVuSans-93"/>
     </g>
    </g>
   </g>
   <g id="matplotlib.axis_2">
    <g id="ytick_1">
     <g id="line2d_6">
      <defs>
       <path d="M 0 0 
L -3.5 0 
" id="m45b7c3666e" style="stroke:#000000;stroke-width:0.8;"/>
      </defs>
      <g>
       <use style="stroke:#000000;stroke-width:0.8;" x="63" xlink:href="#m45b7c3666e" y="363.925424"/>
      </g>
     </g>
     <g id="text_7">
      <!-- −80 -->
      <defs>
       <path d="M 10.59375 35.5 
L 73.1875 35.5 
L 73.1875 27.203125 
L 10.59375 27.203125 
z
" id="DejaVuSans-8722"/>
      </defs>
      <g transform="translate(34.895313 367.724642)scale(0.1 -0.1)">
       <use xlink:href="#DejaVuSans-8722"/>
       <use x="83.789062" xlink:href="#DejaVuSans-56"/>
       <use x="147.412109" xlink:href="#DejaVuSans-48"/>
      </g>
     </g>
    </g>
    <g id="ytick_2">
     <g id="line2d_7">
      <g>
       <use style="stroke:#000000;stroke-width:0.8;" x="63" xlink:href="#m45b7c3666e" y="312.806917"/>
      </g>
     </g>
     <g id="text_8">
      <!-- −60 -->
      <g transform="translate(34.895313 316.606136)scale(0.1 -0.1)">
       <use xlink:href="#DejaVuSans-8722"/>
       <use x="83.789062" xlink:href="#DejaVuSans-54"/>
       <use x="147.412109" xlink:href="#DejaVuSans-48"/>
      </g>
     </g>
    </g>
    <g id="ytick_3">
     <g id="line2d_8">
      <g>
       <use style="stroke:#000000;stroke-width:0.8;" x="63" xlink:href="#m45b7c3666e" y="261.688411"/>
      </g>
     </g>
     <g id="text_9">
      <!-- −40 -->
      <g transform="translate(34.895313 265.48763)scale(0.1 -0.1)">
       <use xlink:href="#DejaVuSans-8722"/>
       <use x="83.789062" xlink:href="#DejaVuSans-52"/>
       <use x="147.412109" xlink:href="#DejaVuSans-48"/>
      </g>
     </g>
    </g>
    <g id="ytick_4">
     <g id="line2d_9">
      <g>
       <use style="stroke:#000000;stroke-width:0.8;" x="63" xlink:href="#m45b7c3666e" y="210.569905"/>
      </g>
     </g>
     <g id="text_10">
      <!-- −20 -->
      <g transform="translate(34.895313 214.369123)scale(0.1 -0.1)">
       <use xlink:href="#DejaVuSans-8722"/>
       <use x="83.789062" xlink:href="#DejaVuSans-50"/>
       <use x="147.412109" xlink:href="#DejaVuSans-48"/>
      </g>
     </g>
    </g>
    <g id="ytick_5">
     <g id="line2d_10">
      <g>
       <use style="stroke:#000000;stroke-width:0.8;" x="63" xlink:href="#m45b7c3666e" y="159.451398"/>
      </g>
     </g>
     <g id="text_11">
      <!-- 0 -->
      <g transform="translate(49.6375 163.250617)scale(0.1 -0.1)">
       <use xlink:href="#DejaVuSans-48"/>
      </g>
     </g>
    </g>
    <g id="ytick_6">
     <g id="line2d_11">
      <g>
       <use style="stroke:#000000;stroke-width:0.8;" x="63" xlink:href="#m45b7c3666e" y="108.332892"/>
      </g>
     </g>
     <g id="text_12">
      <!-- 20 -->
      <g transform="translate(43.275 112.132111)scale(0.1 -0.1)">
       <use xlink:href="#DejaVuSans-50"/>
       <use x="63.623047" xlink:href="#DejaVuSans-48"/>
      </g>
     </g>
    </g>
    <g id="ytick_7">
     <g id="line2d_12">
      <g>
       <use style="stroke:#000000;stroke-width:0.8;" x="63" xlink:href="#m45b7c3666e" y="57.214385"/>
      </g>
     </g>
     <g id="text_13">
      <!-- 40 -->
      <g transform="translate(43.275 61.013604)scale(0.1 -0.1)">
       <use xlink:href="#DejaVuSans-52"/>
       <use x="63.623047" xlink:href="#DejaVuSans-48"/>
      </g>
     </g>
    </g>
    <g id="text_14">
     <!-- Voltage [mV] -->
     <defs>
      <path d="M 28.609375 0 
L 0.78125 72.90625 
L 11.078125 72.90625 
L 34.1875 11.53125 
L 57.328125 72.90625 
L 67.578125 72.90625 
L 39.796875 0 
z
" id="DejaVuSans-86"/>
      <path d="M 30.609375 48.390625 
Q 23.390625 48.390625 19.1875 42.75 
Q 14.984375 37.109375 14.984375 27.296875 
Q 14.984375 17.484375 19.15625 11.84375 
Q 23.34375 6.203125 30.609375 6.203125 
Q 37.796875 6.203125 41.984375 11.859375 
Q 46.1875 17.53125 46.1875 27.296875 
Q 46.1875 37.015625 41.984375 42.703125 
Q 37.796875 48.390625 30.609375 48.390625 
z
M 30.609375 56 
Q 42.328125 56 49.015625 48.375 
Q 55.71875 40.765625 55.71875 27.296875 
Q 55.71875 13.875 49.015625 6.21875 
Q 42.328125 -1.421875 30.609375 -1.421875 
Q 18.84375 -1.421875 12.171875 6.21875 
Q 5.515625 13.875 5.515625 27.296875 
Q 5.515625 40.765625 12.171875 48.375 
Q 18.84375 56 30.609375 56 
z
" id="DejaVuSans-111"/>
      <path d="M 9.421875 75.984375 
L 18.40625 75.984375 
L 18.40625 0 
L 9.421875 0 
z
" id="DejaVuSans-108"/>
      <path d="M 34.28125 27.484375 
Q 23.390625 27.484375 19.1875 25 
Q 14.984375 22.515625 14.984375 16.5 
Q 14.984375 11.71875 18.140625 8.90625 
Q 21.296875 6.109375 26.703125 6.109375 
Q 34.1875 6.109375 38.703125 11.40625 
Q 43.21875 16.703125 43.21875 25.484375 
L 43.21875 27.484375 
z
M 52.203125 31.203125 
L 52.203125 0 
L 43.21875 0 
L 43.21875 8.296875 
Q 40.140625 3.328125 35.546875 0.953125 
Q 30.953125 -1.421875 24.3125 -1.421875 
Q 15.921875 -1.421875 10.953125 3.296875 
Q 6 8.015625 6 15.921875 
Q 6 25.140625 12.171875 29.828125 
Q 18.359375 34.515625 30.609375 34.515625 
L 43.21875 34.515625 
L 43.21875 35.40625 
Q 43.21875 41.609375 39.140625 45 
Q 35.0625 48.390625 27.6875 48.390625 
Q 23 48.390625 18.546875 47.265625 
Q 14.109375 46.140625 10.015625 43.890625 
L 10.015625 52.203125 
Q 14.9375 54.109375 19.578125 55.046875 
Q 24.21875 56 28.609375 56 
Q 40.484375 56 46.34375 49.84375 
Q 52.203125 43.703125 52.203125 31.203125 
z
" id="DejaVuSans-97"/>
      <path d="M 45.40625 27.984375 
Q 45.40625 37.75 41.375 43.109375 
Q 37.359375 48.484375 30.078125 48.484375 
Q 22.859375 48.484375 18.828125 43.109375 
Q 14.796875 37.75 14.796875 27.984375 
Q 14.796875 18.265625 18.828125 12.890625 
Q 22.859375 7.515625 30.078125 7.515625 
Q 37.359375 7.515625 41.375 12.890625 
Q 45.40625 18.265625 45.40625 27.984375 
z
M 54.390625 6.78125 
Q 54.390625 -7.171875 48.1875 -13.984375 
Q 42 -20.796875 29.203125 -20.796875 
Q 24.46875 -20.796875 20.265625 -20.09375 
Q 16.0625 -19.390625 12.109375 -17.921875 
L 12.109375 -9.1875 
Q 16.0625 -11.328125 19.921875 -12.34375 
Q 23.78125 -13.375 27.78125 -13.375 
Q 36.625 -13.375 41.015625 -8.765625 
Q 45.40625 -4.15625 45.40625 5.171875 
L 45.40625 9.625 
Q 42.625 4.78125 38.28125 2.390625 
Q 33.9375 0 27.875 0 
Q 17.828125 0 11.671875 7.65625 
Q 5.515625 15.328125 5.515625 27.984375 
Q 5.515625 40.671875 11.671875 48.328125 
Q 17.828125 56 27.875 56 
Q 33.9375 56 38.28125 53.609375 
Q 42.625 51.21875 45.40625 46.390625 
L 45.40625 54.6875 
L 54.390625 54.6875 
z
" id="DejaVuSans-103"/>
     </defs>
     <g transform="translate(28.815625 251.079531)rotate(-90)scale(0.1 -0.1)">
      <use xlink:href="#DejaVuSans-86"/>
      <use x="68.298828" xlink:href="#DejaVuSans-111"/>
      <use x="129.480469" xlink:href="#DejaVuSans-108"/>
      <use x="157.263672" xlink:href="#DejaVuSans-116"/>
      <use x="196.472656" xlink:href="#DejaVuSans-97"/>
      <use x="257.751953" xlink:href="#DejaVuSans-103"/>
      <use x="321.228516" xlink:href="#DejaVuSans-101"/>
      <use x="382.751953" xlink:href="#DejaVuSans-32"/>
      <use x="414.539062" xlink:href="#DejaVuSans-91"/>
      <use x="453.552734" xlink:href="#DejaVuSans-109"/>
      <use x="550.964844" xlink:href="#DejaVuSans-86"/>
      <use x="619.373047" xlink:href="#DejaVuSans-93"/>
     </g>
    </g>
   </g>
   <g id="line2d_13">
    <path clip-path="url(#p30cc6b96f8)" d="M 80.754545 325.586544 
L 81.513993 326.07081 
L 82.303029 326.310002 
L 83.486583 326.416143 
L 85.779719 326.355422 
L 92.254747 326.158896 
L 100.480448 326.124304 
L 100.638256 341.573037 
L 101.008116 354.446047 
L 101.491401 364.460844 
L 101.871124 368.457869 
L 102.127561 369.340699 
L 102.245917 369.313367 
L 102.250848 369.306905 
L 102.408655 368.89904 
L 102.684818 367.435674 
L 103.350567 362.294774 
L 104.065631 357.592118 
L 104.593299 355.463943 
L 105.046995 354.458884 
L 105.441513 354.066629 
L 105.806442 353.99824 
L 106.225618 354.160681 
L 106.866709 354.685244 
L 108.479302 356.065762 
L 109.258475 356.398536 
L 110.096826 356.509016 
L 111.339558 356.418187 
L 114.022281 356.204834 
L 118.89951 356.22858 
L 130.069303 356.221595 
L 130.222178 341.346617 
L 130.56245 330.40427 
L 131.021077 322.212194 
L 131.474773 317.701247 
L 131.89888 315.457989 
L 132.278604 314.491264 
L 132.59915 314.194718 
L 132.880244 314.213504 
L 133.220516 314.48559 
L 133.728458 315.220681 
L 134.714753 317.128986 
L 136.416112 320.332349 
L 137.565146 322.017646 
L 138.664865 323.248019 
L 139.779378 324.168143 
L 139.932254 324.272379 
L 140.045678 325.665761 
L 140.923481 326.162702 
L 141.806215 326.358884 
L 143.201822 326.418394 
L 146.959607 326.265415 
L 152.837926 326.145604 
L 159.663088 326.124304 
L 159.820896 323.033909 
L 160.190756 320.471762 
L 160.728287 318.208544 
L 161.295407 316.72159 
L 161.867458 315.807839 
L 162.459235 315.262557 
L 163.115121 314.958191 
L 163.928815 314.836458 
L 165.141958 314.903942 
L 172.529309 315.651066 
L 178.067356 315.779895 
L 189.251943 315.823682 
L 189.40975 318.918202 
L 189.774679 321.436652 
L 190.307279 323.648222 
L 190.87933 325.131548 
L 191.466175 326.068236 
L 192.072747 326.634793 
L 192.738496 326.954995 
L 193.547258 327.087601 
L 194.706155 327.030398 
L 199.114894 326.444534 
L 199.119826 325.586544 
L 199.228318 325.665761 
L 200.106121 326.162702 
L 200.988855 326.358884 
L 202.384463 326.418394 
L 206.142247 326.265415 
L 212.020566 326.145604 
L 218.845729 326.124304 
L 219.003536 319.942425 
L 219.368465 314.866742 
L 219.901064 310.340707 
L 220.473116 307.258488 
L 221.059961 305.243761 
L 221.646807 303.970108 
L 222.223789 303.211997 
L 222.785978 302.820783 
L 223.358029 302.690133 
L 224.013915 302.777153 
L 224.970621 303.155864 
L 228.037999 304.489616 
L 229.788673 304.932723 
L 231.978248 305.245612 
L 235.15905 305.4562 
L 240.869699 305.578546 
L 248.434583 305.616165 
L 248.59239 311.896184 
L 248.947456 316.904185 
L 249.455398 321.11993 
L 250.002792 323.933343 
L 250.560049 325.714862 
L 251.117306 326.800142 
L 251.674562 327.42722 
L 252.261408 327.76134 
L 252.932089 327.883406 
L 253.829617 327.803895 
L 255.540839 327.378754 
L 258.213699 326.772339 
L 258.297534 326.758033 
L 258.302466 325.586544 
L 258.410958 325.665761 
L 259.288761 326.162702 
L 260.171495 326.358884 
L 261.567103 326.418394 
L 265.324887 326.265415 
L 271.203206 326.145604 
L 278.028369 326.124304 
L 278.186176 316.848651 
L 278.556037 309.115705 
L 279.142882 301.409928 
L 279.67055 294.292703 
L 279.714933 289.018203 
L 279.774111 67.304022 
L 279.877672 200.450914 
L 280.055205 290.73672 
L 280.23767 300.853474 
L 280.420134 302.010389 
L 280.508901 301.928937 
L 280.70616 301.280767 
L 282.072179 296.136467 
L 283.334636 292.19247 
L 283.54669 290.511985 
L 283.640388 287.975702 
L 283.665045 282.765361 
L 283.729155 70.99038 
L 283.822853 191.145808 
L 284.010249 291.301413 
L 284.197645 301.708293 
L 284.389972 303.074396 
L 284.473807 303.091014 
L 284.508328 303.054825 
L 284.710518 302.594229 
L 285.75106 299.949628 
L 286.411877 298.998425 
L 287.25516 298.183393 
L 288.433782 297.369169 
L 290.184456 296.447951 
L 292.748824 295.363688 
L 298.533445 293.013504 
L 299.144948 292.444209 
L 299.51974 291.790094 
L 299.761382 290.899733 
L 299.909326 289.394597 
L 299.968504 286.557751 
L 299.983299 277.87401 
L 300.047408 75.002405 
L 300.12138 167.4719 
L 300.32357 288.768378 
L 300.510966 299.789822 
L 300.718088 301.712787 
L 300.905484 301.94573 
L 301.087949 301.806297 
L 302.917527 299.79507 
L 304.50053 298.758678 
L 306.902159 297.451064 
L 307.617223 297.107549 
L 307.77503 306.671645 
L 308.115302 313.901378 
L 308.593655 319.65668 
L 309.121323 323.499468 
L 309.658854 325.902658 
L 310.196385 327.36101 
L 310.724053 328.1941 
L 311.251721 328.633145 
L 311.813909 328.815141 
L 312.494452 328.790622 
L 313.485679 328.508488 
L 317.480174 327.13088 
L 317.485106 325.586544 
L 317.593598 325.665761 
L 318.471401 326.162702 
L 319.354135 326.358884 
L 320.749743 326.418394 
L 324.507527 326.265415 
L 330.385846 326.145604 
L 337.211009 326.124304 
L 337.368816 313.750973 
L 337.743608 303.173976 
L 338.21703 290.319824 
L 338.236756 277.003014 
L 338.291002 66.96 
L 338.369905 171.631696 
L 338.567165 286.933664 
L 338.744698 296.297116 
L 338.848259 296.82917 
L 338.892642 296.754653 
L 339.030723 295.979893 
L 339.375927 292.525664 
L 339.627432 288.107443 
L 339.68661 283.363474 
L 339.711267 224.407807 
L 339.75565 71.686669 
L 339.829622 171.815017 
L 340.031813 298.368337 
L 340.204414 306.46869 
L 340.248798 306.612579 
L 340.307975 306.441762 
L 340.480577 304.880772 
L 341.999472 286.596598 
L 342.038923 281.587728 
L 342.073444 153.398306 
L 342.103033 75.631296 
L 342.177005 165.320006 
L 342.379195 291.174263 
L 342.556728 300.749706 
L 342.660289 301.284468 
L 342.704673 301.219105 
L 342.847685 300.488719 
L 344.19891 290.567399 
L 344.475072 287.516247 
L 344.558908 284.095971 
L 344.578633 272.026372 
L 344.637811 78.650198 
L 344.716715 170.387004 
L 344.918905 289.441263 
L 345.10137 298.898737 
L 345.23452 299.588859 
L 345.264109 299.564851 
L 345.382464 299.180393 
L 345.791776 296.77381 
L 346.659716 292.149363 
L 347.226836 288.851701 
L 347.404369 286.432018 
L 347.463547 282.48278 
L 347.483273 243.371191 
L 347.537519 80.68276 
L 347.616422 171.708782 
L 347.818613 287.554001 
L 348.001078 297.079334 
L 348.173679 298.045346 
L 348.178611 298.044989 
L 348.267377 297.914856 
L 348.499157 297.025571 
L 349.796135 291.60509 
L 350.343529 289.0723 
L 350.555582 287.001958 
L 350.639417 283.934224 
L 350.659143 275.753136 
L 350.723252 82.275227 
L 350.797224 163.626849 
L 351.004346 285.921883 
L 351.191742 295.879327 
L 351.379138 297.043067 
L 351.477768 296.978955 
L 351.679958 296.40956 
L 353.79063 288.567074 
L 353.973095 286.433384 
L 354.037204 282.961765 
L 354.05693 252.240591 
L 354.116107 83.320089 
L 354.195011 170.975436 
L 354.397202 284.991003 
L 354.584598 295.026236 
L 354.776925 296.365873 
L 354.865692 296.380909 
L 354.895281 296.349503 
L 355.087608 295.913466 
L 357.035541 289.899762 
L 357.346224 288.1726 
L 357.4991 286.003634 
L 357.553346 281.101038 
L 357.582935 195.616834 
L 357.627318 84.20906 
L 357.696359 160.422771 
L 357.903481 283.933663 
L 358.090877 294.421195 
L 358.288136 295.925528 
L 358.391697 295.974948 
L 358.426217 295.944842 
L 358.618545 295.560055 
L 360.314972 290.848919 
L 360.763737 289.121366 
L 360.995516 287.307705 
L 361.099077 284.464341 
L 361.123734 277.540533 
L 361.192775 84.629214 
L 361.271679 171.931796 
L 361.473869 284.076079 
L 361.661265 294.115921 
L 361.858524 295.633141 
L 361.971948 295.704432 
L 362.001537 295.683252 
L 362.188933 295.352428 
L 363.135777 292.843012 
L 364.171386 289.945002 
L 364.491932 288.296415 
L 364.654671 286.217949 
L 364.713849 282.054664 
L 364.738506 225.507267 
L 364.787821 84.783601 
L 364.861793 162.573789 
L 365.068915 283.326704 
L 365.256311 293.792596 
L 365.458502 295.433704 
L 365.581789 295.525869 
L 365.611377 295.506785 
L 365.798773 295.197397 
L 366.602604 293.145098 
L 366.799863 292.66398 
L 366.95767 305.266733 
L 367.283148 313.945683 
L 367.736843 320.526295 
L 368.239854 324.834175 
L 368.757659 327.494965 
L 369.265601 329.040079 
L 369.758748 329.887092 
L 370.237102 330.297841 
L 370.730249 330.437001 
L 371.317095 330.360523 
L 372.145583 330.004312 
L 376.662814 327.687099 
L 376.667746 325.586544 
L 376.776238 325.665761 
L 377.654041 326.162702 
L 378.536775 326.358884 
L 379.932383 326.418394 
L 383.690167 326.265415 
L 389.568486 326.145604 
L 396.393649 326.124304 
L 396.551456 310.646923 
L 396.960769 295.701499 
L 397.09885 288.074368 
L 397.118576 255.766234 
L 397.16789 66.977615 
L 397.251726 179.934858 
L 397.444053 283.838053 
L 397.616655 291.85849 
L 397.661038 292.010065 
L 397.720216 291.811467 
L 397.873092 290.119284 
L 398.070351 285.503263 
L 398.119665 280.383606 
L 398.149254 193.41396 
L 398.188706 74.673514 
L 398.262678 176.486751 
L 398.464869 301.417047 
L 398.622676 307.234116 
L 398.627607 307.231821 
L 398.676922 306.985104 
L 398.844592 304.604859 
L 399.682943 287.885399 
L 399.766778 282.728409 
L 399.786504 249.028093 
L 399.84075 76.040774 
L 399.919654 180.203697 
L 400.116913 295.262529 
L 400.284583 302.392768 
L 400.309241 302.430905 
L 400.353624 302.27932 
L 400.501568 300.71573 
L 401.17718 290.031831 
L 401.379371 284.576304 
L 401.413891 276.415109 
L 401.478 79.102086 
L 401.556904 178.438292 
L 401.759094 294.080629 
L 401.926765 300.962141 
L 401.956353 301.027976 
L 402.0106 300.856773 
L 402.173338 299.249404 
L 402.927854 288.469374 
L 403.090593 283.641399 
L 403.11525 278.380628 
L 403.179359 81.42514 
L 403.273057 191.015325 
L 403.470316 293.035781 
L 403.642918 299.544393 
L 403.677438 299.611829 
L 403.731685 299.451103 
L 403.899355 297.970082 
L 404.663734 288.239075 
L 404.836335 283.831082 
L 404.870856 274.543502 
L 404.934965 82.79369 
L 405.008937 168.683989 
L 405.216059 290.72901 
L 405.388661 298.351366 
L 405.442907 298.529372 
L 405.502084 298.370567 
L 405.674686 296.982048 
L 406.443996 288.124261 
L 406.626461 284.075312 
L 406.665913 278.065589 
L 406.734953 83.883325 
L 406.828651 192.806127 
L 407.02591 290.93272 
L 407.198512 297.584704 
L 407.252758 297.74589 
L 407.311936 297.604408 
L 407.484538 296.345115 
L 408.248916 288.307591 
L 408.46097 284.216485 
L 408.505353 278.853026 
L 408.544805 132.205748 
L 408.574394 84.481082 
L 408.643434 160.262817 
L 408.850556 288.001389 
L 409.02809 296.762571 
L 409.106993 297.088746 
L 409.161239 296.973531 
L 409.323978 295.915669 
L 410.029179 289.145677 
L 410.310273 284.978819 
L 410.374382 280.869691 
L 410.394108 244.8298 
L 410.448355 85.00493 
L 410.527258 170.290056 
L 410.73438 288.366489 
L 410.911913 296.305324 
L 410.990817 296.614044 
L 411.045063 296.510799 
L 411.207802 295.528575 
L 411.893277 289.346171 
L 412.20396 285.180113 
L 412.277932 281.065332 
L 412.297658 248.68269 
L 412.356836 85.302698 
L 412.430808 168.145254 
L 412.63793 287.740261 
L 412.815463 295.914812 
L 412.90423 296.279928 
L 412.953544 296.193613 
L 413.10642 295.34828 
L 413.722854 290.103459 
L 414.10751 285.66419 
L 414.201208 281.879822 
L 414.220934 268.688716 
L 414.285043 85.3991 
L 414.359015 167.058218 
L 414.566137 287.27976 
L 414.74367 295.608591 
L 414.837368 296.020423 
L 414.886683 295.942992 
L 415.039558 295.140601 
L 415.631336 290.297948 
L 416.04558 285.781506 
L 416.144209 282.287937 
L 416.163935 276.494974 
L 416.232976 85.625959 
L 416.311879 173.92169 
L 416.519001 287.645312 
L 416.696534 295.417251 
L 416.790232 295.805818 
L 416.839547 295.730196 
L 416.992423 294.95425 
L 417.574337 290.330413 
L 418.003375 285.783622 
L 418.106936 281.97676 
L 418.126662 272.026569 
L 418.190771 85.515649 
L 418.264744 165.278515 
L 418.471866 286.604402 
L 418.649399 295.192107 
L 418.75296 295.677129 
L 418.797343 295.6176 
L 418.940356 294.944051 
L 419.453229 291.00422 
L 419.961171 285.97974 
L 420.074595 282.288776 
L 420.094321 276.799698 
L 420.163362 85.679772 
L 420.247197 178.944578 
L 420.449387 287.23814 
L 420.62692 295.125576 
L 420.72555 295.56018 
L 420.774865 295.493328 
L 420.922809 294.790127 
L 421.46034 290.702507 
L 421.938693 285.96992 
L 422.052117 282.333427 
L 422.076774 268.330193 
L 422.140884 85.640939 
L 422.214856 166.497478 
L 422.421978 286.473198 
L 422.599511 294.981841 
L 422.708003 295.48921 
L 422.747455 295.441111 
L 422.880605 294.864245 
L 423.334301 291.527042 
L 423.911283 286.137092 
L 424.029639 282.849755 
L 424.059228 272.66028 
L 424.123337 85.599816 
L 424.197309 164.680113 
L 424.409362 286.775377 
L 424.586895 294.936329 
L 424.695388 295.419029 
L 424.73484 295.368658 
L 424.872921 294.764762 
L 425.346343 291.293238 
L 425.898668 286.126307 
L 425.982503 284.386762 
L 425.987435 285.827585 
L 426.184694 303.150007 
L 426.515102 313.303317 
L 426.958935 320.573508 
L 427.452083 325.281504 
L 427.960025 328.163983 
L 428.458104 329.824152 
L 428.941389 330.725376 
L 429.400016 331.148991 
L 429.868506 331.288757 
L 430.410968 331.20822 
L 431.160553 330.849542 
L 432.753419 329.77016 
L 434.612586 328.624582 
L 435.845455 328.046054 
L 435.845455 328.046054 
" style="fill:none;stroke:#ff0000;stroke-linecap:square;stroke-width:1.5;"/>
   </g>
   <g id="patch_3">
    <path d="M 63 384.48 
L 63 51.84 
" style="fill:none;stroke:#000000;stroke-linecap:square;stroke-linejoin:miter;stroke-width:0.8;"/>
   </g>
   <g id="patch_4">
    <path d="M 453.6 384.48 
L 453.6 51.84 
" style="fill:none;stroke:#000000;stroke-linecap:square;stroke-linejoin:miter;stroke-width:0.8;"/>
   </g>
   <g id="patch_5">
    <path d="M 63 384.48 
L 453.6 384.48 
" style="fill:none;stroke:#000000;stroke-linecap:square;stroke-linejoin:miter;stroke-width:0.8;"/>
   </g>
   <g id="patch_6">
    <path d="M 63 51.84 
L 453.6 51.84 
" style="fill:none;stroke:#000000;stroke-linecap:square;stroke-linejoin:miter;stroke-width:0.8;"/>
   </g>
   <g id="legend_1">
    <g id="patch_7">
     <path d="M 70 74.518125 
L 133.139062 74.518125 
Q 135.139062 74.518125 135.139062 72.518125 
L 135.139062 58.84 
Q 135.139062 56.84 133.139062 56.84 
L 70 56.84 
Q 68 56.84 68 58.84 
L 68 72.518125 
Q 68 74.518125 70 74.518125 
z
" style="fill:#ffffff;opacity:0.8;stroke:#cccccc;stroke-linejoin:miter;"/>
    </g>
    <g id="line2d_14">
     <path d="M 72 64.938438 
L 92 64.938438 
" style="fill:none;stroke:#ff0000;stroke-linecap:square;stroke-width:1.5;"/>
    </g>
    <g id="line2d_15"/>
    <g id="text_15">
     <!-- model -->
     <defs>
      <path d="M 45.40625 46.390625 
L 45.40625 75.984375 
L 54.390625 75.984375 
L 54.390625 0 
L 45.40625 0 
L 45.40625 8.203125 
Q 42.578125 3.328125 38.25 0.953125 
Q 33.9375 -1.421875 27.875 -1.421875 
Q 17.96875 -1.421875 11.734375 6.484375 
Q 5.515625 14.40625 5.515625 27.296875 
Q 5.515625 40.1875 11.734375 48.09375 
Q 17.96875 56 27.875 56 
Q 33.9375 56 38.25 53.625 
Q 42.578125 51.265625 45.40625 46.390625 
z
M 14.796875 27.296875 
Q 14.796875 17.390625 18.875 11.75 
Q 22.953125 6.109375 30.078125 6.109375 
Q 37.203125 6.109375 41.296875 11.75 
Q 45.40625 17.390625 45.40625 27.296875 
Q 45.40625 37.203125 41.296875 42.84375 
Q 37.203125 48.484375 30.078125 48.484375 
Q 22.953125 48.484375 18.875 42.84375 
Q 14.796875 37.203125 14.796875 27.296875 
z
" id="DejaVuSans-100"/>
     </defs>
     <g transform="translate(100 68.438438)scale(0.1 -0.1)">
      <use xlink:href="#DejaVuSans-109"/>
      <use x="97.412109" xlink:href="#DejaVuSans-111"/>
      <use x="158.59375" xlink:href="#DejaVuSans-100"/>
      <use x="222.070312" xlink:href="#DejaVuSans-101"/>
      <use x="283.59375" xlink:href="#DejaVuSans-108"/>
     </g>
    </g>
   </g>
  </g>
 </g>
 <defs>
  <clipPath id="p30cc6b96f8">
   <rect height="332.64" width="390.6" x="63" y="51.84"/>
  </clipPath>
 </defs>
</svg>
