<?xml version="1.0" encoding="utf-8" standalone="no"?>
<!DOCTYPE svg PUBLIC "-//W3C//DTD SVG 1.1//EN"
  "http://www.w3.org/Graphics/SVG/1.1/DTD/svg11.dtd">
<!-- Created with matplotlib (https://matplotlib.org/) -->
<svg height="432pt" version="1.1" viewBox="0 0 504 432" width="504pt" xmlns="http://www.w3.org/2000/svg" xmlns:xlink="http://www.w3.org/1999/xlink">
 <defs>
  <style type="text/css">
*{stroke-linecap:butt;stroke-linejoin:round;}
  </style>
 </defs>
 <g id="figure_1">
  <g id="patch_1">
   <path d="M 0 432 
L 504 432 
L 504 0 
L 0 0 
z
" style="fill:#ffffff;"/>
  </g>
  <g id="axes_1">
   <g id="patch_2">
    <path d="M 63 384.48 
L 453.6 384.48 
L 453.6 51.84 
L 63 51.84 
z
" style="fill:#ffffff;"/>
   </g>
   <g id="matplotlib.axis_1">
    <g id="xtick_1">
     <g id="line2d_1">
      <defs>
       <path d="M 0 0 
L 0 3.5 
" id="m1f1283a8cb" style="stroke:#000000;stroke-width:0.8;"/>
      </defs>
      <g>
       <use style="stroke:#000000;stroke-width:0.8;" x="80.754545" xlink:href="#m1f1283a8cb" y="384.48"/>
      </g>
     </g>
     <g id="text_1">
      <!-- 0 -->
      <defs>
       <path d="M 31.78125 66.40625 
Q 24.171875 66.40625 20.328125 58.90625 
Q 16.5 51.421875 16.5 36.375 
Q 16.5 21.390625 20.328125 13.890625 
Q 24.171875 6.390625 31.78125 6.390625 
Q 39.453125 6.390625 43.28125 13.890625 
Q 47.125 21.390625 47.125 36.375 
Q 47.125 51.421875 43.28125 58.90625 
Q 39.453125 66.40625 31.78125 66.40625 
z
M 31.78125 74.21875 
Q 44.046875 74.21875 50.515625 64.515625 
Q 56.984375 54.828125 56.984375 36.375 
Q 56.984375 17.96875 50.515625 8.265625 
Q 44.046875 -1.421875 31.78125 -1.421875 
Q 19.53125 -1.421875 13.0625 8.265625 
Q 6.59375 17.96875 6.59375 36.375 
Q 6.59375 54.828125 13.0625 64.515625 
Q 19.53125 74.21875 31.78125 74.21875 
z
" id="DejaVuSans-48"/>
      </defs>
      <g transform="translate(77.573295 399.078438)scale(0.1 -0.1)">
       <use xlink:href="#DejaVuSans-48"/>
      </g>
     </g>
    </g>
    <g id="xtick_2">
     <g id="line2d_2">
      <g>
       <use style="stroke:#000000;stroke-width:0.8;" x="151.767796" xlink:href="#m1f1283a8cb" y="384.48"/>
      </g>
     </g>
     <g id="text_2">
      <!-- 720 -->
      <defs>
       <path d="M 8.203125 72.90625 
L 55.078125 72.90625 
L 55.078125 68.703125 
L 28.609375 0 
L 18.3125 0 
L 43.21875 64.59375 
L 8.203125 64.59375 
z
" id="DejaVuSans-55"/>
       <path d="M 19.1875 8.296875 
L 53.609375 8.296875 
L 53.609375 0 
L 7.328125 0 
L 7.328125 8.296875 
Q 12.9375 14.109375 22.625 23.890625 
Q 32.328125 33.6875 34.8125 36.53125 
Q 39.546875 41.84375 41.421875 45.53125 
Q 43.3125 49.21875 43.3125 52.78125 
Q 43.3125 58.59375 39.234375 62.25 
Q 35.15625 65.921875 28.609375 65.921875 
Q 23.96875 65.921875 18.8125 64.3125 
Q 13.671875 62.703125 7.8125 59.421875 
L 7.8125 69.390625 
Q 13.765625 71.78125 18.9375 73 
Q 24.125 74.21875 28.421875 74.21875 
Q 39.75 74.21875 46.484375 68.546875 
Q 53.21875 62.890625 53.21875 53.421875 
Q 53.21875 48.921875 51.53125 44.890625 
Q 49.859375 40.875 45.40625 35.40625 
Q 44.1875 33.984375 37.640625 27.21875 
Q 31.109375 20.453125 19.1875 8.296875 
z
" id="DejaVuSans-50"/>
      </defs>
      <g transform="translate(142.224046 399.078438)scale(0.1 -0.1)">
       <use xlink:href="#DejaVuSans-55"/>
       <use x="63.623047" xlink:href="#DejaVuSans-50"/>
       <use x="127.246094" xlink:href="#DejaVuSans-48"/>
      </g>
     </g>
    </g>
    <g id="xtick_3">
     <g id="line2d_3">
      <g>
       <use style="stroke:#000000;stroke-width:0.8;" x="222.781046" xlink:href="#m1f1283a8cb" y="384.48"/>
      </g>
     </g>
     <g id="text_3">
      <!-- 1440 -->
      <defs>
       <path d="M 12.40625 8.296875 
L 28.515625 8.296875 
L 28.515625 63.921875 
L 10.984375 60.40625 
L 10.984375 69.390625 
L 28.421875 72.90625 
L 38.28125 72.90625 
L 38.28125 8.296875 
L 54.390625 8.296875 
L 54.390625 0 
L 12.40625 0 
z
" id="DejaVuSans-49"/>
       <path d="M 37.796875 64.3125 
L 12.890625 25.390625 
L 37.796875 25.390625 
z
M 35.203125 72.90625 
L 47.609375 72.90625 
L 47.609375 25.390625 
L 58.015625 25.390625 
L 58.015625 17.1875 
L 47.609375 17.1875 
L 47.609375 0 
L 37.796875 0 
L 37.796875 17.1875 
L 4.890625 17.1875 
L 4.890625 26.703125 
z
" id="DejaVuSans-52"/>
      </defs>
      <g transform="translate(210.056046 399.078438)scale(0.1 -0.1)">
       <use xlink:href="#DejaVuSans-49"/>
       <use x="63.623047" xlink:href="#DejaVuSans-52"/>
       <use x="127.246094" xlink:href="#DejaVuSans-52"/>
       <use x="190.869141" xlink:href="#DejaVuSans-48"/>
      </g>
     </g>
    </g>
    <g id="xtick_4">
     <g id="line2d_4">
      <g>
       <use style="stroke:#000000;stroke-width:0.8;" x="293.794296" xlink:href="#m1f1283a8cb" y="384.48"/>
      </g>
     </g>
     <g id="text_4">
      <!-- 2160 -->
      <defs>
       <path d="M 33.015625 40.375 
Q 26.375 40.375 22.484375 35.828125 
Q 18.609375 31.296875 18.609375 23.390625 
Q 18.609375 15.53125 22.484375 10.953125 
Q 26.375 6.390625 33.015625 6.390625 
Q 39.65625 6.390625 43.53125 10.953125 
Q 47.40625 15.53125 47.40625 23.390625 
Q 47.40625 31.296875 43.53125 35.828125 
Q 39.65625 40.375 33.015625 40.375 
z
M 52.59375 71.296875 
L 52.59375 62.3125 
Q 48.875 64.0625 45.09375 64.984375 
Q 41.3125 65.921875 37.59375 65.921875 
Q 27.828125 65.921875 22.671875 59.328125 
Q 17.53125 52.734375 16.796875 39.40625 
Q 19.671875 43.65625 24.015625 45.921875 
Q 28.375 48.1875 33.59375 48.1875 
Q 44.578125 48.1875 50.953125 41.515625 
Q 57.328125 34.859375 57.328125 23.390625 
Q 57.328125 12.15625 50.6875 5.359375 
Q 44.046875 -1.421875 33.015625 -1.421875 
Q 20.359375 -1.421875 13.671875 8.265625 
Q 6.984375 17.96875 6.984375 36.375 
Q 6.984375 53.65625 15.1875 63.9375 
Q 23.390625 74.21875 37.203125 74.21875 
Q 40.921875 74.21875 44.703125 73.484375 
Q 48.484375 72.75 52.59375 71.296875 
z
" id="DejaVuSans-54"/>
      </defs>
      <g transform="translate(281.069296 399.078438)scale(0.1 -0.1)">
       <use xlink:href="#DejaVuSans-50"/>
       <use x="63.623047" xlink:href="#DejaVuSans-49"/>
       <use x="127.246094" xlink:href="#DejaVuSans-54"/>
       <use x="190.869141" xlink:href="#DejaVuSans-48"/>
      </g>
     </g>
    </g>
    <g id="xtick_5">
     <g id="line2d_5">
      <g>
       <use style="stroke:#000000;stroke-width:0.8;" x="364.807547" xlink:href="#m1f1283a8cb" y="384.48"/>
      </g>
     </g>
     <g id="text_5">
      <!-- 2880 -->
      <defs>
       <path d="M 31.78125 34.625 
Q 24.75 34.625 20.71875 30.859375 
Q 16.703125 27.09375 16.703125 20.515625 
Q 16.703125 13.921875 20.71875 10.15625 
Q 24.75 6.390625 31.78125 6.390625 
Q 38.8125 6.390625 42.859375 10.171875 
Q 46.921875 13.96875 46.921875 20.515625 
Q 46.921875 27.09375 42.890625 30.859375 
Q 38.875 34.625 31.78125 34.625 
z
M 21.921875 38.8125 
Q 15.578125 40.375 12.03125 44.71875 
Q 8.5 49.078125 8.5 55.328125 
Q 8.5 64.0625 14.71875 69.140625 
Q 20.953125 74.21875 31.78125 74.21875 
Q 42.671875 74.21875 48.875 69.140625 
Q 55.078125 64.0625 55.078125 55.328125 
Q 55.078125 49.078125 51.53125 44.71875 
Q 48 40.375 41.703125 38.8125 
Q 48.828125 37.15625 52.796875 32.3125 
Q 56.78125 27.484375 56.78125 20.515625 
Q 56.78125 9.90625 50.3125 4.234375 
Q 43.84375 -1.421875 31.78125 -1.421875 
Q 19.734375 -1.421875 13.25 4.234375 
Q 6.78125 9.90625 6.78125 20.515625 
Q 6.78125 27.484375 10.78125 32.3125 
Q 14.796875 37.15625 21.921875 38.8125 
z
M 18.3125 54.390625 
Q 18.3125 48.734375 21.84375 45.5625 
Q 25.390625 42.390625 31.78125 42.390625 
Q 38.140625 42.390625 41.71875 45.5625 
Q 45.3125 48.734375 45.3125 54.390625 
Q 45.3125 60.0625 41.71875 63.234375 
Q 38.140625 66.40625 31.78125 66.40625 
Q 25.390625 66.40625 21.84375 63.234375 
Q 18.3125 60.0625 18.3125 54.390625 
z
" id="DejaVuSans-56"/>
      </defs>
      <g transform="translate(352.082547 399.078438)scale(0.1 -0.1)">
       <use xlink:href="#DejaVuSans-50"/>
       <use x="63.623047" xlink:href="#DejaVuSans-56"/>
       <use x="127.246094" xlink:href="#DejaVuSans-56"/>
       <use x="190.869141" xlink:href="#DejaVuSans-48"/>
      </g>
     </g>
    </g>
    <g id="text_6">
     <!-- time [ms] -->
     <defs>
      <path d="M 18.3125 70.21875 
L 18.3125 54.6875 
L 36.8125 54.6875 
L 36.8125 47.703125 
L 18.3125 47.703125 
L 18.3125 18.015625 
Q 18.3125 11.328125 20.140625 9.421875 
Q 21.96875 7.515625 27.59375 7.515625 
L 36.8125 7.515625 
L 36.8125 0 
L 27.59375 0 
Q 17.1875 0 13.234375 3.875 
Q 9.28125 7.765625 9.28125 18.015625 
L 9.28125 47.703125 
L 2.6875 47.703125 
L 2.6875 54.6875 
L 9.28125 54.6875 
L 9.28125 70.21875 
z
" id="DejaVuSans-116"/>
      <path d="M 9.421875 54.6875 
L 18.40625 54.6875 
L 18.40625 0 
L 9.421875 0 
z
M 9.421875 75.984375 
L 18.40625 75.984375 
L 18.40625 64.59375 
L 9.421875 64.59375 
z
" id="DejaVuSans-105"/>
      <path d="M 52 44.1875 
Q 55.375 50.25 60.0625 53.125 
Q 64.75 56 71.09375 56 
Q 79.640625 56 84.28125 50.015625 
Q 88.921875 44.046875 88.921875 33.015625 
L 88.921875 0 
L 79.890625 0 
L 79.890625 32.71875 
Q 79.890625 40.578125 77.09375 44.375 
Q 74.3125 48.1875 68.609375 48.1875 
Q 61.625 48.1875 57.5625 43.546875 
Q 53.515625 38.921875 53.515625 30.90625 
L 53.515625 0 
L 44.484375 0 
L 44.484375 32.71875 
Q 44.484375 40.625 41.703125 44.40625 
Q 38.921875 48.1875 33.109375 48.1875 
Q 26.21875 48.1875 22.15625 43.53125 
Q 18.109375 38.875 18.109375 30.90625 
L 18.109375 0 
L 9.078125 0 
L 9.078125 54.6875 
L 18.109375 54.6875 
L 18.109375 46.1875 
Q 21.1875 51.21875 25.484375 53.609375 
Q 29.78125 56 35.6875 56 
Q 41.65625 56 45.828125 52.96875 
Q 50 49.953125 52 44.1875 
z
" id="DejaVuSans-109"/>
      <path d="M 56.203125 29.59375 
L 56.203125 25.203125 
L 14.890625 25.203125 
Q 15.484375 15.921875 20.484375 11.0625 
Q 25.484375 6.203125 34.421875 6.203125 
Q 39.59375 6.203125 44.453125 7.46875 
Q 49.3125 8.734375 54.109375 11.28125 
L 54.109375 2.78125 
Q 49.265625 0.734375 44.1875 -0.34375 
Q 39.109375 -1.421875 33.890625 -1.421875 
Q 20.796875 -1.421875 13.15625 6.1875 
Q 5.515625 13.8125 5.515625 26.8125 
Q 5.515625 40.234375 12.765625 48.109375 
Q 20.015625 56 32.328125 56 
Q 43.359375 56 49.78125 48.890625 
Q 56.203125 41.796875 56.203125 29.59375 
z
M 47.21875 32.234375 
Q 47.125 39.59375 43.09375 43.984375 
Q 39.0625 48.390625 32.421875 48.390625 
Q 24.90625 48.390625 20.390625 44.140625 
Q 15.875 39.890625 15.1875 32.171875 
z
" id="DejaVuSans-101"/>
      <path id="DejaVuSans-32"/>
      <path d="M 8.59375 75.984375 
L 29.296875 75.984375 
L 29.296875 69 
L 17.578125 69 
L 17.578125 -6.203125 
L 29.296875 -6.203125 
L 29.296875 -13.1875 
L 8.59375 -13.1875 
z
" id="DejaVuSans-91"/>
      <path d="M 44.28125 53.078125 
L 44.28125 44.578125 
Q 40.484375 46.53125 36.375 47.5 
Q 32.28125 48.484375 27.875 48.484375 
Q 21.1875 48.484375 17.84375 46.4375 
Q 14.5 44.390625 14.5 40.28125 
Q 14.5 37.15625 16.890625 35.375 
Q 19.28125 33.59375 26.515625 31.984375 
L 29.59375 31.296875 
Q 39.15625 29.25 43.1875 25.515625 
Q 47.21875 21.78125 47.21875 15.09375 
Q 47.21875 7.46875 41.1875 3.015625 
Q 35.15625 -1.421875 24.609375 -1.421875 
Q 20.21875 -1.421875 15.453125 -0.5625 
Q 10.6875 0.296875 5.421875 2 
L 5.421875 11.28125 
Q 10.40625 8.6875 15.234375 7.390625 
Q 20.0625 6.109375 24.8125 6.109375 
Q 31.15625 6.109375 34.5625 8.28125 
Q 37.984375 10.453125 37.984375 14.40625 
Q 37.984375 18.0625 35.515625 20.015625 
Q 33.0625 21.96875 24.703125 23.78125 
L 21.578125 24.515625 
Q 13.234375 26.265625 9.515625 29.90625 
Q 5.8125 33.546875 5.8125 39.890625 
Q 5.8125 47.609375 11.28125 51.796875 
Q 16.75 56 26.8125 56 
Q 31.78125 56 36.171875 55.265625 
Q 40.578125 54.546875 44.28125 53.078125 
z
" id="DejaVuSans-115"/>
      <path d="M 30.421875 75.984375 
L 30.421875 -13.1875 
L 9.71875 -13.1875 
L 9.71875 -6.203125 
L 21.390625 -6.203125 
L 21.390625 69 
L 9.71875 69 
L 9.71875 75.984375 
z
" id="DejaVuSans-93"/>
     </defs>
     <g transform="translate(234.038281 412.756563)scale(0.1 -0.1)">
      <use xlink:href="#DejaVuSans-116"/>
      <use x="39.208984" xlink:href="#DejaVuSans-105"/>
      <use x="66.992188" xlink:href="#DejaVuSans-109"/>
      <use x="164.404297" xlink:href="#DejaVuSans-101"/>
      <use x="225.927734" xlink:href="#DejaVuSans-32"/>
      <use x="257.714844" xlink:href="#DejaVuSans-91"/>
      <use x="296.728516" xlink:href="#DejaVuSans-109"/>
      <use x="394.140625" xlink:href="#DejaVuSans-115"/>
      <use x="446.240234" xlink:href="#DejaVuSans-93"/>
     </g>
    </g>
   </g>
   <g id="matplotlib.axis_2">
    <g id="ytick_1">
     <g id="line2d_6">
      <defs>
       <path d="M 0 0 
L -3.5 0 
" id="m2466359f43" style="stroke:#000000;stroke-width:0.8;"/>
      </defs>
      <g>
       <use style="stroke:#000000;stroke-width:0.8;" x="63" xlink:href="#m2466359f43" y="366.97441"/>
      </g>
     </g>
     <g id="text_7">
      <!-- −80 -->
      <defs>
       <path d="M 10.59375 35.5 
L 73.1875 35.5 
L 73.1875 27.203125 
L 10.59375 27.203125 
z
" id="DejaVuSans-8722"/>
      </defs>
      <g transform="translate(34.895313 370.773629)scale(0.1 -0.1)">
       <use xlink:href="#DejaVuSans-8722"/>
       <use x="83.789062" xlink:href="#DejaVuSans-56"/>
       <use x="147.412109" xlink:href="#DejaVuSans-48"/>
      </g>
     </g>
    </g>
    <g id="ytick_2">
     <g id="line2d_7">
      <g>
       <use style="stroke:#000000;stroke-width:0.8;" x="63" xlink:href="#m2466359f43" y="314.230874"/>
      </g>
     </g>
     <g id="text_8">
      <!-- −60 -->
      <g transform="translate(34.895313 318.030092)scale(0.1 -0.1)">
       <use xlink:href="#DejaVuSans-8722"/>
       <use x="83.789062" xlink:href="#DejaVuSans-54"/>
       <use x="147.412109" xlink:href="#DejaVuSans-48"/>
      </g>
     </g>
    </g>
    <g id="ytick_3">
     <g id="line2d_8">
      <g>
       <use style="stroke:#000000;stroke-width:0.8;" x="63" xlink:href="#m2466359f43" y="261.487338"/>
      </g>
     </g>
     <g id="text_9">
      <!-- −40 -->
      <g transform="translate(34.895313 265.286556)scale(0.1 -0.1)">
       <use xlink:href="#DejaVuSans-8722"/>
       <use x="83.789062" xlink:href="#DejaVuSans-52"/>
       <use x="147.412109" xlink:href="#DejaVuSans-48"/>
      </g>
     </g>
    </g>
    <g id="ytick_4">
     <g id="line2d_9">
      <g>
       <use style="stroke:#000000;stroke-width:0.8;" x="63" xlink:href="#m2466359f43" y="208.743802"/>
      </g>
     </g>
     <g id="text_10">
      <!-- −20 -->
      <g transform="translate(34.895313 212.54302)scale(0.1 -0.1)">
       <use xlink:href="#DejaVuSans-8722"/>
       <use x="83.789062" xlink:href="#DejaVuSans-50"/>
       <use x="147.412109" xlink:href="#DejaVuSans-48"/>
      </g>
     </g>
    </g>
    <g id="ytick_5">
     <g id="line2d_10">
      <g>
       <use style="stroke:#000000;stroke-width:0.8;" x="63" xlink:href="#m2466359f43" y="156.000265"/>
      </g>
     </g>
     <g id="text_11">
      <!-- 0 -->
      <g transform="translate(49.6375 159.799484)scale(0.1 -0.1)">
       <use xlink:href="#DejaVuSans-48"/>
      </g>
     </g>
    </g>
    <g id="ytick_6">
     <g id="line2d_11">
      <g>
       <use style="stroke:#000000;stroke-width:0.8;" x="63" xlink:href="#m2466359f43" y="103.256729"/>
      </g>
     </g>
     <g id="text_12">
      <!-- 20 -->
      <g transform="translate(43.275 107.055948)scale(0.1 -0.1)">
       <use xlink:href="#DejaVuSans-50"/>
       <use x="63.623047" xlink:href="#DejaVuSans-48"/>
      </g>
     </g>
    </g>
    <g id="text_13">
     <!-- Voltage [mV] -->
     <defs>
      <path d="M 28.609375 0 
L 0.78125 72.90625 
L 11.078125 72.90625 
L 34.1875 11.53125 
L 57.328125 72.90625 
L 67.578125 72.90625 
L 39.796875 0 
z
" id="DejaVuSans-86"/>
      <path d="M 30.609375 48.390625 
Q 23.390625 48.390625 19.1875 42.75 
Q 14.984375 37.109375 14.984375 27.296875 
Q 14.984375 17.484375 19.15625 11.84375 
Q 23.34375 6.203125 30.609375 6.203125 
Q 37.796875 6.203125 41.984375 11.859375 
Q 46.1875 17.53125 46.1875 27.296875 
Q 46.1875 37.015625 41.984375 42.703125 
Q 37.796875 48.390625 30.609375 48.390625 
z
M 30.609375 56 
Q 42.328125 56 49.015625 48.375 
Q 55.71875 40.765625 55.71875 27.296875 
Q 55.71875 13.875 49.015625 6.21875 
Q 42.328125 -1.421875 30.609375 -1.421875 
Q 18.84375 -1.421875 12.171875 6.21875 
Q 5.515625 13.875 5.515625 27.296875 
Q 5.515625 40.765625 12.171875 48.375 
Q 18.84375 56 30.609375 56 
z
" id="DejaVuSans-111"/>
      <path d="M 9.421875 75.984375 
L 18.40625 75.984375 
L 18.40625 0 
L 9.421875 0 
z
" id="DejaVuSans-108"/>
      <path d="M 34.28125 27.484375 
Q 23.390625 27.484375 19.1875 25 
Q 14.984375 22.515625 14.984375 16.5 
Q 14.984375 11.71875 18.140625 8.90625 
Q 21.296875 6.109375 26.703125 6.109375 
Q 34.1875 6.109375 38.703125 11.40625 
Q 43.21875 16.703125 43.21875 25.484375 
L 43.21875 27.484375 
z
M 52.203125 31.203125 
L 52.203125 0 
L 43.21875 0 
L 43.21875 8.296875 
Q 40.140625 3.328125 35.546875 0.953125 
Q 30.953125 -1.421875 24.3125 -1.421875 
Q 15.921875 -1.421875 10.953125 3.296875 
Q 6 8.015625 6 15.921875 
Q 6 25.140625 12.171875 29.828125 
Q 18.359375 34.515625 30.609375 34.515625 
L 43.21875 34.515625 
L 43.21875 35.40625 
Q 43.21875 41.609375 39.140625 45 
Q 35.0625 48.390625 27.6875 48.390625 
Q 23 48.390625 18.546875 47.265625 
Q 14.109375 46.140625 10.015625 43.890625 
L 10.015625 52.203125 
Q 14.9375 54.109375 19.578125 55.046875 
Q 24.21875 56 28.609375 56 
Q 40.484375 56 46.34375 49.84375 
Q 52.203125 43.703125 52.203125 31.203125 
z
" id="DejaVuSans-97"/>
      <path d="M 45.40625 27.984375 
Q 45.40625 37.75 41.375 43.109375 
Q 37.359375 48.484375 30.078125 48.484375 
Q 22.859375 48.484375 18.828125 43.109375 
Q 14.796875 37.75 14.796875 27.984375 
Q 14.796875 18.265625 18.828125 12.890625 
Q 22.859375 7.515625 30.078125 7.515625 
Q 37.359375 7.515625 41.375 12.890625 
Q 45.40625 18.265625 45.40625 27.984375 
z
M 54.390625 6.78125 
Q 54.390625 -7.171875 48.1875 -13.984375 
Q 42 -20.796875 29.203125 -20.796875 
Q 24.46875 -20.796875 20.265625 -20.09375 
Q 16.0625 -19.390625 12.109375 -17.921875 
L 12.109375 -9.1875 
Q 16.0625 -11.328125 19.921875 -12.34375 
Q 23.78125 -13.375 27.78125 -13.375 
Q 36.625 -13.375 41.015625 -8.765625 
Q 45.40625 -4.15625 45.40625 5.171875 
L 45.40625 9.625 
Q 42.625 4.78125 38.28125 2.390625 
Q 33.9375 0 27.875 0 
Q 17.828125 0 11.671875 7.65625 
Q 5.515625 15.328125 5.515625 27.984375 
Q 5.515625 40.671875 11.671875 48.328125 
Q 17.828125 56 27.875 56 
Q 33.9375 56 38.28125 53.609375 
Q 42.625 51.21875 45.40625 46.390625 
L 45.40625 54.6875 
L 54.390625 54.6875 
z
" id="DejaVuSans-103"/>
     </defs>
     <g transform="translate(28.815625 251.079531)rotate(-90)scale(0.1 -0.1)">
      <use xlink:href="#DejaVuSans-86"/>
      <use x="68.298828" xlink:href="#DejaVuSans-111"/>
      <use x="129.480469" xlink:href="#DejaVuSans-108"/>
      <use x="157.263672" xlink:href="#DejaVuSans-116"/>
      <use x="196.472656" xlink:href="#DejaVuSans-97"/>
      <use x="257.751953" xlink:href="#DejaVuSans-103"/>
      <use x="321.228516" xlink:href="#DejaVuSans-101"/>
      <use x="382.751953" xlink:href="#DejaVuSans-32"/>
      <use x="414.539062" xlink:href="#DejaVuSans-91"/>
      <use x="453.552734" xlink:href="#DejaVuSans-109"/>
      <use x="550.964844" xlink:href="#DejaVuSans-86"/>
      <use x="619.373047" xlink:href="#DejaVuSans-93"/>
     </g>
    </g>
   </g>
   <g id="line2d_12">
    <path clip-path="url(#paad2f1cac7)" d="M 80.754545 327.416758 
L 80.97153 327.364916 
L 84.167127 327.709594 
L 93.181864 327.657571 
L 100.480448 327.650903 
L 100.638256 343.4413 
L 100.98839 355.417273 
L 101.447018 364.268681 
L 101.836604 368.135492 
L 102.127561 369.258318 
L 102.305094 369.344427 
L 102.462902 369.116949 
L 102.729201 368.248619 
L 103.266732 365.543224 
L 104.208644 361.023667 
L 104.790558 359.266561 
L 105.308363 358.345062 
L 105.796579 357.894509 
L 106.304521 357.721372 
L 106.93575 357.756627 
L 108.17355 358.108667 
L 109.682582 358.445058 
L 111.260654 358.546243 
L 116.680346 358.498606 
L 130.069303 358.4967 
L 130.222178 343.268848 
L 130.552587 332.6894 
L 130.986557 325.219381 
L 131.420527 321.163708 
L 131.829839 319.178413 
L 132.1997 318.334767 
L 132.520246 318.076495 
L 132.821066 318.105507 
L 133.195858 318.392769 
L 133.758046 319.145198 
L 135.276941 321.721588 
L 136.47529 323.460556 
L 137.565146 324.657558 
L 138.679659 325.555206 
L 139.887871 326.241724 
L 139.932254 326.262362 
L 139.937186 327.416758 
L 140.045678 327.360869 
L 140.445128 327.429089 
L 141.811146 327.654449 
L 143.852777 327.71059 
L 159.663088 327.650903 
L 159.820896 324.490523 
L 160.17103 322.086437 
L 160.664178 320.131639 
L 161.186914 318.905042 
L 161.729377 318.16862 
L 162.311291 317.742727 
L 162.996766 317.520685 
L 163.933746 317.46744 
L 165.723872 317.634346 
L 169.782477 318.001854 
L 174.521625 318.162217 
L 184.700191 318.233914 
L 189.251943 318.240005 
L 189.40975 321.407453 
L 189.759885 323.811431 
L 190.248101 325.73658 
L 190.770837 326.954736 
L 191.308368 327.67716 
L 191.885351 328.093313 
L 192.570826 328.308598 
L 193.517669 328.35517 
L 195.440945 328.173876 
L 199.114894 327.861866 
L 199.228318 327.360869 
L 199.627768 327.429089 
L 200.993786 327.654449 
L 203.035417 327.71059 
L 218.845729 327.650903 
L 219.003536 321.328336 
L 219.353671 316.505353 
L 219.846818 312.54361 
L 220.394212 309.840668 
L 221.252289 306.087719 
L 221.272015 283.777641 
L 221.331192 69.642404 
L 221.405164 175.31119 
L 221.607355 321.424109 
L 221.779957 325.154169 
L 221.829271 325.232426 
L 221.883518 325.143271 
L 222.036393 324.332836 
L 222.529541 320.051121 
L 223.249536 314.638783 
L 223.816656 311.946818 
L 224.373913 310.30521 
L 224.955827 309.248603 
L 225.591987 308.540842 
L 226.366229 308.01758 
L 227.954164 307.052978 
L 228.092245 306.596762 
L 228.111971 305.911518 
L 228.131697 276.691329 
L 228.195806 76.441909 
L 228.269779 182.894934 
L 228.467038 319.475246 
L 228.644571 323.792875 
L 228.723474 323.964651 
L 228.772789 323.895435 
L 228.920733 323.239511 
L 229.374429 319.847165 
L 230.114151 314.929147 
L 230.68127 312.566052 
L 231.238527 311.139235 
L 231.81551 310.243307 
L 232.446739 309.662418 
L 233.196323 309.277808 
L 234.187549 309.032344 
L 235.731101 308.90376 
L 239.641762 308.876877 
L 248.434583 308.834089 
L 248.59239 315.216856 
L 248.937593 320.019111 
L 249.415946 323.803444 
L 249.918957 326.149874 
L 250.426899 327.538063 
L 250.934841 328.327212 
L 251.462509 328.758062 
L 252.064149 328.961246 
L 252.858117 328.97807 
L 254.268519 328.745203 
L 257.666305 328.17068 
L 258.297534 328.101084 
L 258.410958 327.360869 
L 258.810408 327.429089 
L 260.176427 327.654449 
L 262.218057 327.71059 
L 278.028369 327.650903 
L 278.186176 318.163267 
L 278.541242 310.799375 
L 279.088636 303.94877 
L 279.384524 299.723311 
L 279.399319 293.366 
L 279.463428 68.19235 
L 279.547263 191.825213 
L 279.739591 319.191409 
L 279.897398 321.971337 
L 279.902329 321.971182 
L 279.956576 321.830373 
L 280.114383 320.565394 
L 280.716023 313.088492 
L 281.401498 306.154005 
L 282.121493 301.199721 
L 282.392725 298.747822 
L 282.422313 297.022488 
L 282.451902 227.382879 
L 282.496286 74.503526 
L 282.570258 178.239105 
L 282.767517 318.456839 
L 282.935187 321.804039 
L 282.959844 321.800411 
L 282.994365 321.712801 
L 283.137377 320.717907 
L 283.591073 315.416944 
L 284.330795 307.758444 
L 284.942298 303.657234 
L 285.805306 298.33868 
L 285.8201 295.771364 
L 285.859552 170.77052 
L 285.894072 79.631644 
L 285.968045 179.285649 
L 286.170235 316.787593 
L 286.342837 320.348618 
L 286.372426 320.367656 
L 286.416809 320.274088 
L 286.559822 319.367325 
L 287.013517 314.548336 
L 287.748307 307.636814 
L 288.349947 303.994485 
L 289.099532 300.891172 
L 289.420078 299.163692 
L 289.474324 297.845047 
L 289.49405 265.533934 
L 289.558159 83.671982 
L 289.6272 174.75401 
L 289.82939 315.01837 
L 290.001992 319.215025 
L 290.051306 319.29815 
L 290.105553 319.19053 
L 290.258428 318.252892 
L 290.761439 313.250718 
L 291.46664 307.247547 
L 292.063349 303.979853 
L 292.763618 301.395346 
L 293.241971 299.432182 
L 293.320875 298.241559 
L 293.335669 291.934378 
L 293.409641 86.338822 
L 293.488545 188.691932 
L 293.685804 314.076847 
L 293.863337 318.376212 
L 293.917583 318.483002 
L 293.976761 318.376987 
L 294.134568 317.457741 
L 294.657305 312.543754 
L 295.352643 307.007892 
L 295.949351 303.95246 
L 296.639758 301.580219 
L 297.197015 299.552876 
L 297.290713 298.208438 
L 297.305507 290.591551 
L 297.379479 88.271229 
L 297.453451 181.917115 
L 297.655642 313.1132 
L 297.833175 317.681201 
L 297.902216 317.847636 
L 297.956462 317.762352 
L 298.104406 316.984849 
L 298.553171 313.005368 
L 299.297823 307.123886 
L 299.894532 304.105641 
L 300.565213 301.84465 
L 301.235893 299.556717 
L 301.32466 298.360849 
L 301.339454 292.296765 
L 301.413426 89.353969 
L 301.497262 193.057529 
L 301.694521 312.688808 
L 301.872054 317.247861 
L 301.950957 317.446339 
L 302.000272 317.372814 
L 302.143285 316.669931 
L 302.557529 313.142927 
L 303.331771 307.111127 
L 303.928479 304.142209 
L 304.59916 301.923047 
L 305.304361 299.605603 
L 305.398059 298.356439 
L 305.412853 291.802922 
L 305.486825 90.182658 
L 305.565729 186.266699 
L 305.76792 312.196718 
L 305.950384 316.931403 
L 306.029288 317.13869 
L 306.083534 317.062339 
L 306.231478 316.340841 
L 306.660517 312.751313 
L 307.419964 306.992794 
L 307.617223 305.893311 
L 307.770099 314.544361 
L 308.085713 319.962202 
L 308.534477 324.089104 
L 309.017762 326.649743 
L 309.51091 328.157237 
L 309.999126 328.991975 
L 310.497205 329.43058 
L 311.04953 329.622604 
L 311.754731 329.61842 
L 312.923491 329.355505 
L 316.419907 328.497016 
L 317.480174 328.328613 
L 317.593598 327.360869 
L 317.993048 327.429089 
L 319.359067 327.654449 
L 321.400698 327.71059 
L 337.211009 327.650903 
L 337.368816 314.99376 
L 337.728814 304.909086 
L 338.157852 293.35056 
L 338.187441 215.190656 
L 338.226893 67.397769 
L 338.300865 176.926494 
L 338.498124 316.636211 
L 338.626342 318.924076 
L 338.651 318.877526 
L 338.754561 318.077688 
L 339.070175 313.388266 
L 340.086059 298.246663 
L 340.436194 292.221409 
L 340.475646 288.163749 
L 340.510166 169.623786 
L 340.544686 73.02843 
L 340.618658 180.840772 
L 340.815917 317.691048 
L 340.949067 320.027902 
L 340.973725 319.983006 
L 341.077286 319.210679 
L 341.383037 314.741069 
L 342.369332 300.172888 
L 342.936452 292.08016 
L 342.970972 288.874291 
L 343.005493 184.038123 
L 343.040013 78.331503 
L 343.113985 175.436127 
L 343.316176 315.852501 
L 343.46412 318.560567 
L 343.473983 318.552399 
L 343.543024 318.235839 
L 343.745214 315.946299 
L 345.313423 295.496121 
L 345.520545 291.720882 
L 345.550134 287.279698 
L 345.619175 82.140232 
L 345.712873 206.136289 
L 345.895337 314.31091 
L 346.058076 317.382403 
L 346.112322 317.227531 
L 346.27013 315.811374 
L 346.842181 307.754561 
L 347.576971 299.099744 
L 348.134227 292.412064 
L 348.178611 289.687946 
L 348.203268 234.249453 
L 348.257514 85.107382 
L 348.331486 181.918358 
L 348.528745 312.897334 
L 348.696416 316.447392 
L 348.721073 316.437674 
L 348.750662 316.353854 
L 348.883812 315.355247 
L 349.288193 310.099702 
L 350.106818 300.236765 
L 350.81695 292.149374 
L 350.856402 288.004711 
L 350.900785 131.33639 
L 350.930374 86.897033 
L 350.999415 172.501793 
L 351.206537 312.073093 
L 351.374207 315.711027 
L 351.398864 315.722595 
L 351.438316 315.629768 
L 351.576397 314.630078 
L 351.990641 309.445105 
L 352.804335 300.052093 
L 353.514467 292.267947 
L 353.553919 289.431806 
L 353.583508 216.014234 
L 353.627891 88.345315 
L 353.701864 174.383846 
L 353.908985 311.491267 
L 354.081587 315.259204 
L 354.106245 315.276689 
L 354.150628 315.178846 
L 354.288709 314.206475 
L 354.698022 309.228788 
L 355.521578 299.958125 
L 356.231711 292.401764 
L 356.276094 288.979176 
L 356.310614 190.524347 
L 356.350066 89.065068 
L 356.424038 175.697432 
L 356.63116 310.971152 
L 356.803762 314.852761 
L 356.833351 314.882733 
L 356.882665 314.77325 
L 357.025678 313.76341 
L 357.454717 308.630014 
L 358.263479 299.785835 
L 358.963748 292.450394 
L 359.008131 289.413741 
L 359.042652 195.775776 
L 359.082104 89.848511 
L 359.156076 173.895118 
L 359.363198 310.522693 
L 359.535799 314.617176 
L 359.57032 314.664862 
L 359.624566 314.544771 
L 359.77251 313.490552 
L 360.226206 308.0994 
L 361.020173 299.609194 
L 361.700717 292.618049 
L 361.750032 289.664241 
L 361.779621 217.801241 
L 361.828935 90.195037 
L 361.897976 172.74931 
L 362.105098 310.15316 
L 362.2777 314.407369 
L 362.317152 314.471055 
L 362.371398 314.354041 
L 362.519342 313.317974 
L 362.968106 308.05435 
L 363.767005 299.587251 
L 364.452481 292.54701 
L 364.501795 288.232575 
L 364.546179 135.914081 
L 364.575767 90.373001 
L 364.644808 170.354553 
L 364.85193 309.720378 
L 365.024532 314.171305 
L 365.068915 314.254423 
L 365.123161 314.141206 
L 365.271106 313.123899 
L 365.714938 307.989227 
L 366.518769 299.547435 
L 366.799863 297.152141 
L 366.952739 308.974814 
L 367.268353 316.581488 
L 367.712186 322.242113 
L 368.195471 325.774895 
L 368.683687 327.835247 
L 369.166971 328.992623 
L 369.650256 329.61348 
L 370.153267 329.909696 
L 370.735181 329.989208 
L 371.553806 329.856078 
L 373.551053 329.221793 
L 375.775149 328.641543 
L 376.662814 328.474621 
L 376.776238 327.360869 
L 377.175688 327.429089 
L 378.541707 327.654449 
L 380.583338 327.71059 
L 396.393649 327.650903 
L 396.551456 311.817452 
L 396.936111 297.929954 
L 397.088987 290.277245 
L 397.108713 248.226944 
L 397.158028 66.96 
L 397.236931 184.120288 
L 397.429259 314.231655 
L 397.527888 315.94791 
L 397.572271 315.785884 
L 397.715284 313.975866 
L 398.26761 302.977736 
L 398.923496 287.763406 
L 398.953085 281.609547 
L 399.017194 72.142396 
L 399.101029 195.706487 
L 399.288425 316.898946 
L 399.391986 318.592173 
L 399.431438 318.446524 
L 399.569519 316.757252 
L 400.028146 307.4742 
L 400.955264 285.673497 
L 400.97499 258.662771 
L 401.034167 77.653189 
L 401.10814 183.070562 
L 401.305399 315.098773 
L 401.418823 317.06068 
L 401.453343 316.957837 
L 401.57663 315.649224 
L 401.966216 308.392452 
L 402.996895 285.974499 
L 403.016621 270.991066 
L 403.075798 81.454315 
L 403.149771 175.462651 
L 403.351961 313.508684 
L 403.475248 315.828352 
L 403.504837 315.767723 
L 403.608398 314.865251 
L 403.919081 309.669346 
L 405.063183 286.309443 
L 405.082909 279.007947 
L 405.147018 84.195439 
L 405.22099 176.261238 
L 405.423181 312.163652 
L 405.556331 314.78052 
L 405.580988 314.744847 
L 405.674686 314.054897 
L 405.945917 309.929657 
L 407.144266 286.776614 
L 407.168923 278.996813 
L 407.233032 86.286082 
L 407.307005 174.861598 
L 407.509195 311.064975 
L 407.657139 314.009899 
L 407.671934 313.991412 
L 407.750837 313.522876 
L 407.977685 310.45908 
L 409.215486 288.460785 
L 409.2648 282.430345 
L 409.333841 87.55817 
L 409.432471 210.834164 
L 409.610004 310.366021 
L 409.762879 313.461359 
L 409.772742 313.454865 
L 409.836852 313.167213 
L 410.024248 310.975225 
L 411.158487 292.534105 
L 411.345883 287.392976 
L 411.375472 282.097962 
L 411.444513 88.438615 
L 411.538211 203.529326 
L 411.720675 309.823416 
L 411.878483 313.090653 
L 411.883414 313.089446 
L 411.93766 312.905638 
L 412.095467 311.298204 
L 412.623135 302.759689 
L 413.466418 287.309471 
L 413.496007 280.975081 
L 413.565047 88.947573 
L 413.648882 191.031562 
L 413.846141 309.756832 
L 414.003949 312.806238 
L 414.00888 312.804271 
L 414.063126 312.618527 
L 414.220934 311.035118 
L 414.748601 302.623764 
L 415.591884 287.351754 
L 415.621473 281.407471 
L 415.690513 89.389783 
L 415.774348 190.133994 
L 415.971607 309.409612 
L 416.134346 312.599341 
L 416.183661 312.464625 
L 416.326674 311.159093 
L 416.755712 304.534334 
L 417.727213 287.036091 
L 417.75187 281.791738 
L 417.820911 89.715135 
L 417.909677 196.056322 
L 418.102005 309.135979 
L 418.264744 312.436951 
L 418.269675 312.436684 
L 418.31899 312.297246 
L 418.462003 310.997968 
L 418.895973 304.347761 
L 419.862542 286.972545 
L 419.887199 281.021917 
L 419.95624 89.824431 
L 420.040075 190.294885 
L 420.237334 308.992812 
L 420.405004 312.308568 
L 420.454319 312.177763 
L 420.597332 310.902089 
L 421.021439 304.466144 
L 421.997871 287.124271 
L 422.02746 276.207608 
L 422.091569 90.162915 
L 422.165541 174.607161 
L 422.372663 308.722936 
L 422.540333 312.192967 
L 422.589648 312.080166 
L 422.722798 310.955155 
L 423.107453 305.254826 
L 424.138131 286.97673 
L 424.162789 280.948419 
L 424.231829 90.02258 
L 424.310733 183.592406 
L 424.512923 308.736627 
L 424.680594 312.136285 
L 424.729908 312.022378 
L 424.86799 310.844052 
L 425.267439 304.902527 
L 425.982503 294.082982 
L 426.135379 308.325816 
L 426.436199 316.469186 
L 426.860306 322.298708 
L 427.333727 325.970622 
L 427.817012 328.118811 
L 428.295365 329.317247 
L 428.768787 329.949 
L 429.257003 330.244514 
L 429.81426 330.318082 
L 430.588501 330.17567 
L 432.284929 329.569258 
L 434.49423 328.87691 
L 435.845455 328.579761 
L 435.845455 328.579761 
" style="fill:none;stroke:#ff0000;stroke-linecap:square;stroke-width:1.5;"/>
   </g>
   <g id="patch_3">
    <path d="M 63 384.48 
L 63 51.84 
" style="fill:none;stroke:#000000;stroke-linecap:square;stroke-linejoin:miter;stroke-width:0.8;"/>
   </g>
   <g id="patch_4">
    <path d="M 453.6 384.48 
L 453.6 51.84 
" style="fill:none;stroke:#000000;stroke-linecap:square;stroke-linejoin:miter;stroke-width:0.8;"/>
   </g>
   <g id="patch_5">
    <path d="M 63 384.48 
L 453.6 384.48 
" style="fill:none;stroke:#000000;stroke-linecap:square;stroke-linejoin:miter;stroke-width:0.8;"/>
   </g>
   <g id="patch_6">
    <path d="M 63 51.84 
L 453.6 51.84 
" style="fill:none;stroke:#000000;stroke-linecap:square;stroke-linejoin:miter;stroke-width:0.8;"/>
   </g>
   <g id="legend_1">
    <g id="patch_7">
     <path d="M 70 74.518125 
L 133.139062 74.518125 
Q 135.139062 74.518125 135.139062 72.518125 
L 135.139062 58.84 
Q 135.139062 56.84 133.139062 56.84 
L 70 56.84 
Q 68 56.84 68 58.84 
L 68 72.518125 
Q 68 74.518125 70 74.518125 
z
" style="fill:#ffffff;opacity:0.8;stroke:#cccccc;stroke-linejoin:miter;"/>
    </g>
    <g id="line2d_13">
     <path d="M 72 64.938438 
L 92 64.938438 
" style="fill:none;stroke:#ff0000;stroke-linecap:square;stroke-width:1.5;"/>
    </g>
    <g id="line2d_14"/>
    <g id="text_14">
     <!-- model -->
     <defs>
      <path d="M 45.40625 46.390625 
L 45.40625 75.984375 
L 54.390625 75.984375 
L 54.390625 0 
L 45.40625 0 
L 45.40625 8.203125 
Q 42.578125 3.328125 38.25 0.953125 
Q 33.9375 -1.421875 27.875 -1.421875 
Q 17.96875 -1.421875 11.734375 6.484375 
Q 5.515625 14.40625 5.515625 27.296875 
Q 5.515625 40.1875 11.734375 48.09375 
Q 17.96875 56 27.875 56 
Q 33.9375 56 38.25 53.625 
Q 42.578125 51.265625 45.40625 46.390625 
z
M 14.796875 27.296875 
Q 14.796875 17.390625 18.875 11.75 
Q 22.953125 6.109375 30.078125 6.109375 
Q 37.203125 6.109375 41.296875 11.75 
Q 45.40625 17.390625 45.40625 27.296875 
Q 45.40625 37.203125 41.296875 42.84375 
Q 37.203125 48.484375 30.078125 48.484375 
Q 22.953125 48.484375 18.875 42.84375 
Q 14.796875 37.203125 14.796875 27.296875 
z
" id="DejaVuSans-100"/>
     </defs>
     <g transform="translate(100 68.438438)scale(0.1 -0.1)">
      <use xlink:href="#DejaVuSans-109"/>
      <use x="97.412109" xlink:href="#DejaVuSans-111"/>
      <use x="158.59375" xlink:href="#DejaVuSans-100"/>
      <use x="222.070312" xlink:href="#DejaVuSans-101"/>
      <use x="283.59375" xlink:href="#DejaVuSans-108"/>
     </g>
    </g>
   </g>
  </g>
 </g>
 <defs>
  <clipPath id="paad2f1cac7">
   <rect height="332.64" width="390.6" x="63" y="51.84"/>
  </clipPath>
 </defs>
</svg>
