<?xml version="1.0" encoding="utf-8" standalone="no"?>
<!DOCTYPE svg PUBLIC "-//W3C//DTD SVG 1.1//EN"
  "http://www.w3.org/Graphics/SVG/1.1/DTD/svg11.dtd">
<!-- Created with matplotlib (https://matplotlib.org/) -->
<svg height="432pt" version="1.1" viewBox="0 0 504 432" width="504pt" xmlns="http://www.w3.org/2000/svg" xmlns:xlink="http://www.w3.org/1999/xlink">
 <defs>
  <style type="text/css">
*{stroke-linecap:butt;stroke-linejoin:round;}
  </style>
 </defs>
 <g id="figure_1">
  <g id="patch_1">
   <path d="M 0 432 
L 504 432 
L 504 0 
L 0 0 
z
" style="fill:#ffffff;"/>
  </g>
  <g id="axes_1">
   <g id="patch_2">
    <path d="M 63 384.48 
L 453.6 384.48 
L 453.6 51.84 
L 63 51.84 
z
" style="fill:#ffffff;"/>
   </g>
   <g id="matplotlib.axis_1">
    <g id="xtick_1">
     <g id="line2d_1">
      <defs>
       <path d="M 0 0 
L 0 3.5 
" id="md4577a5043" style="stroke:#000000;stroke-width:0.8;"/>
      </defs>
      <g>
       <use style="stroke:#000000;stroke-width:0.8;" x="80.754545" xlink:href="#md4577a5043" y="384.48"/>
      </g>
     </g>
     <g id="text_1">
      <!-- 0 -->
      <defs>
       <path d="M 31.78125 66.40625 
Q 24.171875 66.40625 20.328125 58.90625 
Q 16.5 51.421875 16.5 36.375 
Q 16.5 21.390625 20.328125 13.890625 
Q 24.171875 6.390625 31.78125 6.390625 
Q 39.453125 6.390625 43.28125 13.890625 
Q 47.125 21.390625 47.125 36.375 
Q 47.125 51.421875 43.28125 58.90625 
Q 39.453125 66.40625 31.78125 66.40625 
z
M 31.78125 74.21875 
Q 44.046875 74.21875 50.515625 64.515625 
Q 56.984375 54.828125 56.984375 36.375 
Q 56.984375 17.96875 50.515625 8.265625 
Q 44.046875 -1.421875 31.78125 -1.421875 
Q 19.53125 -1.421875 13.0625 8.265625 
Q 6.59375 17.96875 6.59375 36.375 
Q 6.59375 54.828125 13.0625 64.515625 
Q 19.53125 74.21875 31.78125 74.21875 
z
" id="DejaVuSans-48"/>
      </defs>
      <g transform="translate(77.573295 399.078438)scale(0.1 -0.1)">
       <use xlink:href="#DejaVuSans-48"/>
      </g>
     </g>
    </g>
    <g id="xtick_2">
     <g id="line2d_2">
      <g>
       <use style="stroke:#000000;stroke-width:0.8;" x="151.772727" xlink:href="#md4577a5043" y="384.48"/>
      </g>
     </g>
     <g id="text_2">
      <!-- 200 -->
      <defs>
       <path d="M 19.1875 8.296875 
L 53.609375 8.296875 
L 53.609375 0 
L 7.328125 0 
L 7.328125 8.296875 
Q 12.9375 14.109375 22.625 23.890625 
Q 32.328125 33.6875 34.8125 36.53125 
Q 39.546875 41.84375 41.421875 45.53125 
Q 43.3125 49.21875 43.3125 52.78125 
Q 43.3125 58.59375 39.234375 62.25 
Q 35.15625 65.921875 28.609375 65.921875 
Q 23.96875 65.921875 18.8125 64.3125 
Q 13.671875 62.703125 7.8125 59.421875 
L 7.8125 69.390625 
Q 13.765625 71.78125 18.9375 73 
Q 24.125 74.21875 28.421875 74.21875 
Q 39.75 74.21875 46.484375 68.546875 
Q 53.21875 62.890625 53.21875 53.421875 
Q 53.21875 48.921875 51.53125 44.890625 
Q 49.859375 40.875 45.40625 35.40625 
Q 44.1875 33.984375 37.640625 27.21875 
Q 31.109375 20.453125 19.1875 8.296875 
z
" id="DejaVuSans-50"/>
      </defs>
      <g transform="translate(142.228977 399.078438)scale(0.1 -0.1)">
       <use xlink:href="#DejaVuSans-50"/>
       <use x="63.623047" xlink:href="#DejaVuSans-48"/>
       <use x="127.246094" xlink:href="#DejaVuSans-48"/>
      </g>
     </g>
    </g>
    <g id="xtick_3">
     <g id="line2d_3">
      <g>
       <use style="stroke:#000000;stroke-width:0.8;" x="222.790909" xlink:href="#md4577a5043" y="384.48"/>
      </g>
     </g>
     <g id="text_3">
      <!-- 400 -->
      <defs>
       <path d="M 37.796875 64.3125 
L 12.890625 25.390625 
L 37.796875 25.390625 
z
M 35.203125 72.90625 
L 47.609375 72.90625 
L 47.609375 25.390625 
L 58.015625 25.390625 
L 58.015625 17.1875 
L 47.609375 17.1875 
L 47.609375 0 
L 37.796875 0 
L 37.796875 17.1875 
L 4.890625 17.1875 
L 4.890625 26.703125 
z
" id="DejaVuSans-52"/>
      </defs>
      <g transform="translate(213.247159 399.078438)scale(0.1 -0.1)">
       <use xlink:href="#DejaVuSans-52"/>
       <use x="63.623047" xlink:href="#DejaVuSans-48"/>
       <use x="127.246094" xlink:href="#DejaVuSans-48"/>
      </g>
     </g>
    </g>
    <g id="xtick_4">
     <g id="line2d_4">
      <g>
       <use style="stroke:#000000;stroke-width:0.8;" x="293.809091" xlink:href="#md4577a5043" y="384.48"/>
      </g>
     </g>
     <g id="text_4">
      <!-- 600 -->
      <defs>
       <path d="M 33.015625 40.375 
Q 26.375 40.375 22.484375 35.828125 
Q 18.609375 31.296875 18.609375 23.390625 
Q 18.609375 15.53125 22.484375 10.953125 
Q 26.375 6.390625 33.015625 6.390625 
Q 39.65625 6.390625 43.53125 10.953125 
Q 47.40625 15.53125 47.40625 23.390625 
Q 47.40625 31.296875 43.53125 35.828125 
Q 39.65625 40.375 33.015625 40.375 
z
M 52.59375 71.296875 
L 52.59375 62.3125 
Q 48.875 64.0625 45.09375 64.984375 
Q 41.3125 65.921875 37.59375 65.921875 
Q 27.828125 65.921875 22.671875 59.328125 
Q 17.53125 52.734375 16.796875 39.40625 
Q 19.671875 43.65625 24.015625 45.921875 
Q 28.375 48.1875 33.59375 48.1875 
Q 44.578125 48.1875 50.953125 41.515625 
Q 57.328125 34.859375 57.328125 23.390625 
Q 57.328125 12.15625 50.6875 5.359375 
Q 44.046875 -1.421875 33.015625 -1.421875 
Q 20.359375 -1.421875 13.671875 8.265625 
Q 6.984375 17.96875 6.984375 36.375 
Q 6.984375 53.65625 15.1875 63.9375 
Q 23.390625 74.21875 37.203125 74.21875 
Q 40.921875 74.21875 44.703125 73.484375 
Q 48.484375 72.75 52.59375 71.296875 
z
" id="DejaVuSans-54"/>
      </defs>
      <g transform="translate(284.265341 399.078438)scale(0.1 -0.1)">
       <use xlink:href="#DejaVuSans-54"/>
       <use x="63.623047" xlink:href="#DejaVuSans-48"/>
       <use x="127.246094" xlink:href="#DejaVuSans-48"/>
      </g>
     </g>
    </g>
    <g id="xtick_5">
     <g id="line2d_5">
      <g>
       <use style="stroke:#000000;stroke-width:0.8;" x="364.827273" xlink:href="#md4577a5043" y="384.48"/>
      </g>
     </g>
     <g id="text_5">
      <!-- 800 -->
      <defs>
       <path d="M 31.78125 34.625 
Q 24.75 34.625 20.71875 30.859375 
Q 16.703125 27.09375 16.703125 20.515625 
Q 16.703125 13.921875 20.71875 10.15625 
Q 24.75 6.390625 31.78125 6.390625 
Q 38.8125 6.390625 42.859375 10.171875 
Q 46.921875 13.96875 46.921875 20.515625 
Q 46.921875 27.09375 42.890625 30.859375 
Q 38.875 34.625 31.78125 34.625 
z
M 21.921875 38.8125 
Q 15.578125 40.375 12.03125 44.71875 
Q 8.5 49.078125 8.5 55.328125 
Q 8.5 64.0625 14.71875 69.140625 
Q 20.953125 74.21875 31.78125 74.21875 
Q 42.671875 74.21875 48.875 69.140625 
Q 55.078125 64.0625 55.078125 55.328125 
Q 55.078125 49.078125 51.53125 44.71875 
Q 48 40.375 41.703125 38.8125 
Q 48.828125 37.15625 52.796875 32.3125 
Q 56.78125 27.484375 56.78125 20.515625 
Q 56.78125 9.90625 50.3125 4.234375 
Q 43.84375 -1.421875 31.78125 -1.421875 
Q 19.734375 -1.421875 13.25 4.234375 
Q 6.78125 9.90625 6.78125 20.515625 
Q 6.78125 27.484375 10.78125 32.3125 
Q 14.796875 37.15625 21.921875 38.8125 
z
M 18.3125 54.390625 
Q 18.3125 48.734375 21.84375 45.5625 
Q 25.390625 42.390625 31.78125 42.390625 
Q 38.140625 42.390625 41.71875 45.5625 
Q 45.3125 48.734375 45.3125 54.390625 
Q 45.3125 60.0625 41.71875 63.234375 
Q 38.140625 66.40625 31.78125 66.40625 
Q 25.390625 66.40625 21.84375 63.234375 
Q 18.3125 60.0625 18.3125 54.390625 
z
" id="DejaVuSans-56"/>
      </defs>
      <g transform="translate(355.283523 399.078438)scale(0.1 -0.1)">
       <use xlink:href="#DejaVuSans-56"/>
       <use x="63.623047" xlink:href="#DejaVuSans-48"/>
       <use x="127.246094" xlink:href="#DejaVuSans-48"/>
      </g>
     </g>
    </g>
    <g id="text_6">
     <!-- time [ms] -->
     <defs>
      <path d="M 18.3125 70.21875 
L 18.3125 54.6875 
L 36.8125 54.6875 
L 36.8125 47.703125 
L 18.3125 47.703125 
L 18.3125 18.015625 
Q 18.3125 11.328125 20.140625 9.421875 
Q 21.96875 7.515625 27.59375 7.515625 
L 36.8125 7.515625 
L 36.8125 0 
L 27.59375 0 
Q 17.1875 0 13.234375 3.875 
Q 9.28125 7.765625 9.28125 18.015625 
L 9.28125 47.703125 
L 2.6875 47.703125 
L 2.6875 54.6875 
L 9.28125 54.6875 
L 9.28125 70.21875 
z
" id="DejaVuSans-116"/>
      <path d="M 9.421875 54.6875 
L 18.40625 54.6875 
L 18.40625 0 
L 9.421875 0 
z
M 9.421875 75.984375 
L 18.40625 75.984375 
L 18.40625 64.59375 
L 9.421875 64.59375 
z
" id="DejaVuSans-105"/>
      <path d="M 52 44.1875 
Q 55.375 50.25 60.0625 53.125 
Q 64.75 56 71.09375 56 
Q 79.640625 56 84.28125 50.015625 
Q 88.921875 44.046875 88.921875 33.015625 
L 88.921875 0 
L 79.890625 0 
L 79.890625 32.71875 
Q 79.890625 40.578125 77.09375 44.375 
Q 74.3125 48.1875 68.609375 48.1875 
Q 61.625 48.1875 57.5625 43.546875 
Q 53.515625 38.921875 53.515625 30.90625 
L 53.515625 0 
L 44.484375 0 
L 44.484375 32.71875 
Q 44.484375 40.625 41.703125 44.40625 
Q 38.921875 48.1875 33.109375 48.1875 
Q 26.21875 48.1875 22.15625 43.53125 
Q 18.109375 38.875 18.109375 30.90625 
L 18.109375 0 
L 9.078125 0 
L 9.078125 54.6875 
L 18.109375 54.6875 
L 18.109375 46.1875 
Q 21.1875 51.21875 25.484375 53.609375 
Q 29.78125 56 35.6875 56 
Q 41.65625 56 45.828125 52.96875 
Q 50 49.953125 52 44.1875 
z
" id="DejaVuSans-109"/>
      <path d="M 56.203125 29.59375 
L 56.203125 25.203125 
L 14.890625 25.203125 
Q 15.484375 15.921875 20.484375 11.0625 
Q 25.484375 6.203125 34.421875 6.203125 
Q 39.59375 6.203125 44.453125 7.46875 
Q 49.3125 8.734375 54.109375 11.28125 
L 54.109375 2.78125 
Q 49.265625 0.734375 44.1875 -0.34375 
Q 39.109375 -1.421875 33.890625 -1.421875 
Q 20.796875 -1.421875 13.15625 6.1875 
Q 5.515625 13.8125 5.515625 26.8125 
Q 5.515625 40.234375 12.765625 48.109375 
Q 20.015625 56 32.328125 56 
Q 43.359375 56 49.78125 48.890625 
Q 56.203125 41.796875 56.203125 29.59375 
z
M 47.21875 32.234375 
Q 47.125 39.59375 43.09375 43.984375 
Q 39.0625 48.390625 32.421875 48.390625 
Q 24.90625 48.390625 20.390625 44.140625 
Q 15.875 39.890625 15.1875 32.171875 
z
" id="DejaVuSans-101"/>
      <path id="DejaVuSans-32"/>
      <path d="M 8.59375 75.984375 
L 29.296875 75.984375 
L 29.296875 69 
L 17.578125 69 
L 17.578125 -6.203125 
L 29.296875 -6.203125 
L 29.296875 -13.1875 
L 8.59375 -13.1875 
z
" id="DejaVuSans-91"/>
      <path d="M 44.28125 53.078125 
L 44.28125 44.578125 
Q 40.484375 46.53125 36.375 47.5 
Q 32.28125 48.484375 27.875 48.484375 
Q 21.1875 48.484375 17.84375 46.4375 
Q 14.5 44.390625 14.5 40.28125 
Q 14.5 37.15625 16.890625 35.375 
Q 19.28125 33.59375 26.515625 31.984375 
L 29.59375 31.296875 
Q 39.15625 29.25 43.1875 25.515625 
Q 47.21875 21.78125 47.21875 15.09375 
Q 47.21875 7.46875 41.1875 3.015625 
Q 35.15625 -1.421875 24.609375 -1.421875 
Q 20.21875 -1.421875 15.453125 -0.5625 
Q 10.6875 0.296875 5.421875 2 
L 5.421875 11.28125 
Q 10.40625 8.6875 15.234375 7.390625 
Q 20.0625 6.109375 24.8125 6.109375 
Q 31.15625 6.109375 34.5625 8.28125 
Q 37.984375 10.453125 37.984375 14.40625 
Q 37.984375 18.0625 35.515625 20.015625 
Q 33.0625 21.96875 24.703125 23.78125 
L 21.578125 24.515625 
Q 13.234375 26.265625 9.515625 29.90625 
Q 5.8125 33.546875 5.8125 39.890625 
Q 5.8125 47.609375 11.28125 51.796875 
Q 16.75 56 26.8125 56 
Q 31.78125 56 36.171875 55.265625 
Q 40.578125 54.546875 44.28125 53.078125 
z
" id="DejaVuSans-115"/>
      <path d="M 30.421875 75.984375 
L 30.421875 -13.1875 
L 9.71875 -13.1875 
L 9.71875 -6.203125 
L 21.390625 -6.203125 
L 21.390625 69 
L 9.71875 69 
L 9.71875 75.984375 
z
" id="DejaVuSans-93"/>
     </defs>
     <g transform="translate(234.038281 412.756563)scale(0.1 -0.1)">
      <use xlink:href="#DejaVuSans-116"/>
      <use x="39.208984" xlink:href="#DejaVuSans-105"/>
      <use x="66.992188" xlink:href="#DejaVuSans-109"/>
      <use x="164.404297" xlink:href="#DejaVuSans-101"/>
      <use x="225.927734" xlink:href="#DejaVuSans-32"/>
      <use x="257.714844" xlink:href="#DejaVuSans-91"/>
      <use x="296.728516" xlink:href="#DejaVuSans-109"/>
      <use x="394.140625" xlink:href="#DejaVuSans-115"/>
      <use x="446.240234" xlink:href="#DejaVuSans-93"/>
     </g>
    </g>
   </g>
   <g id="matplotlib.axis_2">
    <g id="ytick_1">
     <g id="line2d_6">
      <defs>
       <path d="M 0 0 
L -3.5 0 
" id="m471e39fe13" style="stroke:#000000;stroke-width:0.8;"/>
      </defs>
      <g>
       <use style="stroke:#000000;stroke-width:0.8;" x="63" xlink:href="#m471e39fe13" y="348.483197"/>
      </g>
     </g>
     <g id="text_7">
      <!-- −60 -->
      <defs>
       <path d="M 10.59375 35.5 
L 73.1875 35.5 
L 73.1875 27.203125 
L 10.59375 27.203125 
z
" id="DejaVuSans-8722"/>
      </defs>
      <g transform="translate(34.895313 352.282416)scale(0.1 -0.1)">
       <use xlink:href="#DejaVuSans-8722"/>
       <use x="83.789062" xlink:href="#DejaVuSans-54"/>
       <use x="147.412109" xlink:href="#DejaVuSans-48"/>
      </g>
     </g>
    </g>
    <g id="ytick_2">
     <g id="line2d_7">
      <g>
       <use style="stroke:#000000;stroke-width:0.8;" x="63" xlink:href="#m471e39fe13" y="281.279374"/>
      </g>
     </g>
     <g id="text_8">
      <!-- −40 -->
      <g transform="translate(34.895313 285.078593)scale(0.1 -0.1)">
       <use xlink:href="#DejaVuSans-8722"/>
       <use x="83.789062" xlink:href="#DejaVuSans-52"/>
       <use x="147.412109" xlink:href="#DejaVuSans-48"/>
      </g>
     </g>
    </g>
    <g id="ytick_3">
     <g id="line2d_8">
      <g>
       <use style="stroke:#000000;stroke-width:0.8;" x="63" xlink:href="#m471e39fe13" y="214.075551"/>
      </g>
     </g>
     <g id="text_9">
      <!-- −20 -->
      <g transform="translate(34.895313 217.87477)scale(0.1 -0.1)">
       <use xlink:href="#DejaVuSans-8722"/>
       <use x="83.789062" xlink:href="#DejaVuSans-50"/>
       <use x="147.412109" xlink:href="#DejaVuSans-48"/>
      </g>
     </g>
    </g>
    <g id="ytick_4">
     <g id="line2d_9">
      <g>
       <use style="stroke:#000000;stroke-width:0.8;" x="63" xlink:href="#m471e39fe13" y="146.871728"/>
      </g>
     </g>
     <g id="text_10">
      <!-- 0 -->
      <g transform="translate(49.6375 150.670947)scale(0.1 -0.1)">
       <use xlink:href="#DejaVuSans-48"/>
      </g>
     </g>
    </g>
    <g id="ytick_5">
     <g id="line2d_10">
      <g>
       <use style="stroke:#000000;stroke-width:0.8;" x="63" xlink:href="#m471e39fe13" y="79.667905"/>
      </g>
     </g>
     <g id="text_11">
      <!-- 20 -->
      <g transform="translate(43.275 83.467124)scale(0.1 -0.1)">
       <use xlink:href="#DejaVuSans-50"/>
       <use x="63.623047" xlink:href="#DejaVuSans-48"/>
      </g>
     </g>
    </g>
    <g id="text_12">
     <!-- voltage [V] -->
     <defs>
      <path d="M 2.984375 54.6875 
L 12.5 54.6875 
L 29.59375 8.796875 
L 46.6875 54.6875 
L 56.203125 54.6875 
L 35.6875 0 
L 23.484375 0 
z
" id="DejaVuSans-118"/>
      <path d="M 30.609375 48.390625 
Q 23.390625 48.390625 19.1875 42.75 
Q 14.984375 37.109375 14.984375 27.296875 
Q 14.984375 17.484375 19.15625 11.84375 
Q 23.34375 6.203125 30.609375 6.203125 
Q 37.796875 6.203125 41.984375 11.859375 
Q 46.1875 17.53125 46.1875 27.296875 
Q 46.1875 37.015625 41.984375 42.703125 
Q 37.796875 48.390625 30.609375 48.390625 
z
M 30.609375 56 
Q 42.328125 56 49.015625 48.375 
Q 55.71875 40.765625 55.71875 27.296875 
Q 55.71875 13.875 49.015625 6.21875 
Q 42.328125 -1.421875 30.609375 -1.421875 
Q 18.84375 -1.421875 12.171875 6.21875 
Q 5.515625 13.875 5.515625 27.296875 
Q 5.515625 40.765625 12.171875 48.375 
Q 18.84375 56 30.609375 56 
z
" id="DejaVuSans-111"/>
      <path d="M 9.421875 75.984375 
L 18.40625 75.984375 
L 18.40625 0 
L 9.421875 0 
z
" id="DejaVuSans-108"/>
      <path d="M 34.28125 27.484375 
Q 23.390625 27.484375 19.1875 25 
Q 14.984375 22.515625 14.984375 16.5 
Q 14.984375 11.71875 18.140625 8.90625 
Q 21.296875 6.109375 26.703125 6.109375 
Q 34.1875 6.109375 38.703125 11.40625 
Q 43.21875 16.703125 43.21875 25.484375 
L 43.21875 27.484375 
z
M 52.203125 31.203125 
L 52.203125 0 
L 43.21875 0 
L 43.21875 8.296875 
Q 40.140625 3.328125 35.546875 0.953125 
Q 30.953125 -1.421875 24.3125 -1.421875 
Q 15.921875 -1.421875 10.953125 3.296875 
Q 6 8.015625 6 15.921875 
Q 6 25.140625 12.171875 29.828125 
Q 18.359375 34.515625 30.609375 34.515625 
L 43.21875 34.515625 
L 43.21875 35.40625 
Q 43.21875 41.609375 39.140625 45 
Q 35.0625 48.390625 27.6875 48.390625 
Q 23 48.390625 18.546875 47.265625 
Q 14.109375 46.140625 10.015625 43.890625 
L 10.015625 52.203125 
Q 14.9375 54.109375 19.578125 55.046875 
Q 24.21875 56 28.609375 56 
Q 40.484375 56 46.34375 49.84375 
Q 52.203125 43.703125 52.203125 31.203125 
z
" id="DejaVuSans-97"/>
      <path d="M 45.40625 27.984375 
Q 45.40625 37.75 41.375 43.109375 
Q 37.359375 48.484375 30.078125 48.484375 
Q 22.859375 48.484375 18.828125 43.109375 
Q 14.796875 37.75 14.796875 27.984375 
Q 14.796875 18.265625 18.828125 12.890625 
Q 22.859375 7.515625 30.078125 7.515625 
Q 37.359375 7.515625 41.375 12.890625 
Q 45.40625 18.265625 45.40625 27.984375 
z
M 54.390625 6.78125 
Q 54.390625 -7.171875 48.1875 -13.984375 
Q 42 -20.796875 29.203125 -20.796875 
Q 24.46875 -20.796875 20.265625 -20.09375 
Q 16.0625 -19.390625 12.109375 -17.921875 
L 12.109375 -9.1875 
Q 16.0625 -11.328125 19.921875 -12.34375 
Q 23.78125 -13.375 27.78125 -13.375 
Q 36.625 -13.375 41.015625 -8.765625 
Q 45.40625 -4.15625 45.40625 5.171875 
L 45.40625 9.625 
Q 42.625 4.78125 38.28125 2.390625 
Q 33.9375 0 27.875 0 
Q 17.828125 0 11.671875 7.65625 
Q 5.515625 15.328125 5.515625 27.984375 
Q 5.515625 40.671875 11.671875 48.328125 
Q 17.828125 56 27.875 56 
Q 33.9375 56 38.28125 53.609375 
Q 42.625 51.21875 45.40625 46.390625 
L 45.40625 54.6875 
L 54.390625 54.6875 
z
" id="DejaVuSans-103"/>
      <path d="M 28.609375 0 
L 0.78125 72.90625 
L 11.078125 72.90625 
L 34.1875 11.53125 
L 57.328125 72.90625 
L 67.578125 72.90625 
L 39.796875 0 
z
" id="DejaVuSans-86"/>
     </defs>
     <g transform="translate(28.815625 245.75375)rotate(-90)scale(0.1 -0.1)">
      <use xlink:href="#DejaVuSans-118"/>
      <use x="59.179688" xlink:href="#DejaVuSans-111"/>
      <use x="120.361328" xlink:href="#DejaVuSans-108"/>
      <use x="148.144531" xlink:href="#DejaVuSans-116"/>
      <use x="187.353516" xlink:href="#DejaVuSans-97"/>
      <use x="248.632812" xlink:href="#DejaVuSans-103"/>
      <use x="312.109375" xlink:href="#DejaVuSans-101"/>
      <use x="373.632812" xlink:href="#DejaVuSans-32"/>
      <use x="405.419922" xlink:href="#DejaVuSans-91"/>
      <use x="444.433594" xlink:href="#DejaVuSans-86"/>
      <use x="512.841797" xlink:href="#DejaVuSans-93"/>
     </g>
    </g>
   </g>
   <g id="line2d_11">
    <path clip-path="url(#p3877340807)" d="M 80.754545 365.284145 
L 81.695536 365.29614 
L 85.708064 365.714993 
L 98.526845 367.04049 
L 108.611427 367.83912 
L 119.4417 368.469522 
L 131.532545 368.946072 
L 145.700673 369.275172 
L 151.772727 369.36 
L 151.8615 367.335051 
L 152.234345 359.084021 
L 152.731473 353.308915 
L 153.565936 346.485879 
L 154.9863 336.871648 
L 156.726245 326.628856 
L 158.412927 317.968228 
L 160.028591 310.7938 
L 161.590991 304.859667 
L 163.153391 299.804762 
L 164.840073 295.120312 
L 167.236936 289.204499 
L 168.941373 284.764524 
L 169.793591 281.93521 
L 170.361736 279.297324 
L 170.752336 276.439289 
L 171.036409 272.33381 
L 171.1962 265.095754 
L 171.249464 257.048833 
L 171.622309 69.305013 
L 171.675573 66.96 
L 171.746591 67.201473 
L 171.906382 80.054175 
L 172.190455 132.832176 
L 172.847373 251.330041 
L 173.220218 285.898433 
L 173.5398 298.295714 
L 173.912645 304.760373 
L 174.303245 308.142832 
L 174.782618 310.357758 
L 175.226482 311.473599 
L 175.6881 312.066812 
L 176.096455 312.260834 
L 176.522564 312.217041 
L 177.019691 311.92351 
L 177.676609 311.23772 
L 178.511073 310.027249 
L 179.771645 307.771455 
L 182.807673 301.707469 
L 185.470855 296.680004 
L 188.134036 292.1551 
L 192.199827 285.306722 
L 193.336118 282.871968 
L 194.117318 280.6573 
L 194.685464 278.319753 
L 195.093818 275.5215 
L 195.324627 272.558853 
L 195.502173 266.59808 
L 195.573191 257.350183 
L 195.626455 229.822692 
L 195.839509 97.828605 
L 196.017055 89.184009 
L 196.034809 89.142417 
L 196.176845 92.887723 
L 196.407655 109.991361 
L 196.744991 158.875486 
L 197.437418 256.622083 
L 197.810264 281.395009 
L 198.200864 293.136192 
L 198.591464 298.78121 
L 199.070836 302.483719 
L 199.550209 304.655627 
L 200.082845 306.152184 
L 200.650991 307.097887 
L 201.219136 307.591413 
L 201.769527 307.758087 
L 202.302164 307.701068 
L 202.976836 307.397212 
L 203.793545 306.7784 
L 204.947591 305.597082 
L 206.705291 303.434051 
L 214.1622 293.954287 
L 220.695873 286.068872 
L 222.080727 283.941448 
L 223.039473 282.076256 
L 223.767409 280.169723 
L 224.300045 278.136698 
L 224.690645 275.70916 
L 224.956964 272.568218 
L 225.134509 267.226061 
L 225.223282 258.269852 
L 225.578373 94.387048 
L 225.596127 94.266872 
L 225.649391 94.446018 
L 225.809182 99.933471 
L 226.111009 121.789581 
L 226.483855 168.516351 
L 227.211791 256.927687 
L 227.620145 278.947424 
L 227.992991 288.995407 
L 228.436855 295.164033 
L 228.933982 298.975094 
L 229.502127 301.589197 
L 230.105782 303.330485 
L 230.691682 304.403085 
L 231.313091 305.086943 
L 231.898991 305.421759 
L 232.538155 305.530443 
L 233.266091 305.410606 
L 234.136064 305.020601 
L 235.236845 304.264121 
L 236.781491 302.902933 
L 239.302636 300.346305 
L 247.398709 292.024948 
L 251.428991 287.818749 
L 253.310973 285.539765 
L 254.607055 283.633084 
L 255.548045 281.866745 
L 256.258227 280.064567 
L 256.790864 278.092693 
L 257.181464 275.755212 
L 257.447782 272.749561 
L 257.607573 268.79644 
L 257.696345 262.278406 
L 257.767364 239.073756 
L 257.998173 100.239674 
L 258.122455 94.960464 
L 258.157964 95.570189 
L 258.264491 99.054177 
L 258.566318 119.492156 
L 258.956918 163.939574 
L 259.755873 256.758865 
L 260.181982 278.722857 
L 260.590336 288.878168 
L 261.016445 294.273507 
L 261.495818 297.698738 
L 262.028455 300.044506 
L 262.649864 301.795438 
L 263.271273 302.915724 
L 263.892682 303.612621 
L 264.531845 304.008715 
L 265.206518 304.163467 
L 265.952209 304.098658 
L 266.839936 303.785691 
L 267.940718 303.149671 
L 269.449855 301.997928 
L 271.722436 299.956366 
L 281.167855 290.932963 
L 284.434691 287.618719 
L 286.281164 285.441155 
L 287.577245 283.580041 
L 288.518236 281.854453 
L 289.246173 280.046392 
L 289.778809 278.113874 
L 290.151655 275.972091 
L 290.435727 272.98368 
L 290.631027 267.841381 
L 290.7198 259.426136 
L 290.844082 161.905937 
L 291.003873 99.377198 
L 291.128155 95.254282 
L 291.163664 95.784849 
L 291.341209 103.250398 
L 291.643036 126.953539 
L 292.175673 193.002219 
L 292.761573 256.248971 
L 293.152173 276.838059 
L 293.560527 287.786197 
L 294.004391 293.737303 
L 294.483764 297.295002 
L 295.051909 299.833244 
L 295.673318 301.582155 
L 296.276973 302.679193 
L 296.916136 303.406777 
L 297.5553 303.811047 
L 298.247727 303.978012 
L 299.028927 303.914117 
L 299.952164 303.589494 
L 301.123964 302.910628 
L 302.668609 301.734837 
L 305.136491 299.535112 
L 315.434127 289.806346 
L 318.150573 286.985992 
L 319.837255 284.923661 
L 321.062318 283.069717 
L 321.950045 281.317381 
L 322.589209 279.585367 
L 323.068582 277.681044 
L 323.423673 275.39929 
L 323.672236 272.447728 
L 323.849782 266.899917 
L 323.938555 256.008355 
L 323.974064 235.397249 
L 324.204873 100.626495 
L 324.3114 95.035819 
L 324.346909 95.515679 
L 324.453436 98.539057 
L 324.755264 118.654399 
L 325.163618 164.3773 
L 325.962573 256.06904 
L 326.388682 278.118772 
L 326.797036 288.502882 
L 327.2409 294.176593 
L 327.738027 297.681617 
L 328.306173 300.086359 
L 328.927582 301.746628 
L 329.5845 302.854424 
L 330.223664 303.505599 
L 330.880582 303.858784 
L 331.555255 303.973252 
L 332.354209 303.865967 
L 333.2952 303.495892 
L 334.484755 302.771474 
L 336.118173 301.494122 
L 338.834618 299.040866 
L 350.179773 288.263718 
L 352.274809 285.934857 
L 353.677418 284.061111 
L 354.707182 282.33265 
L 355.488382 280.592929 
L 356.074282 278.740444 
L 356.518145 276.545847 
L 356.819973 273.903468 
L 357.015273 270.327961 
L 357.139555 263.900511 
L 357.210573 244.793395 
L 357.476891 98.052087 
L 357.565664 95.19997 
L 357.618927 95.78589 
L 357.778718 102.343743 
L 358.116055 129.021009 
L 358.648691 195.659151 
L 359.216836 256.499208 
L 359.625191 277.848022 
L 360.033545 288.469572 
L 360.459655 294.077767 
L 360.939027 297.579984 
L 361.453909 299.875024 
L 362.057564 301.594879 
L 362.678973 302.729017 
L 363.318136 303.449947 
L 363.975055 303.854126 
L 364.649727 304.006903 
L 364.862782 304.011028 
L 364.969309 306.222372 
L 365.306645 313.529595 
L 365.786018 318.6824 
L 366.460691 323.330612 
L 367.348418 327.892456 
L 368.395936 332.127211 
L 369.532227 335.840245 
L 370.775045 339.183824 
L 372.1599 342.278182 
L 373.633527 345.03372 
L 375.213682 347.526424 
L 376.900364 349.78365 
L 378.729082 351.866802 
L 380.735345 353.812779 
L 382.9014 355.602291 
L 385.262755 357.264736 
L 387.890427 358.838127 
L 390.819927 360.324344 
L 394.051255 361.709016 
L 397.655427 363.008549 
L 401.685709 364.223585 
L 406.230873 365.358145 
L 411.326427 366.396566 
L 417.043391 367.329007 
L 423.381764 368.133845 
L 430.465827 368.80657 
L 435.8277 369.187003 
L 435.8277 369.187003 
" style="fill:none;stroke:#1f77b4;stroke-linecap:square;stroke-width:1.5;"/>
   </g>
   <g id="line2d_12">
    <path clip-path="url(#p3877340807)" d="M 80.754545 365.284153 
L 80.949845 364.451024 
L 81.3582 363.724145 
L 82.032873 363.006835 
L 83.133655 362.187636 
L 84.696055 361.309356 
L 86.613545 360.490173 
L 88.815109 359.795524 
L 91.300745 359.248852 
L 94.123718 358.861162 
L 97.390555 358.642963 
L 101.385327 358.608327 
L 106.889236 358.801254 
L 130.485027 359.860615 
L 141.7059 359.987478 
L 151.772727 359.98791 
L 151.985782 349.813337 
L 152.411891 340.606364 
L 153.068809 331.254659 
L 153.974291 321.526891 
L 154.968545 313.147977 
L 155.9628 306.596781 
L 156.957055 301.486994 
L 157.986818 297.321115 
L 159.123109 293.641733 
L 160.419191 290.197742 
L 162.123627 286.333783 
L 164.609264 280.718052 
L 165.408218 278.290931 
L 165.958609 275.889485 
L 166.349209 273.124169 
L 166.615527 269.518498 
L 166.775318 264.427491 
L 166.864091 255.800441 
L 166.917355 230.676652 
L 167.077145 74.564679 
L 167.112655 75.305666 
L 167.343464 94.663388 
L 168.248945 174.06604 
L 168.515264 252.059214 
L 168.763827 297.265313 
L 168.976882 302.988558 
L 169.172182 303.644417 
L 169.4385 303.60779 
L 169.6338 303.740617 
L 169.917873 304.279378 
L 171.551291 307.957081 
L 172.225964 308.715004 
L 172.7586 309.039733 
L 173.113691 308.934532 
L 173.664082 308.506022 
L 174.498545 307.537932 
L 175.794627 305.648374 
L 182.949709 294.67227 
L 185.275555 291.774597 
L 187.832209 288.950765 
L 191.720455 285.04058 
L 194.294864 282.309812 
L 195.661964 280.546328 
L 196.620709 278.958153 
L 197.330891 277.35943 
L 197.881282 275.553233 
L 198.289636 273.416379 
L 198.591464 270.564899 
L 198.786764 266.637268 
L 198.911045 259.769935 
L 198.982064 242.43641 
L 199.159609 80.869133 
L 199.248382 87.727041 
L 199.976318 178.792668 
L 200.597727 303.941008 
L 200.757518 304.812415 
L 200.864045 304.613722 
L 201.325664 303.578375 
L 201.503209 303.609911 
L 201.769527 303.965461 
L 202.373182 304.710385 
L 202.905818 305.06396 
L 203.4207 305.143314 
L 203.988845 304.993789 
L 204.681273 304.56554 
L 205.604509 303.711789 
L 206.971609 302.108852 
L 210.2562 297.785074 
L 213.132436 294.212267 
L 215.689091 291.392214 
L 218.4588 288.675609 
L 222.684382 284.89605 
L 225.400827 282.327755 
L 226.874455 280.634345 
L 227.904218 279.115775 
L 228.667664 277.590737 
L 229.235809 275.963536 
L 229.679673 273.994645 
L 229.999255 271.561653 
L 230.230064 268.063545 
L 230.3721 262.764354 
L 230.460873 250.821747 
L 230.514136 196.644617 
L 230.656173 81.14542 
L 230.727191 85.977808 
L 231.419618 169.505697 
L 231.703691 254.72383 
L 231.952255 300.160251 
L 232.147555 304.846845 
L 232.236327 305.043136 
L 232.271836 305.004964 
L 232.467136 304.406842 
L 232.786718 303.702363 
L 232.982018 303.690561 
L 233.354864 304.063396 
L 234.189327 304.785454 
L 234.721964 304.939099 
L 235.272355 304.860351 
L 235.929273 304.527498 
L 236.781491 303.826594 
L 237.9888 302.517692 
L 240.154855 299.779319 
L 243.972082 294.991295 
L 246.528736 292.1625 
L 249.174164 289.571556 
L 252.369982 286.769083 
L 257.607573 282.212428 
L 259.098955 280.576041 
L 260.128718 279.126987 
L 260.909918 277.642194 
L 261.495818 276.04639 
L 261.939682 274.19166 
L 262.277018 271.800593 
L 262.525582 268.262745 
L 262.685373 262.245619 
L 262.774145 248.295347 
L 262.827409 175.378788 
L 262.951691 81.329474 
L 262.969445 81.468994 
L 263.075973 90.72154 
L 263.7684 179.146829 
L 264.389809 304.240031 
L 264.531845 305.037376 
L 264.5496 305.03161 
L 264.656127 304.798084 
L 265.117745 303.679534 
L 265.313045 303.702508 
L 265.987718 304.374049 
L 266.609127 304.812109 
L 267.141764 304.915722 
L 267.709909 304.791973 
L 268.402336 304.398298 
L 269.325573 303.591895 
L 270.657164 302.101208 
L 273.568909 298.407558 
L 276.604936 294.724778 
L 279.126082 292.017463 
L 281.753755 289.52494 
L 284.896309 286.865048 
L 290.737555 281.990107 
L 292.193427 280.427365 
L 293.223191 279.001667 
L 293.986636 277.569234 
L 294.572536 275.993214 
L 295.0164 274.156423 
L 295.353736 271.785016 
L 295.6023 268.279072 
L 295.762091 262.356807 
L 295.850864 248.982867 
L 295.904127 181.246454 
L 296.028409 81.488047 
L 296.046164 81.533307 
L 296.134936 88.638611 
L 296.827364 174.786681 
L 297.484282 304.44427 
L 297.608564 305.027677 
L 297.644073 305.004315 
L 297.803864 304.549246 
L 298.158955 303.691527 
L 298.354255 303.663502 
L 298.7271 304.003343 
L 299.614827 304.749239 
L 300.147464 304.889473 
L 300.715609 304.798717 
L 301.390282 304.449109 
L 302.278009 303.714565 
L 303.538582 302.35288 
L 305.9532 299.34507 
L 309.379827 295.170159 
L 311.900973 292.457982 
L 314.475382 290.017855 
L 317.404882 287.55685 
L 325.181373 281.211663 
L 326.424191 279.780103 
L 327.329673 278.407952 
L 328.0221 276.95485 
L 328.554736 275.306238 
L 328.963091 273.27938 
L 329.264918 270.570442 
L 329.477973 266.366006 
L 329.602255 259.17962 
L 329.673273 239.440143 
L 329.833064 81.577977 
L 329.921836 86.967179 
L 330.614264 171.104882 
L 330.898336 257.189224 
L 331.129145 299.522218 
L 331.324445 304.74384 
L 331.413218 305.003913 
L 331.466482 304.950237 
L 331.715045 304.167878 
L 331.999118 303.644215 
L 332.176664 303.656004 
L 332.7093 304.16247 
L 333.419482 304.731615 
L 333.952118 304.876614 
L 334.520264 304.791709 
L 335.194936 304.449671 
L 336.082664 303.725663 
L 337.343236 302.379383 
L 339.7401 299.423216 
L 343.184482 295.265909 
L 345.687873 292.601137 
L 348.226773 290.223461 
L 351.0675 287.8737 
L 355.328591 284.680227 
L 358.4889 282.200848 
L 360.104564 280.657393 
L 361.2231 279.29196 
L 362.057564 277.927278 
L 362.696727 276.450319 
L 363.193855 274.71148 
L 363.5667 272.549005 
L 363.833018 269.660593 
L 364.010564 265.380284 
L 364.117091 258.000044 
L 364.188109 230.850549 
L 364.3479 81.606506 
L 364.383409 83.136509 
L 364.827273 125.81637 
L 365.235627 220.507652 
L 365.572964 307.957206 
L 365.786018 315.841989 
L 366.070091 318.712479 
L 368.413691 335.303157 
L 369.407945 340.006401 
L 370.473218 343.993457 
L 371.609509 347.411027 
L 372.834573 350.402406 
L 374.130655 352.990292 
L 375.497755 355.234386 
L 376.935873 357.177722 
L 378.445009 358.850818 
L 380.025164 360.27503 
L 381.676336 361.465449 
L 383.398527 362.433512 
L 385.209491 363.195676 
L 387.126982 363.760738 
L 389.204264 364.138737 
L 391.512355 364.327829 
L 394.175536 364.315159 
L 397.460127 364.065604 
L 402.342627 363.445927 
L 412.764545 362.092242 
L 418.605791 361.59455 
L 424.873145 361.289619 
L 432.667391 361.146024 
L 435.845455 361.133166 
L 435.845455 361.133166 
" style="fill:none;stroke:#ff0000;stroke-linecap:square;stroke-width:1.5;"/>
   </g>
   <g id="patch_3">
    <path d="M 63 384.48 
L 63 51.84 
" style="fill:none;stroke:#000000;stroke-linecap:square;stroke-linejoin:miter;stroke-width:0.8;"/>
   </g>
   <g id="patch_4">
    <path d="M 453.6 384.48 
L 453.6 51.84 
" style="fill:none;stroke:#000000;stroke-linecap:square;stroke-linejoin:miter;stroke-width:0.8;"/>
   </g>
   <g id="patch_5">
    <path d="M 63 384.48 
L 453.6 384.48 
" style="fill:none;stroke:#000000;stroke-linecap:square;stroke-linejoin:miter;stroke-width:0.8;"/>
   </g>
   <g id="patch_6">
    <path d="M 63 51.84 
L 453.6 51.84 
" style="fill:none;stroke:#000000;stroke-linecap:square;stroke-linejoin:miter;stroke-width:0.8;"/>
   </g>
   <g id="legend_1">
    <g id="patch_7">
     <path d="M 383.460938 89.19625 
L 446.6 89.19625 
Q 448.6 89.19625 448.6 87.19625 
L 448.6 58.84 
Q 448.6 56.84 446.6 56.84 
L 383.460938 56.84 
Q 381.460938 56.84 381.460938 58.84 
L 381.460938 87.19625 
Q 381.460938 89.19625 383.460938 89.19625 
z
" style="fill:#ffffff;opacity:0.8;stroke:#cccccc;stroke-linejoin:miter;"/>
    </g>
    <g id="line2d_13">
     <path d="M 385.460938 64.938437 
L 405.460938 64.938437 
" style="fill:none;stroke:#1f77b4;stroke-linecap:square;stroke-width:1.5;"/>
    </g>
    <g id="line2d_14"/>
    <g id="text_13">
     <!-- target -->
     <defs>
      <path d="M 41.109375 46.296875 
Q 39.59375 47.171875 37.8125 47.578125 
Q 36.03125 48 33.890625 48 
Q 26.265625 48 22.1875 43.046875 
Q 18.109375 38.09375 18.109375 28.8125 
L 18.109375 0 
L 9.078125 0 
L 9.078125 54.6875 
L 18.109375 54.6875 
L 18.109375 46.1875 
Q 20.953125 51.171875 25.484375 53.578125 
Q 30.03125 56 36.53125 56 
Q 37.453125 56 38.578125 55.875 
Q 39.703125 55.765625 41.0625 55.515625 
z
" id="DejaVuSans-114"/>
     </defs>
     <g transform="translate(413.460938 68.438437)scale(0.1 -0.1)">
      <use xlink:href="#DejaVuSans-116"/>
      <use x="39.208984" xlink:href="#DejaVuSans-97"/>
      <use x="100.488281" xlink:href="#DejaVuSans-114"/>
      <use x="141.585938" xlink:href="#DejaVuSans-103"/>
      <use x="205.0625" xlink:href="#DejaVuSans-101"/>
      <use x="266.585938" xlink:href="#DejaVuSans-116"/>
     </g>
    </g>
    <g id="line2d_15">
     <path d="M 385.460938 79.616562 
L 405.460938 79.616562 
" style="fill:none;stroke:#ff0000;stroke-linecap:square;stroke-width:1.5;"/>
    </g>
    <g id="line2d_16"/>
    <g id="text_14">
     <!-- model -->
     <defs>
      <path d="M 45.40625 46.390625 
L 45.40625 75.984375 
L 54.390625 75.984375 
L 54.390625 0 
L 45.40625 0 
L 45.40625 8.203125 
Q 42.578125 3.328125 38.25 0.953125 
Q 33.9375 -1.421875 27.875 -1.421875 
Q 17.96875 -1.421875 11.734375 6.484375 
Q 5.515625 14.40625 5.515625 27.296875 
Q 5.515625 40.1875 11.734375 48.09375 
Q 17.96875 56 27.875 56 
Q 33.9375 56 38.25 53.625 
Q 42.578125 51.265625 45.40625 46.390625 
z
M 14.796875 27.296875 
Q 14.796875 17.390625 18.875 11.75 
Q 22.953125 6.109375 30.078125 6.109375 
Q 37.203125 6.109375 41.296875 11.75 
Q 45.40625 17.390625 45.40625 27.296875 
Q 45.40625 37.203125 41.296875 42.84375 
Q 37.203125 48.484375 30.078125 48.484375 
Q 22.953125 48.484375 18.875 42.84375 
Q 14.796875 37.203125 14.796875 27.296875 
z
" id="DejaVuSans-100"/>
     </defs>
     <g transform="translate(413.460938 83.116562)scale(0.1 -0.1)">
      <use xlink:href="#DejaVuSans-109"/>
      <use x="97.412109" xlink:href="#DejaVuSans-111"/>
      <use x="158.59375" xlink:href="#DejaVuSans-100"/>
      <use x="222.070312" xlink:href="#DejaVuSans-101"/>
      <use x="283.59375" xlink:href="#DejaVuSans-108"/>
     </g>
    </g>
   </g>
  </g>
 </g>
 <defs>
  <clipPath id="p3877340807">
   <rect height="332.64" width="390.6" x="63" y="51.84"/>
  </clipPath>
 </defs>
</svg>
