<?xml version="1.0" encoding="utf-8" standalone="no"?>
<!DOCTYPE svg PUBLIC "-//W3C//DTD SVG 1.1//EN"
  "http://www.w3.org/Graphics/SVG/1.1/DTD/svg11.dtd">
<!-- Created with matplotlib (https://matplotlib.org/) -->
<svg height="432pt" version="1.1" viewBox="0 0 504 432" width="504pt" xmlns="http://www.w3.org/2000/svg" xmlns:xlink="http://www.w3.org/1999/xlink">
 <defs>
  <style type="text/css">
*{stroke-linecap:butt;stroke-linejoin:round;}
  </style>
 </defs>
 <g id="figure_1">
  <g id="patch_1">
   <path d="M 0 432 
L 504 432 
L 504 0 
L 0 0 
z
" style="fill:#ffffff;"/>
  </g>
  <g id="axes_1">
   <g id="patch_2">
    <path d="M 63 384.48 
L 453.6 384.48 
L 453.6 51.84 
L 63 51.84 
z
" style="fill:#ffffff;"/>
   </g>
   <g id="matplotlib.axis_1">
    <g id="xtick_1">
     <g id="line2d_1">
      <defs>
       <path d="M 0 0 
L 0 3.5 
" id="m62d8647c73" style="stroke:#000000;stroke-width:0.8;"/>
      </defs>
      <g>
       <use style="stroke:#000000;stroke-width:0.8;" x="80.754545" xlink:href="#m62d8647c73" y="384.48"/>
      </g>
     </g>
     <g id="text_1">
      <!-- 0 -->
      <defs>
       <path d="M 31.78125 66.40625 
Q 24.171875 66.40625 20.328125 58.90625 
Q 16.5 51.421875 16.5 36.375 
Q 16.5 21.390625 20.328125 13.890625 
Q 24.171875 6.390625 31.78125 6.390625 
Q 39.453125 6.390625 43.28125 13.890625 
Q 47.125 21.390625 47.125 36.375 
Q 47.125 51.421875 43.28125 58.90625 
Q 39.453125 66.40625 31.78125 66.40625 
z
M 31.78125 74.21875 
Q 44.046875 74.21875 50.515625 64.515625 
Q 56.984375 54.828125 56.984375 36.375 
Q 56.984375 17.96875 50.515625 8.265625 
Q 44.046875 -1.421875 31.78125 -1.421875 
Q 19.53125 -1.421875 13.0625 8.265625 
Q 6.59375 17.96875 6.59375 36.375 
Q 6.59375 54.828125 13.0625 64.515625 
Q 19.53125 74.21875 31.78125 74.21875 
z
" id="DejaVuSans-48"/>
      </defs>
      <g transform="translate(77.573295 399.078438)scale(0.1 -0.1)">
       <use xlink:href="#DejaVuSans-48"/>
      </g>
     </g>
    </g>
    <g id="xtick_2">
     <g id="line2d_2">
      <g>
       <use style="stroke:#000000;stroke-width:0.8;" x="151.767796" xlink:href="#m62d8647c73" y="384.48"/>
      </g>
     </g>
     <g id="text_2">
      <!-- 720 -->
      <defs>
       <path d="M 8.203125 72.90625 
L 55.078125 72.90625 
L 55.078125 68.703125 
L 28.609375 0 
L 18.3125 0 
L 43.21875 64.59375 
L 8.203125 64.59375 
z
" id="DejaVuSans-55"/>
       <path d="M 19.1875 8.296875 
L 53.609375 8.296875 
L 53.609375 0 
L 7.328125 0 
L 7.328125 8.296875 
Q 12.9375 14.109375 22.625 23.890625 
Q 32.328125 33.6875 34.8125 36.53125 
Q 39.546875 41.84375 41.421875 45.53125 
Q 43.3125 49.21875 43.3125 52.78125 
Q 43.3125 58.59375 39.234375 62.25 
Q 35.15625 65.921875 28.609375 65.921875 
Q 23.96875 65.921875 18.8125 64.3125 
Q 13.671875 62.703125 7.8125 59.421875 
L 7.8125 69.390625 
Q 13.765625 71.78125 18.9375 73 
Q 24.125 74.21875 28.421875 74.21875 
Q 39.75 74.21875 46.484375 68.546875 
Q 53.21875 62.890625 53.21875 53.421875 
Q 53.21875 48.921875 51.53125 44.890625 
Q 49.859375 40.875 45.40625 35.40625 
Q 44.1875 33.984375 37.640625 27.21875 
Q 31.109375 20.453125 19.1875 8.296875 
z
" id="DejaVuSans-50"/>
      </defs>
      <g transform="translate(142.224046 399.078438)scale(0.1 -0.1)">
       <use xlink:href="#DejaVuSans-55"/>
       <use x="63.623047" xlink:href="#DejaVuSans-50"/>
       <use x="127.246094" xlink:href="#DejaVuSans-48"/>
      </g>
     </g>
    </g>
    <g id="xtick_3">
     <g id="line2d_3">
      <g>
       <use style="stroke:#000000;stroke-width:0.8;" x="222.781046" xlink:href="#m62d8647c73" y="384.48"/>
      </g>
     </g>
     <g id="text_3">
      <!-- 1440 -->
      <defs>
       <path d="M 12.40625 8.296875 
L 28.515625 8.296875 
L 28.515625 63.921875 
L 10.984375 60.40625 
L 10.984375 69.390625 
L 28.421875 72.90625 
L 38.28125 72.90625 
L 38.28125 8.296875 
L 54.390625 8.296875 
L 54.390625 0 
L 12.40625 0 
z
" id="DejaVuSans-49"/>
       <path d="M 37.796875 64.3125 
L 12.890625 25.390625 
L 37.796875 25.390625 
z
M 35.203125 72.90625 
L 47.609375 72.90625 
L 47.609375 25.390625 
L 58.015625 25.390625 
L 58.015625 17.1875 
L 47.609375 17.1875 
L 47.609375 0 
L 37.796875 0 
L 37.796875 17.1875 
L 4.890625 17.1875 
L 4.890625 26.703125 
z
" id="DejaVuSans-52"/>
      </defs>
      <g transform="translate(210.056046 399.078438)scale(0.1 -0.1)">
       <use xlink:href="#DejaVuSans-49"/>
       <use x="63.623047" xlink:href="#DejaVuSans-52"/>
       <use x="127.246094" xlink:href="#DejaVuSans-52"/>
       <use x="190.869141" xlink:href="#DejaVuSans-48"/>
      </g>
     </g>
    </g>
    <g id="xtick_4">
     <g id="line2d_4">
      <g>
       <use style="stroke:#000000;stroke-width:0.8;" x="293.794296" xlink:href="#m62d8647c73" y="384.48"/>
      </g>
     </g>
     <g id="text_4">
      <!-- 2160 -->
      <defs>
       <path d="M 33.015625 40.375 
Q 26.375 40.375 22.484375 35.828125 
Q 18.609375 31.296875 18.609375 23.390625 
Q 18.609375 15.53125 22.484375 10.953125 
Q 26.375 6.390625 33.015625 6.390625 
Q 39.65625 6.390625 43.53125 10.953125 
Q 47.40625 15.53125 47.40625 23.390625 
Q 47.40625 31.296875 43.53125 35.828125 
Q 39.65625 40.375 33.015625 40.375 
z
M 52.59375 71.296875 
L 52.59375 62.3125 
Q 48.875 64.0625 45.09375 64.984375 
Q 41.3125 65.921875 37.59375 65.921875 
Q 27.828125 65.921875 22.671875 59.328125 
Q 17.53125 52.734375 16.796875 39.40625 
Q 19.671875 43.65625 24.015625 45.921875 
Q 28.375 48.1875 33.59375 48.1875 
Q 44.578125 48.1875 50.953125 41.515625 
Q 57.328125 34.859375 57.328125 23.390625 
Q 57.328125 12.15625 50.6875 5.359375 
Q 44.046875 -1.421875 33.015625 -1.421875 
Q 20.359375 -1.421875 13.671875 8.265625 
Q 6.984375 17.96875 6.984375 36.375 
Q 6.984375 53.65625 15.1875 63.9375 
Q 23.390625 74.21875 37.203125 74.21875 
Q 40.921875 74.21875 44.703125 73.484375 
Q 48.484375 72.75 52.59375 71.296875 
z
" id="DejaVuSans-54"/>
      </defs>
      <g transform="translate(281.069296 399.078438)scale(0.1 -0.1)">
       <use xlink:href="#DejaVuSans-50"/>
       <use x="63.623047" xlink:href="#DejaVuSans-49"/>
       <use x="127.246094" xlink:href="#DejaVuSans-54"/>
       <use x="190.869141" xlink:href="#DejaVuSans-48"/>
      </g>
     </g>
    </g>
    <g id="xtick_5">
     <g id="line2d_5">
      <g>
       <use style="stroke:#000000;stroke-width:0.8;" x="364.807547" xlink:href="#m62d8647c73" y="384.48"/>
      </g>
     </g>
     <g id="text_5">
      <!-- 2880 -->
      <defs>
       <path d="M 31.78125 34.625 
Q 24.75 34.625 20.71875 30.859375 
Q 16.703125 27.09375 16.703125 20.515625 
Q 16.703125 13.921875 20.71875 10.15625 
Q 24.75 6.390625 31.78125 6.390625 
Q 38.8125 6.390625 42.859375 10.171875 
Q 46.921875 13.96875 46.921875 20.515625 
Q 46.921875 27.09375 42.890625 30.859375 
Q 38.875 34.625 31.78125 34.625 
z
M 21.921875 38.8125 
Q 15.578125 40.375 12.03125 44.71875 
Q 8.5 49.078125 8.5 55.328125 
Q 8.5 64.0625 14.71875 69.140625 
Q 20.953125 74.21875 31.78125 74.21875 
Q 42.671875 74.21875 48.875 69.140625 
Q 55.078125 64.0625 55.078125 55.328125 
Q 55.078125 49.078125 51.53125 44.71875 
Q 48 40.375 41.703125 38.8125 
Q 48.828125 37.15625 52.796875 32.3125 
Q 56.78125 27.484375 56.78125 20.515625 
Q 56.78125 9.90625 50.3125 4.234375 
Q 43.84375 -1.421875 31.78125 -1.421875 
Q 19.734375 -1.421875 13.25 4.234375 
Q 6.78125 9.90625 6.78125 20.515625 
Q 6.78125 27.484375 10.78125 32.3125 
Q 14.796875 37.15625 21.921875 38.8125 
z
M 18.3125 54.390625 
Q 18.3125 48.734375 21.84375 45.5625 
Q 25.390625 42.390625 31.78125 42.390625 
Q 38.140625 42.390625 41.71875 45.5625 
Q 45.3125 48.734375 45.3125 54.390625 
Q 45.3125 60.0625 41.71875 63.234375 
Q 38.140625 66.40625 31.78125 66.40625 
Q 25.390625 66.40625 21.84375 63.234375 
Q 18.3125 60.0625 18.3125 54.390625 
z
" id="DejaVuSans-56"/>
      </defs>
      <g transform="translate(352.082547 399.078438)scale(0.1 -0.1)">
       <use xlink:href="#DejaVuSans-50"/>
       <use x="63.623047" xlink:href="#DejaVuSans-56"/>
       <use x="127.246094" xlink:href="#DejaVuSans-56"/>
       <use x="190.869141" xlink:href="#DejaVuSans-48"/>
      </g>
     </g>
    </g>
    <g id="text_6">
     <!-- time [ms] -->
     <defs>
      <path d="M 18.3125 70.21875 
L 18.3125 54.6875 
L 36.8125 54.6875 
L 36.8125 47.703125 
L 18.3125 47.703125 
L 18.3125 18.015625 
Q 18.3125 11.328125 20.140625 9.421875 
Q 21.96875 7.515625 27.59375 7.515625 
L 36.8125 7.515625 
L 36.8125 0 
L 27.59375 0 
Q 17.1875 0 13.234375 3.875 
Q 9.28125 7.765625 9.28125 18.015625 
L 9.28125 47.703125 
L 2.6875 47.703125 
L 2.6875 54.6875 
L 9.28125 54.6875 
L 9.28125 70.21875 
z
" id="DejaVuSans-116"/>
      <path d="M 9.421875 54.6875 
L 18.40625 54.6875 
L 18.40625 0 
L 9.421875 0 
z
M 9.421875 75.984375 
L 18.40625 75.984375 
L 18.40625 64.59375 
L 9.421875 64.59375 
z
" id="DejaVuSans-105"/>
      <path d="M 52 44.1875 
Q 55.375 50.25 60.0625 53.125 
Q 64.75 56 71.09375 56 
Q 79.640625 56 84.28125 50.015625 
Q 88.921875 44.046875 88.921875 33.015625 
L 88.921875 0 
L 79.890625 0 
L 79.890625 32.71875 
Q 79.890625 40.578125 77.09375 44.375 
Q 74.3125 48.1875 68.609375 48.1875 
Q 61.625 48.1875 57.5625 43.546875 
Q 53.515625 38.921875 53.515625 30.90625 
L 53.515625 0 
L 44.484375 0 
L 44.484375 32.71875 
Q 44.484375 40.625 41.703125 44.40625 
Q 38.921875 48.1875 33.109375 48.1875 
Q 26.21875 48.1875 22.15625 43.53125 
Q 18.109375 38.875 18.109375 30.90625 
L 18.109375 0 
L 9.078125 0 
L 9.078125 54.6875 
L 18.109375 54.6875 
L 18.109375 46.1875 
Q 21.1875 51.21875 25.484375 53.609375 
Q 29.78125 56 35.6875 56 
Q 41.65625 56 45.828125 52.96875 
Q 50 49.953125 52 44.1875 
z
" id="DejaVuSans-109"/>
      <path d="M 56.203125 29.59375 
L 56.203125 25.203125 
L 14.890625 25.203125 
Q 15.484375 15.921875 20.484375 11.0625 
Q 25.484375 6.203125 34.421875 6.203125 
Q 39.59375 6.203125 44.453125 7.46875 
Q 49.3125 8.734375 54.109375 11.28125 
L 54.109375 2.78125 
Q 49.265625 0.734375 44.1875 -0.34375 
Q 39.109375 -1.421875 33.890625 -1.421875 
Q 20.796875 -1.421875 13.15625 6.1875 
Q 5.515625 13.8125 5.515625 26.8125 
Q 5.515625 40.234375 12.765625 48.109375 
Q 20.015625 56 32.328125 56 
Q 43.359375 56 49.78125 48.890625 
Q 56.203125 41.796875 56.203125 29.59375 
z
M 47.21875 32.234375 
Q 47.125 39.59375 43.09375 43.984375 
Q 39.0625 48.390625 32.421875 48.390625 
Q 24.90625 48.390625 20.390625 44.140625 
Q 15.875 39.890625 15.1875 32.171875 
z
" id="DejaVuSans-101"/>
      <path id="DejaVuSans-32"/>
      <path d="M 8.59375 75.984375 
L 29.296875 75.984375 
L 29.296875 69 
L 17.578125 69 
L 17.578125 -6.203125 
L 29.296875 -6.203125 
L 29.296875 -13.1875 
L 8.59375 -13.1875 
z
" id="DejaVuSans-91"/>
      <path d="M 44.28125 53.078125 
L 44.28125 44.578125 
Q 40.484375 46.53125 36.375 47.5 
Q 32.28125 48.484375 27.875 48.484375 
Q 21.1875 48.484375 17.84375 46.4375 
Q 14.5 44.390625 14.5 40.28125 
Q 14.5 37.15625 16.890625 35.375 
Q 19.28125 33.59375 26.515625 31.984375 
L 29.59375 31.296875 
Q 39.15625 29.25 43.1875 25.515625 
Q 47.21875 21.78125 47.21875 15.09375 
Q 47.21875 7.46875 41.1875 3.015625 
Q 35.15625 -1.421875 24.609375 -1.421875 
Q 20.21875 -1.421875 15.453125 -0.5625 
Q 10.6875 0.296875 5.421875 2 
L 5.421875 11.28125 
Q 10.40625 8.6875 15.234375 7.390625 
Q 20.0625 6.109375 24.8125 6.109375 
Q 31.15625 6.109375 34.5625 8.28125 
Q 37.984375 10.453125 37.984375 14.40625 
Q 37.984375 18.0625 35.515625 20.015625 
Q 33.0625 21.96875 24.703125 23.78125 
L 21.578125 24.515625 
Q 13.234375 26.265625 9.515625 29.90625 
Q 5.8125 33.546875 5.8125 39.890625 
Q 5.8125 47.609375 11.28125 51.796875 
Q 16.75 56 26.8125 56 
Q 31.78125 56 36.171875 55.265625 
Q 40.578125 54.546875 44.28125 53.078125 
z
" id="DejaVuSans-115"/>
      <path d="M 30.421875 75.984375 
L 30.421875 -13.1875 
L 9.71875 -13.1875 
L 9.71875 -6.203125 
L 21.390625 -6.203125 
L 21.390625 69 
L 9.71875 69 
L 9.71875 75.984375 
z
" id="DejaVuSans-93"/>
     </defs>
     <g transform="translate(234.038281 412.756563)scale(0.1 -0.1)">
      <use xlink:href="#DejaVuSans-116"/>
      <use x="39.208984" xlink:href="#DejaVuSans-105"/>
      <use x="66.992188" xlink:href="#DejaVuSans-109"/>
      <use x="164.404297" xlink:href="#DejaVuSans-101"/>
      <use x="225.927734" xlink:href="#DejaVuSans-32"/>
      <use x="257.714844" xlink:href="#DejaVuSans-91"/>
      <use x="296.728516" xlink:href="#DejaVuSans-109"/>
      <use x="394.140625" xlink:href="#DejaVuSans-115"/>
      <use x="446.240234" xlink:href="#DejaVuSans-93"/>
     </g>
    </g>
   </g>
   <g id="matplotlib.axis_2">
    <g id="ytick_1">
     <g id="line2d_6">
      <defs>
       <path d="M 0 0 
L -3.5 0 
" id="mdfe5d35a12" style="stroke:#000000;stroke-width:0.8;"/>
      </defs>
      <g>
       <use style="stroke:#000000;stroke-width:0.8;" x="63" xlink:href="#mdfe5d35a12" y="366.381586"/>
      </g>
     </g>
     <g id="text_7">
      <!-- −80 -->
      <defs>
       <path d="M 10.59375 35.5 
L 73.1875 35.5 
L 73.1875 27.203125 
L 10.59375 27.203125 
z
" id="DejaVuSans-8722"/>
      </defs>
      <g transform="translate(34.895313 370.180805)scale(0.1 -0.1)">
       <use xlink:href="#DejaVuSans-8722"/>
       <use x="83.789062" xlink:href="#DejaVuSans-56"/>
       <use x="147.412109" xlink:href="#DejaVuSans-48"/>
      </g>
     </g>
    </g>
    <g id="ytick_2">
     <g id="line2d_7">
      <g>
       <use style="stroke:#000000;stroke-width:0.8;" x="63" xlink:href="#mdfe5d35a12" y="319.17287"/>
      </g>
     </g>
     <g id="text_8">
      <!-- −60 -->
      <g transform="translate(34.895313 322.972089)scale(0.1 -0.1)">
       <use xlink:href="#DejaVuSans-8722"/>
       <use x="83.789062" xlink:href="#DejaVuSans-54"/>
       <use x="147.412109" xlink:href="#DejaVuSans-48"/>
      </g>
     </g>
    </g>
    <g id="ytick_3">
     <g id="line2d_8">
      <g>
       <use style="stroke:#000000;stroke-width:0.8;" x="63" xlink:href="#mdfe5d35a12" y="271.964154"/>
      </g>
     </g>
     <g id="text_9">
      <!-- −40 -->
      <g transform="translate(34.895313 275.763373)scale(0.1 -0.1)">
       <use xlink:href="#DejaVuSans-8722"/>
       <use x="83.789062" xlink:href="#DejaVuSans-52"/>
       <use x="147.412109" xlink:href="#DejaVuSans-48"/>
      </g>
     </g>
    </g>
    <g id="ytick_4">
     <g id="line2d_9">
      <g>
       <use style="stroke:#000000;stroke-width:0.8;" x="63" xlink:href="#mdfe5d35a12" y="224.755438"/>
      </g>
     </g>
     <g id="text_10">
      <!-- −20 -->
      <g transform="translate(34.895313 228.554656)scale(0.1 -0.1)">
       <use xlink:href="#DejaVuSans-8722"/>
       <use x="83.789062" xlink:href="#DejaVuSans-50"/>
       <use x="147.412109" xlink:href="#DejaVuSans-48"/>
      </g>
     </g>
    </g>
    <g id="ytick_5">
     <g id="line2d_10">
      <g>
       <use style="stroke:#000000;stroke-width:0.8;" x="63" xlink:href="#mdfe5d35a12" y="177.546722"/>
      </g>
     </g>
     <g id="text_11">
      <!-- 0 -->
      <g transform="translate(49.6375 181.34594)scale(0.1 -0.1)">
       <use xlink:href="#DejaVuSans-48"/>
      </g>
     </g>
    </g>
    <g id="ytick_6">
     <g id="line2d_11">
      <g>
       <use style="stroke:#000000;stroke-width:0.8;" x="63" xlink:href="#mdfe5d35a12" y="130.338006"/>
      </g>
     </g>
     <g id="text_12">
      <!-- 20 -->
      <g transform="translate(43.275 134.137224)scale(0.1 -0.1)">
       <use xlink:href="#DejaVuSans-50"/>
       <use x="63.623047" xlink:href="#DejaVuSans-48"/>
      </g>
     </g>
    </g>
    <g id="ytick_7">
     <g id="line2d_12">
      <g>
       <use style="stroke:#000000;stroke-width:0.8;" x="63" xlink:href="#mdfe5d35a12" y="83.12929"/>
      </g>
     </g>
     <g id="text_13">
      <!-- 40 -->
      <g transform="translate(43.275 86.928508)scale(0.1 -0.1)">
       <use xlink:href="#DejaVuSans-52"/>
       <use x="63.623047" xlink:href="#DejaVuSans-48"/>
      </g>
     </g>
    </g>
    <g id="text_14">
     <!-- Voltage [mV] -->
     <defs>
      <path d="M 28.609375 0 
L 0.78125 72.90625 
L 11.078125 72.90625 
L 34.1875 11.53125 
L 57.328125 72.90625 
L 67.578125 72.90625 
L 39.796875 0 
z
" id="DejaVuSans-86"/>
      <path d="M 30.609375 48.390625 
Q 23.390625 48.390625 19.1875 42.75 
Q 14.984375 37.109375 14.984375 27.296875 
Q 14.984375 17.484375 19.15625 11.84375 
Q 23.34375 6.203125 30.609375 6.203125 
Q 37.796875 6.203125 41.984375 11.859375 
Q 46.1875 17.53125 46.1875 27.296875 
Q 46.1875 37.015625 41.984375 42.703125 
Q 37.796875 48.390625 30.609375 48.390625 
z
M 30.609375 56 
Q 42.328125 56 49.015625 48.375 
Q 55.71875 40.765625 55.71875 27.296875 
Q 55.71875 13.875 49.015625 6.21875 
Q 42.328125 -1.421875 30.609375 -1.421875 
Q 18.84375 -1.421875 12.171875 6.21875 
Q 5.515625 13.875 5.515625 27.296875 
Q 5.515625 40.765625 12.171875 48.375 
Q 18.84375 56 30.609375 56 
z
" id="DejaVuSans-111"/>
      <path d="M 9.421875 75.984375 
L 18.40625 75.984375 
L 18.40625 0 
L 9.421875 0 
z
" id="DejaVuSans-108"/>
      <path d="M 34.28125 27.484375 
Q 23.390625 27.484375 19.1875 25 
Q 14.984375 22.515625 14.984375 16.5 
Q 14.984375 11.71875 18.140625 8.90625 
Q 21.296875 6.109375 26.703125 6.109375 
Q 34.1875 6.109375 38.703125 11.40625 
Q 43.21875 16.703125 43.21875 25.484375 
L 43.21875 27.484375 
z
M 52.203125 31.203125 
L 52.203125 0 
L 43.21875 0 
L 43.21875 8.296875 
Q 40.140625 3.328125 35.546875 0.953125 
Q 30.953125 -1.421875 24.3125 -1.421875 
Q 15.921875 -1.421875 10.953125 3.296875 
Q 6 8.015625 6 15.921875 
Q 6 25.140625 12.171875 29.828125 
Q 18.359375 34.515625 30.609375 34.515625 
L 43.21875 34.515625 
L 43.21875 35.40625 
Q 43.21875 41.609375 39.140625 45 
Q 35.0625 48.390625 27.6875 48.390625 
Q 23 48.390625 18.546875 47.265625 
Q 14.109375 46.140625 10.015625 43.890625 
L 10.015625 52.203125 
Q 14.9375 54.109375 19.578125 55.046875 
Q 24.21875 56 28.609375 56 
Q 40.484375 56 46.34375 49.84375 
Q 52.203125 43.703125 52.203125 31.203125 
z
" id="DejaVuSans-97"/>
      <path d="M 45.40625 27.984375 
Q 45.40625 37.75 41.375 43.109375 
Q 37.359375 48.484375 30.078125 48.484375 
Q 22.859375 48.484375 18.828125 43.109375 
Q 14.796875 37.75 14.796875 27.984375 
Q 14.796875 18.265625 18.828125 12.890625 
Q 22.859375 7.515625 30.078125 7.515625 
Q 37.359375 7.515625 41.375 12.890625 
Q 45.40625 18.265625 45.40625 27.984375 
z
M 54.390625 6.78125 
Q 54.390625 -7.171875 48.1875 -13.984375 
Q 42 -20.796875 29.203125 -20.796875 
Q 24.46875 -20.796875 20.265625 -20.09375 
Q 16.0625 -19.390625 12.109375 -17.921875 
L 12.109375 -9.1875 
Q 16.0625 -11.328125 19.921875 -12.34375 
Q 23.78125 -13.375 27.78125 -13.375 
Q 36.625 -13.375 41.015625 -8.765625 
Q 45.40625 -4.15625 45.40625 5.171875 
L 45.40625 9.625 
Q 42.625 4.78125 38.28125 2.390625 
Q 33.9375 0 27.875 0 
Q 17.828125 0 11.671875 7.65625 
Q 5.515625 15.328125 5.515625 27.984375 
Q 5.515625 40.671875 11.671875 48.328125 
Q 17.828125 56 27.875 56 
Q 33.9375 56 38.28125 53.609375 
Q 42.625 51.21875 45.40625 46.390625 
L 45.40625 54.6875 
L 54.390625 54.6875 
z
" id="DejaVuSans-103"/>
     </defs>
     <g transform="translate(28.815625 251.079531)rotate(-90)scale(0.1 -0.1)">
      <use xlink:href="#DejaVuSans-86"/>
      <use x="68.298828" xlink:href="#DejaVuSans-111"/>
      <use x="129.480469" xlink:href="#DejaVuSans-108"/>
      <use x="157.263672" xlink:href="#DejaVuSans-116"/>
      <use x="196.472656" xlink:href="#DejaVuSans-97"/>
      <use x="257.751953" xlink:href="#DejaVuSans-103"/>
      <use x="321.228516" xlink:href="#DejaVuSans-101"/>
      <use x="382.751953" xlink:href="#DejaVuSans-32"/>
      <use x="414.539062" xlink:href="#DejaVuSans-91"/>
      <use x="453.552734" xlink:href="#DejaVuSans-109"/>
      <use x="550.964844" xlink:href="#DejaVuSans-86"/>
      <use x="619.373047" xlink:href="#DejaVuSans-93"/>
     </g>
    </g>
   </g>
   <g id="line2d_13">
    <path clip-path="url(#p896788f8ce)" d="M 80.754545 330.975049 
L 80.838381 331.145368 
L 81.050434 331.263554 
L 81.37098 331.132693 
L 82.791245 330.403815 
L 83.974799 330.126871 
L 85.878349 329.936729 
L 89.798872 329.807918 
L 99.464564 329.759249 
L 100.480448 329.759083 
L 100.638256 343.7591 
L 100.98839 354.144011 
L 101.466743 362.287258 
L 101.925371 366.752587 
L 102.319889 368.707709 
L 102.62564 369.301091 
L 102.847557 369.342536 
L 103.074405 369.125897 
L 103.424539 368.431415 
L 104.164261 366.335952 
L 105.140693 363.802981 
L 105.826168 362.612425 
L 106.46726 361.920958 
L 107.118215 361.536693 
L 107.867799 361.358233 
L 108.913272 361.359434 
L 114.579537 361.668362 
L 130.069303 361.64979 
L 130.222178 347.926323 
L 130.557519 337.997034 
L 131.016146 330.450761 
L 131.479705 326.140671 
L 131.923538 323.87916 
L 132.327919 322.831414 
L 132.687916 322.438286 
L 133.018325 322.382409 
L 133.398049 322.559937 
L 133.960237 323.103587 
L 135.34105 324.865484 
L 136.682412 326.379854 
L 137.861034 327.378426 
L 139.08404 328.124476 
L 139.932254 328.505523 
L 140.045678 331.178943 
L 140.257731 331.261185 
L 140.607866 331.099343 
L 141.870324 330.439532 
L 143.009495 330.151459 
L 144.799621 329.953678 
L 148.394666 329.818524 
L 157.000092 329.760151 
L 159.663088 329.759083 
L 159.820896 326.950915 
L 160.17103 324.852876 
L 160.659247 323.177963 
L 161.181983 322.126586 
L 161.724445 321.510825 
L 162.311291 321.174069 
L 163.021423 321.030154 
L 164.052102 321.070434 
L 167.28715 321.550583 
L 170.46302 321.847779 
L 174.970389 322.022973 
L 183.891429 322.104933 
L 189.251943 322.114135 
L 189.40975 324.928979 
L 189.754953 326.983348 
L 190.233306 328.576949 
L 190.74618 329.562688 
L 191.288642 330.146779 
L 191.895214 330.476137 
L 192.654661 330.624498 
L 193.803695 330.597504 
L 199.114894 330.06198 
L 199.228318 331.178943 
L 199.440372 331.261185 
L 199.790506 331.099343 
L 201.052964 330.439532 
L 202.192135 330.151459 
L 203.982261 329.953678 
L 207.577307 329.818524 
L 216.182732 329.760151 
L 218.845729 329.759083 
L 219.003536 324.136138 
L 219.358602 319.837295 
L 219.866544 316.221207 
L 220.428732 313.725172 
L 221.010646 312.088473 
L 221.582698 311.091483 
L 222.115297 310.575567 
L 222.598582 310.397502 
L 223.086798 310.455849 
L 223.678575 310.769636 
L 224.694459 311.613122 
L 226.238011 312.832043 
L 227.40677 313.46037 
L 228.713611 313.904587 
L 230.375519 314.222064 
L 232.791942 314.437802 
L 237.087257 314.566198 
L 248.434583 314.618167 
L 248.59239 320.353718 
L 248.932662 324.513779 
L 249.391289 327.595825 
L 249.879505 329.477122 
L 250.372653 330.55979 
L 250.875663 331.161778 
L 251.413194 331.469089 
L 252.059217 331.575147 
L 252.986335 331.480689 
L 255.383032 330.922008 
L 258.046029 330.432811 
L 258.297534 330.398105 
L 258.410958 331.178943 
L 258.623012 331.261185 
L 258.973146 331.099343 
L 260.235604 330.439532 
L 261.374775 330.151459 
L 263.164901 329.953678 
L 266.759947 329.818524 
L 275.365372 329.760151 
L 278.028369 329.759083 
L 278.186176 321.31125 
L 278.551105 314.529161 
L 279.231649 303.306924 
L 279.256306 297.421335 
L 279.300689 67.044242 
L 279.40425 187.44058 
L 279.606441 340.765446 
L 279.724796 341.776584 
L 279.759317 341.72535 
L 279.872741 341.075908 
L 280.119314 338.099078 
L 280.725886 327.166942 
L 281.391635 317.150942 
L 281.983412 311.463567 
L 283.063405 302.238851 
L 283.107789 297.899788 
L 283.132446 213.157895 
L 283.157103 68.836215 
L 283.24587 172.097002 
L 283.467786 340.358769 
L 283.586142 341.342017 
L 283.620662 341.298817 
L 283.729155 340.716078 
L 283.965865 337.982332 
L 284.572437 327.500848 
L 285.213529 318.382167 
L 285.765854 313.486678 
L 286.347768 310.211587 
L 287.028312 307.638231 
L 288.251318 303.328049 
L 288.409125 301.541302 
L 288.463371 298.462859 
L 288.478166 275.62572 
L 288.522549 69.961989 
L 288.616247 186.362821 
L 288.818437 338.968178 
L 288.96145 340.445929 
L 288.976245 340.437768 
L 289.055148 340.16129 
L 289.242544 338.449273 
L 289.641994 332.280115 
L 290.470482 319.895043 
L 291.017876 315.002395 
L 291.570201 311.940543 
L 292.161978 309.848507 
L 292.817864 308.319864 
L 293.557586 307.148128 
L 294.405799 306.216326 
L 295.362506 305.49201 
L 296.334006 305.026166 
L 297.177289 304.856224 
L 297.902216 304.931711 
L 298.641937 305.240527 
L 299.790971 306.007885 
L 301.181647 306.852963 
L 302.271503 307.24711 
L 303.504372 307.448605 
L 305.190937 307.480339 
L 307.617223 307.352138 
L 307.77503 316.246198 
L 308.105439 322.528722 
L 308.54434 326.981088 
L 309.012831 329.663036 
L 309.486252 331.195514 
L 309.959674 332.034736 
L 310.438027 332.457599 
L 310.960763 332.626305 
L 311.621581 332.593493 
L 312.676917 332.288778 
L 316.671412 330.991247 
L 317.480174 330.811017 
L 317.59853 331.184725 
L 317.810583 331.260468 
L 318.165649 331.093164 
L 319.408381 330.443061 
L 320.542621 330.154039 
L 322.322884 329.955378 
L 325.88834 329.819602 
L 334.400068 329.760285 
L 337.211009 329.759083 
L 337.368816 318.470859 
L 337.787991 307.362826 
L 337.91621 301.515365 
L 337.931004 291.300511 
L 337.975387 66.96 
L 338.069085 178.226048 
L 338.28607 339.456296 
L 338.364974 339.986234 
L 338.41922 339.847799 
L 338.562233 338.616818 
L 338.863053 333.736183 
L 340.52496 299.217197 
L 340.539755 288.557511 
L 340.584138 68.826331 
L 340.672905 178.994089 
L 340.88989 339.82647 
L 340.973725 340.40857 
L 341.023039 340.28933 
L 341.161121 339.15606 
L 341.452078 334.600774 
L 343.010424 306.870104 
L 343.360559 300.969068 
L 343.409874 295.22709 
L 343.459188 70.354129 
L 343.567681 217.155159 
L 343.725488 337.59612 
L 343.858638 339.524181 
L 343.878364 339.502712 
L 343.96713 339.047853 
L 344.179184 336.520187 
L 344.627948 327.890089 
L 345.421916 313.478532 
L 346.102459 305.45367 
L 346.423005 300.762725 
L 346.482183 295.808495 
L 346.50684 212.823047 
L 346.536429 71.476003 
L 346.620264 177.852707 
L 346.837249 338.009642 
L 346.94081 338.85827 
L 346.980262 338.783514 
L 347.103549 337.915827 
L 347.369849 334.1181 
L 348.913401 308.805057 
L 349.662985 300.084471 
L 349.7123 294.73908 
L 349.766546 72.333134 
L 349.870107 215.882976 
L 350.027914 336.183876 
L 350.175858 338.433729 
L 350.185721 338.427134 
L 350.254762 338.171767 
L 350.427364 336.477745 
L 350.787361 330.316438 
L 351.748999 313.51752 
L 352.360502 307.1007 
L 352.976937 300.666617 
L 353.045977 297.270783 
L 353.060772 283.294266 
L 353.110086 72.956974 
L 353.193922 181.381246 
L 353.405975 337.095989 
L 353.519399 338.13016 
L 353.553919 338.078606 
L 353.662412 337.412993 
L 353.904054 334.260247 
L 354.648707 320.205052 
L 355.250347 311.716328 
L 355.901302 305.705416 
L 356.374723 300.947419 
L 356.458558 297.809158 
L 356.478284 281.726316 
L 356.527599 73.330061 
L 356.611434 181.923135 
L 356.823488 336.86295 
L 356.941843 337.921556 
L 356.976363 337.862491 
L 357.089787 337.141124 
L 357.341293 333.786034 
L 358.924296 309.203599 
L 359.900728 299.229158 
L 359.935249 294.749469 
L 359.964838 150.190063 
L 359.989495 73.358197 
L 360.068399 172.195398 
L 360.290315 336.777282 
L 360.403739 337.786092 
L 360.438259 337.738952 
L 360.546752 337.092282 
L 360.788394 333.985213 
L 361.57743 319.376537 
L 362.169207 311.424826 
L 362.815231 305.745444 
L 363.323173 300.96122 
L 363.411939 297.862397 
L 363.431665 285.847752 
L 363.48098 73.54173 
L 363.564815 180.493055 
L 363.776868 336.569886 
L 363.895224 337.692594 
L 363.929744 337.645821 
L 364.038237 337.001814 
L 364.274947 333.982311 
L 364.980148 320.853735 
L 365.581789 312.297696 
L 366.198223 306.638856 
L 366.799863 301.420122 
L 366.804794 302.530309 
L 366.992191 314.475481 
L 367.317668 321.609103 
L 367.746706 326.53174 
L 368.210265 329.506112 
L 368.683687 331.216129 
L 369.152177 332.145405 
L 369.625599 332.62204 
L 370.128609 332.821279 
L 370.749975 332.817171 
L 371.686955 332.562078 
L 376.662814 330.919595 
L 376.795964 331.200422 
L 377.012949 331.256861 
L 377.402536 331.058759 
L 378.541707 330.46105 
L 379.65622 330.166384 
L 381.387168 329.963806 
L 384.809612 329.825048 
L 392.892301 329.761064 
L 396.393649 329.759083 
L 396.551456 315.606426 
L 396.886796 296.827748 
L 396.93118 67.038523 
L 397.034741 188.353151 
L 397.236931 337.804253 
L 397.30104 338.252735 
L 397.360218 338.05738 
L 397.518025 336.363124 
L 397.843503 330.047499 
L 399.017194 300.235155 
L 399.051714 293.443213 
L 399.096097 69.14352 
L 399.194727 193.035494 
L 399.382123 338.674139 
L 399.461027 339.393791 
L 399.515273 339.217832 
L 399.668149 337.631323 
L 399.988695 331.580547 
L 401.339919 298.502208 
L 401.364576 284.626937 
L 401.40896 70.445834 
L 401.497726 184.41046 
L 401.704848 338.050304 
L 401.77882 338.580204 
L 401.833067 338.401142 
L 401.985942 336.833143 
L 402.306488 330.843785 
L 403.736616 296.897324 
L 403.751411 285.329206 
L 403.795794 71.715433 
L 403.88456 184.561 
L 404.091682 337.308875 
L 404.170586 337.922228 
L 404.224832 337.757144 
L 404.372777 336.300236 
L 404.683459 330.665321 
L 406.18756 296.038117 
L 406.207285 255.970184 
L 406.246737 72.632665 
L 406.335504 190.194351 
L 406.532763 336.619136 
L 406.621529 337.439445 
L 406.670844 337.310795 
L 406.808926 336.054146 
L 407.104814 330.937059 
L 408.677955 296.129753 
L 408.692749 276.343732 
L 408.737133 73.091889 
L 408.825899 188.161844 
L 409.02809 336.330126 
L 409.116856 337.106757 
L 409.166171 336.977065 
L 409.304252 335.729621 
L 409.600141 330.646325 
L 411.20287 295.745691 
L 411.222596 255.147673 
L 411.262048 73.560727 
L 411.350815 190.607895 
L 411.548074 335.993564 
L 411.641772 336.886413 
L 411.691086 336.764076 
L 411.829168 335.540622 
L 412.120125 330.609016 
L 413.752443 294.757282 
L 413.777101 220.503178 
L 413.80669 73.792728 
L 413.890525 180.341883 
L 414.102578 335.99512 
L 414.191345 336.715897 
L 414.240659 336.58496 
L 414.378741 335.352 
L 414.674629 330.319451 
L 416.311879 295.316725 
L 416.331605 251.430625 
L 416.371057 74.074363 
L 416.454892 184.69462 
L 416.662014 335.84249 
L 416.750781 336.620376 
L 416.800095 336.506074 
L 416.933245 335.366188 
L 417.219271 330.627259 
L 418.88611 294.995301 
L 418.910767 226.862382 
L 418.940356 74.255064 
L 419.024191 178.787997 
L 419.241176 335.87114 
L 419.325011 336.529269 
L 419.379257 336.389162 
L 419.52227 335.090686 
L 419.82309 329.929915 
L 421.213766 303.371405 
L 421.440614 298.056606 
L 421.470203 292.96502 
L 421.524449 74.280969 
L 421.623079 211.698893 
L 421.780886 334.53492 
L 421.909104 336.475352 
L 421.933762 336.436733 
L 422.032391 335.810882 
L 422.26417 332.584822 
L 422.79677 321.16357 
L 423.511834 307.707436 
L 424.024707 298.109591 
L 424.054296 293.658655 
L 424.083885 146.477822 
L 424.108542 74.230409 
L 424.187446 176.507166 
L 424.404431 335.724799 
L 424.493197 336.426114 
L 424.542512 336.300609 
L 424.680594 335.093709 
L 424.971551 330.224446 
L 425.982503 309.531067 
L 425.987435 310.926898 
L 426.150173 321.36165 
L 426.44113 326.186373 
L 426.845511 329.456925 
L 427.294276 331.432785 
L 427.752903 332.531241 
L 428.206599 333.08886 
L 428.68002 333.334534 
L 429.237277 333.365555 
L 430.021382 333.164476 
L 431.707946 332.437944 
L 434.045466 331.518758 
L 435.845455 331.007293 
L 435.845455 331.007293 
" style="fill:none;stroke:#ff0000;stroke-linecap:square;stroke-width:1.5;"/>
   </g>
   <g id="patch_3">
    <path d="M 63 384.48 
L 63 51.84 
" style="fill:none;stroke:#000000;stroke-linecap:square;stroke-linejoin:miter;stroke-width:0.8;"/>
   </g>
   <g id="patch_4">
    <path d="M 453.6 384.48 
L 453.6 51.84 
" style="fill:none;stroke:#000000;stroke-linecap:square;stroke-linejoin:miter;stroke-width:0.8;"/>
   </g>
   <g id="patch_5">
    <path d="M 63 384.48 
L 453.6 384.48 
" style="fill:none;stroke:#000000;stroke-linecap:square;stroke-linejoin:miter;stroke-width:0.8;"/>
   </g>
   <g id="patch_6">
    <path d="M 63 51.84 
L 453.6 51.84 
" style="fill:none;stroke:#000000;stroke-linecap:square;stroke-linejoin:miter;stroke-width:0.8;"/>
   </g>
   <g id="legend_1">
    <g id="patch_7">
     <path d="M 70 74.518125 
L 133.139062 74.518125 
Q 135.139062 74.518125 135.139062 72.518125 
L 135.139062 58.84 
Q 135.139062 56.84 133.139062 56.84 
L 70 56.84 
Q 68 56.84 68 58.84 
L 68 72.518125 
Q 68 74.518125 70 74.518125 
z
" style="fill:#ffffff;opacity:0.8;stroke:#cccccc;stroke-linejoin:miter;"/>
    </g>
    <g id="line2d_14">
     <path d="M 72 64.938438 
L 92 64.938438 
" style="fill:none;stroke:#ff0000;stroke-linecap:square;stroke-width:1.5;"/>
    </g>
    <g id="line2d_15"/>
    <g id="text_15">
     <!-- model -->
     <defs>
      <path d="M 45.40625 46.390625 
L 45.40625 75.984375 
L 54.390625 75.984375 
L 54.390625 0 
L 45.40625 0 
L 45.40625 8.203125 
Q 42.578125 3.328125 38.25 0.953125 
Q 33.9375 -1.421875 27.875 -1.421875 
Q 17.96875 -1.421875 11.734375 6.484375 
Q 5.515625 14.40625 5.515625 27.296875 
Q 5.515625 40.1875 11.734375 48.09375 
Q 17.96875 56 27.875 56 
Q 33.9375 56 38.25 53.625 
Q 42.578125 51.265625 45.40625 46.390625 
z
M 14.796875 27.296875 
Q 14.796875 17.390625 18.875 11.75 
Q 22.953125 6.109375 30.078125 6.109375 
Q 37.203125 6.109375 41.296875 11.75 
Q 45.40625 17.390625 45.40625 27.296875 
Q 45.40625 37.203125 41.296875 42.84375 
Q 37.203125 48.484375 30.078125 48.484375 
Q 22.953125 48.484375 18.875 42.84375 
Q 14.796875 37.203125 14.796875 27.296875 
z
" id="DejaVuSans-100"/>
     </defs>
     <g transform="translate(100 68.438438)scale(0.1 -0.1)">
      <use xlink:href="#DejaVuSans-109"/>
      <use x="97.412109" xlink:href="#DejaVuSans-111"/>
      <use x="158.59375" xlink:href="#DejaVuSans-100"/>
      <use x="222.070312" xlink:href="#DejaVuSans-101"/>
      <use x="283.59375" xlink:href="#DejaVuSans-108"/>
     </g>
    </g>
   </g>
  </g>
 </g>
 <defs>
  <clipPath id="p896788f8ce">
   <rect height="332.64" width="390.6" x="63" y="51.84"/>
  </clipPath>
 </defs>
</svg>
