<?xml version="1.0" encoding="utf-8" standalone="no"?>
<!DOCTYPE svg PUBLIC "-//W3C//DTD SVG 1.1//EN"
  "http://www.w3.org/Graphics/SVG/1.1/DTD/svg11.dtd">
<!-- Created with matplotlib (http://matplotlib.org/) -->
<svg height="432pt" version="1.1" viewBox="0 0 504 432" width="504pt" xmlns="http://www.w3.org/2000/svg" xmlns:xlink="http://www.w3.org/1999/xlink">
 <defs>
  <style type="text/css">
*{stroke-linecap:butt;stroke-linejoin:round;}
  </style>
 </defs>
 <g id="figure_1">
  <g id="patch_1">
   <path d="M 0 432 
L 504 432 
L 504 0 
L 0 0 
z
" style="fill:#ffffff;"/>
  </g>
  <g id="axes_1">
   <g id="patch_2">
    <path d="M 63 384.48 
L 453.6 384.48 
L 453.6 51.84 
L 63 51.84 
z
" style="fill:#ffffff;"/>
   </g>
   <g id="matplotlib.axis_1">
    <g id="xtick_1">
     <g id="line2d_1">
      <defs>
       <path d="M 0 0 
L 0 3.5 
" id="m89cc58bb64" style="stroke:#000000;stroke-width:0.8;"/>
      </defs>
      <g>
       <use style="stroke:#000000;stroke-width:0.8;" x="80.754545" xlink:href="#m89cc58bb64" y="384.48"/>
      </g>
     </g>
     <g id="text_1">
      <!-- 0 -->
      <defs>
       <path d="M 31.78125 66.40625 
Q 24.171875 66.40625 20.328125 58.90625 
Q 16.5 51.421875 16.5 36.375 
Q 16.5 21.390625 20.328125 13.890625 
Q 24.171875 6.390625 31.78125 6.390625 
Q 39.453125 6.390625 43.28125 13.890625 
Q 47.125 21.390625 47.125 36.375 
Q 47.125 51.421875 43.28125 58.90625 
Q 39.453125 66.40625 31.78125 66.40625 
z
M 31.78125 74.21875 
Q 44.046875 74.21875 50.515625 64.515625 
Q 56.984375 54.828125 56.984375 36.375 
Q 56.984375 17.96875 50.515625 8.265625 
Q 44.046875 -1.421875 31.78125 -1.421875 
Q 19.53125 -1.421875 13.0625 8.265625 
Q 6.59375 17.96875 6.59375 36.375 
Q 6.59375 54.828125 13.0625 64.515625 
Q 19.53125 74.21875 31.78125 74.21875 
z
" id="DejaVuSans-30"/>
      </defs>
      <g transform="translate(77.573295 399.078438)scale(0.1 -0.1)">
       <use xlink:href="#DejaVuSans-30"/>
      </g>
     </g>
    </g>
    <g id="xtick_2">
     <g id="line2d_2">
      <g>
       <use style="stroke:#000000;stroke-width:0.8;" x="151.772727" xlink:href="#m89cc58bb64" y="384.48"/>
      </g>
     </g>
     <g id="text_2">
      <!-- 200 -->
      <defs>
       <path d="M 19.1875 8.296875 
L 53.609375 8.296875 
L 53.609375 0 
L 7.328125 0 
L 7.328125 8.296875 
Q 12.9375 14.109375 22.625 23.890625 
Q 32.328125 33.6875 34.8125 36.53125 
Q 39.546875 41.84375 41.421875 45.53125 
Q 43.3125 49.21875 43.3125 52.78125 
Q 43.3125 58.59375 39.234375 62.25 
Q 35.15625 65.921875 28.609375 65.921875 
Q 23.96875 65.921875 18.8125 64.3125 
Q 13.671875 62.703125 7.8125 59.421875 
L 7.8125 69.390625 
Q 13.765625 71.78125 18.9375 73 
Q 24.125 74.21875 28.421875 74.21875 
Q 39.75 74.21875 46.484375 68.546875 
Q 53.21875 62.890625 53.21875 53.421875 
Q 53.21875 48.921875 51.53125 44.890625 
Q 49.859375 40.875 45.40625 35.40625 
Q 44.1875 33.984375 37.640625 27.21875 
Q 31.109375 20.453125 19.1875 8.296875 
z
" id="DejaVuSans-32"/>
      </defs>
      <g transform="translate(142.228977 399.078438)scale(0.1 -0.1)">
       <use xlink:href="#DejaVuSans-32"/>
       <use x="63.623047" xlink:href="#DejaVuSans-30"/>
       <use x="127.246094" xlink:href="#DejaVuSans-30"/>
      </g>
     </g>
    </g>
    <g id="xtick_3">
     <g id="line2d_3">
      <g>
       <use style="stroke:#000000;stroke-width:0.8;" x="222.790909" xlink:href="#m89cc58bb64" y="384.48"/>
      </g>
     </g>
     <g id="text_3">
      <!-- 400 -->
      <defs>
       <path d="M 37.796875 64.3125 
L 12.890625 25.390625 
L 37.796875 25.390625 
z
M 35.203125 72.90625 
L 47.609375 72.90625 
L 47.609375 25.390625 
L 58.015625 25.390625 
L 58.015625 17.1875 
L 47.609375 17.1875 
L 47.609375 0 
L 37.796875 0 
L 37.796875 17.1875 
L 4.890625 17.1875 
L 4.890625 26.703125 
z
" id="DejaVuSans-34"/>
      </defs>
      <g transform="translate(213.247159 399.078438)scale(0.1 -0.1)">
       <use xlink:href="#DejaVuSans-34"/>
       <use x="63.623047" xlink:href="#DejaVuSans-30"/>
       <use x="127.246094" xlink:href="#DejaVuSans-30"/>
      </g>
     </g>
    </g>
    <g id="xtick_4">
     <g id="line2d_4">
      <g>
       <use style="stroke:#000000;stroke-width:0.8;" x="293.809091" xlink:href="#m89cc58bb64" y="384.48"/>
      </g>
     </g>
     <g id="text_4">
      <!-- 600 -->
      <defs>
       <path d="M 33.015625 40.375 
Q 26.375 40.375 22.484375 35.828125 
Q 18.609375 31.296875 18.609375 23.390625 
Q 18.609375 15.53125 22.484375 10.953125 
Q 26.375 6.390625 33.015625 6.390625 
Q 39.65625 6.390625 43.53125 10.953125 
Q 47.40625 15.53125 47.40625 23.390625 
Q 47.40625 31.296875 43.53125 35.828125 
Q 39.65625 40.375 33.015625 40.375 
z
M 52.59375 71.296875 
L 52.59375 62.3125 
Q 48.875 64.0625 45.09375 64.984375 
Q 41.3125 65.921875 37.59375 65.921875 
Q 27.828125 65.921875 22.671875 59.328125 
Q 17.53125 52.734375 16.796875 39.40625 
Q 19.671875 43.65625 24.015625 45.921875 
Q 28.375 48.1875 33.59375 48.1875 
Q 44.578125 48.1875 50.953125 41.515625 
Q 57.328125 34.859375 57.328125 23.390625 
Q 57.328125 12.15625 50.6875 5.359375 
Q 44.046875 -1.421875 33.015625 -1.421875 
Q 20.359375 -1.421875 13.671875 8.265625 
Q 6.984375 17.96875 6.984375 36.375 
Q 6.984375 53.65625 15.1875 63.9375 
Q 23.390625 74.21875 37.203125 74.21875 
Q 40.921875 74.21875 44.703125 73.484375 
Q 48.484375 72.75 52.59375 71.296875 
z
" id="DejaVuSans-36"/>
      </defs>
      <g transform="translate(284.265341 399.078438)scale(0.1 -0.1)">
       <use xlink:href="#DejaVuSans-36"/>
       <use x="63.623047" xlink:href="#DejaVuSans-30"/>
       <use x="127.246094" xlink:href="#DejaVuSans-30"/>
      </g>
     </g>
    </g>
    <g id="xtick_5">
     <g id="line2d_5">
      <g>
       <use style="stroke:#000000;stroke-width:0.8;" x="364.827273" xlink:href="#m89cc58bb64" y="384.48"/>
      </g>
     </g>
     <g id="text_5">
      <!-- 800 -->
      <defs>
       <path d="M 31.78125 34.625 
Q 24.75 34.625 20.71875 30.859375 
Q 16.703125 27.09375 16.703125 20.515625 
Q 16.703125 13.921875 20.71875 10.15625 
Q 24.75 6.390625 31.78125 6.390625 
Q 38.8125 6.390625 42.859375 10.171875 
Q 46.921875 13.96875 46.921875 20.515625 
Q 46.921875 27.09375 42.890625 30.859375 
Q 38.875 34.625 31.78125 34.625 
z
M 21.921875 38.8125 
Q 15.578125 40.375 12.03125 44.71875 
Q 8.5 49.078125 8.5 55.328125 
Q 8.5 64.0625 14.71875 69.140625 
Q 20.953125 74.21875 31.78125 74.21875 
Q 42.671875 74.21875 48.875 69.140625 
Q 55.078125 64.0625 55.078125 55.328125 
Q 55.078125 49.078125 51.53125 44.71875 
Q 48 40.375 41.703125 38.8125 
Q 48.828125 37.15625 52.796875 32.3125 
Q 56.78125 27.484375 56.78125 20.515625 
Q 56.78125 9.90625 50.3125 4.234375 
Q 43.84375 -1.421875 31.78125 -1.421875 
Q 19.734375 -1.421875 13.25 4.234375 
Q 6.78125 9.90625 6.78125 20.515625 
Q 6.78125 27.484375 10.78125 32.3125 
Q 14.796875 37.15625 21.921875 38.8125 
z
M 18.3125 54.390625 
Q 18.3125 48.734375 21.84375 45.5625 
Q 25.390625 42.390625 31.78125 42.390625 
Q 38.140625 42.390625 41.71875 45.5625 
Q 45.3125 48.734375 45.3125 54.390625 
Q 45.3125 60.0625 41.71875 63.234375 
Q 38.140625 66.40625 31.78125 66.40625 
Q 25.390625 66.40625 21.84375 63.234375 
Q 18.3125 60.0625 18.3125 54.390625 
z
" id="DejaVuSans-38"/>
      </defs>
      <g transform="translate(355.283523 399.078438)scale(0.1 -0.1)">
       <use xlink:href="#DejaVuSans-38"/>
       <use x="63.623047" xlink:href="#DejaVuSans-30"/>
       <use x="127.246094" xlink:href="#DejaVuSans-30"/>
      </g>
     </g>
    </g>
    <g id="text_6">
     <!-- time [ms] -->
     <defs>
      <path d="M 18.3125 70.21875 
L 18.3125 54.6875 
L 36.8125 54.6875 
L 36.8125 47.703125 
L 18.3125 47.703125 
L 18.3125 18.015625 
Q 18.3125 11.328125 20.140625 9.421875 
Q 21.96875 7.515625 27.59375 7.515625 
L 36.8125 7.515625 
L 36.8125 0 
L 27.59375 0 
Q 17.1875 0 13.234375 3.875 
Q 9.28125 7.765625 9.28125 18.015625 
L 9.28125 47.703125 
L 2.6875 47.703125 
L 2.6875 54.6875 
L 9.28125 54.6875 
L 9.28125 70.21875 
z
" id="DejaVuSans-74"/>
      <path d="M 9.421875 54.6875 
L 18.40625 54.6875 
L 18.40625 0 
L 9.421875 0 
z
M 9.421875 75.984375 
L 18.40625 75.984375 
L 18.40625 64.59375 
L 9.421875 64.59375 
z
" id="DejaVuSans-69"/>
      <path d="M 52 44.1875 
Q 55.375 50.25 60.0625 53.125 
Q 64.75 56 71.09375 56 
Q 79.640625 56 84.28125 50.015625 
Q 88.921875 44.046875 88.921875 33.015625 
L 88.921875 0 
L 79.890625 0 
L 79.890625 32.71875 
Q 79.890625 40.578125 77.09375 44.375 
Q 74.3125 48.1875 68.609375 48.1875 
Q 61.625 48.1875 57.5625 43.546875 
Q 53.515625 38.921875 53.515625 30.90625 
L 53.515625 0 
L 44.484375 0 
L 44.484375 32.71875 
Q 44.484375 40.625 41.703125 44.40625 
Q 38.921875 48.1875 33.109375 48.1875 
Q 26.21875 48.1875 22.15625 43.53125 
Q 18.109375 38.875 18.109375 30.90625 
L 18.109375 0 
L 9.078125 0 
L 9.078125 54.6875 
L 18.109375 54.6875 
L 18.109375 46.1875 
Q 21.1875 51.21875 25.484375 53.609375 
Q 29.78125 56 35.6875 56 
Q 41.65625 56 45.828125 52.96875 
Q 50 49.953125 52 44.1875 
z
" id="DejaVuSans-6d"/>
      <path d="M 56.203125 29.59375 
L 56.203125 25.203125 
L 14.890625 25.203125 
Q 15.484375 15.921875 20.484375 11.0625 
Q 25.484375 6.203125 34.421875 6.203125 
Q 39.59375 6.203125 44.453125 7.46875 
Q 49.3125 8.734375 54.109375 11.28125 
L 54.109375 2.78125 
Q 49.265625 0.734375 44.1875 -0.34375 
Q 39.109375 -1.421875 33.890625 -1.421875 
Q 20.796875 -1.421875 13.15625 6.1875 
Q 5.515625 13.8125 5.515625 26.8125 
Q 5.515625 40.234375 12.765625 48.109375 
Q 20.015625 56 32.328125 56 
Q 43.359375 56 49.78125 48.890625 
Q 56.203125 41.796875 56.203125 29.59375 
z
M 47.21875 32.234375 
Q 47.125 39.59375 43.09375 43.984375 
Q 39.0625 48.390625 32.421875 48.390625 
Q 24.90625 48.390625 20.390625 44.140625 
Q 15.875 39.890625 15.1875 32.171875 
z
" id="DejaVuSans-65"/>
      <path id="DejaVuSans-20"/>
      <path d="M 8.59375 75.984375 
L 29.296875 75.984375 
L 29.296875 69 
L 17.578125 69 
L 17.578125 -6.203125 
L 29.296875 -6.203125 
L 29.296875 -13.1875 
L 8.59375 -13.1875 
z
" id="DejaVuSans-5b"/>
      <path d="M 44.28125 53.078125 
L 44.28125 44.578125 
Q 40.484375 46.53125 36.375 47.5 
Q 32.28125 48.484375 27.875 48.484375 
Q 21.1875 48.484375 17.84375 46.4375 
Q 14.5 44.390625 14.5 40.28125 
Q 14.5 37.15625 16.890625 35.375 
Q 19.28125 33.59375 26.515625 31.984375 
L 29.59375 31.296875 
Q 39.15625 29.25 43.1875 25.515625 
Q 47.21875 21.78125 47.21875 15.09375 
Q 47.21875 7.46875 41.1875 3.015625 
Q 35.15625 -1.421875 24.609375 -1.421875 
Q 20.21875 -1.421875 15.453125 -0.5625 
Q 10.6875 0.296875 5.421875 2 
L 5.421875 11.28125 
Q 10.40625 8.6875 15.234375 7.390625 
Q 20.0625 6.109375 24.8125 6.109375 
Q 31.15625 6.109375 34.5625 8.28125 
Q 37.984375 10.453125 37.984375 14.40625 
Q 37.984375 18.0625 35.515625 20.015625 
Q 33.0625 21.96875 24.703125 23.78125 
L 21.578125 24.515625 
Q 13.234375 26.265625 9.515625 29.90625 
Q 5.8125 33.546875 5.8125 39.890625 
Q 5.8125 47.609375 11.28125 51.796875 
Q 16.75 56 26.8125 56 
Q 31.78125 56 36.171875 55.265625 
Q 40.578125 54.546875 44.28125 53.078125 
z
" id="DejaVuSans-73"/>
      <path d="M 30.421875 75.984375 
L 30.421875 -13.1875 
L 9.71875 -13.1875 
L 9.71875 -6.203125 
L 21.390625 -6.203125 
L 21.390625 69 
L 9.71875 69 
L 9.71875 75.984375 
z
" id="DejaVuSans-5d"/>
     </defs>
     <g transform="translate(234.038281 412.756563)scale(0.1 -0.1)">
      <use xlink:href="#DejaVuSans-74"/>
      <use x="39.208984" xlink:href="#DejaVuSans-69"/>
      <use x="66.992188" xlink:href="#DejaVuSans-6d"/>
      <use x="164.404297" xlink:href="#DejaVuSans-65"/>
      <use x="225.927734" xlink:href="#DejaVuSans-20"/>
      <use x="257.714844" xlink:href="#DejaVuSans-5b"/>
      <use x="296.728516" xlink:href="#DejaVuSans-6d"/>
      <use x="394.140625" xlink:href="#DejaVuSans-73"/>
      <use x="446.240234" xlink:href="#DejaVuSans-5d"/>
     </g>
    </g>
   </g>
   <g id="matplotlib.axis_2">
    <g id="ytick_1">
     <g id="line2d_6">
      <defs>
       <path d="M 0 0 
L -3.5 0 
" id="mc7588a5d7d" style="stroke:#000000;stroke-width:0.8;"/>
      </defs>
      <g>
       <use style="stroke:#000000;stroke-width:0.8;" x="63" xlink:href="#mc7588a5d7d" y="380.560681"/>
      </g>
     </g>
     <g id="text_7">
      <!-- −80 -->
      <defs>
       <path d="M 10.59375 35.5 
L 73.1875 35.5 
L 73.1875 27.203125 
L 10.59375 27.203125 
z
" id="DejaVuSans-2212"/>
      </defs>
      <g transform="translate(34.895313 384.3599)scale(0.1 -0.1)">
       <use xlink:href="#DejaVuSans-2212"/>
       <use x="83.789062" xlink:href="#DejaVuSans-38"/>
       <use x="147.412109" xlink:href="#DejaVuSans-30"/>
      </g>
     </g>
    </g>
    <g id="ytick_2">
     <g id="line2d_7">
      <g>
       <use style="stroke:#000000;stroke-width:0.8;" x="63" xlink:href="#mc7588a5d7d" y="332.540667"/>
      </g>
     </g>
     <g id="text_8">
      <!-- −60 -->
      <g transform="translate(34.895313 336.339886)scale(0.1 -0.1)">
       <use xlink:href="#DejaVuSans-2212"/>
       <use x="83.789062" xlink:href="#DejaVuSans-36"/>
       <use x="147.412109" xlink:href="#DejaVuSans-30"/>
      </g>
     </g>
    </g>
    <g id="ytick_3">
     <g id="line2d_8">
      <g>
       <use style="stroke:#000000;stroke-width:0.8;" x="63" xlink:href="#mc7588a5d7d" y="284.520654"/>
      </g>
     </g>
     <g id="text_9">
      <!-- −40 -->
      <g transform="translate(34.895313 288.319873)scale(0.1 -0.1)">
       <use xlink:href="#DejaVuSans-2212"/>
       <use x="83.789062" xlink:href="#DejaVuSans-34"/>
       <use x="147.412109" xlink:href="#DejaVuSans-30"/>
      </g>
     </g>
    </g>
    <g id="ytick_4">
     <g id="line2d_9">
      <g>
       <use style="stroke:#000000;stroke-width:0.8;" x="63" xlink:href="#mc7588a5d7d" y="236.50064"/>
      </g>
     </g>
     <g id="text_10">
      <!-- −20 -->
      <g transform="translate(34.895313 240.299859)scale(0.1 -0.1)">
       <use xlink:href="#DejaVuSans-2212"/>
       <use x="83.789062" xlink:href="#DejaVuSans-32"/>
       <use x="147.412109" xlink:href="#DejaVuSans-30"/>
      </g>
     </g>
    </g>
    <g id="ytick_5">
     <g id="line2d_10">
      <g>
       <use style="stroke:#000000;stroke-width:0.8;" x="63" xlink:href="#mc7588a5d7d" y="188.480627"/>
      </g>
     </g>
     <g id="text_11">
      <!-- 0 -->
      <g transform="translate(49.6375 192.279846)scale(0.1 -0.1)">
       <use xlink:href="#DejaVuSans-30"/>
      </g>
     </g>
    </g>
    <g id="ytick_6">
     <g id="line2d_11">
      <g>
       <use style="stroke:#000000;stroke-width:0.8;" x="63" xlink:href="#mc7588a5d7d" y="140.460613"/>
      </g>
     </g>
     <g id="text_12">
      <!-- 20 -->
      <g transform="translate(43.275 144.259832)scale(0.1 -0.1)">
       <use xlink:href="#DejaVuSans-32"/>
       <use x="63.623047" xlink:href="#DejaVuSans-30"/>
      </g>
     </g>
    </g>
    <g id="ytick_7">
     <g id="line2d_12">
      <g>
       <use style="stroke:#000000;stroke-width:0.8;" x="63" xlink:href="#mc7588a5d7d" y="92.4406"/>
      </g>
     </g>
     <g id="text_13">
      <!-- 40 -->
      <g transform="translate(43.275 96.239819)scale(0.1 -0.1)">
       <use xlink:href="#DejaVuSans-34"/>
       <use x="63.623047" xlink:href="#DejaVuSans-30"/>
      </g>
     </g>
    </g>
    <g id="text_14">
     <!-- voltage [V] -->
     <defs>
      <path d="M 2.984375 54.6875 
L 12.5 54.6875 
L 29.59375 8.796875 
L 46.6875 54.6875 
L 56.203125 54.6875 
L 35.6875 0 
L 23.484375 0 
z
" id="DejaVuSans-76"/>
      <path d="M 30.609375 48.390625 
Q 23.390625 48.390625 19.1875 42.75 
Q 14.984375 37.109375 14.984375 27.296875 
Q 14.984375 17.484375 19.15625 11.84375 
Q 23.34375 6.203125 30.609375 6.203125 
Q 37.796875 6.203125 41.984375 11.859375 
Q 46.1875 17.53125 46.1875 27.296875 
Q 46.1875 37.015625 41.984375 42.703125 
Q 37.796875 48.390625 30.609375 48.390625 
z
M 30.609375 56 
Q 42.328125 56 49.015625 48.375 
Q 55.71875 40.765625 55.71875 27.296875 
Q 55.71875 13.875 49.015625 6.21875 
Q 42.328125 -1.421875 30.609375 -1.421875 
Q 18.84375 -1.421875 12.171875 6.21875 
Q 5.515625 13.875 5.515625 27.296875 
Q 5.515625 40.765625 12.171875 48.375 
Q 18.84375 56 30.609375 56 
z
" id="DejaVuSans-6f"/>
      <path d="M 9.421875 75.984375 
L 18.40625 75.984375 
L 18.40625 0 
L 9.421875 0 
z
" id="DejaVuSans-6c"/>
      <path d="M 34.28125 27.484375 
Q 23.390625 27.484375 19.1875 25 
Q 14.984375 22.515625 14.984375 16.5 
Q 14.984375 11.71875 18.140625 8.90625 
Q 21.296875 6.109375 26.703125 6.109375 
Q 34.1875 6.109375 38.703125 11.40625 
Q 43.21875 16.703125 43.21875 25.484375 
L 43.21875 27.484375 
z
M 52.203125 31.203125 
L 52.203125 0 
L 43.21875 0 
L 43.21875 8.296875 
Q 40.140625 3.328125 35.546875 0.953125 
Q 30.953125 -1.421875 24.3125 -1.421875 
Q 15.921875 -1.421875 10.953125 3.296875 
Q 6 8.015625 6 15.921875 
Q 6 25.140625 12.171875 29.828125 
Q 18.359375 34.515625 30.609375 34.515625 
L 43.21875 34.515625 
L 43.21875 35.40625 
Q 43.21875 41.609375 39.140625 45 
Q 35.0625 48.390625 27.6875 48.390625 
Q 23 48.390625 18.546875 47.265625 
Q 14.109375 46.140625 10.015625 43.890625 
L 10.015625 52.203125 
Q 14.9375 54.109375 19.578125 55.046875 
Q 24.21875 56 28.609375 56 
Q 40.484375 56 46.34375 49.84375 
Q 52.203125 43.703125 52.203125 31.203125 
z
" id="DejaVuSans-61"/>
      <path d="M 45.40625 27.984375 
Q 45.40625 37.75 41.375 43.109375 
Q 37.359375 48.484375 30.078125 48.484375 
Q 22.859375 48.484375 18.828125 43.109375 
Q 14.796875 37.75 14.796875 27.984375 
Q 14.796875 18.265625 18.828125 12.890625 
Q 22.859375 7.515625 30.078125 7.515625 
Q 37.359375 7.515625 41.375 12.890625 
Q 45.40625 18.265625 45.40625 27.984375 
z
M 54.390625 6.78125 
Q 54.390625 -7.171875 48.1875 -13.984375 
Q 42 -20.796875 29.203125 -20.796875 
Q 24.46875 -20.796875 20.265625 -20.09375 
Q 16.0625 -19.390625 12.109375 -17.921875 
L 12.109375 -9.1875 
Q 16.0625 -11.328125 19.921875 -12.34375 
Q 23.78125 -13.375 27.78125 -13.375 
Q 36.625 -13.375 41.015625 -8.765625 
Q 45.40625 -4.15625 45.40625 5.171875 
L 45.40625 9.625 
Q 42.625 4.78125 38.28125 2.390625 
Q 33.9375 0 27.875 0 
Q 17.828125 0 11.671875 7.65625 
Q 5.515625 15.328125 5.515625 27.984375 
Q 5.515625 40.671875 11.671875 48.328125 
Q 17.828125 56 27.875 56 
Q 33.9375 56 38.28125 53.609375 
Q 42.625 51.21875 45.40625 46.390625 
L 45.40625 54.6875 
L 54.390625 54.6875 
z
" id="DejaVuSans-67"/>
      <path d="M 28.609375 0 
L 0.78125 72.90625 
L 11.078125 72.90625 
L 34.1875 11.53125 
L 57.328125 72.90625 
L 67.578125 72.90625 
L 39.796875 0 
z
" id="DejaVuSans-56"/>
     </defs>
     <g transform="translate(28.815625 245.75375)rotate(-90)scale(0.1 -0.1)">
      <use xlink:href="#DejaVuSans-76"/>
      <use x="59.179688" xlink:href="#DejaVuSans-6f"/>
      <use x="120.361328" xlink:href="#DejaVuSans-6c"/>
      <use x="148.144531" xlink:href="#DejaVuSans-74"/>
      <use x="187.353516" xlink:href="#DejaVuSans-61"/>
      <use x="248.632812" xlink:href="#DejaVuSans-67"/>
      <use x="312.109375" xlink:href="#DejaVuSans-65"/>
      <use x="373.632812" xlink:href="#DejaVuSans-20"/>
      <use x="405.419922" xlink:href="#DejaVuSans-5b"/>
      <use x="444.433594" xlink:href="#DejaVuSans-56"/>
      <use x="512.841797" xlink:href="#DejaVuSans-5d"/>
     </g>
    </g>
   </g>
   <g id="line2d_13">
    <path clip-path="url(#pa92e06c1af)" d="M 80.754545 344.545665 
L 81.926345 344.567598 
L 88.726336 345.09426 
L 101.314309 345.974229 
L 113.440664 346.591288 
L 126.969627 347.051326 
L 142.859945 347.361728 
L 151.772727 347.458038 
L 151.8615 346.011125 
L 152.234345 340.11541 
L 152.731473 335.98885 
L 153.565936 331.113497 
L 155.004055 324.163908 
L 156.726245 316.924803 
L 158.430682 310.675869 
L 160.046345 305.558023 
L 161.608745 301.3255 
L 163.1889 297.682188 
L 164.893336 294.311982 
L 167.503255 289.717643 
L 169.065655 286.747384 
L 169.900118 284.686389 
L 170.468264 282.646039 
L 170.841109 280.374516 
L 171.071918 277.44276 
L 171.1962 272.956763 
L 171.249464 267.206893 
L 171.622309 133.055882 
L 171.675573 131.38027 
L 171.746591 131.552813 
L 171.906382 140.736619 
L 172.190455 178.448765 
L 172.847373 263.120571 
L 173.220218 287.821169 
L 173.5398 296.679558 
L 173.912645 301.298834 
L 174.303245 303.715746 
L 174.782618 305.298405 
L 175.244236 306.117871 
L 175.723609 306.540152 
L 176.220736 306.665937 
L 176.771127 306.542477 
L 177.392536 306.164176 
L 178.209245 305.39997 
L 179.416555 303.929631 
L 181.724645 300.668227 
L 184.973727 296.166383 
L 187.636909 292.874702 
L 192.519409 286.94785 
L 193.566927 285.239884 
L 194.294864 283.624766 
L 194.791991 281.98527 
L 195.129327 280.156595 
L 195.377891 277.470609 
L 195.502173 274.03024 
L 195.573191 267.42222 
L 195.626455 247.752647 
L 195.839509 153.437212 
L 196.017055 147.260277 
L 196.034809 147.230558 
L 196.176845 149.90674 
L 196.407655 162.128023 
L 196.744991 197.057826 
L 197.437418 266.901962 
L 197.810264 284.603279 
L 198.200864 292.992858 
L 198.591464 297.026466 
L 199.070836 299.672067 
L 199.550209 301.223989 
L 200.1006 302.319951 
L 200.6865 302.998745 
L 201.254645 303.334819 
L 201.8583 303.443737 
L 202.586236 303.328345 
L 203.456209 302.943022 
L 204.574745 302.190515 
L 206.243673 300.774756 
L 216.203973 291.876469 
L 220.180991 288.443572 
L 221.832164 286.721328 
L 222.932945 285.257056 
L 223.678636 283.921494 
L 224.246782 282.450906 
L 224.655136 280.750122 
L 224.939209 278.525058 
L 225.116755 275.071579 
L 225.223282 268.079363 
L 225.578373 150.978072 
L 225.596127 150.892201 
L 225.649391 151.020209 
L 225.809182 154.941229 
L 226.111009 170.558357 
L 226.483855 203.946638 
L 227.211791 267.120329 
L 227.620145 282.854375 
L 227.992991 290.03409 
L 228.436855 294.441838 
L 228.933982 297.165004 
L 229.502127 299.032893 
L 230.123536 300.306283 
L 230.7627 301.114177 
L 231.419618 301.589905 
L 232.1298 301.81876 
L 232.928755 301.822737 
L 233.851991 301.59314 
L 235.023791 301.061461 
L 236.674964 300.044018 
L 239.533445 297.971834 
L 247.736045 291.956356 
L 251.766327 288.919632 
L 253.666064 287.219424 
L 254.944391 285.787453 
L 255.849873 284.4445 
L 256.506791 283.067512 
L 256.968409 281.595391 
L 257.305745 279.755262 
L 257.5188 277.44648 
L 257.643082 274.229937 
L 257.731855 265.59504 
L 257.767364 254.36293 
L 257.998173 155.160024 
L 258.122455 151.387802 
L 258.157964 151.823477 
L 258.264491 154.312936 
L 258.566318 168.916748 
L 258.956918 200.676335 
L 259.755873 266.999699 
L 260.181982 282.693913 
L 260.590336 289.950317 
L 261.016445 293.805519 
L 261.495818 296.252993 
L 262.028455 297.929145 
L 262.667618 299.208488 
L 263.342291 300.051101 
L 263.999209 300.54033 
L 264.727145 300.81134 
L 265.561609 300.869274 
L 266.520355 300.700473 
L 267.727664 300.247808 
L 269.343327 299.388328 
L 271.971 297.698702 
L 283.156364 290.012197 
L 285.659755 288.049203 
L 287.239909 286.540613 
L 288.358445 285.16615 
L 289.139645 283.8592 
L 289.707791 282.48048 
L 290.116145 280.90866 
L 290.400218 278.945818 
L 290.577764 276.410278 
L 290.702045 271.047631 
L 290.773064 251.57576 
L 291.1104 151.628806 
L 291.128155 151.597748 
L 291.145909 151.646978 
L 291.341209 157.311316 
L 291.643036 174.248226 
L 292.175673 221.44284 
L 292.761573 266.635357 
L 293.152173 281.347143 
L 293.560527 289.170057 
L 294.004391 293.422378 
L 294.501518 296.034526 
L 295.051909 297.778189 
L 295.691073 299.056412 
L 296.365745 299.900534 
L 297.040418 300.403941 
L 297.786109 300.679806 
L 298.585064 300.74017 
L 299.526055 300.589387 
L 300.768873 300.141731 
L 302.366782 299.313764 
L 304.9767 297.67124 
L 315.682691 290.438841 
L 318.470155 288.338286 
L 320.156836 286.807658 
L 321.328636 285.460697 
L 322.198609 284.115051 
L 322.820018 282.727419 
L 323.281636 281.080742 
L 323.583464 279.135454 
L 323.761009 276.795166 
L 323.885291 272.839322 
L 323.974064 251.735908 
L 324.204873 155.436424 
L 324.3114 151.441647 
L 324.346909 151.784527 
L 324.453436 153.944861 
L 324.755264 168.318135 
L 325.163618 200.989108 
L 325.962573 266.506789 
L 326.388682 282.262268 
L 326.797036 289.68216 
L 327.2409 293.73627 
L 327.738027 296.24076 
L 328.306173 297.95905 
L 328.927582 299.145384 
L 329.602255 299.953296 
L 330.276927 300.430564 
L 331.040373 300.688379 
L 331.839327 300.727957 
L 332.851336 300.539693 
L 334.111909 300.057213 
L 335.851855 299.124628 
L 338.657073 297.330643 
L 350.2863 289.432268 
L 352.487864 287.659907 
L 353.925982 286.236999 
L 354.955745 284.917676 
L 355.701436 283.605675 
L 356.251827 282.170803 
L 356.624673 280.604328 
L 356.908745 278.362914 
L 357.086291 274.775602 
L 357.175064 268.566528 
L 357.210573 258.449857 
L 357.476891 153.5969 
L 357.565664 151.558939 
L 357.618927 151.977604 
L 357.778718 156.663471 
L 358.116055 175.725522 
L 358.648691 223.341332 
L 359.216836 266.814162 
L 359.625191 282.068806 
L 360.033545 289.658358 
L 360.459655 293.665654 
L 360.939027 296.168138 
L 361.471664 297.852568 
L 362.093073 299.094061 
L 362.749991 299.918548 
L 363.460173 300.443085 
L 364.205864 300.707337 
L 364.880536 300.903861 
L 365.750509 311.030621 
L 366.389673 314.265341 
L 367.259645 317.53646 
L 368.289409 320.575503 
L 369.478964 323.393709 
L 370.775045 325.895866 
L 372.213164 328.184295 
L 373.757809 330.227178 
L 375.462245 332.111612 
L 377.326473 333.838531 
L 379.368245 335.4261 
L 381.658582 336.919012 
L 384.197482 338.303017 
L 387.073718 339.609669 
L 390.287291 340.821489 
L 393.962482 341.966061 
L 398.152555 343.0356 
L 402.981791 344.035427 
L 408.521209 344.951527 
L 414.859582 345.770642 
L 422.085682 346.476528 
L 430.341545 347.05542 
L 435.8277 347.334424 
L 435.8277 347.334424 
" style="fill:none;stroke:#1f77b4;stroke-linecap:square;stroke-width:1.5;"/>
   </g>
   <g id="line2d_14">
    <path clip-path="url(#pa92e06c1af)" d="M 80.754545 344.545671 
L 81.322691 344.601217 
L 94.372282 346.340923 
L 100.178018 346.730516 
L 106.960255 346.954476 
L 115.890791 347.011285 
L 134.621836 346.842915 
L 151.772727 346.734861 
L 151.985782 339.480759 
L 152.411891 332.999567 
L 153.051055 326.689492 
L 153.903273 320.454161 
L 154.826509 315.252185 
L 155.7675 311.168248 
L 156.726245 307.969398 
L 157.7205 305.401687 
L 158.803527 303.212119 
L 160.010836 301.274835 
L 161.413445 299.453481 
L 163.259918 297.446111 
L 165.745555 294.740121 
L 166.509 293.561275 
L 167.006127 292.390904 
L 167.343464 291.001005 
L 167.556518 289.164364 
L 167.6808 286.342406 
L 167.751818 279.790917 
L 167.787327 245.097753 
L 167.822836 66.96 
L 167.893855 130.224684 
L 168.302209 362.846063 
L 168.586282 367.283652 
L 168.8526 368.538072 
L 169.083409 368.789694 
L 169.314218 368.735867 
L 169.616045 368.388795 
L 170.042155 367.505239 
L 170.6103 365.770148 
L 171.355991 362.711903 
L 172.314736 357.760366 
L 173.823873 348.609069 
L 176.380527 333.193093 
L 177.783136 326.138675 
L 179.061464 320.815918 
L 180.286527 316.637521 
L 181.511591 313.225504 
L 182.772164 310.358283 
L 184.086 307.912114 
L 185.470855 305.794297 
L 186.962236 303.9171 
L 188.5779 302.241237 
L 190.371109 300.70544 
L 192.430636 299.241628 
L 195.040555 297.67454 
L 199.621227 294.968212 
L 200.704255 294.036968 
L 201.414436 293.138819 
L 201.893809 292.171628 
L 202.231145 290.961543 
L 202.461955 289.199575 
L 202.603991 286.079993 
L 202.675009 278.726264 
L 202.710518 225.621939 
L 202.746027 69.363225 
L 202.817045 134.032516 
L 203.2254 363.500692 
L 203.544982 367.767152 
L 203.829055 369.091172 
L 204.077618 369.356382 
L 204.308427 369.279716 
L 204.610255 368.9038 
L 205.054118 367.946285 
L 205.657773 366.045958 
L 206.421218 362.83782 
L 207.415473 357.610951 
L 209.031136 347.723697 
L 211.374736 333.641709 
L 212.777345 326.566905 
L 214.055673 321.220886 
L 215.280736 317.021757 
L 216.5058 313.594683 
L 217.766373 310.719831 
L 219.062455 308.304203 
L 220.429555 306.214803 
L 221.885427 304.387728 
L 223.465582 302.760128 
L 225.187773 301.305599 
L 227.123018 299.965783 
L 229.377845 298.682415 
L 232.307345 297.287821 
L 237.278618 294.95269 
L 238.521436 294.094163 
L 239.302636 293.297779 
L 239.835273 292.446581 
L 240.208118 291.433629 
L 240.474436 290.027236 
L 240.651982 287.717345 
L 240.740755 283.981658 
L 240.794018 270.300155 
L 240.847282 69.312484 
L 240.936055 146.927774 
L 241.362164 364.229425 
L 241.6995 367.781222 
L 241.983573 368.949542 
L 242.232136 369.200355 
L 242.462945 369.117602 
L 242.764773 368.731146 
L 243.208636 367.75447 
L 243.812291 365.824796 
L 244.575736 362.581397 
L 245.587745 357.223393 
L 247.309936 346.671553 
L 249.475991 333.780581 
L 250.8786 326.747862 
L 252.156927 321.432305 
L 253.381991 317.255118 
L 254.607055 313.844792 
L 255.867627 310.984237 
L 257.163709 308.582384 
L 258.530809 306.508164 
L 259.986682 304.699253 
L 261.549082 303.111136 
L 263.253518 301.697582 
L 265.1355 300.428521 
L 267.266045 299.263163 
L 269.804945 298.135342 
L 273.213818 296.882731 
L 278.398145 294.984717 
L 279.854018 294.202567 
L 280.777255 293.463127 
L 281.380909 292.705849 
L 281.807018 291.818494 
L 282.108845 290.66591 
L 282.3219 288.883504 
L 282.446182 285.919811 
L 282.5172 277.763034 
L 282.552709 200.268027 
L 282.570464 68.991021 
L 282.659236 135.400114 
L 283.067591 363.722739 
L 283.369418 367.201881 
L 283.689 368.743667 
L 283.937564 369.085652 
L 284.150618 369.067235 
L 284.434691 368.772024 
L 284.843045 367.967811 
L 285.393436 366.348259 
L 286.121373 363.450868 
L 287.062364 358.706969 
L 288.500482 350.139844 
L 291.252436 333.689505 
L 292.655045 326.726195 
L 293.933373 321.465462 
L 295.158436 317.331042 
L 296.3835 313.955056 
L 297.644073 311.123444 
L 298.940155 308.747098 
L 300.307255 306.697273 
L 301.763127 304.913253 
L 303.325527 303.352071 
L 305.012209 301.982554 
L 306.858682 300.769914 
L 308.935964 299.673726 
L 311.350582 298.657546 
L 314.262327 297.682145 
L 318.292609 296.586185 
L 324.169364 294.984134 
L 325.909309 294.269769 
L 326.974582 293.604745 
L 327.684764 292.903208 
L 328.164136 292.12086 
L 328.501473 291.152389 
L 328.750036 289.713151 
L 328.909827 287.356277 
L 328.9986 282.58081 
L 329.034109 272.93545 
L 329.087373 67.218085 
L 329.1939 155.763856 
L 329.637764 364.334213 
L 329.9751 367.479694 
L 330.259173 368.498934 
L 330.507736 368.716126 
L 330.738545 368.620302 
L 331.058127 368.185912 
L 331.519745 367.11482 
L 332.141155 365.040164 
L 332.940109 361.527136 
L 334.023136 355.659717 
L 338.905636 327.8006 
L 340.201718 322.363709 
L 341.444536 318.08157 
L 342.6696 314.630877 
L 343.930173 311.732859 
L 345.226255 309.300501 
L 346.593355 307.204185 
L 348.031473 305.403056 
L 349.558364 303.842874 
L 351.209536 302.472174 
L 353.0205 301.260029 
L 355.026764 300.187358 
L 357.3171 299.2205 
L 359.980282 298.343615 
L 363.229364 297.516229 
L 364.827273 297.175401 
L 365.040327 304.484886 
L 365.395418 309.275474 
L 365.928055 313.407439 
L 366.655991 317.320049 
L 367.579227 321.085257 
L 368.662255 324.577606 
L 369.869564 327.733357 
L 371.201155 330.601299 
L 372.657027 333.213213 
L 374.237182 335.594155 
L 375.941618 337.764677 
L 377.788091 339.758564 
L 379.7766 341.579316 
L 381.907145 343.228105 
L 384.161973 344.692868 
L 386.558836 345.983914 
L 389.079982 347.088317 
L 391.743164 348.01022 
L 394.548382 348.745221 
L 397.566655 349.303653 
L 400.851245 349.682154 
L 404.561945 349.880472 
L 408.982827 349.884772 
L 414.912845 349.651409 
L 435.845455 348.563159 
L 435.845455 348.563159 
" style="fill:none;stroke:#ff0000;stroke-linecap:square;stroke-width:1.5;"/>
   </g>
   <g id="patch_3">
    <path d="M 63 384.48 
L 63 51.84 
" style="fill:none;stroke:#000000;stroke-linecap:square;stroke-linejoin:miter;stroke-width:0.8;"/>
   </g>
   <g id="patch_4">
    <path d="M 453.6 384.48 
L 453.6 51.84 
" style="fill:none;stroke:#000000;stroke-linecap:square;stroke-linejoin:miter;stroke-width:0.8;"/>
   </g>
   <g id="patch_5">
    <path d="M 63 384.48 
L 453.6 384.48 
" style="fill:none;stroke:#000000;stroke-linecap:square;stroke-linejoin:miter;stroke-width:0.8;"/>
   </g>
   <g id="patch_6">
    <path d="M 63 51.84 
L 453.6 51.84 
" style="fill:none;stroke:#000000;stroke-linecap:square;stroke-linejoin:miter;stroke-width:0.8;"/>
   </g>
   <g id="legend_1">
    <g id="patch_7">
     <path d="M 383.460938 89.19625 
L 446.6 89.19625 
Q 448.6 89.19625 448.6 87.19625 
L 448.6 58.84 
Q 448.6 56.84 446.6 56.84 
L 383.460938 56.84 
Q 381.460938 56.84 381.460938 58.84 
L 381.460938 87.19625 
Q 381.460938 89.19625 383.460938 89.19625 
z
" style="fill:#ffffff;opacity:0.8;stroke:#cccccc;stroke-linejoin:miter;"/>
    </g>
    <g id="line2d_15">
     <path d="M 385.460938 64.938437 
L 405.460938 64.938437 
" style="fill:none;stroke:#1f77b4;stroke-linecap:square;stroke-width:1.5;"/>
    </g>
    <g id="line2d_16"/>
    <g id="text_15">
     <!-- target -->
     <defs>
      <path d="M 41.109375 46.296875 
Q 39.59375 47.171875 37.8125 47.578125 
Q 36.03125 48 33.890625 48 
Q 26.265625 48 22.1875 43.046875 
Q 18.109375 38.09375 18.109375 28.8125 
L 18.109375 0 
L 9.078125 0 
L 9.078125 54.6875 
L 18.109375 54.6875 
L 18.109375 46.1875 
Q 20.953125 51.171875 25.484375 53.578125 
Q 30.03125 56 36.53125 56 
Q 37.453125 56 38.578125 55.875 
Q 39.703125 55.765625 41.0625 55.515625 
z
" id="DejaVuSans-72"/>
     </defs>
     <g transform="translate(413.460938 68.438437)scale(0.1 -0.1)">
      <use xlink:href="#DejaVuSans-74"/>
      <use x="39.208984" xlink:href="#DejaVuSans-61"/>
      <use x="100.488281" xlink:href="#DejaVuSans-72"/>
      <use x="141.585938" xlink:href="#DejaVuSans-67"/>
      <use x="205.0625" xlink:href="#DejaVuSans-65"/>
      <use x="266.585938" xlink:href="#DejaVuSans-74"/>
     </g>
    </g>
    <g id="line2d_17">
     <path d="M 385.460938 79.616562 
L 405.460938 79.616562 
" style="fill:none;stroke:#ff0000;stroke-linecap:square;stroke-width:1.5;"/>
    </g>
    <g id="line2d_18"/>
    <g id="text_16">
     <!-- model -->
     <defs>
      <path d="M 45.40625 46.390625 
L 45.40625 75.984375 
L 54.390625 75.984375 
L 54.390625 0 
L 45.40625 0 
L 45.40625 8.203125 
Q 42.578125 3.328125 38.25 0.953125 
Q 33.9375 -1.421875 27.875 -1.421875 
Q 17.96875 -1.421875 11.734375 6.484375 
Q 5.515625 14.40625 5.515625 27.296875 
Q 5.515625 40.1875 11.734375 48.09375 
Q 17.96875 56 27.875 56 
Q 33.9375 56 38.25 53.625 
Q 42.578125 51.265625 45.40625 46.390625 
z
M 14.796875 27.296875 
Q 14.796875 17.390625 18.875 11.75 
Q 22.953125 6.109375 30.078125 6.109375 
Q 37.203125 6.109375 41.296875 11.75 
Q 45.40625 17.390625 45.40625 27.296875 
Q 45.40625 37.203125 41.296875 42.84375 
Q 37.203125 48.484375 30.078125 48.484375 
Q 22.953125 48.484375 18.875 42.84375 
Q 14.796875 37.203125 14.796875 27.296875 
z
" id="DejaVuSans-64"/>
     </defs>
     <g transform="translate(413.460938 83.116562)scale(0.1 -0.1)">
      <use xlink:href="#DejaVuSans-6d"/>
      <use x="97.412109" xlink:href="#DejaVuSans-6f"/>
      <use x="158.59375" xlink:href="#DejaVuSans-64"/>
      <use x="222.070312" xlink:href="#DejaVuSans-65"/>
      <use x="283.59375" xlink:href="#DejaVuSans-6c"/>
     </g>
    </g>
   </g>
  </g>
 </g>
 <defs>
  <clipPath id="pa92e06c1af">
   <rect height="332.64" width="390.6" x="63" y="51.84"/>
  </clipPath>
 </defs>
</svg>
