<?xml version="1.0" encoding="utf-8" standalone="no"?>
<!DOCTYPE svg PUBLIC "-//W3C//DTD SVG 1.1//EN"
  "http://www.w3.org/Graphics/SVG/1.1/DTD/svg11.dtd">
<!-- Created with matplotlib (https://matplotlib.org/) -->
<svg height="432pt" version="1.1" viewBox="0 0 504 432" width="504pt" xmlns="http://www.w3.org/2000/svg" xmlns:xlink="http://www.w3.org/1999/xlink">
 <defs>
  <style type="text/css">
*{stroke-linecap:butt;stroke-linejoin:round;}
  </style>
 </defs>
 <g id="figure_1">
  <g id="patch_1">
   <path d="M 0 432 
L 504 432 
L 504 0 
L 0 0 
z
" style="fill:#ffffff;"/>
  </g>
  <g id="axes_1">
   <g id="patch_2">
    <path d="M 63 384.48 
L 453.6 384.48 
L 453.6 51.84 
L 63 51.84 
z
" style="fill:#ffffff;"/>
   </g>
   <g id="matplotlib.axis_1">
    <g id="xtick_1">
     <g id="line2d_1">
      <defs>
       <path d="M 0 0 
L 0 3.5 
" id="m7f7dfa40e3" style="stroke:#000000;stroke-width:0.8;"/>
      </defs>
      <g>
       <use style="stroke:#000000;stroke-width:0.8;" x="80.754545" xlink:href="#m7f7dfa40e3" y="384.48"/>
      </g>
     </g>
     <g id="text_1">
      <!-- 0 -->
      <defs>
       <path d="M 31.78125 66.40625 
Q 24.171875 66.40625 20.328125 58.90625 
Q 16.5 51.421875 16.5 36.375 
Q 16.5 21.390625 20.328125 13.890625 
Q 24.171875 6.390625 31.78125 6.390625 
Q 39.453125 6.390625 43.28125 13.890625 
Q 47.125 21.390625 47.125 36.375 
Q 47.125 51.421875 43.28125 58.90625 
Q 39.453125 66.40625 31.78125 66.40625 
z
M 31.78125 74.21875 
Q 44.046875 74.21875 50.515625 64.515625 
Q 56.984375 54.828125 56.984375 36.375 
Q 56.984375 17.96875 50.515625 8.265625 
Q 44.046875 -1.421875 31.78125 -1.421875 
Q 19.53125 -1.421875 13.0625 8.265625 
Q 6.59375 17.96875 6.59375 36.375 
Q 6.59375 54.828125 13.0625 64.515625 
Q 19.53125 74.21875 31.78125 74.21875 
z
" id="DejaVuSans-48"/>
      </defs>
      <g transform="translate(77.573295 399.078438)scale(0.1 -0.1)">
       <use xlink:href="#DejaVuSans-48"/>
      </g>
     </g>
    </g>
    <g id="xtick_2">
     <g id="line2d_2">
      <g>
       <use style="stroke:#000000;stroke-width:0.8;" x="151.772727" xlink:href="#m7f7dfa40e3" y="384.48"/>
      </g>
     </g>
     <g id="text_2">
      <!-- 200 -->
      <defs>
       <path d="M 19.1875 8.296875 
L 53.609375 8.296875 
L 53.609375 0 
L 7.328125 0 
L 7.328125 8.296875 
Q 12.9375 14.109375 22.625 23.890625 
Q 32.328125 33.6875 34.8125 36.53125 
Q 39.546875 41.84375 41.421875 45.53125 
Q 43.3125 49.21875 43.3125 52.78125 
Q 43.3125 58.59375 39.234375 62.25 
Q 35.15625 65.921875 28.609375 65.921875 
Q 23.96875 65.921875 18.8125 64.3125 
Q 13.671875 62.703125 7.8125 59.421875 
L 7.8125 69.390625 
Q 13.765625 71.78125 18.9375 73 
Q 24.125 74.21875 28.421875 74.21875 
Q 39.75 74.21875 46.484375 68.546875 
Q 53.21875 62.890625 53.21875 53.421875 
Q 53.21875 48.921875 51.53125 44.890625 
Q 49.859375 40.875 45.40625 35.40625 
Q 44.1875 33.984375 37.640625 27.21875 
Q 31.109375 20.453125 19.1875 8.296875 
z
" id="DejaVuSans-50"/>
      </defs>
      <g transform="translate(142.228977 399.078438)scale(0.1 -0.1)">
       <use xlink:href="#DejaVuSans-50"/>
       <use x="63.623047" xlink:href="#DejaVuSans-48"/>
       <use x="127.246094" xlink:href="#DejaVuSans-48"/>
      </g>
     </g>
    </g>
    <g id="xtick_3">
     <g id="line2d_3">
      <g>
       <use style="stroke:#000000;stroke-width:0.8;" x="222.790909" xlink:href="#m7f7dfa40e3" y="384.48"/>
      </g>
     </g>
     <g id="text_3">
      <!-- 400 -->
      <defs>
       <path d="M 37.796875 64.3125 
L 12.890625 25.390625 
L 37.796875 25.390625 
z
M 35.203125 72.90625 
L 47.609375 72.90625 
L 47.609375 25.390625 
L 58.015625 25.390625 
L 58.015625 17.1875 
L 47.609375 17.1875 
L 47.609375 0 
L 37.796875 0 
L 37.796875 17.1875 
L 4.890625 17.1875 
L 4.890625 26.703125 
z
" id="DejaVuSans-52"/>
      </defs>
      <g transform="translate(213.247159 399.078438)scale(0.1 -0.1)">
       <use xlink:href="#DejaVuSans-52"/>
       <use x="63.623047" xlink:href="#DejaVuSans-48"/>
       <use x="127.246094" xlink:href="#DejaVuSans-48"/>
      </g>
     </g>
    </g>
    <g id="xtick_4">
     <g id="line2d_4">
      <g>
       <use style="stroke:#000000;stroke-width:0.8;" x="293.809091" xlink:href="#m7f7dfa40e3" y="384.48"/>
      </g>
     </g>
     <g id="text_4">
      <!-- 600 -->
      <defs>
       <path d="M 33.015625 40.375 
Q 26.375 40.375 22.484375 35.828125 
Q 18.609375 31.296875 18.609375 23.390625 
Q 18.609375 15.53125 22.484375 10.953125 
Q 26.375 6.390625 33.015625 6.390625 
Q 39.65625 6.390625 43.53125 10.953125 
Q 47.40625 15.53125 47.40625 23.390625 
Q 47.40625 31.296875 43.53125 35.828125 
Q 39.65625 40.375 33.015625 40.375 
z
M 52.59375 71.296875 
L 52.59375 62.3125 
Q 48.875 64.0625 45.09375 64.984375 
Q 41.3125 65.921875 37.59375 65.921875 
Q 27.828125 65.921875 22.671875 59.328125 
Q 17.53125 52.734375 16.796875 39.40625 
Q 19.671875 43.65625 24.015625 45.921875 
Q 28.375 48.1875 33.59375 48.1875 
Q 44.578125 48.1875 50.953125 41.515625 
Q 57.328125 34.859375 57.328125 23.390625 
Q 57.328125 12.15625 50.6875 5.359375 
Q 44.046875 -1.421875 33.015625 -1.421875 
Q 20.359375 -1.421875 13.671875 8.265625 
Q 6.984375 17.96875 6.984375 36.375 
Q 6.984375 53.65625 15.1875 63.9375 
Q 23.390625 74.21875 37.203125 74.21875 
Q 40.921875 74.21875 44.703125 73.484375 
Q 48.484375 72.75 52.59375 71.296875 
z
" id="DejaVuSans-54"/>
      </defs>
      <g transform="translate(284.265341 399.078438)scale(0.1 -0.1)">
       <use xlink:href="#DejaVuSans-54"/>
       <use x="63.623047" xlink:href="#DejaVuSans-48"/>
       <use x="127.246094" xlink:href="#DejaVuSans-48"/>
      </g>
     </g>
    </g>
    <g id="xtick_5">
     <g id="line2d_5">
      <g>
       <use style="stroke:#000000;stroke-width:0.8;" x="364.827273" xlink:href="#m7f7dfa40e3" y="384.48"/>
      </g>
     </g>
     <g id="text_5">
      <!-- 800 -->
      <defs>
       <path d="M 31.78125 34.625 
Q 24.75 34.625 20.71875 30.859375 
Q 16.703125 27.09375 16.703125 20.515625 
Q 16.703125 13.921875 20.71875 10.15625 
Q 24.75 6.390625 31.78125 6.390625 
Q 38.8125 6.390625 42.859375 10.171875 
Q 46.921875 13.96875 46.921875 20.515625 
Q 46.921875 27.09375 42.890625 30.859375 
Q 38.875 34.625 31.78125 34.625 
z
M 21.921875 38.8125 
Q 15.578125 40.375 12.03125 44.71875 
Q 8.5 49.078125 8.5 55.328125 
Q 8.5 64.0625 14.71875 69.140625 
Q 20.953125 74.21875 31.78125 74.21875 
Q 42.671875 74.21875 48.875 69.140625 
Q 55.078125 64.0625 55.078125 55.328125 
Q 55.078125 49.078125 51.53125 44.71875 
Q 48 40.375 41.703125 38.8125 
Q 48.828125 37.15625 52.796875 32.3125 
Q 56.78125 27.484375 56.78125 20.515625 
Q 56.78125 9.90625 50.3125 4.234375 
Q 43.84375 -1.421875 31.78125 -1.421875 
Q 19.734375 -1.421875 13.25 4.234375 
Q 6.78125 9.90625 6.78125 20.515625 
Q 6.78125 27.484375 10.78125 32.3125 
Q 14.796875 37.15625 21.921875 38.8125 
z
M 18.3125 54.390625 
Q 18.3125 48.734375 21.84375 45.5625 
Q 25.390625 42.390625 31.78125 42.390625 
Q 38.140625 42.390625 41.71875 45.5625 
Q 45.3125 48.734375 45.3125 54.390625 
Q 45.3125 60.0625 41.71875 63.234375 
Q 38.140625 66.40625 31.78125 66.40625 
Q 25.390625 66.40625 21.84375 63.234375 
Q 18.3125 60.0625 18.3125 54.390625 
z
" id="DejaVuSans-56"/>
      </defs>
      <g transform="translate(355.283523 399.078438)scale(0.1 -0.1)">
       <use xlink:href="#DejaVuSans-56"/>
       <use x="63.623047" xlink:href="#DejaVuSans-48"/>
       <use x="127.246094" xlink:href="#DejaVuSans-48"/>
      </g>
     </g>
    </g>
    <g id="text_6">
     <!-- time [ms] -->
     <defs>
      <path d="M 18.3125 70.21875 
L 18.3125 54.6875 
L 36.8125 54.6875 
L 36.8125 47.703125 
L 18.3125 47.703125 
L 18.3125 18.015625 
Q 18.3125 11.328125 20.140625 9.421875 
Q 21.96875 7.515625 27.59375 7.515625 
L 36.8125 7.515625 
L 36.8125 0 
L 27.59375 0 
Q 17.1875 0 13.234375 3.875 
Q 9.28125 7.765625 9.28125 18.015625 
L 9.28125 47.703125 
L 2.6875 47.703125 
L 2.6875 54.6875 
L 9.28125 54.6875 
L 9.28125 70.21875 
z
" id="DejaVuSans-116"/>
      <path d="M 9.421875 54.6875 
L 18.40625 54.6875 
L 18.40625 0 
L 9.421875 0 
z
M 9.421875 75.984375 
L 18.40625 75.984375 
L 18.40625 64.59375 
L 9.421875 64.59375 
z
" id="DejaVuSans-105"/>
      <path d="M 52 44.1875 
Q 55.375 50.25 60.0625 53.125 
Q 64.75 56 71.09375 56 
Q 79.640625 56 84.28125 50.015625 
Q 88.921875 44.046875 88.921875 33.015625 
L 88.921875 0 
L 79.890625 0 
L 79.890625 32.71875 
Q 79.890625 40.578125 77.09375 44.375 
Q 74.3125 48.1875 68.609375 48.1875 
Q 61.625 48.1875 57.5625 43.546875 
Q 53.515625 38.921875 53.515625 30.90625 
L 53.515625 0 
L 44.484375 0 
L 44.484375 32.71875 
Q 44.484375 40.625 41.703125 44.40625 
Q 38.921875 48.1875 33.109375 48.1875 
Q 26.21875 48.1875 22.15625 43.53125 
Q 18.109375 38.875 18.109375 30.90625 
L 18.109375 0 
L 9.078125 0 
L 9.078125 54.6875 
L 18.109375 54.6875 
L 18.109375 46.1875 
Q 21.1875 51.21875 25.484375 53.609375 
Q 29.78125 56 35.6875 56 
Q 41.65625 56 45.828125 52.96875 
Q 50 49.953125 52 44.1875 
z
" id="DejaVuSans-109"/>
      <path d="M 56.203125 29.59375 
L 56.203125 25.203125 
L 14.890625 25.203125 
Q 15.484375 15.921875 20.484375 11.0625 
Q 25.484375 6.203125 34.421875 6.203125 
Q 39.59375 6.203125 44.453125 7.46875 
Q 49.3125 8.734375 54.109375 11.28125 
L 54.109375 2.78125 
Q 49.265625 0.734375 44.1875 -0.34375 
Q 39.109375 -1.421875 33.890625 -1.421875 
Q 20.796875 -1.421875 13.15625 6.1875 
Q 5.515625 13.8125 5.515625 26.8125 
Q 5.515625 40.234375 12.765625 48.109375 
Q 20.015625 56 32.328125 56 
Q 43.359375 56 49.78125 48.890625 
Q 56.203125 41.796875 56.203125 29.59375 
z
M 47.21875 32.234375 
Q 47.125 39.59375 43.09375 43.984375 
Q 39.0625 48.390625 32.421875 48.390625 
Q 24.90625 48.390625 20.390625 44.140625 
Q 15.875 39.890625 15.1875 32.171875 
z
" id="DejaVuSans-101"/>
      <path id="DejaVuSans-32"/>
      <path d="M 8.59375 75.984375 
L 29.296875 75.984375 
L 29.296875 69 
L 17.578125 69 
L 17.578125 -6.203125 
L 29.296875 -6.203125 
L 29.296875 -13.1875 
L 8.59375 -13.1875 
z
" id="DejaVuSans-91"/>
      <path d="M 44.28125 53.078125 
L 44.28125 44.578125 
Q 40.484375 46.53125 36.375 47.5 
Q 32.28125 48.484375 27.875 48.484375 
Q 21.1875 48.484375 17.84375 46.4375 
Q 14.5 44.390625 14.5 40.28125 
Q 14.5 37.15625 16.890625 35.375 
Q 19.28125 33.59375 26.515625 31.984375 
L 29.59375 31.296875 
Q 39.15625 29.25 43.1875 25.515625 
Q 47.21875 21.78125 47.21875 15.09375 
Q 47.21875 7.46875 41.1875 3.015625 
Q 35.15625 -1.421875 24.609375 -1.421875 
Q 20.21875 -1.421875 15.453125 -0.5625 
Q 10.6875 0.296875 5.421875 2 
L 5.421875 11.28125 
Q 10.40625 8.6875 15.234375 7.390625 
Q 20.0625 6.109375 24.8125 6.109375 
Q 31.15625 6.109375 34.5625 8.28125 
Q 37.984375 10.453125 37.984375 14.40625 
Q 37.984375 18.0625 35.515625 20.015625 
Q 33.0625 21.96875 24.703125 23.78125 
L 21.578125 24.515625 
Q 13.234375 26.265625 9.515625 29.90625 
Q 5.8125 33.546875 5.8125 39.890625 
Q 5.8125 47.609375 11.28125 51.796875 
Q 16.75 56 26.8125 56 
Q 31.78125 56 36.171875 55.265625 
Q 40.578125 54.546875 44.28125 53.078125 
z
" id="DejaVuSans-115"/>
      <path d="M 30.421875 75.984375 
L 30.421875 -13.1875 
L 9.71875 -13.1875 
L 9.71875 -6.203125 
L 21.390625 -6.203125 
L 21.390625 69 
L 9.71875 69 
L 9.71875 75.984375 
z
" id="DejaVuSans-93"/>
     </defs>
     <g transform="translate(234.038281 412.756563)scale(0.1 -0.1)">
      <use xlink:href="#DejaVuSans-116"/>
      <use x="39.208984" xlink:href="#DejaVuSans-105"/>
      <use x="66.992188" xlink:href="#DejaVuSans-109"/>
      <use x="164.404297" xlink:href="#DejaVuSans-101"/>
      <use x="225.927734" xlink:href="#DejaVuSans-32"/>
      <use x="257.714844" xlink:href="#DejaVuSans-91"/>
      <use x="296.728516" xlink:href="#DejaVuSans-109"/>
      <use x="394.140625" xlink:href="#DejaVuSans-115"/>
      <use x="446.240234" xlink:href="#DejaVuSans-93"/>
     </g>
    </g>
   </g>
   <g id="matplotlib.axis_2">
    <g id="ytick_1">
     <g id="line2d_6">
      <defs>
       <path d="M 0 0 
L -3.5 0 
" id="m7c0733ccbe" style="stroke:#000000;stroke-width:0.8;"/>
      </defs>
      <g>
       <use style="stroke:#000000;stroke-width:0.8;" x="63" xlink:href="#m7c0733ccbe" y="348.483197"/>
      </g>
     </g>
     <g id="text_7">
      <!-- −60 -->
      <defs>
       <path d="M 10.59375 35.5 
L 73.1875 35.5 
L 73.1875 27.203125 
L 10.59375 27.203125 
z
" id="DejaVuSans-8722"/>
      </defs>
      <g transform="translate(34.895313 352.282416)scale(0.1 -0.1)">
       <use xlink:href="#DejaVuSans-8722"/>
       <use x="83.789062" xlink:href="#DejaVuSans-54"/>
       <use x="147.412109" xlink:href="#DejaVuSans-48"/>
      </g>
     </g>
    </g>
    <g id="ytick_2">
     <g id="line2d_7">
      <g>
       <use style="stroke:#000000;stroke-width:0.8;" x="63" xlink:href="#m7c0733ccbe" y="281.279374"/>
      </g>
     </g>
     <g id="text_8">
      <!-- −40 -->
      <g transform="translate(34.895313 285.078593)scale(0.1 -0.1)">
       <use xlink:href="#DejaVuSans-8722"/>
       <use x="83.789062" xlink:href="#DejaVuSans-52"/>
       <use x="147.412109" xlink:href="#DejaVuSans-48"/>
      </g>
     </g>
    </g>
    <g id="ytick_3">
     <g id="line2d_8">
      <g>
       <use style="stroke:#000000;stroke-width:0.8;" x="63" xlink:href="#m7c0733ccbe" y="214.075551"/>
      </g>
     </g>
     <g id="text_9">
      <!-- −20 -->
      <g transform="translate(34.895313 217.87477)scale(0.1 -0.1)">
       <use xlink:href="#DejaVuSans-8722"/>
       <use x="83.789062" xlink:href="#DejaVuSans-50"/>
       <use x="147.412109" xlink:href="#DejaVuSans-48"/>
      </g>
     </g>
    </g>
    <g id="ytick_4">
     <g id="line2d_9">
      <g>
       <use style="stroke:#000000;stroke-width:0.8;" x="63" xlink:href="#m7c0733ccbe" y="146.871728"/>
      </g>
     </g>
     <g id="text_10">
      <!-- 0 -->
      <g transform="translate(49.6375 150.670947)scale(0.1 -0.1)">
       <use xlink:href="#DejaVuSans-48"/>
      </g>
     </g>
    </g>
    <g id="ytick_5">
     <g id="line2d_10">
      <g>
       <use style="stroke:#000000;stroke-width:0.8;" x="63" xlink:href="#m7c0733ccbe" y="79.667905"/>
      </g>
     </g>
     <g id="text_11">
      <!-- 20 -->
      <g transform="translate(43.275 83.467124)scale(0.1 -0.1)">
       <use xlink:href="#DejaVuSans-50"/>
       <use x="63.623047" xlink:href="#DejaVuSans-48"/>
      </g>
     </g>
    </g>
    <g id="text_12">
     <!-- voltage [V] -->
     <defs>
      <path d="M 2.984375 54.6875 
L 12.5 54.6875 
L 29.59375 8.796875 
L 46.6875 54.6875 
L 56.203125 54.6875 
L 35.6875 0 
L 23.484375 0 
z
" id="DejaVuSans-118"/>
      <path d="M 30.609375 48.390625 
Q 23.390625 48.390625 19.1875 42.75 
Q 14.984375 37.109375 14.984375 27.296875 
Q 14.984375 17.484375 19.15625 11.84375 
Q 23.34375 6.203125 30.609375 6.203125 
Q 37.796875 6.203125 41.984375 11.859375 
Q 46.1875 17.53125 46.1875 27.296875 
Q 46.1875 37.015625 41.984375 42.703125 
Q 37.796875 48.390625 30.609375 48.390625 
z
M 30.609375 56 
Q 42.328125 56 49.015625 48.375 
Q 55.71875 40.765625 55.71875 27.296875 
Q 55.71875 13.875 49.015625 6.21875 
Q 42.328125 -1.421875 30.609375 -1.421875 
Q 18.84375 -1.421875 12.171875 6.21875 
Q 5.515625 13.875 5.515625 27.296875 
Q 5.515625 40.765625 12.171875 48.375 
Q 18.84375 56 30.609375 56 
z
" id="DejaVuSans-111"/>
      <path d="M 9.421875 75.984375 
L 18.40625 75.984375 
L 18.40625 0 
L 9.421875 0 
z
" id="DejaVuSans-108"/>
      <path d="M 34.28125 27.484375 
Q 23.390625 27.484375 19.1875 25 
Q 14.984375 22.515625 14.984375 16.5 
Q 14.984375 11.71875 18.140625 8.90625 
Q 21.296875 6.109375 26.703125 6.109375 
Q 34.1875 6.109375 38.703125 11.40625 
Q 43.21875 16.703125 43.21875 25.484375 
L 43.21875 27.484375 
z
M 52.203125 31.203125 
L 52.203125 0 
L 43.21875 0 
L 43.21875 8.296875 
Q 40.140625 3.328125 35.546875 0.953125 
Q 30.953125 -1.421875 24.3125 -1.421875 
Q 15.921875 -1.421875 10.953125 3.296875 
Q 6 8.015625 6 15.921875 
Q 6 25.140625 12.171875 29.828125 
Q 18.359375 34.515625 30.609375 34.515625 
L 43.21875 34.515625 
L 43.21875 35.40625 
Q 43.21875 41.609375 39.140625 45 
Q 35.0625 48.390625 27.6875 48.390625 
Q 23 48.390625 18.546875 47.265625 
Q 14.109375 46.140625 10.015625 43.890625 
L 10.015625 52.203125 
Q 14.9375 54.109375 19.578125 55.046875 
Q 24.21875 56 28.609375 56 
Q 40.484375 56 46.34375 49.84375 
Q 52.203125 43.703125 52.203125 31.203125 
z
" id="DejaVuSans-97"/>
      <path d="M 45.40625 27.984375 
Q 45.40625 37.75 41.375 43.109375 
Q 37.359375 48.484375 30.078125 48.484375 
Q 22.859375 48.484375 18.828125 43.109375 
Q 14.796875 37.75 14.796875 27.984375 
Q 14.796875 18.265625 18.828125 12.890625 
Q 22.859375 7.515625 30.078125 7.515625 
Q 37.359375 7.515625 41.375 12.890625 
Q 45.40625 18.265625 45.40625 27.984375 
z
M 54.390625 6.78125 
Q 54.390625 -7.171875 48.1875 -13.984375 
Q 42 -20.796875 29.203125 -20.796875 
Q 24.46875 -20.796875 20.265625 -20.09375 
Q 16.0625 -19.390625 12.109375 -17.921875 
L 12.109375 -9.1875 
Q 16.0625 -11.328125 19.921875 -12.34375 
Q 23.78125 -13.375 27.78125 -13.375 
Q 36.625 -13.375 41.015625 -8.765625 
Q 45.40625 -4.15625 45.40625 5.171875 
L 45.40625 9.625 
Q 42.625 4.78125 38.28125 2.390625 
Q 33.9375 0 27.875 0 
Q 17.828125 0 11.671875 7.65625 
Q 5.515625 15.328125 5.515625 27.984375 
Q 5.515625 40.671875 11.671875 48.328125 
Q 17.828125 56 27.875 56 
Q 33.9375 56 38.28125 53.609375 
Q 42.625 51.21875 45.40625 46.390625 
L 45.40625 54.6875 
L 54.390625 54.6875 
z
" id="DejaVuSans-103"/>
      <path d="M 28.609375 0 
L 0.78125 72.90625 
L 11.078125 72.90625 
L 34.1875 11.53125 
L 57.328125 72.90625 
L 67.578125 72.90625 
L 39.796875 0 
z
" id="DejaVuSans-86"/>
     </defs>
     <g transform="translate(28.815625 245.75375)rotate(-90)scale(0.1 -0.1)">
      <use xlink:href="#DejaVuSans-118"/>
      <use x="59.179688" xlink:href="#DejaVuSans-111"/>
      <use x="120.361328" xlink:href="#DejaVuSans-108"/>
      <use x="148.144531" xlink:href="#DejaVuSans-116"/>
      <use x="187.353516" xlink:href="#DejaVuSans-97"/>
      <use x="248.632812" xlink:href="#DejaVuSans-103"/>
      <use x="312.109375" xlink:href="#DejaVuSans-101"/>
      <use x="373.632812" xlink:href="#DejaVuSans-32"/>
      <use x="405.419922" xlink:href="#DejaVuSans-91"/>
      <use x="444.433594" xlink:href="#DejaVuSans-86"/>
      <use x="512.841797" xlink:href="#DejaVuSans-93"/>
     </g>
    </g>
   </g>
   <g id="line2d_11">
    <path clip-path="url(#p96d6056b30)" d="M 80.754545 365.284145 
L 81.695536 365.29614 
L 85.708064 365.714993 
L 98.526845 367.04049 
L 108.611427 367.83912 
L 119.4417 368.469522 
L 131.532545 368.946072 
L 145.700673 369.275172 
L 151.772727 369.36 
L 151.8615 367.335051 
L 152.234345 359.084021 
L 152.731473 353.308915 
L 153.565936 346.485879 
L 154.9863 336.871648 
L 156.726245 326.628856 
L 158.412927 317.968228 
L 160.028591 310.7938 
L 161.590991 304.859667 
L 163.153391 299.804762 
L 164.840073 295.120312 
L 167.236936 289.204499 
L 168.941373 284.764524 
L 169.793591 281.93521 
L 170.361736 279.297324 
L 170.752336 276.439289 
L 171.036409 272.33381 
L 171.1962 265.095754 
L 171.249464 257.048833 
L 171.622309 69.305013 
L 171.675573 66.96 
L 171.746591 67.201473 
L 171.906382 80.054175 
L 172.190455 132.832176 
L 172.847373 251.330041 
L 173.220218 285.898433 
L 173.5398 298.295714 
L 173.912645 304.760373 
L 174.303245 308.142832 
L 174.782618 310.357758 
L 175.226482 311.473599 
L 175.6881 312.066812 
L 176.096455 312.260834 
L 176.522564 312.217041 
L 177.019691 311.92351 
L 177.676609 311.23772 
L 178.511073 310.027249 
L 179.771645 307.771455 
L 182.807673 301.707469 
L 185.470855 296.680004 
L 188.134036 292.1551 
L 192.199827 285.306722 
L 193.336118 282.871968 
L 194.117318 280.6573 
L 194.685464 278.319753 
L 195.093818 275.5215 
L 195.324627 272.558853 
L 195.502173 266.59808 
L 195.573191 257.350183 
L 195.626455 229.822692 
L 195.839509 97.828605 
L 196.017055 89.184009 
L 196.034809 89.142417 
L 196.176845 92.887723 
L 196.407655 109.991361 
L 196.744991 158.875486 
L 197.437418 256.622083 
L 197.810264 281.395009 
L 198.200864 293.136192 
L 198.591464 298.78121 
L 199.070836 302.483719 
L 199.550209 304.655627 
L 200.082845 306.152184 
L 200.650991 307.097887 
L 201.219136 307.591413 
L 201.769527 307.758087 
L 202.302164 307.701068 
L 202.976836 307.397212 
L 203.793545 306.7784 
L 204.947591 305.597082 
L 206.705291 303.434051 
L 214.1622 293.954287 
L 220.695873 286.068872 
L 222.080727 283.941448 
L 223.039473 282.076256 
L 223.767409 280.169723 
L 224.300045 278.136698 
L 224.690645 275.70916 
L 224.956964 272.568218 
L 225.134509 267.226061 
L 225.223282 258.269852 
L 225.578373 94.387048 
L 225.596127 94.266872 
L 225.649391 94.446018 
L 225.809182 99.933471 
L 226.111009 121.789581 
L 226.483855 168.516351 
L 227.211791 256.927687 
L 227.620145 278.947424 
L 227.992991 288.995407 
L 228.436855 295.164033 
L 228.933982 298.975094 
L 229.502127 301.589197 
L 230.105782 303.330485 
L 230.691682 304.403085 
L 231.313091 305.086943 
L 231.898991 305.421759 
L 232.538155 305.530443 
L 233.266091 305.410606 
L 234.136064 305.020601 
L 235.236845 304.264121 
L 236.781491 302.902933 
L 239.302636 300.346305 
L 247.398709 292.024948 
L 251.428991 287.818749 
L 253.310973 285.539765 
L 254.607055 283.633084 
L 255.548045 281.866745 
L 256.258227 280.064567 
L 256.790864 278.092693 
L 257.181464 275.755212 
L 257.447782 272.749561 
L 257.607573 268.79644 
L 257.696345 262.278406 
L 257.767364 239.073756 
L 257.998173 100.239674 
L 258.122455 94.960464 
L 258.157964 95.570189 
L 258.264491 99.054177 
L 258.566318 119.492156 
L 258.956918 163.939574 
L 259.755873 256.758865 
L 260.181982 278.722857 
L 260.590336 288.878168 
L 261.016445 294.273507 
L 261.495818 297.698738 
L 262.028455 300.044506 
L 262.649864 301.795438 
L 263.271273 302.915724 
L 263.892682 303.612621 
L 264.531845 304.008715 
L 265.206518 304.163467 
L 265.952209 304.098658 
L 266.839936 303.785691 
L 267.940718 303.149671 
L 269.449855 301.997928 
L 271.722436 299.956366 
L 281.167855 290.932963 
L 284.434691 287.618719 
L 286.281164 285.441155 
L 287.577245 283.580041 
L 288.518236 281.854453 
L 289.246173 280.046392 
L 289.778809 278.113874 
L 290.151655 275.972091 
L 290.435727 272.98368 
L 290.631027 267.841381 
L 290.7198 259.426136 
L 290.844082 161.905937 
L 291.003873 99.377198 
L 291.128155 95.254282 
L 291.163664 95.784849 
L 291.341209 103.250398 
L 291.643036 126.953539 
L 292.175673 193.002219 
L 292.761573 256.248971 
L 293.152173 276.838059 
L 293.560527 287.786197 
L 294.004391 293.737303 
L 294.483764 297.295002 
L 295.051909 299.833244 
L 295.673318 301.582155 
L 296.276973 302.679193 
L 296.916136 303.406777 
L 297.5553 303.811047 
L 298.247727 303.978012 
L 299.028927 303.914117 
L 299.952164 303.589494 
L 301.123964 302.910628 
L 302.668609 301.734837 
L 305.136491 299.535112 
L 315.434127 289.806346 
L 318.150573 286.985992 
L 319.837255 284.923661 
L 321.062318 283.069717 
L 321.950045 281.317381 
L 322.589209 279.585367 
L 323.068582 277.681044 
L 323.423673 275.39929 
L 323.672236 272.447728 
L 323.849782 266.899917 
L 323.938555 256.008355 
L 323.974064 235.397249 
L 324.204873 100.626495 
L 324.3114 95.035819 
L 324.346909 95.515679 
L 324.453436 98.539057 
L 324.755264 118.654399 
L 325.163618 164.3773 
L 325.962573 256.06904 
L 326.388682 278.118772 
L 326.797036 288.502882 
L 327.2409 294.176593 
L 327.738027 297.681617 
L 328.306173 300.086359 
L 328.927582 301.746628 
L 329.5845 302.854424 
L 330.223664 303.505599 
L 330.880582 303.858784 
L 331.555255 303.973252 
L 332.354209 303.865967 
L 333.2952 303.495892 
L 334.484755 302.771474 
L 336.118173 301.494122 
L 338.834618 299.040866 
L 350.179773 288.263718 
L 352.274809 285.934857 
L 353.677418 284.061111 
L 354.707182 282.33265 
L 355.488382 280.592929 
L 356.074282 278.740444 
L 356.518145 276.545847 
L 356.819973 273.903468 
L 357.015273 270.327961 
L 357.139555 263.900511 
L 357.210573 244.793395 
L 357.476891 98.052087 
L 357.565664 95.19997 
L 357.618927 95.78589 
L 357.778718 102.343743 
L 358.116055 129.021009 
L 358.648691 195.659151 
L 359.216836 256.499208 
L 359.625191 277.848022 
L 360.033545 288.469572 
L 360.459655 294.077767 
L 360.939027 297.579984 
L 361.453909 299.875024 
L 362.057564 301.594879 
L 362.678973 302.729017 
L 363.318136 303.449947 
L 363.975055 303.854126 
L 364.649727 304.006903 
L 364.862782 304.011028 
L 364.969309 306.222372 
L 365.306645 313.529595 
L 365.786018 318.6824 
L 366.460691 323.330612 
L 367.348418 327.892456 
L 368.395936 332.127211 
L 369.532227 335.840245 
L 370.775045 339.183824 
L 372.1599 342.278182 
L 373.633527 345.03372 
L 375.213682 347.526424 
L 376.900364 349.78365 
L 378.729082 351.866802 
L 380.735345 353.812779 
L 382.9014 355.602291 
L 385.262755 357.264736 
L 387.890427 358.838127 
L 390.819927 360.324344 
L 394.051255 361.709016 
L 397.655427 363.008549 
L 401.685709 364.223585 
L 406.230873 365.358145 
L 411.326427 366.396566 
L 417.043391 367.329007 
L 423.381764 368.133845 
L 430.465827 368.80657 
L 435.8277 369.187003 
L 435.8277 369.187003 
" style="fill:none;stroke:#1f77b4;stroke-linecap:square;stroke-width:1.5;"/>
   </g>
   <g id="line2d_12">
    <path clip-path="url(#p96d6056b30)" d="M 80.754545 365.284153 
L 80.949845 364.439073 
L 81.3582 363.701669 
L 82.032873 362.973887 
L 83.1159 362.154699 
L 84.660545 361.27131 
L 86.542527 360.452914 
L 88.708582 359.756603 
L 91.158709 359.207432 
L 93.928418 358.819223 
L 97.141991 358.599205 
L 101.065745 358.562959 
L 106.445373 358.753701 
L 130.307482 359.84702 
L 141.421827 359.970901 
L 151.772727 359.968884 
L 151.985782 349.798731 
L 152.411891 340.612822 
L 153.068809 331.310835 
L 153.956536 321.845339 
L 154.933036 313.690765 
L 155.909536 307.326002 
L 156.886036 302.375085 
L 157.898045 298.363245 
L 158.981073 294.967364 
L 160.152873 292.013119 
L 161.466709 289.304772 
L 162.958091 286.747251 
L 164.769055 284.098951 
L 168.888109 278.257003 
L 169.722573 276.541797 
L 170.326227 274.78613 
L 170.770091 272.804955 
L 171.107427 270.218253 
L 171.338236 266.662308 
L 171.498027 260.122075 
L 171.5868 244.003108 
L 171.764345 95.044584 
L 171.906382 104.103137 
L 172.314736 128.145246 
L 172.616564 145.811098 
L 172.829618 175.036794 
L 173.024918 240.283304 
L 173.326745 333.783745 
L 173.593064 346.288757 
L 173.912645 351.569811 
L 174.232227 353.609066 
L 174.480791 354.108194 
L 174.658336 354.08762 
L 174.871391 353.755821 
L 175.208727 352.720495 
L 175.723609 350.319552 
L 176.558073 345.22329 
L 180.872427 317.242842 
L 182.097491 311.360038 
L 183.287045 306.707457 
L 184.4766 302.927573 
L 185.719418 299.708751 
L 187.0155 296.956134 
L 188.400355 294.527086 
L 189.891736 292.355084 
L 191.5074 290.391428 
L 193.282855 288.581816 
L 195.271364 286.873355 
L 197.579455 285.189529 
L 200.455691 283.378946 
L 207.291191 279.195318 
L 208.676045 278.009547 
L 209.6703 276.875126 
L 210.415991 275.696464 
L 211.001891 274.352574 
L 211.463509 272.711863 
L 211.8186 270.570062 
L 212.084918 267.425432 
L 212.262464 262.281603 
L 212.368991 251.147782 
L 212.422255 219.072172 
L 212.582045 98.270851 
L 212.670818 104.319342 
L 213.008155 124.856546 
L 213.469773 152.976503 
L 213.665073 185.958607 
L 213.878127 269.358306 
L 214.108936 329.947173 
L 214.3575 342.286836 
L 214.659327 347.594448 
L 214.978909 349.867426 
L 215.245227 350.518609 
L 215.422773 350.554156 
L 215.618073 350.322785 
L 215.9199 349.545091 
L 216.399273 347.582245 
L 217.162718 343.369565 
L 218.902664 332.114751 
L 220.8024 320.562006 
L 222.116236 313.886335 
L 223.323545 308.858245 
L 224.5131 304.821422 
L 225.738164 301.434242 
L 227.016491 298.544232 
L 228.365836 296.035151 
L 229.803955 293.823217 
L 231.3486 291.848976 
L 233.035282 290.052145 
L 234.899509 288.394023 
L 236.976791 286.847756 
L 239.3559 285.35957 
L 242.214382 283.843571 
L 246.315682 281.947367 
L 250.896355 279.782646 
L 252.813845 278.629056 
L 254.127682 277.586903 
L 255.086427 276.54933 
L 255.814364 275.440246 
L 256.382509 274.173101 
L 256.826373 272.644936 
L 257.181464 270.587926 
L 257.447782 267.606227 
L 257.625327 262.933868 
L 257.731855 254.094543 
L 257.785118 235.175785 
L 257.962664 98.679941 
L 258.015927 101.720234 
L 258.424282 126.923424 
L 258.8859 157.544943 
L 259.0812 196.433537 
L 259.649345 339.30383 
L 259.933418 346.06251 
L 260.253 349.125278 
L 260.554827 350.198429 
L 260.767882 350.336124 
L 260.945427 350.175418 
L 261.211745 349.58144 
L 261.637855 348.000792 
L 262.312527 344.513596 
L 263.5731 336.57835 
L 265.898945 322.070681 
L 267.248291 315.006611 
L 268.473355 309.741819 
L 269.662909 305.578854 
L 270.870218 302.137308 
L 272.130791 299.20043 
L 273.462382 296.652983 
L 274.882745 294.411089 
L 276.409636 292.415281 
L 278.060809 290.623067 
L 279.871773 288.988306 
L 281.878036 287.481147 
L 284.132864 286.069971 
L 286.742782 284.705387 
L 289.920845 283.304164 
L 294.927627 281.377126 
L 299.1177 279.676682 
L 301.177227 278.606137 
L 302.579836 277.636039 
L 303.6096 276.659098 
L 304.3908 275.612591 
L 304.994455 274.432325 
L 305.473827 272.996481 
L 305.846673 271.15847 
L 306.130745 268.592224 
L 306.326045 264.827898 
L 306.450327 258.455493 
L 306.521345 245.061583 
L 306.592364 146.569227 
L 306.716645 98.888372 
L 306.7344 99.493721 
L 307.657636 159.354805 
L 307.852936 200.705192 
L 308.367818 337.69166 
L 308.651891 345.487749 
L 308.971473 348.917714 
L 309.2733 350.162309 
L 309.504109 350.378473 
L 309.681655 350.245145 
L 309.947973 349.682529 
L 310.356327 348.213278 
L 311.013245 344.885099 
L 312.185045 337.585572 
L 314.688436 321.968712 
L 316.037782 314.949527 
L 317.262845 309.723721 
L 318.4524 305.593707 
L 319.659709 302.180459 
L 320.920282 299.26875 
L 322.251873 296.744607 
L 323.672236 294.525376 
L 325.199127 292.552736 
L 326.8503 290.785346 
L 328.643509 289.192955 
L 330.632018 287.728346 
L 332.851336 286.374008 
L 335.390236 285.090677 
L 338.390755 283.830873 
L 342.261245 282.462033 
L 351.671155 279.241954 
L 353.588645 278.287773 
L 354.937991 277.376223 
L 355.932245 276.441416 
L 356.695691 275.416632 
L 357.281591 274.259208 
L 357.743209 272.859743 
L 358.116055 270.987367 
L 358.400127 268.316426 
L 358.595427 264.231243 
L 358.719709 256.566876 
L 358.790727 235.389181 
L 358.968273 99.062066 
L 359.021536 101.988974 
L 359.429891 126.740366 
L 359.891509 156.581024 
L 360.086809 194.146351 
L 360.672709 339.781371 
L 360.974536 346.552553 
L 361.294118 349.38291 
L 361.578191 350.318501 
L 361.791245 350.437531 
L 361.968791 350.265017 
L 362.252864 349.6051 
L 362.696727 347.904842 
L 363.406909 344.154739 
L 364.791764 335.361781 
L 364.827273 335.129952 
L 365.022573 343.087298 
L 365.342155 347.597311 
L 365.768264 350.630658 
L 366.3009 352.84656 
L 366.957818 354.646099 
L 367.774527 356.246977 
L 368.786536 357.740672 
L 370.0116 359.146125 
L 371.414209 360.416657 
L 372.958855 361.519007 
L 374.627782 362.43645 
L 376.385482 363.149269 
L 378.267464 363.671019 
L 380.309236 364.002768 
L 382.581818 364.141694 
L 385.227245 364.072481 
L 388.547345 363.749997 
L 393.820445 362.981723 
L 402.324873 361.765985 
L 407.8998 361.212124 
L 413.723291 360.861726 
L 420.665318 360.677147 
L 430.785409 360.654651 
L 435.845455 360.684322 
L 435.845455 360.684322 
" style="fill:none;stroke:#ff0000;stroke-linecap:square;stroke-width:1.5;"/>
   </g>
   <g id="patch_3">
    <path d="M 63 384.48 
L 63 51.84 
" style="fill:none;stroke:#000000;stroke-linecap:square;stroke-linejoin:miter;stroke-width:0.8;"/>
   </g>
   <g id="patch_4">
    <path d="M 453.6 384.48 
L 453.6 51.84 
" style="fill:none;stroke:#000000;stroke-linecap:square;stroke-linejoin:miter;stroke-width:0.8;"/>
   </g>
   <g id="patch_5">
    <path d="M 63 384.48 
L 453.6 384.48 
" style="fill:none;stroke:#000000;stroke-linecap:square;stroke-linejoin:miter;stroke-width:0.8;"/>
   </g>
   <g id="patch_6">
    <path d="M 63 51.84 
L 453.6 51.84 
" style="fill:none;stroke:#000000;stroke-linecap:square;stroke-linejoin:miter;stroke-width:0.8;"/>
   </g>
   <g id="legend_1">
    <g id="patch_7">
     <path d="M 383.460938 89.19625 
L 446.6 89.19625 
Q 448.6 89.19625 448.6 87.19625 
L 448.6 58.84 
Q 448.6 56.84 446.6 56.84 
L 383.460938 56.84 
Q 381.460938 56.84 381.460938 58.84 
L 381.460938 87.19625 
Q 381.460938 89.19625 383.460938 89.19625 
z
" style="fill:#ffffff;opacity:0.8;stroke:#cccccc;stroke-linejoin:miter;"/>
    </g>
    <g id="line2d_13">
     <path d="M 385.460938 64.938437 
L 405.460938 64.938437 
" style="fill:none;stroke:#1f77b4;stroke-linecap:square;stroke-width:1.5;"/>
    </g>
    <g id="line2d_14"/>
    <g id="text_13">
     <!-- target -->
     <defs>
      <path d="M 41.109375 46.296875 
Q 39.59375 47.171875 37.8125 47.578125 
Q 36.03125 48 33.890625 48 
Q 26.265625 48 22.1875 43.046875 
Q 18.109375 38.09375 18.109375 28.8125 
L 18.109375 0 
L 9.078125 0 
L 9.078125 54.6875 
L 18.109375 54.6875 
L 18.109375 46.1875 
Q 20.953125 51.171875 25.484375 53.578125 
Q 30.03125 56 36.53125 56 
Q 37.453125 56 38.578125 55.875 
Q 39.703125 55.765625 41.0625 55.515625 
z
" id="DejaVuSans-114"/>
     </defs>
     <g transform="translate(413.460938 68.438437)scale(0.1 -0.1)">
      <use xlink:href="#DejaVuSans-116"/>
      <use x="39.208984" xlink:href="#DejaVuSans-97"/>
      <use x="100.488281" xlink:href="#DejaVuSans-114"/>
      <use x="141.585938" xlink:href="#DejaVuSans-103"/>
      <use x="205.0625" xlink:href="#DejaVuSans-101"/>
      <use x="266.585938" xlink:href="#DejaVuSans-116"/>
     </g>
    </g>
    <g id="line2d_15">
     <path d="M 385.460938 79.616562 
L 405.460938 79.616562 
" style="fill:none;stroke:#ff0000;stroke-linecap:square;stroke-width:1.5;"/>
    </g>
    <g id="line2d_16"/>
    <g id="text_14">
     <!-- model -->
     <defs>
      <path d="M 45.40625 46.390625 
L 45.40625 75.984375 
L 54.390625 75.984375 
L 54.390625 0 
L 45.40625 0 
L 45.40625 8.203125 
Q 42.578125 3.328125 38.25 0.953125 
Q 33.9375 -1.421875 27.875 -1.421875 
Q 17.96875 -1.421875 11.734375 6.484375 
Q 5.515625 14.40625 5.515625 27.296875 
Q 5.515625 40.1875 11.734375 48.09375 
Q 17.96875 56 27.875 56 
Q 33.9375 56 38.25 53.625 
Q 42.578125 51.265625 45.40625 46.390625 
z
M 14.796875 27.296875 
Q 14.796875 17.390625 18.875 11.75 
Q 22.953125 6.109375 30.078125 6.109375 
Q 37.203125 6.109375 41.296875 11.75 
Q 45.40625 17.390625 45.40625 27.296875 
Q 45.40625 37.203125 41.296875 42.84375 
Q 37.203125 48.484375 30.078125 48.484375 
Q 22.953125 48.484375 18.875 42.84375 
Q 14.796875 37.203125 14.796875 27.296875 
z
" id="DejaVuSans-100"/>
     </defs>
     <g transform="translate(413.460938 83.116562)scale(0.1 -0.1)">
      <use xlink:href="#DejaVuSans-109"/>
      <use x="97.412109" xlink:href="#DejaVuSans-111"/>
      <use x="158.59375" xlink:href="#DejaVuSans-100"/>
      <use x="222.070312" xlink:href="#DejaVuSans-101"/>
      <use x="283.59375" xlink:href="#DejaVuSans-108"/>
     </g>
    </g>
   </g>
  </g>
 </g>
 <defs>
  <clipPath id="p96d6056b30">
   <rect height="332.64" width="390.6" x="63" y="51.84"/>
  </clipPath>
 </defs>
</svg>
