<?xml version="1.0" encoding="utf-8" standalone="no"?>
<!DOCTYPE svg PUBLIC "-//W3C//DTD SVG 1.1//EN"
  "http://www.w3.org/Graphics/SVG/1.1/DTD/svg11.dtd">
<!-- Created with matplotlib (https://matplotlib.org/) -->
<svg height="432pt" version="1.1" viewBox="0 0 504 432" width="504pt" xmlns="http://www.w3.org/2000/svg" xmlns:xlink="http://www.w3.org/1999/xlink">
 <defs>
  <style type="text/css">
*{stroke-linecap:butt;stroke-linejoin:round;}
  </style>
 </defs>
 <g id="figure_1">
  <g id="patch_1">
   <path d="M 0 432 
L 504 432 
L 504 0 
L 0 0 
z
" style="fill:#ffffff;"/>
  </g>
  <g id="axes_1">
   <g id="patch_2">
    <path d="M 63 384.48 
L 453.6 384.48 
L 453.6 51.84 
L 63 51.84 
z
" style="fill:#ffffff;"/>
   </g>
   <g id="matplotlib.axis_1">
    <g id="xtick_1">
     <g id="line2d_1">
      <defs>
       <path d="M 0 0 
L 0 3.5 
" id="m39f1697640" style="stroke:#000000;stroke-width:0.8;"/>
      </defs>
      <g>
       <use style="stroke:#000000;stroke-width:0.8;" x="80.754545" xlink:href="#m39f1697640" y="384.48"/>
      </g>
     </g>
     <g id="text_1">
      <!-- 0 -->
      <defs>
       <path d="M 31.78125 66.40625 
Q 24.171875 66.40625 20.328125 58.90625 
Q 16.5 51.421875 16.5 36.375 
Q 16.5 21.390625 20.328125 13.890625 
Q 24.171875 6.390625 31.78125 6.390625 
Q 39.453125 6.390625 43.28125 13.890625 
Q 47.125 21.390625 47.125 36.375 
Q 47.125 51.421875 43.28125 58.90625 
Q 39.453125 66.40625 31.78125 66.40625 
z
M 31.78125 74.21875 
Q 44.046875 74.21875 50.515625 64.515625 
Q 56.984375 54.828125 56.984375 36.375 
Q 56.984375 17.96875 50.515625 8.265625 
Q 44.046875 -1.421875 31.78125 -1.421875 
Q 19.53125 -1.421875 13.0625 8.265625 
Q 6.59375 17.96875 6.59375 36.375 
Q 6.59375 54.828125 13.0625 64.515625 
Q 19.53125 74.21875 31.78125 74.21875 
z
" id="DejaVuSans-48"/>
      </defs>
      <g transform="translate(77.573295 399.078438)scale(0.1 -0.1)">
       <use xlink:href="#DejaVuSans-48"/>
      </g>
     </g>
    </g>
    <g id="xtick_2">
     <g id="line2d_2">
      <g>
       <use style="stroke:#000000;stroke-width:0.8;" x="151.772727" xlink:href="#m39f1697640" y="384.48"/>
      </g>
     </g>
     <g id="text_2">
      <!-- 200 -->
      <defs>
       <path d="M 19.1875 8.296875 
L 53.609375 8.296875 
L 53.609375 0 
L 7.328125 0 
L 7.328125 8.296875 
Q 12.9375 14.109375 22.625 23.890625 
Q 32.328125 33.6875 34.8125 36.53125 
Q 39.546875 41.84375 41.421875 45.53125 
Q 43.3125 49.21875 43.3125 52.78125 
Q 43.3125 58.59375 39.234375 62.25 
Q 35.15625 65.921875 28.609375 65.921875 
Q 23.96875 65.921875 18.8125 64.3125 
Q 13.671875 62.703125 7.8125 59.421875 
L 7.8125 69.390625 
Q 13.765625 71.78125 18.9375 73 
Q 24.125 74.21875 28.421875 74.21875 
Q 39.75 74.21875 46.484375 68.546875 
Q 53.21875 62.890625 53.21875 53.421875 
Q 53.21875 48.921875 51.53125 44.890625 
Q 49.859375 40.875 45.40625 35.40625 
Q 44.1875 33.984375 37.640625 27.21875 
Q 31.109375 20.453125 19.1875 8.296875 
z
" id="DejaVuSans-50"/>
      </defs>
      <g transform="translate(142.228977 399.078438)scale(0.1 -0.1)">
       <use xlink:href="#DejaVuSans-50"/>
       <use x="63.623047" xlink:href="#DejaVuSans-48"/>
       <use x="127.246094" xlink:href="#DejaVuSans-48"/>
      </g>
     </g>
    </g>
    <g id="xtick_3">
     <g id="line2d_3">
      <g>
       <use style="stroke:#000000;stroke-width:0.8;" x="222.790909" xlink:href="#m39f1697640" y="384.48"/>
      </g>
     </g>
     <g id="text_3">
      <!-- 400 -->
      <defs>
       <path d="M 37.796875 64.3125 
L 12.890625 25.390625 
L 37.796875 25.390625 
z
M 35.203125 72.90625 
L 47.609375 72.90625 
L 47.609375 25.390625 
L 58.015625 25.390625 
L 58.015625 17.1875 
L 47.609375 17.1875 
L 47.609375 0 
L 37.796875 0 
L 37.796875 17.1875 
L 4.890625 17.1875 
L 4.890625 26.703125 
z
" id="DejaVuSans-52"/>
      </defs>
      <g transform="translate(213.247159 399.078438)scale(0.1 -0.1)">
       <use xlink:href="#DejaVuSans-52"/>
       <use x="63.623047" xlink:href="#DejaVuSans-48"/>
       <use x="127.246094" xlink:href="#DejaVuSans-48"/>
      </g>
     </g>
    </g>
    <g id="xtick_4">
     <g id="line2d_4">
      <g>
       <use style="stroke:#000000;stroke-width:0.8;" x="293.809091" xlink:href="#m39f1697640" y="384.48"/>
      </g>
     </g>
     <g id="text_4">
      <!-- 600 -->
      <defs>
       <path d="M 33.015625 40.375 
Q 26.375 40.375 22.484375 35.828125 
Q 18.609375 31.296875 18.609375 23.390625 
Q 18.609375 15.53125 22.484375 10.953125 
Q 26.375 6.390625 33.015625 6.390625 
Q 39.65625 6.390625 43.53125 10.953125 
Q 47.40625 15.53125 47.40625 23.390625 
Q 47.40625 31.296875 43.53125 35.828125 
Q 39.65625 40.375 33.015625 40.375 
z
M 52.59375 71.296875 
L 52.59375 62.3125 
Q 48.875 64.0625 45.09375 64.984375 
Q 41.3125 65.921875 37.59375 65.921875 
Q 27.828125 65.921875 22.671875 59.328125 
Q 17.53125 52.734375 16.796875 39.40625 
Q 19.671875 43.65625 24.015625 45.921875 
Q 28.375 48.1875 33.59375 48.1875 
Q 44.578125 48.1875 50.953125 41.515625 
Q 57.328125 34.859375 57.328125 23.390625 
Q 57.328125 12.15625 50.6875 5.359375 
Q 44.046875 -1.421875 33.015625 -1.421875 
Q 20.359375 -1.421875 13.671875 8.265625 
Q 6.984375 17.96875 6.984375 36.375 
Q 6.984375 53.65625 15.1875 63.9375 
Q 23.390625 74.21875 37.203125 74.21875 
Q 40.921875 74.21875 44.703125 73.484375 
Q 48.484375 72.75 52.59375 71.296875 
z
" id="DejaVuSans-54"/>
      </defs>
      <g transform="translate(284.265341 399.078438)scale(0.1 -0.1)">
       <use xlink:href="#DejaVuSans-54"/>
       <use x="63.623047" xlink:href="#DejaVuSans-48"/>
       <use x="127.246094" xlink:href="#DejaVuSans-48"/>
      </g>
     </g>
    </g>
    <g id="xtick_5">
     <g id="line2d_5">
      <g>
       <use style="stroke:#000000;stroke-width:0.8;" x="364.827273" xlink:href="#m39f1697640" y="384.48"/>
      </g>
     </g>
     <g id="text_5">
      <!-- 800 -->
      <defs>
       <path d="M 31.78125 34.625 
Q 24.75 34.625 20.71875 30.859375 
Q 16.703125 27.09375 16.703125 20.515625 
Q 16.703125 13.921875 20.71875 10.15625 
Q 24.75 6.390625 31.78125 6.390625 
Q 38.8125 6.390625 42.859375 10.171875 
Q 46.921875 13.96875 46.921875 20.515625 
Q 46.921875 27.09375 42.890625 30.859375 
Q 38.875 34.625 31.78125 34.625 
z
M 21.921875 38.8125 
Q 15.578125 40.375 12.03125 44.71875 
Q 8.5 49.078125 8.5 55.328125 
Q 8.5 64.0625 14.71875 69.140625 
Q 20.953125 74.21875 31.78125 74.21875 
Q 42.671875 74.21875 48.875 69.140625 
Q 55.078125 64.0625 55.078125 55.328125 
Q 55.078125 49.078125 51.53125 44.71875 
Q 48 40.375 41.703125 38.8125 
Q 48.828125 37.15625 52.796875 32.3125 
Q 56.78125 27.484375 56.78125 20.515625 
Q 56.78125 9.90625 50.3125 4.234375 
Q 43.84375 -1.421875 31.78125 -1.421875 
Q 19.734375 -1.421875 13.25 4.234375 
Q 6.78125 9.90625 6.78125 20.515625 
Q 6.78125 27.484375 10.78125 32.3125 
Q 14.796875 37.15625 21.921875 38.8125 
z
M 18.3125 54.390625 
Q 18.3125 48.734375 21.84375 45.5625 
Q 25.390625 42.390625 31.78125 42.390625 
Q 38.140625 42.390625 41.71875 45.5625 
Q 45.3125 48.734375 45.3125 54.390625 
Q 45.3125 60.0625 41.71875 63.234375 
Q 38.140625 66.40625 31.78125 66.40625 
Q 25.390625 66.40625 21.84375 63.234375 
Q 18.3125 60.0625 18.3125 54.390625 
z
" id="DejaVuSans-56"/>
      </defs>
      <g transform="translate(355.283523 399.078438)scale(0.1 -0.1)">
       <use xlink:href="#DejaVuSans-56"/>
       <use x="63.623047" xlink:href="#DejaVuSans-48"/>
       <use x="127.246094" xlink:href="#DejaVuSans-48"/>
      </g>
     </g>
    </g>
    <g id="text_6">
     <!-- time [ms] -->
     <defs>
      <path d="M 18.3125 70.21875 
L 18.3125 54.6875 
L 36.8125 54.6875 
L 36.8125 47.703125 
L 18.3125 47.703125 
L 18.3125 18.015625 
Q 18.3125 11.328125 20.140625 9.421875 
Q 21.96875 7.515625 27.59375 7.515625 
L 36.8125 7.515625 
L 36.8125 0 
L 27.59375 0 
Q 17.1875 0 13.234375 3.875 
Q 9.28125 7.765625 9.28125 18.015625 
L 9.28125 47.703125 
L 2.6875 47.703125 
L 2.6875 54.6875 
L 9.28125 54.6875 
L 9.28125 70.21875 
z
" id="DejaVuSans-116"/>
      <path d="M 9.421875 54.6875 
L 18.40625 54.6875 
L 18.40625 0 
L 9.421875 0 
z
M 9.421875 75.984375 
L 18.40625 75.984375 
L 18.40625 64.59375 
L 9.421875 64.59375 
z
" id="DejaVuSans-105"/>
      <path d="M 52 44.1875 
Q 55.375 50.25 60.0625 53.125 
Q 64.75 56 71.09375 56 
Q 79.640625 56 84.28125 50.015625 
Q 88.921875 44.046875 88.921875 33.015625 
L 88.921875 0 
L 79.890625 0 
L 79.890625 32.71875 
Q 79.890625 40.578125 77.09375 44.375 
Q 74.3125 48.1875 68.609375 48.1875 
Q 61.625 48.1875 57.5625 43.546875 
Q 53.515625 38.921875 53.515625 30.90625 
L 53.515625 0 
L 44.484375 0 
L 44.484375 32.71875 
Q 44.484375 40.625 41.703125 44.40625 
Q 38.921875 48.1875 33.109375 48.1875 
Q 26.21875 48.1875 22.15625 43.53125 
Q 18.109375 38.875 18.109375 30.90625 
L 18.109375 0 
L 9.078125 0 
L 9.078125 54.6875 
L 18.109375 54.6875 
L 18.109375 46.1875 
Q 21.1875 51.21875 25.484375 53.609375 
Q 29.78125 56 35.6875 56 
Q 41.65625 56 45.828125 52.96875 
Q 50 49.953125 52 44.1875 
z
" id="DejaVuSans-109"/>
      <path d="M 56.203125 29.59375 
L 56.203125 25.203125 
L 14.890625 25.203125 
Q 15.484375 15.921875 20.484375 11.0625 
Q 25.484375 6.203125 34.421875 6.203125 
Q 39.59375 6.203125 44.453125 7.46875 
Q 49.3125 8.734375 54.109375 11.28125 
L 54.109375 2.78125 
Q 49.265625 0.734375 44.1875 -0.34375 
Q 39.109375 -1.421875 33.890625 -1.421875 
Q 20.796875 -1.421875 13.15625 6.1875 
Q 5.515625 13.8125 5.515625 26.8125 
Q 5.515625 40.234375 12.765625 48.109375 
Q 20.015625 56 32.328125 56 
Q 43.359375 56 49.78125 48.890625 
Q 56.203125 41.796875 56.203125 29.59375 
z
M 47.21875 32.234375 
Q 47.125 39.59375 43.09375 43.984375 
Q 39.0625 48.390625 32.421875 48.390625 
Q 24.90625 48.390625 20.390625 44.140625 
Q 15.875 39.890625 15.1875 32.171875 
z
" id="DejaVuSans-101"/>
      <path id="DejaVuSans-32"/>
      <path d="M 8.59375 75.984375 
L 29.296875 75.984375 
L 29.296875 69 
L 17.578125 69 
L 17.578125 -6.203125 
L 29.296875 -6.203125 
L 29.296875 -13.1875 
L 8.59375 -13.1875 
z
" id="DejaVuSans-91"/>
      <path d="M 44.28125 53.078125 
L 44.28125 44.578125 
Q 40.484375 46.53125 36.375 47.5 
Q 32.28125 48.484375 27.875 48.484375 
Q 21.1875 48.484375 17.84375 46.4375 
Q 14.5 44.390625 14.5 40.28125 
Q 14.5 37.15625 16.890625 35.375 
Q 19.28125 33.59375 26.515625 31.984375 
L 29.59375 31.296875 
Q 39.15625 29.25 43.1875 25.515625 
Q 47.21875 21.78125 47.21875 15.09375 
Q 47.21875 7.46875 41.1875 3.015625 
Q 35.15625 -1.421875 24.609375 -1.421875 
Q 20.21875 -1.421875 15.453125 -0.5625 
Q 10.6875 0.296875 5.421875 2 
L 5.421875 11.28125 
Q 10.40625 8.6875 15.234375 7.390625 
Q 20.0625 6.109375 24.8125 6.109375 
Q 31.15625 6.109375 34.5625 8.28125 
Q 37.984375 10.453125 37.984375 14.40625 
Q 37.984375 18.0625 35.515625 20.015625 
Q 33.0625 21.96875 24.703125 23.78125 
L 21.578125 24.515625 
Q 13.234375 26.265625 9.515625 29.90625 
Q 5.8125 33.546875 5.8125 39.890625 
Q 5.8125 47.609375 11.28125 51.796875 
Q 16.75 56 26.8125 56 
Q 31.78125 56 36.171875 55.265625 
Q 40.578125 54.546875 44.28125 53.078125 
z
" id="DejaVuSans-115"/>
      <path d="M 30.421875 75.984375 
L 30.421875 -13.1875 
L 9.71875 -13.1875 
L 9.71875 -6.203125 
L 21.390625 -6.203125 
L 21.390625 69 
L 9.71875 69 
L 9.71875 75.984375 
z
" id="DejaVuSans-93"/>
     </defs>
     <g transform="translate(234.038281 412.756563)scale(0.1 -0.1)">
      <use xlink:href="#DejaVuSans-116"/>
      <use x="39.208984" xlink:href="#DejaVuSans-105"/>
      <use x="66.992188" xlink:href="#DejaVuSans-109"/>
      <use x="164.404297" xlink:href="#DejaVuSans-101"/>
      <use x="225.927734" xlink:href="#DejaVuSans-32"/>
      <use x="257.714844" xlink:href="#DejaVuSans-91"/>
      <use x="296.728516" xlink:href="#DejaVuSans-109"/>
      <use x="394.140625" xlink:href="#DejaVuSans-115"/>
      <use x="446.240234" xlink:href="#DejaVuSans-93"/>
     </g>
    </g>
   </g>
   <g id="matplotlib.axis_2">
    <g id="ytick_1">
     <g id="line2d_6">
      <defs>
       <path d="M 0 0 
L -3.5 0 
" id="mc76086afc4" style="stroke:#000000;stroke-width:0.8;"/>
      </defs>
      <g>
       <use style="stroke:#000000;stroke-width:0.8;" x="63" xlink:href="#mc76086afc4" y="344.997396"/>
      </g>
     </g>
     <g id="text_7">
      <!-- −60 -->
      <defs>
       <path d="M 10.59375 35.5 
L 73.1875 35.5 
L 73.1875 27.203125 
L 10.59375 27.203125 
z
" id="DejaVuSans-8722"/>
      </defs>
      <g transform="translate(34.895313 348.796614)scale(0.1 -0.1)">
       <use xlink:href="#DejaVuSans-8722"/>
       <use x="83.789062" xlink:href="#DejaVuSans-54"/>
       <use x="147.412109" xlink:href="#DejaVuSans-48"/>
      </g>
     </g>
    </g>
    <g id="ytick_2">
     <g id="line2d_7">
      <g>
       <use style="stroke:#000000;stroke-width:0.8;" x="63" xlink:href="#mc76086afc4" y="278.625686"/>
      </g>
     </g>
     <g id="text_8">
      <!-- −40 -->
      <g transform="translate(34.895313 282.424905)scale(0.1 -0.1)">
       <use xlink:href="#DejaVuSans-8722"/>
       <use x="83.789062" xlink:href="#DejaVuSans-52"/>
       <use x="147.412109" xlink:href="#DejaVuSans-48"/>
      </g>
     </g>
    </g>
    <g id="ytick_3">
     <g id="line2d_8">
      <g>
       <use style="stroke:#000000;stroke-width:0.8;" x="63" xlink:href="#mc76086afc4" y="212.253976"/>
      </g>
     </g>
     <g id="text_9">
      <!-- −20 -->
      <g transform="translate(34.895313 216.053195)scale(0.1 -0.1)">
       <use xlink:href="#DejaVuSans-8722"/>
       <use x="83.789062" xlink:href="#DejaVuSans-50"/>
       <use x="147.412109" xlink:href="#DejaVuSans-48"/>
      </g>
     </g>
    </g>
    <g id="ytick_4">
     <g id="line2d_9">
      <g>
       <use style="stroke:#000000;stroke-width:0.8;" x="63" xlink:href="#mc76086afc4" y="145.882267"/>
      </g>
     </g>
     <g id="text_10">
      <!-- 0 -->
      <g transform="translate(49.6375 149.681485)scale(0.1 -0.1)">
       <use xlink:href="#DejaVuSans-48"/>
      </g>
     </g>
    </g>
    <g id="ytick_5">
     <g id="line2d_10">
      <g>
       <use style="stroke:#000000;stroke-width:0.8;" x="63" xlink:href="#mc76086afc4" y="79.510557"/>
      </g>
     </g>
     <g id="text_11">
      <!-- 20 -->
      <g transform="translate(43.275 83.309776)scale(0.1 -0.1)">
       <use xlink:href="#DejaVuSans-50"/>
       <use x="63.623047" xlink:href="#DejaVuSans-48"/>
      </g>
     </g>
    </g>
    <g id="text_12">
     <!-- voltage [V] -->
     <defs>
      <path d="M 2.984375 54.6875 
L 12.5 54.6875 
L 29.59375 8.796875 
L 46.6875 54.6875 
L 56.203125 54.6875 
L 35.6875 0 
L 23.484375 0 
z
" id="DejaVuSans-118"/>
      <path d="M 30.609375 48.390625 
Q 23.390625 48.390625 19.1875 42.75 
Q 14.984375 37.109375 14.984375 27.296875 
Q 14.984375 17.484375 19.15625 11.84375 
Q 23.34375 6.203125 30.609375 6.203125 
Q 37.796875 6.203125 41.984375 11.859375 
Q 46.1875 17.53125 46.1875 27.296875 
Q 46.1875 37.015625 41.984375 42.703125 
Q 37.796875 48.390625 30.609375 48.390625 
z
M 30.609375 56 
Q 42.328125 56 49.015625 48.375 
Q 55.71875 40.765625 55.71875 27.296875 
Q 55.71875 13.875 49.015625 6.21875 
Q 42.328125 -1.421875 30.609375 -1.421875 
Q 18.84375 -1.421875 12.171875 6.21875 
Q 5.515625 13.875 5.515625 27.296875 
Q 5.515625 40.765625 12.171875 48.375 
Q 18.84375 56 30.609375 56 
z
" id="DejaVuSans-111"/>
      <path d="M 9.421875 75.984375 
L 18.40625 75.984375 
L 18.40625 0 
L 9.421875 0 
z
" id="DejaVuSans-108"/>
      <path d="M 34.28125 27.484375 
Q 23.390625 27.484375 19.1875 25 
Q 14.984375 22.515625 14.984375 16.5 
Q 14.984375 11.71875 18.140625 8.90625 
Q 21.296875 6.109375 26.703125 6.109375 
Q 34.1875 6.109375 38.703125 11.40625 
Q 43.21875 16.703125 43.21875 25.484375 
L 43.21875 27.484375 
z
M 52.203125 31.203125 
L 52.203125 0 
L 43.21875 0 
L 43.21875 8.296875 
Q 40.140625 3.328125 35.546875 0.953125 
Q 30.953125 -1.421875 24.3125 -1.421875 
Q 15.921875 -1.421875 10.953125 3.296875 
Q 6 8.015625 6 15.921875 
Q 6 25.140625 12.171875 29.828125 
Q 18.359375 34.515625 30.609375 34.515625 
L 43.21875 34.515625 
L 43.21875 35.40625 
Q 43.21875 41.609375 39.140625 45 
Q 35.0625 48.390625 27.6875 48.390625 
Q 23 48.390625 18.546875 47.265625 
Q 14.109375 46.140625 10.015625 43.890625 
L 10.015625 52.203125 
Q 14.9375 54.109375 19.578125 55.046875 
Q 24.21875 56 28.609375 56 
Q 40.484375 56 46.34375 49.84375 
Q 52.203125 43.703125 52.203125 31.203125 
z
" id="DejaVuSans-97"/>
      <path d="M 45.40625 27.984375 
Q 45.40625 37.75 41.375 43.109375 
Q 37.359375 48.484375 30.078125 48.484375 
Q 22.859375 48.484375 18.828125 43.109375 
Q 14.796875 37.75 14.796875 27.984375 
Q 14.796875 18.265625 18.828125 12.890625 
Q 22.859375 7.515625 30.078125 7.515625 
Q 37.359375 7.515625 41.375 12.890625 
Q 45.40625 18.265625 45.40625 27.984375 
z
M 54.390625 6.78125 
Q 54.390625 -7.171875 48.1875 -13.984375 
Q 42 -20.796875 29.203125 -20.796875 
Q 24.46875 -20.796875 20.265625 -20.09375 
Q 16.0625 -19.390625 12.109375 -17.921875 
L 12.109375 -9.1875 
Q 16.0625 -11.328125 19.921875 -12.34375 
Q 23.78125 -13.375 27.78125 -13.375 
Q 36.625 -13.375 41.015625 -8.765625 
Q 45.40625 -4.15625 45.40625 5.171875 
L 45.40625 9.625 
Q 42.625 4.78125 38.28125 2.390625 
Q 33.9375 0 27.875 0 
Q 17.828125 0 11.671875 7.65625 
Q 5.515625 15.328125 5.515625 27.984375 
Q 5.515625 40.671875 11.671875 48.328125 
Q 17.828125 56 27.875 56 
Q 33.9375 56 38.28125 53.609375 
Q 42.625 51.21875 45.40625 46.390625 
L 45.40625 54.6875 
L 54.390625 54.6875 
z
" id="DejaVuSans-103"/>
      <path d="M 28.609375 0 
L 0.78125 72.90625 
L 11.078125 72.90625 
L 34.1875 11.53125 
L 57.328125 72.90625 
L 67.578125 72.90625 
L 39.796875 0 
z
" id="DejaVuSans-86"/>
     </defs>
     <g transform="translate(28.815625 245.75375)rotate(-90)scale(0.1 -0.1)">
      <use xlink:href="#DejaVuSans-118"/>
      <use x="59.179688" xlink:href="#DejaVuSans-111"/>
      <use x="120.361328" xlink:href="#DejaVuSans-108"/>
      <use x="148.144531" xlink:href="#DejaVuSans-116"/>
      <use x="187.353516" xlink:href="#DejaVuSans-97"/>
      <use x="248.632812" xlink:href="#DejaVuSans-103"/>
      <use x="312.109375" xlink:href="#DejaVuSans-101"/>
      <use x="373.632812" xlink:href="#DejaVuSans-32"/>
      <use x="405.419922" xlink:href="#DejaVuSans-91"/>
      <use x="444.433594" xlink:href="#DejaVuSans-86"/>
      <use x="512.841797" xlink:href="#DejaVuSans-93"/>
     </g>
    </g>
   </g>
   <g id="line2d_11">
    <path clip-path="url(#p6010ec846b)" d="M 80.754545 361.590315 
L 81.695536 361.602161 
L 85.743573 362.01976 
L 98.580109 363.329659 
L 108.735709 364.122047 
L 119.654755 364.746436 
L 131.852127 365.216645 
L 146.180045 365.539582 
L 151.772727 365.615703 
L 151.8615 363.615827 
L 152.234345 355.46696 
L 152.731473 349.763362 
L 153.565936 343.024807 
L 154.9863 333.52962 
L 156.726245 323.413653 
L 158.412927 314.860261 
L 160.028591 307.774666 
L 161.590991 301.914008 
L 163.153391 296.921693 
L 164.840073 292.295246 
L 167.236936 286.452682 
L 168.941373 282.067682 
L 169.793591 279.273401 
L 170.361736 276.668177 
L 170.752336 273.84553 
L 171.036409 269.790885 
L 171.1962 262.64245 
L 171.249464 254.695165 
L 171.622309 69.275977 
L 171.675573 66.96 
L 171.746591 67.198483 
L 171.906382 79.892043 
L 172.190455 132.016551 
L 172.847373 249.047183 
L 173.220218 283.187551 
L 173.5398 295.43133 
L 173.912645 301.815944 
L 174.303245 305.156522 
L 174.782618 307.344022 
L 175.226482 308.446047 
L 175.6881 309.031915 
L 176.096455 309.223535 
L 176.522564 309.180284 
L 177.019691 308.890388 
L 177.676609 308.213089 
L 178.528827 306.989151 
L 179.771645 304.789744 
L 182.807673 298.800841 
L 185.470855 293.835626 
L 188.134036 289.366749 
L 192.217582 282.569252 
L 193.336118 280.19856 
L 194.117318 278.011314 
L 194.685464 275.70271 
L 195.093818 272.939105 
L 195.324627 270.013141 
L 195.502173 264.126175 
L 195.573191 254.992784 
L 195.626455 227.806136 
L 195.839509 97.446392 
L 196.017055 88.908833 
L 196.034809 88.867756 
L 196.176845 92.566688 
L 196.407655 109.458549 
L 196.744991 157.737394 
L 197.437418 254.273699 
L 197.810264 278.739888 
L 198.200864 290.335693 
L 198.591464 295.910815 
L 199.070836 299.567479 
L 199.550209 301.712495 
L 200.082845 303.190522 
L 200.650991 304.124515 
L 201.219136 304.61193 
L 201.787282 304.77816 
L 202.390936 304.693857 
L 203.083364 304.353991 
L 203.988845 303.63234 
L 205.231664 302.318505 
L 207.220173 299.841916 
L 212.9904 292.52529 
L 217.8729 286.871396 
L 220.4118 283.741856 
L 221.885427 281.58071 
L 222.915191 279.681129 
L 223.660882 277.849878 
L 224.229027 275.844814 
L 224.637382 273.542986 
L 224.9037 270.846435 
L 225.081245 267.129466 
L 225.205527 257.976744 
L 225.241036 244.614714 
L 225.525109 96.253726 
L 225.596127 93.92876 
L 225.667145 94.474677 
L 225.862445 102.312271 
L 226.164273 126.421536 
L 226.679155 194.724023 
L 227.229545 255.843179 
L 227.6379 276.985698 
L 228.046255 287.19833 
L 228.454609 292.509899 
L 228.933982 296.102298 
L 229.502127 298.684034 
L 230.105782 300.403761 
L 230.691682 301.46308 
L 231.313091 302.138471 
L 231.898991 302.469141 
L 232.538155 302.576479 
L 233.266091 302.458126 
L 234.153818 302.062917 
L 235.236845 301.325836 
L 236.781491 299.981503 
L 239.320391 297.438161 
L 247.416464 289.220587 
L 251.446745 285.064381 
L 253.346482 282.786657 
L 254.642564 280.892105 
L 255.601309 279.090479 
L 256.275982 277.372445 
L 256.808618 275.396665 
L 257.181464 273.169923 
L 257.447782 270.201488 
L 257.607573 266.297314 
L 257.696345 259.859986 
L 257.767364 236.942655 
L 257.998173 99.827607 
L 258.122455 94.613764 
L 258.157964 95.215939 
L 258.264491 98.656789 
L 258.566318 118.841707 
L 258.956918 162.73878 
L 259.755873 254.408788 
L 260.181982 276.100823 
L 260.590336 286.130391 
L 261.016445 291.458926 
L 261.495818 294.841746 
L 262.028455 297.158469 
L 262.649864 298.887721 
L 263.271273 299.994136 
L 263.892682 300.682404 
L 264.531845 301.073593 
L 265.206518 301.226429 
L 265.952209 301.162422 
L 266.857691 300.845102 
L 267.993982 300.18961 
L 269.538627 299.014078 
L 271.935491 296.873106 
L 282.694745 286.677332 
L 285.215891 284.020544 
L 286.8138 282.02832 
L 287.9856 280.213074 
L 288.820064 278.524685 
L 289.459227 276.736842 
L 289.9386 274.719571 
L 290.293691 272.169071 
L 290.542255 268.329418 
L 290.666536 262.990647 
L 290.737555 249.058795 
L 290.844082 160.730323 
L 291.003873 98.97581 
L 291.128155 94.903944 
L 291.163664 95.427941 
L 291.341209 102.801053 
L 291.643036 126.210703 
L 292.175673 191.441572 
L 292.761573 253.905207 
L 293.152173 274.239362 
L 293.560527 285.051941 
L 294.004391 290.929361 
L 294.483764 294.443009 
L 295.051909 296.949823 
L 295.673318 298.677079 
L 296.276973 299.760533 
L 296.916136 300.479109 
L 297.5553 300.878372 
L 298.247727 301.04327 
L 299.028927 300.980166 
L 299.952164 300.659563 
L 301.141718 299.977251 
L 302.686364 298.813258 
L 305.154245 296.639073 
L 315.451882 287.029871 
L 318.150573 284.261644 
L 319.837255 282.224849 
L 321.062318 280.393861 
L 321.950045 278.663222 
L 322.589209 276.952654 
L 323.068582 275.07191 
L 323.423673 272.818409 
L 323.672236 269.903393 
L 323.849782 264.424273 
L 323.938555 253.667571 
L 323.974064 233.31167 
L 324.204873 100.209638 
L 324.3114 94.688186 
L 324.346909 95.162104 
L 324.453436 98.148048 
L 324.755264 118.014322 
L 325.163618 163.171085 
L 325.962573 253.727504 
L 326.388682 275.504218 
L 326.797036 285.759753 
L 327.2409 291.363212 
L 327.738027 294.824837 
L 328.306173 297.199803 
L 328.927582 298.839515 
L 329.5845 299.933594 
L 330.241418 300.589754 
L 330.880582 300.925518 
L 331.573009 301.038612 
L 332.371964 300.927823 
L 333.2952 300.56712 
L 334.484755 299.851672 
L 336.135927 298.575238 
L 338.834618 296.167256 
L 350.197527 285.505382 
L 352.274809 283.223525 
L 353.677418 281.372979 
L 354.724936 279.632053 
L 355.506136 277.901167 
L 356.092036 276.048751 
L 356.518145 273.950769 
L 356.819973 271.341108 
L 357.015273 267.809872 
L 357.139555 261.462006 
L 357.210573 242.591474 
L 357.476891 97.667107 
L 357.565664 94.850304 
L 357.618927 95.428969 
L 357.778718 101.905623 
L 358.116055 128.252574 
L 358.648691 194.065606 
L 359.216836 254.152346 
L 359.625191 275.236821 
L 360.033545 285.726854 
L 360.459655 291.265609 
L 360.939027 294.724462 
L 361.453909 296.991085 
L 362.057564 298.689645 
L 362.678973 299.80974 
L 363.318136 300.521744 
L 363.975055 300.920918 
L 364.649727 301.071804 
L 364.862782 301.075878 
L 364.969309 303.25984 
L 365.306645 310.476586 
L 365.786018 315.565589 
L 366.460691 320.156247 
L 367.348418 324.661607 
L 368.395936 328.843928 
L 369.532227 332.510987 
L 370.775045 335.813166 
L 372.1599 338.86921 
L 373.633527 341.59063 
L 375.213682 344.052469 
L 376.900364 346.281746 
L 378.746836 348.357513 
L 380.735345 350.260986 
L 382.9014 352.028341 
L 385.280509 353.681582 
L 387.890427 355.224111 
L 390.819927 356.691926 
L 394.069009 358.066353 
L 397.726445 359.366017 
L 401.792236 360.571754 
L 406.355155 361.691095 
L 411.521727 362.724125 
L 417.256445 363.640151 
L 423.665836 364.435578 
L 430.838673 365.098507 
L 435.8277 365.444848 
L 435.8277 365.444848 
" style="fill:none;stroke:#1f77b4;stroke-linecap:square;stroke-width:1.5;"/>
   </g>
   <g id="line2d_12">
    <path clip-path="url(#p6010ec846b)" d="M 80.754545 361.590323 
L 81.482482 361.740376 
L 92.454791 364.27636 
L 97.461573 365.087451 
L 102.787936 365.721771 
L 108.664691 366.192972 
L 115.429173 366.505463 
L 123.791564 366.658643 
L 136.024445 366.637812 
L 151.772727 366.494822 
L 151.985782 356.403261 
L 152.429645 346.836149 
L 153.139827 336.590314 
L 154.151836 325.232236 
L 155.270373 315.075527 
L 156.335645 307.341658 
L 157.365409 301.430519 
L 158.412927 296.6824 
L 159.513709 292.698908 
L 160.756527 289.032965 
L 162.301173 285.196944 
L 165.248427 278.055255 
L 165.958609 275.583849 
L 166.437982 273.098282 
L 166.775318 270.120148 
L 167.006127 265.834934 
L 167.130409 259.55383 
L 167.201427 245.262035 
L 167.254691 145.857281 
L 167.378973 68.093023 
L 167.396727 68.891159 
L 167.574273 92.049769 
L 167.929364 125.231727 
L 168.302209 158.289559 
L 168.533018 203.993407 
L 168.994636 305.387505 
L 169.296464 319.159896 
L 169.651555 326.104126 
L 170.0244 329.450817 
L 170.379491 330.85968 
L 170.663564 331.251207 
L 170.894373 331.238681 
L 171.160691 330.950876 
L 171.551291 330.140485 
L 172.154945 328.288544 
L 173.1492 324.402881 
L 176.700109 310.002732 
L 178.138227 305.341027 
L 179.540836 301.5356 
L 180.9612 298.309198 
L 182.470336 295.428693 
L 184.086 292.823353 
L 185.861455 290.384181 
L 187.885473 287.988173 
L 190.388864 285.384619 
L 196.123582 279.557062 
L 197.330891 277.914146 
L 198.200864 276.356448 
L 198.840027 274.760566 
L 199.3194 272.978948 
L 199.692245 270.697878 
L 199.958564 267.574205 
L 200.136109 262.519518 
L 200.242636 250.796636 
L 200.2959 203.123853 
L 200.420182 74.148795 
L 200.437936 74.360237 
L 200.544464 86.505079 
L 200.917309 124.584114 
L 201.290155 159.215469 
L 201.538718 209.874919 
L 201.964827 301.634013 
L 202.2489 314.894084 
L 202.603991 321.921248 
L 202.994591 325.596483 
L 203.367436 327.281048 
L 203.704773 327.925863 
L 203.971091 328.041327 
L 204.237409 327.904142 
L 204.5925 327.428106 
L 205.107382 326.314989 
L 205.906336 323.985905 
L 207.450982 318.642728 
L 209.847845 310.524517 
L 211.463509 305.854145 
L 213.008155 302.060575 
L 214.5528 298.844712 
L 216.168464 295.989564 
L 217.8729 293.424968 
L 219.719373 291.0461 
L 221.796655 288.73768 
L 224.246782 286.357792 
L 227.975236 283.089659 
L 230.993509 280.335334 
L 232.502645 278.661017 
L 233.550164 277.173325 
L 234.313609 275.713066 
L 234.899509 274.113277 
L 235.343373 272.245514 
L 235.680709 269.802686 
L 235.911518 266.447524 
L 236.071309 260.234757 
L 236.160082 243.677452 
L 236.2311 110.460282 
L 236.319873 74.387442 
L 236.373136 77.53588 
L 237.030055 142.054384 
L 237.278618 174.543593 
L 237.562691 248.772277 
L 237.846764 300.670914 
L 238.130836 314.335544 
L 238.485927 321.411342 
L 238.876527 325.091439 
L 239.249373 326.777979 
L 239.586709 327.426238 
L 239.853027 327.545905 
L 240.119345 327.414185 
L 240.474436 326.946763 
L 240.989318 325.84921 
L 241.788273 323.550111 
L 243.332918 318.278638 
L 245.694273 310.396735 
L 247.292182 305.839936 
L 248.819073 302.135614 
L 250.363718 298.957524 
L 251.979382 296.138019 
L 253.683818 293.608308 
L 255.530291 291.26616 
L 257.572064 289.036857 
L 259.951173 286.774693 
L 263.146991 284.065831 
L 267.550118 280.322438 
L 269.112518 278.682265 
L 270.195545 277.227263 
L 270.9945 275.779945 
L 271.598155 274.217772 
L 272.059773 272.3794 
L 272.397109 270.102542 
L 272.645673 266.790035 
L 272.805464 261.384182 
L 272.894236 250.231752 
L 272.9475 198.380114 
L 273.071782 74.506692 
L 273.089536 74.810961 
L 273.213818 89.693637 
L 273.568909 125.196064 
L 273.941755 160.075474 
L 274.190318 211.411738 
L 274.616427 301.864307 
L 274.9005 314.743147 
L 275.255591 321.555475 
L 275.646191 325.120022 
L 276.019036 326.748852 
L 276.356373 327.364825 
L 276.622691 327.466952 
L 276.889009 327.322506 
L 277.2441 326.843381 
L 277.776736 325.691886 
L 278.593445 323.322119 
L 280.262373 317.624308 
L 282.481691 310.297782 
L 284.0796 305.787397 
L 285.606491 302.124447 
L 287.151136 298.983728 
L 288.7668 296.198891 
L 290.471236 293.702163 
L 292.317709 291.393449 
L 294.359482 289.200815 
L 296.703082 287.016022 
L 299.721355 284.524247 
L 305.243018 280.022091 
L 306.7344 278.473363 
L 307.781918 277.074709 
L 308.563118 275.664414 
L 309.149018 274.154961 
L 309.610636 272.326183 
L 309.947973 270.051314 
L 310.196536 266.72315 
L 310.356327 261.234725 
L 310.4451 249.595141 
L 310.498364 192.355394 
L 310.622645 74.589678 
L 310.6404 74.999793 
L 310.764682 90.021259 
L 311.119773 125.232878 
L 311.492618 159.97442 
L 311.741182 211.136215 
L 312.167291 301.760526 
L 312.451364 314.696187 
L 312.806455 321.530904 
L 313.197055 325.106633 
L 313.5699 326.741624 
L 313.907236 327.3616 
L 314.173555 327.466401 
L 314.439873 327.324425 
L 314.794964 326.848572 
L 315.3276 325.70196 
L 316.144309 323.340142 
L 317.813236 317.660937 
L 320.0148 310.415511 
L 321.612709 305.916266 
L 323.1396 302.263259 
L 324.684245 299.132543 
L 326.282155 296.386691 
L 327.986591 293.898292 
L 329.815309 291.621967 
L 331.839327 289.461622 
L 334.147418 287.330497 
L 337.0059 285.008764 
L 343.947927 279.512219 
L 345.315027 278.047801 
L 346.291527 276.680287 
L 347.019464 275.281162 
L 347.569855 273.748098 
L 347.995964 271.895554 
L 348.315545 269.475339 
L 348.546355 265.847801 
L 348.688391 259.792368 
L 348.759409 248.711934 
L 348.812673 183.823614 
L 348.936955 74.690978 
L 348.954709 75.23323 
L 349.096745 92.946167 
L 349.451836 126.601683 
L 349.806927 159.978328 
L 350.055491 211.080699 
L 350.4816 301.706034 
L 350.765673 314.663132 
L 351.120764 321.509498 
L 351.511364 325.092494 
L 351.884209 326.732382 
L 352.221545 327.356072 
L 352.487864 327.463594 
L 352.754182 327.324265 
L 353.109273 326.852 
L 353.641909 325.710843 
L 354.458618 323.357806 
L 356.127545 317.698091 
L 358.329109 310.478809 
L 359.927018 305.996918 
L 361.453909 302.358805 
L 362.998555 299.241807 
L 364.596464 296.509313 
L 364.827273 296.149952 
L 365.022573 305.294507 
L 365.395418 312.517189 
L 365.9103 318.302599 
L 366.602727 323.602053 
L 367.4727 328.557201 
L 368.484709 333.055618 
L 369.621 337.109967 
L 370.863818 340.734892 
L 372.213164 343.995271 
L 373.669036 346.940673 
L 375.249191 349.640419 
L 376.953627 352.117119 
L 378.8001 354.411883 
L 380.806364 356.550953 
L 382.972418 358.534067 
L 385.298264 360.360334 
L 387.7839 362.027312 
L 390.411573 363.521659 
L 393.199036 364.850533 
L 396.146291 366.0081 
L 399.271091 366.994552 
L 402.591191 367.807712 
L 406.159855 368.45094 
L 410.065855 368.926007 
L 414.451227 369.230669 
L 419.582291 369.357318 
L 426.115964 369.283605 
L 435.845455 368.945874 
L 435.845455 368.945874 
" style="fill:none;stroke:#ff0000;stroke-linecap:square;stroke-width:1.5;"/>
   </g>
   <g id="patch_3">
    <path d="M 63 384.48 
L 63 51.84 
" style="fill:none;stroke:#000000;stroke-linecap:square;stroke-linejoin:miter;stroke-width:0.8;"/>
   </g>
   <g id="patch_4">
    <path d="M 453.6 384.48 
L 453.6 51.84 
" style="fill:none;stroke:#000000;stroke-linecap:square;stroke-linejoin:miter;stroke-width:0.8;"/>
   </g>
   <g id="patch_5">
    <path d="M 63 384.48 
L 453.6 384.48 
" style="fill:none;stroke:#000000;stroke-linecap:square;stroke-linejoin:miter;stroke-width:0.8;"/>
   </g>
   <g id="patch_6">
    <path d="M 63 51.84 
L 453.6 51.84 
" style="fill:none;stroke:#000000;stroke-linecap:square;stroke-linejoin:miter;stroke-width:0.8;"/>
   </g>
   <g id="legend_1">
    <g id="patch_7">
     <path d="M 383.460938 89.19625 
L 446.6 89.19625 
Q 448.6 89.19625 448.6 87.19625 
L 448.6 58.84 
Q 448.6 56.84 446.6 56.84 
L 383.460938 56.84 
Q 381.460938 56.84 381.460938 58.84 
L 381.460938 87.19625 
Q 381.460938 89.19625 383.460938 89.19625 
z
" style="fill:#ffffff;opacity:0.8;stroke:#cccccc;stroke-linejoin:miter;"/>
    </g>
    <g id="line2d_13">
     <path d="M 385.460938 64.938437 
L 405.460938 64.938437 
" style="fill:none;stroke:#1f77b4;stroke-linecap:square;stroke-width:1.5;"/>
    </g>
    <g id="line2d_14"/>
    <g id="text_13">
     <!-- target -->
     <defs>
      <path d="M 41.109375 46.296875 
Q 39.59375 47.171875 37.8125 47.578125 
Q 36.03125 48 33.890625 48 
Q 26.265625 48 22.1875 43.046875 
Q 18.109375 38.09375 18.109375 28.8125 
L 18.109375 0 
L 9.078125 0 
L 9.078125 54.6875 
L 18.109375 54.6875 
L 18.109375 46.1875 
Q 20.953125 51.171875 25.484375 53.578125 
Q 30.03125 56 36.53125 56 
Q 37.453125 56 38.578125 55.875 
Q 39.703125 55.765625 41.0625 55.515625 
z
" id="DejaVuSans-114"/>
     </defs>
     <g transform="translate(413.460938 68.438437)scale(0.1 -0.1)">
      <use xlink:href="#DejaVuSans-116"/>
      <use x="39.208984" xlink:href="#DejaVuSans-97"/>
      <use x="100.488281" xlink:href="#DejaVuSans-114"/>
      <use x="141.585938" xlink:href="#DejaVuSans-103"/>
      <use x="205.0625" xlink:href="#DejaVuSans-101"/>
      <use x="266.585938" xlink:href="#DejaVuSans-116"/>
     </g>
    </g>
    <g id="line2d_15">
     <path d="M 385.460938 79.616562 
L 405.460938 79.616562 
" style="fill:none;stroke:#ff0000;stroke-linecap:square;stroke-width:1.5;"/>
    </g>
    <g id="line2d_16"/>
    <g id="text_14">
     <!-- model -->
     <defs>
      <path d="M 45.40625 46.390625 
L 45.40625 75.984375 
L 54.390625 75.984375 
L 54.390625 0 
L 45.40625 0 
L 45.40625 8.203125 
Q 42.578125 3.328125 38.25 0.953125 
Q 33.9375 -1.421875 27.875 -1.421875 
Q 17.96875 -1.421875 11.734375 6.484375 
Q 5.515625 14.40625 5.515625 27.296875 
Q 5.515625 40.1875 11.734375 48.09375 
Q 17.96875 56 27.875 56 
Q 33.9375 56 38.25 53.625 
Q 42.578125 51.265625 45.40625 46.390625 
z
M 14.796875 27.296875 
Q 14.796875 17.390625 18.875 11.75 
Q 22.953125 6.109375 30.078125 6.109375 
Q 37.203125 6.109375 41.296875 11.75 
Q 45.40625 17.390625 45.40625 27.296875 
Q 45.40625 37.203125 41.296875 42.84375 
Q 37.203125 48.484375 30.078125 48.484375 
Q 22.953125 48.484375 18.875 42.84375 
Q 14.796875 37.203125 14.796875 27.296875 
z
" id="DejaVuSans-100"/>
     </defs>
     <g transform="translate(413.460938 83.116562)scale(0.1 -0.1)">
      <use xlink:href="#DejaVuSans-109"/>
      <use x="97.412109" xlink:href="#DejaVuSans-111"/>
      <use x="158.59375" xlink:href="#DejaVuSans-100"/>
      <use x="222.070312" xlink:href="#DejaVuSans-101"/>
      <use x="283.59375" xlink:href="#DejaVuSans-108"/>
     </g>
    </g>
   </g>
  </g>
 </g>
 <defs>
  <clipPath id="p6010ec846b">
   <rect height="332.64" width="390.6" x="63" y="51.84"/>
  </clipPath>
 </defs>
</svg>
