<?xml version="1.0" encoding="utf-8" standalone="no"?>
<!DOCTYPE svg PUBLIC "-//W3C//DTD SVG 1.1//EN"
  "http://www.w3.org/Graphics/SVG/1.1/DTD/svg11.dtd">
<!-- Created with matplotlib (http://matplotlib.org/) -->
<svg height="432pt" version="1.1" viewBox="0 0 504 432" width="504pt" xmlns="http://www.w3.org/2000/svg" xmlns:xlink="http://www.w3.org/1999/xlink">
 <defs>
  <style type="text/css">
*{stroke-linecap:butt;stroke-linejoin:round;}
  </style>
 </defs>
 <g id="figure_1">
  <g id="patch_1">
   <path d="M 0 432 
L 504 432 
L 504 0 
L 0 0 
z
" style="fill:#ffffff;"/>
  </g>
  <g id="axes_1">
   <g id="patch_2">
    <path d="M 63 384.48 
L 453.6 384.48 
L 453.6 51.84 
L 63 51.84 
z
" style="fill:#ffffff;"/>
   </g>
   <g id="matplotlib.axis_1">
    <g id="xtick_1">
     <g id="line2d_1">
      <defs>
       <path d="M 0 0 
L 0 3.5 
" id="medef30dbab" style="stroke:#000000;stroke-width:0.8;"/>
      </defs>
      <g>
       <use style="stroke:#000000;stroke-width:0.8;" x="80.754545" xlink:href="#medef30dbab" y="384.48"/>
      </g>
     </g>
     <g id="text_1">
      <!-- 0 -->
      <defs>
       <path d="M 31.78125 66.40625 
Q 24.171875 66.40625 20.328125 58.90625 
Q 16.5 51.421875 16.5 36.375 
Q 16.5 21.390625 20.328125 13.890625 
Q 24.171875 6.390625 31.78125 6.390625 
Q 39.453125 6.390625 43.28125 13.890625 
Q 47.125 21.390625 47.125 36.375 
Q 47.125 51.421875 43.28125 58.90625 
Q 39.453125 66.40625 31.78125 66.40625 
z
M 31.78125 74.21875 
Q 44.046875 74.21875 50.515625 64.515625 
Q 56.984375 54.828125 56.984375 36.375 
Q 56.984375 17.96875 50.515625 8.265625 
Q 44.046875 -1.421875 31.78125 -1.421875 
Q 19.53125 -1.421875 13.0625 8.265625 
Q 6.59375 17.96875 6.59375 36.375 
Q 6.59375 54.828125 13.0625 64.515625 
Q 19.53125 74.21875 31.78125 74.21875 
z
" id="DejaVuSans-30"/>
      </defs>
      <g transform="translate(77.573295 399.078438)scale(0.1 -0.1)">
       <use xlink:href="#DejaVuSans-30"/>
      </g>
     </g>
    </g>
    <g id="xtick_2">
     <g id="line2d_2">
      <g>
       <use style="stroke:#000000;stroke-width:0.8;" x="151.767796" xlink:href="#medef30dbab" y="384.48"/>
      </g>
     </g>
     <g id="text_2">
      <!-- 720 -->
      <defs>
       <path d="M 8.203125 72.90625 
L 55.078125 72.90625 
L 55.078125 68.703125 
L 28.609375 0 
L 18.3125 0 
L 43.21875 64.59375 
L 8.203125 64.59375 
z
" id="DejaVuSans-37"/>
       <path d="M 19.1875 8.296875 
L 53.609375 8.296875 
L 53.609375 0 
L 7.328125 0 
L 7.328125 8.296875 
Q 12.9375 14.109375 22.625 23.890625 
Q 32.328125 33.6875 34.8125 36.53125 
Q 39.546875 41.84375 41.421875 45.53125 
Q 43.3125 49.21875 43.3125 52.78125 
Q 43.3125 58.59375 39.234375 62.25 
Q 35.15625 65.921875 28.609375 65.921875 
Q 23.96875 65.921875 18.8125 64.3125 
Q 13.671875 62.703125 7.8125 59.421875 
L 7.8125 69.390625 
Q 13.765625 71.78125 18.9375 73 
Q 24.125 74.21875 28.421875 74.21875 
Q 39.75 74.21875 46.484375 68.546875 
Q 53.21875 62.890625 53.21875 53.421875 
Q 53.21875 48.921875 51.53125 44.890625 
Q 49.859375 40.875 45.40625 35.40625 
Q 44.1875 33.984375 37.640625 27.21875 
Q 31.109375 20.453125 19.1875 8.296875 
z
" id="DejaVuSans-32"/>
      </defs>
      <g transform="translate(142.224046 399.078438)scale(0.1 -0.1)">
       <use xlink:href="#DejaVuSans-37"/>
       <use x="63.623047" xlink:href="#DejaVuSans-32"/>
       <use x="127.246094" xlink:href="#DejaVuSans-30"/>
      </g>
     </g>
    </g>
    <g id="xtick_3">
     <g id="line2d_3">
      <g>
       <use style="stroke:#000000;stroke-width:0.8;" x="222.781046" xlink:href="#medef30dbab" y="384.48"/>
      </g>
     </g>
     <g id="text_3">
      <!-- 1440 -->
      <defs>
       <path d="M 12.40625 8.296875 
L 28.515625 8.296875 
L 28.515625 63.921875 
L 10.984375 60.40625 
L 10.984375 69.390625 
L 28.421875 72.90625 
L 38.28125 72.90625 
L 38.28125 8.296875 
L 54.390625 8.296875 
L 54.390625 0 
L 12.40625 0 
z
" id="DejaVuSans-31"/>
       <path d="M 37.796875 64.3125 
L 12.890625 25.390625 
L 37.796875 25.390625 
z
M 35.203125 72.90625 
L 47.609375 72.90625 
L 47.609375 25.390625 
L 58.015625 25.390625 
L 58.015625 17.1875 
L 47.609375 17.1875 
L 47.609375 0 
L 37.796875 0 
L 37.796875 17.1875 
L 4.890625 17.1875 
L 4.890625 26.703125 
z
" id="DejaVuSans-34"/>
      </defs>
      <g transform="translate(210.056046 399.078438)scale(0.1 -0.1)">
       <use xlink:href="#DejaVuSans-31"/>
       <use x="63.623047" xlink:href="#DejaVuSans-34"/>
       <use x="127.246094" xlink:href="#DejaVuSans-34"/>
       <use x="190.869141" xlink:href="#DejaVuSans-30"/>
      </g>
     </g>
    </g>
    <g id="xtick_4">
     <g id="line2d_4">
      <g>
       <use style="stroke:#000000;stroke-width:0.8;" x="293.794296" xlink:href="#medef30dbab" y="384.48"/>
      </g>
     </g>
     <g id="text_4">
      <!-- 2160 -->
      <defs>
       <path d="M 33.015625 40.375 
Q 26.375 40.375 22.484375 35.828125 
Q 18.609375 31.296875 18.609375 23.390625 
Q 18.609375 15.53125 22.484375 10.953125 
Q 26.375 6.390625 33.015625 6.390625 
Q 39.65625 6.390625 43.53125 10.953125 
Q 47.40625 15.53125 47.40625 23.390625 
Q 47.40625 31.296875 43.53125 35.828125 
Q 39.65625 40.375 33.015625 40.375 
z
M 52.59375 71.296875 
L 52.59375 62.3125 
Q 48.875 64.0625 45.09375 64.984375 
Q 41.3125 65.921875 37.59375 65.921875 
Q 27.828125 65.921875 22.671875 59.328125 
Q 17.53125 52.734375 16.796875 39.40625 
Q 19.671875 43.65625 24.015625 45.921875 
Q 28.375 48.1875 33.59375 48.1875 
Q 44.578125 48.1875 50.953125 41.515625 
Q 57.328125 34.859375 57.328125 23.390625 
Q 57.328125 12.15625 50.6875 5.359375 
Q 44.046875 -1.421875 33.015625 -1.421875 
Q 20.359375 -1.421875 13.671875 8.265625 
Q 6.984375 17.96875 6.984375 36.375 
Q 6.984375 53.65625 15.1875 63.9375 
Q 23.390625 74.21875 37.203125 74.21875 
Q 40.921875 74.21875 44.703125 73.484375 
Q 48.484375 72.75 52.59375 71.296875 
z
" id="DejaVuSans-36"/>
      </defs>
      <g transform="translate(281.069296 399.078438)scale(0.1 -0.1)">
       <use xlink:href="#DejaVuSans-32"/>
       <use x="63.623047" xlink:href="#DejaVuSans-31"/>
       <use x="127.246094" xlink:href="#DejaVuSans-36"/>
       <use x="190.869141" xlink:href="#DejaVuSans-30"/>
      </g>
     </g>
    </g>
    <g id="xtick_5">
     <g id="line2d_5">
      <g>
       <use style="stroke:#000000;stroke-width:0.8;" x="364.807547" xlink:href="#medef30dbab" y="384.48"/>
      </g>
     </g>
     <g id="text_5">
      <!-- 2880 -->
      <defs>
       <path d="M 31.78125 34.625 
Q 24.75 34.625 20.71875 30.859375 
Q 16.703125 27.09375 16.703125 20.515625 
Q 16.703125 13.921875 20.71875 10.15625 
Q 24.75 6.390625 31.78125 6.390625 
Q 38.8125 6.390625 42.859375 10.171875 
Q 46.921875 13.96875 46.921875 20.515625 
Q 46.921875 27.09375 42.890625 30.859375 
Q 38.875 34.625 31.78125 34.625 
z
M 21.921875 38.8125 
Q 15.578125 40.375 12.03125 44.71875 
Q 8.5 49.078125 8.5 55.328125 
Q 8.5 64.0625 14.71875 69.140625 
Q 20.953125 74.21875 31.78125 74.21875 
Q 42.671875 74.21875 48.875 69.140625 
Q 55.078125 64.0625 55.078125 55.328125 
Q 55.078125 49.078125 51.53125 44.71875 
Q 48 40.375 41.703125 38.8125 
Q 48.828125 37.15625 52.796875 32.3125 
Q 56.78125 27.484375 56.78125 20.515625 
Q 56.78125 9.90625 50.3125 4.234375 
Q 43.84375 -1.421875 31.78125 -1.421875 
Q 19.734375 -1.421875 13.25 4.234375 
Q 6.78125 9.90625 6.78125 20.515625 
Q 6.78125 27.484375 10.78125 32.3125 
Q 14.796875 37.15625 21.921875 38.8125 
z
M 18.3125 54.390625 
Q 18.3125 48.734375 21.84375 45.5625 
Q 25.390625 42.390625 31.78125 42.390625 
Q 38.140625 42.390625 41.71875 45.5625 
Q 45.3125 48.734375 45.3125 54.390625 
Q 45.3125 60.0625 41.71875 63.234375 
Q 38.140625 66.40625 31.78125 66.40625 
Q 25.390625 66.40625 21.84375 63.234375 
Q 18.3125 60.0625 18.3125 54.390625 
z
" id="DejaVuSans-38"/>
      </defs>
      <g transform="translate(352.082547 399.078438)scale(0.1 -0.1)">
       <use xlink:href="#DejaVuSans-32"/>
       <use x="63.623047" xlink:href="#DejaVuSans-38"/>
       <use x="127.246094" xlink:href="#DejaVuSans-38"/>
       <use x="190.869141" xlink:href="#DejaVuSans-30"/>
      </g>
     </g>
    </g>
    <g id="text_6">
     <!-- time [ms] -->
     <defs>
      <path d="M 18.3125 70.21875 
L 18.3125 54.6875 
L 36.8125 54.6875 
L 36.8125 47.703125 
L 18.3125 47.703125 
L 18.3125 18.015625 
Q 18.3125 11.328125 20.140625 9.421875 
Q 21.96875 7.515625 27.59375 7.515625 
L 36.8125 7.515625 
L 36.8125 0 
L 27.59375 0 
Q 17.1875 0 13.234375 3.875 
Q 9.28125 7.765625 9.28125 18.015625 
L 9.28125 47.703125 
L 2.6875 47.703125 
L 2.6875 54.6875 
L 9.28125 54.6875 
L 9.28125 70.21875 
z
" id="DejaVuSans-74"/>
      <path d="M 9.421875 54.6875 
L 18.40625 54.6875 
L 18.40625 0 
L 9.421875 0 
z
M 9.421875 75.984375 
L 18.40625 75.984375 
L 18.40625 64.59375 
L 9.421875 64.59375 
z
" id="DejaVuSans-69"/>
      <path d="M 52 44.1875 
Q 55.375 50.25 60.0625 53.125 
Q 64.75 56 71.09375 56 
Q 79.640625 56 84.28125 50.015625 
Q 88.921875 44.046875 88.921875 33.015625 
L 88.921875 0 
L 79.890625 0 
L 79.890625 32.71875 
Q 79.890625 40.578125 77.09375 44.375 
Q 74.3125 48.1875 68.609375 48.1875 
Q 61.625 48.1875 57.5625 43.546875 
Q 53.515625 38.921875 53.515625 30.90625 
L 53.515625 0 
L 44.484375 0 
L 44.484375 32.71875 
Q 44.484375 40.625 41.703125 44.40625 
Q 38.921875 48.1875 33.109375 48.1875 
Q 26.21875 48.1875 22.15625 43.53125 
Q 18.109375 38.875 18.109375 30.90625 
L 18.109375 0 
L 9.078125 0 
L 9.078125 54.6875 
L 18.109375 54.6875 
L 18.109375 46.1875 
Q 21.1875 51.21875 25.484375 53.609375 
Q 29.78125 56 35.6875 56 
Q 41.65625 56 45.828125 52.96875 
Q 50 49.953125 52 44.1875 
z
" id="DejaVuSans-6d"/>
      <path d="M 56.203125 29.59375 
L 56.203125 25.203125 
L 14.890625 25.203125 
Q 15.484375 15.921875 20.484375 11.0625 
Q 25.484375 6.203125 34.421875 6.203125 
Q 39.59375 6.203125 44.453125 7.46875 
Q 49.3125 8.734375 54.109375 11.28125 
L 54.109375 2.78125 
Q 49.265625 0.734375 44.1875 -0.34375 
Q 39.109375 -1.421875 33.890625 -1.421875 
Q 20.796875 -1.421875 13.15625 6.1875 
Q 5.515625 13.8125 5.515625 26.8125 
Q 5.515625 40.234375 12.765625 48.109375 
Q 20.015625 56 32.328125 56 
Q 43.359375 56 49.78125 48.890625 
Q 56.203125 41.796875 56.203125 29.59375 
z
M 47.21875 32.234375 
Q 47.125 39.59375 43.09375 43.984375 
Q 39.0625 48.390625 32.421875 48.390625 
Q 24.90625 48.390625 20.390625 44.140625 
Q 15.875 39.890625 15.1875 32.171875 
z
" id="DejaVuSans-65"/>
      <path id="DejaVuSans-20"/>
      <path d="M 8.59375 75.984375 
L 29.296875 75.984375 
L 29.296875 69 
L 17.578125 69 
L 17.578125 -6.203125 
L 29.296875 -6.203125 
L 29.296875 -13.1875 
L 8.59375 -13.1875 
z
" id="DejaVuSans-5b"/>
      <path d="M 44.28125 53.078125 
L 44.28125 44.578125 
Q 40.484375 46.53125 36.375 47.5 
Q 32.28125 48.484375 27.875 48.484375 
Q 21.1875 48.484375 17.84375 46.4375 
Q 14.5 44.390625 14.5 40.28125 
Q 14.5 37.15625 16.890625 35.375 
Q 19.28125 33.59375 26.515625 31.984375 
L 29.59375 31.296875 
Q 39.15625 29.25 43.1875 25.515625 
Q 47.21875 21.78125 47.21875 15.09375 
Q 47.21875 7.46875 41.1875 3.015625 
Q 35.15625 -1.421875 24.609375 -1.421875 
Q 20.21875 -1.421875 15.453125 -0.5625 
Q 10.6875 0.296875 5.421875 2 
L 5.421875 11.28125 
Q 10.40625 8.6875 15.234375 7.390625 
Q 20.0625 6.109375 24.8125 6.109375 
Q 31.15625 6.109375 34.5625 8.28125 
Q 37.984375 10.453125 37.984375 14.40625 
Q 37.984375 18.0625 35.515625 20.015625 
Q 33.0625 21.96875 24.703125 23.78125 
L 21.578125 24.515625 
Q 13.234375 26.265625 9.515625 29.90625 
Q 5.8125 33.546875 5.8125 39.890625 
Q 5.8125 47.609375 11.28125 51.796875 
Q 16.75 56 26.8125 56 
Q 31.78125 56 36.171875 55.265625 
Q 40.578125 54.546875 44.28125 53.078125 
z
" id="DejaVuSans-73"/>
      <path d="M 30.421875 75.984375 
L 30.421875 -13.1875 
L 9.71875 -13.1875 
L 9.71875 -6.203125 
L 21.390625 -6.203125 
L 21.390625 69 
L 9.71875 69 
L 9.71875 75.984375 
z
" id="DejaVuSans-5d"/>
     </defs>
     <g transform="translate(234.038281 412.756563)scale(0.1 -0.1)">
      <use xlink:href="#DejaVuSans-74"/>
      <use x="39.208984" xlink:href="#DejaVuSans-69"/>
      <use x="66.992188" xlink:href="#DejaVuSans-6d"/>
      <use x="164.404297" xlink:href="#DejaVuSans-65"/>
      <use x="225.927734" xlink:href="#DejaVuSans-20"/>
      <use x="257.714844" xlink:href="#DejaVuSans-5b"/>
      <use x="296.728516" xlink:href="#DejaVuSans-6d"/>
      <use x="394.140625" xlink:href="#DejaVuSans-73"/>
      <use x="446.240234" xlink:href="#DejaVuSans-5d"/>
     </g>
    </g>
   </g>
   <g id="matplotlib.axis_2">
    <g id="ytick_1">
     <g id="line2d_6">
      <defs>
       <path d="M 0 0 
L -3.5 0 
" id="m518f949aaa" style="stroke:#000000;stroke-width:0.8;"/>
      </defs>
      <g>
       <use style="stroke:#000000;stroke-width:0.8;" x="63" xlink:href="#m518f949aaa" y="377.642112"/>
      </g>
     </g>
     <g id="text_7">
      <!-- −80 -->
      <defs>
       <path d="M 10.59375 35.5 
L 73.1875 35.5 
L 73.1875 27.203125 
L 10.59375 27.203125 
z
" id="DejaVuSans-2212"/>
      </defs>
      <g transform="translate(34.895313 381.441331)scale(0.1 -0.1)">
       <use xlink:href="#DejaVuSans-2212"/>
       <use x="83.789062" xlink:href="#DejaVuSans-38"/>
       <use x="147.412109" xlink:href="#DejaVuSans-30"/>
      </g>
     </g>
    </g>
    <g id="ytick_2">
     <g id="line2d_7">
      <g>
       <use style="stroke:#000000;stroke-width:0.8;" x="63" xlink:href="#m518f949aaa" y="328.519895"/>
      </g>
     </g>
     <g id="text_8">
      <!-- −60 -->
      <g transform="translate(34.895313 332.319114)scale(0.1 -0.1)">
       <use xlink:href="#DejaVuSans-2212"/>
       <use x="83.789062" xlink:href="#DejaVuSans-36"/>
       <use x="147.412109" xlink:href="#DejaVuSans-30"/>
      </g>
     </g>
    </g>
    <g id="ytick_3">
     <g id="line2d_8">
      <g>
       <use style="stroke:#000000;stroke-width:0.8;" x="63" xlink:href="#m518f949aaa" y="279.397678"/>
      </g>
     </g>
     <g id="text_9">
      <!-- −40 -->
      <g transform="translate(34.895313 283.196897)scale(0.1 -0.1)">
       <use xlink:href="#DejaVuSans-2212"/>
       <use x="83.789062" xlink:href="#DejaVuSans-34"/>
       <use x="147.412109" xlink:href="#DejaVuSans-30"/>
      </g>
     </g>
    </g>
    <g id="ytick_4">
     <g id="line2d_9">
      <g>
       <use style="stroke:#000000;stroke-width:0.8;" x="63" xlink:href="#m518f949aaa" y="230.275461"/>
      </g>
     </g>
     <g id="text_10">
      <!-- −20 -->
      <g transform="translate(34.895313 234.07468)scale(0.1 -0.1)">
       <use xlink:href="#DejaVuSans-2212"/>
       <use x="83.789062" xlink:href="#DejaVuSans-32"/>
       <use x="147.412109" xlink:href="#DejaVuSans-30"/>
      </g>
     </g>
    </g>
    <g id="ytick_5">
     <g id="line2d_10">
      <g>
       <use style="stroke:#000000;stroke-width:0.8;" x="63" xlink:href="#m518f949aaa" y="181.153244"/>
      </g>
     </g>
     <g id="text_11">
      <!-- 0 -->
      <g transform="translate(49.6375 184.952462)scale(0.1 -0.1)">
       <use xlink:href="#DejaVuSans-30"/>
      </g>
     </g>
    </g>
    <g id="ytick_6">
     <g id="line2d_11">
      <g>
       <use style="stroke:#000000;stroke-width:0.8;" x="63" xlink:href="#m518f949aaa" y="132.031027"/>
      </g>
     </g>
     <g id="text_12">
      <!-- 20 -->
      <g transform="translate(43.275 135.830245)scale(0.1 -0.1)">
       <use xlink:href="#DejaVuSans-32"/>
       <use x="63.623047" xlink:href="#DejaVuSans-30"/>
      </g>
     </g>
    </g>
    <g id="ytick_7">
     <g id="line2d_12">
      <g>
       <use style="stroke:#000000;stroke-width:0.8;" x="63" xlink:href="#m518f949aaa" y="82.908809"/>
      </g>
     </g>
     <g id="text_13">
      <!-- 40 -->
      <g transform="translate(43.275 86.708028)scale(0.1 -0.1)">
       <use xlink:href="#DejaVuSans-34"/>
       <use x="63.623047" xlink:href="#DejaVuSans-30"/>
      </g>
     </g>
    </g>
    <g id="text_14">
     <!-- Voltage [mV] -->
     <defs>
      <path d="M 28.609375 0 
L 0.78125 72.90625 
L 11.078125 72.90625 
L 34.1875 11.53125 
L 57.328125 72.90625 
L 67.578125 72.90625 
L 39.796875 0 
z
" id="DejaVuSans-56"/>
      <path d="M 30.609375 48.390625 
Q 23.390625 48.390625 19.1875 42.75 
Q 14.984375 37.109375 14.984375 27.296875 
Q 14.984375 17.484375 19.15625 11.84375 
Q 23.34375 6.203125 30.609375 6.203125 
Q 37.796875 6.203125 41.984375 11.859375 
Q 46.1875 17.53125 46.1875 27.296875 
Q 46.1875 37.015625 41.984375 42.703125 
Q 37.796875 48.390625 30.609375 48.390625 
z
M 30.609375 56 
Q 42.328125 56 49.015625 48.375 
Q 55.71875 40.765625 55.71875 27.296875 
Q 55.71875 13.875 49.015625 6.21875 
Q 42.328125 -1.421875 30.609375 -1.421875 
Q 18.84375 -1.421875 12.171875 6.21875 
Q 5.515625 13.875 5.515625 27.296875 
Q 5.515625 40.765625 12.171875 48.375 
Q 18.84375 56 30.609375 56 
z
" id="DejaVuSans-6f"/>
      <path d="M 9.421875 75.984375 
L 18.40625 75.984375 
L 18.40625 0 
L 9.421875 0 
z
" id="DejaVuSans-6c"/>
      <path d="M 34.28125 27.484375 
Q 23.390625 27.484375 19.1875 25 
Q 14.984375 22.515625 14.984375 16.5 
Q 14.984375 11.71875 18.140625 8.90625 
Q 21.296875 6.109375 26.703125 6.109375 
Q 34.1875 6.109375 38.703125 11.40625 
Q 43.21875 16.703125 43.21875 25.484375 
L 43.21875 27.484375 
z
M 52.203125 31.203125 
L 52.203125 0 
L 43.21875 0 
L 43.21875 8.296875 
Q 40.140625 3.328125 35.546875 0.953125 
Q 30.953125 -1.421875 24.3125 -1.421875 
Q 15.921875 -1.421875 10.953125 3.296875 
Q 6 8.015625 6 15.921875 
Q 6 25.140625 12.171875 29.828125 
Q 18.359375 34.515625 30.609375 34.515625 
L 43.21875 34.515625 
L 43.21875 35.40625 
Q 43.21875 41.609375 39.140625 45 
Q 35.0625 48.390625 27.6875 48.390625 
Q 23 48.390625 18.546875 47.265625 
Q 14.109375 46.140625 10.015625 43.890625 
L 10.015625 52.203125 
Q 14.9375 54.109375 19.578125 55.046875 
Q 24.21875 56 28.609375 56 
Q 40.484375 56 46.34375 49.84375 
Q 52.203125 43.703125 52.203125 31.203125 
z
" id="DejaVuSans-61"/>
      <path d="M 45.40625 27.984375 
Q 45.40625 37.75 41.375 43.109375 
Q 37.359375 48.484375 30.078125 48.484375 
Q 22.859375 48.484375 18.828125 43.109375 
Q 14.796875 37.75 14.796875 27.984375 
Q 14.796875 18.265625 18.828125 12.890625 
Q 22.859375 7.515625 30.078125 7.515625 
Q 37.359375 7.515625 41.375 12.890625 
Q 45.40625 18.265625 45.40625 27.984375 
z
M 54.390625 6.78125 
Q 54.390625 -7.171875 48.1875 -13.984375 
Q 42 -20.796875 29.203125 -20.796875 
Q 24.46875 -20.796875 20.265625 -20.09375 
Q 16.0625 -19.390625 12.109375 -17.921875 
L 12.109375 -9.1875 
Q 16.0625 -11.328125 19.921875 -12.34375 
Q 23.78125 -13.375 27.78125 -13.375 
Q 36.625 -13.375 41.015625 -8.765625 
Q 45.40625 -4.15625 45.40625 5.171875 
L 45.40625 9.625 
Q 42.625 4.78125 38.28125 2.390625 
Q 33.9375 0 27.875 0 
Q 17.828125 0 11.671875 7.65625 
Q 5.515625 15.328125 5.515625 27.984375 
Q 5.515625 40.671875 11.671875 48.328125 
Q 17.828125 56 27.875 56 
Q 33.9375 56 38.28125 53.609375 
Q 42.625 51.21875 45.40625 46.390625 
L 45.40625 54.6875 
L 54.390625 54.6875 
z
" id="DejaVuSans-67"/>
     </defs>
     <g transform="translate(28.815625 251.079531)rotate(-90)scale(0.1 -0.1)">
      <use xlink:href="#DejaVuSans-56"/>
      <use x="68.298828" xlink:href="#DejaVuSans-6f"/>
      <use x="129.480469" xlink:href="#DejaVuSans-6c"/>
      <use x="157.263672" xlink:href="#DejaVuSans-74"/>
      <use x="196.472656" xlink:href="#DejaVuSans-61"/>
      <use x="257.751953" xlink:href="#DejaVuSans-67"/>
      <use x="321.228516" xlink:href="#DejaVuSans-65"/>
      <use x="382.751953" xlink:href="#DejaVuSans-20"/>
      <use x="414.539062" xlink:href="#DejaVuSans-5b"/>
      <use x="453.552734" xlink:href="#DejaVuSans-6d"/>
      <use x="550.964844" xlink:href="#DejaVuSans-56"/>
      <use x="619.373047" xlink:href="#DejaVuSans-5d"/>
     </g>
    </g>
   </g>
   <g id="line2d_13">
    <path clip-path="url(#p211ed88f95)" d="M 80.754545 340.800449 
L 81.114543 338.249523 
L 81.129338 335.331658 
L 81.163858 234.959127 
L 81.188515 66.96 
L 81.277282 176.445819 
L 81.50413 359.428264 
L 81.622485 360.165358 
L 81.657006 360.1261 
L 81.775361 359.599048 
L 82.046592 357.130164 
L 83.338639 344.003564 
L 83.960005 340.113169 
L 83.979731 309.915521 
L 84.029045 69.74794 
L 84.122743 195.567159 
L 84.320002 359.079908 
L 84.467947 360.34569 
L 84.47781 360.342848 
L 84.551782 360.168919 
L 84.734246 359.001868 
L 85.158353 354.486976 
L 85.912869 346.981944 
L 86.465194 343.660406 
L 86.874507 341.244633 
L 86.894233 317.149846 
L 86.948479 71.737723 
L 87.032314 186.132055 
L 87.249299 358.756606 
L 87.402175 359.935734 
L 87.412038 359.9335 
L 87.490941 359.755157 
L 87.673406 358.625271 
L 88.112307 354.13941 
L 88.832303 347.411963 
L 89.384628 344.248546 
L 89.823529 341.798364 
L 89.843255 319.116951 
L 89.897501 73.113941 
L 89.981337 186.279318 
L 90.198321 358.275336 
L 90.365992 359.634242 
L 90.435032 359.526352 
L 90.59284 358.699393 
L 90.952837 355.331891 
L 91.79612 347.548745 
L 92.353376 344.478929 
L 92.787346 342.41198 
L 92.807072 330.47808 
L 92.86625 74.127133 
L 92.950085 189.750635 
L 93.157207 357.731751 
L 93.324877 359.420143 
L 93.36926 359.413734 
L 93.403781 359.347842 
L 93.551725 358.640637 
L 93.882134 355.706538 
L 94.794457 347.464483 
L 95.356645 344.490327 
L 95.765958 342.460006 
L 95.785683 328.999872 
L 95.844861 74.794937 
L 95.928696 191.299981 
L 96.135818 357.504675 
L 96.30842 359.256911 
L 96.352803 359.252798 
L 96.387323 359.189569 
L 96.530336 358.528365 
L 96.850882 355.750866 
L 97.787863 347.420906 
L 98.350051 344.509857 
L 98.7495 342.469115 
L 98.769226 328.081291 
L 98.828404 75.210639 
L 98.912239 192.014789 
L 99.119361 357.348216 
L 99.291963 359.143224 
L 99.336346 359.148781 
L 99.375798 359.080775 
L 99.518811 358.425015 
L 99.839356 355.669064 
L 100.480448 349.555406 
L 100.628393 361.507772 
L 100.884829 366.150073 
L 101.195512 368.275601 
L 101.506195 369.089548 
L 101.807015 369.338659 
L 102.147287 369.328702 
L 102.689749 369.052357 
L 107.039311 366.357884 
L 108.849163 365.674812 
L 110.895725 365.144907 
L 113.356531 364.746054 
L 116.571854 364.463535 
L 121.384974 364.285119 
L 130.069303 364.199929 
L 130.222178 350.021579 
L 130.542724 340.61593 
L 130.764641 334.278951 
L 130.799161 236.8251 
L 130.823818 69.283848 
L 130.912585 181.17818 
L 131.134501 357.462527 
L 131.257788 358.302612 
L 131.287377 358.27303 
L 131.39587 357.812894 
L 131.642443 355.549737 
L 133.151475 339.491217 
L 133.496678 337.144938 
L 133.516404 320.949203 
L 133.57065 71.292511 
L 133.654485 186.213869 
L 133.87147 358.251167 
L 134.014483 359.302186 
L 134.029278 359.294953 
L 134.113113 359.059873 
L 134.310372 357.667211 
L 134.778862 352.339981 
L 135.479131 345.209273 
L 136.026525 341.815912 
L 136.356934 339.842665 
L 136.37666 324.987547 
L 136.430906 73.018182 
L 136.514741 185.108609 
L 136.731726 357.89398 
L 136.894465 359.208674 
L 136.899397 359.20841 
L 136.973369 359.069198 
L 137.141039 358.105249 
L 137.520762 354.310867 
L 138.329524 346.480715 
L 138.88185 343.271905 
L 139.271436 341.251053 
L 139.291162 328.326498 
L 139.35034 74.175705 
L 139.434175 191.618237 
L 139.641297 357.499164 
L 139.808967 359.128929 
L 139.85335 359.11725 
L 139.882939 359.060433 
L 139.932254 358.895029 
L 140.045678 340.032878 
L 140.302115 338.016078 
L 140.321841 320.828877 
L 140.371155 66.96 
L 140.464853 184.154508 
L 140.681838 359.339968 
L 140.805125 360.165358 
L 140.834714 360.135746 
L 140.943207 359.690478 
L 141.194712 357.506742 
L 142.614977 343.432145 
L 143.142645 340.113169 
L 143.162371 309.915521 
L 143.211685 69.74794 
L 143.305383 195.567159 
L 143.502642 359.079908 
L 143.650587 360.34569 
L 143.66045 360.342848 
L 143.734422 360.168919 
L 143.916886 359.001868 
L 144.340993 354.486976 
L 145.095509 346.981944 
L 145.647834 343.660406 
L 146.057147 341.244633 
L 146.076873 317.149846 
L 146.131119 71.737723 
L 146.214954 186.132055 
L 146.431939 358.756606 
L 146.584815 359.935734 
L 146.594678 359.9335 
L 146.673581 359.755157 
L 146.856046 358.625271 
L 147.294947 354.13941 
L 148.014943 347.411963 
L 148.567268 344.248546 
L 149.006169 341.798364 
L 149.025895 319.116951 
L 149.080142 73.113941 
L 149.163977 186.279318 
L 149.380962 358.275336 
L 149.548632 359.634242 
L 149.617672 359.526352 
L 149.77548 358.699393 
L 150.135477 355.331891 
L 150.97876 347.548745 
L 151.536016 344.478929 
L 151.969986 342.41198 
L 151.989712 330.47808 
L 152.04889 74.127133 
L 152.132725 189.750635 
L 152.339847 357.731751 
L 152.507517 359.420143 
L 152.5519 359.413734 
L 152.586421 359.347842 
L 152.734365 358.640637 
L 153.064774 355.706538 
L 153.977097 347.464483 
L 154.539285 344.490327 
L 154.948598 342.460006 
L 154.968324 328.999872 
L 155.027501 74.794937 
L 155.111336 191.299981 
L 155.318458 357.504675 
L 155.49106 359.256911 
L 155.535443 359.252798 
L 155.569964 359.189569 
L 155.712976 358.528365 
L 156.033522 355.750866 
L 156.970503 347.420906 
L 157.532691 344.509857 
L 157.93214 342.469115 
L 157.951866 328.081291 
L 158.011044 75.210639 
L 158.094879 192.014789 
L 158.302001 357.348216 
L 158.474603 359.143224 
L 158.518986 359.148781 
L 158.558438 359.080775 
L 158.701451 358.425015 
L 159.021997 355.669064 
L 159.712403 347.672217 
L 159.983634 343.693395 
L 160.43733 340.167765 
L 160.748013 338.035167 
L 160.767739 323.346869 
L 160.821985 75.306598 
L 160.90582 186.966042 
L 161.117874 356.036914 
L 161.275681 357.408385 
L 161.280612 357.407754 
L 161.349653 357.265865 
L 161.512392 356.249774 
L 161.882252 352.201332 
L 162.681152 343.715751 
L 163.233477 340.219322 
L 163.554023 338.240545 
L 163.573749 323.503715 
L 163.627995 75.664182 
L 163.71183 187.017138 
L 163.923883 356.00442 
L 164.086622 357.412596 
L 164.155663 357.284179 
L 164.31347 356.336525 
L 164.668536 352.54439 
L 165.497024 343.836413 
L 166.054281 340.375401 
L 166.369895 338.244678 
L 166.389621 313.0931 
L 166.443868 75.48357 
L 166.527703 190.603312 
L 166.739756 356.034213 
L 166.902495 357.409426 
L 166.907426 357.408523 
L 166.976467 357.267528 
L 167.139206 356.269791 
L 167.509066 352.29319 
L 168.307965 343.976707 
L 168.865222 340.520796 
L 169.185768 338.584075 
L 169.205494 324.23324 
L 169.264672 75.888159 
L 169.343575 186.76347 
L 169.555629 355.894003 
L 169.723299 357.353388 
L 169.79234 357.226574 
L 169.950147 356.291496 
L 170.305213 352.54484 
L 171.128769 344.001786 
L 171.686026 340.573846 
L 172.006572 338.607838 
L 172.026298 323.548593 
L 172.085476 75.988548 
L 172.164379 187.045032 
L 172.376433 355.86717 
L 172.544103 357.332856 
L 172.613144 357.210059 
L 172.770951 356.283407 
L 173.126017 352.552346 
L 173.949574 344.033039 
L 174.50683 340.612464 
L 174.827376 338.695895 
L 174.847102 324.542014 
L 174.90628 75.974615 
L 174.985183 186.644695 
L 175.197237 355.83442 
L 175.364907 357.31427 
L 175.433948 357.195467 
L 175.591755 356.276272 
L 175.946821 352.557312 
L 176.775309 344.016634 
L 177.332566 340.613795 
L 177.64818 338.808363 
L 177.662975 333.170009 
L 177.702427 178.995559 
L 177.727084 75.857253 
L 177.810919 193.090929 
L 178.01311 355.662466 
L 178.18078 357.309425 
L 178.24982 357.213381 
L 178.397765 356.403746 
L 178.728174 353.051265 
L 179.620771 343.855277 
L 180.178027 340.513958 
L 180.473916 338.627964 
L 180.493642 322.341679 
L 180.55282 76.134046 
L 180.631723 187.49946 
L 180.843777 355.824252 
L 181.011447 357.295525 
L 181.080487 357.178543 
L 181.233363 356.30305 
L 181.578567 352.731128 
L 182.42678 343.990733 
L 182.984037 340.605524 
L 183.29472 338.788296 
L 183.314446 325.620963 
L 183.373624 75.968898 
L 183.452527 186.132366 
L 183.664581 355.786128 
L 183.832251 357.283536 
L 183.89636 357.185857 
L 184.044304 356.376598 
L 184.374713 353.02778 
L 185.26731 343.855382 
L 185.829499 340.498017 
L 186.120456 338.616595 
L 186.140182 321.527072 
L 186.194428 76.102205 
L 186.278263 187.780548 
L 186.490316 355.815479 
L 186.657987 357.284167 
L 186.727027 357.168337 
L 186.879903 356.295663 
L 187.225106 352.729165 
L 188.07332 343.996218 
L 188.630577 340.612935 
L 188.94126 338.805204 
L 188.960986 325.878016 
L 189.020163 75.965676 
L 189.099067 185.990215 
L 189.316052 357.125102 
L 189.488654 359.07075 
L 189.537968 359.103838 
L 189.587283 359.0313 
L 189.730296 358.401548 
L 190.050842 355.756038 
L 190.968096 348.032062 
L 191.540147 345.187874 
L 191.964254 343.178945 
L 191.98398 329.899923 
L 192.043158 76.200533 
L 192.126993 191.273831 
L 192.334115 356.927764 
L 192.511648 358.89113 
L 192.560963 358.919211 
L 192.610278 358.843252 
L 192.758222 358.175455 
L 193.088631 355.396785 
L 193.981228 347.812004 
L 194.548348 344.946177 
L 194.967523 343.007423 
L 194.987249 330.639801 
L 195.046427 76.099302 
L 195.130262 190.628914 
L 195.337384 356.914365 
L 195.514917 358.870664 
L 195.564232 358.896159 
L 195.608615 358.829533 
L 195.751628 358.203305 
L 196.067242 355.581103 
L 197.009154 347.533004 
L 197.576274 344.699488 
L 197.96586 342.759614 
L 197.985586 328.949 
L 198.044764 76.009417 
L 198.128599 191.874015 
L 198.335721 356.925751 
L 198.513254 358.848178 
L 198.562569 358.868905 
L 198.606952 358.79845 
L 198.749965 358.161723 
L 199.070511 355.474327 
L 199.114894 355.03859 
L 199.228318 340.032878 
L 199.484755 338.016078 
L 199.504481 320.828877 
L 199.553796 66.96 
L 199.647494 184.154508 
L 199.864478 359.339968 
L 199.987765 360.165358 
L 200.017354 360.135746 
L 200.125847 359.690478 
L 200.377352 357.506742 
L 201.797617 343.432145 
L 202.325285 340.113169 
L 202.345011 309.915521 
L 202.394326 69.74794 
L 202.488024 195.567159 
L 202.685283 359.079908 
L 202.833227 360.34569 
L 202.84309 360.342848 
L 202.917062 360.168919 
L 203.099527 359.001868 
L 203.523633 354.486976 
L 204.278149 346.981944 
L 204.830475 343.660406 
L 205.239787 341.244633 
L 205.259513 317.149846 
L 205.313759 71.737723 
L 205.397594 186.132055 
L 205.614579 358.756606 
L 205.767455 359.935734 
L 205.777318 359.9335 
L 205.856221 359.755157 
L 206.038686 358.625271 
L 206.477587 354.13941 
L 207.197583 347.411963 
L 207.749908 344.248546 
L 208.188809 341.798364 
L 208.208535 319.116951 
L 208.262782 73.113941 
L 208.346617 186.279318 
L 208.563602 358.275336 
L 208.731272 359.634242 
L 208.800312 359.526352 
L 208.95812 358.699393 
L 209.318117 355.331891 
L 210.1614 347.548745 
L 210.718657 344.478929 
L 211.152626 342.41198 
L 211.172352 330.47808 
L 211.23153 74.127133 
L 211.315365 189.750635 
L 211.522487 357.731751 
L 211.690157 359.420143 
L 211.734541 359.413734 
L 211.769061 359.347842 
L 211.917005 358.640637 
L 212.247414 355.706538 
L 213.159737 347.464483 
L 213.721925 344.490327 
L 214.131238 342.460006 
L 214.150964 328.999872 
L 214.210141 74.794937 
L 214.293976 191.299981 
L 214.501098 357.504675 
L 214.6737 359.256911 
L 214.718083 359.252798 
L 214.752604 359.189569 
L 214.895616 358.528365 
L 215.216162 355.750866 
L 216.153143 347.420906 
L 216.715331 344.509857 
L 217.114781 342.469115 
L 217.134506 328.081291 
L 217.193684 75.210639 
L 217.277519 192.014789 
L 217.484641 357.348216 
L 217.657243 359.143224 
L 217.701626 359.148781 
L 217.741078 359.080775 
L 217.884091 358.425015 
L 218.204637 355.669064 
L 218.860523 348.061523 
L 219.062713 341.792355 
L 219.442437 336.929577 
L 219.812298 333.312194 
L 219.827092 322.02507 
L 219.881338 74.743118 
L 219.965174 187.886172 
L 220.177227 354.810701 
L 220.305445 355.826709 
L 220.330103 355.800316 
L 220.428732 355.365342 
L 220.660512 353.100393 
L 222.120228 336.510906 
L 222.485158 333.532935 
L 222.504883 299.537882 
L 222.554198 75.076823 
L 222.642965 196.861394 
L 222.840224 354.619868 
L 222.978305 355.906165 
L 222.998031 355.892701 
L 223.086798 355.56122 
L 223.298851 353.662303 
L 223.900491 345.473917 
L 224.487337 339.185205 
L 225.079114 335.218036 
L 225.16788 334.220371 
L 225.187606 314.571179 
L 225.241853 75.21279 
L 225.325688 190.885947 
L 225.53281 354.744365 
L 225.670891 355.901245 
L 225.690617 355.883935 
L 225.784315 355.515666 
L 226.0013 353.539087 
L 227.569509 336.662025 
L 227.860466 334.39206 
L 227.880192 308.931951 
L 227.934438 75.476967 
L 228.018273 192.896717 
L 228.225395 354.734504 
L 228.363477 355.887563 
L 228.383203 355.872316 
L 228.471969 355.54361 
L 228.684023 353.677672 
L 229.295526 345.517492 
L 229.882371 339.415847 
L 230.493874 335.417685 
L 230.557983 334.266278 
L 230.577709 299.605696 
L 230.627024 75.685188 
L 230.715791 196.864929 
L 230.91305 354.475155 
L 231.060994 355.836823 
L 231.070857 355.831599 
L 231.144829 355.615713 
L 231.327294 354.201042 
L 231.756332 348.683506 
L 232.456601 340.497043 
L 233.008927 336.588737 
L 233.255501 334.512994 
L 233.275226 302.84767 
L 233.324541 75.952549 
L 233.413308 195.50435 
L 233.615498 354.553874 
L 233.758511 355.817312 
L 233.773306 355.809095 
L 233.852209 355.559197 
L 234.044537 354.005905 
L 234.517958 347.834814 
L 235.173845 340.374839 
L 235.731101 336.500746 
L 235.953018 334.733153 
L 235.972744 315.394508 
L 236.02699 75.606427 
L 236.110825 190.594489 
L 236.322878 354.72843 
L 236.46096 355.822743 
L 236.480686 355.806485 
L 236.574384 355.449444 
L 236.791369 353.511372 
L 238.354646 336.97794 
L 238.650535 334.953868 
L 238.665329 329.277321 
L 238.709713 107.532355 
L 238.724507 75.926632 
L 238.798479 172.748016 
L 239.025327 354.765924 
L 239.158477 355.792479 
L 239.183134 355.771817 
L 239.276832 355.403428 
L 239.498749 353.396597 
L 241.017643 337.211848 
L 241.352984 334.862754 
L 241.37271 318.752773 
L 241.426956 75.751173 
L 241.510791 189.503931 
L 241.722844 354.675797 
L 241.860926 355.793386 
L 241.880652 355.779072 
L 241.969418 355.457654 
L 242.17654 353.669484 
L 242.763386 345.934718 
L 243.355163 339.747982 
L 243.942008 335.919518 
L 244.055432 334.773509 
L 244.075158 314.589747 
L 244.129405 75.647523 
L 244.21324 190.862475 
L 244.420362 354.587965 
L 244.563374 355.801092 
L 244.578169 355.791939 
L 244.662004 355.514881 
L 244.859263 353.885722 
L 245.362273 347.302688 
L 245.993502 340.282263 
L 246.555691 336.43899 
L 246.757881 334.651399 
L 246.777607 304.241659 
L 246.831853 75.980038 
L 246.915688 194.919534 
L 247.117879 354.499808 
L 247.260892 355.783946 
L 247.275686 355.777837 
L 247.35459 355.538809 
L 247.541986 354.059637 
L 247.995681 348.212226 
L 248.434583 342.771133 
L 248.439514 343.329612 
L 248.59239 346.497553 
L 248.740334 346.758215 
L 248.755129 346.753691 
L 248.908004 346.562089 
L 249.307454 345.579487 
L 249.766081 344.081453 
L 249.780876 342.32373 
L 249.820328 249.942963 
L 249.854848 76.633865 
L 249.938683 195.022266 
L 250.140873 356.926887 
L 250.318407 359.011055 
L 250.372653 359.05423 
L 250.421968 358.984112 
L 250.56498 358.367291 
L 250.885526 355.762525 
L 251.802781 348.150016 
L 252.374832 345.340851 
L 252.798939 343.442631 
L 252.818665 331.608791 
L 252.877842 76.360967 
L 252.961678 189.756816 
L 253.1688 356.904345 
L 253.346333 358.910036 
L 253.395647 358.944424 
L 253.444962 358.874127 
L 253.587975 358.250986 
L 253.908521 355.608301 
L 254.835638 347.787419 
L 255.407689 344.952039 
L 255.807139 343.145119 
L 255.826865 332.096915 
L 255.886043 76.229695 
L 255.974809 197.081564 
L 256.172068 356.733709 
L 256.349601 358.872955 
L 256.403848 358.912575 
L 256.453162 358.837819 
L 256.601107 358.171666 
L 256.926584 355.433767 
L 257.833976 347.683739 
L 258.297534 345.254463 
L 258.410958 340.032878 
L 258.667395 338.016078 
L 258.687121 320.828877 
L 258.736436 66.96 
L 258.830134 184.154508 
L 259.047119 359.339968 
L 259.170405 360.165358 
L 259.199994 360.135746 
L 259.308487 359.690478 
L 259.559992 357.506742 
L 260.980257 343.432145 
L 261.507925 340.113169 
L 261.527651 309.915521 
L 261.576966 69.74794 
L 261.670664 195.567159 
L 261.867923 359.079908 
L 262.015867 360.34569 
L 262.02573 360.342848 
L 262.099702 360.168919 
L 262.282167 359.001868 
L 262.706274 354.486976 
L 263.460789 346.981944 
L 264.013115 343.660406 
L 264.422427 341.244633 
L 264.442153 317.149846 
L 264.496399 71.737723 
L 264.580234 186.132055 
L 264.797219 358.756606 
L 264.950095 359.935734 
L 264.959958 359.9335 
L 265.038862 359.755157 
L 265.221326 358.625271 
L 265.660228 354.13941 
L 266.380223 347.411963 
L 266.932548 344.248546 
L 267.37145 341.798364 
L 267.391175 319.116951 
L 267.445422 73.113941 
L 267.529257 186.279318 
L 267.746242 358.275336 
L 267.913912 359.634242 
L 267.982953 359.526352 
L 268.14076 358.699393 
L 268.500758 355.331891 
L 269.34404 347.548745 
L 269.901297 344.478929 
L 270.335266 342.41198 
L 270.354992 330.47808 
L 270.41417 74.127133 
L 270.498005 189.750635 
L 270.705127 357.731751 
L 270.872797 359.420143 
L 270.917181 359.413734 
L 270.951701 359.347842 
L 271.099645 358.640637 
L 271.430054 355.706538 
L 272.342377 347.464483 
L 272.904565 344.490327 
L 273.313878 342.460006 
L 273.333604 328.999872 
L 273.392781 74.794937 
L 273.476617 191.299981 
L 273.683739 357.504675 
L 273.85634 359.256911 
L 273.900723 359.252798 
L 273.935244 359.189569 
L 274.078257 358.528365 
L 274.398802 355.750866 
L 275.335783 347.420906 
L 275.897971 344.509857 
L 276.297421 342.469115 
L 276.317147 328.081291 
L 276.376324 75.210639 
L 276.460159 192.014789 
L 276.667281 357.348216 
L 276.839883 359.143224 
L 276.884266 359.148781 
L 276.923718 359.080775 
L 277.066731 358.425015 
L 277.387277 355.669064 
L 278.0333 348.59822 
L 278.210833 339.587071 
L 278.556037 333.351046 
L 278.90124 328.241188 
L 278.930829 260.442828 
L 278.965349 74.240496 
L 279.054116 195.234225 
L 279.256306 353.507093 
L 279.359867 354.356249 
L 279.40425 354.278431 
L 279.532469 353.422676 
L 279.823426 349.652625 
L 280.928076 334.163804 
L 281.465607 328.547636 
L 281.495196 260.394459 
L 281.529716 74.723585 
L 281.618483 195.69731 
L 281.820673 353.640457 
L 281.929166 354.525987 
L 281.968618 354.461598 
L 282.091905 353.689449 
L 282.372999 350.192273 
L 283.517101 334.615067 
L 284.044769 329.818875 
L 284.064495 294.452743 
L 284.11381 74.960593 
L 284.202576 199.539676 
L 284.394904 353.380941 
L 284.513259 354.487104 
L 284.54778 354.440348 
L 284.661203 353.796072 
L 284.922572 350.728123 
L 286.165304 334.41664 
L 286.633794 330.407552 
L 286.648588 320.600659 
L 286.702834 75.314877 
L 286.786669 188.705819 
L 286.998723 353.629731 
L 287.107215 354.462565 
L 287.146667 354.402546 
L 287.265023 353.699744 
L 287.536254 350.464312 
L 288.709945 335.023217 
L 289.232681 330.1557 
L 289.257339 278.446619 
L 289.301722 75.315705 
L 289.39542 209.321675 
L 289.568022 352.851911 
L 289.706103 354.446497 
L 289.720898 354.436358 
L 289.799801 354.13999 
L 289.99706 352.296393 
L 290.485276 345.022878 
L 291.126368 336.777241 
L 291.703351 332.221664 
L 291.826638 330.932213 
L 291.841432 324.223954 
L 291.90061 75.386987 
L 291.994308 209.129837 
L 292.166909 352.820561 
L 292.304991 354.429513 
L 292.319785 354.420726 
L 292.398689 354.131197 
L 292.591016 352.361515 
L 293.059507 345.444752 
L 293.715393 336.945363 
L 294.282513 332.450625 
L 294.430457 330.735365 
L 294.445251 317.636955 
L 294.499498 75.469596 
L 294.583333 190.497599 
L 294.790455 353.462427 
L 294.90881 354.402323 
L 294.938399 354.361362 
L 295.046891 353.783833 
L 295.298397 350.963083 
L 296.590443 334.586944 
L 297.034276 330.464492 
L 297.054002 293.421141 
L 297.103317 75.459487 
L 297.192083 199.987481 
L 297.384411 353.241406 
L 297.507698 354.402293 
L 297.537287 354.371123 
L 297.640848 353.855264 
L 297.88249 351.23158 
L 299.25344 334.158027 
L 299.633164 331.014611 
L 299.647958 323.39113 
L 299.707136 75.573962 
L 299.795902 201.439064 
L 299.98823 353.26337 
L 300.111517 354.403953 
L 300.141106 354.371948 
L 300.244667 353.855731 
L 300.486309 351.23558 
L 301.857259 334.171619 
L 302.236983 330.942525 
L 302.251777 321.025478 
L 302.306024 75.711457 
L 302.389859 188.545474 
L 302.601912 353.512308 
L 302.715336 354.38312 
L 302.749856 354.33639 
L 302.86328 353.713241 
L 303.124649 350.727625 
L 304.357517 334.96402 
L 304.840802 330.826196 
L 304.860528 296.715412 
L 304.909843 75.539275 
L 304.998609 198.560722 
L 305.195868 353.308729 
L 305.319155 354.371296 
L 305.348744 354.332856 
L 305.457237 353.764701 
L 305.708742 350.963245 
L 307.000788 334.646644 
L 307.444621 330.789527 
L 307.464347 296.084792 
L 307.513662 75.526505 
L 307.602428 198.820773 
L 307.799688 357.616163 
L 307.977221 359.657012 
L 308.031467 359.693744 
L 308.080782 359.620266 
L 308.228726 358.976553 
L 308.564066 356.268788 
L 309.441869 349.144376 
L 310.018852 346.331578 
L 310.526794 343.937037 
L 310.546519 327.790545 
L 310.605697 76.584435 
L 310.684601 184.335836 
L 310.901586 357.113669 
L 311.079119 358.990842 
L 311.128434 359.020903 
L 311.177748 358.949066 
L 311.325693 358.301675 
L 311.656102 355.601317 
L 312.543767 348.299736 
L 313.115818 345.48876 
L 313.55472 343.561038 
L 313.574446 332.295257 
L 313.633623 76.441166 
L 313.72239 197.048357 
L 313.919649 356.737078 
L 314.097182 358.909833 
L 314.151428 358.95748 
L 314.200743 358.889587 
L 314.343756 358.272797 
L 314.65937 355.690104 
L 315.596351 347.817139 
L 316.168402 344.999254 
L 316.567851 343.095168 
L 316.587577 329.974141 
L 316.646755 76.154592 
L 316.73059 191.19536 
L 316.937712 356.914224 
L 317.115245 358.87086 
L 317.16456 358.897887 
L 317.213875 358.821011 
L 317.361819 358.150725 
L 317.480174 357.291326 
L 317.593598 340.032878 
L 317.850035 338.016078 
L 317.869761 320.828877 
L 317.919076 66.96 
L 318.012774 184.154508 
L 318.229759 359.339968 
L 318.353046 360.165358 
L 318.382634 360.135746 
L 318.491127 359.690478 
L 318.742632 357.506742 
L 320.162897 343.432145 
L 320.690565 340.113169 
L 320.710291 309.915521 
L 320.759606 69.74794 
L 320.853304 195.567159 
L 321.050563 359.079908 
L 321.198507 360.34569 
L 321.20837 360.342848 
L 321.282342 360.168919 
L 321.464807 359.001868 
L 321.888914 354.486976 
L 322.643429 346.981944 
L 323.195755 343.660406 
L 323.605067 341.244633 
L 323.624793 317.149846 
L 323.679039 71.737723 
L 323.762874 186.132055 
L 323.979859 358.756606 
L 324.132735 359.935734 
L 324.142598 359.9335 
L 324.221502 359.755157 
L 324.403966 358.625271 
L 324.842868 354.13941 
L 325.562863 347.411963 
L 326.115188 344.248546 
L 326.55409 341.798364 
L 326.573816 319.116951 
L 326.628062 73.113941 
L 326.711897 186.279318 
L 326.928882 358.275336 
L 327.096552 359.634242 
L 327.165593 359.526352 
L 327.3234 358.699393 
L 327.683398 355.331891 
L 328.52668 347.548745 
L 329.083937 344.478929 
L 329.517907 342.41198 
L 329.537632 330.47808 
L 329.59681 74.127133 
L 329.680645 189.750635 
L 329.887767 357.731751 
L 330.055437 359.420143 
L 330.099821 359.413734 
L 330.134341 359.347842 
L 330.282285 358.640637 
L 330.612694 355.706538 
L 331.525017 347.464483 
L 332.087205 344.490327 
L 332.496518 342.460006 
L 332.516244 328.999872 
L 332.575422 74.794937 
L 332.659257 191.299981 
L 332.866379 357.504675 
L 333.03898 359.256911 
L 333.083364 359.252798 
L 333.117884 359.189569 
L 333.260897 358.528365 
L 333.581443 355.750866 
L 334.518423 347.420906 
L 335.080611 344.509857 
L 335.480061 342.469115 
L 335.499787 328.081291 
L 335.558964 75.210639 
L 335.642799 192.014789 
L 335.849921 357.348216 
L 336.022523 359.143224 
L 336.066906 359.148781 
L 336.106358 359.080775 
L 336.249371 358.425015 
L 336.569917 355.669064 
L 337.21594 348.292398 
L 337.388542 336.884899 
L 337.723882 329.273115 
L 338.000045 323.372797 
L 338.029634 245.474423 
L 338.059223 73.925842 
L 338.147989 193.650661 
L 338.355111 352.364008 
L 338.434015 352.905577 
L 338.488261 352.761965 
L 338.636205 351.468245 
L 338.971546 346.198117 
L 339.908526 331.036154 
L 340.465783 324.457238 
L 340.485509 285.507868 
L 340.529892 74.211952 
L 340.62359 204.129491 
L 340.810986 352.362113 
L 340.904684 353.217065 
L 340.953999 353.109633 
L 341.09208 352.005608 
L 341.407695 347.310749 
L 342.408784 331.619211 
L 342.961109 324.738127 
L 342.99563 222.049399 
L 343.025219 74.768601 
L 343.109054 192.800594 
L 343.316176 352.542398 
L 343.404942 353.168489 
L 343.454257 353.047264 
L 343.59727 351.887747 
L 343.922747 347.049703 
L 344.86959 332.450029 
L 345.466299 324.905272 
L 345.500819 218.173974 
L 345.530408 75.088087 
L 345.609312 185.850448 
L 345.826297 352.589313 
L 345.910132 353.144001 
L 345.959447 353.033937 
L 346.097528 351.959347 
L 346.413142 347.392034 
L 347.394506 332.520968 
L 347.971489 326.329896 
L 347.991215 287.640884 
L 348.035598 75.289168 
L 348.129296 203.100136 
L 348.316692 352.169187 
L 348.420253 353.134297 
L 348.459705 353.066029 
L 348.57806 352.268803 
L 348.854223 348.591014 
L 350.018051 331.574168 
L 350.486541 326.469164 
L 350.511199 273.631025 
L 350.550651 75.373217 
L 350.644349 203.356638 
L 350.831745 352.143383 
L 350.935306 353.116097 
L 350.974757 353.051874 
L 351.093113 352.266852 
L 351.369275 348.615427 
L 352.533104 331.684308 
L 353.001594 327.012107 
L 353.016388 314.0135 
L 353.070635 75.267939 
L 353.15447 192.277269 
L 353.361592 352.389114 
L 353.45529 353.078879 
L 353.499673 352.988687 
L 353.627891 352.064914 
L 353.92378 347.988899 
L 354.979116 332.422827 
L 355.521578 326.499001 
L 355.551167 259.069497 
L 355.585687 75.367461 
L 355.674454 196.44258 
L 355.876644 352.35358 
L 355.975274 353.094273 
L 356.019657 352.998074 
L 356.152807 352.019475 
L 356.458558 347.751955 
L 357.474442 332.693336 
L 358.041562 325.979301 
L 358.076082 226.163359 
L 358.105671 75.335287 
L 358.189506 192.397823 
L 358.396628 352.367422 
L 358.490326 353.060738 
L 358.539641 352.954398 
L 358.677723 351.908152 
L 358.993337 347.428777 
L 359.964838 332.98212 
L 360.556615 326.858658 
L 360.576341 289.0839 
L 360.625655 75.527479 
L 360.714422 202.342973 
L 360.901818 352.066616 
L 361.010311 353.067198 
L 361.049762 352.994213 
L 361.173049 352.153575 
L 361.459075 348.319051 
L 362.568657 332.158228 
L 363.076599 326.998905 
L 363.096325 290.499655 
L 363.14564 75.449327 
L 363.234406 201.641483 
L 363.426734 352.166418 
L 363.530295 353.056095 
L 363.569746 352.984867 
L 363.693033 352.147862 
L 363.974127 348.397793 
L 365.098504 332.073104 
L 365.596583 326.997579 
L 365.616309 290.365301 
L 365.665624 75.462345 
L 365.75439 201.708369 
L 365.946718 352.164163 
L 366.050279 353.053105 
L 366.089731 352.982059 
L 366.213017 352.145928 
L 366.494112 348.397927 
L 366.799863 343.167484 
L 366.809726 345.040605 
L 366.962602 350.398861 
L 367.09082 350.762395 
L 367.120409 350.744966 
L 367.253559 350.457659 
L 367.662871 348.849706 
L 368.511085 345.783654 
L 368.708344 344.848589 
L 368.72807 334.236274 
L 368.792179 76.993029 
L 368.880946 203.725189 
L 369.06341 356.387248 
L 369.240943 359.031645 
L 369.314916 359.132705 
L 369.36423 359.067136 
L 369.507243 358.469702 
L 369.827789 355.933706 
L 370.740112 348.585013 
L 371.317095 345.822158 
L 371.760928 343.863489 
L 371.780653 331.52985 
L 371.839831 76.581315 
L 371.923666 189.958513 
L 372.130788 356.906984 
L 372.308321 358.944015 
L 372.362568 358.983743 
L 372.411882 358.911295 
L 372.559827 358.259554 
L 372.890236 355.536082 
L 373.777901 348.149267 
L 374.349952 345.308751 
L 374.783922 343.277471 
L 374.803648 330.099388 
L 374.862826 76.259807 
L 374.946661 191.108827 
L 375.153783 356.911282 
L 375.331316 358.88546 
L 375.380631 358.916042 
L 375.429946 358.84249 
L 375.57789 358.18154 
L 375.908299 355.417219 
L 376.662814 348.777204 
L 376.776238 340.032878 
L 377.032675 338.016078 
L 377.052401 320.828877 
L 377.101716 66.96 
L 377.195414 184.154508 
L 377.412399 359.339968 
L 377.535686 360.165358 
L 377.565275 360.135746 
L 377.673767 359.690478 
L 377.925272 357.506742 
L 379.345537 343.432145 
L 379.873205 340.113169 
L 379.892931 309.915521 
L 379.942246 69.74794 
L 380.035944 195.567159 
L 380.233203 359.079908 
L 380.381147 360.34569 
L 380.39101 360.342848 
L 380.464982 360.168919 
L 380.647447 359.001868 
L 381.071554 354.486976 
L 381.82607 346.981944 
L 382.378395 343.660406 
L 382.787707 341.244633 
L 382.807433 317.149846 
L 382.861679 71.737723 
L 382.945515 186.132055 
L 383.162499 358.756606 
L 383.315375 359.935734 
L 383.325238 359.9335 
L 383.404142 359.755157 
L 383.586606 358.625271 
L 384.025508 354.13941 
L 384.745503 347.411963 
L 385.297828 344.248546 
L 385.73673 341.798364 
L 385.756456 319.116951 
L 385.810702 73.113941 
L 385.894537 186.279318 
L 386.111522 358.275336 
L 386.279192 359.634242 
L 386.348233 359.526352 
L 386.50604 358.699393 
L 386.866038 355.331891 
L 387.70932 347.548745 
L 388.266577 344.478929 
L 388.700547 342.41198 
L 388.720273 330.47808 
L 388.77945 74.127133 
L 388.863285 189.750635 
L 389.070407 357.731751 
L 389.238078 359.420143 
L 389.282461 359.413734 
L 389.316981 359.347842 
L 389.464925 358.640637 
L 389.795334 355.706538 
L 390.707657 347.464483 
L 391.269846 344.490327 
L 391.679158 342.460006 
L 391.698884 328.999872 
L 391.758062 74.794937 
L 391.841897 191.299981 
L 392.049019 357.504675 
L 392.22162 359.256911 
L 392.266004 359.252798 
L 392.300524 359.189569 
L 392.443537 358.528365 
L 392.764083 355.750866 
L 393.701063 347.420906 
L 394.263251 344.509857 
L 394.662701 342.469115 
L 394.682427 328.081291 
L 394.741604 75.210639 
L 394.82544 192.014789 
L 395.032562 357.348216 
L 395.205163 359.143224 
L 395.249546 359.148781 
L 395.288998 359.080775 
L 395.432011 358.425015 
L 395.752557 355.669064 
L 396.393649 349.555406 
L 396.546525 335.105213 
L 396.86707 325.694966 
L 397.093918 319.722471 
L 397.118576 263.733715 
L 397.153096 73.65725 
L 397.246794 200.573446 
L 397.439122 350.991233 
L 397.513094 351.535997 
L 397.56734 351.353064 
L 397.725147 349.728378 
L 398.085145 343.270607 
L 398.972811 327.200781 
L 399.461027 320.02808 
L 399.475821 303.003764 
L 399.525136 73.733207 
L 399.613902 196.751298 
L 399.816093 351.566225 
L 399.885134 352.005128 
L 399.93938 351.827604 
L 400.097187 350.238637 
L 400.462116 343.828716 
L 401.325125 328.639959 
L 401.872518 320.741765 
L 401.902107 246.077779 
L 401.936628 74.604628 
L 402.020463 193.783793 
L 402.227585 351.508915 
L 402.296625 351.94168 
L 402.350871 351.777192 
L 402.503747 350.304198 
L 402.858813 344.270288 
L 403.736616 329.223751 
L 404.293873 321.825809 
L 404.313599 280.814661 
L 404.357982 74.579362 
L 404.45168 207.270762 
L 404.629213 351.016868 
L 404.722911 351.930693 
L 404.767295 351.818578 
L 404.905376 350.628404 
L 405.225922 345.514429 
L 406.217148 328.928415 
L 406.72509 322.04409 
L 406.754679 249.225218 
L 406.7892 74.933633 
L 406.873035 192.883333 
L 407.080157 351.38656 
L 407.154129 351.870484 
L 407.208375 351.713861 
L 407.361251 350.287951 
L 407.711386 344.491853 
L 408.589188 329.831124 
L 409.161239 321.97921 
L 409.190828 244.534536 
L 409.220417 75.203282 
L 409.309184 194.548873 
L 409.511374 351.301834 
L 409.590278 351.860826 
L 409.644524 351.705291 
L 409.7974 350.289502 
L 410.147535 344.52527 
L 411.020406 330.020331 
L 411.597388 322.840708 
L 411.617114 283.148878 
L 411.661498 74.967357 
L 411.755196 205.752097 
L 411.93766 351.0254 
L 412.031358 351.869103 
L 412.075742 351.757783 
L 412.213823 350.592921 
L 412.529437 345.659601 
L 413.520664 329.400905 
L 414.038469 322.7126 
L 414.063126 266.731257 
L 414.102578 75.06617 
L 414.191345 199.624419 
L 414.383672 351.127804 
L 414.472439 351.832978 
L 414.521754 351.695938 
L 414.664766 350.437189 
L 414.995175 345.170337 
L 415.927224 329.832807 
L 416.479549 322.940721 
L 416.504207 269.139005 
L 416.543659 75.044193 
L 416.637357 206.305369 
L 416.819821 351.001358 
L 416.913519 351.845581 
L 416.957903 351.737539 
L 417.091052 350.640611 
L 417.401735 345.85845 
L 418.417619 329.319623 
L 418.92063 323.222971 
L 418.940356 285.679012 
L 418.984739 75.166322 
L 419.078437 204.244761 
L 419.265833 351.079809 
L 419.3546 351.832268 
L 419.403915 351.706351 
L 419.546927 350.467698 
L 419.872405 345.318804 
L 420.819248 329.79447 
L 421.366642 322.317023 
L 421.396231 244.671758 
L 421.42582 75.408834 
L 421.514586 194.599535 
L 421.716777 351.240371 
L 421.79568 351.811691 
L 421.849926 351.667235 
L 421.997871 350.34299 
L 422.338143 344.86305 
L 423.240603 330.044097 
L 423.807722 322.905827 
L 423.83238 267.70274 
L 423.871832 75.102825 
L 423.960598 198.944128 
L 424.157857 351.199854 
L 424.241692 351.816689 
L 424.291007 351.685777 
L 424.43402 350.443465 
L 424.764429 345.207242 
L 425.701409 329.856924 
L 425.982503 326.91483 
L 426.130447 338.711947 
L 426.347432 342.288749 
L 426.357295 342.172598 
L 426.377021 330.333221 
L 426.436199 77.453844 
L 426.520034 191.480294 
L 426.722224 357.608168 
L 426.899758 359.790156 
L 426.963867 359.85022 
L 427.013182 359.780675 
L 427.161126 359.159809 
L 427.496466 356.548101 
L 428.364406 349.797322 
L 428.94632 347.061754 
L 429.483851 344.776183 
L 429.503577 331.814306 
L 429.562754 77.056333 
L 429.64659 189.862485 
L 429.853712 356.948901 
L 430.031245 359.057669 
L 430.090422 359.113318 
L 430.139737 359.046788 
L 430.28275 358.448439 
L 430.603296 355.91637 
L 431.510687 348.629443 
L 432.08767 345.869531 
L 432.536434 343.871726 
L 432.55616 331.210731 
L 432.615338 76.538637 
L 432.699173 190.237463 
L 432.906295 356.915186 
L 433.083828 358.946038 
L 433.138074 358.985428 
L 433.187389 358.912836 
L 433.335333 358.261277 
L 433.665742 355.540661 
L 434.553408 348.167109 
L 435.125459 345.331462 
L 435.559429 343.375921 
L 435.579155 331.175969 
L 435.638333 76.279509 
L 435.722168 190.176818 
L 435.845455 350.533168 
L 435.845455 350.533168 
" style="fill:none;stroke:#ff0000;stroke-linecap:square;stroke-width:1.5;"/>
   </g>
   <g id="patch_3">
    <path d="M 63 384.48 
L 63 51.84 
" style="fill:none;stroke:#000000;stroke-linecap:square;stroke-linejoin:miter;stroke-width:0.8;"/>
   </g>
   <g id="patch_4">
    <path d="M 453.6 384.48 
L 453.6 51.84 
" style="fill:none;stroke:#000000;stroke-linecap:square;stroke-linejoin:miter;stroke-width:0.8;"/>
   </g>
   <g id="patch_5">
    <path d="M 63 384.48 
L 453.6 384.48 
" style="fill:none;stroke:#000000;stroke-linecap:square;stroke-linejoin:miter;stroke-width:0.8;"/>
   </g>
   <g id="patch_6">
    <path d="M 63 51.84 
L 453.6 51.84 
" style="fill:none;stroke:#000000;stroke-linecap:square;stroke-linejoin:miter;stroke-width:0.8;"/>
   </g>
   <g id="legend_1">
    <g id="patch_7">
     <path d="M 383.460938 379.48 
L 446.6 379.48 
Q 448.6 379.48 448.6 377.48 
L 448.6 363.801875 
Q 448.6 361.801875 446.6 361.801875 
L 383.460938 361.801875 
Q 381.460938 361.801875 381.460938 363.801875 
L 381.460938 377.48 
Q 381.460938 379.48 383.460938 379.48 
z
" style="fill:#ffffff;opacity:0.8;stroke:#cccccc;stroke-linejoin:miter;"/>
    </g>
    <g id="line2d_14">
     <path d="M 385.460938 369.900312 
L 405.460938 369.900312 
" style="fill:none;stroke:#ff0000;stroke-linecap:square;stroke-width:1.5;"/>
    </g>
    <g id="line2d_15"/>
    <g id="text_15">
     <!-- model -->
     <defs>
      <path d="M 45.40625 46.390625 
L 45.40625 75.984375 
L 54.390625 75.984375 
L 54.390625 0 
L 45.40625 0 
L 45.40625 8.203125 
Q 42.578125 3.328125 38.25 0.953125 
Q 33.9375 -1.421875 27.875 -1.421875 
Q 17.96875 -1.421875 11.734375 6.484375 
Q 5.515625 14.40625 5.515625 27.296875 
Q 5.515625 40.1875 11.734375 48.09375 
Q 17.96875 56 27.875 56 
Q 33.9375 56 38.25 53.625 
Q 42.578125 51.265625 45.40625 46.390625 
z
M 14.796875 27.296875 
Q 14.796875 17.390625 18.875 11.75 
Q 22.953125 6.109375 30.078125 6.109375 
Q 37.203125 6.109375 41.296875 11.75 
Q 45.40625 17.390625 45.40625 27.296875 
Q 45.40625 37.203125 41.296875 42.84375 
Q 37.203125 48.484375 30.078125 48.484375 
Q 22.953125 48.484375 18.875 42.84375 
Q 14.796875 37.203125 14.796875 27.296875 
z
" id="DejaVuSans-64"/>
     </defs>
     <g transform="translate(413.460938 373.400312)scale(0.1 -0.1)">
      <use xlink:href="#DejaVuSans-6d"/>
      <use x="97.412109" xlink:href="#DejaVuSans-6f"/>
      <use x="158.59375" xlink:href="#DejaVuSans-64"/>
      <use x="222.070312" xlink:href="#DejaVuSans-65"/>
      <use x="283.59375" xlink:href="#DejaVuSans-6c"/>
     </g>
    </g>
   </g>
  </g>
 </g>
 <defs>
  <clipPath id="p211ed88f95">
   <rect height="332.64" width="390.6" x="63" y="51.84"/>
  </clipPath>
 </defs>
</svg>
