<?xml version="1.0" encoding="utf-8" standalone="no"?>
<!DOCTYPE svg PUBLIC "-//W3C//DTD SVG 1.1//EN"
  "http://www.w3.org/Graphics/SVG/1.1/DTD/svg11.dtd">
<!-- Created with matplotlib (http://matplotlib.org/) -->
<svg height="432pt" version="1.1" viewBox="0 0 504 432" width="504pt" xmlns="http://www.w3.org/2000/svg" xmlns:xlink="http://www.w3.org/1999/xlink">
 <defs>
  <style type="text/css">
*{stroke-linecap:butt;stroke-linejoin:round;}
  </style>
 </defs>
 <g id="figure_1">
  <g id="patch_1">
   <path d="M 0 432 
L 504 432 
L 504 0 
L 0 0 
z
" style="fill:#ffffff;"/>
  </g>
  <g id="axes_1">
   <g id="patch_2">
    <path d="M 63 384.48 
L 453.6 384.48 
L 453.6 51.84 
L 63 51.84 
z
" style="fill:#ffffff;"/>
   </g>
   <g id="matplotlib.axis_1">
    <g id="xtick_1">
     <g id="line2d_1">
      <defs>
       <path d="M 0 0 
L 0 3.5 
" id="m49a0e54281" style="stroke:#000000;stroke-width:0.8;"/>
      </defs>
      <g>
       <use style="stroke:#000000;stroke-width:0.8;" x="80.754545" xlink:href="#m49a0e54281" y="384.48"/>
      </g>
     </g>
     <g id="text_1">
      <!-- 0 -->
      <defs>
       <path d="M 31.78125 66.40625 
Q 24.171875 66.40625 20.328125 58.90625 
Q 16.5 51.421875 16.5 36.375 
Q 16.5 21.390625 20.328125 13.890625 
Q 24.171875 6.390625 31.78125 6.390625 
Q 39.453125 6.390625 43.28125 13.890625 
Q 47.125 21.390625 47.125 36.375 
Q 47.125 51.421875 43.28125 58.90625 
Q 39.453125 66.40625 31.78125 66.40625 
z
M 31.78125 74.21875 
Q 44.046875 74.21875 50.515625 64.515625 
Q 56.984375 54.828125 56.984375 36.375 
Q 56.984375 17.96875 50.515625 8.265625 
Q 44.046875 -1.421875 31.78125 -1.421875 
Q 19.53125 -1.421875 13.0625 8.265625 
Q 6.59375 17.96875 6.59375 36.375 
Q 6.59375 54.828125 13.0625 64.515625 
Q 19.53125 74.21875 31.78125 74.21875 
z
" id="DejaVuSans-30"/>
      </defs>
      <g transform="translate(77.573295 399.078438)scale(0.1 -0.1)">
       <use xlink:href="#DejaVuSans-30"/>
      </g>
     </g>
    </g>
    <g id="xtick_2">
     <g id="line2d_2">
      <g>
       <use style="stroke:#000000;stroke-width:0.8;" x="151.767796" xlink:href="#m49a0e54281" y="384.48"/>
      </g>
     </g>
     <g id="text_2">
      <!-- 720 -->
      <defs>
       <path d="M 8.203125 72.90625 
L 55.078125 72.90625 
L 55.078125 68.703125 
L 28.609375 0 
L 18.3125 0 
L 43.21875 64.59375 
L 8.203125 64.59375 
z
" id="DejaVuSans-37"/>
       <path d="M 19.1875 8.296875 
L 53.609375 8.296875 
L 53.609375 0 
L 7.328125 0 
L 7.328125 8.296875 
Q 12.9375 14.109375 22.625 23.890625 
Q 32.328125 33.6875 34.8125 36.53125 
Q 39.546875 41.84375 41.421875 45.53125 
Q 43.3125 49.21875 43.3125 52.78125 
Q 43.3125 58.59375 39.234375 62.25 
Q 35.15625 65.921875 28.609375 65.921875 
Q 23.96875 65.921875 18.8125 64.3125 
Q 13.671875 62.703125 7.8125 59.421875 
L 7.8125 69.390625 
Q 13.765625 71.78125 18.9375 73 
Q 24.125 74.21875 28.421875 74.21875 
Q 39.75 74.21875 46.484375 68.546875 
Q 53.21875 62.890625 53.21875 53.421875 
Q 53.21875 48.921875 51.53125 44.890625 
Q 49.859375 40.875 45.40625 35.40625 
Q 44.1875 33.984375 37.640625 27.21875 
Q 31.109375 20.453125 19.1875 8.296875 
z
" id="DejaVuSans-32"/>
      </defs>
      <g transform="translate(142.224046 399.078438)scale(0.1 -0.1)">
       <use xlink:href="#DejaVuSans-37"/>
       <use x="63.623047" xlink:href="#DejaVuSans-32"/>
       <use x="127.246094" xlink:href="#DejaVuSans-30"/>
      </g>
     </g>
    </g>
    <g id="xtick_3">
     <g id="line2d_3">
      <g>
       <use style="stroke:#000000;stroke-width:0.8;" x="222.781046" xlink:href="#m49a0e54281" y="384.48"/>
      </g>
     </g>
     <g id="text_3">
      <!-- 1440 -->
      <defs>
       <path d="M 12.40625 8.296875 
L 28.515625 8.296875 
L 28.515625 63.921875 
L 10.984375 60.40625 
L 10.984375 69.390625 
L 28.421875 72.90625 
L 38.28125 72.90625 
L 38.28125 8.296875 
L 54.390625 8.296875 
L 54.390625 0 
L 12.40625 0 
z
" id="DejaVuSans-31"/>
       <path d="M 37.796875 64.3125 
L 12.890625 25.390625 
L 37.796875 25.390625 
z
M 35.203125 72.90625 
L 47.609375 72.90625 
L 47.609375 25.390625 
L 58.015625 25.390625 
L 58.015625 17.1875 
L 47.609375 17.1875 
L 47.609375 0 
L 37.796875 0 
L 37.796875 17.1875 
L 4.890625 17.1875 
L 4.890625 26.703125 
z
" id="DejaVuSans-34"/>
      </defs>
      <g transform="translate(210.056046 399.078438)scale(0.1 -0.1)">
       <use xlink:href="#DejaVuSans-31"/>
       <use x="63.623047" xlink:href="#DejaVuSans-34"/>
       <use x="127.246094" xlink:href="#DejaVuSans-34"/>
       <use x="190.869141" xlink:href="#DejaVuSans-30"/>
      </g>
     </g>
    </g>
    <g id="xtick_4">
     <g id="line2d_4">
      <g>
       <use style="stroke:#000000;stroke-width:0.8;" x="293.794296" xlink:href="#m49a0e54281" y="384.48"/>
      </g>
     </g>
     <g id="text_4">
      <!-- 2160 -->
      <defs>
       <path d="M 33.015625 40.375 
Q 26.375 40.375 22.484375 35.828125 
Q 18.609375 31.296875 18.609375 23.390625 
Q 18.609375 15.53125 22.484375 10.953125 
Q 26.375 6.390625 33.015625 6.390625 
Q 39.65625 6.390625 43.53125 10.953125 
Q 47.40625 15.53125 47.40625 23.390625 
Q 47.40625 31.296875 43.53125 35.828125 
Q 39.65625 40.375 33.015625 40.375 
z
M 52.59375 71.296875 
L 52.59375 62.3125 
Q 48.875 64.0625 45.09375 64.984375 
Q 41.3125 65.921875 37.59375 65.921875 
Q 27.828125 65.921875 22.671875 59.328125 
Q 17.53125 52.734375 16.796875 39.40625 
Q 19.671875 43.65625 24.015625 45.921875 
Q 28.375 48.1875 33.59375 48.1875 
Q 44.578125 48.1875 50.953125 41.515625 
Q 57.328125 34.859375 57.328125 23.390625 
Q 57.328125 12.15625 50.6875 5.359375 
Q 44.046875 -1.421875 33.015625 -1.421875 
Q 20.359375 -1.421875 13.671875 8.265625 
Q 6.984375 17.96875 6.984375 36.375 
Q 6.984375 53.65625 15.1875 63.9375 
Q 23.390625 74.21875 37.203125 74.21875 
Q 40.921875 74.21875 44.703125 73.484375 
Q 48.484375 72.75 52.59375 71.296875 
z
" id="DejaVuSans-36"/>
      </defs>
      <g transform="translate(281.069296 399.078438)scale(0.1 -0.1)">
       <use xlink:href="#DejaVuSans-32"/>
       <use x="63.623047" xlink:href="#DejaVuSans-31"/>
       <use x="127.246094" xlink:href="#DejaVuSans-36"/>
       <use x="190.869141" xlink:href="#DejaVuSans-30"/>
      </g>
     </g>
    </g>
    <g id="xtick_5">
     <g id="line2d_5">
      <g>
       <use style="stroke:#000000;stroke-width:0.8;" x="364.807547" xlink:href="#m49a0e54281" y="384.48"/>
      </g>
     </g>
     <g id="text_5">
      <!-- 2880 -->
      <defs>
       <path d="M 31.78125 34.625 
Q 24.75 34.625 20.71875 30.859375 
Q 16.703125 27.09375 16.703125 20.515625 
Q 16.703125 13.921875 20.71875 10.15625 
Q 24.75 6.390625 31.78125 6.390625 
Q 38.8125 6.390625 42.859375 10.171875 
Q 46.921875 13.96875 46.921875 20.515625 
Q 46.921875 27.09375 42.890625 30.859375 
Q 38.875 34.625 31.78125 34.625 
z
M 21.921875 38.8125 
Q 15.578125 40.375 12.03125 44.71875 
Q 8.5 49.078125 8.5 55.328125 
Q 8.5 64.0625 14.71875 69.140625 
Q 20.953125 74.21875 31.78125 74.21875 
Q 42.671875 74.21875 48.875 69.140625 
Q 55.078125 64.0625 55.078125 55.328125 
Q 55.078125 49.078125 51.53125 44.71875 
Q 48 40.375 41.703125 38.8125 
Q 48.828125 37.15625 52.796875 32.3125 
Q 56.78125 27.484375 56.78125 20.515625 
Q 56.78125 9.90625 50.3125 4.234375 
Q 43.84375 -1.421875 31.78125 -1.421875 
Q 19.734375 -1.421875 13.25 4.234375 
Q 6.78125 9.90625 6.78125 20.515625 
Q 6.78125 27.484375 10.78125 32.3125 
Q 14.796875 37.15625 21.921875 38.8125 
z
M 18.3125 54.390625 
Q 18.3125 48.734375 21.84375 45.5625 
Q 25.390625 42.390625 31.78125 42.390625 
Q 38.140625 42.390625 41.71875 45.5625 
Q 45.3125 48.734375 45.3125 54.390625 
Q 45.3125 60.0625 41.71875 63.234375 
Q 38.140625 66.40625 31.78125 66.40625 
Q 25.390625 66.40625 21.84375 63.234375 
Q 18.3125 60.0625 18.3125 54.390625 
z
" id="DejaVuSans-38"/>
      </defs>
      <g transform="translate(352.082547 399.078438)scale(0.1 -0.1)">
       <use xlink:href="#DejaVuSans-32"/>
       <use x="63.623047" xlink:href="#DejaVuSans-38"/>
       <use x="127.246094" xlink:href="#DejaVuSans-38"/>
       <use x="190.869141" xlink:href="#DejaVuSans-30"/>
      </g>
     </g>
    </g>
    <g id="text_6">
     <!-- time [ms] -->
     <defs>
      <path d="M 18.3125 70.21875 
L 18.3125 54.6875 
L 36.8125 54.6875 
L 36.8125 47.703125 
L 18.3125 47.703125 
L 18.3125 18.015625 
Q 18.3125 11.328125 20.140625 9.421875 
Q 21.96875 7.515625 27.59375 7.515625 
L 36.8125 7.515625 
L 36.8125 0 
L 27.59375 0 
Q 17.1875 0 13.234375 3.875 
Q 9.28125 7.765625 9.28125 18.015625 
L 9.28125 47.703125 
L 2.6875 47.703125 
L 2.6875 54.6875 
L 9.28125 54.6875 
L 9.28125 70.21875 
z
" id="DejaVuSans-74"/>
      <path d="M 9.421875 54.6875 
L 18.40625 54.6875 
L 18.40625 0 
L 9.421875 0 
z
M 9.421875 75.984375 
L 18.40625 75.984375 
L 18.40625 64.59375 
L 9.421875 64.59375 
z
" id="DejaVuSans-69"/>
      <path d="M 52 44.1875 
Q 55.375 50.25 60.0625 53.125 
Q 64.75 56 71.09375 56 
Q 79.640625 56 84.28125 50.015625 
Q 88.921875 44.046875 88.921875 33.015625 
L 88.921875 0 
L 79.890625 0 
L 79.890625 32.71875 
Q 79.890625 40.578125 77.09375 44.375 
Q 74.3125 48.1875 68.609375 48.1875 
Q 61.625 48.1875 57.5625 43.546875 
Q 53.515625 38.921875 53.515625 30.90625 
L 53.515625 0 
L 44.484375 0 
L 44.484375 32.71875 
Q 44.484375 40.625 41.703125 44.40625 
Q 38.921875 48.1875 33.109375 48.1875 
Q 26.21875 48.1875 22.15625 43.53125 
Q 18.109375 38.875 18.109375 30.90625 
L 18.109375 0 
L 9.078125 0 
L 9.078125 54.6875 
L 18.109375 54.6875 
L 18.109375 46.1875 
Q 21.1875 51.21875 25.484375 53.609375 
Q 29.78125 56 35.6875 56 
Q 41.65625 56 45.828125 52.96875 
Q 50 49.953125 52 44.1875 
z
" id="DejaVuSans-6d"/>
      <path d="M 56.203125 29.59375 
L 56.203125 25.203125 
L 14.890625 25.203125 
Q 15.484375 15.921875 20.484375 11.0625 
Q 25.484375 6.203125 34.421875 6.203125 
Q 39.59375 6.203125 44.453125 7.46875 
Q 49.3125 8.734375 54.109375 11.28125 
L 54.109375 2.78125 
Q 49.265625 0.734375 44.1875 -0.34375 
Q 39.109375 -1.421875 33.890625 -1.421875 
Q 20.796875 -1.421875 13.15625 6.1875 
Q 5.515625 13.8125 5.515625 26.8125 
Q 5.515625 40.234375 12.765625 48.109375 
Q 20.015625 56 32.328125 56 
Q 43.359375 56 49.78125 48.890625 
Q 56.203125 41.796875 56.203125 29.59375 
z
M 47.21875 32.234375 
Q 47.125 39.59375 43.09375 43.984375 
Q 39.0625 48.390625 32.421875 48.390625 
Q 24.90625 48.390625 20.390625 44.140625 
Q 15.875 39.890625 15.1875 32.171875 
z
" id="DejaVuSans-65"/>
      <path id="DejaVuSans-20"/>
      <path d="M 8.59375 75.984375 
L 29.296875 75.984375 
L 29.296875 69 
L 17.578125 69 
L 17.578125 -6.203125 
L 29.296875 -6.203125 
L 29.296875 -13.1875 
L 8.59375 -13.1875 
z
" id="DejaVuSans-5b"/>
      <path d="M 44.28125 53.078125 
L 44.28125 44.578125 
Q 40.484375 46.53125 36.375 47.5 
Q 32.28125 48.484375 27.875 48.484375 
Q 21.1875 48.484375 17.84375 46.4375 
Q 14.5 44.390625 14.5 40.28125 
Q 14.5 37.15625 16.890625 35.375 
Q 19.28125 33.59375 26.515625 31.984375 
L 29.59375 31.296875 
Q 39.15625 29.25 43.1875 25.515625 
Q 47.21875 21.78125 47.21875 15.09375 
Q 47.21875 7.46875 41.1875 3.015625 
Q 35.15625 -1.421875 24.609375 -1.421875 
Q 20.21875 -1.421875 15.453125 -0.5625 
Q 10.6875 0.296875 5.421875 2 
L 5.421875 11.28125 
Q 10.40625 8.6875 15.234375 7.390625 
Q 20.0625 6.109375 24.8125 6.109375 
Q 31.15625 6.109375 34.5625 8.28125 
Q 37.984375 10.453125 37.984375 14.40625 
Q 37.984375 18.0625 35.515625 20.015625 
Q 33.0625 21.96875 24.703125 23.78125 
L 21.578125 24.515625 
Q 13.234375 26.265625 9.515625 29.90625 
Q 5.8125 33.546875 5.8125 39.890625 
Q 5.8125 47.609375 11.28125 51.796875 
Q 16.75 56 26.8125 56 
Q 31.78125 56 36.171875 55.265625 
Q 40.578125 54.546875 44.28125 53.078125 
z
" id="DejaVuSans-73"/>
      <path d="M 30.421875 75.984375 
L 30.421875 -13.1875 
L 9.71875 -13.1875 
L 9.71875 -6.203125 
L 21.390625 -6.203125 
L 21.390625 69 
L 9.71875 69 
L 9.71875 75.984375 
z
" id="DejaVuSans-5d"/>
     </defs>
     <g transform="translate(234.038281 412.756563)scale(0.1 -0.1)">
      <use xlink:href="#DejaVuSans-74"/>
      <use x="39.208984" xlink:href="#DejaVuSans-69"/>
      <use x="66.992188" xlink:href="#DejaVuSans-6d"/>
      <use x="164.404297" xlink:href="#DejaVuSans-65"/>
      <use x="225.927734" xlink:href="#DejaVuSans-20"/>
      <use x="257.714844" xlink:href="#DejaVuSans-5b"/>
      <use x="296.728516" xlink:href="#DejaVuSans-6d"/>
      <use x="394.140625" xlink:href="#DejaVuSans-73"/>
      <use x="446.240234" xlink:href="#DejaVuSans-5d"/>
     </g>
    </g>
   </g>
   <g id="matplotlib.axis_2">
    <g id="ytick_1">
     <g id="line2d_6">
      <defs>
       <path d="M 0 0 
L -3.5 0 
" id="mdb1fbc4299" style="stroke:#000000;stroke-width:0.8;"/>
      </defs>
      <g>
       <use style="stroke:#000000;stroke-width:0.8;" x="63" xlink:href="#mdb1fbc4299" y="368.354825"/>
      </g>
     </g>
     <g id="text_7">
      <!-- −80 -->
      <defs>
       <path d="M 10.59375 35.5 
L 73.1875 35.5 
L 73.1875 27.203125 
L 10.59375 27.203125 
z
" id="DejaVuSans-2212"/>
      </defs>
      <g transform="translate(34.895313 372.154044)scale(0.1 -0.1)">
       <use xlink:href="#DejaVuSans-2212"/>
       <use x="83.789062" xlink:href="#DejaVuSans-38"/>
       <use x="147.412109" xlink:href="#DejaVuSans-30"/>
      </g>
     </g>
    </g>
    <g id="ytick_2">
     <g id="line2d_7">
      <g>
       <use style="stroke:#000000;stroke-width:0.8;" x="63" xlink:href="#mdb1fbc4299" y="314.180196"/>
      </g>
     </g>
     <g id="text_8">
      <!-- −60 -->
      <g transform="translate(34.895313 317.979415)scale(0.1 -0.1)">
       <use xlink:href="#DejaVuSans-2212"/>
       <use x="83.789062" xlink:href="#DejaVuSans-36"/>
       <use x="147.412109" xlink:href="#DejaVuSans-30"/>
      </g>
     </g>
    </g>
    <g id="ytick_3">
     <g id="line2d_8">
      <g>
       <use style="stroke:#000000;stroke-width:0.8;" x="63" xlink:href="#mdb1fbc4299" y="260.005567"/>
      </g>
     </g>
     <g id="text_9">
      <!-- −40 -->
      <g transform="translate(34.895313 263.804786)scale(0.1 -0.1)">
       <use xlink:href="#DejaVuSans-2212"/>
       <use x="83.789062" xlink:href="#DejaVuSans-34"/>
       <use x="147.412109" xlink:href="#DejaVuSans-30"/>
      </g>
     </g>
    </g>
    <g id="ytick_4">
     <g id="line2d_9">
      <g>
       <use style="stroke:#000000;stroke-width:0.8;" x="63" xlink:href="#mdb1fbc4299" y="205.830938"/>
      </g>
     </g>
     <g id="text_10">
      <!-- −20 -->
      <g transform="translate(34.895313 209.630157)scale(0.1 -0.1)">
       <use xlink:href="#DejaVuSans-2212"/>
       <use x="83.789062" xlink:href="#DejaVuSans-32"/>
       <use x="147.412109" xlink:href="#DejaVuSans-30"/>
      </g>
     </g>
    </g>
    <g id="ytick_5">
     <g id="line2d_10">
      <g>
       <use style="stroke:#000000;stroke-width:0.8;" x="63" xlink:href="#mdb1fbc4299" y="151.65631"/>
      </g>
     </g>
     <g id="text_11">
      <!-- 0 -->
      <g transform="translate(49.6375 155.455528)scale(0.1 -0.1)">
       <use xlink:href="#DejaVuSans-30"/>
      </g>
     </g>
    </g>
    <g id="ytick_6">
     <g id="line2d_11">
      <g>
       <use style="stroke:#000000;stroke-width:0.8;" x="63" xlink:href="#mdb1fbc4299" y="97.481681"/>
      </g>
     </g>
     <g id="text_12">
      <!-- 20 -->
      <g transform="translate(43.275 101.280899)scale(0.1 -0.1)">
       <use xlink:href="#DejaVuSans-32"/>
       <use x="63.623047" xlink:href="#DejaVuSans-30"/>
      </g>
     </g>
    </g>
    <g id="text_13">
     <!-- Voltage [mV] -->
     <defs>
      <path d="M 28.609375 0 
L 0.78125 72.90625 
L 11.078125 72.90625 
L 34.1875 11.53125 
L 57.328125 72.90625 
L 67.578125 72.90625 
L 39.796875 0 
z
" id="DejaVuSans-56"/>
      <path d="M 30.609375 48.390625 
Q 23.390625 48.390625 19.1875 42.75 
Q 14.984375 37.109375 14.984375 27.296875 
Q 14.984375 17.484375 19.15625 11.84375 
Q 23.34375 6.203125 30.609375 6.203125 
Q 37.796875 6.203125 41.984375 11.859375 
Q 46.1875 17.53125 46.1875 27.296875 
Q 46.1875 37.015625 41.984375 42.703125 
Q 37.796875 48.390625 30.609375 48.390625 
z
M 30.609375 56 
Q 42.328125 56 49.015625 48.375 
Q 55.71875 40.765625 55.71875 27.296875 
Q 55.71875 13.875 49.015625 6.21875 
Q 42.328125 -1.421875 30.609375 -1.421875 
Q 18.84375 -1.421875 12.171875 6.21875 
Q 5.515625 13.875 5.515625 27.296875 
Q 5.515625 40.765625 12.171875 48.375 
Q 18.84375 56 30.609375 56 
z
" id="DejaVuSans-6f"/>
      <path d="M 9.421875 75.984375 
L 18.40625 75.984375 
L 18.40625 0 
L 9.421875 0 
z
" id="DejaVuSans-6c"/>
      <path d="M 34.28125 27.484375 
Q 23.390625 27.484375 19.1875 25 
Q 14.984375 22.515625 14.984375 16.5 
Q 14.984375 11.71875 18.140625 8.90625 
Q 21.296875 6.109375 26.703125 6.109375 
Q 34.1875 6.109375 38.703125 11.40625 
Q 43.21875 16.703125 43.21875 25.484375 
L 43.21875 27.484375 
z
M 52.203125 31.203125 
L 52.203125 0 
L 43.21875 0 
L 43.21875 8.296875 
Q 40.140625 3.328125 35.546875 0.953125 
Q 30.953125 -1.421875 24.3125 -1.421875 
Q 15.921875 -1.421875 10.953125 3.296875 
Q 6 8.015625 6 15.921875 
Q 6 25.140625 12.171875 29.828125 
Q 18.359375 34.515625 30.609375 34.515625 
L 43.21875 34.515625 
L 43.21875 35.40625 
Q 43.21875 41.609375 39.140625 45 
Q 35.0625 48.390625 27.6875 48.390625 
Q 23 48.390625 18.546875 47.265625 
Q 14.109375 46.140625 10.015625 43.890625 
L 10.015625 52.203125 
Q 14.9375 54.109375 19.578125 55.046875 
Q 24.21875 56 28.609375 56 
Q 40.484375 56 46.34375 49.84375 
Q 52.203125 43.703125 52.203125 31.203125 
z
" id="DejaVuSans-61"/>
      <path d="M 45.40625 27.984375 
Q 45.40625 37.75 41.375 43.109375 
Q 37.359375 48.484375 30.078125 48.484375 
Q 22.859375 48.484375 18.828125 43.109375 
Q 14.796875 37.75 14.796875 27.984375 
Q 14.796875 18.265625 18.828125 12.890625 
Q 22.859375 7.515625 30.078125 7.515625 
Q 37.359375 7.515625 41.375 12.890625 
Q 45.40625 18.265625 45.40625 27.984375 
z
M 54.390625 6.78125 
Q 54.390625 -7.171875 48.1875 -13.984375 
Q 42 -20.796875 29.203125 -20.796875 
Q 24.46875 -20.796875 20.265625 -20.09375 
Q 16.0625 -19.390625 12.109375 -17.921875 
L 12.109375 -9.1875 
Q 16.0625 -11.328125 19.921875 -12.34375 
Q 23.78125 -13.375 27.78125 -13.375 
Q 36.625 -13.375 41.015625 -8.765625 
Q 45.40625 -4.15625 45.40625 5.171875 
L 45.40625 9.625 
Q 42.625 4.78125 38.28125 2.390625 
Q 33.9375 0 27.875 0 
Q 17.828125 0 11.671875 7.65625 
Q 5.515625 15.328125 5.515625 27.984375 
Q 5.515625 40.671875 11.671875 48.328125 
Q 17.828125 56 27.875 56 
Q 33.9375 56 38.28125 53.609375 
Q 42.625 51.21875 45.40625 46.390625 
L 45.40625 54.6875 
L 54.390625 54.6875 
z
" id="DejaVuSans-67"/>
     </defs>
     <g transform="translate(28.815625 251.079531)rotate(-90)scale(0.1 -0.1)">
      <use xlink:href="#DejaVuSans-56"/>
      <use x="68.298828" xlink:href="#DejaVuSans-6f"/>
      <use x="129.480469" xlink:href="#DejaVuSans-6c"/>
      <use x="157.263672" xlink:href="#DejaVuSans-74"/>
      <use x="196.472656" xlink:href="#DejaVuSans-61"/>
      <use x="257.751953" xlink:href="#DejaVuSans-67"/>
      <use x="321.228516" xlink:href="#DejaVuSans-65"/>
      <use x="382.751953" xlink:href="#DejaVuSans-20"/>
      <use x="414.539062" xlink:href="#DejaVuSans-5b"/>
      <use x="453.552734" xlink:href="#DejaVuSans-6d"/>
      <use x="550.964844" xlink:href="#DejaVuSans-56"/>
      <use x="619.373047" xlink:href="#DejaVuSans-5d"/>
     </g>
    </g>
   </g>
   <g id="line2d_12">
    <path clip-path="url(#p456a0eb9d5)" d="M 80.754545 327.723853 
L 81.153995 329.57822 
L 81.632348 330.948025 
L 82.115633 331.707829 
L 82.638369 332.132254 
L 83.27453 332.3556 
L 84.216441 332.427568 
L 86.657522 332.307959 
L 91.52982 332.155303 
L 100.480448 332.107544 
L 100.633324 347.755292 
L 100.958801 358.384956 
L 101.368114 365.303955 
L 101.737975 368.337996 
L 102.033863 369.2638 
L 102.231122 369.348478 
L 102.413587 369.149659 
L 102.714407 368.426277 
L 103.414676 365.98314 
L 104.257959 363.384305 
L 104.894119 362.102605 
L 105.500691 361.35203 
L 106.13192 360.913689 
L 106.881504 360.670786 
L 107.961497 360.577775 
L 111.374078 360.635292 
L 122.60798 360.640408 
L 130.069303 360.639876 
L 130.222178 345.249629 
L 130.532861 335.778603 
L 130.922448 329.957016 
L 131.312035 327.103601 
L 131.676964 325.870097 
L 132.007373 325.431952 
L 132.313124 325.365759 
L 132.678053 325.537451 
L 133.264899 326.099982 
L 136.169538 329.180252 
L 137.417201 330.045635 
L 138.763494 330.707549 
L 139.932254 331.111649 
L 139.937186 327.723853 
L 140.045678 328.287433 
L 140.563483 330.327312 
L 141.041836 331.363037 
L 141.539915 331.941788 
L 142.102103 332.25886 
L 142.846756 332.408353 
L 144.138803 332.40486 
L 151.728344 332.142374 
L 159.663088 332.107544 
L 159.815964 328.979002 
L 160.141442 326.868129 
L 160.575411 325.402941 
L 161.03897 324.566698 
L 161.541981 324.100476 
L 162.143621 323.850431 
L 163.016492 323.750119 
L 164.91511 323.813749 
L 170.556718 324.004621 
L 181.208706 324.065069 
L 189.251943 324.069874 
L 189.404818 327.200354 
L 189.730296 329.314662 
L 190.164266 330.792902 
L 190.632756 331.654938 
L 191.135766 332.133926 
L 191.727544 332.387356 
L 192.560963 332.482982 
L 194.296842 332.403929 
L 199.080374 332.186491 
L 199.114894 332.185704 
L 199.119826 327.723853 
L 199.228318 328.287433 
L 199.746123 330.327312 
L 200.224476 331.363037 
L 200.722555 331.941788 
L 201.284743 332.25886 
L 202.029396 332.408353 
L 203.321443 332.40486 
L 210.910984 332.142374 
L 218.845729 332.107544 
L 218.998604 325.850721 
L 219.31915 321.681677 
L 219.743257 318.796222 
L 220.192021 317.132978 
L 220.660512 316.185702 
L 221.163522 315.645214 
L 221.755299 315.337384 
L 222.554198 315.189414 
L 223.905423 315.197816 
L 233.363993 315.603345 
L 245.441177 315.66696 
L 248.434583 315.669962 
L 248.587459 321.952436 
L 248.908004 326.163701 
L 249.341974 329.168295 
L 249.79567 330.894157 
L 250.259229 331.854533 
L 250.742513 332.37347 
L 251.289907 332.637496 
L 252.024697 332.728511 
L 253.390716 332.630534 
L 257.602196 332.283039 
L 258.297534 332.252843 
L 258.302466 327.723853 
L 258.410958 328.287433 
L 258.928763 330.327312 
L 259.407116 331.363037 
L 259.905195 331.941788 
L 260.467384 332.25886 
L 261.212036 332.408353 
L 262.504083 332.40486 
L 270.093624 332.142374 
L 278.028369 332.107544 
L 278.181244 322.722121 
L 278.50179 316.471721 
L 278.930829 312.09522 
L 279.399319 309.428546 
L 280.198218 305.615003 
L 280.217944 274.39441 
L 280.277122 69.194949 
L 280.351094 178.613673 
L 280.548353 312.65819 
L 280.725886 317.442809 
L 280.824515 317.703507 
L 280.868899 317.656298 
L 281.011911 317.144044 
L 281.450813 314.442016 
L 282.141219 310.711619 
L 282.683682 308.92853 
L 283.275459 307.724401 
L 283.965865 306.365252 
L 284.029975 305.658 
L 284.0497 289.567661 
L 284.11381 76.355563 
L 284.187782 177.855291 
L 284.385041 311.37775 
L 284.567505 316.644787 
L 284.695724 317.052059 
L 284.730244 317.027731 
L 284.858462 316.673972 
L 285.203666 314.849681 
L 286.002565 310.804274 
L 286.545027 309.182406 
L 287.112147 308.162291 
L 287.92584 307.208542 
L 288.310495 306.597155 
L 288.414056 305.980449 
L 288.433782 297.208666 
L 288.502823 82.148234 
L 288.586658 190.98751 
L 288.778986 310.033872 
L 288.96145 315.51618 
L 289.12912 316.119837 
L 289.138983 316.117066 
L 289.242544 315.946049 
L 289.484187 314.979445 
L 290.5987 310.110094 
L 291.141163 308.871684 
L 291.737871 308.051371 
L 293.133479 306.387044 
L 293.167999 305.890335 
L 293.187725 291.531052 
L 293.256766 86.068772 
L 293.325806 172.385573 
L 293.527997 308.681479 
L 293.715393 314.84246 
L 293.902789 315.619572 
L 294.001418 315.514312 
L 294.20854 314.823668 
L 295.559765 309.582133 
L 296.11209 308.587571 
L 296.753182 307.886489 
L 298.01564 306.639145 
L 298.104406 306.17986 
L 298.119201 304.064083 
L 298.158652 204.651497 
L 298.203036 89.126158 
L 298.272076 176.767039 
L 298.474267 307.803528 
L 298.661663 314.097673 
L 298.858922 315.065752 
L 298.962483 315.007873 
L 299.144948 314.503166 
L 299.884669 311.385298 
L 300.461652 309.652966 
L 301.018908 308.649207 
L 301.655069 307.956673 
L 303.055608 306.610867 
L 303.134511 306.005344 
L 303.154237 293.387259 
L 303.22821 90.963085 
L 303.292319 169.428541 
L 303.499441 307.137199 
L 303.686837 313.808293 
L 303.884096 314.882178 
L 303.972862 314.876956 
L 303.99752 314.846039 
L 304.175053 314.382652 
L 304.756967 311.955582 
L 305.36847 309.937728 
L 305.920795 308.838661 
L 306.532298 308.107244 
L 307.43969 307.409273 
L 307.617223 307.275692 
L 307.770099 316.651368 
L 308.090645 322.899094 
L 308.534477 327.528163 
L 308.988173 330.148895 
L 309.441869 331.589723 
L 309.900496 332.368271 
L 310.383781 332.773541 
L 310.955832 332.957931 
L 311.779388 332.966762 
L 313.939375 332.677277 
L 316.99689 332.383211 
L 317.480174 332.354056 
L 317.485106 327.723853 
L 317.593598 328.287433 
L 318.111403 330.327312 
L 318.589756 331.363037 
L 319.087835 331.941788 
L 319.650024 332.25886 
L 320.394677 332.408353 
L 321.686723 332.40486 
L 329.276264 332.142374 
L 337.211009 332.107544 
L 337.363884 319.592582 
L 337.68443 311.242002 
L 338.128263 305.076681 
L 338.577027 299.520103 
L 338.591822 287.409802 
L 338.651 67.965082 
L 338.724972 173.579876 
L 338.922231 309.725246 
L 339.089901 313.755455 
L 339.129353 313.803677 
L 339.183599 313.6871 
L 339.351269 312.635563 
L 340.953999 300.568054 
L 341.200573 298.532407 
L 341.230161 296.926141 
L 341.254819 241.515026 
L 341.304134 74.206196 
L 341.383037 182.733693 
L 341.575365 309.770786 
L 341.747966 313.945365 
L 341.79235 314.015908 
L 341.846596 313.91672 
L 342.004403 313.001035 
L 342.744124 306.494989 
L 343.36549 302.478708 
L 343.996719 298.624982 
L 344.021377 296.54665 
L 344.055897 206.298447 
L 344.095349 80.036238 
L 344.169321 175.808773 
L 344.36658 308.314724 
L 344.539182 312.894012 
L 344.608222 313.051403 
L 344.662469 312.96292 
L 344.815344 312.181032 
L 345.362738 307.705611 
L 346.023556 303.276822 
L 346.852044 298.361283 
L 346.866838 293.502148 
L 346.94081 84.282492 
L 347.034508 207.396148 
L 347.216973 307.739029 
L 347.394506 312.229201 
L 347.47341 312.409715 
L 347.522724 312.339376 
L 347.670669 311.665516 
L 348.139159 308.091238 
L 348.839428 303.463973 
L 349.722163 298.48503 
L 349.736957 293.991128 
L 349.810929 87.280488 
L 349.909559 210.973664 
L 350.092023 306.867849 
L 350.274488 311.571452 
L 350.368186 311.81166 
L 350.412569 311.75826 
L 350.550651 311.207023 
L 350.9501 308.387708 
L 351.709547 303.475682 
L 352.612007 298.310278 
L 352.626802 290.19092 
L 352.695842 89.53104 
L 352.774746 181.443547 
L 352.976937 306.049251 
L 353.159401 311.203063 
L 353.267894 311.527679 
L 353.307345 311.487363 
L 353.435564 311.027784 
L 353.785699 308.695033 
L 354.609255 303.433361 
L 355.506784 298.500674 
L 355.521578 292.355518 
L 355.59555 90.765875 
L 355.679385 191.675371 
L 355.876644 305.571186 
L 356.059109 310.843944 
L 356.177464 311.238191 
L 356.216916 311.20326 
L 356.345134 310.768541 
L 356.685406 308.582498 
L 357.528689 303.328125 
L 358.406491 298.677333 
L 358.421286 295.263201 
L 358.465669 154.993502 
L 358.500189 91.821343 
L 358.56923 173.68511 
L 358.776352 304.635155 
L 358.958817 310.362562 
L 359.096898 310.882479 
L 359.126487 310.861963 
L 359.239911 310.539096 
L 359.525936 308.866419 
L 360.5073 302.950102 
L 361.306199 298.823394 
L 361.325925 294.58781 
L 361.399897 92.556972 
L 361.503458 212.351959 
L 361.690854 305.08245 
L 361.87825 310.266158 
L 362.0114 310.698201 
L 362.040989 310.675368 
L 362.159344 310.333398 
L 362.460164 308.579769 
L 363.407008 302.964589 
L 364.210838 298.858043 
L 364.230564 295.38974 
L 364.274947 156.508801 
L 364.309468 92.821848 
L 364.378508 173.203688 
L 364.58563 303.981632 
L 364.768095 310.012057 
L 364.920971 310.62334 
L 364.940697 310.612687 
L 365.044258 310.363778 
L 365.295763 309.016366 
L 366.425071 302.477412 
L 366.799863 300.956899 
L 366.952739 313.231456 
L 367.263422 320.852961 
L 367.697392 326.404418 
L 368.151087 329.63956 
L 368.604783 331.418045 
L 369.058479 332.373038 
L 369.522038 332.867129 
L 370.044774 333.10248 
L 370.740112 333.154024 
L 372.03709 332.982347 
L 375.44474 332.514409 
L 376.662814 332.416795 
L 376.667746 327.723853 
L 376.776238 328.287433 
L 377.294043 330.327312 
L 377.772396 331.363037 
L 378.270476 331.941788 
L 378.832664 332.25886 
L 379.577317 332.408353 
L 380.869363 332.40486 
L 388.458904 332.142374 
L 396.393649 332.107544 
L 396.546525 316.461155 
L 396.872002 305.832202 
L 397.384875 293.357983 
L 397.414464 216.359644 
L 397.453916 66.96 
L 397.527888 175.903107 
L 397.720216 306.708632 
L 397.878023 310.140146 
L 397.882954 310.139382 
L 397.937201 309.975148 
L 398.109802 308.453177 
L 399.401849 292.824071 
L 399.480753 289.268952 
L 399.500479 248.88696 
L 399.554725 72.180971 
L 399.633628 184.541716 
L 399.825956 308.311163 
L 399.983763 311.395666 
L 399.988695 311.394633 
L 400.042941 311.23283 
L 400.210611 309.762691 
L 401.650602 292.331854 
L 401.704848 289.467558 
L 401.724574 248.351278 
L 401.77882 77.886431 
L 401.857724 182.241265 
L 402.050051 306.716637 
L 402.217722 310.289174 
L 402.242379 310.281722 
L 402.271968 310.204318 
L 402.410049 309.24137 
L 402.888402 303.702646 
L 403.94867 290.380419 
L 403.963464 283.415305 
L 404.032505 82.208802 
L 404.106477 178.785642 
L 404.303736 305.757502 
L 404.471406 309.54317 
L 404.500995 309.563714 
L 404.545378 309.461403 
L 404.693322 308.448434 
L 405.216059 302.671736 
L 406.212217 290.741916 
L 406.231943 279.729131 
L 406.296052 85.387591 
L 406.370024 173.088009 
L 406.572215 304.941865 
L 406.744816 309.046699 
L 406.779337 309.0871 
L 406.828651 308.984285 
L 406.976596 308.017092 
L 407.479606 302.658206 
L 408.490559 290.810887 
L 408.510285 279.109077 
L 408.579325 87.535815 
L 408.648366 172.443871 
L 408.850556 304.240666 
L 409.023158 308.637553 
L 409.067541 308.710467 
L 409.121788 308.599227 
L 409.274663 307.61444 
L 409.792468 302.240209 
L 410.773832 291.006652 
L 410.793558 283.171459 
L 410.862599 88.786875 
L 410.936571 175.923736 
L 411.138761 303.638109 
L 411.311363 308.184322 
L 411.365609 308.292351 
L 411.419855 308.186237 
L 411.572731 307.240911 
L 412.075742 302.177254 
L 413.062037 291.058035 
L 413.081763 283.627598 
L 413.150803 89.752848 
L 413.224775 175.082824 
L 413.431897 303.343997 
L 413.609431 307.8534 
L 413.663677 307.96195 
L 413.717923 307.864792 
L 413.865867 306.997389 
L 414.329426 302.468414 
L 415.355173 290.926267 
L 415.374899 279.190059 
L 415.443939 90.516632 
L 415.51298 171.271816 
L 415.720102 302.826879 
L 415.897635 307.636099 
L 415.961744 307.784504 
L 416.015991 307.688328 
L 416.163935 306.838178 
L 416.617631 302.473252 
L 417.648309 290.973582 
L 417.668035 280.040837 
L 417.737076 90.926973 
L 417.806116 170.779653 
L 418.013238 302.536206 
L 418.190771 307.491653 
L 418.259812 307.660275 
L 418.314058 307.564254 
L 418.462003 306.724346 
L 418.910767 302.453166 
L 419.941445 291.118959 
L 419.961171 283.594815 
L 420.030212 91.136332 
L 420.104184 174.734035 
L 420.311306 302.444265 
L 420.488839 307.322958 
L 420.55788 307.497966 
L 420.612126 307.408885 
L 420.76007 306.590112 
L 421.198972 302.473242 
L 422.234582 291.257072 
L 422.254307 286.140002 
L 422.32828 91.463329 
L 422.412115 191.006636 
L 422.609374 302.529941 
L 422.786907 307.30647 
L 422.855948 307.479188 
L 422.910194 307.390003 
L 423.058138 306.572914 
L 423.497039 302.462785 
L 424.532649 291.212675 
L 424.552375 285.048217 
L 424.621416 91.504037 
L 424.700319 179.608219 
L 424.90251 302.037975 
L 425.080043 307.161283 
L 425.158947 307.373485 
L 425.208261 307.292397 
L 425.351274 306.529084 
L 425.765518 302.711939 
L 425.982503 300.612563 
L 426.135379 315.031802 
L 426.426336 322.556939 
L 426.820854 327.44302 
L 427.254824 330.278051 
L 427.698657 331.840815 
L 428.147421 332.677791 
L 428.61098 333.102936 
L 429.143579 333.29031 
L 429.8833 333.294416 
L 431.481099 333.018575 
L 434.306834 332.594041 
L 435.845455 332.455132 
L 435.845455 332.455132 
" style="fill:none;stroke:#ff0000;stroke-linecap:square;stroke-width:1.5;"/>
   </g>
   <g id="patch_3">
    <path d="M 63 384.48 
L 63 51.84 
" style="fill:none;stroke:#000000;stroke-linecap:square;stroke-linejoin:miter;stroke-width:0.8;"/>
   </g>
   <g id="patch_4">
    <path d="M 453.6 384.48 
L 453.6 51.84 
" style="fill:none;stroke:#000000;stroke-linecap:square;stroke-linejoin:miter;stroke-width:0.8;"/>
   </g>
   <g id="patch_5">
    <path d="M 63 384.48 
L 453.6 384.48 
" style="fill:none;stroke:#000000;stroke-linecap:square;stroke-linejoin:miter;stroke-width:0.8;"/>
   </g>
   <g id="patch_6">
    <path d="M 63 51.84 
L 453.6 51.84 
" style="fill:none;stroke:#000000;stroke-linecap:square;stroke-linejoin:miter;stroke-width:0.8;"/>
   </g>
   <g id="legend_1">
    <g id="patch_7">
     <path d="M 70 74.518125 
L 133.139062 74.518125 
Q 135.139062 74.518125 135.139062 72.518125 
L 135.139062 58.84 
Q 135.139062 56.84 133.139062 56.84 
L 70 56.84 
Q 68 56.84 68 58.84 
L 68 72.518125 
Q 68 74.518125 70 74.518125 
z
" style="fill:#ffffff;opacity:0.8;stroke:#cccccc;stroke-linejoin:miter;"/>
    </g>
    <g id="line2d_13">
     <path d="M 72 64.938438 
L 92 64.938438 
" style="fill:none;stroke:#ff0000;stroke-linecap:square;stroke-width:1.5;"/>
    </g>
    <g id="line2d_14"/>
    <g id="text_14">
     <!-- model -->
     <defs>
      <path d="M 45.40625 46.390625 
L 45.40625 75.984375 
L 54.390625 75.984375 
L 54.390625 0 
L 45.40625 0 
L 45.40625 8.203125 
Q 42.578125 3.328125 38.25 0.953125 
Q 33.9375 -1.421875 27.875 -1.421875 
Q 17.96875 -1.421875 11.734375 6.484375 
Q 5.515625 14.40625 5.515625 27.296875 
Q 5.515625 40.1875 11.734375 48.09375 
Q 17.96875 56 27.875 56 
Q 33.9375 56 38.25 53.625 
Q 42.578125 51.265625 45.40625 46.390625 
z
M 14.796875 27.296875 
Q 14.796875 17.390625 18.875 11.75 
Q 22.953125 6.109375 30.078125 6.109375 
Q 37.203125 6.109375 41.296875 11.75 
Q 45.40625 17.390625 45.40625 27.296875 
Q 45.40625 37.203125 41.296875 42.84375 
Q 37.203125 48.484375 30.078125 48.484375 
Q 22.953125 48.484375 18.875 42.84375 
Q 14.796875 37.203125 14.796875 27.296875 
z
" id="DejaVuSans-64"/>
     </defs>
     <g transform="translate(100 68.438438)scale(0.1 -0.1)">
      <use xlink:href="#DejaVuSans-6d"/>
      <use x="97.412109" xlink:href="#DejaVuSans-6f"/>
      <use x="158.59375" xlink:href="#DejaVuSans-64"/>
      <use x="222.070312" xlink:href="#DejaVuSans-65"/>
      <use x="283.59375" xlink:href="#DejaVuSans-6c"/>
     </g>
    </g>
   </g>
  </g>
 </g>
 <defs>
  <clipPath id="p456a0eb9d5">
   <rect height="332.64" width="390.6" x="63" y="51.84"/>
  </clipPath>
 </defs>
</svg>
