<?xml version="1.0" encoding="utf-8" standalone="no"?>
<!DOCTYPE svg PUBLIC "-//W3C//DTD SVG 1.1//EN"
  "http://www.w3.org/Graphics/SVG/1.1/DTD/svg11.dtd">
<!-- Created with matplotlib (https://matplotlib.org/) -->
<svg height="432pt" version="1.1" viewBox="0 0 504 432" width="504pt" xmlns="http://www.w3.org/2000/svg" xmlns:xlink="http://www.w3.org/1999/xlink">
 <defs>
  <style type="text/css">
*{stroke-linecap:butt;stroke-linejoin:round;}
  </style>
 </defs>
 <g id="figure_1">
  <g id="patch_1">
   <path d="M 0 432 
L 504 432 
L 504 0 
L 0 0 
z
" style="fill:#ffffff;"/>
  </g>
  <g id="axes_1">
   <g id="patch_2">
    <path d="M 63 384.48 
L 453.6 384.48 
L 453.6 51.84 
L 63 51.84 
z
" style="fill:#ffffff;"/>
   </g>
   <g id="matplotlib.axis_1">
    <g id="xtick_1">
     <g id="line2d_1">
      <defs>
       <path d="M 0 0 
L 0 3.5 
" id="m2e32e973f9" style="stroke:#000000;stroke-width:0.8;"/>
      </defs>
      <g>
       <use style="stroke:#000000;stroke-width:0.8;" x="80.754545" xlink:href="#m2e32e973f9" y="384.48"/>
      </g>
     </g>
     <g id="text_1">
      <!-- 0 -->
      <defs>
       <path d="M 31.78125 66.40625 
Q 24.171875 66.40625 20.328125 58.90625 
Q 16.5 51.421875 16.5 36.375 
Q 16.5 21.390625 20.328125 13.890625 
Q 24.171875 6.390625 31.78125 6.390625 
Q 39.453125 6.390625 43.28125 13.890625 
Q 47.125 21.390625 47.125 36.375 
Q 47.125 51.421875 43.28125 58.90625 
Q 39.453125 66.40625 31.78125 66.40625 
z
M 31.78125 74.21875 
Q 44.046875 74.21875 50.515625 64.515625 
Q 56.984375 54.828125 56.984375 36.375 
Q 56.984375 17.96875 50.515625 8.265625 
Q 44.046875 -1.421875 31.78125 -1.421875 
Q 19.53125 -1.421875 13.0625 8.265625 
Q 6.59375 17.96875 6.59375 36.375 
Q 6.59375 54.828125 13.0625 64.515625 
Q 19.53125 74.21875 31.78125 74.21875 
z
" id="DejaVuSans-48"/>
      </defs>
      <g transform="translate(77.573295 399.078438)scale(0.1 -0.1)">
       <use xlink:href="#DejaVuSans-48"/>
      </g>
     </g>
    </g>
    <g id="xtick_2">
     <g id="line2d_2">
      <g>
       <use style="stroke:#000000;stroke-width:0.8;" x="151.772727" xlink:href="#m2e32e973f9" y="384.48"/>
      </g>
     </g>
     <g id="text_2">
      <!-- 200 -->
      <defs>
       <path d="M 19.1875 8.296875 
L 53.609375 8.296875 
L 53.609375 0 
L 7.328125 0 
L 7.328125 8.296875 
Q 12.9375 14.109375 22.625 23.890625 
Q 32.328125 33.6875 34.8125 36.53125 
Q 39.546875 41.84375 41.421875 45.53125 
Q 43.3125 49.21875 43.3125 52.78125 
Q 43.3125 58.59375 39.234375 62.25 
Q 35.15625 65.921875 28.609375 65.921875 
Q 23.96875 65.921875 18.8125 64.3125 
Q 13.671875 62.703125 7.8125 59.421875 
L 7.8125 69.390625 
Q 13.765625 71.78125 18.9375 73 
Q 24.125 74.21875 28.421875 74.21875 
Q 39.75 74.21875 46.484375 68.546875 
Q 53.21875 62.890625 53.21875 53.421875 
Q 53.21875 48.921875 51.53125 44.890625 
Q 49.859375 40.875 45.40625 35.40625 
Q 44.1875 33.984375 37.640625 27.21875 
Q 31.109375 20.453125 19.1875 8.296875 
z
" id="DejaVuSans-50"/>
      </defs>
      <g transform="translate(142.228977 399.078438)scale(0.1 -0.1)">
       <use xlink:href="#DejaVuSans-50"/>
       <use x="63.623047" xlink:href="#DejaVuSans-48"/>
       <use x="127.246094" xlink:href="#DejaVuSans-48"/>
      </g>
     </g>
    </g>
    <g id="xtick_3">
     <g id="line2d_3">
      <g>
       <use style="stroke:#000000;stroke-width:0.8;" x="222.790909" xlink:href="#m2e32e973f9" y="384.48"/>
      </g>
     </g>
     <g id="text_3">
      <!-- 400 -->
      <defs>
       <path d="M 37.796875 64.3125 
L 12.890625 25.390625 
L 37.796875 25.390625 
z
M 35.203125 72.90625 
L 47.609375 72.90625 
L 47.609375 25.390625 
L 58.015625 25.390625 
L 58.015625 17.1875 
L 47.609375 17.1875 
L 47.609375 0 
L 37.796875 0 
L 37.796875 17.1875 
L 4.890625 17.1875 
L 4.890625 26.703125 
z
" id="DejaVuSans-52"/>
      </defs>
      <g transform="translate(213.247159 399.078438)scale(0.1 -0.1)">
       <use xlink:href="#DejaVuSans-52"/>
       <use x="63.623047" xlink:href="#DejaVuSans-48"/>
       <use x="127.246094" xlink:href="#DejaVuSans-48"/>
      </g>
     </g>
    </g>
    <g id="xtick_4">
     <g id="line2d_4">
      <g>
       <use style="stroke:#000000;stroke-width:0.8;" x="293.809091" xlink:href="#m2e32e973f9" y="384.48"/>
      </g>
     </g>
     <g id="text_4">
      <!-- 600 -->
      <defs>
       <path d="M 33.015625 40.375 
Q 26.375 40.375 22.484375 35.828125 
Q 18.609375 31.296875 18.609375 23.390625 
Q 18.609375 15.53125 22.484375 10.953125 
Q 26.375 6.390625 33.015625 6.390625 
Q 39.65625 6.390625 43.53125 10.953125 
Q 47.40625 15.53125 47.40625 23.390625 
Q 47.40625 31.296875 43.53125 35.828125 
Q 39.65625 40.375 33.015625 40.375 
z
M 52.59375 71.296875 
L 52.59375 62.3125 
Q 48.875 64.0625 45.09375 64.984375 
Q 41.3125 65.921875 37.59375 65.921875 
Q 27.828125 65.921875 22.671875 59.328125 
Q 17.53125 52.734375 16.796875 39.40625 
Q 19.671875 43.65625 24.015625 45.921875 
Q 28.375 48.1875 33.59375 48.1875 
Q 44.578125 48.1875 50.953125 41.515625 
Q 57.328125 34.859375 57.328125 23.390625 
Q 57.328125 12.15625 50.6875 5.359375 
Q 44.046875 -1.421875 33.015625 -1.421875 
Q 20.359375 -1.421875 13.671875 8.265625 
Q 6.984375 17.96875 6.984375 36.375 
Q 6.984375 53.65625 15.1875 63.9375 
Q 23.390625 74.21875 37.203125 74.21875 
Q 40.921875 74.21875 44.703125 73.484375 
Q 48.484375 72.75 52.59375 71.296875 
z
" id="DejaVuSans-54"/>
      </defs>
      <g transform="translate(284.265341 399.078438)scale(0.1 -0.1)">
       <use xlink:href="#DejaVuSans-54"/>
       <use x="63.623047" xlink:href="#DejaVuSans-48"/>
       <use x="127.246094" xlink:href="#DejaVuSans-48"/>
      </g>
     </g>
    </g>
    <g id="xtick_5">
     <g id="line2d_5">
      <g>
       <use style="stroke:#000000;stroke-width:0.8;" x="364.827273" xlink:href="#m2e32e973f9" y="384.48"/>
      </g>
     </g>
     <g id="text_5">
      <!-- 800 -->
      <defs>
       <path d="M 31.78125 34.625 
Q 24.75 34.625 20.71875 30.859375 
Q 16.703125 27.09375 16.703125 20.515625 
Q 16.703125 13.921875 20.71875 10.15625 
Q 24.75 6.390625 31.78125 6.390625 
Q 38.8125 6.390625 42.859375 10.171875 
Q 46.921875 13.96875 46.921875 20.515625 
Q 46.921875 27.09375 42.890625 30.859375 
Q 38.875 34.625 31.78125 34.625 
z
M 21.921875 38.8125 
Q 15.578125 40.375 12.03125 44.71875 
Q 8.5 49.078125 8.5 55.328125 
Q 8.5 64.0625 14.71875 69.140625 
Q 20.953125 74.21875 31.78125 74.21875 
Q 42.671875 74.21875 48.875 69.140625 
Q 55.078125 64.0625 55.078125 55.328125 
Q 55.078125 49.078125 51.53125 44.71875 
Q 48 40.375 41.703125 38.8125 
Q 48.828125 37.15625 52.796875 32.3125 
Q 56.78125 27.484375 56.78125 20.515625 
Q 56.78125 9.90625 50.3125 4.234375 
Q 43.84375 -1.421875 31.78125 -1.421875 
Q 19.734375 -1.421875 13.25 4.234375 
Q 6.78125 9.90625 6.78125 20.515625 
Q 6.78125 27.484375 10.78125 32.3125 
Q 14.796875 37.15625 21.921875 38.8125 
z
M 18.3125 54.390625 
Q 18.3125 48.734375 21.84375 45.5625 
Q 25.390625 42.390625 31.78125 42.390625 
Q 38.140625 42.390625 41.71875 45.5625 
Q 45.3125 48.734375 45.3125 54.390625 
Q 45.3125 60.0625 41.71875 63.234375 
Q 38.140625 66.40625 31.78125 66.40625 
Q 25.390625 66.40625 21.84375 63.234375 
Q 18.3125 60.0625 18.3125 54.390625 
z
" id="DejaVuSans-56"/>
      </defs>
      <g transform="translate(355.283523 399.078438)scale(0.1 -0.1)">
       <use xlink:href="#DejaVuSans-56"/>
       <use x="63.623047" xlink:href="#DejaVuSans-48"/>
       <use x="127.246094" xlink:href="#DejaVuSans-48"/>
      </g>
     </g>
    </g>
    <g id="text_6">
     <!-- time [ms] -->
     <defs>
      <path d="M 18.3125 70.21875 
L 18.3125 54.6875 
L 36.8125 54.6875 
L 36.8125 47.703125 
L 18.3125 47.703125 
L 18.3125 18.015625 
Q 18.3125 11.328125 20.140625 9.421875 
Q 21.96875 7.515625 27.59375 7.515625 
L 36.8125 7.515625 
L 36.8125 0 
L 27.59375 0 
Q 17.1875 0 13.234375 3.875 
Q 9.28125 7.765625 9.28125 18.015625 
L 9.28125 47.703125 
L 2.6875 47.703125 
L 2.6875 54.6875 
L 9.28125 54.6875 
L 9.28125 70.21875 
z
" id="DejaVuSans-116"/>
      <path d="M 9.421875 54.6875 
L 18.40625 54.6875 
L 18.40625 0 
L 9.421875 0 
z
M 9.421875 75.984375 
L 18.40625 75.984375 
L 18.40625 64.59375 
L 9.421875 64.59375 
z
" id="DejaVuSans-105"/>
      <path d="M 52 44.1875 
Q 55.375 50.25 60.0625 53.125 
Q 64.75 56 71.09375 56 
Q 79.640625 56 84.28125 50.015625 
Q 88.921875 44.046875 88.921875 33.015625 
L 88.921875 0 
L 79.890625 0 
L 79.890625 32.71875 
Q 79.890625 40.578125 77.09375 44.375 
Q 74.3125 48.1875 68.609375 48.1875 
Q 61.625 48.1875 57.5625 43.546875 
Q 53.515625 38.921875 53.515625 30.90625 
L 53.515625 0 
L 44.484375 0 
L 44.484375 32.71875 
Q 44.484375 40.625 41.703125 44.40625 
Q 38.921875 48.1875 33.109375 48.1875 
Q 26.21875 48.1875 22.15625 43.53125 
Q 18.109375 38.875 18.109375 30.90625 
L 18.109375 0 
L 9.078125 0 
L 9.078125 54.6875 
L 18.109375 54.6875 
L 18.109375 46.1875 
Q 21.1875 51.21875 25.484375 53.609375 
Q 29.78125 56 35.6875 56 
Q 41.65625 56 45.828125 52.96875 
Q 50 49.953125 52 44.1875 
z
" id="DejaVuSans-109"/>
      <path d="M 56.203125 29.59375 
L 56.203125 25.203125 
L 14.890625 25.203125 
Q 15.484375 15.921875 20.484375 11.0625 
Q 25.484375 6.203125 34.421875 6.203125 
Q 39.59375 6.203125 44.453125 7.46875 
Q 49.3125 8.734375 54.109375 11.28125 
L 54.109375 2.78125 
Q 49.265625 0.734375 44.1875 -0.34375 
Q 39.109375 -1.421875 33.890625 -1.421875 
Q 20.796875 -1.421875 13.15625 6.1875 
Q 5.515625 13.8125 5.515625 26.8125 
Q 5.515625 40.234375 12.765625 48.109375 
Q 20.015625 56 32.328125 56 
Q 43.359375 56 49.78125 48.890625 
Q 56.203125 41.796875 56.203125 29.59375 
z
M 47.21875 32.234375 
Q 47.125 39.59375 43.09375 43.984375 
Q 39.0625 48.390625 32.421875 48.390625 
Q 24.90625 48.390625 20.390625 44.140625 
Q 15.875 39.890625 15.1875 32.171875 
z
" id="DejaVuSans-101"/>
      <path id="DejaVuSans-32"/>
      <path d="M 8.59375 75.984375 
L 29.296875 75.984375 
L 29.296875 69 
L 17.578125 69 
L 17.578125 -6.203125 
L 29.296875 -6.203125 
L 29.296875 -13.1875 
L 8.59375 -13.1875 
z
" id="DejaVuSans-91"/>
      <path d="M 44.28125 53.078125 
L 44.28125 44.578125 
Q 40.484375 46.53125 36.375 47.5 
Q 32.28125 48.484375 27.875 48.484375 
Q 21.1875 48.484375 17.84375 46.4375 
Q 14.5 44.390625 14.5 40.28125 
Q 14.5 37.15625 16.890625 35.375 
Q 19.28125 33.59375 26.515625 31.984375 
L 29.59375 31.296875 
Q 39.15625 29.25 43.1875 25.515625 
Q 47.21875 21.78125 47.21875 15.09375 
Q 47.21875 7.46875 41.1875 3.015625 
Q 35.15625 -1.421875 24.609375 -1.421875 
Q 20.21875 -1.421875 15.453125 -0.5625 
Q 10.6875 0.296875 5.421875 2 
L 5.421875 11.28125 
Q 10.40625 8.6875 15.234375 7.390625 
Q 20.0625 6.109375 24.8125 6.109375 
Q 31.15625 6.109375 34.5625 8.28125 
Q 37.984375 10.453125 37.984375 14.40625 
Q 37.984375 18.0625 35.515625 20.015625 
Q 33.0625 21.96875 24.703125 23.78125 
L 21.578125 24.515625 
Q 13.234375 26.265625 9.515625 29.90625 
Q 5.8125 33.546875 5.8125 39.890625 
Q 5.8125 47.609375 11.28125 51.796875 
Q 16.75 56 26.8125 56 
Q 31.78125 56 36.171875 55.265625 
Q 40.578125 54.546875 44.28125 53.078125 
z
" id="DejaVuSans-115"/>
      <path d="M 30.421875 75.984375 
L 30.421875 -13.1875 
L 9.71875 -13.1875 
L 9.71875 -6.203125 
L 21.390625 -6.203125 
L 21.390625 69 
L 9.71875 69 
L 9.71875 75.984375 
z
" id="DejaVuSans-93"/>
     </defs>
     <g transform="translate(234.038281 412.756563)scale(0.1 -0.1)">
      <use xlink:href="#DejaVuSans-116"/>
      <use x="39.208984" xlink:href="#DejaVuSans-105"/>
      <use x="66.992188" xlink:href="#DejaVuSans-109"/>
      <use x="164.404297" xlink:href="#DejaVuSans-101"/>
      <use x="225.927734" xlink:href="#DejaVuSans-32"/>
      <use x="257.714844" xlink:href="#DejaVuSans-91"/>
      <use x="296.728516" xlink:href="#DejaVuSans-109"/>
      <use x="394.140625" xlink:href="#DejaVuSans-115"/>
      <use x="446.240234" xlink:href="#DejaVuSans-93"/>
     </g>
    </g>
   </g>
   <g id="matplotlib.axis_2">
    <g id="ytick_1">
     <g id="line2d_6">
      <defs>
       <path d="M 0 0 
L -3.5 0 
" id="m2e2e988726" style="stroke:#000000;stroke-width:0.8;"/>
      </defs>
      <g>
       <use style="stroke:#000000;stroke-width:0.8;" x="63" xlink:href="#m2e2e988726" y="349.470212"/>
      </g>
     </g>
     <g id="text_7">
      <!-- −60 -->
      <defs>
       <path d="M 10.59375 35.5 
L 73.1875 35.5 
L 73.1875 27.203125 
L 10.59375 27.203125 
z
" id="DejaVuSans-8722"/>
      </defs>
      <g transform="translate(34.895313 353.269431)scale(0.1 -0.1)">
       <use xlink:href="#DejaVuSans-8722"/>
       <use x="83.789062" xlink:href="#DejaVuSans-54"/>
       <use x="147.412109" xlink:href="#DejaVuSans-48"/>
      </g>
     </g>
    </g>
    <g id="ytick_2">
     <g id="line2d_7">
      <g>
       <use style="stroke:#000000;stroke-width:0.8;" x="63" xlink:href="#m2e2e988726" y="285.443655"/>
      </g>
     </g>
     <g id="text_8">
      <!-- −40 -->
      <g transform="translate(34.895313 289.242873)scale(0.1 -0.1)">
       <use xlink:href="#DejaVuSans-8722"/>
       <use x="83.789062" xlink:href="#DejaVuSans-52"/>
       <use x="147.412109" xlink:href="#DejaVuSans-48"/>
      </g>
     </g>
    </g>
    <g id="ytick_3">
     <g id="line2d_8">
      <g>
       <use style="stroke:#000000;stroke-width:0.8;" x="63" xlink:href="#m2e2e988726" y="221.417097"/>
      </g>
     </g>
     <g id="text_9">
      <!-- −20 -->
      <g transform="translate(34.895313 225.216316)scale(0.1 -0.1)">
       <use xlink:href="#DejaVuSans-8722"/>
       <use x="83.789062" xlink:href="#DejaVuSans-50"/>
       <use x="147.412109" xlink:href="#DejaVuSans-48"/>
      </g>
     </g>
    </g>
    <g id="ytick_4">
     <g id="line2d_9">
      <g>
       <use style="stroke:#000000;stroke-width:0.8;" x="63" xlink:href="#m2e2e988726" y="157.39054"/>
      </g>
     </g>
     <g id="text_10">
      <!-- 0 -->
      <g transform="translate(49.6375 161.189759)scale(0.1 -0.1)">
       <use xlink:href="#DejaVuSans-48"/>
      </g>
     </g>
    </g>
    <g id="ytick_5">
     <g id="line2d_10">
      <g>
       <use style="stroke:#000000;stroke-width:0.8;" x="63" xlink:href="#m2e2e988726" y="93.363983"/>
      </g>
     </g>
     <g id="text_11">
      <!-- 20 -->
      <g transform="translate(43.275 97.163202)scale(0.1 -0.1)">
       <use xlink:href="#DejaVuSans-50"/>
       <use x="63.623047" xlink:href="#DejaVuSans-48"/>
      </g>
     </g>
    </g>
    <g id="text_12">
     <!-- voltage [V] -->
     <defs>
      <path d="M 2.984375 54.6875 
L 12.5 54.6875 
L 29.59375 8.796875 
L 46.6875 54.6875 
L 56.203125 54.6875 
L 35.6875 0 
L 23.484375 0 
z
" id="DejaVuSans-118"/>
      <path d="M 30.609375 48.390625 
Q 23.390625 48.390625 19.1875 42.75 
Q 14.984375 37.109375 14.984375 27.296875 
Q 14.984375 17.484375 19.15625 11.84375 
Q 23.34375 6.203125 30.609375 6.203125 
Q 37.796875 6.203125 41.984375 11.859375 
Q 46.1875 17.53125 46.1875 27.296875 
Q 46.1875 37.015625 41.984375 42.703125 
Q 37.796875 48.390625 30.609375 48.390625 
z
M 30.609375 56 
Q 42.328125 56 49.015625 48.375 
Q 55.71875 40.765625 55.71875 27.296875 
Q 55.71875 13.875 49.015625 6.21875 
Q 42.328125 -1.421875 30.609375 -1.421875 
Q 18.84375 -1.421875 12.171875 6.21875 
Q 5.515625 13.875 5.515625 27.296875 
Q 5.515625 40.765625 12.171875 48.375 
Q 18.84375 56 30.609375 56 
z
" id="DejaVuSans-111"/>
      <path d="M 9.421875 75.984375 
L 18.40625 75.984375 
L 18.40625 0 
L 9.421875 0 
z
" id="DejaVuSans-108"/>
      <path d="M 34.28125 27.484375 
Q 23.390625 27.484375 19.1875 25 
Q 14.984375 22.515625 14.984375 16.5 
Q 14.984375 11.71875 18.140625 8.90625 
Q 21.296875 6.109375 26.703125 6.109375 
Q 34.1875 6.109375 38.703125 11.40625 
Q 43.21875 16.703125 43.21875 25.484375 
L 43.21875 27.484375 
z
M 52.203125 31.203125 
L 52.203125 0 
L 43.21875 0 
L 43.21875 8.296875 
Q 40.140625 3.328125 35.546875 0.953125 
Q 30.953125 -1.421875 24.3125 -1.421875 
Q 15.921875 -1.421875 10.953125 3.296875 
Q 6 8.015625 6 15.921875 
Q 6 25.140625 12.171875 29.828125 
Q 18.359375 34.515625 30.609375 34.515625 
L 43.21875 34.515625 
L 43.21875 35.40625 
Q 43.21875 41.609375 39.140625 45 
Q 35.0625 48.390625 27.6875 48.390625 
Q 23 48.390625 18.546875 47.265625 
Q 14.109375 46.140625 10.015625 43.890625 
L 10.015625 52.203125 
Q 14.9375 54.109375 19.578125 55.046875 
Q 24.21875 56 28.609375 56 
Q 40.484375 56 46.34375 49.84375 
Q 52.203125 43.703125 52.203125 31.203125 
z
" id="DejaVuSans-97"/>
      <path d="M 45.40625 27.984375 
Q 45.40625 37.75 41.375 43.109375 
Q 37.359375 48.484375 30.078125 48.484375 
Q 22.859375 48.484375 18.828125 43.109375 
Q 14.796875 37.75 14.796875 27.984375 
Q 14.796875 18.265625 18.828125 12.890625 
Q 22.859375 7.515625 30.078125 7.515625 
Q 37.359375 7.515625 41.375 12.890625 
Q 45.40625 18.265625 45.40625 27.984375 
z
M 54.390625 6.78125 
Q 54.390625 -7.171875 48.1875 -13.984375 
Q 42 -20.796875 29.203125 -20.796875 
Q 24.46875 -20.796875 20.265625 -20.09375 
Q 16.0625 -19.390625 12.109375 -17.921875 
L 12.109375 -9.1875 
Q 16.0625 -11.328125 19.921875 -12.34375 
Q 23.78125 -13.375 27.78125 -13.375 
Q 36.625 -13.375 41.015625 -8.765625 
Q 45.40625 -4.15625 45.40625 5.171875 
L 45.40625 9.625 
Q 42.625 4.78125 38.28125 2.390625 
Q 33.9375 0 27.875 0 
Q 17.828125 0 11.671875 7.65625 
Q 5.515625 15.328125 5.515625 27.984375 
Q 5.515625 40.671875 11.671875 48.328125 
Q 17.828125 56 27.875 56 
Q 33.9375 56 38.28125 53.609375 
Q 42.625 51.21875 45.40625 46.390625 
L 45.40625 54.6875 
L 54.390625 54.6875 
z
" id="DejaVuSans-103"/>
      <path d="M 28.609375 0 
L 0.78125 72.90625 
L 11.078125 72.90625 
L 34.1875 11.53125 
L 57.328125 72.90625 
L 67.578125 72.90625 
L 39.796875 0 
z
" id="DejaVuSans-86"/>
     </defs>
     <g transform="translate(28.815625 245.75375)rotate(-90)scale(0.1 -0.1)">
      <use xlink:href="#DejaVuSans-118"/>
      <use x="59.179688" xlink:href="#DejaVuSans-111"/>
      <use x="120.361328" xlink:href="#DejaVuSans-108"/>
      <use x="148.144531" xlink:href="#DejaVuSans-116"/>
      <use x="187.353516" xlink:href="#DejaVuSans-97"/>
      <use x="248.632812" xlink:href="#DejaVuSans-103"/>
      <use x="312.109375" xlink:href="#DejaVuSans-101"/>
      <use x="373.632812" xlink:href="#DejaVuSans-32"/>
      <use x="405.419922" xlink:href="#DejaVuSans-91"/>
      <use x="444.433594" xlink:href="#DejaVuSans-86"/>
      <use x="512.841797" xlink:href="#DejaVuSans-93"/>
     </g>
    </g>
   </g>
   <g id="line2d_11">
    <path clip-path="url(#p6f2a565493)" d="M 80.754545 365.476844 
L 81.713291 365.489569 
L 85.867855 365.904395 
L 98.722145 367.166908 
L 109.073045 367.940946 
L 120.187391 368.545699 
L 132.739855 369.000527 
L 147.547145 369.30665 
L 151.772727 369.36 
L 151.8615 367.430787 
L 152.234345 359.569849 
L 152.731473 354.067779 
L 153.565936 347.567323 
L 154.9863 338.407634 
L 156.726245 328.649101 
L 158.412927 320.397931 
L 160.028591 313.562696 
L 161.590991 307.909117 
L 163.153391 303.093198 
L 164.840073 298.63022 
L 167.254691 292.952896 
L 168.959127 288.714587 
L 169.811345 286.002976 
L 170.361736 283.555312 
L 170.752336 280.832399 
L 171.036409 276.921019 
L 171.1962 270.025165 
L 171.249464 262.358686 
L 171.622309 83.491028 
L 171.675573 81.256882 
L 171.746591 81.486939 
L 171.906382 93.73199 
L 172.190455 144.014751 
L 172.847373 256.910267 
L 173.220218 289.844333 
L 173.5398 301.655495 
L 173.912645 307.814517 
L 174.303245 311.03706 
L 174.782618 313.147268 
L 175.226482 314.210355 
L 175.6881 314.775522 
L 176.096455 314.960371 
L 176.540318 314.912537 
L 177.037445 314.625036 
L 177.676609 313.985628 
L 178.528827 312.804937 
L 179.771645 310.683242 
L 182.843182 304.83898 
L 185.488609 300.086002 
L 188.151791 295.77757 
L 192.164318 289.34534 
L 193.282855 287.083723 
L 194.064055 285.018678 
L 194.6322 282.877484 
L 195.040555 280.417737 
L 195.324627 277.135423 
L 195.502173 271.456464 
L 195.573191 262.645789 
L 195.626455 236.419743 
L 195.839509 110.66608 
L 196.017055 102.430184 
L 196.034809 102.390558 
L 196.176845 105.958793 
L 196.407655 122.253804 
L 196.744991 168.826783 
L 197.437418 261.952112 
L 197.810264 285.553822 
L 198.200864 296.739905 
L 198.591464 302.118038 
L 199.070836 305.645499 
L 199.550209 307.714724 
L 200.082845 309.140526 
L 200.650991 310.041518 
L 201.219136 310.511711 
L 201.787282 310.672067 
L 202.408691 310.585192 
L 203.083364 310.262886 
L 204.0066 309.550699 
L 205.249418 308.279435 
L 207.255682 305.865728 
L 213.079173 298.749972 
L 221.3883 289.046207 
L 222.577855 287.116177 
L 223.412318 285.348645 
L 224.033727 283.518876 
L 224.495345 281.451549 
L 224.797173 279.199628 
L 225.027982 275.745358 
L 225.170018 269.52899 
L 225.241036 252.634414 
L 225.525109 109.515555 
L 225.596127 107.272739 
L 225.667145 107.799367 
L 225.862445 115.36003 
L 226.164273 138.617427 
L 226.679155 204.506541 
L 227.229545 263.466136 
L 227.6379 283.861614 
L 228.046255 293.713396 
L 228.454609 298.837288 
L 228.933982 302.302755 
L 229.502127 304.793268 
L 230.105782 306.452232 
L 230.691682 307.474121 
L 231.313091 308.125648 
L 231.898991 308.444634 
L 232.555909 308.547956 
L 233.3016 308.423233 
L 234.153818 308.052763 
L 235.2546 307.328365 
L 236.834755 305.996331 
L 239.515691 303.396288 
L 247.079127 295.986998 
L 251.428991 291.67386 
L 253.328727 289.480113 
L 254.624809 287.658159 
L 255.583555 285.929255 
L 256.293736 284.182027 
L 256.808618 282.328727 
L 257.181464 280.180664 
L 257.447782 277.317114 
L 257.607573 273.550889 
L 257.696345 267.341015 
L 257.767364 245.233436 
L 257.998173 112.963158 
L 258.122455 107.933539 
L 258.157964 108.514437 
L 258.264491 111.833709 
L 258.566318 131.305421 
L 258.956918 173.651452 
L 259.755873 262.082427 
L 260.181982 283.008005 
L 260.590336 292.683192 
L 261.016445 297.82345 
L 261.495818 301.086742 
L 262.028455 303.321607 
L 262.649864 304.989759 
L 263.271273 306.05708 
L 263.892682 306.721029 
L 264.531845 307.098396 
L 265.224273 307.24687 
L 266.023227 307.168213 
L 266.946464 306.837186 
L 268.118264 306.164064 
L 269.716173 304.967991 
L 272.272827 302.741773 
L 283.440436 292.487707 
L 285.659755 290.148378 
L 287.133382 288.288315 
L 288.198655 286.600912 
L 288.979855 284.969218 
L 289.565755 283.259386 
L 290.009618 281.290334 
L 290.346955 278.660362 
L 290.542255 275.511191 
L 290.666536 270.361058 
L 290.737555 256.921469 
L 290.844082 171.713961 
L 291.003873 112.141458 
L 291.128155 108.213466 
L 291.163664 108.718948 
L 291.341209 115.831541 
L 291.643036 138.414044 
L 292.175673 201.340071 
L 292.761573 261.59664 
L 293.152173 281.212316 
L 293.560527 291.642847 
L 294.004391 297.312597 
L 294.483764 300.702094 
L 295.051909 303.120334 
L 295.673318 304.786559 
L 296.276973 305.831731 
L 296.933891 306.539316 
L 297.573055 306.91708 
L 298.247727 307.069145 
L 299.046682 307.004399 
L 299.969918 306.690929 
L 301.159473 306.029345 
L 302.775136 304.847341 
L 305.260773 302.725995 
L 316.091045 292.947867 
L 318.523418 290.475093 
L 320.103573 288.564981 
L 321.222109 286.881724 
L 322.056573 285.240606 
L 322.695736 283.487542 
L 323.175109 281.482136 
L 323.5302 278.875704 
L 323.761009 275.143025 
L 323.885291 269.868576 
L 323.974064 241.730747 
L 324.204873 113.331691 
L 324.3114 108.005331 
L 324.346909 108.462505 
L 324.453436 111.342943 
L 324.755264 130.507271 
L 325.163618 174.068482 
L 325.962573 261.425216 
L 326.388682 282.432479 
L 326.797036 292.325649 
L 327.2409 297.731118 
L 327.738027 301.070432 
L 328.306173 303.361481 
L 328.927582 304.943256 
L 329.5845 305.998678 
L 330.241418 306.631653 
L 330.898336 306.961241 
L 331.573009 307.064651 
L 332.389718 306.953156 
L 333.312955 306.601276 
L 334.502509 305.907801 
L 336.153682 304.673947 
L 338.870127 302.333732 
L 350.233036 292.045215 
L 352.328073 289.817167 
L 353.748436 287.992319 
L 354.7782 286.315756 
L 355.5594 284.608364 
L 356.127545 282.823795 
L 356.553655 280.71347 
L 356.855482 277.983489 
L 357.050782 274.036912 
L 357.157309 266.52898 
L 357.210573 250.682661 
L 357.476891 110.878996 
L 357.565664 108.161721 
L 357.618927 108.71994 
L 357.778718 114.967751 
L 358.116055 140.383768 
L 358.648691 203.871388 
L 359.216836 261.835046 
L 359.625191 282.17453 
L 360.033545 292.293913 
L 360.459655 297.636964 
L 360.939027 300.973603 
L 361.453909 303.160138 
L 362.057564 304.798682 
L 362.678973 305.8792 
L 363.335891 306.580026 
L 363.992809 306.957938 
L 364.649727 307.09667 
L 364.862782 307.1006 
L 364.969309 309.207396 
L 365.306645 316.169147 
L 365.786018 321.078338 
L 366.460691 325.506791 
L 367.348418 329.85296 
L 368.395936 333.887505 
L 369.532227 337.424993 
L 370.775045 340.610495 
L 372.1599 343.558558 
L 373.633527 346.183819 
L 375.231436 348.583266 
L 376.953627 350.771734 
L 378.853364 352.817699 
L 380.877382 354.668263 
L 383.078945 356.380924 
L 385.511318 357.989237 
L 388.192255 359.492798 
L 391.192773 360.915577 
L 394.530627 362.24832 
L 398.259082 363.4961 
L 402.502418 364.67661 
L 407.242882 365.760869 
L 412.569245 366.747963 
L 418.534773 367.624257 
L 425.210482 368.377096 
L 432.720655 368.996734 
L 435.8277 369.195182 
L 435.8277 369.195182 
" style="fill:none;stroke:#1f77b4;stroke-linecap:square;stroke-width:1.5;"/>
   </g>
   <g id="line2d_12">
    <path clip-path="url(#p6f2a565493)" d="M 80.754545 365.476851 
L 80.949845 364.614602 
L 81.3582 363.85841 
L 82.032873 363.107861 
L 83.1159 362.259132 
L 84.642791 361.351164 
L 86.489264 360.513417 
L 88.602055 359.802138 
L 90.981164 359.240757 
L 93.6621 358.841593 
L 96.751391 358.611694 
L 100.4976 358.564499 
L 105.539891 358.739914 
L 131.532545 359.962261 
L 142.913209 360.063738 
L 151.772727 360.05464 
L 151.985782 350.363743 
L 152.411891 341.603703 
L 153.068809 332.722603 
L 153.974291 323.510074 
L 154.968545 315.600623 
L 155.945045 309.527529 
L 156.9393 304.691712 
L 157.986818 300.671207 
L 159.158618 297.046767 
L 160.614491 293.289949 
L 163.490727 286.070876 
L 164.147645 283.647974 
L 164.591509 281.155171 
L 164.893336 278.171997 
L 165.088636 273.993839 
L 165.195164 267.575627 
L 165.248427 255.771356 
L 165.283936 209.549372 
L 165.390464 66.96 
L 165.425973 68.614614 
L 165.692291 117.637251 
L 167.006127 298.006105 
L 167.343464 305.333488 
L 167.734064 309.420877 
L 168.160173 311.725738 
L 168.568527 312.827407 
L 168.923618 313.234299 
L 169.2432 313.2903 
L 169.598291 313.114616 
L 170.095418 312.584462 
L 170.858864 311.392052 
L 172.456773 308.369031 
L 174.764864 304.147781 
L 176.611336 301.24145 
L 178.564336 298.581156 
L 180.783655 295.938799 
L 183.730909 292.801527 
L 187.583645 288.682276 
L 188.950745 286.879485 
L 189.891736 285.283457 
L 190.584164 283.675078 
L 191.099045 281.910739 
L 191.471891 279.848832 
L 191.738209 277.161871 
L 191.915755 273.223141 
L 192.022282 266.262484 
L 192.075545 251.516846 
L 192.217582 72.153604 
L 192.341864 91.793716 
L 192.714709 146.310022 
L 193.0698 197.89044 
L 193.637945 295.28665 
L 193.922018 303.989797 
L 194.294864 308.904679 
L 194.738727 311.949172 
L 195.182591 313.596966 
L 195.6087 314.404324 
L 195.9993 314.706315 
L 196.372145 314.721766 
L 196.816009 314.494141 
L 197.401909 313.915355 
L 198.271882 312.708101 
L 199.923055 309.956532 
L 202.976836 304.914732 
L 205.107382 301.848583 
L 207.273436 299.120281 
L 209.634791 296.50634 
L 212.528782 293.650113 
L 217.979427 288.347376 
L 219.311018 286.683004 
L 220.252009 285.160234 
L 220.944436 283.619304 
L 221.459318 281.931456 
L 221.849918 279.855453 
L 222.133991 277.013176 
L 222.311536 272.941489 
L 222.418064 265.328577 
L 222.471327 246.658661 
L 222.595609 72.445862 
L 222.684382 82.596858 
L 223.128245 149.617921 
L 223.465582 200.201648 
L 224.015973 295.141939 
L 224.300045 303.948164 
L 224.655136 308.623991 
L 225.081245 311.576957 
L 225.525109 313.258925 
L 225.951218 314.093061 
L 226.341818 314.416963 
L 226.714664 314.451746 
L 227.140773 314.258054 
L 227.708918 313.734055 
L 228.543382 312.629937 
L 230.052518 310.197748 
L 233.408127 304.773368 
L 235.538673 301.788774 
L 237.704727 299.134476 
L 240.066082 296.594568 
L 242.906809 293.878666 
L 249.138655 288.046489 
L 250.434736 286.436688 
L 251.340218 284.96742 
L 252.014891 283.453188 
L 252.529773 281.7299 
L 252.902618 279.686485 
L 253.168936 276.978298 
L 253.346482 272.90075 
L 253.453009 265.229065 
L 253.506273 246.148824 
L 253.630555 72.503113 
L 253.719327 82.749212 
L 254.163191 149.67922 
L 254.500527 200.28684 
L 255.050918 295.123889 
L 255.334991 303.911477 
L 255.690082 308.570201 
L 256.116191 311.509583 
L 256.560055 313.182416 
L 256.986164 314.011883 
L 257.376764 314.334208 
L 257.749609 314.369364 
L 258.175718 314.177846 
L 258.743864 313.658956 
L 259.578327 312.565615 
L 261.105218 310.129322 
L 264.407564 304.851562 
L 266.538109 301.900264 
L 268.704164 299.279034 
L 271.047764 296.794639 
L 273.799718 294.210585 
L 281.043573 287.600761 
L 282.233127 286.084545 
L 283.085345 284.649563 
L 283.724509 283.142467 
L 284.203882 281.441801 
L 284.558973 279.360003 
L 284.825291 276.335021 
L 284.985082 271.991525 
L 285.073855 264.625694 
L 285.127118 242.38129 
L 285.2514 72.436552 
L 285.322418 80.142068 
L 285.819545 153.960594 
L 286.121373 200.621068 
L 286.671764 295.172801 
L 286.955836 303.920905 
L 287.310927 308.571152 
L 287.737036 311.507616 
L 288.1809 313.179318 
L 288.607009 314.00795 
L 288.997609 314.330273 
L 289.370455 314.366124 
L 289.796564 314.176154 
L 290.364709 313.660406 
L 291.216927 312.547594 
L 292.761573 310.094106 
L 295.9929 304.967717 
L 298.123445 302.036904 
L 300.271745 299.457474 
L 302.597591 297.014973 
L 305.278527 294.529681 
L 309.592882 290.887988 
L 312.309327 288.453408 
L 313.782955 286.84467 
L 314.812718 285.398749 
L 315.558409 283.977823 
L 316.126555 282.415031 
L 316.552664 280.577237 
L 316.872245 278.136846 
L 317.0853 274.716866 
L 317.227336 268.106186 
L 317.298355 251.36325 
L 317.440391 72.575425 
L 317.564673 92.141933 
L 317.937518 146.644777 
L 318.292609 198.129125 
L 318.860755 295.353022 
L 319.144827 303.929737 
L 319.517673 308.693502 
L 319.961536 311.625754 
L 320.4054 313.209287 
L 320.831509 313.988009 
L 321.222109 314.28149 
L 321.594955 314.299745 
L 322.038818 314.085342 
L 322.642473 313.515303 
L 323.5302 312.334278 
L 325.270145 309.566817 
L 328.181891 305.016173 
L 330.312436 302.115225 
L 332.460736 299.563421 
L 334.768827 297.167852 
L 337.414255 294.749593 
L 341.178218 291.64431 
L 344.711373 288.649506 
L 346.291527 287.020221 
L 347.374555 285.593858 
L 348.173509 284.173751 
L 348.759409 282.684664 
L 349.203273 280.95465 
L 349.540609 278.703193 
L 349.771418 275.626586 
L 349.931209 269.955641 
L 350.002227 260.79065 
L 350.055491 205.092534 
L 350.162018 72.541959 
L 350.197527 74.847882 
L 351.120764 220.29584 
L 351.511364 290.495289 
L 351.777682 301.856333 
L 352.115018 307.379591 
L 352.541127 310.842983 
L 352.984991 312.803605 
L 353.4111 313.804281 
L 353.819455 314.24733 
L 354.1923 314.348495 
L 354.600655 314.224427 
L 355.133291 313.806874 
L 355.896736 312.891887 
L 357.175064 310.958361 
L 361.347382 304.470947 
L 363.460173 301.688763 
L 364.827273 300.080648 
L 365.022573 309.011166 
L 365.395418 316.140156 
L 365.928055 322.043557 
L 366.638236 327.40128 
L 367.525964 332.39757 
L 368.555727 336.925235 
L 369.692018 340.936814 
L 370.934836 344.518524 
L 372.266427 347.683674 
L 373.669036 350.456593 
L 375.160418 352.920388 
L 376.722818 355.079105 
L 378.356236 356.962099 
L 380.060673 358.589173 
L 381.818373 359.96116 
L 383.629336 361.095341 
L 385.511318 362.013606 
L 387.482073 362.728961 
L 389.594864 363.256658 
L 391.8852 363.595498 
L 394.441855 363.744771 
L 397.460127 363.690407 
L 401.366127 363.38363 
L 409.320164 362.471778 
L 416.546264 361.760112 
L 422.955655 361.358774 
L 430.217264 361.135928 
L 435.845455 361.07667 
L 435.845455 361.07667 
" style="fill:none;stroke:#ff0000;stroke-linecap:square;stroke-width:1.5;"/>
   </g>
   <g id="patch_3">
    <path d="M 63 384.48 
L 63 51.84 
" style="fill:none;stroke:#000000;stroke-linecap:square;stroke-linejoin:miter;stroke-width:0.8;"/>
   </g>
   <g id="patch_4">
    <path d="M 453.6 384.48 
L 453.6 51.84 
" style="fill:none;stroke:#000000;stroke-linecap:square;stroke-linejoin:miter;stroke-width:0.8;"/>
   </g>
   <g id="patch_5">
    <path d="M 63 384.48 
L 453.6 384.48 
" style="fill:none;stroke:#000000;stroke-linecap:square;stroke-linejoin:miter;stroke-width:0.8;"/>
   </g>
   <g id="patch_6">
    <path d="M 63 51.84 
L 453.6 51.84 
" style="fill:none;stroke:#000000;stroke-linecap:square;stroke-linejoin:miter;stroke-width:0.8;"/>
   </g>
   <g id="legend_1">
    <g id="patch_7">
     <path d="M 383.460938 89.19625 
L 446.6 89.19625 
Q 448.6 89.19625 448.6 87.19625 
L 448.6 58.84 
Q 448.6 56.84 446.6 56.84 
L 383.460938 56.84 
Q 381.460938 56.84 381.460938 58.84 
L 381.460938 87.19625 
Q 381.460938 89.19625 383.460938 89.19625 
z
" style="fill:#ffffff;opacity:0.8;stroke:#cccccc;stroke-linejoin:miter;"/>
    </g>
    <g id="line2d_13">
     <path d="M 385.460938 64.938437 
L 405.460938 64.938437 
" style="fill:none;stroke:#1f77b4;stroke-linecap:square;stroke-width:1.5;"/>
    </g>
    <g id="line2d_14"/>
    <g id="text_13">
     <!-- target -->
     <defs>
      <path d="M 41.109375 46.296875 
Q 39.59375 47.171875 37.8125 47.578125 
Q 36.03125 48 33.890625 48 
Q 26.265625 48 22.1875 43.046875 
Q 18.109375 38.09375 18.109375 28.8125 
L 18.109375 0 
L 9.078125 0 
L 9.078125 54.6875 
L 18.109375 54.6875 
L 18.109375 46.1875 
Q 20.953125 51.171875 25.484375 53.578125 
Q 30.03125 56 36.53125 56 
Q 37.453125 56 38.578125 55.875 
Q 39.703125 55.765625 41.0625 55.515625 
z
" id="DejaVuSans-114"/>
     </defs>
     <g transform="translate(413.460938 68.438437)scale(0.1 -0.1)">
      <use xlink:href="#DejaVuSans-116"/>
      <use x="39.208984" xlink:href="#DejaVuSans-97"/>
      <use x="100.488281" xlink:href="#DejaVuSans-114"/>
      <use x="141.585938" xlink:href="#DejaVuSans-103"/>
      <use x="205.0625" xlink:href="#DejaVuSans-101"/>
      <use x="266.585938" xlink:href="#DejaVuSans-116"/>
     </g>
    </g>
    <g id="line2d_15">
     <path d="M 385.460938 79.616562 
L 405.460938 79.616562 
" style="fill:none;stroke:#ff0000;stroke-linecap:square;stroke-width:1.5;"/>
    </g>
    <g id="line2d_16"/>
    <g id="text_14">
     <!-- model -->
     <defs>
      <path d="M 45.40625 46.390625 
L 45.40625 75.984375 
L 54.390625 75.984375 
L 54.390625 0 
L 45.40625 0 
L 45.40625 8.203125 
Q 42.578125 3.328125 38.25 0.953125 
Q 33.9375 -1.421875 27.875 -1.421875 
Q 17.96875 -1.421875 11.734375 6.484375 
Q 5.515625 14.40625 5.515625 27.296875 
Q 5.515625 40.1875 11.734375 48.09375 
Q 17.96875 56 27.875 56 
Q 33.9375 56 38.25 53.625 
Q 42.578125 51.265625 45.40625 46.390625 
z
M 14.796875 27.296875 
Q 14.796875 17.390625 18.875 11.75 
Q 22.953125 6.109375 30.078125 6.109375 
Q 37.203125 6.109375 41.296875 11.75 
Q 45.40625 17.390625 45.40625 27.296875 
Q 45.40625 37.203125 41.296875 42.84375 
Q 37.203125 48.484375 30.078125 48.484375 
Q 22.953125 48.484375 18.875 42.84375 
Q 14.796875 37.203125 14.796875 27.296875 
z
" id="DejaVuSans-100"/>
     </defs>
     <g transform="translate(413.460938 83.116562)scale(0.1 -0.1)">
      <use xlink:href="#DejaVuSans-109"/>
      <use x="97.412109" xlink:href="#DejaVuSans-111"/>
      <use x="158.59375" xlink:href="#DejaVuSans-100"/>
      <use x="222.070312" xlink:href="#DejaVuSans-101"/>
      <use x="283.59375" xlink:href="#DejaVuSans-108"/>
     </g>
    </g>
   </g>
  </g>
 </g>
 <defs>
  <clipPath id="p6f2a565493">
   <rect height="332.64" width="390.6" x="63" y="51.84"/>
  </clipPath>
 </defs>
</svg>
