<?xml version="1.0" encoding="utf-8" standalone="no"?>
<!DOCTYPE svg PUBLIC "-//W3C//DTD SVG 1.1//EN"
  "http://www.w3.org/Graphics/SVG/1.1/DTD/svg11.dtd">
<!-- Created with matplotlib (http://matplotlib.org/) -->
<svg height="432pt" version="1.1" viewBox="0 0 504 432" width="504pt" xmlns="http://www.w3.org/2000/svg" xmlns:xlink="http://www.w3.org/1999/xlink">
 <defs>
  <style type="text/css">
*{stroke-linecap:butt;stroke-linejoin:round;}
  </style>
 </defs>
 <g id="figure_1">
  <g id="patch_1">
   <path d="M 0 432 
L 504 432 
L 504 0 
L 0 0 
z
" style="fill:#ffffff;"/>
  </g>
  <g id="axes_1">
   <g id="patch_2">
    <path d="M 63 384.48 
L 453.6 384.48 
L 453.6 51.84 
L 63 51.84 
z
" style="fill:#ffffff;"/>
   </g>
   <g id="matplotlib.axis_1">
    <g id="xtick_1">
     <g id="line2d_1">
      <defs>
       <path d="M 0 0 
L 0 3.5 
" id="m78f25cac9e" style="stroke:#000000;stroke-width:0.8;"/>
      </defs>
      <g>
       <use style="stroke:#000000;stroke-width:0.8;" x="80.754545" xlink:href="#m78f25cac9e" y="384.48"/>
      </g>
     </g>
     <g id="text_1">
      <!-- 0 -->
      <defs>
       <path d="M 31.78125 66.40625 
Q 24.171875 66.40625 20.328125 58.90625 
Q 16.5 51.421875 16.5 36.375 
Q 16.5 21.390625 20.328125 13.890625 
Q 24.171875 6.390625 31.78125 6.390625 
Q 39.453125 6.390625 43.28125 13.890625 
Q 47.125 21.390625 47.125 36.375 
Q 47.125 51.421875 43.28125 58.90625 
Q 39.453125 66.40625 31.78125 66.40625 
z
M 31.78125 74.21875 
Q 44.046875 74.21875 50.515625 64.515625 
Q 56.984375 54.828125 56.984375 36.375 
Q 56.984375 17.96875 50.515625 8.265625 
Q 44.046875 -1.421875 31.78125 -1.421875 
Q 19.53125 -1.421875 13.0625 8.265625 
Q 6.59375 17.96875 6.59375 36.375 
Q 6.59375 54.828125 13.0625 64.515625 
Q 19.53125 74.21875 31.78125 74.21875 
z
" id="DejaVuSans-30"/>
      </defs>
      <g transform="translate(77.573295 399.078438)scale(0.1 -0.1)">
       <use xlink:href="#DejaVuSans-30"/>
      </g>
     </g>
    </g>
    <g id="xtick_2">
     <g id="line2d_2">
      <g>
       <use style="stroke:#000000;stroke-width:0.8;" x="151.772727" xlink:href="#m78f25cac9e" y="384.48"/>
      </g>
     </g>
     <g id="text_2">
      <!-- 200 -->
      <defs>
       <path d="M 19.1875 8.296875 
L 53.609375 8.296875 
L 53.609375 0 
L 7.328125 0 
L 7.328125 8.296875 
Q 12.9375 14.109375 22.625 23.890625 
Q 32.328125 33.6875 34.8125 36.53125 
Q 39.546875 41.84375 41.421875 45.53125 
Q 43.3125 49.21875 43.3125 52.78125 
Q 43.3125 58.59375 39.234375 62.25 
Q 35.15625 65.921875 28.609375 65.921875 
Q 23.96875 65.921875 18.8125 64.3125 
Q 13.671875 62.703125 7.8125 59.421875 
L 7.8125 69.390625 
Q 13.765625 71.78125 18.9375 73 
Q 24.125 74.21875 28.421875 74.21875 
Q 39.75 74.21875 46.484375 68.546875 
Q 53.21875 62.890625 53.21875 53.421875 
Q 53.21875 48.921875 51.53125 44.890625 
Q 49.859375 40.875 45.40625 35.40625 
Q 44.1875 33.984375 37.640625 27.21875 
Q 31.109375 20.453125 19.1875 8.296875 
z
" id="DejaVuSans-32"/>
      </defs>
      <g transform="translate(142.228977 399.078438)scale(0.1 -0.1)">
       <use xlink:href="#DejaVuSans-32"/>
       <use x="63.623047" xlink:href="#DejaVuSans-30"/>
       <use x="127.246094" xlink:href="#DejaVuSans-30"/>
      </g>
     </g>
    </g>
    <g id="xtick_3">
     <g id="line2d_3">
      <g>
       <use style="stroke:#000000;stroke-width:0.8;" x="222.790909" xlink:href="#m78f25cac9e" y="384.48"/>
      </g>
     </g>
     <g id="text_3">
      <!-- 400 -->
      <defs>
       <path d="M 37.796875 64.3125 
L 12.890625 25.390625 
L 37.796875 25.390625 
z
M 35.203125 72.90625 
L 47.609375 72.90625 
L 47.609375 25.390625 
L 58.015625 25.390625 
L 58.015625 17.1875 
L 47.609375 17.1875 
L 47.609375 0 
L 37.796875 0 
L 37.796875 17.1875 
L 4.890625 17.1875 
L 4.890625 26.703125 
z
" id="DejaVuSans-34"/>
      </defs>
      <g transform="translate(213.247159 399.078438)scale(0.1 -0.1)">
       <use xlink:href="#DejaVuSans-34"/>
       <use x="63.623047" xlink:href="#DejaVuSans-30"/>
       <use x="127.246094" xlink:href="#DejaVuSans-30"/>
      </g>
     </g>
    </g>
    <g id="xtick_4">
     <g id="line2d_4">
      <g>
       <use style="stroke:#000000;stroke-width:0.8;" x="293.809091" xlink:href="#m78f25cac9e" y="384.48"/>
      </g>
     </g>
     <g id="text_4">
      <!-- 600 -->
      <defs>
       <path d="M 33.015625 40.375 
Q 26.375 40.375 22.484375 35.828125 
Q 18.609375 31.296875 18.609375 23.390625 
Q 18.609375 15.53125 22.484375 10.953125 
Q 26.375 6.390625 33.015625 6.390625 
Q 39.65625 6.390625 43.53125 10.953125 
Q 47.40625 15.53125 47.40625 23.390625 
Q 47.40625 31.296875 43.53125 35.828125 
Q 39.65625 40.375 33.015625 40.375 
z
M 52.59375 71.296875 
L 52.59375 62.3125 
Q 48.875 64.0625 45.09375 64.984375 
Q 41.3125 65.921875 37.59375 65.921875 
Q 27.828125 65.921875 22.671875 59.328125 
Q 17.53125 52.734375 16.796875 39.40625 
Q 19.671875 43.65625 24.015625 45.921875 
Q 28.375 48.1875 33.59375 48.1875 
Q 44.578125 48.1875 50.953125 41.515625 
Q 57.328125 34.859375 57.328125 23.390625 
Q 57.328125 12.15625 50.6875 5.359375 
Q 44.046875 -1.421875 33.015625 -1.421875 
Q 20.359375 -1.421875 13.671875 8.265625 
Q 6.984375 17.96875 6.984375 36.375 
Q 6.984375 53.65625 15.1875 63.9375 
Q 23.390625 74.21875 37.203125 74.21875 
Q 40.921875 74.21875 44.703125 73.484375 
Q 48.484375 72.75 52.59375 71.296875 
z
" id="DejaVuSans-36"/>
      </defs>
      <g transform="translate(284.265341 399.078438)scale(0.1 -0.1)">
       <use xlink:href="#DejaVuSans-36"/>
       <use x="63.623047" xlink:href="#DejaVuSans-30"/>
       <use x="127.246094" xlink:href="#DejaVuSans-30"/>
      </g>
     </g>
    </g>
    <g id="xtick_5">
     <g id="line2d_5">
      <g>
       <use style="stroke:#000000;stroke-width:0.8;" x="364.827273" xlink:href="#m78f25cac9e" y="384.48"/>
      </g>
     </g>
     <g id="text_5">
      <!-- 800 -->
      <defs>
       <path d="M 31.78125 34.625 
Q 24.75 34.625 20.71875 30.859375 
Q 16.703125 27.09375 16.703125 20.515625 
Q 16.703125 13.921875 20.71875 10.15625 
Q 24.75 6.390625 31.78125 6.390625 
Q 38.8125 6.390625 42.859375 10.171875 
Q 46.921875 13.96875 46.921875 20.515625 
Q 46.921875 27.09375 42.890625 30.859375 
Q 38.875 34.625 31.78125 34.625 
z
M 21.921875 38.8125 
Q 15.578125 40.375 12.03125 44.71875 
Q 8.5 49.078125 8.5 55.328125 
Q 8.5 64.0625 14.71875 69.140625 
Q 20.953125 74.21875 31.78125 74.21875 
Q 42.671875 74.21875 48.875 69.140625 
Q 55.078125 64.0625 55.078125 55.328125 
Q 55.078125 49.078125 51.53125 44.71875 
Q 48 40.375 41.703125 38.8125 
Q 48.828125 37.15625 52.796875 32.3125 
Q 56.78125 27.484375 56.78125 20.515625 
Q 56.78125 9.90625 50.3125 4.234375 
Q 43.84375 -1.421875 31.78125 -1.421875 
Q 19.734375 -1.421875 13.25 4.234375 
Q 6.78125 9.90625 6.78125 20.515625 
Q 6.78125 27.484375 10.78125 32.3125 
Q 14.796875 37.15625 21.921875 38.8125 
z
M 18.3125 54.390625 
Q 18.3125 48.734375 21.84375 45.5625 
Q 25.390625 42.390625 31.78125 42.390625 
Q 38.140625 42.390625 41.71875 45.5625 
Q 45.3125 48.734375 45.3125 54.390625 
Q 45.3125 60.0625 41.71875 63.234375 
Q 38.140625 66.40625 31.78125 66.40625 
Q 25.390625 66.40625 21.84375 63.234375 
Q 18.3125 60.0625 18.3125 54.390625 
z
" id="DejaVuSans-38"/>
      </defs>
      <g transform="translate(355.283523 399.078438)scale(0.1 -0.1)">
       <use xlink:href="#DejaVuSans-38"/>
       <use x="63.623047" xlink:href="#DejaVuSans-30"/>
       <use x="127.246094" xlink:href="#DejaVuSans-30"/>
      </g>
     </g>
    </g>
    <g id="text_6">
     <!-- time [ms] -->
     <defs>
      <path d="M 18.3125 70.21875 
L 18.3125 54.6875 
L 36.8125 54.6875 
L 36.8125 47.703125 
L 18.3125 47.703125 
L 18.3125 18.015625 
Q 18.3125 11.328125 20.140625 9.421875 
Q 21.96875 7.515625 27.59375 7.515625 
L 36.8125 7.515625 
L 36.8125 0 
L 27.59375 0 
Q 17.1875 0 13.234375 3.875 
Q 9.28125 7.765625 9.28125 18.015625 
L 9.28125 47.703125 
L 2.6875 47.703125 
L 2.6875 54.6875 
L 9.28125 54.6875 
L 9.28125 70.21875 
z
" id="DejaVuSans-74"/>
      <path d="M 9.421875 54.6875 
L 18.40625 54.6875 
L 18.40625 0 
L 9.421875 0 
z
M 9.421875 75.984375 
L 18.40625 75.984375 
L 18.40625 64.59375 
L 9.421875 64.59375 
z
" id="DejaVuSans-69"/>
      <path d="M 52 44.1875 
Q 55.375 50.25 60.0625 53.125 
Q 64.75 56 71.09375 56 
Q 79.640625 56 84.28125 50.015625 
Q 88.921875 44.046875 88.921875 33.015625 
L 88.921875 0 
L 79.890625 0 
L 79.890625 32.71875 
Q 79.890625 40.578125 77.09375 44.375 
Q 74.3125 48.1875 68.609375 48.1875 
Q 61.625 48.1875 57.5625 43.546875 
Q 53.515625 38.921875 53.515625 30.90625 
L 53.515625 0 
L 44.484375 0 
L 44.484375 32.71875 
Q 44.484375 40.625 41.703125 44.40625 
Q 38.921875 48.1875 33.109375 48.1875 
Q 26.21875 48.1875 22.15625 43.53125 
Q 18.109375 38.875 18.109375 30.90625 
L 18.109375 0 
L 9.078125 0 
L 9.078125 54.6875 
L 18.109375 54.6875 
L 18.109375 46.1875 
Q 21.1875 51.21875 25.484375 53.609375 
Q 29.78125 56 35.6875 56 
Q 41.65625 56 45.828125 52.96875 
Q 50 49.953125 52 44.1875 
z
" id="DejaVuSans-6d"/>
      <path d="M 56.203125 29.59375 
L 56.203125 25.203125 
L 14.890625 25.203125 
Q 15.484375 15.921875 20.484375 11.0625 
Q 25.484375 6.203125 34.421875 6.203125 
Q 39.59375 6.203125 44.453125 7.46875 
Q 49.3125 8.734375 54.109375 11.28125 
L 54.109375 2.78125 
Q 49.265625 0.734375 44.1875 -0.34375 
Q 39.109375 -1.421875 33.890625 -1.421875 
Q 20.796875 -1.421875 13.15625 6.1875 
Q 5.515625 13.8125 5.515625 26.8125 
Q 5.515625 40.234375 12.765625 48.109375 
Q 20.015625 56 32.328125 56 
Q 43.359375 56 49.78125 48.890625 
Q 56.203125 41.796875 56.203125 29.59375 
z
M 47.21875 32.234375 
Q 47.125 39.59375 43.09375 43.984375 
Q 39.0625 48.390625 32.421875 48.390625 
Q 24.90625 48.390625 20.390625 44.140625 
Q 15.875 39.890625 15.1875 32.171875 
z
" id="DejaVuSans-65"/>
      <path id="DejaVuSans-20"/>
      <path d="M 8.59375 75.984375 
L 29.296875 75.984375 
L 29.296875 69 
L 17.578125 69 
L 17.578125 -6.203125 
L 29.296875 -6.203125 
L 29.296875 -13.1875 
L 8.59375 -13.1875 
z
" id="DejaVuSans-5b"/>
      <path d="M 44.28125 53.078125 
L 44.28125 44.578125 
Q 40.484375 46.53125 36.375 47.5 
Q 32.28125 48.484375 27.875 48.484375 
Q 21.1875 48.484375 17.84375 46.4375 
Q 14.5 44.390625 14.5 40.28125 
Q 14.5 37.15625 16.890625 35.375 
Q 19.28125 33.59375 26.515625 31.984375 
L 29.59375 31.296875 
Q 39.15625 29.25 43.1875 25.515625 
Q 47.21875 21.78125 47.21875 15.09375 
Q 47.21875 7.46875 41.1875 3.015625 
Q 35.15625 -1.421875 24.609375 -1.421875 
Q 20.21875 -1.421875 15.453125 -0.5625 
Q 10.6875 0.296875 5.421875 2 
L 5.421875 11.28125 
Q 10.40625 8.6875 15.234375 7.390625 
Q 20.0625 6.109375 24.8125 6.109375 
Q 31.15625 6.109375 34.5625 8.28125 
Q 37.984375 10.453125 37.984375 14.40625 
Q 37.984375 18.0625 35.515625 20.015625 
Q 33.0625 21.96875 24.703125 23.78125 
L 21.578125 24.515625 
Q 13.234375 26.265625 9.515625 29.90625 
Q 5.8125 33.546875 5.8125 39.890625 
Q 5.8125 47.609375 11.28125 51.796875 
Q 16.75 56 26.8125 56 
Q 31.78125 56 36.171875 55.265625 
Q 40.578125 54.546875 44.28125 53.078125 
z
" id="DejaVuSans-73"/>
      <path d="M 30.421875 75.984375 
L 30.421875 -13.1875 
L 9.71875 -13.1875 
L 9.71875 -6.203125 
L 21.390625 -6.203125 
L 21.390625 69 
L 9.71875 69 
L 9.71875 75.984375 
z
" id="DejaVuSans-5d"/>
     </defs>
     <g transform="translate(234.038281 412.756563)scale(0.1 -0.1)">
      <use xlink:href="#DejaVuSans-74"/>
      <use x="39.208984" xlink:href="#DejaVuSans-69"/>
      <use x="66.992188" xlink:href="#DejaVuSans-6d"/>
      <use x="164.404297" xlink:href="#DejaVuSans-65"/>
      <use x="225.927734" xlink:href="#DejaVuSans-20"/>
      <use x="257.714844" xlink:href="#DejaVuSans-5b"/>
      <use x="296.728516" xlink:href="#DejaVuSans-6d"/>
      <use x="394.140625" xlink:href="#DejaVuSans-73"/>
      <use x="446.240234" xlink:href="#DejaVuSans-5d"/>
     </g>
    </g>
   </g>
   <g id="matplotlib.axis_2">
    <g id="ytick_1">
     <g id="line2d_6">
      <defs>
       <path d="M 0 0 
L -3.5 0 
" id="m5f79c9f4bb" style="stroke:#000000;stroke-width:0.8;"/>
      </defs>
      <g>
       <use style="stroke:#000000;stroke-width:0.8;" x="63" xlink:href="#m5f79c9f4bb" y="379.222247"/>
      </g>
     </g>
     <g id="text_7">
      <!-- −80 -->
      <defs>
       <path d="M 10.59375 35.5 
L 73.1875 35.5 
L 73.1875 27.203125 
L 10.59375 27.203125 
z
" id="DejaVuSans-2212"/>
      </defs>
      <g transform="translate(34.895313 383.021466)scale(0.1 -0.1)">
       <use xlink:href="#DejaVuSans-2212"/>
       <use x="83.789062" xlink:href="#DejaVuSans-38"/>
       <use x="147.412109" xlink:href="#DejaVuSans-30"/>
      </g>
     </g>
    </g>
    <g id="ytick_2">
     <g id="line2d_7">
      <g>
       <use style="stroke:#000000;stroke-width:0.8;" x="63" xlink:href="#m5f79c9f4bb" y="329.287124"/>
      </g>
     </g>
     <g id="text_8">
      <!-- −60 -->
      <g transform="translate(34.895313 333.086343)scale(0.1 -0.1)">
       <use xlink:href="#DejaVuSans-2212"/>
       <use x="83.789062" xlink:href="#DejaVuSans-36"/>
       <use x="147.412109" xlink:href="#DejaVuSans-30"/>
      </g>
     </g>
    </g>
    <g id="ytick_3">
     <g id="line2d_8">
      <g>
       <use style="stroke:#000000;stroke-width:0.8;" x="63" xlink:href="#m5f79c9f4bb" y="279.352001"/>
      </g>
     </g>
     <g id="text_9">
      <!-- −40 -->
      <g transform="translate(34.895313 283.15122)scale(0.1 -0.1)">
       <use xlink:href="#DejaVuSans-2212"/>
       <use x="83.789062" xlink:href="#DejaVuSans-34"/>
       <use x="147.412109" xlink:href="#DejaVuSans-30"/>
      </g>
     </g>
    </g>
    <g id="ytick_4">
     <g id="line2d_9">
      <g>
       <use style="stroke:#000000;stroke-width:0.8;" x="63" xlink:href="#m5f79c9f4bb" y="229.416878"/>
      </g>
     </g>
     <g id="text_10">
      <!-- −20 -->
      <g transform="translate(34.895313 233.216097)scale(0.1 -0.1)">
       <use xlink:href="#DejaVuSans-2212"/>
       <use x="83.789062" xlink:href="#DejaVuSans-32"/>
       <use x="147.412109" xlink:href="#DejaVuSans-30"/>
      </g>
     </g>
    </g>
    <g id="ytick_5">
     <g id="line2d_10">
      <g>
       <use style="stroke:#000000;stroke-width:0.8;" x="63" xlink:href="#m5f79c9f4bb" y="179.481755"/>
      </g>
     </g>
     <g id="text_11">
      <!-- 0 -->
      <g transform="translate(49.6375 183.280974)scale(0.1 -0.1)">
       <use xlink:href="#DejaVuSans-30"/>
      </g>
     </g>
    </g>
    <g id="ytick_6">
     <g id="line2d_11">
      <g>
       <use style="stroke:#000000;stroke-width:0.8;" x="63" xlink:href="#m5f79c9f4bb" y="129.546632"/>
      </g>
     </g>
     <g id="text_12">
      <!-- 20 -->
      <g transform="translate(43.275 133.345851)scale(0.1 -0.1)">
       <use xlink:href="#DejaVuSans-32"/>
       <use x="63.623047" xlink:href="#DejaVuSans-30"/>
      </g>
     </g>
    </g>
    <g id="ytick_7">
     <g id="line2d_12">
      <g>
       <use style="stroke:#000000;stroke-width:0.8;" x="63" xlink:href="#m5f79c9f4bb" y="79.611509"/>
      </g>
     </g>
     <g id="text_13">
      <!-- 40 -->
      <g transform="translate(43.275 83.410728)scale(0.1 -0.1)">
       <use xlink:href="#DejaVuSans-34"/>
       <use x="63.623047" xlink:href="#DejaVuSans-30"/>
      </g>
     </g>
    </g>
    <g id="text_14">
     <!-- voltage [mV] -->
     <defs>
      <path d="M 2.984375 54.6875 
L 12.5 54.6875 
L 29.59375 8.796875 
L 46.6875 54.6875 
L 56.203125 54.6875 
L 35.6875 0 
L 23.484375 0 
z
" id="DejaVuSans-76"/>
      <path d="M 30.609375 48.390625 
Q 23.390625 48.390625 19.1875 42.75 
Q 14.984375 37.109375 14.984375 27.296875 
Q 14.984375 17.484375 19.15625 11.84375 
Q 23.34375 6.203125 30.609375 6.203125 
Q 37.796875 6.203125 41.984375 11.859375 
Q 46.1875 17.53125 46.1875 27.296875 
Q 46.1875 37.015625 41.984375 42.703125 
Q 37.796875 48.390625 30.609375 48.390625 
z
M 30.609375 56 
Q 42.328125 56 49.015625 48.375 
Q 55.71875 40.765625 55.71875 27.296875 
Q 55.71875 13.875 49.015625 6.21875 
Q 42.328125 -1.421875 30.609375 -1.421875 
Q 18.84375 -1.421875 12.171875 6.21875 
Q 5.515625 13.875 5.515625 27.296875 
Q 5.515625 40.765625 12.171875 48.375 
Q 18.84375 56 30.609375 56 
z
" id="DejaVuSans-6f"/>
      <path d="M 9.421875 75.984375 
L 18.40625 75.984375 
L 18.40625 0 
L 9.421875 0 
z
" id="DejaVuSans-6c"/>
      <path d="M 34.28125 27.484375 
Q 23.390625 27.484375 19.1875 25 
Q 14.984375 22.515625 14.984375 16.5 
Q 14.984375 11.71875 18.140625 8.90625 
Q 21.296875 6.109375 26.703125 6.109375 
Q 34.1875 6.109375 38.703125 11.40625 
Q 43.21875 16.703125 43.21875 25.484375 
L 43.21875 27.484375 
z
M 52.203125 31.203125 
L 52.203125 0 
L 43.21875 0 
L 43.21875 8.296875 
Q 40.140625 3.328125 35.546875 0.953125 
Q 30.953125 -1.421875 24.3125 -1.421875 
Q 15.921875 -1.421875 10.953125 3.296875 
Q 6 8.015625 6 15.921875 
Q 6 25.140625 12.171875 29.828125 
Q 18.359375 34.515625 30.609375 34.515625 
L 43.21875 34.515625 
L 43.21875 35.40625 
Q 43.21875 41.609375 39.140625 45 
Q 35.0625 48.390625 27.6875 48.390625 
Q 23 48.390625 18.546875 47.265625 
Q 14.109375 46.140625 10.015625 43.890625 
L 10.015625 52.203125 
Q 14.9375 54.109375 19.578125 55.046875 
Q 24.21875 56 28.609375 56 
Q 40.484375 56 46.34375 49.84375 
Q 52.203125 43.703125 52.203125 31.203125 
z
" id="DejaVuSans-61"/>
      <path d="M 45.40625 27.984375 
Q 45.40625 37.75 41.375 43.109375 
Q 37.359375 48.484375 30.078125 48.484375 
Q 22.859375 48.484375 18.828125 43.109375 
Q 14.796875 37.75 14.796875 27.984375 
Q 14.796875 18.265625 18.828125 12.890625 
Q 22.859375 7.515625 30.078125 7.515625 
Q 37.359375 7.515625 41.375 12.890625 
Q 45.40625 18.265625 45.40625 27.984375 
z
M 54.390625 6.78125 
Q 54.390625 -7.171875 48.1875 -13.984375 
Q 42 -20.796875 29.203125 -20.796875 
Q 24.46875 -20.796875 20.265625 -20.09375 
Q 16.0625 -19.390625 12.109375 -17.921875 
L 12.109375 -9.1875 
Q 16.0625 -11.328125 19.921875 -12.34375 
Q 23.78125 -13.375 27.78125 -13.375 
Q 36.625 -13.375 41.015625 -8.765625 
Q 45.40625 -4.15625 45.40625 5.171875 
L 45.40625 9.625 
Q 42.625 4.78125 38.28125 2.390625 
Q 33.9375 0 27.875 0 
Q 17.828125 0 11.671875 7.65625 
Q 5.515625 15.328125 5.515625 27.984375 
Q 5.515625 40.671875 11.671875 48.328125 
Q 17.828125 56 27.875 56 
Q 33.9375 56 38.28125 53.609375 
Q 42.625 51.21875 45.40625 46.390625 
L 45.40625 54.6875 
L 54.390625 54.6875 
z
" id="DejaVuSans-67"/>
      <path d="M 28.609375 0 
L 0.78125 72.90625 
L 11.078125 72.90625 
L 34.1875 11.53125 
L 57.328125 72.90625 
L 67.578125 72.90625 
L 39.796875 0 
z
" id="DejaVuSans-56"/>
     </defs>
     <g transform="translate(28.815625 250.624062)rotate(-90)scale(0.1 -0.1)">
      <use xlink:href="#DejaVuSans-76"/>
      <use x="59.179688" xlink:href="#DejaVuSans-6f"/>
      <use x="120.361328" xlink:href="#DejaVuSans-6c"/>
      <use x="148.144531" xlink:href="#DejaVuSans-74"/>
      <use x="187.353516" xlink:href="#DejaVuSans-61"/>
      <use x="248.632812" xlink:href="#DejaVuSans-67"/>
      <use x="312.109375" xlink:href="#DejaVuSans-65"/>
      <use x="373.632812" xlink:href="#DejaVuSans-20"/>
      <use x="405.419922" xlink:href="#DejaVuSans-5b"/>
      <use x="444.433594" xlink:href="#DejaVuSans-6d"/>
      <use x="541.845703" xlink:href="#DejaVuSans-56"/>
      <use x="610.253906" xlink:href="#DejaVuSans-5d"/>
     </g>
    </g>
   </g>
   <g id="line2d_13">
    <path clip-path="url(#p4d22d1474a)" d="M 80.754545 341.770905 
L 81.988486 341.640574 
L 83.861591 341.698748 
L 87.936259 341.702244 
L 151.772727 341.70524 
L 152.314241 299.355762 
L 152.420768 253.095115 
L 152.562805 80.420958 
L 152.678209 104.407294 
L 153.565936 366.965171 
L 153.610323 366.869546 
L 153.8145 365.558 
L 154.293873 361.036374 
L 154.959668 352.360396 
L 157.42755 315.367958 
L 157.613973 304.783959 
L 157.738255 283.890854 
L 157.835905 224.388661 
L 157.969064 103.592602 
L 158.031205 116.102849 
L 158.883423 366.561446 
L 158.945564 366.386923 
L 159.203005 364.504369 
L 159.717886 359.108379 
L 160.534595 347.763619 
L 161.8218 330.518524 
L 162.514227 320.658085 
L 162.771668 313.504629 
L 162.940336 302.098698 
L 163.064618 275.497758 
L 163.162268 195.219134 
L 163.268795 104.467965 
L 163.322059 113.516709 
L 163.863573 299.091105 
L 164.147645 366.393414 
L 164.183155 366.531235 
L 164.245295 366.358709 
L 164.493859 364.548062 
L 165.008741 359.170798 
L 165.834327 347.70894 
L 167.112655 330.589432 
L 167.813959 320.624379 
L 168.0714 313.461685 
L 168.240068 302.018302 
L 168.36435 275.263563 
L 168.462 194.50993 
L 168.568527 104.54112 
L 168.621791 113.727934 
L 169.172182 302.849972 
L 169.4385 366.31177 
L 169.482886 366.529238 
L 169.545027 366.352967 
L 169.802468 364.462673 
L 170.31735 359.049705 
L 171.151814 347.434047 
L 172.430141 330.358482 
L 173.113691 320.606901 
L 173.371132 313.42698 
L 173.5398 301.927171 
L 173.664082 274.941981 
L 173.761732 193.414828 
L 173.868259 104.557099 
L 173.921523 113.952393 
L 174.480791 306.722441 
L 174.729355 366.207656 
L 174.782618 366.529238 
L 174.844759 366.348972 
L 175.1022 364.455682 
L 175.617082 359.039469 
L 176.451545 347.421813 
L 177.729873 330.348245 
L 178.413423 320.590922 
L 178.670864 313.392774 
L 178.839532 301.834791 
L 178.963814 274.611909 
L 179.061464 192.287667 
L 179.167991 104.573578 
L 179.221255 114.179348 
L 179.7894 310.693032 
L 180.029086 366.21939 
L 180.08235 366.529488 
L 180.144491 366.344728 
L 180.401932 364.448691 
L 180.916814 359.029482 
L 181.751277 347.410078 
L 183.029605 330.338258 
L 183.713155 320.574693 
L 183.970595 313.358319 
L 184.139264 301.741412 
L 184.263545 274.274098 
L 184.361195 191.140683 
L 184.467723 104.596298 
L 184.520986 114.409798 
L 185.098009 314.75101 
L 185.328818 366.230876 
L 185.382082 366.529488 
L 185.444223 366.340733 
L 185.701664 364.44145 
L 186.216545 359.019495 
L 187.051009 347.398094 
L 188.329336 330.328271 
L 189.012886 320.558714 
L 189.270327 313.323614 
L 189.438995 301.646535 
L 189.563277 273.931294 
L 189.660927 189.989129 
L 189.767455 104.624512 
L 189.820718 114.642496 
L 190.406618 318.877648 
L 190.619673 366.103541 
L 190.681814 366.529238 
L 190.743955 366.336488 
L 191.010273 364.35706 
L 191.525155 358.90015 
L 192.368495 347.126447 
L 193.637945 330.208427 
L 194.312618 320.542235 
L 194.570059 313.288909 
L 194.738727 301.551159 
L 194.863009 273.585243 
L 194.969536 176.12574 
L 195.058309 104.611778 
L 195.12045 114.877691 
L 195.715227 323.04823 
L 195.919405 366.118272 
L 195.981545 366.529238 
L 196.043686 366.332244 
L 196.310005 364.349819 
L 196.833764 358.780305 
L 197.703736 346.595886 
L 198.955432 329.978975 
L 199.61235 320.526007 
L 199.869791 313.253705 
L 200.038459 301.454784 
L 200.162741 273.232202 
L 200.269268 174.924027 
L 200.358041 104.583815 
L 200.420182 115.11688 
L 201.023836 327.22755 
L 201.219136 366.132254 
L 201.281277 366.528739 
L 201.343418 366.327999 
L 201.609736 364.342579 
L 202.133495 358.769819 
L 202.994591 346.713233 
L 204.255164 329.968738 
L 204.912082 320.509278 
L 205.169523 313.218001 
L 205.338191 301.356912 
L 205.462473 272.87192 
L 205.569 173.714248 
L 205.657773 104.562592 
L 205.719914 115.357817 
L 206.332445 331.369918 
L 206.518868 366.146235 
L 206.581009 366.528489 
L 206.634273 366.367947 
L 206.873959 364.641441 
L 207.388841 359.303875 
L 208.187795 348.259225 
L 209.510509 330.50604 
L 210.202936 320.668072 
L 210.460377 313.555812 
L 210.629045 302.273221 
L 210.753327 276.170135 
L 210.850977 197.654819 
L 210.957505 104.548111 
L 211.019645 115.599752 
L 211.641055 335.423901 
L 211.827477 366.284805 
L 211.880741 366.527989 
L 211.934005 366.363953 
L 212.182568 364.558548 
L 212.69745 359.185779 
L 213.514159 347.856997 
L 214.810241 330.495804 
L 215.502668 320.651843 
L 215.760109 313.521607 
L 215.928777 302.18159 
L 216.053059 275.847304 
L 216.150709 196.533276 
L 216.257236 104.542119 
L 216.319377 115.841189 
L 216.949664 339.329077 
L 217.127209 366.294792 
L 217.171595 366.528489 
L 217.233736 366.359958 
L 217.4823 364.551557 
L 217.997182 359.175792 
L 218.822768 347.714932 
L 220.101095 330.594925 
L 220.8024 320.635614 
L 221.059841 313.487651 
L 221.228509 302.090209 
L 221.352791 275.523225 
L 221.450441 195.412283 
L 221.556968 104.542618 
L 221.610232 113.551913 
L 222.151745 299.143787 
L 222.426941 366.30428 
L 222.471327 366.528739 
L 222.533468 366.355963 
L 222.782032 364.544566 
L 223.296914 359.165805 
L 224.1225 347.702698 
L 225.418582 330.366222 
L 226.111009 320.443364 
L 226.36845 313.075936 
L 226.537118 300.963672 
L 226.652523 275.19665 
L 226.750173 194.28682 
L 226.8567 104.548361 
L 226.909964 113.777869 
L 227.460355 302.921629 
L 227.726673 366.313518 
L 227.771059 366.529238 
L 227.8332 366.351968 
L 228.090641 364.460925 
L 228.605523 359.047209 
L 229.439986 347.431051 
L 230.718314 330.355985 
L 231.401864 320.603156 
L 231.659305 313.41899 
L 231.827973 301.906198 
L 231.952255 274.867827 
L 232.049905 193.161157 
L 232.156432 104.560595 
L 232.209695 114.003576 
L 232.768964 306.797094 
L 233.017527 366.210402 
L 233.070791 366.529238 
L 233.132932 366.347973 
L 233.390373 364.453934 
L 233.905255 359.037222 
L 234.739718 347.419066 
L 236.018045 330.345998 
L 236.701595 320.587177 
L 236.959036 313.385034 
L 237.127705 301.813818 
L 237.251986 274.536008 
L 237.349636 192.029053 
L 237.456164 104.578072 
L 237.509427 114.23153 
L 238.077573 310.769932 
L 238.317259 366.221887 
L 238.370523 366.529488 
L 238.432664 366.343979 
L 238.698982 364.369793 
L 239.213864 358.918126 
L 240.057205 347.147669 
L 241.317777 330.336011 
L 242.001327 320.571198 
L 242.258768 313.350579 
L 242.427436 301.71994 
L 242.551718 274.196449 
L 242.649368 190.879397 
L 242.755895 104.602291 
L 242.809159 114.46248 
L 243.386182 314.829657 
L 243.616991 366.233372 
L 243.670255 366.529488 
L 243.732395 366.339734 
L 243.989836 364.439952 
L 244.504718 359.017248 
L 245.348059 347.265516 
L 246.617509 330.325774 
L 247.301059 320.554969 
L 247.5585 313.315874 
L 247.727168 301.624813 
L 247.85145 273.853145 
L 247.9491 189.72672 
L 248.055627 104.632002 
L 248.108891 114.695677 
L 248.694791 318.958044 
L 248.907845 366.107036 
L 248.969986 366.529238 
L 249.032127 366.335739 
L 249.298445 364.355562 
L 249.822205 358.788295 
L 250.692177 346.605374 
L 251.943873 329.986965 
L 252.600791 320.53849 
L 252.858232 313.28092 
L 253.0269 301.529188 
L 253.151182 273.505347 
L 253.257709 175.852146 
L 253.346482 104.604787 
L 253.408623 114.93212 
L 254.0034 323.130123 
L 254.207577 366.121518 
L 254.269718 366.528988 
L 254.331859 366.331495 
L 254.598177 364.348321 
L 255.121936 358.777809 
L 255.983032 346.722721 
L 257.22585 330.195943 
L 257.900523 320.522261 
L 258.157964 313.245715 
L 258.326632 301.432563 
L 258.450914 273.150558 
L 258.557441 174.64796 
L 258.646214 104.578322 
L 258.708355 115.172058 
L 259.312009 327.309443 
L 259.507309 366.135499 
L 259.56945 366.528739 
L 259.631591 366.327001 
L 259.897909 364.340831 
L 260.421668 358.767572 
L 261.291641 346.581155 
L 262.525582 330.185706 
L 263.200255 320.505533 
L 263.457695 313.210012 
L 263.626364 301.334441 
L 263.750645 272.789028 
L 263.857173 173.437683 
L 263.945945 104.558597 
L 264.008086 115.412995 
L 264.620618 331.450563 
L 264.807041 366.149481 
L 264.869182 366.528239 
L 264.922445 366.367198 
L 265.171009 364.564041 
L 265.685891 359.193768 
L 266.511477 347.736404 
L 267.807559 330.394435 
L 268.499986 320.489055 
L 268.757427 313.174308 
L 268.926095 301.236318 
L 269.050377 272.427497 
L 269.156905 172.236418 
L 269.245677 104.546114 
L 269.298941 113.15368 
L 269.8227 291.95288 
L 270.133405 366.445347 
L 270.168914 366.527989 
L 270.222177 366.363204 
L 270.470741 364.55705 
L 270.985623 359.183532 
L 271.802332 347.854251 
L 273.098414 330.493556 
L 273.790841 320.648098 
L 274.048282 313.513867 
L 274.21695 302.160867 
L 274.341232 275.7734 
L 274.438882 196.27671 
L 274.545409 104.541869 
L 274.598673 113.378139 
L 275.131309 295.535974 
L 275.424259 366.386423 
L 275.459768 366.528489 
L 275.521909 366.359209 
L 275.770473 364.550059 
L 276.285355 359.173545 
L 277.110941 347.712185 
L 278.389268 330.592678 
L 279.090573 320.631869 
L 279.348014 313.479661 
L 279.516682 302.069236 
L 279.640964 275.448822 
L 279.738614 195.155616 
L 279.845141 104.543118 
L 279.898405 113.603596 
L 280.439918 299.215943 
L 280.715114 366.306278 
L 280.7595 366.528988 
L 280.821641 366.355214 
L 281.079082 364.466418 
L 281.593964 359.054949 
L 282.428427 347.440289 
L 283.706755 330.363725 
L 284.390305 320.61564 
L 284.647745 313.445456 
L 284.816414 301.977355 
L 284.940695 275.121747 
L 285.038345 194.030054 
L 285.144873 104.550608 
L 285.198136 113.829303 
L 285.748527 302.994784 
L 286.014845 366.315516 
L 286.059232 366.529238 
L 286.121373 366.350969 
L 286.378814 364.459427 
L 286.902573 358.935853 
L 287.754791 347.03906 
L 289.006486 330.353738 
L 289.690036 320.599661 
L 289.947477 313.41125 
L 290.116145 301.885225 
L 290.240427 274.792425 
L 290.338077 192.903542 
L 290.444605 104.56409 
L 290.497868 114.055259 
L 291.057136 306.872496 
L 291.3057 366.213149 
L 291.358964 366.529488 
L 291.421105 366.346975 
L 291.678545 364.452436 
L 292.193427 359.034975 
L 293.027891 347.41632 
L 294.315095 330.234143 
L 294.989768 320.583432 
L 295.247209 313.377045 
L 295.415877 301.792596 
L 295.540159 274.459108 
L 295.637809 191.767718 
L 295.744336 104.583066 
L 295.7976 114.283962 
L 296.365745 310.847331 
L 296.605432 366.224634 
L 296.658695 366.529488 
L 296.720836 366.34298 
L 296.978277 364.445445 
L 297.493159 359.024988 
L 298.327623 347.404585 
L 299.60595 330.333764 
L 300.2895 320.567453 
L 300.546941 313.342589 
L 300.715609 301.698218 
L 300.839891 274.11855 
L 300.937541 190.617737 
L 301.044068 104.608533 
L 301.097332 114.515162 
L 301.674355 314.908305 
L 301.905164 366.235869 
L 301.958427 366.529488 
L 302.020568 366.338985 
L 302.286886 364.361055 
L 302.810645 358.796035 
L 303.671741 346.744193 
L 304.914559 330.214169 
L 305.589232 320.551224 
L 305.846673 313.307885 
L 306.015341 301.603341 
L 306.139623 273.774747 
L 306.24615 176.776395 
L 306.334923 104.629505 
L 306.397064 114.749108 
L 306.982964 319.038439 
L 307.196018 366.110282 
L 307.258159 366.529238 
L 307.3203 366.334741 
L 307.586618 364.353814 
L 308.110377 358.785798 
L 308.971473 346.732209 
L 310.214291 330.203933 
L 310.888964 320.534995 
L 311.146405 313.27293 
L 311.315073 301.507466 
L 311.439355 273.425201 
L 311.545882 175.579525 
L 311.634655 104.598296 
L 311.696795 114.986299 
L 312.291573 323.211517 
L 312.49575 366.124763 
L 312.557891 366.528988 
L 312.620032 366.330496 
L 312.88635 364.346574 
L 313.410109 358.775562 
L 314.280082 346.590393 
L 315.531777 329.974231 
L 316.188695 320.518267 
L 316.446136 313.237476 
L 316.614805 301.410342 
L 316.739086 273.069164 
L 316.845614 174.372943 
L 316.934386 104.573328 
L 316.996527 115.226737 
L 317.600182 327.391087 
L 317.795482 366.138745 
L 317.857623 366.528739 
L 317.910886 366.370194 
L 318.15945 364.569534 
L 318.674332 359.201508 
L 319.491041 347.875723 
L 320.796 330.402175 
L 321.488427 320.501788 
L 321.745868 313.201772 
L 321.914536 301.31197 
L 322.038818 272.706385 
L 322.145345 173.16244 
L 322.234118 104.555102 
L 322.296259 115.468173 
L 322.908791 331.530959 
L 323.095214 366.152727 
L 323.157355 366.528239 
L 323.210618 366.3662 
L 323.459182 364.562543 
L 323.974064 359.191272 
L 324.790773 347.863489 
L 326.095732 330.391938 
L 326.779282 320.660582 
L 327.036723 313.540333 
L 327.205391 302.231525 
L 327.329673 276.023076 
L 327.427323 197.143484 
L 327.53385 104.544366 
L 327.595991 115.709859 
L 328.2174 335.579199 
L 328.403823 366.2893 
L 328.457086 366.52774 
L 328.51035 366.362205 
L 328.758914 364.555302 
L 329.273795 359.181285 
L 329.318182 358.634245 
L 329.335936 359.491631 
L 329.531236 363.293692 
L 329.620009 363.472709 
L 329.664395 363.41803 
L 329.815309 362.839781 
L 330.214786 360.155519 
L 332.176664 346.093538 
L 332.869091 343.023277 
L 333.428359 341.445827 
L 333.889977 340.737747 
L 334.262823 340.521528 
L 334.617914 340.559728 
L 335.115041 340.874319 
L 336.482141 341.846057 
L 337.121305 341.962156 
L 338.133314 341.85155 
L 339.926523 341.660548 
L 342.172473 341.708486 
L 435.845455 341.70524 
L 435.845455 341.70524 
" style="fill:none;stroke:#1f77b4;stroke-linecap:square;stroke-width:1.5;"/>
   </g>
   <g id="line2d_14">
    <path clip-path="url(#p4d22d1474a)" d="M 80.754545 341.770905 
L 81.269427 343.211176 
L 81.704414 343.928743 
L 82.023995 344.093855 
L 82.325823 344.00092 
L 82.7253 343.610432 
L 84.394227 341.69897 
L 84.784827 341.693543 
L 85.193182 341.925007 
L 86.870986 343.139845 
L 87.368114 343.06066 
L 88.131559 342.668289 
L 89.045918 342.26864 
L 89.65845 342.249385 
L 90.43965 342.475082 
L 91.575941 342.777812 
L 92.374895 342.733098 
L 94.629723 342.461476 
L 97.710136 342.596419 
L 99.707523 342.540764 
L 102.992114 342.569477 
L 106.489759 342.585607 
L 145.088141 342.574591 
L 151.772727 342.574586 
L 152.163327 310.751804 
L 152.2521 273.482117 
L 152.385259 66.96 
L 152.54505 93.737632 
L 153.184214 288.821637 
L 153.468286 369.36 
L 153.494918 369.324865 
L 153.707973 368.534237 
L 154.134082 366.178752 
L 154.631209 362.045845 
L 155.314759 354.219023 
L 156.752877 334.645798 
L 157.063582 327.292149 
L 157.241127 317.194894 
L 157.356532 295.511524 
L 157.436427 223.566117 
L 157.534077 73.223104 
L 157.605095 81.756725 
L 157.844782 150.998487 
L 158.572718 369.290725 
L 158.617105 369.211212 
L 158.910055 367.990283 
L 159.353918 365.213924 
L 159.886555 360.297012 
L 160.712141 350.209446 
L 161.946082 332.692895 
L 162.203523 325.372518 
L 162.363314 313.789932 
L 162.469841 285.87294 
L 162.540859 195.424681 
L 162.629632 73.343192 
L 162.691773 80.894473 
L 162.922582 146.659396 
L 163.668273 369.286668 
L 163.712659 369.194396 
L 164.023364 367.873119 
L 164.467227 365.035355 
L 164.999864 360.045433 
L 165.852082 349.559511 
L 167.032759 332.763965 
L 167.299077 325.141771 
L 167.458868 313.107038 
L 167.565395 282.911488 
L 167.636414 181.813247 
L 167.716309 73.307118 
L 167.77845 80.234753 
L 167.991505 139.675313 
L 168.75495 369.287655 
L 168.799336 369.204965 
L 169.101164 367.936162 
L 169.545027 365.131307 
L 170.077664 360.180372 
L 170.921005 349.837452 
L 172.128314 332.656803 
L 172.385755 325.29832 
L 172.545545 313.574221 
L 172.652073 284.960899 
L 172.723091 191.213812 
L 172.802986 73.360367 
L 172.874005 81.211 
L 173.104814 147.215956 
L 173.841627 369.287059 
L 173.886014 369.215199 
L 174.170086 368.042222 
L 174.61395 365.293439 
L 175.137709 360.504537 
L 175.945541 350.692653 
L 177.206114 332.906604 
L 177.472432 325.451646 
L 177.632223 314.026026 
L 177.73875 286.871703 
L 177.809768 200.096745 
L 177.898541 73.315603 
L 177.960682 80.548144 
L 178.182614 143.14065 
L 178.937182 369.287323 
L 178.981568 369.199854 
L 179.283395 367.927419 
L 179.727259 365.117982 
L 180.259895 360.161598 
L 181.103236 349.814835 
L 182.301668 332.800898 
L 182.567986 325.222705 
L 182.727777 313.349229 
L 182.834305 283.983093 
L 182.905323 186.702917 
L 182.985218 73.322058 
L 183.047359 79.906204 
L 183.260414 139.075176 
L 184.023859 369.287557 
L 184.068245 369.210269 
L 184.361195 367.989748 
L 184.805059 365.213111 
L 185.337695 360.295881 
L 186.163282 350.208235 
L 187.397223 332.693926 
L 187.654664 325.377514 
L 187.814455 313.808751 
L 187.920982 285.959684 
L 187.992 195.841066 
L 188.080773 73.343081 
L 188.142914 80.867736 
L 188.364845 143.708276 
L 189.119414 369.286606 
L 189.1638 369.194654 
L 189.474505 367.873594 
L 189.918368 365.036076 
L 190.451005 360.046445 
L 191.303223 349.560733 
L 192.4839 332.765973 
L 192.750218 325.146297 
L 192.910009 313.120792 
L 193.016536 282.973028 
L 193.087555 182.090811 
L 193.16745 73.307409 
L 193.229591 80.216283 
L 193.442645 139.641915 
L 194.206091 369.287654 
L 194.250477 369.205257 
L 194.552305 367.936668 
L 194.996168 365.132078 
L 195.528805 360.181459 
L 196.372145 349.838763 
L 197.579455 332.658849 
L 197.836895 325.302695 
L 197.996686 313.587209 
L 198.103214 285.016765 
L 198.174232 191.471776 
L 198.254127 73.363371 
L 198.325145 81.191945 
L 198.555955 147.182798 
L 199.292768 369.287015 
L 199.337155 369.215483 
L 199.621227 368.04272 
L 200.065091 365.294202 
L 200.58885 360.505615 
L 201.396682 350.693967 
L 202.657255 332.908612 
L 202.923573 325.455944 
L 203.083364 314.038465 
L 203.189891 286.923457 
L 203.260909 200.337132 
L 203.349682 73.314626 
L 203.411823 80.529799 
L 203.633755 143.107792 
L 204.388323 369.287354 
L 204.432709 369.200153 
L 204.734536 367.927927 
L 205.1784 365.118756 
L 205.711036 360.162688 
L 206.554377 349.816147 
L 207.752809 332.802913 
L 208.019127 325.227107 
L 208.178918 313.362356 
L 208.285445 284.040579 
L 208.356464 186.966451 
L 208.436359 73.323737 
L 208.4985 79.888576 
L 208.711555 139.042743 
L 209.475 369.287537 
L 209.519386 369.210548 
L 209.812336 367.990233 
L 210.2562 365.213853 
L 210.788836 360.29693 
L 211.614423 350.209505 
L 212.848364 332.695902 
L 213.105805 325.381715 
L 213.265595 313.821139 
L 213.372123 286.012232 
L 213.443141 196.085753 
L 213.531914 73.341007 
L 213.594055 80.849411 
L 213.815986 143.675942 
L 214.570555 369.286657 
L 214.614941 369.194953 
L 214.925645 367.8741 
L 215.369509 365.036846 
L 215.902145 360.047526 
L 216.754364 349.562028 
L 217.935041 332.767975 
L 218.201359 325.150686 
L 218.36115 313.133954 
L 218.467677 283.031601 
L 218.538695 182.355382 
L 218.618591 73.307653 
L 218.680732 80.198431 
L 218.893786 139.609507 
L 219.657232 369.287659 
L 219.701618 369.205547 
L 219.994568 367.981617 
L 220.438432 365.200683 
L 220.971068 360.278305 
L 221.796655 350.186972 
L 223.021718 332.839591 
L 223.288036 325.307001 
L 223.447827 313.599986 
L 223.554355 285.071442 
L 223.625373 191.724748 
L 223.705268 73.366341 
L 223.776286 81.173225 
L 224.007095 147.150179 
L 224.743909 369.286973 
L 224.788295 369.215765 
L 225.072368 368.043211 
L 225.516232 365.294955 
L 226.039991 360.50668 
L 226.847823 350.695267 
L 228.108395 332.910596 
L 228.374714 325.46019 
L 228.534505 314.050748 
L 228.641032 286.974546 
L 228.71205 200.575011 
L 228.800823 73.31368 
L 228.862964 80.511621 
L 229.084895 143.075196 
L 229.839464 369.287383 
L 229.88385 369.200451 
L 230.185677 367.928433 
L 230.629541 365.119527 
L 231.162177 360.163774 
L 232.005518 349.817455 
L 233.20395 332.80492 
L 233.470268 325.23149 
L 233.630059 313.37542 
L 233.736586 284.097769 
L 233.807605 187.230043 
L 233.8875 73.325467 
L 233.949641 79.870768 
L 234.162695 139.009892 
L 234.926141 369.287516 
L 234.970527 369.210834 
L 235.263477 367.990729 
L 235.707341 365.214612 
L 236.239977 360.298004 
L 237.065564 350.210805 
L 238.299505 332.697921 
L 238.556945 325.386004 
L 238.716736 313.833761 
L 238.823264 286.065694 
L 238.894282 196.334651 
L 238.983055 73.338945 
L 239.045195 80.8308 
L 239.267127 143.643088 
L 240.021695 369.286708 
L 240.066082 369.195257 
L 240.376786 367.874615 
L 240.82065 365.037628 
L 241.353286 360.048624 
L 242.205505 349.563346 
L 243.386182 332.770011 
L 243.6525 325.155148 
L 243.812291 313.147329 
L 243.918818 283.091105 
L 243.989836 182.624396 
L 244.069732 73.307954 
L 244.131873 80.180303 
L 244.344927 139.576572 
L 245.108373 369.287663 
L 245.152759 369.205841 
L 245.445709 367.982121 
L 245.889573 365.201454 
L 246.422209 360.279394 
L 247.247795 350.188289 
L 248.472859 332.841612 
L 248.739177 325.311383 
L 248.898968 313.612982 
L 249.005495 285.127044 
L 249.076514 191.981974 
L 249.156409 73.369458 
L 249.227427 81.154212 
L 249.458236 147.117037 
L 250.19505 369.286928 
L 250.239436 369.21605 
L 250.523509 368.04371 
L 250.967373 365.29572 
L 251.491132 360.507762 
L 252.298964 350.696586 
L 253.559536 332.912611 
L 253.825855 325.464502 
L 253.985645 314.063218 
L 254.092173 287.026399 
L 254.163191 200.816411 
L 254.251964 73.31278 
L 254.314105 80.493212 
L 254.536036 143.04217 
L 255.290605 369.287411 
L 255.334991 369.200751 
L 255.636818 367.928944 
L 256.080682 365.120306 
L 256.613318 360.164872 
L 257.456659 349.818777 
L 258.655091 332.80695 
L 258.921409 325.23592 
L 259.0812 313.388623 
L 259.187727 284.15555 
L 259.258745 187.496778 
L 259.338641 73.32728 
L 259.400782 79.852765 
L 259.613836 138.976654 
L 260.377282 369.287495 
L 260.421668 369.211123 
L 260.714618 367.991232 
L 261.158482 365.21538 
L 261.691118 360.299091 
L 262.516705 350.212121 
L 263.750645 332.699965 
L 264.008086 325.390347 
L 264.167877 313.84651 
L 264.274405 286.119577 
L 264.345423 196.585449 
L 264.434195 73.336916 
L 264.496336 80.812078 
L 264.718268 143.610021 
L 265.472836 369.286757 
L 265.517223 369.195562 
L 265.827927 367.875133 
L 266.271791 365.038414 
L 266.804427 360.049727 
L 267.656645 349.564669 
L 268.837323 332.772055 
L 269.103641 325.159625 
L 269.263432 313.16075 
L 269.369959 283.150794 
L 269.440977 182.895344 
L 269.520873 73.308275 
L 269.583014 80.162017 
L 269.796068 139.543304 
L 270.559514 369.287666 
L 270.6039 369.20614 
L 270.89685 367.982632 
L 271.340714 365.202235 
L 271.87335 360.280498 
L 272.698936 350.189624 
L 273.924 332.843658 
L 274.190318 325.315818 
L 274.350109 313.62613 
L 274.456636 285.183275 
L 274.527655 192.242075 
L 274.60755 73.372781 
L 274.678568 81.134921 
L 274.909377 147.083382 
L 275.646191 369.286882 
L 275.690577 369.216339 
L 275.97465 368.044216 
L 276.418514 365.296495 
L 276.942273 360.508857 
L 277.750105 350.697922 
L 279.010677 332.914652 
L 279.276995 325.468871 
L 279.436786 314.075852 
L 279.543314 287.078922 
L 279.614332 201.060891 
L 279.703105 73.311929 
L 279.765245 80.474607 
L 279.987177 143.008776 
L 280.741745 369.287438 
L 280.786132 369.201055 
L 281.087959 367.929461 
L 281.531823 365.121094 
L 282.064459 360.165981 
L 282.9078 349.820113 
L 284.106232 332.809 
L 284.37255 325.240397 
L 284.532341 313.401962 
L 284.638868 284.213907 
L 284.709886 187.766161 
L 284.789782 73.329184 
L 284.851923 79.834624 
L 285.064977 138.943144 
L 285.828423 369.287473 
L 285.872809 369.211414 
L 286.165759 367.991738 
L 286.609623 365.216153 
L 287.142259 360.300185 
L 287.967845 350.213445 
L 289.201786 332.702022 
L 289.459227 325.394714 
L 289.619018 313.85933 
L 289.725545 286.173743 
L 289.796564 196.838014 
L 289.885336 73.334934 
L 289.947477 80.793231 
L 290.169409 143.576697 
L 290.923977 369.286805 
L 290.968364 369.195869 
L 291.279068 367.875653 
L 291.722932 365.039206 
L 292.255568 360.050838 
L 293.107786 349.566001 
L 294.288464 332.774112 
L 294.554782 325.164129 
L 294.714573 313.174245 
L 294.8211 283.210796 
L 294.892118 183.168336 
L 294.972014 73.30865 
L 295.034155 80.143608 
L 295.247209 139.509784 
L 296.010655 369.287668 
L 296.055041 369.206441 
L 296.347991 367.983147 
L 296.791855 365.203022 
L 297.324491 360.281612 
L 298.150077 350.190971 
L 299.375141 332.845721 
L 299.641459 325.320288 
L 299.80125 313.639379 
L 299.907777 285.239843 
L 299.978795 192.503544 
L 300.058691 73.376189 
L 300.129709 81.115556 
L 300.360518 147.049579 
L 301.097332 369.286833 
L 301.141718 369.216629 
L 301.425791 368.044722 
L 301.869655 365.297271 
L 302.393414 360.509955 
L 303.201245 350.69926 
L 304.461818 332.916698 
L 304.728136 325.473248 
L 304.887927 314.088507 
L 304.994455 287.131518 
L 305.065473 201.305672 
L 305.154245 73.311139 
L 305.216386 80.456017 
L 305.438318 142.975393 
L 306.192886 369.287464 
L 306.237273 369.201358 
L 306.5391 367.929977 
L 306.982964 365.121881 
L 307.5156 360.16709 
L 308.358941 349.821449 
L 309.557373 332.81105 
L 309.823691 325.244871 
L 309.983482 313.41529 
L 310.090009 284.272207 
L 310.161027 188.036194 
L 310.240923 73.331153 
L 310.303064 79.816412 
L 310.516118 138.909458 
L 311.279564 369.28745 
L 311.32395 369.211707 
L 311.6169 367.992248 
L 312.060764 365.216933 
L 312.5934 360.301288 
L 313.418986 350.21478 
L 314.652927 332.704095 
L 314.910368 325.399115 
L 315.070159 313.872241 
L 315.176686 286.228281 
L 315.247705 197.092644 
L 315.336477 73.333041 
L 315.398618 80.774163 
L 315.62055 143.542942 
L 316.375118 369.286853 
L 316.419505 369.196179 
L 316.730209 367.87618 
L 317.174073 365.040007 
L 317.706709 360.051962 
L 318.558927 349.567349 
L 319.739605 332.776189 
L 320.005923 325.168673 
L 320.165714 313.187847 
L 320.272241 283.271119 
L 320.343259 183.442787 
L 320.423155 73.309094 
L 320.485295 80.125135 
L 320.69835 139.476127 
L 321.461795 369.287669 
L 321.506182 369.206742 
L 321.799132 367.983664 
L 322.242995 365.203812 
L 322.775632 360.282729 
L 323.601218 350.192322 
L 324.826282 332.847791 
L 325.0926 325.324771 
L 325.252391 313.652664 
L 325.358918 285.296393 
L 325.429936 192.764553 
L 325.518709 73.373376 
L 325.58085 81.096239 
L 325.811659 147.015844 
L 326.548473 369.286784 
L 326.592859 369.216918 
L 326.876932 368.045228 
L 327.320795 365.298047 
L 327.844555 360.511051 
L 328.652386 350.700598 
L 329.318182 341.979115 
L 329.335936 342.867243 
L 329.611132 350.750521 
L 329.859695 352.891766 
L 329.983977 353.052889 
L 330.019486 353.030571 
L 330.161523 352.727986 
L 330.46335 351.421394 
L 332.948986 339.100816 
L 333.410605 338.047376 
L 333.650291 337.922639 
L 333.818959 338.093968 
L 334.040891 338.718133 
L 334.360473 340.429444 
L 335.221568 345.322101 
L 335.505641 345.775053 
L 335.709818 345.762931 
L 335.958382 345.475098 
L 336.384491 344.565692 
L 337.946891 340.964232 
L 338.319736 340.674414 
L 338.586055 340.71925 
L 338.870127 341.015022 
L 339.278482 341.817637 
L 340.139577 343.563217 
L 340.512423 343.842619 
L 340.832005 343.819385 
L 341.222605 343.538923 
L 341.968295 342.647898 
L 342.678477 341.951187 
L 343.122341 341.80207 
L 343.539573 341.89766 
L 344.098841 342.286197 
L 345.093095 342.975067 
L 345.616855 343.047973 
L 346.202755 342.889157 
L 347.924945 342.284179 
L 348.635127 342.380356 
L 350.4816 342.751761 
L 351.546873 342.603823 
L 352.896218 342.465853 
L 354.423109 342.604808 
L 355.843473 342.621942 
L 358.755218 342.565576 
L 361.462786 342.57267 
L 365.732755 342.579448 
L 377.992268 342.5743 
L 435.845455 342.574586 
L 435.845455 342.574586 
" style="fill:none;stroke:#ff0000;stroke-linecap:square;stroke-width:1.5;"/>
   </g>
   <g id="patch_3">
    <path d="M 63 384.48 
L 63 51.84 
" style="fill:none;stroke:#000000;stroke-linecap:square;stroke-linejoin:miter;stroke-width:0.8;"/>
   </g>
   <g id="patch_4">
    <path d="M 453.6 384.48 
L 453.6 51.84 
" style="fill:none;stroke:#000000;stroke-linecap:square;stroke-linejoin:miter;stroke-width:0.8;"/>
   </g>
   <g id="patch_5">
    <path d="M 63 384.48 
L 453.6 384.48 
" style="fill:none;stroke:#000000;stroke-linecap:square;stroke-linejoin:miter;stroke-width:0.8;"/>
   </g>
   <g id="patch_6">
    <path d="M 63 51.84 
L 453.6 51.84 
" style="fill:none;stroke:#000000;stroke-linecap:square;stroke-linejoin:miter;stroke-width:0.8;"/>
   </g>
   <g id="legend_1">
    <g id="patch_7">
     <path d="M 383.460938 89.19625 
L 446.6 89.19625 
Q 448.6 89.19625 448.6 87.19625 
L 448.6 58.84 
Q 448.6 56.84 446.6 56.84 
L 383.460938 56.84 
Q 381.460938 56.84 381.460938 58.84 
L 381.460938 87.19625 
Q 381.460938 89.19625 383.460938 89.19625 
z
" style="fill:#ffffff;opacity:0.8;stroke:#cccccc;stroke-linejoin:miter;"/>
    </g>
    <g id="line2d_15">
     <path d="M 385.460938 64.938437 
L 405.460938 64.938437 
" style="fill:none;stroke:#1f77b4;stroke-linecap:square;stroke-width:1.5;"/>
    </g>
    <g id="line2d_16"/>
    <g id="text_15">
     <!-- target -->
     <defs>
      <path d="M 41.109375 46.296875 
Q 39.59375 47.171875 37.8125 47.578125 
Q 36.03125 48 33.890625 48 
Q 26.265625 48 22.1875 43.046875 
Q 18.109375 38.09375 18.109375 28.8125 
L 18.109375 0 
L 9.078125 0 
L 9.078125 54.6875 
L 18.109375 54.6875 
L 18.109375 46.1875 
Q 20.953125 51.171875 25.484375 53.578125 
Q 30.03125 56 36.53125 56 
Q 37.453125 56 38.578125 55.875 
Q 39.703125 55.765625 41.0625 55.515625 
z
" id="DejaVuSans-72"/>
     </defs>
     <g transform="translate(413.460938 68.438437)scale(0.1 -0.1)">
      <use xlink:href="#DejaVuSans-74"/>
      <use x="39.208984" xlink:href="#DejaVuSans-61"/>
      <use x="100.488281" xlink:href="#DejaVuSans-72"/>
      <use x="141.585938" xlink:href="#DejaVuSans-67"/>
      <use x="205.0625" xlink:href="#DejaVuSans-65"/>
      <use x="266.585938" xlink:href="#DejaVuSans-74"/>
     </g>
    </g>
    <g id="line2d_17">
     <path d="M 385.460938 79.616562 
L 405.460938 79.616562 
" style="fill:none;stroke:#ff0000;stroke-linecap:square;stroke-width:1.5;"/>
    </g>
    <g id="line2d_18"/>
    <g id="text_16">
     <!-- model -->
     <defs>
      <path d="M 45.40625 46.390625 
L 45.40625 75.984375 
L 54.390625 75.984375 
L 54.390625 0 
L 45.40625 0 
L 45.40625 8.203125 
Q 42.578125 3.328125 38.25 0.953125 
Q 33.9375 -1.421875 27.875 -1.421875 
Q 17.96875 -1.421875 11.734375 6.484375 
Q 5.515625 14.40625 5.515625 27.296875 
Q 5.515625 40.1875 11.734375 48.09375 
Q 17.96875 56 27.875 56 
Q 33.9375 56 38.25 53.625 
Q 42.578125 51.265625 45.40625 46.390625 
z
M 14.796875 27.296875 
Q 14.796875 17.390625 18.875 11.75 
Q 22.953125 6.109375 30.078125 6.109375 
Q 37.203125 6.109375 41.296875 11.75 
Q 45.40625 17.390625 45.40625 27.296875 
Q 45.40625 37.203125 41.296875 42.84375 
Q 37.203125 48.484375 30.078125 48.484375 
Q 22.953125 48.484375 18.875 42.84375 
Q 14.796875 37.203125 14.796875 27.296875 
z
" id="DejaVuSans-64"/>
     </defs>
     <g transform="translate(413.460938 83.116562)scale(0.1 -0.1)">
      <use xlink:href="#DejaVuSans-6d"/>
      <use x="97.412109" xlink:href="#DejaVuSans-6f"/>
      <use x="158.59375" xlink:href="#DejaVuSans-64"/>
      <use x="222.070312" xlink:href="#DejaVuSans-65"/>
      <use x="283.59375" xlink:href="#DejaVuSans-6c"/>
     </g>
    </g>
   </g>
  </g>
 </g>
 <defs>
  <clipPath id="p4d22d1474a">
   <rect height="332.64" width="390.6" x="63" y="51.84"/>
  </clipPath>
 </defs>
</svg>
