<?xml version="1.0" encoding="utf-8" standalone="no"?>
<!DOCTYPE svg PUBLIC "-//W3C//DTD SVG 1.1//EN"
  "http://www.w3.org/Graphics/SVG/1.1/DTD/svg11.dtd">
<!-- Created with matplotlib (https://matplotlib.org/) -->
<svg height="432pt" version="1.1" viewBox="0 0 504 432" width="504pt" xmlns="http://www.w3.org/2000/svg" xmlns:xlink="http://www.w3.org/1999/xlink">
 <defs>
  <style type="text/css">
*{stroke-linecap:butt;stroke-linejoin:round;}
  </style>
 </defs>
 <g id="figure_1">
  <g id="patch_1">
   <path d="M 0 432 
L 504 432 
L 504 0 
L 0 0 
z
" style="fill:#ffffff;"/>
  </g>
  <g id="axes_1">
   <g id="patch_2">
    <path d="M 63 384.48 
L 453.6 384.48 
L 453.6 51.84 
L 63 51.84 
z
" style="fill:#ffffff;"/>
   </g>
   <g id="matplotlib.axis_1">
    <g id="xtick_1">
     <g id="line2d_1">
      <defs>
       <path d="M 0 0 
L 0 3.5 
" id="m16ebc36a19" style="stroke:#000000;stroke-width:0.8;"/>
      </defs>
      <g>
       <use style="stroke:#000000;stroke-width:0.8;" x="80.754545" xlink:href="#m16ebc36a19" y="384.48"/>
      </g>
     </g>
     <g id="text_1">
      <!-- 0 -->
      <defs>
       <path d="M 31.78125 66.40625 
Q 24.171875 66.40625 20.328125 58.90625 
Q 16.5 51.421875 16.5 36.375 
Q 16.5 21.390625 20.328125 13.890625 
Q 24.171875 6.390625 31.78125 6.390625 
Q 39.453125 6.390625 43.28125 13.890625 
Q 47.125 21.390625 47.125 36.375 
Q 47.125 51.421875 43.28125 58.90625 
Q 39.453125 66.40625 31.78125 66.40625 
z
M 31.78125 74.21875 
Q 44.046875 74.21875 50.515625 64.515625 
Q 56.984375 54.828125 56.984375 36.375 
Q 56.984375 17.96875 50.515625 8.265625 
Q 44.046875 -1.421875 31.78125 -1.421875 
Q 19.53125 -1.421875 13.0625 8.265625 
Q 6.59375 17.96875 6.59375 36.375 
Q 6.59375 54.828125 13.0625 64.515625 
Q 19.53125 74.21875 31.78125 74.21875 
z
" id="DejaVuSans-48"/>
      </defs>
      <g transform="translate(77.573295 399.078438)scale(0.1 -0.1)">
       <use xlink:href="#DejaVuSans-48"/>
      </g>
     </g>
    </g>
    <g id="xtick_2">
     <g id="line2d_2">
      <g>
       <use style="stroke:#000000;stroke-width:0.8;" x="151.763044" xlink:href="#m16ebc36a19" y="384.48"/>
      </g>
     </g>
     <g id="text_2">
      <!-- 880 -->
      <defs>
       <path d="M 31.78125 34.625 
Q 24.75 34.625 20.71875 30.859375 
Q 16.703125 27.09375 16.703125 20.515625 
Q 16.703125 13.921875 20.71875 10.15625 
Q 24.75 6.390625 31.78125 6.390625 
Q 38.8125 6.390625 42.859375 10.171875 
Q 46.921875 13.96875 46.921875 20.515625 
Q 46.921875 27.09375 42.890625 30.859375 
Q 38.875 34.625 31.78125 34.625 
z
M 21.921875 38.8125 
Q 15.578125 40.375 12.03125 44.71875 
Q 8.5 49.078125 8.5 55.328125 
Q 8.5 64.0625 14.71875 69.140625 
Q 20.953125 74.21875 31.78125 74.21875 
Q 42.671875 74.21875 48.875 69.140625 
Q 55.078125 64.0625 55.078125 55.328125 
Q 55.078125 49.078125 51.53125 44.71875 
Q 48 40.375 41.703125 38.8125 
Q 48.828125 37.15625 52.796875 32.3125 
Q 56.78125 27.484375 56.78125 20.515625 
Q 56.78125 9.90625 50.3125 4.234375 
Q 43.84375 -1.421875 31.78125 -1.421875 
Q 19.734375 -1.421875 13.25 4.234375 
Q 6.78125 9.90625 6.78125 20.515625 
Q 6.78125 27.484375 10.78125 32.3125 
Q 14.796875 37.15625 21.921875 38.8125 
z
M 18.3125 54.390625 
Q 18.3125 48.734375 21.84375 45.5625 
Q 25.390625 42.390625 31.78125 42.390625 
Q 38.140625 42.390625 41.71875 45.5625 
Q 45.3125 48.734375 45.3125 54.390625 
Q 45.3125 60.0625 41.71875 63.234375 
Q 38.140625 66.40625 31.78125 66.40625 
Q 25.390625 66.40625 21.84375 63.234375 
Q 18.3125 60.0625 18.3125 54.390625 
z
" id="DejaVuSans-56"/>
      </defs>
      <g transform="translate(142.219294 399.078438)scale(0.1 -0.1)">
       <use xlink:href="#DejaVuSans-56"/>
       <use x="63.623047" xlink:href="#DejaVuSans-56"/>
       <use x="127.246094" xlink:href="#DejaVuSans-48"/>
      </g>
     </g>
    </g>
    <g id="xtick_3">
     <g id="line2d_3">
      <g>
       <use style="stroke:#000000;stroke-width:0.8;" x="222.771543" xlink:href="#m16ebc36a19" y="384.48"/>
      </g>
     </g>
     <g id="text_3">
      <!-- 1760 -->
      <defs>
       <path d="M 12.40625 8.296875 
L 28.515625 8.296875 
L 28.515625 63.921875 
L 10.984375 60.40625 
L 10.984375 69.390625 
L 28.421875 72.90625 
L 38.28125 72.90625 
L 38.28125 8.296875 
L 54.390625 8.296875 
L 54.390625 0 
L 12.40625 0 
z
" id="DejaVuSans-49"/>
       <path d="M 8.203125 72.90625 
L 55.078125 72.90625 
L 55.078125 68.703125 
L 28.609375 0 
L 18.3125 0 
L 43.21875 64.59375 
L 8.203125 64.59375 
z
" id="DejaVuSans-55"/>
       <path d="M 33.015625 40.375 
Q 26.375 40.375 22.484375 35.828125 
Q 18.609375 31.296875 18.609375 23.390625 
Q 18.609375 15.53125 22.484375 10.953125 
Q 26.375 6.390625 33.015625 6.390625 
Q 39.65625 6.390625 43.53125 10.953125 
Q 47.40625 15.53125 47.40625 23.390625 
Q 47.40625 31.296875 43.53125 35.828125 
Q 39.65625 40.375 33.015625 40.375 
z
M 52.59375 71.296875 
L 52.59375 62.3125 
Q 48.875 64.0625 45.09375 64.984375 
Q 41.3125 65.921875 37.59375 65.921875 
Q 27.828125 65.921875 22.671875 59.328125 
Q 17.53125 52.734375 16.796875 39.40625 
Q 19.671875 43.65625 24.015625 45.921875 
Q 28.375 48.1875 33.59375 48.1875 
Q 44.578125 48.1875 50.953125 41.515625 
Q 57.328125 34.859375 57.328125 23.390625 
Q 57.328125 12.15625 50.6875 5.359375 
Q 44.046875 -1.421875 33.015625 -1.421875 
Q 20.359375 -1.421875 13.671875 8.265625 
Q 6.984375 17.96875 6.984375 36.375 
Q 6.984375 53.65625 15.1875 63.9375 
Q 23.390625 74.21875 37.203125 74.21875 
Q 40.921875 74.21875 44.703125 73.484375 
Q 48.484375 72.75 52.59375 71.296875 
z
" id="DejaVuSans-54"/>
      </defs>
      <g transform="translate(210.046543 399.078438)scale(0.1 -0.1)">
       <use xlink:href="#DejaVuSans-49"/>
       <use x="63.623047" xlink:href="#DejaVuSans-55"/>
       <use x="127.246094" xlink:href="#DejaVuSans-54"/>
       <use x="190.869141" xlink:href="#DejaVuSans-48"/>
      </g>
     </g>
    </g>
    <g id="xtick_4">
     <g id="line2d_4">
      <g>
       <use style="stroke:#000000;stroke-width:0.8;" x="293.780042" xlink:href="#m16ebc36a19" y="384.48"/>
      </g>
     </g>
     <g id="text_4">
      <!-- 2640 -->
      <defs>
       <path d="M 19.1875 8.296875 
L 53.609375 8.296875 
L 53.609375 0 
L 7.328125 0 
L 7.328125 8.296875 
Q 12.9375 14.109375 22.625 23.890625 
Q 32.328125 33.6875 34.8125 36.53125 
Q 39.546875 41.84375 41.421875 45.53125 
Q 43.3125 49.21875 43.3125 52.78125 
Q 43.3125 58.59375 39.234375 62.25 
Q 35.15625 65.921875 28.609375 65.921875 
Q 23.96875 65.921875 18.8125 64.3125 
Q 13.671875 62.703125 7.8125 59.421875 
L 7.8125 69.390625 
Q 13.765625 71.78125 18.9375 73 
Q 24.125 74.21875 28.421875 74.21875 
Q 39.75 74.21875 46.484375 68.546875 
Q 53.21875 62.890625 53.21875 53.421875 
Q 53.21875 48.921875 51.53125 44.890625 
Q 49.859375 40.875 45.40625 35.40625 
Q 44.1875 33.984375 37.640625 27.21875 
Q 31.109375 20.453125 19.1875 8.296875 
z
" id="DejaVuSans-50"/>
       <path d="M 37.796875 64.3125 
L 12.890625 25.390625 
L 37.796875 25.390625 
z
M 35.203125 72.90625 
L 47.609375 72.90625 
L 47.609375 25.390625 
L 58.015625 25.390625 
L 58.015625 17.1875 
L 47.609375 17.1875 
L 47.609375 0 
L 37.796875 0 
L 37.796875 17.1875 
L 4.890625 17.1875 
L 4.890625 26.703125 
z
" id="DejaVuSans-52"/>
      </defs>
      <g transform="translate(281.055042 399.078438)scale(0.1 -0.1)">
       <use xlink:href="#DejaVuSans-50"/>
       <use x="63.623047" xlink:href="#DejaVuSans-54"/>
       <use x="127.246094" xlink:href="#DejaVuSans-52"/>
       <use x="190.869141" xlink:href="#DejaVuSans-48"/>
      </g>
     </g>
    </g>
    <g id="xtick_5">
     <g id="line2d_5">
      <g>
       <use style="stroke:#000000;stroke-width:0.8;" x="364.788541" xlink:href="#m16ebc36a19" y="384.48"/>
      </g>
     </g>
     <g id="text_5">
      <!-- 3520 -->
      <defs>
       <path d="M 40.578125 39.3125 
Q 47.65625 37.796875 51.625 33 
Q 55.609375 28.21875 55.609375 21.1875 
Q 55.609375 10.40625 48.1875 4.484375 
Q 40.765625 -1.421875 27.09375 -1.421875 
Q 22.515625 -1.421875 17.65625 -0.515625 
Q 12.796875 0.390625 7.625 2.203125 
L 7.625 11.71875 
Q 11.71875 9.328125 16.59375 8.109375 
Q 21.484375 6.890625 26.8125 6.890625 
Q 36.078125 6.890625 40.9375 10.546875 
Q 45.796875 14.203125 45.796875 21.1875 
Q 45.796875 27.640625 41.28125 31.265625 
Q 36.765625 34.90625 28.71875 34.90625 
L 20.21875 34.90625 
L 20.21875 43.015625 
L 29.109375 43.015625 
Q 36.375 43.015625 40.234375 45.921875 
Q 44.09375 48.828125 44.09375 54.296875 
Q 44.09375 59.90625 40.109375 62.90625 
Q 36.140625 65.921875 28.71875 65.921875 
Q 24.65625 65.921875 20.015625 65.03125 
Q 15.375 64.15625 9.8125 62.3125 
L 9.8125 71.09375 
Q 15.4375 72.65625 20.34375 73.4375 
Q 25.25 74.21875 29.59375 74.21875 
Q 40.828125 74.21875 47.359375 69.109375 
Q 53.90625 64.015625 53.90625 55.328125 
Q 53.90625 49.265625 50.4375 45.09375 
Q 46.96875 40.921875 40.578125 39.3125 
z
" id="DejaVuSans-51"/>
       <path d="M 10.796875 72.90625 
L 49.515625 72.90625 
L 49.515625 64.59375 
L 19.828125 64.59375 
L 19.828125 46.734375 
Q 21.96875 47.46875 24.109375 47.828125 
Q 26.265625 48.1875 28.421875 48.1875 
Q 40.625 48.1875 47.75 41.5 
Q 54.890625 34.8125 54.890625 23.390625 
Q 54.890625 11.625 47.5625 5.09375 
Q 40.234375 -1.421875 26.90625 -1.421875 
Q 22.3125 -1.421875 17.546875 -0.640625 
Q 12.796875 0.140625 7.71875 1.703125 
L 7.71875 11.625 
Q 12.109375 9.234375 16.796875 8.0625 
Q 21.484375 6.890625 26.703125 6.890625 
Q 35.15625 6.890625 40.078125 11.328125 
Q 45.015625 15.765625 45.015625 23.390625 
Q 45.015625 31 40.078125 35.4375 
Q 35.15625 39.890625 26.703125 39.890625 
Q 22.75 39.890625 18.8125 39.015625 
Q 14.890625 38.140625 10.796875 36.28125 
z
" id="DejaVuSans-53"/>
      </defs>
      <g transform="translate(352.063541 399.078438)scale(0.1 -0.1)">
       <use xlink:href="#DejaVuSans-51"/>
       <use x="63.623047" xlink:href="#DejaVuSans-53"/>
       <use x="127.246094" xlink:href="#DejaVuSans-50"/>
       <use x="190.869141" xlink:href="#DejaVuSans-48"/>
      </g>
     </g>
    </g>
    <g id="text_6">
     <!-- time [ms] -->
     <defs>
      <path d="M 18.3125 70.21875 
L 18.3125 54.6875 
L 36.8125 54.6875 
L 36.8125 47.703125 
L 18.3125 47.703125 
L 18.3125 18.015625 
Q 18.3125 11.328125 20.140625 9.421875 
Q 21.96875 7.515625 27.59375 7.515625 
L 36.8125 7.515625 
L 36.8125 0 
L 27.59375 0 
Q 17.1875 0 13.234375 3.875 
Q 9.28125 7.765625 9.28125 18.015625 
L 9.28125 47.703125 
L 2.6875 47.703125 
L 2.6875 54.6875 
L 9.28125 54.6875 
L 9.28125 70.21875 
z
" id="DejaVuSans-116"/>
      <path d="M 9.421875 54.6875 
L 18.40625 54.6875 
L 18.40625 0 
L 9.421875 0 
z
M 9.421875 75.984375 
L 18.40625 75.984375 
L 18.40625 64.59375 
L 9.421875 64.59375 
z
" id="DejaVuSans-105"/>
      <path d="M 52 44.1875 
Q 55.375 50.25 60.0625 53.125 
Q 64.75 56 71.09375 56 
Q 79.640625 56 84.28125 50.015625 
Q 88.921875 44.046875 88.921875 33.015625 
L 88.921875 0 
L 79.890625 0 
L 79.890625 32.71875 
Q 79.890625 40.578125 77.09375 44.375 
Q 74.3125 48.1875 68.609375 48.1875 
Q 61.625 48.1875 57.5625 43.546875 
Q 53.515625 38.921875 53.515625 30.90625 
L 53.515625 0 
L 44.484375 0 
L 44.484375 32.71875 
Q 44.484375 40.625 41.703125 44.40625 
Q 38.921875 48.1875 33.109375 48.1875 
Q 26.21875 48.1875 22.15625 43.53125 
Q 18.109375 38.875 18.109375 30.90625 
L 18.109375 0 
L 9.078125 0 
L 9.078125 54.6875 
L 18.109375 54.6875 
L 18.109375 46.1875 
Q 21.1875 51.21875 25.484375 53.609375 
Q 29.78125 56 35.6875 56 
Q 41.65625 56 45.828125 52.96875 
Q 50 49.953125 52 44.1875 
z
" id="DejaVuSans-109"/>
      <path d="M 56.203125 29.59375 
L 56.203125 25.203125 
L 14.890625 25.203125 
Q 15.484375 15.921875 20.484375 11.0625 
Q 25.484375 6.203125 34.421875 6.203125 
Q 39.59375 6.203125 44.453125 7.46875 
Q 49.3125 8.734375 54.109375 11.28125 
L 54.109375 2.78125 
Q 49.265625 0.734375 44.1875 -0.34375 
Q 39.109375 -1.421875 33.890625 -1.421875 
Q 20.796875 -1.421875 13.15625 6.1875 
Q 5.515625 13.8125 5.515625 26.8125 
Q 5.515625 40.234375 12.765625 48.109375 
Q 20.015625 56 32.328125 56 
Q 43.359375 56 49.78125 48.890625 
Q 56.203125 41.796875 56.203125 29.59375 
z
M 47.21875 32.234375 
Q 47.125 39.59375 43.09375 43.984375 
Q 39.0625 48.390625 32.421875 48.390625 
Q 24.90625 48.390625 20.390625 44.140625 
Q 15.875 39.890625 15.1875 32.171875 
z
" id="DejaVuSans-101"/>
      <path id="DejaVuSans-32"/>
      <path d="M 8.59375 75.984375 
L 29.296875 75.984375 
L 29.296875 69 
L 17.578125 69 
L 17.578125 -6.203125 
L 29.296875 -6.203125 
L 29.296875 -13.1875 
L 8.59375 -13.1875 
z
" id="DejaVuSans-91"/>
      <path d="M 44.28125 53.078125 
L 44.28125 44.578125 
Q 40.484375 46.53125 36.375 47.5 
Q 32.28125 48.484375 27.875 48.484375 
Q 21.1875 48.484375 17.84375 46.4375 
Q 14.5 44.390625 14.5 40.28125 
Q 14.5 37.15625 16.890625 35.375 
Q 19.28125 33.59375 26.515625 31.984375 
L 29.59375 31.296875 
Q 39.15625 29.25 43.1875 25.515625 
Q 47.21875 21.78125 47.21875 15.09375 
Q 47.21875 7.46875 41.1875 3.015625 
Q 35.15625 -1.421875 24.609375 -1.421875 
Q 20.21875 -1.421875 15.453125 -0.5625 
Q 10.6875 0.296875 5.421875 2 
L 5.421875 11.28125 
Q 10.40625 8.6875 15.234375 7.390625 
Q 20.0625 6.109375 24.8125 6.109375 
Q 31.15625 6.109375 34.5625 8.28125 
Q 37.984375 10.453125 37.984375 14.40625 
Q 37.984375 18.0625 35.515625 20.015625 
Q 33.0625 21.96875 24.703125 23.78125 
L 21.578125 24.515625 
Q 13.234375 26.265625 9.515625 29.90625 
Q 5.8125 33.546875 5.8125 39.890625 
Q 5.8125 47.609375 11.28125 51.796875 
Q 16.75 56 26.8125 56 
Q 31.78125 56 36.171875 55.265625 
Q 40.578125 54.546875 44.28125 53.078125 
z
" id="DejaVuSans-115"/>
      <path d="M 30.421875 75.984375 
L 30.421875 -13.1875 
L 9.71875 -13.1875 
L 9.71875 -6.203125 
L 21.390625 -6.203125 
L 21.390625 69 
L 9.71875 69 
L 9.71875 75.984375 
z
" id="DejaVuSans-93"/>
     </defs>
     <g transform="translate(234.038281 412.756563)scale(0.1 -0.1)">
      <use xlink:href="#DejaVuSans-116"/>
      <use x="39.208984" xlink:href="#DejaVuSans-105"/>
      <use x="66.992188" xlink:href="#DejaVuSans-109"/>
      <use x="164.404297" xlink:href="#DejaVuSans-101"/>
      <use x="225.927734" xlink:href="#DejaVuSans-32"/>
      <use x="257.714844" xlink:href="#DejaVuSans-91"/>
      <use x="296.728516" xlink:href="#DejaVuSans-109"/>
      <use x="394.140625" xlink:href="#DejaVuSans-115"/>
      <use x="446.240234" xlink:href="#DejaVuSans-93"/>
     </g>
    </g>
   </g>
   <g id="matplotlib.axis_2">
    <g id="ytick_1">
     <g id="line2d_6">
      <defs>
       <path d="M 0 0 
L -3.5 0 
" id="m747e7d8a6e" style="stroke:#000000;stroke-width:0.8;"/>
      </defs>
      <g>
       <use style="stroke:#000000;stroke-width:0.8;" x="63" xlink:href="#m747e7d8a6e" y="369.121502"/>
      </g>
     </g>
     <g id="text_7">
      <!-- −350 -->
      <defs>
       <path d="M 10.59375 35.5 
L 73.1875 35.5 
L 73.1875 27.203125 
L 10.59375 27.203125 
z
" id="DejaVuSans-8722"/>
      </defs>
      <g transform="translate(28.532812 372.920721)scale(0.1 -0.1)">
       <use xlink:href="#DejaVuSans-8722"/>
       <use x="83.789062" xlink:href="#DejaVuSans-51"/>
       <use x="147.412109" xlink:href="#DejaVuSans-53"/>
       <use x="211.035156" xlink:href="#DejaVuSans-48"/>
      </g>
     </g>
    </g>
    <g id="ytick_2">
     <g id="line2d_7">
      <g>
       <use style="stroke:#000000;stroke-width:0.8;" x="63" xlink:href="#m747e7d8a6e" y="331.856251"/>
      </g>
     </g>
     <g id="text_8">
      <!-- −300 -->
      <g transform="translate(28.532812 335.65547)scale(0.1 -0.1)">
       <use xlink:href="#DejaVuSans-8722"/>
       <use x="83.789062" xlink:href="#DejaVuSans-51"/>
       <use x="147.412109" xlink:href="#DejaVuSans-48"/>
       <use x="211.035156" xlink:href="#DejaVuSans-48"/>
      </g>
     </g>
    </g>
    <g id="ytick_3">
     <g id="line2d_8">
      <g>
       <use style="stroke:#000000;stroke-width:0.8;" x="63" xlink:href="#m747e7d8a6e" y="294.591001"/>
      </g>
     </g>
     <g id="text_9">
      <!-- −250 -->
      <g transform="translate(28.532812 298.390219)scale(0.1 -0.1)">
       <use xlink:href="#DejaVuSans-8722"/>
       <use x="83.789062" xlink:href="#DejaVuSans-50"/>
       <use x="147.412109" xlink:href="#DejaVuSans-53"/>
       <use x="211.035156" xlink:href="#DejaVuSans-48"/>
      </g>
     </g>
    </g>
    <g id="ytick_4">
     <g id="line2d_9">
      <g>
       <use style="stroke:#000000;stroke-width:0.8;" x="63" xlink:href="#m747e7d8a6e" y="257.32575"/>
      </g>
     </g>
     <g id="text_10">
      <!-- −200 -->
      <g transform="translate(28.532812 261.124968)scale(0.1 -0.1)">
       <use xlink:href="#DejaVuSans-8722"/>
       <use x="83.789062" xlink:href="#DejaVuSans-50"/>
       <use x="147.412109" xlink:href="#DejaVuSans-48"/>
       <use x="211.035156" xlink:href="#DejaVuSans-48"/>
      </g>
     </g>
    </g>
    <g id="ytick_5">
     <g id="line2d_10">
      <g>
       <use style="stroke:#000000;stroke-width:0.8;" x="63" xlink:href="#m747e7d8a6e" y="220.060499"/>
      </g>
     </g>
     <g id="text_11">
      <!-- −150 -->
      <g transform="translate(28.532812 223.859717)scale(0.1 -0.1)">
       <use xlink:href="#DejaVuSans-8722"/>
       <use x="83.789062" xlink:href="#DejaVuSans-49"/>
       <use x="147.412109" xlink:href="#DejaVuSans-53"/>
       <use x="211.035156" xlink:href="#DejaVuSans-48"/>
      </g>
     </g>
    </g>
    <g id="ytick_6">
     <g id="line2d_11">
      <g>
       <use style="stroke:#000000;stroke-width:0.8;" x="63" xlink:href="#m747e7d8a6e" y="182.795248"/>
      </g>
     </g>
     <g id="text_12">
      <!-- −100 -->
      <g transform="translate(28.532812 186.594467)scale(0.1 -0.1)">
       <use xlink:href="#DejaVuSans-8722"/>
       <use x="83.789062" xlink:href="#DejaVuSans-49"/>
       <use x="147.412109" xlink:href="#DejaVuSans-48"/>
       <use x="211.035156" xlink:href="#DejaVuSans-48"/>
      </g>
     </g>
    </g>
    <g id="ytick_7">
     <g id="line2d_12">
      <g>
       <use style="stroke:#000000;stroke-width:0.8;" x="63" xlink:href="#m747e7d8a6e" y="145.529997"/>
      </g>
     </g>
     <g id="text_13">
      <!-- −50 -->
      <g transform="translate(34.895313 149.329216)scale(0.1 -0.1)">
       <use xlink:href="#DejaVuSans-8722"/>
       <use x="83.789062" xlink:href="#DejaVuSans-53"/>
       <use x="147.412109" xlink:href="#DejaVuSans-48"/>
      </g>
     </g>
    </g>
    <g id="ytick_8">
     <g id="line2d_13">
      <g>
       <use style="stroke:#000000;stroke-width:0.8;" x="63" xlink:href="#m747e7d8a6e" y="108.264746"/>
      </g>
     </g>
     <g id="text_14">
      <!-- 0 -->
      <g transform="translate(49.6375 112.063965)scale(0.1 -0.1)">
       <use xlink:href="#DejaVuSans-48"/>
      </g>
     </g>
    </g>
    <g id="ytick_9">
     <g id="line2d_14">
      <g>
       <use style="stroke:#000000;stroke-width:0.8;" x="63" xlink:href="#m747e7d8a6e" y="70.999495"/>
      </g>
     </g>
     <g id="text_15">
      <!-- 50 -->
      <g transform="translate(43.275 74.798714)scale(0.1 -0.1)">
       <use xlink:href="#DejaVuSans-53"/>
       <use x="63.623047" xlink:href="#DejaVuSans-48"/>
      </g>
     </g>
    </g>
    <g id="text_16">
     <!-- voltage [mV] -->
     <defs>
      <path d="M 2.984375 54.6875 
L 12.5 54.6875 
L 29.59375 8.796875 
L 46.6875 54.6875 
L 56.203125 54.6875 
L 35.6875 0 
L 23.484375 0 
z
" id="DejaVuSans-118"/>
      <path d="M 30.609375 48.390625 
Q 23.390625 48.390625 19.1875 42.75 
Q 14.984375 37.109375 14.984375 27.296875 
Q 14.984375 17.484375 19.15625 11.84375 
Q 23.34375 6.203125 30.609375 6.203125 
Q 37.796875 6.203125 41.984375 11.859375 
Q 46.1875 17.53125 46.1875 27.296875 
Q 46.1875 37.015625 41.984375 42.703125 
Q 37.796875 48.390625 30.609375 48.390625 
z
M 30.609375 56 
Q 42.328125 56 49.015625 48.375 
Q 55.71875 40.765625 55.71875 27.296875 
Q 55.71875 13.875 49.015625 6.21875 
Q 42.328125 -1.421875 30.609375 -1.421875 
Q 18.84375 -1.421875 12.171875 6.21875 
Q 5.515625 13.875 5.515625 27.296875 
Q 5.515625 40.765625 12.171875 48.375 
Q 18.84375 56 30.609375 56 
z
" id="DejaVuSans-111"/>
      <path d="M 9.421875 75.984375 
L 18.40625 75.984375 
L 18.40625 0 
L 9.421875 0 
z
" id="DejaVuSans-108"/>
      <path d="M 34.28125 27.484375 
Q 23.390625 27.484375 19.1875 25 
Q 14.984375 22.515625 14.984375 16.5 
Q 14.984375 11.71875 18.140625 8.90625 
Q 21.296875 6.109375 26.703125 6.109375 
Q 34.1875 6.109375 38.703125 11.40625 
Q 43.21875 16.703125 43.21875 25.484375 
L 43.21875 27.484375 
z
M 52.203125 31.203125 
L 52.203125 0 
L 43.21875 0 
L 43.21875 8.296875 
Q 40.140625 3.328125 35.546875 0.953125 
Q 30.953125 -1.421875 24.3125 -1.421875 
Q 15.921875 -1.421875 10.953125 3.296875 
Q 6 8.015625 6 15.921875 
Q 6 25.140625 12.171875 29.828125 
Q 18.359375 34.515625 30.609375 34.515625 
L 43.21875 34.515625 
L 43.21875 35.40625 
Q 43.21875 41.609375 39.140625 45 
Q 35.0625 48.390625 27.6875 48.390625 
Q 23 48.390625 18.546875 47.265625 
Q 14.109375 46.140625 10.015625 43.890625 
L 10.015625 52.203125 
Q 14.9375 54.109375 19.578125 55.046875 
Q 24.21875 56 28.609375 56 
Q 40.484375 56 46.34375 49.84375 
Q 52.203125 43.703125 52.203125 31.203125 
z
" id="DejaVuSans-97"/>
      <path d="M 45.40625 27.984375 
Q 45.40625 37.75 41.375 43.109375 
Q 37.359375 48.484375 30.078125 48.484375 
Q 22.859375 48.484375 18.828125 43.109375 
Q 14.796875 37.75 14.796875 27.984375 
Q 14.796875 18.265625 18.828125 12.890625 
Q 22.859375 7.515625 30.078125 7.515625 
Q 37.359375 7.515625 41.375 12.890625 
Q 45.40625 18.265625 45.40625 27.984375 
z
M 54.390625 6.78125 
Q 54.390625 -7.171875 48.1875 -13.984375 
Q 42 -20.796875 29.203125 -20.796875 
Q 24.46875 -20.796875 20.265625 -20.09375 
Q 16.0625 -19.390625 12.109375 -17.921875 
L 12.109375 -9.1875 
Q 16.0625 -11.328125 19.921875 -12.34375 
Q 23.78125 -13.375 27.78125 -13.375 
Q 36.625 -13.375 41.015625 -8.765625 
Q 45.40625 -4.15625 45.40625 5.171875 
L 45.40625 9.625 
Q 42.625 4.78125 38.28125 2.390625 
Q 33.9375 0 27.875 0 
Q 17.828125 0 11.671875 7.65625 
Q 5.515625 15.328125 5.515625 27.984375 
Q 5.515625 40.671875 11.671875 48.328125 
Q 17.828125 56 27.875 56 
Q 33.9375 56 38.28125 53.609375 
Q 42.625 51.21875 45.40625 46.390625 
L 45.40625 54.6875 
L 54.390625 54.6875 
z
" id="DejaVuSans-103"/>
      <path d="M 28.609375 0 
L 0.78125 72.90625 
L 11.078125 72.90625 
L 34.1875 11.53125 
L 57.328125 72.90625 
L 67.578125 72.90625 
L 39.796875 0 
z
" id="DejaVuSans-86"/>
     </defs>
     <g transform="translate(22.453125 250.624062)rotate(-90)scale(0.1 -0.1)">
      <use xlink:href="#DejaVuSans-118"/>
      <use x="59.179688" xlink:href="#DejaVuSans-111"/>
      <use x="120.361328" xlink:href="#DejaVuSans-108"/>
      <use x="148.144531" xlink:href="#DejaVuSans-116"/>
      <use x="187.353516" xlink:href="#DejaVuSans-97"/>
      <use x="248.632812" xlink:href="#DejaVuSans-103"/>
      <use x="312.109375" xlink:href="#DejaVuSans-101"/>
      <use x="373.632812" xlink:href="#DejaVuSans-32"/>
      <use x="405.419922" xlink:href="#DejaVuSans-91"/>
      <use x="444.433594" xlink:href="#DejaVuSans-109"/>
      <use x="541.845703" xlink:href="#DejaVuSans-86"/>
      <use x="610.253906" xlink:href="#DejaVuSans-93"/>
     </g>
    </g>
   </g>
   <g id="line2d_15">
    <path clip-path="url(#pab11fa2c25)" d="M 80.754545 151.862178 
L 88.694587 151.971354 
L 88.807555 152.007746 
L 88.85597 151.971354 
L 89.049629 147.822683 
L 89.501501 143.928756 
L 90.356831 138.870289 
L 91.228299 135.449455 
L 91.518788 134.539659 
L 91.841554 133.593471 
L 92.503224 132.356148 
L 92.583916 132.246973 
L 92.793714 132.028622 
L 92.890543 131.919446 
L 93.164894 131.555528 
L 93.423107 131.446352 
L 93.616767 131.264393 
L 93.794288 131.155217 
L 93.971809 131.00965 
L 94.326852 130.900474 
L 94.472096 130.827691 
L 95.95682 130.718515 
L 96.102064 130.645732 
L 96.908979 130.754907 
L 97.118777 130.973258 
L 98.022521 130.864083 
L 98.054798 130.827691 
L 98.135489 130.864083 
L 99.959117 130.754907 
L 100.055947 130.718515 
L 100.072085 130.754907 
L 100.136638 130.864083 
L 100.636925 131.737487 
L 101.040383 131.628311 
L 101.169489 131.59192 
L 101.363148 131.482744 
L 101.492255 131.446352 
L 101.734329 131.337177 
L 101.847297 131.264393 
L 101.863436 131.300785 
L 102.186201 131.191609 
L 102.331446 131.082434 
L 102.347584 131.118826 
L 102.379861 131.046042 
L 102.428276 131.082434 
L 102.589659 130.973258 
L 102.718765 131.00965 
L 103.041531 130.900474 
L 103.057669 130.864083 
L 103.122223 130.936866 
L 103.138361 130.936866 
L 104.09052 130.827691 
L 104.18735 130.791299 
L 104.203488 130.827691 
L 104.445563 130.718515 
L 104.590807 130.645732 
L 108.54469 130.536556 
L 108.689934 130.463772 
L 109.706647 130.354597 
L 109.819615 130.318205 
L 109.916445 130.354597 
L 109.932583 130.318205 
L 111.368891 130.42738 
L 111.530274 130.536556 
L 112.821338 130.645732 
L 112.869753 130.60934 
L 112.934306 130.645732 
L 113.305487 130.754907 
L 113.450732 130.864083 
L 113.5637 130.864083 
L 113.644391 130.936866 
L 113.692806 130.900474 
L 114.531997 130.791299 
L 114.644965 130.754907 
L 114.725657 130.791299 
L 114.757933 130.754907 
L 115.580986 130.645732 
L 115.710093 130.60934 
L 116.161965 130.500164 
L 116.30721 130.42738 
L 116.646114 130.318205 
L 116.742944 130.245421 
L 116.77522 130.281813 
L 117.356199 130.390989 
L 117.646688 130.791299 
L 117.921039 130.900474 
L 118.050146 130.936866 
L 119.05072 130.827691 
L 119.131411 130.791299 
L 119.163688 130.827691 
L 119.71239 130.718515 
L 119.857635 130.645732 
L 120.180401 130.536556 
L 120.309507 130.463772 
L 120.341784 130.536556 
L 120.422475 130.463772 
L 121.810368 130.354597 
L 121.955613 130.281813 
L 123.553304 130.390989 
L 123.682411 130.463772 
L 123.843794 130.354597 
L 125.280102 130.463772 
L 125.360793 130.536556 
L 125.39307 130.500164 
L 125.522176 130.463772 
L 126.296814 130.354597 
L 126.425921 130.281813 
L 126.555027 130.318205 
L 128.152718 130.209029 
L 128.297963 130.136246 
L 129.08874 130.02707 
L 129.137154 129.990678 
L 129.201708 130.02707 
L 129.992484 129.917895 
L 130.153867 129.808719 
L 131.07375 129.699544 
L 131.218995 129.62676 
L 133.413803 129.735935 
L 133.559047 129.917895 
L 133.591324 129.881503 
L 133.639739 129.990678 
L 133.655877 129.954286 
L 133.881813 130.063462 
L 134.107749 130.318205 
L 135.818409 130.209029 
L 135.866824 130.245421 
L 135.931377 130.209029 
L 136.915813 130.099854 
L 137.077196 129.990678 
L 137.093334 130.02707 
L 137.174025 129.954286 
L 137.206302 129.917895 
L 137.238579 129.990678 
L 137.270855 129.990678 
L 137.771142 129.881503 
L 137.835696 129.845111 
L 137.88411 129.881503 
L 138.707163 129.772327 
L 138.83627 129.735935 
L 138.900823 129.772327 
L 138.949238 129.735935 
L 140.772865 129.62676 
L 140.91811 129.553976 
L 141.240876 129.663152 
L 141.450674 129.881503 
L 142.14462 129.772327 
L 142.273727 129.735935 
L 142.386695 129.772327 
L 142.515801 129.735935 
L 142.967673 129.62676 
L 143.016088 129.590368 
L 143.080641 129.62676 
L 144.436258 129.735935 
L 144.565365 129.772327 
L 144.629918 129.735935 
L 144.662194 129.808719 
L 146.276024 129.699544 
L 146.388992 129.590368 
L 146.421269 129.62676 
L 150.536534 129.735935 
L 150.601087 129.845111 
L 150.66564 129.808719 
L 150.810885 129.735935 
L 152.537682 129.62676 
L 152.699065 129.517584 
L 153.40915 129.517584 
L 153.60281 133.666255 
L 154.054682 137.523791 
L 154.425863 139.889261 
L 154.861597 142.145555 
L 154.990703 142.691433 
L 155.265054 143.81958 
L 155.813756 145.78474 
L 156.088107 146.658144 
L 156.427012 147.677116 
L 158.71865 152.590015 
L 158.831618 152.699191 
L 159.154383 153.172285 
L 159.218937 153.28146 
L 159.428735 153.499811 
L 159.509426 153.608987 
L 159.7515 153.900122 
L 159.896745 154.009297 
L 160.138819 154.300432 
L 160.267926 154.409607 
L 160.461585 154.591567 
L 160.60683 154.700742 
L 160.80049 154.919093 
L 160.816628 154.882701 
L 160.865043 154.955485 
L 160.897319 154.955485 
L 161.090979 155.064661 
L 161.236224 155.137444 
L 161.46216 155.24662 
L 161.607404 155.319404 
L 161.897894 155.428579 
L 162.043138 155.501363 
L 162.269074 155.610538 
L 162.317489 155.683322 
L 162.398181 155.64693 
L 162.704808 155.756106 
L 162.7855 155.792498 
L 162.817777 155.756106 
L 163.318064 155.865281 
L 163.431032 155.938065 
L 163.44717 155.901673 
L 163.931319 156.010849 
L 164.060425 156.047241 
L 166.09385 155.938065 
L 166.222957 155.901673 
L 166.594138 155.792498 
L 166.707106 155.756106 
L 166.820074 155.792498 
L 166.965318 155.719714 
L 167.433329 155.610538 
L 167.578574 155.537755 
L 168.078861 155.428579 
L 168.224105 155.355795 
L 168.821222 155.24662 
L 168.950329 155.210228 
L 169.305371 155.101052 
L 169.450616 155.028269 
L 169.499031 155.028269 
L 169.611999 152.189705 
L 171.790669 152.29888 
L 171.822945 152.335272 
L 171.903637 152.29888 
L 172.048881 152.226097 
L 172.177988 152.262488 
L 173.162424 152.153313 
L 173.307668 152.080529 
L 175.115157 152.189705 
L 175.147434 152.226097 
L 175.228126 152.189705 
L 175.954349 152.29888 
L 176.083455 152.335272 
L 176.196423 152.335272 
L 176.938785 152.226097 
L 177.019476 152.262488 
L 177.067891 152.189705 
L 177.616593 152.226097 
L 177.810253 146.803711 
L 178.391231 140.435138 
L 179.149731 134.576051 
L 179.82754 130.718515 
L 180.424657 128.535004 
L 180.505348 128.425829 
L 180.715146 127.989127 
L 180.989497 127.625208 
L 181.102465 127.516033 
L 181.24771 127.443249 
L 181.425231 127.334074 
L 181.667305 127.042939 
L 182.135316 126.933763 
L 182.248284 126.897371 
L 182.296699 126.933763 
L 182.345114 126.86098 
L 182.506497 126.751804 
L 182.651741 126.67902 
L 182.780848 126.569845 
L 182.909954 126.497061 
L 182.974507 126.569845 
L 183.03906 126.533453 
L 183.248858 126.424277 
L 183.442518 126.242318 
L 183.507071 126.133143 
L 183.716869 125.914792 
L 183.89439 125.805616 
L 184.184879 125.405306 
L 184.233294 125.441698 
L 184.297847 125.405306 
L 184.539922 125.114171 
L 184.846549 125.004995 
L 184.927241 124.859428 
L 184.991794 124.932212 
L 185.104762 124.823036 
L 185.250007 124.641077 
L 185.31456 124.677469 
L 185.346837 124.641077 
L 185.669602 124.167983 
L 185.750294 124.058807 
L 186.411964 122.311999 
L 186.428102 122.093648 
L 186.444241 119.837353 
L 186.492656 70.380834 
L 186.573347 96.255437 
L 186.73473 125.660049 
L 186.944528 126.606237 
L 188.090347 131.264393 
L 188.187177 131.373569 
L 188.348559 131.628311 
L 188.445389 131.737487 
L 188.622911 131.883054 
L 188.703602 131.99223 
L 188.897262 132.174189 
L 190.204463 132.065014 
L 190.365846 131.955838 
L 190.591783 131.846663 
L 190.720889 131.810271 
L 191.140485 131.701095 
L 191.301868 131.59192 
L 191.527804 131.482744 
L 191.673048 131.40996 
L 192.350857 131.300785 
L 192.544516 131.118826 
L 192.576793 131.155217 
L 192.625208 131.082434 
L 192.657484 131.118826 
L 193.335293 131.00965 
L 193.480537 130.936866 
L 193.916271 130.827691 
L 194.077654 130.718515 
L 194.642495 130.60934 
L 194.787739 130.536556 
L 194.965261 130.42738 
L 195.126643 130.318205 
L 195.465548 130.209029 
L 195.610792 130.136246 
L 196.094941 130.02707 
L 196.256324 129.881503 
L 196.353154 129.917895 
L 196.369292 129.881503 
L 197.498973 129.990678 
L 197.676494 130.136246 
L 197.950845 130.245421 
L 198.112228 130.354597 
L 198.693207 130.245421 
L 198.85459 130.136246 
L 199.145079 130.02707 
L 199.338739 129.845111 
L 199.790611 129.735935 
L 199.951994 129.62676 
L 200.532972 129.517584 
L 200.662079 129.408409 
L 200.678217 129.444801 
L 200.952568 129.335625 
L 201.113951 129.22645 
L 201.372164 129.117274 
L 201.50127 129.080882 
L 201.791759 128.971707 
L 201.840174 128.935315 
L 201.872451 129.008098 
L 201.904727 128.971707 
L 202.437291 128.862531 
L 202.614812 128.680572 
L 202.630951 128.716964 
L 202.695504 128.64418 
L 202.711642 128.64418 
L 203.1151 128.535004 
L 203.244206 128.498613 
L 203.357174 128.535004 
L 203.454004 128.498613 
L 203.470142 128.535004 
L 204.083397 128.64418 
L 204.14795 128.680572 
L 204.196365 128.64418 
L 204.325472 128.607788 
L 204.454578 128.64418 
L 204.583684 128.607788 
L 204.599823 128.64418 
L 204.664376 128.535004 
L 206.052269 128.64418 
L 206.213652 128.753356 
L 206.600971 128.862531 
L 206.746216 128.935315 
L 208.230939 128.826139 
L 208.40846 128.680572 
L 208.989439 128.571396 
L 209.118545 128.535004 
L 209.409035 128.425829 
L 209.554279 128.353045 
L 209.715662 128.24387 
L 209.860907 128.171086 
L 211.329492 128.06191 
L 211.474737 127.989127 
L 211.91047 127.879951 
L 212.039577 127.770776 
L 212.055715 127.807168 
L 212.29779 127.916343 
L 212.378481 127.952735 
L 212.410758 127.916343 
L 212.475311 127.843559 
L 212.523726 127.916343 
L 213.960034 127.807168 
L 214.073002 127.697992 
L 214.105279 127.734384 
L 214.589427 127.625208 
L 214.734672 127.552425 
L 216.025736 127.443249 
L 216.235534 127.224898 
L 216.558299 127.115722 
L 216.687406 127.079331 
L 218.236682 127.188506 
L 218.398065 127.297682 
L 219.898927 127.406857 
L 220.157139 127.734384 
L 221.367511 127.625208 
L 221.496618 127.588816 
L 221.900075 127.479641 
L 222.04532 127.334074 
L 222.14215 127.224898 
L 222.271256 127.188506 
L 222.400362 127.224898 
L 222.884511 127.115722 
L 223.045894 127.006547 
L 223.27183 126.897371 
L 223.449352 126.751804 
L 223.707564 126.642628 
L 223.917362 126.424277 
L 224.498341 126.533453 
L 224.611309 126.533453 
L 224.837245 126.642628 
L 224.934075 126.715412 
L 224.966351 126.67902 
L 226.063755 126.569845 
L 226.338106 126.205926 
L 226.951362 126.096751 
L 226.9675 126.060359 
L 227.048191 126.133143 
L 227.43551 126.023967 
L 227.596893 125.914792 
L 228.565191 125.805616 
L 228.710436 125.732832 
L 229.097755 125.623657 
L 229.259138 125.514481 
L 229.420521 125.405306 
L 229.517351 125.332522 
L 229.549627 125.368914 
L 230.953659 125.259738 
L 231.260286 124.823036 
L 231.437808 124.713861 
L 231.954233 123.804064 
L 231.970371 123.840456 
L 232.034925 123.731281 
L 232.164031 122.93066 
L 232.180169 121.584162 
L 232.244722 69.980523 
L 232.309276 94.144709 
L 232.470659 125.259738 
L 232.535212 125.550873 
L 232.599765 125.478089 
L 232.74501 125.368914 
L 233.051637 126.315102 
L 233.568063 128.134694 
L 234.568637 130.136246 
L 234.697743 130.245421 
L 234.907541 130.463772 
L 235.085062 130.572948 
L 235.262584 130.718515 
L 235.440105 130.827691 
L 235.58535 130.900474 
L 235.908115 131.00965 
L 236.037222 131.046042 
L 236.24702 131.155217 
L 236.424541 131.300785 
L 237.392839 131.191609 
L 237.538083 131.118826 
L 237.57036 131.155217 
L 237.634913 131.118826 
L 237.812434 130.973258 
L 238.1352 130.864083 
L 238.296583 130.754907 
L 238.667764 130.645732 
L 238.79687 130.60934 
L 239.103498 130.500164 
L 239.264881 130.390989 
L 239.393987 130.281813 
L 239.539232 130.209029 
L 240.491391 130.099854 
L 240.636636 130.02707 
L 241.153061 129.917895 
L 241.266029 129.881503 
L 241.395136 129.917895 
L 241.63721 129.808719 
L 241.798593 129.699544 
L 242.169774 129.663152 
L 242.363433 134.976361 
L 242.799167 139.379775 
L 243.234901 142.327514 
L 243.654497 144.474633 
L 243.783603 145.020511 
L 244.445274 147.495157 
L 244.751901 148.441345 
L 245.074667 149.423924 
L 245.123082 149.5331 
L 246.333454 152.007746 
L 246.398007 152.116921 
L 246.769188 152.699191 
L 246.84988 152.808366 
L 247.156507 153.245068 
L 247.269475 153.354244 
L 247.527688 153.68177 
L 247.656794 153.790946 
L 247.915007 154.118473 
L 248.044113 154.227648 
L 248.27005 154.482391 
L 248.463709 154.591567 
L 248.673507 154.809918 
L 248.883305 154.919093 
L 249.060826 155.064661 
L 249.270624 155.173836 
L 249.415868 155.24662 
L 249.722496 155.355795 
L 249.867741 155.428579 
L 250.303475 155.537755 
L 250.416443 155.610538 
L 250.432581 155.574146 
L 250.884453 155.683322 
L 251.01356 155.719714 
L 253.611825 155.610538 
L 253.75707 155.537755 
L 254.741506 155.428579 
L 254.789921 155.355795 
L 254.854474 155.428579 
L 255.516144 155.319404 
L 255.64525 155.283012 
L 256.113261 155.173836 
L 256.193952 155.137444 
L 256.226229 155.173836 
L 256.629686 155.064661 
L 256.758793 155.028269 
L 257.129974 154.919093 
L 257.275218 154.84631 
L 258.01758 154.737134 
L 258.146686 154.66435 
L 258.259654 154.66435 
L 258.372622 152.553623 
L 264.392206 152.662799 
L 264.521313 152.699191 
L 266.377217 152.699191 
L 266.570876 144.547417 
L 267.151855 134.976361 
L 268.265397 123.658497 
L 268.507472 122.457566 
L 268.846376 119.873745 
L 268.910929 69.834956 
L 268.991621 101.714214 
L 269.153004 125.587265 
L 269.18528 125.69644 
L 269.233695 125.550873 
L 269.395078 125.259738 
L 269.653291 125.587265 
L 269.830812 125.69644 
L 270.008333 125.842008 
L 270.282684 125.951183 
L 270.395652 126.023967 
L 270.411791 125.987575 
L 271.654439 125.8784 
L 271.880375 125.623657 
L 272.041758 125.514481 
L 272.283833 125.186955 
L 272.396801 125.186955 
L 272.542046 125.077779 
L 272.816397 124.713861 
L 272.913226 124.604685 
L 273.139162 124.349942 
L 273.413513 124.459118 
L 273.607173 124.641077 
L 273.962215 124.531901 
L 274.123598 124.422726 
L 274.284981 124.31355 
L 274.543194 123.876848 
L 274.575471 123.91324 
L 275.172588 123.804064 
L 275.366247 123.622105 
L 275.543768 123.51293 
L 275.753566 123.185403 
L 275.785843 123.221795 
L 275.914949 123.112619 
L 276.076332 122.894268 
L 276.108609 122.93066 
L 276.221577 122.821485 
L 276.415236 122.457566 
L 276.512066 122.348391 
L 277.206013 120.528798 
L 277.286704 119.691786 
L 277.351257 68.706809 
L 277.431949 96.291828 
L 277.593332 124.240767 
L 277.754715 124.786644 
L 278.255002 126.169534 
L 278.497076 126.751804 
L 278.868257 127.406857 
L 278.884396 127.370465 
L 278.997364 127.479641 
L 279.174885 127.625208 
L 279.481512 127.734384 
L 279.562204 127.770776 
L 279.594481 127.734384 
L 279.739725 127.6616 
L 280.014076 127.552425 
L 280.240012 127.297682 
L 280.804853 127.188506 
L 280.885544 127.224898 
L 280.917821 127.188506 
L 281.563353 127.079331 
L 281.708597 126.970155 
L 281.837704 127.006547 
L 282.337991 126.897371 
L 282.515512 126.751804 
L 282.999661 126.642628 
L 283.144905 126.569845 
L 283.85499 126.460669 
L 284.032512 126.315102 
L 284.161618 126.205926 
L 284.306863 126.060359 
L 284.323001 126.096751 
L 284.484384 125.987575 
L 284.726458 125.69644 
L 285.049224 125.587265 
L 285.27516 125.332522 
L 285.46882 125.223346 
L 285.662479 125.004995 
L 285.678618 125.041387 
L 285.743171 124.968604 
L 285.759309 124.968604 
L 285.936831 124.859428 
L 286.03366 124.786644 
L 286.065937 124.823036 
L 286.162767 124.713861 
L 286.308011 124.604685 
L 286.453256 124.677469 
L 287.486107 124.568293 
L 287.631352 124.495509 
L 287.808873 124.386334 
L 288.083224 124.022415 
L 288.373713 123.91324 
L 288.486681 123.840456 
L 288.502819 123.876848 
L 288.77717 123.767673 
L 288.97083 123.585713 
L 289.16449 123.767673 
L 289.212904 123.731281 
L 289.261319 123.804064 
L 289.616362 123.694889 
L 289.82616 123.476538 
L 290.035957 123.367362 
L 290.391 122.821485 
L 290.746042 122.712309 
L 290.939702 122.53035 
L 291.214053 122.421174 
L 292.069383 120.346839 
L 292.101659 119.218692 
L 292.166212 68.852376 
L 292.230766 91.051402 
L 292.408287 123.986024 
L 292.553532 124.277158 
L 292.698776 124.386334 
L 293.537968 126.023967 
L 293.602521 126.133143 
L 293.860733 126.460669 
L 293.941425 126.569845 
L 294.135084 126.751804 
L 294.667648 126.86098 
L 294.829031 126.970155 
L 295.11952 127.079331 
L 295.21635 127.115722 
L 295.232489 127.079331 
L 295.635946 126.970155 
L 295.829605 126.788196 
L 296.087818 126.67902 
L 296.281478 126.497061 
L 296.555829 126.387886 
L 296.571967 126.351494 
L 296.652659 126.387886 
L 296.862456 126.606237 
L 297.378882 126.497061 
L 297.540265 126.387886 
L 297.782339 126.27871 
L 297.975999 126.096751 
L 298.121243 125.987575 
L 298.282626 125.8784 
L 298.395594 125.769224 
L 298.573116 125.623657 
L 298.750637 125.514481 
L 299.00885 125.186955 
L 299.154094 125.077779 
L 299.347754 124.823036 
L 299.363892 124.859428 
L 300.057839 124.750252 
L 300.170807 124.641077 
L 300.186945 124.677469 
L 300.219222 124.713861 
L 300.267637 124.641077 
L 300.283775 124.641077 
L 300.8002 124.531901 
L 300.913168 124.495509 
L 300.945445 124.531901 
L 300.977722 124.459118 
L 301.009998 124.459118 
L 301.122966 124.349942 
L 301.284349 124.240767 
L 302.252647 124.349942 
L 302.284924 124.386334 
L 302.365615 124.349942 
L 302.656104 124.240767 
L 302.720658 124.277158 
L 302.769072 124.240767 
L 302.898179 124.131591 
L 303.059562 124.022415 
L 303.17253 123.91324 
L 303.366189 123.731281 
L 303.575987 123.622105 
L 303.73737 123.51293 
L 303.963306 123.440146 
L 304.108551 123.294579 
L 304.30221 123.112619 
L 304.431317 123.149011 
L 304.576561 123.039836 
L 304.705668 123.003444 
L 304.770221 122.894268 
L 304.818636 122.857876 
L 304.883189 122.894268 
L 304.931604 122.785093 
L 305.141402 122.493958 
L 305.15754 122.53035 
L 305.222093 122.421174 
L 305.399615 122.275607 
L 305.528721 122.166431 
L 305.932178 121.511378 
L 305.964455 121.438594 
L 306.351774 119.255084 
L 306.416327 69.034335 
L 306.497019 96.401004 
L 306.658402 123.804064 
L 306.739093 124.095199 
L 306.787508 124.022415 
L 306.965029 123.876848 
L 307.23938 123.986024 
L 307.836497 125.077779 
L 307.917189 125.186955 
L 308.078572 125.29613 
L 308.126986 125.405306 
L 308.320646 125.769224 
L 308.530444 125.8784 
L 308.65955 125.914792 
L 310.967326 125.805616 
L 311.112571 125.732832 
L 311.209401 125.623657 
L 311.435337 125.368914 
L 311.645135 125.259738 
L 311.790379 125.186955 
L 312.306805 125.077779 
L 312.484326 124.932212 
L 312.645709 124.823036 
L 312.742539 124.750252 
L 312.774815 124.786644 
L 312.952337 124.677469 
L 313.11372 124.568293 
L 313.67856 124.459118 
L 313.743113 124.495509 
L 313.856081 124.31355 
L 314.469336 124.204375 
L 314.679134 123.986024 
L 314.840517 123.876848 
L 314.969624 123.840456 
L 315.082592 123.731281 
L 315.292389 123.51293 
L 315.631294 123.403754 
L 315.776538 123.33097 
L 316.034751 123.440146 
L 316.631868 124.531901 
L 316.777113 124.459118 
L 317.18057 124.349942 
L 317.2774 124.31355 
L 317.293538 124.349942 
L 317.890655 124.240767 
L 318.229559 123.731281 
L 318.342527 123.658497 
L 318.520049 123.367362 
L 318.939644 122.675917 
L 319.052612 122.566742 
L 319.230133 122.275607 
L 319.278548 122.311999 
L 319.35924 122.202823 
L 319.714282 121.14746 
L 319.843389 120.274055 
L 319.859527 119.946529 
L 319.891804 95.454816 
L 319.92408 69.507429 
L 319.988633 86.720773 
L 320.166155 122.93066 
L 320.246846 123.258187 
L 320.295261 123.149011 
L 320.424367 123.258187 
L 320.618027 123.440146 
L 320.650303 123.403754 
L 320.68258 123.476538 
L 320.698718 123.476538 
L 320.860101 123.585713 
L 320.940793 123.694889 
L 321.34425 124.349942 
L 321.505633 124.459118 
L 321.667016 124.568293 
L 321.941367 124.677469 
L 322.118888 124.823036 
L 322.409378 124.932212 
L 322.554622 125.004995 
L 322.780558 125.114171 
L 323.022633 125.405306 
L 323.877963 125.29613 
L 324.023207 125.150563 
L 324.039345 125.186955 
L 325.895249 125.077779 
L 326.040494 125.004995 
L 326.250292 124.89582 
L 326.476228 124.641077 
L 326.605334 124.531901 
L 326.798994 124.349942 
L 327.041068 124.240767 
L 327.202451 124.131591 
L 327.78343 124.022415 
L 327.960951 123.876848 
L 328.219164 123.767673 
L 328.428962 123.549321 
L 328.558068 123.440146 
L 328.622621 123.33097 
L 328.687174 123.403754 
L 329.252015 123.294579 
L 329.461813 123.076227 
L 329.897547 122.967052 
L 329.9621 122.821485 
L 330.026653 122.93066 
L 330.091206 123.003444 
L 330.139621 122.93066 
L 330.268727 122.821485 
L 330.446249 122.675917 
L 330.769015 122.566742 
L 330.914259 122.421174 
L 330.930398 122.457566 
L 331.124057 130.791299 
L 331.495238 136.686778 
L 332.076216 141.999988 
L 332.786301 146.075875 
L 333.56094 149.060006 
L 333.609355 149.169181 
L 333.899844 149.969802 
L 334.948833 152.080529 
L 335.013386 152.189705 
L 335.336152 152.662799 
L 335.384567 152.771974 
L 335.836439 153.536203 
L 335.917131 153.645379 
L 336.191482 154.009297 
L 336.30445 154.118473 
L 336.530386 154.373216 
L 336.707907 154.482391 
L 336.86929 154.591567 
L 336.998396 154.700742 
L 337.143641 154.84631 
L 337.305024 154.955485 
L 337.498684 155.137444 
L 337.708481 155.24662 
L 337.886003 155.392187 
L 338.128077 155.501363 
L 338.28946 155.610538 
L 338.579949 155.719714 
L 338.709056 155.756106 
L 340.855449 155.64693 
L 341.000694 155.574146 
L 341.210492 155.464971 
L 341.355736 155.392187 
L 341.662364 155.283012 
L 341.69464 155.24662 
L 341.775332 155.283012 
L 343.11481 155.173836 
L 343.163225 155.137444 
L 343.227778 155.173836 
L 344.228353 155.064661 
L 344.357459 155.028269 
L 345.567831 154.919093 
L 345.616246 154.84631 
L 345.696938 154.882701 
L 346.068118 154.773526 
L 346.181086 154.700742 
L 346.197225 154.737134 
L 346.568406 154.627958 
L 346.681374 154.627958 
L 354.863489 154.518783 
L 354.992596 154.482391 
L 355.13784 154.445999 
L 355.3315 138.469979 
L 355.79951 122.275607 
L 355.89634 116.270952 
L 355.944755 67.797012 
L 356.009308 92.033982 
L 356.154553 121.54777 
L 356.170691 121.474986 
L 356.364351 118.745598 
L 356.800085 113.832698 
L 356.864638 68.888768 
L 356.945329 91.524496 
L 357.122851 118.745598 
L 357.284234 119.400651 
L 357.494031 119.619002 
L 357.542446 119.58261 
L 357.590861 119.619002 
L 357.703829 119.764569 
L 357.719968 119.728178 
L 357.897489 119.619002 
L 358.187978 119.218692 
L 358.252531 119.145908 
L 358.526882 118.418071 
L 358.817372 117.544667 
L 359.156276 115.070021 
L 359.172414 113.46878 
L 359.236967 67.433094 
L 359.30152 85.701801 
L 359.49518 118.854773 
L 359.672701 119.910137 
L 359.898637 120.237663 
L 359.914776 120.201272 
L 360.334371 120.092096 
L 360.592584 119.764569 
L 360.608722 119.800961 
L 360.657137 119.728178 
L 360.81852 119.509827 
L 360.963765 119.437043 
L 361.076733 119.327867 
L 361.221978 119.255084 
L 361.351084 119.145908 
L 361.657712 118.709206 
L 361.851371 118.60003 
L 362.077307 118.345287 
L 362.093446 118.381679 
L 362.14186 118.272504 
L 362.319382 117.981369 
L 362.545318 117.726626 
L 362.642148 117.61745 
L 363.303818 116.270952 
L 363.336094 116.307344 
L 363.384509 116.198168 
L 363.56203 114.378576 
L 363.626584 66.96 
L 363.707275 90.105214 
L 363.884796 118.381679 
L 364.046179 119.327867 
L 364.288254 119.437043 
L 364.352807 119.546218 
L 364.433498 119.509827 
L 364.449637 119.473435 
L 364.530328 119.546218 
L 365.014477 119.437043 
L 365.353381 118.927557 
L 365.611594 118.854773 
L 365.821392 118.418071 
L 366.273264 117.653842 
L 366.370094 117.763018 
L 366.40237 117.690234 
L 366.773551 117.107965 
L 366.805828 117.144356 
L 366.838104 117.035181 
L 366.967211 116.889614 
L 366.999487 116.926005 
L 367.015626 116.962397 
L 367.06404 116.889614 
L 367.080179 116.889614 
L 367.225423 116.81683 
L 367.306115 116.707654 
L 367.677296 115.615899 
L 367.983923 114.233009 
L 368.0162 96.837706 
L 368.064615 67.469486 
L 368.129168 84.864789 
L 368.338966 118.017761 
L 368.516487 118.854773 
L 368.694008 119.036733 
L 368.806976 119.000341 
L 368.952221 119.073124 
L 369.000636 119.000341 
L 369.081327 119.036733 
L 369.194295 119.109516 
L 369.210434 119.073124 
L 369.630029 118.963949 
L 369.855966 118.709206 
L 370.00121 118.60003 
L 370.679019 117.326316 
L 370.95337 117.21714 
L 371.211582 116.81683 
L 371.227721 116.853222 
L 371.372965 116.744046 
L 371.389104 116.707654 
L 371.469795 116.780438 
L 371.566625 116.889614 
L 371.679593 116.962397 
L 371.695731 116.926005 
L 371.937806 116.81683 
L 372.066912 116.780438 
L 372.131465 116.671262 
L 372.292848 116.452911 
L 372.357401 116.343736 
L 372.551061 115.943426 
L 372.567199 115.979817 
L 372.615614 115.870642 
L 372.825412 115.215589 
L 372.922242 113.687131 
L 372.986795 67.251135 
L 373.067486 87.048299 
L 373.261146 117.180748 
L 373.454805 117.981369 
L 373.69688 118.272504 
L 374.148752 118.163328 
L 374.406965 117.835802 
L 374.487656 117.726626 
L 374.616763 117.653842 
L 374.713592 117.690234 
L 374.729731 117.653842 
L 374.874975 117.544667 
L 375.068635 117.362708 
L 375.423677 117.253532 
L 375.843273 116.525695 
L 375.891688 116.598479 
L 375.940103 116.489303 
L 376.149901 116.23456 
L 376.182177 116.270952 
L 376.262869 116.23456 
L 376.34356 116.125385 
L 376.698603 115.543115 
L 376.779294 115.579507 
L 376.795432 115.543115 
L 377.118198 114.560535 
L 377.182752 113.796307 
L 377.215028 100.586066 
L 377.263443 67.54227 
L 377.327996 82.426535 
L 377.537794 116.307344 
L 377.683039 117.253532 
L 377.699177 117.21714 
L 377.95739 117.544667 
L 378.151049 117.653842 
L 378.280156 117.726626 
L 378.4254 117.61745 
L 378.441539 117.653842 
L 378.473815 117.581059 
L 378.52223 117.581059 
L 378.651336 117.471883 
L 378.925687 117.107965 
L 379.216177 116.998789 
L 379.474389 116.671262 
L 379.716464 116.562087 
L 379.974677 116.23456 
L 380.055368 116.125385 
L 380.394272 115.615899 
L 380.862283 115.543115 
L 381.055942 115.179197 
L 381.185049 115.070021 
L 381.523953 113.104862 
L 381.55623 110.775783 
L 381.620783 67.396702 
L 381.685336 82.062616 
L 381.911272 116.780438 
L 382.104932 117.61745 
L 382.234038 117.726626 
L 382.411559 117.872193 
L 382.863431 117.763018 
L 383.008676 117.653842 
L 383.153921 117.726626 
L 383.379857 117.835802 
L 383.395995 117.872193 
L 383.44441 117.79941 
L 383.460548 117.79941 
L 383.670346 117.581059 
L 383.751038 117.471883 
L 383.976974 117.21714 
L 384.186772 117.107965 
L 384.396569 116.889614 
L 384.76775 116.780438 
L 384.896857 116.634871 
L 384.929133 116.671262 
L 385.187346 116.562087 
L 385.300314 116.452911 
L 385.332591 116.489303 
L 385.364867 116.562087 
L 385.42942 116.489303 
L 386.123367 114.706103 
L 386.317027 112.668159 
L 386.38158 68.160931 
L 386.47841 89.741296 
L 386.672069 116.161777 
L 386.833452 116.853222 
L 386.84959 116.81683 
L 386.898005 116.962397 
L 387.107803 117.253532 
L 387.123941 117.21714 
L 387.285324 117.326316 
L 387.398292 117.399099 
L 387.414431 117.362708 
L 387.559675 117.253532 
L 387.721058 117.144356 
L 387.89858 117.035181 
L 387.963133 116.998789 
L 387.979271 117.035181 
L 388.140654 117.326316 
L 388.318175 117.180748 
L 388.415005 117.21714 
L 388.431143 117.180748 
L 388.753909 117.071573 
L 389.012122 116.744046 
L 389.173505 116.634871 
L 390.077249 114.342184 
L 390.319324 112.195065 
L 390.3516 94.472236 
L 390.400015 67.978972 
L 390.464568 82.644886 
L 390.674366 115.361156 
L 390.835749 116.270952 
L 390.916441 116.380128 
L 391.158515 116.671262 
L 391.287622 116.598479 
L 391.836324 116.489303 
L 392.013845 116.343736 
L 392.110675 116.23456 
L 392.417302 115.797858 
L 392.514132 115.688683 
L 392.691653 115.361156 
L 392.756206 115.288372 
L 393.111249 114.196617 
L 393.208079 114.087441 
L 393.434015 113.577956 
L 393.48243 113.46878 
L 393.627674 112.88651 
L 393.724504 111.758363 
L 393.756781 98.038637 
L 393.805196 68.233715 
L 393.869749 80.097457 
L 394.111823 115.070021 
L 394.305483 116.198168 
L 394.515281 116.634871 
L 394.70894 116.81683 
L 394.967153 116.926005 
L 395.015568 116.998789 
L 395.080121 116.962397 
L 395.386749 116.525695 
L 395.612685 116.41652 
L 395.757929 116.23456 
L 395.903174 116.125385 
L 396.080695 115.979817 
L 396.12911 115.870642 
L 396.645536 114.960846 
L 396.758504 114.85167 
L 397.048993 114.305792 
L 397.097408 114.342184 
L 397.129684 114.378576 
L 397.161961 114.305792 
L 397.533142 112.122282 
L 397.565418 109.829595 
L 397.629972 68.34289 
L 397.710663 84.173343 
L 397.936599 114.815278 
L 398.130259 115.943426 
L 398.194812 116.052601 
L 398.501439 116.489303 
L 399.276078 116.380128 
L 399.485875 116.161777 
L 399.647258 116.052601 
L 399.744088 115.979817 
L 399.776365 116.016209 
L 400.131407 115.907034 
L 400.712386 114.85167 
L 400.793077 114.742495 
L 401.406333 111.540012 
L 401.487024 68.34289 
L 401.583854 89.340986 
L 401.777513 114.160225 
L 401.955035 115.324764 
L 402.245524 116.125385 
L 402.907194 116.016209 
L 403.13313 115.725074 
L 403.149268 115.761466 
L 403.197683 115.688683 
L 403.213822 115.688683 
L 403.407481 115.506723 
L 403.536588 115.543115 
L 404.585577 115.43394 
L 404.730821 115.142805 
L 404.795375 115.215589 
L 405.134279 115.106413 
L 405.360215 114.85167 
L 405.424768 114.742495 
L 405.50546 114.596927 
L 405.553874 114.633319 
L 405.682981 114.560535 
L 406.263959 111.467228 
L 406.296236 109.975163 
L 406.376928 68.815984 
L 406.441481 83.008804 
L 406.667417 114.487752 
L 406.861076 115.797858 
L 407.280672 116.489303 
L 407.458193 116.380128 
L 407.603438 116.307344 
L 408.15214 116.41652 
L 408.281246 116.452911 
L 408.426491 116.343736 
L 408.555597 116.198168 
L 408.587874 116.23456 
L 408.652427 116.125385 
L 408.846087 115.725074 
L 408.926778 115.615899 
L 409.088161 115.397548 
L 409.233406 115.288372 
L 409.927352 113.978266 
L 410.088735 114.087441 
L 410.13715 114.05105 
L 410.169427 114.123833 
L 410.185565 114.123833 
L 410.42764 114.014658 
L 410.927927 112.704551 
L 411.08931 110.775783 
L 411.121586 101.859781 
L 411.186139 68.815984 
L 411.250693 82.390143 
L 411.476629 114.414968 
L 411.65415 115.688683 
L 411.912363 116.343736 
L 412.525618 116.23456 
L 412.590171 116.198168 
L 412.622448 116.270952 
L 412.703139 116.41652 
L 412.767692 116.380128 
L 412.97749 116.161777 
L 413.251841 116.052601 
L 413.477777 115.725074 
L 413.493916 115.761466 
L 413.623022 115.83425 
L 413.816682 115.652291 
L 413.92965 115.579507 
L 414.187862 114.924454 
L 414.365384 114.815278 
L 414.413799 114.85167 
L 414.639735 114.45136 
L 414.817256 114.342184 
L 415.123884 113.432388 
L 415.398235 110.957743 
L 415.446649 79.951889 
L 415.478926 68.706809 
L 415.543479 80.679726 
L 415.785554 114.487752 
L 415.979213 115.652291 
L 416.205149 116.161777 
L 416.414947 116.380128 
L 416.544053 116.343736 
L 416.818405 116.23456 
L 417.028202 116.016209 
L 417.173447 115.907034 
L 417.367107 115.725074 
L 417.43166 115.615899 
L 417.818979 114.997238 
L 417.89967 114.888062 
L 418.125606 114.633319 
L 418.270851 114.524144 
L 418.56134 114.123833 
L 418.577479 114.160225 
L 418.625894 114.087441 
L 418.642032 114.087441 
L 419.126181 112.740943 
L 419.335979 111.066918 
L 419.368255 104.261643 
L 419.432808 68.779592 
L 419.497362 81.043645 
L 419.787851 124.495509 
L 420.046064 133.156769 
L 420.433383 139.525342 
L 420.83684 143.492053 
L 421.224159 146.003091 
L 421.627616 148.004642 
L 421.788999 148.623304 
L 422.273148 150.297329 
L 423.967669 153.86373 
L 424.064499 153.972905 
L 424.354988 154.373216 
L 424.43568 154.482391 
L 424.677754 154.773526 
L 424.806861 154.882701 
L 425.032797 155.137444 
L 425.113488 155.24662 
L 425.307148 155.428579 
L 425.420116 155.537755 
L 425.597637 155.683322 
L 425.839712 155.792498 
L 426.017233 155.938065 
L 426.227031 156.047241 
L 426.42069 156.2292 
L 426.743456 156.338375 
L 426.904839 156.447551 
L 427.17919 156.556726 
L 427.340573 156.665902 
L 428.228179 156.775077 
L 428.357286 156.811469 
L 432.036817 156.702294 
L 432.165923 156.665902 
L 433.392434 156.556726 
L 433.52154 156.520335 
L 434.74805 156.411159 
L 434.877157 156.374767 
L 435.635657 156.265592 
L 435.732486 156.2292 
L 435.748625 156.265592 
L 435.780901 156.265592 
L 435.780901 156.265592 
" style="fill:none;stroke:#1f77b4;stroke-linecap:square;stroke-width:1.5;"/>
   </g>
   <g id="line2d_16">
    <path clip-path="url(#pab11fa2c25)" d="M 80.754545 152.983047 
L 81.706705 149.882578 
L 82.723417 147.385806 
L 83.417364 146.059163 
L 84.192002 144.859222 
L 85.208715 143.636922 
L 86.806406 142.310279 
L 88.904385 141.281758 
L 89.888821 129.55811 
L 91.131469 118.065507 
L 91.583342 112.89309 
L 91.744724 108.473431 
L 91.777001 106.043737 
L 91.889969 137.309282 
L 92.002937 137.309282 
L 92.874405 165.452 
L 93.697458 185.530517 
L 94.520511 200.667662 
L 95.279011 211.161557 
L 96.053649 219.15868 
L 96.812149 224.875169 
L 97.651341 229.257563 
L 98.329149 231.612726 
L 98.958542 233.036259 
L 99.797734 234.012609 
L 100.427127 234.184029 
L 100.846723 234.079686 
L 101.44384 233.684674 
L 102.170063 232.864839 
L 103.106084 231.381682 
L 104.38101 228.795474 
L 106.511265 223.600698 
L 114.564274 201.606746 
L 115.371189 199.467721 
L 117.227093 194.645598 
L 118.518156 191.388615 
L 119.599422 188.71297 
L 127.152144 171.548595 
L 128.152718 169.469194 
L 129.185569 167.359981 
L 130.944643 163.879406 
L 131.687005 162.440968 
L 137.432238 152.058869 
L 138.045493 151.022895 
L 139.288142 148.9584 
L 140.078919 147.676475 
L 141.01494 146.178412 
L 142.096205 144.494023 
L 142.854705 143.323894 
L 144.61378 140.70042 
L 145.227035 139.798601 
L 152.037395 130.549366 
L 152.473129 129.99784 
L 153.457565 128.753181 
L 154.345172 138.099306 
L 155.378022 146.193318 
L 156.330182 151.641498 
L 157.088682 154.928293 
L 158.040841 158.028762 
L 158.863894 159.988914 
L 159.444873 161.062153 
L 160.832766 162.798714 
L 161.688096 163.439676 
L 163.205096 164.021014 
L 166.174542 163.916672 
L 166.690967 163.797423 
L 167.110563 163.69308 
L 167.836786 163.476942 
L 168.175691 163.372599 
L 169.22468 163.0074 
L 169.515169 162.903057 
L 169.628137 152.625301 
L 170.483467 149.882578 
L 171.500179 147.385806 
L 172.194126 146.059163 
L 172.968764 144.859222 
L 173.985477 143.636922 
L 175.583168 142.310279 
L 177.681146 141.281758 
L 178.617167 126.412923 
L 179.650018 110.69444 
L 179.73071 106.282235 
L 179.843678 137.309282 
L 179.956646 137.309282 
L 180.844252 162.463327 
L 181.71572 180.790377 
L 182.603326 194.444365 
L 183.410241 203.455103 
L 184.233294 210.028693 
L 185.007932 214.32165 
L 185.637326 216.721532 
L 186.218305 218.234501 
L 186.92839 219.322647 
L 187.477092 219.680393 
L 187.848272 219.732564 
L 188.945676 219.106508 
L 189.494378 218.45064 
L 190.33357 217.101638 
L 191.479389 214.753927 
L 193.190048 210.528047 
L 197.660356 197.820597 
L 198.870728 194.280398 
L 208.182524 168.79842 
L 209.82863 164.721601 
L 210.748513 162.493139 
L 216.477608 149.539738 
L 217.365214 147.669022 
L 218.527172 145.261687 
L 219.947341 142.407169 
L 220.770395 140.782404 
L 228.726574 126.316033 
L 229.259138 125.391855 
L 232.147893 119.824427 
L 232.922531 117.759932 
L 233.471233 115.613453 
L 233.793999 113.437163 
L 234.003797 110.366506 
L 234.084488 106.975368 
L 234.197456 137.309282 
L 234.310424 137.309282 
L 234.439531 142.38481 
L 235.327137 174.037914 
L 236.182466 196.814435 
L 237.037796 213.695594 
L 237.876987 225.799347 
L 238.603211 233.468536 
L 239.297157 238.849638 
L 240.023381 242.83702 
L 240.620498 245.080388 
L 241.153061 246.436843 
L 241.782455 247.368475 
L 242.234327 247.666597 
L 243.05738 260.523108 
L 243.880433 270.055559 
L 244.703486 276.964537 
L 245.494263 281.667412 
L 246.139795 284.387775 
L 246.736911 286.169054 
L 247.430858 287.50315 
L 248.011837 288.129206 
L 248.802613 288.375157 
L 249.238347 288.270814 
L 249.900017 287.84599 
L 250.72307 286.936718 
L 251.852751 285.185251 
L 253.531134 281.853738 
L 257.339771 272.783376 
L 258.291931 270.3984 
L 258.404899 152.625301 
L 259.260229 149.882578 
L 260.276941 147.385806 
L 260.970888 146.059163 
L 261.745526 144.859222 
L 262.762239 143.636922 
L 264.35993 142.310279 
L 266.457908 141.281758 
L 267.426206 118.251833 
L 267.732834 109.464687 
L 267.76511 107.288396 
L 267.878078 137.309282 
L 267.991046 137.309282 
L 268.120153 140.141442 
L 268.975482 157.067319 
L 269.75012 168.440673 
L 270.557035 177.138383 
L 271.380088 183.398945 
L 272.154726 187.39378 
L 272.78412 189.547711 
L 273.365099 190.837089 
L 273.816971 191.440786 
L 274.123598 191.679284 
L 274.397949 191.791079 
L 275.05962 191.686737 
L 275.511492 191.358802 
L 276.124747 190.64331 
L 276.834832 189.473181 
L 277.786991 187.483216 
L 279.02964 184.338029 
L 281.079204 178.338324 
L 289.406564 151.790559 
L 290.520106 148.384515 
L 292.069383 143.748718 
L 300.267637 120.71134 
L 301.171381 117.417092 
L 301.65553 114.666916 
L 301.913743 111.849663 
L 302.042849 108.279652 
L 302.075126 105.857411 
L 302.188094 137.309282 
L 302.301062 137.309282 
L 303.17253 168.634452 
L 303.995583 190.755105 
L 304.818636 207.203987 
L 305.593274 218.599701 
L 306.351774 226.716073 
L 307.013444 231.821412 
L 307.691252 235.495766 
L 308.239954 237.522995 
L 308.724103 238.715483 
L 309.095284 239.304274 
L 309.482603 239.654568 
L 309.950614 239.751457 
L 310.257241 239.647115 
L 310.628422 239.363899 
L 311.741965 237.642244 
L 313.097581 234.243653 
L 315.582879 225.844066 
L 317.132155 219.874172 
L 318.552325 214.202401 
L 322.328686 198.97582 
L 324.08776 192.051936 
L 325.620898 186.14912 
L 331.011089 166.637035 
L 331.930972 184.993898 
L 332.786301 197.768426 
L 333.738461 208.254867 
L 334.577652 214.977518 
L 335.529812 220.418245 
L 336.143067 222.959735 
L 336.837014 225.106214 
L 337.789173 227.029101 
L 338.563811 227.923467 
L 339.871013 228.407915 
L 340.46813 228.303572 
L 341.759194 227.588079 
L 343.728066 225.620474 
L 347.068693 221.103926 
L 347.181661 152.625301 
L 348.03699 149.882578 
L 349.053703 147.385806 
L 349.74765 146.059163 
L 350.522288 144.859222 
L 351.539 143.636922 
L 353.136692 142.310279 
L 355.23467 141.281758 
L 355.880202 106.341859 
L 355.99317 137.309282 
L 356.138415 137.227299 
L 357.332648 133.605117 
L 359.269244 126.025364 
L 360.850797 118.199662 
L 361.351084 114.279357 
L 361.57702 110.634816 
L 361.657712 107.154241 
L 361.77068 137.309282 
L 361.883648 137.309282 
L 362.012754 141.885455 
L 362.835807 168.217082 
L 363.642722 187.192547 
L 364.41736 200.376993 
L 365.127445 209.007625 
L 365.805253 214.76138 
L 366.418509 218.264314 
L 366.951072 220.202107 
L 367.419083 221.193362 
L 367.838679 221.595827 
L 368.145306 221.625639 
L 368.629455 221.282799 
L 369.24271 220.246825 
L 369.968934 218.301579 
L 370.904955 214.902988 
L 372.131465 209.335559 
L 374.084199 198.841665 
L 375.87555 188.303052 
L 377.731454 177.026587 
L 385.090516 133.51568 
L 387.753335 118.140037 
L 388.189069 114.391153 
L 388.415005 110.627363 
L 388.495696 107.020087 
L 388.608665 137.309282 
L 388.721633 137.309282 
L 388.850739 141.803472 
L 389.68993 168.068021 
L 390.464568 185.918076 
L 391.255345 199.132334 
L 391.997707 207.882215 
L 392.675515 213.390019 
L 393.321047 216.840781 
L 393.85361 218.592248 
L 394.24093 219.345006 
L 394.628249 219.702752 
L 394.951015 219.740018 
L 395.419025 219.40463 
L 395.725653 218.972353 
L 396.064557 218.316485 
L 396.79078 216.363786 
L 397.726801 212.965195 
L 398.953312 207.405219 
L 400.970599 196.583391 
L 402.826503 185.679578 
L 411.508905 134.22372 
L 414.284692 118.24438 
L 414.784979 113.787456 
L 414.978639 110.098196 
L 415.043192 106.893385 
L 415.15616 137.309282 
L 415.269128 137.309282 
L 415.398235 141.803472 
L 416.237426 168.068021 
L 417.012064 185.918076 
L 417.802841 199.132334 
L 418.480649 207.248705 
L 419.22301 213.390019 
L 419.803989 217.414666 
L 420.659319 260.128096 
L 421.530787 292.936423 
L 422.369978 316.577499 
L 423.160755 333.272331 
L 423.983808 346.12139 
L 424.806861 355.325907 
L 425.452392 360.528136 
L 426.114063 364.359003 
L 426.808009 367.049554 
L 427.469679 368.569977 
L 427.873137 369.084237 
L 428.308871 369.337641 
L 428.59936 369.352547 
L 428.905988 369.248204 
L 429.874285 368.204777 
L 430.374572 367.325317 
L 431.052381 365.84216 
L 433.150359 359.7083 
L 434.602806 354.640226 
L 435.845455 350.019335 
L 435.845455 350.019335 
" style="fill:none;stroke:#ff0000;stroke-linecap:square;stroke-width:1.5;"/>
   </g>
   <g id="patch_3">
    <path d="M 63 384.48 
L 63 51.84 
" style="fill:none;stroke:#000000;stroke-linecap:square;stroke-linejoin:miter;stroke-width:0.8;"/>
   </g>
   <g id="patch_4">
    <path d="M 453.6 384.48 
L 453.6 51.84 
" style="fill:none;stroke:#000000;stroke-linecap:square;stroke-linejoin:miter;stroke-width:0.8;"/>
   </g>
   <g id="patch_5">
    <path d="M 63 384.48 
L 453.6 384.48 
" style="fill:none;stroke:#000000;stroke-linecap:square;stroke-linejoin:miter;stroke-width:0.8;"/>
   </g>
   <g id="patch_6">
    <path d="M 63 51.84 
L 453.6 51.84 
" style="fill:none;stroke:#000000;stroke-linecap:square;stroke-linejoin:miter;stroke-width:0.8;"/>
   </g>
   <g id="legend_1">
    <g id="patch_7">
     <path d="M 70 89.19625 
L 133.139062 89.19625 
Q 135.139062 89.19625 135.139062 87.19625 
L 135.139062 58.84 
Q 135.139062 56.84 133.139062 56.84 
L 70 56.84 
Q 68 56.84 68 58.84 
L 68 87.19625 
Q 68 89.19625 70 89.19625 
z
" style="fill:#ffffff;opacity:0.8;stroke:#cccccc;stroke-linejoin:miter;"/>
    </g>
    <g id="line2d_17">
     <path d="M 72 64.938437 
L 92 64.938437 
" style="fill:none;stroke:#1f77b4;stroke-linecap:square;stroke-width:1.5;"/>
    </g>
    <g id="line2d_18"/>
    <g id="text_17">
     <!-- target -->
     <defs>
      <path d="M 41.109375 46.296875 
Q 39.59375 47.171875 37.8125 47.578125 
Q 36.03125 48 33.890625 48 
Q 26.265625 48 22.1875 43.046875 
Q 18.109375 38.09375 18.109375 28.8125 
L 18.109375 0 
L 9.078125 0 
L 9.078125 54.6875 
L 18.109375 54.6875 
L 18.109375 46.1875 
Q 20.953125 51.171875 25.484375 53.578125 
Q 30.03125 56 36.53125 56 
Q 37.453125 56 38.578125 55.875 
Q 39.703125 55.765625 41.0625 55.515625 
z
" id="DejaVuSans-114"/>
     </defs>
     <g transform="translate(100 68.438437)scale(0.1 -0.1)">
      <use xlink:href="#DejaVuSans-116"/>
      <use x="39.208984" xlink:href="#DejaVuSans-97"/>
      <use x="100.488281" xlink:href="#DejaVuSans-114"/>
      <use x="141.585938" xlink:href="#DejaVuSans-103"/>
      <use x="205.0625" xlink:href="#DejaVuSans-101"/>
      <use x="266.585938" xlink:href="#DejaVuSans-116"/>
     </g>
    </g>
    <g id="line2d_19">
     <path d="M 72 79.616562 
L 92 79.616562 
" style="fill:none;stroke:#ff0000;stroke-linecap:square;stroke-width:1.5;"/>
    </g>
    <g id="line2d_20"/>
    <g id="text_18">
     <!-- model -->
     <defs>
      <path d="M 45.40625 46.390625 
L 45.40625 75.984375 
L 54.390625 75.984375 
L 54.390625 0 
L 45.40625 0 
L 45.40625 8.203125 
Q 42.578125 3.328125 38.25 0.953125 
Q 33.9375 -1.421875 27.875 -1.421875 
Q 17.96875 -1.421875 11.734375 6.484375 
Q 5.515625 14.40625 5.515625 27.296875 
Q 5.515625 40.1875 11.734375 48.09375 
Q 17.96875 56 27.875 56 
Q 33.9375 56 38.25 53.625 
Q 42.578125 51.265625 45.40625 46.390625 
z
M 14.796875 27.296875 
Q 14.796875 17.390625 18.875 11.75 
Q 22.953125 6.109375 30.078125 6.109375 
Q 37.203125 6.109375 41.296875 11.75 
Q 45.40625 17.390625 45.40625 27.296875 
Q 45.40625 37.203125 41.296875 42.84375 
Q 37.203125 48.484375 30.078125 48.484375 
Q 22.953125 48.484375 18.875 42.84375 
Q 14.796875 37.203125 14.796875 27.296875 
z
" id="DejaVuSans-100"/>
     </defs>
     <g transform="translate(100 83.116562)scale(0.1 -0.1)">
      <use xlink:href="#DejaVuSans-109"/>
      <use x="97.412109" xlink:href="#DejaVuSans-111"/>
      <use x="158.59375" xlink:href="#DejaVuSans-100"/>
      <use x="222.070312" xlink:href="#DejaVuSans-101"/>
      <use x="283.59375" xlink:href="#DejaVuSans-108"/>
     </g>
    </g>
   </g>
  </g>
 </g>
 <defs>
  <clipPath id="pab11fa2c25">
   <rect height="332.64" width="390.6" x="63" y="51.84"/>
  </clipPath>
 </defs>
</svg>
