<?xml version="1.0" encoding="utf-8" standalone="no"?>
<!DOCTYPE svg PUBLIC "-//W3C//DTD SVG 1.1//EN"
  "http://www.w3.org/Graphics/SVG/1.1/DTD/svg11.dtd">
<!-- Created with matplotlib (https://matplotlib.org/) -->
<svg height="432pt" version="1.1" viewBox="0 0 504 432" width="504pt" xmlns="http://www.w3.org/2000/svg" xmlns:xlink="http://www.w3.org/1999/xlink">
 <defs>
  <style type="text/css">
*{stroke-linecap:butt;stroke-linejoin:round;}
  </style>
 </defs>
 <g id="figure_1">
  <g id="patch_1">
   <path d="M 0 432 
L 504 432 
L 504 0 
L 0 0 
z
" style="fill:#ffffff;"/>
  </g>
  <g id="axes_1">
   <g id="patch_2">
    <path d="M 63 384.48 
L 453.6 384.48 
L 453.6 51.84 
L 63 51.84 
z
" style="fill:#ffffff;"/>
   </g>
   <g id="matplotlib.axis_1">
    <g id="xtick_1">
     <g id="line2d_1">
      <defs>
       <path d="M 0 0 
L 0 3.5 
" id="m89deef12f9" style="stroke:#000000;stroke-width:0.8;"/>
      </defs>
      <g>
       <use style="stroke:#000000;stroke-width:0.8;" x="80.754545" xlink:href="#m89deef12f9" y="384.48"/>
      </g>
     </g>
     <g id="text_1">
      <!-- 0 -->
      <defs>
       <path d="M 31.78125 66.40625 
Q 24.171875 66.40625 20.328125 58.90625 
Q 16.5 51.421875 16.5 36.375 
Q 16.5 21.390625 20.328125 13.890625 
Q 24.171875 6.390625 31.78125 6.390625 
Q 39.453125 6.390625 43.28125 13.890625 
Q 47.125 21.390625 47.125 36.375 
Q 47.125 51.421875 43.28125 58.90625 
Q 39.453125 66.40625 31.78125 66.40625 
z
M 31.78125 74.21875 
Q 44.046875 74.21875 50.515625 64.515625 
Q 56.984375 54.828125 56.984375 36.375 
Q 56.984375 17.96875 50.515625 8.265625 
Q 44.046875 -1.421875 31.78125 -1.421875 
Q 19.53125 -1.421875 13.0625 8.265625 
Q 6.59375 17.96875 6.59375 36.375 
Q 6.59375 54.828125 13.0625 64.515625 
Q 19.53125 74.21875 31.78125 74.21875 
z
" id="DejaVuSans-48"/>
      </defs>
      <g transform="translate(77.573295 399.078438)scale(0.1 -0.1)">
       <use xlink:href="#DejaVuSans-48"/>
      </g>
     </g>
    </g>
    <g id="xtick_2">
     <g id="line2d_2">
      <g>
       <use style="stroke:#000000;stroke-width:0.8;" x="151.772727" xlink:href="#m89deef12f9" y="384.48"/>
      </g>
     </g>
     <g id="text_2">
      <!-- 200 -->
      <defs>
       <path d="M 19.1875 8.296875 
L 53.609375 8.296875 
L 53.609375 0 
L 7.328125 0 
L 7.328125 8.296875 
Q 12.9375 14.109375 22.625 23.890625 
Q 32.328125 33.6875 34.8125 36.53125 
Q 39.546875 41.84375 41.421875 45.53125 
Q 43.3125 49.21875 43.3125 52.78125 
Q 43.3125 58.59375 39.234375 62.25 
Q 35.15625 65.921875 28.609375 65.921875 
Q 23.96875 65.921875 18.8125 64.3125 
Q 13.671875 62.703125 7.8125 59.421875 
L 7.8125 69.390625 
Q 13.765625 71.78125 18.9375 73 
Q 24.125 74.21875 28.421875 74.21875 
Q 39.75 74.21875 46.484375 68.546875 
Q 53.21875 62.890625 53.21875 53.421875 
Q 53.21875 48.921875 51.53125 44.890625 
Q 49.859375 40.875 45.40625 35.40625 
Q 44.1875 33.984375 37.640625 27.21875 
Q 31.109375 20.453125 19.1875 8.296875 
z
" id="DejaVuSans-50"/>
      </defs>
      <g transform="translate(142.228977 399.078438)scale(0.1 -0.1)">
       <use xlink:href="#DejaVuSans-50"/>
       <use x="63.623047" xlink:href="#DejaVuSans-48"/>
       <use x="127.246094" xlink:href="#DejaVuSans-48"/>
      </g>
     </g>
    </g>
    <g id="xtick_3">
     <g id="line2d_3">
      <g>
       <use style="stroke:#000000;stroke-width:0.8;" x="222.790909" xlink:href="#m89deef12f9" y="384.48"/>
      </g>
     </g>
     <g id="text_3">
      <!-- 400 -->
      <defs>
       <path d="M 37.796875 64.3125 
L 12.890625 25.390625 
L 37.796875 25.390625 
z
M 35.203125 72.90625 
L 47.609375 72.90625 
L 47.609375 25.390625 
L 58.015625 25.390625 
L 58.015625 17.1875 
L 47.609375 17.1875 
L 47.609375 0 
L 37.796875 0 
L 37.796875 17.1875 
L 4.890625 17.1875 
L 4.890625 26.703125 
z
" id="DejaVuSans-52"/>
      </defs>
      <g transform="translate(213.247159 399.078438)scale(0.1 -0.1)">
       <use xlink:href="#DejaVuSans-52"/>
       <use x="63.623047" xlink:href="#DejaVuSans-48"/>
       <use x="127.246094" xlink:href="#DejaVuSans-48"/>
      </g>
     </g>
    </g>
    <g id="xtick_4">
     <g id="line2d_4">
      <g>
       <use style="stroke:#000000;stroke-width:0.8;" x="293.809091" xlink:href="#m89deef12f9" y="384.48"/>
      </g>
     </g>
     <g id="text_4">
      <!-- 600 -->
      <defs>
       <path d="M 33.015625 40.375 
Q 26.375 40.375 22.484375 35.828125 
Q 18.609375 31.296875 18.609375 23.390625 
Q 18.609375 15.53125 22.484375 10.953125 
Q 26.375 6.390625 33.015625 6.390625 
Q 39.65625 6.390625 43.53125 10.953125 
Q 47.40625 15.53125 47.40625 23.390625 
Q 47.40625 31.296875 43.53125 35.828125 
Q 39.65625 40.375 33.015625 40.375 
z
M 52.59375 71.296875 
L 52.59375 62.3125 
Q 48.875 64.0625 45.09375 64.984375 
Q 41.3125 65.921875 37.59375 65.921875 
Q 27.828125 65.921875 22.671875 59.328125 
Q 17.53125 52.734375 16.796875 39.40625 
Q 19.671875 43.65625 24.015625 45.921875 
Q 28.375 48.1875 33.59375 48.1875 
Q 44.578125 48.1875 50.953125 41.515625 
Q 57.328125 34.859375 57.328125 23.390625 
Q 57.328125 12.15625 50.6875 5.359375 
Q 44.046875 -1.421875 33.015625 -1.421875 
Q 20.359375 -1.421875 13.671875 8.265625 
Q 6.984375 17.96875 6.984375 36.375 
Q 6.984375 53.65625 15.1875 63.9375 
Q 23.390625 74.21875 37.203125 74.21875 
Q 40.921875 74.21875 44.703125 73.484375 
Q 48.484375 72.75 52.59375 71.296875 
z
" id="DejaVuSans-54"/>
      </defs>
      <g transform="translate(284.265341 399.078438)scale(0.1 -0.1)">
       <use xlink:href="#DejaVuSans-54"/>
       <use x="63.623047" xlink:href="#DejaVuSans-48"/>
       <use x="127.246094" xlink:href="#DejaVuSans-48"/>
      </g>
     </g>
    </g>
    <g id="xtick_5">
     <g id="line2d_5">
      <g>
       <use style="stroke:#000000;stroke-width:0.8;" x="364.827273" xlink:href="#m89deef12f9" y="384.48"/>
      </g>
     </g>
     <g id="text_5">
      <!-- 800 -->
      <defs>
       <path d="M 31.78125 34.625 
Q 24.75 34.625 20.71875 30.859375 
Q 16.703125 27.09375 16.703125 20.515625 
Q 16.703125 13.921875 20.71875 10.15625 
Q 24.75 6.390625 31.78125 6.390625 
Q 38.8125 6.390625 42.859375 10.171875 
Q 46.921875 13.96875 46.921875 20.515625 
Q 46.921875 27.09375 42.890625 30.859375 
Q 38.875 34.625 31.78125 34.625 
z
M 21.921875 38.8125 
Q 15.578125 40.375 12.03125 44.71875 
Q 8.5 49.078125 8.5 55.328125 
Q 8.5 64.0625 14.71875 69.140625 
Q 20.953125 74.21875 31.78125 74.21875 
Q 42.671875 74.21875 48.875 69.140625 
Q 55.078125 64.0625 55.078125 55.328125 
Q 55.078125 49.078125 51.53125 44.71875 
Q 48 40.375 41.703125 38.8125 
Q 48.828125 37.15625 52.796875 32.3125 
Q 56.78125 27.484375 56.78125 20.515625 
Q 56.78125 9.90625 50.3125 4.234375 
Q 43.84375 -1.421875 31.78125 -1.421875 
Q 19.734375 -1.421875 13.25 4.234375 
Q 6.78125 9.90625 6.78125 20.515625 
Q 6.78125 27.484375 10.78125 32.3125 
Q 14.796875 37.15625 21.921875 38.8125 
z
M 18.3125 54.390625 
Q 18.3125 48.734375 21.84375 45.5625 
Q 25.390625 42.390625 31.78125 42.390625 
Q 38.140625 42.390625 41.71875 45.5625 
Q 45.3125 48.734375 45.3125 54.390625 
Q 45.3125 60.0625 41.71875 63.234375 
Q 38.140625 66.40625 31.78125 66.40625 
Q 25.390625 66.40625 21.84375 63.234375 
Q 18.3125 60.0625 18.3125 54.390625 
z
" id="DejaVuSans-56"/>
      </defs>
      <g transform="translate(355.283523 399.078438)scale(0.1 -0.1)">
       <use xlink:href="#DejaVuSans-56"/>
       <use x="63.623047" xlink:href="#DejaVuSans-48"/>
       <use x="127.246094" xlink:href="#DejaVuSans-48"/>
      </g>
     </g>
    </g>
    <g id="text_6">
     <!-- time [ms] -->
     <defs>
      <path d="M 18.3125 70.21875 
L 18.3125 54.6875 
L 36.8125 54.6875 
L 36.8125 47.703125 
L 18.3125 47.703125 
L 18.3125 18.015625 
Q 18.3125 11.328125 20.140625 9.421875 
Q 21.96875 7.515625 27.59375 7.515625 
L 36.8125 7.515625 
L 36.8125 0 
L 27.59375 0 
Q 17.1875 0 13.234375 3.875 
Q 9.28125 7.765625 9.28125 18.015625 
L 9.28125 47.703125 
L 2.6875 47.703125 
L 2.6875 54.6875 
L 9.28125 54.6875 
L 9.28125 70.21875 
z
" id="DejaVuSans-116"/>
      <path d="M 9.421875 54.6875 
L 18.40625 54.6875 
L 18.40625 0 
L 9.421875 0 
z
M 9.421875 75.984375 
L 18.40625 75.984375 
L 18.40625 64.59375 
L 9.421875 64.59375 
z
" id="DejaVuSans-105"/>
      <path d="M 52 44.1875 
Q 55.375 50.25 60.0625 53.125 
Q 64.75 56 71.09375 56 
Q 79.640625 56 84.28125 50.015625 
Q 88.921875 44.046875 88.921875 33.015625 
L 88.921875 0 
L 79.890625 0 
L 79.890625 32.71875 
Q 79.890625 40.578125 77.09375 44.375 
Q 74.3125 48.1875 68.609375 48.1875 
Q 61.625 48.1875 57.5625 43.546875 
Q 53.515625 38.921875 53.515625 30.90625 
L 53.515625 0 
L 44.484375 0 
L 44.484375 32.71875 
Q 44.484375 40.625 41.703125 44.40625 
Q 38.921875 48.1875 33.109375 48.1875 
Q 26.21875 48.1875 22.15625 43.53125 
Q 18.109375 38.875 18.109375 30.90625 
L 18.109375 0 
L 9.078125 0 
L 9.078125 54.6875 
L 18.109375 54.6875 
L 18.109375 46.1875 
Q 21.1875 51.21875 25.484375 53.609375 
Q 29.78125 56 35.6875 56 
Q 41.65625 56 45.828125 52.96875 
Q 50 49.953125 52 44.1875 
z
" id="DejaVuSans-109"/>
      <path d="M 56.203125 29.59375 
L 56.203125 25.203125 
L 14.890625 25.203125 
Q 15.484375 15.921875 20.484375 11.0625 
Q 25.484375 6.203125 34.421875 6.203125 
Q 39.59375 6.203125 44.453125 7.46875 
Q 49.3125 8.734375 54.109375 11.28125 
L 54.109375 2.78125 
Q 49.265625 0.734375 44.1875 -0.34375 
Q 39.109375 -1.421875 33.890625 -1.421875 
Q 20.796875 -1.421875 13.15625 6.1875 
Q 5.515625 13.8125 5.515625 26.8125 
Q 5.515625 40.234375 12.765625 48.109375 
Q 20.015625 56 32.328125 56 
Q 43.359375 56 49.78125 48.890625 
Q 56.203125 41.796875 56.203125 29.59375 
z
M 47.21875 32.234375 
Q 47.125 39.59375 43.09375 43.984375 
Q 39.0625 48.390625 32.421875 48.390625 
Q 24.90625 48.390625 20.390625 44.140625 
Q 15.875 39.890625 15.1875 32.171875 
z
" id="DejaVuSans-101"/>
      <path id="DejaVuSans-32"/>
      <path d="M 8.59375 75.984375 
L 29.296875 75.984375 
L 29.296875 69 
L 17.578125 69 
L 17.578125 -6.203125 
L 29.296875 -6.203125 
L 29.296875 -13.1875 
L 8.59375 -13.1875 
z
" id="DejaVuSans-91"/>
      <path d="M 44.28125 53.078125 
L 44.28125 44.578125 
Q 40.484375 46.53125 36.375 47.5 
Q 32.28125 48.484375 27.875 48.484375 
Q 21.1875 48.484375 17.84375 46.4375 
Q 14.5 44.390625 14.5 40.28125 
Q 14.5 37.15625 16.890625 35.375 
Q 19.28125 33.59375 26.515625 31.984375 
L 29.59375 31.296875 
Q 39.15625 29.25 43.1875 25.515625 
Q 47.21875 21.78125 47.21875 15.09375 
Q 47.21875 7.46875 41.1875 3.015625 
Q 35.15625 -1.421875 24.609375 -1.421875 
Q 20.21875 -1.421875 15.453125 -0.5625 
Q 10.6875 0.296875 5.421875 2 
L 5.421875 11.28125 
Q 10.40625 8.6875 15.234375 7.390625 
Q 20.0625 6.109375 24.8125 6.109375 
Q 31.15625 6.109375 34.5625 8.28125 
Q 37.984375 10.453125 37.984375 14.40625 
Q 37.984375 18.0625 35.515625 20.015625 
Q 33.0625 21.96875 24.703125 23.78125 
L 21.578125 24.515625 
Q 13.234375 26.265625 9.515625 29.90625 
Q 5.8125 33.546875 5.8125 39.890625 
Q 5.8125 47.609375 11.28125 51.796875 
Q 16.75 56 26.8125 56 
Q 31.78125 56 36.171875 55.265625 
Q 40.578125 54.546875 44.28125 53.078125 
z
" id="DejaVuSans-115"/>
      <path d="M 30.421875 75.984375 
L 30.421875 -13.1875 
L 9.71875 -13.1875 
L 9.71875 -6.203125 
L 21.390625 -6.203125 
L 21.390625 69 
L 9.71875 69 
L 9.71875 75.984375 
z
" id="DejaVuSans-93"/>
     </defs>
     <g transform="translate(234.038281 412.756563)scale(0.1 -0.1)">
      <use xlink:href="#DejaVuSans-116"/>
      <use x="39.208984" xlink:href="#DejaVuSans-105"/>
      <use x="66.992188" xlink:href="#DejaVuSans-109"/>
      <use x="164.404297" xlink:href="#DejaVuSans-101"/>
      <use x="225.927734" xlink:href="#DejaVuSans-32"/>
      <use x="257.714844" xlink:href="#DejaVuSans-91"/>
      <use x="296.728516" xlink:href="#DejaVuSans-109"/>
      <use x="394.140625" xlink:href="#DejaVuSans-115"/>
      <use x="446.240234" xlink:href="#DejaVuSans-93"/>
     </g>
    </g>
   </g>
   <g id="matplotlib.axis_2">
    <g id="ytick_1">
     <g id="line2d_6">
      <defs>
       <path d="M 0 0 
L -3.5 0 
" id="mb951edf45f" style="stroke:#000000;stroke-width:0.8;"/>
      </defs>
      <g>
       <use style="stroke:#000000;stroke-width:0.8;" x="63" xlink:href="#mb951edf45f" y="349.249184"/>
      </g>
     </g>
     <g id="text_7">
      <!-- −60 -->
      <defs>
       <path d="M 10.59375 35.5 
L 73.1875 35.5 
L 73.1875 27.203125 
L 10.59375 27.203125 
z
" id="DejaVuSans-8722"/>
      </defs>
      <g transform="translate(34.895313 353.048403)scale(0.1 -0.1)">
       <use xlink:href="#DejaVuSans-8722"/>
       <use x="83.789062" xlink:href="#DejaVuSans-54"/>
       <use x="147.412109" xlink:href="#DejaVuSans-48"/>
      </g>
     </g>
    </g>
    <g id="ytick_2">
     <g id="line2d_7">
      <g>
       <use style="stroke:#000000;stroke-width:0.8;" x="63" xlink:href="#mb951edf45f" y="284.511123"/>
      </g>
     </g>
     <g id="text_8">
      <!-- −40 -->
      <g transform="translate(34.895313 288.310342)scale(0.1 -0.1)">
       <use xlink:href="#DejaVuSans-8722"/>
       <use x="83.789062" xlink:href="#DejaVuSans-52"/>
       <use x="147.412109" xlink:href="#DejaVuSans-48"/>
      </g>
     </g>
    </g>
    <g id="ytick_3">
     <g id="line2d_8">
      <g>
       <use style="stroke:#000000;stroke-width:0.8;" x="63" xlink:href="#mb951edf45f" y="219.773063"/>
      </g>
     </g>
     <g id="text_9">
      <!-- −20 -->
      <g transform="translate(34.895313 223.572281)scale(0.1 -0.1)">
       <use xlink:href="#DejaVuSans-8722"/>
       <use x="83.789062" xlink:href="#DejaVuSans-50"/>
       <use x="147.412109" xlink:href="#DejaVuSans-48"/>
      </g>
     </g>
    </g>
    <g id="ytick_4">
     <g id="line2d_9">
      <g>
       <use style="stroke:#000000;stroke-width:0.8;" x="63" xlink:href="#mb951edf45f" y="155.035002"/>
      </g>
     </g>
     <g id="text_10">
      <!-- 0 -->
      <g transform="translate(49.6375 158.834221)scale(0.1 -0.1)">
       <use xlink:href="#DejaVuSans-48"/>
      </g>
     </g>
    </g>
    <g id="ytick_5">
     <g id="line2d_10">
      <g>
       <use style="stroke:#000000;stroke-width:0.8;" x="63" xlink:href="#mb951edf45f" y="90.296941"/>
      </g>
     </g>
     <g id="text_11">
      <!-- 20 -->
      <g transform="translate(43.275 94.09616)scale(0.1 -0.1)">
       <use xlink:href="#DejaVuSans-50"/>
       <use x="63.623047" xlink:href="#DejaVuSans-48"/>
      </g>
     </g>
    </g>
    <g id="text_12">
     <!-- voltage [V] -->
     <defs>
      <path d="M 2.984375 54.6875 
L 12.5 54.6875 
L 29.59375 8.796875 
L 46.6875 54.6875 
L 56.203125 54.6875 
L 35.6875 0 
L 23.484375 0 
z
" id="DejaVuSans-118"/>
      <path d="M 30.609375 48.390625 
Q 23.390625 48.390625 19.1875 42.75 
Q 14.984375 37.109375 14.984375 27.296875 
Q 14.984375 17.484375 19.15625 11.84375 
Q 23.34375 6.203125 30.609375 6.203125 
Q 37.796875 6.203125 41.984375 11.859375 
Q 46.1875 17.53125 46.1875 27.296875 
Q 46.1875 37.015625 41.984375 42.703125 
Q 37.796875 48.390625 30.609375 48.390625 
z
M 30.609375 56 
Q 42.328125 56 49.015625 48.375 
Q 55.71875 40.765625 55.71875 27.296875 
Q 55.71875 13.875 49.015625 6.21875 
Q 42.328125 -1.421875 30.609375 -1.421875 
Q 18.84375 -1.421875 12.171875 6.21875 
Q 5.515625 13.875 5.515625 27.296875 
Q 5.515625 40.765625 12.171875 48.375 
Q 18.84375 56 30.609375 56 
z
" id="DejaVuSans-111"/>
      <path d="M 9.421875 75.984375 
L 18.40625 75.984375 
L 18.40625 0 
L 9.421875 0 
z
" id="DejaVuSans-108"/>
      <path d="M 34.28125 27.484375 
Q 23.390625 27.484375 19.1875 25 
Q 14.984375 22.515625 14.984375 16.5 
Q 14.984375 11.71875 18.140625 8.90625 
Q 21.296875 6.109375 26.703125 6.109375 
Q 34.1875 6.109375 38.703125 11.40625 
Q 43.21875 16.703125 43.21875 25.484375 
L 43.21875 27.484375 
z
M 52.203125 31.203125 
L 52.203125 0 
L 43.21875 0 
L 43.21875 8.296875 
Q 40.140625 3.328125 35.546875 0.953125 
Q 30.953125 -1.421875 24.3125 -1.421875 
Q 15.921875 -1.421875 10.953125 3.296875 
Q 6 8.015625 6 15.921875 
Q 6 25.140625 12.171875 29.828125 
Q 18.359375 34.515625 30.609375 34.515625 
L 43.21875 34.515625 
L 43.21875 35.40625 
Q 43.21875 41.609375 39.140625 45 
Q 35.0625 48.390625 27.6875 48.390625 
Q 23 48.390625 18.546875 47.265625 
Q 14.109375 46.140625 10.015625 43.890625 
L 10.015625 52.203125 
Q 14.9375 54.109375 19.578125 55.046875 
Q 24.21875 56 28.609375 56 
Q 40.484375 56 46.34375 49.84375 
Q 52.203125 43.703125 52.203125 31.203125 
z
" id="DejaVuSans-97"/>
      <path d="M 45.40625 27.984375 
Q 45.40625 37.75 41.375 43.109375 
Q 37.359375 48.484375 30.078125 48.484375 
Q 22.859375 48.484375 18.828125 43.109375 
Q 14.796875 37.75 14.796875 27.984375 
Q 14.796875 18.265625 18.828125 12.890625 
Q 22.859375 7.515625 30.078125 7.515625 
Q 37.359375 7.515625 41.375 12.890625 
Q 45.40625 18.265625 45.40625 27.984375 
z
M 54.390625 6.78125 
Q 54.390625 -7.171875 48.1875 -13.984375 
Q 42 -20.796875 29.203125 -20.796875 
Q 24.46875 -20.796875 20.265625 -20.09375 
Q 16.0625 -19.390625 12.109375 -17.921875 
L 12.109375 -9.1875 
Q 16.0625 -11.328125 19.921875 -12.34375 
Q 23.78125 -13.375 27.78125 -13.375 
Q 36.625 -13.375 41.015625 -8.765625 
Q 45.40625 -4.15625 45.40625 5.171875 
L 45.40625 9.625 
Q 42.625 4.78125 38.28125 2.390625 
Q 33.9375 0 27.875 0 
Q 17.828125 0 11.671875 7.65625 
Q 5.515625 15.328125 5.515625 27.984375 
Q 5.515625 40.671875 11.671875 48.328125 
Q 17.828125 56 27.875 56 
Q 33.9375 56 38.28125 53.609375 
Q 42.625 51.21875 45.40625 46.390625 
L 45.40625 54.6875 
L 54.390625 54.6875 
z
" id="DejaVuSans-103"/>
      <path d="M 28.609375 0 
L 0.78125 72.90625 
L 11.078125 72.90625 
L 34.1875 11.53125 
L 57.328125 72.90625 
L 67.578125 72.90625 
L 39.796875 0 
z
" id="DejaVuSans-86"/>
     </defs>
     <g transform="translate(28.815625 245.75375)rotate(-90)scale(0.1 -0.1)">
      <use xlink:href="#DejaVuSans-118"/>
      <use x="59.179688" xlink:href="#DejaVuSans-111"/>
      <use x="120.361328" xlink:href="#DejaVuSans-108"/>
      <use x="148.144531" xlink:href="#DejaVuSans-116"/>
      <use x="187.353516" xlink:href="#DejaVuSans-97"/>
      <use x="248.632812" xlink:href="#DejaVuSans-103"/>
      <use x="312.109375" xlink:href="#DejaVuSans-101"/>
      <use x="373.632812" xlink:href="#DejaVuSans-32"/>
      <use x="405.419922" xlink:href="#DejaVuSans-91"/>
      <use x="444.433594" xlink:href="#DejaVuSans-86"/>
      <use x="512.841797" xlink:href="#DejaVuSans-93"/>
     </g>
    </g>
   </g>
   <g id="line2d_11">
    <path clip-path="url(#p24d1b10779)" d="M 80.754545 365.433692 
L 81.713291 365.446558 
L 85.832345 365.862158 
L 98.686636 367.139462 
L 108.948764 367.917072 
L 120.0276 368.529341 
L 132.473536 368.9889 
L 147.138791 369.300144 
L 151.772727 369.36 
L 151.8615 367.409348 
L 152.234345 359.461055 
L 152.731473 353.897843 
L 153.565936 347.325149 
L 154.9863 338.063672 
L 156.726245 328.196696 
L 158.412927 319.853834 
L 160.028591 312.942641 
L 161.590991 307.226236 
L 163.153391 302.356799 
L 164.840073 297.844226 
L 167.236936 292.145469 
L 168.941373 287.8684 
L 169.793591 285.142896 
L 170.361736 282.601796 
L 170.752336 279.848624 
L 171.036409 275.893779 
L 171.1962 268.921293 
L 171.249464 261.16962 
L 171.622309 80.314271 
L 171.675573 78.055299 
L 171.746591 78.287913 
L 171.906382 90.669038 
L 172.190455 141.510572 
L 172.847373 255.660655 
L 173.220218 288.960705 
L 173.5398 300.90312 
L 173.912645 307.130585 
L 174.303245 310.388939 
L 174.782618 312.522597 
L 175.226482 313.597497 
L 175.6881 314.168945 
L 176.096455 314.355848 
L 176.522564 314.313662 
L 177.019691 314.030901 
L 177.676609 313.370273 
L 178.528827 312.176461 
L 179.771645 310.031189 
L 182.843182 304.121981 
L 185.488609 299.316185 
L 188.151791 294.959876 
L 192.164318 288.456167 
L 193.282855 286.169417 
L 194.064055 284.081425 
L 194.6322 281.916436 
L 195.040555 279.429355 
L 195.324627 276.110565 
L 195.502173 270.368498 
L 195.573191 261.459913 
L 195.626455 234.942428 
L 195.839509 107.79131 
L 196.017055 99.463891 
L 196.034809 99.423825 
L 196.176845 103.031713 
L 196.407655 119.507805 
L 196.744991 166.598332 
L 197.437418 260.758528 
L 197.810264 284.622515 
L 198.200864 295.932904 
L 198.591464 301.370803 
L 199.070836 304.937463 
L 199.550209 307.029683 
L 200.082845 308.47133 
L 200.650991 309.382334 
L 201.219136 309.857752 
L 201.787282 310.01989 
L 202.408691 309.932049 
L 203.083364 309.606161 
L 203.988845 308.902273 
L 205.231664 307.620776 
L 207.237927 305.182642 
L 213.008155 298.047941 
L 218.032691 292.371761 
L 220.500573 289.384831 
L 221.938691 287.307834 
L 222.932945 285.503902 
L 223.660882 283.754411 
L 224.229027 281.798699 
L 224.637382 279.553527 
L 224.9037 276.923349 
L 225.081245 273.297868 
L 225.205527 264.370427 
L 225.241036 251.337285 
L 225.525109 106.628 
L 225.596127 104.36026 
L 225.667145 104.89274 
L 225.862445 112.537422 
L 226.164273 136.053271 
L 226.679155 202.674585 
L 227.229545 262.289376 
L 227.6379 282.911502 
L 228.046255 292.872763 
L 228.454609 298.053596 
L 228.933982 301.557573 
L 229.502127 304.075762 
L 230.105782 305.753161 
L 230.691682 306.786406 
L 231.313091 307.445173 
L 231.898991 307.767704 
L 232.555909 307.872175 
L 233.3016 307.746065 
L 234.153818 307.371479 
L 235.2546 306.63903 
L 236.834755 305.292194 
L 239.515691 302.663258 
L 247.043618 295.205968 
L 251.411236 290.82974 
L 253.310973 288.615196 
L 254.607055 286.778474 
L 255.548045 285.076943 
L 256.258227 283.340888 
L 256.790864 281.441364 
L 257.181464 279.189647 
L 257.447782 276.294276 
L 257.607573 272.486197 
L 257.696345 266.207315 
L 257.767364 243.854063 
L 257.998173 110.113915 
L 258.122455 105.028403 
L 258.157964 105.615757 
L 258.264491 108.971915 
L 258.566318 128.660008 
L 258.956918 171.476615 
L 259.755873 260.890291 
L 260.181982 282.048407 
L 260.590336 291.831111 
L 261.016445 297.028491 
L 261.495818 300.328047 
L 262.028455 302.587747 
L 262.649864 304.274436 
L 263.271273 305.353618 
L 263.892682 306.024945 
L 264.531845 306.406506 
L 265.224273 306.55663 
L 266.005473 306.481327 
L 266.928709 306.150871 
L 268.118264 305.461791 
L 269.698418 304.267052 
L 272.255073 302.017713 
L 283.440436 291.633454 
L 285.659755 289.268129 
L 287.133382 287.387396 
L 288.198655 285.681241 
L 288.979855 284.031414 
L 289.565755 282.302582 
L 290.009618 280.311648 
L 290.346955 277.652451 
L 290.542255 274.468284 
L 290.666536 269.260919 
L 290.737555 255.671981 
L 290.844082 169.517594 
L 291.003873 109.283084 
L 291.128155 105.311441 
L 291.163664 105.822541 
L 291.341209 113.014174 
L 291.643036 135.847627 
L 292.175673 199.472927 
L 292.761573 260.399105 
L 293.152173 280.232763 
L 293.560527 290.779205 
L 294.004391 296.511961 
L 294.483764 299.939124 
L 295.051909 302.384237 
L 295.673318 304.068978 
L 296.276973 305.125765 
L 296.916136 305.826654 
L 297.573055 306.223175 
L 298.247727 306.37693 
L 299.046682 306.311464 
L 299.969918 305.99451 
L 301.141718 305.337149 
L 302.704118 304.187554 
L 305.189755 302.049321 
L 315.576164 292.590882 
L 318.239345 289.911918 
L 319.908273 287.928616 
L 321.115582 286.147073 
L 322.003309 284.428031 
L 322.642473 282.70924 
L 323.121845 280.78298 
L 323.476936 278.384255 
L 323.7255 274.958107 
L 323.849782 270.659259 
L 323.938555 260.167318 
L 323.974064 240.31245 
L 324.204873 110.486543 
L 324.3114 105.100994 
L 324.346909 105.563247 
L 324.453436 108.475695 
L 324.755264 127.852989 
L 325.163618 171.89828 
L 325.962573 260.225776 
L 326.388682 281.466486 
L 326.797036 291.469595 
L 327.2409 296.935133 
L 327.738027 300.311555 
L 328.306173 302.628064 
L 328.927582 304.227417 
L 329.5845 305.294567 
L 330.241418 305.934576 
L 330.880582 306.262076 
L 331.573009 306.372386 
L 332.371964 306.264323 
L 333.312955 305.903861 
L 334.502509 305.20268 
L 336.153682 303.955115 
L 338.870127 301.588894 
L 350.215282 291.203765 
L 352.292564 288.975038 
L 353.730682 287.113989 
L 354.7782 285.392916 
L 355.541645 283.712513 
L 356.092036 281.997616 
L 356.518145 279.951273 
L 356.819973 277.405845 
L 357.015273 273.961526 
L 357.139555 267.769904 
L 357.210573 249.363844 
L 357.476891 108.006593 
L 357.565664 105.259121 
L 357.618927 105.823544 
L 357.778718 112.140784 
L 358.116055 137.83924 
L 358.648691 202.032375 
L 359.216836 260.640161 
L 359.625191 281.20567 
L 360.033545 291.437506 
L 360.459655 296.839932 
L 360.939027 300.21365 
L 361.453909 302.424483 
L 362.057564 304.081235 
L 362.678973 305.173761 
L 363.335891 305.882376 
L 363.992809 306.264487 
L 364.649727 306.404761 
L 364.862782 306.408735 
L 364.969309 308.538942 
L 365.306645 315.578057 
L 365.786018 320.541802 
L 366.460691 325.019467 
L 367.348418 329.413933 
L 368.395936 333.493312 
L 369.532227 337.070111 
L 370.775045 340.291012 
L 372.1599 343.271836 
L 373.633527 345.926271 
L 375.231436 348.352382 
L 376.953627 350.56517 
L 378.835609 352.616047 
L 380.841873 354.474688 
L 383.043436 356.210915 
L 385.458055 357.83003 
L 388.121236 359.345992 
L 391.086245 360.774696 
L 394.406345 362.123161 
L 398.117045 363.386865 
L 402.324873 364.579007 
L 407.029827 365.676179 
L 412.302927 366.674073 
L 418.197436 367.560494 
L 424.784373 368.323848 
L 432.205773 368.956389 
L 435.8277 369.19335 
L 435.8277 369.19335 
" style="fill:none;stroke:#1f77b4;stroke-linecap:square;stroke-width:1.5;"/>
   </g>
   <g id="line2d_12">
    <path clip-path="url(#p24d1b10779)" d="M 80.754545 365.433699 
L 80.949845 364.735171 
L 81.3582 364.133985 
L 82.050627 363.53742 
L 83.222427 362.847339 
L 84.944618 362.100185 
L 87.110673 361.408582 
L 89.649573 360.836434 
L 92.579073 360.408605 
L 96.0057 360.138689 
L 100.178018 360.042076 
L 105.806209 360.150103 
L 136.592591 361.080977 
L 151.772727 361.110875 
L 151.985782 351.320544 
L 152.411891 342.506546 
L 153.068809 333.625419 
L 153.956536 324.650421 
L 154.915282 317.104025 
L 155.874027 311.227549 
L 156.850527 306.579332 
L 157.862536 302.816648 
L 158.945564 299.62519 
L 160.152873 296.755843 
L 161.519973 294.079156 
L 163.224409 291.248786 
L 166.757564 285.54021 
L 167.538764 283.72394 
L 168.089155 281.864847 
L 168.479755 279.727555 
L 168.746073 277.027032 
L 168.923618 272.930736 
L 169.030145 264.811829 
L 169.083409 240.412365 
L 169.172182 66.96 
L 169.2432 98.040358 
L 169.562782 242.984527 
L 169.793591 286.851299 
L 170.042155 296.391714 
L 170.290718 299.023623 
L 170.557036 299.802918 
L 171.125182 300.549301 
L 171.657818 300.976919 
L 172.083927 301.047567 
L 172.545545 300.890621 
L 173.184709 300.409045 
L 174.285491 299.248866 
L 177.570082 295.692664 
L 179.736136 293.738719 
L 182.381564 291.665253 
L 189.217064 286.466265 
L 190.424373 285.164223 
L 191.294345 283.90401 
L 191.933509 282.591228 
L 192.412882 281.107181 
L 192.785727 279.192234 
L 193.052045 276.571604 
L 193.229591 272.420171 
L 193.336118 263.581361 
L 193.389382 231.814526 
L 193.478155 69.462127 
L 193.531418 91.344839 
L 193.886509 249.625088 
L 194.099564 283.075797 
L 194.365882 292.091771 
L 194.685464 296.751962 
L 195.0228 298.718554 
L 195.448909 299.904535 
L 195.910527 300.589233 
L 196.354391 300.877008 
L 196.798255 300.904468 
L 197.348645 300.697159 
L 198.1476 300.12704 
L 199.798773 298.605305 
L 202.550727 296.143342 
L 204.9831 294.281549 
L 207.823827 292.395864 
L 211.8186 290.037256 
L 216.168464 287.418199 
L 217.926164 286.100701 
L 219.115718 284.945078 
L 219.985691 283.798371 
L 220.642609 282.562937 
L 221.139736 281.145272 
L 221.512582 279.399143 
L 221.796655 276.89891 
L 221.9742 273.402178 
L 222.080727 267.55103 
L 222.151745 246.54219 
L 222.240518 69.820637 
L 222.329291 106.843676 
L 222.648873 246.721348 
L 222.861927 282.983344 
L 223.110491 291.389252 
L 223.447827 296.288133 
L 223.802918 298.49259 
L 224.229027 299.796625 
L 224.690645 300.543314 
L 225.134509 300.860962 
L 225.578373 300.909662 
L 226.128764 300.72593 
L 226.909964 300.202661 
L 228.472364 298.826652 
L 231.366355 296.327717 
L 233.798727 294.54194 
L 236.586191 292.779788 
L 240.119345 290.824891 
L 247.203409 286.977036 
L 248.854582 285.778637 
L 250.008627 284.673738 
L 250.843091 283.574485 
L 251.482255 282.360636 
L 251.961627 280.96833 
L 252.334473 279.16203 
L 252.600791 276.714348 
L 252.778336 273.008866 
L 252.884864 266.2772 
L 252.938127 251.481433 
L 253.044655 69.747242 
L 253.151182 125.681291 
L 253.453009 250.10886 
L 253.666064 283.811132 
L 253.932382 292.358272 
L 254.269718 296.784129 
L 254.624809 298.765762 
L 255.068673 300.025313 
L 255.530291 300.709876 
L 255.9564 300.980877 
L 256.400264 301.009945 
L 256.950655 300.811832 
L 257.767364 300.25249 
L 259.525064 298.702177 
L 262.170491 296.463042 
L 264.567355 294.739383 
L 267.266045 293.078044 
L 270.550636 291.32691 
L 280.493182 286.223193 
L 281.878036 285.133218 
L 282.854536 284.092409 
L 283.582473 283.002646 
L 284.150618 281.744548 
L 284.576727 280.252086 
L 284.896309 278.316847 
L 285.127118 275.529124 
L 285.286909 270.469872 
L 285.375682 258.202383 
L 285.411191 225.788785 
L 285.499964 70.23483 
L 285.553227 93.197247 
L 285.908318 251.033851 
L 286.121373 283.975547 
L 286.387691 292.528319 
L 286.707273 296.742372 
L 287.062364 298.750594 
L 287.506227 300.024181 
L 287.967845 300.721564 
L 288.411709 301.008865 
L 288.873327 301.036043 
L 289.441473 300.825681 
L 290.275936 300.251383 
L 292.211182 298.562294 
L 294.732327 296.485207 
L 297.111436 294.822045 
L 299.792373 293.224489 
L 302.988191 291.587695 
L 307.462336 289.570318 
L 312.5934 287.216398 
L 314.617418 286.041091 
L 315.966764 285.013404 
L 316.943264 284.000502 
L 317.6712 282.932708 
L 318.239345 281.693612 
L 318.665455 280.218215 
L 318.985036 278.301169 
L 319.215845 275.540694 
L 319.375636 270.563176 
L 319.464409 258.833211 
L 319.499918 229.712504 
L 319.588691 70.06745 
L 319.641955 91.977976 
L 319.997045 250.25816 
L 320.2101 283.782942 
L 320.476418 292.486288 
L 320.796 296.729416 
L 321.151091 298.739973 
L 321.594955 300.017161 
L 322.056573 300.720067 
L 322.500436 301.013188 
L 322.962055 301.046583 
L 323.5302 300.843956 
L 324.364664 300.281035 
L 326.282155 298.633409 
L 328.8033 296.587541 
L 331.164655 294.965873 
L 333.810082 293.423187 
L 336.917127 291.876178 
L 340.9119 290.151113 
L 348.635127 286.871905 
L 350.534864 285.782636 
L 351.830945 284.793584 
L 352.771936 283.803817 
L 353.482118 282.734949 
L 354.014755 281.537624 
L 354.440864 280.003523 
L 354.760445 277.940837 
L 354.9735 275.125741 
L 355.115536 270.367309 
L 355.204309 257.750513 
L 355.239818 223.100931 
L 355.328591 70.54835 
L 355.381855 93.936266 
L 355.736945 251.100913 
L 355.95 283.87993 
L 356.216318 292.508244 
L 356.5359 296.723526 
L 356.890991 298.722077 
L 357.334855 299.997227 
L 357.796473 300.702129 
L 358.240336 300.998813 
L 358.701955 301.036969 
L 359.2701 300.841122 
L 360.104564 300.2891 
L 362.022055 298.667325 
L 364.5432 296.654256 
L 364.827273 296.448284 
L 365.040327 306.058503 
L 365.413173 313.040341 
L 365.945809 318.899979 
L 366.673745 324.414597 
L 367.579227 329.581401 
L 368.626745 334.299688 
L 369.798545 338.57646 
L 371.076873 342.416732 
L 372.443973 345.835227 
L 373.899845 348.88977 
L 375.444491 351.621488 
L 377.060155 354.035249 
L 378.746836 356.162487 
L 380.504536 358.024411 
L 382.3155 359.620839 
L 384.179727 360.969262 
L 386.097218 362.083483 
L 388.085727 362.983008 
L 390.180764 363.685149 
L 392.400082 364.193273 
L 394.832455 364.518141 
L 397.566655 364.653099 
L 400.815736 364.581733 
L 405.112336 364.249326 
L 424.198473 362.514447 
L 431.406818 362.240555 
L 435.845455 362.161528 
L 435.845455 362.161528 
" style="fill:none;stroke:#ff0000;stroke-linecap:square;stroke-width:1.5;"/>
   </g>
   <g id="patch_3">
    <path d="M 63 384.48 
L 63 51.84 
" style="fill:none;stroke:#000000;stroke-linecap:square;stroke-linejoin:miter;stroke-width:0.8;"/>
   </g>
   <g id="patch_4">
    <path d="M 453.6 384.48 
L 453.6 51.84 
" style="fill:none;stroke:#000000;stroke-linecap:square;stroke-linejoin:miter;stroke-width:0.8;"/>
   </g>
   <g id="patch_5">
    <path d="M 63 384.48 
L 453.6 384.48 
" style="fill:none;stroke:#000000;stroke-linecap:square;stroke-linejoin:miter;stroke-width:0.8;"/>
   </g>
   <g id="patch_6">
    <path d="M 63 51.84 
L 453.6 51.84 
" style="fill:none;stroke:#000000;stroke-linecap:square;stroke-linejoin:miter;stroke-width:0.8;"/>
   </g>
   <g id="legend_1">
    <g id="patch_7">
     <path d="M 383.460938 89.19625 
L 446.6 89.19625 
Q 448.6 89.19625 448.6 87.19625 
L 448.6 58.84 
Q 448.6 56.84 446.6 56.84 
L 383.460938 56.84 
Q 381.460938 56.84 381.460938 58.84 
L 381.460938 87.19625 
Q 381.460938 89.19625 383.460938 89.19625 
z
" style="fill:#ffffff;opacity:0.8;stroke:#cccccc;stroke-linejoin:miter;"/>
    </g>
    <g id="line2d_13">
     <path d="M 385.460938 64.938437 
L 405.460938 64.938437 
" style="fill:none;stroke:#1f77b4;stroke-linecap:square;stroke-width:1.5;"/>
    </g>
    <g id="line2d_14"/>
    <g id="text_13">
     <!-- target -->
     <defs>
      <path d="M 41.109375 46.296875 
Q 39.59375 47.171875 37.8125 47.578125 
Q 36.03125 48 33.890625 48 
Q 26.265625 48 22.1875 43.046875 
Q 18.109375 38.09375 18.109375 28.8125 
L 18.109375 0 
L 9.078125 0 
L 9.078125 54.6875 
L 18.109375 54.6875 
L 18.109375 46.1875 
Q 20.953125 51.171875 25.484375 53.578125 
Q 30.03125 56 36.53125 56 
Q 37.453125 56 38.578125 55.875 
Q 39.703125 55.765625 41.0625 55.515625 
z
" id="DejaVuSans-114"/>
     </defs>
     <g transform="translate(413.460938 68.438437)scale(0.1 -0.1)">
      <use xlink:href="#DejaVuSans-116"/>
      <use x="39.208984" xlink:href="#DejaVuSans-97"/>
      <use x="100.488281" xlink:href="#DejaVuSans-114"/>
      <use x="141.585938" xlink:href="#DejaVuSans-103"/>
      <use x="205.0625" xlink:href="#DejaVuSans-101"/>
      <use x="266.585938" xlink:href="#DejaVuSans-116"/>
     </g>
    </g>
    <g id="line2d_15">
     <path d="M 385.460938 79.616562 
L 405.460938 79.616562 
" style="fill:none;stroke:#ff0000;stroke-linecap:square;stroke-width:1.5;"/>
    </g>
    <g id="line2d_16"/>
    <g id="text_14">
     <!-- model -->
     <defs>
      <path d="M 45.40625 46.390625 
L 45.40625 75.984375 
L 54.390625 75.984375 
L 54.390625 0 
L 45.40625 0 
L 45.40625 8.203125 
Q 42.578125 3.328125 38.25 0.953125 
Q 33.9375 -1.421875 27.875 -1.421875 
Q 17.96875 -1.421875 11.734375 6.484375 
Q 5.515625 14.40625 5.515625 27.296875 
Q 5.515625 40.1875 11.734375 48.09375 
Q 17.96875 56 27.875 56 
Q 33.9375 56 38.25 53.625 
Q 42.578125 51.265625 45.40625 46.390625 
z
M 14.796875 27.296875 
Q 14.796875 17.390625 18.875 11.75 
Q 22.953125 6.109375 30.078125 6.109375 
Q 37.203125 6.109375 41.296875 11.75 
Q 45.40625 17.390625 45.40625 27.296875 
Q 45.40625 37.203125 41.296875 42.84375 
Q 37.203125 48.484375 30.078125 48.484375 
Q 22.953125 48.484375 18.875 42.84375 
Q 14.796875 37.203125 14.796875 27.296875 
z
" id="DejaVuSans-100"/>
     </defs>
     <g transform="translate(413.460938 83.116562)scale(0.1 -0.1)">
      <use xlink:href="#DejaVuSans-109"/>
      <use x="97.412109" xlink:href="#DejaVuSans-111"/>
      <use x="158.59375" xlink:href="#DejaVuSans-100"/>
      <use x="222.070312" xlink:href="#DejaVuSans-101"/>
      <use x="283.59375" xlink:href="#DejaVuSans-108"/>
     </g>
    </g>
   </g>
  </g>
 </g>
 <defs>
  <clipPath id="p24d1b10779">
   <rect height="332.64" width="390.6" x="63" y="51.84"/>
  </clipPath>
 </defs>
</svg>
