<?xml version="1.0" encoding="utf-8" standalone="no"?>
<!DOCTYPE svg PUBLIC "-//W3C//DTD SVG 1.1//EN"
  "http://www.w3.org/Graphics/SVG/1.1/DTD/svg11.dtd">
<!-- Created with matplotlib (https://matplotlib.org/) -->
<svg height="432pt" version="1.1" viewBox="0 0 504 432" width="504pt" xmlns="http://www.w3.org/2000/svg" xmlns:xlink="http://www.w3.org/1999/xlink">
 <defs>
  <style type="text/css">
*{stroke-linecap:butt;stroke-linejoin:round;}
  </style>
 </defs>
 <g id="figure_1">
  <g id="patch_1">
   <path d="M 0 432 
L 504 432 
L 504 0 
L 0 0 
z
" style="fill:#ffffff;"/>
  </g>
  <g id="axes_1">
   <g id="patch_2">
    <path d="M 63 384.48 
L 453.6 384.48 
L 453.6 51.84 
L 63 51.84 
z
" style="fill:#ffffff;"/>
   </g>
   <g id="matplotlib.axis_1">
    <g id="xtick_1">
     <g id="line2d_1">
      <defs>
       <path d="M 0 0 
L 0 3.5 
" id="m72ce65768f" style="stroke:#000000;stroke-width:0.8;"/>
      </defs>
      <g>
       <use style="stroke:#000000;stroke-width:0.8;" x="80.754545" xlink:href="#m72ce65768f" y="384.48"/>
      </g>
     </g>
     <g id="text_1">
      <!-- 0 -->
      <defs>
       <path d="M 31.78125 66.40625 
Q 24.171875 66.40625 20.328125 58.90625 
Q 16.5 51.421875 16.5 36.375 
Q 16.5 21.390625 20.328125 13.890625 
Q 24.171875 6.390625 31.78125 6.390625 
Q 39.453125 6.390625 43.28125 13.890625 
Q 47.125 21.390625 47.125 36.375 
Q 47.125 51.421875 43.28125 58.90625 
Q 39.453125 66.40625 31.78125 66.40625 
z
M 31.78125 74.21875 
Q 44.046875 74.21875 50.515625 64.515625 
Q 56.984375 54.828125 56.984375 36.375 
Q 56.984375 17.96875 50.515625 8.265625 
Q 44.046875 -1.421875 31.78125 -1.421875 
Q 19.53125 -1.421875 13.0625 8.265625 
Q 6.59375 17.96875 6.59375 36.375 
Q 6.59375 54.828125 13.0625 64.515625 
Q 19.53125 74.21875 31.78125 74.21875 
z
" id="DejaVuSans-48"/>
      </defs>
      <g transform="translate(77.573295 399.078438)scale(0.1 -0.1)">
       <use xlink:href="#DejaVuSans-48"/>
      </g>
     </g>
    </g>
    <g id="xtick_2">
     <g id="line2d_2">
      <g>
       <use style="stroke:#000000;stroke-width:0.8;" x="151.772727" xlink:href="#m72ce65768f" y="384.48"/>
      </g>
     </g>
     <g id="text_2">
      <!-- 200 -->
      <defs>
       <path d="M 19.1875 8.296875 
L 53.609375 8.296875 
L 53.609375 0 
L 7.328125 0 
L 7.328125 8.296875 
Q 12.9375 14.109375 22.625 23.890625 
Q 32.328125 33.6875 34.8125 36.53125 
Q 39.546875 41.84375 41.421875 45.53125 
Q 43.3125 49.21875 43.3125 52.78125 
Q 43.3125 58.59375 39.234375 62.25 
Q 35.15625 65.921875 28.609375 65.921875 
Q 23.96875 65.921875 18.8125 64.3125 
Q 13.671875 62.703125 7.8125 59.421875 
L 7.8125 69.390625 
Q 13.765625 71.78125 18.9375 73 
Q 24.125 74.21875 28.421875 74.21875 
Q 39.75 74.21875 46.484375 68.546875 
Q 53.21875 62.890625 53.21875 53.421875 
Q 53.21875 48.921875 51.53125 44.890625 
Q 49.859375 40.875 45.40625 35.40625 
Q 44.1875 33.984375 37.640625 27.21875 
Q 31.109375 20.453125 19.1875 8.296875 
z
" id="DejaVuSans-50"/>
      </defs>
      <g transform="translate(142.228977 399.078438)scale(0.1 -0.1)">
       <use xlink:href="#DejaVuSans-50"/>
       <use x="63.623047" xlink:href="#DejaVuSans-48"/>
       <use x="127.246094" xlink:href="#DejaVuSans-48"/>
      </g>
     </g>
    </g>
    <g id="xtick_3">
     <g id="line2d_3">
      <g>
       <use style="stroke:#000000;stroke-width:0.8;" x="222.790909" xlink:href="#m72ce65768f" y="384.48"/>
      </g>
     </g>
     <g id="text_3">
      <!-- 400 -->
      <defs>
       <path d="M 37.796875 64.3125 
L 12.890625 25.390625 
L 37.796875 25.390625 
z
M 35.203125 72.90625 
L 47.609375 72.90625 
L 47.609375 25.390625 
L 58.015625 25.390625 
L 58.015625 17.1875 
L 47.609375 17.1875 
L 47.609375 0 
L 37.796875 0 
L 37.796875 17.1875 
L 4.890625 17.1875 
L 4.890625 26.703125 
z
" id="DejaVuSans-52"/>
      </defs>
      <g transform="translate(213.247159 399.078438)scale(0.1 -0.1)">
       <use xlink:href="#DejaVuSans-52"/>
       <use x="63.623047" xlink:href="#DejaVuSans-48"/>
       <use x="127.246094" xlink:href="#DejaVuSans-48"/>
      </g>
     </g>
    </g>
    <g id="xtick_4">
     <g id="line2d_4">
      <g>
       <use style="stroke:#000000;stroke-width:0.8;" x="293.809091" xlink:href="#m72ce65768f" y="384.48"/>
      </g>
     </g>
     <g id="text_4">
      <!-- 600 -->
      <defs>
       <path d="M 33.015625 40.375 
Q 26.375 40.375 22.484375 35.828125 
Q 18.609375 31.296875 18.609375 23.390625 
Q 18.609375 15.53125 22.484375 10.953125 
Q 26.375 6.390625 33.015625 6.390625 
Q 39.65625 6.390625 43.53125 10.953125 
Q 47.40625 15.53125 47.40625 23.390625 
Q 47.40625 31.296875 43.53125 35.828125 
Q 39.65625 40.375 33.015625 40.375 
z
M 52.59375 71.296875 
L 52.59375 62.3125 
Q 48.875 64.0625 45.09375 64.984375 
Q 41.3125 65.921875 37.59375 65.921875 
Q 27.828125 65.921875 22.671875 59.328125 
Q 17.53125 52.734375 16.796875 39.40625 
Q 19.671875 43.65625 24.015625 45.921875 
Q 28.375 48.1875 33.59375 48.1875 
Q 44.578125 48.1875 50.953125 41.515625 
Q 57.328125 34.859375 57.328125 23.390625 
Q 57.328125 12.15625 50.6875 5.359375 
Q 44.046875 -1.421875 33.015625 -1.421875 
Q 20.359375 -1.421875 13.671875 8.265625 
Q 6.984375 17.96875 6.984375 36.375 
Q 6.984375 53.65625 15.1875 63.9375 
Q 23.390625 74.21875 37.203125 74.21875 
Q 40.921875 74.21875 44.703125 73.484375 
Q 48.484375 72.75 52.59375 71.296875 
z
" id="DejaVuSans-54"/>
      </defs>
      <g transform="translate(284.265341 399.078438)scale(0.1 -0.1)">
       <use xlink:href="#DejaVuSans-54"/>
       <use x="63.623047" xlink:href="#DejaVuSans-48"/>
       <use x="127.246094" xlink:href="#DejaVuSans-48"/>
      </g>
     </g>
    </g>
    <g id="xtick_5">
     <g id="line2d_5">
      <g>
       <use style="stroke:#000000;stroke-width:0.8;" x="364.827273" xlink:href="#m72ce65768f" y="384.48"/>
      </g>
     </g>
     <g id="text_5">
      <!-- 800 -->
      <defs>
       <path d="M 31.78125 34.625 
Q 24.75 34.625 20.71875 30.859375 
Q 16.703125 27.09375 16.703125 20.515625 
Q 16.703125 13.921875 20.71875 10.15625 
Q 24.75 6.390625 31.78125 6.390625 
Q 38.8125 6.390625 42.859375 10.171875 
Q 46.921875 13.96875 46.921875 20.515625 
Q 46.921875 27.09375 42.890625 30.859375 
Q 38.875 34.625 31.78125 34.625 
z
M 21.921875 38.8125 
Q 15.578125 40.375 12.03125 44.71875 
Q 8.5 49.078125 8.5 55.328125 
Q 8.5 64.0625 14.71875 69.140625 
Q 20.953125 74.21875 31.78125 74.21875 
Q 42.671875 74.21875 48.875 69.140625 
Q 55.078125 64.0625 55.078125 55.328125 
Q 55.078125 49.078125 51.53125 44.71875 
Q 48 40.375 41.703125 38.8125 
Q 48.828125 37.15625 52.796875 32.3125 
Q 56.78125 27.484375 56.78125 20.515625 
Q 56.78125 9.90625 50.3125 4.234375 
Q 43.84375 -1.421875 31.78125 -1.421875 
Q 19.734375 -1.421875 13.25 4.234375 
Q 6.78125 9.90625 6.78125 20.515625 
Q 6.78125 27.484375 10.78125 32.3125 
Q 14.796875 37.15625 21.921875 38.8125 
z
M 18.3125 54.390625 
Q 18.3125 48.734375 21.84375 45.5625 
Q 25.390625 42.390625 31.78125 42.390625 
Q 38.140625 42.390625 41.71875 45.5625 
Q 45.3125 48.734375 45.3125 54.390625 
Q 45.3125 60.0625 41.71875 63.234375 
Q 38.140625 66.40625 31.78125 66.40625 
Q 25.390625 66.40625 21.84375 63.234375 
Q 18.3125 60.0625 18.3125 54.390625 
z
" id="DejaVuSans-56"/>
      </defs>
      <g transform="translate(355.283523 399.078438)scale(0.1 -0.1)">
       <use xlink:href="#DejaVuSans-56"/>
       <use x="63.623047" xlink:href="#DejaVuSans-48"/>
       <use x="127.246094" xlink:href="#DejaVuSans-48"/>
      </g>
     </g>
    </g>
    <g id="text_6">
     <!-- time [ms] -->
     <defs>
      <path d="M 18.3125 70.21875 
L 18.3125 54.6875 
L 36.8125 54.6875 
L 36.8125 47.703125 
L 18.3125 47.703125 
L 18.3125 18.015625 
Q 18.3125 11.328125 20.140625 9.421875 
Q 21.96875 7.515625 27.59375 7.515625 
L 36.8125 7.515625 
L 36.8125 0 
L 27.59375 0 
Q 17.1875 0 13.234375 3.875 
Q 9.28125 7.765625 9.28125 18.015625 
L 9.28125 47.703125 
L 2.6875 47.703125 
L 2.6875 54.6875 
L 9.28125 54.6875 
L 9.28125 70.21875 
z
" id="DejaVuSans-116"/>
      <path d="M 9.421875 54.6875 
L 18.40625 54.6875 
L 18.40625 0 
L 9.421875 0 
z
M 9.421875 75.984375 
L 18.40625 75.984375 
L 18.40625 64.59375 
L 9.421875 64.59375 
z
" id="DejaVuSans-105"/>
      <path d="M 52 44.1875 
Q 55.375 50.25 60.0625 53.125 
Q 64.75 56 71.09375 56 
Q 79.640625 56 84.28125 50.015625 
Q 88.921875 44.046875 88.921875 33.015625 
L 88.921875 0 
L 79.890625 0 
L 79.890625 32.71875 
Q 79.890625 40.578125 77.09375 44.375 
Q 74.3125 48.1875 68.609375 48.1875 
Q 61.625 48.1875 57.5625 43.546875 
Q 53.515625 38.921875 53.515625 30.90625 
L 53.515625 0 
L 44.484375 0 
L 44.484375 32.71875 
Q 44.484375 40.625 41.703125 44.40625 
Q 38.921875 48.1875 33.109375 48.1875 
Q 26.21875 48.1875 22.15625 43.53125 
Q 18.109375 38.875 18.109375 30.90625 
L 18.109375 0 
L 9.078125 0 
L 9.078125 54.6875 
L 18.109375 54.6875 
L 18.109375 46.1875 
Q 21.1875 51.21875 25.484375 53.609375 
Q 29.78125 56 35.6875 56 
Q 41.65625 56 45.828125 52.96875 
Q 50 49.953125 52 44.1875 
z
" id="DejaVuSans-109"/>
      <path d="M 56.203125 29.59375 
L 56.203125 25.203125 
L 14.890625 25.203125 
Q 15.484375 15.921875 20.484375 11.0625 
Q 25.484375 6.203125 34.421875 6.203125 
Q 39.59375 6.203125 44.453125 7.46875 
Q 49.3125 8.734375 54.109375 11.28125 
L 54.109375 2.78125 
Q 49.265625 0.734375 44.1875 -0.34375 
Q 39.109375 -1.421875 33.890625 -1.421875 
Q 20.796875 -1.421875 13.15625 6.1875 
Q 5.515625 13.8125 5.515625 26.8125 
Q 5.515625 40.234375 12.765625 48.109375 
Q 20.015625 56 32.328125 56 
Q 43.359375 56 49.78125 48.890625 
Q 56.203125 41.796875 56.203125 29.59375 
z
M 47.21875 32.234375 
Q 47.125 39.59375 43.09375 43.984375 
Q 39.0625 48.390625 32.421875 48.390625 
Q 24.90625 48.390625 20.390625 44.140625 
Q 15.875 39.890625 15.1875 32.171875 
z
" id="DejaVuSans-101"/>
      <path id="DejaVuSans-32"/>
      <path d="M 8.59375 75.984375 
L 29.296875 75.984375 
L 29.296875 69 
L 17.578125 69 
L 17.578125 -6.203125 
L 29.296875 -6.203125 
L 29.296875 -13.1875 
L 8.59375 -13.1875 
z
" id="DejaVuSans-91"/>
      <path d="M 44.28125 53.078125 
L 44.28125 44.578125 
Q 40.484375 46.53125 36.375 47.5 
Q 32.28125 48.484375 27.875 48.484375 
Q 21.1875 48.484375 17.84375 46.4375 
Q 14.5 44.390625 14.5 40.28125 
Q 14.5 37.15625 16.890625 35.375 
Q 19.28125 33.59375 26.515625 31.984375 
L 29.59375 31.296875 
Q 39.15625 29.25 43.1875 25.515625 
Q 47.21875 21.78125 47.21875 15.09375 
Q 47.21875 7.46875 41.1875 3.015625 
Q 35.15625 -1.421875 24.609375 -1.421875 
Q 20.21875 -1.421875 15.453125 -0.5625 
Q 10.6875 0.296875 5.421875 2 
L 5.421875 11.28125 
Q 10.40625 8.6875 15.234375 7.390625 
Q 20.0625 6.109375 24.8125 6.109375 
Q 31.15625 6.109375 34.5625 8.28125 
Q 37.984375 10.453125 37.984375 14.40625 
Q 37.984375 18.0625 35.515625 20.015625 
Q 33.0625 21.96875 24.703125 23.78125 
L 21.578125 24.515625 
Q 13.234375 26.265625 9.515625 29.90625 
Q 5.8125 33.546875 5.8125 39.890625 
Q 5.8125 47.609375 11.28125 51.796875 
Q 16.75 56 26.8125 56 
Q 31.78125 56 36.171875 55.265625 
Q 40.578125 54.546875 44.28125 53.078125 
z
" id="DejaVuSans-115"/>
      <path d="M 30.421875 75.984375 
L 30.421875 -13.1875 
L 9.71875 -13.1875 
L 9.71875 -6.203125 
L 21.390625 -6.203125 
L 21.390625 69 
L 9.71875 69 
L 9.71875 75.984375 
z
" id="DejaVuSans-93"/>
     </defs>
     <g transform="translate(234.038281 412.756563)scale(0.1 -0.1)">
      <use xlink:href="#DejaVuSans-116"/>
      <use x="39.208984" xlink:href="#DejaVuSans-105"/>
      <use x="66.992188" xlink:href="#DejaVuSans-109"/>
      <use x="164.404297" xlink:href="#DejaVuSans-101"/>
      <use x="225.927734" xlink:href="#DejaVuSans-32"/>
      <use x="257.714844" xlink:href="#DejaVuSans-91"/>
      <use x="296.728516" xlink:href="#DejaVuSans-109"/>
      <use x="394.140625" xlink:href="#DejaVuSans-115"/>
      <use x="446.240234" xlink:href="#DejaVuSans-93"/>
     </g>
    </g>
   </g>
   <g id="matplotlib.axis_2">
    <g id="ytick_1">
     <g id="line2d_6">
      <defs>
       <path d="M 0 0 
L -3.5 0 
" id="mec72593bb1" style="stroke:#000000;stroke-width:0.8;"/>
      </defs>
      <g>
       <use style="stroke:#000000;stroke-width:0.8;" x="63" xlink:href="#mec72593bb1" y="381.957992"/>
      </g>
     </g>
     <g id="text_7">
      <!-- −80 -->
      <defs>
       <path d="M 10.59375 35.5 
L 73.1875 35.5 
L 73.1875 27.203125 
L 10.59375 27.203125 
z
" id="DejaVuSans-8722"/>
      </defs>
      <g transform="translate(34.895313 385.75721)scale(0.1 -0.1)">
       <use xlink:href="#DejaVuSans-8722"/>
       <use x="83.789062" xlink:href="#DejaVuSans-56"/>
       <use x="147.412109" xlink:href="#DejaVuSans-48"/>
      </g>
     </g>
    </g>
    <g id="ytick_2">
     <g id="line2d_7">
      <g>
       <use style="stroke:#000000;stroke-width:0.8;" x="63" xlink:href="#mec72593bb1" y="329.316106"/>
      </g>
     </g>
     <g id="text_8">
      <!-- −60 -->
      <g transform="translate(34.895313 333.115324)scale(0.1 -0.1)">
       <use xlink:href="#DejaVuSans-8722"/>
       <use x="83.789062" xlink:href="#DejaVuSans-54"/>
       <use x="147.412109" xlink:href="#DejaVuSans-48"/>
      </g>
     </g>
    </g>
    <g id="ytick_3">
     <g id="line2d_8">
      <g>
       <use style="stroke:#000000;stroke-width:0.8;" x="63" xlink:href="#mec72593bb1" y="276.674219"/>
      </g>
     </g>
     <g id="text_9">
      <!-- −40 -->
      <g transform="translate(34.895313 280.473438)scale(0.1 -0.1)">
       <use xlink:href="#DejaVuSans-8722"/>
       <use x="83.789062" xlink:href="#DejaVuSans-52"/>
       <use x="147.412109" xlink:href="#DejaVuSans-48"/>
      </g>
     </g>
    </g>
    <g id="ytick_4">
     <g id="line2d_9">
      <g>
       <use style="stroke:#000000;stroke-width:0.8;" x="63" xlink:href="#mec72593bb1" y="224.032333"/>
      </g>
     </g>
     <g id="text_10">
      <!-- −20 -->
      <g transform="translate(34.895313 227.831552)scale(0.1 -0.1)">
       <use xlink:href="#DejaVuSans-8722"/>
       <use x="83.789062" xlink:href="#DejaVuSans-50"/>
       <use x="147.412109" xlink:href="#DejaVuSans-48"/>
      </g>
     </g>
    </g>
    <g id="ytick_5">
     <g id="line2d_10">
      <g>
       <use style="stroke:#000000;stroke-width:0.8;" x="63" xlink:href="#mec72593bb1" y="171.390447"/>
      </g>
     </g>
     <g id="text_11">
      <!-- 0 -->
      <g transform="translate(49.6375 175.189666)scale(0.1 -0.1)">
       <use xlink:href="#DejaVuSans-48"/>
      </g>
     </g>
    </g>
    <g id="ytick_6">
     <g id="line2d_11">
      <g>
       <use style="stroke:#000000;stroke-width:0.8;" x="63" xlink:href="#mec72593bb1" y="118.748561"/>
      </g>
     </g>
     <g id="text_12">
      <!-- 20 -->
      <g transform="translate(43.275 122.54778)scale(0.1 -0.1)">
       <use xlink:href="#DejaVuSans-50"/>
       <use x="63.623047" xlink:href="#DejaVuSans-48"/>
      </g>
     </g>
    </g>
    <g id="ytick_7">
     <g id="line2d_12">
      <g>
       <use style="stroke:#000000;stroke-width:0.8;" x="63" xlink:href="#mec72593bb1" y="66.106675"/>
      </g>
     </g>
     <g id="text_13">
      <!-- 40 -->
      <g transform="translate(43.275 69.905894)scale(0.1 -0.1)">
       <use xlink:href="#DejaVuSans-52"/>
       <use x="63.623047" xlink:href="#DejaVuSans-48"/>
      </g>
     </g>
    </g>
    <g id="text_14">
     <!-- voltage [mV] -->
     <defs>
      <path d="M 2.984375 54.6875 
L 12.5 54.6875 
L 29.59375 8.796875 
L 46.6875 54.6875 
L 56.203125 54.6875 
L 35.6875 0 
L 23.484375 0 
z
" id="DejaVuSans-118"/>
      <path d="M 30.609375 48.390625 
Q 23.390625 48.390625 19.1875 42.75 
Q 14.984375 37.109375 14.984375 27.296875 
Q 14.984375 17.484375 19.15625 11.84375 
Q 23.34375 6.203125 30.609375 6.203125 
Q 37.796875 6.203125 41.984375 11.859375 
Q 46.1875 17.53125 46.1875 27.296875 
Q 46.1875 37.015625 41.984375 42.703125 
Q 37.796875 48.390625 30.609375 48.390625 
z
M 30.609375 56 
Q 42.328125 56 49.015625 48.375 
Q 55.71875 40.765625 55.71875 27.296875 
Q 55.71875 13.875 49.015625 6.21875 
Q 42.328125 -1.421875 30.609375 -1.421875 
Q 18.84375 -1.421875 12.171875 6.21875 
Q 5.515625 13.875 5.515625 27.296875 
Q 5.515625 40.765625 12.171875 48.375 
Q 18.84375 56 30.609375 56 
z
" id="DejaVuSans-111"/>
      <path d="M 9.421875 75.984375 
L 18.40625 75.984375 
L 18.40625 0 
L 9.421875 0 
z
" id="DejaVuSans-108"/>
      <path d="M 34.28125 27.484375 
Q 23.390625 27.484375 19.1875 25 
Q 14.984375 22.515625 14.984375 16.5 
Q 14.984375 11.71875 18.140625 8.90625 
Q 21.296875 6.109375 26.703125 6.109375 
Q 34.1875 6.109375 38.703125 11.40625 
Q 43.21875 16.703125 43.21875 25.484375 
L 43.21875 27.484375 
z
M 52.203125 31.203125 
L 52.203125 0 
L 43.21875 0 
L 43.21875 8.296875 
Q 40.140625 3.328125 35.546875 0.953125 
Q 30.953125 -1.421875 24.3125 -1.421875 
Q 15.921875 -1.421875 10.953125 3.296875 
Q 6 8.015625 6 15.921875 
Q 6 25.140625 12.171875 29.828125 
Q 18.359375 34.515625 30.609375 34.515625 
L 43.21875 34.515625 
L 43.21875 35.40625 
Q 43.21875 41.609375 39.140625 45 
Q 35.0625 48.390625 27.6875 48.390625 
Q 23 48.390625 18.546875 47.265625 
Q 14.109375 46.140625 10.015625 43.890625 
L 10.015625 52.203125 
Q 14.9375 54.109375 19.578125 55.046875 
Q 24.21875 56 28.609375 56 
Q 40.484375 56 46.34375 49.84375 
Q 52.203125 43.703125 52.203125 31.203125 
z
" id="DejaVuSans-97"/>
      <path d="M 45.40625 27.984375 
Q 45.40625 37.75 41.375 43.109375 
Q 37.359375 48.484375 30.078125 48.484375 
Q 22.859375 48.484375 18.828125 43.109375 
Q 14.796875 37.75 14.796875 27.984375 
Q 14.796875 18.265625 18.828125 12.890625 
Q 22.859375 7.515625 30.078125 7.515625 
Q 37.359375 7.515625 41.375 12.890625 
Q 45.40625 18.265625 45.40625 27.984375 
z
M 54.390625 6.78125 
Q 54.390625 -7.171875 48.1875 -13.984375 
Q 42 -20.796875 29.203125 -20.796875 
Q 24.46875 -20.796875 20.265625 -20.09375 
Q 16.0625 -19.390625 12.109375 -17.921875 
L 12.109375 -9.1875 
Q 16.0625 -11.328125 19.921875 -12.34375 
Q 23.78125 -13.375 27.78125 -13.375 
Q 36.625 -13.375 41.015625 -8.765625 
Q 45.40625 -4.15625 45.40625 5.171875 
L 45.40625 9.625 
Q 42.625 4.78125 38.28125 2.390625 
Q 33.9375 0 27.875 0 
Q 17.828125 0 11.671875 7.65625 
Q 5.515625 15.328125 5.515625 27.984375 
Q 5.515625 40.671875 11.671875 48.328125 
Q 17.828125 56 27.875 56 
Q 33.9375 56 38.28125 53.609375 
Q 42.625 51.21875 45.40625 46.390625 
L 45.40625 54.6875 
L 54.390625 54.6875 
z
" id="DejaVuSans-103"/>
      <path d="M 28.609375 0 
L 0.78125 72.90625 
L 11.078125 72.90625 
L 34.1875 11.53125 
L 57.328125 72.90625 
L 67.578125 72.90625 
L 39.796875 0 
z
" id="DejaVuSans-86"/>
     </defs>
     <g transform="translate(28.815625 250.624062)rotate(-90)scale(0.1 -0.1)">
      <use xlink:href="#DejaVuSans-118"/>
      <use x="59.179688" xlink:href="#DejaVuSans-111"/>
      <use x="120.361328" xlink:href="#DejaVuSans-108"/>
      <use x="148.144531" xlink:href="#DejaVuSans-116"/>
      <use x="187.353516" xlink:href="#DejaVuSans-97"/>
      <use x="248.632812" xlink:href="#DejaVuSans-103"/>
      <use x="312.109375" xlink:href="#DejaVuSans-101"/>
      <use x="373.632812" xlink:href="#DejaVuSans-32"/>
      <use x="405.419922" xlink:href="#DejaVuSans-91"/>
      <use x="444.433594" xlink:href="#DejaVuSans-109"/>
      <use x="541.845703" xlink:href="#DejaVuSans-86"/>
      <use x="610.253906" xlink:href="#DejaVuSans-93"/>
     </g>
    </g>
   </g>
   <g id="line2d_13">
    <path clip-path="url(#p755f389fb6)" d="M 80.754545 342.476577 
L 81.952977 342.339971 
L 83.772818 342.397088 
L 85.965505 342.416039 
L 151.772727 342.407353 
L 152.314241 297.762296 
L 152.420768 248.994063 
L 152.562805 66.96 
L 152.678209 92.24653 
L 153.565936 369.036514 
L 153.610323 368.935705 
L 153.8145 367.553066 
L 154.293873 362.786343 
L 154.959668 353.640079 
L 157.42755 314.642443 
L 157.613973 303.484732 
L 157.738255 281.459104 
L 157.835905 218.731559 
L 157.969064 91.387678 
L 158.031205 104.576049 
L 158.883423 368.610905 
L 158.945564 368.426921 
L 159.203005 366.442322 
L 159.717886 360.75384 
L 160.534595 348.79413 
L 161.8218 330.614254 
L 162.514227 320.219324 
L 162.771668 312.678111 
L 162.940336 300.653915 
L 163.064618 272.611055 
L 163.162268 187.98088 
L 163.268795 92.31049 
L 163.322059 101.849726 
L 163.863573 297.483294 
L 164.147645 368.433765 
L 164.183155 368.579056 
L 164.245295 368.397179 
L 164.493859 366.488384 
L 165.008741 360.819642 
L 165.834327 348.736487 
L 167.112655 330.689006 
L 167.813959 320.183791 
L 168.0714 312.632839 
L 168.240068 300.569161 
L 168.36435 272.364165 
L 168.462 187.233233 
L 168.568527 92.38761 
L 168.621791 102.072401 
L 169.172182 301.445912 
L 169.4385 368.347695 
L 169.482886 368.576951 
L 169.545027 368.391125 
L 169.802468 366.398366 
L 170.31735 360.691986 
L 171.151814 348.446693 
L 172.430141 330.445537 
L 173.113691 320.165366 
L 173.371132 312.596253 
L 173.5398 300.47309 
L 173.664082 272.025151 
L 173.761732 186.078771 
L 173.868259 92.404456 
L 173.921523 102.309027 
L 174.480791 305.52829 
L 174.729355 368.237937 
L 174.782618 368.576951 
L 174.844759 368.386913 
L 175.1022 366.390996 
L 175.617082 360.681194 
L 176.451545 348.433796 
L 177.729873 330.434746 
L 178.413423 320.148521 
L 178.670864 312.560193 
L 178.839532 300.375702 
L 178.963814 271.677188 
L 179.061464 184.890512 
L 179.167991 92.421827 
L 179.221255 102.548284 
L 179.7894 309.71411 
L 180.029086 368.250308 
L 180.08235 368.577214 
L 180.144491 368.382439 
L 180.401932 366.383626 
L 180.916814 360.670666 
L 181.751277 348.421425 
L 183.029605 330.424217 
L 183.713155 320.131412 
L 183.970595 312.52387 
L 184.139264 300.277262 
L 184.263545 271.321066 
L 184.361195 183.681354 
L 184.467723 92.44578 
L 184.520986 102.791226 
L 185.098009 313.992053 
L 185.328818 368.262415 
L 185.382082 368.577214 
L 185.444223 368.378228 
L 185.701664 366.375993 
L 186.216545 360.660137 
L 187.051009 348.408791 
L 188.329336 330.413689 
L 189.012886 320.114567 
L 189.270327 312.487284 
L 189.438995 300.177242 
L 189.563277 270.95968 
L 189.660927 182.467379 
L 189.767455 92.475522 
L 189.820718 103.036537 
L 190.406618 318.342378 
L 190.619673 368.128179 
L 190.681814 368.576951 
L 190.743955 368.373753 
L 191.010273 366.287029 
L 191.525155 360.534323 
L 192.368495 348.122419 
L 193.637945 330.287348 
L 194.312618 320.097195 
L 194.570059 312.450698 
L 194.738727 300.076696 
L 194.863009 270.594871 
L 194.969536 167.852518 
L 195.058309 92.462099 
L 195.12045 103.284481 
L 195.715227 322.739028 
L 195.919405 368.143708 
L 195.981545 368.576951 
L 196.043686 368.369278 
L 196.310005 366.279396 
L 196.833764 360.407983 
L 197.703736 347.563099 
L 198.955432 330.045459 
L 199.61235 320.080087 
L 199.869791 312.413586 
L 200.038459 299.975098 
L 200.162741 270.222693 
L 200.269268 166.585664 
L 200.358041 92.432619 
L 200.420182 103.536635 
L 201.023836 327.144891 
L 201.219136 368.158448 
L 201.281277 368.576424 
L 201.343418 368.364804 
L 201.609736 366.271762 
L 202.133495 360.396928 
L 202.994591 347.686808 
L 204.255164 330.034667 
L 204.912082 320.062452 
L 205.169523 312.375947 
L 205.338191 299.871919 
L 205.462473 269.842882 
L 205.569 165.310309 
L 205.657773 92.410246 
L 205.719914 103.790632 
L 206.332445 331.511799 
L 206.518868 368.173187 
L 206.581009 368.576161 
L 206.634273 368.406917 
L 206.873959 366.586824 
L 207.388841 360.959933 
L 208.187795 349.316601 
L 209.510509 330.601094 
L 210.202936 320.229853 
L 210.460377 312.732069 
L 210.629045 300.837898 
L 210.753327 273.319878 
L 210.850977 190.548593 
L 210.957505 92.39498 
L 211.019645 104.045682 
L 211.641055 335.78553 
L 211.827477 368.319269 
L 211.880741 368.575635 
L 211.934005 368.402706 
L 212.182568 366.499439 
L 212.69745 360.835435 
L 213.514159 348.89257 
L 214.810241 330.590302 
L 215.502668 320.212744 
L 215.760109 312.696009 
L 215.928777 300.7413 
L 216.053059 272.979549 
L 216.150709 189.366256 
L 216.257236 92.388663 
L 216.319377 104.300206 
L 216.949664 339.902389 
L 217.127209 368.329797 
L 217.171595 368.576161 
L 217.233736 368.398495 
L 217.4823 366.492069 
L 217.997182 360.824906 
L 218.822768 348.742804 
L 220.101095 330.694797 
L 220.8024 320.195636 
L 221.059841 312.660213 
L 221.228509 300.644966 
L 221.352791 272.637903 
L 221.450441 188.184499 
L 221.556968 92.38919 
L 221.610232 101.886839 
L 222.151745 297.538831 
L 222.426941 368.339799 
L 222.471327 368.576424 
L 222.533468 368.394283 
L 222.782032 366.484699 
L 223.296914 360.814378 
L 224.1225 348.729907 
L 225.418582 330.453697 
L 226.111009 319.992964 
L 226.36845 312.22618 
L 226.537118 299.457365 
L 226.652523 272.293625 
L 226.750173 186.998029 
L 226.8567 92.395243 
L 226.909964 102.125043 
L 227.460355 301.521453 
L 227.726673 368.349538 
L 227.771059 368.576951 
L 227.8332 368.390072 
L 228.090641 366.396524 
L 228.605523 360.689354 
L 229.439986 348.443535 
L 230.718314 330.442905 
L 231.401864 320.161418 
L 231.659305 312.58783 
L 231.827973 300.45098 
L 231.952255 271.946978 
L 232.049905 185.81135 
L 232.156432 92.408141 
L 232.209695 102.362984 
L 232.768964 305.60699 
L 233.017527 368.240832 
L 233.070791 368.576951 
L 233.132932 368.385861 
L 233.390373 366.389154 
L 233.905255 360.678825 
L 234.739718 348.430901 
L 236.018045 330.432377 
L 236.701595 320.144573 
L 236.959036 312.552034 
L 237.127705 300.353593 
L 237.251986 271.597173 
L 237.349636 184.617879 
L 237.456164 92.426565 
L 237.509427 102.603295 
L 238.077573 309.795178 
L 238.317259 368.25294 
L 238.370523 368.577214 
L 238.432664 368.381649 
L 238.690105 366.381784 
L 239.204986 360.668297 
L 240.03945 348.41853 
L 241.317777 330.421848 
L 242.001327 320.127728 
L 242.258768 312.515711 
L 242.427436 300.254626 
L 242.551718 271.239208 
L 242.649368 183.405905 
L 242.755895 92.452097 
L 242.809159 102.846763 
L 243.386182 314.074963 
L 243.616991 368.265047 
L 243.670255 368.577214 
L 243.732395 368.377175 
L 243.989836 366.374414 
L 244.504718 360.657769 
L 245.348059 348.269027 
L 246.617509 330.411057 
L 247.301059 320.110619 
L 247.5585 312.479125 
L 247.727168 300.154343 
L 247.85145 270.877295 
L 247.9491 182.190746 
L 248.055627 92.483418 
L 248.108891 103.092601 
L 248.694791 318.427131 
L 248.907845 368.131863 
L 248.969986 368.576951 
L 249.032127 368.372963 
L 249.298445 366.285449 
L 249.822205 360.416405 
L 250.692177 347.573101 
L 251.943873 330.053882 
L 252.600791 320.093247 
L 252.858232 312.442275 
L 253.0269 300.053534 
L 253.151182 270.510644 
L 253.257709 167.564093 
L 253.346482 92.454729 
L 253.408623 103.34186 
L 254.0034 322.825361 
L 254.207577 368.14713 
L 254.269718 368.576687 
L 254.331859 368.368489 
L 254.598177 366.277816 
L 255.121936 360.405351 
L 255.983032 347.69681 
L 257.22585 330.274188 
L 257.900523 320.076139 
L 258.157964 312.405163 
L 258.326632 299.951672 
L 258.450914 270.136624 
L 258.557441 166.294634 
L 258.646214 92.426828 
L 258.708355 103.594805 
L 259.312009 327.231224 
L 259.507309 368.161869 
L 259.56945 368.576424 
L 259.631591 368.363751 
L 259.897909 366.26992 
L 260.421668 360.394559 
L 261.291641 347.54757 
L 262.525582 330.263396 
L 263.200255 320.058503 
L 263.457695 312.367524 
L 263.626364 299.848231 
L 263.750645 269.755496 
L 263.857173 165.018752 
L 263.945945 92.406035 
L 264.008086 103.848802 
L 264.620618 331.596815 
L 264.807041 368.176609 
L 264.869182 368.575898 
L 264.922445 368.406128 
L 265.171009 366.505229 
L 265.685891 360.843858 
L 266.511477 348.76544 
L 267.807559 330.483439 
L 268.499986 320.041132 
L 268.757427 312.329885 
L 268.926095 299.744789 
L 269.050377 269.374369 
L 269.156905 163.752373 
L 269.245677 92.392874 
L 269.298941 101.46702 
L 269.8227 289.958136 
L 270.133405 368.488512 
L 270.168914 368.575635 
L 270.222177 368.401916 
L 270.470741 366.497859 
L 270.985623 360.833066 
L 271.802332 348.889675 
L 273.098414 330.587934 
L 273.790841 320.208796 
L 274.048282 312.68785 
L 274.21695 300.719454 
L 274.341232 272.901639 
L 274.438882 189.095782 
L 274.545409 92.3884 
L 274.598673 101.703645 
L 275.131309 293.735455 
L 275.424259 368.426395 
L 275.459768 368.576161 
L 275.521909 368.397705 
L 275.770473 366.490489 
L 276.285355 360.822538 
L 277.110941 348.739909 
L 278.389268 330.692428 
L 279.090573 320.191687 
L 279.348014 312.65179 
L 279.516682 300.622856 
L 279.640964 272.559466 
L 279.738614 187.913919 
L 279.845141 92.389716 
L 279.898405 101.941323 
L 280.439918 297.614899 
L 280.715114 368.341905 
L 280.7595 368.576687 
L 280.821641 368.393494 
L 281.079082 366.402314 
L 281.593964 360.697513 
L 282.428427 348.453274 
L 283.706755 330.451065 
L 284.390305 320.174579 
L 284.647745 312.61573 
L 284.816414 300.525995 
L 284.940695 272.214662 
L 285.038345 186.727345 
L 285.144873 92.397612 
L 285.198136 102.179264 
L 285.748527 301.598573 
L 286.014845 368.351643 
L 286.059232 368.576951 
L 286.121373 368.389019 
L 286.378814 366.394944 
L 286.893695 360.686985 
L 287.728159 348.44064 
L 289.006486 330.440536 
L 289.690036 320.157733 
L 289.947477 312.579671 
L 290.116145 300.428871 
L 290.240427 271.867489 
L 290.338077 185.53977 
L 290.444605 92.411826 
L 290.497868 102.417469 
L 291.057136 305.686479 
L 291.3057 368.243727 
L 291.358964 368.577214 
L 291.421105 368.384808 
L 291.678545 366.387575 
L 292.193427 360.676456 
L 293.027891 348.428006 
L 294.315095 330.314459 
L 294.989768 320.140625 
L 295.247209 312.543611 
L 295.415877 300.33122 
L 295.540159 271.516104 
L 295.637809 184.342378 
L 295.744336 92.431829 
L 295.7976 102.658569 
L 296.365745 309.876773 
L 296.605432 368.255835 
L 296.658695 368.577214 
L 296.720836 368.380596 
L 296.978277 366.380205 
L 297.493159 360.665928 
L 298.327623 348.415635 
L 299.60595 330.419479 
L 300.2895 320.123779 
L 300.546941 312.507288 
L 300.715609 300.231727 
L 300.839891 271.157087 
L 300.937541 183.130062 
L 301.044068 92.458677 
L 301.097332 102.902301 
L 301.674355 314.157874 
L 301.905164 368.26768 
L 301.958427 368.577214 
L 302.020568 368.376385 
L 302.286886 366.29124 
L 302.810645 360.424565 
L 303.671741 347.719446 
L 304.914559 330.293402 
L 305.589232 320.106671 
L 305.846673 312.470702 
L 306.015341 300.131707 
L 306.139623 270.794647 
L 306.24615 168.538441 
L 306.334923 92.480786 
L 306.397064 103.148928 
L 306.982964 318.511885 
L 307.196018 368.135285 
L 307.258159 368.576951 
L 307.3203 368.37191 
L 307.586618 366.283607 
L 308.110377 360.413773 
L 308.971473 347.706812 
L 310.214291 330.282611 
L 310.888964 320.089562 
L 311.146405 312.433853 
L 311.315073 300.030635 
L 311.439355 270.426154 
L 311.545882 167.276694 
L 311.634655 92.447885 
L 311.696795 103.398977 
L 312.291573 322.911167 
L 312.49575 368.150551 
L 312.557891 368.576687 
L 312.620032 368.367436 
L 312.88635 366.275974 
L 313.410109 360.402982 
L 314.280082 347.557309 
L 315.531777 330.040458 
L 316.188695 320.071927 
L 316.446136 312.396477 
L 316.614805 299.928246 
L 316.739086 270.050817 
L 316.845614 166.004709 
L 316.934386 92.421564 
L 316.996527 103.652447 
L 317.600182 327.317293 
L 317.795482 368.165291 
L 317.857623 368.576424 
L 317.910886 368.409286 
L 318.150573 366.590772 
L 318.665455 360.965724 
L 319.464409 349.323444 
L 320.787123 330.607148 
L 321.488427 320.054555 
L 321.745868 312.358838 
L 321.914536 299.824542 
L 322.038818 269.668374 
L 322.145345 164.72859 
L 322.234118 92.40235 
L 322.296259 103.906971 
L 322.908791 331.681569 
L 323.095214 368.180031 
L 323.157355 368.575898 
L 323.210618 368.405075 
L 323.459182 366.50365 
L 323.974064 360.841225 
L 324.790773 348.899414 
L 326.095732 330.480807 
L 326.779282 320.221957 
L 327.036723 312.71575 
L 327.205391 300.793942 
L 327.329673 273.164848 
L 327.427323 190.00954 
L 327.53385 92.391032 
L 327.595991 104.161758 
L 328.2174 335.949246 
L 328.403823 368.324006 
L 328.457086 368.575371 
L 328.51035 368.400864 
L 328.758914 366.496017 
L 329.273795 360.830697 
L 329.318182 360.254005 
L 329.335936 361.157866 
L 329.531236 365.16602 
L 329.620009 365.354741 
L 329.664395 365.297098 
L 329.815309 364.687505 
L 330.214786 361.85774 
L 332.176664 347.033522 
L 332.869091 343.796836 
L 333.428359 342.133878 
L 333.889977 341.387416 
L 334.262823 341.159477 
L 334.609036 341.196326 
L 335.061777 341.486646 
L 336.553159 342.581598 
L 337.156814 342.678722 
L 338.097805 342.568174 
L 339.580309 342.372873 
L 342.101455 342.409195 
L 345.714505 342.405247 
L 435.845455 342.407353 
L 435.845455 342.407353 
" style="fill:none;stroke:#1f77b4;stroke-linecap:square;stroke-width:1.5;"/>
   </g>
   <g id="line2d_14">
    <path clip-path="url(#p755f389fb6)" d="M 80.754545 342.476577 
L 81.1629 336.568953 
L 81.739923 331.31664 
L 82.23705 328.518949 
L 82.485614 328.033957 
L 82.592141 328.137374 
L 82.743055 328.716641 
L 82.964986 330.665134 
L 83.426605 337.430619 
L 83.817205 341.38351 
L 84.083523 342.284786 
L 84.261068 342.339854 
L 84.447491 342.105144 
L 84.811459 341.197552 
L 85.929995 338.27731 
L 86.400491 337.652019 
L 86.791091 337.464949 
L 87.199445 337.519753 
L 87.936259 337.906151 
L 88.735214 338.221234 
L 89.480905 338.260305 
L 93.235991 338.123314 
L 100.391073 338.122275 
L 151.772727 338.122295 
L 152.305364 294.649576 
L 152.403014 244.370449 
L 152.54505 70.620712 
L 152.6427 91.911117 
L 153.52155 368.173545 
L 153.610323 367.751261 
L 153.992045 364.15005 
L 154.604577 356.127383 
L 156.433295 330.832269 
L 157.187864 320.593677 
L 157.445305 313.594841 
L 157.613973 302.189709 
L 157.738255 274.542966 
L 157.835905 184.56917 
L 157.933555 89.420371 
L 157.995695 99.681713 
L 158.537209 290.611861 
L 158.839036 367.799286 
L 158.856791 367.81562 
L 158.8923 367.701292 
L 159.096477 366.039361 
L 159.620236 359.967528 
L 160.738773 343.442187 
L 161.741905 330.675325 
L 162.50535 320.514634 
L 162.762791 313.747896 
L 162.931459 302.995697 
L 163.055741 278.055768 
L 163.153391 199.08186 
L 163.268795 90.160415 
L 163.322059 100.202881 
L 163.863573 291.412001 
L 164.1654 367.777797 
L 164.183155 367.788026 
L 164.218664 367.666947 
L 164.431718 365.908467 
L 164.964355 359.664548 
L 167.97375 317.350186 
L 168.177927 309.272 
L 168.319964 294.012314 
L 168.426491 253.798025 
L 168.586282 90.153986 
L 168.701686 118.43529 
L 169.491764 367.78069 
L 169.509518 367.783597 
L 169.53615 367.698557 
L 169.722573 366.225081 
L 170.237455 360.34788 
L 171.222832 345.795702 
L 172.234841 332.46881 
L 173.175832 320.083457 
L 173.424395 313.213141 
L 173.593064 301.560024 
L 173.708468 276.527382 
L 173.806118 193.277679 
L 173.912645 90.126676 
L 173.974786 101.389933 
L 174.551809 307.847574 
L 174.791495 367.640706 
L 174.827005 367.789515 
L 174.889145 367.537059 
L 175.190973 364.785271 
L 175.767995 357.497852 
L 177.907418 328.397158 
L 178.493318 320.214535 
L 178.750759 313.126916 
L 178.919427 301.317901 
L 179.034832 275.708146 
L 179.132482 190.172183 
L 179.239009 90.136568 
L 179.292273 99.446316 
L 179.780523 271.100356 
L 180.153368 367.788484 
L 180.171123 367.752301 
L 180.304282 366.829255 
L 180.774777 361.781916 
L 181.538223 350.824186 
L 182.736655 334.216203 
L 183.855191 319.467642 
L 184.094877 312.256859 
L 184.254668 299.961172 
L 184.370073 270.941433 
L 184.467723 172.894558 
L 184.565373 90.184611 
L 184.618636 100.020818 
L 185.142395 284.423559 
L 185.470855 367.788661 
L 185.515241 367.668351 
L 185.728295 365.912569 
L 186.260932 359.670318 
L 189.270327 317.365754 
L 189.474505 309.310852 
L 189.616541 294.131601 
L 189.723068 254.262854 
L 189.882859 90.178319 
L 190.007141 121.447719 
L 190.779464 367.749336 
L 190.797218 367.789599 
L 190.850482 367.608351 
L 191.107923 365.364878 
L 191.658314 358.665769 
L 194.667709 315.216115 
L 194.854132 305.226798 
L 194.987291 282.962778 
L 195.084941 218.465802 
L 195.209223 90.131824 
L 195.280241 103.870113 
L 195.928282 343.486795 
L 196.09695 367.710469 
L 196.123582 367.789666 
L 196.176845 367.596129 
L 196.443164 365.253469 
L 197.002432 358.388393 
L 200.011827 314.530128 
L 200.189373 304.22108 
L 200.313655 282.315174 
L 200.411305 215.914015 
L 200.535586 90.129583 
L 200.597727 101.808574 
L 201.183627 312.428079 
L 201.414436 367.654652 
L 201.449945 367.788875 
L 201.503209 367.583746 
L 201.778405 365.141258 
L 202.337673 358.234611 
L 204.7878 325.220399 
L 205.196155 318.515519 
L 205.418086 310.979213 
L 205.569 297.556021 
L 205.684405 261.838534 
L 205.799809 120.320585 
L 205.86195 90.165857 
L 205.924091 102.420301 
L 206.527745 321.501444 
L 206.731923 367.579121 
L 206.767432 367.788221 
L 206.829573 367.571147 
L 207.104768 365.120049 
L 207.672914 358.080257 
L 210.034268 326.20958 
L 210.487009 319.25188 
L 210.726695 311.77033 
L 210.886486 298.558035 
L 211.001891 265.729223 
L 211.108418 142.081036 
L 211.179436 90.201906 
L 211.241577 100.427678 
L 211.791968 295.246689 
L 212.076041 367.746349 
L 212.093795 367.789406 
L 212.147059 367.612012 
L 212.395623 365.460804 
L 212.946014 358.798059 
L 215.955409 315.527079 
L 216.141832 306.03893 
L 216.274991 285.753719 
L 216.372641 229.424669 
L 216.5058 90.140162 
L 216.585695 106.475149 
L 217.420159 367.789738 
L 217.4823 367.545166 
L 217.77525 364.892148 
L 218.352273 357.642925 
L 220.536082 327.991566 
L 221.09535 320.067671 
L 221.343914 313.179401 
L 221.512582 301.465612 
L 221.627986 276.210173 
L 221.725636 192.072432 
L 221.832164 90.126163 
L 221.894305 101.624993 
L 222.480205 312.148228 
L 222.711014 367.648661 
L 222.746523 367.789194 
L 222.799786 367.587515 
L 223.066105 365.238803 
L 223.625373 358.36825 
L 226.634768 314.478519 
L 226.812314 304.083587 
L 226.936595 281.855118 
L 227.034245 214.094723 
L 227.158527 90.151289 
L 227.220668 102.233382 
L 227.824323 321.211247 
L 228.0285 367.571063 
L 228.072886 367.787885 
L 228.135027 367.518422 
L 228.445732 364.660559 
L 229.031632 357.201574 
L 231.082282 329.196631 
L 231.730323 320.328884 
L 231.987764 313.375922 
L 232.156432 302.014634 
L 232.280714 274.529144 
L 232.378364 185.752315 
L 232.484891 90.214021 
L 232.538155 100.247896 
L 233.079668 291.479683 
L 233.381495 367.776169 
L 233.39925 367.785878 
L 233.434759 367.664225 
L 233.647814 365.904802 
L 234.18045 359.659435 
L 237.189845 317.344719 
L 237.394023 309.260917 
L 237.536059 293.981304 
L 237.642586 253.681886 
L 237.802377 90.15368 
L 237.917782 118.497343 
L 238.707859 367.780895 
L 238.725614 367.783204 
L 238.752245 367.697625 
L 238.938668 366.223315 
L 239.45355 360.345388 
L 240.438927 345.792924 
L 241.450936 332.466619 
L 242.391927 320.080009 
L 242.640491 313.205888 
L 242.809159 301.539863 
L 242.924564 276.459941 
L 243.022214 193.020906 
L 243.128741 90.126233 
L 243.190882 101.440498 
L 243.767905 307.923572 
L 244.007591 367.64244 
L 244.0431 367.789448 
L 244.105241 367.535929 
L 244.407068 364.783424 
L 244.984091 357.49535 
L 247.114636 328.499739 
L 247.709414 320.211223 
L 247.966855 313.119658 
L 248.135523 301.297429 
L 248.250927 275.63843 
L 248.348577 189.908792 
L 248.455105 90.139299 
L 248.508368 99.494293 
L 249.005495 274.214949 
L 249.369464 367.788363 
L 249.378341 367.775709 
L 249.475991 367.197275 
L 249.893223 362.968893 
L 250.567895 353.659338 
L 252.006014 333.575859 
L 253.053532 319.824553 
L 253.302095 312.649109 
L 253.461886 301.051905 
L 253.577291 274.792782 
L 253.674941 186.733385 
L 253.781468 90.190543 
L 253.834732 100.069598 
L 254.367368 287.818381 
L 254.678073 367.774535 
L 254.695827 367.786569 
L 254.731336 367.667464 
L 254.944391 365.910896 
L 255.477027 359.667973 
L 258.486423 317.361221 
L 258.6906 309.300094 
L 258.832636 294.099237 
L 258.939164 254.137801 
L 259.098955 90.172416 
L 259.223236 121.511706 
L 259.995559 367.750144 
L 260.013314 367.789645 
L 260.066577 367.607346 
L 260.324018 365.363129 
L 260.874409 358.663362 
L 263.883805 315.210356 
L 264.070227 305.211516 
L 264.203386 282.909121 
L 264.301036 218.254578 
L 264.425318 90.130235 
L 264.496336 103.923315 
L 265.153255 347.009025 
L 265.321923 367.758983 
L 265.339677 367.789633 
L 265.384064 367.645689 
L 265.614873 365.697227 
L 266.156386 359.248539 
L 269.174659 316.259677 
L 269.369959 307.209278 
L 269.503118 289.545515 
L 269.600768 243.89116 
L 269.751682 90.131059 
L 269.849332 113.415036 
L 270.666041 367.788777 
L 270.674918 367.777019 
L 270.763691 367.271684 
L 271.163168 363.288534 
L 271.820086 354.338167 
L 273.3381 333.160589 
L 274.350109 319.837143 
L 274.598673 312.676949 
L 274.758464 301.127809 
L 274.873868 275.055045 
L 274.971518 187.712271 
L 275.078045 90.170541 
L 275.131309 99.892155 
L 275.655068 284.254185 
L 275.983527 367.788352 
L 276.027914 367.670675 
L 276.240968 365.916979 
L 276.773605 359.676498 
L 279.783 317.377679 
L 279.987177 309.33913 
L 280.129214 294.216624 
L 280.235741 254.590404 
L 280.395532 90.194971 
L 280.519814 121.278753 
L 281.292136 367.747184 
L 281.309891 367.789471 
L 281.363155 367.611015 
L 281.620595 365.369512 
L 282.170986 358.672146 
L 285.180382 315.231315 
L 285.366805 305.267093 
L 285.499964 283.104154 
L 285.597614 219.022483 
L 285.721895 90.137545 
L 285.792914 103.729757 
L 286.432077 339.60235 
L 286.609623 367.707272 
L 286.636255 367.78972 
L 286.689518 367.598849 
L 286.946959 365.348506 
L 287.49735 358.643245 
L 290.506745 315.162272 
L 290.693168 305.083819 
L 290.81745 285.127062 
L 290.9151 226.986649 
L 291.048259 90.126721 
L 291.119277 104.366633 
L 291.962618 367.789113 
L 292.051391 367.343815 
L 292.433114 363.602512 
L 293.072277 355.012415 
L 294.687941 332.537418 
L 295.637809 320.02432 
L 295.886373 313.086031 
L 296.055041 301.202399 
L 296.170445 275.312143 
L 296.268095 188.678118 
L 296.374623 90.15502 
L 296.427886 99.717315 
L 296.933891 277.606387 
L 297.280105 367.787827 
L 297.288982 367.787745 
L 297.351123 367.517296 
L 297.661827 364.658732 
L 298.247727 357.199107 
L 300.298377 329.19463 
L 300.946418 320.325638 
L 301.203859 313.368921 
L 301.372527 301.995259 
L 301.496809 274.456676 
L 301.594459 185.482584 
L 301.700986 90.220922 
L 301.75425 100.296987 
L 302.295764 291.547258 
L 302.597591 367.776609 
L 302.615345 367.785683 
L 302.650855 367.663334 
L 302.863909 365.903128 
L 303.396545 359.657091 
L 306.405941 317.340193 
L 306.610118 309.250168 
L 306.752155 293.948926 
L 306.858682 253.556659 
L 307.018473 90.149394 
L 307.133877 118.560533 
L 307.923955 367.781237 
L 307.941709 367.78294 
L 307.968341 367.696817 
L 308.154764 366.221681 
L 308.669645 360.343079 
L 309.655023 345.790347 
L 310.667032 332.464566 
L 311.608023 320.076631 
L 311.856586 313.198651 
L 312.025255 301.51958 
L 312.140659 276.391876 
L 312.238309 192.762019 
L 312.344836 90.125863 
L 312.406977 101.491073 
L 312.992877 311.943494 
L 313.223686 367.644162 
L 313.259195 367.789383 
L 313.321336 367.53481 
L 313.623164 364.781596 
L 314.200186 357.492874 
L 316.330732 328.497705 
L 316.925509 320.207928 
L 317.18295 313.112427 
L 317.351618 301.277012 
L 317.467023 275.56856 
L 317.564673 189.644916 
L 317.6712 90.142279 
L 317.724464 99.542171 
L 318.221591 274.274876 
L 318.585559 367.78824 
L 318.594436 367.775343 
L 318.692086 367.195904 
L 319.109318 362.966849 
L 319.783991 353.656724 
L 321.222109 333.573795 
L 322.269627 319.821107 
L 322.518191 312.641489 
L 322.677982 301.031123 
L 322.793386 274.720935 
L 322.891036 186.466011 
L 322.997564 90.196662 
L 323.050827 100.118072 
L 323.583464 287.883646 
L 323.894168 367.774986 
L 323.911923 367.786385 
L 323.947432 367.666583 
L 324.160486 365.909236 
L 324.693123 359.665648 
L 327.702518 317.356723 
L 327.906695 309.289419 
L 328.048732 294.067111 
L 328.155259 254.013638 
L 328.31505 90.166846 
L 328.430455 118.330116 
L 329.220532 367.779946 
L 329.238286 367.783865 
L 329.264918 367.699737 
L 329.318182 367.368541 
L 329.327059 367.821543 
L 329.433586 369.36 
L 329.469095 369.297698 
L 329.646641 368.348832 
L 330.1704 364.222011 
L 331.182409 354.008834 
L 332.114523 345.70159 
L 332.824705 341.235636 
L 333.428359 338.710716 
L 333.916609 337.503584 
L 334.289455 337.089422 
L 334.609036 337.033983 
L 334.964127 337.217009 
L 336.579791 338.353893 
L 337.210077 338.339833 
L 339.633573 338.075972 
L 344.081086 338.119701 
L 435.845455 338.122295 
L 435.845455 338.122295 
" style="fill:none;stroke:#ff0000;stroke-linecap:square;stroke-width:1.5;"/>
   </g>
   <g id="patch_3">
    <path d="M 63 384.48 
L 63 51.84 
" style="fill:none;stroke:#000000;stroke-linecap:square;stroke-linejoin:miter;stroke-width:0.8;"/>
   </g>
   <g id="patch_4">
    <path d="M 453.6 384.48 
L 453.6 51.84 
" style="fill:none;stroke:#000000;stroke-linecap:square;stroke-linejoin:miter;stroke-width:0.8;"/>
   </g>
   <g id="patch_5">
    <path d="M 63 384.48 
L 453.6 384.48 
" style="fill:none;stroke:#000000;stroke-linecap:square;stroke-linejoin:miter;stroke-width:0.8;"/>
   </g>
   <g id="patch_6">
    <path d="M 63 51.84 
L 453.6 51.84 
" style="fill:none;stroke:#000000;stroke-linecap:square;stroke-linejoin:miter;stroke-width:0.8;"/>
   </g>
   <g id="legend_1">
    <g id="patch_7">
     <path d="M 383.460938 89.19625 
L 446.6 89.19625 
Q 448.6 89.19625 448.6 87.19625 
L 448.6 58.84 
Q 448.6 56.84 446.6 56.84 
L 383.460938 56.84 
Q 381.460938 56.84 381.460938 58.84 
L 381.460938 87.19625 
Q 381.460938 89.19625 383.460938 89.19625 
z
" style="fill:#ffffff;opacity:0.8;stroke:#cccccc;stroke-linejoin:miter;"/>
    </g>
    <g id="line2d_15">
     <path d="M 385.460938 64.938437 
L 405.460938 64.938437 
" style="fill:none;stroke:#1f77b4;stroke-linecap:square;stroke-width:1.5;"/>
    </g>
    <g id="line2d_16"/>
    <g id="text_15">
     <!-- target -->
     <defs>
      <path d="M 41.109375 46.296875 
Q 39.59375 47.171875 37.8125 47.578125 
Q 36.03125 48 33.890625 48 
Q 26.265625 48 22.1875 43.046875 
Q 18.109375 38.09375 18.109375 28.8125 
L 18.109375 0 
L 9.078125 0 
L 9.078125 54.6875 
L 18.109375 54.6875 
L 18.109375 46.1875 
Q 20.953125 51.171875 25.484375 53.578125 
Q 30.03125 56 36.53125 56 
Q 37.453125 56 38.578125 55.875 
Q 39.703125 55.765625 41.0625 55.515625 
z
" id="DejaVuSans-114"/>
     </defs>
     <g transform="translate(413.460938 68.438437)scale(0.1 -0.1)">
      <use xlink:href="#DejaVuSans-116"/>
      <use x="39.208984" xlink:href="#DejaVuSans-97"/>
      <use x="100.488281" xlink:href="#DejaVuSans-114"/>
      <use x="141.585938" xlink:href="#DejaVuSans-103"/>
      <use x="205.0625" xlink:href="#DejaVuSans-101"/>
      <use x="266.585938" xlink:href="#DejaVuSans-116"/>
     </g>
    </g>
    <g id="line2d_17">
     <path d="M 385.460938 79.616562 
L 405.460938 79.616562 
" style="fill:none;stroke:#ff0000;stroke-linecap:square;stroke-width:1.5;"/>
    </g>
    <g id="line2d_18"/>
    <g id="text_16">
     <!-- model -->
     <defs>
      <path d="M 45.40625 46.390625 
L 45.40625 75.984375 
L 54.390625 75.984375 
L 54.390625 0 
L 45.40625 0 
L 45.40625 8.203125 
Q 42.578125 3.328125 38.25 0.953125 
Q 33.9375 -1.421875 27.875 -1.421875 
Q 17.96875 -1.421875 11.734375 6.484375 
Q 5.515625 14.40625 5.515625 27.296875 
Q 5.515625 40.1875 11.734375 48.09375 
Q 17.96875 56 27.875 56 
Q 33.9375 56 38.25 53.625 
Q 42.578125 51.265625 45.40625 46.390625 
z
M 14.796875 27.296875 
Q 14.796875 17.390625 18.875 11.75 
Q 22.953125 6.109375 30.078125 6.109375 
Q 37.203125 6.109375 41.296875 11.75 
Q 45.40625 17.390625 45.40625 27.296875 
Q 45.40625 37.203125 41.296875 42.84375 
Q 37.203125 48.484375 30.078125 48.484375 
Q 22.953125 48.484375 18.875 42.84375 
Q 14.796875 37.203125 14.796875 27.296875 
z
" id="DejaVuSans-100"/>
     </defs>
     <g transform="translate(413.460938 83.116562)scale(0.1 -0.1)">
      <use xlink:href="#DejaVuSans-109"/>
      <use x="97.412109" xlink:href="#DejaVuSans-111"/>
      <use x="158.59375" xlink:href="#DejaVuSans-100"/>
      <use x="222.070312" xlink:href="#DejaVuSans-101"/>
      <use x="283.59375" xlink:href="#DejaVuSans-108"/>
     </g>
    </g>
   </g>
  </g>
 </g>
 <defs>
  <clipPath id="p755f389fb6">
   <rect height="332.64" width="390.6" x="63" y="51.84"/>
  </clipPath>
 </defs>
</svg>
