<?xml version="1.0" encoding="utf-8" standalone="no"?>
<!DOCTYPE svg PUBLIC "-//W3C//DTD SVG 1.1//EN"
  "http://www.w3.org/Graphics/SVG/1.1/DTD/svg11.dtd">
<!-- Created with matplotlib (https://matplotlib.org/) -->
<svg height="432pt" version="1.1" viewBox="0 0 504 432" width="504pt" xmlns="http://www.w3.org/2000/svg" xmlns:xlink="http://www.w3.org/1999/xlink">
 <metadata>
  <rdf:RDF xmlns:cc="http://creativecommons.org/ns#" xmlns:dc="http://purl.org/dc/elements/1.1/" xmlns:rdf="http://www.w3.org/1999/02/22-rdf-syntax-ns#">
   <cc:Work>
    <dc:type rdf:resource="http://purl.org/dc/dcmitype/StillImage"/>
    <dc:date>2021-02-06T21:26:58.514906</dc:date>
    <dc:format>image/svg+xml</dc:format>
    <dc:creator>
     <cc:Agent>
      <dc:title>Matplotlib v3.3.2, https://matplotlib.org/</dc:title>
     </cc:Agent>
    </dc:creator>
   </cc:Work>
  </rdf:RDF>
 </metadata>
 <defs>
  <style type="text/css">*{stroke-linecap:butt;stroke-linejoin:round;}</style>
 </defs>
 <g id="figure_1">
  <g id="patch_1">
   <path d="M 0 432 
L 504 432 
L 504 0 
L 0 0 
z
" style="fill:#ffffff;"/>
  </g>
  <g id="axes_1">
   <g id="patch_2">
    <path d="M 63 384.48 
L 453.6 384.48 
L 453.6 51.84 
L 63 51.84 
z
" style="fill:#ffffff;"/>
   </g>
   <g id="matplotlib.axis_1">
    <g id="xtick_1">
     <g id="line2d_1">
      <defs>
       <path d="M 0 0 
L 0 3.5 
" id="m354af281e4" style="stroke:#000000;stroke-width:0.8;"/>
      </defs>
      <g>
       <use style="stroke:#000000;stroke-width:0.8;" x="80.754545" xlink:href="#m354af281e4" y="384.48"/>
      </g>
     </g>
     <g id="text_1">
      <!-- 0 -->
      <g transform="translate(77.573295 399.078438)scale(0.1 -0.1)">
       <defs>
        <path d="M 31.78125 66.40625 
Q 24.171875 66.40625 20.328125 58.90625 
Q 16.5 51.421875 16.5 36.375 
Q 16.5 21.390625 20.328125 13.890625 
Q 24.171875 6.390625 31.78125 6.390625 
Q 39.453125 6.390625 43.28125 13.890625 
Q 47.125 21.390625 47.125 36.375 
Q 47.125 51.421875 43.28125 58.90625 
Q 39.453125 66.40625 31.78125 66.40625 
z
M 31.78125 74.21875 
Q 44.046875 74.21875 50.515625 64.515625 
Q 56.984375 54.828125 56.984375 36.375 
Q 56.984375 17.96875 50.515625 8.265625 
Q 44.046875 -1.421875 31.78125 -1.421875 
Q 19.53125 -1.421875 13.0625 8.265625 
Q 6.59375 17.96875 6.59375 36.375 
Q 6.59375 54.828125 13.0625 64.515625 
Q 19.53125 74.21875 31.78125 74.21875 
z
" id="DejaVuSans-48"/>
       </defs>
       <use xlink:href="#DejaVuSans-48"/>
      </g>
     </g>
    </g>
    <g id="xtick_2">
     <g id="line2d_2">
      <g>
       <use style="stroke:#000000;stroke-width:0.8;" x="151.772727" xlink:href="#m354af281e4" y="384.48"/>
      </g>
     </g>
     <g id="text_2">
      <!-- 200 -->
      <g transform="translate(142.228977 399.078438)scale(0.1 -0.1)">
       <defs>
        <path d="M 19.1875 8.296875 
L 53.609375 8.296875 
L 53.609375 0 
L 7.328125 0 
L 7.328125 8.296875 
Q 12.9375 14.109375 22.625 23.890625 
Q 32.328125 33.6875 34.8125 36.53125 
Q 39.546875 41.84375 41.421875 45.53125 
Q 43.3125 49.21875 43.3125 52.78125 
Q 43.3125 58.59375 39.234375 62.25 
Q 35.15625 65.921875 28.609375 65.921875 
Q 23.96875 65.921875 18.8125 64.3125 
Q 13.671875 62.703125 7.8125 59.421875 
L 7.8125 69.390625 
Q 13.765625 71.78125 18.9375 73 
Q 24.125 74.21875 28.421875 74.21875 
Q 39.75 74.21875 46.484375 68.546875 
Q 53.21875 62.890625 53.21875 53.421875 
Q 53.21875 48.921875 51.53125 44.890625 
Q 49.859375 40.875 45.40625 35.40625 
Q 44.1875 33.984375 37.640625 27.21875 
Q 31.109375 20.453125 19.1875 8.296875 
z
" id="DejaVuSans-50"/>
       </defs>
       <use xlink:href="#DejaVuSans-50"/>
       <use x="63.623047" xlink:href="#DejaVuSans-48"/>
       <use x="127.246094" xlink:href="#DejaVuSans-48"/>
      </g>
     </g>
    </g>
    <g id="xtick_3">
     <g id="line2d_3">
      <g>
       <use style="stroke:#000000;stroke-width:0.8;" x="222.790909" xlink:href="#m354af281e4" y="384.48"/>
      </g>
     </g>
     <g id="text_3">
      <!-- 400 -->
      <g transform="translate(213.247159 399.078438)scale(0.1 -0.1)">
       <defs>
        <path d="M 37.796875 64.3125 
L 12.890625 25.390625 
L 37.796875 25.390625 
z
M 35.203125 72.90625 
L 47.609375 72.90625 
L 47.609375 25.390625 
L 58.015625 25.390625 
L 58.015625 17.1875 
L 47.609375 17.1875 
L 47.609375 0 
L 37.796875 0 
L 37.796875 17.1875 
L 4.890625 17.1875 
L 4.890625 26.703125 
z
" id="DejaVuSans-52"/>
       </defs>
       <use xlink:href="#DejaVuSans-52"/>
       <use x="63.623047" xlink:href="#DejaVuSans-48"/>
       <use x="127.246094" xlink:href="#DejaVuSans-48"/>
      </g>
     </g>
    </g>
    <g id="xtick_4">
     <g id="line2d_4">
      <g>
       <use style="stroke:#000000;stroke-width:0.8;" x="293.809091" xlink:href="#m354af281e4" y="384.48"/>
      </g>
     </g>
     <g id="text_4">
      <!-- 600 -->
      <g transform="translate(284.265341 399.078438)scale(0.1 -0.1)">
       <defs>
        <path d="M 33.015625 40.375 
Q 26.375 40.375 22.484375 35.828125 
Q 18.609375 31.296875 18.609375 23.390625 
Q 18.609375 15.53125 22.484375 10.953125 
Q 26.375 6.390625 33.015625 6.390625 
Q 39.65625 6.390625 43.53125 10.953125 
Q 47.40625 15.53125 47.40625 23.390625 
Q 47.40625 31.296875 43.53125 35.828125 
Q 39.65625 40.375 33.015625 40.375 
z
M 52.59375 71.296875 
L 52.59375 62.3125 
Q 48.875 64.0625 45.09375 64.984375 
Q 41.3125 65.921875 37.59375 65.921875 
Q 27.828125 65.921875 22.671875 59.328125 
Q 17.53125 52.734375 16.796875 39.40625 
Q 19.671875 43.65625 24.015625 45.921875 
Q 28.375 48.1875 33.59375 48.1875 
Q 44.578125 48.1875 50.953125 41.515625 
Q 57.328125 34.859375 57.328125 23.390625 
Q 57.328125 12.15625 50.6875 5.359375 
Q 44.046875 -1.421875 33.015625 -1.421875 
Q 20.359375 -1.421875 13.671875 8.265625 
Q 6.984375 17.96875 6.984375 36.375 
Q 6.984375 53.65625 15.1875 63.9375 
Q 23.390625 74.21875 37.203125 74.21875 
Q 40.921875 74.21875 44.703125 73.484375 
Q 48.484375 72.75 52.59375 71.296875 
z
" id="DejaVuSans-54"/>
       </defs>
       <use xlink:href="#DejaVuSans-54"/>
       <use x="63.623047" xlink:href="#DejaVuSans-48"/>
       <use x="127.246094" xlink:href="#DejaVuSans-48"/>
      </g>
     </g>
    </g>
    <g id="xtick_5">
     <g id="line2d_5">
      <g>
       <use style="stroke:#000000;stroke-width:0.8;" x="364.827273" xlink:href="#m354af281e4" y="384.48"/>
      </g>
     </g>
     <g id="text_5">
      <!-- 800 -->
      <g transform="translate(355.283523 399.078438)scale(0.1 -0.1)">
       <defs>
        <path d="M 31.78125 34.625 
Q 24.75 34.625 20.71875 30.859375 
Q 16.703125 27.09375 16.703125 20.515625 
Q 16.703125 13.921875 20.71875 10.15625 
Q 24.75 6.390625 31.78125 6.390625 
Q 38.8125 6.390625 42.859375 10.171875 
Q 46.921875 13.96875 46.921875 20.515625 
Q 46.921875 27.09375 42.890625 30.859375 
Q 38.875 34.625 31.78125 34.625 
z
M 21.921875 38.8125 
Q 15.578125 40.375 12.03125 44.71875 
Q 8.5 49.078125 8.5 55.328125 
Q 8.5 64.0625 14.71875 69.140625 
Q 20.953125 74.21875 31.78125 74.21875 
Q 42.671875 74.21875 48.875 69.140625 
Q 55.078125 64.0625 55.078125 55.328125 
Q 55.078125 49.078125 51.53125 44.71875 
Q 48 40.375 41.703125 38.8125 
Q 48.828125 37.15625 52.796875 32.3125 
Q 56.78125 27.484375 56.78125 20.515625 
Q 56.78125 9.90625 50.3125 4.234375 
Q 43.84375 -1.421875 31.78125 -1.421875 
Q 19.734375 -1.421875 13.25 4.234375 
Q 6.78125 9.90625 6.78125 20.515625 
Q 6.78125 27.484375 10.78125 32.3125 
Q 14.796875 37.15625 21.921875 38.8125 
z
M 18.3125 54.390625 
Q 18.3125 48.734375 21.84375 45.5625 
Q 25.390625 42.390625 31.78125 42.390625 
Q 38.140625 42.390625 41.71875 45.5625 
Q 45.3125 48.734375 45.3125 54.390625 
Q 45.3125 60.0625 41.71875 63.234375 
Q 38.140625 66.40625 31.78125 66.40625 
Q 25.390625 66.40625 21.84375 63.234375 
Q 18.3125 60.0625 18.3125 54.390625 
z
" id="DejaVuSans-56"/>
       </defs>
       <use xlink:href="#DejaVuSans-56"/>
       <use x="63.623047" xlink:href="#DejaVuSans-48"/>
       <use x="127.246094" xlink:href="#DejaVuSans-48"/>
      </g>
     </g>
    </g>
    <g id="text_6">
     <!-- time [ms] -->
     <g transform="translate(234.038281 412.756563)scale(0.1 -0.1)">
      <defs>
       <path d="M 18.3125 70.21875 
L 18.3125 54.6875 
L 36.8125 54.6875 
L 36.8125 47.703125 
L 18.3125 47.703125 
L 18.3125 18.015625 
Q 18.3125 11.328125 20.140625 9.421875 
Q 21.96875 7.515625 27.59375 7.515625 
L 36.8125 7.515625 
L 36.8125 0 
L 27.59375 0 
Q 17.1875 0 13.234375 3.875 
Q 9.28125 7.765625 9.28125 18.015625 
L 9.28125 47.703125 
L 2.6875 47.703125 
L 2.6875 54.6875 
L 9.28125 54.6875 
L 9.28125 70.21875 
z
" id="DejaVuSans-116"/>
       <path d="M 9.421875 54.6875 
L 18.40625 54.6875 
L 18.40625 0 
L 9.421875 0 
z
M 9.421875 75.984375 
L 18.40625 75.984375 
L 18.40625 64.59375 
L 9.421875 64.59375 
z
" id="DejaVuSans-105"/>
       <path d="M 52 44.1875 
Q 55.375 50.25 60.0625 53.125 
Q 64.75 56 71.09375 56 
Q 79.640625 56 84.28125 50.015625 
Q 88.921875 44.046875 88.921875 33.015625 
L 88.921875 0 
L 79.890625 0 
L 79.890625 32.71875 
Q 79.890625 40.578125 77.09375 44.375 
Q 74.3125 48.1875 68.609375 48.1875 
Q 61.625 48.1875 57.5625 43.546875 
Q 53.515625 38.921875 53.515625 30.90625 
L 53.515625 0 
L 44.484375 0 
L 44.484375 32.71875 
Q 44.484375 40.625 41.703125 44.40625 
Q 38.921875 48.1875 33.109375 48.1875 
Q 26.21875 48.1875 22.15625 43.53125 
Q 18.109375 38.875 18.109375 30.90625 
L 18.109375 0 
L 9.078125 0 
L 9.078125 54.6875 
L 18.109375 54.6875 
L 18.109375 46.1875 
Q 21.1875 51.21875 25.484375 53.609375 
Q 29.78125 56 35.6875 56 
Q 41.65625 56 45.828125 52.96875 
Q 50 49.953125 52 44.1875 
z
" id="DejaVuSans-109"/>
       <path d="M 56.203125 29.59375 
L 56.203125 25.203125 
L 14.890625 25.203125 
Q 15.484375 15.921875 20.484375 11.0625 
Q 25.484375 6.203125 34.421875 6.203125 
Q 39.59375 6.203125 44.453125 7.46875 
Q 49.3125 8.734375 54.109375 11.28125 
L 54.109375 2.78125 
Q 49.265625 0.734375 44.1875 -0.34375 
Q 39.109375 -1.421875 33.890625 -1.421875 
Q 20.796875 -1.421875 13.15625 6.1875 
Q 5.515625 13.8125 5.515625 26.8125 
Q 5.515625 40.234375 12.765625 48.109375 
Q 20.015625 56 32.328125 56 
Q 43.359375 56 49.78125 48.890625 
Q 56.203125 41.796875 56.203125 29.59375 
z
M 47.21875 32.234375 
Q 47.125 39.59375 43.09375 43.984375 
Q 39.0625 48.390625 32.421875 48.390625 
Q 24.90625 48.390625 20.390625 44.140625 
Q 15.875 39.890625 15.1875 32.171875 
z
" id="DejaVuSans-101"/>
       <path id="DejaVuSans-32"/>
       <path d="M 8.59375 75.984375 
L 29.296875 75.984375 
L 29.296875 69 
L 17.578125 69 
L 17.578125 -6.203125 
L 29.296875 -6.203125 
L 29.296875 -13.1875 
L 8.59375 -13.1875 
z
" id="DejaVuSans-91"/>
       <path d="M 44.28125 53.078125 
L 44.28125 44.578125 
Q 40.484375 46.53125 36.375 47.5 
Q 32.28125 48.484375 27.875 48.484375 
Q 21.1875 48.484375 17.84375 46.4375 
Q 14.5 44.390625 14.5 40.28125 
Q 14.5 37.15625 16.890625 35.375 
Q 19.28125 33.59375 26.515625 31.984375 
L 29.59375 31.296875 
Q 39.15625 29.25 43.1875 25.515625 
Q 47.21875 21.78125 47.21875 15.09375 
Q 47.21875 7.46875 41.1875 3.015625 
Q 35.15625 -1.421875 24.609375 -1.421875 
Q 20.21875 -1.421875 15.453125 -0.5625 
Q 10.6875 0.296875 5.421875 2 
L 5.421875 11.28125 
Q 10.40625 8.6875 15.234375 7.390625 
Q 20.0625 6.109375 24.8125 6.109375 
Q 31.15625 6.109375 34.5625 8.28125 
Q 37.984375 10.453125 37.984375 14.40625 
Q 37.984375 18.0625 35.515625 20.015625 
Q 33.0625 21.96875 24.703125 23.78125 
L 21.578125 24.515625 
Q 13.234375 26.265625 9.515625 29.90625 
Q 5.8125 33.546875 5.8125 39.890625 
Q 5.8125 47.609375 11.28125 51.796875 
Q 16.75 56 26.8125 56 
Q 31.78125 56 36.171875 55.265625 
Q 40.578125 54.546875 44.28125 53.078125 
z
" id="DejaVuSans-115"/>
       <path d="M 30.421875 75.984375 
L 30.421875 -13.1875 
L 9.71875 -13.1875 
L 9.71875 -6.203125 
L 21.390625 -6.203125 
L 21.390625 69 
L 9.71875 69 
L 9.71875 75.984375 
z
" id="DejaVuSans-93"/>
      </defs>
      <use xlink:href="#DejaVuSans-116"/>
      <use x="39.208984" xlink:href="#DejaVuSans-105"/>
      <use x="66.992188" xlink:href="#DejaVuSans-109"/>
      <use x="164.404297" xlink:href="#DejaVuSans-101"/>
      <use x="225.927734" xlink:href="#DejaVuSans-32"/>
      <use x="257.714844" xlink:href="#DejaVuSans-91"/>
      <use x="296.728516" xlink:href="#DejaVuSans-109"/>
      <use x="394.140625" xlink:href="#DejaVuSans-115"/>
      <use x="446.240234" xlink:href="#DejaVuSans-93"/>
     </g>
    </g>
   </g>
   <g id="matplotlib.axis_2">
    <g id="ytick_1">
     <g id="line2d_6">
      <defs>
       <path d="M 0 0 
L -3.5 0 
" id="mfabe79f56d" style="stroke:#000000;stroke-width:0.8;"/>
      </defs>
      <g>
       <use style="stroke:#000000;stroke-width:0.8;" x="63" xlink:href="#mfabe79f56d" y="346.53715"/>
      </g>
     </g>
     <g id="text_7">
      <!-- −60 -->
      <g transform="translate(34.895313 350.336369)scale(0.1 -0.1)">
       <defs>
        <path d="M 10.59375 35.5 
L 73.1875 35.5 
L 73.1875 27.203125 
L 10.59375 27.203125 
z
" id="DejaVuSans-8722"/>
       </defs>
       <use xlink:href="#DejaVuSans-8722"/>
       <use x="83.789062" xlink:href="#DejaVuSans-54"/>
       <use x="147.412109" xlink:href="#DejaVuSans-48"/>
      </g>
     </g>
    </g>
    <g id="ytick_2">
     <g id="line2d_7">
      <g>
       <use style="stroke:#000000;stroke-width:0.8;" x="63" xlink:href="#mfabe79f56d" y="279.797878"/>
      </g>
     </g>
     <g id="text_8">
      <!-- −40 -->
      <g transform="translate(34.895313 283.597097)scale(0.1 -0.1)">
       <use xlink:href="#DejaVuSans-8722"/>
       <use x="83.789062" xlink:href="#DejaVuSans-52"/>
       <use x="147.412109" xlink:href="#DejaVuSans-48"/>
      </g>
     </g>
    </g>
    <g id="ytick_3">
     <g id="line2d_8">
      <g>
       <use style="stroke:#000000;stroke-width:0.8;" x="63" xlink:href="#mfabe79f56d" y="213.058606"/>
      </g>
     </g>
     <g id="text_9">
      <!-- −20 -->
      <g transform="translate(34.895313 216.857824)scale(0.1 -0.1)">
       <use xlink:href="#DejaVuSans-8722"/>
       <use x="83.789062" xlink:href="#DejaVuSans-50"/>
       <use x="147.412109" xlink:href="#DejaVuSans-48"/>
      </g>
     </g>
    </g>
    <g id="ytick_4">
     <g id="line2d_9">
      <g>
       <use style="stroke:#000000;stroke-width:0.8;" x="63" xlink:href="#mfabe79f56d" y="146.319333"/>
      </g>
     </g>
     <g id="text_10">
      <!-- 0 -->
      <g transform="translate(49.6375 150.118552)scale(0.1 -0.1)">
       <use xlink:href="#DejaVuSans-48"/>
      </g>
     </g>
    </g>
    <g id="ytick_5">
     <g id="line2d_10">
      <g>
       <use style="stroke:#000000;stroke-width:0.8;" x="63" xlink:href="#mfabe79f56d" y="79.580061"/>
      </g>
     </g>
     <g id="text_11">
      <!-- 20 -->
      <g transform="translate(43.275 83.37928)scale(0.1 -0.1)">
       <use xlink:href="#DejaVuSans-50"/>
       <use x="63.623047" xlink:href="#DejaVuSans-48"/>
      </g>
     </g>
    </g>
    <g id="text_12">
     <!-- voltage [V] -->
     <g transform="translate(28.815625 245.75375)rotate(-90)scale(0.1 -0.1)">
      <defs>
       <path d="M 2.984375 54.6875 
L 12.5 54.6875 
L 29.59375 8.796875 
L 46.6875 54.6875 
L 56.203125 54.6875 
L 35.6875 0 
L 23.484375 0 
z
" id="DejaVuSans-118"/>
       <path d="M 30.609375 48.390625 
Q 23.390625 48.390625 19.1875 42.75 
Q 14.984375 37.109375 14.984375 27.296875 
Q 14.984375 17.484375 19.15625 11.84375 
Q 23.34375 6.203125 30.609375 6.203125 
Q 37.796875 6.203125 41.984375 11.859375 
Q 46.1875 17.53125 46.1875 27.296875 
Q 46.1875 37.015625 41.984375 42.703125 
Q 37.796875 48.390625 30.609375 48.390625 
z
M 30.609375 56 
Q 42.328125 56 49.015625 48.375 
Q 55.71875 40.765625 55.71875 27.296875 
Q 55.71875 13.875 49.015625 6.21875 
Q 42.328125 -1.421875 30.609375 -1.421875 
Q 18.84375 -1.421875 12.171875 6.21875 
Q 5.515625 13.875 5.515625 27.296875 
Q 5.515625 40.765625 12.171875 48.375 
Q 18.84375 56 30.609375 56 
z
" id="DejaVuSans-111"/>
       <path d="M 9.421875 75.984375 
L 18.40625 75.984375 
L 18.40625 0 
L 9.421875 0 
z
" id="DejaVuSans-108"/>
       <path d="M 34.28125 27.484375 
Q 23.390625 27.484375 19.1875 25 
Q 14.984375 22.515625 14.984375 16.5 
Q 14.984375 11.71875 18.140625 8.90625 
Q 21.296875 6.109375 26.703125 6.109375 
Q 34.1875 6.109375 38.703125 11.40625 
Q 43.21875 16.703125 43.21875 25.484375 
L 43.21875 27.484375 
z
M 52.203125 31.203125 
L 52.203125 0 
L 43.21875 0 
L 43.21875 8.296875 
Q 40.140625 3.328125 35.546875 0.953125 
Q 30.953125 -1.421875 24.3125 -1.421875 
Q 15.921875 -1.421875 10.953125 3.296875 
Q 6 8.015625 6 15.921875 
Q 6 25.140625 12.171875 29.828125 
Q 18.359375 34.515625 30.609375 34.515625 
L 43.21875 34.515625 
L 43.21875 35.40625 
Q 43.21875 41.609375 39.140625 45 
Q 35.0625 48.390625 27.6875 48.390625 
Q 23 48.390625 18.546875 47.265625 
Q 14.109375 46.140625 10.015625 43.890625 
L 10.015625 52.203125 
Q 14.9375 54.109375 19.578125 55.046875 
Q 24.21875 56 28.609375 56 
Q 40.484375 56 46.34375 49.84375 
Q 52.203125 43.703125 52.203125 31.203125 
z
" id="DejaVuSans-97"/>
       <path d="M 45.40625 27.984375 
Q 45.40625 37.75 41.375 43.109375 
Q 37.359375 48.484375 30.078125 48.484375 
Q 22.859375 48.484375 18.828125 43.109375 
Q 14.796875 37.75 14.796875 27.984375 
Q 14.796875 18.265625 18.828125 12.890625 
Q 22.859375 7.515625 30.078125 7.515625 
Q 37.359375 7.515625 41.375 12.890625 
Q 45.40625 18.265625 45.40625 27.984375 
z
M 54.390625 6.78125 
Q 54.390625 -7.171875 48.1875 -13.984375 
Q 42 -20.796875 29.203125 -20.796875 
Q 24.46875 -20.796875 20.265625 -20.09375 
Q 16.0625 -19.390625 12.109375 -17.921875 
L 12.109375 -9.1875 
Q 16.0625 -11.328125 19.921875 -12.34375 
Q 23.78125 -13.375 27.78125 -13.375 
Q 36.625 -13.375 41.015625 -8.765625 
Q 45.40625 -4.15625 45.40625 5.171875 
L 45.40625 9.625 
Q 42.625 4.78125 38.28125 2.390625 
Q 33.9375 0 27.875 0 
Q 17.828125 0 11.671875 7.65625 
Q 5.515625 15.328125 5.515625 27.984375 
Q 5.515625 40.671875 11.671875 48.328125 
Q 17.828125 56 27.875 56 
Q 33.9375 56 38.28125 53.609375 
Q 42.625 51.21875 45.40625 46.390625 
L 45.40625 54.6875 
L 54.390625 54.6875 
z
" id="DejaVuSans-103"/>
       <path d="M 28.609375 0 
L 0.78125 72.90625 
L 11.078125 72.90625 
L 34.1875 11.53125 
L 57.328125 72.90625 
L 67.578125 72.90625 
L 39.796875 0 
z
" id="DejaVuSans-86"/>
      </defs>
      <use xlink:href="#DejaVuSans-118"/>
      <use x="59.179688" xlink:href="#DejaVuSans-111"/>
      <use x="120.361328" xlink:href="#DejaVuSans-108"/>
      <use x="148.144531" xlink:href="#DejaVuSans-116"/>
      <use x="187.353516" xlink:href="#DejaVuSans-97"/>
      <use x="248.632812" xlink:href="#DejaVuSans-103"/>
      <use x="312.109375" xlink:href="#DejaVuSans-101"/>
      <use x="373.632812" xlink:href="#DejaVuSans-32"/>
      <use x="405.419922" xlink:href="#DejaVuSans-91"/>
      <use x="444.433594" xlink:href="#DejaVuSans-86"/>
      <use x="512.841797" xlink:href="#DejaVuSans-93"/>
     </g>
    </g>
   </g>
   <g id="line2d_11">
    <path clip-path="url(#pf3f7c9ca8a)" d="M 80.754545 363.22196 
L 81.695536 363.233872 
L 85.725818 363.651807 
L 98.5446 364.967755 
L 108.646936 365.761687 
L 119.494964 366.387885 
L 131.656827 366.862399 
L 145.878218 367.188273 
L 151.772727 367.269641 
L 151.8615 365.258689 
L 152.234345 357.064695 
L 152.731473 351.32951 
L 153.565936 344.553638 
L 154.9863 335.005867 
L 156.726245 324.833878 
L 158.412927 316.233118 
L 160.028591 309.108283 
L 161.590991 303.21517 
L 163.153391 298.195207 
L 164.840073 293.543139 
L 167.236936 287.66822 
L 168.941373 283.258936 
L 169.793591 280.44918 
L 170.361736 277.829529 
L 170.752336 274.991249 
L 171.036409 270.914151 
L 171.1962 263.726128 
L 171.249464 255.734831 
L 171.622309 69.288803 
L 171.675573 66.96 
L 171.746591 67.199804 
L 171.906382 79.96366 
L 172.190455 132.376831 
L 172.847373 250.055571 
L 173.220218 284.385007 
L 173.5398 296.696591 
L 173.912645 303.116562 
L 174.303245 306.47564 
L 174.782618 308.675255 
L 175.226482 309.783383 
L 175.6881 310.372495 
L 176.096455 310.565176 
L 176.522564 310.521686 
L 177.019691 310.230184 
L 177.676609 309.549134 
L 178.528827 308.318419 
L 179.771645 306.106831 
L 182.807673 300.084762 
L 185.470855 295.09205 
L 188.134036 290.598424 
L 192.217582 283.763283 
L 193.336118 281.379462 
L 194.117318 279.180104 
L 194.685464 276.858715 
L 195.093818 274.079806 
L 195.324627 271.137638 
L 195.502173 265.218069 
L 195.573191 256.034099 
L 195.626455 228.696893 
L 195.839509 97.615224 
L 196.017055 89.030384 
L 196.034809 88.98908 
L 196.176845 92.708496 
L 196.407655 109.693904 
L 196.744991 158.240114 
L 197.437418 255.311032 
L 197.810264 279.912713 
L 198.200864 291.572734 
L 198.591464 297.178731 
L 199.070836 300.855646 
L 199.550209 303.012541 
L 200.082845 304.498753 
L 200.650991 305.437918 
L 201.219136 305.928033 
L 201.787282 306.095182 
L 202.390936 306.010413 
L 203.083364 305.668665 
L 203.988845 304.943017 
L 205.231664 303.621906 
L 207.220173 301.131602 
L 212.9904 293.774457 
L 217.855145 288.110079 
L 220.4118 284.942381 
L 221.885427 282.769267 
L 222.915191 280.859166 
L 223.660882 279.017774 
L 224.229027 277.001606 
L 224.637382 274.68703 
L 224.9037 271.975547 
L 225.081245 268.237993 
L 225.205527 259.034584 
L 225.241036 245.598556 
L 225.525109 96.415953 
L 225.596127 94.078111 
L 225.667145 94.627052 
L 225.862445 102.50805 
L 226.164273 126.75083 
L 226.679155 195.431573 
L 227.229545 256.889203 
L 227.6379 278.148808 
L 228.046255 288.417997 
L 228.454609 293.758981 
L 228.933982 297.371275 
L 229.502127 299.967308 
L 230.105782 301.696559 
L 230.691682 302.761744 
L 231.313091 303.440875 
L 231.898991 303.773376 
L 232.538155 303.881309 
L 233.266091 303.762301 
L 234.136064 303.374992 
L 235.236845 302.623741 
L 236.781491 301.271962 
L 239.320391 298.714535 
L 247.416464 290.451453 
L 251.446745 286.27223 
L 253.346482 283.981892 
L 254.642564 282.076848 
L 255.601309 280.265245 
L 256.275982 278.537696 
L 256.808618 276.550975 
L 257.181464 274.311902 
L 257.447782 271.327028 
L 257.607573 267.401232 
L 257.696345 260.928255 
L 257.767364 237.884009 
L 257.998173 100.009626 
L 258.122455 94.766908 
L 258.157964 95.372419 
L 258.264491 98.832324 
L 258.566318 119.129024 
L 258.956918 163.269197 
L 259.755873 255.446868 
L 260.181982 277.259033 
L 260.590336 287.344144 
L 261.016445 292.702188 
L 261.495818 296.103741 
L 262.028455 298.433294 
L 262.649864 300.172123 
L 263.271273 301.284665 
L 263.892682 301.976745 
L 264.531845 302.3701 
L 265.206518 302.523783 
L 265.952209 302.459421 
L 266.839936 302.148619 
L 267.958473 301.50509 
L 269.449855 300.373213 
L 271.722436 298.345764 
L 281.185609 289.367682 
L 284.434691 286.093401 
L 286.281164 283.930889 
L 287.577245 282.082641 
L 288.518236 280.368981 
L 289.246173 278.573419 
L 289.778809 276.654259 
L 290.151655 274.527282 
L 290.435727 271.559528 
L 290.631027 266.452775 
L 290.7198 258.095701 
L 290.844082 161.249618 
L 291.003873 99.153112 
L 291.128155 95.058696 
L 291.163664 95.585595 
L 291.341209 102.999539 
L 291.643036 126.53883 
L 292.175673 192.130944 
L 292.761573 254.940499 
L 293.152173 275.387263 
L 293.560527 286.259721 
L 294.004391 292.169691 
L 294.483764 295.702796 
L 295.051909 298.223493 
L 295.673318 299.960314 
L 296.276973 301.049769 
L 296.916136 301.772324 
L 297.5553 302.173799 
L 298.247727 302.33961 
L 299.028927 302.276156 
L 299.952164 301.953777 
L 301.141718 301.267687 
L 302.686364 300.097248 
L 305.154245 297.911022 
L 315.451882 288.248605 
L 318.150573 285.465048 
L 319.837255 283.416973 
L 321.062318 281.575845 
L 321.950045 279.835622 
L 322.589209 278.115581 
L 323.068582 276.224422 
L 323.423673 273.95844 
L 323.672236 271.027281 
L 323.849782 265.517819 
L 323.938555 254.701546 
L 323.974064 234.232916 
L 324.204873 100.393773 
L 324.3114 94.841743 
L 324.346909 95.318286 
L 324.453436 98.320765 
L 324.755264 118.297058 
L 325.163618 163.703896 
L 325.962573 254.761812 
L 326.388682 276.659123 
L 326.797036 286.971453 
L 327.2409 292.605944 
L 327.738027 296.086739 
L 328.306173 298.474858 
L 328.927582 300.12365 
L 329.5845 301.223788 
L 330.223664 301.870463 
L 330.880582 302.221206 
L 331.555255 302.334883 
L 332.354209 302.228339 
L 333.2952 301.860823 
L 334.484755 301.141412 
L 336.135927 299.85791 
L 338.834618 297.436592 
L 350.179773 286.733941 
L 352.274809 284.421179 
L 353.677418 282.560386 
L 354.724936 280.809818 
L 355.506136 279.069347 
L 356.092036 277.206672 
L 356.518145 275.097072 
L 356.819973 272.472958 
L 357.015273 268.922167 
L 357.139555 262.539147 
L 357.210573 243.56411 
L 357.476891 97.837161 
L 357.565664 95.004759 
L 357.618927 95.586629 
L 357.778718 102.09915 
L 358.116055 128.592008 
L 358.648691 194.76951 
L 359.216836 255.189006 
L 359.625191 276.390245 
L 360.033545 286.938372 
L 360.459655 292.507801 
L 360.939027 295.985808 
L 361.453909 298.264984 
L 362.057564 299.97295 
L 362.678973 301.099249 
L 363.318136 301.815195 
L 363.975055 302.21658 
L 364.649727 302.368302 
L 364.862782 302.372398 
L 364.969309 304.568455 
L 365.306645 311.825166 
L 365.786018 316.942352 
L 366.460691 321.558433 
L 367.348418 326.088743 
L 368.395936 330.294226 
L 369.532227 333.981593 
L 370.775045 337.302059 
L 372.1599 340.375027 
L 373.633527 343.111518 
L 375.213682 345.586991 
L 376.900364 347.828613 
L 378.729082 349.897365 
L 380.735345 351.82989 
L 382.9014 353.607033 
L 385.280509 355.26943 
L 387.890427 356.8205 
L 390.819927 358.296444 
L 394.051255 359.671544 
L 397.673182 360.967919 
L 401.721218 362.178422 
L 406.266382 363.30342 
L 411.361936 364.333137 
L 417.061145 365.255237 
L 423.417273 366.055859 
L 430.572355 366.728533 
L 435.8277 367.097839 
L 435.8277 367.097839 
" style="fill:none;stroke:#1f77b4;stroke-linecap:square;stroke-width:1.5;"/>
   </g>
   <g id="line2d_12">
    <path clip-path="url(#pf3f7c9ca8a)" d="M 80.754545 363.221968 
L 80.949845 362.835114 
L 81.375955 362.527997 
L 82.210418 362.239574 
L 83.861591 361.938271 
L 86.666809 361.66865 
L 90.9279 361.497716 
L 97.621364 361.472432 
L 151.772727 361.806611 
L 151.985782 341.874398 
L 152.376382 326.500574 
L 152.855755 315.818987 
L 153.406145 308.246497 
L 154.045309 302.458262 
L 154.773245 297.828708 
L 155.625464 293.800233 
L 156.637473 290.076291 
L 157.862536 286.421302 
L 159.442691 282.437161 
L 161.928327 276.246643 
L 162.567491 273.974605 
L 162.975845 271.726 
L 163.242164 268.974617 
L 163.401955 264.908884 
L 163.490727 256.965174 
L 163.543991 223.594119 
L 163.597255 85.678238 
L 163.668273 147.176666 
L 163.916836 296.279348 
L 163.934591 295.836649 
L 164.183155 284.957901 
L 164.236418 285.321051 
L 164.840073 292.488366 
L 164.999864 292.472246 
L 166.544509 291.350569 
L 167.432236 290.188406 
L 171.284973 284.878475 
L 173.912645 281.782757 
L 177.712118 277.322017 
L 178.848409 275.607849 
L 179.5941 274.091576 
L 180.108982 272.558721 
L 180.481827 270.726001 
L 180.730391 268.316791 
L 180.890182 264.361902 
L 180.978955 256.363563 
L 181.032218 222.349691 
L 181.085482 88.666344 
L 181.1565 146.08467 
L 181.405064 299.159339 
L 181.422818 299.134689 
L 181.5471 291.556838 
L 181.777909 283.490913 
L 181.813418 283.347208 
L 181.866682 283.536361 
L 182.008718 285.579041 
L 182.434827 291.539017 
L 182.7189 292.684886 
L 183.002973 293.030662 
L 183.322555 293.093215 
L 183.730909 292.931382 
L 184.299055 292.431206 
L 185.275555 291.217509 
L 188.702182 286.807003 
L 190.903745 284.414004 
L 193.478155 281.954526 
L 199.585718 276.280567 
L 200.615482 274.906826 
L 201.325664 273.595187 
L 201.822791 272.221391 
L 202.177882 270.594405 
L 202.426445 268.383734 
L 202.586236 264.929702 
L 202.692764 256.185769 
L 202.746027 221.769899 
L 202.799291 89.293606 
L 202.870309 145.782428 
L 203.136627 299.552717 
L 203.2254 295.25632 
L 203.473964 286.231282 
L 203.544982 285.914412 
L 203.598245 286.095387 
L 203.758036 287.851506 
L 204.184145 292.245699 
L 204.485973 293.330541 
L 204.7878 293.71226 
L 205.107382 293.781769 
L 205.497982 293.617172 
L 206.066127 293.103315 
L 207.1314 291.778268 
L 210.096409 288.031582 
L 212.155936 285.832251 
L 214.393009 283.772753 
L 216.967418 281.713797 
L 220.642609 279.092954 
L 223.785164 276.765389 
L 225.187773 275.456535 
L 226.128764 274.282312 
L 226.785682 273.112566 
L 227.265055 271.794779 
L 227.602391 270.201005 
L 227.8332 268.036059 
L 227.992991 264.206916 
L 228.081764 256.499785 
L 228.135027 225.676871 
L 228.188291 90.486935 
L 228.259309 143.16122 
L 228.525627 299.302659 
L 228.578891 297.506317 
L 228.862964 286.92528 
L 228.916227 286.75818 
L 228.951736 286.866542 
L 229.093773 288.338573 
L 229.537636 292.823043 
L 229.839464 293.866095 
L 230.159045 294.251294 
L 230.478627 294.304436 
L 230.869227 294.12483 
L 231.455127 293.575828 
L 232.609173 292.118333 
L 235.236845 288.80958 
L 237.2076 286.713999 
L 239.284882 284.828979 
L 241.575218 283.054544 
L 244.167382 281.333431 
L 247.451973 279.43534 
L 252.991391 276.269653 
L 254.447264 275.152208 
L 255.423764 274.135221 
L 256.116191 273.101329 
L 256.613318 271.969327 
L 256.986164 270.54777 
L 257.252482 268.573024 
L 257.430027 265.386298 
L 257.536555 259.03196 
L 257.589818 244.141009 
L 257.660836 90.933023 
L 257.749609 159.892556 
L 257.998173 298.964412 
L 258.015927 298.765289 
L 258.371018 286.850288 
L 258.459791 287.257822 
L 259.240991 293.84194 
L 259.560573 294.341587 
L 259.880155 294.458105 
L 260.253 294.339427 
L 260.785636 293.901962 
L 261.744382 292.766869 
L 264.9402 288.850476 
L 266.875445 286.894545 
L 268.917218 285.146367 
L 271.118782 283.55486 
L 273.5334 282.085095 
L 276.285355 280.675422 
L 279.640964 279.217334 
L 288.464973 275.524911 
L 289.849827 274.618245 
L 290.790818 273.750787 
L 291.465491 272.838154 
L 291.962618 271.795389 
L 292.335464 270.471469 
L 292.601782 268.642964 
L 292.779327 265.811524 
L 292.885855 260.840913 
L 292.956873 244.50339 
L 293.027891 91.712517 
L 293.134418 173.621421 
L 293.365227 298.624305 
L 293.400736 297.962091 
L 293.738073 286.811112 
L 293.755827 286.817462 
L 293.826845 287.223968 
L 294.608045 293.871769 
L 294.927627 294.387685 
L 295.247209 294.518567 
L 295.620055 294.415204 
L 296.152691 293.997753 
L 297.093682 292.917116 
L 300.342764 289.036866 
L 302.260255 287.16255 
L 304.266518 285.512204 
L 306.414818 284.034411 
L 308.740664 282.706804 
L 311.297318 281.505744 
L 314.191309 280.395708 
L 317.600182 279.332842 
L 322.003309 278.207032 
L 332.567264 275.604925 
L 334.538018 274.836932 
L 335.851855 274.09813 
L 336.757336 273.344372 
L 337.414255 272.511566 
L 337.893627 271.543853 
L 338.248718 270.319384 
L 338.515036 268.534477 
L 338.692582 265.740542 
L 338.799109 260.822954 
L 338.870127 244.850474 
L 338.9589 92.484869 
L 339.047673 172.724823 
L 339.278482 298.299131 
L 339.313991 297.773099 
L 339.651327 286.74402 
L 339.669082 286.748413 
L 339.7401 287.149167 
L 340.539055 293.901438 
L 340.858636 294.401903 
L 341.178218 294.529869 
L 341.551064 294.428839 
L 342.0837 294.019662 
L 343.024691 292.959948 
L 346.238264 289.200291 
L 348.138 287.387298 
L 350.108755 285.812161 
L 352.221545 284.410085 
L 354.476373 283.181018 
L 356.944255 282.09033 
L 359.696209 281.120666 
L 362.838764 280.254668 
L 364.827273 279.808051 
L 365.022573 298.163868 
L 365.342155 307.798751 
L 365.839282 315.683112 
L 366.513955 322.889043 
L 367.348418 329.465063 
L 368.307164 335.291987 
L 369.372436 340.435855 
L 370.544236 345.021075 
L 371.804809 349.075636 
L 373.154155 352.681286 
L 374.574518 355.856423 
L 376.0659 358.653305 
L 377.592791 361.052692 
L 379.137436 363.077037 
L 380.699836 364.766651 
L 382.279991 366.151123 
L 383.860145 367.243803 
L 385.458055 368.083163 
L 387.109227 368.701509 
L 388.849173 369.114569 
L 390.731155 369.328651 
L 392.826191 369.338192 
L 395.311827 369.118129 
L 398.596418 368.58755 
L 411.983345 366.194493 
L 416.652791 365.721843 
L 421.837118 365.427058 
L 428.4063 365.289621 
L 435.845455 365.288018 
L 435.845455 365.288018 
" style="fill:none;stroke:#ff0000;stroke-linecap:square;stroke-width:1.5;"/>
   </g>
   <g id="patch_3">
    <path d="M 63 384.48 
L 63 51.84 
" style="fill:none;stroke:#000000;stroke-linecap:square;stroke-linejoin:miter;stroke-width:0.8;"/>
   </g>
   <g id="patch_4">
    <path d="M 453.6 384.48 
L 453.6 51.84 
" style="fill:none;stroke:#000000;stroke-linecap:square;stroke-linejoin:miter;stroke-width:0.8;"/>
   </g>
   <g id="patch_5">
    <path d="M 63 384.48 
L 453.6 384.48 
" style="fill:none;stroke:#000000;stroke-linecap:square;stroke-linejoin:miter;stroke-width:0.8;"/>
   </g>
   <g id="patch_6">
    <path d="M 63 51.84 
L 453.6 51.84 
" style="fill:none;stroke:#000000;stroke-linecap:square;stroke-linejoin:miter;stroke-width:0.8;"/>
   </g>
   <g id="legend_1">
    <g id="patch_7">
     <path d="M 383.460938 89.19625 
L 446.6 89.19625 
Q 448.6 89.19625 448.6 87.19625 
L 448.6 58.84 
Q 448.6 56.84 446.6 56.84 
L 383.460938 56.84 
Q 381.460938 56.84 381.460938 58.84 
L 381.460938 87.19625 
Q 381.460938 89.19625 383.460938 89.19625 
z
" style="fill:#ffffff;opacity:0.8;stroke:#cccccc;stroke-linejoin:miter;"/>
    </g>
    <g id="line2d_13">
     <path d="M 385.460938 64.938437 
L 405.460938 64.938437 
" style="fill:none;stroke:#1f77b4;stroke-linecap:square;stroke-width:1.5;"/>
    </g>
    <g id="line2d_14"/>
    <g id="text_13">
     <!-- target -->
     <g transform="translate(413.460938 68.438437)scale(0.1 -0.1)">
      <defs>
       <path d="M 41.109375 46.296875 
Q 39.59375 47.171875 37.8125 47.578125 
Q 36.03125 48 33.890625 48 
Q 26.265625 48 22.1875 43.046875 
Q 18.109375 38.09375 18.109375 28.8125 
L 18.109375 0 
L 9.078125 0 
L 9.078125 54.6875 
L 18.109375 54.6875 
L 18.109375 46.1875 
Q 20.953125 51.171875 25.484375 53.578125 
Q 30.03125 56 36.53125 56 
Q 37.453125 56 38.578125 55.875 
Q 39.703125 55.765625 41.0625 55.515625 
z
" id="DejaVuSans-114"/>
      </defs>
      <use xlink:href="#DejaVuSans-116"/>
      <use x="39.208984" xlink:href="#DejaVuSans-97"/>
      <use x="100.488281" xlink:href="#DejaVuSans-114"/>
      <use x="139.851562" xlink:href="#DejaVuSans-103"/>
      <use x="203.328125" xlink:href="#DejaVuSans-101"/>
      <use x="264.851562" xlink:href="#DejaVuSans-116"/>
     </g>
    </g>
    <g id="line2d_15">
     <path d="M 385.460938 79.616562 
L 405.460938 79.616562 
" style="fill:none;stroke:#ff0000;stroke-linecap:square;stroke-width:1.5;"/>
    </g>
    <g id="line2d_16"/>
    <g id="text_14">
     <!-- model -->
     <g transform="translate(413.460938 83.116562)scale(0.1 -0.1)">
      <defs>
       <path d="M 45.40625 46.390625 
L 45.40625 75.984375 
L 54.390625 75.984375 
L 54.390625 0 
L 45.40625 0 
L 45.40625 8.203125 
Q 42.578125 3.328125 38.25 0.953125 
Q 33.9375 -1.421875 27.875 -1.421875 
Q 17.96875 -1.421875 11.734375 6.484375 
Q 5.515625 14.40625 5.515625 27.296875 
Q 5.515625 40.1875 11.734375 48.09375 
Q 17.96875 56 27.875 56 
Q 33.9375 56 38.25 53.625 
Q 42.578125 51.265625 45.40625 46.390625 
z
M 14.796875 27.296875 
Q 14.796875 17.390625 18.875 11.75 
Q 22.953125 6.109375 30.078125 6.109375 
Q 37.203125 6.109375 41.296875 11.75 
Q 45.40625 17.390625 45.40625 27.296875 
Q 45.40625 37.203125 41.296875 42.84375 
Q 37.203125 48.484375 30.078125 48.484375 
Q 22.953125 48.484375 18.875 42.84375 
Q 14.796875 37.203125 14.796875 27.296875 
z
" id="DejaVuSans-100"/>
      </defs>
      <use xlink:href="#DejaVuSans-109"/>
      <use x="97.412109" xlink:href="#DejaVuSans-111"/>
      <use x="158.59375" xlink:href="#DejaVuSans-100"/>
      <use x="222.070312" xlink:href="#DejaVuSans-101"/>
      <use x="283.59375" xlink:href="#DejaVuSans-108"/>
     </g>
    </g>
   </g>
  </g>
 </g>
 <defs>
  <clipPath id="pf3f7c9ca8a">
   <rect height="332.64" width="390.6" x="63" y="51.84"/>
  </clipPath>
 </defs>
</svg>
