<?xml version="1.0" encoding="utf-8" standalone="no"?>
<!DOCTYPE svg PUBLIC "-//W3C//DTD SVG 1.1//EN"
  "http://www.w3.org/Graphics/SVG/1.1/DTD/svg11.dtd">
<!-- Created with matplotlib (https://matplotlib.org/) -->
<svg height="432pt" version="1.1" viewBox="0 0 504 432" width="504pt" xmlns="http://www.w3.org/2000/svg" xmlns:xlink="http://www.w3.org/1999/xlink">
 <defs>
  <style type="text/css">
*{stroke-linecap:butt;stroke-linejoin:round;}
  </style>
 </defs>
 <g id="figure_1">
  <g id="patch_1">
   <path d="M 0 432 
L 504 432 
L 504 0 
L 0 0 
z
" style="fill:#ffffff;"/>
  </g>
  <g id="axes_1">
   <g id="patch_2">
    <path d="M 63 384.48 
L 453.6 384.48 
L 453.6 51.84 
L 63 51.84 
z
" style="fill:#ffffff;"/>
   </g>
   <g id="matplotlib.axis_1">
    <g id="xtick_1">
     <g id="line2d_1">
      <defs>
       <path d="M 0 0 
L 0 3.5 
" id="ma3c2f92bcf" style="stroke:#000000;stroke-width:0.8;"/>
      </defs>
      <g>
       <use style="stroke:#000000;stroke-width:0.8;" x="80.754545" xlink:href="#ma3c2f92bcf" y="384.48"/>
      </g>
     </g>
     <g id="text_1">
      <!-- 0 -->
      <defs>
       <path d="M 31.78125 66.40625 
Q 24.171875 66.40625 20.328125 58.90625 
Q 16.5 51.421875 16.5 36.375 
Q 16.5 21.390625 20.328125 13.890625 
Q 24.171875 6.390625 31.78125 6.390625 
Q 39.453125 6.390625 43.28125 13.890625 
Q 47.125 21.390625 47.125 36.375 
Q 47.125 51.421875 43.28125 58.90625 
Q 39.453125 66.40625 31.78125 66.40625 
z
M 31.78125 74.21875 
Q 44.046875 74.21875 50.515625 64.515625 
Q 56.984375 54.828125 56.984375 36.375 
Q 56.984375 17.96875 50.515625 8.265625 
Q 44.046875 -1.421875 31.78125 -1.421875 
Q 19.53125 -1.421875 13.0625 8.265625 
Q 6.59375 17.96875 6.59375 36.375 
Q 6.59375 54.828125 13.0625 64.515625 
Q 19.53125 74.21875 31.78125 74.21875 
z
" id="DejaVuSans-48"/>
      </defs>
      <g transform="translate(77.573295 399.078438)scale(0.1 -0.1)">
       <use xlink:href="#DejaVuSans-48"/>
      </g>
     </g>
    </g>
    <g id="xtick_2">
     <g id="line2d_2">
      <g>
       <use style="stroke:#000000;stroke-width:0.8;" x="151.763044" xlink:href="#ma3c2f92bcf" y="384.48"/>
      </g>
     </g>
     <g id="text_2">
      <!-- 880 -->
      <defs>
       <path d="M 31.78125 34.625 
Q 24.75 34.625 20.71875 30.859375 
Q 16.703125 27.09375 16.703125 20.515625 
Q 16.703125 13.921875 20.71875 10.15625 
Q 24.75 6.390625 31.78125 6.390625 
Q 38.8125 6.390625 42.859375 10.171875 
Q 46.921875 13.96875 46.921875 20.515625 
Q 46.921875 27.09375 42.890625 30.859375 
Q 38.875 34.625 31.78125 34.625 
z
M 21.921875 38.8125 
Q 15.578125 40.375 12.03125 44.71875 
Q 8.5 49.078125 8.5 55.328125 
Q 8.5 64.0625 14.71875 69.140625 
Q 20.953125 74.21875 31.78125 74.21875 
Q 42.671875 74.21875 48.875 69.140625 
Q 55.078125 64.0625 55.078125 55.328125 
Q 55.078125 49.078125 51.53125 44.71875 
Q 48 40.375 41.703125 38.8125 
Q 48.828125 37.15625 52.796875 32.3125 
Q 56.78125 27.484375 56.78125 20.515625 
Q 56.78125 9.90625 50.3125 4.234375 
Q 43.84375 -1.421875 31.78125 -1.421875 
Q 19.734375 -1.421875 13.25 4.234375 
Q 6.78125 9.90625 6.78125 20.515625 
Q 6.78125 27.484375 10.78125 32.3125 
Q 14.796875 37.15625 21.921875 38.8125 
z
M 18.3125 54.390625 
Q 18.3125 48.734375 21.84375 45.5625 
Q 25.390625 42.390625 31.78125 42.390625 
Q 38.140625 42.390625 41.71875 45.5625 
Q 45.3125 48.734375 45.3125 54.390625 
Q 45.3125 60.0625 41.71875 63.234375 
Q 38.140625 66.40625 31.78125 66.40625 
Q 25.390625 66.40625 21.84375 63.234375 
Q 18.3125 60.0625 18.3125 54.390625 
z
" id="DejaVuSans-56"/>
      </defs>
      <g transform="translate(142.219294 399.078438)scale(0.1 -0.1)">
       <use xlink:href="#DejaVuSans-56"/>
       <use x="63.623047" xlink:href="#DejaVuSans-56"/>
       <use x="127.246094" xlink:href="#DejaVuSans-48"/>
      </g>
     </g>
    </g>
    <g id="xtick_3">
     <g id="line2d_3">
      <g>
       <use style="stroke:#000000;stroke-width:0.8;" x="222.771543" xlink:href="#ma3c2f92bcf" y="384.48"/>
      </g>
     </g>
     <g id="text_3">
      <!-- 1760 -->
      <defs>
       <path d="M 12.40625 8.296875 
L 28.515625 8.296875 
L 28.515625 63.921875 
L 10.984375 60.40625 
L 10.984375 69.390625 
L 28.421875 72.90625 
L 38.28125 72.90625 
L 38.28125 8.296875 
L 54.390625 8.296875 
L 54.390625 0 
L 12.40625 0 
z
" id="DejaVuSans-49"/>
       <path d="M 8.203125 72.90625 
L 55.078125 72.90625 
L 55.078125 68.703125 
L 28.609375 0 
L 18.3125 0 
L 43.21875 64.59375 
L 8.203125 64.59375 
z
" id="DejaVuSans-55"/>
       <path d="M 33.015625 40.375 
Q 26.375 40.375 22.484375 35.828125 
Q 18.609375 31.296875 18.609375 23.390625 
Q 18.609375 15.53125 22.484375 10.953125 
Q 26.375 6.390625 33.015625 6.390625 
Q 39.65625 6.390625 43.53125 10.953125 
Q 47.40625 15.53125 47.40625 23.390625 
Q 47.40625 31.296875 43.53125 35.828125 
Q 39.65625 40.375 33.015625 40.375 
z
M 52.59375 71.296875 
L 52.59375 62.3125 
Q 48.875 64.0625 45.09375 64.984375 
Q 41.3125 65.921875 37.59375 65.921875 
Q 27.828125 65.921875 22.671875 59.328125 
Q 17.53125 52.734375 16.796875 39.40625 
Q 19.671875 43.65625 24.015625 45.921875 
Q 28.375 48.1875 33.59375 48.1875 
Q 44.578125 48.1875 50.953125 41.515625 
Q 57.328125 34.859375 57.328125 23.390625 
Q 57.328125 12.15625 50.6875 5.359375 
Q 44.046875 -1.421875 33.015625 -1.421875 
Q 20.359375 -1.421875 13.671875 8.265625 
Q 6.984375 17.96875 6.984375 36.375 
Q 6.984375 53.65625 15.1875 63.9375 
Q 23.390625 74.21875 37.203125 74.21875 
Q 40.921875 74.21875 44.703125 73.484375 
Q 48.484375 72.75 52.59375 71.296875 
z
" id="DejaVuSans-54"/>
      </defs>
      <g transform="translate(210.046543 399.078438)scale(0.1 -0.1)">
       <use xlink:href="#DejaVuSans-49"/>
       <use x="63.623047" xlink:href="#DejaVuSans-55"/>
       <use x="127.246094" xlink:href="#DejaVuSans-54"/>
       <use x="190.869141" xlink:href="#DejaVuSans-48"/>
      </g>
     </g>
    </g>
    <g id="xtick_4">
     <g id="line2d_4">
      <g>
       <use style="stroke:#000000;stroke-width:0.8;" x="293.780042" xlink:href="#ma3c2f92bcf" y="384.48"/>
      </g>
     </g>
     <g id="text_4">
      <!-- 2640 -->
      <defs>
       <path d="M 19.1875 8.296875 
L 53.609375 8.296875 
L 53.609375 0 
L 7.328125 0 
L 7.328125 8.296875 
Q 12.9375 14.109375 22.625 23.890625 
Q 32.328125 33.6875 34.8125 36.53125 
Q 39.546875 41.84375 41.421875 45.53125 
Q 43.3125 49.21875 43.3125 52.78125 
Q 43.3125 58.59375 39.234375 62.25 
Q 35.15625 65.921875 28.609375 65.921875 
Q 23.96875 65.921875 18.8125 64.3125 
Q 13.671875 62.703125 7.8125 59.421875 
L 7.8125 69.390625 
Q 13.765625 71.78125 18.9375 73 
Q 24.125 74.21875 28.421875 74.21875 
Q 39.75 74.21875 46.484375 68.546875 
Q 53.21875 62.890625 53.21875 53.421875 
Q 53.21875 48.921875 51.53125 44.890625 
Q 49.859375 40.875 45.40625 35.40625 
Q 44.1875 33.984375 37.640625 27.21875 
Q 31.109375 20.453125 19.1875 8.296875 
z
" id="DejaVuSans-50"/>
       <path d="M 37.796875 64.3125 
L 12.890625 25.390625 
L 37.796875 25.390625 
z
M 35.203125 72.90625 
L 47.609375 72.90625 
L 47.609375 25.390625 
L 58.015625 25.390625 
L 58.015625 17.1875 
L 47.609375 17.1875 
L 47.609375 0 
L 37.796875 0 
L 37.796875 17.1875 
L 4.890625 17.1875 
L 4.890625 26.703125 
z
" id="DejaVuSans-52"/>
      </defs>
      <g transform="translate(281.055042 399.078438)scale(0.1 -0.1)">
       <use xlink:href="#DejaVuSans-50"/>
       <use x="63.623047" xlink:href="#DejaVuSans-54"/>
       <use x="127.246094" xlink:href="#DejaVuSans-52"/>
       <use x="190.869141" xlink:href="#DejaVuSans-48"/>
      </g>
     </g>
    </g>
    <g id="xtick_5">
     <g id="line2d_5">
      <g>
       <use style="stroke:#000000;stroke-width:0.8;" x="364.788541" xlink:href="#ma3c2f92bcf" y="384.48"/>
      </g>
     </g>
     <g id="text_5">
      <!-- 3520 -->
      <defs>
       <path d="M 40.578125 39.3125 
Q 47.65625 37.796875 51.625 33 
Q 55.609375 28.21875 55.609375 21.1875 
Q 55.609375 10.40625 48.1875 4.484375 
Q 40.765625 -1.421875 27.09375 -1.421875 
Q 22.515625 -1.421875 17.65625 -0.515625 
Q 12.796875 0.390625 7.625 2.203125 
L 7.625 11.71875 
Q 11.71875 9.328125 16.59375 8.109375 
Q 21.484375 6.890625 26.8125 6.890625 
Q 36.078125 6.890625 40.9375 10.546875 
Q 45.796875 14.203125 45.796875 21.1875 
Q 45.796875 27.640625 41.28125 31.265625 
Q 36.765625 34.90625 28.71875 34.90625 
L 20.21875 34.90625 
L 20.21875 43.015625 
L 29.109375 43.015625 
Q 36.375 43.015625 40.234375 45.921875 
Q 44.09375 48.828125 44.09375 54.296875 
Q 44.09375 59.90625 40.109375 62.90625 
Q 36.140625 65.921875 28.71875 65.921875 
Q 24.65625 65.921875 20.015625 65.03125 
Q 15.375 64.15625 9.8125 62.3125 
L 9.8125 71.09375 
Q 15.4375 72.65625 20.34375 73.4375 
Q 25.25 74.21875 29.59375 74.21875 
Q 40.828125 74.21875 47.359375 69.109375 
Q 53.90625 64.015625 53.90625 55.328125 
Q 53.90625 49.265625 50.4375 45.09375 
Q 46.96875 40.921875 40.578125 39.3125 
z
" id="DejaVuSans-51"/>
       <path d="M 10.796875 72.90625 
L 49.515625 72.90625 
L 49.515625 64.59375 
L 19.828125 64.59375 
L 19.828125 46.734375 
Q 21.96875 47.46875 24.109375 47.828125 
Q 26.265625 48.1875 28.421875 48.1875 
Q 40.625 48.1875 47.75 41.5 
Q 54.890625 34.8125 54.890625 23.390625 
Q 54.890625 11.625 47.5625 5.09375 
Q 40.234375 -1.421875 26.90625 -1.421875 
Q 22.3125 -1.421875 17.546875 -0.640625 
Q 12.796875 0.140625 7.71875 1.703125 
L 7.71875 11.625 
Q 12.109375 9.234375 16.796875 8.0625 
Q 21.484375 6.890625 26.703125 6.890625 
Q 35.15625 6.890625 40.078125 11.328125 
Q 45.015625 15.765625 45.015625 23.390625 
Q 45.015625 31 40.078125 35.4375 
Q 35.15625 39.890625 26.703125 39.890625 
Q 22.75 39.890625 18.8125 39.015625 
Q 14.890625 38.140625 10.796875 36.28125 
z
" id="DejaVuSans-53"/>
      </defs>
      <g transform="translate(352.063541 399.078438)scale(0.1 -0.1)">
       <use xlink:href="#DejaVuSans-51"/>
       <use x="63.623047" xlink:href="#DejaVuSans-53"/>
       <use x="127.246094" xlink:href="#DejaVuSans-50"/>
       <use x="190.869141" xlink:href="#DejaVuSans-48"/>
      </g>
     </g>
    </g>
    <g id="text_6">
     <!-- time [ms] -->
     <defs>
      <path d="M 18.3125 70.21875 
L 18.3125 54.6875 
L 36.8125 54.6875 
L 36.8125 47.703125 
L 18.3125 47.703125 
L 18.3125 18.015625 
Q 18.3125 11.328125 20.140625 9.421875 
Q 21.96875 7.515625 27.59375 7.515625 
L 36.8125 7.515625 
L 36.8125 0 
L 27.59375 0 
Q 17.1875 0 13.234375 3.875 
Q 9.28125 7.765625 9.28125 18.015625 
L 9.28125 47.703125 
L 2.6875 47.703125 
L 2.6875 54.6875 
L 9.28125 54.6875 
L 9.28125 70.21875 
z
" id="DejaVuSans-116"/>
      <path d="M 9.421875 54.6875 
L 18.40625 54.6875 
L 18.40625 0 
L 9.421875 0 
z
M 9.421875 75.984375 
L 18.40625 75.984375 
L 18.40625 64.59375 
L 9.421875 64.59375 
z
" id="DejaVuSans-105"/>
      <path d="M 52 44.1875 
Q 55.375 50.25 60.0625 53.125 
Q 64.75 56 71.09375 56 
Q 79.640625 56 84.28125 50.015625 
Q 88.921875 44.046875 88.921875 33.015625 
L 88.921875 0 
L 79.890625 0 
L 79.890625 32.71875 
Q 79.890625 40.578125 77.09375 44.375 
Q 74.3125 48.1875 68.609375 48.1875 
Q 61.625 48.1875 57.5625 43.546875 
Q 53.515625 38.921875 53.515625 30.90625 
L 53.515625 0 
L 44.484375 0 
L 44.484375 32.71875 
Q 44.484375 40.625 41.703125 44.40625 
Q 38.921875 48.1875 33.109375 48.1875 
Q 26.21875 48.1875 22.15625 43.53125 
Q 18.109375 38.875 18.109375 30.90625 
L 18.109375 0 
L 9.078125 0 
L 9.078125 54.6875 
L 18.109375 54.6875 
L 18.109375 46.1875 
Q 21.1875 51.21875 25.484375 53.609375 
Q 29.78125 56 35.6875 56 
Q 41.65625 56 45.828125 52.96875 
Q 50 49.953125 52 44.1875 
z
" id="DejaVuSans-109"/>
      <path d="M 56.203125 29.59375 
L 56.203125 25.203125 
L 14.890625 25.203125 
Q 15.484375 15.921875 20.484375 11.0625 
Q 25.484375 6.203125 34.421875 6.203125 
Q 39.59375 6.203125 44.453125 7.46875 
Q 49.3125 8.734375 54.109375 11.28125 
L 54.109375 2.78125 
Q 49.265625 0.734375 44.1875 -0.34375 
Q 39.109375 -1.421875 33.890625 -1.421875 
Q 20.796875 -1.421875 13.15625 6.1875 
Q 5.515625 13.8125 5.515625 26.8125 
Q 5.515625 40.234375 12.765625 48.109375 
Q 20.015625 56 32.328125 56 
Q 43.359375 56 49.78125 48.890625 
Q 56.203125 41.796875 56.203125 29.59375 
z
M 47.21875 32.234375 
Q 47.125 39.59375 43.09375 43.984375 
Q 39.0625 48.390625 32.421875 48.390625 
Q 24.90625 48.390625 20.390625 44.140625 
Q 15.875 39.890625 15.1875 32.171875 
z
" id="DejaVuSans-101"/>
      <path id="DejaVuSans-32"/>
      <path d="M 8.59375 75.984375 
L 29.296875 75.984375 
L 29.296875 69 
L 17.578125 69 
L 17.578125 -6.203125 
L 29.296875 -6.203125 
L 29.296875 -13.1875 
L 8.59375 -13.1875 
z
" id="DejaVuSans-91"/>
      <path d="M 44.28125 53.078125 
L 44.28125 44.578125 
Q 40.484375 46.53125 36.375 47.5 
Q 32.28125 48.484375 27.875 48.484375 
Q 21.1875 48.484375 17.84375 46.4375 
Q 14.5 44.390625 14.5 40.28125 
Q 14.5 37.15625 16.890625 35.375 
Q 19.28125 33.59375 26.515625 31.984375 
L 29.59375 31.296875 
Q 39.15625 29.25 43.1875 25.515625 
Q 47.21875 21.78125 47.21875 15.09375 
Q 47.21875 7.46875 41.1875 3.015625 
Q 35.15625 -1.421875 24.609375 -1.421875 
Q 20.21875 -1.421875 15.453125 -0.5625 
Q 10.6875 0.296875 5.421875 2 
L 5.421875 11.28125 
Q 10.40625 8.6875 15.234375 7.390625 
Q 20.0625 6.109375 24.8125 6.109375 
Q 31.15625 6.109375 34.5625 8.28125 
Q 37.984375 10.453125 37.984375 14.40625 
Q 37.984375 18.0625 35.515625 20.015625 
Q 33.0625 21.96875 24.703125 23.78125 
L 21.578125 24.515625 
Q 13.234375 26.265625 9.515625 29.90625 
Q 5.8125 33.546875 5.8125 39.890625 
Q 5.8125 47.609375 11.28125 51.796875 
Q 16.75 56 26.8125 56 
Q 31.78125 56 36.171875 55.265625 
Q 40.578125 54.546875 44.28125 53.078125 
z
" id="DejaVuSans-115"/>
      <path d="M 30.421875 75.984375 
L 30.421875 -13.1875 
L 9.71875 -13.1875 
L 9.71875 -6.203125 
L 21.390625 -6.203125 
L 21.390625 69 
L 9.71875 69 
L 9.71875 75.984375 
z
" id="DejaVuSans-93"/>
     </defs>
     <g transform="translate(234.038281 412.756563)scale(0.1 -0.1)">
      <use xlink:href="#DejaVuSans-116"/>
      <use x="39.208984" xlink:href="#DejaVuSans-105"/>
      <use x="66.992188" xlink:href="#DejaVuSans-109"/>
      <use x="164.404297" xlink:href="#DejaVuSans-101"/>
      <use x="225.927734" xlink:href="#DejaVuSans-32"/>
      <use x="257.714844" xlink:href="#DejaVuSans-91"/>
      <use x="296.728516" xlink:href="#DejaVuSans-109"/>
      <use x="394.140625" xlink:href="#DejaVuSans-115"/>
      <use x="446.240234" xlink:href="#DejaVuSans-93"/>
     </g>
    </g>
   </g>
   <g id="matplotlib.axis_2">
    <g id="ytick_1">
     <g id="line2d_6">
      <defs>
       <path d="M 0 0 
L -3.5 0 
" id="mce3a873ccd" style="stroke:#000000;stroke-width:0.8;"/>
      </defs>
      <g>
       <use style="stroke:#000000;stroke-width:0.8;" x="63" xlink:href="#mce3a873ccd" y="365.154187"/>
      </g>
     </g>
     <g id="text_7">
      <!-- −80 -->
      <defs>
       <path d="M 10.59375 35.5 
L 73.1875 35.5 
L 73.1875 27.203125 
L 10.59375 27.203125 
z
" id="DejaVuSans-8722"/>
      </defs>
      <g transform="translate(34.895313 368.953406)scale(0.1 -0.1)">
       <use xlink:href="#DejaVuSans-8722"/>
       <use x="83.789062" xlink:href="#DejaVuSans-56"/>
       <use x="147.412109" xlink:href="#DejaVuSans-48"/>
      </g>
     </g>
    </g>
    <g id="ytick_2">
     <g id="line2d_7">
      <g>
       <use style="stroke:#000000;stroke-width:0.8;" x="63" xlink:href="#mce3a873ccd" y="321.114258"/>
      </g>
     </g>
     <g id="text_8">
      <!-- −60 -->
      <g transform="translate(34.895313 324.913477)scale(0.1 -0.1)">
       <use xlink:href="#DejaVuSans-8722"/>
       <use x="83.789062" xlink:href="#DejaVuSans-54"/>
       <use x="147.412109" xlink:href="#DejaVuSans-48"/>
      </g>
     </g>
    </g>
    <g id="ytick_3">
     <g id="line2d_8">
      <g>
       <use style="stroke:#000000;stroke-width:0.8;" x="63" xlink:href="#mce3a873ccd" y="277.074329"/>
      </g>
     </g>
     <g id="text_9">
      <!-- −40 -->
      <g transform="translate(34.895313 280.873548)scale(0.1 -0.1)">
       <use xlink:href="#DejaVuSans-8722"/>
       <use x="83.789062" xlink:href="#DejaVuSans-52"/>
       <use x="147.412109" xlink:href="#DejaVuSans-48"/>
      </g>
     </g>
    </g>
    <g id="ytick_4">
     <g id="line2d_9">
      <g>
       <use style="stroke:#000000;stroke-width:0.8;" x="63" xlink:href="#mce3a873ccd" y="233.0344"/>
      </g>
     </g>
     <g id="text_10">
      <!-- −20 -->
      <g transform="translate(34.895313 236.833619)scale(0.1 -0.1)">
       <use xlink:href="#DejaVuSans-8722"/>
       <use x="83.789062" xlink:href="#DejaVuSans-50"/>
       <use x="147.412109" xlink:href="#DejaVuSans-48"/>
      </g>
     </g>
    </g>
    <g id="ytick_5">
     <g id="line2d_10">
      <g>
       <use style="stroke:#000000;stroke-width:0.8;" x="63" xlink:href="#mce3a873ccd" y="188.994471"/>
      </g>
     </g>
     <g id="text_11">
      <!-- 0 -->
      <g transform="translate(49.6375 192.79369)scale(0.1 -0.1)">
       <use xlink:href="#DejaVuSans-48"/>
      </g>
     </g>
    </g>
    <g id="ytick_6">
     <g id="line2d_11">
      <g>
       <use style="stroke:#000000;stroke-width:0.8;" x="63" xlink:href="#mce3a873ccd" y="144.954542"/>
      </g>
     </g>
     <g id="text_12">
      <!-- 20 -->
      <g transform="translate(43.275 148.753761)scale(0.1 -0.1)">
       <use xlink:href="#DejaVuSans-50"/>
       <use x="63.623047" xlink:href="#DejaVuSans-48"/>
      </g>
     </g>
    </g>
    <g id="ytick_7">
     <g id="line2d_12">
      <g>
       <use style="stroke:#000000;stroke-width:0.8;" x="63" xlink:href="#mce3a873ccd" y="100.914613"/>
      </g>
     </g>
     <g id="text_13">
      <!-- 40 -->
      <g transform="translate(43.275 104.713832)scale(0.1 -0.1)">
       <use xlink:href="#DejaVuSans-52"/>
       <use x="63.623047" xlink:href="#DejaVuSans-48"/>
      </g>
     </g>
    </g>
    <g id="ytick_8">
     <g id="line2d_13">
      <g>
       <use style="stroke:#000000;stroke-width:0.8;" x="63" xlink:href="#mce3a873ccd" y="56.874684"/>
      </g>
     </g>
     <g id="text_14">
      <!-- 60 -->
      <g transform="translate(43.275 60.673903)scale(0.1 -0.1)">
       <use xlink:href="#DejaVuSans-54"/>
       <use x="63.623047" xlink:href="#DejaVuSans-48"/>
      </g>
     </g>
    </g>
    <g id="text_15">
     <!-- voltage [mV] -->
     <defs>
      <path d="M 2.984375 54.6875 
L 12.5 54.6875 
L 29.59375 8.796875 
L 46.6875 54.6875 
L 56.203125 54.6875 
L 35.6875 0 
L 23.484375 0 
z
" id="DejaVuSans-118"/>
      <path d="M 30.609375 48.390625 
Q 23.390625 48.390625 19.1875 42.75 
Q 14.984375 37.109375 14.984375 27.296875 
Q 14.984375 17.484375 19.15625 11.84375 
Q 23.34375 6.203125 30.609375 6.203125 
Q 37.796875 6.203125 41.984375 11.859375 
Q 46.1875 17.53125 46.1875 27.296875 
Q 46.1875 37.015625 41.984375 42.703125 
Q 37.796875 48.390625 30.609375 48.390625 
z
M 30.609375 56 
Q 42.328125 56 49.015625 48.375 
Q 55.71875 40.765625 55.71875 27.296875 
Q 55.71875 13.875 49.015625 6.21875 
Q 42.328125 -1.421875 30.609375 -1.421875 
Q 18.84375 -1.421875 12.171875 6.21875 
Q 5.515625 13.875 5.515625 27.296875 
Q 5.515625 40.765625 12.171875 48.375 
Q 18.84375 56 30.609375 56 
z
" id="DejaVuSans-111"/>
      <path d="M 9.421875 75.984375 
L 18.40625 75.984375 
L 18.40625 0 
L 9.421875 0 
z
" id="DejaVuSans-108"/>
      <path d="M 34.28125 27.484375 
Q 23.390625 27.484375 19.1875 25 
Q 14.984375 22.515625 14.984375 16.5 
Q 14.984375 11.71875 18.140625 8.90625 
Q 21.296875 6.109375 26.703125 6.109375 
Q 34.1875 6.109375 38.703125 11.40625 
Q 43.21875 16.703125 43.21875 25.484375 
L 43.21875 27.484375 
z
M 52.203125 31.203125 
L 52.203125 0 
L 43.21875 0 
L 43.21875 8.296875 
Q 40.140625 3.328125 35.546875 0.953125 
Q 30.953125 -1.421875 24.3125 -1.421875 
Q 15.921875 -1.421875 10.953125 3.296875 
Q 6 8.015625 6 15.921875 
Q 6 25.140625 12.171875 29.828125 
Q 18.359375 34.515625 30.609375 34.515625 
L 43.21875 34.515625 
L 43.21875 35.40625 
Q 43.21875 41.609375 39.140625 45 
Q 35.0625 48.390625 27.6875 48.390625 
Q 23 48.390625 18.546875 47.265625 
Q 14.109375 46.140625 10.015625 43.890625 
L 10.015625 52.203125 
Q 14.9375 54.109375 19.578125 55.046875 
Q 24.21875 56 28.609375 56 
Q 40.484375 56 46.34375 49.84375 
Q 52.203125 43.703125 52.203125 31.203125 
z
" id="DejaVuSans-97"/>
      <path d="M 45.40625 27.984375 
Q 45.40625 37.75 41.375 43.109375 
Q 37.359375 48.484375 30.078125 48.484375 
Q 22.859375 48.484375 18.828125 43.109375 
Q 14.796875 37.75 14.796875 27.984375 
Q 14.796875 18.265625 18.828125 12.890625 
Q 22.859375 7.515625 30.078125 7.515625 
Q 37.359375 7.515625 41.375 12.890625 
Q 45.40625 18.265625 45.40625 27.984375 
z
M 54.390625 6.78125 
Q 54.390625 -7.171875 48.1875 -13.984375 
Q 42 -20.796875 29.203125 -20.796875 
Q 24.46875 -20.796875 20.265625 -20.09375 
Q 16.0625 -19.390625 12.109375 -17.921875 
L 12.109375 -9.1875 
Q 16.0625 -11.328125 19.921875 -12.34375 
Q 23.78125 -13.375 27.78125 -13.375 
Q 36.625 -13.375 41.015625 -8.765625 
Q 45.40625 -4.15625 45.40625 5.171875 
L 45.40625 9.625 
Q 42.625 4.78125 38.28125 2.390625 
Q 33.9375 0 27.875 0 
Q 17.828125 0 11.671875 7.65625 
Q 5.515625 15.328125 5.515625 27.984375 
Q 5.515625 40.671875 11.671875 48.328125 
Q 17.828125 56 27.875 56 
Q 33.9375 56 38.28125 53.609375 
Q 42.625 51.21875 45.40625 46.390625 
L 45.40625 54.6875 
L 54.390625 54.6875 
z
" id="DejaVuSans-103"/>
      <path d="M 28.609375 0 
L 0.78125 72.90625 
L 11.078125 72.90625 
L 34.1875 11.53125 
L 57.328125 72.90625 
L 67.578125 72.90625 
L 39.796875 0 
z
" id="DejaVuSans-86"/>
     </defs>
     <g transform="translate(28.815625 250.624062)rotate(-90)scale(0.1 -0.1)">
      <use xlink:href="#DejaVuSans-118"/>
      <use x="59.179688" xlink:href="#DejaVuSans-111"/>
      <use x="120.361328" xlink:href="#DejaVuSans-108"/>
      <use x="148.144531" xlink:href="#DejaVuSans-116"/>
      <use x="187.353516" xlink:href="#DejaVuSans-97"/>
      <use x="248.632812" xlink:href="#DejaVuSans-103"/>
      <use x="312.109375" xlink:href="#DejaVuSans-101"/>
      <use x="373.632812" xlink:href="#DejaVuSans-32"/>
      <use x="405.419922" xlink:href="#DejaVuSans-91"/>
      <use x="444.433594" xlink:href="#DejaVuSans-109"/>
      <use x="541.845703" xlink:href="#DejaVuSans-86"/>
      <use x="610.253906" xlink:href="#DejaVuSans-93"/>
     </g>
    </g>
   </g>
   <g id="line2d_14">
    <path clip-path="url(#p2d078685fe)" d="M 80.754545 317.802662 
L 83.385088 317.695142 
L 83.417364 317.587623 
L 83.465779 317.802662 
L 83.481917 317.695142 
L 83.966066 317.587623 
L 84.062896 317.480104 
L 84.175864 317.587623 
L 84.547045 317.695142 
L 84.660013 317.802662 
L 84.96664 317.695142 
L 85.079609 317.587623 
L 85.337821 317.695142 
L 85.35396 317.802662 
L 85.402374 317.587623 
L 85.418513 317.587623 
L 86.322257 317.695142 
L 86.435225 317.802662 
L 87.419661 317.910181 
L 87.532629 318.0177 
L 87.581044 317.910181 
L 87.629459 318.0177 
L 88.694587 318.12522 
L 88.807555 318.232739 
L 88.85597 318.12522 
L 89.049629 305.868013 
L 89.501501 294.363442 
L 90.356831 279.418251 
L 91.196022 269.633989 
L 91.454235 267.268563 
L 91.777001 264.365541 
L 92.503224 260.172286 
L 92.535501 260.064767 
L 92.713022 259.52717 
L 92.745299 259.41965 
L 92.971235 258.559496 
L 93.01965 258.451976 
L 93.213309 257.80686 
L 93.358554 257.699341 
L 93.536075 257.161744 
L 93.600628 257.054225 
L 93.762011 256.624147 
L 93.858841 256.516628 
L 94.004086 256.19407 
L 94.213884 256.08655 
L 94.359128 255.763992 
L 95.133766 255.656473 
L 95.182181 255.548954 
L 95.230596 255.656473 
L 95.843851 255.548954 
L 95.989096 255.118876 
L 96.053649 255.226395 
L 96.085926 255.118876 
L 96.392553 255.011357 
L 96.505522 254.903837 
L 96.796011 255.011357 
L 97.005809 255.763992 
L 97.070362 255.871512 
L 97.215607 256.19407 
L 97.393128 256.08655 
L 97.425404 255.979031 
L 97.489958 256.08655 
L 97.845 255.979031 
L 97.974106 255.763992 
L 98.264596 255.871512 
L 98.296872 255.979031 
L 98.345287 255.871512 
L 98.458255 255.763992 
L 98.50667 255.871512 
L 98.538947 255.979031 
L 98.571223 255.763992 
L 98.6035 255.871512 
L 99.119925 255.763992 
L 99.249032 255.548954 
L 99.959117 255.441434 
L 100.055947 255.333915 
L 100.572372 258.129418 
L 100.620787 258.236937 
L 100.733755 258.451976 
L 100.862861 258.236937 
L 101.024244 258.129418 
L 101.153351 257.914379 
L 101.298595 257.80686 
L 101.44384 257.484302 
L 101.556808 257.376783 
L 101.685914 257.161744 
L 101.831159 257.054225 
L 101.847297 256.946705 
L 101.927989 257.054225 
L 102.10551 256.946705 
L 102.266893 256.516628 
L 102.363723 256.409108 
L 102.492829 256.19407 
L 102.993116 256.08655 
L 103.057669 255.763992 
L 103.106084 255.871512 
L 103.251329 256.19407 
L 103.380435 255.979031 
L 103.687063 255.871512 
L 103.783893 255.763992 
L 103.880722 255.871512 
L 103.993691 255.763992 
L 104.09052 255.656473 
L 104.18735 255.548954 
L 104.300318 255.656473 
L 104.38101 255.548954 
L 104.526254 255.118876 
L 104.574669 255.226395 
L 104.623084 255.118876 
L 104.897435 255.011357 
L 105.010403 254.903837 
L 105.236339 255.011357 
L 105.317031 255.118876 
L 105.333169 255.011357 
L 106.107807 254.903837 
L 106.123945 254.796318 
L 106.17236 255.011357 
L 106.204637 254.903837 
L 106.882445 255.011357 
L 106.995413 255.118876 
L 107.705498 255.011357 
L 107.737775 254.903837 
L 107.78619 255.118876 
L 108.383307 255.011357 
L 108.512413 254.796318 
L 108.576966 254.688799 
L 108.689934 254.581279 
L 109.254775 254.47376 
L 109.335466 254.366241 
L 109.351605 254.47376 
L 109.690509 254.366241 
L 109.819615 254.151202 
L 109.916445 254.258721 
L 110.013275 254.151202 
L 110.126243 254.258721 
L 110.5297 254.366241 
L 110.610392 254.47376 
L 110.62653 254.366241 
L 111.368891 254.47376 
L 111.497998 254.688799 
L 111.836902 254.796318 
L 111.85304 254.903837 
L 111.933732 254.796318 
L 112.256498 254.903837 
L 112.321051 254.796318 
L 112.369466 255.011357 
L 112.821338 255.118876 
L 112.837476 255.226395 
L 112.869753 255.011357 
L 112.902029 255.011357 
L 113.144104 255.118876 
L 113.289349 255.441434 
L 113.37004 255.548954 
L 113.499146 255.763992 
L 113.595976 255.871512 
L 113.644391 255.979031 
L 113.692806 255.871512 
L 113.789636 255.763992 
L 113.870327 255.656473 
L 113.886465 255.763992 
L 114.160817 255.871512 
L 114.257646 255.979031 
L 114.386753 255.656473 
L 114.419029 255.763992 
L 114.483582 255.656473 
L 114.580412 255.441434 
L 114.59655 255.548954 
L 114.806348 255.441434 
L 114.919316 255.333915 
L 115.35505 255.226395 
L 115.468018 255.118876 
L 115.758508 255.011357 
L 115.887614 254.796318 
L 116.161965 254.688799 
L 116.258795 254.47376 
L 116.274933 254.581279 
L 116.355625 254.47376 
L 116.468593 254.366241 
L 116.533146 254.258721 
L 116.662252 254.043683 
L 117.017295 254.151202 
L 117.033433 254.258721 
L 117.114125 254.151202 
L 117.259369 254.258721 
L 117.43689 254.796318 
L 117.469167 254.903837 
L 117.662827 255.548954 
L 117.711241 255.656473 
L 117.791933 255.871512 
L 117.82421 255.763992 
L 117.921039 255.871512 
L 118.034007 255.979031 
L 118.647263 255.871512 
L 118.760231 255.763992 
L 119.05072 255.656473 
L 119.131411 255.548954 
L 119.14755 255.656473 
L 119.518731 255.548954 
L 119.647837 255.333915 
L 119.80922 255.226395 
L 119.922188 255.118876 
L 120.099709 255.011357 
L 120.244954 254.688799 
L 120.438613 254.581279 
L 120.551581 254.47376 
L 120.664549 254.366241 
L 120.696826 254.258721 
L 120.745241 254.47376 
L 121.116422 254.581279 
L 121.22939 254.688799 
L 121.600571 254.581279 
L 121.729677 254.366241 
L 121.810368 254.258721 
L 121.939475 254.043683 
L 122.116996 253.936163 
L 122.213826 253.828644 
L 122.342932 254.043683 
L 122.778666 253.936163 
L 122.810943 253.828644 
L 122.875496 253.936163 
L 122.923911 254.043683 
L 122.972326 253.936163 
L 123.133709 254.043683 
L 123.262815 254.258721 
L 123.553304 254.366241 
L 123.682411 254.581279 
L 123.827655 254.258721 
L 123.924485 254.366241 
L 123.940623 254.47376 
L 124.005177 254.258721 
L 124.360219 254.151202 
L 124.473187 254.043683 
L 124.682985 254.151202 
L 124.812091 254.366241 
L 125.215549 254.47376 
L 125.328517 254.688799 
L 125.360793 254.796318 
L 125.441485 254.581279 
L 125.764251 254.47376 
L 125.780389 254.366241 
L 125.861081 254.47376 
L 126.038602 254.366241 
L 126.15157 254.258721 
L 126.329091 254.151202 
L 126.425921 254.043683 
L 126.538889 254.151202 
L 127.136006 254.043683 
L 127.152144 253.936163 
L 127.232836 254.043683 
L 127.248974 254.151202 
L 127.297389 253.936163 
L 127.313527 253.936163 
L 127.394219 254.043683 
L 127.442633 254.258721 
L 127.507187 254.151202 
L 127.523325 254.043683 
L 127.604016 254.151202 
L 127.975197 254.043683 
L 128.104304 253.828644 
L 128.217272 253.721124 
L 128.33024 253.613605 
L 128.410931 253.506086 
L 128.523899 253.398566 
L 129.08874 253.291047 
L 129.137154 253.183528 
L 129.185569 253.291047 
L 129.605165 253.398566 
L 129.718133 253.506086 
L 129.831101 253.398566 
L 130.008622 252.86097 
L 130.137729 252.75345 
L 130.266835 252.538411 
L 130.525048 252.430892 
L 130.541186 252.323373 
L 130.589601 252.538411 
L 130.621878 252.430892 
L 130.670292 252.538411 
L 130.718707 252.430892 
L 131.07375 252.323373 
L 131.138303 252.215853 
L 131.17058 252.323373 
L 131.202856 252.215853 
L 131.315824 252.108334 
L 132.477782 252.215853 
L 132.59075 252.323373 
L 132.768271 252.215853 
L 132.816686 252.108334 
L 132.865101 252.215853 
L 133.268558 252.323373 
L 133.381526 252.430892 
L 133.413803 252.430892 
L 133.559047 252.968489 
L 133.591324 252.86097 
L 133.607462 253.076008 
L 133.623601 253.076008 
L 133.736569 253.183528 
L 133.784983 253.291047 
L 133.930228 253.613605 
L 133.978643 253.721124 
L 134.156164 254.258721 
L 134.269132 254.151202 
L 134.430515 254.258721 
L 134.559622 254.47376 
L 134.624175 254.366241 
L 134.656451 254.47376 
L 134.817834 254.366241 
L 134.930802 254.258721 
L 135.301983 254.151202 
L 135.414951 253.828644 
L 135.43109 253.936163 
L 135.818409 253.828644 
L 135.834547 253.721124 
L 135.866824 253.936163 
L 135.915238 253.828644 
L 136.044345 253.721124 
L 136.060483 253.613605 
L 136.141175 253.721124 
L 136.883536 253.613605 
L 137.028781 253.291047 
L 137.157887 253.183528 
L 137.206302 252.968489 
L 137.254717 253.183528 
L 137.367685 253.076008 
L 137.432238 252.86097 
L 137.464515 253.076008 
L 137.690451 252.968489 
L 137.819557 252.75345 
L 137.916387 252.86097 
L 138.013217 252.968489 
L 138.158461 252.645931 
L 138.707163 252.538411 
L 138.820132 252.430892 
L 139.126759 252.538411 
L 139.239727 252.645931 
L 139.772291 252.538411 
L 139.901397 252.323373 
L 139.998227 252.430892 
L 140.095057 252.323373 
L 140.111195 252.430892 
L 140.191887 252.323373 
L 140.756727 252.215853 
L 140.885833 252.000815 
L 140.966525 251.893295 
L 141.095631 251.678257 
L 141.321567 252.538411 
L 141.402259 252.645931 
L 141.531365 252.86097 
L 141.902546 252.75345 
L 142.015514 252.645931 
L 142.14462 252.538411 
L 142.257588 252.430892 
L 142.80629 252.323373 
L 142.935397 252.108334 
L 144.339429 252.215853 
L 144.468535 252.645931 
L 144.484673 252.538411 
L 144.581503 252.430892 
L 144.726748 252.75345 
L 145.049513 252.86097 
L 145.08179 252.968489 
L 145.146343 252.86097 
L 145.340003 252.75345 
L 145.469109 252.538411 
L 145.64663 252.430892 
L 145.759598 252.323373 
L 146.308301 252.215853 
L 146.388992 252.000815 
L 146.421269 252.108334 
L 147.244322 252.215853 
L 147.26046 252.323373 
L 147.341151 252.215853 
L 147.550949 252.108334 
L 147.663917 252.000815 
L 148.180343 252.108334 
L 148.309449 252.323373 
L 148.374002 252.215853 
L 148.48697 252.108334 
L 148.874289 252.000815 
L 148.890428 251.893295 
L 148.971119 252.000815 
L 149.100226 252.108334 
L 149.116364 252.215853 
L 149.164779 252.000815 
L 149.197055 252.108334 
L 149.293885 252.000815 
L 149.406853 251.893295 
L 149.697343 252.000815 
L 149.810311 252.108334 
L 149.971694 252.108334 
L 150.00397 251.893295 
L 150.084662 252.000815 
L 150.407427 252.108334 
L 150.601087 252.75345 
L 150.746332 252.430892 
L 151.085236 252.538411 
L 151.149789 252.645931 
L 151.182066 252.538411 
L 151.359587 252.430892 
L 151.375725 252.323373 
L 151.456417 252.430892 
L 151.811459 252.323373 
L 151.843736 252.215853 
L 151.908289 252.323373 
L 152.424714 252.215853 
L 152.553821 252.000815 
L 152.650651 251.893295 
L 152.715204 251.785776 
L 152.74748 251.893295 
L 152.763619 252.000815 
L 152.812033 251.785776 
L 152.828172 251.785776 
L 153.40915 251.785776 
L 153.60281 264.042983 
L 154.054682 275.440035 
L 154.425863 282.428793 
L 154.861597 289.094993 
L 154.974565 290.492745 
L 155.68465 298.556697 
L 155.894448 300.599564 
L 156.265629 304.147703 
L 156.281767 304.147703 
L 156.556118 306.40561 
L 158.62182 319.522971 
L 158.670235 319.630491 
L 158.993001 321.135762 
L 159.057554 321.243281 
L 159.299628 322.210955 
L 159.331905 322.318475 
L 159.557841 323.17863 
L 159.622394 323.286149 
L 159.832192 324.038784 
L 159.896745 324.146304 
L 160.090405 324.79142 
L 160.122681 324.898939 
L 160.300202 325.436536 
L 160.348617 325.544055 
L 160.493862 325.866613 
L 160.526139 325.974133 
L 160.70366 326.51173 
L 160.768213 326.619249 
L 160.929596 327.049326 
L 161.042564 327.156846 
L 161.187809 327.479404 
L 161.413745 327.586923 
L 161.558989 327.909481 
L 161.639681 328.017001 
L 161.768787 328.232039 
L 161.897894 328.339559 
L 162.027 328.554597 
L 162.091553 328.662117 
L 162.22066 328.877155 
L 162.285213 328.984675 
L 162.317489 329.092194 
L 162.382043 328.984675 
L 162.462734 329.092194 
L 162.59184 329.307233 
L 162.995298 329.414752 
L 163.108266 329.522272 
L 163.318064 329.629791 
L 163.431032 329.84483 
L 163.463308 329.73731 
L 163.527861 329.84483 
L 163.64083 329.952349 
L 163.931319 330.059868 
L 164.044287 330.167388 
L 164.544574 330.059868 
L 164.625266 329.952349 
L 164.641404 330.059868 
L 165.997021 329.952349 
L 166.126127 329.73731 
L 166.206818 329.84483 
L 166.222957 329.73731 
L 166.432755 329.629791 
L 166.561861 329.414752 
L 166.900765 329.307233 
L 167.013733 329.199714 
L 167.304223 329.092194 
L 167.449467 328.769636 
L 167.659265 328.662117 
L 167.772233 328.554597 
L 168.014308 328.447078 
L 168.159552 328.12452 
L 168.450042 328.017001 
L 168.56301 327.909481 
L 168.579148 328.017001 
L 168.627563 327.801962 
L 168.643701 327.909481 
L 168.756669 327.801962 
L 168.837361 327.694443 
L 168.853499 327.586923 
L 168.885775 327.801962 
L 168.93419 327.694443 
L 169.12785 327.586923 
L 169.256956 327.371884 
L 169.418339 327.264365 
L 169.499031 327.156846 
L 169.611999 318.770336 
L 169.708829 318.877855 
L 169.724967 318.985375 
L 169.805658 318.877855 
L 170.951477 318.985375 
L 170.967616 319.092894 
L 171.048307 318.985375 
L 171.790669 319.092894 
L 171.822945 319.200413 
L 171.887498 319.092894 
L 171.952052 318.985375 
L 172.048881 318.877855 
L 172.161849 318.985375 
L 172.387786 318.877855 
L 172.500754 318.770336 
L 173.162424 318.662816 
L 173.29153 318.447778 
L 174.518041 318.555297 
L 174.582594 318.662816 
L 174.61487 318.555297 
L 175.018328 318.662816 
L 175.147434 318.877855 
L 175.260402 318.770336 
L 175.389508 318.877855 
L 175.405647 318.985375 
L 175.486338 318.877855 
L 175.615445 318.985375 
L 175.712274 319.092894 
L 175.825242 318.985375 
L 175.93821 319.092894 
L 176.164147 319.200413 
L 176.277115 319.307933 
L 176.390083 319.200413 
L 176.664434 319.092894 
L 176.777402 318.985375 
L 176.938785 318.877855 
L 176.971061 318.770336 
L 177.019476 318.985375 
L 177.035615 318.877855 
L 177.616593 318.877855 
L 177.810253 302.857471 
L 178.391231 284.041583 
L 179.149731 266.730967 
L 179.82754 255.333915 
L 180.39238 249.205311 
L 180.860391 246.732366 
L 180.876529 246.732366 
L 181.021773 246.194769 
L 181.183156 245.764692 
L 181.312263 245.657173 
L 181.473646 245.227095 
L 181.505922 245.119576 
L 181.699582 244.47446 
L 181.764135 244.36694 
L 181.893241 244.151902 
L 182.328975 244.044382 
L 182.47422 243.721824 
L 182.506497 243.614305 
L 182.635603 243.399266 
L 182.716294 243.291747 
L 182.877677 242.861669 
L 182.926092 242.969189 
L 182.974507 243.076708 
L 183.022922 242.969189 
L 183.103614 242.861669 
L 183.23272 242.646631 
L 183.281135 242.539111 
L 183.442518 242.109034 
L 183.474794 242.001514 
L 183.668454 241.356398 
L 183.70073 241.248879 
L 183.845975 240.926321 
L 183.89439 240.818801 
L 184.168741 239.636089 
L 184.313986 239.528569 
L 184.523784 238.775934 
L 184.814273 238.668414 
L 184.927241 238.023298 
L 184.975656 238.238337 
L 185.072486 238.130818 
L 185.250007 237.378182 
L 185.266145 237.485701 
L 185.346837 237.378182 
L 185.492081 237.055624 
L 185.524358 236.948105 
L 186.411964 230.496943 
L 186.428102 229.851827 
L 186.444241 223.185627 
L 186.492656 77.06682 
L 186.573347 153.513083 
L 186.73473 240.388724 
L 186.944528 243.184227 
L 188.05807 256.731666 
L 188.074208 256.731666 
L 188.25173 257.699341 
L 188.461528 258.451976 
L 188.526081 258.559496 
L 188.71974 259.204612 
L 188.768155 259.312131 
L 188.929538 259.742208 
L 189.026368 259.634689 
L 189.155474 259.849728 
L 189.720315 259.742208 
L 189.849421 259.52717 
L 190.091495 259.41965 
L 190.220602 259.204612 
L 190.285155 259.097092 
L 190.414261 258.882054 
L 190.4304 258.989573 
L 190.494953 258.774534 
L 190.591783 258.667015 
L 190.704751 258.559496 
L 190.89841 258.451976 
L 191.011378 258.344457 
L 191.140485 258.236937 
L 191.285729 257.914379 
L 191.46325 257.80686 
L 191.624633 257.376783 
L 192.205612 257.269263 
L 192.334718 257.054225 
L 192.41541 256.946705 
L 192.544516 256.516628 
L 192.560655 256.624147 
L 192.609069 256.516628 
L 192.625208 256.409108 
L 192.705899 256.516628 
L 192.835006 256.409108 
L 192.899559 256.301589 
L 192.931835 256.409108 
L 193.238463 256.301589 
L 193.367569 256.08655 
L 193.512814 255.979031 
L 193.64192 255.763992 
L 193.916271 255.656473 
L 194.061516 255.333915 
L 194.448835 255.226395 
L 194.577941 255.011357 
L 194.723186 254.903837 
L 194.884569 254.47376 
L 194.981399 254.366241 
L 195.110505 254.151202 
L 195.271888 254.043683 
L 195.35258 253.828644 
L 195.384856 253.936163 
L 195.465548 253.828644 
L 195.594654 253.613605 
L 195.885143 253.506086 
L 195.998111 253.398566 
L 196.094941 253.291047 
L 196.256324 252.86097 
L 196.353154 252.968489 
L 196.449984 252.86097 
L 196.546813 252.968489 
L 196.67592 252.75345 
L 197.14393 252.645931 
L 197.160069 252.538411 
L 197.224622 252.75345 
L 197.402143 252.86097 
L 197.579664 253.506086 
L 197.628079 253.398566 
L 197.660356 253.613605 
L 197.724909 253.721124 
L 197.821739 253.936163 
L 197.837877 253.828644 
L 197.950845 253.936163 
L 198.09609 254.258721 
L 198.467271 254.151202 
L 198.483409 254.043683 
L 198.5641 254.151202 
L 198.644792 254.043683 
L 198.790036 253.721124 
L 198.935281 253.613605 
L 199.080526 253.291047 
L 199.193494 253.183528 
L 199.354877 252.75345 
L 199.41943 252.645931 
L 199.548536 252.430892 
L 199.661504 252.538411 
L 199.790611 252.430892 
L 199.919717 252.215853 
L 199.98427 252.108334 
L 200.048824 251.893295 
L 200.097238 252.000815 
L 200.516834 251.893295 
L 200.662079 251.463218 
L 200.710494 251.570737 
L 200.758908 251.463218 
L 200.871877 251.355699 
L 201.000983 251.14066 
L 201.065536 251.03314 
L 201.210781 250.710582 
L 201.372164 250.603063 
L 201.485132 250.495544 
L 201.646515 250.388024 
L 201.775621 250.172986 
L 202.130664 250.065466 
L 202.195217 249.957947 
L 202.227493 250.065466 
L 202.3566 249.957947 
L 202.485706 249.742908 
L 202.550259 249.635389 
L 202.711642 249.205311 
L 202.969855 249.097792 
L 203.098961 248.882753 
L 203.728355 248.990273 
L 203.792908 249.205311 
L 203.841323 249.097792 
L 204.083397 249.205311 
L 204.14795 249.312831 
L 204.180227 249.205311 
L 204.632099 249.097792 
L 204.728929 248.882753 
L 204.745067 248.990273 
L 204.809621 248.882753 
L 204.938727 248.667715 
L 205.019418 248.775234 
L 205.116248 248.882753 
L 205.164663 248.775234 
L 205.19694 248.990273 
L 205.213078 248.882753 
L 205.261493 248.990273 
L 205.358323 249.205311 
L 205.374461 249.097792 
L 206.052269 249.205311 
L 206.197514 249.527869 
L 206.455727 249.635389 
L 206.584833 249.850428 
L 206.665525 249.957947 
L 206.810769 250.280505 
L 207.343333 250.172986 
L 207.359471 250.065466 
L 207.440163 250.172986 
L 207.666099 250.280505 
L 207.682237 250.388024 
L 207.762929 250.280505 
L 208.021141 250.172986 
L 208.150248 249.957947 
L 208.198663 249.850428 
L 208.360046 249.42035 
L 208.473014 249.312831 
L 208.585982 249.205311 
L 208.924886 249.097792 
L 209.053992 248.882753 
L 209.215375 248.775234 
L 209.344482 248.560195 
L 209.538141 248.452676 
L 209.683386 248.130118 
L 209.715662 248.022598 
L 209.844769 247.80756 
L 210.054567 247.70004 
L 210.11912 247.592521 
L 210.151396 247.70004 
L 210.264364 247.80756 
L 210.393471 248.022598 
L 211.055141 247.915079 
L 211.200385 247.592521 
L 211.329492 247.485002 
L 211.458598 247.269963 
L 211.652258 247.162444 
L 211.749088 247.054924 
L 211.781364 247.162444 
L 211.829779 246.947405 
L 211.845917 247.054924 
L 211.991162 246.732366 
L 212.168683 246.839886 
L 212.313928 247.162444 
L 212.410758 247.054924 
L 212.475311 246.839886 
L 212.507587 246.947405 
L 212.556002 247.054924 
L 212.588279 246.947405 
L 212.636694 246.839886 
L 212.685109 246.947405 
L 212.846492 247.377482 
L 213.185396 247.269963 
L 213.217672 247.162444 
L 213.266087 247.377482 
L 213.556577 247.269963 
L 213.653406 247.162444 
L 213.750236 247.269963 
L 213.927757 246.732366 
L 214.024587 246.624847 
L 214.073002 246.409808 
L 214.137555 246.517327 
L 214.2828 246.409808 
L 214.395768 246.302289 
L 214.589427 246.194769 
L 214.718534 245.979731 
L 214.84764 246.08725 
L 214.879917 246.194769 
L 214.928332 245.979731 
L 215.202683 245.872211 
L 215.315651 245.764692 
L 215.493172 245.872211 
L 215.557725 245.979731 
L 215.590002 245.872211 
L 215.751385 245.979731 
L 215.767523 246.08725 
L 215.848214 245.979731 
L 215.945044 245.872211 
L 216.122566 245.334615 
L 216.187119 245.227095 
L 216.300087 244.904537 
L 216.316225 245.012056 
L 216.46147 244.904537 
L 216.606714 244.581979 
L 216.622853 244.689498 
L 216.703544 244.581979 
L 216.92948 244.47446 
L 216.977895 244.36694 
L 217.02631 244.47446 
L 217.042448 244.581979 
L 217.12314 244.47446 
L 217.704118 244.581979 
L 217.817087 244.689498 
L 218.204406 244.689498 
L 218.34965 245.227095 
L 218.656278 245.119576 
L 218.769246 245.012056 
L 218.962905 245.119576 
L 219.027459 245.012056 
L 219.075874 245.227095 
L 219.140427 245.119576 
L 219.172703 245.227095 
L 219.511608 245.334615 
L 219.640714 245.549653 
L 219.915065 245.657173 
L 220.124863 246.409808 
L 220.205554 246.517327 
L 220.350799 246.839886 
L 220.479905 246.624847 
L 221.125437 246.517327 
L 221.141575 246.409808 
L 221.222267 246.517327 
L 221.270682 246.409808 
L 221.415926 246.08725 
L 221.722554 245.979731 
L 221.85166 245.764692 
L 221.900075 245.764692 
L 222.029182 245.334615 
L 222.077596 245.227095 
L 222.158288 244.904537 
L 222.206703 245.012056 
L 222.739267 244.904537 
L 222.868373 244.689498 
L 222.916788 244.581979 
L 223.045894 244.36694 
L 223.142724 244.259421 
L 223.287969 243.936863 
L 223.384798 243.829344 
L 223.513905 243.614305 
L 223.626873 243.506785 
L 223.836671 242.75415 
L 223.981915 242.646631 
L 224.046468 242.431592 
L 224.094883 242.539111 
L 224.256266 242.969189 
L 224.320819 242.861669 
L 224.385373 242.75415 
L 224.417649 242.861669 
L 224.498341 242.969189 
L 224.514479 243.076708 
L 224.579032 242.969189 
L 224.59517 242.861669 
L 224.643585 243.076708 
L 224.659724 243.076708 
L 224.740415 243.184227 
L 224.869522 243.399266 
L 225.127734 243.291747 
L 225.240702 243.184227 
L 225.289117 243.291747 
L 225.305255 243.399266 
L 225.35367 243.184227 
L 225.369809 243.184227 
L 225.54733 243.291747 
L 225.676436 243.506785 
L 225.740989 243.399266 
L 225.853958 243.291747 
L 226.031479 243.184227 
L 226.289691 242.109034 
L 226.660872 242.001514 
L 226.806117 241.678956 
L 227.06433 241.786476 
L 227.096606 241.893995 
L 227.145021 241.786476 
L 227.257989 241.571437 
L 227.370957 241.786476 
L 227.548479 241.248879 
L 227.661447 241.14136 
L 227.677585 241.03384 
L 227.758276 241.14136 
L 227.855106 241.356398 
L 227.871244 241.248879 
L 228.048766 241.14136 
L 228.097181 241.03384 
L 228.145595 241.14136 
L 228.419946 241.03384 
L 228.532915 240.926321 
L 228.565191 240.818801 
L 228.694297 240.603763 
L 228.823404 240.496243 
L 228.871819 240.281205 
L 228.920234 240.388724 
L 229.000925 240.496243 
L 229.017063 240.388724 
L 229.097755 240.281205 
L 229.243 239.958647 
L 229.307553 239.851127 
L 229.452797 239.528569 
L 229.630319 239.636089 
L 229.646457 239.743608 
L 229.71101 239.528569 
L 230.082191 239.42105 
L 230.098329 239.31353 
L 230.162882 239.528569 
L 230.905244 239.42105 
L 231.179595 238.238337 
L 231.22801 238.130818 
L 231.389393 237.70074 
L 231.437808 237.593221 
L 231.921957 235.012756 
L 232.002648 234.905237 
L 232.115616 233.722524 
L 232.164031 232.324772 
L 232.180169 228.346556 
L 232.244722 75.884107 
L 232.309276 147.27696 
L 232.470659 239.206011 
L 232.535212 240.066166 
L 232.599765 239.851127 
L 232.74501 239.528569 
L 233.035499 242.109034 
L 233.551924 247.70004 
L 233.584201 247.80756 
L 233.826275 249.635389 
L 234.504084 253.506086 
L 234.584775 253.613605 
L 234.762296 254.151202 
L 234.82685 254.258721 
L 234.988233 254.688799 
L 235.020509 254.796318 
L 235.181892 255.226395 
L 235.19803 255.118876 
L 235.230307 255.333915 
L 235.262584 255.333915 
L 235.359413 255.441434 
L 235.504658 255.763992 
L 235.601488 255.871512 
L 235.730594 256.08655 
L 235.908115 256.19407 
L 236.021083 256.301589 
L 236.117913 256.409108 
L 236.263158 256.731666 
L 236.279296 256.624147 
L 236.343849 256.731666 
L 236.505232 257.161744 
L 236.876413 257.054225 
L 237.005519 256.839186 
L 237.070073 257.054225 
L 237.118488 256.946705 
L 237.231456 256.839186 
L 237.392839 256.731666 
L 237.521945 256.516628 
L 237.683328 256.409108 
L 237.844711 255.979031 
L 237.957679 255.871512 
L 238.070647 255.763992 
L 238.167477 255.656473 
L 238.296583 255.441434 
L 238.474104 255.333915 
L 238.554796 255.118876 
L 238.587072 255.226395 
L 238.667764 255.118876 
L 238.780732 255.011357 
L 238.845285 254.903837 
L 238.942115 254.796318 
L 238.958253 254.903837 
L 239.022806 254.688799 
L 239.151913 254.581279 
L 239.297157 254.258721 
L 239.361711 254.151202 
L 239.490817 253.936163 
L 239.732891 253.828644 
L 239.845859 253.721124 
L 240.152487 253.613605 
L 240.265455 253.506086 
L 240.572083 253.398566 
L 240.685051 253.291047 
L 240.959402 253.183528 
L 241.088508 252.968489 
L 241.459689 252.86097 
L 241.588795 252.645931 
L 241.717902 252.538411 
L 241.847008 252.323373 
L 241.895423 252.215853 
L 242.008391 252.108334 
L 242.169774 252.215853 
L 242.363433 267.91368 
L 242.799167 280.923522 
L 243.234901 289.63259 
L 243.654497 295.976232 
L 243.767465 297.373984 
L 244.396859 304.362742 
L 244.606657 306.40561 
L 244.945561 309.523671 
L 246.430284 318.770336 
L 246.46256 318.877855 
L 246.769188 320.275607 
L 246.801465 320.383126 
L 247.108092 321.780878 
L 247.172645 321.888397 
L 247.382443 322.641033 
L 247.41472 322.748552 
L 247.624518 323.501188 
L 247.672933 323.608707 
L 247.898869 324.468862 
L 247.963422 324.576381 
L 248.157081 325.221497 
L 248.221635 325.329017 
L 248.383018 325.759094 
L 248.463709 325.866613 
L 248.64123 326.40421 
L 248.721922 326.51173 
L 248.867166 326.834288 
L 248.996273 326.941807 
L 249.141517 327.264365 
L 249.189932 327.371884 
L 249.335177 327.694443 
L 249.544975 327.801962 
L 249.674081 328.017001 
L 249.722496 328.12452 
L 249.851602 328.339559 
L 249.964571 328.447078 
L 250.093677 328.662117 
L 250.384166 328.769636 
L 250.497134 328.877155 
L 250.593964 328.984675 
L 250.610102 329.092194 
L 250.690794 328.984675 
L 250.884453 329.092194 
L 250.997421 329.199714 
L 251.255634 329.307233 
L 251.271772 329.414752 
L 251.336326 329.307233 
L 251.368602 329.199714 
L 251.433155 329.307233 
L 251.836613 329.414752 
L 251.852751 329.522272 
L 251.933443 329.414752 
L 252.046411 329.307233 
L 252.546698 329.199714 
L 252.562836 329.092194 
L 252.643528 329.199714 
L 252.853325 329.092194 
L 252.982432 328.877155 
L 253.724793 328.769636 
L 253.821623 328.662117 
L 253.934591 328.769636 
L 254.176666 328.662117 
L 254.305772 328.447078 
L 254.741506 328.339559 
L 254.789921 328.12452 
L 254.838336 328.339559 
L 255.015857 328.232039 
L 255.031995 328.12452 
L 255.096548 328.339559 
L 255.112687 328.232039 
L 255.354761 328.12452 
L 255.467729 328.017001 
L 255.709804 327.909481 
L 255.822772 327.801962 
L 256.000293 327.694443 
L 256.129399 327.479404 
L 256.242367 327.586923 
L 256.419889 327.479404 
L 256.548995 327.264365 
L 256.774931 327.156846 
L 256.791069 327.049326 
L 256.871761 327.156846 
L 256.968591 327.049326 
L 257.081559 326.941807 
L 257.129974 326.834288 
L 257.25908 326.619249 
L 257.517293 326.51173 
L 257.630261 326.40421 
L 258.01758 326.296691 
L 258.146686 326.081652 
L 258.162824 326.189172 
L 258.243516 326.081652 
L 258.259654 326.081652 
L 258.372622 319.845529 
L 259.647548 319.953049 
L 259.679824 320.060568 
L 259.744377 319.953049 
L 260.244665 319.845529 
L 260.276941 319.630491 
L 260.341494 319.845529 
L 261.42276 319.953049 
L 261.471175 320.060568 
L 261.503452 319.953049 
L 261.51959 319.845529 
L 261.600281 319.953049 
L 262.616994 319.845529 
L 262.649271 319.73801 
L 262.713824 319.845529 
L 263.230249 319.953049 
L 263.246387 320.060568 
L 263.327079 319.953049 
L 264.16627 320.060568 
L 264.214685 320.168088 
L 264.2631 320.060568 
L 264.392206 320.168088 
L 264.505175 320.275607 
L 266.377217 320.275607 
L 266.570876 296.191271 
L 267.151855 267.91368 
L 268.265397 234.475159 
L 268.507472 230.927021 
L 268.846376 223.293146 
L 268.910929 75.454029 
L 268.991621 169.640987 
L 269.153004 240.173685 
L 269.18528 240.496243 
L 269.233695 240.066166 
L 269.395078 239.206011 
L 269.572599 239.743608 
L 269.604876 239.851127 
L 269.798535 240.496243 
L 269.814674 240.388724 
L 269.863089 240.711282 
L 269.94378 240.818801 
L 270.089025 241.14136 
L 270.282684 241.248879 
L 270.395652 241.463918 
L 270.524759 241.248879 
L 270.653865 241.248879 
L 270.782971 241.571437 
L 270.79911 241.678956 
L 270.879801 241.571437 
L 271.008907 241.356398 
L 271.154152 241.463918 
L 271.218705 241.678956 
L 271.26712 241.571437 
L 271.428503 241.14136 
L 271.444641 241.248879 
L 271.525333 241.14136 
L 271.638301 241.03384 
L 271.702854 240.926321 
L 271.896514 240.281205 
L 272.009482 240.173685 
L 272.283833 238.990972 
L 272.299971 239.098492 
L 272.380663 238.990972 
L 272.445216 238.990972 
L 272.59046 238.453376 
L 272.816397 237.593221 
L 272.88095 237.485701 
L 273.090748 236.733066 
L 273.123024 236.625547 
L 273.25213 236.410508 
L 273.300545 236.518027 
L 273.461928 236.948105 
L 273.526482 237.055624 
L 273.671726 237.378182 
L 273.800833 237.485701 
L 273.865386 237.593221 
L 273.881524 237.485701 
L 274.075184 236.840585 
L 274.172013 236.733066 
L 274.414088 235.765392 
L 274.446364 235.657872 
L 274.623886 235.120276 
L 274.704577 235.227795 
L 274.752992 235.335314 
L 274.785269 235.120276 
L 274.801407 235.227795 
L 274.86596 235.120276 
L 274.946651 234.905237 
L 274.96279 235.012756 
L 275.043481 235.120276 
L 275.05962 235.012756 
L 275.172588 234.905237 
L 275.350109 234.36764 
L 275.495354 234.260121 
L 275.753566 233.077408 
L 275.801981 233.184927 
L 275.834258 233.077408 
L 276.027917 232.432292 
L 276.060194 232.324772 
L 276.140885 232.432292 
L 276.1893 232.109734 
L 276.221577 232.002214 
L 276.399098 231.03454 
L 276.641172 229.959346 
L 276.657311 230.066866 
L 276.705726 229.851827 
L 277.04463 227.056324 
L 277.286704 222.755549 
L 277.351257 72.120929 
L 277.431949 153.620602 
L 277.593332 236.195469 
L 277.754715 237.808259 
L 278.206587 241.463918 
L 278.448662 243.399266 
L 278.480938 243.506785 
L 278.868257 245.549653 
L 278.900534 245.442134 
L 278.93281 245.657173 
L 278.948949 245.657173 
L 279.094193 245.979731 
L 279.158747 246.08725 
L 279.287853 246.302289 
L 279.320129 246.409808 
L 279.433098 246.517327 
L 279.69131 246.409808 
L 279.836555 246.08725 
L 280.014076 245.979731 
L 280.223874 245.227095 
L 280.54664 245.119576 
L 280.64347 245.012056 
L 280.659608 245.119576 
L 280.740299 245.012056 
L 280.804853 244.904537 
L 280.820991 244.797018 
L 280.885544 245.012056 
L 280.901682 244.904537 
L 281.079204 244.797018 
L 281.192172 244.689498 
L 281.563353 244.581979 
L 281.708597 244.259421 
L 281.789289 244.36694 
L 281.805427 244.259421 
L 282.241161 244.151902 
L 282.370267 243.936863 
L 282.483235 243.829344 
L 282.612342 243.614305 
L 282.951246 243.506785 
L 283.096491 243.184227 
L 283.403118 243.076708 
L 283.532225 242.861669 
L 283.85499 242.75415 
L 284.000235 242.431592 
L 284.04865 242.324072 
L 284.210033 241.893995 
L 284.24231 241.786476 
L 284.387554 241.463918 
L 284.484384 241.356398 
L 284.71032 240.496243 
L 284.90398 240.388724 
L 285.033086 240.173685 
L 285.065363 240.066166 
L 285.259022 239.42105 
L 285.307437 239.31353 
L 285.420405 239.206011 
L 285.46882 239.098492 
L 285.662479 238.453376 
L 285.678618 238.560895 
L 285.743171 238.345856 
L 285.823862 238.238337 
L 285.985245 237.808259 
L 286.146628 237.70074 
L 286.308011 237.270663 
L 286.437118 237.485701 
L 286.517809 237.378182 
L 286.550086 237.270663 
L 286.598501 237.378182 
L 286.711469 237.485701 
L 286.743745 237.378182 
L 286.856713 237.270663 
L 287.486107 237.163143 
L 287.582937 236.948105 
L 287.599075 237.055624 
L 287.760458 236.948105 
L 288.067085 235.550353 
L 288.341436 235.442834 
L 288.486681 235.012756 
L 288.567373 235.335314 
L 288.615788 235.227795 
L 288.809447 234.582679 
L 288.841724 234.475159 
L 288.97083 234.260121 
L 289.132213 234.690198 
L 289.245181 234.797717 
L 289.374287 235.012756 
L 289.567947 234.905237 
L 289.810021 233.937563 
L 289.987543 233.830043 
L 290.342585 232.109734 
L 290.358723 232.217253 
L 290.391 232.002214 
L 290.439415 232.109734 
L 290.552383 232.002214 
L 290.665351 231.894695 
L 290.697628 231.787175 
L 290.842872 231.464617 
L 290.907425 231.357098 
L 291.004255 231.142059 
L 291.020394 231.249579 
L 291.05267 231.142059 
L 291.197915 230.819501 
L 291.230191 230.711982 
L 292.069383 224.690898 
L 292.101659 221.357798 
L 292.166212 72.551007 
L 292.230766 138.137815 
L 292.408287 235.442834 
L 292.553532 236.302988 
L 292.634223 236.410508 
L 293.376585 240.711282 
L 293.424999 240.818801 
L 293.780042 242.539111 
L 293.844595 242.646631 
L 294.054393 243.506785 
L 294.070531 243.399266 
L 294.118946 243.614305 
L 294.135084 243.614305 
L 294.248053 243.721824 
L 294.377159 243.936863 
L 294.490127 243.829344 
L 294.667648 243.936863 
L 294.812893 244.259421 
L 294.877446 244.36694 
L 294.990414 244.47446 
L 295.11952 244.581979 
L 295.21635 244.689498 
L 295.345457 244.47446 
L 295.571393 244.36694 
L 295.732776 243.936863 
L 295.797329 243.829344 
L 295.926435 243.614305 
L 295.990988 243.506785 
L 296.120095 243.291747 
L 296.200786 243.184227 
L 296.378308 242.646631 
L 296.555829 242.539111 
L 296.571967 242.431592 
L 296.652659 242.539111 
L 296.83018 243.076708 
L 297.346605 242.969189 
L 297.507988 242.539111 
L 297.717786 242.431592 
L 297.927584 241.678956 
L 298.040552 241.571437 
L 298.15352 241.248879 
L 298.169658 241.356398 
L 298.234211 241.248879 
L 298.444009 240.496243 
L 298.524701 240.388724 
L 298.637669 240.173685 
L 298.653807 240.281205 
L 298.702222 240.066166 
L 298.71836 240.066166 
L 298.976573 238.990972 
L 299.057265 238.883453 
L 299.267062 238.130818 
L 299.315477 238.023298 
L 299.347754 237.915779 
L 299.412307 238.023298 
L 299.912594 237.915779 
L 300.041701 237.70074 
L 300.073977 237.593221 
L 300.170807 237.378182 
L 300.186945 237.485701 
L 300.219222 237.593221 
L 300.267637 237.378182 
L 300.541988 237.270663 
L 300.671094 237.055624 
L 300.735647 237.163143 
L 300.767924 237.055624 
L 300.961583 236.948105 
L 301.139105 236.410508 
L 301.155243 236.518027 
L 301.203658 236.302988 
L 301.219796 236.302988 
L 301.397317 236.195469 
L 301.526424 235.98043 
L 301.816913 236.08795 
L 301.929881 236.195469 
L 302.139679 236.302988 
L 302.284924 236.625547 
L 302.397892 236.518027 
L 302.51086 236.625547 
L 302.672243 236.08795 
L 302.752934 236.302988 
L 302.785211 236.195469 
L 302.849764 236.08795 
L 303.027285 235.550353 
L 303.091838 235.442834 
L 303.26936 234.905237 
L 303.333913 234.797717 
L 303.479157 234.475159 
L 303.575987 234.36764 
L 303.721232 234.045082 
L 303.850338 233.937563 
L 304.011721 233.507485 
L 304.108551 233.399966 
L 304.286072 232.862369 
L 304.528147 232.75485 
L 304.608838 232.432292 
L 304.657253 232.539811 
L 304.721806 232.539811 
L 304.818636 232.109734 
L 304.850912 232.217253 
L 304.899327 232.217253 
L 305.06071 231.249579 
L 305.109125 231.357098 
L 305.125263 231.249579 
L 305.270508 230.711982 
L 305.367338 230.604463 
L 305.560997 229.959346 
L 305.609412 229.851827 
L 306.190391 225.443533 
L 306.351774 221.465317 
L 306.416327 73.088603 
L 306.497019 153.94316 
L 306.658402 234.905237 
L 306.739093 235.765392 
L 306.787508 235.550353 
L 306.932753 235.120276 
L 306.948891 235.227795 
L 306.997306 235.012756 
L 307.029582 235.120276 
L 307.207104 235.227795 
L 307.820359 238.668414 
L 307.868774 238.775934 
L 308.046295 239.31353 
L 308.110848 239.42105 
L 308.304508 240.603763 
L 308.465891 241.03384 
L 308.788657 240.926321 
L 308.885486 240.818801 
L 308.998454 240.926321 
L 309.095284 241.03384 
L 309.22439 241.248879 
L 309.337359 241.14136 
L 309.466465 241.248879 
L 309.579433 241.356398 
L 309.708539 241.14136 
L 309.756954 241.03384 
L 309.789231 240.926321 
L 309.853784 241.03384 
L 310.111997 241.14136 
L 310.224965 241.248879 
L 310.499316 241.14136 
L 310.628422 240.926321 
L 310.967326 240.818801 
L 311.096433 240.603763 
L 311.160986 240.496243 
L 311.322369 240.066166 
L 311.354645 239.958647 
L 311.532167 239.42105 
L 311.564443 239.31353 
L 311.709688 238.990972 
L 311.919486 238.883453 
L 312.032454 238.775934 
L 312.306805 238.668414 
L 312.468188 238.238337 
L 312.532741 238.130818 
L 312.694124 237.70074 
L 312.903922 237.593221 
L 313.033028 237.378182 
L 313.081443 237.270663 
L 313.210549 237.055624 
L 313.355794 236.948105 
L 313.371932 236.840585 
L 313.452624 236.948105 
L 313.67856 236.840585 
L 313.743113 236.948105 
L 313.823805 236.518027 
L 313.936773 236.410508 
L 314.049741 236.302988 
L 314.43706 236.195469 
L 314.646858 235.442834 
L 314.743687 235.335314 
L 314.856655 235.012756 
L 314.872794 235.120276 
L 314.985762 235.012756 
L 315.163283 234.475159 
L 315.243975 234.36764 
L 315.405358 233.937563 
L 315.599017 233.830043 
L 315.728123 233.507485 
L 315.744262 233.615005 
L 315.824953 233.507485 
L 315.937921 233.292446 
L 316.583453 236.948105 
L 316.793251 236.840585 
L 316.809389 236.733066 
L 316.873942 236.840585 
L 316.890081 236.948105 
L 316.938496 236.733066 
L 316.954634 236.733066 
L 317.164432 236.625547 
L 317.2774 236.410508 
L 317.406506 236.625547 
L 317.713134 236.518027 
L 317.826102 236.410508 
L 317.874517 236.302988 
L 318.197283 234.690198 
L 318.213421 234.797717 
L 318.261836 234.582679 
L 318.294112 234.690198 
L 318.713708 232.539811 
L 318.745985 232.432292 
L 318.988059 231.464617 
L 319.020336 231.464617 
L 319.197857 230.389424 
L 319.310825 230.389424 
L 319.472208 229.636788 
L 319.633591 227.916479 
L 319.859527 223.508185 
L 319.891804 151.147657 
L 319.92408 74.486355 
L 319.988633 125.343011 
L 320.166155 232.324772 
L 320.246846 233.292446 
L 320.295261 232.969888 
L 320.359814 233.077408 
L 320.553474 233.722524 
L 320.666442 233.830043 
L 320.811686 234.152601 
L 320.87624 234.260121 
L 321.279697 236.302988 
L 321.328112 236.410508 
L 321.489495 236.840585 
L 321.53791 236.948105 
L 321.667016 237.163143 
L 321.796122 237.270663 
L 321.925229 237.485701 
L 321.989782 237.593221 
L 322.135027 237.915779 
L 322.29641 238.023298 
L 322.441654 238.345856 
L 322.473931 238.238337 
L 322.538484 238.345856 
L 322.66759 238.560895 
L 322.76442 238.668414 
L 322.974218 239.42105 
L 323.006495 239.528569 
L 323.119463 239.636089 
L 323.652026 239.528569 
L 323.764994 239.31353 
L 323.797271 239.42105 
L 323.861824 239.31353 
L 323.910239 239.206011 
L 324.023207 238.883453 
L 324.039345 238.990972 
L 324.152314 238.883453 
L 324.168452 238.775934 
L 324.200728 238.990972 
L 324.216867 238.990972 
L 324.265282 239.098492 
L 324.313696 238.990972 
L 324.426665 238.775934 
L 324.539633 238.883453 
L 324.555771 238.775934 
L 324.636462 238.883453 
L 324.765569 238.990972 
L 324.830122 239.098492 
L 324.862399 238.990972 
L 325.023781 239.098492 
L 325.056058 239.206011 
L 325.120611 239.098492 
L 325.685452 238.990972 
L 325.814558 238.775934 
L 325.895249 238.668414 
L 326.024356 238.453376 
L 326.185739 238.345856 
L 326.347122 237.915779 
L 326.395537 237.808259 
L 326.540781 237.270663 
L 326.589196 237.163143 
L 326.750579 236.733066 
L 326.782856 236.625547 
L 326.911962 236.410508 
L 326.992653 236.302988 
L 327.137898 235.98043 
L 327.21859 235.872911 
L 327.299281 235.765392 
L 327.315419 235.872911 
L 327.58977 235.765392 
L 327.638185 235.657872 
L 327.6866 235.765392 
L 327.767292 235.657872 
L 327.944813 235.120276 
L 328.186887 235.012756 
L 328.412823 234.152601 
L 328.493515 234.152601 
L 328.622621 233.507485 
L 328.63876 233.615005 
L 328.961525 233.722524 
L 328.977664 233.830043 
L 329.00994 233.615005 
L 329.042217 233.615005 
L 329.219738 233.507485 
L 329.332706 233.077408 
L 329.364983 233.184927 
L 329.413398 233.077408 
L 329.590919 232.539811 
L 329.703887 232.64733 
L 329.86527 232.539811 
L 329.9621 232.002214 
L 330.010515 232.217253 
L 330.091206 232.539811 
L 330.123483 232.324772 
L 330.204174 232.217253 
L 330.397834 231.572137 
L 330.43011 231.679656 
L 330.478525 231.464617 
L 330.688323 231.464617 
L 330.833568 230.927021 
L 330.930398 230.927021 
L 331.124057 255.548954 
L 331.495238 272.967089 
L 332.076216 288.664916 
L 332.786301 300.707084 
L 333.528663 309.201113 
L 335.142493 319.307933 
L 335.174769 319.307933 
L 335.336152 320.168088 
L 335.35229 320.168088 
L 335.529812 321.135762 
L 335.933269 323.17863 
L 335.965546 323.286149 
L 336.191482 324.146304 
L 336.239897 324.253823 
L 336.433556 324.898939 
L 336.465833 325.006459 
L 336.594939 325.221497 
L 336.675631 325.329017 
L 336.853152 325.866613 
L 336.917705 325.974133 
L 337.079088 326.51173 
L 337.111365 326.40421 
L 337.127503 326.619249 
L 337.159779 326.619249 
L 337.321162 327.049326 
L 337.385716 327.156846 
L 337.547099 327.586923 
L 337.660067 327.694443 
L 337.82145 328.12452 
L 337.950556 328.232039 
L 338.079662 328.554597 
L 338.095801 328.447078 
L 338.144215 328.662117 
L 338.160354 328.554597 
L 338.305598 328.877155 
L 338.434705 328.984675 
L 338.563811 329.199714 
L 338.741332 329.307233 
L 338.838162 329.414752 
L 338.934992 329.307233 
L 338.983407 329.414752 
L 339.031822 329.307233 
L 339.306173 329.199714 
L 339.386864 329.092194 
L 339.403002 329.199714 
L 340.758619 329.092194 
L 340.887726 328.877155 
L 341.049109 328.769636 
L 341.194353 328.447078 
L 341.258906 328.339559 
L 341.388013 328.12452 
L 341.565534 328.017001 
L 341.69464 327.801962 
L 341.79147 327.909481 
L 341.904438 327.801962 
L 342.630662 327.694443 
L 342.6468 327.586923 
L 342.679076 327.801962 
L 342.711353 327.801962 
L 342.888874 327.694443 
L 343.001842 327.586923 
L 343.760342 327.479404 
L 343.792619 327.371884 
L 343.857172 327.479404 
L 343.97014 327.371884 
L 344.050831 327.264365 
L 344.06697 327.371884 
L 344.228353 327.264365 
L 344.341321 327.156846 
L 344.680225 327.049326 
L 344.696363 326.941807 
L 344.777055 327.049326 
L 344.922299 326.941807 
L 345.035268 326.834288 
L 345.600108 326.726768 
L 345.616246 326.619249 
L 345.696938 326.726768 
L 345.793767 326.619249 
L 345.906735 326.51173 
L 346.068118 326.40421 
L 346.181086 326.189172 
L 346.213363 326.296691 
L 346.261778 326.189172 
L 346.374746 326.081652 
L 346.568406 325.974133 
L 346.584544 325.866613 
L 346.665235 325.974133 
L 346.971863 325.866613 
L 347.100969 325.651575 
L 347.940161 325.759094 
L 347.972437 325.866613 
L 348.03699 325.759094 
L 349.666958 325.866613 
L 349.683097 325.974133 
L 349.763788 325.866613 
L 351.16782 325.974133 
L 351.264649 326.081652 
L 351.361479 325.974133 
L 351.393756 326.081652 
L 351.442171 325.974133 
L 351.539 325.866613 
L 351.555139 325.974133 
L 351.63583 325.866613 
L 352.362054 325.974133 
L 352.475022 326.081652 
L 353.072139 325.974133 
L 353.088277 325.866613 
L 353.168968 325.974133 
L 353.362628 325.866613 
L 353.394904 325.759094 
L 353.443319 325.974133 
L 353.524011 325.866613 
L 353.572426 325.759094 
L 353.604702 325.866613 
L 353.669255 325.974133 
L 353.701532 325.866613 
L 354.702106 325.759094 
L 354.815074 325.651575 
L 354.831213 325.759094 
L 354.879628 325.544055 
L 354.895766 325.651575 
L 355.008734 325.544055 
L 355.13784 325.436536 
L 355.3315 278.235538 
L 355.79951 230.389424 
L 355.89634 212.64873 
L 355.944755 69.432945 
L 356.009308 141.040837 
L 356.154553 228.239037 
L 356.170691 228.023998 
L 356.364351 219.960046 
L 356.800085 205.444933 
L 356.864638 72.658526 
L 356.945329 139.535566 
L 357.122851 219.960046 
L 357.284234 221.895395 
L 357.477893 222.540511 
L 357.590861 222.540511 
L 357.703829 222.970588 
L 357.719968 222.863069 
L 357.865212 222.755549 
L 358.17184 221.357798 
L 358.236393 221.250278 
L 358.73668 217.272062 
L 359.043308 211.896094 
L 359.172414 204.369739 
L 359.236967 68.357752 
L 359.30152 122.332469 
L 359.49518 220.282604 
L 359.672701 223.400666 
L 359.898637 224.36834 
L 359.930914 224.26082 
L 359.995467 224.36834 
L 360.237542 224.26082 
L 360.511893 223.078107 
L 360.640999 222.970588 
L 360.834658 222.110433 
L 360.850797 222.217953 
L 360.947627 222.110433 
L 361.092871 221.572836 
L 361.10901 221.680356 
L 361.173563 221.572836 
L 361.318807 221.250278 
L 361.351084 221.142759 
L 361.625435 219.960046 
L 361.706126 219.852527 
L 361.867509 219.422449 
L 361.883648 219.422449 
L 362.028892 218.777333 
L 362.125722 218.669814 
L 362.416211 217.379581 
L 362.496903 217.272062 
L 363.223126 213.078807 
L 363.255403 212.971288 
L 363.545892 209.100591 
L 363.56203 207.057723 
L 363.626584 66.96 
L 363.707275 135.342312 
L 363.884796 218.884853 
L 364.046179 221.680356 
L 364.143009 221.787875 
L 364.272115 222.002914 
L 364.32053 222.110433 
L 364.352807 222.325472 
L 364.433498 222.217953 
L 364.449637 222.110433 
L 364.51419 222.217953 
L 364.594881 222.432991 
L 364.627158 222.325472 
L 364.836956 222.432991 
L 364.853094 222.540511 
L 364.885371 222.325472 
L 364.917647 222.325472 
L 365.159722 221.357798 
L 365.17586 221.357798 
L 365.337243 220.497643 
L 365.595456 220.390124 
L 366.240987 216.734465 
L 366.321679 216.841985 
L 366.370094 217.057023 
L 366.40237 216.841985 
L 366.757413 215.121675 
L 366.821966 215.121675 
L 366.967211 214.476559 
L 367.015626 214.691598 
L 367.06404 214.476559 
L 367.193147 214.369039 
L 367.91937 208.993072 
L 367.983923 206.627646 
L 368.0162 155.233393 
L 368.064615 68.465271 
L 368.129168 119.859524 
L 368.338966 217.809659 
L 368.516487 220.282604 
L 368.694008 220.820201 
L 368.806976 220.712682 
L 368.919944 220.820201 
L 369.178157 220.92772 
L 369.194295 221.03524 
L 369.24271 220.92772 
L 369.323402 220.712682 
L 369.355678 220.820201 
L 369.387955 221.142759 
L 369.468646 221.03524 
L 369.646168 220.497643 
L 369.662306 220.605162 
L 369.710721 220.390124 
L 369.888242 219.745007 
L 369.920519 219.852527 
L 369.968934 219.637488 
L 370.485359 216.841985 
L 370.533774 216.734465 
L 370.695157 215.766791 
L 370.808125 215.87431 
L 371.050199 214.906636 
L 371.082476 214.799117 
L 371.211582 214.26152 
L 371.243859 214.369039 
L 371.292274 214.26152 
L 371.389104 213.938962 
L 371.42138 214.046481 
L 371.534348 214.154001 
L 371.679593 214.691598 
L 371.744146 214.476559 
L 371.776423 214.691598 
L 371.840976 214.584078 
L 371.970082 214.154001 
L 371.98622 214.26152 
L 372.08305 214.154001 
L 372.502646 212.003614 
L 372.534923 211.896094 
L 372.776997 210.068265 
L 372.857688 208.885552 
L 372.922242 205.014855 
L 372.986795 67.820155 
L 373.067486 126.310685 
L 373.261146 215.336714 
L 373.454805 217.70214 
L 373.680741 218.562294 
L 373.858263 218.454775 
L 373.955092 218.239736 
L 373.971231 218.347256 
L 374.051922 218.562294 
L 374.084199 218.454775 
L 374.293997 217.59462 
L 374.310135 217.70214 
L 374.35855 217.379581 
L 374.519933 216.841985 
L 374.536071 216.949504 
L 374.600624 216.734465 
L 374.842699 216.626946 
L 375.052497 215.87431 
L 375.100911 215.98183 
L 375.197741 216.196869 
L 375.21388 216.089349 
L 375.262294 215.98183 
L 375.488231 215.121675 
L 375.520507 215.014156 
L 375.843273 213.401365 
L 375.891688 213.616404 
L 375.923965 213.401365 
L 376.149901 212.54121 
L 376.182177 212.64873 
L 376.24673 212.54121 
L 376.295145 212.433691 
L 376.666326 210.605862 
L 376.795432 210.498343 
L 377.10206 207.917878 
L 377.182752 205.337413 
L 377.215028 166.307887 
L 377.263443 68.68031 
L 377.327996 112.655727 
L 377.537794 212.756249 
L 377.683039 215.551752 
L 377.699177 215.444233 
L 377.908975 216.196869 
L 377.941251 216.304388 
L 378.102634 216.734465 
L 378.231741 216.841985 
L 378.280156 216.949504 
L 378.32857 216.841985 
L 378.473815 216.519427 
L 378.586783 216.411907 
L 378.828858 215.444233 
L 378.861134 215.336714 
L 378.990241 215.014156 
L 379.119347 215.229194 
L 379.167762 215.121675 
L 379.458251 213.831443 
L 379.522804 213.723923 
L 379.651911 213.508885 
L 379.74874 213.401365 
L 379.974677 212.54121 
L 380.023091 212.433691 
L 380.216751 211.035939 
L 380.232889 211.143459 
L 380.265166 210.92842 
L 380.281304 210.92842 
L 380.410411 210.713381 
L 380.491102 210.820901 
L 380.571794 211.035939 
L 380.60407 210.92842 
L 380.684762 210.820901 
L 380.846145 210.390823 
L 380.862283 210.498343 
L 380.894559 210.175785 
L 381.088219 209.423149 
L 381.104357 209.530668 
L 381.16891 209.31563 
L 381.523953 203.294546 
L 381.55623 196.413307 
L 381.620783 68.250232 
L 381.685336 111.580533 
L 381.911272 214.154001 
L 382.104932 216.626946 
L 382.185623 216.734465 
L 382.347006 217.164543 
L 382.379283 217.272062 
L 382.540666 217.70214 
L 382.702048 217.59462 
L 382.927985 216.734465 
L 383.121644 216.841985 
L 383.234612 217.272062 
L 383.266889 217.164543 
L 383.379857 217.272062 
L 383.395995 217.379581 
L 383.44441 217.164543 
L 383.460548 217.164543 
L 383.654208 216.519427 
L 383.702623 216.411907 
L 383.815591 215.87431 
L 383.864006 215.98183 
L 383.896282 215.87431 
L 384.089942 215.229194 
L 384.122218 215.336714 
L 384.170633 215.121675 
L 384.219048 215.014156 
L 384.396569 214.476559 
L 384.461123 214.369039 
L 384.557952 214.26152 
L 384.606367 214.476559 
L 384.67092 214.369039 
L 384.735474 214.26152 
L 384.896857 213.723923 
L 384.945272 213.831443 
L 384.993686 213.723923 
L 385.042101 213.616404 
L 385.090516 213.723923 
L 385.171208 213.616404 
L 385.300314 213.186327 
L 385.316452 213.293846 
L 385.348729 213.401365 
L 385.364867 213.508885 
L 385.42942 213.293846 
L 386.123367 208.025397 
L 386.317027 202.004313 
L 386.38158 70.508139 
L 386.47841 134.267118 
L 386.672069 212.326172 
L 386.833452 214.369039 
L 386.84959 214.26152 
L 386.881867 214.584078 
L 387.107803 215.551752 
L 387.14008 215.444233 
L 387.188495 215.659272 
L 387.285324 215.766791 
L 387.398292 215.98183 
L 387.575814 215.444233 
L 387.70492 215.336714 
L 387.850165 215.014156 
L 387.89858 214.906636 
L 387.963133 214.799117 
L 387.979271 214.906636 
L 388.140654 215.766791 
L 388.302037 215.336714 
L 388.527973 215.229194 
L 388.640941 215.121675 
L 388.753909 215.014156 
L 388.947569 214.369039 
L 388.979845 214.26152 
L 389.157367 213.723923 
L 389.189643 213.616404 
L 389.641515 211.250978 
L 389.657654 211.250978 
L 389.899728 208.455475 
L 390.093388 206.520126 
L 390.319324 200.606562 
L 390.3516 148.244634 
L 390.400015 69.970542 
L 390.464568 113.300843 
L 390.674366 209.960746 
L 390.835749 212.64873 
L 390.868026 212.756249 
L 391.126239 213.831443 
L 391.158515 213.831443 
L 391.174653 213.616404 
L 391.271483 213.723923 
L 391.352175 213.508885 
L 391.368313 213.616404 
L 391.432866 213.831443 
L 391.481281 213.723923 
L 391.513558 213.508885 
L 391.578111 213.616404 
L 391.691079 213.723923 
L 391.739494 213.616404 
L 391.949292 212.863768 
L 392.078398 212.756249 
L 392.385026 211.358497 
L 392.449579 211.250978 
L 392.610962 210.390823 
L 392.659377 210.283304 
L 392.869174 208.885552 
L 392.885313 208.885552 
L 393.175802 206.412607 
L 393.595398 203.079507 
L 393.724504 199.316329 
L 393.756781 158.781532 
L 393.805196 70.723178 
L 393.869749 105.774488 
L 394.111823 209.100591 
L 394.305483 212.433691 
L 394.499142 213.723923 
L 394.547557 213.831443 
L 394.70894 214.26152 
L 394.741217 214.369039 
L 394.870323 214.584078 
L 394.983291 214.691598 
L 395.015568 214.799117 
L 395.080121 214.691598 
L 395.37061 213.401365 
L 395.419025 213.293846 
L 395.548131 213.078807 
L 395.612685 213.078807 
L 395.757929 212.54121 
L 395.806344 212.433691 
L 395.967727 211.788575 
L 395.983865 211.896094 
L 396.096833 211.788575 
L 396.290493 210.605862 
L 396.32277 210.498343 
L 396.69395 208.670514 
L 396.742365 208.562994 
L 397.048993 206.842684 
L 397.081269 206.950204 
L 397.161961 206.842684 
L 397.517003 201.251678 
L 397.565418 193.617803 
L 397.629972 71.045736 
L 397.710663 117.816656 
L 397.936599 208.347955 
L 398.130259 211.681056 
L 398.162535 211.788575 
L 398.485301 213.293846 
L 398.582131 213.401365 
L 398.711237 213.616404 
L 398.904897 213.508885 
L 399.034003 213.293846 
L 399.211524 213.186327 
L 399.437461 212.326172 
L 399.582705 212.218652 
L 399.744088 211.788575 
L 399.857056 211.896094 
L 399.889333 211.788575 
L 399.937748 211.896094 
L 399.970024 212.003614 
L 400.018439 211.896094 
L 400.405758 209.960746 
L 400.454173 209.853226 
L 401.196535 204.26222 
L 401.406333 198.671213 
L 401.487024 71.045736 
L 401.583854 133.084405 
L 401.777513 206.412607 
L 401.955035 209.853226 
L 402.229386 212.111133 
L 402.358492 212.433691 
L 402.503737 212.111133 
L 402.56829 212.218652 
L 402.584428 212.326172 
L 402.66512 212.218652 
L 402.842641 212.111133 
L 403.052439 211.358497 
L 403.100854 211.250978 
L 403.278375 210.713381 
L 403.342928 210.605862 
L 403.455896 210.390823 
L 403.568864 210.498343 
L 403.923907 210.390823 
L 404.036875 210.283304 
L 404.165981 210.390823 
L 404.214396 210.498343 
L 404.262811 210.390823 
L 404.359641 210.498343 
L 404.424194 210.605862 
L 404.45647 210.498343 
L 404.521024 210.390823 
L 404.730821 209.31563 
L 404.763098 209.423149 
L 405.102002 209.31563 
L 405.327938 208.455475 
L 405.392492 208.347955 
L 405.50546 207.702839 
L 405.537736 207.810359 
L 405.602289 207.702839 
L 405.908917 205.014855 
L 406.247821 199.101291 
L 406.296236 194.047881 
L 406.376928 72.443487 
L 406.441481 114.376037 
L 406.667417 207.380281 
L 406.861076 211.250978 
L 407.248395 213.186327 
L 407.329087 213.293846 
L 407.345225 213.401365 
L 407.39364 213.186327 
L 407.409778 213.186327 
L 407.442055 213.186327 
L 407.571161 212.756249 
L 407.813236 212.863768 
L 407.893927 212.971288 
L 407.910066 212.863768 
L 408.119863 212.971288 
L 408.200555 213.186327 
L 408.232831 213.078807 
L 408.3458 212.971288 
L 408.507182 212.54121 
L 408.604012 212.54121 
L 408.797672 211.358497 
L 409.088161 210.068265 
L 409.152714 209.960746 
L 409.701416 206.842684 
L 409.717555 206.950204 
L 409.749831 206.735165 
L 409.782108 206.735165 
L 409.927352 205.87501 
L 409.959629 206.090049 
L 410.072597 206.197568 
L 410.395363 206.090049 
L 410.927927 202.111833 
L 411.08931 196.413307 
L 411.121586 170.071064 
L 411.186139 72.443487 
L 411.250693 112.548208 
L 411.476629 207.165243 
L 411.65415 210.92842 
L 411.896224 212.756249 
L 412.025331 213.078807 
L 412.154437 212.863768 
L 412.331958 212.756249 
L 412.461065 212.54121 
L 412.622448 212.64873 
L 412.703139 213.078807 
L 412.767692 212.971288 
L 412.961352 212.326172 
L 413.058182 212.218652 
L 413.187288 212.003614 
L 413.300256 211.896094 
L 413.477777 211.035939 
L 413.493916 211.143459 
L 413.623022 211.358497 
L 413.784405 210.92842 
L 413.83282 210.820901 
L 414.284692 208.455475 
L 414.365384 208.347955 
L 414.413799 208.455475 
L 414.49449 208.132917 
L 414.526767 208.025397 
L 414.704288 207.057723 
L 414.752703 207.165243 
L 414.784979 207.057723 
L 415.123884 204.26222 
L 415.398235 196.950904 
L 415.446649 105.344411 
L 415.478926 72.120929 
L 415.543479 107.494798 
L 415.785554 207.380281 
L 415.979213 210.820901 
L 416.189011 212.218652 
L 416.398809 212.971288 
L 416.624745 212.863768 
L 416.705436 212.756249 
L 416.721575 212.863768 
L 416.76999 212.863768 
L 416.931373 212.111133 
L 416.963649 212.218652 
L 416.995926 212.111133 
L 417.14117 211.573536 
L 417.189585 211.466017 
L 417.350968 211.035939 
L 417.399383 210.92842 
L 417.673734 209.745707 
L 417.706011 209.638188 
L 418.077192 207.810359 
L 418.238574 207.702839 
L 418.512926 206.412607 
L 418.529064 206.520126 
L 418.56134 206.305088 
L 418.593617 206.305088 
L 418.642032 206.197568 
L 419.110042 202.434391 
L 419.31984 198.241136 
L 419.352117 194.692997 
L 419.432808 72.335968 
L 419.5135 119.859524 
L 419.771713 233.722524 
L 420.013787 260.387325 
L 420.433383 281.353599 
L 420.83684 293.073209 
L 421.224159 300.492045 
L 421.627616 306.40561 
L 421.756723 307.910881 
L 422.208595 312.534213 
L 422.660467 316.189871 
L 422.870265 317.695142 
L 422.902542 317.802662 
L 423.612627 321.888397 
L 423.644903 321.995917 
L 424.048361 324.038784 
L 424.096776 324.146304 
L 424.354988 325.221497 
L 424.403403 325.329017 
L 424.564786 326.081652 
L 424.645478 326.189172 
L 424.839137 326.834288 
L 424.871414 326.941807 
L 425.081212 327.694443 
L 425.113488 327.801962 
L 425.274871 328.232039 
L 425.339424 328.339559 
L 425.516946 328.877155 
L 425.581499 328.984675 
L 425.726743 329.307233 
L 425.839712 329.414752 
L 426.001094 329.84483 
L 426.097924 329.952349 
L 426.243169 330.274907 
L 426.32386 330.382427 
L 426.469105 330.704985 
L 426.565935 330.812504 
L 426.678903 331.027543 
L 426.695041 330.920023 
L 426.759594 331.135062 
L 426.856424 331.242581 
L 426.98553 331.45762 
L 427.033945 331.565139 
L 427.146913 331.672659 
L 427.243743 331.780178 
L 427.388988 332.102736 
L 427.421264 331.995217 
L 427.485818 332.102736 
L 428.131349 332.210256 
L 428.260456 332.425294 
L 429.148062 332.532814 
L 429.1642 332.640333 
L 429.244892 332.532814 
L 429.341722 332.425294 
L 429.45469 332.532814 
L 429.729041 332.640333 
L 429.793594 332.747852 
L 429.82587 332.640333 
L 430.697338 332.532814 
L 430.810306 332.425294 
L 431.310594 332.317775 
L 431.375147 332.210256 
L 431.407423 332.317775 
L 431.972264 332.210256 
L 432.10137 331.995217 
L 432.633934 331.887698 
L 432.746902 331.780178 
L 433.392434 331.672659 
L 433.505402 331.565139 
L 433.795891 331.45762 
L 433.860444 331.242581 
L 433.908859 331.350101 
L 433.989551 331.45762 
L 434.005689 331.350101 
L 434.74805 331.242581 
L 434.861019 331.135062 
L 435.232199 331.027543 
L 435.345167 330.920023 
L 435.635657 330.812504 
L 435.732486 330.704985 
L 435.780901 330.812504 
L 435.780901 330.812504 
" style="fill:none;stroke:#1f77b4;stroke-linecap:square;stroke-width:1.5;"/>
   </g>
   <g id="line2d_15">
    <path clip-path="url(#p2d078685fe)" d="M 80.754545 321.114258 
L 81.190279 321.004158 
L 81.351662 320.960118 
L 81.787396 320.850018 
L 81.964918 320.783958 
L 82.481343 320.673859 
L 82.642726 320.629819 
L 83.110737 320.519719 
L 83.27212 320.475679 
L 83.772407 320.365579 
L 83.93379 320.321539 
L 84.482492 320.211439 
L 84.643875 320.167399 
L 85.240992 320.0573 
L 85.402374 320.01326 
L 86.080183 319.90316 
L 86.241566 319.85912 
L 87.000066 319.74902 
L 87.161449 319.70498 
L 88.049055 319.59488 
L 88.1943 319.57286 
L 88.904385 319.48478 
L 90.163172 303.806566 
L 91.793139 287.225533 
L 93.68132 272.670336 
L 94.601203 267.143325 
L 95.76316 261.396114 
L 97.247883 255.781023 
L 99.200617 250.760471 
L 99.539521 250.121892 
L 99.862287 249.549373 
L 101.944127 246.884958 
L 102.073233 246.774858 
L 102.412138 246.488598 
L 102.573521 246.378498 
L 102.847872 246.180319 
L 103.025393 246.070219 
L 103.267467 245.916079 
L 103.493403 245.805979 
L 103.703201 245.69588 
L 103.961414 245.58578 
L 104.155073 245.4977 
L 104.510116 245.3876 
L 104.687637 245.32154 
L 105.155648 245.21144 
L 105.317031 245.1674 
L 106.107807 245.057301 
L 106.253052 245.035281 
L 109.529126 245.14538 
L 109.67437 245.1674 
L 110.481285 245.2775 
L 110.642668 245.32154 
L 111.449583 245.43164 
L 111.610966 245.47568 
L 112.369466 245.58578 
L 112.530849 245.62982 
L 113.27321 245.739919 
L 113.434593 245.783959 
L 114.193093 245.894059 
L 114.354476 245.938099 
L 115.145253 246.048199 
L 115.306635 246.092239 
L 116.161965 246.202339 
L 116.30721 246.224359 
L 117.114125 246.334459 
L 117.259369 246.356478 
L 118.146975 246.466578 
L 118.29222 246.488598 
L 119.325071 246.598698 
L 119.470316 246.620718 
L 120.696826 246.730818 
L 120.842071 246.752838 
L 122.423624 246.862938 
L 122.568868 246.884958 
L 124.812091 246.995057 
L 124.957336 247.017077 
L 129.492197 247.127177 
L 129.637442 247.149197 
L 153.457565 247.171217 
L 154.667937 262.166813 
L 156.297905 278.747846 
L 157.185511 286.190594 
L 159.348043 300.195292 
L 160.300202 304.797464 
L 161.752649 310.280435 
L 163.753798 315.433107 
L 164.10884 316.093706 
L 164.431606 316.666225 
L 166.38434 319.154481 
L 166.513446 319.264581 
L 166.868489 319.57286 
L 167.029872 319.68296 
L 167.320361 319.90316 
L 167.51402 320.01326 
L 167.756095 320.167399 
L 167.982031 320.277499 
L 168.191829 320.387599 
L 168.46618 320.497699 
L 168.659839 320.585779 
L 168.998744 320.695879 
L 169.176265 320.761938 
L 169.515169 320.850018 
L 169.563584 321.114258 
L 169.628137 321.092238 
L 170.063871 320.982138 
L 170.241392 320.916078 
L 170.725541 320.805978 
L 170.886924 320.761938 
L 171.338796 320.651839 
L 171.500179 320.607799 
L 171.984328 320.497699 
L 172.145711 320.453659 
L 172.645998 320.343559 
L 172.807381 320.299519 
L 173.356083 320.189419 
L 173.517466 320.145379 
L 174.130721 320.03528 
L 174.292104 319.99124 
L 174.969913 319.88114 
L 175.131296 319.8371 
L 175.922072 319.727 
L 176.083455 319.68296 
L 177.003338 319.57286 
L 177.148583 319.55084 
L 177.681146 319.48478 
L 179.117455 295.967458 
L 180.29555 279.914904 
L 181.602752 265.205568 
L 183.119752 251.77339 
L 183.975081 245.67386 
L 184.911103 240.036749 
L 186.024645 234.553778 
L 187.751443 227.947788 
L 188.396974 225.877912 
L 188.848847 224.490654 
L 189.881698 221.363819 
L 190.446538 219.514142 
L 190.80158 218.236984 
L 191.56008 214.69177 
L 192.076506 210.419896 
L 192.302442 206.742562 
L 192.463825 200.731112 
L 192.479963 199.542034 
L 192.592931 227.08901 
L 192.899559 227.08901 
L 193.754888 245.3876 
L 194.658633 259.502397 
L 195.530101 268.838862 
L 196.288601 274.167694 
L 196.885718 276.854129 
L 197.692632 278.747846 
L 198.047675 279.056126 
L 198.644792 278.946026 
L 199.61309 277.448668 
L 200.952568 273.485075 
L 204.712791 257.6307 
L 205.245355 255.318604 
L 207.988865 244.550841 
L 208.440737 243.009444 
L 209.021716 241.093707 
L 212.636694 231.537042 
L 212.878768 231.030583 
L 213.379055 229.973625 
L 213.669545 229.401106 
L 214.08914 228.564347 
L 214.444183 227.903748 
L 214.815364 227.199109 
L 215.234959 226.450431 
L 215.573863 225.833872 
L 216.009597 225.063173 
L 216.348502 224.446614 
L 216.768097 223.697935 
L 217.12314 223.037336 
L 217.478182 222.376737 
L 217.897778 221.539979 
L 218.155991 221.011499 
L 218.898352 219.293942 
L 219.043597 218.919603 
L 219.818235 216.497407 
L 220.43149 213.524711 
L 220.834948 210.023537 
L 221.077022 205.795704 
L 221.222267 199.211735 
L 221.335235 227.08901 
L 221.641862 227.08901 
L 222.577884 247.347377 
L 223.46549 261.153895 
L 224.320819 270.29218 
L 225.079319 275.598991 
L 225.676436 278.263407 
L 226.047617 279.342385 
L 226.951362 280.399344 
L 227.338681 280.289244 
L 228.355393 278.725826 
L 229.581904 275.070512 
L 232.696595 261.858533 
L 233.325988 259.017958 
L 237.489668 242.436925 
L 238.119062 240.411088 
L 238.570934 239.02383 
L 241.1692 232.241681 
L 241.378997 231.779262 
L 241.9277 230.590184 
L 242.185912 230.061705 
L 242.234327 229.951605 
L 243.476976 248.492415 
L 244.897146 266.350606 
L 246.381869 281.368222 
L 248.17322 295.1307 
L 249.076964 300.547611 
L 250.174368 305.942502 
L 251.5784 311.227294 
L 253.450442 316.027646 
L 253.789346 316.666225 
L 254.112112 317.238744 
L 256.016431 319.66094 
L 256.161676 319.77104 
L 256.516718 320.07932 
L 256.678101 320.189419 
L 256.936314 320.365579 
L 257.129974 320.475679 
L 257.372048 320.629819 
L 257.614122 320.739918 
L 257.82392 320.850018 
L 258.130548 320.960118 
L 258.340346 321.114258 
L 258.356484 321.092238 
L 258.840633 320.982138 
L 259.018154 320.916078 
L 259.502303 320.805978 
L 259.663686 320.761938 
L 260.115558 320.651839 
L 260.276941 320.607799 
L 260.76109 320.497699 
L 260.922473 320.453659 
L 261.42276 320.343559 
L 261.584143 320.299519 
L 262.132845 320.189419 
L 262.294228 320.145379 
L 262.907483 320.03528 
L 263.068866 319.99124 
L 263.746675 319.88114 
L 263.908058 319.8371 
L 264.698834 319.727 
L 264.860217 319.68296 
L 265.7801 319.57286 
L 265.925344 319.55084 
L 266.457908 319.48478 
L 267.684419 289.00915 
L 268.862514 264.23669 
L 270.13744 241.974506 
L 271.186429 226.58255 
L 272.138588 212.159474 
L 272.412939 204.342386 
L 272.493631 199.013555 
L 272.606599 227.08901 
L 272.913226 227.199109 
L 273.849247 237.328293 
L 274.527056 241.996526 
L 275.05962 244.308622 
L 275.398524 245.25548 
L 276.076332 246.004159 
L 276.447513 245.894059 
L 277.206013 244.682961 
L 278.093619 241.952486 
L 279.384683 236.205275 
L 281.418108 224.512674 
L 282.418682 216.937806 
L 282.902831 211.278675 
L 283.161044 205.531464 
L 283.274012 199.674154 
L 283.38698 227.08901 
L 283.693607 227.08901 
L 284.548937 240.345028 
L 285.113777 246.554658 
L 285.694756 251.068751 
L 286.162767 253.512967 
L 286.663054 255.098404 
L 286.953543 255.582844 
L 287.244032 255.803043 
L 287.615213 255.692943 
L 288.276883 254.613965 
L 289.019245 252.279849 
L 290.052096 247.589596 
L 291.730478 237.834752 
L 294.522404 218.060824 
L 295.071106 211.785134 
L 295.329318 206.390243 
L 295.474563 199.079615 
L 295.587531 227.08901 
L 295.894159 227.08901 
L 296.684935 239.19999 
L 297.443435 247.171217 
L 298.072828 251.42107 
L 298.556977 253.468927 
L 299.121818 254.702045 
L 299.250924 254.812145 
L 299.444584 254.900225 
L 299.799626 254.790125 
L 300.445158 253.733167 
L 301.219796 251.31097 
L 302.252647 246.620718 
L 304.011721 236.425475 
L 306.642263 217.730525 
L 307.158689 211.763114 
L 307.416901 206.390243 
L 307.562146 199.057595 
L 307.675114 227.08901 
L 307.965603 227.08901 
L 308.110848 229.489186 
L 308.966178 241.710266 
L 309.740816 248.954834 
L 310.386348 252.632168 
L 310.918911 254.349726 
L 311.564443 255.054364 
L 311.854933 254.944265 
L 312.548879 253.821246 
L 313.275103 251.53117 
L 314.356368 246.642738 
L 316.067028 236.711734 
L 318.729846 217.818605 
L 319.246272 211.917254 
L 319.536761 205.641564 
L 319.665867 198.308916 
L 319.778836 227.08901 
L 320.069325 227.08901 
L 320.21457 229.467166 
L 320.892378 239.53029 
L 321.618601 247.127177 
L 322.247995 251.42107 
L 323.087186 254.393766 
L 323.61975 254.944265 
L 323.990931 254.834165 
L 324.620324 253.799226 
L 325.394962 251.37703 
L 326.46009 246.554658 
L 328.170749 236.623654 
L 330.833568 217.708505 
L 331.011089 215.968928 
L 331.043366 216.497407 
L 331.94711 233.10046 
L 333.496386 258.643619 
L 335.077939 278.725826 
L 336.223758 290.022068 
L 337.692343 301.14215 
L 338.515396 306.008562 
L 339.435279 310.434575 
L 340.613375 314.794528 
L 342.194928 318.802162 
L 342.582247 319.5068 
L 342.872736 319.99124 
L 344.276768 321.730817 
L 344.405874 321.840917 
L 344.72864 322.105156 
L 344.906161 322.215256 
L 345.164374 322.391416 
L 345.374172 322.501516 
L 345.58397 322.611615 
L 345.858321 322.721715 
L 346.05198 322.809795 
L 346.487714 322.919895 
L 346.649097 322.963935 
L 347.068693 323.029995 
L 347.181661 321.092238 
L 347.617395 320.982138 
L 347.794916 320.916078 
L 348.279065 320.805978 
L 348.440448 320.761938 
L 348.89232 320.651839 
L 349.053703 320.607799 
L 349.537852 320.497699 
L 349.699235 320.453659 
L 350.199522 320.343559 
L 350.360905 320.299519 
L 350.909607 320.189419 
L 351.07099 320.145379 
L 351.684245 320.03528 
L 351.845628 319.99124 
L 352.523436 319.88114 
L 352.684819 319.8371 
L 353.475596 319.727 
L 353.636979 319.68296 
L 354.556862 319.57286 
L 354.702106 319.55084 
L 355.23467 319.48478 
L 356.445042 259.414317 
L 357.719968 199.497994 
L 357.832936 227.08901 
L 358.139563 227.08901 
L 358.83351 215.066109 
L 359.156276 205.817724 
L 359.253106 199.762234 
L 359.366074 227.08901 
L 359.68884 227.177089 
L 360.15685 228.652427 
L 360.366648 228.762527 
L 360.511893 228.652427 
L 360.737829 228.167988 
L 361.028318 227.06699 
L 361.57702 223.477735 
L 362.061169 218.633343 
L 362.496903 212.005334 
L 362.755116 204.606626 
L 362.835807 199.387894 
L 362.948775 227.08901 
L 363.255403 227.08901 
L 363.75569 230.810384 
L 364.094594 232.065522 
L 364.32053 232.395821 
L 364.578743 232.285721 
L 364.804679 231.801282 
L 365.07903 230.744324 
L 365.385658 229.026766 
L 365.93436 224.556714 
L 366.450785 218.611323 
L 366.886519 211.168575 
L 367.128594 202.867049 
L 367.177009 199.167695 
L 367.289977 227.08901 
L 367.596604 227.08901 
L 368.096891 230.303924 
L 368.451934 231.294823 
L 368.661732 231.404923 
L 368.806976 231.294823 
L 369.032912 230.810384 
L 369.323402 229.709385 
L 369.888242 226.054071 
L 370.436944 220.65918 
L 370.969508 212.754013 
L 371.227721 205.839744 
L 371.340689 198.947495 
L 371.453657 227.08901 
L 371.760284 227.155069 
L 372.17988 230.105745 
L 372.518784 231.360883 
L 372.74472 231.691182 
L 373.002933 231.581082 
L 373.228869 231.096643 
L 373.825986 228.212028 
L 374.35855 223.830055 
L 374.858837 218.016784 
L 375.262294 211.014436 
L 375.488231 203.527648 
L 375.552784 198.727295 
L 375.665752 227.08901 
L 375.972379 227.155069 
L 376.375837 229.973625 
L 376.714741 231.250783 
L 376.956815 231.603102 
L 377.19889 231.493002 
L 377.424826 231.008563 
L 377.715315 229.907565 
L 378.280156 226.252251 
L 378.828858 220.85736 
L 379.248453 215.066109 
L 379.571219 208.04174 
L 379.74874 198.727295 
L 379.861709 227.08901 
L 380.168336 227.155069 
L 380.571794 229.995645 
L 380.910698 231.272803 
L 381.136634 231.603102 
L 381.410985 231.493002 
L 381.620783 231.030583 
L 381.911272 229.929585 
L 382.201761 228.300108 
L 382.750463 223.852075 
L 383.44441 215.132169 
L 383.799453 207.072862 
L 383.944697 199.057595 
L 384.057665 227.08901 
L 384.364293 227.155069 
L 384.76775 229.995645 
L 385.106654 231.294823 
L 385.477835 231.647142 
L 385.849016 230.964523 
L 386.107229 229.973625 
L 386.688207 226.208211 
L 387.220771 220.967459 
L 387.769473 212.886133 
L 388.059962 204.694706 
L 388.140654 199.475974 
L 388.253622 227.08901 
L 388.56025 227.08901 
L 389.092813 230.568164 
L 389.431718 231.493002 
L 389.657654 231.625122 
L 389.802898 231.515022 
L 390.028834 231.030583 
L 390.625951 228.145968 
L 391.158515 223.763995 
L 391.658802 217.950724 
L 392.126813 209.318898 
L 392.320472 201.237571 
L 392.352749 198.264876 
L 392.465717 227.08901 
L 392.772345 227.155069 
L 393.175802 229.973625 
L 393.514706 231.250783 
L 393.740642 231.581082 
L 393.998855 231.470983 
L 394.24093 230.964523 
L 394.821908 228.145968 
L 395.354472 223.786015 
L 395.854759 217.972744 
L 396.32277 209.362938 
L 396.516429 201.369691 
L 396.548706 198.485076 
L 396.661674 227.08901 
L 396.968301 227.155069 
L 397.371759 229.995645 
L 397.855908 231.515022 
L 398.033429 231.625122 
L 398.049567 231.603102 
L 398.194812 231.493002 
L 398.436886 230.986543 
L 399.017865 228.167988 
L 399.550429 223.830055 
L 400.244375 215.088129 
L 400.567141 208.06376 
L 400.728524 200.378793 
L 400.744663 198.859415 
L 400.857631 227.08901 
L 401.164258 227.155069 
L 401.567716 229.995645 
L 401.90662 231.272803 
L 402.148694 231.625122 
L 402.390769 231.515022 
L 402.632843 231.008563 
L 402.907194 229.951605 
L 403.197683 228.322128 
L 403.746385 223.874095 
L 404.440332 215.154189 
L 404.763098 208.19588 
L 404.940619 199.277794 
L 405.053587 227.08901 
L 405.360215 227.08901 
L 405.892779 230.546144 
L 406.231683 231.470983 
L 406.457619 231.603102 
L 406.586725 231.493002 
L 406.8288 230.986543 
L 407.103151 229.929585 
L 407.409778 228.212028 
L 407.95848 223.719955 
L 408.458768 217.884664 
L 408.91064 209.627178 
L 409.120438 200.885252 
L 409.136576 199.475974 
L 409.249544 227.08901 
L 409.556172 227.08901 
L 410.088735 230.568164 
L 410.42764 231.493002 
L 410.653576 231.625122 
L 410.782682 231.515022 
L 411.024757 231.008563 
L 411.299108 229.973625 
L 411.880086 226.230231 
L 412.41265 221.011499 
L 412.961352 212.952192 
L 413.219565 206.214083 
L 413.332533 199.850314 
L 413.445501 227.08901 
L 413.752128 227.08901 
L 414.284692 230.568164 
L 414.623596 231.515022 
L 414.849533 231.647142 
L 414.994777 231.537042 
L 415.220713 231.052603 
L 415.495064 229.995645 
L 415.801692 228.278088 
L 416.10832 226.010031 
L 416.608607 221.055539 
L 417.157309 213.040272 
L 417.43166 205.751664 
L 417.544628 198.661235 
L 417.657596 227.08901 
L 417.964223 227.155069 
L 418.367681 229.995645 
L 418.85183 231.515022 
L 419.045489 231.625122 
L 419.465085 230.876443 
L 419.707159 229.929585 
L 419.787851 229.511206 
L 420.707734 269.301281 
L 421.627616 300.239332 
L 422.434531 321.224358 
L 423.418967 340.315667 
L 424.419542 353.725825 
L 425.129627 360.265755 
L 426.033371 365.704686 
L 426.727318 368.082842 
L 426.969392 368.589301 
L 427.227605 368.985661 
L 427.582647 369.29394 
L 428.276594 369.18384 
L 429.325583 367.576383 
L 430.971689 362.776031 
L 432.246615 358.019718 
L 432.504827 357.0068 
L 435.377444 345.710558 
L 435.70021 344.52148 
L 435.845455 343.993001 
L 435.845455 343.993001 
" style="fill:none;stroke:#ff0000;stroke-linecap:square;stroke-width:1.5;"/>
   </g>
   <g id="patch_3">
    <path d="M 63 384.48 
L 63 51.84 
" style="fill:none;stroke:#000000;stroke-linecap:square;stroke-linejoin:miter;stroke-width:0.8;"/>
   </g>
   <g id="patch_4">
    <path d="M 453.6 384.48 
L 453.6 51.84 
" style="fill:none;stroke:#000000;stroke-linecap:square;stroke-linejoin:miter;stroke-width:0.8;"/>
   </g>
   <g id="patch_5">
    <path d="M 63 384.48 
L 453.6 384.48 
" style="fill:none;stroke:#000000;stroke-linecap:square;stroke-linejoin:miter;stroke-width:0.8;"/>
   </g>
   <g id="patch_6">
    <path d="M 63 51.84 
L 453.6 51.84 
" style="fill:none;stroke:#000000;stroke-linecap:square;stroke-linejoin:miter;stroke-width:0.8;"/>
   </g>
   <g id="legend_1">
    <g id="patch_7">
     <path d="M 70 89.19625 
L 133.139062 89.19625 
Q 135.139062 89.19625 135.139062 87.19625 
L 135.139062 58.84 
Q 135.139062 56.84 133.139062 56.84 
L 70 56.84 
Q 68 56.84 68 58.84 
L 68 87.19625 
Q 68 89.19625 70 89.19625 
z
" style="fill:#ffffff;opacity:0.8;stroke:#cccccc;stroke-linejoin:miter;"/>
    </g>
    <g id="line2d_16">
     <path d="M 72 64.938437 
L 92 64.938437 
" style="fill:none;stroke:#1f77b4;stroke-linecap:square;stroke-width:1.5;"/>
    </g>
    <g id="line2d_17"/>
    <g id="text_16">
     <!-- target -->
     <defs>
      <path d="M 41.109375 46.296875 
Q 39.59375 47.171875 37.8125 47.578125 
Q 36.03125 48 33.890625 48 
Q 26.265625 48 22.1875 43.046875 
Q 18.109375 38.09375 18.109375 28.8125 
L 18.109375 0 
L 9.078125 0 
L 9.078125 54.6875 
L 18.109375 54.6875 
L 18.109375 46.1875 
Q 20.953125 51.171875 25.484375 53.578125 
Q 30.03125 56 36.53125 56 
Q 37.453125 56 38.578125 55.875 
Q 39.703125 55.765625 41.0625 55.515625 
z
" id="DejaVuSans-114"/>
     </defs>
     <g transform="translate(100 68.438437)scale(0.1 -0.1)">
      <use xlink:href="#DejaVuSans-116"/>
      <use x="39.208984" xlink:href="#DejaVuSans-97"/>
      <use x="100.488281" xlink:href="#DejaVuSans-114"/>
      <use x="141.585938" xlink:href="#DejaVuSans-103"/>
      <use x="205.0625" xlink:href="#DejaVuSans-101"/>
      <use x="266.585938" xlink:href="#DejaVuSans-116"/>
     </g>
    </g>
    <g id="line2d_18">
     <path d="M 72 79.616562 
L 92 79.616562 
" style="fill:none;stroke:#ff0000;stroke-linecap:square;stroke-width:1.5;"/>
    </g>
    <g id="line2d_19"/>
    <g id="text_17">
     <!-- model -->
     <defs>
      <path d="M 45.40625 46.390625 
L 45.40625 75.984375 
L 54.390625 75.984375 
L 54.390625 0 
L 45.40625 0 
L 45.40625 8.203125 
Q 42.578125 3.328125 38.25 0.953125 
Q 33.9375 -1.421875 27.875 -1.421875 
Q 17.96875 -1.421875 11.734375 6.484375 
Q 5.515625 14.40625 5.515625 27.296875 
Q 5.515625 40.1875 11.734375 48.09375 
Q 17.96875 56 27.875 56 
Q 33.9375 56 38.25 53.625 
Q 42.578125 51.265625 45.40625 46.390625 
z
M 14.796875 27.296875 
Q 14.796875 17.390625 18.875 11.75 
Q 22.953125 6.109375 30.078125 6.109375 
Q 37.203125 6.109375 41.296875 11.75 
Q 45.40625 17.390625 45.40625 27.296875 
Q 45.40625 37.203125 41.296875 42.84375 
Q 37.203125 48.484375 30.078125 48.484375 
Q 22.953125 48.484375 18.875 42.84375 
Q 14.796875 37.203125 14.796875 27.296875 
z
" id="DejaVuSans-100"/>
     </defs>
     <g transform="translate(100 83.116562)scale(0.1 -0.1)">
      <use xlink:href="#DejaVuSans-109"/>
      <use x="97.412109" xlink:href="#DejaVuSans-111"/>
      <use x="158.59375" xlink:href="#DejaVuSans-100"/>
      <use x="222.070312" xlink:href="#DejaVuSans-101"/>
      <use x="283.59375" xlink:href="#DejaVuSans-108"/>
     </g>
    </g>
   </g>
  </g>
 </g>
 <defs>
  <clipPath id="p2d078685fe">
   <rect height="332.64" width="390.6" x="63" y="51.84"/>
  </clipPath>
 </defs>
</svg>
