<?xml version="1.0" encoding="utf-8" standalone="no"?>
<!DOCTYPE svg PUBLIC "-//W3C//DTD SVG 1.1//EN"
  "http://www.w3.org/Graphics/SVG/1.1/DTD/svg11.dtd">
<!-- Created with matplotlib (https://matplotlib.org/) -->
<svg height="432pt" version="1.1" viewBox="0 0 504 432" width="504pt" xmlns="http://www.w3.org/2000/svg" xmlns:xlink="http://www.w3.org/1999/xlink">
 <defs>
  <style type="text/css">
*{stroke-linecap:butt;stroke-linejoin:round;}
  </style>
 </defs>
 <g id="figure_1">
  <g id="patch_1">
   <path d="M 0 432 
L 504 432 
L 504 0 
L 0 0 
z
" style="fill:#ffffff;"/>
  </g>
  <g id="axes_1">
   <g id="patch_2">
    <path d="M 63 384.48 
L 453.6 384.48 
L 453.6 51.84 
L 63 51.84 
z
" style="fill:#ffffff;"/>
   </g>
   <g id="matplotlib.axis_1">
    <g id="xtick_1">
     <g id="line2d_1">
      <defs>
       <path d="M 0 0 
L 0 3.5 
" id="m38cfc5f2c6" style="stroke:#000000;stroke-width:0.8;"/>
      </defs>
      <g>
       <use style="stroke:#000000;stroke-width:0.8;" x="80.754545" xlink:href="#m38cfc5f2c6" y="384.48"/>
      </g>
     </g>
     <g id="text_1">
      <!-- 0 -->
      <defs>
       <path d="M 31.78125 66.40625 
Q 24.171875 66.40625 20.328125 58.90625 
Q 16.5 51.421875 16.5 36.375 
Q 16.5 21.390625 20.328125 13.890625 
Q 24.171875 6.390625 31.78125 6.390625 
Q 39.453125 6.390625 43.28125 13.890625 
Q 47.125 21.390625 47.125 36.375 
Q 47.125 51.421875 43.28125 58.90625 
Q 39.453125 66.40625 31.78125 66.40625 
z
M 31.78125 74.21875 
Q 44.046875 74.21875 50.515625 64.515625 
Q 56.984375 54.828125 56.984375 36.375 
Q 56.984375 17.96875 50.515625 8.265625 
Q 44.046875 -1.421875 31.78125 -1.421875 
Q 19.53125 -1.421875 13.0625 8.265625 
Q 6.59375 17.96875 6.59375 36.375 
Q 6.59375 54.828125 13.0625 64.515625 
Q 19.53125 74.21875 31.78125 74.21875 
z
" id="DejaVuSans-48"/>
      </defs>
      <g transform="translate(77.573295 399.078438)scale(0.1 -0.1)">
       <use xlink:href="#DejaVuSans-48"/>
      </g>
     </g>
    </g>
    <g id="xtick_2">
     <g id="line2d_2">
      <g>
       <use style="stroke:#000000;stroke-width:0.8;" x="151.763044" xlink:href="#m38cfc5f2c6" y="384.48"/>
      </g>
     </g>
     <g id="text_2">
      <!-- 880 -->
      <defs>
       <path d="M 31.78125 34.625 
Q 24.75 34.625 20.71875 30.859375 
Q 16.703125 27.09375 16.703125 20.515625 
Q 16.703125 13.921875 20.71875 10.15625 
Q 24.75 6.390625 31.78125 6.390625 
Q 38.8125 6.390625 42.859375 10.171875 
Q 46.921875 13.96875 46.921875 20.515625 
Q 46.921875 27.09375 42.890625 30.859375 
Q 38.875 34.625 31.78125 34.625 
z
M 21.921875 38.8125 
Q 15.578125 40.375 12.03125 44.71875 
Q 8.5 49.078125 8.5 55.328125 
Q 8.5 64.0625 14.71875 69.140625 
Q 20.953125 74.21875 31.78125 74.21875 
Q 42.671875 74.21875 48.875 69.140625 
Q 55.078125 64.0625 55.078125 55.328125 
Q 55.078125 49.078125 51.53125 44.71875 
Q 48 40.375 41.703125 38.8125 
Q 48.828125 37.15625 52.796875 32.3125 
Q 56.78125 27.484375 56.78125 20.515625 
Q 56.78125 9.90625 50.3125 4.234375 
Q 43.84375 -1.421875 31.78125 -1.421875 
Q 19.734375 -1.421875 13.25 4.234375 
Q 6.78125 9.90625 6.78125 20.515625 
Q 6.78125 27.484375 10.78125 32.3125 
Q 14.796875 37.15625 21.921875 38.8125 
z
M 18.3125 54.390625 
Q 18.3125 48.734375 21.84375 45.5625 
Q 25.390625 42.390625 31.78125 42.390625 
Q 38.140625 42.390625 41.71875 45.5625 
Q 45.3125 48.734375 45.3125 54.390625 
Q 45.3125 60.0625 41.71875 63.234375 
Q 38.140625 66.40625 31.78125 66.40625 
Q 25.390625 66.40625 21.84375 63.234375 
Q 18.3125 60.0625 18.3125 54.390625 
z
" id="DejaVuSans-56"/>
      </defs>
      <g transform="translate(142.219294 399.078438)scale(0.1 -0.1)">
       <use xlink:href="#DejaVuSans-56"/>
       <use x="63.623047" xlink:href="#DejaVuSans-56"/>
       <use x="127.246094" xlink:href="#DejaVuSans-48"/>
      </g>
     </g>
    </g>
    <g id="xtick_3">
     <g id="line2d_3">
      <g>
       <use style="stroke:#000000;stroke-width:0.8;" x="222.771543" xlink:href="#m38cfc5f2c6" y="384.48"/>
      </g>
     </g>
     <g id="text_3">
      <!-- 1760 -->
      <defs>
       <path d="M 12.40625 8.296875 
L 28.515625 8.296875 
L 28.515625 63.921875 
L 10.984375 60.40625 
L 10.984375 69.390625 
L 28.421875 72.90625 
L 38.28125 72.90625 
L 38.28125 8.296875 
L 54.390625 8.296875 
L 54.390625 0 
L 12.40625 0 
z
" id="DejaVuSans-49"/>
       <path d="M 8.203125 72.90625 
L 55.078125 72.90625 
L 55.078125 68.703125 
L 28.609375 0 
L 18.3125 0 
L 43.21875 64.59375 
L 8.203125 64.59375 
z
" id="DejaVuSans-55"/>
       <path d="M 33.015625 40.375 
Q 26.375 40.375 22.484375 35.828125 
Q 18.609375 31.296875 18.609375 23.390625 
Q 18.609375 15.53125 22.484375 10.953125 
Q 26.375 6.390625 33.015625 6.390625 
Q 39.65625 6.390625 43.53125 10.953125 
Q 47.40625 15.53125 47.40625 23.390625 
Q 47.40625 31.296875 43.53125 35.828125 
Q 39.65625 40.375 33.015625 40.375 
z
M 52.59375 71.296875 
L 52.59375 62.3125 
Q 48.875 64.0625 45.09375 64.984375 
Q 41.3125 65.921875 37.59375 65.921875 
Q 27.828125 65.921875 22.671875 59.328125 
Q 17.53125 52.734375 16.796875 39.40625 
Q 19.671875 43.65625 24.015625 45.921875 
Q 28.375 48.1875 33.59375 48.1875 
Q 44.578125 48.1875 50.953125 41.515625 
Q 57.328125 34.859375 57.328125 23.390625 
Q 57.328125 12.15625 50.6875 5.359375 
Q 44.046875 -1.421875 33.015625 -1.421875 
Q 20.359375 -1.421875 13.671875 8.265625 
Q 6.984375 17.96875 6.984375 36.375 
Q 6.984375 53.65625 15.1875 63.9375 
Q 23.390625 74.21875 37.203125 74.21875 
Q 40.921875 74.21875 44.703125 73.484375 
Q 48.484375 72.75 52.59375 71.296875 
z
" id="DejaVuSans-54"/>
      </defs>
      <g transform="translate(210.046543 399.078438)scale(0.1 -0.1)">
       <use xlink:href="#DejaVuSans-49"/>
       <use x="63.623047" xlink:href="#DejaVuSans-55"/>
       <use x="127.246094" xlink:href="#DejaVuSans-54"/>
       <use x="190.869141" xlink:href="#DejaVuSans-48"/>
      </g>
     </g>
    </g>
    <g id="xtick_4">
     <g id="line2d_4">
      <g>
       <use style="stroke:#000000;stroke-width:0.8;" x="293.780042" xlink:href="#m38cfc5f2c6" y="384.48"/>
      </g>
     </g>
     <g id="text_4">
      <!-- 2640 -->
      <defs>
       <path d="M 19.1875 8.296875 
L 53.609375 8.296875 
L 53.609375 0 
L 7.328125 0 
L 7.328125 8.296875 
Q 12.9375 14.109375 22.625 23.890625 
Q 32.328125 33.6875 34.8125 36.53125 
Q 39.546875 41.84375 41.421875 45.53125 
Q 43.3125 49.21875 43.3125 52.78125 
Q 43.3125 58.59375 39.234375 62.25 
Q 35.15625 65.921875 28.609375 65.921875 
Q 23.96875 65.921875 18.8125 64.3125 
Q 13.671875 62.703125 7.8125 59.421875 
L 7.8125 69.390625 
Q 13.765625 71.78125 18.9375 73 
Q 24.125 74.21875 28.421875 74.21875 
Q 39.75 74.21875 46.484375 68.546875 
Q 53.21875 62.890625 53.21875 53.421875 
Q 53.21875 48.921875 51.53125 44.890625 
Q 49.859375 40.875 45.40625 35.40625 
Q 44.1875 33.984375 37.640625 27.21875 
Q 31.109375 20.453125 19.1875 8.296875 
z
" id="DejaVuSans-50"/>
       <path d="M 37.796875 64.3125 
L 12.890625 25.390625 
L 37.796875 25.390625 
z
M 35.203125 72.90625 
L 47.609375 72.90625 
L 47.609375 25.390625 
L 58.015625 25.390625 
L 58.015625 17.1875 
L 47.609375 17.1875 
L 47.609375 0 
L 37.796875 0 
L 37.796875 17.1875 
L 4.890625 17.1875 
L 4.890625 26.703125 
z
" id="DejaVuSans-52"/>
      </defs>
      <g transform="translate(281.055042 399.078438)scale(0.1 -0.1)">
       <use xlink:href="#DejaVuSans-50"/>
       <use x="63.623047" xlink:href="#DejaVuSans-54"/>
       <use x="127.246094" xlink:href="#DejaVuSans-52"/>
       <use x="190.869141" xlink:href="#DejaVuSans-48"/>
      </g>
     </g>
    </g>
    <g id="xtick_5">
     <g id="line2d_5">
      <g>
       <use style="stroke:#000000;stroke-width:0.8;" x="364.788541" xlink:href="#m38cfc5f2c6" y="384.48"/>
      </g>
     </g>
     <g id="text_5">
      <!-- 3520 -->
      <defs>
       <path d="M 40.578125 39.3125 
Q 47.65625 37.796875 51.625 33 
Q 55.609375 28.21875 55.609375 21.1875 
Q 55.609375 10.40625 48.1875 4.484375 
Q 40.765625 -1.421875 27.09375 -1.421875 
Q 22.515625 -1.421875 17.65625 -0.515625 
Q 12.796875 0.390625 7.625 2.203125 
L 7.625 11.71875 
Q 11.71875 9.328125 16.59375 8.109375 
Q 21.484375 6.890625 26.8125 6.890625 
Q 36.078125 6.890625 40.9375 10.546875 
Q 45.796875 14.203125 45.796875 21.1875 
Q 45.796875 27.640625 41.28125 31.265625 
Q 36.765625 34.90625 28.71875 34.90625 
L 20.21875 34.90625 
L 20.21875 43.015625 
L 29.109375 43.015625 
Q 36.375 43.015625 40.234375 45.921875 
Q 44.09375 48.828125 44.09375 54.296875 
Q 44.09375 59.90625 40.109375 62.90625 
Q 36.140625 65.921875 28.71875 65.921875 
Q 24.65625 65.921875 20.015625 65.03125 
Q 15.375 64.15625 9.8125 62.3125 
L 9.8125 71.09375 
Q 15.4375 72.65625 20.34375 73.4375 
Q 25.25 74.21875 29.59375 74.21875 
Q 40.828125 74.21875 47.359375 69.109375 
Q 53.90625 64.015625 53.90625 55.328125 
Q 53.90625 49.265625 50.4375 45.09375 
Q 46.96875 40.921875 40.578125 39.3125 
z
" id="DejaVuSans-51"/>
       <path d="M 10.796875 72.90625 
L 49.515625 72.90625 
L 49.515625 64.59375 
L 19.828125 64.59375 
L 19.828125 46.734375 
Q 21.96875 47.46875 24.109375 47.828125 
Q 26.265625 48.1875 28.421875 48.1875 
Q 40.625 48.1875 47.75 41.5 
Q 54.890625 34.8125 54.890625 23.390625 
Q 54.890625 11.625 47.5625 5.09375 
Q 40.234375 -1.421875 26.90625 -1.421875 
Q 22.3125 -1.421875 17.546875 -0.640625 
Q 12.796875 0.140625 7.71875 1.703125 
L 7.71875 11.625 
Q 12.109375 9.234375 16.796875 8.0625 
Q 21.484375 6.890625 26.703125 6.890625 
Q 35.15625 6.890625 40.078125 11.328125 
Q 45.015625 15.765625 45.015625 23.390625 
Q 45.015625 31 40.078125 35.4375 
Q 35.15625 39.890625 26.703125 39.890625 
Q 22.75 39.890625 18.8125 39.015625 
Q 14.890625 38.140625 10.796875 36.28125 
z
" id="DejaVuSans-53"/>
      </defs>
      <g transform="translate(352.063541 399.078438)scale(0.1 -0.1)">
       <use xlink:href="#DejaVuSans-51"/>
       <use x="63.623047" xlink:href="#DejaVuSans-53"/>
       <use x="127.246094" xlink:href="#DejaVuSans-50"/>
       <use x="190.869141" xlink:href="#DejaVuSans-48"/>
      </g>
     </g>
    </g>
    <g id="text_6">
     <!-- time [ms] -->
     <defs>
      <path d="M 18.3125 70.21875 
L 18.3125 54.6875 
L 36.8125 54.6875 
L 36.8125 47.703125 
L 18.3125 47.703125 
L 18.3125 18.015625 
Q 18.3125 11.328125 20.140625 9.421875 
Q 21.96875 7.515625 27.59375 7.515625 
L 36.8125 7.515625 
L 36.8125 0 
L 27.59375 0 
Q 17.1875 0 13.234375 3.875 
Q 9.28125 7.765625 9.28125 18.015625 
L 9.28125 47.703125 
L 2.6875 47.703125 
L 2.6875 54.6875 
L 9.28125 54.6875 
L 9.28125 70.21875 
z
" id="DejaVuSans-116"/>
      <path d="M 9.421875 54.6875 
L 18.40625 54.6875 
L 18.40625 0 
L 9.421875 0 
z
M 9.421875 75.984375 
L 18.40625 75.984375 
L 18.40625 64.59375 
L 9.421875 64.59375 
z
" id="DejaVuSans-105"/>
      <path d="M 52 44.1875 
Q 55.375 50.25 60.0625 53.125 
Q 64.75 56 71.09375 56 
Q 79.640625 56 84.28125 50.015625 
Q 88.921875 44.046875 88.921875 33.015625 
L 88.921875 0 
L 79.890625 0 
L 79.890625 32.71875 
Q 79.890625 40.578125 77.09375 44.375 
Q 74.3125 48.1875 68.609375 48.1875 
Q 61.625 48.1875 57.5625 43.546875 
Q 53.515625 38.921875 53.515625 30.90625 
L 53.515625 0 
L 44.484375 0 
L 44.484375 32.71875 
Q 44.484375 40.625 41.703125 44.40625 
Q 38.921875 48.1875 33.109375 48.1875 
Q 26.21875 48.1875 22.15625 43.53125 
Q 18.109375 38.875 18.109375 30.90625 
L 18.109375 0 
L 9.078125 0 
L 9.078125 54.6875 
L 18.109375 54.6875 
L 18.109375 46.1875 
Q 21.1875 51.21875 25.484375 53.609375 
Q 29.78125 56 35.6875 56 
Q 41.65625 56 45.828125 52.96875 
Q 50 49.953125 52 44.1875 
z
" id="DejaVuSans-109"/>
      <path d="M 56.203125 29.59375 
L 56.203125 25.203125 
L 14.890625 25.203125 
Q 15.484375 15.921875 20.484375 11.0625 
Q 25.484375 6.203125 34.421875 6.203125 
Q 39.59375 6.203125 44.453125 7.46875 
Q 49.3125 8.734375 54.109375 11.28125 
L 54.109375 2.78125 
Q 49.265625 0.734375 44.1875 -0.34375 
Q 39.109375 -1.421875 33.890625 -1.421875 
Q 20.796875 -1.421875 13.15625 6.1875 
Q 5.515625 13.8125 5.515625 26.8125 
Q 5.515625 40.234375 12.765625 48.109375 
Q 20.015625 56 32.328125 56 
Q 43.359375 56 49.78125 48.890625 
Q 56.203125 41.796875 56.203125 29.59375 
z
M 47.21875 32.234375 
Q 47.125 39.59375 43.09375 43.984375 
Q 39.0625 48.390625 32.421875 48.390625 
Q 24.90625 48.390625 20.390625 44.140625 
Q 15.875 39.890625 15.1875 32.171875 
z
" id="DejaVuSans-101"/>
      <path id="DejaVuSans-32"/>
      <path d="M 8.59375 75.984375 
L 29.296875 75.984375 
L 29.296875 69 
L 17.578125 69 
L 17.578125 -6.203125 
L 29.296875 -6.203125 
L 29.296875 -13.1875 
L 8.59375 -13.1875 
z
" id="DejaVuSans-91"/>
      <path d="M 44.28125 53.078125 
L 44.28125 44.578125 
Q 40.484375 46.53125 36.375 47.5 
Q 32.28125 48.484375 27.875 48.484375 
Q 21.1875 48.484375 17.84375 46.4375 
Q 14.5 44.390625 14.5 40.28125 
Q 14.5 37.15625 16.890625 35.375 
Q 19.28125 33.59375 26.515625 31.984375 
L 29.59375 31.296875 
Q 39.15625 29.25 43.1875 25.515625 
Q 47.21875 21.78125 47.21875 15.09375 
Q 47.21875 7.46875 41.1875 3.015625 
Q 35.15625 -1.421875 24.609375 -1.421875 
Q 20.21875 -1.421875 15.453125 -0.5625 
Q 10.6875 0.296875 5.421875 2 
L 5.421875 11.28125 
Q 10.40625 8.6875 15.234375 7.390625 
Q 20.0625 6.109375 24.8125 6.109375 
Q 31.15625 6.109375 34.5625 8.28125 
Q 37.984375 10.453125 37.984375 14.40625 
Q 37.984375 18.0625 35.515625 20.015625 
Q 33.0625 21.96875 24.703125 23.78125 
L 21.578125 24.515625 
Q 13.234375 26.265625 9.515625 29.90625 
Q 5.8125 33.546875 5.8125 39.890625 
Q 5.8125 47.609375 11.28125 51.796875 
Q 16.75 56 26.8125 56 
Q 31.78125 56 36.171875 55.265625 
Q 40.578125 54.546875 44.28125 53.078125 
z
" id="DejaVuSans-115"/>
      <path d="M 30.421875 75.984375 
L 30.421875 -13.1875 
L 9.71875 -13.1875 
L 9.71875 -6.203125 
L 21.390625 -6.203125 
L 21.390625 69 
L 9.71875 69 
L 9.71875 75.984375 
z
" id="DejaVuSans-93"/>
     </defs>
     <g transform="translate(234.038281 412.756563)scale(0.1 -0.1)">
      <use xlink:href="#DejaVuSans-116"/>
      <use x="39.208984" xlink:href="#DejaVuSans-105"/>
      <use x="66.992188" xlink:href="#DejaVuSans-109"/>
      <use x="164.404297" xlink:href="#DejaVuSans-101"/>
      <use x="225.927734" xlink:href="#DejaVuSans-32"/>
      <use x="257.714844" xlink:href="#DejaVuSans-91"/>
      <use x="296.728516" xlink:href="#DejaVuSans-109"/>
      <use x="394.140625" xlink:href="#DejaVuSans-115"/>
      <use x="446.240234" xlink:href="#DejaVuSans-93"/>
     </g>
    </g>
   </g>
   <g id="matplotlib.axis_2">
    <g id="ytick_1">
     <g id="line2d_6">
      <defs>
       <path d="M 0 0 
L -3.5 0 
" id="mb39c15b06d" style="stroke:#000000;stroke-width:0.8;"/>
      </defs>
      <g>
       <use style="stroke:#000000;stroke-width:0.8;" x="63" xlink:href="#mb39c15b06d" y="376.936755"/>
      </g>
     </g>
     <g id="text_7">
      <!-- −125 -->
      <defs>
       <path d="M 10.59375 35.5 
L 73.1875 35.5 
L 73.1875 27.203125 
L 10.59375 27.203125 
z
" id="DejaVuSans-8722"/>
      </defs>
      <g transform="translate(28.532812 380.735973)scale(0.1 -0.1)">
       <use xlink:href="#DejaVuSans-8722"/>
       <use x="83.789062" xlink:href="#DejaVuSans-49"/>
       <use x="147.412109" xlink:href="#DejaVuSans-50"/>
       <use x="211.035156" xlink:href="#DejaVuSans-53"/>
      </g>
     </g>
    </g>
    <g id="ytick_2">
     <g id="line2d_7">
      <g>
       <use style="stroke:#000000;stroke-width:0.8;" x="63" xlink:href="#mb39c15b06d" y="333.984631"/>
      </g>
     </g>
     <g id="text_8">
      <!-- −100 -->
      <g transform="translate(28.532812 337.783849)scale(0.1 -0.1)">
       <use xlink:href="#DejaVuSans-8722"/>
       <use x="83.789062" xlink:href="#DejaVuSans-49"/>
       <use x="147.412109" xlink:href="#DejaVuSans-48"/>
       <use x="211.035156" xlink:href="#DejaVuSans-48"/>
      </g>
     </g>
    </g>
    <g id="ytick_3">
     <g id="line2d_8">
      <g>
       <use style="stroke:#000000;stroke-width:0.8;" x="63" xlink:href="#mb39c15b06d" y="291.032507"/>
      </g>
     </g>
     <g id="text_9">
      <!-- −75 -->
      <g transform="translate(34.895313 294.831725)scale(0.1 -0.1)">
       <use xlink:href="#DejaVuSans-8722"/>
       <use x="83.789062" xlink:href="#DejaVuSans-55"/>
       <use x="147.412109" xlink:href="#DejaVuSans-53"/>
      </g>
     </g>
    </g>
    <g id="ytick_4">
     <g id="line2d_9">
      <g>
       <use style="stroke:#000000;stroke-width:0.8;" x="63" xlink:href="#mb39c15b06d" y="248.080383"/>
      </g>
     </g>
     <g id="text_10">
      <!-- −50 -->
      <g transform="translate(34.895313 251.879601)scale(0.1 -0.1)">
       <use xlink:href="#DejaVuSans-8722"/>
       <use x="83.789062" xlink:href="#DejaVuSans-53"/>
       <use x="147.412109" xlink:href="#DejaVuSans-48"/>
      </g>
     </g>
    </g>
    <g id="ytick_5">
     <g id="line2d_10">
      <g>
       <use style="stroke:#000000;stroke-width:0.8;" x="63" xlink:href="#mb39c15b06d" y="205.128258"/>
      </g>
     </g>
     <g id="text_11">
      <!-- −25 -->
      <g transform="translate(34.895313 208.927477)scale(0.1 -0.1)">
       <use xlink:href="#DejaVuSans-8722"/>
       <use x="83.789062" xlink:href="#DejaVuSans-50"/>
       <use x="147.412109" xlink:href="#DejaVuSans-53"/>
      </g>
     </g>
    </g>
    <g id="ytick_6">
     <g id="line2d_11">
      <g>
       <use style="stroke:#000000;stroke-width:0.8;" x="63" xlink:href="#mb39c15b06d" y="162.176134"/>
      </g>
     </g>
     <g id="text_12">
      <!-- 0 -->
      <g transform="translate(49.6375 165.975353)scale(0.1 -0.1)">
       <use xlink:href="#DejaVuSans-48"/>
      </g>
     </g>
    </g>
    <g id="ytick_7">
     <g id="line2d_12">
      <g>
       <use style="stroke:#000000;stroke-width:0.8;" x="63" xlink:href="#mb39c15b06d" y="119.22401"/>
      </g>
     </g>
     <g id="text_13">
      <!-- 25 -->
      <g transform="translate(43.275 123.023229)scale(0.1 -0.1)">
       <use xlink:href="#DejaVuSans-50"/>
       <use x="63.623047" xlink:href="#DejaVuSans-53"/>
      </g>
     </g>
    </g>
    <g id="ytick_8">
     <g id="line2d_13">
      <g>
       <use style="stroke:#000000;stroke-width:0.8;" x="63" xlink:href="#mb39c15b06d" y="76.271886"/>
      </g>
     </g>
     <g id="text_14">
      <!-- 50 -->
      <g transform="translate(43.275 80.071105)scale(0.1 -0.1)">
       <use xlink:href="#DejaVuSans-53"/>
       <use x="63.623047" xlink:href="#DejaVuSans-48"/>
      </g>
     </g>
    </g>
    <g id="text_15">
     <!-- voltage [mV] -->
     <defs>
      <path d="M 2.984375 54.6875 
L 12.5 54.6875 
L 29.59375 8.796875 
L 46.6875 54.6875 
L 56.203125 54.6875 
L 35.6875 0 
L 23.484375 0 
z
" id="DejaVuSans-118"/>
      <path d="M 30.609375 48.390625 
Q 23.390625 48.390625 19.1875 42.75 
Q 14.984375 37.109375 14.984375 27.296875 
Q 14.984375 17.484375 19.15625 11.84375 
Q 23.34375 6.203125 30.609375 6.203125 
Q 37.796875 6.203125 41.984375 11.859375 
Q 46.1875 17.53125 46.1875 27.296875 
Q 46.1875 37.015625 41.984375 42.703125 
Q 37.796875 48.390625 30.609375 48.390625 
z
M 30.609375 56 
Q 42.328125 56 49.015625 48.375 
Q 55.71875 40.765625 55.71875 27.296875 
Q 55.71875 13.875 49.015625 6.21875 
Q 42.328125 -1.421875 30.609375 -1.421875 
Q 18.84375 -1.421875 12.171875 6.21875 
Q 5.515625 13.875 5.515625 27.296875 
Q 5.515625 40.765625 12.171875 48.375 
Q 18.84375 56 30.609375 56 
z
" id="DejaVuSans-111"/>
      <path d="M 9.421875 75.984375 
L 18.40625 75.984375 
L 18.40625 0 
L 9.421875 0 
z
" id="DejaVuSans-108"/>
      <path d="M 34.28125 27.484375 
Q 23.390625 27.484375 19.1875 25 
Q 14.984375 22.515625 14.984375 16.5 
Q 14.984375 11.71875 18.140625 8.90625 
Q 21.296875 6.109375 26.703125 6.109375 
Q 34.1875 6.109375 38.703125 11.40625 
Q 43.21875 16.703125 43.21875 25.484375 
L 43.21875 27.484375 
z
M 52.203125 31.203125 
L 52.203125 0 
L 43.21875 0 
L 43.21875 8.296875 
Q 40.140625 3.328125 35.546875 0.953125 
Q 30.953125 -1.421875 24.3125 -1.421875 
Q 15.921875 -1.421875 10.953125 3.296875 
Q 6 8.015625 6 15.921875 
Q 6 25.140625 12.171875 29.828125 
Q 18.359375 34.515625 30.609375 34.515625 
L 43.21875 34.515625 
L 43.21875 35.40625 
Q 43.21875 41.609375 39.140625 45 
Q 35.0625 48.390625 27.6875 48.390625 
Q 23 48.390625 18.546875 47.265625 
Q 14.109375 46.140625 10.015625 43.890625 
L 10.015625 52.203125 
Q 14.9375 54.109375 19.578125 55.046875 
Q 24.21875 56 28.609375 56 
Q 40.484375 56 46.34375 49.84375 
Q 52.203125 43.703125 52.203125 31.203125 
z
" id="DejaVuSans-97"/>
      <path d="M 45.40625 27.984375 
Q 45.40625 37.75 41.375 43.109375 
Q 37.359375 48.484375 30.078125 48.484375 
Q 22.859375 48.484375 18.828125 43.109375 
Q 14.796875 37.75 14.796875 27.984375 
Q 14.796875 18.265625 18.828125 12.890625 
Q 22.859375 7.515625 30.078125 7.515625 
Q 37.359375 7.515625 41.375 12.890625 
Q 45.40625 18.265625 45.40625 27.984375 
z
M 54.390625 6.78125 
Q 54.390625 -7.171875 48.1875 -13.984375 
Q 42 -20.796875 29.203125 -20.796875 
Q 24.46875 -20.796875 20.265625 -20.09375 
Q 16.0625 -19.390625 12.109375 -17.921875 
L 12.109375 -9.1875 
Q 16.0625 -11.328125 19.921875 -12.34375 
Q 23.78125 -13.375 27.78125 -13.375 
Q 36.625 -13.375 41.015625 -8.765625 
Q 45.40625 -4.15625 45.40625 5.171875 
L 45.40625 9.625 
Q 42.625 4.78125 38.28125 2.390625 
Q 33.9375 0 27.875 0 
Q 17.828125 0 11.671875 7.65625 
Q 5.515625 15.328125 5.515625 27.984375 
Q 5.515625 40.671875 11.671875 48.328125 
Q 17.828125 56 27.875 56 
Q 33.9375 56 38.28125 53.609375 
Q 42.625 51.21875 45.40625 46.390625 
L 45.40625 54.6875 
L 54.390625 54.6875 
z
" id="DejaVuSans-103"/>
      <path d="M 28.609375 0 
L 0.78125 72.90625 
L 11.078125 72.90625 
L 34.1875 11.53125 
L 57.328125 72.90625 
L 67.578125 72.90625 
L 39.796875 0 
z
" id="DejaVuSans-86"/>
     </defs>
     <g transform="translate(22.453125 250.624062)rotate(-90)scale(0.1 -0.1)">
      <use xlink:href="#DejaVuSans-118"/>
      <use x="59.179688" xlink:href="#DejaVuSans-111"/>
      <use x="120.361328" xlink:href="#DejaVuSans-108"/>
      <use x="148.144531" xlink:href="#DejaVuSans-116"/>
      <use x="187.353516" xlink:href="#DejaVuSans-97"/>
      <use x="248.632812" xlink:href="#DejaVuSans-103"/>
      <use x="312.109375" xlink:href="#DejaVuSans-101"/>
      <use x="373.632812" xlink:href="#DejaVuSans-32"/>
      <use x="405.419922" xlink:href="#DejaVuSans-91"/>
      <use x="444.433594" xlink:href="#DejaVuSans-109"/>
      <use x="541.845703" xlink:href="#DejaVuSans-86"/>
      <use x="610.253906" xlink:href="#DejaVuSans-93"/>
     </g>
    </g>
   </g>
   <g id="line2d_14">
    <path clip-path="url(#p80c9a33dd7)" d="M 80.754545 262.677393 
L 83.385088 262.593503 
L 83.417364 262.509612 
L 83.465779 262.677393 
L 83.498056 262.593503 
L 83.514194 262.677393 
L 83.594885 262.593503 
L 83.723992 262.509612 
L 84.547045 262.593503 
L 84.676151 262.677393 
L 84.96664 262.593503 
L 85.095747 262.509612 
L 85.176438 262.593503 
L 85.208715 262.509612 
L 85.337821 262.593503 
L 85.35396 262.677393 
L 85.402374 262.509612 
L 85.434651 262.509612 
L 86.322257 262.593503 
L 86.451364 262.677393 
L 87.419661 262.761284 
L 87.532629 262.845175 
L 87.581044 262.761284 
L 87.645598 262.845175 
L 88.694587 262.929066 
L 88.807555 263.012957 
L 88.85597 262.929066 
L 89.049629 253.365507 
L 89.501501 244.389184 
L 90.356831 232.728354 
L 91.196022 225.094285 
L 91.470373 223.080904 
L 91.777001 220.983632 
L 92.551639 217.544107 
L 92.583916 217.460216 
L 92.793714 216.956871 
L 92.82599 216.87298 
L 93.11648 215.95018 
L 93.310139 215.866289 
L 93.503799 215.446835 
L 93.552214 215.362944 
L 93.745873 214.94349 
L 93.858841 214.859599 
L 94.020224 214.607926 
L 94.213884 214.524036 
L 94.391405 214.188472 
L 95.843851 214.104581 
L 95.989096 213.769018 
L 96.005234 213.852909 
L 96.118202 213.769018 
L 96.247309 213.685127 
L 96.553936 213.601236 
L 96.683043 213.517345 
L 96.892841 214.02069 
L 96.957394 214.104581 
L 97.167192 214.607926 
L 97.393128 214.524036 
L 97.425404 214.440145 
L 97.506096 214.524036 
L 97.845 214.440145 
L 97.990245 214.272363 
L 98.006383 214.356254 
L 98.03866 214.188472 
L 98.103213 214.272363 
L 98.264596 214.356254 
L 98.296872 214.440145 
L 98.361426 214.272363 
L 98.50667 214.356254 
L 98.538947 214.440145 
L 98.571223 214.272363 
L 98.619638 214.356254 
L 99.119925 214.272363 
L 99.26517 214.104581 
L 99.959117 214.02069 
L 100.055947 213.9368 
L 100.072085 214.02069 
L 100.1205 214.104581 
L 100.362574 215.530726 
L 100.604649 216.201853 
L 100.653063 216.285744 
L 100.733755 216.369635 
L 100.766031 216.285744 
L 100.943553 216.201853 
L 101.056521 215.95018 
L 101.088797 216.034071 
L 101.217904 215.95018 
L 101.395425 215.614617 
L 101.427702 215.698508 
L 101.508393 215.614617 
L 101.556808 215.530726 
L 101.702053 215.362944 
L 101.831159 215.279053 
L 101.960265 215.195163 
L 102.040957 215.279053 
L 102.073233 215.195163 
L 102.153925 215.111272 
L 102.331446 214.775708 
L 102.347584 214.859599 
L 102.379861 214.691817 
L 102.428276 214.775708 
L 102.589659 214.524036 
L 102.718765 214.607926 
L 102.993116 214.524036 
L 103.057669 214.272363 
L 103.122223 214.440145 
L 103.235191 214.524036 
L 103.251329 214.607926 
L 103.33202 214.440145 
L 103.348159 214.524036 
L 103.461127 214.356254 
L 103.477265 214.440145 
L 103.687063 214.356254 
L 103.816169 214.272363 
L 104.09052 214.188472 
L 104.18735 214.104581 
L 104.203488 214.188472 
L 104.38101 214.104581 
L 104.526254 213.769018 
L 104.542393 213.852909 
L 104.639222 213.769018 
L 104.687637 213.685127 
L 104.75219 213.769018 
L 104.897435 213.685127 
L 105.026541 213.601236 
L 105.236339 213.685127 
L 105.317031 213.769018 
L 105.349307 213.685127 
L 106.107807 213.601236 
L 106.123945 213.517345 
L 106.17236 213.685127 
L 106.220775 213.601236 
L 106.882445 213.685127 
L 107.011552 213.769018 
L 107.705498 213.685127 
L 107.737775 213.601236 
L 107.78619 213.769018 
L 107.802328 213.769018 
L 108.383307 213.685127 
L 108.528551 213.517345 
L 108.576966 213.433454 
L 108.706073 213.349563 
L 109.254775 213.265673 
L 109.335466 213.181782 
L 109.367743 213.265673 
L 109.690509 213.181782 
L 109.819615 213.014 
L 109.916445 213.097891 
L 109.932583 213.014 
L 110.416732 213.097891 
L 110.561977 213.265673 
L 110.691083 213.181782 
L 111.368891 213.265673 
L 111.530274 213.517345 
L 112.256498 213.601236 
L 112.321051 213.517345 
L 112.385604 213.685127 
L 112.821338 213.769018 
L 112.837476 213.852909 
L 112.869753 213.685127 
L 112.934306 213.769018 
L 113.17638 213.852909 
L 113.337763 214.104581 
L 113.434593 214.188472 
L 113.579838 214.356254 
L 113.789636 214.272363 
L 113.870327 214.188472 
L 113.902604 214.272363 
L 114.160817 214.356254 
L 114.257646 214.440145 
L 114.273785 214.356254 
L 114.386753 214.188472 
L 114.402891 214.272363 
L 114.483582 214.188472 
L 114.580412 214.02069 
L 114.612689 214.104581 
L 114.806348 214.02069 
L 114.935455 213.9368 
L 115.35505 213.852909 
L 115.484157 213.769018 
L 115.532572 213.852909 
L 115.580986 213.769018 
L 115.710093 213.685127 
L 115.839199 213.601236 
L 115.984444 213.433454 
L 116.21038 213.349563 
L 116.339486 213.265673 
L 116.484731 213.181782 
L 116.629976 213.014 
L 116.710667 212.930109 
L 116.742944 212.846218 
L 116.823635 212.930109 
L 117.017295 213.014 
L 117.033433 213.097891 
L 117.130263 213.014 
L 117.259369 213.097891 
L 117.501444 213.769018 
L 117.549858 213.852909 
L 117.743518 214.272363 
L 117.921039 214.356254 
L 118.050146 214.440145 
L 118.647263 214.356254 
L 118.776369 214.272363 
L 119.05072 214.188472 
L 119.131411 214.104581 
L 119.163688 214.188472 
L 119.518731 214.104581 
L 119.663975 213.9368 
L 119.80922 213.852909 
L 119.938326 213.769018 
L 120.002879 213.852909 
L 120.051294 213.769018 
L 120.228815 213.433454 
L 120.438613 213.349563 
L 120.56772 213.265673 
L 120.664549 213.181782 
L 120.696826 213.097891 
L 120.745241 213.265673 
L 120.761379 213.265673 
L 120.858209 213.349563 
L 120.874347 213.265673 
L 121.116422 213.349563 
L 121.261666 213.517345 
L 121.471464 213.433454 
L 121.616709 213.265673 
L 121.778092 213.181782 
L 121.939475 212.930109 
L 122.116996 212.846218 
L 122.246102 212.762327 
L 122.407485 213.014 
L 122.423624 212.930109 
L 122.520453 213.014 
L 122.697975 212.930109 
L 122.810943 212.762327 
L 122.827081 212.846218 
L 123.133709 212.930109 
L 123.278953 213.097891 
L 123.553304 213.181782 
L 123.682411 213.349563 
L 123.843794 213.097891 
L 123.924485 213.181782 
L 123.940623 213.265673 
L 124.005177 213.097891 
L 124.021315 213.097891 
L 124.360219 213.014 
L 124.489325 212.930109 
L 124.682985 213.014 
L 124.844368 213.265673 
L 125.280102 213.349563 
L 125.360793 213.517345 
L 125.39307 213.433454 
L 125.522176 213.349563 
L 125.764251 213.265673 
L 125.780389 213.181782 
L 125.877219 213.265673 
L 126.038602 213.181782 
L 126.167708 213.097891 
L 126.329091 213.014 
L 126.458197 212.930109 
L 126.587304 213.014 
L 126.651857 213.097891 
L 126.700272 213.014 
L 127.136006 212.930109 
L 127.152144 212.846218 
L 127.232836 212.930109 
L 127.248974 213.014 
L 127.297389 212.846218 
L 127.329665 212.846218 
L 127.394219 212.930109 
L 127.442633 213.097891 
L 127.507187 213.014 
L 127.636293 212.930109 
L 127.765399 213.014 
L 127.975197 212.930109 
L 128.120442 212.762327 
L 128.217272 212.678437 
L 128.346378 212.594546 
L 128.410931 212.510655 
L 128.540038 212.426764 
L 129.08874 212.342873 
L 129.137154 212.258982 
L 129.201708 212.342873 
L 129.605165 212.426764 
L 129.734271 212.510655 
L 129.831101 212.426764 
L 130.024761 212.00731 
L 130.137729 211.923419 
L 130.282973 211.755637 
L 130.525048 211.671746 
L 130.541186 211.587855 
L 130.589601 211.755637 
L 130.621878 211.671746 
L 130.670292 211.755637 
L 130.734846 211.671746 
L 131.07375 211.587855 
L 131.218995 211.420074 
L 132.477782 211.503964 
L 132.606888 211.587855 
L 132.768271 211.503964 
L 132.816686 211.420074 
L 132.881239 211.503964 
L 133.268558 211.587855 
L 133.397664 211.671746 
L 133.413803 211.671746 
L 133.559047 212.0912 
L 133.591324 212.00731 
L 133.639739 212.258982 
L 133.655877 212.175091 
L 133.768845 212.258982 
L 133.962505 212.678437 
L 133.994781 212.762327 
L 134.156164 213.097891 
L 134.285271 213.014 
L 134.430515 213.097891 
L 134.559622 213.265673 
L 134.688728 213.181782 
L 134.979217 213.097891 
L 135.108324 213.014 
L 135.33426 212.930109 
L 135.414951 212.762327 
L 135.463366 212.846218 
L 135.818409 212.762327 
L 135.834547 212.678437 
L 135.866824 212.846218 
L 135.931377 212.762327 
L 136.044345 212.678437 
L 136.060483 212.594546 
L 136.157313 212.678437 
L 136.883536 212.594546 
L 137.061057 212.258982 
L 137.174025 212.175091 
L 137.206302 212.0912 
L 137.238579 212.258982 
L 137.270855 212.258982 
L 137.367685 212.175091 
L 137.432238 212.00731 
L 137.480653 212.175091 
L 137.690451 212.0912 
L 137.835696 211.923419 
L 137.98094 212.0912 
L 138.110047 212.00731 
L 138.206876 211.755637 
L 138.255291 211.839528 
L 138.707163 211.755637 
L 138.83627 211.671746 
L 138.900823 211.755637 
L 138.949238 211.671746 
L 139.126759 211.755637 
L 139.255866 211.839528 
L 139.30428 211.755637 
L 139.368834 211.839528 
L 139.772291 211.755637 
L 139.901397 211.587855 
L 139.998227 211.671746 
L 140.014365 211.587855 
L 140.756727 211.503964 
L 140.91811 211.252292 
L 141.047216 211.168401 
L 141.127908 211.08451 
L 141.160184 211.168401 
L 141.434535 212.00731 
L 141.902546 211.923419 
L 142.031652 211.839528 
L 142.14462 211.755637 
L 142.273727 211.671746 
L 142.386695 211.755637 
L 142.515801 211.671746 
L 142.80629 211.587855 
L 142.951535 211.420074 
L 144.339429 211.503964 
L 144.468535 211.839528 
L 144.484673 211.755637 
L 144.581503 211.671746 
L 144.597641 211.755637 
L 144.678333 211.839528 
L 144.823577 212.00731 
L 145.340003 211.923419 
L 145.485247 211.755637 
L 145.64663 211.671746 
L 145.775737 211.587855 
L 146.308301 211.503964 
L 146.388992 211.336183 
L 146.437407 211.420074 
L 147.244322 211.503964 
L 147.26046 211.587855 
L 147.35729 211.503964 
L 147.550949 211.420074 
L 147.680056 211.336183 
L 147.809162 211.420074 
L 147.938268 211.336183 
L 147.970545 211.252292 
L 148.051236 211.336183 
L 148.180343 211.420074 
L 148.325587 211.587855 
L 148.374002 211.503964 
L 148.503109 211.420074 
L 148.632215 211.503964 
L 148.858151 211.420074 
L 148.890428 211.252292 
L 148.987258 211.336183 
L 149.100226 211.420074 
L 149.116364 211.503964 
L 149.164779 211.336183 
L 149.213194 211.420074 
L 149.358438 211.252292 
L 149.697343 211.336183 
L 149.826449 211.420074 
L 149.971694 211.420074 
L 150.00397 211.252292 
L 150.084662 211.336183 
L 150.407427 211.420074 
L 150.601087 211.923419 
L 150.76247 211.671746 
L 151.085236 211.755637 
L 151.149789 211.839528 
L 151.198204 211.755637 
L 151.32731 211.671746 
L 151.343449 211.755637 
L 151.375725 211.587855 
L 151.440278 211.671746 
L 151.811459 211.587855 
L 151.843736 211.503964 
L 151.924427 211.587855 
L 152.424714 211.503964 
L 152.586097 211.252292 
L 152.908863 211.168401 
L 152.94114 211.08451 
L 153.005693 211.252292 
L 153.054108 211.168401 
L 153.070246 211.08451 
L 153.150938 211.252292 
L 153.328459 211.168401 
L 153.360736 211.08451 
L 153.40915 211.168401 
L 153.60281 220.73196 
L 154.054682 229.624392 
L 154.425863 235.077298 
L 154.861597 240.278532 
L 154.990703 241.536895 
L 155.265054 244.137512 
L 155.765342 248.248164 
L 155.991278 250.009872 
L 156.314044 252.274926 
L 156.927299 256.050015 
L 157.137097 257.140596 
L 158.460437 263.432411 
L 158.492713 263.516302 
L 158.815479 264.606883 
L 158.847756 264.690774 
L 159.154383 265.697465 
L 159.18666 265.781356 
L 159.428735 266.452482 
L 159.461011 266.536373 
L 159.735362 267.375282 
L 159.816054 267.459173 
L 160.025851 267.962518 
L 160.058128 268.046409 
L 160.284064 268.633645 
L 160.348617 268.717536 
L 160.542277 269.13699 
L 160.60683 269.220881 
L 160.80049 269.724226 
L 160.816628 269.640335 
L 160.865043 269.808117 
L 160.897319 269.808117 
L 160.978011 269.892008 
L 161.139394 270.143681 
L 161.300777 270.227571 
L 161.478298 270.563135 
L 161.526713 270.479244 
L 161.591266 270.563135 
L 161.752649 270.814808 
L 161.897894 270.898698 
L 162.043138 271.06648 
L 162.091553 271.150371 
L 162.236798 271.318153 
L 162.285213 271.402044 
L 162.317489 271.485934 
L 162.398181 271.402044 
L 162.462734 271.485934 
L 162.607979 271.653716 
L 162.995298 271.737607 
L 163.124404 271.821498 
L 163.318064 271.905389 
L 163.431032 272.073171 
L 163.44717 271.98928 
L 163.527861 272.073171 
L 163.656968 272.157061 
L 163.931319 272.240952 
L 164.060425 272.324843 
L 164.544574 272.240952 
L 164.625266 272.157061 
L 164.657542 272.240952 
L 165.997021 272.157061 
L 166.126127 271.98928 
L 166.206818 272.073171 
L 166.239095 271.98928 
L 166.432755 271.905389 
L 166.577999 271.737607 
L 166.900765 271.653716 
L 167.029872 271.569825 
L 167.304223 271.485934 
L 167.465606 271.234262 
L 167.659265 271.150371 
L 167.788371 271.06648 
L 168.014308 270.982589 
L 168.175691 270.730917 
L 168.191829 270.814808 
L 168.288659 270.730917 
L 168.450042 270.647026 
L 168.56301 270.563135 
L 168.579148 270.647026 
L 168.627563 270.479244 
L 168.659839 270.479244 
L 168.837361 270.395353 
L 168.853499 270.311462 
L 168.885775 270.479244 
L 168.950329 270.395353 
L 169.12785 270.311462 
L 169.273095 270.143681 
L 169.418339 270.05979 
L 169.499031 269.975899 
L 169.611999 263.432411 
L 169.708829 263.516302 
L 169.724967 263.600193 
L 169.821797 263.516302 
L 170.951477 263.600193 
L 170.967616 263.684084 
L 171.064445 263.600193 
L 171.790669 263.684084 
L 171.822945 263.767975 
L 171.903637 263.684084 
L 172.048881 263.516302 
L 172.177988 263.600193 
L 172.387786 263.516302 
L 172.516892 263.432411 
L 173.162424 263.34852 
L 173.307668 263.180739 
L 174.518041 263.26463 
L 174.647147 263.34852 
L 175.115157 263.432411 
L 175.147434 263.516302 
L 175.228126 263.432411 
L 175.389508 263.516302 
L 175.405647 263.600193 
L 175.502477 263.516302 
L 175.615445 263.600193 
L 175.712274 263.684084 
L 175.728413 263.600193 
L 175.954349 263.684084 
L 176.083455 263.767975 
L 176.099593 263.684084 
L 176.180285 263.851866 
L 176.196423 263.767975 
L 176.664434 263.684084 
L 176.79354 263.600193 
L 176.938785 263.516302 
L 177.019476 263.600193 
L 177.067891 263.432411 
L 177.213136 263.516302 
L 177.293827 263.600193 
L 177.326104 263.516302 
L 177.616593 263.516302 
L 177.810253 251.016563 
L 178.391231 236.335661 
L 179.149731 222.829231 
L 179.82754 213.9368 
L 180.39238 209.15502 
L 180.924944 206.973858 
L 180.95722 206.889967 
L 181.15088 206.470512 
L 181.312263 206.386621 
L 181.522061 205.883276 
L 181.538199 205.883276 
L 181.683444 205.463822 
L 181.764135 205.379931 
L 181.90938 205.212149 
L 182.328975 205.128258 
L 182.522635 204.708804 
L 182.66788 204.624913 
L 182.861539 204.205459 
L 182.926092 204.28935 
L 182.974507 204.373241 
L 183.03906 204.28935 
L 183.103614 204.205459 
L 183.264997 203.953786 
L 183.313411 203.869895 
L 183.539348 203.282659 
L 183.620039 203.198769 
L 183.829837 202.695423 
L 183.89439 202.611532 
L 184.184879 201.688733 
L 184.233294 201.772624 
L 184.297847 201.688733 
L 184.539922 201.017606 
L 184.814273 200.933715 
L 184.927241 200.43037 
L 184.991794 200.598152 
L 185.072486 200.514261 
L 185.250007 199.927025 
L 185.282283 200.010916 
L 185.346837 199.927025 
L 185.669602 198.836443 
L 185.718017 198.752553 
L 186.411964 194.558009 
L 186.428102 194.054664 
L 186.444241 188.85343 
L 186.492656 74.845742 
L 186.573347 134.492148 
L 186.73473 202.275969 
L 186.944528 204.457132 
L 188.05807 215.027381 
L 188.074208 215.027381 
L 188.25173 215.782399 
L 188.477666 216.369635 
L 188.526081 216.453526 
L 188.752017 217.040762 
L 188.800432 217.124652 
L 188.961815 217.376325 
L 189.026368 217.292434 
L 189.058644 217.376325 
L 189.187751 217.460216 
L 189.720315 217.376325 
L 189.865559 217.208543 
L 190.091495 217.124652 
L 190.23674 216.956871 
L 190.285155 216.87298 
L 190.414261 216.705198 
L 190.4304 216.789089 
L 190.494953 216.621307 
L 190.511091 216.621307 
L 190.591783 216.537416 
L 190.720889 216.453526 
L 190.89841 216.369635 
L 191.027516 216.285744 
L 191.140485 216.201853 
L 191.301868 215.95018 
L 191.46325 215.866289 
L 191.640772 215.530726 
L 192.205612 215.446835 
L 192.366995 215.195163 
L 192.463825 215.111272 
L 192.625208 214.775708 
L 192.754314 214.859599 
L 192.835006 214.775708 
L 192.899559 214.691817 
L 192.947974 214.775708 
L 193.238463 214.691817 
L 193.383708 214.524036 
L 193.512814 214.440145 
L 193.658059 214.272363 
L 193.787165 214.356254 
L 193.964686 214.02069 
L 194.013101 214.104581 
L 194.061516 213.9368 
L 194.448835 213.852909 
L 194.59408 213.685127 
L 194.723186 213.601236 
L 194.900707 213.265673 
L 194.981399 213.181782 
L 195.126643 213.014 
L 195.271888 212.930109 
L 195.35258 212.762327 
L 195.400994 212.846218 
L 195.465548 212.762327 
L 195.610792 212.594546 
L 195.885143 212.510655 
L 196.01425 212.426764 
L 196.094941 212.342873 
L 196.256324 212.00731 
L 196.353154 212.0912 
L 196.369292 212.00731 
L 196.708196 211.923419 
L 196.837303 211.839528 
L 196.950271 211.923419 
L 196.982547 211.839528 
L 197.063239 211.923419 
L 197.14393 211.839528 
L 197.160069 211.755637 
L 197.224622 211.923419 
L 197.24076 211.923419 
L 197.402143 212.00731 
L 197.579664 212.510655 
L 197.595803 212.426764 
L 197.644218 212.510655 
L 197.821739 212.846218 
L 197.854015 212.762327 
L 197.934707 212.846218 
L 197.966983 212.930109 
L 198.112228 213.097891 
L 198.467271 213.014 
L 198.483409 212.930109 
L 198.580239 213.014 
L 198.644792 212.930109 
L 198.822313 212.594546 
L 199.032111 212.510655 
L 199.209632 212.175091 
L 199.241909 212.258982 
L 199.306462 212.0912 
L 199.500121 211.671746 
L 199.629228 211.755637 
L 199.790611 211.671746 
L 199.951994 211.420074 
L 200.032685 211.336183 
L 200.161792 211.252292 
L 200.532972 211.168401 
L 200.662079 210.916728 
L 200.678217 211.000619 
L 200.807323 210.916728 
L 200.968706 210.665056 
L 201.065536 210.581165 
L 201.226919 210.329492 
L 201.372164 210.245601 
L 201.50127 210.16171 
L 201.646515 210.07782 
L 201.807898 209.826147 
L 201.856313 209.910038 
L 201.985419 209.993929 
L 202.146802 209.742256 
L 202.275908 209.826147 
L 202.3566 209.742256 
L 202.517983 209.490584 
L 202.582536 209.406693 
L 202.727781 209.15502 
L 202.743919 209.238911 
L 202.776195 209.071129 
L 202.82461 209.071129 
L 203.034408 208.987238 
L 203.179653 208.819457 
L 203.550834 208.903347 
L 203.67994 208.987238 
L 203.77677 209.071129 
L 203.905876 209.15502 
L 204.632099 209.071129 
L 204.777344 208.903347 
L 204.858035 208.819457 
L 204.987142 208.735566 
L 205.116248 208.903347 
L 205.164663 208.819457 
L 205.19694 208.987238 
L 205.229216 208.903347 
L 205.358323 209.15502 
L 205.374461 209.071129 
L 206.052269 209.15502 
L 206.213652 209.406693 
L 206.455727 209.490584 
L 206.61711 209.742256 
L 206.762354 209.826147 
L 206.907599 209.993929 
L 207.343333 209.910038 
L 207.359471 209.826147 
L 207.456301 209.910038 
L 207.472439 209.993929 
L 207.569269 209.910038 
L 207.666099 209.993929 
L 207.682237 210.07782 
L 207.779067 209.993929 
L 208.021141 209.910038 
L 208.182524 209.658365 
L 208.230939 209.574474 
L 208.40846 209.238911 
L 208.60212 209.15502 
L 208.731226 209.071129 
L 208.989439 208.987238 
L 209.118545 208.903347 
L 209.215375 208.819457 
L 209.36062 208.651675 
L 209.538141 208.567784 
L 209.731801 208.14833 
L 210.038428 208.064439 
L 210.183673 207.896657 
L 210.232088 207.980548 
L 210.393471 208.232221 
L 211.055141 208.14833 
L 211.232662 207.812766 
L 211.297215 207.896657 
L 211.329492 207.812766 
L 211.474737 207.644984 
L 211.652258 207.561094 
L 211.749088 207.477203 
L 211.765226 207.561094 
L 211.813641 207.477203 
L 211.958885 207.309421 
L 212.023439 207.22553 
L 212.039577 207.141639 
L 212.087992 207.309421 
L 212.120268 207.309421 
L 212.217098 207.393312 
L 212.362343 207.561094 
L 212.410758 207.477203 
L 212.475311 207.309421 
L 212.523726 207.477203 
L 212.588279 207.393312 
L 212.636694 207.309421 
L 212.685109 207.393312 
L 212.86263 207.728875 
L 213.185396 207.644984 
L 213.217672 207.561094 
L 213.266087 207.728875 
L 213.282226 207.728875 
L 213.556577 207.644984 
L 213.653406 207.561094 
L 213.669545 207.644984 
L 213.814789 207.561094 
L 214.008449 207.141639 
L 214.056864 207.057748 
L 214.073002 206.973858 
L 214.169832 207.057748 
L 214.2828 206.973858 
L 214.411906 206.889967 
L 214.589427 206.806076 
L 214.734672 206.638294 
L 214.84764 206.722185 
L 214.879917 206.806076 
L 214.928332 206.638294 
L 214.94447 206.638294 
L 215.202683 206.554403 
L 215.331789 206.470512 
L 215.460895 206.554403 
L 215.751385 206.638294 
L 215.767523 206.722185 
L 215.864353 206.638294 
L 216.058012 206.21884 
L 216.138704 206.134949 
L 216.300087 205.799385 
L 216.380778 205.883276 
L 216.413055 205.799385 
L 216.542161 205.715495 
L 216.687406 205.547713 
L 216.92948 205.463822 
L 216.977895 205.379931 
L 217.02631 205.463822 
L 217.042448 205.547713 
L 217.139278 205.463822 
L 217.704118 205.547713 
L 217.833225 205.631604 
L 217.849363 205.547713 
L 217.946193 205.631604 
L 218.204406 205.631604 
L 218.34965 206.051058 
L 218.656278 205.967167 
L 218.785384 205.883276 
L 218.962905 205.967167 
L 219.027459 205.883276 
L 219.075874 206.051058 
L 219.20498 205.967167 
L 219.414778 206.051058 
L 219.576161 206.302731 
L 219.915065 206.386621 
L 220.157139 207.057748 
L 220.270107 207.141639 
L 220.350799 207.309421 
L 220.399214 207.22553 
L 220.496044 207.141639 
L 220.62515 207.057748 
L 220.818809 207.141639 
L 220.834948 207.22553 
L 220.931777 207.141639 
L 221.125437 207.057748 
L 221.254543 206.973858 
L 221.319097 206.889967 
L 221.464341 206.722185 
L 221.722554 206.638294 
L 221.867799 206.470512 
L 221.900075 206.470512 
L 222.029182 206.134949 
L 222.077596 206.051058 
L 222.158288 205.799385 
L 222.222841 205.883276 
L 222.739267 205.799385 
L 222.900649 205.547713 
L 223.013618 205.463822 
L 223.158862 205.212149 
L 223.175001 205.29604 
L 223.239554 205.128258 
L 223.255692 205.212149 
L 223.449352 204.792695 
L 223.626873 204.708804 
L 223.852809 204.121568 
L 223.981915 204.037677 
L 224.046468 203.869895 
L 224.094883 203.953786 
L 224.272405 204.28935 
L 224.320819 204.205459 
L 224.385373 204.121568 
L 224.433788 204.205459 
L 224.514479 204.373241 
L 224.562894 204.28935 
L 224.692 204.373241 
L 224.853383 204.624913 
L 225.127734 204.541022 
L 225.256841 204.457132 
L 225.289117 204.541022 
L 225.305255 204.624913 
L 225.35367 204.457132 
L 225.385947 204.457132 
L 225.54733 204.541022 
L 225.692575 204.708804 
L 225.740989 204.624913 
L 225.886234 204.457132 
L 226.063755 204.373241 
L 226.338106 203.534332 
L 226.547904 203.618223 
L 226.580181 203.702114 
L 226.628596 203.534332 
L 226.644734 203.534332 
L 226.725425 203.450441 
L 226.87067 203.282659 
L 226.886808 203.36655 
L 226.9675 203.198769 
L 226.983638 203.282659 
L 227.06433 203.36655 
L 227.096606 203.450441 
L 227.161159 203.282659 
L 227.403234 203.282659 
L 227.53234 202.947096 
L 227.661447 202.863205 
L 227.677585 202.779314 
L 227.758276 202.863205 
L 227.855106 203.030987 
L 227.887383 202.947096 
L 228.048766 202.863205 
L 228.097181 202.779314 
L 228.161734 202.863205 
L 228.419946 202.779314 
L 228.597468 202.443751 
L 228.823404 202.35986 
L 228.871819 202.192078 
L 228.936372 202.35986 
L 229.081617 202.275969 
L 229.259138 201.940405 
L 229.307553 201.856515 
L 229.468936 201.604842 
L 229.630319 201.688733 
L 229.646457 201.772624 
L 229.71101 201.604842 
L 229.727148 201.604842 
L 230.082191 201.520951 
L 230.098329 201.43706 
L 230.162882 201.604842 
L 230.179021 201.604842 
L 230.905244 201.520951 
L 231.195733 200.598152 
L 231.22801 200.514261 
L 231.421669 200.094806 
L 231.453946 200.010916 
L 231.954233 197.997535 
L 231.970371 198.081426 
L 232.034925 197.829753 
L 232.164031 195.984154 
L 232.180169 192.880192 
L 232.244722 73.922942 
L 232.309276 129.626478 
L 232.470659 201.353169 
L 232.535212 202.024296 
L 232.599765 201.856515 
L 232.74501 201.604842 
L 233.051637 203.786005 
L 233.551924 207.980548 
L 233.584201 208.064439 
L 233.826275 209.490584 
L 234.520222 212.510655 
L 234.584775 212.594546 
L 234.794573 213.097891 
L 234.842988 213.181782 
L 235.036647 213.601236 
L 235.101201 213.685127 
L 235.262584 213.9368 
L 235.359413 214.02069 
L 235.520796 214.272363 
L 235.601488 214.356254 
L 235.746732 214.524036 
L 235.908115 214.607926 
L 236.037222 214.691817 
L 236.117913 214.775708 
L 236.263158 215.027381 
L 236.279296 214.94349 
L 236.359988 215.111272 
L 236.521371 215.362944 
L 236.876413 215.279053 
L 237.005519 215.111272 
L 237.070073 215.279053 
L 237.118488 215.195163 
L 237.247594 215.111272 
L 237.392839 215.027381 
L 237.538083 214.859599 
L 237.57036 214.94349 
L 237.634913 214.859599 
L 237.812434 214.524036 
L 237.860849 214.440145 
L 238.006094 214.272363 
L 238.167477 214.188472 
L 238.312721 214.02069 
L 238.474104 213.9368 
L 238.619349 213.769018 
L 238.829147 213.685127 
L 238.974392 213.517345 
L 239.103498 213.433454 
L 239.264881 213.181782 
L 239.329434 213.097891 
L 239.490817 212.846218 
L 239.732891 212.762327 
L 239.861998 212.678437 
L 240.152487 212.594546 
L 240.281593 212.510655 
L 240.378423 212.594546 
L 240.394561 212.510655 
L 240.572083 212.426764 
L 240.701189 212.342873 
L 240.959402 212.258982 
L 241.104646 212.0912 
L 241.459689 212.00731 
L 241.604934 211.839528 
L 241.717902 211.755637 
L 241.879285 211.503964 
L 242.169774 211.503964 
L 242.363433 223.752031 
L 242.799167 233.902826 
L 243.234901 240.697986 
L 243.654497 245.647547 
L 243.783603 246.90591 
L 244.396859 252.191035 
L 244.638933 254.036634 
L 244.961699 256.301688 
L 246.494837 263.684084 
L 246.55939 263.767975 
L 246.946709 265.194119 
L 246.978986 265.27801 
L 247.237199 266.033028 
L 247.269475 266.116919 
L 247.527688 266.871937 
L 247.592241 266.955828 
L 247.834316 267.626955 
L 247.850454 267.626955 
L 247.995699 268.1303 
L 248.011837 268.046409 
L 248.060252 268.214191 
L 248.092528 268.214191 
L 248.302326 268.717536 
L 248.366879 268.801427 
L 248.576677 269.304772 
L 248.657369 269.388663 
L 248.83489 269.724226 
L 248.996273 269.808117 
L 249.173794 270.143681 
L 249.238347 270.227571 
L 249.383592 270.395353 
L 249.544975 270.479244 
L 249.706358 270.730917 
L 249.819326 270.814808 
L 249.980709 271.06648 
L 250.303475 271.150371 
L 250.416443 271.318153 
L 250.432581 271.234262 
L 250.513273 271.318153 
L 250.610102 271.485934 
L 250.642379 271.402044 
L 250.884453 271.485934 
L 251.01356 271.569825 
L 251.255634 271.653716 
L 251.271772 271.737607 
L 251.352464 271.569825 
L 251.497709 271.653716 
L 251.626815 271.737607 
L 252.43373 271.653716 
L 252.562836 271.485934 
L 252.691942 271.653716 
L 252.837187 271.485934 
L 252.934017 271.402044 
L 252.99857 271.318153 
L 253.046985 271.402044 
L 253.611825 271.318153 
L 253.75707 271.150371 
L 254.273495 271.06648 
L 254.41874 270.898698 
L 254.499431 270.982589 
L 254.531708 270.898698 
L 254.773783 270.814808 
L 254.789921 270.730917 
L 254.838336 270.898698 
L 254.886751 270.814808 
L 255.354761 270.730917 
L 255.483867 270.647026 
L 255.709804 270.563135 
L 255.83891 270.479244 
L 256.000293 270.395353 
L 256.129399 270.227571 
L 256.258506 270.311462 
L 256.387612 270.227571 
L 256.50058 270.143681 
L 256.645825 269.975899 
L 256.968591 269.892008 
L 257.097697 269.808117 
L 257.129974 269.724226 
L 257.275218 269.556445 
L 257.517293 269.472554 
L 257.646399 269.388663 
L 258.01758 269.304772 
L 258.146686 269.13699 
L 258.162824 269.220881 
L 258.259654 269.13699 
L 258.372622 264.27132 
L 259.647548 264.355211 
L 259.679824 264.439102 
L 259.760516 264.355211 
L 260.244665 264.27132 
L 260.276941 264.103538 
L 260.357633 264.27132 
L 261.42276 264.355211 
L 261.471175 264.439102 
L 261.51959 264.27132 
L 261.535728 264.355211 
L 262.616994 264.27132 
L 262.649271 264.187429 
L 262.729962 264.27132 
L 263.230249 264.355211 
L 263.359356 264.439102 
L 264.392206 264.522993 
L 264.521313 264.606883 
L 266.377217 264.606883 
L 266.570876 245.815329 
L 267.151855 223.752031 
L 268.265397 197.661971 
L 268.507472 194.893573 
L 268.846376 188.937321 
L 268.910929 73.587379 
L 268.991621 147.075778 
L 269.153004 202.108187 
L 269.18528 202.35986 
L 269.233695 202.024296 
L 269.395078 201.353169 
L 269.653291 202.108187 
L 269.75012 202.192078 
L 269.959918 202.695423 
L 270.072886 202.779314 
L 270.153578 202.947096 
L 270.201993 202.863205 
L 270.282684 202.947096 
L 270.395652 203.114878 
L 270.411791 203.030987 
L 270.573173 202.947096 
L 270.621588 202.863205 
L 270.653865 202.947096 
L 270.782971 203.198769 
L 270.79911 203.282659 
L 270.879801 203.198769 
L 271.025046 203.030987 
L 271.154152 203.114878 
L 271.218705 203.282659 
L 271.26712 203.198769 
L 271.428503 202.863205 
L 271.444641 202.947096 
L 271.525333 202.863205 
L 271.670578 202.695423 
L 271.735131 202.611532 
L 271.944929 202.108187 
L 272.02562 202.024296 
L 272.283833 201.185388 
L 272.299971 201.269279 
L 272.396801 201.185388 
L 272.445216 201.185388 
L 272.59046 200.765933 
L 272.832535 200.094806 
L 272.88095 200.010916 
L 273.139162 199.255898 
L 273.332822 199.339789 
L 273.510343 199.675352 
L 273.558758 199.759243 
L 273.704003 199.927025 
L 273.800833 200.010916 
L 273.865386 200.094806 
L 273.897662 199.927025 
L 273.913801 200.010916 
L 274.059045 199.591461 
L 274.220428 199.339789 
L 274.268843 199.255898 
L 274.543194 198.165316 
L 274.575471 198.249207 
L 274.86596 198.165316 
L 274.946651 197.997535 
L 274.96279 198.081426 
L 275.043481 198.165316 
L 275.075758 198.081426 
L 275.172588 197.997535 
L 275.366247 197.57808 
L 275.495354 197.49419 
L 275.753566 196.57139 
L 275.769705 196.655281 
L 275.834258 196.57139 
L 276.076332 195.900263 
L 276.140885 196.068045 
L 276.173162 195.900263 
L 276.544343 194.474118 
L 276.560481 194.558009 
L 276.608896 194.222446 
L 276.689587 194.138555 
L 277.060768 191.621829 
L 277.286704 188.517867 
L 277.351257 70.986762 
L 277.431949 134.576039 
L 277.593332 199.004225 
L 277.754715 200.262588 
L 278.255002 203.450441 
L 278.480938 204.708804 
L 278.868257 206.302731 
L 278.884396 206.21884 
L 278.916672 206.302731 
L 279.094193 206.638294 
L 279.158747 206.722185 
L 279.336268 207.057748 
L 279.69131 206.973858 
L 279.852693 206.722185 
L 280.014076 206.638294 
L 280.240012 206.051058 
L 280.54664 205.967167 
L 280.675746 205.883276 
L 280.804853 205.799385 
L 280.820991 205.715495 
L 280.885544 205.883276 
L 280.917821 205.799385 
L 281.079204 205.715495 
L 281.20831 205.631604 
L 281.563353 205.547713 
L 281.708597 205.29604 
L 281.837704 205.379931 
L 282.031363 205.29604 
L 282.160469 205.212149 
L 282.225023 205.29604 
L 282.257299 205.128258 
L 282.273438 205.212149 
L 282.418682 205.044368 
L 282.483235 204.960477 
L 282.644618 204.708804 
L 282.693033 204.792695 
L 282.773725 204.876586 
L 282.806001 204.792695 
L 282.951246 204.708804 
L 283.128767 204.373241 
L 283.499948 204.28935 
L 283.645193 204.121568 
L 283.903405 204.037677 
L 284.097065 203.618223 
L 284.161618 203.534332 
L 284.306863 203.198769 
L 284.323001 203.282659 
L 284.371416 203.198769 
L 284.548937 202.863205 
L 284.597352 202.779314 
L 284.758735 202.35986 
L 284.774873 202.443751 
L 284.871703 202.35986 
L 285.033086 202.108187 
L 285.065363 202.024296 
L 285.27516 201.520951 
L 285.307437 201.43706 
L 285.452682 201.269279 
L 285.484958 201.185388 
L 285.662479 200.765933 
L 285.678618 200.849824 
L 285.743171 200.682042 
L 285.759309 200.682042 
L 285.823862 200.598152 
L 286.001384 200.262588 
L 286.082075 200.346479 
L 286.114352 200.262588 
L 286.146628 200.178697 
L 286.308011 199.843134 
L 286.453256 200.010916 
L 286.517809 199.927025 
L 286.550086 199.843134 
L 286.614639 200.010916 
L 286.630777 199.927025 
L 286.969681 199.843134 
L 287.001958 199.759243 
L 287.082649 199.843134 
L 287.486107 199.759243 
L 287.631352 199.591461 
L 287.776596 199.50757 
L 288.083224 198.50088 
L 288.341436 198.416989 
L 288.486681 198.081426 
L 288.502819 198.165316 
L 288.535096 198.249207 
L 288.567373 198.333098 
L 288.631926 198.165316 
L 288.728756 198.081426 
L 288.954692 197.49419 
L 289.003107 197.57808 
L 289.16449 197.913644 
L 289.212904 197.829753 
L 289.261319 197.997535 
L 289.600224 197.913644 
L 289.745468 197.410299 
L 289.793883 197.326408 
L 289.922989 197.242517 
L 289.987543 197.158626 
L 290.342585 195.816372 
L 290.358723 195.900263 
L 290.391 195.732481 
L 290.455553 195.816372 
L 290.568521 195.64859 
L 290.58466 195.732481 
L 290.681489 195.64859 
L 290.859011 195.313027 
L 290.907425 195.229136 
L 291.068808 194.977464 
L 291.133362 194.893573 
L 291.375436 194.222446 
L 291.423851 194.138555 
L 292.053244 190.363466 
L 292.101659 187.427285 
L 292.166212 71.322325 
L 292.230766 122.495754 
L 292.408287 198.416989 
L 292.553532 199.088116 
L 292.634223 199.172007 
L 293.392723 202.527642 
L 293.424999 202.611532 
L 293.812319 204.037677 
L 293.876872 204.121568 
L 294.118946 204.792695 
L 294.248053 204.876586 
L 294.377159 205.044368 
L 294.506265 204.960477 
L 294.667648 205.044368 
L 294.829031 205.29604 
L 294.877446 205.379931 
L 295.006552 205.463822 
L 295.11952 205.547713 
L 295.21635 205.631604 
L 295.232489 205.547713 
L 295.490701 205.463822 
L 295.652084 205.212149 
L 295.700499 205.128258 
L 295.87802 204.792695 
L 295.990988 204.708804 
L 296.152371 204.457132 
L 296.216925 204.373241 
L 296.394446 204.037677 
L 296.555829 203.953786 
L 296.571967 203.869895 
L 296.652659 203.953786 
L 296.862456 204.457132 
L 297.29819 204.373241 
L 297.475712 204.037677 
L 297.669371 203.953786 
L 297.879169 203.450441 
L 297.911446 203.36655 
L 298.072828 203.114878 
L 298.121243 203.030987 
L 298.282626 202.779314 
L 298.34718 202.695423 
L 298.556977 202.192078 
L 298.686084 202.108187 
L 298.976573 201.185388 
L 299.057265 201.101497 
L 299.299339 200.43037 
L 299.912594 200.346479 
L 300.090115 200.010916 
L 300.380605 199.927025 
L 300.509711 199.843134 
L 300.606541 199.759243 
L 300.703371 199.675352 
L 300.719509 199.759243 
L 300.8002 199.675352 
L 300.913168 199.591461 
L 300.945445 199.675352 
L 300.977722 199.50757 
L 301.009998 199.50757 
L 301.042275 199.50757 
L 301.171381 199.172007 
L 301.268211 199.088116 
L 301.413456 198.920334 
L 301.478009 199.004225 
L 301.510285 198.920334 
L 301.639392 198.752553 
L 301.703945 198.920334 
L 301.768498 198.836443 
L 301.816913 198.920334 
L 301.946019 199.004225 
L 302.139679 199.088116 
L 302.284924 199.339789 
L 302.397892 199.255898 
L 302.51086 199.339789 
L 302.672243 198.920334 
L 302.688381 199.004225 
L 302.849764 198.920334 
L 303.043423 198.50088 
L 303.091838 198.416989 
L 303.285498 197.997535 
L 303.333913 197.913644 
L 303.511434 197.57808 
L 303.608264 197.49419 
L 303.769647 197.242517 
L 303.963306 197.158626 
L 304.092413 196.823063 
L 304.156966 196.739172 
L 304.30221 196.403608 
L 304.318349 196.487499 
L 304.479732 196.403608 
L 304.608838 196.068045 
L 304.641115 196.151936 
L 304.721806 196.151936 
L 304.818636 195.816372 
L 304.850912 195.900263 
L 304.899327 195.900263 
L 305.06071 195.145245 
L 305.109125 195.229136 
L 305.141402 194.977464 
L 305.15754 195.061354 
L 305.189817 194.977464 
L 305.399615 194.474118 
L 305.464168 194.390227 
L 305.81921 193.131864 
L 305.835348 193.131864 
L 306.093561 191.454047 
L 306.125838 191.370156 
L 306.335636 188.517867 
L 306.351774 187.511176 
L 306.416327 71.741779 
L 306.497019 134.827712 
L 306.658402 197.997535 
L 306.739093 198.668662 
L 306.787508 198.50088 
L 306.965029 198.165316 
L 307.207104 198.249207 
L 307.836497 200.933715 
L 307.868774 201.017606 
L 308.062433 201.43706 
L 308.110848 201.520951 
L 308.304508 202.443751 
L 308.482029 202.779314 
L 308.788657 202.695423 
L 308.885486 202.611532 
L 308.901625 202.695423 
L 309.095284 202.779314 
L 309.22439 202.947096 
L 309.353497 202.863205 
L 309.466465 202.947096 
L 309.579433 203.030987 
L 309.740816 202.779314 
L 310.111997 202.863205 
L 310.257241 203.030987 
L 310.434763 202.947096 
L 310.596146 202.695423 
L 310.967326 202.611532 
L 311.112571 202.443751 
L 311.160986 202.35986 
L 311.419199 201.604842 
L 311.548305 201.520951 
L 311.725826 201.185388 
L 311.919486 201.101497 
L 312.048592 201.017606 
L 312.306805 200.933715 
L 312.484326 200.598152 
L 312.532741 200.514261 
L 312.710262 200.178697 
L 312.903922 200.094806 
L 313.065305 199.843134 
L 313.178273 199.759243 
L 313.323517 199.591461 
L 313.67856 199.50757 
L 313.743113 199.591461 
L 313.856081 199.172007 
L 314.162709 199.088116 
L 314.275677 199.004225 
L 314.404783 199.088116 
L 314.646858 198.416989 
L 314.743687 198.333098 
L 314.856655 198.081426 
L 314.888932 198.165316 
L 314.985762 198.081426 
L 315.19556 197.57808 
L 315.260113 197.49419 
L 315.437634 197.158626 
L 315.631294 197.074735 
L 315.776538 196.906953 
L 315.905645 196.823063 
L 315.937921 196.739172 
L 315.986336 196.906953 
L 316.228411 198.416989 
L 316.260687 198.50088 
L 316.42207 199.088116 
L 316.631868 199.675352 
L 316.777113 199.50757 
L 317.116017 199.423679 
L 317.2774 199.172007 
L 317.422644 199.339789 
L 317.713134 199.255898 
L 317.84224 199.172007 
L 317.874517 199.088116 
L 318.229559 197.829753 
L 318.310251 197.745862 
L 318.826676 195.64859 
L 318.891229 195.5647 
L 319.213995 194.474118 
L 319.310825 194.474118 
L 319.472208 193.886882 
L 319.633591 192.544628 
L 319.859527 189.105103 
L 319.891804 132.646549 
L 319.92408 72.832361 
L 319.988633 112.512741 
L 320.166155 195.984154 
L 320.246846 196.739172 
L 320.295261 196.487499 
L 320.359814 196.57139 
L 320.569612 197.074735 
L 320.58575 196.990844 
L 320.618027 197.158626 
L 320.666442 197.158626 
L 320.843963 197.49419 
L 320.892378 197.57808 
L 321.311974 199.172007 
L 321.360388 199.255898 
L 321.554048 199.675352 
L 321.699293 199.759243 
L 321.844537 199.927025 
L 321.941367 200.010916 
L 322.118888 200.346479 
L 322.29641 200.43037 
L 322.441654 200.682042 
L 322.473931 200.598152 
L 322.538484 200.682042 
L 322.699867 200.933715 
L 322.716005 200.849824 
L 322.780558 201.017606 
L 323.022633 201.688733 
L 323.652026 201.604842 
L 323.764994 201.43706 
L 323.781133 201.520951 
L 323.877963 201.43706 
L 324.023207 201.101497 
L 324.039345 201.185388 
L 324.152314 201.101497 
L 324.168452 201.017606 
L 324.233005 201.269279 
L 324.249143 201.185388 
L 324.265282 201.269279 
L 324.329835 201.101497 
L 324.345973 201.101497 
L 324.475079 201.017606 
L 324.701016 201.101497 
L 324.830122 201.269279 
L 324.894675 201.185388 
L 324.94309 201.269279 
L 325.685452 201.185388 
L 325.846835 200.933715 
L 325.911388 200.849824 
L 326.040494 200.765933 
L 326.185739 200.682042 
L 326.379398 200.262588 
L 326.395537 200.262588 
L 326.540781 199.843134 
L 326.589196 199.759243 
L 326.798994 199.255898 
L 326.9281 199.172007 
L 327.073345 198.920334 
L 327.089483 199.004225 
L 327.12176 198.836443 
L 327.154036 198.836443 
L 327.299281 198.668662 
L 327.412249 198.752553 
L 327.525217 198.668662 
L 327.573632 198.752553 
L 327.605909 198.584771 
L 327.622047 198.668662 
L 327.751153 198.584771 
L 327.78343 198.50088 
L 327.960951 198.165316 
L 328.186887 198.081426 
L 328.428962 197.410299 
L 328.493515 197.410299 
L 328.622621 196.906953 
L 328.63876 196.990844 
L 328.961525 197.074735 
L 328.977664 197.158626 
L 329.00994 196.990844 
L 329.058355 196.990844 
L 329.187462 196.906953 
L 329.252015 196.823063 
L 329.461813 196.319717 
L 329.558642 196.235827 
L 329.687749 196.151936 
L 329.800717 196.235827 
L 329.9621 195.732481 
L 329.978238 195.816372 
L 330.091206 196.151936 
L 330.123483 195.984154 
L 330.204174 195.900263 
L 330.397834 195.396918 
L 330.43011 195.480809 
L 330.478525 195.313027 
L 330.494664 195.313027 
L 330.688323 195.313027 
L 330.833568 194.893573 
L 330.930398 194.893573 
L 331.124057 214.104581 
L 331.495238 227.694902 
L 332.076216 239.942968 
L 332.786301 249.338746 
L 333.528663 255.966124 
L 335.158631 263.851866 
L 335.174769 263.851866 
L 335.336152 264.522993 
L 335.35229 264.522993 
L 335.529812 265.27801 
L 335.997822 267.123609 
L 336.046237 267.2075 
L 336.272173 267.794736 
L 336.30445 267.878627 
L 336.530386 268.465863 
L 336.675631 268.549754 
L 336.86929 268.969208 
L 336.917705 269.053099 
L 337.079088 269.472554 
L 337.095226 269.388663 
L 337.111365 269.388663 
L 337.256609 269.808117 
L 337.337301 269.892008 
L 337.53096 270.311462 
L 337.660067 270.395353 
L 337.853726 270.814808 
L 338.015109 270.898698 
L 338.19263 271.234262 
L 338.321737 271.318153 
L 338.466981 271.485934 
L 338.579949 271.569825 
L 338.709056 271.653716 
L 339.306173 271.569825 
L 339.386864 271.485934 
L 339.419141 271.569825 
L 340.758619 271.485934 
L 340.920002 271.234262 
L 341.065247 271.150371 
L 341.22663 270.898698 
L 341.371874 270.814808 
L 341.517119 270.647026 
L 341.662364 270.563135 
L 341.69464 270.479244 
L 341.775332 270.563135 
L 341.936715 270.479244 
L 342.065821 270.395353 
L 342.194928 270.479244 
L 342.630662 270.395353 
L 342.6468 270.311462 
L 342.679076 270.479244 
L 342.74363 270.395353 
L 343.11481 270.311462 
L 343.163225 270.227571 
L 343.227778 270.311462 
L 343.760342 270.227571 
L 343.792619 270.143681 
L 343.87331 270.227571 
L 343.97014 270.143681 
L 344.050831 270.05979 
L 344.083108 270.143681 
L 344.228353 270.05979 
L 344.357459 269.975899 
L 344.680225 269.892008 
L 344.696363 269.808117 
L 344.793193 269.892008 
L 344.922299 269.808117 
L 345.051406 269.724226 
L 345.083682 269.808117 
L 345.164374 269.724226 
L 345.600108 269.640335 
L 345.616246 269.556445 
L 345.713076 269.640335 
L 345.793767 269.556445 
L 345.922874 269.472554 
L 346.068118 269.388663 
L 346.181086 269.220881 
L 346.197225 269.304772 
L 346.261778 269.220881 
L 346.390884 269.13699 
L 346.568406 269.053099 
L 346.584544 268.969208 
L 346.681374 269.053099 
L 346.971863 268.969208 
L 347.117108 268.801427 
L 347.940161 268.885318 
L 347.972437 268.969208 
L 348.053129 268.885318 
L 349.666958 268.969208 
L 349.683097 269.053099 
L 349.779926 268.969208 
L 351.16782 269.053099 
L 351.264649 269.13699 
L 351.280788 269.053099 
L 353.362628 268.969208 
L 353.394904 268.885318 
L 353.443319 269.053099 
L 353.475596 268.969208 
L 354.702106 268.885318 
L 354.815074 268.801427 
L 354.831213 268.885318 
L 354.879628 268.717536 
L 354.928042 268.801427 
L 355.024872 268.717536 
L 355.041011 268.801427 
L 355.121702 268.801427 
L 355.13784 268.633645 
L 355.3315 231.805554 
L 355.79951 194.474118 
L 355.89634 180.632125 
L 355.944755 68.88949 
L 356.009308 124.760808 
L 356.154553 192.796301 
L 356.170691 192.628519 
L 356.364351 186.336704 
L 356.800085 175.011437 
L 356.864638 71.406216 
L 356.945329 123.586335 
L 357.122851 186.336704 
L 357.284234 187.84674 
L 357.494031 188.350085 
L 357.542446 188.266194 
L 357.590861 188.350085 
L 357.703829 188.685648 
L 357.719968 188.601758 
L 357.865212 188.517867 
L 358.187978 187.427285 
L 358.236393 187.343395 
L 358.768957 183.98776 
L 359.043308 180.044889 
L 359.172414 174.172528 
L 359.236967 68.050581 
L 359.30152 110.163797 
L 359.49518 186.588377 
L 359.672701 189.021212 
L 359.898637 189.77623 
L 359.914776 189.692339 
L 360.092297 189.77623 
L 360.140712 189.860121 
L 360.172988 189.692339 
L 360.189127 189.692339 
L 360.25368 189.608448 
L 360.528031 188.769539 
L 360.640999 188.685648 
L 360.834658 188.014522 
L 360.866935 188.098412 
L 360.947627 188.014522 
L 361.092871 187.595067 
L 361.125148 187.678958 
L 361.173563 187.595067 
L 361.383361 187.091722 
L 361.447914 187.007831 
L 361.722265 186.168922 
L 361.786818 186.085032 
L 362.028892 185.413905 
L 362.125722 185.330014 
L 362.43235 184.323323 
L 362.496903 184.239433 
L 363.303818 180.632125 
L 363.352233 180.716016 
L 363.384509 180.464343 
L 363.56203 176.2698 
L 363.626584 66.96 
L 363.707275 120.314592 
L 363.884796 185.497796 
L 364.046179 187.678958 
L 364.143009 187.762849 
L 364.304392 188.014522 
L 364.336669 188.098412 
L 364.352807 188.182303 
L 364.433498 188.098412 
L 364.449637 188.014522 
L 364.530328 188.182303 
L 364.836956 188.266194 
L 364.853094 188.350085 
L 364.885371 188.182303 
L 364.917647 188.182303 
L 365.304966 186.756159 
L 365.595456 186.672268 
L 366.257126 183.819978 
L 366.321679 183.903869 
L 366.370094 184.071651 
L 366.418509 183.819978 
L 366.773551 182.561615 
L 366.805828 182.645506 
L 366.838104 182.393833 
L 366.967211 182.05827 
L 366.999487 182.142161 
L 367.015626 182.226052 
L 367.06404 182.05827 
L 367.080179 182.05827 
L 367.225423 181.890488 
L 367.273838 181.806597 
L 367.45136 181.05158 
L 367.628881 179.541544 
L 367.854817 178.19929 
L 367.887093 178.115399 
L 367.967785 176.605364 
L 368.000062 170.649112 
L 368.064615 68.134472 
L 368.129168 108.234307 
L 368.338966 184.658887 
L 368.516487 186.588377 
L 368.694008 187.007831 
L 368.806976 186.92394 
L 368.952221 187.091722 
L 369.000636 186.92394 
L 369.081327 187.007831 
L 369.194295 187.175613 
L 369.210434 187.091722 
L 369.24271 187.091722 
L 369.323402 186.92394 
L 369.355678 187.007831 
L 369.387955 187.259504 
L 369.484785 187.091722 
L 369.581614 187.007831 
L 369.839827 186.252813 
L 369.952795 186.168922 
L 370.501497 183.903869 
L 370.533774 183.819978 
L 370.695157 183.06496 
L 370.808125 183.148851 
L 371.114753 182.142161 
L 371.163167 182.05827 
L 371.308412 181.806597 
L 371.32455 181.890488 
L 371.389104 181.638816 
L 371.405242 181.722706 
L 371.534348 181.806597 
L 371.679593 182.226052 
L 371.744146 182.05827 
L 371.808699 182.142161 
L 371.857114 182.05827 
L 371.970082 181.806597 
L 372.002359 181.890488 
L 372.08305 181.806597 
L 372.551061 179.877107 
L 372.567199 179.960998 
L 372.615614 179.709326 
L 372.825412 178.19929 
L 372.922242 174.675874 
L 372.986795 67.631127 
L 373.067486 113.267759 
L 373.261146 182.729397 
L 373.454805 184.574996 
L 373.69688 185.246123 
L 373.858263 185.162232 
L 373.955092 184.99445 
L 373.971231 185.078341 
L 374.051922 185.246123 
L 374.084199 185.162232 
L 374.374688 184.239433 
L 374.45538 184.155542 
L 374.616763 183.819978 
L 374.713592 183.903869 
L 374.729731 183.819978 
L 374.842699 183.736087 
L 375.068635 183.148851 
L 375.100911 183.232742 
L 375.197741 183.400524 
L 375.230018 183.316633 
L 375.262294 183.232742 
L 375.617337 181.974379 
L 375.665752 181.890488 
L 375.827135 181.219361 
L 375.859411 181.303252 
L 375.891688 181.387143 
L 375.940103 181.13547 
L 376.149901 180.548234 
L 376.182177 180.632125 
L 376.262869 180.548234 
L 376.295145 180.464343 
L 376.698603 178.954308 
L 376.779294 179.038199 
L 376.795432 178.954308 
L 377.118198 176.689254 
L 377.182752 174.927546 
L 377.215028 144.475161 
L 377.263443 68.302254 
L 377.327996 102.613619 
L 377.537794 180.716016 
L 377.683039 182.897179 
L 377.699177 182.813288 
L 377.95739 183.568306 
L 378.054219 183.652196 
L 378.215602 183.903869 
L 378.393124 183.819978 
L 378.538368 183.652196 
L 378.586783 183.568306 
L 378.877273 182.645506 
L 378.941826 182.561615 
L 378.990241 182.477724 
L 379.022517 182.645506 
L 379.038655 182.645506 
L 379.167762 182.561615 
L 379.474389 181.554925 
L 379.522804 181.471034 
L 379.668049 181.303252 
L 379.74874 181.219361 
L 379.990815 180.548234 
L 380.023091 180.464343 
L 380.216751 179.373762 
L 380.232889 179.457653 
L 380.297442 179.20598 
L 380.426549 179.12209 
L 380.491102 179.20598 
L 380.571794 179.373762 
L 380.620208 179.289871 
L 380.684762 179.20598 
L 380.846145 178.870417 
L 380.862283 178.954308 
L 380.910698 178.618744 
L 380.959113 178.534854 
L 381.394847 175.682564 
L 381.540091 172.494711 
L 381.572368 139.693382 
L 381.620783 67.96669 
L 381.685336 101.77471 
L 381.911272 181.806597 
L 382.104932 183.736087 
L 382.185623 183.819978 
L 382.395421 184.323323 
L 382.459974 184.407214 
L 382.605219 184.574996 
L 382.702048 184.491105 
L 382.944123 183.819978 
L 383.121644 183.903869 
L 383.234612 184.239433 
L 383.283027 184.155542 
L 383.379857 184.239433 
L 383.395995 184.323323 
L 383.44441 184.155542 
L 383.460548 184.155542 
L 383.670346 183.652196 
L 383.702623 183.568306 
L 383.912421 183.06496 
L 383.944697 182.981069 
L 384.089942 182.645506 
L 384.10608 182.729397 
L 384.154495 182.645506 
L 384.348155 182.226052 
L 384.380431 182.142161 
L 384.477261 181.890488 
L 384.525676 181.974379 
L 384.735474 181.890488 
L 384.896857 181.471034 
L 384.912995 181.554925 
L 384.993686 181.471034 
L 385.042101 181.387143 
L 385.106654 181.471034 
L 385.171208 181.387143 
L 385.300314 181.05158 
L 385.332591 181.13547 
L 385.364867 181.303252 
L 385.42942 181.13547 
L 386.123367 177.024818 
L 386.317027 172.326929 
L 386.38158 69.728399 
L 386.47841 119.475683 
L 386.672069 180.380453 
L 386.833452 181.974379 
L 386.84959 181.890488 
L 386.898005 182.226052 
L 387.107803 182.897179 
L 387.123941 182.813288 
L 387.172356 182.897179 
L 387.349877 183.232742 
L 387.527399 182.897179 
L 387.688782 182.813288 
L 387.882441 182.393833 
L 387.979271 182.393833 
L 388.140654 183.06496 
L 388.318175 182.729397 
L 388.415005 182.813288 
L 388.431143 182.729397 
L 388.527973 182.645506 
L 388.657079 182.561615 
L 388.689356 182.645506 
L 388.737771 182.477724 
L 388.753909 182.477724 
L 389.012122 181.722706 
L 389.076675 181.722706 
L 389.238058 181.13547 
L 390.077249 176.185909 
L 390.319324 171.236348 
L 390.3516 130.381496 
L 390.400015 69.308944 
L 390.464568 103.116964 
L 390.674366 178.534854 
L 390.835749 180.632125 
L 390.868026 180.716016 
L 391.142377 181.554925 
L 391.158515 181.554925 
L 391.174653 181.387143 
L 391.271483 181.471034 
L 391.352175 181.303252 
L 391.384451 181.471034 
L 391.497419 181.387143 
L 391.513558 181.303252 
L 391.594249 181.471034 
L 391.739494 181.387143 
L 391.96543 180.799907 
L 392.078398 180.716016 
L 392.417302 179.541544 
L 392.449579 179.541544 
L 392.610962 178.870417 
L 392.659377 178.786526 
L 392.869174 177.695945 
L 392.885313 177.695945 
L 393.175802 175.766455 
L 393.627674 172.830275 
L 393.724504 170.229658 
L 393.756781 138.602801 
L 393.805196 69.89618 
L 393.869749 97.244603 
L 394.111823 177.863727 
L 394.305483 180.464343 
L 394.499142 181.471034 
L 394.547557 181.554925 
L 394.757355 182.05827 
L 394.967153 182.142161 
L 395.015568 182.309943 
L 395.080121 182.226052 
L 395.386749 181.219361 
L 395.419025 181.13547 
L 395.56427 180.967689 
L 395.612685 180.967689 
L 395.757929 180.548234 
L 395.806344 180.464343 
L 395.967727 179.960998 
L 396.000004 180.044889 
L 396.096833 179.960998 
L 396.290493 179.038199 
L 396.32277 178.954308 
L 396.726227 177.444272 
L 396.758504 177.360381 
L 397.048993 176.102018 
L 397.097408 176.185909 
L 397.129684 176.2698 
L 397.161961 176.102018 
L 397.517003 171.739693 
L 397.565418 165.783442 
L 397.629972 70.147853 
L 397.710663 106.64038 
L 397.936599 177.276491 
L 398.130259 179.877107 
L 398.162535 179.960998 
L 398.501439 181.13547 
L 398.582131 181.219361 
L 398.727376 181.387143 
L 398.904897 181.303252 
L 399.050142 181.13547 
L 399.211524 181.05158 
L 399.453599 180.380453 
L 399.582705 180.296562 
L 399.744088 179.960998 
L 399.857056 180.044889 
L 399.889333 179.960998 
L 399.953886 180.12878 
L 400.018439 180.044889 
L 400.438035 178.450963 
L 400.470311 178.367072 
L 401.196535 174.088638 
L 401.406333 169.726312 
L 401.487024 70.147853 
L 401.583854 118.552883 
L 401.777513 175.766455 
L 401.955035 178.450963 
L 402.229386 180.212671 
L 402.358492 180.464343 
L 402.37463 180.380453 
L 402.439183 180.296562 
L 402.519875 180.212671 
L 402.552152 180.296562 
L 402.842641 180.212671 
L 403.068577 179.625435 
L 403.100854 179.541544 
L 403.294513 179.12209 
L 403.342928 179.038199 
L 403.455896 178.870417 
L 403.472034 178.954308 
L 403.923907 178.870417 
L 404.053013 178.786526 
L 404.165981 178.870417 
L 404.214396 178.954308 
L 404.278949 178.870417 
L 404.359641 178.954308 
L 404.424194 179.038199 
L 404.472609 178.954308 
L 404.521024 178.870417 
L 404.730821 178.031508 
L 404.779236 178.115399 
L 404.843789 178.19929 
L 404.892204 178.115399 
L 405.102002 178.031508 
L 405.344077 177.360381 
L 405.392492 177.276491 
L 405.50546 176.773145 
L 405.537736 176.857036 
L 405.602289 176.773145 
L 406.005747 174.088638 
L 406.215545 170.900785 
L 406.296236 166.119005 
L 406.376928 71.238434 
L 406.441481 103.955872 
L 406.667417 176.521473 
L 406.861076 179.541544 
L 407.280672 181.13547 
L 407.442055 181.05158 
L 407.571161 180.716016 
L 407.813236 180.799907 
L 407.893927 180.883798 
L 407.926204 180.799907 
L 408.119863 180.883798 
L 408.200555 181.05158 
L 408.24897 180.967689 
L 408.3458 180.883798 
L 408.523321 180.548234 
L 408.604012 180.548234 
L 408.797672 179.625435 
L 409.104299 178.618744 
L 409.152714 178.534854 
L 409.749831 176.018128 
L 409.798246 175.934237 
L 409.927352 175.347001 
L 409.975767 175.598673 
L 410.395363 175.514782 
L 410.944065 172.075257 
L 411.105448 165.112315 
L 411.186139 71.238434 
L 411.250693 102.529728 
L 411.476629 176.353691 
L 411.65415 179.289871 
L 411.896224 180.716016 
L 412.057607 180.967689 
L 412.138299 180.883798 
L 412.267405 180.716016 
L 412.299682 180.799907 
L 412.348097 180.632125 
L 412.364235 180.632125 
L 412.525618 180.548234 
L 412.590171 180.464343 
L 412.622448 180.632125 
L 412.703139 180.967689 
L 412.767692 180.883798 
L 412.97749 180.380453 
L 413.058182 180.296562 
L 413.203426 180.12878 
L 413.300256 180.044889 
L 413.477777 179.373762 
L 413.510054 179.541544 
L 413.752128 179.457653 
L 414.252416 177.444272 
L 414.316969 177.360381 
L 414.462213 177.1926 
L 414.510628 177.108709 
L 414.801118 176.185909 
L 414.833394 176.102018 
L 415.382096 169.390749 
L 415.414373 161.085553 
L 415.478926 70.986762 
L 415.543479 98.586857 
L 415.785554 176.521473 
L 415.979213 179.20598 
L 416.189011 180.296562 
L 416.414947 180.883798 
L 416.544053 180.799907 
L 416.76999 180.799907 
L 416.931373 180.212671 
L 416.963649 180.296562 
L 417.012064 180.044889 
L 417.060479 179.960998 
L 417.286415 179.373762 
L 417.399383 179.289871 
L 417.818979 177.695945 
L 417.851255 177.612054 
L 418.109468 176.857036 
L 418.238574 176.773145 
L 418.56134 175.682564 
L 418.577479 175.766455 
L 418.625894 175.598673 
L 418.642032 175.598673 
L 419.126181 172.494711 
L 419.335979 168.635731 
L 419.368255 152.948139 
L 419.432808 71.154543 
L 419.497362 99.425766 
L 419.787851 199.591461 
L 420.046064 219.557488 
L 420.433383 234.238389 
L 420.83684 243.382494 
L 421.224159 249.170964 
L 421.627616 253.784961 
L 421.788999 255.211106 
L 422.224733 258.650632 
L 422.757297 262.006266 
L 422.950957 262.929066 
L 423.67718 266.116919 
L 423.709457 266.20081 
L 424.145191 267.878627 
L 424.177467 267.962518 
L 424.451818 268.801427 
L 424.500233 268.885318 
L 424.758446 269.640335 
L 424.855276 269.724226 
L 425.129627 270.563135 
L 425.145765 270.479244 
L 425.178041 270.647026 
L 425.210318 270.647026 
L 425.436254 271.234262 
L 425.549222 271.318153 
L 425.726743 271.653716 
L 425.839712 271.737607 
L 426.017233 272.073171 
L 426.097924 272.157061 
L 426.259307 272.408734 
L 426.32386 272.492625 
L 426.501382 272.828188 
L 426.51752 272.744297 
L 426.582073 272.912079 
L 426.598211 272.912079 
L 426.727318 272.99597 
L 426.824148 273.079861 
L 426.98553 273.331534 
L 427.033945 273.415424 
L 427.163052 273.499315 
L 427.243743 273.583206 
L 427.388988 273.834879 
L 427.421264 273.750988 
L 427.501956 273.834879 
L 428.131349 273.91877 
L 428.276594 274.086551 
L 429.148062 274.170442 
L 429.1642 274.254333 
L 429.244892 274.170442 
L 429.341722 274.086551 
L 429.35786 274.170442 
L 429.729041 274.254333 
L 429.793594 274.338224 
L 429.842009 274.254333 
L 430.697338 274.170442 
L 430.826445 274.086551 
L 431.310594 274.002661 
L 431.375147 273.91877 
L 431.423562 274.002661 
L 431.4397 274.086551 
L 431.520391 274.002661 
L 431.649498 273.91877 
L 432.036817 273.834879 
L 432.165923 273.750988 
L 432.633934 273.667097 
L 432.76304 273.583206 
L 433.392434 273.499315 
L 433.52154 273.415424 
L 433.795891 273.331534 
L 433.860444 273.163752 
L 433.908859 273.247643 
L 433.989551 273.331534 
L 434.021827 273.247643 
L 434.74805 273.163752 
L 434.877157 273.079861 
L 435.232199 272.99597 
L 435.377444 272.828188 
L 435.458135 272.912079 
L 435.490412 272.828188 
L 435.780901 272.828188 
L 435.780901 272.828188 
" style="fill:none;stroke:#1f77b4;stroke-linecap:square;stroke-width:1.5;"/>
   </g>
   <g id="line2d_15">
    <path clip-path="url(#p80c9a33dd7)" d="M 80.754545 265.261232 
L 81.061173 265.158147 
L 81.287109 265.072243 
L 81.674428 264.969158 
L 81.884226 264.900434 
L 82.287683 264.797349 
L 82.481343 264.745807 
L 82.933215 264.642722 
L 83.126875 264.591179 
L 83.659439 264.488094 
L 83.853098 264.436551 
L 84.530907 264.333466 
L 84.708428 264.299105 
L 85.466928 264.196019 
L 85.644449 264.161658 
L 86.645023 264.058573 
L 86.806406 264.041392 
L 88.00064 263.938307 
L 88.162023 263.921126 
L 88.904385 263.869583 
L 89.904959 251.550914 
L 91.115331 239.850756 
L 92.099767 232.394267 
L 93.423107 224.645704 
L 94.24616 220.865917 
L 94.762586 218.855757 
L 95.359703 216.794055 
L 96.392553 213.85613 
L 98.329149 209.990439 
L 98.748745 209.389109 
L 99.07151 208.959588 
L 101.040383 207.018152 
L 101.201765 206.915067 
L 101.605223 206.640173 
L 101.798882 206.537088 
L 102.121648 206.348099 
L 102.347584 206.245014 
L 102.621935 206.107567 
L 102.896286 206.004482 
L 103.138361 205.901397 
L 103.477265 205.798312 
L 103.687063 205.729588 
L 104.09052 205.626503 
L 104.28418 205.574961 
L 104.832882 205.471875 
L 105.010403 205.437514 
L 105.930286 205.334429 
L 106.091669 205.317248 
L 110.271487 205.420333 
L 110.43287 205.437514 
L 111.38503 205.540599 
L 111.562551 205.574961 
L 112.498572 205.678046 
L 112.676093 205.712407 
L 113.515285 205.815492 
L 113.692806 205.849854 
L 114.483582 205.952939 
L 114.661104 205.987301 
L 115.435742 206.090386 
L 115.613263 206.124748 
L 116.371763 206.227833 
L 116.549284 206.262195 
L 117.323922 206.36528 
L 117.501444 206.399641 
L 118.276082 206.502726 
L 118.453603 206.537088 
L 119.244379 206.640173 
L 119.421901 206.674535 
L 120.228815 206.77762 
L 120.406337 206.811982 
L 121.245528 206.915067 
L 121.423049 206.949429 
L 122.310656 207.052514 
L 122.488177 207.086875 
L 123.40806 207.18996 
L 123.585581 207.224322 
L 124.553879 207.327407 
L 124.7314 207.361769 
L 125.748112 207.464854 
L 125.925634 207.499216 
L 127.023038 207.602301 
L 127.200559 207.636662 
L 128.362516 207.739748 
L 128.523899 207.756928 
L 129.621303 207.860014 
L 129.782686 207.877194 
L 130.960782 207.980279 
L 131.122165 207.99746 
L 132.380952 208.100545 
L 132.542335 208.117726 
L 133.91409 208.220811 
L 134.075473 208.237992 
L 135.592473 208.341077 
L 135.753855 208.358258 
L 137.4161 208.461343 
L 137.577483 208.478524 
L 139.417248 208.581609 
L 139.578631 208.59879 
L 141.660472 208.701875 
L 141.821854 208.719056 
L 144.210322 208.822141 
L 144.371705 208.839322 
L 147.147492 208.942407 
L 147.308875 208.959588 
L 150.633364 209.062673 
L 150.794747 209.079854 
L 153.457565 209.148577 
L 154.442001 221.261076 
L 155.652373 232.978416 
L 156.652948 240.55517 
L 157.976288 248.303734 
L 158.783203 251.997616 
L 159.735362 255.571233 
L 160.978011 259.179211 
L 162.88233 262.976179 
L 163.285787 263.560328 
L 163.624691 264.024211 
L 165.62584 266.000009 
L 165.771085 266.103094 
L 166.158404 266.360807 
L 166.335925 266.463892 
L 166.658691 266.652881 
L 166.884627 266.755966 
L 167.158978 266.893413 
L 167.417191 266.996498 
L 167.659265 267.099583 
L 167.965893 267.202668 
L 168.191829 267.288572 
L 168.595286 267.391657 
L 168.788946 267.4432 
L 169.289233 267.546285 
L 169.482892 267.597828 
L 169.515169 267.597828 
L 169.628137 265.22687 
L 169.950903 265.123785 
L 170.176839 265.037881 
L 170.564158 264.934796 
L 170.773956 264.866073 
L 171.193552 264.762987 
L 171.387211 264.711445 
L 171.855222 264.60836 
L 172.048881 264.556817 
L 172.613722 264.453732 
L 172.791243 264.419371 
L 173.420636 264.316285 
L 173.598158 264.281924 
L 174.388934 264.178839 
L 174.566455 264.144477 
L 175.599306 264.041392 
L 175.760689 264.024211 
L 177.003338 263.921126 
L 177.164721 263.903945 
L 177.681146 263.869583 
L 178.762412 246.293574 
L 179.988923 230.813629 
L 181.183156 219.285279 
L 182.167592 211.845971 
L 183.442518 204.389482 
L 185.475943 196.211397 
L 186.654038 192.105174 
L 186.92839 190.060653 
L 187.009081 188.394111 
L 187.122049 195.884961 
L 187.444815 195.970866 
L 188.509942 201.039216 
L 189.349134 204.131769 
L 190.285155 206.760439 
L 191.608495 209.320386 
L 192.22175 210.127886 
L 192.479963 210.41996 
L 193.27074 211.107194 
L 193.432122 211.210279 
L 193.754888 211.399269 
L 193.996963 211.502354 
L 194.239037 211.605439 
L 194.610218 211.708524 
L 194.803878 211.760066 
L 196.917994 211.656981 
L 197.127792 211.588258 
L 197.498973 211.485173 
L 197.724909 211.399269 
L 198.015398 211.296183 
L 198.273611 211.175918 
L 198.531824 211.072832 
L 198.806175 210.935386 
L 199.048249 210.832301 
L 199.338739 210.677673 
L 199.548536 210.574588 
L 199.871302 210.385598 
L 200.064962 210.282513 
L 200.387728 210.093524 
L 200.581387 209.990439 
L 200.93643 209.767088 
L 201.113951 209.664003 
L 201.485132 209.423471 
L 201.662653 209.320386 
L 202.049972 209.062673 
L 202.227493 208.959588 
L 202.630951 208.684694 
L 202.808472 208.581609 
L 203.228068 208.289535 
L 203.405589 208.18645 
L 203.825185 207.894375 
L 203.986568 207.79129 
L 204.390025 207.516397 
L 204.551408 207.413311 
L 204.954865 207.138418 
L 205.116248 207.035333 
L 205.519706 206.760439 
L 205.681089 206.657354 
L 206.084546 206.38246 
L 206.262067 206.279375 
L 206.665525 206.004482 
L 206.826907 205.901397 
L 207.214227 205.643684 
L 207.391748 205.540599 
L 207.779067 205.282886 
L 207.956588 205.179801 
L 208.343907 204.922088 
L 208.521428 204.819003 
L 208.876471 204.595652 
L 209.053992 204.492567 
L 209.409035 204.269216 
L 209.586556 204.166131 
L 209.941598 203.94278 
L 210.135258 203.839695 
L 210.4903 203.616344 
L 210.68396 203.513259 
L 211.022864 203.307088 
L 211.216524 203.204003 
L 211.53929 203.015014 
L 211.732949 202.911929 
L 212.055715 202.72294 
L 212.265513 202.619854 
L 212.588279 202.430865 
L 212.798077 202.32778 
L 213.104704 202.155971 
L 213.314502 202.052886 
L 213.604991 201.898259 
L 213.814789 201.795174 
L 214.105279 201.640546 
L 214.315076 201.537461 
L 214.605566 201.382833 
L 214.831502 201.279748 
L 215.105853 201.142301 
L 215.331789 201.039216 
L 215.622278 200.884589 
L 215.864353 200.781503 
L 216.138704 200.644057 
L 216.380778 200.540972 
L 216.655129 200.403525 
L 216.913342 200.30044 
L 217.187693 200.162993 
L 217.445906 200.059908 
L 217.704118 199.939642 
L 217.962331 199.836557 
L 218.220544 199.716291 
L 218.478757 199.613206 
L 218.736969 199.49294 
L 219.01132 199.389855 
L 219.269533 199.269589 
L 219.560022 199.166504 
L 219.802097 199.063419 
L 220.06031 198.960333 
L 220.302384 198.857248 
L 220.592873 198.754163 
L 220.834948 198.651078 
L 221.125437 198.547993 
L 221.367511 198.444908 
L 221.674139 198.341823 
L 221.916213 198.238738 
L 222.222841 198.135653 
L 222.464916 198.032568 
L 222.787681 197.929482 
L 223.013618 197.843578 
L 223.304107 197.740493 
L 223.530043 197.654589 
L 223.836671 197.551504 
L 224.062607 197.4656 
L 224.385373 197.362514 
L 224.611309 197.27661 
L 224.917936 197.173525 
L 225.143873 197.087621 
L 225.466638 196.984536 
L 225.692575 196.898631 
L 226.01534 196.795546 
L 226.241277 196.709642 
L 226.564043 196.606557 
L 226.789979 196.520653 
L 227.112745 196.417568 
L 227.338681 196.331663 
L 227.661447 196.228578 
L 227.887383 196.142674 
L 228.19401 196.039589 
L 228.419946 195.953685 
L 228.726574 195.8506 
L 228.968648 195.747515 
L 229.275276 195.644429 
L 229.501212 195.558525 
L 229.775563 195.45544 
L 230.017638 195.352355 
L 230.308127 195.24927 
L 230.56634 195.129004 
L 230.840691 195.025919 
L 231.098903 194.905653 
L 231.340978 194.802568 
L 231.615329 194.665121 
L 231.841265 194.562036 
L 232.147893 194.390227 
L 232.341552 194.287142 
L 232.696595 194.063791 
L 232.874116 193.960706 
L 233.455095 193.496823 
L 233.568063 193.393738 
L 234.294286 192.465972 
L 234.73002 191.280494 
L 234.923679 190.009111 
L 235.020509 188.033313 
L 235.133477 195.884961 
L 235.440105 195.936504 
L 236.182466 201.31411 
L 237.215317 207.207141 
L 237.893126 210.21379 
L 238.603211 212.756556 
L 239.426264 215.024428 
L 240.588221 217.240757 
L 242.234327 218.890119 
L 243.396284 237.9265 
L 244.509827 251.808627 
L 245.558816 261.790701 
L 247.011263 271.807136 
L 248.157081 277.322189 
L 250.142092 283.301124 
L 250.981283 284.83022 
L 251.513847 285.551816 
L 251.788198 285.878252 
L 252.595113 286.582667 
L 252.772634 286.685752 
L 253.079262 286.85756 
L 253.321336 286.960645 
L 253.547272 287.046549 
L 254.015283 287.149635 
L 254.192804 287.183996 
L 255.64525 287.080911 
L 255.83891 287.029369 
L 256.177814 286.926284 
L 256.40375 286.840379 
L 256.678101 286.737294 
L 256.936314 286.617028 
L 257.178388 286.513943 
L 257.468878 286.359315 
L 257.678676 286.25623 
L 258.001442 286.067241 
L 258.195101 285.964156 
L 258.291931 285.895433 
L 258.404899 265.22687 
L 258.727665 265.123785 
L 258.953601 265.037881 
L 259.34092 264.934796 
L 259.550718 264.866073 
L 259.970314 264.762987 
L 260.163973 264.711445 
L 260.631984 264.60836 
L 260.825643 264.556817 
L 261.390484 264.453732 
L 261.568005 264.419371 
L 262.197398 264.316285 
L 262.37492 264.281924 
L 263.165696 264.178839 
L 263.343217 264.144477 
L 264.376068 264.041392 
L 264.537451 264.024211 
L 265.7801 263.921126 
L 265.941483 263.903945 
L 266.457908 263.869583 
L 267.442344 239.661766 
L 268.410642 220.436395 
L 269.37894 204.904907 
L 270.524759 188.084856 
L 270.637727 195.884961 
L 270.960493 195.781876 
L 271.864237 191.486664 
L 272.041758 189.493685 
L 272.090173 188.084856 
L 272.203141 195.884961 
L 272.525907 195.970866 
L 273.203716 198.376185 
L 273.962215 200.437887 
L 274.833683 202.035706 
L 276.060194 203.186822 
L 276.334545 203.289908 
L 276.544343 203.358631 
L 277.641747 203.255546 
L 277.883821 203.152461 
L 278.093619 203.049376 
L 278.448662 202.826025 
L 278.610044 202.72294 
L 279.303991 202.138791 
L 279.416959 202.035706 
L 281.192172 199.991184 
L 281.531076 199.527301 
L 281.999086 198.874429 
L 282.402544 198.273099 
L 282.773725 197.723312 
L 283.257874 196.950174 
L 283.548363 196.486291 
L 284.226171 195.300812 
L 284.435969 194.922834 
L 285.388128 192.637781 
L 285.694756 191.314855 
L 285.888416 189.3906 
L 285.936831 188.016132 
L 286.049799 195.884961 
L 286.356426 195.919323 
L 287.018096 199.441397 
L 287.615213 202.018525 
L 288.938553 205.884216 
L 289.6325 207.104056 
L 290.762181 208.152088 
L 291.05267 208.255173 
L 291.24633 208.306716 
L 292.214627 208.203631 
L 292.47284 208.083365 
L 292.682638 207.980279 
L 293.102234 207.688205 
L 293.247478 207.58512 
L 295.50684 205.025173 
L 295.894159 204.458205 
L 296.281478 203.891237 
L 296.749488 203.152461 
L 297.056116 202.671397 
L 297.58868 201.795174 
L 297.863031 201.348472 
L 298.492424 200.266078 
L 298.734499 199.853738 
L 299.428445 198.633897 
L 299.654381 198.238738 
L 300.493573 196.709642 
L 300.703371 196.331663 
L 302.301062 192.672142 
L 302.591551 191.40076 
L 302.785211 189.57959 
L 302.833626 188.411292 
L 302.946594 195.884961 
L 303.26936 195.970866 
L 304.415179 201.468737 
L 305.803072 205.540599 
L 306.48088 206.726077 
L 307.610561 207.774109 
L 307.884912 207.877194 
L 308.078572 207.928737 
L 309.095284 207.825652 
L 309.353497 207.705386 
L 309.547156 207.602301 
L 309.950614 207.327407 
L 310.095858 207.224322 
L 312.435911 204.578471 
L 312.82323 204.011503 
L 313.210549 203.444535 
L 313.662422 202.74012 
L 313.969049 202.259057 
L 314.501613 201.382833 
L 314.775964 200.936131 
L 315.389219 199.888099 
L 315.631294 199.475759 
L 316.32524 198.255919 
L 316.551176 197.860759 
L 317.390368 196.331663 
L 317.584027 195.970866 
L 318.971921 192.775228 
L 319.423793 190.387089 
L 319.536761 188.325388 
L 319.649729 195.884961 
L 319.972495 195.970866 
L 321.118314 201.468737 
L 321.715431 203.530439 
L 322.377101 205.282886 
L 323.184016 206.743258 
L 324.313696 207.79129 
L 324.588047 207.894375 
L 324.781707 207.945918 
L 325.79842 207.842833 
L 326.056632 207.722567 
L 326.250292 207.619482 
L 326.637611 207.361769 
L 326.782856 207.258684 
L 329.139047 204.595652 
L 329.526366 204.028684 
L 329.913685 203.461716 
L 330.365557 202.757301 
L 330.672185 202.276237 
L 331.011089 201.72645 
L 332.027802 224.886236 
L 332.996099 242.273255 
L 333.964397 255.966392 
L 334.852003 265.896924 
L 335.949407 275.346391 
L 336.837014 281.136337 
L 337.450269 284.349156 
L 338.063524 287.012188 
L 339.725768 291.960272 
L 340.548821 293.455006 
L 342.211066 295.070006 
L 342.469279 295.173091 
L 342.695215 295.258996 
L 344.599534 295.15591 
L 344.841608 295.052825 
L 345.099821 294.94974 
L 345.39031 294.795113 
L 345.600108 294.692028 
L 345.95515 294.468676 
L 346.116533 294.365591 
L 346.552267 294.056336 
L 346.697512 293.953251 
L 347.068693 293.661177 
L 347.181661 265.22687 
L 347.504427 265.123785 
L 347.730363 265.037881 
L 348.117682 264.934796 
L 348.32748 264.866073 
L 348.747075 264.762987 
L 348.940735 264.711445 
L 349.408746 264.60836 
L 349.602405 264.556817 
L 350.167245 264.453732 
L 350.344767 264.419371 
L 350.97416 264.316285 
L 351.151681 264.281924 
L 351.942458 264.178839 
L 352.119979 264.144477 
L 353.15283 264.041392 
L 353.314213 264.024211 
L 354.556862 263.921126 
L 354.718245 263.903945 
L 355.23467 263.869583 
L 356.299798 211.983417 
L 356.8485 188.875175 
L 356.961468 195.884961 
L 357.268095 195.884961 
L 357.477893 188.273845 
L 357.590861 195.884961 
L 357.88135 195.884961 
L 357.994319 193.4281 
L 358.155701 188.720547 
L 358.26867 195.884961 
L 358.575297 195.884961 
L 358.962616 188.565919 
L 359.075584 195.884961 
L 359.382212 195.884961 
L 359.947052 190.902515 
L 360.06002 188.5831 
L 360.172988 195.884961 
L 360.624861 195.781876 
L 361.302669 194.905653 
L 361.964339 193.256291 
L 362.448488 190.730706 
L 362.593733 188.033313 
L 362.706701 195.884961 
L 363.029467 195.970866 
L 363.56203 197.774855 
L 364.41736 199.355493 
L 364.546466 199.458578 
L 364.820817 199.596025 
L 365.337243 199.49294 
L 366.224849 198.393365 
L 367.193147 196.073951 
L 367.983923 193.187568 
L 368.274413 191.521026 
L 368.468072 189.081345 
L 368.48421 188.617462 
L 368.597178 195.884961 
L 368.936083 195.970866 
L 369.404093 197.121983 
L 369.678444 197.568685 
L 369.952795 197.895121 
L 370.09804 197.998206 
L 370.340114 198.101291 
L 370.824263 197.998206 
L 371.728008 196.881451 
L 372.599476 194.768206 
L 373.164316 192.603419 
L 373.470944 190.369909 
L 373.567773 188.428473 
L 373.680741 195.884961 
L 374.019646 195.988046 
L 374.632901 197.585865 
L 375.052497 198.221557 
L 375.504369 198.547993 
L 376.069209 198.444908 
L 376.940677 197.362514 
L 377.844422 195.180547 
L 378.489953 192.758047 
L 378.732028 191.280494 
L 378.893411 189.218792 
L 378.925687 188.239483 
L 379.038655 195.884961 
L 379.361421 195.953685 
L 379.926262 197.414057 
L 380.184474 197.843578 
L 380.458825 198.170014 
L 380.813868 198.393365 
L 381.378708 198.29028 
L 382.234038 197.225068 
L 383.153921 195.008738 
L 383.767176 192.689323 
L 384.073804 190.524536 
L 384.186772 188.308207 
L 384.29974 195.884961 
L 384.622506 195.953685 
L 385.219623 197.499961 
L 385.493974 197.946663 
L 385.752186 198.238738 
L 386.09109 198.444908 
L 386.655931 198.341823 
L 387.527399 197.259429 
L 388.415005 195.111823 
L 389.060537 192.689323 
L 389.367164 190.524536 
L 389.480132 188.291026 
L 389.593101 195.884961 
L 389.915866 195.953685 
L 390.496845 197.448419 
L 390.932579 198.118472 
L 391.368313 198.427727 
L 391.949292 198.324642 
L 392.804621 197.259429 
L 393.708366 195.077461 
L 394.337759 192.706504 
L 394.660525 190.387089 
L 394.757355 188.480015 
L 394.870323 195.884961 
L 395.209227 195.988046 
L 395.774068 197.431238 
L 396.209802 198.101291 
L 396.661674 198.427727 
L 397.226514 198.324642 
L 398.097982 197.242248 
L 398.985588 195.094642 
L 399.614982 192.740866 
L 399.937748 190.472994 
L 400.050716 188.119217 
L 400.163684 195.884961 
L 400.48645 195.953685 
L 401.067428 197.448419 
L 401.503162 198.118472 
L 401.938896 198.427727 
L 402.519875 198.324642 
L 403.375205 197.259429 
L 404.278949 195.077461 
L 404.908343 192.706504 
L 405.21497 190.558898 
L 405.327938 188.445653 
L 405.440906 195.884961 
L 405.779811 195.988046 
L 406.344651 197.431238 
L 406.780385 198.101291 
L 407.232257 198.427727 
L 407.797098 198.324642 
L 408.668565 197.242248 
L 409.556172 195.094642 
L 410.185565 192.740866 
L 410.508331 190.472994 
L 410.621299 188.119217 
L 410.734267 195.884961 
L 411.057033 195.953685 
L 411.638012 197.448419 
L 412.073746 198.118472 
L 412.50948 198.427727 
L 413.090458 198.324642 
L 413.945788 197.259429 
L 414.849533 195.077461 
L 415.478926 192.706504 
L 415.801692 190.387089 
L 415.898522 188.462834 
L 416.01149 195.884961 
L 416.350394 195.988046 
L 416.915234 197.431238 
L 417.367107 198.135653 
L 417.770564 198.410546 
L 418.399957 198.307461 
L 419.206872 197.293791 
L 419.787851 196.039589 
L 420.756149 240.915968 
L 421.659893 273.92038 
L 422.531361 299.090325 
L 423.451244 319.844791 
L 424.451818 336.888194 
L 425.242595 347.042076 
L 426.227031 356.354097 
L 427.130775 362.264309 
L 427.84086 365.442766 
L 428.308871 366.971862 
L 429.35786 368.94766 
L 429.82587 369.291277 
L 430.745753 369.188192 
L 432.00454 367.693458 
L 433.957274 363.277979 
L 435.845455 357.556756 
L 435.845455 357.556756 
" style="fill:none;stroke:#ff0000;stroke-linecap:square;stroke-width:1.5;"/>
   </g>
   <g id="patch_3">
    <path d="M 63 384.48 
L 63 51.84 
" style="fill:none;stroke:#000000;stroke-linecap:square;stroke-linejoin:miter;stroke-width:0.8;"/>
   </g>
   <g id="patch_4">
    <path d="M 453.6 384.48 
L 453.6 51.84 
" style="fill:none;stroke:#000000;stroke-linecap:square;stroke-linejoin:miter;stroke-width:0.8;"/>
   </g>
   <g id="patch_5">
    <path d="M 63 384.48 
L 453.6 384.48 
" style="fill:none;stroke:#000000;stroke-linecap:square;stroke-linejoin:miter;stroke-width:0.8;"/>
   </g>
   <g id="patch_6">
    <path d="M 63 51.84 
L 453.6 51.84 
" style="fill:none;stroke:#000000;stroke-linecap:square;stroke-linejoin:miter;stroke-width:0.8;"/>
   </g>
   <g id="legend_1">
    <g id="patch_7">
     <path d="M 70 89.19625 
L 133.139062 89.19625 
Q 135.139062 89.19625 135.139062 87.19625 
L 135.139062 58.84 
Q 135.139062 56.84 133.139062 56.84 
L 70 56.84 
Q 68 56.84 68 58.84 
L 68 87.19625 
Q 68 89.19625 70 89.19625 
z
" style="fill:#ffffff;opacity:0.8;stroke:#cccccc;stroke-linejoin:miter;"/>
    </g>
    <g id="line2d_16">
     <path d="M 72 64.938437 
L 92 64.938437 
" style="fill:none;stroke:#1f77b4;stroke-linecap:square;stroke-width:1.5;"/>
    </g>
    <g id="line2d_17"/>
    <g id="text_16">
     <!-- target -->
     <defs>
      <path d="M 41.109375 46.296875 
Q 39.59375 47.171875 37.8125 47.578125 
Q 36.03125 48 33.890625 48 
Q 26.265625 48 22.1875 43.046875 
Q 18.109375 38.09375 18.109375 28.8125 
L 18.109375 0 
L 9.078125 0 
L 9.078125 54.6875 
L 18.109375 54.6875 
L 18.109375 46.1875 
Q 20.953125 51.171875 25.484375 53.578125 
Q 30.03125 56 36.53125 56 
Q 37.453125 56 38.578125 55.875 
Q 39.703125 55.765625 41.0625 55.515625 
z
" id="DejaVuSans-114"/>
     </defs>
     <g transform="translate(100 68.438437)scale(0.1 -0.1)">
      <use xlink:href="#DejaVuSans-116"/>
      <use x="39.208984" xlink:href="#DejaVuSans-97"/>
      <use x="100.488281" xlink:href="#DejaVuSans-114"/>
      <use x="141.585938" xlink:href="#DejaVuSans-103"/>
      <use x="205.0625" xlink:href="#DejaVuSans-101"/>
      <use x="266.585938" xlink:href="#DejaVuSans-116"/>
     </g>
    </g>
    <g id="line2d_18">
     <path d="M 72 79.616562 
L 92 79.616562 
" style="fill:none;stroke:#ff0000;stroke-linecap:square;stroke-width:1.5;"/>
    </g>
    <g id="line2d_19"/>
    <g id="text_17">
     <!-- model -->
     <defs>
      <path d="M 45.40625 46.390625 
L 45.40625 75.984375 
L 54.390625 75.984375 
L 54.390625 0 
L 45.40625 0 
L 45.40625 8.203125 
Q 42.578125 3.328125 38.25 0.953125 
Q 33.9375 -1.421875 27.875 -1.421875 
Q 17.96875 -1.421875 11.734375 6.484375 
Q 5.515625 14.40625 5.515625 27.296875 
Q 5.515625 40.1875 11.734375 48.09375 
Q 17.96875 56 27.875 56 
Q 33.9375 56 38.25 53.625 
Q 42.578125 51.265625 45.40625 46.390625 
z
M 14.796875 27.296875 
Q 14.796875 17.390625 18.875 11.75 
Q 22.953125 6.109375 30.078125 6.109375 
Q 37.203125 6.109375 41.296875 11.75 
Q 45.40625 17.390625 45.40625 27.296875 
Q 45.40625 37.203125 41.296875 42.84375 
Q 37.203125 48.484375 30.078125 48.484375 
Q 22.953125 48.484375 18.875 42.84375 
Q 14.796875 37.203125 14.796875 27.296875 
z
" id="DejaVuSans-100"/>
     </defs>
     <g transform="translate(100 83.116562)scale(0.1 -0.1)">
      <use xlink:href="#DejaVuSans-109"/>
      <use x="97.412109" xlink:href="#DejaVuSans-111"/>
      <use x="158.59375" xlink:href="#DejaVuSans-100"/>
      <use x="222.070312" xlink:href="#DejaVuSans-101"/>
      <use x="283.59375" xlink:href="#DejaVuSans-108"/>
     </g>
    </g>
   </g>
  </g>
 </g>
 <defs>
  <clipPath id="p80c9a33dd7">
   <rect height="332.64" width="390.6" x="63" y="51.84"/>
  </clipPath>
 </defs>
</svg>
