<?xml version="1.0" encoding="utf-8" standalone="no"?>
<!DOCTYPE svg PUBLIC "-//W3C//DTD SVG 1.1//EN"
  "http://www.w3.org/Graphics/SVG/1.1/DTD/svg11.dtd">
<!-- Created with matplotlib (http://matplotlib.org/) -->
<svg height="432pt" version="1.1" viewBox="0 0 504 432" width="504pt" xmlns="http://www.w3.org/2000/svg" xmlns:xlink="http://www.w3.org/1999/xlink">
 <defs>
  <style type="text/css">
*{stroke-linecap:butt;stroke-linejoin:round;}
  </style>
 </defs>
 <g id="figure_1">
  <g id="patch_1">
   <path d="M 0 432 
L 504 432 
L 504 0 
L 0 0 
z
" style="fill:#ffffff;"/>
  </g>
  <g id="axes_1">
   <g id="patch_2">
    <path d="M 63 384.48 
L 453.6 384.48 
L 453.6 51.84 
L 63 51.84 
z
" style="fill:#ffffff;"/>
   </g>
   <g id="matplotlib.axis_1">
    <g id="xtick_1">
     <g id="line2d_1">
      <defs>
       <path d="M 0 0 
L 0 3.5 
" id="md3c0b9f125" style="stroke:#000000;stroke-width:0.8;"/>
      </defs>
      <g>
       <use style="stroke:#000000;stroke-width:0.8;" x="80.754545" xlink:href="#md3c0b9f125" y="384.48"/>
      </g>
     </g>
     <g id="text_1">
      <!-- 0 -->
      <defs>
       <path d="M 31.78125 66.40625 
Q 24.171875 66.40625 20.328125 58.90625 
Q 16.5 51.421875 16.5 36.375 
Q 16.5 21.390625 20.328125 13.890625 
Q 24.171875 6.390625 31.78125 6.390625 
Q 39.453125 6.390625 43.28125 13.890625 
Q 47.125 21.390625 47.125 36.375 
Q 47.125 51.421875 43.28125 58.90625 
Q 39.453125 66.40625 31.78125 66.40625 
z
M 31.78125 74.21875 
Q 44.046875 74.21875 50.515625 64.515625 
Q 56.984375 54.828125 56.984375 36.375 
Q 56.984375 17.96875 50.515625 8.265625 
Q 44.046875 -1.421875 31.78125 -1.421875 
Q 19.53125 -1.421875 13.0625 8.265625 
Q 6.59375 17.96875 6.59375 36.375 
Q 6.59375 54.828125 13.0625 64.515625 
Q 19.53125 74.21875 31.78125 74.21875 
z
" id="DejaVuSans-30"/>
      </defs>
      <g transform="translate(77.573295 399.078438)scale(0.1 -0.1)">
       <use xlink:href="#DejaVuSans-30"/>
      </g>
     </g>
    </g>
    <g id="xtick_2">
     <g id="line2d_2">
      <g>
       <use style="stroke:#000000;stroke-width:0.8;" x="151.772727" xlink:href="#md3c0b9f125" y="384.48"/>
      </g>
     </g>
     <g id="text_2">
      <!-- 200 -->
      <defs>
       <path d="M 19.1875 8.296875 
L 53.609375 8.296875 
L 53.609375 0 
L 7.328125 0 
L 7.328125 8.296875 
Q 12.9375 14.109375 22.625 23.890625 
Q 32.328125 33.6875 34.8125 36.53125 
Q 39.546875 41.84375 41.421875 45.53125 
Q 43.3125 49.21875 43.3125 52.78125 
Q 43.3125 58.59375 39.234375 62.25 
Q 35.15625 65.921875 28.609375 65.921875 
Q 23.96875 65.921875 18.8125 64.3125 
Q 13.671875 62.703125 7.8125 59.421875 
L 7.8125 69.390625 
Q 13.765625 71.78125 18.9375 73 
Q 24.125 74.21875 28.421875 74.21875 
Q 39.75 74.21875 46.484375 68.546875 
Q 53.21875 62.890625 53.21875 53.421875 
Q 53.21875 48.921875 51.53125 44.890625 
Q 49.859375 40.875 45.40625 35.40625 
Q 44.1875 33.984375 37.640625 27.21875 
Q 31.109375 20.453125 19.1875 8.296875 
z
" id="DejaVuSans-32"/>
      </defs>
      <g transform="translate(142.228977 399.078438)scale(0.1 -0.1)">
       <use xlink:href="#DejaVuSans-32"/>
       <use x="63.623047" xlink:href="#DejaVuSans-30"/>
       <use x="127.246094" xlink:href="#DejaVuSans-30"/>
      </g>
     </g>
    </g>
    <g id="xtick_3">
     <g id="line2d_3">
      <g>
       <use style="stroke:#000000;stroke-width:0.8;" x="222.790909" xlink:href="#md3c0b9f125" y="384.48"/>
      </g>
     </g>
     <g id="text_3">
      <!-- 400 -->
      <defs>
       <path d="M 37.796875 64.3125 
L 12.890625 25.390625 
L 37.796875 25.390625 
z
M 35.203125 72.90625 
L 47.609375 72.90625 
L 47.609375 25.390625 
L 58.015625 25.390625 
L 58.015625 17.1875 
L 47.609375 17.1875 
L 47.609375 0 
L 37.796875 0 
L 37.796875 17.1875 
L 4.890625 17.1875 
L 4.890625 26.703125 
z
" id="DejaVuSans-34"/>
      </defs>
      <g transform="translate(213.247159 399.078438)scale(0.1 -0.1)">
       <use xlink:href="#DejaVuSans-34"/>
       <use x="63.623047" xlink:href="#DejaVuSans-30"/>
       <use x="127.246094" xlink:href="#DejaVuSans-30"/>
      </g>
     </g>
    </g>
    <g id="xtick_4">
     <g id="line2d_4">
      <g>
       <use style="stroke:#000000;stroke-width:0.8;" x="293.809091" xlink:href="#md3c0b9f125" y="384.48"/>
      </g>
     </g>
     <g id="text_4">
      <!-- 600 -->
      <defs>
       <path d="M 33.015625 40.375 
Q 26.375 40.375 22.484375 35.828125 
Q 18.609375 31.296875 18.609375 23.390625 
Q 18.609375 15.53125 22.484375 10.953125 
Q 26.375 6.390625 33.015625 6.390625 
Q 39.65625 6.390625 43.53125 10.953125 
Q 47.40625 15.53125 47.40625 23.390625 
Q 47.40625 31.296875 43.53125 35.828125 
Q 39.65625 40.375 33.015625 40.375 
z
M 52.59375 71.296875 
L 52.59375 62.3125 
Q 48.875 64.0625 45.09375 64.984375 
Q 41.3125 65.921875 37.59375 65.921875 
Q 27.828125 65.921875 22.671875 59.328125 
Q 17.53125 52.734375 16.796875 39.40625 
Q 19.671875 43.65625 24.015625 45.921875 
Q 28.375 48.1875 33.59375 48.1875 
Q 44.578125 48.1875 50.953125 41.515625 
Q 57.328125 34.859375 57.328125 23.390625 
Q 57.328125 12.15625 50.6875 5.359375 
Q 44.046875 -1.421875 33.015625 -1.421875 
Q 20.359375 -1.421875 13.671875 8.265625 
Q 6.984375 17.96875 6.984375 36.375 
Q 6.984375 53.65625 15.1875 63.9375 
Q 23.390625 74.21875 37.203125 74.21875 
Q 40.921875 74.21875 44.703125 73.484375 
Q 48.484375 72.75 52.59375 71.296875 
z
" id="DejaVuSans-36"/>
      </defs>
      <g transform="translate(284.265341 399.078438)scale(0.1 -0.1)">
       <use xlink:href="#DejaVuSans-36"/>
       <use x="63.623047" xlink:href="#DejaVuSans-30"/>
       <use x="127.246094" xlink:href="#DejaVuSans-30"/>
      </g>
     </g>
    </g>
    <g id="xtick_5">
     <g id="line2d_5">
      <g>
       <use style="stroke:#000000;stroke-width:0.8;" x="364.827273" xlink:href="#md3c0b9f125" y="384.48"/>
      </g>
     </g>
     <g id="text_5">
      <!-- 800 -->
      <defs>
       <path d="M 31.78125 34.625 
Q 24.75 34.625 20.71875 30.859375 
Q 16.703125 27.09375 16.703125 20.515625 
Q 16.703125 13.921875 20.71875 10.15625 
Q 24.75 6.390625 31.78125 6.390625 
Q 38.8125 6.390625 42.859375 10.171875 
Q 46.921875 13.96875 46.921875 20.515625 
Q 46.921875 27.09375 42.890625 30.859375 
Q 38.875 34.625 31.78125 34.625 
z
M 21.921875 38.8125 
Q 15.578125 40.375 12.03125 44.71875 
Q 8.5 49.078125 8.5 55.328125 
Q 8.5 64.0625 14.71875 69.140625 
Q 20.953125 74.21875 31.78125 74.21875 
Q 42.671875 74.21875 48.875 69.140625 
Q 55.078125 64.0625 55.078125 55.328125 
Q 55.078125 49.078125 51.53125 44.71875 
Q 48 40.375 41.703125 38.8125 
Q 48.828125 37.15625 52.796875 32.3125 
Q 56.78125 27.484375 56.78125 20.515625 
Q 56.78125 9.90625 50.3125 4.234375 
Q 43.84375 -1.421875 31.78125 -1.421875 
Q 19.734375 -1.421875 13.25 4.234375 
Q 6.78125 9.90625 6.78125 20.515625 
Q 6.78125 27.484375 10.78125 32.3125 
Q 14.796875 37.15625 21.921875 38.8125 
z
M 18.3125 54.390625 
Q 18.3125 48.734375 21.84375 45.5625 
Q 25.390625 42.390625 31.78125 42.390625 
Q 38.140625 42.390625 41.71875 45.5625 
Q 45.3125 48.734375 45.3125 54.390625 
Q 45.3125 60.0625 41.71875 63.234375 
Q 38.140625 66.40625 31.78125 66.40625 
Q 25.390625 66.40625 21.84375 63.234375 
Q 18.3125 60.0625 18.3125 54.390625 
z
" id="DejaVuSans-38"/>
      </defs>
      <g transform="translate(355.283523 399.078438)scale(0.1 -0.1)">
       <use xlink:href="#DejaVuSans-38"/>
       <use x="63.623047" xlink:href="#DejaVuSans-30"/>
       <use x="127.246094" xlink:href="#DejaVuSans-30"/>
      </g>
     </g>
    </g>
    <g id="text_6">
     <!-- time [ms] -->
     <defs>
      <path d="M 18.3125 70.21875 
L 18.3125 54.6875 
L 36.8125 54.6875 
L 36.8125 47.703125 
L 18.3125 47.703125 
L 18.3125 18.015625 
Q 18.3125 11.328125 20.140625 9.421875 
Q 21.96875 7.515625 27.59375 7.515625 
L 36.8125 7.515625 
L 36.8125 0 
L 27.59375 0 
Q 17.1875 0 13.234375 3.875 
Q 9.28125 7.765625 9.28125 18.015625 
L 9.28125 47.703125 
L 2.6875 47.703125 
L 2.6875 54.6875 
L 9.28125 54.6875 
L 9.28125 70.21875 
z
" id="DejaVuSans-74"/>
      <path d="M 9.421875 54.6875 
L 18.40625 54.6875 
L 18.40625 0 
L 9.421875 0 
z
M 9.421875 75.984375 
L 18.40625 75.984375 
L 18.40625 64.59375 
L 9.421875 64.59375 
z
" id="DejaVuSans-69"/>
      <path d="M 52 44.1875 
Q 55.375 50.25 60.0625 53.125 
Q 64.75 56 71.09375 56 
Q 79.640625 56 84.28125 50.015625 
Q 88.921875 44.046875 88.921875 33.015625 
L 88.921875 0 
L 79.890625 0 
L 79.890625 32.71875 
Q 79.890625 40.578125 77.09375 44.375 
Q 74.3125 48.1875 68.609375 48.1875 
Q 61.625 48.1875 57.5625 43.546875 
Q 53.515625 38.921875 53.515625 30.90625 
L 53.515625 0 
L 44.484375 0 
L 44.484375 32.71875 
Q 44.484375 40.625 41.703125 44.40625 
Q 38.921875 48.1875 33.109375 48.1875 
Q 26.21875 48.1875 22.15625 43.53125 
Q 18.109375 38.875 18.109375 30.90625 
L 18.109375 0 
L 9.078125 0 
L 9.078125 54.6875 
L 18.109375 54.6875 
L 18.109375 46.1875 
Q 21.1875 51.21875 25.484375 53.609375 
Q 29.78125 56 35.6875 56 
Q 41.65625 56 45.828125 52.96875 
Q 50 49.953125 52 44.1875 
z
" id="DejaVuSans-6d"/>
      <path d="M 56.203125 29.59375 
L 56.203125 25.203125 
L 14.890625 25.203125 
Q 15.484375 15.921875 20.484375 11.0625 
Q 25.484375 6.203125 34.421875 6.203125 
Q 39.59375 6.203125 44.453125 7.46875 
Q 49.3125 8.734375 54.109375 11.28125 
L 54.109375 2.78125 
Q 49.265625 0.734375 44.1875 -0.34375 
Q 39.109375 -1.421875 33.890625 -1.421875 
Q 20.796875 -1.421875 13.15625 6.1875 
Q 5.515625 13.8125 5.515625 26.8125 
Q 5.515625 40.234375 12.765625 48.109375 
Q 20.015625 56 32.328125 56 
Q 43.359375 56 49.78125 48.890625 
Q 56.203125 41.796875 56.203125 29.59375 
z
M 47.21875 32.234375 
Q 47.125 39.59375 43.09375 43.984375 
Q 39.0625 48.390625 32.421875 48.390625 
Q 24.90625 48.390625 20.390625 44.140625 
Q 15.875 39.890625 15.1875 32.171875 
z
" id="DejaVuSans-65"/>
      <path id="DejaVuSans-20"/>
      <path d="M 8.59375 75.984375 
L 29.296875 75.984375 
L 29.296875 69 
L 17.578125 69 
L 17.578125 -6.203125 
L 29.296875 -6.203125 
L 29.296875 -13.1875 
L 8.59375 -13.1875 
z
" id="DejaVuSans-5b"/>
      <path d="M 44.28125 53.078125 
L 44.28125 44.578125 
Q 40.484375 46.53125 36.375 47.5 
Q 32.28125 48.484375 27.875 48.484375 
Q 21.1875 48.484375 17.84375 46.4375 
Q 14.5 44.390625 14.5 40.28125 
Q 14.5 37.15625 16.890625 35.375 
Q 19.28125 33.59375 26.515625 31.984375 
L 29.59375 31.296875 
Q 39.15625 29.25 43.1875 25.515625 
Q 47.21875 21.78125 47.21875 15.09375 
Q 47.21875 7.46875 41.1875 3.015625 
Q 35.15625 -1.421875 24.609375 -1.421875 
Q 20.21875 -1.421875 15.453125 -0.5625 
Q 10.6875 0.296875 5.421875 2 
L 5.421875 11.28125 
Q 10.40625 8.6875 15.234375 7.390625 
Q 20.0625 6.109375 24.8125 6.109375 
Q 31.15625 6.109375 34.5625 8.28125 
Q 37.984375 10.453125 37.984375 14.40625 
Q 37.984375 18.0625 35.515625 20.015625 
Q 33.0625 21.96875 24.703125 23.78125 
L 21.578125 24.515625 
Q 13.234375 26.265625 9.515625 29.90625 
Q 5.8125 33.546875 5.8125 39.890625 
Q 5.8125 47.609375 11.28125 51.796875 
Q 16.75 56 26.8125 56 
Q 31.78125 56 36.171875 55.265625 
Q 40.578125 54.546875 44.28125 53.078125 
z
" id="DejaVuSans-73"/>
      <path d="M 30.421875 75.984375 
L 30.421875 -13.1875 
L 9.71875 -13.1875 
L 9.71875 -6.203125 
L 21.390625 -6.203125 
L 21.390625 69 
L 9.71875 69 
L 9.71875 75.984375 
z
" id="DejaVuSans-5d"/>
     </defs>
     <g transform="translate(234.038281 412.756563)scale(0.1 -0.1)">
      <use xlink:href="#DejaVuSans-74"/>
      <use x="39.208984" xlink:href="#DejaVuSans-69"/>
      <use x="66.992188" xlink:href="#DejaVuSans-6d"/>
      <use x="164.404297" xlink:href="#DejaVuSans-65"/>
      <use x="225.927734" xlink:href="#DejaVuSans-20"/>
      <use x="257.714844" xlink:href="#DejaVuSans-5b"/>
      <use x="296.728516" xlink:href="#DejaVuSans-6d"/>
      <use x="394.140625" xlink:href="#DejaVuSans-73"/>
      <use x="446.240234" xlink:href="#DejaVuSans-5d"/>
     </g>
    </g>
   </g>
   <g id="matplotlib.axis_2">
    <g id="ytick_1">
     <g id="line2d_6">
      <defs>
       <path d="M 0 0 
L -3.5 0 
" id="mf14817b58b" style="stroke:#000000;stroke-width:0.8;"/>
      </defs>
      <g>
       <use style="stroke:#000000;stroke-width:0.8;" x="63" xlink:href="#mf14817b58b" y="382.29529"/>
      </g>
     </g>
     <g id="text_7">
      <!-- −80 -->
      <defs>
       <path d="M 10.59375 35.5 
L 73.1875 35.5 
L 73.1875 27.203125 
L 10.59375 27.203125 
z
" id="DejaVuSans-2212"/>
      </defs>
      <g transform="translate(34.895313 386.094508)scale(0.1 -0.1)">
       <use xlink:href="#DejaVuSans-2212"/>
       <use x="83.789062" xlink:href="#DejaVuSans-38"/>
       <use x="147.412109" xlink:href="#DejaVuSans-30"/>
      </g>
     </g>
    </g>
    <g id="ytick_2">
     <g id="line2d_7">
      <g>
       <use style="stroke:#000000;stroke-width:0.8;" x="63" xlink:href="#mf14817b58b" y="329.597035"/>
      </g>
     </g>
     <g id="text_8">
      <!-- −60 -->
      <g transform="translate(34.895313 333.396254)scale(0.1 -0.1)">
       <use xlink:href="#DejaVuSans-2212"/>
       <use x="83.789062" xlink:href="#DejaVuSans-36"/>
       <use x="147.412109" xlink:href="#DejaVuSans-30"/>
      </g>
     </g>
    </g>
    <g id="ytick_3">
     <g id="line2d_8">
      <g>
       <use style="stroke:#000000;stroke-width:0.8;" x="63" xlink:href="#mf14817b58b" y="276.89878"/>
      </g>
     </g>
     <g id="text_9">
      <!-- −40 -->
      <g transform="translate(34.895313 280.697999)scale(0.1 -0.1)">
       <use xlink:href="#DejaVuSans-2212"/>
       <use x="83.789062" xlink:href="#DejaVuSans-34"/>
       <use x="147.412109" xlink:href="#DejaVuSans-30"/>
      </g>
     </g>
    </g>
    <g id="ytick_4">
     <g id="line2d_9">
      <g>
       <use style="stroke:#000000;stroke-width:0.8;" x="63" xlink:href="#mf14817b58b" y="224.200525"/>
      </g>
     </g>
     <g id="text_10">
      <!-- −20 -->
      <g transform="translate(34.895313 227.999744)scale(0.1 -0.1)">
       <use xlink:href="#DejaVuSans-2212"/>
       <use x="83.789062" xlink:href="#DejaVuSans-32"/>
       <use x="147.412109" xlink:href="#DejaVuSans-30"/>
      </g>
     </g>
    </g>
    <g id="ytick_5">
     <g id="line2d_10">
      <g>
       <use style="stroke:#000000;stroke-width:0.8;" x="63" xlink:href="#mf14817b58b" y="171.502271"/>
      </g>
     </g>
     <g id="text_11">
      <!-- 0 -->
      <g transform="translate(49.6375 175.301489)scale(0.1 -0.1)">
       <use xlink:href="#DejaVuSans-30"/>
      </g>
     </g>
    </g>
    <g id="ytick_6">
     <g id="line2d_11">
      <g>
       <use style="stroke:#000000;stroke-width:0.8;" x="63" xlink:href="#mf14817b58b" y="118.804016"/>
      </g>
     </g>
     <g id="text_12">
      <!-- 20 -->
      <g transform="translate(43.275 122.603235)scale(0.1 -0.1)">
       <use xlink:href="#DejaVuSans-32"/>
       <use x="63.623047" xlink:href="#DejaVuSans-30"/>
      </g>
     </g>
    </g>
    <g id="ytick_7">
     <g id="line2d_12">
      <g>
       <use style="stroke:#000000;stroke-width:0.8;" x="63" xlink:href="#mf14817b58b" y="66.105761"/>
      </g>
     </g>
     <g id="text_13">
      <!-- 40 -->
      <g transform="translate(43.275 69.90498)scale(0.1 -0.1)">
       <use xlink:href="#DejaVuSans-34"/>
       <use x="63.623047" xlink:href="#DejaVuSans-30"/>
      </g>
     </g>
    </g>
    <g id="text_14">
     <!-- voltage [mV] -->
     <defs>
      <path d="M 2.984375 54.6875 
L 12.5 54.6875 
L 29.59375 8.796875 
L 46.6875 54.6875 
L 56.203125 54.6875 
L 35.6875 0 
L 23.484375 0 
z
" id="DejaVuSans-76"/>
      <path d="M 30.609375 48.390625 
Q 23.390625 48.390625 19.1875 42.75 
Q 14.984375 37.109375 14.984375 27.296875 
Q 14.984375 17.484375 19.15625 11.84375 
Q 23.34375 6.203125 30.609375 6.203125 
Q 37.796875 6.203125 41.984375 11.859375 
Q 46.1875 17.53125 46.1875 27.296875 
Q 46.1875 37.015625 41.984375 42.703125 
Q 37.796875 48.390625 30.609375 48.390625 
z
M 30.609375 56 
Q 42.328125 56 49.015625 48.375 
Q 55.71875 40.765625 55.71875 27.296875 
Q 55.71875 13.875 49.015625 6.21875 
Q 42.328125 -1.421875 30.609375 -1.421875 
Q 18.84375 -1.421875 12.171875 6.21875 
Q 5.515625 13.875 5.515625 27.296875 
Q 5.515625 40.765625 12.171875 48.375 
Q 18.84375 56 30.609375 56 
z
" id="DejaVuSans-6f"/>
      <path d="M 9.421875 75.984375 
L 18.40625 75.984375 
L 18.40625 0 
L 9.421875 0 
z
" id="DejaVuSans-6c"/>
      <path d="M 34.28125 27.484375 
Q 23.390625 27.484375 19.1875 25 
Q 14.984375 22.515625 14.984375 16.5 
Q 14.984375 11.71875 18.140625 8.90625 
Q 21.296875 6.109375 26.703125 6.109375 
Q 34.1875 6.109375 38.703125 11.40625 
Q 43.21875 16.703125 43.21875 25.484375 
L 43.21875 27.484375 
z
M 52.203125 31.203125 
L 52.203125 0 
L 43.21875 0 
L 43.21875 8.296875 
Q 40.140625 3.328125 35.546875 0.953125 
Q 30.953125 -1.421875 24.3125 -1.421875 
Q 15.921875 -1.421875 10.953125 3.296875 
Q 6 8.015625 6 15.921875 
Q 6 25.140625 12.171875 29.828125 
Q 18.359375 34.515625 30.609375 34.515625 
L 43.21875 34.515625 
L 43.21875 35.40625 
Q 43.21875 41.609375 39.140625 45 
Q 35.0625 48.390625 27.6875 48.390625 
Q 23 48.390625 18.546875 47.265625 
Q 14.109375 46.140625 10.015625 43.890625 
L 10.015625 52.203125 
Q 14.9375 54.109375 19.578125 55.046875 
Q 24.21875 56 28.609375 56 
Q 40.484375 56 46.34375 49.84375 
Q 52.203125 43.703125 52.203125 31.203125 
z
" id="DejaVuSans-61"/>
      <path d="M 45.40625 27.984375 
Q 45.40625 37.75 41.375 43.109375 
Q 37.359375 48.484375 30.078125 48.484375 
Q 22.859375 48.484375 18.828125 43.109375 
Q 14.796875 37.75 14.796875 27.984375 
Q 14.796875 18.265625 18.828125 12.890625 
Q 22.859375 7.515625 30.078125 7.515625 
Q 37.359375 7.515625 41.375 12.890625 
Q 45.40625 18.265625 45.40625 27.984375 
z
M 54.390625 6.78125 
Q 54.390625 -7.171875 48.1875 -13.984375 
Q 42 -20.796875 29.203125 -20.796875 
Q 24.46875 -20.796875 20.265625 -20.09375 
Q 16.0625 -19.390625 12.109375 -17.921875 
L 12.109375 -9.1875 
Q 16.0625 -11.328125 19.921875 -12.34375 
Q 23.78125 -13.375 27.78125 -13.375 
Q 36.625 -13.375 41.015625 -8.765625 
Q 45.40625 -4.15625 45.40625 5.171875 
L 45.40625 9.625 
Q 42.625 4.78125 38.28125 2.390625 
Q 33.9375 0 27.875 0 
Q 17.828125 0 11.671875 7.65625 
Q 5.515625 15.328125 5.515625 27.984375 
Q 5.515625 40.671875 11.671875 48.328125 
Q 17.828125 56 27.875 56 
Q 33.9375 56 38.28125 53.609375 
Q 42.625 51.21875 45.40625 46.390625 
L 45.40625 54.6875 
L 54.390625 54.6875 
z
" id="DejaVuSans-67"/>
      <path d="M 28.609375 0 
L 0.78125 72.90625 
L 11.078125 72.90625 
L 34.1875 11.53125 
L 57.328125 72.90625 
L 67.578125 72.90625 
L 39.796875 0 
z
" id="DejaVuSans-56"/>
     </defs>
     <g transform="translate(28.815625 250.624062)rotate(-90)scale(0.1 -0.1)">
      <use xlink:href="#DejaVuSans-76"/>
      <use x="59.179688" xlink:href="#DejaVuSans-6f"/>
      <use x="120.361328" xlink:href="#DejaVuSans-6c"/>
      <use x="148.144531" xlink:href="#DejaVuSans-74"/>
      <use x="187.353516" xlink:href="#DejaVuSans-61"/>
      <use x="248.632812" xlink:href="#DejaVuSans-67"/>
      <use x="312.109375" xlink:href="#DejaVuSans-65"/>
      <use x="373.632812" xlink:href="#DejaVuSans-20"/>
      <use x="405.419922" xlink:href="#DejaVuSans-5b"/>
      <use x="444.433594" xlink:href="#DejaVuSans-6d"/>
      <use x="541.845703" xlink:href="#DejaVuSans-56"/>
      <use x="610.253906" xlink:href="#DejaVuSans-5d"/>
     </g>
    </g>
   </g>
   <g id="line2d_13">
    <path clip-path="url(#p5fa2378706)" d="M 80.754545 342.771599 
L 81.952977 342.634847 
L 83.763941 342.691761 
L 87.749836 342.699138 
L 151.772727 342.7023 
L 152.314241 298.009438 
L 152.420768 249.188984 
L 152.562805 66.96 
L 152.678209 92.273607 
L 153.565936 369.359976 
L 153.610323 369.259059 
L 153.8145 367.874939 
L 154.293873 363.103112 
L 154.959668 353.947054 
L 157.42755 314.90766 
L 157.613973 303.738001 
L 157.738255 281.688788 
L 157.835905 218.894075 
L 157.969064 91.413835 
L 158.031205 104.616328 
L 158.883423 368.933911 
L 158.945564 368.74973 
L 159.203005 366.763006 
L 159.717886 361.068433 
L 160.534595 349.095916 
L 161.8218 330.896574 
L 162.514227 320.490513 
L 162.771668 312.941224 
L 162.940336 300.904153 
L 163.064618 272.831265 
L 163.162268 188.110468 
L 163.268795 92.337635 
L 163.322059 101.887086 
L 163.863573 297.730137 
L 164.147645 368.756581 
L 164.183155 368.902028 
L 164.245295 368.719956 
L 164.493859 366.809117 
L 165.008741 361.134305 
L 165.834327 349.038212 
L 167.112655 330.971405 
L 167.813959 320.454942 
L 168.0714 312.895904 
L 168.240068 300.819308 
L 168.36435 272.584111 
L 168.462 187.362021 
L 168.568527 92.414838 
L 168.621791 102.109999 
L 169.172182 301.696998 
L 169.4385 368.670419 
L 169.482886 368.89992 
L 169.545027 368.713895 
L 169.802468 366.719003 
L 170.31735 361.006512 
L 171.151814 348.748108 
L 172.430141 330.727676 
L 173.113691 320.436497 
L 173.371132 312.859279 
L 173.5398 300.723134 
L 173.664082 272.244734 
L 173.761732 186.206322 
L 173.868259 92.431701 
L 173.921523 102.346878 
L 174.480791 305.783748 
L 174.729355 368.560543 
L 174.782618 368.89992 
L 174.844759 368.70968 
L 175.1022 366.711625 
L 175.617082 360.995709 
L 176.451545 348.735197 
L 177.729873 330.716873 
L 178.413423 320.419634 
L 178.670864 312.82318 
L 178.839532 300.625642 
L 178.963814 271.896398 
L 179.061464 185.016791 
L 179.167991 92.449092 
L 179.221255 102.586392 
L 179.7894 309.974049 
L 180.029086 368.572928 
L 180.08235 368.900184 
L 180.144491 368.7052 
L 180.401932 366.704247 
L 180.916814 360.985169 
L 181.751277 348.722812 
L 183.029605 330.706333 
L 183.713155 320.402507 
L 183.970595 312.786819 
L 184.139264 300.527097 
L 184.263545 271.539895 
L 184.361195 183.806338 
L 184.467723 92.47307 
L 184.520986 102.829594 
L 185.098009 314.256573 
L 185.328818 368.585048 
L 185.382082 368.900184 
L 185.444223 368.700984 
L 185.701664 366.696606 
L 186.216545 360.97463 
L 187.051009 348.710165 
L 188.329336 330.695793 
L 189.012886 320.385643 
L 189.270327 312.750193 
L 189.438995 300.42697 
L 189.563277 271.178121 
L 189.660927 182.591064 
L 189.767455 92.502844 
L 189.820718 103.075168 
L 190.406618 318.611557 
L 190.619673 368.450668 
L 190.681814 368.89992 
L 190.743955 368.696505 
L 191.010273 366.607546 
L 191.525155 360.848681 
L 192.368495 348.423486 
L 193.637945 330.569318 
L 194.312618 320.368253 
L 194.570059 312.713568 
L 194.738727 300.326316 
L 194.863009 270.812922 
L 194.969536 167.960553 
L 195.058309 92.489406 
L 195.12045 103.323377 
L 195.715227 323.012915 
L 195.919405 368.466214 
L 195.981545 368.89992 
L 196.043686 368.692026 
L 196.310005 366.599905 
L 196.833764 360.722205 
L 197.703736 347.863567 
L 198.955432 330.327169 
L 199.61235 320.351126 
L 199.869791 312.676416 
L 200.038459 300.224609 
L 200.162741 270.440346 
L 200.269268 166.692343 
L 200.358041 92.459895 
L 200.420182 103.575801 
L 201.023836 327.423495 
L 201.219136 368.480969 
L 201.281277 368.899393 
L 201.343418 368.687546 
L 201.609736 366.592264 
L 202.133495 360.711138 
L 202.994591 347.987408 
L 204.255164 330.316366 
L 204.912082 320.333472 
L 205.169523 312.638737 
L 205.338191 300.12132 
L 205.462473 270.060128 
L 205.569 165.415622 
L 205.657773 92.437498 
L 205.719914 103.83007 
L 206.332445 331.795079 
L 206.518868 368.495725 
L 206.581009 368.89913 
L 206.634273 368.729705 
L 206.873959 366.907663 
L 207.388841 361.274746 
L 208.187795 349.618946 
L 209.510509 330.883399 
L 210.202936 320.501053 
L 210.460377 312.99524 
L 210.629045 301.088333 
L 210.753327 273.540847 
L 210.850977 190.680931 
L 210.957505 92.422216 
L 211.019645 104.085393 
L 211.641055 336.073387 
L 211.827477 368.641962 
L 211.880741 368.898603 
L 211.934005 368.725489 
L 212.182568 366.820184 
L 212.69745 361.150115 
L 213.514159 349.194462 
L 214.810241 330.872596 
L 215.502668 320.483926 
L 215.760109 312.959142 
L 215.928777 300.991632 
L 216.053059 273.200153 
L 216.150709 189.497328 
L 216.257236 92.415892 
L 216.319377 104.34019 
L 216.949664 340.194654 
L 217.127209 368.652502 
L 217.171595 368.89913 
L 217.233736 368.721273 
L 217.4823 366.812806 
L 217.997182 361.139575 
L 218.822768 349.044535 
L 220.101095 330.977202 
L 220.8024 320.466799 
L 221.059841 312.923307 
L 221.228509 300.895194 
L 221.352791 272.858141 
L 221.450441 188.314305 
L 221.556968 92.416419 
L 221.610232 101.924238 
L 222.151745 297.785733 
L 222.426941 368.662515 
L 222.471327 368.899393 
L 222.533468 368.717057 
L 222.782032 366.805428 
L 223.296914 361.129036 
L 224.1225 349.031624 
L 225.418582 330.735844 
L 226.111009 320.26391 
L 226.36845 312.48881 
L 226.537118 299.706321 
L 226.652523 272.513495 
L 226.750173 187.126565 
L 226.8567 92.422479 
L 226.909964 102.162698 
L 227.460355 301.77262 
L 227.726673 368.672264 
L 227.771059 368.89992 
L 227.8332 368.712841 
L 228.090641 366.717159 
L 228.605523 361.003877 
L 229.439986 348.744946 
L 230.718314 330.725041 
L 231.401864 320.432545 
L 231.659305 312.850847 
L 231.827973 300.701001 
L 231.952255 272.166477 
L 232.049905 185.938615 
L 232.156432 92.43539 
L 232.209695 102.400894 
L 232.768964 305.862531 
L 233.017527 368.563442 
L 233.070791 368.89992 
L 233.132932 368.708626 
L 233.390373 366.709781 
L 233.905255 360.993338 
L 234.739718 348.732298 
L 236.018045 330.714501 
L 236.701595 320.415681 
L 236.959036 312.815012 
L 237.127705 300.603509 
L 237.251986 271.816297 
L 237.349636 184.743867 
L 237.456164 92.453835 
L 237.509427 102.641461 
L 238.077573 310.055205 
L 238.317259 368.575562 
L 238.370523 368.900184 
L 238.432664 368.70441 
L 238.690105 366.702403 
L 239.204986 360.982798 
L 240.03945 348.719914 
L 241.317777 330.703962 
L 242.001327 320.398818 
L 242.258768 312.77865 
L 242.427436 300.504436 
L 242.551718 271.457949 
L 242.649368 183.530595 
L 242.755895 92.479393 
L 242.809159 102.885191 
L 243.386182 314.339573 
L 243.616991 368.587683 
L 243.670255 368.900184 
L 243.732395 368.69993 
L 243.989836 366.695025 
L 244.504718 360.972258 
L 245.348059 348.570251 
L 246.617509 330.693159 
L 247.301059 320.381691 
L 247.5585 312.742025 
L 247.727168 300.404046 
L 247.85145 271.095648 
L 247.9491 182.314135 
L 248.055627 92.510749 
L 248.108891 103.131292 
L 248.694791 318.696401 
L 248.907845 368.454356 
L 248.969986 368.89992 
L 249.032127 368.695714 
L 249.298445 366.605965 
L 249.822205 360.730637 
L 250.692177 347.87358 
L 251.943873 330.335601 
L 252.600791 320.364301 
L 252.858232 312.705136 
L 253.0269 300.303129 
L 253.151182 270.728605 
L 253.257709 167.671819 
L 253.346482 92.482028 
L 253.408623 103.380818 
L 254.0034 323.09934 
L 254.207577 368.469639 
L 254.269718 368.899657 
L 254.331859 368.691235 
L 254.598177 366.598324 
L 255.121936 360.71957 
L 255.983032 347.997421 
L 257.22585 330.556143 
L 257.900523 320.347174 
L 258.157964 312.667984 
L 258.326632 300.201158 
L 258.450914 270.354184 
L 258.557441 166.401001 
L 258.646214 92.454098 
L 258.708355 103.634033 
L 259.312009 327.50992 
L 259.507309 368.484394 
L 259.56945 368.899393 
L 259.631591 368.686492 
L 259.897909 366.590419 
L 260.421668 360.708767 
L 261.291641 347.848021 
L 262.525582 330.54534 
L 263.200255 320.32952 
L 263.457695 312.630305 
L 263.626364 300.097606 
L 263.750645 269.972649 
L 263.857173 165.123753 
L 263.945945 92.433282 
L 264.008086 103.888302 
L 264.620618 331.880187 
L 264.807041 368.49915 
L 264.869182 368.898866 
L 264.922445 368.728914 
L 265.171009 366.82598 
L 265.685891 361.158547 
L 266.511477 349.067196 
L 267.807559 330.765619 
L 268.499986 320.312129 
L 268.757427 312.592626 
L 268.926095 299.994054 
L 269.050377 269.591113 
L 269.156905 163.856017 
L 269.245677 92.420108 
L 269.298941 101.503969 
L 269.8227 290.196921 
L 270.133405 368.811387 
L 270.168914 368.898603 
L 270.222177 368.724699 
L 270.470741 366.818603 
L 270.985623 361.147743 
L 271.802332 349.191563 
L 273.098414 330.870225 
L 273.790841 320.479973 
L 274.048282 312.950974 
L 274.21695 300.969762 
L 274.341232 273.12216 
L 274.438882 189.226565 
L 274.545409 92.415628 
L 274.598673 101.740848 
L 275.131309 293.978285 
L 275.424259 368.749203 
L 275.459768 368.89913 
L 275.521909 368.720483 
L 275.770473 366.811225 
L 276.285355 361.137204 
L 277.110941 349.041637 
L 278.389268 330.974831 
L 279.090573 320.462846 
L 279.348014 312.914875 
L 279.516682 300.873061 
L 279.640964 272.779621 
L 279.738614 188.043436 
L 279.845141 92.416946 
L 279.898405 101.978781 
L 280.439918 297.861882 
L 280.715114 368.664623 
L 280.7595 368.899657 
L 280.821641 368.716267 
L 281.079082 366.722955 
L 281.593964 361.012045 
L 282.428427 348.754695 
L 283.706755 330.733209 
L 284.390305 320.445719 
L 284.647745 312.878777 
L 284.816414 300.776096 
L 284.940695 272.434448 
L 285.038345 186.855591 
L 285.144873 92.424851 
L 285.198136 102.216977 
L 285.748527 301.849823 
L 286.014845 368.674372 
L 286.059232 368.89992 
L 286.121373 368.711787 
L 286.378814 366.715578 
L 286.893695 361.001506 
L 287.728159 348.742047 
L 289.006486 330.72267 
L 289.690036 320.428856 
L 289.947477 312.842679 
L 290.116145 300.678868 
L 290.240427 272.086903 
L 290.338077 185.666745 
L 290.444605 92.439079 
L 290.497868 102.455436 
L 291.057136 305.942106 
L 291.3057 368.56634 
L 291.358964 368.900184 
L 291.421105 368.707572 
L 291.678545 366.7082 
L 292.193427 360.990966 
L 293.027891 348.7294 
L 294.315095 330.596457 
L 294.989768 320.411729 
L 295.247209 312.80658 
L 295.415877 300.581112 
L 295.540159 271.735142 
L 295.637809 184.46807 
L 295.744336 92.459105 
L 295.7976 102.696794 
L 296.365745 310.136887 
L 296.605432 368.578461 
L 296.658695 368.900184 
L 296.720836 368.703356 
L 296.978277 366.700822 
L 297.493159 360.980427 
L 298.327623 348.717016 
L 299.60595 330.70159 
L 300.2895 320.394866 
L 300.546941 312.770219 
L 300.715609 300.481513 
L 300.839891 271.37574 
L 300.937541 183.254456 
L 301.044068 92.485981 
L 301.097332 102.940787 
L 301.674355 314.422572 
L 301.905164 368.590318 
L 301.958427 368.900184 
L 302.020568 368.69914 
L 302.286886 366.611762 
L 302.810645 360.738805 
L 303.671741 348.020081 
L 304.914559 330.575378 
L 305.589232 320.377739 
L 305.846673 312.733593 
L 306.015341 300.381386 
L 306.139623 271.012912 
L 306.24615 168.647211 
L 306.334923 92.508114 
L 306.397064 103.187679 
L 306.982964 318.781245 
L 307.196018 368.457782 
L 307.258159 368.89992 
L 307.3203 368.694661 
L 307.586618 366.604121 
L 308.110377 360.728002 
L 308.971473 348.007434 
L 310.214291 330.564575 
L 310.888964 320.360612 
L 311.146405 312.696705 
L 311.315073 300.280205 
L 311.439355 270.644024 
L 311.545882 167.384113 
L 311.634655 92.475177 
L 311.696795 103.437995 
L 312.291573 323.185238 
L 312.49575 368.473064 
L 312.557891 368.899657 
L 312.620032 368.690181 
L 312.88635 366.59648 
L 313.410109 360.717199 
L 314.280082 347.857771 
L 315.531777 330.322163 
L 316.188695 320.342958 
L 316.446136 312.659289 
L 316.614805 300.177707 
L 316.739086 270.268286 
L 316.845614 166.110765 
L 316.934386 92.448828 
L 316.996527 103.691738 
L 317.600182 327.596082 
L 317.795482 368.48782 
L 317.857623 368.899393 
L 317.910886 368.732076 
L 318.150573 366.911615 
L 318.665455 361.280543 
L 319.464409 349.625797 
L 320.787123 330.88946 
L 321.488427 320.325567 
L 321.745868 312.62161 
L 321.914536 300.073892 
L 322.038818 269.885433 
L 322.145345 164.83328 
L 322.234118 92.429593 
L 322.296259 103.946534 
L 322.908791 331.965031 
L 323.095214 368.502575 
L 323.157355 368.898866 
L 323.210618 368.72786 
L 323.459182 366.824399 
L 323.974064 361.155912 
L 324.790773 349.201313 
L 326.095732 330.762984 
L 326.779282 320.493148 
L 327.036723 312.978904 
L 327.205391 301.04433 
L 327.329673 273.385651 
L 327.427323 190.141301 
L 327.53385 92.418263 
L 327.595991 104.201593 
L 328.2174 336.237278 
L 328.403823 368.646705 
L 328.457086 368.898339 
L 328.51035 368.723645 
L 328.758914 366.816758 
L 329.273795 361.145372 
L 329.318182 360.568063 
L 329.335936 361.472892 
L 329.531236 365.485337 
L 329.620009 365.67426 
L 329.664395 365.616555 
L 329.815309 365.00631 
L 330.214786 362.173515 
L 332.176664 347.333423 
L 332.869091 344.093271 
L 333.428359 342.428533 
L 333.889977 341.681272 
L 334.262823 341.453088 
L 334.609036 341.489977 
L 335.061777 341.780608 
L 336.553159 342.876732 
L 337.156814 342.97396 
L 338.097805 342.863294 
L 339.580309 342.667783 
L 342.092577 342.704145 
L 435.845455 342.7023 
L 435.845455 342.7023 
" style="fill:none;stroke:#1f77b4;stroke-linecap:square;stroke-width:1.5;"/>
   </g>
   <g id="line2d_14">
    <path clip-path="url(#p5fa2378706)" d="M 80.754545 342.771599 
L 81.873082 342.637096 
L 83.639659 342.686525 
L 86.649055 342.70441 
L 100.178018 342.702178 
L 151.772727 342.702184 
L 152.314241 298.009453 
L 152.420768 249.188909 
L 152.562805 66.960064 
L 152.678209 92.273664 
L 153.565936 369.36 
L 153.610323 369.259088 
L 153.8145 367.875007 
L 154.293873 363.103112 
L 154.959668 353.947107 
L 157.42755 314.907579 
L 157.613973 303.737873 
L 157.738255 281.688667 
L 157.835905 218.893504 
L 157.969064 91.413899 
L 158.031205 104.616555 
L 158.883423 368.933982 
L 158.945564 368.749768 
L 159.203005 366.763076 
L 159.717886 361.068454 
L 160.543473 348.95867 
L 161.830677 330.78108 
L 162.514227 320.490568 
L 162.771668 312.941239 
L 162.940336 300.904106 
L 163.064618 272.830975 
L 163.162268 188.109713 
L 163.268795 92.337756 
L 163.322059 101.887196 
L 163.863573 297.73023 
L 164.147645 368.756506 
L 164.183155 368.901954 
L 164.245295 368.720037 
L 164.493859 366.809103 
L 165.008741 361.134216 
L 165.82545 349.175196 
L 167.121532 330.855902 
L 167.813959 320.454962 
L 168.0714 312.89592 
L 168.240068 300.819166 
L 168.36435 272.583822 
L 168.462 187.361244 
L 168.568527 92.414953 
L 168.621791 102.110123 
L 169.172182 301.697178 
L 169.4385 368.670322 
L 169.482886 368.899926 
L 169.545027 368.713946 
L 169.802468 366.719094 
L 170.31735 361.006365 
L 171.151814 348.747971 
L 172.430141 330.727615 
L 173.113691 320.436562 
L 173.371132 312.859135 
L 173.5398 300.722968 
L 173.664082 272.24457 
L 173.761732 186.205519 
L 173.868259 92.431797 
L 173.921523 102.346949 
L 174.480791 305.784015 
L 174.729355 368.560508 
L 174.782618 368.899986 
L 174.844759 368.709575 
L 175.1022 366.711534 
L 175.617082 360.995649 
L 176.451545 348.735186 
L 177.729873 330.716881 
L 178.413423 320.419536 
L 178.670864 312.823067 
L 178.839532 300.625683 
L 178.963814 271.896171 
L 179.061464 185.015954 
L 179.167991 92.449016 
L 179.221255 102.586586 
L 179.7894 309.97428 
L 180.029086 368.572872 
L 180.08235 368.900081 
L 180.144491 368.705301 
L 180.401932 366.704117 
L 180.916814 360.985137 
L 181.751277 348.722646 
L 183.029605 330.70631 
L 183.713155 320.402587 
L 183.970595 312.786834 
L 184.139264 300.526889 
L 184.263545 271.539599 
L 184.361195 183.805469 
L 184.467723 92.473076 
L 184.520986 102.82988 
L 185.098009 314.256786 
L 185.328818 368.584955 
L 185.382082 368.900056 
L 185.444223 368.700957 
L 185.710541 366.615167 
L 186.2343 360.743639 
L 187.095395 348.025648 
L 188.347091 330.464446 
L 189.012886 320.385489 
L 189.270327 312.750248 
L 189.438995 300.426908 
L 189.563277 271.177941 
L 189.660927 182.590172 
L 189.767455 92.502982 
L 189.820718 103.075312 
L 190.406618 318.611799 
L 190.619673 368.450739 
L 190.681814 368.899988 
L 190.743955 368.696603 
L 191.010273 366.607627 
L 191.534032 360.732951 
L 192.395127 348.01305 
L 193.646823 330.453766 
L 194.312618 320.368326 
L 194.570059 312.713469 
L 194.738727 300.326254 
L 194.863009 270.812547 
L 194.969536 167.959602 
L 195.058309 92.489339 
L 195.12045 103.323707 
L 195.715227 323.01318 
L 195.919405 368.466096 
L 195.981545 368.899779 
L 196.043686 368.692146 
L 196.310005 366.599976 
L 196.833764 360.722109 
L 197.694859 348.000278 
L 198.946555 330.442954 
L 199.61235 320.350999 
L 199.869791 312.676362 
L 200.038459 300.224505 
L 200.162741 270.440065 
L 200.269268 166.691369 
L 200.358041 92.459992 
L 200.420182 103.576064 
L 201.023836 327.423849 
L 201.219136 368.481081 
L 201.281277 368.899439 
L 201.343418 368.687615 
L 201.609736 366.59226 
L 202.133495 360.71118 
L 203.003468 347.850783 
L 204.246286 330.432056 
L 204.912082 320.333502 
L 205.169523 312.638811 
L 205.338191 300.121194 
L 205.462473 270.059902 
L 205.569 165.414629 
L 205.657773 92.437527 
L 205.719914 103.830189 
L 206.332445 331.795321 
L 206.518868 368.495807 
L 206.581009 368.899058 
L 206.634273 368.7298 
L 206.882836 366.827782 
L 207.397718 361.160845 
L 208.214427 349.207222 
L 209.510509 330.883439 
L 210.211814 320.316051 
L 210.469255 312.601258 
L 210.637923 300.017544 
L 210.762205 269.677911 
L 210.868732 164.143113 
L 210.957505 92.422354 
L 211.010768 101.450066 
L 211.52565 286.751059 
L 211.845232 368.810043 
L 211.880741 368.898605 
L 211.934005 368.725589 
L 212.182568 366.820269 
L 212.69745 361.150143 
L 213.514159 349.194363 
L 214.810241 330.872624 
L 215.502668 320.483841 
L 215.760109 312.959185 
L 215.928777 300.991667 
L 216.053059 273.199864 
L 216.150709 189.496392 
L 216.257236 92.415929 
L 216.319377 104.340318 
L 216.949664 340.194904 
L 217.127209 368.652384 
L 217.171595 368.899143 
L 217.233736 368.721348 
L 217.4823 366.812784 
L 217.997182 361.139483 
L 218.813891 349.181561 
L 220.109973 330.861865 
L 220.8024 320.466747 
L 221.059841 312.923151 
L 221.228509 300.895106 
L 221.352791 272.857878 
L 221.450441 188.313372 
L 221.556968 92.416402 
L 221.610232 101.924441 
L 222.151745 297.785893 
L 222.426941 368.662442 
L 222.471327 368.899507 
L 222.533468 368.717091 
L 222.782032 366.805332 
L 223.296914 361.128876 
L 224.113623 349.168827 
L 225.409705 330.851162 
L 226.102132 320.44966 
L 226.359573 312.887026 
L 226.528241 300.798135 
L 226.652523 272.513138 
L 226.750173 187.125606 
L 226.8567 92.422508 
L 226.909964 102.16298 
L 227.460355 301.772882 
L 227.726673 368.67225 
L 227.771059 368.899797 
L 227.8332 368.712835 
L 228.090641 366.717247 
L 228.605523 361.003748 
L 229.439986 348.744851 
L 230.718314 330.72503 
L 231.401864 320.432589 
L 231.659305 312.850884 
L 231.827973 300.700958 
L 231.952255 272.166067 
L 232.049905 185.937628 
L 232.156432 92.43555 
L 232.209695 102.401141 
L 232.768964 305.862907 
L 233.017527 368.563365 
L 233.070791 368.900018 
L 233.132932 368.708602 
L 233.390373 366.709841 
L 233.905255 360.993249 
L 234.739718 348.732322 
L 236.018045 330.714471 
L 236.701595 320.415687 
L 236.959036 312.814857 
L 237.127705 300.603374 
L 237.251986 271.815944 
L 237.349636 184.742836 
L 237.456164 92.453903 
L 237.509427 102.641621 
L 238.077573 310.055594 
L 238.317259 368.57563 
L 238.370523 368.900079 
L 238.432664 368.704316 
L 238.690105 366.702419 
L 239.204986 360.982731 
L 240.03945 348.719776 
L 241.317777 330.703891 
L 242.001327 320.398709 
L 242.258768 312.77854 
L 242.427436 300.504235 
L 242.551718 271.457692 
L 242.649368 183.529538 
L 242.755895 92.479335 
L 242.809159 102.885356 
L 243.386182 314.339788 
L 243.616991 368.587682 
L 243.670255 368.900049 
L 243.732395 368.699973 
L 243.998714 366.613459 
L 244.522473 360.741217 
L 245.383568 348.022793 
L 246.635264 330.462025 
L 247.301059 320.381596 
L 247.5585 312.741905 
L 247.727168 300.404081 
L 247.85145 271.095295 
L 247.9491 182.313045 
L 248.055627 92.510799 
L 248.108891 103.131565 
L 248.694791 318.696788 
L 248.907845 368.454273 
L 248.969986 368.899953 
L 249.032127 368.695595 
L 249.298445 366.60589 
L 249.822205 360.730489 
L 250.6833 348.01015 
L 251.934995 330.451309 
L 252.600791 320.364383 
L 252.858232 312.705021 
L 253.0269 300.303127 
L 253.151182 270.728183 
L 253.257709 167.670688 
L 253.346482 92.482036 
L 253.408623 103.381077 
L 254.0034 323.099653 
L 254.207577 368.469559 
L 254.269718 368.899714 
L 254.331859 368.691116 
L 254.598177 366.598217 
L 255.121936 360.719617 
L 255.983032 347.997343 
L 257.234727 330.440471 
L 257.900523 320.347018 
L 258.157964 312.667833 
L 258.326632 300.201087 
L 258.450914 270.353953 
L 258.557441 166.399824 
L 258.646214 92.454121 
L 258.708355 103.634206 
L 259.312009 327.510346 
L 259.507309 368.484468 
L 259.56945 368.899352 
L 259.631591 368.686576 
L 259.897909 366.590495 
L 260.421668 360.708681 
L 261.291641 347.847842 
L 262.534459 330.429563 
L 263.200255 320.329495 
L 263.457695 312.630193 
L 263.626364 300.097422 
L 263.750645 269.972337 
L 263.857173 165.122556 
L 263.945945 92.433392 
L 264.008086 103.888528 
L 264.620618 331.880484 
L 264.807041 368.499146 
L 264.869182 368.898967 
L 264.922445 368.728844 
L 265.171009 366.82607 
L 265.685891 361.158406 
L 266.5026 349.204291 
L 267.798682 330.880973 
L 268.499986 320.312076 
L 268.757427 312.592702 
L 268.926095 299.993915 
L 269.050377 269.590774 
L 269.156905 163.85484 
L 269.245677 92.420038 
L 269.298941 101.504295 
L 269.8227 290.19715 
L 270.133405 368.811289 
L 270.168914 368.898483 
L 270.222177 368.72462 
L 270.470741 366.818551 
L 270.985623 361.147695 
L 271.802332 349.191422 
L 273.098414 330.870153 
L 273.790841 320.479924 
L 274.048282 312.950938 
L 274.21695 300.969584 
L 274.341232 273.121696 
L 274.438882 189.225438 
L 274.545409 92.415566 
L 274.598673 101.741204 
L 275.131309 293.978544 
L 275.424259 368.749175 
L 275.459768 368.899229 
L 275.521909 368.720374 
L 275.770473 366.811078 
L 276.285355 361.137055 
L 277.102064 349.178645 
L 278.398145 330.859414 
L 279.090573 320.462841 
L 279.348014 312.914899 
L 279.516682 300.872967 
L 279.640964 272.77933 
L 279.738614 188.042303 
L 279.845141 92.417083 
L 279.898405 101.978932 
L 280.439918 297.862057 
L 280.715114 368.664719 
L 280.7595 368.899588 
L 280.821641 368.716123 
L 281.070205 366.803638 
L 281.585086 361.126465 
L 282.401795 349.165933 
L 283.697877 330.848729 
L 284.390305 320.445764 
L 284.647745 312.878781 
L 284.816414 300.775983 
L 284.940695 272.434166 
L 285.038345 186.85444 
L 285.144873 92.424992 
L 285.198136 102.217248 
L 285.748527 301.850171 
L 286.014845 368.674438 
L 286.059232 368.89985 
L 286.121373 368.711868 
L 286.378814 366.715554 
L 286.893695 361.001348 
L 287.728159 348.741986 
L 289.006486 330.722615 
L 289.690036 320.428724 
L 289.947477 312.842665 
L 290.116145 300.678742 
L 290.240427 272.086456 
L 290.338077 185.665575 
L 290.444605 92.439119 
L 290.497868 102.455759 
L 291.057136 305.942341 
L 291.3057 368.56621 
L 291.358964 368.900051 
L 291.421105 368.707634 
L 291.678545 366.708154 
L 292.193427 360.990858 
L 293.027891 348.72947 
L 294.306218 330.712066 
L 294.989768 320.411827 
L 295.247209 312.806603 
L 295.415877 300.580878 
L 295.540159 271.734733 
L 295.637809 184.466852 
L 295.744336 92.459235 
L 295.7976 102.697046 
L 296.365745 310.137305 
L 296.605432 368.578389 
L 296.658695 368.900074 
L 296.720836 368.703325 
L 296.978277 366.700712 
L 297.493159 360.980313 
L 298.327623 348.716893 
L 299.60595 330.701461 
L 300.2895 320.394816 
L 300.546941 312.770214 
L 300.715609 300.481489 
L 300.839891 271.375437 
L 300.937541 183.253222 
L 301.044068 92.48593 
L 301.097332 102.94104 
L 301.674355 314.422991 
L 301.905164 368.590403 
L 301.958427 368.900038 
L 302.020568 368.698987 
L 302.286886 366.611749 
L 302.810645 360.738793 
L 303.671741 348.019935 
L 304.923436 330.459601 
L 305.589232 320.3777 
L 305.846673 312.733556 
L 306.015341 300.381235 
L 306.139623 271.012474 
L 306.24615 168.645908 
L 306.334923 92.508005 
L 306.397064 103.18784 
L 306.982964 318.781598 
L 307.196018 368.457783 
L 307.258159 368.899911 
L 307.3203 368.694584 
L 307.586618 366.604153 
L 308.110377 360.728028 
L 308.971473 348.00725 
L 310.223168 330.448854 
L 310.888964 320.36045 
L 311.146405 312.6966 
L 311.315073 300.280042 
L 311.439355 270.643727 
L 311.545882 167.382784 
L 311.634655 92.475187 
L 311.696795 103.438308 
L 312.291573 323.185578 
L 312.49575 368.472965 
L 312.557891 368.899637 
L 312.620032 368.690087 
L 312.88635 366.596464 
L 313.410109 360.717134 
L 314.271205 347.99442 
L 315.5229 330.437995 
L 316.188695 320.343043 
L 316.446136 312.659311 
L 316.614805 300.177672 
L 316.739086 270.267821 
L 316.845614 166.109416 
L 316.934386 92.448734 
L 316.996527 103.692035 
L 317.600182 327.596417 
L 317.795482 368.487828 
L 317.857623 368.899263 
L 317.910886 368.732064 
L 318.150573 366.911596 
L 318.656577 361.393824 
L 319.446655 349.900247 
L 320.787123 330.889301 
L 321.488427 320.325509 
L 321.745868 312.621617 
L 321.914536 300.073755 
L 322.038818 269.885134 
L 322.145345 164.831942 
L 322.234118 92.429633 
L 322.296259 103.946769 
L 322.908791 331.965442 
L 323.095214 368.502459 
L 323.157355 368.898869 
L 323.210618 368.727887 
L 323.459182 366.824359 
L 323.974064 361.155968 
L 324.790773 349.201361 
L 326.086855 330.878509 
L 326.779282 320.49316 
L 327.036723 312.978803 
L 327.205391 301.044187 
L 327.329673 273.385354 
L 327.427323 190.140043 
L 327.53385 92.418171 
L 327.595991 104.202004 
L 328.2174 336.237761 
L 328.403823 368.646791 
L 328.457086 368.898357 
L 328.51035 368.723656 
L 328.758914 366.816844 
L 329.273795 361.145264 
L 329.318182 360.568005 
L 329.335936 361.472882 
L 329.531236 365.485341 
L 329.620009 365.674297 
L 329.664395 365.616488 
L 329.815309 365.006152 
L 330.214786 362.173548 
L 332.158909 347.433392 
L 332.851336 344.160117 
L 333.410605 342.467971 
L 333.872223 341.699971 
L 334.245068 341.45693 
L 334.600159 341.486442 
L 335.061777 341.780512 
L 336.544282 342.873704 
L 337.174568 342.973852 
L 338.106682 342.861524 
L 339.873259 342.656206 
L 342.305632 342.707864 
L 349.132255 342.702692 
L 435.845455 342.702184 
L 435.845455 342.702184 
" style="fill:none;stroke:#ff0000;stroke-linecap:square;stroke-width:1.5;"/>
   </g>
   <g id="patch_3">
    <path d="M 63 384.48 
L 63 51.84 
" style="fill:none;stroke:#000000;stroke-linecap:square;stroke-linejoin:miter;stroke-width:0.8;"/>
   </g>
   <g id="patch_4">
    <path d="M 453.6 384.48 
L 453.6 51.84 
" style="fill:none;stroke:#000000;stroke-linecap:square;stroke-linejoin:miter;stroke-width:0.8;"/>
   </g>
   <g id="patch_5">
    <path d="M 63 384.48 
L 453.6 384.48 
" style="fill:none;stroke:#000000;stroke-linecap:square;stroke-linejoin:miter;stroke-width:0.8;"/>
   </g>
   <g id="patch_6">
    <path d="M 63 51.84 
L 453.6 51.84 
" style="fill:none;stroke:#000000;stroke-linecap:square;stroke-linejoin:miter;stroke-width:0.8;"/>
   </g>
   <g id="legend_1">
    <g id="patch_7">
     <path d="M 383.460938 89.19625 
L 446.6 89.19625 
Q 448.6 89.19625 448.6 87.19625 
L 448.6 58.84 
Q 448.6 56.84 446.6 56.84 
L 383.460938 56.84 
Q 381.460938 56.84 381.460938 58.84 
L 381.460938 87.19625 
Q 381.460938 89.19625 383.460938 89.19625 
z
" style="fill:#ffffff;opacity:0.8;stroke:#cccccc;stroke-linejoin:miter;"/>
    </g>
    <g id="line2d_15">
     <path d="M 385.460938 64.938437 
L 405.460938 64.938437 
" style="fill:none;stroke:#1f77b4;stroke-linecap:square;stroke-width:1.5;"/>
    </g>
    <g id="line2d_16"/>
    <g id="text_15">
     <!-- target -->
     <defs>
      <path d="M 41.109375 46.296875 
Q 39.59375 47.171875 37.8125 47.578125 
Q 36.03125 48 33.890625 48 
Q 26.265625 48 22.1875 43.046875 
Q 18.109375 38.09375 18.109375 28.8125 
L 18.109375 0 
L 9.078125 0 
L 9.078125 54.6875 
L 18.109375 54.6875 
L 18.109375 46.1875 
Q 20.953125 51.171875 25.484375 53.578125 
Q 30.03125 56 36.53125 56 
Q 37.453125 56 38.578125 55.875 
Q 39.703125 55.765625 41.0625 55.515625 
z
" id="DejaVuSans-72"/>
     </defs>
     <g transform="translate(413.460938 68.438437)scale(0.1 -0.1)">
      <use xlink:href="#DejaVuSans-74"/>
      <use x="39.208984" xlink:href="#DejaVuSans-61"/>
      <use x="100.488281" xlink:href="#DejaVuSans-72"/>
      <use x="141.585938" xlink:href="#DejaVuSans-67"/>
      <use x="205.0625" xlink:href="#DejaVuSans-65"/>
      <use x="266.585938" xlink:href="#DejaVuSans-74"/>
     </g>
    </g>
    <g id="line2d_17">
     <path d="M 385.460938 79.616562 
L 405.460938 79.616562 
" style="fill:none;stroke:#ff0000;stroke-linecap:square;stroke-width:1.5;"/>
    </g>
    <g id="line2d_18"/>
    <g id="text_16">
     <!-- model -->
     <defs>
      <path d="M 45.40625 46.390625 
L 45.40625 75.984375 
L 54.390625 75.984375 
L 54.390625 0 
L 45.40625 0 
L 45.40625 8.203125 
Q 42.578125 3.328125 38.25 0.953125 
Q 33.9375 -1.421875 27.875 -1.421875 
Q 17.96875 -1.421875 11.734375 6.484375 
Q 5.515625 14.40625 5.515625 27.296875 
Q 5.515625 40.1875 11.734375 48.09375 
Q 17.96875 56 27.875 56 
Q 33.9375 56 38.25 53.625 
Q 42.578125 51.265625 45.40625 46.390625 
z
M 14.796875 27.296875 
Q 14.796875 17.390625 18.875 11.75 
Q 22.953125 6.109375 30.078125 6.109375 
Q 37.203125 6.109375 41.296875 11.75 
Q 45.40625 17.390625 45.40625 27.296875 
Q 45.40625 37.203125 41.296875 42.84375 
Q 37.203125 48.484375 30.078125 48.484375 
Q 22.953125 48.484375 18.875 42.84375 
Q 14.796875 37.203125 14.796875 27.296875 
z
" id="DejaVuSans-64"/>
     </defs>
     <g transform="translate(413.460938 83.116562)scale(0.1 -0.1)">
      <use xlink:href="#DejaVuSans-6d"/>
      <use x="97.412109" xlink:href="#DejaVuSans-6f"/>
      <use x="158.59375" xlink:href="#DejaVuSans-64"/>
      <use x="222.070312" xlink:href="#DejaVuSans-65"/>
      <use x="283.59375" xlink:href="#DejaVuSans-6c"/>
     </g>
    </g>
   </g>
  </g>
 </g>
 <defs>
  <clipPath id="p5fa2378706">
   <rect height="332.64" width="390.6" x="63" y="51.84"/>
  </clipPath>
 </defs>
</svg>
