<?xml version="1.0" encoding="utf-8" standalone="no"?>
<!DOCTYPE svg PUBLIC "-//W3C//DTD SVG 1.1//EN"
  "http://www.w3.org/Graphics/SVG/1.1/DTD/svg11.dtd">
<!-- Created with matplotlib (https://matplotlib.org/) -->
<svg height="432pt" version="1.1" viewBox="0 0 504 432" width="504pt" xmlns="http://www.w3.org/2000/svg" xmlns:xlink="http://www.w3.org/1999/xlink">
 <defs>
  <style type="text/css">
*{stroke-linecap:butt;stroke-linejoin:round;}
  </style>
 </defs>
 <g id="figure_1">
  <g id="patch_1">
   <path d="M 0 432 
L 504 432 
L 504 0 
L 0 0 
z
" style="fill:#ffffff;"/>
  </g>
  <g id="axes_1">
   <g id="patch_2">
    <path d="M 63 384.48 
L 453.6 384.48 
L 453.6 51.84 
L 63 51.84 
z
" style="fill:#ffffff;"/>
   </g>
   <g id="matplotlib.axis_1">
    <g id="xtick_1">
     <g id="line2d_1">
      <defs>
       <path d="M 0 0 
L 0 3.5 
" id="m2c7e7c0492" style="stroke:#000000;stroke-width:0.8;"/>
      </defs>
      <g>
       <use style="stroke:#000000;stroke-width:0.8;" x="80.754545" xlink:href="#m2c7e7c0492" y="384.48"/>
      </g>
     </g>
     <g id="text_1">
      <!-- 0 -->
      <defs>
       <path d="M 31.78125 66.40625 
Q 24.171875 66.40625 20.328125 58.90625 
Q 16.5 51.421875 16.5 36.375 
Q 16.5 21.390625 20.328125 13.890625 
Q 24.171875 6.390625 31.78125 6.390625 
Q 39.453125 6.390625 43.28125 13.890625 
Q 47.125 21.390625 47.125 36.375 
Q 47.125 51.421875 43.28125 58.90625 
Q 39.453125 66.40625 31.78125 66.40625 
z
M 31.78125 74.21875 
Q 44.046875 74.21875 50.515625 64.515625 
Q 56.984375 54.828125 56.984375 36.375 
Q 56.984375 17.96875 50.515625 8.265625 
Q 44.046875 -1.421875 31.78125 -1.421875 
Q 19.53125 -1.421875 13.0625 8.265625 
Q 6.59375 17.96875 6.59375 36.375 
Q 6.59375 54.828125 13.0625 64.515625 
Q 19.53125 74.21875 31.78125 74.21875 
z
" id="DejaVuSans-48"/>
      </defs>
      <g transform="translate(77.573295 399.078438)scale(0.1 -0.1)">
       <use xlink:href="#DejaVuSans-48"/>
      </g>
     </g>
    </g>
    <g id="xtick_2">
     <g id="line2d_2">
      <g>
       <use style="stroke:#000000;stroke-width:0.8;" x="151.767796" xlink:href="#m2c7e7c0492" y="384.48"/>
      </g>
     </g>
     <g id="text_2">
      <!-- 720 -->
      <defs>
       <path d="M 8.203125 72.90625 
L 55.078125 72.90625 
L 55.078125 68.703125 
L 28.609375 0 
L 18.3125 0 
L 43.21875 64.59375 
L 8.203125 64.59375 
z
" id="DejaVuSans-55"/>
       <path d="M 19.1875 8.296875 
L 53.609375 8.296875 
L 53.609375 0 
L 7.328125 0 
L 7.328125 8.296875 
Q 12.9375 14.109375 22.625 23.890625 
Q 32.328125 33.6875 34.8125 36.53125 
Q 39.546875 41.84375 41.421875 45.53125 
Q 43.3125 49.21875 43.3125 52.78125 
Q 43.3125 58.59375 39.234375 62.25 
Q 35.15625 65.921875 28.609375 65.921875 
Q 23.96875 65.921875 18.8125 64.3125 
Q 13.671875 62.703125 7.8125 59.421875 
L 7.8125 69.390625 
Q 13.765625 71.78125 18.9375 73 
Q 24.125 74.21875 28.421875 74.21875 
Q 39.75 74.21875 46.484375 68.546875 
Q 53.21875 62.890625 53.21875 53.421875 
Q 53.21875 48.921875 51.53125 44.890625 
Q 49.859375 40.875 45.40625 35.40625 
Q 44.1875 33.984375 37.640625 27.21875 
Q 31.109375 20.453125 19.1875 8.296875 
z
" id="DejaVuSans-50"/>
      </defs>
      <g transform="translate(142.224046 399.078438)scale(0.1 -0.1)">
       <use xlink:href="#DejaVuSans-55"/>
       <use x="63.623047" xlink:href="#DejaVuSans-50"/>
       <use x="127.246094" xlink:href="#DejaVuSans-48"/>
      </g>
     </g>
    </g>
    <g id="xtick_3">
     <g id="line2d_3">
      <g>
       <use style="stroke:#000000;stroke-width:0.8;" x="222.781046" xlink:href="#m2c7e7c0492" y="384.48"/>
      </g>
     </g>
     <g id="text_3">
      <!-- 1440 -->
      <defs>
       <path d="M 12.40625 8.296875 
L 28.515625 8.296875 
L 28.515625 63.921875 
L 10.984375 60.40625 
L 10.984375 69.390625 
L 28.421875 72.90625 
L 38.28125 72.90625 
L 38.28125 8.296875 
L 54.390625 8.296875 
L 54.390625 0 
L 12.40625 0 
z
" id="DejaVuSans-49"/>
       <path d="M 37.796875 64.3125 
L 12.890625 25.390625 
L 37.796875 25.390625 
z
M 35.203125 72.90625 
L 47.609375 72.90625 
L 47.609375 25.390625 
L 58.015625 25.390625 
L 58.015625 17.1875 
L 47.609375 17.1875 
L 47.609375 0 
L 37.796875 0 
L 37.796875 17.1875 
L 4.890625 17.1875 
L 4.890625 26.703125 
z
" id="DejaVuSans-52"/>
      </defs>
      <g transform="translate(210.056046 399.078438)scale(0.1 -0.1)">
       <use xlink:href="#DejaVuSans-49"/>
       <use x="63.623047" xlink:href="#DejaVuSans-52"/>
       <use x="127.246094" xlink:href="#DejaVuSans-52"/>
       <use x="190.869141" xlink:href="#DejaVuSans-48"/>
      </g>
     </g>
    </g>
    <g id="xtick_4">
     <g id="line2d_4">
      <g>
       <use style="stroke:#000000;stroke-width:0.8;" x="293.794296" xlink:href="#m2c7e7c0492" y="384.48"/>
      </g>
     </g>
     <g id="text_4">
      <!-- 2160 -->
      <defs>
       <path d="M 33.015625 40.375 
Q 26.375 40.375 22.484375 35.828125 
Q 18.609375 31.296875 18.609375 23.390625 
Q 18.609375 15.53125 22.484375 10.953125 
Q 26.375 6.390625 33.015625 6.390625 
Q 39.65625 6.390625 43.53125 10.953125 
Q 47.40625 15.53125 47.40625 23.390625 
Q 47.40625 31.296875 43.53125 35.828125 
Q 39.65625 40.375 33.015625 40.375 
z
M 52.59375 71.296875 
L 52.59375 62.3125 
Q 48.875 64.0625 45.09375 64.984375 
Q 41.3125 65.921875 37.59375 65.921875 
Q 27.828125 65.921875 22.671875 59.328125 
Q 17.53125 52.734375 16.796875 39.40625 
Q 19.671875 43.65625 24.015625 45.921875 
Q 28.375 48.1875 33.59375 48.1875 
Q 44.578125 48.1875 50.953125 41.515625 
Q 57.328125 34.859375 57.328125 23.390625 
Q 57.328125 12.15625 50.6875 5.359375 
Q 44.046875 -1.421875 33.015625 -1.421875 
Q 20.359375 -1.421875 13.671875 8.265625 
Q 6.984375 17.96875 6.984375 36.375 
Q 6.984375 53.65625 15.1875 63.9375 
Q 23.390625 74.21875 37.203125 74.21875 
Q 40.921875 74.21875 44.703125 73.484375 
Q 48.484375 72.75 52.59375 71.296875 
z
" id="DejaVuSans-54"/>
      </defs>
      <g transform="translate(281.069296 399.078438)scale(0.1 -0.1)">
       <use xlink:href="#DejaVuSans-50"/>
       <use x="63.623047" xlink:href="#DejaVuSans-49"/>
       <use x="127.246094" xlink:href="#DejaVuSans-54"/>
       <use x="190.869141" xlink:href="#DejaVuSans-48"/>
      </g>
     </g>
    </g>
    <g id="xtick_5">
     <g id="line2d_5">
      <g>
       <use style="stroke:#000000;stroke-width:0.8;" x="364.807547" xlink:href="#m2c7e7c0492" y="384.48"/>
      </g>
     </g>
     <g id="text_5">
      <!-- 2880 -->
      <defs>
       <path d="M 31.78125 34.625 
Q 24.75 34.625 20.71875 30.859375 
Q 16.703125 27.09375 16.703125 20.515625 
Q 16.703125 13.921875 20.71875 10.15625 
Q 24.75 6.390625 31.78125 6.390625 
Q 38.8125 6.390625 42.859375 10.171875 
Q 46.921875 13.96875 46.921875 20.515625 
Q 46.921875 27.09375 42.890625 30.859375 
Q 38.875 34.625 31.78125 34.625 
z
M 21.921875 38.8125 
Q 15.578125 40.375 12.03125 44.71875 
Q 8.5 49.078125 8.5 55.328125 
Q 8.5 64.0625 14.71875 69.140625 
Q 20.953125 74.21875 31.78125 74.21875 
Q 42.671875 74.21875 48.875 69.140625 
Q 55.078125 64.0625 55.078125 55.328125 
Q 55.078125 49.078125 51.53125 44.71875 
Q 48 40.375 41.703125 38.8125 
Q 48.828125 37.15625 52.796875 32.3125 
Q 56.78125 27.484375 56.78125 20.515625 
Q 56.78125 9.90625 50.3125 4.234375 
Q 43.84375 -1.421875 31.78125 -1.421875 
Q 19.734375 -1.421875 13.25 4.234375 
Q 6.78125 9.90625 6.78125 20.515625 
Q 6.78125 27.484375 10.78125 32.3125 
Q 14.796875 37.15625 21.921875 38.8125 
z
M 18.3125 54.390625 
Q 18.3125 48.734375 21.84375 45.5625 
Q 25.390625 42.390625 31.78125 42.390625 
Q 38.140625 42.390625 41.71875 45.5625 
Q 45.3125 48.734375 45.3125 54.390625 
Q 45.3125 60.0625 41.71875 63.234375 
Q 38.140625 66.40625 31.78125 66.40625 
Q 25.390625 66.40625 21.84375 63.234375 
Q 18.3125 60.0625 18.3125 54.390625 
z
" id="DejaVuSans-56"/>
      </defs>
      <g transform="translate(352.082547 399.078438)scale(0.1 -0.1)">
       <use xlink:href="#DejaVuSans-50"/>
       <use x="63.623047" xlink:href="#DejaVuSans-56"/>
       <use x="127.246094" xlink:href="#DejaVuSans-56"/>
       <use x="190.869141" xlink:href="#DejaVuSans-48"/>
      </g>
     </g>
    </g>
    <g id="text_6">
     <!-- time [ms] -->
     <defs>
      <path d="M 18.3125 70.21875 
L 18.3125 54.6875 
L 36.8125 54.6875 
L 36.8125 47.703125 
L 18.3125 47.703125 
L 18.3125 18.015625 
Q 18.3125 11.328125 20.140625 9.421875 
Q 21.96875 7.515625 27.59375 7.515625 
L 36.8125 7.515625 
L 36.8125 0 
L 27.59375 0 
Q 17.1875 0 13.234375 3.875 
Q 9.28125 7.765625 9.28125 18.015625 
L 9.28125 47.703125 
L 2.6875 47.703125 
L 2.6875 54.6875 
L 9.28125 54.6875 
L 9.28125 70.21875 
z
" id="DejaVuSans-116"/>
      <path d="M 9.421875 54.6875 
L 18.40625 54.6875 
L 18.40625 0 
L 9.421875 0 
z
M 9.421875 75.984375 
L 18.40625 75.984375 
L 18.40625 64.59375 
L 9.421875 64.59375 
z
" id="DejaVuSans-105"/>
      <path d="M 52 44.1875 
Q 55.375 50.25 60.0625 53.125 
Q 64.75 56 71.09375 56 
Q 79.640625 56 84.28125 50.015625 
Q 88.921875 44.046875 88.921875 33.015625 
L 88.921875 0 
L 79.890625 0 
L 79.890625 32.71875 
Q 79.890625 40.578125 77.09375 44.375 
Q 74.3125 48.1875 68.609375 48.1875 
Q 61.625 48.1875 57.5625 43.546875 
Q 53.515625 38.921875 53.515625 30.90625 
L 53.515625 0 
L 44.484375 0 
L 44.484375 32.71875 
Q 44.484375 40.625 41.703125 44.40625 
Q 38.921875 48.1875 33.109375 48.1875 
Q 26.21875 48.1875 22.15625 43.53125 
Q 18.109375 38.875 18.109375 30.90625 
L 18.109375 0 
L 9.078125 0 
L 9.078125 54.6875 
L 18.109375 54.6875 
L 18.109375 46.1875 
Q 21.1875 51.21875 25.484375 53.609375 
Q 29.78125 56 35.6875 56 
Q 41.65625 56 45.828125 52.96875 
Q 50 49.953125 52 44.1875 
z
" id="DejaVuSans-109"/>
      <path d="M 56.203125 29.59375 
L 56.203125 25.203125 
L 14.890625 25.203125 
Q 15.484375 15.921875 20.484375 11.0625 
Q 25.484375 6.203125 34.421875 6.203125 
Q 39.59375 6.203125 44.453125 7.46875 
Q 49.3125 8.734375 54.109375 11.28125 
L 54.109375 2.78125 
Q 49.265625 0.734375 44.1875 -0.34375 
Q 39.109375 -1.421875 33.890625 -1.421875 
Q 20.796875 -1.421875 13.15625 6.1875 
Q 5.515625 13.8125 5.515625 26.8125 
Q 5.515625 40.234375 12.765625 48.109375 
Q 20.015625 56 32.328125 56 
Q 43.359375 56 49.78125 48.890625 
Q 56.203125 41.796875 56.203125 29.59375 
z
M 47.21875 32.234375 
Q 47.125 39.59375 43.09375 43.984375 
Q 39.0625 48.390625 32.421875 48.390625 
Q 24.90625 48.390625 20.390625 44.140625 
Q 15.875 39.890625 15.1875 32.171875 
z
" id="DejaVuSans-101"/>
      <path id="DejaVuSans-32"/>
      <path d="M 8.59375 75.984375 
L 29.296875 75.984375 
L 29.296875 69 
L 17.578125 69 
L 17.578125 -6.203125 
L 29.296875 -6.203125 
L 29.296875 -13.1875 
L 8.59375 -13.1875 
z
" id="DejaVuSans-91"/>
      <path d="M 44.28125 53.078125 
L 44.28125 44.578125 
Q 40.484375 46.53125 36.375 47.5 
Q 32.28125 48.484375 27.875 48.484375 
Q 21.1875 48.484375 17.84375 46.4375 
Q 14.5 44.390625 14.5 40.28125 
Q 14.5 37.15625 16.890625 35.375 
Q 19.28125 33.59375 26.515625 31.984375 
L 29.59375 31.296875 
Q 39.15625 29.25 43.1875 25.515625 
Q 47.21875 21.78125 47.21875 15.09375 
Q 47.21875 7.46875 41.1875 3.015625 
Q 35.15625 -1.421875 24.609375 -1.421875 
Q 20.21875 -1.421875 15.453125 -0.5625 
Q 10.6875 0.296875 5.421875 2 
L 5.421875 11.28125 
Q 10.40625 8.6875 15.234375 7.390625 
Q 20.0625 6.109375 24.8125 6.109375 
Q 31.15625 6.109375 34.5625 8.28125 
Q 37.984375 10.453125 37.984375 14.40625 
Q 37.984375 18.0625 35.515625 20.015625 
Q 33.0625 21.96875 24.703125 23.78125 
L 21.578125 24.515625 
Q 13.234375 26.265625 9.515625 29.90625 
Q 5.8125 33.546875 5.8125 39.890625 
Q 5.8125 47.609375 11.28125 51.796875 
Q 16.75 56 26.8125 56 
Q 31.78125 56 36.171875 55.265625 
Q 40.578125 54.546875 44.28125 53.078125 
z
" id="DejaVuSans-115"/>
      <path d="M 30.421875 75.984375 
L 30.421875 -13.1875 
L 9.71875 -13.1875 
L 9.71875 -6.203125 
L 21.390625 -6.203125 
L 21.390625 69 
L 9.71875 69 
L 9.71875 75.984375 
z
" id="DejaVuSans-93"/>
     </defs>
     <g transform="translate(234.038281 412.756563)scale(0.1 -0.1)">
      <use xlink:href="#DejaVuSans-116"/>
      <use x="39.208984" xlink:href="#DejaVuSans-105"/>
      <use x="66.992188" xlink:href="#DejaVuSans-109"/>
      <use x="164.404297" xlink:href="#DejaVuSans-101"/>
      <use x="225.927734" xlink:href="#DejaVuSans-32"/>
      <use x="257.714844" xlink:href="#DejaVuSans-91"/>
      <use x="296.728516" xlink:href="#DejaVuSans-109"/>
      <use x="394.140625" xlink:href="#DejaVuSans-115"/>
      <use x="446.240234" xlink:href="#DejaVuSans-93"/>
     </g>
    </g>
   </g>
   <g id="matplotlib.axis_2">
    <g id="ytick_1">
     <g id="line2d_6">
      <defs>
       <path d="M 0 0 
L -3.5 0 
" id="m388252bc72" style="stroke:#000000;stroke-width:0.8;"/>
      </defs>
      <g>
       <use style="stroke:#000000;stroke-width:0.8;" x="63" xlink:href="#m388252bc72" y="366.58517"/>
      </g>
     </g>
     <g id="text_7">
      <!-- −80 -->
      <defs>
       <path d="M 10.59375 35.5 
L 73.1875 35.5 
L 73.1875 27.203125 
L 10.59375 27.203125 
z
" id="DejaVuSans-8722"/>
      </defs>
      <g transform="translate(34.895313 370.384389)scale(0.1 -0.1)">
       <use xlink:href="#DejaVuSans-8722"/>
       <use x="83.789062" xlink:href="#DejaVuSans-56"/>
       <use x="147.412109" xlink:href="#DejaVuSans-48"/>
      </g>
     </g>
    </g>
    <g id="ytick_2">
     <g id="line2d_7">
      <g>
       <use style="stroke:#000000;stroke-width:0.8;" x="63" xlink:href="#m388252bc72" y="315.270665"/>
      </g>
     </g>
     <g id="text_8">
      <!-- −60 -->
      <g transform="translate(34.895313 319.069884)scale(0.1 -0.1)">
       <use xlink:href="#DejaVuSans-8722"/>
       <use x="83.789062" xlink:href="#DejaVuSans-54"/>
       <use x="147.412109" xlink:href="#DejaVuSans-48"/>
      </g>
     </g>
    </g>
    <g id="ytick_3">
     <g id="line2d_8">
      <g>
       <use style="stroke:#000000;stroke-width:0.8;" x="63" xlink:href="#m388252bc72" y="263.956161"/>
      </g>
     </g>
     <g id="text_9">
      <!-- −40 -->
      <g transform="translate(34.895313 267.75538)scale(0.1 -0.1)">
       <use xlink:href="#DejaVuSans-8722"/>
       <use x="83.789062" xlink:href="#DejaVuSans-52"/>
       <use x="147.412109" xlink:href="#DejaVuSans-48"/>
      </g>
     </g>
    </g>
    <g id="ytick_4">
     <g id="line2d_9">
      <g>
       <use style="stroke:#000000;stroke-width:0.8;" x="63" xlink:href="#m388252bc72" y="212.641656"/>
      </g>
     </g>
     <g id="text_10">
      <!-- −20 -->
      <g transform="translate(34.895313 216.440875)scale(0.1 -0.1)">
       <use xlink:href="#DejaVuSans-8722"/>
       <use x="83.789062" xlink:href="#DejaVuSans-50"/>
       <use x="147.412109" xlink:href="#DejaVuSans-48"/>
      </g>
     </g>
    </g>
    <g id="ytick_5">
     <g id="line2d_10">
      <g>
       <use style="stroke:#000000;stroke-width:0.8;" x="63" xlink:href="#m388252bc72" y="161.327152"/>
      </g>
     </g>
     <g id="text_11">
      <!-- 0 -->
      <g transform="translate(49.6375 165.126371)scale(0.1 -0.1)">
       <use xlink:href="#DejaVuSans-48"/>
      </g>
     </g>
    </g>
    <g id="ytick_6">
     <g id="line2d_11">
      <g>
       <use style="stroke:#000000;stroke-width:0.8;" x="63" xlink:href="#m388252bc72" y="110.012648"/>
      </g>
     </g>
     <g id="text_12">
      <!-- 20 -->
      <g transform="translate(43.275 113.811866)scale(0.1 -0.1)">
       <use xlink:href="#DejaVuSans-50"/>
       <use x="63.623047" xlink:href="#DejaVuSans-48"/>
      </g>
     </g>
    </g>
    <g id="ytick_7">
     <g id="line2d_12">
      <g>
       <use style="stroke:#000000;stroke-width:0.8;" x="63" xlink:href="#m388252bc72" y="58.698143"/>
      </g>
     </g>
     <g id="text_13">
      <!-- 40 -->
      <g transform="translate(43.275 62.497362)scale(0.1 -0.1)">
       <use xlink:href="#DejaVuSans-52"/>
       <use x="63.623047" xlink:href="#DejaVuSans-48"/>
      </g>
     </g>
    </g>
    <g id="text_14">
     <!-- Voltage [mV] -->
     <defs>
      <path d="M 28.609375 0 
L 0.78125 72.90625 
L 11.078125 72.90625 
L 34.1875 11.53125 
L 57.328125 72.90625 
L 67.578125 72.90625 
L 39.796875 0 
z
" id="DejaVuSans-86"/>
      <path d="M 30.609375 48.390625 
Q 23.390625 48.390625 19.1875 42.75 
Q 14.984375 37.109375 14.984375 27.296875 
Q 14.984375 17.484375 19.15625 11.84375 
Q 23.34375 6.203125 30.609375 6.203125 
Q 37.796875 6.203125 41.984375 11.859375 
Q 46.1875 17.53125 46.1875 27.296875 
Q 46.1875 37.015625 41.984375 42.703125 
Q 37.796875 48.390625 30.609375 48.390625 
z
M 30.609375 56 
Q 42.328125 56 49.015625 48.375 
Q 55.71875 40.765625 55.71875 27.296875 
Q 55.71875 13.875 49.015625 6.21875 
Q 42.328125 -1.421875 30.609375 -1.421875 
Q 18.84375 -1.421875 12.171875 6.21875 
Q 5.515625 13.875 5.515625 27.296875 
Q 5.515625 40.765625 12.171875 48.375 
Q 18.84375 56 30.609375 56 
z
" id="DejaVuSans-111"/>
      <path d="M 9.421875 75.984375 
L 18.40625 75.984375 
L 18.40625 0 
L 9.421875 0 
z
" id="DejaVuSans-108"/>
      <path d="M 34.28125 27.484375 
Q 23.390625 27.484375 19.1875 25 
Q 14.984375 22.515625 14.984375 16.5 
Q 14.984375 11.71875 18.140625 8.90625 
Q 21.296875 6.109375 26.703125 6.109375 
Q 34.1875 6.109375 38.703125 11.40625 
Q 43.21875 16.703125 43.21875 25.484375 
L 43.21875 27.484375 
z
M 52.203125 31.203125 
L 52.203125 0 
L 43.21875 0 
L 43.21875 8.296875 
Q 40.140625 3.328125 35.546875 0.953125 
Q 30.953125 -1.421875 24.3125 -1.421875 
Q 15.921875 -1.421875 10.953125 3.296875 
Q 6 8.015625 6 15.921875 
Q 6 25.140625 12.171875 29.828125 
Q 18.359375 34.515625 30.609375 34.515625 
L 43.21875 34.515625 
L 43.21875 35.40625 
Q 43.21875 41.609375 39.140625 45 
Q 35.0625 48.390625 27.6875 48.390625 
Q 23 48.390625 18.546875 47.265625 
Q 14.109375 46.140625 10.015625 43.890625 
L 10.015625 52.203125 
Q 14.9375 54.109375 19.578125 55.046875 
Q 24.21875 56 28.609375 56 
Q 40.484375 56 46.34375 49.84375 
Q 52.203125 43.703125 52.203125 31.203125 
z
" id="DejaVuSans-97"/>
      <path d="M 45.40625 27.984375 
Q 45.40625 37.75 41.375 43.109375 
Q 37.359375 48.484375 30.078125 48.484375 
Q 22.859375 48.484375 18.828125 43.109375 
Q 14.796875 37.75 14.796875 27.984375 
Q 14.796875 18.265625 18.828125 12.890625 
Q 22.859375 7.515625 30.078125 7.515625 
Q 37.359375 7.515625 41.375 12.890625 
Q 45.40625 18.265625 45.40625 27.984375 
z
M 54.390625 6.78125 
Q 54.390625 -7.171875 48.1875 -13.984375 
Q 42 -20.796875 29.203125 -20.796875 
Q 24.46875 -20.796875 20.265625 -20.09375 
Q 16.0625 -19.390625 12.109375 -17.921875 
L 12.109375 -9.1875 
Q 16.0625 -11.328125 19.921875 -12.34375 
Q 23.78125 -13.375 27.78125 -13.375 
Q 36.625 -13.375 41.015625 -8.765625 
Q 45.40625 -4.15625 45.40625 5.171875 
L 45.40625 9.625 
Q 42.625 4.78125 38.28125 2.390625 
Q 33.9375 0 27.875 0 
Q 17.828125 0 11.671875 7.65625 
Q 5.515625 15.328125 5.515625 27.984375 
Q 5.515625 40.671875 11.671875 48.328125 
Q 17.828125 56 27.875 56 
Q 33.9375 56 38.28125 53.609375 
Q 42.625 51.21875 45.40625 46.390625 
L 45.40625 54.6875 
L 54.390625 54.6875 
z
" id="DejaVuSans-103"/>
     </defs>
     <g transform="translate(28.815625 251.079531)rotate(-90)scale(0.1 -0.1)">
      <use xlink:href="#DejaVuSans-86"/>
      <use x="68.298828" xlink:href="#DejaVuSans-111"/>
      <use x="129.480469" xlink:href="#DejaVuSans-108"/>
      <use x="157.263672" xlink:href="#DejaVuSans-116"/>
      <use x="196.472656" xlink:href="#DejaVuSans-97"/>
      <use x="257.751953" xlink:href="#DejaVuSans-103"/>
      <use x="321.228516" xlink:href="#DejaVuSans-101"/>
      <use x="382.751953" xlink:href="#DejaVuSans-32"/>
      <use x="414.539062" xlink:href="#DejaVuSans-91"/>
      <use x="453.552734" xlink:href="#DejaVuSans-109"/>
      <use x="550.964844" xlink:href="#DejaVuSans-86"/>
      <use x="619.373047" xlink:href="#DejaVuSans-93"/>
     </g>
    </g>
   </g>
   <g id="line2d_13">
    <path clip-path="url(#p6abaf26d65)" d="M 80.754545 328.099291 
L 82.367138 329.411714 
L 83.235078 329.603503 
L 84.606028 329.651198 
L 100.480448 329.41233 
L 100.638256 344.708929 
L 100.983459 356.000381 
L 101.432223 364.204617 
L 101.831673 368.00314 
L 102.142356 369.210529 
L 102.344546 369.354203 
L 102.507285 369.182336 
L 102.768653 368.507118 
L 103.266732 366.466796 
L 104.366451 361.9858 
L 104.973023 360.437591 
L 105.525348 359.591522 
L 106.062879 359.153919 
L 106.639861 358.968157 
L 107.394377 358.97585 
L 109.593815 359.351932 
L 111.452982 359.480729 
L 115.827201 359.463835 
L 130.069303 359.456214 
L 130.222178 344.629144 
L 130.552587 334.313059 
L 130.986557 327.030487 
L 131.425458 323.038972 
L 131.839702 321.08785 
L 132.214495 320.253125 
L 132.544903 319.98599 
L 132.860518 320.005099 
L 133.245173 320.275809 
L 133.777772 320.95376 
L 134.655575 322.495719 
L 136.056114 324.876747 
L 137.071998 326.153752 
L 138.107608 327.10456 
L 139.231985 327.835183 
L 140.331704 328.550114 
L 140.977727 329.129093 
L 141.677996 329.45436 
L 142.595251 329.621507 
L 144.12894 329.643674 
L 156.368863 329.418793 
L 159.663088 329.41233 
L 159.820896 326.350299 
L 160.17103 324.059353 
L 160.654315 322.267997 
L 161.162257 321.173979 
L 161.689925 320.534506 
L 162.261976 320.183476 
L 162.94252 320.032814 
L 163.909089 320.066916 
L 166.310718 320.460108 
L 169.1907 320.807935 
L 172.909032 321.009979 
L 179.630634 321.117222 
L 189.251943 321.143686 
L 189.40975 324.20802 
L 189.754953 326.462885 
L 190.228375 328.203946 
L 190.731385 329.270244 
L 191.24919 329.880095 
L 191.81631 330.212661 
L 192.511648 330.353489 
L 193.547258 330.312181 
L 199.114894 329.669239 
L 199.119826 328.099291 
L 199.228318 328.201046 
L 200.175161 329.138703 
L 200.880362 329.46038 
L 201.80748 329.624022 
L 203.375689 329.641866 
L 214.792055 329.421187 
L 218.845729 329.41233 
L 219.003536 323.28633 
L 219.353671 318.686447 
L 219.841887 315.006557 
L 220.38928 312.481674 
L 220.946537 310.035598 
L 220.961332 307.413695 
L 220.995852 211.29446 
L 221.030372 69.165343 
L 221.109276 176.79216 
L 221.316398 317.955359 
L 221.493931 322.859299 
L 221.602423 323.1614 
L 221.641875 323.12701 
L 221.779957 322.698424 
L 222.199132 320.399636 
L 222.938853 316.745529 
L 223.501042 315.03201 
L 224.058298 314.006534 
L 224.645144 313.373872 
L 225.310893 312.980778 
L 226.144313 312.756368 
L 227.327867 312.686678 
L 229.64566 312.821408 
L 234.093851 313.041251 
L 241.022575 313.095155 
L 248.434583 313.086626 
L 248.59239 319.247109 
L 248.932662 323.725778 
L 249.396221 327.125183 
L 249.879505 329.155688 
L 250.36279 330.298105 
L 250.846074 330.907511 
L 251.354016 331.202434 
L 251.955656 331.288416 
L 252.828528 331.165622 
L 258.297534 329.966356 
L 258.302466 328.099291 
L 258.410958 328.201046 
L 259.357802 329.138703 
L 260.063003 329.46038 
L 260.99012 329.624022 
L 262.558329 329.641866 
L 273.974696 329.421187 
L 278.028369 329.41233 
L 278.186176 320.219019 
L 278.536311 313.257222 
L 279.10343 306.43595 
L 279.276032 303.639033 
L 279.290826 297.023734 
L 279.350004 68.310579 
L 279.438771 186.602833 
L 279.640961 315.409229 
L 279.808631 319.324098 
L 279.848083 319.373159 
L 279.902329 319.261688 
L 280.065068 318.277937 
L 281.657935 306.718105 
L 282.323684 303.147887 
L 282.353273 302.049514 
L 282.372999 266.278569 
L 282.427245 73.918653 
L 282.51108 184.58863 
L 282.713271 316.215344 
L 282.885872 320.25803 
L 282.930255 320.325728 
L 282.989433 320.21688 
L 283.157103 319.269649 
L 284.656272 309.14808 
L 285.252981 307.197314 
L 286.406946 303.877898 
L 286.431603 302.668202 
L 286.456261 250.309488 
L 286.510507 78.974351 
L 286.58941 182.390721 
L 286.796532 314.127087 
L 286.974066 318.586699 
L 287.052969 318.772037 
L 287.107215 318.704437 
L 287.260091 318.075231 
L 287.832142 314.327044 
L 288.483097 310.886744 
L 289.06008 308.96072 
L 289.676514 307.648282 
L 290.421167 306.592848 
L 291.491297 305.127268 
L 291.649105 304.41888 
L 291.678693 303.557284 
L 291.698419 270.274619 
L 291.757597 82.591948 
L 291.836501 177.616697 
L 292.043623 312.416944 
L 292.221156 317.5145 
L 292.339511 317.878939 
L 292.374031 317.852472 
L 292.50225 317.480545 
L 292.862248 315.52931 
L 293.67101 311.38002 
L 294.257855 309.508821 
L 294.87429 308.258505 
L 295.589354 307.308199 
L 296.654552 306.303274 
L 297.364685 305.522816 
L 297.591533 304.935704 
L 297.665505 304.143033 
L 297.680299 297.838277 
L 297.74934 84.996852 
L 297.838107 190.246141 
L 298.040297 311.74461 
L 298.222762 316.848983 
L 298.355912 317.266045 
L 298.3855 317.24848 
L 298.508787 316.94723 
L 298.834265 315.378482 
L 299.716999 311.190421 
L 300.308776 309.469503 
L 300.940005 308.295648 
L 301.684658 307.382567 
L 302.82876 306.376874 
L 303.553687 305.624271 
L 303.790398 305.057781 
L 303.869301 304.407119 
L 303.884096 301.726571 
L 303.923548 184.432579 
L 303.958068 86.546924 
L 304.03204 169.926375 
L 304.244094 310.632627 
L 304.426558 316.281771 
L 304.584365 316.840829 
L 304.59916 316.835401 
L 304.707652 316.633894 
L 304.973952 315.517335 
L 306.044082 310.764862 
L 306.645722 309.214318 
L 307.296677 308.134204 
L 307.617223 307.738487 
L 307.77503 316.831514 
L 308.105439 322.998086 
L 308.54434 327.389891 
L 309.002968 329.955755 
L 309.461595 331.371112 
L 309.910359 332.097211 
L 310.359123 332.428879 
L 310.857202 332.521151 
L 311.51802 332.400285 
L 312.736095 331.906483 
L 315.177175 330.936664 
L 317.149765 330.416822 
L 317.480174 330.349832 
L 317.485106 328.099291 
L 317.593598 328.201046 
L 318.540442 329.138703 
L 319.245643 329.46038 
L 320.17276 329.624022 
L 321.740969 329.641866 
L 333.157336 329.421187 
L 337.211009 329.41233 
L 337.368816 317.146539 
L 337.728814 307.472404 
L 338.093743 298.176286 
L 338.113469 259.232998 
L 338.162784 67.238569 
L 338.246619 182.260975 
L 338.448809 312.495918 
L 338.606616 315.878359 
L 338.611548 315.87765 
L 338.665794 315.714421 
L 338.833464 314.241324 
L 340.258661 297.154745 
L 340.327701 293.127642 
L 340.35729 210.545719 
L 340.396742 72.519824 
L 340.470714 174.511657 
L 340.677836 315.880507 
L 340.830712 318.920755 
L 340.835643 318.918933 
L 340.894821 318.71518 
L 341.077286 316.983453 
L 342.458099 301.919601 
L 342.882206 297.543381 
L 342.936452 294.911254 
L 342.961109 239.005769 
L 343.010424 77.504438 
L 343.089328 181.68298 
L 343.291518 313.763754 
L 343.459188 317.362325 
L 343.483846 317.35667 
L 343.513435 317.282986 
L 343.651516 316.361664 
L 344.193978 310.521822 
L 344.884385 304.400305 
L 345.767119 297.259951 
L 345.796708 293.679289 
L 345.83616 150.783309 
L 345.865749 81.257302 
L 345.939721 170.75964 
L 346.146843 311.811895 
L 346.314513 316.079708 
L 346.353965 316.142731 
L 346.408211 316.035672 
L 346.566018 315.046681 
L 348.292035 301.834757 
L 348.770388 298.71566 
L 348.854223 296.506021 
L 348.869017 282.833733 
L 348.933126 83.864344 
L 349.007099 171.833465 
L 349.219152 310.810816 
L 349.391754 315.096232 
L 349.446 315.191939 
L 349.500246 315.092769 
L 349.658053 314.218893 
L 351.453111 302.015399 
L 351.975847 299.081326 
L 352.069545 297.200863 
L 352.084339 291.71692 
L 352.15338 85.700075 
L 352.237215 184.490377 
L 352.444337 310.076286 
L 352.62187 314.393381 
L 352.68598 314.517665 
L 352.740226 314.430124 
L 352.898033 313.642697 
L 353.519399 308.815538 
L 354.199943 304.576096 
L 355.373634 298.105623 
L 355.403223 294.321955 
L 355.447606 133.106539 
L 355.477195 86.942868 
L 355.546235 166.69341 
L 355.758289 308.834755 
L 355.935822 313.904704 
L 356.019657 314.136105 
L 356.073903 314.062125 
L 356.226779 313.365774 
L 356.749516 309.500146 
L 357.464579 305.015151 
L 358.238821 301.648001 
L 358.66786 299.447183 
L 358.771421 297.72394 
L 358.791146 289.839153 
L 358.860187 87.697399 
L 358.934159 172.04306 
L 359.146213 308.585743 
L 359.323746 313.518707 
L 359.417444 313.780648 
L 359.466759 313.718516 
L 359.614703 313.098874 
L 360.078262 309.835501 
L 360.827846 305.175654 
L 361.582362 301.950561 
L 362.075509 299.583727 
L 362.184002 297.98279 
L 362.203728 294.058973 
L 362.2777 88.292318 
L 362.376329 204.536086 
L 362.568657 308.676939 
L 362.74619 313.322675 
L 362.839888 313.582553 
L 362.889203 313.526054 
L 363.032216 312.958706 
L 363.466185 309.999629 
L 364.240427 305.229278 
L 364.990011 302.06638 
L 365.507816 299.650446 
L 365.62124 297.969282 
L 365.640966 292.451266 
L 365.710007 88.703171 
L 365.798773 188.015659 
L 366.005895 308.432448 
L 366.18836 313.087775 
L 366.28699 313.340047 
L 366.331373 313.288466 
L 366.474386 312.744157 
L 366.799863 310.634002 
L 366.952739 321.328832 
L 367.243696 326.7595 
L 367.638214 330.314056 
L 368.067252 332.341745 
L 368.496291 333.392213 
L 368.910535 333.870344 
L 369.32971 334.029477 
L 369.822858 333.968924 
L 370.557648 333.626702 
L 374.803648 331.305592 
L 376.638157 330.72229 
L 376.662814 330.715889 
L 376.667746 328.099291 
L 376.776238 328.201046 
L 377.723082 329.138703 
L 378.428283 329.46038 
L 379.3554 329.624022 
L 380.923609 329.641866 
L 392.339976 329.421187 
L 396.393649 329.41233 
L 396.551456 314.066116 
L 396.945974 300.217997 
L 397.049535 294.325888 
L 397.069261 250.491909 
L 397.113644 66.96 
L 397.197479 179.721691 
L 397.39967 309.756973 
L 397.527888 312.611294 
L 397.552546 312.568581 
L 397.651175 311.777058 
L 397.996378 306.563881 
L 398.741031 292.550391 
L 398.785415 286.62013 
L 398.849524 72.009853 
L 398.948153 210.08577 
L 399.130618 315.879047 
L 399.244042 318.014952 
L 399.278562 317.910875 
L 399.40678 316.543312 
L 399.934448 307.403707 
L 400.782662 291.24936 
L 400.802388 285.601293 
L 400.866497 76.766891 
L 400.950332 188.852449 
L 401.147591 313.710456 
L 401.27581 316.276495 
L 401.300467 316.23507 
L 401.399097 315.483227 
L 401.729506 310.676496 
L 402.903197 290.249492 
L 402.917991 275.570539 
L 402.977169 80.537478 
L 403.051141 171.56512 
L 403.258263 311.847016 
L 403.406207 314.967504 
L 403.41607 314.96143 
L 403.480179 314.681985 
L 403.68237 312.474739 
L 405.082909 292.374003 
L 405.112498 285.573143 
L 405.176607 83.279876 
L 405.260442 183.994958 
L 405.462633 310.68907 
L 405.625371 313.931909 
L 405.679618 313.776792 
L 405.842356 312.359877 
L 407.25769 295.292086 
L 407.366182 291.660867 
L 407.385908 281.341683 
L 407.450017 84.999849 
L 407.523989 172.345425 
L 407.731111 309.464774 
L 407.898782 313.25678 
L 407.923439 313.25226 
L 407.953028 313.175652 
L 408.086178 312.244838 
L 408.559599 306.74019 
L 409.693839 292.243108 
L 409.713565 287.883642 
L 409.782605 86.295417 
L 409.876303 197.719861 
L 410.073562 309.200228 
L 410.241233 312.631802 
L 410.26589 312.634837 
L 410.30041 312.555567 
L 410.438492 311.645422 
L 410.916845 306.405454 
L 412.07081 292.248899 
L 412.090536 286.003904 
L 412.159577 87.222644 
L 412.23848 180.228645 
L 412.445602 308.313693 
L 412.613272 312.133121 
L 412.642861 312.166409 
L 412.697108 312.048278 
L 412.854915 310.967924 
L 413.50587 304.122837 
L 414.457644 293.463526 
L 414.492165 289.949827 
L 414.526685 185.179638 
L 414.566137 87.778276 
L 414.635177 166.536823 
L 414.847231 307.516427 
L 415.019833 311.823441 
L 415.059284 311.876714 
L 415.113531 311.757756 
L 415.271338 310.713626 
L 415.897635 304.321147 
L 416.888862 293.495661 
L 416.923382 289.570449 
L 416.962834 150.656429 
L 416.997354 88.279245 
L 417.066395 167.802018 
L 417.278448 307.370486 
L 417.45105 311.697681 
L 417.495433 311.762424 
L 417.54968 311.644397 
L 417.707487 310.622276 
L 418.314058 304.528524 
L 419.339805 293.437501 
L 419.374326 287.488016 
L 419.443366 88.361222 
L 419.532133 190.134867 
L 419.734323 307.525917 
L 419.906925 311.449087 
L 419.946377 311.503523 
L 420.000623 311.397021 
L 420.153499 310.455828 
L 420.695961 305.136968 
L 421.800612 293.278432 
L 421.830201 288.256836 
L 421.899241 88.546815 
L 421.992939 195.140825 
L 422.19513 307.668596 
L 422.367731 311.395997 
L 422.407183 311.445225 
L 422.461429 311.33654 
L 422.619237 310.361969 
L 423.191288 304.791256 
L 424.261418 293.529665 
L 424.295938 288.157154 
L 424.364979 88.647416 
L 424.458677 195.17556 
L 424.660868 307.530582 
L 424.833469 311.293497 
L 424.877853 311.348391 
L 424.927167 311.250652 
L 425.080043 310.33908 
L 425.602779 305.310824 
L 425.982503 301.818869 
L 426.135379 315.748017 
L 426.436199 323.56363 
L 426.84058 328.760165 
L 427.27455 331.737791 
L 427.703588 333.301461 
L 428.117832 334.060365 
L 428.517282 334.36993 
L 428.941389 334.422112 
L 429.493714 334.246388 
L 430.430694 333.675458 
L 433.039445 332.026744 
L 434.691489 331.290932 
L 435.845455 330.906105 
L 435.845455 330.906105 
" style="fill:none;stroke:#ff0000;stroke-linecap:square;stroke-width:1.5;"/>
   </g>
   <g id="patch_3">
    <path d="M 63 384.48 
L 63 51.84 
" style="fill:none;stroke:#000000;stroke-linecap:square;stroke-linejoin:miter;stroke-width:0.8;"/>
   </g>
   <g id="patch_4">
    <path d="M 453.6 384.48 
L 453.6 51.84 
" style="fill:none;stroke:#000000;stroke-linecap:square;stroke-linejoin:miter;stroke-width:0.8;"/>
   </g>
   <g id="patch_5">
    <path d="M 63 384.48 
L 453.6 384.48 
" style="fill:none;stroke:#000000;stroke-linecap:square;stroke-linejoin:miter;stroke-width:0.8;"/>
   </g>
   <g id="patch_6">
    <path d="M 63 51.84 
L 453.6 51.84 
" style="fill:none;stroke:#000000;stroke-linecap:square;stroke-linejoin:miter;stroke-width:0.8;"/>
   </g>
   <g id="legend_1">
    <g id="patch_7">
     <path d="M 70 74.518125 
L 133.139062 74.518125 
Q 135.139062 74.518125 135.139062 72.518125 
L 135.139062 58.84 
Q 135.139062 56.84 133.139062 56.84 
L 70 56.84 
Q 68 56.84 68 58.84 
L 68 72.518125 
Q 68 74.518125 70 74.518125 
z
" style="fill:#ffffff;opacity:0.8;stroke:#cccccc;stroke-linejoin:miter;"/>
    </g>
    <g id="line2d_14">
     <path d="M 72 64.938438 
L 92 64.938438 
" style="fill:none;stroke:#ff0000;stroke-linecap:square;stroke-width:1.5;"/>
    </g>
    <g id="line2d_15"/>
    <g id="text_15">
     <!-- model -->
     <defs>
      <path d="M 45.40625 46.390625 
L 45.40625 75.984375 
L 54.390625 75.984375 
L 54.390625 0 
L 45.40625 0 
L 45.40625 8.203125 
Q 42.578125 3.328125 38.25 0.953125 
Q 33.9375 -1.421875 27.875 -1.421875 
Q 17.96875 -1.421875 11.734375 6.484375 
Q 5.515625 14.40625 5.515625 27.296875 
Q 5.515625 40.1875 11.734375 48.09375 
Q 17.96875 56 27.875 56 
Q 33.9375 56 38.25 53.625 
Q 42.578125 51.265625 45.40625 46.390625 
z
M 14.796875 27.296875 
Q 14.796875 17.390625 18.875 11.75 
Q 22.953125 6.109375 30.078125 6.109375 
Q 37.203125 6.109375 41.296875 11.75 
Q 45.40625 17.390625 45.40625 27.296875 
Q 45.40625 37.203125 41.296875 42.84375 
Q 37.203125 48.484375 30.078125 48.484375 
Q 22.953125 48.484375 18.875 42.84375 
Q 14.796875 37.203125 14.796875 27.296875 
z
" id="DejaVuSans-100"/>
     </defs>
     <g transform="translate(100 68.438438)scale(0.1 -0.1)">
      <use xlink:href="#DejaVuSans-109"/>
      <use x="97.412109" xlink:href="#DejaVuSans-111"/>
      <use x="158.59375" xlink:href="#DejaVuSans-100"/>
      <use x="222.070312" xlink:href="#DejaVuSans-101"/>
      <use x="283.59375" xlink:href="#DejaVuSans-108"/>
     </g>
    </g>
   </g>
  </g>
 </g>
 <defs>
  <clipPath id="p6abaf26d65">
   <rect height="332.64" width="390.6" x="63" y="51.84"/>
  </clipPath>
 </defs>
</svg>
