<?xml version="1.0" encoding="utf-8" standalone="no"?>
<!DOCTYPE svg PUBLIC "-//W3C//DTD SVG 1.1//EN"
  "http://www.w3.org/Graphics/SVG/1.1/DTD/svg11.dtd">
<!-- Created with matplotlib (https://matplotlib.org/) -->
<svg height="432pt" version="1.1" viewBox="0 0 504 432" width="504pt" xmlns="http://www.w3.org/2000/svg" xmlns:xlink="http://www.w3.org/1999/xlink">
 <defs>
  <style type="text/css">
*{stroke-linecap:butt;stroke-linejoin:round;}
  </style>
 </defs>
 <g id="figure_1">
  <g id="patch_1">
   <path d="M 0 432 
L 504 432 
L 504 0 
L 0 0 
z
" style="fill:#ffffff;"/>
  </g>
  <g id="axes_1">
   <g id="patch_2">
    <path d="M 63 384.48 
L 453.6 384.48 
L 453.6 51.84 
L 63 51.84 
z
" style="fill:#ffffff;"/>
   </g>
   <g id="matplotlib.axis_1">
    <g id="xtick_1">
     <g id="line2d_1">
      <defs>
       <path d="M 0 0 
L 0 3.5 
" id="me130f7ce59" style="stroke:#000000;stroke-width:0.8;"/>
      </defs>
      <g>
       <use style="stroke:#000000;stroke-width:0.8;" x="80.754545" xlink:href="#me130f7ce59" y="384.48"/>
      </g>
     </g>
     <g id="text_1">
      <!-- 0 -->
      <defs>
       <path d="M 31.78125 66.40625 
Q 24.171875 66.40625 20.328125 58.90625 
Q 16.5 51.421875 16.5 36.375 
Q 16.5 21.390625 20.328125 13.890625 
Q 24.171875 6.390625 31.78125 6.390625 
Q 39.453125 6.390625 43.28125 13.890625 
Q 47.125 21.390625 47.125 36.375 
Q 47.125 51.421875 43.28125 58.90625 
Q 39.453125 66.40625 31.78125 66.40625 
z
M 31.78125 74.21875 
Q 44.046875 74.21875 50.515625 64.515625 
Q 56.984375 54.828125 56.984375 36.375 
Q 56.984375 17.96875 50.515625 8.265625 
Q 44.046875 -1.421875 31.78125 -1.421875 
Q 19.53125 -1.421875 13.0625 8.265625 
Q 6.59375 17.96875 6.59375 36.375 
Q 6.59375 54.828125 13.0625 64.515625 
Q 19.53125 74.21875 31.78125 74.21875 
z
" id="DejaVuSans-48"/>
      </defs>
      <g transform="translate(77.573295 399.078438)scale(0.1 -0.1)">
       <use xlink:href="#DejaVuSans-48"/>
      </g>
     </g>
    </g>
    <g id="xtick_2">
     <g id="line2d_2">
      <g>
       <use style="stroke:#000000;stroke-width:0.8;" x="151.767796" xlink:href="#me130f7ce59" y="384.48"/>
      </g>
     </g>
     <g id="text_2">
      <!-- 720 -->
      <defs>
       <path d="M 8.203125 72.90625 
L 55.078125 72.90625 
L 55.078125 68.703125 
L 28.609375 0 
L 18.3125 0 
L 43.21875 64.59375 
L 8.203125 64.59375 
z
" id="DejaVuSans-55"/>
       <path d="M 19.1875 8.296875 
L 53.609375 8.296875 
L 53.609375 0 
L 7.328125 0 
L 7.328125 8.296875 
Q 12.9375 14.109375 22.625 23.890625 
Q 32.328125 33.6875 34.8125 36.53125 
Q 39.546875 41.84375 41.421875 45.53125 
Q 43.3125 49.21875 43.3125 52.78125 
Q 43.3125 58.59375 39.234375 62.25 
Q 35.15625 65.921875 28.609375 65.921875 
Q 23.96875 65.921875 18.8125 64.3125 
Q 13.671875 62.703125 7.8125 59.421875 
L 7.8125 69.390625 
Q 13.765625 71.78125 18.9375 73 
Q 24.125 74.21875 28.421875 74.21875 
Q 39.75 74.21875 46.484375 68.546875 
Q 53.21875 62.890625 53.21875 53.421875 
Q 53.21875 48.921875 51.53125 44.890625 
Q 49.859375 40.875 45.40625 35.40625 
Q 44.1875 33.984375 37.640625 27.21875 
Q 31.109375 20.453125 19.1875 8.296875 
z
" id="DejaVuSans-50"/>
      </defs>
      <g transform="translate(142.224046 399.078438)scale(0.1 -0.1)">
       <use xlink:href="#DejaVuSans-55"/>
       <use x="63.623047" xlink:href="#DejaVuSans-50"/>
       <use x="127.246094" xlink:href="#DejaVuSans-48"/>
      </g>
     </g>
    </g>
    <g id="xtick_3">
     <g id="line2d_3">
      <g>
       <use style="stroke:#000000;stroke-width:0.8;" x="222.781046" xlink:href="#me130f7ce59" y="384.48"/>
      </g>
     </g>
     <g id="text_3">
      <!-- 1440 -->
      <defs>
       <path d="M 12.40625 8.296875 
L 28.515625 8.296875 
L 28.515625 63.921875 
L 10.984375 60.40625 
L 10.984375 69.390625 
L 28.421875 72.90625 
L 38.28125 72.90625 
L 38.28125 8.296875 
L 54.390625 8.296875 
L 54.390625 0 
L 12.40625 0 
z
" id="DejaVuSans-49"/>
       <path d="M 37.796875 64.3125 
L 12.890625 25.390625 
L 37.796875 25.390625 
z
M 35.203125 72.90625 
L 47.609375 72.90625 
L 47.609375 25.390625 
L 58.015625 25.390625 
L 58.015625 17.1875 
L 47.609375 17.1875 
L 47.609375 0 
L 37.796875 0 
L 37.796875 17.1875 
L 4.890625 17.1875 
L 4.890625 26.703125 
z
" id="DejaVuSans-52"/>
      </defs>
      <g transform="translate(210.056046 399.078438)scale(0.1 -0.1)">
       <use xlink:href="#DejaVuSans-49"/>
       <use x="63.623047" xlink:href="#DejaVuSans-52"/>
       <use x="127.246094" xlink:href="#DejaVuSans-52"/>
       <use x="190.869141" xlink:href="#DejaVuSans-48"/>
      </g>
     </g>
    </g>
    <g id="xtick_4">
     <g id="line2d_4">
      <g>
       <use style="stroke:#000000;stroke-width:0.8;" x="293.794296" xlink:href="#me130f7ce59" y="384.48"/>
      </g>
     </g>
     <g id="text_4">
      <!-- 2160 -->
      <defs>
       <path d="M 33.015625 40.375 
Q 26.375 40.375 22.484375 35.828125 
Q 18.609375 31.296875 18.609375 23.390625 
Q 18.609375 15.53125 22.484375 10.953125 
Q 26.375 6.390625 33.015625 6.390625 
Q 39.65625 6.390625 43.53125 10.953125 
Q 47.40625 15.53125 47.40625 23.390625 
Q 47.40625 31.296875 43.53125 35.828125 
Q 39.65625 40.375 33.015625 40.375 
z
M 52.59375 71.296875 
L 52.59375 62.3125 
Q 48.875 64.0625 45.09375 64.984375 
Q 41.3125 65.921875 37.59375 65.921875 
Q 27.828125 65.921875 22.671875 59.328125 
Q 17.53125 52.734375 16.796875 39.40625 
Q 19.671875 43.65625 24.015625 45.921875 
Q 28.375 48.1875 33.59375 48.1875 
Q 44.578125 48.1875 50.953125 41.515625 
Q 57.328125 34.859375 57.328125 23.390625 
Q 57.328125 12.15625 50.6875 5.359375 
Q 44.046875 -1.421875 33.015625 -1.421875 
Q 20.359375 -1.421875 13.671875 8.265625 
Q 6.984375 17.96875 6.984375 36.375 
Q 6.984375 53.65625 15.1875 63.9375 
Q 23.390625 74.21875 37.203125 74.21875 
Q 40.921875 74.21875 44.703125 73.484375 
Q 48.484375 72.75 52.59375 71.296875 
z
" id="DejaVuSans-54"/>
      </defs>
      <g transform="translate(281.069296 399.078438)scale(0.1 -0.1)">
       <use xlink:href="#DejaVuSans-50"/>
       <use x="63.623047" xlink:href="#DejaVuSans-49"/>
       <use x="127.246094" xlink:href="#DejaVuSans-54"/>
       <use x="190.869141" xlink:href="#DejaVuSans-48"/>
      </g>
     </g>
    </g>
    <g id="xtick_5">
     <g id="line2d_5">
      <g>
       <use style="stroke:#000000;stroke-width:0.8;" x="364.807547" xlink:href="#me130f7ce59" y="384.48"/>
      </g>
     </g>
     <g id="text_5">
      <!-- 2880 -->
      <defs>
       <path d="M 31.78125 34.625 
Q 24.75 34.625 20.71875 30.859375 
Q 16.703125 27.09375 16.703125 20.515625 
Q 16.703125 13.921875 20.71875 10.15625 
Q 24.75 6.390625 31.78125 6.390625 
Q 38.8125 6.390625 42.859375 10.171875 
Q 46.921875 13.96875 46.921875 20.515625 
Q 46.921875 27.09375 42.890625 30.859375 
Q 38.875 34.625 31.78125 34.625 
z
M 21.921875 38.8125 
Q 15.578125 40.375 12.03125 44.71875 
Q 8.5 49.078125 8.5 55.328125 
Q 8.5 64.0625 14.71875 69.140625 
Q 20.953125 74.21875 31.78125 74.21875 
Q 42.671875 74.21875 48.875 69.140625 
Q 55.078125 64.0625 55.078125 55.328125 
Q 55.078125 49.078125 51.53125 44.71875 
Q 48 40.375 41.703125 38.8125 
Q 48.828125 37.15625 52.796875 32.3125 
Q 56.78125 27.484375 56.78125 20.515625 
Q 56.78125 9.90625 50.3125 4.234375 
Q 43.84375 -1.421875 31.78125 -1.421875 
Q 19.734375 -1.421875 13.25 4.234375 
Q 6.78125 9.90625 6.78125 20.515625 
Q 6.78125 27.484375 10.78125 32.3125 
Q 14.796875 37.15625 21.921875 38.8125 
z
M 18.3125 54.390625 
Q 18.3125 48.734375 21.84375 45.5625 
Q 25.390625 42.390625 31.78125 42.390625 
Q 38.140625 42.390625 41.71875 45.5625 
Q 45.3125 48.734375 45.3125 54.390625 
Q 45.3125 60.0625 41.71875 63.234375 
Q 38.140625 66.40625 31.78125 66.40625 
Q 25.390625 66.40625 21.84375 63.234375 
Q 18.3125 60.0625 18.3125 54.390625 
z
" id="DejaVuSans-56"/>
      </defs>
      <g transform="translate(352.082547 399.078438)scale(0.1 -0.1)">
       <use xlink:href="#DejaVuSans-50"/>
       <use x="63.623047" xlink:href="#DejaVuSans-56"/>
       <use x="127.246094" xlink:href="#DejaVuSans-56"/>
       <use x="190.869141" xlink:href="#DejaVuSans-48"/>
      </g>
     </g>
    </g>
    <g id="text_6">
     <!-- time [ms] -->
     <defs>
      <path d="M 18.3125 70.21875 
L 18.3125 54.6875 
L 36.8125 54.6875 
L 36.8125 47.703125 
L 18.3125 47.703125 
L 18.3125 18.015625 
Q 18.3125 11.328125 20.140625 9.421875 
Q 21.96875 7.515625 27.59375 7.515625 
L 36.8125 7.515625 
L 36.8125 0 
L 27.59375 0 
Q 17.1875 0 13.234375 3.875 
Q 9.28125 7.765625 9.28125 18.015625 
L 9.28125 47.703125 
L 2.6875 47.703125 
L 2.6875 54.6875 
L 9.28125 54.6875 
L 9.28125 70.21875 
z
" id="DejaVuSans-116"/>
      <path d="M 9.421875 54.6875 
L 18.40625 54.6875 
L 18.40625 0 
L 9.421875 0 
z
M 9.421875 75.984375 
L 18.40625 75.984375 
L 18.40625 64.59375 
L 9.421875 64.59375 
z
" id="DejaVuSans-105"/>
      <path d="M 52 44.1875 
Q 55.375 50.25 60.0625 53.125 
Q 64.75 56 71.09375 56 
Q 79.640625 56 84.28125 50.015625 
Q 88.921875 44.046875 88.921875 33.015625 
L 88.921875 0 
L 79.890625 0 
L 79.890625 32.71875 
Q 79.890625 40.578125 77.09375 44.375 
Q 74.3125 48.1875 68.609375 48.1875 
Q 61.625 48.1875 57.5625 43.546875 
Q 53.515625 38.921875 53.515625 30.90625 
L 53.515625 0 
L 44.484375 0 
L 44.484375 32.71875 
Q 44.484375 40.625 41.703125 44.40625 
Q 38.921875 48.1875 33.109375 48.1875 
Q 26.21875 48.1875 22.15625 43.53125 
Q 18.109375 38.875 18.109375 30.90625 
L 18.109375 0 
L 9.078125 0 
L 9.078125 54.6875 
L 18.109375 54.6875 
L 18.109375 46.1875 
Q 21.1875 51.21875 25.484375 53.609375 
Q 29.78125 56 35.6875 56 
Q 41.65625 56 45.828125 52.96875 
Q 50 49.953125 52 44.1875 
z
" id="DejaVuSans-109"/>
      <path d="M 56.203125 29.59375 
L 56.203125 25.203125 
L 14.890625 25.203125 
Q 15.484375 15.921875 20.484375 11.0625 
Q 25.484375 6.203125 34.421875 6.203125 
Q 39.59375 6.203125 44.453125 7.46875 
Q 49.3125 8.734375 54.109375 11.28125 
L 54.109375 2.78125 
Q 49.265625 0.734375 44.1875 -0.34375 
Q 39.109375 -1.421875 33.890625 -1.421875 
Q 20.796875 -1.421875 13.15625 6.1875 
Q 5.515625 13.8125 5.515625 26.8125 
Q 5.515625 40.234375 12.765625 48.109375 
Q 20.015625 56 32.328125 56 
Q 43.359375 56 49.78125 48.890625 
Q 56.203125 41.796875 56.203125 29.59375 
z
M 47.21875 32.234375 
Q 47.125 39.59375 43.09375 43.984375 
Q 39.0625 48.390625 32.421875 48.390625 
Q 24.90625 48.390625 20.390625 44.140625 
Q 15.875 39.890625 15.1875 32.171875 
z
" id="DejaVuSans-101"/>
      <path id="DejaVuSans-32"/>
      <path d="M 8.59375 75.984375 
L 29.296875 75.984375 
L 29.296875 69 
L 17.578125 69 
L 17.578125 -6.203125 
L 29.296875 -6.203125 
L 29.296875 -13.1875 
L 8.59375 -13.1875 
z
" id="DejaVuSans-91"/>
      <path d="M 44.28125 53.078125 
L 44.28125 44.578125 
Q 40.484375 46.53125 36.375 47.5 
Q 32.28125 48.484375 27.875 48.484375 
Q 21.1875 48.484375 17.84375 46.4375 
Q 14.5 44.390625 14.5 40.28125 
Q 14.5 37.15625 16.890625 35.375 
Q 19.28125 33.59375 26.515625 31.984375 
L 29.59375 31.296875 
Q 39.15625 29.25 43.1875 25.515625 
Q 47.21875 21.78125 47.21875 15.09375 
Q 47.21875 7.46875 41.1875 3.015625 
Q 35.15625 -1.421875 24.609375 -1.421875 
Q 20.21875 -1.421875 15.453125 -0.5625 
Q 10.6875 0.296875 5.421875 2 
L 5.421875 11.28125 
Q 10.40625 8.6875 15.234375 7.390625 
Q 20.0625 6.109375 24.8125 6.109375 
Q 31.15625 6.109375 34.5625 8.28125 
Q 37.984375 10.453125 37.984375 14.40625 
Q 37.984375 18.0625 35.515625 20.015625 
Q 33.0625 21.96875 24.703125 23.78125 
L 21.578125 24.515625 
Q 13.234375 26.265625 9.515625 29.90625 
Q 5.8125 33.546875 5.8125 39.890625 
Q 5.8125 47.609375 11.28125 51.796875 
Q 16.75 56 26.8125 56 
Q 31.78125 56 36.171875 55.265625 
Q 40.578125 54.546875 44.28125 53.078125 
z
" id="DejaVuSans-115"/>
      <path d="M 30.421875 75.984375 
L 30.421875 -13.1875 
L 9.71875 -13.1875 
L 9.71875 -6.203125 
L 21.390625 -6.203125 
L 21.390625 69 
L 9.71875 69 
L 9.71875 75.984375 
z
" id="DejaVuSans-93"/>
     </defs>
     <g transform="translate(234.038281 412.756563)scale(0.1 -0.1)">
      <use xlink:href="#DejaVuSans-116"/>
      <use x="39.208984" xlink:href="#DejaVuSans-105"/>
      <use x="66.992188" xlink:href="#DejaVuSans-109"/>
      <use x="164.404297" xlink:href="#DejaVuSans-101"/>
      <use x="225.927734" xlink:href="#DejaVuSans-32"/>
      <use x="257.714844" xlink:href="#DejaVuSans-91"/>
      <use x="296.728516" xlink:href="#DejaVuSans-109"/>
      <use x="394.140625" xlink:href="#DejaVuSans-115"/>
      <use x="446.240234" xlink:href="#DejaVuSans-93"/>
     </g>
    </g>
   </g>
   <g id="matplotlib.axis_2">
    <g id="ytick_1">
     <g id="line2d_6">
      <defs>
       <path d="M 0 0 
L -3.5 0 
" id="m1099551845" style="stroke:#000000;stroke-width:0.8;"/>
      </defs>
      <g>
       <use style="stroke:#000000;stroke-width:0.8;" x="63" xlink:href="#m1099551845" y="347.890358"/>
      </g>
     </g>
     <g id="text_7">
      <!-- −80 -->
      <defs>
       <path d="M 10.59375 35.5 
L 73.1875 35.5 
L 73.1875 27.203125 
L 10.59375 27.203125 
z
" id="DejaVuSans-8722"/>
      </defs>
      <g transform="translate(34.895313 351.689577)scale(0.1 -0.1)">
       <use xlink:href="#DejaVuSans-8722"/>
       <use x="83.789062" xlink:href="#DejaVuSans-56"/>
       <use x="147.412109" xlink:href="#DejaVuSans-48"/>
      </g>
     </g>
    </g>
    <g id="ytick_2">
     <g id="line2d_7">
      <g>
       <use style="stroke:#000000;stroke-width:0.8;" x="63" xlink:href="#m1099551845" y="299.420663"/>
      </g>
     </g>
     <g id="text_8">
      <!-- −60 -->
      <g transform="translate(34.895313 303.219882)scale(0.1 -0.1)">
       <use xlink:href="#DejaVuSans-8722"/>
       <use x="83.789062" xlink:href="#DejaVuSans-54"/>
       <use x="147.412109" xlink:href="#DejaVuSans-48"/>
      </g>
     </g>
    </g>
    <g id="ytick_3">
     <g id="line2d_8">
      <g>
       <use style="stroke:#000000;stroke-width:0.8;" x="63" xlink:href="#m1099551845" y="250.950968"/>
      </g>
     </g>
     <g id="text_9">
      <!-- −40 -->
      <g transform="translate(34.895313 254.750187)scale(0.1 -0.1)">
       <use xlink:href="#DejaVuSans-8722"/>
       <use x="83.789062" xlink:href="#DejaVuSans-52"/>
       <use x="147.412109" xlink:href="#DejaVuSans-48"/>
      </g>
     </g>
    </g>
    <g id="ytick_4">
     <g id="line2d_9">
      <g>
       <use style="stroke:#000000;stroke-width:0.8;" x="63" xlink:href="#m1099551845" y="202.481273"/>
      </g>
     </g>
     <g id="text_10">
      <!-- −20 -->
      <g transform="translate(34.895313 206.280492)scale(0.1 -0.1)">
       <use xlink:href="#DejaVuSans-8722"/>
       <use x="83.789062" xlink:href="#DejaVuSans-50"/>
       <use x="147.412109" xlink:href="#DejaVuSans-48"/>
      </g>
     </g>
    </g>
    <g id="ytick_5">
     <g id="line2d_10">
      <g>
       <use style="stroke:#000000;stroke-width:0.8;" x="63" xlink:href="#m1099551845" y="154.011578"/>
      </g>
     </g>
     <g id="text_11">
      <!-- 0 -->
      <g transform="translate(49.6375 157.810797)scale(0.1 -0.1)">
       <use xlink:href="#DejaVuSans-48"/>
      </g>
     </g>
    </g>
    <g id="ytick_6">
     <g id="line2d_11">
      <g>
       <use style="stroke:#000000;stroke-width:0.8;" x="63" xlink:href="#m1099551845" y="105.541883"/>
      </g>
     </g>
     <g id="text_12">
      <!-- 20 -->
      <g transform="translate(43.275 109.341102)scale(0.1 -0.1)">
       <use xlink:href="#DejaVuSans-50"/>
       <use x="63.623047" xlink:href="#DejaVuSans-48"/>
      </g>
     </g>
    </g>
    <g id="ytick_7">
     <g id="line2d_12">
      <g>
       <use style="stroke:#000000;stroke-width:0.8;" x="63" xlink:href="#m1099551845" y="57.072188"/>
      </g>
     </g>
     <g id="text_13">
      <!-- 40 -->
      <g transform="translate(43.275 60.871407)scale(0.1 -0.1)">
       <use xlink:href="#DejaVuSans-52"/>
       <use x="63.623047" xlink:href="#DejaVuSans-48"/>
      </g>
     </g>
    </g>
    <g id="text_14">
     <!-- Voltage [mV] -->
     <defs>
      <path d="M 28.609375 0 
L 0.78125 72.90625 
L 11.078125 72.90625 
L 34.1875 11.53125 
L 57.328125 72.90625 
L 67.578125 72.90625 
L 39.796875 0 
z
" id="DejaVuSans-86"/>
      <path d="M 30.609375 48.390625 
Q 23.390625 48.390625 19.1875 42.75 
Q 14.984375 37.109375 14.984375 27.296875 
Q 14.984375 17.484375 19.15625 11.84375 
Q 23.34375 6.203125 30.609375 6.203125 
Q 37.796875 6.203125 41.984375 11.859375 
Q 46.1875 17.53125 46.1875 27.296875 
Q 46.1875 37.015625 41.984375 42.703125 
Q 37.796875 48.390625 30.609375 48.390625 
z
M 30.609375 56 
Q 42.328125 56 49.015625 48.375 
Q 55.71875 40.765625 55.71875 27.296875 
Q 55.71875 13.875 49.015625 6.21875 
Q 42.328125 -1.421875 30.609375 -1.421875 
Q 18.84375 -1.421875 12.171875 6.21875 
Q 5.515625 13.875 5.515625 27.296875 
Q 5.515625 40.765625 12.171875 48.375 
Q 18.84375 56 30.609375 56 
z
" id="DejaVuSans-111"/>
      <path d="M 9.421875 75.984375 
L 18.40625 75.984375 
L 18.40625 0 
L 9.421875 0 
z
" id="DejaVuSans-108"/>
      <path d="M 34.28125 27.484375 
Q 23.390625 27.484375 19.1875 25 
Q 14.984375 22.515625 14.984375 16.5 
Q 14.984375 11.71875 18.140625 8.90625 
Q 21.296875 6.109375 26.703125 6.109375 
Q 34.1875 6.109375 38.703125 11.40625 
Q 43.21875 16.703125 43.21875 25.484375 
L 43.21875 27.484375 
z
M 52.203125 31.203125 
L 52.203125 0 
L 43.21875 0 
L 43.21875 8.296875 
Q 40.140625 3.328125 35.546875 0.953125 
Q 30.953125 -1.421875 24.3125 -1.421875 
Q 15.921875 -1.421875 10.953125 3.296875 
Q 6 8.015625 6 15.921875 
Q 6 25.140625 12.171875 29.828125 
Q 18.359375 34.515625 30.609375 34.515625 
L 43.21875 34.515625 
L 43.21875 35.40625 
Q 43.21875 41.609375 39.140625 45 
Q 35.0625 48.390625 27.6875 48.390625 
Q 23 48.390625 18.546875 47.265625 
Q 14.109375 46.140625 10.015625 43.890625 
L 10.015625 52.203125 
Q 14.9375 54.109375 19.578125 55.046875 
Q 24.21875 56 28.609375 56 
Q 40.484375 56 46.34375 49.84375 
Q 52.203125 43.703125 52.203125 31.203125 
z
" id="DejaVuSans-97"/>
      <path d="M 45.40625 27.984375 
Q 45.40625 37.75 41.375 43.109375 
Q 37.359375 48.484375 30.078125 48.484375 
Q 22.859375 48.484375 18.828125 43.109375 
Q 14.796875 37.75 14.796875 27.984375 
Q 14.796875 18.265625 18.828125 12.890625 
Q 22.859375 7.515625 30.078125 7.515625 
Q 37.359375 7.515625 41.375 12.890625 
Q 45.40625 18.265625 45.40625 27.984375 
z
M 54.390625 6.78125 
Q 54.390625 -7.171875 48.1875 -13.984375 
Q 42 -20.796875 29.203125 -20.796875 
Q 24.46875 -20.796875 20.265625 -20.09375 
Q 16.0625 -19.390625 12.109375 -17.921875 
L 12.109375 -9.1875 
Q 16.0625 -11.328125 19.921875 -12.34375 
Q 23.78125 -13.375 27.78125 -13.375 
Q 36.625 -13.375 41.015625 -8.765625 
Q 45.40625 -4.15625 45.40625 5.171875 
L 45.40625 9.625 
Q 42.625 4.78125 38.28125 2.390625 
Q 33.9375 0 27.875 0 
Q 17.828125 0 11.671875 7.65625 
Q 5.515625 15.328125 5.515625 27.984375 
Q 5.515625 40.671875 11.671875 48.328125 
Q 17.828125 56 27.875 56 
Q 33.9375 56 38.28125 53.609375 
Q 42.625 51.21875 45.40625 46.390625 
L 45.40625 54.6875 
L 54.390625 54.6875 
z
" id="DejaVuSans-103"/>
     </defs>
     <g transform="translate(28.815625 251.079531)rotate(-90)scale(0.1 -0.1)">
      <use xlink:href="#DejaVuSans-86"/>
      <use x="68.298828" xlink:href="#DejaVuSans-111"/>
      <use x="129.480469" xlink:href="#DejaVuSans-108"/>
      <use x="157.263672" xlink:href="#DejaVuSans-116"/>
      <use x="196.472656" xlink:href="#DejaVuSans-97"/>
      <use x="257.751953" xlink:href="#DejaVuSans-103"/>
      <use x="321.228516" xlink:href="#DejaVuSans-101"/>
      <use x="382.751953" xlink:href="#DejaVuSans-32"/>
      <use x="414.539062" xlink:href="#DejaVuSans-91"/>
      <use x="453.552734" xlink:href="#DejaVuSans-109"/>
      <use x="550.964844" xlink:href="#DejaVuSans-86"/>
      <use x="619.373047" xlink:href="#DejaVuSans-93"/>
     </g>
    </g>
   </g>
   <g id="line2d_13">
    <path clip-path="url(#p62c69cd6f1)" d="M 80.754545 311.538087 
L 80.853175 311.677984 
L 81.306871 312.104395 
L 81.918374 312.369671 
L 82.894806 312.527571 
L 84.527124 312.544279 
L 90.518867 312.224354 
L 96.74239 312.096417 
L 100.480448 312.077 
L 100.638256 326.818732 
L 101.022911 339.992882 
L 101.634414 353.738829 
L 102.236054 362.749904 
L 102.729201 367.213897 
L 103.108925 368.944844 
L 103.375225 369.350798 
L 103.547826 369.300649 
L 103.75988 368.94945 
L 104.090289 367.897137 
L 104.677134 365.139992 
L 105.949455 359.153555 
L 106.60041 357.162306 
L 107.162598 356.096601 
L 107.67054 355.573274 
L 108.153825 355.379615 
L 108.676561 355.415426 
L 109.357105 355.706034 
L 112.567495 357.372439 
L 113.637626 357.501103 
L 115.102274 357.430706 
L 119.042523 357.164044 
L 126.454531 357.19712 
L 130.069303 357.192207 
L 130.22711 342.551521 
L 130.601902 330.12578 
L 131.159159 318.518249 
L 131.73121 310.868479 
L 132.268741 306.395721 
L 132.76682 303.938317 
L 133.215584 302.726079 
L 133.610102 302.229316 
L 133.960237 302.115119 
L 134.330098 302.237544 
L 134.818314 302.661216 
L 135.587624 303.66637 
L 138.640207 307.911666 
L 139.873076 309.125002 
L 139.932254 309.175148 
L 140.045678 311.691143 
L 140.509237 312.11707 
L 141.130603 312.377798 
L 142.126761 312.531294 
L 143.798531 312.541063 
L 158.982545 312.079153 
L 159.663088 312.077 
L 159.820896 309.127108 
L 160.200619 306.5372 
L 160.787465 303.985122 
L 161.408831 302.216928 
L 162.030197 301.083304 
L 162.656494 300.383338 
L 163.31238 299.97484 
L 164.061965 299.772188 
L 165.033465 299.753037 
L 166.641127 299.976697 
L 171.084386 300.649814 
L 174.600528 300.902239 
L 180.030083 301.042839 
L 189.251943 301.090149 
L 189.40975 304.034711 
L 189.779611 306.508123 
L 190.336867 308.819873 
L 190.94837 310.46415 
L 191.584531 311.569525 
L 192.25028 312.295945 
L 192.970275 312.756502 
L 193.803695 313.021177 
L 194.873825 313.114842 
L 196.516006 313.009525 
L 199.114894 312.698157 
L 199.119826 311.538087 
L 199.228318 311.691143 
L 199.691877 312.11707 
L 200.313243 312.377798 
L 201.309401 312.531294 
L 202.981171 312.541063 
L 218.165185 312.079153 
L 218.845729 312.077 
L 219.003536 306.176418 
L 219.383259 300.99166 
L 219.960242 295.961256 
L 220.571745 292.455348 
L 221.173385 290.207102 
L 221.755299 288.827521 
L 222.302693 288.056892 
L 222.820498 287.68791 
L 223.338303 287.586553 
L 223.93008 287.707268 
L 224.748705 288.1259 
L 228.54101 290.340618 
L 230.104288 290.846863 
L 231.988111 291.213588 
L 234.537684 291.468028 
L 238.596289 291.624556 
L 247.497602 291.695407 
L 248.434583 291.697308 
L 248.59239 297.636122 
L 248.952388 302.449191 
L 249.475124 306.636214 
L 250.047175 309.538474 
L 250.638952 311.458943 
L 251.235661 312.685962 
L 251.842233 313.451946 
L 252.478393 313.908221 
L 253.188525 314.143082 
L 254.061397 314.188304 
L 255.313991 314.010197 
L 258.297534 313.307941 
L 258.302466 311.538087 
L 258.410958 311.691143 
L 258.874517 312.11707 
L 259.495883 312.377798 
L 260.492041 312.531294 
L 262.163811 312.541063 
L 277.347825 312.079153 
L 278.028369 312.077 
L 278.186176 303.223674 
L 278.570831 295.329426 
L 279.197128 286.936971 
L 279.823426 278.542833 
L 279.887535 273.248989 
L 279.917124 182.603373 
L 279.951644 66.96 
L 280.025616 163.624002 
L 280.227807 306.242962 
L 280.380683 308.699796 
L 280.390545 308.695568 
L 280.454655 308.475995 
L 280.637119 306.797441 
L 281.332457 297.250105 
L 282.00807 289.920546 
L 282.654093 285.230121 
L 283.477649 280.965842 
L 284.01518 277.829453 
L 284.18285 275.451212 
L 284.237097 271.068041 
L 284.266685 191.023596 
L 284.306137 71.672863 
L 284.380109 165.750411 
L 284.5823 304.901494 
L 284.74997 307.791961 
L 284.804216 307.698952 
L 284.942298 306.763927 
L 285.336816 302.093861 
L 286.130783 293.338069 
L 286.732423 289.079749 
L 287.338995 286.281445 
L 287.980087 284.321242 
L 288.66063 282.924154 
L 289.375694 281.943191 
L 290.110484 281.298829 
L 290.850205 280.937631 
L 291.604721 280.81433 
L 292.438141 280.910099 
L 293.532928 281.280162 
L 296.960304 282.575704 
L 298.676457 282.89443 
L 300.89069 283.06381 
L 304.835871 283.103272 
L 307.617223 283.088762 
L 307.77503 292.222273 
L 308.120233 299.318803 
L 308.613381 305.163071 
L 309.155843 309.131102 
L 309.718032 311.720252 
L 310.285151 313.360819 
L 310.852271 314.368439 
L 311.424322 314.958128 
L 312.025962 315.269044 
L 312.716369 315.371061 
L 313.599103 315.263436 
L 314.974985 314.844181 
L 317.480174 313.945273 
L 317.485106 311.538087 
L 317.593598 311.691143 
L 318.057157 312.11707 
L 318.678523 312.377798 
L 319.674681 312.531294 
L 321.346451 312.541063 
L 336.530465 312.079153 
L 337.211009 312.077 
L 337.368816 300.26764 
L 337.758403 289.494618 
L 338.28607 275.501428 
L 338.305796 270.02029 
L 338.364974 67.24843 
L 338.453741 185.282227 
L 338.641137 304.281674 
L 338.759492 306.112264 
L 338.794012 306.032762 
L 338.912368 305.001323 
L 339.242777 299.653595 
L 340.386879 280.63159 
L 340.677836 274.563276 
L 340.722219 269.369154 
L 340.75674 144.737349 
L 340.786329 72.770577 
L 340.860301 167.049549 
L 341.062491 304.523636 
L 341.19071 306.554067 
L 341.215367 306.513897 
L 341.313997 305.825568 
L 341.585228 301.934666 
L 342.803302 283.134759 
L 343.449325 274.117885 
L 343.508503 268.69726 
L 343.543024 152.91059 
L 343.577544 76.725441 
L 343.646585 162.75016 
L 343.848775 302.417523 
L 343.991788 304.998441 
L 344.006582 304.989481 
L 344.075623 304.677247 
L 344.272882 302.456832 
L 345.9052 280.88863 
L 346.496977 274.417775 
L 346.585744 270.372753 
L 346.60547 244.691493 
L 346.664648 79.78908 
L 346.73862 169.093846 
L 346.94081 301.134086 
L 347.093686 303.86448 
L 347.103549 303.861394 
L 347.167658 303.627984 
L 347.345191 301.868087 
L 349.100797 280.929013 
L 349.845449 274.363989 
L 349.94901 270.756558 
L 349.968736 261.841177 
L 350.032846 82.007948 
L 350.106818 166.534369 
L 350.309008 299.830204 
L 350.471747 302.977773 
L 350.511199 302.925703 
L 350.521062 302.891931 
L 350.64928 301.952293 
L 351.014209 297.137105 
L 351.837766 286.772404 
L 352.493652 281.375025 
L 353.450358 274.011619 
L 353.544056 270.885104 
L 353.563782 265.611648 
L 353.632823 83.390355 
L 353.711726 174.609096 
L 353.908985 298.975511 
L 354.076656 302.323855 
L 354.101313 302.316907 
L 354.130902 302.239632 
L 354.264052 301.283885 
L 354.638844 296.494224 
L 355.442674 286.836037 
L 356.083766 281.807351 
L 357.2328 273.620678 
L 357.316635 270.18401 
L 357.336361 252.154013 
L 357.40047 84.454564 
L 357.469511 161.192036 
L 357.676633 298.283687 
L 357.844303 301.812147 
L 357.86896 301.821985 
L 357.908412 301.729645 
L 358.046494 300.740406 
L 358.441012 295.794002 
L 359.215253 286.829184 
L 359.856345 281.974231 
L 361.118803 273.384552 
L 361.192775 270.199426 
L 361.212501 253.451185 
L 361.27661 85.096717 
L 361.345651 160.11637 
L 361.552773 297.762066 
L 361.720443 301.478519 
L 361.750032 301.500922 
L 361.794415 301.396306 
L 361.937428 300.360352 
L 362.356603 295.155715 
L 363.106188 286.736018 
L 363.742348 282.044233 
L 365.068915 273.312391 
L 365.142887 269.867068 
L 365.162613 244.810754 
L 365.221791 85.809204 
L 365.295763 163.255271 
L 365.502885 297.586406 
L 365.675487 301.282095 
L 365.700144 301.298489 
L 365.744527 301.201443 
L 365.882609 300.237749 
L 366.282058 295.376669 
L 366.799863 289.197581 
L 366.952739 299.087888 
L 367.25849 304.51471 
L 367.72698 309.023626 
L 368.25958 312.133551 
L 368.806974 314.10646 
L 369.354367 315.306615 
L 369.89683 315.996572 
L 370.454087 316.359303 
L 371.060658 316.488988 
L 371.805311 316.409151 
L 372.855715 316.05152 
L 375.390494 314.865843 
L 376.662814 314.316224 
L 376.667746 311.538087 
L 376.776238 311.691143 
L 377.239797 312.11707 
L 377.861163 312.377798 
L 378.857321 312.531294 
L 380.529091 312.541063 
L 395.713105 312.079153 
L 396.393649 312.077 
L 396.551456 297.306442 
L 396.970631 282.414654 
L 397.143233 273.886132 
L 397.162959 248.749976 
L 397.217205 67.41459 
L 397.296109 176.211815 
L 397.488436 302.217643 
L 397.582134 303.603028 
L 397.631449 303.400746 
L 397.784325 301.385443 
L 398.247884 291.468415 
L 399.017194 271.589101 
L 399.041851 258.711715 
L 399.101029 72.847466 
L 399.175001 172.993174 
L 399.37226 303.73771 
L 399.47089 305.253239 
L 399.515273 305.109596 
L 399.653354 303.496756 
L 400.038009 295.71103 
L 401.10814 269.359866 
L 401.127865 236.724177 
L 401.182112 77.192232 
L 401.256084 172.163513 
L 401.453343 301.902592 
L 401.566767 303.765679 
L 401.601287 303.670217 
L 401.719643 302.488505 
L 402.054983 296.33514 
L 403.277989 268.721917 
L 403.297715 233.734855 
L 403.351961 80.522816 
L 403.425933 170.950903 
L 403.623192 300.284166 
L 403.746479 302.515182 
L 403.776068 302.45797 
L 403.879629 301.589246 
L 404.170586 296.773855 
L 405.52181 269.100069 
L 405.541536 243.481832 
L 405.600714 82.94267 
L 405.674686 171.232719 
L 405.871945 299.116224 
L 406.005095 301.63261 
L 406.029752 301.595977 
L 406.12345 300.918941 
L 406.384819 296.956848 
L 407.834672 269.285479 
L 407.854398 251.850044 
L 407.913576 84.644303 
L 407.987548 166.227991 
L 408.189739 298.177434 
L 408.332752 300.857232 
L 408.347546 300.839587 
L 408.42645 300.380096 
L 408.648366 297.395523 
L 410.191918 270.269292 
L 410.216575 264.424472 
L 410.285616 85.627319 
L 410.36452 177.967313 
L 410.556847 297.382372 
L 410.704791 300.344868 
L 410.719586 300.334078 
L 410.793558 299.953743 
L 411.00068 297.352313 
L 412.593547 270.807426 
L 412.628067 263.392497 
L 412.697108 86.482124 
L 412.77108 171.696056 
L 412.968339 296.791886 
L 413.121214 299.888865 
L 413.131077 299.884952 
L 413.190255 299.651188 
L 413.362857 297.7705 
L 414.003949 287.153536 
L 415.054353 269.05835 
L 415.074079 250.666947 
L 415.138188 86.943216 
L 415.207229 164.455529 
L 415.414351 296.633039 
L 415.567226 299.580093 
L 415.577089 299.575832 
L 415.641199 299.313398 
L 415.818732 297.360549 
L 417.431324 273.053777 
L 417.520091 268.863164 
L 417.539817 245.995853 
L 417.598994 87.298758 
L 417.672967 166.020186 
L 417.875157 296.110214 
L 418.037896 299.377407 
L 418.08721 299.243122 
L 418.230223 297.932525 
L 418.644467 291.446275 
L 419.482818 279.263413 
L 419.946377 272.139535 
L 420.010486 266.818993 
L 420.040075 187.149796 
L 420.084458 87.411797 
L 420.153499 163.728596 
L 420.360621 296.054466 
L 420.523359 299.182206 
L 420.572674 299.0447 
L 420.715687 297.741677 
L 421.134862 291.23786 
L 421.968282 279.277407 
L 422.441704 272.068325 
L 422.500881 267.817721 
L 422.520607 229.934251 
L 422.574853 87.605884 
L 422.648826 166.195125 
L 422.851016 295.729628 
L 423.013755 299.101065 
L 423.058138 299.010913 
L 423.186356 297.963525 
L 423.541423 292.674736 
L 424.448814 279.49736 
L 424.941962 272.140822 
L 425.006071 267.141826 
L 425.03566 191.289288 
L 425.080043 87.526814 
L 425.149084 162.219612 
L 425.356206 295.734605 
L 425.518944 299.005369 
L 425.563328 298.911577 
L 425.691546 297.863828 
L 425.982503 293.648532 
L 425.987435 295.083129 
L 426.145242 304.915569 
L 426.426336 308.978329 
L 426.865237 312.162172 
L 427.402768 314.53229 
L 427.950162 316.020624 
L 428.482761 316.875548 
L 429.010429 317.328224 
L 429.562754 317.515588 
L 430.203846 317.490298 
L 431.047129 317.217438 
L 432.418079 316.506211 
L 435.845455 314.654369 
L 435.845455 314.654369 
" style="fill:none;stroke:#ff0000;stroke-linecap:square;stroke-width:1.5;"/>
   </g>
   <g id="patch_3">
    <path d="M 63 384.48 
L 63 51.84 
" style="fill:none;stroke:#000000;stroke-linecap:square;stroke-linejoin:miter;stroke-width:0.8;"/>
   </g>
   <g id="patch_4">
    <path d="M 453.6 384.48 
L 453.6 51.84 
" style="fill:none;stroke:#000000;stroke-linecap:square;stroke-linejoin:miter;stroke-width:0.8;"/>
   </g>
   <g id="patch_5">
    <path d="M 63 384.48 
L 453.6 384.48 
" style="fill:none;stroke:#000000;stroke-linecap:square;stroke-linejoin:miter;stroke-width:0.8;"/>
   </g>
   <g id="patch_6">
    <path d="M 63 51.84 
L 453.6 51.84 
" style="fill:none;stroke:#000000;stroke-linecap:square;stroke-linejoin:miter;stroke-width:0.8;"/>
   </g>
   <g id="legend_1">
    <g id="patch_7">
     <path d="M 70 74.518125 
L 133.139062 74.518125 
Q 135.139062 74.518125 135.139062 72.518125 
L 135.139062 58.84 
Q 135.139062 56.84 133.139062 56.84 
L 70 56.84 
Q 68 56.84 68 58.84 
L 68 72.518125 
Q 68 74.518125 70 74.518125 
z
" style="fill:#ffffff;opacity:0.8;stroke:#cccccc;stroke-linejoin:miter;"/>
    </g>
    <g id="line2d_14">
     <path d="M 72 64.938438 
L 92 64.938438 
" style="fill:none;stroke:#ff0000;stroke-linecap:square;stroke-width:1.5;"/>
    </g>
    <g id="line2d_15"/>
    <g id="text_15">
     <!-- model -->
     <defs>
      <path d="M 45.40625 46.390625 
L 45.40625 75.984375 
L 54.390625 75.984375 
L 54.390625 0 
L 45.40625 0 
L 45.40625 8.203125 
Q 42.578125 3.328125 38.25 0.953125 
Q 33.9375 -1.421875 27.875 -1.421875 
Q 17.96875 -1.421875 11.734375 6.484375 
Q 5.515625 14.40625 5.515625 27.296875 
Q 5.515625 40.1875 11.734375 48.09375 
Q 17.96875 56 27.875 56 
Q 33.9375 56 38.25 53.625 
Q 42.578125 51.265625 45.40625 46.390625 
z
M 14.796875 27.296875 
Q 14.796875 17.390625 18.875 11.75 
Q 22.953125 6.109375 30.078125 6.109375 
Q 37.203125 6.109375 41.296875 11.75 
Q 45.40625 17.390625 45.40625 27.296875 
Q 45.40625 37.203125 41.296875 42.84375 
Q 37.203125 48.484375 30.078125 48.484375 
Q 22.953125 48.484375 18.875 42.84375 
Q 14.796875 37.203125 14.796875 27.296875 
z
" id="DejaVuSans-100"/>
     </defs>
     <g transform="translate(100 68.438438)scale(0.1 -0.1)">
      <use xlink:href="#DejaVuSans-109"/>
      <use x="97.412109" xlink:href="#DejaVuSans-111"/>
      <use x="158.59375" xlink:href="#DejaVuSans-100"/>
      <use x="222.070312" xlink:href="#DejaVuSans-101"/>
      <use x="283.59375" xlink:href="#DejaVuSans-108"/>
     </g>
    </g>
   </g>
  </g>
 </g>
 <defs>
  <clipPath id="p62c69cd6f1">
   <rect height="332.64" width="390.6" x="63" y="51.84"/>
  </clipPath>
 </defs>
</svg>
