<?xml version="1.0" encoding="utf-8" standalone="no"?>
<!DOCTYPE svg PUBLIC "-//W3C//DTD SVG 1.1//EN"
  "http://www.w3.org/Graphics/SVG/1.1/DTD/svg11.dtd">
<!-- Created with matplotlib (https://matplotlib.org/) -->
<svg height="432pt" version="1.1" viewBox="0 0 504 432" width="504pt" xmlns="http://www.w3.org/2000/svg" xmlns:xlink="http://www.w3.org/1999/xlink">
 <metadata>
  <rdf:RDF xmlns:cc="http://creativecommons.org/ns#" xmlns:dc="http://purl.org/dc/elements/1.1/" xmlns:rdf="http://www.w3.org/1999/02/22-rdf-syntax-ns#">
   <cc:Work>
    <dc:type rdf:resource="http://purl.org/dc/dcmitype/StillImage"/>
    <dc:date>2020-11-06T12:15:03.116338</dc:date>
    <dc:format>image/svg+xml</dc:format>
    <dc:creator>
     <cc:Agent>
      <dc:title>Matplotlib v3.3.2, https://matplotlib.org/</dc:title>
     </cc:Agent>
    </dc:creator>
   </cc:Work>
  </rdf:RDF>
 </metadata>
 <defs>
  <style type="text/css">*{stroke-linecap:butt;stroke-linejoin:round;}</style>
 </defs>
 <g id="figure_1">
  <g id="patch_1">
   <path d="M 0 432 
L 504 432 
L 504 0 
L 0 0 
z
" style="fill:#ffffff;"/>
  </g>
  <g id="axes_1">
   <g id="patch_2">
    <path d="M 63 384.48 
L 453.6 384.48 
L 453.6 51.84 
L 63 51.84 
z
" style="fill:#ffffff;"/>
   </g>
   <g id="matplotlib.axis_1">
    <g id="xtick_1">
     <g id="line2d_1">
      <defs>
       <path d="M 0 0 
L 0 3.5 
" id="m71837b7ca8" style="stroke:#000000;stroke-width:0.8;"/>
      </defs>
      <g>
       <use style="stroke:#000000;stroke-width:0.8;" x="80.754545" xlink:href="#m71837b7ca8" y="384.48"/>
      </g>
     </g>
     <g id="text_1">
      <!-- 0 -->
      <g transform="translate(77.573295 399.078438)scale(0.1 -0.1)">
       <defs>
        <path d="M 31.78125 66.40625 
Q 24.171875 66.40625 20.328125 58.90625 
Q 16.5 51.421875 16.5 36.375 
Q 16.5 21.390625 20.328125 13.890625 
Q 24.171875 6.390625 31.78125 6.390625 
Q 39.453125 6.390625 43.28125 13.890625 
Q 47.125 21.390625 47.125 36.375 
Q 47.125 51.421875 43.28125 58.90625 
Q 39.453125 66.40625 31.78125 66.40625 
z
M 31.78125 74.21875 
Q 44.046875 74.21875 50.515625 64.515625 
Q 56.984375 54.828125 56.984375 36.375 
Q 56.984375 17.96875 50.515625 8.265625 
Q 44.046875 -1.421875 31.78125 -1.421875 
Q 19.53125 -1.421875 13.0625 8.265625 
Q 6.59375 17.96875 6.59375 36.375 
Q 6.59375 54.828125 13.0625 64.515625 
Q 19.53125 74.21875 31.78125 74.21875 
z
" id="DejaVuSans-48"/>
       </defs>
       <use xlink:href="#DejaVuSans-48"/>
      </g>
     </g>
    </g>
    <g id="xtick_2">
     <g id="line2d_2">
      <g>
       <use style="stroke:#000000;stroke-width:0.8;" x="151.763044" xlink:href="#m71837b7ca8" y="384.48"/>
      </g>
     </g>
     <g id="text_2">
      <!-- 880 -->
      <g transform="translate(142.219294 399.078438)scale(0.1 -0.1)">
       <defs>
        <path d="M 31.78125 34.625 
Q 24.75 34.625 20.71875 30.859375 
Q 16.703125 27.09375 16.703125 20.515625 
Q 16.703125 13.921875 20.71875 10.15625 
Q 24.75 6.390625 31.78125 6.390625 
Q 38.8125 6.390625 42.859375 10.171875 
Q 46.921875 13.96875 46.921875 20.515625 
Q 46.921875 27.09375 42.890625 30.859375 
Q 38.875 34.625 31.78125 34.625 
z
M 21.921875 38.8125 
Q 15.578125 40.375 12.03125 44.71875 
Q 8.5 49.078125 8.5 55.328125 
Q 8.5 64.0625 14.71875 69.140625 
Q 20.953125 74.21875 31.78125 74.21875 
Q 42.671875 74.21875 48.875 69.140625 
Q 55.078125 64.0625 55.078125 55.328125 
Q 55.078125 49.078125 51.53125 44.71875 
Q 48 40.375 41.703125 38.8125 
Q 48.828125 37.15625 52.796875 32.3125 
Q 56.78125 27.484375 56.78125 20.515625 
Q 56.78125 9.90625 50.3125 4.234375 
Q 43.84375 -1.421875 31.78125 -1.421875 
Q 19.734375 -1.421875 13.25 4.234375 
Q 6.78125 9.90625 6.78125 20.515625 
Q 6.78125 27.484375 10.78125 32.3125 
Q 14.796875 37.15625 21.921875 38.8125 
z
M 18.3125 54.390625 
Q 18.3125 48.734375 21.84375 45.5625 
Q 25.390625 42.390625 31.78125 42.390625 
Q 38.140625 42.390625 41.71875 45.5625 
Q 45.3125 48.734375 45.3125 54.390625 
Q 45.3125 60.0625 41.71875 63.234375 
Q 38.140625 66.40625 31.78125 66.40625 
Q 25.390625 66.40625 21.84375 63.234375 
Q 18.3125 60.0625 18.3125 54.390625 
z
" id="DejaVuSans-56"/>
       </defs>
       <use xlink:href="#DejaVuSans-56"/>
       <use x="63.623047" xlink:href="#DejaVuSans-56"/>
       <use x="127.246094" xlink:href="#DejaVuSans-48"/>
      </g>
     </g>
    </g>
    <g id="xtick_3">
     <g id="line2d_3">
      <g>
       <use style="stroke:#000000;stroke-width:0.8;" x="222.771543" xlink:href="#m71837b7ca8" y="384.48"/>
      </g>
     </g>
     <g id="text_3">
      <!-- 1760 -->
      <g transform="translate(210.046543 399.078438)scale(0.1 -0.1)">
       <defs>
        <path d="M 12.40625 8.296875 
L 28.515625 8.296875 
L 28.515625 63.921875 
L 10.984375 60.40625 
L 10.984375 69.390625 
L 28.421875 72.90625 
L 38.28125 72.90625 
L 38.28125 8.296875 
L 54.390625 8.296875 
L 54.390625 0 
L 12.40625 0 
z
" id="DejaVuSans-49"/>
        <path d="M 8.203125 72.90625 
L 55.078125 72.90625 
L 55.078125 68.703125 
L 28.609375 0 
L 18.3125 0 
L 43.21875 64.59375 
L 8.203125 64.59375 
z
" id="DejaVuSans-55"/>
        <path d="M 33.015625 40.375 
Q 26.375 40.375 22.484375 35.828125 
Q 18.609375 31.296875 18.609375 23.390625 
Q 18.609375 15.53125 22.484375 10.953125 
Q 26.375 6.390625 33.015625 6.390625 
Q 39.65625 6.390625 43.53125 10.953125 
Q 47.40625 15.53125 47.40625 23.390625 
Q 47.40625 31.296875 43.53125 35.828125 
Q 39.65625 40.375 33.015625 40.375 
z
M 52.59375 71.296875 
L 52.59375 62.3125 
Q 48.875 64.0625 45.09375 64.984375 
Q 41.3125 65.921875 37.59375 65.921875 
Q 27.828125 65.921875 22.671875 59.328125 
Q 17.53125 52.734375 16.796875 39.40625 
Q 19.671875 43.65625 24.015625 45.921875 
Q 28.375 48.1875 33.59375 48.1875 
Q 44.578125 48.1875 50.953125 41.515625 
Q 57.328125 34.859375 57.328125 23.390625 
Q 57.328125 12.15625 50.6875 5.359375 
Q 44.046875 -1.421875 33.015625 -1.421875 
Q 20.359375 -1.421875 13.671875 8.265625 
Q 6.984375 17.96875 6.984375 36.375 
Q 6.984375 53.65625 15.1875 63.9375 
Q 23.390625 74.21875 37.203125 74.21875 
Q 40.921875 74.21875 44.703125 73.484375 
Q 48.484375 72.75 52.59375 71.296875 
z
" id="DejaVuSans-54"/>
       </defs>
       <use xlink:href="#DejaVuSans-49"/>
       <use x="63.623047" xlink:href="#DejaVuSans-55"/>
       <use x="127.246094" xlink:href="#DejaVuSans-54"/>
       <use x="190.869141" xlink:href="#DejaVuSans-48"/>
      </g>
     </g>
    </g>
    <g id="xtick_4">
     <g id="line2d_4">
      <g>
       <use style="stroke:#000000;stroke-width:0.8;" x="293.780042" xlink:href="#m71837b7ca8" y="384.48"/>
      </g>
     </g>
     <g id="text_4">
      <!-- 2640 -->
      <g transform="translate(281.055042 399.078438)scale(0.1 -0.1)">
       <defs>
        <path d="M 19.1875 8.296875 
L 53.609375 8.296875 
L 53.609375 0 
L 7.328125 0 
L 7.328125 8.296875 
Q 12.9375 14.109375 22.625 23.890625 
Q 32.328125 33.6875 34.8125 36.53125 
Q 39.546875 41.84375 41.421875 45.53125 
Q 43.3125 49.21875 43.3125 52.78125 
Q 43.3125 58.59375 39.234375 62.25 
Q 35.15625 65.921875 28.609375 65.921875 
Q 23.96875 65.921875 18.8125 64.3125 
Q 13.671875 62.703125 7.8125 59.421875 
L 7.8125 69.390625 
Q 13.765625 71.78125 18.9375 73 
Q 24.125 74.21875 28.421875 74.21875 
Q 39.75 74.21875 46.484375 68.546875 
Q 53.21875 62.890625 53.21875 53.421875 
Q 53.21875 48.921875 51.53125 44.890625 
Q 49.859375 40.875 45.40625 35.40625 
Q 44.1875 33.984375 37.640625 27.21875 
Q 31.109375 20.453125 19.1875 8.296875 
z
" id="DejaVuSans-50"/>
        <path d="M 37.796875 64.3125 
L 12.890625 25.390625 
L 37.796875 25.390625 
z
M 35.203125 72.90625 
L 47.609375 72.90625 
L 47.609375 25.390625 
L 58.015625 25.390625 
L 58.015625 17.1875 
L 47.609375 17.1875 
L 47.609375 0 
L 37.796875 0 
L 37.796875 17.1875 
L 4.890625 17.1875 
L 4.890625 26.703125 
z
" id="DejaVuSans-52"/>
       </defs>
       <use xlink:href="#DejaVuSans-50"/>
       <use x="63.623047" xlink:href="#DejaVuSans-54"/>
       <use x="127.246094" xlink:href="#DejaVuSans-52"/>
       <use x="190.869141" xlink:href="#DejaVuSans-48"/>
      </g>
     </g>
    </g>
    <g id="xtick_5">
     <g id="line2d_5">
      <g>
       <use style="stroke:#000000;stroke-width:0.8;" x="364.788541" xlink:href="#m71837b7ca8" y="384.48"/>
      </g>
     </g>
     <g id="text_5">
      <!-- 3520 -->
      <g transform="translate(352.063541 399.078438)scale(0.1 -0.1)">
       <defs>
        <path d="M 40.578125 39.3125 
Q 47.65625 37.796875 51.625 33 
Q 55.609375 28.21875 55.609375 21.1875 
Q 55.609375 10.40625 48.1875 4.484375 
Q 40.765625 -1.421875 27.09375 -1.421875 
Q 22.515625 -1.421875 17.65625 -0.515625 
Q 12.796875 0.390625 7.625 2.203125 
L 7.625 11.71875 
Q 11.71875 9.328125 16.59375 8.109375 
Q 21.484375 6.890625 26.8125 6.890625 
Q 36.078125 6.890625 40.9375 10.546875 
Q 45.796875 14.203125 45.796875 21.1875 
Q 45.796875 27.640625 41.28125 31.265625 
Q 36.765625 34.90625 28.71875 34.90625 
L 20.21875 34.90625 
L 20.21875 43.015625 
L 29.109375 43.015625 
Q 36.375 43.015625 40.234375 45.921875 
Q 44.09375 48.828125 44.09375 54.296875 
Q 44.09375 59.90625 40.109375 62.90625 
Q 36.140625 65.921875 28.71875 65.921875 
Q 24.65625 65.921875 20.015625 65.03125 
Q 15.375 64.15625 9.8125 62.3125 
L 9.8125 71.09375 
Q 15.4375 72.65625 20.34375 73.4375 
Q 25.25 74.21875 29.59375 74.21875 
Q 40.828125 74.21875 47.359375 69.109375 
Q 53.90625 64.015625 53.90625 55.328125 
Q 53.90625 49.265625 50.4375 45.09375 
Q 46.96875 40.921875 40.578125 39.3125 
z
" id="DejaVuSans-51"/>
        <path d="M 10.796875 72.90625 
L 49.515625 72.90625 
L 49.515625 64.59375 
L 19.828125 64.59375 
L 19.828125 46.734375 
Q 21.96875 47.46875 24.109375 47.828125 
Q 26.265625 48.1875 28.421875 48.1875 
Q 40.625 48.1875 47.75 41.5 
Q 54.890625 34.8125 54.890625 23.390625 
Q 54.890625 11.625 47.5625 5.09375 
Q 40.234375 -1.421875 26.90625 -1.421875 
Q 22.3125 -1.421875 17.546875 -0.640625 
Q 12.796875 0.140625 7.71875 1.703125 
L 7.71875 11.625 
Q 12.109375 9.234375 16.796875 8.0625 
Q 21.484375 6.890625 26.703125 6.890625 
Q 35.15625 6.890625 40.078125 11.328125 
Q 45.015625 15.765625 45.015625 23.390625 
Q 45.015625 31 40.078125 35.4375 
Q 35.15625 39.890625 26.703125 39.890625 
Q 22.75 39.890625 18.8125 39.015625 
Q 14.890625 38.140625 10.796875 36.28125 
z
" id="DejaVuSans-53"/>
       </defs>
       <use xlink:href="#DejaVuSans-51"/>
       <use x="63.623047" xlink:href="#DejaVuSans-53"/>
       <use x="127.246094" xlink:href="#DejaVuSans-50"/>
       <use x="190.869141" xlink:href="#DejaVuSans-48"/>
      </g>
     </g>
    </g>
    <g id="text_6">
     <!-- time [ms] -->
     <g transform="translate(234.038281 412.756563)scale(0.1 -0.1)">
      <defs>
       <path d="M 18.3125 70.21875 
L 18.3125 54.6875 
L 36.8125 54.6875 
L 36.8125 47.703125 
L 18.3125 47.703125 
L 18.3125 18.015625 
Q 18.3125 11.328125 20.140625 9.421875 
Q 21.96875 7.515625 27.59375 7.515625 
L 36.8125 7.515625 
L 36.8125 0 
L 27.59375 0 
Q 17.1875 0 13.234375 3.875 
Q 9.28125 7.765625 9.28125 18.015625 
L 9.28125 47.703125 
L 2.6875 47.703125 
L 2.6875 54.6875 
L 9.28125 54.6875 
L 9.28125 70.21875 
z
" id="DejaVuSans-116"/>
       <path d="M 9.421875 54.6875 
L 18.40625 54.6875 
L 18.40625 0 
L 9.421875 0 
z
M 9.421875 75.984375 
L 18.40625 75.984375 
L 18.40625 64.59375 
L 9.421875 64.59375 
z
" id="DejaVuSans-105"/>
       <path d="M 52 44.1875 
Q 55.375 50.25 60.0625 53.125 
Q 64.75 56 71.09375 56 
Q 79.640625 56 84.28125 50.015625 
Q 88.921875 44.046875 88.921875 33.015625 
L 88.921875 0 
L 79.890625 0 
L 79.890625 32.71875 
Q 79.890625 40.578125 77.09375 44.375 
Q 74.3125 48.1875 68.609375 48.1875 
Q 61.625 48.1875 57.5625 43.546875 
Q 53.515625 38.921875 53.515625 30.90625 
L 53.515625 0 
L 44.484375 0 
L 44.484375 32.71875 
Q 44.484375 40.625 41.703125 44.40625 
Q 38.921875 48.1875 33.109375 48.1875 
Q 26.21875 48.1875 22.15625 43.53125 
Q 18.109375 38.875 18.109375 30.90625 
L 18.109375 0 
L 9.078125 0 
L 9.078125 54.6875 
L 18.109375 54.6875 
L 18.109375 46.1875 
Q 21.1875 51.21875 25.484375 53.609375 
Q 29.78125 56 35.6875 56 
Q 41.65625 56 45.828125 52.96875 
Q 50 49.953125 52 44.1875 
z
" id="DejaVuSans-109"/>
       <path d="M 56.203125 29.59375 
L 56.203125 25.203125 
L 14.890625 25.203125 
Q 15.484375 15.921875 20.484375 11.0625 
Q 25.484375 6.203125 34.421875 6.203125 
Q 39.59375 6.203125 44.453125 7.46875 
Q 49.3125 8.734375 54.109375 11.28125 
L 54.109375 2.78125 
Q 49.265625 0.734375 44.1875 -0.34375 
Q 39.109375 -1.421875 33.890625 -1.421875 
Q 20.796875 -1.421875 13.15625 6.1875 
Q 5.515625 13.8125 5.515625 26.8125 
Q 5.515625 40.234375 12.765625 48.109375 
Q 20.015625 56 32.328125 56 
Q 43.359375 56 49.78125 48.890625 
Q 56.203125 41.796875 56.203125 29.59375 
z
M 47.21875 32.234375 
Q 47.125 39.59375 43.09375 43.984375 
Q 39.0625 48.390625 32.421875 48.390625 
Q 24.90625 48.390625 20.390625 44.140625 
Q 15.875 39.890625 15.1875 32.171875 
z
" id="DejaVuSans-101"/>
       <path id="DejaVuSans-32"/>
       <path d="M 8.59375 75.984375 
L 29.296875 75.984375 
L 29.296875 69 
L 17.578125 69 
L 17.578125 -6.203125 
L 29.296875 -6.203125 
L 29.296875 -13.1875 
L 8.59375 -13.1875 
z
" id="DejaVuSans-91"/>
       <path d="M 44.28125 53.078125 
L 44.28125 44.578125 
Q 40.484375 46.53125 36.375 47.5 
Q 32.28125 48.484375 27.875 48.484375 
Q 21.1875 48.484375 17.84375 46.4375 
Q 14.5 44.390625 14.5 40.28125 
Q 14.5 37.15625 16.890625 35.375 
Q 19.28125 33.59375 26.515625 31.984375 
L 29.59375 31.296875 
Q 39.15625 29.25 43.1875 25.515625 
Q 47.21875 21.78125 47.21875 15.09375 
Q 47.21875 7.46875 41.1875 3.015625 
Q 35.15625 -1.421875 24.609375 -1.421875 
Q 20.21875 -1.421875 15.453125 -0.5625 
Q 10.6875 0.296875 5.421875 2 
L 5.421875 11.28125 
Q 10.40625 8.6875 15.234375 7.390625 
Q 20.0625 6.109375 24.8125 6.109375 
Q 31.15625 6.109375 34.5625 8.28125 
Q 37.984375 10.453125 37.984375 14.40625 
Q 37.984375 18.0625 35.515625 20.015625 
Q 33.0625 21.96875 24.703125 23.78125 
L 21.578125 24.515625 
Q 13.234375 26.265625 9.515625 29.90625 
Q 5.8125 33.546875 5.8125 39.890625 
Q 5.8125 47.609375 11.28125 51.796875 
Q 16.75 56 26.8125 56 
Q 31.78125 56 36.171875 55.265625 
Q 40.578125 54.546875 44.28125 53.078125 
z
" id="DejaVuSans-115"/>
       <path d="M 30.421875 75.984375 
L 30.421875 -13.1875 
L 9.71875 -13.1875 
L 9.71875 -6.203125 
L 21.390625 -6.203125 
L 21.390625 69 
L 9.71875 69 
L 9.71875 75.984375 
z
" id="DejaVuSans-93"/>
      </defs>
      <use xlink:href="#DejaVuSans-116"/>
      <use x="39.208984" xlink:href="#DejaVuSans-105"/>
      <use x="66.992188" xlink:href="#DejaVuSans-109"/>
      <use x="164.404297" xlink:href="#DejaVuSans-101"/>
      <use x="225.927734" xlink:href="#DejaVuSans-32"/>
      <use x="257.714844" xlink:href="#DejaVuSans-91"/>
      <use x="296.728516" xlink:href="#DejaVuSans-109"/>
      <use x="394.140625" xlink:href="#DejaVuSans-115"/>
      <use x="446.240234" xlink:href="#DejaVuSans-93"/>
     </g>
    </g>
   </g>
   <g id="matplotlib.axis_2">
    <g id="ytick_1">
     <g id="line2d_6">
      <defs>
       <path d="M 0 0 
L -3.5 0 
" id="m74d96bc959" style="stroke:#000000;stroke-width:0.8;"/>
      </defs>
      <g>
       <use style="stroke:#000000;stroke-width:0.8;" x="63" xlink:href="#m74d96bc959" y="365.393859"/>
      </g>
     </g>
     <g id="text_7">
      <!-- −150 -->
      <g transform="translate(28.532812 369.193077)scale(0.1 -0.1)">
       <defs>
        <path d="M 10.59375 35.5 
L 73.1875 35.5 
L 73.1875 27.203125 
L 10.59375 27.203125 
z
" id="DejaVuSans-8722"/>
       </defs>
       <use xlink:href="#DejaVuSans-8722"/>
       <use x="83.789062" xlink:href="#DejaVuSans-49"/>
       <use x="147.412109" xlink:href="#DejaVuSans-53"/>
       <use x="211.035156" xlink:href="#DejaVuSans-48"/>
      </g>
     </g>
    </g>
    <g id="ytick_2">
     <g id="line2d_7">
      <g>
       <use style="stroke:#000000;stroke-width:0.8;" x="63" xlink:href="#m74d96bc959" y="292.753908"/>
      </g>
     </g>
     <g id="text_8">
      <!-- −100 -->
      <g transform="translate(28.532812 296.553127)scale(0.1 -0.1)">
       <use xlink:href="#DejaVuSans-8722"/>
       <use x="83.789062" xlink:href="#DejaVuSans-49"/>
       <use x="147.412109" xlink:href="#DejaVuSans-48"/>
       <use x="211.035156" xlink:href="#DejaVuSans-48"/>
      </g>
     </g>
    </g>
    <g id="ytick_3">
     <g id="line2d_8">
      <g>
       <use style="stroke:#000000;stroke-width:0.8;" x="63" xlink:href="#m74d96bc959" y="220.113958"/>
      </g>
     </g>
     <g id="text_9">
      <!-- −50 -->
      <g transform="translate(34.895313 223.913177)scale(0.1 -0.1)">
       <use xlink:href="#DejaVuSans-8722"/>
       <use x="83.789062" xlink:href="#DejaVuSans-53"/>
       <use x="147.412109" xlink:href="#DejaVuSans-48"/>
      </g>
     </g>
    </g>
    <g id="ytick_4">
     <g id="line2d_9">
      <g>
       <use style="stroke:#000000;stroke-width:0.8;" x="63" xlink:href="#m74d96bc959" y="147.474008"/>
      </g>
     </g>
     <g id="text_10">
      <!-- 0 -->
      <g transform="translate(49.6375 151.273226)scale(0.1 -0.1)">
       <use xlink:href="#DejaVuSans-48"/>
      </g>
     </g>
    </g>
    <g id="ytick_5">
     <g id="line2d_10">
      <g>
       <use style="stroke:#000000;stroke-width:0.8;" x="63" xlink:href="#m74d96bc959" y="74.834057"/>
      </g>
     </g>
     <g id="text_11">
      <!-- 50 -->
      <g transform="translate(43.275 78.633276)scale(0.1 -0.1)">
       <use xlink:href="#DejaVuSans-53"/>
       <use x="63.623047" xlink:href="#DejaVuSans-48"/>
      </g>
     </g>
    </g>
    <g id="text_12">
     <!-- voltage [mV] -->
     <g transform="translate(22.453125 250.624062)rotate(-90)scale(0.1 -0.1)">
      <defs>
       <path d="M 2.984375 54.6875 
L 12.5 54.6875 
L 29.59375 8.796875 
L 46.6875 54.6875 
L 56.203125 54.6875 
L 35.6875 0 
L 23.484375 0 
z
" id="DejaVuSans-118"/>
       <path d="M 30.609375 48.390625 
Q 23.390625 48.390625 19.1875 42.75 
Q 14.984375 37.109375 14.984375 27.296875 
Q 14.984375 17.484375 19.15625 11.84375 
Q 23.34375 6.203125 30.609375 6.203125 
Q 37.796875 6.203125 41.984375 11.859375 
Q 46.1875 17.53125 46.1875 27.296875 
Q 46.1875 37.015625 41.984375 42.703125 
Q 37.796875 48.390625 30.609375 48.390625 
z
M 30.609375 56 
Q 42.328125 56 49.015625 48.375 
Q 55.71875 40.765625 55.71875 27.296875 
Q 55.71875 13.875 49.015625 6.21875 
Q 42.328125 -1.421875 30.609375 -1.421875 
Q 18.84375 -1.421875 12.171875 6.21875 
Q 5.515625 13.875 5.515625 27.296875 
Q 5.515625 40.765625 12.171875 48.375 
Q 18.84375 56 30.609375 56 
z
" id="DejaVuSans-111"/>
       <path d="M 9.421875 75.984375 
L 18.40625 75.984375 
L 18.40625 0 
L 9.421875 0 
z
" id="DejaVuSans-108"/>
       <path d="M 34.28125 27.484375 
Q 23.390625 27.484375 19.1875 25 
Q 14.984375 22.515625 14.984375 16.5 
Q 14.984375 11.71875 18.140625 8.90625 
Q 21.296875 6.109375 26.703125 6.109375 
Q 34.1875 6.109375 38.703125 11.40625 
Q 43.21875 16.703125 43.21875 25.484375 
L 43.21875 27.484375 
z
M 52.203125 31.203125 
L 52.203125 0 
L 43.21875 0 
L 43.21875 8.296875 
Q 40.140625 3.328125 35.546875 0.953125 
Q 30.953125 -1.421875 24.3125 -1.421875 
Q 15.921875 -1.421875 10.953125 3.296875 
Q 6 8.015625 6 15.921875 
Q 6 25.140625 12.171875 29.828125 
Q 18.359375 34.515625 30.609375 34.515625 
L 43.21875 34.515625 
L 43.21875 35.40625 
Q 43.21875 41.609375 39.140625 45 
Q 35.0625 48.390625 27.6875 48.390625 
Q 23 48.390625 18.546875 47.265625 
Q 14.109375 46.140625 10.015625 43.890625 
L 10.015625 52.203125 
Q 14.9375 54.109375 19.578125 55.046875 
Q 24.21875 56 28.609375 56 
Q 40.484375 56 46.34375 49.84375 
Q 52.203125 43.703125 52.203125 31.203125 
z
" id="DejaVuSans-97"/>
       <path d="M 45.40625 27.984375 
Q 45.40625 37.75 41.375 43.109375 
Q 37.359375 48.484375 30.078125 48.484375 
Q 22.859375 48.484375 18.828125 43.109375 
Q 14.796875 37.75 14.796875 27.984375 
Q 14.796875 18.265625 18.828125 12.890625 
Q 22.859375 7.515625 30.078125 7.515625 
Q 37.359375 7.515625 41.375 12.890625 
Q 45.40625 18.265625 45.40625 27.984375 
z
M 54.390625 6.78125 
Q 54.390625 -7.171875 48.1875 -13.984375 
Q 42 -20.796875 29.203125 -20.796875 
Q 24.46875 -20.796875 20.265625 -20.09375 
Q 16.0625 -19.390625 12.109375 -17.921875 
L 12.109375 -9.1875 
Q 16.0625 -11.328125 19.921875 -12.34375 
Q 23.78125 -13.375 27.78125 -13.375 
Q 36.625 -13.375 41.015625 -8.765625 
Q 45.40625 -4.15625 45.40625 5.171875 
L 45.40625 9.625 
Q 42.625 4.78125 38.28125 2.390625 
Q 33.9375 0 27.875 0 
Q 17.828125 0 11.671875 7.65625 
Q 5.515625 15.328125 5.515625 27.984375 
Q 5.515625 40.671875 11.671875 48.328125 
Q 17.828125 56 27.875 56 
Q 33.9375 56 38.28125 53.609375 
Q 42.625 51.21875 45.40625 46.390625 
L 45.40625 54.6875 
L 54.390625 54.6875 
z
" id="DejaVuSans-103"/>
       <path d="M 28.609375 0 
L 0.78125 72.90625 
L 11.078125 72.90625 
L 34.1875 11.53125 
L 57.328125 72.90625 
L 67.578125 72.90625 
L 39.796875 0 
z
" id="DejaVuSans-86"/>
      </defs>
      <use xlink:href="#DejaVuSans-118"/>
      <use x="59.179688" xlink:href="#DejaVuSans-111"/>
      <use x="120.361328" xlink:href="#DejaVuSans-108"/>
      <use x="148.144531" xlink:href="#DejaVuSans-116"/>
      <use x="187.353516" xlink:href="#DejaVuSans-97"/>
      <use x="248.632812" xlink:href="#DejaVuSans-103"/>
      <use x="312.109375" xlink:href="#DejaVuSans-101"/>
      <use x="373.632812" xlink:href="#DejaVuSans-32"/>
      <use x="405.419922" xlink:href="#DejaVuSans-91"/>
      <use x="444.433594" xlink:href="#DejaVuSans-109"/>
      <use x="541.845703" xlink:href="#DejaVuSans-86"/>
      <use x="610.253906" xlink:href="#DejaVuSans-93"/>
     </g>
    </g>
   </g>
   <g id="line2d_11">
    <path clip-path="url(#pa08adf91ba)" d="M 80.754545 232.457074 
L 83.385088 232.386137 
L 83.417364 232.3152 
L 83.465779 232.457074 
L 83.498056 232.386137 
L 83.514194 232.457074 
L 83.594885 232.386137 
L 83.723992 232.3152 
L 84.547045 232.386137 
L 84.676151 232.457074 
L 84.96664 232.386137 
L 85.095747 232.3152 
L 85.176438 232.386137 
L 85.208715 232.3152 
L 85.337821 232.386137 
L 85.35396 232.457074 
L 85.402374 232.3152 
L 85.434651 232.3152 
L 86.322257 232.386137 
L 86.451364 232.457074 
L 87.419661 232.528012 
L 87.532629 232.598949 
L 87.581044 232.528012 
L 87.645598 232.598949 
L 88.694587 232.669887 
L 88.807555 232.740824 
L 88.85597 232.669887 
L 89.049629 224.583017 
L 89.501501 216.99271 
L 90.356831 207.132404 
L 91.196022 200.677096 
L 91.470373 198.974597 
L 91.777001 197.201161 
L 92.551639 194.292726 
L 92.583916 194.221788 
L 92.793714 193.796163 
L 92.82599 193.725226 
L 93.11648 192.944914 
L 93.310139 192.873977 
L 93.503799 192.519289 
L 93.552214 192.448352 
L 93.745873 192.093665 
L 93.858841 192.022727 
L 94.020224 191.809915 
L 94.213884 191.738977 
L 94.391405 191.455227 
L 95.843851 191.38429 
L 95.989096 191.10054 
L 96.005234 191.171478 
L 96.118202 191.10054 
L 96.247309 191.029603 
L 96.553936 190.958665 
L 96.683043 190.887728 
L 96.892841 191.313353 
L 96.957394 191.38429 
L 97.167192 191.809915 
L 97.393128 191.738977 
L 97.425404 191.66804 
L 97.506096 191.738977 
L 97.845 191.66804 
L 97.990245 191.526165 
L 98.006383 191.597102 
L 98.03866 191.455227 
L 98.103213 191.526165 
L 98.264596 191.597102 
L 98.296872 191.66804 
L 98.361426 191.526165 
L 98.50667 191.597102 
L 98.538947 191.66804 
L 98.571223 191.526165 
L 98.619638 191.597102 
L 99.119925 191.526165 
L 99.26517 191.38429 
L 99.959117 191.313353 
L 100.055947 191.242415 
L 100.072085 191.313353 
L 100.1205 191.38429 
L 100.362574 192.590227 
L 100.604649 193.157726 
L 100.653063 193.228664 
L 100.733755 193.299601 
L 100.766031 193.228664 
L 100.943553 193.157726 
L 101.056521 192.944914 
L 101.088797 193.015851 
L 101.217904 192.944914 
L 101.395425 192.661164 
L 101.427702 192.732102 
L 101.508393 192.661164 
L 101.556808 192.590227 
L 101.702053 192.448352 
L 101.831159 192.377414 
L 101.960265 192.306477 
L 102.040957 192.377414 
L 102.073233 192.306477 
L 102.153925 192.235539 
L 102.331446 191.95179 
L 102.347584 192.022727 
L 102.379861 191.880852 
L 102.428276 191.95179 
L 102.589659 191.738977 
L 102.718765 191.809915 
L 102.993116 191.738977 
L 103.057669 191.526165 
L 103.122223 191.66804 
L 103.235191 191.738977 
L 103.251329 191.809915 
L 103.33202 191.66804 
L 103.348159 191.738977 
L 103.461127 191.597102 
L 103.477265 191.66804 
L 103.687063 191.597102 
L 103.816169 191.526165 
L 104.09052 191.455227 
L 104.18735 191.38429 
L 104.203488 191.455227 
L 104.38101 191.38429 
L 104.526254 191.10054 
L 104.542393 191.171478 
L 104.639222 191.10054 
L 104.687637 191.029603 
L 104.75219 191.10054 
L 104.897435 191.029603 
L 105.026541 190.958665 
L 105.236339 191.029603 
L 105.317031 191.10054 
L 105.349307 191.029603 
L 106.107807 190.958665 
L 106.123945 190.887728 
L 106.17236 191.029603 
L 106.220775 190.958665 
L 106.882445 191.029603 
L 107.011552 191.10054 
L 107.705498 191.029603 
L 107.737775 190.958665 
L 107.78619 191.10054 
L 107.802328 191.10054 
L 108.383307 191.029603 
L 108.528551 190.887728 
L 108.576966 190.81679 
L 108.706073 190.745853 
L 109.254775 190.674916 
L 109.335466 190.603978 
L 109.367743 190.674916 
L 109.690509 190.603978 
L 109.819615 190.462103 
L 109.916445 190.533041 
L 109.932583 190.462103 
L 110.416732 190.533041 
L 110.561977 190.674916 
L 110.691083 190.603978 
L 111.368891 190.674916 
L 111.530274 190.887728 
L 112.256498 190.958665 
L 112.321051 190.887728 
L 112.385604 191.029603 
L 112.821338 191.10054 
L 112.837476 191.171478 
L 112.869753 191.029603 
L 112.934306 191.10054 
L 113.17638 191.171478 
L 113.337763 191.38429 
L 113.434593 191.455227 
L 113.579838 191.597102 
L 113.789636 191.526165 
L 113.870327 191.455227 
L 113.902604 191.526165 
L 114.160817 191.597102 
L 114.257646 191.66804 
L 114.273785 191.597102 
L 114.386753 191.455227 
L 114.402891 191.526165 
L 114.483582 191.455227 
L 114.580412 191.313353 
L 114.612689 191.38429 
L 114.806348 191.313353 
L 114.935455 191.242415 
L 115.35505 191.171478 
L 115.484157 191.10054 
L 115.532572 191.171478 
L 115.580986 191.10054 
L 115.710093 191.029603 
L 115.839199 190.958665 
L 115.984444 190.81679 
L 116.21038 190.745853 
L 116.339486 190.674916 
L 116.484731 190.603978 
L 116.629976 190.462103 
L 116.710667 190.391166 
L 116.742944 190.320228 
L 116.823635 190.391166 
L 117.017295 190.462103 
L 117.033433 190.533041 
L 117.130263 190.462103 
L 117.259369 190.533041 
L 117.501444 191.10054 
L 117.549858 191.171478 
L 117.743518 191.526165 
L 117.921039 191.597102 
L 118.050146 191.66804 
L 118.647263 191.597102 
L 118.776369 191.526165 
L 119.05072 191.455227 
L 119.131411 191.38429 
L 119.163688 191.455227 
L 119.518731 191.38429 
L 119.663975 191.242415 
L 119.80922 191.171478 
L 119.938326 191.10054 
L 120.002879 191.171478 
L 120.051294 191.10054 
L 120.228815 190.81679 
L 120.438613 190.745853 
L 120.56772 190.674916 
L 120.664549 190.603978 
L 120.696826 190.533041 
L 120.745241 190.674916 
L 120.761379 190.674916 
L 120.858209 190.745853 
L 120.874347 190.674916 
L 121.116422 190.745853 
L 121.261666 190.887728 
L 121.471464 190.81679 
L 121.616709 190.674916 
L 121.778092 190.603978 
L 121.939475 190.391166 
L 122.116996 190.320228 
L 122.246102 190.249291 
L 122.407485 190.462103 
L 122.423624 190.391166 
L 122.520453 190.462103 
L 122.697975 190.391166 
L 122.810943 190.249291 
L 122.827081 190.320228 
L 123.133709 190.391166 
L 123.278953 190.533041 
L 123.553304 190.603978 
L 123.682411 190.745853 
L 123.843794 190.533041 
L 123.924485 190.603978 
L 123.940623 190.674916 
L 124.005177 190.533041 
L 124.021315 190.533041 
L 124.360219 190.462103 
L 124.489325 190.391166 
L 124.682985 190.462103 
L 124.844368 190.674916 
L 125.280102 190.745853 
L 125.360793 190.887728 
L 125.39307 190.81679 
L 125.522176 190.745853 
L 125.764251 190.674916 
L 125.780389 190.603978 
L 125.877219 190.674916 
L 126.038602 190.603978 
L 126.167708 190.533041 
L 126.329091 190.462103 
L 126.458197 190.391166 
L 126.587304 190.462103 
L 126.651857 190.533041 
L 126.700272 190.462103 
L 127.136006 190.391166 
L 127.152144 190.320228 
L 127.232836 190.391166 
L 127.248974 190.462103 
L 127.297389 190.320228 
L 127.329665 190.320228 
L 127.394219 190.391166 
L 127.442633 190.533041 
L 127.507187 190.462103 
L 127.636293 190.391166 
L 127.765399 190.462103 
L 127.975197 190.391166 
L 128.120442 190.249291 
L 128.217272 190.178353 
L 128.346378 190.107416 
L 128.410931 190.036478 
L 128.540038 189.965541 
L 129.08874 189.894604 
L 129.137154 189.823666 
L 129.201708 189.894604 
L 129.605165 189.965541 
L 129.734271 190.036478 
L 129.831101 189.965541 
L 130.024761 189.610854 
L 130.137729 189.539916 
L 130.282973 189.398041 
L 130.525048 189.327104 
L 130.541186 189.256166 
L 130.589601 189.398041 
L 130.621878 189.327104 
L 130.670292 189.398041 
L 130.734846 189.327104 
L 131.07375 189.256166 
L 131.218995 189.114292 
L 132.477782 189.185229 
L 132.606888 189.256166 
L 132.768271 189.185229 
L 132.816686 189.114292 
L 132.881239 189.185229 
L 133.268558 189.256166 
L 133.397664 189.327104 
L 133.413803 189.327104 
L 133.559047 189.681791 
L 133.591324 189.610854 
L 133.639739 189.823666 
L 133.655877 189.752729 
L 133.768845 189.823666 
L 133.962505 190.178353 
L 133.994781 190.249291 
L 134.156164 190.533041 
L 134.285271 190.462103 
L 134.430515 190.533041 
L 134.559622 190.674916 
L 134.688728 190.603978 
L 134.979217 190.533041 
L 135.108324 190.462103 
L 135.33426 190.391166 
L 135.414951 190.249291 
L 135.463366 190.320228 
L 135.818409 190.249291 
L 135.834547 190.178353 
L 135.866824 190.320228 
L 135.931377 190.249291 
L 136.044345 190.178353 
L 136.060483 190.107416 
L 136.157313 190.178353 
L 136.883536 190.107416 
L 137.061057 189.823666 
L 137.174025 189.752729 
L 137.206302 189.681791 
L 137.238579 189.823666 
L 137.270855 189.823666 
L 137.367685 189.752729 
L 137.432238 189.610854 
L 137.480653 189.752729 
L 137.690451 189.681791 
L 137.835696 189.539916 
L 137.98094 189.681791 
L 138.110047 189.610854 
L 138.206876 189.398041 
L 138.255291 189.468979 
L 138.707163 189.398041 
L 138.83627 189.327104 
L 138.900823 189.398041 
L 138.949238 189.327104 
L 139.126759 189.398041 
L 139.255866 189.468979 
L 139.30428 189.398041 
L 139.368834 189.468979 
L 139.772291 189.398041 
L 139.901397 189.256166 
L 139.998227 189.327104 
L 140.014365 189.256166 
L 140.756727 189.185229 
L 140.91811 188.972417 
L 141.047216 188.901479 
L 141.127908 188.830542 
L 141.160184 188.901479 
L 141.434535 189.610854 
L 141.902546 189.539916 
L 142.031652 189.468979 
L 142.14462 189.398041 
L 142.273727 189.327104 
L 142.386695 189.398041 
L 142.515801 189.327104 
L 142.80629 189.256166 
L 142.951535 189.114292 
L 144.339429 189.185229 
L 144.468535 189.468979 
L 144.484673 189.398041 
L 144.581503 189.327104 
L 144.597641 189.398041 
L 144.678333 189.468979 
L 144.823577 189.610854 
L 145.340003 189.539916 
L 145.485247 189.398041 
L 145.64663 189.327104 
L 145.775737 189.256166 
L 146.308301 189.185229 
L 146.388992 189.043354 
L 146.437407 189.114292 
L 147.244322 189.185229 
L 147.26046 189.256166 
L 147.35729 189.185229 
L 147.550949 189.114292 
L 147.680056 189.043354 
L 147.809162 189.114292 
L 147.938268 189.043354 
L 147.970545 188.972417 
L 148.051236 189.043354 
L 148.180343 189.114292 
L 148.325587 189.256166 
L 148.374002 189.185229 
L 148.503109 189.114292 
L 148.632215 189.185229 
L 148.858151 189.114292 
L 148.890428 188.972417 
L 148.987258 189.043354 
L 149.100226 189.114292 
L 149.116364 189.185229 
L 149.164779 189.043354 
L 149.213194 189.114292 
L 149.358438 188.972417 
L 149.697343 189.043354 
L 149.826449 189.114292 
L 149.971694 189.114292 
L 150.00397 188.972417 
L 150.084662 189.043354 
L 150.407427 189.114292 
L 150.601087 189.539916 
L 150.76247 189.327104 
L 151.085236 189.398041 
L 151.149789 189.468979 
L 151.198204 189.398041 
L 151.32731 189.327104 
L 151.343449 189.398041 
L 151.375725 189.256166 
L 151.440278 189.327104 
L 151.811459 189.256166 
L 151.843736 189.185229 
L 151.924427 189.256166 
L 152.424714 189.185229 
L 152.586097 188.972417 
L 152.908863 188.901479 
L 152.94114 188.830542 
L 153.005693 188.972417 
L 153.054108 188.901479 
L 153.070246 188.830542 
L 153.150938 188.972417 
L 153.328459 188.901479 
L 153.360736 188.830542 
L 153.40915 188.901479 
L 153.60281 196.988349 
L 154.054682 204.507719 
L 154.425863 209.118653 
L 154.861597 213.516775 
L 154.990703 214.580837 
L 155.265054 216.779898 
L 155.765342 220.255833 
L 155.991278 221.745519 
L 156.314044 223.66083 
L 156.927299 226.853016 
L 157.137097 227.775203 
L 158.460437 233.095512 
L 158.492713 233.166449 
L 158.815479 234.088636 
L 158.847756 234.159573 
L 159.154383 235.010823 
L 159.18666 235.08176 
L 159.428735 235.64926 
L 159.461011 235.720197 
L 159.735362 236.429572 
L 159.816054 236.500509 
L 160.025851 236.926134 
L 160.058128 236.997071 
L 160.284064 237.493634 
L 160.348617 237.564571 
L 160.542277 237.919258 
L 160.60683 237.990196 
L 160.80049 238.41582 
L 160.816628 238.344883 
L 160.865043 238.486758 
L 160.897319 238.486758 
L 160.978011 238.557695 
L 161.139394 238.770508 
L 161.300777 238.841445 
L 161.478298 239.125195 
L 161.526713 239.054257 
L 161.591266 239.125195 
L 161.752649 239.338007 
L 161.897894 239.408945 
L 162.043138 239.55082 
L 162.091553 239.621757 
L 162.236798 239.763632 
L 162.285213 239.834569 
L 162.317489 239.905507 
L 162.398181 239.834569 
L 162.462734 239.905507 
L 162.607979 240.047382 
L 162.995298 240.118319 
L 163.124404 240.189257 
L 163.318064 240.260194 
L 163.431032 240.402069 
L 163.44717 240.331132 
L 163.527861 240.402069 
L 163.656968 240.473007 
L 163.931319 240.543944 
L 164.060425 240.614881 
L 164.544574 240.543944 
L 164.625266 240.473007 
L 164.657542 240.543944 
L 165.997021 240.473007 
L 166.126127 240.331132 
L 166.206818 240.402069 
L 166.239095 240.331132 
L 166.432755 240.260194 
L 166.577999 240.118319 
L 166.900765 240.047382 
L 167.029872 239.976444 
L 167.304223 239.905507 
L 167.465606 239.692695 
L 167.659265 239.621757 
L 167.788371 239.55082 
L 168.014308 239.479882 
L 168.175691 239.26707 
L 168.191829 239.338007 
L 168.288659 239.26707 
L 168.450042 239.196132 
L 168.56301 239.125195 
L 168.579148 239.196132 
L 168.627563 239.054257 
L 168.659839 239.054257 
L 168.837361 238.98332 
L 168.853499 238.912383 
L 168.885775 239.054257 
L 168.950329 238.98332 
L 169.12785 238.912383 
L 169.273095 238.770508 
L 169.418339 238.69957 
L 169.499031 238.628633 
L 169.611999 233.095512 
L 169.708829 233.166449 
L 169.724967 233.237386 
L 169.821797 233.166449 
L 170.951477 233.237386 
L 170.967616 233.308324 
L 171.064445 233.237386 
L 171.790669 233.308324 
L 171.822945 233.379261 
L 171.903637 233.308324 
L 172.048881 233.166449 
L 172.177988 233.237386 
L 172.387786 233.166449 
L 172.516892 233.095512 
L 173.162424 233.024574 
L 173.307668 232.882699 
L 174.518041 232.953637 
L 174.647147 233.024574 
L 175.115157 233.095512 
L 175.147434 233.166449 
L 175.228126 233.095512 
L 175.389508 233.166449 
L 175.405647 233.237386 
L 175.502477 233.166449 
L 175.615445 233.237386 
L 175.712274 233.308324 
L 175.728413 233.237386 
L 175.954349 233.308324 
L 176.083455 233.379261 
L 176.099593 233.308324 
L 176.180285 233.450199 
L 176.196423 233.379261 
L 176.664434 233.308324 
L 176.79354 233.237386 
L 176.938785 233.166449 
L 177.019476 233.237386 
L 177.067891 233.095512 
L 177.213136 233.166449 
L 177.293827 233.237386 
L 177.326104 233.166449 
L 177.616593 233.166449 
L 177.810253 222.596769 
L 178.391231 210.182715 
L 179.149731 198.761785 
L 179.82754 191.242415 
L 180.39238 187.19898 
L 180.924944 185.354607 
L 180.95722 185.283669 
L 181.15088 184.928982 
L 181.312263 184.858045 
L 181.522061 184.43242 
L 181.538199 184.43242 
L 181.683444 184.077733 
L 181.764135 184.006795 
L 181.90938 183.86492 
L 182.328975 183.793983 
L 182.522635 183.439295 
L 182.66788 183.368358 
L 182.861539 183.013671 
L 182.926092 183.084608 
L 182.974507 183.155546 
L 183.03906 183.084608 
L 183.103614 183.013671 
L 183.264997 182.800858 
L 183.313411 182.729921 
L 183.539348 182.233359 
L 183.620039 182.162421 
L 183.829837 181.736797 
L 183.89439 181.665859 
L 184.184879 180.885547 
L 184.233294 180.956485 
L 184.297847 180.885547 
L 184.539922 180.318048 
L 184.814273 180.24711 
L 184.927241 179.821485 
L 184.991794 179.96336 
L 185.072486 179.892423 
L 185.250007 179.395861 
L 185.282283 179.466798 
L 185.346837 179.395861 
L 185.669602 178.473674 
L 185.718017 178.402736 
L 186.411964 174.855864 
L 186.428102 174.430239 
L 186.444241 170.032117 
L 186.492656 73.62812 
L 186.573347 124.064649 
L 186.73473 181.382109 
L 186.944528 183.226483 
L 188.05807 192.164602 
L 188.074208 192.164602 
L 188.25173 192.803039 
L 188.477666 193.299601 
L 188.526081 193.370539 
L 188.752017 193.867101 
L 188.800432 193.938038 
L 188.961815 194.150851 
L 189.026368 194.079913 
L 189.058644 194.150851 
L 189.187751 194.221788 
L 189.720315 194.150851 
L 189.865559 194.008976 
L 190.091495 193.938038 
L 190.23674 193.796163 
L 190.285155 193.725226 
L 190.414261 193.583351 
L 190.4304 193.654288 
L 190.494953 193.512414 
L 190.511091 193.512414 
L 190.591783 193.441476 
L 190.720889 193.370539 
L 190.89841 193.299601 
L 191.027516 193.228664 
L 191.140485 193.157726 
L 191.301868 192.944914 
L 191.46325 192.873977 
L 191.640772 192.590227 
L 192.205612 192.519289 
L 192.366995 192.306477 
L 192.463825 192.235539 
L 192.625208 191.95179 
L 192.754314 192.022727 
L 192.835006 191.95179 
L 192.899559 191.880852 
L 192.947974 191.95179 
L 193.238463 191.880852 
L 193.383708 191.738977 
L 193.512814 191.66804 
L 193.658059 191.526165 
L 193.787165 191.597102 
L 193.964686 191.313353 
L 194.013101 191.38429 
L 194.061516 191.242415 
L 194.448835 191.171478 
L 194.59408 191.029603 
L 194.723186 190.958665 
L 194.900707 190.674916 
L 194.981399 190.603978 
L 195.126643 190.462103 
L 195.271888 190.391166 
L 195.35258 190.249291 
L 195.400994 190.320228 
L 195.465548 190.249291 
L 195.610792 190.107416 
L 195.885143 190.036478 
L 196.01425 189.965541 
L 196.094941 189.894604 
L 196.256324 189.610854 
L 196.353154 189.681791 
L 196.369292 189.610854 
L 196.708196 189.539916 
L 196.837303 189.468979 
L 196.950271 189.539916 
L 196.982547 189.468979 
L 197.063239 189.539916 
L 197.14393 189.468979 
L 197.160069 189.398041 
L 197.224622 189.539916 
L 197.24076 189.539916 
L 197.402143 189.610854 
L 197.579664 190.036478 
L 197.595803 189.965541 
L 197.644218 190.036478 
L 197.821739 190.320228 
L 197.854015 190.249291 
L 197.934707 190.320228 
L 197.966983 190.391166 
L 198.112228 190.533041 
L 198.467271 190.462103 
L 198.483409 190.391166 
L 198.580239 190.462103 
L 198.644792 190.391166 
L 198.822313 190.107416 
L 199.032111 190.036478 
L 199.209632 189.752729 
L 199.241909 189.823666 
L 199.306462 189.681791 
L 199.500121 189.327104 
L 199.629228 189.398041 
L 199.790611 189.327104 
L 199.951994 189.114292 
L 200.032685 189.043354 
L 200.161792 188.972417 
L 200.532972 188.901479 
L 200.662079 188.688667 
L 200.678217 188.759604 
L 200.807323 188.688667 
L 200.968706 188.475855 
L 201.065536 188.404917 
L 201.226919 188.192105 
L 201.372164 188.121167 
L 201.50127 188.05023 
L 201.646515 187.979292 
L 201.807898 187.76648 
L 201.856313 187.837417 
L 201.985419 187.908355 
L 202.146802 187.695543 
L 202.275908 187.76648 
L 202.3566 187.695543 
L 202.517983 187.48273 
L 202.582536 187.411793 
L 202.727781 187.19898 
L 202.743919 187.269918 
L 202.776195 187.128043 
L 202.82461 187.128043 
L 203.034408 187.057105 
L 203.179653 186.915231 
L 203.550834 186.986168 
L 203.67994 187.057105 
L 203.77677 187.128043 
L 203.905876 187.19898 
L 204.632099 187.128043 
L 204.777344 186.986168 
L 204.858035 186.915231 
L 204.987142 186.844293 
L 205.116248 186.986168 
L 205.164663 186.915231 
L 205.19694 187.057105 
L 205.229216 186.986168 
L 205.358323 187.19898 
L 205.374461 187.128043 
L 206.052269 187.19898 
L 206.213652 187.411793 
L 206.455727 187.48273 
L 206.61711 187.695543 
L 206.762354 187.76648 
L 206.907599 187.908355 
L 207.343333 187.837417 
L 207.359471 187.76648 
L 207.456301 187.837417 
L 207.472439 187.908355 
L 207.569269 187.837417 
L 207.666099 187.908355 
L 207.682237 187.979292 
L 207.779067 187.908355 
L 208.021141 187.837417 
L 208.182524 187.624605 
L 208.230939 187.553668 
L 208.40846 187.269918 
L 208.60212 187.19898 
L 208.731226 187.128043 
L 208.989439 187.057105 
L 209.118545 186.986168 
L 209.215375 186.915231 
L 209.36062 186.773356 
L 209.538141 186.702418 
L 209.731801 186.347731 
L 210.038428 186.276794 
L 210.183673 186.134919 
L 210.232088 186.205856 
L 210.393471 186.418668 
L 211.055141 186.347731 
L 211.232662 186.063981 
L 211.297215 186.134919 
L 211.329492 186.063981 
L 211.474737 185.922106 
L 211.652258 185.851169 
L 211.749088 185.780231 
L 211.765226 185.851169 
L 211.813641 185.780231 
L 211.958885 185.638356 
L 212.023439 185.567419 
L 212.039577 185.496482 
L 212.087992 185.638356 
L 212.120268 185.638356 
L 212.217098 185.709294 
L 212.362343 185.851169 
L 212.410758 185.780231 
L 212.475311 185.638356 
L 212.523726 185.780231 
L 212.588279 185.709294 
L 212.636694 185.638356 
L 212.685109 185.709294 
L 212.86263 185.993044 
L 213.185396 185.922106 
L 213.217672 185.851169 
L 213.266087 185.993044 
L 213.282226 185.993044 
L 213.556577 185.922106 
L 213.653406 185.851169 
L 213.669545 185.922106 
L 213.814789 185.851169 
L 214.008449 185.496482 
L 214.056864 185.425544 
L 214.073002 185.354607 
L 214.169832 185.425544 
L 214.2828 185.354607 
L 214.411906 185.283669 
L 214.589427 185.212732 
L 214.734672 185.070857 
L 214.84764 185.141794 
L 214.879917 185.212732 
L 214.928332 185.070857 
L 214.94447 185.070857 
L 215.202683 184.999919 
L 215.331789 184.928982 
L 215.460895 184.999919 
L 215.751385 185.070857 
L 215.767523 185.141794 
L 215.864353 185.070857 
L 216.058012 184.71617 
L 216.138704 184.645232 
L 216.300087 184.361482 
L 216.380778 184.43242 
L 216.413055 184.361482 
L 216.542161 184.290545 
L 216.687406 184.14867 
L 216.92948 184.077733 
L 216.977895 184.006795 
L 217.02631 184.077733 
L 217.042448 184.14867 
L 217.139278 184.077733 
L 217.704118 184.14867 
L 217.833225 184.219607 
L 217.849363 184.14867 
L 217.946193 184.219607 
L 218.204406 184.219607 
L 218.34965 184.574295 
L 218.656278 184.503357 
L 218.785384 184.43242 
L 218.962905 184.503357 
L 219.027459 184.43242 
L 219.075874 184.574295 
L 219.20498 184.503357 
L 219.414778 184.574295 
L 219.576161 184.787107 
L 219.915065 184.858045 
L 220.157139 185.425544 
L 220.270107 185.496482 
L 220.350799 185.638356 
L 220.399214 185.567419 
L 220.496044 185.496482 
L 220.62515 185.425544 
L 220.818809 185.496482 
L 220.834948 185.567419 
L 220.931777 185.496482 
L 221.125437 185.425544 
L 221.254543 185.354607 
L 221.319097 185.283669 
L 221.464341 185.141794 
L 221.722554 185.070857 
L 221.867799 184.928982 
L 221.900075 184.928982 
L 222.029182 184.645232 
L 222.077596 184.574295 
L 222.158288 184.361482 
L 222.222841 184.43242 
L 222.739267 184.361482 
L 222.900649 184.14867 
L 223.013618 184.077733 
L 223.158862 183.86492 
L 223.175001 183.935858 
L 223.239554 183.793983 
L 223.255692 183.86492 
L 223.449352 183.510233 
L 223.626873 183.439295 
L 223.852809 182.942733 
L 223.981915 182.871796 
L 224.046468 182.729921 
L 224.094883 182.800858 
L 224.272405 183.084608 
L 224.320819 183.013671 
L 224.385373 182.942733 
L 224.433788 183.013671 
L 224.514479 183.155546 
L 224.562894 183.084608 
L 224.692 183.155546 
L 224.853383 183.368358 
L 225.127734 183.297421 
L 225.256841 183.226483 
L 225.289117 183.297421 
L 225.305255 183.368358 
L 225.35367 183.226483 
L 225.385947 183.226483 
L 225.54733 183.297421 
L 225.692575 183.439295 
L 225.740989 183.368358 
L 225.886234 183.226483 
L 226.063755 183.155546 
L 226.338106 182.446171 
L 226.547904 182.517109 
L 226.580181 182.588046 
L 226.628596 182.446171 
L 226.644734 182.446171 
L 226.725425 182.375234 
L 226.87067 182.233359 
L 226.886808 182.304296 
L 226.9675 182.162421 
L 226.983638 182.233359 
L 227.06433 182.304296 
L 227.096606 182.375234 
L 227.161159 182.233359 
L 227.403234 182.233359 
L 227.53234 181.949609 
L 227.661447 181.878672 
L 227.677585 181.807734 
L 227.758276 181.878672 
L 227.855106 182.020546 
L 227.887383 181.949609 
L 228.048766 181.878672 
L 228.097181 181.807734 
L 228.161734 181.878672 
L 228.419946 181.807734 
L 228.597468 181.523984 
L 228.823404 181.453047 
L 228.871819 181.311172 
L 228.936372 181.453047 
L 229.081617 181.382109 
L 229.259138 181.09836 
L 229.307553 181.027422 
L 229.468936 180.81461 
L 229.630319 180.885547 
L 229.646457 180.956485 
L 229.71101 180.81461 
L 229.727148 180.81461 
L 230.082191 180.743672 
L 230.098329 180.672735 
L 230.162882 180.81461 
L 230.179021 180.81461 
L 230.905244 180.743672 
L 231.195733 179.96336 
L 231.22801 179.892423 
L 231.421669 179.537736 
L 231.453946 179.466798 
L 231.954233 177.764299 
L 231.970371 177.835237 
L 232.034925 177.622424 
L 232.164031 176.061801 
L 232.180169 173.437115 
L 232.244722 72.847808 
L 232.309276 119.950276 
L 232.470659 180.601797 
L 232.535212 181.169297 
L 232.599765 181.027422 
L 232.74501 180.81461 
L 233.051637 182.658983 
L 233.551924 186.205856 
L 233.584201 186.276794 
L 233.826275 187.48273 
L 234.520222 190.036478 
L 234.584775 190.107416 
L 234.794573 190.533041 
L 234.842988 190.603978 
L 235.036647 190.958665 
L 235.101201 191.029603 
L 235.262584 191.242415 
L 235.359413 191.313353 
L 235.520796 191.526165 
L 235.601488 191.597102 
L 235.746732 191.738977 
L 235.908115 191.809915 
L 236.037222 191.880852 
L 236.117913 191.95179 
L 236.263158 192.164602 
L 236.279296 192.093665 
L 236.359988 192.235539 
L 236.521371 192.448352 
L 236.876413 192.377414 
L 237.005519 192.235539 
L 237.070073 192.377414 
L 237.118488 192.306477 
L 237.247594 192.235539 
L 237.392839 192.164602 
L 237.538083 192.022727 
L 237.57036 192.093665 
L 237.634913 192.022727 
L 237.812434 191.738977 
L 237.860849 191.66804 
L 238.006094 191.526165 
L 238.167477 191.455227 
L 238.312721 191.313353 
L 238.474104 191.242415 
L 238.619349 191.10054 
L 238.829147 191.029603 
L 238.974392 190.887728 
L 239.103498 190.81679 
L 239.264881 190.603978 
L 239.329434 190.533041 
L 239.490817 190.320228 
L 239.732891 190.249291 
L 239.861998 190.178353 
L 240.152487 190.107416 
L 240.281593 190.036478 
L 240.378423 190.107416 
L 240.394561 190.036478 
L 240.572083 189.965541 
L 240.701189 189.894604 
L 240.959402 189.823666 
L 241.104646 189.681791 
L 241.459689 189.610854 
L 241.604934 189.468979 
L 241.717902 189.398041 
L 241.879285 189.185229 
L 242.169774 189.185229 
L 242.363433 199.542097 
L 242.799167 208.125529 
L 243.234901 213.871462 
L 243.654497 218.056772 
L 243.783603 219.120834 
L 244.396859 223.589893 
L 244.638933 225.150517 
L 244.961699 227.065828 
L 246.494837 233.308324 
L 246.55939 233.379261 
L 246.946709 234.585198 
L 246.978986 234.656135 
L 247.237199 235.294573 
L 247.269475 235.36551 
L 247.527688 236.003947 
L 247.592241 236.074885 
L 247.834316 236.642384 
L 247.850454 236.642384 
L 247.995699 237.068009 
L 248.011837 236.997071 
L 248.060252 237.138946 
L 248.092528 237.138946 
L 248.302326 237.564571 
L 248.366879 237.635508 
L 248.576677 238.061133 
L 248.657369 238.132071 
L 248.83489 238.41582 
L 248.996273 238.486758 
L 249.173794 238.770508 
L 249.238347 238.841445 
L 249.383592 238.98332 
L 249.544975 239.054257 
L 249.706358 239.26707 
L 249.819326 239.338007 
L 249.980709 239.55082 
L 250.303475 239.621757 
L 250.416443 239.763632 
L 250.432581 239.692695 
L 250.513273 239.763632 
L 250.610102 239.905507 
L 250.642379 239.834569 
L 250.884453 239.905507 
L 251.01356 239.976444 
L 251.255634 240.047382 
L 251.271772 240.118319 
L 251.352464 239.976444 
L 251.497709 240.047382 
L 251.626815 240.118319 
L 252.43373 240.047382 
L 252.562836 239.905507 
L 252.691942 240.047382 
L 252.837187 239.905507 
L 252.934017 239.834569 
L 252.99857 239.763632 
L 253.046985 239.834569 
L 253.611825 239.763632 
L 253.75707 239.621757 
L 254.273495 239.55082 
L 254.41874 239.408945 
L 254.499431 239.479882 
L 254.531708 239.408945 
L 254.773783 239.338007 
L 254.789921 239.26707 
L 254.838336 239.408945 
L 254.886751 239.338007 
L 255.354761 239.26707 
L 255.483867 239.196132 
L 255.709804 239.125195 
L 255.83891 239.054257 
L 256.000293 238.98332 
L 256.129399 238.841445 
L 256.258506 238.912383 
L 256.387612 238.841445 
L 256.50058 238.770508 
L 256.645825 238.628633 
L 256.968591 238.557695 
L 257.097697 238.486758 
L 257.129974 238.41582 
L 257.275218 238.273946 
L 257.517293 238.203008 
L 257.646399 238.132071 
L 258.01758 238.061133 
L 258.146686 237.919258 
L 258.162824 237.990196 
L 258.259654 237.919258 
L 258.372622 233.804886 
L 259.647548 233.875824 
L 259.679824 233.946761 
L 259.760516 233.875824 
L 260.244665 233.804886 
L 260.276941 233.663011 
L 260.357633 233.804886 
L 261.42276 233.875824 
L 261.471175 233.946761 
L 261.51959 233.804886 
L 261.535728 233.875824 
L 262.616994 233.804886 
L 262.649271 233.733949 
L 262.729962 233.804886 
L 263.230249 233.875824 
L 263.359356 233.946761 
L 264.392206 234.017698 
L 264.521313 234.088636 
L 266.377217 234.088636 
L 266.570876 218.198647 
L 267.151855 199.542097 
L 268.265397 177.48055 
L 268.507472 175.139614 
L 268.846376 170.103055 
L 268.910929 72.564059 
L 268.991621 134.705266 
L 269.153004 181.240234 
L 269.18528 181.453047 
L 269.233695 181.169297 
L 269.395078 180.601797 
L 269.653291 181.240234 
L 269.75012 181.311172 
L 269.959918 181.736797 
L 270.072886 181.807734 
L 270.153578 181.949609 
L 270.201993 181.878672 
L 270.282684 181.949609 
L 270.395652 182.091484 
L 270.411791 182.020546 
L 270.573173 181.949609 
L 270.621588 181.878672 
L 270.653865 181.949609 
L 270.782971 182.162421 
L 270.79911 182.233359 
L 270.879801 182.162421 
L 271.025046 182.020546 
L 271.154152 182.091484 
L 271.218705 182.233359 
L 271.26712 182.162421 
L 271.428503 181.878672 
L 271.444641 181.949609 
L 271.525333 181.878672 
L 271.670578 181.736797 
L 271.735131 181.665859 
L 271.944929 181.240234 
L 272.02562 181.169297 
L 272.283833 180.459923 
L 272.299971 180.53086 
L 272.396801 180.459923 
L 272.445216 180.459923 
L 272.59046 180.105235 
L 272.832535 179.537736 
L 272.88095 179.466798 
L 273.139162 178.828361 
L 273.332822 178.899299 
L 273.510343 179.183048 
L 273.558758 179.253986 
L 273.704003 179.395861 
L 273.800833 179.466798 
L 273.865386 179.537736 
L 273.897662 179.395861 
L 273.913801 179.466798 
L 274.059045 179.112111 
L 274.220428 178.899299 
L 274.268843 178.828361 
L 274.543194 177.906174 
L 274.575471 177.977112 
L 274.86596 177.906174 
L 274.946651 177.764299 
L 274.96279 177.835237 
L 275.043481 177.906174 
L 275.075758 177.835237 
L 275.172588 177.764299 
L 275.366247 177.409612 
L 275.495354 177.338675 
L 275.753566 176.558363 
L 275.769705 176.6293 
L 275.834258 176.558363 
L 276.076332 175.990863 
L 276.140885 176.132738 
L 276.173162 175.990863 
L 276.544343 174.784926 
L 276.560481 174.855864 
L 276.608896 174.572114 
L 276.689587 174.501177 
L 277.060768 172.373053 
L 277.286704 169.748367 
L 277.351257 70.364998 
L 277.431949 124.135586 
L 277.593332 178.615549 
L 277.754715 179.679611 
L 278.255002 182.375234 
L 278.480938 183.439295 
L 278.868257 184.787107 
L 278.884396 184.71617 
L 278.916672 184.787107 
L 279.094193 185.070857 
L 279.158747 185.141794 
L 279.336268 185.425544 
L 279.69131 185.354607 
L 279.852693 185.141794 
L 280.014076 185.070857 
L 280.240012 184.574295 
L 280.54664 184.503357 
L 280.675746 184.43242 
L 280.804853 184.361482 
L 280.820991 184.290545 
L 280.885544 184.43242 
L 280.917821 184.361482 
L 281.079204 184.290545 
L 281.20831 184.219607 
L 281.563353 184.14867 
L 281.708597 183.935858 
L 281.837704 184.006795 
L 282.031363 183.935858 
L 282.160469 183.86492 
L 282.225023 183.935858 
L 282.257299 183.793983 
L 282.273438 183.86492 
L 282.418682 183.723045 
L 282.483235 183.652108 
L 282.644618 183.439295 
L 282.693033 183.510233 
L 282.773725 183.58117 
L 282.806001 183.510233 
L 282.951246 183.439295 
L 283.128767 183.155546 
L 283.499948 183.084608 
L 283.645193 182.942733 
L 283.903405 182.871796 
L 284.097065 182.517109 
L 284.161618 182.446171 
L 284.306863 182.162421 
L 284.323001 182.233359 
L 284.371416 182.162421 
L 284.548937 181.878672 
L 284.597352 181.807734 
L 284.758735 181.453047 
L 284.774873 181.523984 
L 284.871703 181.453047 
L 285.033086 181.240234 
L 285.065363 181.169297 
L 285.27516 180.743672 
L 285.307437 180.672735 
L 285.452682 180.53086 
L 285.484958 180.459923 
L 285.662479 180.105235 
L 285.678618 180.176173 
L 285.743171 180.034298 
L 285.759309 180.034298 
L 285.823862 179.96336 
L 286.001384 179.679611 
L 286.082075 179.750548 
L 286.114352 179.679611 
L 286.146628 179.608673 
L 286.308011 179.324923 
L 286.453256 179.466798 
L 286.517809 179.395861 
L 286.550086 179.324923 
L 286.614639 179.466798 
L 286.630777 179.395861 
L 286.969681 179.324923 
L 287.001958 179.253986 
L 287.082649 179.324923 
L 287.486107 179.253986 
L 287.631352 179.112111 
L 287.776596 179.041173 
L 288.083224 178.189924 
L 288.341436 178.118987 
L 288.486681 177.835237 
L 288.502819 177.906174 
L 288.535096 177.977112 
L 288.567373 178.048049 
L 288.631926 177.906174 
L 288.728756 177.835237 
L 288.954692 177.338675 
L 289.003107 177.409612 
L 289.16449 177.693362 
L 289.212904 177.622424 
L 289.261319 177.764299 
L 289.600224 177.693362 
L 289.745468 177.267737 
L 289.793883 177.1968 
L 289.922989 177.125862 
L 289.987543 177.054925 
L 290.342585 175.919926 
L 290.358723 175.990863 
L 290.391 175.848988 
L 290.455553 175.919926 
L 290.568521 175.778051 
L 290.58466 175.848988 
L 290.681489 175.778051 
L 290.859011 175.494301 
L 290.907425 175.423363 
L 291.068808 175.210551 
L 291.133362 175.139614 
L 291.375436 174.572114 
L 291.423851 174.501177 
L 292.053244 171.308991 
L 292.101659 168.82618 
L 292.166212 70.648747 
L 292.230766 113.920593 
L 292.408287 178.118987 
L 292.553532 178.686486 
L 292.634223 178.757424 
L 293.392723 181.594922 
L 293.424999 181.665859 
L 293.812319 182.871796 
L 293.876872 182.942733 
L 294.118946 183.510233 
L 294.248053 183.58117 
L 294.377159 183.723045 
L 294.506265 183.652108 
L 294.667648 183.723045 
L 294.829031 183.935858 
L 294.877446 184.006795 
L 295.006552 184.077733 
L 295.11952 184.14867 
L 295.21635 184.219607 
L 295.232489 184.14867 
L 295.490701 184.077733 
L 295.652084 183.86492 
L 295.700499 183.793983 
L 295.87802 183.510233 
L 295.990988 183.439295 
L 296.152371 183.226483 
L 296.216925 183.155546 
L 296.394446 182.871796 
L 296.555829 182.800858 
L 296.571967 182.729921 
L 296.652659 182.800858 
L 296.862456 183.226483 
L 297.29819 183.155546 
L 297.475712 182.871796 
L 297.669371 182.800858 
L 297.879169 182.375234 
L 297.911446 182.304296 
L 298.072828 182.091484 
L 298.121243 182.020546 
L 298.282626 181.807734 
L 298.34718 181.736797 
L 298.556977 181.311172 
L 298.686084 181.240234 
L 298.976573 180.459923 
L 299.057265 180.388985 
L 299.299339 179.821485 
L 299.912594 179.750548 
L 300.090115 179.466798 
L 300.380605 179.395861 
L 300.509711 179.324923 
L 300.606541 179.253986 
L 300.703371 179.183048 
L 300.719509 179.253986 
L 300.8002 179.183048 
L 300.913168 179.112111 
L 300.945445 179.183048 
L 300.977722 179.041173 
L 301.009998 179.041173 
L 301.042275 179.041173 
L 301.171381 178.757424 
L 301.268211 178.686486 
L 301.413456 178.544611 
L 301.478009 178.615549 
L 301.510285 178.544611 
L 301.639392 178.402736 
L 301.703945 178.544611 
L 301.768498 178.473674 
L 301.816913 178.544611 
L 301.946019 178.615549 
L 302.139679 178.686486 
L 302.284924 178.899299 
L 302.397892 178.828361 
L 302.51086 178.899299 
L 302.672243 178.544611 
L 302.688381 178.615549 
L 302.849764 178.544611 
L 303.043423 178.189924 
L 303.091838 178.118987 
L 303.285498 177.764299 
L 303.333913 177.693362 
L 303.511434 177.409612 
L 303.608264 177.338675 
L 303.769647 177.125862 
L 303.963306 177.054925 
L 304.092413 176.771175 
L 304.156966 176.700238 
L 304.30221 176.416488 
L 304.318349 176.487425 
L 304.479732 176.416488 
L 304.608838 176.132738 
L 304.641115 176.203675 
L 304.721806 176.203675 
L 304.818636 175.919926 
L 304.850912 175.990863 
L 304.899327 175.990863 
L 305.06071 175.352426 
L 305.109125 175.423363 
L 305.141402 175.210551 
L 305.15754 175.281489 
L 305.189817 175.210551 
L 305.399615 174.784926 
L 305.464168 174.713989 
L 305.81921 173.649927 
L 305.835348 173.649927 
L 306.093561 172.231178 
L 306.125838 172.160241 
L 306.335636 169.748367 
L 306.351774 168.897118 
L 306.416327 71.003435 
L 306.497019 124.348398 
L 306.658402 177.764299 
L 306.739093 178.331799 
L 306.787508 178.189924 
L 306.965029 177.906174 
L 307.207104 177.977112 
L 307.836497 180.24711 
L 307.868774 180.318048 
L 308.062433 180.672735 
L 308.110848 180.743672 
L 308.304508 181.523984 
L 308.482029 181.807734 
L 308.788657 181.736797 
L 308.885486 181.665859 
L 308.901625 181.736797 
L 309.095284 181.807734 
L 309.22439 181.949609 
L 309.353497 181.878672 
L 309.466465 181.949609 
L 309.579433 182.020546 
L 309.740816 181.807734 
L 310.111997 181.878672 
L 310.257241 182.020546 
L 310.434763 181.949609 
L 310.596146 181.736797 
L 310.967326 181.665859 
L 311.112571 181.523984 
L 311.160986 181.453047 
L 311.419199 180.81461 
L 311.548305 180.743672 
L 311.725826 180.459923 
L 311.919486 180.388985 
L 312.048592 180.318048 
L 312.306805 180.24711 
L 312.484326 179.96336 
L 312.532741 179.892423 
L 312.710262 179.608673 
L 312.903922 179.537736 
L 313.065305 179.324923 
L 313.178273 179.253986 
L 313.323517 179.112111 
L 313.67856 179.041173 
L 313.743113 179.112111 
L 313.856081 178.757424 
L 314.162709 178.686486 
L 314.275677 178.615549 
L 314.404783 178.686486 
L 314.646858 178.118987 
L 314.743687 178.048049 
L 314.856655 177.835237 
L 314.888932 177.906174 
L 314.985762 177.835237 
L 315.19556 177.409612 
L 315.260113 177.338675 
L 315.437634 177.054925 
L 315.631294 176.983987 
L 315.776538 176.842112 
L 315.905645 176.771175 
L 315.937921 176.700238 
L 315.986336 176.842112 
L 316.228411 178.118987 
L 316.260687 178.189924 
L 316.42207 178.686486 
L 316.631868 179.183048 
L 316.777113 179.041173 
L 317.116017 178.970236 
L 317.2774 178.757424 
L 317.422644 178.899299 
L 317.713134 178.828361 
L 317.84224 178.757424 
L 317.874517 178.686486 
L 318.229559 177.622424 
L 318.310251 177.551487 
L 318.826676 175.778051 
L 318.891229 175.707113 
L 319.213995 174.784926 
L 319.310825 174.784926 
L 319.472208 174.288364 
L 319.633591 173.153365 
L 319.859527 170.244929 
L 319.891804 122.504025 
L 319.92408 71.925622 
L 319.988633 105.479036 
L 320.166155 176.061801 
L 320.246846 176.700238 
L 320.295261 176.487425 
L 320.359814 176.558363 
L 320.569612 176.983987 
L 320.58575 176.91305 
L 320.618027 177.054925 
L 320.666442 177.054925 
L 320.843963 177.338675 
L 320.892378 177.409612 
L 321.311974 178.757424 
L 321.360388 178.828361 
L 321.554048 179.183048 
L 321.699293 179.253986 
L 321.844537 179.395861 
L 321.941367 179.466798 
L 322.118888 179.750548 
L 322.29641 179.821485 
L 322.441654 180.034298 
L 322.473931 179.96336 
L 322.538484 180.034298 
L 322.699867 180.24711 
L 322.716005 180.176173 
L 322.780558 180.318048 
L 323.022633 180.885547 
L 323.652026 180.81461 
L 323.764994 180.672735 
L 323.781133 180.743672 
L 323.877963 180.672735 
L 324.023207 180.388985 
L 324.039345 180.459923 
L 324.152314 180.388985 
L 324.168452 180.318048 
L 324.233005 180.53086 
L 324.249143 180.459923 
L 324.265282 180.53086 
L 324.329835 180.388985 
L 324.345973 180.388985 
L 324.475079 180.318048 
L 324.701016 180.388985 
L 324.830122 180.53086 
L 324.894675 180.459923 
L 324.94309 180.53086 
L 325.685452 180.459923 
L 325.846835 180.24711 
L 325.911388 180.176173 
L 326.040494 180.105235 
L 326.185739 180.034298 
L 326.379398 179.679611 
L 326.395537 179.679611 
L 326.540781 179.324923 
L 326.589196 179.253986 
L 326.798994 178.828361 
L 326.9281 178.757424 
L 327.073345 178.544611 
L 327.089483 178.615549 
L 327.12176 178.473674 
L 327.154036 178.473674 
L 327.299281 178.331799 
L 327.412249 178.402736 
L 327.525217 178.331799 
L 327.573632 178.402736 
L 327.605909 178.260862 
L 327.622047 178.331799 
L 327.751153 178.260862 
L 327.78343 178.189924 
L 327.960951 177.906174 
L 328.186887 177.835237 
L 328.428962 177.267737 
L 328.493515 177.267737 
L 328.622621 176.842112 
L 328.63876 176.91305 
L 328.961525 176.983987 
L 328.977664 177.054925 
L 329.00994 176.91305 
L 329.058355 176.91305 
L 329.187462 176.842112 
L 329.252015 176.771175 
L 329.461813 176.34555 
L 329.558642 176.274613 
L 329.687749 176.203675 
L 329.800717 176.274613 
L 329.9621 175.848988 
L 329.978238 175.919926 
L 330.091206 176.203675 
L 330.123483 176.061801 
L 330.204174 175.990863 
L 330.397834 175.565238 
L 330.43011 175.636176 
L 330.478525 175.494301 
L 330.494664 175.494301 
L 330.688323 175.494301 
L 330.833568 175.139614 
L 330.930398 175.139614 
L 331.124057 191.38429 
L 331.495238 202.876157 
L 332.076216 213.233025 
L 332.786301 221.17802 
L 333.528663 226.782078 
L 335.158631 233.450199 
L 335.174769 233.450199 
L 335.336152 234.017698 
L 335.35229 234.017698 
L 335.529812 234.656135 
L 335.997822 236.216759 
L 336.046237 236.287697 
L 336.272173 236.784259 
L 336.30445 236.855196 
L 336.530386 237.351759 
L 336.675631 237.422696 
L 336.86929 237.777383 
L 336.917705 237.848321 
L 337.079088 238.203008 
L 337.095226 238.132071 
L 337.111365 238.132071 
L 337.256609 238.486758 
L 337.337301 238.557695 
L 337.53096 238.912383 
L 337.660067 238.98332 
L 337.853726 239.338007 
L 338.015109 239.408945 
L 338.19263 239.692695 
L 338.321737 239.763632 
L 338.466981 239.905507 
L 338.579949 239.976444 
L 338.709056 240.047382 
L 339.306173 239.976444 
L 339.386864 239.905507 
L 339.419141 239.976444 
L 340.758619 239.905507 
L 340.920002 239.692695 
L 341.065247 239.621757 
L 341.22663 239.408945 
L 341.371874 239.338007 
L 341.517119 239.196132 
L 341.662364 239.125195 
L 341.69464 239.054257 
L 341.775332 239.125195 
L 341.936715 239.054257 
L 342.065821 238.98332 
L 342.194928 239.054257 
L 342.630662 238.98332 
L 342.6468 238.912383 
L 342.679076 239.054257 
L 342.74363 238.98332 
L 343.11481 238.912383 
L 343.163225 238.841445 
L 343.227778 238.912383 
L 343.760342 238.841445 
L 343.792619 238.770508 
L 343.87331 238.841445 
L 343.97014 238.770508 
L 344.050831 238.69957 
L 344.083108 238.770508 
L 344.228353 238.69957 
L 344.357459 238.628633 
L 344.680225 238.557695 
L 344.696363 238.486758 
L 344.793193 238.557695 
L 344.922299 238.486758 
L 345.051406 238.41582 
L 345.083682 238.486758 
L 345.164374 238.41582 
L 345.600108 238.344883 
L 345.616246 238.273946 
L 345.713076 238.344883 
L 345.793767 238.273946 
L 345.922874 238.203008 
L 346.068118 238.132071 
L 346.181086 237.990196 
L 346.197225 238.061133 
L 346.261778 237.990196 
L 346.390884 237.919258 
L 346.568406 237.848321 
L 346.584544 237.777383 
L 346.681374 237.848321 
L 346.971863 237.777383 
L 347.117108 237.635508 
L 347.940161 237.706446 
L 347.972437 237.777383 
L 348.053129 237.706446 
L 349.666958 237.777383 
L 349.683097 237.848321 
L 349.779926 237.777383 
L 351.16782 237.848321 
L 351.264649 237.919258 
L 351.280788 237.848321 
L 353.362628 237.777383 
L 353.394904 237.706446 
L 353.443319 237.848321 
L 353.475596 237.777383 
L 354.702106 237.706446 
L 354.815074 237.635508 
L 354.831213 237.706446 
L 354.879628 237.564571 
L 354.928042 237.635508 
L 355.024872 237.564571 
L 355.041011 237.635508 
L 355.121702 237.635508 
L 355.13784 237.493634 
L 355.3315 206.352092 
L 355.79951 174.784926 
L 355.89634 163.080247 
L 355.944755 68.591561 
L 356.009308 115.835904 
L 356.154553 173.366177 
L 356.170691 173.224302 
L 356.364351 167.903994 
L 356.800085 158.327438 
L 356.864638 70.719685 
L 356.945329 114.84278 
L 357.122851 167.903994 
L 357.284234 169.180868 
L 357.494031 169.606492 
L 357.542446 169.535555 
L 357.590861 169.606492 
L 357.703829 169.890242 
L 357.719968 169.819305 
L 357.865212 169.748367 
L 358.187978 168.82618 
L 358.236393 168.755243 
L 358.768957 165.917745 
L 359.043308 162.583685 
L 359.172414 157.618063 
L 359.236967 67.882187 
L 359.30152 103.492788 
L 359.49518 168.116806 
L 359.672701 170.173992 
L 359.898637 170.812429 
L 359.914776 170.741492 
L 360.092297 170.812429 
L 360.140712 170.883367 
L 360.172988 170.741492 
L 360.189127 170.741492 
L 360.25368 170.670554 
L 360.528031 169.96118 
L 360.640999 169.890242 
L 360.834658 169.322743 
L 360.866935 169.39368 
L 360.947627 169.322743 
L 361.092871 168.968055 
L 361.125148 169.038993 
L 361.173563 168.968055 
L 361.383361 168.542431 
L 361.447914 168.471493 
L 361.722265 167.762119 
L 361.786818 167.691181 
L 362.028892 167.123682 
L 362.125722 167.052744 
L 362.43235 166.201495 
L 362.496903 166.130557 
L 363.303818 163.080247 
L 363.352233 163.151184 
L 363.384509 162.938372 
L 363.56203 159.391499 
L 363.626584 66.96 
L 363.707275 112.076219 
L 363.884796 167.194619 
L 364.046179 169.038993 
L 364.143009 169.10993 
L 364.304392 169.322743 
L 364.336669 169.39368 
L 364.352807 169.464618 
L 364.433498 169.39368 
L 364.449637 169.322743 
L 364.530328 169.464618 
L 364.836956 169.535555 
L 364.853094 169.606492 
L 364.885371 169.464618 
L 364.917647 169.464618 
L 365.304966 168.258681 
L 365.595456 168.187743 
L 366.257126 165.77587 
L 366.321679 165.846807 
L 366.370094 165.988682 
L 366.418509 165.77587 
L 366.773551 164.711808 
L 366.805828 164.782746 
L 366.838104 164.569933 
L 366.967211 164.286184 
L 366.999487 164.357121 
L 367.015626 164.428058 
L 367.06404 164.286184 
L 367.080179 164.286184 
L 367.225423 164.144309 
L 367.273838 164.073371 
L 367.45136 163.434934 
L 367.628881 162.15806 
L 367.854817 161.023061 
L 367.887093 160.952123 
L 367.967785 159.675249 
L 368.000062 154.63869 
L 368.064615 67.953124 
L 368.129168 101.861226 
L 368.338966 166.485245 
L 368.516487 168.116806 
L 368.694008 168.471493 
L 368.806976 168.400556 
L 368.952221 168.542431 
L 369.000636 168.400556 
L 369.081327 168.471493 
L 369.194295 168.613368 
L 369.210434 168.542431 
L 369.24271 168.542431 
L 369.323402 168.400556 
L 369.355678 168.471493 
L 369.387955 168.684306 
L 369.484785 168.542431 
L 369.581614 168.471493 
L 369.839827 167.833056 
L 369.952795 167.762119 
L 370.501497 165.846807 
L 370.533774 165.77587 
L 370.695157 165.137433 
L 370.808125 165.20837 
L 371.114753 164.357121 
L 371.163167 164.286184 
L 371.308412 164.073371 
L 371.32455 164.144309 
L 371.389104 163.931496 
L 371.405242 164.002434 
L 371.534348 164.073371 
L 371.679593 164.428058 
L 371.744146 164.286184 
L 371.808699 164.357121 
L 371.857114 164.286184 
L 371.970082 164.073371 
L 372.002359 164.144309 
L 372.08305 164.073371 
L 372.551061 162.44181 
L 372.567199 162.512747 
L 372.615614 162.299935 
L 372.825412 161.023061 
L 372.922242 158.043688 
L 372.986795 67.5275 
L 373.067486 106.117473 
L 373.261146 164.853683 
L 373.454805 166.414307 
L 373.69688 166.981807 
L 373.858263 166.910869 
L 373.955092 166.768994 
L 373.971231 166.839932 
L 374.051922 166.981807 
L 374.084199 166.910869 
L 374.374688 166.130557 
L 374.45538 166.05962 
L 374.616763 165.77587 
L 374.713592 165.846807 
L 374.729731 165.77587 
L 374.842699 165.704933 
L 375.068635 165.20837 
L 375.100911 165.279308 
L 375.197741 165.421183 
L 375.230018 165.350245 
L 375.262294 165.279308 
L 375.617337 164.215246 
L 375.665752 164.144309 
L 375.827135 163.576809 
L 375.859411 163.647746 
L 375.891688 163.718684 
L 375.940103 163.505872 
L 376.149901 163.009309 
L 376.182177 163.080247 
L 376.262869 163.009309 
L 376.295145 162.938372 
L 376.698603 161.661498 
L 376.779294 161.732435 
L 376.795432 161.661498 
L 377.118198 159.746187 
L 377.182752 158.2565 
L 377.215028 132.506205 
L 377.263443 68.094999 
L 377.327996 97.108417 
L 377.537794 163.151184 
L 377.683039 164.995558 
L 377.699177 164.924621 
L 377.95739 165.563058 
L 378.054219 165.633995 
L 378.215602 165.846807 
L 378.393124 165.77587 
L 378.538368 165.633995 
L 378.586783 165.563058 
L 378.877273 164.782746 
L 378.941826 164.711808 
L 378.990241 164.640871 
L 379.022517 164.782746 
L 379.038655 164.782746 
L 379.167762 164.711808 
L 379.474389 163.860559 
L 379.522804 163.789621 
L 379.668049 163.647746 
L 379.74874 163.576809 
L 379.990815 163.009309 
L 380.023091 162.938372 
L 380.216751 162.016185 
L 380.232889 162.087123 
L 380.297442 161.87431 
L 380.426549 161.803373 
L 380.491102 161.87431 
L 380.571794 162.016185 
L 380.620208 161.945248 
L 380.684762 161.87431 
L 380.846145 161.59056 
L 380.862283 161.661498 
L 380.910698 161.377748 
L 380.959113 161.306811 
L 381.394847 158.894937 
L 381.540091 156.199314 
L 381.572368 128.462771 
L 381.620783 67.811249 
L 381.685336 96.399042 
L 381.911272 164.073371 
L 382.104932 165.704933 
L 382.185623 165.77587 
L 382.395421 166.201495 
L 382.459974 166.272432 
L 382.605219 166.414307 
L 382.702048 166.34337 
L 382.944123 165.77587 
L 383.121644 165.846807 
L 383.234612 166.130557 
L 383.283027 166.05962 
L 383.379857 166.130557 
L 383.395995 166.201495 
L 383.44441 166.05962 
L 383.460548 166.05962 
L 383.670346 165.633995 
L 383.702623 165.563058 
L 383.912421 165.137433 
L 383.944697 165.066496 
L 384.089942 164.782746 
L 384.10608 164.853683 
L 384.154495 164.782746 
L 384.348155 164.428058 
L 384.380431 164.357121 
L 384.477261 164.144309 
L 384.525676 164.215246 
L 384.735474 164.144309 
L 384.896857 163.789621 
L 384.912995 163.860559 
L 384.993686 163.789621 
L 385.042101 163.718684 
L 385.106654 163.789621 
L 385.171208 163.718684 
L 385.300314 163.434934 
L 385.332591 163.505872 
L 385.364867 163.647746 
L 385.42942 163.505872 
L 386.123367 160.029936 
L 386.317027 156.057439 
L 386.38158 69.300936 
L 386.47841 111.366845 
L 386.672069 162.867435 
L 386.833452 164.215246 
L 386.84959 164.144309 
L 386.898005 164.428058 
L 387.107803 164.995558 
L 387.123941 164.924621 
L 387.172356 164.995558 
L 387.349877 165.279308 
L 387.527399 164.995558 
L 387.688782 164.924621 
L 387.882441 164.569933 
L 387.979271 164.569933 
L 388.140654 165.137433 
L 388.318175 164.853683 
L 388.415005 164.924621 
L 388.431143 164.853683 
L 388.527973 164.782746 
L 388.657079 164.711808 
L 388.689356 164.782746 
L 388.737771 164.640871 
L 388.753909 164.640871 
L 389.012122 164.002434 
L 389.076675 164.002434 
L 389.238058 163.505872 
L 390.077249 159.320562 
L 390.319324 155.135252 
L 390.3516 120.588713 
L 390.400015 68.946249 
L 390.464568 97.534042 
L 390.674366 161.306811 
L 390.835749 163.080247 
L 390.868026 163.151184 
L 391.142377 163.860559 
L 391.158515 163.860559 
L 391.174653 163.718684 
L 391.271483 163.789621 
L 391.352175 163.647746 
L 391.384451 163.789621 
L 391.497419 163.718684 
L 391.513558 163.647746 
L 391.594249 163.789621 
L 391.739494 163.718684 
L 391.96543 163.222122 
L 392.078398 163.151184 
L 392.417302 162.15806 
L 392.449579 162.15806 
L 392.610962 161.59056 
L 392.659377 161.519623 
L 392.869174 160.597436 
L 392.885313 160.597436 
L 393.175802 158.965875 
L 393.627674 156.483064 
L 393.724504 154.284003 
L 393.756781 127.540584 
L 393.805196 69.442811 
L 393.869749 92.56842 
L 394.111823 160.739311 
L 394.305483 162.938372 
L 394.499142 163.789621 
L 394.547557 163.860559 
L 394.757355 164.286184 
L 394.967153 164.357121 
L 395.015568 164.498996 
L 395.080121 164.428058 
L 395.386749 163.576809 
L 395.419025 163.505872 
L 395.56427 163.363997 
L 395.612685 163.363997 
L 395.757929 163.009309 
L 395.806344 162.938372 
L 395.967727 162.512747 
L 396.000004 162.583685 
L 396.096833 162.512747 
L 396.290493 161.732435 
L 396.32277 161.661498 
L 396.726227 160.384624 
L 396.758504 160.313686 
L 397.048993 159.249624 
L 397.097408 159.320562 
L 397.129684 159.391499 
L 397.161961 159.249624 
L 397.517003 155.560877 
L 397.565418 150.524318 
L 397.629972 69.655623 
L 397.710663 100.513415 
L 397.936599 160.242749 
L 398.130259 162.44181 
L 398.162535 162.512747 
L 398.501439 163.505872 
L 398.582131 163.576809 
L 398.727376 163.718684 
L 398.904897 163.647746 
L 399.050142 163.505872 
L 399.211524 163.434934 
L 399.453599 162.867435 
L 399.582705 162.796497 
L 399.744088 162.512747 
L 399.857056 162.583685 
L 399.889333 162.512747 
L 399.953886 162.654622 
L 400.018439 162.583685 
L 400.438035 161.235873 
L 400.470311 161.164936 
L 401.196535 157.547126 
L 401.406333 153.858378 
L 401.487024 69.655623 
L 401.583854 110.586533 
L 401.777513 158.965875 
L 401.955035 161.235873 
L 402.229386 162.72556 
L 402.358492 162.938372 
L 402.37463 162.867435 
L 402.439183 162.796497 
L 402.519875 162.72556 
L 402.552152 162.796497 
L 402.842641 162.72556 
L 403.068577 162.228997 
L 403.100854 162.15806 
L 403.294513 161.803373 
L 403.342928 161.732435 
L 403.455896 161.59056 
L 403.472034 161.661498 
L 403.923907 161.59056 
L 404.053013 161.519623 
L 404.165981 161.59056 
L 404.214396 161.661498 
L 404.278949 161.59056 
L 404.359641 161.661498 
L 404.424194 161.732435 
L 404.472609 161.661498 
L 404.521024 161.59056 
L 404.730821 160.881186 
L 404.779236 160.952123 
L 404.843789 161.023061 
L 404.892204 160.952123 
L 405.102002 160.881186 
L 405.344077 160.313686 
L 405.392492 160.242749 
L 405.50546 159.817124 
L 405.537736 159.888062 
L 405.602289 159.817124 
L 406.005747 157.547126 
L 406.215545 154.851502 
L 406.296236 150.808068 
L 406.376928 70.57781 
L 406.441481 98.243416 
L 406.667417 159.604312 
L 406.861076 162.15806 
L 407.280672 163.505872 
L 407.442055 163.434934 
L 407.571161 163.151184 
L 407.813236 163.222122 
L 407.893927 163.293059 
L 407.926204 163.222122 
L 408.119863 163.293059 
L 408.200555 163.434934 
L 408.24897 163.363997 
L 408.3458 163.293059 
L 408.523321 163.009309 
L 408.604012 163.009309 
L 408.797672 162.228997 
L 409.104299 161.377748 
L 409.152714 161.306811 
L 409.749831 159.178687 
L 409.798246 159.10775 
L 409.927352 158.611187 
L 409.975767 158.824 
L 410.395363 158.753062 
L 410.944065 155.844627 
L 411.105448 149.956818 
L 411.186139 70.57781 
L 411.250693 97.037479 
L 411.476629 159.462437 
L 411.65415 161.945248 
L 411.896224 163.151184 
L 412.057607 163.363997 
L 412.138299 163.293059 
L 412.267405 163.151184 
L 412.299682 163.222122 
L 412.348097 163.080247 
L 412.364235 163.080247 
L 412.525618 163.009309 
L 412.590171 162.938372 
L 412.622448 163.080247 
L 412.703139 163.363997 
L 412.767692 163.293059 
L 412.97749 162.867435 
L 413.058182 162.796497 
L 413.203426 162.654622 
L 413.300256 162.583685 
L 413.477777 162.016185 
L 413.510054 162.15806 
L 413.752128 162.087123 
L 414.252416 160.384624 
L 414.316969 160.313686 
L 414.462213 160.171811 
L 414.510628 160.100874 
L 414.801118 159.320562 
L 414.833394 159.249624 
L 415.382096 153.574628 
L 415.414373 146.551821 
L 415.478926 70.364998 
L 415.543479 93.703419 
L 415.785554 159.604312 
L 415.979213 161.87431 
L 416.189011 162.796497 
L 416.414947 163.293059 
L 416.544053 163.222122 
L 416.76999 163.222122 
L 416.931373 162.72556 
L 416.963649 162.796497 
L 417.012064 162.583685 
L 417.060479 162.512747 
L 417.286415 162.016185 
L 417.399383 161.945248 
L 417.818979 160.597436 
L 417.851255 160.526499 
L 418.109468 159.888062 
L 418.238574 159.817124 
L 418.56134 158.894937 
L 418.577479 158.965875 
L 418.625894 158.824 
L 418.642032 158.824 
L 419.126181 156.199314 
L 419.335979 152.936191 
L 419.368255 139.670888 
L 419.432808 70.506873 
L 419.497362 94.412794 
L 419.787851 179.112111 
L 420.046064 195.995224 
L 420.433383 208.409278 
L 420.83684 216.141461 
L 421.224159 221.036145 
L 421.627616 224.937705 
L 421.788999 226.143641 
L 422.224733 229.052077 
L 422.757297 231.889575 
L 422.950957 232.669887 
L 423.67718 235.36551 
L 423.709457 235.436447 
L 424.145191 236.855196 
L 424.177467 236.926134 
L 424.451818 237.635508 
L 424.500233 237.706446 
L 424.758446 238.344883 
L 424.855276 238.41582 
L 425.129627 239.125195 
L 425.145765 239.054257 
L 425.178041 239.196132 
L 425.210318 239.196132 
L 425.436254 239.692695 
L 425.549222 239.763632 
L 425.726743 240.047382 
L 425.839712 240.118319 
L 426.017233 240.402069 
L 426.097924 240.473007 
L 426.259307 240.685819 
L 426.32386 240.756756 
L 426.501382 241.040506 
L 426.51752 240.969569 
L 426.582073 241.111444 
L 426.598211 241.111444 
L 426.727318 241.182381 
L 426.824148 241.253318 
L 426.98553 241.466131 
L 427.033945 241.537068 
L 427.163052 241.608006 
L 427.243743 241.678943 
L 427.388988 241.891756 
L 427.421264 241.820818 
L 427.501956 241.891756 
L 428.131349 241.962693 
L 428.276594 242.104568 
L 429.148062 242.175505 
L 429.1642 242.246443 
L 429.244892 242.175505 
L 429.341722 242.104568 
L 429.35786 242.175505 
L 429.729041 242.246443 
L 429.793594 242.31738 
L 429.842009 242.246443 
L 430.697338 242.175505 
L 430.826445 242.104568 
L 431.310594 242.03363 
L 431.375147 241.962693 
L 431.423562 242.03363 
L 431.4397 242.104568 
L 431.520391 242.03363 
L 431.649498 241.962693 
L 432.036817 241.891756 
L 432.165923 241.820818 
L 432.633934 241.749881 
L 432.76304 241.678943 
L 433.392434 241.608006 
L 433.52154 241.537068 
L 433.795891 241.466131 
L 433.860444 241.324256 
L 433.908859 241.395193 
L 433.989551 241.466131 
L 434.021827 241.395193 
L 434.74805 241.324256 
L 434.877157 241.253318 
L 435.232199 241.182381 
L 435.377444 241.040506 
L 435.458135 241.111444 
L 435.490412 241.040506 
L 435.780901 241.040506 
L 435.780901 241.040506 
" style="fill:none;stroke:#1f77b4;stroke-linecap:square;stroke-width:1.5;"/>
   </g>
   <g id="line2d_12">
    <path clip-path="url(#pa08adf91ba)" d="M 80.754545 234.641948 
L 83.17529 236.675867 
L 83.336673 236.777563 
L 83.982204 237.213402 
L 84.159726 237.315098 
L 84.676151 237.634714 
L 84.869811 237.73641 
L 85.289406 237.968858 
L 85.499204 238.070554 
L 85.886523 238.273946 
L 86.128598 238.375641 
L 86.48364 238.549977 
L 86.741853 238.651673 
L 87.048481 238.782425 
L 87.322832 238.884121 
L 87.613321 239.000345 
L 87.90381 239.102041 
L 88.178161 239.203737 
L 88.517065 239.305433 
L 88.775278 239.392601 
L 88.904385 239.436185 
L 90.098618 222.859748 
L 91.147608 211.004908 
L 92.390256 199.774772 
L 93.971809 189.169339 
L 95.10149 183.677759 
L 95.827713 180.917441 
L 96.586213 178.592962 
L 97.457681 176.559044 
L 98.555085 174.801157 
L 100.055947 173.595334 
L 100.378712 173.493638 
L 100.604649 173.435526 
L 101.831159 173.537222 
L 102.10551 173.638918 
L 102.347584 173.740614 
L 102.783318 173.987589 
L 102.96084 174.089285 
L 105.736626 176.73338 
L 106.123945 177.212803 
L 106.575818 177.764867 
L 107.011552 178.331458 
L 107.382733 178.810882 
L 107.88302 179.493698 
L 108.205786 179.929537 
L 108.738349 180.670465 
L 109.044977 181.091777 
L 109.593679 181.86176 
L 109.884168 182.268544 
L 110.449009 183.067583 
L 110.755636 183.488895 
L 111.304338 184.258878 
L 111.610966 184.68019 
L 112.14353 185.421118 
L 112.482434 185.871485 
L 112.982721 186.554301 
L 113.321625 187.004669 
L 113.773497 187.600316 
L 114.144678 188.07974 
L 114.564274 188.617275 
L 114.98387 189.140283 
L 115.387327 189.648763 
L 115.903752 190.258938 
L 116.274933 190.709306 
L 116.888188 191.40665 
L 117.227093 191.798905 
L 118.066284 192.699641 
L 118.372912 193.033784 
L 123.763102 197.740853 
L 123.924485 197.842549 
L 124.63457 198.336501 
L 124.795953 198.438197 
L 125.376932 198.815924 
L 125.554453 198.91762 
L 126.05474 199.222708 
L 126.2484 199.324404 
L 126.71641 199.600436 
L 126.91007 199.702132 
L 127.313527 199.920052 
L 127.523325 200.021748 
L 127.910644 200.22514 
L 128.13658 200.326835 
L 128.507761 200.515699 
L 128.749835 200.617395 
L 129.08874 200.777203 
L 129.330814 200.878899 
L 129.65358 201.024179 
L 129.911793 201.125875 
L 130.21842 201.256627 
L 130.492771 201.358323 
L 130.783261 201.474547 
L 131.07375 201.576243 
L 131.348101 201.677939 
L 131.654728 201.779634 
L 131.92908 201.88133 
L 132.251845 201.983026 
L 132.510058 202.070194 
L 132.865101 202.17189 
L 133.123313 202.259058 
L 133.494494 202.360754 
L 133.736569 202.433394 
L 134.140026 202.53509 
L 134.3821 202.60773 
L 134.817834 202.709426 
L 135.04377 202.767538 
L 135.495643 202.869234 
L 135.721579 202.927346 
L 136.221866 203.029042 
L 136.447802 203.087154 
L 137.028781 203.188849 
L 137.238579 203.232433 
L 137.819557 203.334129 
L 138.029355 203.377713 
L 138.691025 203.479409 
L 138.900823 203.522993 
L 139.675461 203.624689 
L 139.869121 203.653745 
L 140.692174 203.755441 
L 140.885833 203.784497 
L 141.837993 203.886193 
L 142.031652 203.915249 
L 143.209748 204.016945 
L 143.403407 204.046001 
L 144.888131 204.147697 
L 145.065652 204.162225 
L 146.824726 204.263921 
L 147.002247 204.278449 
L 149.648928 204.380145 
L 149.826449 204.394673 
L 153.457565 204.481841 
L 154.764767 222.801636 
L 155.813756 234.641948 
L 156.652948 242.516119 
L 157.524416 249.37333 
L 158.52499 255.780174 
L 159.7515 261.794761 
L 160.461585 264.496968 
L 162.398181 269.407428 
L 163.108266 270.467972 
L 164.625266 271.688323 
L 164.96417 271.790019 
L 165.173968 271.833603 
L 166.352063 271.731907 
L 166.642552 271.615683 
L 166.884627 271.513987 
L 167.320361 271.267011 
L 167.497882 271.165315 
L 169.515169 269.363844 
L 169.531307 234.641948 
L 169.628137 234.729116 
L 169.88635 234.976092 
L 171.87136 236.617755 
L 172.032743 236.719451 
L 172.710551 237.184346 
L 172.888073 237.286042 
L 173.404498 237.605658 
L 173.598158 237.707354 
L 174.033892 237.95433 
L 174.243689 238.056026 
L 174.61487 238.24489 
L 174.840806 238.346585 
L 175.195849 238.520921 
L 175.454062 238.622617 
L 175.776828 238.767897 
L 176.051179 238.869593 
L 176.341668 238.985817 
L 176.648295 239.087513 
L 176.922646 239.189209 
L 177.245412 239.290905 
L 177.503625 239.378073 
L 177.681146 239.436185 
L 178.810827 218.312487 
L 179.859816 202.24453 
L 180.779699 190.593082 
L 181.764135 180.336321 
L 183.200443 167.827722 
L 183.313411 200.690035 
L 183.490933 200.690035 
L 184.443092 191.595513 
L 185.8794 180.859329 
L 186.92839 174.931909 
L 188.219453 168.612233 
L 188.284006 167.653386 
L 188.396974 200.690035 
L 188.574496 200.631923 
L 189.6719 193.527736 
L 190.4304 189.445371 
L 192.044229 182.689855 
L 192.738176 180.496129 
L 193.222325 179.159554 
L 193.577367 178.302402 
L 194.158346 177.052995 
L 195.368718 175.091717 
L 195.91742 174.452485 
L 196.191771 174.176453 
L 197.176207 173.435526 
L 197.386005 173.33383 
L 197.708771 173.18855 
L 198.015398 173.086854 
L 198.257473 173.014214 
L 200.371589 173.11591 
L 200.64594 173.217606 
L 200.952568 173.319302 
L 201.291472 173.47911 
L 201.517408 173.580806 
L 201.920866 173.798726 
L 202.114525 173.900421 
L 202.663227 174.249093 
L 202.82461 174.350789 
L 203.615387 174.917381 
L 203.760631 175.019077 
L 205.358323 176.312068 
L 205.487429 176.413764 
L 211.474737 181.658368 
L 211.603843 181.760064 
L 213.201534 183.053055 
L 213.346779 183.154751 
L 214.411906 183.968319 
L 214.557151 184.070015 
L 215.364066 184.651134 
L 215.525449 184.75283 
L 216.219395 185.232254 
L 216.380778 185.33395 
L 216.961757 185.711677 
L 217.139278 185.813373 
L 217.68798 186.162045 
L 217.865501 186.263741 
L 218.34965 186.554301 
L 218.54331 186.655997 
L 218.995182 186.917501 
L 219.188842 187.019197 
L 219.608437 187.251644 
L 219.818235 187.35334 
L 220.205554 187.556732 
L 220.415352 187.658428 
L 220.786533 187.847292 
L 221.012469 187.948988 
L 221.367511 188.123324 
L 221.609586 188.22502 
L 221.94849 188.384828 
L 222.206703 188.486524 
L 222.529469 188.631803 
L 222.787681 188.733499 
L 223.094309 188.864251 
L 223.36866 188.965947 
L 223.659149 189.082171 
L 223.9335 189.183867 
L 224.207851 189.285563 
L 224.498341 189.387259 
L 224.772692 189.488955 
L 225.095458 189.590651 
L 225.369809 189.692347 
L 225.708713 189.794043 
L 225.966926 189.881211 
L 226.321968 189.982906 
L 226.580181 190.070074 
L 226.9675 190.17177 
L 227.209574 190.24441 
L 227.596893 190.346106 
L 227.838968 190.418746 
L 228.274702 190.520442 
L 228.500638 190.578554 
L 228.95251 190.68025 
L 229.178446 190.738362 
L 229.662595 190.840058 
L 229.888531 190.89817 
L 230.421095 190.999866 
L 230.630893 191.04345 
L 231.179595 191.145146 
L 231.389393 191.18873 
L 232.002648 191.290426 
L 232.212446 191.33401 
L 232.906393 191.435706 
L 233.11619 191.479289 
L 233.906967 191.580985 
L 234.100626 191.610041 
L 234.923679 191.711737 
L 235.117339 191.740793 
L 236.085637 191.842489 
L 236.279296 191.871545 
L 237.425115 191.973241 
L 237.618775 192.002297 
L 239.022806 192.103993 
L 239.200328 192.118521 
L 240.814157 192.220217 
L 240.991678 192.234745 
L 242.234327 192.307385 
L 243.460838 215.421417 
L 244.509827 231.474846 
L 245.720199 246.33698 
L 246.769188 256.506573 
L 248.060252 266.080519 
L 249.012411 271.383235 
L 249.657943 274.259777 
L 250.91673 278.400254 
L 251.287911 279.286462 
L 251.755921 280.230781 
L 252.466006 281.291324 
L 253.66024 282.221116 
L 254.112112 282.322811 
L 254.289634 282.337339 
L 254.951304 282.235643 
L 255.257931 282.104892 
L 255.467729 282.003196 
L 257.710952 279.838525 
L 258.243516 279.097598 
L 258.291931 279.039486 
L 258.308069 234.641948 
L 258.404899 234.729116 
L 258.663112 234.976092 
L 260.648122 236.617755 
L 260.809505 236.719451 
L 261.487313 237.184346 
L 261.664835 237.286042 
L 262.18126 237.605658 
L 262.37492 237.707354 
L 262.810654 237.95433 
L 263.020451 238.056026 
L 263.391632 238.24489 
L 263.617568 238.346585 
L 263.972611 238.520921 
L 264.230823 238.622617 
L 264.553589 238.767897 
L 264.82794 238.869593 
L 265.11843 238.985817 
L 265.425057 239.087513 
L 265.699408 239.189209 
L 266.022174 239.290905 
L 266.280387 239.378073 
L 266.457908 239.436185 
L 267.539174 208.82571 
L 268.749546 181.033665 
L 269.411216 167.784138 
L 269.524184 200.690035 
L 269.685567 200.690035 
L 269.798535 198.423669 
L 271.089599 173.987589 
L 271.428503 167.958474 
L 271.541471 200.690035 
L 271.718992 200.690035 
L 272.751843 182.428352 
L 273.704003 167.76961 
L 273.816971 200.690035 
L 273.978354 200.690035 
L 274.10746 198.641589 
L 275.140311 182.835135 
L 276.28613 167.726026 
L 276.399098 200.690035 
L 276.560481 200.690035 
L 276.673449 199.13554 
L 277.932236 182.573632 
L 279.061917 170.631624 
L 279.271715 167.929418 
L 279.384683 200.690035 
L 279.562204 200.690035 
L 280.853268 185.798845 
L 282.192746 173.62439 
L 282.82214 167.943946 
L 282.935108 200.690035 
L 283.112629 200.690035 
L 284.355278 188.457468 
L 285.420405 179.871425 
L 286.646916 171.837447 
L 287.082649 168.902793 
L 287.163341 167.740554 
L 287.276309 200.690035 
L 287.45383 200.617395 
L 288.728756 190.142714 
L 290.068234 181.28064 
L 291.827308 172.389511 
L 292.56967 168.554121 
L 292.618085 167.871306 
L 292.731053 200.690035 
L 292.908574 200.690035 
L 294.441712 190.447802 
L 295.345457 185.450174 
L 296.297616 180.917441 
L 297.378882 176.559044 
L 298.669945 172.316871 
L 299.396169 170.050504 
L 299.702796 168.219977 
L 299.735073 167.667914 
L 299.848041 200.690035 
L 300.025562 200.646451 
L 301.171381 194.123384 
L 302.284924 188.718971 
L 303.543711 183.561535 
L 305.028434 178.622018 
L 306.965029 173.711558 
L 307.884912 171.837447 
L 308.369061 170.849544 
L 308.724103 169.992392 
L 308.982316 169.004489 
L 309.111422 167.755082 
L 309.22439 200.690035 
L 309.401912 200.646451 
L 310.499316 195.329207 
L 311.903347 189.518011 
L 313.646283 183.648703 
L 315.889506 177.910147 
L 319.084889 172.374983 
L 319.407655 171.939143 
L 319.988633 171.111047 
L 320.230708 170.747848 
L 320.827825 169.469385 
L 321.037623 168.336201 
L 321.086037 167.638858 
L 321.199006 200.690035 
L 321.376527 200.646451 
L 323.038771 193.673016 
L 325.007643 186.990141 
L 327.525217 180.510657 
L 328.4451 178.636546 
L 328.832419 177.910147 
L 330.333281 175.42586 
L 330.607632 175.033605 
L 331.011089 174.467013 
L 332.060078 203.232433 
L 333.318865 231.15523 
L 334.593791 253.194191 
L 335.868716 269.959492 
L 336.740184 278.86515 
L 337.740758 286.899128 
L 339.015683 294.235763 
L 339.90329 297.737009 
L 341.178215 300.860527 
L 341.69464 301.572398 
L 342.517693 302.168046 
L 343.598959 302.06635 
L 345.164374 300.511855 
L 347.068693 297.025137 
L 347.084831 234.641948 
L 347.181661 234.729116 
L 347.439873 234.976092 
L 349.424884 236.617755 
L 349.586267 236.719451 
L 350.264075 237.184346 
L 350.441596 237.286042 
L 350.958022 237.605658 
L 351.151681 237.707354 
L 351.587415 237.95433 
L 351.797213 238.056026 
L 352.168394 238.24489 
L 352.39433 238.346585 
L 352.749373 238.520921 
L 353.007585 238.622617 
L 353.330351 238.767897 
L 353.604702 238.869593 
L 353.895192 238.985817 
L 354.201819 239.087513 
L 354.47617 239.189209 
L 354.798936 239.290905 
L 355.057149 239.378073 
L 355.23467 239.436185 
L 356.348212 176.268484 
L 356.509595 167.885834 
L 356.622563 200.690035 
L 356.783946 200.690035 
L 356.913053 194.268664 
L 357.429478 168.205449 
L 357.542446 200.690035 
L 357.719968 200.690035 
L 358.381638 168.263561 
L 358.494606 200.690035 
L 358.672127 200.690035 
L 359.366074 167.958474 
L 359.479042 200.690035 
L 359.640425 200.690035 
L 359.769531 194.951479 
L 360.366648 168.176393 
L 360.479616 200.690035 
L 360.657137 200.690035 
L 361.399499 168.466953 
L 361.512467 200.690035 
L 361.689988 200.690035 
L 362.464626 168.423369 
L 362.577594 200.690035 
L 362.755116 200.690035 
L 363.578169 167.653386 
L 363.691137 200.690035 
L 363.85252 200.690035 
L 363.981626 195.794103 
L 364.707849 168.205449 
L 364.820817 200.690035 
L 364.998339 200.690035 
L 365.885945 168.045641 
L 365.998913 200.690035 
L 366.176434 200.690035 
L 367.096317 168.336201 
L 367.209285 200.690035 
L 367.386806 200.690035 
L 368.355104 168.002058 
L 368.468072 200.690035 
L 368.645593 200.690035 
L 369.662306 167.740554 
L 369.775274 200.690035 
L 369.936657 200.690035 
L 370.065763 196.694838 
L 371.001784 167.929418 
L 371.114753 200.690035 
L 371.276135 200.690035 
L 371.405242 196.840118 
L 372.389678 167.856778 
L 372.502646 200.690035 
L 372.664029 200.690035 
L 372.776997 197.479349 
L 373.825986 167.84225 
L 373.938954 200.690035 
L 374.100337 200.690035 
L 374.213305 197.610101 
L 375.310709 167.885834 
L 375.423677 200.690035 
L 375.58506 200.690035 
L 375.714167 197.275958 
L 376.843847 167.973002 
L 376.956815 200.690035 
L 377.134337 200.690035 
L 378.441539 167.784138 
L 378.554507 200.690035 
L 378.71589 200.690035 
L 378.844996 197.522933 
L 380.087645 167.62433 
L 380.200613 200.690035 
L 380.361996 200.690035 
L 380.474964 198.031413 
L 381.782166 167.798666 
L 381.895134 200.690035 
L 382.056517 200.690035 
L 382.185623 197.740853 
L 383.395995 170.980295 
L 383.525102 167.943946 
L 383.63807 200.690035 
L 383.815591 200.690035 
L 385.203484 170.791432 
L 385.332591 167.784138 
L 385.445559 200.690035 
L 385.606942 200.690035 
L 385.736048 197.915189 
L 387.059388 170.617096 
L 387.172356 168.132809 
L 387.285324 200.690035 
L 387.462846 200.690035 
L 388.705494 175.193413 
L 389.076675 167.91489 
L 389.189643 200.690035 
L 389.367164 200.690035 
L 390.706643 174.103813 
L 391.029409 167.871306 
L 391.142377 200.690035 
L 391.30376 200.690035 
L 391.432866 198.133109 
L 392.788483 172.360455 
L 393.014419 168.045641 
L 393.127387 200.690035 
L 393.304908 200.690035 
L 394.61211 175.890756 
L 395.047844 168.118281 
L 395.160812 200.690035 
L 395.338334 200.690035 
L 396.516429 178.592962 
L 397.129684 167.871306 
L 397.242652 200.690035 
L 397.404035 200.690035 
L 397.517003 198.612533 
L 398.759652 176.181316 
L 399.243801 167.76961 
L 399.356769 200.690035 
L 399.518152 200.690035 
L 399.647258 198.336501 
L 401.099705 172.956102 
L 401.390194 167.827722 
L 401.503162 200.690035 
L 401.664545 200.690035 
L 401.793652 198.380085 
L 403.13313 175.149829 
L 403.568864 167.798666 
L 403.681832 200.690035 
L 403.843215 200.690035 
L 403.972322 198.409141 
L 405.21497 177.009411 
L 405.779811 167.667914 
L 405.892779 200.690035 
L 406.054162 200.690035 
L 406.16713 198.728757 
L 407.716406 172.82535 
L 408.006895 167.943946 
L 408.119863 200.690035 
L 408.297385 200.690035 
L 409.491618 180.176513 
L 410.266257 167.885834 
L 410.379225 200.690035 
L 410.556746 200.690035 
L 412.057607 175.64378 
L 412.541756 167.98753 
L 412.654724 200.690035 
L 412.832246 200.690035 
L 414.268554 176.806019 
L 414.833394 168.016585 
L 414.946362 200.690035 
L 415.123884 200.690035 
L 416.495639 177.953731 
L 417.14117 168.002058 
L 417.254138 200.690035 
L 417.43166 200.690035 
L 418.771138 178.563906 
L 419.465085 167.929418 
L 419.578053 200.690035 
L 419.755574 200.690035 
L 419.787851 200.108916 
L 419.803989 200.835315 
L 420.885255 244.506453 
L 421.853553 276.235584 
L 422.854127 302.661998 
L 423.709457 320.807457 
L 424.677754 337.020694 
L 425.436254 346.943311 
L 426.243169 355.137098 
L 427.243743 362.357509 
L 427.792445 365.117827 
L 428.373424 367.224385 
L 428.760743 368.212289 
L 429.406275 369.156608 
L 429.777456 369.345472 
L 430.261604 369.243776 
L 430.955551 368.473793 
L 431.714051 366.890242 
L 432.66621 363.999172 
L 433.812029 359.466439 
L 435.393582 351.839244 
L 435.845455 349.456654 
L 435.845455 349.456654 
" style="fill:none;stroke:#ff0000;stroke-linecap:square;stroke-width:1.5;"/>
   </g>
   <g id="patch_3">
    <path d="M 63 384.48 
L 63 51.84 
" style="fill:none;stroke:#000000;stroke-linecap:square;stroke-linejoin:miter;stroke-width:0.8;"/>
   </g>
   <g id="patch_4">
    <path d="M 453.6 384.48 
L 453.6 51.84 
" style="fill:none;stroke:#000000;stroke-linecap:square;stroke-linejoin:miter;stroke-width:0.8;"/>
   </g>
   <g id="patch_5">
    <path d="M 63 384.48 
L 453.6 384.48 
" style="fill:none;stroke:#000000;stroke-linecap:square;stroke-linejoin:miter;stroke-width:0.8;"/>
   </g>
   <g id="patch_6">
    <path d="M 63 51.84 
L 453.6 51.84 
" style="fill:none;stroke:#000000;stroke-linecap:square;stroke-linejoin:miter;stroke-width:0.8;"/>
   </g>
   <g id="legend_1">
    <g id="patch_7">
     <path d="M 70 89.19625 
L 133.139062 89.19625 
Q 135.139062 89.19625 135.139062 87.19625 
L 135.139062 58.84 
Q 135.139062 56.84 133.139062 56.84 
L 70 56.84 
Q 68 56.84 68 58.84 
L 68 87.19625 
Q 68 89.19625 70 89.19625 
z
" style="fill:#ffffff;opacity:0.8;stroke:#cccccc;stroke-linejoin:miter;"/>
    </g>
    <g id="line2d_13">
     <path d="M 72 64.938437 
L 92 64.938437 
" style="fill:none;stroke:#1f77b4;stroke-linecap:square;stroke-width:1.5;"/>
    </g>
    <g id="line2d_14"/>
    <g id="text_13">
     <!-- target -->
     <g transform="translate(100 68.438437)scale(0.1 -0.1)">
      <defs>
       <path d="M 41.109375 46.296875 
Q 39.59375 47.171875 37.8125 47.578125 
Q 36.03125 48 33.890625 48 
Q 26.265625 48 22.1875 43.046875 
Q 18.109375 38.09375 18.109375 28.8125 
L 18.109375 0 
L 9.078125 0 
L 9.078125 54.6875 
L 18.109375 54.6875 
L 18.109375 46.1875 
Q 20.953125 51.171875 25.484375 53.578125 
Q 30.03125 56 36.53125 56 
Q 37.453125 56 38.578125 55.875 
Q 39.703125 55.765625 41.0625 55.515625 
z
" id="DejaVuSans-114"/>
      </defs>
      <use xlink:href="#DejaVuSans-116"/>
      <use x="39.208984" xlink:href="#DejaVuSans-97"/>
      <use x="100.488281" xlink:href="#DejaVuSans-114"/>
      <use x="139.851562" xlink:href="#DejaVuSans-103"/>
      <use x="203.328125" xlink:href="#DejaVuSans-101"/>
      <use x="264.851562" xlink:href="#DejaVuSans-116"/>
     </g>
    </g>
    <g id="line2d_15">
     <path d="M 72 79.616562 
L 92 79.616562 
" style="fill:none;stroke:#ff0000;stroke-linecap:square;stroke-width:1.5;"/>
    </g>
    <g id="line2d_16"/>
    <g id="text_14">
     <!-- model -->
     <g transform="translate(100 83.116562)scale(0.1 -0.1)">
      <defs>
       <path d="M 45.40625 46.390625 
L 45.40625 75.984375 
L 54.390625 75.984375 
L 54.390625 0 
L 45.40625 0 
L 45.40625 8.203125 
Q 42.578125 3.328125 38.25 0.953125 
Q 33.9375 -1.421875 27.875 -1.421875 
Q 17.96875 -1.421875 11.734375 6.484375 
Q 5.515625 14.40625 5.515625 27.296875 
Q 5.515625 40.1875 11.734375 48.09375 
Q 17.96875 56 27.875 56 
Q 33.9375 56 38.25 53.625 
Q 42.578125 51.265625 45.40625 46.390625 
z
M 14.796875 27.296875 
Q 14.796875 17.390625 18.875 11.75 
Q 22.953125 6.109375 30.078125 6.109375 
Q 37.203125 6.109375 41.296875 11.75 
Q 45.40625 17.390625 45.40625 27.296875 
Q 45.40625 37.203125 41.296875 42.84375 
Q 37.203125 48.484375 30.078125 48.484375 
Q 22.953125 48.484375 18.875 42.84375 
Q 14.796875 37.203125 14.796875 27.296875 
z
" id="DejaVuSans-100"/>
      </defs>
      <use xlink:href="#DejaVuSans-109"/>
      <use x="97.412109" xlink:href="#DejaVuSans-111"/>
      <use x="158.59375" xlink:href="#DejaVuSans-100"/>
      <use x="222.070312" xlink:href="#DejaVuSans-101"/>
      <use x="283.59375" xlink:href="#DejaVuSans-108"/>
     </g>
    </g>
   </g>
  </g>
 </g>
 <defs>
  <clipPath id="pa08adf91ba">
   <rect height="332.64" width="390.6" x="63" y="51.84"/>
  </clipPath>
 </defs>
</svg>
