<?xml version="1.0" encoding="utf-8" standalone="no"?>
<!DOCTYPE svg PUBLIC "-//W3C//DTD SVG 1.1//EN"
  "http://www.w3.org/Graphics/SVG/1.1/DTD/svg11.dtd">
<!-- Created with matplotlib (http://matplotlib.org/) -->
<svg height="432pt" version="1.1" viewBox="0 0 504 432" width="504pt" xmlns="http://www.w3.org/2000/svg" xmlns:xlink="http://www.w3.org/1999/xlink">
 <defs>
  <style type="text/css">
*{stroke-linecap:butt;stroke-linejoin:round;}
  </style>
 </defs>
 <g id="figure_1">
  <g id="patch_1">
   <path d="M 0 432 
L 504 432 
L 504 0 
L 0 0 
z
" style="fill:#ffffff;"/>
  </g>
  <g id="axes_1">
   <g id="patch_2">
    <path d="M 63 384.48 
L 453.6 384.48 
L 453.6 51.84 
L 63 51.84 
z
" style="fill:#ffffff;"/>
   </g>
   <g id="matplotlib.axis_1">
    <g id="xtick_1">
     <g id="line2d_1">
      <defs>
       <path d="M 0 0 
L 0 3.5 
" id="mf0201046fe" style="stroke:#000000;stroke-width:0.8;"/>
      </defs>
      <g>
       <use style="stroke:#000000;stroke-width:0.8;" x="80.754545" xlink:href="#mf0201046fe" y="384.48"/>
      </g>
     </g>
     <g id="text_1">
      <!-- 0 -->
      <defs>
       <path d="M 31.78125 66.40625 
Q 24.171875 66.40625 20.328125 58.90625 
Q 16.5 51.421875 16.5 36.375 
Q 16.5 21.390625 20.328125 13.890625 
Q 24.171875 6.390625 31.78125 6.390625 
Q 39.453125 6.390625 43.28125 13.890625 
Q 47.125 21.390625 47.125 36.375 
Q 47.125 51.421875 43.28125 58.90625 
Q 39.453125 66.40625 31.78125 66.40625 
z
M 31.78125 74.21875 
Q 44.046875 74.21875 50.515625 64.515625 
Q 56.984375 54.828125 56.984375 36.375 
Q 56.984375 17.96875 50.515625 8.265625 
Q 44.046875 -1.421875 31.78125 -1.421875 
Q 19.53125 -1.421875 13.0625 8.265625 
Q 6.59375 17.96875 6.59375 36.375 
Q 6.59375 54.828125 13.0625 64.515625 
Q 19.53125 74.21875 31.78125 74.21875 
z
" id="DejaVuSans-30"/>
      </defs>
      <g transform="translate(77.573295 399.078438)scale(0.1 -0.1)">
       <use xlink:href="#DejaVuSans-30"/>
      </g>
     </g>
    </g>
    <g id="xtick_2">
     <g id="line2d_2">
      <g>
       <use style="stroke:#000000;stroke-width:0.8;" x="151.772727" xlink:href="#mf0201046fe" y="384.48"/>
      </g>
     </g>
     <g id="text_2">
      <!-- 200 -->
      <defs>
       <path d="M 19.1875 8.296875 
L 53.609375 8.296875 
L 53.609375 0 
L 7.328125 0 
L 7.328125 8.296875 
Q 12.9375 14.109375 22.625 23.890625 
Q 32.328125 33.6875 34.8125 36.53125 
Q 39.546875 41.84375 41.421875 45.53125 
Q 43.3125 49.21875 43.3125 52.78125 
Q 43.3125 58.59375 39.234375 62.25 
Q 35.15625 65.921875 28.609375 65.921875 
Q 23.96875 65.921875 18.8125 64.3125 
Q 13.671875 62.703125 7.8125 59.421875 
L 7.8125 69.390625 
Q 13.765625 71.78125 18.9375 73 
Q 24.125 74.21875 28.421875 74.21875 
Q 39.75 74.21875 46.484375 68.546875 
Q 53.21875 62.890625 53.21875 53.421875 
Q 53.21875 48.921875 51.53125 44.890625 
Q 49.859375 40.875 45.40625 35.40625 
Q 44.1875 33.984375 37.640625 27.21875 
Q 31.109375 20.453125 19.1875 8.296875 
z
" id="DejaVuSans-32"/>
      </defs>
      <g transform="translate(142.228977 399.078438)scale(0.1 -0.1)">
       <use xlink:href="#DejaVuSans-32"/>
       <use x="63.623047" xlink:href="#DejaVuSans-30"/>
       <use x="127.246094" xlink:href="#DejaVuSans-30"/>
      </g>
     </g>
    </g>
    <g id="xtick_3">
     <g id="line2d_3">
      <g>
       <use style="stroke:#000000;stroke-width:0.8;" x="222.790909" xlink:href="#mf0201046fe" y="384.48"/>
      </g>
     </g>
     <g id="text_3">
      <!-- 400 -->
      <defs>
       <path d="M 37.796875 64.3125 
L 12.890625 25.390625 
L 37.796875 25.390625 
z
M 35.203125 72.90625 
L 47.609375 72.90625 
L 47.609375 25.390625 
L 58.015625 25.390625 
L 58.015625 17.1875 
L 47.609375 17.1875 
L 47.609375 0 
L 37.796875 0 
L 37.796875 17.1875 
L 4.890625 17.1875 
L 4.890625 26.703125 
z
" id="DejaVuSans-34"/>
      </defs>
      <g transform="translate(213.247159 399.078438)scale(0.1 -0.1)">
       <use xlink:href="#DejaVuSans-34"/>
       <use x="63.623047" xlink:href="#DejaVuSans-30"/>
       <use x="127.246094" xlink:href="#DejaVuSans-30"/>
      </g>
     </g>
    </g>
    <g id="xtick_4">
     <g id="line2d_4">
      <g>
       <use style="stroke:#000000;stroke-width:0.8;" x="293.809091" xlink:href="#mf0201046fe" y="384.48"/>
      </g>
     </g>
     <g id="text_4">
      <!-- 600 -->
      <defs>
       <path d="M 33.015625 40.375 
Q 26.375 40.375 22.484375 35.828125 
Q 18.609375 31.296875 18.609375 23.390625 
Q 18.609375 15.53125 22.484375 10.953125 
Q 26.375 6.390625 33.015625 6.390625 
Q 39.65625 6.390625 43.53125 10.953125 
Q 47.40625 15.53125 47.40625 23.390625 
Q 47.40625 31.296875 43.53125 35.828125 
Q 39.65625 40.375 33.015625 40.375 
z
M 52.59375 71.296875 
L 52.59375 62.3125 
Q 48.875 64.0625 45.09375 64.984375 
Q 41.3125 65.921875 37.59375 65.921875 
Q 27.828125 65.921875 22.671875 59.328125 
Q 17.53125 52.734375 16.796875 39.40625 
Q 19.671875 43.65625 24.015625 45.921875 
Q 28.375 48.1875 33.59375 48.1875 
Q 44.578125 48.1875 50.953125 41.515625 
Q 57.328125 34.859375 57.328125 23.390625 
Q 57.328125 12.15625 50.6875 5.359375 
Q 44.046875 -1.421875 33.015625 -1.421875 
Q 20.359375 -1.421875 13.671875 8.265625 
Q 6.984375 17.96875 6.984375 36.375 
Q 6.984375 53.65625 15.1875 63.9375 
Q 23.390625 74.21875 37.203125 74.21875 
Q 40.921875 74.21875 44.703125 73.484375 
Q 48.484375 72.75 52.59375 71.296875 
z
" id="DejaVuSans-36"/>
      </defs>
      <g transform="translate(284.265341 399.078438)scale(0.1 -0.1)">
       <use xlink:href="#DejaVuSans-36"/>
       <use x="63.623047" xlink:href="#DejaVuSans-30"/>
       <use x="127.246094" xlink:href="#DejaVuSans-30"/>
      </g>
     </g>
    </g>
    <g id="xtick_5">
     <g id="line2d_5">
      <g>
       <use style="stroke:#000000;stroke-width:0.8;" x="364.827273" xlink:href="#mf0201046fe" y="384.48"/>
      </g>
     </g>
     <g id="text_5">
      <!-- 800 -->
      <defs>
       <path d="M 31.78125 34.625 
Q 24.75 34.625 20.71875 30.859375 
Q 16.703125 27.09375 16.703125 20.515625 
Q 16.703125 13.921875 20.71875 10.15625 
Q 24.75 6.390625 31.78125 6.390625 
Q 38.8125 6.390625 42.859375 10.171875 
Q 46.921875 13.96875 46.921875 20.515625 
Q 46.921875 27.09375 42.890625 30.859375 
Q 38.875 34.625 31.78125 34.625 
z
M 21.921875 38.8125 
Q 15.578125 40.375 12.03125 44.71875 
Q 8.5 49.078125 8.5 55.328125 
Q 8.5 64.0625 14.71875 69.140625 
Q 20.953125 74.21875 31.78125 74.21875 
Q 42.671875 74.21875 48.875 69.140625 
Q 55.078125 64.0625 55.078125 55.328125 
Q 55.078125 49.078125 51.53125 44.71875 
Q 48 40.375 41.703125 38.8125 
Q 48.828125 37.15625 52.796875 32.3125 
Q 56.78125 27.484375 56.78125 20.515625 
Q 56.78125 9.90625 50.3125 4.234375 
Q 43.84375 -1.421875 31.78125 -1.421875 
Q 19.734375 -1.421875 13.25 4.234375 
Q 6.78125 9.90625 6.78125 20.515625 
Q 6.78125 27.484375 10.78125 32.3125 
Q 14.796875 37.15625 21.921875 38.8125 
z
M 18.3125 54.390625 
Q 18.3125 48.734375 21.84375 45.5625 
Q 25.390625 42.390625 31.78125 42.390625 
Q 38.140625 42.390625 41.71875 45.5625 
Q 45.3125 48.734375 45.3125 54.390625 
Q 45.3125 60.0625 41.71875 63.234375 
Q 38.140625 66.40625 31.78125 66.40625 
Q 25.390625 66.40625 21.84375 63.234375 
Q 18.3125 60.0625 18.3125 54.390625 
z
" id="DejaVuSans-38"/>
      </defs>
      <g transform="translate(355.283523 399.078438)scale(0.1 -0.1)">
       <use xlink:href="#DejaVuSans-38"/>
       <use x="63.623047" xlink:href="#DejaVuSans-30"/>
       <use x="127.246094" xlink:href="#DejaVuSans-30"/>
      </g>
     </g>
    </g>
    <g id="text_6">
     <!-- time [ms] -->
     <defs>
      <path d="M 18.3125 70.21875 
L 18.3125 54.6875 
L 36.8125 54.6875 
L 36.8125 47.703125 
L 18.3125 47.703125 
L 18.3125 18.015625 
Q 18.3125 11.328125 20.140625 9.421875 
Q 21.96875 7.515625 27.59375 7.515625 
L 36.8125 7.515625 
L 36.8125 0 
L 27.59375 0 
Q 17.1875 0 13.234375 3.875 
Q 9.28125 7.765625 9.28125 18.015625 
L 9.28125 47.703125 
L 2.6875 47.703125 
L 2.6875 54.6875 
L 9.28125 54.6875 
L 9.28125 70.21875 
z
" id="DejaVuSans-74"/>
      <path d="M 9.421875 54.6875 
L 18.40625 54.6875 
L 18.40625 0 
L 9.421875 0 
z
M 9.421875 75.984375 
L 18.40625 75.984375 
L 18.40625 64.59375 
L 9.421875 64.59375 
z
" id="DejaVuSans-69"/>
      <path d="M 52 44.1875 
Q 55.375 50.25 60.0625 53.125 
Q 64.75 56 71.09375 56 
Q 79.640625 56 84.28125 50.015625 
Q 88.921875 44.046875 88.921875 33.015625 
L 88.921875 0 
L 79.890625 0 
L 79.890625 32.71875 
Q 79.890625 40.578125 77.09375 44.375 
Q 74.3125 48.1875 68.609375 48.1875 
Q 61.625 48.1875 57.5625 43.546875 
Q 53.515625 38.921875 53.515625 30.90625 
L 53.515625 0 
L 44.484375 0 
L 44.484375 32.71875 
Q 44.484375 40.625 41.703125 44.40625 
Q 38.921875 48.1875 33.109375 48.1875 
Q 26.21875 48.1875 22.15625 43.53125 
Q 18.109375 38.875 18.109375 30.90625 
L 18.109375 0 
L 9.078125 0 
L 9.078125 54.6875 
L 18.109375 54.6875 
L 18.109375 46.1875 
Q 21.1875 51.21875 25.484375 53.609375 
Q 29.78125 56 35.6875 56 
Q 41.65625 56 45.828125 52.96875 
Q 50 49.953125 52 44.1875 
z
" id="DejaVuSans-6d"/>
      <path d="M 56.203125 29.59375 
L 56.203125 25.203125 
L 14.890625 25.203125 
Q 15.484375 15.921875 20.484375 11.0625 
Q 25.484375 6.203125 34.421875 6.203125 
Q 39.59375 6.203125 44.453125 7.46875 
Q 49.3125 8.734375 54.109375 11.28125 
L 54.109375 2.78125 
Q 49.265625 0.734375 44.1875 -0.34375 
Q 39.109375 -1.421875 33.890625 -1.421875 
Q 20.796875 -1.421875 13.15625 6.1875 
Q 5.515625 13.8125 5.515625 26.8125 
Q 5.515625 40.234375 12.765625 48.109375 
Q 20.015625 56 32.328125 56 
Q 43.359375 56 49.78125 48.890625 
Q 56.203125 41.796875 56.203125 29.59375 
z
M 47.21875 32.234375 
Q 47.125 39.59375 43.09375 43.984375 
Q 39.0625 48.390625 32.421875 48.390625 
Q 24.90625 48.390625 20.390625 44.140625 
Q 15.875 39.890625 15.1875 32.171875 
z
" id="DejaVuSans-65"/>
      <path id="DejaVuSans-20"/>
      <path d="M 8.59375 75.984375 
L 29.296875 75.984375 
L 29.296875 69 
L 17.578125 69 
L 17.578125 -6.203125 
L 29.296875 -6.203125 
L 29.296875 -13.1875 
L 8.59375 -13.1875 
z
" id="DejaVuSans-5b"/>
      <path d="M 44.28125 53.078125 
L 44.28125 44.578125 
Q 40.484375 46.53125 36.375 47.5 
Q 32.28125 48.484375 27.875 48.484375 
Q 21.1875 48.484375 17.84375 46.4375 
Q 14.5 44.390625 14.5 40.28125 
Q 14.5 37.15625 16.890625 35.375 
Q 19.28125 33.59375 26.515625 31.984375 
L 29.59375 31.296875 
Q 39.15625 29.25 43.1875 25.515625 
Q 47.21875 21.78125 47.21875 15.09375 
Q 47.21875 7.46875 41.1875 3.015625 
Q 35.15625 -1.421875 24.609375 -1.421875 
Q 20.21875 -1.421875 15.453125 -0.5625 
Q 10.6875 0.296875 5.421875 2 
L 5.421875 11.28125 
Q 10.40625 8.6875 15.234375 7.390625 
Q 20.0625 6.109375 24.8125 6.109375 
Q 31.15625 6.109375 34.5625 8.28125 
Q 37.984375 10.453125 37.984375 14.40625 
Q 37.984375 18.0625 35.515625 20.015625 
Q 33.0625 21.96875 24.703125 23.78125 
L 21.578125 24.515625 
Q 13.234375 26.265625 9.515625 29.90625 
Q 5.8125 33.546875 5.8125 39.890625 
Q 5.8125 47.609375 11.28125 51.796875 
Q 16.75 56 26.8125 56 
Q 31.78125 56 36.171875 55.265625 
Q 40.578125 54.546875 44.28125 53.078125 
z
" id="DejaVuSans-73"/>
      <path d="M 30.421875 75.984375 
L 30.421875 -13.1875 
L 9.71875 -13.1875 
L 9.71875 -6.203125 
L 21.390625 -6.203125 
L 21.390625 69 
L 9.71875 69 
L 9.71875 75.984375 
z
" id="DejaVuSans-5d"/>
     </defs>
     <g transform="translate(234.038281 412.756563)scale(0.1 -0.1)">
      <use xlink:href="#DejaVuSans-74"/>
      <use x="39.208984" xlink:href="#DejaVuSans-69"/>
      <use x="66.992188" xlink:href="#DejaVuSans-6d"/>
      <use x="164.404297" xlink:href="#DejaVuSans-65"/>
      <use x="225.927734" xlink:href="#DejaVuSans-20"/>
      <use x="257.714844" xlink:href="#DejaVuSans-5b"/>
      <use x="296.728516" xlink:href="#DejaVuSans-6d"/>
      <use x="394.140625" xlink:href="#DejaVuSans-73"/>
      <use x="446.240234" xlink:href="#DejaVuSans-5d"/>
     </g>
    </g>
   </g>
   <g id="matplotlib.axis_2">
    <g id="ytick_1">
     <g id="line2d_6">
      <defs>
       <path d="M 0 0 
L -3.5 0 
" id="m725b772a7c" style="stroke:#000000;stroke-width:0.8;"/>
      </defs>
      <g>
       <use style="stroke:#000000;stroke-width:0.8;" x="63" xlink:href="#m725b772a7c" y="379.147777"/>
      </g>
     </g>
     <g id="text_7">
      <!-- −80 -->
      <defs>
       <path d="M 10.59375 35.5 
L 73.1875 35.5 
L 73.1875 27.203125 
L 10.59375 27.203125 
z
" id="DejaVuSans-2212"/>
      </defs>
      <g transform="translate(34.895313 382.946996)scale(0.1 -0.1)">
       <use xlink:href="#DejaVuSans-2212"/>
       <use x="83.789062" xlink:href="#DejaVuSans-38"/>
       <use x="147.412109" xlink:href="#DejaVuSans-30"/>
      </g>
     </g>
    </g>
    <g id="ytick_2">
     <g id="line2d_7">
      <g>
       <use style="stroke:#000000;stroke-width:0.8;" x="63" xlink:href="#m725b772a7c" y="328.727642"/>
      </g>
     </g>
     <g id="text_8">
      <!-- −60 -->
      <g transform="translate(34.895313 332.526861)scale(0.1 -0.1)">
       <use xlink:href="#DejaVuSans-2212"/>
       <use x="83.789062" xlink:href="#DejaVuSans-36"/>
       <use x="147.412109" xlink:href="#DejaVuSans-30"/>
      </g>
     </g>
    </g>
    <g id="ytick_3">
     <g id="line2d_8">
      <g>
       <use style="stroke:#000000;stroke-width:0.8;" x="63" xlink:href="#m725b772a7c" y="278.307507"/>
      </g>
     </g>
     <g id="text_9">
      <!-- −40 -->
      <g transform="translate(34.895313 282.106726)scale(0.1 -0.1)">
       <use xlink:href="#DejaVuSans-2212"/>
       <use x="83.789062" xlink:href="#DejaVuSans-34"/>
       <use x="147.412109" xlink:href="#DejaVuSans-30"/>
      </g>
     </g>
    </g>
    <g id="ytick_4">
     <g id="line2d_9">
      <g>
       <use style="stroke:#000000;stroke-width:0.8;" x="63" xlink:href="#m725b772a7c" y="227.887372"/>
      </g>
     </g>
     <g id="text_10">
      <!-- −20 -->
      <g transform="translate(34.895313 231.686591)scale(0.1 -0.1)">
       <use xlink:href="#DejaVuSans-2212"/>
       <use x="83.789062" xlink:href="#DejaVuSans-32"/>
       <use x="147.412109" xlink:href="#DejaVuSans-30"/>
      </g>
     </g>
    </g>
    <g id="ytick_5">
     <g id="line2d_10">
      <g>
       <use style="stroke:#000000;stroke-width:0.8;" x="63" xlink:href="#m725b772a7c" y="177.467238"/>
      </g>
     </g>
     <g id="text_11">
      <!-- 0 -->
      <g transform="translate(49.6375 181.266456)scale(0.1 -0.1)">
       <use xlink:href="#DejaVuSans-30"/>
      </g>
     </g>
    </g>
    <g id="ytick_6">
     <g id="line2d_11">
      <g>
       <use style="stroke:#000000;stroke-width:0.8;" x="63" xlink:href="#m725b772a7c" y="127.047103"/>
      </g>
     </g>
     <g id="text_12">
      <!-- 20 -->
      <g transform="translate(43.275 130.846322)scale(0.1 -0.1)">
       <use xlink:href="#DejaVuSans-32"/>
       <use x="63.623047" xlink:href="#DejaVuSans-30"/>
      </g>
     </g>
    </g>
    <g id="ytick_7">
     <g id="line2d_12">
      <g>
       <use style="stroke:#000000;stroke-width:0.8;" x="63" xlink:href="#m725b772a7c" y="76.626968"/>
      </g>
     </g>
     <g id="text_13">
      <!-- 40 -->
      <g transform="translate(43.275 80.426187)scale(0.1 -0.1)">
       <use xlink:href="#DejaVuSans-34"/>
       <use x="63.623047" xlink:href="#DejaVuSans-30"/>
      </g>
     </g>
    </g>
    <g id="text_14">
     <!-- voltage [mV] -->
     <defs>
      <path d="M 2.984375 54.6875 
L 12.5 54.6875 
L 29.59375 8.796875 
L 46.6875 54.6875 
L 56.203125 54.6875 
L 35.6875 0 
L 23.484375 0 
z
" id="DejaVuSans-76"/>
      <path d="M 30.609375 48.390625 
Q 23.390625 48.390625 19.1875 42.75 
Q 14.984375 37.109375 14.984375 27.296875 
Q 14.984375 17.484375 19.15625 11.84375 
Q 23.34375 6.203125 30.609375 6.203125 
Q 37.796875 6.203125 41.984375 11.859375 
Q 46.1875 17.53125 46.1875 27.296875 
Q 46.1875 37.015625 41.984375 42.703125 
Q 37.796875 48.390625 30.609375 48.390625 
z
M 30.609375 56 
Q 42.328125 56 49.015625 48.375 
Q 55.71875 40.765625 55.71875 27.296875 
Q 55.71875 13.875 49.015625 6.21875 
Q 42.328125 -1.421875 30.609375 -1.421875 
Q 18.84375 -1.421875 12.171875 6.21875 
Q 5.515625 13.875 5.515625 27.296875 
Q 5.515625 40.765625 12.171875 48.375 
Q 18.84375 56 30.609375 56 
z
" id="DejaVuSans-6f"/>
      <path d="M 9.421875 75.984375 
L 18.40625 75.984375 
L 18.40625 0 
L 9.421875 0 
z
" id="DejaVuSans-6c"/>
      <path d="M 34.28125 27.484375 
Q 23.390625 27.484375 19.1875 25 
Q 14.984375 22.515625 14.984375 16.5 
Q 14.984375 11.71875 18.140625 8.90625 
Q 21.296875 6.109375 26.703125 6.109375 
Q 34.1875 6.109375 38.703125 11.40625 
Q 43.21875 16.703125 43.21875 25.484375 
L 43.21875 27.484375 
z
M 52.203125 31.203125 
L 52.203125 0 
L 43.21875 0 
L 43.21875 8.296875 
Q 40.140625 3.328125 35.546875 0.953125 
Q 30.953125 -1.421875 24.3125 -1.421875 
Q 15.921875 -1.421875 10.953125 3.296875 
Q 6 8.015625 6 15.921875 
Q 6 25.140625 12.171875 29.828125 
Q 18.359375 34.515625 30.609375 34.515625 
L 43.21875 34.515625 
L 43.21875 35.40625 
Q 43.21875 41.609375 39.140625 45 
Q 35.0625 48.390625 27.6875 48.390625 
Q 23 48.390625 18.546875 47.265625 
Q 14.109375 46.140625 10.015625 43.890625 
L 10.015625 52.203125 
Q 14.9375 54.109375 19.578125 55.046875 
Q 24.21875 56 28.609375 56 
Q 40.484375 56 46.34375 49.84375 
Q 52.203125 43.703125 52.203125 31.203125 
z
" id="DejaVuSans-61"/>
      <path d="M 45.40625 27.984375 
Q 45.40625 37.75 41.375 43.109375 
Q 37.359375 48.484375 30.078125 48.484375 
Q 22.859375 48.484375 18.828125 43.109375 
Q 14.796875 37.75 14.796875 27.984375 
Q 14.796875 18.265625 18.828125 12.890625 
Q 22.859375 7.515625 30.078125 7.515625 
Q 37.359375 7.515625 41.375 12.890625 
Q 45.40625 18.265625 45.40625 27.984375 
z
M 54.390625 6.78125 
Q 54.390625 -7.171875 48.1875 -13.984375 
Q 42 -20.796875 29.203125 -20.796875 
Q 24.46875 -20.796875 20.265625 -20.09375 
Q 16.0625 -19.390625 12.109375 -17.921875 
L 12.109375 -9.1875 
Q 16.0625 -11.328125 19.921875 -12.34375 
Q 23.78125 -13.375 27.78125 -13.375 
Q 36.625 -13.375 41.015625 -8.765625 
Q 45.40625 -4.15625 45.40625 5.171875 
L 45.40625 9.625 
Q 42.625 4.78125 38.28125 2.390625 
Q 33.9375 0 27.875 0 
Q 17.828125 0 11.671875 7.65625 
Q 5.515625 15.328125 5.515625 27.984375 
Q 5.515625 40.671875 11.671875 48.328125 
Q 17.828125 56 27.875 56 
Q 33.9375 56 38.28125 53.609375 
Q 42.625 51.21875 45.40625 46.390625 
L 45.40625 54.6875 
L 54.390625 54.6875 
z
" id="DejaVuSans-67"/>
      <path d="M 28.609375 0 
L 0.78125 72.90625 
L 11.078125 72.90625 
L 34.1875 11.53125 
L 57.328125 72.90625 
L 67.578125 72.90625 
L 39.796875 0 
z
" id="DejaVuSans-56"/>
     </defs>
     <g transform="translate(28.815625 250.624062)rotate(-90)scale(0.1 -0.1)">
      <use xlink:href="#DejaVuSans-76"/>
      <use x="59.179688" xlink:href="#DejaVuSans-6f"/>
      <use x="120.361328" xlink:href="#DejaVuSans-6c"/>
      <use x="148.144531" xlink:href="#DejaVuSans-74"/>
      <use x="187.353516" xlink:href="#DejaVuSans-61"/>
      <use x="248.632812" xlink:href="#DejaVuSans-67"/>
      <use x="312.109375" xlink:href="#DejaVuSans-65"/>
      <use x="373.632812" xlink:href="#DejaVuSans-20"/>
      <use x="405.419922" xlink:href="#DejaVuSans-5b"/>
      <use x="444.433594" xlink:href="#DejaVuSans-6d"/>
      <use x="541.845703" xlink:href="#DejaVuSans-56"/>
      <use x="610.253906" xlink:href="#DejaVuSans-5d"/>
     </g>
    </g>
   </g>
   <g id="line2d_13">
    <path clip-path="url(#p6ae6b76c4f)" d="M 80.754545 341.332676 
L 81.979609 341.201079 
L 151.772727 341.266373 
L 152.314241 298.505561 
L 152.420768 251.795592 
L 152.562805 77.444278 
L 152.678209 101.66359 
L 153.565936 366.771651 
L 153.610323 366.675096 
L 153.8145 365.350811 
L 154.293873 360.785268 
L 154.959668 352.025022 
L 157.42755 314.673282 
L 157.613973 303.986482 
L 157.738255 282.890445 
L 157.835905 222.810317 
L 157.969064 100.840986 
L 158.031205 113.472742 
L 158.883423 366.364004 
L 158.945564 366.187785 
L 159.203005 364.286946 
L 159.717886 358.838547 
L 160.534595 347.383596 
L 161.8218 329.971003 
L 162.514227 320.014791 
L 162.771668 312.791854 
L 162.940336 301.275139 
L 163.064618 274.415829 
L 163.162268 193.357471 
L 163.268795 101.724851 
L 163.322059 110.861483 
L 163.863573 298.238334 
L 164.147645 366.19434 
L 164.183155 366.3335 
L 164.245295 366.159298 
L 164.493859 364.331064 
L 165.008741 358.901572 
L 165.834327 347.328386 
L 167.112655 330.042599 
L 167.813959 319.980757 
L 168.0714 312.748493 
L 168.240068 301.193963 
L 168.36435 274.179359 
L 168.462 192.641379 
L 168.568527 101.798716 
L 168.621791 111.07476 
L 169.172182 302.03371 
L 169.4385 366.111903 
L 169.482886 366.331483 
L 169.545027 366.1535 
L 169.802468 364.244845 
L 170.31735 358.779303 
L 171.151814 347.050823 
L 172.430141 329.809406 
L 173.113691 319.96311 
L 173.371132 312.713451 
L 173.5398 301.101946 
L 173.664082 273.854653 
L 173.761732 191.53564 
L 173.868259 101.814851 
L 173.921523 111.301399 
L 174.480791 305.943792 
L 174.729355 366.006777 
L 174.782618 366.331483 
L 174.844759 366.149466 
L 175.1022 364.237787 
L 175.617082 358.768967 
L 176.451545 347.03847 
L 177.729873 329.79907 
L 178.413423 319.946976 
L 178.670864 312.678913 
L 178.839532 301.008669 
L 178.963814 273.521376 
L 179.061464 190.397532 
L 179.167991 101.831489 
L 179.221255 111.530558 
L 179.7894 309.952949 
L 180.029086 366.018626 
L 180.08235 366.331735 
L 180.144491 366.14518 
L 180.401932 364.230728 
L 180.916814 358.758883 
L 181.751277 347.026622 
L 183.029605 329.788986 
L 183.713155 319.930589 
L 183.970595 312.644123 
L 184.139264 300.914383 
L 184.263545 273.180284 
L 184.361195 189.239406 
L 184.467723 101.85443 
L 184.520986 111.763247 
L 185.098009 314.050341 
L 185.328818 366.030222 
L 185.382082 366.331735 
L 185.444223 366.141147 
L 185.701664 364.223417 
L 186.216545 358.748799 
L 187.051009 347.014521 
L 188.329336 329.778902 
L 189.012886 319.914455 
L 189.270327 312.609081 
L 189.438995 300.818585 
L 189.563277 272.834149 
L 189.660927 188.076668 
L 189.767455 101.882918 
L 189.820718 111.998205 
L 190.406618 318.217061 
L 190.619673 365.901651 
L 190.681814 366.331483 
L 190.743955 366.136861 
L 191.010273 364.138207 
L 191.525155 358.628295 
L 192.368495 346.740235 
L 193.637945 329.657894 
L 194.312618 319.897816 
L 194.570059 312.574039 
L 194.738727 300.722282 
L 194.863009 272.484738 
L 194.969536 174.078626 
L 195.058309 101.870061 
L 195.12045 112.235684 
L 195.715227 322.42815 
L 195.919405 365.916525 
L 195.981545 366.331483 
L 196.043686 366.132575 
L 196.310005 364.130896 
L 196.833764 358.507286 
L 197.703736 346.204521 
L 198.955432 329.426213 
L 199.61235 319.881429 
L 199.869791 312.538493 
L 200.038459 300.624971 
L 200.162741 272.128268 
L 200.269268 172.865241 
L 200.358041 101.841825 
L 200.420182 112.477196 
L 201.023836 326.648064 
L 201.219136 365.930643 
L 201.281277 366.330979 
L 201.343418 366.12829 
L 201.609736 364.123585 
L 202.133495 358.496698 
L 202.994591 346.323009 
L 204.255164 329.415877 
L 204.912082 319.864539 
L 205.169523 312.502443 
L 205.338191 300.526148 
L 205.462473 271.764486 
L 205.569 171.643712 
L 205.657773 101.820397 
L 205.719914 112.720474 
L 206.332445 330.830666 
L 206.518868 365.94476 
L 206.581009 366.330726 
L 206.634273 366.168626 
L 206.873959 364.42535 
L 207.388841 359.035941 
L 208.187795 347.884016 
L 209.510509 329.958398 
L 210.202936 320.024875 
L 210.460377 312.843535 
L 210.629045 301.451357 
L 210.753327 275.094736 
L 210.850977 195.816814 
L 210.957505 101.805775 
L 211.019645 112.964759 
L 211.641055 334.924024 
L 211.827477 366.084676 
L 211.880741 366.330222 
L 211.934005 366.164592 
L 212.182568 364.341652 
L 212.69745 358.916698 
L 213.514159 347.477882 
L 214.810241 329.948061 
L 215.502668 320.008488 
L 215.760109 312.808997 
L 215.928777 301.358837 
L 216.053059 274.76877 
L 216.150709 194.684377 
L 216.257236 101.799724 
L 216.319377 113.20854 
L 216.949664 338.867131 
L 217.127209 366.09476 
L 217.171595 366.330726 
L 217.233736 366.160559 
L 217.4823 364.334593 
L 217.997182 358.906614 
L 218.822768 347.334436 
L 220.101095 330.048145 
L 220.8024 319.992102 
L 221.059841 312.774711 
L 221.228509 301.266568 
L 221.352791 274.441543 
L 221.450441 193.552496 
L 221.556968 101.800229 
L 221.610232 110.897029 
L 222.151745 298.291528 
L 222.426941 366.10434 
L 222.471327 366.330979 
L 222.533468 366.156525 
L 222.782032 364.327535 
L 223.296914 358.89653 
L 224.1225 347.322084 
L 225.418582 329.817221 
L 226.111009 319.797984 
L 226.36845 312.358997 
L 226.537118 300.129089 
L 226.652523 274.111796 
L 226.750173 192.416102 
L 226.8567 101.806027 
L 226.909964 111.125181 
L 227.460355 302.106063 
L 227.726673 366.113668 
L 227.771059 366.331483 
L 227.8332 366.152491 
L 228.090641 364.243081 
L 228.605523 358.776782 
L 229.439986 347.047798 
L 230.718314 329.806885 
L 231.401864 319.959328 
L 231.659305 312.705384 
L 231.827973 301.080769 
L 231.952255 273.779779 
L 232.049905 191.279506 
L 232.156432 101.81838 
L 232.209695 111.35308 
L 232.768964 306.01917 
L 233.017527 366.00955 
L 233.070791 366.331483 
L 233.132932 366.148458 
L 233.390373 364.236022 
L 233.905255 358.766698 
L 234.739718 347.035697 
L 236.018045 329.796801 
L 236.701595 319.943194 
L 236.959036 312.671098 
L 237.127705 300.987492 
L 237.251986 273.444737 
L 237.349636 190.136406 
L 237.456164 101.836027 
L 237.509427 111.583247 
L 238.077573 310.030596 
L 238.317259 366.021147 
L 238.370523 366.331735 
L 238.432664 366.144424 
L 238.698982 364.151064 
L 239.213864 358.646446 
L 240.057205 346.761664 
L 241.317777 329.786717 
L 242.001327 319.92706 
L 242.258768 312.636308 
L 242.427436 300.892702 
L 242.551718 273.10188 
L 242.649368 188.975583 
L 242.755895 101.860481 
L 242.809159 111.816441 
L 243.386182 314.129752 
L 243.616991 366.032743 
L 243.670255 366.331735 
L 243.732395 366.140138 
L 243.989836 364.221904 
L 244.504718 358.74653 
L 245.348059 346.880655 
L 246.617509 329.776381 
L 247.301059 319.910673 
L 247.5585 312.601266 
L 247.727168 300.796652 
L 247.85145 272.755242 
L 247.9491 187.81171 
L 248.055627 101.890481 
L 248.108891 112.051903 
L 248.694791 318.298237 
L 248.907845 365.905181 
L 248.969986 366.331483 
L 249.032127 366.136105 
L 249.298445 364.136694 
L 249.822205 358.515353 
L 250.692177 346.214101 
L 251.943873 329.43428 
L 252.600791 319.894034 
L 252.858232 312.565972 
L 253.0269 300.700097 
L 253.151182 272.404066 
L 253.257709 173.802374 
L 253.346482 101.863002 
L 253.408623 112.290642 
L 254.0034 322.510839 
L 254.207577 365.919802 
L 254.269718 366.331231 
L 254.331859 366.131819 
L 254.598177 364.129383 
L 255.121936 358.504765 
L 255.983032 346.332588 
L 257.22585 329.645288 
L 257.900523 319.877648 
L 258.157964 312.530426 
L 258.326632 300.602535 
L 258.450914 272.045831 
L 258.557441 172.586493 
L 258.646214 101.836279 
L 258.708355 112.532911 
L 259.312009 326.730753 
L 259.507309 365.93392 
L 259.56945 366.330979 
L 259.631591 366.127281 
L 259.897909 364.12182 
L 260.421668 358.494429 
L 261.291641 346.189647 
L 262.525582 329.634952 
L 263.200255 319.860757 
L 263.457695 312.494375 
L 263.626364 300.503459 
L 263.750645 271.680789 
L 263.857173 171.36446 
L 263.945945 101.816363 
L 264.008086 112.776188 
L 264.620618 330.912094 
L 264.807041 365.948038 
L 264.869182 366.330474 
L 264.922445 366.167869 
L 265.171009 364.347198 
L 265.685891 358.924765 
L 266.511477 347.356117 
L 267.807559 329.845709 
L 268.499986 319.844118 
L 268.757427 312.458325 
L 268.926095 300.404383 
L 269.050377 271.315747 
L 269.156905 170.151528 
L 269.245677 101.803758 
L 269.298941 110.494929 
L 269.8227 291.030776 
L 270.133405 366.246777 
L 270.168914 366.330222 
L 270.222177 366.163836 
L 270.470741 364.34014 
L 270.985623 358.914429 
L 271.802332 347.475109 
L 273.098414 329.945792 
L 273.790841 320.004707 
L 274.048282 312.801182 
L 274.21695 301.337912 
L 274.341232 274.694148 
L 274.438882 194.425319 
L 274.545409 101.799472 
L 274.598673 110.721567 
L 275.131309 294.648673 
L 275.424259 366.187281 
L 275.459768 366.330726 
L 275.521909 366.159802 
L 275.770473 364.333081 
L 276.285355 358.904345 
L 277.110941 347.331663 
L 278.389268 330.045876 
L 279.090573 319.98832 
L 279.348014 312.766644 
L 279.516682 301.245391 
L 279.640964 274.366417 
L 279.738614 193.293336 
L 279.845141 101.800733 
L 279.898405 110.949214 
L 280.439918 298.364385 
L 280.715114 366.106357 
L 280.7595 366.331231 
L 280.821641 366.155769 
L 281.079082 364.248627 
L 281.593964 358.784597 
L 282.428427 347.057126 
L 283.706755 329.8147 
L 284.390305 319.971934 
L 284.647745 312.732106 
L 284.816414 301.152618 
L 284.940695 274.036165 
L 285.038345 192.156841 
L 285.144873 101.808296 
L 285.198136 111.177113 
L 285.748527 302.179928 
L 286.014845 366.115685 
L 286.059232 366.331483 
L 286.121373 366.151483 
L 286.378814 364.241568 
L 286.902573 358.664345 
L 287.754791 346.652 
L 289.006486 329.804616 
L 289.690036 319.955799 
L 289.947477 312.697569 
L 290.116145 301.059593 
L 290.240427 273.703645 
L 290.338077 191.019388 
L 290.444605 101.821909 
L 290.497868 111.405264 
L 291.057136 306.095304 
L 291.3057 366.012323 
L 291.358964 366.331735 
L 291.421105 366.147449 
L 291.678545 364.234509 
L 292.193427 358.764429 
L 293.027891 347.032924 
L 294.315095 329.68386 
L 294.989768 319.939413 
L 295.247209 312.663031 
L 295.415877 300.966064 
L 295.540159 273.36709 
L 295.637809 189.872532 
L 295.744336 101.841069 
L 295.7976 111.636189 
L 296.365745 310.108747 
L 296.605432 366.02392 
L 296.658695 366.331735 
L 296.720836 366.143416 
L 296.978277 364.227451 
L 297.493159 358.754345 
L 298.327623 347.021075 
L 299.60595 329.784448 
L 300.2895 319.923278 
L 300.546941 312.628241 
L 300.715609 300.87077 
L 300.839891 273.023225 
L 300.937541 188.711381 
L 301.044068 101.866783 
L 301.097332 111.869634 
L 301.674355 314.209164 
L 301.905164 366.035264 
L 301.958427 366.331735 
L 302.020568 366.139382 
L 302.286886 364.142241 
L 302.810645 358.523169 
L 303.671741 346.354269 
L 304.914559 329.663692 
L 305.589232 319.906892 
L 305.846673 312.593199 
L 306.015341 300.774971 
L 306.139623 272.676082 
L 306.24615 174.735601 
L 306.334923 101.88796 
L 306.397064 112.105852 
L 306.982964 318.379414 
L 307.196018 365.908458 
L 307.258159 366.331483 
L 307.3203 366.135096 
L 307.586618 364.13493 
L 308.110377 358.512832 
L 308.971473 346.342168 
L 310.214291 329.653356 
L 310.888964 319.890505 
L 311.146405 312.557905 
L 311.315073 300.678165 
L 311.439355 272.323141 
L 311.545882 173.527106 
L 311.634655 101.856447 
L 311.696795 112.345348 
L 312.291573 322.593024 
L 312.49575 365.92308 
L 312.557891 366.331231 
L 312.620032 366.130811 
L 312.88635 364.127619 
L 313.410109 358.502496 
L 314.280082 346.198975 
L 315.531777 329.421423 
L 316.188695 319.873614 
L 316.446136 312.522106 
L 316.614805 300.580098 
L 316.739086 271.963646 
L 316.845614 172.308804 
L 316.934386 101.831237 
L 316.996527 112.588121 
L 317.600182 326.81319 
L 317.795482 365.937197 
L 317.857623 366.330979 
L 317.910886 366.170895 
L 318.15945 364.352745 
L 318.674332 358.93258 
L 319.491041 347.496789 
L 320.796 329.853524 
L 321.488427 319.856976 
L 321.745868 312.486056 
L 321.914536 300.48077 
L 322.038818 271.597344 
L 322.145345 171.086544 
L 322.234118 101.812834 
L 322.296259 112.831902 
L 322.908791 330.993271 
L 323.095214 365.951315 
L 323.157355 366.330474 
L 323.210618 366.166861 
L 323.459182 364.345686 
L 323.974064 358.922244 
L 324.790773 347.484436 
L 326.095732 329.843188 
L 326.779282 320.017312 
L 327.036723 312.827905 
L 327.205391 301.409257 
L 327.329673 274.946249 
L 327.427323 195.300512 
L 327.53385 101.801993 
L 327.595991 113.075936 
L 328.2174 335.080831 
L 328.403823 366.089214 
L 328.457086 366.32997 
L 328.51035 366.162827 
L 328.758914 364.338375 
L 329.273795 358.91216 
L 329.318182 358.359807 
L 329.335936 359.225521 
L 329.531236 363.06451 
L 329.620009 363.245266 
L 329.664395 363.190056 
L 329.815309 362.606191 
L 330.214786 359.895857 
L 332.176664 345.697295 
L 332.869091 342.597213 
L 333.428359 341.004441 
L 333.889977 340.289483 
L 334.262823 340.071164 
L 334.617914 340.109735 
L 335.106164 340.420323 
L 336.562036 341.436289 
L 337.218955 341.525785 
L 338.124436 341.415617 
L 339.926523 341.221247 
L 342.145841 341.269146 
L 435.845455 341.266373 
L 435.845455 341.266373 
" style="fill:none;stroke:#1f77b4;stroke-linecap:square;stroke-width:1.5;"/>
   </g>
   <g id="line2d_14">
    <path clip-path="url(#p6ae6b76c4f)" d="M 80.754545 341.332676 
L 81.109636 343.96664 
L 81.429218 345.065786 
L 81.660027 345.257025 
L 81.864205 345.147607 
L 82.201541 344.650264 
L 83.399973 342.711742 
L 83.834959 342.455559 
L 84.252191 342.46862 
L 84.900232 342.759373 
L 85.743573 343.071835 
L 86.471509 343.080992 
L 88.992655 342.92328 
L 92.090823 342.943508 
L 113.840141 342.945692 
L 151.772727 342.945692 
L 152.243223 304.951351 
L 152.323118 260.124037 
L 152.438523 66.96 
L 152.562805 87.620319 
L 153.104318 262.141654 
L 153.441655 369.36 
L 153.539305 369.117926 
L 153.938782 367.360497 
L 154.4004 364.244418 
L 154.9863 358.570924 
L 157.711623 327.332572 
L 157.924677 320.752117 
L 158.057836 309.177731 
L 158.155486 276.90841 
L 158.235382 136.935432 
L 158.297523 75.236576 
L 158.359664 83.255856 
L 158.59935 160.15213 
L 159.256268 369.278048 
L 159.300655 369.187646 
L 159.629114 367.848387 
L 160.072977 365.116926 
L 160.614491 360.250063 
L 161.6265 348.549074 
L 162.833809 335.791173 
L 163.437464 328.645456 
L 163.67715 322.8629 
L 163.828064 313.342418 
L 163.934591 290.025552 
L 164.014486 200.760118 
L 164.103259 75.38244 
L 164.1654 83.965923 
L 164.413964 164.474131 
L 165.053127 369.275259 
L 165.106391 369.173499 
L 165.443727 367.781574 
L 165.896468 364.948912 
L 166.446859 359.923137 
L 167.58315 346.757446 
L 168.923618 332.786355 
L 169.323095 327.110356 
L 169.527273 320.797336 
L 169.669309 308.090731 
L 169.766959 272.143257 
L 169.855732 103.061148 
L 169.900118 75.443457 
L 169.971136 84.821299 
L 170.237455 172.016636 
L 170.858864 369.27502 
L 170.912127 369.16162 
L 171.258341 367.717376 
L 171.711082 364.851552 
L 172.261473 359.788155 
L 173.486536 345.61328 
L 175.19985 325.385742 
L 175.377395 318.009991 
L 175.501677 301.978768 
L 175.59045 250.299805 
L 175.705855 75.38205 
L 175.803505 92.445649 
L 176.362773 277.476001 
L 176.655723 369.274765 
L 176.717864 369.149529 
L 177.072955 367.65237 
L 177.525695 364.753307 
L 178.084964 359.557991 
L 180.792532 329.436938 
L 181.049973 323.992164 
L 181.209764 315.661791 
L 181.325168 295.779277 
L 181.405064 231.317983 
L 181.511591 75.441707 
L 181.582609 86.622522 
L 181.893314 189.83957 
L 182.461459 369.275289 
L 182.532477 369.108481 
L 182.9142 367.446443 
L 183.375818 364.373389 
L 183.952841 358.844703 
L 186.713673 327.409656 
L 186.926727 321.090796 
L 187.068764 309.061347 
L 187.166414 276.649704 
L 187.246309 136.482432 
L 187.30845 75.385864 
L 187.370591 83.477065 
L 187.610277 160.561494 
L 188.258318 369.274238 
L 188.311582 369.180061 
L 188.640041 367.836538 
L 189.092782 365.03254 
L 189.643173 360.039606 
L 190.7262 347.493767 
L 191.951264 334.691435 
L 192.475023 328.160686 
L 192.705832 322.098619 
L 192.856745 311.032488 
L 192.954395 285.032651 
L 193.025414 197.02633 
L 193.114186 75.412957 
L 193.176327 84.318656 
L 193.433768 168.143541 
L 194.064055 369.275357 
L 194.117318 369.16848 
L 194.454655 367.773289 
L 194.907395 364.93633 
L 195.457786 359.905656 
L 196.602955 346.637697 
L 198.431673 324.716813 
L 198.600341 316.888769 
L 198.715745 300.287147 
L 198.795641 253.105248 
L 198.911045 75.401059 
L 199.017573 94.273341 
L 199.61235 294.1278 
L 199.869791 369.274355 
L 199.887545 369.250849 
L 200.082845 368.564162 
L 200.508955 366.337183 
L 201.006082 362.426423 
L 201.707386 354.852054 
L 203.349682 336.752314 
L 204.042109 328.779074 
L 204.281795 323.167419 
L 204.441586 313.289111 
L 204.548114 289.82236 
L 204.628009 199.681332 
L 204.716782 75.393958 
L 204.778923 84.073681 
L 205.036364 167.755615 
L 205.66665 369.275224 
L 205.719914 369.171831 
L 206.05725 367.778835 
L 206.509991 364.944753 
L 207.060382 359.917357 
L 208.196673 346.751219 
L 209.537141 332.780421 
L 209.936618 327.099608 
L 210.140795 320.771666 
L 210.282832 308.005179 
L 210.380482 271.731016 
L 210.513641 75.427193 
L 210.673432 110.22951 
L 211.472386 369.27483 
L 211.561159 369.042773 
L 211.960636 367.244473 
L 212.422255 364.071592 
L 213.017032 358.239189 
L 215.777864 326.243947 
L 215.973164 319.112449 
L 216.097445 305.719525 
L 216.186218 268.504651 
L 216.319377 75.383532 
L 216.461414 105.758877 
L 217.269245 369.274949 
L 217.38465 368.96611 
L 217.793005 367.072821 
L 218.2635 363.742677 
L 218.876032 357.598063 
L 221.610232 325.501717 
L 221.787777 318.31035 
L 221.912059 303.0353 
L 222.000832 255.750509 
L 222.125114 75.457633 
L 222.231641 96.159139 
L 222.85305 309.77647 
L 223.074982 369.27518 
L 223.146 369.106751 
L 223.527723 367.443648 
L 223.989341 364.36919 
L 224.566364 358.838977 
L 227.327195 327.399381 
L 227.54025 321.065963 
L 227.682286 308.98022 
L 227.779936 276.282224 
L 227.859832 135.099641 
L 227.921973 75.382631 
L 227.984114 83.590998 
L 228.232677 163.86981 
L 228.871841 369.274523 
L 228.925105 369.178483 
L 229.253564 367.833913 
L 229.706305 365.02854 
L 230.256695 360.034024 
L 231.339723 347.487644 
L 232.564786 334.685977 
L 233.079668 328.306069 
L 233.310477 322.436822 
L 233.461391 312.084285 
L 233.567918 284.751838 
L 233.638936 195.740768 
L 233.727709 75.4255 
L 233.78985 84.436809 
L 234.047291 168.329455 
L 234.677577 369.27535 
L 234.730841 369.166853 
L 235.077055 367.726018 
L 235.529795 364.864637 
L 236.080186 359.806259 
L 237.287495 345.83093 
L 239.027441 325.195925 
L 239.204986 317.508879 
L 239.329268 300.14413 
L 239.409164 252.454472 
L 239.524568 75.392327 
L 239.631095 94.422602 
L 240.23475 298.293975 
L 240.483314 369.274096 
L 240.492191 369.265139 
L 240.634227 368.809228 
L 241.051459 366.774196 
L 241.530832 363.225388 
L 242.169995 356.609412 
L 244.291664 333.396889 
L 244.717773 327.68723 
L 244.939705 321.351382 
L 245.081741 309.892076 
L 245.179391 280.31327 
L 245.259286 151.594218 
L 245.330305 75.401914 
L 245.392445 84.188406 
L 245.649886 167.937721 
L 246.280173 369.275305 
L 246.333436 369.170259 
L 246.670773 367.776231 
L 247.123514 364.940796 
L 247.673905 359.911861 
L 248.810195 346.745284 
L 250.159541 332.675765 
L 250.550141 327.088878 
L 250.754318 320.745766 
L 250.896355 307.918425 
L 250.994005 271.311334 
L 251.127164 75.413477 
L 251.278077 107.519908 
L 252.085909 369.274623 
L 252.192436 368.978226 
L 252.600791 367.092008 
L 253.071286 363.771133 
L 253.683818 357.636105 
L 256.426895 325.358422 
L 256.604441 317.938699 
L 256.728723 301.722253 
L 256.808618 259.469187 
L 256.9329 75.387501 
L 257.048305 97.764729 
L 257.678591 317.355597 
L 257.882768 369.27509 
L 257.944909 369.146258 
L 258.3 367.647037 
L 258.752741 364.745261 
L 259.312009 359.546881 
L 262.019577 329.42122 
L 262.277018 323.958647 
L 262.436809 315.570495 
L 262.552214 295.423248 
L 262.632109 229.488693 
L 262.729759 75.446118 
L 262.809655 86.873781 
L 263.129236 193.165262 
L 263.688505 369.275035 
L 263.7684 369.07527 
L 264.159 367.345169 
L 264.620618 364.221659 
L 265.206518 358.540776 
L 267.96735 326.846122 
L 268.171527 320.149252 
L 268.304686 307.448242 
L 268.393459 275.912229 
L 268.473355 133.73662 
L 268.535495 75.382042 
L 268.597636 83.704997 
L 268.8462 164.055314 
L 269.485364 369.274739 
L 269.538627 369.176902 
L 269.875964 367.787274 
L 270.328705 364.957573 
L 270.879095 359.935177 
L 272.006509 346.871582 
L 273.302591 333.379191 
L 273.7287 327.656147 
L 273.941755 321.674914 
L 274.083791 310.892262 
L 274.181441 284.468312 
L 274.252459 194.445444 
L 274.341232 75.439771 
L 274.403373 84.555322 
L 274.669691 171.605242 
L 275.2911 369.2753 
L 275.344364 369.165232 
L 275.690577 367.723331 
L 276.143318 364.860569 
L 276.693709 359.800629 
L 277.901018 345.82497 
L 279.640964 325.181616 
L 279.818509 317.470467 
L 279.942791 300.000564 
L 280.022686 251.800288 
L 280.138091 75.386423 
L 280.244618 94.570395 
L 280.848273 298.532268 
L 281.087959 369.274197 
L 281.105714 369.264399 
L 281.24775 368.807217 
L 281.664982 366.771048 
L 282.144355 363.220765 
L 282.783518 356.603359 
L 284.905186 333.391282 
L 285.331295 327.677427 
L 285.54435 321.724226 
L 285.686386 311.041246 
L 285.784036 285.067787 
L 285.855055 197.187602 
L 285.943827 75.41154 
L 286.005968 84.303854 
L 286.263409 168.120197 
L 286.893695 369.275353 
L 286.946959 369.168682 
L 287.284295 367.773624 
L 287.737036 364.936838 
L 288.287427 359.906362 
L 289.432595 346.638458 
L 291.261314 324.718745 
L 291.429982 316.893936 
L 291.545386 300.305015 
L 291.625282 253.186454 
L 291.740686 75.402252 
L 291.847214 94.254587 
L 292.441991 294.098788 
L 292.699432 369.274388 
L 292.717186 369.250982 
L 292.912486 368.56444 
L 293.338595 366.337615 
L 293.835723 362.427049 
L 294.537027 354.852849 
L 296.179323 336.752984 
L 296.87175 328.780159 
L 297.111436 323.169796 
L 297.271227 313.296322 
L 297.377755 289.851138 
L 297.45765 199.837151 
L 297.546423 75.393077 
L 297.608564 84.059263 
L 297.866005 167.732666 
L 298.496291 369.275211 
L 298.549555 369.172029 
L 298.886891 367.779164 
L 299.339632 364.945251 
L 299.890023 359.91805 
L 301.026314 346.751967 
L 302.366782 332.781152 
L 302.766259 327.10096 
L 302.970436 320.774927 
L 303.112473 308.016094 
L 303.210123 271.78374 
L 303.343282 75.429193 
L 303.503073 110.207735 
L 304.302027 369.274854 
L 304.3908 369.043002 
L 304.790277 367.244839 
L 305.251895 364.072137 
L 305.846673 358.239925 
L 308.607505 326.245474 
L 308.802805 319.116418 
L 308.927086 305.732344 
L 309.015859 268.561617 
L 309.149018 75.383213 
L 309.291055 105.737967 
L 310.098886 369.274928 
L 310.214291 368.966347 
L 310.622645 367.073197 
L 311.093141 363.743234 
L 311.705673 357.598807 
L 314.439873 325.503415 
L 314.617418 318.314692 
L 314.7417 303.050379 
L 314.830473 255.827067 
L 314.954755 75.455504 
L 315.061282 96.139904 
L 315.682691 309.742347 
L 315.904623 369.275196 
L 315.975641 369.106972 
L 316.357364 367.444005 
L 316.818982 364.369726 
L 317.396005 358.839708 
L 320.156836 327.400692 
L 320.369891 321.069131 
L 320.511927 308.990618 
L 320.609577 276.329432 
L 320.689473 135.275765 
L 320.751614 75.38289 
L 320.813755 83.576387 
L 321.062318 163.84597 
L 321.701482 369.274493 
L 321.754745 369.178685 
L 322.083205 367.834248 
L 322.535945 365.029052 
L 323.086336 360.034737 
L 324.169364 347.488427 
L 325.394427 334.686675 
L 325.909309 328.307244 
L 326.140118 322.439522 
L 326.291032 312.092491 
L 326.397559 284.787982 
L 326.468577 195.906016 
L 326.55735 75.423785 
L 326.619491 84.421578 
L 326.876932 168.305524 
L 327.507218 369.275353 
L 327.560482 369.167062 
L 327.906695 367.726366 
L 328.359436 364.865165 
L 328.909827 359.806989 
L 329.318182 355.206458 
L 329.335936 356.072266 
L 329.522359 359.477831 
L 329.575623 359.546422 
L 329.628886 359.452377 
L 329.797555 358.599403 
L 330.481105 353.396997 
L 331.395464 347.29891 
L 332.079014 344.107118 
L 332.61165 342.551098 
L 333.011127 341.960826 
L 333.312955 341.850855 
L 333.623659 341.987636 
L 334.147418 342.527597 
L 334.839845 343.150898 
L 335.319218 343.284192 
L 335.896241 343.192087 
L 337.440886 342.854156 
L 338.745845 342.940273 
L 340.459159 342.959233 
L 344.995445 342.946353 
L 396.971877 342.945692 
L 435.845455 342.945692 
L 435.845455 342.945692 
" style="fill:none;stroke:#ff0000;stroke-linecap:square;stroke-width:1.5;"/>
   </g>
   <g id="patch_3">
    <path d="M 63 384.48 
L 63 51.84 
" style="fill:none;stroke:#000000;stroke-linecap:square;stroke-linejoin:miter;stroke-width:0.8;"/>
   </g>
   <g id="patch_4">
    <path d="M 453.6 384.48 
L 453.6 51.84 
" style="fill:none;stroke:#000000;stroke-linecap:square;stroke-linejoin:miter;stroke-width:0.8;"/>
   </g>
   <g id="patch_5">
    <path d="M 63 384.48 
L 453.6 384.48 
" style="fill:none;stroke:#000000;stroke-linecap:square;stroke-linejoin:miter;stroke-width:0.8;"/>
   </g>
   <g id="patch_6">
    <path d="M 63 51.84 
L 453.6 51.84 
" style="fill:none;stroke:#000000;stroke-linecap:square;stroke-linejoin:miter;stroke-width:0.8;"/>
   </g>
   <g id="legend_1">
    <g id="patch_7">
     <path d="M 383.460938 89.19625 
L 446.6 89.19625 
Q 448.6 89.19625 448.6 87.19625 
L 448.6 58.84 
Q 448.6 56.84 446.6 56.84 
L 383.460938 56.84 
Q 381.460938 56.84 381.460938 58.84 
L 381.460938 87.19625 
Q 381.460938 89.19625 383.460938 89.19625 
z
" style="fill:#ffffff;opacity:0.8;stroke:#cccccc;stroke-linejoin:miter;"/>
    </g>
    <g id="line2d_15">
     <path d="M 385.460938 64.938437 
L 405.460938 64.938437 
" style="fill:none;stroke:#1f77b4;stroke-linecap:square;stroke-width:1.5;"/>
    </g>
    <g id="line2d_16"/>
    <g id="text_15">
     <!-- target -->
     <defs>
      <path d="M 41.109375 46.296875 
Q 39.59375 47.171875 37.8125 47.578125 
Q 36.03125 48 33.890625 48 
Q 26.265625 48 22.1875 43.046875 
Q 18.109375 38.09375 18.109375 28.8125 
L 18.109375 0 
L 9.078125 0 
L 9.078125 54.6875 
L 18.109375 54.6875 
L 18.109375 46.1875 
Q 20.953125 51.171875 25.484375 53.578125 
Q 30.03125 56 36.53125 56 
Q 37.453125 56 38.578125 55.875 
Q 39.703125 55.765625 41.0625 55.515625 
z
" id="DejaVuSans-72"/>
     </defs>
     <g transform="translate(413.460938 68.438437)scale(0.1 -0.1)">
      <use xlink:href="#DejaVuSans-74"/>
      <use x="39.208984" xlink:href="#DejaVuSans-61"/>
      <use x="100.488281" xlink:href="#DejaVuSans-72"/>
      <use x="141.585938" xlink:href="#DejaVuSans-67"/>
      <use x="205.0625" xlink:href="#DejaVuSans-65"/>
      <use x="266.585938" xlink:href="#DejaVuSans-74"/>
     </g>
    </g>
    <g id="line2d_17">
     <path d="M 385.460938 79.616562 
L 405.460938 79.616562 
" style="fill:none;stroke:#ff0000;stroke-linecap:square;stroke-width:1.5;"/>
    </g>
    <g id="line2d_18"/>
    <g id="text_16">
     <!-- model -->
     <defs>
      <path d="M 45.40625 46.390625 
L 45.40625 75.984375 
L 54.390625 75.984375 
L 54.390625 0 
L 45.40625 0 
L 45.40625 8.203125 
Q 42.578125 3.328125 38.25 0.953125 
Q 33.9375 -1.421875 27.875 -1.421875 
Q 17.96875 -1.421875 11.734375 6.484375 
Q 5.515625 14.40625 5.515625 27.296875 
Q 5.515625 40.1875 11.734375 48.09375 
Q 17.96875 56 27.875 56 
Q 33.9375 56 38.25 53.625 
Q 42.578125 51.265625 45.40625 46.390625 
z
M 14.796875 27.296875 
Q 14.796875 17.390625 18.875 11.75 
Q 22.953125 6.109375 30.078125 6.109375 
Q 37.203125 6.109375 41.296875 11.75 
Q 45.40625 17.390625 45.40625 27.296875 
Q 45.40625 37.203125 41.296875 42.84375 
Q 37.203125 48.484375 30.078125 48.484375 
Q 22.953125 48.484375 18.875 42.84375 
Q 14.796875 37.203125 14.796875 27.296875 
z
" id="DejaVuSans-64"/>
     </defs>
     <g transform="translate(413.460938 83.116562)scale(0.1 -0.1)">
      <use xlink:href="#DejaVuSans-6d"/>
      <use x="97.412109" xlink:href="#DejaVuSans-6f"/>
      <use x="158.59375" xlink:href="#DejaVuSans-64"/>
      <use x="222.070312" xlink:href="#DejaVuSans-65"/>
      <use x="283.59375" xlink:href="#DejaVuSans-6c"/>
     </g>
    </g>
   </g>
  </g>
 </g>
 <defs>
  <clipPath id="p6ae6b76c4f">
   <rect height="332.64" width="390.6" x="63" y="51.84"/>
  </clipPath>
 </defs>
</svg>
