<?xml version="1.0" encoding="utf-8" standalone="no"?>
<!DOCTYPE svg PUBLIC "-//W3C//DTD SVG 1.1//EN"
  "http://www.w3.org/Graphics/SVG/1.1/DTD/svg11.dtd">
<!-- Created with matplotlib (https://matplotlib.org/) -->
<svg height="432pt" version="1.1" viewBox="0 0 504 432" width="504pt" xmlns="http://www.w3.org/2000/svg" xmlns:xlink="http://www.w3.org/1999/xlink">
 <defs>
  <style type="text/css">
*{stroke-linecap:butt;stroke-linejoin:round;}
  </style>
 </defs>
 <g id="figure_1">
  <g id="patch_1">
   <path d="M 0 432 
L 504 432 
L 504 0 
L 0 0 
z
" style="fill:#ffffff;"/>
  </g>
  <g id="axes_1">
   <g id="patch_2">
    <path d="M 63 384.48 
L 453.6 384.48 
L 453.6 51.84 
L 63 51.84 
z
" style="fill:#ffffff;"/>
   </g>
   <g id="matplotlib.axis_1">
    <g id="xtick_1">
     <g id="line2d_1">
      <defs>
       <path d="M 0 0 
L 0 3.5 
" id="m6b7d18b626" style="stroke:#000000;stroke-width:0.8;"/>
      </defs>
      <g>
       <use style="stroke:#000000;stroke-width:0.8;" x="80.754545" xlink:href="#m6b7d18b626" y="384.48"/>
      </g>
     </g>
     <g id="text_1">
      <!-- 0 -->
      <defs>
       <path d="M 31.78125 66.40625 
Q 24.171875 66.40625 20.328125 58.90625 
Q 16.5 51.421875 16.5 36.375 
Q 16.5 21.390625 20.328125 13.890625 
Q 24.171875 6.390625 31.78125 6.390625 
Q 39.453125 6.390625 43.28125 13.890625 
Q 47.125 21.390625 47.125 36.375 
Q 47.125 51.421875 43.28125 58.90625 
Q 39.453125 66.40625 31.78125 66.40625 
z
M 31.78125 74.21875 
Q 44.046875 74.21875 50.515625 64.515625 
Q 56.984375 54.828125 56.984375 36.375 
Q 56.984375 17.96875 50.515625 8.265625 
Q 44.046875 -1.421875 31.78125 -1.421875 
Q 19.53125 -1.421875 13.0625 8.265625 
Q 6.59375 17.96875 6.59375 36.375 
Q 6.59375 54.828125 13.0625 64.515625 
Q 19.53125 74.21875 31.78125 74.21875 
z
" id="DejaVuSans-48"/>
      </defs>
      <g transform="translate(77.573295 399.078438)scale(0.1 -0.1)">
       <use xlink:href="#DejaVuSans-48"/>
      </g>
     </g>
    </g>
    <g id="xtick_2">
     <g id="line2d_2">
      <g>
       <use style="stroke:#000000;stroke-width:0.8;" x="151.772727" xlink:href="#m6b7d18b626" y="384.48"/>
      </g>
     </g>
     <g id="text_2">
      <!-- 200 -->
      <defs>
       <path d="M 19.1875 8.296875 
L 53.609375 8.296875 
L 53.609375 0 
L 7.328125 0 
L 7.328125 8.296875 
Q 12.9375 14.109375 22.625 23.890625 
Q 32.328125 33.6875 34.8125 36.53125 
Q 39.546875 41.84375 41.421875 45.53125 
Q 43.3125 49.21875 43.3125 52.78125 
Q 43.3125 58.59375 39.234375 62.25 
Q 35.15625 65.921875 28.609375 65.921875 
Q 23.96875 65.921875 18.8125 64.3125 
Q 13.671875 62.703125 7.8125 59.421875 
L 7.8125 69.390625 
Q 13.765625 71.78125 18.9375 73 
Q 24.125 74.21875 28.421875 74.21875 
Q 39.75 74.21875 46.484375 68.546875 
Q 53.21875 62.890625 53.21875 53.421875 
Q 53.21875 48.921875 51.53125 44.890625 
Q 49.859375 40.875 45.40625 35.40625 
Q 44.1875 33.984375 37.640625 27.21875 
Q 31.109375 20.453125 19.1875 8.296875 
z
" id="DejaVuSans-50"/>
      </defs>
      <g transform="translate(142.228977 399.078438)scale(0.1 -0.1)">
       <use xlink:href="#DejaVuSans-50"/>
       <use x="63.623047" xlink:href="#DejaVuSans-48"/>
       <use x="127.246094" xlink:href="#DejaVuSans-48"/>
      </g>
     </g>
    </g>
    <g id="xtick_3">
     <g id="line2d_3">
      <g>
       <use style="stroke:#000000;stroke-width:0.8;" x="222.790909" xlink:href="#m6b7d18b626" y="384.48"/>
      </g>
     </g>
     <g id="text_3">
      <!-- 400 -->
      <defs>
       <path d="M 37.796875 64.3125 
L 12.890625 25.390625 
L 37.796875 25.390625 
z
M 35.203125 72.90625 
L 47.609375 72.90625 
L 47.609375 25.390625 
L 58.015625 25.390625 
L 58.015625 17.1875 
L 47.609375 17.1875 
L 47.609375 0 
L 37.796875 0 
L 37.796875 17.1875 
L 4.890625 17.1875 
L 4.890625 26.703125 
z
" id="DejaVuSans-52"/>
      </defs>
      <g transform="translate(213.247159 399.078438)scale(0.1 -0.1)">
       <use xlink:href="#DejaVuSans-52"/>
       <use x="63.623047" xlink:href="#DejaVuSans-48"/>
       <use x="127.246094" xlink:href="#DejaVuSans-48"/>
      </g>
     </g>
    </g>
    <g id="xtick_4">
     <g id="line2d_4">
      <g>
       <use style="stroke:#000000;stroke-width:0.8;" x="293.809091" xlink:href="#m6b7d18b626" y="384.48"/>
      </g>
     </g>
     <g id="text_4">
      <!-- 600 -->
      <defs>
       <path d="M 33.015625 40.375 
Q 26.375 40.375 22.484375 35.828125 
Q 18.609375 31.296875 18.609375 23.390625 
Q 18.609375 15.53125 22.484375 10.953125 
Q 26.375 6.390625 33.015625 6.390625 
Q 39.65625 6.390625 43.53125 10.953125 
Q 47.40625 15.53125 47.40625 23.390625 
Q 47.40625 31.296875 43.53125 35.828125 
Q 39.65625 40.375 33.015625 40.375 
z
M 52.59375 71.296875 
L 52.59375 62.3125 
Q 48.875 64.0625 45.09375 64.984375 
Q 41.3125 65.921875 37.59375 65.921875 
Q 27.828125 65.921875 22.671875 59.328125 
Q 17.53125 52.734375 16.796875 39.40625 
Q 19.671875 43.65625 24.015625 45.921875 
Q 28.375 48.1875 33.59375 48.1875 
Q 44.578125 48.1875 50.953125 41.515625 
Q 57.328125 34.859375 57.328125 23.390625 
Q 57.328125 12.15625 50.6875 5.359375 
Q 44.046875 -1.421875 33.015625 -1.421875 
Q 20.359375 -1.421875 13.671875 8.265625 
Q 6.984375 17.96875 6.984375 36.375 
Q 6.984375 53.65625 15.1875 63.9375 
Q 23.390625 74.21875 37.203125 74.21875 
Q 40.921875 74.21875 44.703125 73.484375 
Q 48.484375 72.75 52.59375 71.296875 
z
" id="DejaVuSans-54"/>
      </defs>
      <g transform="translate(284.265341 399.078438)scale(0.1 -0.1)">
       <use xlink:href="#DejaVuSans-54"/>
       <use x="63.623047" xlink:href="#DejaVuSans-48"/>
       <use x="127.246094" xlink:href="#DejaVuSans-48"/>
      </g>
     </g>
    </g>
    <g id="xtick_5">
     <g id="line2d_5">
      <g>
       <use style="stroke:#000000;stroke-width:0.8;" x="364.827273" xlink:href="#m6b7d18b626" y="384.48"/>
      </g>
     </g>
     <g id="text_5">
      <!-- 800 -->
      <defs>
       <path d="M 31.78125 34.625 
Q 24.75 34.625 20.71875 30.859375 
Q 16.703125 27.09375 16.703125 20.515625 
Q 16.703125 13.921875 20.71875 10.15625 
Q 24.75 6.390625 31.78125 6.390625 
Q 38.8125 6.390625 42.859375 10.171875 
Q 46.921875 13.96875 46.921875 20.515625 
Q 46.921875 27.09375 42.890625 30.859375 
Q 38.875 34.625 31.78125 34.625 
z
M 21.921875 38.8125 
Q 15.578125 40.375 12.03125 44.71875 
Q 8.5 49.078125 8.5 55.328125 
Q 8.5 64.0625 14.71875 69.140625 
Q 20.953125 74.21875 31.78125 74.21875 
Q 42.671875 74.21875 48.875 69.140625 
Q 55.078125 64.0625 55.078125 55.328125 
Q 55.078125 49.078125 51.53125 44.71875 
Q 48 40.375 41.703125 38.8125 
Q 48.828125 37.15625 52.796875 32.3125 
Q 56.78125 27.484375 56.78125 20.515625 
Q 56.78125 9.90625 50.3125 4.234375 
Q 43.84375 -1.421875 31.78125 -1.421875 
Q 19.734375 -1.421875 13.25 4.234375 
Q 6.78125 9.90625 6.78125 20.515625 
Q 6.78125 27.484375 10.78125 32.3125 
Q 14.796875 37.15625 21.921875 38.8125 
z
M 18.3125 54.390625 
Q 18.3125 48.734375 21.84375 45.5625 
Q 25.390625 42.390625 31.78125 42.390625 
Q 38.140625 42.390625 41.71875 45.5625 
Q 45.3125 48.734375 45.3125 54.390625 
Q 45.3125 60.0625 41.71875 63.234375 
Q 38.140625 66.40625 31.78125 66.40625 
Q 25.390625 66.40625 21.84375 63.234375 
Q 18.3125 60.0625 18.3125 54.390625 
z
" id="DejaVuSans-56"/>
      </defs>
      <g transform="translate(355.283523 399.078438)scale(0.1 -0.1)">
       <use xlink:href="#DejaVuSans-56"/>
       <use x="63.623047" xlink:href="#DejaVuSans-48"/>
       <use x="127.246094" xlink:href="#DejaVuSans-48"/>
      </g>
     </g>
    </g>
    <g id="text_6">
     <!-- time [ms] -->
     <defs>
      <path d="M 18.3125 70.21875 
L 18.3125 54.6875 
L 36.8125 54.6875 
L 36.8125 47.703125 
L 18.3125 47.703125 
L 18.3125 18.015625 
Q 18.3125 11.328125 20.140625 9.421875 
Q 21.96875 7.515625 27.59375 7.515625 
L 36.8125 7.515625 
L 36.8125 0 
L 27.59375 0 
Q 17.1875 0 13.234375 3.875 
Q 9.28125 7.765625 9.28125 18.015625 
L 9.28125 47.703125 
L 2.6875 47.703125 
L 2.6875 54.6875 
L 9.28125 54.6875 
L 9.28125 70.21875 
z
" id="DejaVuSans-116"/>
      <path d="M 9.421875 54.6875 
L 18.40625 54.6875 
L 18.40625 0 
L 9.421875 0 
z
M 9.421875 75.984375 
L 18.40625 75.984375 
L 18.40625 64.59375 
L 9.421875 64.59375 
z
" id="DejaVuSans-105"/>
      <path d="M 52 44.1875 
Q 55.375 50.25 60.0625 53.125 
Q 64.75 56 71.09375 56 
Q 79.640625 56 84.28125 50.015625 
Q 88.921875 44.046875 88.921875 33.015625 
L 88.921875 0 
L 79.890625 0 
L 79.890625 32.71875 
Q 79.890625 40.578125 77.09375 44.375 
Q 74.3125 48.1875 68.609375 48.1875 
Q 61.625 48.1875 57.5625 43.546875 
Q 53.515625 38.921875 53.515625 30.90625 
L 53.515625 0 
L 44.484375 0 
L 44.484375 32.71875 
Q 44.484375 40.625 41.703125 44.40625 
Q 38.921875 48.1875 33.109375 48.1875 
Q 26.21875 48.1875 22.15625 43.53125 
Q 18.109375 38.875 18.109375 30.90625 
L 18.109375 0 
L 9.078125 0 
L 9.078125 54.6875 
L 18.109375 54.6875 
L 18.109375 46.1875 
Q 21.1875 51.21875 25.484375 53.609375 
Q 29.78125 56 35.6875 56 
Q 41.65625 56 45.828125 52.96875 
Q 50 49.953125 52 44.1875 
z
" id="DejaVuSans-109"/>
      <path d="M 56.203125 29.59375 
L 56.203125 25.203125 
L 14.890625 25.203125 
Q 15.484375 15.921875 20.484375 11.0625 
Q 25.484375 6.203125 34.421875 6.203125 
Q 39.59375 6.203125 44.453125 7.46875 
Q 49.3125 8.734375 54.109375 11.28125 
L 54.109375 2.78125 
Q 49.265625 0.734375 44.1875 -0.34375 
Q 39.109375 -1.421875 33.890625 -1.421875 
Q 20.796875 -1.421875 13.15625 6.1875 
Q 5.515625 13.8125 5.515625 26.8125 
Q 5.515625 40.234375 12.765625 48.109375 
Q 20.015625 56 32.328125 56 
Q 43.359375 56 49.78125 48.890625 
Q 56.203125 41.796875 56.203125 29.59375 
z
M 47.21875 32.234375 
Q 47.125 39.59375 43.09375 43.984375 
Q 39.0625 48.390625 32.421875 48.390625 
Q 24.90625 48.390625 20.390625 44.140625 
Q 15.875 39.890625 15.1875 32.171875 
z
" id="DejaVuSans-101"/>
      <path id="DejaVuSans-32"/>
      <path d="M 8.59375 75.984375 
L 29.296875 75.984375 
L 29.296875 69 
L 17.578125 69 
L 17.578125 -6.203125 
L 29.296875 -6.203125 
L 29.296875 -13.1875 
L 8.59375 -13.1875 
z
" id="DejaVuSans-91"/>
      <path d="M 44.28125 53.078125 
L 44.28125 44.578125 
Q 40.484375 46.53125 36.375 47.5 
Q 32.28125 48.484375 27.875 48.484375 
Q 21.1875 48.484375 17.84375 46.4375 
Q 14.5 44.390625 14.5 40.28125 
Q 14.5 37.15625 16.890625 35.375 
Q 19.28125 33.59375 26.515625 31.984375 
L 29.59375 31.296875 
Q 39.15625 29.25 43.1875 25.515625 
Q 47.21875 21.78125 47.21875 15.09375 
Q 47.21875 7.46875 41.1875 3.015625 
Q 35.15625 -1.421875 24.609375 -1.421875 
Q 20.21875 -1.421875 15.453125 -0.5625 
Q 10.6875 0.296875 5.421875 2 
L 5.421875 11.28125 
Q 10.40625 8.6875 15.234375 7.390625 
Q 20.0625 6.109375 24.8125 6.109375 
Q 31.15625 6.109375 34.5625 8.28125 
Q 37.984375 10.453125 37.984375 14.40625 
Q 37.984375 18.0625 35.515625 20.015625 
Q 33.0625 21.96875 24.703125 23.78125 
L 21.578125 24.515625 
Q 13.234375 26.265625 9.515625 29.90625 
Q 5.8125 33.546875 5.8125 39.890625 
Q 5.8125 47.609375 11.28125 51.796875 
Q 16.75 56 26.8125 56 
Q 31.78125 56 36.171875 55.265625 
Q 40.578125 54.546875 44.28125 53.078125 
z
" id="DejaVuSans-115"/>
      <path d="M 30.421875 75.984375 
L 30.421875 -13.1875 
L 9.71875 -13.1875 
L 9.71875 -6.203125 
L 21.390625 -6.203125 
L 21.390625 69 
L 9.71875 69 
L 9.71875 75.984375 
z
" id="DejaVuSans-93"/>
     </defs>
     <g transform="translate(234.038281 412.756563)scale(0.1 -0.1)">
      <use xlink:href="#DejaVuSans-116"/>
      <use x="39.208984" xlink:href="#DejaVuSans-105"/>
      <use x="66.992188" xlink:href="#DejaVuSans-109"/>
      <use x="164.404297" xlink:href="#DejaVuSans-101"/>
      <use x="225.927734" xlink:href="#DejaVuSans-32"/>
      <use x="257.714844" xlink:href="#DejaVuSans-91"/>
      <use x="296.728516" xlink:href="#DejaVuSans-109"/>
      <use x="394.140625" xlink:href="#DejaVuSans-115"/>
      <use x="446.240234" xlink:href="#DejaVuSans-93"/>
     </g>
    </g>
   </g>
   <g id="matplotlib.axis_2">
    <g id="ytick_1">
     <g id="line2d_6">
      <defs>
       <path d="M 0 0 
L -3.5 0 
" id="me6c31b8785" style="stroke:#000000;stroke-width:0.8;"/>
      </defs>
      <g>
       <use style="stroke:#000000;stroke-width:0.8;" x="63" xlink:href="#me6c31b8785" y="345.636589"/>
      </g>
     </g>
     <g id="text_7">
      <!-- −60 -->
      <defs>
       <path d="M 10.59375 35.5 
L 73.1875 35.5 
L 73.1875 27.203125 
L 10.59375 27.203125 
z
" id="DejaVuSans-8722"/>
      </defs>
      <g transform="translate(34.895313 349.435808)scale(0.1 -0.1)">
       <use xlink:href="#DejaVuSans-8722"/>
       <use x="83.789062" xlink:href="#DejaVuSans-54"/>
       <use x="147.412109" xlink:href="#DejaVuSans-48"/>
      </g>
     </g>
    </g>
    <g id="ytick_2">
     <g id="line2d_7">
      <g>
       <use style="stroke:#000000;stroke-width:0.8;" x="63" xlink:href="#me6c31b8785" y="279.112294"/>
      </g>
     </g>
     <g id="text_8">
      <!-- −40 -->
      <g transform="translate(34.895313 282.911513)scale(0.1 -0.1)">
       <use xlink:href="#DejaVuSans-8722"/>
       <use x="83.789062" xlink:href="#DejaVuSans-52"/>
       <use x="147.412109" xlink:href="#DejaVuSans-48"/>
      </g>
     </g>
    </g>
    <g id="ytick_3">
     <g id="line2d_8">
      <g>
       <use style="stroke:#000000;stroke-width:0.8;" x="63" xlink:href="#me6c31b8785" y="212.588"/>
      </g>
     </g>
     <g id="text_9">
      <!-- −20 -->
      <g transform="translate(34.895313 216.387218)scale(0.1 -0.1)">
       <use xlink:href="#DejaVuSans-8722"/>
       <use x="83.789062" xlink:href="#DejaVuSans-50"/>
       <use x="147.412109" xlink:href="#DejaVuSans-48"/>
      </g>
     </g>
    </g>
    <g id="ytick_4">
     <g id="line2d_9">
      <g>
       <use style="stroke:#000000;stroke-width:0.8;" x="63" xlink:href="#me6c31b8785" y="146.063705"/>
      </g>
     </g>
     <g id="text_10">
      <!-- 0 -->
      <g transform="translate(49.6375 149.862924)scale(0.1 -0.1)">
       <use xlink:href="#DejaVuSans-48"/>
      </g>
     </g>
    </g>
    <g id="ytick_5">
     <g id="line2d_10">
      <g>
       <use style="stroke:#000000;stroke-width:0.8;" x="63" xlink:href="#me6c31b8785" y="79.53941"/>
      </g>
     </g>
     <g id="text_11">
      <!-- 20 -->
      <g transform="translate(43.275 83.338629)scale(0.1 -0.1)">
       <use xlink:href="#DejaVuSans-50"/>
       <use x="63.623047" xlink:href="#DejaVuSans-48"/>
      </g>
     </g>
    </g>
    <g id="text_12">
     <!-- voltage [V] -->
     <defs>
      <path d="M 2.984375 54.6875 
L 12.5 54.6875 
L 29.59375 8.796875 
L 46.6875 54.6875 
L 56.203125 54.6875 
L 35.6875 0 
L 23.484375 0 
z
" id="DejaVuSans-118"/>
      <path d="M 30.609375 48.390625 
Q 23.390625 48.390625 19.1875 42.75 
Q 14.984375 37.109375 14.984375 27.296875 
Q 14.984375 17.484375 19.15625 11.84375 
Q 23.34375 6.203125 30.609375 6.203125 
Q 37.796875 6.203125 41.984375 11.859375 
Q 46.1875 17.53125 46.1875 27.296875 
Q 46.1875 37.015625 41.984375 42.703125 
Q 37.796875 48.390625 30.609375 48.390625 
z
M 30.609375 56 
Q 42.328125 56 49.015625 48.375 
Q 55.71875 40.765625 55.71875 27.296875 
Q 55.71875 13.875 49.015625 6.21875 
Q 42.328125 -1.421875 30.609375 -1.421875 
Q 18.84375 -1.421875 12.171875 6.21875 
Q 5.515625 13.875 5.515625 27.296875 
Q 5.515625 40.765625 12.171875 48.375 
Q 18.84375 56 30.609375 56 
z
" id="DejaVuSans-111"/>
      <path d="M 9.421875 75.984375 
L 18.40625 75.984375 
L 18.40625 0 
L 9.421875 0 
z
" id="DejaVuSans-108"/>
      <path d="M 34.28125 27.484375 
Q 23.390625 27.484375 19.1875 25 
Q 14.984375 22.515625 14.984375 16.5 
Q 14.984375 11.71875 18.140625 8.90625 
Q 21.296875 6.109375 26.703125 6.109375 
Q 34.1875 6.109375 38.703125 11.40625 
Q 43.21875 16.703125 43.21875 25.484375 
L 43.21875 27.484375 
z
M 52.203125 31.203125 
L 52.203125 0 
L 43.21875 0 
L 43.21875 8.296875 
Q 40.140625 3.328125 35.546875 0.953125 
Q 30.953125 -1.421875 24.3125 -1.421875 
Q 15.921875 -1.421875 10.953125 3.296875 
Q 6 8.015625 6 15.921875 
Q 6 25.140625 12.171875 29.828125 
Q 18.359375 34.515625 30.609375 34.515625 
L 43.21875 34.515625 
L 43.21875 35.40625 
Q 43.21875 41.609375 39.140625 45 
Q 35.0625 48.390625 27.6875 48.390625 
Q 23 48.390625 18.546875 47.265625 
Q 14.109375 46.140625 10.015625 43.890625 
L 10.015625 52.203125 
Q 14.9375 54.109375 19.578125 55.046875 
Q 24.21875 56 28.609375 56 
Q 40.484375 56 46.34375 49.84375 
Q 52.203125 43.703125 52.203125 31.203125 
z
" id="DejaVuSans-97"/>
      <path d="M 45.40625 27.984375 
Q 45.40625 37.75 41.375 43.109375 
Q 37.359375 48.484375 30.078125 48.484375 
Q 22.859375 48.484375 18.828125 43.109375 
Q 14.796875 37.75 14.796875 27.984375 
Q 14.796875 18.265625 18.828125 12.890625 
Q 22.859375 7.515625 30.078125 7.515625 
Q 37.359375 7.515625 41.375 12.890625 
Q 45.40625 18.265625 45.40625 27.984375 
z
M 54.390625 6.78125 
Q 54.390625 -7.171875 48.1875 -13.984375 
Q 42 -20.796875 29.203125 -20.796875 
Q 24.46875 -20.796875 20.265625 -20.09375 
Q 16.0625 -19.390625 12.109375 -17.921875 
L 12.109375 -9.1875 
Q 16.0625 -11.328125 19.921875 -12.34375 
Q 23.78125 -13.375 27.78125 -13.375 
Q 36.625 -13.375 41.015625 -8.765625 
Q 45.40625 -4.15625 45.40625 5.171875 
L 45.40625 9.625 
Q 42.625 4.78125 38.28125 2.390625 
Q 33.9375 0 27.875 0 
Q 17.828125 0 11.671875 7.65625 
Q 5.515625 15.328125 5.515625 27.984375 
Q 5.515625 40.671875 11.671875 48.328125 
Q 17.828125 56 27.875 56 
Q 33.9375 56 38.28125 53.609375 
Q 42.625 51.21875 45.40625 46.390625 
L 45.40625 54.6875 
L 54.390625 54.6875 
z
" id="DejaVuSans-103"/>
      <path d="M 28.609375 0 
L 0.78125 72.90625 
L 11.078125 72.90625 
L 34.1875 11.53125 
L 57.328125 72.90625 
L 67.578125 72.90625 
L 39.796875 0 
z
" id="DejaVuSans-86"/>
     </defs>
     <g transform="translate(28.815625 245.75375)rotate(-90)scale(0.1 -0.1)">
      <use xlink:href="#DejaVuSans-118"/>
      <use x="59.179688" xlink:href="#DejaVuSans-111"/>
      <use x="120.361328" xlink:href="#DejaVuSans-108"/>
      <use x="148.144531" xlink:href="#DejaVuSans-116"/>
      <use x="187.353516" xlink:href="#DejaVuSans-97"/>
      <use x="248.632812" xlink:href="#DejaVuSans-103"/>
      <use x="312.109375" xlink:href="#DejaVuSans-101"/>
      <use x="373.632812" xlink:href="#DejaVuSans-32"/>
      <use x="405.419922" xlink:href="#DejaVuSans-91"/>
      <use x="444.433594" xlink:href="#DejaVuSans-86"/>
      <use x="512.841797" xlink:href="#DejaVuSans-93"/>
     </g>
    </g>
   </g>
   <g id="line2d_11">
    <path clip-path="url(#p034d28181f)" d="M 80.754545 362.267655 
L 81.695536 362.279528 
L 85.743573 362.698088 
L 98.562355 364.009412 
L 108.664691 364.800404 
L 119.565982 365.426787 
L 131.763355 365.899621 
L 146.073518 366.224311 
L 151.772727 366.302297 
L 151.8615 364.297823 
L 152.234345 356.130223 
L 152.731473 350.413512 
L 153.565936 343.659466 
L 154.9863 334.14245 
L 156.726245 324.003227 
L 158.412927 315.430171 
L 160.028591 308.328286 
L 161.590991 302.454156 
L 163.153391 297.450363 
L 164.840073 292.81328 
L 167.236936 286.957284 
L 168.941373 282.562204 
L 169.793591 279.761498 
L 170.361736 277.150285 
L 170.752336 274.321149 
L 171.036409 270.257183 
L 171.1962 263.092314 
L 171.249464 255.126759 
L 171.622309 69.281301 
L 171.675573 66.96 
L 171.746591 67.199032 
L 171.906382 79.921773 
L 172.190455 132.166113 
L 172.847373 249.465792 
L 173.220218 283.684647 
L 173.5398 295.956574 
L 173.912645 302.355866 
L 174.303245 305.704123 
L 174.782618 307.896653 
L 175.226482 309.001211 
L 175.6881 309.588426 
L 176.096455 309.780486 
L 176.522564 309.737136 
L 177.019691 309.446573 
L 177.676609 308.767717 
L 178.528827 307.540966 
L 179.771645 305.336502 
L 182.807673 299.333831 
L 185.470855 294.357201 
L 188.134036 289.878051 
L 192.217582 283.064927 
L 193.336118 280.688784 
L 194.117318 278.49651 
L 194.685464 276.182599 
L 195.093818 273.412641 
L 195.324627 270.47995 
L 195.502173 264.57945 
L 195.573191 255.425062 
L 195.626455 228.175913 
L 195.839509 97.516478 
L 196.017055 88.959292 
L 196.034809 88.918121 
L 196.176845 92.625556 
L 196.407655 109.556251 
L 196.744991 157.946087 
L 197.437418 254.704324 
L 197.810264 279.226759 
L 198.200864 290.849222 
L 198.591464 296.437161 
L 199.070836 300.102232 
L 199.550209 302.252179 
L 200.082845 303.733604 
L 200.650991 304.669744 
L 201.219136 305.15828 
L 201.787282 305.324891 
L 202.390936 305.240395 
L 203.083364 304.899748 
L 203.988845 304.176438 
L 205.231664 302.859582 
L 207.220173 300.377299 
L 212.9904 293.043853 
L 217.855145 287.397721 
L 220.4118 284.240226 
L 221.885427 282.074112 
L 222.915191 280.170163 
L 223.660882 278.334703 
L 224.229027 276.32503 
L 224.637382 274.017909 
L 224.9037 271.31516 
L 225.081245 267.589646 
L 225.205527 258.415882 
L 225.241036 245.023133 
L 225.525109 96.32107 
L 225.596127 93.99076 
L 225.667145 94.537932 
L 225.862445 102.393544 
L 226.164273 126.558235 
L 226.679155 195.017746 
L 227.229545 256.277411 
L 227.6379 277.468536 
L 228.046255 287.704646 
L 228.454609 293.028427 
L 228.933982 296.629085 
L 229.502127 299.216755 
L 230.105782 300.940436 
L 230.691682 302.002191 
L 231.313091 302.679134 
L 231.898991 303.010564 
L 232.538155 303.118149 
L 233.266091 302.999524 
L 234.153818 302.603406 
L 235.236845 301.864631 
L 236.781491 300.517208 
L 239.320391 297.968018 
L 247.416464 289.731552 
L 251.446745 285.565792 
L 253.346482 283.282831 
L 254.642564 281.383924 
L 255.601309 279.578156 
L 256.275982 277.856172 
L 256.808618 275.87585 
L 257.181464 273.643989 
L 257.447782 270.66873 
L 257.607573 266.75558 
L 257.696345 260.303453 
L 257.767364 237.333436 
L 257.998173 99.903168 
L 258.122455 94.677338 
L 258.157964 95.280898 
L 258.264491 98.729658 
L 258.566318 118.96098 
L 258.956918 162.95897 
L 259.755873 254.839723 
L 260.181982 276.581627 
L 260.590336 286.634253 
L 261.016445 291.975038 
L 261.495818 295.365634 
L 262.028455 297.687683 
L 262.649864 299.420911 
L 263.271273 300.529869 
L 263.892682 301.21972 
L 264.531845 301.611808 
L 265.206518 301.764996 
L 265.952209 301.700841 
L 266.839936 301.39104 
L 267.958473 300.749584 
L 269.449855 299.621353 
L 271.722436 297.600434 
L 281.203364 288.634271 
L 284.452445 285.368367 
L 286.298918 283.209222 
L 287.577245 281.389698 
L 288.518236 279.681558 
L 289.246173 277.89178 
L 289.778809 275.978802 
L 290.151655 273.858675 
L 290.435727 270.900482 
L 290.631027 265.810178 
L 290.7198 257.480024 
L 290.844082 160.945896 
L 291.003873 99.049413 
L 291.128155 94.968185 
L 291.163664 95.493387 
L 291.341209 102.88345 
L 291.643036 126.346917 
L 292.175673 191.727749 
L 292.761573 254.334985 
L 293.152173 274.715887 
L 293.560527 285.553323 
L 294.004391 291.444256 
L 294.483764 294.96598 
L 295.051909 297.478558 
L 295.673318 299.209784 
L 296.276973 300.29573 
L 296.916136 301.015957 
L 297.5553 301.416139 
L 298.247727 301.581416 
L 299.028927 301.518167 
L 299.952164 301.196826 
L 301.141718 300.512946 
L 302.686364 299.346277 
L 305.154245 297.167093 
L 315.451882 287.5358 
L 318.150573 284.761209 
L 319.837255 282.719732 
L 321.062318 280.884534 
L 321.950045 279.149917 
L 322.589209 277.435416 
L 323.068582 275.550349 
L 323.423673 273.291667 
L 323.672236 270.369949 
L 323.849782 264.878234 
L 323.938555 254.096802 
L 323.974064 233.694104 
L 324.204873 100.286077 
L 324.3114 94.751932 
L 324.346909 95.22694 
L 324.453436 98.219747 
L 324.755264 118.131694 
L 325.163618 163.392269 
L 325.962573 254.156873 
L 326.388682 275.98365 
L 326.797036 286.262762 
L 327.2409 291.879104 
L 327.738027 295.348687 
L 328.306173 297.729113 
L 328.927582 299.372594 
L 329.5845 300.469189 
L 330.223664 301.11378 
L 330.880582 301.463393 
L 331.573009 301.576747 
L 332.371964 301.465703 
L 333.2952 301.104171 
L 334.484755 300.387078 
L 336.135927 299.10771 
L 338.834618 296.694192 
L 350.197527 286.007807 
L 352.274809 283.720703 
L 353.677418 281.865904 
L 354.724936 280.120975 
L 355.506136 278.38611 
L 356.092036 276.529435 
L 356.518145 274.42663 
L 356.819973 271.810969 
L 357.015273 268.271616 
L 357.139555 261.909157 
L 357.210573 242.995241 
L 357.476891 97.737701 
L 357.565664 94.914422 
L 357.618927 95.494418 
L 357.778718 101.985962 
L 358.116055 128.393482 
L 358.648691 194.357816 
L 359.216836 254.582691 
L 359.625191 275.715638 
L 360.033545 286.229788 
L 360.459655 291.781276 
L 360.939027 295.248081 
L 361.453909 297.519915 
L 362.057564 299.222379 
L 362.678973 300.34505 
L 363.318136 301.058691 
L 363.975055 301.458782 
L 364.649727 301.610015 
L 364.862782 301.614098 
L 364.969309 303.803082 
L 365.306645 311.036418 
L 365.786018 316.137121 
L 366.460691 320.738333 
L 367.348418 325.25405 
L 368.395936 329.445985 
L 369.532227 333.121475 
L 370.775045 336.431246 
L 372.1599 339.494316 
L 373.633527 342.221991 
L 375.213682 344.68949 
L 376.900364 346.923892 
L 378.729082 348.985981 
L 380.735345 350.91228 
L 382.9014 352.683699 
L 385.280509 354.340741 
L 387.890427 355.886815 
L 390.819927 357.358005 
L 394.051255 358.728675 
L 397.673182 360.020875 
L 401.738973 361.232304 
L 406.3374 362.364708 
L 411.450709 363.391288 
L 417.167673 364.309586 
L 423.577064 365.109837 
L 430.732145 365.775551 
L 435.8277 366.131049 
L 435.8277 366.131049 
" style="fill:none;stroke:#1f77b4;stroke-linecap:square;stroke-width:1.5;"/>
   </g>
   <g id="line2d_12">
    <path clip-path="url(#p034d28181f)" d="M 80.754545 362.267663 
L 81.393709 362.389245 
L 93.591082 365.096275 
L 98.633373 365.837825 
L 104.066264 366.408067 
L 110.138318 366.816073 
L 117.275645 367.064767 
L 126.508009 367.150369 
L 142.4871 367.037097 
L 151.772727 366.948637 
L 151.985782 356.837655 
L 152.429645 347.26681 
L 153.139827 337.045302 
L 154.151836 325.767513 
L 155.252618 315.89373 
L 156.300136 308.406687 
L 157.312145 302.699483 
L 158.341909 298.124917 
L 159.424936 294.306871 
L 160.596736 290.974713 
L 161.928327 287.854085 
L 163.5795 284.569259 
L 166.864091 278.193648 
L 167.609782 276.123807 
L 168.124664 274.054128 
L 168.497509 271.635805 
L 168.763827 268.364192 
L 168.941373 262.951964 
L 169.030145 253.561173 
L 169.083409 218.688567 
L 169.225445 69.586967 
L 169.2432 70.274531 
L 169.420745 91.403122 
L 170.095418 203.811291 
L 170.503773 354.84903 
L 170.752336 358.46719 
L 171.107427 360.520927 
L 171.409255 361.218307 
L 171.622309 361.269789 
L 171.835364 361.036602 
L 172.154945 360.278454 
L 172.652073 358.419016 
L 173.451027 354.424447 
L 177.214991 334.421323 
L 178.493318 328.599002 
L 180.428564 320.308523 
L 182.133 313.972396 
L 183.766418 308.731405 
L 185.382082 304.271963 
L 186.997745 300.446219 
L 188.648918 297.100664 
L 190.3356 294.180477 
L 192.0933 291.577658 
L 193.975282 289.187508 
L 196.070318 286.891375 
L 198.591464 284.471024 
L 204.343936 279.088407 
L 205.497982 277.600466 
L 206.314691 276.189414 
L 206.918345 274.711954 
L 207.379964 272.996527 
L 207.735055 270.77112 
L 207.983618 267.734298 
L 208.143409 263.114802 
L 208.249936 251.698432 
L 208.3032 205.894733 
L 208.427482 74.03149 
L 208.445236 74.305985 
L 208.587273 88.327155 
L 209.208682 171.363365 
L 209.368473 242.525067 
L 209.634791 350.65113 
L 209.830091 355.478488 
L 210.131918 357.554326 
L 210.487009 358.715221 
L 210.735573 358.948374 
L 210.930873 358.856123 
L 211.197191 358.421851 
L 211.605545 357.245284 
L 212.244709 354.610685 
L 213.398755 348.725645 
L 215.547055 337.851625 
L 219.470809 320.700495 
L 221.175245 314.39443 
L 222.826418 309.119367 
L 224.442082 304.685244 
L 226.057745 300.887412 
L 227.691164 297.607306 
L 229.360091 294.748416 
L 231.100036 292.207138 
L 232.946509 289.905576 
L 234.952773 287.763108 
L 237.243109 285.649996 
L 240.208118 283.238048 
L 244.664509 279.624761 
L 246.067118 278.17712 
L 247.043618 276.860685 
L 247.771555 275.507907 
L 248.321945 274.010424 
L 248.748055 272.170456 
L 249.067636 269.698859 
L 249.280691 266.248702 
L 249.422727 259.932775 
L 249.493745 247.280468 
L 249.547009 163.225277 
L 249.653536 74.441833 
L 249.689045 75.327005 
L 249.919855 101.05576 
L 250.523509 201.081348 
L 250.949618 353.59793 
L 251.180427 356.367146 
L 251.553273 358.158863 
L 251.8551 358.751505 
L 252.068155 358.783725 
L 252.281209 358.55954 
L 252.600791 357.852258 
L 253.097918 356.132935 
L 253.896873 352.458644 
L 257.891645 332.942678 
L 260.306264 322.345591 
L 262.046209 315.735349 
L 263.697382 310.312288 
L 265.313045 305.748424 
L 266.928709 301.838592 
L 268.544373 298.497822 
L 270.195545 295.585405 
L 271.899982 293.024047 
L 273.693191 290.727782 
L 275.628436 288.612939 
L 277.776736 286.600617 
L 280.297882 284.553757 
L 284.257145 281.673025 
L 287.026855 279.537938 
L 288.482727 278.141671 
L 289.494736 276.868765 
L 290.240427 275.575211 
L 290.808573 274.137855 
L 291.234682 272.456692 
L 291.554264 270.306901 
L 291.785073 267.271898 
L 291.944864 262.02252 
L 292.033636 251.294014 
L 292.0869 202.850191 
L 292.211182 74.474384 
L 292.228936 74.77794 
L 292.370973 88.645799 
L 292.974627 167.319711 
L 293.134418 232.687712 
L 293.418491 350.617511 
L 293.613791 355.27934 
L 293.933373 357.389152 
L 294.288464 358.494844 
L 294.537027 358.69904 
L 294.732327 358.589491 
L 294.998645 358.138704 
L 295.407 356.949426 
L 296.046164 354.316081 
L 297.235718 348.284434 
L 299.295245 337.970377 
L 303.254509 320.773829 
L 304.958945 314.522558 
L 306.592364 309.348796 
L 308.208027 304.952043 
L 309.823691 301.190114 
L 311.439355 297.978597 
L 313.090527 295.180615 
L 314.812718 292.697393 
L 316.623682 290.476739 
L 318.558927 288.454373 
L 320.707227 286.532914 
L 323.210618 284.598883 
L 326.761527 282.166773 
L 330.401209 279.61225 
L 331.963609 278.241771 
L 333.028882 277.021572 
L 333.810082 275.79896 
L 334.413736 274.438473 
L 334.875355 272.835617 
L 335.230445 270.747181 
L 335.479009 267.936067 
L 335.656555 263.102558 
L 335.763082 252.107668 
L 335.816345 210.669637 
L 335.940627 74.681595 
L 335.958382 74.792117 
L 336.082664 86.261848 
L 336.704073 165.317896 
L 336.863864 227.839121 
L 337.165691 351.19383 
L 337.378745 355.659296 
L 337.716082 357.71952 
L 338.053418 358.682359 
L 338.284227 358.846068 
L 338.479527 358.728003 
L 338.7636 358.226818 
L 339.189709 356.942166 
L 339.864382 354.09396 
L 341.178218 347.353814 
L 343.042445 338.074809 
L 346.912936 321.277013 
L 348.635127 314.927673 
L 350.2863 309.673709 
L 351.901964 305.258857 
L 353.517627 301.481452 
L 355.133291 298.257944 
L 356.784464 295.451871 
L 358.4889 292.988738 
L 360.282109 290.786645 
L 362.1996 288.784593 
L 364.312391 286.904542 
L 364.827273 286.487948 
L 365.040327 296.582936 
L 365.430927 304.401031 
L 365.963564 310.644301 
L 366.6915 316.530117 
L 367.596982 322.050872 
L 368.662255 327.179126 
L 369.851809 331.820073 
L 371.147891 335.990765 
L 372.5505 339.759636 
L 374.041882 343.140509 
L 375.657545 346.254599 
L 377.379736 349.09331 
L 379.226209 351.709141 
L 381.196964 354.116221 
L 383.292 356.326468 
L 385.529073 358.364235 
L 387.908182 360.22992 
L 390.429327 361.922894 
L 393.092509 363.441518 
L 395.897727 364.783524 
L 398.844982 365.946707 
L 401.969782 366.939888 
L 405.289882 367.760683 
L 408.8763 368.41526 
L 412.800055 368.900974 
L 417.203182 369.216326 
L 422.352 369.354745 
L 428.903427 369.295745 
L 435.845455 369.083309 
L 435.845455 369.083309 
" style="fill:none;stroke:#ff0000;stroke-linecap:square;stroke-width:1.5;"/>
   </g>
   <g id="patch_3">
    <path d="M 63 384.48 
L 63 51.84 
" style="fill:none;stroke:#000000;stroke-linecap:square;stroke-linejoin:miter;stroke-width:0.8;"/>
   </g>
   <g id="patch_4">
    <path d="M 453.6 384.48 
L 453.6 51.84 
" style="fill:none;stroke:#000000;stroke-linecap:square;stroke-linejoin:miter;stroke-width:0.8;"/>
   </g>
   <g id="patch_5">
    <path d="M 63 384.48 
L 453.6 384.48 
" style="fill:none;stroke:#000000;stroke-linecap:square;stroke-linejoin:miter;stroke-width:0.8;"/>
   </g>
   <g id="patch_6">
    <path d="M 63 51.84 
L 453.6 51.84 
" style="fill:none;stroke:#000000;stroke-linecap:square;stroke-linejoin:miter;stroke-width:0.8;"/>
   </g>
   <g id="legend_1">
    <g id="patch_7">
     <path d="M 383.460938 89.19625 
L 446.6 89.19625 
Q 448.6 89.19625 448.6 87.19625 
L 448.6 58.84 
Q 448.6 56.84 446.6 56.84 
L 383.460938 56.84 
Q 381.460938 56.84 381.460938 58.84 
L 381.460938 87.19625 
Q 381.460938 89.19625 383.460938 89.19625 
z
" style="fill:#ffffff;opacity:0.8;stroke:#cccccc;stroke-linejoin:miter;"/>
    </g>
    <g id="line2d_13">
     <path d="M 385.460938 64.938437 
L 405.460938 64.938437 
" style="fill:none;stroke:#1f77b4;stroke-linecap:square;stroke-width:1.5;"/>
    </g>
    <g id="line2d_14"/>
    <g id="text_13">
     <!-- target -->
     <defs>
      <path d="M 41.109375 46.296875 
Q 39.59375 47.171875 37.8125 47.578125 
Q 36.03125 48 33.890625 48 
Q 26.265625 48 22.1875 43.046875 
Q 18.109375 38.09375 18.109375 28.8125 
L 18.109375 0 
L 9.078125 0 
L 9.078125 54.6875 
L 18.109375 54.6875 
L 18.109375 46.1875 
Q 20.953125 51.171875 25.484375 53.578125 
Q 30.03125 56 36.53125 56 
Q 37.453125 56 38.578125 55.875 
Q 39.703125 55.765625 41.0625 55.515625 
z
" id="DejaVuSans-114"/>
     </defs>
     <g transform="translate(413.460938 68.438437)scale(0.1 -0.1)">
      <use xlink:href="#DejaVuSans-116"/>
      <use x="39.208984" xlink:href="#DejaVuSans-97"/>
      <use x="100.488281" xlink:href="#DejaVuSans-114"/>
      <use x="141.585938" xlink:href="#DejaVuSans-103"/>
      <use x="205.0625" xlink:href="#DejaVuSans-101"/>
      <use x="266.585938" xlink:href="#DejaVuSans-116"/>
     </g>
    </g>
    <g id="line2d_15">
     <path d="M 385.460938 79.616562 
L 405.460938 79.616562 
" style="fill:none;stroke:#ff0000;stroke-linecap:square;stroke-width:1.5;"/>
    </g>
    <g id="line2d_16"/>
    <g id="text_14">
     <!-- model -->
     <defs>
      <path d="M 45.40625 46.390625 
L 45.40625 75.984375 
L 54.390625 75.984375 
L 54.390625 0 
L 45.40625 0 
L 45.40625 8.203125 
Q 42.578125 3.328125 38.25 0.953125 
Q 33.9375 -1.421875 27.875 -1.421875 
Q 17.96875 -1.421875 11.734375 6.484375 
Q 5.515625 14.40625 5.515625 27.296875 
Q 5.515625 40.1875 11.734375 48.09375 
Q 17.96875 56 27.875 56 
Q 33.9375 56 38.25 53.625 
Q 42.578125 51.265625 45.40625 46.390625 
z
M 14.796875 27.296875 
Q 14.796875 17.390625 18.875 11.75 
Q 22.953125 6.109375 30.078125 6.109375 
Q 37.203125 6.109375 41.296875 11.75 
Q 45.40625 17.390625 45.40625 27.296875 
Q 45.40625 37.203125 41.296875 42.84375 
Q 37.203125 48.484375 30.078125 48.484375 
Q 22.953125 48.484375 18.875 42.84375 
Q 14.796875 37.203125 14.796875 27.296875 
z
" id="DejaVuSans-100"/>
     </defs>
     <g transform="translate(413.460938 83.116562)scale(0.1 -0.1)">
      <use xlink:href="#DejaVuSans-109"/>
      <use x="97.412109" xlink:href="#DejaVuSans-111"/>
      <use x="158.59375" xlink:href="#DejaVuSans-100"/>
      <use x="222.070312" xlink:href="#DejaVuSans-101"/>
      <use x="283.59375" xlink:href="#DejaVuSans-108"/>
     </g>
    </g>
   </g>
  </g>
 </g>
 <defs>
  <clipPath id="p034d28181f">
   <rect height="332.64" width="390.6" x="63" y="51.84"/>
  </clipPath>
 </defs>
</svg>
