<?xml version="1.0" encoding="utf-8" standalone="no"?>
<!DOCTYPE svg PUBLIC "-//W3C//DTD SVG 1.1//EN"
  "http://www.w3.org/Graphics/SVG/1.1/DTD/svg11.dtd">
<!-- Created with matplotlib (https://matplotlib.org/) -->
<svg height="432pt" version="1.1" viewBox="0 0 504 432" width="504pt" xmlns="http://www.w3.org/2000/svg" xmlns:xlink="http://www.w3.org/1999/xlink">
 <defs>
  <style type="text/css">
*{stroke-linecap:butt;stroke-linejoin:round;}
  </style>
 </defs>
 <g id="figure_1">
  <g id="patch_1">
   <path d="M 0 432 
L 504 432 
L 504 0 
L 0 0 
z
" style="fill:#ffffff;"/>
  </g>
  <g id="axes_1">
   <g id="patch_2">
    <path d="M 63 384.48 
L 453.6 384.48 
L 453.6 51.84 
L 63 51.84 
z
" style="fill:#ffffff;"/>
   </g>
   <g id="matplotlib.axis_1">
    <g id="xtick_1">
     <g id="line2d_1">
      <defs>
       <path d="M 0 0 
L 0 3.5 
" id="m8091441f88" style="stroke:#000000;stroke-width:0.8;"/>
      </defs>
      <g>
       <use style="stroke:#000000;stroke-width:0.8;" x="80.754545" xlink:href="#m8091441f88" y="384.48"/>
      </g>
     </g>
     <g id="text_1">
      <!-- 0 -->
      <defs>
       <path d="M 31.78125 66.40625 
Q 24.171875 66.40625 20.328125 58.90625 
Q 16.5 51.421875 16.5 36.375 
Q 16.5 21.390625 20.328125 13.890625 
Q 24.171875 6.390625 31.78125 6.390625 
Q 39.453125 6.390625 43.28125 13.890625 
Q 47.125 21.390625 47.125 36.375 
Q 47.125 51.421875 43.28125 58.90625 
Q 39.453125 66.40625 31.78125 66.40625 
z
M 31.78125 74.21875 
Q 44.046875 74.21875 50.515625 64.515625 
Q 56.984375 54.828125 56.984375 36.375 
Q 56.984375 17.96875 50.515625 8.265625 
Q 44.046875 -1.421875 31.78125 -1.421875 
Q 19.53125 -1.421875 13.0625 8.265625 
Q 6.59375 17.96875 6.59375 36.375 
Q 6.59375 54.828125 13.0625 64.515625 
Q 19.53125 74.21875 31.78125 74.21875 
z
" id="DejaVuSans-48"/>
      </defs>
      <g transform="translate(77.573295 399.078438)scale(0.1 -0.1)">
       <use xlink:href="#DejaVuSans-48"/>
      </g>
     </g>
    </g>
    <g id="xtick_2">
     <g id="line2d_2">
      <g>
       <use style="stroke:#000000;stroke-width:0.8;" x="151.763044" xlink:href="#m8091441f88" y="384.48"/>
      </g>
     </g>
     <g id="text_2">
      <!-- 880 -->
      <defs>
       <path d="M 31.78125 34.625 
Q 24.75 34.625 20.71875 30.859375 
Q 16.703125 27.09375 16.703125 20.515625 
Q 16.703125 13.921875 20.71875 10.15625 
Q 24.75 6.390625 31.78125 6.390625 
Q 38.8125 6.390625 42.859375 10.171875 
Q 46.921875 13.96875 46.921875 20.515625 
Q 46.921875 27.09375 42.890625 30.859375 
Q 38.875 34.625 31.78125 34.625 
z
M 21.921875 38.8125 
Q 15.578125 40.375 12.03125 44.71875 
Q 8.5 49.078125 8.5 55.328125 
Q 8.5 64.0625 14.71875 69.140625 
Q 20.953125 74.21875 31.78125 74.21875 
Q 42.671875 74.21875 48.875 69.140625 
Q 55.078125 64.0625 55.078125 55.328125 
Q 55.078125 49.078125 51.53125 44.71875 
Q 48 40.375 41.703125 38.8125 
Q 48.828125 37.15625 52.796875 32.3125 
Q 56.78125 27.484375 56.78125 20.515625 
Q 56.78125 9.90625 50.3125 4.234375 
Q 43.84375 -1.421875 31.78125 -1.421875 
Q 19.734375 -1.421875 13.25 4.234375 
Q 6.78125 9.90625 6.78125 20.515625 
Q 6.78125 27.484375 10.78125 32.3125 
Q 14.796875 37.15625 21.921875 38.8125 
z
M 18.3125 54.390625 
Q 18.3125 48.734375 21.84375 45.5625 
Q 25.390625 42.390625 31.78125 42.390625 
Q 38.140625 42.390625 41.71875 45.5625 
Q 45.3125 48.734375 45.3125 54.390625 
Q 45.3125 60.0625 41.71875 63.234375 
Q 38.140625 66.40625 31.78125 66.40625 
Q 25.390625 66.40625 21.84375 63.234375 
Q 18.3125 60.0625 18.3125 54.390625 
z
" id="DejaVuSans-56"/>
      </defs>
      <g transform="translate(142.219294 399.078438)scale(0.1 -0.1)">
       <use xlink:href="#DejaVuSans-56"/>
       <use x="63.623047" xlink:href="#DejaVuSans-56"/>
       <use x="127.246094" xlink:href="#DejaVuSans-48"/>
      </g>
     </g>
    </g>
    <g id="xtick_3">
     <g id="line2d_3">
      <g>
       <use style="stroke:#000000;stroke-width:0.8;" x="222.771543" xlink:href="#m8091441f88" y="384.48"/>
      </g>
     </g>
     <g id="text_3">
      <!-- 1760 -->
      <defs>
       <path d="M 12.40625 8.296875 
L 28.515625 8.296875 
L 28.515625 63.921875 
L 10.984375 60.40625 
L 10.984375 69.390625 
L 28.421875 72.90625 
L 38.28125 72.90625 
L 38.28125 8.296875 
L 54.390625 8.296875 
L 54.390625 0 
L 12.40625 0 
z
" id="DejaVuSans-49"/>
       <path d="M 8.203125 72.90625 
L 55.078125 72.90625 
L 55.078125 68.703125 
L 28.609375 0 
L 18.3125 0 
L 43.21875 64.59375 
L 8.203125 64.59375 
z
" id="DejaVuSans-55"/>
       <path d="M 33.015625 40.375 
Q 26.375 40.375 22.484375 35.828125 
Q 18.609375 31.296875 18.609375 23.390625 
Q 18.609375 15.53125 22.484375 10.953125 
Q 26.375 6.390625 33.015625 6.390625 
Q 39.65625 6.390625 43.53125 10.953125 
Q 47.40625 15.53125 47.40625 23.390625 
Q 47.40625 31.296875 43.53125 35.828125 
Q 39.65625 40.375 33.015625 40.375 
z
M 52.59375 71.296875 
L 52.59375 62.3125 
Q 48.875 64.0625 45.09375 64.984375 
Q 41.3125 65.921875 37.59375 65.921875 
Q 27.828125 65.921875 22.671875 59.328125 
Q 17.53125 52.734375 16.796875 39.40625 
Q 19.671875 43.65625 24.015625 45.921875 
Q 28.375 48.1875 33.59375 48.1875 
Q 44.578125 48.1875 50.953125 41.515625 
Q 57.328125 34.859375 57.328125 23.390625 
Q 57.328125 12.15625 50.6875 5.359375 
Q 44.046875 -1.421875 33.015625 -1.421875 
Q 20.359375 -1.421875 13.671875 8.265625 
Q 6.984375 17.96875 6.984375 36.375 
Q 6.984375 53.65625 15.1875 63.9375 
Q 23.390625 74.21875 37.203125 74.21875 
Q 40.921875 74.21875 44.703125 73.484375 
Q 48.484375 72.75 52.59375 71.296875 
z
" id="DejaVuSans-54"/>
      </defs>
      <g transform="translate(210.046543 399.078438)scale(0.1 -0.1)">
       <use xlink:href="#DejaVuSans-49"/>
       <use x="63.623047" xlink:href="#DejaVuSans-55"/>
       <use x="127.246094" xlink:href="#DejaVuSans-54"/>
       <use x="190.869141" xlink:href="#DejaVuSans-48"/>
      </g>
     </g>
    </g>
    <g id="xtick_4">
     <g id="line2d_4">
      <g>
       <use style="stroke:#000000;stroke-width:0.8;" x="293.780042" xlink:href="#m8091441f88" y="384.48"/>
      </g>
     </g>
     <g id="text_4">
      <!-- 2640 -->
      <defs>
       <path d="M 19.1875 8.296875 
L 53.609375 8.296875 
L 53.609375 0 
L 7.328125 0 
L 7.328125 8.296875 
Q 12.9375 14.109375 22.625 23.890625 
Q 32.328125 33.6875 34.8125 36.53125 
Q 39.546875 41.84375 41.421875 45.53125 
Q 43.3125 49.21875 43.3125 52.78125 
Q 43.3125 58.59375 39.234375 62.25 
Q 35.15625 65.921875 28.609375 65.921875 
Q 23.96875 65.921875 18.8125 64.3125 
Q 13.671875 62.703125 7.8125 59.421875 
L 7.8125 69.390625 
Q 13.765625 71.78125 18.9375 73 
Q 24.125 74.21875 28.421875 74.21875 
Q 39.75 74.21875 46.484375 68.546875 
Q 53.21875 62.890625 53.21875 53.421875 
Q 53.21875 48.921875 51.53125 44.890625 
Q 49.859375 40.875 45.40625 35.40625 
Q 44.1875 33.984375 37.640625 27.21875 
Q 31.109375 20.453125 19.1875 8.296875 
z
" id="DejaVuSans-50"/>
       <path d="M 37.796875 64.3125 
L 12.890625 25.390625 
L 37.796875 25.390625 
z
M 35.203125 72.90625 
L 47.609375 72.90625 
L 47.609375 25.390625 
L 58.015625 25.390625 
L 58.015625 17.1875 
L 47.609375 17.1875 
L 47.609375 0 
L 37.796875 0 
L 37.796875 17.1875 
L 4.890625 17.1875 
L 4.890625 26.703125 
z
" id="DejaVuSans-52"/>
      </defs>
      <g transform="translate(281.055042 399.078438)scale(0.1 -0.1)">
       <use xlink:href="#DejaVuSans-50"/>
       <use x="63.623047" xlink:href="#DejaVuSans-54"/>
       <use x="127.246094" xlink:href="#DejaVuSans-52"/>
       <use x="190.869141" xlink:href="#DejaVuSans-48"/>
      </g>
     </g>
    </g>
    <g id="xtick_5">
     <g id="line2d_5">
      <g>
       <use style="stroke:#000000;stroke-width:0.8;" x="364.788541" xlink:href="#m8091441f88" y="384.48"/>
      </g>
     </g>
     <g id="text_5">
      <!-- 3520 -->
      <defs>
       <path d="M 40.578125 39.3125 
Q 47.65625 37.796875 51.625 33 
Q 55.609375 28.21875 55.609375 21.1875 
Q 55.609375 10.40625 48.1875 4.484375 
Q 40.765625 -1.421875 27.09375 -1.421875 
Q 22.515625 -1.421875 17.65625 -0.515625 
Q 12.796875 0.390625 7.625 2.203125 
L 7.625 11.71875 
Q 11.71875 9.328125 16.59375 8.109375 
Q 21.484375 6.890625 26.8125 6.890625 
Q 36.078125 6.890625 40.9375 10.546875 
Q 45.796875 14.203125 45.796875 21.1875 
Q 45.796875 27.640625 41.28125 31.265625 
Q 36.765625 34.90625 28.71875 34.90625 
L 20.21875 34.90625 
L 20.21875 43.015625 
L 29.109375 43.015625 
Q 36.375 43.015625 40.234375 45.921875 
Q 44.09375 48.828125 44.09375 54.296875 
Q 44.09375 59.90625 40.109375 62.90625 
Q 36.140625 65.921875 28.71875 65.921875 
Q 24.65625 65.921875 20.015625 65.03125 
Q 15.375 64.15625 9.8125 62.3125 
L 9.8125 71.09375 
Q 15.4375 72.65625 20.34375 73.4375 
Q 25.25 74.21875 29.59375 74.21875 
Q 40.828125 74.21875 47.359375 69.109375 
Q 53.90625 64.015625 53.90625 55.328125 
Q 53.90625 49.265625 50.4375 45.09375 
Q 46.96875 40.921875 40.578125 39.3125 
z
" id="DejaVuSans-51"/>
       <path d="M 10.796875 72.90625 
L 49.515625 72.90625 
L 49.515625 64.59375 
L 19.828125 64.59375 
L 19.828125 46.734375 
Q 21.96875 47.46875 24.109375 47.828125 
Q 26.265625 48.1875 28.421875 48.1875 
Q 40.625 48.1875 47.75 41.5 
Q 54.890625 34.8125 54.890625 23.390625 
Q 54.890625 11.625 47.5625 5.09375 
Q 40.234375 -1.421875 26.90625 -1.421875 
Q 22.3125 -1.421875 17.546875 -0.640625 
Q 12.796875 0.140625 7.71875 1.703125 
L 7.71875 11.625 
Q 12.109375 9.234375 16.796875 8.0625 
Q 21.484375 6.890625 26.703125 6.890625 
Q 35.15625 6.890625 40.078125 11.328125 
Q 45.015625 15.765625 45.015625 23.390625 
Q 45.015625 31 40.078125 35.4375 
Q 35.15625 39.890625 26.703125 39.890625 
Q 22.75 39.890625 18.8125 39.015625 
Q 14.890625 38.140625 10.796875 36.28125 
z
" id="DejaVuSans-53"/>
      </defs>
      <g transform="translate(352.063541 399.078438)scale(0.1 -0.1)">
       <use xlink:href="#DejaVuSans-51"/>
       <use x="63.623047" xlink:href="#DejaVuSans-53"/>
       <use x="127.246094" xlink:href="#DejaVuSans-50"/>
       <use x="190.869141" xlink:href="#DejaVuSans-48"/>
      </g>
     </g>
    </g>
    <g id="text_6">
     <!-- time [ms] -->
     <defs>
      <path d="M 18.3125 70.21875 
L 18.3125 54.6875 
L 36.8125 54.6875 
L 36.8125 47.703125 
L 18.3125 47.703125 
L 18.3125 18.015625 
Q 18.3125 11.328125 20.140625 9.421875 
Q 21.96875 7.515625 27.59375 7.515625 
L 36.8125 7.515625 
L 36.8125 0 
L 27.59375 0 
Q 17.1875 0 13.234375 3.875 
Q 9.28125 7.765625 9.28125 18.015625 
L 9.28125 47.703125 
L 2.6875 47.703125 
L 2.6875 54.6875 
L 9.28125 54.6875 
L 9.28125 70.21875 
z
" id="DejaVuSans-116"/>
      <path d="M 9.421875 54.6875 
L 18.40625 54.6875 
L 18.40625 0 
L 9.421875 0 
z
M 9.421875 75.984375 
L 18.40625 75.984375 
L 18.40625 64.59375 
L 9.421875 64.59375 
z
" id="DejaVuSans-105"/>
      <path d="M 52 44.1875 
Q 55.375 50.25 60.0625 53.125 
Q 64.75 56 71.09375 56 
Q 79.640625 56 84.28125 50.015625 
Q 88.921875 44.046875 88.921875 33.015625 
L 88.921875 0 
L 79.890625 0 
L 79.890625 32.71875 
Q 79.890625 40.578125 77.09375 44.375 
Q 74.3125 48.1875 68.609375 48.1875 
Q 61.625 48.1875 57.5625 43.546875 
Q 53.515625 38.921875 53.515625 30.90625 
L 53.515625 0 
L 44.484375 0 
L 44.484375 32.71875 
Q 44.484375 40.625 41.703125 44.40625 
Q 38.921875 48.1875 33.109375 48.1875 
Q 26.21875 48.1875 22.15625 43.53125 
Q 18.109375 38.875 18.109375 30.90625 
L 18.109375 0 
L 9.078125 0 
L 9.078125 54.6875 
L 18.109375 54.6875 
L 18.109375 46.1875 
Q 21.1875 51.21875 25.484375 53.609375 
Q 29.78125 56 35.6875 56 
Q 41.65625 56 45.828125 52.96875 
Q 50 49.953125 52 44.1875 
z
" id="DejaVuSans-109"/>
      <path d="M 56.203125 29.59375 
L 56.203125 25.203125 
L 14.890625 25.203125 
Q 15.484375 15.921875 20.484375 11.0625 
Q 25.484375 6.203125 34.421875 6.203125 
Q 39.59375 6.203125 44.453125 7.46875 
Q 49.3125 8.734375 54.109375 11.28125 
L 54.109375 2.78125 
Q 49.265625 0.734375 44.1875 -0.34375 
Q 39.109375 -1.421875 33.890625 -1.421875 
Q 20.796875 -1.421875 13.15625 6.1875 
Q 5.515625 13.8125 5.515625 26.8125 
Q 5.515625 40.234375 12.765625 48.109375 
Q 20.015625 56 32.328125 56 
Q 43.359375 56 49.78125 48.890625 
Q 56.203125 41.796875 56.203125 29.59375 
z
M 47.21875 32.234375 
Q 47.125 39.59375 43.09375 43.984375 
Q 39.0625 48.390625 32.421875 48.390625 
Q 24.90625 48.390625 20.390625 44.140625 
Q 15.875 39.890625 15.1875 32.171875 
z
" id="DejaVuSans-101"/>
      <path id="DejaVuSans-32"/>
      <path d="M 8.59375 75.984375 
L 29.296875 75.984375 
L 29.296875 69 
L 17.578125 69 
L 17.578125 -6.203125 
L 29.296875 -6.203125 
L 29.296875 -13.1875 
L 8.59375 -13.1875 
z
" id="DejaVuSans-91"/>
      <path d="M 44.28125 53.078125 
L 44.28125 44.578125 
Q 40.484375 46.53125 36.375 47.5 
Q 32.28125 48.484375 27.875 48.484375 
Q 21.1875 48.484375 17.84375 46.4375 
Q 14.5 44.390625 14.5 40.28125 
Q 14.5 37.15625 16.890625 35.375 
Q 19.28125 33.59375 26.515625 31.984375 
L 29.59375 31.296875 
Q 39.15625 29.25 43.1875 25.515625 
Q 47.21875 21.78125 47.21875 15.09375 
Q 47.21875 7.46875 41.1875 3.015625 
Q 35.15625 -1.421875 24.609375 -1.421875 
Q 20.21875 -1.421875 15.453125 -0.5625 
Q 10.6875 0.296875 5.421875 2 
L 5.421875 11.28125 
Q 10.40625 8.6875 15.234375 7.390625 
Q 20.0625 6.109375 24.8125 6.109375 
Q 31.15625 6.109375 34.5625 8.28125 
Q 37.984375 10.453125 37.984375 14.40625 
Q 37.984375 18.0625 35.515625 20.015625 
Q 33.0625 21.96875 24.703125 23.78125 
L 21.578125 24.515625 
Q 13.234375 26.265625 9.515625 29.90625 
Q 5.8125 33.546875 5.8125 39.890625 
Q 5.8125 47.609375 11.28125 51.796875 
Q 16.75 56 26.8125 56 
Q 31.78125 56 36.171875 55.265625 
Q 40.578125 54.546875 44.28125 53.078125 
z
" id="DejaVuSans-115"/>
      <path d="M 30.421875 75.984375 
L 30.421875 -13.1875 
L 9.71875 -13.1875 
L 9.71875 -6.203125 
L 21.390625 -6.203125 
L 21.390625 69 
L 9.71875 69 
L 9.71875 75.984375 
z
" id="DejaVuSans-93"/>
     </defs>
     <g transform="translate(234.038281 412.756563)scale(0.1 -0.1)">
      <use xlink:href="#DejaVuSans-116"/>
      <use x="39.208984" xlink:href="#DejaVuSans-105"/>
      <use x="66.992188" xlink:href="#DejaVuSans-109"/>
      <use x="164.404297" xlink:href="#DejaVuSans-101"/>
      <use x="225.927734" xlink:href="#DejaVuSans-32"/>
      <use x="257.714844" xlink:href="#DejaVuSans-91"/>
      <use x="296.728516" xlink:href="#DejaVuSans-109"/>
      <use x="394.140625" xlink:href="#DejaVuSans-115"/>
      <use x="446.240234" xlink:href="#DejaVuSans-93"/>
     </g>
    </g>
   </g>
   <g id="matplotlib.axis_2">
    <g id="ytick_1">
     <g id="line2d_6">
      <defs>
       <path d="M 0 0 
L -3.5 0 
" id="m41e49f9da0" style="stroke:#000000;stroke-width:0.8;"/>
      </defs>
      <g>
       <use style="stroke:#000000;stroke-width:0.8;" x="63" xlink:href="#m41e49f9da0" y="370.436516"/>
      </g>
     </g>
     <g id="text_7">
      <!-- −125 -->
      <defs>
       <path d="M 10.59375 35.5 
L 73.1875 35.5 
L 73.1875 27.203125 
L 10.59375 27.203125 
z
" id="DejaVuSans-8722"/>
      </defs>
      <g transform="translate(28.532812 374.235735)scale(0.1 -0.1)">
       <use xlink:href="#DejaVuSans-8722"/>
       <use x="83.789062" xlink:href="#DejaVuSans-49"/>
       <use x="147.412109" xlink:href="#DejaVuSans-50"/>
       <use x="211.035156" xlink:href="#DejaVuSans-53"/>
      </g>
     </g>
    </g>
    <g id="ytick_2">
     <g id="line2d_7">
      <g>
       <use style="stroke:#000000;stroke-width:0.8;" x="63" xlink:href="#m41e49f9da0" y="328.385102"/>
      </g>
     </g>
     <g id="text_8">
      <!-- −100 -->
      <g transform="translate(28.532812 332.184321)scale(0.1 -0.1)">
       <use xlink:href="#DejaVuSans-8722"/>
       <use x="83.789062" xlink:href="#DejaVuSans-49"/>
       <use x="147.412109" xlink:href="#DejaVuSans-48"/>
       <use x="211.035156" xlink:href="#DejaVuSans-48"/>
      </g>
     </g>
    </g>
    <g id="ytick_3">
     <g id="line2d_8">
      <g>
       <use style="stroke:#000000;stroke-width:0.8;" x="63" xlink:href="#m41e49f9da0" y="286.333687"/>
      </g>
     </g>
     <g id="text_9">
      <!-- −75 -->
      <g transform="translate(34.895313 290.132906)scale(0.1 -0.1)">
       <use xlink:href="#DejaVuSans-8722"/>
       <use x="83.789062" xlink:href="#DejaVuSans-55"/>
       <use x="147.412109" xlink:href="#DejaVuSans-53"/>
      </g>
     </g>
    </g>
    <g id="ytick_4">
     <g id="line2d_9">
      <g>
       <use style="stroke:#000000;stroke-width:0.8;" x="63" xlink:href="#m41e49f9da0" y="244.282273"/>
      </g>
     </g>
     <g id="text_10">
      <!-- −50 -->
      <g transform="translate(34.895313 248.081492)scale(0.1 -0.1)">
       <use xlink:href="#DejaVuSans-8722"/>
       <use x="83.789062" xlink:href="#DejaVuSans-53"/>
       <use x="147.412109" xlink:href="#DejaVuSans-48"/>
      </g>
     </g>
    </g>
    <g id="ytick_5">
     <g id="line2d_10">
      <g>
       <use style="stroke:#000000;stroke-width:0.8;" x="63" xlink:href="#m41e49f9da0" y="202.230859"/>
      </g>
     </g>
     <g id="text_11">
      <!-- −25 -->
      <g transform="translate(34.895313 206.030077)scale(0.1 -0.1)">
       <use xlink:href="#DejaVuSans-8722"/>
       <use x="83.789062" xlink:href="#DejaVuSans-50"/>
       <use x="147.412109" xlink:href="#DejaVuSans-53"/>
      </g>
     </g>
    </g>
    <g id="ytick_6">
     <g id="line2d_11">
      <g>
       <use style="stroke:#000000;stroke-width:0.8;" x="63" xlink:href="#m41e49f9da0" y="160.179444"/>
      </g>
     </g>
     <g id="text_12">
      <!-- 0 -->
      <g transform="translate(49.6375 163.978663)scale(0.1 -0.1)">
       <use xlink:href="#DejaVuSans-48"/>
      </g>
     </g>
    </g>
    <g id="ytick_7">
     <g id="line2d_12">
      <g>
       <use style="stroke:#000000;stroke-width:0.8;" x="63" xlink:href="#m41e49f9da0" y="118.12803"/>
      </g>
     </g>
     <g id="text_13">
      <!-- 25 -->
      <g transform="translate(43.275 121.927248)scale(0.1 -0.1)">
       <use xlink:href="#DejaVuSans-50"/>
       <use x="63.623047" xlink:href="#DejaVuSans-53"/>
      </g>
     </g>
    </g>
    <g id="ytick_8">
     <g id="line2d_13">
      <g>
       <use style="stroke:#000000;stroke-width:0.8;" x="63" xlink:href="#m41e49f9da0" y="76.076615"/>
      </g>
     </g>
     <g id="text_14">
      <!-- 50 -->
      <g transform="translate(43.275 79.875834)scale(0.1 -0.1)">
       <use xlink:href="#DejaVuSans-53"/>
       <use x="63.623047" xlink:href="#DejaVuSans-48"/>
      </g>
     </g>
    </g>
    <g id="text_15">
     <!-- voltage [mV] -->
     <defs>
      <path d="M 2.984375 54.6875 
L 12.5 54.6875 
L 29.59375 8.796875 
L 46.6875 54.6875 
L 56.203125 54.6875 
L 35.6875 0 
L 23.484375 0 
z
" id="DejaVuSans-118"/>
      <path d="M 30.609375 48.390625 
Q 23.390625 48.390625 19.1875 42.75 
Q 14.984375 37.109375 14.984375 27.296875 
Q 14.984375 17.484375 19.15625 11.84375 
Q 23.34375 6.203125 30.609375 6.203125 
Q 37.796875 6.203125 41.984375 11.859375 
Q 46.1875 17.53125 46.1875 27.296875 
Q 46.1875 37.015625 41.984375 42.703125 
Q 37.796875 48.390625 30.609375 48.390625 
z
M 30.609375 56 
Q 42.328125 56 49.015625 48.375 
Q 55.71875 40.765625 55.71875 27.296875 
Q 55.71875 13.875 49.015625 6.21875 
Q 42.328125 -1.421875 30.609375 -1.421875 
Q 18.84375 -1.421875 12.171875 6.21875 
Q 5.515625 13.875 5.515625 27.296875 
Q 5.515625 40.765625 12.171875 48.375 
Q 18.84375 56 30.609375 56 
z
" id="DejaVuSans-111"/>
      <path d="M 9.421875 75.984375 
L 18.40625 75.984375 
L 18.40625 0 
L 9.421875 0 
z
" id="DejaVuSans-108"/>
      <path d="M 34.28125 27.484375 
Q 23.390625 27.484375 19.1875 25 
Q 14.984375 22.515625 14.984375 16.5 
Q 14.984375 11.71875 18.140625 8.90625 
Q 21.296875 6.109375 26.703125 6.109375 
Q 34.1875 6.109375 38.703125 11.40625 
Q 43.21875 16.703125 43.21875 25.484375 
L 43.21875 27.484375 
z
M 52.203125 31.203125 
L 52.203125 0 
L 43.21875 0 
L 43.21875 8.296875 
Q 40.140625 3.328125 35.546875 0.953125 
Q 30.953125 -1.421875 24.3125 -1.421875 
Q 15.921875 -1.421875 10.953125 3.296875 
Q 6 8.015625 6 15.921875 
Q 6 25.140625 12.171875 29.828125 
Q 18.359375 34.515625 30.609375 34.515625 
L 43.21875 34.515625 
L 43.21875 35.40625 
Q 43.21875 41.609375 39.140625 45 
Q 35.0625 48.390625 27.6875 48.390625 
Q 23 48.390625 18.546875 47.265625 
Q 14.109375 46.140625 10.015625 43.890625 
L 10.015625 52.203125 
Q 14.9375 54.109375 19.578125 55.046875 
Q 24.21875 56 28.609375 56 
Q 40.484375 56 46.34375 49.84375 
Q 52.203125 43.703125 52.203125 31.203125 
z
" id="DejaVuSans-97"/>
      <path d="M 45.40625 27.984375 
Q 45.40625 37.75 41.375 43.109375 
Q 37.359375 48.484375 30.078125 48.484375 
Q 22.859375 48.484375 18.828125 43.109375 
Q 14.796875 37.75 14.796875 27.984375 
Q 14.796875 18.265625 18.828125 12.890625 
Q 22.859375 7.515625 30.078125 7.515625 
Q 37.359375 7.515625 41.375 12.890625 
Q 45.40625 18.265625 45.40625 27.984375 
z
M 54.390625 6.78125 
Q 54.390625 -7.171875 48.1875 -13.984375 
Q 42 -20.796875 29.203125 -20.796875 
Q 24.46875 -20.796875 20.265625 -20.09375 
Q 16.0625 -19.390625 12.109375 -17.921875 
L 12.109375 -9.1875 
Q 16.0625 -11.328125 19.921875 -12.34375 
Q 23.78125 -13.375 27.78125 -13.375 
Q 36.625 -13.375 41.015625 -8.765625 
Q 45.40625 -4.15625 45.40625 5.171875 
L 45.40625 9.625 
Q 42.625 4.78125 38.28125 2.390625 
Q 33.9375 0 27.875 0 
Q 17.828125 0 11.671875 7.65625 
Q 5.515625 15.328125 5.515625 27.984375 
Q 5.515625 40.671875 11.671875 48.328125 
Q 17.828125 56 27.875 56 
Q 33.9375 56 38.28125 53.609375 
Q 42.625 51.21875 45.40625 46.390625 
L 45.40625 54.6875 
L 54.390625 54.6875 
z
" id="DejaVuSans-103"/>
      <path d="M 28.609375 0 
L 0.78125 72.90625 
L 11.078125 72.90625 
L 34.1875 11.53125 
L 57.328125 72.90625 
L 67.578125 72.90625 
L 39.796875 0 
z
" id="DejaVuSans-86"/>
     </defs>
     <g transform="translate(22.453125 250.624062)rotate(-90)scale(0.1 -0.1)">
      <use xlink:href="#DejaVuSans-118"/>
      <use x="59.179688" xlink:href="#DejaVuSans-111"/>
      <use x="120.361328" xlink:href="#DejaVuSans-108"/>
      <use x="148.144531" xlink:href="#DejaVuSans-116"/>
      <use x="187.353516" xlink:href="#DejaVuSans-97"/>
      <use x="248.632812" xlink:href="#DejaVuSans-103"/>
      <use x="312.109375" xlink:href="#DejaVuSans-101"/>
      <use x="373.632812" xlink:href="#DejaVuSans-32"/>
      <use x="405.419922" xlink:href="#DejaVuSans-91"/>
      <use x="444.433594" xlink:href="#DejaVuSans-109"/>
      <use x="541.845703" xlink:href="#DejaVuSans-86"/>
      <use x="610.253906" xlink:href="#DejaVuSans-93"/>
     </g>
    </g>
   </g>
   <g id="line2d_14">
    <path clip-path="url(#pcf2354a80a)" d="M 80.754545 258.573183 
L 83.385088 258.491052 
L 83.417364 258.40892 
L 83.465779 258.573183 
L 83.498056 258.491052 
L 83.514194 258.573183 
L 83.594885 258.491052 
L 83.723992 258.40892 
L 84.547045 258.491052 
L 84.676151 258.573183 
L 84.96664 258.491052 
L 85.095747 258.40892 
L 85.176438 258.491052 
L 85.208715 258.40892 
L 85.337821 258.491052 
L 85.35396 258.573183 
L 85.402374 258.40892 
L 85.434651 258.40892 
L 86.322257 258.491052 
L 86.451364 258.573183 
L 87.419661 258.655315 
L 87.532629 258.737447 
L 87.581044 258.655315 
L 87.645598 258.737447 
L 88.694587 258.819578 
L 88.807555 258.90171 
L 88.85597 258.819578 
L 89.049629 249.456568 
L 89.501501 240.66848 
L 90.356831 229.252178 
L 91.196022 221.778196 
L 91.470373 219.807036 
L 91.777001 217.753744 
L 92.551639 214.386345 
L 92.583916 214.304214 
L 92.793714 213.811424 
L 92.82599 213.729292 
L 93.11648 212.825844 
L 93.310139 212.743712 
L 93.503799 212.333054 
L 93.552214 212.250922 
L 93.745873 211.840264 
L 93.858841 211.758132 
L 94.020224 211.511737 
L 94.213884 211.429605 
L 94.391405 211.101079 
L 95.843851 211.018947 
L 95.989096 210.69042 
L 96.005234 210.772552 
L 96.118202 210.69042 
L 96.247309 210.608289 
L 96.553936 210.526157 
L 96.683043 210.444025 
L 96.892841 210.936815 
L 96.957394 211.018947 
L 97.167192 211.511737 
L 97.393128 211.429605 
L 97.425404 211.347474 
L 97.506096 211.429605 
L 97.845 211.347474 
L 97.990245 211.18321 
L 98.006383 211.265342 
L 98.03866 211.101079 
L 98.103213 211.18321 
L 98.264596 211.265342 
L 98.296872 211.347474 
L 98.361426 211.18321 
L 98.50667 211.265342 
L 98.538947 211.347474 
L 98.571223 211.18321 
L 98.619638 211.265342 
L 99.119925 211.18321 
L 99.26517 211.018947 
L 99.959117 210.936815 
L 100.055947 210.854684 
L 100.072085 210.936815 
L 100.1205 211.018947 
L 100.362574 212.415185 
L 100.604649 213.072239 
L 100.653063 213.15437 
L 100.733755 213.236502 
L 100.766031 213.15437 
L 100.943553 213.072239 
L 101.056521 212.825844 
L 101.088797 212.907975 
L 101.217904 212.825844 
L 101.395425 212.497317 
L 101.427702 212.579449 
L 101.508393 212.497317 
L 101.556808 212.415185 
L 101.702053 212.250922 
L 101.831159 212.16879 
L 101.960265 212.086659 
L 102.040957 212.16879 
L 102.073233 212.086659 
L 102.153925 212.004527 
L 102.331446 211.676 
L 102.347584 211.758132 
L 102.379861 211.593869 
L 102.428276 211.676 
L 102.589659 211.429605 
L 102.718765 211.511737 
L 102.993116 211.429605 
L 103.057669 211.18321 
L 103.122223 211.347474 
L 103.235191 211.429605 
L 103.251329 211.511737 
L 103.33202 211.347474 
L 103.348159 211.429605 
L 103.461127 211.265342 
L 103.477265 211.347474 
L 103.687063 211.265342 
L 103.816169 211.18321 
L 104.09052 211.101079 
L 104.18735 211.018947 
L 104.203488 211.101079 
L 104.38101 211.018947 
L 104.526254 210.69042 
L 104.542393 210.772552 
L 104.639222 210.69042 
L 104.687637 210.608289 
L 104.75219 210.69042 
L 104.897435 210.608289 
L 105.026541 210.526157 
L 105.236339 210.608289 
L 105.317031 210.69042 
L 105.349307 210.608289 
L 106.107807 210.526157 
L 106.123945 210.444025 
L 106.17236 210.608289 
L 106.220775 210.526157 
L 106.882445 210.608289 
L 107.011552 210.69042 
L 107.705498 210.608289 
L 107.737775 210.526157 
L 107.78619 210.69042 
L 107.802328 210.69042 
L 108.383307 210.608289 
L 108.528551 210.444025 
L 108.576966 210.361894 
L 108.706073 210.279762 
L 109.254775 210.19763 
L 109.335466 210.115499 
L 109.367743 210.19763 
L 109.690509 210.115499 
L 109.819615 209.951235 
L 109.916445 210.033367 
L 109.932583 209.951235 
L 110.416732 210.033367 
L 110.561977 210.19763 
L 110.691083 210.115499 
L 111.368891 210.19763 
L 111.530274 210.444025 
L 112.256498 210.526157 
L 112.321051 210.444025 
L 112.385604 210.608289 
L 112.821338 210.69042 
L 112.837476 210.772552 
L 112.869753 210.608289 
L 112.934306 210.69042 
L 113.17638 210.772552 
L 113.337763 211.018947 
L 113.434593 211.101079 
L 113.579838 211.265342 
L 113.789636 211.18321 
L 113.870327 211.101079 
L 113.902604 211.18321 
L 114.160817 211.265342 
L 114.257646 211.347474 
L 114.273785 211.265342 
L 114.386753 211.101079 
L 114.402891 211.18321 
L 114.483582 211.101079 
L 114.580412 210.936815 
L 114.612689 211.018947 
L 114.806348 210.936815 
L 114.935455 210.854684 
L 115.35505 210.772552 
L 115.484157 210.69042 
L 115.532572 210.772552 
L 115.580986 210.69042 
L 115.710093 210.608289 
L 115.839199 210.526157 
L 115.984444 210.361894 
L 116.21038 210.279762 
L 116.339486 210.19763 
L 116.484731 210.115499 
L 116.629976 209.951235 
L 116.710667 209.869104 
L 116.742944 209.786972 
L 116.823635 209.869104 
L 117.017295 209.951235 
L 117.033433 210.033367 
L 117.130263 209.951235 
L 117.259369 210.033367 
L 117.501444 210.69042 
L 117.549858 210.772552 
L 117.743518 211.18321 
L 117.921039 211.265342 
L 118.050146 211.347474 
L 118.647263 211.265342 
L 118.776369 211.18321 
L 119.05072 211.101079 
L 119.131411 211.018947 
L 119.163688 211.101079 
L 119.518731 211.018947 
L 119.663975 210.854684 
L 119.80922 210.772552 
L 119.938326 210.69042 
L 120.002879 210.772552 
L 120.051294 210.69042 
L 120.228815 210.361894 
L 120.438613 210.279762 
L 120.56772 210.19763 
L 120.664549 210.115499 
L 120.696826 210.033367 
L 120.745241 210.19763 
L 120.761379 210.19763 
L 120.858209 210.279762 
L 120.874347 210.19763 
L 121.116422 210.279762 
L 121.261666 210.444025 
L 121.471464 210.361894 
L 121.616709 210.19763 
L 121.778092 210.115499 
L 121.939475 209.869104 
L 122.116996 209.786972 
L 122.246102 209.70484 
L 122.407485 209.951235 
L 122.423624 209.869104 
L 122.520453 209.951235 
L 122.697975 209.869104 
L 122.810943 209.70484 
L 122.827081 209.786972 
L 123.133709 209.869104 
L 123.278953 210.033367 
L 123.553304 210.115499 
L 123.682411 210.279762 
L 123.843794 210.033367 
L 123.924485 210.115499 
L 123.940623 210.19763 
L 124.005177 210.033367 
L 124.021315 210.033367 
L 124.360219 209.951235 
L 124.489325 209.869104 
L 124.682985 209.951235 
L 124.844368 210.19763 
L 125.280102 210.279762 
L 125.360793 210.444025 
L 125.39307 210.361894 
L 125.522176 210.279762 
L 125.764251 210.19763 
L 125.780389 210.115499 
L 125.877219 210.19763 
L 126.038602 210.115499 
L 126.167708 210.033367 
L 126.329091 209.951235 
L 126.458197 209.869104 
L 126.587304 209.951235 
L 126.651857 210.033367 
L 126.700272 209.951235 
L 127.136006 209.869104 
L 127.152144 209.786972 
L 127.232836 209.869104 
L 127.248974 209.951235 
L 127.297389 209.786972 
L 127.329665 209.786972 
L 127.394219 209.869104 
L 127.442633 210.033367 
L 127.507187 209.951235 
L 127.636293 209.869104 
L 127.765399 209.951235 
L 127.975197 209.869104 
L 128.120442 209.70484 
L 128.217272 209.622709 
L 128.346378 209.540577 
L 128.410931 209.458445 
L 128.540038 209.376314 
L 129.08874 209.294182 
L 129.137154 209.21205 
L 129.201708 209.294182 
L 129.605165 209.376314 
L 129.734271 209.458445 
L 129.831101 209.376314 
L 130.024761 208.965655 
L 130.137729 208.883524 
L 130.282973 208.71926 
L 130.525048 208.637129 
L 130.541186 208.554997 
L 130.589601 208.71926 
L 130.621878 208.637129 
L 130.670292 208.71926 
L 130.734846 208.637129 
L 131.07375 208.554997 
L 131.218995 208.390734 
L 132.477782 208.472865 
L 132.606888 208.554997 
L 132.768271 208.472865 
L 132.816686 208.390734 
L 132.881239 208.472865 
L 133.268558 208.554997 
L 133.397664 208.637129 
L 133.413803 208.637129 
L 133.559047 209.047787 
L 133.591324 208.965655 
L 133.639739 209.21205 
L 133.655877 209.129919 
L 133.768845 209.21205 
L 133.962505 209.622709 
L 133.994781 209.70484 
L 134.156164 210.033367 
L 134.285271 209.951235 
L 134.430515 210.033367 
L 134.559622 210.19763 
L 134.688728 210.115499 
L 134.979217 210.033367 
L 135.108324 209.951235 
L 135.33426 209.869104 
L 135.414951 209.70484 
L 135.463366 209.786972 
L 135.818409 209.70484 
L 135.834547 209.622709 
L 135.866824 209.786972 
L 135.931377 209.70484 
L 136.044345 209.622709 
L 136.060483 209.540577 
L 136.157313 209.622709 
L 136.883536 209.540577 
L 137.061057 209.21205 
L 137.174025 209.129919 
L 137.206302 209.047787 
L 137.238579 209.21205 
L 137.270855 209.21205 
L 137.367685 209.129919 
L 137.432238 208.965655 
L 137.480653 209.129919 
L 137.690451 209.047787 
L 137.835696 208.883524 
L 137.98094 209.047787 
L 138.110047 208.965655 
L 138.206876 208.71926 
L 138.255291 208.801392 
L 138.707163 208.71926 
L 138.83627 208.637129 
L 138.900823 208.71926 
L 138.949238 208.637129 
L 139.126759 208.71926 
L 139.255866 208.801392 
L 139.30428 208.71926 
L 139.368834 208.801392 
L 139.772291 208.71926 
L 139.901397 208.554997 
L 139.998227 208.637129 
L 140.014365 208.554997 
L 140.756727 208.472865 
L 140.91811 208.22647 
L 141.047216 208.144339 
L 141.127908 208.062207 
L 141.160184 208.144339 
L 141.434535 208.965655 
L 141.902546 208.883524 
L 142.031652 208.801392 
L 142.14462 208.71926 
L 142.273727 208.637129 
L 142.386695 208.71926 
L 142.515801 208.637129 
L 142.80629 208.554997 
L 142.951535 208.390734 
L 144.339429 208.472865 
L 144.468535 208.801392 
L 144.484673 208.71926 
L 144.581503 208.637129 
L 144.597641 208.71926 
L 144.678333 208.801392 
L 144.823577 208.965655 
L 145.340003 208.883524 
L 145.485247 208.71926 
L 145.64663 208.637129 
L 145.775737 208.554997 
L 146.308301 208.472865 
L 146.388992 208.308602 
L 146.437407 208.390734 
L 147.244322 208.472865 
L 147.26046 208.554997 
L 147.35729 208.472865 
L 147.550949 208.390734 
L 147.680056 208.308602 
L 147.809162 208.390734 
L 147.938268 208.308602 
L 147.970545 208.22647 
L 148.051236 208.308602 
L 148.180343 208.390734 
L 148.325587 208.554997 
L 148.374002 208.472865 
L 148.503109 208.390734 
L 148.632215 208.472865 
L 148.858151 208.390734 
L 148.890428 208.22647 
L 148.987258 208.308602 
L 149.100226 208.390734 
L 149.116364 208.472865 
L 149.164779 208.308602 
L 149.213194 208.390734 
L 149.358438 208.22647 
L 149.697343 208.308602 
L 149.826449 208.390734 
L 149.971694 208.390734 
L 150.00397 208.22647 
L 150.084662 208.308602 
L 150.407427 208.390734 
L 150.601087 208.883524 
L 150.76247 208.637129 
L 151.085236 208.71926 
L 151.149789 208.801392 
L 151.198204 208.71926 
L 151.32731 208.637129 
L 151.343449 208.71926 
L 151.375725 208.554997 
L 151.440278 208.637129 
L 151.811459 208.554997 
L 151.843736 208.472865 
L 151.924427 208.554997 
L 152.424714 208.472865 
L 152.586097 208.22647 
L 152.908863 208.144339 
L 152.94114 208.062207 
L 153.005693 208.22647 
L 153.054108 208.144339 
L 153.070246 208.062207 
L 153.150938 208.22647 
L 153.328459 208.144339 
L 153.360736 208.062207 
L 153.40915 208.144339 
L 153.60281 217.507349 
L 154.054682 226.213306 
L 154.425863 231.551864 
L 154.861597 236.644028 
L 154.990703 237.876003 
L 155.265054 240.422085 
L 155.765342 244.446536 
L 155.991278 246.171301 
L 156.314044 248.388856 
L 156.927299 252.084781 
L 157.137097 253.152493 
L 158.460437 259.312368 
L 158.492713 259.3945 
L 158.815479 260.462212 
L 158.847756 260.544343 
L 159.154383 261.529923 
L 159.18666 261.612055 
L 159.428735 262.269108 
L 159.461011 262.35124 
L 159.735362 263.172557 
L 159.816054 263.254688 
L 160.025851 263.747478 
L 160.058128 263.82961 
L 160.284064 264.404532 
L 160.348617 264.486663 
L 160.542277 264.897322 
L 160.60683 264.979453 
L 160.80049 265.472243 
L 160.816628 265.390112 
L 160.865043 265.554375 
L 160.897319 265.554375 
L 160.978011 265.636507 
L 161.139394 265.882902 
L 161.300777 265.965034 
L 161.478298 266.29356 
L 161.526713 266.211429 
L 161.591266 266.29356 
L 161.752649 266.539955 
L 161.897894 266.622087 
L 162.043138 266.78635 
L 162.091553 266.868482 
L 162.236798 267.032745 
L 162.285213 267.114877 
L 162.317489 267.197009 
L 162.398181 267.114877 
L 162.462734 267.197009 
L 162.607979 267.361272 
L 162.995298 267.443404 
L 163.124404 267.525535 
L 163.318064 267.607667 
L 163.431032 267.77193 
L 163.44717 267.689799 
L 163.527861 267.77193 
L 163.656968 267.854062 
L 163.931319 267.936194 
L 164.060425 268.018325 
L 164.544574 267.936194 
L 164.625266 267.854062 
L 164.657542 267.936194 
L 165.997021 267.854062 
L 166.126127 267.689799 
L 166.206818 267.77193 
L 166.239095 267.689799 
L 166.432755 267.607667 
L 166.577999 267.443404 
L 166.900765 267.361272 
L 167.029872 267.27914 
L 167.304223 267.197009 
L 167.465606 266.950614 
L 167.659265 266.868482 
L 167.788371 266.78635 
L 168.014308 266.704219 
L 168.175691 266.457824 
L 168.191829 266.539955 
L 168.288659 266.457824 
L 168.450042 266.375692 
L 168.56301 266.29356 
L 168.579148 266.375692 
L 168.627563 266.211429 
L 168.659839 266.211429 
L 168.837361 266.129297 
L 168.853499 266.047165 
L 168.885775 266.211429 
L 168.950329 266.129297 
L 169.12785 266.047165 
L 169.273095 265.882902 
L 169.418339 265.80077 
L 169.499031 265.718639 
L 169.611999 259.312368 
L 169.708829 259.3945 
L 169.724967 259.476632 
L 169.821797 259.3945 
L 170.951477 259.476632 
L 170.967616 259.558763 
L 171.064445 259.476632 
L 171.790669 259.558763 
L 171.822945 259.640895 
L 171.903637 259.558763 
L 172.048881 259.3945 
L 172.177988 259.476632 
L 172.387786 259.3945 
L 172.516892 259.312368 
L 173.162424 259.230237 
L 173.307668 259.065973 
L 174.518041 259.148105 
L 174.647147 259.230237 
L 175.115157 259.312368 
L 175.147434 259.3945 
L 175.228126 259.312368 
L 175.389508 259.3945 
L 175.405647 259.476632 
L 175.502477 259.3945 
L 175.615445 259.476632 
L 175.712274 259.558763 
L 175.728413 259.476632 
L 175.954349 259.558763 
L 176.083455 259.640895 
L 176.099593 259.558763 
L 176.180285 259.723027 
L 176.196423 259.640895 
L 176.664434 259.558763 
L 176.79354 259.476632 
L 176.938785 259.3945 
L 177.019476 259.476632 
L 177.067891 259.312368 
L 177.213136 259.3945 
L 177.293827 259.476632 
L 177.326104 259.3945 
L 177.616593 259.3945 
L 177.810253 247.156881 
L 178.391231 232.783839 
L 179.149731 219.560641 
L 179.82754 210.854684 
L 180.39238 206.173179 
L 180.924944 204.037755 
L 180.95722 203.955624 
L 181.15088 203.544965 
L 181.312263 203.462834 
L 181.522061 202.970044 
L 181.538199 202.970044 
L 181.683444 202.559385 
L 181.764135 202.477254 
L 181.90938 202.31299 
L 182.328975 202.230859 
L 182.522635 201.8202 
L 182.66788 201.738069 
L 182.861539 201.32741 
L 182.926092 201.409542 
L 182.974507 201.491674 
L 183.03906 201.409542 
L 183.103614 201.32741 
L 183.264997 201.081015 
L 183.313411 200.998883 
L 183.539348 200.423962 
L 183.620039 200.34183 
L 183.829837 199.84904 
L 183.89439 199.766908 
L 184.184879 198.86346 
L 184.233294 198.945592 
L 184.297847 198.86346 
L 184.539922 198.206407 
L 184.814273 198.124275 
L 184.927241 197.631485 
L 184.991794 197.795748 
L 185.072486 197.713617 
L 185.250007 197.138695 
L 185.282283 197.220827 
L 185.346837 197.138695 
L 185.669602 196.070983 
L 185.718017 195.988852 
L 186.411964 191.882268 
L 186.428102 191.389478 
L 186.444241 186.297315 
L 186.492656 74.680377 
L 186.573347 133.075993 
L 186.73473 199.438382 
L 186.944528 201.573805 
L 188.05807 211.922395 
L 188.074208 211.922395 
L 188.25173 212.66158 
L 188.477666 213.236502 
L 188.526081 213.318634 
L 188.752017 213.893555 
L 188.800432 213.975687 
L 188.961815 214.222082 
L 189.026368 214.13995 
L 189.058644 214.222082 
L 189.187751 214.304214 
L 189.720315 214.222082 
L 189.865559 214.057819 
L 190.091495 213.975687 
L 190.23674 213.811424 
L 190.285155 213.729292 
L 190.414261 213.565029 
L 190.4304 213.64716 
L 190.494953 213.482897 
L 190.511091 213.482897 
L 190.591783 213.400765 
L 190.720889 213.318634 
L 190.89841 213.236502 
L 191.027516 213.15437 
L 191.140485 213.072239 
L 191.301868 212.825844 
L 191.46325 212.743712 
L 191.640772 212.415185 
L 192.205612 212.333054 
L 192.366995 212.086659 
L 192.463825 212.004527 
L 192.625208 211.676 
L 192.754314 211.758132 
L 192.835006 211.676 
L 192.899559 211.593869 
L 192.947974 211.676 
L 193.238463 211.593869 
L 193.383708 211.429605 
L 193.512814 211.347474 
L 193.658059 211.18321 
L 193.787165 211.265342 
L 193.964686 210.936815 
L 194.013101 211.018947 
L 194.061516 210.854684 
L 194.448835 210.772552 
L 194.59408 210.608289 
L 194.723186 210.526157 
L 194.900707 210.19763 
L 194.981399 210.115499 
L 195.126643 209.951235 
L 195.271888 209.869104 
L 195.35258 209.70484 
L 195.400994 209.786972 
L 195.465548 209.70484 
L 195.610792 209.540577 
L 195.885143 209.458445 
L 196.01425 209.376314 
L 196.094941 209.294182 
L 196.256324 208.965655 
L 196.353154 209.047787 
L 196.369292 208.965655 
L 196.708196 208.883524 
L 196.837303 208.801392 
L 196.950271 208.883524 
L 196.982547 208.801392 
L 197.063239 208.883524 
L 197.14393 208.801392 
L 197.160069 208.71926 
L 197.224622 208.883524 
L 197.24076 208.883524 
L 197.402143 208.965655 
L 197.579664 209.458445 
L 197.595803 209.376314 
L 197.644218 209.458445 
L 197.821739 209.786972 
L 197.854015 209.70484 
L 197.934707 209.786972 
L 197.966983 209.869104 
L 198.112228 210.033367 
L 198.467271 209.951235 
L 198.483409 209.869104 
L 198.580239 209.951235 
L 198.644792 209.869104 
L 198.822313 209.540577 
L 199.032111 209.458445 
L 199.209632 209.129919 
L 199.241909 209.21205 
L 199.306462 209.047787 
L 199.500121 208.637129 
L 199.629228 208.71926 
L 199.790611 208.637129 
L 199.951994 208.390734 
L 200.032685 208.308602 
L 200.161792 208.22647 
L 200.532972 208.144339 
L 200.662079 207.897944 
L 200.678217 207.980075 
L 200.807323 207.897944 
L 200.968706 207.651549 
L 201.065536 207.569417 
L 201.226919 207.323022 
L 201.372164 207.24089 
L 201.50127 207.158759 
L 201.646515 207.076627 
L 201.807898 206.830232 
L 201.856313 206.912364 
L 201.985419 206.994495 
L 202.146802 206.7481 
L 202.275908 206.830232 
L 202.3566 206.7481 
L 202.517983 206.501705 
L 202.582536 206.419574 
L 202.727781 206.173179 
L 202.743919 206.25531 
L 202.776195 206.091047 
L 202.82461 206.091047 
L 203.034408 206.008915 
L 203.179653 205.844652 
L 203.550834 205.926784 
L 203.67994 206.008915 
L 203.77677 206.091047 
L 203.905876 206.173179 
L 204.632099 206.091047 
L 204.777344 205.926784 
L 204.858035 205.844652 
L 204.987142 205.76252 
L 205.116248 205.926784 
L 205.164663 205.844652 
L 205.19694 206.008915 
L 205.229216 205.926784 
L 205.358323 206.173179 
L 205.374461 206.091047 
L 206.052269 206.173179 
L 206.213652 206.419574 
L 206.455727 206.501705 
L 206.61711 206.7481 
L 206.762354 206.830232 
L 206.907599 206.994495 
L 207.343333 206.912364 
L 207.359471 206.830232 
L 207.456301 206.912364 
L 207.472439 206.994495 
L 207.569269 206.912364 
L 207.666099 206.994495 
L 207.682237 207.076627 
L 207.779067 206.994495 
L 208.021141 206.912364 
L 208.182524 206.665969 
L 208.230939 206.583837 
L 208.40846 206.25531 
L 208.60212 206.173179 
L 208.731226 206.091047 
L 208.989439 206.008915 
L 209.118545 205.926784 
L 209.215375 205.844652 
L 209.36062 205.680389 
L 209.538141 205.598257 
L 209.731801 205.187599 
L 210.038428 205.105467 
L 210.183673 204.941204 
L 210.232088 205.023335 
L 210.393471 205.26973 
L 211.055141 205.187599 
L 211.232662 204.859072 
L 211.297215 204.941204 
L 211.329492 204.859072 
L 211.474737 204.694809 
L 211.652258 204.612677 
L 211.749088 204.530545 
L 211.765226 204.612677 
L 211.813641 204.530545 
L 211.958885 204.366282 
L 212.023439 204.28415 
L 212.039577 204.202019 
L 212.087992 204.366282 
L 212.120268 204.366282 
L 212.217098 204.448414 
L 212.362343 204.612677 
L 212.410758 204.530545 
L 212.475311 204.366282 
L 212.523726 204.530545 
L 212.588279 204.448414 
L 212.636694 204.366282 
L 212.685109 204.448414 
L 212.86263 204.77694 
L 213.185396 204.694809 
L 213.217672 204.612677 
L 213.266087 204.77694 
L 213.282226 204.77694 
L 213.556577 204.694809 
L 213.653406 204.612677 
L 213.669545 204.694809 
L 213.814789 204.612677 
L 214.008449 204.202019 
L 214.056864 204.119887 
L 214.073002 204.037755 
L 214.169832 204.119887 
L 214.2828 204.037755 
L 214.411906 203.955624 
L 214.589427 203.873492 
L 214.734672 203.709229 
L 214.84764 203.79136 
L 214.879917 203.873492 
L 214.928332 203.709229 
L 214.94447 203.709229 
L 215.202683 203.627097 
L 215.331789 203.544965 
L 215.460895 203.627097 
L 215.751385 203.709229 
L 215.767523 203.79136 
L 215.864353 203.709229 
L 216.058012 203.29857 
L 216.138704 203.216439 
L 216.300087 202.887912 
L 216.380778 202.970044 
L 216.413055 202.887912 
L 216.542161 202.80578 
L 216.687406 202.641517 
L 216.92948 202.559385 
L 216.977895 202.477254 
L 217.02631 202.559385 
L 217.042448 202.641517 
L 217.139278 202.559385 
L 217.704118 202.641517 
L 217.833225 202.723649 
L 217.849363 202.641517 
L 217.946193 202.723649 
L 218.204406 202.723649 
L 218.34965 203.134307 
L 218.656278 203.052175 
L 218.785384 202.970044 
L 218.962905 203.052175 
L 219.027459 202.970044 
L 219.075874 203.134307 
L 219.20498 203.052175 
L 219.414778 203.134307 
L 219.576161 203.380702 
L 219.915065 203.462834 
L 220.157139 204.119887 
L 220.270107 204.202019 
L 220.350799 204.366282 
L 220.399214 204.28415 
L 220.496044 204.202019 
L 220.62515 204.119887 
L 220.818809 204.202019 
L 220.834948 204.28415 
L 220.931777 204.202019 
L 221.125437 204.119887 
L 221.254543 204.037755 
L 221.319097 203.955624 
L 221.464341 203.79136 
L 221.722554 203.709229 
L 221.867799 203.544965 
L 221.900075 203.544965 
L 222.029182 203.216439 
L 222.077596 203.134307 
L 222.158288 202.887912 
L 222.222841 202.970044 
L 222.739267 202.887912 
L 222.900649 202.641517 
L 223.013618 202.559385 
L 223.158862 202.31299 
L 223.175001 202.395122 
L 223.239554 202.230859 
L 223.255692 202.31299 
L 223.449352 201.902332 
L 223.626873 201.8202 
L 223.852809 201.245278 
L 223.981915 201.163147 
L 224.046468 200.998883 
L 224.094883 201.081015 
L 224.272405 201.409542 
L 224.320819 201.32741 
L 224.385373 201.245278 
L 224.433788 201.32741 
L 224.514479 201.491674 
L 224.562894 201.409542 
L 224.692 201.491674 
L 224.853383 201.738069 
L 225.127734 201.655937 
L 225.256841 201.573805 
L 225.289117 201.655937 
L 225.305255 201.738069 
L 225.35367 201.573805 
L 225.385947 201.573805 
L 225.54733 201.655937 
L 225.692575 201.8202 
L 225.740989 201.738069 
L 225.886234 201.573805 
L 226.063755 201.491674 
L 226.338106 200.670357 
L 226.547904 200.752488 
L 226.580181 200.83462 
L 226.628596 200.670357 
L 226.644734 200.670357 
L 226.725425 200.588225 
L 226.87067 200.423962 
L 226.886808 200.506093 
L 226.9675 200.34183 
L 226.983638 200.423962 
L 227.06433 200.506093 
L 227.096606 200.588225 
L 227.161159 200.423962 
L 227.403234 200.423962 
L 227.53234 200.095435 
L 227.661447 200.013303 
L 227.677585 199.931172 
L 227.758276 200.013303 
L 227.855106 200.177567 
L 227.887383 200.095435 
L 228.048766 200.013303 
L 228.097181 199.931172 
L 228.161734 200.013303 
L 228.419946 199.931172 
L 228.597468 199.602645 
L 228.823404 199.520513 
L 228.871819 199.35625 
L 228.936372 199.520513 
L 229.081617 199.438382 
L 229.259138 199.109855 
L 229.307553 199.027723 
L 229.468936 198.781328 
L 229.630319 198.86346 
L 229.646457 198.945592 
L 229.71101 198.781328 
L 229.727148 198.781328 
L 230.082191 198.699197 
L 230.098329 198.617065 
L 230.162882 198.781328 
L 230.179021 198.781328 
L 230.905244 198.699197 
L 231.195733 197.795748 
L 231.22801 197.713617 
L 231.421669 197.302958 
L 231.453946 197.220827 
L 231.954233 195.249667 
L 231.970371 195.331798 
L 232.034925 195.085403 
L 232.164031 193.278507 
L 232.180169 190.239635 
L 232.244722 73.776929 
L 232.309276 128.312357 
L 232.470659 198.534933 
L 232.535212 199.191987 
L 232.599765 199.027723 
L 232.74501 198.781328 
L 233.051637 200.916752 
L 233.551924 205.023335 
L 233.584201 205.105467 
L 233.826275 206.501705 
L 234.520222 209.458445 
L 234.584775 209.540577 
L 234.794573 210.033367 
L 234.842988 210.115499 
L 235.036647 210.526157 
L 235.101201 210.608289 
L 235.262584 210.854684 
L 235.359413 210.936815 
L 235.520796 211.18321 
L 235.601488 211.265342 
L 235.746732 211.429605 
L 235.908115 211.511737 
L 236.037222 211.593869 
L 236.117913 211.676 
L 236.263158 211.922395 
L 236.279296 211.840264 
L 236.359988 212.004527 
L 236.521371 212.250922 
L 236.876413 212.16879 
L 237.005519 212.004527 
L 237.070073 212.16879 
L 237.118488 212.086659 
L 237.247594 212.004527 
L 237.392839 211.922395 
L 237.538083 211.758132 
L 237.57036 211.840264 
L 237.634913 211.758132 
L 237.812434 211.429605 
L 237.860849 211.347474 
L 238.006094 211.18321 
L 238.167477 211.101079 
L 238.312721 210.936815 
L 238.474104 210.854684 
L 238.619349 210.69042 
L 238.829147 210.608289 
L 238.974392 210.444025 
L 239.103498 210.361894 
L 239.264881 210.115499 
L 239.329434 210.033367 
L 239.490817 209.786972 
L 239.732891 209.70484 
L 239.861998 209.622709 
L 240.152487 209.540577 
L 240.281593 209.458445 
L 240.378423 209.540577 
L 240.394561 209.458445 
L 240.572083 209.376314 
L 240.701189 209.294182 
L 240.959402 209.21205 
L 241.104646 209.047787 
L 241.459689 208.965655 
L 241.604934 208.801392 
L 241.717902 208.71926 
L 241.879285 208.472865 
L 242.169774 208.472865 
L 242.363433 220.464089 
L 242.799167 230.402021 
L 243.234901 237.054686 
L 243.654497 241.900455 
L 243.783603 243.13243 
L 244.396859 248.306725 
L 244.638933 250.113621 
L 244.961699 252.331176 
L 246.494837 259.558763 
L 246.55939 259.640895 
L 246.946709 261.037133 
L 246.978986 261.119265 
L 247.237199 261.85845 
L 247.269475 261.940582 
L 247.527688 262.679767 
L 247.592241 262.761898 
L 247.834316 263.418952 
L 247.850454 263.418952 
L 247.995699 263.911742 
L 248.011837 263.82961 
L 248.060252 263.993873 
L 248.092528 263.993873 
L 248.302326 264.486663 
L 248.366879 264.568795 
L 248.576677 265.061585 
L 248.657369 265.143717 
L 248.83489 265.472243 
L 248.996273 265.554375 
L 249.173794 265.882902 
L 249.238347 265.965034 
L 249.383592 266.129297 
L 249.544975 266.211429 
L 249.706358 266.457824 
L 249.819326 266.539955 
L 249.980709 266.78635 
L 250.303475 266.868482 
L 250.416443 267.032745 
L 250.432581 266.950614 
L 250.513273 267.032745 
L 250.610102 267.197009 
L 250.642379 267.114877 
L 250.884453 267.197009 
L 251.01356 267.27914 
L 251.255634 267.361272 
L 251.271772 267.443404 
L 251.352464 267.27914 
L 251.497709 267.361272 
L 251.626815 267.443404 
L 252.43373 267.361272 
L 252.562836 267.197009 
L 252.691942 267.361272 
L 252.837187 267.197009 
L 252.934017 267.114877 
L 252.99857 267.032745 
L 253.046985 267.114877 
L 253.611825 267.032745 
L 253.75707 266.868482 
L 254.273495 266.78635 
L 254.41874 266.622087 
L 254.499431 266.704219 
L 254.531708 266.622087 
L 254.773783 266.539955 
L 254.789921 266.457824 
L 254.838336 266.622087 
L 254.886751 266.539955 
L 255.354761 266.457824 
L 255.483867 266.375692 
L 255.709804 266.29356 
L 255.83891 266.211429 
L 256.000293 266.129297 
L 256.129399 265.965034 
L 256.258506 266.047165 
L 256.387612 265.965034 
L 256.50058 265.882902 
L 256.645825 265.718639 
L 256.968591 265.636507 
L 257.097697 265.554375 
L 257.129974 265.472243 
L 257.275218 265.30798 
L 257.517293 265.225848 
L 257.646399 265.143717 
L 258.01758 265.061585 
L 258.146686 264.897322 
L 258.162824 264.979453 
L 258.259654 264.897322 
L 258.372622 260.133685 
L 259.647548 260.215817 
L 259.679824 260.297948 
L 259.760516 260.215817 
L 260.244665 260.133685 
L 260.276941 259.969422 
L 260.357633 260.133685 
L 261.42276 260.215817 
L 261.471175 260.297948 
L 261.51959 260.133685 
L 261.535728 260.215817 
L 262.616994 260.133685 
L 262.649271 260.051553 
L 262.729962 260.133685 
L 263.230249 260.215817 
L 263.359356 260.297948 
L 264.392206 260.38008 
L 264.521313 260.462212 
L 266.377217 260.462212 
L 266.570876 242.064718 
L 267.151855 220.464089 
L 268.265397 194.92114 
L 268.507472 192.210795 
L 268.846376 186.379446 
L 268.910929 73.448402 
L 268.991621 145.395744 
L 269.153004 199.274118 
L 269.18528 199.520513 
L 269.233695 199.191987 
L 269.395078 198.534933 
L 269.653291 199.274118 
L 269.75012 199.35625 
L 269.959918 199.84904 
L 270.072886 199.931172 
L 270.153578 200.095435 
L 270.201993 200.013303 
L 270.282684 200.095435 
L 270.395652 200.259698 
L 270.411791 200.177567 
L 270.573173 200.095435 
L 270.621588 200.013303 
L 270.653865 200.095435 
L 270.782971 200.34183 
L 270.79911 200.423962 
L 270.879801 200.34183 
L 271.025046 200.177567 
L 271.154152 200.259698 
L 271.218705 200.423962 
L 271.26712 200.34183 
L 271.428503 200.013303 
L 271.444641 200.095435 
L 271.525333 200.013303 
L 271.670578 199.84904 
L 271.735131 199.766908 
L 271.944929 199.274118 
L 272.02562 199.191987 
L 272.283833 198.37067 
L 272.299971 198.452802 
L 272.396801 198.37067 
L 272.445216 198.37067 
L 272.59046 197.960012 
L 272.832535 197.302958 
L 272.88095 197.220827 
L 273.139162 196.481642 
L 273.332822 196.563773 
L 273.510343 196.8923 
L 273.558758 196.974432 
L 273.704003 197.138695 
L 273.800833 197.220827 
L 273.865386 197.302958 
L 273.897662 197.138695 
L 273.913801 197.220827 
L 274.059045 196.810168 
L 274.220428 196.563773 
L 274.268843 196.481642 
L 274.543194 195.41393 
L 274.575471 195.496062 
L 274.86596 195.41393 
L 274.946651 195.249667 
L 274.96279 195.331798 
L 275.043481 195.41393 
L 275.075758 195.331798 
L 275.172588 195.249667 
L 275.366247 194.839008 
L 275.495354 194.756877 
L 275.753566 193.853428 
L 275.769705 193.93556 
L 275.834258 193.853428 
L 276.076332 193.196375 
L 276.140885 193.360638 
L 276.173162 193.196375 
L 276.544343 191.800137 
L 276.560481 191.882268 
L 276.608896 191.553742 
L 276.689587 191.47161 
L 277.060768 189.00766 
L 277.286704 185.968788 
L 277.351257 70.90232 
L 277.431949 133.158125 
L 277.593332 196.235247 
L 277.754715 197.467222 
L 278.255002 200.588225 
L 278.480938 201.8202 
L 278.868257 203.380702 
L 278.884396 203.29857 
L 278.916672 203.380702 
L 279.094193 203.709229 
L 279.158747 203.79136 
L 279.336268 204.119887 
L 279.69131 204.037755 
L 279.852693 203.79136 
L 280.014076 203.709229 
L 280.240012 203.134307 
L 280.54664 203.052175 
L 280.675746 202.970044 
L 280.804853 202.887912 
L 280.820991 202.80578 
L 280.885544 202.970044 
L 280.917821 202.887912 
L 281.079204 202.80578 
L 281.20831 202.723649 
L 281.563353 202.641517 
L 281.708597 202.395122 
L 281.837704 202.477254 
L 282.031363 202.395122 
L 282.160469 202.31299 
L 282.225023 202.395122 
L 282.257299 202.230859 
L 282.273438 202.31299 
L 282.418682 202.148727 
L 282.483235 202.066595 
L 282.644618 201.8202 
L 282.693033 201.902332 
L 282.773725 201.984464 
L 282.806001 201.902332 
L 282.951246 201.8202 
L 283.128767 201.491674 
L 283.499948 201.409542 
L 283.645193 201.245278 
L 283.903405 201.163147 
L 284.097065 200.752488 
L 284.161618 200.670357 
L 284.306863 200.34183 
L 284.323001 200.423962 
L 284.371416 200.34183 
L 284.548937 200.013303 
L 284.597352 199.931172 
L 284.758735 199.520513 
L 284.774873 199.602645 
L 284.871703 199.520513 
L 285.033086 199.274118 
L 285.065363 199.191987 
L 285.27516 198.699197 
L 285.307437 198.617065 
L 285.452682 198.452802 
L 285.484958 198.37067 
L 285.662479 197.960012 
L 285.678618 198.042143 
L 285.743171 197.87788 
L 285.759309 197.87788 
L 285.823862 197.795748 
L 286.001384 197.467222 
L 286.082075 197.549353 
L 286.114352 197.467222 
L 286.146628 197.38509 
L 286.308011 197.056563 
L 286.453256 197.220827 
L 286.517809 197.138695 
L 286.550086 197.056563 
L 286.614639 197.220827 
L 286.630777 197.138695 
L 286.969681 197.056563 
L 287.001958 196.974432 
L 287.082649 197.056563 
L 287.486107 196.974432 
L 287.631352 196.810168 
L 287.776596 196.728037 
L 288.083224 195.742457 
L 288.341436 195.660325 
L 288.486681 195.331798 
L 288.502819 195.41393 
L 288.535096 195.496062 
L 288.567373 195.578193 
L 288.631926 195.41393 
L 288.728756 195.331798 
L 288.954692 194.756877 
L 289.003107 194.839008 
L 289.16449 195.167535 
L 289.212904 195.085403 
L 289.261319 195.249667 
L 289.600224 195.167535 
L 289.745468 194.674745 
L 289.793883 194.592613 
L 289.922989 194.510482 
L 289.987543 194.42835 
L 290.342585 193.114243 
L 290.358723 193.196375 
L 290.391 193.032112 
L 290.455553 193.114243 
L 290.568521 192.94998 
L 290.58466 193.032112 
L 290.681489 192.94998 
L 290.859011 192.621453 
L 290.907425 192.539322 
L 291.068808 192.292927 
L 291.133362 192.210795 
L 291.375436 191.553742 
L 291.423851 191.47161 
L 292.053244 187.775685 
L 292.101659 184.901076 
L 292.166212 71.230847 
L 292.230766 121.331165 
L 292.408287 195.660325 
L 292.553532 196.317378 
L 292.634223 196.39951 
L 293.392723 199.684777 
L 293.424999 199.766908 
L 293.812319 201.163147 
L 293.876872 201.245278 
L 294.118946 201.902332 
L 294.248053 201.984464 
L 294.377159 202.148727 
L 294.506265 202.066595 
L 294.667648 202.148727 
L 294.829031 202.395122 
L 294.877446 202.477254 
L 295.006552 202.559385 
L 295.11952 202.641517 
L 295.21635 202.723649 
L 295.232489 202.641517 
L 295.490701 202.559385 
L 295.652084 202.31299 
L 295.700499 202.230859 
L 295.87802 201.902332 
L 295.990988 201.8202 
L 296.152371 201.573805 
L 296.216925 201.491674 
L 296.394446 201.163147 
L 296.555829 201.081015 
L 296.571967 200.998883 
L 296.652659 201.081015 
L 296.862456 201.573805 
L 297.29819 201.491674 
L 297.475712 201.163147 
L 297.669371 201.081015 
L 297.879169 200.588225 
L 297.911446 200.506093 
L 298.072828 200.259698 
L 298.121243 200.177567 
L 298.282626 199.931172 
L 298.34718 199.84904 
L 298.556977 199.35625 
L 298.686084 199.274118 
L 298.976573 198.37067 
L 299.057265 198.288538 
L 299.299339 197.631485 
L 299.912594 197.549353 
L 300.090115 197.220827 
L 300.380605 197.138695 
L 300.509711 197.056563 
L 300.606541 196.974432 
L 300.703371 196.8923 
L 300.719509 196.974432 
L 300.8002 196.8923 
L 300.913168 196.810168 
L 300.945445 196.8923 
L 300.977722 196.728037 
L 301.009998 196.728037 
L 301.042275 196.728037 
L 301.171381 196.39951 
L 301.268211 196.317378 
L 301.413456 196.153115 
L 301.478009 196.235247 
L 301.510285 196.153115 
L 301.639392 195.988852 
L 301.703945 196.153115 
L 301.768498 196.070983 
L 301.816913 196.153115 
L 301.946019 196.235247 
L 302.139679 196.317378 
L 302.284924 196.563773 
L 302.397892 196.481642 
L 302.51086 196.563773 
L 302.672243 196.153115 
L 302.688381 196.235247 
L 302.849764 196.153115 
L 303.043423 195.742457 
L 303.091838 195.660325 
L 303.285498 195.249667 
L 303.333913 195.167535 
L 303.511434 194.839008 
L 303.608264 194.756877 
L 303.769647 194.510482 
L 303.963306 194.42835 
L 304.092413 194.099823 
L 304.156966 194.017692 
L 304.30221 193.689165 
L 304.318349 193.771297 
L 304.479732 193.689165 
L 304.608838 193.360638 
L 304.641115 193.44277 
L 304.721806 193.44277 
L 304.818636 193.114243 
L 304.850912 193.196375 
L 304.899327 193.196375 
L 305.06071 192.45719 
L 305.109125 192.539322 
L 305.141402 192.292927 
L 305.15754 192.375058 
L 305.189817 192.292927 
L 305.399615 191.800137 
L 305.464168 191.718005 
L 305.81921 190.48603 
L 305.835348 190.48603 
L 306.093561 188.843397 
L 306.125838 188.761265 
L 306.335636 185.968788 
L 306.351774 184.983208 
L 306.416327 71.641505 
L 306.497019 133.40452 
L 306.658402 195.249667 
L 306.739093 195.90672 
L 306.787508 195.742457 
L 306.965029 195.41393 
L 307.207104 195.496062 
L 307.836497 198.124275 
L 307.868774 198.206407 
L 308.062433 198.617065 
L 308.110848 198.699197 
L 308.304508 199.602645 
L 308.482029 199.931172 
L 308.788657 199.84904 
L 308.885486 199.766908 
L 308.901625 199.84904 
L 309.095284 199.931172 
L 309.22439 200.095435 
L 309.353497 200.013303 
L 309.466465 200.095435 
L 309.579433 200.177567 
L 309.740816 199.931172 
L 310.111997 200.013303 
L 310.257241 200.177567 
L 310.434763 200.095435 
L 310.596146 199.84904 
L 310.967326 199.766908 
L 311.112571 199.602645 
L 311.160986 199.520513 
L 311.419199 198.781328 
L 311.548305 198.699197 
L 311.725826 198.37067 
L 311.919486 198.288538 
L 312.048592 198.206407 
L 312.306805 198.124275 
L 312.484326 197.795748 
L 312.532741 197.713617 
L 312.710262 197.38509 
L 312.903922 197.302958 
L 313.065305 197.056563 
L 313.178273 196.974432 
L 313.323517 196.810168 
L 313.67856 196.728037 
L 313.743113 196.810168 
L 313.856081 196.39951 
L 314.162709 196.317378 
L 314.275677 196.235247 
L 314.404783 196.317378 
L 314.646858 195.660325 
L 314.743687 195.578193 
L 314.856655 195.331798 
L 314.888932 195.41393 
L 314.985762 195.331798 
L 315.19556 194.839008 
L 315.260113 194.756877 
L 315.437634 194.42835 
L 315.631294 194.346218 
L 315.776538 194.181955 
L 315.905645 194.099823 
L 315.937921 194.017692 
L 315.986336 194.181955 
L 316.228411 195.660325 
L 316.260687 195.742457 
L 316.42207 196.317378 
L 316.631868 196.8923 
L 316.777113 196.728037 
L 317.116017 196.645905 
L 317.2774 196.39951 
L 317.422644 196.563773 
L 317.713134 196.481642 
L 317.84224 196.39951 
L 317.874517 196.317378 
L 318.229559 195.085403 
L 318.310251 195.003272 
L 318.826676 192.94998 
L 318.891229 192.867848 
L 319.213995 191.800137 
L 319.310825 191.800137 
L 319.472208 191.225215 
L 319.633591 189.911108 
L 319.859527 186.54371 
L 319.891804 131.269097 
L 319.92408 72.709217 
L 319.988633 111.557496 
L 320.166155 193.278507 
L 320.246846 194.017692 
L 320.295261 193.771297 
L 320.359814 193.853428 
L 320.569612 194.346218 
L 320.58575 194.264087 
L 320.618027 194.42835 
L 320.666442 194.42835 
L 320.843963 194.756877 
L 320.892378 194.839008 
L 321.311974 196.39951 
L 321.360388 196.481642 
L 321.554048 196.8923 
L 321.699293 196.974432 
L 321.844537 197.138695 
L 321.941367 197.220827 
L 322.118888 197.549353 
L 322.29641 197.631485 
L 322.441654 197.87788 
L 322.473931 197.795748 
L 322.538484 197.87788 
L 322.699867 198.124275 
L 322.716005 198.042143 
L 322.780558 198.206407 
L 323.022633 198.86346 
L 323.652026 198.781328 
L 323.764994 198.617065 
L 323.781133 198.699197 
L 323.877963 198.617065 
L 324.023207 198.288538 
L 324.039345 198.37067 
L 324.152314 198.288538 
L 324.168452 198.206407 
L 324.233005 198.452802 
L 324.249143 198.37067 
L 324.265282 198.452802 
L 324.329835 198.288538 
L 324.345973 198.288538 
L 324.475079 198.206407 
L 324.701016 198.288538 
L 324.830122 198.452802 
L 324.894675 198.37067 
L 324.94309 198.452802 
L 325.685452 198.37067 
L 325.846835 198.124275 
L 325.911388 198.042143 
L 326.040494 197.960012 
L 326.185739 197.87788 
L 326.379398 197.467222 
L 326.395537 197.467222 
L 326.540781 197.056563 
L 326.589196 196.974432 
L 326.798994 196.481642 
L 326.9281 196.39951 
L 327.073345 196.153115 
L 327.089483 196.235247 
L 327.12176 196.070983 
L 327.154036 196.070983 
L 327.299281 195.90672 
L 327.412249 195.988852 
L 327.525217 195.90672 
L 327.573632 195.988852 
L 327.605909 195.824588 
L 327.622047 195.90672 
L 327.751153 195.824588 
L 327.78343 195.742457 
L 327.960951 195.41393 
L 328.186887 195.331798 
L 328.428962 194.674745 
L 328.493515 194.674745 
L 328.622621 194.181955 
L 328.63876 194.264087 
L 328.961525 194.346218 
L 328.977664 194.42835 
L 329.00994 194.264087 
L 329.058355 194.264087 
L 329.187462 194.181955 
L 329.252015 194.099823 
L 329.461813 193.607033 
L 329.558642 193.524902 
L 329.687749 193.44277 
L 329.800717 193.524902 
L 329.9621 193.032112 
L 329.978238 193.114243 
L 330.091206 193.44277 
L 330.123483 193.278507 
L 330.204174 193.196375 
L 330.397834 192.703585 
L 330.43011 192.785717 
L 330.478525 192.621453 
L 330.494664 192.621453 
L 330.688323 192.621453 
L 330.833568 192.210795 
L 330.930398 192.210795 
L 331.124057 211.018947 
L 331.495238 224.324277 
L 332.076216 236.315501 
L 332.786301 245.514248 
L 333.528663 252.00265 
L 335.158631 259.723027 
L 335.174769 259.723027 
L 335.336152 260.38008 
L 335.35229 260.38008 
L 335.529812 261.119265 
L 335.997822 262.926162 
L 336.046237 263.008293 
L 336.272173 263.583215 
L 336.30445 263.665347 
L 336.530386 264.240268 
L 336.675631 264.3224 
L 336.86929 264.733058 
L 336.917705 264.81519 
L 337.079088 265.225848 
L 337.095226 265.143717 
L 337.111365 265.143717 
L 337.256609 265.554375 
L 337.337301 265.636507 
L 337.53096 266.047165 
L 337.660067 266.129297 
L 337.853726 266.539955 
L 338.015109 266.622087 
L 338.19263 266.950614 
L 338.321737 267.032745 
L 338.466981 267.197009 
L 338.579949 267.27914 
L 338.709056 267.361272 
L 339.306173 267.27914 
L 339.386864 267.197009 
L 339.419141 267.27914 
L 340.758619 267.197009 
L 340.920002 266.950614 
L 341.065247 266.868482 
L 341.22663 266.622087 
L 341.371874 266.539955 
L 341.517119 266.375692 
L 341.662364 266.29356 
L 341.69464 266.211429 
L 341.775332 266.29356 
L 341.936715 266.211429 
L 342.065821 266.129297 
L 342.194928 266.211429 
L 342.630662 266.129297 
L 342.6468 266.047165 
L 342.679076 266.211429 
L 342.74363 266.129297 
L 343.11481 266.047165 
L 343.163225 265.965034 
L 343.227778 266.047165 
L 343.760342 265.965034 
L 343.792619 265.882902 
L 343.87331 265.965034 
L 343.97014 265.882902 
L 344.050831 265.80077 
L 344.083108 265.882902 
L 344.228353 265.80077 
L 344.357459 265.718639 
L 344.680225 265.636507 
L 344.696363 265.554375 
L 344.793193 265.636507 
L 344.922299 265.554375 
L 345.051406 265.472243 
L 345.083682 265.554375 
L 345.164374 265.472243 
L 345.600108 265.390112 
L 345.616246 265.30798 
L 345.713076 265.390112 
L 345.793767 265.30798 
L 345.922874 265.225848 
L 346.068118 265.143717 
L 346.181086 264.979453 
L 346.197225 265.061585 
L 346.261778 264.979453 
L 346.390884 264.897322 
L 346.568406 264.81519 
L 346.584544 264.733058 
L 346.681374 264.81519 
L 346.971863 264.733058 
L 347.117108 264.568795 
L 347.940161 264.650927 
L 347.972437 264.733058 
L 348.053129 264.650927 
L 349.666958 264.733058 
L 349.683097 264.81519 
L 349.779926 264.733058 
L 351.16782 264.81519 
L 351.264649 264.897322 
L 351.280788 264.81519 
L 353.362628 264.733058 
L 353.394904 264.650927 
L 353.443319 264.81519 
L 353.475596 264.733058 
L 354.702106 264.650927 
L 354.815074 264.568795 
L 354.831213 264.650927 
L 354.879628 264.486663 
L 354.928042 264.568795 
L 355.024872 264.486663 
L 355.041011 264.568795 
L 355.121702 264.568795 
L 355.13784 264.404532 
L 355.3315 228.348729 
L 355.79951 191.800137 
L 355.89634 178.248411 
L 355.944755 68.849028 
L 356.009308 123.54872 
L 356.154553 190.157503 
L 356.170691 189.99324 
L 356.364351 183.833365 
L 356.800085 172.745589 
L 356.864638 71.312978 
L 356.945329 122.398876 
L 357.122851 183.833365 
L 357.284234 185.311735 
L 357.494031 185.804525 
L 357.542446 185.722393 
L 357.590861 185.804525 
L 357.703829 186.133051 
L 357.719968 186.05092 
L 357.865212 185.968788 
L 358.187978 184.901076 
L 358.236393 184.818945 
L 358.768957 181.533678 
L 359.043308 177.67349 
L 359.172414 171.924273 
L 359.236967 68.027712 
L 359.30152 109.257809 
L 359.49518 184.07976 
L 359.672701 186.461578 
L 359.898637 187.200763 
L 359.914776 187.118631 
L 360.092297 187.200763 
L 360.140712 187.282895 
L 360.172988 187.118631 
L 360.189127 187.118631 
L 360.25368 187.0365 
L 360.528031 186.215183 
L 360.640999 186.133051 
L 360.834658 185.475998 
L 360.866935 185.55813 
L 360.947627 185.475998 
L 361.092871 185.06534 
L 361.125148 185.147471 
L 361.173563 185.06534 
L 361.383361 184.57255 
L 361.447914 184.490418 
L 361.722265 183.669101 
L 361.786818 183.58697 
L 362.028892 182.929916 
L 362.125722 182.847785 
L 362.43235 181.862205 
L 362.496903 181.780073 
L 363.303818 178.248411 
L 363.352233 178.330543 
L 363.384509 178.084148 
L 363.56203 173.977564 
L 363.626584 66.96 
L 363.707275 119.195741 
L 363.884796 183.012048 
L 364.046179 185.147471 
L 364.143009 185.229603 
L 364.304392 185.475998 
L 364.336669 185.55813 
L 364.352807 185.640261 
L 364.433498 185.55813 
L 364.449637 185.475998 
L 364.530328 185.640261 
L 364.836956 185.722393 
L 364.853094 185.804525 
L 364.885371 185.640261 
L 364.917647 185.640261 
L 365.304966 184.244023 
L 365.595456 184.161891 
L 366.257126 181.369415 
L 366.321679 181.451546 
L 366.370094 181.61581 
L 366.418509 181.369415 
L 366.773551 180.13744 
L 366.805828 180.219571 
L 366.838104 179.973176 
L 366.967211 179.64465 
L 366.999487 179.726781 
L 367.015626 179.808913 
L 367.06404 179.64465 
L 367.080179 179.64465 
L 367.225423 179.480386 
L 367.273838 179.398255 
L 367.45136 178.65907 
L 367.628881 177.1807 
L 367.854817 175.866593 
L 367.887093 175.784461 
L 367.967785 174.306091 
L 368.000062 168.474743 
L 368.064615 68.109843 
L 368.129168 107.368781 
L 368.338966 182.190731 
L 368.516487 184.07976 
L 368.694008 184.490418 
L 368.806976 184.408286 
L 368.952221 184.57255 
L 369.000636 184.408286 
L 369.081327 184.490418 
L 369.194295 184.654681 
L 369.210434 184.57255 
L 369.24271 184.57255 
L 369.323402 184.408286 
L 369.355678 184.490418 
L 369.387955 184.736813 
L 369.484785 184.57255 
L 369.581614 184.490418 
L 369.839827 183.751233 
L 369.952795 183.669101 
L 370.501497 181.451546 
L 370.533774 181.369415 
L 370.695157 180.63023 
L 370.808125 180.712361 
L 371.114753 179.726781 
L 371.163167 179.64465 
L 371.308412 179.398255 
L 371.32455 179.480386 
L 371.389104 179.233991 
L 371.405242 179.316123 
L 371.534348 179.398255 
L 371.679593 179.808913 
L 371.744146 179.64465 
L 371.808699 179.726781 
L 371.857114 179.64465 
L 371.970082 179.398255 
L 372.002359 179.480386 
L 372.08305 179.398255 
L 372.551061 177.509226 
L 372.567199 177.591358 
L 372.615614 177.344963 
L 372.825412 175.866593 
L 372.922242 172.417063 
L 372.986795 67.617053 
L 373.067486 112.296681 
L 373.261146 180.301703 
L 373.454805 182.1086 
L 373.69688 182.765653 
L 373.858263 182.683521 
L 373.955092 182.519258 
L 373.971231 182.60139 
L 374.051922 182.765653 
L 374.084199 182.683521 
L 374.374688 181.780073 
L 374.45538 181.697941 
L 374.616763 181.369415 
L 374.713592 181.451546 
L 374.729731 181.369415 
L 374.842699 181.287283 
L 375.068635 180.712361 
L 375.100911 180.794493 
L 375.197741 180.958756 
L 375.230018 180.876625 
L 375.262294 180.794493 
L 375.617337 179.562518 
L 375.665752 179.480386 
L 375.827135 178.823333 
L 375.859411 178.905465 
L 375.891688 178.987596 
L 375.940103 178.741201 
L 376.149901 178.16628 
L 376.182177 178.248411 
L 376.262869 178.16628 
L 376.295145 178.084148 
L 376.698603 176.605778 
L 376.779294 176.68791 
L 376.795432 176.605778 
L 377.118198 174.388223 
L 377.182752 172.663458 
L 377.215028 142.849662 
L 377.263443 68.274107 
L 377.327996 101.865959 
L 377.537794 178.330543 
L 377.683039 180.465966 
L 377.699177 180.383835 
L 377.95739 181.12302 
L 378.054219 181.205151 
L 378.215602 181.451546 
L 378.393124 181.369415 
L 378.538368 181.205151 
L 378.586783 181.12302 
L 378.877273 180.219571 
L 378.941826 180.13744 
L 378.990241 180.055308 
L 379.022517 180.219571 
L 379.038655 180.219571 
L 379.167762 180.13744 
L 379.474389 179.15186 
L 379.522804 179.069728 
L 379.668049 178.905465 
L 379.74874 178.823333 
L 379.990815 178.16628 
L 380.023091 178.084148 
L 380.216751 177.016436 
L 380.232889 177.098568 
L 380.297442 176.852173 
L 380.426549 176.770041 
L 380.491102 176.852173 
L 380.571794 177.016436 
L 380.620208 176.934305 
L 380.684762 176.852173 
L 380.846145 176.523646 
L 380.862283 176.605778 
L 380.910698 176.277251 
L 380.959113 176.19512 
L 381.394847 173.402643 
L 381.540091 170.281639 
L 381.572368 138.168157 
L 381.620783 67.94558 
L 381.685336 101.044643 
L 381.911272 179.398255 
L 382.104932 181.287283 
L 382.185623 181.369415 
L 382.395421 181.862205 
L 382.459974 181.944336 
L 382.605219 182.1086 
L 382.702048 182.026468 
L 382.944123 181.369415 
L 383.121644 181.451546 
L 383.234612 181.780073 
L 383.283027 181.697941 
L 383.379857 181.780073 
L 383.395995 181.862205 
L 383.44441 181.697941 
L 383.460548 181.697941 
L 383.670346 181.205151 
L 383.702623 181.12302 
L 383.912421 180.63023 
L 383.944697 180.548098 
L 384.089942 180.219571 
L 384.10608 180.301703 
L 384.154495 180.219571 
L 384.348155 179.808913 
L 384.380431 179.726781 
L 384.477261 179.480386 
L 384.525676 179.562518 
L 384.735474 179.480386 
L 384.896857 179.069728 
L 384.912995 179.15186 
L 384.993686 179.069728 
L 385.042101 178.987596 
L 385.106654 179.069728 
L 385.171208 178.987596 
L 385.300314 178.65907 
L 385.332591 178.741201 
L 385.364867 178.905465 
L 385.42942 178.741201 
L 386.123367 174.716749 
L 386.317027 170.117376 
L 386.38158 69.670345 
L 386.47841 118.374425 
L 386.672069 178.002016 
L 386.833452 179.562518 
L 386.84959 179.480386 
L 386.898005 179.808913 
L 387.107803 180.465966 
L 387.123941 180.383835 
L 387.172356 180.465966 
L 387.349877 180.794493 
L 387.527399 180.465966 
L 387.688782 180.383835 
L 387.882441 179.973176 
L 387.979271 179.973176 
L 388.140654 180.63023 
L 388.318175 180.301703 
L 388.415005 180.383835 
L 388.431143 180.301703 
L 388.527973 180.219571 
L 388.657079 180.13744 
L 388.689356 180.219571 
L 388.737771 180.055308 
L 388.753909 180.055308 
L 389.012122 179.316123 
L 389.076675 179.316123 
L 389.238058 178.741201 
L 390.077249 173.895433 
L 390.319324 169.049664 
L 390.3516 129.051542 
L 390.400015 69.259687 
L 390.464568 102.358749 
L 390.674366 176.19512 
L 390.835749 178.248411 
L 390.868026 178.330543 
L 391.142377 179.15186 
L 391.158515 179.15186 
L 391.174653 178.987596 
L 391.271483 179.069728 
L 391.352175 178.905465 
L 391.384451 179.069728 
L 391.497419 178.987596 
L 391.513558 178.905465 
L 391.594249 179.069728 
L 391.739494 178.987596 
L 391.96543 178.412675 
L 392.078398 178.330543 
L 392.417302 177.1807 
L 392.449579 177.1807 
L 392.610962 176.523646 
L 392.659377 176.441515 
L 392.869174 175.373803 
L 392.885313 175.373803 
L 393.175802 173.484774 
L 393.627674 170.610166 
L 393.724504 168.064084 
L 393.756781 137.100445 
L 393.805196 69.834608 
L 393.869749 96.609532 
L 394.111823 175.538066 
L 394.305483 178.084148 
L 394.499142 179.069728 
L 394.547557 179.15186 
L 394.757355 179.64465 
L 394.967153 179.726781 
L 395.015568 179.891045 
L 395.080121 179.808913 
L 395.386749 178.823333 
L 395.419025 178.741201 
L 395.56427 178.576938 
L 395.612685 178.576938 
L 395.757929 178.16628 
L 395.806344 178.084148 
L 395.967727 177.591358 
L 396.000004 177.67349 
L 396.096833 177.591358 
L 396.290493 176.68791 
L 396.32277 176.605778 
L 396.726227 175.127408 
L 396.758504 175.045276 
L 397.048993 173.813301 
L 397.097408 173.895433 
L 397.129684 173.977564 
L 397.161961 173.813301 
L 397.517003 169.542454 
L 397.565418 163.711106 
L 397.629972 70.081003 
L 397.710663 105.808279 
L 397.936599 174.963144 
L 398.130259 177.509226 
L 398.162535 177.591358 
L 398.501439 178.741201 
L 398.582131 178.823333 
L 398.727376 178.987596 
L 398.904897 178.905465 
L 399.050142 178.741201 
L 399.211524 178.65907 
L 399.453599 178.002016 
L 399.582705 177.919885 
L 399.744088 177.591358 
L 399.857056 177.67349 
L 399.889333 177.591358 
L 399.953886 177.755621 
L 400.018439 177.67349 
L 400.438035 176.112988 
L 400.470311 176.030856 
L 401.196535 171.842141 
L 401.406333 167.571294 
L 401.487024 70.081003 
L 401.583854 117.470976 
L 401.777513 173.484774 
L 401.955035 176.112988 
L 402.229386 177.837753 
L 402.358492 178.084148 
L 402.37463 178.002016 
L 402.439183 177.919885 
L 402.519875 177.837753 
L 402.552152 177.919885 
L 402.842641 177.837753 
L 403.068577 177.262831 
L 403.100854 177.1807 
L 403.294513 176.770041 
L 403.342928 176.68791 
L 403.455896 176.523646 
L 403.472034 176.605778 
L 403.923907 176.523646 
L 404.053013 176.441515 
L 404.165981 176.523646 
L 404.214396 176.605778 
L 404.278949 176.523646 
L 404.359641 176.605778 
L 404.424194 176.68791 
L 404.472609 176.605778 
L 404.521024 176.523646 
L 404.730821 175.70233 
L 404.779236 175.784461 
L 404.843789 175.866593 
L 404.892204 175.784461 
L 405.102002 175.70233 
L 405.344077 175.045276 
L 405.392492 174.963144 
L 405.50546 174.470354 
L 405.537736 174.552486 
L 405.602289 174.470354 
L 406.005747 171.842141 
L 406.215545 168.721138 
L 406.296236 164.039633 
L 406.376928 71.148715 
L 406.441481 103.180066 
L 406.667417 174.223959 
L 406.861076 177.1807 
L 407.280672 178.741201 
L 407.442055 178.65907 
L 407.571161 178.330543 
L 407.813236 178.412675 
L 407.893927 178.494806 
L 407.926204 178.412675 
L 408.119863 178.494806 
L 408.200555 178.65907 
L 408.24897 178.576938 
L 408.3458 178.494806 
L 408.523321 178.16628 
L 408.604012 178.16628 
L 408.797672 177.262831 
L 409.104299 176.277251 
L 409.152714 176.19512 
L 409.749831 173.731169 
L 409.798246 173.649038 
L 409.927352 173.074116 
L 409.975767 173.320511 
L 410.395363 173.238379 
L 410.944065 169.870981 
L 411.105448 163.054053 
L 411.186139 71.148715 
L 411.250693 101.783828 
L 411.476629 174.059696 
L 411.65415 176.934305 
L 411.896224 178.330543 
L 412.057607 178.576938 
L 412.138299 178.494806 
L 412.267405 178.330543 
L 412.299682 178.412675 
L 412.348097 178.248411 
L 412.364235 178.248411 
L 412.525618 178.16628 
L 412.590171 178.084148 
L 412.622448 178.248411 
L 412.703139 178.576938 
L 412.767692 178.494806 
L 412.97749 178.002016 
L 413.058182 177.919885 
L 413.203426 177.755621 
L 413.300256 177.67349 
L 413.477777 177.016436 
L 413.510054 177.1807 
L 413.752128 177.098568 
L 414.252416 175.127408 
L 414.316969 175.045276 
L 414.462213 174.881013 
L 414.510628 174.798881 
L 414.801118 173.895433 
L 414.833394 173.813301 
L 415.382096 167.242768 
L 415.414373 159.111732 
L 415.478926 70.90232 
L 415.543479 97.923639 
L 415.785554 174.223959 
L 415.979213 176.852173 
L 416.189011 177.919885 
L 416.414947 178.494806 
L 416.544053 178.412675 
L 416.76999 178.412675 
L 416.931373 177.837753 
L 416.963649 177.919885 
L 417.012064 177.67349 
L 417.060479 177.591358 
L 417.286415 177.016436 
L 417.399383 176.934305 
L 417.818979 175.373803 
L 417.851255 175.291671 
L 418.109468 174.552486 
L 418.238574 174.470354 
L 418.56134 173.402643 
L 418.577479 173.484774 
L 418.625894 173.320511 
L 418.642032 173.320511 
L 419.126181 170.281639 
L 419.335979 166.503583 
L 419.368255 151.144961 
L 419.432808 71.066583 
L 419.497362 98.744956 
L 419.787851 196.810168 
L 420.046064 216.357506 
L 420.433383 230.730548 
L 420.83684 239.682899 
L 421.224159 245.349985 
L 421.627616 249.867226 
L 421.788999 251.263465 
L 422.224733 254.630863 
L 422.757297 257.91613 
L 422.950957 258.819578 
L 423.67718 261.940582 
L 423.709457 262.022713 
L 424.145191 263.665347 
L 424.177467 263.747478 
L 424.451818 264.568795 
L 424.500233 264.650927 
L 424.758446 265.390112 
L 424.855276 265.472243 
L 425.129627 266.29356 
L 425.145765 266.211429 
L 425.178041 266.375692 
L 425.210318 266.375692 
L 425.436254 266.950614 
L 425.549222 267.032745 
L 425.726743 267.361272 
L 425.839712 267.443404 
L 426.017233 267.77193 
L 426.097924 267.854062 
L 426.259307 268.100457 
L 426.32386 268.182589 
L 426.501382 268.511115 
L 426.51752 268.428984 
L 426.582073 268.593247 
L 426.598211 268.593247 
L 426.727318 268.675379 
L 426.824148 268.75751 
L 426.98553 269.003905 
L 427.033945 269.086037 
L 427.163052 269.168169 
L 427.243743 269.2503 
L 427.388988 269.496695 
L 427.421264 269.414564 
L 427.501956 269.496695 
L 428.131349 269.578827 
L 428.276594 269.74309 
L 429.148062 269.825222 
L 429.1642 269.907354 
L 429.244892 269.825222 
L 429.341722 269.74309 
L 429.35786 269.825222 
L 429.729041 269.907354 
L 429.793594 269.989485 
L 429.842009 269.907354 
L 430.697338 269.825222 
L 430.826445 269.74309 
L 431.310594 269.660959 
L 431.375147 269.578827 
L 431.423562 269.660959 
L 431.4397 269.74309 
L 431.520391 269.660959 
L 431.649498 269.578827 
L 432.036817 269.496695 
L 432.165923 269.414564 
L 432.633934 269.332432 
L 432.76304 269.2503 
L 433.392434 269.168169 
L 433.52154 269.086037 
L 433.795891 269.003905 
L 433.860444 268.839642 
L 433.908859 268.921774 
L 433.989551 269.003905 
L 434.021827 268.921774 
L 434.74805 268.839642 
L 434.877157 268.75751 
L 435.232199 268.675379 
L 435.377444 268.511115 
L 435.458135 268.593247 
L 435.490412 268.511115 
L 435.780901 268.511115 
L 435.780901 268.511115 
" style="fill:none;stroke:#1f77b4;stroke-linecap:square;stroke-width:1.5;"/>
   </g>
   <g id="line2d_15">
    <path clip-path="url(#pcf2354a80a)" d="M 80.754545 261.102839 
L 81.56146 257.486417 
L 83.288258 252.440247 
L 84.30497 250.573165 
L 84.708428 250.001265 
L 85.031194 249.580751 
L 86.741853 247.949156 
L 86.903236 247.848233 
L 87.322832 247.562283 
L 87.516491 247.46136 
L 87.855395 247.259513 
L 88.081331 247.15859 
L 88.371821 247.007205 
L 88.630034 246.906281 
L 88.888246 246.788537 
L 88.904385 246.788537 
L 89.743576 230.792179 
L 90.631182 217.840344 
L 91.583342 207.293849 
L 92.648469 198.345308 
L 93.58449 190.708771 
L 93.77815 187.008246 
L 93.826565 184.350597 
L 93.939533 203.122349 
L 94.052501 203.122349 
L 94.181607 209.665549 
L 94.811001 236.914865 
L 95.391979 253.752251 
L 95.95682 264.265105 
L 96.440968 269.731789 
L 96.876702 272.4399 
L 97.215607 273.381852 
L 97.409266 273.533237 
L 97.619064 273.432313 
L 97.828862 273.062261 
L 98.425979 270.841946 
L 99.119925 266.636805 
L 100.281883 257.351853 
L 101.718191 244.450479 
L 103.348159 230.203459 
L 106.704924 206.503282 
L 109.30319 192.390828 
L 109.593679 189.514511 
L 109.738924 185.830807 
L 109.755062 184.821573 
L 109.86803 203.122349 
L 109.997136 203.122349 
L 110.642668 233.920804 
L 111.255923 253.365378 
L 111.836902 265.139774 
L 112.401742 271.85118 
L 112.837476 274.559291 
L 113.160242 275.467602 
L 113.450732 275.618987 
L 113.789636 275.11437 
L 114.047848 274.323803 
L 114.644965 271.380204 
L 115.484157 265.459365 
L 117.259369 249.732136 
L 119.502592 229.732484 
L 121.068007 217.604856 
L 124.037453 199.724594 
L 125.473761 191.650723 
L 125.748112 188.101583 
L 125.828804 185.04024 
L 125.941772 203.122349 
L 126.070878 203.122349 
L 126.71641 233.937625 
L 127.329665 253.39902 
L 127.910644 265.173416 
L 128.410931 271.312922 
L 128.830527 274.239701 
L 129.153293 275.366678 
L 129.427644 275.686269 
L 129.621303 275.585346 
L 129.847239 275.198473 
L 130.12159 274.374265 
L 130.718707 271.430666 
L 131.557899 265.493006 
L 132.267984 259.504885 
L 135.318121 231.935978 
L 137.157887 217.520753 
L 138.384398 209.379599 
L 139.659323 202.096294 
L 141.547503 191.667543 
L 141.789578 188.824868 
L 141.902546 185.258908 
L 141.918684 183.930083 
L 142.031652 203.122349 
L 142.14462 203.122349 
L 142.273727 209.850575 
L 142.919259 238.411895 
L 143.532514 256.258516 
L 144.081216 266.418137 
L 144.565365 271.868001 
L 145.08179 274.845241 
L 145.404556 275.518064 
L 145.598216 275.568525 
L 145.93712 275.080729 
L 146.50196 272.961338 
L 147.179768 268.85712 
L 148.277173 260.043143 
L 149.487545 249.025672 
L 151.666215 229.63156 
L 153.215491 217.638497 
L 153.457565 215.93962 
L 153.489842 216.393775 
L 154.183789 224.921802 
L 154.974565 232.00326 
L 155.78148 237.099891 
L 156.53998 240.464005 
L 157.718075 243.794477 
L 158.460437 245.08966 
L 159.961298 246.502588 
L 160.171096 246.603511 
L 160.445447 246.738076 
L 160.768213 246.838999 
L 160.978011 246.906281 
L 161.655819 247.007205 
L 161.817202 247.024025 
L 164.044287 246.923102 
L 164.221808 246.889461 
L 164.948031 246.788537 
L 165.125553 246.754896 
L 165.754946 246.653973 
L 165.932467 246.620332 
L 166.545723 246.519408 
L 166.723244 246.485767 
L 167.336499 246.384844 
L 167.51402 246.351203 
L 168.159552 246.250279 
L 168.337073 246.216638 
L 169.047158 246.115715 
L 169.22468 246.082073 
L 169.515169 246.048432 
L 169.531307 261.102839 
L 169.628137 260.615042 
L 170.338222 257.486417 
L 172.06502 252.440247 
L 173.081732 250.573165 
L 173.48519 250.001265 
L 173.807956 249.580751 
L 175.518615 247.949156 
L 175.679998 247.848233 
L 176.099593 247.562283 
L 176.293253 247.46136 
L 176.632157 247.259513 
L 176.858093 247.15859 
L 177.148583 247.007205 
L 177.406795 246.906281 
L 177.665008 246.788537 
L 177.681146 246.788537 
L 178.633306 223.105181 
L 179.601604 205.208099 
L 180.731284 185.881269 
L 180.747422 184.72065 
L 180.860391 203.122349 
L 180.989497 203.122349 
L 181.61889 228.639147 
L 182.199869 243.979503 
L 182.716294 252.557991 
L 183.200443 257.250929 
L 183.620039 259.218935 
L 183.862113 259.65627 
L 184.152603 259.572167 
L 184.604475 258.377907 
L 185.1209 255.753899 
L 185.814847 250.74137 
L 186.960666 240.278978 
L 189.429825 215.704132 
L 191.430974 197.975255 
L 192.173335 190.860156 
L 192.366995 186.671835 
L 192.399272 184.838394 
L 192.51224 203.122349 
L 192.641346 203.122349 
L 193.27074 230.943564 
L 193.867856 248.167824 
L 194.432697 258.192881 
L 194.884569 262.852178 
L 195.288026 264.988389 
L 195.578516 265.577109 
L 195.869005 265.476186 
L 196.272462 264.39967 
L 196.77275 261.842944 
L 197.418281 257.116365 
L 198.386579 248.117362 
L 202.437291 207.04154 
L 204.131812 192.003955 
L 204.373887 188.084763 
L 204.454578 184.316956 
L 204.567546 203.122349 
L 204.680514 203.122349 
L 204.809621 209.379599 
L 205.455152 235.56922 
L 206.068408 251.346911 
L 206.584833 259.437603 
L 207.052844 263.575462 
L 207.407886 265.106133 
L 207.633822 265.476186 
L 207.795205 265.493006 
L 208.085695 265.038851 
L 208.311631 264.315567 
L 208.569843 263.154948 
L 208.860333 261.489712 
L 209.45745 257.082723 
L 210.425747 248.100541 
L 214.460321 207.209746 
L 216.413055 188.118404 
L 216.493746 184.468341 
L 216.606714 203.122349 
L 216.719682 203.122349 
L 216.848789 209.379599 
L 217.494321 235.56922 
L 218.059161 250.388138 
L 218.575586 258.865703 
L 219.027459 263.188589 
L 219.447054 265.139774 
L 219.753682 265.543468 
L 219.915065 265.459365 
L 220.383075 264.231464 
L 220.851086 261.826123 
L 221.496618 257.099544 
L 222.013043 252.52435 
L 223.36866 238.765127 
L 226.547904 206.789232 
L 228.452223 188.168866 
L 228.532915 184.636547 
L 228.645883 203.122349 
L 228.774989 203.122349 
L 229.404382 230.876282 
L 229.985361 247.680027 
L 230.56634 258.041496 
L 231.018212 262.667151 
L 231.357116 264.584696 
L 231.728297 265.392083 
L 231.873542 265.408904 
L 232.164031 264.971569 
L 232.64818 263.104486 
L 232.938669 261.43925 
L 233.551924 256.914518 
L 234.53636 247.780951 
L 238.538658 207.226567 
L 240.50753 187.731531 
L 240.572083 184.653367 
L 240.685051 203.122349 
L 240.814157 203.122349 
L 241.443551 230.876282 
L 242.024529 247.680027 
L 242.331157 256.544465 
L 242.992827 281.321159 
L 243.622221 297.149311 
L 244.235476 307.123907 
L 244.768039 312.472847 
L 245.268327 315.332343 
L 245.623369 316.358397 
L 245.89772 316.677988 
L 246.042965 316.711629 
L 246.059103 316.694809 
L 246.236624 316.593885 
L 246.55939 316.106089 
L 246.962848 315.029573 
L 248.302326 308.974169 
L 250.771485 294.222533 
L 251.691368 288.839952 
L 252.595113 283.877885 
L 254.257357 275.804013 
L 256.210091 268.133835 
L 258.291931 261.876585 
L 258.421037 260.530939 
L 259.114984 257.486417 
L 260.841781 252.440247 
L 261.858494 250.573165 
L 262.261951 250.001265 
L 262.584717 249.580751 
L 264.295377 247.949156 
L 264.45676 247.848233 
L 264.876355 247.562283 
L 265.070015 247.46136 
L 265.408919 247.259513 
L 265.634855 247.15859 
L 265.925344 247.007205 
L 266.183557 246.906281 
L 266.44177 246.788537 
L 266.457908 246.788537 
L 267.345514 213.517458 
L 268.233121 184.804752 
L 268.346089 203.122349 
L 268.475195 203.122349 
L 269.040035 219.253271 
L 269.524184 227.899042 
L 269.976057 232.575159 
L 270.331099 234.39178 
L 270.589312 234.862756 
L 270.815248 234.761833 
L 270.960493 234.475883 
L 271.380088 232.810647 
L 271.815822 229.967971 
L 272.380663 225.056366 
L 273.171439 216.612442 
L 274.801407 196.646431 
L 275.253279 189.632255 
L 275.382385 184.367418 
L 275.495354 203.122349 
L 275.608322 203.122349 
L 275.737428 208.673135 
L 276.318407 229.379252 
L 276.883247 241.742368 
L 277.367396 247.646386 
L 277.738577 249.84988 
L 277.980651 250.404959 
L 278.238864 250.320856 
L 278.545491 249.429366 
L 278.916672 247.427719 
L 279.352406 244.013144 
L 279.901108 238.512819 
L 281.159895 222.819231 
L 283.48381 189.968666 
L 283.629054 183.862801 
L 283.742022 203.122349 
L 283.85499 203.122349 
L 283.984097 208.572212 
L 284.548937 228.470941 
L 285.113777 240.766775 
L 285.597926 246.637152 
L 285.969107 248.840646 
L 286.211182 249.395725 
L 286.356426 249.429366 
L 286.372564 249.412545 
L 286.598501 249.042493 
L 286.953543 247.612745 
L 287.599075 242.919807 
L 288.470543 233.702137 
L 289.454979 221.137174 
L 291.682064 189.598614 
L 291.81117 183.896442 
L 291.924138 203.122349 
L 292.037106 203.122349 
L 292.166212 208.589032 
L 292.763329 229.379252 
L 293.295893 240.817236 
L 293.780042 246.687614 
L 294.151223 248.907929 
L 294.441712 249.479828 
L 294.55468 249.479828 
L 294.570818 249.463007 
L 294.780616 249.092955 
L 294.974276 248.436953 
L 295.329318 246.519408 
L 296.039403 240.531287 
L 297.056116 228.790532 
L 298.589254 208.2358 
L 299.880318 189.295843 
L 299.993286 184.316956 
L 300.106254 203.122349 
L 300.219222 203.122349 
L 300.348328 208.589032 
L 300.913168 228.538223 
L 301.429594 240.077131 
L 301.865328 245.913868 
L 302.284924 248.823826 
L 302.575413 249.563931 
L 302.720658 249.597572 
L 302.736796 249.580751 
L 302.833626 249.479828 
L 302.97887 249.177058 
L 303.317774 247.797771 
L 303.979445 242.970269 
L 304.818636 234.08901 
L 306.819784 207.680722 
L 308.062433 189.464049 
L 308.175401 184.972958 
L 308.288369 203.122349 
L 308.417476 203.122349 
L 309.014593 225.964677 
L 309.579433 239.370668 
L 310.063582 245.98115 
L 310.467039 248.773364 
L 310.757529 249.54711 
L 311.03188 249.463007 
L 311.338507 248.571517 
L 311.709688 246.56987 
L 312.145422 243.172116 
L 313.01689 233.971266 
L 314.001326 221.406303 
L 316.244549 189.649075 
L 316.373655 184.13193 
L 316.486623 203.122349 
L 316.599591 203.122349 
L 316.728698 208.589032 
L 317.325815 229.396072 
L 317.858378 240.834057 
L 318.294112 246.300741 
L 318.665293 248.756543 
L 319.020336 249.530289 
L 319.197857 249.429366 
L 319.343102 249.143416 
L 319.714282 247.629566 
L 320.343676 243.020731 
L 320.892378 237.520405 
L 322.183442 221.439945 
L 323.442229 204.316609 
L 324.442803 189.346305 
L 324.555771 184.552444 
L 324.668739 203.122349 
L 324.797845 203.122349 
L 325.378824 225.409598 
L 325.927526 238.681025 
L 326.379398 245.190583 
L 326.798994 248.403312 
L 327.089483 249.328443 
L 327.267004 249.446187 
L 327.541356 249.025672 
L 327.896398 247.579104 
L 328.54193 242.852525 
L 329.074494 237.503585 
L 329.832993 228.4373 
L 331.011089 212.710071 
L 331.059504 214.106178 
L 331.785727 231.41454 
L 332.479674 243.00391 
L 333.060652 249.917162 
L 333.835291 256.157592 
L 334.448546 259.303038 
L 334.98111 261.069198 
L 335.788024 262.498946 
L 336.223758 262.801716 
L 337.127503 262.700792 
L 337.643928 262.313919 
L 337.756896 262.212996 
L 338.870439 260.900992 
L 339.257758 260.345913 
L 339.645077 259.790835 
L 340.096949 259.101191 
L 340.435853 258.596574 
L 340.903864 257.87329 
L 341.258906 257.351853 
L 341.69464 256.69585 
L 342.098098 256.123951 
L 342.485417 255.568873 
L 342.985704 254.89605 
L 343.324608 254.441895 
L 344.1638 253.41584 
L 344.438151 253.096249 
L 347.068693 250.505882 
L 347.084831 261.102839 
L 347.181661 260.615042 
L 347.891746 257.486417 
L 349.618543 252.440247 
L 350.635256 250.573165 
L 351.038713 250.001265 
L 351.361479 249.580751 
L 353.072139 247.949156 
L 353.233521 247.848233 
L 353.653117 247.562283 
L 353.846777 247.46136 
L 354.185681 247.259513 
L 354.411617 247.15859 
L 354.702106 247.007205 
L 354.960319 246.906281 
L 355.218532 246.788537 
L 355.23467 246.788537 
L 356.025447 185.258908 
L 356.138415 203.122349 
L 356.267521 203.122349 
L 356.65484 199.505927 
L 357.090574 193.299138 
L 357.332648 187.294196 
L 357.381063 183.980545 
L 357.494031 203.122349 
L 357.606999 203.122349 
L 357.736106 207.764825 
L 358.236393 221.641791 
L 358.63985 227.528989 
L 358.946478 229.429713 
L 359.123999 229.665201 
L 359.204691 229.581098 
L 359.39835 228.941917 
L 359.704978 226.755243 
L 360.124574 221.843638 
L 360.802382 210.338371 
L 361.657712 191.213388 
L 361.802956 184.636547 
L 361.915924 203.122349 
L 362.045031 203.122349 
L 362.545318 216.107825 
L 362.932637 221.372662 
L 363.255403 223.138822 
L 363.400647 223.273386 
L 363.416786 223.256566 
L 363.578169 222.936975 
L 363.884796 221.204457 
L 364.304392 216.83111 
L 364.804679 209.261855 
L 365.611594 193.013188 
L 365.821392 185.443934 
L 365.83753 183.812339 
L 365.950498 203.122349 
L 366.063466 203.122349 
L 366.208711 207.63026 
L 366.676721 218.546807 
L 367.047902 223.004257 
L 367.338391 224.349903 
L 367.483636 224.417185 
L 367.515913 224.383544 
L 367.725711 223.727542 
L 368.032338 221.59133 
L 368.48421 216.326493 
L 369.162019 204.854867 
L 369.791412 191.028362 
L 369.936657 184.333777 
L 370.049625 203.122349 
L 370.162593 203.122349 
L 370.307838 207.61344 
L 370.775848 218.479525 
L 371.179306 223.122001 
L 371.437518 224.215338 
L 371.566625 224.299441 
L 371.582763 224.28262 
L 371.728008 223.97985 
L 372.034635 222.247332 
L 372.454231 217.873985 
L 372.954518 210.30473 
L 373.761433 194.123346 
L 374.003507 186.301783 
L 374.019646 185.090702 
L 374.132614 203.122349 
L 374.26172 203.122349 
L 374.729731 215.973261 
L 375.149326 222.163229 
L 375.472092 224.148056 
L 375.649613 224.349903 
L 375.665752 224.333082 
L 375.810996 224.047132 
L 376.020794 223.037898 
L 376.327422 220.464352 
L 376.795432 214.442589 
L 377.521656 201.37301 
L 378.070358 187.748351 
L 378.118773 184.619726 
L 378.231741 203.122349 
L 378.360847 203.122349 
L 378.861134 216.54516 
L 379.28073 222.348255 
L 379.587358 224.030312 
L 379.732602 224.198517 
L 379.74874 224.181697 
L 379.829432 224.080773 
L 380.006953 223.492054 
L 380.329719 221.221277 
L 380.765453 216.107825 
L 381.298017 207.411593 
L 382.072655 190.809694 
L 382.201761 185.174805 
L 382.314729 203.122349 
L 382.443836 203.122349 
L 382.911846 215.990081 
L 383.331442 222.19687 
L 383.63807 224.114415 
L 383.815591 224.383544 
L 383.831729 224.366723 
L 383.912421 224.28262 
L 384.10608 223.626618 
L 384.412708 221.456765 
L 384.848442 216.360134 
L 385.381005 207.680722 
L 386.155644 191.162926 
L 386.300888 184.821573 
L 386.413856 203.122349 
L 386.542963 203.122349 
L 387.04325 216.561981 
L 387.430569 222.095947 
L 387.737197 223.996671 
L 387.914718 224.248979 
L 388.092239 223.929388 
L 388.302037 222.920154 
L 388.608665 220.329787 
L 389.076675 214.291204 
L 389.802898 201.221625 
L 390.335462 188.168866 
L 390.400015 183.82916 
L 390.512983 203.122349 
L 390.625951 203.122349 
L 390.771196 207.61344 
L 391.255345 218.698192 
L 391.610387 222.852872 
L 391.900877 224.164876 
L 392.013845 224.248979 
L 392.046121 224.215338 
L 392.191366 223.912568 
L 392.385026 222.970616 
L 392.691653 220.41389 
L 393.159664 214.408948 
L 393.724504 204.585738 
L 394.337759 191.129285 
L 394.483004 184.754291 
L 394.595972 203.122349 
L 394.725078 203.122349 
L 395.225366 216.561981 
L 395.644961 222.381896 
L 395.951589 224.080773 
L 396.096833 224.248979 
L 396.12911 224.232159 
L 396.274355 223.929388 
L 396.484153 222.920154 
L 396.79078 220.329787 
L 397.258791 214.291204 
L 397.985014 201.221625 
L 398.517578 188.152045 
L 398.582131 183.795518 
L 398.695099 203.122349 
L 398.808067 203.122349 
L 398.953312 207.61344 
L 399.421322 218.445884 
L 399.792503 222.852872 
L 400.050716 224.114415 
L 400.19596 224.2658 
L 400.228237 224.232159 
L 400.373482 223.929388 
L 400.680109 222.19687 
L 401.099705 217.823523 
L 401.599992 210.237448 
L 402.245524 197.689306 
L 402.632843 187.075529 
L 402.66512 184.838394 
L 402.778088 203.122349 
L 402.907194 203.122349 
L 403.407481 216.578801 
L 403.827077 222.398717 
L 404.133704 224.097594 
L 404.295087 224.2658 
L 404.45647 223.963029 
L 404.763098 222.264152 
L 405.198832 217.7226 
L 405.699119 210.102883 
L 406.344651 197.5211 
L 406.73197 186.638194 
L 406.764247 183.980545 
L 406.877215 203.122349 
L 406.990183 203.122349 
L 407.135427 207.61344 
L 407.603438 218.462704 
L 408.006895 223.105181 
L 408.297385 224.232159 
L 408.394214 224.2658 
L 408.426491 224.232159 
L 408.652427 223.542515 
L 408.959055 221.389483 
L 409.394789 216.326493 
L 410.088735 204.619379 
L 410.701991 191.179747 
L 410.847235 184.888855 
L 410.960203 203.122349 
L 411.08931 203.122349 
L 411.589597 216.578801 
L 412.009193 222.398717 
L 412.283544 224.013491 
L 412.477203 224.2658 
L 412.638586 223.963029 
L 412.848384 222.953796 
L 413.155012 220.363428 
L 413.623022 214.324845 
L 414.187862 204.467994 
L 414.801118 190.961079 
L 414.946362 184.047827 
L 415.05933 203.122349 
L 415.172298 203.122349 
L 415.317543 207.61344 
L 415.785554 218.462704 
L 416.156734 222.886513 
L 416.447224 224.198517 
L 416.57633 224.28262 
L 416.592468 224.2658 
L 416.721575 223.996671 
L 416.931373 223.021078 
L 417.238 220.464352 
L 417.706011 214.47623 
L 418.432234 201.440292 
L 418.980936 187.933378 
L 419.029351 184.989779 
L 419.142319 203.122349 
L 419.271425 203.122349 
L 419.771713 216.595622 
L 419.803989 218.580448 
L 420.497936 278.310277 
L 421.159606 316.947117 
L 421.788999 341.336937 
L 422.386116 356.071753 
L 422.91868 363.977419 
L 423.338276 367.509738 
L 423.67718 368.956306 
L 423.983808 369.36 
L 424.161329 369.259077 
L 424.354988 368.905845 
L 424.580925 368.199381 
L 425.09735 365.575373 
L 425.726743 360.966538 
L 426.711179 351.83297 
L 430.745753 310.925355 
L 433.118083 292.05268 
L 435.409721 278.411201 
L 435.845455 276.274989 
L 435.845455 276.274989 
" style="fill:none;stroke:#ff0000;stroke-linecap:square;stroke-width:1.5;"/>
   </g>
   <g id="patch_3">
    <path d="M 63 384.48 
L 63 51.84 
" style="fill:none;stroke:#000000;stroke-linecap:square;stroke-linejoin:miter;stroke-width:0.8;"/>
   </g>
   <g id="patch_4">
    <path d="M 453.6 384.48 
L 453.6 51.84 
" style="fill:none;stroke:#000000;stroke-linecap:square;stroke-linejoin:miter;stroke-width:0.8;"/>
   </g>
   <g id="patch_5">
    <path d="M 63 384.48 
L 453.6 384.48 
" style="fill:none;stroke:#000000;stroke-linecap:square;stroke-linejoin:miter;stroke-width:0.8;"/>
   </g>
   <g id="patch_6">
    <path d="M 63 51.84 
L 453.6 51.84 
" style="fill:none;stroke:#000000;stroke-linecap:square;stroke-linejoin:miter;stroke-width:0.8;"/>
   </g>
   <g id="legend_1">
    <g id="patch_7">
     <path d="M 70 89.19625 
L 133.139062 89.19625 
Q 135.139062 89.19625 135.139062 87.19625 
L 135.139062 58.84 
Q 135.139062 56.84 133.139062 56.84 
L 70 56.84 
Q 68 56.84 68 58.84 
L 68 87.19625 
Q 68 89.19625 70 89.19625 
z
" style="fill:#ffffff;opacity:0.8;stroke:#cccccc;stroke-linejoin:miter;"/>
    </g>
    <g id="line2d_16">
     <path d="M 72 64.938437 
L 92 64.938437 
" style="fill:none;stroke:#1f77b4;stroke-linecap:square;stroke-width:1.5;"/>
    </g>
    <g id="line2d_17"/>
    <g id="text_16">
     <!-- target -->
     <defs>
      <path d="M 41.109375 46.296875 
Q 39.59375 47.171875 37.8125 47.578125 
Q 36.03125 48 33.890625 48 
Q 26.265625 48 22.1875 43.046875 
Q 18.109375 38.09375 18.109375 28.8125 
L 18.109375 0 
L 9.078125 0 
L 9.078125 54.6875 
L 18.109375 54.6875 
L 18.109375 46.1875 
Q 20.953125 51.171875 25.484375 53.578125 
Q 30.03125 56 36.53125 56 
Q 37.453125 56 38.578125 55.875 
Q 39.703125 55.765625 41.0625 55.515625 
z
" id="DejaVuSans-114"/>
     </defs>
     <g transform="translate(100 68.438437)scale(0.1 -0.1)">
      <use xlink:href="#DejaVuSans-116"/>
      <use x="39.208984" xlink:href="#DejaVuSans-97"/>
      <use x="100.488281" xlink:href="#DejaVuSans-114"/>
      <use x="141.585938" xlink:href="#DejaVuSans-103"/>
      <use x="205.0625" xlink:href="#DejaVuSans-101"/>
      <use x="266.585938" xlink:href="#DejaVuSans-116"/>
     </g>
    </g>
    <g id="line2d_18">
     <path d="M 72 79.616562 
L 92 79.616562 
" style="fill:none;stroke:#ff0000;stroke-linecap:square;stroke-width:1.5;"/>
    </g>
    <g id="line2d_19"/>
    <g id="text_17">
     <!-- model -->
     <defs>
      <path d="M 45.40625 46.390625 
L 45.40625 75.984375 
L 54.390625 75.984375 
L 54.390625 0 
L 45.40625 0 
L 45.40625 8.203125 
Q 42.578125 3.328125 38.25 0.953125 
Q 33.9375 -1.421875 27.875 -1.421875 
Q 17.96875 -1.421875 11.734375 6.484375 
Q 5.515625 14.40625 5.515625 27.296875 
Q 5.515625 40.1875 11.734375 48.09375 
Q 17.96875 56 27.875 56 
Q 33.9375 56 38.25 53.625 
Q 42.578125 51.265625 45.40625 46.390625 
z
M 14.796875 27.296875 
Q 14.796875 17.390625 18.875 11.75 
Q 22.953125 6.109375 30.078125 6.109375 
Q 37.203125 6.109375 41.296875 11.75 
Q 45.40625 17.390625 45.40625 27.296875 
Q 45.40625 37.203125 41.296875 42.84375 
Q 37.203125 48.484375 30.078125 48.484375 
Q 22.953125 48.484375 18.875 42.84375 
Q 14.796875 37.203125 14.796875 27.296875 
z
" id="DejaVuSans-100"/>
     </defs>
     <g transform="translate(100 83.116562)scale(0.1 -0.1)">
      <use xlink:href="#DejaVuSans-109"/>
      <use x="97.412109" xlink:href="#DejaVuSans-111"/>
      <use x="158.59375" xlink:href="#DejaVuSans-100"/>
      <use x="222.070312" xlink:href="#DejaVuSans-101"/>
      <use x="283.59375" xlink:href="#DejaVuSans-108"/>
     </g>
    </g>
   </g>
  </g>
 </g>
 <defs>
  <clipPath id="pcf2354a80a">
   <rect height="332.64" width="390.6" x="63" y="51.84"/>
  </clipPath>
 </defs>
</svg>
