<?xml version="1.0" encoding="utf-8" standalone="no"?>
<!DOCTYPE svg PUBLIC "-//W3C//DTD SVG 1.1//EN"
  "http://www.w3.org/Graphics/SVG/1.1/DTD/svg11.dtd">
<!-- Created with matplotlib (https://matplotlib.org/) -->
<svg height="432pt" version="1.1" viewBox="0 0 504 432" width="504pt" xmlns="http://www.w3.org/2000/svg" xmlns:xlink="http://www.w3.org/1999/xlink">
 <defs>
  <style type="text/css">
*{stroke-linecap:butt;stroke-linejoin:round;}
  </style>
 </defs>
 <g id="figure_1">
  <g id="patch_1">
   <path d="M 0 432 
L 504 432 
L 504 0 
L 0 0 
z
" style="fill:#ffffff;"/>
  </g>
  <g id="axes_1">
   <g id="patch_2">
    <path d="M 63 384.48 
L 453.6 384.48 
L 453.6 51.84 
L 63 51.84 
z
" style="fill:#ffffff;"/>
   </g>
   <g id="matplotlib.axis_1">
    <g id="xtick_1">
     <g id="line2d_1">
      <defs>
       <path d="M 0 0 
L 0 3.5 
" id="m9e59d2f6d1" style="stroke:#000000;stroke-width:0.8;"/>
      </defs>
      <g>
       <use style="stroke:#000000;stroke-width:0.8;" x="80.754545" xlink:href="#m9e59d2f6d1" y="384.48"/>
      </g>
     </g>
     <g id="text_1">
      <!-- 0 -->
      <defs>
       <path d="M 31.78125 66.40625 
Q 24.171875 66.40625 20.328125 58.90625 
Q 16.5 51.421875 16.5 36.375 
Q 16.5 21.390625 20.328125 13.890625 
Q 24.171875 6.390625 31.78125 6.390625 
Q 39.453125 6.390625 43.28125 13.890625 
Q 47.125 21.390625 47.125 36.375 
Q 47.125 51.421875 43.28125 58.90625 
Q 39.453125 66.40625 31.78125 66.40625 
z
M 31.78125 74.21875 
Q 44.046875 74.21875 50.515625 64.515625 
Q 56.984375 54.828125 56.984375 36.375 
Q 56.984375 17.96875 50.515625 8.265625 
Q 44.046875 -1.421875 31.78125 -1.421875 
Q 19.53125 -1.421875 13.0625 8.265625 
Q 6.59375 17.96875 6.59375 36.375 
Q 6.59375 54.828125 13.0625 64.515625 
Q 19.53125 74.21875 31.78125 74.21875 
z
" id="DejaVuSans-48"/>
      </defs>
      <g transform="translate(77.573295 399.078438)scale(0.1 -0.1)">
       <use xlink:href="#DejaVuSans-48"/>
      </g>
     </g>
    </g>
    <g id="xtick_2">
     <g id="line2d_2">
      <g>
       <use style="stroke:#000000;stroke-width:0.8;" x="151.772727" xlink:href="#m9e59d2f6d1" y="384.48"/>
      </g>
     </g>
     <g id="text_2">
      <!-- 200 -->
      <defs>
       <path d="M 19.1875 8.296875 
L 53.609375 8.296875 
L 53.609375 0 
L 7.328125 0 
L 7.328125 8.296875 
Q 12.9375 14.109375 22.625 23.890625 
Q 32.328125 33.6875 34.8125 36.53125 
Q 39.546875 41.84375 41.421875 45.53125 
Q 43.3125 49.21875 43.3125 52.78125 
Q 43.3125 58.59375 39.234375 62.25 
Q 35.15625 65.921875 28.609375 65.921875 
Q 23.96875 65.921875 18.8125 64.3125 
Q 13.671875 62.703125 7.8125 59.421875 
L 7.8125 69.390625 
Q 13.765625 71.78125 18.9375 73 
Q 24.125 74.21875 28.421875 74.21875 
Q 39.75 74.21875 46.484375 68.546875 
Q 53.21875 62.890625 53.21875 53.421875 
Q 53.21875 48.921875 51.53125 44.890625 
Q 49.859375 40.875 45.40625 35.40625 
Q 44.1875 33.984375 37.640625 27.21875 
Q 31.109375 20.453125 19.1875 8.296875 
z
" id="DejaVuSans-50"/>
      </defs>
      <g transform="translate(142.228977 399.078438)scale(0.1 -0.1)">
       <use xlink:href="#DejaVuSans-50"/>
       <use x="63.623047" xlink:href="#DejaVuSans-48"/>
       <use x="127.246094" xlink:href="#DejaVuSans-48"/>
      </g>
     </g>
    </g>
    <g id="xtick_3">
     <g id="line2d_3">
      <g>
       <use style="stroke:#000000;stroke-width:0.8;" x="222.790909" xlink:href="#m9e59d2f6d1" y="384.48"/>
      </g>
     </g>
     <g id="text_3">
      <!-- 400 -->
      <defs>
       <path d="M 37.796875 64.3125 
L 12.890625 25.390625 
L 37.796875 25.390625 
z
M 35.203125 72.90625 
L 47.609375 72.90625 
L 47.609375 25.390625 
L 58.015625 25.390625 
L 58.015625 17.1875 
L 47.609375 17.1875 
L 47.609375 0 
L 37.796875 0 
L 37.796875 17.1875 
L 4.890625 17.1875 
L 4.890625 26.703125 
z
" id="DejaVuSans-52"/>
      </defs>
      <g transform="translate(213.247159 399.078438)scale(0.1 -0.1)">
       <use xlink:href="#DejaVuSans-52"/>
       <use x="63.623047" xlink:href="#DejaVuSans-48"/>
       <use x="127.246094" xlink:href="#DejaVuSans-48"/>
      </g>
     </g>
    </g>
    <g id="xtick_4">
     <g id="line2d_4">
      <g>
       <use style="stroke:#000000;stroke-width:0.8;" x="293.809091" xlink:href="#m9e59d2f6d1" y="384.48"/>
      </g>
     </g>
     <g id="text_4">
      <!-- 600 -->
      <defs>
       <path d="M 33.015625 40.375 
Q 26.375 40.375 22.484375 35.828125 
Q 18.609375 31.296875 18.609375 23.390625 
Q 18.609375 15.53125 22.484375 10.953125 
Q 26.375 6.390625 33.015625 6.390625 
Q 39.65625 6.390625 43.53125 10.953125 
Q 47.40625 15.53125 47.40625 23.390625 
Q 47.40625 31.296875 43.53125 35.828125 
Q 39.65625 40.375 33.015625 40.375 
z
M 52.59375 71.296875 
L 52.59375 62.3125 
Q 48.875 64.0625 45.09375 64.984375 
Q 41.3125 65.921875 37.59375 65.921875 
Q 27.828125 65.921875 22.671875 59.328125 
Q 17.53125 52.734375 16.796875 39.40625 
Q 19.671875 43.65625 24.015625 45.921875 
Q 28.375 48.1875 33.59375 48.1875 
Q 44.578125 48.1875 50.953125 41.515625 
Q 57.328125 34.859375 57.328125 23.390625 
Q 57.328125 12.15625 50.6875 5.359375 
Q 44.046875 -1.421875 33.015625 -1.421875 
Q 20.359375 -1.421875 13.671875 8.265625 
Q 6.984375 17.96875 6.984375 36.375 
Q 6.984375 53.65625 15.1875 63.9375 
Q 23.390625 74.21875 37.203125 74.21875 
Q 40.921875 74.21875 44.703125 73.484375 
Q 48.484375 72.75 52.59375 71.296875 
z
" id="DejaVuSans-54"/>
      </defs>
      <g transform="translate(284.265341 399.078438)scale(0.1 -0.1)">
       <use xlink:href="#DejaVuSans-54"/>
       <use x="63.623047" xlink:href="#DejaVuSans-48"/>
       <use x="127.246094" xlink:href="#DejaVuSans-48"/>
      </g>
     </g>
    </g>
    <g id="xtick_5">
     <g id="line2d_5">
      <g>
       <use style="stroke:#000000;stroke-width:0.8;" x="364.827273" xlink:href="#m9e59d2f6d1" y="384.48"/>
      </g>
     </g>
     <g id="text_5">
      <!-- 800 -->
      <defs>
       <path d="M 31.78125 34.625 
Q 24.75 34.625 20.71875 30.859375 
Q 16.703125 27.09375 16.703125 20.515625 
Q 16.703125 13.921875 20.71875 10.15625 
Q 24.75 6.390625 31.78125 6.390625 
Q 38.8125 6.390625 42.859375 10.171875 
Q 46.921875 13.96875 46.921875 20.515625 
Q 46.921875 27.09375 42.890625 30.859375 
Q 38.875 34.625 31.78125 34.625 
z
M 21.921875 38.8125 
Q 15.578125 40.375 12.03125 44.71875 
Q 8.5 49.078125 8.5 55.328125 
Q 8.5 64.0625 14.71875 69.140625 
Q 20.953125 74.21875 31.78125 74.21875 
Q 42.671875 74.21875 48.875 69.140625 
Q 55.078125 64.0625 55.078125 55.328125 
Q 55.078125 49.078125 51.53125 44.71875 
Q 48 40.375 41.703125 38.8125 
Q 48.828125 37.15625 52.796875 32.3125 
Q 56.78125 27.484375 56.78125 20.515625 
Q 56.78125 9.90625 50.3125 4.234375 
Q 43.84375 -1.421875 31.78125 -1.421875 
Q 19.734375 -1.421875 13.25 4.234375 
Q 6.78125 9.90625 6.78125 20.515625 
Q 6.78125 27.484375 10.78125 32.3125 
Q 14.796875 37.15625 21.921875 38.8125 
z
M 18.3125 54.390625 
Q 18.3125 48.734375 21.84375 45.5625 
Q 25.390625 42.390625 31.78125 42.390625 
Q 38.140625 42.390625 41.71875 45.5625 
Q 45.3125 48.734375 45.3125 54.390625 
Q 45.3125 60.0625 41.71875 63.234375 
Q 38.140625 66.40625 31.78125 66.40625 
Q 25.390625 66.40625 21.84375 63.234375 
Q 18.3125 60.0625 18.3125 54.390625 
z
" id="DejaVuSans-56"/>
      </defs>
      <g transform="translate(355.283523 399.078438)scale(0.1 -0.1)">
       <use xlink:href="#DejaVuSans-56"/>
       <use x="63.623047" xlink:href="#DejaVuSans-48"/>
       <use x="127.246094" xlink:href="#DejaVuSans-48"/>
      </g>
     </g>
    </g>
    <g id="text_6">
     <!-- time [ms] -->
     <defs>
      <path d="M 18.3125 70.21875 
L 18.3125 54.6875 
L 36.8125 54.6875 
L 36.8125 47.703125 
L 18.3125 47.703125 
L 18.3125 18.015625 
Q 18.3125 11.328125 20.140625 9.421875 
Q 21.96875 7.515625 27.59375 7.515625 
L 36.8125 7.515625 
L 36.8125 0 
L 27.59375 0 
Q 17.1875 0 13.234375 3.875 
Q 9.28125 7.765625 9.28125 18.015625 
L 9.28125 47.703125 
L 2.6875 47.703125 
L 2.6875 54.6875 
L 9.28125 54.6875 
L 9.28125 70.21875 
z
" id="DejaVuSans-116"/>
      <path d="M 9.421875 54.6875 
L 18.40625 54.6875 
L 18.40625 0 
L 9.421875 0 
z
M 9.421875 75.984375 
L 18.40625 75.984375 
L 18.40625 64.59375 
L 9.421875 64.59375 
z
" id="DejaVuSans-105"/>
      <path d="M 52 44.1875 
Q 55.375 50.25 60.0625 53.125 
Q 64.75 56 71.09375 56 
Q 79.640625 56 84.28125 50.015625 
Q 88.921875 44.046875 88.921875 33.015625 
L 88.921875 0 
L 79.890625 0 
L 79.890625 32.71875 
Q 79.890625 40.578125 77.09375 44.375 
Q 74.3125 48.1875 68.609375 48.1875 
Q 61.625 48.1875 57.5625 43.546875 
Q 53.515625 38.921875 53.515625 30.90625 
L 53.515625 0 
L 44.484375 0 
L 44.484375 32.71875 
Q 44.484375 40.625 41.703125 44.40625 
Q 38.921875 48.1875 33.109375 48.1875 
Q 26.21875 48.1875 22.15625 43.53125 
Q 18.109375 38.875 18.109375 30.90625 
L 18.109375 0 
L 9.078125 0 
L 9.078125 54.6875 
L 18.109375 54.6875 
L 18.109375 46.1875 
Q 21.1875 51.21875 25.484375 53.609375 
Q 29.78125 56 35.6875 56 
Q 41.65625 56 45.828125 52.96875 
Q 50 49.953125 52 44.1875 
z
" id="DejaVuSans-109"/>
      <path d="M 56.203125 29.59375 
L 56.203125 25.203125 
L 14.890625 25.203125 
Q 15.484375 15.921875 20.484375 11.0625 
Q 25.484375 6.203125 34.421875 6.203125 
Q 39.59375 6.203125 44.453125 7.46875 
Q 49.3125 8.734375 54.109375 11.28125 
L 54.109375 2.78125 
Q 49.265625 0.734375 44.1875 -0.34375 
Q 39.109375 -1.421875 33.890625 -1.421875 
Q 20.796875 -1.421875 13.15625 6.1875 
Q 5.515625 13.8125 5.515625 26.8125 
Q 5.515625 40.234375 12.765625 48.109375 
Q 20.015625 56 32.328125 56 
Q 43.359375 56 49.78125 48.890625 
Q 56.203125 41.796875 56.203125 29.59375 
z
M 47.21875 32.234375 
Q 47.125 39.59375 43.09375 43.984375 
Q 39.0625 48.390625 32.421875 48.390625 
Q 24.90625 48.390625 20.390625 44.140625 
Q 15.875 39.890625 15.1875 32.171875 
z
" id="DejaVuSans-101"/>
      <path id="DejaVuSans-32"/>
      <path d="M 8.59375 75.984375 
L 29.296875 75.984375 
L 29.296875 69 
L 17.578125 69 
L 17.578125 -6.203125 
L 29.296875 -6.203125 
L 29.296875 -13.1875 
L 8.59375 -13.1875 
z
" id="DejaVuSans-91"/>
      <path d="M 44.28125 53.078125 
L 44.28125 44.578125 
Q 40.484375 46.53125 36.375 47.5 
Q 32.28125 48.484375 27.875 48.484375 
Q 21.1875 48.484375 17.84375 46.4375 
Q 14.5 44.390625 14.5 40.28125 
Q 14.5 37.15625 16.890625 35.375 
Q 19.28125 33.59375 26.515625 31.984375 
L 29.59375 31.296875 
Q 39.15625 29.25 43.1875 25.515625 
Q 47.21875 21.78125 47.21875 15.09375 
Q 47.21875 7.46875 41.1875 3.015625 
Q 35.15625 -1.421875 24.609375 -1.421875 
Q 20.21875 -1.421875 15.453125 -0.5625 
Q 10.6875 0.296875 5.421875 2 
L 5.421875 11.28125 
Q 10.40625 8.6875 15.234375 7.390625 
Q 20.0625 6.109375 24.8125 6.109375 
Q 31.15625 6.109375 34.5625 8.28125 
Q 37.984375 10.453125 37.984375 14.40625 
Q 37.984375 18.0625 35.515625 20.015625 
Q 33.0625 21.96875 24.703125 23.78125 
L 21.578125 24.515625 
Q 13.234375 26.265625 9.515625 29.90625 
Q 5.8125 33.546875 5.8125 39.890625 
Q 5.8125 47.609375 11.28125 51.796875 
Q 16.75 56 26.8125 56 
Q 31.78125 56 36.171875 55.265625 
Q 40.578125 54.546875 44.28125 53.078125 
z
" id="DejaVuSans-115"/>
      <path d="M 30.421875 75.984375 
L 30.421875 -13.1875 
L 9.71875 -13.1875 
L 9.71875 -6.203125 
L 21.390625 -6.203125 
L 21.390625 69 
L 9.71875 69 
L 9.71875 75.984375 
z
" id="DejaVuSans-93"/>
     </defs>
     <g transform="translate(234.038281 412.756563)scale(0.1 -0.1)">
      <use xlink:href="#DejaVuSans-116"/>
      <use x="39.208984" xlink:href="#DejaVuSans-105"/>
      <use x="66.992188" xlink:href="#DejaVuSans-109"/>
      <use x="164.404297" xlink:href="#DejaVuSans-101"/>
      <use x="225.927734" xlink:href="#DejaVuSans-32"/>
      <use x="257.714844" xlink:href="#DejaVuSans-91"/>
      <use x="296.728516" xlink:href="#DejaVuSans-109"/>
      <use x="394.140625" xlink:href="#DejaVuSans-115"/>
      <use x="446.240234" xlink:href="#DejaVuSans-93"/>
     </g>
    </g>
   </g>
   <g id="matplotlib.axis_2">
    <g id="ytick_1">
     <g id="line2d_6">
      <defs>
       <path d="M 0 0 
L -3.5 0 
" id="m00463e15ae" style="stroke:#000000;stroke-width:0.8;"/>
      </defs>
      <g>
       <use style="stroke:#000000;stroke-width:0.8;" x="63" xlink:href="#m00463e15ae" y="348.879874"/>
      </g>
     </g>
     <g id="text_7">
      <!-- −60 -->
      <defs>
       <path d="M 10.59375 35.5 
L 73.1875 35.5 
L 73.1875 27.203125 
L 10.59375 27.203125 
z
" id="DejaVuSans-8722"/>
      </defs>
      <g transform="translate(34.895313 352.679093)scale(0.1 -0.1)">
       <use xlink:href="#DejaVuSans-8722"/>
       <use x="83.789062" xlink:href="#DejaVuSans-54"/>
       <use x="147.412109" xlink:href="#DejaVuSans-48"/>
      </g>
     </g>
    </g>
    <g id="ytick_2">
     <g id="line2d_7">
      <g>
       <use style="stroke:#000000;stroke-width:0.8;" x="63" xlink:href="#m00463e15ae" y="282.952981"/>
      </g>
     </g>
     <g id="text_8">
      <!-- −40 -->
      <g transform="translate(34.895313 286.7522)scale(0.1 -0.1)">
       <use xlink:href="#DejaVuSans-8722"/>
       <use x="83.789062" xlink:href="#DejaVuSans-52"/>
       <use x="147.412109" xlink:href="#DejaVuSans-48"/>
      </g>
     </g>
    </g>
    <g id="ytick_3">
     <g id="line2d_8">
      <g>
       <use style="stroke:#000000;stroke-width:0.8;" x="63" xlink:href="#m00463e15ae" y="217.026087"/>
      </g>
     </g>
     <g id="text_9">
      <!-- −20 -->
      <g transform="translate(34.895313 220.825306)scale(0.1 -0.1)">
       <use xlink:href="#DejaVuSans-8722"/>
       <use x="83.789062" xlink:href="#DejaVuSans-50"/>
       <use x="147.412109" xlink:href="#DejaVuSans-48"/>
      </g>
     </g>
    </g>
    <g id="ytick_4">
     <g id="line2d_9">
      <g>
       <use style="stroke:#000000;stroke-width:0.8;" x="63" xlink:href="#m00463e15ae" y="151.099194"/>
      </g>
     </g>
     <g id="text_10">
      <!-- 0 -->
      <g transform="translate(49.6375 154.898412)scale(0.1 -0.1)">
       <use xlink:href="#DejaVuSans-48"/>
      </g>
     </g>
    </g>
    <g id="ytick_5">
     <g id="line2d_10">
      <g>
       <use style="stroke:#000000;stroke-width:0.8;" x="63" xlink:href="#m00463e15ae" y="85.1723"/>
      </g>
     </g>
     <g id="text_11">
      <!-- 20 -->
      <g transform="translate(43.275 88.971519)scale(0.1 -0.1)">
       <use xlink:href="#DejaVuSans-50"/>
       <use x="63.623047" xlink:href="#DejaVuSans-48"/>
      </g>
     </g>
    </g>
    <g id="text_12">
     <!-- voltage [V] -->
     <defs>
      <path d="M 2.984375 54.6875 
L 12.5 54.6875 
L 29.59375 8.796875 
L 46.6875 54.6875 
L 56.203125 54.6875 
L 35.6875 0 
L 23.484375 0 
z
" id="DejaVuSans-118"/>
      <path d="M 30.609375 48.390625 
Q 23.390625 48.390625 19.1875 42.75 
Q 14.984375 37.109375 14.984375 27.296875 
Q 14.984375 17.484375 19.15625 11.84375 
Q 23.34375 6.203125 30.609375 6.203125 
Q 37.796875 6.203125 41.984375 11.859375 
Q 46.1875 17.53125 46.1875 27.296875 
Q 46.1875 37.015625 41.984375 42.703125 
Q 37.796875 48.390625 30.609375 48.390625 
z
M 30.609375 56 
Q 42.328125 56 49.015625 48.375 
Q 55.71875 40.765625 55.71875 27.296875 
Q 55.71875 13.875 49.015625 6.21875 
Q 42.328125 -1.421875 30.609375 -1.421875 
Q 18.84375 -1.421875 12.171875 6.21875 
Q 5.515625 13.875 5.515625 27.296875 
Q 5.515625 40.765625 12.171875 48.375 
Q 18.84375 56 30.609375 56 
z
" id="DejaVuSans-111"/>
      <path d="M 9.421875 75.984375 
L 18.40625 75.984375 
L 18.40625 0 
L 9.421875 0 
z
" id="DejaVuSans-108"/>
      <path d="M 34.28125 27.484375 
Q 23.390625 27.484375 19.1875 25 
Q 14.984375 22.515625 14.984375 16.5 
Q 14.984375 11.71875 18.140625 8.90625 
Q 21.296875 6.109375 26.703125 6.109375 
Q 34.1875 6.109375 38.703125 11.40625 
Q 43.21875 16.703125 43.21875 25.484375 
L 43.21875 27.484375 
z
M 52.203125 31.203125 
L 52.203125 0 
L 43.21875 0 
L 43.21875 8.296875 
Q 40.140625 3.328125 35.546875 0.953125 
Q 30.953125 -1.421875 24.3125 -1.421875 
Q 15.921875 -1.421875 10.953125 3.296875 
Q 6 8.015625 6 15.921875 
Q 6 25.140625 12.171875 29.828125 
Q 18.359375 34.515625 30.609375 34.515625 
L 43.21875 34.515625 
L 43.21875 35.40625 
Q 43.21875 41.609375 39.140625 45 
Q 35.0625 48.390625 27.6875 48.390625 
Q 23 48.390625 18.546875 47.265625 
Q 14.109375 46.140625 10.015625 43.890625 
L 10.015625 52.203125 
Q 14.9375 54.109375 19.578125 55.046875 
Q 24.21875 56 28.609375 56 
Q 40.484375 56 46.34375 49.84375 
Q 52.203125 43.703125 52.203125 31.203125 
z
" id="DejaVuSans-97"/>
      <path d="M 45.40625 27.984375 
Q 45.40625 37.75 41.375 43.109375 
Q 37.359375 48.484375 30.078125 48.484375 
Q 22.859375 48.484375 18.828125 43.109375 
Q 14.796875 37.75 14.796875 27.984375 
Q 14.796875 18.265625 18.828125 12.890625 
Q 22.859375 7.515625 30.078125 7.515625 
Q 37.359375 7.515625 41.375 12.890625 
Q 45.40625 18.265625 45.40625 27.984375 
z
M 54.390625 6.78125 
Q 54.390625 -7.171875 48.1875 -13.984375 
Q 42 -20.796875 29.203125 -20.796875 
Q 24.46875 -20.796875 20.265625 -20.09375 
Q 16.0625 -19.390625 12.109375 -17.921875 
L 12.109375 -9.1875 
Q 16.0625 -11.328125 19.921875 -12.34375 
Q 23.78125 -13.375 27.78125 -13.375 
Q 36.625 -13.375 41.015625 -8.765625 
Q 45.40625 -4.15625 45.40625 5.171875 
L 45.40625 9.625 
Q 42.625 4.78125 38.28125 2.390625 
Q 33.9375 0 27.875 0 
Q 17.828125 0 11.671875 7.65625 
Q 5.515625 15.328125 5.515625 27.984375 
Q 5.515625 40.671875 11.671875 48.328125 
Q 17.828125 56 27.875 56 
Q 33.9375 56 38.28125 53.609375 
Q 42.625 51.21875 45.40625 46.390625 
L 45.40625 54.6875 
L 54.390625 54.6875 
z
" id="DejaVuSans-103"/>
      <path d="M 28.609375 0 
L 0.78125 72.90625 
L 11.078125 72.90625 
L 34.1875 11.53125 
L 57.328125 72.90625 
L 67.578125 72.90625 
L 39.796875 0 
z
" id="DejaVuSans-86"/>
     </defs>
     <g transform="translate(28.815625 245.75375)rotate(-90)scale(0.1 -0.1)">
      <use xlink:href="#DejaVuSans-118"/>
      <use x="59.179688" xlink:href="#DejaVuSans-111"/>
      <use x="120.361328" xlink:href="#DejaVuSans-108"/>
      <use x="148.144531" xlink:href="#DejaVuSans-116"/>
      <use x="187.353516" xlink:href="#DejaVuSans-97"/>
      <use x="248.632812" xlink:href="#DejaVuSans-103"/>
      <use x="312.109375" xlink:href="#DejaVuSans-101"/>
      <use x="373.632812" xlink:href="#DejaVuSans-32"/>
      <use x="405.419922" xlink:href="#DejaVuSans-91"/>
      <use x="444.433594" xlink:href="#DejaVuSans-86"/>
      <use x="512.841797" xlink:href="#DejaVuSans-93"/>
     </g>
    </g>
   </g>
   <g id="line2d_11">
    <path clip-path="url(#p621535a833)" d="M 80.754545 365.36159 
L 81.695536 365.373356 
L 85.779082 365.792064 
L 98.597864 367.090846 
L 108.788973 367.879917 
L 119.708018 368.499077 
L 131.976409 368.967348 
L 146.3931 369.287709 
L 151.772727 369.36 
L 151.8615 367.373527 
L 152.234345 359.279273 
L 152.731473 353.613899 
L 153.565936 346.920506 
L 154.9863 337.488954 
L 156.726245 327.440784 
L 158.412927 318.944715 
L 160.028591 311.906607 
L 161.590991 306.085228 
L 163.153391 301.12637 
L 164.840073 296.530929 
L 167.236936 290.727521 
L 168.941373 286.371909 
L 169.793591 283.596355 
L 170.361736 281.008591 
L 170.752336 278.204861 
L 171.036409 274.17739 
L 171.1962 267.076863 
L 171.249464 259.18284 
L 171.622309 75.006311 
L 171.675573 72.705856 
L 171.746591 72.942741 
L 171.906382 85.55123 
L 172.190455 137.326405 
L 172.847373 253.57271 
L 173.220218 287.484273 
L 173.5398 299.645996 
L 173.912645 305.98782 
L 174.303245 309.30601 
L 174.782618 311.47885 
L 175.226482 312.573489 
L 175.6881 313.155431 
L 176.096455 313.345766 
L 176.522564 313.302805 
L 177.019691 313.014852 
L 177.676609 312.342092 
L 178.528827 311.126358 
L 179.771645 308.94169 
L 182.825427 302.958444 
L 185.470855 298.060985 
L 188.151791 293.593611 
L 192.164318 286.97047 
L 193.282855 284.641727 
L 194.064055 282.515391 
L 194.6322 280.310645 
L 195.040555 277.777892 
L 195.324627 274.398157 
L 195.502173 268.550644 
L 195.573191 259.478464 
L 195.626455 232.474018 
L 195.839509 102.987931 
L 196.017055 94.50759 
L 196.034809 94.466788 
L 196.176845 98.14093 
L 196.407655 114.919584 
L 196.744991 162.87487 
L 197.437418 258.764199 
L 197.810264 283.066418 
L 198.200864 294.584508 
L 198.591464 300.122267 
L 199.070836 303.754425 
L 199.550209 305.885065 
L 200.082845 307.353186 
L 200.650991 308.280919 
L 201.219136 308.765068 
L 201.787282 308.930183 
L 202.408691 308.84073 
L 203.083364 308.508858 
L 203.988845 307.792043 
L 205.231664 306.487013 
L 207.237927 304.004106 
L 212.9904 296.759431 
L 217.890655 291.122856 
L 220.429555 288.011183 
L 221.885427 285.888201 
L 222.915191 284.00135 
L 223.660882 282.182372 
L 224.229027 280.190747 
L 224.637382 277.904344 
L 224.9037 275.225866 
L 225.081245 271.533808 
L 225.205527 262.442426 
L 225.241036 249.169947 
L 225.525109 101.803258 
L 225.596127 99.493874 
L 225.667145 100.036133 
L 225.862445 107.8212 
L 226.164273 131.768887 
L 226.679155 199.613618 
L 227.229545 260.32316 
L 227.6379 281.323984 
L 228.046255 291.468172 
L 228.454609 296.744143 
L 228.933982 300.312467 
L 229.502127 302.8769 
L 230.105782 304.585102 
L 230.691682 305.637321 
L 231.313091 306.308185 
L 231.898991 306.636639 
L 232.538155 306.743258 
L 233.266091 306.625699 
L 234.153818 306.233138 
L 235.236845 305.500997 
L 236.781491 304.165674 
L 239.320391 301.639376 
L 247.434218 293.459372 
L 251.446745 289.348525 
L 253.346482 287.086066 
L 254.642564 285.20421 
L 255.601309 283.414659 
L 256.275982 281.708139 
L 256.808618 279.7456 
L 257.181464 277.533782 
L 257.447782 274.585241 
L 257.607573 270.707232 
L 257.696345 264.313046 
L 257.767364 241.549305 
L 257.998173 105.353188 
L 258.122455 100.174287 
L 258.157964 100.772427 
L 258.264491 104.190216 
L 258.566318 124.239857 
L 258.956918 167.842736 
L 259.755873 258.898382 
L 260.181982 280.44504 
L 260.590336 290.407391 
L 261.016445 295.700214 
L 261.495818 299.060362 
L 262.028455 301.361559 
L 262.649864 303.079222 
L 263.271273 304.178222 
L 263.892682 304.861877 
L 264.531845 305.250445 
L 265.206518 305.402256 
L 265.952209 305.338678 
L 266.857691 305.023485 
L 267.993982 304.372386 
L 269.538627 303.204732 
L 271.935491 301.078109 
L 282.694745 290.950666 
L 285.215891 288.311683 
L 286.8138 286.33281 
L 287.9856 284.52973 
L 288.820064 282.852656 
L 289.459227 281.076796 
L 289.9386 279.073045 
L 290.293691 276.539637 
L 290.542255 272.725717 
L 290.666536 267.422726 
L 290.737555 253.584244 
L 290.844082 165.84774 
L 291.003873 104.507099 
L 291.128155 100.462522 
L 291.163664 100.983008 
L 291.341209 108.306706 
L 291.643036 131.559467 
L 292.175673 196.353166 
L 292.761573 258.398176 
L 293.152173 278.596054 
L 293.560527 289.336168 
L 294.004391 295.174198 
L 294.483764 298.664298 
L 295.051909 301.154311 
L 295.673318 302.869991 
L 296.276973 303.946185 
L 296.916136 304.659944 
L 297.5553 305.056532 
L 298.247727 305.220325 
L 299.046682 305.153657 
L 299.952164 304.839189 
L 301.141718 304.16145 
L 302.686364 303.005258 
L 305.154245 300.845644 
L 315.469636 291.283751 
L 318.150573 288.551167 
L 319.855009 286.504329 
L 321.062318 284.709306 
L 321.950045 282.990265 
L 322.589209 281.291161 
L 323.068582 279.423022 
L 323.423673 277.184623 
L 323.672236 274.289144 
L 323.849782 268.846745 
L 323.938555 258.162132 
L 323.974064 237.942655 
L 324.204873 105.732658 
L 324.3114 100.24821 
L 324.346909 100.718953 
L 324.453436 103.684884 
L 324.755264 123.418018 
L 325.163618 168.272144 
L 325.962573 258.221664 
L 326.388682 279.852433 
L 326.797036 290.039236 
L 327.2409 295.605142 
L 327.738027 299.043567 
L 328.306173 301.402616 
L 328.927582 303.031339 
L 329.5845 304.118086 
L 330.241418 304.769849 
L 330.880582 305.103362 
L 331.573009 305.215698 
L 332.371964 305.105651 
L 333.312955 304.738569 
L 334.484755 304.036713 
L 336.135927 302.768834 
L 338.852373 300.360676 
L 350.197527 289.78657 
L 352.292564 287.49887 
L 353.730682 285.603645 
L 354.7782 283.850966 
L 355.541645 282.139705 
L 356.092036 280.393316 
L 356.518145 278.309395 
L 356.819973 275.717223 
L 357.015273 272.209654 
L 357.139555 265.90433 
L 357.210573 247.160266 
L 357.476891 103.207167 
L 357.565664 100.409242 
L 357.618927 100.984029 
L 357.778718 107.417277 
L 358.116055 133.587653 
L 358.648691 198.959614 
L 359.216836 258.643658 
L 359.625191 279.586827 
L 360.033545 290.006558 
L 360.459655 295.508193 
L 360.939027 298.943865 
L 361.453909 301.195297 
L 362.057564 302.882473 
L 362.678973 303.995062 
L 363.318136 304.702294 
L 363.975055 305.098793 
L 364.649727 305.248668 
L 364.862782 305.252714 
L 364.969309 307.42204 
L 365.306645 314.590419 
L 365.786018 319.645317 
L 366.460691 324.205209 
L 367.348418 328.680374 
L 368.395936 332.834665 
L 369.532227 336.477148 
L 370.775045 339.757197 
L 372.1599 342.79276 
L 373.633527 345.49594 
L 375.213682 347.941281 
L 376.900364 350.155617 
L 378.746836 352.217473 
L 380.735345 354.108189 
L 382.9014 355.8637 
L 385.280509 357.505861 
L 387.908182 359.04764 
L 390.837682 360.504153 
L 394.069009 361.861245 
L 397.726445 363.152199 
L 401.809991 364.354623 
L 406.443927 365.481249 
L 411.6105 366.503589 
L 417.416236 367.420084 
L 423.861136 368.208631 
L 431.087236 368.865443 
L 435.8277 369.19029 
L 435.8277 369.19029 
" style="fill:none;stroke:#1f77b4;stroke-linecap:square;stroke-width:1.5;"/>
   </g>
   <g id="line2d_12">
    <path clip-path="url(#p621535a833)" d="M 80.754545 365.361598 
L 80.949845 365.036994 
L 81.411464 364.765513 
L 82.352455 364.514591 
L 84.340964 364.250236 
L 87.9984 364.007993 
L 94.194736 363.841163 
L 104.616655 363.80467 
L 151.772727 363.994639 
L 151.985782 353.997704 
L 152.411891 344.902506 
L 153.086564 335.352313 
L 154.027555 325.196526 
L 155.057318 316.372839 
L 156.069327 309.525334 
L 157.081336 304.15476 
L 158.128855 299.77809 
L 159.265145 295.978957 
L 160.578982 292.365042 
L 162.531982 287.721066 
L 164.112136 283.770099 
L 164.857827 281.313577 
L 165.372709 278.842124 
L 165.7278 275.993866 
L 165.958609 272.316905 
L 166.100645 266.520174 
L 166.171664 256.372004 
L 166.224927 191.947558 
L 166.331455 66.96 
L 166.366964 71.961284 
L 166.544509 144.249071 
L 166.952864 282.815481 
L 167.165918 296.880941 
L 167.361218 298.794284 
L 167.449991 298.726885 
L 168.106909 297.518759 
L 168.355473 297.67824 
L 169.935627 299.15433 
L 170.521527 299.235203 
L 171.213955 299.095043 
L 172.083927 298.676751 
L 173.273482 297.837933 
L 175.1022 296.244508 
L 181.209764 290.439507 
L 185.435345 286.308637 
L 187.051009 284.41572 
L 188.151791 282.790433 
L 188.950745 281.213491 
L 189.536645 279.570203 
L 189.980509 277.659644 
L 190.300091 275.320794 
L 190.5309 271.959859 
L 190.672936 266.758518 
L 190.761709 253.669037 
L 190.797218 222.457602 
L 190.903745 72.085612 
L 190.939255 75.115693 
L 191.099045 134.32414 
L 191.525155 275.104988 
L 191.755964 293.291211 
L 191.986773 297.732508 
L 192.217582 298.747233 
L 192.572673 299.159497 
L 193.034291 299.863401 
L 194.0463 301.442192 
L 194.649955 301.950292 
L 195.253609 302.168736 
L 195.910527 302.160755 
L 196.673973 301.919277 
L 197.650473 301.361194 
L 198.982064 300.322835 
L 201.165873 298.29867 
L 206.989364 292.825155 
L 211.108418 289.346802 
L 215.120945 285.898476 
L 216.772118 284.182949 
L 217.890655 282.711488 
L 218.707364 281.280523 
L 219.328773 279.74342 
L 219.790391 278.016294 
L 220.145482 275.798153 
L 220.394045 272.801603 
L 220.553836 268.276778 
L 220.642609 260.639022 
L 220.695873 238.429514 
L 220.820155 72.380339 
L 220.891173 86.515727 
L 221.5836 289.171012 
L 221.814409 296.197172 
L 222.062973 298.078154 
L 222.347045 298.652497 
L 223.039473 299.833894 
L 223.891691 301.214635 
L 224.495345 301.783653 
L 225.099 302.056634 
L 225.738164 302.103019 
L 226.483855 301.92768 
L 227.424845 301.461536 
L 228.685418 300.566966 
L 230.638418 298.874625 
L 237.580445 292.678009 
L 241.433182 289.663985 
L 246.582 285.634811 
L 248.250927 284.023103 
L 249.387218 282.626499 
L 250.221682 281.256101 
L 250.860845 279.770883 
L 251.340218 278.081101 
L 251.695309 276.010987 
L 251.961627 273.045287 
L 252.139173 268.214587 
L 252.227945 260.526337 
L 252.281209 237.913761 
L 252.405491 72.591865 
L 252.458755 81.382575 
L 252.813845 222.065798 
L 253.097918 284.280228 
L 253.328727 295.057303 
L 253.559536 297.708664 
L 253.8081 298.42289 
L 255.991909 301.6581 
L 256.595564 301.9764 
L 257.234727 302.063885 
L 257.980418 301.929824 
L 258.8859 301.528412 
L 260.093209 300.732508 
L 261.921927 299.229257 
L 269.716173 292.557175 
L 273.391364 289.862763 
L 279.765245 285.245217 
L 281.363155 283.768846 
L 282.481691 282.444364 
L 283.316155 281.113741 
L 283.937564 279.708659 
L 284.416936 278.070554 
L 284.772027 276.073061 
L 285.038345 273.258033 
L 285.215891 268.89303 
L 285.322418 260.2222 
L 285.375682 236.087991 
L 285.499964 72.802597 
L 285.553227 81.918218 
L 286.352182 293.245027 
L 286.582991 297.263929 
L 286.8138 298.232884 
L 287.293173 298.937831 
L 289.033118 301.551843 
L 289.636773 301.901699 
L 290.275936 302.01898 
L 291.003873 301.920895 
L 291.8916 301.566903 
L 293.0634 300.843924 
L 294.803345 299.480178 
L 303.361036 292.435291 
L 306.9297 289.975983 
L 314.564155 284.825507 
L 316.091045 283.451236 
L 317.174073 282.186141 
L 317.973027 280.919767 
L 318.594436 279.509917 
L 319.056055 277.912267 
L 319.411145 275.869111 
L 319.677464 272.903319 
L 319.855009 267.981958 
L 319.943782 259.863867 
L 319.997045 233.767498 
L 320.121327 73.031417 
L 320.174591 82.51648 
L 320.955791 292.594556 
L 321.1866 297.057387 
L 321.417409 298.120891 
L 321.808009 298.691775 
L 322.429418 299.790197 
L 323.228373 301.050571 
L 323.849782 301.62989 
L 324.471191 301.912748 
L 325.145864 301.970304 
L 325.927064 301.803498 
L 326.903564 301.353683 
L 328.235155 300.473342 
L 330.3657 298.761316 
L 336.118173 294.057994 
L 339.313991 291.789551 
L 343.006936 289.452586 
L 350.321809 284.903277 
L 351.972982 283.555677 
L 353.127027 282.336474 
L 353.979245 281.120687 
L 354.636164 279.791601 
L 355.133291 278.277725 
L 355.506136 276.440254 
L 355.790209 273.889684 
L 355.985509 270.021983 
L 356.109791 262.397413 
L 356.163055 248.347357 
L 356.305091 73.209276 
L 356.429373 108.546747 
L 356.9265 276.321888 
L 357.157309 293.114337 
L 357.388118 297.122466 
L 357.618927 298.075473 
L 358.116055 298.796543 
L 359.838245 301.414378 
L 360.459655 301.792998 
L 361.116573 301.930603 
L 361.862264 301.849566 
L 362.767745 301.514643 
L 363.9573 300.820572 
L 364.827273 300.2007 
L 365.022573 309.370088 
L 365.395418 316.605162 
L 365.928055 322.58268 
L 366.638236 328.041382 
L 367.525964 333.165398 
L 368.555727 337.830367 
L 369.709773 342.036975 
L 370.952591 345.744903 
L 372.301936 349.080578 
L 373.740055 352.052461 
L 375.2847 354.738856 
L 376.918118 357.140002 
L 378.658064 359.305148 
L 380.486782 361.227189 
L 382.386518 362.905117 
L 384.375027 364.365783 
L 386.434555 365.60286 
L 388.5651 366.624505 
L 390.802173 367.449791 
L 393.163527 368.081819 
L 395.702427 368.527569 
L 398.489891 368.786552 
L 401.667955 368.851978 
L 405.520691 368.699181 
L 410.989091 368.23851 
L 426.027191 366.879799 
L 433.519609 366.491991 
L 435.845455 366.413148 
L 435.845455 366.413148 
" style="fill:none;stroke:#ff0000;stroke-linecap:square;stroke-width:1.5;"/>
   </g>
   <g id="patch_3">
    <path d="M 63 384.48 
L 63 51.84 
" style="fill:none;stroke:#000000;stroke-linecap:square;stroke-linejoin:miter;stroke-width:0.8;"/>
   </g>
   <g id="patch_4">
    <path d="M 453.6 384.48 
L 453.6 51.84 
" style="fill:none;stroke:#000000;stroke-linecap:square;stroke-linejoin:miter;stroke-width:0.8;"/>
   </g>
   <g id="patch_5">
    <path d="M 63 384.48 
L 453.6 384.48 
" style="fill:none;stroke:#000000;stroke-linecap:square;stroke-linejoin:miter;stroke-width:0.8;"/>
   </g>
   <g id="patch_6">
    <path d="M 63 51.84 
L 453.6 51.84 
" style="fill:none;stroke:#000000;stroke-linecap:square;stroke-linejoin:miter;stroke-width:0.8;"/>
   </g>
   <g id="legend_1">
    <g id="patch_7">
     <path d="M 383.460938 89.19625 
L 446.6 89.19625 
Q 448.6 89.19625 448.6 87.19625 
L 448.6 58.84 
Q 448.6 56.84 446.6 56.84 
L 383.460938 56.84 
Q 381.460938 56.84 381.460938 58.84 
L 381.460938 87.19625 
Q 381.460938 89.19625 383.460938 89.19625 
z
" style="fill:#ffffff;opacity:0.8;stroke:#cccccc;stroke-linejoin:miter;"/>
    </g>
    <g id="line2d_13">
     <path d="M 385.460938 64.938437 
L 405.460938 64.938437 
" style="fill:none;stroke:#1f77b4;stroke-linecap:square;stroke-width:1.5;"/>
    </g>
    <g id="line2d_14"/>
    <g id="text_13">
     <!-- target -->
     <defs>
      <path d="M 41.109375 46.296875 
Q 39.59375 47.171875 37.8125 47.578125 
Q 36.03125 48 33.890625 48 
Q 26.265625 48 22.1875 43.046875 
Q 18.109375 38.09375 18.109375 28.8125 
L 18.109375 0 
L 9.078125 0 
L 9.078125 54.6875 
L 18.109375 54.6875 
L 18.109375 46.1875 
Q 20.953125 51.171875 25.484375 53.578125 
Q 30.03125 56 36.53125 56 
Q 37.453125 56 38.578125 55.875 
Q 39.703125 55.765625 41.0625 55.515625 
z
" id="DejaVuSans-114"/>
     </defs>
     <g transform="translate(413.460938 68.438437)scale(0.1 -0.1)">
      <use xlink:href="#DejaVuSans-116"/>
      <use x="39.208984" xlink:href="#DejaVuSans-97"/>
      <use x="100.488281" xlink:href="#DejaVuSans-114"/>
      <use x="141.585938" xlink:href="#DejaVuSans-103"/>
      <use x="205.0625" xlink:href="#DejaVuSans-101"/>
      <use x="266.585938" xlink:href="#DejaVuSans-116"/>
     </g>
    </g>
    <g id="line2d_15">
     <path d="M 385.460938 79.616562 
L 405.460938 79.616562 
" style="fill:none;stroke:#ff0000;stroke-linecap:square;stroke-width:1.5;"/>
    </g>
    <g id="line2d_16"/>
    <g id="text_14">
     <!-- model -->
     <defs>
      <path d="M 45.40625 46.390625 
L 45.40625 75.984375 
L 54.390625 75.984375 
L 54.390625 0 
L 45.40625 0 
L 45.40625 8.203125 
Q 42.578125 3.328125 38.25 0.953125 
Q 33.9375 -1.421875 27.875 -1.421875 
Q 17.96875 -1.421875 11.734375 6.484375 
Q 5.515625 14.40625 5.515625 27.296875 
Q 5.515625 40.1875 11.734375 48.09375 
Q 17.96875 56 27.875 56 
Q 33.9375 56 38.25 53.625 
Q 42.578125 51.265625 45.40625 46.390625 
z
M 14.796875 27.296875 
Q 14.796875 17.390625 18.875 11.75 
Q 22.953125 6.109375 30.078125 6.109375 
Q 37.203125 6.109375 41.296875 11.75 
Q 45.40625 17.390625 45.40625 27.296875 
Q 45.40625 37.203125 41.296875 42.84375 
Q 37.203125 48.484375 30.078125 48.484375 
Q 22.953125 48.484375 18.875 42.84375 
Q 14.796875 37.203125 14.796875 27.296875 
z
" id="DejaVuSans-100"/>
     </defs>
     <g transform="translate(413.460938 83.116562)scale(0.1 -0.1)">
      <use xlink:href="#DejaVuSans-109"/>
      <use x="97.412109" xlink:href="#DejaVuSans-111"/>
      <use x="158.59375" xlink:href="#DejaVuSans-100"/>
      <use x="222.070312" xlink:href="#DejaVuSans-101"/>
      <use x="283.59375" xlink:href="#DejaVuSans-108"/>
     </g>
    </g>
   </g>
  </g>
 </g>
 <defs>
  <clipPath id="p621535a833">
   <rect height="332.64" width="390.6" x="63" y="51.84"/>
  </clipPath>
 </defs>
</svg>
