<?xml version="1.0" encoding="utf-8" standalone="no"?>
<!DOCTYPE svg PUBLIC "-//W3C//DTD SVG 1.1//EN"
  "http://www.w3.org/Graphics/SVG/1.1/DTD/svg11.dtd">
<!-- Created with matplotlib (https://matplotlib.org/) -->
<svg height="432pt" version="1.1" viewBox="0 0 504 432" width="504pt" xmlns="http://www.w3.org/2000/svg" xmlns:xlink="http://www.w3.org/1999/xlink">
 <defs>
  <style type="text/css">
*{stroke-linecap:butt;stroke-linejoin:round;}
  </style>
 </defs>
 <g id="figure_1">
  <g id="patch_1">
   <path d="M 0 432 
L 504 432 
L 504 0 
L 0 0 
z
" style="fill:#ffffff;"/>
  </g>
  <g id="axes_1">
   <g id="patch_2">
    <path d="M 63 384.48 
L 453.6 384.48 
L 453.6 51.84 
L 63 51.84 
z
" style="fill:#ffffff;"/>
   </g>
   <g id="matplotlib.axis_1">
    <g id="xtick_1">
     <g id="line2d_1">
      <defs>
       <path d="M 0 0 
L 0 3.5 
" id="mfc4da319d5" style="stroke:#000000;stroke-width:0.8;"/>
      </defs>
      <g>
       <use style="stroke:#000000;stroke-width:0.8;" x="80.754545" xlink:href="#mfc4da319d5" y="384.48"/>
      </g>
     </g>
     <g id="text_1">
      <!-- 0 -->
      <defs>
       <path d="M 31.78125 66.40625 
Q 24.171875 66.40625 20.328125 58.90625 
Q 16.5 51.421875 16.5 36.375 
Q 16.5 21.390625 20.328125 13.890625 
Q 24.171875 6.390625 31.78125 6.390625 
Q 39.453125 6.390625 43.28125 13.890625 
Q 47.125 21.390625 47.125 36.375 
Q 47.125 51.421875 43.28125 58.90625 
Q 39.453125 66.40625 31.78125 66.40625 
z
M 31.78125 74.21875 
Q 44.046875 74.21875 50.515625 64.515625 
Q 56.984375 54.828125 56.984375 36.375 
Q 56.984375 17.96875 50.515625 8.265625 
Q 44.046875 -1.421875 31.78125 -1.421875 
Q 19.53125 -1.421875 13.0625 8.265625 
Q 6.59375 17.96875 6.59375 36.375 
Q 6.59375 54.828125 13.0625 64.515625 
Q 19.53125 74.21875 31.78125 74.21875 
z
" id="DejaVuSans-48"/>
      </defs>
      <g transform="translate(77.573295 399.078438)scale(0.1 -0.1)">
       <use xlink:href="#DejaVuSans-48"/>
      </g>
     </g>
    </g>
    <g id="xtick_2">
     <g id="line2d_2">
      <g>
       <use style="stroke:#000000;stroke-width:0.8;" x="151.772727" xlink:href="#mfc4da319d5" y="384.48"/>
      </g>
     </g>
     <g id="text_2">
      <!-- 200 -->
      <defs>
       <path d="M 19.1875 8.296875 
L 53.609375 8.296875 
L 53.609375 0 
L 7.328125 0 
L 7.328125 8.296875 
Q 12.9375 14.109375 22.625 23.890625 
Q 32.328125 33.6875 34.8125 36.53125 
Q 39.546875 41.84375 41.421875 45.53125 
Q 43.3125 49.21875 43.3125 52.78125 
Q 43.3125 58.59375 39.234375 62.25 
Q 35.15625 65.921875 28.609375 65.921875 
Q 23.96875 65.921875 18.8125 64.3125 
Q 13.671875 62.703125 7.8125 59.421875 
L 7.8125 69.390625 
Q 13.765625 71.78125 18.9375 73 
Q 24.125 74.21875 28.421875 74.21875 
Q 39.75 74.21875 46.484375 68.546875 
Q 53.21875 62.890625 53.21875 53.421875 
Q 53.21875 48.921875 51.53125 44.890625 
Q 49.859375 40.875 45.40625 35.40625 
Q 44.1875 33.984375 37.640625 27.21875 
Q 31.109375 20.453125 19.1875 8.296875 
z
" id="DejaVuSans-50"/>
      </defs>
      <g transform="translate(142.228977 399.078438)scale(0.1 -0.1)">
       <use xlink:href="#DejaVuSans-50"/>
       <use x="63.623047" xlink:href="#DejaVuSans-48"/>
       <use x="127.246094" xlink:href="#DejaVuSans-48"/>
      </g>
     </g>
    </g>
    <g id="xtick_3">
     <g id="line2d_3">
      <g>
       <use style="stroke:#000000;stroke-width:0.8;" x="222.790909" xlink:href="#mfc4da319d5" y="384.48"/>
      </g>
     </g>
     <g id="text_3">
      <!-- 400 -->
      <defs>
       <path d="M 37.796875 64.3125 
L 12.890625 25.390625 
L 37.796875 25.390625 
z
M 35.203125 72.90625 
L 47.609375 72.90625 
L 47.609375 25.390625 
L 58.015625 25.390625 
L 58.015625 17.1875 
L 47.609375 17.1875 
L 47.609375 0 
L 37.796875 0 
L 37.796875 17.1875 
L 4.890625 17.1875 
L 4.890625 26.703125 
z
" id="DejaVuSans-52"/>
      </defs>
      <g transform="translate(213.247159 399.078438)scale(0.1 -0.1)">
       <use xlink:href="#DejaVuSans-52"/>
       <use x="63.623047" xlink:href="#DejaVuSans-48"/>
       <use x="127.246094" xlink:href="#DejaVuSans-48"/>
      </g>
     </g>
    </g>
    <g id="xtick_4">
     <g id="line2d_4">
      <g>
       <use style="stroke:#000000;stroke-width:0.8;" x="293.809091" xlink:href="#mfc4da319d5" y="384.48"/>
      </g>
     </g>
     <g id="text_4">
      <!-- 600 -->
      <defs>
       <path d="M 33.015625 40.375 
Q 26.375 40.375 22.484375 35.828125 
Q 18.609375 31.296875 18.609375 23.390625 
Q 18.609375 15.53125 22.484375 10.953125 
Q 26.375 6.390625 33.015625 6.390625 
Q 39.65625 6.390625 43.53125 10.953125 
Q 47.40625 15.53125 47.40625 23.390625 
Q 47.40625 31.296875 43.53125 35.828125 
Q 39.65625 40.375 33.015625 40.375 
z
M 52.59375 71.296875 
L 52.59375 62.3125 
Q 48.875 64.0625 45.09375 64.984375 
Q 41.3125 65.921875 37.59375 65.921875 
Q 27.828125 65.921875 22.671875 59.328125 
Q 17.53125 52.734375 16.796875 39.40625 
Q 19.671875 43.65625 24.015625 45.921875 
Q 28.375 48.1875 33.59375 48.1875 
Q 44.578125 48.1875 50.953125 41.515625 
Q 57.328125 34.859375 57.328125 23.390625 
Q 57.328125 12.15625 50.6875 5.359375 
Q 44.046875 -1.421875 33.015625 -1.421875 
Q 20.359375 -1.421875 13.671875 8.265625 
Q 6.984375 17.96875 6.984375 36.375 
Q 6.984375 53.65625 15.1875 63.9375 
Q 23.390625 74.21875 37.203125 74.21875 
Q 40.921875 74.21875 44.703125 73.484375 
Q 48.484375 72.75 52.59375 71.296875 
z
" id="DejaVuSans-54"/>
      </defs>
      <g transform="translate(284.265341 399.078438)scale(0.1 -0.1)">
       <use xlink:href="#DejaVuSans-54"/>
       <use x="63.623047" xlink:href="#DejaVuSans-48"/>
       <use x="127.246094" xlink:href="#DejaVuSans-48"/>
      </g>
     </g>
    </g>
    <g id="xtick_5">
     <g id="line2d_5">
      <g>
       <use style="stroke:#000000;stroke-width:0.8;" x="364.827273" xlink:href="#mfc4da319d5" y="384.48"/>
      </g>
     </g>
     <g id="text_5">
      <!-- 800 -->
      <defs>
       <path d="M 31.78125 34.625 
Q 24.75 34.625 20.71875 30.859375 
Q 16.703125 27.09375 16.703125 20.515625 
Q 16.703125 13.921875 20.71875 10.15625 
Q 24.75 6.390625 31.78125 6.390625 
Q 38.8125 6.390625 42.859375 10.171875 
Q 46.921875 13.96875 46.921875 20.515625 
Q 46.921875 27.09375 42.890625 30.859375 
Q 38.875 34.625 31.78125 34.625 
z
M 21.921875 38.8125 
Q 15.578125 40.375 12.03125 44.71875 
Q 8.5 49.078125 8.5 55.328125 
Q 8.5 64.0625 14.71875 69.140625 
Q 20.953125 74.21875 31.78125 74.21875 
Q 42.671875 74.21875 48.875 69.140625 
Q 55.078125 64.0625 55.078125 55.328125 
Q 55.078125 49.078125 51.53125 44.71875 
Q 48 40.375 41.703125 38.8125 
Q 48.828125 37.15625 52.796875 32.3125 
Q 56.78125 27.484375 56.78125 20.515625 
Q 56.78125 9.90625 50.3125 4.234375 
Q 43.84375 -1.421875 31.78125 -1.421875 
Q 19.734375 -1.421875 13.25 4.234375 
Q 6.78125 9.90625 6.78125 20.515625 
Q 6.78125 27.484375 10.78125 32.3125 
Q 14.796875 37.15625 21.921875 38.8125 
z
M 18.3125 54.390625 
Q 18.3125 48.734375 21.84375 45.5625 
Q 25.390625 42.390625 31.78125 42.390625 
Q 38.140625 42.390625 41.71875 45.5625 
Q 45.3125 48.734375 45.3125 54.390625 
Q 45.3125 60.0625 41.71875 63.234375 
Q 38.140625 66.40625 31.78125 66.40625 
Q 25.390625 66.40625 21.84375 63.234375 
Q 18.3125 60.0625 18.3125 54.390625 
z
" id="DejaVuSans-56"/>
      </defs>
      <g transform="translate(355.283523 399.078438)scale(0.1 -0.1)">
       <use xlink:href="#DejaVuSans-56"/>
       <use x="63.623047" xlink:href="#DejaVuSans-48"/>
       <use x="127.246094" xlink:href="#DejaVuSans-48"/>
      </g>
     </g>
    </g>
    <g id="text_6">
     <!-- time [ms] -->
     <defs>
      <path d="M 18.3125 70.21875 
L 18.3125 54.6875 
L 36.8125 54.6875 
L 36.8125 47.703125 
L 18.3125 47.703125 
L 18.3125 18.015625 
Q 18.3125 11.328125 20.140625 9.421875 
Q 21.96875 7.515625 27.59375 7.515625 
L 36.8125 7.515625 
L 36.8125 0 
L 27.59375 0 
Q 17.1875 0 13.234375 3.875 
Q 9.28125 7.765625 9.28125 18.015625 
L 9.28125 47.703125 
L 2.6875 47.703125 
L 2.6875 54.6875 
L 9.28125 54.6875 
L 9.28125 70.21875 
z
" id="DejaVuSans-116"/>
      <path d="M 9.421875 54.6875 
L 18.40625 54.6875 
L 18.40625 0 
L 9.421875 0 
z
M 9.421875 75.984375 
L 18.40625 75.984375 
L 18.40625 64.59375 
L 9.421875 64.59375 
z
" id="DejaVuSans-105"/>
      <path d="M 52 44.1875 
Q 55.375 50.25 60.0625 53.125 
Q 64.75 56 71.09375 56 
Q 79.640625 56 84.28125 50.015625 
Q 88.921875 44.046875 88.921875 33.015625 
L 88.921875 0 
L 79.890625 0 
L 79.890625 32.71875 
Q 79.890625 40.578125 77.09375 44.375 
Q 74.3125 48.1875 68.609375 48.1875 
Q 61.625 48.1875 57.5625 43.546875 
Q 53.515625 38.921875 53.515625 30.90625 
L 53.515625 0 
L 44.484375 0 
L 44.484375 32.71875 
Q 44.484375 40.625 41.703125 44.40625 
Q 38.921875 48.1875 33.109375 48.1875 
Q 26.21875 48.1875 22.15625 43.53125 
Q 18.109375 38.875 18.109375 30.90625 
L 18.109375 0 
L 9.078125 0 
L 9.078125 54.6875 
L 18.109375 54.6875 
L 18.109375 46.1875 
Q 21.1875 51.21875 25.484375 53.609375 
Q 29.78125 56 35.6875 56 
Q 41.65625 56 45.828125 52.96875 
Q 50 49.953125 52 44.1875 
z
" id="DejaVuSans-109"/>
      <path d="M 56.203125 29.59375 
L 56.203125 25.203125 
L 14.890625 25.203125 
Q 15.484375 15.921875 20.484375 11.0625 
Q 25.484375 6.203125 34.421875 6.203125 
Q 39.59375 6.203125 44.453125 7.46875 
Q 49.3125 8.734375 54.109375 11.28125 
L 54.109375 2.78125 
Q 49.265625 0.734375 44.1875 -0.34375 
Q 39.109375 -1.421875 33.890625 -1.421875 
Q 20.796875 -1.421875 13.15625 6.1875 
Q 5.515625 13.8125 5.515625 26.8125 
Q 5.515625 40.234375 12.765625 48.109375 
Q 20.015625 56 32.328125 56 
Q 43.359375 56 49.78125 48.890625 
Q 56.203125 41.796875 56.203125 29.59375 
z
M 47.21875 32.234375 
Q 47.125 39.59375 43.09375 43.984375 
Q 39.0625 48.390625 32.421875 48.390625 
Q 24.90625 48.390625 20.390625 44.140625 
Q 15.875 39.890625 15.1875 32.171875 
z
" id="DejaVuSans-101"/>
      <path id="DejaVuSans-32"/>
      <path d="M 8.59375 75.984375 
L 29.296875 75.984375 
L 29.296875 69 
L 17.578125 69 
L 17.578125 -6.203125 
L 29.296875 -6.203125 
L 29.296875 -13.1875 
L 8.59375 -13.1875 
z
" id="DejaVuSans-91"/>
      <path d="M 44.28125 53.078125 
L 44.28125 44.578125 
Q 40.484375 46.53125 36.375 47.5 
Q 32.28125 48.484375 27.875 48.484375 
Q 21.1875 48.484375 17.84375 46.4375 
Q 14.5 44.390625 14.5 40.28125 
Q 14.5 37.15625 16.890625 35.375 
Q 19.28125 33.59375 26.515625 31.984375 
L 29.59375 31.296875 
Q 39.15625 29.25 43.1875 25.515625 
Q 47.21875 21.78125 47.21875 15.09375 
Q 47.21875 7.46875 41.1875 3.015625 
Q 35.15625 -1.421875 24.609375 -1.421875 
Q 20.21875 -1.421875 15.453125 -0.5625 
Q 10.6875 0.296875 5.421875 2 
L 5.421875 11.28125 
Q 10.40625 8.6875 15.234375 7.390625 
Q 20.0625 6.109375 24.8125 6.109375 
Q 31.15625 6.109375 34.5625 8.28125 
Q 37.984375 10.453125 37.984375 14.40625 
Q 37.984375 18.0625 35.515625 20.015625 
Q 33.0625 21.96875 24.703125 23.78125 
L 21.578125 24.515625 
Q 13.234375 26.265625 9.515625 29.90625 
Q 5.8125 33.546875 5.8125 39.890625 
Q 5.8125 47.609375 11.28125 51.796875 
Q 16.75 56 26.8125 56 
Q 31.78125 56 36.171875 55.265625 
Q 40.578125 54.546875 44.28125 53.078125 
z
" id="DejaVuSans-115"/>
      <path d="M 30.421875 75.984375 
L 30.421875 -13.1875 
L 9.71875 -13.1875 
L 9.71875 -6.203125 
L 21.390625 -6.203125 
L 21.390625 69 
L 9.71875 69 
L 9.71875 75.984375 
z
" id="DejaVuSans-93"/>
     </defs>
     <g transform="translate(234.038281 412.756563)scale(0.1 -0.1)">
      <use xlink:href="#DejaVuSans-116"/>
      <use x="39.208984" xlink:href="#DejaVuSans-105"/>
      <use x="66.992188" xlink:href="#DejaVuSans-109"/>
      <use x="164.404297" xlink:href="#DejaVuSans-101"/>
      <use x="225.927734" xlink:href="#DejaVuSans-32"/>
      <use x="257.714844" xlink:href="#DejaVuSans-91"/>
      <use x="296.728516" xlink:href="#DejaVuSans-109"/>
      <use x="394.140625" xlink:href="#DejaVuSans-115"/>
      <use x="446.240234" xlink:href="#DejaVuSans-93"/>
     </g>
    </g>
   </g>
   <g id="matplotlib.axis_2">
    <g id="ytick_1">
     <g id="line2d_6">
      <defs>
       <path d="M 0 0 
L -3.5 0 
" id="m6c6dfe1f77" style="stroke:#000000;stroke-width:0.8;"/>
      </defs>
      <g>
       <use style="stroke:#000000;stroke-width:0.8;" x="63" xlink:href="#m6c6dfe1f77" y="346.378668"/>
      </g>
     </g>
     <g id="text_7">
      <!-- −60 -->
      <defs>
       <path d="M 10.59375 35.5 
L 73.1875 35.5 
L 73.1875 27.203125 
L 10.59375 27.203125 
z
" id="DejaVuSans-8722"/>
      </defs>
      <g transform="translate(34.895313 350.177887)scale(0.1 -0.1)">
       <use xlink:href="#DejaVuSans-8722"/>
       <use x="83.789062" xlink:href="#DejaVuSans-54"/>
       <use x="147.412109" xlink:href="#DejaVuSans-48"/>
      </g>
     </g>
    </g>
    <g id="ytick_2">
     <g id="line2d_7">
      <g>
       <use style="stroke:#000000;stroke-width:0.8;" x="63" xlink:href="#m6c6dfe1f77" y="279.677228"/>
      </g>
     </g>
     <g id="text_8">
      <!-- −40 -->
      <g transform="translate(34.895313 283.476447)scale(0.1 -0.1)">
       <use xlink:href="#DejaVuSans-8722"/>
       <use x="83.789062" xlink:href="#DejaVuSans-52"/>
       <use x="147.412109" xlink:href="#DejaVuSans-48"/>
      </g>
     </g>
    </g>
    <g id="ytick_3">
     <g id="line2d_8">
      <g>
       <use style="stroke:#000000;stroke-width:0.8;" x="63" xlink:href="#m6c6dfe1f77" y="212.975788"/>
      </g>
     </g>
     <g id="text_9">
      <!-- −20 -->
      <g transform="translate(34.895313 216.775006)scale(0.1 -0.1)">
       <use xlink:href="#DejaVuSans-8722"/>
       <use x="83.789062" xlink:href="#DejaVuSans-50"/>
       <use x="147.412109" xlink:href="#DejaVuSans-48"/>
      </g>
     </g>
    </g>
    <g id="ytick_4">
     <g id="line2d_9">
      <g>
       <use style="stroke:#000000;stroke-width:0.8;" x="63" xlink:href="#m6c6dfe1f77" y="146.274348"/>
      </g>
     </g>
     <g id="text_10">
      <!-- 0 -->
      <g transform="translate(49.6375 150.073566)scale(0.1 -0.1)">
       <use xlink:href="#DejaVuSans-48"/>
      </g>
     </g>
    </g>
    <g id="ytick_5">
     <g id="line2d_10">
      <g>
       <use style="stroke:#000000;stroke-width:0.8;" x="63" xlink:href="#m6c6dfe1f77" y="79.572907"/>
      </g>
     </g>
     <g id="text_11">
      <!-- 20 -->
      <g transform="translate(43.275 83.372126)scale(0.1 -0.1)">
       <use xlink:href="#DejaVuSans-50"/>
       <use x="63.623047" xlink:href="#DejaVuSans-48"/>
      </g>
     </g>
    </g>
    <g id="text_12">
     <!-- voltage [V] -->
     <defs>
      <path d="M 2.984375 54.6875 
L 12.5 54.6875 
L 29.59375 8.796875 
L 46.6875 54.6875 
L 56.203125 54.6875 
L 35.6875 0 
L 23.484375 0 
z
" id="DejaVuSans-118"/>
      <path d="M 30.609375 48.390625 
Q 23.390625 48.390625 19.1875 42.75 
Q 14.984375 37.109375 14.984375 27.296875 
Q 14.984375 17.484375 19.15625 11.84375 
Q 23.34375 6.203125 30.609375 6.203125 
Q 37.796875 6.203125 41.984375 11.859375 
Q 46.1875 17.53125 46.1875 27.296875 
Q 46.1875 37.015625 41.984375 42.703125 
Q 37.796875 48.390625 30.609375 48.390625 
z
M 30.609375 56 
Q 42.328125 56 49.015625 48.375 
Q 55.71875 40.765625 55.71875 27.296875 
Q 55.71875 13.875 49.015625 6.21875 
Q 42.328125 -1.421875 30.609375 -1.421875 
Q 18.84375 -1.421875 12.171875 6.21875 
Q 5.515625 13.875 5.515625 27.296875 
Q 5.515625 40.765625 12.171875 48.375 
Q 18.84375 56 30.609375 56 
z
" id="DejaVuSans-111"/>
      <path d="M 9.421875 75.984375 
L 18.40625 75.984375 
L 18.40625 0 
L 9.421875 0 
z
" id="DejaVuSans-108"/>
      <path d="M 34.28125 27.484375 
Q 23.390625 27.484375 19.1875 25 
Q 14.984375 22.515625 14.984375 16.5 
Q 14.984375 11.71875 18.140625 8.90625 
Q 21.296875 6.109375 26.703125 6.109375 
Q 34.1875 6.109375 38.703125 11.40625 
Q 43.21875 16.703125 43.21875 25.484375 
L 43.21875 27.484375 
z
M 52.203125 31.203125 
L 52.203125 0 
L 43.21875 0 
L 43.21875 8.296875 
Q 40.140625 3.328125 35.546875 0.953125 
Q 30.953125 -1.421875 24.3125 -1.421875 
Q 15.921875 -1.421875 10.953125 3.296875 
Q 6 8.015625 6 15.921875 
Q 6 25.140625 12.171875 29.828125 
Q 18.359375 34.515625 30.609375 34.515625 
L 43.21875 34.515625 
L 43.21875 35.40625 
Q 43.21875 41.609375 39.140625 45 
Q 35.0625 48.390625 27.6875 48.390625 
Q 23 48.390625 18.546875 47.265625 
Q 14.109375 46.140625 10.015625 43.890625 
L 10.015625 52.203125 
Q 14.9375 54.109375 19.578125 55.046875 
Q 24.21875 56 28.609375 56 
Q 40.484375 56 46.34375 49.84375 
Q 52.203125 43.703125 52.203125 31.203125 
z
" id="DejaVuSans-97"/>
      <path d="M 45.40625 27.984375 
Q 45.40625 37.75 41.375 43.109375 
Q 37.359375 48.484375 30.078125 48.484375 
Q 22.859375 48.484375 18.828125 43.109375 
Q 14.796875 37.75 14.796875 27.984375 
Q 14.796875 18.265625 18.828125 12.890625 
Q 22.859375 7.515625 30.078125 7.515625 
Q 37.359375 7.515625 41.375 12.890625 
Q 45.40625 18.265625 45.40625 27.984375 
z
M 54.390625 6.78125 
Q 54.390625 -7.171875 48.1875 -13.984375 
Q 42 -20.796875 29.203125 -20.796875 
Q 24.46875 -20.796875 20.265625 -20.09375 
Q 16.0625 -19.390625 12.109375 -17.921875 
L 12.109375 -9.1875 
Q 16.0625 -11.328125 19.921875 -12.34375 
Q 23.78125 -13.375 27.78125 -13.375 
Q 36.625 -13.375 41.015625 -8.765625 
Q 45.40625 -4.15625 45.40625 5.171875 
L 45.40625 9.625 
Q 42.625 4.78125 38.28125 2.390625 
Q 33.9375 0 27.875 0 
Q 17.828125 0 11.671875 7.65625 
Q 5.515625 15.328125 5.515625 27.984375 
Q 5.515625 40.671875 11.671875 48.328125 
Q 17.828125 56 27.875 56 
Q 33.9375 56 38.28125 53.609375 
Q 42.625 51.21875 45.40625 46.390625 
L 45.40625 54.6875 
L 54.390625 54.6875 
z
" id="DejaVuSans-103"/>
      <path d="M 28.609375 0 
L 0.78125 72.90625 
L 11.078125 72.90625 
L 34.1875 11.53125 
L 57.328125 72.90625 
L 67.578125 72.90625 
L 39.796875 0 
z
" id="DejaVuSans-86"/>
     </defs>
     <g transform="translate(28.815625 245.75375)rotate(-90)scale(0.1 -0.1)">
      <use xlink:href="#DejaVuSans-118"/>
      <use x="59.179688" xlink:href="#DejaVuSans-111"/>
      <use x="120.361328" xlink:href="#DejaVuSans-108"/>
      <use x="148.144531" xlink:href="#DejaVuSans-116"/>
      <use x="187.353516" xlink:href="#DejaVuSans-97"/>
      <use x="248.632812" xlink:href="#DejaVuSans-103"/>
      <use x="312.109375" xlink:href="#DejaVuSans-101"/>
      <use x="373.632812" xlink:href="#DejaVuSans-32"/>
      <use x="405.419922" xlink:href="#DejaVuSans-91"/>
      <use x="444.433594" xlink:href="#DejaVuSans-86"/>
      <use x="512.841797" xlink:href="#DejaVuSans-93"/>
     </g>
    </g>
   </g>
   <g id="line2d_11">
    <path clip-path="url(#p7989d0c20f)" d="M 80.754545 363.05402 
L 81.695536 363.065925 
L 85.743573 363.485599 
L 98.5446 364.798825 
L 108.646936 365.592308 
L 119.494964 366.21815 
L 131.656827 366.692396 
L 145.878218 367.018084 
L 151.772727 367.099406 
L 151.8615 365.089595 
L 152.234345 356.900245 
L 152.731473 351.168311 
L 153.565936 344.39628 
L 154.9863 334.853921 
L 156.726245 324.687699 
L 158.412927 316.091814 
L 160.028591 308.971018 
L 161.590991 303.081245 
L 163.153391 298.064128 
L 164.840073 293.414698 
L 167.236936 287.543108 
L 168.941373 283.136324 
L 169.793591 280.328161 
L 170.361736 277.709994 
L 170.752336 274.873324 
L 171.036409 270.798537 
L 171.1962 263.614589 
L 171.249464 255.627822 
L 171.622309 69.287483 
L 171.675573 66.96 
L 171.746591 67.199668 
L 171.906382 79.956289 
L 172.190455 132.339748 
L 172.847373 249.951781 
L 173.220218 284.261756 
L 173.5398 296.566362 
L 173.912645 302.982694 
L 174.303245 306.339867 
L 174.782618 308.538235 
L 175.226482 309.645735 
L 175.6881 310.234513 
L 176.096455 310.427085 
L 176.522564 310.383619 
L 177.019691 310.092283 
L 177.676609 309.411619 
L 178.528827 308.181601 
L 179.771645 305.971267 
L 182.807673 299.952612 
L 185.470855 294.96273 
L 188.134036 290.471652 
L 192.217582 283.640385 
L 193.336118 281.257916 
L 194.117318 279.059804 
L 194.685464 276.739731 
L 195.093818 273.962397 
L 195.324627 271.021897 
L 195.502173 265.105684 
L 195.573191 255.926919 
L 195.626455 228.60521 
L 195.839509 97.597846 
L 196.017055 89.017873 
L 196.034809 88.976592 
L 196.176845 92.6939 
L 196.407655 109.66968 
L 196.744991 158.188371 
L 197.437418 255.204262 
L 197.810264 279.791998 
L 198.200864 291.445409 
L 198.591464 297.048229 
L 199.070836 300.723059 
L 199.550209 302.878731 
L 200.082845 304.364101 
L 200.650991 305.302734 
L 201.219136 305.79257 
L 201.787282 305.959625 
L 202.390936 305.874904 
L 203.083364 305.53335 
L 203.988845 304.808114 
L 205.231664 303.487751 
L 207.220173 300.998859 
L 212.9904 293.645884 
L 217.855145 287.984717 
L 220.4118 284.818815 
L 221.885427 282.646932 
L 222.915191 280.737914 
L 223.660882 278.897566 
L 224.229027 276.882541 
L 224.637382 274.569277 
L 224.9037 271.859331 
L 225.081245 268.123896 
L 225.205527 258.925704 
L 225.241036 245.497292 
L 225.525109 96.399255 
L 225.596127 94.062739 
L 225.667145 94.611369 
L 225.862445 102.487899 
L 226.164273 126.716937 
L 226.679155 195.358747 
L 227.229545 256.781539 
L 227.6379 278.029093 
L 228.046255 288.29246 
L 228.454609 293.630417 
L 228.933982 297.240663 
L 229.502127 299.835224 
L 230.105782 301.563495 
L 230.691682 302.628077 
L 231.313091 303.306823 
L 231.898991 303.639136 
L 232.538155 303.747007 
L 233.266091 303.628066 
L 234.153818 303.230893 
L 235.236845 302.490151 
L 236.781491 301.139139 
L 239.320391 298.583162 
L 247.416464 290.324764 
L 251.446745 286.14791 
L 253.346482 283.858871 
L 254.642564 281.954906 
L 255.601309 280.14433 
L 256.275982 278.417761 
L 256.808618 276.432165 
L 257.181464 274.194362 
L 257.447782 271.211179 
L 257.607573 267.287609 
L 257.696345 260.818301 
L 257.767364 237.787118 
L 257.998173 99.990892 
L 258.122455 94.751146 
L 258.157964 95.356313 
L 258.264491 98.814257 
L 258.566318 119.099452 
L 258.956918 163.214603 
L 259.755873 255.340022 
L 260.181982 277.139822 
L 260.590336 287.219216 
L 261.016445 292.574223 
L 261.495818 295.973848 
L 262.028455 298.302081 
L 262.649864 300.039924 
L 263.271273 301.151835 
L 263.892682 301.843522 
L 264.531845 302.236655 
L 265.206518 302.39025 
L 265.952209 302.325925 
L 266.839936 302.015299 
L 267.958473 301.372135 
L 269.449855 300.2409 
L 271.722436 298.214599 
L 281.185609 289.241607 
L 284.434691 285.969182 
L 286.281164 283.807897 
L 287.577245 281.960696 
L 288.518236 280.248008 
L 289.246173 278.453463 
L 289.778809 276.535391 
L 290.151655 274.409619 
L 290.435727 271.443548 
L 290.631027 266.33969 
L 290.7198 257.987354 
L 290.844082 161.196168 
L 291.003873 99.134863 
L 291.128155 95.042768 
L 291.163664 95.569368 
L 291.341209 102.979109 
L 291.643036 126.505057 
L 292.175673 192.059989 
L 292.761573 254.833939 
L 293.152173 275.269113 
L 293.560527 286.135408 
L 294.004391 292.042027 
L 294.483764 295.57313 
L 295.051909 298.092398 
L 295.673318 299.828235 
L 296.276973 300.917072 
L 296.916136 301.639217 
L 297.5553 302.040464 
L 298.247727 302.206181 
L 299.028927 302.142764 
L 299.952164 301.820568 
L 301.141718 301.134866 
L 302.686364 299.965091 
L 305.154245 297.780104 
L 315.451882 288.123164 
L 318.150573 285.341185 
L 319.837255 283.294271 
L 321.062318 281.454187 
L 321.950045 279.71495 
L 322.589209 277.995884 
L 323.068582 276.105797 
L 323.423673 273.841101 
L 323.672236 270.911603 
L 323.849782 265.405264 
L 323.938555 254.595122 
L 323.974064 234.138095 
L 324.204873 100.37482 
L 324.3114 94.825938 
L 324.346909 95.302211 
L 324.453436 98.302988 
L 324.755264 118.267957 
L 325.163618 163.649056 
L 325.962573 254.655354 
L 326.388682 276.540253 
L 326.797036 286.846736 
L 327.2409 292.478034 
L 327.738027 295.956856 
L 328.306173 298.34362 
L 328.927582 299.991478 
L 329.5845 301.090993 
L 330.223664 301.737301 
L 330.880582 302.087845 
L 331.555255 302.201457 
L 332.354209 302.094974 
L 333.2952 301.727666 
L 334.484755 301.008664 
L 336.135927 299.725889 
L 338.834618 297.305944 
L 350.197527 286.591102 
L 352.274809 284.297908 
L 353.677418 282.43817 
L 354.724936 280.688594 
L 355.506136 278.94911 
L 356.092036 277.087491 
L 356.518145 274.979086 
L 356.819973 272.35646 
L 357.015273 268.807682 
L 357.139555 262.42828 
L 357.210573 243.464 
L 357.476891 97.819658 
L 357.565664 94.988861 
L 357.618927 95.570401 
L 357.778718 102.079231 
L 358.116055 128.557072 
L 358.648691 194.697059 
L 359.216836 255.082306 
L 359.625191 276.271527 
L 360.033545 286.813675 
L 360.459655 292.379946 
L 360.939027 295.855982 
L 361.453909 298.133865 
L 362.057564 299.840863 
L 362.678973 300.966524 
L 363.318136 301.682064 
L 363.975055 302.083222 
L 364.649727 302.234857 
L 364.862782 302.238951 
L 364.969309 304.433763 
L 365.306645 311.686361 
L 365.786018 316.800647 
L 366.460691 321.414111 
L 367.348418 325.941853 
L 368.395936 330.144951 
L 369.532227 333.830228 
L 370.775045 337.148812 
L 372.1599 340.220038 
L 373.633527 342.954978 
L 375.213682 345.429047 
L 376.900364 347.669399 
L 378.729082 349.736979 
L 380.735345 351.668408 
L 382.9014 353.444543 
L 385.280509 355.105998 
L 387.890427 356.656189 
L 390.819927 358.131296 
L 394.051255 359.505617 
L 397.673182 360.801257 
L 401.721218 362.011073 
L 406.266382 363.135433 
L 411.361936 364.164567 
L 417.061145 365.086144 
L 423.417273 365.886313 
L 430.572355 366.558605 
L 435.8277 366.927702 
L 435.8277 366.927702 
" style="fill:none;stroke:#1f77b4;stroke-linecap:square;stroke-width:1.5;"/>
   </g>
   <g id="line2d_12">
    <path clip-path="url(#p7989d0c20f)" d="M 80.754545 363.054028 
L 81.003109 363.010336 
L 82.050627 363.12351 
L 96.875673 365.320941 
L 102.752427 365.789805 
L 109.463645 366.095623 
L 117.772773 366.240313 
L 130.165445 366.208766 
L 151.772727 366.025946 
L 151.985782 355.892134 
L 152.429645 346.308526 
L 153.139827 336.091186 
L 154.134082 325.024629 
L 155.217109 315.317287 
L 156.264627 307.833263 
L 157.276636 302.125806 
L 158.3064 297.53766 
L 159.407182 293.627488 
L 160.632245 290.096932 
L 162.070364 286.639867 
L 164.520491 281.448801 
L 165.852082 278.338393 
L 166.615527 275.990428 
L 167.148164 273.610922 
L 167.521009 270.889791 
L 167.769573 267.477207 
L 167.929364 262.447709 
L 168.035891 250.263583 
L 168.089155 204.975222 
L 168.231191 80.450947 
L 168.248945 80.541239 
L 168.337718 87.693678 
L 168.781582 125.506018 
L 169.402991 158.987616 
L 169.651555 195.603714 
L 170.201945 286.431559 
L 170.521527 299.253602 
L 170.894373 306.048687 
L 171.284973 309.534383 
L 171.657818 311.159612 
L 171.995155 311.784297 
L 172.261473 311.894637 
L 172.527791 311.76054 
L 172.900636 311.275755 
L 173.468782 310.104373 
L 174.427527 307.534563 
L 177.037445 300.411236 
L 178.457809 297.2597 
L 179.895927 294.599882 
L 181.440573 292.206742 
L 183.162764 289.949835 
L 185.151273 287.715275 
L 187.636909 285.269848 
L 193.708964 279.451519 
L 194.916273 277.884824 
L 195.804 276.369958 
L 196.460918 274.810255 
L 196.958045 273.063936 
L 197.348645 270.831585 
L 197.632718 267.77973 
L 197.810264 263.533392 
L 197.916791 256.448562 
L 197.987809 233.154287 
L 198.1476 86.416523 
L 198.200864 89.182474 
L 198.9288 150.924237 
L 199.195118 181.962654 
L 199.940809 287.035276 
L 200.278145 295.585451 
L 200.668745 300.202243 
L 201.0771 302.6772 
L 201.485455 303.919119 
L 201.840545 304.387398 
L 202.160127 304.486509 
L 202.515218 304.347455 
L 202.994591 303.879088 
L 203.722527 302.807928 
L 205.302682 299.973656 
L 207.379964 296.415649 
L 209.119909 293.883906 
L 210.948627 291.615744 
L 212.9904 289.440766 
L 215.369509 287.239162 
L 218.423291 284.734004 
L 224.086991 280.147955 
L 225.596127 278.592528 
L 226.6614 277.184305 
L 227.460355 275.760955 
L 228.064009 274.231961 
L 228.525627 272.459173 
L 228.880718 270.185405 
L 229.129282 267.171119 
L 229.306827 262.077296 
L 229.413355 250.93124 
L 229.466618 215.152859 
L 229.608655 86.798625 
L 229.626409 86.972542 
L 229.732936 97.172976 
L 230.141291 134.308396 
L 230.531891 166.927183 
L 230.798209 212.490987 
L 231.206564 277.5599 
L 231.490636 290.533682 
L 231.845727 297.199208 
L 232.254082 300.89627 
L 232.662436 302.787018 
L 233.053036 303.666694 
L 233.408127 303.973474 
L 233.727709 303.977738 
L 234.118309 303.741293 
L 234.6687 303.114389 
L 235.574182 301.693294 
L 239.480182 295.225944 
L 241.237882 292.901938 
L 243.155373 290.73775 
L 245.321427 288.634351 
L 247.878082 286.470658 
L 251.375727 283.826428 
L 255.849873 280.417512 
L 257.5188 278.857147 
L 258.672845 277.487342 
L 259.542818 276.111574 
L 260.199736 274.653431 
L 260.696864 273.014787 
L 261.087464 270.935155 
L 261.371536 268.17266 
L 261.566836 264.03856 
L 261.691118 256.221229 
L 261.762136 232.02514 
L 261.921927 86.902128 
L 261.957436 88.273549 
L 262.880673 172.428261 
L 263.1825 229.548964 
L 263.519836 278.043431 
L 263.803909 290.681935 
L 264.159 297.213718 
L 264.567355 300.844347 
L 264.975709 302.700561 
L 265.366309 303.562115 
L 265.7214 303.860174 
L 266.058736 303.855049 
L 266.449336 303.608175 
L 267.017482 302.952601 
L 267.958473 301.473291 
L 271.5804 295.516606 
L 273.3381 293.18463 
L 275.220082 291.058109 
L 277.332873 289.009228 
L 279.800755 286.93345 
L 282.943309 284.597755 
L 289.317191 279.940709 
L 290.861836 278.477298 
L 291.962618 277.131906 
L 292.779327 275.783133 
L 293.400736 274.327194 
L 293.880109 272.632052 
L 294.252955 270.448288 
L 294.519273 267.507423 
L 294.696818 263.085225 
L 294.803345 255.21231 
L 294.856609 239.69788 
L 295.034155 87.078988 
L 295.122927 94.456197 
L 295.566791 135.187447 
L 295.939636 166.484681 
L 296.205955 211.593754 
L 296.614309 277.145504 
L 296.898382 290.301132 
L 297.253473 297.002573 
L 297.644073 300.58995 
L 298.052427 302.539306 
L 298.443027 303.456011 
L 298.798118 303.788919 
L 299.135455 303.808522 
L 299.526055 303.583482 
L 300.076445 302.97481 
L 300.981927 301.587073 
L 304.870173 295.293692 
L 306.627873 293.02735 
L 308.527609 290.94209 
L 310.658155 288.936805 
L 313.126036 286.924161 
L 316.233082 284.69028 
L 323.281636 279.734622 
L 324.790773 278.326321 
L 325.8738 277.01601 
L 326.672755 275.707599 
L 327.294164 274.261527 
L 327.773536 272.569831 
L 328.146382 270.378338 
L 328.4127 267.402758 
L 328.590245 262.857374 
L 328.696773 254.439599 
L 328.750036 236.318864 
L 328.909827 87.192409 
L 328.980845 91.137712 
L 329.566745 142.6564 
L 329.868573 171.551394 
L 330.152645 224.127142 
L 330.507736 277.351269 
L 330.791809 290.319401 
L 331.1469 296.965128 
L 331.555255 300.646987 
L 331.963609 302.533307 
L 332.354209 303.416874 
L 332.7093 303.73227 
L 333.046636 303.742254 
L 333.437236 303.51183 
L 334.005382 302.878899 
L 334.928618 301.464508 
L 338.639318 295.496799 
L 340.397018 293.229531 
L 342.279 291.165962 
L 344.391791 289.183828 
L 346.824164 287.213956 
L 349.789173 285.110023 
L 358.453391 279.159031 
L 359.784982 277.847316 
L 360.761482 276.583262 
L 361.507173 275.256203 
L 362.075318 273.794683 
L 362.519182 272.031967 
L 362.856518 269.753752 
L 363.105082 266.43362 
L 363.264873 261.133525 
L 363.353645 251.215343 
L 363.406909 217.712521 
L 363.548945 87.302868 
L 363.5667 87.375379 
L 363.655473 95.106857 
L 364.081582 134.280646 
L 364.472182 166.790365 
L 364.7385 212.00889 
L 365.217873 294.620063 
L 365.537455 308.991814 
L 365.963564 318.757187 
L 366.4962 326.106613 
L 367.117609 331.738682 
L 367.845545 336.337504 
L 368.680009 340.198318 
L 369.638755 343.589181 
L 370.739536 346.663922 
L 371.982355 349.475288 
L 373.367209 352.060863 
L 374.8941 354.444214 
L 376.563027 356.639155 
L 378.373991 358.653883 
L 380.326991 360.493503 
L 382.422027 362.160934 
L 384.6591 363.656996 
L 387.038209 364.980521 
L 389.559355 366.128922 
L 392.240291 367.10501 
L 395.098773 367.907149 
L 398.170309 368.535288 
L 401.508164 368.988312 
L 405.236618 369.266212 
L 409.568727 369.359953 
L 415.001618 369.243643 
L 423.488291 368.809552 
L 435.845455 368.140435 
L 435.845455 368.140435 
" style="fill:none;stroke:#ff0000;stroke-linecap:square;stroke-width:1.5;"/>
   </g>
   <g id="patch_3">
    <path d="M 63 384.48 
L 63 51.84 
" style="fill:none;stroke:#000000;stroke-linecap:square;stroke-linejoin:miter;stroke-width:0.8;"/>
   </g>
   <g id="patch_4">
    <path d="M 453.6 384.48 
L 453.6 51.84 
" style="fill:none;stroke:#000000;stroke-linecap:square;stroke-linejoin:miter;stroke-width:0.8;"/>
   </g>
   <g id="patch_5">
    <path d="M 63 384.48 
L 453.6 384.48 
" style="fill:none;stroke:#000000;stroke-linecap:square;stroke-linejoin:miter;stroke-width:0.8;"/>
   </g>
   <g id="patch_6">
    <path d="M 63 51.84 
L 453.6 51.84 
" style="fill:none;stroke:#000000;stroke-linecap:square;stroke-linejoin:miter;stroke-width:0.8;"/>
   </g>
   <g id="legend_1">
    <g id="patch_7">
     <path d="M 383.460938 89.19625 
L 446.6 89.19625 
Q 448.6 89.19625 448.6 87.19625 
L 448.6 58.84 
Q 448.6 56.84 446.6 56.84 
L 383.460938 56.84 
Q 381.460938 56.84 381.460938 58.84 
L 381.460938 87.19625 
Q 381.460938 89.19625 383.460938 89.19625 
z
" style="fill:#ffffff;opacity:0.8;stroke:#cccccc;stroke-linejoin:miter;"/>
    </g>
    <g id="line2d_13">
     <path d="M 385.460938 64.938437 
L 405.460938 64.938437 
" style="fill:none;stroke:#1f77b4;stroke-linecap:square;stroke-width:1.5;"/>
    </g>
    <g id="line2d_14"/>
    <g id="text_13">
     <!-- target -->
     <defs>
      <path d="M 41.109375 46.296875 
Q 39.59375 47.171875 37.8125 47.578125 
Q 36.03125 48 33.890625 48 
Q 26.265625 48 22.1875 43.046875 
Q 18.109375 38.09375 18.109375 28.8125 
L 18.109375 0 
L 9.078125 0 
L 9.078125 54.6875 
L 18.109375 54.6875 
L 18.109375 46.1875 
Q 20.953125 51.171875 25.484375 53.578125 
Q 30.03125 56 36.53125 56 
Q 37.453125 56 38.578125 55.875 
Q 39.703125 55.765625 41.0625 55.515625 
z
" id="DejaVuSans-114"/>
     </defs>
     <g transform="translate(413.460938 68.438437)scale(0.1 -0.1)">
      <use xlink:href="#DejaVuSans-116"/>
      <use x="39.208984" xlink:href="#DejaVuSans-97"/>
      <use x="100.488281" xlink:href="#DejaVuSans-114"/>
      <use x="141.585938" xlink:href="#DejaVuSans-103"/>
      <use x="205.0625" xlink:href="#DejaVuSans-101"/>
      <use x="266.585938" xlink:href="#DejaVuSans-116"/>
     </g>
    </g>
    <g id="line2d_15">
     <path d="M 385.460938 79.616562 
L 405.460938 79.616562 
" style="fill:none;stroke:#ff0000;stroke-linecap:square;stroke-width:1.5;"/>
    </g>
    <g id="line2d_16"/>
    <g id="text_14">
     <!-- model -->
     <defs>
      <path d="M 45.40625 46.390625 
L 45.40625 75.984375 
L 54.390625 75.984375 
L 54.390625 0 
L 45.40625 0 
L 45.40625 8.203125 
Q 42.578125 3.328125 38.25 0.953125 
Q 33.9375 -1.421875 27.875 -1.421875 
Q 17.96875 -1.421875 11.734375 6.484375 
Q 5.515625 14.40625 5.515625 27.296875 
Q 5.515625 40.1875 11.734375 48.09375 
Q 17.96875 56 27.875 56 
Q 33.9375 56 38.25 53.625 
Q 42.578125 51.265625 45.40625 46.390625 
z
M 14.796875 27.296875 
Q 14.796875 17.390625 18.875 11.75 
Q 22.953125 6.109375 30.078125 6.109375 
Q 37.203125 6.109375 41.296875 11.75 
Q 45.40625 17.390625 45.40625 27.296875 
Q 45.40625 37.203125 41.296875 42.84375 
Q 37.203125 48.484375 30.078125 48.484375 
Q 22.953125 48.484375 18.875 42.84375 
Q 14.796875 37.203125 14.796875 27.296875 
z
" id="DejaVuSans-100"/>
     </defs>
     <g transform="translate(413.460938 83.116562)scale(0.1 -0.1)">
      <use xlink:href="#DejaVuSans-109"/>
      <use x="97.412109" xlink:href="#DejaVuSans-111"/>
      <use x="158.59375" xlink:href="#DejaVuSans-100"/>
      <use x="222.070312" xlink:href="#DejaVuSans-101"/>
      <use x="283.59375" xlink:href="#DejaVuSans-108"/>
     </g>
    </g>
   </g>
  </g>
 </g>
 <defs>
  <clipPath id="p7989d0c20f">
   <rect height="332.64" width="390.6" x="63" y="51.84"/>
  </clipPath>
 </defs>
</svg>
