<?xml version="1.0" encoding="utf-8" standalone="no"?>
<!DOCTYPE svg PUBLIC "-//W3C//DTD SVG 1.1//EN"
  "http://www.w3.org/Graphics/SVG/1.1/DTD/svg11.dtd">
<!-- Created with matplotlib (https://matplotlib.org/) -->
<svg height="432pt" version="1.1" viewBox="0 0 504 432" width="504pt" xmlns="http://www.w3.org/2000/svg" xmlns:xlink="http://www.w3.org/1999/xlink">
 <defs>
  <style type="text/css">
*{stroke-linecap:butt;stroke-linejoin:round;}
  </style>
 </defs>
 <g id="figure_1">
  <g id="patch_1">
   <path d="M 0 432 
L 504 432 
L 504 0 
L 0 0 
z
" style="fill:#ffffff;"/>
  </g>
  <g id="axes_1">
   <g id="patch_2">
    <path d="M 63 384.48 
L 453.6 384.48 
L 453.6 51.84 
L 63 51.84 
z
" style="fill:#ffffff;"/>
   </g>
   <g id="matplotlib.axis_1">
    <g id="xtick_1">
     <g id="line2d_1">
      <defs>
       <path d="M 0 0 
L 0 3.5 
" id="mbaefa0bd7c" style="stroke:#000000;stroke-width:0.8;"/>
      </defs>
      <g>
       <use style="stroke:#000000;stroke-width:0.8;" x="80.754545" xlink:href="#mbaefa0bd7c" y="384.48"/>
      </g>
     </g>
     <g id="text_1">
      <!-- 0 -->
      <defs>
       <path d="M 31.78125 66.40625 
Q 24.171875 66.40625 20.328125 58.90625 
Q 16.5 51.421875 16.5 36.375 
Q 16.5 21.390625 20.328125 13.890625 
Q 24.171875 6.390625 31.78125 6.390625 
Q 39.453125 6.390625 43.28125 13.890625 
Q 47.125 21.390625 47.125 36.375 
Q 47.125 51.421875 43.28125 58.90625 
Q 39.453125 66.40625 31.78125 66.40625 
z
M 31.78125 74.21875 
Q 44.046875 74.21875 50.515625 64.515625 
Q 56.984375 54.828125 56.984375 36.375 
Q 56.984375 17.96875 50.515625 8.265625 
Q 44.046875 -1.421875 31.78125 -1.421875 
Q 19.53125 -1.421875 13.0625 8.265625 
Q 6.59375 17.96875 6.59375 36.375 
Q 6.59375 54.828125 13.0625 64.515625 
Q 19.53125 74.21875 31.78125 74.21875 
z
" id="DejaVuSans-48"/>
      </defs>
      <g transform="translate(77.573295 399.078438)scale(0.1 -0.1)">
       <use xlink:href="#DejaVuSans-48"/>
      </g>
     </g>
    </g>
    <g id="xtick_2">
     <g id="line2d_2">
      <g>
       <use style="stroke:#000000;stroke-width:0.8;" x="151.763044" xlink:href="#mbaefa0bd7c" y="384.48"/>
      </g>
     </g>
     <g id="text_2">
      <!-- 880 -->
      <defs>
       <path d="M 31.78125 34.625 
Q 24.75 34.625 20.71875 30.859375 
Q 16.703125 27.09375 16.703125 20.515625 
Q 16.703125 13.921875 20.71875 10.15625 
Q 24.75 6.390625 31.78125 6.390625 
Q 38.8125 6.390625 42.859375 10.171875 
Q 46.921875 13.96875 46.921875 20.515625 
Q 46.921875 27.09375 42.890625 30.859375 
Q 38.875 34.625 31.78125 34.625 
z
M 21.921875 38.8125 
Q 15.578125 40.375 12.03125 44.71875 
Q 8.5 49.078125 8.5 55.328125 
Q 8.5 64.0625 14.71875 69.140625 
Q 20.953125 74.21875 31.78125 74.21875 
Q 42.671875 74.21875 48.875 69.140625 
Q 55.078125 64.0625 55.078125 55.328125 
Q 55.078125 49.078125 51.53125 44.71875 
Q 48 40.375 41.703125 38.8125 
Q 48.828125 37.15625 52.796875 32.3125 
Q 56.78125 27.484375 56.78125 20.515625 
Q 56.78125 9.90625 50.3125 4.234375 
Q 43.84375 -1.421875 31.78125 -1.421875 
Q 19.734375 -1.421875 13.25 4.234375 
Q 6.78125 9.90625 6.78125 20.515625 
Q 6.78125 27.484375 10.78125 32.3125 
Q 14.796875 37.15625 21.921875 38.8125 
z
M 18.3125 54.390625 
Q 18.3125 48.734375 21.84375 45.5625 
Q 25.390625 42.390625 31.78125 42.390625 
Q 38.140625 42.390625 41.71875 45.5625 
Q 45.3125 48.734375 45.3125 54.390625 
Q 45.3125 60.0625 41.71875 63.234375 
Q 38.140625 66.40625 31.78125 66.40625 
Q 25.390625 66.40625 21.84375 63.234375 
Q 18.3125 60.0625 18.3125 54.390625 
z
" id="DejaVuSans-56"/>
      </defs>
      <g transform="translate(142.219294 399.078438)scale(0.1 -0.1)">
       <use xlink:href="#DejaVuSans-56"/>
       <use x="63.623047" xlink:href="#DejaVuSans-56"/>
       <use x="127.246094" xlink:href="#DejaVuSans-48"/>
      </g>
     </g>
    </g>
    <g id="xtick_3">
     <g id="line2d_3">
      <g>
       <use style="stroke:#000000;stroke-width:0.8;" x="222.771543" xlink:href="#mbaefa0bd7c" y="384.48"/>
      </g>
     </g>
     <g id="text_3">
      <!-- 1760 -->
      <defs>
       <path d="M 12.40625 8.296875 
L 28.515625 8.296875 
L 28.515625 63.921875 
L 10.984375 60.40625 
L 10.984375 69.390625 
L 28.421875 72.90625 
L 38.28125 72.90625 
L 38.28125 8.296875 
L 54.390625 8.296875 
L 54.390625 0 
L 12.40625 0 
z
" id="DejaVuSans-49"/>
       <path d="M 8.203125 72.90625 
L 55.078125 72.90625 
L 55.078125 68.703125 
L 28.609375 0 
L 18.3125 0 
L 43.21875 64.59375 
L 8.203125 64.59375 
z
" id="DejaVuSans-55"/>
       <path d="M 33.015625 40.375 
Q 26.375 40.375 22.484375 35.828125 
Q 18.609375 31.296875 18.609375 23.390625 
Q 18.609375 15.53125 22.484375 10.953125 
Q 26.375 6.390625 33.015625 6.390625 
Q 39.65625 6.390625 43.53125 10.953125 
Q 47.40625 15.53125 47.40625 23.390625 
Q 47.40625 31.296875 43.53125 35.828125 
Q 39.65625 40.375 33.015625 40.375 
z
M 52.59375 71.296875 
L 52.59375 62.3125 
Q 48.875 64.0625 45.09375 64.984375 
Q 41.3125 65.921875 37.59375 65.921875 
Q 27.828125 65.921875 22.671875 59.328125 
Q 17.53125 52.734375 16.796875 39.40625 
Q 19.671875 43.65625 24.015625 45.921875 
Q 28.375 48.1875 33.59375 48.1875 
Q 44.578125 48.1875 50.953125 41.515625 
Q 57.328125 34.859375 57.328125 23.390625 
Q 57.328125 12.15625 50.6875 5.359375 
Q 44.046875 -1.421875 33.015625 -1.421875 
Q 20.359375 -1.421875 13.671875 8.265625 
Q 6.984375 17.96875 6.984375 36.375 
Q 6.984375 53.65625 15.1875 63.9375 
Q 23.390625 74.21875 37.203125 74.21875 
Q 40.921875 74.21875 44.703125 73.484375 
Q 48.484375 72.75 52.59375 71.296875 
z
" id="DejaVuSans-54"/>
      </defs>
      <g transform="translate(210.046543 399.078438)scale(0.1 -0.1)">
       <use xlink:href="#DejaVuSans-49"/>
       <use x="63.623047" xlink:href="#DejaVuSans-55"/>
       <use x="127.246094" xlink:href="#DejaVuSans-54"/>
       <use x="190.869141" xlink:href="#DejaVuSans-48"/>
      </g>
     </g>
    </g>
    <g id="xtick_4">
     <g id="line2d_4">
      <g>
       <use style="stroke:#000000;stroke-width:0.8;" x="293.780042" xlink:href="#mbaefa0bd7c" y="384.48"/>
      </g>
     </g>
     <g id="text_4">
      <!-- 2640 -->
      <defs>
       <path d="M 19.1875 8.296875 
L 53.609375 8.296875 
L 53.609375 0 
L 7.328125 0 
L 7.328125 8.296875 
Q 12.9375 14.109375 22.625 23.890625 
Q 32.328125 33.6875 34.8125 36.53125 
Q 39.546875 41.84375 41.421875 45.53125 
Q 43.3125 49.21875 43.3125 52.78125 
Q 43.3125 58.59375 39.234375 62.25 
Q 35.15625 65.921875 28.609375 65.921875 
Q 23.96875 65.921875 18.8125 64.3125 
Q 13.671875 62.703125 7.8125 59.421875 
L 7.8125 69.390625 
Q 13.765625 71.78125 18.9375 73 
Q 24.125 74.21875 28.421875 74.21875 
Q 39.75 74.21875 46.484375 68.546875 
Q 53.21875 62.890625 53.21875 53.421875 
Q 53.21875 48.921875 51.53125 44.890625 
Q 49.859375 40.875 45.40625 35.40625 
Q 44.1875 33.984375 37.640625 27.21875 
Q 31.109375 20.453125 19.1875 8.296875 
z
" id="DejaVuSans-50"/>
       <path d="M 37.796875 64.3125 
L 12.890625 25.390625 
L 37.796875 25.390625 
z
M 35.203125 72.90625 
L 47.609375 72.90625 
L 47.609375 25.390625 
L 58.015625 25.390625 
L 58.015625 17.1875 
L 47.609375 17.1875 
L 47.609375 0 
L 37.796875 0 
L 37.796875 17.1875 
L 4.890625 17.1875 
L 4.890625 26.703125 
z
" id="DejaVuSans-52"/>
      </defs>
      <g transform="translate(281.055042 399.078438)scale(0.1 -0.1)">
       <use xlink:href="#DejaVuSans-50"/>
       <use x="63.623047" xlink:href="#DejaVuSans-54"/>
       <use x="127.246094" xlink:href="#DejaVuSans-52"/>
       <use x="190.869141" xlink:href="#DejaVuSans-48"/>
      </g>
     </g>
    </g>
    <g id="xtick_5">
     <g id="line2d_5">
      <g>
       <use style="stroke:#000000;stroke-width:0.8;" x="364.788541" xlink:href="#mbaefa0bd7c" y="384.48"/>
      </g>
     </g>
     <g id="text_5">
      <!-- 3520 -->
      <defs>
       <path d="M 40.578125 39.3125 
Q 47.65625 37.796875 51.625 33 
Q 55.609375 28.21875 55.609375 21.1875 
Q 55.609375 10.40625 48.1875 4.484375 
Q 40.765625 -1.421875 27.09375 -1.421875 
Q 22.515625 -1.421875 17.65625 -0.515625 
Q 12.796875 0.390625 7.625 2.203125 
L 7.625 11.71875 
Q 11.71875 9.328125 16.59375 8.109375 
Q 21.484375 6.890625 26.8125 6.890625 
Q 36.078125 6.890625 40.9375 10.546875 
Q 45.796875 14.203125 45.796875 21.1875 
Q 45.796875 27.640625 41.28125 31.265625 
Q 36.765625 34.90625 28.71875 34.90625 
L 20.21875 34.90625 
L 20.21875 43.015625 
L 29.109375 43.015625 
Q 36.375 43.015625 40.234375 45.921875 
Q 44.09375 48.828125 44.09375 54.296875 
Q 44.09375 59.90625 40.109375 62.90625 
Q 36.140625 65.921875 28.71875 65.921875 
Q 24.65625 65.921875 20.015625 65.03125 
Q 15.375 64.15625 9.8125 62.3125 
L 9.8125 71.09375 
Q 15.4375 72.65625 20.34375 73.4375 
Q 25.25 74.21875 29.59375 74.21875 
Q 40.828125 74.21875 47.359375 69.109375 
Q 53.90625 64.015625 53.90625 55.328125 
Q 53.90625 49.265625 50.4375 45.09375 
Q 46.96875 40.921875 40.578125 39.3125 
z
" id="DejaVuSans-51"/>
       <path d="M 10.796875 72.90625 
L 49.515625 72.90625 
L 49.515625 64.59375 
L 19.828125 64.59375 
L 19.828125 46.734375 
Q 21.96875 47.46875 24.109375 47.828125 
Q 26.265625 48.1875 28.421875 48.1875 
Q 40.625 48.1875 47.75 41.5 
Q 54.890625 34.8125 54.890625 23.390625 
Q 54.890625 11.625 47.5625 5.09375 
Q 40.234375 -1.421875 26.90625 -1.421875 
Q 22.3125 -1.421875 17.546875 -0.640625 
Q 12.796875 0.140625 7.71875 1.703125 
L 7.71875 11.625 
Q 12.109375 9.234375 16.796875 8.0625 
Q 21.484375 6.890625 26.703125 6.890625 
Q 35.15625 6.890625 40.078125 11.328125 
Q 45.015625 15.765625 45.015625 23.390625 
Q 45.015625 31 40.078125 35.4375 
Q 35.15625 39.890625 26.703125 39.890625 
Q 22.75 39.890625 18.8125 39.015625 
Q 14.890625 38.140625 10.796875 36.28125 
z
" id="DejaVuSans-53"/>
      </defs>
      <g transform="translate(352.063541 399.078438)scale(0.1 -0.1)">
       <use xlink:href="#DejaVuSans-51"/>
       <use x="63.623047" xlink:href="#DejaVuSans-53"/>
       <use x="127.246094" xlink:href="#DejaVuSans-50"/>
       <use x="190.869141" xlink:href="#DejaVuSans-48"/>
      </g>
     </g>
    </g>
    <g id="text_6">
     <!-- time [ms] -->
     <defs>
      <path d="M 18.3125 70.21875 
L 18.3125 54.6875 
L 36.8125 54.6875 
L 36.8125 47.703125 
L 18.3125 47.703125 
L 18.3125 18.015625 
Q 18.3125 11.328125 20.140625 9.421875 
Q 21.96875 7.515625 27.59375 7.515625 
L 36.8125 7.515625 
L 36.8125 0 
L 27.59375 0 
Q 17.1875 0 13.234375 3.875 
Q 9.28125 7.765625 9.28125 18.015625 
L 9.28125 47.703125 
L 2.6875 47.703125 
L 2.6875 54.6875 
L 9.28125 54.6875 
L 9.28125 70.21875 
z
" id="DejaVuSans-116"/>
      <path d="M 9.421875 54.6875 
L 18.40625 54.6875 
L 18.40625 0 
L 9.421875 0 
z
M 9.421875 75.984375 
L 18.40625 75.984375 
L 18.40625 64.59375 
L 9.421875 64.59375 
z
" id="DejaVuSans-105"/>
      <path d="M 52 44.1875 
Q 55.375 50.25 60.0625 53.125 
Q 64.75 56 71.09375 56 
Q 79.640625 56 84.28125 50.015625 
Q 88.921875 44.046875 88.921875 33.015625 
L 88.921875 0 
L 79.890625 0 
L 79.890625 32.71875 
Q 79.890625 40.578125 77.09375 44.375 
Q 74.3125 48.1875 68.609375 48.1875 
Q 61.625 48.1875 57.5625 43.546875 
Q 53.515625 38.921875 53.515625 30.90625 
L 53.515625 0 
L 44.484375 0 
L 44.484375 32.71875 
Q 44.484375 40.625 41.703125 44.40625 
Q 38.921875 48.1875 33.109375 48.1875 
Q 26.21875 48.1875 22.15625 43.53125 
Q 18.109375 38.875 18.109375 30.90625 
L 18.109375 0 
L 9.078125 0 
L 9.078125 54.6875 
L 18.109375 54.6875 
L 18.109375 46.1875 
Q 21.1875 51.21875 25.484375 53.609375 
Q 29.78125 56 35.6875 56 
Q 41.65625 56 45.828125 52.96875 
Q 50 49.953125 52 44.1875 
z
" id="DejaVuSans-109"/>
      <path d="M 56.203125 29.59375 
L 56.203125 25.203125 
L 14.890625 25.203125 
Q 15.484375 15.921875 20.484375 11.0625 
Q 25.484375 6.203125 34.421875 6.203125 
Q 39.59375 6.203125 44.453125 7.46875 
Q 49.3125 8.734375 54.109375 11.28125 
L 54.109375 2.78125 
Q 49.265625 0.734375 44.1875 -0.34375 
Q 39.109375 -1.421875 33.890625 -1.421875 
Q 20.796875 -1.421875 13.15625 6.1875 
Q 5.515625 13.8125 5.515625 26.8125 
Q 5.515625 40.234375 12.765625 48.109375 
Q 20.015625 56 32.328125 56 
Q 43.359375 56 49.78125 48.890625 
Q 56.203125 41.796875 56.203125 29.59375 
z
M 47.21875 32.234375 
Q 47.125 39.59375 43.09375 43.984375 
Q 39.0625 48.390625 32.421875 48.390625 
Q 24.90625 48.390625 20.390625 44.140625 
Q 15.875 39.890625 15.1875 32.171875 
z
" id="DejaVuSans-101"/>
      <path id="DejaVuSans-32"/>
      <path d="M 8.59375 75.984375 
L 29.296875 75.984375 
L 29.296875 69 
L 17.578125 69 
L 17.578125 -6.203125 
L 29.296875 -6.203125 
L 29.296875 -13.1875 
L 8.59375 -13.1875 
z
" id="DejaVuSans-91"/>
      <path d="M 44.28125 53.078125 
L 44.28125 44.578125 
Q 40.484375 46.53125 36.375 47.5 
Q 32.28125 48.484375 27.875 48.484375 
Q 21.1875 48.484375 17.84375 46.4375 
Q 14.5 44.390625 14.5 40.28125 
Q 14.5 37.15625 16.890625 35.375 
Q 19.28125 33.59375 26.515625 31.984375 
L 29.59375 31.296875 
Q 39.15625 29.25 43.1875 25.515625 
Q 47.21875 21.78125 47.21875 15.09375 
Q 47.21875 7.46875 41.1875 3.015625 
Q 35.15625 -1.421875 24.609375 -1.421875 
Q 20.21875 -1.421875 15.453125 -0.5625 
Q 10.6875 0.296875 5.421875 2 
L 5.421875 11.28125 
Q 10.40625 8.6875 15.234375 7.390625 
Q 20.0625 6.109375 24.8125 6.109375 
Q 31.15625 6.109375 34.5625 8.28125 
Q 37.984375 10.453125 37.984375 14.40625 
Q 37.984375 18.0625 35.515625 20.015625 
Q 33.0625 21.96875 24.703125 23.78125 
L 21.578125 24.515625 
Q 13.234375 26.265625 9.515625 29.90625 
Q 5.8125 33.546875 5.8125 39.890625 
Q 5.8125 47.609375 11.28125 51.796875 
Q 16.75 56 26.8125 56 
Q 31.78125 56 36.171875 55.265625 
Q 40.578125 54.546875 44.28125 53.078125 
z
" id="DejaVuSans-115"/>
      <path d="M 30.421875 75.984375 
L 30.421875 -13.1875 
L 9.71875 -13.1875 
L 9.71875 -6.203125 
L 21.390625 -6.203125 
L 21.390625 69 
L 9.71875 69 
L 9.71875 75.984375 
z
" id="DejaVuSans-93"/>
     </defs>
     <g transform="translate(234.038281 412.756563)scale(0.1 -0.1)">
      <use xlink:href="#DejaVuSans-116"/>
      <use x="39.208984" xlink:href="#DejaVuSans-105"/>
      <use x="66.992188" xlink:href="#DejaVuSans-109"/>
      <use x="164.404297" xlink:href="#DejaVuSans-101"/>
      <use x="225.927734" xlink:href="#DejaVuSans-32"/>
      <use x="257.714844" xlink:href="#DejaVuSans-91"/>
      <use x="296.728516" xlink:href="#DejaVuSans-109"/>
      <use x="394.140625" xlink:href="#DejaVuSans-115"/>
      <use x="446.240234" xlink:href="#DejaVuSans-93"/>
     </g>
    </g>
   </g>
   <g id="matplotlib.axis_2">
    <g id="ytick_1">
     <g id="line2d_6">
      <defs>
       <path d="M 0 0 
L -3.5 0 
" id="m7843a0abbe" style="stroke:#000000;stroke-width:0.8;"/>
      </defs>
      <g>
       <use style="stroke:#000000;stroke-width:0.8;" x="63" xlink:href="#m7843a0abbe" y="347.701929"/>
      </g>
     </g>
     <g id="text_7">
      <!-- −100 -->
      <defs>
       <path d="M 10.59375 35.5 
L 73.1875 35.5 
L 73.1875 27.203125 
L 10.59375 27.203125 
z
" id="DejaVuSans-8722"/>
      </defs>
      <g transform="translate(28.532812 351.501148)scale(0.1 -0.1)">
       <use xlink:href="#DejaVuSans-8722"/>
       <use x="83.789062" xlink:href="#DejaVuSans-49"/>
       <use x="147.412109" xlink:href="#DejaVuSans-48"/>
       <use x="211.035156" xlink:href="#DejaVuSans-48"/>
      </g>
     </g>
    </g>
    <g id="ytick_2">
     <g id="line2d_7">
      <g>
       <use style="stroke:#000000;stroke-width:0.8;" x="63" xlink:href="#m7843a0abbe" y="302.543315"/>
      </g>
     </g>
     <g id="text_8">
      <!-- −75 -->
      <g transform="translate(34.895313 306.342534)scale(0.1 -0.1)">
       <use xlink:href="#DejaVuSans-8722"/>
       <use x="83.789062" xlink:href="#DejaVuSans-55"/>
       <use x="147.412109" xlink:href="#DejaVuSans-53"/>
      </g>
     </g>
    </g>
    <g id="ytick_3">
     <g id="line2d_8">
      <g>
       <use style="stroke:#000000;stroke-width:0.8;" x="63" xlink:href="#m7843a0abbe" y="257.384701"/>
      </g>
     </g>
     <g id="text_9">
      <!-- −50 -->
      <g transform="translate(34.895313 261.18392)scale(0.1 -0.1)">
       <use xlink:href="#DejaVuSans-8722"/>
       <use x="83.789062" xlink:href="#DejaVuSans-53"/>
       <use x="147.412109" xlink:href="#DejaVuSans-48"/>
      </g>
     </g>
    </g>
    <g id="ytick_4">
     <g id="line2d_9">
      <g>
       <use style="stroke:#000000;stroke-width:0.8;" x="63" xlink:href="#m7843a0abbe" y="212.226088"/>
      </g>
     </g>
     <g id="text_10">
      <!-- −25 -->
      <g transform="translate(34.895313 216.025306)scale(0.1 -0.1)">
       <use xlink:href="#DejaVuSans-8722"/>
       <use x="83.789062" xlink:href="#DejaVuSans-50"/>
       <use x="147.412109" xlink:href="#DejaVuSans-53"/>
      </g>
     </g>
    </g>
    <g id="ytick_5">
     <g id="line2d_10">
      <g>
       <use style="stroke:#000000;stroke-width:0.8;" x="63" xlink:href="#m7843a0abbe" y="167.067474"/>
      </g>
     </g>
     <g id="text_11">
      <!-- 0 -->
      <g transform="translate(49.6375 170.866693)scale(0.1 -0.1)">
       <use xlink:href="#DejaVuSans-48"/>
      </g>
     </g>
    </g>
    <g id="ytick_6">
     <g id="line2d_11">
      <g>
       <use style="stroke:#000000;stroke-width:0.8;" x="63" xlink:href="#m7843a0abbe" y="121.90886"/>
      </g>
     </g>
     <g id="text_12">
      <!-- 25 -->
      <g transform="translate(43.275 125.708079)scale(0.1 -0.1)">
       <use xlink:href="#DejaVuSans-50"/>
       <use x="63.623047" xlink:href="#DejaVuSans-53"/>
      </g>
     </g>
    </g>
    <g id="ytick_7">
     <g id="line2d_12">
      <g>
       <use style="stroke:#000000;stroke-width:0.8;" x="63" xlink:href="#m7843a0abbe" y="76.750246"/>
      </g>
     </g>
     <g id="text_13">
      <!-- 50 -->
      <g transform="translate(43.275 80.549465)scale(0.1 -0.1)">
       <use xlink:href="#DejaVuSans-53"/>
       <use x="63.623047" xlink:href="#DejaVuSans-48"/>
      </g>
     </g>
    </g>
    <g id="text_14">
     <!-- voltage [mV] -->
     <defs>
      <path d="M 2.984375 54.6875 
L 12.5 54.6875 
L 29.59375 8.796875 
L 46.6875 54.6875 
L 56.203125 54.6875 
L 35.6875 0 
L 23.484375 0 
z
" id="DejaVuSans-118"/>
      <path d="M 30.609375 48.390625 
Q 23.390625 48.390625 19.1875 42.75 
Q 14.984375 37.109375 14.984375 27.296875 
Q 14.984375 17.484375 19.15625 11.84375 
Q 23.34375 6.203125 30.609375 6.203125 
Q 37.796875 6.203125 41.984375 11.859375 
Q 46.1875 17.53125 46.1875 27.296875 
Q 46.1875 37.015625 41.984375 42.703125 
Q 37.796875 48.390625 30.609375 48.390625 
z
M 30.609375 56 
Q 42.328125 56 49.015625 48.375 
Q 55.71875 40.765625 55.71875 27.296875 
Q 55.71875 13.875 49.015625 6.21875 
Q 42.328125 -1.421875 30.609375 -1.421875 
Q 18.84375 -1.421875 12.171875 6.21875 
Q 5.515625 13.875 5.515625 27.296875 
Q 5.515625 40.765625 12.171875 48.375 
Q 18.84375 56 30.609375 56 
z
" id="DejaVuSans-111"/>
      <path d="M 9.421875 75.984375 
L 18.40625 75.984375 
L 18.40625 0 
L 9.421875 0 
z
" id="DejaVuSans-108"/>
      <path d="M 34.28125 27.484375 
Q 23.390625 27.484375 19.1875 25 
Q 14.984375 22.515625 14.984375 16.5 
Q 14.984375 11.71875 18.140625 8.90625 
Q 21.296875 6.109375 26.703125 6.109375 
Q 34.1875 6.109375 38.703125 11.40625 
Q 43.21875 16.703125 43.21875 25.484375 
L 43.21875 27.484375 
z
M 52.203125 31.203125 
L 52.203125 0 
L 43.21875 0 
L 43.21875 8.296875 
Q 40.140625 3.328125 35.546875 0.953125 
Q 30.953125 -1.421875 24.3125 -1.421875 
Q 15.921875 -1.421875 10.953125 3.296875 
Q 6 8.015625 6 15.921875 
Q 6 25.140625 12.171875 29.828125 
Q 18.359375 34.515625 30.609375 34.515625 
L 43.21875 34.515625 
L 43.21875 35.40625 
Q 43.21875 41.609375 39.140625 45 
Q 35.0625 48.390625 27.6875 48.390625 
Q 23 48.390625 18.546875 47.265625 
Q 14.109375 46.140625 10.015625 43.890625 
L 10.015625 52.203125 
Q 14.9375 54.109375 19.578125 55.046875 
Q 24.21875 56 28.609375 56 
Q 40.484375 56 46.34375 49.84375 
Q 52.203125 43.703125 52.203125 31.203125 
z
" id="DejaVuSans-97"/>
      <path d="M 45.40625 27.984375 
Q 45.40625 37.75 41.375 43.109375 
Q 37.359375 48.484375 30.078125 48.484375 
Q 22.859375 48.484375 18.828125 43.109375 
Q 14.796875 37.75 14.796875 27.984375 
Q 14.796875 18.265625 18.828125 12.890625 
Q 22.859375 7.515625 30.078125 7.515625 
Q 37.359375 7.515625 41.375 12.890625 
Q 45.40625 18.265625 45.40625 27.984375 
z
M 54.390625 6.78125 
Q 54.390625 -7.171875 48.1875 -13.984375 
Q 42 -20.796875 29.203125 -20.796875 
Q 24.46875 -20.796875 20.265625 -20.09375 
Q 16.0625 -19.390625 12.109375 -17.921875 
L 12.109375 -9.1875 
Q 16.0625 -11.328125 19.921875 -12.34375 
Q 23.78125 -13.375 27.78125 -13.375 
Q 36.625 -13.375 41.015625 -8.765625 
Q 45.40625 -4.15625 45.40625 5.171875 
L 45.40625 9.625 
Q 42.625 4.78125 38.28125 2.390625 
Q 33.9375 0 27.875 0 
Q 17.828125 0 11.671875 7.65625 
Q 5.515625 15.328125 5.515625 27.984375 
Q 5.515625 40.671875 11.671875 48.328125 
Q 17.828125 56 27.875 56 
Q 33.9375 56 38.28125 53.609375 
Q 42.625 51.21875 45.40625 46.390625 
L 45.40625 54.6875 
L 54.390625 54.6875 
z
" id="DejaVuSans-103"/>
      <path d="M 28.609375 0 
L 0.78125 72.90625 
L 11.078125 72.90625 
L 34.1875 11.53125 
L 57.328125 72.90625 
L 67.578125 72.90625 
L 39.796875 0 
z
" id="DejaVuSans-86"/>
     </defs>
     <g transform="translate(22.453125 250.624062)rotate(-90)scale(0.1 -0.1)">
      <use xlink:href="#DejaVuSans-118"/>
      <use x="59.179688" xlink:href="#DejaVuSans-111"/>
      <use x="120.361328" xlink:href="#DejaVuSans-108"/>
      <use x="148.144531" xlink:href="#DejaVuSans-116"/>
      <use x="187.353516" xlink:href="#DejaVuSans-97"/>
      <use x="248.632812" xlink:href="#DejaVuSans-103"/>
      <use x="312.109375" xlink:href="#DejaVuSans-101"/>
      <use x="373.632812" xlink:href="#DejaVuSans-32"/>
      <use x="405.419922" xlink:href="#DejaVuSans-91"/>
      <use x="444.433594" xlink:href="#DejaVuSans-109"/>
      <use x="541.845703" xlink:href="#DejaVuSans-86"/>
      <use x="610.253906" xlink:href="#DejaVuSans-93"/>
     </g>
    </g>
   </g>
   <g id="line2d_13">
    <path clip-path="url(#p3d04ff38d7)" d="M 80.754545 272.731574 
L 83.385088 272.643374 
L 83.417364 272.555173 
L 83.465779 272.731574 
L 83.481917 272.643374 
L 83.966066 272.555173 
L 84.062896 272.466973 
L 84.175864 272.555173 
L 84.547045 272.643374 
L 84.660013 272.731574 
L 84.96664 272.643374 
L 85.079609 272.555173 
L 85.337821 272.643374 
L 85.35396 272.731574 
L 85.402374 272.555173 
L 85.418513 272.555173 
L 86.322257 272.643374 
L 86.435225 272.731574 
L 87.419661 272.819774 
L 87.532629 272.907975 
L 87.581044 272.819774 
L 87.629459 272.907975 
L 88.694587 272.996175 
L 88.807555 273.084376 
L 88.85597 272.996175 
L 89.049629 262.941328 
L 89.501501 253.503883 
L 90.356831 241.244025 
L 91.196022 233.217787 
L 91.454235 231.277378 
L 91.777001 228.895967 
L 92.503224 225.45615 
L 92.535501 225.36795 
L 92.713022 224.926948 
L 92.745299 224.838747 
L 92.971235 224.133144 
L 93.01965 224.044944 
L 93.213309 223.515741 
L 93.358554 223.427541 
L 93.536075 222.986539 
L 93.600628 222.898338 
L 93.762011 222.545536 
L 93.858841 222.457336 
L 94.004086 222.192735 
L 94.213884 222.104534 
L 94.359128 221.839933 
L 95.133766 221.751733 
L 95.182181 221.663532 
L 95.230596 221.751733 
L 95.843851 221.663532 
L 95.989096 221.310731 
L 96.053649 221.398931 
L 96.085926 221.310731 
L 96.392553 221.22253 
L 96.505522 221.13433 
L 96.796011 221.22253 
L 97.005809 221.839933 
L 97.070362 221.928134 
L 97.215607 222.192735 
L 97.393128 222.104534 
L 97.425404 222.016334 
L 97.489958 222.104534 
L 97.845 222.016334 
L 97.974106 221.839933 
L 98.264596 221.928134 
L 98.296872 222.016334 
L 98.345287 221.928134 
L 98.458255 221.839933 
L 98.50667 221.928134 
L 98.538947 222.016334 
L 98.571223 221.839933 
L 98.6035 221.928134 
L 99.119925 221.839933 
L 99.249032 221.663532 
L 99.959117 221.575332 
L 100.055947 221.487131 
L 100.572372 223.780342 
L 100.620787 223.868543 
L 100.733755 224.044944 
L 100.862861 223.868543 
L 101.024244 223.780342 
L 101.153351 223.603941 
L 101.298595 223.515741 
L 101.44384 223.25114 
L 101.556808 223.162939 
L 101.685914 222.986539 
L 101.831159 222.898338 
L 101.847297 222.810138 
L 101.927989 222.898338 
L 102.10551 222.810138 
L 102.266893 222.457336 
L 102.363723 222.369136 
L 102.492829 222.192735 
L 102.993116 222.104534 
L 103.057669 221.839933 
L 103.106084 221.928134 
L 103.251329 222.192735 
L 103.380435 222.016334 
L 103.687063 221.928134 
L 103.783893 221.839933 
L 103.880722 221.928134 
L 103.993691 221.839933 
L 104.09052 221.751733 
L 104.18735 221.663532 
L 104.300318 221.751733 
L 104.38101 221.663532 
L 104.526254 221.310731 
L 104.574669 221.398931 
L 104.623084 221.310731 
L 104.897435 221.22253 
L 105.010403 221.13433 
L 105.236339 221.22253 
L 105.317031 221.310731 
L 105.333169 221.22253 
L 106.107807 221.13433 
L 106.123945 221.046129 
L 106.17236 221.22253 
L 106.204637 221.13433 
L 106.882445 221.22253 
L 106.995413 221.310731 
L 107.705498 221.22253 
L 107.737775 221.13433 
L 107.78619 221.310731 
L 108.383307 221.22253 
L 108.512413 221.046129 
L 108.576966 220.957929 
L 108.689934 220.869729 
L 109.254775 220.781528 
L 109.335466 220.693328 
L 109.351605 220.781528 
L 109.690509 220.693328 
L 109.819615 220.516927 
L 109.916445 220.605127 
L 110.013275 220.516927 
L 110.126243 220.605127 
L 110.5297 220.693328 
L 110.610392 220.781528 
L 110.62653 220.693328 
L 111.368891 220.781528 
L 111.497998 220.957929 
L 111.836902 221.046129 
L 111.85304 221.13433 
L 111.933732 221.046129 
L 112.256498 221.13433 
L 112.321051 221.046129 
L 112.369466 221.22253 
L 112.821338 221.310731 
L 112.837476 221.398931 
L 112.869753 221.22253 
L 112.902029 221.22253 
L 113.144104 221.310731 
L 113.289349 221.575332 
L 113.37004 221.663532 
L 113.499146 221.839933 
L 113.595976 221.928134 
L 113.644391 222.016334 
L 113.692806 221.928134 
L 113.789636 221.839933 
L 113.870327 221.751733 
L 113.886465 221.839933 
L 114.160817 221.928134 
L 114.257646 222.016334 
L 114.386753 221.751733 
L 114.419029 221.839933 
L 114.483582 221.751733 
L 114.580412 221.575332 
L 114.59655 221.663532 
L 114.806348 221.575332 
L 114.919316 221.487131 
L 115.35505 221.398931 
L 115.468018 221.310731 
L 115.758508 221.22253 
L 115.887614 221.046129 
L 116.161965 220.957929 
L 116.258795 220.781528 
L 116.274933 220.869729 
L 116.355625 220.781528 
L 116.468593 220.693328 
L 116.533146 220.605127 
L 116.662252 220.428726 
L 117.017295 220.516927 
L 117.033433 220.605127 
L 117.114125 220.516927 
L 117.259369 220.605127 
L 117.43689 221.046129 
L 117.469167 221.13433 
L 117.662827 221.663532 
L 117.711241 221.751733 
L 117.791933 221.928134 
L 117.82421 221.839933 
L 117.921039 221.928134 
L 118.034007 222.016334 
L 118.647263 221.928134 
L 118.760231 221.839933 
L 119.05072 221.751733 
L 119.131411 221.663532 
L 119.14755 221.751733 
L 119.518731 221.663532 
L 119.647837 221.487131 
L 119.80922 221.398931 
L 119.922188 221.310731 
L 120.099709 221.22253 
L 120.244954 220.957929 
L 120.438613 220.869729 
L 120.551581 220.781528 
L 120.664549 220.693328 
L 120.696826 220.605127 
L 120.745241 220.781528 
L 121.116422 220.869729 
L 121.22939 220.957929 
L 121.600571 220.869729 
L 121.729677 220.693328 
L 121.810368 220.605127 
L 121.939475 220.428726 
L 122.116996 220.340526 
L 122.213826 220.252326 
L 122.342932 220.428726 
L 122.778666 220.340526 
L 122.810943 220.252326 
L 122.875496 220.340526 
L 122.923911 220.428726 
L 122.972326 220.340526 
L 123.133709 220.428726 
L 123.262815 220.605127 
L 123.553304 220.693328 
L 123.682411 220.869729 
L 123.827655 220.605127 
L 123.924485 220.693328 
L 123.940623 220.781528 
L 124.005177 220.605127 
L 124.360219 220.516927 
L 124.473187 220.428726 
L 124.682985 220.516927 
L 124.812091 220.693328 
L 125.215549 220.781528 
L 125.328517 220.957929 
L 125.360793 221.046129 
L 125.441485 220.869729 
L 125.764251 220.781528 
L 125.780389 220.693328 
L 125.861081 220.781528 
L 126.038602 220.693328 
L 126.15157 220.605127 
L 126.329091 220.516927 
L 126.425921 220.428726 
L 126.538889 220.516927 
L 127.136006 220.428726 
L 127.152144 220.340526 
L 127.232836 220.428726 
L 127.248974 220.516927 
L 127.297389 220.340526 
L 127.313527 220.340526 
L 127.394219 220.428726 
L 127.442633 220.605127 
L 127.507187 220.516927 
L 127.523325 220.428726 
L 127.604016 220.516927 
L 127.975197 220.428726 
L 128.104304 220.252326 
L 128.217272 220.164125 
L 128.33024 220.075925 
L 128.410931 219.987724 
L 128.523899 219.899524 
L 129.08874 219.811324 
L 129.137154 219.723123 
L 129.185569 219.811324 
L 129.605165 219.899524 
L 129.718133 219.987724 
L 129.831101 219.899524 
L 130.008622 219.458522 
L 130.137729 219.370321 
L 130.266835 219.193921 
L 130.525048 219.10572 
L 130.541186 219.01752 
L 130.589601 219.193921 
L 130.621878 219.10572 
L 130.670292 219.193921 
L 130.718707 219.10572 
L 131.07375 219.01752 
L 131.138303 218.929319 
L 131.17058 219.01752 
L 131.202856 218.929319 
L 131.315824 218.841119 
L 132.477782 218.929319 
L 132.59075 219.01752 
L 132.768271 218.929319 
L 132.816686 218.841119 
L 132.865101 218.929319 
L 133.268558 219.01752 
L 133.381526 219.10572 
L 133.413803 219.10572 
L 133.559047 219.546722 
L 133.591324 219.458522 
L 133.607462 219.634923 
L 133.623601 219.634923 
L 133.736569 219.723123 
L 133.784983 219.811324 
L 133.930228 220.075925 
L 133.978643 220.164125 
L 134.156164 220.605127 
L 134.269132 220.516927 
L 134.430515 220.605127 
L 134.559622 220.781528 
L 134.624175 220.693328 
L 134.656451 220.781528 
L 134.817834 220.693328 
L 134.930802 220.605127 
L 135.301983 220.516927 
L 135.414951 220.252326 
L 135.43109 220.340526 
L 135.818409 220.252326 
L 135.834547 220.164125 
L 135.866824 220.340526 
L 135.915238 220.252326 
L 136.044345 220.164125 
L 136.060483 220.075925 
L 136.141175 220.164125 
L 136.883536 220.075925 
L 137.028781 219.811324 
L 137.157887 219.723123 
L 137.206302 219.546722 
L 137.254717 219.723123 
L 137.367685 219.634923 
L 137.432238 219.458522 
L 137.464515 219.634923 
L 137.690451 219.546722 
L 137.819557 219.370321 
L 137.916387 219.458522 
L 138.013217 219.546722 
L 138.158461 219.282121 
L 138.707163 219.193921 
L 138.820132 219.10572 
L 139.126759 219.193921 
L 139.239727 219.282121 
L 139.772291 219.193921 
L 139.901397 219.01752 
L 139.998227 219.10572 
L 140.095057 219.01752 
L 140.111195 219.10572 
L 140.191887 219.01752 
L 140.756727 218.929319 
L 140.885833 218.752918 
L 140.966525 218.664718 
L 141.095631 218.488317 
L 141.321567 219.193921 
L 141.402259 219.282121 
L 141.531365 219.458522 
L 141.902546 219.370321 
L 142.015514 219.282121 
L 142.14462 219.193921 
L 142.257588 219.10572 
L 142.80629 219.01752 
L 142.935397 218.841119 
L 144.339429 218.929319 
L 144.468535 219.282121 
L 144.484673 219.193921 
L 144.581503 219.10572 
L 144.726748 219.370321 
L 145.049513 219.458522 
L 145.08179 219.546722 
L 145.146343 219.458522 
L 145.340003 219.370321 
L 145.469109 219.193921 
L 145.64663 219.10572 
L 145.759598 219.01752 
L 146.308301 218.929319 
L 146.388992 218.752918 
L 146.421269 218.841119 
L 147.244322 218.929319 
L 147.26046 219.01752 
L 147.341151 218.929319 
L 147.550949 218.841119 
L 147.663917 218.752918 
L 148.180343 218.841119 
L 148.309449 219.01752 
L 148.374002 218.929319 
L 148.48697 218.841119 
L 148.874289 218.752918 
L 148.890428 218.664718 
L 148.971119 218.752918 
L 149.100226 218.841119 
L 149.116364 218.929319 
L 149.164779 218.752918 
L 149.197055 218.841119 
L 149.293885 218.752918 
L 149.406853 218.664718 
L 149.697343 218.752918 
L 149.810311 218.841119 
L 149.971694 218.841119 
L 150.00397 218.664718 
L 150.084662 218.752918 
L 150.407427 218.841119 
L 150.601087 219.370321 
L 150.746332 219.10572 
L 151.085236 219.193921 
L 151.149789 219.282121 
L 151.182066 219.193921 
L 151.359587 219.10572 
L 151.375725 219.01752 
L 151.456417 219.10572 
L 151.811459 219.01752 
L 151.843736 218.929319 
L 151.908289 219.01752 
L 152.424714 218.929319 
L 152.553821 218.752918 
L 152.650651 218.664718 
L 152.715204 218.576518 
L 152.74748 218.664718 
L 152.763619 218.752918 
L 152.812033 218.576518 
L 152.828172 218.576518 
L 153.40915 218.576518 
L 153.60281 228.631365 
L 154.054682 237.98061 
L 154.425863 243.713637 
L 154.861597 249.182063 
L 154.974565 250.328668 
L 155.68465 256.943699 
L 155.894448 258.619507 
L 156.265629 261.530121 
L 156.281767 261.530121 
L 156.556118 263.38233 
L 158.62182 274.142781 
L 158.670235 274.230981 
L 158.993001 275.465787 
L 159.057554 275.553987 
L 159.299628 276.347791 
L 159.331905 276.435992 
L 159.557841 277.141595 
L 159.622394 277.229795 
L 159.832192 277.847198 
L 159.896745 277.935399 
L 160.090405 278.464601 
L 160.122681 278.552802 
L 160.300202 278.993804 
L 160.348617 279.082004 
L 160.493862 279.346605 
L 160.526139 279.434806 
L 160.70366 279.875808 
L 160.768213 279.964008 
L 160.929596 280.31681 
L 161.042564 280.40501 
L 161.187809 280.669612 
L 161.413745 280.757812 
L 161.558989 281.022413 
L 161.639681 281.110614 
L 161.768787 281.287014 
L 161.897894 281.375215 
L 162.027 281.551616 
L 162.091553 281.639816 
L 162.22066 281.816217 
L 162.285213 281.904417 
L 162.317489 281.992618 
L 162.382043 281.904417 
L 162.462734 281.992618 
L 162.59184 282.169019 
L 162.995298 282.257219 
L 163.108266 282.34542 
L 163.318064 282.43362 
L 163.431032 282.610021 
L 163.463308 282.52182 
L 163.527861 282.610021 
L 163.64083 282.698221 
L 163.931319 282.786422 
L 164.044287 282.874622 
L 164.544574 282.786422 
L 164.625266 282.698221 
L 164.641404 282.786422 
L 165.997021 282.698221 
L 166.126127 282.52182 
L 166.206818 282.610021 
L 166.222957 282.52182 
L 166.432755 282.43362 
L 166.561861 282.257219 
L 166.900765 282.169019 
L 167.013733 282.080818 
L 167.304223 281.992618 
L 167.449467 281.728017 
L 167.659265 281.639816 
L 167.772233 281.551616 
L 168.014308 281.463415 
L 168.159552 281.198814 
L 168.450042 281.110614 
L 168.56301 281.022413 
L 168.579148 281.110614 
L 168.627563 280.934213 
L 168.643701 281.022413 
L 168.756669 280.934213 
L 168.837361 280.846012 
L 168.853499 280.757812 
L 168.885775 280.934213 
L 168.93419 280.846012 
L 169.12785 280.757812 
L 169.256956 280.581411 
L 169.418339 280.493211 
L 169.499031 280.40501 
L 169.611999 273.525378 
L 169.708829 273.613578 
L 169.724967 273.701779 
L 169.805658 273.613578 
L 170.951477 273.701779 
L 170.967616 273.789979 
L 171.048307 273.701779 
L 171.790669 273.789979 
L 171.822945 273.878179 
L 171.887498 273.789979 
L 171.952052 273.701779 
L 172.048881 273.613578 
L 172.161849 273.701779 
L 172.387786 273.613578 
L 172.500754 273.525378 
L 173.162424 273.437177 
L 173.29153 273.260776 
L 174.518041 273.348977 
L 174.582594 273.437177 
L 174.61487 273.348977 
L 175.018328 273.437177 
L 175.147434 273.613578 
L 175.260402 273.525378 
L 175.389508 273.613578 
L 175.405647 273.701779 
L 175.486338 273.613578 
L 175.615445 273.701779 
L 175.712274 273.789979 
L 175.825242 273.701779 
L 175.93821 273.789979 
L 176.164147 273.878179 
L 176.277115 273.96638 
L 176.390083 273.878179 
L 176.664434 273.789979 
L 176.777402 273.701779 
L 176.938785 273.613578 
L 176.971061 273.525378 
L 177.019476 273.701779 
L 177.035615 273.613578 
L 177.616593 273.613578 
L 177.810253 260.471716 
L 178.391231 245.036643 
L 179.149731 230.836376 
L 179.82754 221.487131 
L 180.39238 216.459708 
L 180.860391 214.431098 
L 180.876529 214.431098 
L 181.021773 213.990096 
L 181.183156 213.637294 
L 181.312263 213.549094 
L 181.473646 213.196292 
L 181.505922 213.108092 
L 181.699582 212.578889 
L 181.764135 212.490689 
L 181.893241 212.314288 
L 182.328975 212.226088 
L 182.47422 211.961486 
L 182.506497 211.873286 
L 182.635603 211.696885 
L 182.716294 211.608685 
L 182.877677 211.255883 
L 182.926092 211.344083 
L 182.974507 211.432284 
L 183.022922 211.344083 
L 183.103614 211.255883 
L 183.23272 211.079482 
L 183.281135 210.991282 
L 183.442518 210.63848 
L 183.474794 210.55028 
L 183.668454 210.021077 
L 183.70073 209.932877 
L 183.845975 209.668275 
L 183.89439 209.580075 
L 184.168741 208.60987 
L 184.313986 208.52167 
L 184.523784 207.904267 
L 184.814273 207.816067 
L 184.927241 207.286864 
L 184.975656 207.463265 
L 185.072486 207.375065 
L 185.250007 206.757662 
L 185.266145 206.845862 
L 185.346837 206.757662 
L 185.492081 206.49306 
L 185.524358 206.40486 
L 186.411964 201.112835 
L 186.428102 200.583632 
L 186.444241 195.115207 
L 186.492656 75.250839 
L 186.573347 137.961336 
L 186.73473 209.227273 
L 186.944528 211.520484 
L 188.05807 222.633737 
L 188.074208 222.633737 
L 188.25173 223.427541 
L 188.461528 224.044944 
L 188.526081 224.133144 
L 188.71974 224.662346 
L 188.768155 224.750547 
L 188.929538 225.103349 
L 189.026368 225.015148 
L 189.155474 225.191549 
L 189.720315 225.103349 
L 189.849421 224.926948 
L 190.091495 224.838747 
L 190.220602 224.662346 
L 190.285155 224.574146 
L 190.414261 224.397745 
L 190.4304 224.485946 
L 190.494953 224.309545 
L 190.591783 224.221344 
L 190.704751 224.133144 
L 190.89841 224.044944 
L 191.011378 223.956743 
L 191.140485 223.868543 
L 191.285729 223.603941 
L 191.46325 223.515741 
L 191.624633 223.162939 
L 192.205612 223.074739 
L 192.334718 222.898338 
L 192.41541 222.810138 
L 192.544516 222.457336 
L 192.560655 222.545536 
L 192.609069 222.457336 
L 192.625208 222.369136 
L 192.705899 222.457336 
L 192.835006 222.369136 
L 192.899559 222.280935 
L 192.931835 222.369136 
L 193.238463 222.280935 
L 193.367569 222.104534 
L 193.512814 222.016334 
L 193.64192 221.839933 
L 193.916271 221.751733 
L 194.061516 221.487131 
L 194.448835 221.398931 
L 194.577941 221.22253 
L 194.723186 221.13433 
L 194.884569 220.781528 
L 194.981399 220.693328 
L 195.110505 220.516927 
L 195.271888 220.428726 
L 195.35258 220.252326 
L 195.384856 220.340526 
L 195.465548 220.252326 
L 195.594654 220.075925 
L 195.885143 219.987724 
L 195.998111 219.899524 
L 196.094941 219.811324 
L 196.256324 219.458522 
L 196.353154 219.546722 
L 196.449984 219.458522 
L 196.546813 219.546722 
L 196.67592 219.370321 
L 197.14393 219.282121 
L 197.160069 219.193921 
L 197.224622 219.370321 
L 197.402143 219.458522 
L 197.579664 219.987724 
L 197.628079 219.899524 
L 197.660356 220.075925 
L 197.724909 220.164125 
L 197.821739 220.340526 
L 197.837877 220.252326 
L 197.950845 220.340526 
L 198.09609 220.605127 
L 198.467271 220.516927 
L 198.483409 220.428726 
L 198.5641 220.516927 
L 198.644792 220.428726 
L 198.790036 220.164125 
L 198.935281 220.075925 
L 199.080526 219.811324 
L 199.193494 219.723123 
L 199.354877 219.370321 
L 199.41943 219.282121 
L 199.548536 219.10572 
L 199.661504 219.193921 
L 199.790611 219.10572 
L 199.919717 218.929319 
L 199.98427 218.841119 
L 200.048824 218.664718 
L 200.097238 218.752918 
L 200.516834 218.664718 
L 200.662079 218.311916 
L 200.710494 218.400117 
L 200.758908 218.311916 
L 200.871877 218.223716 
L 201.000983 218.047315 
L 201.065536 217.959115 
L 201.210781 217.694513 
L 201.372164 217.606313 
L 201.485132 217.518113 
L 201.646515 217.429912 
L 201.775621 217.253511 
L 202.130664 217.165311 
L 202.195217 217.077111 
L 202.227493 217.165311 
L 202.3566 217.077111 
L 202.485706 216.90071 
L 202.550259 216.812509 
L 202.711642 216.459708 
L 202.969855 216.371507 
L 203.098961 216.195106 
L 203.728355 216.283307 
L 203.792908 216.459708 
L 203.841323 216.371507 
L 204.083397 216.459708 
L 204.14795 216.547908 
L 204.180227 216.459708 
L 204.632099 216.371507 
L 204.728929 216.195106 
L 204.745067 216.283307 
L 204.809621 216.195106 
L 204.938727 216.018706 
L 205.019418 216.106906 
L 205.116248 216.195106 
L 205.164663 216.106906 
L 205.19694 216.283307 
L 205.213078 216.195106 
L 205.261493 216.283307 
L 205.358323 216.459708 
L 205.374461 216.371507 
L 206.052269 216.459708 
L 206.197514 216.724309 
L 206.455727 216.812509 
L 206.584833 216.98891 
L 206.665525 217.077111 
L 206.810769 217.341712 
L 207.343333 217.253511 
L 207.359471 217.165311 
L 207.440163 217.253511 
L 207.666099 217.341712 
L 207.682237 217.429912 
L 207.762929 217.341712 
L 208.021141 217.253511 
L 208.150248 217.077111 
L 208.198663 216.98891 
L 208.360046 216.636108 
L 208.473014 216.547908 
L 208.585982 216.459708 
L 208.924886 216.371507 
L 209.053992 216.195106 
L 209.215375 216.106906 
L 209.344482 215.930505 
L 209.538141 215.842305 
L 209.683386 215.577703 
L 209.715662 215.489503 
L 209.844769 215.313102 
L 210.054567 215.224902 
L 210.11912 215.136701 
L 210.151396 215.224902 
L 210.264364 215.313102 
L 210.393471 215.489503 
L 211.055141 215.401303 
L 211.200385 215.136701 
L 211.329492 215.048501 
L 211.458598 214.8721 
L 211.652258 214.7839 
L 211.749088 214.695699 
L 211.781364 214.7839 
L 211.829779 214.607499 
L 211.845917 214.695699 
L 211.991162 214.431098 
L 212.168683 214.519298 
L 212.313928 214.7839 
L 212.410758 214.695699 
L 212.475311 214.519298 
L 212.507587 214.607499 
L 212.556002 214.695699 
L 212.588279 214.607499 
L 212.636694 214.519298 
L 212.685109 214.607499 
L 212.846492 214.960301 
L 213.185396 214.8721 
L 213.217672 214.7839 
L 213.266087 214.960301 
L 213.556577 214.8721 
L 213.653406 214.7839 
L 213.750236 214.8721 
L 213.927757 214.431098 
L 214.024587 214.342898 
L 214.073002 214.166497 
L 214.137555 214.254697 
L 214.2828 214.166497 
L 214.395768 214.078296 
L 214.589427 213.990096 
L 214.718534 213.813695 
L 214.84764 213.901896 
L 214.879917 213.990096 
L 214.928332 213.813695 
L 215.202683 213.725495 
L 215.315651 213.637294 
L 215.493172 213.725495 
L 215.557725 213.813695 
L 215.590002 213.725495 
L 215.751385 213.813695 
L 215.767523 213.901896 
L 215.848214 213.813695 
L 215.945044 213.725495 
L 216.122566 213.284493 
L 216.187119 213.196292 
L 216.300087 212.931691 
L 216.316225 213.019891 
L 216.46147 212.931691 
L 216.606714 212.66709 
L 216.622853 212.75529 
L 216.703544 212.66709 
L 216.92948 212.578889 
L 216.977895 212.490689 
L 217.02631 212.578889 
L 217.042448 212.66709 
L 217.12314 212.578889 
L 217.704118 212.66709 
L 217.817087 212.75529 
L 218.204406 212.75529 
L 218.34965 213.196292 
L 218.656278 213.108092 
L 218.769246 213.019891 
L 218.962905 213.108092 
L 219.027459 213.019891 
L 219.075874 213.196292 
L 219.140427 213.108092 
L 219.172703 213.196292 
L 219.511608 213.284493 
L 219.640714 213.460893 
L 219.915065 213.549094 
L 220.124863 214.166497 
L 220.205554 214.254697 
L 220.350799 214.519298 
L 220.479905 214.342898 
L 221.125437 214.254697 
L 221.141575 214.166497 
L 221.222267 214.254697 
L 221.270682 214.166497 
L 221.415926 213.901896 
L 221.722554 213.813695 
L 221.85166 213.637294 
L 221.900075 213.637294 
L 222.029182 213.284493 
L 222.077596 213.196292 
L 222.158288 212.931691 
L 222.206703 213.019891 
L 222.739267 212.931691 
L 222.868373 212.75529 
L 222.916788 212.66709 
L 223.045894 212.490689 
L 223.142724 212.402488 
L 223.287969 212.137887 
L 223.384798 212.049687 
L 223.513905 211.873286 
L 223.626873 211.785086 
L 223.836671 211.167683 
L 223.981915 211.079482 
L 224.046468 210.903081 
L 224.094883 210.991282 
L 224.256266 211.344083 
L 224.320819 211.255883 
L 224.385373 211.167683 
L 224.417649 211.255883 
L 224.498341 211.344083 
L 224.514479 211.432284 
L 224.579032 211.344083 
L 224.59517 211.255883 
L 224.643585 211.432284 
L 224.659724 211.432284 
L 224.740415 211.520484 
L 224.869522 211.696885 
L 225.127734 211.608685 
L 225.240702 211.520484 
L 225.289117 211.608685 
L 225.305255 211.696885 
L 225.35367 211.520484 
L 225.369809 211.520484 
L 225.54733 211.608685 
L 225.676436 211.785086 
L 225.740989 211.696885 
L 225.853958 211.608685 
L 226.031479 211.520484 
L 226.289691 210.63848 
L 226.660872 210.55028 
L 226.806117 210.285678 
L 227.06433 210.373879 
L 227.096606 210.462079 
L 227.145021 210.373879 
L 227.257989 210.197478 
L 227.370957 210.373879 
L 227.548479 209.932877 
L 227.661447 209.844676 
L 227.677585 209.756476 
L 227.758276 209.844676 
L 227.855106 210.021077 
L 227.871244 209.932877 
L 228.048766 209.844676 
L 228.097181 209.756476 
L 228.145595 209.844676 
L 228.419946 209.756476 
L 228.532915 209.668275 
L 228.565191 209.580075 
L 228.694297 209.403674 
L 228.823404 209.315474 
L 228.871819 209.139073 
L 228.920234 209.227273 
L 229.000925 209.315474 
L 229.017063 209.227273 
L 229.097755 209.139073 
L 229.243 208.874472 
L 229.307553 208.786271 
L 229.452797 208.52167 
L 229.630319 208.60987 
L 229.646457 208.698071 
L 229.71101 208.52167 
L 230.082191 208.43347 
L 230.098329 208.345269 
L 230.162882 208.52167 
L 230.905244 208.43347 
L 231.179595 207.463265 
L 231.22801 207.375065 
L 231.389393 207.022263 
L 231.437808 206.934063 
L 231.921957 204.817253 
L 232.002648 204.729052 
L 232.115616 203.758848 
L 232.164031 202.612242 
L 232.180169 199.348827 
L 232.244722 74.280635 
L 232.309276 132.845712 
L 232.470659 208.257069 
L 232.535212 208.962672 
L 232.599765 208.786271 
L 232.74501 208.52167 
L 233.035499 210.63848 
L 233.551924 215.224902 
L 233.584201 215.313102 
L 233.826275 216.812509 
L 234.504084 219.987724 
L 234.584775 220.075925 
L 234.762296 220.516927 
L 234.82685 220.605127 
L 234.988233 220.957929 
L 235.020509 221.046129 
L 235.181892 221.398931 
L 235.19803 221.310731 
L 235.230307 221.487131 
L 235.262584 221.487131 
L 235.359413 221.575332 
L 235.504658 221.839933 
L 235.601488 221.928134 
L 235.730594 222.104534 
L 235.908115 222.192735 
L 236.021083 222.280935 
L 236.117913 222.369136 
L 236.263158 222.633737 
L 236.279296 222.545536 
L 236.343849 222.633737 
L 236.505232 222.986539 
L 236.876413 222.898338 
L 237.005519 222.721937 
L 237.070073 222.898338 
L 237.118488 222.810138 
L 237.231456 222.721937 
L 237.392839 222.633737 
L 237.521945 222.457336 
L 237.683328 222.369136 
L 237.844711 222.016334 
L 237.957679 221.928134 
L 238.070647 221.839933 
L 238.167477 221.751733 
L 238.296583 221.575332 
L 238.474104 221.487131 
L 238.554796 221.310731 
L 238.587072 221.398931 
L 238.667764 221.310731 
L 238.780732 221.22253 
L 238.845285 221.13433 
L 238.942115 221.046129 
L 238.958253 221.13433 
L 239.022806 220.957929 
L 239.151913 220.869729 
L 239.297157 220.605127 
L 239.361711 220.516927 
L 239.490817 220.340526 
L 239.732891 220.252326 
L 239.845859 220.164125 
L 240.152487 220.075925 
L 240.265455 219.987724 
L 240.572083 219.899524 
L 240.685051 219.811324 
L 240.959402 219.723123 
L 241.088508 219.546722 
L 241.459689 219.458522 
L 241.588795 219.282121 
L 241.717902 219.193921 
L 241.847008 219.01752 
L 241.895423 218.929319 
L 242.008391 218.841119 
L 242.169774 218.929319 
L 242.363433 231.80658 
L 242.799167 242.478831 
L 243.234901 249.623065 
L 243.654497 254.826889 
L 243.767465 255.973495 
L 244.396859 261.706522 
L 244.606657 263.38233 
L 244.945561 265.940142 
L 246.430284 273.525378 
L 246.46256 273.613578 
L 246.769188 274.760184 
L 246.801465 274.848384 
L 247.108092 275.994989 
L 247.172645 276.08319 
L 247.382443 276.700593 
L 247.41472 276.788793 
L 247.624518 277.406196 
L 247.672933 277.494397 
L 247.898869 278.2 
L 247.963422 278.2882 
L 248.157081 278.817403 
L 248.221635 278.905603 
L 248.383018 279.258405 
L 248.463709 279.346605 
L 248.64123 279.787607 
L 248.721922 279.875808 
L 248.867166 280.140409 
L 248.996273 280.228609 
L 249.141517 280.493211 
L 249.189932 280.581411 
L 249.335177 280.846012 
L 249.544975 280.934213 
L 249.674081 281.110614 
L 249.722496 281.198814 
L 249.851602 281.375215 
L 249.964571 281.463415 
L 250.093677 281.639816 
L 250.384166 281.728017 
L 250.497134 281.816217 
L 250.593964 281.904417 
L 250.610102 281.992618 
L 250.690794 281.904417 
L 250.884453 281.992618 
L 250.997421 282.080818 
L 251.255634 282.169019 
L 251.271772 282.257219 
L 251.336326 282.169019 
L 251.368602 282.080818 
L 251.433155 282.169019 
L 251.836613 282.257219 
L 251.852751 282.34542 
L 251.933443 282.257219 
L 252.046411 282.169019 
L 252.546698 282.080818 
L 252.562836 281.992618 
L 252.643528 282.080818 
L 252.853325 281.992618 
L 252.982432 281.816217 
L 253.724793 281.728017 
L 253.821623 281.639816 
L 253.934591 281.728017 
L 254.176666 281.639816 
L 254.305772 281.463415 
L 254.741506 281.375215 
L 254.789921 281.198814 
L 254.838336 281.375215 
L 255.015857 281.287014 
L 255.031995 281.198814 
L 255.096548 281.375215 
L 255.112687 281.287014 
L 255.354761 281.198814 
L 255.467729 281.110614 
L 255.709804 281.022413 
L 255.822772 280.934213 
L 256.000293 280.846012 
L 256.129399 280.669612 
L 256.242367 280.757812 
L 256.419889 280.669612 
L 256.548995 280.493211 
L 256.774931 280.40501 
L 256.791069 280.31681 
L 256.871761 280.40501 
L 256.968591 280.31681 
L 257.081559 280.228609 
L 257.129974 280.140409 
L 257.25908 279.964008 
L 257.517293 279.875808 
L 257.630261 279.787607 
L 258.01758 279.699407 
L 258.146686 279.523006 
L 258.162824 279.611207 
L 258.243516 279.523006 
L 258.259654 279.523006 
L 258.372622 274.407382 
L 259.647548 274.495582 
L 259.679824 274.583783 
L 259.744377 274.495582 
L 260.244665 274.407382 
L 260.276941 274.230981 
L 260.341494 274.407382 
L 261.42276 274.495582 
L 261.471175 274.583783 
L 261.503452 274.495582 
L 261.51959 274.407382 
L 261.600281 274.495582 
L 262.616994 274.407382 
L 262.649271 274.319182 
L 262.713824 274.407382 
L 263.230249 274.495582 
L 263.246387 274.583783 
L 263.327079 274.495582 
L 264.16627 274.583783 
L 264.214685 274.671983 
L 264.2631 274.583783 
L 264.392206 274.671983 
L 264.505175 274.760184 
L 266.377217 274.760184 
L 266.570876 255.00329 
L 267.151855 231.80658 
L 268.265397 204.37625 
L 268.507472 201.465637 
L 268.846376 195.203407 
L 268.910929 73.927833 
L 268.991621 151.191399 
L 269.153004 209.050873 
L 269.18528 209.315474 
L 269.233695 208.962672 
L 269.395078 208.257069 
L 269.572599 208.698071 
L 269.604876 208.786271 
L 269.798535 209.315474 
L 269.814674 209.227273 
L 269.863089 209.491875 
L 269.94378 209.580075 
L 270.089025 209.844676 
L 270.282684 209.932877 
L 270.395652 210.109278 
L 270.524759 209.932877 
L 270.653865 209.932877 
L 270.782971 210.197478 
L 270.79911 210.285678 
L 270.879801 210.197478 
L 271.008907 210.021077 
L 271.154152 210.109278 
L 271.218705 210.285678 
L 271.26712 210.197478 
L 271.428503 209.844676 
L 271.444641 209.932877 
L 271.525333 209.844676 
L 271.638301 209.756476 
L 271.702854 209.668275 
L 271.896514 209.139073 
L 272.009482 209.050873 
L 272.283833 208.080668 
L 272.299971 208.168868 
L 272.380663 208.080668 
L 272.445216 208.080668 
L 272.59046 207.639666 
L 272.816397 206.934063 
L 272.88095 206.845862 
L 273.090748 206.228459 
L 273.123024 206.140259 
L 273.25213 205.963858 
L 273.300545 206.052058 
L 273.461928 206.40486 
L 273.526482 206.49306 
L 273.671726 206.757662 
L 273.800833 206.845862 
L 273.865386 206.934063 
L 273.881524 206.845862 
L 274.075184 206.31666 
L 274.172013 206.228459 
L 274.414088 205.434655 
L 274.446364 205.346455 
L 274.623886 204.905453 
L 274.704577 204.993653 
L 274.752992 205.081854 
L 274.785269 204.905453 
L 274.801407 204.993653 
L 274.86596 204.905453 
L 274.946651 204.729052 
L 274.96279 204.817253 
L 275.043481 204.905453 
L 275.05962 204.817253 
L 275.172588 204.729052 
L 275.350109 204.28805 
L 275.495354 204.19985 
L 275.753566 203.229645 
L 275.801981 203.317845 
L 275.834258 203.229645 
L 276.027917 202.700443 
L 276.060194 202.612242 
L 276.140885 202.700443 
L 276.1893 202.435841 
L 276.221577 202.347641 
L 276.399098 201.553837 
L 276.641172 200.671833 
L 276.657311 200.760033 
L 276.705726 200.583632 
L 277.04463 198.290422 
L 277.286704 194.762405 
L 277.351257 71.19362 
L 277.431949 138.049536 
L 277.593332 205.787457 
L 277.754715 207.110463 
L 278.206587 210.109278 
L 278.448662 211.696885 
L 278.480938 211.785086 
L 278.868257 213.460893 
L 278.900534 213.372693 
L 278.93281 213.549094 
L 278.948949 213.549094 
L 279.094193 213.813695 
L 279.158747 213.901896 
L 279.287853 214.078296 
L 279.320129 214.166497 
L 279.433098 214.254697 
L 279.69131 214.166497 
L 279.836555 213.901896 
L 280.014076 213.813695 
L 280.223874 213.196292 
L 280.54664 213.108092 
L 280.64347 213.019891 
L 280.659608 213.108092 
L 280.740299 213.019891 
L 280.804853 212.931691 
L 280.820991 212.843491 
L 280.885544 213.019891 
L 280.901682 212.931691 
L 281.079204 212.843491 
L 281.192172 212.75529 
L 281.563353 212.66709 
L 281.708597 212.402488 
L 281.789289 212.490689 
L 281.805427 212.402488 
L 282.241161 212.314288 
L 282.370267 212.137887 
L 282.483235 212.049687 
L 282.612342 211.873286 
L 282.951246 211.785086 
L 283.096491 211.520484 
L 283.403118 211.432284 
L 283.532225 211.255883 
L 283.85499 211.167683 
L 284.000235 210.903081 
L 284.04865 210.814881 
L 284.210033 210.462079 
L 284.24231 210.373879 
L 284.387554 210.109278 
L 284.484384 210.021077 
L 284.71032 209.315474 
L 284.90398 209.227273 
L 285.033086 209.050873 
L 285.065363 208.962672 
L 285.259022 208.43347 
L 285.307437 208.345269 
L 285.420405 208.257069 
L 285.46882 208.168868 
L 285.662479 207.639666 
L 285.678618 207.727866 
L 285.743171 207.551465 
L 285.823862 207.463265 
L 285.985245 207.110463 
L 286.146628 207.022263 
L 286.308011 206.669461 
L 286.437118 206.845862 
L 286.517809 206.757662 
L 286.550086 206.669461 
L 286.598501 206.757662 
L 286.711469 206.845862 
L 286.743745 206.757662 
L 286.856713 206.669461 
L 287.486107 206.581261 
L 287.582937 206.40486 
L 287.599075 206.49306 
L 287.760458 206.40486 
L 288.067085 205.258255 
L 288.341436 205.170054 
L 288.486681 204.817253 
L 288.567373 205.081854 
L 288.615788 204.993653 
L 288.809447 204.464451 
L 288.841724 204.37625 
L 288.97083 204.19985 
L 289.132213 204.552651 
L 289.245181 204.640852 
L 289.374287 204.817253 
L 289.567947 204.729052 
L 289.810021 203.935248 
L 289.987543 203.847048 
L 290.342585 202.435841 
L 290.358723 202.524042 
L 290.391 202.347641 
L 290.439415 202.435841 
L 290.552383 202.347641 
L 290.665351 202.25944 
L 290.697628 202.17124 
L 290.842872 201.906639 
L 290.907425 201.818438 
L 291.004255 201.642037 
L 291.020394 201.730238 
L 291.05267 201.642037 
L 291.197915 201.377436 
L 291.230191 201.289236 
L 292.069383 196.350012 
L 292.101659 193.6158 
L 292.166212 71.546422 
L 292.230766 125.348676 
L 292.408287 205.170054 
L 292.553532 205.875658 
L 292.634223 205.963858 
L 293.376585 209.491875 
L 293.424999 209.580075 
L 293.780042 210.991282 
L 293.844595 211.079482 
L 294.054393 211.785086 
L 294.070531 211.696885 
L 294.118946 211.873286 
L 294.135084 211.873286 
L 294.248053 211.961486 
L 294.377159 212.137887 
L 294.490127 212.049687 
L 294.667648 212.137887 
L 294.812893 212.402488 
L 294.877446 212.490689 
L 294.990414 212.578889 
L 295.11952 212.66709 
L 295.21635 212.75529 
L 295.345457 212.578889 
L 295.571393 212.490689 
L 295.732776 212.137887 
L 295.797329 212.049687 
L 295.926435 211.873286 
L 295.990988 211.785086 
L 296.120095 211.608685 
L 296.200786 211.520484 
L 296.378308 211.079482 
L 296.555829 210.991282 
L 296.571967 210.903081 
L 296.652659 210.991282 
L 296.83018 211.432284 
L 297.346605 211.344083 
L 297.507988 210.991282 
L 297.717786 210.903081 
L 297.927584 210.285678 
L 298.040552 210.197478 
L 298.15352 209.932877 
L 298.169658 210.021077 
L 298.234211 209.932877 
L 298.444009 209.315474 
L 298.524701 209.227273 
L 298.637669 209.050873 
L 298.653807 209.139073 
L 298.702222 208.962672 
L 298.71836 208.962672 
L 298.976573 208.080668 
L 299.057265 207.992468 
L 299.267062 207.375065 
L 299.315477 207.286864 
L 299.347754 207.198664 
L 299.412307 207.286864 
L 299.912594 207.198664 
L 300.041701 207.022263 
L 300.073977 206.934063 
L 300.170807 206.757662 
L 300.186945 206.845862 
L 300.219222 206.934063 
L 300.267637 206.757662 
L 300.541988 206.669461 
L 300.671094 206.49306 
L 300.735647 206.581261 
L 300.767924 206.49306 
L 300.961583 206.40486 
L 301.139105 205.963858 
L 301.155243 206.052058 
L 301.203658 205.875658 
L 301.219796 205.875658 
L 301.397317 205.787457 
L 301.526424 205.611056 
L 301.816913 205.699257 
L 301.929881 205.787457 
L 302.139679 205.875658 
L 302.284924 206.140259 
L 302.397892 206.052058 
L 302.51086 206.140259 
L 302.672243 205.699257 
L 302.752934 205.875658 
L 302.785211 205.787457 
L 302.849764 205.699257 
L 303.027285 205.258255 
L 303.091838 205.170054 
L 303.26936 204.729052 
L 303.333913 204.640852 
L 303.479157 204.37625 
L 303.575987 204.28805 
L 303.721232 204.023449 
L 303.850338 203.935248 
L 304.011721 203.582447 
L 304.108551 203.494246 
L 304.286072 203.053244 
L 304.528147 202.965044 
L 304.608838 202.700443 
L 304.657253 202.788643 
L 304.721806 202.788643 
L 304.818636 202.435841 
L 304.850912 202.524042 
L 304.899327 202.524042 
L 305.06071 201.730238 
L 305.109125 201.818438 
L 305.125263 201.730238 
L 305.270508 201.289236 
L 305.367338 201.201035 
L 305.560997 200.671833 
L 305.609412 200.583632 
L 306.190391 196.967415 
L 306.351774 193.704 
L 306.416327 71.987424 
L 306.497019 138.314138 
L 306.658402 204.729052 
L 306.739093 205.434655 
L 306.787508 205.258255 
L 306.932753 204.905453 
L 306.948891 204.993653 
L 306.997306 204.817253 
L 307.029582 204.905453 
L 307.207104 204.993653 
L 307.820359 207.816067 
L 307.868774 207.904267 
L 308.046295 208.345269 
L 308.110848 208.43347 
L 308.304508 209.403674 
L 308.465891 209.756476 
L 308.788657 209.668275 
L 308.885486 209.580075 
L 308.998454 209.668275 
L 309.095284 209.756476 
L 309.22439 209.932877 
L 309.337359 209.844676 
L 309.466465 209.932877 
L 309.579433 210.021077 
L 309.708539 209.844676 
L 309.756954 209.756476 
L 309.789231 209.668275 
L 309.853784 209.756476 
L 310.111997 209.844676 
L 310.224965 209.932877 
L 310.499316 209.844676 
L 310.628422 209.668275 
L 310.967326 209.580075 
L 311.096433 209.403674 
L 311.160986 209.315474 
L 311.322369 208.962672 
L 311.354645 208.874472 
L 311.532167 208.43347 
L 311.564443 208.345269 
L 311.709688 208.080668 
L 311.919486 207.992468 
L 312.032454 207.904267 
L 312.306805 207.816067 
L 312.468188 207.463265 
L 312.532741 207.375065 
L 312.694124 207.022263 
L 312.903922 206.934063 
L 313.033028 206.757662 
L 313.081443 206.669461 
L 313.210549 206.49306 
L 313.355794 206.40486 
L 313.371932 206.31666 
L 313.452624 206.40486 
L 313.67856 206.31666 
L 313.743113 206.40486 
L 313.823805 206.052058 
L 313.936773 205.963858 
L 314.049741 205.875658 
L 314.43706 205.787457 
L 314.646858 205.170054 
L 314.743687 205.081854 
L 314.856655 204.817253 
L 314.872794 204.905453 
L 314.985762 204.817253 
L 315.163283 204.37625 
L 315.243975 204.28805 
L 315.405358 203.935248 
L 315.599017 203.847048 
L 315.728123 203.582447 
L 315.744262 203.670647 
L 315.824953 203.582447 
L 315.937921 203.406046 
L 316.583453 206.40486 
L 316.793251 206.31666 
L 316.809389 206.228459 
L 316.873942 206.31666 
L 316.890081 206.40486 
L 316.938496 206.228459 
L 316.954634 206.228459 
L 317.164432 206.140259 
L 317.2774 205.963858 
L 317.406506 206.140259 
L 317.713134 206.052058 
L 317.826102 205.963858 
L 317.874517 205.875658 
L 318.197283 204.552651 
L 318.213421 204.640852 
L 318.261836 204.464451 
L 318.294112 204.552651 
L 318.713708 202.788643 
L 318.745985 202.700443 
L 318.988059 201.906639 
L 319.020336 201.906639 
L 319.197857 201.024635 
L 319.310825 201.024635 
L 319.472208 200.407232 
L 319.633591 198.996025 
L 319.859527 195.379808 
L 319.891804 136.020927 
L 319.92408 73.134029 
L 319.988633 114.852827 
L 320.166155 202.612242 
L 320.246846 203.406046 
L 320.295261 203.141445 
L 320.359814 203.229645 
L 320.553474 203.758848 
L 320.666442 203.847048 
L 320.811686 204.111649 
L 320.87624 204.19985 
L 321.279697 205.875658 
L 321.328112 205.963858 
L 321.489495 206.31666 
L 321.53791 206.40486 
L 321.667016 206.581261 
L 321.796122 206.669461 
L 321.925229 206.845862 
L 321.989782 206.934063 
L 322.135027 207.198664 
L 322.29641 207.286864 
L 322.441654 207.551465 
L 322.473931 207.463265 
L 322.538484 207.551465 
L 322.66759 207.727866 
L 322.76442 207.816067 
L 322.974218 208.43347 
L 323.006495 208.52167 
L 323.119463 208.60987 
L 323.652026 208.52167 
L 323.764994 208.345269 
L 323.797271 208.43347 
L 323.861824 208.345269 
L 323.910239 208.257069 
L 324.023207 207.992468 
L 324.039345 208.080668 
L 324.152314 207.992468 
L 324.168452 207.904267 
L 324.200728 208.080668 
L 324.216867 208.080668 
L 324.265282 208.168868 
L 324.313696 208.080668 
L 324.426665 207.904267 
L 324.539633 207.992468 
L 324.555771 207.904267 
L 324.636462 207.992468 
L 324.765569 208.080668 
L 324.830122 208.168868 
L 324.862399 208.080668 
L 325.023781 208.168868 
L 325.056058 208.257069 
L 325.120611 208.168868 
L 325.685452 208.080668 
L 325.814558 207.904267 
L 325.895249 207.816067 
L 326.024356 207.639666 
L 326.185739 207.551465 
L 326.347122 207.198664 
L 326.395537 207.110463 
L 326.540781 206.669461 
L 326.589196 206.581261 
L 326.750579 206.228459 
L 326.782856 206.140259 
L 326.911962 205.963858 
L 326.992653 205.875658 
L 327.137898 205.611056 
L 327.21859 205.522856 
L 327.299281 205.434655 
L 327.315419 205.522856 
L 327.58977 205.434655 
L 327.638185 205.346455 
L 327.6866 205.434655 
L 327.767292 205.346455 
L 327.944813 204.905453 
L 328.186887 204.817253 
L 328.412823 204.111649 
L 328.493515 204.111649 
L 328.622621 203.582447 
L 328.63876 203.670647 
L 328.961525 203.758848 
L 328.977664 203.847048 
L 329.00994 203.670647 
L 329.042217 203.670647 
L 329.219738 203.582447 
L 329.332706 203.229645 
L 329.364983 203.317845 
L 329.413398 203.229645 
L 329.590919 202.788643 
L 329.703887 202.876843 
L 329.86527 202.788643 
L 329.9621 202.347641 
L 330.010515 202.524042 
L 330.091206 202.788643 
L 330.123483 202.612242 
L 330.204174 202.524042 
L 330.397834 201.994839 
L 330.43011 202.08304 
L 330.478525 201.906639 
L 330.688323 201.906639 
L 330.833568 201.465637 
L 330.930398 201.465637 
L 331.124057 221.663532 
L 331.495238 235.952 
L 332.076216 248.829261 
L 332.786301 258.707708 
L 333.528663 265.675541 
L 335.142493 273.96638 
L 335.174769 273.96638 
L 335.336152 274.671983 
L 335.35229 274.671983 
L 335.529812 275.465787 
L 335.933269 277.141595 
L 335.965546 277.229795 
L 336.191482 277.935399 
L 336.239897 278.023599 
L 336.433556 278.552802 
L 336.465833 278.641002 
L 336.594939 278.817403 
L 336.675631 278.905603 
L 336.853152 279.346605 
L 336.917705 279.434806 
L 337.079088 279.875808 
L 337.111365 279.787607 
L 337.127503 279.964008 
L 337.159779 279.964008 
L 337.321162 280.31681 
L 337.385716 280.40501 
L 337.547099 280.757812 
L 337.660067 280.846012 
L 337.82145 281.198814 
L 337.950556 281.287014 
L 338.079662 281.551616 
L 338.095801 281.463415 
L 338.144215 281.639816 
L 338.160354 281.551616 
L 338.305598 281.816217 
L 338.434705 281.904417 
L 338.563811 282.080818 
L 338.741332 282.169019 
L 338.838162 282.257219 
L 338.934992 282.169019 
L 338.983407 282.257219 
L 339.031822 282.169019 
L 339.306173 282.080818 
L 339.386864 281.992618 
L 339.403002 282.080818 
L 340.758619 281.992618 
L 340.887726 281.816217 
L 341.049109 281.728017 
L 341.194353 281.463415 
L 341.258906 281.375215 
L 341.388013 281.198814 
L 341.565534 281.110614 
L 341.69464 280.934213 
L 341.79147 281.022413 
L 341.904438 280.934213 
L 342.630662 280.846012 
L 342.6468 280.757812 
L 342.679076 280.934213 
L 342.711353 280.934213 
L 342.888874 280.846012 
L 343.001842 280.757812 
L 343.760342 280.669612 
L 343.792619 280.581411 
L 343.857172 280.669612 
L 343.97014 280.581411 
L 344.050831 280.493211 
L 344.06697 280.581411 
L 344.228353 280.493211 
L 344.341321 280.40501 
L 344.680225 280.31681 
L 344.696363 280.228609 
L 344.777055 280.31681 
L 344.922299 280.228609 
L 345.035268 280.140409 
L 345.600108 280.052209 
L 345.616246 279.964008 
L 345.696938 280.052209 
L 345.793767 279.964008 
L 345.906735 279.875808 
L 346.068118 279.787607 
L 346.181086 279.611207 
L 346.213363 279.699407 
L 346.261778 279.611207 
L 346.374746 279.523006 
L 346.568406 279.434806 
L 346.584544 279.346605 
L 346.665235 279.434806 
L 346.971863 279.346605 
L 347.100969 279.170204 
L 347.940161 279.258405 
L 347.972437 279.346605 
L 348.03699 279.258405 
L 349.666958 279.346605 
L 349.683097 279.434806 
L 349.763788 279.346605 
L 351.16782 279.434806 
L 351.264649 279.523006 
L 351.361479 279.434806 
L 351.393756 279.523006 
L 351.442171 279.434806 
L 351.539 279.346605 
L 351.555139 279.434806 
L 351.63583 279.346605 
L 352.362054 279.434806 
L 352.475022 279.523006 
L 353.072139 279.434806 
L 353.088277 279.346605 
L 353.168968 279.434806 
L 353.362628 279.346605 
L 353.394904 279.258405 
L 353.443319 279.434806 
L 353.524011 279.346605 
L 353.572426 279.258405 
L 353.604702 279.346605 
L 353.669255 279.434806 
L 353.701532 279.346605 
L 354.702106 279.258405 
L 354.815074 279.170204 
L 354.831213 279.258405 
L 354.879628 279.082004 
L 354.895766 279.170204 
L 355.008734 279.082004 
L 355.13784 278.993804 
L 355.3315 240.27382 
L 355.79951 201.024635 
L 355.89634 186.471566 
L 355.944755 68.98861 
L 356.009308 127.730088 
L 356.154553 199.260626 
L 356.170691 199.084225 
L 356.364351 192.469194 
L 356.800085 180.562138 
L 356.864638 71.634622 
L 356.945329 126.495282 
L 357.122851 192.469194 
L 357.284234 194.056802 
L 357.477893 194.586004 
L 357.590861 194.586004 
L 357.703829 194.938806 
L 357.719968 194.850605 
L 357.865212 194.762405 
L 358.17184 193.6158 
L 358.236393 193.527599 
L 358.73668 190.264184 
L 359.043308 185.854163 
L 359.172414 179.680134 
L 359.236967 68.106605 
L 359.30152 112.383215 
L 359.49518 192.733795 
L 359.672701 195.291607 
L 359.898637 196.085411 
L 359.930914 195.997211 
L 359.995467 196.085411 
L 360.237542 195.997211 
L 360.511893 195.027006 
L 360.640999 194.938806 
L 360.834658 194.233202 
L 360.850797 194.321403 
L 360.947627 194.233202 
L 361.092871 193.7922 
L 361.10901 193.880401 
L 361.173563 193.7922 
L 361.318807 193.527599 
L 361.351084 193.439399 
L 361.625435 192.469194 
L 361.706126 192.380994 
L 361.867509 192.028192 
L 361.883648 192.028192 
L 362.028892 191.498989 
L 362.125722 191.410789 
L 362.416211 190.352384 
L 362.496903 190.264184 
L 363.223126 186.824367 
L 363.255403 186.736167 
L 363.545892 183.560952 
L 363.56203 181.885144 
L 363.626584 66.96 
L 363.707275 123.055466 
L 363.884796 191.58719 
L 364.046179 193.880401 
L 364.143009 193.968601 
L 364.272115 194.145002 
L 364.32053 194.233202 
L 364.352807 194.409603 
L 364.433498 194.321403 
L 364.449637 194.233202 
L 364.51419 194.321403 
L 364.594881 194.497804 
L 364.627158 194.409603 
L 364.836956 194.497804 
L 364.853094 194.586004 
L 364.885371 194.409603 
L 364.917647 194.409603 
L 365.159722 193.6158 
L 365.17586 193.6158 
L 365.337243 192.910196 
L 365.595456 192.821996 
L 366.240987 189.823182 
L 366.321679 189.911382 
L 366.370094 190.087783 
L 366.40237 189.911382 
L 366.757413 188.500175 
L 366.821966 188.500175 
L 366.967211 187.970973 
L 367.015626 188.147374 
L 367.06404 187.970973 
L 367.193147 187.882772 
L 367.91937 183.472751 
L 367.983923 181.532342 
L 368.0162 139.372543 
L 368.064615 68.194806 
L 368.129168 110.354605 
L 368.338966 190.705186 
L 368.516487 192.733795 
L 368.694008 193.174797 
L 368.806976 193.086597 
L 368.919944 193.174797 
L 369.178157 193.262998 
L 369.194295 193.351198 
L 369.24271 193.262998 
L 369.323402 193.086597 
L 369.355678 193.174797 
L 369.387955 193.439399 
L 369.468646 193.351198 
L 369.646168 192.910196 
L 369.662306 192.998397 
L 369.710721 192.821996 
L 369.888242 192.292793 
L 369.920519 192.380994 
L 369.968934 192.204593 
L 370.485359 189.911382 
L 370.533774 189.823182 
L 370.695157 189.029378 
L 370.808125 189.117578 
L 371.050199 188.323774 
L 371.082476 188.235574 
L 371.211582 187.794572 
L 371.243859 187.882772 
L 371.292274 187.794572 
L 371.389104 187.529971 
L 371.42138 187.618171 
L 371.534348 187.706372 
L 371.679593 188.147374 
L 371.744146 187.970973 
L 371.776423 188.147374 
L 371.840976 188.059173 
L 371.970082 187.706372 
L 371.98622 187.794572 
L 372.08305 187.706372 
L 372.502646 185.942363 
L 372.534923 185.854163 
L 372.776997 184.354756 
L 372.857688 183.384551 
L 372.922242 180.209336 
L 372.986795 67.665603 
L 373.067486 115.64663 
L 373.261146 188.676576 
L 373.454805 190.616985 
L 373.680741 191.322589 
L 373.858263 191.234388 
L 373.955092 191.057987 
L 373.971231 191.146188 
L 374.051922 191.322589 
L 374.084199 191.234388 
L 374.293997 190.528785 
L 374.310135 190.616985 
L 374.35855 190.352384 
L 374.519933 189.911382 
L 374.536071 189.999582 
L 374.600624 189.823182 
L 374.842699 189.734981 
L 375.052497 189.117578 
L 375.100911 189.205779 
L 375.197741 189.382179 
L 375.21388 189.293979 
L 375.262294 189.205779 
L 375.488231 188.500175 
L 375.520507 188.411975 
L 375.843273 187.088969 
L 375.891688 187.265369 
L 375.923965 187.088969 
L 376.149901 186.383365 
L 376.182177 186.471566 
L 376.24673 186.383365 
L 376.295145 186.295165 
L 376.666326 184.795758 
L 376.795432 184.707557 
L 377.10206 182.590747 
L 377.182752 180.473937 
L 377.215028 148.457186 
L 377.263443 68.371207 
L 377.327996 104.445177 
L 377.537794 186.559766 
L 377.683039 188.852977 
L 377.699177 188.764777 
L 377.908975 189.382179 
L 377.941251 189.47038 
L 378.102634 189.823182 
L 378.231741 189.911382 
L 378.280156 189.999582 
L 378.32857 189.911382 
L 378.473815 189.646781 
L 378.586783 189.55858 
L 378.828858 188.764777 
L 378.861134 188.676576 
L 378.990241 188.411975 
L 379.119347 188.588376 
L 379.167762 188.500175 
L 379.458251 187.44177 
L 379.522804 187.35357 
L 379.651911 187.177169 
L 379.74874 187.088969 
L 379.974677 186.383365 
L 380.023091 186.295165 
L 380.216751 185.148559 
L 380.232889 185.23676 
L 380.265166 185.060359 
L 380.281304 185.060359 
L 380.410411 184.883958 
L 380.491102 184.972159 
L 380.571794 185.148559 
L 380.60407 185.060359 
L 380.684762 184.972159 
L 380.846145 184.619357 
L 380.862283 184.707557 
L 380.894559 184.442956 
L 381.088219 183.825553 
L 381.104357 183.913754 
L 381.16891 183.737353 
L 381.523953 178.798129 
L 381.55623 173.153303 
L 381.620783 68.018405 
L 381.685336 103.563173 
L 381.911272 187.706372 
L 382.104932 189.734981 
L 382.185623 189.823182 
L 382.347006 190.175983 
L 382.379283 190.264184 
L 382.540666 190.616985 
L 382.702048 190.528785 
L 382.927985 189.823182 
L 383.121644 189.911382 
L 383.234612 190.264184 
L 383.266889 190.175983 
L 383.379857 190.264184 
L 383.395995 190.352384 
L 383.44441 190.175983 
L 383.460548 190.175983 
L 383.654208 189.646781 
L 383.702623 189.55858 
L 383.815591 189.117578 
L 383.864006 189.205779 
L 383.896282 189.117578 
L 384.089942 188.588376 
L 384.122218 188.676576 
L 384.170633 188.500175 
L 384.219048 188.411975 
L 384.396569 187.970973 
L 384.461123 187.882772 
L 384.557952 187.794572 
L 384.606367 187.970973 
L 384.67092 187.882772 
L 384.735474 187.794572 
L 384.896857 187.35357 
L 384.945272 187.44177 
L 384.993686 187.35357 
L 385.042101 187.265369 
L 385.090516 187.35357 
L 385.171208 187.265369 
L 385.300314 186.912568 
L 385.316452 187.000768 
L 385.348729 187.088969 
L 385.364867 187.177169 
L 385.42942 187.000768 
L 386.123367 182.678948 
L 386.317027 177.739724 
L 386.38158 69.870614 
L 386.47841 122.173461 
L 386.672069 186.206964 
L 386.833452 187.882772 
L 386.84959 187.794572 
L 386.881867 188.059173 
L 387.107803 188.852977 
L 387.14008 188.764777 
L 387.188495 188.941177 
L 387.285324 189.029378 
L 387.398292 189.205779 
L 387.575814 188.764777 
L 387.70492 188.676576 
L 387.850165 188.411975 
L 387.89858 188.323774 
L 387.963133 188.235574 
L 387.979271 188.323774 
L 388.140654 189.029378 
L 388.302037 188.676576 
L 388.527973 188.588376 
L 388.640941 188.500175 
L 388.753909 188.411975 
L 388.947569 187.882772 
L 388.979845 187.794572 
L 389.157367 187.35357 
L 389.189643 187.265369 
L 389.641515 185.32496 
L 389.657654 185.32496 
L 389.899728 183.031749 
L 390.093388 181.444142 
L 390.319324 176.593119 
L 390.3516 133.639516 
L 390.400015 69.429612 
L 390.464568 104.97438 
L 390.674366 184.266555 
L 390.835749 186.471566 
L 390.868026 186.559766 
L 391.126239 187.44177 
L 391.158515 187.44177 
L 391.174653 187.265369 
L 391.271483 187.35357 
L 391.352175 187.177169 
L 391.368313 187.265369 
L 391.432866 187.44177 
L 391.481281 187.35357 
L 391.513558 187.177169 
L 391.578111 187.265369 
L 391.691079 187.35357 
L 391.739494 187.265369 
L 391.949292 186.647967 
L 392.078398 186.559766 
L 392.385026 185.413161 
L 392.449579 185.32496 
L 392.610962 184.619357 
L 392.659377 184.531157 
L 392.869174 183.384551 
L 392.885313 183.384551 
L 393.175802 181.355941 
L 393.595398 178.621729 
L 393.724504 175.534714 
L 393.756781 142.283157 
L 393.805196 70.047015 
L 393.869749 98.800351 
L 394.111823 183.560952 
L 394.305483 186.295165 
L 394.499142 187.35357 
L 394.547557 187.44177 
L 394.70894 187.794572 
L 394.741217 187.882772 
L 394.870323 188.059173 
L 394.983291 188.147374 
L 395.015568 188.235574 
L 395.080121 188.147374 
L 395.37061 187.088969 
L 395.419025 187.000768 
L 395.548131 186.824367 
L 395.612685 186.824367 
L 395.757929 186.383365 
L 395.806344 186.295165 
L 395.967727 185.765962 
L 395.983865 185.854163 
L 396.096833 185.765962 
L 396.290493 184.795758 
L 396.32277 184.707557 
L 396.69395 183.20815 
L 396.742365 183.11995 
L 397.048993 181.708743 
L 397.081269 181.796944 
L 397.161961 181.708743 
L 397.517003 177.122321 
L 397.565418 170.860092 
L 397.629972 70.311616 
L 397.710663 108.678797 
L 397.936599 182.943549 
L 398.130259 185.677762 
L 398.162535 185.765962 
L 398.485301 187.000768 
L 398.582131 187.088969 
L 398.711237 187.265369 
L 398.904897 187.177169 
L 399.034003 187.000768 
L 399.211524 186.912568 
L 399.437461 186.206964 
L 399.582705 186.118764 
L 399.744088 185.765962 
L 399.857056 185.854163 
L 399.889333 185.765962 
L 399.937748 185.854163 
L 399.970024 185.942363 
L 400.018439 185.854163 
L 400.405758 184.266555 
L 400.454173 184.178355 
L 401.196535 179.591933 
L 401.406333 175.005511 
L 401.487024 70.311616 
L 401.583854 121.203257 
L 401.777513 181.355941 
L 401.955035 184.178355 
L 402.229386 186.030564 
L 402.358492 186.295165 
L 402.503737 186.030564 
L 402.56829 186.118764 
L 402.584428 186.206964 
L 402.66512 186.118764 
L 402.842641 186.030564 
L 403.052439 185.413161 
L 403.100854 185.32496 
L 403.278375 184.883958 
L 403.342928 184.795758 
L 403.455896 184.619357 
L 403.568864 184.707557 
L 403.923907 184.619357 
L 404.036875 184.531157 
L 404.165981 184.619357 
L 404.214396 184.707557 
L 404.262811 184.619357 
L 404.359641 184.707557 
L 404.424194 184.795758 
L 404.45647 184.707557 
L 404.521024 184.619357 
L 404.730821 183.737353 
L 404.763098 183.825553 
L 405.102002 183.737353 
L 405.327938 183.031749 
L 405.392492 182.943549 
L 405.50546 182.414346 
L 405.537736 182.502547 
L 405.602289 182.414346 
L 405.908917 180.209336 
L 406.247821 175.358313 
L 406.296236 171.212893 
L 406.376928 71.458221 
L 406.441481 105.856384 
L 406.667417 182.149745 
L 406.861076 185.32496 
L 407.248395 186.912568 
L 407.329087 187.000768 
L 407.345225 187.088969 
L 407.39364 186.912568 
L 407.409778 186.912568 
L 407.442055 186.912568 
L 407.571161 186.559766 
L 407.813236 186.647967 
L 407.893927 186.736167 
L 407.910066 186.647967 
L 408.119863 186.736167 
L 408.200555 186.912568 
L 408.232831 186.824367 
L 408.3458 186.736167 
L 408.507182 186.383365 
L 408.604012 186.383365 
L 408.797672 185.413161 
L 409.088161 184.354756 
L 409.152714 184.266555 
L 409.701416 181.708743 
L 409.717555 181.796944 
L 409.749831 181.620543 
L 409.782108 181.620543 
L 409.927352 180.914939 
L 409.959629 181.09134 
L 410.072597 181.179541 
L 410.395363 181.09134 
L 410.927927 177.827925 
L 411.08931 173.153303 
L 411.121586 151.5442 
L 411.186139 71.458221 
L 411.250693 104.356977 
L 411.476629 181.973344 
L 411.65415 185.060359 
L 411.896224 186.559766 
L 412.025331 186.824367 
L 412.154437 186.647967 
L 412.331958 186.559766 
L 412.461065 186.383365 
L 412.622448 186.471566 
L 412.703139 186.824367 
L 412.767692 186.736167 
L 412.961352 186.206964 
L 413.058182 186.118764 
L 413.187288 185.942363 
L 413.300256 185.854163 
L 413.477777 185.148559 
L 413.493916 185.23676 
L 413.623022 185.413161 
L 413.784405 185.060359 
L 413.83282 184.972159 
L 414.284692 183.031749 
L 414.365384 182.943549 
L 414.413799 183.031749 
L 414.49449 182.767148 
L 414.526767 182.678948 
L 414.704288 181.885144 
L 414.752703 181.973344 
L 414.784979 181.885144 
L 415.123884 179.591933 
L 415.398235 173.594305 
L 415.446649 98.447549 
L 415.478926 71.19362 
L 415.543479 100.211557 
L 415.785554 182.149745 
L 415.979213 184.972159 
L 416.189011 186.118764 
L 416.398809 186.736167 
L 416.624745 186.647967 
L 416.705436 186.559766 
L 416.721575 186.647967 
L 416.76999 186.647967 
L 416.931373 186.030564 
L 416.963649 186.118764 
L 416.995926 186.030564 
L 417.14117 185.589562 
L 417.189585 185.501361 
L 417.350968 185.148559 
L 417.399383 185.060359 
L 417.673734 184.090154 
L 417.706011 184.001954 
L 418.077192 182.502547 
L 418.238574 182.414346 
L 418.512926 181.355941 
L 418.529064 181.444142 
L 418.56134 181.267741 
L 418.593617 181.267741 
L 418.642032 181.179541 
L 419.110042 178.092526 
L 419.31984 174.65271 
L 419.352117 171.742096 
L 419.432808 71.370021 
L 419.5135 110.354605 
L 419.771713 203.758848 
L 420.013787 225.632551 
L 420.433383 242.831632 
L 420.83684 252.445478 
L 421.224159 258.531307 
L 421.627616 263.38233 
L 421.756723 264.617136 
L 422.208595 268.409754 
L 422.660467 271.408568 
L 422.870265 272.643374 
L 422.902542 272.731574 
L 423.612627 276.08319 
L 423.644903 276.17139 
L 424.048361 277.847198 
L 424.096776 277.935399 
L 424.354988 278.817403 
L 424.403403 278.905603 
L 424.564786 279.523006 
L 424.645478 279.611207 
L 424.839137 280.140409 
L 424.871414 280.228609 
L 425.081212 280.846012 
L 425.113488 280.934213 
L 425.274871 281.287014 
L 425.339424 281.375215 
L 425.516946 281.816217 
L 425.581499 281.904417 
L 425.726743 282.169019 
L 425.839712 282.257219 
L 426.001094 282.610021 
L 426.097924 282.698221 
L 426.243169 282.962822 
L 426.32386 283.051023 
L 426.469105 283.315624 
L 426.565935 283.403825 
L 426.678903 283.580225 
L 426.695041 283.492025 
L 426.759594 283.668426 
L 426.856424 283.756626 
L 426.98553 283.933027 
L 427.033945 284.021227 
L 427.146913 284.109428 
L 427.243743 284.197628 
L 427.388988 284.46223 
L 427.421264 284.374029 
L 427.485818 284.46223 
L 428.131349 284.55043 
L 428.260456 284.726831 
L 429.148062 284.815031 
L 429.1642 284.903232 
L 429.244892 284.815031 
L 429.341722 284.726831 
L 429.45469 284.815031 
L 429.729041 284.903232 
L 429.793594 284.991432 
L 429.82587 284.903232 
L 430.697338 284.815031 
L 430.810306 284.726831 
L 431.310594 284.63863 
L 431.375147 284.55043 
L 431.407423 284.63863 
L 431.972264 284.55043 
L 432.10137 284.374029 
L 432.633934 284.285829 
L 432.746902 284.197628 
L 433.392434 284.109428 
L 433.505402 284.021227 
L 433.795891 283.933027 
L 433.860444 283.756626 
L 433.908859 283.844827 
L 433.989551 283.933027 
L 434.005689 283.844827 
L 434.74805 283.756626 
L 434.861019 283.668426 
L 435.232199 283.580225 
L 435.345167 283.492025 
L 435.635657 283.403825 
L 435.732486 283.315624 
L 435.780901 283.403825 
L 435.780901 283.403825 
" style="fill:none;stroke:#1f77b4;stroke-linecap:square;stroke-width:1.5;"/>
   </g>
   <g id="line2d_14">
    <path clip-path="url(#p3d04ff38d7)" d="M 80.754545 275.448147 
L 82.529758 275.339766 
L 82.691141 275.321703 
L 88.904385 275.231386 
L 89.630608 262.135388 
L 90.405246 251.712779 
L 91.276714 243.186833 
L 91.889969 238.689035 
L 92.600054 234.642823 
L 93.713596 230.145026 
L 94.068639 229.079282 
L 94.568926 227.778714 
L 95.553362 225.845926 
L 96.005234 225.177578 
L 96.311862 224.762119 
L 97.602926 223.479614 
L 97.764309 223.371233 
L 98.167766 223.082218 
L 98.345287 222.973838 
L 98.651915 222.793203 
L 98.861713 222.684823 
L 99.136064 222.540315 
L 99.410415 222.431934 
L 99.652489 222.323554 
L 99.959117 222.215173 
L 100.185053 222.124856 
L 100.556234 222.016475 
L 100.766031 221.944221 
L 101.201765 221.835841 
L 101.395425 221.78165 
L 101.91185 221.67327 
L 102.10551 221.619079 
L 102.76718 221.510699 
L 102.944701 221.474572 
L 103.703201 221.366191 
L 103.880722 221.330064 
L 104.865158 221.221683 
L 105.04268 221.185557 
L 106.333743 221.077176 
L 106.495126 221.059112 
L 107.915296 220.950732 
L 108.076679 220.932668 
L 109.851892 220.824288 
L 110.013275 220.806224 
L 112.175806 220.697844 
L 112.337189 220.67978 
L 115.000008 220.571399 
L 115.161391 220.553336 
L 118.469741 220.444955 
L 118.631124 220.426892 
L 122.859358 220.318511 
L 123.020741 220.300448 
L 128.814389 220.192067 
L 128.975771 220.174004 
L 138.07777 220.065623 
L 138.239153 220.047559 
L 153.457565 219.957242 
L 154.312895 234.986029 
L 154.974565 243.638419 
L 155.829895 251.983731 
L 156.765916 258.450445 
L 157.621245 262.641164 
L 159.18666 267.518294 
L 160.106543 269.306575 
L 160.558415 269.974923 
L 160.848904 270.354255 
L 162.188383 271.69095 
L 162.349766 271.799331 
L 162.737085 272.070283 
L 162.914606 272.178663 
L 163.221234 272.359298 
L 163.44717 272.467678 
L 163.721521 272.612186 
L 163.995872 272.720567 
L 164.237946 272.828947 
L 164.544574 272.937328 
L 164.77051 273.027645 
L 165.157829 273.136026 
L 165.367627 273.20828 
L 165.819499 273.31666 
L 166.013159 273.370851 
L 166.561861 273.479231 
L 166.755521 273.533422 
L 167.449467 273.641802 
L 167.626988 273.677929 
L 168.433903 273.78631 
L 168.611424 273.822437 
L 169.515169 273.930817 
L 169.628137 275.448147 
L 169.78952 275.430083 
L 171.742254 275.321703 
L 171.903637 275.303639 
L 177.681146 275.231386 
L 178.439646 257.11375 
L 179.278838 242.410105 
L 180.118029 231.806863 
L 180.811976 225.285959 
L 181.409093 220.914605 
L 182.135316 216.778076 
L 182.684018 214.321447 
L 183.281135 212.153834 
L 184.039635 209.98622 
L 185.443666 207.114133 
L 185.782571 206.572229 
L 186.16989 205.976135 
L 186.799283 205.10909 
L 187.105911 204.693631 
L 187.864411 203.682078 
L 188.203315 203.194365 
L 188.606772 202.580208 
L 189.784868 199.690056 
L 190.075357 197.901775 
L 190.252878 195.138068 
L 190.317432 191.63376 
L 190.4304 204.223981 
L 190.737027 204.332362 
L 191.527804 214.267257 
L 192.141059 219.884988 
L 192.835006 224.45504 
L 193.93241 228.862521 
L 194.932984 230.831436 
L 195.594654 231.409467 
L 195.885143 231.517847 
L 196.078803 231.572038 
L 196.853441 231.463657 
L 197.095515 231.355276 
L 197.305313 231.246896 
L 197.676494 230.994007 
L 197.837877 230.885627 
L 198.612515 230.181152 
L 198.725483 230.072772 
L 201.485132 226.821352 
L 201.775621 226.442019 
L 202.985993 224.92469 
L 203.276483 224.545357 
L 205.19694 222.233236 
L 205.455152 221.926158 
L 208.892609 218.241215 
L 209.005577 218.132834 
L 209.973875 217.211599 
L 210.102981 217.103218 
L 210.87762 216.398744 
L 211.006726 216.290363 
L 211.652258 215.730396 
L 211.797502 215.622015 
L 212.394619 215.116239 
L 212.539864 215.007858 
L 213.056289 214.592399 
L 213.201534 214.484018 
L 213.685683 214.104686 
L 213.847066 213.996305 
L 214.298938 213.6531 
L 214.460321 213.544719 
L 214.896055 213.219577 
L 215.057438 213.111196 
L 215.444757 212.840245 
L 215.60614 212.731864 
L 215.993459 212.460912 
L 216.17098 212.352532 
L 216.542161 212.099643 
L 216.719682 211.991263 
L 217.074725 211.756438 
L 217.268384 211.648057 
L 217.623427 211.413233 
L 217.817087 211.304852 
L 218.155991 211.088091 
L 218.34965 210.97971 
L 218.672416 210.781012 
L 218.866076 210.672631 
L 219.172703 210.491997 
L 219.366363 210.383616 
L 219.67299 210.202982 
L 219.882788 210.094601 
L 220.189416 209.913967 
L 220.399214 209.805586 
L 220.689703 209.643015 
L 220.899501 209.534634 
L 221.18999 209.372063 
L 221.415926 209.263683 
L 221.706416 209.101112 
L 221.932352 208.992731 
L 222.222841 208.83016 
L 222.448777 208.721779 
L 222.723128 208.577272 
L 222.949064 208.468891 
L 223.223415 208.324383 
L 223.46549 208.216003 
L 223.739841 208.071495 
L 223.965777 207.963114 
L 224.240128 207.818607 
L 224.482202 207.710226 
L 224.756553 207.565719 
L 225.014766 207.457338 
L 225.289117 207.31283 
L 225.531192 207.20445 
L 225.805543 207.059942 
L 226.063755 206.951562 
L 226.338106 206.807054 
L 226.580181 206.698673 
L 226.838394 206.572229 
L 227.06433 206.463848 
L 227.322542 206.337404 
L 227.564617 206.229024 
L 227.838968 206.084516 
L 228.081042 205.976135 
L 228.355393 205.831628 
L 228.581329 205.723247 
L 228.85568 205.57874 
L 229.081617 205.470359 
L 229.355968 205.325851 
L 229.565765 205.217471 
L 229.856255 205.0549 
L 230.082191 204.946519 
L 230.388818 204.765885 
L 230.598616 204.657504 
L 230.921382 204.458806 
L 231.115042 204.350425 
L 231.453946 204.133664 
L 231.631467 204.025283 
L 232.018786 203.754332 
L 232.180169 203.645951 
L 232.64818 203.284682 
L 232.793424 203.176301 
L 234.439531 201.171259 
L 235.004371 199.65393 
L 235.327137 197.757268 
L 235.48852 195.318703 
L 235.553073 192.356298 
L 235.666041 204.223981 
L 235.972669 204.223981 
L 236.860275 215.549762 
L 237.651051 222.395807 
L 238.425689 226.857478 
L 239.119636 229.476678 
L 240.281593 231.806863 
L 240.862572 232.294576 
L 241.185338 232.402956 
L 241.362859 232.439083 
L 242.121359 232.330702 
L 242.234327 232.276512 
L 243.025104 250.538656 
L 243.702912 262.027007 
L 244.461412 271.456125 
L 245.284465 278.66344 
L 246.172071 283.901839 
L 246.995124 287.081006 
L 247.543826 288.544145 
L 248.237773 289.826649 
L 249.39973 290.964647 
L 249.657943 291.073027 
L 249.883879 291.163344 
L 251.642953 291.054964 
L 251.868889 290.964647 
L 252.175517 290.856266 
L 252.43373 290.729822 
L 252.675804 290.621441 
L 252.950155 290.476934 
L 253.159953 290.368553 
L 253.466581 290.187918 
L 253.66024 290.079538 
L 253.999144 289.862776 
L 254.192804 289.754396 
L 254.563985 289.501507 
L 254.741506 289.393127 
L 255.096548 289.158302 
L 255.27407 289.049921 
L 255.661389 288.77897 
L 255.83891 288.670589 
L 256.226229 288.399637 
L 256.40375 288.291257 
L 256.807208 288.002241 
L 256.984729 287.893861 
L 257.35591 287.640973 
L 257.533431 287.532592 
L 257.92075 287.26164 
L 258.098271 287.15326 
L 258.291931 287.026815 
L 258.404899 275.448147 
L 258.566282 275.430083 
L 260.519016 275.321703 
L 260.680399 275.303639 
L 266.457908 275.231386 
L 267.248685 247.070474 
L 268.055599 226.008497 
L 268.975482 208.794033 
L 269.75012 195.156132 
L 269.798535 191.940838 
L 269.911503 204.223981 
L 270.363376 204.332362 
L 270.653865 204.494933 
L 271.686716 204.386552 
L 272.993918 202.760842 
L 273.671726 200.972561 
L 273.994492 199.509422 
L 274.284981 196.817969 
L 274.397949 193.711056 
L 274.414088 192.663376 
L 274.527056 204.223981 
L 274.833683 204.223981 
L 275.656736 213.002816 
L 276.47979 218.58442 
L 277.286704 221.691333 
L 278.012928 223.046091 
L 278.432523 223.35317 
L 279.2233 223.244789 
L 280.64347 221.492635 
L 281.660182 219.487593 
L 281.821565 219.144387 
L 283.85499 214.321447 
L 284.306863 213.18345 
L 285.339714 210.600378 
L 285.807724 209.40819 
L 286.663054 207.222513 
L 287.227894 205.705184 
L 287.695905 204.386552 
L 288.680341 200.719673 
L 289.035383 198.154664 
L 289.212904 194.993561 
L 289.261319 192.464678 
L 289.374287 204.223981 
L 289.680915 204.223981 
L 290.48783 212.045453 
L 291.133362 216.254236 
L 291.649787 218.53023 
L 292.295319 220.318511 
L 292.698776 220.950732 
L 293.182925 221.330064 
L 293.973702 221.221683 
L 295.474563 219.379212 
L 296.297616 217.807692 
L 296.475137 217.446423 
L 299.428445 210.564251 
L 299.864179 209.480444 
L 300.864754 206.969625 
L 301.429594 205.452296 
L 301.881466 204.169791 
L 302.801349 200.719673 
L 303.156391 198.172727 
L 303.333913 195.011624 
L 303.382328 192.536932 
L 303.495296 204.223981 
L 303.801923 204.223981 
L 304.624976 212.189961 
L 305.25437 216.272299 
L 305.770795 218.566357 
L 306.416327 220.354638 
L 306.755231 220.896541 
L 306.997306 221.167493 
L 307.320072 221.366191 
L 308.078572 221.25781 
L 309.61171 219.379212 
L 310.418624 217.843819 
L 310.596146 217.48255 
L 313.533315 210.636504 
L 313.969049 209.552698 
L 314.969624 207.041879 
L 315.518326 205.57874 
L 315.986336 204.260108 
L 316.938496 200.701609 
L 317.293538 198.118537 
L 317.454921 195.372893 
L 317.519474 192.139536 
L 317.632442 204.223981 
L 317.93907 204.223981 
L 318.762123 212.189961 
L 319.682006 217.663185 
L 320.634165 220.499146 
L 321.570186 221.384254 
L 322.167303 221.275874 
L 323.797271 219.288895 
L 324.765569 217.392233 
L 324.94309 217.030964 
L 327.525217 210.97971 
L 327.960951 209.895903 
L 329.00994 207.276704 
L 329.542504 205.867755 
L 330.042791 204.476869 
L 331.011089 200.990624 
L 331.979387 232.746162 
L 332.737887 250.231577 
L 333.56094 263.833351 
L 334.367854 273.190216 
L 335.013386 278.60925 
L 335.900992 283.829586 
L 336.724045 287.008752 
L 337.272748 288.471891 
L 337.966694 289.754396 
L 339.128651 290.892393 
L 339.386864 291.000773 
L 339.6128 291.091091 
L 341.388013 290.98271 
L 341.613949 290.892393 
L 341.920577 290.784012 
L 342.178789 290.657568 
L 342.420864 290.549187 
L 342.711353 290.386616 
L 342.937289 290.278236 
L 343.260055 290.079538 
L 343.469853 289.971157 
L 343.808757 289.754396 
L 343.986278 289.646015 
L 344.341321 289.41119 
L 344.518842 289.30281 
L 344.873885 289.067985 
L 345.051406 288.959604 
L 345.438725 288.688652 
L 345.616246 288.580272 
L 346.003565 288.30932 
L 346.181086 288.200939 
L 346.568406 287.929988 
L 346.745927 287.821607 
L 347.068693 287.604846 
L 347.181661 275.448147 
L 347.343044 275.430083 
L 349.295777 275.321703 
L 349.45716 275.303639 
L 355.23467 275.231386 
L 356.025447 218.927626 
L 356.445042 193.295597 
L 356.55801 204.223981 
L 356.864638 204.223981 
L 357.090574 192.771757 
L 357.203542 204.223981 
L 357.51017 204.223981 
L 357.832936 193.530422 
L 357.849074 191.904711 
L 357.962042 204.223981 
L 358.26867 204.133664 
L 358.752818 197.468253 
L 358.881925 192.139536 
L 358.994893 204.223981 
L 359.366074 204.332362 
L 359.817946 204.675567 
L 360.560307 203.682078 
L 361.173563 201.261576 
L 361.496329 198.859138 
L 361.706126 195.282576 
L 361.77068 191.416998 
L 361.883648 204.223981 
L 362.190275 204.278172 
L 362.787392 208.089559 
L 363.142435 209.480444 
L 363.481339 210.239109 
L 363.85252 210.51006 
L 364.126871 210.365553 
L 364.239839 210.257172 
L 365.143583 207.963114 
L 365.611594 206.012262 
L 366.144158 203.122111 
L 366.628306 199.166217 
L 366.838104 195.300639 
L 366.902657 191.16411 
L 367.015626 204.223981 
L 367.322253 204.260108 
L 367.91937 207.005752 
L 368.306689 207.926988 
L 368.710147 208.216003 
L 368.952221 208.107622 
L 369.371817 207.475401 
L 369.855966 206.120643 
L 370.356253 204.06141 
L 370.75971 201.767353 
L 371.179306 197.666951 
L 371.32455 193.494295 
L 371.340689 192.229853 
L 371.453657 204.223981 
L 371.776423 204.314298 
L 372.292848 207.041879 
L 372.857688 208.577272 
L 373.245007 208.848223 
L 373.487082 208.739843 
L 373.906678 208.107622 
L 374.390826 206.752864 
L 374.92339 204.58525 
L 375.359124 202.146685 
L 375.746443 198.804948 
L 375.940103 194.975497 
L 375.988518 192.067282 
L 376.101486 204.223981 
L 376.424252 204.314298 
L 376.908401 206.825117 
L 377.279581 207.999241 
L 377.650762 208.559208 
L 377.876698 208.649525 
L 378.651336 207.619909 
L 379.022517 206.518039 
L 379.522804 204.458806 
L 379.958538 202.020241 
L 380.329719 198.804948 
L 380.50724 195.553527 
L 380.571794 192.21179 
L 380.684762 204.223981 
L 381.007527 204.314298 
L 381.491676 206.843181 
L 381.878995 208.071495 
L 382.250176 208.631462 
L 382.459974 208.703716 
L 382.702048 208.595335 
L 383.121644 207.963114 
L 383.605793 206.608356 
L 384.122218 204.512996 
L 384.816165 200.051325 
L 385.042101 197.197301 
L 385.171208 192.627249 
L 385.284176 204.223981 
L 385.606942 204.314298 
L 386.09109 206.843181 
L 386.47841 208.071495 
L 386.84959 208.631462 
L 387.059388 208.703716 
L 387.301463 208.595335 
L 387.721058 207.963114 
L 388.205207 206.608356 
L 388.721633 204.512996 
L 389.415579 200.051325 
L 389.657654 196.890222 
L 389.770622 192.645313 
L 389.88359 204.223981 
L 390.206356 204.314298 
L 390.690505 206.843181 
L 391.077824 208.071495 
L 391.449004 208.631462 
L 391.658802 208.703716 
L 391.900877 208.595335 
L 392.320472 207.963114 
L 392.804621 206.608356 
L 393.321047 204.512996 
L 394.014993 200.051325 
L 394.257068 196.890222 
L 394.370036 192.663376 
L 394.483004 204.223981 
L 394.80577 204.314298 
L 395.289919 206.843181 
L 395.677238 208.071495 
L 396.048419 208.631462 
L 396.258216 208.703716 
L 396.500291 208.595335 
L 396.919887 207.963114 
L 397.404035 206.626419 
L 398.436886 201.514464 
L 398.808067 197.757268 
L 398.953312 193.78331 
L 398.96945 192.68144 
L 399.082418 204.223981 
L 399.405184 204.314298 
L 399.889333 206.861244 
L 400.470311 208.432764 
L 400.696248 208.667589 
L 401.14812 208.559208 
L 401.503162 207.999241 
L 402.019588 206.572229 
L 403.0363 201.514464 
L 403.407481 197.775331 
L 403.552726 193.801373 
L 403.568864 192.699503 
L 403.681832 204.223981 
L 404.004598 204.314298 
L 404.488747 206.861244 
L 405.069726 208.450827 
L 405.440906 208.703716 
L 405.715257 208.595335 
L 406.102577 207.999241 
L 406.619002 206.572229 
L 407.119289 204.512996 
L 407.555023 202.074431 
L 407.926204 198.877201 
L 408.119863 195.228385 
L 408.168278 192.73563 
L 408.281246 204.223981 
L 408.604012 204.314298 
L 409.088161 206.861244 
L 409.66914 208.450827 
L 410.040321 208.703716 
L 410.314672 208.595335 
L 410.701991 207.999241 
L 411.218416 206.572229 
L 411.718703 204.512996 
L 412.154437 202.074431 
L 412.525618 198.877201 
L 412.719278 195.228385 
L 412.767692 192.771757 
L 412.88066 204.223981 
L 413.203426 204.314298 
L 413.687575 206.861244 
L 414.268554 208.450827 
L 414.655873 208.721779 
L 415.446649 207.674099 
L 415.81783 206.572229 
L 416.318117 204.512996 
L 416.753851 202.074431 
L 417.125032 198.895265 
L 417.318692 195.246449 
L 417.367107 192.78982 
L 417.480075 204.223981 
L 417.802841 204.314298 
L 418.286989 206.861244 
L 418.867968 208.450827 
L 419.255287 208.721779 
L 419.497362 208.613398 
L 419.787851 208.216003 
L 420.546351 260.636122 
L 421.272574 296.672695 
L 421.950382 320.96803 
L 422.660467 339.121792 
L 423.338276 351.206237 
L 423.999946 359.226407 
L 424.564786 363.850649 
L 425.355563 367.662036 
L 425.791297 368.745843 
L 426.097924 369.161302 
L 426.404552 369.341937 
L 426.840286 369.233556 
L 427.614924 368.203939 
L 428.69619 365.512486 
L 430.890998 357.763268 
L 431.810881 354.150579 
L 432.440274 351.657823 
L 433.392434 347.900627 
L 434.150934 344.974349 
L 434.893295 342.156451 
L 435.845455 338.670206 
L 435.845455 338.670206 
" style="fill:none;stroke:#ff0000;stroke-linecap:square;stroke-width:1.5;"/>
   </g>
   <g id="patch_3">
    <path d="M 63 384.48 
L 63 51.84 
" style="fill:none;stroke:#000000;stroke-linecap:square;stroke-linejoin:miter;stroke-width:0.8;"/>
   </g>
   <g id="patch_4">
    <path d="M 453.6 384.48 
L 453.6 51.84 
" style="fill:none;stroke:#000000;stroke-linecap:square;stroke-linejoin:miter;stroke-width:0.8;"/>
   </g>
   <g id="patch_5">
    <path d="M 63 384.48 
L 453.6 384.48 
" style="fill:none;stroke:#000000;stroke-linecap:square;stroke-linejoin:miter;stroke-width:0.8;"/>
   </g>
   <g id="patch_6">
    <path d="M 63 51.84 
L 453.6 51.84 
" style="fill:none;stroke:#000000;stroke-linecap:square;stroke-linejoin:miter;stroke-width:0.8;"/>
   </g>
   <g id="legend_1">
    <g id="patch_7">
     <path d="M 70 89.19625 
L 133.139062 89.19625 
Q 135.139062 89.19625 135.139062 87.19625 
L 135.139062 58.84 
Q 135.139062 56.84 133.139062 56.84 
L 70 56.84 
Q 68 56.84 68 58.84 
L 68 87.19625 
Q 68 89.19625 70 89.19625 
z
" style="fill:#ffffff;opacity:0.8;stroke:#cccccc;stroke-linejoin:miter;"/>
    </g>
    <g id="line2d_15">
     <path d="M 72 64.938437 
L 92 64.938437 
" style="fill:none;stroke:#1f77b4;stroke-linecap:square;stroke-width:1.5;"/>
    </g>
    <g id="line2d_16"/>
    <g id="text_15">
     <!-- target -->
     <defs>
      <path d="M 41.109375 46.296875 
Q 39.59375 47.171875 37.8125 47.578125 
Q 36.03125 48 33.890625 48 
Q 26.265625 48 22.1875 43.046875 
Q 18.109375 38.09375 18.109375 28.8125 
L 18.109375 0 
L 9.078125 0 
L 9.078125 54.6875 
L 18.109375 54.6875 
L 18.109375 46.1875 
Q 20.953125 51.171875 25.484375 53.578125 
Q 30.03125 56 36.53125 56 
Q 37.453125 56 38.578125 55.875 
Q 39.703125 55.765625 41.0625 55.515625 
z
" id="DejaVuSans-114"/>
     </defs>
     <g transform="translate(100 68.438437)scale(0.1 -0.1)">
      <use xlink:href="#DejaVuSans-116"/>
      <use x="39.208984" xlink:href="#DejaVuSans-97"/>
      <use x="100.488281" xlink:href="#DejaVuSans-114"/>
      <use x="141.585938" xlink:href="#DejaVuSans-103"/>
      <use x="205.0625" xlink:href="#DejaVuSans-101"/>
      <use x="266.585938" xlink:href="#DejaVuSans-116"/>
     </g>
    </g>
    <g id="line2d_17">
     <path d="M 72 79.616562 
L 92 79.616562 
" style="fill:none;stroke:#ff0000;stroke-linecap:square;stroke-width:1.5;"/>
    </g>
    <g id="line2d_18"/>
    <g id="text_16">
     <!-- model -->
     <defs>
      <path d="M 45.40625 46.390625 
L 45.40625 75.984375 
L 54.390625 75.984375 
L 54.390625 0 
L 45.40625 0 
L 45.40625 8.203125 
Q 42.578125 3.328125 38.25 0.953125 
Q 33.9375 -1.421875 27.875 -1.421875 
Q 17.96875 -1.421875 11.734375 6.484375 
Q 5.515625 14.40625 5.515625 27.296875 
Q 5.515625 40.1875 11.734375 48.09375 
Q 17.96875 56 27.875 56 
Q 33.9375 56 38.25 53.625 
Q 42.578125 51.265625 45.40625 46.390625 
z
M 14.796875 27.296875 
Q 14.796875 17.390625 18.875 11.75 
Q 22.953125 6.109375 30.078125 6.109375 
Q 37.203125 6.109375 41.296875 11.75 
Q 45.40625 17.390625 45.40625 27.296875 
Q 45.40625 37.203125 41.296875 42.84375 
Q 37.203125 48.484375 30.078125 48.484375 
Q 22.953125 48.484375 18.875 42.84375 
Q 14.796875 37.203125 14.796875 27.296875 
z
" id="DejaVuSans-100"/>
     </defs>
     <g transform="translate(100 83.116562)scale(0.1 -0.1)">
      <use xlink:href="#DejaVuSans-109"/>
      <use x="97.412109" xlink:href="#DejaVuSans-111"/>
      <use x="158.59375" xlink:href="#DejaVuSans-100"/>
      <use x="222.070312" xlink:href="#DejaVuSans-101"/>
      <use x="283.59375" xlink:href="#DejaVuSans-108"/>
     </g>
    </g>
   </g>
  </g>
 </g>
 <defs>
  <clipPath id="p3d04ff38d7">
   <rect height="332.64" width="390.6" x="63" y="51.84"/>
  </clipPath>
 </defs>
</svg>
