<?xml version="1.0" encoding="utf-8" standalone="no"?>
<!DOCTYPE svg PUBLIC "-//W3C//DTD SVG 1.1//EN"
  "http://www.w3.org/Graphics/SVG/1.1/DTD/svg11.dtd">
<!-- Created with matplotlib (https://matplotlib.org/) -->
<svg height="432pt" version="1.1" viewBox="0 0 504 432" width="504pt" xmlns="http://www.w3.org/2000/svg" xmlns:xlink="http://www.w3.org/1999/xlink">
 <defs>
  <style type="text/css">
*{stroke-linecap:butt;stroke-linejoin:round;}
  </style>
 </defs>
 <g id="figure_1">
  <g id="patch_1">
   <path d="M 0 432 
L 504 432 
L 504 0 
L 0 0 
z
" style="fill:#ffffff;"/>
  </g>
  <g id="axes_1">
   <g id="patch_2">
    <path d="M 63 384.48 
L 453.6 384.48 
L 453.6 51.84 
L 63 51.84 
z
" style="fill:#ffffff;"/>
   </g>
   <g id="matplotlib.axis_1">
    <g id="xtick_1">
     <g id="line2d_1">
      <defs>
       <path d="M 0 0 
L 0 3.5 
" id="m77ace24c39" style="stroke:#000000;stroke-width:0.8;"/>
      </defs>
      <g>
       <use style="stroke:#000000;stroke-width:0.8;" x="80.754545" xlink:href="#m77ace24c39" y="384.48"/>
      </g>
     </g>
     <g id="text_1">
      <!-- 0 -->
      <defs>
       <path d="M 31.78125 66.40625 
Q 24.171875 66.40625 20.328125 58.90625 
Q 16.5 51.421875 16.5 36.375 
Q 16.5 21.390625 20.328125 13.890625 
Q 24.171875 6.390625 31.78125 6.390625 
Q 39.453125 6.390625 43.28125 13.890625 
Q 47.125 21.390625 47.125 36.375 
Q 47.125 51.421875 43.28125 58.90625 
Q 39.453125 66.40625 31.78125 66.40625 
z
M 31.78125 74.21875 
Q 44.046875 74.21875 50.515625 64.515625 
Q 56.984375 54.828125 56.984375 36.375 
Q 56.984375 17.96875 50.515625 8.265625 
Q 44.046875 -1.421875 31.78125 -1.421875 
Q 19.53125 -1.421875 13.0625 8.265625 
Q 6.59375 17.96875 6.59375 36.375 
Q 6.59375 54.828125 13.0625 64.515625 
Q 19.53125 74.21875 31.78125 74.21875 
z
" id="DejaVuSans-48"/>
      </defs>
      <g transform="translate(77.573295 399.078438)scale(0.1 -0.1)">
       <use xlink:href="#DejaVuSans-48"/>
      </g>
     </g>
    </g>
    <g id="xtick_2">
     <g id="line2d_2">
      <g>
       <use style="stroke:#000000;stroke-width:0.8;" x="151.767796" xlink:href="#m77ace24c39" y="384.48"/>
      </g>
     </g>
     <g id="text_2">
      <!-- 720 -->
      <defs>
       <path d="M 8.203125 72.90625 
L 55.078125 72.90625 
L 55.078125 68.703125 
L 28.609375 0 
L 18.3125 0 
L 43.21875 64.59375 
L 8.203125 64.59375 
z
" id="DejaVuSans-55"/>
       <path d="M 19.1875 8.296875 
L 53.609375 8.296875 
L 53.609375 0 
L 7.328125 0 
L 7.328125 8.296875 
Q 12.9375 14.109375 22.625 23.890625 
Q 32.328125 33.6875 34.8125 36.53125 
Q 39.546875 41.84375 41.421875 45.53125 
Q 43.3125 49.21875 43.3125 52.78125 
Q 43.3125 58.59375 39.234375 62.25 
Q 35.15625 65.921875 28.609375 65.921875 
Q 23.96875 65.921875 18.8125 64.3125 
Q 13.671875 62.703125 7.8125 59.421875 
L 7.8125 69.390625 
Q 13.765625 71.78125 18.9375 73 
Q 24.125 74.21875 28.421875 74.21875 
Q 39.75 74.21875 46.484375 68.546875 
Q 53.21875 62.890625 53.21875 53.421875 
Q 53.21875 48.921875 51.53125 44.890625 
Q 49.859375 40.875 45.40625 35.40625 
Q 44.1875 33.984375 37.640625 27.21875 
Q 31.109375 20.453125 19.1875 8.296875 
z
" id="DejaVuSans-50"/>
      </defs>
      <g transform="translate(142.224046 399.078438)scale(0.1 -0.1)">
       <use xlink:href="#DejaVuSans-55"/>
       <use x="63.623047" xlink:href="#DejaVuSans-50"/>
       <use x="127.246094" xlink:href="#DejaVuSans-48"/>
      </g>
     </g>
    </g>
    <g id="xtick_3">
     <g id="line2d_3">
      <g>
       <use style="stroke:#000000;stroke-width:0.8;" x="222.781046" xlink:href="#m77ace24c39" y="384.48"/>
      </g>
     </g>
     <g id="text_3">
      <!-- 1440 -->
      <defs>
       <path d="M 12.40625 8.296875 
L 28.515625 8.296875 
L 28.515625 63.921875 
L 10.984375 60.40625 
L 10.984375 69.390625 
L 28.421875 72.90625 
L 38.28125 72.90625 
L 38.28125 8.296875 
L 54.390625 8.296875 
L 54.390625 0 
L 12.40625 0 
z
" id="DejaVuSans-49"/>
       <path d="M 37.796875 64.3125 
L 12.890625 25.390625 
L 37.796875 25.390625 
z
M 35.203125 72.90625 
L 47.609375 72.90625 
L 47.609375 25.390625 
L 58.015625 25.390625 
L 58.015625 17.1875 
L 47.609375 17.1875 
L 47.609375 0 
L 37.796875 0 
L 37.796875 17.1875 
L 4.890625 17.1875 
L 4.890625 26.703125 
z
" id="DejaVuSans-52"/>
      </defs>
      <g transform="translate(210.056046 399.078438)scale(0.1 -0.1)">
       <use xlink:href="#DejaVuSans-49"/>
       <use x="63.623047" xlink:href="#DejaVuSans-52"/>
       <use x="127.246094" xlink:href="#DejaVuSans-52"/>
       <use x="190.869141" xlink:href="#DejaVuSans-48"/>
      </g>
     </g>
    </g>
    <g id="xtick_4">
     <g id="line2d_4">
      <g>
       <use style="stroke:#000000;stroke-width:0.8;" x="293.794296" xlink:href="#m77ace24c39" y="384.48"/>
      </g>
     </g>
     <g id="text_4">
      <!-- 2160 -->
      <defs>
       <path d="M 33.015625 40.375 
Q 26.375 40.375 22.484375 35.828125 
Q 18.609375 31.296875 18.609375 23.390625 
Q 18.609375 15.53125 22.484375 10.953125 
Q 26.375 6.390625 33.015625 6.390625 
Q 39.65625 6.390625 43.53125 10.953125 
Q 47.40625 15.53125 47.40625 23.390625 
Q 47.40625 31.296875 43.53125 35.828125 
Q 39.65625 40.375 33.015625 40.375 
z
M 52.59375 71.296875 
L 52.59375 62.3125 
Q 48.875 64.0625 45.09375 64.984375 
Q 41.3125 65.921875 37.59375 65.921875 
Q 27.828125 65.921875 22.671875 59.328125 
Q 17.53125 52.734375 16.796875 39.40625 
Q 19.671875 43.65625 24.015625 45.921875 
Q 28.375 48.1875 33.59375 48.1875 
Q 44.578125 48.1875 50.953125 41.515625 
Q 57.328125 34.859375 57.328125 23.390625 
Q 57.328125 12.15625 50.6875 5.359375 
Q 44.046875 -1.421875 33.015625 -1.421875 
Q 20.359375 -1.421875 13.671875 8.265625 
Q 6.984375 17.96875 6.984375 36.375 
Q 6.984375 53.65625 15.1875 63.9375 
Q 23.390625 74.21875 37.203125 74.21875 
Q 40.921875 74.21875 44.703125 73.484375 
Q 48.484375 72.75 52.59375 71.296875 
z
" id="DejaVuSans-54"/>
      </defs>
      <g transform="translate(281.069296 399.078438)scale(0.1 -0.1)">
       <use xlink:href="#DejaVuSans-50"/>
       <use x="63.623047" xlink:href="#DejaVuSans-49"/>
       <use x="127.246094" xlink:href="#DejaVuSans-54"/>
       <use x="190.869141" xlink:href="#DejaVuSans-48"/>
      </g>
     </g>
    </g>
    <g id="xtick_5">
     <g id="line2d_5">
      <g>
       <use style="stroke:#000000;stroke-width:0.8;" x="364.807547" xlink:href="#m77ace24c39" y="384.48"/>
      </g>
     </g>
     <g id="text_5">
      <!-- 2880 -->
      <defs>
       <path d="M 31.78125 34.625 
Q 24.75 34.625 20.71875 30.859375 
Q 16.703125 27.09375 16.703125 20.515625 
Q 16.703125 13.921875 20.71875 10.15625 
Q 24.75 6.390625 31.78125 6.390625 
Q 38.8125 6.390625 42.859375 10.171875 
Q 46.921875 13.96875 46.921875 20.515625 
Q 46.921875 27.09375 42.890625 30.859375 
Q 38.875 34.625 31.78125 34.625 
z
M 21.921875 38.8125 
Q 15.578125 40.375 12.03125 44.71875 
Q 8.5 49.078125 8.5 55.328125 
Q 8.5 64.0625 14.71875 69.140625 
Q 20.953125 74.21875 31.78125 74.21875 
Q 42.671875 74.21875 48.875 69.140625 
Q 55.078125 64.0625 55.078125 55.328125 
Q 55.078125 49.078125 51.53125 44.71875 
Q 48 40.375 41.703125 38.8125 
Q 48.828125 37.15625 52.796875 32.3125 
Q 56.78125 27.484375 56.78125 20.515625 
Q 56.78125 9.90625 50.3125 4.234375 
Q 43.84375 -1.421875 31.78125 -1.421875 
Q 19.734375 -1.421875 13.25 4.234375 
Q 6.78125 9.90625 6.78125 20.515625 
Q 6.78125 27.484375 10.78125 32.3125 
Q 14.796875 37.15625 21.921875 38.8125 
z
M 18.3125 54.390625 
Q 18.3125 48.734375 21.84375 45.5625 
Q 25.390625 42.390625 31.78125 42.390625 
Q 38.140625 42.390625 41.71875 45.5625 
Q 45.3125 48.734375 45.3125 54.390625 
Q 45.3125 60.0625 41.71875 63.234375 
Q 38.140625 66.40625 31.78125 66.40625 
Q 25.390625 66.40625 21.84375 63.234375 
Q 18.3125 60.0625 18.3125 54.390625 
z
" id="DejaVuSans-56"/>
      </defs>
      <g transform="translate(352.082547 399.078438)scale(0.1 -0.1)">
       <use xlink:href="#DejaVuSans-50"/>
       <use x="63.623047" xlink:href="#DejaVuSans-56"/>
       <use x="127.246094" xlink:href="#DejaVuSans-56"/>
       <use x="190.869141" xlink:href="#DejaVuSans-48"/>
      </g>
     </g>
    </g>
    <g id="text_6">
     <!-- time [ms] -->
     <defs>
      <path d="M 18.3125 70.21875 
L 18.3125 54.6875 
L 36.8125 54.6875 
L 36.8125 47.703125 
L 18.3125 47.703125 
L 18.3125 18.015625 
Q 18.3125 11.328125 20.140625 9.421875 
Q 21.96875 7.515625 27.59375 7.515625 
L 36.8125 7.515625 
L 36.8125 0 
L 27.59375 0 
Q 17.1875 0 13.234375 3.875 
Q 9.28125 7.765625 9.28125 18.015625 
L 9.28125 47.703125 
L 2.6875 47.703125 
L 2.6875 54.6875 
L 9.28125 54.6875 
L 9.28125 70.21875 
z
" id="DejaVuSans-116"/>
      <path d="M 9.421875 54.6875 
L 18.40625 54.6875 
L 18.40625 0 
L 9.421875 0 
z
M 9.421875 75.984375 
L 18.40625 75.984375 
L 18.40625 64.59375 
L 9.421875 64.59375 
z
" id="DejaVuSans-105"/>
      <path d="M 52 44.1875 
Q 55.375 50.25 60.0625 53.125 
Q 64.75 56 71.09375 56 
Q 79.640625 56 84.28125 50.015625 
Q 88.921875 44.046875 88.921875 33.015625 
L 88.921875 0 
L 79.890625 0 
L 79.890625 32.71875 
Q 79.890625 40.578125 77.09375 44.375 
Q 74.3125 48.1875 68.609375 48.1875 
Q 61.625 48.1875 57.5625 43.546875 
Q 53.515625 38.921875 53.515625 30.90625 
L 53.515625 0 
L 44.484375 0 
L 44.484375 32.71875 
Q 44.484375 40.625 41.703125 44.40625 
Q 38.921875 48.1875 33.109375 48.1875 
Q 26.21875 48.1875 22.15625 43.53125 
Q 18.109375 38.875 18.109375 30.90625 
L 18.109375 0 
L 9.078125 0 
L 9.078125 54.6875 
L 18.109375 54.6875 
L 18.109375 46.1875 
Q 21.1875 51.21875 25.484375 53.609375 
Q 29.78125 56 35.6875 56 
Q 41.65625 56 45.828125 52.96875 
Q 50 49.953125 52 44.1875 
z
" id="DejaVuSans-109"/>
      <path d="M 56.203125 29.59375 
L 56.203125 25.203125 
L 14.890625 25.203125 
Q 15.484375 15.921875 20.484375 11.0625 
Q 25.484375 6.203125 34.421875 6.203125 
Q 39.59375 6.203125 44.453125 7.46875 
Q 49.3125 8.734375 54.109375 11.28125 
L 54.109375 2.78125 
Q 49.265625 0.734375 44.1875 -0.34375 
Q 39.109375 -1.421875 33.890625 -1.421875 
Q 20.796875 -1.421875 13.15625 6.1875 
Q 5.515625 13.8125 5.515625 26.8125 
Q 5.515625 40.234375 12.765625 48.109375 
Q 20.015625 56 32.328125 56 
Q 43.359375 56 49.78125 48.890625 
Q 56.203125 41.796875 56.203125 29.59375 
z
M 47.21875 32.234375 
Q 47.125 39.59375 43.09375 43.984375 
Q 39.0625 48.390625 32.421875 48.390625 
Q 24.90625 48.390625 20.390625 44.140625 
Q 15.875 39.890625 15.1875 32.171875 
z
" id="DejaVuSans-101"/>
      <path id="DejaVuSans-32"/>
      <path d="M 8.59375 75.984375 
L 29.296875 75.984375 
L 29.296875 69 
L 17.578125 69 
L 17.578125 -6.203125 
L 29.296875 -6.203125 
L 29.296875 -13.1875 
L 8.59375 -13.1875 
z
" id="DejaVuSans-91"/>
      <path d="M 44.28125 53.078125 
L 44.28125 44.578125 
Q 40.484375 46.53125 36.375 47.5 
Q 32.28125 48.484375 27.875 48.484375 
Q 21.1875 48.484375 17.84375 46.4375 
Q 14.5 44.390625 14.5 40.28125 
Q 14.5 37.15625 16.890625 35.375 
Q 19.28125 33.59375 26.515625 31.984375 
L 29.59375 31.296875 
Q 39.15625 29.25 43.1875 25.515625 
Q 47.21875 21.78125 47.21875 15.09375 
Q 47.21875 7.46875 41.1875 3.015625 
Q 35.15625 -1.421875 24.609375 -1.421875 
Q 20.21875 -1.421875 15.453125 -0.5625 
Q 10.6875 0.296875 5.421875 2 
L 5.421875 11.28125 
Q 10.40625 8.6875 15.234375 7.390625 
Q 20.0625 6.109375 24.8125 6.109375 
Q 31.15625 6.109375 34.5625 8.28125 
Q 37.984375 10.453125 37.984375 14.40625 
Q 37.984375 18.0625 35.515625 20.015625 
Q 33.0625 21.96875 24.703125 23.78125 
L 21.578125 24.515625 
Q 13.234375 26.265625 9.515625 29.90625 
Q 5.8125 33.546875 5.8125 39.890625 
Q 5.8125 47.609375 11.28125 51.796875 
Q 16.75 56 26.8125 56 
Q 31.78125 56 36.171875 55.265625 
Q 40.578125 54.546875 44.28125 53.078125 
z
" id="DejaVuSans-115"/>
      <path d="M 30.421875 75.984375 
L 30.421875 -13.1875 
L 9.71875 -13.1875 
L 9.71875 -6.203125 
L 21.390625 -6.203125 
L 21.390625 69 
L 9.71875 69 
L 9.71875 75.984375 
z
" id="DejaVuSans-93"/>
     </defs>
     <g transform="translate(234.038281 412.756563)scale(0.1 -0.1)">
      <use xlink:href="#DejaVuSans-116"/>
      <use x="39.208984" xlink:href="#DejaVuSans-105"/>
      <use x="66.992188" xlink:href="#DejaVuSans-109"/>
      <use x="164.404297" xlink:href="#DejaVuSans-101"/>
      <use x="225.927734" xlink:href="#DejaVuSans-32"/>
      <use x="257.714844" xlink:href="#DejaVuSans-91"/>
      <use x="296.728516" xlink:href="#DejaVuSans-109"/>
      <use x="394.140625" xlink:href="#DejaVuSans-115"/>
      <use x="446.240234" xlink:href="#DejaVuSans-93"/>
     </g>
    </g>
   </g>
   <g id="matplotlib.axis_2">
    <g id="ytick_1">
     <g id="line2d_6">
      <defs>
       <path d="M 0 0 
L -3.5 0 
" id="ma0c7306f71" style="stroke:#000000;stroke-width:0.8;"/>
      </defs>
      <g>
       <use style="stroke:#000000;stroke-width:0.8;" x="63" xlink:href="#ma0c7306f71" y="366.015655"/>
      </g>
     </g>
     <g id="text_7">
      <!-- −80 -->
      <defs>
       <path d="M 10.59375 35.5 
L 73.1875 35.5 
L 73.1875 27.203125 
L 10.59375 27.203125 
z
" id="DejaVuSans-8722"/>
      </defs>
      <g transform="translate(34.895313 369.814873)scale(0.1 -0.1)">
       <use xlink:href="#DejaVuSans-8722"/>
       <use x="83.789062" xlink:href="#DejaVuSans-56"/>
       <use x="147.412109" xlink:href="#DejaVuSans-48"/>
      </g>
     </g>
    </g>
    <g id="ytick_2">
     <g id="line2d_7">
      <g>
       <use style="stroke:#000000;stroke-width:0.8;" x="63" xlink:href="#ma0c7306f71" y="315.093486"/>
      </g>
     </g>
     <g id="text_8">
      <!-- −60 -->
      <g transform="translate(34.895313 318.892705)scale(0.1 -0.1)">
       <use xlink:href="#DejaVuSans-8722"/>
       <use x="83.789062" xlink:href="#DejaVuSans-54"/>
       <use x="147.412109" xlink:href="#DejaVuSans-48"/>
      </g>
     </g>
    </g>
    <g id="ytick_3">
     <g id="line2d_8">
      <g>
       <use style="stroke:#000000;stroke-width:0.8;" x="63" xlink:href="#ma0c7306f71" y="264.171318"/>
      </g>
     </g>
     <g id="text_9">
      <!-- −40 -->
      <g transform="translate(34.895313 267.970536)scale(0.1 -0.1)">
       <use xlink:href="#DejaVuSans-8722"/>
       <use x="83.789062" xlink:href="#DejaVuSans-52"/>
       <use x="147.412109" xlink:href="#DejaVuSans-48"/>
      </g>
     </g>
    </g>
    <g id="ytick_4">
     <g id="line2d_9">
      <g>
       <use style="stroke:#000000;stroke-width:0.8;" x="63" xlink:href="#ma0c7306f71" y="213.249149"/>
      </g>
     </g>
     <g id="text_10">
      <!-- −20 -->
      <g transform="translate(34.895313 217.048368)scale(0.1 -0.1)">
       <use xlink:href="#DejaVuSans-8722"/>
       <use x="83.789062" xlink:href="#DejaVuSans-50"/>
       <use x="147.412109" xlink:href="#DejaVuSans-48"/>
      </g>
     </g>
    </g>
    <g id="ytick_5">
     <g id="line2d_10">
      <g>
       <use style="stroke:#000000;stroke-width:0.8;" x="63" xlink:href="#ma0c7306f71" y="162.326981"/>
      </g>
     </g>
     <g id="text_11">
      <!-- 0 -->
      <g transform="translate(49.6375 166.126199)scale(0.1 -0.1)">
       <use xlink:href="#DejaVuSans-48"/>
      </g>
     </g>
    </g>
    <g id="ytick_6">
     <g id="line2d_11">
      <g>
       <use style="stroke:#000000;stroke-width:0.8;" x="63" xlink:href="#ma0c7306f71" y="111.404812"/>
      </g>
     </g>
     <g id="text_12">
      <!-- 20 -->
      <g transform="translate(43.275 115.204031)scale(0.1 -0.1)">
       <use xlink:href="#DejaVuSans-50"/>
       <use x="63.623047" xlink:href="#DejaVuSans-48"/>
      </g>
     </g>
    </g>
    <g id="ytick_7">
     <g id="line2d_12">
      <g>
       <use style="stroke:#000000;stroke-width:0.8;" x="63" xlink:href="#ma0c7306f71" y="60.482644"/>
      </g>
     </g>
     <g id="text_13">
      <!-- 40 -->
      <g transform="translate(43.275 64.281863)scale(0.1 -0.1)">
       <use xlink:href="#DejaVuSans-52"/>
       <use x="63.623047" xlink:href="#DejaVuSans-48"/>
      </g>
     </g>
    </g>
    <g id="text_14">
     <!-- Voltage [mV] -->
     <defs>
      <path d="M 28.609375 0 
L 0.78125 72.90625 
L 11.078125 72.90625 
L 34.1875 11.53125 
L 57.328125 72.90625 
L 67.578125 72.90625 
L 39.796875 0 
z
" id="DejaVuSans-86"/>
      <path d="M 30.609375 48.390625 
Q 23.390625 48.390625 19.1875 42.75 
Q 14.984375 37.109375 14.984375 27.296875 
Q 14.984375 17.484375 19.15625 11.84375 
Q 23.34375 6.203125 30.609375 6.203125 
Q 37.796875 6.203125 41.984375 11.859375 
Q 46.1875 17.53125 46.1875 27.296875 
Q 46.1875 37.015625 41.984375 42.703125 
Q 37.796875 48.390625 30.609375 48.390625 
z
M 30.609375 56 
Q 42.328125 56 49.015625 48.375 
Q 55.71875 40.765625 55.71875 27.296875 
Q 55.71875 13.875 49.015625 6.21875 
Q 42.328125 -1.421875 30.609375 -1.421875 
Q 18.84375 -1.421875 12.171875 6.21875 
Q 5.515625 13.875 5.515625 27.296875 
Q 5.515625 40.765625 12.171875 48.375 
Q 18.84375 56 30.609375 56 
z
" id="DejaVuSans-111"/>
      <path d="M 9.421875 75.984375 
L 18.40625 75.984375 
L 18.40625 0 
L 9.421875 0 
z
" id="DejaVuSans-108"/>
      <path d="M 34.28125 27.484375 
Q 23.390625 27.484375 19.1875 25 
Q 14.984375 22.515625 14.984375 16.5 
Q 14.984375 11.71875 18.140625 8.90625 
Q 21.296875 6.109375 26.703125 6.109375 
Q 34.1875 6.109375 38.703125 11.40625 
Q 43.21875 16.703125 43.21875 25.484375 
L 43.21875 27.484375 
z
M 52.203125 31.203125 
L 52.203125 0 
L 43.21875 0 
L 43.21875 8.296875 
Q 40.140625 3.328125 35.546875 0.953125 
Q 30.953125 -1.421875 24.3125 -1.421875 
Q 15.921875 -1.421875 10.953125 3.296875 
Q 6 8.015625 6 15.921875 
Q 6 25.140625 12.171875 29.828125 
Q 18.359375 34.515625 30.609375 34.515625 
L 43.21875 34.515625 
L 43.21875 35.40625 
Q 43.21875 41.609375 39.140625 45 
Q 35.0625 48.390625 27.6875 48.390625 
Q 23 48.390625 18.546875 47.265625 
Q 14.109375 46.140625 10.015625 43.890625 
L 10.015625 52.203125 
Q 14.9375 54.109375 19.578125 55.046875 
Q 24.21875 56 28.609375 56 
Q 40.484375 56 46.34375 49.84375 
Q 52.203125 43.703125 52.203125 31.203125 
z
" id="DejaVuSans-97"/>
      <path d="M 45.40625 27.984375 
Q 45.40625 37.75 41.375 43.109375 
Q 37.359375 48.484375 30.078125 48.484375 
Q 22.859375 48.484375 18.828125 43.109375 
Q 14.796875 37.75 14.796875 27.984375 
Q 14.796875 18.265625 18.828125 12.890625 
Q 22.859375 7.515625 30.078125 7.515625 
Q 37.359375 7.515625 41.375 12.890625 
Q 45.40625 18.265625 45.40625 27.984375 
z
M 54.390625 6.78125 
Q 54.390625 -7.171875 48.1875 -13.984375 
Q 42 -20.796875 29.203125 -20.796875 
Q 24.46875 -20.796875 20.265625 -20.09375 
Q 16.0625 -19.390625 12.109375 -17.921875 
L 12.109375 -9.1875 
Q 16.0625 -11.328125 19.921875 -12.34375 
Q 23.78125 -13.375 27.78125 -13.375 
Q 36.625 -13.375 41.015625 -8.765625 
Q 45.40625 -4.15625 45.40625 5.171875 
L 45.40625 9.625 
Q 42.625 4.78125 38.28125 2.390625 
Q 33.9375 0 27.875 0 
Q 17.828125 0 11.671875 7.65625 
Q 5.515625 15.328125 5.515625 27.984375 
Q 5.515625 40.671875 11.671875 48.328125 
Q 17.828125 56 27.875 56 
Q 33.9375 56 38.28125 53.609375 
Q 42.625 51.21875 45.40625 46.390625 
L 45.40625 54.6875 
L 54.390625 54.6875 
z
" id="DejaVuSans-103"/>
     </defs>
     <g transform="translate(28.815625 251.079531)rotate(-90)scale(0.1 -0.1)">
      <use xlink:href="#DejaVuSans-86"/>
      <use x="68.298828" xlink:href="#DejaVuSans-111"/>
      <use x="129.480469" xlink:href="#DejaVuSans-108"/>
      <use x="157.263672" xlink:href="#DejaVuSans-116"/>
      <use x="196.472656" xlink:href="#DejaVuSans-97"/>
      <use x="257.751953" xlink:href="#DejaVuSans-103"/>
      <use x="321.228516" xlink:href="#DejaVuSans-101"/>
      <use x="382.751953" xlink:href="#DejaVuSans-32"/>
      <use x="414.539062" xlink:href="#DejaVuSans-91"/>
      <use x="453.552734" xlink:href="#DejaVuSans-109"/>
      <use x="550.964844" xlink:href="#DejaVuSans-86"/>
      <use x="619.373047" xlink:href="#DejaVuSans-93"/>
     </g>
    </g>
   </g>
   <g id="line2d_13">
    <path clip-path="url(#pb8e6de6d1d)" d="M 80.754545 327.824028 
L 81.015914 328.040073 
L 81.750704 328.426797 
L 82.643301 328.622794 
L 84.147401 328.695293 
L 90.444895 328.605848 
L 100.480448 328.569973 
L 100.638256 343.703973 
L 100.983459 354.849488 
L 101.447018 363.298232 
L 101.871124 367.478214 
L 102.216328 369.029177 
L 102.467833 369.357469 
L 102.640435 369.280972 
L 102.877146 368.874731 
L 103.286458 367.64692 
L 104.918776 362.335904 
L 105.535211 361.222253 
L 106.122057 360.592975 
L 106.73356 360.256188 
L 107.458486 360.119762 
L 108.563137 360.167187 
L 112.261744 360.435458 
L 118.657868 360.430717 
L 130.069303 360.428557 
L 130.222178 345.744451 
L 130.547656 335.728864 
L 130.981626 328.625396 
L 131.420527 324.752817 
L 131.839702 322.81624 
L 132.229289 321.942381 
L 132.579424 321.634772 
L 132.919696 321.616439 
L 133.343803 321.838347 
L 134.009552 322.477819 
L 137.027615 325.650827 
L 138.285141 326.522961 
L 139.636366 327.187958 
L 139.932254 327.303244 
L 140.045678 327.925908 
L 140.790331 328.372363 
L 141.62375 328.594571 
L 142.950317 328.69127 
L 146.5355 328.646929 
L 157.049406 328.573216 
L 159.663088 328.569973 
L 159.820896 325.542207 
L 160.166099 323.321479 
L 160.649384 321.558791 
L 161.167189 320.455183 
L 161.714582 319.787782 
L 162.321154 319.394075 
L 163.070738 319.181499 
L 164.175389 319.121586 
L 166.798934 319.2732 
L 171.868491 319.495428 
L 180.212548 319.592247 
L 189.251943 319.610383 
L 189.40975 322.643397 
L 189.754953 324.865691 
L 190.233306 326.606645 
L 190.751111 327.706595 
L 191.293574 328.365233 
L 191.900145 328.756905 
L 192.64973 328.966706 
L 193.759312 329.023408 
L 196.520938 328.863329 
L 199.114894 328.733524 
L 199.119826 327.824028 
L 199.228318 327.925908 
L 199.972971 328.372363 
L 200.80639 328.594571 
L 202.132957 328.69127 
L 205.71814 328.646929 
L 216.232046 328.573216 
L 218.845729 328.569973 
L 219.003536 322.513164 
L 219.348739 318.063069 
L 219.832024 314.504241 
L 220.35476 312.196809 
L 220.897222 310.741529 
L 221.464342 309.822123 
L 222.056119 309.267064 
L 222.69228 308.968064 
L 223.422138 308.875948 
L 224.383776 308.996203 
L 230.020452 310.062343 
L 233.492211 310.282117 
L 239.557927 310.412996 
L 248.434583 310.455891 
L 248.59239 316.594041 
L 248.937593 321.138176 
L 249.406084 324.599196 
L 249.904163 326.752225 
L 250.412105 328.033291 
L 250.92991 328.776369 
L 251.487166 329.199444 
L 252.143053 329.412971 
L 253.050444 329.456356 
L 254.845501 329.27018 
L 258.297534 328.913144 
L 258.302466 327.824028 
L 258.410958 327.925908 
L 259.155611 328.372363 
L 259.98903 328.594571 
L 261.315597 328.69127 
L 264.90078 328.646929 
L 275.414686 328.573216 
L 278.028369 328.569973 
L 278.186176 319.481637 
L 278.536311 312.694633 
L 279.049184 306.869142 
L 279.754385 299.437611 
L 279.76918 293.549957 
L 279.833289 67.80692 
L 279.917124 185.646664 
L 280.099588 323.199999 
L 280.27219 327.133104 
L 280.316573 327.19496 
L 280.365888 327.088053 
L 280.503969 326.136389 
L 280.844241 321.832572 
L 281.74177 310.550844 
L 282.338478 305.882384 
L 283.033816 302.217786 
L 283.551621 299.262393 
L 283.650251 297.137122 
L 283.665045 288.6394 
L 283.729155 73.759684 
L 283.803127 172.03299 
L 284.000386 322.166821 
L 284.172987 326.258309 
L 284.227234 326.359891 
L 284.28148 326.244307 
L 284.424493 325.267225 
L 284.78449 320.850728 
L 285.61791 310.972688 
L 286.194892 306.728568 
L 286.781738 303.972433 
L 287.467213 301.811299 
L 288.463371 298.809096 
L 288.611316 297.379227 
L 288.645836 295.085028 
L 288.680356 196.12314 
L 288.719808 78.053645 
L 288.79378 173.033205 
L 288.991039 320.742623 
L 289.168572 325.261758 
L 289.22775 325.398936 
L 289.281996 325.299459 
L 289.420078 324.42202 
L 289.770212 320.370425 
L 290.603632 311.013585 
L 291.170751 307.091522 
L 291.737871 304.624417 
L 292.349374 302.913003 
L 293.054575 301.589758 
L 294.075391 300.191824 
L 294.805249 299.064768 
L 295.081412 298.211584 
L 295.214561 297.033704 
L 295.249082 295.469065 
L 295.268808 257.600487 
L 295.327985 81.297777 
L 295.406889 182.933234 
L 295.584422 318.443952 
L 295.761955 324.386684 
L 295.84579 324.680992 
L 295.900037 324.588814 
L 296.038118 323.746401 
L 296.388253 319.848132 
L 297.211809 310.990694 
L 297.773997 307.269764 
L 298.336186 304.943506 
L 298.932894 303.37685 
L 299.593712 302.246083 
L 300.372885 301.351761 
L 301.373975 300.552865 
L 303.721357 298.814954 
L 304.012314 298.196509 
L 304.170121 297.315491 
L 304.234231 295.670998 
L 304.249025 284.925665 
L 304.313134 83.460446 
L 304.387106 169.231721 
L 304.589297 319.198197 
L 304.76683 324.171281 
L 304.845734 324.401076 
L 304.895048 324.317223 
L 305.028198 323.539575 
L 305.36847 319.854668 
L 306.206821 310.9933 
L 306.769009 307.364082 
L 307.326266 305.122965 
L 307.617223 304.29988 
L 307.770099 313.072349 
L 308.095576 319.082295 
L 308.549272 323.622053 
L 309.032556 326.405676 
L 309.525704 328.054625 
L 310.023783 329.005239 
L 310.541588 329.539497 
L 311.113639 329.81406 
L 311.838566 329.903668 
L 312.9876 329.792579 
L 317.480174 329.116177 
L 317.485106 327.824028 
L 317.593598 327.925908 
L 318.338251 328.372363 
L 319.171671 328.594571 
L 320.498237 328.69127 
L 324.08342 328.646929 
L 334.597327 328.573216 
L 337.211009 328.569973 
L 337.368816 316.446016 
L 337.723882 307.164981 
L 338.266345 294.809614 
L 338.281139 278.435746 
L 338.340317 67.393556 
L 338.414289 170.843371 
L 338.616479 321.996826 
L 338.774287 324.557671 
L 338.779218 324.556347 
L 338.838396 324.371499 
L 338.996203 322.865085 
L 339.395652 316.30229 
L 340.258661 302.761372 
L 340.830712 293.948841 
L 340.875095 289.958496 
L 340.904684 206.706024 
L 340.944136 73.117198 
L 341.018108 171.706202 
L 341.215367 320.764801 
L 341.383037 324.131818 
L 341.407695 324.133915 
L 341.442215 324.046033 
L 341.570433 323.066775 
L 341.876185 318.595319 
L 342.926589 302.60552 
L 343.607133 293.276814 
L 343.651516 288.838321 
L 343.686036 168.462984 
L 343.720557 78.030466 
L 343.794529 173.09901 
L 343.986856 319.061848 
L 344.154527 323.131682 
L 344.189047 323.173885 
L 344.238362 323.048721 
L 344.376443 321.931658 
L 344.721646 316.84007 
L 345.633969 303.491185 
L 346.501909 292.339958 
L 346.536429 285.888554 
L 346.60547 81.696696 
L 346.684374 185.871607 
L 346.856975 316.891172 
L 347.029577 322.34198 
L 347.078892 322.461278 
L 347.133138 322.334743 
L 347.271219 321.240871 
L 347.621354 316.203986 
L 348.50902 303.640447 
L 349.470657 291.738436 
L 349.495315 287.810936 
L 349.564355 84.246396 
L 349.658053 212.256847 
L 349.815861 315.649599 
L 349.988462 321.758765 
L 350.052571 321.95011 
L 350.106818 321.818651 
L 350.249831 320.681678 
L 350.609828 315.555698 
L 351.467905 303.719526 
L 352.48872 291.473585 
L 352.513378 285.69637 
L 352.582419 85.859627 
L 352.661322 183.414688 
L 352.833924 315.004346 
L 353.006525 321.259015 
L 353.075566 321.488101 
L 353.129812 321.363982 
L 353.272825 320.255529 
L 353.632823 315.231724 
L 354.485968 303.701708 
L 355.541304 291.266608 
L 355.565961 282.561129 
L 355.630071 87.340089 
L 355.704043 170.386929 
L 355.901302 315.935679 
L 356.078835 321.054446 
L 356.133081 321.181763 
L 356.187327 321.057517 
L 356.33034 319.960158 
L 356.690338 314.995885 
L 357.538552 303.686598 
L 358.613613 291.24494 
L 358.638271 282.710694 
L 358.70238 88.173899 
L 358.776352 169.949667 
L 358.973611 315.466726 
L 359.151144 320.773308 
L 359.210322 320.9277 
L 359.264568 320.806501 
L 359.407581 319.723628 
L 359.767579 314.813138 
L 360.615792 303.632051 
L 361.695786 291.487852 
L 361.720443 287.243912 
L 361.789484 88.540884 
L 361.883182 210.176763 
L 362.04592 313.891948 
L 362.223454 320.50961 
L 362.297426 320.786866 
L 362.351672 320.679358 
L 362.489753 319.675534 
L 362.834957 315.058657 
L 363.712759 303.536936 
L 364.792752 291.457508 
L 364.81741 286.964778 
L 364.88645 88.822566 
L 364.975217 199.755306 
L 365.137956 313.132191 
L 365.315489 320.307118 
L 365.399324 320.647038 
L 365.448639 320.550564 
L 365.581789 319.618809 
L 365.912197 315.288276 
L 366.799863 303.631712 
L 366.952739 314.210107 
L 367.253559 319.970368 
L 367.682597 324.202511 
L 368.16095 326.880958 
L 368.649166 328.4516 
L 369.142314 329.347129 
L 369.650256 329.836714 
L 370.217376 330.078851 
L 370.947234 330.135351 
L 372.13572 329.972876 
L 376.662814 329.194992 
L 376.667746 327.824028 
L 376.776238 327.925908 
L 377.520891 328.372363 
L 378.354311 328.594571 
L 379.680878 328.69127 
L 383.26606 328.646929 
L 393.779967 328.573216 
L 396.393649 328.569973 
L 396.551456 313.403864 
L 396.926248 300.823789 
L 397.128439 292.122729 
L 397.143233 275.012036 
L 397.197479 66.96 
L 397.276383 173.114049 
L 397.478573 320.144199 
L 397.60186 322.033174 
L 397.631449 321.981195 
L 397.73501 321.173173 
L 397.991447 317.002009 
L 399.17007 291.710958 
L 399.219384 286.317165 
L 399.248973 193.080785 
L 399.283494 73.026699 
L 399.357466 167.871314 
L 399.554725 319.104935 
L 399.7076 321.969169 
L 399.717463 321.962202 
L 399.781573 321.679769 
L 399.954174 319.618501 
L 400.398007 310.890403 
L 401.394165 287.749497 
L 401.413891 256.510232 
L 401.468137 77.814301 
L 401.547041 180.013208 
L 401.724574 316.920138 
L 401.887313 321.0774 
L 401.907039 321.085135 
L 401.94649 320.973116 
L 402.074709 319.811002 
L 402.385392 314.481975 
L 403.608398 288.367505 
L 403.628124 278.159228 
L 403.692233 81.839717 
L 403.766205 177.020091 
L 403.94867 315.968654 
L 404.11634 320.331933 
L 404.136066 320.345082 
L 404.175517 320.245568 
L 404.298804 319.188786 
L 404.599624 314.22035 
L 405.857151 287.997504 
L 405.876877 272.873955 
L 405.936054 84.390908 
L 406.010026 169.936098 
L 406.207285 315.760418 
L 406.374956 319.702403 
L 406.394682 319.710818 
L 406.434133 319.60688 
L 406.562352 318.498981 
L 406.873035 313.392786 
L 408.12563 287.439989 
L 408.145355 260.207914 
L 408.204533 86.275035 
L 408.278505 174.815604 
L 408.465901 314.4918 
L 408.633572 319.245739 
L 408.66316 319.293675 
L 408.717407 319.144744 
L 408.860419 317.799697 
L 409.215486 311.768645 
L 410.403971 287.594275 
L 410.423697 264.916857 
L 410.482875 87.54917 
L 410.556847 172.186181 
L 410.749175 314.084006 
L 410.921776 318.827996 
L 410.951365 318.866631 
L 411.00068 318.733517 
L 411.138761 317.489241 
L 411.479033 311.867434 
L 412.692176 287.311498 
L 412.711902 259.125778 
L 412.77108 88.364591 
L 412.845052 174.402275 
L 413.032448 313.378334 
L 413.20505 318.59606 
L 413.244501 318.666003 
L 413.293816 318.530922 
L 413.431897 317.29385 
L 413.772169 311.71337 
L 414.985312 287.731044 
L 415.005038 270.220723 
L 415.069147 88.966352 
L 415.138188 169.313408 
L 415.335447 313.496472 
L 415.508049 318.308164 
L 415.542569 318.364492 
L 415.591884 318.237707 
L 415.725034 317.083765 
L 416.055442 311.781199 
L 417.28338 287.757405 
L 417.303106 271.449436 
L 417.367215 89.267448 
L 417.436256 168.693963 
L 417.633515 313.206809 
L 417.806116 318.149478 
L 417.845568 318.218196 
L 417.894883 318.086417 
L 418.032964 316.871131 
L 418.373236 311.37981 
L 419.586379 287.677697 
L 419.606105 269.215569 
L 419.670214 89.614733 
L 419.739255 169.52951 
L 419.936514 313.013553 
L 420.109116 317.989658 
L 420.148567 318.065484 
L 420.202814 317.91859 
L 420.345826 316.626442 
L 420.700893 310.8471 
L 421.889378 287.789676 
L 421.909104 272.67627 
L 421.973213 89.628708 
L 422.042254 168.104992 
L 422.239513 312.832507 
L 422.412115 317.933409 
L 422.456498 318.02052 
L 422.505813 317.888723 
L 422.643894 316.682472 
L 422.984166 311.231678 
L 424.197309 287.696597 
L 424.217035 269.936397 
L 424.281144 89.826622 
L 424.350185 169.157436 
L 424.547444 312.732182 
L 424.720045 317.817554 
L 424.764429 317.90668 
L 424.818675 317.753846 
L 424.961688 316.459688 
L 425.321685 310.617698 
L 425.982503 299.38618 
L 426.135379 312.367193 
L 426.426336 318.927948 
L 426.845511 323.657875 
L 427.314002 326.633241 
L 427.802218 328.413156 
L 428.290434 329.41834 
L 428.788513 329.968019 
L 429.330975 330.242636 
L 430.001656 330.322646 
L 431.022471 330.195116 
L 435.845455 329.269693 
L 435.845455 329.269693 
" style="fill:none;stroke:#ff0000;stroke-linecap:square;stroke-width:1.5;"/>
   </g>
   <g id="patch_3">
    <path d="M 63 384.48 
L 63 51.84 
" style="fill:none;stroke:#000000;stroke-linecap:square;stroke-linejoin:miter;stroke-width:0.8;"/>
   </g>
   <g id="patch_4">
    <path d="M 453.6 384.48 
L 453.6 51.84 
" style="fill:none;stroke:#000000;stroke-linecap:square;stroke-linejoin:miter;stroke-width:0.8;"/>
   </g>
   <g id="patch_5">
    <path d="M 63 384.48 
L 453.6 384.48 
" style="fill:none;stroke:#000000;stroke-linecap:square;stroke-linejoin:miter;stroke-width:0.8;"/>
   </g>
   <g id="patch_6">
    <path d="M 63 51.84 
L 453.6 51.84 
" style="fill:none;stroke:#000000;stroke-linecap:square;stroke-linejoin:miter;stroke-width:0.8;"/>
   </g>
   <g id="legend_1">
    <g id="patch_7">
     <path d="M 70 74.518125 
L 133.139062 74.518125 
Q 135.139062 74.518125 135.139062 72.518125 
L 135.139062 58.84 
Q 135.139062 56.84 133.139062 56.84 
L 70 56.84 
Q 68 56.84 68 58.84 
L 68 72.518125 
Q 68 74.518125 70 74.518125 
z
" style="fill:#ffffff;opacity:0.8;stroke:#cccccc;stroke-linejoin:miter;"/>
    </g>
    <g id="line2d_14">
     <path d="M 72 64.938438 
L 92 64.938438 
" style="fill:none;stroke:#ff0000;stroke-linecap:square;stroke-width:1.5;"/>
    </g>
    <g id="line2d_15"/>
    <g id="text_15">
     <!-- model -->
     <defs>
      <path d="M 45.40625 46.390625 
L 45.40625 75.984375 
L 54.390625 75.984375 
L 54.390625 0 
L 45.40625 0 
L 45.40625 8.203125 
Q 42.578125 3.328125 38.25 0.953125 
Q 33.9375 -1.421875 27.875 -1.421875 
Q 17.96875 -1.421875 11.734375 6.484375 
Q 5.515625 14.40625 5.515625 27.296875 
Q 5.515625 40.1875 11.734375 48.09375 
Q 17.96875 56 27.875 56 
Q 33.9375 56 38.25 53.625 
Q 42.578125 51.265625 45.40625 46.390625 
z
M 14.796875 27.296875 
Q 14.796875 17.390625 18.875 11.75 
Q 22.953125 6.109375 30.078125 6.109375 
Q 37.203125 6.109375 41.296875 11.75 
Q 45.40625 17.390625 45.40625 27.296875 
Q 45.40625 37.203125 41.296875 42.84375 
Q 37.203125 48.484375 30.078125 48.484375 
Q 22.953125 48.484375 18.875 42.84375 
Q 14.796875 37.203125 14.796875 27.296875 
z
" id="DejaVuSans-100"/>
     </defs>
     <g transform="translate(100 68.438438)scale(0.1 -0.1)">
      <use xlink:href="#DejaVuSans-109"/>
      <use x="97.412109" xlink:href="#DejaVuSans-111"/>
      <use x="158.59375" xlink:href="#DejaVuSans-100"/>
      <use x="222.070312" xlink:href="#DejaVuSans-101"/>
      <use x="283.59375" xlink:href="#DejaVuSans-108"/>
     </g>
    </g>
   </g>
  </g>
 </g>
 <defs>
  <clipPath id="pb8e6de6d1d">
   <rect height="332.64" width="390.6" x="63" y="51.84"/>
  </clipPath>
 </defs>
</svg>
