<?xml version="1.0" encoding="utf-8" standalone="no"?>
<!DOCTYPE svg PUBLIC "-//W3C//DTD SVG 1.1//EN"
  "http://www.w3.org/Graphics/SVG/1.1/DTD/svg11.dtd">
<!-- Created with matplotlib (https://matplotlib.org/) -->
<svg height="432pt" version="1.1" viewBox="0 0 504 432" width="504pt" xmlns="http://www.w3.org/2000/svg" xmlns:xlink="http://www.w3.org/1999/xlink">
 <defs>
  <style type="text/css">
*{stroke-linecap:butt;stroke-linejoin:round;}
  </style>
 </defs>
 <g id="figure_1">
  <g id="patch_1">
   <path d="M 0 432 
L 504 432 
L 504 0 
L 0 0 
z
" style="fill:#ffffff;"/>
  </g>
  <g id="axes_1">
   <g id="patch_2">
    <path d="M 63 384.48 
L 453.6 384.48 
L 453.6 51.84 
L 63 51.84 
z
" style="fill:#ffffff;"/>
   </g>
   <g id="matplotlib.axis_1">
    <g id="xtick_1">
     <g id="line2d_1">
      <defs>
       <path d="M 0 0 
L 0 3.5 
" id="mc97fd105ac" style="stroke:#000000;stroke-width:0.8;"/>
      </defs>
      <g>
       <use style="stroke:#000000;stroke-width:0.8;" x="80.754545" xlink:href="#mc97fd105ac" y="384.48"/>
      </g>
     </g>
     <g id="text_1">
      <!-- 0 -->
      <defs>
       <path d="M 31.78125 66.40625 
Q 24.171875 66.40625 20.328125 58.90625 
Q 16.5 51.421875 16.5 36.375 
Q 16.5 21.390625 20.328125 13.890625 
Q 24.171875 6.390625 31.78125 6.390625 
Q 39.453125 6.390625 43.28125 13.890625 
Q 47.125 21.390625 47.125 36.375 
Q 47.125 51.421875 43.28125 58.90625 
Q 39.453125 66.40625 31.78125 66.40625 
z
M 31.78125 74.21875 
Q 44.046875 74.21875 50.515625 64.515625 
Q 56.984375 54.828125 56.984375 36.375 
Q 56.984375 17.96875 50.515625 8.265625 
Q 44.046875 -1.421875 31.78125 -1.421875 
Q 19.53125 -1.421875 13.0625 8.265625 
Q 6.59375 17.96875 6.59375 36.375 
Q 6.59375 54.828125 13.0625 64.515625 
Q 19.53125 74.21875 31.78125 74.21875 
z
" id="DejaVuSans-48"/>
      </defs>
      <g transform="translate(77.573295 399.078438)scale(0.1 -0.1)">
       <use xlink:href="#DejaVuSans-48"/>
      </g>
     </g>
    </g>
    <g id="xtick_2">
     <g id="line2d_2">
      <g>
       <use style="stroke:#000000;stroke-width:0.8;" x="151.767796" xlink:href="#mc97fd105ac" y="384.48"/>
      </g>
     </g>
     <g id="text_2">
      <!-- 720 -->
      <defs>
       <path d="M 8.203125 72.90625 
L 55.078125 72.90625 
L 55.078125 68.703125 
L 28.609375 0 
L 18.3125 0 
L 43.21875 64.59375 
L 8.203125 64.59375 
z
" id="DejaVuSans-55"/>
       <path d="M 19.1875 8.296875 
L 53.609375 8.296875 
L 53.609375 0 
L 7.328125 0 
L 7.328125 8.296875 
Q 12.9375 14.109375 22.625 23.890625 
Q 32.328125 33.6875 34.8125 36.53125 
Q 39.546875 41.84375 41.421875 45.53125 
Q 43.3125 49.21875 43.3125 52.78125 
Q 43.3125 58.59375 39.234375 62.25 
Q 35.15625 65.921875 28.609375 65.921875 
Q 23.96875 65.921875 18.8125 64.3125 
Q 13.671875 62.703125 7.8125 59.421875 
L 7.8125 69.390625 
Q 13.765625 71.78125 18.9375 73 
Q 24.125 74.21875 28.421875 74.21875 
Q 39.75 74.21875 46.484375 68.546875 
Q 53.21875 62.890625 53.21875 53.421875 
Q 53.21875 48.921875 51.53125 44.890625 
Q 49.859375 40.875 45.40625 35.40625 
Q 44.1875 33.984375 37.640625 27.21875 
Q 31.109375 20.453125 19.1875 8.296875 
z
" id="DejaVuSans-50"/>
      </defs>
      <g transform="translate(142.224046 399.078438)scale(0.1 -0.1)">
       <use xlink:href="#DejaVuSans-55"/>
       <use x="63.623047" xlink:href="#DejaVuSans-50"/>
       <use x="127.246094" xlink:href="#DejaVuSans-48"/>
      </g>
     </g>
    </g>
    <g id="xtick_3">
     <g id="line2d_3">
      <g>
       <use style="stroke:#000000;stroke-width:0.8;" x="222.781046" xlink:href="#mc97fd105ac" y="384.48"/>
      </g>
     </g>
     <g id="text_3">
      <!-- 1440 -->
      <defs>
       <path d="M 12.40625 8.296875 
L 28.515625 8.296875 
L 28.515625 63.921875 
L 10.984375 60.40625 
L 10.984375 69.390625 
L 28.421875 72.90625 
L 38.28125 72.90625 
L 38.28125 8.296875 
L 54.390625 8.296875 
L 54.390625 0 
L 12.40625 0 
z
" id="DejaVuSans-49"/>
       <path d="M 37.796875 64.3125 
L 12.890625 25.390625 
L 37.796875 25.390625 
z
M 35.203125 72.90625 
L 47.609375 72.90625 
L 47.609375 25.390625 
L 58.015625 25.390625 
L 58.015625 17.1875 
L 47.609375 17.1875 
L 47.609375 0 
L 37.796875 0 
L 37.796875 17.1875 
L 4.890625 17.1875 
L 4.890625 26.703125 
z
" id="DejaVuSans-52"/>
      </defs>
      <g transform="translate(210.056046 399.078438)scale(0.1 -0.1)">
       <use xlink:href="#DejaVuSans-49"/>
       <use x="63.623047" xlink:href="#DejaVuSans-52"/>
       <use x="127.246094" xlink:href="#DejaVuSans-52"/>
       <use x="190.869141" xlink:href="#DejaVuSans-48"/>
      </g>
     </g>
    </g>
    <g id="xtick_4">
     <g id="line2d_4">
      <g>
       <use style="stroke:#000000;stroke-width:0.8;" x="293.794296" xlink:href="#mc97fd105ac" y="384.48"/>
      </g>
     </g>
     <g id="text_4">
      <!-- 2160 -->
      <defs>
       <path d="M 33.015625 40.375 
Q 26.375 40.375 22.484375 35.828125 
Q 18.609375 31.296875 18.609375 23.390625 
Q 18.609375 15.53125 22.484375 10.953125 
Q 26.375 6.390625 33.015625 6.390625 
Q 39.65625 6.390625 43.53125 10.953125 
Q 47.40625 15.53125 47.40625 23.390625 
Q 47.40625 31.296875 43.53125 35.828125 
Q 39.65625 40.375 33.015625 40.375 
z
M 52.59375 71.296875 
L 52.59375 62.3125 
Q 48.875 64.0625 45.09375 64.984375 
Q 41.3125 65.921875 37.59375 65.921875 
Q 27.828125 65.921875 22.671875 59.328125 
Q 17.53125 52.734375 16.796875 39.40625 
Q 19.671875 43.65625 24.015625 45.921875 
Q 28.375 48.1875 33.59375 48.1875 
Q 44.578125 48.1875 50.953125 41.515625 
Q 57.328125 34.859375 57.328125 23.390625 
Q 57.328125 12.15625 50.6875 5.359375 
Q 44.046875 -1.421875 33.015625 -1.421875 
Q 20.359375 -1.421875 13.671875 8.265625 
Q 6.984375 17.96875 6.984375 36.375 
Q 6.984375 53.65625 15.1875 63.9375 
Q 23.390625 74.21875 37.203125 74.21875 
Q 40.921875 74.21875 44.703125 73.484375 
Q 48.484375 72.75 52.59375 71.296875 
z
" id="DejaVuSans-54"/>
      </defs>
      <g transform="translate(281.069296 399.078438)scale(0.1 -0.1)">
       <use xlink:href="#DejaVuSans-50"/>
       <use x="63.623047" xlink:href="#DejaVuSans-49"/>
       <use x="127.246094" xlink:href="#DejaVuSans-54"/>
       <use x="190.869141" xlink:href="#DejaVuSans-48"/>
      </g>
     </g>
    </g>
    <g id="xtick_5">
     <g id="line2d_5">
      <g>
       <use style="stroke:#000000;stroke-width:0.8;" x="364.807547" xlink:href="#mc97fd105ac" y="384.48"/>
      </g>
     </g>
     <g id="text_5">
      <!-- 2880 -->
      <defs>
       <path d="M 31.78125 34.625 
Q 24.75 34.625 20.71875 30.859375 
Q 16.703125 27.09375 16.703125 20.515625 
Q 16.703125 13.921875 20.71875 10.15625 
Q 24.75 6.390625 31.78125 6.390625 
Q 38.8125 6.390625 42.859375 10.171875 
Q 46.921875 13.96875 46.921875 20.515625 
Q 46.921875 27.09375 42.890625 30.859375 
Q 38.875 34.625 31.78125 34.625 
z
M 21.921875 38.8125 
Q 15.578125 40.375 12.03125 44.71875 
Q 8.5 49.078125 8.5 55.328125 
Q 8.5 64.0625 14.71875 69.140625 
Q 20.953125 74.21875 31.78125 74.21875 
Q 42.671875 74.21875 48.875 69.140625 
Q 55.078125 64.0625 55.078125 55.328125 
Q 55.078125 49.078125 51.53125 44.71875 
Q 48 40.375 41.703125 38.8125 
Q 48.828125 37.15625 52.796875 32.3125 
Q 56.78125 27.484375 56.78125 20.515625 
Q 56.78125 9.90625 50.3125 4.234375 
Q 43.84375 -1.421875 31.78125 -1.421875 
Q 19.734375 -1.421875 13.25 4.234375 
Q 6.78125 9.90625 6.78125 20.515625 
Q 6.78125 27.484375 10.78125 32.3125 
Q 14.796875 37.15625 21.921875 38.8125 
z
M 18.3125 54.390625 
Q 18.3125 48.734375 21.84375 45.5625 
Q 25.390625 42.390625 31.78125 42.390625 
Q 38.140625 42.390625 41.71875 45.5625 
Q 45.3125 48.734375 45.3125 54.390625 
Q 45.3125 60.0625 41.71875 63.234375 
Q 38.140625 66.40625 31.78125 66.40625 
Q 25.390625 66.40625 21.84375 63.234375 
Q 18.3125 60.0625 18.3125 54.390625 
z
" id="DejaVuSans-56"/>
      </defs>
      <g transform="translate(352.082547 399.078438)scale(0.1 -0.1)">
       <use xlink:href="#DejaVuSans-50"/>
       <use x="63.623047" xlink:href="#DejaVuSans-56"/>
       <use x="127.246094" xlink:href="#DejaVuSans-56"/>
       <use x="190.869141" xlink:href="#DejaVuSans-48"/>
      </g>
     </g>
    </g>
    <g id="text_6">
     <!-- time [ms] -->
     <defs>
      <path d="M 18.3125 70.21875 
L 18.3125 54.6875 
L 36.8125 54.6875 
L 36.8125 47.703125 
L 18.3125 47.703125 
L 18.3125 18.015625 
Q 18.3125 11.328125 20.140625 9.421875 
Q 21.96875 7.515625 27.59375 7.515625 
L 36.8125 7.515625 
L 36.8125 0 
L 27.59375 0 
Q 17.1875 0 13.234375 3.875 
Q 9.28125 7.765625 9.28125 18.015625 
L 9.28125 47.703125 
L 2.6875 47.703125 
L 2.6875 54.6875 
L 9.28125 54.6875 
L 9.28125 70.21875 
z
" id="DejaVuSans-116"/>
      <path d="M 9.421875 54.6875 
L 18.40625 54.6875 
L 18.40625 0 
L 9.421875 0 
z
M 9.421875 75.984375 
L 18.40625 75.984375 
L 18.40625 64.59375 
L 9.421875 64.59375 
z
" id="DejaVuSans-105"/>
      <path d="M 52 44.1875 
Q 55.375 50.25 60.0625 53.125 
Q 64.75 56 71.09375 56 
Q 79.640625 56 84.28125 50.015625 
Q 88.921875 44.046875 88.921875 33.015625 
L 88.921875 0 
L 79.890625 0 
L 79.890625 32.71875 
Q 79.890625 40.578125 77.09375 44.375 
Q 74.3125 48.1875 68.609375 48.1875 
Q 61.625 48.1875 57.5625 43.546875 
Q 53.515625 38.921875 53.515625 30.90625 
L 53.515625 0 
L 44.484375 0 
L 44.484375 32.71875 
Q 44.484375 40.625 41.703125 44.40625 
Q 38.921875 48.1875 33.109375 48.1875 
Q 26.21875 48.1875 22.15625 43.53125 
Q 18.109375 38.875 18.109375 30.90625 
L 18.109375 0 
L 9.078125 0 
L 9.078125 54.6875 
L 18.109375 54.6875 
L 18.109375 46.1875 
Q 21.1875 51.21875 25.484375 53.609375 
Q 29.78125 56 35.6875 56 
Q 41.65625 56 45.828125 52.96875 
Q 50 49.953125 52 44.1875 
z
" id="DejaVuSans-109"/>
      <path d="M 56.203125 29.59375 
L 56.203125 25.203125 
L 14.890625 25.203125 
Q 15.484375 15.921875 20.484375 11.0625 
Q 25.484375 6.203125 34.421875 6.203125 
Q 39.59375 6.203125 44.453125 7.46875 
Q 49.3125 8.734375 54.109375 11.28125 
L 54.109375 2.78125 
Q 49.265625 0.734375 44.1875 -0.34375 
Q 39.109375 -1.421875 33.890625 -1.421875 
Q 20.796875 -1.421875 13.15625 6.1875 
Q 5.515625 13.8125 5.515625 26.8125 
Q 5.515625 40.234375 12.765625 48.109375 
Q 20.015625 56 32.328125 56 
Q 43.359375 56 49.78125 48.890625 
Q 56.203125 41.796875 56.203125 29.59375 
z
M 47.21875 32.234375 
Q 47.125 39.59375 43.09375 43.984375 
Q 39.0625 48.390625 32.421875 48.390625 
Q 24.90625 48.390625 20.390625 44.140625 
Q 15.875 39.890625 15.1875 32.171875 
z
" id="DejaVuSans-101"/>
      <path id="DejaVuSans-32"/>
      <path d="M 8.59375 75.984375 
L 29.296875 75.984375 
L 29.296875 69 
L 17.578125 69 
L 17.578125 -6.203125 
L 29.296875 -6.203125 
L 29.296875 -13.1875 
L 8.59375 -13.1875 
z
" id="DejaVuSans-91"/>
      <path d="M 44.28125 53.078125 
L 44.28125 44.578125 
Q 40.484375 46.53125 36.375 47.5 
Q 32.28125 48.484375 27.875 48.484375 
Q 21.1875 48.484375 17.84375 46.4375 
Q 14.5 44.390625 14.5 40.28125 
Q 14.5 37.15625 16.890625 35.375 
Q 19.28125 33.59375 26.515625 31.984375 
L 29.59375 31.296875 
Q 39.15625 29.25 43.1875 25.515625 
Q 47.21875 21.78125 47.21875 15.09375 
Q 47.21875 7.46875 41.1875 3.015625 
Q 35.15625 -1.421875 24.609375 -1.421875 
Q 20.21875 -1.421875 15.453125 -0.5625 
Q 10.6875 0.296875 5.421875 2 
L 5.421875 11.28125 
Q 10.40625 8.6875 15.234375 7.390625 
Q 20.0625 6.109375 24.8125 6.109375 
Q 31.15625 6.109375 34.5625 8.28125 
Q 37.984375 10.453125 37.984375 14.40625 
Q 37.984375 18.0625 35.515625 20.015625 
Q 33.0625 21.96875 24.703125 23.78125 
L 21.578125 24.515625 
Q 13.234375 26.265625 9.515625 29.90625 
Q 5.8125 33.546875 5.8125 39.890625 
Q 5.8125 47.609375 11.28125 51.796875 
Q 16.75 56 26.8125 56 
Q 31.78125 56 36.171875 55.265625 
Q 40.578125 54.546875 44.28125 53.078125 
z
" id="DejaVuSans-115"/>
      <path d="M 30.421875 75.984375 
L 30.421875 -13.1875 
L 9.71875 -13.1875 
L 9.71875 -6.203125 
L 21.390625 -6.203125 
L 21.390625 69 
L 9.71875 69 
L 9.71875 75.984375 
z
" id="DejaVuSans-93"/>
     </defs>
     <g transform="translate(234.038281 412.756563)scale(0.1 -0.1)">
      <use xlink:href="#DejaVuSans-116"/>
      <use x="39.208984" xlink:href="#DejaVuSans-105"/>
      <use x="66.992188" xlink:href="#DejaVuSans-109"/>
      <use x="164.404297" xlink:href="#DejaVuSans-101"/>
      <use x="225.927734" xlink:href="#DejaVuSans-32"/>
      <use x="257.714844" xlink:href="#DejaVuSans-91"/>
      <use x="296.728516" xlink:href="#DejaVuSans-109"/>
      <use x="394.140625" xlink:href="#DejaVuSans-115"/>
      <use x="446.240234" xlink:href="#DejaVuSans-93"/>
     </g>
    </g>
   </g>
   <g id="matplotlib.axis_2">
    <g id="ytick_1">
     <g id="line2d_6">
      <defs>
       <path d="M 0 0 
L -3.5 0 
" id="m1d1465041e" style="stroke:#000000;stroke-width:0.8;"/>
      </defs>
      <g>
       <use style="stroke:#000000;stroke-width:0.8;" x="63" xlink:href="#m1d1465041e" y="370.17093"/>
      </g>
     </g>
     <g id="text_7">
      <!-- −80 -->
      <defs>
       <path d="M 10.59375 35.5 
L 73.1875 35.5 
L 73.1875 27.203125 
L 10.59375 27.203125 
z
" id="DejaVuSans-8722"/>
      </defs>
      <g transform="translate(34.895313 373.970149)scale(0.1 -0.1)">
       <use xlink:href="#DejaVuSans-8722"/>
       <use x="83.789062" xlink:href="#DejaVuSans-56"/>
       <use x="147.412109" xlink:href="#DejaVuSans-48"/>
      </g>
     </g>
    </g>
    <g id="ytick_2">
     <g id="line2d_7">
      <g>
       <use style="stroke:#000000;stroke-width:0.8;" x="63" xlink:href="#m1d1465041e" y="315.711988"/>
      </g>
     </g>
     <g id="text_8">
      <!-- −60 -->
      <g transform="translate(34.895313 319.511206)scale(0.1 -0.1)">
       <use xlink:href="#DejaVuSans-8722"/>
       <use x="83.789062" xlink:href="#DejaVuSans-54"/>
       <use x="147.412109" xlink:href="#DejaVuSans-48"/>
      </g>
     </g>
    </g>
    <g id="ytick_3">
     <g id="line2d_8">
      <g>
       <use style="stroke:#000000;stroke-width:0.8;" x="63" xlink:href="#m1d1465041e" y="261.253045"/>
      </g>
     </g>
     <g id="text_9">
      <!-- −40 -->
      <g transform="translate(34.895313 265.052264)scale(0.1 -0.1)">
       <use xlink:href="#DejaVuSans-8722"/>
       <use x="83.789062" xlink:href="#DejaVuSans-52"/>
       <use x="147.412109" xlink:href="#DejaVuSans-48"/>
      </g>
     </g>
    </g>
    <g id="ytick_4">
     <g id="line2d_9">
      <g>
       <use style="stroke:#000000;stroke-width:0.8;" x="63" xlink:href="#m1d1465041e" y="206.794103"/>
      </g>
     </g>
     <g id="text_10">
      <!-- −20 -->
      <g transform="translate(34.895313 210.593322)scale(0.1 -0.1)">
       <use xlink:href="#DejaVuSans-8722"/>
       <use x="83.789062" xlink:href="#DejaVuSans-50"/>
       <use x="147.412109" xlink:href="#DejaVuSans-48"/>
      </g>
     </g>
    </g>
    <g id="ytick_5">
     <g id="line2d_10">
      <g>
       <use style="stroke:#000000;stroke-width:0.8;" x="63" xlink:href="#m1d1465041e" y="152.335161"/>
      </g>
     </g>
     <g id="text_11">
      <!-- 0 -->
      <g transform="translate(49.6375 156.134379)scale(0.1 -0.1)">
       <use xlink:href="#DejaVuSans-48"/>
      </g>
     </g>
    </g>
    <g id="ytick_6">
     <g id="line2d_11">
      <g>
       <use style="stroke:#000000;stroke-width:0.8;" x="63" xlink:href="#m1d1465041e" y="97.876218"/>
      </g>
     </g>
     <g id="text_12">
      <!-- 20 -->
      <g transform="translate(43.275 101.675437)scale(0.1 -0.1)">
       <use xlink:href="#DejaVuSans-50"/>
       <use x="63.623047" xlink:href="#DejaVuSans-48"/>
      </g>
     </g>
    </g>
    <g id="text_13">
     <!-- Voltage [mV] -->
     <defs>
      <path d="M 28.609375 0 
L 0.78125 72.90625 
L 11.078125 72.90625 
L 34.1875 11.53125 
L 57.328125 72.90625 
L 67.578125 72.90625 
L 39.796875 0 
z
" id="DejaVuSans-86"/>
      <path d="M 30.609375 48.390625 
Q 23.390625 48.390625 19.1875 42.75 
Q 14.984375 37.109375 14.984375 27.296875 
Q 14.984375 17.484375 19.15625 11.84375 
Q 23.34375 6.203125 30.609375 6.203125 
Q 37.796875 6.203125 41.984375 11.859375 
Q 46.1875 17.53125 46.1875 27.296875 
Q 46.1875 37.015625 41.984375 42.703125 
Q 37.796875 48.390625 30.609375 48.390625 
z
M 30.609375 56 
Q 42.328125 56 49.015625 48.375 
Q 55.71875 40.765625 55.71875 27.296875 
Q 55.71875 13.875 49.015625 6.21875 
Q 42.328125 -1.421875 30.609375 -1.421875 
Q 18.84375 -1.421875 12.171875 6.21875 
Q 5.515625 13.875 5.515625 27.296875 
Q 5.515625 40.765625 12.171875 48.375 
Q 18.84375 56 30.609375 56 
z
" id="DejaVuSans-111"/>
      <path d="M 9.421875 75.984375 
L 18.40625 75.984375 
L 18.40625 0 
L 9.421875 0 
z
" id="DejaVuSans-108"/>
      <path d="M 34.28125 27.484375 
Q 23.390625 27.484375 19.1875 25 
Q 14.984375 22.515625 14.984375 16.5 
Q 14.984375 11.71875 18.140625 8.90625 
Q 21.296875 6.109375 26.703125 6.109375 
Q 34.1875 6.109375 38.703125 11.40625 
Q 43.21875 16.703125 43.21875 25.484375 
L 43.21875 27.484375 
z
M 52.203125 31.203125 
L 52.203125 0 
L 43.21875 0 
L 43.21875 8.296875 
Q 40.140625 3.328125 35.546875 0.953125 
Q 30.953125 -1.421875 24.3125 -1.421875 
Q 15.921875 -1.421875 10.953125 3.296875 
Q 6 8.015625 6 15.921875 
Q 6 25.140625 12.171875 29.828125 
Q 18.359375 34.515625 30.609375 34.515625 
L 43.21875 34.515625 
L 43.21875 35.40625 
Q 43.21875 41.609375 39.140625 45 
Q 35.0625 48.390625 27.6875 48.390625 
Q 23 48.390625 18.546875 47.265625 
Q 14.109375 46.140625 10.015625 43.890625 
L 10.015625 52.203125 
Q 14.9375 54.109375 19.578125 55.046875 
Q 24.21875 56 28.609375 56 
Q 40.484375 56 46.34375 49.84375 
Q 52.203125 43.703125 52.203125 31.203125 
z
" id="DejaVuSans-97"/>
      <path d="M 45.40625 27.984375 
Q 45.40625 37.75 41.375 43.109375 
Q 37.359375 48.484375 30.078125 48.484375 
Q 22.859375 48.484375 18.828125 43.109375 
Q 14.796875 37.75 14.796875 27.984375 
Q 14.796875 18.265625 18.828125 12.890625 
Q 22.859375 7.515625 30.078125 7.515625 
Q 37.359375 7.515625 41.375 12.890625 
Q 45.40625 18.265625 45.40625 27.984375 
z
M 54.390625 6.78125 
Q 54.390625 -7.171875 48.1875 -13.984375 
Q 42 -20.796875 29.203125 -20.796875 
Q 24.46875 -20.796875 20.265625 -20.09375 
Q 16.0625 -19.390625 12.109375 -17.921875 
L 12.109375 -9.1875 
Q 16.0625 -11.328125 19.921875 -12.34375 
Q 23.78125 -13.375 27.78125 -13.375 
Q 36.625 -13.375 41.015625 -8.765625 
Q 45.40625 -4.15625 45.40625 5.171875 
L 45.40625 9.625 
Q 42.625 4.78125 38.28125 2.390625 
Q 33.9375 0 27.875 0 
Q 17.828125 0 11.671875 7.65625 
Q 5.515625 15.328125 5.515625 27.984375 
Q 5.515625 40.671875 11.671875 48.328125 
Q 17.828125 56 27.875 56 
Q 33.9375 56 38.28125 53.609375 
Q 42.625 51.21875 45.40625 46.390625 
L 45.40625 54.6875 
L 54.390625 54.6875 
z
" id="DejaVuSans-103"/>
     </defs>
     <g transform="translate(28.815625 251.079531)rotate(-90)scale(0.1 -0.1)">
      <use xlink:href="#DejaVuSans-86"/>
      <use x="68.298828" xlink:href="#DejaVuSans-111"/>
      <use x="129.480469" xlink:href="#DejaVuSans-108"/>
      <use x="157.263672" xlink:href="#DejaVuSans-116"/>
      <use x="196.472656" xlink:href="#DejaVuSans-97"/>
      <use x="257.751953" xlink:href="#DejaVuSans-103"/>
      <use x="321.228516" xlink:href="#DejaVuSans-101"/>
      <use x="382.751953" xlink:href="#DejaVuSans-32"/>
      <use x="414.539062" xlink:href="#DejaVuSans-91"/>
      <use x="453.552734" xlink:href="#DejaVuSans-109"/>
      <use x="550.964844" xlink:href="#DejaVuSans-86"/>
      <use x="619.373047" xlink:href="#DejaVuSans-93"/>
     </g>
    </g>
   </g>
   <g id="line2d_12">
    <path clip-path="url(#paffdc1722a)" d="M 80.754545 329.326723 
L 81.232899 331.050706 
L 81.721115 332.098054 
L 82.224125 332.679214 
L 82.786313 332.994644 
L 83.521103 333.139392 
L 84.783561 333.126472 
L 91.490368 332.845563 
L 100.480448 332.802177 
L 100.633324 348.546305 
L 100.958801 359.22833 
L 101.358251 365.921241 
L 101.708386 368.640273 
L 101.974685 369.329366 
L 102.137424 369.321383 
L 102.329752 369.004402 
L 102.670024 367.916237 
L 104.317136 362.035614 
L 104.899051 360.985758 
L 105.46617 360.394917 
L 106.082605 360.070239 
L 106.861778 359.925241 
L 108.222865 359.93918 
L 112.606947 360.041518 
L 130.069303 360.035094 
L 130.222178 344.600935 
L 130.532861 335.178732 
L 130.922448 329.428802 
L 131.307103 326.66068 
L 131.667101 325.480571 
L 131.982715 325.093316 
L 132.268741 325.060476 
L 132.613944 325.267383 
L 133.171201 325.90229 
L 136.090634 329.587822 
L 137.2446 330.526762 
L 138.477469 331.242914 
L 139.873076 331.792286 
L 139.932254 331.810819 
L 139.937186 329.326723 
L 140.045678 329.763516 
L 140.583209 331.481743 
L 141.071425 332.334921 
L 141.58923 332.810643 
L 142.195801 333.062147 
L 143.048947 333.15452 
L 144.844004 333.068504 
L 149.385893 332.868243 
L 157.527759 332.805004 
L 159.663088 332.802177 
L 159.815964 329.652559 
L 160.141442 327.511078 
L 160.575411 326.007089 
L 161.03897 325.138681 
L 161.537049 324.654821 
L 162.123895 324.398389 
L 162.94252 324.303623 
L 164.584701 324.388116 
L 169.269603 324.64377 
L 176.227915 324.734234 
L 189.251943 324.751925 
L 189.404818 327.906805 
L 189.730296 330.059814 
L 190.169197 331.59581 
L 190.637687 332.484762 
L 191.130835 332.970052 
L 191.702886 333.221347 
L 192.486991 333.305505 
L 194.045337 333.198898 
L 198.049695 332.925494 
L 199.114894 332.891025 
L 199.119826 329.326723 
L 199.228318 329.763516 
L 199.765849 331.481743 
L 200.254065 332.334921 
L 200.77187 332.810643 
L 201.378442 333.062147 
L 202.231587 333.15452 
L 204.026644 333.068504 
L 208.568533 332.868243 
L 216.7104 332.805004 
L 218.845729 332.802177 
L 218.998604 326.50227 
L 219.324082 322.215863 
L 219.758052 319.193785 
L 220.22161 317.408222 
L 220.709826 316.355435 
L 221.247357 315.703092 
L 221.95749 315.208446 
L 222.716937 314.652454 
L 222.869813 314.26208 
L 222.889539 313.28641 
L 222.909265 278.57389 
L 222.968442 72.330504 
L 223.042414 202.104522 
L 223.200222 327.337315 
L 223.377755 334.555517 
L 223.525699 335.308085 
L 223.550356 335.288179 
L 223.648986 334.941745 
L 223.875834 333.104236 
L 225.202401 320.813689 
L 225.710343 318.580781 
L 226.213353 317.296583 
L 226.741021 316.527174 
L 227.332798 316.0497 
L 228.077451 315.742962 
L 229.152513 315.558522 
L 230.799626 315.516131 
L 232.78701 315.689358 
L 236.29329 316.024088 
L 240.366689 316.097178 
L 248.434583 316.092258 
L 248.587459 322.433852 
L 248.912936 326.804522 
L 249.351837 329.958851 
L 249.810465 331.78456 
L 250.274023 332.787883 
L 250.747445 333.314866 
L 251.270181 333.570637 
L 251.955656 333.643686 
L 253.178662 333.509974 
L 256.768777 333.071331 
L 258.297534 332.978005 
L 258.302466 329.326723 
L 258.410958 329.763516 
L 258.948489 331.481743 
L 259.436705 332.334921 
L 259.95451 332.810643 
L 260.561082 333.062147 
L 261.414227 333.15452 
L 263.209284 333.068504 
L 267.751173 332.868243 
L 275.89304 332.805004 
L 278.028369 332.802177 
L 278.181244 323.350548 
L 278.506722 316.902328 
L 278.950555 312.194692 
L 279.517674 308.573385 
L 279.680413 307.111262 
L 279.695207 303.459124 
L 279.734659 168.948104 
L 279.764248 69.662862 
L 279.83822 197.275675 
L 279.996027 325.548267 
L 280.168629 331.83997 
L 280.262327 332.203708 
L 280.311642 332.114026 
L 280.444792 331.259507 
L 280.750543 327.486347 
L 281.697387 315.486668 
L 282.239849 311.511795 
L 282.861215 308.617395 
L 283.102857 307.095185 
L 283.117652 304.959393 
L 283.157103 191.110384 
L 283.191624 79.040577 
L 283.265596 204.504499 
L 283.423403 323.464622 
L 283.600936 330.703074 
L 283.71436 331.248149 
L 283.753812 331.197997 
L 283.867236 330.607971 
L 284.128604 327.762647 
L 285.243118 314.581575 
L 285.780648 311.160304 
L 286.411877 308.599991 
L 286.658451 307.229165 
L 286.673246 305.848466 
L 286.702834 237.866671 
L 286.752149 85.386404 
L 286.82119 194.277653 
L 286.983929 321.504297 
L 287.161462 329.486701 
L 287.294611 330.215472 
L 287.3242 330.185504 
L 287.427761 329.725763 
L 287.664472 327.389157 
L 288.89241 313.827918 
L 289.425009 310.825631 
L 290.100621 308.35634 
L 290.292949 307.264309 
L 290.307743 305.978038 
L 290.337332 239.381914 
L 290.386647 90.301681 
L 290.460619 203.140709 
L 290.623358 320.192724 
L 290.800891 328.610978 
L 290.948835 329.492922 
L 290.973492 329.471221 
L 291.06719 329.104192 
L 291.284175 327.134585 
L 292.625537 313.142117 
L 293.163068 310.441966 
L 293.981693 307.050056 
L 293.996487 301.148046 
L 294.070459 94.38944 
L 294.154294 227.812746 
L 294.317033 320.303305 
L 294.499498 328.092549 
L 294.647442 328.933997 
L 294.672099 328.913244 
L 294.765797 328.556916 
L 294.982782 326.636158 
L 296.314281 313.086175 
L 296.851811 310.442749 
L 297.690162 307.025208 
L 297.709888 292.527558 
L 297.778929 96.887648 
L 297.843038 187.083656 
L 298.005777 316.723724 
L 298.188241 327.286847 
L 298.365774 328.570446 
L 298.370706 328.569216 
L 298.439747 328.414549 
L 298.602485 327.302695 
L 299.036455 322.291916 
L 299.741656 315.040964 
L 300.279187 311.661846 
L 300.841375 309.482282 
L 301.398632 307.384383 
L 301.418358 306.217356 
L 301.443015 254.221436 
L 301.497262 98.474191 
L 301.571234 199.892518 
L 301.733972 316.719635 
L 301.916437 326.891366 
L 302.098902 328.217126 
L 302.163011 328.094438 
L 302.315887 327.127593 
L 302.705473 322.792681 
L 303.455057 315.063388 
L 303.99752 311.667342 
L 304.559708 309.501415 
L 305.126828 307.397941 
L 305.146554 306.387422 
L 305.166279 271.644578 
L 305.230389 99.740627 
L 305.299429 198.873048 
L 305.4671 316.739195 
L 305.649564 326.654677 
L 305.832029 328.007445 
L 305.83696 328.006662 
L 305.906001 327.860415 
L 306.063808 326.824891 
L 306.487915 322.083002 
L 307.202979 314.898289 
L 307.617223 312.218584 
L 307.770099 320.972029 
L 308.07585 325.984246 
L 308.495026 329.46937 
L 308.948721 331.528249 
L 309.407349 332.662166 
L 309.875839 333.269053 
L 310.383781 333.574192 
L 311.019941 333.68665 
L 312.05062 333.611815 
L 316.967301 333.054801 
L 317.480174 333.026158 
L 317.485106 329.326723 
L 317.593598 329.763516 
L 318.131129 331.481743 
L 318.619345 332.334921 
L 319.13715 332.810643 
L 319.743722 333.062147 
L 320.596867 333.15452 
L 322.391924 333.068504 
L 326.933813 332.868243 
L 335.07568 332.805004 
L 337.211009 332.802177 
L 337.363884 320.196456 
L 337.689362 311.538389 
L 338.197304 303.906153 
L 338.345248 300.844872 
L 338.360043 292.470102 
L 338.41922 68.182161 
L 338.493192 188.64983 
L 338.651 323.614197 
L 338.823601 329.281301 
L 338.877847 329.410454 
L 338.932094 329.270388 
L 339.075107 328.066162 
L 339.410447 322.848346 
L 340.307975 308.85555 
L 341.003314 301.983652 
L 341.166052 299.362902 
L 341.180847 295.699481 
L 341.22523 121.709967 
L 341.249887 76.979419 
L 341.318928 192.076087 
L 341.476735 321.414373 
L 341.649337 328.198034 
L 341.72824 328.504488 
L 341.782487 328.384152 
L 341.920568 327.303762 
L 342.241114 322.564439 
L 343.1633 308.73992 
L 343.809323 302.743651 
L 344.055897 299.706772 
L 344.075623 294.785445 
L 344.144664 83.626879 
L 344.228499 225.672071 
L 344.386306 320.994752 
L 344.563839 327.198898 
L 344.642743 327.472847 
L 344.692057 327.369364 
L 344.825207 326.393249 
L 345.13589 322.013118 
L 346.072871 308.507506 
L 346.713962 302.833473 
L 346.975331 299.905218 
L 346.995057 297.313682 
L 347.034508 176.420206 
L 347.069029 88.538089 
L 347.138069 194.826431 
L 347.300808 318.292879 
L 347.478341 326.133138 
L 347.581902 326.624944 
L 347.626285 326.542784 
L 347.749572 325.720178 
L 348.035598 321.935261 
L 349.041619 307.967107 
L 349.702437 302.40725 
L 349.91449 299.939585 
L 349.934216 297.006687 
L 349.973668 176.64442 
L 350.008188 92.108003 
L 350.077229 194.779622 
L 350.239968 316.763733 
L 350.417501 325.28293 
L 350.535856 325.942152 
L 350.575308 325.880242 
L 350.688732 325.197976 
L 350.955032 321.885509 
L 352.039956 307.344373 
L 352.878307 298.661206 
L 352.902964 243.239018 
L 352.957211 94.835987 
L 353.026251 196.574469 
L 353.18899 315.836019 
L 353.366523 324.800665 
L 353.494742 325.558402 
L 353.529262 325.508001 
L 353.637754 324.897412 
L 353.88926 321.89568 
L 355.038293 306.864444 
L 355.82733 299.385882 
L 355.842124 289.250643 
L 355.906233 96.753644 
L 355.975274 187.769966 
L 356.138013 314.440708 
L 356.315546 324.34334 
L 356.453627 325.285734 
L 356.483216 325.254277 
L 356.581845 324.768474 
L 356.808693 322.24751 
L 358.110603 305.831157 
L 358.781283 299.642742 
L 358.796078 293.411437 
L 358.865119 97.79254 
L 358.944022 213.122329 
L 359.106761 315.346037 
L 359.289225 324.143828 
L 359.417444 324.933462 
L 359.451964 324.893414 
L 359.555525 324.354729 
L 359.797167 321.607694 
L 361.005379 306.341608 
L 361.7451 299.033694 
L 361.764826 261.678232 
L 361.824004 98.571491 
L 361.893045 193.376239 
L 362.055783 313.564027 
L 362.238248 323.711859 
L 362.381261 324.715843 
L 362.405918 324.695718 
L 362.494685 324.316794 
L 362.701807 322.204361 
L 364.171386 304.655535 
L 364.694123 299.875456 
L 364.708917 297.262983 
L 364.748369 182.316234 
L 364.782889 99.149951 
L 364.85193 193.455031 
L 365.014669 313.155279 
L 365.197133 323.48907 
L 365.345078 324.556405 
L 365.369735 324.535466 
L 365.458502 324.155803 
L 365.665624 322.050816 
L 366.799863 307.421577 
L 366.804794 308.737535 
L 366.972465 319.421637 
L 367.278216 325.216452 
L 367.687529 329.102232 
L 368.131361 331.385213 
L 368.585057 332.657923 
L 369.043684 333.336779 
L 369.531901 333.680212 
L 370.118746 333.815408 
L 371.006412 333.766172 
L 376.662814 333.062496 
L 376.667746 329.326723 
L 376.776238 329.763516 
L 377.313769 331.481743 
L 377.801985 332.334921 
L 378.31979 332.810643 
L 378.926362 333.062147 
L 379.779507 333.15452 
L 381.574564 333.068504 
L 386.116453 332.868243 
L 394.25832 332.805004 
L 396.393649 332.802177 
L 396.546525 317.038579 
L 396.881865 305.799047 
L 397.236931 295.04504 
L 397.261589 234.289105 
L 397.305972 66.96 
L 397.379944 195.873744 
L 397.53282 321.654724 
L 397.70049 326.665862 
L 397.725147 326.695938 
L 397.774462 326.559081 
L 397.907612 325.310006 
L 398.218295 319.813792 
L 399.268699 300.408345 
L 399.613902 293.663319 
L 399.648423 288.475426 
L 399.712532 75.427196 
L 399.796367 222.236653 
L 399.949243 320.46169 
L 400.116913 325.702364 
L 400.156365 325.790818 
L 400.210611 325.649461 
L 400.348692 324.3749 
L 400.669238 318.800702 
L 401.660465 301.06622 
L 402.084572 293.455337 
L 402.114161 289.709432 
L 402.153612 146.372682 
L 402.183201 82.037279 
L 402.252242 192.451022 
L 402.414981 318.264763 
L 402.587582 324.523124 
L 402.641829 324.682224 
L 402.696075 324.542064 
L 402.834156 323.297816 
L 403.154702 317.873781 
L 404.126203 301.077569 
L 404.574967 293.308254 
L 404.604556 287.209644 
L 404.668665 86.911262 
L 404.747569 208.467595 
L 404.910307 317.286253 
L 405.082909 323.566241 
L 405.142087 323.766134 
L 405.201264 323.617277 
L 405.339346 322.381225 
L 405.664823 316.972473 
L 406.611666 301.063865 
L 407.070294 293.452573 
L 407.099883 289.722701 
L 407.144266 131.678485 
L 407.168923 90.56793 
L 407.237964 189.627035 
L 407.400703 314.910352 
L 407.573304 322.759615 
L 407.657139 323.150583 
L 407.706454 323.041238 
L 407.834672 322.000151 
L 408.135492 317.252929 
L 409.161239 300.397034 
L 409.575483 293.537878 
L 409.605072 290.498673 
L 409.639593 191.464677 
L 409.674113 93.268681 
L 409.748085 196.979762 
L 409.910824 314.19171 
L 410.083425 322.158547 
L 410.172192 322.599756 
L 410.221507 322.497078 
L 410.349725 321.482751 
L 410.645614 316.912825 
L 411.686155 300.138153 
L 412.085605 293.54552 
L 412.115193 290.506486 
L 412.149714 192.118076 
L 412.184234 95.15022 
L 412.258206 196.73569 
L 412.420945 313.283459 
L 412.598478 321.776905 
L 412.692176 322.253565 
L 412.741491 322.146956 
L 412.869709 321.131288 
L 413.170529 316.504808 
L 414.191345 300.208396 
L 414.595726 293.677355 
L 414.630246 289.405786 
L 414.699287 96.477458 
L 414.788053 228.434223 
L 414.950792 314.627972 
L 415.128325 321.680859 
L 415.21216 322.054563 
L 415.261475 321.951036 
L 415.389693 320.943636 
L 415.690513 316.340276 
L 416.706397 300.206635 
L 417.11571 293.510298 
L 417.145299 289.669886 
L 417.194613 120.855085 
L 417.214339 97.291423 
L 417.278448 177.237484 
L 417.441187 310.970001 
L 417.61872 321.05049 
L 417.732144 321.796591 
L 417.771596 321.733289 
L 417.880089 321.011613 
L 418.136525 317.425404 
L 419.408846 297.773381 
L 419.635694 293.339143 
L 419.660351 290.292054 
L 419.699803 166.234602 
L 419.729392 97.829697 
L 419.803364 197.866155 
L 419.966103 311.756619 
L 420.143636 320.88691 
L 420.252128 321.557079 
L 420.296512 321.478843 
L 420.414867 320.633751 
L 420.69103 316.637494 
L 421.825269 299.065707 
L 422.145815 293.609945 
L 422.180335 287.436221 
L 422.249376 98.539262 
L 422.323348 205.549129 
L 422.491018 312.513933 
L 422.673483 320.877678 
L 422.772112 321.411868 
L 422.821427 321.314859 
L 422.944714 320.38617 
L 423.235671 316.083211 
L 424.295938 299.643343 
L 424.660868 293.669415 
L 424.695388 288.766943 
L 424.764429 98.794192 
L 424.848264 221.311034 
L 425.011002 312.757056 
L 425.193467 320.863012 
L 425.292097 321.386041 
L 425.341411 321.286258 
L 425.46963 320.299614 
L 425.77045 315.787128 
L 425.982503 312.032028 
L 425.987435 313.646295 
L 426.150173 325.163773 
L 426.416473 329.509394 
L 426.761676 331.851361 
L 427.1414 333.034003 
L 427.550712 333.633747 
L 428.014271 333.928728 
L 428.601117 334.026762 
L 429.528234 333.927173 
L 434.252588 333.182849 
L 435.845455 333.068218 
L 435.845455 333.068218 
" style="fill:none;stroke:#ff0000;stroke-linecap:square;stroke-width:1.5;"/>
   </g>
   <g id="patch_3">
    <path d="M 63 384.48 
L 63 51.84 
" style="fill:none;stroke:#000000;stroke-linecap:square;stroke-linejoin:miter;stroke-width:0.8;"/>
   </g>
   <g id="patch_4">
    <path d="M 453.6 384.48 
L 453.6 51.84 
" style="fill:none;stroke:#000000;stroke-linecap:square;stroke-linejoin:miter;stroke-width:0.8;"/>
   </g>
   <g id="patch_5">
    <path d="M 63 384.48 
L 453.6 384.48 
" style="fill:none;stroke:#000000;stroke-linecap:square;stroke-linejoin:miter;stroke-width:0.8;"/>
   </g>
   <g id="patch_6">
    <path d="M 63 51.84 
L 453.6 51.84 
" style="fill:none;stroke:#000000;stroke-linecap:square;stroke-linejoin:miter;stroke-width:0.8;"/>
   </g>
   <g id="legend_1">
    <g id="patch_7">
     <path d="M 70 74.518125 
L 133.139062 74.518125 
Q 135.139062 74.518125 135.139062 72.518125 
L 135.139062 58.84 
Q 135.139062 56.84 133.139062 56.84 
L 70 56.84 
Q 68 56.84 68 58.84 
L 68 72.518125 
Q 68 74.518125 70 74.518125 
z
" style="fill:#ffffff;opacity:0.8;stroke:#cccccc;stroke-linejoin:miter;"/>
    </g>
    <g id="line2d_13">
     <path d="M 72 64.938438 
L 92 64.938438 
" style="fill:none;stroke:#ff0000;stroke-linecap:square;stroke-width:1.5;"/>
    </g>
    <g id="line2d_14"/>
    <g id="text_14">
     <!-- model -->
     <defs>
      <path d="M 45.40625 46.390625 
L 45.40625 75.984375 
L 54.390625 75.984375 
L 54.390625 0 
L 45.40625 0 
L 45.40625 8.203125 
Q 42.578125 3.328125 38.25 0.953125 
Q 33.9375 -1.421875 27.875 -1.421875 
Q 17.96875 -1.421875 11.734375 6.484375 
Q 5.515625 14.40625 5.515625 27.296875 
Q 5.515625 40.1875 11.734375 48.09375 
Q 17.96875 56 27.875 56 
Q 33.9375 56 38.25 53.625 
Q 42.578125 51.265625 45.40625 46.390625 
z
M 14.796875 27.296875 
Q 14.796875 17.390625 18.875 11.75 
Q 22.953125 6.109375 30.078125 6.109375 
Q 37.203125 6.109375 41.296875 11.75 
Q 45.40625 17.390625 45.40625 27.296875 
Q 45.40625 37.203125 41.296875 42.84375 
Q 37.203125 48.484375 30.078125 48.484375 
Q 22.953125 48.484375 18.875 42.84375 
Q 14.796875 37.203125 14.796875 27.296875 
z
" id="DejaVuSans-100"/>
     </defs>
     <g transform="translate(100 68.438438)scale(0.1 -0.1)">
      <use xlink:href="#DejaVuSans-109"/>
      <use x="97.412109" xlink:href="#DejaVuSans-111"/>
      <use x="158.59375" xlink:href="#DejaVuSans-100"/>
      <use x="222.070312" xlink:href="#DejaVuSans-101"/>
      <use x="283.59375" xlink:href="#DejaVuSans-108"/>
     </g>
    </g>
   </g>
  </g>
 </g>
 <defs>
  <clipPath id="paffdc1722a">
   <rect height="332.64" width="390.6" x="63" y="51.84"/>
  </clipPath>
 </defs>
</svg>
