<?xml version="1.0" encoding="utf-8" standalone="no"?>
<!DOCTYPE svg PUBLIC "-//W3C//DTD SVG 1.1//EN"
  "http://www.w3.org/Graphics/SVG/1.1/DTD/svg11.dtd">
<!-- Created with matplotlib (https://matplotlib.org/) -->
<svg height="432pt" version="1.1" viewBox="0 0 504 432" width="504pt" xmlns="http://www.w3.org/2000/svg" xmlns:xlink="http://www.w3.org/1999/xlink">
 <defs>
  <style type="text/css">
*{stroke-linecap:butt;stroke-linejoin:round;}
  </style>
 </defs>
 <g id="figure_1">
  <g id="patch_1">
   <path d="M 0 432 
L 504 432 
L 504 0 
L 0 0 
z
" style="fill:#ffffff;"/>
  </g>
  <g id="axes_1">
   <g id="patch_2">
    <path d="M 63 384.48 
L 453.6 384.48 
L 453.6 51.84 
L 63 51.84 
z
" style="fill:#ffffff;"/>
   </g>
   <g id="matplotlib.axis_1">
    <g id="xtick_1">
     <g id="line2d_1">
      <defs>
       <path d="M 0 0 
L 0 3.5 
" id="m8112bf71fd" style="stroke:#000000;stroke-width:0.8;"/>
      </defs>
      <g>
       <use style="stroke:#000000;stroke-width:0.8;" x="80.754545" xlink:href="#m8112bf71fd" y="384.48"/>
      </g>
     </g>
     <g id="text_1">
      <!-- 0 -->
      <defs>
       <path d="M 31.78125 66.40625 
Q 24.171875 66.40625 20.328125 58.90625 
Q 16.5 51.421875 16.5 36.375 
Q 16.5 21.390625 20.328125 13.890625 
Q 24.171875 6.390625 31.78125 6.390625 
Q 39.453125 6.390625 43.28125 13.890625 
Q 47.125 21.390625 47.125 36.375 
Q 47.125 51.421875 43.28125 58.90625 
Q 39.453125 66.40625 31.78125 66.40625 
z
M 31.78125 74.21875 
Q 44.046875 74.21875 50.515625 64.515625 
Q 56.984375 54.828125 56.984375 36.375 
Q 56.984375 17.96875 50.515625 8.265625 
Q 44.046875 -1.421875 31.78125 -1.421875 
Q 19.53125 -1.421875 13.0625 8.265625 
Q 6.59375 17.96875 6.59375 36.375 
Q 6.59375 54.828125 13.0625 64.515625 
Q 19.53125 74.21875 31.78125 74.21875 
z
" id="DejaVuSans-48"/>
      </defs>
      <g transform="translate(77.573295 399.078438)scale(0.1 -0.1)">
       <use xlink:href="#DejaVuSans-48"/>
      </g>
     </g>
    </g>
    <g id="xtick_2">
     <g id="line2d_2">
      <g>
       <use style="stroke:#000000;stroke-width:0.8;" x="151.772727" xlink:href="#m8112bf71fd" y="384.48"/>
      </g>
     </g>
     <g id="text_2">
      <!-- 200 -->
      <defs>
       <path d="M 19.1875 8.296875 
L 53.609375 8.296875 
L 53.609375 0 
L 7.328125 0 
L 7.328125 8.296875 
Q 12.9375 14.109375 22.625 23.890625 
Q 32.328125 33.6875 34.8125 36.53125 
Q 39.546875 41.84375 41.421875 45.53125 
Q 43.3125 49.21875 43.3125 52.78125 
Q 43.3125 58.59375 39.234375 62.25 
Q 35.15625 65.921875 28.609375 65.921875 
Q 23.96875 65.921875 18.8125 64.3125 
Q 13.671875 62.703125 7.8125 59.421875 
L 7.8125 69.390625 
Q 13.765625 71.78125 18.9375 73 
Q 24.125 74.21875 28.421875 74.21875 
Q 39.75 74.21875 46.484375 68.546875 
Q 53.21875 62.890625 53.21875 53.421875 
Q 53.21875 48.921875 51.53125 44.890625 
Q 49.859375 40.875 45.40625 35.40625 
Q 44.1875 33.984375 37.640625 27.21875 
Q 31.109375 20.453125 19.1875 8.296875 
z
" id="DejaVuSans-50"/>
      </defs>
      <g transform="translate(142.228977 399.078438)scale(0.1 -0.1)">
       <use xlink:href="#DejaVuSans-50"/>
       <use x="63.623047" xlink:href="#DejaVuSans-48"/>
       <use x="127.246094" xlink:href="#DejaVuSans-48"/>
      </g>
     </g>
    </g>
    <g id="xtick_3">
     <g id="line2d_3">
      <g>
       <use style="stroke:#000000;stroke-width:0.8;" x="222.790909" xlink:href="#m8112bf71fd" y="384.48"/>
      </g>
     </g>
     <g id="text_3">
      <!-- 400 -->
      <defs>
       <path d="M 37.796875 64.3125 
L 12.890625 25.390625 
L 37.796875 25.390625 
z
M 35.203125 72.90625 
L 47.609375 72.90625 
L 47.609375 25.390625 
L 58.015625 25.390625 
L 58.015625 17.1875 
L 47.609375 17.1875 
L 47.609375 0 
L 37.796875 0 
L 37.796875 17.1875 
L 4.890625 17.1875 
L 4.890625 26.703125 
z
" id="DejaVuSans-52"/>
      </defs>
      <g transform="translate(213.247159 399.078438)scale(0.1 -0.1)">
       <use xlink:href="#DejaVuSans-52"/>
       <use x="63.623047" xlink:href="#DejaVuSans-48"/>
       <use x="127.246094" xlink:href="#DejaVuSans-48"/>
      </g>
     </g>
    </g>
    <g id="xtick_4">
     <g id="line2d_4">
      <g>
       <use style="stroke:#000000;stroke-width:0.8;" x="293.809091" xlink:href="#m8112bf71fd" y="384.48"/>
      </g>
     </g>
     <g id="text_4">
      <!-- 600 -->
      <defs>
       <path d="M 33.015625 40.375 
Q 26.375 40.375 22.484375 35.828125 
Q 18.609375 31.296875 18.609375 23.390625 
Q 18.609375 15.53125 22.484375 10.953125 
Q 26.375 6.390625 33.015625 6.390625 
Q 39.65625 6.390625 43.53125 10.953125 
Q 47.40625 15.53125 47.40625 23.390625 
Q 47.40625 31.296875 43.53125 35.828125 
Q 39.65625 40.375 33.015625 40.375 
z
M 52.59375 71.296875 
L 52.59375 62.3125 
Q 48.875 64.0625 45.09375 64.984375 
Q 41.3125 65.921875 37.59375 65.921875 
Q 27.828125 65.921875 22.671875 59.328125 
Q 17.53125 52.734375 16.796875 39.40625 
Q 19.671875 43.65625 24.015625 45.921875 
Q 28.375 48.1875 33.59375 48.1875 
Q 44.578125 48.1875 50.953125 41.515625 
Q 57.328125 34.859375 57.328125 23.390625 
Q 57.328125 12.15625 50.6875 5.359375 
Q 44.046875 -1.421875 33.015625 -1.421875 
Q 20.359375 -1.421875 13.671875 8.265625 
Q 6.984375 17.96875 6.984375 36.375 
Q 6.984375 53.65625 15.1875 63.9375 
Q 23.390625 74.21875 37.203125 74.21875 
Q 40.921875 74.21875 44.703125 73.484375 
Q 48.484375 72.75 52.59375 71.296875 
z
" id="DejaVuSans-54"/>
      </defs>
      <g transform="translate(284.265341 399.078438)scale(0.1 -0.1)">
       <use xlink:href="#DejaVuSans-54"/>
       <use x="63.623047" xlink:href="#DejaVuSans-48"/>
       <use x="127.246094" xlink:href="#DejaVuSans-48"/>
      </g>
     </g>
    </g>
    <g id="xtick_5">
     <g id="line2d_5">
      <g>
       <use style="stroke:#000000;stroke-width:0.8;" x="364.827273" xlink:href="#m8112bf71fd" y="384.48"/>
      </g>
     </g>
     <g id="text_5">
      <!-- 800 -->
      <defs>
       <path d="M 31.78125 34.625 
Q 24.75 34.625 20.71875 30.859375 
Q 16.703125 27.09375 16.703125 20.515625 
Q 16.703125 13.921875 20.71875 10.15625 
Q 24.75 6.390625 31.78125 6.390625 
Q 38.8125 6.390625 42.859375 10.171875 
Q 46.921875 13.96875 46.921875 20.515625 
Q 46.921875 27.09375 42.890625 30.859375 
Q 38.875 34.625 31.78125 34.625 
z
M 21.921875 38.8125 
Q 15.578125 40.375 12.03125 44.71875 
Q 8.5 49.078125 8.5 55.328125 
Q 8.5 64.0625 14.71875 69.140625 
Q 20.953125 74.21875 31.78125 74.21875 
Q 42.671875 74.21875 48.875 69.140625 
Q 55.078125 64.0625 55.078125 55.328125 
Q 55.078125 49.078125 51.53125 44.71875 
Q 48 40.375 41.703125 38.8125 
Q 48.828125 37.15625 52.796875 32.3125 
Q 56.78125 27.484375 56.78125 20.515625 
Q 56.78125 9.90625 50.3125 4.234375 
Q 43.84375 -1.421875 31.78125 -1.421875 
Q 19.734375 -1.421875 13.25 4.234375 
Q 6.78125 9.90625 6.78125 20.515625 
Q 6.78125 27.484375 10.78125 32.3125 
Q 14.796875 37.15625 21.921875 38.8125 
z
M 18.3125 54.390625 
Q 18.3125 48.734375 21.84375 45.5625 
Q 25.390625 42.390625 31.78125 42.390625 
Q 38.140625 42.390625 41.71875 45.5625 
Q 45.3125 48.734375 45.3125 54.390625 
Q 45.3125 60.0625 41.71875 63.234375 
Q 38.140625 66.40625 31.78125 66.40625 
Q 25.390625 66.40625 21.84375 63.234375 
Q 18.3125 60.0625 18.3125 54.390625 
z
" id="DejaVuSans-56"/>
      </defs>
      <g transform="translate(355.283523 399.078438)scale(0.1 -0.1)">
       <use xlink:href="#DejaVuSans-56"/>
       <use x="63.623047" xlink:href="#DejaVuSans-48"/>
       <use x="127.246094" xlink:href="#DejaVuSans-48"/>
      </g>
     </g>
    </g>
    <g id="text_6">
     <!-- time [ms] -->
     <defs>
      <path d="M 18.3125 70.21875 
L 18.3125 54.6875 
L 36.8125 54.6875 
L 36.8125 47.703125 
L 18.3125 47.703125 
L 18.3125 18.015625 
Q 18.3125 11.328125 20.140625 9.421875 
Q 21.96875 7.515625 27.59375 7.515625 
L 36.8125 7.515625 
L 36.8125 0 
L 27.59375 0 
Q 17.1875 0 13.234375 3.875 
Q 9.28125 7.765625 9.28125 18.015625 
L 9.28125 47.703125 
L 2.6875 47.703125 
L 2.6875 54.6875 
L 9.28125 54.6875 
L 9.28125 70.21875 
z
" id="DejaVuSans-116"/>
      <path d="M 9.421875 54.6875 
L 18.40625 54.6875 
L 18.40625 0 
L 9.421875 0 
z
M 9.421875 75.984375 
L 18.40625 75.984375 
L 18.40625 64.59375 
L 9.421875 64.59375 
z
" id="DejaVuSans-105"/>
      <path d="M 52 44.1875 
Q 55.375 50.25 60.0625 53.125 
Q 64.75 56 71.09375 56 
Q 79.640625 56 84.28125 50.015625 
Q 88.921875 44.046875 88.921875 33.015625 
L 88.921875 0 
L 79.890625 0 
L 79.890625 32.71875 
Q 79.890625 40.578125 77.09375 44.375 
Q 74.3125 48.1875 68.609375 48.1875 
Q 61.625 48.1875 57.5625 43.546875 
Q 53.515625 38.921875 53.515625 30.90625 
L 53.515625 0 
L 44.484375 0 
L 44.484375 32.71875 
Q 44.484375 40.625 41.703125 44.40625 
Q 38.921875 48.1875 33.109375 48.1875 
Q 26.21875 48.1875 22.15625 43.53125 
Q 18.109375 38.875 18.109375 30.90625 
L 18.109375 0 
L 9.078125 0 
L 9.078125 54.6875 
L 18.109375 54.6875 
L 18.109375 46.1875 
Q 21.1875 51.21875 25.484375 53.609375 
Q 29.78125 56 35.6875 56 
Q 41.65625 56 45.828125 52.96875 
Q 50 49.953125 52 44.1875 
z
" id="DejaVuSans-109"/>
      <path d="M 56.203125 29.59375 
L 56.203125 25.203125 
L 14.890625 25.203125 
Q 15.484375 15.921875 20.484375 11.0625 
Q 25.484375 6.203125 34.421875 6.203125 
Q 39.59375 6.203125 44.453125 7.46875 
Q 49.3125 8.734375 54.109375 11.28125 
L 54.109375 2.78125 
Q 49.265625 0.734375 44.1875 -0.34375 
Q 39.109375 -1.421875 33.890625 -1.421875 
Q 20.796875 -1.421875 13.15625 6.1875 
Q 5.515625 13.8125 5.515625 26.8125 
Q 5.515625 40.234375 12.765625 48.109375 
Q 20.015625 56 32.328125 56 
Q 43.359375 56 49.78125 48.890625 
Q 56.203125 41.796875 56.203125 29.59375 
z
M 47.21875 32.234375 
Q 47.125 39.59375 43.09375 43.984375 
Q 39.0625 48.390625 32.421875 48.390625 
Q 24.90625 48.390625 20.390625 44.140625 
Q 15.875 39.890625 15.1875 32.171875 
z
" id="DejaVuSans-101"/>
      <path id="DejaVuSans-32"/>
      <path d="M 8.59375 75.984375 
L 29.296875 75.984375 
L 29.296875 69 
L 17.578125 69 
L 17.578125 -6.203125 
L 29.296875 -6.203125 
L 29.296875 -13.1875 
L 8.59375 -13.1875 
z
" id="DejaVuSans-91"/>
      <path d="M 44.28125 53.078125 
L 44.28125 44.578125 
Q 40.484375 46.53125 36.375 47.5 
Q 32.28125 48.484375 27.875 48.484375 
Q 21.1875 48.484375 17.84375 46.4375 
Q 14.5 44.390625 14.5 40.28125 
Q 14.5 37.15625 16.890625 35.375 
Q 19.28125 33.59375 26.515625 31.984375 
L 29.59375 31.296875 
Q 39.15625 29.25 43.1875 25.515625 
Q 47.21875 21.78125 47.21875 15.09375 
Q 47.21875 7.46875 41.1875 3.015625 
Q 35.15625 -1.421875 24.609375 -1.421875 
Q 20.21875 -1.421875 15.453125 -0.5625 
Q 10.6875 0.296875 5.421875 2 
L 5.421875 11.28125 
Q 10.40625 8.6875 15.234375 7.390625 
Q 20.0625 6.109375 24.8125 6.109375 
Q 31.15625 6.109375 34.5625 8.28125 
Q 37.984375 10.453125 37.984375 14.40625 
Q 37.984375 18.0625 35.515625 20.015625 
Q 33.0625 21.96875 24.703125 23.78125 
L 21.578125 24.515625 
Q 13.234375 26.265625 9.515625 29.90625 
Q 5.8125 33.546875 5.8125 39.890625 
Q 5.8125 47.609375 11.28125 51.796875 
Q 16.75 56 26.8125 56 
Q 31.78125 56 36.171875 55.265625 
Q 40.578125 54.546875 44.28125 53.078125 
z
" id="DejaVuSans-115"/>
      <path d="M 30.421875 75.984375 
L 30.421875 -13.1875 
L 9.71875 -13.1875 
L 9.71875 -6.203125 
L 21.390625 -6.203125 
L 21.390625 69 
L 9.71875 69 
L 9.71875 75.984375 
z
" id="DejaVuSans-93"/>
     </defs>
     <g transform="translate(234.038281 412.756563)scale(0.1 -0.1)">
      <use xlink:href="#DejaVuSans-116"/>
      <use x="39.208984" xlink:href="#DejaVuSans-105"/>
      <use x="66.992188" xlink:href="#DejaVuSans-109"/>
      <use x="164.404297" xlink:href="#DejaVuSans-101"/>
      <use x="225.927734" xlink:href="#DejaVuSans-32"/>
      <use x="257.714844" xlink:href="#DejaVuSans-91"/>
      <use x="296.728516" xlink:href="#DejaVuSans-109"/>
      <use x="394.140625" xlink:href="#DejaVuSans-115"/>
      <use x="446.240234" xlink:href="#DejaVuSans-93"/>
     </g>
    </g>
   </g>
   <g id="matplotlib.axis_2">
    <g id="ytick_1">
     <g id="line2d_6">
      <defs>
       <path d="M 0 0 
L -3.5 0 
" id="me101c97447" style="stroke:#000000;stroke-width:0.8;"/>
      </defs>
      <g>
       <use style="stroke:#000000;stroke-width:0.8;" x="63" xlink:href="#me101c97447" y="344.739141"/>
      </g>
     </g>
     <g id="text_7">
      <!-- −60 -->
      <defs>
       <path d="M 10.59375 35.5 
L 73.1875 35.5 
L 73.1875 27.203125 
L 10.59375 27.203125 
z
" id="DejaVuSans-8722"/>
      </defs>
      <g transform="translate(34.895313 348.53836)scale(0.1 -0.1)">
       <use xlink:href="#DejaVuSans-8722"/>
       <use x="83.789062" xlink:href="#DejaVuSans-54"/>
       <use x="147.412109" xlink:href="#DejaVuSans-48"/>
      </g>
     </g>
    </g>
    <g id="ytick_2">
     <g id="line2d_7">
      <g>
       <use style="stroke:#000000;stroke-width:0.8;" x="63" xlink:href="#me101c97447" y="278.429081"/>
      </g>
     </g>
     <g id="text_8">
      <!-- −40 -->
      <g transform="translate(34.895313 282.2283)scale(0.1 -0.1)">
       <use xlink:href="#DejaVuSans-8722"/>
       <use x="83.789062" xlink:href="#DejaVuSans-52"/>
       <use x="147.412109" xlink:href="#DejaVuSans-48"/>
      </g>
     </g>
    </g>
    <g id="ytick_3">
     <g id="line2d_8">
      <g>
       <use style="stroke:#000000;stroke-width:0.8;" x="63" xlink:href="#me101c97447" y="212.11902"/>
      </g>
     </g>
     <g id="text_9">
      <!-- −20 -->
      <g transform="translate(34.895313 215.918239)scale(0.1 -0.1)">
       <use xlink:href="#DejaVuSans-8722"/>
       <use x="83.789062" xlink:href="#DejaVuSans-50"/>
       <use x="147.412109" xlink:href="#DejaVuSans-48"/>
      </g>
     </g>
    </g>
    <g id="ytick_4">
     <g id="line2d_9">
      <g>
       <use style="stroke:#000000;stroke-width:0.8;" x="63" xlink:href="#me101c97447" y="145.80896"/>
      </g>
     </g>
     <g id="text_10">
      <!-- 0 -->
      <g transform="translate(49.6375 149.608179)scale(0.1 -0.1)">
       <use xlink:href="#DejaVuSans-48"/>
      </g>
     </g>
    </g>
    <g id="ytick_5">
     <g id="line2d_10">
      <g>
       <use style="stroke:#000000;stroke-width:0.8;" x="63" xlink:href="#me101c97447" y="79.498899"/>
      </g>
     </g>
     <g id="text_11">
      <!-- 20 -->
      <g transform="translate(43.275 83.298118)scale(0.1 -0.1)">
       <use xlink:href="#DejaVuSans-50"/>
       <use x="63.623047" xlink:href="#DejaVuSans-48"/>
      </g>
     </g>
    </g>
    <g id="text_12">
     <!-- voltage [V] -->
     <defs>
      <path d="M 2.984375 54.6875 
L 12.5 54.6875 
L 29.59375 8.796875 
L 46.6875 54.6875 
L 56.203125 54.6875 
L 35.6875 0 
L 23.484375 0 
z
" id="DejaVuSans-118"/>
      <path d="M 30.609375 48.390625 
Q 23.390625 48.390625 19.1875 42.75 
Q 14.984375 37.109375 14.984375 27.296875 
Q 14.984375 17.484375 19.15625 11.84375 
Q 23.34375 6.203125 30.609375 6.203125 
Q 37.796875 6.203125 41.984375 11.859375 
Q 46.1875 17.53125 46.1875 27.296875 
Q 46.1875 37.015625 41.984375 42.703125 
Q 37.796875 48.390625 30.609375 48.390625 
z
M 30.609375 56 
Q 42.328125 56 49.015625 48.375 
Q 55.71875 40.765625 55.71875 27.296875 
Q 55.71875 13.875 49.015625 6.21875 
Q 42.328125 -1.421875 30.609375 -1.421875 
Q 18.84375 -1.421875 12.171875 6.21875 
Q 5.515625 13.875 5.515625 27.296875 
Q 5.515625 40.765625 12.171875 48.375 
Q 18.84375 56 30.609375 56 
z
" id="DejaVuSans-111"/>
      <path d="M 9.421875 75.984375 
L 18.40625 75.984375 
L 18.40625 0 
L 9.421875 0 
z
" id="DejaVuSans-108"/>
      <path d="M 34.28125 27.484375 
Q 23.390625 27.484375 19.1875 25 
Q 14.984375 22.515625 14.984375 16.5 
Q 14.984375 11.71875 18.140625 8.90625 
Q 21.296875 6.109375 26.703125 6.109375 
Q 34.1875 6.109375 38.703125 11.40625 
Q 43.21875 16.703125 43.21875 25.484375 
L 43.21875 27.484375 
z
M 52.203125 31.203125 
L 52.203125 0 
L 43.21875 0 
L 43.21875 8.296875 
Q 40.140625 3.328125 35.546875 0.953125 
Q 30.953125 -1.421875 24.3125 -1.421875 
Q 15.921875 -1.421875 10.953125 3.296875 
Q 6 8.015625 6 15.921875 
Q 6 25.140625 12.171875 29.828125 
Q 18.359375 34.515625 30.609375 34.515625 
L 43.21875 34.515625 
L 43.21875 35.40625 
Q 43.21875 41.609375 39.140625 45 
Q 35.0625 48.390625 27.6875 48.390625 
Q 23 48.390625 18.546875 47.265625 
Q 14.109375 46.140625 10.015625 43.890625 
L 10.015625 52.203125 
Q 14.9375 54.109375 19.578125 55.046875 
Q 24.21875 56 28.609375 56 
Q 40.484375 56 46.34375 49.84375 
Q 52.203125 43.703125 52.203125 31.203125 
z
" id="DejaVuSans-97"/>
      <path d="M 45.40625 27.984375 
Q 45.40625 37.75 41.375 43.109375 
Q 37.359375 48.484375 30.078125 48.484375 
Q 22.859375 48.484375 18.828125 43.109375 
Q 14.796875 37.75 14.796875 27.984375 
Q 14.796875 18.265625 18.828125 12.890625 
Q 22.859375 7.515625 30.078125 7.515625 
Q 37.359375 7.515625 41.375 12.890625 
Q 45.40625 18.265625 45.40625 27.984375 
z
M 54.390625 6.78125 
Q 54.390625 -7.171875 48.1875 -13.984375 
Q 42 -20.796875 29.203125 -20.796875 
Q 24.46875 -20.796875 20.265625 -20.09375 
Q 16.0625 -19.390625 12.109375 -17.921875 
L 12.109375 -9.1875 
Q 16.0625 -11.328125 19.921875 -12.34375 
Q 23.78125 -13.375 27.78125 -13.375 
Q 36.625 -13.375 41.015625 -8.765625 
Q 45.40625 -4.15625 45.40625 5.171875 
L 45.40625 9.625 
Q 42.625 4.78125 38.28125 2.390625 
Q 33.9375 0 27.875 0 
Q 17.828125 0 11.671875 7.65625 
Q 5.515625 15.328125 5.515625 27.984375 
Q 5.515625 40.671875 11.671875 48.328125 
Q 17.828125 56 27.875 56 
Q 33.9375 56 38.28125 53.609375 
Q 42.625 51.21875 45.40625 46.390625 
L 45.40625 54.6875 
L 54.390625 54.6875 
z
" id="DejaVuSans-103"/>
      <path d="M 28.609375 0 
L 0.78125 72.90625 
L 11.078125 72.90625 
L 34.1875 11.53125 
L 57.328125 72.90625 
L 67.578125 72.90625 
L 39.796875 0 
z
" id="DejaVuSans-86"/>
     </defs>
     <g transform="translate(28.815625 245.75375)rotate(-90)scale(0.1 -0.1)">
      <use xlink:href="#DejaVuSans-118"/>
      <use x="59.179688" xlink:href="#DejaVuSans-111"/>
      <use x="120.361328" xlink:href="#DejaVuSans-108"/>
      <use x="148.144531" xlink:href="#DejaVuSans-116"/>
      <use x="187.353516" xlink:href="#DejaVuSans-97"/>
      <use x="248.632812" xlink:href="#DejaVuSans-103"/>
      <use x="312.109375" xlink:href="#DejaVuSans-101"/>
      <use x="373.632812" xlink:href="#DejaVuSans-32"/>
      <use x="405.419922" xlink:href="#DejaVuSans-91"/>
      <use x="444.433594" xlink:href="#DejaVuSans-86"/>
      <use x="512.841797" xlink:href="#DejaVuSans-93"/>
     </g>
    </g>
   </g>
   <g id="line2d_11">
    <path clip-path="url(#p76ad1b7d4c)" d="M 80.754545 361.316649 
L 81.695536 361.328484 
L 85.761327 361.74766 
L 98.580109 363.054377 
L 108.753464 363.847224 
L 119.672509 364.470684 
L 131.923145 364.941757 
L 146.268818 365.263643 
L 151.772727 365.338298 
L 151.8615 363.340279 
L 152.234345 355.198981 
L 152.731473 349.500681 
L 153.565936 342.768386 
L 154.9863 333.282018 
L 156.726245 323.175447 
L 158.412927 314.629999 
L 160.028591 307.550986 
L 161.590991 301.695772 
L 163.153391 296.708094 
L 164.840073 292.085944 
L 167.236936 286.248807 
L 168.941373 281.86788 
L 169.793591 279.076194 
L 170.361736 276.47339 
L 170.752336 273.653365 
L 171.036409 269.602486 
L 171.1962 262.460691 
L 171.249464 254.520788 
L 171.622309 69.273826 
L 171.675573 66.96 
L 171.746591 67.198262 
L 171.906382 79.880031 
L 172.190455 131.956124 
L 172.847373 248.878052 
L 173.220218 282.986709 
L 173.5398 295.219116 
L 173.912645 301.597799 
L 174.303245 304.935274 
L 174.782618 307.120742 
L 175.226482 308.221744 
L 175.6881 308.807067 
L 176.096455 308.998509 
L 176.522564 308.955299 
L 177.019691 308.665672 
L 177.676609 307.989002 
L 178.528827 306.766201 
L 179.771645 304.568836 
L 182.825427 298.550816 
L 185.470855 293.624893 
L 188.134036 289.160167 
L 192.217582 282.368984 
L 193.336118 280.000494 
L 194.117318 277.815279 
L 194.685464 275.50882 
L 195.093818 272.747782 
L 195.324627 269.824536 
L 195.502173 263.943038 
L 195.573191 254.818131 
L 195.626455 227.656735 
L 195.839509 97.418075 
L 196.017055 88.888446 
L 196.034809 88.847407 
L 196.176845 92.542903 
L 196.407655 109.419075 
L 196.744991 157.653076 
L 197.437418 254.099714 
L 197.810264 278.543177 
L 198.200864 290.128211 
L 198.591464 295.698155 
L 199.070836 299.351423 
L 199.550209 301.494446 
L 200.082845 302.9711 
L 200.650991 303.904225 
L 201.219136 304.391188 
L 201.787282 304.557263 
L 202.390936 304.473039 
L 203.083364 304.133488 
L 203.988845 303.412508 
L 205.231664 302.099893 
L 207.237927 299.602555 
L 212.9904 292.315774 
L 217.8729 286.667132 
L 220.4118 283.540499 
L 221.885427 281.38136 
L 222.915191 279.483543 
L 223.660882 277.653994 
L 224.229027 275.650793 
L 224.637382 273.351102 
L 224.9037 270.657056 
L 225.081245 266.94354 
L 225.205527 257.799319 
L 225.241036 244.4497 
L 225.525109 96.226516 
L 225.596127 93.90371 
L 225.667145 94.44912 
L 225.862445 102.279434 
L 226.164273 126.366305 
L 226.679155 194.60535 
L 227.229545 255.667735 
L 227.6379 276.790617 
L 228.046255 286.993762 
L 228.454609 292.300398 
L 228.933982 295.88946 
L 229.502127 298.468797 
L 230.105782 300.186928 
L 230.691682 301.245263 
L 231.313091 301.920026 
L 231.898991 302.250389 
L 232.538155 302.357628 
L 233.266091 302.239384 
L 234.153818 301.844542 
L 235.236845 301.108146 
L 236.781491 299.765062 
L 239.320391 297.224082 
L 247.434218 288.996535 
L 251.446745 284.861796 
L 253.346482 282.586187 
L 254.642564 280.693395 
L 255.601309 278.893442 
L 256.275982 277.177004 
L 256.808618 275.203059 
L 257.181464 272.978386 
L 257.447782 270.012708 
L 257.607573 266.11216 
L 257.696345 259.680811 
L 257.767364 236.784767 
L 257.998173 99.797078 
L 258.122455 94.588077 
L 258.157964 95.189694 
L 258.264491 98.627348 
L 258.566318 118.793516 
L 258.956918 162.649816 
L 259.755873 254.234677 
L 260.181982 275.906563 
L 260.590336 285.926816 
L 261.016445 291.250401 
L 261.495818 294.630078 
L 262.028455 296.94465 
L 262.649864 298.672296 
L 263.271273 299.777683 
L 263.892682 300.465312 
L 264.531845 300.856137 
L 265.206518 301.008832 
L 265.952209 300.944884 
L 266.857691 300.627858 
L 267.993982 299.972976 
L 269.538627 298.798535 
L 271.935491 296.659552 
L 282.694745 286.473248 
L 285.215891 283.818928 
L 286.8138 281.828554 
L 287.9856 280.014994 
L 288.820064 278.328173 
L 289.459227 276.541992 
L 289.9386 274.526595 
L 290.293691 271.978463 
L 290.542255 268.142376 
L 290.666536 262.808564 
L 290.737555 248.889653 
L 290.844082 160.643225 
L 291.003873 98.946072 
L 291.128155 94.877988 
L 291.163664 95.401499 
L 291.341209 102.767762 
L 291.643036 126.155668 
L 292.175673 191.325948 
L 292.761573 253.731564 
L 293.152173 274.046832 
L 293.560527 284.849367 
L 294.004391 290.721328 
L 294.483764 294.231712 
L 295.051909 296.736198 
L 295.673318 298.461849 
L 296.276973 299.544297 
L 296.916136 300.262205 
L 297.5553 300.661098 
L 298.247727 300.825843 
L 299.028927 300.762798 
L 299.952164 300.442492 
L 301.141718 299.760814 
L 302.686364 298.597902 
L 305.154245 296.425736 
L 315.451882 286.82546 
L 318.150573 284.059804 
L 319.837255 282.024901 
L 321.062318 280.195614 
L 321.950045 278.466582 
L 322.589209 276.757603 
L 323.068582 274.878606 
L 323.423673 272.627198 
L 323.672236 269.714889 
L 323.849782 264.240859 
L 323.938555 253.494148 
L 323.974064 233.157155 
L 324.204873 100.178754 
L 324.3114 94.662431 
L 324.346909 95.135909 
L 324.453436 98.119079 
L 324.755264 117.966901 
L 325.163618 163.08172 
L 325.962573 253.554026 
L 326.388682 275.310512 
L 326.797036 285.556521 
L 327.2409 291.154776 
L 327.738027 294.613186 
L 328.306173 296.985946 
L 328.927582 298.624135 
L 329.5845 299.717197 
L 330.241418 300.372748 
L 330.880582 300.7082 
L 331.573009 300.821189 
L 332.371964 300.710502 
L 333.2952 300.350135 
L 334.484755 299.635351 
L 336.135927 298.360103 
L 338.834618 295.954358 
L 350.197527 285.302387 
L 352.274809 283.022649 
L 353.677418 281.173823 
L 354.724936 279.434513 
L 355.506136 277.705235 
L 356.092036 275.854539 
L 356.518145 273.758506 
L 356.819973 271.151269 
L 357.015273 267.623314 
L 357.139555 261.281344 
L 357.210573 242.428339 
L 357.476891 97.638585 
L 357.565664 94.824398 
L 357.618927 95.402526 
L 357.778718 101.873164 
L 358.116055 128.195642 
L 358.648691 193.947545 
L 359.216836 253.978473 
L 359.625191 275.043363 
L 360.033545 285.523654 
L 360.459655 291.057264 
L 360.939027 294.512904 
L 361.453909 296.777422 
L 362.057564 298.474404 
L 362.678973 299.593459 
L 363.318136 300.304801 
L 363.975055 300.703605 
L 364.649727 300.85435 
L 364.862782 300.85842 
L 364.969309 303.040354 
L 365.306645 310.250396 
L 365.786018 315.334673 
L 366.460691 319.921067 
L 367.348418 324.422242 
L 368.395936 328.600678 
L 369.532227 332.264331 
L 370.775045 335.563443 
L 372.1599 338.616648 
L 373.633527 341.33554 
L 375.213682 343.795093 
L 376.900364 346.022299 
L 378.746836 348.096138 
L 380.735345 349.997843 
L 382.9014 351.763557 
L 385.280509 353.415262 
L 387.890427 354.956358 
L 390.837682 356.430981 
L 394.069009 357.795959 
L 397.726445 359.094416 
L 401.809991 360.303829 
L 406.426173 361.433078 
L 411.592745 362.462112 
L 417.327464 363.37461 
L 423.754609 364.168824 
L 430.998464 364.834006 
L 435.8277 365.167601 
L 435.8277 365.167601 
" style="fill:none;stroke:#1f77b4;stroke-linecap:square;stroke-width:1.5;"/>
   </g>
   <g id="line2d_12">
    <path clip-path="url(#p76ad1b7d4c)" d="M 80.754545 361.316657 
L 81.482482 361.466697 
L 92.454791 364.000842 
L 97.461573 364.811306 
L 102.787936 365.445128 
L 108.664691 365.91595 
L 115.429173 366.228179 
L 123.809318 366.381346 
L 136.059955 366.360102 
L 151.772727 366.217478 
L 151.985782 356.135326 
L 152.429645 346.5773 
L 153.139827 336.341512 
L 154.151836 324.995169 
L 155.270373 314.84987 
L 156.335645 307.126172 
L 157.365409 301.225886 
L 158.412927 296.492901 
L 159.513709 292.534422 
L 160.721018 289.010189 
L 162.159136 285.510096 
L 164.573755 280.339262 
L 165.905345 277.205775 
L 166.668791 274.842776 
L 167.201427 272.443825 
L 167.574273 269.683319 
L 167.822836 266.166105 
L 167.982627 260.763092 
L 168.0714 250.769477 
L 168.124664 215.411821 
L 168.284455 79.767419 
L 168.373227 86.700515 
L 168.817091 124.729716 
L 169.509518 160.157245 
L 169.758082 196.818886 
L 170.272964 279.960486 
L 170.592545 293.822748 
L 170.965391 301.139289 
L 171.373745 305.100926 
L 171.764345 307.003333 
L 172.119436 307.810274 
L 172.421264 308.03914 
L 172.705336 307.981755 
L 173.060427 307.642583 
L 173.575309 306.798634 
L 174.409773 304.940736 
L 177.871909 296.825724 
L 179.381045 294.044759 
L 180.9612 291.598903 
L 182.701145 289.317166 
L 184.689655 287.079942 
L 187.122027 284.689197 
L 194.312618 277.854221 
L 195.431155 276.317967 
L 196.247864 274.818778 
L 196.869273 273.201648 
L 197.330891 271.378356 
L 197.685982 269.033952 
L 197.934545 265.880375 
L 198.094336 261.209195 
L 198.200864 250.582264 
L 198.254127 218.146217 
L 198.396164 85.613217 
L 198.413918 85.732493 
L 198.520445 95.903625 
L 198.911045 131.603068 
L 199.337155 164.544767 
L 199.603473 207.124757 
L 200.029582 273.485777 
L 200.331409 287.111444 
L 200.6865 293.808222 
L 201.094855 297.653198 
L 201.520964 299.759336 
L 201.929318 300.77799 
L 202.302164 301.179813 
L 202.657255 301.250401 
L 203.047855 301.087219 
L 203.580491 300.598309 
L 204.414955 299.490365 
L 209.830091 291.701161 
L 211.871864 289.431116 
L 214.1622 287.221831 
L 216.914155 284.885566 
L 221.920936 281.002047 
L 224.406573 278.901077 
L 225.897955 277.35728 
L 226.945473 275.96152 
L 227.726673 274.557781 
L 228.330327 273.011264 
L 228.791945 271.200477 
L 229.147036 268.835281 
L 229.3956 265.578866 
L 229.555391 260.530675 
L 229.644164 251.66359 
L 229.697427 225.47746 
L 229.857218 85.910198 
L 229.874973 86.550573 
L 230.034764 104.343456 
L 230.407609 135.449965 
L 230.780455 166.304362 
L 231.064527 214.188552 
L 231.455127 273.572991 
L 231.7392 286.647102 
L 232.094291 293.434663 
L 232.502645 297.253848 
L 232.928755 299.334328 
L 233.337109 300.342289 
L 233.709955 300.744483 
L 234.065045 300.82137 
L 234.455645 300.669753 
L 234.988282 300.201818 
L 235.822745 299.133496 
L 241.273391 291.56006 
L 243.315164 289.371496 
L 245.623255 287.228118 
L 248.375209 284.986575 
L 252.494264 281.956785 
L 255.991909 279.290109 
L 257.678591 277.730631 
L 258.850391 276.354568 
L 259.720364 274.994075 
L 260.377282 273.557056 
L 260.892164 271.878404 
L 261.282764 269.806171 
L 261.566836 267.047825 
L 261.762136 262.896836 
L 261.886418 254.911137 
L 261.957436 228.691942 
L 262.117227 86.017616 
L 262.152736 87.658378 
L 263.1825 186.645608 
L 263.821664 279.995186 
L 264.141245 289.953429 
L 264.514091 295.148815 
L 264.9402 298.177096 
L 265.366309 299.740917 
L 265.756909 300.437393 
L 266.112 300.678935 
L 266.467091 300.666326 
L 266.910955 300.40758 
L 267.550118 299.740423 
L 268.6509 298.210729 
L 271.988755 293.444285 
L 273.924 291.144303 
L 276.001282 289.022373 
L 278.362636 286.933 
L 281.185609 284.742578 
L 285.517718 281.704692 
L 288.926591 279.211935 
L 290.648782 277.682377 
L 291.838336 276.336685 
L 292.726064 274.99643 
L 293.400736 273.566064 
L 293.915618 271.939926 
L 294.306218 269.955234 
L 294.590291 267.378651 
L 294.803345 263.183686 
L 294.927627 256.004978 
L 294.998645 236.560727 
L 295.158436 86.204631 
L 295.247209 92.089651 
L 295.726582 135.952324 
L 296.081673 165.231588 
L 296.365745 212.146719 
L 296.756345 272.714648 
L 297.040418 286.224306 
L 297.395509 293.131164 
L 297.803864 296.987599 
L 298.229973 299.086956 
L 298.638327 300.11015 
L 299.011173 300.526287 
L 299.366264 300.616832 
L 299.756864 300.480716 
L 300.2895 300.0346 
L 301.123964 299.001441 
L 306.627873 291.58417 
L 308.669645 289.474923 
L 310.959982 287.432366 
L 313.640918 285.347585 
L 317.156318 282.915659 
L 322.713491 279.089426 
L 324.435682 277.605376 
L 325.625236 276.296813 
L 326.512964 274.993958 
L 327.187636 273.608279 
L 327.702518 272.045716 
L 328.110873 270.057402 
L 328.4127 267.389445 
L 328.625755 263.253535 
L 328.750036 256.290358 
L 328.821055 238.36652 
L 328.9986 86.323004 
L 329.087373 93.910763 
L 329.531236 134.591104 
L 329.921836 166.839302 
L 330.205909 214.95312 
L 330.578755 272.297847 
L 330.862827 286.029245 
L 331.217918 293.015119 
L 331.626273 296.906608 
L 332.052382 299.026048 
L 332.460736 300.062575 
L 332.833582 300.488395 
L 333.188673 300.586856 
L 333.579273 300.4585 
L 334.111909 300.021926 
L 334.928618 299.026437 
L 337.218955 295.718485 
L 339.225218 293.076142 
L 341.160464 290.895178 
L 343.273255 288.850878 
L 345.670118 286.846888 
L 348.493091 284.784678 
L 352.4346 282.207048 
L 356.962009 279.202204 
L 358.790727 277.714628 
L 360.033545 276.428552 
L 360.956782 275.161039 
L 361.666964 273.804336 
L 362.217355 272.25297 
L 362.625709 270.437472 
L 362.945291 267.948698 
L 363.1761 264.153391 
L 363.318136 257.64385 
L 363.389155 245.211536 
L 363.442418 177.700956 
L 363.5667 86.392641 
L 363.584455 86.503255 
L 363.690982 96.55498 
L 364.099336 133.655658 
L 364.489936 165.047651 
L 364.774009 211.681798 
L 365.271136 292.991718 
L 365.608473 306.898066 
L 366.052336 316.417323 
L 366.602727 323.66731 
L 367.241891 329.292544 
L 367.987582 333.93983 
L 368.8398 337.882337 
L 369.8163 341.369942 
L 370.934836 344.544031 
L 372.177655 347.411469 
L 373.562509 350.055373 
L 375.0894 352.495563 
L 376.758327 354.746553 
L 378.587045 356.83837 
L 380.5578 358.75591 
L 382.7061 360.534648 
L 385.014191 362.156243 
L 387.499827 363.628957 
L 390.145255 364.936672 
L 392.968227 366.081979 
L 395.968745 367.056872 
L 399.164564 367.859507 
L 402.608945 368.492933 
L 406.372909 368.956184 
L 410.598491 369.247882 
L 415.552009 369.359417 
L 421.819364 369.266124 
L 432.063736 368.857359 
L 435.845455 368.688281 
L 435.845455 368.688281 
" style="fill:none;stroke:#ff0000;stroke-linecap:square;stroke-width:1.5;"/>
   </g>
   <g id="patch_3">
    <path d="M 63 384.48 
L 63 51.84 
" style="fill:none;stroke:#000000;stroke-linecap:square;stroke-linejoin:miter;stroke-width:0.8;"/>
   </g>
   <g id="patch_4">
    <path d="M 453.6 384.48 
L 453.6 51.84 
" style="fill:none;stroke:#000000;stroke-linecap:square;stroke-linejoin:miter;stroke-width:0.8;"/>
   </g>
   <g id="patch_5">
    <path d="M 63 384.48 
L 453.6 384.48 
" style="fill:none;stroke:#000000;stroke-linecap:square;stroke-linejoin:miter;stroke-width:0.8;"/>
   </g>
   <g id="patch_6">
    <path d="M 63 51.84 
L 453.6 51.84 
" style="fill:none;stroke:#000000;stroke-linecap:square;stroke-linejoin:miter;stroke-width:0.8;"/>
   </g>
   <g id="legend_1">
    <g id="patch_7">
     <path d="M 383.460938 89.19625 
L 446.6 89.19625 
Q 448.6 89.19625 448.6 87.19625 
L 448.6 58.84 
Q 448.6 56.84 446.6 56.84 
L 383.460938 56.84 
Q 381.460938 56.84 381.460938 58.84 
L 381.460938 87.19625 
Q 381.460938 89.19625 383.460938 89.19625 
z
" style="fill:#ffffff;opacity:0.8;stroke:#cccccc;stroke-linejoin:miter;"/>
    </g>
    <g id="line2d_13">
     <path d="M 385.460938 64.938437 
L 405.460938 64.938437 
" style="fill:none;stroke:#1f77b4;stroke-linecap:square;stroke-width:1.5;"/>
    </g>
    <g id="line2d_14"/>
    <g id="text_13">
     <!-- target -->
     <defs>
      <path d="M 41.109375 46.296875 
Q 39.59375 47.171875 37.8125 47.578125 
Q 36.03125 48 33.890625 48 
Q 26.265625 48 22.1875 43.046875 
Q 18.109375 38.09375 18.109375 28.8125 
L 18.109375 0 
L 9.078125 0 
L 9.078125 54.6875 
L 18.109375 54.6875 
L 18.109375 46.1875 
Q 20.953125 51.171875 25.484375 53.578125 
Q 30.03125 56 36.53125 56 
Q 37.453125 56 38.578125 55.875 
Q 39.703125 55.765625 41.0625 55.515625 
z
" id="DejaVuSans-114"/>
     </defs>
     <g transform="translate(413.460938 68.438437)scale(0.1 -0.1)">
      <use xlink:href="#DejaVuSans-116"/>
      <use x="39.208984" xlink:href="#DejaVuSans-97"/>
      <use x="100.488281" xlink:href="#DejaVuSans-114"/>
      <use x="141.585938" xlink:href="#DejaVuSans-103"/>
      <use x="205.0625" xlink:href="#DejaVuSans-101"/>
      <use x="266.585938" xlink:href="#DejaVuSans-116"/>
     </g>
    </g>
    <g id="line2d_15">
     <path d="M 385.460938 79.616562 
L 405.460938 79.616562 
" style="fill:none;stroke:#ff0000;stroke-linecap:square;stroke-width:1.5;"/>
    </g>
    <g id="line2d_16"/>
    <g id="text_14">
     <!-- model -->
     <defs>
      <path d="M 45.40625 46.390625 
L 45.40625 75.984375 
L 54.390625 75.984375 
L 54.390625 0 
L 45.40625 0 
L 45.40625 8.203125 
Q 42.578125 3.328125 38.25 0.953125 
Q 33.9375 -1.421875 27.875 -1.421875 
Q 17.96875 -1.421875 11.734375 6.484375 
Q 5.515625 14.40625 5.515625 27.296875 
Q 5.515625 40.1875 11.734375 48.09375 
Q 17.96875 56 27.875 56 
Q 33.9375 56 38.25 53.625 
Q 42.578125 51.265625 45.40625 46.390625 
z
M 14.796875 27.296875 
Q 14.796875 17.390625 18.875 11.75 
Q 22.953125 6.109375 30.078125 6.109375 
Q 37.203125 6.109375 41.296875 11.75 
Q 45.40625 17.390625 45.40625 27.296875 
Q 45.40625 37.203125 41.296875 42.84375 
Q 37.203125 48.484375 30.078125 48.484375 
Q 22.953125 48.484375 18.875 42.84375 
Q 14.796875 37.203125 14.796875 27.296875 
z
" id="DejaVuSans-100"/>
     </defs>
     <g transform="translate(413.460938 83.116562)scale(0.1 -0.1)">
      <use xlink:href="#DejaVuSans-109"/>
      <use x="97.412109" xlink:href="#DejaVuSans-111"/>
      <use x="158.59375" xlink:href="#DejaVuSans-100"/>
      <use x="222.070312" xlink:href="#DejaVuSans-101"/>
      <use x="283.59375" xlink:href="#DejaVuSans-108"/>
     </g>
    </g>
   </g>
  </g>
 </g>
 <defs>
  <clipPath id="p76ad1b7d4c">
   <rect height="332.64" width="390.6" x="63" y="51.84"/>
  </clipPath>
 </defs>
</svg>
