<?xml version="1.0" encoding="utf-8" standalone="no"?>
<!DOCTYPE svg PUBLIC "-//W3C//DTD SVG 1.1//EN"
  "http://www.w3.org/Graphics/SVG/1.1/DTD/svg11.dtd">
<!-- Created with matplotlib (http://matplotlib.org/) -->
<svg height="432pt" version="1.1" viewBox="0 0 504 432" width="504pt" xmlns="http://www.w3.org/2000/svg" xmlns:xlink="http://www.w3.org/1999/xlink">
 <defs>
  <style type="text/css">
*{stroke-linecap:butt;stroke-linejoin:round;}
  </style>
 </defs>
 <g id="figure_1">
  <g id="patch_1">
   <path d="M 0 432 
L 504 432 
L 504 0 
L 0 0 
z
" style="fill:#ffffff;"/>
  </g>
  <g id="axes_1">
   <g id="patch_2">
    <path d="M 63 384.48 
L 453.6 384.48 
L 453.6 51.84 
L 63 51.84 
z
" style="fill:#ffffff;"/>
   </g>
   <g id="matplotlib.axis_1">
    <g id="xtick_1">
     <g id="line2d_1">
      <defs>
       <path d="M 0 0 
L 0 3.5 
" id="md8c5694adb" style="stroke:#000000;stroke-width:0.8;"/>
      </defs>
      <g>
       <use style="stroke:#000000;stroke-width:0.8;" x="80.754545" xlink:href="#md8c5694adb" y="384.48"/>
      </g>
     </g>
     <g id="text_1">
      <!-- 0 -->
      <defs>
       <path d="M 31.78125 66.40625 
Q 24.171875 66.40625 20.328125 58.90625 
Q 16.5 51.421875 16.5 36.375 
Q 16.5 21.390625 20.328125 13.890625 
Q 24.171875 6.390625 31.78125 6.390625 
Q 39.453125 6.390625 43.28125 13.890625 
Q 47.125 21.390625 47.125 36.375 
Q 47.125 51.421875 43.28125 58.90625 
Q 39.453125 66.40625 31.78125 66.40625 
z
M 31.78125 74.21875 
Q 44.046875 74.21875 50.515625 64.515625 
Q 56.984375 54.828125 56.984375 36.375 
Q 56.984375 17.96875 50.515625 8.265625 
Q 44.046875 -1.421875 31.78125 -1.421875 
Q 19.53125 -1.421875 13.0625 8.265625 
Q 6.59375 17.96875 6.59375 36.375 
Q 6.59375 54.828125 13.0625 64.515625 
Q 19.53125 74.21875 31.78125 74.21875 
z
" id="DejaVuSans-30"/>
      </defs>
      <g transform="translate(77.573295 399.078438)scale(0.1 -0.1)">
       <use xlink:href="#DejaVuSans-30"/>
      </g>
     </g>
    </g>
    <g id="xtick_2">
     <g id="line2d_2">
      <g>
       <use style="stroke:#000000;stroke-width:0.8;" x="151.767796" xlink:href="#md8c5694adb" y="384.48"/>
      </g>
     </g>
     <g id="text_2">
      <!-- 720 -->
      <defs>
       <path d="M 8.203125 72.90625 
L 55.078125 72.90625 
L 55.078125 68.703125 
L 28.609375 0 
L 18.3125 0 
L 43.21875 64.59375 
L 8.203125 64.59375 
z
" id="DejaVuSans-37"/>
       <path d="M 19.1875 8.296875 
L 53.609375 8.296875 
L 53.609375 0 
L 7.328125 0 
L 7.328125 8.296875 
Q 12.9375 14.109375 22.625 23.890625 
Q 32.328125 33.6875 34.8125 36.53125 
Q 39.546875 41.84375 41.421875 45.53125 
Q 43.3125 49.21875 43.3125 52.78125 
Q 43.3125 58.59375 39.234375 62.25 
Q 35.15625 65.921875 28.609375 65.921875 
Q 23.96875 65.921875 18.8125 64.3125 
Q 13.671875 62.703125 7.8125 59.421875 
L 7.8125 69.390625 
Q 13.765625 71.78125 18.9375 73 
Q 24.125 74.21875 28.421875 74.21875 
Q 39.75 74.21875 46.484375 68.546875 
Q 53.21875 62.890625 53.21875 53.421875 
Q 53.21875 48.921875 51.53125 44.890625 
Q 49.859375 40.875 45.40625 35.40625 
Q 44.1875 33.984375 37.640625 27.21875 
Q 31.109375 20.453125 19.1875 8.296875 
z
" id="DejaVuSans-32"/>
      </defs>
      <g transform="translate(142.224046 399.078438)scale(0.1 -0.1)">
       <use xlink:href="#DejaVuSans-37"/>
       <use x="63.623047" xlink:href="#DejaVuSans-32"/>
       <use x="127.246094" xlink:href="#DejaVuSans-30"/>
      </g>
     </g>
    </g>
    <g id="xtick_3">
     <g id="line2d_3">
      <g>
       <use style="stroke:#000000;stroke-width:0.8;" x="222.781046" xlink:href="#md8c5694adb" y="384.48"/>
      </g>
     </g>
     <g id="text_3">
      <!-- 1440 -->
      <defs>
       <path d="M 12.40625 8.296875 
L 28.515625 8.296875 
L 28.515625 63.921875 
L 10.984375 60.40625 
L 10.984375 69.390625 
L 28.421875 72.90625 
L 38.28125 72.90625 
L 38.28125 8.296875 
L 54.390625 8.296875 
L 54.390625 0 
L 12.40625 0 
z
" id="DejaVuSans-31"/>
       <path d="M 37.796875 64.3125 
L 12.890625 25.390625 
L 37.796875 25.390625 
z
M 35.203125 72.90625 
L 47.609375 72.90625 
L 47.609375 25.390625 
L 58.015625 25.390625 
L 58.015625 17.1875 
L 47.609375 17.1875 
L 47.609375 0 
L 37.796875 0 
L 37.796875 17.1875 
L 4.890625 17.1875 
L 4.890625 26.703125 
z
" id="DejaVuSans-34"/>
      </defs>
      <g transform="translate(210.056046 399.078438)scale(0.1 -0.1)">
       <use xlink:href="#DejaVuSans-31"/>
       <use x="63.623047" xlink:href="#DejaVuSans-34"/>
       <use x="127.246094" xlink:href="#DejaVuSans-34"/>
       <use x="190.869141" xlink:href="#DejaVuSans-30"/>
      </g>
     </g>
    </g>
    <g id="xtick_4">
     <g id="line2d_4">
      <g>
       <use style="stroke:#000000;stroke-width:0.8;" x="293.794296" xlink:href="#md8c5694adb" y="384.48"/>
      </g>
     </g>
     <g id="text_4">
      <!-- 2160 -->
      <defs>
       <path d="M 33.015625 40.375 
Q 26.375 40.375 22.484375 35.828125 
Q 18.609375 31.296875 18.609375 23.390625 
Q 18.609375 15.53125 22.484375 10.953125 
Q 26.375 6.390625 33.015625 6.390625 
Q 39.65625 6.390625 43.53125 10.953125 
Q 47.40625 15.53125 47.40625 23.390625 
Q 47.40625 31.296875 43.53125 35.828125 
Q 39.65625 40.375 33.015625 40.375 
z
M 52.59375 71.296875 
L 52.59375 62.3125 
Q 48.875 64.0625 45.09375 64.984375 
Q 41.3125 65.921875 37.59375 65.921875 
Q 27.828125 65.921875 22.671875 59.328125 
Q 17.53125 52.734375 16.796875 39.40625 
Q 19.671875 43.65625 24.015625 45.921875 
Q 28.375 48.1875 33.59375 48.1875 
Q 44.578125 48.1875 50.953125 41.515625 
Q 57.328125 34.859375 57.328125 23.390625 
Q 57.328125 12.15625 50.6875 5.359375 
Q 44.046875 -1.421875 33.015625 -1.421875 
Q 20.359375 -1.421875 13.671875 8.265625 
Q 6.984375 17.96875 6.984375 36.375 
Q 6.984375 53.65625 15.1875 63.9375 
Q 23.390625 74.21875 37.203125 74.21875 
Q 40.921875 74.21875 44.703125 73.484375 
Q 48.484375 72.75 52.59375 71.296875 
z
" id="DejaVuSans-36"/>
      </defs>
      <g transform="translate(281.069296 399.078438)scale(0.1 -0.1)">
       <use xlink:href="#DejaVuSans-32"/>
       <use x="63.623047" xlink:href="#DejaVuSans-31"/>
       <use x="127.246094" xlink:href="#DejaVuSans-36"/>
       <use x="190.869141" xlink:href="#DejaVuSans-30"/>
      </g>
     </g>
    </g>
    <g id="xtick_5">
     <g id="line2d_5">
      <g>
       <use style="stroke:#000000;stroke-width:0.8;" x="364.807547" xlink:href="#md8c5694adb" y="384.48"/>
      </g>
     </g>
     <g id="text_5">
      <!-- 2880 -->
      <defs>
       <path d="M 31.78125 34.625 
Q 24.75 34.625 20.71875 30.859375 
Q 16.703125 27.09375 16.703125 20.515625 
Q 16.703125 13.921875 20.71875 10.15625 
Q 24.75 6.390625 31.78125 6.390625 
Q 38.8125 6.390625 42.859375 10.171875 
Q 46.921875 13.96875 46.921875 20.515625 
Q 46.921875 27.09375 42.890625 30.859375 
Q 38.875 34.625 31.78125 34.625 
z
M 21.921875 38.8125 
Q 15.578125 40.375 12.03125 44.71875 
Q 8.5 49.078125 8.5 55.328125 
Q 8.5 64.0625 14.71875 69.140625 
Q 20.953125 74.21875 31.78125 74.21875 
Q 42.671875 74.21875 48.875 69.140625 
Q 55.078125 64.0625 55.078125 55.328125 
Q 55.078125 49.078125 51.53125 44.71875 
Q 48 40.375 41.703125 38.8125 
Q 48.828125 37.15625 52.796875 32.3125 
Q 56.78125 27.484375 56.78125 20.515625 
Q 56.78125 9.90625 50.3125 4.234375 
Q 43.84375 -1.421875 31.78125 -1.421875 
Q 19.734375 -1.421875 13.25 4.234375 
Q 6.78125 9.90625 6.78125 20.515625 
Q 6.78125 27.484375 10.78125 32.3125 
Q 14.796875 37.15625 21.921875 38.8125 
z
M 18.3125 54.390625 
Q 18.3125 48.734375 21.84375 45.5625 
Q 25.390625 42.390625 31.78125 42.390625 
Q 38.140625 42.390625 41.71875 45.5625 
Q 45.3125 48.734375 45.3125 54.390625 
Q 45.3125 60.0625 41.71875 63.234375 
Q 38.140625 66.40625 31.78125 66.40625 
Q 25.390625 66.40625 21.84375 63.234375 
Q 18.3125 60.0625 18.3125 54.390625 
z
" id="DejaVuSans-38"/>
      </defs>
      <g transform="translate(352.082547 399.078438)scale(0.1 -0.1)">
       <use xlink:href="#DejaVuSans-32"/>
       <use x="63.623047" xlink:href="#DejaVuSans-38"/>
       <use x="127.246094" xlink:href="#DejaVuSans-38"/>
       <use x="190.869141" xlink:href="#DejaVuSans-30"/>
      </g>
     </g>
    </g>
    <g id="text_6">
     <!-- time [ms] -->
     <defs>
      <path d="M 18.3125 70.21875 
L 18.3125 54.6875 
L 36.8125 54.6875 
L 36.8125 47.703125 
L 18.3125 47.703125 
L 18.3125 18.015625 
Q 18.3125 11.328125 20.140625 9.421875 
Q 21.96875 7.515625 27.59375 7.515625 
L 36.8125 7.515625 
L 36.8125 0 
L 27.59375 0 
Q 17.1875 0 13.234375 3.875 
Q 9.28125 7.765625 9.28125 18.015625 
L 9.28125 47.703125 
L 2.6875 47.703125 
L 2.6875 54.6875 
L 9.28125 54.6875 
L 9.28125 70.21875 
z
" id="DejaVuSans-74"/>
      <path d="M 9.421875 54.6875 
L 18.40625 54.6875 
L 18.40625 0 
L 9.421875 0 
z
M 9.421875 75.984375 
L 18.40625 75.984375 
L 18.40625 64.59375 
L 9.421875 64.59375 
z
" id="DejaVuSans-69"/>
      <path d="M 52 44.1875 
Q 55.375 50.25 60.0625 53.125 
Q 64.75 56 71.09375 56 
Q 79.640625 56 84.28125 50.015625 
Q 88.921875 44.046875 88.921875 33.015625 
L 88.921875 0 
L 79.890625 0 
L 79.890625 32.71875 
Q 79.890625 40.578125 77.09375 44.375 
Q 74.3125 48.1875 68.609375 48.1875 
Q 61.625 48.1875 57.5625 43.546875 
Q 53.515625 38.921875 53.515625 30.90625 
L 53.515625 0 
L 44.484375 0 
L 44.484375 32.71875 
Q 44.484375 40.625 41.703125 44.40625 
Q 38.921875 48.1875 33.109375 48.1875 
Q 26.21875 48.1875 22.15625 43.53125 
Q 18.109375 38.875 18.109375 30.90625 
L 18.109375 0 
L 9.078125 0 
L 9.078125 54.6875 
L 18.109375 54.6875 
L 18.109375 46.1875 
Q 21.1875 51.21875 25.484375 53.609375 
Q 29.78125 56 35.6875 56 
Q 41.65625 56 45.828125 52.96875 
Q 50 49.953125 52 44.1875 
z
" id="DejaVuSans-6d"/>
      <path d="M 56.203125 29.59375 
L 56.203125 25.203125 
L 14.890625 25.203125 
Q 15.484375 15.921875 20.484375 11.0625 
Q 25.484375 6.203125 34.421875 6.203125 
Q 39.59375 6.203125 44.453125 7.46875 
Q 49.3125 8.734375 54.109375 11.28125 
L 54.109375 2.78125 
Q 49.265625 0.734375 44.1875 -0.34375 
Q 39.109375 -1.421875 33.890625 -1.421875 
Q 20.796875 -1.421875 13.15625 6.1875 
Q 5.515625 13.8125 5.515625 26.8125 
Q 5.515625 40.234375 12.765625 48.109375 
Q 20.015625 56 32.328125 56 
Q 43.359375 56 49.78125 48.890625 
Q 56.203125 41.796875 56.203125 29.59375 
z
M 47.21875 32.234375 
Q 47.125 39.59375 43.09375 43.984375 
Q 39.0625 48.390625 32.421875 48.390625 
Q 24.90625 48.390625 20.390625 44.140625 
Q 15.875 39.890625 15.1875 32.171875 
z
" id="DejaVuSans-65"/>
      <path id="DejaVuSans-20"/>
      <path d="M 8.59375 75.984375 
L 29.296875 75.984375 
L 29.296875 69 
L 17.578125 69 
L 17.578125 -6.203125 
L 29.296875 -6.203125 
L 29.296875 -13.1875 
L 8.59375 -13.1875 
z
" id="DejaVuSans-5b"/>
      <path d="M 44.28125 53.078125 
L 44.28125 44.578125 
Q 40.484375 46.53125 36.375 47.5 
Q 32.28125 48.484375 27.875 48.484375 
Q 21.1875 48.484375 17.84375 46.4375 
Q 14.5 44.390625 14.5 40.28125 
Q 14.5 37.15625 16.890625 35.375 
Q 19.28125 33.59375 26.515625 31.984375 
L 29.59375 31.296875 
Q 39.15625 29.25 43.1875 25.515625 
Q 47.21875 21.78125 47.21875 15.09375 
Q 47.21875 7.46875 41.1875 3.015625 
Q 35.15625 -1.421875 24.609375 -1.421875 
Q 20.21875 -1.421875 15.453125 -0.5625 
Q 10.6875 0.296875 5.421875 2 
L 5.421875 11.28125 
Q 10.40625 8.6875 15.234375 7.390625 
Q 20.0625 6.109375 24.8125 6.109375 
Q 31.15625 6.109375 34.5625 8.28125 
Q 37.984375 10.453125 37.984375 14.40625 
Q 37.984375 18.0625 35.515625 20.015625 
Q 33.0625 21.96875 24.703125 23.78125 
L 21.578125 24.515625 
Q 13.234375 26.265625 9.515625 29.90625 
Q 5.8125 33.546875 5.8125 39.890625 
Q 5.8125 47.609375 11.28125 51.796875 
Q 16.75 56 26.8125 56 
Q 31.78125 56 36.171875 55.265625 
Q 40.578125 54.546875 44.28125 53.078125 
z
" id="DejaVuSans-73"/>
      <path d="M 30.421875 75.984375 
L 30.421875 -13.1875 
L 9.71875 -13.1875 
L 9.71875 -6.203125 
L 21.390625 -6.203125 
L 21.390625 69 
L 9.71875 69 
L 9.71875 75.984375 
z
" id="DejaVuSans-5d"/>
     </defs>
     <g transform="translate(234.038281 412.756563)scale(0.1 -0.1)">
      <use xlink:href="#DejaVuSans-74"/>
      <use x="39.208984" xlink:href="#DejaVuSans-69"/>
      <use x="66.992188" xlink:href="#DejaVuSans-6d"/>
      <use x="164.404297" xlink:href="#DejaVuSans-65"/>
      <use x="225.927734" xlink:href="#DejaVuSans-20"/>
      <use x="257.714844" xlink:href="#DejaVuSans-5b"/>
      <use x="296.728516" xlink:href="#DejaVuSans-6d"/>
      <use x="394.140625" xlink:href="#DejaVuSans-73"/>
      <use x="446.240234" xlink:href="#DejaVuSans-5d"/>
     </g>
    </g>
   </g>
   <g id="matplotlib.axis_2">
    <g id="ytick_1">
     <g id="line2d_6">
      <defs>
       <path d="M 0 0 
L -3.5 0 
" id="ma4e69614f0" style="stroke:#000000;stroke-width:0.8;"/>
      </defs>
      <g>
       <use style="stroke:#000000;stroke-width:0.8;" x="63" xlink:href="#ma4e69614f0" y="379.631448"/>
      </g>
     </g>
     <g id="text_7">
      <!-- −80 -->
      <defs>
       <path d="M 10.59375 35.5 
L 73.1875 35.5 
L 73.1875 27.203125 
L 10.59375 27.203125 
z
" id="DejaVuSans-2212"/>
      </defs>
      <g transform="translate(34.895313 383.430667)scale(0.1 -0.1)">
       <use xlink:href="#DejaVuSans-2212"/>
       <use x="83.789062" xlink:href="#DejaVuSans-38"/>
       <use x="147.412109" xlink:href="#DejaVuSans-30"/>
      </g>
     </g>
    </g>
    <g id="ytick_2">
     <g id="line2d_7">
      <g>
       <use style="stroke:#000000;stroke-width:0.8;" x="63" xlink:href="#ma4e69614f0" y="326.214926"/>
      </g>
     </g>
     <g id="text_8">
      <!-- −60 -->
      <g transform="translate(34.895313 330.014145)scale(0.1 -0.1)">
       <use xlink:href="#DejaVuSans-2212"/>
       <use x="83.789062" xlink:href="#DejaVuSans-36"/>
       <use x="147.412109" xlink:href="#DejaVuSans-30"/>
      </g>
     </g>
    </g>
    <g id="ytick_3">
     <g id="line2d_8">
      <g>
       <use style="stroke:#000000;stroke-width:0.8;" x="63" xlink:href="#ma4e69614f0" y="272.798403"/>
      </g>
     </g>
     <g id="text_9">
      <!-- −40 -->
      <g transform="translate(34.895313 276.597622)scale(0.1 -0.1)">
       <use xlink:href="#DejaVuSans-2212"/>
       <use x="83.789062" xlink:href="#DejaVuSans-34"/>
       <use x="147.412109" xlink:href="#DejaVuSans-30"/>
      </g>
     </g>
    </g>
    <g id="ytick_4">
     <g id="line2d_9">
      <g>
       <use style="stroke:#000000;stroke-width:0.8;" x="63" xlink:href="#ma4e69614f0" y="219.381881"/>
      </g>
     </g>
     <g id="text_10">
      <!-- −20 -->
      <g transform="translate(34.895313 223.181099)scale(0.1 -0.1)">
       <use xlink:href="#DejaVuSans-2212"/>
       <use x="83.789062" xlink:href="#DejaVuSans-32"/>
       <use x="147.412109" xlink:href="#DejaVuSans-30"/>
      </g>
     </g>
    </g>
    <g id="ytick_5">
     <g id="line2d_10">
      <g>
       <use style="stroke:#000000;stroke-width:0.8;" x="63" xlink:href="#ma4e69614f0" y="165.965358"/>
      </g>
     </g>
     <g id="text_11">
      <!-- 0 -->
      <g transform="translate(49.6375 169.764577)scale(0.1 -0.1)">
       <use xlink:href="#DejaVuSans-30"/>
      </g>
     </g>
    </g>
    <g id="ytick_6">
     <g id="line2d_11">
      <g>
       <use style="stroke:#000000;stroke-width:0.8;" x="63" xlink:href="#ma4e69614f0" y="112.548835"/>
      </g>
     </g>
     <g id="text_12">
      <!-- 20 -->
      <g transform="translate(43.275 116.348054)scale(0.1 -0.1)">
       <use xlink:href="#DejaVuSans-32"/>
       <use x="63.623047" xlink:href="#DejaVuSans-30"/>
      </g>
     </g>
    </g>
    <g id="ytick_7">
     <g id="line2d_12">
      <g>
       <use style="stroke:#000000;stroke-width:0.8;" x="63" xlink:href="#ma4e69614f0" y="59.132313"/>
      </g>
     </g>
     <g id="text_13">
      <!-- 40 -->
      <g transform="translate(43.275 62.931532)scale(0.1 -0.1)">
       <use xlink:href="#DejaVuSans-34"/>
       <use x="63.623047" xlink:href="#DejaVuSans-30"/>
      </g>
     </g>
    </g>
    <g id="text_14">
     <!-- Voltage [mV] -->
     <defs>
      <path d="M 28.609375 0 
L 0.78125 72.90625 
L 11.078125 72.90625 
L 34.1875 11.53125 
L 57.328125 72.90625 
L 67.578125 72.90625 
L 39.796875 0 
z
" id="DejaVuSans-56"/>
      <path d="M 30.609375 48.390625 
Q 23.390625 48.390625 19.1875 42.75 
Q 14.984375 37.109375 14.984375 27.296875 
Q 14.984375 17.484375 19.15625 11.84375 
Q 23.34375 6.203125 30.609375 6.203125 
Q 37.796875 6.203125 41.984375 11.859375 
Q 46.1875 17.53125 46.1875 27.296875 
Q 46.1875 37.015625 41.984375 42.703125 
Q 37.796875 48.390625 30.609375 48.390625 
z
M 30.609375 56 
Q 42.328125 56 49.015625 48.375 
Q 55.71875 40.765625 55.71875 27.296875 
Q 55.71875 13.875 49.015625 6.21875 
Q 42.328125 -1.421875 30.609375 -1.421875 
Q 18.84375 -1.421875 12.171875 6.21875 
Q 5.515625 13.875 5.515625 27.296875 
Q 5.515625 40.765625 12.171875 48.375 
Q 18.84375 56 30.609375 56 
z
" id="DejaVuSans-6f"/>
      <path d="M 9.421875 75.984375 
L 18.40625 75.984375 
L 18.40625 0 
L 9.421875 0 
z
" id="DejaVuSans-6c"/>
      <path d="M 34.28125 27.484375 
Q 23.390625 27.484375 19.1875 25 
Q 14.984375 22.515625 14.984375 16.5 
Q 14.984375 11.71875 18.140625 8.90625 
Q 21.296875 6.109375 26.703125 6.109375 
Q 34.1875 6.109375 38.703125 11.40625 
Q 43.21875 16.703125 43.21875 25.484375 
L 43.21875 27.484375 
z
M 52.203125 31.203125 
L 52.203125 0 
L 43.21875 0 
L 43.21875 8.296875 
Q 40.140625 3.328125 35.546875 0.953125 
Q 30.953125 -1.421875 24.3125 -1.421875 
Q 15.921875 -1.421875 10.953125 3.296875 
Q 6 8.015625 6 15.921875 
Q 6 25.140625 12.171875 29.828125 
Q 18.359375 34.515625 30.609375 34.515625 
L 43.21875 34.515625 
L 43.21875 35.40625 
Q 43.21875 41.609375 39.140625 45 
Q 35.0625 48.390625 27.6875 48.390625 
Q 23 48.390625 18.546875 47.265625 
Q 14.109375 46.140625 10.015625 43.890625 
L 10.015625 52.203125 
Q 14.9375 54.109375 19.578125 55.046875 
Q 24.21875 56 28.609375 56 
Q 40.484375 56 46.34375 49.84375 
Q 52.203125 43.703125 52.203125 31.203125 
z
" id="DejaVuSans-61"/>
      <path d="M 45.40625 27.984375 
Q 45.40625 37.75 41.375 43.109375 
Q 37.359375 48.484375 30.078125 48.484375 
Q 22.859375 48.484375 18.828125 43.109375 
Q 14.796875 37.75 14.796875 27.984375 
Q 14.796875 18.265625 18.828125 12.890625 
Q 22.859375 7.515625 30.078125 7.515625 
Q 37.359375 7.515625 41.375 12.890625 
Q 45.40625 18.265625 45.40625 27.984375 
z
M 54.390625 6.78125 
Q 54.390625 -7.171875 48.1875 -13.984375 
Q 42 -20.796875 29.203125 -20.796875 
Q 24.46875 -20.796875 20.265625 -20.09375 
Q 16.0625 -19.390625 12.109375 -17.921875 
L 12.109375 -9.1875 
Q 16.0625 -11.328125 19.921875 -12.34375 
Q 23.78125 -13.375 27.78125 -13.375 
Q 36.625 -13.375 41.015625 -8.765625 
Q 45.40625 -4.15625 45.40625 5.171875 
L 45.40625 9.625 
Q 42.625 4.78125 38.28125 2.390625 
Q 33.9375 0 27.875 0 
Q 17.828125 0 11.671875 7.65625 
Q 5.515625 15.328125 5.515625 27.984375 
Q 5.515625 40.671875 11.671875 48.328125 
Q 17.828125 56 27.875 56 
Q 33.9375 56 38.28125 53.609375 
Q 42.625 51.21875 45.40625 46.390625 
L 45.40625 54.6875 
L 54.390625 54.6875 
z
" id="DejaVuSans-67"/>
     </defs>
     <g transform="translate(28.815625 251.079531)rotate(-90)scale(0.1 -0.1)">
      <use xlink:href="#DejaVuSans-56"/>
      <use x="68.298828" xlink:href="#DejaVuSans-6f"/>
      <use x="129.480469" xlink:href="#DejaVuSans-6c"/>
      <use x="157.263672" xlink:href="#DejaVuSans-74"/>
      <use x="196.472656" xlink:href="#DejaVuSans-61"/>
      <use x="257.751953" xlink:href="#DejaVuSans-67"/>
      <use x="321.228516" xlink:href="#DejaVuSans-65"/>
      <use x="382.751953" xlink:href="#DejaVuSans-20"/>
      <use x="414.539062" xlink:href="#DejaVuSans-5b"/>
      <use x="453.552734" xlink:href="#DejaVuSans-6d"/>
      <use x="550.964844" xlink:href="#DejaVuSans-56"/>
      <use x="619.373047" xlink:href="#DejaVuSans-5d"/>
     </g>
    </g>
   </g>
   <g id="line2d_13">
    <path clip-path="url(#pf1cd269422)" d="M 80.754545 339.569056 
L 80.976462 340.543019 
L 81.124406 340.710798 
L 81.153995 340.686058 
L 81.183584 340.54611 
L 81.198378 338.041359 
L 81.242762 219.336906 
L 81.27235 66.96 
L 81.351254 196.61159 
L 81.528787 352.640864 
L 81.701389 356.336862 
L 81.765498 356.460613 
L 81.819744 356.374023 
L 81.967688 355.596344 
L 82.431247 351.483641 
L 83.013161 347.300781 
L 83.530966 345.087396 
L 83.866307 343.624189 
L 83.886033 331.826809 
L 83.955073 75.573204 
L 84.038908 222.78655 
L 84.191784 351.062564 
L 84.364386 356.631739 
L 84.467947 356.98565 
L 84.51233 356.926478 
L 84.64548 356.315991 
L 85.035066 353.117369 
L 85.661364 348.66204 
L 86.189032 346.414671 
L 86.61807 344.738637 
L 86.637796 333.747388 
L 86.711768 81.404279 
L 86.795603 231.137136 
L 86.948479 350.303771 
L 87.126012 356.536785 
L 87.244367 356.998966 
L 87.278888 356.962484 
L 87.397243 356.49898 
L 87.727652 354.008784 
L 88.408196 349.287784 
L 88.945727 347.060681 
L 89.404354 345.381403 
L 89.42408 336.210441 
L 89.483257 115.237838 
L 89.502983 85.986179 
L 89.567093 185.706309 
L 89.749557 350.490825 
L 89.92709 356.442476 
L 90.050377 356.9427 
L 90.084898 356.908652 
L 90.203253 356.461119 
L 90.538593 354.021861 
L 91.214205 349.538815 
L 91.756668 347.369919 
L 92.210364 345.837363 
L 92.230089 338.78871 
L 92.284336 168.107607 
L 92.308993 88.735679 
L 92.387897 215.199482 
L 92.545704 348.425949 
L 92.723237 356.120774 
L 92.871181 356.907289 
L 92.895839 356.891799 
L 92.994468 356.592868 
L 93.255836 354.872509 
L 94.054735 349.599897 
L 94.602129 347.491199 
L 95.036099 345.850749 
L 95.055825 334.654489 
L 95.134729 91.152044 
L 95.213632 225.189071 
L 95.371439 348.178602 
L 95.553904 356.063119 
L 95.70678 356.865439 
L 95.726506 356.853192 
L 95.825135 356.566344 
L 96.081572 354.91564 
L 96.890334 349.671657 
L 97.442659 347.583576 
L 97.861835 346.191806 
L 97.881561 339.342572 
L 97.935807 176.997769 
L 97.965396 92.548889 
L 98.039368 212.619901 
L 98.202107 347.621672 
L 98.384571 355.904975 
L 98.54731 356.814729 
L 98.562104 356.806811 
L 98.650871 356.578042 
L 98.88265 355.173236 
L 99.765384 349.556227 
L 100.322641 347.534831 
L 100.480448 347.083384 
L 100.628393 359.762411 
L 100.707296 361.488945 
L 100.722091 360.55976 
L 100.746748 330.990261 
L 100.825652 99.163554 
L 100.889761 189.546627 
L 101.062362 354.567299 
L 101.249759 366.016345 
L 101.481538 368.861849 
L 101.68866 369.355587 
L 101.831673 369.285893 
L 102.078246 368.819017 
L 103.710565 365.154086 
L 104.578505 364.126718 
L 105.895209 362.931415 
L 107.532459 361.74395 
L 109.588884 360.333627 
L 109.60861 357.330263 
L 109.667788 223.270112 
L 109.702308 88.212473 
L 109.77628 208.970198 
L 109.939019 354.39466 
L 110.126415 364.286747 
L 110.358194 366.869517 
L 110.560385 367.309082 
L 110.693535 367.223418 
L 110.935177 366.711727 
L 112.409688 363.059949 
L 113.090232 362.26083 
L 114.08639 361.45752 
L 115.55597 360.340705 
L 115.570764 359.283739 
L 115.595421 328.495518 
L 115.669394 87.564456 
L 115.733503 184.112513 
L 115.920899 356.046429 
L 116.113226 364.636537 
L 116.349937 366.954257 
L 116.547196 367.292008 
L 116.685278 367.171231 
L 116.956509 366.543113 
L 118.223898 363.25545 
L 118.860058 362.413427 
L 119.742792 361.634748 
L 121.47374 360.308458 
L 121.493466 357.25634 
L 121.552644 221.943205 
L 121.587164 87.359967 
L 121.661137 209.914103 
L 121.823875 354.404935 
L 122.011271 364.235973 
L 122.243051 366.835163 
L 122.445241 367.282677 
L 122.578391 367.198644 
L 122.820033 366.685147 
L 124.304408 362.987574 
L 124.984951 362.189445 
L 125.981109 361.388324 
L 127.376717 360.333165 
L 127.396443 358.715549 
L 127.426032 303.0878 
L 127.495072 87.420991 
L 127.564113 198.857952 
L 127.731783 354.509123 
L 127.924111 364.354011 
L 128.160822 366.885902 
L 128.363012 367.284911 
L 128.501093 367.177418 
L 128.75753 366.601052 
L 130.069303 363.202622 
L 130.222178 348.989065 
L 130.483547 343.190689 
L 130.700532 340.070465 
L 130.725189 295.251631 
L 130.784367 84.844658 
L 130.86327 206.601368 
L 131.021077 346.159366 
L 131.198611 353.850875 
L 131.346555 354.664299 
L 131.371212 354.647511 
L 131.469842 354.32449 
L 131.721347 352.509041 
L 132.530109 346.556172 
L 133.042982 344.470187 
L 133.398049 343.147586 
L 133.417775 335.236521 
L 133.472021 146.872436 
L 133.496678 88.982521 
L 133.57065 207.820265 
L 133.728458 346.070472 
L 133.910922 354.752667 
L 134.073661 355.737956 
L 134.088455 355.732575 
L 134.17229 355.526116 
L 134.384344 354.218393 
L 135.345982 347.74446 
L 135.888444 345.786189 
L 136.169538 344.727738 
L 136.189264 337.24333 
L 136.24351 162.407263 
L 136.268168 91.308943 
L 136.34214 203.133328 
L 136.504878 346.178553 
L 136.687343 355.077424 
L 136.859945 356.168597 
L 136.869808 356.165898 
L 136.948711 355.996714 
L 137.14597 354.87572 
L 138.18158 348.298814 
L 138.753631 346.371359 
L 138.975548 345.412212 
L 138.995274 335.869314 
L 139.074177 93.030506 
L 139.162944 244.221739 
L 139.31582 346.742797 
L 139.503216 355.376549 
L 139.670886 356.387834 
L 139.680749 356.385489 
L 139.759652 356.22087 
L 139.932254 355.291837 
L 139.937186 339.569056 
L 140.045678 340.149944 
L 140.282389 340.712292 
L 140.361292 340.615146 
L 140.376087 339.728941 
L 140.395813 310.912169 
L 140.45499 66.96 
L 140.533894 196.61159 
L 140.711427 352.640864 
L 140.884029 356.336862 
L 140.948138 356.460613 
L 141.002384 356.374023 
L 141.150329 355.596344 
L 141.613887 351.483641 
L 142.195801 347.300781 
L 142.713606 345.087396 
L 143.048947 343.624189 
L 143.068673 331.826809 
L 143.137713 75.573204 
L 143.221548 222.78655 
L 143.374424 351.062564 
L 143.547026 356.631739 
L 143.650587 356.98565 
L 143.69497 356.926478 
L 143.82812 356.315991 
L 144.217706 353.117369 
L 144.844004 348.66204 
L 145.371672 346.414671 
L 145.80071 344.738637 
L 145.820436 333.747388 
L 145.894408 81.404279 
L 145.978243 231.137136 
L 146.131119 350.303771 
L 146.308652 356.536785 
L 146.427008 356.998966 
L 146.461528 356.962484 
L 146.579883 356.49898 
L 146.910292 354.008784 
L 147.590836 349.287784 
L 148.128367 347.060681 
L 148.586994 345.381403 
L 148.60672 336.210441 
L 148.665898 115.237838 
L 148.685623 85.986179 
L 148.749733 185.706309 
L 148.932197 350.490825 
L 149.10973 356.442476 
L 149.233017 356.9427 
L 149.267538 356.908652 
L 149.385893 356.461119 
L 149.721233 354.021861 
L 150.396846 349.538815 
L 150.939308 347.369919 
L 151.393004 345.837363 
L 151.41273 338.78871 
L 151.466976 168.107607 
L 151.491633 88.735679 
L 151.570537 215.199482 
L 151.728344 348.425949 
L 151.905877 356.120774 
L 152.053821 356.907289 
L 152.078479 356.891799 
L 152.177108 356.592868 
L 152.438476 354.872509 
L 153.237376 349.599897 
L 153.784769 347.491199 
L 154.218739 345.850749 
L 154.238465 334.654489 
L 154.317369 91.152044 
L 154.396272 225.189071 
L 154.55408 348.178602 
L 154.736544 356.063119 
L 154.88942 356.865439 
L 154.909146 356.853192 
L 155.007775 356.566344 
L 155.264212 354.91564 
L 156.072974 349.671657 
L 156.625299 347.583576 
L 157.044475 346.191806 
L 157.064201 339.342572 
L 157.118447 176.997769 
L 157.148036 92.548889 
L 157.222008 212.619901 
L 157.384747 347.621672 
L 157.567211 355.904975 
L 157.72995 356.814729 
L 157.744744 356.806811 
L 157.833511 356.578042 
L 158.06529 355.173236 
L 158.948024 349.556227 
L 159.505281 347.534831 
L 159.66802 346.739038 
L 159.840622 343.747981 
L 159.885005 342.649857 
L 159.904731 325.416596 
L 159.978703 92.604692 
L 160.042812 187.015432 
L 160.220345 346.192034 
L 160.40281 353.820342 
L 160.53596 354.501372 
L 160.565548 354.474367 
L 160.674041 354.058141 
L 160.974861 351.726425 
L 161.665268 346.710626 
L 162.202798 344.399073 
L 162.587454 342.889045 
L 162.607179 334.962572 
L 162.661426 155.936605 
L 162.686083 93.295835 
L 162.760055 205.600021 
L 162.922794 345.082344 
L 163.105258 353.75152 
L 163.253203 354.609832 
L 163.272929 354.596875 
L 163.366627 354.299819 
L 163.6132 352.548529 
L 164.4121 346.804388 
L 164.959493 344.542577 
L 165.309628 343.081857 
L 165.329354 332.717891 
L 165.408258 94.46191 
L 165.492093 235.972647 
L 165.6499 345.694798 
L 165.832365 353.853028 
L 165.980309 354.680051 
L 166.000035 354.665446 
L 166.093733 354.36407 
L 166.345238 352.577026 
L 167.129343 346.982106 
L 167.676736 344.721303 
L 168.036734 343.19391 
L 168.05646 331.990097 
L 168.130432 94.78786 
L 168.214267 225.507072 
L 168.372075 344.957748 
L 168.554539 353.73985 
L 168.707415 354.684662 
L 168.727141 354.674222 
L 168.815907 354.411867 
L 169.052618 352.791347 
L 169.876175 346.972159 
L 170.4285 344.737937 
L 170.76384 343.425759 
L 170.783566 335.886633 
L 170.837812 163.860688 
L 170.86247 94.862289 
L 170.936442 202.989646 
L 171.099181 344.289637 
L 171.281645 353.611213 
L 171.444384 354.658691 
L 171.459178 354.65072 
L 171.547945 354.398049 
L 171.779724 352.837788 
L 172.623007 346.94552 
L 173.180263 344.729069 
L 173.495878 343.465089 
L 173.515604 335.634777 
L 173.56985 162.277126 
L 173.594507 95.070216 
L 173.668479 203.755146 
L 173.831218 344.201749 
L 174.013683 353.575083 
L 174.176421 354.651331 
L 174.191216 354.645045 
L 174.275051 354.421813 
L 174.492036 353.0099 
L 175.384633 346.834013 
L 175.946821 344.655298 
L 176.227915 343.541346 
L 176.247641 336.276793 
L 176.301887 166.870147 
L 176.326545 95.250365 
L 176.400517 201.956786 
L 176.563256 344.045169 
L 176.74572 353.545264 
L 176.91339 354.655152 
L 176.923253 354.650858 
L 177.002157 354.455887 
L 177.209279 353.149806 
L 178.146259 346.71977 
L 178.713379 344.572174 
L 178.964884 343.425566 
L 178.98461 332.74385 
L 179.063514 95.632846 
L 179.142418 224.048292 
L 179.305156 345.064385 
L 179.492552 353.75754 
L 179.645428 354.674291 
L 179.665154 354.663008 
L 179.758852 354.377175 
L 180.005426 352.673441 
L 180.799393 347.12898 
L 181.351719 344.892426 
L 181.696922 343.553207 
L 181.716648 336.046186 
L 181.770894 165.421713 
L 181.795551 95.36715 
L 181.869524 202.578837 
L 182.032262 343.961307 
L 182.214727 353.503379 
L 182.382397 354.639715 
L 182.39226 354.636436 
L 182.471164 354.448231 
L 182.673354 353.190983 
L 183.634992 346.646943 
L 184.207043 344.515664 
L 184.433891 343.453666 
L 184.453617 332.936863 
L 184.53252 95.709658 
L 184.616356 235.116889 
L 184.774163 344.968298 
L 184.961559 353.726831 
L 185.114435 354.665509 
L 185.134161 354.656021 
L 185.222927 354.399259 
L 185.459638 352.80099 
L 186.283194 347.069159 
L 186.840451 344.843816 
L 187.165929 343.597636 
L 187.185654 336.447977 
L 187.239901 168.220418 
L 187.264558 95.486691 
L 187.343462 214.587744 
L 187.5062 344.489063 
L 187.693596 353.638885 
L 187.851404 354.639311 
L 187.87113 354.62925 
L 187.959896 354.371412 
L 188.196607 352.777408 
L 189.020163 347.064604 
L 189.251943 346.016022 
L 189.256874 346.325905 
L 189.404818 348.034942 
L 189.528105 348.125016 
L 189.552763 348.111081 
L 189.750022 347.832375 
L 189.97687 347.22106 
L 189.991664 346.158666 
L 190.016321 304.158831 
L 190.085362 96.531491 
L 190.154403 196.725945 
L 190.317141 344.923725 
L 190.504538 355.438057 
L 190.691934 356.861264 
L 190.765906 356.772385 
L 190.928644 356.024553 
L 192.225623 348.855624 
L 192.85192 346.488153 
L 192.871646 334.353549 
L 192.95055 96.012015 
L 193.029453 223.455058 
L 193.192192 346.286615 
L 193.379588 355.506722 
L 193.562053 356.728209 
L 193.636025 356.618615 
L 193.808626 355.783421 
L 195.016838 348.924392 
L 195.707244 346.314383 
L 195.72697 334.104042 
L 195.805874 95.772232 
L 195.884778 223.89996 
L 196.047516 346.306791 
L 196.234912 355.462462 
L 196.417377 356.67041 
L 196.491349 356.557616 
L 196.663951 355.715911 
L 197.867231 348.846423 
L 198.557637 346.313409 
L 198.577363 334.519178 
L 198.656267 95.620409 
L 198.735171 223.340974 
L 198.897909 346.278271 
L 199.085305 355.438742 
L 199.114894 355.858963 
L 199.119826 339.569056 
L 199.228318 340.149944 
L 199.465029 340.712292 
L 199.543933 340.615146 
L 199.558727 339.728941 
L 199.578453 310.912169 
L 199.637631 66.96 
L 199.716534 196.61159 
L 199.894067 352.640864 
L 200.066669 356.336862 
L 200.130778 356.460613 
L 200.185024 356.374023 
L 200.332969 355.596344 
L 200.796527 351.483641 
L 201.378442 347.300781 
L 201.896246 345.087396 
L 202.231587 343.624189 
L 202.251313 331.826809 
L 202.320353 75.573204 
L 202.404188 222.78655 
L 202.557064 351.062564 
L 202.729666 356.631739 
L 202.833227 356.98565 
L 202.87761 356.926478 
L 203.01076 356.315991 
L 203.400347 353.117369 
L 204.026644 348.66204 
L 204.554312 346.414671 
L 204.98335 344.738637 
L 205.003076 333.747388 
L 205.077048 81.404279 
L 205.160883 231.137136 
L 205.313759 350.303771 
L 205.491292 356.536785 
L 205.609648 356.998966 
L 205.644168 356.962484 
L 205.762523 356.49898 
L 206.092932 354.008784 
L 206.773476 349.287784 
L 207.311007 347.060681 
L 207.769634 345.381403 
L 207.78936 336.210441 
L 207.848538 115.237838 
L 207.868264 85.986179 
L 207.932373 185.706309 
L 208.114837 350.490825 
L 208.29237 356.442476 
L 208.415657 356.9427 
L 208.450178 356.908652 
L 208.568533 356.461119 
L 208.903873 354.021861 
L 209.579486 349.538815 
L 210.121948 347.369919 
L 210.575644 345.837363 
L 210.59537 338.78871 
L 210.649616 168.107607 
L 210.674273 88.735679 
L 210.753177 215.199482 
L 210.910984 348.425949 
L 211.088517 356.120774 
L 211.236461 356.907289 
L 211.261119 356.891799 
L 211.359748 356.592868 
L 211.621117 354.872509 
L 212.420016 349.599897 
L 212.967409 347.491199 
L 213.401379 345.850749 
L 213.421105 334.654489 
L 213.500009 91.152044 
L 213.578912 225.189071 
L 213.73672 348.178602 
L 213.919184 356.063119 
L 214.07206 356.865439 
L 214.091786 356.853192 
L 214.190415 356.566344 
L 214.446852 354.91564 
L 215.255614 349.671657 
L 215.807939 347.583576 
L 216.227115 346.191806 
L 216.246841 339.342572 
L 216.301087 176.997769 
L 216.330676 92.548889 
L 216.404648 212.619901 
L 216.567387 347.621672 
L 216.749851 355.904975 
L 216.91259 356.814729 
L 216.927384 356.806811 
L 217.016151 356.578042 
L 217.24793 355.173236 
L 218.130665 349.556227 
L 218.687921 347.534831 
L 218.845729 347.083384 
L 218.998604 341.321381 
L 219.067645 339.163866 
L 219.092302 292.184124 
L 219.156411 91.24641 
L 219.230384 207.034447 
L 219.388191 343.381842 
L 219.565724 351.584611 
L 219.689011 352.245189 
L 219.723531 352.203858 
L 219.836955 351.67411 
L 220.162433 348.743108 
L 220.803524 343.528889 
L 221.331192 341.007711 
L 221.666533 339.528779 
L 221.686259 331.403047 
L 221.760231 93.048055 
L 221.853929 246.355371 
L 222.006804 344.521089 
L 222.189269 352.028615 
L 222.302693 352.587081 
L 222.342145 352.540488 
L 222.4605 351.974376 
L 222.810635 348.835665 
L 223.432001 343.958944 
L 223.9646 341.476624 
L 224.295009 339.907675 
L 224.314735 328.281775 
L 224.388707 93.647803 
L 224.462679 204.288864 
L 224.625418 343.397563 
L 224.807883 351.950842 
L 224.936101 352.673309 
L 224.970621 352.6367 
L 225.084045 352.129752 
L 225.409523 349.306324 
L 226.050615 344.29379 
L 226.588145 341.797043 
L 226.928417 340.250448 
L 226.948143 329.700636 
L 227.022115 94.424006 
L 227.10595 226.839973 
L 227.263758 343.660248 
L 227.446222 352.009102 
L 227.574441 352.738768 
L 227.608961 352.704572 
L 227.717453 352.23648 
L 228.028136 349.592974 
L 228.684023 344.472239 
L 229.221553 341.982262 
L 229.566757 340.452803 
L 229.586483 331.094465 
L 229.660455 95.168685 
L 229.749221 235.704898 
L 229.907029 343.940171 
L 230.089493 352.041571 
L 230.217712 352.763876 
L 230.252232 352.729485 
L 230.360724 352.262758 
L 230.676339 349.587718 
L 231.327294 344.550817 
L 231.864824 342.075164 
L 232.210028 340.482924 
L 232.229754 329.163578 
L 232.303726 95.055182 
L 232.382629 215.592211 
L 232.545368 343.416997 
L 232.727833 351.951815 
L 232.865914 352.750971 
L 232.895503 352.719294 
L 233.003995 352.260216 
L 233.314678 349.653223 
L 233.970565 344.603586 
L 234.513027 342.118854 
L 234.853299 340.588827 
L 234.873025 330.320994 
L 234.946997 95.411595 
L 235.030832 225.626004 
L 235.188639 343.248949 
L 235.371104 351.93766 
L 235.509185 352.769951 
L 235.538774 352.742489 
L 235.642335 352.323393 
L 235.933292 349.924196 
L 236.613836 344.646142 
L 237.156298 342.160784 
L 237.49657 340.711248 
L 237.516296 333.061702 
L 237.570542 152.699512 
L 237.595199 95.419344 
L 237.669171 206.527791 
L 237.83191 342.81895 
L 238.014375 351.847798 
L 238.157387 352.736734 
L 238.182045 352.716311 
L 238.280674 352.344618 
L 238.551905 350.171716 
L 239.266969 344.624528 
L 239.809432 342.158457 
L 240.144772 340.632744 
L 240.164498 329.894025 
L 240.23847 95.510212 
L 240.322305 226.294418 
L 240.480112 343.176082 
L 240.662577 351.906116 
L 240.800658 352.760292 
L 240.830247 352.736093 
L 240.933808 352.326037 
L 241.219834 349.988044 
L 241.91024 344.65359 
L 242.452703 342.18259 
L 242.788043 340.791105 
L 242.807769 333.720308 
L 242.862015 157.232798 
L 242.886673 95.442487 
L 242.960645 204.463145 
L 243.123383 342.648618 
L 243.305848 351.809164 
L 243.448861 352.729221 
L 243.473518 352.712185 
L 243.567216 352.377607 
L 243.823653 350.371404 
L 244.573237 344.5693 
L 245.1157 342.134443 
L 245.436246 340.755545 
L 245.455971 333.049398 
L 245.515149 126.569013 
L 245.534875 95.578572 
L 245.603916 193.971256 
L 245.771586 342.710163 
L 245.954051 351.810212 
L 246.097063 352.727084 
L 246.121721 352.709866 
L 246.215419 352.374957 
L 246.471855 350.369364 
L 247.22144 344.571225 
L 247.763902 342.137999 
L 248.084448 340.709735 
L 248.104174 331.525445 
L 248.183078 95.957067 
L 248.266913 234.703333 
L 248.42472 343.514854 
L 248.651568 356.456022 
L 248.809375 357.256397 
L 248.824169 357.249107 
L 248.917867 357.01491 
L 249.164441 355.591829 
L 249.997861 350.690066 
L 250.579775 348.66017 
L 250.979224 347.201601 
L 250.99895 336.931093 
L 251.077854 96.990279 
L 251.16662 241.341066 
L 251.324428 346.594044 
L 251.511824 355.682884 
L 251.694288 356.901921 
L 251.76826 356.794805 
L 251.940862 355.972116 
L 253.144142 349.243962 
L 253.849343 346.770808 
L 253.869069 335.706899 
L 253.947973 96.262939 
L 254.031808 232.804224 
L 254.189615 346.13988 
L 254.377011 355.517606 
L 254.564407 356.772272 
L 254.638379 356.655119 
L 254.815912 355.782616 
L 255.979741 349.133631 
L 256.709599 346.438521 
L 256.729325 334.488712 
L 256.808229 95.885246 
L 256.887132 223.304169 
L 257.049871 346.255225 
L 257.237267 355.470818 
L 257.419732 356.694351 
L 257.493704 356.585131 
L 257.666305 355.749338 
L 258.297534 351.530915 
L 258.302466 339.569056 
L 258.410958 340.149944 
L 258.647669 340.712292 
L 258.726573 340.615146 
L 258.741367 339.728941 
L 258.761093 310.912169 
L 258.820271 66.96 
L 258.899174 196.61159 
L 259.076707 352.640864 
L 259.249309 356.336862 
L 259.313418 356.460613 
L 259.367664 356.374023 
L 259.515609 355.596344 
L 259.979167 351.483641 
L 260.561082 347.300781 
L 261.078887 345.087396 
L 261.414227 343.624189 
L 261.433953 331.826809 
L 261.502993 75.573204 
L 261.586829 222.78655 
L 261.739704 351.062564 
L 261.912306 356.631739 
L 262.015867 356.98565 
L 262.06025 356.926478 
L 262.1934 356.315991 
L 262.582987 353.117369 
L 263.209284 348.66204 
L 263.736952 346.414671 
L 264.16599 344.738637 
L 264.185716 333.747388 
L 264.259688 81.404279 
L 264.343523 231.137136 
L 264.496399 350.303771 
L 264.673932 356.536785 
L 264.792288 356.998966 
L 264.826808 356.962484 
L 264.945164 356.49898 
L 265.275572 354.008784 
L 265.956116 349.287784 
L 266.493647 347.060681 
L 266.952274 345.381403 
L 266.972 336.210441 
L 267.031178 115.237838 
L 267.050904 85.986179 
L 267.115013 185.706309 
L 267.297477 350.490825 
L 267.475011 356.442476 
L 267.598297 356.9427 
L 267.632818 356.908652 
L 267.751173 356.461119 
L 268.086514 354.021861 
L 268.762126 349.538815 
L 269.304588 347.369919 
L 269.758284 345.837363 
L 269.77801 338.78871 
L 269.832256 168.107607 
L 269.856913 88.735679 
L 269.935817 215.199482 
L 270.093624 348.425949 
L 270.271157 356.120774 
L 270.419102 356.907289 
L 270.443759 356.891799 
L 270.542388 356.592868 
L 270.803757 354.872509 
L 271.602656 349.599897 
L 272.15005 347.491199 
L 272.584019 345.850749 
L 272.603745 334.654489 
L 272.682649 91.152044 
L 272.761553 225.189071 
L 272.91936 348.178602 
L 273.101824 356.063119 
L 273.2547 356.865439 
L 273.274426 356.853192 
L 273.373056 356.566344 
L 273.629492 354.91564 
L 274.438254 349.671657 
L 274.99058 347.583576 
L 275.409755 346.191806 
L 275.429481 339.342572 
L 275.483727 176.997769 
L 275.513316 92.548889 
L 275.587288 212.619901 
L 275.750027 347.621672 
L 275.932491 355.904975 
L 276.09523 356.814729 
L 276.110025 356.806811 
L 276.198791 356.578042 
L 276.43057 355.173236 
L 277.313305 349.556227 
L 277.870561 347.534831 
L 278.028369 347.083384 
L 278.176313 338.777046 
L 278.250285 335.153101 
L 278.294668 230.372288 
L 278.33412 90.307481 
L 278.408092 206.369185 
L 278.565899 341.937454 
L 278.743433 349.618351 
L 278.842062 350.083785 
L 278.891377 349.997859 
L 279.024527 349.17313 
L 279.488085 344.288379 
L 280.035479 339.807585 
L 280.563147 337.251704 
L 280.765338 336.034434 
L 280.785064 323.61348 
L 280.854104 92.12444 
L 280.928076 197.377816 
L 281.090815 342.034284 
L 281.268348 350.031627 
L 281.376841 350.579225 
L 281.421224 350.506322 
L 281.549442 349.758009 
L 281.973549 345.424638 
L 282.535737 340.782547 
L 283.063405 338.190469 
L 283.309979 336.987791 
L 283.329705 329.56225 
L 283.388883 115.242685 
L 283.403677 93.530899 
L 283.467786 177.383197 
L 283.665045 344.322552 
L 283.84751 350.431937 
L 283.936277 350.75383 
L 283.985591 350.661231 
L 284.128604 349.770658 
L 285.499554 339.113252 
L 285.874346 337.084839 
L 285.894072 323.490528 
L 285.963113 94.443633 
L 286.037085 197.623607 
L 286.199824 341.505487 
L 286.382288 350.19335 
L 286.500644 350.833191 
L 286.540096 350.77413 
L 286.663383 350.104255 
L 287.057901 346.23853 
L 287.639815 341.507109 
L 288.172414 338.921323 
L 288.438714 337.433202 
L 288.45844 324.855128 
L 288.532412 94.841216 
L 288.601453 195.391952 
L 288.764191 341.212756 
L 288.946656 350.155999 
L 289.069943 350.853931 
L 289.104463 350.807802 
L 289.217887 350.238738 
L 289.558159 347.002638 
L 290.174593 341.845997 
L 290.707193 339.20424 
L 291.008013 337.565326 
L 291.027739 324.848897 
L 291.101711 95.182184 
L 291.170751 195.406838 
L 291.33349 341.096306 
L 291.515955 350.146257 
L 291.639242 350.876191 
L 291.673762 350.836104 
L 291.787186 350.28188 
L 292.122526 347.121125 
L 292.743892 341.936839 
L 293.276492 339.301092 
L 293.577312 337.80784 
L 293.597037 327.263931 
L 293.67101 95.158472 
L 293.749913 216.277344 
L 293.912652 342.044439 
L 294.095117 350.267415 
L 294.213472 350.906483 
L 294.252924 350.850272 
L 294.376211 350.192902 
L 294.770729 346.39535 
L 295.347711 341.7898 
L 295.885242 339.210492 
L 296.151542 337.725096 
L 296.171268 325.157872 
L 296.24524 95.485288 
L 296.314281 194.897999 
L 296.481951 341.544517 
L 296.664415 350.188758 
L 296.787702 350.888511 
L 296.822223 350.844606 
L 296.935647 350.284409 
L 297.275918 347.086548 
L 297.892353 341.995354 
L 298.429884 339.357532 
L 298.720841 338.012162 
L 298.740567 330.771467 
L 298.794813 145.392516 
L 298.81947 95.651276 
L 298.888511 195.581959 
L 299.05125 340.904623 
L 299.233714 350.115587 
L 299.361933 350.892219 
L 299.396453 350.84996 
L 299.509877 350.293875 
L 299.850149 347.102392 
L 300.466583 342.015498 
L 301.004114 339.378914 
L 301.295071 338.037638 
L 301.314797 330.854793 
L 301.369043 145.950217 
L 301.393701 95.683452 
L 301.462741 195.365453 
L 301.62548 340.852534 
L 301.807945 350.100431 
L 301.936163 350.887905 
L 301.970683 350.847582 
L 302.084107 350.2962 
L 302.419448 347.161418 
L 303.040813 342.029699 
L 303.578344 339.394195 
L 303.874233 337.795327 
L 303.893959 325.249697 
L 303.967931 95.651898 
L 304.036972 194.748932 
L 304.204642 341.417532 
L 304.387106 350.151856 
L 304.510393 350.880467 
L 304.544914 350.84207 
L 304.653406 350.329077 
L 304.973952 347.366051 
L 305.610112 342.070963 
L 306.147643 339.425199 
L 306.448463 337.846475 
L 306.468189 325.668131 
L 306.542161 95.606797 
L 306.616133 206.580605 
L 306.778872 341.358577 
L 306.961337 350.136493 
L 307.084624 350.87474 
L 307.119144 350.838075 
L 307.227636 350.329007 
L 307.543251 347.420949 
L 307.617223 346.68087 
L 307.622154 347.617933 
L 307.770099 352.510675 
L 307.868728 352.752204 
L 307.913111 352.715607 
L 308.07585 352.277568 
L 309.372828 347.739923 
L 309.392554 337.640177 
L 309.471458 98.027959 
L 309.565156 250.249922 
L 309.722963 347.066457 
L 309.910359 355.883025 
L 310.092824 357.075523 
L 310.166796 356.967429 
L 310.344329 356.124948 
L 311.51802 349.629889 
L 312.257742 346.967522 
L 312.277467 335.20239 
L 312.356371 96.741619 
L 312.435275 221.989856 
L 312.598013 346.157861 
L 312.785409 355.589312 
L 312.972806 356.863723 
L 313.046778 356.752527 
L 313.224311 355.894566 
L 314.398002 349.270988 
L 315.12786 346.224195 
L 315.152518 308.798164 
L 315.221558 96.258344 
L 315.290599 194.181317 
L 315.458269 345.38161 
L 315.645665 355.39137 
L 315.833061 356.74316 
L 315.907034 356.642382 
L 316.074704 355.849859 
L 317.317436 348.87791 
L 317.480174 348.345034 
L 317.485106 339.569056 
L 317.593598 340.149944 
L 317.830309 340.712292 
L 317.909213 340.615146 
L 317.924007 339.728941 
L 317.943733 310.912169 
L 318.002911 66.96 
L 318.081814 196.61159 
L 318.259348 352.640864 
L 318.431949 356.336862 
L 318.496058 356.460613 
L 318.550305 356.374023 
L 318.698249 355.596344 
L 319.161808 351.483641 
L 319.743722 347.300781 
L 320.261527 345.087396 
L 320.596867 343.624189 
L 320.616593 331.826809 
L 320.685634 75.573204 
L 320.769469 222.78655 
L 320.922344 351.062564 
L 321.094946 356.631739 
L 321.198507 356.98565 
L 321.24289 356.926478 
L 321.37604 356.315991 
L 321.765627 353.117369 
L 322.391924 348.66204 
L 322.919592 346.414671 
L 323.34863 344.738637 
L 323.368356 333.747388 
L 323.442328 81.404279 
L 323.526164 231.137136 
L 323.679039 350.303771 
L 323.856572 356.536785 
L 323.974928 356.998966 
L 324.009448 356.962484 
L 324.127804 356.49898 
L 324.458212 354.008784 
L 325.138756 349.287784 
L 325.676287 347.060681 
L 326.134914 345.381403 
L 326.15464 336.210441 
L 326.213818 115.237838 
L 326.233544 85.986179 
L 326.297653 185.706309 
L 326.480118 350.490825 
L 326.657651 356.442476 
L 326.780938 356.9427 
L 326.815458 356.908652 
L 326.933813 356.461119 
L 327.269154 354.021861 
L 327.944766 349.538815 
L 328.487228 347.369919 
L 328.940924 345.837363 
L 328.96065 338.78871 
L 329.014896 168.107607 
L 329.039553 88.735679 
L 329.118457 215.199482 
L 329.276264 348.425949 
L 329.453797 356.120774 
L 329.601742 356.907289 
L 329.626399 356.891799 
L 329.725029 356.592868 
L 329.986397 354.872509 
L 330.785296 349.599897 
L 331.33269 347.491199 
L 331.76666 345.850749 
L 331.786385 334.654489 
L 331.865289 91.152044 
L 331.944193 225.189071 
L 332.102 348.178602 
L 332.284464 356.063119 
L 332.43734 356.865439 
L 332.457066 356.853192 
L 332.555696 356.566344 
L 332.812132 354.91564 
L 333.620894 349.671657 
L 334.17322 347.583576 
L 334.592395 346.191806 
L 334.612121 339.342572 
L 334.666367 176.997769 
L 334.695956 92.548889 
L 334.769928 212.619901 
L 334.932667 347.621672 
L 335.115132 355.904975 
L 335.27787 356.814729 
L 335.292665 356.806811 
L 335.381431 356.578042 
L 335.613211 355.173236 
L 336.495945 349.556227 
L 337.053201 347.534831 
L 337.211009 347.083384 
L 337.358953 336.150574 
L 337.432925 331.219276 
L 337.477308 214.799312 
L 337.511829 89.292094 
L 337.585801 201.73684 
L 337.74854 340.837663 
L 337.926073 347.697656 
L 338.000045 347.982347 
L 338.054291 347.871619 
L 338.197304 346.836865 
L 339.563323 334.523589 
L 339.874006 332.847329 
L 339.893731 323.452892 
L 339.962772 91.419337 
L 340.046607 220.006967 
L 340.204414 341.199578 
L 340.381948 348.320453 
L 340.465783 348.668741 
L 340.515097 348.57267 
L 340.653179 347.62789 
L 341.19071 341.553259 
L 341.713446 337.27422 
L 342.275634 334.502349 
L 342.359469 333.699068 
L 342.379195 320.382808 
L 342.448236 92.913524 
L 342.517277 188.812314 
L 342.689878 341.146585 
L 342.867411 348.476895 
L 342.956178 348.888248 
L 343.005493 348.802772 
L 343.138643 347.936674 
L 343.616996 342.659806 
L 344.154527 338.137045 
L 344.696989 335.410159 
L 344.854796 334.256542 
L 344.874522 320.78088 
L 344.943563 93.946627 
L 345.012603 188.287947 
L 345.185205 340.894228 
L 345.362738 348.522827 
L 345.461368 349.00015 
L 345.505751 348.922094 
L 345.633969 348.120361 
L 346.072871 343.366439 
L 346.625196 338.642676 
L 347.162727 335.904377 
L 347.355054 334.763771 
L 347.37478 324.074889 
L 347.448752 94.528389 
L 347.522724 206.52174 
L 347.685463 340.478698 
L 347.862996 348.490581 
L 347.966557 349.036288 
L 348.010941 348.963082 
L 348.139159 348.175323 
L 348.57806 343.483469 
L 349.130386 338.825788 
L 349.667916 336.111853 
L 349.860244 335.043325 
L 349.87997 327.067753 
L 349.953942 94.968305 
L 350.042709 237.006974 
L 350.200516 341.247356 
L 350.38298 348.679098 
L 350.476678 349.112533 
L 350.525993 349.024205 
L 350.659143 348.171678 
L 351.186811 342.576522 
L 351.714479 338.485168 
L 352.301324 335.690354 
L 352.370365 335.153674 
L 352.390091 326.881329 
L 352.464063 95.202869 
L 352.55283 237.34301 
L 352.710637 341.198974 
L 352.893101 348.685851 
L 352.9868 349.132517 
L 353.036114 349.049447 
L 353.169264 348.207406 
L 353.682138 342.782019 
L 354.214737 338.61634 
L 354.79172 335.860401 
L 354.885418 334.979351 
L 354.905144 321.463739 
L 354.974184 95.485224 
L 355.043225 187.448834 
L 355.220758 341.002574 
L 355.403223 348.649958 
L 355.501852 349.120622 
L 355.546235 349.045722 
L 355.674454 348.262002 
L 356.123218 343.523132 
L 356.670612 338.999458 
L 357.218006 336.27817 
L 357.395539 335.194973 
L 357.415265 324.084387 
L 357.489237 95.459235 
L 357.563209 206.703862 
L 357.725948 340.174081 
L 357.908412 348.537865 
L 358.011973 349.094183 
L 358.056357 349.027287 
L 358.179643 348.299627 
L 358.588956 344.009616 
L 359.151144 339.223598 
L 359.688675 336.484771 
L 359.90566 335.343052 
L 359.925386 327.94805 
L 359.999358 95.6564 
L 360.093056 245.866306 
L 360.245932 340.922959 
L 360.428396 348.633942 
L 360.527026 349.123116 
L 360.576341 349.038408 
L 360.709491 348.198631 
L 361.24209 342.626383 
L 361.774689 338.5741 
L 362.425644 334.89323 
L 362.44537 317.104809 
L 362.514411 95.505924 
L 362.583451 190.605658 
L 362.756053 340.532213 
L 362.938518 348.598866 
L 363.042079 349.131881 
L 363.086462 349.059237 
L 363.21468 348.28046 
L 363.663444 343.556445 
L 364.210838 339.050586 
L 364.758232 336.337263 
L 364.935765 335.228033 
L 364.955491 323.45209 
L 365.029463 95.746295 
L 365.098504 195.416306 
L 365.261243 339.511834 
L 365.443707 348.447373 
L 365.557131 349.084404 
L 365.596583 349.022709 
L 365.71987 348.306154 
L 366.124251 344.088572 
L 366.691371 339.262274 
L 366.799863 338.600356 
L 366.942876 347.715047 
L 367.145066 349.459328 
L 367.322599 349.639352 
L 367.495201 349.456852 
L 367.776295 348.813938 
L 367.796021 348.17129 
L 367.820678 324.36211 
L 367.894651 99.201717 
L 367.95876 184.646844 
L 368.136293 346.1144 
L 368.323689 356.016608 
L 368.511085 357.394444 
L 368.585057 357.307483 
L 368.747796 356.589357 
L 370.044774 349.746627 
L 370.70066 347.515225 
L 370.720386 337.084721 
L 370.79929 97.653298 
L 370.888056 240.951607 
L 371.045864 346.52918 
L 371.23326 355.753765 
L 371.420656 357.005475 
L 371.494628 356.893196 
L 371.672161 356.043461 
L 372.840921 349.538168 
L 373.580642 346.879355 
L 373.600368 335.156426 
L 373.679272 96.585271 
L 373.758175 222.110403 
L 373.920914 346.15597 
L 374.10831 355.56459 
L 374.295706 356.830678 
L 374.369678 356.717552 
L 374.547211 355.855676 
L 375.720903 349.216175 
L 376.44583 346.472999 
L 376.465555 334.143876 
L 376.544459 96.098511 
L 376.623363 223.74656 
L 376.78117 340.171718 
L 377.017881 340.713128 
L 377.091853 340.615146 
L 377.106647 339.728941 
L 377.126373 310.912169 
L 377.185551 66.96 
L 377.264454 196.61159 
L 377.441988 352.640864 
L 377.614589 356.336862 
L 377.678698 356.460613 
L 377.732945 356.374023 
L 377.880889 355.596344 
L 378.344448 351.483641 
L 378.926362 347.300781 
L 379.444167 345.087396 
L 379.779507 343.624189 
L 379.799233 331.826809 
L 379.868274 75.573204 
L 379.952109 222.78655 
L 380.104985 351.062564 
L 380.277586 356.631739 
L 380.381147 356.98565 
L 380.42553 356.926478 
L 380.55868 356.315991 
L 380.948267 353.117369 
L 381.574564 348.66204 
L 382.102232 346.414671 
L 382.531271 344.738637 
L 382.550996 333.747388 
L 382.624969 81.404279 
L 382.708804 231.137136 
L 382.861679 350.303771 
L 383.039213 356.536785 
L 383.157568 356.998966 
L 383.192088 356.962484 
L 383.310444 356.49898 
L 383.640853 354.008784 
L 384.321396 349.287784 
L 384.858927 347.060681 
L 385.317554 345.381403 
L 385.33728 336.210441 
L 385.396458 115.237838 
L 385.416184 85.986179 
L 385.480293 185.706309 
L 385.662758 350.490825 
L 385.840291 356.442476 
L 385.963578 356.9427 
L 385.998098 356.908652 
L 386.116453 356.461119 
L 386.451794 354.021861 
L 387.127406 349.538815 
L 387.669868 347.369919 
L 388.123564 345.837363 
L 388.14329 338.78871 
L 388.197536 168.107607 
L 388.222194 88.735679 
L 388.301097 215.199482 
L 388.458904 348.425949 
L 388.636437 356.120774 
L 388.784382 356.907289 
L 388.809039 356.891799 
L 388.907669 356.592868 
L 389.169037 354.872509 
L 389.967936 349.599897 
L 390.51533 347.491199 
L 390.9493 345.850749 
L 390.969026 334.654489 
L 391.047929 91.152044 
L 391.126833 225.189071 
L 391.28464 348.178602 
L 391.467105 356.063119 
L 391.61998 356.865439 
L 391.639706 356.853192 
L 391.738336 356.566344 
L 391.994772 354.91564 
L 392.803534 349.671657 
L 393.35586 347.583576 
L 393.775035 346.191806 
L 393.794761 339.342572 
L 393.849007 176.997769 
L 393.878596 92.548889 
L 393.952568 212.619901 
L 394.115307 347.621672 
L 394.297772 355.904975 
L 394.46051 356.814729 
L 394.475305 356.806811 
L 394.564071 356.578042 
L 394.795851 355.173236 
L 395.678585 349.556227 
L 396.235842 347.534831 
L 396.393649 347.083384 
L 396.541593 333.521869 
L 396.610634 329.314229 
L 396.655017 213.372379 
L 396.689537 88.262803 
L 396.763509 200.488836 
L 396.926248 339.295489 
L 397.09885 345.654706 
L 397.162959 345.859066 
L 397.217205 345.719943 
L 397.36515 344.502954 
L 398.652265 331.535137 
L 398.992537 329.524197 
L 399.012262 318.335636 
L 399.081303 90.454561 
L 399.155275 200.690067 
L 399.318014 339.607069 
L 399.490616 346.470811 
L 399.564588 346.758299 
L 399.618834 346.629578 
L 399.766778 345.458083 
L 401.053893 332.924487 
L 401.418823 330.824337 
L 401.438548 319.322866 
L 401.507589 92.296691 
L 401.581561 199.514244 
L 401.7443 339.266577 
L 401.921833 346.705539 
L 402.000737 347.03874 
L 402.054983 346.917353 
L 402.197996 345.831232 
L 403.509768 333.556616 
L 403.859903 331.487657 
L 403.879629 318.320197 
L 403.94867 93.570748 
L 404.01771 189.663117 
L 404.190312 339.680464 
L 404.367845 346.869484 
L 404.446749 347.214236 
L 404.500995 347.102554 
L 404.644008 346.044236 
L 405.960712 333.964573 
L 406.305915 332.057403 
L 406.325641 322.779739 
L 406.399613 94.339297 
L 406.478517 218.651737 
L 406.636324 339.208654 
L 406.813857 346.875896 
L 406.902624 347.290364 
L 406.951938 347.188814 
L 407.09002 346.20136 
L 408.451107 334.033944 
L 408.76179 332.155905 
L 408.781516 318.731646 
L 408.850556 94.782608 
L 408.919597 189.159291 
L 409.092199 339.417592 
L 409.269732 346.940116 
L 409.358498 347.35176 
L 409.407813 347.251505 
L 409.545895 346.271772 
L 410.906982 334.186518 
L 411.217665 332.35616 
L 411.237391 319.605177 
L 411.306431 95.076093 
L 411.375472 188.213837 
L 411.548074 339.275102 
L 411.725607 346.942389 
L 411.814373 347.373196 
L 411.863688 347.280006 
L 411.996838 346.361053 
L 412.5393 340.181074 
L 413.062037 335.912121 
L 413.678471 332.198818 
L 413.698197 313.988652 
L 413.767238 95.203264 
L 413.836278 192.151746 
L 414.003949 338.896516 
L 414.181482 346.918207 
L 414.27518 347.395065 
L 414.324495 347.299704 
L 414.457644 346.378587 
L 415.014901 340.05951 
L 415.532706 335.898456 
L 416.139278 332.042982 
L 416.159003 304.28726 
L 416.223113 95.379765 
L 416.297085 197.312451 
L 416.459823 338.454929 
L 416.637357 346.832376 
L 416.735986 347.356637 
L 416.780369 347.276641 
L 416.908588 346.429373 
L 417.367215 341.209635 
L 417.904746 336.48772 
L 418.45214 333.596568 
L 418.595152 332.541166 
L 418.614878 319.706957 
L 418.683919 95.476145 
L 418.75296 188.100992 
L 418.925561 339.109596 
L 419.103094 346.912846 
L 419.196793 347.38054 
L 419.246107 347.284086 
L 419.384189 346.319087 
L 420.745276 334.394127 
L 421.055959 332.553824 
L 421.075685 319.5642 
L 421.144725 95.530133 
L 421.213766 188.271769 
L 421.386368 339.087594 
L 421.563901 346.905424 
L 421.657599 347.380659 
L 421.706914 347.286935 
L 421.840064 346.373179 
L 422.39732 340.098869 
L 422.915125 335.963519 
L 423.521697 331.945847 
L 423.541423 301.146091 
L 423.605532 95.563087 
L 423.679504 199.283191 
L 423.842243 338.455862 
L 424.019776 346.832011 
L 424.118405 347.373361 
L 424.16772 347.282198 
L 424.30087 346.373148 
L 424.848264 340.207753 
L 425.371 336.004735 
L 425.982503 332.031636 
L 425.987435 332.054127 
L 426.026886 248.015705 
L 426.07127 99.530267 
L 426.150173 218.872766 
L 426.312912 346.873426 
L 426.500308 356.746093 
L 426.687704 358.094294 
L 426.761676 358.005913 
L 426.929346 357.273157 
L 428.196736 350.696708 
L 428.936457 347.988045 
L 428.961114 324.804024 
L 429.035087 98.639554 
L 429.099196 184.660824 
L 429.28166 346.667872 
L 429.469056 355.975389 
L 429.656453 357.269104 
L 429.730425 357.169044 
L 429.903026 356.379097 
L 431.116169 349.849742 
L 431.836165 347.115763 
L 431.860822 322.384491 
L 431.934794 97.212989 
L 431.998903 186.475128 
L 432.176437 346.182677 
L 432.363833 355.673047 
L 432.551229 356.965028 
L 432.625201 356.85951 
L 432.797803 356.047182 
L 434.006014 349.36773 
L 434.711215 346.710365 
L 434.735873 322.976749 
L 434.809845 96.447977 
L 434.873954 186.647563 
L 435.051487 346.216552 
L 435.238883 355.554056 
L 435.426279 356.8076 
L 435.500251 356.692231 
L 435.677784 355.827435 
L 435.845455 354.694582 
L 435.845455 354.694582 
" style="fill:none;stroke:#ff0000;stroke-linecap:square;stroke-width:1.5;"/>
   </g>
   <g id="patch_3">
    <path d="M 63 384.48 
L 63 51.84 
" style="fill:none;stroke:#000000;stroke-linecap:square;stroke-linejoin:miter;stroke-width:0.8;"/>
   </g>
   <g id="patch_4">
    <path d="M 453.6 384.48 
L 453.6 51.84 
" style="fill:none;stroke:#000000;stroke-linecap:square;stroke-linejoin:miter;stroke-width:0.8;"/>
   </g>
   <g id="patch_5">
    <path d="M 63 384.48 
L 453.6 384.48 
" style="fill:none;stroke:#000000;stroke-linecap:square;stroke-linejoin:miter;stroke-width:0.8;"/>
   </g>
   <g id="patch_6">
    <path d="M 63 51.84 
L 453.6 51.84 
" style="fill:none;stroke:#000000;stroke-linecap:square;stroke-linejoin:miter;stroke-width:0.8;"/>
   </g>
   <g id="legend_1">
    <g id="patch_7">
     <path d="M 383.460938 74.518125 
L 446.6 74.518125 
Q 448.6 74.518125 448.6 72.518125 
L 448.6 58.84 
Q 448.6 56.84 446.6 56.84 
L 383.460938 56.84 
Q 381.460938 56.84 381.460938 58.84 
L 381.460938 72.518125 
Q 381.460938 74.518125 383.460938 74.518125 
z
" style="fill:#ffffff;opacity:0.8;stroke:#cccccc;stroke-linejoin:miter;"/>
    </g>
    <g id="line2d_14">
     <path d="M 385.460938 64.938438 
L 405.460938 64.938438 
" style="fill:none;stroke:#ff0000;stroke-linecap:square;stroke-width:1.5;"/>
    </g>
    <g id="line2d_15"/>
    <g id="text_15">
     <!-- model -->
     <defs>
      <path d="M 45.40625 46.390625 
L 45.40625 75.984375 
L 54.390625 75.984375 
L 54.390625 0 
L 45.40625 0 
L 45.40625 8.203125 
Q 42.578125 3.328125 38.25 0.953125 
Q 33.9375 -1.421875 27.875 -1.421875 
Q 17.96875 -1.421875 11.734375 6.484375 
Q 5.515625 14.40625 5.515625 27.296875 
Q 5.515625 40.1875 11.734375 48.09375 
Q 17.96875 56 27.875 56 
Q 33.9375 56 38.25 53.625 
Q 42.578125 51.265625 45.40625 46.390625 
z
M 14.796875 27.296875 
Q 14.796875 17.390625 18.875 11.75 
Q 22.953125 6.109375 30.078125 6.109375 
Q 37.203125 6.109375 41.296875 11.75 
Q 45.40625 17.390625 45.40625 27.296875 
Q 45.40625 37.203125 41.296875 42.84375 
Q 37.203125 48.484375 30.078125 48.484375 
Q 22.953125 48.484375 18.875 42.84375 
Q 14.796875 37.203125 14.796875 27.296875 
z
" id="DejaVuSans-64"/>
     </defs>
     <g transform="translate(413.460938 68.438438)scale(0.1 -0.1)">
      <use xlink:href="#DejaVuSans-6d"/>
      <use x="97.412109" xlink:href="#DejaVuSans-6f"/>
      <use x="158.59375" xlink:href="#DejaVuSans-64"/>
      <use x="222.070312" xlink:href="#DejaVuSans-65"/>
      <use x="283.59375" xlink:href="#DejaVuSans-6c"/>
     </g>
    </g>
   </g>
  </g>
 </g>
 <defs>
  <clipPath id="pf1cd269422">
   <rect height="332.64" width="390.6" x="63" y="51.84"/>
  </clipPath>
 </defs>
</svg>
