<?xml version="1.0" encoding="utf-8" standalone="no"?>
<!DOCTYPE svg PUBLIC "-//W3C//DTD SVG 1.1//EN"
  "http://www.w3.org/Graphics/SVG/1.1/DTD/svg11.dtd">
<!-- Created with matplotlib (http://matplotlib.org/) -->
<svg height="432pt" version="1.1" viewBox="0 0 504 432" width="504pt" xmlns="http://www.w3.org/2000/svg" xmlns:xlink="http://www.w3.org/1999/xlink">
 <defs>
  <style type="text/css">
*{stroke-linecap:butt;stroke-linejoin:round;}
  </style>
 </defs>
 <g id="figure_1">
  <g id="patch_1">
   <path d="M 0 432 
L 504 432 
L 504 0 
L 0 0 
z
" style="fill:#ffffff;"/>
  </g>
  <g id="axes_1">
   <g id="patch_2">
    <path d="M 63 384.48 
L 453.6 384.48 
L 453.6 51.84 
L 63 51.84 
z
" style="fill:#ffffff;"/>
   </g>
   <g id="matplotlib.axis_1">
    <g id="xtick_1">
     <g id="line2d_1">
      <defs>
       <path d="M 0 0 
L 0 3.5 
" id="m3d7673b7f2" style="stroke:#000000;stroke-width:0.8;"/>
      </defs>
      <g>
       <use style="stroke:#000000;stroke-width:0.8;" x="80.754545" xlink:href="#m3d7673b7f2" y="384.48"/>
      </g>
     </g>
     <g id="text_1">
      <!-- 0 -->
      <defs>
       <path d="M 31.78125 66.40625 
Q 24.171875 66.40625 20.328125 58.90625 
Q 16.5 51.421875 16.5 36.375 
Q 16.5 21.390625 20.328125 13.890625 
Q 24.171875 6.390625 31.78125 6.390625 
Q 39.453125 6.390625 43.28125 13.890625 
Q 47.125 21.390625 47.125 36.375 
Q 47.125 51.421875 43.28125 58.90625 
Q 39.453125 66.40625 31.78125 66.40625 
z
M 31.78125 74.21875 
Q 44.046875 74.21875 50.515625 64.515625 
Q 56.984375 54.828125 56.984375 36.375 
Q 56.984375 17.96875 50.515625 8.265625 
Q 44.046875 -1.421875 31.78125 -1.421875 
Q 19.53125 -1.421875 13.0625 8.265625 
Q 6.59375 17.96875 6.59375 36.375 
Q 6.59375 54.828125 13.0625 64.515625 
Q 19.53125 74.21875 31.78125 74.21875 
z
" id="DejaVuSans-30"/>
      </defs>
      <g transform="translate(77.573295 399.078438)scale(0.1 -0.1)">
       <use xlink:href="#DejaVuSans-30"/>
      </g>
     </g>
    </g>
    <g id="xtick_2">
     <g id="line2d_2">
      <g>
       <use style="stroke:#000000;stroke-width:0.8;" x="151.772727" xlink:href="#m3d7673b7f2" y="384.48"/>
      </g>
     </g>
     <g id="text_2">
      <!-- 200 -->
      <defs>
       <path d="M 19.1875 8.296875 
L 53.609375 8.296875 
L 53.609375 0 
L 7.328125 0 
L 7.328125 8.296875 
Q 12.9375 14.109375 22.625 23.890625 
Q 32.328125 33.6875 34.8125 36.53125 
Q 39.546875 41.84375 41.421875 45.53125 
Q 43.3125 49.21875 43.3125 52.78125 
Q 43.3125 58.59375 39.234375 62.25 
Q 35.15625 65.921875 28.609375 65.921875 
Q 23.96875 65.921875 18.8125 64.3125 
Q 13.671875 62.703125 7.8125 59.421875 
L 7.8125 69.390625 
Q 13.765625 71.78125 18.9375 73 
Q 24.125 74.21875 28.421875 74.21875 
Q 39.75 74.21875 46.484375 68.546875 
Q 53.21875 62.890625 53.21875 53.421875 
Q 53.21875 48.921875 51.53125 44.890625 
Q 49.859375 40.875 45.40625 35.40625 
Q 44.1875 33.984375 37.640625 27.21875 
Q 31.109375 20.453125 19.1875 8.296875 
z
" id="DejaVuSans-32"/>
      </defs>
      <g transform="translate(142.228977 399.078438)scale(0.1 -0.1)">
       <use xlink:href="#DejaVuSans-32"/>
       <use x="63.623047" xlink:href="#DejaVuSans-30"/>
       <use x="127.246094" xlink:href="#DejaVuSans-30"/>
      </g>
     </g>
    </g>
    <g id="xtick_3">
     <g id="line2d_3">
      <g>
       <use style="stroke:#000000;stroke-width:0.8;" x="222.790909" xlink:href="#m3d7673b7f2" y="384.48"/>
      </g>
     </g>
     <g id="text_3">
      <!-- 400 -->
      <defs>
       <path d="M 37.796875 64.3125 
L 12.890625 25.390625 
L 37.796875 25.390625 
z
M 35.203125 72.90625 
L 47.609375 72.90625 
L 47.609375 25.390625 
L 58.015625 25.390625 
L 58.015625 17.1875 
L 47.609375 17.1875 
L 47.609375 0 
L 37.796875 0 
L 37.796875 17.1875 
L 4.890625 17.1875 
L 4.890625 26.703125 
z
" id="DejaVuSans-34"/>
      </defs>
      <g transform="translate(213.247159 399.078438)scale(0.1 -0.1)">
       <use xlink:href="#DejaVuSans-34"/>
       <use x="63.623047" xlink:href="#DejaVuSans-30"/>
       <use x="127.246094" xlink:href="#DejaVuSans-30"/>
      </g>
     </g>
    </g>
    <g id="xtick_4">
     <g id="line2d_4">
      <g>
       <use style="stroke:#000000;stroke-width:0.8;" x="293.809091" xlink:href="#m3d7673b7f2" y="384.48"/>
      </g>
     </g>
     <g id="text_4">
      <!-- 600 -->
      <defs>
       <path d="M 33.015625 40.375 
Q 26.375 40.375 22.484375 35.828125 
Q 18.609375 31.296875 18.609375 23.390625 
Q 18.609375 15.53125 22.484375 10.953125 
Q 26.375 6.390625 33.015625 6.390625 
Q 39.65625 6.390625 43.53125 10.953125 
Q 47.40625 15.53125 47.40625 23.390625 
Q 47.40625 31.296875 43.53125 35.828125 
Q 39.65625 40.375 33.015625 40.375 
z
M 52.59375 71.296875 
L 52.59375 62.3125 
Q 48.875 64.0625 45.09375 64.984375 
Q 41.3125 65.921875 37.59375 65.921875 
Q 27.828125 65.921875 22.671875 59.328125 
Q 17.53125 52.734375 16.796875 39.40625 
Q 19.671875 43.65625 24.015625 45.921875 
Q 28.375 48.1875 33.59375 48.1875 
Q 44.578125 48.1875 50.953125 41.515625 
Q 57.328125 34.859375 57.328125 23.390625 
Q 57.328125 12.15625 50.6875 5.359375 
Q 44.046875 -1.421875 33.015625 -1.421875 
Q 20.359375 -1.421875 13.671875 8.265625 
Q 6.984375 17.96875 6.984375 36.375 
Q 6.984375 53.65625 15.1875 63.9375 
Q 23.390625 74.21875 37.203125 74.21875 
Q 40.921875 74.21875 44.703125 73.484375 
Q 48.484375 72.75 52.59375 71.296875 
z
" id="DejaVuSans-36"/>
      </defs>
      <g transform="translate(284.265341 399.078438)scale(0.1 -0.1)">
       <use xlink:href="#DejaVuSans-36"/>
       <use x="63.623047" xlink:href="#DejaVuSans-30"/>
       <use x="127.246094" xlink:href="#DejaVuSans-30"/>
      </g>
     </g>
    </g>
    <g id="xtick_5">
     <g id="line2d_5">
      <g>
       <use style="stroke:#000000;stroke-width:0.8;" x="364.827273" xlink:href="#m3d7673b7f2" y="384.48"/>
      </g>
     </g>
     <g id="text_5">
      <!-- 800 -->
      <defs>
       <path d="M 31.78125 34.625 
Q 24.75 34.625 20.71875 30.859375 
Q 16.703125 27.09375 16.703125 20.515625 
Q 16.703125 13.921875 20.71875 10.15625 
Q 24.75 6.390625 31.78125 6.390625 
Q 38.8125 6.390625 42.859375 10.171875 
Q 46.921875 13.96875 46.921875 20.515625 
Q 46.921875 27.09375 42.890625 30.859375 
Q 38.875 34.625 31.78125 34.625 
z
M 21.921875 38.8125 
Q 15.578125 40.375 12.03125 44.71875 
Q 8.5 49.078125 8.5 55.328125 
Q 8.5 64.0625 14.71875 69.140625 
Q 20.953125 74.21875 31.78125 74.21875 
Q 42.671875 74.21875 48.875 69.140625 
Q 55.078125 64.0625 55.078125 55.328125 
Q 55.078125 49.078125 51.53125 44.71875 
Q 48 40.375 41.703125 38.8125 
Q 48.828125 37.15625 52.796875 32.3125 
Q 56.78125 27.484375 56.78125 20.515625 
Q 56.78125 9.90625 50.3125 4.234375 
Q 43.84375 -1.421875 31.78125 -1.421875 
Q 19.734375 -1.421875 13.25 4.234375 
Q 6.78125 9.90625 6.78125 20.515625 
Q 6.78125 27.484375 10.78125 32.3125 
Q 14.796875 37.15625 21.921875 38.8125 
z
M 18.3125 54.390625 
Q 18.3125 48.734375 21.84375 45.5625 
Q 25.390625 42.390625 31.78125 42.390625 
Q 38.140625 42.390625 41.71875 45.5625 
Q 45.3125 48.734375 45.3125 54.390625 
Q 45.3125 60.0625 41.71875 63.234375 
Q 38.140625 66.40625 31.78125 66.40625 
Q 25.390625 66.40625 21.84375 63.234375 
Q 18.3125 60.0625 18.3125 54.390625 
z
" id="DejaVuSans-38"/>
      </defs>
      <g transform="translate(355.283523 399.078438)scale(0.1 -0.1)">
       <use xlink:href="#DejaVuSans-38"/>
       <use x="63.623047" xlink:href="#DejaVuSans-30"/>
       <use x="127.246094" xlink:href="#DejaVuSans-30"/>
      </g>
     </g>
    </g>
    <g id="text_6">
     <!-- time [ms] -->
     <defs>
      <path d="M 18.3125 70.21875 
L 18.3125 54.6875 
L 36.8125 54.6875 
L 36.8125 47.703125 
L 18.3125 47.703125 
L 18.3125 18.015625 
Q 18.3125 11.328125 20.140625 9.421875 
Q 21.96875 7.515625 27.59375 7.515625 
L 36.8125 7.515625 
L 36.8125 0 
L 27.59375 0 
Q 17.1875 0 13.234375 3.875 
Q 9.28125 7.765625 9.28125 18.015625 
L 9.28125 47.703125 
L 2.6875 47.703125 
L 2.6875 54.6875 
L 9.28125 54.6875 
L 9.28125 70.21875 
z
" id="DejaVuSans-74"/>
      <path d="M 9.421875 54.6875 
L 18.40625 54.6875 
L 18.40625 0 
L 9.421875 0 
z
M 9.421875 75.984375 
L 18.40625 75.984375 
L 18.40625 64.59375 
L 9.421875 64.59375 
z
" id="DejaVuSans-69"/>
      <path d="M 52 44.1875 
Q 55.375 50.25 60.0625 53.125 
Q 64.75 56 71.09375 56 
Q 79.640625 56 84.28125 50.015625 
Q 88.921875 44.046875 88.921875 33.015625 
L 88.921875 0 
L 79.890625 0 
L 79.890625 32.71875 
Q 79.890625 40.578125 77.09375 44.375 
Q 74.3125 48.1875 68.609375 48.1875 
Q 61.625 48.1875 57.5625 43.546875 
Q 53.515625 38.921875 53.515625 30.90625 
L 53.515625 0 
L 44.484375 0 
L 44.484375 32.71875 
Q 44.484375 40.625 41.703125 44.40625 
Q 38.921875 48.1875 33.109375 48.1875 
Q 26.21875 48.1875 22.15625 43.53125 
Q 18.109375 38.875 18.109375 30.90625 
L 18.109375 0 
L 9.078125 0 
L 9.078125 54.6875 
L 18.109375 54.6875 
L 18.109375 46.1875 
Q 21.1875 51.21875 25.484375 53.609375 
Q 29.78125 56 35.6875 56 
Q 41.65625 56 45.828125 52.96875 
Q 50 49.953125 52 44.1875 
z
" id="DejaVuSans-6d"/>
      <path d="M 56.203125 29.59375 
L 56.203125 25.203125 
L 14.890625 25.203125 
Q 15.484375 15.921875 20.484375 11.0625 
Q 25.484375 6.203125 34.421875 6.203125 
Q 39.59375 6.203125 44.453125 7.46875 
Q 49.3125 8.734375 54.109375 11.28125 
L 54.109375 2.78125 
Q 49.265625 0.734375 44.1875 -0.34375 
Q 39.109375 -1.421875 33.890625 -1.421875 
Q 20.796875 -1.421875 13.15625 6.1875 
Q 5.515625 13.8125 5.515625 26.8125 
Q 5.515625 40.234375 12.765625 48.109375 
Q 20.015625 56 32.328125 56 
Q 43.359375 56 49.78125 48.890625 
Q 56.203125 41.796875 56.203125 29.59375 
z
M 47.21875 32.234375 
Q 47.125 39.59375 43.09375 43.984375 
Q 39.0625 48.390625 32.421875 48.390625 
Q 24.90625 48.390625 20.390625 44.140625 
Q 15.875 39.890625 15.1875 32.171875 
z
" id="DejaVuSans-65"/>
      <path id="DejaVuSans-20"/>
      <path d="M 8.59375 75.984375 
L 29.296875 75.984375 
L 29.296875 69 
L 17.578125 69 
L 17.578125 -6.203125 
L 29.296875 -6.203125 
L 29.296875 -13.1875 
L 8.59375 -13.1875 
z
" id="DejaVuSans-5b"/>
      <path d="M 44.28125 53.078125 
L 44.28125 44.578125 
Q 40.484375 46.53125 36.375 47.5 
Q 32.28125 48.484375 27.875 48.484375 
Q 21.1875 48.484375 17.84375 46.4375 
Q 14.5 44.390625 14.5 40.28125 
Q 14.5 37.15625 16.890625 35.375 
Q 19.28125 33.59375 26.515625 31.984375 
L 29.59375 31.296875 
Q 39.15625 29.25 43.1875 25.515625 
Q 47.21875 21.78125 47.21875 15.09375 
Q 47.21875 7.46875 41.1875 3.015625 
Q 35.15625 -1.421875 24.609375 -1.421875 
Q 20.21875 -1.421875 15.453125 -0.5625 
Q 10.6875 0.296875 5.421875 2 
L 5.421875 11.28125 
Q 10.40625 8.6875 15.234375 7.390625 
Q 20.0625 6.109375 24.8125 6.109375 
Q 31.15625 6.109375 34.5625 8.28125 
Q 37.984375 10.453125 37.984375 14.40625 
Q 37.984375 18.0625 35.515625 20.015625 
Q 33.0625 21.96875 24.703125 23.78125 
L 21.578125 24.515625 
Q 13.234375 26.265625 9.515625 29.90625 
Q 5.8125 33.546875 5.8125 39.890625 
Q 5.8125 47.609375 11.28125 51.796875 
Q 16.75 56 26.8125 56 
Q 31.78125 56 36.171875 55.265625 
Q 40.578125 54.546875 44.28125 53.078125 
z
" id="DejaVuSans-73"/>
      <path d="M 30.421875 75.984375 
L 30.421875 -13.1875 
L 9.71875 -13.1875 
L 9.71875 -6.203125 
L 21.390625 -6.203125 
L 21.390625 69 
L 9.71875 69 
L 9.71875 75.984375 
z
" id="DejaVuSans-5d"/>
     </defs>
     <g transform="translate(234.038281 412.756563)scale(0.1 -0.1)">
      <use xlink:href="#DejaVuSans-74"/>
      <use x="39.208984" xlink:href="#DejaVuSans-69"/>
      <use x="66.992188" xlink:href="#DejaVuSans-6d"/>
      <use x="164.404297" xlink:href="#DejaVuSans-65"/>
      <use x="225.927734" xlink:href="#DejaVuSans-20"/>
      <use x="257.714844" xlink:href="#DejaVuSans-5b"/>
      <use x="296.728516" xlink:href="#DejaVuSans-6d"/>
      <use x="394.140625" xlink:href="#DejaVuSans-73"/>
      <use x="446.240234" xlink:href="#DejaVuSans-5d"/>
     </g>
    </g>
   </g>
   <g id="matplotlib.axis_2">
    <g id="ytick_1">
     <g id="line2d_6">
      <defs>
       <path d="M 0 0 
L -3.5 0 
" id="me1608094e7" style="stroke:#000000;stroke-width:0.8;"/>
      </defs>
      <g>
       <use style="stroke:#000000;stroke-width:0.8;" x="63" xlink:href="#me1608094e7" y="381.798661"/>
      </g>
     </g>
     <g id="text_7">
      <!-- −80 -->
      <defs>
       <path d="M 10.59375 35.5 
L 73.1875 35.5 
L 73.1875 27.203125 
L 10.59375 27.203125 
z
" id="DejaVuSans-2212"/>
      </defs>
      <g transform="translate(34.895313 385.59788)scale(0.1 -0.1)">
       <use xlink:href="#DejaVuSans-2212"/>
       <use x="83.789062" xlink:href="#DejaVuSans-38"/>
       <use x="147.412109" xlink:href="#DejaVuSans-30"/>
      </g>
     </g>
    </g>
    <g id="ytick_2">
     <g id="line2d_7">
      <g>
       <use style="stroke:#000000;stroke-width:0.8;" x="63" xlink:href="#me1608094e7" y="329.519877"/>
      </g>
     </g>
     <g id="text_8">
      <!-- −60 -->
      <g transform="translate(34.895313 333.319095)scale(0.1 -0.1)">
       <use xlink:href="#DejaVuSans-2212"/>
       <use x="83.789062" xlink:href="#DejaVuSans-36"/>
       <use x="147.412109" xlink:href="#DejaVuSans-30"/>
      </g>
     </g>
    </g>
    <g id="ytick_3">
     <g id="line2d_8">
      <g>
       <use style="stroke:#000000;stroke-width:0.8;" x="63" xlink:href="#me1608094e7" y="277.241092"/>
      </g>
     </g>
     <g id="text_9">
      <!-- −40 -->
      <g transform="translate(34.895313 281.040311)scale(0.1 -0.1)">
       <use xlink:href="#DejaVuSans-2212"/>
       <use x="83.789062" xlink:href="#DejaVuSans-34"/>
       <use x="147.412109" xlink:href="#DejaVuSans-30"/>
      </g>
     </g>
    </g>
    <g id="ytick_4">
     <g id="line2d_9">
      <g>
       <use style="stroke:#000000;stroke-width:0.8;" x="63" xlink:href="#me1608094e7" y="224.962308"/>
      </g>
     </g>
     <g id="text_10">
      <!-- −20 -->
      <g transform="translate(34.895313 228.761527)scale(0.1 -0.1)">
       <use xlink:href="#DejaVuSans-2212"/>
       <use x="83.789062" xlink:href="#DejaVuSans-32"/>
       <use x="147.412109" xlink:href="#DejaVuSans-30"/>
      </g>
     </g>
    </g>
    <g id="ytick_5">
     <g id="line2d_10">
      <g>
       <use style="stroke:#000000;stroke-width:0.8;" x="63" xlink:href="#me1608094e7" y="172.683523"/>
      </g>
     </g>
     <g id="text_11">
      <!-- 0 -->
      <g transform="translate(49.6375 176.482742)scale(0.1 -0.1)">
       <use xlink:href="#DejaVuSans-30"/>
      </g>
     </g>
    </g>
    <g id="ytick_6">
     <g id="line2d_11">
      <g>
       <use style="stroke:#000000;stroke-width:0.8;" x="63" xlink:href="#me1608094e7" y="120.404739"/>
      </g>
     </g>
     <g id="text_12">
      <!-- 20 -->
      <g transform="translate(43.275 124.203958)scale(0.1 -0.1)">
       <use xlink:href="#DejaVuSans-32"/>
       <use x="63.623047" xlink:href="#DejaVuSans-30"/>
      </g>
     </g>
    </g>
    <g id="ytick_7">
     <g id="line2d_12">
      <g>
       <use style="stroke:#000000;stroke-width:0.8;" x="63" xlink:href="#me1608094e7" y="68.125955"/>
      </g>
     </g>
     <g id="text_13">
      <!-- 40 -->
      <g transform="translate(43.275 71.925174)scale(0.1 -0.1)">
       <use xlink:href="#DejaVuSans-34"/>
       <use x="63.623047" xlink:href="#DejaVuSans-30"/>
      </g>
     </g>
    </g>
    <g id="text_14">
     <!-- voltage [mV] -->
     <defs>
      <path d="M 2.984375 54.6875 
L 12.5 54.6875 
L 29.59375 8.796875 
L 46.6875 54.6875 
L 56.203125 54.6875 
L 35.6875 0 
L 23.484375 0 
z
" id="DejaVuSans-76"/>
      <path d="M 30.609375 48.390625 
Q 23.390625 48.390625 19.1875 42.75 
Q 14.984375 37.109375 14.984375 27.296875 
Q 14.984375 17.484375 19.15625 11.84375 
Q 23.34375 6.203125 30.609375 6.203125 
Q 37.796875 6.203125 41.984375 11.859375 
Q 46.1875 17.53125 46.1875 27.296875 
Q 46.1875 37.015625 41.984375 42.703125 
Q 37.796875 48.390625 30.609375 48.390625 
z
M 30.609375 56 
Q 42.328125 56 49.015625 48.375 
Q 55.71875 40.765625 55.71875 27.296875 
Q 55.71875 13.875 49.015625 6.21875 
Q 42.328125 -1.421875 30.609375 -1.421875 
Q 18.84375 -1.421875 12.171875 6.21875 
Q 5.515625 13.875 5.515625 27.296875 
Q 5.515625 40.765625 12.171875 48.375 
Q 18.84375 56 30.609375 56 
z
" id="DejaVuSans-6f"/>
      <path d="M 9.421875 75.984375 
L 18.40625 75.984375 
L 18.40625 0 
L 9.421875 0 
z
" id="DejaVuSans-6c"/>
      <path d="M 34.28125 27.484375 
Q 23.390625 27.484375 19.1875 25 
Q 14.984375 22.515625 14.984375 16.5 
Q 14.984375 11.71875 18.140625 8.90625 
Q 21.296875 6.109375 26.703125 6.109375 
Q 34.1875 6.109375 38.703125 11.40625 
Q 43.21875 16.703125 43.21875 25.484375 
L 43.21875 27.484375 
z
M 52.203125 31.203125 
L 52.203125 0 
L 43.21875 0 
L 43.21875 8.296875 
Q 40.140625 3.328125 35.546875 0.953125 
Q 30.953125 -1.421875 24.3125 -1.421875 
Q 15.921875 -1.421875 10.953125 3.296875 
Q 6 8.015625 6 15.921875 
Q 6 25.140625 12.171875 29.828125 
Q 18.359375 34.515625 30.609375 34.515625 
L 43.21875 34.515625 
L 43.21875 35.40625 
Q 43.21875 41.609375 39.140625 45 
Q 35.0625 48.390625 27.6875 48.390625 
Q 23 48.390625 18.546875 47.265625 
Q 14.109375 46.140625 10.015625 43.890625 
L 10.015625 52.203125 
Q 14.9375 54.109375 19.578125 55.046875 
Q 24.21875 56 28.609375 56 
Q 40.484375 56 46.34375 49.84375 
Q 52.203125 43.703125 52.203125 31.203125 
z
" id="DejaVuSans-61"/>
      <path d="M 45.40625 27.984375 
Q 45.40625 37.75 41.375 43.109375 
Q 37.359375 48.484375 30.078125 48.484375 
Q 22.859375 48.484375 18.828125 43.109375 
Q 14.796875 37.75 14.796875 27.984375 
Q 14.796875 18.265625 18.828125 12.890625 
Q 22.859375 7.515625 30.078125 7.515625 
Q 37.359375 7.515625 41.375 12.890625 
Q 45.40625 18.265625 45.40625 27.984375 
z
M 54.390625 6.78125 
Q 54.390625 -7.171875 48.1875 -13.984375 
Q 42 -20.796875 29.203125 -20.796875 
Q 24.46875 -20.796875 20.265625 -20.09375 
Q 16.0625 -19.390625 12.109375 -17.921875 
L 12.109375 -9.1875 
Q 16.0625 -11.328125 19.921875 -12.34375 
Q 23.78125 -13.375 27.78125 -13.375 
Q 36.625 -13.375 41.015625 -8.765625 
Q 45.40625 -4.15625 45.40625 5.171875 
L 45.40625 9.625 
Q 42.625 4.78125 38.28125 2.390625 
Q 33.9375 0 27.875 0 
Q 17.828125 0 11.671875 7.65625 
Q 5.515625 15.328125 5.515625 27.984375 
Q 5.515625 40.671875 11.671875 48.328125 
Q 17.828125 56 27.875 56 
Q 33.9375 56 38.28125 53.609375 
Q 42.625 51.21875 45.40625 46.390625 
L 45.40625 54.6875 
L 54.390625 54.6875 
z
" id="DejaVuSans-67"/>
      <path d="M 28.609375 0 
L 0.78125 72.90625 
L 11.078125 72.90625 
L 34.1875 11.53125 
L 57.328125 72.90625 
L 67.578125 72.90625 
L 39.796875 0 
z
" id="DejaVuSans-56"/>
     </defs>
     <g transform="translate(28.815625 250.624062)rotate(-90)scale(0.1 -0.1)">
      <use xlink:href="#DejaVuSans-76"/>
      <use x="59.179688" xlink:href="#DejaVuSans-6f"/>
      <use x="120.361328" xlink:href="#DejaVuSans-6c"/>
      <use x="148.144531" xlink:href="#DejaVuSans-74"/>
      <use x="187.353516" xlink:href="#DejaVuSans-61"/>
      <use x="248.632812" xlink:href="#DejaVuSans-67"/>
      <use x="312.109375" xlink:href="#DejaVuSans-65"/>
      <use x="373.632812" xlink:href="#DejaVuSans-20"/>
      <use x="405.419922" xlink:href="#DejaVuSans-5b"/>
      <use x="444.433594" xlink:href="#DejaVuSans-6d"/>
      <use x="541.845703" xlink:href="#DejaVuSans-56"/>
      <use x="610.253906" xlink:href="#DejaVuSans-5d"/>
     </g>
    </g>
   </g>
   <g id="line2d_13">
    <path clip-path="url(#peccbfe9ab2)" d="M 80.754545 342.589573 
L 81.961855 342.453648 
L 83.781695 342.511154 
L 87.776468 342.517689 
L 151.772727 342.520826 
L 152.314241 298.183712 
L 152.420768 249.751862 
L 152.562805 68.973394 
L 152.678209 94.085508 
L 153.565936 368.966311 
L 153.610323 368.866197 
L 153.8145 367.493094 
L 154.293873 362.75925 
L 154.959668 353.676073 
L 157.42755 314.947427 
L 157.613973 303.866677 
L 157.738255 281.992972 
L 157.835905 219.698096 
L 157.969064 93.23258 
L 158.031205 106.329983 
L 158.883423 368.543637 
L 158.945564 368.360922 
L 159.203005 366.390012 
L 159.717886 360.740767 
L 160.534595 348.86355 
L 161.8218 330.809071 
L 162.514227 320.485841 
L 162.771668 312.996644 
L 162.940336 301.055385 
L 163.064618 273.205954 
L 163.162268 189.159522 
L 163.268795 94.149027 
L 163.322059 103.622465 
L 163.863573 297.906634 
L 164.147645 368.367718 
L 164.183155 368.512008 
L 164.245295 368.331385 
L 164.493859 366.435756 
L 165.008741 360.806115 
L 165.834327 348.806304 
L 167.112655 330.883307 
L 167.813959 320.450553 
L 168.0714 312.951684 
L 168.240068 300.971217 
L 168.36435 272.960767 
L 168.462 188.417033 
L 168.568527 94.225615 
L 168.621791 103.843604 
L 169.172182 301.84192 
L 169.4385 368.282243 
L 169.482886 368.509917 
L 169.545027 368.325373 
L 169.802468 366.346359 
L 170.31735 360.679339 
L 171.151814 348.51851 
L 172.430141 330.641518 
L 173.113691 320.432255 
L 173.371132 312.91535 
L 173.5398 300.875808 
L 173.664082 272.624091 
L 173.761732 187.270533 
L 173.868259 94.242344 
L 173.921523 104.078598 
L 174.480791 305.896139 
L 174.729355 368.173241 
L 174.782618 368.509917 
L 174.844759 368.32119 
L 175.1022 366.33904 
L 175.617082 360.668622 
L 176.451545 348.505701 
L 177.729873 330.630801 
L 178.413423 320.415526 
L 178.670864 312.87954 
L 178.839532 300.779092 
L 178.963814 272.278529 
L 179.061464 186.09047 
L 179.167991 94.259596 
L 179.221255 104.316205 
L 179.7894 310.053087 
L 180.029086 368.185527 
L 180.08235 368.510178 
L 180.144491 368.316747 
L 180.401932 366.331721 
L 180.916814 360.658166 
L 181.751277 348.493416 
L 183.029605 330.620345 
L 183.713155 320.398536 
L 183.970595 312.843467 
L 184.139264 300.681331 
L 184.263545 271.924863 
L 184.361195 184.889652 
L 184.467723 94.283383 
L 184.520986 104.557471 
L 185.098009 314.301522 
L 185.328818 368.197551 
L 185.382082 368.510178 
L 185.444223 368.312564 
L 185.701664 366.324141 
L 186.216545 360.64771 
L 187.051009 348.480869 
L 188.329336 330.609889 
L 189.012886 320.381806 
L 189.270327 312.807133 
L 189.438995 300.582001 
L 189.563277 271.565969 
L 189.660927 183.684051 
L 189.767455 94.312921 
L 189.820718 104.80109 
L 190.406618 318.621841 
L 190.619673 368.06424 
L 190.681814 368.509917 
L 190.743955 368.308121 
L 191.010273 366.23579 
L 191.525155 360.522764 
L 192.368495 348.196472 
L 193.637945 330.48442 
L 194.312618 320.364554 
L 194.570059 312.7708 
L 194.738727 300.482149 
L 194.863009 271.203677 
L 194.969536 169.169997 
L 195.058309 94.29959 
L 195.12045 105.047323 
L 195.715227 322.988165 
L 195.919405 368.079662 
L 195.981545 368.509917 
L 196.043686 368.303677 
L 196.310005 366.228209 
L 196.833764 360.397295 
L 197.703736 347.64101 
L 198.955432 330.244199 
L 199.61235 320.347564 
L 199.869791 312.733943 
L 200.038459 300.381251 
L 200.162741 270.834066 
L 200.269268 167.911882 
L 200.358041 94.270313 
L 200.420182 105.297739 
L 201.023836 327.363638 
L 201.219136 368.0943 
L 201.281277 368.509394 
L 201.343418 368.299233 
L 201.609736 366.220629 
L 202.133495 360.386316 
L 202.994591 347.763865 
L 204.255164 330.233482 
L 204.912082 320.33005 
L 205.169523 312.696564 
L 205.338191 300.278784 
L 205.462473 270.456874 
L 205.569 166.645324 
L 205.657773 94.248095 
L 205.719914 105.549984 
L 206.332445 331.700425 
L 206.518868 368.108938 
L 206.581009 368.509133 
L 206.634273 368.341056 
L 206.873959 366.533517 
L 207.388841 360.945438 
L 208.187795 349.382417 
L 209.510509 330.796002 
L 210.202936 320.496297 
L 210.460377 313.05023 
L 210.629045 301.2381 
L 210.753327 273.909888 
L 210.850977 191.709524 
L 210.957505 94.232934 
L 211.019645 105.803275 
L 211.641055 335.944678 
L 211.827477 368.254012 
L 211.880741 368.50861 
L 211.934005 368.336874 
L 212.182568 366.446735 
L 212.69745 360.821799 
L 213.514159 348.961311 
L 214.810241 330.785285 
L 215.502668 320.479306 
L 215.760109 313.014419 
L 215.928777 301.142168 
L 216.053059 273.571906 
L 216.150709 190.535343 
L 216.257236 94.226661 
L 216.319377 106.056043 
L 216.949664 340.03314 
L 217.127209 368.264468 
L 217.171595 368.509133 
L 217.233736 368.332692 
L 217.4823 366.439415 
L 217.997182 360.811343 
L 218.822768 348.812578 
L 220.101095 330.889058 
L 220.8024 320.462316 
L 221.059841 312.978869 
L 221.228509 301.046498 
L 221.352791 273.232616 
L 221.450441 189.361737 
L 221.556968 94.227183 
L 221.610232 103.659322 
L 222.151745 297.961788 
L 222.426941 368.274401 
L 222.471327 368.509394 
L 222.533468 368.328509 
L 222.782032 366.432096 
L 223.296914 360.800887 
L 224.1225 348.799769 
L 225.418582 330.649621 
L 226.111009 320.261042 
L 226.36845 312.547831 
L 226.537118 299.867089 
L 226.652523 272.890713 
L 226.750173 188.183451 
L 226.8567 94.233196 
L 226.909964 103.895883 
L 227.460355 301.91694 
L 227.726673 368.284072 
L 227.771059 368.509917 
L 227.8332 368.324327 
L 228.090641 366.344529 
L 228.605523 360.676725 
L 229.439986 348.515373 
L 230.718314 330.638904 
L 231.401864 320.428335 
L 231.659305 312.906986 
L 231.827973 300.853851 
L 231.952255 272.546457 
L 232.049905 187.004957 
L 232.156432 94.246004 
L 232.209695 104.132183 
L 232.768964 305.974296 
L 233.017527 368.176117 
L 233.070791 368.509917 
L 233.132932 368.320145 
L 233.390373 366.33721 
L 233.905255 360.666269 
L 234.739718 348.502826 
L 236.018045 330.628448 
L 236.701595 320.411605 
L 236.959036 312.871436 
L 237.127705 300.757135 
L 237.251986 272.199065 
L 237.349636 185.819718 
L 237.456164 94.264301 
L 237.509427 104.370836 
L 238.077573 310.133596 
L 238.317259 368.188141 
L 238.370523 368.510178 
L 238.432664 368.315962 
L 238.690105 366.329891 
L 239.204986 360.655814 
L 240.03945 348.49054 
L 241.317777 330.617992 
L 242.001327 320.394876 
L 242.258768 312.835364 
L 242.427436 300.658851 
L 242.551718 271.843569 
L 242.649368 184.616104 
L 242.755895 94.289657 
L 242.809159 104.612625 
L 243.386182 314.383862 
L 243.616991 368.200165 
L 243.670255 368.510178 
L 243.732395 368.311519 
L 243.989836 366.322572 
L 244.504718 360.645358 
L 245.348059 348.342069 
L 246.617509 330.607275 
L 247.301059 320.377886 
L 247.5585 312.79903 
L 247.727168 300.55926 
L 247.85145 271.484152 
L 247.9491 183.409326 
L 248.055627 94.320762 
L 248.108891 104.856767 
L 248.694791 318.70601 
L 248.907845 368.0679 
L 248.969986 368.509917 
L 249.032127 368.307336 
L 249.298445 366.234221 
L 249.822205 360.40566 
L 250.692177 347.650943 
L 251.943873 330.252564 
L 252.600791 320.360634 
L 252.858232 312.762435 
L 253.0269 300.459146 
L 253.151182 271.120031 
L 253.257709 168.883562 
L 253.346482 94.292271 
L 253.408623 105.104307 
L 254.0034 323.073902 
L 254.207577 368.08306 
L 254.269718 368.509655 
L 254.331859 368.302893 
L 254.598177 366.226641 
L 255.121936 360.394681 
L 255.983032 347.773798 
L 257.22585 330.47135 
L 257.900523 320.343643 
L 258.157964 312.725578 
L 258.326632 300.357986 
L 258.450914 270.74859 
L 258.557441 167.622859 
L 258.646214 94.264563 
L 258.708355 105.355507 
L 259.312009 327.449375 
L 259.507309 368.097699 
L 259.56945 368.509394 
L 259.631591 368.298188 
L 259.897909 366.218799 
L 260.421668 360.383964 
L 261.291641 347.625588 
L 262.525582 330.460633 
L 263.200255 320.32613 
L 263.457695 312.688199 
L 263.626364 300.255259 
L 263.750645 270.370092 
L 263.857173 166.355778 
L 263.945945 94.243913 
L 264.008086 105.607752 
L 264.620618 331.784855 
L 264.807041 368.112337 
L 264.869182 368.508871 
L 264.922445 368.340272 
L 265.171009 366.452485 
L 265.685891 360.830163 
L 266.511477 348.835058 
L 267.807559 330.679159 
L 268.499986 320.308878 
L 268.757427 312.65082 
L 268.926095 300.152531 
L 269.050377 269.991593 
L 269.156905 165.098133 
L 269.245677 94.230843 
L 269.298941 103.242398 
L 269.8227 290.433382 
L 270.133405 368.422088 
L 270.168914 368.50861 
L 270.222177 368.33609 
L 270.470741 366.445166 
L 270.985623 360.819446 
L 271.802332 348.958436 
L 273.098414 330.782932 
L 273.790841 320.475385 
L 274.048282 313.006316 
L 274.21695 301.120473 
L 274.341232 273.494533 
L 274.438882 190.266735 
L 274.545409 94.226399 
L 274.598673 103.477392 
L 275.131309 294.184646 
L 275.424259 368.360399 
L 275.459768 368.509133 
L 275.521909 368.331907 
L 275.770473 366.437847 
L 276.285355 360.80899 
L 277.110941 348.809702 
L 278.389268 330.886705 
L 279.090573 320.458395 
L 279.348014 312.970505 
L 279.516682 301.024541 
L 279.640964 273.154721 
L 279.738614 189.093024 
L 279.845141 94.227706 
L 279.898405 103.71343 
L 280.439918 298.037331 
L 280.715114 368.276492 
L 280.7595 368.509655 
L 280.821641 368.327725 
L 281.079082 366.35028 
L 281.593964 360.684828 
L 282.428427 348.525044 
L 283.706755 330.647007 
L 284.390305 320.441404 
L 284.647745 312.934694 
L 284.816414 300.928348 
L 284.940695 272.812295 
L 285.038345 187.914634 
L 285.144873 94.235548 
L 285.198136 103.94973 
L 285.748527 301.993528 
L 286.014845 368.286164 
L 286.059232 368.509917 
L 286.121373 368.323281 
L 286.378814 366.342961 
L 286.893695 360.674373 
L 287.728159 348.512498 
L 289.006486 330.636551 
L 289.690036 320.424675 
L 289.947477 312.898883 
L 290.116145 300.831894 
L 290.240427 272.467516 
L 290.338077 186.73525 
L 290.444605 94.249663 
L 290.497868 104.186292 
L 291.057136 306.053237 
L 291.3057 368.178992 
L 291.358964 368.510178 
L 291.421105 368.319099 
L 291.678545 366.335642 
L 292.193427 360.663917 
L 293.027891 348.499951 
L 294.315095 330.511344 
L 294.989768 320.407684 
L 295.247209 312.863072 
L 295.415877 300.734917 
L 295.540159 272.118556 
L 295.637809 185.546117 
L 295.744336 94.269529 
L 295.7976 104.425729 
L 296.365745 310.214628 
L 296.605432 368.191016 
L 296.658695 368.510178 
L 296.720836 368.314917 
L 296.978277 366.328323 
L 297.493159 360.653461 
L 298.327623 348.487665 
L 299.60595 330.61564 
L 300.2895 320.390955 
L 300.546941 312.826999 
L 300.715609 300.63611 
L 300.839891 271.762014 
L 300.937541 184.342163 
L 301.044068 94.296191 
L 301.097332 104.667779 
L 301.674355 314.466201 
L 301.905164 368.202779 
L 301.958427 368.510178 
L 302.020568 368.310735 
L 302.286886 366.239972 
L 302.810645 360.413763 
L 303.671741 347.796278 
L 304.914559 330.490432 
L 305.589232 320.373965 
L 305.846673 312.790666 
L 306.015341 300.53678 
L 306.139623 271.402075 
L 306.24615 169.85119 
L 306.334923 94.318149 
L 306.397064 104.912706 
L 306.982964 318.790179 
L 307.196018 368.071298 
L 307.258159 368.509917 
L 307.3203 368.306291 
L 307.586618 366.232391 
L 308.110377 360.403046 
L 308.971473 347.783731 
L 310.214291 330.479715 
L 310.888964 320.356974 
L 311.146405 312.75407 
L 311.315073 300.436405 
L 311.439355 271.036123 
L 311.545882 168.598146 
L 311.634655 94.285474 
L 311.696795 105.16103 
L 312.291573 323.159117 
L 312.49575 368.086459 
L 312.557891 368.509655 
L 312.620032 368.301847 
L 312.88635 366.224811 
L 313.410109 360.392328 
L 314.280082 347.63526 
L 315.531777 330.239233 
L 316.188695 320.339461 
L 316.446136 312.716952 
L 316.614805 300.334722 
L 316.739086 270.663376 
L 316.845614 167.334933 
L 316.934386 94.259335 
L 316.996527 105.412752 
L 317.600182 327.534851 
L 317.795482 368.101097 
L 317.857623 368.509394 
L 317.910886 368.343409 
L 318.150573 366.537438 
L 318.665455 360.951189 
L 319.464409 349.389213 
L 320.787123 330.802014 
L 321.488427 320.322209 
L 321.745868 312.679573 
L 321.914536 300.231733 
L 322.038818 270.28357 
L 322.145345 166.067617 
L 322.234118 94.240253 
L 322.296259 105.66552 
L 322.908791 331.869024 
L 323.095214 368.115735 
L 323.157355 368.508871 
L 323.210618 368.339226 
L 323.459182 366.450917 
L 323.974064 360.827549 
L 324.790773 348.968107 
L 326.095732 330.676545 
L 326.779282 320.488455 
L 327.036723 313.034023 
L 327.205391 301.194447 
L 327.329673 273.755927 
L 327.427323 191.17419 
L 327.53385 94.229013 
L 327.595991 105.918549 
L 328.2174 336.107265 
L 328.403823 368.258717 
L 328.457086 368.508348 
L 328.51035 368.335044 
L 328.758914 366.443336 
L 329.273795 360.817094 
L 329.318182 360.24438 
L 329.335936 361.142006 
L 329.531236 365.122513 
L 329.620009 365.309932 
L 329.664395 365.252687 
L 329.815309 364.647299 
L 330.214786 361.837053 
L 332.176664 347.115086 
L 332.869091 343.900725 
L 333.428359 342.249238 
L 333.889977 341.507925 
L 334.262823 341.281557 
L 334.617914 341.321551 
L 335.097286 341.636008 
L 336.464386 342.661195 
L 337.059164 342.787448 
L 337.849241 342.723406 
L 339.891014 342.474821 
L 342.065945 342.521872 
L 345.732259 342.518735 
L 435.845455 342.520826 
L 435.845455 342.520826 
" style="fill:none;stroke:#1f77b4;stroke-linecap:square;stroke-width:1.5;"/>
   </g>
   <g id="line2d_14">
    <path clip-path="url(#peccbfe9ab2)" d="M 80.754545 342.589573 
L 81.251673 344.582481 
L 81.686659 345.54136 
L 82.04175 345.849149 
L 82.379086 345.856668 
L 82.814073 345.618233 
L 84.909109 344.183917 
L 85.637045 344.115078 
L 86.8266 344.27283 
L 88.442264 344.419547 
L 92.206227 344.361092 
L 124.830205 344.369459 
L 151.772727 344.369459 
L 152.314241 300.279941 
L 152.420768 256.517154 
L 152.571682 66.96 
L 152.704841 98.629394 
L 153.583691 369.36 
L 153.636955 369.219958 
L 153.876641 367.629785 
L 154.356014 362.999143 
L 155.012932 354.180908 
L 157.392041 317.029827 
L 157.596218 307.091509 
L 157.738255 286.921498 
L 157.844782 228.822343 
L 157.977941 92.550343 
L 158.057836 108.89775 
L 158.910055 368.935819 
L 158.927809 368.908573 
L 159.052091 368.247191 
L 159.469323 364.600414 
L 160.055223 357.349644 
L 162.531982 320.853413 
L 162.789423 313.218524 
L 162.958091 301.133235 
L 163.082373 273.072977 
L 163.180023 188.539048 
L 163.28655 93.495845 
L 163.339814 103.215509 
L 163.899082 306.285533 
L 164.147645 368.5388 
L 164.209786 368.904897 
L 164.26305 368.749645 
L 164.502736 367.057994 
L 164.999864 361.965324 
L 165.710045 352.056849 
L 168.044768 314.961883 
L 168.231191 303.885064 
L 168.36435 279.449882 
L 168.462 211.423761 
L 168.586282 93.580697 
L 168.648423 106.225589 
L 169.500641 368.902325 
L 169.562782 368.74278 
L 169.802468 367.047057 
L 170.299595 361.949563 
L 171.018655 351.901986 
L 173.3445 314.920081 
L 173.530923 303.778202 
L 173.664082 279.081712 
L 173.761732 210.081601 
L 173.886014 93.609107 
L 173.948155 106.570741 
L 174.800373 368.902781 
L 174.862514 368.737499 
L 175.111077 366.963148 
L 175.608205 361.828686 
L 176.327264 351.74993 
L 178.102718 326.39222 
L 178.51995 318.702872 
L 178.741882 310.360468 
L 178.892795 295.754774 
L 179.0082 257.83231 
L 179.185745 93.645035 
L 179.310027 129.40271 
L 180.029086 368.250005 
L 180.100105 368.903146 
L 180.162245 368.732301 
L 180.410809 366.953955 
L 180.907936 361.815471 
L 181.635873 351.598077 
L 183.366941 326.892647 
L 183.810805 318.900309 
L 184.041614 310.297171 
L 184.192527 295.575054 
L 184.307932 257.145792 
L 184.4766 93.650522 
L 184.600882 126.38994 
L 185.328818 368.275797 
L 185.399836 368.903372 
L 185.461977 368.727039 
L 185.719418 366.869325 
L 186.225423 361.585411 
L 186.962236 351.174991 
L 188.622286 327.511009 
L 189.092782 319.310915 
L 189.323591 311.22249 
L 189.483382 296.817843 
L 189.598786 261.829158 
L 189.723068 119.183252 
L 189.776332 93.61233 
L 189.838473 104.82829 
L 190.451005 332.406015 
L 190.637427 368.478117 
L 190.699568 368.90343 
L 190.761709 368.721674 
L 191.01915 366.859911 
L 191.525155 361.571869 
L 192.261968 351.158137 
L 193.913141 327.620882 
L 194.392514 319.28428 
L 194.623323 311.163847 
L 194.783114 296.646916 
L 194.898518 261.194035 
L 195.0228 118.027497 
L 195.076064 93.585739 
L 195.138205 105.165285 
L 195.759614 336.760659 
L 195.946036 368.628976 
L 195.9993 368.903332 
L 196.061441 368.716299 
L 196.318882 366.850552 
L 196.824886 361.558411 
L 197.570577 351.005732 
L 199.203995 327.730489 
L 199.683368 319.471174 
L 199.923055 311.104652 
L 200.082845 296.473509 
L 200.19825 260.547594 
L 200.375795 93.572464 
L 200.508955 131.118569 
L 201.219136 368.136164 
L 201.299032 368.903071 
L 201.352295 368.753302 
L 201.591982 367.066056 
L 202.089109 361.977 
L 202.799291 352.071597 
L 205.134014 315.004811 
L 205.320436 304.000072 
L 205.453595 279.852372 
L 205.551245 212.904407 
L 205.675527 93.572654 
L 205.737668 105.854411 
L 206.598764 368.902608 
L 206.660905 368.705217 
L 206.927223 366.755192 
L 207.433227 361.421609 
L 208.187795 350.700141 
L 209.776827 328.072217 
L 210.273955 319.628606 
L 210.513641 311.45744 
L 210.673432 297.490028 
L 210.788836 264.284152 
L 210.904241 135.235974 
L 210.975259 93.584774 
L 211.0374 106.20185 
L 211.889618 368.902109 
L 211.951759 368.742971 
L 212.191445 367.047498 
L 212.688573 361.950201 
L 213.407632 351.902793 
L 215.733477 314.922564 
L 215.9199 303.784911 
L 216.053059 279.105396 
L 216.150709 210.168829 
L 216.274991 93.607605 
L 216.337132 106.549057 
L 217.18935 368.902739 
L 217.251491 368.737812 
L 217.500055 366.963712 
L 217.997182 361.829497 
L 218.716241 351.750947 
L 220.491695 326.393209 
L 220.908927 318.704608 
L 221.130859 310.364397 
L 221.281773 295.765931 
L 221.397177 257.874919 
L 221.574723 93.642585 
L 221.699005 129.376305 
L 222.418064 368.248385 
L 222.489082 368.903126 
L 222.551223 368.732623 
L 222.799786 366.954524 
L 223.296914 361.816289 
L 224.02485 351.599103 
L 225.755918 326.893621 
L 226.199782 318.902013 
L 226.430591 310.301112 
L 226.581505 295.586296 
L 226.696909 257.188798 
L 226.865577 93.653288 
L 226.989859 126.363737 
L 227.717795 368.274201 
L 227.788814 368.903362 
L 227.850955 368.72737 
L 228.108395 366.869909 
L 228.6144 361.586252 
L 229.351214 351.176037 
L 231.011264 327.511978 
L 231.481759 319.312567 
L 231.712568 311.226122 
L 231.872359 296.828362 
L 231.987764 261.868062 
L 232.103168 129.564795 
L 232.165309 93.614383 
L 232.22745 104.807392 
L 232.839982 332.375627 
L 233.026405 368.476915 
L 233.088545 368.903431 
L 233.150686 368.722009 
L 233.408127 366.860496 
L 233.914132 361.572711 
L 234.650945 351.159184 
L 236.302118 327.621849 
L 236.781491 319.285945 
L 237.0123 311.167518 
L 237.172091 296.657652 
L 237.287495 261.234006 
L 237.411777 118.099217 
L 237.465041 93.587046 
L 237.527182 105.144076 
L 238.148591 336.731093 
L 238.335014 368.628086 
L 238.388277 368.903343 
L 238.450418 368.716637 
L 238.707859 366.851139 
L 239.213864 361.559255 
L 239.959555 351.006782 
L 241.592973 327.731456 
L 242.072345 319.472813 
L 242.312032 311.108361 
L 242.471823 296.484383 
L 242.587227 260.588192 
L 242.764773 93.572783 
L 242.897932 131.091658 
L 243.608114 368.134289 
L 243.688009 368.903091 
L 243.741273 368.753619 
L 243.980959 367.066633 
L 244.478086 361.977832 
L 245.188268 352.072647 
L 247.522991 315.007355 
L 247.709414 304.006715 
L 247.842573 279.875336 
L 247.940223 212.988335 
L 248.064505 93.572355 
L 248.126645 105.832857 
L 248.987741 368.902643 
L 249.049882 368.705565 
L 249.3162 366.755788 
L 249.822205 361.422462 
L 250.576773 350.701198 
L 252.165805 328.073178 
L 252.662932 319.630223 
L 252.902618 311.461025 
L 253.062409 297.500202 
L 253.177814 264.320969 
L 253.293218 135.327408 
L 253.364236 93.583665 
L 253.426377 106.180334 
L 254.287473 368.902047 
L 254.340736 368.743291 
L 254.580423 367.048068 
L 255.07755 361.951024 
L 255.796609 351.903831 
L 258.122455 314.925111 
L 258.308877 303.791585 
L 258.442036 279.128668 
L 258.539686 210.254102 
L 258.663968 93.605816 
L 258.726109 106.527463 
L 259.578327 368.902709 
L 259.640468 368.738136 
L 259.889032 366.964287 
L 260.386159 361.830324 
L 261.105218 351.751986 
L 262.880673 326.394212 
L 263.297905 318.706358 
L 263.519836 310.368345 
L 263.67075 295.777109 
L 263.786155 257.917534 
L 263.9637 93.640136 
L 264.087982 129.349878 
L 264.807041 368.246763 
L 264.878059 368.903106 
L 264.9402 368.732947 
L 265.188764 366.955095 
L 265.685891 361.81711 
L 266.413827 351.600134 
L 268.144895 326.894598 
L 268.588759 318.903722 
L 268.819568 310.30506 
L 268.970482 295.597522 
L 269.085886 257.231716 
L 269.254555 93.656096 
L 269.378836 126.337577 
L 270.106773 368.272606 
L 270.177791 368.903353 
L 270.239932 368.727701 
L 270.497373 366.870493 
L 271.003377 361.587091 
L 271.740191 351.177082 
L 273.400241 327.512945 
L 273.870736 319.314216 
L 274.110423 310.746732 
L 274.270214 295.415852 
L 274.385618 256.534502 
L 274.554286 93.616492 
L 274.678568 126.759811 
L 275.406505 368.297958 
L 275.477523 368.903432 
L 275.530786 368.763922 
L 275.761595 367.159162 
L 276.258723 362.111807 
L 276.960027 352.376762 
L 279.312505 315.091323 
L 279.498927 304.225677 
L 279.632086 280.630181 
L 279.729736 215.75046 
L 279.854018 93.588411 
L 279.925036 107.934326 
L 280.777255 368.903352 
L 280.812764 368.831027 
L 280.981432 367.78331 
L 281.44305 363.434898 
L 282.073336 355.149387 
L 284.550095 317.11166 
L 284.754273 307.80274 
L 284.896309 289.86982 
L 285.002836 241.700461 
L 285.15375 93.573153 
L 285.242523 114.371514 
L 286.059232 368.885155 
L 286.076986 368.90311 
L 286.121373 368.792674 
L 286.32555 367.429457 
L 286.804923 362.714224 
L 287.470718 353.682479 
L 289.885336 315.949128 
L 290.080636 305.627354 
L 290.213795 285.243865 
L 290.320323 223.366986 
L 290.453482 93.57209 
L 290.5245 108.662556 
L 291.376718 368.902677 
L 291.40335 368.852977 
L 291.554264 367.965066 
L 291.998127 363.899178 
L 292.610659 356.024054 
L 295.105173 318.30221 
L 295.327105 309.43917 
L 295.478018 293.049995 
L 295.584545 253.590478 
L 295.753214 93.582603 
L 295.868618 125.052823 
L 296.605432 368.392115 
L 296.67645 368.902086 
L 296.729714 368.743608 
L 296.9694 367.048635 
L 297.466527 361.951843 
L 298.185586 351.904863 
L 300.511432 314.927643 
L 300.697855 303.798219 
L 300.831014 279.151801 
L 300.928664 210.338859 
L 301.052945 93.604079 
L 301.115086 106.506018 
L 301.967305 368.902676 
L 302.029445 368.738456 
L 302.278009 366.964858 
L 302.775136 361.831146 
L 303.494195 351.753016 
L 305.26965 326.395206 
L 305.686882 318.708091 
L 305.908814 310.372252 
L 306.059727 295.788154 
L 306.175132 257.959602 
L 306.352677 93.637743 
L 306.476959 129.323792 
L 307.196018 368.245161 
L 307.267036 368.903087 
L 307.329177 368.733266 
L 307.577741 366.955659 
L 308.074868 361.817921 
L 308.802805 351.601151 
L 310.533873 326.895564 
L 310.977736 318.90541 
L 311.208545 310.308961 
L 311.359459 295.608604 
L 311.474864 257.274071 
L 311.643532 93.658911 
L 311.767814 126.311774 
L 312.49575 368.271032 
L 312.566768 368.903343 
L 312.628909 368.728027 
L 312.88635 366.871069 
L 313.392355 361.58792 
L 314.129168 351.178114 
L 315.789218 327.5139 
L 316.259714 319.315844 
L 316.4994 310.750473 
L 316.659191 295.427076 
L 316.774595 256.577666 
L 316.943264 93.61858 
L 317.067545 126.733833 
L 317.795482 368.296428 
L 317.8665 368.903433 
L 317.919764 368.764225 
L 318.150573 367.159721 
L 318.6477 362.112617 
L 319.349005 352.377788 
L 321.701482 315.0938 
L 321.887905 304.232115 
L 322.021064 280.652311 
L 322.118714 215.831404 
L 322.242995 93.589816 
L 322.314014 107.912243 
L 323.166232 368.90336 
L 323.201741 368.831265 
L 323.370409 367.783821 
L 323.832027 363.435652 
L 324.462314 355.150379 
L 326.939073 317.113693 
L 327.14325 307.807621 
L 327.285286 289.884914 
L 327.391814 241.75851 
L 327.542727 93.573633 
L 327.6315 114.347391 
L 328.448209 368.884982 
L 328.465964 368.903129 
L 328.51035 368.792955 
L 328.714527 367.43 
L 329.1939 362.715014 
L 329.318182 361.217644 
L 329.335936 362.128807 
L 329.540114 366.425538 
L 329.646641 366.699262 
L 329.691027 366.662103 
L 329.833064 366.217897 
L 330.179277 364.210998 
L 331.271182 356.090805 
L 332.274314 349.524385 
L 333.011127 346.070456 
L 333.605905 344.242368 
L 334.094155 343.381088 
L 334.493632 343.082353 
L 334.8576 343.077127 
L 335.310341 343.318389 
L 337.192323 344.572272 
L 337.911382 344.632571 
L 339.1542 344.461969 
L 340.752109 344.322014 
L 345.430432 344.373254 
L 364.853905 344.36946 
L 435.845455 344.369459 
L 435.845455 344.369459 
" style="fill:none;stroke:#ff0000;stroke-linecap:square;stroke-width:1.5;"/>
   </g>
   <g id="patch_3">
    <path d="M 63 384.48 
L 63 51.84 
" style="fill:none;stroke:#000000;stroke-linecap:square;stroke-linejoin:miter;stroke-width:0.8;"/>
   </g>
   <g id="patch_4">
    <path d="M 453.6 384.48 
L 453.6 51.84 
" style="fill:none;stroke:#000000;stroke-linecap:square;stroke-linejoin:miter;stroke-width:0.8;"/>
   </g>
   <g id="patch_5">
    <path d="M 63 384.48 
L 453.6 384.48 
" style="fill:none;stroke:#000000;stroke-linecap:square;stroke-linejoin:miter;stroke-width:0.8;"/>
   </g>
   <g id="patch_6">
    <path d="M 63 51.84 
L 453.6 51.84 
" style="fill:none;stroke:#000000;stroke-linecap:square;stroke-linejoin:miter;stroke-width:0.8;"/>
   </g>
   <g id="legend_1">
    <g id="patch_7">
     <path d="M 383.460938 89.19625 
L 446.6 89.19625 
Q 448.6 89.19625 448.6 87.19625 
L 448.6 58.84 
Q 448.6 56.84 446.6 56.84 
L 383.460938 56.84 
Q 381.460938 56.84 381.460938 58.84 
L 381.460938 87.19625 
Q 381.460938 89.19625 383.460938 89.19625 
z
" style="fill:#ffffff;opacity:0.8;stroke:#cccccc;stroke-linejoin:miter;"/>
    </g>
    <g id="line2d_15">
     <path d="M 385.460938 64.938437 
L 405.460938 64.938437 
" style="fill:none;stroke:#1f77b4;stroke-linecap:square;stroke-width:1.5;"/>
    </g>
    <g id="line2d_16"/>
    <g id="text_15">
     <!-- target -->
     <defs>
      <path d="M 41.109375 46.296875 
Q 39.59375 47.171875 37.8125 47.578125 
Q 36.03125 48 33.890625 48 
Q 26.265625 48 22.1875 43.046875 
Q 18.109375 38.09375 18.109375 28.8125 
L 18.109375 0 
L 9.078125 0 
L 9.078125 54.6875 
L 18.109375 54.6875 
L 18.109375 46.1875 
Q 20.953125 51.171875 25.484375 53.578125 
Q 30.03125 56 36.53125 56 
Q 37.453125 56 38.578125 55.875 
Q 39.703125 55.765625 41.0625 55.515625 
z
" id="DejaVuSans-72"/>
     </defs>
     <g transform="translate(413.460938 68.438437)scale(0.1 -0.1)">
      <use xlink:href="#DejaVuSans-74"/>
      <use x="39.208984" xlink:href="#DejaVuSans-61"/>
      <use x="100.488281" xlink:href="#DejaVuSans-72"/>
      <use x="141.585938" xlink:href="#DejaVuSans-67"/>
      <use x="205.0625" xlink:href="#DejaVuSans-65"/>
      <use x="266.585938" xlink:href="#DejaVuSans-74"/>
     </g>
    </g>
    <g id="line2d_17">
     <path d="M 385.460938 79.616562 
L 405.460938 79.616562 
" style="fill:none;stroke:#ff0000;stroke-linecap:square;stroke-width:1.5;"/>
    </g>
    <g id="line2d_18"/>
    <g id="text_16">
     <!-- model -->
     <defs>
      <path d="M 45.40625 46.390625 
L 45.40625 75.984375 
L 54.390625 75.984375 
L 54.390625 0 
L 45.40625 0 
L 45.40625 8.203125 
Q 42.578125 3.328125 38.25 0.953125 
Q 33.9375 -1.421875 27.875 -1.421875 
Q 17.96875 -1.421875 11.734375 6.484375 
Q 5.515625 14.40625 5.515625 27.296875 
Q 5.515625 40.1875 11.734375 48.09375 
Q 17.96875 56 27.875 56 
Q 33.9375 56 38.25 53.625 
Q 42.578125 51.265625 45.40625 46.390625 
z
M 14.796875 27.296875 
Q 14.796875 17.390625 18.875 11.75 
Q 22.953125 6.109375 30.078125 6.109375 
Q 37.203125 6.109375 41.296875 11.75 
Q 45.40625 17.390625 45.40625 27.296875 
Q 45.40625 37.203125 41.296875 42.84375 
Q 37.203125 48.484375 30.078125 48.484375 
Q 22.953125 48.484375 18.875 42.84375 
Q 14.796875 37.203125 14.796875 27.296875 
z
" id="DejaVuSans-64"/>
     </defs>
     <g transform="translate(413.460938 83.116562)scale(0.1 -0.1)">
      <use xlink:href="#DejaVuSans-6d"/>
      <use x="97.412109" xlink:href="#DejaVuSans-6f"/>
      <use x="158.59375" xlink:href="#DejaVuSans-64"/>
      <use x="222.070312" xlink:href="#DejaVuSans-65"/>
      <use x="283.59375" xlink:href="#DejaVuSans-6c"/>
     </g>
    </g>
   </g>
  </g>
 </g>
 <defs>
  <clipPath id="peccbfe9ab2">
   <rect height="332.64" width="390.6" x="63" y="51.84"/>
  </clipPath>
 </defs>
</svg>
