<?xml version="1.0" encoding="utf-8" standalone="no"?>
<!DOCTYPE svg PUBLIC "-//W3C//DTD SVG 1.1//EN"
  "http://www.w3.org/Graphics/SVG/1.1/DTD/svg11.dtd">
<!-- Created with matplotlib (http://matplotlib.org/) -->
<svg height="432pt" version="1.1" viewBox="0 0 504 432" width="504pt" xmlns="http://www.w3.org/2000/svg" xmlns:xlink="http://www.w3.org/1999/xlink">
 <defs>
  <style type="text/css">
*{stroke-linecap:butt;stroke-linejoin:round;}
  </style>
 </defs>
 <g id="figure_1">
  <g id="patch_1">
   <path d="M 0 432 
L 504 432 
L 504 0 
L 0 0 
z
" style="fill:#ffffff;"/>
  </g>
  <g id="axes_1">
   <g id="patch_2">
    <path d="M 63 384.48 
L 453.6 384.48 
L 453.6 51.84 
L 63 51.84 
z
" style="fill:#ffffff;"/>
   </g>
   <g id="matplotlib.axis_1">
    <g id="xtick_1">
     <g id="line2d_1">
      <defs>
       <path d="M 0 0 
L 0 3.5 
" id="m368a4ddaff" style="stroke:#000000;stroke-width:0.8;"/>
      </defs>
      <g>
       <use style="stroke:#000000;stroke-width:0.8;" x="80.754545" xlink:href="#m368a4ddaff" y="384.48"/>
      </g>
     </g>
     <g id="text_1">
      <!-- 0 -->
      <defs>
       <path d="M 31.78125 66.40625 
Q 24.171875 66.40625 20.328125 58.90625 
Q 16.5 51.421875 16.5 36.375 
Q 16.5 21.390625 20.328125 13.890625 
Q 24.171875 6.390625 31.78125 6.390625 
Q 39.453125 6.390625 43.28125 13.890625 
Q 47.125 21.390625 47.125 36.375 
Q 47.125 51.421875 43.28125 58.90625 
Q 39.453125 66.40625 31.78125 66.40625 
z
M 31.78125 74.21875 
Q 44.046875 74.21875 50.515625 64.515625 
Q 56.984375 54.828125 56.984375 36.375 
Q 56.984375 17.96875 50.515625 8.265625 
Q 44.046875 -1.421875 31.78125 -1.421875 
Q 19.53125 -1.421875 13.0625 8.265625 
Q 6.59375 17.96875 6.59375 36.375 
Q 6.59375 54.828125 13.0625 64.515625 
Q 19.53125 74.21875 31.78125 74.21875 
z
" id="DejaVuSans-30"/>
      </defs>
      <g transform="translate(77.573295 399.078438)scale(0.1 -0.1)">
       <use xlink:href="#DejaVuSans-30"/>
      </g>
     </g>
    </g>
    <g id="xtick_2">
     <g id="line2d_2">
      <g>
       <use style="stroke:#000000;stroke-width:0.8;" x="151.767796" xlink:href="#m368a4ddaff" y="384.48"/>
      </g>
     </g>
     <g id="text_2">
      <!-- 720 -->
      <defs>
       <path d="M 8.203125 72.90625 
L 55.078125 72.90625 
L 55.078125 68.703125 
L 28.609375 0 
L 18.3125 0 
L 43.21875 64.59375 
L 8.203125 64.59375 
z
" id="DejaVuSans-37"/>
       <path d="M 19.1875 8.296875 
L 53.609375 8.296875 
L 53.609375 0 
L 7.328125 0 
L 7.328125 8.296875 
Q 12.9375 14.109375 22.625 23.890625 
Q 32.328125 33.6875 34.8125 36.53125 
Q 39.546875 41.84375 41.421875 45.53125 
Q 43.3125 49.21875 43.3125 52.78125 
Q 43.3125 58.59375 39.234375 62.25 
Q 35.15625 65.921875 28.609375 65.921875 
Q 23.96875 65.921875 18.8125 64.3125 
Q 13.671875 62.703125 7.8125 59.421875 
L 7.8125 69.390625 
Q 13.765625 71.78125 18.9375 73 
Q 24.125 74.21875 28.421875 74.21875 
Q 39.75 74.21875 46.484375 68.546875 
Q 53.21875 62.890625 53.21875 53.421875 
Q 53.21875 48.921875 51.53125 44.890625 
Q 49.859375 40.875 45.40625 35.40625 
Q 44.1875 33.984375 37.640625 27.21875 
Q 31.109375 20.453125 19.1875 8.296875 
z
" id="DejaVuSans-32"/>
      </defs>
      <g transform="translate(142.224046 399.078438)scale(0.1 -0.1)">
       <use xlink:href="#DejaVuSans-37"/>
       <use x="63.623047" xlink:href="#DejaVuSans-32"/>
       <use x="127.246094" xlink:href="#DejaVuSans-30"/>
      </g>
     </g>
    </g>
    <g id="xtick_3">
     <g id="line2d_3">
      <g>
       <use style="stroke:#000000;stroke-width:0.8;" x="222.781046" xlink:href="#m368a4ddaff" y="384.48"/>
      </g>
     </g>
     <g id="text_3">
      <!-- 1440 -->
      <defs>
       <path d="M 12.40625 8.296875 
L 28.515625 8.296875 
L 28.515625 63.921875 
L 10.984375 60.40625 
L 10.984375 69.390625 
L 28.421875 72.90625 
L 38.28125 72.90625 
L 38.28125 8.296875 
L 54.390625 8.296875 
L 54.390625 0 
L 12.40625 0 
z
" id="DejaVuSans-31"/>
       <path d="M 37.796875 64.3125 
L 12.890625 25.390625 
L 37.796875 25.390625 
z
M 35.203125 72.90625 
L 47.609375 72.90625 
L 47.609375 25.390625 
L 58.015625 25.390625 
L 58.015625 17.1875 
L 47.609375 17.1875 
L 47.609375 0 
L 37.796875 0 
L 37.796875 17.1875 
L 4.890625 17.1875 
L 4.890625 26.703125 
z
" id="DejaVuSans-34"/>
      </defs>
      <g transform="translate(210.056046 399.078438)scale(0.1 -0.1)">
       <use xlink:href="#DejaVuSans-31"/>
       <use x="63.623047" xlink:href="#DejaVuSans-34"/>
       <use x="127.246094" xlink:href="#DejaVuSans-34"/>
       <use x="190.869141" xlink:href="#DejaVuSans-30"/>
      </g>
     </g>
    </g>
    <g id="xtick_4">
     <g id="line2d_4">
      <g>
       <use style="stroke:#000000;stroke-width:0.8;" x="293.794296" xlink:href="#m368a4ddaff" y="384.48"/>
      </g>
     </g>
     <g id="text_4">
      <!-- 2160 -->
      <defs>
       <path d="M 33.015625 40.375 
Q 26.375 40.375 22.484375 35.828125 
Q 18.609375 31.296875 18.609375 23.390625 
Q 18.609375 15.53125 22.484375 10.953125 
Q 26.375 6.390625 33.015625 6.390625 
Q 39.65625 6.390625 43.53125 10.953125 
Q 47.40625 15.53125 47.40625 23.390625 
Q 47.40625 31.296875 43.53125 35.828125 
Q 39.65625 40.375 33.015625 40.375 
z
M 52.59375 71.296875 
L 52.59375 62.3125 
Q 48.875 64.0625 45.09375 64.984375 
Q 41.3125 65.921875 37.59375 65.921875 
Q 27.828125 65.921875 22.671875 59.328125 
Q 17.53125 52.734375 16.796875 39.40625 
Q 19.671875 43.65625 24.015625 45.921875 
Q 28.375 48.1875 33.59375 48.1875 
Q 44.578125 48.1875 50.953125 41.515625 
Q 57.328125 34.859375 57.328125 23.390625 
Q 57.328125 12.15625 50.6875 5.359375 
Q 44.046875 -1.421875 33.015625 -1.421875 
Q 20.359375 -1.421875 13.671875 8.265625 
Q 6.984375 17.96875 6.984375 36.375 
Q 6.984375 53.65625 15.1875 63.9375 
Q 23.390625 74.21875 37.203125 74.21875 
Q 40.921875 74.21875 44.703125 73.484375 
Q 48.484375 72.75 52.59375 71.296875 
z
" id="DejaVuSans-36"/>
      </defs>
      <g transform="translate(281.069296 399.078438)scale(0.1 -0.1)">
       <use xlink:href="#DejaVuSans-32"/>
       <use x="63.623047" xlink:href="#DejaVuSans-31"/>
       <use x="127.246094" xlink:href="#DejaVuSans-36"/>
       <use x="190.869141" xlink:href="#DejaVuSans-30"/>
      </g>
     </g>
    </g>
    <g id="xtick_5">
     <g id="line2d_5">
      <g>
       <use style="stroke:#000000;stroke-width:0.8;" x="364.807547" xlink:href="#m368a4ddaff" y="384.48"/>
      </g>
     </g>
     <g id="text_5">
      <!-- 2880 -->
      <defs>
       <path d="M 31.78125 34.625 
Q 24.75 34.625 20.71875 30.859375 
Q 16.703125 27.09375 16.703125 20.515625 
Q 16.703125 13.921875 20.71875 10.15625 
Q 24.75 6.390625 31.78125 6.390625 
Q 38.8125 6.390625 42.859375 10.171875 
Q 46.921875 13.96875 46.921875 20.515625 
Q 46.921875 27.09375 42.890625 30.859375 
Q 38.875 34.625 31.78125 34.625 
z
M 21.921875 38.8125 
Q 15.578125 40.375 12.03125 44.71875 
Q 8.5 49.078125 8.5 55.328125 
Q 8.5 64.0625 14.71875 69.140625 
Q 20.953125 74.21875 31.78125 74.21875 
Q 42.671875 74.21875 48.875 69.140625 
Q 55.078125 64.0625 55.078125 55.328125 
Q 55.078125 49.078125 51.53125 44.71875 
Q 48 40.375 41.703125 38.8125 
Q 48.828125 37.15625 52.796875 32.3125 
Q 56.78125 27.484375 56.78125 20.515625 
Q 56.78125 9.90625 50.3125 4.234375 
Q 43.84375 -1.421875 31.78125 -1.421875 
Q 19.734375 -1.421875 13.25 4.234375 
Q 6.78125 9.90625 6.78125 20.515625 
Q 6.78125 27.484375 10.78125 32.3125 
Q 14.796875 37.15625 21.921875 38.8125 
z
M 18.3125 54.390625 
Q 18.3125 48.734375 21.84375 45.5625 
Q 25.390625 42.390625 31.78125 42.390625 
Q 38.140625 42.390625 41.71875 45.5625 
Q 45.3125 48.734375 45.3125 54.390625 
Q 45.3125 60.0625 41.71875 63.234375 
Q 38.140625 66.40625 31.78125 66.40625 
Q 25.390625 66.40625 21.84375 63.234375 
Q 18.3125 60.0625 18.3125 54.390625 
z
" id="DejaVuSans-38"/>
      </defs>
      <g transform="translate(352.082547 399.078438)scale(0.1 -0.1)">
       <use xlink:href="#DejaVuSans-32"/>
       <use x="63.623047" xlink:href="#DejaVuSans-38"/>
       <use x="127.246094" xlink:href="#DejaVuSans-38"/>
       <use x="190.869141" xlink:href="#DejaVuSans-30"/>
      </g>
     </g>
    </g>
    <g id="text_6">
     <!-- time [ms] -->
     <defs>
      <path d="M 18.3125 70.21875 
L 18.3125 54.6875 
L 36.8125 54.6875 
L 36.8125 47.703125 
L 18.3125 47.703125 
L 18.3125 18.015625 
Q 18.3125 11.328125 20.140625 9.421875 
Q 21.96875 7.515625 27.59375 7.515625 
L 36.8125 7.515625 
L 36.8125 0 
L 27.59375 0 
Q 17.1875 0 13.234375 3.875 
Q 9.28125 7.765625 9.28125 18.015625 
L 9.28125 47.703125 
L 2.6875 47.703125 
L 2.6875 54.6875 
L 9.28125 54.6875 
L 9.28125 70.21875 
z
" id="DejaVuSans-74"/>
      <path d="M 9.421875 54.6875 
L 18.40625 54.6875 
L 18.40625 0 
L 9.421875 0 
z
M 9.421875 75.984375 
L 18.40625 75.984375 
L 18.40625 64.59375 
L 9.421875 64.59375 
z
" id="DejaVuSans-69"/>
      <path d="M 52 44.1875 
Q 55.375 50.25 60.0625 53.125 
Q 64.75 56 71.09375 56 
Q 79.640625 56 84.28125 50.015625 
Q 88.921875 44.046875 88.921875 33.015625 
L 88.921875 0 
L 79.890625 0 
L 79.890625 32.71875 
Q 79.890625 40.578125 77.09375 44.375 
Q 74.3125 48.1875 68.609375 48.1875 
Q 61.625 48.1875 57.5625 43.546875 
Q 53.515625 38.921875 53.515625 30.90625 
L 53.515625 0 
L 44.484375 0 
L 44.484375 32.71875 
Q 44.484375 40.625 41.703125 44.40625 
Q 38.921875 48.1875 33.109375 48.1875 
Q 26.21875 48.1875 22.15625 43.53125 
Q 18.109375 38.875 18.109375 30.90625 
L 18.109375 0 
L 9.078125 0 
L 9.078125 54.6875 
L 18.109375 54.6875 
L 18.109375 46.1875 
Q 21.1875 51.21875 25.484375 53.609375 
Q 29.78125 56 35.6875 56 
Q 41.65625 56 45.828125 52.96875 
Q 50 49.953125 52 44.1875 
z
" id="DejaVuSans-6d"/>
      <path d="M 56.203125 29.59375 
L 56.203125 25.203125 
L 14.890625 25.203125 
Q 15.484375 15.921875 20.484375 11.0625 
Q 25.484375 6.203125 34.421875 6.203125 
Q 39.59375 6.203125 44.453125 7.46875 
Q 49.3125 8.734375 54.109375 11.28125 
L 54.109375 2.78125 
Q 49.265625 0.734375 44.1875 -0.34375 
Q 39.109375 -1.421875 33.890625 -1.421875 
Q 20.796875 -1.421875 13.15625 6.1875 
Q 5.515625 13.8125 5.515625 26.8125 
Q 5.515625 40.234375 12.765625 48.109375 
Q 20.015625 56 32.328125 56 
Q 43.359375 56 49.78125 48.890625 
Q 56.203125 41.796875 56.203125 29.59375 
z
M 47.21875 32.234375 
Q 47.125 39.59375 43.09375 43.984375 
Q 39.0625 48.390625 32.421875 48.390625 
Q 24.90625 48.390625 20.390625 44.140625 
Q 15.875 39.890625 15.1875 32.171875 
z
" id="DejaVuSans-65"/>
      <path id="DejaVuSans-20"/>
      <path d="M 8.59375 75.984375 
L 29.296875 75.984375 
L 29.296875 69 
L 17.578125 69 
L 17.578125 -6.203125 
L 29.296875 -6.203125 
L 29.296875 -13.1875 
L 8.59375 -13.1875 
z
" id="DejaVuSans-5b"/>
      <path d="M 44.28125 53.078125 
L 44.28125 44.578125 
Q 40.484375 46.53125 36.375 47.5 
Q 32.28125 48.484375 27.875 48.484375 
Q 21.1875 48.484375 17.84375 46.4375 
Q 14.5 44.390625 14.5 40.28125 
Q 14.5 37.15625 16.890625 35.375 
Q 19.28125 33.59375 26.515625 31.984375 
L 29.59375 31.296875 
Q 39.15625 29.25 43.1875 25.515625 
Q 47.21875 21.78125 47.21875 15.09375 
Q 47.21875 7.46875 41.1875 3.015625 
Q 35.15625 -1.421875 24.609375 -1.421875 
Q 20.21875 -1.421875 15.453125 -0.5625 
Q 10.6875 0.296875 5.421875 2 
L 5.421875 11.28125 
Q 10.40625 8.6875 15.234375 7.390625 
Q 20.0625 6.109375 24.8125 6.109375 
Q 31.15625 6.109375 34.5625 8.28125 
Q 37.984375 10.453125 37.984375 14.40625 
Q 37.984375 18.0625 35.515625 20.015625 
Q 33.0625 21.96875 24.703125 23.78125 
L 21.578125 24.515625 
Q 13.234375 26.265625 9.515625 29.90625 
Q 5.8125 33.546875 5.8125 39.890625 
Q 5.8125 47.609375 11.28125 51.796875 
Q 16.75 56 26.8125 56 
Q 31.78125 56 36.171875 55.265625 
Q 40.578125 54.546875 44.28125 53.078125 
z
" id="DejaVuSans-73"/>
      <path d="M 30.421875 75.984375 
L 30.421875 -13.1875 
L 9.71875 -13.1875 
L 9.71875 -6.203125 
L 21.390625 -6.203125 
L 21.390625 69 
L 9.71875 69 
L 9.71875 75.984375 
z
" id="DejaVuSans-5d"/>
     </defs>
     <g transform="translate(234.038281 412.756563)scale(0.1 -0.1)">
      <use xlink:href="#DejaVuSans-74"/>
      <use x="39.208984" xlink:href="#DejaVuSans-69"/>
      <use x="66.992188" xlink:href="#DejaVuSans-6d"/>
      <use x="164.404297" xlink:href="#DejaVuSans-65"/>
      <use x="225.927734" xlink:href="#DejaVuSans-20"/>
      <use x="257.714844" xlink:href="#DejaVuSans-5b"/>
      <use x="296.728516" xlink:href="#DejaVuSans-6d"/>
      <use x="394.140625" xlink:href="#DejaVuSans-73"/>
      <use x="446.240234" xlink:href="#DejaVuSans-5d"/>
     </g>
    </g>
   </g>
   <g id="matplotlib.axis_2">
    <g id="ytick_1">
     <g id="line2d_6">
      <defs>
       <path d="M 0 0 
L -3.5 0 
" id="m10dffac42f" style="stroke:#000000;stroke-width:0.8;"/>
      </defs>
      <g>
       <use style="stroke:#000000;stroke-width:0.8;" x="63" xlink:href="#m10dffac42f" y="349.180412"/>
      </g>
     </g>
     <g id="text_7">
      <!-- −80 -->
      <defs>
       <path d="M 10.59375 35.5 
L 73.1875 35.5 
L 73.1875 27.203125 
L 10.59375 27.203125 
z
" id="DejaVuSans-2212"/>
      </defs>
      <g transform="translate(34.895313 352.979631)scale(0.1 -0.1)">
       <use xlink:href="#DejaVuSans-2212"/>
       <use x="83.789062" xlink:href="#DejaVuSans-38"/>
       <use x="147.412109" xlink:href="#DejaVuSans-30"/>
      </g>
     </g>
    </g>
    <g id="ytick_2">
     <g id="line2d_7">
      <g>
       <use style="stroke:#000000;stroke-width:0.8;" x="63" xlink:href="#m10dffac42f" y="303.921257"/>
      </g>
     </g>
     <g id="text_8">
      <!-- −60 -->
      <g transform="translate(34.895313 307.720476)scale(0.1 -0.1)">
       <use xlink:href="#DejaVuSans-2212"/>
       <use x="83.789062" xlink:href="#DejaVuSans-36"/>
       <use x="147.412109" xlink:href="#DejaVuSans-30"/>
      </g>
     </g>
    </g>
    <g id="ytick_3">
     <g id="line2d_8">
      <g>
       <use style="stroke:#000000;stroke-width:0.8;" x="63" xlink:href="#m10dffac42f" y="258.662102"/>
      </g>
     </g>
     <g id="text_9">
      <!-- −40 -->
      <g transform="translate(34.895313 262.461321)scale(0.1 -0.1)">
       <use xlink:href="#DejaVuSans-2212"/>
       <use x="83.789062" xlink:href="#DejaVuSans-34"/>
       <use x="147.412109" xlink:href="#DejaVuSans-30"/>
      </g>
     </g>
    </g>
    <g id="ytick_4">
     <g id="line2d_9">
      <g>
       <use style="stroke:#000000;stroke-width:0.8;" x="63" xlink:href="#m10dffac42f" y="213.402947"/>
      </g>
     </g>
     <g id="text_10">
      <!-- −20 -->
      <g transform="translate(34.895313 217.202166)scale(0.1 -0.1)">
       <use xlink:href="#DejaVuSans-2212"/>
       <use x="83.789062" xlink:href="#DejaVuSans-32"/>
       <use x="147.412109" xlink:href="#DejaVuSans-30"/>
      </g>
     </g>
    </g>
    <g id="ytick_5">
     <g id="line2d_10">
      <g>
       <use style="stroke:#000000;stroke-width:0.8;" x="63" xlink:href="#m10dffac42f" y="168.143792"/>
      </g>
     </g>
     <g id="text_11">
      <!-- 0 -->
      <g transform="translate(49.6375 171.943011)scale(0.1 -0.1)">
       <use xlink:href="#DejaVuSans-30"/>
      </g>
     </g>
    </g>
    <g id="ytick_6">
     <g id="line2d_11">
      <g>
       <use style="stroke:#000000;stroke-width:0.8;" x="63" xlink:href="#m10dffac42f" y="122.884637"/>
      </g>
     </g>
     <g id="text_12">
      <!-- 20 -->
      <g transform="translate(43.275 126.683856)scale(0.1 -0.1)">
       <use xlink:href="#DejaVuSans-32"/>
       <use x="63.623047" xlink:href="#DejaVuSans-30"/>
      </g>
     </g>
    </g>
    <g id="ytick_7">
     <g id="line2d_12">
      <g>
       <use style="stroke:#000000;stroke-width:0.8;" x="63" xlink:href="#m10dffac42f" y="77.625482"/>
      </g>
     </g>
     <g id="text_13">
      <!-- 40 -->
      <g transform="translate(43.275 81.424701)scale(0.1 -0.1)">
       <use xlink:href="#DejaVuSans-34"/>
       <use x="63.623047" xlink:href="#DejaVuSans-30"/>
      </g>
     </g>
    </g>
    <g id="text_14">
     <!-- Voltage [mV] -->
     <defs>
      <path d="M 28.609375 0 
L 0.78125 72.90625 
L 11.078125 72.90625 
L 34.1875 11.53125 
L 57.328125 72.90625 
L 67.578125 72.90625 
L 39.796875 0 
z
" id="DejaVuSans-56"/>
      <path d="M 30.609375 48.390625 
Q 23.390625 48.390625 19.1875 42.75 
Q 14.984375 37.109375 14.984375 27.296875 
Q 14.984375 17.484375 19.15625 11.84375 
Q 23.34375 6.203125 30.609375 6.203125 
Q 37.796875 6.203125 41.984375 11.859375 
Q 46.1875 17.53125 46.1875 27.296875 
Q 46.1875 37.015625 41.984375 42.703125 
Q 37.796875 48.390625 30.609375 48.390625 
z
M 30.609375 56 
Q 42.328125 56 49.015625 48.375 
Q 55.71875 40.765625 55.71875 27.296875 
Q 55.71875 13.875 49.015625 6.21875 
Q 42.328125 -1.421875 30.609375 -1.421875 
Q 18.84375 -1.421875 12.171875 6.21875 
Q 5.515625 13.875 5.515625 27.296875 
Q 5.515625 40.765625 12.171875 48.375 
Q 18.84375 56 30.609375 56 
z
" id="DejaVuSans-6f"/>
      <path d="M 9.421875 75.984375 
L 18.40625 75.984375 
L 18.40625 0 
L 9.421875 0 
z
" id="DejaVuSans-6c"/>
      <path d="M 34.28125 27.484375 
Q 23.390625 27.484375 19.1875 25 
Q 14.984375 22.515625 14.984375 16.5 
Q 14.984375 11.71875 18.140625 8.90625 
Q 21.296875 6.109375 26.703125 6.109375 
Q 34.1875 6.109375 38.703125 11.40625 
Q 43.21875 16.703125 43.21875 25.484375 
L 43.21875 27.484375 
z
M 52.203125 31.203125 
L 52.203125 0 
L 43.21875 0 
L 43.21875 8.296875 
Q 40.140625 3.328125 35.546875 0.953125 
Q 30.953125 -1.421875 24.3125 -1.421875 
Q 15.921875 -1.421875 10.953125 3.296875 
Q 6 8.015625 6 15.921875 
Q 6 25.140625 12.171875 29.828125 
Q 18.359375 34.515625 30.609375 34.515625 
L 43.21875 34.515625 
L 43.21875 35.40625 
Q 43.21875 41.609375 39.140625 45 
Q 35.0625 48.390625 27.6875 48.390625 
Q 23 48.390625 18.546875 47.265625 
Q 14.109375 46.140625 10.015625 43.890625 
L 10.015625 52.203125 
Q 14.9375 54.109375 19.578125 55.046875 
Q 24.21875 56 28.609375 56 
Q 40.484375 56 46.34375 49.84375 
Q 52.203125 43.703125 52.203125 31.203125 
z
" id="DejaVuSans-61"/>
      <path d="M 45.40625 27.984375 
Q 45.40625 37.75 41.375 43.109375 
Q 37.359375 48.484375 30.078125 48.484375 
Q 22.859375 48.484375 18.828125 43.109375 
Q 14.796875 37.75 14.796875 27.984375 
Q 14.796875 18.265625 18.828125 12.890625 
Q 22.859375 7.515625 30.078125 7.515625 
Q 37.359375 7.515625 41.375 12.890625 
Q 45.40625 18.265625 45.40625 27.984375 
z
M 54.390625 6.78125 
Q 54.390625 -7.171875 48.1875 -13.984375 
Q 42 -20.796875 29.203125 -20.796875 
Q 24.46875 -20.796875 20.265625 -20.09375 
Q 16.0625 -19.390625 12.109375 -17.921875 
L 12.109375 -9.1875 
Q 16.0625 -11.328125 19.921875 -12.34375 
Q 23.78125 -13.375 27.78125 -13.375 
Q 36.625 -13.375 41.015625 -8.765625 
Q 45.40625 -4.15625 45.40625 5.171875 
L 45.40625 9.625 
Q 42.625 4.78125 38.28125 2.390625 
Q 33.9375 0 27.875 0 
Q 17.828125 0 11.671875 7.65625 
Q 5.515625 15.328125 5.515625 27.984375 
Q 5.515625 40.671875 11.671875 48.328125 
Q 17.828125 56 27.875 56 
Q 33.9375 56 38.28125 53.609375 
Q 42.625 51.21875 45.40625 46.390625 
L 45.40625 54.6875 
L 54.390625 54.6875 
z
" id="DejaVuSans-67"/>
     </defs>
     <g transform="translate(28.815625 251.079531)rotate(-90)scale(0.1 -0.1)">
      <use xlink:href="#DejaVuSans-56"/>
      <use x="68.298828" xlink:href="#DejaVuSans-6f"/>
      <use x="129.480469" xlink:href="#DejaVuSans-6c"/>
      <use x="157.263672" xlink:href="#DejaVuSans-74"/>
      <use x="196.472656" xlink:href="#DejaVuSans-61"/>
      <use x="257.751953" xlink:href="#DejaVuSans-67"/>
      <use x="321.228516" xlink:href="#DejaVuSans-65"/>
      <use x="382.751953" xlink:href="#DejaVuSans-20"/>
      <use x="414.539062" xlink:href="#DejaVuSans-5b"/>
      <use x="453.552734" xlink:href="#DejaVuSans-6d"/>
      <use x="550.964844" xlink:href="#DejaVuSans-56"/>
      <use x="619.373047" xlink:href="#DejaVuSans-5d"/>
     </g>
    </g>
   </g>
   <g id="line2d_13">
    <path clip-path="url(#p196b8eea93)" d="M 80.754545 315.236046 
L 81.149064 325.782285 
L 81.548513 331.095949 
L 81.952894 333.809086 
L 82.352344 335.14766 
L 82.746862 335.768736 
L 83.146311 336.007364 
L 83.60987 336.018116 
L 84.295345 335.785357 
L 86.031224 334.87327 
L 88.072855 333.926602 
L 90.001062 333.282392 
L 92.146254 332.805312 
L 94.750074 332.463509 
L 98.295805 332.238439 
L 100.480448 332.171533 
L 100.638256 345.611435 
L 100.983459 355.439728 
L 101.447018 362.872902 
L 101.900713 366.949181 
L 102.295231 368.73755 
L 102.605914 369.297792 
L 102.837694 369.346111 
L 103.079336 369.139891 
L 103.439334 368.48844 
L 104.124809 366.686445 
L 105.308363 363.683219 
L 106.03329 362.43857 
L 106.699039 361.712321 
L 107.364788 361.304131 
L 108.109441 361.112325 
L 109.085873 361.106987 
L 115.743366 361.518244 
L 130.069303 361.526261 
L 130.22711 347.907166 
L 130.587108 337.071434 
L 131.085187 328.194967 
L 131.568471 323.157469 
L 131.99751 320.752146 
L 132.357507 319.81218 
L 132.648464 319.569183 
L 132.904901 319.631478 
L 133.240242 319.982763 
L 133.846813 321.014677 
L 134.142702 321.460753 
L 134.152565 321.432416 
L 134.167359 320.294635 
L 134.192016 273.267418 
L 134.2364 68.882755 
L 134.325166 199.585075 
L 134.502699 333.357102 
L 134.699958 336.025461 
L 134.946532 336.830993 
L 135.143791 336.903084 
L 135.370639 336.695518 
L 136.036388 335.640064 
L 136.909259 334.463753 
L 137.653912 333.829094 
L 138.536646 333.378159 
L 139.78431 333.008287 
L 139.932254 332.975666 
L 139.937186 315.236046 
L 140.045678 318.857645 
L 140.440196 327.606886 
L 140.839646 332.014016 
L 141.244027 334.27067 
L 141.643476 335.370971 
L 142.033063 335.859464 
L 142.437444 336.029386 
L 142.940454 335.985561 
L 143.739353 335.660042 
L 148.000148 333.650136 
L 149.992465 333.076606 
L 152.285601 332.655153 
L 155.180377 332.361281 
L 159.381994 332.178258 
L 159.663088 332.171533 
L 159.820896 329.479492 
L 160.166099 327.511326 
L 160.639521 326.000001 
L 161.132668 325.112484 
L 161.635679 324.640129 
L 162.178141 324.430422 
L 162.863616 324.417133 
L 163.983061 324.652048 
L 167.109617 325.366632 
L 169.52604 325.634552 
L 173.180263 325.79175 
L 181.080487 325.858821 
L 189.251943 325.866088 
L 189.404818 328.488169 
L 189.735227 330.324725 
L 190.193855 331.707239 
L 190.682071 332.522834 
L 191.194944 332.969323 
L 191.78179 333.184537 
L 192.556031 333.21599 
L 193.926982 333.009992 
L 197.457918 332.451787 
L 199.114894 332.308781 
L 199.119826 315.236046 
L 199.228318 318.857645 
L 199.622836 327.606886 
L 200.022286 332.014016 
L 200.426667 334.27067 
L 200.826116 335.370971 
L 201.215703 335.859464 
L 201.620084 336.029386 
L 202.123094 335.985561 
L 202.921993 335.660042 
L 207.182788 333.650136 
L 209.175105 333.076606 
L 211.468241 332.655153 
L 214.363017 332.361281 
L 218.564634 332.178258 
L 218.845729 332.171533 
L 219.003536 326.791051 
L 219.348739 322.867379 
L 219.812298 319.929864 
L 220.280788 318.256709 
L 220.734484 317.384884 
L 221.193111 316.954683 
L 222.061051 316.39814 
L 222.075845 314.799061 
L 222.115297 215.112797 
L 222.139954 68.633879 
L 222.223789 190.338832 
L 222.421048 331.141346 
L 222.608444 332.819174 
L 222.7268 332.941429 
L 222.76132 332.915097 
L 222.904333 332.588199 
L 223.19529 331.226514 
L 224.299941 325.648137 
L 224.891718 323.928337 
L 225.478563 322.869217 
L 226.114724 322.166514 
L 226.874171 321.660842 
L 227.885124 321.267097 
L 229.374429 320.943846 
L 231.711949 320.683347 
L 235.514116 320.504691 
L 242.980371 320.416214 
L 248.434583 320.402359 
L 248.587459 325.589559 
L 248.908004 329.004561 
L 249.341974 331.443326 
L 249.79567 332.840961 
L 250.254297 333.591745 
L 250.722788 333.958371 
L 251.255387 334.093264 
L 251.975382 334.029006 
L 253.346333 333.63654 
L 255.994535 332.907592 
L 258.287671 332.530269 
L 258.297534 332.529074 
L 258.302466 315.236046 
L 258.410958 318.857645 
L 258.805476 327.606886 
L 259.204926 332.014016 
L 259.609307 334.27067 
L 260.008756 335.370971 
L 260.398343 335.859464 
L 260.802724 336.029386 
L 261.305734 335.985561 
L 262.104634 335.660042 
L 266.365429 333.650136 
L 268.357745 333.076606 
L 270.650881 332.655153 
L 273.545657 332.361281 
L 277.747274 332.178258 
L 278.028369 332.171533 
L 278.186176 324.102523 
L 278.526448 318.288448 
L 278.985075 313.920236 
L 279.473291 311.250204 
L 279.710002 309.787922 
L 279.729728 290.644333 
L 279.774111 68.120881 
L 279.862878 190.290994 
L 280.060137 329.498174 
L 280.232738 330.736048 
L 280.296847 330.742663 
L 280.336299 330.687896 
L 280.489175 330.154787 
L 280.794926 328.092507 
L 281.855194 320.452293 
L 282.407519 318.223544 
L 282.949981 316.898289 
L 283.526964 316.055469 
L 284.409698 315.223195 
L 284.671066 314.793721 
L 284.685861 314.185543 
L 284.705587 285.15811 
L 284.754901 71.255096 
L 284.838737 195.566649 
L 285.026133 329.437636 
L 285.203666 331.105096 
L 285.287501 331.177435 
L 285.331884 331.132573 
L 285.474897 330.700613 
L 285.770785 328.932207 
L 286.796532 322.422623 
L 287.368584 320.347795 
L 287.945566 319.040901 
L 288.581727 318.134007 
L 289.355968 317.421181 
L 290.43103 316.752191 
L 291.90061 315.844468 
L 292.014034 315.575848 
L 292.028828 313.643175 
L 292.06828 216.020037 
L 292.092937 72.940886 
L 292.176772 196.367912 
L 292.364169 329.16473 
L 292.546633 330.978892 
L 292.6354 331.065391 
L 292.679783 331.022499 
L 292.822796 330.599725 
L 293.123616 328.84105 
L 294.104979 322.812656 
L 294.681962 320.747769 
L 295.268808 319.429201 
L 295.919763 318.501297 
L 296.71373 317.760877 
L 297.778929 317.084298 
L 300.284119 315.623063 
L 300.303844 315.315971 
L 300.32357 302.997977 
L 300.377817 74.034013 
L 300.461652 198.312134 
L 300.644116 328.849301 
L 300.826581 330.850691 
L 300.920279 330.962665 
L 300.964662 330.923636 
L 301.102743 330.52993 
L 301.393701 328.866139 
L 302.414516 322.668976 
L 302.991499 320.655817 
L 303.578344 319.369682 
L 304.234231 318.456774 
L 305.038061 317.725067 
L 306.118054 317.056688 
L 307.617223 316.368901 
L 307.770099 323.967053 
L 308.080782 328.554449 
L 308.499957 331.705031 
L 308.933927 333.442529 
L 309.362965 334.334443 
L 309.796935 334.76044 
L 310.265425 334.913767 
L 310.867065 334.862202 
L 311.878018 334.517871 
L 315.201833 333.29048 
L 317.29771 332.811793 
L 317.480174 332.779844 
L 317.485106 315.236046 
L 317.593598 318.857645 
L 317.988116 327.606886 
L 318.387566 332.014016 
L 318.791947 334.27067 
L 319.191396 335.370971 
L 319.580983 335.859464 
L 319.985364 336.029386 
L 320.488375 335.985561 
L 321.287274 335.660042 
L 325.548069 333.650136 
L 327.540385 333.076606 
L 329.833521 332.655153 
L 332.728297 332.361281 
L 336.929915 332.178258 
L 337.211009 332.171533 
L 337.368816 321.413713 
L 337.709088 313.663955 
L 338.177578 307.682284 
L 338.448809 304.301827 
L 338.468535 269.142731 
L 338.507987 67.316334 
L 338.601685 199.739406 
L 338.779218 327.654915 
L 338.941957 328.7794 
L 339.02086 328.670283 
L 339.183599 327.909759 
L 339.499213 325.155657 
L 340.544686 315.460031 
L 341.077286 312.757897 
L 341.624679 311.071799 
L 342.014266 309.867313 
L 342.02906 308.044117 
L 342.063581 222.550474 
L 342.088238 70.725743 
L 342.177005 199.173809 
L 342.354538 327.989227 
L 342.522208 329.441014 
L 342.576454 329.448562 
L 342.615906 329.390566 
L 342.76385 328.817597 
L 343.059739 326.584501 
L 344.110143 318.099412 
L 344.657537 315.672793 
L 345.219725 314.13245 
L 346.201089 311.776694 
L 346.220815 293.43348 
L 346.27013 73.24009 
L 346.353965 194.112259 
L 346.541361 327.890713 
L 346.713962 329.416654 
L 346.77314 329.432475 
L 346.812592 329.377043 
L 346.960536 328.820439 
L 347.266288 326.591596 
L 348.227925 319.257414 
L 348.785182 316.837239 
L 349.357233 315.285045 
L 350.037777 314.082121 
L 350.733115 312.842251 
L 350.74791 312.388743 
L 350.767635 293.141991 
L 350.81695 75.125574 
L 350.900785 195.081969 
L 351.088181 327.669377 
L 351.265715 329.335429 
L 351.324892 329.363774 
L 351.369275 329.305934 
L 351.512288 328.77876 
L 351.81804 326.593306 
L 352.764883 319.540988 
L 353.327071 317.143431 
L 353.904054 315.60145 
L 354.584598 314.413719 
L 355.432811 312.995134 
L 355.447606 312.488719 
L 355.467332 289.063877 
L 355.516647 75.997367 
L 355.600482 197.261333 
L 355.782946 327.380211 
L 355.960479 329.223807 
L 356.024589 329.273364 
L 356.073903 329.213345 
L 356.216916 328.687903 
L 356.522668 326.51508 
L 357.454717 319.636208 
L 358.016905 317.24287 
L 358.598819 315.689717 
L 359.279363 314.505178 
L 360.186754 312.987667 
L 360.201549 311.706719 
L 360.236069 241.039234 
L 360.270589 76.539372 
L 360.354424 203.620851 
L 360.527026 327.056302 
L 360.704559 329.137507 
L 360.778531 329.213689 
L 360.827846 329.155913 
L 360.970859 328.635779 
L 361.27661 326.472081 
L 362.208659 319.626574 
L 362.770847 317.245589 
L 363.352761 315.699745 
L 364.033305 314.519774 
L 364.95056 313.014531 
L 364.965354 312.171955 
L 364.98508 280.671572 
L 365.034395 76.840519 
L 365.11823 201.522892 
L 365.295763 327.075543 
L 365.473296 329.096678 
L 365.547268 329.172503 
L 365.596583 329.115089 
L 365.739596 328.596422 
L 366.045347 326.436556 
L 366.799863 320.617969 
L 366.947807 329.471549 
L 367.214107 333.163715 
L 367.554379 335.090455 
L 367.909445 335.967054 
L 368.274374 336.330764 
L 368.678755 336.423958 
L 369.231081 336.302166 
L 370.246965 335.80842 
L 373.343931 334.239472 
L 375.326385 333.524401 
L 376.662814 333.166033 
L 376.667746 315.236046 
L 376.776238 318.857645 
L 377.170756 327.606886 
L 377.570206 332.014016 
L 377.974587 334.27067 
L 378.374037 335.370971 
L 378.763623 335.859464 
L 379.168004 336.029386 
L 379.671015 335.985561 
L 380.469914 335.660042 
L 384.730709 333.650136 
L 386.723025 333.076606 
L 389.016161 332.655153 
L 391.910937 332.361281 
L 396.112555 332.178258 
L 396.393649 332.171533 
L 396.551456 318.724299 
L 396.896659 308.912485 
L 397.384875 298.997091 
L 397.414464 223.063946 
L 397.439122 66.96 
L 397.527888 191.661337 
L 397.720216 326.318262 
L 397.83364 326.949305 
L 397.86816 326.918113 
L 397.981584 326.491392 
L 398.218295 324.554959 
L 398.765689 317.647404 
L 399.396918 310.973962 
L 399.929517 307.563573 
L 400.476911 304.305148 
L 400.496637 270.655876 
L 400.54102 70.625705 
L 400.629786 202.788801 
L 400.797457 326.541617 
L 400.960195 327.822634 
L 401.034167 327.70696 
L 401.196906 326.875901 
L 401.517452 323.841143 
L 402.484021 314.274664 
L 403.021552 311.322707 
L 403.608398 309.313016 
L 403.909218 308.154227 
L 403.924012 306.251602 
L 403.958533 220.276877 
L 403.98319 73.012235 
L 404.067025 193.880135 
L 404.254421 326.676625 
L 404.41716 327.873917 
L 404.491132 327.779885 
L 404.644008 327.064689 
L 404.959622 324.282603 
L 405.901534 315.640552 
L 406.443996 312.847039 
L 407.02591 310.974742 
L 407.553578 309.36088 
L 407.568373 307.265145 
L 407.602893 224.015192 
L 407.632482 75.157379 
L 407.716317 202.510763 
L 407.888919 326.214508 
L 408.056589 327.822758 
L 408.105904 327.821799 
L 408.140424 327.763899 
L 408.283437 327.151664 
L 408.579325 324.690252 
L 409.570552 315.964707 
L 410.117946 313.309632 
L 410.709723 311.505279 
L 411.3015 309.800127 
L 411.316294 307.323639 
L 411.355746 192.207644 
L 411.380404 76.188493 
L 411.464239 203.424213 
L 411.63684 326.032868 
L 411.80451 327.740563 
L 411.853825 327.756406 
L 411.898208 327.68742 
L 412.041221 327.071633 
L 412.342041 324.576303 
L 413.298748 316.266618 
L 413.846141 313.608834 
L 414.432987 311.814017 
L 415.093805 309.989365 
L 415.108599 307.795579 
L 415.148051 197.375059 
L 415.172708 76.798138 
L 415.256543 203.164919 
L 415.429145 325.875509 
L 415.601747 327.673535 
L 415.651061 327.691094 
L 415.695445 327.62398 
L 415.838458 327.013908 
L 416.139278 324.533295 
L 417.086121 316.367497 
L 417.633515 313.715441 
L 418.22036 311.922853 
L 418.905835 310.055453 
L 418.92063 307.88344 
L 418.960082 198.749821 
L 418.984739 77.283851 
L 419.068574 203.300098 
L 419.241176 325.757038 
L 419.413777 327.609859 
L 419.468024 327.632953 
L 419.512407 327.564656 
L 419.65542 326.952532 
L 419.95624 324.474637 
L 420.89322 316.421775 
L 421.445545 313.748049 
L 422.032391 311.959631 
L 422.727729 310.034635 
L 422.742524 306.878849 
L 422.781975 189.762155 
L 422.806633 77.811575 
L 422.890468 205.215465 
L 423.058138 325.531459 
L 423.23074 327.542425 
L 423.284986 327.581627 
L 423.334301 327.5132 
L 423.477313 326.907409 
L 423.778133 324.439322 
L 424.715114 316.419775 
L 425.267439 313.755944 
L 425.859216 311.960303 
L 425.982503 311.663322 
L 426.135379 323.716985 
L 426.421404 329.640202 
L 426.791265 333.13259 
L 427.180852 334.936021 
L 427.570438 335.801983 
L 427.960025 336.172769 
L 428.384132 336.272894 
L 428.94632 336.15847 
L 429.952341 335.6861 
L 433.118348 334.123199 
L 435.100802 333.437328 
L 435.845455 333.236708 
L 435.845455 333.236708 
" style="fill:none;stroke:#ff0000;stroke-linecap:square;stroke-width:1.5;"/>
   </g>
   <g id="patch_3">
    <path d="M 63 384.48 
L 63 51.84 
" style="fill:none;stroke:#000000;stroke-linecap:square;stroke-linejoin:miter;stroke-width:0.8;"/>
   </g>
   <g id="patch_4">
    <path d="M 453.6 384.48 
L 453.6 51.84 
" style="fill:none;stroke:#000000;stroke-linecap:square;stroke-linejoin:miter;stroke-width:0.8;"/>
   </g>
   <g id="patch_5">
    <path d="M 63 384.48 
L 453.6 384.48 
" style="fill:none;stroke:#000000;stroke-linecap:square;stroke-linejoin:miter;stroke-width:0.8;"/>
   </g>
   <g id="patch_6">
    <path d="M 63 51.84 
L 453.6 51.84 
" style="fill:none;stroke:#000000;stroke-linecap:square;stroke-linejoin:miter;stroke-width:0.8;"/>
   </g>
   <g id="legend_1">
    <g id="patch_7">
     <path d="M 383.460938 379.48 
L 446.6 379.48 
Q 448.6 379.48 448.6 377.48 
L 448.6 363.801875 
Q 448.6 361.801875 446.6 361.801875 
L 383.460938 361.801875 
Q 381.460938 361.801875 381.460938 363.801875 
L 381.460938 377.48 
Q 381.460938 379.48 383.460938 379.48 
z
" style="fill:#ffffff;opacity:0.8;stroke:#cccccc;stroke-linejoin:miter;"/>
    </g>
    <g id="line2d_14">
     <path d="M 385.460938 369.900312 
L 405.460938 369.900312 
" style="fill:none;stroke:#ff0000;stroke-linecap:square;stroke-width:1.5;"/>
    </g>
    <g id="line2d_15"/>
    <g id="text_15">
     <!-- model -->
     <defs>
      <path d="M 45.40625 46.390625 
L 45.40625 75.984375 
L 54.390625 75.984375 
L 54.390625 0 
L 45.40625 0 
L 45.40625 8.203125 
Q 42.578125 3.328125 38.25 0.953125 
Q 33.9375 -1.421875 27.875 -1.421875 
Q 17.96875 -1.421875 11.734375 6.484375 
Q 5.515625 14.40625 5.515625 27.296875 
Q 5.515625 40.1875 11.734375 48.09375 
Q 17.96875 56 27.875 56 
Q 33.9375 56 38.25 53.625 
Q 42.578125 51.265625 45.40625 46.390625 
z
M 14.796875 27.296875 
Q 14.796875 17.390625 18.875 11.75 
Q 22.953125 6.109375 30.078125 6.109375 
Q 37.203125 6.109375 41.296875 11.75 
Q 45.40625 17.390625 45.40625 27.296875 
Q 45.40625 37.203125 41.296875 42.84375 
Q 37.203125 48.484375 30.078125 48.484375 
Q 22.953125 48.484375 18.875 42.84375 
Q 14.796875 37.203125 14.796875 27.296875 
z
" id="DejaVuSans-64"/>
     </defs>
     <g transform="translate(413.460938 373.400312)scale(0.1 -0.1)">
      <use xlink:href="#DejaVuSans-6d"/>
      <use x="97.412109" xlink:href="#DejaVuSans-6f"/>
      <use x="158.59375" xlink:href="#DejaVuSans-64"/>
      <use x="222.070312" xlink:href="#DejaVuSans-65"/>
      <use x="283.59375" xlink:href="#DejaVuSans-6c"/>
     </g>
    </g>
   </g>
  </g>
 </g>
 <defs>
  <clipPath id="p196b8eea93">
   <rect height="332.64" width="390.6" x="63" y="51.84"/>
  </clipPath>
 </defs>
</svg>
