<?xml version="1.0" encoding="utf-8" standalone="no"?>
<!DOCTYPE svg PUBLIC "-//W3C//DTD SVG 1.1//EN"
  "http://www.w3.org/Graphics/SVG/1.1/DTD/svg11.dtd">
<!-- Created with matplotlib (http://matplotlib.org/) -->
<svg height="432pt" version="1.1" viewBox="0 0 504 432" width="504pt" xmlns="http://www.w3.org/2000/svg" xmlns:xlink="http://www.w3.org/1999/xlink">
 <defs>
  <style type="text/css">
*{stroke-linecap:butt;stroke-linejoin:round;}
  </style>
 </defs>
 <g id="figure_1">
  <g id="patch_1">
   <path d="M 0 432 
L 504 432 
L 504 0 
L 0 0 
z
" style="fill:#ffffff;"/>
  </g>
  <g id="axes_1">
   <g id="patch_2">
    <path d="M 63 384.48 
L 453.6 384.48 
L 453.6 51.84 
L 63 51.84 
z
" style="fill:#ffffff;"/>
   </g>
   <g id="matplotlib.axis_1">
    <g id="xtick_1">
     <g id="line2d_1">
      <defs>
       <path d="M 0 0 
L 0 3.5 
" id="mf76203e51b" style="stroke:#000000;stroke-width:0.8;"/>
      </defs>
      <g>
       <use style="stroke:#000000;stroke-width:0.8;" x="80.754545" xlink:href="#mf76203e51b" y="384.48"/>
      </g>
     </g>
     <g id="text_1">
      <!-- 0 -->
      <defs>
       <path d="M 31.78125 66.40625 
Q 24.171875 66.40625 20.328125 58.90625 
Q 16.5 51.421875 16.5 36.375 
Q 16.5 21.390625 20.328125 13.890625 
Q 24.171875 6.390625 31.78125 6.390625 
Q 39.453125 6.390625 43.28125 13.890625 
Q 47.125 21.390625 47.125 36.375 
Q 47.125 51.421875 43.28125 58.90625 
Q 39.453125 66.40625 31.78125 66.40625 
z
M 31.78125 74.21875 
Q 44.046875 74.21875 50.515625 64.515625 
Q 56.984375 54.828125 56.984375 36.375 
Q 56.984375 17.96875 50.515625 8.265625 
Q 44.046875 -1.421875 31.78125 -1.421875 
Q 19.53125 -1.421875 13.0625 8.265625 
Q 6.59375 17.96875 6.59375 36.375 
Q 6.59375 54.828125 13.0625 64.515625 
Q 19.53125 74.21875 31.78125 74.21875 
z
" id="DejaVuSans-30"/>
      </defs>
      <g transform="translate(77.573295 399.078438)scale(0.1 -0.1)">
       <use xlink:href="#DejaVuSans-30"/>
      </g>
     </g>
    </g>
    <g id="xtick_2">
     <g id="line2d_2">
      <g>
       <use style="stroke:#000000;stroke-width:0.8;" x="151.772727" xlink:href="#mf76203e51b" y="384.48"/>
      </g>
     </g>
     <g id="text_2">
      <!-- 200 -->
      <defs>
       <path d="M 19.1875 8.296875 
L 53.609375 8.296875 
L 53.609375 0 
L 7.328125 0 
L 7.328125 8.296875 
Q 12.9375 14.109375 22.625 23.890625 
Q 32.328125 33.6875 34.8125 36.53125 
Q 39.546875 41.84375 41.421875 45.53125 
Q 43.3125 49.21875 43.3125 52.78125 
Q 43.3125 58.59375 39.234375 62.25 
Q 35.15625 65.921875 28.609375 65.921875 
Q 23.96875 65.921875 18.8125 64.3125 
Q 13.671875 62.703125 7.8125 59.421875 
L 7.8125 69.390625 
Q 13.765625 71.78125 18.9375 73 
Q 24.125 74.21875 28.421875 74.21875 
Q 39.75 74.21875 46.484375 68.546875 
Q 53.21875 62.890625 53.21875 53.421875 
Q 53.21875 48.921875 51.53125 44.890625 
Q 49.859375 40.875 45.40625 35.40625 
Q 44.1875 33.984375 37.640625 27.21875 
Q 31.109375 20.453125 19.1875 8.296875 
z
" id="DejaVuSans-32"/>
      </defs>
      <g transform="translate(142.228977 399.078438)scale(0.1 -0.1)">
       <use xlink:href="#DejaVuSans-32"/>
       <use x="63.623047" xlink:href="#DejaVuSans-30"/>
       <use x="127.246094" xlink:href="#DejaVuSans-30"/>
      </g>
     </g>
    </g>
    <g id="xtick_3">
     <g id="line2d_3">
      <g>
       <use style="stroke:#000000;stroke-width:0.8;" x="222.790909" xlink:href="#mf76203e51b" y="384.48"/>
      </g>
     </g>
     <g id="text_3">
      <!-- 400 -->
      <defs>
       <path d="M 37.796875 64.3125 
L 12.890625 25.390625 
L 37.796875 25.390625 
z
M 35.203125 72.90625 
L 47.609375 72.90625 
L 47.609375 25.390625 
L 58.015625 25.390625 
L 58.015625 17.1875 
L 47.609375 17.1875 
L 47.609375 0 
L 37.796875 0 
L 37.796875 17.1875 
L 4.890625 17.1875 
L 4.890625 26.703125 
z
" id="DejaVuSans-34"/>
      </defs>
      <g transform="translate(213.247159 399.078438)scale(0.1 -0.1)">
       <use xlink:href="#DejaVuSans-34"/>
       <use x="63.623047" xlink:href="#DejaVuSans-30"/>
       <use x="127.246094" xlink:href="#DejaVuSans-30"/>
      </g>
     </g>
    </g>
    <g id="xtick_4">
     <g id="line2d_4">
      <g>
       <use style="stroke:#000000;stroke-width:0.8;" x="293.809091" xlink:href="#mf76203e51b" y="384.48"/>
      </g>
     </g>
     <g id="text_4">
      <!-- 600 -->
      <defs>
       <path d="M 33.015625 40.375 
Q 26.375 40.375 22.484375 35.828125 
Q 18.609375 31.296875 18.609375 23.390625 
Q 18.609375 15.53125 22.484375 10.953125 
Q 26.375 6.390625 33.015625 6.390625 
Q 39.65625 6.390625 43.53125 10.953125 
Q 47.40625 15.53125 47.40625 23.390625 
Q 47.40625 31.296875 43.53125 35.828125 
Q 39.65625 40.375 33.015625 40.375 
z
M 52.59375 71.296875 
L 52.59375 62.3125 
Q 48.875 64.0625 45.09375 64.984375 
Q 41.3125 65.921875 37.59375 65.921875 
Q 27.828125 65.921875 22.671875 59.328125 
Q 17.53125 52.734375 16.796875 39.40625 
Q 19.671875 43.65625 24.015625 45.921875 
Q 28.375 48.1875 33.59375 48.1875 
Q 44.578125 48.1875 50.953125 41.515625 
Q 57.328125 34.859375 57.328125 23.390625 
Q 57.328125 12.15625 50.6875 5.359375 
Q 44.046875 -1.421875 33.015625 -1.421875 
Q 20.359375 -1.421875 13.671875 8.265625 
Q 6.984375 17.96875 6.984375 36.375 
Q 6.984375 53.65625 15.1875 63.9375 
Q 23.390625 74.21875 37.203125 74.21875 
Q 40.921875 74.21875 44.703125 73.484375 
Q 48.484375 72.75 52.59375 71.296875 
z
" id="DejaVuSans-36"/>
      </defs>
      <g transform="translate(284.265341 399.078438)scale(0.1 -0.1)">
       <use xlink:href="#DejaVuSans-36"/>
       <use x="63.623047" xlink:href="#DejaVuSans-30"/>
       <use x="127.246094" xlink:href="#DejaVuSans-30"/>
      </g>
     </g>
    </g>
    <g id="xtick_5">
     <g id="line2d_5">
      <g>
       <use style="stroke:#000000;stroke-width:0.8;" x="364.827273" xlink:href="#mf76203e51b" y="384.48"/>
      </g>
     </g>
     <g id="text_5">
      <!-- 800 -->
      <defs>
       <path d="M 31.78125 34.625 
Q 24.75 34.625 20.71875 30.859375 
Q 16.703125 27.09375 16.703125 20.515625 
Q 16.703125 13.921875 20.71875 10.15625 
Q 24.75 6.390625 31.78125 6.390625 
Q 38.8125 6.390625 42.859375 10.171875 
Q 46.921875 13.96875 46.921875 20.515625 
Q 46.921875 27.09375 42.890625 30.859375 
Q 38.875 34.625 31.78125 34.625 
z
M 21.921875 38.8125 
Q 15.578125 40.375 12.03125 44.71875 
Q 8.5 49.078125 8.5 55.328125 
Q 8.5 64.0625 14.71875 69.140625 
Q 20.953125 74.21875 31.78125 74.21875 
Q 42.671875 74.21875 48.875 69.140625 
Q 55.078125 64.0625 55.078125 55.328125 
Q 55.078125 49.078125 51.53125 44.71875 
Q 48 40.375 41.703125 38.8125 
Q 48.828125 37.15625 52.796875 32.3125 
Q 56.78125 27.484375 56.78125 20.515625 
Q 56.78125 9.90625 50.3125 4.234375 
Q 43.84375 -1.421875 31.78125 -1.421875 
Q 19.734375 -1.421875 13.25 4.234375 
Q 6.78125 9.90625 6.78125 20.515625 
Q 6.78125 27.484375 10.78125 32.3125 
Q 14.796875 37.15625 21.921875 38.8125 
z
M 18.3125 54.390625 
Q 18.3125 48.734375 21.84375 45.5625 
Q 25.390625 42.390625 31.78125 42.390625 
Q 38.140625 42.390625 41.71875 45.5625 
Q 45.3125 48.734375 45.3125 54.390625 
Q 45.3125 60.0625 41.71875 63.234375 
Q 38.140625 66.40625 31.78125 66.40625 
Q 25.390625 66.40625 21.84375 63.234375 
Q 18.3125 60.0625 18.3125 54.390625 
z
" id="DejaVuSans-38"/>
      </defs>
      <g transform="translate(355.283523 399.078438)scale(0.1 -0.1)">
       <use xlink:href="#DejaVuSans-38"/>
       <use x="63.623047" xlink:href="#DejaVuSans-30"/>
       <use x="127.246094" xlink:href="#DejaVuSans-30"/>
      </g>
     </g>
    </g>
    <g id="text_6">
     <!-- time [ms] -->
     <defs>
      <path d="M 18.3125 70.21875 
L 18.3125 54.6875 
L 36.8125 54.6875 
L 36.8125 47.703125 
L 18.3125 47.703125 
L 18.3125 18.015625 
Q 18.3125 11.328125 20.140625 9.421875 
Q 21.96875 7.515625 27.59375 7.515625 
L 36.8125 7.515625 
L 36.8125 0 
L 27.59375 0 
Q 17.1875 0 13.234375 3.875 
Q 9.28125 7.765625 9.28125 18.015625 
L 9.28125 47.703125 
L 2.6875 47.703125 
L 2.6875 54.6875 
L 9.28125 54.6875 
L 9.28125 70.21875 
z
" id="DejaVuSans-74"/>
      <path d="M 9.421875 54.6875 
L 18.40625 54.6875 
L 18.40625 0 
L 9.421875 0 
z
M 9.421875 75.984375 
L 18.40625 75.984375 
L 18.40625 64.59375 
L 9.421875 64.59375 
z
" id="DejaVuSans-69"/>
      <path d="M 52 44.1875 
Q 55.375 50.25 60.0625 53.125 
Q 64.75 56 71.09375 56 
Q 79.640625 56 84.28125 50.015625 
Q 88.921875 44.046875 88.921875 33.015625 
L 88.921875 0 
L 79.890625 0 
L 79.890625 32.71875 
Q 79.890625 40.578125 77.09375 44.375 
Q 74.3125 48.1875 68.609375 48.1875 
Q 61.625 48.1875 57.5625 43.546875 
Q 53.515625 38.921875 53.515625 30.90625 
L 53.515625 0 
L 44.484375 0 
L 44.484375 32.71875 
Q 44.484375 40.625 41.703125 44.40625 
Q 38.921875 48.1875 33.109375 48.1875 
Q 26.21875 48.1875 22.15625 43.53125 
Q 18.109375 38.875 18.109375 30.90625 
L 18.109375 0 
L 9.078125 0 
L 9.078125 54.6875 
L 18.109375 54.6875 
L 18.109375 46.1875 
Q 21.1875 51.21875 25.484375 53.609375 
Q 29.78125 56 35.6875 56 
Q 41.65625 56 45.828125 52.96875 
Q 50 49.953125 52 44.1875 
z
" id="DejaVuSans-6d"/>
      <path d="M 56.203125 29.59375 
L 56.203125 25.203125 
L 14.890625 25.203125 
Q 15.484375 15.921875 20.484375 11.0625 
Q 25.484375 6.203125 34.421875 6.203125 
Q 39.59375 6.203125 44.453125 7.46875 
Q 49.3125 8.734375 54.109375 11.28125 
L 54.109375 2.78125 
Q 49.265625 0.734375 44.1875 -0.34375 
Q 39.109375 -1.421875 33.890625 -1.421875 
Q 20.796875 -1.421875 13.15625 6.1875 
Q 5.515625 13.8125 5.515625 26.8125 
Q 5.515625 40.234375 12.765625 48.109375 
Q 20.015625 56 32.328125 56 
Q 43.359375 56 49.78125 48.890625 
Q 56.203125 41.796875 56.203125 29.59375 
z
M 47.21875 32.234375 
Q 47.125 39.59375 43.09375 43.984375 
Q 39.0625 48.390625 32.421875 48.390625 
Q 24.90625 48.390625 20.390625 44.140625 
Q 15.875 39.890625 15.1875 32.171875 
z
" id="DejaVuSans-65"/>
      <path id="DejaVuSans-20"/>
      <path d="M 8.59375 75.984375 
L 29.296875 75.984375 
L 29.296875 69 
L 17.578125 69 
L 17.578125 -6.203125 
L 29.296875 -6.203125 
L 29.296875 -13.1875 
L 8.59375 -13.1875 
z
" id="DejaVuSans-5b"/>
      <path d="M 44.28125 53.078125 
L 44.28125 44.578125 
Q 40.484375 46.53125 36.375 47.5 
Q 32.28125 48.484375 27.875 48.484375 
Q 21.1875 48.484375 17.84375 46.4375 
Q 14.5 44.390625 14.5 40.28125 
Q 14.5 37.15625 16.890625 35.375 
Q 19.28125 33.59375 26.515625 31.984375 
L 29.59375 31.296875 
Q 39.15625 29.25 43.1875 25.515625 
Q 47.21875 21.78125 47.21875 15.09375 
Q 47.21875 7.46875 41.1875 3.015625 
Q 35.15625 -1.421875 24.609375 -1.421875 
Q 20.21875 -1.421875 15.453125 -0.5625 
Q 10.6875 0.296875 5.421875 2 
L 5.421875 11.28125 
Q 10.40625 8.6875 15.234375 7.390625 
Q 20.0625 6.109375 24.8125 6.109375 
Q 31.15625 6.109375 34.5625 8.28125 
Q 37.984375 10.453125 37.984375 14.40625 
Q 37.984375 18.0625 35.515625 20.015625 
Q 33.0625 21.96875 24.703125 23.78125 
L 21.578125 24.515625 
Q 13.234375 26.265625 9.515625 29.90625 
Q 5.8125 33.546875 5.8125 39.890625 
Q 5.8125 47.609375 11.28125 51.796875 
Q 16.75 56 26.8125 56 
Q 31.78125 56 36.171875 55.265625 
Q 40.578125 54.546875 44.28125 53.078125 
z
" id="DejaVuSans-73"/>
      <path d="M 30.421875 75.984375 
L 30.421875 -13.1875 
L 9.71875 -13.1875 
L 9.71875 -6.203125 
L 21.390625 -6.203125 
L 21.390625 69 
L 9.71875 69 
L 9.71875 75.984375 
z
" id="DejaVuSans-5d"/>
     </defs>
     <g transform="translate(234.038281 412.756563)scale(0.1 -0.1)">
      <use xlink:href="#DejaVuSans-74"/>
      <use x="39.208984" xlink:href="#DejaVuSans-69"/>
      <use x="66.992188" xlink:href="#DejaVuSans-6d"/>
      <use x="164.404297" xlink:href="#DejaVuSans-65"/>
      <use x="225.927734" xlink:href="#DejaVuSans-20"/>
      <use x="257.714844" xlink:href="#DejaVuSans-5b"/>
      <use x="296.728516" xlink:href="#DejaVuSans-6d"/>
      <use x="394.140625" xlink:href="#DejaVuSans-73"/>
      <use x="446.240234" xlink:href="#DejaVuSans-5d"/>
     </g>
    </g>
   </g>
   <g id="matplotlib.axis_2">
    <g id="ytick_1">
     <g id="line2d_6">
      <defs>
       <path d="M 0 0 
L -3.5 0 
" id="mf2bf690986" style="stroke:#000000;stroke-width:0.8;"/>
      </defs>
      <g>
       <use style="stroke:#000000;stroke-width:0.8;" x="63" xlink:href="#mf2bf690986" y="382.295315"/>
      </g>
     </g>
     <g id="text_7">
      <!-- −80 -->
      <defs>
       <path d="M 10.59375 35.5 
L 73.1875 35.5 
L 73.1875 27.203125 
L 10.59375 27.203125 
z
" id="DejaVuSans-2212"/>
      </defs>
      <g transform="translate(34.895313 386.094533)scale(0.1 -0.1)">
       <use xlink:href="#DejaVuSans-2212"/>
       <use x="83.789062" xlink:href="#DejaVuSans-38"/>
       <use x="147.412109" xlink:href="#DejaVuSans-30"/>
      </g>
     </g>
    </g>
    <g id="ytick_2">
     <g id="line2d_7">
      <g>
       <use style="stroke:#000000;stroke-width:0.8;" x="63" xlink:href="#mf2bf690986" y="329.597056"/>
      </g>
     </g>
     <g id="text_8">
      <!-- −60 -->
      <g transform="translate(34.895313 333.396274)scale(0.1 -0.1)">
       <use xlink:href="#DejaVuSans-2212"/>
       <use x="83.789062" xlink:href="#DejaVuSans-36"/>
       <use x="147.412109" xlink:href="#DejaVuSans-30"/>
      </g>
     </g>
    </g>
    <g id="ytick_3">
     <g id="line2d_8">
      <g>
       <use style="stroke:#000000;stroke-width:0.8;" x="63" xlink:href="#mf2bf690986" y="276.898797"/>
      </g>
     </g>
     <g id="text_9">
      <!-- −40 -->
      <g transform="translate(34.895313 280.698016)scale(0.1 -0.1)">
       <use xlink:href="#DejaVuSans-2212"/>
       <use x="83.789062" xlink:href="#DejaVuSans-34"/>
       <use x="147.412109" xlink:href="#DejaVuSans-30"/>
      </g>
     </g>
    </g>
    <g id="ytick_4">
     <g id="line2d_9">
      <g>
       <use style="stroke:#000000;stroke-width:0.8;" x="63" xlink:href="#mf2bf690986" y="224.200538"/>
      </g>
     </g>
     <g id="text_10">
      <!-- −20 -->
      <g transform="translate(34.895313 227.999757)scale(0.1 -0.1)">
       <use xlink:href="#DejaVuSans-2212"/>
       <use x="83.789062" xlink:href="#DejaVuSans-32"/>
       <use x="147.412109" xlink:href="#DejaVuSans-30"/>
      </g>
     </g>
    </g>
    <g id="ytick_5">
     <g id="line2d_10">
      <g>
       <use style="stroke:#000000;stroke-width:0.8;" x="63" xlink:href="#mf2bf690986" y="171.502279"/>
      </g>
     </g>
     <g id="text_11">
      <!-- 0 -->
      <g transform="translate(49.6375 175.301498)scale(0.1 -0.1)">
       <use xlink:href="#DejaVuSans-30"/>
      </g>
     </g>
    </g>
    <g id="ytick_6">
     <g id="line2d_11">
      <g>
       <use style="stroke:#000000;stroke-width:0.8;" x="63" xlink:href="#mf2bf690986" y="118.80402"/>
      </g>
     </g>
     <g id="text_12">
      <!-- 20 -->
      <g transform="translate(43.275 122.603239)scale(0.1 -0.1)">
       <use xlink:href="#DejaVuSans-32"/>
       <use x="63.623047" xlink:href="#DejaVuSans-30"/>
      </g>
     </g>
    </g>
    <g id="ytick_7">
     <g id="line2d_12">
      <g>
       <use style="stroke:#000000;stroke-width:0.8;" x="63" xlink:href="#mf2bf690986" y="66.105761"/>
      </g>
     </g>
     <g id="text_13">
      <!-- 40 -->
      <g transform="translate(43.275 69.90498)scale(0.1 -0.1)">
       <use xlink:href="#DejaVuSans-34"/>
       <use x="63.623047" xlink:href="#DejaVuSans-30"/>
      </g>
     </g>
    </g>
    <g id="text_14">
     <!-- voltage [mV] -->
     <defs>
      <path d="M 2.984375 54.6875 
L 12.5 54.6875 
L 29.59375 8.796875 
L 46.6875 54.6875 
L 56.203125 54.6875 
L 35.6875 0 
L 23.484375 0 
z
" id="DejaVuSans-76"/>
      <path d="M 30.609375 48.390625 
Q 23.390625 48.390625 19.1875 42.75 
Q 14.984375 37.109375 14.984375 27.296875 
Q 14.984375 17.484375 19.15625 11.84375 
Q 23.34375 6.203125 30.609375 6.203125 
Q 37.796875 6.203125 41.984375 11.859375 
Q 46.1875 17.53125 46.1875 27.296875 
Q 46.1875 37.015625 41.984375 42.703125 
Q 37.796875 48.390625 30.609375 48.390625 
z
M 30.609375 56 
Q 42.328125 56 49.015625 48.375 
Q 55.71875 40.765625 55.71875 27.296875 
Q 55.71875 13.875 49.015625 6.21875 
Q 42.328125 -1.421875 30.609375 -1.421875 
Q 18.84375 -1.421875 12.171875 6.21875 
Q 5.515625 13.875 5.515625 27.296875 
Q 5.515625 40.765625 12.171875 48.375 
Q 18.84375 56 30.609375 56 
z
" id="DejaVuSans-6f"/>
      <path d="M 9.421875 75.984375 
L 18.40625 75.984375 
L 18.40625 0 
L 9.421875 0 
z
" id="DejaVuSans-6c"/>
      <path d="M 34.28125 27.484375 
Q 23.390625 27.484375 19.1875 25 
Q 14.984375 22.515625 14.984375 16.5 
Q 14.984375 11.71875 18.140625 8.90625 
Q 21.296875 6.109375 26.703125 6.109375 
Q 34.1875 6.109375 38.703125 11.40625 
Q 43.21875 16.703125 43.21875 25.484375 
L 43.21875 27.484375 
z
M 52.203125 31.203125 
L 52.203125 0 
L 43.21875 0 
L 43.21875 8.296875 
Q 40.140625 3.328125 35.546875 0.953125 
Q 30.953125 -1.421875 24.3125 -1.421875 
Q 15.921875 -1.421875 10.953125 3.296875 
Q 6 8.015625 6 15.921875 
Q 6 25.140625 12.171875 29.828125 
Q 18.359375 34.515625 30.609375 34.515625 
L 43.21875 34.515625 
L 43.21875 35.40625 
Q 43.21875 41.609375 39.140625 45 
Q 35.0625 48.390625 27.6875 48.390625 
Q 23 48.390625 18.546875 47.265625 
Q 14.109375 46.140625 10.015625 43.890625 
L 10.015625 52.203125 
Q 14.9375 54.109375 19.578125 55.046875 
Q 24.21875 56 28.609375 56 
Q 40.484375 56 46.34375 49.84375 
Q 52.203125 43.703125 52.203125 31.203125 
z
" id="DejaVuSans-61"/>
      <path d="M 45.40625 27.984375 
Q 45.40625 37.75 41.375 43.109375 
Q 37.359375 48.484375 30.078125 48.484375 
Q 22.859375 48.484375 18.828125 43.109375 
Q 14.796875 37.75 14.796875 27.984375 
Q 14.796875 18.265625 18.828125 12.890625 
Q 22.859375 7.515625 30.078125 7.515625 
Q 37.359375 7.515625 41.375 12.890625 
Q 45.40625 18.265625 45.40625 27.984375 
z
M 54.390625 6.78125 
Q 54.390625 -7.171875 48.1875 -13.984375 
Q 42 -20.796875 29.203125 -20.796875 
Q 24.46875 -20.796875 20.265625 -20.09375 
Q 16.0625 -19.390625 12.109375 -17.921875 
L 12.109375 -9.1875 
Q 16.0625 -11.328125 19.921875 -12.34375 
Q 23.78125 -13.375 27.78125 -13.375 
Q 36.625 -13.375 41.015625 -8.765625 
Q 45.40625 -4.15625 45.40625 5.171875 
L 45.40625 9.625 
Q 42.625 4.78125 38.28125 2.390625 
Q 33.9375 0 27.875 0 
Q 17.828125 0 11.671875 7.65625 
Q 5.515625 15.328125 5.515625 27.984375 
Q 5.515625 40.671875 11.671875 48.328125 
Q 17.828125 56 27.875 56 
Q 33.9375 56 38.28125 53.609375 
Q 42.625 51.21875 45.40625 46.390625 
L 45.40625 54.6875 
L 54.390625 54.6875 
z
" id="DejaVuSans-67"/>
      <path d="M 28.609375 0 
L 0.78125 72.90625 
L 11.078125 72.90625 
L 34.1875 11.53125 
L 57.328125 72.90625 
L 67.578125 72.90625 
L 39.796875 0 
z
" id="DejaVuSans-56"/>
     </defs>
     <g transform="translate(28.815625 250.624062)rotate(-90)scale(0.1 -0.1)">
      <use xlink:href="#DejaVuSans-76"/>
      <use x="59.179688" xlink:href="#DejaVuSans-6f"/>
      <use x="120.361328" xlink:href="#DejaVuSans-6c"/>
      <use x="148.144531" xlink:href="#DejaVuSans-74"/>
      <use x="187.353516" xlink:href="#DejaVuSans-61"/>
      <use x="248.632812" xlink:href="#DejaVuSans-67"/>
      <use x="312.109375" xlink:href="#DejaVuSans-65"/>
      <use x="373.632812" xlink:href="#DejaVuSans-20"/>
      <use x="405.419922" xlink:href="#DejaVuSans-5b"/>
      <use x="444.433594" xlink:href="#DejaVuSans-6d"/>
      <use x="541.845703" xlink:href="#DejaVuSans-56"/>
      <use x="610.253906" xlink:href="#DejaVuSans-5d"/>
     </g>
    </g>
   </g>
   <g id="line2d_13">
    <path clip-path="url(#pdf649daca7)" d="M 80.754545 342.77162 
L 81.952977 342.634868 
L 83.763941 342.691783 
L 87.749836 342.69916 
L 151.772727 342.702322 
L 152.314241 298.009456 
L 152.420768 249.188998 
L 152.562805 66.96 
L 152.678209 92.273609 
L 153.565936 369.36 
L 153.610323 369.259083 
L 153.8145 367.874963 
L 154.293873 363.103136 
L 154.959668 353.947077 
L 157.42755 314.90768 
L 157.613973 303.73802 
L 157.738255 281.688805 
L 157.835905 218.894087 
L 157.969064 91.413837 
L 158.031205 104.616331 
L 158.883423 368.933935 
L 158.945564 368.749754 
L 159.203005 366.76303 
L 159.717886 361.068456 
L 160.534595 349.095939 
L 161.8218 330.896595 
L 162.514227 320.490533 
L 162.771668 312.941244 
L 162.940336 300.904171 
L 163.064618 272.831282 
L 163.162268 188.110478 
L 163.268795 92.337637 
L 163.322059 101.887089 
L 163.863573 297.730155 
L 164.147645 368.756605 
L 164.183155 368.902052 
L 164.245295 368.71998 
L 164.493859 366.809141 
L 165.008741 361.134329 
L 165.834327 349.038234 
L 167.112655 330.971426 
L 167.813959 320.454962 
L 168.0714 312.895924 
L 168.240068 300.819327 
L 168.36435 272.584127 
L 168.462 187.362031 
L 168.568527 92.41484 
L 168.621791 102.110002 
L 169.172182 301.697017 
L 169.4385 368.670443 
L 169.482886 368.899944 
L 169.545027 368.713919 
L 169.802468 366.719027 
L 170.31735 361.006535 
L 171.151814 348.74813 
L 172.430141 330.727697 
L 173.113691 320.436517 
L 173.371132 312.859298 
L 173.5398 300.723153 
L 173.664082 272.24475 
L 173.761732 186.206332 
L 173.868259 92.431703 
L 173.921523 102.346881 
L 174.480791 305.783766 
L 174.729355 368.560567 
L 174.782618 368.899944 
L 174.844759 368.709703 
L 175.1022 366.711649 
L 175.617082 360.995732 
L 176.451545 348.735219 
L 177.729873 330.716894 
L 178.413423 320.419654 
L 178.670864 312.8232 
L 178.839532 300.625661 
L 178.963814 271.896415 
L 179.061464 185.0168 
L 179.167991 92.449094 
L 179.221255 102.586394 
L 179.7894 309.974069 
L 180.029086 368.572952 
L 180.08235 368.900208 
L 180.144491 368.705224 
L 180.401932 366.704271 
L 180.916814 360.985193 
L 181.751277 348.722835 
L 183.029605 330.706354 
L 183.713155 320.402527 
L 183.970595 312.786838 
L 184.139264 300.527115 
L 184.263545 271.539911 
L 184.361195 183.806348 
L 184.467723 92.473072 
L 184.520986 102.829597 
L 185.098009 314.256593 
L 185.328818 368.585072 
L 185.382082 368.900208 
L 185.444223 368.701008 
L 185.701664 366.69663 
L 186.216545 360.974653 
L 187.051009 348.710187 
L 188.329336 330.695814 
L 189.012886 320.385664 
L 189.270327 312.750213 
L 189.438995 300.426988 
L 189.563277 271.178137 
L 189.660927 182.591073 
L 189.767455 92.502846 
L 189.820718 103.075171 
L 190.406618 318.611577 
L 190.619673 368.450692 
L 190.681814 368.899944 
L 190.743955 368.696529 
L 191.010273 366.60757 
L 191.525155 360.848704 
L 192.368495 348.423509 
L 193.637945 330.569339 
L 194.312618 320.368273 
L 194.570059 312.713588 
L 194.738727 300.326335 
L 194.863009 270.812938 
L 194.969536 167.960561 
L 195.058309 92.489408 
L 195.12045 103.32338 
L 195.715227 323.012935 
L 195.919405 368.466238 
L 195.981545 368.899944 
L 196.043686 368.69205 
L 196.310005 366.599929 
L 196.833764 360.722228 
L 197.703736 347.86359 
L 198.955432 330.32719 
L 199.61235 320.351146 
L 199.869791 312.676435 
L 200.038459 300.224627 
L 200.162741 270.440362 
L 200.269268 166.692351 
L 200.358041 92.459897 
L 200.420182 103.575804 
L 201.023836 327.423516 
L 201.219136 368.480993 
L 201.281277 368.899417 
L 201.343418 368.68757 
L 201.609736 366.592287 
L 202.133495 360.711162 
L 202.994591 347.987431 
L 204.255164 330.316387 
L 204.912082 320.333492 
L 205.169523 312.638756 
L 205.338191 300.121339 
L 205.462473 270.060144 
L 205.569 165.41563 
L 205.657773 92.4375 
L 205.719914 103.830073 
L 206.332445 331.7951 
L 206.518868 368.495749 
L 206.581009 368.899154 
L 206.634273 368.729729 
L 206.873959 366.907687 
L 207.388841 361.27477 
L 208.187795 349.618969 
L 209.510509 330.88342 
L 210.202936 320.501073 
L 210.460377 312.99526 
L 210.629045 301.088352 
L 210.753327 273.540864 
L 210.850977 190.680941 
L 210.957505 92.422218 
L 211.019645 104.085396 
L 211.641055 336.073408 
L 211.827477 368.641986 
L 211.880741 368.898627 
L 211.934005 368.725513 
L 212.182568 366.820207 
L 212.69745 361.150138 
L 213.514159 349.194484 
L 214.810241 330.872617 
L 215.502668 320.483946 
L 215.760109 312.959161 
L 215.928777 300.99165 
L 216.053059 273.20017 
L 216.150709 189.497338 
L 216.257236 92.415894 
L 216.319377 104.340192 
L 216.949664 340.194676 
L 217.127209 368.652526 
L 217.171595 368.899154 
L 217.233736 368.721297 
L 217.4823 366.81283 
L 217.997182 361.139599 
L 218.822768 349.044558 
L 220.101095 330.977223 
L 220.8024 320.466819 
L 221.059841 312.923327 
L 221.228509 300.895213 
L 221.352791 272.858158 
L 221.450441 188.314315 
L 221.556968 92.416421 
L 221.610232 101.924241 
L 222.151745 297.785752 
L 222.426941 368.662539 
L 222.471327 368.899417 
L 222.533468 368.717081 
L 222.782032 366.805452 
L 223.296914 361.129059 
L 224.1225 349.031647 
L 225.418582 330.735865 
L 226.111009 320.263931 
L 226.36845 312.488829 
L 226.537118 299.70634 
L 226.652523 272.513511 
L 226.750173 187.126575 
L 226.8567 92.422481 
L 226.909964 102.1627 
L 227.460355 301.772639 
L 227.726673 368.672288 
L 227.771059 368.899944 
L 227.8332 368.712865 
L 228.090641 366.717182 
L 228.605523 361.003901 
L 229.439986 348.744968 
L 230.718314 330.725062 
L 231.401864 320.432565 
L 231.659305 312.850867 
L 231.827973 300.701019 
L 231.952255 272.166493 
L 232.049905 185.938625 
L 232.156432 92.435392 
L 232.209695 102.400897 
L 232.768964 305.86255 
L 233.017527 368.563466 
L 233.070791 368.899944 
L 233.132932 368.70865 
L 233.390373 366.709805 
L 233.905255 360.993361 
L 234.739718 348.732321 
L 236.018045 330.714522 
L 236.701595 320.415702 
L 236.959036 312.815032 
L 237.127705 300.603528 
L 237.251986 271.816313 
L 237.349636 184.743876 
L 237.456164 92.453837 
L 237.509427 102.641464 
L 238.077573 310.055224 
L 238.317259 368.575586 
L 238.370523 368.900208 
L 238.432664 368.704434 
L 238.690105 366.702427 
L 239.204986 360.982821 
L 240.03945 348.719936 
L 241.317777 330.703983 
L 242.001327 320.398838 
L 242.258768 312.77867 
L 242.427436 300.504455 
L 242.551718 271.457965 
L 242.649368 183.530604 
L 242.755895 92.479395 
L 242.809159 102.885194 
L 243.386182 314.339592 
L 243.616991 368.587707 
L 243.670255 368.900208 
L 243.732395 368.699954 
L 243.989836 366.695049 
L 244.504718 360.972282 
L 245.348059 348.570273 
L 246.617509 330.69318 
L 247.301059 320.381711 
L 247.5585 312.742045 
L 247.727168 300.404065 
L 247.85145 271.095665 
L 247.9491 182.314144 
L 248.055627 92.510751 
L 248.108891 103.131294 
L 248.694791 318.696421 
L 248.907845 368.45438 
L 248.969986 368.899944 
L 249.032127 368.695738 
L 249.298445 366.605989 
L 249.822205 360.73066 
L 250.692177 347.873602 
L 251.943873 330.335622 
L 252.600791 320.364321 
L 252.858232 312.705156 
L 253.0269 300.303148 
L 253.151182 270.728621 
L 253.257709 167.671827 
L 253.346482 92.48203 
L 253.408623 103.380821 
L 254.0034 323.09936 
L 254.207577 368.469663 
L 254.269718 368.899681 
L 254.331859 368.691259 
L 254.598177 366.598348 
L 255.121936 360.719593 
L 255.983032 347.997443 
L 257.22585 330.556164 
L 257.900523 320.347194 
L 258.157964 312.668004 
L 258.326632 300.201176 
L 258.450914 270.3542 
L 258.557441 166.401009 
L 258.646214 92.4541 
L 258.708355 103.634036 
L 259.312009 327.509941 
L 259.507309 368.484418 
L 259.56945 368.899417 
L 259.631591 368.686516 
L 259.897909 366.590443 
L 260.421668 360.70879 
L 261.291641 347.848044 
L 262.525582 330.545361 
L 263.200255 320.32954 
L 263.457695 312.630324 
L 263.626364 300.097624 
L 263.750645 269.972665 
L 263.857173 165.123761 
L 263.945945 92.433284 
L 264.008086 103.888305 
L 264.620618 331.880208 
L 264.807041 368.499174 
L 264.869182 368.89889 
L 264.922445 368.728938 
L 265.171009 366.826004 
L 265.685891 361.15857 
L 266.511477 349.067218 
L 267.807559 330.76564 
L 268.499986 320.312149 
L 268.757427 312.592645 
L 268.926095 299.994072 
L 269.050377 269.591129 
L 269.156905 163.856025 
L 269.245677 92.42011 
L 269.298941 101.503972 
L 269.8227 290.196939 
L 270.133405 368.811411 
L 270.168914 368.898627 
L 270.222177 368.724722 
L 270.470741 366.818626 
L 270.985623 361.147767 
L 271.802332 349.191586 
L 273.098414 330.870246 
L 273.790841 320.479993 
L 274.048282 312.950993 
L 274.21695 300.969781 
L 274.341232 273.122176 
L 274.438882 189.226574 
L 274.545409 92.41563 
L 274.598673 101.740851 
L 275.131309 293.978303 
L 275.424259 368.749227 
L 275.459768 368.899154 
L 275.521909 368.720507 
L 275.770473 366.811249 
L 276.285355 361.137227 
L 277.110941 349.041659 
L 278.389268 330.974852 
L 279.090573 320.462867 
L 279.348014 312.914895 
L 279.516682 300.873079 
L 279.640964 272.779637 
L 279.738614 188.043446 
L 279.845141 92.416948 
L 279.898405 101.978784 
L 280.439918 297.861901 
L 280.715114 368.664646 
L 280.7595 368.899681 
L 280.821641 368.716291 
L 281.079082 366.722979 
L 281.593964 361.012069 
L 282.428427 348.754717 
L 283.706755 330.73323 
L 284.390305 320.44574 
L 284.647745 312.878797 
L 284.816414 300.776114 
L 284.940695 272.434464 
L 285.038345 186.855601 
L 285.144873 92.424853 
L 285.198136 102.21698 
L 285.748527 301.849841 
L 286.014845 368.674396 
L 286.059232 368.899944 
L 286.121373 368.711811 
L 286.378814 366.715601 
L 286.893695 361.001529 
L 287.728159 348.74207 
L 289.006486 330.722691 
L 289.690036 320.428876 
L 289.947477 312.842698 
L 290.116145 300.678886 
L 290.240427 272.086919 
L 290.338077 185.666754 
L 290.444605 92.439081 
L 290.497868 102.455439 
L 291.057136 305.942125 
L 291.3057 368.566364 
L 291.358964 368.900208 
L 291.421105 368.707596 
L 291.678545 366.708224 
L 292.193427 360.99099 
L 293.027891 348.729422 
L 294.315095 330.596478 
L 294.989768 320.411749 
L 295.247209 312.8066 
L 295.415877 300.581131 
L 295.540159 271.735158 
L 295.637809 184.46808 
L 295.744336 92.459107 
L 295.7976 102.696797 
L 296.365745 310.136906 
L 296.605432 368.578485 
L 296.658695 368.900208 
L 296.720836 368.70338 
L 296.978277 366.700846 
L 297.493159 360.98045 
L 298.327623 348.717038 
L 299.60595 330.701611 
L 300.2895 320.394886 
L 300.546941 312.770238 
L 300.715609 300.481531 
L 300.839891 271.375756 
L 300.937541 183.254465 
L 301.044068 92.485983 
L 301.097332 102.94079 
L 301.674355 314.422592 
L 301.905164 368.590342 
L 301.958427 368.900208 
L 302.020568 368.699164 
L 302.286886 366.611786 
L 302.810645 360.738828 
L 303.671741 348.020104 
L 304.914559 330.575399 
L 305.589232 320.377759 
L 305.846673 312.733613 
L 306.015341 300.381404 
L 306.139623 271.012928 
L 306.24615 168.647219 
L 306.334923 92.508116 
L 306.397064 103.187682 
L 306.982964 318.781265 
L 307.196018 368.457806 
L 307.258159 368.899944 
L 307.3203 368.694684 
L 307.586618 366.604145 
L 308.110377 360.728025 
L 308.971473 348.007456 
L 310.214291 330.564596 
L 310.888964 320.360632 
L 311.146405 312.696724 
L 311.315073 300.280224 
L 311.439355 270.64404 
L 311.545882 167.384121 
L 311.634655 92.47518 
L 311.696795 103.437998 
L 312.291573 323.185259 
L 312.49575 368.473088 
L 312.557891 368.899681 
L 312.620032 368.690205 
L 312.88635 366.596503 
L 313.410109 360.717222 
L 314.280082 347.857793 
L 315.531777 330.322184 
L 316.188695 320.342978 
L 316.446136 312.659308 
L 316.614805 300.177726 
L 316.739086 270.268302 
L 316.845614 166.110773 
L 316.934386 92.44883 
L 316.996527 103.69174 
L 317.600182 327.596103 
L 317.795482 368.487844 
L 317.857623 368.899417 
L 317.910886 368.7321 
L 318.150573 366.911639 
L 318.665455 361.280566 
L 319.464409 349.625819 
L 320.787123 330.889481 
L 321.488427 320.325588 
L 321.745868 312.621629 
L 321.914536 300.07391 
L 322.038818 269.885449 
L 322.145345 164.833288 
L 322.234118 92.429596 
L 322.296259 103.946537 
L 322.908791 331.965052 
L 323.095214 368.502599 
L 323.157355 368.89889 
L 323.210618 368.727884 
L 323.459182 366.824423 
L 323.974064 361.155935 
L 324.790773 349.201335 
L 326.095732 330.763005 
L 326.779282 320.493168 
L 327.036723 312.978923 
L 327.205391 301.044349 
L 327.329673 273.385667 
L 327.427323 190.141311 
L 327.53385 92.418265 
L 327.595991 104.201596 
L 328.2174 336.2373 
L 328.403823 368.646729 
L 328.457086 368.898363 
L 328.51035 368.723669 
L 328.758914 366.816782 
L 329.273795 361.145395 
L 329.318182 360.568086 
L 329.335936 361.472915 
L 329.531236 365.485361 
L 329.620009 365.674284 
L 329.664395 365.616579 
L 329.815309 365.006333 
L 330.214786 362.173538 
L 332.176664 347.333445 
L 332.869091 344.093293 
L 333.428359 342.428555 
L 333.889977 341.681293 
L 334.262823 341.45311 
L 334.609036 341.489999 
L 335.061777 341.78063 
L 336.553159 342.876753 
L 337.156814 342.973982 
L 338.097805 342.863315 
L 339.580309 342.667805 
L 342.092577 342.704167 
L 435.845455 342.702322 
L 435.845455 342.702322 
" style="fill:none;stroke:#1f77b4;stroke-linecap:square;stroke-width:1.5;"/>
   </g>
   <g id="line2d_14">
    <path clip-path="url(#pdf649daca7)" d="M 80.754545 342.77162 
L 81.233918 341.583366 
L 81.686659 340.966136 
L 82.068382 340.788154 
L 82.450105 340.857401 
L 83.027127 341.227338 
L 84.074645 341.887469 
L 84.740441 342.025103 
L 85.637045 341.957513 
L 87.652186 341.769081 
L 142.220782 341.813852 
L 151.772727 341.813852 
L 152.314241 296.969394 
L 152.411891 253.399984 
L 152.562805 67.771643 
L 152.687086 97.529195 
L 153.557059 369.178197 
L 153.574814 369.162474 
L 153.681341 368.604918 
L 154.089695 364.962861 
L 154.675595 357.568941 
L 157.321023 317.993719 
L 157.534077 309.45593 
L 157.684991 293.034603 
L 157.791518 252.804764 
L 157.960186 91.339893 
L 158.066714 119.586479 
L 158.839036 368.613527 
L 158.874545 368.75982 
L 158.936686 368.566407 
L 159.194127 366.519879 
L 159.717886 360.586129 
L 160.614491 347.28691 
L 161.795168 330.913409 
L 162.50535 320.469655 
L 162.762791 313.067625 
L 162.931459 301.30905 
L 163.055741 274.07794 
L 163.153391 191.662705 
L 163.259918 92.266475 
L 163.322059 103.695184 
L 163.925714 326.779876 
L 164.121014 368.326172 
L 164.174277 368.727655 
L 164.236418 368.544958 
L 164.484982 366.582083 
L 165.008741 360.674429 
L 165.896468 347.526299 
L 167.086023 331.007003 
L 167.805082 320.467249 
L 168.062523 313.091366 
L 168.231191 301.407727 
L 168.355473 274.477694 
L 168.453123 193.172198 
L 168.55965 92.361337 
L 168.621791 103.444373 
L 169.216568 322.368594 
L 169.420745 368.308647 
L 169.482886 368.725305 
L 169.53615 368.547207 
L 169.784714 366.587292 
L 170.308473 360.681834 
L 171.187323 347.671047 
L 172.376877 331.127946 
L 173.104814 320.481659 
L 173.362255 313.123756 
L 173.530923 301.496657 
L 173.655205 274.792554 
L 173.752855 194.298575 
L 173.859382 92.392589 
L 173.921523 103.209197 
L 174.507423 317.987938 
L 174.729355 368.438562 
L 174.782618 368.725623 
L 174.844759 368.502898 
L 175.119955 366.260542 
L 175.652591 360.103332 
L 176.637968 345.386326 
L 177.792014 329.661703 
L 178.413423 320.316165 
L 178.670864 312.77254 
L 178.839532 300.549025 
L 178.963814 271.408072 
L 179.061464 182.53691 
L 179.167991 92.424511 
L 179.221255 102.97536 
L 179.798277 313.655582 
L 180.029086 368.427534 
L 180.08235 368.726008 
L 180.144491 368.507303 
L 180.419686 366.267999 
L 180.952323 360.113797 
L 181.928823 345.532027 
L 183.082868 329.785675 
L 183.713155 320.332207 
L 183.970595 312.806914 
L 184.139264 300.64324 
L 184.263545 271.750859 
L 184.361195 183.697209 
L 184.467723 92.394766 
L 184.520986 102.743963 
L 185.098009 313.309269 
L 185.328818 368.416051 
L 185.382082 368.72622 
L 185.444223 368.511628 
L 185.710541 366.359709 
L 186.243177 360.24277 
L 187.193045 346.081172 
L 188.355968 330.137001 
L 189.012886 320.348118 
L 189.270327 312.840962 
L 189.438995 300.735962 
L 189.563277 272.086372 
L 189.660927 184.844699 
L 189.767455 92.369845 
L 189.820718 102.515835 
L 190.388864 309.062892 
L 190.62855 368.404438 
L 190.681814 368.726376 
L 190.743955 368.515917 
L 191.010273 366.367015 
L 191.542909 360.253067 
L 192.492777 346.092891 
L 193.6557 330.146895 
L 194.312618 320.363954 
L 194.570059 312.874818 
L 194.738727 300.827673 
L 194.863009 272.416815 
L 194.960659 185.98094 
L 195.067186 92.351274 
L 195.12045 102.289781 
L 195.679718 304.910473 
L 195.937159 368.512248 
L 195.981545 368.726435 
L 196.043686 368.520158 
L 196.310005 366.374286 
L 196.842641 360.263317 
L 197.792509 346.104564 
L 198.955432 330.156754 
L 199.61235 320.379738 
L 199.869791 312.908451 
L 200.038459 300.918596 
L 200.162741 272.743232 
L 200.260391 187.106683 
L 200.366918 92.337407 
L 200.420182 102.066568 
L 200.970573 300.863503 
L 201.236891 368.503315 
L 201.281277 368.726428 
L 201.343418 368.524361 
L 201.609736 366.381518 
L 202.133495 360.3915 
L 203.056732 346.656175 
L 204.219655 330.620687 
L 204.912082 320.395426 
L 205.169523 312.941817 
L 205.338191 301.008663 
L 205.462473 273.065337 
L 205.560123 188.222874 
L 205.66665 92.329318 
L 205.719914 101.844878 
L 206.261427 296.922674 
L 206.5455 368.586496 
L 206.581009 368.726288 
L 206.64315 368.528533 
L 206.900591 366.472208 
L 207.42435 360.51914 
L 208.329832 347.074264 
L 209.501632 330.85717 
L 210.211814 320.41107 
L 210.469255 312.975015 
L 210.637923 301.098143 
L 210.762205 273.384287 
L 210.859855 189.334605 
L 210.966382 92.326923 
L 211.019645 101.624196 
L 211.543405 289.646403 
L 211.854109 368.646816 
L 211.880741 368.726083 
L 211.942882 368.532701 
L 212.200323 366.479415 
L 212.724082 360.529304 
L 213.629564 347.086029 
L 214.801364 330.866998 
L 215.511545 320.426758 
L 215.768986 313.008152 
L 215.937655 301.187307 
L 216.061936 273.701359 
L 216.159586 190.443063 
L 216.266114 92.329866 
L 216.328255 104.028408 
L 216.940786 331.287547 
L 217.127209 368.342439 
L 217.180473 368.725828 
L 217.242614 368.536849 
L 217.500055 366.486606 
L 218.023814 360.539449 
L 218.929295 347.097776 
L 220.101095 330.876815 
L 220.811277 320.442438 
L 221.068718 313.041266 
L 221.237386 301.276336 
L 221.361668 274.017605 
L 221.459318 191.555157 
L 221.565845 92.34094 
L 221.627986 103.79261 
L 222.231641 326.930543 
L 222.426941 368.329042 
L 222.480205 368.72542 
L 222.542345 368.540961 
L 222.799786 366.493809 
L 223.323545 360.549615 
L 224.229027 347.109552 
L 225.409705 330.773347 
L 226.111009 320.458163 
L 226.36845 313.074463 
L 226.537118 301.365315 
L 226.6614 274.332686 
L 226.75905 192.666681 
L 226.865577 92.357499 
L 226.927718 103.557594 
L 227.522495 322.539388 
L 227.726673 368.315182 
L 227.788814 368.72487 
L 227.842077 368.54505 
L 228.090641 366.583614 
L 228.6144 360.676624 
L 229.49325 347.664967 
L 230.682805 331.122938 
L 231.410741 320.473871 
L 231.668182 313.107545 
L 231.83685 301.453635 
L 231.961132 274.642604 
L 232.058782 193.76457 
L 232.165309 92.379858 
L 232.22745 103.323463 
L 232.822227 322.186434 
L 233.026405 368.301123 
L 233.088545 368.725383 
L 233.141809 368.549162 
L 233.390373 366.59083 
L 233.914132 360.68685 
L 234.792982 347.676909 
L 235.982536 331.132857 
L 236.710473 320.489628 
L 236.967914 313.140672 
L 237.136582 301.541937 
L 237.260864 274.950893 
L 237.358514 194.864168 
L 237.465041 92.408691 
L 237.527182 103.089471 
L 238.113082 317.807554 
L 238.335014 368.432962 
L 238.388277 368.725831 
L 238.450418 368.505151 
L 238.725614 366.264352 
L 239.25825 360.108678 
L 240.243627 345.392344 
L 241.397673 329.66683 
L 242.019082 320.324367 
L 242.276523 312.790128 
L 242.445191 300.597323 
L 242.569473 271.584205 
L 242.667123 183.132435 
L 242.77365 92.408724 
L 242.826914 102.856553 
L 243.403936 313.478015 
L 243.634745 368.421689 
L 243.688009 368.726127 
L 243.75015 368.50952 
L 244.025345 366.271787 
L 244.557982 360.119114 
L 245.534482 345.538023 
L 246.688527 329.790771 
L 247.318814 320.340353 
L 247.576255 312.824351 
L 247.744923 300.69074 
L 247.869205 271.922789 
L 247.966855 184.284174 
L 248.073382 92.381356 
L 248.126645 102.627083 
L 248.694791 309.227485 
L 248.934477 368.410147 
L 248.987741 368.726311 
L 249.049882 368.513825 
L 249.3162 366.363447 
L 249.848836 360.248037 
L 250.798705 346.087166 
L 251.961627 330.142061 
L 252.618545 320.356217 
L 252.875986 312.858279 
L 253.044655 300.782891 
L 253.168936 272.255633 
L 253.266586 185.426222 
L 253.373114 92.359668 
L 253.426377 102.400213 
L 253.985645 305.071094 
L 254.243086 368.516576 
L 254.287473 368.726413 
L 254.349614 368.518084 
L 254.615932 366.370727 
L 255.148568 360.258299 
L 256.098436 346.098849 
L 257.261359 330.151927 
L 257.918277 320.372009 
L 258.175718 312.891994 
L 258.344386 300.874127 
L 258.468668 272.583847 
L 258.566318 186.555994 
L 258.672845 92.343752 
L 258.726109 102.175796 
L 259.2765 301.019008 
L 259.542818 368.50774 
L 259.587205 368.726444 
L 259.649345 368.522298 
L 259.915664 366.377962 
L 260.4483 360.2685 
L 261.398168 346.110469 
L 262.561091 330.161743 
L 263.218009 320.387729 
L 263.47545 312.925463 
L 263.644118 300.964544 
L 263.7684 272.907662 
L 263.86605 187.675972 
L 263.972577 92.332522 
L 264.025841 101.953685 
L 264.567355 297.074818 
L 264.851427 368.589814 
L 264.886936 368.726368 
L 264.949077 368.526483 
L 265.206518 366.468671 
L 265.730277 360.514153 
L 266.635759 347.068494 
L 267.807559 330.852349 
L 268.517741 320.403374 
L 268.775182 312.9587 
L 268.94385 301.054189 
L 269.068132 273.227773 
L 269.165782 188.788364 
L 269.272309 92.32756 
L 269.325573 101.732471 
L 269.858209 293.234949 
L 270.151159 368.583019 
L 270.186668 368.726189 
L 270.248809 368.530655 
L 270.50625 366.475875 
L 271.030009 360.524311 
L 271.935491 347.080248 
L 273.107291 330.862169 
L 273.817473 320.419051 
L 274.074914 312.991876 
L 274.243582 301.143523 
L 274.367864 273.545712 
L 274.465514 189.897816 
L 274.572041 92.327386 
L 274.634182 104.144319 
L 275.255591 335.385173 
L 275.442014 368.479655 
L 275.4864 368.725967 
L 275.548541 368.534811 
L 275.805982 366.483066 
L 276.329741 360.534455 
L 277.235223 347.091993 
L 278.407023 330.871982 
L 279.117205 320.434716 
L 279.374645 313.024959 
L 279.543314 301.232499 
L 279.667595 273.861926 
L 279.765245 191.007281 
L 279.871773 92.334576 
L 279.933914 103.908566 
L 280.546445 331.112043 
L 280.741745 368.469827 
L 280.786132 368.725643 
L 280.848273 368.538945 
L 281.105714 366.490267 
L 281.629473 360.544615 
L 282.534955 347.103759 
L 283.706755 330.881808 
L 284.416936 320.450426 
L 284.674377 313.058141 
L 284.843045 301.321645 
L 284.967327 274.17843 
L 285.064977 192.121531 
L 285.171505 92.348993 
L 285.233645 103.673122 
L 285.8373 326.751657 
L 286.0326 368.322013 
L 286.094741 368.724601 
L 286.148005 368.543024 
L 286.396568 366.580068 
L 286.920327 360.671599 
L 287.808055 347.52305 
L 288.997609 331.004868 
L 289.716668 320.466126 
L 289.974109 313.091252 
L 290.142777 301.410165 
L 290.267059 274.490259 
L 290.364709 193.224306 
L 290.471236 92.367951 
L 290.533377 103.438656 
L 291.128155 322.360315 
L 291.332332 368.308093 
L 291.394473 368.725142 
L 291.447736 368.547141 
L 291.6963 366.587276 
L 292.220059 360.681813 
L 293.098909 347.671026 
L 294.288464 331.127969 
L 295.0164 320.48186 
L 295.273841 313.124339 
L 295.442509 301.498407 
L 295.566791 274.79895 
L 295.664441 194.321939 
L 295.770968 92.393594 
L 295.833109 103.204614 
L 296.419009 317.981065 
L 296.640941 368.438335 
L 296.694205 368.72562 
L 296.756345 368.502972 
L 297.031541 366.260675 
L 297.564177 360.103518 
L 298.549555 345.386535 
L 299.7036 329.661884 
L 300.325009 320.316466 
L 300.58245 312.773198 
L 300.751118 300.550846 
L 300.8754 271.414739 
L 300.97305 182.559483 
L 301.079577 92.423903 
L 301.132841 102.970879 
L 301.709864 313.648901 
L 301.940673 368.427317 
L 301.993936 368.726014 
L 302.056077 368.507387 
L 302.331273 366.268141 
L 302.863909 360.113996 
L 303.840409 345.532252 
L 304.994455 329.785866 
L 305.624741 320.332514 
L 305.882182 312.807572 
L 306.05085 300.645032 
L 306.175132 271.757349 
L 306.272782 183.719282 
L 306.379309 92.394239 
L 306.432573 102.739565 
L 307.009595 313.302681 
L 307.240405 368.415831 
L 307.293668 368.726224 
L 307.355809 368.511711 
L 307.622127 366.35985 
L 308.154764 360.242968 
L 309.104632 346.081397 
L 310.267555 330.137191 
L 310.924473 320.348422 
L 311.181914 312.841611 
L 311.350582 300.737729 
L 311.474864 272.092761 
L 311.572514 184.866632 
L 311.679041 92.369428 
L 311.732305 102.511483 
L 312.30045 309.056439 
L 312.540136 368.404212 
L 312.5934 368.726378 
L 312.655541 368.515998 
L 312.921859 366.367155 
L 313.454495 360.253264 
L 314.404364 346.093116 
L 315.567286 330.147084 
L 316.224205 320.364257 
L 316.481645 312.875466 
L 316.650314 300.829427 
L 316.774595 272.423128 
L 316.872245 186.002671 
L 316.978773 92.350967 
L 317.032036 102.285465 
L 317.591305 304.904187 
L 317.848745 368.512078 
L 317.893132 368.726435 
L 317.955273 368.52024 
L 318.221591 366.374425 
L 318.754227 360.263513 
L 319.704095 346.104788 
L 320.867018 330.156943 
L 321.523936 320.380041 
L 321.781377 312.909096 
L 321.950045 300.920339 
L 322.074327 272.749472 
L 322.171977 187.128299 
L 322.278505 92.337187 
L 322.331768 102.062286 
L 322.882159 300.857394 
L 323.148477 368.503139 
L 323.192864 368.726427 
L 323.255005 368.524442 
L 323.521323 366.381657 
L 324.045082 360.391697 
L 324.968318 346.656401 
L 326.131241 330.620876 
L 326.823668 320.395727 
L 327.081109 312.942458 
L 327.249777 301.010392 
L 327.374059 273.071513 
L 327.471709 188.24433 
L 327.578236 92.329226 
L 327.6315 101.84061 
L 328.173014 296.916697 
L 328.457086 368.586365 
L 328.492595 368.726284 
L 328.554736 368.528614 
L 328.812177 366.472347 
L 329.318182 360.752804 
L 329.353691 362.399399 
L 329.540114 365.391293 
L 329.593377 365.45265 
L 329.646641 365.365492 
L 329.815309 364.55286 
L 330.285805 360.846563 
L 331.874836 348.002329 
L 332.593895 344.107203 
L 333.188673 341.989946 
L 333.668045 340.999964 
L 334.049768 340.648608 
L 334.387105 340.614602 
L 334.786582 340.815294 
L 336.650809 342.047373 
L 337.352114 342.052012 
L 340.610073 341.781428 
L 344.587091 341.813375 
L 373.500368 341.813852 
L 435.845455 341.813852 
L 435.845455 341.813852 
" style="fill:none;stroke:#ff0000;stroke-linecap:square;stroke-width:1.5;"/>
   </g>
   <g id="patch_3">
    <path d="M 63 384.48 
L 63 51.84 
" style="fill:none;stroke:#000000;stroke-linecap:square;stroke-linejoin:miter;stroke-width:0.8;"/>
   </g>
   <g id="patch_4">
    <path d="M 453.6 384.48 
L 453.6 51.84 
" style="fill:none;stroke:#000000;stroke-linecap:square;stroke-linejoin:miter;stroke-width:0.8;"/>
   </g>
   <g id="patch_5">
    <path d="M 63 384.48 
L 453.6 384.48 
" style="fill:none;stroke:#000000;stroke-linecap:square;stroke-linejoin:miter;stroke-width:0.8;"/>
   </g>
   <g id="patch_6">
    <path d="M 63 51.84 
L 453.6 51.84 
" style="fill:none;stroke:#000000;stroke-linecap:square;stroke-linejoin:miter;stroke-width:0.8;"/>
   </g>
   <g id="legend_1">
    <g id="patch_7">
     <path d="M 383.460938 89.19625 
L 446.6 89.19625 
Q 448.6 89.19625 448.6 87.19625 
L 448.6 58.84 
Q 448.6 56.84 446.6 56.84 
L 383.460938 56.84 
Q 381.460938 56.84 381.460938 58.84 
L 381.460938 87.19625 
Q 381.460938 89.19625 383.460938 89.19625 
z
" style="fill:#ffffff;opacity:0.8;stroke:#cccccc;stroke-linejoin:miter;"/>
    </g>
    <g id="line2d_15">
     <path d="M 385.460938 64.938437 
L 405.460938 64.938437 
" style="fill:none;stroke:#1f77b4;stroke-linecap:square;stroke-width:1.5;"/>
    </g>
    <g id="line2d_16"/>
    <g id="text_15">
     <!-- target -->
     <defs>
      <path d="M 41.109375 46.296875 
Q 39.59375 47.171875 37.8125 47.578125 
Q 36.03125 48 33.890625 48 
Q 26.265625 48 22.1875 43.046875 
Q 18.109375 38.09375 18.109375 28.8125 
L 18.109375 0 
L 9.078125 0 
L 9.078125 54.6875 
L 18.109375 54.6875 
L 18.109375 46.1875 
Q 20.953125 51.171875 25.484375 53.578125 
Q 30.03125 56 36.53125 56 
Q 37.453125 56 38.578125 55.875 
Q 39.703125 55.765625 41.0625 55.515625 
z
" id="DejaVuSans-72"/>
     </defs>
     <g transform="translate(413.460938 68.438437)scale(0.1 -0.1)">
      <use xlink:href="#DejaVuSans-74"/>
      <use x="39.208984" xlink:href="#DejaVuSans-61"/>
      <use x="100.488281" xlink:href="#DejaVuSans-72"/>
      <use x="141.585938" xlink:href="#DejaVuSans-67"/>
      <use x="205.0625" xlink:href="#DejaVuSans-65"/>
      <use x="266.585938" xlink:href="#DejaVuSans-74"/>
     </g>
    </g>
    <g id="line2d_17">
     <path d="M 385.460938 79.616562 
L 405.460938 79.616562 
" style="fill:none;stroke:#ff0000;stroke-linecap:square;stroke-width:1.5;"/>
    </g>
    <g id="line2d_18"/>
    <g id="text_16">
     <!-- model -->
     <defs>
      <path d="M 45.40625 46.390625 
L 45.40625 75.984375 
L 54.390625 75.984375 
L 54.390625 0 
L 45.40625 0 
L 45.40625 8.203125 
Q 42.578125 3.328125 38.25 0.953125 
Q 33.9375 -1.421875 27.875 -1.421875 
Q 17.96875 -1.421875 11.734375 6.484375 
Q 5.515625 14.40625 5.515625 27.296875 
Q 5.515625 40.1875 11.734375 48.09375 
Q 17.96875 56 27.875 56 
Q 33.9375 56 38.25 53.625 
Q 42.578125 51.265625 45.40625 46.390625 
z
M 14.796875 27.296875 
Q 14.796875 17.390625 18.875 11.75 
Q 22.953125 6.109375 30.078125 6.109375 
Q 37.203125 6.109375 41.296875 11.75 
Q 45.40625 17.390625 45.40625 27.296875 
Q 45.40625 37.203125 41.296875 42.84375 
Q 37.203125 48.484375 30.078125 48.484375 
Q 22.953125 48.484375 18.875 42.84375 
Q 14.796875 37.203125 14.796875 27.296875 
z
" id="DejaVuSans-64"/>
     </defs>
     <g transform="translate(413.460938 83.116562)scale(0.1 -0.1)">
      <use xlink:href="#DejaVuSans-6d"/>
      <use x="97.412109" xlink:href="#DejaVuSans-6f"/>
      <use x="158.59375" xlink:href="#DejaVuSans-64"/>
      <use x="222.070312" xlink:href="#DejaVuSans-65"/>
      <use x="283.59375" xlink:href="#DejaVuSans-6c"/>
     </g>
    </g>
   </g>
  </g>
 </g>
 <defs>
  <clipPath id="pdf649daca7">
   <rect height="332.64" width="390.6" x="63" y="51.84"/>
  </clipPath>
 </defs>
</svg>
