<?xml version="1.0" encoding="utf-8" standalone="no"?>
<!DOCTYPE svg PUBLIC "-//W3C//DTD SVG 1.1//EN"
  "http://www.w3.org/Graphics/SVG/1.1/DTD/svg11.dtd">
<!-- Created with matplotlib (http://matplotlib.org/) -->
<svg height="432pt" version="1.1" viewBox="0 0 504 432" width="504pt" xmlns="http://www.w3.org/2000/svg" xmlns:xlink="http://www.w3.org/1999/xlink">
 <defs>
  <style type="text/css">
*{stroke-linecap:butt;stroke-linejoin:round;}
  </style>
 </defs>
 <g id="figure_1">
  <g id="patch_1">
   <path d="M 0 432 
L 504 432 
L 504 0 
L 0 0 
z
" style="fill:#ffffff;"/>
  </g>
  <g id="axes_1">
   <g id="patch_2">
    <path d="M 63 384.48 
L 453.6 384.48 
L 453.6 51.84 
L 63 51.84 
z
" style="fill:#ffffff;"/>
   </g>
   <g id="matplotlib.axis_1">
    <g id="xtick_1">
     <g id="line2d_1">
      <defs>
       <path d="M 0 0 
L 0 3.5 
" id="m509a31cec5" style="stroke:#000000;stroke-width:0.8;"/>
      </defs>
      <g>
       <use style="stroke:#000000;stroke-width:0.8;" x="80.754545" xlink:href="#m509a31cec5" y="384.48"/>
      </g>
     </g>
     <g id="text_1">
      <!-- 0 -->
      <defs>
       <path d="M 31.78125 66.40625 
Q 24.171875 66.40625 20.328125 58.90625 
Q 16.5 51.421875 16.5 36.375 
Q 16.5 21.390625 20.328125 13.890625 
Q 24.171875 6.390625 31.78125 6.390625 
Q 39.453125 6.390625 43.28125 13.890625 
Q 47.125 21.390625 47.125 36.375 
Q 47.125 51.421875 43.28125 58.90625 
Q 39.453125 66.40625 31.78125 66.40625 
z
M 31.78125 74.21875 
Q 44.046875 74.21875 50.515625 64.515625 
Q 56.984375 54.828125 56.984375 36.375 
Q 56.984375 17.96875 50.515625 8.265625 
Q 44.046875 -1.421875 31.78125 -1.421875 
Q 19.53125 -1.421875 13.0625 8.265625 
Q 6.59375 17.96875 6.59375 36.375 
Q 6.59375 54.828125 13.0625 64.515625 
Q 19.53125 74.21875 31.78125 74.21875 
z
" id="DejaVuSans-30"/>
      </defs>
      <g transform="translate(77.573295 399.078438)scale(0.1 -0.1)">
       <use xlink:href="#DejaVuSans-30"/>
      </g>
     </g>
    </g>
    <g id="xtick_2">
     <g id="line2d_2">
      <g>
       <use style="stroke:#000000;stroke-width:0.8;" x="151.772727" xlink:href="#m509a31cec5" y="384.48"/>
      </g>
     </g>
     <g id="text_2">
      <!-- 200 -->
      <defs>
       <path d="M 19.1875 8.296875 
L 53.609375 8.296875 
L 53.609375 0 
L 7.328125 0 
L 7.328125 8.296875 
Q 12.9375 14.109375 22.625 23.890625 
Q 32.328125 33.6875 34.8125 36.53125 
Q 39.546875 41.84375 41.421875 45.53125 
Q 43.3125 49.21875 43.3125 52.78125 
Q 43.3125 58.59375 39.234375 62.25 
Q 35.15625 65.921875 28.609375 65.921875 
Q 23.96875 65.921875 18.8125 64.3125 
Q 13.671875 62.703125 7.8125 59.421875 
L 7.8125 69.390625 
Q 13.765625 71.78125 18.9375 73 
Q 24.125 74.21875 28.421875 74.21875 
Q 39.75 74.21875 46.484375 68.546875 
Q 53.21875 62.890625 53.21875 53.421875 
Q 53.21875 48.921875 51.53125 44.890625 
Q 49.859375 40.875 45.40625 35.40625 
Q 44.1875 33.984375 37.640625 27.21875 
Q 31.109375 20.453125 19.1875 8.296875 
z
" id="DejaVuSans-32"/>
      </defs>
      <g transform="translate(142.228977 399.078438)scale(0.1 -0.1)">
       <use xlink:href="#DejaVuSans-32"/>
       <use x="63.623047" xlink:href="#DejaVuSans-30"/>
       <use x="127.246094" xlink:href="#DejaVuSans-30"/>
      </g>
     </g>
    </g>
    <g id="xtick_3">
     <g id="line2d_3">
      <g>
       <use style="stroke:#000000;stroke-width:0.8;" x="222.790909" xlink:href="#m509a31cec5" y="384.48"/>
      </g>
     </g>
     <g id="text_3">
      <!-- 400 -->
      <defs>
       <path d="M 37.796875 64.3125 
L 12.890625 25.390625 
L 37.796875 25.390625 
z
M 35.203125 72.90625 
L 47.609375 72.90625 
L 47.609375 25.390625 
L 58.015625 25.390625 
L 58.015625 17.1875 
L 47.609375 17.1875 
L 47.609375 0 
L 37.796875 0 
L 37.796875 17.1875 
L 4.890625 17.1875 
L 4.890625 26.703125 
z
" id="DejaVuSans-34"/>
      </defs>
      <g transform="translate(213.247159 399.078438)scale(0.1 -0.1)">
       <use xlink:href="#DejaVuSans-34"/>
       <use x="63.623047" xlink:href="#DejaVuSans-30"/>
       <use x="127.246094" xlink:href="#DejaVuSans-30"/>
      </g>
     </g>
    </g>
    <g id="xtick_4">
     <g id="line2d_4">
      <g>
       <use style="stroke:#000000;stroke-width:0.8;" x="293.809091" xlink:href="#m509a31cec5" y="384.48"/>
      </g>
     </g>
     <g id="text_4">
      <!-- 600 -->
      <defs>
       <path d="M 33.015625 40.375 
Q 26.375 40.375 22.484375 35.828125 
Q 18.609375 31.296875 18.609375 23.390625 
Q 18.609375 15.53125 22.484375 10.953125 
Q 26.375 6.390625 33.015625 6.390625 
Q 39.65625 6.390625 43.53125 10.953125 
Q 47.40625 15.53125 47.40625 23.390625 
Q 47.40625 31.296875 43.53125 35.828125 
Q 39.65625 40.375 33.015625 40.375 
z
M 52.59375 71.296875 
L 52.59375 62.3125 
Q 48.875 64.0625 45.09375 64.984375 
Q 41.3125 65.921875 37.59375 65.921875 
Q 27.828125 65.921875 22.671875 59.328125 
Q 17.53125 52.734375 16.796875 39.40625 
Q 19.671875 43.65625 24.015625 45.921875 
Q 28.375 48.1875 33.59375 48.1875 
Q 44.578125 48.1875 50.953125 41.515625 
Q 57.328125 34.859375 57.328125 23.390625 
Q 57.328125 12.15625 50.6875 5.359375 
Q 44.046875 -1.421875 33.015625 -1.421875 
Q 20.359375 -1.421875 13.671875 8.265625 
Q 6.984375 17.96875 6.984375 36.375 
Q 6.984375 53.65625 15.1875 63.9375 
Q 23.390625 74.21875 37.203125 74.21875 
Q 40.921875 74.21875 44.703125 73.484375 
Q 48.484375 72.75 52.59375 71.296875 
z
" id="DejaVuSans-36"/>
      </defs>
      <g transform="translate(284.265341 399.078438)scale(0.1 -0.1)">
       <use xlink:href="#DejaVuSans-36"/>
       <use x="63.623047" xlink:href="#DejaVuSans-30"/>
       <use x="127.246094" xlink:href="#DejaVuSans-30"/>
      </g>
     </g>
    </g>
    <g id="xtick_5">
     <g id="line2d_5">
      <g>
       <use style="stroke:#000000;stroke-width:0.8;" x="364.827273" xlink:href="#m509a31cec5" y="384.48"/>
      </g>
     </g>
     <g id="text_5">
      <!-- 800 -->
      <defs>
       <path d="M 31.78125 34.625 
Q 24.75 34.625 20.71875 30.859375 
Q 16.703125 27.09375 16.703125 20.515625 
Q 16.703125 13.921875 20.71875 10.15625 
Q 24.75 6.390625 31.78125 6.390625 
Q 38.8125 6.390625 42.859375 10.171875 
Q 46.921875 13.96875 46.921875 20.515625 
Q 46.921875 27.09375 42.890625 30.859375 
Q 38.875 34.625 31.78125 34.625 
z
M 21.921875 38.8125 
Q 15.578125 40.375 12.03125 44.71875 
Q 8.5 49.078125 8.5 55.328125 
Q 8.5 64.0625 14.71875 69.140625 
Q 20.953125 74.21875 31.78125 74.21875 
Q 42.671875 74.21875 48.875 69.140625 
Q 55.078125 64.0625 55.078125 55.328125 
Q 55.078125 49.078125 51.53125 44.71875 
Q 48 40.375 41.703125 38.8125 
Q 48.828125 37.15625 52.796875 32.3125 
Q 56.78125 27.484375 56.78125 20.515625 
Q 56.78125 9.90625 50.3125 4.234375 
Q 43.84375 -1.421875 31.78125 -1.421875 
Q 19.734375 -1.421875 13.25 4.234375 
Q 6.78125 9.90625 6.78125 20.515625 
Q 6.78125 27.484375 10.78125 32.3125 
Q 14.796875 37.15625 21.921875 38.8125 
z
M 18.3125 54.390625 
Q 18.3125 48.734375 21.84375 45.5625 
Q 25.390625 42.390625 31.78125 42.390625 
Q 38.140625 42.390625 41.71875 45.5625 
Q 45.3125 48.734375 45.3125 54.390625 
Q 45.3125 60.0625 41.71875 63.234375 
Q 38.140625 66.40625 31.78125 66.40625 
Q 25.390625 66.40625 21.84375 63.234375 
Q 18.3125 60.0625 18.3125 54.390625 
z
" id="DejaVuSans-38"/>
      </defs>
      <g transform="translate(355.283523 399.078438)scale(0.1 -0.1)">
       <use xlink:href="#DejaVuSans-38"/>
       <use x="63.623047" xlink:href="#DejaVuSans-30"/>
       <use x="127.246094" xlink:href="#DejaVuSans-30"/>
      </g>
     </g>
    </g>
    <g id="text_6">
     <!-- time [ms] -->
     <defs>
      <path d="M 18.3125 70.21875 
L 18.3125 54.6875 
L 36.8125 54.6875 
L 36.8125 47.703125 
L 18.3125 47.703125 
L 18.3125 18.015625 
Q 18.3125 11.328125 20.140625 9.421875 
Q 21.96875 7.515625 27.59375 7.515625 
L 36.8125 7.515625 
L 36.8125 0 
L 27.59375 0 
Q 17.1875 0 13.234375 3.875 
Q 9.28125 7.765625 9.28125 18.015625 
L 9.28125 47.703125 
L 2.6875 47.703125 
L 2.6875 54.6875 
L 9.28125 54.6875 
L 9.28125 70.21875 
z
" id="DejaVuSans-74"/>
      <path d="M 9.421875 54.6875 
L 18.40625 54.6875 
L 18.40625 0 
L 9.421875 0 
z
M 9.421875 75.984375 
L 18.40625 75.984375 
L 18.40625 64.59375 
L 9.421875 64.59375 
z
" id="DejaVuSans-69"/>
      <path d="M 52 44.1875 
Q 55.375 50.25 60.0625 53.125 
Q 64.75 56 71.09375 56 
Q 79.640625 56 84.28125 50.015625 
Q 88.921875 44.046875 88.921875 33.015625 
L 88.921875 0 
L 79.890625 0 
L 79.890625 32.71875 
Q 79.890625 40.578125 77.09375 44.375 
Q 74.3125 48.1875 68.609375 48.1875 
Q 61.625 48.1875 57.5625 43.546875 
Q 53.515625 38.921875 53.515625 30.90625 
L 53.515625 0 
L 44.484375 0 
L 44.484375 32.71875 
Q 44.484375 40.625 41.703125 44.40625 
Q 38.921875 48.1875 33.109375 48.1875 
Q 26.21875 48.1875 22.15625 43.53125 
Q 18.109375 38.875 18.109375 30.90625 
L 18.109375 0 
L 9.078125 0 
L 9.078125 54.6875 
L 18.109375 54.6875 
L 18.109375 46.1875 
Q 21.1875 51.21875 25.484375 53.609375 
Q 29.78125 56 35.6875 56 
Q 41.65625 56 45.828125 52.96875 
Q 50 49.953125 52 44.1875 
z
" id="DejaVuSans-6d"/>
      <path d="M 56.203125 29.59375 
L 56.203125 25.203125 
L 14.890625 25.203125 
Q 15.484375 15.921875 20.484375 11.0625 
Q 25.484375 6.203125 34.421875 6.203125 
Q 39.59375 6.203125 44.453125 7.46875 
Q 49.3125 8.734375 54.109375 11.28125 
L 54.109375 2.78125 
Q 49.265625 0.734375 44.1875 -0.34375 
Q 39.109375 -1.421875 33.890625 -1.421875 
Q 20.796875 -1.421875 13.15625 6.1875 
Q 5.515625 13.8125 5.515625 26.8125 
Q 5.515625 40.234375 12.765625 48.109375 
Q 20.015625 56 32.328125 56 
Q 43.359375 56 49.78125 48.890625 
Q 56.203125 41.796875 56.203125 29.59375 
z
M 47.21875 32.234375 
Q 47.125 39.59375 43.09375 43.984375 
Q 39.0625 48.390625 32.421875 48.390625 
Q 24.90625 48.390625 20.390625 44.140625 
Q 15.875 39.890625 15.1875 32.171875 
z
" id="DejaVuSans-65"/>
      <path id="DejaVuSans-20"/>
      <path d="M 8.59375 75.984375 
L 29.296875 75.984375 
L 29.296875 69 
L 17.578125 69 
L 17.578125 -6.203125 
L 29.296875 -6.203125 
L 29.296875 -13.1875 
L 8.59375 -13.1875 
z
" id="DejaVuSans-5b"/>
      <path d="M 44.28125 53.078125 
L 44.28125 44.578125 
Q 40.484375 46.53125 36.375 47.5 
Q 32.28125 48.484375 27.875 48.484375 
Q 21.1875 48.484375 17.84375 46.4375 
Q 14.5 44.390625 14.5 40.28125 
Q 14.5 37.15625 16.890625 35.375 
Q 19.28125 33.59375 26.515625 31.984375 
L 29.59375 31.296875 
Q 39.15625 29.25 43.1875 25.515625 
Q 47.21875 21.78125 47.21875 15.09375 
Q 47.21875 7.46875 41.1875 3.015625 
Q 35.15625 -1.421875 24.609375 -1.421875 
Q 20.21875 -1.421875 15.453125 -0.5625 
Q 10.6875 0.296875 5.421875 2 
L 5.421875 11.28125 
Q 10.40625 8.6875 15.234375 7.390625 
Q 20.0625 6.109375 24.8125 6.109375 
Q 31.15625 6.109375 34.5625 8.28125 
Q 37.984375 10.453125 37.984375 14.40625 
Q 37.984375 18.0625 35.515625 20.015625 
Q 33.0625 21.96875 24.703125 23.78125 
L 21.578125 24.515625 
Q 13.234375 26.265625 9.515625 29.90625 
Q 5.8125 33.546875 5.8125 39.890625 
Q 5.8125 47.609375 11.28125 51.796875 
Q 16.75 56 26.8125 56 
Q 31.78125 56 36.171875 55.265625 
Q 40.578125 54.546875 44.28125 53.078125 
z
" id="DejaVuSans-73"/>
      <path d="M 30.421875 75.984375 
L 30.421875 -13.1875 
L 9.71875 -13.1875 
L 9.71875 -6.203125 
L 21.390625 -6.203125 
L 21.390625 69 
L 9.71875 69 
L 9.71875 75.984375 
z
" id="DejaVuSans-5d"/>
     </defs>
     <g transform="translate(234.038281 412.756563)scale(0.1 -0.1)">
      <use xlink:href="#DejaVuSans-74"/>
      <use x="39.208984" xlink:href="#DejaVuSans-69"/>
      <use x="66.992188" xlink:href="#DejaVuSans-6d"/>
      <use x="164.404297" xlink:href="#DejaVuSans-65"/>
      <use x="225.927734" xlink:href="#DejaVuSans-20"/>
      <use x="257.714844" xlink:href="#DejaVuSans-5b"/>
      <use x="296.728516" xlink:href="#DejaVuSans-6d"/>
      <use x="394.140625" xlink:href="#DejaVuSans-73"/>
      <use x="446.240234" xlink:href="#DejaVuSans-5d"/>
     </g>
    </g>
   </g>
   <g id="matplotlib.axis_2">
    <g id="ytick_1">
     <g id="line2d_6">
      <defs>
       <path d="M 0 0 
L -3.5 0 
" id="mf5d1829b6a" style="stroke:#000000;stroke-width:0.8;"/>
      </defs>
      <g>
       <use style="stroke:#000000;stroke-width:0.8;" x="63" xlink:href="#mf5d1829b6a" y="382.295284"/>
      </g>
     </g>
     <g id="text_7">
      <!-- −80 -->
      <defs>
       <path d="M 10.59375 35.5 
L 73.1875 35.5 
L 73.1875 27.203125 
L 10.59375 27.203125 
z
" id="DejaVuSans-2212"/>
      </defs>
      <g transform="translate(34.895313 386.094503)scale(0.1 -0.1)">
       <use xlink:href="#DejaVuSans-2212"/>
       <use x="83.789062" xlink:href="#DejaVuSans-38"/>
       <use x="147.412109" xlink:href="#DejaVuSans-30"/>
      </g>
     </g>
    </g>
    <g id="ytick_2">
     <g id="line2d_7">
      <g>
       <use style="stroke:#000000;stroke-width:0.8;" x="63" xlink:href="#mf5d1829b6a" y="329.59703"/>
      </g>
     </g>
     <g id="text_8">
      <!-- −60 -->
      <g transform="translate(34.895313 333.396249)scale(0.1 -0.1)">
       <use xlink:href="#DejaVuSans-2212"/>
       <use x="83.789062" xlink:href="#DejaVuSans-36"/>
       <use x="147.412109" xlink:href="#DejaVuSans-30"/>
      </g>
     </g>
    </g>
    <g id="ytick_3">
     <g id="line2d_8">
      <g>
       <use style="stroke:#000000;stroke-width:0.8;" x="63" xlink:href="#mf5d1829b6a" y="276.898776"/>
      </g>
     </g>
     <g id="text_9">
      <!-- −40 -->
      <g transform="translate(34.895313 280.697995)scale(0.1 -0.1)">
       <use xlink:href="#DejaVuSans-2212"/>
       <use x="83.789062" xlink:href="#DejaVuSans-34"/>
       <use x="147.412109" xlink:href="#DejaVuSans-30"/>
      </g>
     </g>
    </g>
    <g id="ytick_4">
     <g id="line2d_9">
      <g>
       <use style="stroke:#000000;stroke-width:0.8;" x="63" xlink:href="#mf5d1829b6a" y="224.200523"/>
      </g>
     </g>
     <g id="text_10">
      <!-- −20 -->
      <g transform="translate(34.895313 227.999741)scale(0.1 -0.1)">
       <use xlink:href="#DejaVuSans-2212"/>
       <use x="83.789062" xlink:href="#DejaVuSans-32"/>
       <use x="147.412109" xlink:href="#DejaVuSans-30"/>
      </g>
     </g>
    </g>
    <g id="ytick_5">
     <g id="line2d_10">
      <g>
       <use style="stroke:#000000;stroke-width:0.8;" x="63" xlink:href="#mf5d1829b6a" y="171.502269"/>
      </g>
     </g>
     <g id="text_11">
      <!-- 0 -->
      <g transform="translate(49.6375 175.301488)scale(0.1 -0.1)">
       <use xlink:href="#DejaVuSans-30"/>
      </g>
     </g>
    </g>
    <g id="ytick_6">
     <g id="line2d_11">
      <g>
       <use style="stroke:#000000;stroke-width:0.8;" x="63" xlink:href="#mf5d1829b6a" y="118.804015"/>
      </g>
     </g>
     <g id="text_12">
      <!-- 20 -->
      <g transform="translate(43.275 122.603234)scale(0.1 -0.1)">
       <use xlink:href="#DejaVuSans-32"/>
       <use x="63.623047" xlink:href="#DejaVuSans-30"/>
      </g>
     </g>
    </g>
    <g id="ytick_7">
     <g id="line2d_12">
      <g>
       <use style="stroke:#000000;stroke-width:0.8;" x="63" xlink:href="#mf5d1829b6a" y="66.105761"/>
      </g>
     </g>
     <g id="text_13">
      <!-- 40 -->
      <g transform="translate(43.275 69.90498)scale(0.1 -0.1)">
       <use xlink:href="#DejaVuSans-34"/>
       <use x="63.623047" xlink:href="#DejaVuSans-30"/>
      </g>
     </g>
    </g>
    <g id="text_14">
     <!-- voltage [mV] -->
     <defs>
      <path d="M 2.984375 54.6875 
L 12.5 54.6875 
L 29.59375 8.796875 
L 46.6875 54.6875 
L 56.203125 54.6875 
L 35.6875 0 
L 23.484375 0 
z
" id="DejaVuSans-76"/>
      <path d="M 30.609375 48.390625 
Q 23.390625 48.390625 19.1875 42.75 
Q 14.984375 37.109375 14.984375 27.296875 
Q 14.984375 17.484375 19.15625 11.84375 
Q 23.34375 6.203125 30.609375 6.203125 
Q 37.796875 6.203125 41.984375 11.859375 
Q 46.1875 17.53125 46.1875 27.296875 
Q 46.1875 37.015625 41.984375 42.703125 
Q 37.796875 48.390625 30.609375 48.390625 
z
M 30.609375 56 
Q 42.328125 56 49.015625 48.375 
Q 55.71875 40.765625 55.71875 27.296875 
Q 55.71875 13.875 49.015625 6.21875 
Q 42.328125 -1.421875 30.609375 -1.421875 
Q 18.84375 -1.421875 12.171875 6.21875 
Q 5.515625 13.875 5.515625 27.296875 
Q 5.515625 40.765625 12.171875 48.375 
Q 18.84375 56 30.609375 56 
z
" id="DejaVuSans-6f"/>
      <path d="M 9.421875 75.984375 
L 18.40625 75.984375 
L 18.40625 0 
L 9.421875 0 
z
" id="DejaVuSans-6c"/>
      <path d="M 34.28125 27.484375 
Q 23.390625 27.484375 19.1875 25 
Q 14.984375 22.515625 14.984375 16.5 
Q 14.984375 11.71875 18.140625 8.90625 
Q 21.296875 6.109375 26.703125 6.109375 
Q 34.1875 6.109375 38.703125 11.40625 
Q 43.21875 16.703125 43.21875 25.484375 
L 43.21875 27.484375 
z
M 52.203125 31.203125 
L 52.203125 0 
L 43.21875 0 
L 43.21875 8.296875 
Q 40.140625 3.328125 35.546875 0.953125 
Q 30.953125 -1.421875 24.3125 -1.421875 
Q 15.921875 -1.421875 10.953125 3.296875 
Q 6 8.015625 6 15.921875 
Q 6 25.140625 12.171875 29.828125 
Q 18.359375 34.515625 30.609375 34.515625 
L 43.21875 34.515625 
L 43.21875 35.40625 
Q 43.21875 41.609375 39.140625 45 
Q 35.0625 48.390625 27.6875 48.390625 
Q 23 48.390625 18.546875 47.265625 
Q 14.109375 46.140625 10.015625 43.890625 
L 10.015625 52.203125 
Q 14.9375 54.109375 19.578125 55.046875 
Q 24.21875 56 28.609375 56 
Q 40.484375 56 46.34375 49.84375 
Q 52.203125 43.703125 52.203125 31.203125 
z
" id="DejaVuSans-61"/>
      <path d="M 45.40625 27.984375 
Q 45.40625 37.75 41.375 43.109375 
Q 37.359375 48.484375 30.078125 48.484375 
Q 22.859375 48.484375 18.828125 43.109375 
Q 14.796875 37.75 14.796875 27.984375 
Q 14.796875 18.265625 18.828125 12.890625 
Q 22.859375 7.515625 30.078125 7.515625 
Q 37.359375 7.515625 41.375 12.890625 
Q 45.40625 18.265625 45.40625 27.984375 
z
M 54.390625 6.78125 
Q 54.390625 -7.171875 48.1875 -13.984375 
Q 42 -20.796875 29.203125 -20.796875 
Q 24.46875 -20.796875 20.265625 -20.09375 
Q 16.0625 -19.390625 12.109375 -17.921875 
L 12.109375 -9.1875 
Q 16.0625 -11.328125 19.921875 -12.34375 
Q 23.78125 -13.375 27.78125 -13.375 
Q 36.625 -13.375 41.015625 -8.765625 
Q 45.40625 -4.15625 45.40625 5.171875 
L 45.40625 9.625 
Q 42.625 4.78125 38.28125 2.390625 
Q 33.9375 0 27.875 0 
Q 17.828125 0 11.671875 7.65625 
Q 5.515625 15.328125 5.515625 27.984375 
Q 5.515625 40.671875 11.671875 48.328125 
Q 17.828125 56 27.875 56 
Q 33.9375 56 38.28125 53.609375 
Q 42.625 51.21875 45.40625 46.390625 
L 45.40625 54.6875 
L 54.390625 54.6875 
z
" id="DejaVuSans-67"/>
      <path d="M 28.609375 0 
L 0.78125 72.90625 
L 11.078125 72.90625 
L 34.1875 11.53125 
L 57.328125 72.90625 
L 67.578125 72.90625 
L 39.796875 0 
z
" id="DejaVuSans-56"/>
     </defs>
     <g transform="translate(28.815625 250.624062)rotate(-90)scale(0.1 -0.1)">
      <use xlink:href="#DejaVuSans-76"/>
      <use x="59.179688" xlink:href="#DejaVuSans-6f"/>
      <use x="120.361328" xlink:href="#DejaVuSans-6c"/>
      <use x="148.144531" xlink:href="#DejaVuSans-74"/>
      <use x="187.353516" xlink:href="#DejaVuSans-61"/>
      <use x="248.632812" xlink:href="#DejaVuSans-67"/>
      <use x="312.109375" xlink:href="#DejaVuSans-65"/>
      <use x="373.632812" xlink:href="#DejaVuSans-20"/>
      <use x="405.419922" xlink:href="#DejaVuSans-5b"/>
      <use x="444.433594" xlink:href="#DejaVuSans-6d"/>
      <use x="541.845703" xlink:href="#DejaVuSans-56"/>
      <use x="610.253906" xlink:href="#DejaVuSans-5d"/>
     </g>
    </g>
   </g>
   <g id="line2d_13">
    <path clip-path="url(#p797574f787)" d="M 80.754545 342.771594 
L 81.952977 342.634842 
L 83.763941 342.691756 
L 87.749836 342.699134 
L 151.772727 342.702295 
L 152.314241 298.009433 
L 152.420768 249.188981 
L 152.562805 66.96 
L 152.678209 92.273606 
L 153.565936 369.359971 
L 153.610323 369.259053 
L 153.8145 367.874934 
L 154.293873 363.103107 
L 154.959668 353.947049 
L 157.42755 314.907655 
L 157.613973 303.737997 
L 157.738255 281.688784 
L 157.835905 218.894072 
L 157.969064 91.413834 
L 158.031205 104.616328 
L 158.883423 368.933905 
L 158.945564 368.749725 
L 159.203005 366.763001 
L 159.717886 361.068427 
L 160.534595 349.095911 
L 161.8218 330.896569 
L 162.514227 320.490508 
L 162.771668 312.94122 
L 162.940336 300.904148 
L 163.064618 272.831262 
L 163.162268 188.110466 
L 163.268795 92.337635 
L 163.322059 101.887085 
L 163.863573 297.730133 
L 164.147645 368.756576 
L 164.183155 368.902023 
L 164.245295 368.71995 
L 164.493859 366.809112 
L 165.008741 361.1343 
L 165.834327 349.038206 
L 167.112655 330.971401 
L 167.813959 320.454937 
L 168.0714 312.8959 
L 168.240068 300.819304 
L 168.36435 272.584107 
L 168.462 187.362019 
L 168.568527 92.414838 
L 168.621791 102.109999 
L 169.172182 301.696994 
L 169.4385 368.670414 
L 169.482886 368.899915 
L 169.545027 368.71389 
L 169.802468 366.718998 
L 170.31735 361.006507 
L 171.151814 348.748103 
L 172.430141 330.727671 
L 173.113691 320.436493 
L 173.371132 312.859274 
L 173.5398 300.72313 
L 173.664082 272.24473 
L 173.761732 186.20632 
L 173.868259 92.431701 
L 173.921523 102.346877 
L 174.480791 305.783743 
L 174.729355 368.560538 
L 174.782618 368.899915 
L 174.844759 368.709674 
L 175.1022 366.71162 
L 175.617082 360.995704 
L 176.451545 348.735192 
L 177.729873 330.716868 
L 178.413423 320.419629 
L 178.670864 312.823176 
L 178.839532 300.625638 
L 178.963814 271.896395 
L 179.061464 185.016789 
L 179.167991 92.449091 
L 179.221255 102.586391 
L 179.7894 309.974045 
L 180.029086 368.572922 
L 180.08235 368.900178 
L 180.144491 368.705195 
L 180.401932 366.704242 
L 180.916814 360.985164 
L 181.751277 348.722807 
L 183.029605 330.706328 
L 183.713155 320.402502 
L 183.970595 312.786814 
L 184.139264 300.527092 
L 184.263545 271.539891 
L 184.361195 183.806336 
L 184.467723 92.473069 
L 184.520986 102.829593 
L 185.098009 314.256569 
L 185.328818 368.585043 
L 185.382082 368.900178 
L 185.444223 368.700979 
L 185.701664 366.696601 
L 186.216545 360.974624 
L 187.051009 348.71016 
L 188.329336 330.695789 
L 189.012886 320.385639 
L 189.270327 312.750189 
L 189.438995 300.426966 
L 189.563277 271.178117 
L 189.660927 182.591062 
L 189.767455 92.502844 
L 189.820718 103.075167 
L 190.406618 318.611552 
L 190.619673 368.450662 
L 190.681814 368.899915 
L 190.743955 368.6965 
L 191.010273 366.607541 
L 191.525155 360.848676 
L 192.368495 348.423481 
L 193.637945 330.569313 
L 194.312618 320.368249 
L 194.570059 312.713564 
L 194.738727 300.326312 
L 194.863009 270.812919 
L 194.969536 167.960551 
L 195.058309 92.489406 
L 195.12045 103.323376 
L 195.715227 323.01291 
L 195.919405 368.466208 
L 195.981545 368.899915 
L 196.043686 368.69202 
L 196.310005 366.5999 
L 196.833764 360.7222 
L 197.703736 347.863562 
L 198.955432 330.327165 
L 199.61235 320.351122 
L 199.869791 312.676411 
L 200.038459 300.224604 
L 200.162741 270.440342 
L 200.269268 166.692341 
L 200.358041 92.459895 
L 200.420182 103.575801 
L 201.023836 327.423491 
L 201.219136 368.480964 
L 201.281277 368.899388 
L 201.343418 368.687541 
L 201.609736 366.592258 
L 202.133495 360.711133 
L 202.994591 347.987403 
L 204.255164 330.316361 
L 204.912082 320.333468 
L 205.169523 312.638732 
L 205.338191 300.121316 
L 205.462473 270.060124 
L 205.569 165.415621 
L 205.657773 92.437498 
L 205.719914 103.83007 
L 206.332445 331.795074 
L 206.518868 368.495719 
L 206.581009 368.899124 
L 206.634273 368.729699 
L 206.873959 366.907657 
L 207.388841 361.274741 
L 208.187795 349.618941 
L 209.510509 330.883395 
L 210.202936 320.501048 
L 210.460377 312.995236 
L 210.629045 301.088329 
L 210.753327 273.540844 
L 210.850977 190.680929 
L 210.957505 92.422215 
L 211.019645 104.085393 
L 211.641055 336.073382 
L 211.827477 368.641957 
L 211.880741 368.898597 
L 211.934005 368.725484 
L 212.182568 366.820178 
L 212.69745 361.15011 
L 213.514159 349.194457 
L 214.810241 330.872591 
L 215.502668 320.483921 
L 215.760109 312.959138 
L 215.928777 300.991628 
L 216.053059 273.200149 
L 216.150709 189.497326 
L 216.257236 92.415891 
L 216.319377 104.340189 
L 216.949664 340.194649 
L 217.127209 368.652497 
L 217.171595 368.899124 
L 217.233736 368.721268 
L 217.4823 366.812801 
L 217.997182 361.13957 
L 218.822768 349.04453 
L 220.101095 330.977197 
L 220.8024 320.466794 
L 221.059841 312.923303 
L 221.228509 300.89519 
L 221.352791 272.858138 
L 221.450441 188.314303 
L 221.556968 92.416418 
L 221.610232 101.924237 
L 222.151745 297.785729 
L 222.426941 368.662509 
L 222.471327 368.899388 
L 222.533468 368.717052 
L 222.782032 366.805423 
L 223.296914 361.12903 
L 224.1225 349.031619 
L 225.418582 330.735839 
L 226.111009 320.263906 
L 226.36845 312.488806 
L 226.537118 299.706317 
L 226.652523 272.513491 
L 226.750173 187.126563 
L 226.8567 92.422479 
L 226.909964 102.162697 
L 227.460355 301.772616 
L 227.726673 368.672258 
L 227.771059 368.899915 
L 227.8332 368.712836 
L 228.090641 366.717153 
L 228.605523 361.003872 
L 229.439986 348.744941 
L 230.718314 330.725036 
L 231.401864 320.43254 
L 231.659305 312.850843 
L 231.827973 300.700997 
L 231.952255 272.166473 
L 232.049905 185.938613 
L 232.156432 92.43539 
L 232.209695 102.400893 
L 232.768964 305.862527 
L 233.017527 368.563437 
L 233.070791 368.899915 
L 233.132932 368.70862 
L 233.390373 366.709775 
L 233.905255 360.993332 
L 234.739718 348.732293 
L 236.018045 330.714497 
L 236.701595 320.415677 
L 236.959036 312.815008 
L 237.127705 300.603505 
L 237.251986 271.816293 
L 237.349636 184.743864 
L 237.456164 92.453834 
L 237.509427 102.641461 
L 238.077573 310.0552 
L 238.317259 368.575557 
L 238.370523 368.900178 
L 238.432664 368.704404 
L 238.690105 366.702398 
L 239.204986 360.982793 
L 240.03945 348.719909 
L 241.317777 330.703957 
L 242.001327 320.398813 
L 242.258768 312.778646 
L 242.427436 300.504432 
L 242.551718 271.457945 
L 242.649368 183.530593 
L 242.755895 92.479393 
L 242.809159 102.88519 
L 243.386182 314.339568 
L 243.616991 368.587678 
L 243.670255 368.900178 
L 243.732395 368.699925 
L 243.989836 366.69502 
L 244.504718 360.972253 
L 245.348059 348.570246 
L 246.617509 330.693154 
L 247.301059 320.381687 
L 247.5585 312.742021 
L 247.727168 300.404042 
L 247.85145 271.095645 
L 247.9491 182.314132 
L 248.055627 92.510748 
L 248.108891 103.131291 
L 248.694791 318.696396 
L 248.907845 368.454351 
L 248.969986 368.899915 
L 249.032127 368.695709 
L 249.298445 366.60596 
L 249.822205 360.730632 
L 250.692177 347.873575 
L 251.943873 330.335596 
L 252.600791 320.364296 
L 252.858232 312.705132 
L 253.0269 300.303125 
L 253.151182 270.728601 
L 253.257709 167.671817 
L 253.346482 92.482028 
L 253.408623 103.380817 
L 254.0034 323.099336 
L 254.207577 368.469634 
L 254.269718 368.899651 
L 254.331859 368.69123 
L 254.598177 366.598319 
L 255.121936 360.719565 
L 255.983032 347.997416 
L 257.22585 330.556138 
L 257.900523 320.347169 
L 258.157964 312.66798 
L 258.326632 300.201154 
L 258.450914 270.35418 
L 258.557441 166.400999 
L 258.646214 92.454098 
L 258.708355 103.634032 
L 259.312009 327.509916 
L 259.507309 368.484389 
L 259.56945 368.899388 
L 259.631591 368.686487 
L 259.897909 366.590414 
L 260.421668 360.708762 
L 261.291641 347.848016 
L 262.525582 330.545335 
L 263.200255 320.329515 
L 263.457695 312.6303 
L 263.626364 300.097602 
L 263.750645 269.972645 
L 263.857173 165.123751 
L 263.945945 92.433282 
L 264.008086 103.888301 
L 264.620618 331.880182 
L 264.807041 368.499145 
L 264.869182 368.898861 
L 264.922445 368.728909 
L 265.171009 366.825975 
L 265.685891 361.158541 
L 266.511477 349.067191 
L 267.807559 330.765614 
L 268.499986 320.312125 
L 268.757427 312.592621 
L 268.926095 299.99405 
L 269.050377 269.59111 
L 269.156905 163.856016 
L 269.245677 92.420107 
L 269.298941 101.503969 
L 269.8227 290.196917 
L 270.133405 368.811382 
L 270.168914 368.898597 
L 270.222177 368.724693 
L 270.470741 366.818597 
L 270.985623 361.147738 
L 271.802332 349.191558 
L 273.098414 330.87022 
L 273.790841 320.479969 
L 274.048282 312.950969 
L 274.21695 300.969758 
L 274.341232 273.122156 
L 274.438882 189.226562 
L 274.545409 92.415628 
L 274.598673 101.740847 
L 275.131309 293.97828 
L 275.424259 368.749198 
L 275.459768 368.899124 
L 275.521909 368.720477 
L 275.770473 366.81122 
L 276.285355 361.137199 
L 277.110941 349.041632 
L 278.389268 330.974826 
L 279.090573 320.462842 
L 279.348014 312.914871 
L 279.516682 300.873057 
L 279.640964 272.779617 
L 279.738614 188.043434 
L 279.845141 92.416945 
L 279.898405 101.97878 
L 280.439918 297.861878 
L 280.715114 368.664617 
L 280.7595 368.899651 
L 280.821641 368.716261 
L 281.079082 366.72295 
L 281.593964 361.01204 
L 282.428427 348.75469 
L 283.706755 330.733205 
L 284.390305 320.445715 
L 284.647745 312.878773 
L 284.816414 300.776092 
L 284.940695 272.434444 
L 285.038345 186.855589 
L 285.144873 92.42485 
L 285.198136 102.216976 
L 285.748527 301.849819 
L 286.014845 368.674366 
L 286.059232 368.899915 
L 286.121373 368.711782 
L 286.378814 366.715572 
L 286.893695 361.001501 
L 287.728159 348.742042 
L 289.006486 330.722665 
L 289.690036 320.428851 
L 289.947477 312.842674 
L 290.116145 300.678863 
L 290.240427 272.086899 
L 290.338077 185.666743 
L 290.444605 92.439079 
L 290.497868 102.455436 
L 291.057136 305.942102 
L 291.3057 368.566335 
L 291.358964 368.900178 
L 291.421105 368.707566 
L 291.678545 366.708194 
L 292.193427 360.990961 
L 293.027891 348.729395 
L 294.315095 330.596453 
L 294.989768 320.411725 
L 295.247209 312.806576 
L 295.415877 300.581108 
L 295.540159 271.735138 
L 295.637809 184.468068 
L 295.744336 92.459104 
L 295.7976 102.696794 
L 296.365745 310.136883 
L 296.605432 368.578456 
L 296.658695 368.900178 
L 296.720836 368.70335 
L 296.978277 366.700817 
L 297.493159 360.980421 
L 298.327623 348.717011 
L 299.60595 330.701586 
L 300.2895 320.394861 
L 300.546941 312.770214 
L 300.715609 300.481508 
L 300.839891 271.375736 
L 300.937541 183.254454 
L 301.044068 92.48598 
L 301.097332 102.940787 
L 301.674355 314.422568 
L 301.905164 368.590313 
L 301.958427 368.900178 
L 302.020568 368.699135 
L 302.286886 366.611757 
L 302.810645 360.7388 
L 303.671741 348.020076 
L 304.914559 330.575373 
L 305.589232 320.377734 
L 305.846673 312.733589 
L 306.015341 300.381382 
L 306.139623 271.012908 
L 306.24615 168.647209 
L 306.334923 92.508113 
L 306.397064 103.187678 
L 306.982964 318.781241 
L 307.196018 368.457777 
L 307.258159 368.899915 
L 307.3203 368.694655 
L 307.586618 366.604115 
L 308.110377 360.727997 
L 308.971473 348.007429 
L 310.214291 330.56457 
L 310.888964 320.360607 
L 311.146405 312.6967 
L 311.315073 300.280201 
L 311.439355 270.644021 
L 311.545882 167.384111 
L 311.634655 92.475177 
L 311.696795 103.437995 
L 312.291573 323.185234 
L 312.49575 368.473059 
L 312.557891 368.899651 
L 312.620032 368.690176 
L 312.88635 366.596474 
L 313.410109 360.717193 
L 314.280082 347.857766 
L 315.531777 330.322158 
L 316.188695 320.342953 
L 316.446136 312.659284 
L 316.614805 300.177703 
L 316.739086 270.268282 
L 316.845614 166.110763 
L 316.934386 92.448828 
L 316.996527 103.691737 
L 317.600182 327.596078 
L 317.795482 368.487815 
L 317.857623 368.899388 
L 317.910886 368.732071 
L 318.150573 366.91161 
L 318.665455 361.280538 
L 319.464409 349.625792 
L 320.787123 330.889455 
L 321.488427 320.325563 
L 321.745868 312.621605 
L 321.914536 300.073887 
L 322.038818 269.885429 
L 322.145345 164.833278 
L 322.234118 92.429593 
L 322.296259 103.946533 
L 322.908791 331.965026 
L 323.095214 368.50257 
L 323.157355 368.898861 
L 323.210618 368.727855 
L 323.459182 366.824394 
L 323.974064 361.155906 
L 324.790773 349.201308 
L 326.095732 330.762979 
L 326.779282 320.493143 
L 327.036723 312.978899 
L 327.205391 301.044326 
L 327.329673 273.385647 
L 327.427323 190.141299 
L 327.53385 92.418263 
L 327.595991 104.201592 
L 328.2174 336.237274 
L 328.403823 368.6467 
L 328.457086 368.898334 
L 328.51035 368.723639 
L 328.758914 366.816753 
L 329.273795 361.145367 
L 329.318182 360.568057 
L 329.335936 361.472886 
L 329.531236 365.485331 
L 329.620009 365.674255 
L 329.664395 365.61655 
L 329.815309 365.006304 
L 330.214786 362.17351 
L 332.176664 347.333418 
L 332.869091 344.093266 
L 333.428359 342.428528 
L 333.889977 341.681267 
L 334.262823 341.453083 
L 334.609036 341.489972 
L 335.061777 341.780603 
L 336.553159 342.876727 
L 337.156814 342.973955 
L 338.097805 342.863289 
L 339.580309 342.667778 
L 342.092577 342.70414 
L 435.845455 342.702295 
L 435.845455 342.702295 
" style="fill:none;stroke:#1f77b4;stroke-linecap:square;stroke-width:1.5;"/>
   </g>
   <g id="line2d_14">
    <path clip-path="url(#p797574f787)" d="M 80.754545 342.771594 
L 81.873082 342.637178 
L 83.639659 342.686575 
L 86.649055 342.704448 
L 100.186895 342.702218 
L 151.772727 342.702223 
L 152.314241 298.009521 
L 152.420768 249.189224 
L 152.562805 66.96005 
L 152.678209 92.273517 
L 153.565936 369.36 
L 153.610323 369.259091 
L 153.8145 367.875014 
L 154.293873 363.103125 
L 154.959668 353.947126 
L 157.42755 314.90759 
L 157.613973 303.737924 
L 157.738255 281.688878 
L 157.835905 218.8944 
L 157.969064 91.413916 
L 158.031205 104.616349 
L 158.883423 368.933981 
L 158.945564 368.749772 
L 159.203005 366.763084 
L 159.717886 361.06847 
L 160.543473 348.958689 
L 161.830677 330.781086 
L 162.514227 320.490572 
L 162.771668 312.941259 
L 162.940336 300.904189 
L 163.064618 272.831333 
L 163.162268 188.111087 
L 163.268795 92.337805 
L 163.322059 101.886968 
L 163.863573 297.72994 
L 164.147645 368.756497 
L 164.183155 368.901953 
L 164.245295 368.720042 
L 164.493859 366.809113 
L 165.008741 361.134234 
L 165.82545 349.175217 
L 167.121532 330.85591 
L 167.813959 320.45497 
L 168.0714 312.895947 
L 168.240068 300.819267 
L 168.36435 272.584245 
L 168.462 187.362844 
L 168.568527 92.414995 
L 168.621791 102.10985 
L 169.172182 301.696817 
L 169.4385 368.670308 
L 169.482886 368.899924 
L 169.545027 368.713951 
L 169.802468 366.719106 
L 170.31735 361.006384 
L 171.151814 348.747995 
L 172.430141 330.727624 
L 173.113691 320.436573 
L 173.371132 312.859168 
L 173.5398 300.723087 
L 173.664082 272.245062 
L 173.761732 186.207344 
L 173.868259 92.431828 
L 173.921523 102.346632 
L 174.480791 305.783582 
L 174.729355 368.560488 
L 174.782618 368.899984 
L 174.844759 368.709581 
L 175.1022 366.711547 
L 175.617082 360.99567 
L 176.451545 348.735212 
L 177.729873 330.716892 
L 178.413423 320.41955 
L 178.670864 312.823108 
L 178.839532 300.625821 
L 178.963814 271.896733 
L 179.061464 185.018014 
L 179.167991 92.449032 
L 179.221255 102.58622 
L 179.7894 309.973768 
L 180.029086 368.572851 
L 180.08235 368.90008 
L 180.144491 368.705308 
L 180.401932 366.704131 
L 180.916814 360.985161 
L 181.751277 348.722674 
L 183.029605 330.706323 
L 183.713155 320.402604 
L 183.970595 312.786881 
L 184.139264 300.527047 
L 184.263545 271.540239 
L 184.361195 183.807772 
L 184.467723 92.473077 
L 184.520986 102.829467 
L 185.098009 314.256197 
L 185.328818 368.584932 
L 185.382082 368.900055 
L 185.444223 368.700965 
L 185.710541 366.615183 
L 186.2343 360.743664 
L 187.095395 348.025678 
L 188.347091 330.464461 
L 189.012886 320.385509 
L 189.270327 312.750303 
L 189.438995 300.427086 
L 189.563277 271.178652 
L 189.660927 182.592704 
L 189.767455 92.502965 
L 189.820718 103.074847 
L 190.406618 318.611124 
L 190.619673 368.450707 
L 190.681814 368.899987 
L 190.743955 368.696612 
L 191.010273 366.607644 
L 191.534032 360.732978 
L 192.395127 348.013083 
L 193.646823 330.453783 
L 194.312618 320.36835 
L 194.570059 312.713531 
L 194.738727 300.326453 
L 194.863009 270.81334 
L 194.969536 167.962483 
L 195.058309 92.489468 
L 195.12045 103.323187 
L 195.715227 323.012426 
L 195.919405 368.466062 
L 195.981545 368.899779 
L 196.043686 368.692155 
L 196.310005 366.599995 
L 196.833764 360.722139 
L 197.694859 348.000313 
L 198.946555 330.442974 
L 199.61235 320.351026 
L 199.869791 312.676432 
L 200.038459 300.224725 
L 200.162741 270.44094 
L 200.269268 166.694498 
L 200.358041 92.460111 
L 200.420182 103.575494 
L 201.023836 327.423026 
L 201.219136 368.481045 
L 201.281277 368.899439 
L 201.343418 368.687625 
L 201.609736 366.59228 
L 202.133495 360.711212 
L 203.003468 347.85082 
L 204.246286 330.432077 
L 204.912082 320.333533 
L 205.169523 312.638888 
L 205.338191 300.121436 
L 205.462473 270.060862 
L 205.569 165.417994 
L 205.657773 92.43763 
L 205.719914 103.829571 
L 206.332445 331.794443 
L 206.518868 368.495768 
L 206.581009 368.899058 
L 206.634273 368.72981 
L 206.882836 366.827803 
L 207.397718 361.160878 
L 208.214427 349.207262 
L 209.510509 330.883462 
L 210.211814 320.316084 
L 210.469255 312.601341 
L 210.637923 300.017803 
L 210.762205 269.678935 
L 210.868732 164.146667 
L 210.957505 92.422438 
L 211.010768 101.449451 
L 211.52565 286.750277 
L 211.845232 368.810027 
L 211.880741 368.898605 
L 211.934005 368.725601 
L 212.182568 366.820292 
L 212.69745 361.150178 
L 213.514159 349.194405 
L 214.810241 330.872649 
L 215.502668 320.483876 
L 215.760109 312.959271 
L 215.928777 300.991925 
L 216.053059 273.20084 
L 216.150709 189.499919 
L 216.257236 92.415989 
L 216.319377 104.339609 
L 216.949664 340.193977 
L 217.127209 368.652353 
L 217.171595 368.89914 
L 217.233736 368.72136 
L 217.4823 366.812808 
L 217.997182 361.13952 
L 218.813891 349.181605 
L 220.109973 330.861892 
L 220.8024 320.466785 
L 221.059841 312.923243 
L 221.228509 300.895382 
L 221.352791 272.858922 
L 221.450441 188.317122 
L 221.556968 92.416447 
L 221.610232 101.923735 
L 222.151745 297.784934 
L 222.426941 368.66241 
L 222.471327 368.899505 
L 222.533468 368.717104 
L 222.782032 366.805357 
L 223.296914 361.128914 
L 224.113623 349.168873 
L 225.409705 330.851191 
L 226.102132 320.449701 
L 226.359573 312.887125 
L 226.528241 300.79843 
L 226.652523 272.514254 
L 226.750173 187.129595 
L 226.8567 92.422526 
L 226.909964 102.162229 
L 227.460355 301.77184 
L 227.726673 368.672217 
L 227.771059 368.899795 
L 227.8332 368.712849 
L 228.090641 366.717274 
L 228.605523 361.003789 
L 229.439986 348.7449 
L 230.718314 330.725061 
L 231.401864 320.432634 
L 231.659305 312.85099 
L 231.827973 300.701274 
L 231.952255 272.167264 
L 232.049905 185.941863 
L 232.156432 92.435548 
L 232.209695 102.400338 
L 232.768964 305.861769 
L 233.017527 368.56332 
L 233.070791 368.900016 
L 233.132932 368.708617 
L 233.390373 366.709868 
L 233.905255 360.993291 
L 234.739718 348.732373 
L 236.018045 330.714503 
L 236.701595 320.415735 
L 236.959036 312.814971 
L 237.127705 300.603711 
L 237.251986 271.817227 
L 237.349636 184.747339 
L 237.456164 92.453872 
L 237.509427 102.640764 
L 238.077573 310.054359 
L 238.317259 368.575584 
L 238.370523 368.900078 
L 238.432664 368.704332 
L 238.690105 366.702448 
L 239.204986 360.982776 
L 240.03945 348.71983 
L 241.317777 330.703926 
L 242.001327 320.39876 
L 242.258768 312.778661 
L 242.427436 300.504594 
L 242.551718 271.45906 
L 242.649368 183.534276 
L 242.755895 92.479276 
L 242.809159 102.884451 
L 243.386182 314.338466 
L 243.616991 368.587635 
L 243.670255 368.900048 
L 243.732395 368.699989 
L 243.998714 366.61349 
L 244.522473 360.741264 
L 245.383568 348.022848 
L 246.635264 330.462061 
L 247.301059 320.38165 
L 247.5585 312.742033 
L 247.727168 300.40446 
L 247.85145 271.096736 
L 247.9491 182.318013 
L 248.055627 92.510706 
L 248.108891 103.130606 
L 248.694791 318.69537 
L 248.907845 368.45421 
L 248.969986 368.899952 
L 249.032127 368.695612 
L 249.298445 366.605923 
L 249.822205 360.730538 
L 250.6833 348.010208 
L 251.934995 330.451347 
L 252.600791 320.364441 
L 252.858232 312.705157 
L 253.0269 300.303528 
L 253.151182 270.729717 
L 253.257709 167.676104 
L 253.346482 92.482222 
L 253.408623 103.380053 
L 254.0034 323.098138 
L 254.207577 368.469495 
L 254.269718 368.899714 
L 254.331859 368.691135 
L 254.598177 366.598251 
L 255.121936 360.719669 
L 255.983032 347.997405 
L 257.234727 330.440512 
L 257.900523 320.34708 
L 258.157964 312.667978 
L 258.326632 300.201514 
L 258.450914 270.355593 
L 258.557441 166.405535 
L 258.646214 92.454285 
L 258.708355 103.633119 
L 259.312009 327.508756 
L 259.507309 368.484402 
L 259.56945 368.899353 
L 259.631591 368.686596 
L 259.897909 366.590531 
L 260.421668 360.708735 
L 261.291641 347.847906 
L 262.534459 330.429607 
L 263.200255 320.329561 
L 263.457695 312.630346 
L 263.626364 300.097874 
L 263.750645 269.974072 
L 263.857173 165.128502 
L 263.945945 92.433525 
L 264.008086 103.887391 
L 264.620618 331.878851 
L 264.807041 368.499079 
L 264.869182 368.898968 
L 264.922445 368.728863 
L 265.171009 366.826107 
L 265.685891 361.15846 
L 266.5026 349.204357 
L 267.798682 330.881018 
L 268.499986 320.312144 
L 268.757427 312.592861 
L 268.926095 299.994383 
L 269.050377 269.59257 
L 269.156905 163.860926 
L 269.245677 92.420136 
L 269.298941 101.503202 
L 269.8227 290.195709 
L 270.133405 368.811262 
L 270.168914 368.898485 
L 270.222177 368.72464 
L 270.470741 366.818588 
L 270.985623 361.147751 
L 271.802332 349.191491 
L 273.098414 330.8702 
L 273.790841 320.479994 
L 274.048282 312.951097 
L 274.21695 300.970036 
L 274.341232 273.123363 
L 274.438882 189.23135 
L 274.545409 92.415625 
L 274.598673 101.740068 
L 275.131309 293.977015 
L 275.424259 368.749138 
L 275.459768 368.899226 
L 275.521909 368.720395 
L 275.770473 366.811117 
L 276.285355 361.137113 
L 277.102064 349.178715 
L 278.398145 330.859462 
L 279.090573 320.462914 
L 279.348014 312.915064 
L 279.516682 300.873438 
L 279.640964 272.781067 
L 279.738614 188.048429 
L 279.845141 92.417117 
L 279.898405 101.977747 
L 280.439918 297.860431 
L 280.715114 368.664667 
L 280.7595 368.899585 
L 280.821641 368.716144 
L 281.070205 366.803678 
L 281.585086 361.126524 
L 282.401795 349.166005 
L 283.697877 330.848779 
L 284.390305 320.44584 
L 284.647745 312.878953 
L 284.816414 300.776474 
L 284.940695 272.435979 
L 285.038345 186.860786 
L 285.144873 92.424983 
L 285.198136 102.216027 
L 285.748527 301.848463 
L 286.014845 368.674386 
L 286.059232 368.899848 
L 286.121373 368.71189 
L 286.378814 366.715595 
L 286.893695 361.001409 
L 287.728159 348.742059 
L 289.006486 330.722666 
L 289.690036 320.428802 
L 289.947477 312.842841 
L 290.116145 300.679248 
L 290.240427 272.088336 
L 290.338077 185.67214 
L 290.444605 92.439081 
L 290.497868 102.454488 
L 291.057136 305.940522 
L 291.3057 368.566142 
L 291.358964 368.900049 
L 291.421105 368.707657 
L 291.678545 366.708196 
L 292.193427 360.990921 
L 293.027891 348.729546 
L 294.306218 330.712119 
L 294.989768 320.411908 
L 295.247209 312.806788 
L 295.415877 300.58141 
L 295.540159 271.736723 
L 295.637809 184.473756 
L 295.744336 92.459149 
L 295.7976 102.695708 
L 296.365745 310.135363 
L 296.605432 368.578319 
L 296.658695 368.900073 
L 296.720836 368.703349 
L 296.978277 366.700756 
L 297.493159 360.980379 
L 298.327623 348.716972 
L 299.60595 330.701517 
L 300.2895 320.3949 
L 300.546941 312.770407 
L 300.715609 300.482046 
L 300.839891 271.377517 
L 300.937541 183.26035 
L 301.044068 92.485808 
L 301.097332 102.93965 
L 301.674355 314.420945 
L 301.905164 368.590332 
L 301.958427 368.900037 
L 302.020568 368.699012 
L 302.286886 366.611795 
L 302.810645 360.738861 
L 303.671741 348.020016 
L 304.923436 330.459659 
L 305.589232 320.377789 
L 305.846673 312.733757 
L 306.015341 300.381813 
L 306.139623 271.014641 
L 306.24615 168.65352 
L 306.334923 92.508278 
L 306.397064 103.186391 
L 306.982964 318.779445 
L 307.196018 368.45769 
L 307.258159 368.899912 
L 307.3203 368.694611 
L 307.586618 366.604201 
L 308.110377 360.728098 
L 308.971473 348.007333 
L 310.223168 330.448914 
L 310.888964 320.360542 
L 311.146405 312.696809 
L 311.315073 300.280644 
L 311.439355 270.645999 
L 311.545882 167.390665 
L 311.634655 92.475422 
L 311.696795 103.436792 
L 312.291573 323.183334 
L 312.49575 368.472872 
L 312.557891 368.899638 
L 312.620032 368.690115 
L 312.88635 366.596514 
L 313.410109 360.717208 
L 314.271205 347.994506 
L 315.5229 330.438057 
L 316.188695 320.34314 
L 316.446136 312.659529 
L 316.614805 300.1783 
L 316.739086 270.270199 
L 316.845614 166.117544 
L 316.934386 92.448931 
L 316.996527 103.690474 
L 317.600182 327.594124 
L 317.795482 368.487735 
L 317.857623 368.899264 
L 317.910886 368.73209 
L 318.150573 366.911645 
L 318.656577 361.393896 
L 319.446655 349.900335 
L 320.787123 330.889364 
L 321.488427 320.325607 
L 321.745868 312.62184 
L 321.914536 300.074401 
L 322.038818 269.887583 
L 322.145345 164.840263 
L 322.234118 92.429789 
L 322.296259 103.945152 
L 322.908791 331.963108 
L 323.095214 368.502364 
L 323.157355 368.898871 
L 323.210618 368.727914 
L 323.459182 366.824409 
L 323.974064 361.156042 
L 324.790773 349.201451 
L 326.086855 330.878574 
L 326.779282 320.49326 
L 327.036723 312.979023 
L 327.205391 301.044803 
L 327.329673 273.387592 
L 327.427323 190.147968 
L 327.53385 92.418272 
L 327.595991 104.200345 
L 328.2174 336.235448 
L 328.403823 368.64672 
L 328.457086 368.898359 
L 328.51035 368.723684 
L 328.758914 366.816895 
L 329.273795 361.14534 
L 329.318182 360.568084 
L 329.335936 361.472961 
L 329.531236 365.485415 
L 329.620009 365.674371 
L 329.664395 365.616561 
L 329.815309 365.006227 
L 330.214786 362.173634 
L 332.158909 347.433482 
L 332.851336 344.160192 
L 333.410605 342.468032 
L 333.872223 341.700021 
L 334.245068 341.456971 
L 334.600159 341.486475 
L 335.061777 341.780539 
L 336.544282 342.873738 
L 337.174568 342.97389 
L 338.106682 342.861565 
L 339.873259 342.656248 
L 342.305632 342.707903 
L 349.132255 342.702732 
L 435.845455 342.702223 
L 435.845455 342.702223 
" style="fill:none;stroke:#ff0000;stroke-linecap:square;stroke-width:1.5;"/>
   </g>
   <g id="patch_3">
    <path d="M 63 384.48 
L 63 51.84 
" style="fill:none;stroke:#000000;stroke-linecap:square;stroke-linejoin:miter;stroke-width:0.8;"/>
   </g>
   <g id="patch_4">
    <path d="M 453.6 384.48 
L 453.6 51.84 
" style="fill:none;stroke:#000000;stroke-linecap:square;stroke-linejoin:miter;stroke-width:0.8;"/>
   </g>
   <g id="patch_5">
    <path d="M 63 384.48 
L 453.6 384.48 
" style="fill:none;stroke:#000000;stroke-linecap:square;stroke-linejoin:miter;stroke-width:0.8;"/>
   </g>
   <g id="patch_6">
    <path d="M 63 51.84 
L 453.6 51.84 
" style="fill:none;stroke:#000000;stroke-linecap:square;stroke-linejoin:miter;stroke-width:0.8;"/>
   </g>
   <g id="legend_1">
    <g id="patch_7">
     <path d="M 383.460938 89.19625 
L 446.6 89.19625 
Q 448.6 89.19625 448.6 87.19625 
L 448.6 58.84 
Q 448.6 56.84 446.6 56.84 
L 383.460938 56.84 
Q 381.460938 56.84 381.460938 58.84 
L 381.460938 87.19625 
Q 381.460938 89.19625 383.460938 89.19625 
z
" style="fill:#ffffff;opacity:0.8;stroke:#cccccc;stroke-linejoin:miter;"/>
    </g>
    <g id="line2d_15">
     <path d="M 385.460938 64.938437 
L 405.460938 64.938437 
" style="fill:none;stroke:#1f77b4;stroke-linecap:square;stroke-width:1.5;"/>
    </g>
    <g id="line2d_16"/>
    <g id="text_15">
     <!-- target -->
     <defs>
      <path d="M 41.109375 46.296875 
Q 39.59375 47.171875 37.8125 47.578125 
Q 36.03125 48 33.890625 48 
Q 26.265625 48 22.1875 43.046875 
Q 18.109375 38.09375 18.109375 28.8125 
L 18.109375 0 
L 9.078125 0 
L 9.078125 54.6875 
L 18.109375 54.6875 
L 18.109375 46.1875 
Q 20.953125 51.171875 25.484375 53.578125 
Q 30.03125 56 36.53125 56 
Q 37.453125 56 38.578125 55.875 
Q 39.703125 55.765625 41.0625 55.515625 
z
" id="DejaVuSans-72"/>
     </defs>
     <g transform="translate(413.460938 68.438437)scale(0.1 -0.1)">
      <use xlink:href="#DejaVuSans-74"/>
      <use x="39.208984" xlink:href="#DejaVuSans-61"/>
      <use x="100.488281" xlink:href="#DejaVuSans-72"/>
      <use x="141.585938" xlink:href="#DejaVuSans-67"/>
      <use x="205.0625" xlink:href="#DejaVuSans-65"/>
      <use x="266.585938" xlink:href="#DejaVuSans-74"/>
     </g>
    </g>
    <g id="line2d_17">
     <path d="M 385.460938 79.616562 
L 405.460938 79.616562 
" style="fill:none;stroke:#ff0000;stroke-linecap:square;stroke-width:1.5;"/>
    </g>
    <g id="line2d_18"/>
    <g id="text_16">
     <!-- model -->
     <defs>
      <path d="M 45.40625 46.390625 
L 45.40625 75.984375 
L 54.390625 75.984375 
L 54.390625 0 
L 45.40625 0 
L 45.40625 8.203125 
Q 42.578125 3.328125 38.25 0.953125 
Q 33.9375 -1.421875 27.875 -1.421875 
Q 17.96875 -1.421875 11.734375 6.484375 
Q 5.515625 14.40625 5.515625 27.296875 
Q 5.515625 40.1875 11.734375 48.09375 
Q 17.96875 56 27.875 56 
Q 33.9375 56 38.25 53.625 
Q 42.578125 51.265625 45.40625 46.390625 
z
M 14.796875 27.296875 
Q 14.796875 17.390625 18.875 11.75 
Q 22.953125 6.109375 30.078125 6.109375 
Q 37.203125 6.109375 41.296875 11.75 
Q 45.40625 17.390625 45.40625 27.296875 
Q 45.40625 37.203125 41.296875 42.84375 
Q 37.203125 48.484375 30.078125 48.484375 
Q 22.953125 48.484375 18.875 42.84375 
Q 14.796875 37.203125 14.796875 27.296875 
z
" id="DejaVuSans-64"/>
     </defs>
     <g transform="translate(413.460938 83.116562)scale(0.1 -0.1)">
      <use xlink:href="#DejaVuSans-6d"/>
      <use x="97.412109" xlink:href="#DejaVuSans-6f"/>
      <use x="158.59375" xlink:href="#DejaVuSans-64"/>
      <use x="222.070312" xlink:href="#DejaVuSans-65"/>
      <use x="283.59375" xlink:href="#DejaVuSans-6c"/>
     </g>
    </g>
   </g>
  </g>
 </g>
 <defs>
  <clipPath id="p797574f787">
   <rect height="332.64" width="390.6" x="63" y="51.84"/>
  </clipPath>
 </defs>
</svg>
