<?xml version="1.0" encoding="utf-8" standalone="no"?>
<!DOCTYPE svg PUBLIC "-//W3C//DTD SVG 1.1//EN"
  "http://www.w3.org/Graphics/SVG/1.1/DTD/svg11.dtd">
<!-- Created with matplotlib (https://matplotlib.org/) -->
<svg height="432pt" version="1.1" viewBox="0 0 504 432" width="504pt" xmlns="http://www.w3.org/2000/svg" xmlns:xlink="http://www.w3.org/1999/xlink">
 <defs>
  <style type="text/css">
*{stroke-linecap:butt;stroke-linejoin:round;}
  </style>
 </defs>
 <g id="figure_1">
  <g id="patch_1">
   <path d="M 0 432 
L 504 432 
L 504 0 
L 0 0 
z
" style="fill:#ffffff;"/>
  </g>
  <g id="axes_1">
   <g id="patch_2">
    <path d="M 63 384.48 
L 453.6 384.48 
L 453.6 51.84 
L 63 51.84 
z
" style="fill:#ffffff;"/>
   </g>
   <g id="matplotlib.axis_1">
    <g id="xtick_1">
     <g id="line2d_1">
      <defs>
       <path d="M 0 0 
L 0 3.5 
" id="m35d9ce329c" style="stroke:#000000;stroke-width:0.8;"/>
      </defs>
      <g>
       <use style="stroke:#000000;stroke-width:0.8;" x="80.754545" xlink:href="#m35d9ce329c" y="384.48"/>
      </g>
     </g>
     <g id="text_1">
      <!-- 0 -->
      <defs>
       <path d="M 31.78125 66.40625 
Q 24.171875 66.40625 20.328125 58.90625 
Q 16.5 51.421875 16.5 36.375 
Q 16.5 21.390625 20.328125 13.890625 
Q 24.171875 6.390625 31.78125 6.390625 
Q 39.453125 6.390625 43.28125 13.890625 
Q 47.125 21.390625 47.125 36.375 
Q 47.125 51.421875 43.28125 58.90625 
Q 39.453125 66.40625 31.78125 66.40625 
z
M 31.78125 74.21875 
Q 44.046875 74.21875 50.515625 64.515625 
Q 56.984375 54.828125 56.984375 36.375 
Q 56.984375 17.96875 50.515625 8.265625 
Q 44.046875 -1.421875 31.78125 -1.421875 
Q 19.53125 -1.421875 13.0625 8.265625 
Q 6.59375 17.96875 6.59375 36.375 
Q 6.59375 54.828125 13.0625 64.515625 
Q 19.53125 74.21875 31.78125 74.21875 
z
" id="DejaVuSans-48"/>
      </defs>
      <g transform="translate(77.573295 399.078438)scale(0.1 -0.1)">
       <use xlink:href="#DejaVuSans-48"/>
      </g>
     </g>
    </g>
    <g id="xtick_2">
     <g id="line2d_2">
      <g>
       <use style="stroke:#000000;stroke-width:0.8;" x="151.767796" xlink:href="#m35d9ce329c" y="384.48"/>
      </g>
     </g>
     <g id="text_2">
      <!-- 720 -->
      <defs>
       <path d="M 8.203125 72.90625 
L 55.078125 72.90625 
L 55.078125 68.703125 
L 28.609375 0 
L 18.3125 0 
L 43.21875 64.59375 
L 8.203125 64.59375 
z
" id="DejaVuSans-55"/>
       <path d="M 19.1875 8.296875 
L 53.609375 8.296875 
L 53.609375 0 
L 7.328125 0 
L 7.328125 8.296875 
Q 12.9375 14.109375 22.625 23.890625 
Q 32.328125 33.6875 34.8125 36.53125 
Q 39.546875 41.84375 41.421875 45.53125 
Q 43.3125 49.21875 43.3125 52.78125 
Q 43.3125 58.59375 39.234375 62.25 
Q 35.15625 65.921875 28.609375 65.921875 
Q 23.96875 65.921875 18.8125 64.3125 
Q 13.671875 62.703125 7.8125 59.421875 
L 7.8125 69.390625 
Q 13.765625 71.78125 18.9375 73 
Q 24.125 74.21875 28.421875 74.21875 
Q 39.75 74.21875 46.484375 68.546875 
Q 53.21875 62.890625 53.21875 53.421875 
Q 53.21875 48.921875 51.53125 44.890625 
Q 49.859375 40.875 45.40625 35.40625 
Q 44.1875 33.984375 37.640625 27.21875 
Q 31.109375 20.453125 19.1875 8.296875 
z
" id="DejaVuSans-50"/>
      </defs>
      <g transform="translate(142.224046 399.078438)scale(0.1 -0.1)">
       <use xlink:href="#DejaVuSans-55"/>
       <use x="63.623047" xlink:href="#DejaVuSans-50"/>
       <use x="127.246094" xlink:href="#DejaVuSans-48"/>
      </g>
     </g>
    </g>
    <g id="xtick_3">
     <g id="line2d_3">
      <g>
       <use style="stroke:#000000;stroke-width:0.8;" x="222.781046" xlink:href="#m35d9ce329c" y="384.48"/>
      </g>
     </g>
     <g id="text_3">
      <!-- 1440 -->
      <defs>
       <path d="M 12.40625 8.296875 
L 28.515625 8.296875 
L 28.515625 63.921875 
L 10.984375 60.40625 
L 10.984375 69.390625 
L 28.421875 72.90625 
L 38.28125 72.90625 
L 38.28125 8.296875 
L 54.390625 8.296875 
L 54.390625 0 
L 12.40625 0 
z
" id="DejaVuSans-49"/>
       <path d="M 37.796875 64.3125 
L 12.890625 25.390625 
L 37.796875 25.390625 
z
M 35.203125 72.90625 
L 47.609375 72.90625 
L 47.609375 25.390625 
L 58.015625 25.390625 
L 58.015625 17.1875 
L 47.609375 17.1875 
L 47.609375 0 
L 37.796875 0 
L 37.796875 17.1875 
L 4.890625 17.1875 
L 4.890625 26.703125 
z
" id="DejaVuSans-52"/>
      </defs>
      <g transform="translate(210.056046 399.078438)scale(0.1 -0.1)">
       <use xlink:href="#DejaVuSans-49"/>
       <use x="63.623047" xlink:href="#DejaVuSans-52"/>
       <use x="127.246094" xlink:href="#DejaVuSans-52"/>
       <use x="190.869141" xlink:href="#DejaVuSans-48"/>
      </g>
     </g>
    </g>
    <g id="xtick_4">
     <g id="line2d_4">
      <g>
       <use style="stroke:#000000;stroke-width:0.8;" x="293.794296" xlink:href="#m35d9ce329c" y="384.48"/>
      </g>
     </g>
     <g id="text_4">
      <!-- 2160 -->
      <defs>
       <path d="M 33.015625 40.375 
Q 26.375 40.375 22.484375 35.828125 
Q 18.609375 31.296875 18.609375 23.390625 
Q 18.609375 15.53125 22.484375 10.953125 
Q 26.375 6.390625 33.015625 6.390625 
Q 39.65625 6.390625 43.53125 10.953125 
Q 47.40625 15.53125 47.40625 23.390625 
Q 47.40625 31.296875 43.53125 35.828125 
Q 39.65625 40.375 33.015625 40.375 
z
M 52.59375 71.296875 
L 52.59375 62.3125 
Q 48.875 64.0625 45.09375 64.984375 
Q 41.3125 65.921875 37.59375 65.921875 
Q 27.828125 65.921875 22.671875 59.328125 
Q 17.53125 52.734375 16.796875 39.40625 
Q 19.671875 43.65625 24.015625 45.921875 
Q 28.375 48.1875 33.59375 48.1875 
Q 44.578125 48.1875 50.953125 41.515625 
Q 57.328125 34.859375 57.328125 23.390625 
Q 57.328125 12.15625 50.6875 5.359375 
Q 44.046875 -1.421875 33.015625 -1.421875 
Q 20.359375 -1.421875 13.671875 8.265625 
Q 6.984375 17.96875 6.984375 36.375 
Q 6.984375 53.65625 15.1875 63.9375 
Q 23.390625 74.21875 37.203125 74.21875 
Q 40.921875 74.21875 44.703125 73.484375 
Q 48.484375 72.75 52.59375 71.296875 
z
" id="DejaVuSans-54"/>
      </defs>
      <g transform="translate(281.069296 399.078438)scale(0.1 -0.1)">
       <use xlink:href="#DejaVuSans-50"/>
       <use x="63.623047" xlink:href="#DejaVuSans-49"/>
       <use x="127.246094" xlink:href="#DejaVuSans-54"/>
       <use x="190.869141" xlink:href="#DejaVuSans-48"/>
      </g>
     </g>
    </g>
    <g id="xtick_5">
     <g id="line2d_5">
      <g>
       <use style="stroke:#000000;stroke-width:0.8;" x="364.807547" xlink:href="#m35d9ce329c" y="384.48"/>
      </g>
     </g>
     <g id="text_5">
      <!-- 2880 -->
      <defs>
       <path d="M 31.78125 34.625 
Q 24.75 34.625 20.71875 30.859375 
Q 16.703125 27.09375 16.703125 20.515625 
Q 16.703125 13.921875 20.71875 10.15625 
Q 24.75 6.390625 31.78125 6.390625 
Q 38.8125 6.390625 42.859375 10.171875 
Q 46.921875 13.96875 46.921875 20.515625 
Q 46.921875 27.09375 42.890625 30.859375 
Q 38.875 34.625 31.78125 34.625 
z
M 21.921875 38.8125 
Q 15.578125 40.375 12.03125 44.71875 
Q 8.5 49.078125 8.5 55.328125 
Q 8.5 64.0625 14.71875 69.140625 
Q 20.953125 74.21875 31.78125 74.21875 
Q 42.671875 74.21875 48.875 69.140625 
Q 55.078125 64.0625 55.078125 55.328125 
Q 55.078125 49.078125 51.53125 44.71875 
Q 48 40.375 41.703125 38.8125 
Q 48.828125 37.15625 52.796875 32.3125 
Q 56.78125 27.484375 56.78125 20.515625 
Q 56.78125 9.90625 50.3125 4.234375 
Q 43.84375 -1.421875 31.78125 -1.421875 
Q 19.734375 -1.421875 13.25 4.234375 
Q 6.78125 9.90625 6.78125 20.515625 
Q 6.78125 27.484375 10.78125 32.3125 
Q 14.796875 37.15625 21.921875 38.8125 
z
M 18.3125 54.390625 
Q 18.3125 48.734375 21.84375 45.5625 
Q 25.390625 42.390625 31.78125 42.390625 
Q 38.140625 42.390625 41.71875 45.5625 
Q 45.3125 48.734375 45.3125 54.390625 
Q 45.3125 60.0625 41.71875 63.234375 
Q 38.140625 66.40625 31.78125 66.40625 
Q 25.390625 66.40625 21.84375 63.234375 
Q 18.3125 60.0625 18.3125 54.390625 
z
" id="DejaVuSans-56"/>
      </defs>
      <g transform="translate(352.082547 399.078438)scale(0.1 -0.1)">
       <use xlink:href="#DejaVuSans-50"/>
       <use x="63.623047" xlink:href="#DejaVuSans-56"/>
       <use x="127.246094" xlink:href="#DejaVuSans-56"/>
       <use x="190.869141" xlink:href="#DejaVuSans-48"/>
      </g>
     </g>
    </g>
    <g id="text_6">
     <!-- time [ms] -->
     <defs>
      <path d="M 18.3125 70.21875 
L 18.3125 54.6875 
L 36.8125 54.6875 
L 36.8125 47.703125 
L 18.3125 47.703125 
L 18.3125 18.015625 
Q 18.3125 11.328125 20.140625 9.421875 
Q 21.96875 7.515625 27.59375 7.515625 
L 36.8125 7.515625 
L 36.8125 0 
L 27.59375 0 
Q 17.1875 0 13.234375 3.875 
Q 9.28125 7.765625 9.28125 18.015625 
L 9.28125 47.703125 
L 2.6875 47.703125 
L 2.6875 54.6875 
L 9.28125 54.6875 
L 9.28125 70.21875 
z
" id="DejaVuSans-116"/>
      <path d="M 9.421875 54.6875 
L 18.40625 54.6875 
L 18.40625 0 
L 9.421875 0 
z
M 9.421875 75.984375 
L 18.40625 75.984375 
L 18.40625 64.59375 
L 9.421875 64.59375 
z
" id="DejaVuSans-105"/>
      <path d="M 52 44.1875 
Q 55.375 50.25 60.0625 53.125 
Q 64.75 56 71.09375 56 
Q 79.640625 56 84.28125 50.015625 
Q 88.921875 44.046875 88.921875 33.015625 
L 88.921875 0 
L 79.890625 0 
L 79.890625 32.71875 
Q 79.890625 40.578125 77.09375 44.375 
Q 74.3125 48.1875 68.609375 48.1875 
Q 61.625 48.1875 57.5625 43.546875 
Q 53.515625 38.921875 53.515625 30.90625 
L 53.515625 0 
L 44.484375 0 
L 44.484375 32.71875 
Q 44.484375 40.625 41.703125 44.40625 
Q 38.921875 48.1875 33.109375 48.1875 
Q 26.21875 48.1875 22.15625 43.53125 
Q 18.109375 38.875 18.109375 30.90625 
L 18.109375 0 
L 9.078125 0 
L 9.078125 54.6875 
L 18.109375 54.6875 
L 18.109375 46.1875 
Q 21.1875 51.21875 25.484375 53.609375 
Q 29.78125 56 35.6875 56 
Q 41.65625 56 45.828125 52.96875 
Q 50 49.953125 52 44.1875 
z
" id="DejaVuSans-109"/>
      <path d="M 56.203125 29.59375 
L 56.203125 25.203125 
L 14.890625 25.203125 
Q 15.484375 15.921875 20.484375 11.0625 
Q 25.484375 6.203125 34.421875 6.203125 
Q 39.59375 6.203125 44.453125 7.46875 
Q 49.3125 8.734375 54.109375 11.28125 
L 54.109375 2.78125 
Q 49.265625 0.734375 44.1875 -0.34375 
Q 39.109375 -1.421875 33.890625 -1.421875 
Q 20.796875 -1.421875 13.15625 6.1875 
Q 5.515625 13.8125 5.515625 26.8125 
Q 5.515625 40.234375 12.765625 48.109375 
Q 20.015625 56 32.328125 56 
Q 43.359375 56 49.78125 48.890625 
Q 56.203125 41.796875 56.203125 29.59375 
z
M 47.21875 32.234375 
Q 47.125 39.59375 43.09375 43.984375 
Q 39.0625 48.390625 32.421875 48.390625 
Q 24.90625 48.390625 20.390625 44.140625 
Q 15.875 39.890625 15.1875 32.171875 
z
" id="DejaVuSans-101"/>
      <path id="DejaVuSans-32"/>
      <path d="M 8.59375 75.984375 
L 29.296875 75.984375 
L 29.296875 69 
L 17.578125 69 
L 17.578125 -6.203125 
L 29.296875 -6.203125 
L 29.296875 -13.1875 
L 8.59375 -13.1875 
z
" id="DejaVuSans-91"/>
      <path d="M 44.28125 53.078125 
L 44.28125 44.578125 
Q 40.484375 46.53125 36.375 47.5 
Q 32.28125 48.484375 27.875 48.484375 
Q 21.1875 48.484375 17.84375 46.4375 
Q 14.5 44.390625 14.5 40.28125 
Q 14.5 37.15625 16.890625 35.375 
Q 19.28125 33.59375 26.515625 31.984375 
L 29.59375 31.296875 
Q 39.15625 29.25 43.1875 25.515625 
Q 47.21875 21.78125 47.21875 15.09375 
Q 47.21875 7.46875 41.1875 3.015625 
Q 35.15625 -1.421875 24.609375 -1.421875 
Q 20.21875 -1.421875 15.453125 -0.5625 
Q 10.6875 0.296875 5.421875 2 
L 5.421875 11.28125 
Q 10.40625 8.6875 15.234375 7.390625 
Q 20.0625 6.109375 24.8125 6.109375 
Q 31.15625 6.109375 34.5625 8.28125 
Q 37.984375 10.453125 37.984375 14.40625 
Q 37.984375 18.0625 35.515625 20.015625 
Q 33.0625 21.96875 24.703125 23.78125 
L 21.578125 24.515625 
Q 13.234375 26.265625 9.515625 29.90625 
Q 5.8125 33.546875 5.8125 39.890625 
Q 5.8125 47.609375 11.28125 51.796875 
Q 16.75 56 26.8125 56 
Q 31.78125 56 36.171875 55.265625 
Q 40.578125 54.546875 44.28125 53.078125 
z
" id="DejaVuSans-115"/>
      <path d="M 30.421875 75.984375 
L 30.421875 -13.1875 
L 9.71875 -13.1875 
L 9.71875 -6.203125 
L 21.390625 -6.203125 
L 21.390625 69 
L 9.71875 69 
L 9.71875 75.984375 
z
" id="DejaVuSans-93"/>
     </defs>
     <g transform="translate(234.038281 412.756563)scale(0.1 -0.1)">
      <use xlink:href="#DejaVuSans-116"/>
      <use x="39.208984" xlink:href="#DejaVuSans-105"/>
      <use x="66.992188" xlink:href="#DejaVuSans-109"/>
      <use x="164.404297" xlink:href="#DejaVuSans-101"/>
      <use x="225.927734" xlink:href="#DejaVuSans-32"/>
      <use x="257.714844" xlink:href="#DejaVuSans-91"/>
      <use x="296.728516" xlink:href="#DejaVuSans-109"/>
      <use x="394.140625" xlink:href="#DejaVuSans-115"/>
      <use x="446.240234" xlink:href="#DejaVuSans-93"/>
     </g>
    </g>
   </g>
   <g id="matplotlib.axis_2">
    <g id="ytick_1">
     <g id="line2d_6">
      <defs>
       <path d="M 0 0 
L -3.5 0 
" id="m9d4feb51a0" style="stroke:#000000;stroke-width:0.8;"/>
      </defs>
      <g>
       <use style="stroke:#000000;stroke-width:0.8;" x="63" xlink:href="#m9d4feb51a0" y="369.416721"/>
      </g>
     </g>
     <g id="text_7">
      <!-- −80 -->
      <defs>
       <path d="M 10.59375 35.5 
L 73.1875 35.5 
L 73.1875 27.203125 
L 10.59375 27.203125 
z
" id="DejaVuSans-8722"/>
      </defs>
      <g transform="translate(34.895313 373.21594)scale(0.1 -0.1)">
       <use xlink:href="#DejaVuSans-8722"/>
       <use x="83.789062" xlink:href="#DejaVuSans-56"/>
       <use x="147.412109" xlink:href="#DejaVuSans-48"/>
      </g>
     </g>
    </g>
    <g id="ytick_2">
     <g id="line2d_7">
      <g>
       <use style="stroke:#000000;stroke-width:0.8;" x="63" xlink:href="#m9d4feb51a0" y="315.491207"/>
      </g>
     </g>
     <g id="text_8">
      <!-- −60 -->
      <g transform="translate(34.895313 319.290426)scale(0.1 -0.1)">
       <use xlink:href="#DejaVuSans-8722"/>
       <use x="83.789062" xlink:href="#DejaVuSans-54"/>
       <use x="147.412109" xlink:href="#DejaVuSans-48"/>
      </g>
     </g>
    </g>
    <g id="ytick_3">
     <g id="line2d_8">
      <g>
       <use style="stroke:#000000;stroke-width:0.8;" x="63" xlink:href="#m9d4feb51a0" y="261.565693"/>
      </g>
     </g>
     <g id="text_9">
      <!-- −40 -->
      <g transform="translate(34.895313 265.364911)scale(0.1 -0.1)">
       <use xlink:href="#DejaVuSans-8722"/>
       <use x="83.789062" xlink:href="#DejaVuSans-52"/>
       <use x="147.412109" xlink:href="#DejaVuSans-48"/>
      </g>
     </g>
    </g>
    <g id="ytick_4">
     <g id="line2d_9">
      <g>
       <use style="stroke:#000000;stroke-width:0.8;" x="63" xlink:href="#m9d4feb51a0" y="207.640178"/>
      </g>
     </g>
     <g id="text_10">
      <!-- −20 -->
      <g transform="translate(34.895313 211.439397)scale(0.1 -0.1)">
       <use xlink:href="#DejaVuSans-8722"/>
       <use x="83.789062" xlink:href="#DejaVuSans-50"/>
       <use x="147.412109" xlink:href="#DejaVuSans-48"/>
      </g>
     </g>
    </g>
    <g id="ytick_5">
     <g id="line2d_10">
      <g>
       <use style="stroke:#000000;stroke-width:0.8;" x="63" xlink:href="#m9d4feb51a0" y="153.714664"/>
      </g>
     </g>
     <g id="text_11">
      <!-- 0 -->
      <g transform="translate(49.6375 157.513883)scale(0.1 -0.1)">
       <use xlink:href="#DejaVuSans-48"/>
      </g>
     </g>
    </g>
    <g id="ytick_6">
     <g id="line2d_11">
      <g>
       <use style="stroke:#000000;stroke-width:0.8;" x="63" xlink:href="#m9d4feb51a0" y="99.78915"/>
      </g>
     </g>
     <g id="text_12">
      <!-- 20 -->
      <g transform="translate(43.275 103.588369)scale(0.1 -0.1)">
       <use xlink:href="#DejaVuSans-50"/>
       <use x="63.623047" xlink:href="#DejaVuSans-48"/>
      </g>
     </g>
    </g>
    <g id="text_13">
     <!-- Voltage [mV] -->
     <defs>
      <path d="M 28.609375 0 
L 0.78125 72.90625 
L 11.078125 72.90625 
L 34.1875 11.53125 
L 57.328125 72.90625 
L 67.578125 72.90625 
L 39.796875 0 
z
" id="DejaVuSans-86"/>
      <path d="M 30.609375 48.390625 
Q 23.390625 48.390625 19.1875 42.75 
Q 14.984375 37.109375 14.984375 27.296875 
Q 14.984375 17.484375 19.15625 11.84375 
Q 23.34375 6.203125 30.609375 6.203125 
Q 37.796875 6.203125 41.984375 11.859375 
Q 46.1875 17.53125 46.1875 27.296875 
Q 46.1875 37.015625 41.984375 42.703125 
Q 37.796875 48.390625 30.609375 48.390625 
z
M 30.609375 56 
Q 42.328125 56 49.015625 48.375 
Q 55.71875 40.765625 55.71875 27.296875 
Q 55.71875 13.875 49.015625 6.21875 
Q 42.328125 -1.421875 30.609375 -1.421875 
Q 18.84375 -1.421875 12.171875 6.21875 
Q 5.515625 13.875 5.515625 27.296875 
Q 5.515625 40.765625 12.171875 48.375 
Q 18.84375 56 30.609375 56 
z
" id="DejaVuSans-111"/>
      <path d="M 9.421875 75.984375 
L 18.40625 75.984375 
L 18.40625 0 
L 9.421875 0 
z
" id="DejaVuSans-108"/>
      <path d="M 34.28125 27.484375 
Q 23.390625 27.484375 19.1875 25 
Q 14.984375 22.515625 14.984375 16.5 
Q 14.984375 11.71875 18.140625 8.90625 
Q 21.296875 6.109375 26.703125 6.109375 
Q 34.1875 6.109375 38.703125 11.40625 
Q 43.21875 16.703125 43.21875 25.484375 
L 43.21875 27.484375 
z
M 52.203125 31.203125 
L 52.203125 0 
L 43.21875 0 
L 43.21875 8.296875 
Q 40.140625 3.328125 35.546875 0.953125 
Q 30.953125 -1.421875 24.3125 -1.421875 
Q 15.921875 -1.421875 10.953125 3.296875 
Q 6 8.015625 6 15.921875 
Q 6 25.140625 12.171875 29.828125 
Q 18.359375 34.515625 30.609375 34.515625 
L 43.21875 34.515625 
L 43.21875 35.40625 
Q 43.21875 41.609375 39.140625 45 
Q 35.0625 48.390625 27.6875 48.390625 
Q 23 48.390625 18.546875 47.265625 
Q 14.109375 46.140625 10.015625 43.890625 
L 10.015625 52.203125 
Q 14.9375 54.109375 19.578125 55.046875 
Q 24.21875 56 28.609375 56 
Q 40.484375 56 46.34375 49.84375 
Q 52.203125 43.703125 52.203125 31.203125 
z
" id="DejaVuSans-97"/>
      <path d="M 45.40625 27.984375 
Q 45.40625 37.75 41.375 43.109375 
Q 37.359375 48.484375 30.078125 48.484375 
Q 22.859375 48.484375 18.828125 43.109375 
Q 14.796875 37.75 14.796875 27.984375 
Q 14.796875 18.265625 18.828125 12.890625 
Q 22.859375 7.515625 30.078125 7.515625 
Q 37.359375 7.515625 41.375 12.890625 
Q 45.40625 18.265625 45.40625 27.984375 
z
M 54.390625 6.78125 
Q 54.390625 -7.171875 48.1875 -13.984375 
Q 42 -20.796875 29.203125 -20.796875 
Q 24.46875 -20.796875 20.265625 -20.09375 
Q 16.0625 -19.390625 12.109375 -17.921875 
L 12.109375 -9.1875 
Q 16.0625 -11.328125 19.921875 -12.34375 
Q 23.78125 -13.375 27.78125 -13.375 
Q 36.625 -13.375 41.015625 -8.765625 
Q 45.40625 -4.15625 45.40625 5.171875 
L 45.40625 9.625 
Q 42.625 4.78125 38.28125 2.390625 
Q 33.9375 0 27.875 0 
Q 17.828125 0 11.671875 7.65625 
Q 5.515625 15.328125 5.515625 27.984375 
Q 5.515625 40.671875 11.671875 48.328125 
Q 17.828125 56 27.875 56 
Q 33.9375 56 38.28125 53.609375 
Q 42.625 51.21875 45.40625 46.390625 
L 45.40625 54.6875 
L 54.390625 54.6875 
z
" id="DejaVuSans-103"/>
     </defs>
     <g transform="translate(28.815625 251.079531)rotate(-90)scale(0.1 -0.1)">
      <use xlink:href="#DejaVuSans-86"/>
      <use x="68.298828" xlink:href="#DejaVuSans-111"/>
      <use x="129.480469" xlink:href="#DejaVuSans-108"/>
      <use x="157.263672" xlink:href="#DejaVuSans-116"/>
      <use x="196.472656" xlink:href="#DejaVuSans-97"/>
      <use x="257.751953" xlink:href="#DejaVuSans-103"/>
      <use x="321.228516" xlink:href="#DejaVuSans-101"/>
      <use x="382.751953" xlink:href="#DejaVuSans-32"/>
      <use x="414.539062" xlink:href="#DejaVuSans-91"/>
      <use x="453.552734" xlink:href="#DejaVuSans-109"/>
      <use x="550.964844" xlink:href="#DejaVuSans-86"/>
      <use x="619.373047" xlink:href="#DejaVuSans-93"/>
     </g>
    </g>
   </g>
   <g id="line2d_12">
    <path clip-path="url(#p7015a36b51)" d="M 80.754545 328.972585 
L 80.922216 328.970168 
L 82.322755 329.499777 
L 83.634527 329.594408 
L 88.206005 329.58011 
L 100.480448 329.558312 
L 100.633324 345.175948 
L 100.958801 355.847245 
L 101.38784 363.287891 
L 101.807015 367.134112 
L 102.181807 368.788477 
L 102.487559 369.303527 
L 102.729201 369.344653 
L 102.995501 369.132772 
L 103.424539 368.451041 
L 105.485896 364.792289 
L 106.250275 364.047355 
L 107.0689 363.558655 
L 108.045332 363.243537 
L 109.396556 363.059319 
L 111.886952 362.98373 
L 128.101644 362.97476 
L 130.069303 362.974673 
L 130.222178 347.533178 
L 130.542724 337.467137 
L 130.952037 330.898175 
L 131.366281 327.457625 
L 131.760799 325.822533 
L 132.130659 325.118442 
L 132.475863 324.885131 
L 132.845723 324.901419 
L 133.36846 325.174237 
L 134.547083 326.118919 
L 136.085703 327.236185 
L 137.466516 327.957645 
L 139.010068 328.507976 
L 139.932254 328.742227 
L 139.937186 328.972585 
L 140.045678 328.94792 
L 140.499374 329.187323 
L 141.273615 329.45705 
L 142.388129 329.580668 
L 145.179344 329.594302 
L 159.663088 329.558312 
L 159.815964 326.432941 
L 160.141442 324.302662 
L 160.575411 322.817131 
L 161.03897 321.965171 
L 161.541981 321.484397 
L 162.148552 321.217107 
L 163.016492 321.09802 
L 164.811549 321.126965 
L 172.129859 321.31903 
L 186.559357 321.373484 
L 189.251943 321.375049 
L 189.404818 324.504883 
L 189.730296 326.63107 
L 190.164266 328.105231 
L 190.627824 328.951017 
L 191.130835 329.429221 
L 191.737406 329.695406 
L 192.610278 329.814463 
L 194.434924 329.785901 
L 199.114894 329.643341 
L 199.188866 328.942206 
L 199.228318 328.94792 
L 199.682014 329.187323 
L 200.456256 329.45705 
L 201.570769 329.580668 
L 204.361984 329.594302 
L 218.845729 329.558312 
L 218.998604 323.306015 
L 219.324082 319.036627 
L 219.75312 316.074331 
L 220.211747 314.3352 
L 220.695032 313.317994 
L 221.2227 312.703976 
L 221.853929 312.313411 
L 222.707074 312.062221 
L 224.013915 311.928629 
L 225.43418 311.98976 
L 226.612803 312.27258 
L 228.54101 312.744794 
L 230.395245 312.911156 
L 234.616588 313.007564 
L 248.434583 313.060398 
L 248.59239 319.464703 
L 248.917867 323.719438 
L 249.341974 326.617415 
L 249.790739 328.282879 
L 250.249366 329.200529 
L 250.737582 329.705675 
L 251.304702 329.971887 
L 252.093738 330.077181 
L 253.632358 330.010903 
L 258.297534 329.737234 
L 258.371506 328.942206 
L 258.410958 328.94792 
L 258.864654 329.187323 
L 259.638896 329.45705 
L 260.753409 329.580668 
L 263.544624 329.594302 
L 278.028369 329.558312 
L 278.181244 320.176576 
L 278.506722 313.739124 
L 278.950555 309.04695 
L 279.67055 303.345638 
L 279.685344 290.142546 
L 279.744522 68.650011 
L 279.818494 175.948082 
L 280.015753 303.174158 
L 280.198218 310.247055 
L 280.380683 311.012942 
L 280.484244 310.911506 
L 280.711091 310.233828 
L 281.889714 306.29313 
L 282.540669 305.094597 
L 283.260664 303.77703 
L 283.383951 302.983022 
L 283.403677 300.625643 
L 283.443129 178.824858 
L 283.477649 75.374554 
L 283.551621 180.299807 
L 283.74888 303.260009 
L 283.931345 309.997628 
L 284.123673 310.903509 
L 284.237097 310.852538 
L 284.439287 310.378683 
L 285.741197 306.800335 
L 286.323111 306.053482 
L 287.008586 305.538889 
L 287.975155 305.111661 
L 290.075964 304.253989 
L 290.347195 303.861236 
L 290.470482 303.244386 
L 290.490208 301.918893 
L 290.519797 234.739936 
L 290.569111 80.646794 
L 290.643083 179.646573 
L 290.840343 301.450436 
L 291.027739 308.648257 
L 291.234861 309.885963 
L 291.377873 309.960779 
L 291.392668 309.951399 
L 291.575132 309.682187 
L 292.245813 308.055102 
L 292.842522 307.002742 
L 293.444162 306.379323 
L 294.178952 305.946342 
L 295.254013 305.593184 
L 297.384411 305.172935 
L 299.958641 304.612532 
L 300.545487 304.276324 
L 300.792061 303.884287 
L 300.895622 303.293426 
L 300.910416 302.271277 
L 300.935073 250.169433 
L 300.98932 84.178713 
L 301.068223 183.250963 
L 301.265482 300.959791 
L 301.452878 308.15557 
L 301.669863 309.554454 
L 301.837533 309.673115 
L 301.842465 309.670667 
L 302.019998 309.450796 
L 302.537803 308.296331 
L 303.183826 307.126204 
L 303.785466 306.484098 
L 304.510393 306.04239 
L 305.555866 305.686735 
L 307.548182 305.285045 
L 307.617223 305.273155 
L 307.77503 314.954649 
L 308.095576 321.286502 
L 308.514752 325.532372 
L 308.953653 327.912001 
L 309.397486 329.205247 
L 309.856113 329.905604 
L 310.34926 330.26871 
L 310.960763 330.433364 
L 311.902675 330.429306 
L 317.480174 329.897045 
L 317.554146 328.942206 
L 317.593598 328.94792 
L 318.047294 329.187323 
L 318.821536 329.45705 
L 319.936049 329.580668 
L 322.727265 329.594302 
L 337.211009 329.558312 
L 337.363884 317.043276 
L 337.694293 308.266678 
L 338.291002 296.88789 
L 338.315659 238.517152 
L 338.360043 67.523686 
L 338.438946 183.384251 
L 338.626342 299.211851 
L 338.798944 305.913375 
L 338.897573 306.266765 
L 338.941957 306.220068 
L 339.080038 305.698714 
L 339.523871 302.854171 
L 340.45592 295.792747 
L 340.510166 293.542348 
L 340.52496 275.215005 
L 340.584138 72.944216 
L 340.65811 175.955194 
L 340.855369 301.819424 
L 341.027971 307.584501 
L 341.111806 307.831117 
L 341.161121 307.766567 
L 341.313997 307.103094 
L 341.935362 302.879473 
L 343.089328 294.635892 
L 343.109054 289.005696 
L 343.178094 78.783931 
L 343.261929 192.454076 
L 343.449325 300.313378 
L 343.626859 306.297716 
L 343.740283 306.677133 
L 343.779734 306.646004 
L 343.912884 306.237315 
L 344.307402 304.051393 
L 345.140822 299.748434 
L 345.796708 296.429197 
L 345.895337 294.624577 
L 345.915063 288.248673 
L 345.984104 82.781166 
L 346.063008 183.858812 
L 346.260267 299.313671 
L 346.4378 305.326428 
L 346.590676 305.876605 
L 346.60547 305.870422 
L 346.713962 305.660013 
L 346.985194 304.496005 
L 348.104639 299.407162 
L 348.74573 296.646404 
L 348.869017 294.886729 
L 348.888743 292.390371 
L 348.928195 167.630718 
L 348.962715 85.699135 
L 349.036687 175.460314 
L 349.238878 298.159504 
L 349.421343 304.6024 
L 349.603807 305.314782 
L 349.702437 305.19105 
L 349.924353 304.427998 
L 351.462974 298.345263 
L 351.847629 296.637748 
L 351.965984 295.07085 
L 351.990641 291.837922 
L 352.035025 139.465066 
L 352.064614 87.747602 
L 352.133654 168.964261 
L 352.340776 297.316118 
L 352.523241 304.063563 
L 352.710637 304.951377 
L 352.814198 304.877972 
L 353.011457 304.305526 
L 355.09254 296.076101 
L 355.16158 294.276075 
L 355.176375 285.060811 
L 355.245415 89.159677 
L 355.314456 169.780247 
L 355.521578 296.67997 
L 355.704043 303.602012 
L 355.901302 304.645642 
L 355.995 304.622915 
L 356.014726 304.596025 
L 356.202122 304.104733 
L 357.040473 300.824936 
L 358.332519 295.921671 
L 358.391697 293.649788 
L 358.416354 238.193545 
L 358.470601 90.041363 
L 358.544573 175.178935 
L 358.746763 296.144492 
L 358.934159 303.325631 
L 359.131418 304.420357 
L 359.225116 304.426728 
L 359.254705 304.39283 
L 359.43717 303.948485 
L 360.058536 301.567087 
L 360.852503 299.03525 
L 361.449212 297.01187 
L 361.607019 295.558031 
L 361.646471 292.304878 
L 361.685923 169.584804 
L 361.720443 90.680507 
L 361.794415 173.315095 
L 362.001537 296.022156 
L 362.188933 303.079596 
L 362.391124 304.231151 
L 362.489753 304.247215 
L 362.519342 304.215694 
L 362.701807 303.792235 
L 363.293584 301.597313 
L 364.102346 299.059408 
L 364.708917 297.046442 
L 364.866725 295.672038 
L 364.906176 293.987645 
L 364.925902 256.421416 
L 364.98508 91.094388 
L 365.059052 172.915603 
L 365.266174 295.661887 
L 365.45357 302.880092 
L 365.660692 304.110945 
L 365.759322 304.139724 
L 365.793842 304.106017 
L 365.976307 303.695266 
L 366.553289 301.599905 
L 366.799863 300.750667 
L 366.952739 313.111043 
L 367.25849 320.635331 
L 367.65794 325.469955 
L 368.086978 328.200263 
L 368.520948 329.663016 
L 368.959849 330.430623 
L 369.423408 330.818023 
L 369.970802 330.981576 
L 370.764769 330.96412 
L 372.73736 330.619161 
L 375.794875 330.180241 
L 376.662814 330.093652 
L 376.736787 328.942206 
L 376.776238 328.94792 
L 377.229934 329.187323 
L 378.004176 329.45705 
L 379.118689 329.580668 
L 381.909905 329.594302 
L 396.393649 329.558312 
L 396.546525 313.904096 
L 396.886796 302.396984 
L 397.162959 293.029487 
L 397.177753 272.667904 
L 397.232 66.96 
L 397.310903 183.36121 
L 397.498299 295.841283 
L 397.66597 301.707773 
L 397.710353 301.798997 
L 397.764599 301.67487 
L 397.932269 300.532945 
L 398.430348 295.238904 
L 398.681854 290.703621 
L 398.7361 285.957509 
L 398.760757 224.115035 
L 398.80514 71.733031 
L 398.879113 175.708845 
L 399.076372 301.060303 
L 399.23911 305.655752 
L 399.263768 305.66995 
L 399.303219 305.568404 
L 399.451164 304.463101 
L 400.10705 297.005894 
L 400.501568 291.141916 
L 400.565677 287.100421 
L 400.585403 250.304154 
L 400.639649 77.158016 
L 400.718553 182.214213 
L 400.910881 299.525524 
L 401.078551 304.43711 
L 401.113071 304.481279 
L 401.162386 304.367156 
L 401.325125 303.248006 
L 402.0106 296.187323 
L 402.375529 291.117799 
L 402.449501 286.19378 
L 402.474158 226.523799 
L 402.523473 81.431754 
L 402.597445 177.140599 
L 402.794704 298.455234 
L 402.962374 303.554778 
L 403.011689 303.655784 
L 403.065935 303.548072 
L 403.228674 302.54739 
L 403.835246 296.825766 
L 404.28401 291.357336 
L 404.367845 287.205755 
L 404.382639 273.727624 
L 404.446749 84.336378 
L 404.515789 169.008976 
L 404.71798 297.310107 
L 404.890581 302.788693 
L 404.954691 302.945921 
L 405.008937 302.852387 
L 405.166744 301.993243 
L 405.689481 297.459687 
L 406.227011 291.52475 
L 406.320709 287.435006 
L 406.335504 278.037881 
L 406.399613 86.400563 
L 406.473585 172.596656 
L 406.675776 296.716121 
L 406.848377 302.278681 
L 406.927281 302.496816 
L 406.981527 302.408969 
L 407.139334 301.60997 
L 407.637413 297.525726 
L 408.199602 291.64415 
L 408.298231 287.88144 
L 408.317957 273.118052 
L 408.382066 87.807747 
L 408.451107 167.189788 
L 408.658229 295.984741 
L 408.835762 301.748484 
L 408.924529 302.014813 
L 408.973843 301.951317 
L 409.116856 301.326507 
L 409.526169 298.240181 
L 410.177123 291.966629 
L 410.290547 288.497736 
L 410.315205 277.089443 
L 410.379314 88.797516 
L 410.453286 171.631243 
L 410.660408 295.814618 
L 410.837941 301.461672 
L 410.936571 301.760648 
L 410.980954 301.707624 
L 411.119035 301.151326 
L 411.498759 298.427064 
L 412.179303 292.131277 
L 412.302589 288.662384 
L 412.327247 281.08133 
L 412.396288 89.519965 
L 412.47026 175.102147 
L 412.67245 295.1099 
L 412.849983 301.111316 
L 412.958476 301.489719 
L 413.002859 301.445814 
L 413.136009 300.951883 
L 413.491075 298.531061 
L 414.191345 292.284544 
L 414.324495 288.828629 
L 414.349152 283.740192 
L 414.418193 89.822533 
L 414.506959 190.060112 
L 414.704218 295.436994 
L 414.881751 301.016794 
L 414.995175 301.38264 
L 415.034627 301.341215 
L 415.167777 300.859577 
L 415.517912 298.516768 
L 416.218181 292.385503 
L 416.356263 289.023141 
L 416.385851 281.360231 
L 416.454892 90.180567 
L 416.528864 174.472521 
L 416.735986 294.842826 
L 416.913519 300.754144 
L 417.036806 301.190462 
L 417.071326 301.159933 
L 417.194613 300.758447 
L 417.510228 298.76514 
L 418.230223 292.714398 
L 418.388031 289.423977 
L 418.422551 283.92228 
L 418.491591 90.29035 
L 418.58529 195.284785 
L 418.782549 295.312969 
L 418.965013 300.802122 
L 419.078437 301.164569 
L 419.117889 301.128936 
L 419.246107 300.697749 
L 419.576516 298.587639 
L 420.286649 292.584504 
L 420.434593 289.397054 
L 420.469113 283.282151 
L 420.538154 90.389735 
L 420.62692 190.238373 
L 420.82418 294.764008 
L 421.006644 300.638466 
L 421.129931 301.062763 
L 421.164451 301.03428 
L 421.287738 300.645718 
L 421.598421 298.728565 
L 422.318417 292.783667 
L 422.476224 289.72544 
L 422.515676 284.883818 
L 422.584716 90.663821 
L 422.693209 210.24786 
L 422.880605 295.266056 
L 423.063069 300.632852 
L 423.181425 301.013018 
L 423.220877 300.97762 
L 423.349095 300.556005 
L 423.679504 298.486481 
L 424.379774 292.659325 
L 424.532649 289.49419 
L 424.56717 284.721605 
L 424.63621 90.662275 
L 424.739771 205.102085 
L 424.932099 295.196931 
L 425.114563 300.586367 
L 425.232919 300.978739 
L 425.272371 300.946691 
L 425.400589 300.534126 
L 425.726066 298.515152 
L 425.982503 296.619062 
L 426.135379 311.696387 
L 426.431267 320.12963 
L 426.820854 325.406977 
L 427.240029 328.352573 
L 427.669068 329.940295 
L 428.103038 330.766729 
L 428.551802 331.172091 
L 429.069607 331.338143 
L 429.794534 331.316489 
L 431.362743 330.987211 
L 434.321629 330.419925 
L 435.845455 330.22169 
L 435.845455 330.22169 
" style="fill:none;stroke:#ff0000;stroke-linecap:square;stroke-width:1.5;"/>
   </g>
   <g id="patch_3">
    <path d="M 63 384.48 
L 63 51.84 
" style="fill:none;stroke:#000000;stroke-linecap:square;stroke-linejoin:miter;stroke-width:0.8;"/>
   </g>
   <g id="patch_4">
    <path d="M 453.6 384.48 
L 453.6 51.84 
" style="fill:none;stroke:#000000;stroke-linecap:square;stroke-linejoin:miter;stroke-width:0.8;"/>
   </g>
   <g id="patch_5">
    <path d="M 63 384.48 
L 453.6 384.48 
" style="fill:none;stroke:#000000;stroke-linecap:square;stroke-linejoin:miter;stroke-width:0.8;"/>
   </g>
   <g id="patch_6">
    <path d="M 63 51.84 
L 453.6 51.84 
" style="fill:none;stroke:#000000;stroke-linecap:square;stroke-linejoin:miter;stroke-width:0.8;"/>
   </g>
   <g id="legend_1">
    <g id="patch_7">
     <path d="M 70 74.518125 
L 133.139062 74.518125 
Q 135.139062 74.518125 135.139062 72.518125 
L 135.139062 58.84 
Q 135.139062 56.84 133.139062 56.84 
L 70 56.84 
Q 68 56.84 68 58.84 
L 68 72.518125 
Q 68 74.518125 70 74.518125 
z
" style="fill:#ffffff;opacity:0.8;stroke:#cccccc;stroke-linejoin:miter;"/>
    </g>
    <g id="line2d_13">
     <path d="M 72 64.938438 
L 92 64.938438 
" style="fill:none;stroke:#ff0000;stroke-linecap:square;stroke-width:1.5;"/>
    </g>
    <g id="line2d_14"/>
    <g id="text_14">
     <!-- model -->
     <defs>
      <path d="M 45.40625 46.390625 
L 45.40625 75.984375 
L 54.390625 75.984375 
L 54.390625 0 
L 45.40625 0 
L 45.40625 8.203125 
Q 42.578125 3.328125 38.25 0.953125 
Q 33.9375 -1.421875 27.875 -1.421875 
Q 17.96875 -1.421875 11.734375 6.484375 
Q 5.515625 14.40625 5.515625 27.296875 
Q 5.515625 40.1875 11.734375 48.09375 
Q 17.96875 56 27.875 56 
Q 33.9375 56 38.25 53.625 
Q 42.578125 51.265625 45.40625 46.390625 
z
M 14.796875 27.296875 
Q 14.796875 17.390625 18.875 11.75 
Q 22.953125 6.109375 30.078125 6.109375 
Q 37.203125 6.109375 41.296875 11.75 
Q 45.40625 17.390625 45.40625 27.296875 
Q 45.40625 37.203125 41.296875 42.84375 
Q 37.203125 48.484375 30.078125 48.484375 
Q 22.953125 48.484375 18.875 42.84375 
Q 14.796875 37.203125 14.796875 27.296875 
z
" id="DejaVuSans-100"/>
     </defs>
     <g transform="translate(100 68.438438)scale(0.1 -0.1)">
      <use xlink:href="#DejaVuSans-109"/>
      <use x="97.412109" xlink:href="#DejaVuSans-111"/>
      <use x="158.59375" xlink:href="#DejaVuSans-100"/>
      <use x="222.070312" xlink:href="#DejaVuSans-101"/>
      <use x="283.59375" xlink:href="#DejaVuSans-108"/>
     </g>
    </g>
   </g>
  </g>
 </g>
 <defs>
  <clipPath id="p7015a36b51">
   <rect height="332.64" width="390.6" x="63" y="51.84"/>
  </clipPath>
 </defs>
</svg>
