<?xml version="1.0" encoding="utf-8" standalone="no"?>
<!DOCTYPE svg PUBLIC "-//W3C//DTD SVG 1.1//EN"
  "http://www.w3.org/Graphics/SVG/1.1/DTD/svg11.dtd">
<!-- Created with matplotlib (https://matplotlib.org/) -->
<svg height="432pt" version="1.1" viewBox="0 0 504 432" width="504pt" xmlns="http://www.w3.org/2000/svg" xmlns:xlink="http://www.w3.org/1999/xlink">
 <defs>
  <style type="text/css">
*{stroke-linecap:butt;stroke-linejoin:round;}
  </style>
 </defs>
 <g id="figure_1">
  <g id="patch_1">
   <path d="M 0 432 
L 504 432 
L 504 0 
L 0 0 
z
" style="fill:#ffffff;"/>
  </g>
  <g id="axes_1">
   <g id="patch_2">
    <path d="M 63 384.48 
L 453.6 384.48 
L 453.6 51.84 
L 63 51.84 
z
" style="fill:#ffffff;"/>
   </g>
   <g id="matplotlib.axis_1">
    <g id="xtick_1">
     <g id="line2d_1">
      <defs>
       <path d="M 0 0 
L 0 3.5 
" id="mcc3a3705a1" style="stroke:#000000;stroke-width:0.8;"/>
      </defs>
      <g>
       <use style="stroke:#000000;stroke-width:0.8;" x="80.754545" xlink:href="#mcc3a3705a1" y="384.48"/>
      </g>
     </g>
     <g id="text_1">
      <!-- 0 -->
      <defs>
       <path d="M 31.78125 66.40625 
Q 24.171875 66.40625 20.328125 58.90625 
Q 16.5 51.421875 16.5 36.375 
Q 16.5 21.390625 20.328125 13.890625 
Q 24.171875 6.390625 31.78125 6.390625 
Q 39.453125 6.390625 43.28125 13.890625 
Q 47.125 21.390625 47.125 36.375 
Q 47.125 51.421875 43.28125 58.90625 
Q 39.453125 66.40625 31.78125 66.40625 
z
M 31.78125 74.21875 
Q 44.046875 74.21875 50.515625 64.515625 
Q 56.984375 54.828125 56.984375 36.375 
Q 56.984375 17.96875 50.515625 8.265625 
Q 44.046875 -1.421875 31.78125 -1.421875 
Q 19.53125 -1.421875 13.0625 8.265625 
Q 6.59375 17.96875 6.59375 36.375 
Q 6.59375 54.828125 13.0625 64.515625 
Q 19.53125 74.21875 31.78125 74.21875 
z
" id="DejaVuSans-48"/>
      </defs>
      <g transform="translate(77.573295 399.078438)scale(0.1 -0.1)">
       <use xlink:href="#DejaVuSans-48"/>
      </g>
     </g>
    </g>
    <g id="xtick_2">
     <g id="line2d_2">
      <g>
       <use style="stroke:#000000;stroke-width:0.8;" x="151.763044" xlink:href="#mcc3a3705a1" y="384.48"/>
      </g>
     </g>
     <g id="text_2">
      <!-- 880 -->
      <defs>
       <path d="M 31.78125 34.625 
Q 24.75 34.625 20.71875 30.859375 
Q 16.703125 27.09375 16.703125 20.515625 
Q 16.703125 13.921875 20.71875 10.15625 
Q 24.75 6.390625 31.78125 6.390625 
Q 38.8125 6.390625 42.859375 10.171875 
Q 46.921875 13.96875 46.921875 20.515625 
Q 46.921875 27.09375 42.890625 30.859375 
Q 38.875 34.625 31.78125 34.625 
z
M 21.921875 38.8125 
Q 15.578125 40.375 12.03125 44.71875 
Q 8.5 49.078125 8.5 55.328125 
Q 8.5 64.0625 14.71875 69.140625 
Q 20.953125 74.21875 31.78125 74.21875 
Q 42.671875 74.21875 48.875 69.140625 
Q 55.078125 64.0625 55.078125 55.328125 
Q 55.078125 49.078125 51.53125 44.71875 
Q 48 40.375 41.703125 38.8125 
Q 48.828125 37.15625 52.796875 32.3125 
Q 56.78125 27.484375 56.78125 20.515625 
Q 56.78125 9.90625 50.3125 4.234375 
Q 43.84375 -1.421875 31.78125 -1.421875 
Q 19.734375 -1.421875 13.25 4.234375 
Q 6.78125 9.90625 6.78125 20.515625 
Q 6.78125 27.484375 10.78125 32.3125 
Q 14.796875 37.15625 21.921875 38.8125 
z
M 18.3125 54.390625 
Q 18.3125 48.734375 21.84375 45.5625 
Q 25.390625 42.390625 31.78125 42.390625 
Q 38.140625 42.390625 41.71875 45.5625 
Q 45.3125 48.734375 45.3125 54.390625 
Q 45.3125 60.0625 41.71875 63.234375 
Q 38.140625 66.40625 31.78125 66.40625 
Q 25.390625 66.40625 21.84375 63.234375 
Q 18.3125 60.0625 18.3125 54.390625 
z
" id="DejaVuSans-56"/>
      </defs>
      <g transform="translate(142.219294 399.078438)scale(0.1 -0.1)">
       <use xlink:href="#DejaVuSans-56"/>
       <use x="63.623047" xlink:href="#DejaVuSans-56"/>
       <use x="127.246094" xlink:href="#DejaVuSans-48"/>
      </g>
     </g>
    </g>
    <g id="xtick_3">
     <g id="line2d_3">
      <g>
       <use style="stroke:#000000;stroke-width:0.8;" x="222.771543" xlink:href="#mcc3a3705a1" y="384.48"/>
      </g>
     </g>
     <g id="text_3">
      <!-- 1760 -->
      <defs>
       <path d="M 12.40625 8.296875 
L 28.515625 8.296875 
L 28.515625 63.921875 
L 10.984375 60.40625 
L 10.984375 69.390625 
L 28.421875 72.90625 
L 38.28125 72.90625 
L 38.28125 8.296875 
L 54.390625 8.296875 
L 54.390625 0 
L 12.40625 0 
z
" id="DejaVuSans-49"/>
       <path d="M 8.203125 72.90625 
L 55.078125 72.90625 
L 55.078125 68.703125 
L 28.609375 0 
L 18.3125 0 
L 43.21875 64.59375 
L 8.203125 64.59375 
z
" id="DejaVuSans-55"/>
       <path d="M 33.015625 40.375 
Q 26.375 40.375 22.484375 35.828125 
Q 18.609375 31.296875 18.609375 23.390625 
Q 18.609375 15.53125 22.484375 10.953125 
Q 26.375 6.390625 33.015625 6.390625 
Q 39.65625 6.390625 43.53125 10.953125 
Q 47.40625 15.53125 47.40625 23.390625 
Q 47.40625 31.296875 43.53125 35.828125 
Q 39.65625 40.375 33.015625 40.375 
z
M 52.59375 71.296875 
L 52.59375 62.3125 
Q 48.875 64.0625 45.09375 64.984375 
Q 41.3125 65.921875 37.59375 65.921875 
Q 27.828125 65.921875 22.671875 59.328125 
Q 17.53125 52.734375 16.796875 39.40625 
Q 19.671875 43.65625 24.015625 45.921875 
Q 28.375 48.1875 33.59375 48.1875 
Q 44.578125 48.1875 50.953125 41.515625 
Q 57.328125 34.859375 57.328125 23.390625 
Q 57.328125 12.15625 50.6875 5.359375 
Q 44.046875 -1.421875 33.015625 -1.421875 
Q 20.359375 -1.421875 13.671875 8.265625 
Q 6.984375 17.96875 6.984375 36.375 
Q 6.984375 53.65625 15.1875 63.9375 
Q 23.390625 74.21875 37.203125 74.21875 
Q 40.921875 74.21875 44.703125 73.484375 
Q 48.484375 72.75 52.59375 71.296875 
z
" id="DejaVuSans-54"/>
      </defs>
      <g transform="translate(210.046543 399.078438)scale(0.1 -0.1)">
       <use xlink:href="#DejaVuSans-49"/>
       <use x="63.623047" xlink:href="#DejaVuSans-55"/>
       <use x="127.246094" xlink:href="#DejaVuSans-54"/>
       <use x="190.869141" xlink:href="#DejaVuSans-48"/>
      </g>
     </g>
    </g>
    <g id="xtick_4">
     <g id="line2d_4">
      <g>
       <use style="stroke:#000000;stroke-width:0.8;" x="293.780042" xlink:href="#mcc3a3705a1" y="384.48"/>
      </g>
     </g>
     <g id="text_4">
      <!-- 2640 -->
      <defs>
       <path d="M 19.1875 8.296875 
L 53.609375 8.296875 
L 53.609375 0 
L 7.328125 0 
L 7.328125 8.296875 
Q 12.9375 14.109375 22.625 23.890625 
Q 32.328125 33.6875 34.8125 36.53125 
Q 39.546875 41.84375 41.421875 45.53125 
Q 43.3125 49.21875 43.3125 52.78125 
Q 43.3125 58.59375 39.234375 62.25 
Q 35.15625 65.921875 28.609375 65.921875 
Q 23.96875 65.921875 18.8125 64.3125 
Q 13.671875 62.703125 7.8125 59.421875 
L 7.8125 69.390625 
Q 13.765625 71.78125 18.9375 73 
Q 24.125 74.21875 28.421875 74.21875 
Q 39.75 74.21875 46.484375 68.546875 
Q 53.21875 62.890625 53.21875 53.421875 
Q 53.21875 48.921875 51.53125 44.890625 
Q 49.859375 40.875 45.40625 35.40625 
Q 44.1875 33.984375 37.640625 27.21875 
Q 31.109375 20.453125 19.1875 8.296875 
z
" id="DejaVuSans-50"/>
       <path d="M 37.796875 64.3125 
L 12.890625 25.390625 
L 37.796875 25.390625 
z
M 35.203125 72.90625 
L 47.609375 72.90625 
L 47.609375 25.390625 
L 58.015625 25.390625 
L 58.015625 17.1875 
L 47.609375 17.1875 
L 47.609375 0 
L 37.796875 0 
L 37.796875 17.1875 
L 4.890625 17.1875 
L 4.890625 26.703125 
z
" id="DejaVuSans-52"/>
      </defs>
      <g transform="translate(281.055042 399.078438)scale(0.1 -0.1)">
       <use xlink:href="#DejaVuSans-50"/>
       <use x="63.623047" xlink:href="#DejaVuSans-54"/>
       <use x="127.246094" xlink:href="#DejaVuSans-52"/>
       <use x="190.869141" xlink:href="#DejaVuSans-48"/>
      </g>
     </g>
    </g>
    <g id="xtick_5">
     <g id="line2d_5">
      <g>
       <use style="stroke:#000000;stroke-width:0.8;" x="364.788541" xlink:href="#mcc3a3705a1" y="384.48"/>
      </g>
     </g>
     <g id="text_5">
      <!-- 3520 -->
      <defs>
       <path d="M 40.578125 39.3125 
Q 47.65625 37.796875 51.625 33 
Q 55.609375 28.21875 55.609375 21.1875 
Q 55.609375 10.40625 48.1875 4.484375 
Q 40.765625 -1.421875 27.09375 -1.421875 
Q 22.515625 -1.421875 17.65625 -0.515625 
Q 12.796875 0.390625 7.625 2.203125 
L 7.625 11.71875 
Q 11.71875 9.328125 16.59375 8.109375 
Q 21.484375 6.890625 26.8125 6.890625 
Q 36.078125 6.890625 40.9375 10.546875 
Q 45.796875 14.203125 45.796875 21.1875 
Q 45.796875 27.640625 41.28125 31.265625 
Q 36.765625 34.90625 28.71875 34.90625 
L 20.21875 34.90625 
L 20.21875 43.015625 
L 29.109375 43.015625 
Q 36.375 43.015625 40.234375 45.921875 
Q 44.09375 48.828125 44.09375 54.296875 
Q 44.09375 59.90625 40.109375 62.90625 
Q 36.140625 65.921875 28.71875 65.921875 
Q 24.65625 65.921875 20.015625 65.03125 
Q 15.375 64.15625 9.8125 62.3125 
L 9.8125 71.09375 
Q 15.4375 72.65625 20.34375 73.4375 
Q 25.25 74.21875 29.59375 74.21875 
Q 40.828125 74.21875 47.359375 69.109375 
Q 53.90625 64.015625 53.90625 55.328125 
Q 53.90625 49.265625 50.4375 45.09375 
Q 46.96875 40.921875 40.578125 39.3125 
z
" id="DejaVuSans-51"/>
       <path d="M 10.796875 72.90625 
L 49.515625 72.90625 
L 49.515625 64.59375 
L 19.828125 64.59375 
L 19.828125 46.734375 
Q 21.96875 47.46875 24.109375 47.828125 
Q 26.265625 48.1875 28.421875 48.1875 
Q 40.625 48.1875 47.75 41.5 
Q 54.890625 34.8125 54.890625 23.390625 
Q 54.890625 11.625 47.5625 5.09375 
Q 40.234375 -1.421875 26.90625 -1.421875 
Q 22.3125 -1.421875 17.546875 -0.640625 
Q 12.796875 0.140625 7.71875 1.703125 
L 7.71875 11.625 
Q 12.109375 9.234375 16.796875 8.0625 
Q 21.484375 6.890625 26.703125 6.890625 
Q 35.15625 6.890625 40.078125 11.328125 
Q 45.015625 15.765625 45.015625 23.390625 
Q 45.015625 31 40.078125 35.4375 
Q 35.15625 39.890625 26.703125 39.890625 
Q 22.75 39.890625 18.8125 39.015625 
Q 14.890625 38.140625 10.796875 36.28125 
z
" id="DejaVuSans-53"/>
      </defs>
      <g transform="translate(352.063541 399.078438)scale(0.1 -0.1)">
       <use xlink:href="#DejaVuSans-51"/>
       <use x="63.623047" xlink:href="#DejaVuSans-53"/>
       <use x="127.246094" xlink:href="#DejaVuSans-50"/>
       <use x="190.869141" xlink:href="#DejaVuSans-48"/>
      </g>
     </g>
    </g>
    <g id="text_6">
     <!-- time [ms] -->
     <defs>
      <path d="M 18.3125 70.21875 
L 18.3125 54.6875 
L 36.8125 54.6875 
L 36.8125 47.703125 
L 18.3125 47.703125 
L 18.3125 18.015625 
Q 18.3125 11.328125 20.140625 9.421875 
Q 21.96875 7.515625 27.59375 7.515625 
L 36.8125 7.515625 
L 36.8125 0 
L 27.59375 0 
Q 17.1875 0 13.234375 3.875 
Q 9.28125 7.765625 9.28125 18.015625 
L 9.28125 47.703125 
L 2.6875 47.703125 
L 2.6875 54.6875 
L 9.28125 54.6875 
L 9.28125 70.21875 
z
" id="DejaVuSans-116"/>
      <path d="M 9.421875 54.6875 
L 18.40625 54.6875 
L 18.40625 0 
L 9.421875 0 
z
M 9.421875 75.984375 
L 18.40625 75.984375 
L 18.40625 64.59375 
L 9.421875 64.59375 
z
" id="DejaVuSans-105"/>
      <path d="M 52 44.1875 
Q 55.375 50.25 60.0625 53.125 
Q 64.75 56 71.09375 56 
Q 79.640625 56 84.28125 50.015625 
Q 88.921875 44.046875 88.921875 33.015625 
L 88.921875 0 
L 79.890625 0 
L 79.890625 32.71875 
Q 79.890625 40.578125 77.09375 44.375 
Q 74.3125 48.1875 68.609375 48.1875 
Q 61.625 48.1875 57.5625 43.546875 
Q 53.515625 38.921875 53.515625 30.90625 
L 53.515625 0 
L 44.484375 0 
L 44.484375 32.71875 
Q 44.484375 40.625 41.703125 44.40625 
Q 38.921875 48.1875 33.109375 48.1875 
Q 26.21875 48.1875 22.15625 43.53125 
Q 18.109375 38.875 18.109375 30.90625 
L 18.109375 0 
L 9.078125 0 
L 9.078125 54.6875 
L 18.109375 54.6875 
L 18.109375 46.1875 
Q 21.1875 51.21875 25.484375 53.609375 
Q 29.78125 56 35.6875 56 
Q 41.65625 56 45.828125 52.96875 
Q 50 49.953125 52 44.1875 
z
" id="DejaVuSans-109"/>
      <path d="M 56.203125 29.59375 
L 56.203125 25.203125 
L 14.890625 25.203125 
Q 15.484375 15.921875 20.484375 11.0625 
Q 25.484375 6.203125 34.421875 6.203125 
Q 39.59375 6.203125 44.453125 7.46875 
Q 49.3125 8.734375 54.109375 11.28125 
L 54.109375 2.78125 
Q 49.265625 0.734375 44.1875 -0.34375 
Q 39.109375 -1.421875 33.890625 -1.421875 
Q 20.796875 -1.421875 13.15625 6.1875 
Q 5.515625 13.8125 5.515625 26.8125 
Q 5.515625 40.234375 12.765625 48.109375 
Q 20.015625 56 32.328125 56 
Q 43.359375 56 49.78125 48.890625 
Q 56.203125 41.796875 56.203125 29.59375 
z
M 47.21875 32.234375 
Q 47.125 39.59375 43.09375 43.984375 
Q 39.0625 48.390625 32.421875 48.390625 
Q 24.90625 48.390625 20.390625 44.140625 
Q 15.875 39.890625 15.1875 32.171875 
z
" id="DejaVuSans-101"/>
      <path id="DejaVuSans-32"/>
      <path d="M 8.59375 75.984375 
L 29.296875 75.984375 
L 29.296875 69 
L 17.578125 69 
L 17.578125 -6.203125 
L 29.296875 -6.203125 
L 29.296875 -13.1875 
L 8.59375 -13.1875 
z
" id="DejaVuSans-91"/>
      <path d="M 44.28125 53.078125 
L 44.28125 44.578125 
Q 40.484375 46.53125 36.375 47.5 
Q 32.28125 48.484375 27.875 48.484375 
Q 21.1875 48.484375 17.84375 46.4375 
Q 14.5 44.390625 14.5 40.28125 
Q 14.5 37.15625 16.890625 35.375 
Q 19.28125 33.59375 26.515625 31.984375 
L 29.59375 31.296875 
Q 39.15625 29.25 43.1875 25.515625 
Q 47.21875 21.78125 47.21875 15.09375 
Q 47.21875 7.46875 41.1875 3.015625 
Q 35.15625 -1.421875 24.609375 -1.421875 
Q 20.21875 -1.421875 15.453125 -0.5625 
Q 10.6875 0.296875 5.421875 2 
L 5.421875 11.28125 
Q 10.40625 8.6875 15.234375 7.390625 
Q 20.0625 6.109375 24.8125 6.109375 
Q 31.15625 6.109375 34.5625 8.28125 
Q 37.984375 10.453125 37.984375 14.40625 
Q 37.984375 18.0625 35.515625 20.015625 
Q 33.0625 21.96875 24.703125 23.78125 
L 21.578125 24.515625 
Q 13.234375 26.265625 9.515625 29.90625 
Q 5.8125 33.546875 5.8125 39.890625 
Q 5.8125 47.609375 11.28125 51.796875 
Q 16.75 56 26.8125 56 
Q 31.78125 56 36.171875 55.265625 
Q 40.578125 54.546875 44.28125 53.078125 
z
" id="DejaVuSans-115"/>
      <path d="M 30.421875 75.984375 
L 30.421875 -13.1875 
L 9.71875 -13.1875 
L 9.71875 -6.203125 
L 21.390625 -6.203125 
L 21.390625 69 
L 9.71875 69 
L 9.71875 75.984375 
z
" id="DejaVuSans-93"/>
     </defs>
     <g transform="translate(234.038281 412.756563)scale(0.1 -0.1)">
      <use xlink:href="#DejaVuSans-116"/>
      <use x="39.208984" xlink:href="#DejaVuSans-105"/>
      <use x="66.992188" xlink:href="#DejaVuSans-109"/>
      <use x="164.404297" xlink:href="#DejaVuSans-101"/>
      <use x="225.927734" xlink:href="#DejaVuSans-32"/>
      <use x="257.714844" xlink:href="#DejaVuSans-91"/>
      <use x="296.728516" xlink:href="#DejaVuSans-109"/>
      <use x="394.140625" xlink:href="#DejaVuSans-115"/>
      <use x="446.240234" xlink:href="#DejaVuSans-93"/>
     </g>
    </g>
   </g>
   <g id="matplotlib.axis_2">
    <g id="ytick_1">
     <g id="line2d_6">
      <defs>
       <path d="M 0 0 
L -3.5 0 
" id="mebd0fb420d" style="stroke:#000000;stroke-width:0.8;"/>
      </defs>
      <g>
       <use style="stroke:#000000;stroke-width:0.8;" x="63" xlink:href="#mebd0fb420d" y="343.815596"/>
      </g>
     </g>
     <g id="text_7">
      <!-- −100 -->
      <defs>
       <path d="M 10.59375 35.5 
L 73.1875 35.5 
L 73.1875 27.203125 
L 10.59375 27.203125 
z
" id="DejaVuSans-8722"/>
      </defs>
      <g transform="translate(28.532812 347.614815)scale(0.1 -0.1)">
       <use xlink:href="#DejaVuSans-8722"/>
       <use x="83.789062" xlink:href="#DejaVuSans-49"/>
       <use x="147.412109" xlink:href="#DejaVuSans-48"/>
       <use x="211.035156" xlink:href="#DejaVuSans-48"/>
      </g>
     </g>
    </g>
    <g id="ytick_2">
     <g id="line2d_7">
      <g>
       <use style="stroke:#000000;stroke-width:0.8;" x="63" xlink:href="#mebd0fb420d" y="299.282117"/>
      </g>
     </g>
     <g id="text_8">
      <!-- −75 -->
      <g transform="translate(34.895313 303.081335)scale(0.1 -0.1)">
       <use xlink:href="#DejaVuSans-8722"/>
       <use x="83.789062" xlink:href="#DejaVuSans-55"/>
       <use x="147.412109" xlink:href="#DejaVuSans-53"/>
      </g>
     </g>
    </g>
    <g id="ytick_3">
     <g id="line2d_8">
      <g>
       <use style="stroke:#000000;stroke-width:0.8;" x="63" xlink:href="#mebd0fb420d" y="254.748637"/>
      </g>
     </g>
     <g id="text_9">
      <!-- −50 -->
      <g transform="translate(34.895313 258.547856)scale(0.1 -0.1)">
       <use xlink:href="#DejaVuSans-8722"/>
       <use x="83.789062" xlink:href="#DejaVuSans-53"/>
       <use x="147.412109" xlink:href="#DejaVuSans-48"/>
      </g>
     </g>
    </g>
    <g id="ytick_4">
     <g id="line2d_9">
      <g>
       <use style="stroke:#000000;stroke-width:0.8;" x="63" xlink:href="#mebd0fb420d" y="210.215158"/>
      </g>
     </g>
     <g id="text_10">
      <!-- −25 -->
      <g transform="translate(34.895313 214.014376)scale(0.1 -0.1)">
       <use xlink:href="#DejaVuSans-8722"/>
       <use x="83.789062" xlink:href="#DejaVuSans-50"/>
       <use x="147.412109" xlink:href="#DejaVuSans-53"/>
      </g>
     </g>
    </g>
    <g id="ytick_5">
     <g id="line2d_10">
      <g>
       <use style="stroke:#000000;stroke-width:0.8;" x="63" xlink:href="#mebd0fb420d" y="165.681678"/>
      </g>
     </g>
     <g id="text_11">
      <!-- 0 -->
      <g transform="translate(49.6375 169.480897)scale(0.1 -0.1)">
       <use xlink:href="#DejaVuSans-48"/>
      </g>
     </g>
    </g>
    <g id="ytick_6">
     <g id="line2d_11">
      <g>
       <use style="stroke:#000000;stroke-width:0.8;" x="63" xlink:href="#mebd0fb420d" y="121.148199"/>
      </g>
     </g>
     <g id="text_12">
      <!-- 25 -->
      <g transform="translate(43.275 124.947417)scale(0.1 -0.1)">
       <use xlink:href="#DejaVuSans-50"/>
       <use x="63.623047" xlink:href="#DejaVuSans-53"/>
      </g>
     </g>
    </g>
    <g id="ytick_7">
     <g id="line2d_12">
      <g>
       <use style="stroke:#000000;stroke-width:0.8;" x="63" xlink:href="#mebd0fb420d" y="76.614719"/>
      </g>
     </g>
     <g id="text_13">
      <!-- 50 -->
      <g transform="translate(43.275 80.413938)scale(0.1 -0.1)">
       <use xlink:href="#DejaVuSans-53"/>
       <use x="63.623047" xlink:href="#DejaVuSans-48"/>
      </g>
     </g>
    </g>
    <g id="text_14">
     <!-- voltage [mV] -->
     <defs>
      <path d="M 2.984375 54.6875 
L 12.5 54.6875 
L 29.59375 8.796875 
L 46.6875 54.6875 
L 56.203125 54.6875 
L 35.6875 0 
L 23.484375 0 
z
" id="DejaVuSans-118"/>
      <path d="M 30.609375 48.390625 
Q 23.390625 48.390625 19.1875 42.75 
Q 14.984375 37.109375 14.984375 27.296875 
Q 14.984375 17.484375 19.15625 11.84375 
Q 23.34375 6.203125 30.609375 6.203125 
Q 37.796875 6.203125 41.984375 11.859375 
Q 46.1875 17.53125 46.1875 27.296875 
Q 46.1875 37.015625 41.984375 42.703125 
Q 37.796875 48.390625 30.609375 48.390625 
z
M 30.609375 56 
Q 42.328125 56 49.015625 48.375 
Q 55.71875 40.765625 55.71875 27.296875 
Q 55.71875 13.875 49.015625 6.21875 
Q 42.328125 -1.421875 30.609375 -1.421875 
Q 18.84375 -1.421875 12.171875 6.21875 
Q 5.515625 13.875 5.515625 27.296875 
Q 5.515625 40.765625 12.171875 48.375 
Q 18.84375 56 30.609375 56 
z
" id="DejaVuSans-111"/>
      <path d="M 9.421875 75.984375 
L 18.40625 75.984375 
L 18.40625 0 
L 9.421875 0 
z
" id="DejaVuSans-108"/>
      <path d="M 34.28125 27.484375 
Q 23.390625 27.484375 19.1875 25 
Q 14.984375 22.515625 14.984375 16.5 
Q 14.984375 11.71875 18.140625 8.90625 
Q 21.296875 6.109375 26.703125 6.109375 
Q 34.1875 6.109375 38.703125 11.40625 
Q 43.21875 16.703125 43.21875 25.484375 
L 43.21875 27.484375 
z
M 52.203125 31.203125 
L 52.203125 0 
L 43.21875 0 
L 43.21875 8.296875 
Q 40.140625 3.328125 35.546875 0.953125 
Q 30.953125 -1.421875 24.3125 -1.421875 
Q 15.921875 -1.421875 10.953125 3.296875 
Q 6 8.015625 6 15.921875 
Q 6 25.140625 12.171875 29.828125 
Q 18.359375 34.515625 30.609375 34.515625 
L 43.21875 34.515625 
L 43.21875 35.40625 
Q 43.21875 41.609375 39.140625 45 
Q 35.0625 48.390625 27.6875 48.390625 
Q 23 48.390625 18.546875 47.265625 
Q 14.109375 46.140625 10.015625 43.890625 
L 10.015625 52.203125 
Q 14.9375 54.109375 19.578125 55.046875 
Q 24.21875 56 28.609375 56 
Q 40.484375 56 46.34375 49.84375 
Q 52.203125 43.703125 52.203125 31.203125 
z
" id="DejaVuSans-97"/>
      <path d="M 45.40625 27.984375 
Q 45.40625 37.75 41.375 43.109375 
Q 37.359375 48.484375 30.078125 48.484375 
Q 22.859375 48.484375 18.828125 43.109375 
Q 14.796875 37.75 14.796875 27.984375 
Q 14.796875 18.265625 18.828125 12.890625 
Q 22.859375 7.515625 30.078125 7.515625 
Q 37.359375 7.515625 41.375 12.890625 
Q 45.40625 18.265625 45.40625 27.984375 
z
M 54.390625 6.78125 
Q 54.390625 -7.171875 48.1875 -13.984375 
Q 42 -20.796875 29.203125 -20.796875 
Q 24.46875 -20.796875 20.265625 -20.09375 
Q 16.0625 -19.390625 12.109375 -17.921875 
L 12.109375 -9.1875 
Q 16.0625 -11.328125 19.921875 -12.34375 
Q 23.78125 -13.375 27.78125 -13.375 
Q 36.625 -13.375 41.015625 -8.765625 
Q 45.40625 -4.15625 45.40625 5.171875 
L 45.40625 9.625 
Q 42.625 4.78125 38.28125 2.390625 
Q 33.9375 0 27.875 0 
Q 17.828125 0 11.671875 7.65625 
Q 5.515625 15.328125 5.515625 27.984375 
Q 5.515625 40.671875 11.671875 48.328125 
Q 17.828125 56 27.875 56 
Q 33.9375 56 38.28125 53.609375 
Q 42.625 51.21875 45.40625 46.390625 
L 45.40625 54.6875 
L 54.390625 54.6875 
z
" id="DejaVuSans-103"/>
      <path d="M 28.609375 0 
L 0.78125 72.90625 
L 11.078125 72.90625 
L 34.1875 11.53125 
L 57.328125 72.90625 
L 67.578125 72.90625 
L 39.796875 0 
z
" id="DejaVuSans-86"/>
     </defs>
     <g transform="translate(22.453125 250.624062)rotate(-90)scale(0.1 -0.1)">
      <use xlink:href="#DejaVuSans-118"/>
      <use x="59.179688" xlink:href="#DejaVuSans-111"/>
      <use x="120.361328" xlink:href="#DejaVuSans-108"/>
      <use x="148.144531" xlink:href="#DejaVuSans-116"/>
      <use x="187.353516" xlink:href="#DejaVuSans-97"/>
      <use x="248.632812" xlink:href="#DejaVuSans-103"/>
      <use x="312.109375" xlink:href="#DejaVuSans-101"/>
      <use x="373.632812" xlink:href="#DejaVuSans-32"/>
      <use x="405.419922" xlink:href="#DejaVuSans-91"/>
      <use x="444.433594" xlink:href="#DejaVuSans-109"/>
      <use x="541.845703" xlink:href="#DejaVuSans-86"/>
      <use x="610.253906" xlink:href="#DejaVuSans-93"/>
     </g>
    </g>
   </g>
   <g id="line2d_13">
    <path clip-path="url(#pf89ce2d951)" d="M 80.754545 269.883062 
L 83.385088 269.796082 
L 83.417364 269.709103 
L 83.465779 269.883062 
L 83.498056 269.796082 
L 83.514194 269.883062 
L 83.594885 269.796082 
L 83.723992 269.709103 
L 84.547045 269.796082 
L 84.676151 269.883062 
L 84.96664 269.796082 
L 85.095747 269.709103 
L 85.176438 269.796082 
L 85.208715 269.709103 
L 85.337821 269.796082 
L 85.35396 269.883062 
L 85.402374 269.709103 
L 85.434651 269.709103 
L 86.322257 269.796082 
L 86.451364 269.883062 
L 87.419661 269.970041 
L 87.532629 270.057021 
L 87.581044 269.970041 
L 87.645598 270.057021 
L 88.694587 270.144 
L 88.807555 270.23098 
L 88.85597 270.144 
L 89.049629 260.228343 
L 89.501501 250.921541 
L 90.356831 238.831397 
L 91.196022 230.916267 
L 91.470373 228.82876 
L 91.777001 226.654274 
L 92.551639 223.088117 
L 92.583916 223.001137 
L 92.793714 222.47926 
L 92.82599 222.392281 
L 93.11648 221.435507 
L 93.310139 221.348528 
L 93.503799 220.91363 
L 93.552214 220.826651 
L 93.745873 220.391754 
L 93.858841 220.304774 
L 94.020224 220.043836 
L 94.213884 219.956856 
L 94.391405 219.608939 
L 95.843851 219.521959 
L 95.989096 219.174041 
L 96.005234 219.261021 
L 96.118202 219.174041 
L 96.247309 219.087062 
L 96.553936 219.000082 
L 96.683043 218.913103 
L 96.892841 219.43498 
L 96.957394 219.521959 
L 97.167192 220.043836 
L 97.393128 219.956856 
L 97.425404 219.869877 
L 97.506096 219.956856 
L 97.845 219.869877 
L 97.990245 219.695918 
L 98.006383 219.782897 
L 98.03866 219.608939 
L 98.103213 219.695918 
L 98.264596 219.782897 
L 98.296872 219.869877 
L 98.361426 219.695918 
L 98.50667 219.782897 
L 98.538947 219.869877 
L 98.571223 219.695918 
L 98.619638 219.782897 
L 99.119925 219.695918 
L 99.26517 219.521959 
L 99.959117 219.43498 
L 100.055947 219.348 
L 100.072085 219.43498 
L 100.1205 219.521959 
L 100.362574 221.00061 
L 100.604649 221.696445 
L 100.653063 221.783425 
L 100.733755 221.870404 
L 100.766031 221.783425 
L 100.943553 221.696445 
L 101.056521 221.435507 
L 101.088797 221.522486 
L 101.217904 221.435507 
L 101.395425 221.087589 
L 101.427702 221.174569 
L 101.508393 221.087589 
L 101.556808 221.00061 
L 101.702053 220.826651 
L 101.831159 220.739671 
L 101.960265 220.652692 
L 102.040957 220.739671 
L 102.073233 220.652692 
L 102.153925 220.565712 
L 102.331446 220.217795 
L 102.347584 220.304774 
L 102.379861 220.130815 
L 102.428276 220.217795 
L 102.589659 219.956856 
L 102.718765 220.043836 
L 102.993116 219.956856 
L 103.057669 219.695918 
L 103.122223 219.869877 
L 103.235191 219.956856 
L 103.251329 220.043836 
L 103.33202 219.869877 
L 103.348159 219.956856 
L 103.461127 219.782897 
L 103.477265 219.869877 
L 103.687063 219.782897 
L 103.816169 219.695918 
L 104.09052 219.608939 
L 104.18735 219.521959 
L 104.203488 219.608939 
L 104.38101 219.521959 
L 104.526254 219.174041 
L 104.542393 219.261021 
L 104.639222 219.174041 
L 104.687637 219.087062 
L 104.75219 219.174041 
L 104.897435 219.087062 
L 105.026541 219.000082 
L 105.236339 219.087062 
L 105.317031 219.174041 
L 105.349307 219.087062 
L 106.107807 219.000082 
L 106.123945 218.913103 
L 106.17236 219.087062 
L 106.220775 219.000082 
L 106.882445 219.087062 
L 107.011552 219.174041 
L 107.705498 219.087062 
L 107.737775 219.000082 
L 107.78619 219.174041 
L 107.802328 219.174041 
L 108.383307 219.087062 
L 108.528551 218.913103 
L 108.576966 218.826123 
L 108.706073 218.739144 
L 109.254775 218.652165 
L 109.335466 218.565185 
L 109.367743 218.652165 
L 109.690509 218.565185 
L 109.819615 218.391226 
L 109.916445 218.478206 
L 109.932583 218.391226 
L 110.416732 218.478206 
L 110.561977 218.652165 
L 110.691083 218.565185 
L 111.368891 218.652165 
L 111.530274 218.913103 
L 112.256498 219.000082 
L 112.321051 218.913103 
L 112.385604 219.087062 
L 112.821338 219.174041 
L 112.837476 219.261021 
L 112.869753 219.087062 
L 112.934306 219.174041 
L 113.17638 219.261021 
L 113.337763 219.521959 
L 113.434593 219.608939 
L 113.579838 219.782897 
L 113.789636 219.695918 
L 113.870327 219.608939 
L 113.902604 219.695918 
L 114.160817 219.782897 
L 114.257646 219.869877 
L 114.273785 219.782897 
L 114.386753 219.608939 
L 114.402891 219.695918 
L 114.483582 219.608939 
L 114.580412 219.43498 
L 114.612689 219.521959 
L 114.806348 219.43498 
L 114.935455 219.348 
L 115.35505 219.261021 
L 115.484157 219.174041 
L 115.532572 219.261021 
L 115.580986 219.174041 
L 115.710093 219.087062 
L 115.839199 219.000082 
L 115.984444 218.826123 
L 116.21038 218.739144 
L 116.339486 218.652165 
L 116.484731 218.565185 
L 116.629976 218.391226 
L 116.710667 218.304247 
L 116.742944 218.217267 
L 116.823635 218.304247 
L 117.017295 218.391226 
L 117.033433 218.478206 
L 117.130263 218.391226 
L 117.259369 218.478206 
L 117.501444 219.174041 
L 117.549858 219.261021 
L 117.743518 219.695918 
L 117.921039 219.782897 
L 118.050146 219.869877 
L 118.647263 219.782897 
L 118.776369 219.695918 
L 119.05072 219.608939 
L 119.131411 219.521959 
L 119.163688 219.608939 
L 119.518731 219.521959 
L 119.663975 219.348 
L 119.80922 219.261021 
L 119.938326 219.174041 
L 120.002879 219.261021 
L 120.051294 219.174041 
L 120.228815 218.826123 
L 120.438613 218.739144 
L 120.56772 218.652165 
L 120.664549 218.565185 
L 120.696826 218.478206 
L 120.745241 218.652165 
L 120.761379 218.652165 
L 120.858209 218.739144 
L 120.874347 218.652165 
L 121.116422 218.739144 
L 121.261666 218.913103 
L 121.471464 218.826123 
L 121.616709 218.652165 
L 121.778092 218.565185 
L 121.939475 218.304247 
L 122.116996 218.217267 
L 122.246102 218.130288 
L 122.407485 218.391226 
L 122.423624 218.304247 
L 122.520453 218.391226 
L 122.697975 218.304247 
L 122.810943 218.130288 
L 122.827081 218.217267 
L 123.133709 218.304247 
L 123.278953 218.478206 
L 123.553304 218.565185 
L 123.682411 218.739144 
L 123.843794 218.478206 
L 123.924485 218.565185 
L 123.940623 218.652165 
L 124.005177 218.478206 
L 124.021315 218.478206 
L 124.360219 218.391226 
L 124.489325 218.304247 
L 124.682985 218.391226 
L 124.844368 218.652165 
L 125.280102 218.739144 
L 125.360793 218.913103 
L 125.39307 218.826123 
L 125.522176 218.739144 
L 125.764251 218.652165 
L 125.780389 218.565185 
L 125.877219 218.652165 
L 126.038602 218.565185 
L 126.167708 218.478206 
L 126.329091 218.391226 
L 126.458197 218.304247 
L 126.587304 218.391226 
L 126.651857 218.478206 
L 126.700272 218.391226 
L 127.136006 218.304247 
L 127.152144 218.217267 
L 127.232836 218.304247 
L 127.248974 218.391226 
L 127.297389 218.217267 
L 127.329665 218.217267 
L 127.394219 218.304247 
L 127.442633 218.478206 
L 127.507187 218.391226 
L 127.636293 218.304247 
L 127.765399 218.391226 
L 127.975197 218.304247 
L 128.120442 218.130288 
L 128.217272 218.043308 
L 128.346378 217.956329 
L 128.410931 217.869349 
L 128.540038 217.78237 
L 129.08874 217.695391 
L 129.137154 217.608411 
L 129.201708 217.695391 
L 129.605165 217.78237 
L 129.734271 217.869349 
L 129.831101 217.78237 
L 130.024761 217.347473 
L 130.137729 217.260493 
L 130.282973 217.086534 
L 130.525048 216.999555 
L 130.541186 216.912576 
L 130.589601 217.086534 
L 130.621878 216.999555 
L 130.670292 217.086534 
L 130.734846 216.999555 
L 131.07375 216.912576 
L 131.218995 216.738617 
L 132.477782 216.825596 
L 132.606888 216.912576 
L 132.768271 216.825596 
L 132.816686 216.738617 
L 132.881239 216.825596 
L 133.268558 216.912576 
L 133.397664 216.999555 
L 133.413803 216.999555 
L 133.559047 217.434452 
L 133.591324 217.347473 
L 133.639739 217.608411 
L 133.655877 217.521432 
L 133.768845 217.608411 
L 133.962505 218.043308 
L 133.994781 218.130288 
L 134.156164 218.478206 
L 134.285271 218.391226 
L 134.430515 218.478206 
L 134.559622 218.652165 
L 134.688728 218.565185 
L 134.979217 218.478206 
L 135.108324 218.391226 
L 135.33426 218.304247 
L 135.414951 218.130288 
L 135.463366 218.217267 
L 135.818409 218.130288 
L 135.834547 218.043308 
L 135.866824 218.217267 
L 135.931377 218.130288 
L 136.044345 218.043308 
L 136.060483 217.956329 
L 136.157313 218.043308 
L 136.883536 217.956329 
L 137.061057 217.608411 
L 137.174025 217.521432 
L 137.206302 217.434452 
L 137.238579 217.608411 
L 137.270855 217.608411 
L 137.367685 217.521432 
L 137.432238 217.347473 
L 137.480653 217.521432 
L 137.690451 217.434452 
L 137.835696 217.260493 
L 137.98094 217.434452 
L 138.110047 217.347473 
L 138.206876 217.086534 
L 138.255291 217.173514 
L 138.707163 217.086534 
L 138.83627 216.999555 
L 138.900823 217.086534 
L 138.949238 216.999555 
L 139.126759 217.086534 
L 139.255866 217.173514 
L 139.30428 217.086534 
L 139.368834 217.173514 
L 139.772291 217.086534 
L 139.901397 216.912576 
L 139.998227 216.999555 
L 140.014365 216.912576 
L 140.756727 216.825596 
L 140.91811 216.564658 
L 141.047216 216.477678 
L 141.127908 216.390699 
L 141.160184 216.477678 
L 141.434535 217.347473 
L 141.902546 217.260493 
L 142.031652 217.173514 
L 142.14462 217.086534 
L 142.273727 216.999555 
L 142.386695 217.086534 
L 142.515801 216.999555 
L 142.80629 216.912576 
L 142.951535 216.738617 
L 144.339429 216.825596 
L 144.468535 217.173514 
L 144.484673 217.086534 
L 144.581503 216.999555 
L 144.597641 217.086534 
L 144.678333 217.173514 
L 144.823577 217.347473 
L 145.340003 217.260493 
L 145.485247 217.086534 
L 145.64663 216.999555 
L 145.775737 216.912576 
L 146.308301 216.825596 
L 146.388992 216.651637 
L 146.437407 216.738617 
L 147.244322 216.825596 
L 147.26046 216.912576 
L 147.35729 216.825596 
L 147.550949 216.738617 
L 147.680056 216.651637 
L 147.809162 216.738617 
L 147.938268 216.651637 
L 147.970545 216.564658 
L 148.051236 216.651637 
L 148.180343 216.738617 
L 148.325587 216.912576 
L 148.374002 216.825596 
L 148.503109 216.738617 
L 148.632215 216.825596 
L 148.858151 216.738617 
L 148.890428 216.564658 
L 148.987258 216.651637 
L 149.100226 216.738617 
L 149.116364 216.825596 
L 149.164779 216.651637 
L 149.213194 216.738617 
L 149.358438 216.564658 
L 149.697343 216.651637 
L 149.826449 216.738617 
L 149.971694 216.738617 
L 150.00397 216.564658 
L 150.084662 216.651637 
L 150.407427 216.738617 
L 150.601087 217.260493 
L 150.76247 216.999555 
L 151.085236 217.086534 
L 151.149789 217.173514 
L 151.198204 217.086534 
L 151.32731 216.999555 
L 151.343449 217.086534 
L 151.375725 216.912576 
L 151.440278 216.999555 
L 151.811459 216.912576 
L 151.843736 216.825596 
L 151.924427 216.912576 
L 152.424714 216.825596 
L 152.586097 216.564658 
L 152.908863 216.477678 
L 152.94114 216.390699 
L 153.005693 216.564658 
L 153.054108 216.477678 
L 153.070246 216.390699 
L 153.150938 216.564658 
L 153.328459 216.477678 
L 153.360736 216.390699 
L 153.40915 216.477678 
L 153.60281 226.393336 
L 154.054682 235.613158 
L 154.425863 241.266822 
L 154.861597 246.659548 
L 154.990703 247.96424 
L 155.265054 250.660603 
L 155.765342 254.922596 
L 155.991278 256.749165 
L 156.314044 259.09761 
L 156.927299 263.011685 
L 157.137097 264.142418 
L 158.460437 270.665877 
L 158.492713 270.752856 
L 158.815479 271.883589 
L 158.847756 271.970569 
L 159.154383 273.014322 
L 159.18666 273.101302 
L 159.428735 273.797137 
L 159.461011 273.884117 
L 159.735362 274.753911 
L 159.816054 274.840891 
L 160.025851 275.362767 
L 160.058128 275.449747 
L 160.284064 276.058603 
L 160.348617 276.145582 
L 160.542277 276.58048 
L 160.60683 276.667459 
L 160.80049 277.189336 
L 160.816628 277.102356 
L 160.865043 277.276315 
L 160.897319 277.276315 
L 160.978011 277.363295 
L 161.139394 277.624233 
L 161.300777 277.711213 
L 161.478298 278.05913 
L 161.526713 277.972151 
L 161.591266 278.05913 
L 161.752649 278.320069 
L 161.897894 278.407048 
L 162.043138 278.581007 
L 162.091553 278.667987 
L 162.236798 278.841945 
L 162.285213 278.928925 
L 162.317489 279.015904 
L 162.398181 278.928925 
L 162.462734 279.015904 
L 162.607979 279.189863 
L 162.995298 279.276843 
L 163.124404 279.363822 
L 163.318064 279.450802 
L 163.431032 279.62476 
L 163.44717 279.537781 
L 163.527861 279.62476 
L 163.656968 279.71174 
L 163.931319 279.798719 
L 164.060425 279.885699 
L 164.544574 279.798719 
L 164.625266 279.71174 
L 164.657542 279.798719 
L 165.997021 279.71174 
L 166.126127 279.537781 
L 166.206818 279.62476 
L 166.239095 279.537781 
L 166.432755 279.450802 
L 166.577999 279.276843 
L 166.900765 279.189863 
L 167.029872 279.102884 
L 167.304223 279.015904 
L 167.465606 278.754966 
L 167.659265 278.667987 
L 167.788371 278.581007 
L 168.014308 278.494028 
L 168.175691 278.233089 
L 168.191829 278.320069 
L 168.288659 278.233089 
L 168.450042 278.14611 
L 168.56301 278.05913 
L 168.579148 278.14611 
L 168.627563 277.972151 
L 168.659839 277.972151 
L 168.837361 277.885171 
L 168.853499 277.798192 
L 168.885775 277.972151 
L 168.950329 277.885171 
L 169.12785 277.798192 
L 169.273095 277.624233 
L 169.418339 277.537254 
L 169.499031 277.450274 
L 169.611999 270.665877 
L 169.708829 270.752856 
L 169.724967 270.839836 
L 169.821797 270.752856 
L 170.951477 270.839836 
L 170.967616 270.926815 
L 171.064445 270.839836 
L 171.790669 270.926815 
L 171.822945 271.013795 
L 171.903637 270.926815 
L 172.048881 270.752856 
L 172.177988 270.839836 
L 172.387786 270.752856 
L 172.516892 270.665877 
L 173.162424 270.578897 
L 173.307668 270.404939 
L 174.518041 270.491918 
L 174.647147 270.578897 
L 175.115157 270.665877 
L 175.147434 270.752856 
L 175.228126 270.665877 
L 175.389508 270.752856 
L 175.405647 270.839836 
L 175.502477 270.752856 
L 175.615445 270.839836 
L 175.712274 270.926815 
L 175.728413 270.839836 
L 175.954349 270.926815 
L 176.083455 271.013795 
L 176.099593 270.926815 
L 176.180285 271.100774 
L 176.196423 271.013795 
L 176.664434 270.926815 
L 176.79354 270.839836 
L 176.938785 270.752856 
L 177.019476 270.839836 
L 177.067891 270.665877 
L 177.213136 270.752856 
L 177.293827 270.839836 
L 177.326104 270.752856 
L 177.616593 270.752856 
L 177.810253 257.792918 
L 178.391231 242.571514 
L 179.149731 228.567822 
L 179.82754 219.348 
L 180.39238 214.390171 
L 180.924944 212.128706 
L 180.95722 212.041726 
L 181.15088 211.606829 
L 181.312263 211.519849 
L 181.522061 210.997973 
L 181.538199 210.997973 
L 181.683444 210.563075 
L 181.764135 210.476096 
L 181.90938 210.302137 
L 182.328975 210.215158 
L 182.522635 209.78026 
L 182.66788 209.693281 
L 182.861539 209.258384 
L 182.926092 209.345363 
L 182.974507 209.432343 
L 183.03906 209.345363 
L 183.103614 209.258384 
L 183.264997 208.997445 
L 183.313411 208.910466 
L 183.539348 208.30161 
L 183.620039 208.21463 
L 183.829837 207.692754 
L 183.89439 207.605774 
L 184.184879 206.649 
L 184.233294 206.73598 
L 184.297847 206.649 
L 184.539922 205.953165 
L 184.814273 205.866185 
L 184.927241 205.344308 
L 184.991794 205.518267 
L 185.072486 205.431288 
L 185.250007 204.822432 
L 185.282283 204.909411 
L 185.346837 204.822432 
L 185.669602 203.691699 
L 185.718017 203.604719 
L 186.411964 199.255747 
L 186.428102 198.73387 
L 186.444241 193.341144 
L 186.492656 75.136069 
L 186.573347 136.978459 
L 186.73473 207.257856 
L 186.944528 209.519322 
L 188.05807 220.478733 
L 188.074208 220.478733 
L 188.25173 221.261548 
L 188.477666 221.870404 
L 188.526081 221.957384 
L 188.752017 222.56624 
L 188.800432 222.653219 
L 188.961815 222.914158 
L 189.026368 222.827178 
L 189.058644 222.914158 
L 189.187751 223.001137 
L 189.720315 222.914158 
L 189.865559 222.740199 
L 190.091495 222.653219 
L 190.23674 222.47926 
L 190.285155 222.392281 
L 190.414261 222.218322 
L 190.4304 222.305302 
L 190.494953 222.131343 
L 190.511091 222.131343 
L 190.591783 222.044363 
L 190.720889 221.957384 
L 190.89841 221.870404 
L 191.027516 221.783425 
L 191.140485 221.696445 
L 191.301868 221.435507 
L 191.46325 221.348528 
L 191.640772 221.00061 
L 192.205612 220.91363 
L 192.366995 220.652692 
L 192.463825 220.565712 
L 192.625208 220.217795 
L 192.754314 220.304774 
L 192.835006 220.217795 
L 192.899559 220.130815 
L 192.947974 220.217795 
L 193.238463 220.130815 
L 193.383708 219.956856 
L 193.512814 219.869877 
L 193.658059 219.695918 
L 193.787165 219.782897 
L 193.964686 219.43498 
L 194.013101 219.521959 
L 194.061516 219.348 
L 194.448835 219.261021 
L 194.59408 219.087062 
L 194.723186 219.000082 
L 194.900707 218.652165 
L 194.981399 218.565185 
L 195.126643 218.391226 
L 195.271888 218.304247 
L 195.35258 218.130288 
L 195.400994 218.217267 
L 195.465548 218.130288 
L 195.610792 217.956329 
L 195.885143 217.869349 
L 196.01425 217.78237 
L 196.094941 217.695391 
L 196.256324 217.347473 
L 196.353154 217.434452 
L 196.369292 217.347473 
L 196.708196 217.260493 
L 196.837303 217.173514 
L 196.950271 217.260493 
L 196.982547 217.173514 
L 197.063239 217.260493 
L 197.14393 217.173514 
L 197.160069 217.086534 
L 197.224622 217.260493 
L 197.24076 217.260493 
L 197.402143 217.347473 
L 197.579664 217.869349 
L 197.595803 217.78237 
L 197.644218 217.869349 
L 197.821739 218.217267 
L 197.854015 218.130288 
L 197.934707 218.217267 
L 197.966983 218.304247 
L 198.112228 218.478206 
L 198.467271 218.391226 
L 198.483409 218.304247 
L 198.580239 218.391226 
L 198.644792 218.304247 
L 198.822313 217.956329 
L 199.032111 217.869349 
L 199.209632 217.521432 
L 199.241909 217.608411 
L 199.306462 217.434452 
L 199.500121 216.999555 
L 199.629228 217.086534 
L 199.790611 216.999555 
L 199.951994 216.738617 
L 200.032685 216.651637 
L 200.161792 216.564658 
L 200.532972 216.477678 
L 200.662079 216.21674 
L 200.678217 216.303719 
L 200.807323 216.21674 
L 200.968706 215.955802 
L 201.065536 215.868822 
L 201.226919 215.607884 
L 201.372164 215.520904 
L 201.50127 215.433925 
L 201.646515 215.346945 
L 201.807898 215.086007 
L 201.856313 215.172986 
L 201.985419 215.259966 
L 202.146802 214.999028 
L 202.275908 215.086007 
L 202.3566 214.999028 
L 202.517983 214.738089 
L 202.582536 214.65111 
L 202.727781 214.390171 
L 202.743919 214.477151 
L 202.776195 214.303192 
L 202.82461 214.303192 
L 203.034408 214.216212 
L 203.179653 214.042254 
L 203.550834 214.129233 
L 203.67994 214.216212 
L 203.77677 214.303192 
L 203.905876 214.390171 
L 204.632099 214.303192 
L 204.777344 214.129233 
L 204.858035 214.042254 
L 204.987142 213.955274 
L 205.116248 214.129233 
L 205.164663 214.042254 
L 205.19694 214.216212 
L 205.229216 214.129233 
L 205.358323 214.390171 
L 205.374461 214.303192 
L 206.052269 214.390171 
L 206.213652 214.65111 
L 206.455727 214.738089 
L 206.61711 214.999028 
L 206.762354 215.086007 
L 206.907599 215.259966 
L 207.343333 215.172986 
L 207.359471 215.086007 
L 207.456301 215.172986 
L 207.472439 215.259966 
L 207.569269 215.172986 
L 207.666099 215.259966 
L 207.682237 215.346945 
L 207.779067 215.259966 
L 208.021141 215.172986 
L 208.182524 214.912048 
L 208.230939 214.825069 
L 208.40846 214.477151 
L 208.60212 214.390171 
L 208.731226 214.303192 
L 208.989439 214.216212 
L 209.118545 214.129233 
L 209.215375 214.042254 
L 209.36062 213.868295 
L 209.538141 213.781315 
L 209.731801 213.346418 
L 210.038428 213.259439 
L 210.183673 213.08548 
L 210.232088 213.172459 
L 210.393471 213.433397 
L 211.055141 213.346418 
L 211.232662 212.9985 
L 211.297215 213.08548 
L 211.329492 212.9985 
L 211.474737 212.824541 
L 211.652258 212.737562 
L 211.749088 212.650582 
L 211.765226 212.737562 
L 211.813641 212.650582 
L 211.958885 212.476623 
L 212.023439 212.389644 
L 212.039577 212.302665 
L 212.087992 212.476623 
L 212.120268 212.476623 
L 212.217098 212.563603 
L 212.362343 212.737562 
L 212.410758 212.650582 
L 212.475311 212.476623 
L 212.523726 212.650582 
L 212.588279 212.563603 
L 212.636694 212.476623 
L 212.685109 212.563603 
L 212.86263 212.911521 
L 213.185396 212.824541 
L 213.217672 212.737562 
L 213.266087 212.911521 
L 213.282226 212.911521 
L 213.556577 212.824541 
L 213.653406 212.737562 
L 213.669545 212.824541 
L 213.814789 212.737562 
L 214.008449 212.302665 
L 214.056864 212.215685 
L 214.073002 212.128706 
L 214.169832 212.215685 
L 214.2828 212.128706 
L 214.411906 212.041726 
L 214.589427 211.954747 
L 214.734672 211.780788 
L 214.84764 211.867767 
L 214.879917 211.954747 
L 214.928332 211.780788 
L 214.94447 211.780788 
L 215.202683 211.693808 
L 215.331789 211.606829 
L 215.460895 211.693808 
L 215.751385 211.780788 
L 215.767523 211.867767 
L 215.864353 211.780788 
L 216.058012 211.345891 
L 216.138704 211.258911 
L 216.300087 210.910993 
L 216.380778 210.997973 
L 216.413055 210.910993 
L 216.542161 210.824014 
L 216.687406 210.650055 
L 216.92948 210.563075 
L 216.977895 210.476096 
L 217.02631 210.563075 
L 217.042448 210.650055 
L 217.139278 210.563075 
L 217.704118 210.650055 
L 217.833225 210.737034 
L 217.849363 210.650055 
L 217.946193 210.737034 
L 218.204406 210.737034 
L 218.34965 211.171932 
L 218.656278 211.084952 
L 218.785384 210.997973 
L 218.962905 211.084952 
L 219.027459 210.997973 
L 219.075874 211.171932 
L 219.20498 211.084952 
L 219.414778 211.171932 
L 219.576161 211.43287 
L 219.915065 211.519849 
L 220.157139 212.215685 
L 220.270107 212.302665 
L 220.350799 212.476623 
L 220.399214 212.389644 
L 220.496044 212.302665 
L 220.62515 212.215685 
L 220.818809 212.302665 
L 220.834948 212.389644 
L 220.931777 212.302665 
L 221.125437 212.215685 
L 221.254543 212.128706 
L 221.319097 212.041726 
L 221.464341 211.867767 
L 221.722554 211.780788 
L 221.867799 211.606829 
L 221.900075 211.606829 
L 222.029182 211.258911 
L 222.077596 211.171932 
L 222.158288 210.910993 
L 222.222841 210.997973 
L 222.739267 210.910993 
L 222.900649 210.650055 
L 223.013618 210.563075 
L 223.158862 210.302137 
L 223.175001 210.389117 
L 223.239554 210.215158 
L 223.255692 210.302137 
L 223.449352 209.86724 
L 223.626873 209.78026 
L 223.852809 209.171404 
L 223.981915 209.084425 
L 224.046468 208.910466 
L 224.094883 208.997445 
L 224.272405 209.345363 
L 224.320819 209.258384 
L 224.385373 209.171404 
L 224.433788 209.258384 
L 224.514479 209.432343 
L 224.562894 209.345363 
L 224.692 209.432343 
L 224.853383 209.693281 
L 225.127734 209.606302 
L 225.256841 209.519322 
L 225.289117 209.606302 
L 225.305255 209.693281 
L 225.35367 209.519322 
L 225.385947 209.519322 
L 225.54733 209.606302 
L 225.692575 209.78026 
L 225.740989 209.693281 
L 225.886234 209.519322 
L 226.063755 209.432343 
L 226.338106 208.562548 
L 226.547904 208.649528 
L 226.580181 208.736507 
L 226.628596 208.562548 
L 226.644734 208.562548 
L 226.725425 208.475569 
L 226.87067 208.30161 
L 226.886808 208.388589 
L 226.9675 208.21463 
L 226.983638 208.30161 
L 227.06433 208.388589 
L 227.096606 208.475569 
L 227.161159 208.30161 
L 227.403234 208.30161 
L 227.53234 207.953692 
L 227.661447 207.866712 
L 227.677585 207.779733 
L 227.758276 207.866712 
L 227.855106 208.040671 
L 227.887383 207.953692 
L 228.048766 207.866712 
L 228.097181 207.779733 
L 228.161734 207.866712 
L 228.419946 207.779733 
L 228.597468 207.431815 
L 228.823404 207.344836 
L 228.871819 207.170877 
L 228.936372 207.344836 
L 229.081617 207.257856 
L 229.259138 206.909938 
L 229.307553 206.822959 
L 229.468936 206.562021 
L 229.630319 206.649 
L 229.646457 206.73598 
L 229.71101 206.562021 
L 229.727148 206.562021 
L 230.082191 206.475041 
L 230.098329 206.388062 
L 230.162882 206.562021 
L 230.179021 206.562021 
L 230.905244 206.475041 
L 231.195733 205.518267 
L 231.22801 205.431288 
L 231.421669 204.996391 
L 231.453946 204.909411 
L 231.954233 202.821904 
L 231.970371 202.908884 
L 232.034925 202.647945 
L 232.164031 200.734397 
L 232.180169 197.516158 
L 232.244722 74.179295 
L 232.309276 131.933651 
L 232.470659 206.301082 
L 232.535212 206.996918 
L 232.599765 206.822959 
L 232.74501 206.562021 
L 233.051637 208.823486 
L 233.551924 213.172459 
L 233.584201 213.259439 
L 233.826275 214.738089 
L 234.520222 217.869349 
L 234.584775 217.956329 
L 234.794573 218.478206 
L 234.842988 218.565185 
L 235.036647 219.000082 
L 235.101201 219.087062 
L 235.262584 219.348 
L 235.359413 219.43498 
L 235.520796 219.695918 
L 235.601488 219.782897 
L 235.746732 219.956856 
L 235.908115 220.043836 
L 236.037222 220.130815 
L 236.117913 220.217795 
L 236.263158 220.478733 
L 236.279296 220.391754 
L 236.359988 220.565712 
L 236.521371 220.826651 
L 236.876413 220.739671 
L 237.005519 220.565712 
L 237.070073 220.739671 
L 237.118488 220.652692 
L 237.247594 220.565712 
L 237.392839 220.478733 
L 237.538083 220.304774 
L 237.57036 220.391754 
L 237.634913 220.304774 
L 237.812434 219.956856 
L 237.860849 219.869877 
L 238.006094 219.695918 
L 238.167477 219.608939 
L 238.312721 219.43498 
L 238.474104 219.348 
L 238.619349 219.174041 
L 238.829147 219.087062 
L 238.974392 218.913103 
L 239.103498 218.826123 
L 239.264881 218.565185 
L 239.329434 218.478206 
L 239.490817 218.217267 
L 239.732891 218.130288 
L 239.861998 218.043308 
L 240.152487 217.956329 
L 240.281593 217.869349 
L 240.378423 217.956329 
L 240.394561 217.869349 
L 240.572083 217.78237 
L 240.701189 217.695391 
L 240.959402 217.608411 
L 241.104646 217.434452 
L 241.459689 217.347473 
L 241.604934 217.173514 
L 241.717902 217.086534 
L 241.879285 216.825596 
L 242.169774 216.825596 
L 242.363433 229.524596 
L 242.799167 240.04911 
L 243.234901 247.094445 
L 243.654497 252.226233 
L 243.783603 253.530925 
L 244.396859 259.01063 
L 244.638933 260.924178 
L 244.961699 263.272623 
L 246.494837 270.926815 
L 246.55939 271.013795 
L 246.946709 272.492445 
L 246.978986 272.579425 
L 247.237199 273.36224 
L 247.269475 273.449219 
L 247.527688 274.232034 
L 247.592241 274.319014 
L 247.834316 275.01485 
L 247.850454 275.01485 
L 247.995699 275.536726 
L 248.011837 275.449747 
L 248.060252 275.623706 
L 248.092528 275.623706 
L 248.302326 276.145582 
L 248.366879 276.232562 
L 248.576677 276.754439 
L 248.657369 276.841418 
L 248.83489 277.189336 
L 248.996273 277.276315 
L 249.173794 277.624233 
L 249.238347 277.711213 
L 249.383592 277.885171 
L 249.544975 277.972151 
L 249.706358 278.233089 
L 249.819326 278.320069 
L 249.980709 278.581007 
L 250.303475 278.667987 
L 250.416443 278.841945 
L 250.432581 278.754966 
L 250.513273 278.841945 
L 250.610102 279.015904 
L 250.642379 278.928925 
L 250.884453 279.015904 
L 251.01356 279.102884 
L 251.255634 279.189863 
L 251.271772 279.276843 
L 251.352464 279.102884 
L 251.497709 279.189863 
L 251.626815 279.276843 
L 252.43373 279.189863 
L 252.562836 279.015904 
L 252.691942 279.189863 
L 252.837187 279.015904 
L 252.934017 278.928925 
L 252.99857 278.841945 
L 253.046985 278.928925 
L 253.611825 278.841945 
L 253.75707 278.667987 
L 254.273495 278.581007 
L 254.41874 278.407048 
L 254.499431 278.494028 
L 254.531708 278.407048 
L 254.773783 278.320069 
L 254.789921 278.233089 
L 254.838336 278.407048 
L 254.886751 278.320069 
L 255.354761 278.233089 
L 255.483867 278.14611 
L 255.709804 278.05913 
L 255.83891 277.972151 
L 256.000293 277.885171 
L 256.129399 277.711213 
L 256.258506 277.798192 
L 256.387612 277.711213 
L 256.50058 277.624233 
L 256.645825 277.450274 
L 256.968591 277.363295 
L 257.097697 277.276315 
L 257.129974 277.189336 
L 257.275218 277.015377 
L 257.517293 276.928397 
L 257.646399 276.841418 
L 258.01758 276.754439 
L 258.146686 276.58048 
L 258.162824 276.667459 
L 258.259654 276.58048 
L 258.372622 271.535671 
L 259.647548 271.622651 
L 259.679824 271.70963 
L 259.760516 271.622651 
L 260.244665 271.535671 
L 260.276941 271.361713 
L 260.357633 271.535671 
L 261.42276 271.622651 
L 261.471175 271.70963 
L 261.51959 271.535671 
L 261.535728 271.622651 
L 262.616994 271.535671 
L 262.649271 271.448692 
L 262.729962 271.535671 
L 263.230249 271.622651 
L 263.359356 271.70963 
L 264.392206 271.79661 
L 264.521313 271.883589 
L 266.377217 271.883589 
L 266.570876 252.400192 
L 267.151855 229.524596 
L 268.265397 202.473986 
L 268.507472 199.603665 
L 268.846376 193.428123 
L 268.910929 73.831377 
L 268.991621 150.025377 
L 269.153004 207.083897 
L 269.18528 207.344836 
L 269.233695 206.996918 
L 269.395078 206.301082 
L 269.653291 207.083897 
L 269.75012 207.170877 
L 269.959918 207.692754 
L 270.072886 207.779733 
L 270.153578 207.953692 
L 270.201993 207.866712 
L 270.282684 207.953692 
L 270.395652 208.127651 
L 270.411791 208.040671 
L 270.573173 207.953692 
L 270.621588 207.866712 
L 270.653865 207.953692 
L 270.782971 208.21463 
L 270.79911 208.30161 
L 270.879801 208.21463 
L 271.025046 208.040671 
L 271.154152 208.127651 
L 271.218705 208.30161 
L 271.26712 208.21463 
L 271.428503 207.866712 
L 271.444641 207.953692 
L 271.525333 207.866712 
L 271.670578 207.692754 
L 271.735131 207.605774 
L 271.944929 207.083897 
L 272.02562 206.996918 
L 272.283833 206.127123 
L 272.299971 206.214103 
L 272.396801 206.127123 
L 272.445216 206.127123 
L 272.59046 205.692226 
L 272.832535 204.996391 
L 272.88095 204.909411 
L 273.139162 204.126596 
L 273.332822 204.213575 
L 273.510343 204.561493 
L 273.558758 204.648473 
L 273.704003 204.822432 
L 273.800833 204.909411 
L 273.865386 204.996391 
L 273.897662 204.822432 
L 273.913801 204.909411 
L 274.059045 204.474514 
L 274.220428 204.213575 
L 274.268843 204.126596 
L 274.543194 202.995863 
L 274.575471 203.082843 
L 274.86596 202.995863 
L 274.946651 202.821904 
L 274.96279 202.908884 
L 275.043481 202.995863 
L 275.075758 202.908884 
L 275.172588 202.821904 
L 275.366247 202.387007 
L 275.495354 202.300028 
L 275.753566 201.343254 
L 275.769705 201.430233 
L 275.834258 201.343254 
L 276.076332 200.647418 
L 276.140885 200.821377 
L 276.173162 200.647418 
L 276.544343 199.168767 
L 276.560481 199.255747 
L 276.608896 198.907829 
L 276.689587 198.820849 
L 277.060768 196.211466 
L 277.286704 192.993226 
L 277.351257 71.135014 
L 277.431949 137.065438 
L 277.593332 203.865658 
L 277.754715 205.170349 
L 278.255002 208.475569 
L 278.480938 209.78026 
L 278.868257 211.43287 
L 278.884396 211.345891 
L 278.916672 211.43287 
L 279.094193 211.780788 
L 279.158747 211.867767 
L 279.336268 212.215685 
L 279.69131 212.128706 
L 279.852693 211.867767 
L 280.014076 211.780788 
L 280.240012 211.171932 
L 280.54664 211.084952 
L 280.675746 210.997973 
L 280.804853 210.910993 
L 280.820991 210.824014 
L 280.885544 210.997973 
L 280.917821 210.910993 
L 281.079204 210.824014 
L 281.20831 210.737034 
L 281.563353 210.650055 
L 281.708597 210.389117 
L 281.837704 210.476096 
L 282.031363 210.389117 
L 282.160469 210.302137 
L 282.225023 210.389117 
L 282.257299 210.215158 
L 282.273438 210.302137 
L 282.418682 210.128178 
L 282.483235 210.041199 
L 282.644618 209.78026 
L 282.693033 209.86724 
L 282.773725 209.954219 
L 282.806001 209.86724 
L 282.951246 209.78026 
L 283.128767 209.432343 
L 283.499948 209.345363 
L 283.645193 209.171404 
L 283.903405 209.084425 
L 284.097065 208.649528 
L 284.161618 208.562548 
L 284.306863 208.21463 
L 284.323001 208.30161 
L 284.371416 208.21463 
L 284.548937 207.866712 
L 284.597352 207.779733 
L 284.758735 207.344836 
L 284.774873 207.431815 
L 284.871703 207.344836 
L 285.033086 207.083897 
L 285.065363 206.996918 
L 285.27516 206.475041 
L 285.307437 206.388062 
L 285.452682 206.214103 
L 285.484958 206.127123 
L 285.662479 205.692226 
L 285.678618 205.779206 
L 285.743171 205.605247 
L 285.759309 205.605247 
L 285.823862 205.518267 
L 286.001384 205.170349 
L 286.082075 205.257329 
L 286.114352 205.170349 
L 286.146628 205.08337 
L 286.308011 204.735452 
L 286.453256 204.909411 
L 286.517809 204.822432 
L 286.550086 204.735452 
L 286.614639 204.909411 
L 286.630777 204.822432 
L 286.969681 204.735452 
L 287.001958 204.648473 
L 287.082649 204.735452 
L 287.486107 204.648473 
L 287.631352 204.474514 
L 287.776596 204.387534 
L 288.083224 203.343781 
L 288.341436 203.256802 
L 288.486681 202.908884 
L 288.502819 202.995863 
L 288.535096 203.082843 
L 288.567373 203.169822 
L 288.631926 202.995863 
L 288.728756 202.908884 
L 288.954692 202.300028 
L 289.003107 202.387007 
L 289.16449 202.734925 
L 289.212904 202.647945 
L 289.261319 202.821904 
L 289.600224 202.734925 
L 289.745468 202.213048 
L 289.793883 202.126069 
L 289.922989 202.039089 
L 289.987543 201.95211 
L 290.342585 200.560439 
L 290.358723 200.647418 
L 290.391 200.473459 
L 290.455553 200.560439 
L 290.568521 200.38648 
L 290.58466 200.473459 
L 290.681489 200.38648 
L 290.859011 200.038562 
L 290.907425 199.951582 
L 291.068808 199.690644 
L 291.133362 199.603665 
L 291.375436 198.907829 
L 291.423851 198.820849 
L 292.053244 194.906774 
L 292.101659 191.862493 
L 292.166212 71.482932 
L 292.230766 124.540397 
L 292.408287 203.256802 
L 292.553532 203.952637 
L 292.634223 204.039617 
L 293.392723 207.518795 
L 293.424999 207.605774 
L 293.812319 209.084425 
L 293.876872 209.171404 
L 294.118946 209.86724 
L 294.248053 209.954219 
L 294.377159 210.128178 
L 294.506265 210.041199 
L 294.667648 210.128178 
L 294.829031 210.389117 
L 294.877446 210.476096 
L 295.006552 210.563075 
L 295.11952 210.650055 
L 295.21635 210.737034 
L 295.232489 210.650055 
L 295.490701 210.563075 
L 295.652084 210.302137 
L 295.700499 210.215158 
L 295.87802 209.86724 
L 295.990988 209.78026 
L 296.152371 209.519322 
L 296.216925 209.432343 
L 296.394446 209.084425 
L 296.555829 208.997445 
L 296.571967 208.910466 
L 296.652659 208.997445 
L 296.862456 209.519322 
L 297.29819 209.432343 
L 297.475712 209.084425 
L 297.669371 208.997445 
L 297.879169 208.475569 
L 297.911446 208.388589 
L 298.072828 208.127651 
L 298.121243 208.040671 
L 298.282626 207.779733 
L 298.34718 207.692754 
L 298.556977 207.170877 
L 298.686084 207.083897 
L 298.976573 206.127123 
L 299.057265 206.040144 
L 299.299339 205.344308 
L 299.912594 205.257329 
L 300.090115 204.909411 
L 300.380605 204.822432 
L 300.509711 204.735452 
L 300.606541 204.648473 
L 300.703371 204.561493 
L 300.719509 204.648473 
L 300.8002 204.561493 
L 300.913168 204.474514 
L 300.945445 204.561493 
L 300.977722 204.387534 
L 301.009998 204.387534 
L 301.042275 204.387534 
L 301.171381 204.039617 
L 301.268211 203.952637 
L 301.413456 203.778678 
L 301.478009 203.865658 
L 301.510285 203.778678 
L 301.639392 203.604719 
L 301.703945 203.778678 
L 301.768498 203.691699 
L 301.816913 203.778678 
L 301.946019 203.865658 
L 302.139679 203.952637 
L 302.284924 204.213575 
L 302.397892 204.126596 
L 302.51086 204.213575 
L 302.672243 203.778678 
L 302.688381 203.865658 
L 302.849764 203.778678 
L 303.043423 203.343781 
L 303.091838 203.256802 
L 303.285498 202.821904 
L 303.333913 202.734925 
L 303.511434 202.387007 
L 303.608264 202.300028 
L 303.769647 202.039089 
L 303.963306 201.95211 
L 304.092413 201.604192 
L 304.156966 201.517212 
L 304.30221 201.169295 
L 304.318349 201.256274 
L 304.479732 201.169295 
L 304.608838 200.821377 
L 304.641115 200.908356 
L 304.721806 200.908356 
L 304.818636 200.560439 
L 304.850912 200.647418 
L 304.899327 200.647418 
L 305.06071 199.864603 
L 305.109125 199.951582 
L 305.141402 199.690644 
L 305.15754 199.777623 
L 305.189817 199.690644 
L 305.399615 199.168767 
L 305.464168 199.081788 
L 305.81921 197.777096 
L 305.835348 197.777096 
L 306.093561 196.037507 
L 306.125838 195.950528 
L 306.335636 192.993226 
L 306.351774 191.949473 
L 306.416327 71.917829 
L 306.497019 137.326377 
L 306.658402 202.821904 
L 306.739093 203.51774 
L 306.787508 203.343781 
L 306.965029 202.995863 
L 307.207104 203.082843 
L 307.836497 205.866185 
L 307.868774 205.953165 
L 308.062433 206.388062 
L 308.110848 206.475041 
L 308.304508 207.431815 
L 308.482029 207.779733 
L 308.788657 207.692754 
L 308.885486 207.605774 
L 308.901625 207.692754 
L 309.095284 207.779733 
L 309.22439 207.953692 
L 309.353497 207.866712 
L 309.466465 207.953692 
L 309.579433 208.040671 
L 309.740816 207.779733 
L 310.111997 207.866712 
L 310.257241 208.040671 
L 310.434763 207.953692 
L 310.596146 207.692754 
L 310.967326 207.605774 
L 311.112571 207.431815 
L 311.160986 207.344836 
L 311.419199 206.562021 
L 311.548305 206.475041 
L 311.725826 206.127123 
L 311.919486 206.040144 
L 312.048592 205.953165 
L 312.306805 205.866185 
L 312.484326 205.518267 
L 312.532741 205.431288 
L 312.710262 205.08337 
L 312.903922 204.996391 
L 313.065305 204.735452 
L 313.178273 204.648473 
L 313.323517 204.474514 
L 313.67856 204.387534 
L 313.743113 204.474514 
L 313.856081 204.039617 
L 314.162709 203.952637 
L 314.275677 203.865658 
L 314.404783 203.952637 
L 314.646858 203.256802 
L 314.743687 203.169822 
L 314.856655 202.908884 
L 314.888932 202.995863 
L 314.985762 202.908884 
L 315.19556 202.387007 
L 315.260113 202.300028 
L 315.437634 201.95211 
L 315.631294 201.86513 
L 315.776538 201.691171 
L 315.905645 201.604192 
L 315.937921 201.517212 
L 315.986336 201.691171 
L 316.228411 203.256802 
L 316.260687 203.343781 
L 316.42207 203.952637 
L 316.631868 204.561493 
L 316.777113 204.387534 
L 317.116017 204.300555 
L 317.2774 204.039617 
L 317.422644 204.213575 
L 317.713134 204.126596 
L 317.84224 204.039617 
L 317.874517 203.952637 
L 318.229559 202.647945 
L 318.310251 202.560966 
L 318.826676 200.38648 
L 318.891229 200.2995 
L 319.213995 199.168767 
L 319.310825 199.168767 
L 319.472208 198.559911 
L 319.633591 197.16824 
L 319.859527 193.602082 
L 319.891804 135.064911 
L 319.92408 73.048562 
L 319.988633 114.189843 
L 320.166155 200.734397 
L 320.246846 201.517212 
L 320.295261 201.256274 
L 320.359814 201.343254 
L 320.569612 201.86513 
L 320.58575 201.778151 
L 320.618027 201.95211 
L 320.666442 201.95211 
L 320.843963 202.300028 
L 320.892378 202.387007 
L 321.311974 204.039617 
L 321.360388 204.126596 
L 321.554048 204.561493 
L 321.699293 204.648473 
L 321.844537 204.822432 
L 321.941367 204.909411 
L 322.118888 205.257329 
L 322.29641 205.344308 
L 322.441654 205.605247 
L 322.473931 205.518267 
L 322.538484 205.605247 
L 322.699867 205.866185 
L 322.716005 205.779206 
L 322.780558 205.953165 
L 323.022633 206.649 
L 323.652026 206.562021 
L 323.764994 206.388062 
L 323.781133 206.475041 
L 323.877963 206.388062 
L 324.023207 206.040144 
L 324.039345 206.127123 
L 324.152314 206.040144 
L 324.168452 205.953165 
L 324.233005 206.214103 
L 324.249143 206.127123 
L 324.265282 206.214103 
L 324.329835 206.040144 
L 324.345973 206.040144 
L 324.475079 205.953165 
L 324.701016 206.040144 
L 324.830122 206.214103 
L 324.894675 206.127123 
L 324.94309 206.214103 
L 325.685452 206.127123 
L 325.846835 205.866185 
L 325.911388 205.779206 
L 326.040494 205.692226 
L 326.185739 205.605247 
L 326.379398 205.170349 
L 326.395537 205.170349 
L 326.540781 204.735452 
L 326.589196 204.648473 
L 326.798994 204.126596 
L 326.9281 204.039617 
L 327.073345 203.778678 
L 327.089483 203.865658 
L 327.12176 203.691699 
L 327.154036 203.691699 
L 327.299281 203.51774 
L 327.412249 203.604719 
L 327.525217 203.51774 
L 327.573632 203.604719 
L 327.605909 203.43076 
L 327.622047 203.51774 
L 327.751153 203.43076 
L 327.78343 203.343781 
L 327.960951 202.995863 
L 328.186887 202.908884 
L 328.428962 202.213048 
L 328.493515 202.213048 
L 328.622621 201.691171 
L 328.63876 201.778151 
L 328.961525 201.86513 
L 328.977664 201.95211 
L 329.00994 201.778151 
L 329.058355 201.778151 
L 329.187462 201.691171 
L 329.252015 201.604192 
L 329.461813 201.082315 
L 329.558642 200.995336 
L 329.687749 200.908356 
L 329.800717 200.995336 
L 329.9621 200.473459 
L 329.978238 200.560439 
L 330.091206 200.908356 
L 330.123483 200.734397 
L 330.204174 200.647418 
L 330.397834 200.125541 
L 330.43011 200.212521 
L 330.478525 200.038562 
L 330.494664 200.038562 
L 330.688323 200.038562 
L 330.833568 199.603665 
L 330.930398 199.603665 
L 331.124057 219.521959 
L 331.495238 233.61263 
L 332.076216 246.31163 
L 332.786301 256.053329 
L 333.528663 262.924706 
L 335.158631 271.100774 
L 335.174769 271.100774 
L 335.336152 271.79661 
L 335.35229 271.79661 
L 335.529812 272.579425 
L 335.997822 274.492973 
L 336.046237 274.579952 
L 336.272173 275.188808 
L 336.30445 275.275788 
L 336.530386 275.884644 
L 336.675631 275.971623 
L 336.86929 276.406521 
L 336.917705 276.4935 
L 337.079088 276.928397 
L 337.095226 276.841418 
L 337.111365 276.841418 
L 337.256609 277.276315 
L 337.337301 277.363295 
L 337.53096 277.798192 
L 337.660067 277.885171 
L 337.853726 278.320069 
L 338.015109 278.407048 
L 338.19263 278.754966 
L 338.321737 278.841945 
L 338.466981 279.015904 
L 338.579949 279.102884 
L 338.709056 279.189863 
L 339.306173 279.102884 
L 339.386864 279.015904 
L 339.419141 279.102884 
L 340.758619 279.015904 
L 340.920002 278.754966 
L 341.065247 278.667987 
L 341.22663 278.407048 
L 341.371874 278.320069 
L 341.517119 278.14611 
L 341.662364 278.05913 
L 341.69464 277.972151 
L 341.775332 278.05913 
L 341.936715 277.972151 
L 342.065821 277.885171 
L 342.194928 277.972151 
L 342.630662 277.885171 
L 342.6468 277.798192 
L 342.679076 277.972151 
L 342.74363 277.885171 
L 343.11481 277.798192 
L 343.163225 277.711213 
L 343.227778 277.798192 
L 343.760342 277.711213 
L 343.792619 277.624233 
L 343.87331 277.711213 
L 343.97014 277.624233 
L 344.050831 277.537254 
L 344.083108 277.624233 
L 344.228353 277.537254 
L 344.357459 277.450274 
L 344.680225 277.363295 
L 344.696363 277.276315 
L 344.793193 277.363295 
L 344.922299 277.276315 
L 345.051406 277.189336 
L 345.083682 277.276315 
L 345.164374 277.189336 
L 345.600108 277.102356 
L 345.616246 277.015377 
L 345.713076 277.102356 
L 345.793767 277.015377 
L 345.922874 276.928397 
L 346.068118 276.841418 
L 346.181086 276.667459 
L 346.197225 276.754439 
L 346.261778 276.667459 
L 346.390884 276.58048 
L 346.568406 276.4935 
L 346.584544 276.406521 
L 346.681374 276.4935 
L 346.971863 276.406521 
L 347.117108 276.232562 
L 347.940161 276.319541 
L 347.972437 276.406521 
L 348.053129 276.319541 
L 349.666958 276.406521 
L 349.683097 276.4935 
L 349.779926 276.406521 
L 351.16782 276.4935 
L 351.264649 276.58048 
L 351.280788 276.4935 
L 353.362628 276.406521 
L 353.394904 276.319541 
L 353.443319 276.4935 
L 353.475596 276.406521 
L 354.702106 276.319541 
L 354.815074 276.232562 
L 354.831213 276.319541 
L 354.879628 276.145582 
L 354.928042 276.232562 
L 355.024872 276.145582 
L 355.041011 276.232562 
L 355.121702 276.232562 
L 355.13784 276.058603 
L 355.3315 237.874623 
L 355.79951 199.168767 
L 355.89634 184.817158 
L 355.944755 68.960527 
L 356.009308 126.888843 
L 356.154553 197.429178 
L 356.170691 197.255219 
L 356.364351 190.73176 
L 356.800085 178.989534 
L 356.864638 71.569911 
L 356.945329 125.67113 
L 357.122851 190.73176 
L 357.284234 192.297391 
L 357.494031 192.819267 
L 357.542446 192.732288 
L 357.590861 192.819267 
L 357.703829 193.167185 
L 357.719968 193.080206 
L 357.865212 192.993226 
L 358.187978 191.862493 
L 358.236393 191.775514 
L 358.768957 188.296336 
L 359.043308 184.208301 
L 359.172414 178.11974 
L 359.236967 68.090733 
L 359.30152 111.754418 
L 359.49518 190.992699 
L 359.672701 193.515103 
L 359.898637 194.297918 
L 359.914776 194.210938 
L 360.092297 194.297918 
L 360.140712 194.384897 
L 360.172988 194.210938 
L 360.189127 194.210938 
L 360.25368 194.123959 
L 360.528031 193.254165 
L 360.640999 193.167185 
L 360.834658 192.471349 
L 360.866935 192.558329 
L 360.947627 192.471349 
L 361.092871 192.036452 
L 361.125148 192.123432 
L 361.173563 192.036452 
L 361.383361 191.514575 
L 361.447914 191.427596 
L 361.722265 190.557801 
L 361.786818 190.470822 
L 362.028892 189.774986 
L 362.125722 189.688007 
L 362.43235 188.644254 
L 362.496903 188.557274 
L 363.303818 184.817158 
L 363.352233 184.904137 
L 363.384509 184.643199 
L 363.56203 180.294226 
L 363.626584 66.96 
L 363.707275 122.278932 
L 363.884796 189.861966 
L 364.046179 192.123432 
L 364.143009 192.210411 
L 364.304392 192.471349 
L 364.336669 192.558329 
L 364.352807 192.645308 
L 364.433498 192.558329 
L 364.449637 192.471349 
L 364.530328 192.645308 
L 364.836956 192.732288 
L 364.853094 192.819267 
L 364.885371 192.645308 
L 364.917647 192.645308 
L 365.304966 191.166658 
L 365.595456 191.079678 
L 366.257126 188.122377 
L 366.321679 188.209356 
L 366.370094 188.383315 
L 366.418509 188.122377 
L 366.773551 186.817685 
L 366.805828 186.904665 
L 366.838104 186.643726 
L 366.967211 186.295808 
L 366.999487 186.382788 
L 367.015626 186.469767 
L 367.06404 186.295808 
L 367.080179 186.295808 
L 367.225423 186.121849 
L 367.273838 186.03487 
L 367.45136 185.252055 
L 367.628881 183.686425 
L 367.854817 182.294754 
L 367.887093 182.207774 
L 367.967785 180.642144 
L 368.000062 174.466603 
L 368.064615 68.177712 
L 368.129168 109.75389 
L 368.338966 188.992171 
L 368.516487 190.992699 
L 368.694008 191.427596 
L 368.806976 191.340617 
L 368.952221 191.514575 
L 369.000636 191.340617 
L 369.081327 191.427596 
L 369.194295 191.601555 
L 369.210434 191.514575 
L 369.24271 191.514575 
L 369.323402 191.340617 
L 369.355678 191.427596 
L 369.387955 191.688534 
L 369.484785 191.514575 
L 369.581614 191.427596 
L 369.839827 190.644781 
L 369.952795 190.557801 
L 370.501497 188.209356 
L 370.533774 188.122377 
L 370.695157 187.339562 
L 370.808125 187.426541 
L 371.114753 186.382788 
L 371.163167 186.295808 
L 371.308412 186.03487 
L 371.32455 186.121849 
L 371.389104 185.860911 
L 371.405242 185.947891 
L 371.534348 186.03487 
L 371.679593 186.469767 
L 371.744146 186.295808 
L 371.808699 186.382788 
L 371.857114 186.295808 
L 371.970082 186.03487 
L 372.002359 186.121849 
L 372.08305 186.03487 
L 372.551061 184.034343 
L 372.567199 184.121322 
L 372.615614 183.860384 
L 372.825412 182.294754 
L 372.922242 178.641617 
L 372.986795 67.655836 
L 373.067486 114.972658 
L 373.261146 186.991644 
L 373.454805 188.905192 
L 373.69688 189.601028 
L 373.858263 189.514048 
L 373.955092 189.340089 
L 373.971231 189.427069 
L 374.051922 189.601028 
L 374.084199 189.514048 
L 374.374688 188.557274 
L 374.45538 188.470295 
L 374.616763 188.122377 
L 374.713592 188.209356 
L 374.729731 188.122377 
L 374.842699 188.035397 
L 375.068635 187.426541 
L 375.100911 187.513521 
L 375.197741 187.68748 
L 375.230018 187.6005 
L 375.262294 187.513521 
L 375.617337 186.208829 
L 375.665752 186.121849 
L 375.827135 185.426014 
L 375.859411 185.512993 
L 375.891688 185.599973 
L 375.940103 185.339034 
L 376.149901 184.730178 
L 376.182177 184.817158 
L 376.262869 184.730178 
L 376.295145 184.643199 
L 376.698603 183.077569 
L 376.779294 183.164548 
L 376.795432 183.077569 
L 377.118198 180.729123 
L 377.182752 178.902555 
L 377.215028 147.329014 
L 377.263443 68.351671 
L 377.327996 103.926267 
L 377.537794 184.904137 
L 377.683039 187.165603 
L 377.699177 187.078623 
L 377.95739 187.861438 
L 378.054219 187.948418 
L 378.215602 188.209356 
L 378.393124 188.122377 
L 378.538368 187.948418 
L 378.586783 187.861438 
L 378.877273 186.904665 
L 378.941826 186.817685 
L 378.990241 186.730706 
L 379.022517 186.904665 
L 379.038655 186.904665 
L 379.167762 186.817685 
L 379.474389 185.773932 
L 379.522804 185.686952 
L 379.668049 185.512993 
L 379.74874 185.426014 
L 379.990815 184.730178 
L 380.023091 184.643199 
L 380.216751 183.512466 
L 380.232889 183.599445 
L 380.297442 183.338507 
L 380.426549 183.251528 
L 380.491102 183.338507 
L 380.571794 183.512466 
L 380.620208 183.425486 
L 380.684762 183.338507 
L 380.846145 182.990589 
L 380.862283 183.077569 
L 380.910698 182.729651 
L 380.959113 182.642671 
L 381.394847 179.68537 
L 381.540091 176.380151 
L 381.572368 142.371185 
L 381.620783 68.003753 
L 381.685336 103.056473 
L 381.911272 186.03487 
L 382.104932 188.035397 
L 382.185623 188.122377 
L 382.395421 188.644254 
L 382.459974 188.731233 
L 382.605219 188.905192 
L 382.702048 188.818212 
L 382.944123 188.122377 
L 383.121644 188.209356 
L 383.234612 188.557274 
L 383.283027 188.470295 
L 383.379857 188.557274 
L 383.395995 188.644254 
L 383.44441 188.470295 
L 383.460548 188.470295 
L 383.670346 187.948418 
L 383.702623 187.861438 
L 383.912421 187.339562 
L 383.944697 187.252582 
L 384.089942 186.904665 
L 384.10608 186.991644 
L 384.154495 186.904665 
L 384.348155 186.469767 
L 384.380431 186.382788 
L 384.477261 186.121849 
L 384.525676 186.208829 
L 384.735474 186.121849 
L 384.896857 185.686952 
L 384.912995 185.773932 
L 384.993686 185.686952 
L 385.042101 185.599973 
L 385.106654 185.686952 
L 385.171208 185.599973 
L 385.300314 185.252055 
L 385.332591 185.339034 
L 385.364867 185.512993 
L 385.42942 185.339034 
L 386.123367 181.077041 
L 386.317027 176.206192 
L 386.38158 69.830322 
L 386.47841 121.409137 
L 386.672069 184.556219 
L 386.833452 186.208829 
L 386.84959 186.121849 
L 386.898005 186.469767 
L 387.107803 187.165603 
L 387.123941 187.078623 
L 387.172356 187.165603 
L 387.349877 187.513521 
L 387.527399 187.165603 
L 387.688782 187.078623 
L 387.882441 186.643726 
L 387.979271 186.643726 
L 388.140654 187.339562 
L 388.318175 186.991644 
L 388.415005 187.078623 
L 388.431143 186.991644 
L 388.527973 186.904665 
L 388.657079 186.817685 
L 388.689356 186.904665 
L 388.737771 186.730706 
L 388.753909 186.730706 
L 389.012122 185.947891 
L 389.076675 185.947891 
L 389.238058 185.339034 
L 390.077249 180.207247 
L 390.319324 175.075459 
L 390.3516 132.716466 
L 390.400015 69.395425 
L 390.464568 104.448144 
L 390.674366 182.642671 
L 390.835749 184.817158 
L 390.868026 184.904137 
L 391.142377 185.773932 
L 391.158515 185.773932 
L 391.174653 185.599973 
L 391.271483 185.686952 
L 391.352175 185.512993 
L 391.384451 185.686952 
L 391.497419 185.599973 
L 391.513558 185.512993 
L 391.594249 185.686952 
L 391.739494 185.599973 
L 391.96543 184.991117 
L 392.078398 184.904137 
L 392.417302 183.686425 
L 392.449579 183.686425 
L 392.610962 182.990589 
L 392.659377 182.90361 
L 392.869174 181.772877 
L 392.885313 181.772877 
L 393.175802 179.772349 
L 393.627674 176.728069 
L 393.724504 174.031706 
L 393.756781 141.240452 
L 393.805196 70.004281 
L 393.869749 98.359582 
L 394.111823 181.946836 
L 394.305483 184.643199 
L 394.499142 185.686952 
L 394.547557 185.773932 
L 394.757355 186.295808 
L 394.967153 186.382788 
L 395.015568 186.556747 
L 395.080121 186.469767 
L 395.386749 185.426014 
L 395.419025 185.339034 
L 395.56427 185.165075 
L 395.612685 185.165075 
L 395.757929 184.730178 
L 395.806344 184.643199 
L 395.967727 184.121322 
L 396.000004 184.208301 
L 396.096833 184.121322 
L 396.290493 183.164548 
L 396.32277 183.077569 
L 396.726227 181.511938 
L 396.758504 181.424959 
L 397.048993 180.120267 
L 397.097408 180.207247 
L 397.129684 180.294226 
L 397.161961 180.120267 
L 397.517003 175.597336 
L 397.565418 169.421795 
L 397.629972 70.265219 
L 397.710663 108.101281 
L 397.936599 181.33798 
L 398.130259 184.034343 
L 398.162535 184.121322 
L 398.501439 185.339034 
L 398.582131 185.426014 
L 398.727376 185.599973 
L 398.904897 185.512993 
L 399.050142 185.339034 
L 399.211524 185.252055 
L 399.453599 184.556219 
L 399.582705 184.46924 
L 399.744088 184.121322 
L 399.857056 184.208301 
L 399.889333 184.121322 
L 399.953886 184.295281 
L 400.018439 184.208301 
L 400.438035 182.555692 
L 400.470311 182.468712 
L 401.196535 178.03276 
L 401.406333 173.509829 
L 401.487024 70.265219 
L 401.583854 120.452363 
L 401.777513 179.772349 
L 401.955035 182.555692 
L 402.229386 184.38226 
L 402.358492 184.643199 
L 402.37463 184.556219 
L 402.439183 184.46924 
L 402.519875 184.38226 
L 402.552152 184.46924 
L 402.842641 184.38226 
L 403.068577 183.773404 
L 403.100854 183.686425 
L 403.294513 183.251528 
L 403.342928 183.164548 
L 403.455896 182.990589 
L 403.472034 183.077569 
L 403.923907 182.990589 
L 404.053013 182.90361 
L 404.165981 182.990589 
L 404.214396 183.077569 
L 404.278949 182.990589 
L 404.359641 183.077569 
L 404.424194 183.164548 
L 404.472609 183.077569 
L 404.521024 182.990589 
L 404.730821 182.120795 
L 404.779236 182.207774 
L 404.843789 182.294754 
L 404.892204 182.207774 
L 405.102002 182.120795 
L 405.344077 181.424959 
L 405.392492 181.33798 
L 405.50546 180.816103 
L 405.537736 180.903082 
L 405.602289 180.816103 
L 406.005747 178.03276 
L 406.215545 174.727541 
L 406.296236 169.769712 
L 406.376928 71.395952 
L 406.441481 105.317938 
L 406.667417 180.555165 
L 406.861076 183.686425 
L 407.280672 185.339034 
L 407.442055 185.252055 
L 407.571161 184.904137 
L 407.813236 184.991117 
L 407.893927 185.078096 
L 407.926204 184.991117 
L 408.119863 185.078096 
L 408.200555 185.252055 
L 408.24897 185.165075 
L 408.3458 185.078096 
L 408.523321 184.730178 
L 408.604012 184.730178 
L 408.797672 183.773404 
L 409.104299 182.729651 
L 409.152714 182.642671 
L 409.749831 180.033288 
L 409.798246 179.946308 
L 409.927352 179.337452 
L 409.975767 179.598391 
L 410.395363 179.511411 
L 410.944065 175.945254 
L 411.105448 168.725959 
L 411.186139 71.395952 
L 411.250693 103.839288 
L 411.476629 180.381206 
L 411.65415 183.425486 
L 411.896224 184.904137 
L 412.057607 185.165075 
L 412.138299 185.078096 
L 412.267405 184.904137 
L 412.299682 184.991117 
L 412.348097 184.817158 
L 412.364235 184.817158 
L 412.525618 184.730178 
L 412.590171 184.643199 
L 412.622448 184.817158 
L 412.703139 185.165075 
L 412.767692 185.078096 
L 412.97749 184.556219 
L 413.058182 184.46924 
L 413.203426 184.295281 
L 413.300256 184.208301 
L 413.477777 183.512466 
L 413.510054 183.686425 
L 413.752128 183.599445 
L 414.252416 181.511938 
L 414.316969 181.424959 
L 414.462213 181.251 
L 414.510628 181.164021 
L 414.801118 180.207247 
L 414.833394 180.120267 
L 415.382096 173.161911 
L 415.414373 164.550945 
L 415.478926 71.135014 
L 415.543479 99.751253 
L 415.785554 180.555165 
L 415.979213 183.338507 
L 416.189011 184.46924 
L 416.414947 185.078096 
L 416.544053 184.991117 
L 416.76999 184.991117 
L 416.931373 184.38226 
L 416.963649 184.46924 
L 417.012064 184.208301 
L 417.060479 184.121322 
L 417.286415 183.512466 
L 417.399383 183.425486 
L 417.818979 181.772877 
L 417.851255 181.685897 
L 418.109468 180.903082 
L 418.238574 180.816103 
L 418.56134 179.68537 
L 418.577479 179.772349 
L 418.625894 179.598391 
L 418.642032 179.598391 
L 419.126181 176.380151 
L 419.335979 172.379096 
L 419.368255 156.113938 
L 419.432808 71.308973 
L 419.497362 100.621048 
L 419.787851 204.474514 
L 420.046064 225.175623 
L 420.433383 240.397028 
L 420.83684 249.877788 
L 421.224159 255.87937 
L 421.627616 260.66324 
L 421.788999 262.141891 
L 422.224733 265.708048 
L 422.757297 269.187226 
L 422.950957 270.144 
L 423.67718 273.449219 
L 423.709457 273.536199 
L 424.145191 275.275788 
L 424.177467 275.362767 
L 424.451818 276.232562 
L 424.500233 276.319541 
L 424.758446 277.102356 
L 424.855276 277.189336 
L 425.129627 278.05913 
L 425.145765 277.972151 
L 425.178041 278.14611 
L 425.210318 278.14611 
L 425.436254 278.754966 
L 425.549222 278.841945 
L 425.726743 279.189863 
L 425.839712 279.276843 
L 426.017233 279.62476 
L 426.097924 279.71174 
L 426.259307 279.972678 
L 426.32386 280.059658 
L 426.501382 280.407576 
L 426.51752 280.320596 
L 426.582073 280.494555 
L 426.598211 280.494555 
L 426.727318 280.581534 
L 426.824148 280.668514 
L 426.98553 280.929452 
L 427.033945 281.016432 
L 427.163052 281.103411 
L 427.243743 281.190391 
L 427.388988 281.451329 
L 427.421264 281.36435 
L 427.501956 281.451329 
L 428.131349 281.538308 
L 428.276594 281.712267 
L 429.148062 281.799247 
L 429.1642 281.886226 
L 429.244892 281.799247 
L 429.341722 281.712267 
L 429.35786 281.799247 
L 429.729041 281.886226 
L 429.793594 281.973206 
L 429.842009 281.886226 
L 430.697338 281.799247 
L 430.826445 281.712267 
L 431.310594 281.625288 
L 431.375147 281.538308 
L 431.423562 281.625288 
L 431.4397 281.712267 
L 431.520391 281.625288 
L 431.649498 281.538308 
L 432.036817 281.451329 
L 432.165923 281.36435 
L 432.633934 281.27737 
L 432.76304 281.190391 
L 433.392434 281.103411 
L 433.52154 281.016432 
L 433.795891 280.929452 
L 433.860444 280.755493 
L 433.908859 280.842473 
L 433.989551 280.929452 
L 434.021827 280.842473 
L 434.74805 280.755493 
L 434.877157 280.668514 
L 435.232199 280.581534 
L 435.377444 280.407576 
L 435.458135 280.494555 
L 435.490412 280.407576 
L 435.780901 280.407576 
L 435.780901 280.407576 
" style="fill:none;stroke:#1f77b4;stroke-linecap:square;stroke-width:1.5;"/>
   </g>
   <g id="line2d_14">
    <path clip-path="url(#pf89ce2d951)" d="M 80.754545 272.562029 
L 81.109588 272.668909 
L 81.319386 272.740163 
L 81.706705 272.847043 
L 81.916503 272.918297 
L 82.368375 273.025177 
L 82.562035 273.078617 
L 83.030045 273.185498 
L 83.223705 273.238938 
L 83.772407 273.345818 
L 83.966066 273.399258 
L 84.627736 273.506139 
L 84.805258 273.541766 
L 85.515343 273.648646 
L 85.692864 273.684273 
L 86.596608 273.791153 
L 86.77413 273.82678 
L 88.00064 273.93366 
L 88.162023 273.951474 
L 88.904385 274.004914 
L 90.195448 259.64732 
L 91.083054 251.934121 
L 92.099767 244.933458 
L 93.390831 238.413757 
L 94.117054 235.706121 
L 94.956245 233.301313 
L 96.118202 231.003386 
L 97.780447 229.328927 
L 98.006383 229.222047 
L 98.248457 229.115166 
L 98.684191 229.008286 
L 98.861713 228.972659 
L 100.201191 229.07954 
L 100.410989 229.150793 
L 100.749893 229.257674 
L 100.991968 229.364554 
L 101.25018 229.471434 
L 101.524531 229.613941 
L 101.750467 229.720822 
L 102.057095 229.898956 
L 102.266893 230.005836 
L 102.605797 230.219597 
L 102.783318 230.326477 
L 103.138361 230.558051 
L 103.315882 230.664931 
L 103.71934 230.949946 
L 103.896861 231.056826 
L 104.316456 231.359654 
L 104.477839 231.466534 
L 104.881297 231.751548 
L 105.04268 231.858429 
L 105.446137 232.143443 
L 105.60752 232.250323 
L 106.010977 232.535338 
L 106.188499 232.642218 
L 106.591956 232.927232 
L 106.769477 233.034113 
L 107.140658 233.2835 
L 107.318179 233.39038 
L 107.673222 233.621955 
L 107.850743 233.728835 
L 108.189647 233.942596 
L 108.383307 234.049476 
L 108.706073 234.245423 
L 108.915871 234.352304 
L 109.222498 234.530437 
L 109.432296 234.637318 
L 109.722785 234.797638 
L 109.948721 234.904519 
L 110.223072 235.047026 
L 110.465147 235.153906 
L 110.739498 235.296413 
L 110.997711 235.403294 
L 111.255923 235.527987 
L 111.530274 235.634868 
L 111.772349 235.741748 
L 112.062838 235.848628 
L 112.288774 235.937695 
L 112.595402 236.044576 
L 112.821338 236.133643 
L 113.160242 236.240523 
L 113.386178 236.32959 
L 113.773497 236.43647 
L 113.983295 236.507724 
L 114.386753 236.614604 
L 114.580412 236.668044 
L 115.000008 236.774925 
L 115.193667 236.828365 
L 115.693955 236.935245 
L 115.887614 236.988686 
L 116.484731 237.095566 
L 116.662252 237.131193 
L 117.307784 237.238073 
L 117.485305 237.2737 
L 118.276082 237.38058 
L 118.453603 237.416207 
L 119.534869 237.523087 
L 119.696252 237.540901 
L 121.03573 237.647781 
L 121.197113 237.665594 
L 123.730826 237.772475 
L 123.892209 237.790288 
L 153.457565 237.736848 
L 154.780905 252.486336 
L 155.652373 260.057028 
L 156.669086 267.057691 
L 157.96015 273.577392 
L 159.816054 279.348931 
L 160.60683 280.827443 
L 162.349766 282.590969 
L 162.607979 282.697849 
L 162.833915 282.786916 
L 163.35034 282.893796 
L 163.511723 282.91161 
L 164.657542 282.804729 
L 164.86734 282.733476 
L 165.222382 282.626595 
L 165.464457 282.519715 
L 165.738808 282.412835 
L 166.013159 282.270328 
L 166.239095 282.163447 
L 166.545723 281.985313 
L 166.739382 281.878433 
L 167.078286 281.664672 
L 167.271946 281.557792 
L 167.643127 281.308404 
L 167.820648 281.201524 
L 168.207967 280.934323 
L 168.36935 280.827443 
L 168.772807 280.542428 
L 168.950329 280.435548 
L 169.386063 280.114907 
L 169.515169 280.02584 
L 169.547446 272.562029 
L 169.628137 272.597656 
L 169.999318 272.704536 
L 170.209116 272.77579 
L 170.612573 272.88267 
L 170.822371 272.953924 
L 171.290381 273.060804 
L 171.484041 273.114244 
L 171.96819 273.221124 
L 172.161849 273.274565 
L 172.72669 273.381445 
L 172.904211 273.417072 
L 173.501328 273.523952 
L 173.678849 273.559579 
L 174.421211 273.666459 
L 174.598732 273.702086 
L 175.518615 273.808966 
L 175.696136 273.844593 
L 176.9872 273.951474 
L 177.148583 273.969287 
L 177.681146 274.004914 
L 178.859242 256.298402 
L 179.843678 244.701884 
L 180.634454 237.202446 
L 181.473646 230.771812 
L 182.506497 224.661818 
L 183.200443 221.437595 
L 183.862113 218.872466 
L 184.426954 216.877366 
L 185.443666 213.136554 
L 185.847124 210.892067 
L 186.121475 207.97067 
L 186.266719 203.481696 
L 186.379687 231.377467 
L 186.492656 231.484347 
L 187.509368 243.508387 
L 188.267868 249.956835 
L 189.220027 255.532426 
L 189.946251 258.240062 
L 190.962963 260.217348 
L 191.414836 260.555803 
L 192.270165 260.448923 
L 193.577367 258.845717 
L 196.094941 253.020738 
L 196.740473 251.257212 
L 197.24076 249.885581 
L 197.934707 247.961735 
L 198.451132 246.554477 
L 199.064388 244.897832 
L 199.774472 243.063052 
L 200.242483 241.887368 
L 203.566972 234.815452 
L 203.825185 234.370117 
L 204.325472 233.532888 
L 204.696653 232.962859 
L 205.083972 232.375017 
L 205.66495 231.573414 
L 205.971578 231.163706 
L 208.634397 228.384817 
L 208.779641 228.277937 
L 209.296067 227.868229 
L 209.45745 227.761349 
L 209.860907 227.476334 
L 210.038428 227.369454 
L 210.393471 227.13788 
L 210.58713 227.031 
L 210.893758 226.852866 
L 211.119694 226.745985 
L 211.410183 226.585665 
L 211.668396 226.478784 
L 211.926609 226.354091 
L 212.20096 226.24721 
L 212.443034 226.14033 
L 212.749662 226.03345 
L 212.975598 225.944383 
L 213.33064 225.837502 
L 213.540438 225.766249 
L 213.927757 225.659368 
L 214.121417 225.605928 
L 214.573289 225.499048 
L 214.766949 225.445608 
L 215.331789 225.338727 
L 215.50931 225.303101 
L 216.203257 225.19622 
L 216.380778 225.160593 
L 217.445906 225.053713 
L 217.607289 225.0359 
L 219.721405 224.929019 
L 219.882788 224.911206 
L 226.096032 225.018086 
L 226.257415 225.0359 
L 229.533489 225.14278 
L 229.694872 225.160593 
L 233.987658 225.267474 
L 234.149041 225.285287 
L 242.234327 225.374354 
L 243.460838 243.882468 
L 244.429135 255.283039 
L 245.623369 266.042328 
L 246.527114 272.170134 
L 247.140369 275.501239 
L 248.383018 280.488988 
L 249.076964 282.412835 
L 250.0614 284.318868 
L 251.400879 285.637059 
L 251.642953 285.743939 
L 251.868889 285.833006 
L 253.531134 285.726126 
L 253.773208 285.619245 
L 254.015283 285.512365 
L 254.32191 285.334231 
L 254.51557 285.227351 
L 254.902889 284.96015 
L 255.064272 284.853269 
L 255.532282 284.497001 
L 255.677527 284.390121 
L 256.323059 283.837906 
L 256.452165 283.731026 
L 257.275218 282.982863 
L 257.404325 282.875983 
L 258.291931 282.038753 
L 258.324207 272.562029 
L 258.404899 272.597656 
L 258.77608 272.704536 
L 258.985878 272.77579 
L 259.389335 272.88267 
L 259.599133 272.953924 
L 260.067143 273.060804 
L 260.260803 273.114244 
L 260.744952 273.221124 
L 260.938611 273.274565 
L 261.503452 273.381445 
L 261.680973 273.417072 
L 262.27809 273.523952 
L 262.455611 273.559579 
L 263.197973 273.666459 
L 263.375494 273.702086 
L 264.295377 273.808966 
L 264.472898 273.844593 
L 265.763962 273.951474 
L 265.925344 273.969287 
L 266.457908 274.004914 
L 267.539174 249.333366 
L 268.636578 229.720822 
L 270.169716 204.586126 
L 270.185854 203.517322 
L 270.298822 231.377467 
L 270.427929 231.448721 
L 271.089599 233.2835 
L 271.299397 233.675395 
L 271.670578 234.22761 
L 272.170865 234.619504 
L 273.090748 234.512624 
L 274.478641 232.820352 
L 277.367396 226.175957 
L 277.980651 224.519311 
L 278.497076 223.112053 
L 279.239438 221.027887 
L 279.659034 219.834389 
L 281.563353 213.154367 
L 281.982948 210.286411 
L 282.208884 207.026561 
L 282.305714 203.178868 
L 282.418682 231.377467 
L 282.53165 231.466534 
L 283.370842 240.31979 
L 284.04865 245.325353 
L 284.871703 249.279926 
L 285.501097 250.990012 
L 285.872277 251.542227 
L 286.259596 251.809428 
L 286.824437 251.702547 
L 287.663628 250.61593 
L 288.809447 247.819228 
L 290.810596 240.818565 
L 291.908 236.472097 
L 292.47284 234.22761 
L 293.537968 230.023649 
L 294.296467 227.13788 
L 294.990414 224.572751 
L 296.620382 218.801213 
L 297.427297 215.737309 
L 297.766201 214.240984 
L 298.15352 212.049937 
L 298.444009 209.449182 
L 298.621531 206.118078 
L 298.686084 203.036361 
L 298.799052 231.377467 
L 298.91202 231.466534 
L 299.654381 239.179733 
L 300.348328 244.345616 
L 300.89703 247.249199 
L 301.478009 249.315553 
L 301.84919 250.170595 
L 302.22037 250.722811 
L 302.591551 250.972198 
L 303.156391 250.865318 
L 304.043998 249.725261 
L 305.189817 246.928558 
L 307.33621 239.446934 
L 308.320646 235.599241 
L 308.950039 233.140993 
L 309.886061 229.507061 
L 310.789805 226.14033 
L 311.419199 223.860216 
L 313.162135 217.714596 
L 314.501613 211.301775 
L 314.759826 208.505072 
L 314.90507 204.76426 
L 314.937347 202.76916 
L 315.050315 231.377467 
L 315.147145 231.377467 
L 316.163857 241.406407 
L 316.841666 245.824128 
L 317.793825 249.547127 
L 318.471634 250.776251 
L 318.60074 250.883131 
L 318.875091 251.025638 
L 319.391516 250.918758 
L 320.279123 249.778701 
L 321.44108 246.946372 
L 323.587473 239.464747 
L 324.588047 235.545801 
L 325.217441 233.087553 
L 326.153462 229.453621 
L 327.041068 226.14033 
L 327.670462 223.860216 
L 329.413398 217.714596 
L 330.752876 211.301775 
L 331.011089 208.487259 
L 331.09178 209.413555 
L 331.398408 214.917893 
L 332.866993 243.401507 
L 333.819152 257.331579 
L 334.674482 267.200198 
L 335.675056 276.03564 
L 336.465833 281.290591 
L 336.998396 284.105107 
L 337.982833 287.952799 
L 338.596088 289.609445 
L 339.354588 291.016703 
L 340.355162 291.960813 
L 340.66179 292.067693 
L 340.839311 292.10332 
L 341.726917 291.996439 
L 341.98513 291.871746 
L 342.178789 291.764865 
L 342.582247 291.479851 
L 342.727491 291.372971 
L 345.406448 288.255627 
L 345.745352 287.774666 
L 346.294055 287.00869 
L 346.649097 286.492101 
L 347.068693 285.904259 
L 347.100969 272.562029 
L 347.181661 272.597656 
L 347.552842 272.704536 
L 347.762639 272.77579 
L 348.166097 272.88267 
L 348.375895 272.953924 
L 348.843905 273.060804 
L 349.037565 273.114244 
L 349.521714 273.221124 
L 349.715373 273.274565 
L 350.280213 273.381445 
L 350.457735 273.417072 
L 351.054852 273.523952 
L 351.232373 273.559579 
L 351.974734 273.666459 
L 352.152256 273.702086 
L 353.072139 273.808966 
L 353.24966 273.844593 
L 354.540723 273.951474 
L 354.702106 273.969287 
L 355.23467 274.004914 
L 356.315936 224.590565 
L 356.783946 202.751347 
L 356.896914 231.377467 
L 356.993744 231.377467 
L 358.07501 203.855777 
L 358.091148 202.306012 
L 358.204116 231.377467 
L 358.317084 231.270587 
L 359.49518 222.737972 
L 360.302095 215.666056 
L 360.753967 210.126091 
L 360.947627 204.92458 
L 360.979903 202.71572 
L 361.092871 231.377467 
L 361.205839 231.448721 
L 361.706126 233.158806 
L 362.061169 233.693208 
L 362.561456 233.586328 
L 362.884222 233.069739 
L 363.319956 231.858429 
L 364.546466 225.944383 
L 365.83753 216.663606 
L 366.386232 210.85644 
L 366.612168 205.833063 
L 366.660583 203.107614 
L 366.773551 231.377467 
L 366.886519 231.413094 
L 367.338391 233.319127 
L 367.935508 234.370117 
L 368.338966 234.263237 
L 368.67787 233.728835 
L 369.145881 232.428457 
L 369.630029 230.451171 
L 370.227146 227.316014 
L 371.695731 216.877366 
L 372.244433 211.123641 
L 372.470369 206.492159 
L 372.534923 203.232308 
L 372.647891 231.377467 
L 372.760859 231.413094 
L 373.196593 233.23006 
L 373.79371 234.28105 
L 374.197167 234.17417 
L 374.536071 233.639768 
L 375.004082 232.33939 
L 375.488231 230.379917 
L 376.859986 222.20357 
L 377.941251 213.029674 
L 378.247879 208.451632 
L 378.376985 203.802337 
L 378.393124 202.466332 
L 378.506092 231.377467 
L 378.61906 231.448721 
L 379.054794 233.247873 
L 379.409836 234.049476 
L 379.797155 234.316677 
L 380.023091 234.209796 
L 380.394272 233.639768 
L 380.846145 232.375017 
L 381.346432 230.34429 
L 381.943549 227.209133 
L 383.412133 216.752672 
L 383.944697 211.141454 
L 384.170633 206.563412 
L 384.235187 203.410442 
L 384.348155 231.377467 
L 384.461123 231.413094 
L 384.896857 233.23006 
L 385.251899 234.049476 
L 385.655357 234.33449 
L 385.865154 234.22761 
L 386.252473 233.639768 
L 386.704346 232.375017 
L 387.188495 230.415544 
L 388.56025 222.239197 
L 389.22192 217.126754 
L 389.802898 211.0702 
L 390.028834 206.385278 
L 390.093388 203.000734 
L 390.206356 231.377467 
L 390.319324 231.448721 
L 390.755058 233.265687 
L 391.336036 234.298863 
L 391.77177 234.191983 
L 392.094536 233.675395 
L 392.546409 232.410644 
L 393.046696 230.397731 
L 394.402312 222.328264 
L 395.499717 213.029674 
L 395.806344 208.469445 
L 395.935451 203.837963 
L 395.951589 202.519772 
L 396.064557 231.377467 
L 396.177525 231.448721 
L 396.613259 233.247873 
L 396.968301 234.049476 
L 397.194238 234.28105 
L 397.613833 234.17417 
L 397.952737 233.639768 
L 398.40461 232.375017 
L 398.904897 230.34429 
L 399.502014 227.209133 
L 400.970599 216.752672 
L 401.519301 210.927693 
L 401.745237 205.993384 
L 401.793652 203.428255 
L 401.90662 231.377467 
L 402.019588 231.413094 
L 402.455322 233.23006 
L 402.810364 234.049476 
L 403.213822 234.33449 
L 403.42362 234.22761 
L 403.810939 233.639768 
L 404.262811 232.375017 
L 404.74696 230.415544 
L 406.118715 222.239197 
L 406.780385 217.126754 
L 407.361364 211.0702 
L 407.5873 206.385278 
L 407.651853 203.000734 
L 407.764821 231.377467 
L 407.877789 231.448721 
L 408.313523 233.265687 
L 408.668565 234.067289 
L 409.055885 234.33449 
L 409.281821 234.22761 
L 409.66914 233.639768 
L 410.104874 232.410644 
L 410.605161 230.397731 
L 411.960778 222.328264 
L 413.058182 213.029674 
L 413.364809 208.469445 
L 413.493916 203.837963 
L 413.510054 202.519772 
L 413.623022 231.377467 
L 413.73599 231.448721 
L 414.171724 233.247873 
L 414.526767 234.049476 
L 414.914086 234.316677 
L 415.140022 234.209796 
L 415.511203 233.639768 
L 415.963075 232.375017 
L 416.463362 230.34429 
L 417.060479 227.209133 
L 418.512926 216.877366 
L 419.077766 210.90988 
L 419.287564 206.563412 
L 419.352117 203.392629 
L 419.465085 231.377467 
L 419.578053 231.413094 
L 419.787851 232.410644 
L 420.707734 277.157884 
L 421.579202 309.186363 
L 422.35384 330.544619 
L 423.063925 345.151601 
L 423.757871 355.518995 
L 424.451818 362.608725 
L 424.935967 365.904202 
L 425.436254 368.077436 
L 425.839712 369.039359 
L 426.275445 369.36 
L 427.066222 368.344637 
L 428.131349 364.443504 
L 428.728466 361.32616 
L 431.504253 342.212391 
L 434.021827 323.61521 
L 435.845455 311.573357 
L 435.845455 311.573357 
" style="fill:none;stroke:#ff0000;stroke-linecap:square;stroke-width:1.5;"/>
   </g>
   <g id="patch_3">
    <path d="M 63 384.48 
L 63 51.84 
" style="fill:none;stroke:#000000;stroke-linecap:square;stroke-linejoin:miter;stroke-width:0.8;"/>
   </g>
   <g id="patch_4">
    <path d="M 453.6 384.48 
L 453.6 51.84 
" style="fill:none;stroke:#000000;stroke-linecap:square;stroke-linejoin:miter;stroke-width:0.8;"/>
   </g>
   <g id="patch_5">
    <path d="M 63 384.48 
L 453.6 384.48 
" style="fill:none;stroke:#000000;stroke-linecap:square;stroke-linejoin:miter;stroke-width:0.8;"/>
   </g>
   <g id="patch_6">
    <path d="M 63 51.84 
L 453.6 51.84 
" style="fill:none;stroke:#000000;stroke-linecap:square;stroke-linejoin:miter;stroke-width:0.8;"/>
   </g>
   <g id="legend_1">
    <g id="patch_7">
     <path d="M 70 89.19625 
L 133.139062 89.19625 
Q 135.139062 89.19625 135.139062 87.19625 
L 135.139062 58.84 
Q 135.139062 56.84 133.139062 56.84 
L 70 56.84 
Q 68 56.84 68 58.84 
L 68 87.19625 
Q 68 89.19625 70 89.19625 
z
" style="fill:#ffffff;opacity:0.8;stroke:#cccccc;stroke-linejoin:miter;"/>
    </g>
    <g id="line2d_15">
     <path d="M 72 64.938437 
L 92 64.938437 
" style="fill:none;stroke:#1f77b4;stroke-linecap:square;stroke-width:1.5;"/>
    </g>
    <g id="line2d_16"/>
    <g id="text_15">
     <!-- target -->
     <defs>
      <path d="M 41.109375 46.296875 
Q 39.59375 47.171875 37.8125 47.578125 
Q 36.03125 48 33.890625 48 
Q 26.265625 48 22.1875 43.046875 
Q 18.109375 38.09375 18.109375 28.8125 
L 18.109375 0 
L 9.078125 0 
L 9.078125 54.6875 
L 18.109375 54.6875 
L 18.109375 46.1875 
Q 20.953125 51.171875 25.484375 53.578125 
Q 30.03125 56 36.53125 56 
Q 37.453125 56 38.578125 55.875 
Q 39.703125 55.765625 41.0625 55.515625 
z
" id="DejaVuSans-114"/>
     </defs>
     <g transform="translate(100 68.438437)scale(0.1 -0.1)">
      <use xlink:href="#DejaVuSans-116"/>
      <use x="39.208984" xlink:href="#DejaVuSans-97"/>
      <use x="100.488281" xlink:href="#DejaVuSans-114"/>
      <use x="141.585938" xlink:href="#DejaVuSans-103"/>
      <use x="205.0625" xlink:href="#DejaVuSans-101"/>
      <use x="266.585938" xlink:href="#DejaVuSans-116"/>
     </g>
    </g>
    <g id="line2d_17">
     <path d="M 72 79.616562 
L 92 79.616562 
" style="fill:none;stroke:#ff0000;stroke-linecap:square;stroke-width:1.5;"/>
    </g>
    <g id="line2d_18"/>
    <g id="text_16">
     <!-- model -->
     <defs>
      <path d="M 45.40625 46.390625 
L 45.40625 75.984375 
L 54.390625 75.984375 
L 54.390625 0 
L 45.40625 0 
L 45.40625 8.203125 
Q 42.578125 3.328125 38.25 0.953125 
Q 33.9375 -1.421875 27.875 -1.421875 
Q 17.96875 -1.421875 11.734375 6.484375 
Q 5.515625 14.40625 5.515625 27.296875 
Q 5.515625 40.1875 11.734375 48.09375 
Q 17.96875 56 27.875 56 
Q 33.9375 56 38.25 53.625 
Q 42.578125 51.265625 45.40625 46.390625 
z
M 14.796875 27.296875 
Q 14.796875 17.390625 18.875 11.75 
Q 22.953125 6.109375 30.078125 6.109375 
Q 37.203125 6.109375 41.296875 11.75 
Q 45.40625 17.390625 45.40625 27.296875 
Q 45.40625 37.203125 41.296875 42.84375 
Q 37.203125 48.484375 30.078125 48.484375 
Q 22.953125 48.484375 18.875 42.84375 
Q 14.796875 37.203125 14.796875 27.296875 
z
" id="DejaVuSans-100"/>
     </defs>
     <g transform="translate(100 83.116562)scale(0.1 -0.1)">
      <use xlink:href="#DejaVuSans-109"/>
      <use x="97.412109" xlink:href="#DejaVuSans-111"/>
      <use x="158.59375" xlink:href="#DejaVuSans-100"/>
      <use x="222.070312" xlink:href="#DejaVuSans-101"/>
      <use x="283.59375" xlink:href="#DejaVuSans-108"/>
     </g>
    </g>
   </g>
  </g>
 </g>
 <defs>
  <clipPath id="pf89ce2d951">
   <rect height="332.64" width="390.6" x="63" y="51.84"/>
  </clipPath>
 </defs>
</svg>
