<?xml version="1.0" encoding="utf-8" standalone="no"?>
<!DOCTYPE svg PUBLIC "-//W3C//DTD SVG 1.1//EN"
  "http://www.w3.org/Graphics/SVG/1.1/DTD/svg11.dtd">
<!-- Created with matplotlib (https://matplotlib.org/) -->
<svg height="432pt" version="1.1" viewBox="0 0 504 432" width="504pt" xmlns="http://www.w3.org/2000/svg" xmlns:xlink="http://www.w3.org/1999/xlink">
 <defs>
  <style type="text/css">
*{stroke-linecap:butt;stroke-linejoin:round;}
  </style>
 </defs>
 <g id="figure_1">
  <g id="patch_1">
   <path d="M 0 432 
L 504 432 
L 504 0 
L 0 0 
z
" style="fill:#ffffff;"/>
  </g>
  <g id="axes_1">
   <g id="patch_2">
    <path d="M 63 384.48 
L 453.6 384.48 
L 453.6 51.84 
L 63 51.84 
z
" style="fill:#ffffff;"/>
   </g>
   <g id="matplotlib.axis_1">
    <g id="xtick_1">
     <g id="line2d_1">
      <defs>
       <path d="M 0 0 
L 0 3.5 
" id="mdffdee89ae" style="stroke:#000000;stroke-width:0.8;"/>
      </defs>
      <g>
       <use style="stroke:#000000;stroke-width:0.8;" x="80.754545" xlink:href="#mdffdee89ae" y="384.48"/>
      </g>
     </g>
     <g id="text_1">
      <!-- 0 -->
      <defs>
       <path d="M 31.78125 66.40625 
Q 24.171875 66.40625 20.328125 58.90625 
Q 16.5 51.421875 16.5 36.375 
Q 16.5 21.390625 20.328125 13.890625 
Q 24.171875 6.390625 31.78125 6.390625 
Q 39.453125 6.390625 43.28125 13.890625 
Q 47.125 21.390625 47.125 36.375 
Q 47.125 51.421875 43.28125 58.90625 
Q 39.453125 66.40625 31.78125 66.40625 
z
M 31.78125 74.21875 
Q 44.046875 74.21875 50.515625 64.515625 
Q 56.984375 54.828125 56.984375 36.375 
Q 56.984375 17.96875 50.515625 8.265625 
Q 44.046875 -1.421875 31.78125 -1.421875 
Q 19.53125 -1.421875 13.0625 8.265625 
Q 6.59375 17.96875 6.59375 36.375 
Q 6.59375 54.828125 13.0625 64.515625 
Q 19.53125 74.21875 31.78125 74.21875 
z
" id="DejaVuSans-48"/>
      </defs>
      <g transform="translate(77.573295 399.078438)scale(0.1 -0.1)">
       <use xlink:href="#DejaVuSans-48"/>
      </g>
     </g>
    </g>
    <g id="xtick_2">
     <g id="line2d_2">
      <g>
       <use style="stroke:#000000;stroke-width:0.8;" x="151.772727" xlink:href="#mdffdee89ae" y="384.48"/>
      </g>
     </g>
     <g id="text_2">
      <!-- 200 -->
      <defs>
       <path d="M 19.1875 8.296875 
L 53.609375 8.296875 
L 53.609375 0 
L 7.328125 0 
L 7.328125 8.296875 
Q 12.9375 14.109375 22.625 23.890625 
Q 32.328125 33.6875 34.8125 36.53125 
Q 39.546875 41.84375 41.421875 45.53125 
Q 43.3125 49.21875 43.3125 52.78125 
Q 43.3125 58.59375 39.234375 62.25 
Q 35.15625 65.921875 28.609375 65.921875 
Q 23.96875 65.921875 18.8125 64.3125 
Q 13.671875 62.703125 7.8125 59.421875 
L 7.8125 69.390625 
Q 13.765625 71.78125 18.9375 73 
Q 24.125 74.21875 28.421875 74.21875 
Q 39.75 74.21875 46.484375 68.546875 
Q 53.21875 62.890625 53.21875 53.421875 
Q 53.21875 48.921875 51.53125 44.890625 
Q 49.859375 40.875 45.40625 35.40625 
Q 44.1875 33.984375 37.640625 27.21875 
Q 31.109375 20.453125 19.1875 8.296875 
z
" id="DejaVuSans-50"/>
      </defs>
      <g transform="translate(142.228977 399.078438)scale(0.1 -0.1)">
       <use xlink:href="#DejaVuSans-50"/>
       <use x="63.623047" xlink:href="#DejaVuSans-48"/>
       <use x="127.246094" xlink:href="#DejaVuSans-48"/>
      </g>
     </g>
    </g>
    <g id="xtick_3">
     <g id="line2d_3">
      <g>
       <use style="stroke:#000000;stroke-width:0.8;" x="222.790909" xlink:href="#mdffdee89ae" y="384.48"/>
      </g>
     </g>
     <g id="text_3">
      <!-- 400 -->
      <defs>
       <path d="M 37.796875 64.3125 
L 12.890625 25.390625 
L 37.796875 25.390625 
z
M 35.203125 72.90625 
L 47.609375 72.90625 
L 47.609375 25.390625 
L 58.015625 25.390625 
L 58.015625 17.1875 
L 47.609375 17.1875 
L 47.609375 0 
L 37.796875 0 
L 37.796875 17.1875 
L 4.890625 17.1875 
L 4.890625 26.703125 
z
" id="DejaVuSans-52"/>
      </defs>
      <g transform="translate(213.247159 399.078438)scale(0.1 -0.1)">
       <use xlink:href="#DejaVuSans-52"/>
       <use x="63.623047" xlink:href="#DejaVuSans-48"/>
       <use x="127.246094" xlink:href="#DejaVuSans-48"/>
      </g>
     </g>
    </g>
    <g id="xtick_4">
     <g id="line2d_4">
      <g>
       <use style="stroke:#000000;stroke-width:0.8;" x="293.809091" xlink:href="#mdffdee89ae" y="384.48"/>
      </g>
     </g>
     <g id="text_4">
      <!-- 600 -->
      <defs>
       <path d="M 33.015625 40.375 
Q 26.375 40.375 22.484375 35.828125 
Q 18.609375 31.296875 18.609375 23.390625 
Q 18.609375 15.53125 22.484375 10.953125 
Q 26.375 6.390625 33.015625 6.390625 
Q 39.65625 6.390625 43.53125 10.953125 
Q 47.40625 15.53125 47.40625 23.390625 
Q 47.40625 31.296875 43.53125 35.828125 
Q 39.65625 40.375 33.015625 40.375 
z
M 52.59375 71.296875 
L 52.59375 62.3125 
Q 48.875 64.0625 45.09375 64.984375 
Q 41.3125 65.921875 37.59375 65.921875 
Q 27.828125 65.921875 22.671875 59.328125 
Q 17.53125 52.734375 16.796875 39.40625 
Q 19.671875 43.65625 24.015625 45.921875 
Q 28.375 48.1875 33.59375 48.1875 
Q 44.578125 48.1875 50.953125 41.515625 
Q 57.328125 34.859375 57.328125 23.390625 
Q 57.328125 12.15625 50.6875 5.359375 
Q 44.046875 -1.421875 33.015625 -1.421875 
Q 20.359375 -1.421875 13.671875 8.265625 
Q 6.984375 17.96875 6.984375 36.375 
Q 6.984375 53.65625 15.1875 63.9375 
Q 23.390625 74.21875 37.203125 74.21875 
Q 40.921875 74.21875 44.703125 73.484375 
Q 48.484375 72.75 52.59375 71.296875 
z
" id="DejaVuSans-54"/>
      </defs>
      <g transform="translate(284.265341 399.078438)scale(0.1 -0.1)">
       <use xlink:href="#DejaVuSans-54"/>
       <use x="63.623047" xlink:href="#DejaVuSans-48"/>
       <use x="127.246094" xlink:href="#DejaVuSans-48"/>
      </g>
     </g>
    </g>
    <g id="xtick_5">
     <g id="line2d_5">
      <g>
       <use style="stroke:#000000;stroke-width:0.8;" x="364.827273" xlink:href="#mdffdee89ae" y="384.48"/>
      </g>
     </g>
     <g id="text_5">
      <!-- 800 -->
      <defs>
       <path d="M 31.78125 34.625 
Q 24.75 34.625 20.71875 30.859375 
Q 16.703125 27.09375 16.703125 20.515625 
Q 16.703125 13.921875 20.71875 10.15625 
Q 24.75 6.390625 31.78125 6.390625 
Q 38.8125 6.390625 42.859375 10.171875 
Q 46.921875 13.96875 46.921875 20.515625 
Q 46.921875 27.09375 42.890625 30.859375 
Q 38.875 34.625 31.78125 34.625 
z
M 21.921875 38.8125 
Q 15.578125 40.375 12.03125 44.71875 
Q 8.5 49.078125 8.5 55.328125 
Q 8.5 64.0625 14.71875 69.140625 
Q 20.953125 74.21875 31.78125 74.21875 
Q 42.671875 74.21875 48.875 69.140625 
Q 55.078125 64.0625 55.078125 55.328125 
Q 55.078125 49.078125 51.53125 44.71875 
Q 48 40.375 41.703125 38.8125 
Q 48.828125 37.15625 52.796875 32.3125 
Q 56.78125 27.484375 56.78125 20.515625 
Q 56.78125 9.90625 50.3125 4.234375 
Q 43.84375 -1.421875 31.78125 -1.421875 
Q 19.734375 -1.421875 13.25 4.234375 
Q 6.78125 9.90625 6.78125 20.515625 
Q 6.78125 27.484375 10.78125 32.3125 
Q 14.796875 37.15625 21.921875 38.8125 
z
M 18.3125 54.390625 
Q 18.3125 48.734375 21.84375 45.5625 
Q 25.390625 42.390625 31.78125 42.390625 
Q 38.140625 42.390625 41.71875 45.5625 
Q 45.3125 48.734375 45.3125 54.390625 
Q 45.3125 60.0625 41.71875 63.234375 
Q 38.140625 66.40625 31.78125 66.40625 
Q 25.390625 66.40625 21.84375 63.234375 
Q 18.3125 60.0625 18.3125 54.390625 
z
" id="DejaVuSans-56"/>
      </defs>
      <g transform="translate(355.283523 399.078438)scale(0.1 -0.1)">
       <use xlink:href="#DejaVuSans-56"/>
       <use x="63.623047" xlink:href="#DejaVuSans-48"/>
       <use x="127.246094" xlink:href="#DejaVuSans-48"/>
      </g>
     </g>
    </g>
    <g id="text_6">
     <!-- time [ms] -->
     <defs>
      <path d="M 18.3125 70.21875 
L 18.3125 54.6875 
L 36.8125 54.6875 
L 36.8125 47.703125 
L 18.3125 47.703125 
L 18.3125 18.015625 
Q 18.3125 11.328125 20.140625 9.421875 
Q 21.96875 7.515625 27.59375 7.515625 
L 36.8125 7.515625 
L 36.8125 0 
L 27.59375 0 
Q 17.1875 0 13.234375 3.875 
Q 9.28125 7.765625 9.28125 18.015625 
L 9.28125 47.703125 
L 2.6875 47.703125 
L 2.6875 54.6875 
L 9.28125 54.6875 
L 9.28125 70.21875 
z
" id="DejaVuSans-116"/>
      <path d="M 9.421875 54.6875 
L 18.40625 54.6875 
L 18.40625 0 
L 9.421875 0 
z
M 9.421875 75.984375 
L 18.40625 75.984375 
L 18.40625 64.59375 
L 9.421875 64.59375 
z
" id="DejaVuSans-105"/>
      <path d="M 52 44.1875 
Q 55.375 50.25 60.0625 53.125 
Q 64.75 56 71.09375 56 
Q 79.640625 56 84.28125 50.015625 
Q 88.921875 44.046875 88.921875 33.015625 
L 88.921875 0 
L 79.890625 0 
L 79.890625 32.71875 
Q 79.890625 40.578125 77.09375 44.375 
Q 74.3125 48.1875 68.609375 48.1875 
Q 61.625 48.1875 57.5625 43.546875 
Q 53.515625 38.921875 53.515625 30.90625 
L 53.515625 0 
L 44.484375 0 
L 44.484375 32.71875 
Q 44.484375 40.625 41.703125 44.40625 
Q 38.921875 48.1875 33.109375 48.1875 
Q 26.21875 48.1875 22.15625 43.53125 
Q 18.109375 38.875 18.109375 30.90625 
L 18.109375 0 
L 9.078125 0 
L 9.078125 54.6875 
L 18.109375 54.6875 
L 18.109375 46.1875 
Q 21.1875 51.21875 25.484375 53.609375 
Q 29.78125 56 35.6875 56 
Q 41.65625 56 45.828125 52.96875 
Q 50 49.953125 52 44.1875 
z
" id="DejaVuSans-109"/>
      <path d="M 56.203125 29.59375 
L 56.203125 25.203125 
L 14.890625 25.203125 
Q 15.484375 15.921875 20.484375 11.0625 
Q 25.484375 6.203125 34.421875 6.203125 
Q 39.59375 6.203125 44.453125 7.46875 
Q 49.3125 8.734375 54.109375 11.28125 
L 54.109375 2.78125 
Q 49.265625 0.734375 44.1875 -0.34375 
Q 39.109375 -1.421875 33.890625 -1.421875 
Q 20.796875 -1.421875 13.15625 6.1875 
Q 5.515625 13.8125 5.515625 26.8125 
Q 5.515625 40.234375 12.765625 48.109375 
Q 20.015625 56 32.328125 56 
Q 43.359375 56 49.78125 48.890625 
Q 56.203125 41.796875 56.203125 29.59375 
z
M 47.21875 32.234375 
Q 47.125 39.59375 43.09375 43.984375 
Q 39.0625 48.390625 32.421875 48.390625 
Q 24.90625 48.390625 20.390625 44.140625 
Q 15.875 39.890625 15.1875 32.171875 
z
" id="DejaVuSans-101"/>
      <path id="DejaVuSans-32"/>
      <path d="M 8.59375 75.984375 
L 29.296875 75.984375 
L 29.296875 69 
L 17.578125 69 
L 17.578125 -6.203125 
L 29.296875 -6.203125 
L 29.296875 -13.1875 
L 8.59375 -13.1875 
z
" id="DejaVuSans-91"/>
      <path d="M 44.28125 53.078125 
L 44.28125 44.578125 
Q 40.484375 46.53125 36.375 47.5 
Q 32.28125 48.484375 27.875 48.484375 
Q 21.1875 48.484375 17.84375 46.4375 
Q 14.5 44.390625 14.5 40.28125 
Q 14.5 37.15625 16.890625 35.375 
Q 19.28125 33.59375 26.515625 31.984375 
L 29.59375 31.296875 
Q 39.15625 29.25 43.1875 25.515625 
Q 47.21875 21.78125 47.21875 15.09375 
Q 47.21875 7.46875 41.1875 3.015625 
Q 35.15625 -1.421875 24.609375 -1.421875 
Q 20.21875 -1.421875 15.453125 -0.5625 
Q 10.6875 0.296875 5.421875 2 
L 5.421875 11.28125 
Q 10.40625 8.6875 15.234375 7.390625 
Q 20.0625 6.109375 24.8125 6.109375 
Q 31.15625 6.109375 34.5625 8.28125 
Q 37.984375 10.453125 37.984375 14.40625 
Q 37.984375 18.0625 35.515625 20.015625 
Q 33.0625 21.96875 24.703125 23.78125 
L 21.578125 24.515625 
Q 13.234375 26.265625 9.515625 29.90625 
Q 5.8125 33.546875 5.8125 39.890625 
Q 5.8125 47.609375 11.28125 51.796875 
Q 16.75 56 26.8125 56 
Q 31.78125 56 36.171875 55.265625 
Q 40.578125 54.546875 44.28125 53.078125 
z
" id="DejaVuSans-115"/>
      <path d="M 30.421875 75.984375 
L 30.421875 -13.1875 
L 9.71875 -13.1875 
L 9.71875 -6.203125 
L 21.390625 -6.203125 
L 21.390625 69 
L 9.71875 69 
L 9.71875 75.984375 
z
" id="DejaVuSans-93"/>
     </defs>
     <g transform="translate(234.038281 412.756563)scale(0.1 -0.1)">
      <use xlink:href="#DejaVuSans-116"/>
      <use x="39.208984" xlink:href="#DejaVuSans-105"/>
      <use x="66.992188" xlink:href="#DejaVuSans-109"/>
      <use x="164.404297" xlink:href="#DejaVuSans-101"/>
      <use x="225.927734" xlink:href="#DejaVuSans-32"/>
      <use x="257.714844" xlink:href="#DejaVuSans-91"/>
      <use x="296.728516" xlink:href="#DejaVuSans-109"/>
      <use x="394.140625" xlink:href="#DejaVuSans-115"/>
      <use x="446.240234" xlink:href="#DejaVuSans-93"/>
     </g>
    </g>
   </g>
   <g id="matplotlib.axis_2">
    <g id="ytick_1">
     <g id="line2d_6">
      <defs>
       <path d="M 0 0 
L -3.5 0 
" id="m5ae2ea204c" style="stroke:#000000;stroke-width:0.8;"/>
      </defs>
      <g>
       <use style="stroke:#000000;stroke-width:0.8;" x="63" xlink:href="#m5ae2ea204c" y="347.23486"/>
      </g>
     </g>
     <g id="text_7">
      <!-- −60 -->
      <defs>
       <path d="M 10.59375 35.5 
L 73.1875 35.5 
L 73.1875 27.203125 
L 10.59375 27.203125 
z
" id="DejaVuSans-8722"/>
      </defs>
      <g transform="translate(34.895313 351.034079)scale(0.1 -0.1)">
       <use xlink:href="#DejaVuSans-8722"/>
       <use x="83.789062" xlink:href="#DejaVuSans-54"/>
       <use x="147.412109" xlink:href="#DejaVuSans-48"/>
      </g>
     </g>
    </g>
    <g id="ytick_2">
     <g id="line2d_7">
      <g>
       <use style="stroke:#000000;stroke-width:0.8;" x="63" xlink:href="#m5ae2ea204c" y="280.329034"/>
      </g>
     </g>
     <g id="text_8">
      <!-- −40 -->
      <g transform="translate(34.895313 284.128253)scale(0.1 -0.1)">
       <use xlink:href="#DejaVuSans-8722"/>
       <use x="83.789062" xlink:href="#DejaVuSans-52"/>
       <use x="147.412109" xlink:href="#DejaVuSans-48"/>
      </g>
     </g>
    </g>
    <g id="ytick_3">
     <g id="line2d_8">
      <g>
       <use style="stroke:#000000;stroke-width:0.8;" x="63" xlink:href="#m5ae2ea204c" y="213.423208"/>
      </g>
     </g>
     <g id="text_9">
      <!-- −20 -->
      <g transform="translate(34.895313 217.222427)scale(0.1 -0.1)">
       <use xlink:href="#DejaVuSans-8722"/>
       <use x="83.789062" xlink:href="#DejaVuSans-50"/>
       <use x="147.412109" xlink:href="#DejaVuSans-48"/>
      </g>
     </g>
    </g>
    <g id="ytick_4">
     <g id="line2d_9">
      <g>
       <use style="stroke:#000000;stroke-width:0.8;" x="63" xlink:href="#m5ae2ea204c" y="146.517382"/>
      </g>
     </g>
     <g id="text_10">
      <!-- 0 -->
      <g transform="translate(49.6375 150.3166)scale(0.1 -0.1)">
       <use xlink:href="#DejaVuSans-48"/>
      </g>
     </g>
    </g>
    <g id="ytick_5">
     <g id="line2d_10">
      <g>
       <use style="stroke:#000000;stroke-width:0.8;" x="63" xlink:href="#m5ae2ea204c" y="79.611556"/>
      </g>
     </g>
     <g id="text_11">
      <!-- 20 -->
      <g transform="translate(43.275 83.410774)scale(0.1 -0.1)">
       <use xlink:href="#DejaVuSans-50"/>
       <use x="63.623047" xlink:href="#DejaVuSans-48"/>
      </g>
     </g>
    </g>
    <g id="text_12">
     <!-- voltage [V] -->
     <defs>
      <path d="M 2.984375 54.6875 
L 12.5 54.6875 
L 29.59375 8.796875 
L 46.6875 54.6875 
L 56.203125 54.6875 
L 35.6875 0 
L 23.484375 0 
z
" id="DejaVuSans-118"/>
      <path d="M 30.609375 48.390625 
Q 23.390625 48.390625 19.1875 42.75 
Q 14.984375 37.109375 14.984375 27.296875 
Q 14.984375 17.484375 19.15625 11.84375 
Q 23.34375 6.203125 30.609375 6.203125 
Q 37.796875 6.203125 41.984375 11.859375 
Q 46.1875 17.53125 46.1875 27.296875 
Q 46.1875 37.015625 41.984375 42.703125 
Q 37.796875 48.390625 30.609375 48.390625 
z
M 30.609375 56 
Q 42.328125 56 49.015625 48.375 
Q 55.71875 40.765625 55.71875 27.296875 
Q 55.71875 13.875 49.015625 6.21875 
Q 42.328125 -1.421875 30.609375 -1.421875 
Q 18.84375 -1.421875 12.171875 6.21875 
Q 5.515625 13.875 5.515625 27.296875 
Q 5.515625 40.765625 12.171875 48.375 
Q 18.84375 56 30.609375 56 
z
" id="DejaVuSans-111"/>
      <path d="M 9.421875 75.984375 
L 18.40625 75.984375 
L 18.40625 0 
L 9.421875 0 
z
" id="DejaVuSans-108"/>
      <path d="M 34.28125 27.484375 
Q 23.390625 27.484375 19.1875 25 
Q 14.984375 22.515625 14.984375 16.5 
Q 14.984375 11.71875 18.140625 8.90625 
Q 21.296875 6.109375 26.703125 6.109375 
Q 34.1875 6.109375 38.703125 11.40625 
Q 43.21875 16.703125 43.21875 25.484375 
L 43.21875 27.484375 
z
M 52.203125 31.203125 
L 52.203125 0 
L 43.21875 0 
L 43.21875 8.296875 
Q 40.140625 3.328125 35.546875 0.953125 
Q 30.953125 -1.421875 24.3125 -1.421875 
Q 15.921875 -1.421875 10.953125 3.296875 
Q 6 8.015625 6 15.921875 
Q 6 25.140625 12.171875 29.828125 
Q 18.359375 34.515625 30.609375 34.515625 
L 43.21875 34.515625 
L 43.21875 35.40625 
Q 43.21875 41.609375 39.140625 45 
Q 35.0625 48.390625 27.6875 48.390625 
Q 23 48.390625 18.546875 47.265625 
Q 14.109375 46.140625 10.015625 43.890625 
L 10.015625 52.203125 
Q 14.9375 54.109375 19.578125 55.046875 
Q 24.21875 56 28.609375 56 
Q 40.484375 56 46.34375 49.84375 
Q 52.203125 43.703125 52.203125 31.203125 
z
" id="DejaVuSans-97"/>
      <path d="M 45.40625 27.984375 
Q 45.40625 37.75 41.375 43.109375 
Q 37.359375 48.484375 30.078125 48.484375 
Q 22.859375 48.484375 18.828125 43.109375 
Q 14.796875 37.75 14.796875 27.984375 
Q 14.796875 18.265625 18.828125 12.890625 
Q 22.859375 7.515625 30.078125 7.515625 
Q 37.359375 7.515625 41.375 12.890625 
Q 45.40625 18.265625 45.40625 27.984375 
z
M 54.390625 6.78125 
Q 54.390625 -7.171875 48.1875 -13.984375 
Q 42 -20.796875 29.203125 -20.796875 
Q 24.46875 -20.796875 20.265625 -20.09375 
Q 16.0625 -19.390625 12.109375 -17.921875 
L 12.109375 -9.1875 
Q 16.0625 -11.328125 19.921875 -12.34375 
Q 23.78125 -13.375 27.78125 -13.375 
Q 36.625 -13.375 41.015625 -8.765625 
Q 45.40625 -4.15625 45.40625 5.171875 
L 45.40625 9.625 
Q 42.625 4.78125 38.28125 2.390625 
Q 33.9375 0 27.875 0 
Q 17.828125 0 11.671875 7.65625 
Q 5.515625 15.328125 5.515625 27.984375 
Q 5.515625 40.671875 11.671875 48.328125 
Q 17.828125 56 27.875 56 
Q 33.9375 56 38.28125 53.609375 
Q 42.625 51.21875 45.40625 46.390625 
L 45.40625 54.6875 
L 54.390625 54.6875 
z
" id="DejaVuSans-103"/>
      <path d="M 28.609375 0 
L 0.78125 72.90625 
L 11.078125 72.90625 
L 34.1875 11.53125 
L 57.328125 72.90625 
L 67.578125 72.90625 
L 39.796875 0 
z
" id="DejaVuSans-86"/>
     </defs>
     <g transform="translate(28.815625 245.75375)rotate(-90)scale(0.1 -0.1)">
      <use xlink:href="#DejaVuSans-118"/>
      <use x="59.179688" xlink:href="#DejaVuSans-111"/>
      <use x="120.361328" xlink:href="#DejaVuSans-108"/>
      <use x="148.144531" xlink:href="#DejaVuSans-116"/>
      <use x="187.353516" xlink:href="#DejaVuSans-97"/>
      <use x="248.632812" xlink:href="#DejaVuSans-103"/>
      <use x="312.109375" xlink:href="#DejaVuSans-101"/>
      <use x="373.632812" xlink:href="#DejaVuSans-32"/>
      <use x="405.419922" xlink:href="#DejaVuSans-91"/>
      <use x="444.433594" xlink:href="#DejaVuSans-86"/>
      <use x="512.841797" xlink:href="#DejaVuSans-93"/>
     </g>
    </g>
   </g>
   <g id="line2d_11">
    <path clip-path="url(#p790608f510)" d="M 80.754545 363.961308 
L 81.695536 363.97325 
L 85.725818 364.392228 
L 98.526845 365.709865 
L 108.646936 366.507374 
L 119.477209 367.134277 
L 131.639073 367.610286 
L 145.860464 367.937232 
L 151.772727 368.01909 
L 151.8615 366.00312 
L 152.234345 357.788677 
L 152.731473 352.039179 
L 153.565936 345.246398 
L 154.9863 335.674799 
L 156.726245 325.477425 
L 158.412927 316.855201 
L 160.028591 309.712586 
L 161.590991 303.804766 
L 163.153391 298.772275 
L 164.840073 294.108598 
L 167.236936 288.219017 
L 168.941373 283.798729 
L 169.793591 280.981961 
L 170.361736 278.355772 
L 170.752336 275.51041 
L 171.036409 271.423136 
L 171.1962 264.217176 
L 171.249464 256.205936 
L 171.622309 69.294614 
L 171.675573 66.96 
L 171.746591 67.200403 
L 171.906382 79.996112 
L 172.190455 132.540084 
L 172.847373 250.512503 
L 173.220218 284.92761 
L 173.5398 297.269919 
L 173.912645 303.705912 
L 174.303245 307.073373 
L 174.782618 309.278477 
L 175.226482 310.38937 
L 175.6881 310.979953 
L 176.096455 311.173115 
L 176.522564 311.129516 
L 177.019691 310.837287 
L 177.676609 310.154537 
L 178.528827 308.92075 
L 179.771645 306.703643 
L 182.807673 300.666546 
L 185.470855 295.661374 
L 188.134036 291.156534 
L 192.199827 284.338523 
L 193.336118 281.914565 
L 194.117318 279.709718 
L 194.685464 277.382536 
L 195.093818 274.596691 
L 195.324627 271.647181 
L 195.502173 265.71284 
L 195.573191 256.50595 
L 195.626455 229.100522 
L 195.839509 97.691726 
L 196.017055 89.085463 
L 196.034809 89.044055 
L 196.176845 92.772754 
L 196.407655 109.80055 
L 196.744991 158.467912 
L 197.437418 255.781078 
L 197.810264 280.444155 
L 198.200864 292.133275 
L 198.591464 297.753263 
L 199.070836 301.439353 
L 199.550209 303.601631 
L 200.082845 305.091552 
L 200.650991 306.033061 
L 201.219136 306.524399 
L 201.787282 306.691966 
L 202.390936 306.606985 
L 203.083364 306.264384 
L 203.988845 305.536925 
L 205.231664 304.212517 
L 207.220173 301.715998 
L 212.9904 294.340493 
L 217.837391 288.68285 
L 220.4118 285.486375 
L 221.885427 283.307838 
L 222.915191 281.39297 
L 223.660882 279.546983 
L 224.229027 277.525784 
L 224.637382 275.205431 
L 224.9037 272.487181 
L 225.081245 268.7403 
L 225.205527 259.513923 
L 225.241036 246.044364 
L 225.525109 96.489463 
L 225.596127 94.145787 
L 225.667145 94.696098 
L 225.862445 102.596763 
L 226.164273 126.900044 
L 226.679155 195.752185 
L 227.229545 257.363188 
L 227.6379 278.675849 
L 228.046255 288.970665 
L 228.454609 294.324978 
L 228.933982 297.946287 
L 229.502127 300.548798 
L 230.105782 302.282365 
L 230.691682 303.350209 
L 231.313091 304.031034 
L 231.898991 304.364365 
L 232.538155 304.472568 
L 233.266091 304.353262 
L 234.136064 303.964987 
L 235.236845 303.21186 
L 236.781491 301.856709 
L 239.320391 299.292899 
L 247.416464 291.009196 
L 251.428991 286.839411 
L 253.328727 284.547011 
L 254.607055 282.672307 
L 255.548045 280.9138 
L 256.258227 279.119613 
L 256.790864 277.156483 
L 257.181464 274.829367 
L 257.447782 271.837044 
L 257.607573 267.901451 
L 257.696345 261.41232 
L 257.767364 238.310565 
L 257.998173 100.092105 
L 258.122455 94.836303 
L 258.157964 95.443325 
L 258.264491 98.911864 
L 258.566318 119.259217 
L 258.956918 163.509545 
L 259.755873 255.917254 
L 260.181982 277.783853 
L 260.590336 287.894132 
L 261.016445 293.265548 
L 261.495818 296.67559 
L 262.028455 299.010957 
L 262.649864 300.754125 
L 263.271273 301.869443 
L 263.892682 302.56325 
L 264.531845 302.957587 
L 265.206518 303.111653 
L 265.952209 303.047131 
L 266.839936 302.735553 
L 267.958473 302.090418 
L 269.449855 300.955717 
L 271.722436 298.923207 
L 281.185609 289.92272 
L 284.434691 286.640268 
L 286.281164 284.47236 
L 287.577245 282.619499 
L 288.518236 280.901563 
L 289.246173 279.101519 
L 289.778809 277.17757 
L 290.151655 275.045284 
L 290.435727 272.070125 
L 290.631027 266.950627 
L 290.7198 258.572698 
L 290.844082 161.484926 
L 291.003873 99.233453 
L 291.128155 95.128818 
L 291.163664 95.657033 
L 291.341209 103.089478 
L 291.643036 126.687514 
L 292.175673 192.443319 
L 292.761573 255.409621 
L 293.152173 275.907412 
L 293.560527 286.807003 
L 294.004391 292.731721 
L 294.483764 296.273644 
L 295.051909 298.800632 
L 295.673318 300.541787 
L 296.276973 301.633961 
L 296.916136 302.358319 
L 297.5553 302.760796 
L 298.247727 302.92702 
L 299.028927 302.863409 
L 299.952164 302.540225 
L 301.123964 301.864369 
L 302.668609 300.693792 
L 305.154245 298.487381 
L 315.451882 288.80085 
L 318.150573 286.010347 
L 319.837255 283.957161 
L 321.062318 282.111438 
L 321.950045 280.366872 
L 322.589209 278.642538 
L 323.068582 276.74666 
L 323.423673 274.475023 
L 323.672236 271.536549 
L 323.849782 266.013338 
L 323.938555 255.170072 
L 323.974064 234.65036 
L 324.204873 100.47721 
L 324.3114 94.911324 
L 324.346909 95.389057 
L 324.453436 98.399029 
L 324.755264 118.425174 
L 325.163618 163.945329 
L 325.962573 255.230488 
L 326.388682 277.182446 
L 326.797036 287.520511 
L 327.2409 293.169064 
L 327.738027 296.658546 
L 328.306173 299.052624 
L 328.927582 300.705531 
L 329.5845 301.808414 
L 330.223664 302.456703 
L 330.880582 302.808321 
L 331.555255 302.922282 
L 332.354209 302.815472 
L 333.2952 302.447038 
L 334.484755 301.725833 
L 336.135927 300.439127 
L 338.834618 298.011767 
L 350.179773 287.282407 
L 352.274809 284.963873 
L 353.677418 283.098436 
L 354.724936 281.343499 
L 355.506136 279.598684 
L 356.092036 277.731361 
L 356.518145 275.616496 
L 356.819973 272.985834 
L 357.015273 269.426182 
L 357.139555 263.027232 
L 357.210573 244.004842 
L 357.476891 97.914218 
L 357.565664 95.074747 
L 357.618927 95.658069 
L 357.778718 102.186843 
L 358.116055 128.745817 
L 358.648691 195.08847 
L 359.216836 255.658748 
L 359.625191 276.912897 
L 360.033545 287.487348 
L 360.459655 293.070675 
L 360.939027 296.557363 
L 361.453909 298.842226 
L 362.057564 300.554455 
L 362.678973 301.683564 
L 363.318136 302.401297 
L 363.975055 302.803684 
L 364.649727 302.955784 
L 364.862782 302.959891 
L 364.969309 305.161428 
L 365.306645 312.436249 
L 365.786018 317.566206 
L 366.460691 322.193806 
L 367.348418 326.735422 
L 368.395936 330.9514 
L 369.532227 334.647969 
L 370.775045 337.976722 
L 372.1599 341.057359 
L 373.633527 343.800679 
L 375.213682 346.282329 
L 376.900364 348.529546 
L 378.729082 350.603461 
L 380.735345 352.540808 
L 382.9014 354.322386 
L 385.280509 355.988931 
L 387.890427 357.543873 
L 390.819927 359.0235 
L 394.051255 360.402032 
L 397.673182 361.701642 
L 401.721218 362.915166 
L 406.266382 364.042971 
L 411.361936 365.075258 
L 417.061145 365.99966 
L 423.417273 366.80228 
L 430.5546 367.475214 
L 435.8277 367.84686 
L 435.8277 367.84686 
" style="fill:none;stroke:#1f77b4;stroke-linecap:square;stroke-width:1.5;"/>
   </g>
   <g id="line2d_12">
    <path clip-path="url(#p790608f510)" d="M 80.754545 363.961316 
L 81.020864 363.936022 
L 82.228173 364.109379 
L 93.644345 366.078774 
L 99.077236 366.684501 
L 105.025009 367.119375 
L 111.913773 367.392931 
L 120.631255 367.504389 
L 134.639591 367.42965 
L 151.772727 367.278107 
L 151.985782 357.112597 
L 152.429645 347.497787 
L 153.139827 337.244766 
L 154.134082 326.13655 
L 155.217109 316.392017 
L 156.264627 308.883078 
L 157.276636 303.164084 
L 158.3064 298.576633 
L 159.407182 294.678939 
L 160.614491 291.219399 
L 162.034855 287.834137 
L 164.342945 283.012952 
L 165.710045 279.905731 
L 166.473491 277.614052 
L 166.988373 275.355583 
L 167.343464 272.812932 
L 167.592027 269.422756 
L 167.751818 264.117537 
L 167.840591 253.726056 
L 167.893855 207.633941 
L 168.000382 71.361505 
L 168.035891 77.655229 
L 168.284455 199.646911 
L 168.604036 314.106451 
L 168.817091 324.186554 
L 169.030145 326.316141 
L 169.2432 326.716865 
L 169.687064 326.914863 
L 170.006645 326.873963 
L 170.308473 326.584075 
L 170.699073 325.845863 
L 171.267218 324.214927 
L 172.208209 320.715319 
L 175.368518 308.537147 
L 176.788882 304.142459 
L 178.191491 300.50767 
L 179.647364 297.339149 
L 181.192009 294.499979 
L 182.878691 291.863999 
L 184.760673 289.340499 
L 186.997745 286.724322 
L 192.821236 280.123922 
L 193.797736 278.525219 
L 194.507918 276.931822 
L 195.0228 275.237659 
L 195.4134 273.18481 
L 195.697473 270.477773 
L 195.892773 266.392134 
L 196.017055 258.240306 
L 196.070318 242.741805 
L 196.1946 75.547935 
L 196.301127 105.839378 
L 196.833764 310.812993 
L 197.064573 319.921364 
L 197.330891 322.910276 
L 197.632718 324.025334 
L 197.987809 324.539904 
L 198.271882 324.618402 
L 198.5382 324.454803 
L 198.893291 323.932175 
L 199.408173 322.711281 
L 200.224882 320.108088 
L 204.539236 305.45716 
L 205.995109 301.698607 
L 207.468736 298.495762 
L 209.031136 295.628539 
L 210.700064 293.031885 
L 212.511027 290.626397 
L 214.5528 288.287525 
L 217.0917 285.733278 
L 222.116236 280.769286 
L 223.305791 279.20889 
L 224.140255 277.757937 
L 224.761664 276.238258 
L 225.241036 274.456466 
L 225.596127 272.230459 
L 225.844691 269.222101 
L 226.004482 264.724891 
L 226.111009 254.154433 
L 226.164273 216.32648 
L 226.2708 75.781833 
L 226.306309 80.677293 
L 226.501609 170.296046 
L 226.892209 309.780325 
L 227.123018 319.094745 
L 227.407091 322.251933 
L 227.726673 323.544284 
L 228.081764 324.159672 
L 228.365836 324.279756 
L 228.632155 324.13799 
L 228.969491 323.666945 
L 229.466618 322.533357 
L 230.247818 320.117037 
L 234.864 304.803116 
L 236.319873 301.193953 
L 237.811255 298.080843 
L 239.373655 295.324972 
L 241.042582 292.825089 
L 242.8713 290.485829 
L 244.930827 288.216452 
L 247.469727 285.765291 
L 252.938127 280.603405 
L 254.109927 279.107384 
L 254.944391 277.690621 
L 255.5658 276.202842 
L 256.045173 274.458456 
L 256.400264 272.288671 
L 256.648827 269.394936 
L 256.826373 264.40856 
L 256.915145 256.431587 
L 256.968409 233.388744 
L 257.092691 76.034789 
L 257.145955 88.301349 
L 257.820627 316.226183 
L 258.069191 321.157904 
L 258.353264 322.992397 
L 258.708355 323.945891 
L 259.027936 324.290683 
L 259.294255 324.284332 
L 259.578327 324.025143 
L 259.968927 323.330957 
L 260.554827 321.783764 
L 261.566836 318.380723 
L 264.5496 308.098615 
L 266.023227 303.942483 
L 267.4791 300.486979 
L 268.988236 297.471514 
L 270.568391 294.803397 
L 272.272827 292.359778 
L 274.137055 290.077853 
L 276.249845 287.849077 
L 278.895273 285.399615 
L 283.973073 280.778011 
L 285.215891 279.287631 
L 286.103618 277.880914 
L 286.760536 276.420795 
L 287.257664 274.761847 
L 287.630509 272.719153 
L 287.896827 270.020203 
L 288.092127 265.431807 
L 288.198655 257.333506 
L 288.251918 238.614963 
L 288.3762 75.982024 
L 288.464973 100.525065 
L 289.033118 312.576633 
L 289.263927 320.048715 
L 289.530245 322.545218 
L 289.867582 323.72763 
L 290.222673 324.266443 
L 290.506745 324.343966 
L 290.773064 324.16844 
L 291.128155 323.629237 
L 291.660791 322.34807 
L 292.513009 319.627292 
L 296.454518 306.336211 
L 297.910391 302.519325 
L 299.384018 299.270785 
L 300.910909 296.433668 
L 302.544327 293.86601 
L 304.302027 291.518444 
L 306.237273 289.307382 
L 308.474345 287.097446 
L 311.457109 284.4879 
L 315.256582 281.140601 
L 316.641436 279.613846 
L 317.600182 278.237598 
L 318.310364 276.833448 
L 318.843 275.291012 
L 319.251355 273.414796 
L 319.553182 270.947409 
L 319.766236 267.256122 
L 319.890518 261.535371 
L 319.961536 249.57032 
L 320.0148 170.780146 
L 320.103573 76.080851 
L 320.139082 80.375916 
L 320.316627 160.403325 
L 320.724982 309.791929 
L 320.955791 319.41313 
L 321.222109 322.350634 
L 321.541691 323.599903 
L 321.896782 324.21807 
L 322.180855 324.35229 
L 322.447173 324.223536 
L 322.784509 323.766292 
L 323.281636 322.648545 
L 324.062836 320.251098 
L 328.732282 304.862258 
L 330.188155 301.294568 
L 331.679536 298.221325 
L 333.241936 295.505658 
L 334.910864 293.048961 
L 336.721827 290.780625 
L 338.728091 288.626571 
L 341.089445 286.425581 
L 344.729127 283.38244 
L 347.410064 281.023005 
L 348.777164 279.53368 
L 349.735909 278.168344 
L 350.446091 276.768125 
L 350.978727 275.221144 
L 351.387082 273.325195 
L 351.688909 270.801368 
L 351.901964 266.929412 
L 352.026245 260.543768 
L 352.097264 244.618578 
L 352.2393 76.428499 
L 352.345827 112.946478 
L 352.842955 309.273673 
L 353.073764 319.313934 
L 353.340082 322.324101 
L 353.659664 323.583375 
L 354.032509 324.223271 
L 354.316582 324.343767 
L 354.5829 324.204532 
L 354.920236 323.737197 
L 355.417364 322.610042 
L 356.198564 320.206879 
L 360.796991 305.042365 
L 362.252864 301.457985 
L 363.744245 298.372212 
L 364.827273 296.43571 
L 365.022573 305.626654 
L 365.395418 312.760405 
L 365.9103 318.364117 
L 366.602727 323.468312 
L 367.4727 328.25762 
L 368.502464 332.70904 
L 369.674264 336.80152 
L 370.970345 340.526057 
L 372.372955 343.888259 
L 373.899845 346.972114 
L 375.533264 349.773752 
L 377.290964 352.350551 
L 379.172945 354.718334 
L 381.196964 356.907635 
L 383.345264 358.905109 
L 385.6356 360.731167 
L 388.050218 362.373208 
L 390.606873 363.843367 
L 393.305564 365.138109 
L 396.146291 366.254297 
L 399.164564 367.200025 
L 402.378136 367.972478 
L 405.858027 368.577374 
L 409.693009 369.013542 
L 414.025118 369.276922 
L 419.173936 369.359494 
L 425.973927 369.231096 
L 435.845455 368.851744 
L 435.845455 368.851744 
" style="fill:none;stroke:#ff0000;stroke-linecap:square;stroke-width:1.5;"/>
   </g>
   <g id="patch_3">
    <path d="M 63 384.48 
L 63 51.84 
" style="fill:none;stroke:#000000;stroke-linecap:square;stroke-linejoin:miter;stroke-width:0.8;"/>
   </g>
   <g id="patch_4">
    <path d="M 453.6 384.48 
L 453.6 51.84 
" style="fill:none;stroke:#000000;stroke-linecap:square;stroke-linejoin:miter;stroke-width:0.8;"/>
   </g>
   <g id="patch_5">
    <path d="M 63 384.48 
L 453.6 384.48 
" style="fill:none;stroke:#000000;stroke-linecap:square;stroke-linejoin:miter;stroke-width:0.8;"/>
   </g>
   <g id="patch_6">
    <path d="M 63 51.84 
L 453.6 51.84 
" style="fill:none;stroke:#000000;stroke-linecap:square;stroke-linejoin:miter;stroke-width:0.8;"/>
   </g>
   <g id="legend_1">
    <g id="patch_7">
     <path d="M 383.460938 89.19625 
L 446.6 89.19625 
Q 448.6 89.19625 448.6 87.19625 
L 448.6 58.84 
Q 448.6 56.84 446.6 56.84 
L 383.460938 56.84 
Q 381.460938 56.84 381.460938 58.84 
L 381.460938 87.19625 
Q 381.460938 89.19625 383.460938 89.19625 
z
" style="fill:#ffffff;opacity:0.8;stroke:#cccccc;stroke-linejoin:miter;"/>
    </g>
    <g id="line2d_13">
     <path d="M 385.460938 64.938437 
L 405.460938 64.938437 
" style="fill:none;stroke:#1f77b4;stroke-linecap:square;stroke-width:1.5;"/>
    </g>
    <g id="line2d_14"/>
    <g id="text_13">
     <!-- target -->
     <defs>
      <path d="M 41.109375 46.296875 
Q 39.59375 47.171875 37.8125 47.578125 
Q 36.03125 48 33.890625 48 
Q 26.265625 48 22.1875 43.046875 
Q 18.109375 38.09375 18.109375 28.8125 
L 18.109375 0 
L 9.078125 0 
L 9.078125 54.6875 
L 18.109375 54.6875 
L 18.109375 46.1875 
Q 20.953125 51.171875 25.484375 53.578125 
Q 30.03125 56 36.53125 56 
Q 37.453125 56 38.578125 55.875 
Q 39.703125 55.765625 41.0625 55.515625 
z
" id="DejaVuSans-114"/>
     </defs>
     <g transform="translate(413.460938 68.438437)scale(0.1 -0.1)">
      <use xlink:href="#DejaVuSans-116"/>
      <use x="39.208984" xlink:href="#DejaVuSans-97"/>
      <use x="100.488281" xlink:href="#DejaVuSans-114"/>
      <use x="141.585938" xlink:href="#DejaVuSans-103"/>
      <use x="205.0625" xlink:href="#DejaVuSans-101"/>
      <use x="266.585938" xlink:href="#DejaVuSans-116"/>
     </g>
    </g>
    <g id="line2d_15">
     <path d="M 385.460938 79.616562 
L 405.460938 79.616562 
" style="fill:none;stroke:#ff0000;stroke-linecap:square;stroke-width:1.5;"/>
    </g>
    <g id="line2d_16"/>
    <g id="text_14">
     <!-- model -->
     <defs>
      <path d="M 45.40625 46.390625 
L 45.40625 75.984375 
L 54.390625 75.984375 
L 54.390625 0 
L 45.40625 0 
L 45.40625 8.203125 
Q 42.578125 3.328125 38.25 0.953125 
Q 33.9375 -1.421875 27.875 -1.421875 
Q 17.96875 -1.421875 11.734375 6.484375 
Q 5.515625 14.40625 5.515625 27.296875 
Q 5.515625 40.1875 11.734375 48.09375 
Q 17.96875 56 27.875 56 
Q 33.9375 56 38.25 53.625 
Q 42.578125 51.265625 45.40625 46.390625 
z
M 14.796875 27.296875 
Q 14.796875 17.390625 18.875 11.75 
Q 22.953125 6.109375 30.078125 6.109375 
Q 37.203125 6.109375 41.296875 11.75 
Q 45.40625 17.390625 45.40625 27.296875 
Q 45.40625 37.203125 41.296875 42.84375 
Q 37.203125 48.484375 30.078125 48.484375 
Q 22.953125 48.484375 18.875 42.84375 
Q 14.796875 37.203125 14.796875 27.296875 
z
" id="DejaVuSans-100"/>
     </defs>
     <g transform="translate(413.460938 83.116562)scale(0.1 -0.1)">
      <use xlink:href="#DejaVuSans-109"/>
      <use x="97.412109" xlink:href="#DejaVuSans-111"/>
      <use x="158.59375" xlink:href="#DejaVuSans-100"/>
      <use x="222.070312" xlink:href="#DejaVuSans-101"/>
      <use x="283.59375" xlink:href="#DejaVuSans-108"/>
     </g>
    </g>
   </g>
  </g>
 </g>
 <defs>
  <clipPath id="p790608f510">
   <rect height="332.64" width="390.6" x="63" y="51.84"/>
  </clipPath>
 </defs>
</svg>
