<?xml version="1.0" encoding="utf-8" standalone="no"?>
<!DOCTYPE svg PUBLIC "-//W3C//DTD SVG 1.1//EN"
  "http://www.w3.org/Graphics/SVG/1.1/DTD/svg11.dtd">
<!-- Created with matplotlib (https://matplotlib.org/) -->
<svg height="432pt" version="1.1" viewBox="0 0 504 432" width="504pt" xmlns="http://www.w3.org/2000/svg" xmlns:xlink="http://www.w3.org/1999/xlink">
 <defs>
  <style type="text/css">
*{stroke-linecap:butt;stroke-linejoin:round;}
  </style>
 </defs>
 <g id="figure_1">
  <g id="patch_1">
   <path d="M 0 432 
L 504 432 
L 504 0 
L 0 0 
z
" style="fill:#ffffff;"/>
  </g>
  <g id="axes_1">
   <g id="patch_2">
    <path d="M 63 384.48 
L 453.6 384.48 
L 453.6 51.84 
L 63 51.84 
z
" style="fill:#ffffff;"/>
   </g>
   <g id="matplotlib.axis_1">
    <g id="xtick_1">
     <g id="line2d_1">
      <defs>
       <path d="M 0 0 
L 0 3.5 
" id="mf982e1e0c0" style="stroke:#000000;stroke-width:0.8;"/>
      </defs>
      <g>
       <use style="stroke:#000000;stroke-width:0.8;" x="80.754545" xlink:href="#mf982e1e0c0" y="384.48"/>
      </g>
     </g>
     <g id="text_1">
      <!-- 0 -->
      <defs>
       <path d="M 31.78125 66.40625 
Q 24.171875 66.40625 20.328125 58.90625 
Q 16.5 51.421875 16.5 36.375 
Q 16.5 21.390625 20.328125 13.890625 
Q 24.171875 6.390625 31.78125 6.390625 
Q 39.453125 6.390625 43.28125 13.890625 
Q 47.125 21.390625 47.125 36.375 
Q 47.125 51.421875 43.28125 58.90625 
Q 39.453125 66.40625 31.78125 66.40625 
z
M 31.78125 74.21875 
Q 44.046875 74.21875 50.515625 64.515625 
Q 56.984375 54.828125 56.984375 36.375 
Q 56.984375 17.96875 50.515625 8.265625 
Q 44.046875 -1.421875 31.78125 -1.421875 
Q 19.53125 -1.421875 13.0625 8.265625 
Q 6.59375 17.96875 6.59375 36.375 
Q 6.59375 54.828125 13.0625 64.515625 
Q 19.53125 74.21875 31.78125 74.21875 
z
" id="DejaVuSans-48"/>
      </defs>
      <g transform="translate(77.573295 399.078438)scale(0.1 -0.1)">
       <use xlink:href="#DejaVuSans-48"/>
      </g>
     </g>
    </g>
    <g id="xtick_2">
     <g id="line2d_2">
      <g>
       <use style="stroke:#000000;stroke-width:0.8;" x="151.767796" xlink:href="#mf982e1e0c0" y="384.48"/>
      </g>
     </g>
     <g id="text_2">
      <!-- 720 -->
      <defs>
       <path d="M 8.203125 72.90625 
L 55.078125 72.90625 
L 55.078125 68.703125 
L 28.609375 0 
L 18.3125 0 
L 43.21875 64.59375 
L 8.203125 64.59375 
z
" id="DejaVuSans-55"/>
       <path d="M 19.1875 8.296875 
L 53.609375 8.296875 
L 53.609375 0 
L 7.328125 0 
L 7.328125 8.296875 
Q 12.9375 14.109375 22.625 23.890625 
Q 32.328125 33.6875 34.8125 36.53125 
Q 39.546875 41.84375 41.421875 45.53125 
Q 43.3125 49.21875 43.3125 52.78125 
Q 43.3125 58.59375 39.234375 62.25 
Q 35.15625 65.921875 28.609375 65.921875 
Q 23.96875 65.921875 18.8125 64.3125 
Q 13.671875 62.703125 7.8125 59.421875 
L 7.8125 69.390625 
Q 13.765625 71.78125 18.9375 73 
Q 24.125 74.21875 28.421875 74.21875 
Q 39.75 74.21875 46.484375 68.546875 
Q 53.21875 62.890625 53.21875 53.421875 
Q 53.21875 48.921875 51.53125 44.890625 
Q 49.859375 40.875 45.40625 35.40625 
Q 44.1875 33.984375 37.640625 27.21875 
Q 31.109375 20.453125 19.1875 8.296875 
z
" id="DejaVuSans-50"/>
      </defs>
      <g transform="translate(142.224046 399.078438)scale(0.1 -0.1)">
       <use xlink:href="#DejaVuSans-55"/>
       <use x="63.623047" xlink:href="#DejaVuSans-50"/>
       <use x="127.246094" xlink:href="#DejaVuSans-48"/>
      </g>
     </g>
    </g>
    <g id="xtick_3">
     <g id="line2d_3">
      <g>
       <use style="stroke:#000000;stroke-width:0.8;" x="222.781046" xlink:href="#mf982e1e0c0" y="384.48"/>
      </g>
     </g>
     <g id="text_3">
      <!-- 1440 -->
      <defs>
       <path d="M 12.40625 8.296875 
L 28.515625 8.296875 
L 28.515625 63.921875 
L 10.984375 60.40625 
L 10.984375 69.390625 
L 28.421875 72.90625 
L 38.28125 72.90625 
L 38.28125 8.296875 
L 54.390625 8.296875 
L 54.390625 0 
L 12.40625 0 
z
" id="DejaVuSans-49"/>
       <path d="M 37.796875 64.3125 
L 12.890625 25.390625 
L 37.796875 25.390625 
z
M 35.203125 72.90625 
L 47.609375 72.90625 
L 47.609375 25.390625 
L 58.015625 25.390625 
L 58.015625 17.1875 
L 47.609375 17.1875 
L 47.609375 0 
L 37.796875 0 
L 37.796875 17.1875 
L 4.890625 17.1875 
L 4.890625 26.703125 
z
" id="DejaVuSans-52"/>
      </defs>
      <g transform="translate(210.056046 399.078438)scale(0.1 -0.1)">
       <use xlink:href="#DejaVuSans-49"/>
       <use x="63.623047" xlink:href="#DejaVuSans-52"/>
       <use x="127.246094" xlink:href="#DejaVuSans-52"/>
       <use x="190.869141" xlink:href="#DejaVuSans-48"/>
      </g>
     </g>
    </g>
    <g id="xtick_4">
     <g id="line2d_4">
      <g>
       <use style="stroke:#000000;stroke-width:0.8;" x="293.794296" xlink:href="#mf982e1e0c0" y="384.48"/>
      </g>
     </g>
     <g id="text_4">
      <!-- 2160 -->
      <defs>
       <path d="M 33.015625 40.375 
Q 26.375 40.375 22.484375 35.828125 
Q 18.609375 31.296875 18.609375 23.390625 
Q 18.609375 15.53125 22.484375 10.953125 
Q 26.375 6.390625 33.015625 6.390625 
Q 39.65625 6.390625 43.53125 10.953125 
Q 47.40625 15.53125 47.40625 23.390625 
Q 47.40625 31.296875 43.53125 35.828125 
Q 39.65625 40.375 33.015625 40.375 
z
M 52.59375 71.296875 
L 52.59375 62.3125 
Q 48.875 64.0625 45.09375 64.984375 
Q 41.3125 65.921875 37.59375 65.921875 
Q 27.828125 65.921875 22.671875 59.328125 
Q 17.53125 52.734375 16.796875 39.40625 
Q 19.671875 43.65625 24.015625 45.921875 
Q 28.375 48.1875 33.59375 48.1875 
Q 44.578125 48.1875 50.953125 41.515625 
Q 57.328125 34.859375 57.328125 23.390625 
Q 57.328125 12.15625 50.6875 5.359375 
Q 44.046875 -1.421875 33.015625 -1.421875 
Q 20.359375 -1.421875 13.671875 8.265625 
Q 6.984375 17.96875 6.984375 36.375 
Q 6.984375 53.65625 15.1875 63.9375 
Q 23.390625 74.21875 37.203125 74.21875 
Q 40.921875 74.21875 44.703125 73.484375 
Q 48.484375 72.75 52.59375 71.296875 
z
" id="DejaVuSans-54"/>
      </defs>
      <g transform="translate(281.069296 399.078438)scale(0.1 -0.1)">
       <use xlink:href="#DejaVuSans-50"/>
       <use x="63.623047" xlink:href="#DejaVuSans-49"/>
       <use x="127.246094" xlink:href="#DejaVuSans-54"/>
       <use x="190.869141" xlink:href="#DejaVuSans-48"/>
      </g>
     </g>
    </g>
    <g id="xtick_5">
     <g id="line2d_5">
      <g>
       <use style="stroke:#000000;stroke-width:0.8;" x="364.807547" xlink:href="#mf982e1e0c0" y="384.48"/>
      </g>
     </g>
     <g id="text_5">
      <!-- 2880 -->
      <defs>
       <path d="M 31.78125 34.625 
Q 24.75 34.625 20.71875 30.859375 
Q 16.703125 27.09375 16.703125 20.515625 
Q 16.703125 13.921875 20.71875 10.15625 
Q 24.75 6.390625 31.78125 6.390625 
Q 38.8125 6.390625 42.859375 10.171875 
Q 46.921875 13.96875 46.921875 20.515625 
Q 46.921875 27.09375 42.890625 30.859375 
Q 38.875 34.625 31.78125 34.625 
z
M 21.921875 38.8125 
Q 15.578125 40.375 12.03125 44.71875 
Q 8.5 49.078125 8.5 55.328125 
Q 8.5 64.0625 14.71875 69.140625 
Q 20.953125 74.21875 31.78125 74.21875 
Q 42.671875 74.21875 48.875 69.140625 
Q 55.078125 64.0625 55.078125 55.328125 
Q 55.078125 49.078125 51.53125 44.71875 
Q 48 40.375 41.703125 38.8125 
Q 48.828125 37.15625 52.796875 32.3125 
Q 56.78125 27.484375 56.78125 20.515625 
Q 56.78125 9.90625 50.3125 4.234375 
Q 43.84375 -1.421875 31.78125 -1.421875 
Q 19.734375 -1.421875 13.25 4.234375 
Q 6.78125 9.90625 6.78125 20.515625 
Q 6.78125 27.484375 10.78125 32.3125 
Q 14.796875 37.15625 21.921875 38.8125 
z
M 18.3125 54.390625 
Q 18.3125 48.734375 21.84375 45.5625 
Q 25.390625 42.390625 31.78125 42.390625 
Q 38.140625 42.390625 41.71875 45.5625 
Q 45.3125 48.734375 45.3125 54.390625 
Q 45.3125 60.0625 41.71875 63.234375 
Q 38.140625 66.40625 31.78125 66.40625 
Q 25.390625 66.40625 21.84375 63.234375 
Q 18.3125 60.0625 18.3125 54.390625 
z
" id="DejaVuSans-56"/>
      </defs>
      <g transform="translate(352.082547 399.078438)scale(0.1 -0.1)">
       <use xlink:href="#DejaVuSans-50"/>
       <use x="63.623047" xlink:href="#DejaVuSans-56"/>
       <use x="127.246094" xlink:href="#DejaVuSans-56"/>
       <use x="190.869141" xlink:href="#DejaVuSans-48"/>
      </g>
     </g>
    </g>
    <g id="text_6">
     <!-- time [ms] -->
     <defs>
      <path d="M 18.3125 70.21875 
L 18.3125 54.6875 
L 36.8125 54.6875 
L 36.8125 47.703125 
L 18.3125 47.703125 
L 18.3125 18.015625 
Q 18.3125 11.328125 20.140625 9.421875 
Q 21.96875 7.515625 27.59375 7.515625 
L 36.8125 7.515625 
L 36.8125 0 
L 27.59375 0 
Q 17.1875 0 13.234375 3.875 
Q 9.28125 7.765625 9.28125 18.015625 
L 9.28125 47.703125 
L 2.6875 47.703125 
L 2.6875 54.6875 
L 9.28125 54.6875 
L 9.28125 70.21875 
z
" id="DejaVuSans-116"/>
      <path d="M 9.421875 54.6875 
L 18.40625 54.6875 
L 18.40625 0 
L 9.421875 0 
z
M 9.421875 75.984375 
L 18.40625 75.984375 
L 18.40625 64.59375 
L 9.421875 64.59375 
z
" id="DejaVuSans-105"/>
      <path d="M 52 44.1875 
Q 55.375 50.25 60.0625 53.125 
Q 64.75 56 71.09375 56 
Q 79.640625 56 84.28125 50.015625 
Q 88.921875 44.046875 88.921875 33.015625 
L 88.921875 0 
L 79.890625 0 
L 79.890625 32.71875 
Q 79.890625 40.578125 77.09375 44.375 
Q 74.3125 48.1875 68.609375 48.1875 
Q 61.625 48.1875 57.5625 43.546875 
Q 53.515625 38.921875 53.515625 30.90625 
L 53.515625 0 
L 44.484375 0 
L 44.484375 32.71875 
Q 44.484375 40.625 41.703125 44.40625 
Q 38.921875 48.1875 33.109375 48.1875 
Q 26.21875 48.1875 22.15625 43.53125 
Q 18.109375 38.875 18.109375 30.90625 
L 18.109375 0 
L 9.078125 0 
L 9.078125 54.6875 
L 18.109375 54.6875 
L 18.109375 46.1875 
Q 21.1875 51.21875 25.484375 53.609375 
Q 29.78125 56 35.6875 56 
Q 41.65625 56 45.828125 52.96875 
Q 50 49.953125 52 44.1875 
z
" id="DejaVuSans-109"/>
      <path d="M 56.203125 29.59375 
L 56.203125 25.203125 
L 14.890625 25.203125 
Q 15.484375 15.921875 20.484375 11.0625 
Q 25.484375 6.203125 34.421875 6.203125 
Q 39.59375 6.203125 44.453125 7.46875 
Q 49.3125 8.734375 54.109375 11.28125 
L 54.109375 2.78125 
Q 49.265625 0.734375 44.1875 -0.34375 
Q 39.109375 -1.421875 33.890625 -1.421875 
Q 20.796875 -1.421875 13.15625 6.1875 
Q 5.515625 13.8125 5.515625 26.8125 
Q 5.515625 40.234375 12.765625 48.109375 
Q 20.015625 56 32.328125 56 
Q 43.359375 56 49.78125 48.890625 
Q 56.203125 41.796875 56.203125 29.59375 
z
M 47.21875 32.234375 
Q 47.125 39.59375 43.09375 43.984375 
Q 39.0625 48.390625 32.421875 48.390625 
Q 24.90625 48.390625 20.390625 44.140625 
Q 15.875 39.890625 15.1875 32.171875 
z
" id="DejaVuSans-101"/>
      <path id="DejaVuSans-32"/>
      <path d="M 8.59375 75.984375 
L 29.296875 75.984375 
L 29.296875 69 
L 17.578125 69 
L 17.578125 -6.203125 
L 29.296875 -6.203125 
L 29.296875 -13.1875 
L 8.59375 -13.1875 
z
" id="DejaVuSans-91"/>
      <path d="M 44.28125 53.078125 
L 44.28125 44.578125 
Q 40.484375 46.53125 36.375 47.5 
Q 32.28125 48.484375 27.875 48.484375 
Q 21.1875 48.484375 17.84375 46.4375 
Q 14.5 44.390625 14.5 40.28125 
Q 14.5 37.15625 16.890625 35.375 
Q 19.28125 33.59375 26.515625 31.984375 
L 29.59375 31.296875 
Q 39.15625 29.25 43.1875 25.515625 
Q 47.21875 21.78125 47.21875 15.09375 
Q 47.21875 7.46875 41.1875 3.015625 
Q 35.15625 -1.421875 24.609375 -1.421875 
Q 20.21875 -1.421875 15.453125 -0.5625 
Q 10.6875 0.296875 5.421875 2 
L 5.421875 11.28125 
Q 10.40625 8.6875 15.234375 7.390625 
Q 20.0625 6.109375 24.8125 6.109375 
Q 31.15625 6.109375 34.5625 8.28125 
Q 37.984375 10.453125 37.984375 14.40625 
Q 37.984375 18.0625 35.515625 20.015625 
Q 33.0625 21.96875 24.703125 23.78125 
L 21.578125 24.515625 
Q 13.234375 26.265625 9.515625 29.90625 
Q 5.8125 33.546875 5.8125 39.890625 
Q 5.8125 47.609375 11.28125 51.796875 
Q 16.75 56 26.8125 56 
Q 31.78125 56 36.171875 55.265625 
Q 40.578125 54.546875 44.28125 53.078125 
z
" id="DejaVuSans-115"/>
      <path d="M 30.421875 75.984375 
L 30.421875 -13.1875 
L 9.71875 -13.1875 
L 9.71875 -6.203125 
L 21.390625 -6.203125 
L 21.390625 69 
L 9.71875 69 
L 9.71875 75.984375 
z
" id="DejaVuSans-93"/>
     </defs>
     <g transform="translate(234.038281 412.756563)scale(0.1 -0.1)">
      <use xlink:href="#DejaVuSans-116"/>
      <use x="39.208984" xlink:href="#DejaVuSans-105"/>
      <use x="66.992188" xlink:href="#DejaVuSans-109"/>
      <use x="164.404297" xlink:href="#DejaVuSans-101"/>
      <use x="225.927734" xlink:href="#DejaVuSans-32"/>
      <use x="257.714844" xlink:href="#DejaVuSans-91"/>
      <use x="296.728516" xlink:href="#DejaVuSans-109"/>
      <use x="394.140625" xlink:href="#DejaVuSans-115"/>
      <use x="446.240234" xlink:href="#DejaVuSans-93"/>
     </g>
    </g>
   </g>
   <g id="matplotlib.axis_2">
    <g id="ytick_1">
     <g id="line2d_6">
      <defs>
       <path d="M 0 0 
L -3.5 0 
" id="m603db7aec3" style="stroke:#000000;stroke-width:0.8;"/>
      </defs>
      <g>
       <use style="stroke:#000000;stroke-width:0.8;" x="63" xlink:href="#m603db7aec3" y="369.546017"/>
      </g>
     </g>
     <g id="text_7">
      <!-- −80 -->
      <defs>
       <path d="M 10.59375 35.5 
L 73.1875 35.5 
L 73.1875 27.203125 
L 10.59375 27.203125 
z
" id="DejaVuSans-8722"/>
      </defs>
      <g transform="translate(34.895313 373.345236)scale(0.1 -0.1)">
       <use xlink:href="#DejaVuSans-8722"/>
       <use x="83.789062" xlink:href="#DejaVuSans-56"/>
       <use x="147.412109" xlink:href="#DejaVuSans-48"/>
      </g>
     </g>
    </g>
    <g id="ytick_2">
     <g id="line2d_7">
      <g>
       <use style="stroke:#000000;stroke-width:0.8;" x="63" xlink:href="#m603db7aec3" y="314.312787"/>
      </g>
     </g>
     <g id="text_8">
      <!-- −60 -->
      <g transform="translate(34.895313 318.112006)scale(0.1 -0.1)">
       <use xlink:href="#DejaVuSans-8722"/>
       <use x="83.789062" xlink:href="#DejaVuSans-54"/>
       <use x="147.412109" xlink:href="#DejaVuSans-48"/>
      </g>
     </g>
    </g>
    <g id="ytick_3">
     <g id="line2d_8">
      <g>
       <use style="stroke:#000000;stroke-width:0.8;" x="63" xlink:href="#m603db7aec3" y="259.079556"/>
      </g>
     </g>
     <g id="text_9">
      <!-- −40 -->
      <g transform="translate(34.895313 262.878775)scale(0.1 -0.1)">
       <use xlink:href="#DejaVuSans-8722"/>
       <use x="83.789062" xlink:href="#DejaVuSans-52"/>
       <use x="147.412109" xlink:href="#DejaVuSans-48"/>
      </g>
     </g>
    </g>
    <g id="ytick_4">
     <g id="line2d_9">
      <g>
       <use style="stroke:#000000;stroke-width:0.8;" x="63" xlink:href="#m603db7aec3" y="203.846326"/>
      </g>
     </g>
     <g id="text_10">
      <!-- −20 -->
      <g transform="translate(34.895313 207.645544)scale(0.1 -0.1)">
       <use xlink:href="#DejaVuSans-8722"/>
       <use x="83.789062" xlink:href="#DejaVuSans-50"/>
       <use x="147.412109" xlink:href="#DejaVuSans-48"/>
      </g>
     </g>
    </g>
    <g id="ytick_5">
     <g id="line2d_10">
      <g>
       <use style="stroke:#000000;stroke-width:0.8;" x="63" xlink:href="#m603db7aec3" y="148.613095"/>
      </g>
     </g>
     <g id="text_11">
      <!-- 0 -->
      <g transform="translate(49.6375 152.412314)scale(0.1 -0.1)">
       <use xlink:href="#DejaVuSans-48"/>
      </g>
     </g>
    </g>
    <g id="ytick_6">
     <g id="line2d_11">
      <g>
       <use style="stroke:#000000;stroke-width:0.8;" x="63" xlink:href="#m603db7aec3" y="93.379865"/>
      </g>
     </g>
     <g id="text_12">
      <!-- 20 -->
      <g transform="translate(43.275 97.179083)scale(0.1 -0.1)">
       <use xlink:href="#DejaVuSans-50"/>
       <use x="63.623047" xlink:href="#DejaVuSans-48"/>
      </g>
     </g>
    </g>
    <g id="text_13">
     <!-- Voltage [mV] -->
     <defs>
      <path d="M 28.609375 0 
L 0.78125 72.90625 
L 11.078125 72.90625 
L 34.1875 11.53125 
L 57.328125 72.90625 
L 67.578125 72.90625 
L 39.796875 0 
z
" id="DejaVuSans-86"/>
      <path d="M 30.609375 48.390625 
Q 23.390625 48.390625 19.1875 42.75 
Q 14.984375 37.109375 14.984375 27.296875 
Q 14.984375 17.484375 19.15625 11.84375 
Q 23.34375 6.203125 30.609375 6.203125 
Q 37.796875 6.203125 41.984375 11.859375 
Q 46.1875 17.53125 46.1875 27.296875 
Q 46.1875 37.015625 41.984375 42.703125 
Q 37.796875 48.390625 30.609375 48.390625 
z
M 30.609375 56 
Q 42.328125 56 49.015625 48.375 
Q 55.71875 40.765625 55.71875 27.296875 
Q 55.71875 13.875 49.015625 6.21875 
Q 42.328125 -1.421875 30.609375 -1.421875 
Q 18.84375 -1.421875 12.171875 6.21875 
Q 5.515625 13.875 5.515625 27.296875 
Q 5.515625 40.765625 12.171875 48.375 
Q 18.84375 56 30.609375 56 
z
" id="DejaVuSans-111"/>
      <path d="M 9.421875 75.984375 
L 18.40625 75.984375 
L 18.40625 0 
L 9.421875 0 
z
" id="DejaVuSans-108"/>
      <path d="M 34.28125 27.484375 
Q 23.390625 27.484375 19.1875 25 
Q 14.984375 22.515625 14.984375 16.5 
Q 14.984375 11.71875 18.140625 8.90625 
Q 21.296875 6.109375 26.703125 6.109375 
Q 34.1875 6.109375 38.703125 11.40625 
Q 43.21875 16.703125 43.21875 25.484375 
L 43.21875 27.484375 
z
M 52.203125 31.203125 
L 52.203125 0 
L 43.21875 0 
L 43.21875 8.296875 
Q 40.140625 3.328125 35.546875 0.953125 
Q 30.953125 -1.421875 24.3125 -1.421875 
Q 15.921875 -1.421875 10.953125 3.296875 
Q 6 8.015625 6 15.921875 
Q 6 25.140625 12.171875 29.828125 
Q 18.359375 34.515625 30.609375 34.515625 
L 43.21875 34.515625 
L 43.21875 35.40625 
Q 43.21875 41.609375 39.140625 45 
Q 35.0625 48.390625 27.6875 48.390625 
Q 23 48.390625 18.546875 47.265625 
Q 14.109375 46.140625 10.015625 43.890625 
L 10.015625 52.203125 
Q 14.9375 54.109375 19.578125 55.046875 
Q 24.21875 56 28.609375 56 
Q 40.484375 56 46.34375 49.84375 
Q 52.203125 43.703125 52.203125 31.203125 
z
" id="DejaVuSans-97"/>
      <path d="M 45.40625 27.984375 
Q 45.40625 37.75 41.375 43.109375 
Q 37.359375 48.484375 30.078125 48.484375 
Q 22.859375 48.484375 18.828125 43.109375 
Q 14.796875 37.75 14.796875 27.984375 
Q 14.796875 18.265625 18.828125 12.890625 
Q 22.859375 7.515625 30.078125 7.515625 
Q 37.359375 7.515625 41.375 12.890625 
Q 45.40625 18.265625 45.40625 27.984375 
z
M 54.390625 6.78125 
Q 54.390625 -7.171875 48.1875 -13.984375 
Q 42 -20.796875 29.203125 -20.796875 
Q 24.46875 -20.796875 20.265625 -20.09375 
Q 16.0625 -19.390625 12.109375 -17.921875 
L 12.109375 -9.1875 
Q 16.0625 -11.328125 19.921875 -12.34375 
Q 23.78125 -13.375 27.78125 -13.375 
Q 36.625 -13.375 41.015625 -8.765625 
Q 45.40625 -4.15625 45.40625 5.171875 
L 45.40625 9.625 
Q 42.625 4.78125 38.28125 2.390625 
Q 33.9375 0 27.875 0 
Q 17.828125 0 11.671875 7.65625 
Q 5.515625 15.328125 5.515625 27.984375 
Q 5.515625 40.671875 11.671875 48.328125 
Q 17.828125 56 27.875 56 
Q 33.9375 56 38.28125 53.609375 
Q 42.625 51.21875 45.40625 46.390625 
L 45.40625 54.6875 
L 54.390625 54.6875 
z
" id="DejaVuSans-103"/>
     </defs>
     <g transform="translate(28.815625 251.079531)rotate(-90)scale(0.1 -0.1)">
      <use xlink:href="#DejaVuSans-86"/>
      <use x="68.298828" xlink:href="#DejaVuSans-111"/>
      <use x="129.480469" xlink:href="#DejaVuSans-108"/>
      <use x="157.263672" xlink:href="#DejaVuSans-116"/>
      <use x="196.472656" xlink:href="#DejaVuSans-97"/>
      <use x="257.751953" xlink:href="#DejaVuSans-103"/>
      <use x="321.228516" xlink:href="#DejaVuSans-101"/>
      <use x="382.751953" xlink:href="#DejaVuSans-32"/>
      <use x="414.539062" xlink:href="#DejaVuSans-91"/>
      <use x="453.552734" xlink:href="#DejaVuSans-109"/>
      <use x="550.964844" xlink:href="#DejaVuSans-86"/>
      <use x="619.373047" xlink:href="#DejaVuSans-93"/>
     </g>
    </g>
   </g>
   <g id="line2d_12">
    <path clip-path="url(#p8170d901a3)" d="M 80.754545 328.121095 
L 81.158926 329.940146 
L 81.642211 331.29318 
L 82.130427 332.042414 
L 82.653164 332.451262 
L 83.284392 332.654837 
L 84.216441 332.697636 
L 86.992862 332.490807 
L 91.026809 332.330239 
L 99.568125 332.271229 
L 100.480448 332.270068 
L 100.633324 348.243913 
L 100.958801 359.117511 
L 101.358251 365.949632 
L 101.703454 368.672342 
L 101.959891 369.334409 
L 102.112767 369.319039 
L 102.300163 368.98923 
L 102.630572 367.858813 
L 104.287548 361.501378 
L 104.854667 360.428157 
L 105.406993 359.83307 
L 105.993838 359.520763 
L 106.728628 359.392261 
L 108.015743 359.43321 
L 111.482571 359.568346 
L 128.486299 359.562148 
L 130.069303 359.5621 
L 130.222178 343.899788 
L 130.532861 334.336612 
L 130.917516 328.589875 
L 131.29724 325.838006 
L 131.652306 324.67702 
L 131.962989 324.303843 
L 132.244083 324.279492 
L 132.589287 324.497305 
L 133.156406 325.16413 
L 136.026525 328.884207 
L 137.180491 329.866447 
L 138.403497 330.615679 
L 139.769515 331.188638 
L 139.932254 331.242447 
L 139.937186 328.121095 
L 140.045678 328.661837 
L 140.573346 330.686887 
L 141.056631 331.707115 
L 141.55471 332.268903 
L 142.111966 332.568069 
L 142.846756 332.695182 
L 144.12894 332.65321 
L 149.469728 332.346862 
L 156.718997 332.275239 
L 159.663088 332.270068 
L 159.815964 329.075857 
L 160.141442 326.908076 
L 160.575411 325.392186 
L 161.03897 324.522906 
L 161.532118 324.046611 
L 162.114032 323.795791 
L 162.932657 323.705706 
L 164.604427 323.798128 
L 169.161111 324.053088 
L 175.912301 324.146932 
L 189.251943 324.166094 
L 189.404818 327.363914 
L 189.730296 329.540649 
L 190.169197 331.09025 
L 190.637687 331.985697 
L 191.130835 332.473251 
L 191.697955 332.722415 
L 192.477128 332.80334 
L 194.010817 332.688925 
L 197.872162 332.403688 
L 199.114894 332.360506 
L 199.119826 328.121095 
L 199.228318 328.661837 
L 199.755986 330.686887 
L 200.239271 331.707115 
L 200.73735 332.268903 
L 201.294606 332.568069 
L 202.029396 332.695182 
L 203.31158 332.65321 
L 208.652368 332.346862 
L 215.901638 332.275239 
L 218.845729 332.270068 
L 218.998604 325.881644 
L 219.324082 321.550715 
L 219.75312 318.551976 
L 220.206816 316.81263 
L 220.680237 315.812688 
L 221.188179 315.232779 
L 221.779957 314.892961 
L 222.564061 314.713021 
L 223.772273 314.687268 
L 226.104861 314.900218 
L 230.183191 315.242299 
L 235.075215 315.377181 
L 247.468014 315.4319 
L 248.434583 315.432745 
L 248.587459 321.858538 
L 248.912936 326.269034 
L 249.351837 329.441569 
L 249.810465 331.277711 
L 250.274023 332.287896 
L 250.747445 332.818218 
L 251.270181 333.073843 
L 251.945794 333.142777 
L 253.144142 333.002261 
L 256.64549 332.544319 
L 258.297534 332.437524 
L 258.302466 328.121095 
L 258.410958 328.661837 
L 258.938626 330.686887 
L 259.421911 331.707115 
L 259.91999 332.268903 
L 260.477247 332.568069 
L 261.212036 332.695182 
L 262.49422 332.65321 
L 267.835008 332.346862 
L 275.084278 332.275239 
L 278.028369 332.270068 
L 278.181244 322.686775 
L 278.506722 316.187297 
L 278.940692 311.610337 
L 279.433839 308.63052 
L 279.887535 306.063535 
L 279.902329 303.739544 
L 279.941781 184.846091 
L 279.976302 69.919437 
L 280.050274 196.341075 
L 280.213012 323.521357 
L 280.385614 328.866329 
L 280.459586 329.09057 
L 280.513832 328.988514 
L 280.651914 328.090348 
L 280.992186 324.022555 
L 281.820673 314.365182 
L 282.358204 310.648598 
L 282.91053 308.318715 
L 283.452992 306.083364 
L 283.467786 304.993266 
L 283.492444 251.907836 
L 283.54669 78.510359 
L 283.620662 195.807057 
L 283.778469 320.638627 
L 283.956002 327.599822 
L 284.059563 328.037907 
L 284.103947 327.973717 
L 284.227234 327.300574 
L 284.523122 324.129714 
L 285.45024 313.957696 
L 285.982839 310.605961 
L 286.525301 308.538046 
L 287.220639 306.088167 
L 287.235434 303.661341 
L 287.274886 196.304545 
L 287.309406 85.464097 
L 287.383378 190.838976 
L 287.546117 318.580156 
L 287.72365 326.228979 
L 287.851868 326.882977 
L 287.886389 326.846131 
L 287.994881 326.361731 
L 288.251318 323.938654 
L 289.316517 313.121269 
L 289.844184 310.225828 
L 290.391578 308.402147 
L 291.096779 306.242715 
L 291.116505 304.631418 
L 291.151025 223.695059 
L 291.195409 89.901789 
L 291.269381 193.439139 
L 291.427188 316.17077 
L 291.609653 325.13713 
L 291.757597 326.005694 
L 291.782254 325.986602 
L 291.875952 325.64787 
L 292.097869 323.802604 
L 293.340601 312.148189 
L 293.863337 309.715798 
L 294.435388 308.081506 
L 295.032097 306.401898 
L 295.061686 305.785645 
L 295.081412 287.859835 
L 295.150452 93.611009 
L 295.214561 180.311185 
L 295.392095 316.421828 
L 295.574559 324.49654 
L 295.727435 325.372419 
L 295.747161 325.359642 
L 295.835927 325.074922 
L 296.047981 323.432798 
L 297.364685 311.703302 
L 297.892353 309.462531 
L 298.479198 307.920113 
L 299.006866 306.500899 
L 299.05125 305.656146 
L 299.070976 281.377901 
L 299.135085 95.920788 
L 299.204125 182.583921 
L 299.376727 314.704457 
L 299.559192 323.743255 
L 299.731793 324.866801 
L 299.741656 324.863074 
L 299.82056 324.665313 
L 300.003024 323.425362 
L 301.561371 310.663287 
L 302.09397 308.833679 
L 303.050676 306.142361 
L 303.065471 303.357117 
L 303.109854 178.875604 
L 303.144374 97.681709 
L 303.213415 187.735337 
L 303.376154 312.825354 
L 303.558618 323.153427 
L 303.746014 324.572109 
L 303.815055 324.462488 
L 303.967931 323.594861 
L 304.382175 319.538795 
L 305.097239 313.239902 
L 305.629838 310.403046 
L 306.172301 308.657695 
L 307.064898 306.218756 
L 307.079692 304.720559 
L 307.114212 225.159289 
L 307.163527 98.742093 
L 307.232568 190.604081 
L 307.395307 312.317898 
L 307.582703 322.814266 
L 307.627086 325.197291 
L 307.794756 332.847358 
L 308.046261 335.504326 
L 308.287904 336.19382 
L 308.4753 336.23157 
L 308.712011 335.992199 
L 310.502136 333.651332 
L 311.301035 333.235293 
L 312.425412 332.917013 
L 314.235263 332.658782 
L 317.386476 332.458074 
L 317.480174 332.454405 
L 317.485106 328.121095 
L 317.593598 328.661837 
L 318.121266 330.686887 
L 318.604551 331.707115 
L 319.10263 332.268903 
L 319.659887 332.568069 
L 320.394677 332.695182 
L 321.67686 332.65321 
L 327.017648 332.346862 
L 334.266918 332.275239 
L 337.211009 332.270068 
L 337.363884 319.49049 
L 337.689362 310.792884 
L 338.152921 304.057059 
L 338.448809 299.6758 
L 338.463604 292.923859 
L 338.527713 67.82457 
L 338.606616 201.459769 
L 338.764424 321.462404 
L 338.932094 326.027472 
L 338.966614 326.077034 
L 339.015929 325.955916 
L 339.15401 324.834432 
L 339.494282 319.779643 
L 340.337564 307.502247 
L 340.949067 301.967985 
L 341.279476 298.511751 
L 341.299202 296.060398 
L 341.338654 170.32473 
L 341.368243 76.533036 
L 341.442215 188.849719 
L 341.604954 319.410897 
L 341.777555 325.119326 
L 341.831801 325.268063 
L 341.890979 325.129769 
L 342.033992 323.976319 
L 342.39399 318.747408 
L 343.19782 307.552462 
L 343.789597 302.431787 
L 344.19891 298.737608 
L 344.218636 297.099352 
L 344.248225 225.483655 
L 344.292608 83.027599 
L 344.36658 191.755543 
L 344.524387 316.6701 
L 344.696989 323.706866 
L 344.780824 324.046724 
L 344.830139 323.948584 
L 344.963289 322.999378 
L 345.288766 318.624133 
L 346.146843 307.196039 
L 346.73862 302.370896 
L 347.157795 298.755789 
L 347.177521 295.967031 
L 347.216973 178.692234 
L 347.251493 87.932893 
L 347.320534 184.736661 
L 347.488204 315.515196 
L 347.665737 322.762098 
L 347.754504 323.142259 
L 347.803819 323.053744 
L 347.932037 322.195633 
L 348.247651 318.157677 
L 349.125454 306.914751 
L 349.722163 302.260159 
L 350.131475 298.87258 
L 350.151201 297.024226 
L 350.185721 209.423184 
L 350.225173 91.946714 
L 350.299145 190.304784 
L 350.456952 313.226915 
L 350.634486 321.818277 
L 350.74791 322.438855 
L 350.787361 322.381996 
L 350.900785 321.731133 
L 351.176948 318.492872 
L 352.173106 306.209162 
L 352.784609 301.749192 
L 353.115018 298.983397 
L 353.139675 296.194332 
L 353.179127 183.577015 
L 353.213647 94.2243 
L 353.28762 193.241096 
L 353.445427 312.013725 
L 353.62296 321.080719 
L 353.751178 321.843466 
L 353.785699 321.796307 
L 353.894191 321.216899 
L 354.155559 318.300098 
L 355.205964 305.766778 
L 355.842124 301.324781 
L 356.108424 298.968109 
L 356.12815 297.547734 
L 356.157738 229.578378 
L 356.207053 95.840047 
L 356.281025 195.895219 
L 356.438833 311.197576 
L 356.621297 320.60164 
L 356.754447 321.411068 
L 356.784036 321.376256 
L 356.887597 320.868982 
L 357.134171 318.247797 
L 358.253616 305.278176 
L 358.953885 300.54838 
L 359.111692 298.729883 
L 359.126487 295.951765 
L 359.17087 160.406919 
L 359.200459 97.189684 
L 359.2695 182.97364 
L 359.43717 310.948614 
L 359.619634 320.224655 
L 359.757716 321.088627 
L 359.787305 321.055219 
L 359.890866 320.557883 
L 360.137439 317.976707 
L 361.256884 305.193442 
L 362.114961 298.271724 
L 362.129756 287.590627 
L 362.198796 98.227098 
L 362.262905 178.623329 
L 362.440438 311.44632 
L 362.622903 320.106955 
L 362.756053 320.935679 
L 362.790573 320.899096 
L 362.894134 320.396994 
L 363.140708 317.822452 
L 364.25029 305.215645 
L 365.113298 298.209346 
L 365.133024 266.37527 
L 365.197133 98.961579 
L 365.266174 189.830032 
L 365.428913 309.945796 
L 365.611377 319.754314 
L 365.759322 320.781072 
L 365.783979 320.761336 
L 365.872746 320.403659 
L 366.089731 318.340315 
L 366.799863 309.420487 
L 366.804794 310.747642 
L 366.972465 321.158739 
L 367.268353 326.264856 
L 367.662871 329.543553 
L 368.096841 331.44841 
L 368.545605 332.501912 
L 369.004233 333.053765 
L 369.507243 333.319203 
L 370.143404 333.390395 
L 371.213534 333.250708 
L 374.926935 332.667128 
L 376.662814 332.529901 
L 376.667746 328.121095 
L 376.776238 328.661837 
L 377.303906 330.686887 
L 377.787191 331.707115 
L 378.28527 332.268903 
L 378.842527 332.568069 
L 379.577317 332.695182 
L 380.8595 332.65321 
L 386.200288 332.346862 
L 393.449558 332.275239 
L 396.393649 332.270068 
L 396.546525 316.291632 
L 396.876933 305.187296 
L 397.310903 292.552339 
L 397.345424 180.869027 
L 397.379944 66.96 
L 397.453916 194.114255 
L 397.621586 320.015564 
L 397.774462 323.253017 
L 397.784325 323.249427 
L 397.843503 323.012417 
L 398.006241 321.163955 
L 398.445143 312.891089 
L 399.194727 300.106842 
L 399.678012 291.907334 
L 399.7076 288.013443 
L 399.747052 140.527377 
L 399.77171 75.052125 
L 399.845682 186.359584 
L 400.008421 317.739674 
L 400.176091 322.628152 
L 400.200748 322.656931 
L 400.250063 322.520488 
L 400.388144 321.228868 
L 400.728416 315.369683 
L 401.61115 300.313758 
L 402.153612 291.476015 
L 402.17827 284.616575 
L 402.242379 81.199485 
L 402.316351 191.156478 
L 402.474158 315.077908 
L 402.641829 321.156973 
L 402.686212 321.277976 
L 402.74539 321.114951 
L 402.888402 319.763853 
L 403.253332 313.610621 
L 404.081819 300.189709 
L 404.639076 291.629739 
L 404.663734 287.135816 
L 404.732774 86.438248 
L 404.816609 219.097421 
L 404.969485 313.97751 
L 405.142087 320.225798 
L 405.191401 320.369349 
L 405.250579 320.21537 
L 405.393592 318.913458 
L 405.75359 313.036273 
L 406.587009 299.957354 
L 407.139334 291.722595 
L 407.163992 287.906958 
L 407.213307 115.829198 
L 407.233032 90.015036 
L 407.297142 171.679113 
L 407.479606 313.259591 
L 407.657139 319.385012 
L 407.711386 319.542143 
L 407.765632 319.408658 
L 407.903713 318.223806 
L 408.248916 312.810674 
L 409.106993 299.689267 
L 409.644524 291.87533 
L 409.674113 286.014943 
L 409.743154 92.714347 
L 409.822057 207.78408 
L 409.979864 311.22725 
L 410.157398 318.58692 
L 410.23137 318.883402 
L 410.285616 318.754877 
L 410.423697 317.602335 
L 410.768901 312.320352 
L 411.631909 299.446771 
L 412.154645 291.958186 
L 412.184234 287.573392 
L 412.253275 94.550694 
L 412.342041 224.657312 
L 412.494917 310.629661 
L 412.67245 318.115008 
L 412.756285 318.477336 
L 412.8056 318.365418 
L 412.93875 317.30752 
L 413.269159 312.391859 
L 414.161756 299.237148 
L 414.669698 291.979969 
L 414.699287 287.592865 
L 414.768327 95.832795 
L 414.857094 224.271767 
L 415.00997 309.894956 
L 415.187503 317.694079 
L 415.276269 318.132935 
L 415.325584 318.036077 
L 415.453802 317.06813 
L 415.769417 312.505779 
L 416.701466 298.93694 
L 417.18475 292.048634 
L 417.214339 288.584119 
L 417.258723 144.054336 
L 417.288311 96.669201 
L 417.357352 187.751543 
L 417.520091 308.512588 
L 417.697624 317.252496 
L 417.801185 317.824013 
L 417.845568 317.737129 
L 417.968855 316.847381 
L 418.269675 312.62135 
L 419.241176 298.638551 
L 419.699803 292.091203 
L 419.729392 289.110841 
L 419.768844 171.502552 
L 419.803364 97.174629 
L 419.872405 185.724433 
L 420.035143 307.970935 
L 420.212677 316.976775 
L 420.321169 317.613646 
L 420.365552 317.530236 
L 420.488839 316.652937 
L 420.789659 312.465185 
L 421.766091 298.526753 
L 422.214856 292.146792 
L 422.249376 286.64264 
L 422.318417 97.702301 
L 422.402252 216.202486 
L 422.560059 308.806609 
L 422.742524 317.023609 
L 422.841153 317.527341 
L 422.885536 317.443226 
L 423.008823 316.567121 
L 423.309643 312.390851 
L 424.286075 298.498682 
L 424.73484 292.07164 
L 424.764429 288.722436 
L 424.808812 146.01129 
L 424.838401 97.890997 
L 424.907441 187.271119 
L 425.07018 307.646538 
L 425.252645 316.788573 
L 425.361137 317.410728 
L 425.40552 317.327221 
L 425.528807 316.455366 
L 425.829627 312.297051 
L 425.982503 309.825827 
L 425.987435 311.471448 
L 426.150173 323.427062 
L 426.421404 328.224245 
L 426.776471 330.916567 
L 427.166057 332.31918 
L 427.580301 333.051393 
L 428.033997 333.423615 
L 428.566596 333.570635 
L 429.330975 333.528999 
L 431.362743 333.098877 
L 433.754509 332.726345 
L 435.845455 332.547643 
L 435.845455 332.547643 
" style="fill:none;stroke:#ff0000;stroke-linecap:square;stroke-width:1.5;"/>
   </g>
   <g id="patch_3">
    <path d="M 63 384.48 
L 63 51.84 
" style="fill:none;stroke:#000000;stroke-linecap:square;stroke-linejoin:miter;stroke-width:0.8;"/>
   </g>
   <g id="patch_4">
    <path d="M 453.6 384.48 
L 453.6 51.84 
" style="fill:none;stroke:#000000;stroke-linecap:square;stroke-linejoin:miter;stroke-width:0.8;"/>
   </g>
   <g id="patch_5">
    <path d="M 63 384.48 
L 453.6 384.48 
" style="fill:none;stroke:#000000;stroke-linecap:square;stroke-linejoin:miter;stroke-width:0.8;"/>
   </g>
   <g id="patch_6">
    <path d="M 63 51.84 
L 453.6 51.84 
" style="fill:none;stroke:#000000;stroke-linecap:square;stroke-linejoin:miter;stroke-width:0.8;"/>
   </g>
   <g id="legend_1">
    <g id="patch_7">
     <path d="M 70 74.518125 
L 133.139062 74.518125 
Q 135.139062 74.518125 135.139062 72.518125 
L 135.139062 58.84 
Q 135.139062 56.84 133.139062 56.84 
L 70 56.84 
Q 68 56.84 68 58.84 
L 68 72.518125 
Q 68 74.518125 70 74.518125 
z
" style="fill:#ffffff;opacity:0.8;stroke:#cccccc;stroke-linejoin:miter;"/>
    </g>
    <g id="line2d_13">
     <path d="M 72 64.938438 
L 92 64.938438 
" style="fill:none;stroke:#ff0000;stroke-linecap:square;stroke-width:1.5;"/>
    </g>
    <g id="line2d_14"/>
    <g id="text_14">
     <!-- model -->
     <defs>
      <path d="M 45.40625 46.390625 
L 45.40625 75.984375 
L 54.390625 75.984375 
L 54.390625 0 
L 45.40625 0 
L 45.40625 8.203125 
Q 42.578125 3.328125 38.25 0.953125 
Q 33.9375 -1.421875 27.875 -1.421875 
Q 17.96875 -1.421875 11.734375 6.484375 
Q 5.515625 14.40625 5.515625 27.296875 
Q 5.515625 40.1875 11.734375 48.09375 
Q 17.96875 56 27.875 56 
Q 33.9375 56 38.25 53.625 
Q 42.578125 51.265625 45.40625 46.390625 
z
M 14.796875 27.296875 
Q 14.796875 17.390625 18.875 11.75 
Q 22.953125 6.109375 30.078125 6.109375 
Q 37.203125 6.109375 41.296875 11.75 
Q 45.40625 17.390625 45.40625 27.296875 
Q 45.40625 37.203125 41.296875 42.84375 
Q 37.203125 48.484375 30.078125 48.484375 
Q 22.953125 48.484375 18.875 42.84375 
Q 14.796875 37.203125 14.796875 27.296875 
z
" id="DejaVuSans-100"/>
     </defs>
     <g transform="translate(100 68.438438)scale(0.1 -0.1)">
      <use xlink:href="#DejaVuSans-109"/>
      <use x="97.412109" xlink:href="#DejaVuSans-111"/>
      <use x="158.59375" xlink:href="#DejaVuSans-100"/>
      <use x="222.070312" xlink:href="#DejaVuSans-101"/>
      <use x="283.59375" xlink:href="#DejaVuSans-108"/>
     </g>
    </g>
   </g>
  </g>
 </g>
 <defs>
  <clipPath id="p8170d901a3">
   <rect height="332.64" width="390.6" x="63" y="51.84"/>
  </clipPath>
 </defs>
</svg>
