<?xml version="1.0" encoding="utf-8" standalone="no"?>
<!DOCTYPE svg PUBLIC "-//W3C//DTD SVG 1.1//EN"
  "http://www.w3.org/Graphics/SVG/1.1/DTD/svg11.dtd">
<!-- Created with matplotlib (http://matplotlib.org/) -->
<svg height="432pt" version="1.1" viewBox="0 0 504 432" width="504pt" xmlns="http://www.w3.org/2000/svg" xmlns:xlink="http://www.w3.org/1999/xlink">
 <defs>
  <style type="text/css">
*{stroke-linecap:butt;stroke-linejoin:round;}
  </style>
 </defs>
 <g id="figure_1">
  <g id="patch_1">
   <path d="M 0 432 
L 504 432 
L 504 0 
L 0 0 
z
" style="fill:#ffffff;"/>
  </g>
  <g id="axes_1">
   <g id="patch_2">
    <path d="M 63 384.48 
L 453.6 384.48 
L 453.6 51.84 
L 63 51.84 
z
" style="fill:#ffffff;"/>
   </g>
   <g id="matplotlib.axis_1">
    <g id="xtick_1">
     <g id="line2d_1">
      <defs>
       <path d="M 0 0 
L 0 3.5 
" id="ma9f3d548cc" style="stroke:#000000;stroke-width:0.8;"/>
      </defs>
      <g>
       <use style="stroke:#000000;stroke-width:0.8;" x="80.754545" xlink:href="#ma9f3d548cc" y="384.48"/>
      </g>
     </g>
     <g id="text_1">
      <!-- 0 -->
      <defs>
       <path d="M 31.78125 66.40625 
Q 24.171875 66.40625 20.328125 58.90625 
Q 16.5 51.421875 16.5 36.375 
Q 16.5 21.390625 20.328125 13.890625 
Q 24.171875 6.390625 31.78125 6.390625 
Q 39.453125 6.390625 43.28125 13.890625 
Q 47.125 21.390625 47.125 36.375 
Q 47.125 51.421875 43.28125 58.90625 
Q 39.453125 66.40625 31.78125 66.40625 
z
M 31.78125 74.21875 
Q 44.046875 74.21875 50.515625 64.515625 
Q 56.984375 54.828125 56.984375 36.375 
Q 56.984375 17.96875 50.515625 8.265625 
Q 44.046875 -1.421875 31.78125 -1.421875 
Q 19.53125 -1.421875 13.0625 8.265625 
Q 6.59375 17.96875 6.59375 36.375 
Q 6.59375 54.828125 13.0625 64.515625 
Q 19.53125 74.21875 31.78125 74.21875 
z
" id="DejaVuSans-30"/>
      </defs>
      <g transform="translate(77.573295 399.078438)scale(0.1 -0.1)">
       <use xlink:href="#DejaVuSans-30"/>
      </g>
     </g>
    </g>
    <g id="xtick_2">
     <g id="line2d_2">
      <g>
       <use style="stroke:#000000;stroke-width:0.8;" x="151.767796" xlink:href="#ma9f3d548cc" y="384.48"/>
      </g>
     </g>
     <g id="text_2">
      <!-- 720 -->
      <defs>
       <path d="M 8.203125 72.90625 
L 55.078125 72.90625 
L 55.078125 68.703125 
L 28.609375 0 
L 18.3125 0 
L 43.21875 64.59375 
L 8.203125 64.59375 
z
" id="DejaVuSans-37"/>
       <path d="M 19.1875 8.296875 
L 53.609375 8.296875 
L 53.609375 0 
L 7.328125 0 
L 7.328125 8.296875 
Q 12.9375 14.109375 22.625 23.890625 
Q 32.328125 33.6875 34.8125 36.53125 
Q 39.546875 41.84375 41.421875 45.53125 
Q 43.3125 49.21875 43.3125 52.78125 
Q 43.3125 58.59375 39.234375 62.25 
Q 35.15625 65.921875 28.609375 65.921875 
Q 23.96875 65.921875 18.8125 64.3125 
Q 13.671875 62.703125 7.8125 59.421875 
L 7.8125 69.390625 
Q 13.765625 71.78125 18.9375 73 
Q 24.125 74.21875 28.421875 74.21875 
Q 39.75 74.21875 46.484375 68.546875 
Q 53.21875 62.890625 53.21875 53.421875 
Q 53.21875 48.921875 51.53125 44.890625 
Q 49.859375 40.875 45.40625 35.40625 
Q 44.1875 33.984375 37.640625 27.21875 
Q 31.109375 20.453125 19.1875 8.296875 
z
" id="DejaVuSans-32"/>
      </defs>
      <g transform="translate(142.224046 399.078438)scale(0.1 -0.1)">
       <use xlink:href="#DejaVuSans-37"/>
       <use x="63.623047" xlink:href="#DejaVuSans-32"/>
       <use x="127.246094" xlink:href="#DejaVuSans-30"/>
      </g>
     </g>
    </g>
    <g id="xtick_3">
     <g id="line2d_3">
      <g>
       <use style="stroke:#000000;stroke-width:0.8;" x="222.781046" xlink:href="#ma9f3d548cc" y="384.48"/>
      </g>
     </g>
     <g id="text_3">
      <!-- 1440 -->
      <defs>
       <path d="M 12.40625 8.296875 
L 28.515625 8.296875 
L 28.515625 63.921875 
L 10.984375 60.40625 
L 10.984375 69.390625 
L 28.421875 72.90625 
L 38.28125 72.90625 
L 38.28125 8.296875 
L 54.390625 8.296875 
L 54.390625 0 
L 12.40625 0 
z
" id="DejaVuSans-31"/>
       <path d="M 37.796875 64.3125 
L 12.890625 25.390625 
L 37.796875 25.390625 
z
M 35.203125 72.90625 
L 47.609375 72.90625 
L 47.609375 25.390625 
L 58.015625 25.390625 
L 58.015625 17.1875 
L 47.609375 17.1875 
L 47.609375 0 
L 37.796875 0 
L 37.796875 17.1875 
L 4.890625 17.1875 
L 4.890625 26.703125 
z
" id="DejaVuSans-34"/>
      </defs>
      <g transform="translate(210.056046 399.078438)scale(0.1 -0.1)">
       <use xlink:href="#DejaVuSans-31"/>
       <use x="63.623047" xlink:href="#DejaVuSans-34"/>
       <use x="127.246094" xlink:href="#DejaVuSans-34"/>
       <use x="190.869141" xlink:href="#DejaVuSans-30"/>
      </g>
     </g>
    </g>
    <g id="xtick_4">
     <g id="line2d_4">
      <g>
       <use style="stroke:#000000;stroke-width:0.8;" x="293.794296" xlink:href="#ma9f3d548cc" y="384.48"/>
      </g>
     </g>
     <g id="text_4">
      <!-- 2160 -->
      <defs>
       <path d="M 33.015625 40.375 
Q 26.375 40.375 22.484375 35.828125 
Q 18.609375 31.296875 18.609375 23.390625 
Q 18.609375 15.53125 22.484375 10.953125 
Q 26.375 6.390625 33.015625 6.390625 
Q 39.65625 6.390625 43.53125 10.953125 
Q 47.40625 15.53125 47.40625 23.390625 
Q 47.40625 31.296875 43.53125 35.828125 
Q 39.65625 40.375 33.015625 40.375 
z
M 52.59375 71.296875 
L 52.59375 62.3125 
Q 48.875 64.0625 45.09375 64.984375 
Q 41.3125 65.921875 37.59375 65.921875 
Q 27.828125 65.921875 22.671875 59.328125 
Q 17.53125 52.734375 16.796875 39.40625 
Q 19.671875 43.65625 24.015625 45.921875 
Q 28.375 48.1875 33.59375 48.1875 
Q 44.578125 48.1875 50.953125 41.515625 
Q 57.328125 34.859375 57.328125 23.390625 
Q 57.328125 12.15625 50.6875 5.359375 
Q 44.046875 -1.421875 33.015625 -1.421875 
Q 20.359375 -1.421875 13.671875 8.265625 
Q 6.984375 17.96875 6.984375 36.375 
Q 6.984375 53.65625 15.1875 63.9375 
Q 23.390625 74.21875 37.203125 74.21875 
Q 40.921875 74.21875 44.703125 73.484375 
Q 48.484375 72.75 52.59375 71.296875 
z
" id="DejaVuSans-36"/>
      </defs>
      <g transform="translate(281.069296 399.078438)scale(0.1 -0.1)">
       <use xlink:href="#DejaVuSans-32"/>
       <use x="63.623047" xlink:href="#DejaVuSans-31"/>
       <use x="127.246094" xlink:href="#DejaVuSans-36"/>
       <use x="190.869141" xlink:href="#DejaVuSans-30"/>
      </g>
     </g>
    </g>
    <g id="xtick_5">
     <g id="line2d_5">
      <g>
       <use style="stroke:#000000;stroke-width:0.8;" x="364.807547" xlink:href="#ma9f3d548cc" y="384.48"/>
      </g>
     </g>
     <g id="text_5">
      <!-- 2880 -->
      <defs>
       <path d="M 31.78125 34.625 
Q 24.75 34.625 20.71875 30.859375 
Q 16.703125 27.09375 16.703125 20.515625 
Q 16.703125 13.921875 20.71875 10.15625 
Q 24.75 6.390625 31.78125 6.390625 
Q 38.8125 6.390625 42.859375 10.171875 
Q 46.921875 13.96875 46.921875 20.515625 
Q 46.921875 27.09375 42.890625 30.859375 
Q 38.875 34.625 31.78125 34.625 
z
M 21.921875 38.8125 
Q 15.578125 40.375 12.03125 44.71875 
Q 8.5 49.078125 8.5 55.328125 
Q 8.5 64.0625 14.71875 69.140625 
Q 20.953125 74.21875 31.78125 74.21875 
Q 42.671875 74.21875 48.875 69.140625 
Q 55.078125 64.0625 55.078125 55.328125 
Q 55.078125 49.078125 51.53125 44.71875 
Q 48 40.375 41.703125 38.8125 
Q 48.828125 37.15625 52.796875 32.3125 
Q 56.78125 27.484375 56.78125 20.515625 
Q 56.78125 9.90625 50.3125 4.234375 
Q 43.84375 -1.421875 31.78125 -1.421875 
Q 19.734375 -1.421875 13.25 4.234375 
Q 6.78125 9.90625 6.78125 20.515625 
Q 6.78125 27.484375 10.78125 32.3125 
Q 14.796875 37.15625 21.921875 38.8125 
z
M 18.3125 54.390625 
Q 18.3125 48.734375 21.84375 45.5625 
Q 25.390625 42.390625 31.78125 42.390625 
Q 38.140625 42.390625 41.71875 45.5625 
Q 45.3125 48.734375 45.3125 54.390625 
Q 45.3125 60.0625 41.71875 63.234375 
Q 38.140625 66.40625 31.78125 66.40625 
Q 25.390625 66.40625 21.84375 63.234375 
Q 18.3125 60.0625 18.3125 54.390625 
z
" id="DejaVuSans-38"/>
      </defs>
      <g transform="translate(352.082547 399.078438)scale(0.1 -0.1)">
       <use xlink:href="#DejaVuSans-32"/>
       <use x="63.623047" xlink:href="#DejaVuSans-38"/>
       <use x="127.246094" xlink:href="#DejaVuSans-38"/>
       <use x="190.869141" xlink:href="#DejaVuSans-30"/>
      </g>
     </g>
    </g>
    <g id="text_6">
     <!-- time [ms] -->
     <defs>
      <path d="M 18.3125 70.21875 
L 18.3125 54.6875 
L 36.8125 54.6875 
L 36.8125 47.703125 
L 18.3125 47.703125 
L 18.3125 18.015625 
Q 18.3125 11.328125 20.140625 9.421875 
Q 21.96875 7.515625 27.59375 7.515625 
L 36.8125 7.515625 
L 36.8125 0 
L 27.59375 0 
Q 17.1875 0 13.234375 3.875 
Q 9.28125 7.765625 9.28125 18.015625 
L 9.28125 47.703125 
L 2.6875 47.703125 
L 2.6875 54.6875 
L 9.28125 54.6875 
L 9.28125 70.21875 
z
" id="DejaVuSans-74"/>
      <path d="M 9.421875 54.6875 
L 18.40625 54.6875 
L 18.40625 0 
L 9.421875 0 
z
M 9.421875 75.984375 
L 18.40625 75.984375 
L 18.40625 64.59375 
L 9.421875 64.59375 
z
" id="DejaVuSans-69"/>
      <path d="M 52 44.1875 
Q 55.375 50.25 60.0625 53.125 
Q 64.75 56 71.09375 56 
Q 79.640625 56 84.28125 50.015625 
Q 88.921875 44.046875 88.921875 33.015625 
L 88.921875 0 
L 79.890625 0 
L 79.890625 32.71875 
Q 79.890625 40.578125 77.09375 44.375 
Q 74.3125 48.1875 68.609375 48.1875 
Q 61.625 48.1875 57.5625 43.546875 
Q 53.515625 38.921875 53.515625 30.90625 
L 53.515625 0 
L 44.484375 0 
L 44.484375 32.71875 
Q 44.484375 40.625 41.703125 44.40625 
Q 38.921875 48.1875 33.109375 48.1875 
Q 26.21875 48.1875 22.15625 43.53125 
Q 18.109375 38.875 18.109375 30.90625 
L 18.109375 0 
L 9.078125 0 
L 9.078125 54.6875 
L 18.109375 54.6875 
L 18.109375 46.1875 
Q 21.1875 51.21875 25.484375 53.609375 
Q 29.78125 56 35.6875 56 
Q 41.65625 56 45.828125 52.96875 
Q 50 49.953125 52 44.1875 
z
" id="DejaVuSans-6d"/>
      <path d="M 56.203125 29.59375 
L 56.203125 25.203125 
L 14.890625 25.203125 
Q 15.484375 15.921875 20.484375 11.0625 
Q 25.484375 6.203125 34.421875 6.203125 
Q 39.59375 6.203125 44.453125 7.46875 
Q 49.3125 8.734375 54.109375 11.28125 
L 54.109375 2.78125 
Q 49.265625 0.734375 44.1875 -0.34375 
Q 39.109375 -1.421875 33.890625 -1.421875 
Q 20.796875 -1.421875 13.15625 6.1875 
Q 5.515625 13.8125 5.515625 26.8125 
Q 5.515625 40.234375 12.765625 48.109375 
Q 20.015625 56 32.328125 56 
Q 43.359375 56 49.78125 48.890625 
Q 56.203125 41.796875 56.203125 29.59375 
z
M 47.21875 32.234375 
Q 47.125 39.59375 43.09375 43.984375 
Q 39.0625 48.390625 32.421875 48.390625 
Q 24.90625 48.390625 20.390625 44.140625 
Q 15.875 39.890625 15.1875 32.171875 
z
" id="DejaVuSans-65"/>
      <path id="DejaVuSans-20"/>
      <path d="M 8.59375 75.984375 
L 29.296875 75.984375 
L 29.296875 69 
L 17.578125 69 
L 17.578125 -6.203125 
L 29.296875 -6.203125 
L 29.296875 -13.1875 
L 8.59375 -13.1875 
z
" id="DejaVuSans-5b"/>
      <path d="M 44.28125 53.078125 
L 44.28125 44.578125 
Q 40.484375 46.53125 36.375 47.5 
Q 32.28125 48.484375 27.875 48.484375 
Q 21.1875 48.484375 17.84375 46.4375 
Q 14.5 44.390625 14.5 40.28125 
Q 14.5 37.15625 16.890625 35.375 
Q 19.28125 33.59375 26.515625 31.984375 
L 29.59375 31.296875 
Q 39.15625 29.25 43.1875 25.515625 
Q 47.21875 21.78125 47.21875 15.09375 
Q 47.21875 7.46875 41.1875 3.015625 
Q 35.15625 -1.421875 24.609375 -1.421875 
Q 20.21875 -1.421875 15.453125 -0.5625 
Q 10.6875 0.296875 5.421875 2 
L 5.421875 11.28125 
Q 10.40625 8.6875 15.234375 7.390625 
Q 20.0625 6.109375 24.8125 6.109375 
Q 31.15625 6.109375 34.5625 8.28125 
Q 37.984375 10.453125 37.984375 14.40625 
Q 37.984375 18.0625 35.515625 20.015625 
Q 33.0625 21.96875 24.703125 23.78125 
L 21.578125 24.515625 
Q 13.234375 26.265625 9.515625 29.90625 
Q 5.8125 33.546875 5.8125 39.890625 
Q 5.8125 47.609375 11.28125 51.796875 
Q 16.75 56 26.8125 56 
Q 31.78125 56 36.171875 55.265625 
Q 40.578125 54.546875 44.28125 53.078125 
z
" id="DejaVuSans-73"/>
      <path d="M 30.421875 75.984375 
L 30.421875 -13.1875 
L 9.71875 -13.1875 
L 9.71875 -6.203125 
L 21.390625 -6.203125 
L 21.390625 69 
L 9.71875 69 
L 9.71875 75.984375 
z
" id="DejaVuSans-5d"/>
     </defs>
     <g transform="translate(234.038281 412.756563)scale(0.1 -0.1)">
      <use xlink:href="#DejaVuSans-74"/>
      <use x="39.208984" xlink:href="#DejaVuSans-69"/>
      <use x="66.992188" xlink:href="#DejaVuSans-6d"/>
      <use x="164.404297" xlink:href="#DejaVuSans-65"/>
      <use x="225.927734" xlink:href="#DejaVuSans-20"/>
      <use x="257.714844" xlink:href="#DejaVuSans-5b"/>
      <use x="296.728516" xlink:href="#DejaVuSans-6d"/>
      <use x="394.140625" xlink:href="#DejaVuSans-73"/>
      <use x="446.240234" xlink:href="#DejaVuSans-5d"/>
     </g>
    </g>
   </g>
   <g id="matplotlib.axis_2">
    <g id="ytick_1">
     <g id="line2d_6">
      <defs>
       <path d="M 0 0 
L -3.5 0 
" id="mdbb78508bf" style="stroke:#000000;stroke-width:0.8;"/>
      </defs>
      <g>
       <use style="stroke:#000000;stroke-width:0.8;" x="63" xlink:href="#mdbb78508bf" y="368.738793"/>
      </g>
     </g>
     <g id="text_7">
      <!-- −80 -->
      <defs>
       <path d="M 10.59375 35.5 
L 73.1875 35.5 
L 73.1875 27.203125 
L 10.59375 27.203125 
z
" id="DejaVuSans-2212"/>
      </defs>
      <g transform="translate(34.895313 372.538011)scale(0.1 -0.1)">
       <use xlink:href="#DejaVuSans-2212"/>
       <use x="83.789062" xlink:href="#DejaVuSans-38"/>
       <use x="147.412109" xlink:href="#DejaVuSans-30"/>
      </g>
     </g>
    </g>
    <g id="ytick_2">
     <g id="line2d_7">
      <g>
       <use style="stroke:#000000;stroke-width:0.8;" x="63" xlink:href="#mdbb78508bf" y="318.436551"/>
      </g>
     </g>
     <g id="text_8">
      <!-- −60 -->
      <g transform="translate(34.895313 322.23577)scale(0.1 -0.1)">
       <use xlink:href="#DejaVuSans-2212"/>
       <use x="83.789062" xlink:href="#DejaVuSans-36"/>
       <use x="147.412109" xlink:href="#DejaVuSans-30"/>
      </g>
     </g>
    </g>
    <g id="ytick_3">
     <g id="line2d_8">
      <g>
       <use style="stroke:#000000;stroke-width:0.8;" x="63" xlink:href="#mdbb78508bf" y="268.13431"/>
      </g>
     </g>
     <g id="text_9">
      <!-- −40 -->
      <g transform="translate(34.895313 271.933529)scale(0.1 -0.1)">
       <use xlink:href="#DejaVuSans-2212"/>
       <use x="83.789062" xlink:href="#DejaVuSans-34"/>
       <use x="147.412109" xlink:href="#DejaVuSans-30"/>
      </g>
     </g>
    </g>
    <g id="ytick_4">
     <g id="line2d_9">
      <g>
       <use style="stroke:#000000;stroke-width:0.8;" x="63" xlink:href="#mdbb78508bf" y="217.832069"/>
      </g>
     </g>
     <g id="text_10">
      <!-- −20 -->
      <g transform="translate(34.895313 221.631288)scale(0.1 -0.1)">
       <use xlink:href="#DejaVuSans-2212"/>
       <use x="83.789062" xlink:href="#DejaVuSans-32"/>
       <use x="147.412109" xlink:href="#DejaVuSans-30"/>
      </g>
     </g>
    </g>
    <g id="ytick_5">
     <g id="line2d_10">
      <g>
       <use style="stroke:#000000;stroke-width:0.8;" x="63" xlink:href="#mdbb78508bf" y="167.529828"/>
      </g>
     </g>
     <g id="text_11">
      <!-- 0 -->
      <g transform="translate(49.6375 171.329047)scale(0.1 -0.1)">
       <use xlink:href="#DejaVuSans-30"/>
      </g>
     </g>
    </g>
    <g id="ytick_6">
     <g id="line2d_11">
      <g>
       <use style="stroke:#000000;stroke-width:0.8;" x="63" xlink:href="#mdbb78508bf" y="117.227587"/>
      </g>
     </g>
     <g id="text_12">
      <!-- 20 -->
      <g transform="translate(43.275 121.026806)scale(0.1 -0.1)">
       <use xlink:href="#DejaVuSans-32"/>
       <use x="63.623047" xlink:href="#DejaVuSans-30"/>
      </g>
     </g>
    </g>
    <g id="ytick_7">
     <g id="line2d_12">
      <g>
       <use style="stroke:#000000;stroke-width:0.8;" x="63" xlink:href="#mdbb78508bf" y="66.925346"/>
      </g>
     </g>
     <g id="text_13">
      <!-- 40 -->
      <g transform="translate(43.275 70.724565)scale(0.1 -0.1)">
       <use xlink:href="#DejaVuSans-34"/>
       <use x="63.623047" xlink:href="#DejaVuSans-30"/>
      </g>
     </g>
    </g>
    <g id="text_14">
     <!-- Voltage [mV] -->
     <defs>
      <path d="M 28.609375 0 
L 0.78125 72.90625 
L 11.078125 72.90625 
L 34.1875 11.53125 
L 57.328125 72.90625 
L 67.578125 72.90625 
L 39.796875 0 
z
" id="DejaVuSans-56"/>
      <path d="M 30.609375 48.390625 
Q 23.390625 48.390625 19.1875 42.75 
Q 14.984375 37.109375 14.984375 27.296875 
Q 14.984375 17.484375 19.15625 11.84375 
Q 23.34375 6.203125 30.609375 6.203125 
Q 37.796875 6.203125 41.984375 11.859375 
Q 46.1875 17.53125 46.1875 27.296875 
Q 46.1875 37.015625 41.984375 42.703125 
Q 37.796875 48.390625 30.609375 48.390625 
z
M 30.609375 56 
Q 42.328125 56 49.015625 48.375 
Q 55.71875 40.765625 55.71875 27.296875 
Q 55.71875 13.875 49.015625 6.21875 
Q 42.328125 -1.421875 30.609375 -1.421875 
Q 18.84375 -1.421875 12.171875 6.21875 
Q 5.515625 13.875 5.515625 27.296875 
Q 5.515625 40.765625 12.171875 48.375 
Q 18.84375 56 30.609375 56 
z
" id="DejaVuSans-6f"/>
      <path d="M 9.421875 75.984375 
L 18.40625 75.984375 
L 18.40625 0 
L 9.421875 0 
z
" id="DejaVuSans-6c"/>
      <path d="M 34.28125 27.484375 
Q 23.390625 27.484375 19.1875 25 
Q 14.984375 22.515625 14.984375 16.5 
Q 14.984375 11.71875 18.140625 8.90625 
Q 21.296875 6.109375 26.703125 6.109375 
Q 34.1875 6.109375 38.703125 11.40625 
Q 43.21875 16.703125 43.21875 25.484375 
L 43.21875 27.484375 
z
M 52.203125 31.203125 
L 52.203125 0 
L 43.21875 0 
L 43.21875 8.296875 
Q 40.140625 3.328125 35.546875 0.953125 
Q 30.953125 -1.421875 24.3125 -1.421875 
Q 15.921875 -1.421875 10.953125 3.296875 
Q 6 8.015625 6 15.921875 
Q 6 25.140625 12.171875 29.828125 
Q 18.359375 34.515625 30.609375 34.515625 
L 43.21875 34.515625 
L 43.21875 35.40625 
Q 43.21875 41.609375 39.140625 45 
Q 35.0625 48.390625 27.6875 48.390625 
Q 23 48.390625 18.546875 47.265625 
Q 14.109375 46.140625 10.015625 43.890625 
L 10.015625 52.203125 
Q 14.9375 54.109375 19.578125 55.046875 
Q 24.21875 56 28.609375 56 
Q 40.484375 56 46.34375 49.84375 
Q 52.203125 43.703125 52.203125 31.203125 
z
" id="DejaVuSans-61"/>
      <path d="M 45.40625 27.984375 
Q 45.40625 37.75 41.375 43.109375 
Q 37.359375 48.484375 30.078125 48.484375 
Q 22.859375 48.484375 18.828125 43.109375 
Q 14.796875 37.75 14.796875 27.984375 
Q 14.796875 18.265625 18.828125 12.890625 
Q 22.859375 7.515625 30.078125 7.515625 
Q 37.359375 7.515625 41.375 12.890625 
Q 45.40625 18.265625 45.40625 27.984375 
z
M 54.390625 6.78125 
Q 54.390625 -7.171875 48.1875 -13.984375 
Q 42 -20.796875 29.203125 -20.796875 
Q 24.46875 -20.796875 20.265625 -20.09375 
Q 16.0625 -19.390625 12.109375 -17.921875 
L 12.109375 -9.1875 
Q 16.0625 -11.328125 19.921875 -12.34375 
Q 23.78125 -13.375 27.78125 -13.375 
Q 36.625 -13.375 41.015625 -8.765625 
Q 45.40625 -4.15625 45.40625 5.171875 
L 45.40625 9.625 
Q 42.625 4.78125 38.28125 2.390625 
Q 33.9375 0 27.875 0 
Q 17.828125 0 11.671875 7.65625 
Q 5.515625 15.328125 5.515625 27.984375 
Q 5.515625 40.671875 11.671875 48.328125 
Q 17.828125 56 27.875 56 
Q 33.9375 56 38.28125 53.609375 
Q 42.625 51.21875 45.40625 46.390625 
L 45.40625 54.6875 
L 54.390625 54.6875 
z
" id="DejaVuSans-67"/>
     </defs>
     <g transform="translate(28.815625 251.079531)rotate(-90)scale(0.1 -0.1)">
      <use xlink:href="#DejaVuSans-56"/>
      <use x="68.298828" xlink:href="#DejaVuSans-6f"/>
      <use x="129.480469" xlink:href="#DejaVuSans-6c"/>
      <use x="157.263672" xlink:href="#DejaVuSans-74"/>
      <use x="196.472656" xlink:href="#DejaVuSans-61"/>
      <use x="257.751953" xlink:href="#DejaVuSans-67"/>
      <use x="321.228516" xlink:href="#DejaVuSans-65"/>
      <use x="382.751953" xlink:href="#DejaVuSans-20"/>
      <use x="414.539062" xlink:href="#DejaVuSans-5b"/>
      <use x="453.552734" xlink:href="#DejaVuSans-6d"/>
      <use x="550.964844" xlink:href="#DejaVuSans-56"/>
      <use x="619.373047" xlink:href="#DejaVuSans-5d"/>
     </g>
    </g>
   </g>
   <g id="line2d_13">
    <path clip-path="url(#p6c782f771c)" d="M 80.754545 331.012112 
L 81.163858 331.356746 
L 81.80495 331.493353 
L 83.506309 331.568825 
L 86.637796 331.476581 
L 100.347298 330.858276 
L 100.480448 330.85597 
L 100.623461 337.043664 
L 101.042637 342.724623 
L 102.078246 353.511824 
L 103.108925 362.225538 
L 103.819057 366.557738 
L 104.336862 368.514946 
L 104.721517 369.229887 
L 104.99768 369.359053 
L 105.239322 369.228278 
L 105.550005 368.766854 
L 105.99877 367.643637 
L 106.792737 364.937731 
L 108.114373 360.554561 
L 108.863957 358.818885 
L 109.500117 357.863684 
L 110.062306 357.390588 
L 110.589974 357.224986 
L 111.132436 357.290987 
L 111.763665 357.605164 
L 112.61681 358.303863 
L 115.570764 360.931348 
L 116.438704 361.298575 
L 117.291849 361.418328 
L 118.258418 361.320013 
L 119.727998 360.913374 
L 121.883053 360.353268 
L 123.372359 360.214042 
L 125.192073 360.284825 
L 130.069303 360.579545 
L 130.212315 354.438614 
L 130.611765 349.232563 
L 131.39587 341.899807 
L 132.249015 335.882662 
L 133.072571 331.573773 
L 133.861607 328.56533 
L 134.621055 326.499949 
L 135.350913 325.126087 
L 136.056114 324.24972 
L 136.746521 323.730891 
L 137.456653 323.470999 
L 138.225963 323.429059 
L 139.128424 323.611471 
L 139.932254 323.920406 
L 140.045678 331.167904 
L 140.42047 331.383864 
L 141.150329 331.509396 
L 143.09333 331.568787 
L 146.525637 331.43713 
L 157.705293 330.896204 
L 159.663088 330.85597 
L 159.806101 329.614697 
L 160.23514 328.4438 
L 161.334859 326.141066 
L 162.686083 323.799545 
L 164.022513 321.916321 
L 165.363874 320.40311 
L 166.734825 319.187722 
L 168.164953 318.215343 
L 169.69371 317.445526 
L 171.370412 316.852561 
L 173.278893 316.418359 
L 175.557235 316.1362 
L 178.496394 316.00907 
L 183.067872 316.0606 
L 189.251943 316.236834 
L 189.399887 317.514706 
L 189.838788 318.743904 
L 190.889193 320.990172 
L 192.166445 323.218977 
L 193.468354 325.054322 
L 194.799853 326.553668 
L 196.175735 327.771904 
L 197.620657 328.755447 
L 199.114894 329.515771 
L 199.228318 331.167904 
L 199.60311 331.383864 
L 200.332969 331.509396 
L 202.27597 331.568787 
L 205.708277 331.43713 
L 216.887933 330.896204 
L 218.845729 330.85597 
L 218.988741 328.375423 
L 219.407917 326.083686 
L 220.473116 321.594788 
L 221.839134 316.754483 
L 223.441864 311.919866 
L 224.936101 307.309216 
L 225.271441 305.531884 
L 225.360208 303.925482 
L 225.375002 301.138008 
L 225.444043 67.42201 
L 225.547604 186.091656 
L 225.754726 304.410913 
L 225.981574 308.571324 
L 226.188696 309.228018 
L 226.346503 309.212797 
L 226.657186 308.84204 
L 227.485674 307.869113 
L 228.299367 307.322675 
L 231.287842 305.500942 
L 232.362903 304.543079 
L 233.05331 303.640267 
L 233.462623 302.748096 
L 233.669745 301.753031 
L 233.738785 300.390357 
L 233.758511 291.476706 
L 233.82262 75.322532 
L 233.916318 181.952967 
L 234.128372 301.616191 
L 234.360151 306.360332 
L 234.59193 307.32434 
L 234.818778 307.490129 
L 235.371104 307.455184 
L 235.879046 307.585467 
L 236.889998 308.15185 
L 238.236291 308.79786 
L 239.518475 309.160014 
L 240.943671 309.327022 
L 242.630236 309.292778 
L 244.765565 309.015248 
L 247.82308 308.374237 
L 248.434583 308.227618 
L 248.582527 310.789563 
L 249.001703 313.128365 
L 249.899231 316.848292 
L 250.979224 320.416028 
L 252.088806 323.339684 
L 253.223046 325.719128 
L 254.377011 327.637253 
L 255.555634 329.176267 
L 256.768777 330.402445 
L 258.036166 331.370586 
L 258.297534 331.536439 
L 258.302466 331.012112 
L 258.410958 331.167904 
L 258.78575 331.383864 
L 259.515609 331.509396 
L 261.45861 331.568787 
L 264.890917 331.43713 
L 276.070573 330.896204 
L 278.028369 330.85597 
L 278.171381 327.135653 
L 278.590557 323.694855 
L 279.695207 316.657914 
L 281.381772 306.018252 
L 281.47547 303.58842 
L 281.495196 279.004582 
L 281.554374 67.213958 
L 281.662866 195.116795 
L 281.860125 304.005813 
L 282.07711 307.4751 
L 282.220123 307.758253 
L 282.24478 307.746825 
L 282.382862 307.502135 
L 282.732996 306.281486 
L 283.507238 302.756721 
L 283.743949 300.773987 
L 283.798195 298.209119 
L 283.837647 238.388921 
L 283.872167 74.560974 
L 283.960934 179.043147 
L 284.172987 301.757712 
L 284.394904 306.262742 
L 284.587231 306.812299 
L 284.710518 306.711594 
L 284.986681 306.07124 
L 286.633794 301.230334 
L 286.850779 299.758254 
L 286.905025 297.961432 
L 286.924751 275.283147 
L 286.983929 80.566809 
L 287.08749 201.260366 
L 287.279817 299.57608 
L 287.511596 304.449878 
L 287.713787 305.136839 
L 287.861731 305.110303 
L 288.132962 304.716017 
L 289.42994 302.632863 
L 290.218977 301.31209 
L 290.593769 300.245461 
L 290.761439 299.11834 
L 290.810754 297.381489 
L 290.83048 274.018305 
L 290.889657 84.894084 
L 290.993218 204.149166 
L 291.185546 298.172643 
L 291.417325 303.203702 
L 291.63431 304.046939 
L 291.811843 304.089206 
L 292.092937 303.838032 
L 293.00526 302.966486 
L 294.859495 301.565113 
L 295.362506 300.798192 
L 295.668257 299.933398 
L 295.806339 298.891267 
L 295.84579 297.230554 
L 295.865516 273.019715 
L 295.924694 87.752409 
L 296.023324 200.6271 
L 296.220583 297.350425 
L 296.457293 302.540896 
L 296.67921 303.453768 
L 296.8814 303.553723 
L 297.18222 303.382403 
L 297.951531 302.935998 
L 298.9181 302.732635 
L 299.938915 302.418165 
L 300.718088 301.9437 
L 301.319728 301.322096 
L 301.729041 300.585857 
L 301.955889 299.726976 
L 302.044655 298.557017 
L 302.069313 294.852324 
L 302.138353 89.596883 
L 302.232051 193.509215 
L 302.434242 296.889035 
L 302.675884 302.316507 
L 302.902732 303.278505 
L 303.114786 303.409939 
L 303.425469 303.281147 
L 304.150395 302.985848 
L 304.983815 302.956207 
L 306.216684 302.862611 
L 307.129007 302.562981 
L 307.617223 302.290011 
L 307.765167 306.29191 
L 308.164617 309.865957 
L 308.953653 314.909549 
L 309.900496 319.583617 
L 310.896654 323.418363 
L 311.922401 326.508431 
L 312.967874 328.97381 
L 314.028141 330.9233 
L 315.103203 332.449563 
L 316.202922 333.633303 
L 317.33223 334.528258 
L 317.480174 334.624914 
L 317.485106 331.012112 
L 317.593598 331.167904 
L 317.96839 331.383864 
L 318.698249 331.509396 
L 320.64125 331.568787 
L 324.073557 331.43713 
L 335.253213 330.896204 
L 337.211009 330.85597 
L 337.354022 325.895293 
L 337.773197 321.297741 
L 339.533734 303.608483 
L 339.548528 290.783228 
L 339.612637 67.010945 
L 339.711267 181.1746 
L 339.918389 303.629256 
L 340.130442 306.486881 
L 340.204414 306.569353 
L 340.253729 306.511714 
L 340.411536 305.970457 
L 340.810986 303.593118 
L 341.220298 300.032593 
L 341.309065 297.335224 
L 341.328791 273.546926 
L 341.383037 74.071146 
L 341.49153 200.027326 
L 341.683857 301.097781 
L 341.900842 305.284283 
L 342.024129 305.573581 
L 342.058649 305.552173 
L 342.191799 305.231944 
L 342.52714 303.672485 
L 343.118917 299.897454 
L 343.271792 297.579143 
L 343.29645 291.165833 
L 343.360559 80.286827 
L 343.454257 186.805294 
L 343.656447 299.096923 
L 343.878364 303.757352 
L 344.036171 304.169676 
L 344.050966 304.164328 
L 344.169321 303.971111 
L 344.455347 302.947249 
L 345.091507 299.76978 
L 345.308492 297.704512 
L 345.352875 294.466775 
L 345.407121 113.169944 
L 345.421916 84.591198 
L 345.500819 172.747384 
L 345.712873 297.54091 
L 345.939721 302.615919 
L 346.122185 303.156617 
L 346.235609 303.042639 
L 346.487115 302.347564 
L 347.123275 299.807879 
L 347.414232 297.911232 
L 347.488204 295.891277 
L 347.502999 283.505024 
L 347.567108 87.449413 
L 347.660806 194.765078 
L 347.858065 296.691177 
L 348.089844 301.924255 
L 348.282172 302.531709 
L 348.400527 302.448308 
L 348.647101 301.883401 
L 349.31285 299.661645 
L 349.638328 297.951006 
L 349.727094 296.404875 
L 349.74682 291.967195 
L 349.815861 89.491899 
L 349.904627 191.30993 
L 350.101886 295.819008 
L 350.338597 301.334806 
L 350.535856 302.023284 
L 350.664074 301.972997 
L 350.900785 301.526044 
L 351.571466 299.643628 
L 351.941327 298.091875 
L 352.059682 296.606212 
L 352.084339 293.322008 
L 352.15338 90.722618 
L 352.247078 195.501954 
L 352.444337 295.598231 
L 352.681048 301.071772 
L 352.883239 301.807754 
L 353.02132 301.777669 
L 353.262962 301.381238 
L 354.022409 299.542267 
L 354.402133 298.166312 
L 354.530351 296.874802 
L 354.55994 294.824714 
L 354.604324 215.17844 
L 354.633912 91.565544 
L 354.717748 186.471414 
L 354.919938 295.151685 
L 355.16158 300.824279 
L 355.368702 301.601851 
L 355.516647 301.589543 
L 355.758289 301.242476 
L 356.576914 299.507073 
L 356.9665 298.279111 
L 357.109513 297.110116 
L 357.148965 294.833976 
L 357.193348 215.296341 
L 357.222937 92.12151 
L 357.306772 186.909629 
L 357.513894 295.203134 
L 357.750605 300.67805 
L 357.957727 301.490821 
L 358.115534 301.500484 
L 358.357177 301.192871 
L 359.254705 299.500183 
L 359.649223 298.39084 
L 359.80703 297.264963 
L 359.851414 295.140021 
L 359.890866 238.09375 
L 359.925386 92.480769 
L 360.014152 191.283078 
L 360.216343 295.123133 
L 360.457985 300.690916 
L 360.670039 301.50839 
L 360.832777 301.52109 
L 361.084283 301.220893 
L 362.154413 299.377706 
L 362.509479 298.377931 
L 362.652492 297.320745 
L 362.696875 294.793157 
L 362.741258 213.460795 
L 362.770847 92.760559 
L 362.854682 187.811113 
L 363.061804 295.074479 
L 363.298515 300.528969 
L 363.510569 301.386447 
L 363.678239 301.420979 
L 363.924813 301.156858 
L 364.970286 299.493173 
L 365.354941 298.538311 
L 365.522611 297.493295 
L 365.571926 295.668534 
L 365.596583 264.731453 
L 365.650829 93.034431 
L 365.749459 204.867644 
L 365.941786 295.099162 
L 366.178497 300.537478 
L 366.390551 301.405867 
L 366.563152 301.450365 
L 366.799863 301.215466 
L 366.942876 305.9462 
L 367.352188 309.943532 
L 368.25958 316.649747 
L 369.181766 321.897077 
L 370.123678 326.015238 
L 371.090247 329.275696 
L 372.071611 331.829968 
L 373.057906 333.800841 
L 374.049132 335.302948 
L 375.050222 336.427404 
L 376.066106 337.242006 
L 376.662814 337.593313 
L 376.667746 331.012112 
L 376.776238 331.167904 
L 377.151031 331.383864 
L 377.880889 331.509396 
L 379.82389 331.568787 
L 383.256197 331.43713 
L 394.435853 330.896204 
L 396.393649 330.85597 
L 396.536662 324.654227 
L 396.960769 318.829103 
L 398.109802 303.987123 
L 398.129528 299.89449 
L 398.198569 66.96 
L 398.292267 176.492239 
L 398.50432 303.134783 
L 398.706511 305.322003 
L 398.750894 305.312908 
L 398.785415 305.24559 
L 398.943222 304.509621 
L 399.318014 301.465113 
L 399.613902 297.52715 
L 399.653354 294.737497 
L 399.692806 218.899817 
L 399.722395 73.701984 
L 399.80623 171.200829 
L 400.023215 300.514137 
L 400.235268 304.208225 
L 400.309241 304.335296 
L 400.363487 304.2686 
L 400.516363 303.653121 
L 400.891155 300.994508 
L 401.251152 297.091695 
L 401.31033 294.152235 
L 401.349782 225.804231 
L 401.379371 79.81876 
L 401.463206 174.413303 
L 401.675259 298.433543 
L 401.892244 302.709596 
L 401.990874 302.92806 
L 402.035257 302.886579 
L 402.173338 302.437934 
L 402.51361 300.388997 
L 402.903197 296.868461 
L 402.987032 294.028468 
L 403.011689 261.964924 
L 403.061004 84.096611 
L 403.164565 203.649303 
L 403.351961 296.854578 
L 403.573877 301.477751 
L 403.692233 301.770896 
L 403.731685 301.740543 
L 403.864835 301.372519 
L 404.190312 299.653089 
L 404.579898 296.5202 
L 404.673597 293.901742 
L 404.693322 270.94713 
L 404.747569 87.185871 
L 404.85113 203.26621 
L 405.043457 295.901063 
L 405.270305 300.637145 
L 405.403455 300.961715 
L 405.433044 300.942222 
L 405.561262 300.641846 
L 405.867014 299.218159 
L 406.266463 296.358841 
L 406.370024 294.157223 
L 406.384819 290.555764 
L 406.448928 89.350266 
L 406.542626 192.253351 
L 406.739885 294.986732 
L 406.971664 300.090961 
L 407.119608 300.490745 
L 407.139334 300.482617 
L 407.25769 300.263475 
L 407.533852 299.151119 
L 407.953028 296.563439 
L 408.091109 294.40597 
L 408.110835 291.536178 
L 408.179876 90.3669 
L 408.278505 202.182529 
L 408.470833 294.665969 
L 408.702612 299.729786 
L 408.860419 300.163441 
L 408.875214 300.158922 
L 408.988638 299.980236 
L 409.254937 299.016528 
L 409.683976 296.618542 
L 409.836852 294.638583 
L 409.861509 292.475587 
L 409.905892 195.312632 
L 409.93055 91.361392 
L 410.014385 183.547732 
L 410.221507 294.235254 
L 410.453286 299.43893 
L 410.625888 299.933677 
L 410.630819 299.93273 
L 410.744243 299.783477 
L 410.995748 298.962694 
L 411.43465 296.734273 
L 411.607251 294.834148 
L 411.641772 291.351774 
L 411.710812 91.878076 
L 411.80451 197.792547 
L 412.001769 294.21534 
L 412.233549 299.376144 
L 412.416013 299.892754 
L 412.529437 299.756774 
L 412.780943 298.988113 
L 413.234638 296.8383 
L 413.417103 295.024524 
L 413.456555 291.703564 
L 413.525595 92.250564 
L 413.629156 208.019578 
L 413.821484 294.296191 
L 414.053263 299.330342 
L 414.235728 299.846015 
L 414.349152 299.72444 
L 414.595726 299.020943 
L 415.059284 296.969333 
L 415.256543 295.200665 
L 415.300927 292.195302 
L 415.350241 147.699501 
L 415.369967 92.580463 
L 415.453802 185.621702 
L 415.660924 293.982824 
L 415.897635 299.274556 
L 416.085031 299.821976 
L 416.198455 299.71154 
L 416.445029 299.045647 
L 416.913519 297.085521 
L 417.125573 295.319559 
L 417.169956 293.192108 
L 417.204476 245.417014 
L 417.243928 92.837009 
L 417.332695 193.044801 
L 417.534885 294.06723 
L 417.771596 299.327871 
L 417.958992 299.884628 
L 418.077348 299.776827 
L 418.323921 299.1342 
L 418.807206 297.199593 
L 419.024191 295.526106 
L 419.073506 293.666602 
L 419.093232 269.892542 
L 419.147478 93.116333 
L 419.246107 201.324758 
L 419.443366 294.127202 
L 419.675146 299.266326 
L 419.862542 299.854477 
L 419.980897 299.763561 
L 420.217608 299.185051 
L 420.700893 297.352233 
L 420.937603 295.690953 
L 420.996781 293.51119 
L 421.02637 255.178146 
L 421.070753 93.08059 
L 421.169383 202.606351 
L 421.366642 294.206651 
L 421.598421 299.313362 
L 421.790749 299.908034 
L 421.909104 299.816101 
L 422.150746 299.235196 
L 422.648826 297.389321 
L 422.885536 295.747026 
L 422.944714 293.438087 
L 422.979234 246.180452 
L 423.018686 93.205601 
L 423.107453 193.032404 
L 423.309643 294.076195 
L 423.546354 299.372381 
L 423.738682 299.971217 
L 423.857037 299.885136 
L 424.098679 299.320223 
L 424.606621 297.492754 
L 424.848264 295.910575 
L 424.912373 293.909102 
L 424.932099 270.48679 
L 424.986345 93.54779 
L 425.089906 206.304899 
L 425.282234 294.14341 
L 425.518944 299.358162 
L 425.711272 299.946841 
L 425.834559 299.856619 
L 425.982503 299.551213 
L 426.125516 305.194265 
L 426.510171 309.264736 
L 427.437288 316.641242 
L 428.349611 322.22892 
L 429.271797 326.546662 
L 430.218641 329.951521 
L 431.180279 332.607627 
L 432.146848 334.647005 
L 433.113417 336.184944 
L 434.079986 337.318502 
L 435.056418 338.130638 
L 435.845455 338.586754 
L 435.845455 338.586754 
" style="fill:none;stroke:#ff0000;stroke-linecap:square;stroke-width:1.5;"/>
   </g>
   <g id="patch_3">
    <path d="M 63 384.48 
L 63 51.84 
" style="fill:none;stroke:#000000;stroke-linecap:square;stroke-linejoin:miter;stroke-width:0.8;"/>
   </g>
   <g id="patch_4">
    <path d="M 453.6 384.48 
L 453.6 51.84 
" style="fill:none;stroke:#000000;stroke-linecap:square;stroke-linejoin:miter;stroke-width:0.8;"/>
   </g>
   <g id="patch_5">
    <path d="M 63 384.48 
L 453.6 384.48 
" style="fill:none;stroke:#000000;stroke-linecap:square;stroke-linejoin:miter;stroke-width:0.8;"/>
   </g>
   <g id="patch_6">
    <path d="M 63 51.84 
L 453.6 51.84 
" style="fill:none;stroke:#000000;stroke-linecap:square;stroke-linejoin:miter;stroke-width:0.8;"/>
   </g>
   <g id="legend_1">
    <g id="patch_7">
     <path d="M 70 74.518125 
L 133.139062 74.518125 
Q 135.139062 74.518125 135.139062 72.518125 
L 135.139062 58.84 
Q 135.139062 56.84 133.139062 56.84 
L 70 56.84 
Q 68 56.84 68 58.84 
L 68 72.518125 
Q 68 74.518125 70 74.518125 
z
" style="fill:#ffffff;opacity:0.8;stroke:#cccccc;stroke-linejoin:miter;"/>
    </g>
    <g id="line2d_14">
     <path d="M 72 64.938438 
L 92 64.938438 
" style="fill:none;stroke:#ff0000;stroke-linecap:square;stroke-width:1.5;"/>
    </g>
    <g id="line2d_15"/>
    <g id="text_15">
     <!-- model -->
     <defs>
      <path d="M 45.40625 46.390625 
L 45.40625 75.984375 
L 54.390625 75.984375 
L 54.390625 0 
L 45.40625 0 
L 45.40625 8.203125 
Q 42.578125 3.328125 38.25 0.953125 
Q 33.9375 -1.421875 27.875 -1.421875 
Q 17.96875 -1.421875 11.734375 6.484375 
Q 5.515625 14.40625 5.515625 27.296875 
Q 5.515625 40.1875 11.734375 48.09375 
Q 17.96875 56 27.875 56 
Q 33.9375 56 38.25 53.625 
Q 42.578125 51.265625 45.40625 46.390625 
z
M 14.796875 27.296875 
Q 14.796875 17.390625 18.875 11.75 
Q 22.953125 6.109375 30.078125 6.109375 
Q 37.203125 6.109375 41.296875 11.75 
Q 45.40625 17.390625 45.40625 27.296875 
Q 45.40625 37.203125 41.296875 42.84375 
Q 37.203125 48.484375 30.078125 48.484375 
Q 22.953125 48.484375 18.875 42.84375 
Q 14.796875 37.203125 14.796875 27.296875 
z
" id="DejaVuSans-64"/>
     </defs>
     <g transform="translate(100 68.438438)scale(0.1 -0.1)">
      <use xlink:href="#DejaVuSans-6d"/>
      <use x="97.412109" xlink:href="#DejaVuSans-6f"/>
      <use x="158.59375" xlink:href="#DejaVuSans-64"/>
      <use x="222.070312" xlink:href="#DejaVuSans-65"/>
      <use x="283.59375" xlink:href="#DejaVuSans-6c"/>
     </g>
    </g>
   </g>
  </g>
 </g>
 <defs>
  <clipPath id="p6c782f771c">
   <rect height="332.64" width="390.6" x="63" y="51.84"/>
  </clipPath>
 </defs>
</svg>
