<?xml version="1.0" encoding="utf-8" standalone="no"?>
<!DOCTYPE svg PUBLIC "-//W3C//DTD SVG 1.1//EN"
  "http://www.w3.org/Graphics/SVG/1.1/DTD/svg11.dtd">
<!-- Created with matplotlib (http://matplotlib.org/) -->
<svg height="432pt" version="1.1" viewBox="0 0 504 432" width="504pt" xmlns="http://www.w3.org/2000/svg" xmlns:xlink="http://www.w3.org/1999/xlink">
 <defs>
  <style type="text/css">
*{stroke-linecap:butt;stroke-linejoin:round;}
  </style>
 </defs>
 <g id="figure_1">
  <g id="patch_1">
   <path d="M 0 432 
L 504 432 
L 504 0 
L 0 0 
z
" style="fill:#ffffff;"/>
  </g>
  <g id="axes_1">
   <g id="patch_2">
    <path d="M 63 384.48 
L 453.6 384.48 
L 453.6 51.84 
L 63 51.84 
z
" style="fill:#ffffff;"/>
   </g>
   <g id="matplotlib.axis_1">
    <g id="xtick_1">
     <g id="line2d_1">
      <defs>
       <path d="M 0 0 
L 0 3.5 
" id="m52452db799" style="stroke:#000000;stroke-width:0.8;"/>
      </defs>
      <g>
       <use style="stroke:#000000;stroke-width:0.8;" x="80.754545" xlink:href="#m52452db799" y="384.48"/>
      </g>
     </g>
     <g id="text_1">
      <!-- 0 -->
      <defs>
       <path d="M 31.78125 66.40625 
Q 24.171875 66.40625 20.328125 58.90625 
Q 16.5 51.421875 16.5 36.375 
Q 16.5 21.390625 20.328125 13.890625 
Q 24.171875 6.390625 31.78125 6.390625 
Q 39.453125 6.390625 43.28125 13.890625 
Q 47.125 21.390625 47.125 36.375 
Q 47.125 51.421875 43.28125 58.90625 
Q 39.453125 66.40625 31.78125 66.40625 
z
M 31.78125 74.21875 
Q 44.046875 74.21875 50.515625 64.515625 
Q 56.984375 54.828125 56.984375 36.375 
Q 56.984375 17.96875 50.515625 8.265625 
Q 44.046875 -1.421875 31.78125 -1.421875 
Q 19.53125 -1.421875 13.0625 8.265625 
Q 6.59375 17.96875 6.59375 36.375 
Q 6.59375 54.828125 13.0625 64.515625 
Q 19.53125 74.21875 31.78125 74.21875 
z
" id="DejaVuSans-30"/>
      </defs>
      <g transform="translate(77.573295 399.078438)scale(0.1 -0.1)">
       <use xlink:href="#DejaVuSans-30"/>
      </g>
     </g>
    </g>
    <g id="xtick_2">
     <g id="line2d_2">
      <g>
       <use style="stroke:#000000;stroke-width:0.8;" x="151.767796" xlink:href="#m52452db799" y="384.48"/>
      </g>
     </g>
     <g id="text_2">
      <!-- 720 -->
      <defs>
       <path d="M 8.203125 72.90625 
L 55.078125 72.90625 
L 55.078125 68.703125 
L 28.609375 0 
L 18.3125 0 
L 43.21875 64.59375 
L 8.203125 64.59375 
z
" id="DejaVuSans-37"/>
       <path d="M 19.1875 8.296875 
L 53.609375 8.296875 
L 53.609375 0 
L 7.328125 0 
L 7.328125 8.296875 
Q 12.9375 14.109375 22.625 23.890625 
Q 32.328125 33.6875 34.8125 36.53125 
Q 39.546875 41.84375 41.421875 45.53125 
Q 43.3125 49.21875 43.3125 52.78125 
Q 43.3125 58.59375 39.234375 62.25 
Q 35.15625 65.921875 28.609375 65.921875 
Q 23.96875 65.921875 18.8125 64.3125 
Q 13.671875 62.703125 7.8125 59.421875 
L 7.8125 69.390625 
Q 13.765625 71.78125 18.9375 73 
Q 24.125 74.21875 28.421875 74.21875 
Q 39.75 74.21875 46.484375 68.546875 
Q 53.21875 62.890625 53.21875 53.421875 
Q 53.21875 48.921875 51.53125 44.890625 
Q 49.859375 40.875 45.40625 35.40625 
Q 44.1875 33.984375 37.640625 27.21875 
Q 31.109375 20.453125 19.1875 8.296875 
z
" id="DejaVuSans-32"/>
      </defs>
      <g transform="translate(142.224046 399.078438)scale(0.1 -0.1)">
       <use xlink:href="#DejaVuSans-37"/>
       <use x="63.623047" xlink:href="#DejaVuSans-32"/>
       <use x="127.246094" xlink:href="#DejaVuSans-30"/>
      </g>
     </g>
    </g>
    <g id="xtick_3">
     <g id="line2d_3">
      <g>
       <use style="stroke:#000000;stroke-width:0.8;" x="222.781046" xlink:href="#m52452db799" y="384.48"/>
      </g>
     </g>
     <g id="text_3">
      <!-- 1440 -->
      <defs>
       <path d="M 12.40625 8.296875 
L 28.515625 8.296875 
L 28.515625 63.921875 
L 10.984375 60.40625 
L 10.984375 69.390625 
L 28.421875 72.90625 
L 38.28125 72.90625 
L 38.28125 8.296875 
L 54.390625 8.296875 
L 54.390625 0 
L 12.40625 0 
z
" id="DejaVuSans-31"/>
       <path d="M 37.796875 64.3125 
L 12.890625 25.390625 
L 37.796875 25.390625 
z
M 35.203125 72.90625 
L 47.609375 72.90625 
L 47.609375 25.390625 
L 58.015625 25.390625 
L 58.015625 17.1875 
L 47.609375 17.1875 
L 47.609375 0 
L 37.796875 0 
L 37.796875 17.1875 
L 4.890625 17.1875 
L 4.890625 26.703125 
z
" id="DejaVuSans-34"/>
      </defs>
      <g transform="translate(210.056046 399.078438)scale(0.1 -0.1)">
       <use xlink:href="#DejaVuSans-31"/>
       <use x="63.623047" xlink:href="#DejaVuSans-34"/>
       <use x="127.246094" xlink:href="#DejaVuSans-34"/>
       <use x="190.869141" xlink:href="#DejaVuSans-30"/>
      </g>
     </g>
    </g>
    <g id="xtick_4">
     <g id="line2d_4">
      <g>
       <use style="stroke:#000000;stroke-width:0.8;" x="293.794296" xlink:href="#m52452db799" y="384.48"/>
      </g>
     </g>
     <g id="text_4">
      <!-- 2160 -->
      <defs>
       <path d="M 33.015625 40.375 
Q 26.375 40.375 22.484375 35.828125 
Q 18.609375 31.296875 18.609375 23.390625 
Q 18.609375 15.53125 22.484375 10.953125 
Q 26.375 6.390625 33.015625 6.390625 
Q 39.65625 6.390625 43.53125 10.953125 
Q 47.40625 15.53125 47.40625 23.390625 
Q 47.40625 31.296875 43.53125 35.828125 
Q 39.65625 40.375 33.015625 40.375 
z
M 52.59375 71.296875 
L 52.59375 62.3125 
Q 48.875 64.0625 45.09375 64.984375 
Q 41.3125 65.921875 37.59375 65.921875 
Q 27.828125 65.921875 22.671875 59.328125 
Q 17.53125 52.734375 16.796875 39.40625 
Q 19.671875 43.65625 24.015625 45.921875 
Q 28.375 48.1875 33.59375 48.1875 
Q 44.578125 48.1875 50.953125 41.515625 
Q 57.328125 34.859375 57.328125 23.390625 
Q 57.328125 12.15625 50.6875 5.359375 
Q 44.046875 -1.421875 33.015625 -1.421875 
Q 20.359375 -1.421875 13.671875 8.265625 
Q 6.984375 17.96875 6.984375 36.375 
Q 6.984375 53.65625 15.1875 63.9375 
Q 23.390625 74.21875 37.203125 74.21875 
Q 40.921875 74.21875 44.703125 73.484375 
Q 48.484375 72.75 52.59375 71.296875 
z
" id="DejaVuSans-36"/>
      </defs>
      <g transform="translate(281.069296 399.078438)scale(0.1 -0.1)">
       <use xlink:href="#DejaVuSans-32"/>
       <use x="63.623047" xlink:href="#DejaVuSans-31"/>
       <use x="127.246094" xlink:href="#DejaVuSans-36"/>
       <use x="190.869141" xlink:href="#DejaVuSans-30"/>
      </g>
     </g>
    </g>
    <g id="xtick_5">
     <g id="line2d_5">
      <g>
       <use style="stroke:#000000;stroke-width:0.8;" x="364.807547" xlink:href="#m52452db799" y="384.48"/>
      </g>
     </g>
     <g id="text_5">
      <!-- 2880 -->
      <defs>
       <path d="M 31.78125 34.625 
Q 24.75 34.625 20.71875 30.859375 
Q 16.703125 27.09375 16.703125 20.515625 
Q 16.703125 13.921875 20.71875 10.15625 
Q 24.75 6.390625 31.78125 6.390625 
Q 38.8125 6.390625 42.859375 10.171875 
Q 46.921875 13.96875 46.921875 20.515625 
Q 46.921875 27.09375 42.890625 30.859375 
Q 38.875 34.625 31.78125 34.625 
z
M 21.921875 38.8125 
Q 15.578125 40.375 12.03125 44.71875 
Q 8.5 49.078125 8.5 55.328125 
Q 8.5 64.0625 14.71875 69.140625 
Q 20.953125 74.21875 31.78125 74.21875 
Q 42.671875 74.21875 48.875 69.140625 
Q 55.078125 64.0625 55.078125 55.328125 
Q 55.078125 49.078125 51.53125 44.71875 
Q 48 40.375 41.703125 38.8125 
Q 48.828125 37.15625 52.796875 32.3125 
Q 56.78125 27.484375 56.78125 20.515625 
Q 56.78125 9.90625 50.3125 4.234375 
Q 43.84375 -1.421875 31.78125 -1.421875 
Q 19.734375 -1.421875 13.25 4.234375 
Q 6.78125 9.90625 6.78125 20.515625 
Q 6.78125 27.484375 10.78125 32.3125 
Q 14.796875 37.15625 21.921875 38.8125 
z
M 18.3125 54.390625 
Q 18.3125 48.734375 21.84375 45.5625 
Q 25.390625 42.390625 31.78125 42.390625 
Q 38.140625 42.390625 41.71875 45.5625 
Q 45.3125 48.734375 45.3125 54.390625 
Q 45.3125 60.0625 41.71875 63.234375 
Q 38.140625 66.40625 31.78125 66.40625 
Q 25.390625 66.40625 21.84375 63.234375 
Q 18.3125 60.0625 18.3125 54.390625 
z
" id="DejaVuSans-38"/>
      </defs>
      <g transform="translate(352.082547 399.078438)scale(0.1 -0.1)">
       <use xlink:href="#DejaVuSans-32"/>
       <use x="63.623047" xlink:href="#DejaVuSans-38"/>
       <use x="127.246094" xlink:href="#DejaVuSans-38"/>
       <use x="190.869141" xlink:href="#DejaVuSans-30"/>
      </g>
     </g>
    </g>
    <g id="text_6">
     <!-- time [ms] -->
     <defs>
      <path d="M 18.3125 70.21875 
L 18.3125 54.6875 
L 36.8125 54.6875 
L 36.8125 47.703125 
L 18.3125 47.703125 
L 18.3125 18.015625 
Q 18.3125 11.328125 20.140625 9.421875 
Q 21.96875 7.515625 27.59375 7.515625 
L 36.8125 7.515625 
L 36.8125 0 
L 27.59375 0 
Q 17.1875 0 13.234375 3.875 
Q 9.28125 7.765625 9.28125 18.015625 
L 9.28125 47.703125 
L 2.6875 47.703125 
L 2.6875 54.6875 
L 9.28125 54.6875 
L 9.28125 70.21875 
z
" id="DejaVuSans-74"/>
      <path d="M 9.421875 54.6875 
L 18.40625 54.6875 
L 18.40625 0 
L 9.421875 0 
z
M 9.421875 75.984375 
L 18.40625 75.984375 
L 18.40625 64.59375 
L 9.421875 64.59375 
z
" id="DejaVuSans-69"/>
      <path d="M 52 44.1875 
Q 55.375 50.25 60.0625 53.125 
Q 64.75 56 71.09375 56 
Q 79.640625 56 84.28125 50.015625 
Q 88.921875 44.046875 88.921875 33.015625 
L 88.921875 0 
L 79.890625 0 
L 79.890625 32.71875 
Q 79.890625 40.578125 77.09375 44.375 
Q 74.3125 48.1875 68.609375 48.1875 
Q 61.625 48.1875 57.5625 43.546875 
Q 53.515625 38.921875 53.515625 30.90625 
L 53.515625 0 
L 44.484375 0 
L 44.484375 32.71875 
Q 44.484375 40.625 41.703125 44.40625 
Q 38.921875 48.1875 33.109375 48.1875 
Q 26.21875 48.1875 22.15625 43.53125 
Q 18.109375 38.875 18.109375 30.90625 
L 18.109375 0 
L 9.078125 0 
L 9.078125 54.6875 
L 18.109375 54.6875 
L 18.109375 46.1875 
Q 21.1875 51.21875 25.484375 53.609375 
Q 29.78125 56 35.6875 56 
Q 41.65625 56 45.828125 52.96875 
Q 50 49.953125 52 44.1875 
z
" id="DejaVuSans-6d"/>
      <path d="M 56.203125 29.59375 
L 56.203125 25.203125 
L 14.890625 25.203125 
Q 15.484375 15.921875 20.484375 11.0625 
Q 25.484375 6.203125 34.421875 6.203125 
Q 39.59375 6.203125 44.453125 7.46875 
Q 49.3125 8.734375 54.109375 11.28125 
L 54.109375 2.78125 
Q 49.265625 0.734375 44.1875 -0.34375 
Q 39.109375 -1.421875 33.890625 -1.421875 
Q 20.796875 -1.421875 13.15625 6.1875 
Q 5.515625 13.8125 5.515625 26.8125 
Q 5.515625 40.234375 12.765625 48.109375 
Q 20.015625 56 32.328125 56 
Q 43.359375 56 49.78125 48.890625 
Q 56.203125 41.796875 56.203125 29.59375 
z
M 47.21875 32.234375 
Q 47.125 39.59375 43.09375 43.984375 
Q 39.0625 48.390625 32.421875 48.390625 
Q 24.90625 48.390625 20.390625 44.140625 
Q 15.875 39.890625 15.1875 32.171875 
z
" id="DejaVuSans-65"/>
      <path id="DejaVuSans-20"/>
      <path d="M 8.59375 75.984375 
L 29.296875 75.984375 
L 29.296875 69 
L 17.578125 69 
L 17.578125 -6.203125 
L 29.296875 -6.203125 
L 29.296875 -13.1875 
L 8.59375 -13.1875 
z
" id="DejaVuSans-5b"/>
      <path d="M 44.28125 53.078125 
L 44.28125 44.578125 
Q 40.484375 46.53125 36.375 47.5 
Q 32.28125 48.484375 27.875 48.484375 
Q 21.1875 48.484375 17.84375 46.4375 
Q 14.5 44.390625 14.5 40.28125 
Q 14.5 37.15625 16.890625 35.375 
Q 19.28125 33.59375 26.515625 31.984375 
L 29.59375 31.296875 
Q 39.15625 29.25 43.1875 25.515625 
Q 47.21875 21.78125 47.21875 15.09375 
Q 47.21875 7.46875 41.1875 3.015625 
Q 35.15625 -1.421875 24.609375 -1.421875 
Q 20.21875 -1.421875 15.453125 -0.5625 
Q 10.6875 0.296875 5.421875 2 
L 5.421875 11.28125 
Q 10.40625 8.6875 15.234375 7.390625 
Q 20.0625 6.109375 24.8125 6.109375 
Q 31.15625 6.109375 34.5625 8.28125 
Q 37.984375 10.453125 37.984375 14.40625 
Q 37.984375 18.0625 35.515625 20.015625 
Q 33.0625 21.96875 24.703125 23.78125 
L 21.578125 24.515625 
Q 13.234375 26.265625 9.515625 29.90625 
Q 5.8125 33.546875 5.8125 39.890625 
Q 5.8125 47.609375 11.28125 51.796875 
Q 16.75 56 26.8125 56 
Q 31.78125 56 36.171875 55.265625 
Q 40.578125 54.546875 44.28125 53.078125 
z
" id="DejaVuSans-73"/>
      <path d="M 30.421875 75.984375 
L 30.421875 -13.1875 
L 9.71875 -13.1875 
L 9.71875 -6.203125 
L 21.390625 -6.203125 
L 21.390625 69 
L 9.71875 69 
L 9.71875 75.984375 
z
" id="DejaVuSans-5d"/>
     </defs>
     <g transform="translate(234.038281 412.756563)scale(0.1 -0.1)">
      <use xlink:href="#DejaVuSans-74"/>
      <use x="39.208984" xlink:href="#DejaVuSans-69"/>
      <use x="66.992188" xlink:href="#DejaVuSans-6d"/>
      <use x="164.404297" xlink:href="#DejaVuSans-65"/>
      <use x="225.927734" xlink:href="#DejaVuSans-20"/>
      <use x="257.714844" xlink:href="#DejaVuSans-5b"/>
      <use x="296.728516" xlink:href="#DejaVuSans-6d"/>
      <use x="394.140625" xlink:href="#DejaVuSans-73"/>
      <use x="446.240234" xlink:href="#DejaVuSans-5d"/>
     </g>
    </g>
   </g>
   <g id="matplotlib.axis_2">
    <g id="ytick_1">
     <g id="line2d_6">
      <defs>
       <path d="M 0 0 
L -3.5 0 
" id="mdf2fa68fb8" style="stroke:#000000;stroke-width:0.8;"/>
      </defs>
      <g>
       <use style="stroke:#000000;stroke-width:0.8;" x="63" xlink:href="#mdf2fa68fb8" y="366.167186"/>
      </g>
     </g>
     <g id="text_7">
      <!-- −80 -->
      <defs>
       <path d="M 10.59375 35.5 
L 73.1875 35.5 
L 73.1875 27.203125 
L 10.59375 27.203125 
z
" id="DejaVuSans-2212"/>
      </defs>
      <g transform="translate(34.895313 369.966405)scale(0.1 -0.1)">
       <use xlink:href="#DejaVuSans-2212"/>
       <use x="83.789062" xlink:href="#DejaVuSans-38"/>
       <use x="147.412109" xlink:href="#DejaVuSans-30"/>
      </g>
     </g>
    </g>
    <g id="ytick_2">
     <g id="line2d_7">
      <g>
       <use style="stroke:#000000;stroke-width:0.8;" x="63" xlink:href="#mdf2fa68fb8" y="311.336637"/>
      </g>
     </g>
     <g id="text_8">
      <!-- −60 -->
      <g transform="translate(34.895313 315.135856)scale(0.1 -0.1)">
       <use xlink:href="#DejaVuSans-2212"/>
       <use x="83.789062" xlink:href="#DejaVuSans-36"/>
       <use x="147.412109" xlink:href="#DejaVuSans-30"/>
      </g>
     </g>
    </g>
    <g id="ytick_3">
     <g id="line2d_8">
      <g>
       <use style="stroke:#000000;stroke-width:0.8;" x="63" xlink:href="#mdf2fa68fb8" y="256.506088"/>
      </g>
     </g>
     <g id="text_9">
      <!-- −40 -->
      <g transform="translate(34.895313 260.305307)scale(0.1 -0.1)">
       <use xlink:href="#DejaVuSans-2212"/>
       <use x="83.789062" xlink:href="#DejaVuSans-34"/>
       <use x="147.412109" xlink:href="#DejaVuSans-30"/>
      </g>
     </g>
    </g>
    <g id="ytick_4">
     <g id="line2d_9">
      <g>
       <use style="stroke:#000000;stroke-width:0.8;" x="63" xlink:href="#mdf2fa68fb8" y="201.675539"/>
      </g>
     </g>
     <g id="text_10">
      <!-- −20 -->
      <g transform="translate(34.895313 205.474758)scale(0.1 -0.1)">
       <use xlink:href="#DejaVuSans-2212"/>
       <use x="83.789062" xlink:href="#DejaVuSans-32"/>
       <use x="147.412109" xlink:href="#DejaVuSans-30"/>
      </g>
     </g>
    </g>
    <g id="ytick_5">
     <g id="line2d_10">
      <g>
       <use style="stroke:#000000;stroke-width:0.8;" x="63" xlink:href="#mdf2fa68fb8" y="146.84499"/>
      </g>
     </g>
     <g id="text_11">
      <!-- 0 -->
      <g transform="translate(49.6375 150.644209)scale(0.1 -0.1)">
       <use xlink:href="#DejaVuSans-30"/>
      </g>
     </g>
    </g>
    <g id="ytick_6">
     <g id="line2d_11">
      <g>
       <use style="stroke:#000000;stroke-width:0.8;" x="63" xlink:href="#mdf2fa68fb8" y="92.014441"/>
      </g>
     </g>
     <g id="text_12">
      <!-- 20 -->
      <g transform="translate(43.275 95.81366)scale(0.1 -0.1)">
       <use xlink:href="#DejaVuSans-32"/>
       <use x="63.623047" xlink:href="#DejaVuSans-30"/>
      </g>
     </g>
    </g>
    <g id="text_13">
     <!-- Voltage [mV] -->
     <defs>
      <path d="M 28.609375 0 
L 0.78125 72.90625 
L 11.078125 72.90625 
L 34.1875 11.53125 
L 57.328125 72.90625 
L 67.578125 72.90625 
L 39.796875 0 
z
" id="DejaVuSans-56"/>
      <path d="M 30.609375 48.390625 
Q 23.390625 48.390625 19.1875 42.75 
Q 14.984375 37.109375 14.984375 27.296875 
Q 14.984375 17.484375 19.15625 11.84375 
Q 23.34375 6.203125 30.609375 6.203125 
Q 37.796875 6.203125 41.984375 11.859375 
Q 46.1875 17.53125 46.1875 27.296875 
Q 46.1875 37.015625 41.984375 42.703125 
Q 37.796875 48.390625 30.609375 48.390625 
z
M 30.609375 56 
Q 42.328125 56 49.015625 48.375 
Q 55.71875 40.765625 55.71875 27.296875 
Q 55.71875 13.875 49.015625 6.21875 
Q 42.328125 -1.421875 30.609375 -1.421875 
Q 18.84375 -1.421875 12.171875 6.21875 
Q 5.515625 13.875 5.515625 27.296875 
Q 5.515625 40.765625 12.171875 48.375 
Q 18.84375 56 30.609375 56 
z
" id="DejaVuSans-6f"/>
      <path d="M 9.421875 75.984375 
L 18.40625 75.984375 
L 18.40625 0 
L 9.421875 0 
z
" id="DejaVuSans-6c"/>
      <path d="M 34.28125 27.484375 
Q 23.390625 27.484375 19.1875 25 
Q 14.984375 22.515625 14.984375 16.5 
Q 14.984375 11.71875 18.140625 8.90625 
Q 21.296875 6.109375 26.703125 6.109375 
Q 34.1875 6.109375 38.703125 11.40625 
Q 43.21875 16.703125 43.21875 25.484375 
L 43.21875 27.484375 
z
M 52.203125 31.203125 
L 52.203125 0 
L 43.21875 0 
L 43.21875 8.296875 
Q 40.140625 3.328125 35.546875 0.953125 
Q 30.953125 -1.421875 24.3125 -1.421875 
Q 15.921875 -1.421875 10.953125 3.296875 
Q 6 8.015625 6 15.921875 
Q 6 25.140625 12.171875 29.828125 
Q 18.359375 34.515625 30.609375 34.515625 
L 43.21875 34.515625 
L 43.21875 35.40625 
Q 43.21875 41.609375 39.140625 45 
Q 35.0625 48.390625 27.6875 48.390625 
Q 23 48.390625 18.546875 47.265625 
Q 14.109375 46.140625 10.015625 43.890625 
L 10.015625 52.203125 
Q 14.9375 54.109375 19.578125 55.046875 
Q 24.21875 56 28.609375 56 
Q 40.484375 56 46.34375 49.84375 
Q 52.203125 43.703125 52.203125 31.203125 
z
" id="DejaVuSans-61"/>
      <path d="M 45.40625 27.984375 
Q 45.40625 37.75 41.375 43.109375 
Q 37.359375 48.484375 30.078125 48.484375 
Q 22.859375 48.484375 18.828125 43.109375 
Q 14.796875 37.75 14.796875 27.984375 
Q 14.796875 18.265625 18.828125 12.890625 
Q 22.859375 7.515625 30.078125 7.515625 
Q 37.359375 7.515625 41.375 12.890625 
Q 45.40625 18.265625 45.40625 27.984375 
z
M 54.390625 6.78125 
Q 54.390625 -7.171875 48.1875 -13.984375 
Q 42 -20.796875 29.203125 -20.796875 
Q 24.46875 -20.796875 20.265625 -20.09375 
Q 16.0625 -19.390625 12.109375 -17.921875 
L 12.109375 -9.1875 
Q 16.0625 -11.328125 19.921875 -12.34375 
Q 23.78125 -13.375 27.78125 -13.375 
Q 36.625 -13.375 41.015625 -8.765625 
Q 45.40625 -4.15625 45.40625 5.171875 
L 45.40625 9.625 
Q 42.625 4.78125 38.28125 2.390625 
Q 33.9375 0 27.875 0 
Q 17.828125 0 11.671875 7.65625 
Q 5.515625 15.328125 5.515625 27.984375 
Q 5.515625 40.671875 11.671875 48.328125 
Q 17.828125 56 27.875 56 
Q 33.9375 56 38.28125 53.609375 
Q 42.625 51.21875 45.40625 46.390625 
L 45.40625 54.6875 
L 54.390625 54.6875 
z
" id="DejaVuSans-67"/>
     </defs>
     <g transform="translate(28.815625 251.079531)rotate(-90)scale(0.1 -0.1)">
      <use xlink:href="#DejaVuSans-56"/>
      <use x="68.298828" xlink:href="#DejaVuSans-6f"/>
      <use x="129.480469" xlink:href="#DejaVuSans-6c"/>
      <use x="157.263672" xlink:href="#DejaVuSans-74"/>
      <use x="196.472656" xlink:href="#DejaVuSans-61"/>
      <use x="257.751953" xlink:href="#DejaVuSans-67"/>
      <use x="321.228516" xlink:href="#DejaVuSans-65"/>
      <use x="382.751953" xlink:href="#DejaVuSans-20"/>
      <use x="414.539062" xlink:href="#DejaVuSans-5b"/>
      <use x="453.552734" xlink:href="#DejaVuSans-6d"/>
      <use x="550.964844" xlink:href="#DejaVuSans-56"/>
      <use x="619.373047" xlink:href="#DejaVuSans-5d"/>
     </g>
    </g>
   </g>
   <g id="line2d_12">
    <path clip-path="url(#pcaebdfcdcf)" d="M 80.754545 325.044275 
L 81.178652 326.39618 
L 81.666868 327.369396 
L 82.179742 327.918581 
L 82.781382 328.235465 
L 83.614801 328.405232 
L 85.173148 328.45467 
L 100.480448 328.361788 
L 100.633324 344.207279 
L 100.958801 355.028428 
L 101.392771 362.713332 
L 101.82181 366.789654 
L 102.206465 368.609508 
L 102.531942 369.25103 
L 102.79331 369.357707 
L 103.05961 369.208944 
L 103.45906 368.681576 
L 104.455218 366.854793 
L 105.406993 365.365247 
L 106.215755 364.501181 
L 107.049174 363.933196 
L 108.00588 363.556091 
L 109.253544 363.317504 
L 111.235997 363.191972 
L 116.561991 363.15658 
L 130.069303 363.154038 
L 130.222178 347.442811 
L 130.542724 337.196756 
L 130.952037 330.553897 
L 131.361349 327.136371 
L 131.760799 325.471182 
L 132.140522 324.735661 
L 132.505452 324.467461 
L 132.904901 324.449801 
L 133.472021 324.673243 
L 134.823245 325.52699 
L 136.499947 326.465831 
L 138.087882 327.093605 
L 139.912528 327.569564 
L 139.932254 327.573602 
L 139.937186 325.044275 
L 140.045678 325.414775 
L 140.607866 326.959677 
L 141.101014 327.682953 
L 141.648408 328.100179 
L 142.338814 328.336549 
L 143.418807 328.445076 
L 146.274132 328.429804 
L 158.361179 328.363062 
L 159.663088 328.361788 
L 159.815964 325.194257 
L 160.13651 323.08526 
L 160.565548 321.617371 
L 161.029107 320.768209 
L 161.537049 320.283096 
L 162.158415 320.0036 
L 163.070738 319.860477 
L 164.969356 319.838391 
L 181.307335 319.956243 
L 189.251943 319.961189 
L 189.404818 323.129355 
L 189.725364 325.233009 
L 190.154403 326.700594 
L 190.622893 327.566095 
L 191.130835 328.059335 
L 191.747269 328.34318 
L 192.634935 328.48485 
L 194.439855 328.498141 
L 199.114894 328.413167 
L 199.119826 325.044275 
L 199.228318 325.414775 
L 199.790506 326.959677 
L 200.283654 327.682953 
L 200.831048 328.100179 
L 201.521454 328.336549 
L 202.601448 328.445076 
L 205.456772 328.429804 
L 217.543819 328.363062 
L 218.845729 328.361788 
L 218.998604 322.026993 
L 219.31915 317.818973 
L 219.743257 314.936708 
L 220.192021 313.287207 
L 220.665443 312.332529 
L 221.188179 311.758055 
L 221.819408 311.397522 
L 222.687348 311.173224 
L 224.082956 311.067029 
L 226.913623 311.117255 
L 235.805074 311.322394 
L 248.434583 311.369902 
L 248.587459 317.731848 
L 248.908004 321.971444 
L 249.337043 324.936044 
L 249.790739 326.652696 
L 250.259229 327.620262 
L 250.757308 328.163523 
L 251.334291 328.465321 
L 252.128258 328.61347 
L 253.602769 328.621912 
L 258.297534 328.467404 
L 258.302466 325.044275 
L 258.410958 325.414775 
L 258.973146 326.959677 
L 259.466294 327.682953 
L 260.013688 328.100179 
L 260.704094 328.336549 
L 261.784088 328.445076 
L 264.639412 328.429804 
L 276.726459 328.363062 
L 278.028369 328.361788 
L 278.181244 318.859417 
L 278.50179 312.553449 
L 278.925897 308.229078 
L 279.399319 305.542171 
L 279.996027 302.440013 
L 280.015753 283.496164 
L 280.074931 69.333075 
L 280.148903 178.983307 
L 280.341231 303.55639 
L 280.518764 309.511135 
L 280.686434 310.119319 
L 280.696297 310.117426 
L 280.804789 309.957245 
L 281.061226 309.044796 
L 282.082042 305.177414 
L 282.693545 303.864635 
L 283.324774 302.522205 
L 283.393814 301.689724 
L 283.41354 283.07052 
L 283.477649 76.286795 
L 283.54669 175.651805 
L 283.739017 302.78385 
L 283.921482 309.107649 
L 284.108878 309.869702 
L 284.212439 309.776418 
L 284.429424 309.140658 
L 285.667224 304.992865 
L 286.268865 303.977764 
L 287.12201 302.625338 
L 287.195982 301.940325 
L 287.215708 288.017101 
L 287.284749 82.311135 
L 287.353789 177.90929 
L 287.551048 301.662136 
L 287.733513 308.03014 
L 287.930772 309.040382 
L 288.034333 309.045466 
L 288.05899 309.019393 
L 288.251318 308.598898 
L 289.760349 304.56836 
L 290.460619 303.713389 
L 291.086916 302.895079 
L 291.220066 302.34615 
L 291.234861 301.626062 
L 291.254586 273.42638 
L 291.318696 86.478714 
L 291.387736 174.112268 
L 291.584995 299.717603 
L 291.772391 306.880637 
L 291.984445 308.246051 
L 292.122526 308.343248 
L 292.142252 308.331603 
L 292.309922 308.07361 
L 292.758687 306.82677 
L 293.444162 305.173889 
L 294.055665 304.275585 
L 295.34278 302.609721 
L 295.387163 301.83065 
L 295.406889 280.030979 
L 295.47593 89.494676 
L 295.540039 170.479116 
L 295.742229 298.750888 
L 295.929625 306.260671 
L 296.151542 307.857271 
L 296.319212 308.012979 
L 296.329075 308.008337 
L 296.491814 307.796483 
L 296.896195 306.782144 
L 297.626053 305.125992 
L 298.247419 304.269687 
L 299.544397 302.697226 
L 299.598643 302.141729 
L 299.618369 289.289344 
L 299.68741 91.656429 
L 299.756451 172.831584 
L 299.958641 297.808857 
L 300.1559 305.808011 
L 300.382748 307.517286 
L 300.570144 307.721574 
L 300.732883 307.543531 
L 301.112606 306.677062 
L 301.881917 305.041583 
L 302.523009 304.216743 
L 303.76574 302.782321 
L 303.834781 302.315655 
L 303.849575 299.342093 
L 303.893959 175.931279 
L 303.928479 92.922652 
L 304.002451 180.275943 
L 304.19971 297.485692 
L 304.396969 305.343201 
L 304.628749 307.200629 
L 304.826008 307.47333 
L 304.983815 307.338873 
L 305.319155 306.655225 
L 306.172301 304.940695 
L 306.833118 304.146704 
L 307.617223 303.435015 
L 307.770099 312.88668 
L 308.085713 318.983835 
L 308.524614 323.459979 
L 308.97831 326.007767 
L 309.432006 327.401217 
L 309.900496 328.1741 
L 310.408438 328.597732 
L 311.024873 328.816287 
L 311.947059 328.884468 
L 314.230332 328.756242 
L 317.480174 328.58665 
L 317.485106 325.044275 
L 317.593598 325.414775 
L 318.155787 326.959677 
L 318.648934 327.682953 
L 319.196328 328.100179 
L 319.886735 328.336549 
L 320.966728 328.445076 
L 323.822052 328.429804 
L 335.909099 328.363062 
L 337.211009 328.361788 
L 337.363884 315.690826 
L 337.68443 307.267145 
L 338.128263 301.109669 
L 338.498124 296.336298 
L 338.512918 287.4709 
L 338.577027 68.208096 
L 338.651 183.555382 
L 338.838396 300.448885 
L 339.010997 305.576015 
L 339.080038 305.736299 
L 339.134284 305.657681 
L 339.297023 304.91455 
L 340.850438 295.008938 
L 340.904684 293.400377 
L 340.92441 257.572313 
L 340.978656 74.169701 
L 341.05756 183.950095 
L 341.244956 301.807889 
L 341.417557 306.742256 
L 341.481667 306.881819 
L 341.535913 306.796709 
L 341.698652 305.996646 
L 343.459188 294.244414 
L 343.473983 289.490951 
L 343.543024 79.904178 
L 343.636722 206.097482 
L 343.819186 301.092765 
L 343.991788 305.623416 
L 344.075623 305.821997 
L 344.124938 305.761218 
L 344.277813 305.150446 
L 344.815344 301.667334 
L 345.505751 297.957334 
L 346.023556 295.158991 
L 346.067939 293.536992 
L 346.092596 240.790665 
L 346.146843 84.165884 
L 346.220815 179.417757 
L 346.418074 299.110661 
L 346.595607 304.530392 
L 346.718894 304.918249 
L 346.753414 304.890255 
L 346.881633 304.514353 
L 347.236699 302.559125 
L 348.07505 298.143527 
L 348.652032 295.190451 
L 348.691484 293.820008 
L 348.71121 258.015305 
L 348.770388 87.523228 
L 348.84436 176.764537 
L 349.041619 297.862962 
L 349.219152 303.806324 
L 349.372028 304.370957 
L 349.386822 304.365299 
L 349.490383 304.163528 
L 349.741889 303.036301 
L 350.930374 297.249188 
L 351.280509 295.37968 
L 351.329824 294.03507 
L 351.34955 260.404597 
L 351.413659 89.667952 
L 351.482699 174.877394 
L 351.68489 297.120136 
L 351.867355 303.29745 
L 352.039956 303.958458 
L 352.044888 303.957219 
L 352.143517 303.802968 
L 352.370365 302.899758 
L 353.973095 294.537012 
L 353.987889 288.474497 
L 354.061861 91.157814 
L 354.145696 193.67258 
L 354.338024 296.45634 
L 354.530351 302.809737 
L 354.712816 303.534417 
L 354.806514 303.423778 
L 355.013636 302.700599 
L 356.601571 295.176787 
L 356.63116 293.816397 
L 356.655817 241.572414 
L 356.714995 92.246535 
L 356.788967 181.796439 
L 356.986226 295.810353 
L 357.173622 302.357913 
L 357.36595 303.251955 
L 357.464579 303.170258 
L 357.656907 302.569007 
L 359.175802 295.938321 
L 359.279363 294.587345 
L 359.294157 288.545929 
L 359.368129 92.827331 
L 359.451964 192.737556 
L 359.644292 295.758101 
L 359.831688 302.14997 
L 360.024015 303.085025 
L 360.127576 303.017001 
L 360.314972 302.460597 
L 361.044831 299.17093 
L 361.917702 295.117778 
L 361.942359 293.701779 
L 361.967017 240.129471 
L 362.021263 93.441977 
L 362.100167 182.074466 
L 362.297426 295.044647 
L 362.484822 301.877671 
L 362.682081 302.930345 
L 362.770847 302.907475 
L 362.790573 302.879371 
L 362.973038 302.365783 
L 363.574678 299.690968 
L 364.58563 294.891722 
L 364.605356 290.628111 
L 364.679328 93.65572 
L 364.782889 212.533294 
L 364.970286 296.021709 
L 365.162613 301.925915 
L 365.359872 302.818904 
L 365.463433 302.750297 
L 365.650829 302.215432 
L 366.351099 299.167101 
L 366.799863 297.46064 
L 366.952739 309.920373 
L 367.25849 317.492979 
L 367.672734 322.662808 
L 368.116567 325.661372 
L 368.565331 327.311722 
L 369.023959 328.218942 
L 369.507243 328.709731 
L 370.069431 328.964789 
L 370.853536 329.058019 
L 372.397088 328.969912 
L 376.662814 328.658949 
L 376.667746 325.044275 
L 376.776238 325.414775 
L 377.338427 326.959677 
L 377.831574 327.682953 
L 378.378968 328.100179 
L 379.069375 328.336549 
L 380.149368 328.445076 
L 383.004692 328.429804 
L 395.091739 328.363062 
L 396.393649 328.361788 
L 396.546525 312.520158 
L 396.872002 301.793331 
L 397.345424 288.566881 
L 397.384875 137.825558 
L 397.409533 66.96 
L 397.483505 177.907416 
L 397.670901 297.043022 
L 397.83364 301.62861 
L 397.858297 301.654824 
L 397.907612 301.543868 
L 398.070351 300.417082 
L 398.874181 292.318858 
L 399.165138 288.099567 
L 399.214453 284.736356 
L 399.244042 208.426194 
L 399.283494 71.728884 
L 399.357466 176.879597 
L 399.549793 300.781858 
L 399.712532 304.608316 
L 399.761847 304.504415 
L 399.909791 303.369344 
L 401.039099 290.959317 
L 401.231426 287.414487 
L 401.261015 280.914761 
L 401.325125 77.740303 
L 401.40896 189.893401 
L 401.596356 299.536143 
L 401.759094 303.395694 
L 401.783752 303.403266 
L 401.823204 303.307434 
L 401.971148 302.295712 
L 402.686212 294.897794 
L 403.268126 288.179834 
L 403.312509 285.106641 
L 403.342098 210.118198 
L 403.386481 81.956153 
L 403.460454 178.906524 
L 403.657713 298.183456 
L 403.825383 302.388523 
L 403.859903 302.427315 
L 403.909218 302.323153 
L 404.067025 301.318861 
L 404.772226 294.531621 
L 405.329483 288.426789 
L 405.383729 284.385965 
L 405.423181 158.89666 
L 405.457701 85.166448 
L 405.526742 172.789773 
L 405.724001 296.59593 
L 405.896603 301.488612 
L 405.945917 301.585263 
L 406.005095 301.474373 
L 406.167834 300.513932 
L 406.803994 294.766726 
L 407.405634 288.426363 
L 407.454949 285.763425 
L 407.474675 244.774591 
L 407.533852 87.46412 
L 407.607825 179.71279 
L 407.805084 295.981589 
L 407.977685 300.907224 
L 408.041794 301.051144 
L 408.096041 300.958676 
L 408.253848 300.110206 
L 408.786447 295.529942 
L 409.486717 288.45506 
L 409.536032 285.775958 
L 409.560689 230.5903 
L 409.614935 88.968807 
L 409.688907 179.134075 
L 409.886166 295.095581 
L 410.063699 300.455015 
L 410.137672 300.647809 
L 410.191918 300.564853 
L 410.344794 299.798634 
L 410.828078 295.815022 
L 411.572731 288.45618 
L 411.622046 285.541108 
L 411.651635 213.770601 
L 411.696018 90.130179 
L 411.76999 173.618828 
L 411.972181 294.383373 
L 412.154645 300.044954 
L 412.23848 300.285987 
L 412.287795 300.220798 
L 412.430808 299.570668 
L 412.849983 296.285092 
L 413.653814 288.621354 
L 413.70806 285.900062 
L 413.727786 245.150754 
L 413.786964 90.6421 
L 413.860936 177.940556 
L 414.058195 293.716396 
L 414.240659 299.516113 
L 414.34422 299.852742 
L 414.388604 299.796544 
L 414.526685 299.217745 
L 414.91134 296.361839 
L 415.729965 288.83252 
L 415.794074 286.006476 
L 415.8138 246.784914 
L 415.872978 91.044505 
L 415.94695 176.984365 
L 416.149141 293.699951 
L 416.331605 299.293182 
L 416.435166 299.648199 
L 416.479549 299.602648 
L 416.612699 299.083739 
L 416.972697 296.509032 
L 417.811048 288.969278 
L 417.880089 286.321028 
L 417.894883 271.970977 
L 417.958992 91.400697 
L 418.028033 167.963122 
L 418.230223 292.869686 
L 418.412688 299.116128 
L 418.531043 299.570993 
L 418.570495 299.531483 
L 418.698713 299.054532 
L 419.038985 296.677793 
L 419.897062 289.061132 
L 419.971034 286.231967 
L 419.985829 269.003483 
L 420.049938 91.545782 
L 420.118978 168.905149 
L 420.321169 292.6277 
L 420.508565 299.015057 
L 420.62692 299.456517 
L 420.666372 299.417439 
L 420.794591 298.947363 
L 421.134862 296.597877 
L 421.983076 289.145425 
L 422.06198 286.183834 
L 422.081706 249.041967 
L 422.140884 91.677765 
L 422.214856 175.769826 
L 422.417046 292.827438 
L 422.604442 298.967486 
L 422.722798 299.38642 
L 422.757318 299.35372 
L 422.880605 298.924238 
L 423.201151 296.766937 
L 424.069091 289.238959 
L 424.152926 286.257244 
L 424.16772 269.194503 
L 424.231829 91.780219 
L 424.30087 168.794854 
L 424.50306 292.228121 
L 424.690456 298.858932 
L 424.813743 299.344404 
L 424.848264 299.316353 
L 424.966619 298.923609 
L 425.272371 296.911869 
L 425.982503 291.265449 
L 426.135379 306.809188 
L 426.431267 315.814926 
L 426.835648 321.801962 
L 427.27455 325.267282 
L 427.723314 327.183104 
L 428.17701 328.22258 
L 428.650431 328.783022 
L 429.183031 329.072438 
L 429.888232 329.187313 
L 431.130964 329.127176 
L 435.845455 328.714744 
L 435.845455 328.714744 
" style="fill:none;stroke:#ff0000;stroke-linecap:square;stroke-width:1.5;"/>
   </g>
   <g id="patch_3">
    <path d="M 63 384.48 
L 63 51.84 
" style="fill:none;stroke:#000000;stroke-linecap:square;stroke-linejoin:miter;stroke-width:0.8;"/>
   </g>
   <g id="patch_4">
    <path d="M 453.6 384.48 
L 453.6 51.84 
" style="fill:none;stroke:#000000;stroke-linecap:square;stroke-linejoin:miter;stroke-width:0.8;"/>
   </g>
   <g id="patch_5">
    <path d="M 63 384.48 
L 453.6 384.48 
" style="fill:none;stroke:#000000;stroke-linecap:square;stroke-linejoin:miter;stroke-width:0.8;"/>
   </g>
   <g id="patch_6">
    <path d="M 63 51.84 
L 453.6 51.84 
" style="fill:none;stroke:#000000;stroke-linecap:square;stroke-linejoin:miter;stroke-width:0.8;"/>
   </g>
   <g id="legend_1">
    <g id="patch_7">
     <path d="M 70 74.518125 
L 133.139062 74.518125 
Q 135.139062 74.518125 135.139062 72.518125 
L 135.139062 58.84 
Q 135.139062 56.84 133.139062 56.84 
L 70 56.84 
Q 68 56.84 68 58.84 
L 68 72.518125 
Q 68 74.518125 70 74.518125 
z
" style="fill:#ffffff;opacity:0.8;stroke:#cccccc;stroke-linejoin:miter;"/>
    </g>
    <g id="line2d_13">
     <path d="M 72 64.938438 
L 92 64.938438 
" style="fill:none;stroke:#ff0000;stroke-linecap:square;stroke-width:1.5;"/>
    </g>
    <g id="line2d_14"/>
    <g id="text_14">
     <!-- model -->
     <defs>
      <path d="M 45.40625 46.390625 
L 45.40625 75.984375 
L 54.390625 75.984375 
L 54.390625 0 
L 45.40625 0 
L 45.40625 8.203125 
Q 42.578125 3.328125 38.25 0.953125 
Q 33.9375 -1.421875 27.875 -1.421875 
Q 17.96875 -1.421875 11.734375 6.484375 
Q 5.515625 14.40625 5.515625 27.296875 
Q 5.515625 40.1875 11.734375 48.09375 
Q 17.96875 56 27.875 56 
Q 33.9375 56 38.25 53.625 
Q 42.578125 51.265625 45.40625 46.390625 
z
M 14.796875 27.296875 
Q 14.796875 17.390625 18.875 11.75 
Q 22.953125 6.109375 30.078125 6.109375 
Q 37.203125 6.109375 41.296875 11.75 
Q 45.40625 17.390625 45.40625 27.296875 
Q 45.40625 37.203125 41.296875 42.84375 
Q 37.203125 48.484375 30.078125 48.484375 
Q 22.953125 48.484375 18.875 42.84375 
Q 14.796875 37.203125 14.796875 27.296875 
z
" id="DejaVuSans-64"/>
     </defs>
     <g transform="translate(100 68.438438)scale(0.1 -0.1)">
      <use xlink:href="#DejaVuSans-6d"/>
      <use x="97.412109" xlink:href="#DejaVuSans-6f"/>
      <use x="158.59375" xlink:href="#DejaVuSans-64"/>
      <use x="222.070312" xlink:href="#DejaVuSans-65"/>
      <use x="283.59375" xlink:href="#DejaVuSans-6c"/>
     </g>
    </g>
   </g>
  </g>
 </g>
 <defs>
  <clipPath id="pcaebdfcdcf">
   <rect height="332.64" width="390.6" x="63" y="51.84"/>
  </clipPath>
 </defs>
</svg>
