<?xml version="1.0" encoding="utf-8" standalone="no"?>
<!DOCTYPE svg PUBLIC "-//W3C//DTD SVG 1.1//EN"
  "http://www.w3.org/Graphics/SVG/1.1/DTD/svg11.dtd">
<!-- Created with matplotlib (https://matplotlib.org/) -->
<svg height="432pt" version="1.1" viewBox="0 0 504 432" width="504pt" xmlns="http://www.w3.org/2000/svg" xmlns:xlink="http://www.w3.org/1999/xlink">
 <defs>
  <style type="text/css">
*{stroke-linecap:butt;stroke-linejoin:round;}
  </style>
 </defs>
 <g id="figure_1">
  <g id="patch_1">
   <path d="M 0 432 
L 504 432 
L 504 0 
L 0 0 
z
" style="fill:#ffffff;"/>
  </g>
  <g id="axes_1">
   <g id="patch_2">
    <path d="M 63 384.48 
L 453.6 384.48 
L 453.6 51.84 
L 63 51.84 
z
" style="fill:#ffffff;"/>
   </g>
   <g id="matplotlib.axis_1">
    <g id="xtick_1">
     <g id="line2d_1">
      <defs>
       <path d="M 0 0 
L 0 3.5 
" id="m38f8eded67" style="stroke:#000000;stroke-width:0.8;"/>
      </defs>
      <g>
       <use style="stroke:#000000;stroke-width:0.8;" x="80.754545" xlink:href="#m38f8eded67" y="384.48"/>
      </g>
     </g>
     <g id="text_1">
      <!-- 0 -->
      <defs>
       <path d="M 31.78125 66.40625 
Q 24.171875 66.40625 20.328125 58.90625 
Q 16.5 51.421875 16.5 36.375 
Q 16.5 21.390625 20.328125 13.890625 
Q 24.171875 6.390625 31.78125 6.390625 
Q 39.453125 6.390625 43.28125 13.890625 
Q 47.125 21.390625 47.125 36.375 
Q 47.125 51.421875 43.28125 58.90625 
Q 39.453125 66.40625 31.78125 66.40625 
z
M 31.78125 74.21875 
Q 44.046875 74.21875 50.515625 64.515625 
Q 56.984375 54.828125 56.984375 36.375 
Q 56.984375 17.96875 50.515625 8.265625 
Q 44.046875 -1.421875 31.78125 -1.421875 
Q 19.53125 -1.421875 13.0625 8.265625 
Q 6.59375 17.96875 6.59375 36.375 
Q 6.59375 54.828125 13.0625 64.515625 
Q 19.53125 74.21875 31.78125 74.21875 
z
" id="DejaVuSans-48"/>
      </defs>
      <g transform="translate(77.573295 399.078438)scale(0.1 -0.1)">
       <use xlink:href="#DejaVuSans-48"/>
      </g>
     </g>
    </g>
    <g id="xtick_2">
     <g id="line2d_2">
      <g>
       <use style="stroke:#000000;stroke-width:0.8;" x="151.767796" xlink:href="#m38f8eded67" y="384.48"/>
      </g>
     </g>
     <g id="text_2">
      <!-- 720 -->
      <defs>
       <path d="M 8.203125 72.90625 
L 55.078125 72.90625 
L 55.078125 68.703125 
L 28.609375 0 
L 18.3125 0 
L 43.21875 64.59375 
L 8.203125 64.59375 
z
" id="DejaVuSans-55"/>
       <path d="M 19.1875 8.296875 
L 53.609375 8.296875 
L 53.609375 0 
L 7.328125 0 
L 7.328125 8.296875 
Q 12.9375 14.109375 22.625 23.890625 
Q 32.328125 33.6875 34.8125 36.53125 
Q 39.546875 41.84375 41.421875 45.53125 
Q 43.3125 49.21875 43.3125 52.78125 
Q 43.3125 58.59375 39.234375 62.25 
Q 35.15625 65.921875 28.609375 65.921875 
Q 23.96875 65.921875 18.8125 64.3125 
Q 13.671875 62.703125 7.8125 59.421875 
L 7.8125 69.390625 
Q 13.765625 71.78125 18.9375 73 
Q 24.125 74.21875 28.421875 74.21875 
Q 39.75 74.21875 46.484375 68.546875 
Q 53.21875 62.890625 53.21875 53.421875 
Q 53.21875 48.921875 51.53125 44.890625 
Q 49.859375 40.875 45.40625 35.40625 
Q 44.1875 33.984375 37.640625 27.21875 
Q 31.109375 20.453125 19.1875 8.296875 
z
" id="DejaVuSans-50"/>
      </defs>
      <g transform="translate(142.224046 399.078438)scale(0.1 -0.1)">
       <use xlink:href="#DejaVuSans-55"/>
       <use x="63.623047" xlink:href="#DejaVuSans-50"/>
       <use x="127.246094" xlink:href="#DejaVuSans-48"/>
      </g>
     </g>
    </g>
    <g id="xtick_3">
     <g id="line2d_3">
      <g>
       <use style="stroke:#000000;stroke-width:0.8;" x="222.781046" xlink:href="#m38f8eded67" y="384.48"/>
      </g>
     </g>
     <g id="text_3">
      <!-- 1440 -->
      <defs>
       <path d="M 12.40625 8.296875 
L 28.515625 8.296875 
L 28.515625 63.921875 
L 10.984375 60.40625 
L 10.984375 69.390625 
L 28.421875 72.90625 
L 38.28125 72.90625 
L 38.28125 8.296875 
L 54.390625 8.296875 
L 54.390625 0 
L 12.40625 0 
z
" id="DejaVuSans-49"/>
       <path d="M 37.796875 64.3125 
L 12.890625 25.390625 
L 37.796875 25.390625 
z
M 35.203125 72.90625 
L 47.609375 72.90625 
L 47.609375 25.390625 
L 58.015625 25.390625 
L 58.015625 17.1875 
L 47.609375 17.1875 
L 47.609375 0 
L 37.796875 0 
L 37.796875 17.1875 
L 4.890625 17.1875 
L 4.890625 26.703125 
z
" id="DejaVuSans-52"/>
      </defs>
      <g transform="translate(210.056046 399.078438)scale(0.1 -0.1)">
       <use xlink:href="#DejaVuSans-49"/>
       <use x="63.623047" xlink:href="#DejaVuSans-52"/>
       <use x="127.246094" xlink:href="#DejaVuSans-52"/>
       <use x="190.869141" xlink:href="#DejaVuSans-48"/>
      </g>
     </g>
    </g>
    <g id="xtick_4">
     <g id="line2d_4">
      <g>
       <use style="stroke:#000000;stroke-width:0.8;" x="293.794296" xlink:href="#m38f8eded67" y="384.48"/>
      </g>
     </g>
     <g id="text_4">
      <!-- 2160 -->
      <defs>
       <path d="M 33.015625 40.375 
Q 26.375 40.375 22.484375 35.828125 
Q 18.609375 31.296875 18.609375 23.390625 
Q 18.609375 15.53125 22.484375 10.953125 
Q 26.375 6.390625 33.015625 6.390625 
Q 39.65625 6.390625 43.53125 10.953125 
Q 47.40625 15.53125 47.40625 23.390625 
Q 47.40625 31.296875 43.53125 35.828125 
Q 39.65625 40.375 33.015625 40.375 
z
M 52.59375 71.296875 
L 52.59375 62.3125 
Q 48.875 64.0625 45.09375 64.984375 
Q 41.3125 65.921875 37.59375 65.921875 
Q 27.828125 65.921875 22.671875 59.328125 
Q 17.53125 52.734375 16.796875 39.40625 
Q 19.671875 43.65625 24.015625 45.921875 
Q 28.375 48.1875 33.59375 48.1875 
Q 44.578125 48.1875 50.953125 41.515625 
Q 57.328125 34.859375 57.328125 23.390625 
Q 57.328125 12.15625 50.6875 5.359375 
Q 44.046875 -1.421875 33.015625 -1.421875 
Q 20.359375 -1.421875 13.671875 8.265625 
Q 6.984375 17.96875 6.984375 36.375 
Q 6.984375 53.65625 15.1875 63.9375 
Q 23.390625 74.21875 37.203125 74.21875 
Q 40.921875 74.21875 44.703125 73.484375 
Q 48.484375 72.75 52.59375 71.296875 
z
" id="DejaVuSans-54"/>
      </defs>
      <g transform="translate(281.069296 399.078438)scale(0.1 -0.1)">
       <use xlink:href="#DejaVuSans-50"/>
       <use x="63.623047" xlink:href="#DejaVuSans-49"/>
       <use x="127.246094" xlink:href="#DejaVuSans-54"/>
       <use x="190.869141" xlink:href="#DejaVuSans-48"/>
      </g>
     </g>
    </g>
    <g id="xtick_5">
     <g id="line2d_5">
      <g>
       <use style="stroke:#000000;stroke-width:0.8;" x="364.807547" xlink:href="#m38f8eded67" y="384.48"/>
      </g>
     </g>
     <g id="text_5">
      <!-- 2880 -->
      <defs>
       <path d="M 31.78125 34.625 
Q 24.75 34.625 20.71875 30.859375 
Q 16.703125 27.09375 16.703125 20.515625 
Q 16.703125 13.921875 20.71875 10.15625 
Q 24.75 6.390625 31.78125 6.390625 
Q 38.8125 6.390625 42.859375 10.171875 
Q 46.921875 13.96875 46.921875 20.515625 
Q 46.921875 27.09375 42.890625 30.859375 
Q 38.875 34.625 31.78125 34.625 
z
M 21.921875 38.8125 
Q 15.578125 40.375 12.03125 44.71875 
Q 8.5 49.078125 8.5 55.328125 
Q 8.5 64.0625 14.71875 69.140625 
Q 20.953125 74.21875 31.78125 74.21875 
Q 42.671875 74.21875 48.875 69.140625 
Q 55.078125 64.0625 55.078125 55.328125 
Q 55.078125 49.078125 51.53125 44.71875 
Q 48 40.375 41.703125 38.8125 
Q 48.828125 37.15625 52.796875 32.3125 
Q 56.78125 27.484375 56.78125 20.515625 
Q 56.78125 9.90625 50.3125 4.234375 
Q 43.84375 -1.421875 31.78125 -1.421875 
Q 19.734375 -1.421875 13.25 4.234375 
Q 6.78125 9.90625 6.78125 20.515625 
Q 6.78125 27.484375 10.78125 32.3125 
Q 14.796875 37.15625 21.921875 38.8125 
z
M 18.3125 54.390625 
Q 18.3125 48.734375 21.84375 45.5625 
Q 25.390625 42.390625 31.78125 42.390625 
Q 38.140625 42.390625 41.71875 45.5625 
Q 45.3125 48.734375 45.3125 54.390625 
Q 45.3125 60.0625 41.71875 63.234375 
Q 38.140625 66.40625 31.78125 66.40625 
Q 25.390625 66.40625 21.84375 63.234375 
Q 18.3125 60.0625 18.3125 54.390625 
z
" id="DejaVuSans-56"/>
      </defs>
      <g transform="translate(352.082547 399.078438)scale(0.1 -0.1)">
       <use xlink:href="#DejaVuSans-50"/>
       <use x="63.623047" xlink:href="#DejaVuSans-56"/>
       <use x="127.246094" xlink:href="#DejaVuSans-56"/>
       <use x="190.869141" xlink:href="#DejaVuSans-48"/>
      </g>
     </g>
    </g>
    <g id="text_6">
     <!-- time [ms] -->
     <defs>
      <path d="M 18.3125 70.21875 
L 18.3125 54.6875 
L 36.8125 54.6875 
L 36.8125 47.703125 
L 18.3125 47.703125 
L 18.3125 18.015625 
Q 18.3125 11.328125 20.140625 9.421875 
Q 21.96875 7.515625 27.59375 7.515625 
L 36.8125 7.515625 
L 36.8125 0 
L 27.59375 0 
Q 17.1875 0 13.234375 3.875 
Q 9.28125 7.765625 9.28125 18.015625 
L 9.28125 47.703125 
L 2.6875 47.703125 
L 2.6875 54.6875 
L 9.28125 54.6875 
L 9.28125 70.21875 
z
" id="DejaVuSans-116"/>
      <path d="M 9.421875 54.6875 
L 18.40625 54.6875 
L 18.40625 0 
L 9.421875 0 
z
M 9.421875 75.984375 
L 18.40625 75.984375 
L 18.40625 64.59375 
L 9.421875 64.59375 
z
" id="DejaVuSans-105"/>
      <path d="M 52 44.1875 
Q 55.375 50.25 60.0625 53.125 
Q 64.75 56 71.09375 56 
Q 79.640625 56 84.28125 50.015625 
Q 88.921875 44.046875 88.921875 33.015625 
L 88.921875 0 
L 79.890625 0 
L 79.890625 32.71875 
Q 79.890625 40.578125 77.09375 44.375 
Q 74.3125 48.1875 68.609375 48.1875 
Q 61.625 48.1875 57.5625 43.546875 
Q 53.515625 38.921875 53.515625 30.90625 
L 53.515625 0 
L 44.484375 0 
L 44.484375 32.71875 
Q 44.484375 40.625 41.703125 44.40625 
Q 38.921875 48.1875 33.109375 48.1875 
Q 26.21875 48.1875 22.15625 43.53125 
Q 18.109375 38.875 18.109375 30.90625 
L 18.109375 0 
L 9.078125 0 
L 9.078125 54.6875 
L 18.109375 54.6875 
L 18.109375 46.1875 
Q 21.1875 51.21875 25.484375 53.609375 
Q 29.78125 56 35.6875 56 
Q 41.65625 56 45.828125 52.96875 
Q 50 49.953125 52 44.1875 
z
" id="DejaVuSans-109"/>
      <path d="M 56.203125 29.59375 
L 56.203125 25.203125 
L 14.890625 25.203125 
Q 15.484375 15.921875 20.484375 11.0625 
Q 25.484375 6.203125 34.421875 6.203125 
Q 39.59375 6.203125 44.453125 7.46875 
Q 49.3125 8.734375 54.109375 11.28125 
L 54.109375 2.78125 
Q 49.265625 0.734375 44.1875 -0.34375 
Q 39.109375 -1.421875 33.890625 -1.421875 
Q 20.796875 -1.421875 13.15625 6.1875 
Q 5.515625 13.8125 5.515625 26.8125 
Q 5.515625 40.234375 12.765625 48.109375 
Q 20.015625 56 32.328125 56 
Q 43.359375 56 49.78125 48.890625 
Q 56.203125 41.796875 56.203125 29.59375 
z
M 47.21875 32.234375 
Q 47.125 39.59375 43.09375 43.984375 
Q 39.0625 48.390625 32.421875 48.390625 
Q 24.90625 48.390625 20.390625 44.140625 
Q 15.875 39.890625 15.1875 32.171875 
z
" id="DejaVuSans-101"/>
      <path id="DejaVuSans-32"/>
      <path d="M 8.59375 75.984375 
L 29.296875 75.984375 
L 29.296875 69 
L 17.578125 69 
L 17.578125 -6.203125 
L 29.296875 -6.203125 
L 29.296875 -13.1875 
L 8.59375 -13.1875 
z
" id="DejaVuSans-91"/>
      <path d="M 44.28125 53.078125 
L 44.28125 44.578125 
Q 40.484375 46.53125 36.375 47.5 
Q 32.28125 48.484375 27.875 48.484375 
Q 21.1875 48.484375 17.84375 46.4375 
Q 14.5 44.390625 14.5 40.28125 
Q 14.5 37.15625 16.890625 35.375 
Q 19.28125 33.59375 26.515625 31.984375 
L 29.59375 31.296875 
Q 39.15625 29.25 43.1875 25.515625 
Q 47.21875 21.78125 47.21875 15.09375 
Q 47.21875 7.46875 41.1875 3.015625 
Q 35.15625 -1.421875 24.609375 -1.421875 
Q 20.21875 -1.421875 15.453125 -0.5625 
Q 10.6875 0.296875 5.421875 2 
L 5.421875 11.28125 
Q 10.40625 8.6875 15.234375 7.390625 
Q 20.0625 6.109375 24.8125 6.109375 
Q 31.15625 6.109375 34.5625 8.28125 
Q 37.984375 10.453125 37.984375 14.40625 
Q 37.984375 18.0625 35.515625 20.015625 
Q 33.0625 21.96875 24.703125 23.78125 
L 21.578125 24.515625 
Q 13.234375 26.265625 9.515625 29.90625 
Q 5.8125 33.546875 5.8125 39.890625 
Q 5.8125 47.609375 11.28125 51.796875 
Q 16.75 56 26.8125 56 
Q 31.78125 56 36.171875 55.265625 
Q 40.578125 54.546875 44.28125 53.078125 
z
" id="DejaVuSans-115"/>
      <path d="M 30.421875 75.984375 
L 30.421875 -13.1875 
L 9.71875 -13.1875 
L 9.71875 -6.203125 
L 21.390625 -6.203125 
L 21.390625 69 
L 9.71875 69 
L 9.71875 75.984375 
z
" id="DejaVuSans-93"/>
     </defs>
     <g transform="translate(234.038281 412.756563)scale(0.1 -0.1)">
      <use xlink:href="#DejaVuSans-116"/>
      <use x="39.208984" xlink:href="#DejaVuSans-105"/>
      <use x="66.992188" xlink:href="#DejaVuSans-109"/>
      <use x="164.404297" xlink:href="#DejaVuSans-101"/>
      <use x="225.927734" xlink:href="#DejaVuSans-32"/>
      <use x="257.714844" xlink:href="#DejaVuSans-91"/>
      <use x="296.728516" xlink:href="#DejaVuSans-109"/>
      <use x="394.140625" xlink:href="#DejaVuSans-115"/>
      <use x="446.240234" xlink:href="#DejaVuSans-93"/>
     </g>
    </g>
   </g>
   <g id="matplotlib.axis_2">
    <g id="ytick_1">
     <g id="line2d_6">
      <defs>
       <path d="M 0 0 
L -3.5 0 
" id="m2d054e7b3a" style="stroke:#000000;stroke-width:0.8;"/>
      </defs>
      <g>
       <use style="stroke:#000000;stroke-width:0.8;" x="63" xlink:href="#m2d054e7b3a" y="367.462037"/>
      </g>
     </g>
     <g id="text_7">
      <!-- −80 -->
      <defs>
       <path d="M 10.59375 35.5 
L 73.1875 35.5 
L 73.1875 27.203125 
L 10.59375 27.203125 
z
" id="DejaVuSans-8722"/>
      </defs>
      <g transform="translate(34.895313 371.261255)scale(0.1 -0.1)">
       <use xlink:href="#DejaVuSans-8722"/>
       <use x="83.789062" xlink:href="#DejaVuSans-56"/>
       <use x="147.412109" xlink:href="#DejaVuSans-48"/>
      </g>
     </g>
    </g>
    <g id="ytick_2">
     <g id="line2d_7">
      <g>
       <use style="stroke:#000000;stroke-width:0.8;" x="63" xlink:href="#m2d054e7b3a" y="315.547001"/>
      </g>
     </g>
     <g id="text_8">
      <!-- −60 -->
      <g transform="translate(34.895313 319.346219)scale(0.1 -0.1)">
       <use xlink:href="#DejaVuSans-8722"/>
       <use x="83.789062" xlink:href="#DejaVuSans-54"/>
       <use x="147.412109" xlink:href="#DejaVuSans-48"/>
      </g>
     </g>
    </g>
    <g id="ytick_3">
     <g id="line2d_8">
      <g>
       <use style="stroke:#000000;stroke-width:0.8;" x="63" xlink:href="#m2d054e7b3a" y="263.631965"/>
      </g>
     </g>
     <g id="text_9">
      <!-- −40 -->
      <g transform="translate(34.895313 267.431183)scale(0.1 -0.1)">
       <use xlink:href="#DejaVuSans-8722"/>
       <use x="83.789062" xlink:href="#DejaVuSans-52"/>
       <use x="147.412109" xlink:href="#DejaVuSans-48"/>
      </g>
     </g>
    </g>
    <g id="ytick_4">
     <g id="line2d_9">
      <g>
       <use style="stroke:#000000;stroke-width:0.8;" x="63" xlink:href="#m2d054e7b3a" y="211.716929"/>
      </g>
     </g>
     <g id="text_10">
      <!-- −20 -->
      <g transform="translate(34.895313 215.516147)scale(0.1 -0.1)">
       <use xlink:href="#DejaVuSans-8722"/>
       <use x="83.789062" xlink:href="#DejaVuSans-50"/>
       <use x="147.412109" xlink:href="#DejaVuSans-48"/>
      </g>
     </g>
    </g>
    <g id="ytick_5">
     <g id="line2d_10">
      <g>
       <use style="stroke:#000000;stroke-width:0.8;" x="63" xlink:href="#m2d054e7b3a" y="159.801893"/>
      </g>
     </g>
     <g id="text_11">
      <!-- 0 -->
      <g transform="translate(49.6375 163.601111)scale(0.1 -0.1)">
       <use xlink:href="#DejaVuSans-48"/>
      </g>
     </g>
    </g>
    <g id="ytick_6">
     <g id="line2d_11">
      <g>
       <use style="stroke:#000000;stroke-width:0.8;" x="63" xlink:href="#m2d054e7b3a" y="107.886857"/>
      </g>
     </g>
     <g id="text_12">
      <!-- 20 -->
      <g transform="translate(43.275 111.686075)scale(0.1 -0.1)">
       <use xlink:href="#DejaVuSans-50"/>
       <use x="63.623047" xlink:href="#DejaVuSans-48"/>
      </g>
     </g>
    </g>
    <g id="ytick_7">
     <g id="line2d_12">
      <g>
       <use style="stroke:#000000;stroke-width:0.8;" x="63" xlink:href="#m2d054e7b3a" y="55.971821"/>
      </g>
     </g>
     <g id="text_13">
      <!-- 40 -->
      <g transform="translate(43.275 59.771039)scale(0.1 -0.1)">
       <use xlink:href="#DejaVuSans-52"/>
       <use x="63.623047" xlink:href="#DejaVuSans-48"/>
      </g>
     </g>
    </g>
    <g id="text_14">
     <!-- Voltage [mV] -->
     <defs>
      <path d="M 28.609375 0 
L 0.78125 72.90625 
L 11.078125 72.90625 
L 34.1875 11.53125 
L 57.328125 72.90625 
L 67.578125 72.90625 
L 39.796875 0 
z
" id="DejaVuSans-86"/>
      <path d="M 30.609375 48.390625 
Q 23.390625 48.390625 19.1875 42.75 
Q 14.984375 37.109375 14.984375 27.296875 
Q 14.984375 17.484375 19.15625 11.84375 
Q 23.34375 6.203125 30.609375 6.203125 
Q 37.796875 6.203125 41.984375 11.859375 
Q 46.1875 17.53125 46.1875 27.296875 
Q 46.1875 37.015625 41.984375 42.703125 
Q 37.796875 48.390625 30.609375 48.390625 
z
M 30.609375 56 
Q 42.328125 56 49.015625 48.375 
Q 55.71875 40.765625 55.71875 27.296875 
Q 55.71875 13.875 49.015625 6.21875 
Q 42.328125 -1.421875 30.609375 -1.421875 
Q 18.84375 -1.421875 12.171875 6.21875 
Q 5.515625 13.875 5.515625 27.296875 
Q 5.515625 40.765625 12.171875 48.375 
Q 18.84375 56 30.609375 56 
z
" id="DejaVuSans-111"/>
      <path d="M 9.421875 75.984375 
L 18.40625 75.984375 
L 18.40625 0 
L 9.421875 0 
z
" id="DejaVuSans-108"/>
      <path d="M 34.28125 27.484375 
Q 23.390625 27.484375 19.1875 25 
Q 14.984375 22.515625 14.984375 16.5 
Q 14.984375 11.71875 18.140625 8.90625 
Q 21.296875 6.109375 26.703125 6.109375 
Q 34.1875 6.109375 38.703125 11.40625 
Q 43.21875 16.703125 43.21875 25.484375 
L 43.21875 27.484375 
z
M 52.203125 31.203125 
L 52.203125 0 
L 43.21875 0 
L 43.21875 8.296875 
Q 40.140625 3.328125 35.546875 0.953125 
Q 30.953125 -1.421875 24.3125 -1.421875 
Q 15.921875 -1.421875 10.953125 3.296875 
Q 6 8.015625 6 15.921875 
Q 6 25.140625 12.171875 29.828125 
Q 18.359375 34.515625 30.609375 34.515625 
L 43.21875 34.515625 
L 43.21875 35.40625 
Q 43.21875 41.609375 39.140625 45 
Q 35.0625 48.390625 27.6875 48.390625 
Q 23 48.390625 18.546875 47.265625 
Q 14.109375 46.140625 10.015625 43.890625 
L 10.015625 52.203125 
Q 14.9375 54.109375 19.578125 55.046875 
Q 24.21875 56 28.609375 56 
Q 40.484375 56 46.34375 49.84375 
Q 52.203125 43.703125 52.203125 31.203125 
z
" id="DejaVuSans-97"/>
      <path d="M 45.40625 27.984375 
Q 45.40625 37.75 41.375 43.109375 
Q 37.359375 48.484375 30.078125 48.484375 
Q 22.859375 48.484375 18.828125 43.109375 
Q 14.796875 37.75 14.796875 27.984375 
Q 14.796875 18.265625 18.828125 12.890625 
Q 22.859375 7.515625 30.078125 7.515625 
Q 37.359375 7.515625 41.375 12.890625 
Q 45.40625 18.265625 45.40625 27.984375 
z
M 54.390625 6.78125 
Q 54.390625 -7.171875 48.1875 -13.984375 
Q 42 -20.796875 29.203125 -20.796875 
Q 24.46875 -20.796875 20.265625 -20.09375 
Q 16.0625 -19.390625 12.109375 -17.921875 
L 12.109375 -9.1875 
Q 16.0625 -11.328125 19.921875 -12.34375 
Q 23.78125 -13.375 27.78125 -13.375 
Q 36.625 -13.375 41.015625 -8.765625 
Q 45.40625 -4.15625 45.40625 5.171875 
L 45.40625 9.625 
Q 42.625 4.78125 38.28125 2.390625 
Q 33.9375 0 27.875 0 
Q 17.828125 0 11.671875 7.65625 
Q 5.515625 15.328125 5.515625 27.984375 
Q 5.515625 40.671875 11.671875 48.328125 
Q 17.828125 56 27.875 56 
Q 33.9375 56 38.28125 53.609375 
Q 42.625 51.21875 45.40625 46.390625 
L 45.40625 54.6875 
L 54.390625 54.6875 
z
" id="DejaVuSans-103"/>
     </defs>
     <g transform="translate(28.815625 251.079531)rotate(-90)scale(0.1 -0.1)">
      <use xlink:href="#DejaVuSans-86"/>
      <use x="68.298828" xlink:href="#DejaVuSans-111"/>
      <use x="129.480469" xlink:href="#DejaVuSans-108"/>
      <use x="157.263672" xlink:href="#DejaVuSans-116"/>
      <use x="196.472656" xlink:href="#DejaVuSans-97"/>
      <use x="257.751953" xlink:href="#DejaVuSans-103"/>
      <use x="321.228516" xlink:href="#DejaVuSans-101"/>
      <use x="382.751953" xlink:href="#DejaVuSans-32"/>
      <use x="414.539062" xlink:href="#DejaVuSans-91"/>
      <use x="453.552734" xlink:href="#DejaVuSans-109"/>
      <use x="550.964844" xlink:href="#DejaVuSans-86"/>
      <use x="619.373047" xlink:href="#DejaVuSans-93"/>
     </g>
    </g>
   </g>
   <g id="line2d_13">
    <path clip-path="url(#pc1539d47e1)" d="M 80.754545 328.52576 
L 80.93701 328.639553 
L 81.80495 329.262983 
L 82.584123 329.501717 
L 83.772609 329.607291 
L 86.756151 329.57451 
L 96.495816 329.493514 
L 100.480448 329.488024 
L 100.638256 344.886692 
L 100.978527 355.88194 
L 101.42236 363.758475 
L 101.836604 367.641773 
L 102.176876 369.064014 
L 102.42345 369.357867 
L 102.605914 369.275716 
L 102.85742 368.85638 
L 103.301252 367.596502 
L 104.775764 363.169026 
L 105.421787 362.018001 
L 106.038221 361.349557 
L 106.684245 360.969751 
L 107.453555 360.782668 
L 108.602589 360.757324 
L 115.575696 360.918426 
L 130.069303 360.91202 
L 130.222178 345.979362 
L 130.547656 335.910379 
L 130.971763 329.017167 
L 131.39587 325.346547 
L 131.800251 323.556808 
L 132.170111 322.797741 
L 132.50052 322.562929 
L 132.830929 322.596338 
L 133.264899 322.890437 
L 134.014483 323.716703 
L 136.105429 326.095948 
L 137.303778 327.074931 
L 138.561304 327.815263 
L 140.272526 328.77785 
L 140.972795 329.256057 
L 141.747037 329.498033 
L 142.920728 329.606342 
L 145.80071 329.577254 
L 155.52558 329.49384 
L 159.663088 329.488024 
L 159.820896 326.405568 
L 160.161167 324.201338 
L 160.624726 322.544396 
L 161.117874 321.548903 
L 161.64061 320.971239 
L 162.232387 320.647782 
L 162.996766 320.496864 
L 164.244429 320.50746 
L 172.948484 320.932573 
L 183.472253 321.006129 
L 189.251943 321.013171 
L 189.40975 324.101364 
L 189.750022 326.301884 
L 190.208649 327.927426 
L 190.701797 328.912014 
L 191.224533 329.481701 
L 191.81631 329.800571 
L 192.590552 329.951306 
L 193.867804 329.942188 
L 199.114894 329.635439 
L 199.119826 328.52576 
L 199.228318 328.577393 
L 200.421735 329.364752 
L 201.299538 329.553485 
L 202.793775 329.613724 
L 218.845729 329.488024 
L 219.003536 323.321077 
L 219.343808 318.896884 
L 219.807366 315.54013 
L 220.305445 313.44538 
L 220.828182 312.150506 
L 221.395301 311.316019 
L 222.085708 310.701365 
L 222.89447 309.976973 
L 223.037483 309.492708 
L 223.06214 308.664916 
L 223.081866 273.436746 
L 223.136112 69.173749 
L 223.219947 183.04097 
L 223.417207 301.771799 
L 223.604603 311.909179 
L 223.826519 314.067621 
L 224.053367 314.556263 
L 224.26542 314.571354 
L 224.674733 314.292251 
L 225.53281 313.759718 
L 226.479653 313.469975 
L 228.195806 313.213873 
L 231.711949 312.940944 
L 237.185887 312.750487 
L 247.42363 312.657806 
L 248.434583 312.654342 
L 248.59239 318.868145 
L 248.92773 323.240124 
L 249.376495 326.411956 
L 249.849916 328.297326 
L 250.333201 329.374546 
L 250.83128 329.972212 
L 251.378674 330.288363 
L 252.06908 330.418131 
L 253.154005 330.366918 
L 258.297534 329.809193 
L 258.302466 328.52576 
L 258.410958 328.577393 
L 259.604375 329.364752 
L 260.482178 329.553485 
L 261.976415 329.613724 
L 278.028369 329.488024 
L 278.186176 320.233231 
L 278.531379 313.472089 
L 279.024527 307.935448 
L 279.566989 302.154642 
L 279.581783 294.586859 
L 279.640961 67.896652 
L 279.724796 181.220686 
L 279.922055 298.093712 
L 280.10452 307.559218 
L 280.296847 308.862398 
L 280.385614 308.874818 
L 280.415203 308.842433 
L 280.60753 308.392245 
L 281.983412 304.582994 
L 282.693545 303.527653 
L 284.005317 301.719932 
L 284.177919 300.923455 
L 284.242028 299.496486 
L 284.256822 286.561159 
L 284.316 73.56725 
L 284.394904 174.551627 
L 284.597094 297.939973 
L 284.78449 307.463796 
L 284.986681 308.979452 
L 285.124762 309.076181 
L 285.144488 309.064419 
L 285.331884 308.789331 
L 286.717629 306.271569 
L 287.403104 305.694462 
L 288.315427 305.232124 
L 289.745555 304.780835 
L 292.319785 304.229854 
L 299.68741 302.762732 
L 300.062202 302.394313 
L 300.25453 301.883713 
L 300.343296 300.917162 
L 300.358091 297.539034 
L 300.397542 157.443681 
L 300.427131 77.901957 
L 300.501103 169.285251 
L 300.703294 295.943789 
L 300.89069 306.002795 
L 301.107675 307.96021 
L 301.309865 308.273343 
L 301.487399 308.188469 
L 301.906574 307.63838 
L 302.690679 306.717353 
L 303.469852 306.163952 
L 304.59916 305.657039 
L 306.507641 305.069869 
L 307.617223 304.7949 
L 307.77503 314.240538 
L 308.105439 320.79195 
L 308.539409 325.354349 
L 308.998036 328.03861 
L 309.461595 329.552647 
L 309.930085 330.385243 
L 310.41337 330.81849 
L 310.965695 331.01462 
L 311.705416 331.023907 
L 313.081298 330.775177 
L 316.405113 330.168634 
L 317.480174 330.03933 
L 317.485106 328.52576 
L 317.593598 328.577393 
L 318.787015 329.364752 
L 319.664818 329.553485 
L 321.159055 329.613724 
L 337.211009 329.488024 
L 337.368816 317.140236 
L 337.718951 307.867831 
L 338.207167 295.910559 
L 338.236756 214.002751 
L 338.271276 67.22204 
L 338.35018 174.486935 
L 338.547439 293.991638 
L 338.724972 303.225097 
L 338.863053 303.963958 
L 338.88771 303.946584 
L 338.996203 303.616907 
L 339.297023 301.776063 
L 339.928252 296.545512 
L 340.086059 293.377393 
L 340.115648 289.324032 
L 340.1551 127.389987 
L 340.179757 73.042432 
L 340.253729 170.497198 
L 340.45592 300.545538 
L 340.633453 308.693259 
L 340.712356 308.995786 
L 340.766603 308.890284 
L 340.929341 307.907748 
L 342.650426 293.799672 
L 342.699741 289.608253 
L 342.734262 173.292764 
L 342.768782 77.282759 
L 342.842754 172.106991 
L 343.044944 296.536071 
L 343.227409 305.304847 
L 343.36549 305.978688 
L 343.390148 305.964072 
L 343.49864 305.67104 
L 343.824118 303.924929 
L 344.721646 299.262932 
L 345.505751 295.327879 
L 345.658627 293.132028 
L 345.698078 290.173926 
L 345.722736 233.147987 
L 345.772051 80.881461 
L 345.846023 171.254312 
L 346.048213 293.873456 
L 346.230678 303.090558 
L 346.418074 304.227059 
L 346.516703 304.154578 
L 346.713962 303.561366 
L 349.026825 294.337676 
L 349.125454 291.885972 
L 349.14518 286.984607 
L 349.214221 83.473769 
L 349.302987 188.633838 
L 349.500246 293.049467 
L 349.687642 301.707541 
L 349.884901 303.041952 
L 349.988462 303.084748 
L 350.018051 303.059364 
L 350.200516 302.695655 
L 350.895854 300.530584 
L 351.867355 297.978216 
L 352.508446 296.086449 
L 352.759952 294.629298 
L 352.873376 292.637046 
L 352.902964 289.094434 
L 352.942416 150.115416 
L 352.976937 85.395085 
L 353.045977 165.221235 
L 353.253099 290.801571 
L 353.440495 300.564805 
L 353.647617 302.308448 
L 353.800493 302.463186 
L 353.815287 302.456356 
L 353.978026 302.238402 
L 354.407065 301.16017 
L 355.487058 298.542246 
L 356.36486 296.358017 
L 356.650886 294.997399 
L 356.788967 293.190687 
L 356.828419 290.490905 
L 356.853076 234.811605 
L 356.902391 86.60843 
L 356.981295 172.063529 
L 357.188417 290.739612 
L 357.380744 300.12344 
L 357.597729 301.908762 
L 357.775262 302.096054 
L 357.938001 301.923047 
L 358.327588 301.073249 
L 359.644292 298.160312 
L 360.354424 296.426729 
L 360.645381 295.110094 
L 360.788394 293.373724 
L 360.832777 290.394614 
L 360.857435 232.925249 
L 360.90675 87.331197 
L 360.985653 172.412214 
L 361.192775 290.287175 
L 361.385103 299.708095 
L 361.602088 301.601951 
L 361.794415 301.862491 
L 361.957154 301.724469 
L 362.31222 301.030746 
L 364.595493 295.645462 
L 364.787821 294.126433 
L 364.861793 291.730571 
L 364.876587 285.895026 
L 364.945628 87.734637 
L 365.024532 174.455912 
L 365.231654 290.103029 
L 365.423981 299.443465 
L 365.645898 301.416951 
L 365.843157 301.710141 
L 366.005895 301.593292 
L 366.341236 300.98571 
L 366.799863 299.996833 
L 366.95767 312.436388 
L 367.273285 320.36892 
L 367.69246 325.755836 
L 368.136293 328.851073 
L 368.585057 330.560064 
L 369.033822 331.466208 
L 369.482586 331.907216 
L 369.970802 332.082619 
L 370.602031 332.058341 
L 371.66723 331.759541 
L 375.055153 330.727964 
L 376.662814 330.406206 
L 376.667746 328.52576 
L 376.776238 328.577393 
L 377.969656 329.364752 
L 378.847458 329.553485 
L 380.341695 329.613724 
L 396.393649 329.488024 
L 396.551456 314.039376 
L 396.926248 301.245167 
L 397.09885 293.140965 
L 397.118576 249.527936 
L 397.162959 66.96 
L 397.246794 180.652433 
L 397.439122 290.66714 
L 397.611723 299.051627 
L 397.690627 299.384883 
L 397.739942 299.277146 
L 397.887886 298.258437 
L 398.223226 294.178918 
L 398.400759 289.597356 
L 398.43528 282.983532 
L 398.499389 76.195237 
L 398.588155 196.11103 
L 398.775552 302.399104 
L 398.943222 308.390566 
L 398.958016 308.397822 
L 398.992537 308.298621 
L 399.125686 307.058192 
L 399.791436 297.488244 
L 400.111981 291.145313 
L 400.161296 284.653784 
L 400.225405 78.070324 
L 400.324035 204.738936 
L 400.5065 299.469215 
L 400.679101 306.044507 
L 400.70869 306.1027 
L 400.762936 305.952696 
L 400.925675 304.530563 
L 401.729506 294.403644 
L 401.916902 289.889012 
L 401.951422 283.548469 
L 402.015531 82.005824 
L 402.109229 195.87346 
L 402.301557 297.517296 
L 402.474158 304.104848 
L 402.523473 304.242587 
L 402.582651 304.100737 
L 402.755252 302.812969 
L 403.5147 294.610532 
L 403.741548 290.380464 
L 403.790862 284.741306 
L 403.830314 140.179696 
L 403.859903 84.528105 
L 403.933875 171.667914 
L 404.136066 294.653742 
L 404.313599 302.560197 
L 404.392502 302.862517 
L 404.446749 302.759657 
L 404.604556 301.813777 
L 405.211127 296.242433 
L 405.58592 291.519884 
L 405.674686 287.04955 
L 405.694412 256.291327 
L 405.75359 86.433143 
L 405.827562 172.109667 
L 406.029752 293.297334 
L 406.207285 301.37189 
L 406.310846 301.815774 
L 406.35523 301.751858 
L 406.498243 301.072454 
L 406.961801 297.409332 
L 407.489469 291.964582 
L 407.597962 288.464065 
L 407.622619 280.328857 
L 407.686728 87.897006 
L 407.765632 174.035368 
L 407.972754 293.010534 
L 408.155218 300.652049 
L 408.268642 301.109783 
L 408.308094 301.064067 
L 408.441244 300.537493 
L 408.835762 297.789371 
L 409.432471 292.358979 
L 409.56562 289.033062 
L 409.595209 284.130412 
L 409.66425 88.625502 
L 409.767811 203.305514 
L 409.955207 292.791084 
L 410.137672 300.091097 
L 410.260959 300.60919 
L 410.295479 300.581444 
L 410.418766 300.178842 
L 410.759038 298.070793 
L 411.405061 292.759402 
L 411.5678 289.455784 
L 411.607251 283.356202 
L 411.676292 89.096575 
L 411.76999 192.455507 
L 411.967249 292.223389 
L 412.149714 299.606992 
L 412.287795 300.22047 
L 412.312452 300.207611 
L 412.420945 299.92771 
L 412.702039 298.402714 
L 413.37272 293.425023 
L 413.579842 290.337924 
L 413.639019 285.861889 
L 413.663677 229.587548 
L 413.712992 89.474692 
L 413.786964 167.988099 
L 413.994086 290.590262 
L 414.17655 299.129989 
L 414.339289 299.958149 
L 414.349152 299.955574 
L 414.437918 299.793436 
L 414.659835 298.779132 
L 415.286132 294.605286 
L 415.591884 291.359049 
L 415.685582 287.920026 
L 415.705308 280.91586 
L 415.774348 89.707815 
L 415.848321 171.121284 
L 416.055442 290.565443 
L 416.237907 298.908989 
L 416.405577 299.769265 
L 416.41544 299.767587 
L 416.504207 299.618472 
L 416.721192 298.677637 
L 417.322832 294.825038 
L 417.653241 291.5572 
L 417.756802 288.187633 
L 417.781459 276.645319 
L 417.845568 89.835713 
L 417.91954 167.567242 
L 418.126662 289.974 
L 418.309127 298.685248 
L 418.48666 299.641641 
L 418.570495 299.535356 
L 418.762823 298.787686 
L 419.295422 295.576031 
L 419.704735 292.056854 
L 419.832953 288.933403 
L 419.862542 283.874134 
L 419.931582 89.951283 
L 420.035143 201.268432 
L 420.227471 291.367387 
L 420.414867 298.800223 
L 420.582537 299.550386 
L 420.5924 299.54779 
L 420.69103 299.373353 
L 420.92774 298.344666 
L 421.544175 294.457392 
L 421.844995 291.371197 
L 421.938693 288.171806 
L 421.96335 276.084636 
L 422.02746 89.963326 
L 422.101432 167.605435 
L 422.308554 289.640854 
L 422.491018 298.4349 
L 422.673483 299.467535 
L 422.762249 299.368108 
L 422.954577 298.651623 
L 423.472382 295.631874 
L 423.891557 292.162023 
L 424.024707 289.181152 
L 424.059228 283.545964 
L 424.128268 90.005579 
L 424.226898 196.138708 
L 424.424157 291.148252 
L 424.611553 298.616328 
L 424.789086 299.415867 
L 424.882784 299.278993 
L 425.099769 298.411379 
L 425.67182 294.982423 
L 425.982503 292.335966 
L 426.145242 308.741446 
L 426.450993 318.627185 
L 426.855374 325.114256 
L 427.289344 328.844483 
L 427.733177 330.907847 
L 428.172078 331.98493 
L 428.606048 332.507664 
L 429.059744 332.718751 
L 429.612069 332.71861 
L 430.460283 332.466422 
L 434.9282 330.866838 
L 435.845455 330.65479 
L 435.845455 330.65479 
" style="fill:none;stroke:#ff0000;stroke-linecap:square;stroke-width:1.5;"/>
   </g>
   <g id="patch_3">
    <path d="M 63 384.48 
L 63 51.84 
" style="fill:none;stroke:#000000;stroke-linecap:square;stroke-linejoin:miter;stroke-width:0.8;"/>
   </g>
   <g id="patch_4">
    <path d="M 453.6 384.48 
L 453.6 51.84 
" style="fill:none;stroke:#000000;stroke-linecap:square;stroke-linejoin:miter;stroke-width:0.8;"/>
   </g>
   <g id="patch_5">
    <path d="M 63 384.48 
L 453.6 384.48 
" style="fill:none;stroke:#000000;stroke-linecap:square;stroke-linejoin:miter;stroke-width:0.8;"/>
   </g>
   <g id="patch_6">
    <path d="M 63 51.84 
L 453.6 51.84 
" style="fill:none;stroke:#000000;stroke-linecap:square;stroke-linejoin:miter;stroke-width:0.8;"/>
   </g>
   <g id="legend_1">
    <g id="patch_7">
     <path d="M 70 74.518125 
L 133.139062 74.518125 
Q 135.139062 74.518125 135.139062 72.518125 
L 135.139062 58.84 
Q 135.139062 56.84 133.139062 56.84 
L 70 56.84 
Q 68 56.84 68 58.84 
L 68 72.518125 
Q 68 74.518125 70 74.518125 
z
" style="fill:#ffffff;opacity:0.8;stroke:#cccccc;stroke-linejoin:miter;"/>
    </g>
    <g id="line2d_14">
     <path d="M 72 64.938438 
L 92 64.938438 
" style="fill:none;stroke:#ff0000;stroke-linecap:square;stroke-width:1.5;"/>
    </g>
    <g id="line2d_15"/>
    <g id="text_15">
     <!-- model -->
     <defs>
      <path d="M 45.40625 46.390625 
L 45.40625 75.984375 
L 54.390625 75.984375 
L 54.390625 0 
L 45.40625 0 
L 45.40625 8.203125 
Q 42.578125 3.328125 38.25 0.953125 
Q 33.9375 -1.421875 27.875 -1.421875 
Q 17.96875 -1.421875 11.734375 6.484375 
Q 5.515625 14.40625 5.515625 27.296875 
Q 5.515625 40.1875 11.734375 48.09375 
Q 17.96875 56 27.875 56 
Q 33.9375 56 38.25 53.625 
Q 42.578125 51.265625 45.40625 46.390625 
z
M 14.796875 27.296875 
Q 14.796875 17.390625 18.875 11.75 
Q 22.953125 6.109375 30.078125 6.109375 
Q 37.203125 6.109375 41.296875 11.75 
Q 45.40625 17.390625 45.40625 27.296875 
Q 45.40625 37.203125 41.296875 42.84375 
Q 37.203125 48.484375 30.078125 48.484375 
Q 22.953125 48.484375 18.875 42.84375 
Q 14.796875 37.203125 14.796875 27.296875 
z
" id="DejaVuSans-100"/>
     </defs>
     <g transform="translate(100 68.438438)scale(0.1 -0.1)">
      <use xlink:href="#DejaVuSans-109"/>
      <use x="97.412109" xlink:href="#DejaVuSans-111"/>
      <use x="158.59375" xlink:href="#DejaVuSans-100"/>
      <use x="222.070312" xlink:href="#DejaVuSans-101"/>
      <use x="283.59375" xlink:href="#DejaVuSans-108"/>
     </g>
    </g>
   </g>
  </g>
 </g>
 <defs>
  <clipPath id="pc1539d47e1">
   <rect height="332.64" width="390.6" x="63" y="51.84"/>
  </clipPath>
 </defs>
</svg>
