<?xml version="1.0" encoding="utf-8" standalone="no"?>
<!DOCTYPE svg PUBLIC "-//W3C//DTD SVG 1.1//EN"
  "http://www.w3.org/Graphics/SVG/1.1/DTD/svg11.dtd">
<!-- Created with matplotlib (https://matplotlib.org/) -->
<svg height="432pt" version="1.1" viewBox="0 0 504 432" width="504pt" xmlns="http://www.w3.org/2000/svg" xmlns:xlink="http://www.w3.org/1999/xlink">
 <defs>
  <style type="text/css">
*{stroke-linecap:butt;stroke-linejoin:round;}
  </style>
 </defs>
 <g id="figure_1">
  <g id="patch_1">
   <path d="M 0 432 
L 504 432 
L 504 0 
L 0 0 
z
" style="fill:#ffffff;"/>
  </g>
  <g id="axes_1">
   <g id="patch_2">
    <path d="M 63 384.48 
L 453.6 384.48 
L 453.6 51.84 
L 63 51.84 
z
" style="fill:#ffffff;"/>
   </g>
   <g id="matplotlib.axis_1">
    <g id="xtick_1">
     <g id="line2d_1">
      <defs>
       <path d="M 0 0 
L 0 3.5 
" id="m1ec22c83e8" style="stroke:#000000;stroke-width:0.8;"/>
      </defs>
      <g>
       <use style="stroke:#000000;stroke-width:0.8;" x="80.754545" xlink:href="#m1ec22c83e8" y="384.48"/>
      </g>
     </g>
     <g id="text_1">
      <!-- 0 -->
      <defs>
       <path d="M 31.78125 66.40625 
Q 24.171875 66.40625 20.328125 58.90625 
Q 16.5 51.421875 16.5 36.375 
Q 16.5 21.390625 20.328125 13.890625 
Q 24.171875 6.390625 31.78125 6.390625 
Q 39.453125 6.390625 43.28125 13.890625 
Q 47.125 21.390625 47.125 36.375 
Q 47.125 51.421875 43.28125 58.90625 
Q 39.453125 66.40625 31.78125 66.40625 
z
M 31.78125 74.21875 
Q 44.046875 74.21875 50.515625 64.515625 
Q 56.984375 54.828125 56.984375 36.375 
Q 56.984375 17.96875 50.515625 8.265625 
Q 44.046875 -1.421875 31.78125 -1.421875 
Q 19.53125 -1.421875 13.0625 8.265625 
Q 6.59375 17.96875 6.59375 36.375 
Q 6.59375 54.828125 13.0625 64.515625 
Q 19.53125 74.21875 31.78125 74.21875 
z
" id="DejaVuSans-48"/>
      </defs>
      <g transform="translate(77.573295 399.078438)scale(0.1 -0.1)">
       <use xlink:href="#DejaVuSans-48"/>
      </g>
     </g>
    </g>
    <g id="xtick_2">
     <g id="line2d_2">
      <g>
       <use style="stroke:#000000;stroke-width:0.8;" x="151.772727" xlink:href="#m1ec22c83e8" y="384.48"/>
      </g>
     </g>
     <g id="text_2">
      <!-- 200 -->
      <defs>
       <path d="M 19.1875 8.296875 
L 53.609375 8.296875 
L 53.609375 0 
L 7.328125 0 
L 7.328125 8.296875 
Q 12.9375 14.109375 22.625 23.890625 
Q 32.328125 33.6875 34.8125 36.53125 
Q 39.546875 41.84375 41.421875 45.53125 
Q 43.3125 49.21875 43.3125 52.78125 
Q 43.3125 58.59375 39.234375 62.25 
Q 35.15625 65.921875 28.609375 65.921875 
Q 23.96875 65.921875 18.8125 64.3125 
Q 13.671875 62.703125 7.8125 59.421875 
L 7.8125 69.390625 
Q 13.765625 71.78125 18.9375 73 
Q 24.125 74.21875 28.421875 74.21875 
Q 39.75 74.21875 46.484375 68.546875 
Q 53.21875 62.890625 53.21875 53.421875 
Q 53.21875 48.921875 51.53125 44.890625 
Q 49.859375 40.875 45.40625 35.40625 
Q 44.1875 33.984375 37.640625 27.21875 
Q 31.109375 20.453125 19.1875 8.296875 
z
" id="DejaVuSans-50"/>
      </defs>
      <g transform="translate(142.228977 399.078438)scale(0.1 -0.1)">
       <use xlink:href="#DejaVuSans-50"/>
       <use x="63.623047" xlink:href="#DejaVuSans-48"/>
       <use x="127.246094" xlink:href="#DejaVuSans-48"/>
      </g>
     </g>
    </g>
    <g id="xtick_3">
     <g id="line2d_3">
      <g>
       <use style="stroke:#000000;stroke-width:0.8;" x="222.790909" xlink:href="#m1ec22c83e8" y="384.48"/>
      </g>
     </g>
     <g id="text_3">
      <!-- 400 -->
      <defs>
       <path d="M 37.796875 64.3125 
L 12.890625 25.390625 
L 37.796875 25.390625 
z
M 35.203125 72.90625 
L 47.609375 72.90625 
L 47.609375 25.390625 
L 58.015625 25.390625 
L 58.015625 17.1875 
L 47.609375 17.1875 
L 47.609375 0 
L 37.796875 0 
L 37.796875 17.1875 
L 4.890625 17.1875 
L 4.890625 26.703125 
z
" id="DejaVuSans-52"/>
      </defs>
      <g transform="translate(213.247159 399.078438)scale(0.1 -0.1)">
       <use xlink:href="#DejaVuSans-52"/>
       <use x="63.623047" xlink:href="#DejaVuSans-48"/>
       <use x="127.246094" xlink:href="#DejaVuSans-48"/>
      </g>
     </g>
    </g>
    <g id="xtick_4">
     <g id="line2d_4">
      <g>
       <use style="stroke:#000000;stroke-width:0.8;" x="293.809091" xlink:href="#m1ec22c83e8" y="384.48"/>
      </g>
     </g>
     <g id="text_4">
      <!-- 600 -->
      <defs>
       <path d="M 33.015625 40.375 
Q 26.375 40.375 22.484375 35.828125 
Q 18.609375 31.296875 18.609375 23.390625 
Q 18.609375 15.53125 22.484375 10.953125 
Q 26.375 6.390625 33.015625 6.390625 
Q 39.65625 6.390625 43.53125 10.953125 
Q 47.40625 15.53125 47.40625 23.390625 
Q 47.40625 31.296875 43.53125 35.828125 
Q 39.65625 40.375 33.015625 40.375 
z
M 52.59375 71.296875 
L 52.59375 62.3125 
Q 48.875 64.0625 45.09375 64.984375 
Q 41.3125 65.921875 37.59375 65.921875 
Q 27.828125 65.921875 22.671875 59.328125 
Q 17.53125 52.734375 16.796875 39.40625 
Q 19.671875 43.65625 24.015625 45.921875 
Q 28.375 48.1875 33.59375 48.1875 
Q 44.578125 48.1875 50.953125 41.515625 
Q 57.328125 34.859375 57.328125 23.390625 
Q 57.328125 12.15625 50.6875 5.359375 
Q 44.046875 -1.421875 33.015625 -1.421875 
Q 20.359375 -1.421875 13.671875 8.265625 
Q 6.984375 17.96875 6.984375 36.375 
Q 6.984375 53.65625 15.1875 63.9375 
Q 23.390625 74.21875 37.203125 74.21875 
Q 40.921875 74.21875 44.703125 73.484375 
Q 48.484375 72.75 52.59375 71.296875 
z
" id="DejaVuSans-54"/>
      </defs>
      <g transform="translate(284.265341 399.078438)scale(0.1 -0.1)">
       <use xlink:href="#DejaVuSans-54"/>
       <use x="63.623047" xlink:href="#DejaVuSans-48"/>
       <use x="127.246094" xlink:href="#DejaVuSans-48"/>
      </g>
     </g>
    </g>
    <g id="xtick_5">
     <g id="line2d_5">
      <g>
       <use style="stroke:#000000;stroke-width:0.8;" x="364.827273" xlink:href="#m1ec22c83e8" y="384.48"/>
      </g>
     </g>
     <g id="text_5">
      <!-- 800 -->
      <defs>
       <path d="M 31.78125 34.625 
Q 24.75 34.625 20.71875 30.859375 
Q 16.703125 27.09375 16.703125 20.515625 
Q 16.703125 13.921875 20.71875 10.15625 
Q 24.75 6.390625 31.78125 6.390625 
Q 38.8125 6.390625 42.859375 10.171875 
Q 46.921875 13.96875 46.921875 20.515625 
Q 46.921875 27.09375 42.890625 30.859375 
Q 38.875 34.625 31.78125 34.625 
z
M 21.921875 38.8125 
Q 15.578125 40.375 12.03125 44.71875 
Q 8.5 49.078125 8.5 55.328125 
Q 8.5 64.0625 14.71875 69.140625 
Q 20.953125 74.21875 31.78125 74.21875 
Q 42.671875 74.21875 48.875 69.140625 
Q 55.078125 64.0625 55.078125 55.328125 
Q 55.078125 49.078125 51.53125 44.71875 
Q 48 40.375 41.703125 38.8125 
Q 48.828125 37.15625 52.796875 32.3125 
Q 56.78125 27.484375 56.78125 20.515625 
Q 56.78125 9.90625 50.3125 4.234375 
Q 43.84375 -1.421875 31.78125 -1.421875 
Q 19.734375 -1.421875 13.25 4.234375 
Q 6.78125 9.90625 6.78125 20.515625 
Q 6.78125 27.484375 10.78125 32.3125 
Q 14.796875 37.15625 21.921875 38.8125 
z
M 18.3125 54.390625 
Q 18.3125 48.734375 21.84375 45.5625 
Q 25.390625 42.390625 31.78125 42.390625 
Q 38.140625 42.390625 41.71875 45.5625 
Q 45.3125 48.734375 45.3125 54.390625 
Q 45.3125 60.0625 41.71875 63.234375 
Q 38.140625 66.40625 31.78125 66.40625 
Q 25.390625 66.40625 21.84375 63.234375 
Q 18.3125 60.0625 18.3125 54.390625 
z
" id="DejaVuSans-56"/>
      </defs>
      <g transform="translate(355.283523 399.078438)scale(0.1 -0.1)">
       <use xlink:href="#DejaVuSans-56"/>
       <use x="63.623047" xlink:href="#DejaVuSans-48"/>
       <use x="127.246094" xlink:href="#DejaVuSans-48"/>
      </g>
     </g>
    </g>
    <g id="text_6">
     <!-- time [ms] -->
     <defs>
      <path d="M 18.3125 70.21875 
L 18.3125 54.6875 
L 36.8125 54.6875 
L 36.8125 47.703125 
L 18.3125 47.703125 
L 18.3125 18.015625 
Q 18.3125 11.328125 20.140625 9.421875 
Q 21.96875 7.515625 27.59375 7.515625 
L 36.8125 7.515625 
L 36.8125 0 
L 27.59375 0 
Q 17.1875 0 13.234375 3.875 
Q 9.28125 7.765625 9.28125 18.015625 
L 9.28125 47.703125 
L 2.6875 47.703125 
L 2.6875 54.6875 
L 9.28125 54.6875 
L 9.28125 70.21875 
z
" id="DejaVuSans-116"/>
      <path d="M 9.421875 54.6875 
L 18.40625 54.6875 
L 18.40625 0 
L 9.421875 0 
z
M 9.421875 75.984375 
L 18.40625 75.984375 
L 18.40625 64.59375 
L 9.421875 64.59375 
z
" id="DejaVuSans-105"/>
      <path d="M 52 44.1875 
Q 55.375 50.25 60.0625 53.125 
Q 64.75 56 71.09375 56 
Q 79.640625 56 84.28125 50.015625 
Q 88.921875 44.046875 88.921875 33.015625 
L 88.921875 0 
L 79.890625 0 
L 79.890625 32.71875 
Q 79.890625 40.578125 77.09375 44.375 
Q 74.3125 48.1875 68.609375 48.1875 
Q 61.625 48.1875 57.5625 43.546875 
Q 53.515625 38.921875 53.515625 30.90625 
L 53.515625 0 
L 44.484375 0 
L 44.484375 32.71875 
Q 44.484375 40.625 41.703125 44.40625 
Q 38.921875 48.1875 33.109375 48.1875 
Q 26.21875 48.1875 22.15625 43.53125 
Q 18.109375 38.875 18.109375 30.90625 
L 18.109375 0 
L 9.078125 0 
L 9.078125 54.6875 
L 18.109375 54.6875 
L 18.109375 46.1875 
Q 21.1875 51.21875 25.484375 53.609375 
Q 29.78125 56 35.6875 56 
Q 41.65625 56 45.828125 52.96875 
Q 50 49.953125 52 44.1875 
z
" id="DejaVuSans-109"/>
      <path d="M 56.203125 29.59375 
L 56.203125 25.203125 
L 14.890625 25.203125 
Q 15.484375 15.921875 20.484375 11.0625 
Q 25.484375 6.203125 34.421875 6.203125 
Q 39.59375 6.203125 44.453125 7.46875 
Q 49.3125 8.734375 54.109375 11.28125 
L 54.109375 2.78125 
Q 49.265625 0.734375 44.1875 -0.34375 
Q 39.109375 -1.421875 33.890625 -1.421875 
Q 20.796875 -1.421875 13.15625 6.1875 
Q 5.515625 13.8125 5.515625 26.8125 
Q 5.515625 40.234375 12.765625 48.109375 
Q 20.015625 56 32.328125 56 
Q 43.359375 56 49.78125 48.890625 
Q 56.203125 41.796875 56.203125 29.59375 
z
M 47.21875 32.234375 
Q 47.125 39.59375 43.09375 43.984375 
Q 39.0625 48.390625 32.421875 48.390625 
Q 24.90625 48.390625 20.390625 44.140625 
Q 15.875 39.890625 15.1875 32.171875 
z
" id="DejaVuSans-101"/>
      <path id="DejaVuSans-32"/>
      <path d="M 8.59375 75.984375 
L 29.296875 75.984375 
L 29.296875 69 
L 17.578125 69 
L 17.578125 -6.203125 
L 29.296875 -6.203125 
L 29.296875 -13.1875 
L 8.59375 -13.1875 
z
" id="DejaVuSans-91"/>
      <path d="M 44.28125 53.078125 
L 44.28125 44.578125 
Q 40.484375 46.53125 36.375 47.5 
Q 32.28125 48.484375 27.875 48.484375 
Q 21.1875 48.484375 17.84375 46.4375 
Q 14.5 44.390625 14.5 40.28125 
Q 14.5 37.15625 16.890625 35.375 
Q 19.28125 33.59375 26.515625 31.984375 
L 29.59375 31.296875 
Q 39.15625 29.25 43.1875 25.515625 
Q 47.21875 21.78125 47.21875 15.09375 
Q 47.21875 7.46875 41.1875 3.015625 
Q 35.15625 -1.421875 24.609375 -1.421875 
Q 20.21875 -1.421875 15.453125 -0.5625 
Q 10.6875 0.296875 5.421875 2 
L 5.421875 11.28125 
Q 10.40625 8.6875 15.234375 7.390625 
Q 20.0625 6.109375 24.8125 6.109375 
Q 31.15625 6.109375 34.5625 8.28125 
Q 37.984375 10.453125 37.984375 14.40625 
Q 37.984375 18.0625 35.515625 20.015625 
Q 33.0625 21.96875 24.703125 23.78125 
L 21.578125 24.515625 
Q 13.234375 26.265625 9.515625 29.90625 
Q 5.8125 33.546875 5.8125 39.890625 
Q 5.8125 47.609375 11.28125 51.796875 
Q 16.75 56 26.8125 56 
Q 31.78125 56 36.171875 55.265625 
Q 40.578125 54.546875 44.28125 53.078125 
z
" id="DejaVuSans-115"/>
      <path d="M 30.421875 75.984375 
L 30.421875 -13.1875 
L 9.71875 -13.1875 
L 9.71875 -6.203125 
L 21.390625 -6.203125 
L 21.390625 69 
L 9.71875 69 
L 9.71875 75.984375 
z
" id="DejaVuSans-93"/>
     </defs>
     <g transform="translate(234.038281 412.756563)scale(0.1 -0.1)">
      <use xlink:href="#DejaVuSans-116"/>
      <use x="39.208984" xlink:href="#DejaVuSans-105"/>
      <use x="66.992188" xlink:href="#DejaVuSans-109"/>
      <use x="164.404297" xlink:href="#DejaVuSans-101"/>
      <use x="225.927734" xlink:href="#DejaVuSans-32"/>
      <use x="257.714844" xlink:href="#DejaVuSans-91"/>
      <use x="296.728516" xlink:href="#DejaVuSans-109"/>
      <use x="394.140625" xlink:href="#DejaVuSans-115"/>
      <use x="446.240234" xlink:href="#DejaVuSans-93"/>
     </g>
    </g>
   </g>
   <g id="matplotlib.axis_2">
    <g id="ytick_1">
     <g id="line2d_6">
      <defs>
       <path d="M 0 0 
L -3.5 0 
" id="m71686a0d4e" style="stroke:#000000;stroke-width:0.8;"/>
      </defs>
      <g>
       <use style="stroke:#000000;stroke-width:0.8;" x="63" xlink:href="#m71686a0d4e" y="348.792271"/>
      </g>
     </g>
     <g id="text_7">
      <!-- −60 -->
      <defs>
       <path d="M 10.59375 35.5 
L 73.1875 35.5 
L 73.1875 27.203125 
L 10.59375 27.203125 
z
" id="DejaVuSans-8722"/>
      </defs>
      <g transform="translate(34.895313 352.59149)scale(0.1 -0.1)">
       <use xlink:href="#DejaVuSans-8722"/>
       <use x="83.789062" xlink:href="#DejaVuSans-54"/>
       <use x="147.412109" xlink:href="#DejaVuSans-48"/>
      </g>
     </g>
    </g>
    <g id="ytick_2">
     <g id="line2d_7">
      <g>
       <use style="stroke:#000000;stroke-width:0.8;" x="63" xlink:href="#m71686a0d4e" y="282.583376"/>
      </g>
     </g>
     <g id="text_8">
      <!-- −40 -->
      <g transform="translate(34.895313 286.382595)scale(0.1 -0.1)">
       <use xlink:href="#DejaVuSans-8722"/>
       <use x="83.789062" xlink:href="#DejaVuSans-52"/>
       <use x="147.412109" xlink:href="#DejaVuSans-48"/>
      </g>
     </g>
    </g>
    <g id="ytick_3">
     <g id="line2d_8">
      <g>
       <use style="stroke:#000000;stroke-width:0.8;" x="63" xlink:href="#m71686a0d4e" y="216.374482"/>
      </g>
     </g>
     <g id="text_9">
      <!-- −20 -->
      <g transform="translate(34.895313 220.173701)scale(0.1 -0.1)">
       <use xlink:href="#DejaVuSans-8722"/>
       <use x="83.789062" xlink:href="#DejaVuSans-50"/>
       <use x="147.412109" xlink:href="#DejaVuSans-48"/>
      </g>
     </g>
    </g>
    <g id="ytick_4">
     <g id="line2d_9">
      <g>
       <use style="stroke:#000000;stroke-width:0.8;" x="63" xlink:href="#m71686a0d4e" y="150.165587"/>
      </g>
     </g>
     <g id="text_10">
      <!-- 0 -->
      <g transform="translate(49.6375 153.964806)scale(0.1 -0.1)">
       <use xlink:href="#DejaVuSans-48"/>
      </g>
     </g>
    </g>
    <g id="ytick_5">
     <g id="line2d_10">
      <g>
       <use style="stroke:#000000;stroke-width:0.8;" x="63" xlink:href="#m71686a0d4e" y="83.956693"/>
      </g>
     </g>
     <g id="text_11">
      <!-- 20 -->
      <g transform="translate(43.275 87.755911)scale(0.1 -0.1)">
       <use xlink:href="#DejaVuSans-50"/>
       <use x="63.623047" xlink:href="#DejaVuSans-48"/>
      </g>
     </g>
    </g>
    <g id="text_12">
     <!-- voltage [V] -->
     <defs>
      <path d="M 2.984375 54.6875 
L 12.5 54.6875 
L 29.59375 8.796875 
L 46.6875 54.6875 
L 56.203125 54.6875 
L 35.6875 0 
L 23.484375 0 
z
" id="DejaVuSans-118"/>
      <path d="M 30.609375 48.390625 
Q 23.390625 48.390625 19.1875 42.75 
Q 14.984375 37.109375 14.984375 27.296875 
Q 14.984375 17.484375 19.15625 11.84375 
Q 23.34375 6.203125 30.609375 6.203125 
Q 37.796875 6.203125 41.984375 11.859375 
Q 46.1875 17.53125 46.1875 27.296875 
Q 46.1875 37.015625 41.984375 42.703125 
Q 37.796875 48.390625 30.609375 48.390625 
z
M 30.609375 56 
Q 42.328125 56 49.015625 48.375 
Q 55.71875 40.765625 55.71875 27.296875 
Q 55.71875 13.875 49.015625 6.21875 
Q 42.328125 -1.421875 30.609375 -1.421875 
Q 18.84375 -1.421875 12.171875 6.21875 
Q 5.515625 13.875 5.515625 27.296875 
Q 5.515625 40.765625 12.171875 48.375 
Q 18.84375 56 30.609375 56 
z
" id="DejaVuSans-111"/>
      <path d="M 9.421875 75.984375 
L 18.40625 75.984375 
L 18.40625 0 
L 9.421875 0 
z
" id="DejaVuSans-108"/>
      <path d="M 34.28125 27.484375 
Q 23.390625 27.484375 19.1875 25 
Q 14.984375 22.515625 14.984375 16.5 
Q 14.984375 11.71875 18.140625 8.90625 
Q 21.296875 6.109375 26.703125 6.109375 
Q 34.1875 6.109375 38.703125 11.40625 
Q 43.21875 16.703125 43.21875 25.484375 
L 43.21875 27.484375 
z
M 52.203125 31.203125 
L 52.203125 0 
L 43.21875 0 
L 43.21875 8.296875 
Q 40.140625 3.328125 35.546875 0.953125 
Q 30.953125 -1.421875 24.3125 -1.421875 
Q 15.921875 -1.421875 10.953125 3.296875 
Q 6 8.015625 6 15.921875 
Q 6 25.140625 12.171875 29.828125 
Q 18.359375 34.515625 30.609375 34.515625 
L 43.21875 34.515625 
L 43.21875 35.40625 
Q 43.21875 41.609375 39.140625 45 
Q 35.0625 48.390625 27.6875 48.390625 
Q 23 48.390625 18.546875 47.265625 
Q 14.109375 46.140625 10.015625 43.890625 
L 10.015625 52.203125 
Q 14.9375 54.109375 19.578125 55.046875 
Q 24.21875 56 28.609375 56 
Q 40.484375 56 46.34375 49.84375 
Q 52.203125 43.703125 52.203125 31.203125 
z
" id="DejaVuSans-97"/>
      <path d="M 45.40625 27.984375 
Q 45.40625 37.75 41.375 43.109375 
Q 37.359375 48.484375 30.078125 48.484375 
Q 22.859375 48.484375 18.828125 43.109375 
Q 14.796875 37.75 14.796875 27.984375 
Q 14.796875 18.265625 18.828125 12.890625 
Q 22.859375 7.515625 30.078125 7.515625 
Q 37.359375 7.515625 41.375 12.890625 
Q 45.40625 18.265625 45.40625 27.984375 
z
M 54.390625 6.78125 
Q 54.390625 -7.171875 48.1875 -13.984375 
Q 42 -20.796875 29.203125 -20.796875 
Q 24.46875 -20.796875 20.265625 -20.09375 
Q 16.0625 -19.390625 12.109375 -17.921875 
L 12.109375 -9.1875 
Q 16.0625 -11.328125 19.921875 -12.34375 
Q 23.78125 -13.375 27.78125 -13.375 
Q 36.625 -13.375 41.015625 -8.765625 
Q 45.40625 -4.15625 45.40625 5.171875 
L 45.40625 9.625 
Q 42.625 4.78125 38.28125 2.390625 
Q 33.9375 0 27.875 0 
Q 17.828125 0 11.671875 7.65625 
Q 5.515625 15.328125 5.515625 27.984375 
Q 5.515625 40.671875 11.671875 48.328125 
Q 17.828125 56 27.875 56 
Q 33.9375 56 38.28125 53.609375 
Q 42.625 51.21875 45.40625 46.390625 
L 45.40625 54.6875 
L 54.390625 54.6875 
z
" id="DejaVuSans-103"/>
      <path d="M 28.609375 0 
L 0.78125 72.90625 
L 11.078125 72.90625 
L 34.1875 11.53125 
L 57.328125 72.90625 
L 67.578125 72.90625 
L 39.796875 0 
z
" id="DejaVuSans-86"/>
     </defs>
     <g transform="translate(28.815625 245.75375)rotate(-90)scale(0.1 -0.1)">
      <use xlink:href="#DejaVuSans-118"/>
      <use x="59.179688" xlink:href="#DejaVuSans-111"/>
      <use x="120.361328" xlink:href="#DejaVuSans-108"/>
      <use x="148.144531" xlink:href="#DejaVuSans-116"/>
      <use x="187.353516" xlink:href="#DejaVuSans-97"/>
      <use x="248.632812" xlink:href="#DejaVuSans-103"/>
      <use x="312.109375" xlink:href="#DejaVuSans-101"/>
      <use x="373.632812" xlink:href="#DejaVuSans-32"/>
      <use x="405.419922" xlink:href="#DejaVuSans-91"/>
      <use x="444.433594" xlink:href="#DejaVuSans-86"/>
      <use x="512.841797" xlink:href="#DejaVuSans-93"/>
     </g>
    </g>
   </g>
   <g id="line2d_11">
    <path clip-path="url(#p5a0474afb7)" d="M 80.754545 365.344487 
L 81.695536 365.356304 
L 85.761327 365.77484 
L 98.580109 367.079564 
L 108.753464 367.871201 
L 119.690264 368.494552 
L 131.958655 368.965134 
L 146.339836 369.286569 
L 151.772727 369.36 
L 151.8615 367.36503 
L 152.234345 359.236153 
L 152.731473 353.546546 
L 153.565936 346.824522 
L 154.9863 337.352627 
L 156.726245 327.261475 
L 158.412927 318.729065 
L 160.028591 311.660851 
L 161.590991 305.814571 
L 163.153391 300.834502 
L 164.840073 296.219404 
L 167.236936 290.391172 
L 168.941373 286.016929 
L 169.793591 283.229502 
L 170.361736 280.63067 
L 170.752336 277.814946 
L 171.036409 273.770248 
L 171.1962 266.639349 
L 171.249464 258.711559 
L 171.622309 73.747219 
L 171.675573 71.436923 
L 171.746591 71.674822 
L 171.906382 84.337243 
L 172.190455 136.333886 
L 172.847373 253.077432 
L 173.220218 287.134051 
L 173.5398 299.347795 
L 173.912645 305.716747 
L 174.303245 309.04913 
L 174.782618 311.231264 
L 175.226482 312.330586 
L 175.6881 312.915017 
L 176.096455 313.106167 
L 176.522564 313.063022 
L 177.019691 312.773837 
L 177.676609 312.098199 
L 178.528827 310.877264 
L 179.771645 308.683252 
L 182.825427 302.674413 
L 185.470855 297.756005 
L 188.151791 293.269522 
L 192.164318 286.61805 
L 193.282855 284.279346 
L 194.064055 282.143915 
L 194.6322 279.929738 
L 195.040555 277.386151 
L 195.324627 273.991959 
L 195.502173 268.119434 
L 195.573191 259.008448 
L 195.626455 231.888491 
L 195.839509 101.848529 
L 196.017055 93.331914 
L 196.034809 93.290937 
L 196.176845 96.980796 
L 196.407655 113.83122 
L 196.744991 161.991633 
L 197.437418 258.291127 
L 197.810264 282.697299 
L 198.200864 294.264658 
L 198.591464 299.826104 
L 199.070836 303.473798 
L 199.550209 305.613552 
L 200.082845 307.087953 
L 200.650991 308.019655 
L 201.219136 308.505875 
L 201.787282 308.671696 
L 202.390936 308.5876 
L 203.083364 308.248568 
L 203.988845 307.528687 
L 205.231664 306.218075 
L 207.237927 303.724547 
L 212.9904 296.448884 
L 217.8729 290.808859 
L 220.429555 287.663215 
L 221.885427 285.531152 
L 222.915191 283.63623 
L 223.660882 281.809472 
L 224.229027 279.809327 
L 224.637382 277.513144 
L 224.9037 274.823209 
L 225.081245 271.115358 
L 225.205527 261.985088 
L 225.241036 248.655836 
L 225.525109 100.658789 
L 225.596127 98.339527 
L 225.667145 98.884105 
L 225.862445 106.702472 
L 226.164273 130.752595 
L 226.679155 198.887531 
L 227.229545 259.856756 
L 227.6379 280.947412 
L 228.046255 291.134991 
L 228.454609 296.43353 
L 228.933982 300.017117 
L 229.502127 302.592519 
L 230.105782 304.308028 
L 230.691682 305.364749 
L 231.313091 306.038482 
L 231.898991 306.368341 
L 232.538155 306.475416 
L 233.266091 306.357354 
L 234.153818 305.963114 
L 235.236845 305.227842 
L 236.781491 303.886806 
L 239.320391 301.349703 
L 247.434218 293.134709 
L 251.446745 289.006277 
L 253.346482 286.73414 
L 254.642564 284.844236 
L 255.601309 283.047029 
L 256.275982 281.333209 
L 256.808618 279.362276 
L 257.181464 277.140997 
L 257.447782 274.179844 
L 257.607573 270.285247 
L 257.696345 263.86371 
L 257.767364 241.002597 
L 257.998173 104.223904 
L 258.122455 99.02285 
L 258.157964 99.623548 
L 258.264491 103.055958 
L 258.566318 123.19136 
L 258.956918 166.98075 
L 259.755873 258.425885 
L 260.181982 280.064707 
L 260.590336 290.069672 
L 261.016445 295.385136 
L 261.495818 298.759657 
L 262.028455 301.070697 
L 262.649864 302.795707 
L 263.271273 303.899408 
L 263.892682 304.585988 
L 264.531845 304.976217 
L 265.206518 305.128678 
L 265.952209 305.064828 
L 266.857691 304.748286 
L 267.993982 304.094403 
L 269.538627 302.921754 
L 271.935491 300.786035 
L 282.694745 290.615271 
L 285.215891 287.965 
L 286.8138 285.977663 
L 287.9856 284.16687 
L 288.820064 282.482623 
L 289.459227 280.699166 
L 289.9386 278.686844 
L 290.293691 276.1426 
L 290.542255 272.312366 
L 290.666536 266.986691 
L 290.737555 253.089015 
L 290.844082 164.97722 
L 291.003873 103.374196 
L 291.128155 99.312318 
L 291.163664 99.83503 
L 291.341209 107.190055 
L 291.643036 130.54228 
L 292.175673 195.613132 
L 292.761573 257.923539 
L 293.152173 278.207813 
L 293.560527 288.993867 
L 294.004391 294.85687 
L 294.483764 298.361898 
L 295.051909 300.862563 
L 295.673318 302.585581 
L 296.276973 303.666378 
L 296.916136 304.383191 
L 297.5553 304.781475 
L 298.247727 304.945969 
L 299.028927 304.88302 
L 299.952164 304.563203 
L 301.141718 303.882564 
L 302.686364 302.721427 
L 305.154245 300.552575 
L 315.469636 290.949781 
L 318.150573 288.205509 
L 319.837255 286.17371 
L 321.062318 284.347214 
L 321.950045 282.62082 
L 322.589209 280.914448 
L 323.068582 279.038318 
L 323.423673 276.790345 
L 323.672236 273.88248 
L 323.849782 268.416801 
L 323.938555 257.686485 
L 323.974064 237.38052 
L 324.204873 104.604997 
L 324.3114 99.09709 
L 324.346909 99.569846 
L 324.453436 102.548464 
L 324.755264 122.366005 
L 325.163618 167.411995 
L 325.962573 257.746272 
L 326.388682 279.469566 
L 326.797036 289.699943 
L 327.2409 295.289657 
L 327.738027 298.74279 
L 328.306173 301.11193 
L 328.927582 302.74762 
L 329.5845 303.839015 
L 330.241418 304.493565 
L 330.880582 304.828506 
L 331.573009 304.941322 
L 332.371964 304.830804 
L 333.2952 304.470987 
L 334.484755 303.757294 
L 336.135927 302.483991 
L 338.852373 300.065533 
L 350.197527 289.446196 
L 352.274809 287.169936 
L 353.677418 285.32393 
L 354.724936 283.587274 
L 355.506136 281.860635 
L 356.092036 280.012762 
L 356.518145 277.919928 
L 356.819973 275.316668 
L 357.015273 271.794095 
L 357.139555 265.461801 
L 357.210573 246.637559 
L 357.476891 102.068703 
L 357.565664 99.25881 
L 357.618927 99.836056 
L 357.778718 106.296822 
L 358.116055 132.579141 
L 358.648691 198.23073 
L 359.216836 258.170071 
L 359.625191 279.202824 
L 360.033545 289.667125 
L 360.459655 295.192293 
L 360.939027 298.642661 
L 361.453909 300.903724 
L 362.057564 302.598117 
L 362.678973 303.715465 
L 363.318136 304.425722 
L 363.975055 304.823917 
L 364.649727 304.974433 
L 364.862782 304.978496 
L 364.969309 307.157101 
L 365.306645 314.356144 
L 365.786018 319.432663 
L 366.460691 324.01206 
L 367.348418 328.506368 
L 368.395936 332.678429 
L 369.532227 336.336493 
L 370.775045 339.630571 
L 372.1599 342.679119 
L 373.633527 345.393862 
L 375.213682 347.849663 
L 376.900364 350.073471 
L 378.746836 352.144146 
L 380.735345 354.04295 
L 382.9014 355.805969 
L 385.280509 357.455155 
L 387.908182 359.003529 
L 390.837682 360.466273 
L 394.069009 361.829169 
L 397.726445 363.125645 
L 401.809991 364.333213 
L 406.426173 365.460738 
L 411.592745 366.488203 
L 417.345218 367.401808 
L 423.772364 368.194212 
L 430.998464 368.856478 
L 435.8277 369.189564 
L 435.8277 369.189564 
" style="fill:none;stroke:#1f77b4;stroke-linecap:square;stroke-width:1.5;"/>
   </g>
   <g id="line2d_12">
    <path clip-path="url(#p5a0474afb7)" d="M 80.754545 365.344495 
L 80.949845 364.562305 
L 81.3582 363.882645 
L 82.032873 363.215065 
L 83.151409 362.445194 
L 84.767073 361.611667 
L 86.755582 360.838973 
L 89.063673 360.184554 
L 91.691345 359.675549 
L 94.691864 359.325851 
L 98.225018 359.145077 
L 102.6459 359.152852 
L 109.197327 359.41115 
L 126.898609 360.186876 
L 137.586845 360.367311 
L 151.772727 360.39279 
L 151.985782 350.370852 
L 152.411891 341.310341 
L 153.068809 332.120539 
L 153.974291 322.581942 
L 154.968545 314.390617 
L 155.945045 308.108187 
L 156.9393 303.124451 
L 157.969064 299.076777 
L 159.0876 295.568022 
L 160.365927 292.288541 
L 162.0171 288.69566 
L 164.591509 283.14646 
L 165.354955 280.880521 
L 165.869836 278.643091 
L 166.224927 276.102237 
L 166.473491 272.627702 
L 166.633282 266.748229 
L 166.722055 251.465839 
L 166.757564 205.360448 
L 166.846336 66.96 
L 166.881845 74.804886 
L 167.4855 301.949156 
L 167.751818 318.374421 
L 168.035891 324.122873 
L 168.355473 326.632694 
L 168.675055 327.688566 
L 168.941373 327.952981 
L 169.154427 327.871777 
L 169.420745 327.486428 
L 169.8291 326.439458 
L 170.468264 324.092773 
L 171.746591 318.347823 
L 173.593064 310.322717 
L 174.871391 305.75806 
L 176.096455 302.18924 
L 177.339273 299.235319 
L 178.670864 296.636075 
L 180.126736 294.277936 
L 181.795664 292.003703 
L 183.819682 289.636508 
L 189.7497 282.966944 
L 190.655182 281.429514 
L 191.3121 279.879218 
L 191.809227 278.117245 
L 192.164318 276.044651 
L 192.430636 273.095949 
L 192.608182 268.310326 
L 192.696955 260.691953 
L 192.750218 237.947672 
L 192.856745 70.780544 
L 192.927764 94.973976 
L 193.353873 272.256872 
L 193.602436 303.775761 
L 193.904264 316.93538 
L 194.223845 322.418221 
L 194.561182 324.852118 
L 194.880764 325.804852 
L 195.129327 326.015348 
L 195.342382 325.935157 
L 195.626455 325.54742 
L 196.052564 324.533724 
L 196.727236 322.279406 
L 198.218618 316.294121 
L 199.940809 309.762388 
L 201.254645 305.637672 
L 202.532973 302.341767 
L 203.846809 299.560474 
L 205.249418 297.108586 
L 206.776309 294.884492 
L 208.4985 292.771105 
L 210.504764 290.666299 
L 213.167945 288.216251 
L 217.429036 284.321444 
L 218.742873 282.787989 
L 219.666109 281.373155 
L 220.340782 279.933105 
L 220.855664 278.291913 
L 221.228509 276.360833 
L 221.512582 273.635506 
L 221.707882 269.241083 
L 221.814409 261.511408 
L 221.867673 243.196946 
L 221.9742 71.309604 
L 222.062973 101.685427 
L 222.471327 271.376848 
L 222.719891 302.93975 
L 223.021718 315.829273 
L 223.359055 321.761565 
L 223.696391 324.304348 
L 224.015973 325.329472 
L 224.282291 325.583166 
L 224.495345 325.512561 
L 224.779418 325.138508 
L 225.205527 324.149289 
L 225.8802 321.943358 
L 227.371582 316.085395 
L 229.093773 309.693184 
L 230.407609 305.653213 
L 231.685936 302.421036 
L 232.999773 299.690377 
L 234.402382 297.28158 
L 235.929273 295.097185 
L 237.651464 293.025168 
L 239.639973 290.987516 
L 242.143364 288.754745 
L 247.718291 283.899198 
L 248.943355 282.456699 
L 249.813327 281.094458 
L 250.452491 279.688643 
L 250.949618 278.040077 
L 251.322464 275.97776 
L 251.588782 273.159574 
L 251.766327 268.710141 
L 251.872855 259.365771 
L 251.926118 228.513551 
L 252.032645 71.673689 
L 252.085909 89.463138 
L 252.547527 278.194341 
L 252.796091 305.100405 
L 253.115673 317.126031 
L 253.453009 322.261232 
L 253.8081 324.58412 
L 254.127682 325.419601 
L 254.376245 325.571021 
L 254.607055 325.435722 
L 254.926636 324.926179 
L 255.406009 323.679253 
L 256.204964 320.880838 
L 259.773627 307.653358 
L 261.051955 304.080244 
L 262.348036 301.107938 
L 263.697382 298.563255 
L 265.153255 296.289185 
L 266.751164 294.203371 
L 268.562127 292.206774 
L 270.710427 290.17828 
L 273.622173 287.759142 
L 277.652455 284.398956 
L 279.072818 282.906766 
L 280.049318 281.567691 
L 280.777255 280.189836 
L 281.327645 278.653222 
L 281.736 276.832947 
L 282.037827 274.434887 
L 282.250882 270.821646 
L 282.375164 265.084356 
L 282.446182 252.00182 
L 282.481691 212.095649 
L 282.570464 71.331065 
L 282.623727 84.847054 
L 283.138609 285.777221 
L 283.404927 308.539398 
L 283.724509 318.53004 
L 284.061845 322.877791 
L 284.416936 324.861424 
L 284.718764 325.512854 
L 284.949573 325.604566 
L 285.180382 325.441404 
L 285.517718 324.864977 
L 286.0326 323.46237 
L 286.902573 320.329084 
L 289.991864 308.729949 
L 291.287945 304.935289 
L 292.566273 301.864331 
L 293.897864 299.237042 
L 295.318227 296.922146 
L 296.880627 294.802133 
L 298.620573 292.81749 
L 300.644591 290.852612 
L 303.183491 288.71334 
L 309.255545 283.734504 
L 310.480609 282.346859 
L 311.350582 281.03008 
L 311.989745 279.669263 
L 312.486873 278.078223 
L 312.859718 276.108948 
L 313.126036 273.489119 
L 313.303582 269.628506 
L 313.410109 263.022689 
L 313.463373 250.600262 
L 313.516636 135.564742 
L 313.587655 71.35399 
L 313.640918 86.31506 
L 314.138045 283.417681 
L 314.386609 306.913429 
L 314.706191 317.917568 
L 315.043527 322.615477 
L 315.398618 324.7538 
L 315.7182 325.500974 
L 315.949009 325.609139 
L 316.179818 325.458331 
L 316.4994 324.932775 
L 316.996527 323.61554 
L 317.813236 320.724356 
L 321.1866 308.163823 
L 322.464927 304.525297 
L 323.743255 301.53948 
L 325.074845 298.983306 
L 326.512964 296.702116 
L 328.093118 294.615977 
L 329.850818 292.66517 
L 331.892591 290.736018 
L 334.467 288.624884 
L 340.592318 283.737576 
L 341.835136 282.370188 
L 342.722864 281.065792 
L 343.379782 279.705761 
L 343.876909 278.162678 
L 344.249755 276.279986 
L 344.533827 273.613839 
L 344.729127 269.339337 
L 344.835655 262.04332 
L 344.888918 246.206389 
L 345.0132 71.935388 
L 345.101973 109.294751 
L 345.492573 270.316146 
L 345.741136 302.972759 
L 346.042964 315.958662 
L 346.3803 321.758139 
L 346.735391 324.360363 
L 347.054973 325.335072 
L 347.321291 325.563176 
L 347.534345 325.477561 
L 347.818418 325.088866 
L 348.262282 324.036604 
L 348.972464 321.681548 
L 350.801182 314.525183 
L 352.328073 309.079634 
L 353.624155 305.253361 
L 354.902482 302.157224 
L 356.216318 299.544697 
L 357.618927 297.241722 
L 359.163573 295.134137 
L 360.868009 293.184764 
L 362.821009 291.291221 
L 364.827273 289.600082 
L 365.040327 299.726279 
L 365.430927 307.656252 
L 365.963564 314.011271 
L 366.673745 319.857989 
L 367.561473 325.360593 
L 368.608991 330.467299 
L 369.763036 335.011996 
L 371.023609 339.093962 
L 372.372955 342.727937 
L 373.811073 345.976333 
L 375.337964 348.884459 
L 376.935873 351.45916 
L 378.622555 353.758374 
L 380.3625 355.758798 
L 382.155709 357.487727 
L 384.019936 358.977579 
L 385.937427 360.225452 
L 387.908182 361.2448 
L 389.967709 362.060871 
L 392.151518 362.685546 
L 394.495118 363.122594 
L 397.087282 363.376116 
L 400.070045 363.437859 
L 403.745236 363.280553 
L 409.178127 362.800747 
L 421.446518 361.675836 
L 428.459564 361.298546 
L 435.845455 361.107699 
L 435.845455 361.107699 
" style="fill:none;stroke:#ff0000;stroke-linecap:square;stroke-width:1.5;"/>
   </g>
   <g id="patch_3">
    <path d="M 63 384.48 
L 63 51.84 
" style="fill:none;stroke:#000000;stroke-linecap:square;stroke-linejoin:miter;stroke-width:0.8;"/>
   </g>
   <g id="patch_4">
    <path d="M 453.6 384.48 
L 453.6 51.84 
" style="fill:none;stroke:#000000;stroke-linecap:square;stroke-linejoin:miter;stroke-width:0.8;"/>
   </g>
   <g id="patch_5">
    <path d="M 63 384.48 
L 453.6 384.48 
" style="fill:none;stroke:#000000;stroke-linecap:square;stroke-linejoin:miter;stroke-width:0.8;"/>
   </g>
   <g id="patch_6">
    <path d="M 63 51.84 
L 453.6 51.84 
" style="fill:none;stroke:#000000;stroke-linecap:square;stroke-linejoin:miter;stroke-width:0.8;"/>
   </g>
   <g id="legend_1">
    <g id="patch_7">
     <path d="M 383.460938 89.19625 
L 446.6 89.19625 
Q 448.6 89.19625 448.6 87.19625 
L 448.6 58.84 
Q 448.6 56.84 446.6 56.84 
L 383.460938 56.84 
Q 381.460938 56.84 381.460938 58.84 
L 381.460938 87.19625 
Q 381.460938 89.19625 383.460938 89.19625 
z
" style="fill:#ffffff;opacity:0.8;stroke:#cccccc;stroke-linejoin:miter;"/>
    </g>
    <g id="line2d_13">
     <path d="M 385.460938 64.938437 
L 405.460938 64.938437 
" style="fill:none;stroke:#1f77b4;stroke-linecap:square;stroke-width:1.5;"/>
    </g>
    <g id="line2d_14"/>
    <g id="text_13">
     <!-- target -->
     <defs>
      <path d="M 41.109375 46.296875 
Q 39.59375 47.171875 37.8125 47.578125 
Q 36.03125 48 33.890625 48 
Q 26.265625 48 22.1875 43.046875 
Q 18.109375 38.09375 18.109375 28.8125 
L 18.109375 0 
L 9.078125 0 
L 9.078125 54.6875 
L 18.109375 54.6875 
L 18.109375 46.1875 
Q 20.953125 51.171875 25.484375 53.578125 
Q 30.03125 56 36.53125 56 
Q 37.453125 56 38.578125 55.875 
Q 39.703125 55.765625 41.0625 55.515625 
z
" id="DejaVuSans-114"/>
     </defs>
     <g transform="translate(413.460938 68.438437)scale(0.1 -0.1)">
      <use xlink:href="#DejaVuSans-116"/>
      <use x="39.208984" xlink:href="#DejaVuSans-97"/>
      <use x="100.488281" xlink:href="#DejaVuSans-114"/>
      <use x="141.585938" xlink:href="#DejaVuSans-103"/>
      <use x="205.0625" xlink:href="#DejaVuSans-101"/>
      <use x="266.585938" xlink:href="#DejaVuSans-116"/>
     </g>
    </g>
    <g id="line2d_15">
     <path d="M 385.460938 79.616562 
L 405.460938 79.616562 
" style="fill:none;stroke:#ff0000;stroke-linecap:square;stroke-width:1.5;"/>
    </g>
    <g id="line2d_16"/>
    <g id="text_14">
     <!-- model -->
     <defs>
      <path d="M 45.40625 46.390625 
L 45.40625 75.984375 
L 54.390625 75.984375 
L 54.390625 0 
L 45.40625 0 
L 45.40625 8.203125 
Q 42.578125 3.328125 38.25 0.953125 
Q 33.9375 -1.421875 27.875 -1.421875 
Q 17.96875 -1.421875 11.734375 6.484375 
Q 5.515625 14.40625 5.515625 27.296875 
Q 5.515625 40.1875 11.734375 48.09375 
Q 17.96875 56 27.875 56 
Q 33.9375 56 38.25 53.625 
Q 42.578125 51.265625 45.40625 46.390625 
z
M 14.796875 27.296875 
Q 14.796875 17.390625 18.875 11.75 
Q 22.953125 6.109375 30.078125 6.109375 
Q 37.203125 6.109375 41.296875 11.75 
Q 45.40625 17.390625 45.40625 27.296875 
Q 45.40625 37.203125 41.296875 42.84375 
Q 37.203125 48.484375 30.078125 48.484375 
Q 22.953125 48.484375 18.875 42.84375 
Q 14.796875 37.203125 14.796875 27.296875 
z
" id="DejaVuSans-100"/>
     </defs>
     <g transform="translate(413.460938 83.116562)scale(0.1 -0.1)">
      <use xlink:href="#DejaVuSans-109"/>
      <use x="97.412109" xlink:href="#DejaVuSans-111"/>
      <use x="158.59375" xlink:href="#DejaVuSans-100"/>
      <use x="222.070312" xlink:href="#DejaVuSans-101"/>
      <use x="283.59375" xlink:href="#DejaVuSans-108"/>
     </g>
    </g>
   </g>
  </g>
 </g>
 <defs>
  <clipPath id="p5a0474afb7">
   <rect height="332.64" width="390.6" x="63" y="51.84"/>
  </clipPath>
 </defs>
</svg>
