<?xml version="1.0" encoding="utf-8" standalone="no"?>
<!DOCTYPE svg PUBLIC "-//W3C//DTD SVG 1.1//EN"
  "http://www.w3.org/Graphics/SVG/1.1/DTD/svg11.dtd">
<!-- Created with matplotlib (http://matplotlib.org/) -->
<svg height="432pt" version="1.1" viewBox="0 0 504 432" width="504pt" xmlns="http://www.w3.org/2000/svg" xmlns:xlink="http://www.w3.org/1999/xlink">
 <defs>
  <style type="text/css">
*{stroke-linecap:butt;stroke-linejoin:round;}
  </style>
 </defs>
 <g id="figure_1">
  <g id="patch_1">
   <path d="M 0 432 
L 504 432 
L 504 0 
L 0 0 
z
" style="fill:#ffffff;"/>
  </g>
  <g id="axes_1">
   <g id="patch_2">
    <path d="M 63 384.48 
L 453.6 384.48 
L 453.6 51.84 
L 63 51.84 
z
" style="fill:#ffffff;"/>
   </g>
   <g id="matplotlib.axis_1">
    <g id="xtick_1">
     <g id="line2d_1">
      <defs>
       <path d="M 0 0 
L 0 3.5 
" id="meef20f6746" style="stroke:#000000;stroke-width:0.8;"/>
      </defs>
      <g>
       <use style="stroke:#000000;stroke-width:0.8;" x="80.754545" xlink:href="#meef20f6746" y="384.48"/>
      </g>
     </g>
     <g id="text_1">
      <!-- 0 -->
      <defs>
       <path d="M 31.78125 66.40625 
Q 24.171875 66.40625 20.328125 58.90625 
Q 16.5 51.421875 16.5 36.375 
Q 16.5 21.390625 20.328125 13.890625 
Q 24.171875 6.390625 31.78125 6.390625 
Q 39.453125 6.390625 43.28125 13.890625 
Q 47.125 21.390625 47.125 36.375 
Q 47.125 51.421875 43.28125 58.90625 
Q 39.453125 66.40625 31.78125 66.40625 
z
M 31.78125 74.21875 
Q 44.046875 74.21875 50.515625 64.515625 
Q 56.984375 54.828125 56.984375 36.375 
Q 56.984375 17.96875 50.515625 8.265625 
Q 44.046875 -1.421875 31.78125 -1.421875 
Q 19.53125 -1.421875 13.0625 8.265625 
Q 6.59375 17.96875 6.59375 36.375 
Q 6.59375 54.828125 13.0625 64.515625 
Q 19.53125 74.21875 31.78125 74.21875 
z
" id="DejaVuSans-30"/>
      </defs>
      <g transform="translate(77.573295 399.078438)scale(0.1 -0.1)">
       <use xlink:href="#DejaVuSans-30"/>
      </g>
     </g>
    </g>
    <g id="xtick_2">
     <g id="line2d_2">
      <g>
       <use style="stroke:#000000;stroke-width:0.8;" x="151.767796" xlink:href="#meef20f6746" y="384.48"/>
      </g>
     </g>
     <g id="text_2">
      <!-- 720 -->
      <defs>
       <path d="M 8.203125 72.90625 
L 55.078125 72.90625 
L 55.078125 68.703125 
L 28.609375 0 
L 18.3125 0 
L 43.21875 64.59375 
L 8.203125 64.59375 
z
" id="DejaVuSans-37"/>
       <path d="M 19.1875 8.296875 
L 53.609375 8.296875 
L 53.609375 0 
L 7.328125 0 
L 7.328125 8.296875 
Q 12.9375 14.109375 22.625 23.890625 
Q 32.328125 33.6875 34.8125 36.53125 
Q 39.546875 41.84375 41.421875 45.53125 
Q 43.3125 49.21875 43.3125 52.78125 
Q 43.3125 58.59375 39.234375 62.25 
Q 35.15625 65.921875 28.609375 65.921875 
Q 23.96875 65.921875 18.8125 64.3125 
Q 13.671875 62.703125 7.8125 59.421875 
L 7.8125 69.390625 
Q 13.765625 71.78125 18.9375 73 
Q 24.125 74.21875 28.421875 74.21875 
Q 39.75 74.21875 46.484375 68.546875 
Q 53.21875 62.890625 53.21875 53.421875 
Q 53.21875 48.921875 51.53125 44.890625 
Q 49.859375 40.875 45.40625 35.40625 
Q 44.1875 33.984375 37.640625 27.21875 
Q 31.109375 20.453125 19.1875 8.296875 
z
" id="DejaVuSans-32"/>
      </defs>
      <g transform="translate(142.224046 399.078438)scale(0.1 -0.1)">
       <use xlink:href="#DejaVuSans-37"/>
       <use x="63.623047" xlink:href="#DejaVuSans-32"/>
       <use x="127.246094" xlink:href="#DejaVuSans-30"/>
      </g>
     </g>
    </g>
    <g id="xtick_3">
     <g id="line2d_3">
      <g>
       <use style="stroke:#000000;stroke-width:0.8;" x="222.781046" xlink:href="#meef20f6746" y="384.48"/>
      </g>
     </g>
     <g id="text_3">
      <!-- 1440 -->
      <defs>
       <path d="M 12.40625 8.296875 
L 28.515625 8.296875 
L 28.515625 63.921875 
L 10.984375 60.40625 
L 10.984375 69.390625 
L 28.421875 72.90625 
L 38.28125 72.90625 
L 38.28125 8.296875 
L 54.390625 8.296875 
L 54.390625 0 
L 12.40625 0 
z
" id="DejaVuSans-31"/>
       <path d="M 37.796875 64.3125 
L 12.890625 25.390625 
L 37.796875 25.390625 
z
M 35.203125 72.90625 
L 47.609375 72.90625 
L 47.609375 25.390625 
L 58.015625 25.390625 
L 58.015625 17.1875 
L 47.609375 17.1875 
L 47.609375 0 
L 37.796875 0 
L 37.796875 17.1875 
L 4.890625 17.1875 
L 4.890625 26.703125 
z
" id="DejaVuSans-34"/>
      </defs>
      <g transform="translate(210.056046 399.078438)scale(0.1 -0.1)">
       <use xlink:href="#DejaVuSans-31"/>
       <use x="63.623047" xlink:href="#DejaVuSans-34"/>
       <use x="127.246094" xlink:href="#DejaVuSans-34"/>
       <use x="190.869141" xlink:href="#DejaVuSans-30"/>
      </g>
     </g>
    </g>
    <g id="xtick_4">
     <g id="line2d_4">
      <g>
       <use style="stroke:#000000;stroke-width:0.8;" x="293.794296" xlink:href="#meef20f6746" y="384.48"/>
      </g>
     </g>
     <g id="text_4">
      <!-- 2160 -->
      <defs>
       <path d="M 33.015625 40.375 
Q 26.375 40.375 22.484375 35.828125 
Q 18.609375 31.296875 18.609375 23.390625 
Q 18.609375 15.53125 22.484375 10.953125 
Q 26.375 6.390625 33.015625 6.390625 
Q 39.65625 6.390625 43.53125 10.953125 
Q 47.40625 15.53125 47.40625 23.390625 
Q 47.40625 31.296875 43.53125 35.828125 
Q 39.65625 40.375 33.015625 40.375 
z
M 52.59375 71.296875 
L 52.59375 62.3125 
Q 48.875 64.0625 45.09375 64.984375 
Q 41.3125 65.921875 37.59375 65.921875 
Q 27.828125 65.921875 22.671875 59.328125 
Q 17.53125 52.734375 16.796875 39.40625 
Q 19.671875 43.65625 24.015625 45.921875 
Q 28.375 48.1875 33.59375 48.1875 
Q 44.578125 48.1875 50.953125 41.515625 
Q 57.328125 34.859375 57.328125 23.390625 
Q 57.328125 12.15625 50.6875 5.359375 
Q 44.046875 -1.421875 33.015625 -1.421875 
Q 20.359375 -1.421875 13.671875 8.265625 
Q 6.984375 17.96875 6.984375 36.375 
Q 6.984375 53.65625 15.1875 63.9375 
Q 23.390625 74.21875 37.203125 74.21875 
Q 40.921875 74.21875 44.703125 73.484375 
Q 48.484375 72.75 52.59375 71.296875 
z
" id="DejaVuSans-36"/>
      </defs>
      <g transform="translate(281.069296 399.078438)scale(0.1 -0.1)">
       <use xlink:href="#DejaVuSans-32"/>
       <use x="63.623047" xlink:href="#DejaVuSans-31"/>
       <use x="127.246094" xlink:href="#DejaVuSans-36"/>
       <use x="190.869141" xlink:href="#DejaVuSans-30"/>
      </g>
     </g>
    </g>
    <g id="xtick_5">
     <g id="line2d_5">
      <g>
       <use style="stroke:#000000;stroke-width:0.8;" x="364.807547" xlink:href="#meef20f6746" y="384.48"/>
      </g>
     </g>
     <g id="text_5">
      <!-- 2880 -->
      <defs>
       <path d="M 31.78125 34.625 
Q 24.75 34.625 20.71875 30.859375 
Q 16.703125 27.09375 16.703125 20.515625 
Q 16.703125 13.921875 20.71875 10.15625 
Q 24.75 6.390625 31.78125 6.390625 
Q 38.8125 6.390625 42.859375 10.171875 
Q 46.921875 13.96875 46.921875 20.515625 
Q 46.921875 27.09375 42.890625 30.859375 
Q 38.875 34.625 31.78125 34.625 
z
M 21.921875 38.8125 
Q 15.578125 40.375 12.03125 44.71875 
Q 8.5 49.078125 8.5 55.328125 
Q 8.5 64.0625 14.71875 69.140625 
Q 20.953125 74.21875 31.78125 74.21875 
Q 42.671875 74.21875 48.875 69.140625 
Q 55.078125 64.0625 55.078125 55.328125 
Q 55.078125 49.078125 51.53125 44.71875 
Q 48 40.375 41.703125 38.8125 
Q 48.828125 37.15625 52.796875 32.3125 
Q 56.78125 27.484375 56.78125 20.515625 
Q 56.78125 9.90625 50.3125 4.234375 
Q 43.84375 -1.421875 31.78125 -1.421875 
Q 19.734375 -1.421875 13.25 4.234375 
Q 6.78125 9.90625 6.78125 20.515625 
Q 6.78125 27.484375 10.78125 32.3125 
Q 14.796875 37.15625 21.921875 38.8125 
z
M 18.3125 54.390625 
Q 18.3125 48.734375 21.84375 45.5625 
Q 25.390625 42.390625 31.78125 42.390625 
Q 38.140625 42.390625 41.71875 45.5625 
Q 45.3125 48.734375 45.3125 54.390625 
Q 45.3125 60.0625 41.71875 63.234375 
Q 38.140625 66.40625 31.78125 66.40625 
Q 25.390625 66.40625 21.84375 63.234375 
Q 18.3125 60.0625 18.3125 54.390625 
z
" id="DejaVuSans-38"/>
      </defs>
      <g transform="translate(352.082547 399.078438)scale(0.1 -0.1)">
       <use xlink:href="#DejaVuSans-32"/>
       <use x="63.623047" xlink:href="#DejaVuSans-38"/>
       <use x="127.246094" xlink:href="#DejaVuSans-38"/>
       <use x="190.869141" xlink:href="#DejaVuSans-30"/>
      </g>
     </g>
    </g>
    <g id="text_6">
     <!-- time [ms] -->
     <defs>
      <path d="M 18.3125 70.21875 
L 18.3125 54.6875 
L 36.8125 54.6875 
L 36.8125 47.703125 
L 18.3125 47.703125 
L 18.3125 18.015625 
Q 18.3125 11.328125 20.140625 9.421875 
Q 21.96875 7.515625 27.59375 7.515625 
L 36.8125 7.515625 
L 36.8125 0 
L 27.59375 0 
Q 17.1875 0 13.234375 3.875 
Q 9.28125 7.765625 9.28125 18.015625 
L 9.28125 47.703125 
L 2.6875 47.703125 
L 2.6875 54.6875 
L 9.28125 54.6875 
L 9.28125 70.21875 
z
" id="DejaVuSans-74"/>
      <path d="M 9.421875 54.6875 
L 18.40625 54.6875 
L 18.40625 0 
L 9.421875 0 
z
M 9.421875 75.984375 
L 18.40625 75.984375 
L 18.40625 64.59375 
L 9.421875 64.59375 
z
" id="DejaVuSans-69"/>
      <path d="M 52 44.1875 
Q 55.375 50.25 60.0625 53.125 
Q 64.75 56 71.09375 56 
Q 79.640625 56 84.28125 50.015625 
Q 88.921875 44.046875 88.921875 33.015625 
L 88.921875 0 
L 79.890625 0 
L 79.890625 32.71875 
Q 79.890625 40.578125 77.09375 44.375 
Q 74.3125 48.1875 68.609375 48.1875 
Q 61.625 48.1875 57.5625 43.546875 
Q 53.515625 38.921875 53.515625 30.90625 
L 53.515625 0 
L 44.484375 0 
L 44.484375 32.71875 
Q 44.484375 40.625 41.703125 44.40625 
Q 38.921875 48.1875 33.109375 48.1875 
Q 26.21875 48.1875 22.15625 43.53125 
Q 18.109375 38.875 18.109375 30.90625 
L 18.109375 0 
L 9.078125 0 
L 9.078125 54.6875 
L 18.109375 54.6875 
L 18.109375 46.1875 
Q 21.1875 51.21875 25.484375 53.609375 
Q 29.78125 56 35.6875 56 
Q 41.65625 56 45.828125 52.96875 
Q 50 49.953125 52 44.1875 
z
" id="DejaVuSans-6d"/>
      <path d="M 56.203125 29.59375 
L 56.203125 25.203125 
L 14.890625 25.203125 
Q 15.484375 15.921875 20.484375 11.0625 
Q 25.484375 6.203125 34.421875 6.203125 
Q 39.59375 6.203125 44.453125 7.46875 
Q 49.3125 8.734375 54.109375 11.28125 
L 54.109375 2.78125 
Q 49.265625 0.734375 44.1875 -0.34375 
Q 39.109375 -1.421875 33.890625 -1.421875 
Q 20.796875 -1.421875 13.15625 6.1875 
Q 5.515625 13.8125 5.515625 26.8125 
Q 5.515625 40.234375 12.765625 48.109375 
Q 20.015625 56 32.328125 56 
Q 43.359375 56 49.78125 48.890625 
Q 56.203125 41.796875 56.203125 29.59375 
z
M 47.21875 32.234375 
Q 47.125 39.59375 43.09375 43.984375 
Q 39.0625 48.390625 32.421875 48.390625 
Q 24.90625 48.390625 20.390625 44.140625 
Q 15.875 39.890625 15.1875 32.171875 
z
" id="DejaVuSans-65"/>
      <path id="DejaVuSans-20"/>
      <path d="M 8.59375 75.984375 
L 29.296875 75.984375 
L 29.296875 69 
L 17.578125 69 
L 17.578125 -6.203125 
L 29.296875 -6.203125 
L 29.296875 -13.1875 
L 8.59375 -13.1875 
z
" id="DejaVuSans-5b"/>
      <path d="M 44.28125 53.078125 
L 44.28125 44.578125 
Q 40.484375 46.53125 36.375 47.5 
Q 32.28125 48.484375 27.875 48.484375 
Q 21.1875 48.484375 17.84375 46.4375 
Q 14.5 44.390625 14.5 40.28125 
Q 14.5 37.15625 16.890625 35.375 
Q 19.28125 33.59375 26.515625 31.984375 
L 29.59375 31.296875 
Q 39.15625 29.25 43.1875 25.515625 
Q 47.21875 21.78125 47.21875 15.09375 
Q 47.21875 7.46875 41.1875 3.015625 
Q 35.15625 -1.421875 24.609375 -1.421875 
Q 20.21875 -1.421875 15.453125 -0.5625 
Q 10.6875 0.296875 5.421875 2 
L 5.421875 11.28125 
Q 10.40625 8.6875 15.234375 7.390625 
Q 20.0625 6.109375 24.8125 6.109375 
Q 31.15625 6.109375 34.5625 8.28125 
Q 37.984375 10.453125 37.984375 14.40625 
Q 37.984375 18.0625 35.515625 20.015625 
Q 33.0625 21.96875 24.703125 23.78125 
L 21.578125 24.515625 
Q 13.234375 26.265625 9.515625 29.90625 
Q 5.8125 33.546875 5.8125 39.890625 
Q 5.8125 47.609375 11.28125 51.796875 
Q 16.75 56 26.8125 56 
Q 31.78125 56 36.171875 55.265625 
Q 40.578125 54.546875 44.28125 53.078125 
z
" id="DejaVuSans-73"/>
      <path d="M 30.421875 75.984375 
L 30.421875 -13.1875 
L 9.71875 -13.1875 
L 9.71875 -6.203125 
L 21.390625 -6.203125 
L 21.390625 69 
L 9.71875 69 
L 9.71875 75.984375 
z
" id="DejaVuSans-5d"/>
     </defs>
     <g transform="translate(234.038281 412.756563)scale(0.1 -0.1)">
      <use xlink:href="#DejaVuSans-74"/>
      <use x="39.208984" xlink:href="#DejaVuSans-69"/>
      <use x="66.992188" xlink:href="#DejaVuSans-6d"/>
      <use x="164.404297" xlink:href="#DejaVuSans-65"/>
      <use x="225.927734" xlink:href="#DejaVuSans-20"/>
      <use x="257.714844" xlink:href="#DejaVuSans-5b"/>
      <use x="296.728516" xlink:href="#DejaVuSans-6d"/>
      <use x="394.140625" xlink:href="#DejaVuSans-73"/>
      <use x="446.240234" xlink:href="#DejaVuSans-5d"/>
     </g>
    </g>
   </g>
   <g id="matplotlib.axis_2">
    <g id="ytick_1">
     <g id="line2d_6">
      <defs>
       <path d="M 0 0 
L -3.5 0 
" id="m0cdfb755fb" style="stroke:#000000;stroke-width:0.8;"/>
      </defs>
      <g>
       <use style="stroke:#000000;stroke-width:0.8;" x="63" xlink:href="#m0cdfb755fb" y="375.67623"/>
      </g>
     </g>
     <g id="text_7">
      <!-- −80 -->
      <defs>
       <path d="M 10.59375 35.5 
L 73.1875 35.5 
L 73.1875 27.203125 
L 10.59375 27.203125 
z
" id="DejaVuSans-2212"/>
      </defs>
      <g transform="translate(34.895313 379.475448)scale(0.1 -0.1)">
       <use xlink:href="#DejaVuSans-2212"/>
       <use x="83.789062" xlink:href="#DejaVuSans-38"/>
       <use x="147.412109" xlink:href="#DejaVuSans-30"/>
      </g>
     </g>
    </g>
    <g id="ytick_2">
     <g id="line2d_7">
      <g>
       <use style="stroke:#000000;stroke-width:0.8;" x="63" xlink:href="#m0cdfb755fb" y="327.425673"/>
      </g>
     </g>
     <g id="text_8">
      <!-- −60 -->
      <g transform="translate(34.895313 331.224891)scale(0.1 -0.1)">
       <use xlink:href="#DejaVuSans-2212"/>
       <use x="83.789062" xlink:href="#DejaVuSans-36"/>
       <use x="147.412109" xlink:href="#DejaVuSans-30"/>
      </g>
     </g>
    </g>
    <g id="ytick_3">
     <g id="line2d_8">
      <g>
       <use style="stroke:#000000;stroke-width:0.8;" x="63" xlink:href="#m0cdfb755fb" y="279.175115"/>
      </g>
     </g>
     <g id="text_9">
      <!-- −40 -->
      <g transform="translate(34.895313 282.974334)scale(0.1 -0.1)">
       <use xlink:href="#DejaVuSans-2212"/>
       <use x="83.789062" xlink:href="#DejaVuSans-34"/>
       <use x="147.412109" xlink:href="#DejaVuSans-30"/>
      </g>
     </g>
    </g>
    <g id="ytick_4">
     <g id="line2d_9">
      <g>
       <use style="stroke:#000000;stroke-width:0.8;" x="63" xlink:href="#m0cdfb755fb" y="230.924558"/>
      </g>
     </g>
     <g id="text_10">
      <!-- −20 -->
      <g transform="translate(34.895313 234.723777)scale(0.1 -0.1)">
       <use xlink:href="#DejaVuSans-2212"/>
       <use x="83.789062" xlink:href="#DejaVuSans-32"/>
       <use x="147.412109" xlink:href="#DejaVuSans-30"/>
      </g>
     </g>
    </g>
    <g id="ytick_5">
     <g id="line2d_10">
      <g>
       <use style="stroke:#000000;stroke-width:0.8;" x="63" xlink:href="#m0cdfb755fb" y="182.674001"/>
      </g>
     </g>
     <g id="text_11">
      <!-- 0 -->
      <g transform="translate(49.6375 186.47322)scale(0.1 -0.1)">
       <use xlink:href="#DejaVuSans-30"/>
      </g>
     </g>
    </g>
    <g id="ytick_6">
     <g id="line2d_11">
      <g>
       <use style="stroke:#000000;stroke-width:0.8;" x="63" xlink:href="#m0cdfb755fb" y="134.423444"/>
      </g>
     </g>
     <g id="text_12">
      <!-- 20 -->
      <g transform="translate(43.275 138.222663)scale(0.1 -0.1)">
       <use xlink:href="#DejaVuSans-32"/>
       <use x="63.623047" xlink:href="#DejaVuSans-30"/>
      </g>
     </g>
    </g>
    <g id="ytick_7">
     <g id="line2d_12">
      <g>
       <use style="stroke:#000000;stroke-width:0.8;" x="63" xlink:href="#m0cdfb755fb" y="86.172887"/>
      </g>
     </g>
     <g id="text_13">
      <!-- 40 -->
      <g transform="translate(43.275 89.972106)scale(0.1 -0.1)">
       <use xlink:href="#DejaVuSans-34"/>
       <use x="63.623047" xlink:href="#DejaVuSans-30"/>
      </g>
     </g>
    </g>
    <g id="text_14">
     <!-- Voltage [mV] -->
     <defs>
      <path d="M 28.609375 0 
L 0.78125 72.90625 
L 11.078125 72.90625 
L 34.1875 11.53125 
L 57.328125 72.90625 
L 67.578125 72.90625 
L 39.796875 0 
z
" id="DejaVuSans-56"/>
      <path d="M 30.609375 48.390625 
Q 23.390625 48.390625 19.1875 42.75 
Q 14.984375 37.109375 14.984375 27.296875 
Q 14.984375 17.484375 19.15625 11.84375 
Q 23.34375 6.203125 30.609375 6.203125 
Q 37.796875 6.203125 41.984375 11.859375 
Q 46.1875 17.53125 46.1875 27.296875 
Q 46.1875 37.015625 41.984375 42.703125 
Q 37.796875 48.390625 30.609375 48.390625 
z
M 30.609375 56 
Q 42.328125 56 49.015625 48.375 
Q 55.71875 40.765625 55.71875 27.296875 
Q 55.71875 13.875 49.015625 6.21875 
Q 42.328125 -1.421875 30.609375 -1.421875 
Q 18.84375 -1.421875 12.171875 6.21875 
Q 5.515625 13.875 5.515625 27.296875 
Q 5.515625 40.765625 12.171875 48.375 
Q 18.84375 56 30.609375 56 
z
" id="DejaVuSans-6f"/>
      <path d="M 9.421875 75.984375 
L 18.40625 75.984375 
L 18.40625 0 
L 9.421875 0 
z
" id="DejaVuSans-6c"/>
      <path d="M 34.28125 27.484375 
Q 23.390625 27.484375 19.1875 25 
Q 14.984375 22.515625 14.984375 16.5 
Q 14.984375 11.71875 18.140625 8.90625 
Q 21.296875 6.109375 26.703125 6.109375 
Q 34.1875 6.109375 38.703125 11.40625 
Q 43.21875 16.703125 43.21875 25.484375 
L 43.21875 27.484375 
z
M 52.203125 31.203125 
L 52.203125 0 
L 43.21875 0 
L 43.21875 8.296875 
Q 40.140625 3.328125 35.546875 0.953125 
Q 30.953125 -1.421875 24.3125 -1.421875 
Q 15.921875 -1.421875 10.953125 3.296875 
Q 6 8.015625 6 15.921875 
Q 6 25.140625 12.171875 29.828125 
Q 18.359375 34.515625 30.609375 34.515625 
L 43.21875 34.515625 
L 43.21875 35.40625 
Q 43.21875 41.609375 39.140625 45 
Q 35.0625 48.390625 27.6875 48.390625 
Q 23 48.390625 18.546875 47.265625 
Q 14.109375 46.140625 10.015625 43.890625 
L 10.015625 52.203125 
Q 14.9375 54.109375 19.578125 55.046875 
Q 24.21875 56 28.609375 56 
Q 40.484375 56 46.34375 49.84375 
Q 52.203125 43.703125 52.203125 31.203125 
z
" id="DejaVuSans-61"/>
      <path d="M 45.40625 27.984375 
Q 45.40625 37.75 41.375 43.109375 
Q 37.359375 48.484375 30.078125 48.484375 
Q 22.859375 48.484375 18.828125 43.109375 
Q 14.796875 37.75 14.796875 27.984375 
Q 14.796875 18.265625 18.828125 12.890625 
Q 22.859375 7.515625 30.078125 7.515625 
Q 37.359375 7.515625 41.375 12.890625 
Q 45.40625 18.265625 45.40625 27.984375 
z
M 54.390625 6.78125 
Q 54.390625 -7.171875 48.1875 -13.984375 
Q 42 -20.796875 29.203125 -20.796875 
Q 24.46875 -20.796875 20.265625 -20.09375 
Q 16.0625 -19.390625 12.109375 -17.921875 
L 12.109375 -9.1875 
Q 16.0625 -11.328125 19.921875 -12.34375 
Q 23.78125 -13.375 27.78125 -13.375 
Q 36.625 -13.375 41.015625 -8.765625 
Q 45.40625 -4.15625 45.40625 5.171875 
L 45.40625 9.625 
Q 42.625 4.78125 38.28125 2.390625 
Q 33.9375 0 27.875 0 
Q 17.828125 0 11.671875 7.65625 
Q 5.515625 15.328125 5.515625 27.984375 
Q 5.515625 40.671875 11.671875 48.328125 
Q 17.828125 56 27.875 56 
Q 33.9375 56 38.28125 53.609375 
Q 42.625 51.21875 45.40625 46.390625 
L 45.40625 54.6875 
L 54.390625 54.6875 
z
" id="DejaVuSans-67"/>
     </defs>
     <g transform="translate(28.815625 251.079531)rotate(-90)scale(0.1 -0.1)">
      <use xlink:href="#DejaVuSans-56"/>
      <use x="68.298828" xlink:href="#DejaVuSans-6f"/>
      <use x="129.480469" xlink:href="#DejaVuSans-6c"/>
      <use x="157.263672" xlink:href="#DejaVuSans-74"/>
      <use x="196.472656" xlink:href="#DejaVuSans-61"/>
      <use x="257.751953" xlink:href="#DejaVuSans-67"/>
      <use x="321.228516" xlink:href="#DejaVuSans-65"/>
      <use x="382.751953" xlink:href="#DejaVuSans-20"/>
      <use x="414.539062" xlink:href="#DejaVuSans-5b"/>
      <use x="453.552734" xlink:href="#DejaVuSans-6d"/>
      <use x="550.964844" xlink:href="#DejaVuSans-56"/>
      <use x="619.373047" xlink:href="#DejaVuSans-5d"/>
     </g>
    </g>
   </g>
   <g id="line2d_13">
    <path clip-path="url(#pe3d5880ef7)" d="M 80.754545 339.488312 
L 81.173721 338.326682 
L 81.735909 337.046307 
L 82.23892 336.424305 
L 82.791245 336.087582 
L 83.501377 335.926822 
L 84.684932 335.919265 
L 94.325967 336.27561 
L 100.480448 336.316371 
L 100.633324 350.144162 
L 100.95387 359.122391 
L 101.363182 364.998045 
L 101.762632 367.915051 
L 102.112767 369.062698 
L 102.388929 369.350661 
L 102.620709 369.304095 
L 102.92646 368.975649 
L 103.483717 367.979644 
L 104.834941 365.536197 
L 105.609183 364.6247 
L 106.388356 364.043611 
L 107.27109 363.666806 
L 108.40533 363.437301 
L 110.225044 363.324606 
L 116.251308 363.290811 
L 130.069303 363.27468 
L 130.222178 349.440197 
L 130.542724 340.380974 
L 130.956968 334.38334 
L 131.371212 331.272096 
L 131.760799 329.83421 
L 132.101071 329.310734 
L 132.392028 329.219381 
L 132.707642 329.36608 
L 133.181064 329.868468 
L 134.596397 331.865574 
L 135.710911 333.167721 
L 136.781041 334.079423 
L 137.935006 334.770104 
L 139.271436 335.3058 
L 139.932254 335.496745 
L 139.937186 339.488312 
L 140.045678 339.241981 
L 141.086219 336.793841 
L 141.599093 336.286089 
L 142.19087 336.015423 
L 143.004563 335.905839 
L 144.59743 335.962584 
L 150.189724 336.219484 
L 158.795149 336.313171 
L 159.663088 336.316371 
L 159.815964 333.534125 
L 160.141442 331.661636 
L 160.565548 330.401602 
L 161.014313 329.710707 
L 161.487734 329.370385 
L 162.049923 329.245459 
L 162.878411 329.314351 
L 168.973715 330.259869 
L 173.032319 330.440202 
L 180.92268 330.52885 
L 189.251943 330.54328 
L 189.404818 333.333726 
L 189.720433 335.137305 
L 190.134677 336.324963 
L 190.573578 336.960026 
L 191.051931 337.277027 
L 191.64864 337.396797 
L 192.595483 337.330829 
L 198.478734 336.60631 
L 199.114894 336.569084 
L 199.119826 339.488312 
L 199.228318 339.241981 
L 200.268859 336.793841 
L 200.781733 336.286089 
L 201.37351 336.015423 
L 202.187204 335.905839 
L 203.78007 335.962584 
L 209.372364 336.219484 
L 217.977789 336.313171 
L 218.845729 336.316371 
L 218.998604 330.738173 
L 219.329013 326.840821 
L 219.782709 323.922497 
L 220.275856 322.088338 
L 220.764073 321.050813 
L 221.207905 320.576465 
L 221.597492 320.458549 
L 221.996942 320.575466 
L 222.529541 320.991968 
L 225.088977 323.310197 
L 226.16897 323.819967 
L 227.515263 324.199326 
L 229.399087 324.482871 
L 232.357972 324.681247 
L 237.861499 324.794265 
L 248.434583 324.827123 
L 248.59239 330.5832 
L 248.908004 334.19488 
L 249.307454 336.454641 
L 249.721698 337.640198 
L 250.135942 338.212707 
L 250.574843 338.456704 
L 251.112374 338.490894 
L 251.975382 338.291049 
L 255.87618 337.193998 
L 258.297534 336.832665 
L 258.302466 339.488312 
L 258.410958 339.241981 
L 259.4515 336.793841 
L 259.964373 336.286089 
L 260.55615 336.015423 
L 261.369844 335.905839 
L 262.96271 335.962584 
L 268.555004 336.219484 
L 277.160429 336.313171 
L 278.028369 336.316371 
L 278.181244 327.922243 
L 278.531379 321.418037 
L 278.920966 314.266942 
L 278.955486 306.334441 
L 278.994938 67.211693 
L 279.098499 170.239564 
L 279.33521 349.551475 
L 279.389456 349.819823 
L 279.448634 349.614391 
L 279.611372 347.880901 
L 280.015753 340.634866 
L 280.765338 327.961251 
L 281.27328 322.981425 
L 281.791085 319.962036 
L 282.358204 317.916305 
L 283.083131 316.155087 
L 283.758743 314.430158 
L 283.956002 313.198655 
L 284.039838 311.220138 
L 284.064495 305.354093 
L 284.108878 68.176505 
L 284.212439 177.85084 
L 284.44915 349.005783 
L 284.513259 349.344558 
L 284.572437 349.151855 
L 284.735176 347.517386 
L 285.154351 340.451441 
L 285.839826 329.941424 
L 286.328042 325.667492 
L 286.806395 323.285727 
L 287.299543 321.87885 
L 287.832142 320.99862 
L 288.433782 320.424608 
L 289.178435 320.028747 
L 290.204182 319.750742 
L 291.846364 319.559887 
L 294.987714 319.452236 
L 304.73231 319.433638 
L 307.617223 319.428061 
L 307.77503 328.198818 
L 308.080782 333.485928 
L 308.470368 336.734811 
L 308.869818 338.397096 
L 309.264336 339.192755 
L 309.658854 339.529841 
L 310.092824 339.610416 
L 310.694464 339.472914 
L 311.966785 338.891967 
L 314.038004 338.016112 
L 315.951417 337.462314 
L 317.480174 337.157759 
L 317.485106 339.488312 
L 317.593598 339.241981 
L 318.63414 336.793841 
L 319.147013 336.286089 
L 319.73879 336.015423 
L 320.552484 335.905839 
L 322.14535 335.962584 
L 327.737644 336.219484 
L 336.343069 336.313171 
L 337.211009 336.316371 
L 337.363884 325.075501 
L 337.74854 308.959549 
L 337.778128 109.735766 
L 337.792923 66.996554 
L 337.881689 152.794068 
L 338.128263 347.865209 
L 338.167715 348.022074 
L 338.226893 347.758665 
L 338.399494 345.531384 
L 338.838396 336.317179 
L 339.578117 321.970355 
L 340.278387 310.191223 
L 340.298113 305.215014 
L 340.342496 68.327877 
L 340.450988 190.097338 
L 340.672905 348.717944 
L 340.712356 348.868334 
L 340.771534 348.613792 
L 340.944136 346.459763 
L 341.383037 337.536584 
L 342.088238 324.415193 
L 342.620838 318.538564 
L 343.459188 310.331893 
L 343.493709 306.706822 
L 343.518366 221.890854 
L 343.543024 69.347908 
L 343.63179 164.330065 
L 343.873432 347.478264 
L 343.922747 347.729309 
L 343.981925 347.507208 
L 344.144664 345.622926 
L 344.56877 337.494705 
L 345.259177 325.441155 
L 345.762188 320.353101 
L 346.294787 317.111484 
L 347.083823 313.839555 
L 347.433958 311.897471 
L 347.557245 309.91771 
L 347.591765 306.677771 
L 347.616422 232.023137 
L 347.64108 70.267142 
L 347.729846 161.687945 
L 347.971489 346.501668 
L 348.035598 346.884816 
L 348.089844 346.691153 
L 348.247651 344.970241 
L 348.661895 337.37619 
L 349.34737 325.954869 
L 349.845449 321.197723 
L 350.353391 318.349002 
L 350.930374 316.342506 
L 351.748999 314.363274 
L 352.380228 312.666174 
L 352.607076 311.375782 
L 352.710637 309.328226 
L 352.740226 301.700528 
L 352.784609 70.576203 
L 352.883239 177.600089 
L 353.115018 346.012039 
L 353.179127 346.432369 
L 353.238305 346.2398 
L 353.396112 344.55461 
L 353.815287 337.028303 
L 354.485968 326.173725 
L 354.979116 321.58198 
L 355.482126 318.841909 
L 356.039383 316.984866 
L 356.72979 315.459342 
L 358.164849 312.517358 
L 358.376902 311.33126 
L 358.475532 309.423294 
L 358.505121 303.670614 
L 358.554436 71.069678 
L 358.653065 181.959806 
L 358.884844 345.792716 
L 358.948954 346.200814 
L 359.008131 346.011947 
L 359.165939 344.348327 
L 359.585114 336.904496 
L 360.255795 326.201249 
L 360.748942 321.679239 
L 361.251953 318.984268 
L 361.80921 317.164984 
L 362.489753 315.704898 
L 364.205907 312.368487 
L 364.398234 311.157141 
L 364.487001 308.943329 
L 364.506727 304.800106 
L 364.556042 71.076501 
L 364.669466 200.296892 
L 364.881519 345.570077 
L 364.955491 346.093539 
L 365.009737 345.922205 
L 365.162613 344.359676 
L 365.562063 337.371587 
L 366.252469 326.296279 
L 366.745617 321.761351 
L 366.799863 321.396492 
L 366.952739 331.454698 
L 367.233833 336.199549 
L 367.598762 338.961794 
L 367.978486 340.315269 
L 368.348346 340.899786 
L 368.713276 341.094119 
L 369.137383 341.061044 
L 369.783406 340.758217 
L 374.113242 338.325886 
L 375.972408 337.710703 
L 376.662814 337.534806 
L 376.667746 339.488312 
L 376.776238 339.241981 
L 377.81678 336.793841 
L 378.329653 336.286089 
L 378.92143 336.015423 
L 379.735124 335.905839 
L 381.32799 335.962584 
L 386.920284 336.219484 
L 395.525709 336.313171 
L 396.393649 336.316371 
L 396.551456 321.944249 
L 396.763509 308.780995 
L 396.788167 200.225069 
L 396.807893 66.96 
L 396.901591 159.571694 
L 397.143233 346.249208 
L 397.16789 346.314163 
L 397.217205 346.081158 
L 397.379944 343.78433 
L 397.794188 334.13904 
L 398.824866 306.099221 
L 398.849524 206.63973 
L 398.86925 68.634559 
L 398.958016 162.719859 
L 399.199658 348.098599 
L 399.219384 348.136744 
L 399.263768 347.944498 
L 399.416643 345.923731 
L 399.80623 337.238663 
L 400.659375 318.512423 
L 401.132797 308.652812 
L 401.157454 300.202713 
L 401.201838 69.665558 
L 401.295536 178.075062 
L 401.527315 347.097178 
L 401.551972 347.176536 
L 401.606219 346.946794 
L 401.768957 344.777551 
L 402.188133 335.569548 
L 402.932786 320.264305 
L 403.672507 307.437902 
L 403.687301 302.086342 
L 403.731685 70.261245 
L 403.830314 182.435813 
L 404.062094 346.298792 
L 404.091682 346.40368 
L 404.15086 346.14635 
L 404.31853 343.922681 
L 404.762363 334.372707 
L 405.447838 321.062075 
L 406.049478 313.861222 
L 406.350298 309.502279 
L 406.399613 305.906868 
L 406.419339 260.602374 
L 406.453859 70.904141 
L 406.547557 178.928318 
L 406.779337 345.719106 
L 406.818788 345.888039 
L 406.877966 345.629018 
L 407.045636 343.450204 
L 407.494401 334.005848 
L 408.16015 321.523655 
L 408.717407 315.22117 
L 409.215486 309.546401 
L 409.274663 305.021874 
L 409.299321 218.647056 
L 409.323978 71.199103 
L 409.412745 168.921396 
L 409.649456 345.30206 
L 409.693839 345.52737 
L 409.753017 345.283358 
L 409.920687 343.153784 
L 410.369451 333.871048 
L 411.030269 321.75638 
L 411.572731 315.816229 
L 412.199028 309.30803 
L 412.253275 304.53836 
L 412.277932 207.622924 
L 412.302589 71.373265 
L 412.391356 170.240326 
L 412.628067 345.069049 
L 412.67245 345.3053 
L 412.736559 345.040613 
L 412.909161 342.825814 
L 413.382583 333.063701 
L 414.018743 321.731288 
L 414.556274 316.012705 
L 415.241749 309.308659 
L 415.295995 305.053634 
L 415.320653 221.490569 
L 415.34531 71.657234 
L 415.434077 168.240271 
L 415.670787 344.875791 
L 415.720102 345.145416 
L 415.77928 344.906414 
L 415.94695 342.81738 
L 416.395714 333.695104 
L 417.051601 321.946516 
L 417.5842 316.287141 
L 418.333784 309.066844 
L 418.378168 305.671619 
L 418.397893 259.585463 
L 418.432414 71.63757 
L 418.526112 178.584422 
L 418.757891 344.804828 
L 418.807206 345.052416 
L 418.866384 344.804717 
L 419.034054 342.71406 
L 419.48775 333.517402 
L 420.133773 322.019525 
L 420.661441 316.43062 
L 421.445545 308.982025 
L 421.489929 304.852901 
L 421.514586 216.275677 
L 421.539243 71.738327 
L 421.62801 169.009772 
L 421.864721 344.71455 
L 421.914036 344.990088 
L 421.973213 344.760477 
L 422.135952 342.777127 
L 422.569922 334.069867 
L 423.235671 322.127422 
L 423.763339 316.523532 
L 424.56717 308.895274 
L 424.611553 303.341518 
L 424.660868 71.740344 
L 424.76936 198.721577 
L 424.981414 344.625188 
L 425.03566 344.942954 
L 425.094837 344.702758 
L 425.262508 342.631116 
L 425.716203 333.481774 
L 425.982503 328.107441 
L 425.987435 329.519046 
L 426.145242 338.579127 
L 426.386884 341.076941 
L 426.692636 342.173895 
L 427.013182 342.59316 
L 427.34359 342.68519 
L 427.767697 342.553272 
L 428.47783 342.060152 
L 431.722741 339.586808 
L 433.364922 338.7126 
L 435.155048 338.014248 
L 435.845455 337.80226 
L 435.845455 337.80226 
" style="fill:none;stroke:#ff0000;stroke-linecap:square;stroke-width:1.5;"/>
   </g>
   <g id="patch_3">
    <path d="M 63 384.48 
L 63 51.84 
" style="fill:none;stroke:#000000;stroke-linecap:square;stroke-linejoin:miter;stroke-width:0.8;"/>
   </g>
   <g id="patch_4">
    <path d="M 453.6 384.48 
L 453.6 51.84 
" style="fill:none;stroke:#000000;stroke-linecap:square;stroke-linejoin:miter;stroke-width:0.8;"/>
   </g>
   <g id="patch_5">
    <path d="M 63 384.48 
L 453.6 384.48 
" style="fill:none;stroke:#000000;stroke-linecap:square;stroke-linejoin:miter;stroke-width:0.8;"/>
   </g>
   <g id="patch_6">
    <path d="M 63 51.84 
L 453.6 51.84 
" style="fill:none;stroke:#000000;stroke-linecap:square;stroke-linejoin:miter;stroke-width:0.8;"/>
   </g>
   <g id="legend_1">
    <g id="patch_7">
     <path d="M 70 74.518125 
L 133.139062 74.518125 
Q 135.139062 74.518125 135.139062 72.518125 
L 135.139062 58.84 
Q 135.139062 56.84 133.139062 56.84 
L 70 56.84 
Q 68 56.84 68 58.84 
L 68 72.518125 
Q 68 74.518125 70 74.518125 
z
" style="fill:#ffffff;opacity:0.8;stroke:#cccccc;stroke-linejoin:miter;"/>
    </g>
    <g id="line2d_14">
     <path d="M 72 64.938438 
L 92 64.938438 
" style="fill:none;stroke:#ff0000;stroke-linecap:square;stroke-width:1.5;"/>
    </g>
    <g id="line2d_15"/>
    <g id="text_15">
     <!-- model -->
     <defs>
      <path d="M 45.40625 46.390625 
L 45.40625 75.984375 
L 54.390625 75.984375 
L 54.390625 0 
L 45.40625 0 
L 45.40625 8.203125 
Q 42.578125 3.328125 38.25 0.953125 
Q 33.9375 -1.421875 27.875 -1.421875 
Q 17.96875 -1.421875 11.734375 6.484375 
Q 5.515625 14.40625 5.515625 27.296875 
Q 5.515625 40.1875 11.734375 48.09375 
Q 17.96875 56 27.875 56 
Q 33.9375 56 38.25 53.625 
Q 42.578125 51.265625 45.40625 46.390625 
z
M 14.796875 27.296875 
Q 14.796875 17.390625 18.875 11.75 
Q 22.953125 6.109375 30.078125 6.109375 
Q 37.203125 6.109375 41.296875 11.75 
Q 45.40625 17.390625 45.40625 27.296875 
Q 45.40625 37.203125 41.296875 42.84375 
Q 37.203125 48.484375 30.078125 48.484375 
Q 22.953125 48.484375 18.875 42.84375 
Q 14.796875 37.203125 14.796875 27.296875 
z
" id="DejaVuSans-64"/>
     </defs>
     <g transform="translate(100 68.438438)scale(0.1 -0.1)">
      <use xlink:href="#DejaVuSans-6d"/>
      <use x="97.412109" xlink:href="#DejaVuSans-6f"/>
      <use x="158.59375" xlink:href="#DejaVuSans-64"/>
      <use x="222.070312" xlink:href="#DejaVuSans-65"/>
      <use x="283.59375" xlink:href="#DejaVuSans-6c"/>
     </g>
    </g>
   </g>
  </g>
 </g>
 <defs>
  <clipPath id="pe3d5880ef7">
   <rect height="332.64" width="390.6" x="63" y="51.84"/>
  </clipPath>
 </defs>
</svg>
