<?xml version="1.0" encoding="utf-8" standalone="no"?>
<!DOCTYPE svg PUBLIC "-//W3C//DTD SVG 1.1//EN"
  "http://www.w3.org/Graphics/SVG/1.1/DTD/svg11.dtd">
<!-- Created with matplotlib (https://matplotlib.org/) -->
<svg height="432pt" version="1.1" viewBox="0 0 504 432" width="504pt" xmlns="http://www.w3.org/2000/svg" xmlns:xlink="http://www.w3.org/1999/xlink">
 <metadata>
  <rdf:RDF xmlns:cc="http://creativecommons.org/ns#" xmlns:dc="http://purl.org/dc/elements/1.1/" xmlns:rdf="http://www.w3.org/1999/02/22-rdf-syntax-ns#">
   <cc:Work>
    <dc:type rdf:resource="http://purl.org/dc/dcmitype/StillImage"/>
    <dc:date>2021-02-09T02:12:29.435908</dc:date>
    <dc:format>image/svg+xml</dc:format>
    <dc:creator>
     <cc:Agent>
      <dc:title>Matplotlib v3.3.2, https://matplotlib.org/</dc:title>
     </cc:Agent>
    </dc:creator>
   </cc:Work>
  </rdf:RDF>
 </metadata>
 <defs>
  <style type="text/css">*{stroke-linecap:butt;stroke-linejoin:round;}</style>
 </defs>
 <g id="figure_1">
  <g id="patch_1">
   <path d="M 0 432 
L 504 432 
L 504 0 
L 0 0 
z
" style="fill:#ffffff;"/>
  </g>
  <g id="axes_1">
   <g id="patch_2">
    <path d="M 63 384.48 
L 453.6 384.48 
L 453.6 51.84 
L 63 51.84 
z
" style="fill:#ffffff;"/>
   </g>
   <g id="matplotlib.axis_1">
    <g id="xtick_1">
     <g id="line2d_1">
      <defs>
       <path d="M 0 0 
L 0 3.5 
" id="m6971bb0bc9" style="stroke:#000000;stroke-width:0.8;"/>
      </defs>
      <g>
       <use style="stroke:#000000;stroke-width:0.8;" x="80.754545" xlink:href="#m6971bb0bc9" y="384.48"/>
      </g>
     </g>
     <g id="text_1">
      <!-- 0 -->
      <g transform="translate(77.573295 399.078438)scale(0.1 -0.1)">
       <defs>
        <path d="M 31.78125 66.40625 
Q 24.171875 66.40625 20.328125 58.90625 
Q 16.5 51.421875 16.5 36.375 
Q 16.5 21.390625 20.328125 13.890625 
Q 24.171875 6.390625 31.78125 6.390625 
Q 39.453125 6.390625 43.28125 13.890625 
Q 47.125 21.390625 47.125 36.375 
Q 47.125 51.421875 43.28125 58.90625 
Q 39.453125 66.40625 31.78125 66.40625 
z
M 31.78125 74.21875 
Q 44.046875 74.21875 50.515625 64.515625 
Q 56.984375 54.828125 56.984375 36.375 
Q 56.984375 17.96875 50.515625 8.265625 
Q 44.046875 -1.421875 31.78125 -1.421875 
Q 19.53125 -1.421875 13.0625 8.265625 
Q 6.59375 17.96875 6.59375 36.375 
Q 6.59375 54.828125 13.0625 64.515625 
Q 19.53125 74.21875 31.78125 74.21875 
z
" id="DejaVuSans-48"/>
       </defs>
       <use xlink:href="#DejaVuSans-48"/>
      </g>
     </g>
    </g>
    <g id="xtick_2">
     <g id="line2d_2">
      <g>
       <use style="stroke:#000000;stroke-width:0.8;" x="151.772727" xlink:href="#m6971bb0bc9" y="384.48"/>
      </g>
     </g>
     <g id="text_2">
      <!-- 200 -->
      <g transform="translate(142.228977 399.078438)scale(0.1 -0.1)">
       <defs>
        <path d="M 19.1875 8.296875 
L 53.609375 8.296875 
L 53.609375 0 
L 7.328125 0 
L 7.328125 8.296875 
Q 12.9375 14.109375 22.625 23.890625 
Q 32.328125 33.6875 34.8125 36.53125 
Q 39.546875 41.84375 41.421875 45.53125 
Q 43.3125 49.21875 43.3125 52.78125 
Q 43.3125 58.59375 39.234375 62.25 
Q 35.15625 65.921875 28.609375 65.921875 
Q 23.96875 65.921875 18.8125 64.3125 
Q 13.671875 62.703125 7.8125 59.421875 
L 7.8125 69.390625 
Q 13.765625 71.78125 18.9375 73 
Q 24.125 74.21875 28.421875 74.21875 
Q 39.75 74.21875 46.484375 68.546875 
Q 53.21875 62.890625 53.21875 53.421875 
Q 53.21875 48.921875 51.53125 44.890625 
Q 49.859375 40.875 45.40625 35.40625 
Q 44.1875 33.984375 37.640625 27.21875 
Q 31.109375 20.453125 19.1875 8.296875 
z
" id="DejaVuSans-50"/>
       </defs>
       <use xlink:href="#DejaVuSans-50"/>
       <use x="63.623047" xlink:href="#DejaVuSans-48"/>
       <use x="127.246094" xlink:href="#DejaVuSans-48"/>
      </g>
     </g>
    </g>
    <g id="xtick_3">
     <g id="line2d_3">
      <g>
       <use style="stroke:#000000;stroke-width:0.8;" x="222.790909" xlink:href="#m6971bb0bc9" y="384.48"/>
      </g>
     </g>
     <g id="text_3">
      <!-- 400 -->
      <g transform="translate(213.247159 399.078438)scale(0.1 -0.1)">
       <defs>
        <path d="M 37.796875 64.3125 
L 12.890625 25.390625 
L 37.796875 25.390625 
z
M 35.203125 72.90625 
L 47.609375 72.90625 
L 47.609375 25.390625 
L 58.015625 25.390625 
L 58.015625 17.1875 
L 47.609375 17.1875 
L 47.609375 0 
L 37.796875 0 
L 37.796875 17.1875 
L 4.890625 17.1875 
L 4.890625 26.703125 
z
" id="DejaVuSans-52"/>
       </defs>
       <use xlink:href="#DejaVuSans-52"/>
       <use x="63.623047" xlink:href="#DejaVuSans-48"/>
       <use x="127.246094" xlink:href="#DejaVuSans-48"/>
      </g>
     </g>
    </g>
    <g id="xtick_4">
     <g id="line2d_4">
      <g>
       <use style="stroke:#000000;stroke-width:0.8;" x="293.809091" xlink:href="#m6971bb0bc9" y="384.48"/>
      </g>
     </g>
     <g id="text_4">
      <!-- 600 -->
      <g transform="translate(284.265341 399.078438)scale(0.1 -0.1)">
       <defs>
        <path d="M 33.015625 40.375 
Q 26.375 40.375 22.484375 35.828125 
Q 18.609375 31.296875 18.609375 23.390625 
Q 18.609375 15.53125 22.484375 10.953125 
Q 26.375 6.390625 33.015625 6.390625 
Q 39.65625 6.390625 43.53125 10.953125 
Q 47.40625 15.53125 47.40625 23.390625 
Q 47.40625 31.296875 43.53125 35.828125 
Q 39.65625 40.375 33.015625 40.375 
z
M 52.59375 71.296875 
L 52.59375 62.3125 
Q 48.875 64.0625 45.09375 64.984375 
Q 41.3125 65.921875 37.59375 65.921875 
Q 27.828125 65.921875 22.671875 59.328125 
Q 17.53125 52.734375 16.796875 39.40625 
Q 19.671875 43.65625 24.015625 45.921875 
Q 28.375 48.1875 33.59375 48.1875 
Q 44.578125 48.1875 50.953125 41.515625 
Q 57.328125 34.859375 57.328125 23.390625 
Q 57.328125 12.15625 50.6875 5.359375 
Q 44.046875 -1.421875 33.015625 -1.421875 
Q 20.359375 -1.421875 13.671875 8.265625 
Q 6.984375 17.96875 6.984375 36.375 
Q 6.984375 53.65625 15.1875 63.9375 
Q 23.390625 74.21875 37.203125 74.21875 
Q 40.921875 74.21875 44.703125 73.484375 
Q 48.484375 72.75 52.59375 71.296875 
z
" id="DejaVuSans-54"/>
       </defs>
       <use xlink:href="#DejaVuSans-54"/>
       <use x="63.623047" xlink:href="#DejaVuSans-48"/>
       <use x="127.246094" xlink:href="#DejaVuSans-48"/>
      </g>
     </g>
    </g>
    <g id="xtick_5">
     <g id="line2d_5">
      <g>
       <use style="stroke:#000000;stroke-width:0.8;" x="364.827273" xlink:href="#m6971bb0bc9" y="384.48"/>
      </g>
     </g>
     <g id="text_5">
      <!-- 800 -->
      <g transform="translate(355.283523 399.078438)scale(0.1 -0.1)">
       <defs>
        <path d="M 31.78125 34.625 
Q 24.75 34.625 20.71875 30.859375 
Q 16.703125 27.09375 16.703125 20.515625 
Q 16.703125 13.921875 20.71875 10.15625 
Q 24.75 6.390625 31.78125 6.390625 
Q 38.8125 6.390625 42.859375 10.171875 
Q 46.921875 13.96875 46.921875 20.515625 
Q 46.921875 27.09375 42.890625 30.859375 
Q 38.875 34.625 31.78125 34.625 
z
M 21.921875 38.8125 
Q 15.578125 40.375 12.03125 44.71875 
Q 8.5 49.078125 8.5 55.328125 
Q 8.5 64.0625 14.71875 69.140625 
Q 20.953125 74.21875 31.78125 74.21875 
Q 42.671875 74.21875 48.875 69.140625 
Q 55.078125 64.0625 55.078125 55.328125 
Q 55.078125 49.078125 51.53125 44.71875 
Q 48 40.375 41.703125 38.8125 
Q 48.828125 37.15625 52.796875 32.3125 
Q 56.78125 27.484375 56.78125 20.515625 
Q 56.78125 9.90625 50.3125 4.234375 
Q 43.84375 -1.421875 31.78125 -1.421875 
Q 19.734375 -1.421875 13.25 4.234375 
Q 6.78125 9.90625 6.78125 20.515625 
Q 6.78125 27.484375 10.78125 32.3125 
Q 14.796875 37.15625 21.921875 38.8125 
z
M 18.3125 54.390625 
Q 18.3125 48.734375 21.84375 45.5625 
Q 25.390625 42.390625 31.78125 42.390625 
Q 38.140625 42.390625 41.71875 45.5625 
Q 45.3125 48.734375 45.3125 54.390625 
Q 45.3125 60.0625 41.71875 63.234375 
Q 38.140625 66.40625 31.78125 66.40625 
Q 25.390625 66.40625 21.84375 63.234375 
Q 18.3125 60.0625 18.3125 54.390625 
z
" id="DejaVuSans-56"/>
       </defs>
       <use xlink:href="#DejaVuSans-56"/>
       <use x="63.623047" xlink:href="#DejaVuSans-48"/>
       <use x="127.246094" xlink:href="#DejaVuSans-48"/>
      </g>
     </g>
    </g>
    <g id="text_6">
     <!-- time [ms] -->
     <g transform="translate(234.038281 412.756563)scale(0.1 -0.1)">
      <defs>
       <path d="M 18.3125 70.21875 
L 18.3125 54.6875 
L 36.8125 54.6875 
L 36.8125 47.703125 
L 18.3125 47.703125 
L 18.3125 18.015625 
Q 18.3125 11.328125 20.140625 9.421875 
Q 21.96875 7.515625 27.59375 7.515625 
L 36.8125 7.515625 
L 36.8125 0 
L 27.59375 0 
Q 17.1875 0 13.234375 3.875 
Q 9.28125 7.765625 9.28125 18.015625 
L 9.28125 47.703125 
L 2.6875 47.703125 
L 2.6875 54.6875 
L 9.28125 54.6875 
L 9.28125 70.21875 
z
" id="DejaVuSans-116"/>
       <path d="M 9.421875 54.6875 
L 18.40625 54.6875 
L 18.40625 0 
L 9.421875 0 
z
M 9.421875 75.984375 
L 18.40625 75.984375 
L 18.40625 64.59375 
L 9.421875 64.59375 
z
" id="DejaVuSans-105"/>
       <path d="M 52 44.1875 
Q 55.375 50.25 60.0625 53.125 
Q 64.75 56 71.09375 56 
Q 79.640625 56 84.28125 50.015625 
Q 88.921875 44.046875 88.921875 33.015625 
L 88.921875 0 
L 79.890625 0 
L 79.890625 32.71875 
Q 79.890625 40.578125 77.09375 44.375 
Q 74.3125 48.1875 68.609375 48.1875 
Q 61.625 48.1875 57.5625 43.546875 
Q 53.515625 38.921875 53.515625 30.90625 
L 53.515625 0 
L 44.484375 0 
L 44.484375 32.71875 
Q 44.484375 40.625 41.703125 44.40625 
Q 38.921875 48.1875 33.109375 48.1875 
Q 26.21875 48.1875 22.15625 43.53125 
Q 18.109375 38.875 18.109375 30.90625 
L 18.109375 0 
L 9.078125 0 
L 9.078125 54.6875 
L 18.109375 54.6875 
L 18.109375 46.1875 
Q 21.1875 51.21875 25.484375 53.609375 
Q 29.78125 56 35.6875 56 
Q 41.65625 56 45.828125 52.96875 
Q 50 49.953125 52 44.1875 
z
" id="DejaVuSans-109"/>
       <path d="M 56.203125 29.59375 
L 56.203125 25.203125 
L 14.890625 25.203125 
Q 15.484375 15.921875 20.484375 11.0625 
Q 25.484375 6.203125 34.421875 6.203125 
Q 39.59375 6.203125 44.453125 7.46875 
Q 49.3125 8.734375 54.109375 11.28125 
L 54.109375 2.78125 
Q 49.265625 0.734375 44.1875 -0.34375 
Q 39.109375 -1.421875 33.890625 -1.421875 
Q 20.796875 -1.421875 13.15625 6.1875 
Q 5.515625 13.8125 5.515625 26.8125 
Q 5.515625 40.234375 12.765625 48.109375 
Q 20.015625 56 32.328125 56 
Q 43.359375 56 49.78125 48.890625 
Q 56.203125 41.796875 56.203125 29.59375 
z
M 47.21875 32.234375 
Q 47.125 39.59375 43.09375 43.984375 
Q 39.0625 48.390625 32.421875 48.390625 
Q 24.90625 48.390625 20.390625 44.140625 
Q 15.875 39.890625 15.1875 32.171875 
z
" id="DejaVuSans-101"/>
       <path id="DejaVuSans-32"/>
       <path d="M 8.59375 75.984375 
L 29.296875 75.984375 
L 29.296875 69 
L 17.578125 69 
L 17.578125 -6.203125 
L 29.296875 -6.203125 
L 29.296875 -13.1875 
L 8.59375 -13.1875 
z
" id="DejaVuSans-91"/>
       <path d="M 44.28125 53.078125 
L 44.28125 44.578125 
Q 40.484375 46.53125 36.375 47.5 
Q 32.28125 48.484375 27.875 48.484375 
Q 21.1875 48.484375 17.84375 46.4375 
Q 14.5 44.390625 14.5 40.28125 
Q 14.5 37.15625 16.890625 35.375 
Q 19.28125 33.59375 26.515625 31.984375 
L 29.59375 31.296875 
Q 39.15625 29.25 43.1875 25.515625 
Q 47.21875 21.78125 47.21875 15.09375 
Q 47.21875 7.46875 41.1875 3.015625 
Q 35.15625 -1.421875 24.609375 -1.421875 
Q 20.21875 -1.421875 15.453125 -0.5625 
Q 10.6875 0.296875 5.421875 2 
L 5.421875 11.28125 
Q 10.40625 8.6875 15.234375 7.390625 
Q 20.0625 6.109375 24.8125 6.109375 
Q 31.15625 6.109375 34.5625 8.28125 
Q 37.984375 10.453125 37.984375 14.40625 
Q 37.984375 18.0625 35.515625 20.015625 
Q 33.0625 21.96875 24.703125 23.78125 
L 21.578125 24.515625 
Q 13.234375 26.265625 9.515625 29.90625 
Q 5.8125 33.546875 5.8125 39.890625 
Q 5.8125 47.609375 11.28125 51.796875 
Q 16.75 56 26.8125 56 
Q 31.78125 56 36.171875 55.265625 
Q 40.578125 54.546875 44.28125 53.078125 
z
" id="DejaVuSans-115"/>
       <path d="M 30.421875 75.984375 
L 30.421875 -13.1875 
L 9.71875 -13.1875 
L 9.71875 -6.203125 
L 21.390625 -6.203125 
L 21.390625 69 
L 9.71875 69 
L 9.71875 75.984375 
z
" id="DejaVuSans-93"/>
      </defs>
      <use xlink:href="#DejaVuSans-116"/>
      <use x="39.208984" xlink:href="#DejaVuSans-105"/>
      <use x="66.992188" xlink:href="#DejaVuSans-109"/>
      <use x="164.404297" xlink:href="#DejaVuSans-101"/>
      <use x="225.927734" xlink:href="#DejaVuSans-32"/>
      <use x="257.714844" xlink:href="#DejaVuSans-91"/>
      <use x="296.728516" xlink:href="#DejaVuSans-109"/>
      <use x="394.140625" xlink:href="#DejaVuSans-115"/>
      <use x="446.240234" xlink:href="#DejaVuSans-93"/>
     </g>
    </g>
   </g>
   <g id="matplotlib.axis_2">
    <g id="ytick_1">
     <g id="line2d_6">
      <defs>
       <path d="M 0 0 
L -3.5 0 
" id="m3311f0a587" style="stroke:#000000;stroke-width:0.8;"/>
      </defs>
      <g>
       <use style="stroke:#000000;stroke-width:0.8;" x="63" xlink:href="#m3311f0a587" y="380.832364"/>
      </g>
     </g>
     <g id="text_7">
      <!-- −80 -->
      <g transform="translate(34.895313 384.631583)scale(0.1 -0.1)">
       <defs>
        <path d="M 10.59375 35.5 
L 73.1875 35.5 
L 73.1875 27.203125 
L 10.59375 27.203125 
z
" id="DejaVuSans-8722"/>
       </defs>
       <use xlink:href="#DejaVuSans-8722"/>
       <use x="83.789062" xlink:href="#DejaVuSans-56"/>
       <use x="147.412109" xlink:href="#DejaVuSans-48"/>
      </g>
     </g>
    </g>
    <g id="ytick_2">
     <g id="line2d_7">
      <g>
       <use style="stroke:#000000;stroke-width:0.8;" x="63" xlink:href="#m3311f0a587" y="333.430087"/>
      </g>
     </g>
     <g id="text_8">
      <!-- −60 -->
      <g transform="translate(34.895313 337.229306)scale(0.1 -0.1)">
       <use xlink:href="#DejaVuSans-8722"/>
       <use x="83.789062" xlink:href="#DejaVuSans-54"/>
       <use x="147.412109" xlink:href="#DejaVuSans-48"/>
      </g>
     </g>
    </g>
    <g id="ytick_3">
     <g id="line2d_8">
      <g>
       <use style="stroke:#000000;stroke-width:0.8;" x="63" xlink:href="#m3311f0a587" y="286.027811"/>
      </g>
     </g>
     <g id="text_9">
      <!-- −40 -->
      <g transform="translate(34.895313 289.827029)scale(0.1 -0.1)">
       <use xlink:href="#DejaVuSans-8722"/>
       <use x="83.789062" xlink:href="#DejaVuSans-52"/>
       <use x="147.412109" xlink:href="#DejaVuSans-48"/>
      </g>
     </g>
    </g>
    <g id="ytick_4">
     <g id="line2d_9">
      <g>
       <use style="stroke:#000000;stroke-width:0.8;" x="63" xlink:href="#m3311f0a587" y="238.625534"/>
      </g>
     </g>
     <g id="text_10">
      <!-- −20 -->
      <g transform="translate(34.895313 242.424753)scale(0.1 -0.1)">
       <use xlink:href="#DejaVuSans-8722"/>
       <use x="83.789062" xlink:href="#DejaVuSans-50"/>
       <use x="147.412109" xlink:href="#DejaVuSans-48"/>
      </g>
     </g>
    </g>
    <g id="ytick_5">
     <g id="line2d_10">
      <g>
       <use style="stroke:#000000;stroke-width:0.8;" x="63" xlink:href="#m3311f0a587" y="191.223257"/>
      </g>
     </g>
     <g id="text_11">
      <!-- 0 -->
      <g transform="translate(49.6375 195.022476)scale(0.1 -0.1)">
       <use xlink:href="#DejaVuSans-48"/>
      </g>
     </g>
    </g>
    <g id="ytick_6">
     <g id="line2d_11">
      <g>
       <use style="stroke:#000000;stroke-width:0.8;" x="63" xlink:href="#m3311f0a587" y="143.820981"/>
      </g>
     </g>
     <g id="text_12">
      <!-- 20 -->
      <g transform="translate(43.275 147.6202)scale(0.1 -0.1)">
       <use xlink:href="#DejaVuSans-50"/>
       <use x="63.623047" xlink:href="#DejaVuSans-48"/>
      </g>
     </g>
    </g>
    <g id="ytick_7">
     <g id="line2d_12">
      <g>
       <use style="stroke:#000000;stroke-width:0.8;" x="63" xlink:href="#m3311f0a587" y="96.418704"/>
      </g>
     </g>
     <g id="text_13">
      <!-- 40 -->
      <g transform="translate(43.275 100.217923)scale(0.1 -0.1)">
       <use xlink:href="#DejaVuSans-52"/>
       <use x="63.623047" xlink:href="#DejaVuSans-48"/>
      </g>
     </g>
    </g>
    <g id="text_14">
     <!-- voltage [V] -->
     <g transform="translate(28.815625 245.75375)rotate(-90)scale(0.1 -0.1)">
      <defs>
       <path d="M 2.984375 54.6875 
L 12.5 54.6875 
L 29.59375 8.796875 
L 46.6875 54.6875 
L 56.203125 54.6875 
L 35.6875 0 
L 23.484375 0 
z
" id="DejaVuSans-118"/>
       <path d="M 30.609375 48.390625 
Q 23.390625 48.390625 19.1875 42.75 
Q 14.984375 37.109375 14.984375 27.296875 
Q 14.984375 17.484375 19.15625 11.84375 
Q 23.34375 6.203125 30.609375 6.203125 
Q 37.796875 6.203125 41.984375 11.859375 
Q 46.1875 17.53125 46.1875 27.296875 
Q 46.1875 37.015625 41.984375 42.703125 
Q 37.796875 48.390625 30.609375 48.390625 
z
M 30.609375 56 
Q 42.328125 56 49.015625 48.375 
Q 55.71875 40.765625 55.71875 27.296875 
Q 55.71875 13.875 49.015625 6.21875 
Q 42.328125 -1.421875 30.609375 -1.421875 
Q 18.84375 -1.421875 12.171875 6.21875 
Q 5.515625 13.875 5.515625 27.296875 
Q 5.515625 40.765625 12.171875 48.375 
Q 18.84375 56 30.609375 56 
z
" id="DejaVuSans-111"/>
       <path d="M 9.421875 75.984375 
L 18.40625 75.984375 
L 18.40625 0 
L 9.421875 0 
z
" id="DejaVuSans-108"/>
       <path d="M 34.28125 27.484375 
Q 23.390625 27.484375 19.1875 25 
Q 14.984375 22.515625 14.984375 16.5 
Q 14.984375 11.71875 18.140625 8.90625 
Q 21.296875 6.109375 26.703125 6.109375 
Q 34.1875 6.109375 38.703125 11.40625 
Q 43.21875 16.703125 43.21875 25.484375 
L 43.21875 27.484375 
z
M 52.203125 31.203125 
L 52.203125 0 
L 43.21875 0 
L 43.21875 8.296875 
Q 40.140625 3.328125 35.546875 0.953125 
Q 30.953125 -1.421875 24.3125 -1.421875 
Q 15.921875 -1.421875 10.953125 3.296875 
Q 6 8.015625 6 15.921875 
Q 6 25.140625 12.171875 29.828125 
Q 18.359375 34.515625 30.609375 34.515625 
L 43.21875 34.515625 
L 43.21875 35.40625 
Q 43.21875 41.609375 39.140625 45 
Q 35.0625 48.390625 27.6875 48.390625 
Q 23 48.390625 18.546875 47.265625 
Q 14.109375 46.140625 10.015625 43.890625 
L 10.015625 52.203125 
Q 14.9375 54.109375 19.578125 55.046875 
Q 24.21875 56 28.609375 56 
Q 40.484375 56 46.34375 49.84375 
Q 52.203125 43.703125 52.203125 31.203125 
z
" id="DejaVuSans-97"/>
       <path d="M 45.40625 27.984375 
Q 45.40625 37.75 41.375 43.109375 
Q 37.359375 48.484375 30.078125 48.484375 
Q 22.859375 48.484375 18.828125 43.109375 
Q 14.796875 37.75 14.796875 27.984375 
Q 14.796875 18.265625 18.828125 12.890625 
Q 22.859375 7.515625 30.078125 7.515625 
Q 37.359375 7.515625 41.375 12.890625 
Q 45.40625 18.265625 45.40625 27.984375 
z
M 54.390625 6.78125 
Q 54.390625 -7.171875 48.1875 -13.984375 
Q 42 -20.796875 29.203125 -20.796875 
Q 24.46875 -20.796875 20.265625 -20.09375 
Q 16.0625 -19.390625 12.109375 -17.921875 
L 12.109375 -9.1875 
Q 16.0625 -11.328125 19.921875 -12.34375 
Q 23.78125 -13.375 27.78125 -13.375 
Q 36.625 -13.375 41.015625 -8.765625 
Q 45.40625 -4.15625 45.40625 5.171875 
L 45.40625 9.625 
Q 42.625 4.78125 38.28125 2.390625 
Q 33.9375 0 27.875 0 
Q 17.828125 0 11.671875 7.65625 
Q 5.515625 15.328125 5.515625 27.984375 
Q 5.515625 40.671875 11.671875 48.328125 
Q 17.828125 56 27.875 56 
Q 33.9375 56 38.28125 53.609375 
Q 42.625 51.21875 45.40625 46.390625 
L 45.40625 54.6875 
L 54.390625 54.6875 
z
" id="DejaVuSans-103"/>
       <path d="M 28.609375 0 
L 0.78125 72.90625 
L 11.078125 72.90625 
L 34.1875 11.53125 
L 57.328125 72.90625 
L 67.578125 72.90625 
L 39.796875 0 
z
" id="DejaVuSans-86"/>
      </defs>
      <use xlink:href="#DejaVuSans-118"/>
      <use x="59.179688" xlink:href="#DejaVuSans-111"/>
      <use x="120.361328" xlink:href="#DejaVuSans-108"/>
      <use x="148.144531" xlink:href="#DejaVuSans-116"/>
      <use x="187.353516" xlink:href="#DejaVuSans-97"/>
      <use x="248.632812" xlink:href="#DejaVuSans-103"/>
      <use x="312.109375" xlink:href="#DejaVuSans-101"/>
      <use x="373.632812" xlink:href="#DejaVuSans-32"/>
      <use x="405.419922" xlink:href="#DejaVuSans-91"/>
      <use x="444.433594" xlink:href="#DejaVuSans-86"/>
      <use x="512.841797" xlink:href="#DejaVuSans-93"/>
     </g>
    </g>
   </g>
   <g id="line2d_13">
    <path clip-path="url(#pe624cb42d0)" d="M 80.754545 345.280651 
L 81.9441 345.303373 
L 88.815109 345.829087 
L 101.438591 346.698194 
L 113.671473 347.309549 
L 127.306964 347.762853 
L 143.392582 348.067476 
L 151.772727 348.155559 
L 151.8615 346.727259 
L 152.234345 340.907388 
L 152.731473 336.833912 
L 153.565936 332.021277 
L 155.004055 325.161088 
L 156.726245 318.015108 
L 158.430682 311.846562 
L 160.046345 306.794552 
L 161.608745 302.616477 
L 163.1889 299.020033 
L 164.893336 295.693182 
L 167.521009 291.127101 
L 169.065655 288.225896 
L 169.900118 286.191414 
L 170.468264 284.177311 
L 170.841109 281.935009 
L 171.071918 279.040968 
L 171.1962 274.61268 
L 171.249464 268.936776 
L 171.622309 136.511505 
L 171.675573 134.857448 
L 171.746591 135.027772 
L 171.906382 144.093436 
L 172.190455 181.320447 
L 172.847373 264.903022 
L 173.220218 289.285868 
L 173.5398 298.030301 
L 173.912645 302.590154 
L 174.303245 304.975974 
L 174.782618 306.538274 
L 175.244236 307.347198 
L 175.723609 307.764047 
L 176.220736 307.888214 
L 176.771127 307.766342 
L 177.410291 307.379455 
L 178.227 306.619533 
L 179.416555 305.187108 
L 181.7424 301.942332 
L 184.991482 297.500875 
L 187.654664 294.253724 
L 192.519409 288.423783 
L 193.566927 286.737789 
L 194.294864 285.143448 
L 194.791991 283.525042 
L 195.129327 281.719892 
L 195.377891 279.068459 
L 195.502173 275.672347 
L 195.573191 269.149334 
L 195.626455 249.732793 
L 195.839509 156.630646 
L 196.017055 150.533173 
L 196.034809 150.503836 
L 196.176845 153.145591 
L 196.407655 165.209657 
L 196.744991 199.690118 
L 197.437418 268.635768 
L 197.810264 286.109373 
L 198.200864 294.391027 
L 198.591464 298.372746 
L 199.070836 300.984314 
L 199.550209 302.516271 
L 200.1006 303.598135 
L 200.6865 304.268197 
L 201.254645 304.599948 
L 201.8583 304.707465 
L 202.586236 304.593557 
L 203.456209 304.213191 
L 204.574745 303.470364 
L 206.261427 302.056897 
L 216.097445 293.376044 
L 220.198745 289.883593 
L 221.849918 288.17954 
L 222.932945 286.754739 
L 223.696391 285.398683 
L 224.246782 283.984688 
L 224.655136 282.305783 
L 224.939209 280.109344 
L 225.116755 276.700291 
L 225.223282 269.798023 
L 225.578373 154.203141 
L 225.596127 154.118375 
L 225.649391 154.244736 
L 225.809182 158.115315 
L 226.111009 173.531542 
L 226.483855 206.490312 
L 227.211791 268.851326 
L 227.620145 284.382967 
L 227.992991 291.470321 
L 228.436855 295.821367 
L 228.933982 298.509502 
L 229.502127 300.353362 
L 230.123536 301.610371 
L 230.7627 302.407872 
L 231.419618 302.87748 
L 232.1298 303.103392 
L 232.928755 303.107317 
L 233.851991 302.880674 
L 235.041545 302.34637 
L 236.710473 301.327708 
L 239.5512 299.292804 
L 247.771555 293.342629 
L 251.784082 290.355831 
L 253.701573 288.656872 
L 254.962145 287.255787 
L 255.849873 285.952637 
L 256.506791 284.593362 
L 256.968409 283.140178 
L 257.305745 281.323721 
L 257.5188 279.04464 
L 257.643082 275.869475 
L 257.731855 267.345659 
L 257.767364 256.25804 
L 257.998173 158.331296 
L 258.122455 154.6076 
L 258.157964 155.037671 
L 258.264491 157.495105 
L 258.566318 171.911052 
L 258.956918 203.262078 
L 259.755873 268.732248 
L 260.181982 284.224569 
L 260.590336 291.387626 
L 261.016445 295.193234 
L 261.495818 297.609223 
L 262.028455 299.263813 
L 262.667618 300.526699 
L 263.342291 301.358472 
L 263.999209 301.841407 
L 264.727145 302.108931 
L 265.561609 302.16612 
L 266.520355 301.999491 
L 267.745418 301.544633 
L 269.361082 300.693815 
L 271.988755 299.0245 
L 283.191873 291.423127 
L 285.695264 289.480673 
L 287.275418 287.983791 
L 288.358445 286.665003 
L 289.139645 285.374866 
L 289.707791 284.013882 
L 290.116145 282.462282 
L 290.400218 280.52469 
L 290.577764 278.021768 
L 290.702045 272.728107 
L 290.773064 253.506725 
L 291.1104 154.845505 
L 291.128155 154.814845 
L 291.145909 154.863443 
L 291.341209 160.454913 
L 291.643036 177.173945 
L 292.175673 223.76144 
L 292.761573 268.372593 
L 293.152173 282.895125 
L 293.560527 290.617404 
L 294.004391 294.815022 
L 294.501518 297.393567 
L 295.051909 299.114799 
L 295.691073 300.376578 
L 296.3835 301.226887 
L 297.058173 301.716093 
L 297.803864 301.982854 
L 298.602818 302.037884 
L 299.597073 301.870995 
L 300.839891 301.416502 
L 302.508818 300.549113 
L 305.243018 298.834538 
L 316.534909 291.267373 
L 318.949527 289.397045 
L 320.494173 287.936127 
L 321.594955 286.593247 
L 322.3584 285.323755 
L 322.926545 283.950543 
L 323.3349 282.373736 
L 323.618973 280.371384 
L 323.814273 277.256983 
L 323.9208 270.326665 
L 323.974064 253.664813 
L 324.204873 158.60414 
L 324.3114 154.660752 
L 324.346909 154.999222 
L 324.453436 157.131765 
L 324.755264 171.320139 
L 325.163618 203.570828 
L 325.962573 268.245679 
L 326.388682 283.798477 
L 326.797036 291.122918 
L 327.2409 295.124876 
L 327.738027 297.597147 
L 328.306173 299.293334 
L 328.927582 300.464406 
L 329.602255 301.261925 
L 330.294682 301.741776 
L 331.058127 301.990813 
L 331.910345 302.021106 
L 332.940109 301.814787 
L 334.200682 301.323501 
L 335.958382 300.381298 
L 338.923391 298.497247 
L 350.517109 290.705752 
L 352.665409 288.969022 
L 354.085773 287.542228 
L 355.080027 286.232477 
L 355.807964 284.89375 
L 356.322845 283.468527 
L 356.677936 281.851035 
L 356.9265 279.723564 
L 357.104045 275.775176 
L 357.175064 270.278921 
L 357.210573 260.292393 
L 357.476891 156.78828 
L 357.565664 154.776536 
L 357.618927 155.189815 
L 357.778718 159.815403 
L 358.116055 178.632237 
L 358.648691 225.63551 
L 359.216836 268.549098 
L 359.625191 283.607504 
L 360.033545 291.099423 
L 360.459655 295.055168 
L 360.939027 297.52546 
L 361.471664 299.188221 
L 362.093073 300.413743 
L 362.749991 301.227624 
L 363.460173 301.745414 
L 364.223618 302.009773 
L 364.880536 302.200262 
L 365.750509 312.19675 
L 366.389673 315.389858 
L 367.259645 318.618896 
L 368.289409 321.618845 
L 369.478964 324.400797 
L 370.775045 326.870766 
L 372.213164 329.129756 
L 373.757809 331.146359 
L 375.462245 333.006551 
L 377.344227 334.726126 
L 379.368245 336.278402 
L 381.676336 337.762546 
L 384.215236 339.127022 
L 387.091473 340.415412 
L 390.340555 341.622398 
L 394.0335 342.753997 
L 398.276836 343.818215 
L 403.177091 344.812622 
L 408.805282 345.722237 
L 415.232427 346.531176 
L 422.600564 347.22869 
L 430.980709 347.794078 
L 435.8277 348.033535 
L 435.8277 348.033535 
" style="fill:none;stroke:#1f77b4;stroke-linecap:square;stroke-width:1.5;"/>
   </g>
   <g id="line2d_14">
    <path clip-path="url(#pe624cb42d0)" d="M 80.754545 345.280657 
L 80.949845 344.885823 
L 81.393709 344.538662 
L 82.263682 344.177763 
L 83.950364 343.747986 
L 86.578036 343.318049 
L 90.093436 342.977536 
L 94.620845 342.772663 
L 100.728409 342.733267 
L 111.896018 342.927917 
L 129.455264 343.181734 
L 150.725209 343.218662 
L 151.772727 343.217678 
L 151.985782 328.971275 
L 152.394136 317.155906 
L 152.926773 307.96521 
L 153.672464 299.208048 
L 154.080818 293.429867 
L 154.2051 288.439511 
L 154.258364 275.842198 
L 154.311627 69.280997 
L 154.418155 145.785531 
L 154.897527 366.855701 
L 155.146091 368.16163 
L 155.341391 368.337117 
L 155.518936 368.179896 
L 155.820764 367.528776 
L 156.282382 365.91161 
L 156.921545 362.755398 
L 157.791518 357.206458 
L 160.578982 338.469183 
L 161.395691 334.907086 
L 162.176891 332.454904 
L 162.816055 330.483537 
L 165.319445 321.396864 
L 167.414482 314.713208 
L 169.758082 307.984842 
L 173.078182 298.545646 
L 173.664082 296.077883 
L 173.983664 293.804323 
L 174.161209 290.904017 
L 174.249982 285.404645 
L 174.285491 270.358769 
L 174.321 68.012272 
L 174.427527 127.041448 
L 174.924655 366.990662 
L 175.155464 368.836018 
L 175.386273 369.263162 
L 175.563818 369.189222 
L 175.830136 368.744084 
L 176.238491 367.555649 
L 176.806636 365.14926 
L 177.570082 360.84534 
L 178.724127 352.856083 
L 180.357545 341.791943 
L 181.245273 337.29102 
L 182.044227 334.326456 
L 182.807673 332.294963 
L 183.819682 329.772225 
L 186.997745 319.459256 
L 189.394609 312.516107 
L 192.004527 305.654629 
L 194.454655 299.13159 
L 195.147082 296.628702 
L 195.537682 294.366698 
L 195.750736 291.745667 
L 195.857264 287.579416 
L 195.910527 273.187254 
L 195.963791 68.630331 
L 196.052564 126.39267 
L 196.549691 366.919503 
L 196.798255 368.879418 
L 197.029064 369.34905 
L 197.188855 369.311213 
L 197.419664 368.975795 
L 197.792509 367.989101 
L 198.325145 365.895686 
L 199.035327 362.139137 
L 200.065091 355.337575 
L 202.089109 341.803178 
L 202.976836 337.487723 
L 203.775791 334.651353 
L 204.556991 332.668024 
L 205.391455 330.650341 
L 208.871345 319.615825 
L 211.2327 312.989012 
L 213.682827 306.779625 
L 216.914155 298.655383 
L 217.553318 296.352499 
L 217.908409 294.293699 
L 218.121464 291.685597 
L 218.227991 287.469858 
L 218.281255 272.276577 
L 218.334518 68.745156 
L 218.423291 126.670581 
L 218.920418 366.69103 
L 219.168982 368.625524 
L 219.417545 369.182477 
L 219.577336 369.156926 
L 219.808145 368.831879 
L 220.180991 367.853659 
L 220.713627 365.770485 
L 221.441564 361.934405 
L 222.506836 354.951757 
L 224.406573 342.475863 
L 225.2943 338.170344 
L 226.093255 335.320572 
L 226.874455 333.317347 
L 227.779936 331.120801 
L 231.046773 320.91297 
L 233.372618 314.468617 
L 235.698464 308.67518 
L 240.367909 297.354652 
L 240.847282 295.297647 
L 241.131355 293.039364 
L 241.273391 290.244553 
L 241.344409 285.444525 
L 241.379918 271.55144 
L 241.415427 68.587689 
L 241.521955 126.768159 
L 242.019082 366.569367 
L 242.267645 368.459546 
L 242.516209 369.063516 
L 242.693755 369.052877 
L 242.924564 368.733238 
L 243.297409 367.761822 
L 243.830045 365.689468 
L 244.557982 361.880634 
L 245.641009 354.861339 
L 247.469727 343.045124 
L 248.375209 338.689119 
L 249.191918 335.805026 
L 249.973118 333.822674 
L 250.8786 331.643608 
L 254.092173 321.77207 
L 256.382509 315.537775 
L 258.637336 310.03369 
L 261.122973 304.571753 
L 263.644118 298.9798 
L 264.372055 296.801689 
L 264.798164 294.824857 
L 265.046727 292.555558 
L 265.171009 289.566188 
L 265.242027 281.861664 
L 265.277536 207.171523 
L 265.295291 68.686426 
L 265.384064 115.148892 
L 265.881191 366.313515 
L 266.112 368.285229 
L 266.378318 369.059092 
L 266.555864 369.094434 
L 266.768918 368.847018 
L 267.106255 368.053086 
L 267.603382 366.261571 
L 268.295809 362.848778 
L 269.290064 356.671824 
L 271.491627 342.700897 
L 272.379355 338.65075 
L 273.178309 335.97284 
L 273.959509 334.086014 
L 274.7052 332.345825 
L 278.273864 321.639282 
L 280.546445 315.658482 
L 282.748009 310.477783 
L 285.0561 305.619381 
L 288.518236 298.427238 
L 289.175155 296.443127 
L 289.565755 294.55528 
L 289.796564 292.283959 
L 289.920845 288.708163 
L 289.974109 282.028357 
L 290.009618 212.159825 
L 290.045127 68.651842 
L 290.116145 114.756186 
L 290.613273 366.378152 
L 290.844082 368.354121 
L 291.1104 369.133204 
L 291.287945 369.177187 
L 291.501 368.94071 
L 291.838336 368.163532 
L 292.335464 366.397844 
L 293.027891 363.026998 
L 294.022145 356.923839 
L 296.223709 343.108328 
L 297.111436 339.087688 
L 297.928145 336.370925 
L 298.709345 334.501298 
L 299.490545 332.69055 
L 302.899418 322.621175 
L 305.154245 316.764765 
L 307.3203 311.741475 
L 309.486355 307.273252 
L 312.362591 301.910539 
L 313.978255 298.685336 
L 314.706191 296.742439 
L 315.1323 294.986326 
L 315.398618 292.879056 
L 315.540655 289.929209 
L 315.611673 284.016949 
L 315.647182 256.213896 
L 315.682691 66.989313 
L 315.771464 120.864787 
L 316.268591 366.077821 
L 316.4994 367.96165 
L 316.765718 368.724945 
L 316.943264 368.763908 
L 317.156318 368.523094 
L 317.493655 367.737051 
L 317.990782 365.95682 
L 318.683209 362.578468 
L 319.712973 356.29321 
L 321.736991 343.799919 
L 322.642473 339.684123 
L 323.459182 336.946122 
L 324.258136 335.01595 
L 325.234636 332.792956 
L 328.448209 323.50274 
L 330.720791 317.688764 
L 332.869091 312.785133 
L 334.964127 308.545231 
L 337.236709 304.455767 
L 340.592318 298.48767 
L 341.3025 296.695768 
L 341.728609 295.039393 
L 341.994927 293.095731 
L 342.154718 290.021678 
L 342.225736 284.479727 
L 342.261245 262.155275 
L 342.296755 66.96 
L 342.385527 118.150701 
L 342.882655 365.924931 
L 343.113464 367.857365 
L 343.379782 368.640289 
L 343.557327 368.687785 
L 343.770382 368.454914 
L 344.107718 367.678804 
L 344.604845 365.912752 
L 345.297273 362.561258 
L 346.327036 356.341559 
L 348.3333 344.12132 
L 349.238782 340.046054 
L 350.055491 337.327316 
L 350.854445 335.405611 
L 351.777682 333.312028 
L 354.991255 324.112216 
L 357.228327 318.461424 
L 359.358873 313.666745 
L 361.4184 309.570913 
L 363.531191 305.866232 
L 364.827273 303.78263 
L 365.022573 315.759853 
L 365.342155 322.335193 
L 365.821527 327.547638 
L 366.4962 332.381212 
L 367.348418 336.883887 
L 368.360427 341.038828 
L 369.478964 344.701669 
L 370.668518 347.848459 
L 371.893582 350.470572 
L 373.100891 352.54904 
L 374.290445 354.171891 
L 375.462245 355.403084 
L 376.598536 356.28418 
L 377.734827 356.890781 
L 378.906627 357.265278 
L 380.149445 357.427355 
L 381.5343 357.37974 
L 383.185473 357.092734 
L 385.4403 356.455674 
L 393.926973 353.85608 
L 397.016264 353.254723 
L 400.300855 352.845235 
L 404.118082 352.601117 
L 409.195882 352.515839 
L 435.845455 352.500067 
L 435.845455 352.500067 
" style="fill:none;stroke:#ff0000;stroke-linecap:square;stroke-width:1.5;"/>
   </g>
   <g id="patch_3">
    <path d="M 63 384.48 
L 63 51.84 
" style="fill:none;stroke:#000000;stroke-linecap:square;stroke-linejoin:miter;stroke-width:0.8;"/>
   </g>
   <g id="patch_4">
    <path d="M 453.6 384.48 
L 453.6 51.84 
" style="fill:none;stroke:#000000;stroke-linecap:square;stroke-linejoin:miter;stroke-width:0.8;"/>
   </g>
   <g id="patch_5">
    <path d="M 63 384.48 
L 453.6 384.48 
" style="fill:none;stroke:#000000;stroke-linecap:square;stroke-linejoin:miter;stroke-width:0.8;"/>
   </g>
   <g id="patch_6">
    <path d="M 63 51.84 
L 453.6 51.84 
" style="fill:none;stroke:#000000;stroke-linecap:square;stroke-linejoin:miter;stroke-width:0.8;"/>
   </g>
   <g id="legend_1">
    <g id="patch_7">
     <path d="M 383.460938 89.19625 
L 446.6 89.19625 
Q 448.6 89.19625 448.6 87.19625 
L 448.6 58.84 
Q 448.6 56.84 446.6 56.84 
L 383.460938 56.84 
Q 381.460938 56.84 381.460938 58.84 
L 381.460938 87.19625 
Q 381.460938 89.19625 383.460938 89.19625 
z
" style="fill:#ffffff;opacity:0.8;stroke:#cccccc;stroke-linejoin:miter;"/>
    </g>
    <g id="line2d_15">
     <path d="M 385.460938 64.938437 
L 405.460938 64.938437 
" style="fill:none;stroke:#1f77b4;stroke-linecap:square;stroke-width:1.5;"/>
    </g>
    <g id="line2d_16"/>
    <g id="text_15">
     <!-- target -->
     <g transform="translate(413.460938 68.438437)scale(0.1 -0.1)">
      <defs>
       <path d="M 41.109375 46.296875 
Q 39.59375 47.171875 37.8125 47.578125 
Q 36.03125 48 33.890625 48 
Q 26.265625 48 22.1875 43.046875 
Q 18.109375 38.09375 18.109375 28.8125 
L 18.109375 0 
L 9.078125 0 
L 9.078125 54.6875 
L 18.109375 54.6875 
L 18.109375 46.1875 
Q 20.953125 51.171875 25.484375 53.578125 
Q 30.03125 56 36.53125 56 
Q 37.453125 56 38.578125 55.875 
Q 39.703125 55.765625 41.0625 55.515625 
z
" id="DejaVuSans-114"/>
      </defs>
      <use xlink:href="#DejaVuSans-116"/>
      <use x="39.208984" xlink:href="#DejaVuSans-97"/>
      <use x="100.488281" xlink:href="#DejaVuSans-114"/>
      <use x="139.851562" xlink:href="#DejaVuSans-103"/>
      <use x="203.328125" xlink:href="#DejaVuSans-101"/>
      <use x="264.851562" xlink:href="#DejaVuSans-116"/>
     </g>
    </g>
    <g id="line2d_17">
     <path d="M 385.460938 79.616562 
L 405.460938 79.616562 
" style="fill:none;stroke:#ff0000;stroke-linecap:square;stroke-width:1.5;"/>
    </g>
    <g id="line2d_18"/>
    <g id="text_16">
     <!-- model -->
     <g transform="translate(413.460938 83.116562)scale(0.1 -0.1)">
      <defs>
       <path d="M 45.40625 46.390625 
L 45.40625 75.984375 
L 54.390625 75.984375 
L 54.390625 0 
L 45.40625 0 
L 45.40625 8.203125 
Q 42.578125 3.328125 38.25 0.953125 
Q 33.9375 -1.421875 27.875 -1.421875 
Q 17.96875 -1.421875 11.734375 6.484375 
Q 5.515625 14.40625 5.515625 27.296875 
Q 5.515625 40.1875 11.734375 48.09375 
Q 17.96875 56 27.875 56 
Q 33.9375 56 38.25 53.625 
Q 42.578125 51.265625 45.40625 46.390625 
z
M 14.796875 27.296875 
Q 14.796875 17.390625 18.875 11.75 
Q 22.953125 6.109375 30.078125 6.109375 
Q 37.203125 6.109375 41.296875 11.75 
Q 45.40625 17.390625 45.40625 27.296875 
Q 45.40625 37.203125 41.296875 42.84375 
Q 37.203125 48.484375 30.078125 48.484375 
Q 22.953125 48.484375 18.875 42.84375 
Q 14.796875 37.203125 14.796875 27.296875 
z
" id="DejaVuSans-100"/>
      </defs>
      <use xlink:href="#DejaVuSans-109"/>
      <use x="97.412109" xlink:href="#DejaVuSans-111"/>
      <use x="158.59375" xlink:href="#DejaVuSans-100"/>
      <use x="222.070312" xlink:href="#DejaVuSans-101"/>
      <use x="283.59375" xlink:href="#DejaVuSans-108"/>
     </g>
    </g>
   </g>
  </g>
 </g>
 <defs>
  <clipPath id="pe624cb42d0">
   <rect height="332.64" width="390.6" x="63" y="51.84"/>
  </clipPath>
 </defs>
</svg>
