<?xml version="1.0" encoding="utf-8" standalone="no"?>
<!DOCTYPE svg PUBLIC "-//W3C//DTD SVG 1.1//EN"
  "http://www.w3.org/Graphics/SVG/1.1/DTD/svg11.dtd">
<!-- Created with matplotlib (http://matplotlib.org/) -->
<svg height="432pt" version="1.1" viewBox="0 0 504 432" width="504pt" xmlns="http://www.w3.org/2000/svg" xmlns:xlink="http://www.w3.org/1999/xlink">
 <defs>
  <style type="text/css">
*{stroke-linecap:butt;stroke-linejoin:round;}
  </style>
 </defs>
 <g id="figure_1">
  <g id="patch_1">
   <path d="M 0 432 
L 504 432 
L 504 0 
L 0 0 
z
" style="fill:#ffffff;"/>
  </g>
  <g id="axes_1">
   <g id="patch_2">
    <path d="M 63 384.48 
L 453.6 384.48 
L 453.6 51.84 
L 63 51.84 
z
" style="fill:#ffffff;"/>
   </g>
   <g id="matplotlib.axis_1">
    <g id="xtick_1">
     <g id="line2d_1">
      <defs>
       <path d="M 0 0 
L 0 3.5 
" id="mc584421544" style="stroke:#000000;stroke-width:0.8;"/>
      </defs>
      <g>
       <use style="stroke:#000000;stroke-width:0.8;" x="80.754545" xlink:href="#mc584421544" y="384.48"/>
      </g>
     </g>
     <g id="text_1">
      <!-- 0 -->
      <defs>
       <path d="M 31.78125 66.40625 
Q 24.171875 66.40625 20.328125 58.90625 
Q 16.5 51.421875 16.5 36.375 
Q 16.5 21.390625 20.328125 13.890625 
Q 24.171875 6.390625 31.78125 6.390625 
Q 39.453125 6.390625 43.28125 13.890625 
Q 47.125 21.390625 47.125 36.375 
Q 47.125 51.421875 43.28125 58.90625 
Q 39.453125 66.40625 31.78125 66.40625 
z
M 31.78125 74.21875 
Q 44.046875 74.21875 50.515625 64.515625 
Q 56.984375 54.828125 56.984375 36.375 
Q 56.984375 17.96875 50.515625 8.265625 
Q 44.046875 -1.421875 31.78125 -1.421875 
Q 19.53125 -1.421875 13.0625 8.265625 
Q 6.59375 17.96875 6.59375 36.375 
Q 6.59375 54.828125 13.0625 64.515625 
Q 19.53125 74.21875 31.78125 74.21875 
z
" id="DejaVuSans-30"/>
      </defs>
      <g transform="translate(77.573295 399.078438)scale(0.1 -0.1)">
       <use xlink:href="#DejaVuSans-30"/>
      </g>
     </g>
    </g>
    <g id="xtick_2">
     <g id="line2d_2">
      <g>
       <use style="stroke:#000000;stroke-width:0.8;" x="151.772727" xlink:href="#mc584421544" y="384.48"/>
      </g>
     </g>
     <g id="text_2">
      <!-- 200 -->
      <defs>
       <path d="M 19.1875 8.296875 
L 53.609375 8.296875 
L 53.609375 0 
L 7.328125 0 
L 7.328125 8.296875 
Q 12.9375 14.109375 22.625 23.890625 
Q 32.328125 33.6875 34.8125 36.53125 
Q 39.546875 41.84375 41.421875 45.53125 
Q 43.3125 49.21875 43.3125 52.78125 
Q 43.3125 58.59375 39.234375 62.25 
Q 35.15625 65.921875 28.609375 65.921875 
Q 23.96875 65.921875 18.8125 64.3125 
Q 13.671875 62.703125 7.8125 59.421875 
L 7.8125 69.390625 
Q 13.765625 71.78125 18.9375 73 
Q 24.125 74.21875 28.421875 74.21875 
Q 39.75 74.21875 46.484375 68.546875 
Q 53.21875 62.890625 53.21875 53.421875 
Q 53.21875 48.921875 51.53125 44.890625 
Q 49.859375 40.875 45.40625 35.40625 
Q 44.1875 33.984375 37.640625 27.21875 
Q 31.109375 20.453125 19.1875 8.296875 
z
" id="DejaVuSans-32"/>
      </defs>
      <g transform="translate(142.228977 399.078438)scale(0.1 -0.1)">
       <use xlink:href="#DejaVuSans-32"/>
       <use x="63.623047" xlink:href="#DejaVuSans-30"/>
       <use x="127.246094" xlink:href="#DejaVuSans-30"/>
      </g>
     </g>
    </g>
    <g id="xtick_3">
     <g id="line2d_3">
      <g>
       <use style="stroke:#000000;stroke-width:0.8;" x="222.790909" xlink:href="#mc584421544" y="384.48"/>
      </g>
     </g>
     <g id="text_3">
      <!-- 400 -->
      <defs>
       <path d="M 37.796875 64.3125 
L 12.890625 25.390625 
L 37.796875 25.390625 
z
M 35.203125 72.90625 
L 47.609375 72.90625 
L 47.609375 25.390625 
L 58.015625 25.390625 
L 58.015625 17.1875 
L 47.609375 17.1875 
L 47.609375 0 
L 37.796875 0 
L 37.796875 17.1875 
L 4.890625 17.1875 
L 4.890625 26.703125 
z
" id="DejaVuSans-34"/>
      </defs>
      <g transform="translate(213.247159 399.078438)scale(0.1 -0.1)">
       <use xlink:href="#DejaVuSans-34"/>
       <use x="63.623047" xlink:href="#DejaVuSans-30"/>
       <use x="127.246094" xlink:href="#DejaVuSans-30"/>
      </g>
     </g>
    </g>
    <g id="xtick_4">
     <g id="line2d_4">
      <g>
       <use style="stroke:#000000;stroke-width:0.8;" x="293.809091" xlink:href="#mc584421544" y="384.48"/>
      </g>
     </g>
     <g id="text_4">
      <!-- 600 -->
      <defs>
       <path d="M 33.015625 40.375 
Q 26.375 40.375 22.484375 35.828125 
Q 18.609375 31.296875 18.609375 23.390625 
Q 18.609375 15.53125 22.484375 10.953125 
Q 26.375 6.390625 33.015625 6.390625 
Q 39.65625 6.390625 43.53125 10.953125 
Q 47.40625 15.53125 47.40625 23.390625 
Q 47.40625 31.296875 43.53125 35.828125 
Q 39.65625 40.375 33.015625 40.375 
z
M 52.59375 71.296875 
L 52.59375 62.3125 
Q 48.875 64.0625 45.09375 64.984375 
Q 41.3125 65.921875 37.59375 65.921875 
Q 27.828125 65.921875 22.671875 59.328125 
Q 17.53125 52.734375 16.796875 39.40625 
Q 19.671875 43.65625 24.015625 45.921875 
Q 28.375 48.1875 33.59375 48.1875 
Q 44.578125 48.1875 50.953125 41.515625 
Q 57.328125 34.859375 57.328125 23.390625 
Q 57.328125 12.15625 50.6875 5.359375 
Q 44.046875 -1.421875 33.015625 -1.421875 
Q 20.359375 -1.421875 13.671875 8.265625 
Q 6.984375 17.96875 6.984375 36.375 
Q 6.984375 53.65625 15.1875 63.9375 
Q 23.390625 74.21875 37.203125 74.21875 
Q 40.921875 74.21875 44.703125 73.484375 
Q 48.484375 72.75 52.59375 71.296875 
z
" id="DejaVuSans-36"/>
      </defs>
      <g transform="translate(284.265341 399.078438)scale(0.1 -0.1)">
       <use xlink:href="#DejaVuSans-36"/>
       <use x="63.623047" xlink:href="#DejaVuSans-30"/>
       <use x="127.246094" xlink:href="#DejaVuSans-30"/>
      </g>
     </g>
    </g>
    <g id="xtick_5">
     <g id="line2d_5">
      <g>
       <use style="stroke:#000000;stroke-width:0.8;" x="364.827273" xlink:href="#mc584421544" y="384.48"/>
      </g>
     </g>
     <g id="text_5">
      <!-- 800 -->
      <defs>
       <path d="M 31.78125 34.625 
Q 24.75 34.625 20.71875 30.859375 
Q 16.703125 27.09375 16.703125 20.515625 
Q 16.703125 13.921875 20.71875 10.15625 
Q 24.75 6.390625 31.78125 6.390625 
Q 38.8125 6.390625 42.859375 10.171875 
Q 46.921875 13.96875 46.921875 20.515625 
Q 46.921875 27.09375 42.890625 30.859375 
Q 38.875 34.625 31.78125 34.625 
z
M 21.921875 38.8125 
Q 15.578125 40.375 12.03125 44.71875 
Q 8.5 49.078125 8.5 55.328125 
Q 8.5 64.0625 14.71875 69.140625 
Q 20.953125 74.21875 31.78125 74.21875 
Q 42.671875 74.21875 48.875 69.140625 
Q 55.078125 64.0625 55.078125 55.328125 
Q 55.078125 49.078125 51.53125 44.71875 
Q 48 40.375 41.703125 38.8125 
Q 48.828125 37.15625 52.796875 32.3125 
Q 56.78125 27.484375 56.78125 20.515625 
Q 56.78125 9.90625 50.3125 4.234375 
Q 43.84375 -1.421875 31.78125 -1.421875 
Q 19.734375 -1.421875 13.25 4.234375 
Q 6.78125 9.90625 6.78125 20.515625 
Q 6.78125 27.484375 10.78125 32.3125 
Q 14.796875 37.15625 21.921875 38.8125 
z
M 18.3125 54.390625 
Q 18.3125 48.734375 21.84375 45.5625 
Q 25.390625 42.390625 31.78125 42.390625 
Q 38.140625 42.390625 41.71875 45.5625 
Q 45.3125 48.734375 45.3125 54.390625 
Q 45.3125 60.0625 41.71875 63.234375 
Q 38.140625 66.40625 31.78125 66.40625 
Q 25.390625 66.40625 21.84375 63.234375 
Q 18.3125 60.0625 18.3125 54.390625 
z
" id="DejaVuSans-38"/>
      </defs>
      <g transform="translate(355.283523 399.078438)scale(0.1 -0.1)">
       <use xlink:href="#DejaVuSans-38"/>
       <use x="63.623047" xlink:href="#DejaVuSans-30"/>
       <use x="127.246094" xlink:href="#DejaVuSans-30"/>
      </g>
     </g>
    </g>
    <g id="text_6">
     <!-- time [ms] -->
     <defs>
      <path d="M 18.3125 70.21875 
L 18.3125 54.6875 
L 36.8125 54.6875 
L 36.8125 47.703125 
L 18.3125 47.703125 
L 18.3125 18.015625 
Q 18.3125 11.328125 20.140625 9.421875 
Q 21.96875 7.515625 27.59375 7.515625 
L 36.8125 7.515625 
L 36.8125 0 
L 27.59375 0 
Q 17.1875 0 13.234375 3.875 
Q 9.28125 7.765625 9.28125 18.015625 
L 9.28125 47.703125 
L 2.6875 47.703125 
L 2.6875 54.6875 
L 9.28125 54.6875 
L 9.28125 70.21875 
z
" id="DejaVuSans-74"/>
      <path d="M 9.421875 54.6875 
L 18.40625 54.6875 
L 18.40625 0 
L 9.421875 0 
z
M 9.421875 75.984375 
L 18.40625 75.984375 
L 18.40625 64.59375 
L 9.421875 64.59375 
z
" id="DejaVuSans-69"/>
      <path d="M 52 44.1875 
Q 55.375 50.25 60.0625 53.125 
Q 64.75 56 71.09375 56 
Q 79.640625 56 84.28125 50.015625 
Q 88.921875 44.046875 88.921875 33.015625 
L 88.921875 0 
L 79.890625 0 
L 79.890625 32.71875 
Q 79.890625 40.578125 77.09375 44.375 
Q 74.3125 48.1875 68.609375 48.1875 
Q 61.625 48.1875 57.5625 43.546875 
Q 53.515625 38.921875 53.515625 30.90625 
L 53.515625 0 
L 44.484375 0 
L 44.484375 32.71875 
Q 44.484375 40.625 41.703125 44.40625 
Q 38.921875 48.1875 33.109375 48.1875 
Q 26.21875 48.1875 22.15625 43.53125 
Q 18.109375 38.875 18.109375 30.90625 
L 18.109375 0 
L 9.078125 0 
L 9.078125 54.6875 
L 18.109375 54.6875 
L 18.109375 46.1875 
Q 21.1875 51.21875 25.484375 53.609375 
Q 29.78125 56 35.6875 56 
Q 41.65625 56 45.828125 52.96875 
Q 50 49.953125 52 44.1875 
z
" id="DejaVuSans-6d"/>
      <path d="M 56.203125 29.59375 
L 56.203125 25.203125 
L 14.890625 25.203125 
Q 15.484375 15.921875 20.484375 11.0625 
Q 25.484375 6.203125 34.421875 6.203125 
Q 39.59375 6.203125 44.453125 7.46875 
Q 49.3125 8.734375 54.109375 11.28125 
L 54.109375 2.78125 
Q 49.265625 0.734375 44.1875 -0.34375 
Q 39.109375 -1.421875 33.890625 -1.421875 
Q 20.796875 -1.421875 13.15625 6.1875 
Q 5.515625 13.8125 5.515625 26.8125 
Q 5.515625 40.234375 12.765625 48.109375 
Q 20.015625 56 32.328125 56 
Q 43.359375 56 49.78125 48.890625 
Q 56.203125 41.796875 56.203125 29.59375 
z
M 47.21875 32.234375 
Q 47.125 39.59375 43.09375 43.984375 
Q 39.0625 48.390625 32.421875 48.390625 
Q 24.90625 48.390625 20.390625 44.140625 
Q 15.875 39.890625 15.1875 32.171875 
z
" id="DejaVuSans-65"/>
      <path id="DejaVuSans-20"/>
      <path d="M 8.59375 75.984375 
L 29.296875 75.984375 
L 29.296875 69 
L 17.578125 69 
L 17.578125 -6.203125 
L 29.296875 -6.203125 
L 29.296875 -13.1875 
L 8.59375 -13.1875 
z
" id="DejaVuSans-5b"/>
      <path d="M 44.28125 53.078125 
L 44.28125 44.578125 
Q 40.484375 46.53125 36.375 47.5 
Q 32.28125 48.484375 27.875 48.484375 
Q 21.1875 48.484375 17.84375 46.4375 
Q 14.5 44.390625 14.5 40.28125 
Q 14.5 37.15625 16.890625 35.375 
Q 19.28125 33.59375 26.515625 31.984375 
L 29.59375 31.296875 
Q 39.15625 29.25 43.1875 25.515625 
Q 47.21875 21.78125 47.21875 15.09375 
Q 47.21875 7.46875 41.1875 3.015625 
Q 35.15625 -1.421875 24.609375 -1.421875 
Q 20.21875 -1.421875 15.453125 -0.5625 
Q 10.6875 0.296875 5.421875 2 
L 5.421875 11.28125 
Q 10.40625 8.6875 15.234375 7.390625 
Q 20.0625 6.109375 24.8125 6.109375 
Q 31.15625 6.109375 34.5625 8.28125 
Q 37.984375 10.453125 37.984375 14.40625 
Q 37.984375 18.0625 35.515625 20.015625 
Q 33.0625 21.96875 24.703125 23.78125 
L 21.578125 24.515625 
Q 13.234375 26.265625 9.515625 29.90625 
Q 5.8125 33.546875 5.8125 39.890625 
Q 5.8125 47.609375 11.28125 51.796875 
Q 16.75 56 26.8125 56 
Q 31.78125 56 36.171875 55.265625 
Q 40.578125 54.546875 44.28125 53.078125 
z
" id="DejaVuSans-73"/>
      <path d="M 30.421875 75.984375 
L 30.421875 -13.1875 
L 9.71875 -13.1875 
L 9.71875 -6.203125 
L 21.390625 -6.203125 
L 21.390625 69 
L 9.71875 69 
L 9.71875 75.984375 
z
" id="DejaVuSans-5d"/>
     </defs>
     <g transform="translate(234.038281 412.756563)scale(0.1 -0.1)">
      <use xlink:href="#DejaVuSans-74"/>
      <use x="39.208984" xlink:href="#DejaVuSans-69"/>
      <use x="66.992188" xlink:href="#DejaVuSans-6d"/>
      <use x="164.404297" xlink:href="#DejaVuSans-65"/>
      <use x="225.927734" xlink:href="#DejaVuSans-20"/>
      <use x="257.714844" xlink:href="#DejaVuSans-5b"/>
      <use x="296.728516" xlink:href="#DejaVuSans-6d"/>
      <use x="394.140625" xlink:href="#DejaVuSans-73"/>
      <use x="446.240234" xlink:href="#DejaVuSans-5d"/>
     </g>
    </g>
   </g>
   <g id="matplotlib.axis_2">
    <g id="ytick_1">
     <g id="line2d_6">
      <defs>
       <path d="M 0 0 
L -3.5 0 
" id="m554a834912" style="stroke:#000000;stroke-width:0.8;"/>
      </defs>
      <g>
       <use style="stroke:#000000;stroke-width:0.8;" x="63" xlink:href="#m554a834912" y="378.445764"/>
      </g>
     </g>
     <g id="text_7">
      <!-- −80 -->
      <defs>
       <path d="M 10.59375 35.5 
L 73.1875 35.5 
L 73.1875 27.203125 
L 10.59375 27.203125 
z
" id="DejaVuSans-2212"/>
      </defs>
      <g transform="translate(34.895313 382.244983)scale(0.1 -0.1)">
       <use xlink:href="#DejaVuSans-2212"/>
       <use x="83.789062" xlink:href="#DejaVuSans-38"/>
       <use x="147.412109" xlink:href="#DejaVuSans-30"/>
      </g>
     </g>
    </g>
    <g id="ytick_2">
     <g id="line2d_7">
      <g>
       <use style="stroke:#000000;stroke-width:0.8;" x="63" xlink:href="#m554a834912" y="329.83586"/>
      </g>
     </g>
     <g id="text_8">
      <!-- −60 -->
      <g transform="translate(34.895313 333.635078)scale(0.1 -0.1)">
       <use xlink:href="#DejaVuSans-2212"/>
       <use x="83.789062" xlink:href="#DejaVuSans-36"/>
       <use x="147.412109" xlink:href="#DejaVuSans-30"/>
      </g>
     </g>
    </g>
    <g id="ytick_3">
     <g id="line2d_8">
      <g>
       <use style="stroke:#000000;stroke-width:0.8;" x="63" xlink:href="#m554a834912" y="281.225955"/>
      </g>
     </g>
     <g id="text_9">
      <!-- −40 -->
      <g transform="translate(34.895313 285.025174)scale(0.1 -0.1)">
       <use xlink:href="#DejaVuSans-2212"/>
       <use x="83.789062" xlink:href="#DejaVuSans-34"/>
       <use x="147.412109" xlink:href="#DejaVuSans-30"/>
      </g>
     </g>
    </g>
    <g id="ytick_4">
     <g id="line2d_9">
      <g>
       <use style="stroke:#000000;stroke-width:0.8;" x="63" xlink:href="#m554a834912" y="232.616051"/>
      </g>
     </g>
     <g id="text_10">
      <!-- −20 -->
      <g transform="translate(34.895313 236.41527)scale(0.1 -0.1)">
       <use xlink:href="#DejaVuSans-2212"/>
       <use x="83.789062" xlink:href="#DejaVuSans-32"/>
       <use x="147.412109" xlink:href="#DejaVuSans-30"/>
      </g>
     </g>
    </g>
    <g id="ytick_5">
     <g id="line2d_10">
      <g>
       <use style="stroke:#000000;stroke-width:0.8;" x="63" xlink:href="#m554a834912" y="184.006146"/>
      </g>
     </g>
     <g id="text_11">
      <!-- 0 -->
      <g transform="translate(49.6375 187.805365)scale(0.1 -0.1)">
       <use xlink:href="#DejaVuSans-30"/>
      </g>
     </g>
    </g>
    <g id="ytick_6">
     <g id="line2d_11">
      <g>
       <use style="stroke:#000000;stroke-width:0.8;" x="63" xlink:href="#m554a834912" y="135.396242"/>
      </g>
     </g>
     <g id="text_12">
      <!-- 20 -->
      <g transform="translate(43.275 139.195461)scale(0.1 -0.1)">
       <use xlink:href="#DejaVuSans-32"/>
       <use x="63.623047" xlink:href="#DejaVuSans-30"/>
      </g>
     </g>
    </g>
    <g id="ytick_7">
     <g id="line2d_12">
      <g>
       <use style="stroke:#000000;stroke-width:0.8;" x="63" xlink:href="#m554a834912" y="86.786338"/>
      </g>
     </g>
     <g id="text_13">
      <!-- 40 -->
      <g transform="translate(43.275 90.585556)scale(0.1 -0.1)">
       <use xlink:href="#DejaVuSans-34"/>
       <use x="63.623047" xlink:href="#DejaVuSans-30"/>
      </g>
     </g>
    </g>
    <g id="text_14">
     <!-- voltage [V] -->
     <defs>
      <path d="M 2.984375 54.6875 
L 12.5 54.6875 
L 29.59375 8.796875 
L 46.6875 54.6875 
L 56.203125 54.6875 
L 35.6875 0 
L 23.484375 0 
z
" id="DejaVuSans-76"/>
      <path d="M 30.609375 48.390625 
Q 23.390625 48.390625 19.1875 42.75 
Q 14.984375 37.109375 14.984375 27.296875 
Q 14.984375 17.484375 19.15625 11.84375 
Q 23.34375 6.203125 30.609375 6.203125 
Q 37.796875 6.203125 41.984375 11.859375 
Q 46.1875 17.53125 46.1875 27.296875 
Q 46.1875 37.015625 41.984375 42.703125 
Q 37.796875 48.390625 30.609375 48.390625 
z
M 30.609375 56 
Q 42.328125 56 49.015625 48.375 
Q 55.71875 40.765625 55.71875 27.296875 
Q 55.71875 13.875 49.015625 6.21875 
Q 42.328125 -1.421875 30.609375 -1.421875 
Q 18.84375 -1.421875 12.171875 6.21875 
Q 5.515625 13.875 5.515625 27.296875 
Q 5.515625 40.765625 12.171875 48.375 
Q 18.84375 56 30.609375 56 
z
" id="DejaVuSans-6f"/>
      <path d="M 9.421875 75.984375 
L 18.40625 75.984375 
L 18.40625 0 
L 9.421875 0 
z
" id="DejaVuSans-6c"/>
      <path d="M 34.28125 27.484375 
Q 23.390625 27.484375 19.1875 25 
Q 14.984375 22.515625 14.984375 16.5 
Q 14.984375 11.71875 18.140625 8.90625 
Q 21.296875 6.109375 26.703125 6.109375 
Q 34.1875 6.109375 38.703125 11.40625 
Q 43.21875 16.703125 43.21875 25.484375 
L 43.21875 27.484375 
z
M 52.203125 31.203125 
L 52.203125 0 
L 43.21875 0 
L 43.21875 8.296875 
Q 40.140625 3.328125 35.546875 0.953125 
Q 30.953125 -1.421875 24.3125 -1.421875 
Q 15.921875 -1.421875 10.953125 3.296875 
Q 6 8.015625 6 15.921875 
Q 6 25.140625 12.171875 29.828125 
Q 18.359375 34.515625 30.609375 34.515625 
L 43.21875 34.515625 
L 43.21875 35.40625 
Q 43.21875 41.609375 39.140625 45 
Q 35.0625 48.390625 27.6875 48.390625 
Q 23 48.390625 18.546875 47.265625 
Q 14.109375 46.140625 10.015625 43.890625 
L 10.015625 52.203125 
Q 14.9375 54.109375 19.578125 55.046875 
Q 24.21875 56 28.609375 56 
Q 40.484375 56 46.34375 49.84375 
Q 52.203125 43.703125 52.203125 31.203125 
z
" id="DejaVuSans-61"/>
      <path d="M 45.40625 27.984375 
Q 45.40625 37.75 41.375 43.109375 
Q 37.359375 48.484375 30.078125 48.484375 
Q 22.859375 48.484375 18.828125 43.109375 
Q 14.796875 37.75 14.796875 27.984375 
Q 14.796875 18.265625 18.828125 12.890625 
Q 22.859375 7.515625 30.078125 7.515625 
Q 37.359375 7.515625 41.375 12.890625 
Q 45.40625 18.265625 45.40625 27.984375 
z
M 54.390625 6.78125 
Q 54.390625 -7.171875 48.1875 -13.984375 
Q 42 -20.796875 29.203125 -20.796875 
Q 24.46875 -20.796875 20.265625 -20.09375 
Q 16.0625 -19.390625 12.109375 -17.921875 
L 12.109375 -9.1875 
Q 16.0625 -11.328125 19.921875 -12.34375 
Q 23.78125 -13.375 27.78125 -13.375 
Q 36.625 -13.375 41.015625 -8.765625 
Q 45.40625 -4.15625 45.40625 5.171875 
L 45.40625 9.625 
Q 42.625 4.78125 38.28125 2.390625 
Q 33.9375 0 27.875 0 
Q 17.828125 0 11.671875 7.65625 
Q 5.515625 15.328125 5.515625 27.984375 
Q 5.515625 40.671875 11.671875 48.328125 
Q 17.828125 56 27.875 56 
Q 33.9375 56 38.28125 53.609375 
Q 42.625 51.21875 45.40625 46.390625 
L 45.40625 54.6875 
L 54.390625 54.6875 
z
" id="DejaVuSans-67"/>
      <path d="M 28.609375 0 
L 0.78125 72.90625 
L 11.078125 72.90625 
L 34.1875 11.53125 
L 57.328125 72.90625 
L 67.578125 72.90625 
L 39.796875 0 
z
" id="DejaVuSans-56"/>
     </defs>
     <g transform="translate(28.815625 245.75375)rotate(-90)scale(0.1 -0.1)">
      <use xlink:href="#DejaVuSans-76"/>
      <use x="59.179688" xlink:href="#DejaVuSans-6f"/>
      <use x="120.361328" xlink:href="#DejaVuSans-6c"/>
      <use x="148.144531" xlink:href="#DejaVuSans-74"/>
      <use x="187.353516" xlink:href="#DejaVuSans-61"/>
      <use x="248.632812" xlink:href="#DejaVuSans-67"/>
      <use x="312.109375" xlink:href="#DejaVuSans-65"/>
      <use x="373.632812" xlink:href="#DejaVuSans-20"/>
      <use x="405.419922" xlink:href="#DejaVuSans-5b"/>
      <use x="444.433594" xlink:href="#DejaVuSans-56"/>
      <use x="512.841797" xlink:href="#DejaVuSans-5d"/>
     </g>
    </g>
   </g>
   <g id="line2d_13">
    <path clip-path="url(#pc9b76c876e)" d="M 80.754545 341.98833 
L 81.908591 342.009434 
L 88.655318 342.538 
L 101.190027 343.426876 
L 113.209855 344.049175 
L 126.614536 344.515176 
L 142.327309 344.831632 
L 151.772727 344.936479 
L 151.8615 343.471792 
L 152.234345 337.503653 
L 152.731473 333.3264 
L 153.565936 328.391158 
L 154.9863 321.436988 
L 156.726245 314.028166 
L 158.430682 307.702469 
L 160.046345 302.521753 
L 161.608745 298.237237 
L 163.1889 294.54917 
L 164.875582 291.170803 
L 167.503255 286.486785 
L 169.065655 283.480039 
L 169.900118 281.393726 
L 170.468264 279.328312 
L 170.841109 277.028885 
L 171.071918 274.061114 
L 171.1962 269.520011 
L 171.249464 263.699507 
L 171.622309 127.900549 
L 171.675573 126.204353 
L 171.746591 126.379016 
L 171.906382 135.675638 
L 172.190455 173.85105 
L 172.847373 259.562988 
L 173.220218 284.567015 
L 173.5398 293.534223 
L 173.912645 298.210243 
L 174.303245 300.656845 
L 174.782618 302.258946 
L 175.244236 303.088479 
L 175.723609 303.515947 
L 176.220736 303.643277 
L 176.771127 303.518301 
L 177.392536 303.135352 
L 178.209245 302.361758 
L 179.416555 300.873358 
L 181.724645 297.57189 
L 184.973727 293.014744 
L 187.636909 289.682627 
L 192.519409 283.682967 
L 193.566927 281.954021 
L 194.294864 280.319062 
L 194.791991 278.659426 
L 195.129327 276.808287 
L 195.377891 274.089306 
L 195.502173 270.606674 
L 195.573191 263.91748 
L 195.626455 244.00628 
L 195.839509 148.532249 
L 196.017055 142.279435 
L 196.034809 142.249351 
L 196.176845 144.958407 
L 196.407655 157.32982 
L 196.744991 192.68871 
L 197.437418 263.39083 
L 197.810264 281.309596 
L 198.200864 289.802234 
L 198.591464 293.885392 
L 199.070836 296.563493 
L 199.550209 298.134479 
L 200.1006 299.243904 
L 200.6865 299.931036 
L 201.254645 300.271239 
L 201.8583 300.381495 
L 202.568482 300.270261 
L 203.438455 299.884701 
L 204.574745 299.112878 
L 206.243673 297.679727 
L 216.186218 288.687013 
L 220.198745 285.179968 
L 221.832164 283.453663 
L 222.932945 281.971403 
L 223.678636 280.619435 
L 224.246782 279.130782 
L 224.655136 277.409105 
L 224.939209 275.156708 
L 225.116755 271.660806 
L 225.223282 264.582695 
L 225.578373 146.0429 
L 225.596127 145.955974 
L 225.649391 146.085554 
L 225.809182 150.054741 
L 226.111009 165.863714 
L 226.483855 199.662146 
L 227.211791 263.61188 
L 227.620145 279.539208 
L 227.992991 286.80712 
L 228.436855 291.269014 
L 228.933982 294.025632 
L 229.502127 295.916467 
L 230.123536 297.205499 
L 230.7627 298.023318 
L 231.419618 298.50489 
L 232.112045 298.733793 
L 232.893245 298.745131 
L 233.816482 298.520868 
L 234.988282 297.989168 
L 236.586191 297.000598 
L 239.302636 295.017457 
L 248.197664 288.416053 
L 251.872855 285.590193 
L 253.737082 283.885814 
L 254.9799 282.462116 
L 255.867627 281.117057 
L 256.506791 279.754963 
L 256.968409 278.264757 
L 257.305745 276.402024 
L 257.5188 274.06488 
L 257.643082 270.808825 
L 257.731855 262.067854 
L 257.767364 250.697765 
L 257.998173 150.276225 
L 258.122455 146.457663 
L 258.157964 146.89869 
L 258.264491 149.41873 
L 258.566318 164.20194 
L 258.956918 196.35167 
L 259.755873 263.489768 
L 260.181982 279.376774 
L 260.590336 286.722318 
L 261.016445 290.624878 
L 261.495818 293.102418 
L 262.028455 294.79916 
L 262.667618 296.094219 
L 263.342291 296.947183 
L 263.999209 297.442421 
L 264.709391 297.712826 
L 265.508345 297.778311 
L 266.484845 297.614485 
L 267.656645 297.178888 
L 269.254555 296.329152 
L 271.722436 294.735406 
L 282.073336 287.569723 
L 285.073855 285.295286 
L 286.831555 283.699946 
L 288.056618 282.295795 
L 288.908836 280.995585 
L 289.530245 279.661592 
L 289.991864 278.147137 
L 290.311445 276.356795 
L 290.542255 273.685083 
L 290.666536 269.775026 
L 290.737555 259.571492 
L 290.844082 194.880698 
L 291.003873 149.652378 
L 291.128155 146.670188 
L 291.163664 147.053958 
L 291.341209 152.453943 
L 291.643036 169.598911 
L 292.175673 217.373277 
L 292.761573 263.120951 
L 293.152173 278.01346 
L 293.560527 285.932473 
L 294.004391 290.237031 
L 294.501518 292.881267 
L 295.051909 294.64635 
L 295.691073 295.940274 
L 296.365745 296.794766 
L 297.040418 297.304357 
L 297.786109 297.583611 
L 298.585064 297.644717 
L 299.526055 297.492081 
L 300.751118 297.046883 
L 302.349027 296.211118 
L 304.799155 294.656979 
L 315.061282 287.656583 
L 318.150573 285.353669 
L 319.961536 283.739058 
L 321.1866 282.363863 
L 322.092082 281.009286 
L 322.713491 279.695191 
L 323.175109 278.218312 
L 323.5302 276.239471 
L 323.761009 273.405566 
L 323.885291 269.401126 
L 323.974064 248.038472 
L 324.204873 150.55602 
L 324.3114 146.512169 
L 324.346909 146.859262 
L 324.453436 149.046133 
L 324.755264 163.595973 
L 325.163618 196.668285 
L 325.962573 262.990803 
L 326.388682 278.939827 
L 326.797036 286.450867 
L 327.2409 290.554778 
L 327.738027 293.090034 
L 328.306173 294.829433 
L 328.927582 296.03034 
L 329.602255 296.848176 
L 330.276927 297.331307 
L 331.040373 297.592289 
L 331.839327 297.632353 
L 332.833582 297.447001 
L 334.094155 296.961611 
L 335.745327 296.07302 
L 338.461773 294.325018 
L 349.842436 286.528303 
L 352.221545 284.64008 
L 353.766191 283.141507 
L 354.831464 281.811554 
L 355.594909 280.52048 
L 356.163055 279.129433 
L 356.571409 277.544024 
L 356.873236 275.372249 
L 357.050782 272.565789 
L 357.157309 266.865656 
L 357.210573 254.834898 
L 357.476891 148.693898 
L 357.565664 146.630903 
L 357.618927 147.054711 
L 357.778718 151.79814 
L 358.116055 171.094355 
L 358.648691 219.29509 
L 359.216836 263.301952 
L 359.625191 278.743988 
L 360.033545 286.426772 
L 360.459655 290.483295 
L 360.939027 293.016521 
L 361.453909 294.67657 
L 362.057564 295.920576 
L 362.696727 296.759103 
L 363.3714 297.294228 
L 364.099336 297.588013 
L 364.880536 297.810418 
L 365.750509 308.061579 
L 366.389673 311.336034 
L 367.259645 314.647336 
L 368.271655 317.676225 
L 369.443455 320.499604 
L 370.739536 323.046289 
L 372.142145 325.32144 
L 373.686791 327.406752 
L 375.391227 329.328593 
L 377.273209 331.103804 
L 379.297227 332.705332 
L 381.552055 334.203424 
L 384.055445 335.596999 
L 386.896173 336.916866 
L 390.109745 338.156384 
L 393.731673 339.310652 
L 397.903991 340.401374 
L 402.697718 341.4181 
L 408.166118 342.345991 
L 414.415718 343.177071 
L 421.535291 343.895792 
L 429.649118 344.487705 
L 435.8277 344.811347 
L 435.8277 344.811347 
" style="fill:none;stroke:#1f77b4;stroke-linecap:square;stroke-width:1.5;"/>
   </g>
   <g id="line2d_14">
    <path clip-path="url(#pc9b76c876e)" d="M 80.754545 341.988336 
L 80.9676 341.865545 
L 81.677782 341.783648 
L 83.808327 341.819752 
L 105.220309 342.567401 
L 118.553973 342.62773 
L 151.772727 342.530033 
L 151.985782 335.154081 
L 152.411891 328.429996 
L 153.086564 321.342775 
L 154.045309 313.634229 
L 155.092827 306.918833 
L 156.140345 301.583967 
L 157.241127 297.118335 
L 158.945564 291.310893 
L 159.709009 288.254697 
L 160.099609 285.765839 
L 160.330418 282.74742 
L 160.4547 277.681559 
L 160.507964 264.938042 
L 160.561227 66.96 
L 160.667755 160.177651 
L 161.129373 365.409394 
L 161.360182 368.443893 
L 161.608745 369.243908 
L 161.839555 369.358605 
L 162.088118 369.220918 
L 162.443209 368.727423 
L 162.922582 367.631352 
L 163.526236 365.653412 
L 164.254173 362.459327 
L 165.1419 357.490917 
L 166.295945 349.661345 
L 168.515264 332.67933 
L 170.486018 318.398717 
L 171.817609 310.302647 
L 172.971655 304.585835 
L 174.090191 300.140366 
L 175.279745 296.327296 
L 178.280264 287.265608 
L 178.6176 285.017995 
L 178.8129 282.297739 
L 178.919427 278.161834 
L 178.972691 269.223308 
L 179.0082 171.70253 
L 179.043709 70.880288 
L 179.114727 142.678373 
L 179.540836 362.739414 
L 179.771645 367.34372 
L 180.020209 368.738244 
L 180.251018 369.04883 
L 180.481827 369.014807 
L 180.783655 368.694297 
L 181.209764 367.863923 
L 181.760155 366.262941 
L 182.452582 363.503418 
L 183.287045 359.186101 
L 184.352318 352.390577 
L 186.003491 340.197981 
L 188.737691 320.132044 
L 190.104791 311.759339 
L 191.276591 305.88329 
L 192.395127 301.377462 
L 193.531418 297.70356 
L 194.880764 294.114364 
L 196.887027 288.852015 
L 197.401909 286.741909 
L 197.703736 284.584752 
L 197.899036 281.413645 
L 197.987809 276.885967 
L 198.041073 259.735516 
L 198.094336 69.7302 
L 198.183109 152.983984 
L 198.626973 363.574303 
L 198.875536 367.45992 
L 199.141855 368.702078 
L 199.372664 368.949221 
L 199.603473 368.884521 
L 199.9053 368.531761 
L 200.331409 367.660207 
L 200.899555 365.94606 
L 201.591982 363.105519 
L 202.4442 358.602722 
L 203.544982 351.48056 
L 205.391455 337.797903 
L 207.752809 320.719421 
L 209.137664 312.295909 
L 210.327218 306.377543 
L 211.445755 301.912875 
L 212.582045 298.284745 
L 213.860373 294.960076 
L 216.559064 288.238473 
L 217.002927 286.296585 
L 217.287 284.032484 
L 217.446791 281.099739 
L 217.535564 275.817697 
L 217.571073 266.393624 
L 217.624336 69.037176 
L 217.748618 168.902025 
L 218.210236 364.255898 
L 218.476555 367.441571 
L 218.742873 368.444928 
L 218.973682 368.635649 
L 219.204491 368.54075 
L 219.524073 368.123984 
L 219.967936 367.141703 
L 220.553836 365.259662 
L 221.281773 362.108419 
L 222.1695 357.207847 
L 223.359055 349.275597 
L 228.454609 313.693828 
L 229.661918 307.56241 
L 230.780455 302.99103 
L 231.898991 299.337271 
L 233.1063 296.153972 
L 234.721964 292.575214 
L 236.160082 289.262867 
L 236.745982 287.350677 
L 237.118827 285.353622 
L 237.349636 282.833049 
L 237.473918 279.19969 
L 237.544936 269.408251 
L 237.580445 178.861291 
L 237.615955 70.828313 
L 237.686973 142.466407 
L 238.113082 362.355298 
L 238.343891 366.517946 
L 238.627964 368.19307 
L 238.876527 368.614383 
L 239.089582 368.626758 
L 239.3559 368.391517 
L 239.7465 367.698234 
L 240.279136 366.234156 
L 240.936055 363.727342 
L 241.752764 359.660839 
L 242.782527 353.312197 
L 244.362682 341.983942 
L 247.256673 321.239302 
L 248.641527 312.986634 
L 249.831082 307.182336 
L 250.949618 302.80039 
L 252.068155 299.302186 
L 253.275464 296.25694 
L 254.820109 293.001801 
L 256.560055 289.283183 
L 257.163709 287.440379 
L 257.536555 285.616412 
L 257.785118 283.242731 
L 257.927155 279.66993 
L 257.998173 272.394358 
L 258.033682 237.991657 
L 258.069191 68.252709 
L 258.140209 135.967035 
L 258.566318 362.026476 
L 258.797127 366.376788 
L 259.0812 368.087388 
L 259.329764 368.53721 
L 259.560573 368.559757 
L 259.826891 368.3235 
L 260.217491 367.627659 
L 260.750127 366.158747 
L 261.407045 363.646038 
L 262.223755 359.576271 
L 263.271273 353.117255 
L 264.904691 341.428065 
L 267.656645 321.836276 
L 269.0415 313.594206 
L 270.231055 307.780911 
L 271.349591 303.38455 
L 272.450373 299.928486 
L 273.622173 296.968158 
L 275.007027 294.083677 
L 277.6347 288.768726 
L 278.185091 286.987536 
L 278.522427 285.156888 
L 278.735482 282.84715 
L 278.859764 279.364629 
L 278.930782 270.651806 
L 278.966291 207.43008 
L 279.0018 69.667514 
L 279.072818 140.722771 
L 279.498927 362.526382 
L 279.729736 366.641766 
L 280.013809 368.277658 
L 280.262373 368.698381 
L 280.493182 368.711446 
L 280.7595 368.471325 
L 281.1501 367.775584 
L 281.682736 366.312812 
L 282.357409 363.735443 
L 283.174118 359.664652 
L 284.221636 353.214613 
L 285.872809 341.431649 
L 288.5715 322.309703 
L 289.974109 313.990024 
L 291.163664 308.19625 
L 292.2822 303.810969 
L 293.382982 300.366227 
L 294.537027 297.468282 
L 295.868618 294.734481 
L 299.241982 288.155806 
L 299.7036 286.509255 
L 300.005427 284.640891 
L 300.200727 282.036705 
L 300.307255 277.872272 
L 300.360518 268.208866 
L 300.396027 149.941452 
L 300.413782 72.279995 
L 300.502555 144.19325 
L 300.928664 362.467303 
L 301.159473 366.535224 
L 301.443545 368.160883 
L 301.692109 368.567056 
L 301.922918 368.572345 
L 302.206991 368.300594 
L 302.597591 367.577411 
L 303.130227 366.081347 
L 303.8049 363.466628 
L 304.639364 359.262108 
L 305.704636 352.65663 
L 307.462336 340.111229 
L 309.947973 322.684211 
L 311.350582 314.410256 
L 312.557891 308.560601 
L 313.676427 304.200101 
L 314.777209 300.775069 
L 315.931255 297.901999 
L 317.209582 295.314506 
L 318.985036 292.269303 
L 320.582945 289.421304 
L 321.257618 287.757882 
L 321.683727 286.124233 
L 321.9678 284.131152 
L 322.145345 281.204161 
L 322.234118 276.488649 
L 322.287382 255.419412 
L 322.340645 71.004504 
L 322.411664 142.628566 
L 322.837773 362.523224 
L 323.068582 366.626731 
L 323.352655 368.2588 
L 323.601218 368.661742 
L 323.832027 368.666611 
L 324.1161 368.396305 
L 324.5067 367.677476 
L 325.039336 366.190582 
L 325.714009 363.591032 
L 326.548473 359.408504 
L 327.613745 352.833813 
L 329.371445 340.343502 
L 331.839327 323.110614 
L 333.241936 314.853181 
L 334.449245 309.004305 
L 335.567782 304.638046 
L 336.668564 301.208551 
L 337.804855 298.379365 
L 339.047673 295.873909 
L 340.610073 293.248118 
L 343.042445 289.212944 
L 343.699364 287.613838 
L 344.125473 285.966354 
L 344.391791 284.064879 
L 344.569336 281.078921 
L 344.658109 276.036707 
L 344.693618 267.442365 
L 344.729127 133.041899 
L 344.746882 70.657374 
L 344.835655 145.354985 
L 345.261764 362.515632 
L 345.510327 366.739624 
L 345.7944 368.243648 
L 346.042964 368.598426 
L 346.273773 368.579565 
L 346.557845 368.288877 
L 346.9662 367.506075 
L 347.516591 365.915386 
L 348.209018 363.167952 
L 349.061236 358.796403 
L 350.179773 351.775555 
L 352.203791 337.323488 
L 354.334336 322.727256 
L 355.736945 314.618586 
L 356.944255 308.894698 
L 358.062791 304.629199 
L 359.163573 301.281168 
L 360.299864 298.521189 
L 361.542682 296.083347 
L 363.034064 293.658984 
L 364.827273 291.006424 
L 365.040327 298.455596 
L 365.413173 304.038512 
L 365.928055 308.536218 
L 366.638236 312.758469 
L 367.525964 316.701651 
L 368.591236 320.42312 
L 369.798545 323.839045 
L 371.147891 326.990805 
L 372.621518 329.869696 
L 374.219427 332.507381 
L 375.941618 334.926784 
L 377.805845 337.163555 
L 379.794355 339.201791 
L 381.889391 341.031862 
L 384.090955 342.659597 
L 386.363536 344.065299 
L 388.724891 345.265182 
L 391.157264 346.252978 
L 393.696164 347.043745 
L 396.359345 347.63967 
L 399.217827 348.049261 
L 402.360382 348.271629 
L 405.982309 348.299204 
L 410.527473 348.100059 
L 418.108664 347.507869 
L 428.885673 346.713434 
L 435.845455 346.389079 
L 435.845455 346.389079 
" style="fill:none;stroke:#ff0000;stroke-linecap:square;stroke-width:1.5;"/>
   </g>
   <g id="patch_3">
    <path d="M 63 384.48 
L 63 51.84 
" style="fill:none;stroke:#000000;stroke-linecap:square;stroke-linejoin:miter;stroke-width:0.8;"/>
   </g>
   <g id="patch_4">
    <path d="M 453.6 384.48 
L 453.6 51.84 
" style="fill:none;stroke:#000000;stroke-linecap:square;stroke-linejoin:miter;stroke-width:0.8;"/>
   </g>
   <g id="patch_5">
    <path d="M 63 384.48 
L 453.6 384.48 
" style="fill:none;stroke:#000000;stroke-linecap:square;stroke-linejoin:miter;stroke-width:0.8;"/>
   </g>
   <g id="patch_6">
    <path d="M 63 51.84 
L 453.6 51.84 
" style="fill:none;stroke:#000000;stroke-linecap:square;stroke-linejoin:miter;stroke-width:0.8;"/>
   </g>
   <g id="legend_1">
    <g id="patch_7">
     <path d="M 383.460938 89.19625 
L 446.6 89.19625 
Q 448.6 89.19625 448.6 87.19625 
L 448.6 58.84 
Q 448.6 56.84 446.6 56.84 
L 383.460938 56.84 
Q 381.460938 56.84 381.460938 58.84 
L 381.460938 87.19625 
Q 381.460938 89.19625 383.460938 89.19625 
z
" style="fill:#ffffff;opacity:0.8;stroke:#cccccc;stroke-linejoin:miter;"/>
    </g>
    <g id="line2d_15">
     <path d="M 385.460938 64.938437 
L 405.460938 64.938437 
" style="fill:none;stroke:#1f77b4;stroke-linecap:square;stroke-width:1.5;"/>
    </g>
    <g id="line2d_16"/>
    <g id="text_15">
     <!-- target -->
     <defs>
      <path d="M 41.109375 46.296875 
Q 39.59375 47.171875 37.8125 47.578125 
Q 36.03125 48 33.890625 48 
Q 26.265625 48 22.1875 43.046875 
Q 18.109375 38.09375 18.109375 28.8125 
L 18.109375 0 
L 9.078125 0 
L 9.078125 54.6875 
L 18.109375 54.6875 
L 18.109375 46.1875 
Q 20.953125 51.171875 25.484375 53.578125 
Q 30.03125 56 36.53125 56 
Q 37.453125 56 38.578125 55.875 
Q 39.703125 55.765625 41.0625 55.515625 
z
" id="DejaVuSans-72"/>
     </defs>
     <g transform="translate(413.460938 68.438437)scale(0.1 -0.1)">
      <use xlink:href="#DejaVuSans-74"/>
      <use x="39.208984" xlink:href="#DejaVuSans-61"/>
      <use x="100.488281" xlink:href="#DejaVuSans-72"/>
      <use x="141.585938" xlink:href="#DejaVuSans-67"/>
      <use x="205.0625" xlink:href="#DejaVuSans-65"/>
      <use x="266.585938" xlink:href="#DejaVuSans-74"/>
     </g>
    </g>
    <g id="line2d_17">
     <path d="M 385.460938 79.616562 
L 405.460938 79.616562 
" style="fill:none;stroke:#ff0000;stroke-linecap:square;stroke-width:1.5;"/>
    </g>
    <g id="line2d_18"/>
    <g id="text_16">
     <!-- model -->
     <defs>
      <path d="M 45.40625 46.390625 
L 45.40625 75.984375 
L 54.390625 75.984375 
L 54.390625 0 
L 45.40625 0 
L 45.40625 8.203125 
Q 42.578125 3.328125 38.25 0.953125 
Q 33.9375 -1.421875 27.875 -1.421875 
Q 17.96875 -1.421875 11.734375 6.484375 
Q 5.515625 14.40625 5.515625 27.296875 
Q 5.515625 40.1875 11.734375 48.09375 
Q 17.96875 56 27.875 56 
Q 33.9375 56 38.25 53.625 
Q 42.578125 51.265625 45.40625 46.390625 
z
M 14.796875 27.296875 
Q 14.796875 17.390625 18.875 11.75 
Q 22.953125 6.109375 30.078125 6.109375 
Q 37.203125 6.109375 41.296875 11.75 
Q 45.40625 17.390625 45.40625 27.296875 
Q 45.40625 37.203125 41.296875 42.84375 
Q 37.203125 48.484375 30.078125 48.484375 
Q 22.953125 48.484375 18.875 42.84375 
Q 14.796875 37.203125 14.796875 27.296875 
z
" id="DejaVuSans-64"/>
     </defs>
     <g transform="translate(413.460938 83.116562)scale(0.1 -0.1)">
      <use xlink:href="#DejaVuSans-6d"/>
      <use x="97.412109" xlink:href="#DejaVuSans-6f"/>
      <use x="158.59375" xlink:href="#DejaVuSans-64"/>
      <use x="222.070312" xlink:href="#DejaVuSans-65"/>
      <use x="283.59375" xlink:href="#DejaVuSans-6c"/>
     </g>
    </g>
   </g>
  </g>
 </g>
 <defs>
  <clipPath id="pc9b76c876e">
   <rect height="332.64" width="390.6" x="63" y="51.84"/>
  </clipPath>
 </defs>
</svg>
