<?xml version="1.0" encoding="utf-8" standalone="no"?>
<!DOCTYPE svg PUBLIC "-//W3C//DTD SVG 1.1//EN"
  "http://www.w3.org/Graphics/SVG/1.1/DTD/svg11.dtd">
<!-- Created with matplotlib (https://matplotlib.org/) -->
<svg height="432pt" version="1.1" viewBox="0 0 504 432" width="504pt" xmlns="http://www.w3.org/2000/svg" xmlns:xlink="http://www.w3.org/1999/xlink">
 <defs>
  <style type="text/css">
*{stroke-linecap:butt;stroke-linejoin:round;}
  </style>
 </defs>
 <g id="figure_1">
  <g id="patch_1">
   <path d="M 0 432 
L 504 432 
L 504 0 
L 0 0 
z
" style="fill:#ffffff;"/>
  </g>
  <g id="axes_1">
   <g id="patch_2">
    <path d="M 63 384.48 
L 453.6 384.48 
L 453.6 51.84 
L 63 51.84 
z
" style="fill:#ffffff;"/>
   </g>
   <g id="matplotlib.axis_1">
    <g id="xtick_1">
     <g id="line2d_1">
      <defs>
       <path d="M 0 0 
L 0 3.5 
" id="mcba2aec7a3" style="stroke:#000000;stroke-width:0.8;"/>
      </defs>
      <g>
       <use style="stroke:#000000;stroke-width:0.8;" x="80.754545" xlink:href="#mcba2aec7a3" y="384.48"/>
      </g>
     </g>
     <g id="text_1">
      <!-- 0 -->
      <defs>
       <path d="M 31.78125 66.40625 
Q 24.171875 66.40625 20.328125 58.90625 
Q 16.5 51.421875 16.5 36.375 
Q 16.5 21.390625 20.328125 13.890625 
Q 24.171875 6.390625 31.78125 6.390625 
Q 39.453125 6.390625 43.28125 13.890625 
Q 47.125 21.390625 47.125 36.375 
Q 47.125 51.421875 43.28125 58.90625 
Q 39.453125 66.40625 31.78125 66.40625 
z
M 31.78125 74.21875 
Q 44.046875 74.21875 50.515625 64.515625 
Q 56.984375 54.828125 56.984375 36.375 
Q 56.984375 17.96875 50.515625 8.265625 
Q 44.046875 -1.421875 31.78125 -1.421875 
Q 19.53125 -1.421875 13.0625 8.265625 
Q 6.59375 17.96875 6.59375 36.375 
Q 6.59375 54.828125 13.0625 64.515625 
Q 19.53125 74.21875 31.78125 74.21875 
z
" id="DejaVuSans-48"/>
      </defs>
      <g transform="translate(77.573295 399.078438)scale(0.1 -0.1)">
       <use xlink:href="#DejaVuSans-48"/>
      </g>
     </g>
    </g>
    <g id="xtick_2">
     <g id="line2d_2">
      <g>
       <use style="stroke:#000000;stroke-width:0.8;" x="151.763044" xlink:href="#mcba2aec7a3" y="384.48"/>
      </g>
     </g>
     <g id="text_2">
      <!-- 880 -->
      <defs>
       <path d="M 31.78125 34.625 
Q 24.75 34.625 20.71875 30.859375 
Q 16.703125 27.09375 16.703125 20.515625 
Q 16.703125 13.921875 20.71875 10.15625 
Q 24.75 6.390625 31.78125 6.390625 
Q 38.8125 6.390625 42.859375 10.171875 
Q 46.921875 13.96875 46.921875 20.515625 
Q 46.921875 27.09375 42.890625 30.859375 
Q 38.875 34.625 31.78125 34.625 
z
M 21.921875 38.8125 
Q 15.578125 40.375 12.03125 44.71875 
Q 8.5 49.078125 8.5 55.328125 
Q 8.5 64.0625 14.71875 69.140625 
Q 20.953125 74.21875 31.78125 74.21875 
Q 42.671875 74.21875 48.875 69.140625 
Q 55.078125 64.0625 55.078125 55.328125 
Q 55.078125 49.078125 51.53125 44.71875 
Q 48 40.375 41.703125 38.8125 
Q 48.828125 37.15625 52.796875 32.3125 
Q 56.78125 27.484375 56.78125 20.515625 
Q 56.78125 9.90625 50.3125 4.234375 
Q 43.84375 -1.421875 31.78125 -1.421875 
Q 19.734375 -1.421875 13.25 4.234375 
Q 6.78125 9.90625 6.78125 20.515625 
Q 6.78125 27.484375 10.78125 32.3125 
Q 14.796875 37.15625 21.921875 38.8125 
z
M 18.3125 54.390625 
Q 18.3125 48.734375 21.84375 45.5625 
Q 25.390625 42.390625 31.78125 42.390625 
Q 38.140625 42.390625 41.71875 45.5625 
Q 45.3125 48.734375 45.3125 54.390625 
Q 45.3125 60.0625 41.71875 63.234375 
Q 38.140625 66.40625 31.78125 66.40625 
Q 25.390625 66.40625 21.84375 63.234375 
Q 18.3125 60.0625 18.3125 54.390625 
z
" id="DejaVuSans-56"/>
      </defs>
      <g transform="translate(142.219294 399.078438)scale(0.1 -0.1)">
       <use xlink:href="#DejaVuSans-56"/>
       <use x="63.623047" xlink:href="#DejaVuSans-56"/>
       <use x="127.246094" xlink:href="#DejaVuSans-48"/>
      </g>
     </g>
    </g>
    <g id="xtick_3">
     <g id="line2d_3">
      <g>
       <use style="stroke:#000000;stroke-width:0.8;" x="222.771543" xlink:href="#mcba2aec7a3" y="384.48"/>
      </g>
     </g>
     <g id="text_3">
      <!-- 1760 -->
      <defs>
       <path d="M 12.40625 8.296875 
L 28.515625 8.296875 
L 28.515625 63.921875 
L 10.984375 60.40625 
L 10.984375 69.390625 
L 28.421875 72.90625 
L 38.28125 72.90625 
L 38.28125 8.296875 
L 54.390625 8.296875 
L 54.390625 0 
L 12.40625 0 
z
" id="DejaVuSans-49"/>
       <path d="M 8.203125 72.90625 
L 55.078125 72.90625 
L 55.078125 68.703125 
L 28.609375 0 
L 18.3125 0 
L 43.21875 64.59375 
L 8.203125 64.59375 
z
" id="DejaVuSans-55"/>
       <path d="M 33.015625 40.375 
Q 26.375 40.375 22.484375 35.828125 
Q 18.609375 31.296875 18.609375 23.390625 
Q 18.609375 15.53125 22.484375 10.953125 
Q 26.375 6.390625 33.015625 6.390625 
Q 39.65625 6.390625 43.53125 10.953125 
Q 47.40625 15.53125 47.40625 23.390625 
Q 47.40625 31.296875 43.53125 35.828125 
Q 39.65625 40.375 33.015625 40.375 
z
M 52.59375 71.296875 
L 52.59375 62.3125 
Q 48.875 64.0625 45.09375 64.984375 
Q 41.3125 65.921875 37.59375 65.921875 
Q 27.828125 65.921875 22.671875 59.328125 
Q 17.53125 52.734375 16.796875 39.40625 
Q 19.671875 43.65625 24.015625 45.921875 
Q 28.375 48.1875 33.59375 48.1875 
Q 44.578125 48.1875 50.953125 41.515625 
Q 57.328125 34.859375 57.328125 23.390625 
Q 57.328125 12.15625 50.6875 5.359375 
Q 44.046875 -1.421875 33.015625 -1.421875 
Q 20.359375 -1.421875 13.671875 8.265625 
Q 6.984375 17.96875 6.984375 36.375 
Q 6.984375 53.65625 15.1875 63.9375 
Q 23.390625 74.21875 37.203125 74.21875 
Q 40.921875 74.21875 44.703125 73.484375 
Q 48.484375 72.75 52.59375 71.296875 
z
" id="DejaVuSans-54"/>
      </defs>
      <g transform="translate(210.046543 399.078438)scale(0.1 -0.1)">
       <use xlink:href="#DejaVuSans-49"/>
       <use x="63.623047" xlink:href="#DejaVuSans-55"/>
       <use x="127.246094" xlink:href="#DejaVuSans-54"/>
       <use x="190.869141" xlink:href="#DejaVuSans-48"/>
      </g>
     </g>
    </g>
    <g id="xtick_4">
     <g id="line2d_4">
      <g>
       <use style="stroke:#000000;stroke-width:0.8;" x="293.780042" xlink:href="#mcba2aec7a3" y="384.48"/>
      </g>
     </g>
     <g id="text_4">
      <!-- 2640 -->
      <defs>
       <path d="M 19.1875 8.296875 
L 53.609375 8.296875 
L 53.609375 0 
L 7.328125 0 
L 7.328125 8.296875 
Q 12.9375 14.109375 22.625 23.890625 
Q 32.328125 33.6875 34.8125 36.53125 
Q 39.546875 41.84375 41.421875 45.53125 
Q 43.3125 49.21875 43.3125 52.78125 
Q 43.3125 58.59375 39.234375 62.25 
Q 35.15625 65.921875 28.609375 65.921875 
Q 23.96875 65.921875 18.8125 64.3125 
Q 13.671875 62.703125 7.8125 59.421875 
L 7.8125 69.390625 
Q 13.765625 71.78125 18.9375 73 
Q 24.125 74.21875 28.421875 74.21875 
Q 39.75 74.21875 46.484375 68.546875 
Q 53.21875 62.890625 53.21875 53.421875 
Q 53.21875 48.921875 51.53125 44.890625 
Q 49.859375 40.875 45.40625 35.40625 
Q 44.1875 33.984375 37.640625 27.21875 
Q 31.109375 20.453125 19.1875 8.296875 
z
" id="DejaVuSans-50"/>
       <path d="M 37.796875 64.3125 
L 12.890625 25.390625 
L 37.796875 25.390625 
z
M 35.203125 72.90625 
L 47.609375 72.90625 
L 47.609375 25.390625 
L 58.015625 25.390625 
L 58.015625 17.1875 
L 47.609375 17.1875 
L 47.609375 0 
L 37.796875 0 
L 37.796875 17.1875 
L 4.890625 17.1875 
L 4.890625 26.703125 
z
" id="DejaVuSans-52"/>
      </defs>
      <g transform="translate(281.055042 399.078438)scale(0.1 -0.1)">
       <use xlink:href="#DejaVuSans-50"/>
       <use x="63.623047" xlink:href="#DejaVuSans-54"/>
       <use x="127.246094" xlink:href="#DejaVuSans-52"/>
       <use x="190.869141" xlink:href="#DejaVuSans-48"/>
      </g>
     </g>
    </g>
    <g id="xtick_5">
     <g id="line2d_5">
      <g>
       <use style="stroke:#000000;stroke-width:0.8;" x="364.788541" xlink:href="#mcba2aec7a3" y="384.48"/>
      </g>
     </g>
     <g id="text_5">
      <!-- 3520 -->
      <defs>
       <path d="M 40.578125 39.3125 
Q 47.65625 37.796875 51.625 33 
Q 55.609375 28.21875 55.609375 21.1875 
Q 55.609375 10.40625 48.1875 4.484375 
Q 40.765625 -1.421875 27.09375 -1.421875 
Q 22.515625 -1.421875 17.65625 -0.515625 
Q 12.796875 0.390625 7.625 2.203125 
L 7.625 11.71875 
Q 11.71875 9.328125 16.59375 8.109375 
Q 21.484375 6.890625 26.8125 6.890625 
Q 36.078125 6.890625 40.9375 10.546875 
Q 45.796875 14.203125 45.796875 21.1875 
Q 45.796875 27.640625 41.28125 31.265625 
Q 36.765625 34.90625 28.71875 34.90625 
L 20.21875 34.90625 
L 20.21875 43.015625 
L 29.109375 43.015625 
Q 36.375 43.015625 40.234375 45.921875 
Q 44.09375 48.828125 44.09375 54.296875 
Q 44.09375 59.90625 40.109375 62.90625 
Q 36.140625 65.921875 28.71875 65.921875 
Q 24.65625 65.921875 20.015625 65.03125 
Q 15.375 64.15625 9.8125 62.3125 
L 9.8125 71.09375 
Q 15.4375 72.65625 20.34375 73.4375 
Q 25.25 74.21875 29.59375 74.21875 
Q 40.828125 74.21875 47.359375 69.109375 
Q 53.90625 64.015625 53.90625 55.328125 
Q 53.90625 49.265625 50.4375 45.09375 
Q 46.96875 40.921875 40.578125 39.3125 
z
" id="DejaVuSans-51"/>
       <path d="M 10.796875 72.90625 
L 49.515625 72.90625 
L 49.515625 64.59375 
L 19.828125 64.59375 
L 19.828125 46.734375 
Q 21.96875 47.46875 24.109375 47.828125 
Q 26.265625 48.1875 28.421875 48.1875 
Q 40.625 48.1875 47.75 41.5 
Q 54.890625 34.8125 54.890625 23.390625 
Q 54.890625 11.625 47.5625 5.09375 
Q 40.234375 -1.421875 26.90625 -1.421875 
Q 22.3125 -1.421875 17.546875 -0.640625 
Q 12.796875 0.140625 7.71875 1.703125 
L 7.71875 11.625 
Q 12.109375 9.234375 16.796875 8.0625 
Q 21.484375 6.890625 26.703125 6.890625 
Q 35.15625 6.890625 40.078125 11.328125 
Q 45.015625 15.765625 45.015625 23.390625 
Q 45.015625 31 40.078125 35.4375 
Q 35.15625 39.890625 26.703125 39.890625 
Q 22.75 39.890625 18.8125 39.015625 
Q 14.890625 38.140625 10.796875 36.28125 
z
" id="DejaVuSans-53"/>
      </defs>
      <g transform="translate(352.063541 399.078438)scale(0.1 -0.1)">
       <use xlink:href="#DejaVuSans-51"/>
       <use x="63.623047" xlink:href="#DejaVuSans-53"/>
       <use x="127.246094" xlink:href="#DejaVuSans-50"/>
       <use x="190.869141" xlink:href="#DejaVuSans-48"/>
      </g>
     </g>
    </g>
    <g id="text_6">
     <!-- time [ms] -->
     <defs>
      <path d="M 18.3125 70.21875 
L 18.3125 54.6875 
L 36.8125 54.6875 
L 36.8125 47.703125 
L 18.3125 47.703125 
L 18.3125 18.015625 
Q 18.3125 11.328125 20.140625 9.421875 
Q 21.96875 7.515625 27.59375 7.515625 
L 36.8125 7.515625 
L 36.8125 0 
L 27.59375 0 
Q 17.1875 0 13.234375 3.875 
Q 9.28125 7.765625 9.28125 18.015625 
L 9.28125 47.703125 
L 2.6875 47.703125 
L 2.6875 54.6875 
L 9.28125 54.6875 
L 9.28125 70.21875 
z
" id="DejaVuSans-116"/>
      <path d="M 9.421875 54.6875 
L 18.40625 54.6875 
L 18.40625 0 
L 9.421875 0 
z
M 9.421875 75.984375 
L 18.40625 75.984375 
L 18.40625 64.59375 
L 9.421875 64.59375 
z
" id="DejaVuSans-105"/>
      <path d="M 52 44.1875 
Q 55.375 50.25 60.0625 53.125 
Q 64.75 56 71.09375 56 
Q 79.640625 56 84.28125 50.015625 
Q 88.921875 44.046875 88.921875 33.015625 
L 88.921875 0 
L 79.890625 0 
L 79.890625 32.71875 
Q 79.890625 40.578125 77.09375 44.375 
Q 74.3125 48.1875 68.609375 48.1875 
Q 61.625 48.1875 57.5625 43.546875 
Q 53.515625 38.921875 53.515625 30.90625 
L 53.515625 0 
L 44.484375 0 
L 44.484375 32.71875 
Q 44.484375 40.625 41.703125 44.40625 
Q 38.921875 48.1875 33.109375 48.1875 
Q 26.21875 48.1875 22.15625 43.53125 
Q 18.109375 38.875 18.109375 30.90625 
L 18.109375 0 
L 9.078125 0 
L 9.078125 54.6875 
L 18.109375 54.6875 
L 18.109375 46.1875 
Q 21.1875 51.21875 25.484375 53.609375 
Q 29.78125 56 35.6875 56 
Q 41.65625 56 45.828125 52.96875 
Q 50 49.953125 52 44.1875 
z
" id="DejaVuSans-109"/>
      <path d="M 56.203125 29.59375 
L 56.203125 25.203125 
L 14.890625 25.203125 
Q 15.484375 15.921875 20.484375 11.0625 
Q 25.484375 6.203125 34.421875 6.203125 
Q 39.59375 6.203125 44.453125 7.46875 
Q 49.3125 8.734375 54.109375 11.28125 
L 54.109375 2.78125 
Q 49.265625 0.734375 44.1875 -0.34375 
Q 39.109375 -1.421875 33.890625 -1.421875 
Q 20.796875 -1.421875 13.15625 6.1875 
Q 5.515625 13.8125 5.515625 26.8125 
Q 5.515625 40.234375 12.765625 48.109375 
Q 20.015625 56 32.328125 56 
Q 43.359375 56 49.78125 48.890625 
Q 56.203125 41.796875 56.203125 29.59375 
z
M 47.21875 32.234375 
Q 47.125 39.59375 43.09375 43.984375 
Q 39.0625 48.390625 32.421875 48.390625 
Q 24.90625 48.390625 20.390625 44.140625 
Q 15.875 39.890625 15.1875 32.171875 
z
" id="DejaVuSans-101"/>
      <path id="DejaVuSans-32"/>
      <path d="M 8.59375 75.984375 
L 29.296875 75.984375 
L 29.296875 69 
L 17.578125 69 
L 17.578125 -6.203125 
L 29.296875 -6.203125 
L 29.296875 -13.1875 
L 8.59375 -13.1875 
z
" id="DejaVuSans-91"/>
      <path d="M 44.28125 53.078125 
L 44.28125 44.578125 
Q 40.484375 46.53125 36.375 47.5 
Q 32.28125 48.484375 27.875 48.484375 
Q 21.1875 48.484375 17.84375 46.4375 
Q 14.5 44.390625 14.5 40.28125 
Q 14.5 37.15625 16.890625 35.375 
Q 19.28125 33.59375 26.515625 31.984375 
L 29.59375 31.296875 
Q 39.15625 29.25 43.1875 25.515625 
Q 47.21875 21.78125 47.21875 15.09375 
Q 47.21875 7.46875 41.1875 3.015625 
Q 35.15625 -1.421875 24.609375 -1.421875 
Q 20.21875 -1.421875 15.453125 -0.5625 
Q 10.6875 0.296875 5.421875 2 
L 5.421875 11.28125 
Q 10.40625 8.6875 15.234375 7.390625 
Q 20.0625 6.109375 24.8125 6.109375 
Q 31.15625 6.109375 34.5625 8.28125 
Q 37.984375 10.453125 37.984375 14.40625 
Q 37.984375 18.0625 35.515625 20.015625 
Q 33.0625 21.96875 24.703125 23.78125 
L 21.578125 24.515625 
Q 13.234375 26.265625 9.515625 29.90625 
Q 5.8125 33.546875 5.8125 39.890625 
Q 5.8125 47.609375 11.28125 51.796875 
Q 16.75 56 26.8125 56 
Q 31.78125 56 36.171875 55.265625 
Q 40.578125 54.546875 44.28125 53.078125 
z
" id="DejaVuSans-115"/>
      <path d="M 30.421875 75.984375 
L 30.421875 -13.1875 
L 9.71875 -13.1875 
L 9.71875 -6.203125 
L 21.390625 -6.203125 
L 21.390625 69 
L 9.71875 69 
L 9.71875 75.984375 
z
" id="DejaVuSans-93"/>
     </defs>
     <g transform="translate(234.038281 412.756563)scale(0.1 -0.1)">
      <use xlink:href="#DejaVuSans-116"/>
      <use x="39.208984" xlink:href="#DejaVuSans-105"/>
      <use x="66.992188" xlink:href="#DejaVuSans-109"/>
      <use x="164.404297" xlink:href="#DejaVuSans-101"/>
      <use x="225.927734" xlink:href="#DejaVuSans-32"/>
      <use x="257.714844" xlink:href="#DejaVuSans-91"/>
      <use x="296.728516" xlink:href="#DejaVuSans-109"/>
      <use x="394.140625" xlink:href="#DejaVuSans-115"/>
      <use x="446.240234" xlink:href="#DejaVuSans-93"/>
     </g>
    </g>
   </g>
   <g id="matplotlib.axis_2">
    <g id="ytick_1">
     <g id="line2d_6">
      <defs>
       <path d="M 0 0 
L -3.5 0 
" id="mf6ca76b5cc" style="stroke:#000000;stroke-width:0.8;"/>
      </defs>
      <g>
       <use style="stroke:#000000;stroke-width:0.8;" x="63" xlink:href="#mf6ca76b5cc" y="358.218941"/>
      </g>
     </g>
     <g id="text_7">
      <!-- −80 -->
      <defs>
       <path d="M 10.59375 35.5 
L 73.1875 35.5 
L 73.1875 27.203125 
L 10.59375 27.203125 
z
" id="DejaVuSans-8722"/>
      </defs>
      <g transform="translate(34.895313 362.01816)scale(0.1 -0.1)">
       <use xlink:href="#DejaVuSans-8722"/>
       <use x="83.789062" xlink:href="#DejaVuSans-56"/>
       <use x="147.412109" xlink:href="#DejaVuSans-48"/>
      </g>
     </g>
    </g>
    <g id="ytick_2">
     <g id="line2d_7">
      <g>
       <use style="stroke:#000000;stroke-width:0.8;" x="63" xlink:href="#mf6ca76b5cc" y="315.20327"/>
      </g>
     </g>
     <g id="text_8">
      <!-- −60 -->
      <g transform="translate(34.895313 319.002489)scale(0.1 -0.1)">
       <use xlink:href="#DejaVuSans-8722"/>
       <use x="83.789062" xlink:href="#DejaVuSans-54"/>
       <use x="147.412109" xlink:href="#DejaVuSans-48"/>
      </g>
     </g>
    </g>
    <g id="ytick_3">
     <g id="line2d_8">
      <g>
       <use style="stroke:#000000;stroke-width:0.8;" x="63" xlink:href="#mf6ca76b5cc" y="272.187599"/>
      </g>
     </g>
     <g id="text_9">
      <!-- −40 -->
      <g transform="translate(34.895313 275.986818)scale(0.1 -0.1)">
       <use xlink:href="#DejaVuSans-8722"/>
       <use x="83.789062" xlink:href="#DejaVuSans-52"/>
       <use x="147.412109" xlink:href="#DejaVuSans-48"/>
      </g>
     </g>
    </g>
    <g id="ytick_4">
     <g id="line2d_9">
      <g>
       <use style="stroke:#000000;stroke-width:0.8;" x="63" xlink:href="#mf6ca76b5cc" y="229.171928"/>
      </g>
     </g>
     <g id="text_10">
      <!-- −20 -->
      <g transform="translate(34.895313 232.971147)scale(0.1 -0.1)">
       <use xlink:href="#DejaVuSans-8722"/>
       <use x="83.789062" xlink:href="#DejaVuSans-50"/>
       <use x="147.412109" xlink:href="#DejaVuSans-48"/>
      </g>
     </g>
    </g>
    <g id="ytick_5">
     <g id="line2d_10">
      <g>
       <use style="stroke:#000000;stroke-width:0.8;" x="63" xlink:href="#mf6ca76b5cc" y="186.156257"/>
      </g>
     </g>
     <g id="text_11">
      <!-- 0 -->
      <g transform="translate(49.6375 189.955475)scale(0.1 -0.1)">
       <use xlink:href="#DejaVuSans-48"/>
      </g>
     </g>
    </g>
    <g id="ytick_6">
     <g id="line2d_11">
      <g>
       <use style="stroke:#000000;stroke-width:0.8;" x="63" xlink:href="#mf6ca76b5cc" y="143.140586"/>
      </g>
     </g>
     <g id="text_12">
      <!-- 20 -->
      <g transform="translate(43.275 146.939804)scale(0.1 -0.1)">
       <use xlink:href="#DejaVuSans-50"/>
       <use x="63.623047" xlink:href="#DejaVuSans-48"/>
      </g>
     </g>
    </g>
    <g id="ytick_7">
     <g id="line2d_12">
      <g>
       <use style="stroke:#000000;stroke-width:0.8;" x="63" xlink:href="#mf6ca76b5cc" y="100.124914"/>
      </g>
     </g>
     <g id="text_13">
      <!-- 40 -->
      <g transform="translate(43.275 103.924133)scale(0.1 -0.1)">
       <use xlink:href="#DejaVuSans-52"/>
       <use x="63.623047" xlink:href="#DejaVuSans-48"/>
      </g>
     </g>
    </g>
    <g id="ytick_8">
     <g id="line2d_13">
      <g>
       <use style="stroke:#000000;stroke-width:0.8;" x="63" xlink:href="#mf6ca76b5cc" y="57.109243"/>
      </g>
     </g>
     <g id="text_14">
      <!-- 60 -->
      <g transform="translate(43.275 60.908462)scale(0.1 -0.1)">
       <use xlink:href="#DejaVuSans-54"/>
       <use x="63.623047" xlink:href="#DejaVuSans-48"/>
      </g>
     </g>
    </g>
    <g id="text_15">
     <!-- voltage [mV] -->
     <defs>
      <path d="M 2.984375 54.6875 
L 12.5 54.6875 
L 29.59375 8.796875 
L 46.6875 54.6875 
L 56.203125 54.6875 
L 35.6875 0 
L 23.484375 0 
z
" id="DejaVuSans-118"/>
      <path d="M 30.609375 48.390625 
Q 23.390625 48.390625 19.1875 42.75 
Q 14.984375 37.109375 14.984375 27.296875 
Q 14.984375 17.484375 19.15625 11.84375 
Q 23.34375 6.203125 30.609375 6.203125 
Q 37.796875 6.203125 41.984375 11.859375 
Q 46.1875 17.53125 46.1875 27.296875 
Q 46.1875 37.015625 41.984375 42.703125 
Q 37.796875 48.390625 30.609375 48.390625 
z
M 30.609375 56 
Q 42.328125 56 49.015625 48.375 
Q 55.71875 40.765625 55.71875 27.296875 
Q 55.71875 13.875 49.015625 6.21875 
Q 42.328125 -1.421875 30.609375 -1.421875 
Q 18.84375 -1.421875 12.171875 6.21875 
Q 5.515625 13.875 5.515625 27.296875 
Q 5.515625 40.765625 12.171875 48.375 
Q 18.84375 56 30.609375 56 
z
" id="DejaVuSans-111"/>
      <path d="M 9.421875 75.984375 
L 18.40625 75.984375 
L 18.40625 0 
L 9.421875 0 
z
" id="DejaVuSans-108"/>
      <path d="M 34.28125 27.484375 
Q 23.390625 27.484375 19.1875 25 
Q 14.984375 22.515625 14.984375 16.5 
Q 14.984375 11.71875 18.140625 8.90625 
Q 21.296875 6.109375 26.703125 6.109375 
Q 34.1875 6.109375 38.703125 11.40625 
Q 43.21875 16.703125 43.21875 25.484375 
L 43.21875 27.484375 
z
M 52.203125 31.203125 
L 52.203125 0 
L 43.21875 0 
L 43.21875 8.296875 
Q 40.140625 3.328125 35.546875 0.953125 
Q 30.953125 -1.421875 24.3125 -1.421875 
Q 15.921875 -1.421875 10.953125 3.296875 
Q 6 8.015625 6 15.921875 
Q 6 25.140625 12.171875 29.828125 
Q 18.359375 34.515625 30.609375 34.515625 
L 43.21875 34.515625 
L 43.21875 35.40625 
Q 43.21875 41.609375 39.140625 45 
Q 35.0625 48.390625 27.6875 48.390625 
Q 23 48.390625 18.546875 47.265625 
Q 14.109375 46.140625 10.015625 43.890625 
L 10.015625 52.203125 
Q 14.9375 54.109375 19.578125 55.046875 
Q 24.21875 56 28.609375 56 
Q 40.484375 56 46.34375 49.84375 
Q 52.203125 43.703125 52.203125 31.203125 
z
" id="DejaVuSans-97"/>
      <path d="M 45.40625 27.984375 
Q 45.40625 37.75 41.375 43.109375 
Q 37.359375 48.484375 30.078125 48.484375 
Q 22.859375 48.484375 18.828125 43.109375 
Q 14.796875 37.75 14.796875 27.984375 
Q 14.796875 18.265625 18.828125 12.890625 
Q 22.859375 7.515625 30.078125 7.515625 
Q 37.359375 7.515625 41.375 12.890625 
Q 45.40625 18.265625 45.40625 27.984375 
z
M 54.390625 6.78125 
Q 54.390625 -7.171875 48.1875 -13.984375 
Q 42 -20.796875 29.203125 -20.796875 
Q 24.46875 -20.796875 20.265625 -20.09375 
Q 16.0625 -19.390625 12.109375 -17.921875 
L 12.109375 -9.1875 
Q 16.0625 -11.328125 19.921875 -12.34375 
Q 23.78125 -13.375 27.78125 -13.375 
Q 36.625 -13.375 41.015625 -8.765625 
Q 45.40625 -4.15625 45.40625 5.171875 
L 45.40625 9.625 
Q 42.625 4.78125 38.28125 2.390625 
Q 33.9375 0 27.875 0 
Q 17.828125 0 11.671875 7.65625 
Q 5.515625 15.328125 5.515625 27.984375 
Q 5.515625 40.671875 11.671875 48.328125 
Q 17.828125 56 27.875 56 
Q 33.9375 56 38.28125 53.609375 
Q 42.625 51.21875 45.40625 46.390625 
L 45.40625 54.6875 
L 54.390625 54.6875 
z
" id="DejaVuSans-103"/>
      <path d="M 28.609375 0 
L 0.78125 72.90625 
L 11.078125 72.90625 
L 34.1875 11.53125 
L 57.328125 72.90625 
L 67.578125 72.90625 
L 39.796875 0 
z
" id="DejaVuSans-86"/>
     </defs>
     <g transform="translate(28.815625 250.624062)rotate(-90)scale(0.1 -0.1)">
      <use xlink:href="#DejaVuSans-118"/>
      <use x="59.179688" xlink:href="#DejaVuSans-111"/>
      <use x="120.361328" xlink:href="#DejaVuSans-108"/>
      <use x="148.144531" xlink:href="#DejaVuSans-116"/>
      <use x="187.353516" xlink:href="#DejaVuSans-97"/>
      <use x="248.632812" xlink:href="#DejaVuSans-103"/>
      <use x="312.109375" xlink:href="#DejaVuSans-101"/>
      <use x="373.632812" xlink:href="#DejaVuSans-32"/>
      <use x="405.419922" xlink:href="#DejaVuSans-91"/>
      <use x="444.433594" xlink:href="#DejaVuSans-109"/>
      <use x="541.845703" xlink:href="#DejaVuSans-86"/>
      <use x="610.253906" xlink:href="#DejaVuSans-93"/>
     </g>
    </g>
   </g>
   <g id="line2d_14">
    <path clip-path="url(#pbaf3f42158)" d="M 80.754545 311.968693 
L 83.385088 311.863675 
L 83.417364 311.758656 
L 83.465779 311.968693 
L 83.481917 311.863675 
L 83.966066 311.758656 
L 84.062896 311.653637 
L 84.175864 311.758656 
L 84.547045 311.863675 
L 84.660013 311.968693 
L 84.96664 311.863675 
L 85.079609 311.758656 
L 85.337821 311.863675 
L 85.35396 311.968693 
L 85.402374 311.758656 
L 85.418513 311.758656 
L 86.322257 311.863675 
L 86.435225 311.968693 
L 87.419661 312.073712 
L 87.532629 312.178731 
L 87.581044 312.073712 
L 87.629459 312.178731 
L 88.694587 312.283749 
L 88.807555 312.388768 
L 88.85597 312.283749 
L 89.049629 300.311614 
L 89.501501 289.07461 
L 90.356831 274.477007 
L 91.196022 264.920303 
L 91.454235 262.609891 
L 91.777001 259.774385 
L 92.503224 255.678655 
L 92.535501 255.573636 
L 92.713022 255.048542 
L 92.745299 254.943524 
L 92.971235 254.103374 
L 93.01965 253.998355 
L 93.213309 253.368243 
L 93.358554 253.263224 
L 93.536075 252.73813 
L 93.600628 252.633112 
L 93.762011 252.213037 
L 93.858841 252.108018 
L 94.004086 251.792962 
L 94.213884 251.687943 
L 94.359128 251.372887 
L 95.133766 251.267868 
L 95.182181 251.16285 
L 95.230596 251.267868 
L 95.843851 251.16285 
L 95.989096 250.742775 
L 96.053649 250.847793 
L 96.085926 250.742775 
L 96.392553 250.637756 
L 96.505522 250.532737 
L 96.796011 250.637756 
L 97.005809 251.372887 
L 97.070362 251.477906 
L 97.215607 251.792962 
L 97.393128 251.687943 
L 97.425404 251.582924 
L 97.489958 251.687943 
L 97.845 251.582924 
L 97.974106 251.372887 
L 98.264596 251.477906 
L 98.296872 251.582924 
L 98.345287 251.477906 
L 98.458255 251.372887 
L 98.50667 251.477906 
L 98.538947 251.582924 
L 98.571223 251.372887 
L 98.6035 251.477906 
L 99.119925 251.372887 
L 99.249032 251.16285 
L 99.959117 251.057831 
L 100.055947 250.952812 
L 100.572372 253.683299 
L 100.620787 253.788318 
L 100.733755 253.998355 
L 100.862861 253.788318 
L 101.024244 253.683299 
L 101.153351 253.473262 
L 101.298595 253.368243 
L 101.44384 253.053187 
L 101.556808 252.948168 
L 101.685914 252.73813 
L 101.831159 252.633112 
L 101.847297 252.528093 
L 101.927989 252.633112 
L 102.10551 252.528093 
L 102.266893 252.108018 
L 102.363723 252.002999 
L 102.492829 251.792962 
L 102.993116 251.687943 
L 103.057669 251.372887 
L 103.106084 251.477906 
L 103.251329 251.792962 
L 103.380435 251.582924 
L 103.687063 251.477906 
L 103.783893 251.372887 
L 103.880722 251.477906 
L 103.993691 251.372887 
L 104.09052 251.267868 
L 104.18735 251.16285 
L 104.300318 251.267868 
L 104.38101 251.16285 
L 104.526254 250.742775 
L 104.574669 250.847793 
L 104.623084 250.742775 
L 104.897435 250.637756 
L 105.010403 250.532737 
L 105.236339 250.637756 
L 105.317031 250.742775 
L 105.333169 250.637756 
L 106.107807 250.532737 
L 106.123945 250.427718 
L 106.17236 250.637756 
L 106.204637 250.532737 
L 106.882445 250.637756 
L 106.995413 250.742775 
L 107.705498 250.637756 
L 107.737775 250.532737 
L 107.78619 250.742775 
L 108.383307 250.637756 
L 108.512413 250.427718 
L 108.576966 250.3227 
L 108.689934 250.217681 
L 109.254775 250.112662 
L 109.335466 250.007644 
L 109.351605 250.112662 
L 109.690509 250.007644 
L 109.819615 249.797606 
L 109.916445 249.902625 
L 110.013275 249.797606 
L 110.126243 249.902625 
L 110.5297 250.007644 
L 110.610392 250.112662 
L 110.62653 250.007644 
L 111.368891 250.112662 
L 111.497998 250.3227 
L 111.836902 250.427718 
L 111.85304 250.532737 
L 111.933732 250.427718 
L 112.256498 250.532737 
L 112.321051 250.427718 
L 112.369466 250.637756 
L 112.821338 250.742775 
L 112.837476 250.847793 
L 112.869753 250.637756 
L 112.902029 250.637756 
L 113.144104 250.742775 
L 113.289349 251.057831 
L 113.37004 251.16285 
L 113.499146 251.372887 
L 113.595976 251.477906 
L 113.644391 251.582924 
L 113.692806 251.477906 
L 113.789636 251.372887 
L 113.870327 251.267868 
L 113.886465 251.372887 
L 114.160817 251.477906 
L 114.257646 251.582924 
L 114.386753 251.267868 
L 114.419029 251.372887 
L 114.483582 251.267868 
L 114.580412 251.057831 
L 114.59655 251.16285 
L 114.806348 251.057831 
L 114.919316 250.952812 
L 115.35505 250.847793 
L 115.468018 250.742775 
L 115.758508 250.637756 
L 115.887614 250.427718 
L 116.161965 250.3227 
L 116.258795 250.112662 
L 116.274933 250.217681 
L 116.355625 250.112662 
L 116.468593 250.007644 
L 116.533146 249.902625 
L 116.662252 249.692587 
L 117.017295 249.797606 
L 117.033433 249.902625 
L 117.114125 249.797606 
L 117.259369 249.902625 
L 117.43689 250.427718 
L 117.469167 250.532737 
L 117.662827 251.16285 
L 117.711241 251.267868 
L 117.791933 251.477906 
L 117.82421 251.372887 
L 117.921039 251.477906 
L 118.034007 251.582924 
L 118.647263 251.477906 
L 118.760231 251.372887 
L 119.05072 251.267868 
L 119.131411 251.16285 
L 119.14755 251.267868 
L 119.518731 251.16285 
L 119.647837 250.952812 
L 119.80922 250.847793 
L 119.922188 250.742775 
L 120.099709 250.637756 
L 120.244954 250.3227 
L 120.438613 250.217681 
L 120.551581 250.112662 
L 120.664549 250.007644 
L 120.696826 249.902625 
L 120.745241 250.112662 
L 121.116422 250.217681 
L 121.22939 250.3227 
L 121.600571 250.217681 
L 121.729677 250.007644 
L 121.810368 249.902625 
L 121.939475 249.692587 
L 122.116996 249.587569 
L 122.213826 249.48255 
L 122.342932 249.692587 
L 122.778666 249.587569 
L 122.810943 249.48255 
L 122.875496 249.587569 
L 122.923911 249.692587 
L 122.972326 249.587569 
L 123.133709 249.692587 
L 123.262815 249.902625 
L 123.553304 250.007644 
L 123.682411 250.217681 
L 123.827655 249.902625 
L 123.924485 250.007644 
L 123.940623 250.112662 
L 124.005177 249.902625 
L 124.360219 249.797606 
L 124.473187 249.692587 
L 124.682985 249.797606 
L 124.812091 250.007644 
L 125.215549 250.112662 
L 125.328517 250.3227 
L 125.360793 250.427718 
L 125.441485 250.217681 
L 125.764251 250.112662 
L 125.780389 250.007644 
L 125.861081 250.112662 
L 126.038602 250.007644 
L 126.15157 249.902625 
L 126.329091 249.797606 
L 126.425921 249.692587 
L 126.538889 249.797606 
L 127.136006 249.692587 
L 127.152144 249.587569 
L 127.232836 249.692587 
L 127.248974 249.797606 
L 127.297389 249.587569 
L 127.313527 249.587569 
L 127.394219 249.692587 
L 127.442633 249.902625 
L 127.507187 249.797606 
L 127.523325 249.692587 
L 127.604016 249.797606 
L 127.975197 249.692587 
L 128.104304 249.48255 
L 128.217272 249.377531 
L 128.33024 249.272512 
L 128.410931 249.167494 
L 128.523899 249.062475 
L 129.08874 248.957456 
L 129.137154 248.852437 
L 129.185569 248.957456 
L 129.605165 249.062475 
L 129.718133 249.167494 
L 129.831101 249.062475 
L 130.008622 248.537381 
L 130.137729 248.432363 
L 130.266835 248.222325 
L 130.525048 248.117306 
L 130.541186 248.012288 
L 130.589601 248.222325 
L 130.621878 248.117306 
L 130.670292 248.222325 
L 130.718707 248.117306 
L 131.07375 248.012288 
L 131.138303 247.907269 
L 131.17058 248.012288 
L 131.202856 247.907269 
L 131.315824 247.80225 
L 132.477782 247.907269 
L 132.59075 248.012288 
L 132.768271 247.907269 
L 132.816686 247.80225 
L 132.865101 247.907269 
L 133.268558 248.012288 
L 133.381526 248.117306 
L 133.413803 248.117306 
L 133.559047 248.6424 
L 133.591324 248.537381 
L 133.607462 248.747419 
L 133.623601 248.747419 
L 133.736569 248.852437 
L 133.784983 248.957456 
L 133.930228 249.272512 
L 133.978643 249.377531 
L 134.156164 249.902625 
L 134.269132 249.797606 
L 134.430515 249.902625 
L 134.559622 250.112662 
L 134.624175 250.007644 
L 134.656451 250.112662 
L 134.817834 250.007644 
L 134.930802 249.902625 
L 135.301983 249.797606 
L 135.414951 249.48255 
L 135.43109 249.587569 
L 135.818409 249.48255 
L 135.834547 249.377531 
L 135.866824 249.587569 
L 135.915238 249.48255 
L 136.044345 249.377531 
L 136.060483 249.272512 
L 136.141175 249.377531 
L 136.883536 249.272512 
L 137.028781 248.957456 
L 137.157887 248.852437 
L 137.206302 248.6424 
L 137.254717 248.852437 
L 137.367685 248.747419 
L 137.432238 248.537381 
L 137.464515 248.747419 
L 137.690451 248.6424 
L 137.819557 248.432363 
L 137.916387 248.537381 
L 138.013217 248.6424 
L 138.158461 248.327344 
L 138.707163 248.222325 
L 138.820132 248.117306 
L 139.126759 248.222325 
L 139.239727 248.327344 
L 139.772291 248.222325 
L 139.901397 248.012288 
L 139.998227 248.117306 
L 140.095057 248.012288 
L 140.111195 248.117306 
L 140.191887 248.012288 
L 140.756727 247.907269 
L 140.885833 247.697231 
L 140.966525 247.592213 
L 141.095631 247.382175 
L 141.321567 248.222325 
L 141.402259 248.327344 
L 141.531365 248.537381 
L 141.902546 248.432363 
L 142.015514 248.327344 
L 142.14462 248.222325 
L 142.257588 248.117306 
L 142.80629 248.012288 
L 142.935397 247.80225 
L 144.339429 247.907269 
L 144.468535 248.327344 
L 144.484673 248.222325 
L 144.581503 248.117306 
L 144.726748 248.432363 
L 145.049513 248.537381 
L 145.08179 248.6424 
L 145.146343 248.537381 
L 145.340003 248.432363 
L 145.469109 248.222325 
L 145.64663 248.117306 
L 145.759598 248.012288 
L 146.308301 247.907269 
L 146.388992 247.697231 
L 146.421269 247.80225 
L 147.244322 247.907269 
L 147.26046 248.012288 
L 147.341151 247.907269 
L 147.550949 247.80225 
L 147.663917 247.697231 
L 148.180343 247.80225 
L 148.309449 248.012288 
L 148.374002 247.907269 
L 148.48697 247.80225 
L 148.874289 247.697231 
L 148.890428 247.592213 
L 148.971119 247.697231 
L 149.100226 247.80225 
L 149.116364 247.907269 
L 149.164779 247.697231 
L 149.197055 247.80225 
L 149.293885 247.697231 
L 149.406853 247.592213 
L 149.697343 247.697231 
L 149.810311 247.80225 
L 149.971694 247.80225 
L 150.00397 247.592213 
L 150.084662 247.697231 
L 150.407427 247.80225 
L 150.601087 248.432363 
L 150.746332 248.117306 
L 151.085236 248.222325 
L 151.149789 248.327344 
L 151.182066 248.222325 
L 151.359587 248.117306 
L 151.375725 248.012288 
L 151.456417 248.117306 
L 151.811459 248.012288 
L 151.843736 247.907269 
L 151.908289 248.012288 
L 152.424714 247.907269 
L 152.553821 247.697231 
L 152.650651 247.592213 
L 152.715204 247.487194 
L 152.74748 247.592213 
L 152.763619 247.697231 
L 152.812033 247.487194 
L 152.828172 247.487194 
L 153.40915 247.487194 
L 153.60281 259.459329 
L 154.054682 270.591314 
L 154.425863 277.417532 
L 154.861597 283.928693 
L 154.974565 285.293936 
L 155.68465 293.170341 
L 155.894448 295.165697 
L 156.265629 298.631315 
L 156.281767 298.631315 
L 156.556118 300.836708 
L 158.62182 313.648993 
L 158.670235 313.754012 
L 158.993001 315.224274 
L 159.057554 315.329293 
L 159.299628 316.274461 
L 159.331905 316.37948 
L 159.557841 317.21963 
L 159.622394 317.324648 
L 159.832192 318.059779 
L 159.896745 318.164798 
L 160.090405 318.794911 
L 160.122681 318.899929 
L 160.300202 319.425023 
L 160.348617 319.530042 
L 160.493862 319.845098 
L 160.526139 319.950117 
L 160.70366 320.47521 
L 160.768213 320.580229 
L 160.929596 321.000304 
L 161.042564 321.105323 
L 161.187809 321.420379 
L 161.413745 321.525398 
L 161.558989 321.840454 
L 161.639681 321.945472 
L 161.768787 322.15551 
L 161.897894 322.260529 
L 162.027 322.470566 
L 162.091553 322.575585 
L 162.22066 322.785622 
L 162.285213 322.890641 
L 162.317489 322.99566 
L 162.382043 322.890641 
L 162.462734 322.99566 
L 162.59184 323.205697 
L 162.995298 323.310716 
L 163.108266 323.415735 
L 163.318064 323.520753 
L 163.431032 323.730791 
L 163.463308 323.625772 
L 163.527861 323.730791 
L 163.64083 323.83581 
L 163.931319 323.940828 
L 164.044287 324.045847 
L 164.544574 323.940828 
L 164.625266 323.83581 
L 164.641404 323.940828 
L 165.997021 323.83581 
L 166.126127 323.625772 
L 166.206818 323.730791 
L 166.222957 323.625772 
L 166.432755 323.520753 
L 166.561861 323.310716 
L 166.900765 323.205697 
L 167.013733 323.100678 
L 167.304223 322.99566 
L 167.449467 322.680604 
L 167.659265 322.575585 
L 167.772233 322.470566 
L 168.014308 322.365547 
L 168.159552 322.050491 
L 168.450042 321.945472 
L 168.56301 321.840454 
L 168.579148 321.945472 
L 168.627563 321.735435 
L 168.643701 321.840454 
L 168.756669 321.735435 
L 168.837361 321.630416 
L 168.853499 321.525398 
L 168.885775 321.735435 
L 168.93419 321.630416 
L 169.12785 321.525398 
L 169.256956 321.31536 
L 169.418339 321.210341 
L 169.499031 321.105323 
L 169.611999 312.913862 
L 169.708829 313.018881 
L 169.724967 313.123899 
L 169.805658 313.018881 
L 170.951477 313.123899 
L 170.967616 313.228918 
L 171.048307 313.123899 
L 171.790669 313.228918 
L 171.822945 313.333937 
L 171.887498 313.228918 
L 171.952052 313.123899 
L 172.048881 313.018881 
L 172.161849 313.123899 
L 172.387786 313.018881 
L 172.500754 312.913862 
L 173.162424 312.808843 
L 173.29153 312.598806 
L 174.518041 312.703824 
L 174.582594 312.808843 
L 174.61487 312.703824 
L 175.018328 312.808843 
L 175.147434 313.018881 
L 175.260402 312.913862 
L 175.389508 313.018881 
L 175.405647 313.123899 
L 175.486338 313.018881 
L 175.615445 313.123899 
L 175.712274 313.228918 
L 175.825242 313.123899 
L 175.93821 313.228918 
L 176.164147 313.333937 
L 176.277115 313.438955 
L 176.390083 313.333937 
L 176.664434 313.228918 
L 176.777402 313.123899 
L 176.938785 313.018881 
L 176.971061 312.913862 
L 177.019476 313.123899 
L 177.035615 313.018881 
L 177.616593 313.018881 
L 177.810253 297.37109 
L 178.391231 278.992813 
L 179.149731 262.084797 
L 179.82754 250.952812 
L 180.39238 244.966745 
L 180.860391 242.551314 
L 180.876529 242.551314 
L 181.021773 242.02622 
L 181.183156 241.606145 
L 181.312263 241.501127 
L 181.473646 241.081052 
L 181.505922 240.976033 
L 181.699582 240.34592 
L 181.764135 240.240902 
L 181.893241 240.030864 
L 182.328975 239.925846 
L 182.47422 239.610789 
L 182.506497 239.505771 
L 182.635603 239.295733 
L 182.716294 239.190714 
L 182.877677 238.77064 
L 182.926092 238.875658 
L 182.974507 238.980677 
L 183.022922 238.875658 
L 183.103614 238.77064 
L 183.23272 238.560602 
L 183.281135 238.455583 
L 183.442518 238.035508 
L 183.474794 237.93049 
L 183.668454 237.300377 
L 183.70073 237.195359 
L 183.845975 236.880302 
L 183.89439 236.775284 
L 184.168741 235.620078 
L 184.313986 235.515059 
L 184.523784 234.779928 
L 184.814273 234.674909 
L 184.927241 234.044797 
L 184.975656 234.254834 
L 185.072486 234.149816 
L 185.250007 233.414684 
L 185.266145 233.519703 
L 185.346837 233.414684 
L 185.492081 233.099628 
L 185.524358 232.99461 
L 186.411964 226.693486 
L 186.428102 226.063373 
L 186.444241 219.552212 
L 186.492656 76.83176 
L 186.573347 151.500076 
L 186.73473 236.355209 
L 186.944528 239.085696 
L 188.05807 252.318056 
L 188.074208 252.318056 
L 188.25173 253.263224 
L 188.461528 253.998355 
L 188.526081 254.103374 
L 188.71974 254.733486 
L 188.768155 254.838505 
L 188.929538 255.25858 
L 189.026368 255.153561 
L 189.155474 255.363599 
L 189.720315 255.25858 
L 189.849421 255.048542 
L 190.091495 254.943524 
L 190.220602 254.733486 
L 190.285155 254.628468 
L 190.414261 254.41843 
L 190.4304 254.523449 
L 190.494953 254.313411 
L 190.591783 254.208393 
L 190.704751 254.103374 
L 190.89841 253.998355 
L 191.011378 253.893336 
L 191.140485 253.788318 
L 191.285729 253.473262 
L 191.46325 253.368243 
L 191.624633 252.948168 
L 192.205612 252.843149 
L 192.334718 252.633112 
L 192.41541 252.528093 
L 192.544516 252.108018 
L 192.560655 252.213037 
L 192.609069 252.108018 
L 192.625208 252.002999 
L 192.705899 252.108018 
L 192.835006 252.002999 
L 192.899559 251.897981 
L 192.931835 252.002999 
L 193.238463 251.897981 
L 193.367569 251.687943 
L 193.512814 251.582924 
L 193.64192 251.372887 
L 193.916271 251.267868 
L 194.061516 250.952812 
L 194.448835 250.847793 
L 194.577941 250.637756 
L 194.723186 250.532737 
L 194.884569 250.112662 
L 194.981399 250.007644 
L 195.110505 249.797606 
L 195.271888 249.692587 
L 195.35258 249.48255 
L 195.384856 249.587569 
L 195.465548 249.48255 
L 195.594654 249.272512 
L 195.885143 249.167494 
L 195.998111 249.062475 
L 196.094941 248.957456 
L 196.256324 248.537381 
L 196.353154 248.6424 
L 196.449984 248.537381 
L 196.546813 248.6424 
L 196.67592 248.432363 
L 197.14393 248.327344 
L 197.160069 248.222325 
L 197.224622 248.432363 
L 197.402143 248.537381 
L 197.579664 249.167494 
L 197.628079 249.062475 
L 197.660356 249.272512 
L 197.724909 249.377531 
L 197.821739 249.587569 
L 197.837877 249.48255 
L 197.950845 249.587569 
L 198.09609 249.902625 
L 198.467271 249.797606 
L 198.483409 249.692587 
L 198.5641 249.797606 
L 198.644792 249.692587 
L 198.790036 249.377531 
L 198.935281 249.272512 
L 199.080526 248.957456 
L 199.193494 248.852437 
L 199.354877 248.432363 
L 199.41943 248.327344 
L 199.548536 248.117306 
L 199.661504 248.222325 
L 199.790611 248.117306 
L 199.919717 247.907269 
L 199.98427 247.80225 
L 200.048824 247.592213 
L 200.097238 247.697231 
L 200.516834 247.592213 
L 200.662079 247.172138 
L 200.710494 247.277157 
L 200.758908 247.172138 
L 200.871877 247.067119 
L 201.000983 246.857082 
L 201.065536 246.752063 
L 201.210781 246.437007 
L 201.372164 246.331988 
L 201.485132 246.226969 
L 201.646515 246.121951 
L 201.775621 245.911913 
L 202.130664 245.806894 
L 202.195217 245.701876 
L 202.227493 245.806894 
L 202.3566 245.701876 
L 202.485706 245.491838 
L 202.550259 245.386819 
L 202.711642 244.966745 
L 202.969855 244.861726 
L 203.098961 244.651688 
L 203.728355 244.756707 
L 203.792908 244.966745 
L 203.841323 244.861726 
L 204.083397 244.966745 
L 204.14795 245.071763 
L 204.180227 244.966745 
L 204.632099 244.861726 
L 204.728929 244.651688 
L 204.745067 244.756707 
L 204.809621 244.651688 
L 204.938727 244.441651 
L 205.019418 244.54667 
L 205.116248 244.651688 
L 205.164663 244.54667 
L 205.19694 244.756707 
L 205.213078 244.651688 
L 205.261493 244.756707 
L 205.358323 244.966745 
L 205.374461 244.861726 
L 206.052269 244.966745 
L 206.197514 245.281801 
L 206.455727 245.386819 
L 206.584833 245.596857 
L 206.665525 245.701876 
L 206.810769 246.016932 
L 207.343333 245.911913 
L 207.359471 245.806894 
L 207.440163 245.911913 
L 207.666099 246.016932 
L 207.682237 246.121951 
L 207.762929 246.016932 
L 208.021141 245.911913 
L 208.150248 245.701876 
L 208.198663 245.596857 
L 208.360046 245.176782 
L 208.473014 245.071763 
L 208.585982 244.966745 
L 208.924886 244.861726 
L 209.053992 244.651688 
L 209.215375 244.54667 
L 209.344482 244.336632 
L 209.538141 244.231613 
L 209.683386 243.916557 
L 209.715662 243.811539 
L 209.844769 243.601501 
L 210.054567 243.496482 
L 210.11912 243.391464 
L 210.151396 243.496482 
L 210.264364 243.601501 
L 210.393471 243.811539 
L 211.055141 243.70652 
L 211.200385 243.391464 
L 211.329492 243.286445 
L 211.458598 243.076407 
L 211.652258 242.971389 
L 211.749088 242.86637 
L 211.781364 242.971389 
L 211.829779 242.761351 
L 211.845917 242.86637 
L 211.991162 242.551314 
L 212.168683 242.656333 
L 212.313928 242.971389 
L 212.410758 242.86637 
L 212.475311 242.656333 
L 212.507587 242.761351 
L 212.556002 242.86637 
L 212.588279 242.761351 
L 212.636694 242.656333 
L 212.685109 242.761351 
L 212.846492 243.181426 
L 213.185396 243.076407 
L 213.217672 242.971389 
L 213.266087 243.181426 
L 213.556577 243.076407 
L 213.653406 242.971389 
L 213.750236 243.076407 
L 213.927757 242.551314 
L 214.024587 242.446295 
L 214.073002 242.236258 
L 214.137555 242.341276 
L 214.2828 242.236258 
L 214.395768 242.131239 
L 214.589427 242.02622 
L 214.718534 241.816183 
L 214.84764 241.921201 
L 214.879917 242.02622 
L 214.928332 241.816183 
L 215.202683 241.711164 
L 215.315651 241.606145 
L 215.493172 241.711164 
L 215.557725 241.816183 
L 215.590002 241.711164 
L 215.751385 241.816183 
L 215.767523 241.921201 
L 215.848214 241.816183 
L 215.945044 241.711164 
L 216.122566 241.18607 
L 216.187119 241.081052 
L 216.300087 240.765995 
L 216.316225 240.871014 
L 216.46147 240.765995 
L 216.606714 240.450939 
L 216.622853 240.555958 
L 216.703544 240.450939 
L 216.92948 240.34592 
L 216.977895 240.240902 
L 217.02631 240.34592 
L 217.042448 240.450939 
L 217.12314 240.34592 
L 217.704118 240.450939 
L 217.817087 240.555958 
L 218.204406 240.555958 
L 218.34965 241.081052 
L 218.656278 240.976033 
L 218.769246 240.871014 
L 218.962905 240.976033 
L 219.027459 240.871014 
L 219.075874 241.081052 
L 219.140427 240.976033 
L 219.172703 241.081052 
L 219.511608 241.18607 
L 219.640714 241.396108 
L 219.915065 241.501127 
L 220.124863 242.236258 
L 220.205554 242.341276 
L 220.350799 242.656333 
L 220.479905 242.446295 
L 221.125437 242.341276 
L 221.141575 242.236258 
L 221.222267 242.341276 
L 221.270682 242.236258 
L 221.415926 241.921201 
L 221.722554 241.816183 
L 221.85166 241.606145 
L 221.900075 241.606145 
L 222.029182 241.18607 
L 222.077596 241.081052 
L 222.158288 240.765995 
L 222.206703 240.871014 
L 222.739267 240.765995 
L 222.868373 240.555958 
L 222.916788 240.450939 
L 223.045894 240.240902 
L 223.142724 240.135883 
L 223.287969 239.820827 
L 223.384798 239.715808 
L 223.513905 239.505771 
L 223.626873 239.400752 
L 223.836671 238.665621 
L 223.981915 238.560602 
L 224.046468 238.350565 
L 224.094883 238.455583 
L 224.256266 238.875658 
L 224.320819 238.77064 
L 224.385373 238.665621 
L 224.417649 238.77064 
L 224.498341 238.875658 
L 224.514479 238.980677 
L 224.579032 238.875658 
L 224.59517 238.77064 
L 224.643585 238.980677 
L 224.659724 238.980677 
L 224.740415 239.085696 
L 224.869522 239.295733 
L 225.127734 239.190714 
L 225.240702 239.085696 
L 225.289117 239.190714 
L 225.305255 239.295733 
L 225.35367 239.085696 
L 225.369809 239.085696 
L 225.54733 239.190714 
L 225.676436 239.400752 
L 225.740989 239.295733 
L 225.853958 239.190714 
L 226.031479 239.085696 
L 226.289691 238.035508 
L 226.660872 237.93049 
L 226.806117 237.615434 
L 227.06433 237.720452 
L 227.096606 237.825471 
L 227.145021 237.720452 
L 227.257989 237.510415 
L 227.370957 237.720452 
L 227.548479 237.195359 
L 227.661447 237.09034 
L 227.677585 236.985321 
L 227.758276 237.09034 
L 227.855106 237.300377 
L 227.871244 237.195359 
L 228.048766 237.09034 
L 228.097181 236.985321 
L 228.145595 237.09034 
L 228.419946 236.985321 
L 228.532915 236.880302 
L 228.565191 236.775284 
L 228.694297 236.565246 
L 228.823404 236.460228 
L 228.871819 236.25019 
L 228.920234 236.355209 
L 229.000925 236.460228 
L 229.017063 236.355209 
L 229.097755 236.25019 
L 229.243 235.935134 
L 229.307553 235.830115 
L 229.452797 235.515059 
L 229.630319 235.620078 
L 229.646457 235.725096 
L 229.71101 235.515059 
L 230.082191 235.41004 
L 230.098329 235.305022 
L 230.162882 235.515059 
L 230.905244 235.41004 
L 231.179595 234.254834 
L 231.22801 234.149816 
L 231.389393 233.729741 
L 231.437808 233.624722 
L 231.921957 231.104272 
L 232.002648 230.999254 
L 232.115616 229.844048 
L 232.164031 228.478804 
L 232.180169 224.593111 
L 232.244722 75.676554 
L 232.309276 145.40899 
L 232.470659 235.200003 
L 232.535212 236.040153 
L 232.599765 235.830115 
L 232.74501 235.515059 
L 233.035499 238.035508 
L 233.551924 243.496482 
L 233.584201 243.601501 
L 233.826275 245.386819 
L 234.504084 249.167494 
L 234.584775 249.272512 
L 234.762296 249.797606 
L 234.82685 249.902625 
L 234.988233 250.3227 
L 235.020509 250.427718 
L 235.181892 250.847793 
L 235.19803 250.742775 
L 235.230307 250.952812 
L 235.262584 250.952812 
L 235.359413 251.057831 
L 235.504658 251.372887 
L 235.601488 251.477906 
L 235.730594 251.687943 
L 235.908115 251.792962 
L 236.021083 251.897981 
L 236.117913 252.002999 
L 236.263158 252.318056 
L 236.279296 252.213037 
L 236.343849 252.318056 
L 236.505232 252.73813 
L 236.876413 252.633112 
L 237.005519 252.423074 
L 237.070073 252.633112 
L 237.118488 252.528093 
L 237.231456 252.423074 
L 237.392839 252.318056 
L 237.521945 252.108018 
L 237.683328 252.002999 
L 237.844711 251.582924 
L 237.957679 251.477906 
L 238.070647 251.372887 
L 238.167477 251.267868 
L 238.296583 251.057831 
L 238.474104 250.952812 
L 238.554796 250.742775 
L 238.587072 250.847793 
L 238.667764 250.742775 
L 238.780732 250.637756 
L 238.845285 250.532737 
L 238.942115 250.427718 
L 238.958253 250.532737 
L 239.022806 250.3227 
L 239.151913 250.217681 
L 239.297157 249.902625 
L 239.361711 249.797606 
L 239.490817 249.587569 
L 239.732891 249.48255 
L 239.845859 249.377531 
L 240.152487 249.272512 
L 240.265455 249.167494 
L 240.572083 249.062475 
L 240.685051 248.957456 
L 240.959402 248.852437 
L 241.088508 248.6424 
L 241.459689 248.537381 
L 241.588795 248.327344 
L 241.717902 248.222325 
L 241.847008 248.012288 
L 241.895423 247.907269 
L 242.008391 247.80225 
L 242.169774 247.907269 
L 242.363433 263.240003 
L 242.799167 275.947269 
L 243.234901 284.453786 
L 243.654497 290.649891 
L 243.767465 292.015135 
L 244.396859 298.841352 
L 244.606657 300.836708 
L 244.945561 303.882251 
L 246.430284 312.913862 
L 246.46256 313.018881 
L 246.769188 314.384124 
L 246.801465 314.489143 
L 247.108092 315.854386 
L 247.172645 315.959405 
L 247.382443 316.694536 
L 247.41472 316.799555 
L 247.624518 317.534686 
L 247.672933 317.639705 
L 247.898869 318.479854 
L 247.963422 318.584873 
L 248.157081 319.214985 
L 248.221635 319.320004 
L 248.383018 319.740079 
L 248.463709 319.845098 
L 248.64123 320.370191 
L 248.721922 320.47521 
L 248.867166 320.790266 
L 248.996273 320.895285 
L 249.141517 321.210341 
L 249.189932 321.31536 
L 249.335177 321.630416 
L 249.544975 321.735435 
L 249.674081 321.945472 
L 249.722496 322.050491 
L 249.851602 322.260529 
L 249.964571 322.365547 
L 250.093677 322.575585 
L 250.384166 322.680604 
L 250.497134 322.785622 
L 250.593964 322.890641 
L 250.610102 322.99566 
L 250.690794 322.890641 
L 250.884453 322.99566 
L 250.997421 323.100678 
L 251.255634 323.205697 
L 251.271772 323.310716 
L 251.336326 323.205697 
L 251.368602 323.100678 
L 251.433155 323.205697 
L 251.836613 323.310716 
L 251.852751 323.415735 
L 251.933443 323.310716 
L 252.046411 323.205697 
L 252.546698 323.100678 
L 252.562836 322.99566 
L 252.643528 323.100678 
L 252.853325 322.99566 
L 252.982432 322.785622 
L 253.724793 322.680604 
L 253.821623 322.575585 
L 253.934591 322.680604 
L 254.176666 322.575585 
L 254.305772 322.365547 
L 254.741506 322.260529 
L 254.789921 322.050491 
L 254.838336 322.260529 
L 255.015857 322.15551 
L 255.031995 322.050491 
L 255.096548 322.260529 
L 255.112687 322.15551 
L 255.354761 322.050491 
L 255.467729 321.945472 
L 255.709804 321.840454 
L 255.822772 321.735435 
L 256.000293 321.630416 
L 256.129399 321.420379 
L 256.242367 321.525398 
L 256.419889 321.420379 
L 256.548995 321.210341 
L 256.774931 321.105323 
L 256.791069 321.000304 
L 256.871761 321.105323 
L 256.968591 321.000304 
L 257.081559 320.895285 
L 257.129974 320.790266 
L 257.25908 320.580229 
L 257.517293 320.47521 
L 257.630261 320.370191 
L 258.01758 320.265173 
L 258.146686 320.055135 
L 258.162824 320.160154 
L 258.243516 320.055135 
L 258.259654 320.055135 
L 258.372622 313.964049 
L 259.647548 314.069068 
L 259.679824 314.174087 
L 259.744377 314.069068 
L 260.244665 313.964049 
L 260.276941 313.754012 
L 260.341494 313.964049 
L 261.42276 314.069068 
L 261.471175 314.174087 
L 261.503452 314.069068 
L 261.51959 313.964049 
L 261.600281 314.069068 
L 262.616994 313.964049 
L 262.649271 313.85903 
L 262.713824 313.964049 
L 263.230249 314.069068 
L 263.246387 314.174087 
L 263.327079 314.069068 
L 264.16627 314.174087 
L 264.214685 314.279105 
L 264.2631 314.174087 
L 264.392206 314.279105 
L 264.505175 314.384124 
L 266.377217 314.384124 
L 266.570876 290.859929 
L 267.151855 263.240003 
L 268.265397 230.579179 
L 268.507472 227.113561 
L 268.846376 219.657231 
L 268.910929 75.25648 
L 268.991621 167.252886 
L 269.153004 236.145171 
L 269.18528 236.460228 
L 269.233695 236.040153 
L 269.395078 235.200003 
L 269.572599 235.725096 
L 269.604876 235.830115 
L 269.798535 236.460228 
L 269.814674 236.355209 
L 269.863089 236.670265 
L 269.94378 236.775284 
L 270.089025 237.09034 
L 270.282684 237.195359 
L 270.395652 237.405396 
L 270.524759 237.195359 
L 270.653865 237.195359 
L 270.782971 237.510415 
L 270.79911 237.615434 
L 270.879801 237.510415 
L 271.008907 237.300377 
L 271.154152 237.405396 
L 271.218705 237.615434 
L 271.26712 237.510415 
L 271.428503 237.09034 
L 271.444641 237.195359 
L 271.525333 237.09034 
L 271.638301 236.985321 
L 271.702854 236.880302 
L 271.896514 236.25019 
L 272.009482 236.145171 
L 272.283833 234.989965 
L 272.299971 235.094984 
L 272.380663 234.989965 
L 272.445216 234.989965 
L 272.59046 234.464872 
L 272.816397 233.624722 
L 272.88095 233.519703 
L 273.090748 232.784572 
L 273.123024 232.679553 
L 273.25213 232.469516 
L 273.300545 232.574535 
L 273.461928 232.99461 
L 273.526482 233.099628 
L 273.671726 233.414684 
L 273.800833 233.519703 
L 273.865386 233.624722 
L 273.881524 233.519703 
L 274.075184 232.889591 
L 274.172013 232.784572 
L 274.414088 231.839404 
L 274.446364 231.734385 
L 274.623886 231.209291 
L 274.704577 231.31431 
L 274.752992 231.419329 
L 274.785269 231.209291 
L 274.801407 231.31431 
L 274.86596 231.209291 
L 274.946651 230.999254 
L 274.96279 231.104272 
L 275.043481 231.209291 
L 275.05962 231.104272 
L 275.172588 230.999254 
L 275.350109 230.47416 
L 275.495354 230.369141 
L 275.753566 229.213935 
L 275.801981 229.318954 
L 275.834258 229.213935 
L 276.027917 228.583823 
L 276.060194 228.478804 
L 276.140885 228.583823 
L 276.1893 228.268767 
L 276.221577 228.163748 
L 276.399098 227.218579 
L 276.641172 226.168392 
L 276.657311 226.273411 
L 276.705726 226.063373 
L 277.04463 223.332887 
L 277.286704 219.132137 
L 277.351257 72.000899 
L 277.431949 151.605095 
L 277.593332 232.259478 
L 277.754715 233.834759 
L 278.206587 237.405396 
L 278.448662 239.295733 
L 278.480938 239.400752 
L 278.868257 241.396108 
L 278.900534 241.291089 
L 278.93281 241.501127 
L 278.948949 241.501127 
L 279.094193 241.816183 
L 279.158747 241.921201 
L 279.287853 242.131239 
L 279.320129 242.236258 
L 279.433098 242.341276 
L 279.69131 242.236258 
L 279.836555 241.921201 
L 280.014076 241.816183 
L 280.223874 241.081052 
L 280.54664 240.976033 
L 280.64347 240.871014 
L 280.659608 240.976033 
L 280.740299 240.871014 
L 280.804853 240.765995 
L 280.820991 240.660977 
L 280.885544 240.871014 
L 280.901682 240.765995 
L 281.079204 240.660977 
L 281.192172 240.555958 
L 281.563353 240.450939 
L 281.708597 240.135883 
L 281.789289 240.240902 
L 281.805427 240.135883 
L 282.241161 240.030864 
L 282.370267 239.820827 
L 282.483235 239.715808 
L 282.612342 239.505771 
L 282.951246 239.400752 
L 283.096491 239.085696 
L 283.403118 238.980677 
L 283.532225 238.77064 
L 283.85499 238.665621 
L 284.000235 238.350565 
L 284.04865 238.245546 
L 284.210033 237.825471 
L 284.24231 237.720452 
L 284.387554 237.405396 
L 284.484384 237.300377 
L 284.71032 236.460228 
L 284.90398 236.355209 
L 285.033086 236.145171 
L 285.065363 236.040153 
L 285.259022 235.41004 
L 285.307437 235.305022 
L 285.420405 235.200003 
L 285.46882 235.094984 
L 285.662479 234.464872 
L 285.678618 234.56989 
L 285.743171 234.359853 
L 285.823862 234.254834 
L 285.985245 233.834759 
L 286.146628 233.729741 
L 286.308011 233.309666 
L 286.437118 233.519703 
L 286.517809 233.414684 
L 286.550086 233.309666 
L 286.598501 233.414684 
L 286.711469 233.519703 
L 286.743745 233.414684 
L 286.856713 233.309666 
L 287.486107 233.204647 
L 287.582937 232.99461 
L 287.599075 233.099628 
L 287.760458 232.99461 
L 288.067085 231.629366 
L 288.341436 231.524347 
L 288.486681 231.104272 
L 288.567373 231.419329 
L 288.615788 231.31431 
L 288.809447 230.684197 
L 288.841724 230.579179 
L 288.97083 230.369141 
L 289.132213 230.789216 
L 289.245181 230.894235 
L 289.374287 231.104272 
L 289.567947 230.999254 
L 289.810021 230.054085 
L 289.987543 229.949066 
L 290.342585 228.268767 
L 290.358723 228.373785 
L 290.391 228.163748 
L 290.439415 228.268767 
L 290.552383 228.163748 
L 290.665351 228.058729 
L 290.697628 227.953711 
L 290.842872 227.638654 
L 290.907425 227.533636 
L 291.004255 227.323598 
L 291.020394 227.428617 
L 291.05267 227.323598 
L 291.197915 227.008542 
L 291.230191 226.903523 
L 292.069383 221.022474 
L 292.101659 217.766894 
L 292.166212 72.420974 
L 292.230766 136.482398 
L 292.408287 231.524347 
L 292.553532 232.364497 
L 292.634223 232.469516 
L 293.376585 236.670265 
L 293.424999 236.775284 
L 293.780042 238.455583 
L 293.844595 238.560602 
L 294.054393 239.400752 
L 294.070531 239.295733 
L 294.118946 239.505771 
L 294.135084 239.505771 
L 294.248053 239.610789 
L 294.377159 239.820827 
L 294.490127 239.715808 
L 294.667648 239.820827 
L 294.812893 240.135883 
L 294.877446 240.240902 
L 294.990414 240.34592 
L 295.11952 240.450939 
L 295.21635 240.555958 
L 295.345457 240.34592 
L 295.571393 240.240902 
L 295.732776 239.820827 
L 295.797329 239.715808 
L 295.926435 239.505771 
L 295.990988 239.400752 
L 296.120095 239.190714 
L 296.200786 239.085696 
L 296.378308 238.560602 
L 296.555829 238.455583 
L 296.571967 238.350565 
L 296.652659 238.455583 
L 296.83018 238.980677 
L 297.346605 238.875658 
L 297.507988 238.455583 
L 297.717786 238.350565 
L 297.927584 237.615434 
L 298.040552 237.510415 
L 298.15352 237.195359 
L 298.169658 237.300377 
L 298.234211 237.195359 
L 298.444009 236.460228 
L 298.524701 236.355209 
L 298.637669 236.145171 
L 298.653807 236.25019 
L 298.702222 236.040153 
L 298.71836 236.040153 
L 298.976573 234.989965 
L 299.057265 234.884947 
L 299.267062 234.149816 
L 299.315477 234.044797 
L 299.347754 233.939778 
L 299.412307 234.044797 
L 299.912594 233.939778 
L 300.041701 233.729741 
L 300.073977 233.624722 
L 300.170807 233.414684 
L 300.186945 233.519703 
L 300.219222 233.624722 
L 300.267637 233.414684 
L 300.541988 233.309666 
L 300.671094 233.099628 
L 300.735647 233.204647 
L 300.767924 233.099628 
L 300.961583 232.99461 
L 301.139105 232.469516 
L 301.155243 232.574535 
L 301.203658 232.364497 
L 301.219796 232.364497 
L 301.397317 232.259478 
L 301.526424 232.049441 
L 301.816913 232.15446 
L 301.929881 232.259478 
L 302.139679 232.364497 
L 302.284924 232.679553 
L 302.397892 232.574535 
L 302.51086 232.679553 
L 302.672243 232.15446 
L 302.752934 232.364497 
L 302.785211 232.259478 
L 302.849764 232.15446 
L 303.027285 231.629366 
L 303.091838 231.524347 
L 303.26936 230.999254 
L 303.333913 230.894235 
L 303.479157 230.579179 
L 303.575987 230.47416 
L 303.721232 230.159104 
L 303.850338 230.054085 
L 304.011721 229.63401 
L 304.108551 229.528991 
L 304.286072 229.003898 
L 304.528147 228.898879 
L 304.608838 228.583823 
L 304.657253 228.688842 
L 304.721806 228.688842 
L 304.818636 228.268767 
L 304.850912 228.373785 
L 304.899327 228.373785 
L 305.06071 227.428617 
L 305.109125 227.533636 
L 305.125263 227.428617 
L 305.270508 226.903523 
L 305.367338 226.798505 
L 305.560997 226.168392 
L 305.609412 226.063373 
L 306.190391 221.757606 
L 306.351774 217.871913 
L 306.416327 72.946068 
L 306.497019 151.920151 
L 306.658402 230.999254 
L 306.739093 231.839404 
L 306.787508 231.629366 
L 306.932753 231.209291 
L 306.948891 231.31431 
L 306.997306 231.104272 
L 307.029582 231.209291 
L 307.207104 231.31431 
L 307.820359 234.674909 
L 307.868774 234.779928 
L 308.046295 235.305022 
L 308.110848 235.41004 
L 308.304508 236.565246 
L 308.465891 236.985321 
L 308.788657 236.880302 
L 308.885486 236.775284 
L 308.998454 236.880302 
L 309.095284 236.985321 
L 309.22439 237.195359 
L 309.337359 237.09034 
L 309.466465 237.195359 
L 309.579433 237.300377 
L 309.708539 237.09034 
L 309.756954 236.985321 
L 309.789231 236.880302 
L 309.853784 236.985321 
L 310.111997 237.09034 
L 310.224965 237.195359 
L 310.499316 237.09034 
L 310.628422 236.880302 
L 310.967326 236.775284 
L 311.096433 236.565246 
L 311.160986 236.460228 
L 311.322369 236.040153 
L 311.354645 235.935134 
L 311.532167 235.41004 
L 311.564443 235.305022 
L 311.709688 234.989965 
L 311.919486 234.884947 
L 312.032454 234.779928 
L 312.306805 234.674909 
L 312.468188 234.254834 
L 312.532741 234.149816 
L 312.694124 233.729741 
L 312.903922 233.624722 
L 313.033028 233.414684 
L 313.081443 233.309666 
L 313.210549 233.099628 
L 313.355794 232.99461 
L 313.371932 232.889591 
L 313.452624 232.99461 
L 313.67856 232.889591 
L 313.743113 232.99461 
L 313.823805 232.574535 
L 313.936773 232.469516 
L 314.049741 232.364497 
L 314.43706 232.259478 
L 314.646858 231.524347 
L 314.743687 231.419329 
L 314.856655 231.104272 
L 314.872794 231.209291 
L 314.985762 231.104272 
L 315.163283 230.579179 
L 315.243975 230.47416 
L 315.405358 230.054085 
L 315.599017 229.949066 
L 315.728123 229.63401 
L 315.744262 229.739029 
L 315.824953 229.63401 
L 315.937921 229.423973 
L 316.583453 232.99461 
L 316.793251 232.889591 
L 316.809389 232.784572 
L 316.873942 232.889591 
L 316.890081 232.99461 
L 316.938496 232.784572 
L 316.954634 232.784572 
L 317.164432 232.679553 
L 317.2774 232.469516 
L 317.406506 232.679553 
L 317.713134 232.574535 
L 317.826102 232.469516 
L 317.874517 232.364497 
L 318.197283 230.789216 
L 318.213421 230.894235 
L 318.261836 230.684197 
L 318.294112 230.789216 
L 318.713708 228.688842 
L 318.745985 228.583823 
L 318.988059 227.638654 
L 319.020336 227.638654 
L 319.197857 226.588467 
L 319.310825 226.588467 
L 319.472208 225.853336 
L 319.633591 224.173036 
L 319.859527 219.867268 
L 319.891804 149.189664 
L 319.92408 74.311311 
L 319.988633 123.985169 
L 320.166155 228.478804 
L 320.246846 229.423973 
L 320.295261 229.108917 
L 320.359814 229.213935 
L 320.553474 229.844048 
L 320.666442 229.949066 
L 320.811686 230.264123 
L 320.87624 230.369141 
L 321.279697 232.364497 
L 321.328112 232.469516 
L 321.489495 232.889591 
L 321.53791 232.99461 
L 321.667016 233.204647 
L 321.796122 233.309666 
L 321.925229 233.519703 
L 321.989782 233.624722 
L 322.135027 233.939778 
L 322.29641 234.044797 
L 322.441654 234.359853 
L 322.473931 234.254834 
L 322.538484 234.359853 
L 322.66759 234.56989 
L 322.76442 234.674909 
L 322.974218 235.41004 
L 323.006495 235.515059 
L 323.119463 235.620078 
L 323.652026 235.515059 
L 323.764994 235.305022 
L 323.797271 235.41004 
L 323.861824 235.305022 
L 323.910239 235.200003 
L 324.023207 234.884947 
L 324.039345 234.989965 
L 324.152314 234.884947 
L 324.168452 234.779928 
L 324.200728 234.989965 
L 324.216867 234.989965 
L 324.265282 235.094984 
L 324.313696 234.989965 
L 324.426665 234.779928 
L 324.539633 234.884947 
L 324.555771 234.779928 
L 324.636462 234.884947 
L 324.765569 234.989965 
L 324.830122 235.094984 
L 324.862399 234.989965 
L 325.023781 235.094984 
L 325.056058 235.200003 
L 325.120611 235.094984 
L 325.685452 234.989965 
L 325.814558 234.779928 
L 325.895249 234.674909 
L 326.024356 234.464872 
L 326.185739 234.359853 
L 326.347122 233.939778 
L 326.395537 233.834759 
L 326.540781 233.309666 
L 326.589196 233.204647 
L 326.750579 232.784572 
L 326.782856 232.679553 
L 326.911962 232.469516 
L 326.992653 232.364497 
L 327.137898 232.049441 
L 327.21859 231.944422 
L 327.299281 231.839404 
L 327.315419 231.944422 
L 327.58977 231.839404 
L 327.638185 231.734385 
L 327.6866 231.839404 
L 327.767292 231.734385 
L 327.944813 231.209291 
L 328.186887 231.104272 
L 328.412823 230.264123 
L 328.493515 230.264123 
L 328.622621 229.63401 
L 328.63876 229.739029 
L 328.961525 229.844048 
L 328.977664 229.949066 
L 329.00994 229.739029 
L 329.042217 229.739029 
L 329.219738 229.63401 
L 329.332706 229.213935 
L 329.364983 229.318954 
L 329.413398 229.213935 
L 329.590919 228.688842 
L 329.703887 228.79386 
L 329.86527 228.688842 
L 329.9621 228.163748 
L 330.010515 228.373785 
L 330.091206 228.688842 
L 330.123483 228.478804 
L 330.204174 228.373785 
L 330.397834 227.743673 
L 330.43011 227.848692 
L 330.478525 227.638654 
L 330.688323 227.638654 
L 330.833568 227.113561 
L 330.930398 227.113561 
L 331.124057 251.16285 
L 331.495238 268.175884 
L 332.076216 283.508618 
L 332.786301 295.270715 
L 333.528663 303.567195 
L 335.142493 313.438955 
L 335.174769 313.438955 
L 335.336152 314.279105 
L 335.35229 314.279105 
L 335.529812 315.224274 
L 335.933269 317.21963 
L 335.965546 317.324648 
L 336.191482 318.164798 
L 336.239897 318.269817 
L 336.433556 318.899929 
L 336.465833 319.004948 
L 336.594939 319.214985 
L 336.675631 319.320004 
L 336.853152 319.845098 
L 336.917705 319.950117 
L 337.079088 320.47521 
L 337.111365 320.370191 
L 337.127503 320.580229 
L 337.159779 320.580229 
L 337.321162 321.000304 
L 337.385716 321.105323 
L 337.547099 321.525398 
L 337.660067 321.630416 
L 337.82145 322.050491 
L 337.950556 322.15551 
L 338.079662 322.470566 
L 338.095801 322.365547 
L 338.144215 322.575585 
L 338.160354 322.470566 
L 338.305598 322.785622 
L 338.434705 322.890641 
L 338.563811 323.100678 
L 338.741332 323.205697 
L 338.838162 323.310716 
L 338.934992 323.205697 
L 338.983407 323.310716 
L 339.031822 323.205697 
L 339.306173 323.100678 
L 339.386864 322.99566 
L 339.403002 323.100678 
L 340.758619 322.99566 
L 340.887726 322.785622 
L 341.049109 322.680604 
L 341.194353 322.365547 
L 341.258906 322.260529 
L 341.388013 322.050491 
L 341.565534 321.945472 
L 341.69464 321.735435 
L 341.79147 321.840454 
L 341.904438 321.735435 
L 342.630662 321.630416 
L 342.6468 321.525398 
L 342.679076 321.735435 
L 342.711353 321.735435 
L 342.888874 321.630416 
L 343.001842 321.525398 
L 343.760342 321.420379 
L 343.792619 321.31536 
L 343.857172 321.420379 
L 343.97014 321.31536 
L 344.050831 321.210341 
L 344.06697 321.31536 
L 344.228353 321.210341 
L 344.341321 321.105323 
L 344.680225 321.000304 
L 344.696363 320.895285 
L 344.777055 321.000304 
L 344.922299 320.895285 
L 345.035268 320.790266 
L 345.600108 320.685248 
L 345.616246 320.580229 
L 345.696938 320.685248 
L 345.793767 320.580229 
L 345.906735 320.47521 
L 346.068118 320.370191 
L 346.181086 320.160154 
L 346.213363 320.265173 
L 346.261778 320.160154 
L 346.374746 320.055135 
L 346.568406 319.950117 
L 346.584544 319.845098 
L 346.665235 319.950117 
L 346.971863 319.845098 
L 347.100969 319.63506 
L 347.940161 319.740079 
L 347.972437 319.845098 
L 348.03699 319.740079 
L 349.666958 319.845098 
L 349.683097 319.950117 
L 349.763788 319.845098 
L 351.16782 319.950117 
L 351.264649 320.055135 
L 351.361479 319.950117 
L 351.393756 320.055135 
L 351.442171 319.950117 
L 351.539 319.845098 
L 351.555139 319.950117 
L 351.63583 319.845098 
L 352.362054 319.950117 
L 352.475022 320.055135 
L 353.072139 319.950117 
L 353.088277 319.845098 
L 353.168968 319.950117 
L 353.362628 319.845098 
L 353.394904 319.740079 
L 353.443319 319.950117 
L 353.524011 319.845098 
L 353.572426 319.740079 
L 353.604702 319.845098 
L 353.669255 319.950117 
L 353.701532 319.845098 
L 354.702106 319.740079 
L 354.815074 319.63506 
L 354.831213 319.740079 
L 354.879628 319.530042 
L 354.895766 319.63506 
L 355.008734 319.530042 
L 355.13784 319.425023 
L 355.3315 273.321801 
L 355.79951 226.588467 
L 355.89634 209.260377 
L 355.944755 69.375431 
L 356.009308 139.317904 
L 356.154553 224.488093 
L 356.170691 224.278055 
L 356.364351 216.40165 
L 356.800085 202.224122 
L 356.864638 72.525993 
L 356.945329 137.847642 
L 357.122851 216.40165 
L 357.284234 218.291988 
L 357.477893 218.9221 
L 357.590861 218.9221 
L 357.703829 219.342175 
L 357.719968 219.237156 
L 357.865212 219.132137 
L 358.17184 217.766894 
L 358.236393 217.661875 
L 358.73668 213.776182 
L 359.043308 208.525246 
L 359.172414 201.173935 
L 359.236967 68.325243 
L 359.30152 121.044645 
L 359.49518 216.716707 
L 359.672701 219.76225 
L 359.898637 220.707418 
L 359.930914 220.6024 
L 359.995467 220.707418 
L 360.237542 220.6024 
L 360.511893 219.447194 
L 360.640999 219.342175 
L 360.834658 218.502025 
L 360.850797 218.607044 
L 360.947627 218.502025 
L 361.092871 217.976931 
L 361.10901 218.08195 
L 361.173563 217.976931 
L 361.318807 217.661875 
L 361.351084 217.556856 
L 361.625435 216.40165 
L 361.706126 216.296632 
L 361.867509 215.876557 
L 361.883648 215.876557 
L 362.028892 215.246444 
L 362.125722 215.141426 
L 362.416211 213.881201 
L 362.496903 213.776182 
L 363.223126 209.680452 
L 363.255403 209.575433 
L 363.545892 205.794759 
L 363.56203 203.799403 
L 363.626584 66.96 
L 363.707275 133.751911 
L 363.884796 215.351463 
L 364.046179 218.08195 
L 364.143009 218.186969 
L 364.272115 218.397006 
L 364.32053 218.502025 
L 364.352807 218.712062 
L 364.433498 218.607044 
L 364.449637 218.502025 
L 364.51419 218.607044 
L 364.594881 218.817081 
L 364.627158 218.712062 
L 364.836956 218.817081 
L 364.853094 218.9221 
L 364.885371 218.712062 
L 364.917647 218.712062 
L 365.159722 217.766894 
L 365.17586 217.766894 
L 365.337243 216.926744 
L 365.595456 216.821725 
L 366.240987 213.251089 
L 366.321679 213.356107 
L 366.370094 213.566145 
L 366.40237 213.356107 
L 366.757413 211.675808 
L 366.821966 211.675808 
L 366.967211 211.045695 
L 367.015626 211.255733 
L 367.06404 211.045695 
L 367.193147 210.940677 
L 367.91937 205.68974 
L 367.983923 203.379328 
L 368.0162 153.180376 
L 368.064615 68.430262 
L 368.129168 118.629214 
L 368.338966 214.301276 
L 368.516487 216.716707 
L 368.694008 217.2418 
L 368.806976 217.136782 
L 368.919944 217.2418 
L 369.178157 217.346819 
L 369.194295 217.451838 
L 369.24271 217.346819 
L 369.323402 217.136782 
L 369.355678 217.2418 
L 369.387955 217.556856 
L 369.468646 217.451838 
L 369.646168 216.926744 
L 369.662306 217.031763 
L 369.710721 216.821725 
L 369.888242 216.191613 
L 369.920519 216.296632 
L 369.968934 216.086594 
L 370.485359 213.356107 
L 370.533774 213.251089 
L 370.695157 212.30592 
L 370.808125 212.410939 
L 371.050199 211.46577 
L 371.082476 211.360751 
L 371.211582 210.835658 
L 371.243859 210.940677 
L 371.292274 210.835658 
L 371.389104 210.520602 
L 371.42138 210.62562 
L 371.534348 210.730639 
L 371.679593 211.255733 
L 371.744146 211.045695 
L 371.776423 211.255733 
L 371.840976 211.150714 
L 371.970082 210.730639 
L 371.98622 210.835658 
L 372.08305 210.730639 
L 372.502646 208.630265 
L 372.534923 208.525246 
L 372.776997 206.739927 
L 372.857688 205.584721 
L 372.922242 201.804047 
L 372.986795 67.80015 
L 373.067486 124.930338 
L 373.261146 211.885845 
L 373.454805 214.196257 
L 373.680741 215.036407 
L 373.858263 214.931388 
L 373.955092 214.721351 
L 373.971231 214.82637 
L 374.051922 215.036407 
L 374.084199 214.931388 
L 374.293997 214.091238 
L 374.310135 214.196257 
L 374.35855 213.881201 
L 374.519933 213.356107 
L 374.536071 213.461126 
L 374.600624 213.251089 
L 374.842699 213.14607 
L 375.052497 212.410939 
L 375.100911 212.515957 
L 375.197741 212.725995 
L 375.21388 212.620976 
L 375.262294 212.515957 
L 375.488231 211.675808 
L 375.520507 211.570789 
L 375.843273 209.995508 
L 375.891688 210.205545 
L 375.923965 209.995508 
L 376.149901 209.155358 
L 376.182177 209.260377 
L 376.24673 209.155358 
L 376.295145 209.050339 
L 376.666326 207.265021 
L 376.795432 207.160002 
L 377.10206 204.639553 
L 377.182752 202.119103 
L 377.215028 163.997305 
L 377.263443 68.6403 
L 377.327996 111.59296 
L 377.537794 209.365396 
L 377.683039 212.095883 
L 377.699177 211.990864 
L 377.908975 212.725995 
L 377.941251 212.831014 
L 378.102634 213.251089 
L 378.231741 213.356107 
L 378.280156 213.461126 
L 378.32857 213.356107 
L 378.473815 213.041051 
L 378.586783 212.936032 
L 378.828858 211.990864 
L 378.861134 211.885845 
L 378.990241 211.570789 
L 379.119347 211.780826 
L 379.167762 211.675808 
L 379.458251 210.415583 
L 379.522804 210.310564 
L 379.651911 210.100527 
L 379.74874 209.995508 
L 379.974677 209.155358 
L 380.023091 209.050339 
L 380.216751 207.685096 
L 380.232889 207.790115 
L 380.265166 207.580077 
L 380.281304 207.580077 
L 380.410411 207.37004 
L 380.491102 207.475059 
L 380.571794 207.685096 
L 380.60407 207.580077 
L 380.684762 207.475059 
L 380.846145 207.054984 
L 380.862283 207.160002 
L 380.894559 206.844946 
L 381.088219 206.109815 
L 381.104357 206.214834 
L 381.16891 206.004796 
L 381.523953 200.123748 
L 381.55623 193.402549 
L 381.620783 68.220225 
L 381.685336 110.542772 
L 381.911272 210.730639 
L 382.104932 213.14607 
L 382.185623 213.251089 
L 382.347006 213.671163 
L 382.379283 213.776182 
L 382.540666 214.196257 
L 382.702048 214.091238 
L 382.927985 213.251089 
L 383.121644 213.356107 
L 383.234612 213.776182 
L 383.266889 213.671163 
L 383.379857 213.776182 
L 383.395995 213.881201 
L 383.44441 213.671163 
L 383.460548 213.671163 
L 383.654208 213.041051 
L 383.702623 212.936032 
L 383.815591 212.410939 
L 383.864006 212.515957 
L 383.896282 212.410939 
L 384.089942 211.780826 
L 384.122218 211.885845 
L 384.170633 211.675808 
L 384.219048 211.570789 
L 384.396569 211.045695 
L 384.461123 210.940677 
L 384.557952 210.835658 
L 384.606367 211.045695 
L 384.67092 210.940677 
L 384.735474 210.835658 
L 384.896857 210.310564 
L 384.945272 210.415583 
L 384.993686 210.310564 
L 385.042101 210.205545 
L 385.090516 210.310564 
L 385.171208 210.205545 
L 385.300314 209.785471 
L 385.316452 209.890489 
L 385.348729 209.995508 
L 385.364867 210.100527 
L 385.42942 209.890489 
L 386.123367 204.744572 
L 386.317027 198.863523 
L 386.38158 70.425618 
L 386.47841 132.701724 
L 386.672069 208.945321 
L 386.833452 210.940677 
L 386.84959 210.835658 
L 386.881867 211.150714 
L 387.107803 212.095883 
L 387.14008 211.990864 
L 387.188495 212.200901 
L 387.285324 212.30592 
L 387.398292 212.515957 
L 387.575814 211.990864 
L 387.70492 211.885845 
L 387.850165 211.570789 
L 387.89858 211.46577 
L 387.963133 211.360751 
L 387.979271 211.46577 
L 388.140654 212.30592 
L 388.302037 211.885845 
L 388.527973 211.780826 
L 388.640941 211.675808 
L 388.753909 211.570789 
L 388.947569 210.940677 
L 388.979845 210.835658 
L 389.157367 210.310564 
L 389.189643 210.205545 
L 389.641515 207.895133 
L 389.657654 207.895133 
L 389.899728 205.164647 
L 390.093388 203.274309 
L 390.319324 197.498279 
L 390.3516 146.354159 
L 390.400015 69.900524 
L 390.464568 112.223072 
L 390.674366 206.634909 
L 390.835749 209.260377 
L 390.868026 209.365396 
L 391.126239 210.415583 
L 391.158515 210.415583 
L 391.174653 210.205545 
L 391.271483 210.310564 
L 391.352175 210.100527 
L 391.368313 210.205545 
L 391.432866 210.415583 
L 391.481281 210.310564 
L 391.513558 210.100527 
L 391.578111 210.205545 
L 391.691079 210.310564 
L 391.739494 210.205545 
L 391.949292 209.470414 
L 392.078398 209.365396 
L 392.385026 208.000152 
L 392.449579 207.895133 
L 392.610962 207.054984 
L 392.659377 206.949965 
L 392.869174 205.584721 
L 392.885313 205.584721 
L 393.175802 203.169291 
L 393.595398 199.91371 
L 393.724504 196.238055 
L 393.756781 156.645994 
L 393.805196 70.635656 
L 393.869749 104.871761 
L 394.111823 205.794759 
L 394.305483 209.050339 
L 394.499142 210.310564 
L 394.547557 210.415583 
L 394.70894 210.835658 
L 394.741217 210.940677 
L 394.870323 211.150714 
L 394.983291 211.255733 
L 395.015568 211.360751 
L 395.080121 211.255733 
L 395.37061 209.995508 
L 395.419025 209.890489 
L 395.548131 209.680452 
L 395.612685 209.680452 
L 395.757929 209.155358 
L 395.806344 209.050339 
L 395.967727 208.420227 
L 395.983865 208.525246 
L 396.096833 208.420227 
L 396.290493 207.265021 
L 396.32277 207.160002 
L 396.69395 205.374684 
L 396.742365 205.269665 
L 397.048993 203.589366 
L 397.081269 203.694384 
L 397.161961 203.589366 
L 397.517003 198.128392 
L 397.565418 190.672062 
L 397.629972 70.950712 
L 397.710663 116.633859 
L 397.936599 205.059628 
L 398.130259 208.315208 
L 398.162535 208.420227 
L 398.485301 209.890489 
L 398.582131 209.995508 
L 398.711237 210.205545 
L 398.904897 210.100527 
L 399.034003 209.890489 
L 399.211524 209.785471 
L 399.437461 208.945321 
L 399.582705 208.840302 
L 399.744088 208.420227 
L 399.857056 208.525246 
L 399.889333 208.420227 
L 399.937748 208.525246 
L 399.970024 208.630265 
L 400.018439 208.525246 
L 400.405758 206.634909 
L 400.454173 206.52989 
L 401.196535 201.068916 
L 401.406333 195.607942 
L 401.487024 70.950712 
L 401.583854 131.546518 
L 401.777513 203.169291 
L 401.955035 206.52989 
L 402.229386 208.735283 
L 402.358492 209.050339 
L 402.503737 208.735283 
L 402.56829 208.840302 
L 402.584428 208.945321 
L 402.66512 208.840302 
L 402.842641 208.735283 
L 403.052439 208.000152 
L 403.100854 207.895133 
L 403.278375 207.37004 
L 403.342928 207.265021 
L 403.455896 207.054984 
L 403.568864 207.160002 
L 403.923907 207.054984 
L 404.036875 206.949965 
L 404.165981 207.054984 
L 404.214396 207.160002 
L 404.262811 207.054984 
L 404.359641 207.160002 
L 404.424194 207.265021 
L 404.45647 207.160002 
L 404.521024 207.054984 
L 404.730821 206.004796 
L 404.763098 206.109815 
L 405.102002 206.004796 
L 405.327938 205.164647 
L 405.392492 205.059628 
L 405.50546 204.429515 
L 405.537736 204.534534 
L 405.602289 204.429515 
L 405.908917 201.804047 
L 406.247821 196.028017 
L 406.296236 191.092137 
L 406.376928 72.315955 
L 406.441481 113.273259 
L 406.667417 204.114459 
L 406.861076 207.895133 
L 407.248395 209.785471 
L 407.329087 209.890489 
L 407.345225 209.995508 
L 407.39364 209.785471 
L 407.409778 209.785471 
L 407.442055 209.785471 
L 407.571161 209.365396 
L 407.813236 209.470414 
L 407.893927 209.575433 
L 407.910066 209.470414 
L 408.119863 209.575433 
L 408.200555 209.785471 
L 408.232831 209.680452 
L 408.3458 209.575433 
L 408.507182 209.155358 
L 408.604012 209.155358 
L 408.797672 208.000152 
L 409.088161 206.739927 
L 409.152714 206.634909 
L 409.701416 203.589366 
L 409.717555 203.694384 
L 409.749831 203.484347 
L 409.782108 203.484347 
L 409.927352 202.644197 
L 409.959629 202.854234 
L 410.072597 202.959253 
L 410.395363 202.854234 
L 410.927927 198.968542 
L 411.08931 193.402549 
L 411.121586 167.67296 
L 411.186139 72.315955 
L 411.250693 111.487941 
L 411.476629 203.904422 
L 411.65415 207.580077 
L 411.896224 209.365396 
L 412.025331 209.680452 
L 412.154437 209.470414 
L 412.331958 209.365396 
L 412.461065 209.155358 
L 412.622448 209.260377 
L 412.703139 209.680452 
L 412.767692 209.575433 
L 412.961352 208.945321 
L 413.058182 208.840302 
L 413.187288 208.630265 
L 413.300256 208.525246 
L 413.477777 207.685096 
L 413.493916 207.790115 
L 413.623022 208.000152 
L 413.784405 207.580077 
L 413.83282 207.475059 
L 414.284692 205.164647 
L 414.365384 205.059628 
L 414.413799 205.164647 
L 414.49449 204.84959 
L 414.526767 204.744572 
L 414.704288 203.799403 
L 414.752703 203.904422 
L 414.784979 203.799403 
L 415.123884 201.068916 
L 415.398235 193.927643 
L 415.446649 104.451686 
L 415.478926 72.000899 
L 415.543479 106.552061 
L 415.785554 204.114459 
L 415.979213 207.475059 
L 416.189011 208.840302 
L 416.398809 209.575433 
L 416.624745 209.470414 
L 416.705436 209.365396 
L 416.721575 209.470414 
L 416.76999 209.470414 
L 416.931373 208.735283 
L 416.963649 208.840302 
L 416.995926 208.735283 
L 417.14117 208.21019 
L 417.189585 208.105171 
L 417.350968 207.685096 
L 417.399383 207.580077 
L 417.673734 206.424871 
L 417.706011 206.319853 
L 418.077192 204.534534 
L 418.238574 204.429515 
L 418.512926 203.169291 
L 418.529064 203.274309 
L 418.56134 203.064272 
L 418.593617 203.064272 
L 418.642032 202.959253 
L 419.110042 199.283598 
L 419.31984 195.187867 
L 419.352117 191.722249 
L 419.432808 72.210936 
L 419.5135 118.629214 
L 419.771713 229.844048 
L 420.013787 255.888692 
L 420.433383 276.367344 
L 420.83684 287.814386 
L 421.224159 295.060678 
L 421.627616 300.836708 
L 421.756723 302.30697 
L 422.208595 306.822776 
L 422.660467 310.393412 
L 422.870265 311.863675 
L 422.902542 311.968693 
L 423.612627 315.959405 
L 423.644903 316.064424 
L 424.048361 318.059779 
L 424.096776 318.164798 
L 424.354988 319.214985 
L 424.403403 319.320004 
L 424.564786 320.055135 
L 424.645478 320.160154 
L 424.839137 320.790266 
L 424.871414 320.895285 
L 425.081212 321.630416 
L 425.113488 321.735435 
L 425.274871 322.15551 
L 425.339424 322.260529 
L 425.516946 322.785622 
L 425.581499 322.890641 
L 425.726743 323.205697 
L 425.839712 323.310716 
L 426.001094 323.730791 
L 426.097924 323.83581 
L 426.243169 324.150866 
L 426.32386 324.255884 
L 426.469105 324.570941 
L 426.565935 324.675959 
L 426.678903 324.885997 
L 426.695041 324.780978 
L 426.759594 324.991016 
L 426.856424 325.096034 
L 426.98553 325.306072 
L 427.033945 325.41109 
L 427.146913 325.516109 
L 427.243743 325.621128 
L 427.388988 325.936184 
L 427.421264 325.831165 
L 427.485818 325.936184 
L 428.131349 326.041203 
L 428.260456 326.25124 
L 429.148062 326.356259 
L 429.1642 326.461278 
L 429.244892 326.356259 
L 429.341722 326.25124 
L 429.45469 326.356259 
L 429.729041 326.461278 
L 429.793594 326.566296 
L 429.82587 326.461278 
L 430.697338 326.356259 
L 430.810306 326.25124 
L 431.310594 326.146222 
L 431.375147 326.041203 
L 431.407423 326.146222 
L 431.972264 326.041203 
L 432.10137 325.831165 
L 432.633934 325.726147 
L 432.746902 325.621128 
L 433.392434 325.516109 
L 433.505402 325.41109 
L 433.795891 325.306072 
L 433.860444 325.096034 
L 433.908859 325.201053 
L 433.989551 325.306072 
L 434.005689 325.201053 
L 434.74805 325.096034 
L 434.861019 324.991016 
L 435.232199 324.885997 
L 435.345167 324.780978 
L 435.635657 324.675959 
L 435.732486 324.570941 
L 435.780901 324.675959 
L 435.780901 324.675959 
" style="fill:none;stroke:#1f77b4;stroke-linecap:square;stroke-width:1.5;"/>
   </g>
   <g id="line2d_15">
    <path clip-path="url(#pbaf3f42158)" d="M 80.754545 315.20327 
L 83.6433 307.804575 
L 83.83696 307.374418 
L 84.482492 305.954901 
L 84.724566 305.460221 
L 85.192577 304.513876 
L 85.499204 303.933164 
L 85.870385 303.244913 
L 86.289981 302.513647 
L 86.612747 301.954443 
L 87.548768 300.534926 
L 87.790842 300.190801 
L 88.920523 298.556205 
L 90.114757 284.10294 
L 91.551065 269.972292 
L 92.374118 263.304863 
L 94.213884 251.776663 
L 95.117628 247.561127 
L 96.311862 243.238052 
L 97.957968 239.151564 
L 98.361426 238.441805 
L 98.651915 237.968633 
L 99.894564 236.484592 
L 100.039808 236.377053 
L 100.362574 236.118959 
L 100.540095 236.01142 
L 100.78217 235.860865 
L 101.008106 235.753325 
L 101.201765 235.667294 
L 101.54067 235.559755 
L 101.718191 235.495231 
L 103.929137 235.602771 
L 104.106659 235.667294 
L 104.461701 235.774833 
L 104.655361 235.860865 
L 104.94585 235.968404 
L 105.155648 236.075943 
L 105.413861 236.183482 
L 105.639797 236.312529 
L 105.881871 236.420068 
L 106.107807 236.549115 
L 106.317605 236.656655 
L 106.559679 236.807209 
L 106.753339 236.914749 
L 106.995413 237.065303 
L 107.189073 237.172843 
L 107.447286 237.344905 
L 107.640945 237.452444 
L 107.899158 237.624507 
L 108.076679 237.732046 
L 108.334892 237.904109 
L 108.512413 238.011648 
L 108.786764 238.205219 
L 108.980424 238.312758 
L 109.254775 238.506328 
L 109.448434 238.613868 
L 109.722785 238.807438 
L 109.916445 238.914977 
L 110.190796 239.108548 
L 110.384455 239.216087 
L 110.642668 239.38815 
L 110.836328 239.495689 
L 111.09454 239.667752 
L 111.2882 239.775291 
L 111.530274 239.925846 
L 111.723934 240.033385 
L 111.966008 240.18394 
L 112.175806 240.291479 
L 112.417881 240.442034 
L 112.643817 240.549573 
L 112.869753 240.67862 
L 113.079551 240.786159 
L 113.305487 240.915206 
L 113.547561 241.022745 
L 113.773497 241.151792 
L 114.03171 241.259331 
L 114.241508 241.366871 
L 114.483582 241.47441 
L 114.69338 241.581949 
L 114.967731 241.689488 
L 115.161391 241.775519 
L 115.435742 241.883059 
L 115.629401 241.96909 
L 115.919891 242.076629 
L 116.11355 242.16266 
L 116.436316 242.2702 
L 116.613837 242.334723 
L 116.936603 242.442262 
L 117.114125 242.506786 
L 117.485305 242.614325 
L 117.662827 242.678849 
L 118.066284 242.786388 
L 118.243805 242.850911 
L 118.711816 242.95845 
L 118.873199 243.001466 
L 119.357348 243.109005 
L 119.518731 243.152021 
L 120.067433 243.25956 
L 120.228815 243.302576 
L 120.906624 243.410115 
L 121.068007 243.453131 
L 121.923336 243.56067 
L 122.068581 243.582178 
L 123.036879 243.689717 
L 123.182124 243.711225 
L 124.666847 243.818764 
L 124.812091 243.840272 
L 144.678333 243.732732 
L 144.823577 243.711225 
L 153.457565 243.689717 
L 154.780905 258.250521 
L 156.475426 273.026405 
L 157.330756 279.005583 
L 159.703086 291.049971 
L 160.558415 294.018052 
L 162.22066 298.147556 
L 162.624117 298.857315 
L 162.914606 299.330487 
L 164.141117 300.79302 
L 164.286361 300.900559 
L 164.625266 301.180161 
L 164.802787 301.2877 
L 165.044861 301.438255 
L 165.286936 301.545794 
L 165.480595 301.631826 
L 165.819499 301.739365 
L 165.997021 301.803888 
L 168.401627 301.696349 
L 168.579148 301.631826 
L 168.950329 301.524287 
L 169.143988 301.438255 
L 169.466754 301.330716 
L 169.515169 301.309208 
L 169.531307 315.20327 
L 169.628137 314.945176 
L 169.999318 313.9128 
L 172.307094 308.062669 
L 172.500754 307.632512 
L 173.178562 306.126963 
L 173.420636 305.632283 
L 173.904785 304.642923 
L 174.195275 304.083719 
L 174.582594 303.352453 
L 175.002189 302.621186 
L 175.324955 302.061983 
L 176.148008 300.79302 
L 176.406221 300.405879 
L 177.681146 298.771284 
L 178.907657 279.414232 
L 180.666731 257.454732 
L 181.828688 246.249149 
L 183.377965 234.742457 
L 184.281709 229.45153 
L 185.540496 223.343304 
L 187.347985 215.665007 
L 188.752017 207.578061 
L 189.171613 202.631259 
L 189.397549 197.404855 
L 189.542793 189.124338 
L 189.558932 187.167125 
L 189.6719 234.355316 
L 189.736453 234.355316 
L 190.737027 243.840272 
L 191.608495 249.926989 
L 192.657484 254.916807 
L 193.222325 256.723465 
L 193.851718 258.099967 
L 194.707048 259.067819 
L 195.013675 259.175358 
L 195.15892 259.196866 
L 195.72376 259.089327 
L 195.965835 258.938772 
L 196.127218 258.831233 
L 197.950845 256.228785 
L 198.434994 255.239425 
L 198.66093 254.766252 
L 199.467845 252.916578 
L 199.645366 252.507929 
L 201.662653 247.43208 
L 201.807898 247.066447 
L 203.534695 242.76488 
L 203.712217 242.356231 
L 204.664376 240.119416 
L 204.858035 239.689259 
L 205.503567 238.269742 
L 205.745642 237.775062 
L 206.262067 236.69967 
L 206.536418 236.161974 
L 206.972152 235.301661 
L 207.327195 234.656426 
L 207.698375 233.968175 
L 208.150248 233.193893 
L 208.473014 232.634689 
L 209.134684 231.580805 
L 209.409035 231.150649 
L 212.991736 226.547972 
L 213.104704 226.440433 
L 213.71796 225.795198 
L 213.830928 225.687658 
L 214.315076 225.214486 
L 214.444183 225.106947 
L 214.896055 224.67679 
L 215.025161 224.569251 
L 215.428619 224.203618 
L 215.573863 224.096079 
L 215.945044 223.773461 
L 216.090289 223.665922 
L 216.445331 223.364812 
L 216.590576 223.257273 
L 216.913342 222.999179 
L 217.074725 222.89164 
L 217.397491 222.633546 
L 217.558874 222.526007 
L 217.849363 222.310928 
L 218.010746 222.203389 
L 218.301235 221.988311 
L 218.462618 221.880772 
L 218.736969 221.687201 
L 218.914491 221.579662 
L 219.188842 221.386091 
L 219.366363 221.278552 
L 219.640714 221.084982 
L 219.818235 220.977442 
L 220.076448 220.80538 
L 220.253969 220.697841 
L 220.512182 220.525778 
L 220.689703 220.418239 
L 220.947916 220.246176 
L 221.141575 220.138637 
L 221.399788 219.966574 
L 221.577309 219.859035 
L 221.835522 219.686972 
L 222.029182 219.579433 
L 222.287394 219.40737 
L 222.481054 219.299831 
L 222.739267 219.127769 
L 222.932926 219.020229 
L 223.191139 218.848167 
L 223.36866 218.740628 
L 223.626873 218.568565 
L 223.804394 218.461026 
L 224.078745 218.267455 
L 224.256266 218.159916 
L 224.530617 217.966345 
L 224.708139 217.858806 
L 224.998628 217.643728 
L 225.160011 217.536189 
L 225.466638 217.299603 
L 225.628021 217.192063 
L 225.950787 216.933969 
L 226.096032 216.82643 
L 226.451074 216.52532 
L 226.580181 216.417781 
L 226.999776 216.03064 
L 227.128883 215.923101 
L 227.709861 215.320882 
L 227.82283 215.213343 
L 229.452797 212.868988 
L 230.856829 208.847023 
L 231.453946 205.083152 
L 231.69602 202.351657 
L 231.938095 197.318823 
L 232.083339 189.662034 
L 232.099478 187.898391 
L 232.212446 234.355316 
L 232.293137 234.462855 
L 233.261435 245.926532 
L 234.391116 255.432995 
L 235.165754 259.885117 
L 236.263158 263.821051 
L 236.747307 264.810411 
L 237.457392 265.584693 
L 238.490243 265.477154 
L 238.958253 265.02549 
L 239.055083 264.917951 
L 239.845859 263.692004 
L 240.330008 262.702643 
L 240.539806 262.250979 
L 242.234327 257.820365 
L 243.299455 270.553003 
L 244.412997 281.263906 
L 245.736337 290.963939 
L 246.478699 295.179475 
L 247.285614 298.878823 
L 248.221635 302.169522 
L 249.415868 305.051572 
L 251.126528 307.15934 
L 251.320187 307.266879 
L 251.546123 307.395926 
L 251.901166 307.503465 
L 252.062549 307.546481 
L 253.418166 307.438941 
L 253.611825 307.35291 
L 253.886176 307.245371 
L 254.095974 307.137832 
L 254.305772 307.030293 
L 254.563985 306.85823 
L 254.757644 306.750691 
L 255.048134 306.535612 
L 255.209516 306.428073 
L 255.548421 306.148471 
L 255.693665 306.040932 
L 256.064846 305.718315 
L 256.193952 305.610775 
L 256.613548 305.223634 
L 256.742655 305.116095 
L 257.226803 304.642923 
L 257.35591 304.535384 
L 257.888473 303.997688 
L 258.001442 303.890149 
L 258.291931 303.610547 
L 258.308069 315.20327 
L 258.404899 314.945176 
L 258.77608 313.9128 
L 261.083856 308.062669 
L 261.277515 307.632512 
L 261.955324 306.126963 
L 262.197398 305.632283 
L 262.681547 304.642923 
L 262.972036 304.083719 
L 263.359356 303.352453 
L 263.778951 302.621186 
L 264.101717 302.061983 
L 264.92477 300.79302 
L 265.182983 300.405879 
L 266.457908 298.771284 
L 267.700557 270.058323 
L 268.830238 248.313901 
L 270.121301 227.85995 
L 271.638301 204.093792 
L 271.880375 195.899306 
L 271.977205 188.264025 
L 272.090173 234.355316 
L 272.993918 234.247777 
L 273.494205 233.753097 
L 273.591035 233.645558 
L 274.188152 232.677705 
L 274.801407 231.344219 
L 274.96279 230.957078 
L 276.173162 227.429793 
L 278.787566 216.52532 
L 279.465374 212.331293 
L 280.110906 206.309099 
L 280.401395 201.555867 
L 280.611193 194.737883 
L 280.691885 188.629658 
L 280.804853 234.355316 
L 280.885544 234.41984 
L 282.047501 241.431394 
L 282.789863 243.947811 
L 283.257874 244.894156 
L 283.758161 245.388836 
L 284.516661 245.281297 
L 285.630203 243.625193 
L 287.195618 239.151564 
L 290.29417 226.311386 
L 292.682638 212.976528 
L 293.312031 207.061873 
L 293.683212 200.781585 
L 293.876872 193.57646 
L 293.941425 188.005931 
L 294.054393 234.355316 
L 294.135084 234.398332 
L 294.699925 238.033156 
L 295.458425 241.47441 
L 295.910297 242.829403 
L 296.362169 243.732732 
L 296.894733 244.270428 
L 297.669371 244.162889 
L 298.782913 242.506786 
L 300.42902 237.818078 
L 303.559849 224.848853 
L 305.641689 213.170098 
L 306.303359 207.018857 
L 306.67454 200.738569 
L 306.868199 193.447413 
L 306.932753 187.747837 
L 307.045721 234.355316 
L 307.126412 234.462855 
L 307.691252 238.09768 
L 308.126986 240.291479 
L 308.901625 242.936943 
L 309.353497 243.840272 
L 309.902199 244.399475 
L 310.64456 244.291936 
L 311.806518 242.571309 
L 313.388071 238.054664 
L 316.567315 224.891869 
L 318.649155 213.191606 
L 319.068751 209.685829 
L 319.45607 205.10466 
L 319.762697 198.566278 
L 319.92408 190.027667 
L 319.940218 188.264025 
L 320.053187 234.355316 
L 320.133878 234.398332 
L 320.698718 238.054664 
L 321.473357 241.603457 
L 322.490069 244.012334 
L 322.893527 244.377968 
L 323.668165 244.270428 
L 324.813984 242.571309 
L 326.411675 238.011648 
L 329.574781 224.913376 
L 331.011089 217.450157 
L 331.027227 217.729759 
L 332.80244 248.808582 
L 333.786876 262.788675 
L 335.320014 279.844388 
L 336.385141 288.748632 
L 337.095226 293.54488 
L 338.676779 301.373732 
L 339.435279 303.954672 
L 340.548821 306.621644 
L 342.162651 308.600365 
L 342.372449 308.707904 
L 342.582247 308.815443 
L 342.953427 308.922982 
L 343.11481 308.965998 
L 344.1638 308.858459 
L 344.341321 308.793935 
L 344.599534 308.686396 
L 344.809331 308.578857 
L 345.019129 308.471318 
L 345.277342 308.299255 
L 345.454863 308.191716 
L 345.761491 307.955129 
L 345.906735 307.84759 
L 346.277916 307.524973 
L 346.423161 307.417434 
L 346.891171 306.965769 
L 347.020278 306.85823 
L 347.068693 306.793706 
L 347.084831 315.20327 
L 347.181661 314.945176 
L 347.552842 313.9128 
L 349.860618 308.062669 
L 350.054277 307.632512 
L 350.732086 306.126963 
L 350.97416 305.632283 
L 351.458309 304.642923 
L 351.748798 304.083719 
L 352.136117 303.352453 
L 352.555713 302.621186 
L 352.878479 302.061983 
L 353.701532 300.79302 
L 353.959745 300.405879 
L 355.23467 298.771284 
L 356.509595 241.302347 
L 357.590861 192.952733 
L 357.623138 189.167354 
L 357.736106 234.355316 
L 357.800659 234.355316 
L 357.929765 231.301204 
L 358.994893 201.749437 
L 359.172414 190.651394 
L 359.188552 188.672673 
L 359.30152 234.355316 
L 359.382212 234.247777 
L 360.753967 214.503584 
L 361.270392 203.642127 
L 361.496329 194.286219 
L 361.560882 188.30704 
L 361.67385 234.355316 
L 361.754541 234.3123 
L 362.626009 229.064389 
L 363.594307 220.461254 
L 364.304392 211.729073 
L 364.707849 204.287362 
L 364.949924 196.092877 
L 365.046754 188.522119 
L 365.159722 234.355316 
L 365.288828 234.269285 
L 365.998913 232.075486 
L 366.40237 230.032241 
L 367.402945 222.633546 
L 368.177583 214.417553 
L 368.726285 205.728387 
L 369.000636 197.770488 
L 369.145881 186.758476 
L 369.258849 234.355316 
L 369.404093 234.247777 
L 369.678444 233.710081 
L 370.114178 232.247548 
L 370.56605 229.989226 
L 371.066338 226.720035 
L 372.002359 218.374994 
L 372.615614 210.675189 
L 373.03521 202.330149 
L 373.245007 193.683999 
L 373.309561 187.468235 
L 373.422529 234.355316 
L 373.567773 234.247777 
L 373.858263 233.688573 
L 374.277858 232.269056 
L 374.745869 229.94621 
L 375.230018 226.784558 
L 376.182177 218.310471 
L 376.779294 210.804236 
L 377.150475 203.835698 
L 377.376411 196.135892 
L 377.473241 188.715689 
L 377.586209 234.355316 
L 377.747592 234.247777 
L 378.021943 233.710081 
L 378.457677 232.247548 
L 378.909549 230.010733 
L 379.926262 222.504499 
L 380.7009 214.266998 
L 381.136634 207.728616 
L 381.427123 200.953648 
L 381.620783 191.296629 
L 381.653059 187.683313 
L 381.766027 234.355316 
L 381.911272 234.247777 
L 382.201761 233.688573 
L 382.621357 232.269056 
L 383.089368 229.94621 
L 383.589655 226.677019 
L 384.525676 218.310471 
L 385.122793 210.825744 
L 385.558527 202.158086 
L 385.768325 193.232335 
L 385.816739 188.758705 
L 385.929708 234.355316 
L 386.09109 234.247777 
L 386.365441 233.710081 
L 386.801175 232.247548 
L 387.253048 230.010733 
L 388.26976 222.504499 
L 388.737771 217.880314 
L 389.302611 210.696697 
L 389.673792 203.663635 
L 389.915866 194.845422 
L 389.996558 187.769344 
L 390.109526 234.355316 
L 390.254771 234.247777 
L 390.54526 233.688573 
L 390.964856 232.290564 
L 391.997707 226.182339 
L 392.449579 222.439975 
L 393.224217 214.180966 
L 393.643813 207.900678 
L 393.982717 199.64167 
L 394.160238 188.887752 
L 394.273206 234.355316 
L 394.434589 234.247777 
L 394.70894 233.710081 
L 395.144674 232.247548 
L 395.612685 229.924702 
L 396.613259 222.526007 
L 397.387897 214.288506 
L 397.936599 205.534817 
L 398.21095 197.383347 
L 398.340057 187.855376 
L 398.453025 234.355316 
L 398.598269 234.247777 
L 398.888759 233.688573 
L 399.324493 232.22604 
L 400.341205 226.203846 
L 401.196535 218.504041 
L 401.80979 210.825744 
L 402.180971 203.878713 
L 402.406907 196.221924 
L 402.503737 188.90926 
L 402.616705 234.355316 
L 402.778088 234.247777 
L 403.052439 233.710081 
L 403.488173 232.247548 
L 403.956183 229.924702 
L 404.956758 222.526007 
L 405.731396 214.288506 
L 406.16713 207.771631 
L 406.489896 199.921271 
L 406.651279 191.425676 
L 406.683555 187.898391 
L 406.796523 234.355316 
L 406.941768 234.247777 
L 407.232257 233.688573 
L 407.667991 232.22604 
L 408.684704 226.203846 
L 409.540033 218.504041 
L 410.153289 210.847252 
L 410.589023 202.201102 
L 410.79882 193.339874 
L 410.863374 186.693953 
L 410.976342 234.355316 
L 411.121586 234.247777 
L 411.412076 233.688573 
L 411.831671 232.269056 
L 412.299682 229.94621 
L 412.783831 226.76305 
L 413.284118 222.719577 
L 414.074894 214.353029 
L 414.623596 205.642356 
L 414.897947 197.598425 
L 415.027054 188.522119 
L 415.140022 234.355316 
L 415.301405 234.247777 
L 415.575756 233.710081 
L 416.01149 232.247548 
L 417.028202 226.225354 
L 417.480075 222.504499 
L 418.254713 214.24549 
L 418.690447 207.707108 
L 419.013213 199.83524 
L 419.190734 189.511479 
L 419.206872 187.468235 
L 419.31984 234.355316 
L 419.465085 234.247777 
L 419.755574 233.688573 
L 419.787851 233.602542 
L 420.820702 275.45679 
L 421.724446 304.126735 
L 422.789574 329.656536 
L 423.661042 344.905591 
L 424.467956 355.164829 
L 425.178041 361.552656 
L 425.726743 365.058433 
L 426.743456 368.671749 
L 427.388988 369.36 
L 427.808584 369.252461 
L 428.59936 368.026514 
L 429.503105 365.316527 
L 430.810306 359.638458 
L 433.553817 344.410911 
L 434.425285 339.335062 
L 435.845455 331.355655 
L 435.845455 331.355655 
" style="fill:none;stroke:#ff0000;stroke-linecap:square;stroke-width:1.5;"/>
   </g>
   <g id="patch_3">
    <path d="M 63 384.48 
L 63 51.84 
" style="fill:none;stroke:#000000;stroke-linecap:square;stroke-linejoin:miter;stroke-width:0.8;"/>
   </g>
   <g id="patch_4">
    <path d="M 453.6 384.48 
L 453.6 51.84 
" style="fill:none;stroke:#000000;stroke-linecap:square;stroke-linejoin:miter;stroke-width:0.8;"/>
   </g>
   <g id="patch_5">
    <path d="M 63 384.48 
L 453.6 384.48 
" style="fill:none;stroke:#000000;stroke-linecap:square;stroke-linejoin:miter;stroke-width:0.8;"/>
   </g>
   <g id="patch_6">
    <path d="M 63 51.84 
L 453.6 51.84 
" style="fill:none;stroke:#000000;stroke-linecap:square;stroke-linejoin:miter;stroke-width:0.8;"/>
   </g>
   <g id="legend_1">
    <g id="patch_7">
     <path d="M 70 89.19625 
L 133.139062 89.19625 
Q 135.139062 89.19625 135.139062 87.19625 
L 135.139062 58.84 
Q 135.139062 56.84 133.139062 56.84 
L 70 56.84 
Q 68 56.84 68 58.84 
L 68 87.19625 
Q 68 89.19625 70 89.19625 
z
" style="fill:#ffffff;opacity:0.8;stroke:#cccccc;stroke-linejoin:miter;"/>
    </g>
    <g id="line2d_16">
     <path d="M 72 64.938437 
L 92 64.938437 
" style="fill:none;stroke:#1f77b4;stroke-linecap:square;stroke-width:1.5;"/>
    </g>
    <g id="line2d_17"/>
    <g id="text_16">
     <!-- target -->
     <defs>
      <path d="M 41.109375 46.296875 
Q 39.59375 47.171875 37.8125 47.578125 
Q 36.03125 48 33.890625 48 
Q 26.265625 48 22.1875 43.046875 
Q 18.109375 38.09375 18.109375 28.8125 
L 18.109375 0 
L 9.078125 0 
L 9.078125 54.6875 
L 18.109375 54.6875 
L 18.109375 46.1875 
Q 20.953125 51.171875 25.484375 53.578125 
Q 30.03125 56 36.53125 56 
Q 37.453125 56 38.578125 55.875 
Q 39.703125 55.765625 41.0625 55.515625 
z
" id="DejaVuSans-114"/>
     </defs>
     <g transform="translate(100 68.438437)scale(0.1 -0.1)">
      <use xlink:href="#DejaVuSans-116"/>
      <use x="39.208984" xlink:href="#DejaVuSans-97"/>
      <use x="100.488281" xlink:href="#DejaVuSans-114"/>
      <use x="141.585938" xlink:href="#DejaVuSans-103"/>
      <use x="205.0625" xlink:href="#DejaVuSans-101"/>
      <use x="266.585938" xlink:href="#DejaVuSans-116"/>
     </g>
    </g>
    <g id="line2d_18">
     <path d="M 72 79.616562 
L 92 79.616562 
" style="fill:none;stroke:#ff0000;stroke-linecap:square;stroke-width:1.5;"/>
    </g>
    <g id="line2d_19"/>
    <g id="text_17">
     <!-- model -->
     <defs>
      <path d="M 45.40625 46.390625 
L 45.40625 75.984375 
L 54.390625 75.984375 
L 54.390625 0 
L 45.40625 0 
L 45.40625 8.203125 
Q 42.578125 3.328125 38.25 0.953125 
Q 33.9375 -1.421875 27.875 -1.421875 
Q 17.96875 -1.421875 11.734375 6.484375 
Q 5.515625 14.40625 5.515625 27.296875 
Q 5.515625 40.1875 11.734375 48.09375 
Q 17.96875 56 27.875 56 
Q 33.9375 56 38.25 53.625 
Q 42.578125 51.265625 45.40625 46.390625 
z
M 14.796875 27.296875 
Q 14.796875 17.390625 18.875 11.75 
Q 22.953125 6.109375 30.078125 6.109375 
Q 37.203125 6.109375 41.296875 11.75 
Q 45.40625 17.390625 45.40625 27.296875 
Q 45.40625 37.203125 41.296875 42.84375 
Q 37.203125 48.484375 30.078125 48.484375 
Q 22.953125 48.484375 18.875 42.84375 
Q 14.796875 37.203125 14.796875 27.296875 
z
" id="DejaVuSans-100"/>
     </defs>
     <g transform="translate(100 83.116562)scale(0.1 -0.1)">
      <use xlink:href="#DejaVuSans-109"/>
      <use x="97.412109" xlink:href="#DejaVuSans-111"/>
      <use x="158.59375" xlink:href="#DejaVuSans-100"/>
      <use x="222.070312" xlink:href="#DejaVuSans-101"/>
      <use x="283.59375" xlink:href="#DejaVuSans-108"/>
     </g>
    </g>
   </g>
  </g>
 </g>
 <defs>
  <clipPath id="pbaf3f42158">
   <rect height="332.64" width="390.6" x="63" y="51.84"/>
  </clipPath>
 </defs>
</svg>
