<?xml version="1.0" encoding="utf-8" standalone="no"?>
<!DOCTYPE svg PUBLIC "-//W3C//DTD SVG 1.1//EN"
  "http://www.w3.org/Graphics/SVG/1.1/DTD/svg11.dtd">
<!-- Created with matplotlib (http://matplotlib.org/) -->
<svg height="432pt" version="1.1" viewBox="0 0 504 432" width="504pt" xmlns="http://www.w3.org/2000/svg" xmlns:xlink="http://www.w3.org/1999/xlink">
 <defs>
  <style type="text/css">
*{stroke-linecap:butt;stroke-linejoin:round;}
  </style>
 </defs>
 <g id="figure_1">
  <g id="patch_1">
   <path d="M 0 432 
L 504 432 
L 504 0 
L 0 0 
z
" style="fill:#ffffff;"/>
  </g>
  <g id="axes_1">
   <g id="patch_2">
    <path d="M 63 384.48 
L 453.6 384.48 
L 453.6 51.84 
L 63 51.84 
z
" style="fill:#ffffff;"/>
   </g>
   <g id="matplotlib.axis_1">
    <g id="xtick_1">
     <g id="line2d_1">
      <defs>
       <path d="M 0 0 
L 0 3.5 
" id="m2e1313b22b" style="stroke:#000000;stroke-width:0.8;"/>
      </defs>
      <g>
       <use style="stroke:#000000;stroke-width:0.8;" x="80.754545" xlink:href="#m2e1313b22b" y="384.48"/>
      </g>
     </g>
     <g id="text_1">
      <!-- 0 -->
      <defs>
       <path d="M 31.78125 66.40625 
Q 24.171875 66.40625 20.328125 58.90625 
Q 16.5 51.421875 16.5 36.375 
Q 16.5 21.390625 20.328125 13.890625 
Q 24.171875 6.390625 31.78125 6.390625 
Q 39.453125 6.390625 43.28125 13.890625 
Q 47.125 21.390625 47.125 36.375 
Q 47.125 51.421875 43.28125 58.90625 
Q 39.453125 66.40625 31.78125 66.40625 
z
M 31.78125 74.21875 
Q 44.046875 74.21875 50.515625 64.515625 
Q 56.984375 54.828125 56.984375 36.375 
Q 56.984375 17.96875 50.515625 8.265625 
Q 44.046875 -1.421875 31.78125 -1.421875 
Q 19.53125 -1.421875 13.0625 8.265625 
Q 6.59375 17.96875 6.59375 36.375 
Q 6.59375 54.828125 13.0625 64.515625 
Q 19.53125 74.21875 31.78125 74.21875 
z
" id="DejaVuSans-30"/>
      </defs>
      <g transform="translate(77.573295 399.078438)scale(0.1 -0.1)">
       <use xlink:href="#DejaVuSans-30"/>
      </g>
     </g>
    </g>
    <g id="xtick_2">
     <g id="line2d_2">
      <g>
       <use style="stroke:#000000;stroke-width:0.8;" x="151.772727" xlink:href="#m2e1313b22b" y="384.48"/>
      </g>
     </g>
     <g id="text_2">
      <!-- 200 -->
      <defs>
       <path d="M 19.1875 8.296875 
L 53.609375 8.296875 
L 53.609375 0 
L 7.328125 0 
L 7.328125 8.296875 
Q 12.9375 14.109375 22.625 23.890625 
Q 32.328125 33.6875 34.8125 36.53125 
Q 39.546875 41.84375 41.421875 45.53125 
Q 43.3125 49.21875 43.3125 52.78125 
Q 43.3125 58.59375 39.234375 62.25 
Q 35.15625 65.921875 28.609375 65.921875 
Q 23.96875 65.921875 18.8125 64.3125 
Q 13.671875 62.703125 7.8125 59.421875 
L 7.8125 69.390625 
Q 13.765625 71.78125 18.9375 73 
Q 24.125 74.21875 28.421875 74.21875 
Q 39.75 74.21875 46.484375 68.546875 
Q 53.21875 62.890625 53.21875 53.421875 
Q 53.21875 48.921875 51.53125 44.890625 
Q 49.859375 40.875 45.40625 35.40625 
Q 44.1875 33.984375 37.640625 27.21875 
Q 31.109375 20.453125 19.1875 8.296875 
z
" id="DejaVuSans-32"/>
      </defs>
      <g transform="translate(142.228977 399.078438)scale(0.1 -0.1)">
       <use xlink:href="#DejaVuSans-32"/>
       <use x="63.623047" xlink:href="#DejaVuSans-30"/>
       <use x="127.246094" xlink:href="#DejaVuSans-30"/>
      </g>
     </g>
    </g>
    <g id="xtick_3">
     <g id="line2d_3">
      <g>
       <use style="stroke:#000000;stroke-width:0.8;" x="222.790909" xlink:href="#m2e1313b22b" y="384.48"/>
      </g>
     </g>
     <g id="text_3">
      <!-- 400 -->
      <defs>
       <path d="M 37.796875 64.3125 
L 12.890625 25.390625 
L 37.796875 25.390625 
z
M 35.203125 72.90625 
L 47.609375 72.90625 
L 47.609375 25.390625 
L 58.015625 25.390625 
L 58.015625 17.1875 
L 47.609375 17.1875 
L 47.609375 0 
L 37.796875 0 
L 37.796875 17.1875 
L 4.890625 17.1875 
L 4.890625 26.703125 
z
" id="DejaVuSans-34"/>
      </defs>
      <g transform="translate(213.247159 399.078438)scale(0.1 -0.1)">
       <use xlink:href="#DejaVuSans-34"/>
       <use x="63.623047" xlink:href="#DejaVuSans-30"/>
       <use x="127.246094" xlink:href="#DejaVuSans-30"/>
      </g>
     </g>
    </g>
    <g id="xtick_4">
     <g id="line2d_4">
      <g>
       <use style="stroke:#000000;stroke-width:0.8;" x="293.809091" xlink:href="#m2e1313b22b" y="384.48"/>
      </g>
     </g>
     <g id="text_4">
      <!-- 600 -->
      <defs>
       <path d="M 33.015625 40.375 
Q 26.375 40.375 22.484375 35.828125 
Q 18.609375 31.296875 18.609375 23.390625 
Q 18.609375 15.53125 22.484375 10.953125 
Q 26.375 6.390625 33.015625 6.390625 
Q 39.65625 6.390625 43.53125 10.953125 
Q 47.40625 15.53125 47.40625 23.390625 
Q 47.40625 31.296875 43.53125 35.828125 
Q 39.65625 40.375 33.015625 40.375 
z
M 52.59375 71.296875 
L 52.59375 62.3125 
Q 48.875 64.0625 45.09375 64.984375 
Q 41.3125 65.921875 37.59375 65.921875 
Q 27.828125 65.921875 22.671875 59.328125 
Q 17.53125 52.734375 16.796875 39.40625 
Q 19.671875 43.65625 24.015625 45.921875 
Q 28.375 48.1875 33.59375 48.1875 
Q 44.578125 48.1875 50.953125 41.515625 
Q 57.328125 34.859375 57.328125 23.390625 
Q 57.328125 12.15625 50.6875 5.359375 
Q 44.046875 -1.421875 33.015625 -1.421875 
Q 20.359375 -1.421875 13.671875 8.265625 
Q 6.984375 17.96875 6.984375 36.375 
Q 6.984375 53.65625 15.1875 63.9375 
Q 23.390625 74.21875 37.203125 74.21875 
Q 40.921875 74.21875 44.703125 73.484375 
Q 48.484375 72.75 52.59375 71.296875 
z
" id="DejaVuSans-36"/>
      </defs>
      <g transform="translate(284.265341 399.078438)scale(0.1 -0.1)">
       <use xlink:href="#DejaVuSans-36"/>
       <use x="63.623047" xlink:href="#DejaVuSans-30"/>
       <use x="127.246094" xlink:href="#DejaVuSans-30"/>
      </g>
     </g>
    </g>
    <g id="xtick_5">
     <g id="line2d_5">
      <g>
       <use style="stroke:#000000;stroke-width:0.8;" x="364.827273" xlink:href="#m2e1313b22b" y="384.48"/>
      </g>
     </g>
     <g id="text_5">
      <!-- 800 -->
      <defs>
       <path d="M 31.78125 34.625 
Q 24.75 34.625 20.71875 30.859375 
Q 16.703125 27.09375 16.703125 20.515625 
Q 16.703125 13.921875 20.71875 10.15625 
Q 24.75 6.390625 31.78125 6.390625 
Q 38.8125 6.390625 42.859375 10.171875 
Q 46.921875 13.96875 46.921875 20.515625 
Q 46.921875 27.09375 42.890625 30.859375 
Q 38.875 34.625 31.78125 34.625 
z
M 21.921875 38.8125 
Q 15.578125 40.375 12.03125 44.71875 
Q 8.5 49.078125 8.5 55.328125 
Q 8.5 64.0625 14.71875 69.140625 
Q 20.953125 74.21875 31.78125 74.21875 
Q 42.671875 74.21875 48.875 69.140625 
Q 55.078125 64.0625 55.078125 55.328125 
Q 55.078125 49.078125 51.53125 44.71875 
Q 48 40.375 41.703125 38.8125 
Q 48.828125 37.15625 52.796875 32.3125 
Q 56.78125 27.484375 56.78125 20.515625 
Q 56.78125 9.90625 50.3125 4.234375 
Q 43.84375 -1.421875 31.78125 -1.421875 
Q 19.734375 -1.421875 13.25 4.234375 
Q 6.78125 9.90625 6.78125 20.515625 
Q 6.78125 27.484375 10.78125 32.3125 
Q 14.796875 37.15625 21.921875 38.8125 
z
M 18.3125 54.390625 
Q 18.3125 48.734375 21.84375 45.5625 
Q 25.390625 42.390625 31.78125 42.390625 
Q 38.140625 42.390625 41.71875 45.5625 
Q 45.3125 48.734375 45.3125 54.390625 
Q 45.3125 60.0625 41.71875 63.234375 
Q 38.140625 66.40625 31.78125 66.40625 
Q 25.390625 66.40625 21.84375 63.234375 
Q 18.3125 60.0625 18.3125 54.390625 
z
" id="DejaVuSans-38"/>
      </defs>
      <g transform="translate(355.283523 399.078438)scale(0.1 -0.1)">
       <use xlink:href="#DejaVuSans-38"/>
       <use x="63.623047" xlink:href="#DejaVuSans-30"/>
       <use x="127.246094" xlink:href="#DejaVuSans-30"/>
      </g>
     </g>
    </g>
    <g id="text_6">
     <!-- time [ms] -->
     <defs>
      <path d="M 18.3125 70.21875 
L 18.3125 54.6875 
L 36.8125 54.6875 
L 36.8125 47.703125 
L 18.3125 47.703125 
L 18.3125 18.015625 
Q 18.3125 11.328125 20.140625 9.421875 
Q 21.96875 7.515625 27.59375 7.515625 
L 36.8125 7.515625 
L 36.8125 0 
L 27.59375 0 
Q 17.1875 0 13.234375 3.875 
Q 9.28125 7.765625 9.28125 18.015625 
L 9.28125 47.703125 
L 2.6875 47.703125 
L 2.6875 54.6875 
L 9.28125 54.6875 
L 9.28125 70.21875 
z
" id="DejaVuSans-74"/>
      <path d="M 9.421875 54.6875 
L 18.40625 54.6875 
L 18.40625 0 
L 9.421875 0 
z
M 9.421875 75.984375 
L 18.40625 75.984375 
L 18.40625 64.59375 
L 9.421875 64.59375 
z
" id="DejaVuSans-69"/>
      <path d="M 52 44.1875 
Q 55.375 50.25 60.0625 53.125 
Q 64.75 56 71.09375 56 
Q 79.640625 56 84.28125 50.015625 
Q 88.921875 44.046875 88.921875 33.015625 
L 88.921875 0 
L 79.890625 0 
L 79.890625 32.71875 
Q 79.890625 40.578125 77.09375 44.375 
Q 74.3125 48.1875 68.609375 48.1875 
Q 61.625 48.1875 57.5625 43.546875 
Q 53.515625 38.921875 53.515625 30.90625 
L 53.515625 0 
L 44.484375 0 
L 44.484375 32.71875 
Q 44.484375 40.625 41.703125 44.40625 
Q 38.921875 48.1875 33.109375 48.1875 
Q 26.21875 48.1875 22.15625 43.53125 
Q 18.109375 38.875 18.109375 30.90625 
L 18.109375 0 
L 9.078125 0 
L 9.078125 54.6875 
L 18.109375 54.6875 
L 18.109375 46.1875 
Q 21.1875 51.21875 25.484375 53.609375 
Q 29.78125 56 35.6875 56 
Q 41.65625 56 45.828125 52.96875 
Q 50 49.953125 52 44.1875 
z
" id="DejaVuSans-6d"/>
      <path d="M 56.203125 29.59375 
L 56.203125 25.203125 
L 14.890625 25.203125 
Q 15.484375 15.921875 20.484375 11.0625 
Q 25.484375 6.203125 34.421875 6.203125 
Q 39.59375 6.203125 44.453125 7.46875 
Q 49.3125 8.734375 54.109375 11.28125 
L 54.109375 2.78125 
Q 49.265625 0.734375 44.1875 -0.34375 
Q 39.109375 -1.421875 33.890625 -1.421875 
Q 20.796875 -1.421875 13.15625 6.1875 
Q 5.515625 13.8125 5.515625 26.8125 
Q 5.515625 40.234375 12.765625 48.109375 
Q 20.015625 56 32.328125 56 
Q 43.359375 56 49.78125 48.890625 
Q 56.203125 41.796875 56.203125 29.59375 
z
M 47.21875 32.234375 
Q 47.125 39.59375 43.09375 43.984375 
Q 39.0625 48.390625 32.421875 48.390625 
Q 24.90625 48.390625 20.390625 44.140625 
Q 15.875 39.890625 15.1875 32.171875 
z
" id="DejaVuSans-65"/>
      <path id="DejaVuSans-20"/>
      <path d="M 8.59375 75.984375 
L 29.296875 75.984375 
L 29.296875 69 
L 17.578125 69 
L 17.578125 -6.203125 
L 29.296875 -6.203125 
L 29.296875 -13.1875 
L 8.59375 -13.1875 
z
" id="DejaVuSans-5b"/>
      <path d="M 44.28125 53.078125 
L 44.28125 44.578125 
Q 40.484375 46.53125 36.375 47.5 
Q 32.28125 48.484375 27.875 48.484375 
Q 21.1875 48.484375 17.84375 46.4375 
Q 14.5 44.390625 14.5 40.28125 
Q 14.5 37.15625 16.890625 35.375 
Q 19.28125 33.59375 26.515625 31.984375 
L 29.59375 31.296875 
Q 39.15625 29.25 43.1875 25.515625 
Q 47.21875 21.78125 47.21875 15.09375 
Q 47.21875 7.46875 41.1875 3.015625 
Q 35.15625 -1.421875 24.609375 -1.421875 
Q 20.21875 -1.421875 15.453125 -0.5625 
Q 10.6875 0.296875 5.421875 2 
L 5.421875 11.28125 
Q 10.40625 8.6875 15.234375 7.390625 
Q 20.0625 6.109375 24.8125 6.109375 
Q 31.15625 6.109375 34.5625 8.28125 
Q 37.984375 10.453125 37.984375 14.40625 
Q 37.984375 18.0625 35.515625 20.015625 
Q 33.0625 21.96875 24.703125 23.78125 
L 21.578125 24.515625 
Q 13.234375 26.265625 9.515625 29.90625 
Q 5.8125 33.546875 5.8125 39.890625 
Q 5.8125 47.609375 11.28125 51.796875 
Q 16.75 56 26.8125 56 
Q 31.78125 56 36.171875 55.265625 
Q 40.578125 54.546875 44.28125 53.078125 
z
" id="DejaVuSans-73"/>
      <path d="M 30.421875 75.984375 
L 30.421875 -13.1875 
L 9.71875 -13.1875 
L 9.71875 -6.203125 
L 21.390625 -6.203125 
L 21.390625 69 
L 9.71875 69 
L 9.71875 75.984375 
z
" id="DejaVuSans-5d"/>
     </defs>
     <g transform="translate(234.038281 412.756563)scale(0.1 -0.1)">
      <use xlink:href="#DejaVuSans-74"/>
      <use x="39.208984" xlink:href="#DejaVuSans-69"/>
      <use x="66.992188" xlink:href="#DejaVuSans-6d"/>
      <use x="164.404297" xlink:href="#DejaVuSans-65"/>
      <use x="225.927734" xlink:href="#DejaVuSans-20"/>
      <use x="257.714844" xlink:href="#DejaVuSans-5b"/>
      <use x="296.728516" xlink:href="#DejaVuSans-6d"/>
      <use x="394.140625" xlink:href="#DejaVuSans-73"/>
      <use x="446.240234" xlink:href="#DejaVuSans-5d"/>
     </g>
    </g>
   </g>
   <g id="matplotlib.axis_2">
    <g id="ytick_1">
     <g id="line2d_6">
      <defs>
       <path d="M 0 0 
L -3.5 0 
" id="m7af54f78a2" style="stroke:#000000;stroke-width:0.8;"/>
      </defs>
      <g>
       <use style="stroke:#000000;stroke-width:0.8;" x="63" xlink:href="#m7af54f78a2" y="382.295245"/>
      </g>
     </g>
     <g id="text_7">
      <!-- −80 -->
      <defs>
       <path d="M 10.59375 35.5 
L 73.1875 35.5 
L 73.1875 27.203125 
L 10.59375 27.203125 
z
" id="DejaVuSans-2212"/>
      </defs>
      <g transform="translate(34.895313 386.094464)scale(0.1 -0.1)">
       <use xlink:href="#DejaVuSans-2212"/>
       <use x="83.789062" xlink:href="#DejaVuSans-38"/>
       <use x="147.412109" xlink:href="#DejaVuSans-30"/>
      </g>
     </g>
    </g>
    <g id="ytick_2">
     <g id="line2d_7">
      <g>
       <use style="stroke:#000000;stroke-width:0.8;" x="63" xlink:href="#m7af54f78a2" y="329.597016"/>
      </g>
     </g>
     <g id="text_8">
      <!-- −60 -->
      <g transform="translate(34.895313 333.396234)scale(0.1 -0.1)">
       <use xlink:href="#DejaVuSans-2212"/>
       <use x="83.789062" xlink:href="#DejaVuSans-36"/>
       <use x="147.412109" xlink:href="#DejaVuSans-30"/>
      </g>
     </g>
    </g>
    <g id="ytick_3">
     <g id="line2d_8">
      <g>
       <use style="stroke:#000000;stroke-width:0.8;" x="63" xlink:href="#m7af54f78a2" y="276.898786"/>
      </g>
     </g>
     <g id="text_9">
      <!-- −40 -->
      <g transform="translate(34.895313 280.698005)scale(0.1 -0.1)">
       <use xlink:href="#DejaVuSans-2212"/>
       <use x="83.789062" xlink:href="#DejaVuSans-34"/>
       <use x="147.412109" xlink:href="#DejaVuSans-30"/>
      </g>
     </g>
    </g>
    <g id="ytick_4">
     <g id="line2d_9">
      <g>
       <use style="stroke:#000000;stroke-width:0.8;" x="63" xlink:href="#m7af54f78a2" y="224.200557"/>
      </g>
     </g>
     <g id="text_10">
      <!-- −20 -->
      <g transform="translate(34.895313 227.999776)scale(0.1 -0.1)">
       <use xlink:href="#DejaVuSans-2212"/>
       <use x="83.789062" xlink:href="#DejaVuSans-32"/>
       <use x="147.412109" xlink:href="#DejaVuSans-30"/>
      </g>
     </g>
    </g>
    <g id="ytick_5">
     <g id="line2d_10">
      <g>
       <use style="stroke:#000000;stroke-width:0.8;" x="63" xlink:href="#m7af54f78a2" y="171.502327"/>
      </g>
     </g>
     <g id="text_11">
      <!-- 0 -->
      <g transform="translate(49.6375 175.301546)scale(0.1 -0.1)">
       <use xlink:href="#DejaVuSans-30"/>
      </g>
     </g>
    </g>
    <g id="ytick_6">
     <g id="line2d_11">
      <g>
       <use style="stroke:#000000;stroke-width:0.8;" x="63" xlink:href="#m7af54f78a2" y="118.804098"/>
      </g>
     </g>
     <g id="text_12">
      <!-- 20 -->
      <g transform="translate(43.275 122.603317)scale(0.1 -0.1)">
       <use xlink:href="#DejaVuSans-32"/>
       <use x="63.623047" xlink:href="#DejaVuSans-30"/>
      </g>
     </g>
    </g>
    <g id="ytick_7">
     <g id="line2d_12">
      <g>
       <use style="stroke:#000000;stroke-width:0.8;" x="63" xlink:href="#m7af54f78a2" y="66.105869"/>
      </g>
     </g>
     <g id="text_13">
      <!-- 40 -->
      <g transform="translate(43.275 69.905087)scale(0.1 -0.1)">
       <use xlink:href="#DejaVuSans-34"/>
       <use x="63.623047" xlink:href="#DejaVuSans-30"/>
      </g>
     </g>
    </g>
    <g id="text_14">
     <!-- voltage [mV] -->
     <defs>
      <path d="M 2.984375 54.6875 
L 12.5 54.6875 
L 29.59375 8.796875 
L 46.6875 54.6875 
L 56.203125 54.6875 
L 35.6875 0 
L 23.484375 0 
z
" id="DejaVuSans-76"/>
      <path d="M 30.609375 48.390625 
Q 23.390625 48.390625 19.1875 42.75 
Q 14.984375 37.109375 14.984375 27.296875 
Q 14.984375 17.484375 19.15625 11.84375 
Q 23.34375 6.203125 30.609375 6.203125 
Q 37.796875 6.203125 41.984375 11.859375 
Q 46.1875 17.53125 46.1875 27.296875 
Q 46.1875 37.015625 41.984375 42.703125 
Q 37.796875 48.390625 30.609375 48.390625 
z
M 30.609375 56 
Q 42.328125 56 49.015625 48.375 
Q 55.71875 40.765625 55.71875 27.296875 
Q 55.71875 13.875 49.015625 6.21875 
Q 42.328125 -1.421875 30.609375 -1.421875 
Q 18.84375 -1.421875 12.171875 6.21875 
Q 5.515625 13.875 5.515625 27.296875 
Q 5.515625 40.765625 12.171875 48.375 
Q 18.84375 56 30.609375 56 
z
" id="DejaVuSans-6f"/>
      <path d="M 9.421875 75.984375 
L 18.40625 75.984375 
L 18.40625 0 
L 9.421875 0 
z
" id="DejaVuSans-6c"/>
      <path d="M 34.28125 27.484375 
Q 23.390625 27.484375 19.1875 25 
Q 14.984375 22.515625 14.984375 16.5 
Q 14.984375 11.71875 18.140625 8.90625 
Q 21.296875 6.109375 26.703125 6.109375 
Q 34.1875 6.109375 38.703125 11.40625 
Q 43.21875 16.703125 43.21875 25.484375 
L 43.21875 27.484375 
z
M 52.203125 31.203125 
L 52.203125 0 
L 43.21875 0 
L 43.21875 8.296875 
Q 40.140625 3.328125 35.546875 0.953125 
Q 30.953125 -1.421875 24.3125 -1.421875 
Q 15.921875 -1.421875 10.953125 3.296875 
Q 6 8.015625 6 15.921875 
Q 6 25.140625 12.171875 29.828125 
Q 18.359375 34.515625 30.609375 34.515625 
L 43.21875 34.515625 
L 43.21875 35.40625 
Q 43.21875 41.609375 39.140625 45 
Q 35.0625 48.390625 27.6875 48.390625 
Q 23 48.390625 18.546875 47.265625 
Q 14.109375 46.140625 10.015625 43.890625 
L 10.015625 52.203125 
Q 14.9375 54.109375 19.578125 55.046875 
Q 24.21875 56 28.609375 56 
Q 40.484375 56 46.34375 49.84375 
Q 52.203125 43.703125 52.203125 31.203125 
z
" id="DejaVuSans-61"/>
      <path d="M 45.40625 27.984375 
Q 45.40625 37.75 41.375 43.109375 
Q 37.359375 48.484375 30.078125 48.484375 
Q 22.859375 48.484375 18.828125 43.109375 
Q 14.796875 37.75 14.796875 27.984375 
Q 14.796875 18.265625 18.828125 12.890625 
Q 22.859375 7.515625 30.078125 7.515625 
Q 37.359375 7.515625 41.375 12.890625 
Q 45.40625 18.265625 45.40625 27.984375 
z
M 54.390625 6.78125 
Q 54.390625 -7.171875 48.1875 -13.984375 
Q 42 -20.796875 29.203125 -20.796875 
Q 24.46875 -20.796875 20.265625 -20.09375 
Q 16.0625 -19.390625 12.109375 -17.921875 
L 12.109375 -9.1875 
Q 16.0625 -11.328125 19.921875 -12.34375 
Q 23.78125 -13.375 27.78125 -13.375 
Q 36.625 -13.375 41.015625 -8.765625 
Q 45.40625 -4.15625 45.40625 5.171875 
L 45.40625 9.625 
Q 42.625 4.78125 38.28125 2.390625 
Q 33.9375 0 27.875 0 
Q 17.828125 0 11.671875 7.65625 
Q 5.515625 15.328125 5.515625 27.984375 
Q 5.515625 40.671875 11.671875 48.328125 
Q 17.828125 56 27.875 56 
Q 33.9375 56 38.28125 53.609375 
Q 42.625 51.21875 45.40625 46.390625 
L 45.40625 54.6875 
L 54.390625 54.6875 
z
" id="DejaVuSans-67"/>
      <path d="M 28.609375 0 
L 0.78125 72.90625 
L 11.078125 72.90625 
L 34.1875 11.53125 
L 57.328125 72.90625 
L 67.578125 72.90625 
L 39.796875 0 
z
" id="DejaVuSans-56"/>
     </defs>
     <g transform="translate(28.815625 250.624062)rotate(-90)scale(0.1 -0.1)">
      <use xlink:href="#DejaVuSans-76"/>
      <use x="59.179688" xlink:href="#DejaVuSans-6f"/>
      <use x="120.361328" xlink:href="#DejaVuSans-6c"/>
      <use x="148.144531" xlink:href="#DejaVuSans-74"/>
      <use x="187.353516" xlink:href="#DejaVuSans-61"/>
      <use x="248.632812" xlink:href="#DejaVuSans-67"/>
      <use x="312.109375" xlink:href="#DejaVuSans-65"/>
      <use x="373.632812" xlink:href="#DejaVuSans-20"/>
      <use x="405.419922" xlink:href="#DejaVuSans-5b"/>
      <use x="444.433594" xlink:href="#DejaVuSans-6d"/>
      <use x="541.845703" xlink:href="#DejaVuSans-56"/>
      <use x="610.253906" xlink:href="#DejaVuSans-5d"/>
     </g>
    </g>
   </g>
   <g id="line2d_13">
    <path clip-path="url(#pc4dd6e2cce)" d="M 80.754545 342.771573 
L 81.952977 342.634821 
L 83.763941 342.691735 
L 87.749836 342.699113 
L 151.772727 342.702275 
L 152.314241 298.009433 
L 152.420768 249.189003 
L 152.562805 66.960107 
L 152.678209 92.273701 
L 153.565936 369.359938 
L 153.610323 369.259021 
L 153.8145 367.874902 
L 154.293873 363.103077 
L 154.959668 353.947023 
L 157.42755 314.907648 
L 157.613973 303.737994 
L 157.738255 281.688792 
L 157.835905 218.894109 
L 157.969064 91.41393 
L 158.031205 104.616417 
L 158.883423 368.933872 
L 158.945564 368.749692 
L 159.203005 366.762969 
L 159.717886 361.068398 
L 160.534595 349.095888 
L 161.8218 330.896554 
L 162.514227 320.490498 
L 162.771668 312.941213 
L 162.940336 300.904147 
L 163.064618 272.831273 
L 163.162268 188.110517 
L 163.268795 92.33773 
L 163.322059 101.887176 
L 163.863573 297.730133 
L 164.147645 368.756543 
L 164.183155 368.90199 
L 164.245295 368.719918 
L 164.493859 366.80908 
L 165.008741 361.134271 
L 165.834327 349.038183 
L 167.112655 330.971385 
L 167.813959 320.454927 
L 168.0714 312.895893 
L 168.240068 300.819303 
L 168.36435 272.584119 
L 168.462 187.36207 
L 168.568527 92.414933 
L 168.621791 102.110089 
L 169.172182 301.696992 
L 169.4385 368.670381 
L 169.482886 368.899882 
L 169.545027 368.713857 
L 169.802468 366.718966 
L 170.31735 361.006478 
L 171.151814 348.748079 
L 172.430141 330.727656 
L 173.113691 320.436482 
L 173.371132 312.859268 
L 173.5398 300.723129 
L 173.664082 272.244742 
L 173.761732 186.206372 
L 173.868259 92.431796 
L 173.921523 102.346968 
L 174.480791 305.78374 
L 174.729355 368.560506 
L 174.782618 368.899882 
L 174.844759 368.709642 
L 175.1022 366.711588 
L 175.617082 360.995675 
L 176.451545 348.735168 
L 177.729873 330.716853 
L 178.413423 320.419619 
L 178.670864 312.823169 
L 178.839532 300.625637 
L 178.963814 271.896407 
L 179.061464 185.016841 
L 179.167991 92.449186 
L 179.221255 102.586481 
L 179.7894 309.974039 
L 180.029086 368.57289 
L 180.08235 368.900146 
L 180.144491 368.705162 
L 180.401932 366.70421 
L 180.916814 360.985135 
L 181.751277 348.722784 
L 183.029605 330.706313 
L 183.713155 320.402492 
L 183.970595 312.786807 
L 184.139264 300.527091 
L 184.263545 271.539903 
L 184.361195 183.806389 
L 184.467723 92.473164 
L 184.520986 102.829684 
L 185.098009 314.256561 
L 185.328818 368.58501 
L 185.382082 368.900146 
L 185.444223 368.700946 
L 185.701664 366.696569 
L 186.216545 360.974595 
L 187.051009 348.710136 
L 188.329336 330.695774 
L 189.012886 320.385629 
L 189.270327 312.750182 
L 189.438995 300.426965 
L 189.563277 271.17813 
L 189.660927 182.591115 
L 189.767455 92.502939 
L 189.820718 103.075257 
L 190.406618 318.611543 
L 190.619673 368.45063 
L 190.681814 368.899882 
L 190.743955 368.696467 
L 191.010273 366.607509 
L 191.525155 360.848647 
L 192.368495 348.423458 
L 193.637945 330.569298 
L 194.312618 320.368238 
L 194.570059 312.713557 
L 194.738727 300.326311 
L 194.863009 270.812931 
L 194.969536 167.960611 
L 195.058309 92.489501 
L 195.12045 103.323466 
L 195.715227 323.012899 
L 195.919405 368.466176 
L 195.981545 368.899882 
L 196.043686 368.691988 
L 196.310005 366.599868 
L 196.833764 360.722171 
L 197.703736 347.863539 
L 198.955432 330.32715 
L 199.61235 320.351111 
L 199.869791 312.676405 
L 200.038459 300.224604 
L 200.162741 270.440355 
L 200.269268 166.692402 
L 200.358041 92.45999 
L 200.420182 103.575891 
L 201.023836 327.423477 
L 201.219136 368.480931 
L 201.281277 368.899355 
L 201.343418 368.687508 
L 201.609736 366.592227 
L 202.133495 360.711104 
L 202.994591 347.98738 
L 204.255164 330.316346 
L 204.912082 320.333457 
L 205.169523 312.638725 
L 205.338191 300.121315 
L 205.462473 270.060137 
L 205.569 165.415682 
L 205.657773 92.437593 
L 205.719914 103.83016 
L 206.332445 331.795059 
L 206.518868 368.495687 
L 206.581009 368.899092 
L 206.634273 368.729667 
L 206.873959 366.907626 
L 207.388841 361.274712 
L 208.187795 349.618917 
L 209.510509 330.883379 
L 210.202936 320.501038 
L 210.460377 312.995229 
L 210.629045 301.088327 
L 210.753327 273.540855 
L 210.850977 190.680978 
L 210.957505 92.42231 
L 211.019645 104.085482 
L 211.641055 336.073365 
L 211.827477 368.641924 
L 211.880741 368.898565 
L 211.934005 368.725451 
L 212.182568 366.820147 
L 212.69745 361.150081 
L 213.514159 349.194433 
L 214.810241 330.872576 
L 215.502668 320.483911 
L 215.760109 312.959131 
L 215.928777 300.991626 
L 216.053059 273.200161 
L 216.150709 189.497376 
L 216.257236 92.415987 
L 216.319377 104.340278 
L 216.949664 340.19463 
L 217.127209 368.652464 
L 217.171595 368.899092 
L 217.233736 368.721235 
L 217.4823 366.812769 
L 217.997182 361.139541 
L 218.822768 349.044507 
L 220.101095 330.977182 
L 220.8024 320.466784 
L 221.059841 312.923296 
L 221.228509 300.895188 
L 221.352791 272.858149 
L 221.450441 188.314354 
L 221.556968 92.416514 
L 221.610232 101.924328 
L 222.151745 297.785729 
L 222.426941 368.662477 
L 222.471327 368.899355 
L 222.533468 368.717019 
L 222.782032 366.805391 
L 223.296914 361.129001 
L 224.1225 349.031596 
L 225.418582 330.735824 
L 226.111009 320.263896 
L 226.36845 312.488799 
L 226.537118 299.706316 
L 226.652523 272.513503 
L 226.750173 187.126615 
L 226.8567 92.422574 
L 226.909964 102.162788 
L 227.460355 301.772614 
L 227.726673 368.672226 
L 227.771059 368.899882 
L 227.8332 368.712803 
L 228.090641 366.717121 
L 228.605523 361.003843 
L 229.439986 348.744917 
L 230.718314 330.725021 
L 231.401864 320.43253 
L 231.659305 312.850836 
L 231.827973 300.700996 
L 231.952255 272.166485 
L 232.049905 185.938665 
L 232.156432 92.435485 
L 232.209695 102.400984 
L 232.768964 305.862524 
L 233.017527 368.563404 
L 233.070791 368.899882 
L 233.132932 368.708588 
L 233.390373 366.709744 
L 233.905255 360.993303 
L 234.739718 348.73227 
L 236.018045 330.714482 
L 236.701595 320.415667 
L 236.959036 312.815001 
L 237.127705 300.603504 
L 237.251986 271.816305 
L 237.349636 184.743917 
L 237.456164 92.453929 
L 237.509427 102.641551 
L 238.077573 310.055195 
L 238.317259 368.575525 
L 238.370523 368.900146 
L 238.432664 368.704372 
L 238.690105 366.702366 
L 239.204986 360.982764 
L 240.03945 348.719886 
L 241.317777 330.703942 
L 242.001327 320.398803 
L 242.258768 312.778639 
L 242.427436 300.504431 
L 242.551718 271.457958 
L 242.649368 183.530646 
L 242.755895 92.479488 
L 242.809159 102.88528 
L 243.386182 314.339561 
L 243.616991 368.587645 
L 243.670255 368.900146 
L 243.732395 368.699892 
L 243.989836 366.694988 
L 244.504718 360.972224 
L 245.348059 348.570223 
L 246.617509 330.693139 
L 247.301059 320.381676 
L 247.5585 312.742014 
L 247.727168 300.404041 
L 247.85145 271.095657 
L 247.9491 182.314186 
L 248.055627 92.510843 
L 248.108891 103.131381 
L 248.694791 318.696387 
L 248.907845 368.454319 
L 248.969986 368.899882 
L 249.032127 368.695676 
L 249.298445 366.605928 
L 249.822205 360.730603 
L 250.692177 347.873552 
L 251.943873 330.335581 
L 252.600791 320.364286 
L 252.858232 312.705125 
L 253.0269 300.303124 
L 253.151182 270.728614 
L 253.257709 167.671878 
L 253.346482 92.482123 
L 253.408623 103.380907 
L 254.0034 323.099324 
L 254.207577 368.469601 
L 254.269718 368.899619 
L 254.331859 368.691197 
L 254.598177 366.598287 
L 255.121936 360.719536 
L 255.983032 347.997393 
L 257.22585 330.556123 
L 257.900523 320.347159 
L 258.157964 312.667973 
L 258.326632 300.201153 
L 258.450914 270.354193 
L 258.557441 166.40106 
L 258.646214 92.454193 
L 258.708355 103.634122 
L 259.312009 327.509902 
L 259.507309 368.484357 
L 259.56945 368.899355 
L 259.631591 368.686454 
L 259.897909 366.590382 
L 260.421668 360.708733 
L 261.291641 347.847993 
L 262.525582 330.54532 
L 263.200255 320.329505 
L 263.457695 312.630294 
L 263.626364 300.097601 
L 263.750645 269.972658 
L 263.857173 165.123813 
L 263.945945 92.433377 
L 264.008086 103.888391 
L 264.620618 331.880166 
L 264.807041 368.499112 
L 264.869182 368.898828 
L 264.922445 368.728876 
L 265.171009 366.825943 
L 265.685891 361.158512 
L 266.511477 349.067167 
L 267.807559 330.765599 
L 268.499986 320.312115 
L 268.757427 312.592614 
L 268.926095 299.994049 
L 269.050377 269.591123 
L 269.156905 163.856078 
L 269.245677 92.420202 
L 269.298941 101.50406 
L 269.8227 290.196921 
L 270.133405 368.811349 
L 270.168914 368.898565 
L 270.222177 368.724661 
L 270.470741 366.818566 
L 270.985623 361.147709 
L 271.802332 349.191535 
L 273.098414 330.870205 
L 273.790841 320.479958 
L 274.048282 312.950962 
L 274.21695 300.969756 
L 274.341232 273.122168 
L 274.438882 189.226613 
L 274.545409 92.415723 
L 274.598673 101.740938 
L 275.131309 293.978282 
L 275.424259 368.749165 
L 275.459768 368.899092 
L 275.521909 368.720445 
L 275.770473 366.811188 
L 276.285355 361.137169 
L 277.110941 349.041608 
L 278.389268 330.974811 
L 279.090573 320.462832 
L 279.348014 312.914864 
L 279.516682 300.873055 
L 279.640964 272.779629 
L 279.738614 188.043485 
L 279.845141 92.417041 
L 279.898405 101.978871 
L 280.439918 297.861878 
L 280.715114 368.664585 
L 280.7595 368.899619 
L 280.821641 368.716229 
L 281.079082 366.722918 
L 281.593964 361.012011 
L 282.428427 348.754666 
L 283.706755 330.733189 
L 284.390305 320.445705 
L 284.647745 312.878766 
L 284.816414 300.77609 
L 284.940695 272.434456 
L 285.038345 186.85564 
L 285.144873 92.424945 
L 285.198136 102.217067 
L 285.748527 301.849817 
L 286.014845 368.674334 
L 286.059232 368.899882 
L 286.121373 368.711749 
L 286.378814 366.715541 
L 286.893695 361.001472 
L 287.728159 348.742019 
L 289.006486 330.72265 
L 289.690036 320.428841 
L 289.947477 312.842668 
L 290.116145 300.678862 
L 290.240427 272.086911 
L 290.338077 185.666795 
L 290.444605 92.439174 
L 290.497868 102.455526 
L 291.057136 305.942098 
L 291.3057 368.566302 
L 291.358964 368.900146 
L 291.421105 368.707534 
L 291.678545 366.708163 
L 292.193427 360.990932 
L 293.027891 348.729371 
L 294.315095 330.596438 
L 294.989768 320.411714 
L 295.247209 312.806569 
L 295.415877 300.581107 
L 295.540159 271.73515 
L 295.637809 184.468121 
L 295.744336 92.459199 
L 295.7976 102.696884 
L 296.365745 310.136877 
L 296.605432 368.578423 
L 296.658695 368.900146 
L 296.720836 368.703318 
L 296.978277 366.700785 
L 297.493159 360.980392 
L 298.327623 348.716987 
L 299.60595 330.701571 
L 300.2895 320.394851 
L 300.546941 312.770207 
L 300.715609 300.481507 
L 300.839891 271.375748 
L 300.937541 183.254507 
L 301.044068 92.486075 
L 301.097332 102.940877 
L 301.674355 314.42256 
L 301.905164 368.59028 
L 301.958427 368.900146 
L 302.020568 368.699102 
L 302.286886 366.611725 
L 302.810645 360.738771 
L 303.671741 348.020053 
L 304.914559 330.575358 
L 305.589232 320.377724 
L 305.846673 312.733582 
L 306.015341 300.381381 
L 306.139623 271.012921 
L 306.24615 168.647269 
L 306.334923 92.508208 
L 306.397064 103.187768 
L 306.982964 318.781231 
L 307.196018 368.457744 
L 307.258159 368.899882 
L 307.3203 368.694623 
L 307.586618 366.604084 
L 308.110377 360.727968 
L 308.971473 348.007406 
L 310.214291 330.564555 
L 310.888964 320.360597 
L 311.146405 312.696693 
L 311.315073 300.2802 
L 311.439355 270.644033 
L 311.545882 167.384172 
L 311.634655 92.475272 
L 311.696795 103.438085 
L 312.291573 323.185222 
L 312.49575 368.473026 
L 312.557891 368.899619 
L 312.620032 368.690143 
L 312.88635 366.596443 
L 313.410109 360.717165 
L 314.280082 347.857743 
L 315.531777 330.322143 
L 316.188695 320.342943 
L 316.446136 312.659278 
L 316.614805 300.177702 
L 316.739086 270.268295 
L 316.845614 166.110824 
L 316.934386 92.448923 
L 316.996527 103.691827 
L 317.600182 327.596064 
L 317.795482 368.487782 
L 317.857623 368.899355 
L 317.910886 368.732038 
L 318.150573 366.911578 
L 318.665455 361.280509 
L 319.464409 349.625768 
L 320.787123 330.88944 
L 321.488427 320.325553 
L 321.745868 312.621598 
L 321.914536 300.073887 
L 322.038818 269.885442 
L 322.145345 164.83334 
L 322.234118 92.429688 
L 322.296259 103.946623 
L 322.908791 331.965011 
L 323.095214 368.502537 
L 323.157355 368.898828 
L 323.210618 368.727822 
L 323.459182 366.824362 
L 323.974064 361.155877 
L 324.790773 349.201284 
L 326.095732 330.762964 
L 326.779282 320.493133 
L 327.036723 312.978892 
L 327.205391 301.044324 
L 327.329673 273.385659 
L 327.427323 190.141349 
L 327.53385 92.418358 
L 327.595991 104.201682 
L 328.2174 336.237256 
L 328.403823 368.646667 
L 328.457086 368.898301 
L 328.51035 368.723607 
L 328.758914 366.816721 
L 329.273795 361.145338 
L 329.318182 360.568029 
L 329.335936 361.472857 
L 329.531236 365.4853 
L 329.620009 365.674224 
L 329.664395 365.616519 
L 329.815309 365.006273 
L 330.214786 362.17348 
L 332.176664 347.333395 
L 332.869091 344.093245 
L 333.428359 342.428508 
L 333.889977 341.681247 
L 334.262823 341.453063 
L 334.609036 341.489952 
L 335.061777 341.780583 
L 336.553159 342.876706 
L 337.156814 342.973934 
L 338.097805 342.863268 
L 339.580309 342.667757 
L 342.092577 342.704119 
L 435.845455 342.702275 
L 435.845455 342.702275 
" style="fill:none;stroke:#1f77b4;stroke-linecap:square;stroke-width:1.5;"/>
   </g>
   <g id="line2d_14">
    <path clip-path="url(#pc4dd6e2cce)" d="M 80.754545 342.771573 
L 81.873082 342.637408 
L 83.639659 342.686712 
L 86.649055 342.704553 
L 100.213527 342.702326 
L 151.772727 342.702332 
L 152.314241 298.009634 
L 152.420768 249.189534 
L 152.562805 66.96 
L 152.678209 92.273362 
L 153.565936 369.36 
L 153.610323 369.259095 
L 153.8145 367.87503 
L 154.293873 363.103168 
L 154.959668 353.9472 
L 157.42755 314.90764 
L 157.613973 303.738009 
L 157.738255 281.689093 
L 157.835905 218.895109 
L 157.969064 91.413889 
L 158.031205 104.616177 
L 158.883423 368.933982 
L 158.945564 368.749778 
L 159.203005 366.763105 
L 159.717886 361.068519 
L 160.543473 348.958765 
L 161.830677 330.781138 
L 162.514227 320.490609 
L 162.771668 312.941295 
L 162.940336 300.904239 
L 163.064618 272.831448 
L 163.162268 188.111385 
L 163.268795 92.337796 
L 163.322059 101.886921 
L 163.863573 297.729866 
L 164.147645 368.756495 
L 164.183155 368.901954 
L 164.245295 368.720046 
L 164.493859 366.80913 
L 165.008741 361.134278 
L 165.82545 349.175287 
L 167.121532 330.855957 
L 167.813959 320.454998 
L 168.0714 312.895966 
L 168.240068 300.819271 
L 168.36435 272.584198 
L 168.462 187.362579 
L 168.568527 92.41499 
L 168.621791 102.109916 
L 169.172182 301.696902 
L 169.4385 368.670311 
L 169.482886 368.899925 
L 169.545027 368.713954 
L 169.802468 366.71912 
L 170.31735 361.006424 
L 171.151814 348.748059 
L 172.430141 330.727666 
L 173.113691 320.436593 
L 173.371132 312.85917 
L 173.5398 300.723044 
L 173.664082 272.244847 
L 173.761732 186.206507 
L 173.868259 92.431831 
L 173.921523 102.346812 
L 174.480791 305.783836 
L 174.729355 368.560497 
L 174.782618 368.899986 
L 174.844759 368.709582 
L 175.1022 366.711558 
L 175.617082 360.995705 
L 176.451545 348.735269 
L 177.729873 330.716929 
L 178.413423 320.419562 
L 178.670864 312.823092 
L 178.839532 300.625732 
L 178.963814 271.896349 
L 179.061464 185.016604 
L 179.167991 92.449051 
L 179.221255 102.586517 
L 179.7894 309.974198 
L 180.029086 368.572865 
L 180.08235 368.900081 
L 180.144491 368.705307 
L 180.401932 366.704138 
L 180.916814 360.98519 
L 181.751277 348.722726 
L 183.029605 330.706354 
L 183.713155 320.402608 
L 183.970595 312.786848 
L 184.139264 300.526908 
L 184.263545 271.539674 
L 184.361195 183.805764 
L 184.467723 92.473116 
L 184.520986 102.829882 
L 185.098009 314.256811 
L 185.328818 368.584952 
L 185.382082 368.900056 
L 185.444223 368.700962 
L 185.710541 366.615187 
L 186.2343 360.74369 
L 187.095395 348.025724 
L 188.347091 330.464487 
L 189.012886 320.385505 
L 189.270327 312.750252 
L 189.438995 300.426899 
L 189.563277 271.177912 
L 189.660927 182.590116 
L 189.767455 92.50303 
L 189.820718 103.075386 
L 190.406618 318.61193 
L 190.619673 368.45074 
L 190.681814 368.899988 
L 190.743955 368.696606 
L 191.010273 366.607644 
L 191.534032 360.732998 
L 192.395127 348.013123 
L 193.646823 330.453803 
L 194.312618 320.368337 
L 194.570059 312.713461 
L 194.738727 300.326215 
L 194.863009 270.812409 
L 194.969536 167.95918 
L 195.058309 92.489372 
L 195.12045 103.323854 
L 195.715227 323.013422 
L 195.919405 368.466101 
L 195.981545 368.899779 
L 196.043686 368.692147 
L 196.310005 366.599991 
L 196.833764 360.722153 
L 197.694859 348.000347 
L 198.946555 330.442989 
L 199.61235 320.351004 
L 199.869791 312.676344 
L 200.038459 300.224435 
L 200.162741 270.439812 
L 200.269268 166.69056 
L 200.358041 92.460019 
L 200.420182 103.576289 
L 201.023836 327.424202 
L 201.219136 368.48109 
L 201.281277 368.899439 
L 201.343418 368.687615 
L 201.609736 366.592273 
L 202.133495 360.711221 
L 203.003468 347.850848 
L 204.246286 330.432087 
L 204.912082 320.333502 
L 205.169523 312.638781 
L 205.338191 300.121091 
L 205.462473 270.059529 
L 205.569 165.41343 
L 205.657773 92.437553 
L 205.719914 103.830491 
L 206.332445 331.795781 
L 206.518868 368.49582 
L 206.581009 368.899058 
L 206.634273 368.729799 
L 206.882836 366.827792 
L 207.397718 361.160881 
L 208.214427 349.207283 
L 209.510509 330.883468 
L 210.211814 320.316046 
L 210.469255 312.601216 
L 210.637923 300.017409 
L 210.762205 269.677419 
L 210.868732 164.141529 
L 210.957505 92.422385 
L 211.010768 101.450425 
L 211.52565 286.751551 
L 211.845232 368.810049 
L 211.880741 368.898604 
L 211.934005 368.725587 
L 212.182568 366.820276 
L 212.69745 361.150176 
L 213.514159 349.19442 
L 214.810241 330.87265 
L 215.502668 320.483831 
L 215.760109 312.959133 
L 215.928777 300.99151 
L 216.053059 273.19931 
L 216.150709 189.494509 
L 216.257236 92.415971 
L 216.319377 104.340785 
L 216.949664 340.19554 
L 217.127209 368.652399 
L 217.171595 368.899143 
L 217.233736 368.721344 
L 217.4823 366.812789 
L 217.997182 361.139513 
L 218.813891 349.181614 
L 220.109973 330.861887 
L 220.8024 320.466731 
L 221.059841 312.923088 
L 221.228509 300.894918 
L 221.352791 272.857216 
L 221.450441 188.311124 
L 221.556968 92.416452 
L 221.610232 101.924953 
L 222.151745 297.78663 
L 222.426941 368.66246 
L 222.471327 368.899508 
L 222.533468 368.717086 
L 222.782032 366.805335 
L 223.296914 361.128902 
L 224.113623 349.168876 
L 225.409705 330.851181 
L 226.102132 320.449639 
L 226.359573 312.886952 
L 226.528241 300.797918 
L 226.652523 272.512369 
L 226.750173 187.122996 
L 226.8567 92.422577 
L 226.909964 102.163564 
L 227.460355 301.773735 
L 227.726673 368.672271 
L 227.771059 368.899797 
L 227.8332 368.712828 
L 228.090641 366.717248 
L 228.605523 361.003772 
L 229.439986 348.744897 
L 230.718314 330.725046 
L 231.401864 320.432563 
L 231.659305 312.8508 
L 231.827973 300.700711 
L 231.952255 272.165186 
L 232.049905 185.934654 
L 232.156432 92.435635 
L 232.209695 102.4018 
L 232.768964 305.863886 
L 233.017527 368.563396 
L 233.070791 368.900019 
L 233.132932 368.708595 
L 233.390373 366.709839 
L 233.905255 360.993269 
L 234.739718 348.732364 
L 236.018045 330.714483 
L 236.701595 320.415657 
L 236.959036 312.814762 
L 237.127705 300.603096 
L 237.251986 271.814944 
L 237.349636 184.739478 
L 237.456164 92.454011 
L 237.509427 102.642358 
L 238.077573 310.056702 
L 238.317259 368.575663 
L 238.370523 368.90008 
L 238.432664 368.704307 
L 238.690105 366.702415 
L 239.204986 360.982749 
L 240.03945 348.719815 
L 241.317777 330.7039 
L 242.001327 320.398673 
L 242.258768 312.778433 
L 242.427436 300.503923 
L 242.551718 271.456569 
L 242.649368 183.525805 
L 242.755895 92.479468 
L 242.809159 102.886168 
L 243.386182 314.341025 
L 243.616991 368.587718 
L 243.670255 368.900049 
L 243.732395 368.699963 
L 243.998714 366.613454 
L 244.522473 360.741233 
L 245.383568 348.022828 
L 246.635264 330.46203 
L 247.301059 320.381555 
L 247.5585 312.741787 
L 247.727168 300.403739 
L 247.85145 271.094061 
L 247.9491 182.308954 
L 248.055627 92.510965 
L 248.108891 103.132458 
L 248.694791 318.698155 
L 248.907845 368.454325 
L 248.969986 368.899952 
L 249.032127 368.695583 
L 249.298445 366.605882 
L 249.822205 360.730501 
L 250.6833 348.01018 
L 251.934995 330.451311 
L 252.600791 320.364336 
L 252.858232 312.704891 
L 253.0269 300.302752 
L 253.151182 270.726817 
L 253.257709 167.666075 
L 253.346482 92.481968 
L 253.408623 103.382056 
L 254.0034 323.101148 
L 254.207577 368.469614 
L 254.269718 368.899713 
L 254.331859 368.691103 
L 254.598177 366.598206 
L 255.121936 360.719625 
L 255.983032 347.99737 
L 257.234727 330.440469 
L 257.900523 320.346965 
L 258.157964 312.66769 
L 258.326632 300.200676 
L 258.450914 270.352446 
L 258.557441 166.394771 
L 258.646214 92.454068 
L 258.708355 103.635278 
L 259.312009 327.511958 
L 259.507309 368.484527 
L 259.56945 368.899351 
L 259.631591 368.686561 
L 259.897909 366.590482 
L 260.421668 360.708686 
L 261.291641 347.847864 
L 262.534459 330.429558 
L 263.200255 320.329437 
L 263.457695 312.630037 
L 263.626364 300.096973 
L 263.750645 269.970689 
L 263.857173 165.11711 
L 263.945945 92.433363 
L 264.008086 103.889681 
L 264.620618 331.882184 
L 264.807041 368.499208 
L 264.869182 368.898965 
L 264.922445 368.728829 
L 265.171009 366.826055 
L 265.685891 361.158406 
L 266.5026 349.204309 
L 267.798682 330.880966 
L 268.499986 320.312012 
L 268.757427 312.592535 
L 268.926095 299.993436 
L 269.050377 269.589011 
L 269.156905 163.849078 
L 269.245677 92.420042 
L 269.298941 101.505442 
L 269.8227 290.19871 
L 270.133405 368.811313 
L 270.168914 368.898481 
L 270.222177 368.724604 
L 270.470741 366.818533 
L 270.985623 361.147692 
L 271.802332 349.191437 
L 273.098414 330.870143 
L 273.790841 320.479857 
L 274.048282 312.950768 
L 274.21695 300.969107 
L 274.341232 273.120012 
L 274.438882 189.219647 
L 274.545409 92.415606 
L 274.598673 101.742423 
L 275.131309 293.980235 
L 275.424259 368.74921 
L 275.459768 368.899231 
L 275.521909 368.720356 
L 275.770473 366.811058 
L 276.285355 361.137049 
L 277.102064 349.178656 
L 278.398145 330.859401 
L 279.090573 320.462769 
L 279.348014 312.914717 
L 279.516682 300.87246 
L 279.640964 272.777534 
L 279.738614 188.036155 
L 279.845141 92.417147 
L 279.898405 101.980228 
L 280.439918 297.863888 
L 280.715114 368.66477 
L 280.7595 368.89959 
L 280.821641 368.716104 
L 281.079082 366.722995 
L 281.593964 361.011921 
L 282.428427 348.754625 
L 283.706755 330.733246 
L 284.390305 320.445687 
L 284.647745 312.878589 
L 284.816414 300.775447 
L 284.940695 272.432257 
L 285.038345 186.847954 
L 285.144873 92.425101 
L 285.198136 102.218606 
L 285.748527 301.852123 
L 286.014845 368.67449 
L 286.059232 368.899852 
L 286.121373 368.711848 
L 286.378814 366.715531 
L 286.893695 361.001338 
L 287.728159 348.741991 
L 289.006486 330.722597 
L 289.690036 320.428644 
L 289.947477 312.842464 
L 290.116145 300.67818 
L 290.240427 272.084444 
L 290.338077 185.658742 
L 290.444605 92.439258 
L 290.497868 102.457193 
L 291.057136 305.944449 
L 291.3057 368.566281 
L 291.358964 368.900052 
L 291.421105 368.707612 
L 291.678545 366.708129 
L 292.193427 360.990845 
L 293.027891 348.729472 
L 294.306218 330.712044 
L 294.989768 320.411742 
L 295.247209 312.80639 
L 295.415877 300.580278 
L 295.540159 271.732568 
L 295.637809 184.459536 
L 295.744336 92.459428 
L 295.7976 102.698577 
L 296.365745 310.139583 
L 296.605432 368.578461 
L 296.658695 368.900074 
L 296.720836 368.703302 
L 296.978277 366.700684 
L 297.493159 360.980296 
L 298.327623 348.71689 
L 299.60595 330.701435 
L 300.2895 320.394724 
L 300.546941 312.769987 
L 300.715609 300.480852 
L 300.839891 271.373136 
L 300.937541 183.245536 
L 301.044068 92.486165 
L 301.097332 102.942653 
L 301.674355 314.42542 
L 301.905164 368.590477 
L 301.958427 368.900038 
L 302.020568 368.698962 
L 302.286886 366.611719 
L 302.810645 360.738774 
L 303.671741 348.019929 
L 304.923436 330.459572 
L 305.589232 320.377604 
L 305.846673 312.733318 
L 306.015341 300.380566 
L 306.139623 271.010045 
L 306.24615 168.637604 
L 306.334923 92.507812 
L 306.397064 103.189541 
L 306.982964 318.78418 
L 307.196018 368.457884 
L 307.258159 368.89991 
L 307.3203 368.694558 
L 307.586618 366.60412 
L 308.110377 360.728004 
L 308.971473 348.007239 
L 310.223168 330.448821 
L 310.888964 320.360347 
L 311.146405 312.69635 
L 311.315073 300.279336 
L 311.439355 270.641146 
L 311.545882 167.374066 
L 311.634655 92.475032 
L 311.696795 103.440107 
L 312.291573 323.188293 
L 312.49575 368.473068 
L 312.557891 368.899635 
L 312.620032 368.690059 
L 312.88635 366.596429 
L 313.410109 360.717108 
L 314.271205 347.994404 
L 315.5229 330.437958 
L 316.188695 320.342934 
L 316.446136 312.659046 
L 316.614805 300.176926 
L 316.739086 270.265079 
L 316.845614 166.100283 
L 316.934386 92.448618 
L 316.996527 103.693912 
L 317.600182 327.599226 
L 317.795482 368.487933 
L 317.857623 368.899261 
L 317.910886 368.732037 
L 318.150573 366.911559 
L 318.656577 361.393793 
L 319.446655 349.900228 
L 320.787123 330.889263 
L 321.488427 320.325395 
L 321.745868 312.621341 
L 321.914536 300.072977 
L 322.038818 269.88227 
L 322.145345 164.822452 
L 322.234118 92.429561 
L 322.296259 103.948738 
L 322.908791 331.968331 
L 323.095214 368.502567 
L 323.157355 368.898866 
L 323.210618 368.727858 
L 323.459182 366.824319 
L 323.974064 361.155934 
L 324.790773 349.201338 
L 326.086855 330.878467 
L 326.779282 320.493044 
L 327.036723 312.978528 
L 327.205391 301.043433 
L 327.329673 273.382694 
L 327.427323 190.130833 
L 327.53385 92.418162 
L 327.595991 104.204049 
L 328.2174 336.240659 
L 328.403823 368.646872 
L 328.457086 368.898353 
L 328.51035 368.723626 
L 328.758914 366.816802 
L 329.273795 361.145227 
L 329.318182 360.567969 
L 329.335936 361.472847 
L 329.531236 365.485352 
L 329.620009 365.674329 
L 329.664395 365.616529 
L 329.815309 365.006219 
L 330.214786 362.173667 
L 332.158909 347.433598 
L 332.851336 344.160313 
L 333.410605 342.468148 
L 333.872223 341.700132 
L 334.245068 341.457075 
L 334.600159 341.486574 
L 335.061777 341.780632 
L 336.544282 342.873839 
L 337.174568 342.973994 
L 338.106682 342.861673 
L 339.873259 342.656362 
L 342.305632 342.70801 
L 349.132255 342.70284 
L 435.845455 342.702332 
L 435.845455 342.702332 
" style="fill:none;stroke:#ff0000;stroke-linecap:square;stroke-width:1.5;"/>
   </g>
   <g id="patch_3">
    <path d="M 63 384.48 
L 63 51.84 
" style="fill:none;stroke:#000000;stroke-linecap:square;stroke-linejoin:miter;stroke-width:0.8;"/>
   </g>
   <g id="patch_4">
    <path d="M 453.6 384.48 
L 453.6 51.84 
" style="fill:none;stroke:#000000;stroke-linecap:square;stroke-linejoin:miter;stroke-width:0.8;"/>
   </g>
   <g id="patch_5">
    <path d="M 63 384.48 
L 453.6 384.48 
" style="fill:none;stroke:#000000;stroke-linecap:square;stroke-linejoin:miter;stroke-width:0.8;"/>
   </g>
   <g id="patch_6">
    <path d="M 63 51.84 
L 453.6 51.84 
" style="fill:none;stroke:#000000;stroke-linecap:square;stroke-linejoin:miter;stroke-width:0.8;"/>
   </g>
   <g id="legend_1">
    <g id="patch_7">
     <path d="M 383.460938 89.19625 
L 446.6 89.19625 
Q 448.6 89.19625 448.6 87.19625 
L 448.6 58.84 
Q 448.6 56.84 446.6 56.84 
L 383.460938 56.84 
Q 381.460938 56.84 381.460938 58.84 
L 381.460938 87.19625 
Q 381.460938 89.19625 383.460938 89.19625 
z
" style="fill:#ffffff;opacity:0.8;stroke:#cccccc;stroke-linejoin:miter;"/>
    </g>
    <g id="line2d_15">
     <path d="M 385.460938 64.938437 
L 405.460938 64.938437 
" style="fill:none;stroke:#1f77b4;stroke-linecap:square;stroke-width:1.5;"/>
    </g>
    <g id="line2d_16"/>
    <g id="text_15">
     <!-- target -->
     <defs>
      <path d="M 41.109375 46.296875 
Q 39.59375 47.171875 37.8125 47.578125 
Q 36.03125 48 33.890625 48 
Q 26.265625 48 22.1875 43.046875 
Q 18.109375 38.09375 18.109375 28.8125 
L 18.109375 0 
L 9.078125 0 
L 9.078125 54.6875 
L 18.109375 54.6875 
L 18.109375 46.1875 
Q 20.953125 51.171875 25.484375 53.578125 
Q 30.03125 56 36.53125 56 
Q 37.453125 56 38.578125 55.875 
Q 39.703125 55.765625 41.0625 55.515625 
z
" id="DejaVuSans-72"/>
     </defs>
     <g transform="translate(413.460938 68.438437)scale(0.1 -0.1)">
      <use xlink:href="#DejaVuSans-74"/>
      <use x="39.208984" xlink:href="#DejaVuSans-61"/>
      <use x="100.488281" xlink:href="#DejaVuSans-72"/>
      <use x="141.585938" xlink:href="#DejaVuSans-67"/>
      <use x="205.0625" xlink:href="#DejaVuSans-65"/>
      <use x="266.585938" xlink:href="#DejaVuSans-74"/>
     </g>
    </g>
    <g id="line2d_17">
     <path d="M 385.460938 79.616562 
L 405.460938 79.616562 
" style="fill:none;stroke:#ff0000;stroke-linecap:square;stroke-width:1.5;"/>
    </g>
    <g id="line2d_18"/>
    <g id="text_16">
     <!-- model -->
     <defs>
      <path d="M 45.40625 46.390625 
L 45.40625 75.984375 
L 54.390625 75.984375 
L 54.390625 0 
L 45.40625 0 
L 45.40625 8.203125 
Q 42.578125 3.328125 38.25 0.953125 
Q 33.9375 -1.421875 27.875 -1.421875 
Q 17.96875 -1.421875 11.734375 6.484375 
Q 5.515625 14.40625 5.515625 27.296875 
Q 5.515625 40.1875 11.734375 48.09375 
Q 17.96875 56 27.875 56 
Q 33.9375 56 38.25 53.625 
Q 42.578125 51.265625 45.40625 46.390625 
z
M 14.796875 27.296875 
Q 14.796875 17.390625 18.875 11.75 
Q 22.953125 6.109375 30.078125 6.109375 
Q 37.203125 6.109375 41.296875 11.75 
Q 45.40625 17.390625 45.40625 27.296875 
Q 45.40625 37.203125 41.296875 42.84375 
Q 37.203125 48.484375 30.078125 48.484375 
Q 22.953125 48.484375 18.875 42.84375 
Q 14.796875 37.203125 14.796875 27.296875 
z
" id="DejaVuSans-64"/>
     </defs>
     <g transform="translate(413.460938 83.116562)scale(0.1 -0.1)">
      <use xlink:href="#DejaVuSans-6d"/>
      <use x="97.412109" xlink:href="#DejaVuSans-6f"/>
      <use x="158.59375" xlink:href="#DejaVuSans-64"/>
      <use x="222.070312" xlink:href="#DejaVuSans-65"/>
      <use x="283.59375" xlink:href="#DejaVuSans-6c"/>
     </g>
    </g>
   </g>
  </g>
 </g>
 <defs>
  <clipPath id="pc4dd6e2cce">
   <rect height="332.64" width="390.6" x="63" y="51.84"/>
  </clipPath>
 </defs>
</svg>
