<?xml version="1.0" encoding="utf-8" standalone="no"?>
<!DOCTYPE svg PUBLIC "-//W3C//DTD SVG 1.1//EN"
  "http://www.w3.org/Graphics/SVG/1.1/DTD/svg11.dtd">
<!-- Created with matplotlib (https://matplotlib.org/) -->
<svg height="432pt" version="1.1" viewBox="0 0 504 432" width="504pt" xmlns="http://www.w3.org/2000/svg" xmlns:xlink="http://www.w3.org/1999/xlink">
 <defs>
  <style type="text/css">
*{stroke-linecap:butt;stroke-linejoin:round;}
  </style>
 </defs>
 <g id="figure_1">
  <g id="patch_1">
   <path d="M 0 432 
L 504 432 
L 504 0 
L 0 0 
z
" style="fill:#ffffff;"/>
  </g>
  <g id="axes_1">
   <g id="patch_2">
    <path d="M 63 384.48 
L 453.6 384.48 
L 453.6 51.84 
L 63 51.84 
z
" style="fill:#ffffff;"/>
   </g>
   <g id="matplotlib.axis_1">
    <g id="xtick_1">
     <g id="line2d_1">
      <defs>
       <path d="M 0 0 
L 0 3.5 
" id="m652c5c7de7" style="stroke:#000000;stroke-width:0.8;"/>
      </defs>
      <g>
       <use style="stroke:#000000;stroke-width:0.8;" x="80.754545" xlink:href="#m652c5c7de7" y="384.48"/>
      </g>
     </g>
     <g id="text_1">
      <!-- 0 -->
      <defs>
       <path d="M 31.78125 66.40625 
Q 24.171875 66.40625 20.328125 58.90625 
Q 16.5 51.421875 16.5 36.375 
Q 16.5 21.390625 20.328125 13.890625 
Q 24.171875 6.390625 31.78125 6.390625 
Q 39.453125 6.390625 43.28125 13.890625 
Q 47.125 21.390625 47.125 36.375 
Q 47.125 51.421875 43.28125 58.90625 
Q 39.453125 66.40625 31.78125 66.40625 
z
M 31.78125 74.21875 
Q 44.046875 74.21875 50.515625 64.515625 
Q 56.984375 54.828125 56.984375 36.375 
Q 56.984375 17.96875 50.515625 8.265625 
Q 44.046875 -1.421875 31.78125 -1.421875 
Q 19.53125 -1.421875 13.0625 8.265625 
Q 6.59375 17.96875 6.59375 36.375 
Q 6.59375 54.828125 13.0625 64.515625 
Q 19.53125 74.21875 31.78125 74.21875 
z
" id="DejaVuSans-48"/>
      </defs>
      <g transform="translate(77.573295 399.078438)scale(0.1 -0.1)">
       <use xlink:href="#DejaVuSans-48"/>
      </g>
     </g>
    </g>
    <g id="xtick_2">
     <g id="line2d_2">
      <g>
       <use style="stroke:#000000;stroke-width:0.8;" x="151.763044" xlink:href="#m652c5c7de7" y="384.48"/>
      </g>
     </g>
     <g id="text_2">
      <!-- 880 -->
      <defs>
       <path d="M 31.78125 34.625 
Q 24.75 34.625 20.71875 30.859375 
Q 16.703125 27.09375 16.703125 20.515625 
Q 16.703125 13.921875 20.71875 10.15625 
Q 24.75 6.390625 31.78125 6.390625 
Q 38.8125 6.390625 42.859375 10.171875 
Q 46.921875 13.96875 46.921875 20.515625 
Q 46.921875 27.09375 42.890625 30.859375 
Q 38.875 34.625 31.78125 34.625 
z
M 21.921875 38.8125 
Q 15.578125 40.375 12.03125 44.71875 
Q 8.5 49.078125 8.5 55.328125 
Q 8.5 64.0625 14.71875 69.140625 
Q 20.953125 74.21875 31.78125 74.21875 
Q 42.671875 74.21875 48.875 69.140625 
Q 55.078125 64.0625 55.078125 55.328125 
Q 55.078125 49.078125 51.53125 44.71875 
Q 48 40.375 41.703125 38.8125 
Q 48.828125 37.15625 52.796875 32.3125 
Q 56.78125 27.484375 56.78125 20.515625 
Q 56.78125 9.90625 50.3125 4.234375 
Q 43.84375 -1.421875 31.78125 -1.421875 
Q 19.734375 -1.421875 13.25 4.234375 
Q 6.78125 9.90625 6.78125 20.515625 
Q 6.78125 27.484375 10.78125 32.3125 
Q 14.796875 37.15625 21.921875 38.8125 
z
M 18.3125 54.390625 
Q 18.3125 48.734375 21.84375 45.5625 
Q 25.390625 42.390625 31.78125 42.390625 
Q 38.140625 42.390625 41.71875 45.5625 
Q 45.3125 48.734375 45.3125 54.390625 
Q 45.3125 60.0625 41.71875 63.234375 
Q 38.140625 66.40625 31.78125 66.40625 
Q 25.390625 66.40625 21.84375 63.234375 
Q 18.3125 60.0625 18.3125 54.390625 
z
" id="DejaVuSans-56"/>
      </defs>
      <g transform="translate(142.219294 399.078438)scale(0.1 -0.1)">
       <use xlink:href="#DejaVuSans-56"/>
       <use x="63.623047" xlink:href="#DejaVuSans-56"/>
       <use x="127.246094" xlink:href="#DejaVuSans-48"/>
      </g>
     </g>
    </g>
    <g id="xtick_3">
     <g id="line2d_3">
      <g>
       <use style="stroke:#000000;stroke-width:0.8;" x="222.771543" xlink:href="#m652c5c7de7" y="384.48"/>
      </g>
     </g>
     <g id="text_3">
      <!-- 1760 -->
      <defs>
       <path d="M 12.40625 8.296875 
L 28.515625 8.296875 
L 28.515625 63.921875 
L 10.984375 60.40625 
L 10.984375 69.390625 
L 28.421875 72.90625 
L 38.28125 72.90625 
L 38.28125 8.296875 
L 54.390625 8.296875 
L 54.390625 0 
L 12.40625 0 
z
" id="DejaVuSans-49"/>
       <path d="M 8.203125 72.90625 
L 55.078125 72.90625 
L 55.078125 68.703125 
L 28.609375 0 
L 18.3125 0 
L 43.21875 64.59375 
L 8.203125 64.59375 
z
" id="DejaVuSans-55"/>
       <path d="M 33.015625 40.375 
Q 26.375 40.375 22.484375 35.828125 
Q 18.609375 31.296875 18.609375 23.390625 
Q 18.609375 15.53125 22.484375 10.953125 
Q 26.375 6.390625 33.015625 6.390625 
Q 39.65625 6.390625 43.53125 10.953125 
Q 47.40625 15.53125 47.40625 23.390625 
Q 47.40625 31.296875 43.53125 35.828125 
Q 39.65625 40.375 33.015625 40.375 
z
M 52.59375 71.296875 
L 52.59375 62.3125 
Q 48.875 64.0625 45.09375 64.984375 
Q 41.3125 65.921875 37.59375 65.921875 
Q 27.828125 65.921875 22.671875 59.328125 
Q 17.53125 52.734375 16.796875 39.40625 
Q 19.671875 43.65625 24.015625 45.921875 
Q 28.375 48.1875 33.59375 48.1875 
Q 44.578125 48.1875 50.953125 41.515625 
Q 57.328125 34.859375 57.328125 23.390625 
Q 57.328125 12.15625 50.6875 5.359375 
Q 44.046875 -1.421875 33.015625 -1.421875 
Q 20.359375 -1.421875 13.671875 8.265625 
Q 6.984375 17.96875 6.984375 36.375 
Q 6.984375 53.65625 15.1875 63.9375 
Q 23.390625 74.21875 37.203125 74.21875 
Q 40.921875 74.21875 44.703125 73.484375 
Q 48.484375 72.75 52.59375 71.296875 
z
" id="DejaVuSans-54"/>
      </defs>
      <g transform="translate(210.046543 399.078438)scale(0.1 -0.1)">
       <use xlink:href="#DejaVuSans-49"/>
       <use x="63.623047" xlink:href="#DejaVuSans-55"/>
       <use x="127.246094" xlink:href="#DejaVuSans-54"/>
       <use x="190.869141" xlink:href="#DejaVuSans-48"/>
      </g>
     </g>
    </g>
    <g id="xtick_4">
     <g id="line2d_4">
      <g>
       <use style="stroke:#000000;stroke-width:0.8;" x="293.780042" xlink:href="#m652c5c7de7" y="384.48"/>
      </g>
     </g>
     <g id="text_4">
      <!-- 2640 -->
      <defs>
       <path d="M 19.1875 8.296875 
L 53.609375 8.296875 
L 53.609375 0 
L 7.328125 0 
L 7.328125 8.296875 
Q 12.9375 14.109375 22.625 23.890625 
Q 32.328125 33.6875 34.8125 36.53125 
Q 39.546875 41.84375 41.421875 45.53125 
Q 43.3125 49.21875 43.3125 52.78125 
Q 43.3125 58.59375 39.234375 62.25 
Q 35.15625 65.921875 28.609375 65.921875 
Q 23.96875 65.921875 18.8125 64.3125 
Q 13.671875 62.703125 7.8125 59.421875 
L 7.8125 69.390625 
Q 13.765625 71.78125 18.9375 73 
Q 24.125 74.21875 28.421875 74.21875 
Q 39.75 74.21875 46.484375 68.546875 
Q 53.21875 62.890625 53.21875 53.421875 
Q 53.21875 48.921875 51.53125 44.890625 
Q 49.859375 40.875 45.40625 35.40625 
Q 44.1875 33.984375 37.640625 27.21875 
Q 31.109375 20.453125 19.1875 8.296875 
z
" id="DejaVuSans-50"/>
       <path d="M 37.796875 64.3125 
L 12.890625 25.390625 
L 37.796875 25.390625 
z
M 35.203125 72.90625 
L 47.609375 72.90625 
L 47.609375 25.390625 
L 58.015625 25.390625 
L 58.015625 17.1875 
L 47.609375 17.1875 
L 47.609375 0 
L 37.796875 0 
L 37.796875 17.1875 
L 4.890625 17.1875 
L 4.890625 26.703125 
z
" id="DejaVuSans-52"/>
      </defs>
      <g transform="translate(281.055042 399.078438)scale(0.1 -0.1)">
       <use xlink:href="#DejaVuSans-50"/>
       <use x="63.623047" xlink:href="#DejaVuSans-54"/>
       <use x="127.246094" xlink:href="#DejaVuSans-52"/>
       <use x="190.869141" xlink:href="#DejaVuSans-48"/>
      </g>
     </g>
    </g>
    <g id="xtick_5">
     <g id="line2d_5">
      <g>
       <use style="stroke:#000000;stroke-width:0.8;" x="364.788541" xlink:href="#m652c5c7de7" y="384.48"/>
      </g>
     </g>
     <g id="text_5">
      <!-- 3520 -->
      <defs>
       <path d="M 40.578125 39.3125 
Q 47.65625 37.796875 51.625 33 
Q 55.609375 28.21875 55.609375 21.1875 
Q 55.609375 10.40625 48.1875 4.484375 
Q 40.765625 -1.421875 27.09375 -1.421875 
Q 22.515625 -1.421875 17.65625 -0.515625 
Q 12.796875 0.390625 7.625 2.203125 
L 7.625 11.71875 
Q 11.71875 9.328125 16.59375 8.109375 
Q 21.484375 6.890625 26.8125 6.890625 
Q 36.078125 6.890625 40.9375 10.546875 
Q 45.796875 14.203125 45.796875 21.1875 
Q 45.796875 27.640625 41.28125 31.265625 
Q 36.765625 34.90625 28.71875 34.90625 
L 20.21875 34.90625 
L 20.21875 43.015625 
L 29.109375 43.015625 
Q 36.375 43.015625 40.234375 45.921875 
Q 44.09375 48.828125 44.09375 54.296875 
Q 44.09375 59.90625 40.109375 62.90625 
Q 36.140625 65.921875 28.71875 65.921875 
Q 24.65625 65.921875 20.015625 65.03125 
Q 15.375 64.15625 9.8125 62.3125 
L 9.8125 71.09375 
Q 15.4375 72.65625 20.34375 73.4375 
Q 25.25 74.21875 29.59375 74.21875 
Q 40.828125 74.21875 47.359375 69.109375 
Q 53.90625 64.015625 53.90625 55.328125 
Q 53.90625 49.265625 50.4375 45.09375 
Q 46.96875 40.921875 40.578125 39.3125 
z
" id="DejaVuSans-51"/>
       <path d="M 10.796875 72.90625 
L 49.515625 72.90625 
L 49.515625 64.59375 
L 19.828125 64.59375 
L 19.828125 46.734375 
Q 21.96875 47.46875 24.109375 47.828125 
Q 26.265625 48.1875 28.421875 48.1875 
Q 40.625 48.1875 47.75 41.5 
Q 54.890625 34.8125 54.890625 23.390625 
Q 54.890625 11.625 47.5625 5.09375 
Q 40.234375 -1.421875 26.90625 -1.421875 
Q 22.3125 -1.421875 17.546875 -0.640625 
Q 12.796875 0.140625 7.71875 1.703125 
L 7.71875 11.625 
Q 12.109375 9.234375 16.796875 8.0625 
Q 21.484375 6.890625 26.703125 6.890625 
Q 35.15625 6.890625 40.078125 11.328125 
Q 45.015625 15.765625 45.015625 23.390625 
Q 45.015625 31 40.078125 35.4375 
Q 35.15625 39.890625 26.703125 39.890625 
Q 22.75 39.890625 18.8125 39.015625 
Q 14.890625 38.140625 10.796875 36.28125 
z
" id="DejaVuSans-53"/>
      </defs>
      <g transform="translate(352.063541 399.078438)scale(0.1 -0.1)">
       <use xlink:href="#DejaVuSans-51"/>
       <use x="63.623047" xlink:href="#DejaVuSans-53"/>
       <use x="127.246094" xlink:href="#DejaVuSans-50"/>
       <use x="190.869141" xlink:href="#DejaVuSans-48"/>
      </g>
     </g>
    </g>
    <g id="text_6">
     <!-- time [ms] -->
     <defs>
      <path d="M 18.3125 70.21875 
L 18.3125 54.6875 
L 36.8125 54.6875 
L 36.8125 47.703125 
L 18.3125 47.703125 
L 18.3125 18.015625 
Q 18.3125 11.328125 20.140625 9.421875 
Q 21.96875 7.515625 27.59375 7.515625 
L 36.8125 7.515625 
L 36.8125 0 
L 27.59375 0 
Q 17.1875 0 13.234375 3.875 
Q 9.28125 7.765625 9.28125 18.015625 
L 9.28125 47.703125 
L 2.6875 47.703125 
L 2.6875 54.6875 
L 9.28125 54.6875 
L 9.28125 70.21875 
z
" id="DejaVuSans-116"/>
      <path d="M 9.421875 54.6875 
L 18.40625 54.6875 
L 18.40625 0 
L 9.421875 0 
z
M 9.421875 75.984375 
L 18.40625 75.984375 
L 18.40625 64.59375 
L 9.421875 64.59375 
z
" id="DejaVuSans-105"/>
      <path d="M 52 44.1875 
Q 55.375 50.25 60.0625 53.125 
Q 64.75 56 71.09375 56 
Q 79.640625 56 84.28125 50.015625 
Q 88.921875 44.046875 88.921875 33.015625 
L 88.921875 0 
L 79.890625 0 
L 79.890625 32.71875 
Q 79.890625 40.578125 77.09375 44.375 
Q 74.3125 48.1875 68.609375 48.1875 
Q 61.625 48.1875 57.5625 43.546875 
Q 53.515625 38.921875 53.515625 30.90625 
L 53.515625 0 
L 44.484375 0 
L 44.484375 32.71875 
Q 44.484375 40.625 41.703125 44.40625 
Q 38.921875 48.1875 33.109375 48.1875 
Q 26.21875 48.1875 22.15625 43.53125 
Q 18.109375 38.875 18.109375 30.90625 
L 18.109375 0 
L 9.078125 0 
L 9.078125 54.6875 
L 18.109375 54.6875 
L 18.109375 46.1875 
Q 21.1875 51.21875 25.484375 53.609375 
Q 29.78125 56 35.6875 56 
Q 41.65625 56 45.828125 52.96875 
Q 50 49.953125 52 44.1875 
z
" id="DejaVuSans-109"/>
      <path d="M 56.203125 29.59375 
L 56.203125 25.203125 
L 14.890625 25.203125 
Q 15.484375 15.921875 20.484375 11.0625 
Q 25.484375 6.203125 34.421875 6.203125 
Q 39.59375 6.203125 44.453125 7.46875 
Q 49.3125 8.734375 54.109375 11.28125 
L 54.109375 2.78125 
Q 49.265625 0.734375 44.1875 -0.34375 
Q 39.109375 -1.421875 33.890625 -1.421875 
Q 20.796875 -1.421875 13.15625 6.1875 
Q 5.515625 13.8125 5.515625 26.8125 
Q 5.515625 40.234375 12.765625 48.109375 
Q 20.015625 56 32.328125 56 
Q 43.359375 56 49.78125 48.890625 
Q 56.203125 41.796875 56.203125 29.59375 
z
M 47.21875 32.234375 
Q 47.125 39.59375 43.09375 43.984375 
Q 39.0625 48.390625 32.421875 48.390625 
Q 24.90625 48.390625 20.390625 44.140625 
Q 15.875 39.890625 15.1875 32.171875 
z
" id="DejaVuSans-101"/>
      <path id="DejaVuSans-32"/>
      <path d="M 8.59375 75.984375 
L 29.296875 75.984375 
L 29.296875 69 
L 17.578125 69 
L 17.578125 -6.203125 
L 29.296875 -6.203125 
L 29.296875 -13.1875 
L 8.59375 -13.1875 
z
" id="DejaVuSans-91"/>
      <path d="M 44.28125 53.078125 
L 44.28125 44.578125 
Q 40.484375 46.53125 36.375 47.5 
Q 32.28125 48.484375 27.875 48.484375 
Q 21.1875 48.484375 17.84375 46.4375 
Q 14.5 44.390625 14.5 40.28125 
Q 14.5 37.15625 16.890625 35.375 
Q 19.28125 33.59375 26.515625 31.984375 
L 29.59375 31.296875 
Q 39.15625 29.25 43.1875 25.515625 
Q 47.21875 21.78125 47.21875 15.09375 
Q 47.21875 7.46875 41.1875 3.015625 
Q 35.15625 -1.421875 24.609375 -1.421875 
Q 20.21875 -1.421875 15.453125 -0.5625 
Q 10.6875 0.296875 5.421875 2 
L 5.421875 11.28125 
Q 10.40625 8.6875 15.234375 7.390625 
Q 20.0625 6.109375 24.8125 6.109375 
Q 31.15625 6.109375 34.5625 8.28125 
Q 37.984375 10.453125 37.984375 14.40625 
Q 37.984375 18.0625 35.515625 20.015625 
Q 33.0625 21.96875 24.703125 23.78125 
L 21.578125 24.515625 
Q 13.234375 26.265625 9.515625 29.90625 
Q 5.8125 33.546875 5.8125 39.890625 
Q 5.8125 47.609375 11.28125 51.796875 
Q 16.75 56 26.8125 56 
Q 31.78125 56 36.171875 55.265625 
Q 40.578125 54.546875 44.28125 53.078125 
z
" id="DejaVuSans-115"/>
      <path d="M 30.421875 75.984375 
L 30.421875 -13.1875 
L 9.71875 -13.1875 
L 9.71875 -6.203125 
L 21.390625 -6.203125 
L 21.390625 69 
L 9.71875 69 
L 9.71875 75.984375 
z
" id="DejaVuSans-93"/>
     </defs>
     <g transform="translate(234.038281 412.756563)scale(0.1 -0.1)">
      <use xlink:href="#DejaVuSans-116"/>
      <use x="39.208984" xlink:href="#DejaVuSans-105"/>
      <use x="66.992188" xlink:href="#DejaVuSans-109"/>
      <use x="164.404297" xlink:href="#DejaVuSans-101"/>
      <use x="225.927734" xlink:href="#DejaVuSans-32"/>
      <use x="257.714844" xlink:href="#DejaVuSans-91"/>
      <use x="296.728516" xlink:href="#DejaVuSans-109"/>
      <use x="394.140625" xlink:href="#DejaVuSans-115"/>
      <use x="446.240234" xlink:href="#DejaVuSans-93"/>
     </g>
    </g>
   </g>
   <g id="matplotlib.axis_2">
    <g id="ytick_1">
     <g id="line2d_6">
      <defs>
       <path d="M 0 0 
L -3.5 0 
" id="m0e695046cb" style="stroke:#000000;stroke-width:0.8;"/>
      </defs>
      <g>
       <use style="stroke:#000000;stroke-width:0.8;" x="63" xlink:href="#m0e695046cb" y="349.672386"/>
      </g>
     </g>
     <g id="text_7">
      <!-- −800 -->
      <defs>
       <path d="M 10.59375 35.5 
L 73.1875 35.5 
L 73.1875 27.203125 
L 10.59375 27.203125 
z
" id="DejaVuSans-8722"/>
      </defs>
      <g transform="translate(28.532812 353.471605)scale(0.1 -0.1)">
       <use xlink:href="#DejaVuSans-8722"/>
       <use x="83.789062" xlink:href="#DejaVuSans-56"/>
       <use x="147.412109" xlink:href="#DejaVuSans-48"/>
       <use x="211.035156" xlink:href="#DejaVuSans-48"/>
      </g>
     </g>
    </g>
    <g id="ytick_2">
     <g id="line2d_7">
      <g>
       <use style="stroke:#000000;stroke-width:0.8;" x="63" xlink:href="#m0e695046cb" y="283.573298"/>
      </g>
     </g>
     <g id="text_8">
      <!-- −600 -->
      <g transform="translate(28.532812 287.372516)scale(0.1 -0.1)">
       <use xlink:href="#DejaVuSans-8722"/>
       <use x="83.789062" xlink:href="#DejaVuSans-54"/>
       <use x="147.412109" xlink:href="#DejaVuSans-48"/>
       <use x="211.035156" xlink:href="#DejaVuSans-48"/>
      </g>
     </g>
    </g>
    <g id="ytick_3">
     <g id="line2d_8">
      <g>
       <use style="stroke:#000000;stroke-width:0.8;" x="63" xlink:href="#m0e695046cb" y="217.474209"/>
      </g>
     </g>
     <g id="text_9">
      <!-- −400 -->
      <g transform="translate(28.532812 221.273428)scale(0.1 -0.1)">
       <use xlink:href="#DejaVuSans-8722"/>
       <use x="83.789062" xlink:href="#DejaVuSans-52"/>
       <use x="147.412109" xlink:href="#DejaVuSans-48"/>
       <use x="211.035156" xlink:href="#DejaVuSans-48"/>
      </g>
     </g>
    </g>
    <g id="ytick_4">
     <g id="line2d_9">
      <g>
       <use style="stroke:#000000;stroke-width:0.8;" x="63" xlink:href="#m0e695046cb" y="151.37512"/>
      </g>
     </g>
     <g id="text_10">
      <!-- −200 -->
      <g transform="translate(28.532812 155.174339)scale(0.1 -0.1)">
       <use xlink:href="#DejaVuSans-8722"/>
       <use x="83.789062" xlink:href="#DejaVuSans-50"/>
       <use x="147.412109" xlink:href="#DejaVuSans-48"/>
       <use x="211.035156" xlink:href="#DejaVuSans-48"/>
      </g>
     </g>
    </g>
    <g id="ytick_5">
     <g id="line2d_10">
      <g>
       <use style="stroke:#000000;stroke-width:0.8;" x="63" xlink:href="#m0e695046cb" y="85.276032"/>
      </g>
     </g>
     <g id="text_11">
      <!-- 0 -->
      <g transform="translate(49.6375 89.07525)scale(0.1 -0.1)">
       <use xlink:href="#DejaVuSans-48"/>
      </g>
     </g>
    </g>
    <g id="text_12">
     <!-- voltage [mV] -->
     <defs>
      <path d="M 2.984375 54.6875 
L 12.5 54.6875 
L 29.59375 8.796875 
L 46.6875 54.6875 
L 56.203125 54.6875 
L 35.6875 0 
L 23.484375 0 
z
" id="DejaVuSans-118"/>
      <path d="M 30.609375 48.390625 
Q 23.390625 48.390625 19.1875 42.75 
Q 14.984375 37.109375 14.984375 27.296875 
Q 14.984375 17.484375 19.15625 11.84375 
Q 23.34375 6.203125 30.609375 6.203125 
Q 37.796875 6.203125 41.984375 11.859375 
Q 46.1875 17.53125 46.1875 27.296875 
Q 46.1875 37.015625 41.984375 42.703125 
Q 37.796875 48.390625 30.609375 48.390625 
z
M 30.609375 56 
Q 42.328125 56 49.015625 48.375 
Q 55.71875 40.765625 55.71875 27.296875 
Q 55.71875 13.875 49.015625 6.21875 
Q 42.328125 -1.421875 30.609375 -1.421875 
Q 18.84375 -1.421875 12.171875 6.21875 
Q 5.515625 13.875 5.515625 27.296875 
Q 5.515625 40.765625 12.171875 48.375 
Q 18.84375 56 30.609375 56 
z
" id="DejaVuSans-111"/>
      <path d="M 9.421875 75.984375 
L 18.40625 75.984375 
L 18.40625 0 
L 9.421875 0 
z
" id="DejaVuSans-108"/>
      <path d="M 34.28125 27.484375 
Q 23.390625 27.484375 19.1875 25 
Q 14.984375 22.515625 14.984375 16.5 
Q 14.984375 11.71875 18.140625 8.90625 
Q 21.296875 6.109375 26.703125 6.109375 
Q 34.1875 6.109375 38.703125 11.40625 
Q 43.21875 16.703125 43.21875 25.484375 
L 43.21875 27.484375 
z
M 52.203125 31.203125 
L 52.203125 0 
L 43.21875 0 
L 43.21875 8.296875 
Q 40.140625 3.328125 35.546875 0.953125 
Q 30.953125 -1.421875 24.3125 -1.421875 
Q 15.921875 -1.421875 10.953125 3.296875 
Q 6 8.015625 6 15.921875 
Q 6 25.140625 12.171875 29.828125 
Q 18.359375 34.515625 30.609375 34.515625 
L 43.21875 34.515625 
L 43.21875 35.40625 
Q 43.21875 41.609375 39.140625 45 
Q 35.0625 48.390625 27.6875 48.390625 
Q 23 48.390625 18.546875 47.265625 
Q 14.109375 46.140625 10.015625 43.890625 
L 10.015625 52.203125 
Q 14.9375 54.109375 19.578125 55.046875 
Q 24.21875 56 28.609375 56 
Q 40.484375 56 46.34375 49.84375 
Q 52.203125 43.703125 52.203125 31.203125 
z
" id="DejaVuSans-97"/>
      <path d="M 45.40625 27.984375 
Q 45.40625 37.75 41.375 43.109375 
Q 37.359375 48.484375 30.078125 48.484375 
Q 22.859375 48.484375 18.828125 43.109375 
Q 14.796875 37.75 14.796875 27.984375 
Q 14.796875 18.265625 18.828125 12.890625 
Q 22.859375 7.515625 30.078125 7.515625 
Q 37.359375 7.515625 41.375 12.890625 
Q 45.40625 18.265625 45.40625 27.984375 
z
M 54.390625 6.78125 
Q 54.390625 -7.171875 48.1875 -13.984375 
Q 42 -20.796875 29.203125 -20.796875 
Q 24.46875 -20.796875 20.265625 -20.09375 
Q 16.0625 -19.390625 12.109375 -17.921875 
L 12.109375 -9.1875 
Q 16.0625 -11.328125 19.921875 -12.34375 
Q 23.78125 -13.375 27.78125 -13.375 
Q 36.625 -13.375 41.015625 -8.765625 
Q 45.40625 -4.15625 45.40625 5.171875 
L 45.40625 9.625 
Q 42.625 4.78125 38.28125 2.390625 
Q 33.9375 0 27.875 0 
Q 17.828125 0 11.671875 7.65625 
Q 5.515625 15.328125 5.515625 27.984375 
Q 5.515625 40.671875 11.671875 48.328125 
Q 17.828125 56 27.875 56 
Q 33.9375 56 38.28125 53.609375 
Q 42.625 51.21875 45.40625 46.390625 
L 45.40625 54.6875 
L 54.390625 54.6875 
z
" id="DejaVuSans-103"/>
      <path d="M 28.609375 0 
L 0.78125 72.90625 
L 11.078125 72.90625 
L 34.1875 11.53125 
L 57.328125 72.90625 
L 67.578125 72.90625 
L 39.796875 0 
z
" id="DejaVuSans-86"/>
     </defs>
     <g transform="translate(22.453125 250.624062)rotate(-90)scale(0.1 -0.1)">
      <use xlink:href="#DejaVuSans-118"/>
      <use x="59.179688" xlink:href="#DejaVuSans-111"/>
      <use x="120.361328" xlink:href="#DejaVuSans-108"/>
      <use x="148.144531" xlink:href="#DejaVuSans-116"/>
      <use x="187.353516" xlink:href="#DejaVuSans-97"/>
      <use x="248.632812" xlink:href="#DejaVuSans-103"/>
      <use x="312.109375" xlink:href="#DejaVuSans-101"/>
      <use x="373.632812" xlink:href="#DejaVuSans-32"/>
      <use x="405.419922" xlink:href="#DejaVuSans-91"/>
      <use x="444.433594" xlink:href="#DejaVuSans-109"/>
      <use x="541.845703" xlink:href="#DejaVuSans-86"/>
      <use x="610.253906" xlink:href="#DejaVuSans-93"/>
     </g>
    </g>
   </g>
   <g id="line2d_11">
    <path clip-path="url(#pb3c9daa597)" d="M 80.754545 104.608724 
L 88.85597 104.657137 
L 89.049629 102.817465 
L 89.51764 101.042343 
L 89.904959 99.944994 
L 91.567203 96.862737 
L 92.713022 95.862214 
L 92.890543 95.765389 
L 93.197171 95.604014 
L 93.552214 95.507189 
L 93.77815 95.426502 
L 94.24616 95.329677 
L 94.43982 95.281265 
L 96.392553 95.18444 
L 96.570075 95.152165 
L 96.908979 95.24899 
L 97.167192 95.361952 
L 99.297447 95.265127 
L 99.426553 95.265127 
L 99.571798 95.265127 
L 100.185053 95.345815 
L 100.427127 95.587877 
L 100.669202 95.700839 
L 100.846723 95.668564 
L 101.363148 95.571739 
L 101.54067 95.539464 
L 102.186201 95.44264 
L 102.395999 95.37809 
L 104.09052 95.281265 
L 104.235765 95.281265 
L 104.897435 95.18444 
L 105.074956 95.152165 
L 105.268616 95.200577 
L 109.254775 95.103753 
L 109.400019 95.103753 
L 112.821338 95.200577 
L 112.966583 95.200577 
L 113.531423 95.297402 
L 113.692806 95.31354 
L 115.35505 95.216715 
L 115.516433 95.200577 
L 115.64554 95.18444 
L 116.484731 95.087615 
L 116.678391 95.039203 
L 117.420752 95.136028 
L 117.72738 95.297402 
L 120.051294 95.200577 
L 120.261092 95.136028 
L 122.020166 95.039203 
L 122.197688 95.006928 
L 123.666272 95.103753 
L 123.77924 95.087615 
L 123.924485 95.087615 
L 124.06973 95.087615 
L 128.217272 94.99079 
L 128.394793 94.958515 
L 130.089314 94.861691 
L 130.282973 94.813278 
L 133.768845 94.910103 
L 134.043196 95.039203 
L 134.172303 95.05534 
L 136.915813 94.958515 
L 137.109472 94.910103 
L 138.707163 94.813278 
L 138.852408 94.813278 
L 140.966525 94.716453 
L 141.127908 94.684178 
L 141.450674 94.861691 
L 142.854705 94.764866 
L 143.016088 94.732591 
L 143.177471 94.748728 
L 144.759024 94.845553 
L 144.904269 94.845553 
L 146.340577 94.748728 
L 146.485822 94.748728 
L 153.40915 94.700316 
L 153.60281 96.539988 
L 154.070821 98.31511 
L 154.797044 100.154782 
L 155.733065 101.784666 
L 156.023554 102.220378 
L 156.394735 102.72064 
L 158.799341 104.979886 
L 158.944586 105.060573 
L 159.122107 105.173536 
L 159.315766 105.27036 
L 159.654671 105.46401 
L 159.896745 105.560835 
L 160.187234 105.706072 
L 160.429309 105.802897 
L 160.655245 105.883584 
L 160.913458 105.980409 
L 161.123256 106.044959 
L 161.639681 106.141784 
L 161.801064 106.157921 
L 162.172245 106.254746 
L 162.349766 106.287021 
L 163.318064 106.383846 
L 163.495585 106.416121 
L 167.04601 106.319296 
L 167.207393 106.303159 
L 168.014308 106.206334 
L 168.207967 106.157921 
L 169.176265 106.061097 
L 169.353786 106.028822 
L 169.499031 106.012684 
L 169.611999 104.753961 
L 177.616593 104.770099 
L 177.810253 102.365615 
L 178.391231 99.541558 
L 179.16587 96.895012 
L 179.843678 95.200577 
L 180.424657 94.264604 
L 180.537625 94.167779 
L 180.989497 93.861167 
L 181.360678 93.764342 
L 181.667305 93.602968 
L 182.393529 93.506143 
L 182.57105 93.473868 
L 182.796986 93.377043 
L 182.926092 93.377043 
L 183.071337 93.377043 
L 183.377965 93.280218 
L 183.668454 93.134981 
L 183.910528 93.038156 
L 184.201018 92.892919 
L 184.45923 92.796094 
L 184.65289 92.747682 
L 184.911103 92.650857 
L 185.056347 92.650857 
L 185.21773 92.554032 
L 185.427528 92.489482 
L 185.588911 92.392657 
L 186.428102 91.408271 
L 186.444241 90.407748 
L 186.492656 68.476922 
L 186.573347 79.950666 
L 186.73473 92.989744 
L 186.960666 93.441593 
L 187.073634 93.699792 
L 188.05807 95.44264 
L 188.187177 95.523327 
L 188.364698 95.636289 
L 188.622911 95.749252 
L 188.800432 95.846076 
L 188.977953 95.878351 
L 190.381985 95.781526 
L 190.575644 95.733114 
L 191.269591 95.636289 
L 191.447112 95.604014 
L 192.302442 95.507189 
L 192.544516 95.410365 
L 192.689761 95.410365 
L 193.593505 95.31354 
L 193.73875 95.297402 
L 193.867856 95.281265 
L 194.642495 95.18444 
L 194.820016 95.136028 
L 194.932984 95.103753 
L 195.465548 95.006928 
L 195.643069 94.974653 
L 196.175633 94.877828 
L 196.337016 94.861691 
L 196.498399 94.877828 
L 197.692632 94.974653 
L 197.886292 95.023065 
L 199.145079 94.92624 
L 199.387153 94.829416 
L 200.032685 94.732591 
L 200.194068 94.716453 
L 200.952568 94.619628 
L 201.162366 94.555079 
L 201.791759 94.458254 
L 201.937004 94.458254 
L 202.582536 94.361429 
L 202.792334 94.296879 
L 206.471865 94.393704 
L 206.649386 94.425979 
L 208.473014 94.329154 
L 208.650535 94.296879 
L 209.538141 94.200054 
L 209.764077 94.119367 
L 211.53929 94.022542 
L 211.700673 94.006404 
L 214.056864 93.90958 
L 214.202108 93.893442 
L 214.331215 93.877305 
L 216.025736 93.78048 
L 216.26781 93.683655 
L 219.915065 93.78048 
L 220.173278 93.90958 
L 220.286246 93.941855 
L 221.690277 93.84503 
L 221.883937 93.796617 
L 222.126011 93.699792 
L 222.287394 93.683655 
L 223.094309 93.58683 
L 223.304107 93.52228 
L 223.707564 93.425455 
L 223.949639 93.328631 
L 224.837245 93.425455 
L 224.998628 93.441593 
L 226.160585 93.344768 
L 226.418798 93.231806 
L 227.483925 93.134981 
L 227.677585 93.086569 
L 227.855106 93.134981 
L 228.032627 93.102706 
L 228.823404 93.005881 
L 228.968648 93.005881 
L 229.307553 92.909056 
L 229.517351 92.844506 
L 229.694872 92.876781 
L 229.840116 92.860644 
L 229.969223 92.844506 
L 231.050489 92.747682 
L 231.340978 92.602444 
L 231.550776 92.521757 
L 231.776712 92.31197 
L 232.164031 91.779433 
L 232.180169 91.182347 
L 232.244722 68.29941 
L 232.309276 79.014692 
L 232.470659 92.812231 
L 232.535212 92.941331 
L 232.599765 92.909056 
L 232.761148 92.876781 
L 233.11619 93.377043 
L 233.632616 94.167779 
L 234.600914 94.99079 
L 234.842988 95.087615 
L 235.068924 95.168303 
L 235.407828 95.265127 
L 235.617626 95.329677 
L 236.24702 95.426502 
L 236.472956 95.507189 
L 237.634913 95.410365 
L 237.876987 95.31354 
L 238.538658 95.216715 
L 238.70004 95.200577 
L 239.200328 95.11989 
L 239.345572 95.05534 
L 240.491391 94.958515 
L 240.668913 94.92624 
L 241.63721 94.829416 
L 241.83087 94.781003 
L 242.169774 94.764866 
L 242.363433 97.120937 
L 242.799167 99.073571 
L 243.25104 100.429119 
L 244.622795 102.930427 
L 245.155359 103.608201 
L 245.413571 103.882538 
L 246.430284 104.753961 
L 246.591667 104.850786 
L 247.059677 105.173536 
L 247.269475 105.27036 
L 247.576103 105.431735 
L 247.753624 105.52856 
L 248.027975 105.65766 
L 248.253911 105.754485 
L 248.479847 105.835172 
L 248.754198 105.931997 
L 248.947858 105.980409 
L 249.270624 106.077234 
L 249.448145 106.109509 
L 249.964571 106.206334 
L 250.142092 106.238609 
L 251.255634 106.335434 
L 251.400879 106.335434 
L 254.176666 106.238609 
L 254.354187 106.206334 
L 255.855048 106.109509 
L 256.03257 106.077234 
L 257.113835 105.980409 
L 257.307495 105.931997 
L 258.259654 105.85131 
L 258.372622 104.915336 
L 266.377217 104.979886 
L 266.570876 101.365092 
L 267.151855 97.120937 
L 268.281536 92.037633 
L 268.765684 90.827322 
L 268.846376 90.423885 
L 268.910929 68.23486 
L 268.991621 82.371287 
L 269.153004 92.957469 
L 269.18528 93.005881 
L 269.249833 92.909056 
L 269.459631 92.844506 
L 269.733982 92.973606 
L 270.024471 93.070431 
L 270.201993 93.102706 
L 271.799684 93.005881 
L 271.993343 92.957469 
L 272.12245 92.860644 
L 272.348386 92.779957 
L 272.638875 92.683132 
L 272.993918 92.473345 
L 274.30112 92.37652 
L 274.623886 92.199008 
L 275.333971 92.102183 
L 275.576045 92.005358 
L 275.737428 91.908533 
L 275.947226 91.843983 
L 276.205439 91.747158 
L 276.673449 91.424409 
L 276.786417 91.343721 
L 277.286704 90.343198 
L 277.351257 67.734599 
L 277.431949 79.966803 
L 277.593332 92.360382 
L 277.770853 92.618582 
L 277.867683 92.699269 
L 278.238864 93.199531 
L 278.981225 93.796617 
L 279.320129 93.893442 
L 279.497651 93.925717 
L 280.014076 93.828892 
L 280.288427 93.699792 
L 281.611767 93.602968 
L 281.77315 93.58683 
L 282.499374 93.490005 
L 282.660757 93.45773 
L 282.82214 93.473868 
L 283.499948 93.377043 
L 283.677469 93.344768 
L 284.129341 93.247943 
L 284.355278 93.167256 
L 284.61349 93.070431 
L 284.80715 93.022019 
L 285.081501 92.925194 
L 285.339714 92.812231 
L 285.646341 92.715407 
L 285.856139 92.650857 
L 286.259596 92.554032 
L 286.420979 92.537894 
L 286.566224 92.537894 
L 287.792734 92.44107 
L 288.099362 92.263557 
L 288.244607 92.263557 
L 288.744894 92.166733 
L 288.97083 92.069908 
L 289.180628 92.134458 
L 289.793883 92.037633 
L 289.955266 92.021495 
L 290.100511 91.92467 
L 290.423277 91.747158 
L 290.875149 91.650333 
L 291.084947 91.585784 
L 291.278606 91.488959 
L 292.085521 90.536848 
L 292.101659 90.133411 
L 292.166212 67.799149 
L 292.230766 77.643007 
L 292.408287 92.24742 
L 292.553532 92.37652 
L 292.747191 92.473345 
L 293.683212 93.264081 
L 293.89301 93.360906 
L 294.151223 93.473868 
L 294.861308 93.570693 
L 295.054967 93.619105 
L 295.748914 93.52228 
L 295.942574 93.473868 
L 296.265339 93.377043 
L 296.475137 93.312493 
L 296.620382 93.312493 
L 297.895307 93.215668 
L 298.137382 93.118843 
L 298.427871 93.022019 
L 298.637669 92.957469 
L 298.750637 92.925194 
L 299.073403 92.747682 
L 299.283201 92.650857 
L 299.444584 92.634719 
L 300.380605 92.537894 
L 300.558126 92.505619 
L 301.122966 92.408795 
L 301.300488 92.360382 
L 301.445732 92.360382 
L 303.0757 92.263557 
L 303.350051 92.134458 
L 303.753508 92.037633 
L 303.93103 92.005358 
L 304.027859 91.956945 
L 304.269934 91.860121 
L 304.770221 91.763296 
L 305.06071 91.618058 
L 305.173678 91.601921 
L 305.448029 91.472821 
L 305.641689 91.375996 
L 306.222668 90.64981 
L 306.351774 90.149548 
L 306.416327 67.879836 
L 306.497019 80.015216 
L 306.658402 92.166733 
L 306.739093 92.295832 
L 306.787508 92.263557 
L 307.013444 92.18287 
L 307.190965 92.215145 
L 307.303933 92.31197 
L 307.949465 92.812231 
L 308.078572 92.828369 
L 308.159263 92.925194 
L 308.465891 93.086569 
L 311.193262 92.989744 
L 311.467614 92.860644 
L 311.919486 92.763819 
L 312.097007 92.731544 
L 312.581156 92.634719 
L 312.758677 92.602444 
L 313.178273 92.505619 
L 313.371932 92.457207 
L 313.549454 92.489482 
L 313.936773 92.392657 
L 314.098156 92.37652 
L 314.598443 92.279695 
L 314.824379 92.199008 
L 315.179421 92.102183 
L 315.405358 92.021495 
L 316.099304 92.11832 
L 316.32524 92.328107 
L 316.486623 92.424932 
L 316.664145 92.473345 
L 316.825528 92.457207 
L 317.890655 92.360382 
L 318.261836 92.11832 
L 318.342527 92.102183 
L 318.358666 92.069908 
L 318.858953 91.714883 
L 319.052612 91.618058 
L 319.391516 91.424409 
L 319.520623 91.327584 
L 319.859527 90.45616 
L 319.891804 79.595641 
L 319.92408 68.089623 
L 319.988633 75.722648 
L 320.166155 91.779433 
L 320.246846 91.92467 
L 320.295261 91.876258 
L 320.521197 91.973083 
L 320.747133 92.05377 
L 320.956931 92.134458 
L 321.150591 92.295832 
L 321.328112 92.392657 
L 321.570186 92.489482 
L 322.070473 92.586307 
L 322.247995 92.618582 
L 322.683729 92.715407 
L 322.95808 92.844506 
L 325.830696 92.747682 
L 326.024356 92.699269 
L 326.395537 92.602444 
L 326.55692 92.521757 
L 326.815132 92.408795 
L 327.21859 92.31197 
L 327.363834 92.31197 
L 327.88026 92.215145 
L 328.041643 92.18287 
L 328.186887 92.18287 
L 328.461238 92.05377 
L 329.219738 91.956945 
L 329.477951 91.843983 
L 329.945962 91.747158 
L 330.042791 91.795571 
L 330.171898 91.779433 
L 330.381695 91.682608 
L 330.559217 91.650333 
L 330.688323 91.650333 
L 330.849706 91.569646 
L 330.930398 91.569646 
L 331.124057 95.265127 
L 331.495238 97.879398 
L 332.076216 100.235469 
L 332.80244 102.075141 
L 333.56094 103.366139 
L 333.641631 103.462964 
L 333.93212 103.80185 
L 334.02895 103.898675 
L 335.077939 104.802374 
L 335.239322 104.899199 
L 335.836439 105.351048 
L 335.981684 105.447873 
L 336.272173 105.59311 
L 336.465833 105.689935 
L 336.659492 105.738347 
L 336.917705 105.835172 
L 337.192056 105.964272 
L 337.514822 106.061097 
L 337.72462 106.125647 
L 337.837588 106.157921 
L 338.031247 106.206334 
L 338.48312 106.303159 
L 338.660641 106.335434 
L 341.065247 106.238609 
L 341.275045 106.174059 
L 343.11481 106.077234 
L 343.276193 106.061097 
L 345.567831 105.964272 
L 345.729214 105.948134 
L 346.439299 105.85131 
L 346.600682 105.835172 
L 355.13784 105.754485 
L 355.3315 98.670134 
L 355.79951 91.488959 
L 355.89634 88.826276 
L 355.944755 67.331162 
L 356.009308 78.078719 
L 356.154553 91.166209 
L 356.170691 91.133934 
L 356.364351 89.923624 
L 356.800085 87.745065 
L 356.864638 67.815286 
L 356.945329 77.852794 
L 357.122851 89.923624 
L 357.284234 90.214098 
L 357.51017 90.294786 
L 358.091148 90.197961 
L 358.881925 89.261987 
L 359.043308 88.713313 
L 359.172414 87.58369 
L 359.236967 67.169787 
L 359.30152 75.270799 
L 359.49518 89.972036 
L 359.672701 90.440023 
L 359.963191 90.58526 
L 360.35051 90.504573 
L 360.528031 90.391611 
L 360.786244 90.294786 
L 361.044456 90.181823 
L 361.367222 90.084999 
L 361.689988 89.907486 
L 361.915924 89.810662 
L 362.254828 89.617012 
L 362.496903 89.520187 
L 363.319956 88.842413 
L 363.400647 88.745588 
L 363.545892 88.293739 
L 363.56203 87.987127 
L 363.626584 66.96 
L 363.707275 77.223433 
L 363.884796 89.762249 
L 364.046179 90.181823 
L 364.578743 90.278648 
L 364.723988 90.278648 
L 365.062892 90.197961 
L 365.27269 90.020449 
L 365.417934 90.020449 
L 365.692285 89.923624 
L 366.305541 89.455637 
L 366.515338 89.358812 
L 366.918796 89.100613 
L 367.322253 89.003788 
L 367.91937 88.277602 
L 367.983923 87.922577 
L 368.0162 80.208865 
L 368.064615 67.185925 
L 368.129168 74.899637 
L 368.338966 89.600874 
L 368.516487 89.972036 
L 368.726285 90.036586 
L 369.791412 89.939761 
L 370.081902 89.794524 
L 370.19487 89.697699 
L 370.743572 89.294262 
L 371.017923 89.197438 
L 371.308412 89.0522 
L 371.437518 89.036063 
L 372.244433 88.939238 
L 372.873827 88.196914 
L 372.922242 87.680515 
L 372.986795 67.0891 
L 373.067486 75.867885 
L 373.261146 89.229713 
L 373.454805 89.584737 
L 373.745295 89.729974 
L 373.955092 89.665424 
L 374.116475 89.681562 
L 374.229444 89.584737 
L 374.503795 89.455637 
L 374.92339 89.358812 
L 375.100911 89.326537 
L 375.246156 89.342675 
L 375.794858 88.939238 
L 376.101486 88.842413 
L 376.311284 88.777863 
L 376.456528 88.681038 
L 376.763156 88.519664 
L 376.924539 88.438976 
L 377.182752 87.728928 
L 377.215028 81.871025 
L 377.263443 67.2182 
L 377.327996 73.818426 
L 377.537794 88.842413 
L 377.683039 89.261987 
L 377.699177 89.24585 
L 377.989666 89.391087 
L 378.780443 89.294262 
L 379.006379 89.197438 
L 379.151624 89.197438 
L 379.264592 89.100613 
L 379.425975 89.003788 
L 379.877847 88.906963 
L 380.394272 88.535801 
L 380.926836 88.438976 
L 381.410985 87.825752 
L 381.540091 87.260941 
L 381.572368 80.951189 
L 381.620783 67.15365 
L 381.685336 73.657051 
L 381.911272 89.0522 
L 382.104932 89.423362 
L 382.379283 89.520187 
L 382.58908 89.584737 
L 382.863431 89.487912 
L 383.057091 89.4395 
L 383.767176 89.342675 
L 384.025389 89.213575 
L 384.154495 89.213575 
L 384.412708 89.100613 
L 384.880718 89.003788 
L 385.042101 88.971513 
L 385.171208 88.971513 
L 385.348729 88.939238 
L 385.445559 88.906963 
L 385.62308 88.794001 
L 386.107229 88.180777 
L 386.317027 87.228666 
L 386.38158 67.492537 
L 386.47841 77.062058 
L 386.672069 88.777863 
L 386.833452 89.084475 
L 386.84959 89.068338 
L 386.914144 89.149025 
L 387.04325 89.229713 
L 387.188495 89.278125 
L 387.866303 89.1813 
L 387.979271 89.165163 
L 387.995409 89.197438 
L 388.140654 89.294262 
L 388.156792 89.278125 
L 388.334314 89.24585 
L 388.818462 89.149025 
L 389.108952 89.003788 
L 389.254196 88.906963 
L 390.077249 87.97099 
L 390.319324 87.018879 
L 390.3516 79.159929 
L 390.400015 67.411849 
L 390.464568 73.915251 
L 390.674366 88.422839 
L 390.835749 88.826276 
L 390.964856 88.923101 
L 391.158515 89.003788 
L 391.287622 88.971513 
L 391.917015 88.874688 
L 392.207504 88.729451 
L 392.401164 88.632626 
L 393.676089 87.212528 
L 393.724504 86.825229 
L 393.756781 80.741402 
L 393.805196 67.524812 
L 393.869749 72.785628 
L 394.111823 88.293739 
L 394.305483 88.794001 
L 394.531419 89.003788 
L 394.854185 89.100613 
L 395.031706 89.132888 
L 395.209227 89.036063 
L 395.499717 88.890826 
L 395.806344 88.794001 
L 396.03228 88.697176 
L 396.096833 88.697176 
L 396.12911 88.648763 
L 396.69395 88.229189 
L 396.823057 88.132364 
L 397.032855 87.954852 
L 397.242652 87.874165 
L 397.517003 87.115704 
L 397.565418 85.969943 
L 397.629972 67.573224 
L 397.710663 74.593025 
L 397.936599 88.180777 
L 398.130259 88.681038 
L 398.243227 88.777863 
L 398.533716 88.923101 
L 398.646684 88.955375 
L 398.791929 88.955375 
L 399.324493 88.858551 
L 399.566567 88.761726 
L 400.131407 88.664901 
L 401.309503 87.341628 
L 401.406333 86.728404 
L 401.487024 67.573224 
L 401.583854 76.884546 
L 401.777513 87.890302 
L 401.955035 88.406701 
L 402.245524 88.761726 
L 403.020162 88.664901 
L 403.181545 88.584214 
L 403.407481 88.487389 
L 403.568864 88.503526 
L 404.633992 88.406701 
L 404.827651 88.358289 
L 405.198832 88.261464 
L 405.50546 88.083952 
L 405.634566 88.067814 
L 405.731396 87.987127 
L 406.263959 86.696129 
L 406.296236 86.034493 
L 406.376928 67.783011 
L 406.441481 74.076626 
L 406.667417 88.03554 
L 406.861076 88.616489 
L 407.312949 88.923101 
L 408.491044 88.826276 
L 409.00747 88.455114 
L 409.281821 88.358289 
L 409.943491 87.825752 
L 410.104874 87.84189 
L 410.540608 87.745065 
L 410.927927 87.244803 
L 411.08931 86.389517 
L 411.121586 82.435836 
L 411.186139 67.783011 
L 411.250693 73.802288 
L 411.476629 88.003265 
L 411.65415 88.568076 
L 411.912363 88.858551 
L 413.058182 88.761726 
L 413.235703 88.729451 
L 413.429363 88.648763 
L 413.558469 88.616489 
L 413.703714 88.632626 
L 414.284692 88.196914 
L 414.559043 88.100089 
L 415.188437 87.325491 
L 415.365958 86.776817 
L 415.398235 86.470205 
L 415.446649 72.721078 
L 415.478926 67.734599 
L 415.543479 73.043827 
L 415.785554 88.03554 
L 415.979213 88.551939 
L 416.221288 88.794001 
L 416.431085 88.858551 
L 416.882958 88.761726 
L 417.125032 88.664901 
L 417.399383 88.568076 
L 417.931947 88.180777 
L 418.238574 88.083952 
L 418.593617 87.874165 
L 418.706585 87.77734 
L 419.174596 87.164116 
L 419.31984 86.663854 
L 419.352117 86.131318 
L 419.432808 67.766874 
L 419.5135 74.899637 
L 419.771713 91.98922 
L 420.013787 95.991314 
L 420.449521 99.234946 
L 420.998223 101.413504 
L 421.546925 102.72064 
L 422.224733 103.834125 
L 424.145191 105.609247 
L 424.33885 105.706072 
L 424.677754 105.899722 
L 424.887552 105.996547 
L 425.178041 106.141784 
L 425.420116 106.238609 
L 425.646052 106.319296 
L 426.049509 106.416121 
L 426.259307 106.480671 
L 426.598211 106.577496 
L 426.775733 106.609771 
L 427.243743 106.706596 
L 427.437403 106.755008 
L 433.795891 106.658183 
L 433.941136 106.642046 
L 434.102519 106.658183 
L 435.635657 106.561358 
L 435.780901 106.561358 
L 435.780901 106.561358 
" style="fill:none;stroke:#1f77b4;stroke-linecap:square;stroke-width:1.5;"/>
   </g>
   <g id="line2d_12">
    <path clip-path="url(#pb3c9daa597)" d="M 80.754545 118.325576 
L 83.982204 117.122573 
L 84.660013 116.871396 
L 87.887672 115.668393 
L 88.56548 115.417216 
L 91.793139 114.214213 
L 92.470948 113.963036 
L 95.698607 112.760033 
L 96.376415 112.508856 
L 99.604074 111.305853 
L 100.281883 111.054676 
L 103.509542 109.851673 
L 104.18735 109.600496 
L 107.415009 108.397493 
L 108.092818 108.146316 
L 111.320477 106.943313 
L 111.998285 106.692136 
L 115.225944 105.489133 
L 115.903752 105.237956 
L 119.131411 104.034953 
L 119.80922 103.783776 
L 123.036879 102.580773 
L 123.714687 102.329597 
L 126.942346 101.126593 
L 127.620155 100.875417 
L 130.847814 99.672413 
L 131.525622 99.421237 
L 134.753281 98.218233 
L 135.43109 97.967057 
L 138.658749 96.764053 
L 139.336557 96.512877 
L 142.564216 95.309873 
L 143.242024 95.058697 
L 146.469683 93.855693 
L 147.147492 93.604517 
L 150.375151 92.401513 
L 151.052959 92.150337 
L 154.280618 90.947333 
L 154.958427 90.696157 
L 158.186086 89.493154 
L 158.863894 89.241977 
L 162.091553 88.038974 
L 162.769362 87.787797 
L 165.997021 86.584794 
L 166.674829 86.333617 
L 169.515169 85.276032 
L 169.531307 105.105758 
L 169.628137 105.016524 
L 170.322084 104.464597 
L 171.693839 103.750727 
L 172.72669 103.446671 
L 174.356658 103.225239 
L 177.697285 103.175665 
L 178.843104 91.657899 
L 178.87538 90.792001 
L 178.988348 108.410713 
L 179.294976 108.410713 
L 180.118029 132.579844 
L 180.95722 150.952086 
L 181.796412 164.568498 
L 182.603326 174.288369 
L 183.442518 181.754262 
L 184.313986 187.362769 
L 185.040209 190.776787 
L 185.911677 193.724806 
L 186.767007 195.694559 
L 187.525506 196.861208 
L 188.267868 197.598213 
L 188.897262 197.974978 
L 189.704176 198.1898 
L 190.946825 198.080736 
L 191.721463 197.80973 
L 192.770452 197.261108 
L 194.190622 196.259707 
L 196.304739 194.385797 
L 199.467845 190.988304 
L 203.454004 185.915199 
L 207.359471 180.124919 
L 210.87762 174.149561 
L 214.040725 168.088275 
L 216.897204 161.987329 
L 219.495469 155.863248 
L 221.916213 149.62019 
L 224.12716 143.4234 
L 228.419946 129.883002 
L 231.599191 118.41481 
L 234.665467 106.037755 
L 236.731168 96.664905 
L 237.215317 93.505368 
L 237.392839 90.917589 
L 237.408977 90.415236 
L 237.521945 108.410713 
L 237.812434 108.410713 
L 237.941541 112.793082 
L 238.780732 138.591557 
L 239.619923 157.849526 
L 240.459115 172.202943 
L 241.314444 183.056414 
L 242.137497 190.803227 
L 242.331157 193.222453 
L 243.34787 208.474818 
L 244.493688 222.246563 
L 245.720199 234.355916 
L 247.269475 247.314643 
L 249.415868 263.155289 
L 256.516718 314.844777 
L 258.291931 329.270903 
L 258.404899 105.016524 
L 259.098846 104.464597 
L 260.470601 103.750727 
L 261.503452 103.446671 
L 263.133419 103.225239 
L 266.457908 103.324388 
L 267.280961 90.398711 
L 267.393929 108.410713 
L 267.684419 108.410713 
L 267.813525 111.861085 
L 268.62044 131.11575 
L 269.411216 144.778431 
L 270.185854 154.333055 
L 270.863663 160.285278 
L 271.589886 164.697392 
L 272.203141 167.159583 
L 272.735705 168.534444 
L 273.300545 169.344158 
L 273.768556 169.588724 
L 274.268843 169.482966 
L 274.607747 169.225179 
L 274.995066 168.769096 
L 275.656736 167.632191 
L 276.221577 166.363089 
L 277.125321 163.851323 
L 278.287279 159.925037 
L 279.772002 154.035609 
L 281.708597 145.221295 
L 284.113203 132.850851 
L 285.920692 122.631932 
L 288.615788 105.965046 
L 290.229617 94.658797 
L 290.471691 91.489346 
L 290.503968 90.590398 
L 290.616936 108.410713 
L 290.923564 108.410713 
L 291.730478 132.371632 
L 292.537393 149.944075 
L 293.312031 162.231896 
L 294.08667 171.079259 
L 294.829031 177.061226 
L 295.539116 181.000732 
L 296.16851 183.337335 
L 296.781765 184.76838 
L 297.330467 185.465725 
L 297.782339 185.693767 
L 298.185797 185.667328 
L 298.734499 185.330222 
L 299.460722 184.431275 
L 300.041701 183.406739 
L 301.058413 181.076746 
L 302.397892 177.196729 
L 304.173104 171.003245 
L 305.690104 164.988228 
L 307.465316 157.257939 
L 310.64456 141.757703 
L 313.743113 124.657869 
L 315.711985 112.726983 
L 318.148868 96.549231 
L 318.552325 92.702264 
L 318.649155 90.686242 
L 318.762123 108.410713 
L 319.068751 108.410713 
L 319.875665 132.381547 
L 320.68258 149.9606 
L 321.457218 162.25503 
L 322.231856 171.105698 
L 322.990356 177.200034 
L 323.684303 181.037086 
L 324.313696 183.373689 
L 324.84626 184.659316 
L 325.378824 185.419456 
L 325.79842 185.697072 
L 326.185739 185.740037 
L 326.508505 185.637583 
L 327.105622 185.145145 
L 327.605909 184.477544 
L 328.186887 183.453008 
L 329.2036 181.12632 
L 330.543078 177.246304 
L 331.011089 175.719415 
L 331.043366 176.06313 
L 332.124631 186.394418 
L 333.302727 195.575581 
L 334.609929 204.155243 
L 336.288312 213.775965 
L 338.612226 226.007601 
L 342.388587 245.919952 
L 345.535555 263.941868 
L 347.068693 273.400648 
L 347.181661 105.016524 
L 347.875607 104.464597 
L 349.247363 103.750727 
L 350.280213 103.446671 
L 351.910181 103.225239 
L 355.23467 103.324388 
L 355.654266 90.81844 
L 355.767234 108.410713 
L 356.073861 108.410713 
L 356.703255 116.2071 
L 357.251957 120.54981 
L 357.719968 122.7443 
L 358.107287 123.649858 
L 358.381638 123.85146 
L 358.623712 123.752311 
L 358.865786 123.415206 
L 359.204691 122.569137 
L 359.656563 120.837341 
L 360.318233 117.211806 
L 361.189701 110.793585 
L 362.254828 100.921686 
L 362.932637 92.930306 
L 363.029467 90.511079 
L 363.142435 108.410713 
L 363.432924 108.410713 
L 363.56203 111.880915 
L 364.272115 128.613899 
L 364.933785 139.464065 
L 365.563179 146.378029 
L 366.128019 150.274571 
L 366.59603 152.118735 
L 366.967211 152.81608 
L 367.241562 152.941669 
L 367.45136 152.83591 
L 367.709572 152.48228 
L 368.161445 151.315631 
L 368.661732 149.309524 
L 369.323402 145.664159 
L 370.081902 140.326658 
L 371.130891 131.294217 
L 372.438093 117.928981 
L 373.874401 101.146423 
L 374.519933 91.879331 
L 374.568348 90.259903 
L 374.681316 108.410713 
L 374.971805 108.410713 
L 375.100911 111.689228 
L 375.810996 127.420811 
L 376.472667 137.507532 
L 377.085922 143.691101 
L 377.634624 147.108424 
L 378.086496 148.661753 
L 378.4254 149.177326 
L 378.699751 149.230205 
L 378.957964 149.008773 
L 379.232315 148.509725 
L 379.619634 147.376125 
L 380.119921 145.254345 
L 380.781591 141.466867 
L 381.55623 135.841835 
L 382.605219 126.571437 
L 383.912421 112.928585 
L 385.413282 94.767861 
L 385.606942 90.81844 
L 385.71991 108.410713 
L 386.026537 108.410713 
L 386.752761 125.563426 
L 387.414431 136.370627 
L 388.027686 143.099514 
L 388.592526 147.005971 
L 389.060537 148.850135 
L 389.431718 149.540871 
L 389.738345 149.653239 
L 390.012696 149.435112 
L 390.367739 148.747682 
L 390.771196 147.468664 
L 391.287622 145.148586 
L 392.06226 140.432416 
L 392.869174 134.225712 
L 393.966579 124.089417 
L 395.37061 108.893236 
L 396.613259 93.161653 
L 396.710089 90.755646 
L 396.823057 108.410713 
L 397.129684 108.410713 
L 397.839769 125.219711 
L 398.501439 136.109536 
L 399.130833 143.03672 
L 399.663397 146.761404 
L 400.131407 148.678278 
L 400.502588 149.418587 
L 400.793077 149.570615 
L 401.05129 149.418587 
L 401.406333 148.807171 
L 401.793652 147.663657 
L 402.37463 145.122147 
L 403.165407 140.316743 
L 404.08529 133.141687 
L 405.231109 122.324571 
L 406.667417 106.487229 
L 407.700268 93.240972 
L 407.813236 90.253293 
L 407.926204 108.410713 
L 408.216693 108.410713 
L 408.3458 111.702447 
L 409.055885 127.50013 
L 409.733693 137.834722 
L 410.33081 143.859654 
L 410.863374 147.230707 
L 411.315246 148.843525 
L 411.686427 149.425197 
L 411.960778 149.471467 
L 412.202852 149.266559 
L 412.557895 148.582434 
L 413.042043 146.989446 
L 413.655299 144.021597 
L 414.349245 139.586348 
L 415.301405 131.975038 
L 416.4795 120.625824 
L 417.964223 103.962244 
L 418.819553 92.560151 
L 418.884106 90.81844 
L 418.997074 108.410713 
L 419.303702 108.410713 
L 419.997649 130.745595 
L 420.901393 168.210558 
L 421.853553 198.53682 
L 422.82185 222.47791 
L 423.87084 242.895919 
L 425.016658 260.726148 
L 426.307722 277.188126 
L 427.824722 293.607139 
L 430.21319 316.454289 
L 435.845455 369.36 
L 435.845455 369.36 
" style="fill:none;stroke:#ff0000;stroke-linecap:square;stroke-width:1.5;"/>
   </g>
   <g id="patch_3">
    <path d="M 63 384.48 
L 63 51.84 
" style="fill:none;stroke:#000000;stroke-linecap:square;stroke-linejoin:miter;stroke-width:0.8;"/>
   </g>
   <g id="patch_4">
    <path d="M 453.6 384.48 
L 453.6 51.84 
" style="fill:none;stroke:#000000;stroke-linecap:square;stroke-linejoin:miter;stroke-width:0.8;"/>
   </g>
   <g id="patch_5">
    <path d="M 63 384.48 
L 453.6 384.48 
" style="fill:none;stroke:#000000;stroke-linecap:square;stroke-linejoin:miter;stroke-width:0.8;"/>
   </g>
   <g id="patch_6">
    <path d="M 63 51.84 
L 453.6 51.84 
" style="fill:none;stroke:#000000;stroke-linecap:square;stroke-linejoin:miter;stroke-width:0.8;"/>
   </g>
   <g id="legend_1">
    <g id="patch_7">
     <path d="M 70 89.19625 
L 133.139062 89.19625 
Q 135.139062 89.19625 135.139062 87.19625 
L 135.139062 58.84 
Q 135.139062 56.84 133.139062 56.84 
L 70 56.84 
Q 68 56.84 68 58.84 
L 68 87.19625 
Q 68 89.19625 70 89.19625 
z
" style="fill:#ffffff;opacity:0.8;stroke:#cccccc;stroke-linejoin:miter;"/>
    </g>
    <g id="line2d_13">
     <path d="M 72 64.938437 
L 92 64.938437 
" style="fill:none;stroke:#1f77b4;stroke-linecap:square;stroke-width:1.5;"/>
    </g>
    <g id="line2d_14"/>
    <g id="text_13">
     <!-- target -->
     <defs>
      <path d="M 41.109375 46.296875 
Q 39.59375 47.171875 37.8125 47.578125 
Q 36.03125 48 33.890625 48 
Q 26.265625 48 22.1875 43.046875 
Q 18.109375 38.09375 18.109375 28.8125 
L 18.109375 0 
L 9.078125 0 
L 9.078125 54.6875 
L 18.109375 54.6875 
L 18.109375 46.1875 
Q 20.953125 51.171875 25.484375 53.578125 
Q 30.03125 56 36.53125 56 
Q 37.453125 56 38.578125 55.875 
Q 39.703125 55.765625 41.0625 55.515625 
z
" id="DejaVuSans-114"/>
     </defs>
     <g transform="translate(100 68.438437)scale(0.1 -0.1)">
      <use xlink:href="#DejaVuSans-116"/>
      <use x="39.208984" xlink:href="#DejaVuSans-97"/>
      <use x="100.488281" xlink:href="#DejaVuSans-114"/>
      <use x="141.585938" xlink:href="#DejaVuSans-103"/>
      <use x="205.0625" xlink:href="#DejaVuSans-101"/>
      <use x="266.585938" xlink:href="#DejaVuSans-116"/>
     </g>
    </g>
    <g id="line2d_15">
     <path d="M 72 79.616562 
L 92 79.616562 
" style="fill:none;stroke:#ff0000;stroke-linecap:square;stroke-width:1.5;"/>
    </g>
    <g id="line2d_16"/>
    <g id="text_14">
     <!-- model -->
     <defs>
      <path d="M 45.40625 46.390625 
L 45.40625 75.984375 
L 54.390625 75.984375 
L 54.390625 0 
L 45.40625 0 
L 45.40625 8.203125 
Q 42.578125 3.328125 38.25 0.953125 
Q 33.9375 -1.421875 27.875 -1.421875 
Q 17.96875 -1.421875 11.734375 6.484375 
Q 5.515625 14.40625 5.515625 27.296875 
Q 5.515625 40.1875 11.734375 48.09375 
Q 17.96875 56 27.875 56 
Q 33.9375 56 38.25 53.625 
Q 42.578125 51.265625 45.40625 46.390625 
z
M 14.796875 27.296875 
Q 14.796875 17.390625 18.875 11.75 
Q 22.953125 6.109375 30.078125 6.109375 
Q 37.203125 6.109375 41.296875 11.75 
Q 45.40625 17.390625 45.40625 27.296875 
Q 45.40625 37.203125 41.296875 42.84375 
Q 37.203125 48.484375 30.078125 48.484375 
Q 22.953125 48.484375 18.875 42.84375 
Q 14.796875 37.203125 14.796875 27.296875 
z
" id="DejaVuSans-100"/>
     </defs>
     <g transform="translate(100 83.116562)scale(0.1 -0.1)">
      <use xlink:href="#DejaVuSans-109"/>
      <use x="97.412109" xlink:href="#DejaVuSans-111"/>
      <use x="158.59375" xlink:href="#DejaVuSans-100"/>
      <use x="222.070312" xlink:href="#DejaVuSans-101"/>
      <use x="283.59375" xlink:href="#DejaVuSans-108"/>
     </g>
    </g>
   </g>
  </g>
 </g>
 <defs>
  <clipPath id="pb3c9daa597">
   <rect height="332.64" width="390.6" x="63" y="51.84"/>
  </clipPath>
 </defs>
</svg>
