<?xml version="1.0" encoding="utf-8" standalone="no"?>
<!DOCTYPE svg PUBLIC "-//W3C//DTD SVG 1.1//EN"
  "http://www.w3.org/Graphics/SVG/1.1/DTD/svg11.dtd">
<!-- Created with matplotlib (https://matplotlib.org/) -->
<svg height="432pt" version="1.1" viewBox="0 0 504 432" width="504pt" xmlns="http://www.w3.org/2000/svg" xmlns:xlink="http://www.w3.org/1999/xlink">
 <defs>
  <style type="text/css">
*{stroke-linecap:butt;stroke-linejoin:round;}
  </style>
 </defs>
 <g id="figure_1">
  <g id="patch_1">
   <path d="M 0 432 
L 504 432 
L 504 0 
L 0 0 
z
" style="fill:#ffffff;"/>
  </g>
  <g id="axes_1">
   <g id="patch_2">
    <path d="M 63 384.48 
L 453.6 384.48 
L 453.6 51.84 
L 63 51.84 
z
" style="fill:#ffffff;"/>
   </g>
   <g id="matplotlib.axis_1">
    <g id="xtick_1">
     <g id="line2d_1">
      <defs>
       <path d="M 0 0 
L 0 3.5 
" id="m4e8c682148" style="stroke:#000000;stroke-width:0.8;"/>
      </defs>
      <g>
       <use style="stroke:#000000;stroke-width:0.8;" x="80.754545" xlink:href="#m4e8c682148" y="384.48"/>
      </g>
     </g>
     <g id="text_1">
      <!-- 0 -->
      <defs>
       <path d="M 31.78125 66.40625 
Q 24.171875 66.40625 20.328125 58.90625 
Q 16.5 51.421875 16.5 36.375 
Q 16.5 21.390625 20.328125 13.890625 
Q 24.171875 6.390625 31.78125 6.390625 
Q 39.453125 6.390625 43.28125 13.890625 
Q 47.125 21.390625 47.125 36.375 
Q 47.125 51.421875 43.28125 58.90625 
Q 39.453125 66.40625 31.78125 66.40625 
z
M 31.78125 74.21875 
Q 44.046875 74.21875 50.515625 64.515625 
Q 56.984375 54.828125 56.984375 36.375 
Q 56.984375 17.96875 50.515625 8.265625 
Q 44.046875 -1.421875 31.78125 -1.421875 
Q 19.53125 -1.421875 13.0625 8.265625 
Q 6.59375 17.96875 6.59375 36.375 
Q 6.59375 54.828125 13.0625 64.515625 
Q 19.53125 74.21875 31.78125 74.21875 
z
" id="DejaVuSans-48"/>
      </defs>
      <g transform="translate(77.573295 399.078438)scale(0.1 -0.1)">
       <use xlink:href="#DejaVuSans-48"/>
      </g>
     </g>
    </g>
    <g id="xtick_2">
     <g id="line2d_2">
      <g>
       <use style="stroke:#000000;stroke-width:0.8;" x="151.763044" xlink:href="#m4e8c682148" y="384.48"/>
      </g>
     </g>
     <g id="text_2">
      <!-- 880 -->
      <defs>
       <path d="M 31.78125 34.625 
Q 24.75 34.625 20.71875 30.859375 
Q 16.703125 27.09375 16.703125 20.515625 
Q 16.703125 13.921875 20.71875 10.15625 
Q 24.75 6.390625 31.78125 6.390625 
Q 38.8125 6.390625 42.859375 10.171875 
Q 46.921875 13.96875 46.921875 20.515625 
Q 46.921875 27.09375 42.890625 30.859375 
Q 38.875 34.625 31.78125 34.625 
z
M 21.921875 38.8125 
Q 15.578125 40.375 12.03125 44.71875 
Q 8.5 49.078125 8.5 55.328125 
Q 8.5 64.0625 14.71875 69.140625 
Q 20.953125 74.21875 31.78125 74.21875 
Q 42.671875 74.21875 48.875 69.140625 
Q 55.078125 64.0625 55.078125 55.328125 
Q 55.078125 49.078125 51.53125 44.71875 
Q 48 40.375 41.703125 38.8125 
Q 48.828125 37.15625 52.796875 32.3125 
Q 56.78125 27.484375 56.78125 20.515625 
Q 56.78125 9.90625 50.3125 4.234375 
Q 43.84375 -1.421875 31.78125 -1.421875 
Q 19.734375 -1.421875 13.25 4.234375 
Q 6.78125 9.90625 6.78125 20.515625 
Q 6.78125 27.484375 10.78125 32.3125 
Q 14.796875 37.15625 21.921875 38.8125 
z
M 18.3125 54.390625 
Q 18.3125 48.734375 21.84375 45.5625 
Q 25.390625 42.390625 31.78125 42.390625 
Q 38.140625 42.390625 41.71875 45.5625 
Q 45.3125 48.734375 45.3125 54.390625 
Q 45.3125 60.0625 41.71875 63.234375 
Q 38.140625 66.40625 31.78125 66.40625 
Q 25.390625 66.40625 21.84375 63.234375 
Q 18.3125 60.0625 18.3125 54.390625 
z
" id="DejaVuSans-56"/>
      </defs>
      <g transform="translate(142.219294 399.078438)scale(0.1 -0.1)">
       <use xlink:href="#DejaVuSans-56"/>
       <use x="63.623047" xlink:href="#DejaVuSans-56"/>
       <use x="127.246094" xlink:href="#DejaVuSans-48"/>
      </g>
     </g>
    </g>
    <g id="xtick_3">
     <g id="line2d_3">
      <g>
       <use style="stroke:#000000;stroke-width:0.8;" x="222.771543" xlink:href="#m4e8c682148" y="384.48"/>
      </g>
     </g>
     <g id="text_3">
      <!-- 1760 -->
      <defs>
       <path d="M 12.40625 8.296875 
L 28.515625 8.296875 
L 28.515625 63.921875 
L 10.984375 60.40625 
L 10.984375 69.390625 
L 28.421875 72.90625 
L 38.28125 72.90625 
L 38.28125 8.296875 
L 54.390625 8.296875 
L 54.390625 0 
L 12.40625 0 
z
" id="DejaVuSans-49"/>
       <path d="M 8.203125 72.90625 
L 55.078125 72.90625 
L 55.078125 68.703125 
L 28.609375 0 
L 18.3125 0 
L 43.21875 64.59375 
L 8.203125 64.59375 
z
" id="DejaVuSans-55"/>
       <path d="M 33.015625 40.375 
Q 26.375 40.375 22.484375 35.828125 
Q 18.609375 31.296875 18.609375 23.390625 
Q 18.609375 15.53125 22.484375 10.953125 
Q 26.375 6.390625 33.015625 6.390625 
Q 39.65625 6.390625 43.53125 10.953125 
Q 47.40625 15.53125 47.40625 23.390625 
Q 47.40625 31.296875 43.53125 35.828125 
Q 39.65625 40.375 33.015625 40.375 
z
M 52.59375 71.296875 
L 52.59375 62.3125 
Q 48.875 64.0625 45.09375 64.984375 
Q 41.3125 65.921875 37.59375 65.921875 
Q 27.828125 65.921875 22.671875 59.328125 
Q 17.53125 52.734375 16.796875 39.40625 
Q 19.671875 43.65625 24.015625 45.921875 
Q 28.375 48.1875 33.59375 48.1875 
Q 44.578125 48.1875 50.953125 41.515625 
Q 57.328125 34.859375 57.328125 23.390625 
Q 57.328125 12.15625 50.6875 5.359375 
Q 44.046875 -1.421875 33.015625 -1.421875 
Q 20.359375 -1.421875 13.671875 8.265625 
Q 6.984375 17.96875 6.984375 36.375 
Q 6.984375 53.65625 15.1875 63.9375 
Q 23.390625 74.21875 37.203125 74.21875 
Q 40.921875 74.21875 44.703125 73.484375 
Q 48.484375 72.75 52.59375 71.296875 
z
" id="DejaVuSans-54"/>
      </defs>
      <g transform="translate(210.046543 399.078438)scale(0.1 -0.1)">
       <use xlink:href="#DejaVuSans-49"/>
       <use x="63.623047" xlink:href="#DejaVuSans-55"/>
       <use x="127.246094" xlink:href="#DejaVuSans-54"/>
       <use x="190.869141" xlink:href="#DejaVuSans-48"/>
      </g>
     </g>
    </g>
    <g id="xtick_4">
     <g id="line2d_4">
      <g>
       <use style="stroke:#000000;stroke-width:0.8;" x="293.780042" xlink:href="#m4e8c682148" y="384.48"/>
      </g>
     </g>
     <g id="text_4">
      <!-- 2640 -->
      <defs>
       <path d="M 19.1875 8.296875 
L 53.609375 8.296875 
L 53.609375 0 
L 7.328125 0 
L 7.328125 8.296875 
Q 12.9375 14.109375 22.625 23.890625 
Q 32.328125 33.6875 34.8125 36.53125 
Q 39.546875 41.84375 41.421875 45.53125 
Q 43.3125 49.21875 43.3125 52.78125 
Q 43.3125 58.59375 39.234375 62.25 
Q 35.15625 65.921875 28.609375 65.921875 
Q 23.96875 65.921875 18.8125 64.3125 
Q 13.671875 62.703125 7.8125 59.421875 
L 7.8125 69.390625 
Q 13.765625 71.78125 18.9375 73 
Q 24.125 74.21875 28.421875 74.21875 
Q 39.75 74.21875 46.484375 68.546875 
Q 53.21875 62.890625 53.21875 53.421875 
Q 53.21875 48.921875 51.53125 44.890625 
Q 49.859375 40.875 45.40625 35.40625 
Q 44.1875 33.984375 37.640625 27.21875 
Q 31.109375 20.453125 19.1875 8.296875 
z
" id="DejaVuSans-50"/>
       <path d="M 37.796875 64.3125 
L 12.890625 25.390625 
L 37.796875 25.390625 
z
M 35.203125 72.90625 
L 47.609375 72.90625 
L 47.609375 25.390625 
L 58.015625 25.390625 
L 58.015625 17.1875 
L 47.609375 17.1875 
L 47.609375 0 
L 37.796875 0 
L 37.796875 17.1875 
L 4.890625 17.1875 
L 4.890625 26.703125 
z
" id="DejaVuSans-52"/>
      </defs>
      <g transform="translate(281.055042 399.078438)scale(0.1 -0.1)">
       <use xlink:href="#DejaVuSans-50"/>
       <use x="63.623047" xlink:href="#DejaVuSans-54"/>
       <use x="127.246094" xlink:href="#DejaVuSans-52"/>
       <use x="190.869141" xlink:href="#DejaVuSans-48"/>
      </g>
     </g>
    </g>
    <g id="xtick_5">
     <g id="line2d_5">
      <g>
       <use style="stroke:#000000;stroke-width:0.8;" x="364.788541" xlink:href="#m4e8c682148" y="384.48"/>
      </g>
     </g>
     <g id="text_5">
      <!-- 3520 -->
      <defs>
       <path d="M 40.578125 39.3125 
Q 47.65625 37.796875 51.625 33 
Q 55.609375 28.21875 55.609375 21.1875 
Q 55.609375 10.40625 48.1875 4.484375 
Q 40.765625 -1.421875 27.09375 -1.421875 
Q 22.515625 -1.421875 17.65625 -0.515625 
Q 12.796875 0.390625 7.625 2.203125 
L 7.625 11.71875 
Q 11.71875 9.328125 16.59375 8.109375 
Q 21.484375 6.890625 26.8125 6.890625 
Q 36.078125 6.890625 40.9375 10.546875 
Q 45.796875 14.203125 45.796875 21.1875 
Q 45.796875 27.640625 41.28125 31.265625 
Q 36.765625 34.90625 28.71875 34.90625 
L 20.21875 34.90625 
L 20.21875 43.015625 
L 29.109375 43.015625 
Q 36.375 43.015625 40.234375 45.921875 
Q 44.09375 48.828125 44.09375 54.296875 
Q 44.09375 59.90625 40.109375 62.90625 
Q 36.140625 65.921875 28.71875 65.921875 
Q 24.65625 65.921875 20.015625 65.03125 
Q 15.375 64.15625 9.8125 62.3125 
L 9.8125 71.09375 
Q 15.4375 72.65625 20.34375 73.4375 
Q 25.25 74.21875 29.59375 74.21875 
Q 40.828125 74.21875 47.359375 69.109375 
Q 53.90625 64.015625 53.90625 55.328125 
Q 53.90625 49.265625 50.4375 45.09375 
Q 46.96875 40.921875 40.578125 39.3125 
z
" id="DejaVuSans-51"/>
       <path d="M 10.796875 72.90625 
L 49.515625 72.90625 
L 49.515625 64.59375 
L 19.828125 64.59375 
L 19.828125 46.734375 
Q 21.96875 47.46875 24.109375 47.828125 
Q 26.265625 48.1875 28.421875 48.1875 
Q 40.625 48.1875 47.75 41.5 
Q 54.890625 34.8125 54.890625 23.390625 
Q 54.890625 11.625 47.5625 5.09375 
Q 40.234375 -1.421875 26.90625 -1.421875 
Q 22.3125 -1.421875 17.546875 -0.640625 
Q 12.796875 0.140625 7.71875 1.703125 
L 7.71875 11.625 
Q 12.109375 9.234375 16.796875 8.0625 
Q 21.484375 6.890625 26.703125 6.890625 
Q 35.15625 6.890625 40.078125 11.328125 
Q 45.015625 15.765625 45.015625 23.390625 
Q 45.015625 31 40.078125 35.4375 
Q 35.15625 39.890625 26.703125 39.890625 
Q 22.75 39.890625 18.8125 39.015625 
Q 14.890625 38.140625 10.796875 36.28125 
z
" id="DejaVuSans-53"/>
      </defs>
      <g transform="translate(352.063541 399.078438)scale(0.1 -0.1)">
       <use xlink:href="#DejaVuSans-51"/>
       <use x="63.623047" xlink:href="#DejaVuSans-53"/>
       <use x="127.246094" xlink:href="#DejaVuSans-50"/>
       <use x="190.869141" xlink:href="#DejaVuSans-48"/>
      </g>
     </g>
    </g>
    <g id="text_6">
     <!-- time [ms] -->
     <defs>
      <path d="M 18.3125 70.21875 
L 18.3125 54.6875 
L 36.8125 54.6875 
L 36.8125 47.703125 
L 18.3125 47.703125 
L 18.3125 18.015625 
Q 18.3125 11.328125 20.140625 9.421875 
Q 21.96875 7.515625 27.59375 7.515625 
L 36.8125 7.515625 
L 36.8125 0 
L 27.59375 0 
Q 17.1875 0 13.234375 3.875 
Q 9.28125 7.765625 9.28125 18.015625 
L 9.28125 47.703125 
L 2.6875 47.703125 
L 2.6875 54.6875 
L 9.28125 54.6875 
L 9.28125 70.21875 
z
" id="DejaVuSans-116"/>
      <path d="M 9.421875 54.6875 
L 18.40625 54.6875 
L 18.40625 0 
L 9.421875 0 
z
M 9.421875 75.984375 
L 18.40625 75.984375 
L 18.40625 64.59375 
L 9.421875 64.59375 
z
" id="DejaVuSans-105"/>
      <path d="M 52 44.1875 
Q 55.375 50.25 60.0625 53.125 
Q 64.75 56 71.09375 56 
Q 79.640625 56 84.28125 50.015625 
Q 88.921875 44.046875 88.921875 33.015625 
L 88.921875 0 
L 79.890625 0 
L 79.890625 32.71875 
Q 79.890625 40.578125 77.09375 44.375 
Q 74.3125 48.1875 68.609375 48.1875 
Q 61.625 48.1875 57.5625 43.546875 
Q 53.515625 38.921875 53.515625 30.90625 
L 53.515625 0 
L 44.484375 0 
L 44.484375 32.71875 
Q 44.484375 40.625 41.703125 44.40625 
Q 38.921875 48.1875 33.109375 48.1875 
Q 26.21875 48.1875 22.15625 43.53125 
Q 18.109375 38.875 18.109375 30.90625 
L 18.109375 0 
L 9.078125 0 
L 9.078125 54.6875 
L 18.109375 54.6875 
L 18.109375 46.1875 
Q 21.1875 51.21875 25.484375 53.609375 
Q 29.78125 56 35.6875 56 
Q 41.65625 56 45.828125 52.96875 
Q 50 49.953125 52 44.1875 
z
" id="DejaVuSans-109"/>
      <path d="M 56.203125 29.59375 
L 56.203125 25.203125 
L 14.890625 25.203125 
Q 15.484375 15.921875 20.484375 11.0625 
Q 25.484375 6.203125 34.421875 6.203125 
Q 39.59375 6.203125 44.453125 7.46875 
Q 49.3125 8.734375 54.109375 11.28125 
L 54.109375 2.78125 
Q 49.265625 0.734375 44.1875 -0.34375 
Q 39.109375 -1.421875 33.890625 -1.421875 
Q 20.796875 -1.421875 13.15625 6.1875 
Q 5.515625 13.8125 5.515625 26.8125 
Q 5.515625 40.234375 12.765625 48.109375 
Q 20.015625 56 32.328125 56 
Q 43.359375 56 49.78125 48.890625 
Q 56.203125 41.796875 56.203125 29.59375 
z
M 47.21875 32.234375 
Q 47.125 39.59375 43.09375 43.984375 
Q 39.0625 48.390625 32.421875 48.390625 
Q 24.90625 48.390625 20.390625 44.140625 
Q 15.875 39.890625 15.1875 32.171875 
z
" id="DejaVuSans-101"/>
      <path id="DejaVuSans-32"/>
      <path d="M 8.59375 75.984375 
L 29.296875 75.984375 
L 29.296875 69 
L 17.578125 69 
L 17.578125 -6.203125 
L 29.296875 -6.203125 
L 29.296875 -13.1875 
L 8.59375 -13.1875 
z
" id="DejaVuSans-91"/>
      <path d="M 44.28125 53.078125 
L 44.28125 44.578125 
Q 40.484375 46.53125 36.375 47.5 
Q 32.28125 48.484375 27.875 48.484375 
Q 21.1875 48.484375 17.84375 46.4375 
Q 14.5 44.390625 14.5 40.28125 
Q 14.5 37.15625 16.890625 35.375 
Q 19.28125 33.59375 26.515625 31.984375 
L 29.59375 31.296875 
Q 39.15625 29.25 43.1875 25.515625 
Q 47.21875 21.78125 47.21875 15.09375 
Q 47.21875 7.46875 41.1875 3.015625 
Q 35.15625 -1.421875 24.609375 -1.421875 
Q 20.21875 -1.421875 15.453125 -0.5625 
Q 10.6875 0.296875 5.421875 2 
L 5.421875 11.28125 
Q 10.40625 8.6875 15.234375 7.390625 
Q 20.0625 6.109375 24.8125 6.109375 
Q 31.15625 6.109375 34.5625 8.28125 
Q 37.984375 10.453125 37.984375 14.40625 
Q 37.984375 18.0625 35.515625 20.015625 
Q 33.0625 21.96875 24.703125 23.78125 
L 21.578125 24.515625 
Q 13.234375 26.265625 9.515625 29.90625 
Q 5.8125 33.546875 5.8125 39.890625 
Q 5.8125 47.609375 11.28125 51.796875 
Q 16.75 56 26.8125 56 
Q 31.78125 56 36.171875 55.265625 
Q 40.578125 54.546875 44.28125 53.078125 
z
" id="DejaVuSans-115"/>
      <path d="M 30.421875 75.984375 
L 30.421875 -13.1875 
L 9.71875 -13.1875 
L 9.71875 -6.203125 
L 21.390625 -6.203125 
L 21.390625 69 
L 9.71875 69 
L 9.71875 75.984375 
z
" id="DejaVuSans-93"/>
     </defs>
     <g transform="translate(234.038281 412.756563)scale(0.1 -0.1)">
      <use xlink:href="#DejaVuSans-116"/>
      <use x="39.208984" xlink:href="#DejaVuSans-105"/>
      <use x="66.992188" xlink:href="#DejaVuSans-109"/>
      <use x="164.404297" xlink:href="#DejaVuSans-101"/>
      <use x="225.927734" xlink:href="#DejaVuSans-32"/>
      <use x="257.714844" xlink:href="#DejaVuSans-91"/>
      <use x="296.728516" xlink:href="#DejaVuSans-109"/>
      <use x="394.140625" xlink:href="#DejaVuSans-115"/>
      <use x="446.240234" xlink:href="#DejaVuSans-93"/>
     </g>
    </g>
   </g>
   <g id="matplotlib.axis_2">
    <g id="ytick_1">
     <g id="line2d_6">
      <defs>
       <path d="M 0 0 
L -3.5 0 
" id="m49bb760c28" style="stroke:#000000;stroke-width:0.8;"/>
      </defs>
      <g>
       <use style="stroke:#000000;stroke-width:0.8;" x="63" xlink:href="#m49bb760c28" y="348.830016"/>
      </g>
     </g>
     <g id="text_7">
      <!-- −100 -->
      <defs>
       <path d="M 10.59375 35.5 
L 73.1875 35.5 
L 73.1875 27.203125 
L 10.59375 27.203125 
z
" id="DejaVuSans-8722"/>
      </defs>
      <g transform="translate(28.532812 352.629234)scale(0.1 -0.1)">
       <use xlink:href="#DejaVuSans-8722"/>
       <use x="83.789062" xlink:href="#DejaVuSans-49"/>
       <use x="147.412109" xlink:href="#DejaVuSans-48"/>
       <use x="211.035156" xlink:href="#DejaVuSans-48"/>
      </g>
     </g>
    </g>
    <g id="ytick_2">
     <g id="line2d_7">
      <g>
       <use style="stroke:#000000;stroke-width:0.8;" x="63" xlink:href="#m49bb760c28" y="303.489944"/>
      </g>
     </g>
     <g id="text_8">
      <!-- −75 -->
      <g transform="translate(34.895313 307.289163)scale(0.1 -0.1)">
       <use xlink:href="#DejaVuSans-8722"/>
       <use x="83.789062" xlink:href="#DejaVuSans-55"/>
       <use x="147.412109" xlink:href="#DejaVuSans-53"/>
      </g>
     </g>
    </g>
    <g id="ytick_3">
     <g id="line2d_8">
      <g>
       <use style="stroke:#000000;stroke-width:0.8;" x="63" xlink:href="#m49bb760c28" y="258.149872"/>
      </g>
     </g>
     <g id="text_9">
      <!-- −50 -->
      <g transform="translate(34.895313 261.949091)scale(0.1 -0.1)">
       <use xlink:href="#DejaVuSans-8722"/>
       <use x="83.789062" xlink:href="#DejaVuSans-53"/>
       <use x="147.412109" xlink:href="#DejaVuSans-48"/>
      </g>
     </g>
    </g>
    <g id="ytick_4">
     <g id="line2d_9">
      <g>
       <use style="stroke:#000000;stroke-width:0.8;" x="63" xlink:href="#m49bb760c28" y="212.809801"/>
      </g>
     </g>
     <g id="text_10">
      <!-- −25 -->
      <g transform="translate(34.895313 216.609019)scale(0.1 -0.1)">
       <use xlink:href="#DejaVuSans-8722"/>
       <use x="83.789062" xlink:href="#DejaVuSans-50"/>
       <use x="147.412109" xlink:href="#DejaVuSans-53"/>
      </g>
     </g>
    </g>
    <g id="ytick_5">
     <g id="line2d_10">
      <g>
       <use style="stroke:#000000;stroke-width:0.8;" x="63" xlink:href="#m49bb760c28" y="167.469729"/>
      </g>
     </g>
     <g id="text_11">
      <!-- 0 -->
      <g transform="translate(49.6375 171.268948)scale(0.1 -0.1)">
       <use xlink:href="#DejaVuSans-48"/>
      </g>
     </g>
    </g>
    <g id="ytick_6">
     <g id="line2d_11">
      <g>
       <use style="stroke:#000000;stroke-width:0.8;" x="63" xlink:href="#m49bb760c28" y="122.129657"/>
      </g>
     </g>
     <g id="text_12">
      <!-- 25 -->
      <g transform="translate(43.275 125.928876)scale(0.1 -0.1)">
       <use xlink:href="#DejaVuSans-50"/>
       <use x="63.623047" xlink:href="#DejaVuSans-53"/>
      </g>
     </g>
    </g>
    <g id="ytick_7">
     <g id="line2d_12">
      <g>
       <use style="stroke:#000000;stroke-width:0.8;" x="63" xlink:href="#m49bb760c28" y="76.789586"/>
      </g>
     </g>
     <g id="text_13">
      <!-- 50 -->
      <g transform="translate(43.275 80.588805)scale(0.1 -0.1)">
       <use xlink:href="#DejaVuSans-53"/>
       <use x="63.623047" xlink:href="#DejaVuSans-48"/>
      </g>
     </g>
    </g>
    <g id="text_14">
     <!-- voltage [mV] -->
     <defs>
      <path d="M 2.984375 54.6875 
L 12.5 54.6875 
L 29.59375 8.796875 
L 46.6875 54.6875 
L 56.203125 54.6875 
L 35.6875 0 
L 23.484375 0 
z
" id="DejaVuSans-118"/>
      <path d="M 30.609375 48.390625 
Q 23.390625 48.390625 19.1875 42.75 
Q 14.984375 37.109375 14.984375 27.296875 
Q 14.984375 17.484375 19.15625 11.84375 
Q 23.34375 6.203125 30.609375 6.203125 
Q 37.796875 6.203125 41.984375 11.859375 
Q 46.1875 17.53125 46.1875 27.296875 
Q 46.1875 37.015625 41.984375 42.703125 
Q 37.796875 48.390625 30.609375 48.390625 
z
M 30.609375 56 
Q 42.328125 56 49.015625 48.375 
Q 55.71875 40.765625 55.71875 27.296875 
Q 55.71875 13.875 49.015625 6.21875 
Q 42.328125 -1.421875 30.609375 -1.421875 
Q 18.84375 -1.421875 12.171875 6.21875 
Q 5.515625 13.875 5.515625 27.296875 
Q 5.515625 40.765625 12.171875 48.375 
Q 18.84375 56 30.609375 56 
z
" id="DejaVuSans-111"/>
      <path d="M 9.421875 75.984375 
L 18.40625 75.984375 
L 18.40625 0 
L 9.421875 0 
z
" id="DejaVuSans-108"/>
      <path d="M 34.28125 27.484375 
Q 23.390625 27.484375 19.1875 25 
Q 14.984375 22.515625 14.984375 16.5 
Q 14.984375 11.71875 18.140625 8.90625 
Q 21.296875 6.109375 26.703125 6.109375 
Q 34.1875 6.109375 38.703125 11.40625 
Q 43.21875 16.703125 43.21875 25.484375 
L 43.21875 27.484375 
z
M 52.203125 31.203125 
L 52.203125 0 
L 43.21875 0 
L 43.21875 8.296875 
Q 40.140625 3.328125 35.546875 0.953125 
Q 30.953125 -1.421875 24.3125 -1.421875 
Q 15.921875 -1.421875 10.953125 3.296875 
Q 6 8.015625 6 15.921875 
Q 6 25.140625 12.171875 29.828125 
Q 18.359375 34.515625 30.609375 34.515625 
L 43.21875 34.515625 
L 43.21875 35.40625 
Q 43.21875 41.609375 39.140625 45 
Q 35.0625 48.390625 27.6875 48.390625 
Q 23 48.390625 18.546875 47.265625 
Q 14.109375 46.140625 10.015625 43.890625 
L 10.015625 52.203125 
Q 14.9375 54.109375 19.578125 55.046875 
Q 24.21875 56 28.609375 56 
Q 40.484375 56 46.34375 49.84375 
Q 52.203125 43.703125 52.203125 31.203125 
z
" id="DejaVuSans-97"/>
      <path d="M 45.40625 27.984375 
Q 45.40625 37.75 41.375 43.109375 
Q 37.359375 48.484375 30.078125 48.484375 
Q 22.859375 48.484375 18.828125 43.109375 
Q 14.796875 37.75 14.796875 27.984375 
Q 14.796875 18.265625 18.828125 12.890625 
Q 22.859375 7.515625 30.078125 7.515625 
Q 37.359375 7.515625 41.375 12.890625 
Q 45.40625 18.265625 45.40625 27.984375 
z
M 54.390625 6.78125 
Q 54.390625 -7.171875 48.1875 -13.984375 
Q 42 -20.796875 29.203125 -20.796875 
Q 24.46875 -20.796875 20.265625 -20.09375 
Q 16.0625 -19.390625 12.109375 -17.921875 
L 12.109375 -9.1875 
Q 16.0625 -11.328125 19.921875 -12.34375 
Q 23.78125 -13.375 27.78125 -13.375 
Q 36.625 -13.375 41.015625 -8.765625 
Q 45.40625 -4.15625 45.40625 5.171875 
L 45.40625 9.625 
Q 42.625 4.78125 38.28125 2.390625 
Q 33.9375 0 27.875 0 
Q 17.828125 0 11.671875 7.65625 
Q 5.515625 15.328125 5.515625 27.984375 
Q 5.515625 40.671875 11.671875 48.328125 
Q 17.828125 56 27.875 56 
Q 33.9375 56 38.28125 53.609375 
Q 42.625 51.21875 45.40625 46.390625 
L 45.40625 54.6875 
L 54.390625 54.6875 
z
" id="DejaVuSans-103"/>
      <path d="M 28.609375 0 
L 0.78125 72.90625 
L 11.078125 72.90625 
L 34.1875 11.53125 
L 57.328125 72.90625 
L 67.578125 72.90625 
L 39.796875 0 
z
" id="DejaVuSans-86"/>
     </defs>
     <g transform="translate(22.453125 250.624062)rotate(-90)scale(0.1 -0.1)">
      <use xlink:href="#DejaVuSans-118"/>
      <use x="59.179688" xlink:href="#DejaVuSans-111"/>
      <use x="120.361328" xlink:href="#DejaVuSans-108"/>
      <use x="148.144531" xlink:href="#DejaVuSans-116"/>
      <use x="187.353516" xlink:href="#DejaVuSans-97"/>
      <use x="248.632812" xlink:href="#DejaVuSans-103"/>
      <use x="312.109375" xlink:href="#DejaVuSans-101"/>
      <use x="373.632812" xlink:href="#DejaVuSans-32"/>
      <use x="405.419922" xlink:href="#DejaVuSans-91"/>
      <use x="444.433594" xlink:href="#DejaVuSans-109"/>
      <use x="541.845703" xlink:href="#DejaVuSans-86"/>
      <use x="610.253906" xlink:href="#DejaVuSans-93"/>
     </g>
    </g>
   </g>
   <g id="line2d_13">
    <path clip-path="url(#pca628de6d2)" d="M 80.754545 273.558412 
L 83.385088 273.469857 
L 83.417364 273.381303 
L 83.465779 273.558412 
L 83.481917 273.469857 
L 83.966066 273.381303 
L 84.062896 273.292748 
L 84.175864 273.381303 
L 84.547045 273.469857 
L 84.660013 273.558412 
L 84.96664 273.469857 
L 85.079609 273.381303 
L 85.337821 273.469857 
L 85.35396 273.558412 
L 85.402374 273.381303 
L 85.418513 273.381303 
L 86.322257 273.469857 
L 86.435225 273.558412 
L 87.419661 273.646967 
L 87.532629 273.735522 
L 87.581044 273.646967 
L 87.629459 273.735522 
L 88.694587 273.824077 
L 88.807555 273.912632 
L 88.85597 273.824077 
L 89.049629 263.728826 
L 89.501501 254.25346 
L 90.356831 241.944339 
L 91.196022 233.88585 
L 91.454235 231.937643 
L 91.777001 229.546663 
L 92.503224 226.093025 
L 92.535501 226.00447 
L 92.713022 225.561696 
L 92.745299 225.473141 
L 92.971235 224.764702 
L 93.01965 224.676148 
L 93.213309 224.144819 
L 93.358554 224.056264 
L 93.536075 223.61349 
L 93.600628 223.524935 
L 93.762011 223.170716 
L 93.858841 223.082161 
L 94.004086 222.816496 
L 94.213884 222.727941 
L 94.359128 222.462277 
L 95.133766 222.373722 
L 95.182181 222.285167 
L 95.230596 222.373722 
L 95.843851 222.285167 
L 95.989096 221.930948 
L 96.053649 222.019503 
L 96.085926 221.930948 
L 96.392553 221.842393 
L 96.505522 221.753838 
L 96.796011 221.842393 
L 97.005809 222.462277 
L 97.070362 222.550832 
L 97.215607 222.816496 
L 97.393128 222.727941 
L 97.425404 222.639387 
L 97.489958 222.727941 
L 97.845 222.639387 
L 97.974106 222.462277 
L 98.264596 222.550832 
L 98.296872 222.639387 
L 98.345287 222.550832 
L 98.458255 222.462277 
L 98.50667 222.550832 
L 98.538947 222.639387 
L 98.571223 222.462277 
L 98.6035 222.550832 
L 99.119925 222.462277 
L 99.249032 222.285167 
L 99.959117 222.196612 
L 100.055947 222.108058 
L 100.572372 224.410483 
L 100.620787 224.499038 
L 100.733755 224.676148 
L 100.862861 224.499038 
L 101.024244 224.410483 
L 101.153351 224.233373 
L 101.298595 224.144819 
L 101.44384 223.879154 
L 101.556808 223.790599 
L 101.685914 223.61349 
L 101.831159 223.524935 
L 101.847297 223.43638 
L 101.927989 223.524935 
L 102.10551 223.43638 
L 102.266893 223.082161 
L 102.363723 222.993606 
L 102.492829 222.816496 
L 102.993116 222.727941 
L 103.057669 222.462277 
L 103.106084 222.550832 
L 103.251329 222.816496 
L 103.380435 222.639387 
L 103.687063 222.550832 
L 103.783893 222.462277 
L 103.880722 222.550832 
L 103.993691 222.462277 
L 104.09052 222.373722 
L 104.18735 222.285167 
L 104.300318 222.373722 
L 104.38101 222.285167 
L 104.526254 221.930948 
L 104.574669 222.019503 
L 104.623084 221.930948 
L 104.897435 221.842393 
L 105.010403 221.753838 
L 105.236339 221.842393 
L 105.317031 221.930948 
L 105.333169 221.842393 
L 106.107807 221.753838 
L 106.123945 221.665283 
L 106.17236 221.842393 
L 106.204637 221.753838 
L 106.882445 221.842393 
L 106.995413 221.930948 
L 107.705498 221.842393 
L 107.737775 221.753838 
L 107.78619 221.930948 
L 108.383307 221.842393 
L 108.512413 221.665283 
L 108.576966 221.576729 
L 108.689934 221.488174 
L 109.254775 221.399619 
L 109.335466 221.311064 
L 109.351605 221.399619 
L 109.690509 221.311064 
L 109.819615 221.133954 
L 109.916445 221.222509 
L 110.013275 221.133954 
L 110.126243 221.222509 
L 110.5297 221.311064 
L 110.610392 221.399619 
L 110.62653 221.311064 
L 111.368891 221.399619 
L 111.497998 221.576729 
L 111.836902 221.665283 
L 111.85304 221.753838 
L 111.933732 221.665283 
L 112.256498 221.753838 
L 112.321051 221.665283 
L 112.369466 221.842393 
L 112.821338 221.930948 
L 112.837476 222.019503 
L 112.869753 221.842393 
L 112.902029 221.842393 
L 113.144104 221.930948 
L 113.289349 222.196612 
L 113.37004 222.285167 
L 113.499146 222.462277 
L 113.595976 222.550832 
L 113.644391 222.639387 
L 113.692806 222.550832 
L 113.789636 222.462277 
L 113.870327 222.373722 
L 113.886465 222.462277 
L 114.160817 222.550832 
L 114.257646 222.639387 
L 114.386753 222.373722 
L 114.419029 222.462277 
L 114.483582 222.373722 
L 114.580412 222.196612 
L 114.59655 222.285167 
L 114.806348 222.196612 
L 114.919316 222.108058 
L 115.35505 222.019503 
L 115.468018 221.930948 
L 115.758508 221.842393 
L 115.887614 221.665283 
L 116.161965 221.576729 
L 116.258795 221.399619 
L 116.274933 221.488174 
L 116.355625 221.399619 
L 116.468593 221.311064 
L 116.533146 221.222509 
L 116.662252 221.0454 
L 117.017295 221.133954 
L 117.033433 221.222509 
L 117.114125 221.133954 
L 117.259369 221.222509 
L 117.43689 221.665283 
L 117.469167 221.753838 
L 117.662827 222.285167 
L 117.711241 222.373722 
L 117.791933 222.550832 
L 117.82421 222.462277 
L 117.921039 222.550832 
L 118.034007 222.639387 
L 118.647263 222.550832 
L 118.760231 222.462277 
L 119.05072 222.373722 
L 119.131411 222.285167 
L 119.14755 222.373722 
L 119.518731 222.285167 
L 119.647837 222.108058 
L 119.80922 222.019503 
L 119.922188 221.930948 
L 120.099709 221.842393 
L 120.244954 221.576729 
L 120.438613 221.488174 
L 120.551581 221.399619 
L 120.664549 221.311064 
L 120.696826 221.222509 
L 120.745241 221.399619 
L 121.116422 221.488174 
L 121.22939 221.576729 
L 121.600571 221.488174 
L 121.729677 221.311064 
L 121.810368 221.222509 
L 121.939475 221.0454 
L 122.116996 220.956845 
L 122.213826 220.86829 
L 122.342932 221.0454 
L 122.778666 220.956845 
L 122.810943 220.86829 
L 122.875496 220.956845 
L 122.923911 221.0454 
L 122.972326 220.956845 
L 123.133709 221.0454 
L 123.262815 221.222509 
L 123.553304 221.311064 
L 123.682411 221.488174 
L 123.827655 221.222509 
L 123.924485 221.311064 
L 123.940623 221.399619 
L 124.005177 221.222509 
L 124.360219 221.133954 
L 124.473187 221.0454 
L 124.682985 221.133954 
L 124.812091 221.311064 
L 125.215549 221.399619 
L 125.328517 221.576729 
L 125.360793 221.665283 
L 125.441485 221.488174 
L 125.764251 221.399619 
L 125.780389 221.311064 
L 125.861081 221.399619 
L 126.038602 221.311064 
L 126.15157 221.222509 
L 126.329091 221.133954 
L 126.425921 221.0454 
L 126.538889 221.133954 
L 127.136006 221.0454 
L 127.152144 220.956845 
L 127.232836 221.0454 
L 127.248974 221.133954 
L 127.297389 220.956845 
L 127.313527 220.956845 
L 127.394219 221.0454 
L 127.442633 221.222509 
L 127.507187 221.133954 
L 127.523325 221.0454 
L 127.604016 221.133954 
L 127.975197 221.0454 
L 128.104304 220.86829 
L 128.217272 220.779735 
L 128.33024 220.69118 
L 128.410931 220.602626 
L 128.523899 220.514071 
L 129.08874 220.425516 
L 129.137154 220.336961 
L 129.185569 220.425516 
L 129.605165 220.514071 
L 129.718133 220.602626 
L 129.831101 220.514071 
L 130.008622 220.071297 
L 130.137729 219.982742 
L 130.266835 219.805632 
L 130.525048 219.717077 
L 130.541186 219.628522 
L 130.589601 219.805632 
L 130.621878 219.717077 
L 130.670292 219.805632 
L 130.718707 219.717077 
L 131.07375 219.628522 
L 131.138303 219.539968 
L 131.17058 219.628522 
L 131.202856 219.539968 
L 131.315824 219.451413 
L 132.477782 219.539968 
L 132.59075 219.628522 
L 132.768271 219.539968 
L 132.816686 219.451413 
L 132.865101 219.539968 
L 133.268558 219.628522 
L 133.381526 219.717077 
L 133.413803 219.717077 
L 133.559047 220.159851 
L 133.591324 220.071297 
L 133.607462 220.248406 
L 133.623601 220.248406 
L 133.736569 220.336961 
L 133.784983 220.425516 
L 133.930228 220.69118 
L 133.978643 220.779735 
L 134.156164 221.222509 
L 134.269132 221.133954 
L 134.430515 221.222509 
L 134.559622 221.399619 
L 134.624175 221.311064 
L 134.656451 221.399619 
L 134.817834 221.311064 
L 134.930802 221.222509 
L 135.301983 221.133954 
L 135.414951 220.86829 
L 135.43109 220.956845 
L 135.818409 220.86829 
L 135.834547 220.779735 
L 135.866824 220.956845 
L 135.915238 220.86829 
L 136.044345 220.779735 
L 136.060483 220.69118 
L 136.141175 220.779735 
L 136.883536 220.69118 
L 137.028781 220.425516 
L 137.157887 220.336961 
L 137.206302 220.159851 
L 137.254717 220.336961 
L 137.367685 220.248406 
L 137.432238 220.071297 
L 137.464515 220.248406 
L 137.690451 220.159851 
L 137.819557 219.982742 
L 137.916387 220.071297 
L 138.013217 220.159851 
L 138.158461 219.894187 
L 138.707163 219.805632 
L 138.820132 219.717077 
L 139.126759 219.805632 
L 139.239727 219.894187 
L 139.772291 219.805632 
L 139.901397 219.628522 
L 139.998227 219.717077 
L 140.095057 219.628522 
L 140.111195 219.717077 
L 140.191887 219.628522 
L 140.756727 219.539968 
L 140.885833 219.362858 
L 140.966525 219.274303 
L 141.095631 219.097193 
L 141.321567 219.805632 
L 141.402259 219.894187 
L 141.531365 220.071297 
L 141.902546 219.982742 
L 142.015514 219.894187 
L 142.14462 219.805632 
L 142.257588 219.717077 
L 142.80629 219.628522 
L 142.935397 219.451413 
L 144.339429 219.539968 
L 144.468535 219.894187 
L 144.484673 219.805632 
L 144.581503 219.717077 
L 144.726748 219.982742 
L 145.049513 220.071297 
L 145.08179 220.159851 
L 145.146343 220.071297 
L 145.340003 219.982742 
L 145.469109 219.805632 
L 145.64663 219.717077 
L 145.759598 219.628522 
L 146.308301 219.539968 
L 146.388992 219.362858 
L 146.421269 219.451413 
L 147.244322 219.539968 
L 147.26046 219.628522 
L 147.341151 219.539968 
L 147.550949 219.451413 
L 147.663917 219.362858 
L 148.180343 219.451413 
L 148.309449 219.628522 
L 148.374002 219.539968 
L 148.48697 219.451413 
L 148.874289 219.362858 
L 148.890428 219.274303 
L 148.971119 219.362858 
L 149.100226 219.451413 
L 149.116364 219.539968 
L 149.164779 219.362858 
L 149.197055 219.451413 
L 149.293885 219.362858 
L 149.406853 219.274303 
L 149.697343 219.362858 
L 149.810311 219.451413 
L 149.971694 219.451413 
L 150.00397 219.274303 
L 150.084662 219.362858 
L 150.407427 219.451413 
L 150.601087 219.982742 
L 150.746332 219.717077 
L 151.085236 219.805632 
L 151.149789 219.894187 
L 151.182066 219.805632 
L 151.359587 219.717077 
L 151.375725 219.628522 
L 151.456417 219.717077 
L 151.811459 219.628522 
L 151.843736 219.539968 
L 151.908289 219.628522 
L 152.424714 219.539968 
L 152.553821 219.362858 
L 152.650651 219.274303 
L 152.715204 219.185748 
L 152.74748 219.274303 
L 152.763619 219.362858 
L 152.812033 219.185748 
L 152.828172 219.185748 
L 153.40915 219.185748 
L 153.60281 229.280999 
L 154.054682 238.66781 
L 154.425863 244.423874 
L 154.861597 249.914273 
L 154.974565 251.065486 
L 155.68465 257.707098 
L 155.894448 259.38964 
L 156.265629 262.311949 
L 156.281767 262.311949 
L 156.556118 264.171601 
L 158.62182 274.97529 
L 158.670235 275.063844 
L 158.993001 276.303612 
L 159.057554 276.392167 
L 159.299628 277.18916 
L 159.331905 277.277715 
L 159.557841 277.986154 
L 159.622394 278.074709 
L 159.832192 278.694592 
L 159.896745 278.783147 
L 160.090405 279.314476 
L 160.122681 279.403031 
L 160.300202 279.845805 
L 160.348617 279.93436 
L 160.493862 280.200024 
L 160.526139 280.288579 
L 160.70366 280.731353 
L 160.768213 280.819908 
L 160.929596 281.174127 
L 161.042564 281.262682 
L 161.187809 281.528347 
L 161.413745 281.616902 
L 161.558989 281.882566 
L 161.639681 281.971121 
L 161.768787 282.148231 
L 161.897894 282.236785 
L 162.027 282.413895 
L 162.091553 282.50245 
L 162.22066 282.67956 
L 162.285213 282.768114 
L 162.317489 282.856669 
L 162.382043 282.768114 
L 162.462734 282.856669 
L 162.59184 283.033779 
L 162.995298 283.122334 
L 163.108266 283.210888 
L 163.318064 283.299443 
L 163.431032 283.476553 
L 163.463308 283.387998 
L 163.527861 283.476553 
L 163.64083 283.565108 
L 163.931319 283.653663 
L 164.044287 283.742217 
L 164.544574 283.653663 
L 164.625266 283.565108 
L 164.641404 283.653663 
L 165.997021 283.565108 
L 166.126127 283.387998 
L 166.206818 283.476553 
L 166.222957 283.387998 
L 166.432755 283.299443 
L 166.561861 283.122334 
L 166.900765 283.033779 
L 167.013733 282.945224 
L 167.304223 282.856669 
L 167.449467 282.591005 
L 167.659265 282.50245 
L 167.772233 282.413895 
L 168.014308 282.32534 
L 168.159552 282.059676 
L 168.450042 281.971121 
L 168.56301 281.882566 
L 168.579148 281.971121 
L 168.627563 281.794011 
L 168.643701 281.882566 
L 168.756669 281.794011 
L 168.837361 281.705456 
L 168.853499 281.616902 
L 168.885775 281.794011 
L 168.93419 281.705456 
L 169.12785 281.616902 
L 169.256956 281.439792 
L 169.418339 281.351237 
L 169.499031 281.262682 
L 169.611999 274.355406 
L 169.708829 274.443961 
L 169.724967 274.532515 
L 169.805658 274.443961 
L 170.951477 274.532515 
L 170.967616 274.62107 
L 171.048307 274.532515 
L 171.790669 274.62107 
L 171.822945 274.709625 
L 171.887498 274.62107 
L 171.952052 274.532515 
L 172.048881 274.443961 
L 172.161849 274.532515 
L 172.387786 274.443961 
L 172.500754 274.355406 
L 173.162424 274.266851 
L 173.29153 274.089741 
L 174.518041 274.178296 
L 174.582594 274.266851 
L 174.61487 274.178296 
L 175.018328 274.266851 
L 175.147434 274.443961 
L 175.260402 274.355406 
L 175.389508 274.443961 
L 175.405647 274.532515 
L 175.486338 274.443961 
L 175.615445 274.532515 
L 175.712274 274.62107 
L 175.825242 274.532515 
L 175.93821 274.62107 
L 176.164147 274.709625 
L 176.277115 274.79818 
L 176.390083 274.709625 
L 176.664434 274.62107 
L 176.777402 274.532515 
L 176.938785 274.443961 
L 176.971061 274.355406 
L 177.019476 274.532515 
L 177.035615 274.443961 
L 177.616593 274.443961 
L 177.810253 261.249291 
L 178.391231 245.752196 
L 179.149731 231.494869 
L 179.82754 222.108058 
L 180.39238 217.060432 
L 180.860391 215.023671 
L 180.876529 215.023671 
L 181.021773 214.580897 
L 181.183156 214.226678 
L 181.312263 214.138123 
L 181.473646 213.783904 
L 181.505922 213.695349 
L 181.699582 213.16402 
L 181.764135 213.075465 
L 181.893241 212.898356 
L 182.328975 212.809801 
L 182.47422 212.544136 
L 182.506497 212.455581 
L 182.635603 212.278472 
L 182.716294 212.189917 
L 182.877677 211.835698 
L 182.926092 211.924252 
L 182.974507 212.012807 
L 183.022922 211.924252 
L 183.103614 211.835698 
L 183.23272 211.658588 
L 183.281135 211.570033 
L 183.442518 211.215814 
L 183.474794 211.127259 
L 183.668454 210.59593 
L 183.70073 210.507375 
L 183.845975 210.241711 
L 183.89439 210.153156 
L 184.168741 209.179053 
L 184.313986 209.090498 
L 184.523784 208.470614 
L 184.814273 208.382059 
L 184.927241 207.85073 
L 184.975656 208.02784 
L 185.072486 207.939285 
L 185.250007 207.319401 
L 185.266145 207.407956 
L 185.346837 207.319401 
L 185.492081 207.053737 
L 185.524358 206.965182 
L 186.411964 201.651892 
L 186.428102 201.120563 
L 186.444241 195.630164 
L 186.492656 75.284154 
L 186.573347 138.246636 
L 186.73473 209.798937 
L 186.944528 212.101362 
L 188.05807 223.25927 
L 188.074208 223.25927 
L 188.25173 224.056264 
L 188.461528 224.676148 
L 188.526081 224.764702 
L 188.71974 225.296031 
L 188.768155 225.384586 
L 188.929538 225.738806 
L 189.026368 225.650251 
L 189.155474 225.82736 
L 189.720315 225.738806 
L 189.849421 225.561696 
L 190.091495 225.473141 
L 190.220602 225.296031 
L 190.285155 225.207477 
L 190.414261 225.030367 
L 190.4304 225.118922 
L 190.494953 224.941812 
L 190.591783 224.853257 
L 190.704751 224.764702 
L 190.89841 224.676148 
L 191.011378 224.587593 
L 191.140485 224.499038 
L 191.285729 224.233373 
L 191.46325 224.144819 
L 191.624633 223.790599 
L 192.205612 223.702044 
L 192.334718 223.524935 
L 192.41541 223.43638 
L 192.544516 223.082161 
L 192.560655 223.170716 
L 192.609069 223.082161 
L 192.625208 222.993606 
L 192.705899 223.082161 
L 192.835006 222.993606 
L 192.899559 222.905051 
L 192.931835 222.993606 
L 193.238463 222.905051 
L 193.367569 222.727941 
L 193.512814 222.639387 
L 193.64192 222.462277 
L 193.916271 222.373722 
L 194.061516 222.108058 
L 194.448835 222.019503 
L 194.577941 221.842393 
L 194.723186 221.753838 
L 194.884569 221.399619 
L 194.981399 221.311064 
L 195.110505 221.133954 
L 195.271888 221.0454 
L 195.35258 220.86829 
L 195.384856 220.956845 
L 195.465548 220.86829 
L 195.594654 220.69118 
L 195.885143 220.602626 
L 195.998111 220.514071 
L 196.094941 220.425516 
L 196.256324 220.071297 
L 196.353154 220.159851 
L 196.449984 220.071297 
L 196.546813 220.159851 
L 196.67592 219.982742 
L 197.14393 219.894187 
L 197.160069 219.805632 
L 197.224622 219.982742 
L 197.402143 220.071297 
L 197.579664 220.602626 
L 197.628079 220.514071 
L 197.660356 220.69118 
L 197.724909 220.779735 
L 197.821739 220.956845 
L 197.837877 220.86829 
L 197.950845 220.956845 
L 198.09609 221.222509 
L 198.467271 221.133954 
L 198.483409 221.0454 
L 198.5641 221.133954 
L 198.644792 221.0454 
L 198.790036 220.779735 
L 198.935281 220.69118 
L 199.080526 220.425516 
L 199.193494 220.336961 
L 199.354877 219.982742 
L 199.41943 219.894187 
L 199.548536 219.717077 
L 199.661504 219.805632 
L 199.790611 219.717077 
L 199.919717 219.539968 
L 199.98427 219.451413 
L 200.048824 219.274303 
L 200.097238 219.362858 
L 200.516834 219.274303 
L 200.662079 218.920084 
L 200.710494 219.008639 
L 200.758908 218.920084 
L 200.871877 218.831529 
L 201.000983 218.654419 
L 201.065536 218.565864 
L 201.210781 218.3002 
L 201.372164 218.211645 
L 201.485132 218.12309 
L 201.646515 218.034536 
L 201.775621 217.857426 
L 202.130664 217.768871 
L 202.195217 217.680316 
L 202.227493 217.768871 
L 202.3566 217.680316 
L 202.485706 217.503207 
L 202.550259 217.414652 
L 202.711642 217.060432 
L 202.969855 216.971878 
L 203.098961 216.794768 
L 203.728355 216.883323 
L 203.792908 217.060432 
L 203.841323 216.971878 
L 204.083397 217.060432 
L 204.14795 217.148987 
L 204.180227 217.060432 
L 204.632099 216.971878 
L 204.728929 216.794768 
L 204.745067 216.883323 
L 204.809621 216.794768 
L 204.938727 216.617658 
L 205.019418 216.706213 
L 205.116248 216.794768 
L 205.164663 216.706213 
L 205.19694 216.883323 
L 205.213078 216.794768 
L 205.261493 216.883323 
L 205.358323 217.060432 
L 205.374461 216.971878 
L 206.052269 217.060432 
L 206.197514 217.326097 
L 206.455727 217.414652 
L 206.584833 217.591761 
L 206.665525 217.680316 
L 206.810769 217.945981 
L 207.343333 217.857426 
L 207.359471 217.768871 
L 207.440163 217.857426 
L 207.666099 217.945981 
L 207.682237 218.034536 
L 207.762929 217.945981 
L 208.021141 217.857426 
L 208.150248 217.680316 
L 208.198663 217.591761 
L 208.360046 217.237542 
L 208.473014 217.148987 
L 208.585982 217.060432 
L 208.924886 216.971878 
L 209.053992 216.794768 
L 209.215375 216.706213 
L 209.344482 216.529103 
L 209.538141 216.440549 
L 209.683386 216.174884 
L 209.715662 216.086329 
L 209.844769 215.90922 
L 210.054567 215.820665 
L 210.11912 215.73211 
L 210.151396 215.820665 
L 210.264364 215.90922 
L 210.393471 216.086329 
L 211.055141 215.997774 
L 211.200385 215.73211 
L 211.329492 215.643555 
L 211.458598 215.466446 
L 211.652258 215.377891 
L 211.749088 215.289336 
L 211.781364 215.377891 
L 211.829779 215.200781 
L 211.845917 215.289336 
L 211.991162 215.023671 
L 212.168683 215.112226 
L 212.313928 215.377891 
L 212.410758 215.289336 
L 212.475311 215.112226 
L 212.507587 215.200781 
L 212.556002 215.289336 
L 212.588279 215.200781 
L 212.636694 215.112226 
L 212.685109 215.200781 
L 212.846492 215.555 
L 213.185396 215.466446 
L 213.217672 215.377891 
L 213.266087 215.555 
L 213.556577 215.466446 
L 213.653406 215.377891 
L 213.750236 215.466446 
L 213.927757 215.023671 
L 214.024587 214.935117 
L 214.073002 214.758007 
L 214.137555 214.846562 
L 214.2828 214.758007 
L 214.395768 214.669452 
L 214.589427 214.580897 
L 214.718534 214.403788 
L 214.84764 214.492342 
L 214.879917 214.580897 
L 214.928332 214.403788 
L 215.202683 214.315233 
L 215.315651 214.226678 
L 215.493172 214.315233 
L 215.557725 214.403788 
L 215.590002 214.315233 
L 215.751385 214.403788 
L 215.767523 214.492342 
L 215.848214 214.403788 
L 215.945044 214.315233 
L 216.122566 213.872459 
L 216.187119 213.783904 
L 216.300087 213.518239 
L 216.316225 213.606794 
L 216.46147 213.518239 
L 216.606714 213.252575 
L 216.622853 213.34113 
L 216.703544 213.252575 
L 216.92948 213.16402 
L 216.977895 213.075465 
L 217.02631 213.16402 
L 217.042448 213.252575 
L 217.12314 213.16402 
L 217.704118 213.252575 
L 217.817087 213.34113 
L 218.204406 213.34113 
L 218.34965 213.783904 
L 218.656278 213.695349 
L 218.769246 213.606794 
L 218.962905 213.695349 
L 219.027459 213.606794 
L 219.075874 213.783904 
L 219.140427 213.695349 
L 219.172703 213.783904 
L 219.511608 213.872459 
L 219.640714 214.049568 
L 219.915065 214.138123 
L 220.124863 214.758007 
L 220.205554 214.846562 
L 220.350799 215.112226 
L 220.479905 214.935117 
L 221.125437 214.846562 
L 221.141575 214.758007 
L 221.222267 214.846562 
L 221.270682 214.758007 
L 221.415926 214.492342 
L 221.722554 214.403788 
L 221.85166 214.226678 
L 221.900075 214.226678 
L 222.029182 213.872459 
L 222.077596 213.783904 
L 222.158288 213.518239 
L 222.206703 213.606794 
L 222.739267 213.518239 
L 222.868373 213.34113 
L 222.916788 213.252575 
L 223.045894 213.075465 
L 223.142724 212.98691 
L 223.287969 212.721246 
L 223.384798 212.632691 
L 223.513905 212.455581 
L 223.626873 212.367027 
L 223.836671 211.747143 
L 223.981915 211.658588 
L 224.046468 211.481478 
L 224.094883 211.570033 
L 224.256266 211.924252 
L 224.320819 211.835698 
L 224.385373 211.747143 
L 224.417649 211.835698 
L 224.498341 211.924252 
L 224.514479 212.012807 
L 224.579032 211.924252 
L 224.59517 211.835698 
L 224.643585 212.012807 
L 224.659724 212.012807 
L 224.740415 212.101362 
L 224.869522 212.278472 
L 225.127734 212.189917 
L 225.240702 212.101362 
L 225.289117 212.189917 
L 225.305255 212.278472 
L 225.35367 212.101362 
L 225.369809 212.101362 
L 225.54733 212.189917 
L 225.676436 212.367027 
L 225.740989 212.278472 
L 225.853958 212.189917 
L 226.031479 212.101362 
L 226.289691 211.215814 
L 226.660872 211.127259 
L 226.806117 210.861595 
L 227.06433 210.950149 
L 227.096606 211.038704 
L 227.145021 210.950149 
L 227.257989 210.77304 
L 227.370957 210.950149 
L 227.548479 210.507375 
L 227.661447 210.41882 
L 227.677585 210.330266 
L 227.758276 210.41882 
L 227.855106 210.59593 
L 227.871244 210.507375 
L 228.048766 210.41882 
L 228.097181 210.330266 
L 228.145595 210.41882 
L 228.419946 210.330266 
L 228.532915 210.241711 
L 228.565191 210.153156 
L 228.694297 209.976046 
L 228.823404 209.887491 
L 228.871819 209.710382 
L 228.920234 209.798937 
L 229.000925 209.887491 
L 229.017063 209.798937 
L 229.097755 209.710382 
L 229.243 209.444717 
L 229.307553 209.356162 
L 229.452797 209.090498 
L 229.630319 209.179053 
L 229.646457 209.267608 
L 229.71101 209.090498 
L 230.082191 209.001943 
L 230.098329 208.913388 
L 230.162882 209.090498 
L 230.905244 209.001943 
L 231.179595 208.02784 
L 231.22801 207.939285 
L 231.389393 207.585066 
L 231.437808 207.496511 
L 231.921957 205.371195 
L 232.002648 205.28264 
L 232.115616 204.308537 
L 232.164031 203.157325 
L 232.180169 199.880796 
L 232.244722 74.310051 
L 232.309276 133.110456 
L 232.470659 208.824833 
L 232.535212 209.533272 
L 232.599765 209.356162 
L 232.74501 209.090498 
L 233.035499 211.215814 
L 233.551924 215.820665 
L 233.584201 215.90922 
L 233.826275 217.414652 
L 234.504084 220.602626 
L 234.584775 220.69118 
L 234.762296 221.133954 
L 234.82685 221.222509 
L 234.988233 221.576729 
L 235.020509 221.665283 
L 235.181892 222.019503 
L 235.19803 221.930948 
L 235.230307 222.108058 
L 235.262584 222.108058 
L 235.359413 222.196612 
L 235.504658 222.462277 
L 235.601488 222.550832 
L 235.730594 222.727941 
L 235.908115 222.816496 
L 236.021083 222.905051 
L 236.117913 222.993606 
L 236.263158 223.25927 
L 236.279296 223.170716 
L 236.343849 223.25927 
L 236.505232 223.61349 
L 236.876413 223.524935 
L 237.005519 223.347825 
L 237.070073 223.524935 
L 237.118488 223.43638 
L 237.231456 223.347825 
L 237.392839 223.25927 
L 237.521945 223.082161 
L 237.683328 222.993606 
L 237.844711 222.639387 
L 237.957679 222.550832 
L 238.070647 222.462277 
L 238.167477 222.373722 
L 238.296583 222.196612 
L 238.474104 222.108058 
L 238.554796 221.930948 
L 238.587072 222.019503 
L 238.667764 221.930948 
L 238.780732 221.842393 
L 238.845285 221.753838 
L 238.942115 221.665283 
L 238.958253 221.753838 
L 239.022806 221.576729 
L 239.151913 221.488174 
L 239.297157 221.222509 
L 239.361711 221.133954 
L 239.490817 220.956845 
L 239.732891 220.86829 
L 239.845859 220.779735 
L 240.152487 220.69118 
L 240.265455 220.602626 
L 240.572083 220.514071 
L 240.685051 220.425516 
L 240.959402 220.336961 
L 241.088508 220.159851 
L 241.459689 220.071297 
L 241.588795 219.894187 
L 241.717902 219.805632 
L 241.847008 219.628522 
L 241.895423 219.539968 
L 242.008391 219.451413 
L 242.169774 219.539968 
L 242.363433 232.468972 
L 242.799167 243.184107 
L 243.234901 250.357048 
L 243.654497 255.581782 
L 243.767465 256.732995 
L 244.396859 262.489059 
L 244.606657 264.171601 
L 244.945561 266.739691 
L 246.430284 274.355406 
L 246.46256 274.443961 
L 246.769188 275.595173 
L 246.801465 275.683728 
L 247.108092 276.834941 
L 247.172645 276.923496 
L 247.382443 277.54338 
L 247.41472 277.631934 
L 247.624518 278.251818 
L 247.672933 278.340373 
L 247.898869 279.048812 
L 247.963422 279.137366 
L 248.157081 279.668695 
L 248.221635 279.75725 
L 248.383018 280.11147 
L 248.463709 280.200024 
L 248.64123 280.642798 
L 248.721922 280.731353 
L 248.867166 280.997018 
L 248.996273 281.085573 
L 249.141517 281.351237 
L 249.189932 281.439792 
L 249.335177 281.705456 
L 249.544975 281.794011 
L 249.674081 281.971121 
L 249.722496 282.059676 
L 249.851602 282.236785 
L 249.964571 282.32534 
L 250.093677 282.50245 
L 250.384166 282.591005 
L 250.497134 282.67956 
L 250.593964 282.768114 
L 250.610102 282.856669 
L 250.690794 282.768114 
L 250.884453 282.856669 
L 250.997421 282.945224 
L 251.255634 283.033779 
L 251.271772 283.122334 
L 251.336326 283.033779 
L 251.368602 282.945224 
L 251.433155 283.033779 
L 251.836613 283.122334 
L 251.852751 283.210888 
L 251.933443 283.122334 
L 252.046411 283.033779 
L 252.546698 282.945224 
L 252.562836 282.856669 
L 252.643528 282.945224 
L 252.853325 282.856669 
L 252.982432 282.67956 
L 253.724793 282.591005 
L 253.821623 282.50245 
L 253.934591 282.591005 
L 254.176666 282.50245 
L 254.305772 282.32534 
L 254.741506 282.236785 
L 254.789921 282.059676 
L 254.838336 282.236785 
L 255.015857 282.148231 
L 255.031995 282.059676 
L 255.096548 282.236785 
L 255.112687 282.148231 
L 255.354761 282.059676 
L 255.467729 281.971121 
L 255.709804 281.882566 
L 255.822772 281.794011 
L 256.000293 281.705456 
L 256.129399 281.528347 
L 256.242367 281.616902 
L 256.419889 281.528347 
L 256.548995 281.351237 
L 256.774931 281.262682 
L 256.791069 281.174127 
L 256.871761 281.262682 
L 256.968591 281.174127 
L 257.081559 281.085573 
L 257.129974 280.997018 
L 257.25908 280.819908 
L 257.517293 280.731353 
L 257.630261 280.642798 
L 258.01758 280.554244 
L 258.146686 280.377134 
L 258.162824 280.465689 
L 258.243516 280.377134 
L 258.259654 280.377134 
L 258.372622 275.240954 
L 259.647548 275.329509 
L 259.679824 275.418064 
L 259.744377 275.329509 
L 260.244665 275.240954 
L 260.276941 275.063844 
L 260.341494 275.240954 
L 261.42276 275.329509 
L 261.471175 275.418064 
L 261.503452 275.329509 
L 261.51959 275.240954 
L 261.600281 275.329509 
L 262.616994 275.240954 
L 262.649271 275.152399 
L 262.713824 275.240954 
L 263.230249 275.329509 
L 263.246387 275.418064 
L 263.327079 275.329509 
L 264.16627 275.418064 
L 264.214685 275.506618 
L 264.2631 275.418064 
L 264.392206 275.506618 
L 264.505175 275.595173 
L 266.377217 275.595173 
L 266.570876 255.758892 
L 267.151855 232.468972 
L 268.265397 204.928421 
L 268.507472 202.006112 
L 268.846376 195.718719 
L 268.910929 73.955831 
L 268.991621 151.52986 
L 269.153004 209.621827 
L 269.18528 209.887491 
L 269.233695 209.533272 
L 269.395078 208.824833 
L 269.572599 209.267608 
L 269.604876 209.356162 
L 269.798535 209.887491 
L 269.814674 209.798937 
L 269.863089 210.064601 
L 269.94378 210.153156 
L 270.089025 210.41882 
L 270.282684 210.507375 
L 270.395652 210.684485 
L 270.524759 210.507375 
L 270.653865 210.507375 
L 270.782971 210.77304 
L 270.79911 210.861595 
L 270.879801 210.77304 
L 271.008907 210.59593 
L 271.154152 210.684485 
L 271.218705 210.861595 
L 271.26712 210.77304 
L 271.428503 210.41882 
L 271.444641 210.507375 
L 271.525333 210.41882 
L 271.638301 210.330266 
L 271.702854 210.241711 
L 271.896514 209.710382 
L 272.009482 209.621827 
L 272.283833 208.647724 
L 272.299971 208.736279 
L 272.380663 208.647724 
L 272.445216 208.647724 
L 272.59046 208.20495 
L 272.816397 207.496511 
L 272.88095 207.407956 
L 273.090748 206.788072 
L 273.123024 206.699518 
L 273.25213 206.522408 
L 273.300545 206.610963 
L 273.461928 206.965182 
L 273.526482 207.053737 
L 273.671726 207.319401 
L 273.800833 207.407956 
L 273.865386 207.496511 
L 273.881524 207.407956 
L 274.075184 206.876627 
L 274.172013 206.788072 
L 274.414088 205.991079 
L 274.446364 205.902524 
L 274.623886 205.45975 
L 274.704577 205.548305 
L 274.752992 205.63686 
L 274.785269 205.45975 
L 274.801407 205.548305 
L 274.86596 205.45975 
L 274.946651 205.28264 
L 274.96279 205.371195 
L 275.043481 205.45975 
L 275.05962 205.371195 
L 275.172588 205.28264 
L 275.350109 204.839866 
L 275.495354 204.751311 
L 275.753566 203.777208 
L 275.801981 203.865763 
L 275.834258 203.777208 
L 276.027917 203.245879 
L 276.060194 203.157325 
L 276.140885 203.245879 
L 276.1893 202.980215 
L 276.221577 202.89166 
L 276.399098 202.094667 
L 276.641172 201.209118 
L 276.657311 201.297673 
L 276.705726 201.120563 
L 277.04463 198.818138 
L 277.286704 195.275945 
L 277.351257 71.210632 
L 277.431949 138.335191 
L 277.593332 206.345298 
L 277.754715 207.673621 
L 278.206587 210.684485 
L 278.448662 212.278472 
L 278.480938 212.367027 
L 278.868257 214.049568 
L 278.900534 213.961013 
L 278.93281 214.138123 
L 278.948949 214.138123 
L 279.094193 214.403788 
L 279.158747 214.492342 
L 279.287853 214.669452 
L 279.320129 214.758007 
L 279.433098 214.846562 
L 279.69131 214.758007 
L 279.836555 214.492342 
L 280.014076 214.403788 
L 280.223874 213.783904 
L 280.54664 213.695349 
L 280.64347 213.606794 
L 280.659608 213.695349 
L 280.740299 213.606794 
L 280.804853 213.518239 
L 280.820991 213.429685 
L 280.885544 213.606794 
L 280.901682 213.518239 
L 281.079204 213.429685 
L 281.192172 213.34113 
L 281.563353 213.252575 
L 281.708597 212.98691 
L 281.789289 213.075465 
L 281.805427 212.98691 
L 282.241161 212.898356 
L 282.370267 212.721246 
L 282.483235 212.632691 
L 282.612342 212.455581 
L 282.951246 212.367027 
L 283.096491 212.101362 
L 283.403118 212.012807 
L 283.532225 211.835698 
L 283.85499 211.747143 
L 284.000235 211.481478 
L 284.04865 211.392923 
L 284.210033 211.038704 
L 284.24231 210.950149 
L 284.387554 210.684485 
L 284.484384 210.59593 
L 284.71032 209.887491 
L 284.90398 209.798937 
L 285.033086 209.621827 
L 285.065363 209.533272 
L 285.259022 209.001943 
L 285.307437 208.913388 
L 285.420405 208.824833 
L 285.46882 208.736279 
L 285.662479 208.20495 
L 285.678618 208.293505 
L 285.743171 208.116395 
L 285.823862 208.02784 
L 285.985245 207.673621 
L 286.146628 207.585066 
L 286.308011 207.230847 
L 286.437118 207.407956 
L 286.517809 207.319401 
L 286.550086 207.230847 
L 286.598501 207.319401 
L 286.711469 207.407956 
L 286.743745 207.319401 
L 286.856713 207.230847 
L 287.486107 207.142292 
L 287.582937 206.965182 
L 287.599075 207.053737 
L 287.760458 206.965182 
L 288.067085 205.813969 
L 288.341436 205.725415 
L 288.486681 205.371195 
L 288.567373 205.63686 
L 288.615788 205.548305 
L 288.809447 205.016976 
L 288.841724 204.928421 
L 288.97083 204.751311 
L 289.132213 205.105531 
L 289.245181 205.194086 
L 289.374287 205.371195 
L 289.567947 205.28264 
L 289.810021 204.485647 
L 289.987543 204.397092 
L 290.342585 202.980215 
L 290.358723 203.06877 
L 290.391 202.89166 
L 290.439415 202.980215 
L 290.552383 202.89166 
L 290.665351 202.803105 
L 290.697628 202.71455 
L 290.842872 202.448886 
L 290.907425 202.360331 
L 291.004255 202.183221 
L 291.020394 202.271776 
L 291.05267 202.183221 
L 291.197915 201.917557 
L 291.230191 201.829002 
L 292.069383 196.869932 
L 292.101659 194.124732 
L 292.166212 71.564851 
L 292.230766 125.583296 
L 292.408287 205.725415 
L 292.553532 206.433853 
L 292.634223 206.522408 
L 293.376585 210.064601 
L 293.424999 210.153156 
L 293.780042 211.570033 
L 293.844595 211.658588 
L 294.054393 212.367027 
L 294.070531 212.278472 
L 294.118946 212.455581 
L 294.135084 212.455581 
L 294.248053 212.544136 
L 294.377159 212.721246 
L 294.490127 212.632691 
L 294.667648 212.721246 
L 294.812893 212.98691 
L 294.877446 213.075465 
L 294.990414 213.16402 
L 295.11952 213.252575 
L 295.21635 213.34113 
L 295.345457 213.16402 
L 295.571393 213.075465 
L 295.732776 212.721246 
L 295.797329 212.632691 
L 295.926435 212.455581 
L 295.990988 212.367027 
L 296.120095 212.189917 
L 296.200786 212.101362 
L 296.378308 211.658588 
L 296.555829 211.570033 
L 296.571967 211.481478 
L 296.652659 211.570033 
L 296.83018 212.012807 
L 297.346605 211.924252 
L 297.507988 211.570033 
L 297.717786 211.481478 
L 297.927584 210.861595 
L 298.040552 210.77304 
L 298.15352 210.507375 
L 298.169658 210.59593 
L 298.234211 210.507375 
L 298.444009 209.887491 
L 298.524701 209.798937 
L 298.637669 209.621827 
L 298.653807 209.710382 
L 298.702222 209.533272 
L 298.71836 209.533272 
L 298.976573 208.647724 
L 299.057265 208.559169 
L 299.267062 207.939285 
L 299.315477 207.85073 
L 299.347754 207.762176 
L 299.412307 207.85073 
L 299.912594 207.762176 
L 300.041701 207.585066 
L 300.073977 207.496511 
L 300.170807 207.319401 
L 300.186945 207.407956 
L 300.219222 207.496511 
L 300.267637 207.319401 
L 300.541988 207.230847 
L 300.671094 207.053737 
L 300.735647 207.142292 
L 300.767924 207.053737 
L 300.961583 206.965182 
L 301.139105 206.522408 
L 301.155243 206.610963 
L 301.203658 206.433853 
L 301.219796 206.433853 
L 301.397317 206.345298 
L 301.526424 206.168189 
L 301.816913 206.256743 
L 301.929881 206.345298 
L 302.139679 206.433853 
L 302.284924 206.699518 
L 302.397892 206.610963 
L 302.51086 206.699518 
L 302.672243 206.256743 
L 302.752934 206.433853 
L 302.785211 206.345298 
L 302.849764 206.256743 
L 303.027285 205.813969 
L 303.091838 205.725415 
L 303.26936 205.28264 
L 303.333913 205.194086 
L 303.479157 204.928421 
L 303.575987 204.839866 
L 303.721232 204.574202 
L 303.850338 204.485647 
L 304.011721 204.131428 
L 304.108551 204.042873 
L 304.286072 203.600099 
L 304.528147 203.511544 
L 304.608838 203.245879 
L 304.657253 203.334434 
L 304.721806 203.334434 
L 304.818636 202.980215 
L 304.850912 203.06877 
L 304.899327 203.06877 
L 305.06071 202.271776 
L 305.109125 202.360331 
L 305.125263 202.271776 
L 305.270508 201.829002 
L 305.367338 201.740447 
L 305.560997 201.209118 
L 305.609412 201.120563 
L 306.190391 197.489816 
L 306.351774 194.213287 
L 306.416327 72.007625 
L 306.497019 138.600855 
L 306.658402 205.28264 
L 306.739093 205.991079 
L 306.787508 205.813969 
L 306.932753 205.45975 
L 306.948891 205.548305 
L 306.997306 205.371195 
L 307.029582 205.45975 
L 307.207104 205.548305 
L 307.820359 208.382059 
L 307.868774 208.470614 
L 308.046295 208.913388 
L 308.110848 209.001943 
L 308.304508 209.976046 
L 308.465891 210.330266 
L 308.788657 210.241711 
L 308.885486 210.153156 
L 308.998454 210.241711 
L 309.095284 210.330266 
L 309.22439 210.507375 
L 309.337359 210.41882 
L 309.466465 210.507375 
L 309.579433 210.59593 
L 309.708539 210.41882 
L 309.756954 210.330266 
L 309.789231 210.241711 
L 309.853784 210.330266 
L 310.111997 210.41882 
L 310.224965 210.507375 
L 310.499316 210.41882 
L 310.628422 210.241711 
L 310.967326 210.153156 
L 311.096433 209.976046 
L 311.160986 209.887491 
L 311.322369 209.533272 
L 311.354645 209.444717 
L 311.532167 209.001943 
L 311.564443 208.913388 
L 311.709688 208.647724 
L 311.919486 208.559169 
L 312.032454 208.470614 
L 312.306805 208.382059 
L 312.468188 208.02784 
L 312.532741 207.939285 
L 312.694124 207.585066 
L 312.903922 207.496511 
L 313.033028 207.319401 
L 313.081443 207.230847 
L 313.210549 207.053737 
L 313.355794 206.965182 
L 313.371932 206.876627 
L 313.452624 206.965182 
L 313.67856 206.876627 
L 313.743113 206.965182 
L 313.823805 206.610963 
L 313.936773 206.522408 
L 314.049741 206.433853 
L 314.43706 206.345298 
L 314.646858 205.725415 
L 314.743687 205.63686 
L 314.856655 205.371195 
L 314.872794 205.45975 
L 314.985762 205.371195 
L 315.163283 204.928421 
L 315.243975 204.839866 
L 315.405358 204.485647 
L 315.599017 204.397092 
L 315.728123 204.131428 
L 315.744262 204.219982 
L 315.824953 204.131428 
L 315.937921 203.954318 
L 316.583453 206.965182 
L 316.793251 206.876627 
L 316.809389 206.788072 
L 316.873942 206.876627 
L 316.890081 206.965182 
L 316.938496 206.788072 
L 316.954634 206.788072 
L 317.164432 206.699518 
L 317.2774 206.522408 
L 317.406506 206.699518 
L 317.713134 206.610963 
L 317.826102 206.522408 
L 317.874517 206.433853 
L 318.197283 205.105531 
L 318.213421 205.194086 
L 318.261836 205.016976 
L 318.294112 205.105531 
L 318.713708 203.334434 
L 318.745985 203.245879 
L 318.988059 202.448886 
L 319.020336 202.448886 
L 319.197857 201.563338 
L 319.310825 201.563338 
L 319.472208 200.943454 
L 319.633591 199.526577 
L 319.859527 195.895829 
L 319.891804 136.29843 
L 319.92408 73.158838 
L 319.988633 115.045271 
L 320.166155 203.157325 
L 320.246846 203.954318 
L 320.295261 203.688653 
L 320.359814 203.777208 
L 320.553474 204.308537 
L 320.666442 204.397092 
L 320.811686 204.662757 
L 320.87624 204.751311 
L 321.279697 206.433853 
L 321.328112 206.522408 
L 321.489495 206.876627 
L 321.53791 206.965182 
L 321.667016 207.142292 
L 321.796122 207.230847 
L 321.925229 207.407956 
L 321.989782 207.496511 
L 322.135027 207.762176 
L 322.29641 207.85073 
L 322.441654 208.116395 
L 322.473931 208.02784 
L 322.538484 208.116395 
L 322.66759 208.293505 
L 322.76442 208.382059 
L 322.974218 209.001943 
L 323.006495 209.090498 
L 323.119463 209.179053 
L 323.652026 209.090498 
L 323.764994 208.913388 
L 323.797271 209.001943 
L 323.861824 208.913388 
L 323.910239 208.824833 
L 324.023207 208.559169 
L 324.039345 208.647724 
L 324.152314 208.559169 
L 324.168452 208.470614 
L 324.200728 208.647724 
L 324.216867 208.647724 
L 324.265282 208.736279 
L 324.313696 208.647724 
L 324.426665 208.470614 
L 324.539633 208.559169 
L 324.555771 208.470614 
L 324.636462 208.559169 
L 324.765569 208.647724 
L 324.830122 208.736279 
L 324.862399 208.647724 
L 325.023781 208.736279 
L 325.056058 208.824833 
L 325.120611 208.736279 
L 325.685452 208.647724 
L 325.814558 208.470614 
L 325.895249 208.382059 
L 326.024356 208.20495 
L 326.185739 208.116395 
L 326.347122 207.762176 
L 326.395537 207.673621 
L 326.540781 207.230847 
L 326.589196 207.142292 
L 326.750579 206.788072 
L 326.782856 206.699518 
L 326.911962 206.522408 
L 326.992653 206.433853 
L 327.137898 206.168189 
L 327.21859 206.079634 
L 327.299281 205.991079 
L 327.315419 206.079634 
L 327.58977 205.991079 
L 327.638185 205.902524 
L 327.6866 205.991079 
L 327.767292 205.902524 
L 327.944813 205.45975 
L 328.186887 205.371195 
L 328.412823 204.662757 
L 328.493515 204.662757 
L 328.622621 204.131428 
L 328.63876 204.219982 
L 328.961525 204.308537 
L 328.977664 204.397092 
L 329.00994 204.219982 
L 329.042217 204.219982 
L 329.219738 204.131428 
L 329.332706 203.777208 
L 329.364983 203.865763 
L 329.413398 203.777208 
L 329.590919 203.334434 
L 329.703887 203.422989 
L 329.86527 203.334434 
L 329.9621 202.89166 
L 330.010515 203.06877 
L 330.091206 203.334434 
L 330.123483 203.157325 
L 330.204174 203.06877 
L 330.397834 202.537441 
L 330.43011 202.625996 
L 330.478525 202.448886 
L 330.688323 202.448886 
L 330.833568 202.006112 
L 330.930398 202.006112 
L 331.124057 222.285167 
L 331.495238 236.631049 
L 332.076216 249.560054 
L 332.786301 259.478195 
L 333.528663 266.474026 
L 335.142493 274.79818 
L 335.174769 274.79818 
L 335.336152 275.506618 
L 335.35229 275.506618 
L 335.529812 276.303612 
L 335.933269 277.986154 
L 335.965546 278.074709 
L 336.191482 278.783147 
L 336.239897 278.871702 
L 336.433556 279.403031 
L 336.465833 279.491586 
L 336.594939 279.668695 
L 336.675631 279.75725 
L 336.853152 280.200024 
L 336.917705 280.288579 
L 337.079088 280.731353 
L 337.111365 280.642798 
L 337.127503 280.819908 
L 337.159779 280.819908 
L 337.321162 281.174127 
L 337.385716 281.262682 
L 337.547099 281.616902 
L 337.660067 281.705456 
L 337.82145 282.059676 
L 337.950556 282.148231 
L 338.079662 282.413895 
L 338.095801 282.32534 
L 338.144215 282.50245 
L 338.160354 282.413895 
L 338.305598 282.67956 
L 338.434705 282.768114 
L 338.563811 282.945224 
L 338.741332 283.033779 
L 338.838162 283.122334 
L 338.934992 283.033779 
L 338.983407 283.122334 
L 339.031822 283.033779 
L 339.306173 282.945224 
L 339.386864 282.856669 
L 339.403002 282.945224 
L 340.758619 282.856669 
L 340.887726 282.67956 
L 341.049109 282.591005 
L 341.194353 282.32534 
L 341.258906 282.236785 
L 341.388013 282.059676 
L 341.565534 281.971121 
L 341.69464 281.794011 
L 341.79147 281.882566 
L 341.904438 281.794011 
L 342.630662 281.705456 
L 342.6468 281.616902 
L 342.679076 281.794011 
L 342.711353 281.794011 
L 342.888874 281.705456 
L 343.001842 281.616902 
L 343.760342 281.528347 
L 343.792619 281.439792 
L 343.857172 281.528347 
L 343.97014 281.439792 
L 344.050831 281.351237 
L 344.06697 281.439792 
L 344.228353 281.351237 
L 344.341321 281.262682 
L 344.680225 281.174127 
L 344.696363 281.085573 
L 344.777055 281.174127 
L 344.922299 281.085573 
L 345.035268 280.997018 
L 345.600108 280.908463 
L 345.616246 280.819908 
L 345.696938 280.908463 
L 345.793767 280.819908 
L 345.906735 280.731353 
L 346.068118 280.642798 
L 346.181086 280.465689 
L 346.213363 280.554244 
L 346.261778 280.465689 
L 346.374746 280.377134 
L 346.568406 280.288579 
L 346.584544 280.200024 
L 346.665235 280.288579 
L 346.971863 280.200024 
L 347.100969 280.022915 
L 347.940161 280.11147 
L 347.972437 280.200024 
L 348.03699 280.11147 
L 349.666958 280.200024 
L 349.683097 280.288579 
L 349.763788 280.200024 
L 351.16782 280.288579 
L 351.264649 280.377134 
L 351.361479 280.288579 
L 351.393756 280.377134 
L 351.442171 280.288579 
L 351.539 280.200024 
L 351.555139 280.288579 
L 351.63583 280.200024 
L 352.362054 280.288579 
L 352.475022 280.377134 
L 353.072139 280.288579 
L 353.088277 280.200024 
L 353.168968 280.288579 
L 353.362628 280.200024 
L 353.394904 280.11147 
L 353.443319 280.288579 
L 353.524011 280.200024 
L 353.572426 280.11147 
L 353.604702 280.200024 
L 353.669255 280.288579 
L 353.701532 280.200024 
L 354.702106 280.11147 
L 354.815074 280.022915 
L 354.831213 280.11147 
L 354.879628 279.93436 
L 354.895766 280.022915 
L 355.008734 279.93436 
L 355.13784 279.845805 
L 355.3315 240.970236 
L 355.79951 201.563338 
L 355.89634 186.951791 
L 355.944755 68.996761 
L 356.009308 127.974276 
L 356.154553 199.792241 
L 356.170691 199.615131 
L 356.364351 192.973519 
L 356.800085 181.018618 
L 356.864638 71.653406 
L 356.945329 126.734508 
L 357.122851 192.973519 
L 357.284234 194.567506 
L 357.477893 195.098835 
L 357.590861 195.098835 
L 357.703829 195.453055 
L 357.719968 195.3645 
L 357.865212 195.275945 
L 358.17184 194.124732 
L 358.236393 194.036177 
L 358.73668 190.759649 
L 359.043308 186.331907 
L 359.172414 180.133069 
L 359.236967 68.111213 
L 359.30152 112.565736 
L 359.49518 193.239184 
L 359.672701 195.807274 
L 359.898637 196.604267 
L 359.930914 196.515712 
L 359.995467 196.604267 
L 360.237542 196.515712 
L 360.511893 195.541609 
L 360.640999 195.453055 
L 360.834658 194.744616 
L 360.850797 194.833171 
L 360.947627 194.744616 
L 361.092871 194.301842 
L 361.10901 194.390397 
L 361.173563 194.301842 
L 361.318807 194.036177 
L 361.351084 193.947622 
L 361.625435 192.973519 
L 361.706126 192.884965 
L 361.867509 192.530745 
L 361.883648 192.530745 
L 362.028892 191.999416 
L 362.125722 191.910861 
L 362.416211 190.848204 
L 362.496903 190.759649 
L 363.223126 187.30601 
L 363.255403 187.217456 
L 363.545892 184.029482 
L 363.56203 182.34694 
L 363.626584 66.96 
L 363.707275 123.28087 
L 363.884796 192.087971 
L 364.046179 194.390397 
L 364.143009 194.478951 
L 364.272115 194.656061 
L 364.32053 194.744616 
L 364.352807 194.921726 
L 364.433498 194.833171 
L 364.449637 194.744616 
L 364.51419 194.833171 
L 364.594881 195.01028 
L 364.627158 194.921726 
L 364.836956 195.01028 
L 364.853094 195.098835 
L 364.885371 194.921726 
L 364.917647 194.921726 
L 365.159722 194.124732 
L 365.17586 194.124732 
L 365.337243 193.416294 
L 365.595456 193.327739 
L 366.240987 190.316875 
L 366.321679 190.405429 
L 366.370094 190.582539 
L 366.40237 190.405429 
L 366.757413 188.988552 
L 366.821966 188.988552 
L 366.967211 188.457223 
L 367.015626 188.634333 
L 367.06404 188.457223 
L 367.193147 188.368668 
L 367.91937 183.940927 
L 367.983923 181.992721 
L 368.0162 139.663513 
L 368.064615 68.199768 
L 368.129168 110.528975 
L 368.338966 191.202423 
L 368.516487 193.239184 
L 368.694008 193.681958 
L 368.806976 193.593403 
L 368.919944 193.681958 
L 369.178157 193.770513 
L 369.194295 193.859068 
L 369.24271 193.770513 
L 369.323402 193.593403 
L 369.355678 193.681958 
L 369.387955 193.947622 
L 369.468646 193.859068 
L 369.646168 193.416294 
L 369.662306 193.504848 
L 369.710721 193.327739 
L 369.888242 192.79641 
L 369.920519 192.884965 
L 369.968934 192.707855 
L 370.485359 190.405429 
L 370.533774 190.316875 
L 370.695157 189.519881 
L 370.808125 189.608436 
L 371.050199 188.811442 
L 371.082476 188.722888 
L 371.211582 188.280114 
L 371.243859 188.368668 
L 371.292274 188.280114 
L 371.389104 188.014449 
L 371.42138 188.103004 
L 371.534348 188.191559 
L 371.679593 188.634333 
L 371.744146 188.457223 
L 371.776423 188.634333 
L 371.840976 188.545778 
L 371.970082 188.191559 
L 371.98622 188.280114 
L 372.08305 188.191559 
L 372.502646 186.420462 
L 372.534923 186.331907 
L 372.776997 184.826475 
L 372.857688 183.852372 
L 372.922242 180.664398 
L 372.986795 67.668439 
L 373.067486 115.842265 
L 373.261146 189.165662 
L 373.454805 191.113868 
L 373.680741 191.822307 
L 373.858263 191.733752 
L 373.955092 191.556642 
L 373.971231 191.645197 
L 374.051922 191.822307 
L 374.084199 191.733752 
L 374.293997 191.025313 
L 374.310135 191.113868 
L 374.35855 190.848204 
L 374.519933 190.405429 
L 374.536071 190.493984 
L 374.600624 190.316875 
L 374.842699 190.22832 
L 375.052497 189.608436 
L 375.100911 189.696991 
L 375.197741 189.8741 
L 375.21388 189.785546 
L 375.262294 189.696991 
L 375.488231 188.988552 
L 375.520507 188.899997 
L 375.843273 187.571675 
L 375.891688 187.748785 
L 375.923965 187.571675 
L 376.149901 186.863236 
L 376.182177 186.951791 
L 376.24673 186.863236 
L 376.295145 186.774681 
L 376.666326 185.269249 
L 376.795432 185.180695 
L 377.10206 183.055379 
L 377.182752 180.930063 
L 377.215028 148.784661 
L 377.263443 68.376877 
L 377.327996 104.595802 
L 377.537794 187.040346 
L 377.683039 189.342771 
L 377.699177 189.254217 
L 377.908975 189.8741 
L 377.941251 189.962655 
L 378.102634 190.316875 
L 378.231741 190.405429 
L 378.280156 190.493984 
L 378.32857 190.405429 
L 378.473815 190.139765 
L 378.586783 190.05121 
L 378.828858 189.254217 
L 378.861134 189.165662 
L 378.990241 188.899997 
L 379.119347 189.077107 
L 379.167762 188.988552 
L 379.458251 187.925894 
L 379.522804 187.837339 
L 379.651911 187.66023 
L 379.74874 187.571675 
L 379.974677 186.863236 
L 380.023091 186.774681 
L 380.216751 185.623469 
L 380.232889 185.712024 
L 380.265166 185.534914 
L 380.281304 185.534914 
L 380.410411 185.357804 
L 380.491102 185.446359 
L 380.571794 185.623469 
L 380.60407 185.534914 
L 380.684762 185.446359 
L 380.846145 185.09214 
L 380.862283 185.180695 
L 380.894559 184.91503 
L 381.088219 184.295146 
L 381.104357 184.383701 
L 381.16891 184.206591 
L 381.523953 179.247521 
L 381.55623 173.580012 
L 381.620783 68.022658 
L 381.685336 103.710253 
L 381.911272 188.191559 
L 382.104932 190.22832 
L 382.185623 190.316875 
L 382.347006 190.671094 
L 382.379283 190.759649 
L 382.540666 191.113868 
L 382.702048 191.025313 
L 382.927985 190.316875 
L 383.121644 190.405429 
L 383.234612 190.759649 
L 383.266889 190.671094 
L 383.379857 190.759649 
L 383.395995 190.848204 
L 383.44441 190.671094 
L 383.460548 190.671094 
L 383.654208 190.139765 
L 383.702623 190.05121 
L 383.815591 189.608436 
L 383.864006 189.696991 
L 383.896282 189.608436 
L 384.089942 189.077107 
L 384.122218 189.165662 
L 384.170633 188.988552 
L 384.219048 188.899997 
L 384.396569 188.457223 
L 384.461123 188.368668 
L 384.557952 188.280114 
L 384.606367 188.457223 
L 384.67092 188.368668 
L 384.735474 188.280114 
L 384.896857 187.837339 
L 384.945272 187.925894 
L 384.993686 187.837339 
L 385.042101 187.748785 
L 385.090516 187.837339 
L 385.171208 187.748785 
L 385.300314 187.394565 
L 385.316452 187.48312 
L 385.348729 187.571675 
L 385.364867 187.66023 
L 385.42942 187.48312 
L 386.123367 183.143934 
L 386.317027 178.184863 
L 386.38158 69.882309 
L 386.47841 122.395322 
L 386.672069 186.686127 
L 386.833452 188.368668 
L 386.84959 188.280114 
L 386.881867 188.545778 
L 387.107803 189.342771 
L 387.14008 189.254217 
L 387.188495 189.431326 
L 387.285324 189.519881 
L 387.398292 189.696991 
L 387.575814 189.254217 
L 387.70492 189.165662 
L 387.850165 188.899997 
L 387.89858 188.811442 
L 387.963133 188.722888 
L 387.979271 188.811442 
L 388.140654 189.519881 
L 388.302037 189.165662 
L 388.527973 189.077107 
L 388.640941 188.988552 
L 388.753909 188.899997 
L 388.947569 188.368668 
L 388.979845 188.280114 
L 389.157367 187.837339 
L 389.189643 187.748785 
L 389.641515 185.800578 
L 389.657654 185.800578 
L 389.899728 183.498153 
L 390.093388 181.904166 
L 390.319324 177.03365 
L 390.3516 133.90745 
L 390.400015 69.439535 
L 390.464568 105.127131 
L 390.674366 184.73792 
L 390.835749 186.951791 
L 390.868026 187.040346 
L 391.126239 187.925894 
L 391.158515 187.925894 
L 391.174653 187.748785 
L 391.271483 187.837339 
L 391.352175 187.66023 
L 391.368313 187.748785 
L 391.432866 187.925894 
L 391.481281 187.837339 
L 391.513558 187.66023 
L 391.578111 187.748785 
L 391.691079 187.837339 
L 391.739494 187.748785 
L 391.949292 187.128901 
L 392.078398 187.040346 
L 392.385026 185.889133 
L 392.449579 185.800578 
L 392.610962 185.09214 
L 392.659377 185.003585 
L 392.869174 183.852372 
L 392.885313 183.852372 
L 393.175802 181.815611 
L 393.595398 179.070411 
L 393.724504 175.970993 
L 393.756781 142.585823 
L 393.805196 70.059419 
L 393.869749 98.928293 
L 394.111823 184.029482 
L 394.305483 186.774681 
L 394.499142 187.837339 
L 394.547557 187.925894 
L 394.70894 188.280114 
L 394.741217 188.368668 
L 394.870323 188.545778 
L 394.983291 188.634333 
L 395.015568 188.722888 
L 395.080121 188.634333 
L 395.37061 187.571675 
L 395.419025 187.48312 
L 395.548131 187.30601 
L 395.612685 187.30601 
L 395.757929 186.863236 
L 395.806344 186.774681 
L 395.967727 186.243352 
L 395.983865 186.331907 
L 396.096833 186.243352 
L 396.290493 185.269249 
L 396.32277 185.180695 
L 396.69395 183.675263 
L 396.742365 183.586708 
L 397.048993 182.16983 
L 397.081269 182.258385 
L 397.161961 182.16983 
L 397.517003 177.564979 
L 397.565418 171.277587 
L 397.629972 70.325083 
L 397.710663 108.846433 
L 397.936599 183.409598 
L 398.130259 186.154798 
L 398.162535 186.243352 
L 398.485301 187.48312 
L 398.582131 187.571675 
L 398.711237 187.748785 
L 398.904897 187.66023 
L 399.034003 187.48312 
L 399.211524 187.394565 
L 399.437461 186.686127 
L 399.582705 186.597572 
L 399.744088 186.243352 
L 399.857056 186.331907 
L 399.889333 186.243352 
L 399.937748 186.331907 
L 399.970024 186.420462 
L 400.018439 186.331907 
L 400.405758 184.73792 
L 400.454173 184.649366 
L 401.196535 180.044515 
L 401.406333 175.439664 
L 401.487024 70.325083 
L 401.583854 121.421219 
L 401.777513 181.815611 
L 401.955035 184.649366 
L 402.229386 186.509017 
L 402.358492 186.774681 
L 402.503737 186.509017 
L 402.56829 186.597572 
L 402.584428 186.686127 
L 402.66512 186.597572 
L 402.842641 186.509017 
L 403.052439 185.889133 
L 403.100854 185.800578 
L 403.278375 185.357804 
L 403.342928 185.269249 
L 403.455896 185.09214 
L 403.568864 185.180695 
L 403.923907 185.09214 
L 404.036875 185.003585 
L 404.165981 185.09214 
L 404.214396 185.180695 
L 404.262811 185.09214 
L 404.359641 185.180695 
L 404.424194 185.269249 
L 404.45647 185.180695 
L 404.521024 185.09214 
L 404.730821 184.206591 
L 404.763098 184.295146 
L 405.102002 184.206591 
L 405.327938 183.498153 
L 405.392492 183.409598 
L 405.50546 182.878269 
L 405.537736 182.966824 
L 405.602289 182.878269 
L 405.908917 180.664398 
L 406.247821 175.793883 
L 406.296236 171.631806 
L 406.376928 71.476296 
L 406.441481 106.012679 
L 406.667417 182.612605 
L 406.861076 185.800578 
L 407.248395 187.394565 
L 407.329087 187.48312 
L 407.345225 187.571675 
L 407.39364 187.394565 
L 407.409778 187.394565 
L 407.442055 187.394565 
L 407.571161 187.040346 
L 407.813236 187.128901 
L 407.893927 187.217456 
L 407.910066 187.128901 
L 408.119863 187.217456 
L 408.200555 187.394565 
L 408.232831 187.30601 
L 408.3458 187.217456 
L 408.507182 186.863236 
L 408.604012 186.863236 
L 408.797672 185.889133 
L 409.088161 184.826475 
L 409.152714 184.73792 
L 409.701416 182.16983 
L 409.717555 182.258385 
L 409.749831 182.081276 
L 409.782108 182.081276 
L 409.927352 181.372837 
L 409.959629 181.549947 
L 410.072597 181.638501 
L 410.395363 181.549947 
L 410.927927 178.273418 
L 411.08931 173.580012 
L 411.121586 151.884079 
L 411.186139 71.476296 
L 411.250693 104.507247 
L 411.476629 182.435495 
L 411.65415 185.534914 
L 411.896224 187.040346 
L 412.025331 187.30601 
L 412.154437 187.128901 
L 412.331958 187.040346 
L 412.461065 186.863236 
L 412.622448 186.951791 
L 412.703139 187.30601 
L 412.767692 187.217456 
L 412.961352 186.686127 
L 413.058182 186.597572 
L 413.187288 186.420462 
L 413.300256 186.331907 
L 413.477777 185.623469 
L 413.493916 185.712024 
L 413.623022 185.889133 
L 413.784405 185.534914 
L 413.83282 185.446359 
L 414.284692 183.498153 
L 414.365384 183.409598 
L 414.413799 183.498153 
L 414.49449 183.232488 
L 414.526767 183.143934 
L 414.704288 182.34694 
L 414.752703 182.435495 
L 414.784979 182.34694 
L 415.123884 180.044515 
L 415.398235 174.022786 
L 415.446649 98.574073 
L 415.478926 71.210632 
L 415.543479 100.34517 
L 415.785554 182.612605 
L 415.979213 185.446359 
L 416.189011 186.597572 
L 416.398809 187.217456 
L 416.624745 187.128901 
L 416.705436 187.040346 
L 416.721575 187.128901 
L 416.76999 187.128901 
L 416.931373 186.509017 
L 416.963649 186.597572 
L 416.995926 186.509017 
L 417.14117 186.066243 
L 417.189585 185.977688 
L 417.350968 185.623469 
L 417.399383 185.534914 
L 417.673734 184.560811 
L 417.706011 184.472256 
L 418.077192 182.966824 
L 418.238574 182.878269 
L 418.512926 181.815611 
L 418.529064 181.904166 
L 418.56134 181.727056 
L 418.593617 181.727056 
L 418.642032 181.638501 
L 419.110042 178.539083 
L 419.31984 175.085444 
L 419.352117 172.163135 
L 419.432808 71.387741 
L 419.5135 110.528975 
L 419.771713 204.308537 
L 420.013787 226.270134 
L 420.433383 243.538326 
L 420.83684 253.190802 
L 421.224159 259.301085 
L 421.627616 264.171601 
L 421.756723 265.411368 
L 422.208595 269.219226 
L 422.660467 272.23009 
L 422.870265 273.469857 
L 422.902542 273.558412 
L 423.612627 276.923496 
L 423.644903 277.012051 
L 424.048361 278.694592 
L 424.096776 278.783147 
L 424.354988 279.668695 
L 424.403403 279.75725 
L 424.564786 280.377134 
L 424.645478 280.465689 
L 424.839137 280.997018 
L 424.871414 281.085573 
L 425.081212 281.705456 
L 425.113488 281.794011 
L 425.274871 282.148231 
L 425.339424 282.236785 
L 425.516946 282.67956 
L 425.581499 282.768114 
L 425.726743 283.033779 
L 425.839712 283.122334 
L 426.001094 283.476553 
L 426.097924 283.565108 
L 426.243169 283.830772 
L 426.32386 283.919327 
L 426.469105 284.184992 
L 426.565935 284.273546 
L 426.678903 284.450656 
L 426.695041 284.362101 
L 426.759594 284.539211 
L 426.856424 284.627766 
L 426.98553 284.804875 
L 427.033945 284.89343 
L 427.146913 284.981985 
L 427.243743 285.07054 
L 427.388988 285.336204 
L 427.421264 285.24765 
L 427.485818 285.336204 
L 428.131349 285.424759 
L 428.260456 285.601869 
L 429.148062 285.690424 
L 429.1642 285.778978 
L 429.244892 285.690424 
L 429.341722 285.601869 
L 429.45469 285.690424 
L 429.729041 285.778978 
L 429.793594 285.867533 
L 429.82587 285.778978 
L 430.697338 285.690424 
L 430.810306 285.601869 
L 431.310594 285.513314 
L 431.375147 285.424759 
L 431.407423 285.513314 
L 431.972264 285.424759 
L 432.10137 285.24765 
L 432.633934 285.159095 
L 432.746902 285.07054 
L 433.392434 284.981985 
L 433.505402 284.89343 
L 433.795891 284.804875 
L 433.860444 284.627766 
L 433.908859 284.716321 
L 433.989551 284.804875 
L 434.005689 284.716321 
L 434.74805 284.627766 
L 434.861019 284.539211 
L 435.232199 284.450656 
L 435.345167 284.362101 
L 435.635657 284.273546 
L 435.732486 284.184992 
L 435.780901 284.273546 
L 435.780901 284.273546 
" style="fill:none;stroke:#1f77b4;stroke-linecap:square;stroke-width:1.5;"/>
   </g>
   <g id="line2d_14">
    <path clip-path="url(#pca628de6d2)" d="M 80.754545 276.285901 
L 81.383939 275.143331 
L 81.997194 274.290938 
L 82.255407 273.982625 
L 83.17529 273.112096 
L 83.336673 273.00328 
L 83.723992 272.731239 
L 83.93379 272.622423 
L 84.224279 272.459199 
L 84.466353 272.350383 
L 84.724566 272.223431 
L 85.031194 272.114614 
L 85.25713 272.023934 
L 85.660587 271.915118 
L 85.870385 271.842574 
L 86.402949 271.733758 
L 86.596608 271.67935 
L 87.33897 271.570534 
L 87.516491 271.534261 
L 88.630034 271.425445 
L 88.791416 271.407309 
L 88.904385 271.389173 
L 89.775852 256.78967 
L 90.64732 246.488406 
L 91.373544 240.249612 
L 92.438671 233.811322 
L 92.955097 231.508046 
L 94.375267 227.100991 
L 95.391979 225.087892 
L 95.827713 224.434995 
L 96.134341 224.017866 
L 97.570649 222.566984 
L 97.715894 222.458168 
L 98.119351 222.167991 
L 98.296872 222.059175 
L 98.619638 221.859679 
L 98.829436 221.750863 
L 99.103787 221.605775 
L 99.345862 221.496958 
L 99.604074 221.370006 
L 99.910702 221.26119 
L 100.152776 221.152374 
L 100.507819 221.043558 
L 100.717617 220.971014 
L 101.088797 220.862197 
L 101.298595 220.789653 
L 101.782744 220.680837 
L 101.976404 220.626429 
L 102.508967 220.517613 
L 102.702627 220.463205 
L 103.364297 220.354389 
L 103.541818 220.318117 
L 104.268042 220.2093 
L 104.445563 220.173028 
L 105.349307 220.064212 
L 105.526829 220.02794 
L 106.624233 219.919124 
L 106.785616 219.900988 
L 107.931435 219.792172 
L 108.092818 219.774036 
L 109.416158 219.66522 
L 109.577541 219.647084 
L 111.126817 219.538267 
L 111.2882 219.520131 
L 113.047274 219.411315 
L 113.208657 219.393179 
L 115.193667 219.284363 
L 115.35505 219.266227 
L 117.598273 219.157411 
L 117.759656 219.139275 
L 120.293369 219.030459 
L 120.454752 219.012323 
L 123.327368 218.903506 
L 123.488751 218.88537 
L 126.81324 218.776554 
L 126.974623 218.758418 
L 130.88009 218.649602 
L 131.041473 218.631466 
L 135.786132 218.52265 
L 135.947515 218.504514 
L 141.918684 218.395698 
L 142.080067 218.377562 
L 150.19763 218.268745 
L 150.359013 218.250609 
L 153.457565 218.214337 
L 154.216065 231.344822 
L 154.877735 240.068252 
L 155.733065 248.428961 
L 156.330182 252.799744 
L 157.00799 256.644582 
L 158.089256 260.997229 
L 158.799341 263.010328 
L 159.880607 265.168515 
L 160.380894 265.893957 
L 160.671383 266.274813 
L 161.784926 267.362975 
L 161.946309 267.471791 
L 162.349766 267.761968 
L 162.527287 267.870784 
L 162.833915 268.052144 
L 163.059851 268.16096 
L 163.334202 268.306048 
L 163.608553 268.414865 
L 163.850627 268.523681 
L 164.189532 268.632497 
L 164.415468 268.723177 
L 164.818925 268.831993 
L 165.028723 268.904537 
L 165.52901 269.013353 
L 165.72267 269.067762 
L 166.319787 269.176578 
L 166.497308 269.21285 
L 167.191254 269.321666 
L 167.368776 269.357938 
L 168.288659 269.466754 
L 168.46618 269.503026 
L 169.515169 269.611842 
L 169.531307 276.285901 
L 169.628137 276.086405 
L 169.854073 275.669276 
L 170.322084 274.889427 
L 172.226403 272.9126 
L 172.403924 272.803783 
L 172.72669 272.604287 
L 172.936488 272.495471 
L 173.210839 272.350383 
L 173.48519 272.241567 
L 173.727264 272.13275 
L 174.082307 272.023934 
L 174.292104 271.95139 
L 174.7117 271.842574 
L 174.90536 271.788166 
L 175.454062 271.67935 
L 175.631583 271.643078 
L 176.390083 271.534261 
L 176.567604 271.497989 
L 177.681146 271.389173 
L 178.520338 252.545839 
L 179.262699 240.412836 
L 180.150306 229.875804 
L 181.279986 220.717109 
L 182.070763 216.128694 
L 183.70073 209.309547 
L 186.54107 199.352867 
L 187.073634 196.469239 
L 187.509368 192.787625 
L 187.783719 188.598202 
L 187.977379 182.141776 
L 188.074208 171.749832 
L 188.187177 208.819874 
L 188.364698 208.819874 
L 189.38141 215.96547 
L 190.23674 220.173028 
L 191.414836 223.763962 
L 192.028091 224.87026 
L 193.157771 225.976558 
L 193.415984 226.085374 
L 193.625782 226.157918 
L 195.207335 226.049102 
L 195.433271 225.958421 
L 195.691484 225.849605 
L 195.965835 225.704517 
L 196.175633 225.595701 
L 196.498399 225.396205 
L 196.692058 225.287388 
L 197.079377 225.015348 
L 197.24076 224.906532 
L 197.676494 224.580083 
L 197.821739 224.471267 
L 198.322026 224.072274 
L 198.467271 223.963458 
L 199.032111 223.491922 
L 199.177356 223.383105 
L 199.822887 222.820889 
L 199.951994 222.712072 
L 200.597526 222.149855 
L 200.726632 222.041039 
L 201.40444 221.44255 
L 201.533547 221.333734 
L 202.195217 220.753381 
L 202.324323 220.644565 
L 202.985993 220.064212 
L 203.1151 219.955396 
L 203.760631 219.393179 
L 203.905876 219.284363 
L 204.567546 218.70401 
L 204.712791 218.595194 
L 205.342184 218.051113 
L 205.487429 217.942297 
L 206.100684 217.416352 
L 206.245929 217.307536 
L 206.843046 216.799727 
L 206.98829 216.690911 
L 207.553131 216.219374 
L 207.698375 216.110558 
L 208.263216 215.639021 
L 208.40846 215.530205 
L 208.941024 215.09494 
L 209.086269 214.986124 
L 209.618833 214.550859 
L 209.764077 214.442043 
L 210.280503 214.024915 
L 210.425747 213.916098 
L 210.942173 213.49897 
L 211.087417 213.390154 
L 211.603843 212.973025 
L 211.749088 212.864209 
L 212.249375 212.465216 
L 212.394619 212.3564 
L 212.911045 211.939271 
L 213.056289 211.830455 
L 213.588853 211.39519 
L 213.734098 211.286374 
L 214.266662 210.85111 
L 214.411906 210.742293 
L 214.976747 210.270757 
L 215.121991 210.161941 
L 215.70297 209.672268 
L 215.848214 209.563452 
L 216.493746 209.001235 
L 216.622853 208.892419 
L 217.300661 208.29393 
L 217.429767 208.185113 
L 218.25282 207.4234 
L 218.381927 207.314584 
L 222.061458 203.016345 
L 222.529469 202.236496 
L 222.771543 201.801231 
L 224.094883 198.554882 
L 224.627447 196.378559 
L 225.127734 192.987121 
L 225.402085 189.595684 
L 225.611883 184.390644 
L 225.740989 175.231949 
L 225.773266 167.451593 
L 225.886234 208.819874 
L 226.063755 208.892419 
L 226.822255 215.457661 
L 227.516202 220.064212 
L 228.274702 223.709554 
L 228.791127 225.523157 
L 230.162882 228.334241 
L 230.889106 228.987138 
L 231.098903 229.095954 
L 231.32484 229.186635 
L 232.922531 229.077818 
L 233.164605 228.969002 
L 233.390541 228.860186 
L 233.681031 228.696962 
L 233.87469 228.588146 
L 234.245871 228.334241 
L 234.407254 228.225425 
L 234.859126 227.880841 
L 235.004371 227.772024 
L 235.553073 227.318624 
L 235.682179 227.209807 
L 236.359988 226.611319 
L 236.489094 226.502502 
L 237.344424 225.704517 
L 237.47353 225.595701 
L 238.457966 224.652627 
L 238.587072 224.543811 
L 239.603785 223.564466 
L 239.732891 223.45565 
L 240.701189 222.530712 
L 240.830295 222.421896 
L 241.73404 221.569503 
L 241.863146 221.460686 
L 242.234327 221.116102 
L 242.992827 237.855656 
L 243.880433 251.85667 
L 244.768039 261.505038 
L 245.510401 267.181615 
L 246.172071 270.8995 
L 246.65622 273.021416 
L 247.769762 276.394717 
L 248.576677 277.93628 
L 250.174368 279.568522 
L 250.384166 279.677338 
L 250.642379 279.804291 
L 250.965145 279.913107 
L 251.174943 279.985651 
L 251.836613 280.094467 
L 251.997996 280.112603 
L 253.918453 280.003787 
L 254.095974 279.967515 
L 254.676953 279.858699 
L 254.870612 279.804291 
L 255.370899 279.695474 
L 255.564559 279.641066 
L 256.000293 279.53225 
L 256.193952 279.477842 
L 256.59741 279.369026 
L 256.807208 279.296482 
L 257.242942 279.187666 
L 257.45274 279.115121 
L 257.856197 279.006305 
L 258.065995 278.933761 
L 258.291931 278.879353 
L 258.404899 276.086405 
L 258.630835 275.669276 
L 259.098846 274.889427 
L 261.003164 272.9126 
L 261.180686 272.803783 
L 261.503452 272.604287 
L 261.713249 272.495471 
L 261.9876 272.350383 
L 262.261951 272.241567 
L 262.504026 272.13275 
L 262.859068 272.023934 
L 263.068866 271.95139 
L 263.488462 271.842574 
L 263.682121 271.788166 
L 264.230823 271.67935 
L 264.408345 271.643078 
L 265.166845 271.534261 
L 265.344366 271.497989 
L 266.457908 271.389173 
L 267.248685 244.529715 
L 268.104014 223.564466 
L 269.072312 206.172014 
L 269.798535 193.077802 
L 270.072886 183.556387 
L 270.185854 170.226405 
L 270.298822 208.819874 
L 270.492482 208.711058 
L 271.347812 204.521636 
L 271.912652 201.474783 
L 272.78412 194.855132 
L 273.139162 189.668228 
L 273.34896 183.030442 
L 273.461928 171.078799 
L 273.574896 208.819874 
L 273.768556 208.910555 
L 274.898237 213.49897 
L 276.124747 215.983606 
L 276.673449 216.437006 
L 277.04463 216.545823 
L 277.206013 216.563959 
L 277.722438 216.455142 
L 277.996789 216.310054 
L 278.174311 216.201238 
L 280.110906 213.86169 
L 280.627331 212.973025 
L 280.885544 212.519624 
L 283.95182 205.355893 
L 285.291299 200.459165 
L 285.823862 197.557401 
L 286.291873 193.67629 
L 286.598501 189.106011 
L 286.79216 182.957898 
L 286.905128 171.151343 
L 287.018096 208.819874 
L 287.211756 208.928691 
L 287.921841 212.973025 
L 288.40599 215.076804 
L 288.857862 216.600231 
L 289.906851 218.685874 
L 290.48783 219.175547 
L 291.698202 219.066731 
L 292.150074 218.722146 
L 292.279181 218.61333 
L 293.602521 216.962951 
L 294.022116 216.291918 
L 294.312606 215.802245 
L 294.958138 214.623404 
L 295.184074 214.206275 
L 298.427871 206.643551 
L 300.23536 200.168989 
L 300.99386 195.326669 
L 301.348902 191.227927 
L 301.590977 185.82339 
L 301.736222 177.353865 
L 301.768498 172.330185 
L 301.881466 208.819874 
L 302.075126 208.928691 
L 303.26936 215.022396 
L 304.124689 217.525168 
L 304.657253 218.450106 
L 305.3512 219.066731 
L 306.545433 218.957914 
L 306.981167 218.631466 
L 307.110274 218.52265 
L 308.465891 216.835999 
L 308.901625 216.128694 
L 309.208252 215.620885 
L 309.886061 214.369499 
L 310.095858 213.970507 
L 313.226688 206.661687 
L 315.034177 200.205261 
L 315.808815 195.254125 
L 316.163857 191.100974 
L 316.389794 186.095431 
L 316.535038 178.188122 
L 316.583453 170.208269 
L 316.696421 208.819874 
L 316.873942 208.874282 
L 317.567889 212.827937 
L 318.455495 216.310054 
L 318.923506 217.507032 
L 319.472208 218.468242 
L 320.150016 219.066731 
L 321.360388 218.957914 
L 321.812261 218.61333 
L 321.941367 218.504514 
L 323.264707 216.854135 
L 323.700441 216.14683 
L 324.007069 215.639021 
L 324.668739 214.423907 
L 324.878537 214.024915 
L 328.041643 206.643551 
L 329.849132 200.168989 
L 330.301004 197.648081 
L 330.769015 193.766971 
L 331.011089 190.466213 
L 331.059504 191.608783 
L 331.462961 204.285867 
L 332.415121 233.648098 
L 333.173621 250.387652 
L 333.883706 261.849622 
L 334.674482 271.044589 
L 335.336152 276.612349 
L 336.20762 281.762982 
L 337.06295 285.100011 
L 338.612226 288.310088 
L 339.451417 289.089937 
L 339.661215 289.198753 
L 339.919428 289.325706 
L 340.322885 289.434522 
L 340.500407 289.470794 
L 341.920577 289.361978 
L 342.130374 289.289434 
L 342.501555 289.180617 
L 342.727491 289.089937 
L 343.001842 288.981121 
L 343.260055 288.854169 
L 343.518268 288.745353 
L 343.792619 288.600264 
L 344.018555 288.491448 
L 344.309044 288.328224 
L 344.53498 288.219408 
L 344.841608 288.038048 
L 345.051406 287.929231 
L 345.374172 287.729735 
L 345.58397 287.620919 
L 345.906735 287.421423 
L 346.100395 287.312606 
L 346.423161 287.11311 
L 346.61682 287.004294 
L 346.939586 286.804798 
L 347.068693 286.732253 
L 347.181661 276.086405 
L 347.407597 275.669276 
L 347.875607 274.889427 
L 349.779926 272.9126 
L 349.957448 272.803783 
L 350.280213 272.604287 
L 350.490011 272.495471 
L 350.764362 272.350383 
L 351.038713 272.241567 
L 351.280788 272.13275 
L 351.63583 272.023934 
L 351.845628 271.95139 
L 352.265224 271.842574 
L 352.458883 271.788166 
L 353.007585 271.67935 
L 353.185107 271.643078 
L 353.943606 271.534261 
L 354.121128 271.497989 
L 355.23467 271.389173 
L 356.025447 217.670256 
L 356.638702 176.138751 
L 356.65484 172.602225 
L 356.767808 208.819874 
L 356.945329 208.819874 
L 357.461755 181.434471 
L 357.526308 170.625398 
L 357.639276 208.819874 
L 357.816797 208.819874 
L 358.430053 185.224901 
L 358.543021 172.221369 
L 358.655989 208.819874 
L 358.83351 208.819874 
L 359.59201 189.505004 
L 359.769531 178.895427 
L 359.817946 170.48031 
L 359.930914 208.819874 
L 360.108435 208.819874 
L 361.01218 196.287879 
L 361.334946 189.033467 
L 361.512467 180.491398 
L 361.57702 171.641016 
L 361.689988 208.819874 
L 361.883648 208.74733 
L 362.206414 207.296448 
L 363.287679 200.640525 
L 363.917073 194.020875 
L 364.207562 188.253618 
L 364.385083 180.183085 
L 364.449637 171.387111 
L 364.562605 208.819874 
L 364.869232 208.928691 
L 365.111307 209.037507 
L 365.434073 208.928691 
L 365.998913 208.130705 
L 366.579892 206.552871 
L 367.16087 204.213323 
L 367.661157 201.456647 
L 368.032338 198.772515 
L 368.419657 194.855132 
L 368.726285 189.79518 
L 368.936083 182.431953 
L 369.032912 171.641016 
L 369.145881 208.819874 
L 369.387955 208.928691 
L 369.678444 209.309547 
L 369.952795 209.454635 
L 370.307838 209.345819 
L 370.872678 208.547834 
L 371.453657 206.969999 
L 372.050774 204.576044 
L 372.567199 201.764959 
L 373.180454 196.904504 
L 373.551635 192.044048 
L 373.79371 186.131703 
L 373.938954 177.136232 
L 373.971231 171.677288 
L 374.084199 208.819874 
L 374.326273 208.928691 
L 374.600624 209.273275 
L 374.82656 209.382091 
L 374.971805 209.400227 
L 375.262294 209.237003 
L 375.375262 209.128187 
L 375.746443 208.547834 
L 376.375837 206.861183 
L 376.956815 204.521636 
L 377.473241 201.692415 
L 378.070358 196.958912 
L 378.441539 192.152864 
L 378.683613 186.367471 
L 378.828858 177.897946 
L 378.877273 168.829931 
L 378.990241 208.819874 
L 379.216177 208.910555 
L 379.490528 209.255139 
L 379.764879 209.400227 
L 380.119921 209.291411 
L 380.668623 208.511562 
L 381.26574 206.897455 
L 381.862857 204.5035 
L 382.363144 201.764959 
L 382.976399 196.92264 
L 383.412133 190.883342 
L 383.63807 184.245556 
L 383.751038 175.231949 
L 383.767176 172.203233 
L 383.880144 208.819874 
L 384.122218 208.928691 
L 384.396569 209.273275 
L 384.654782 209.400227 
L 385.025963 209.291411 
L 385.574665 208.511562 
L 386.171782 206.897455 
L 386.752761 204.557908 
L 387.269186 201.728687 
L 387.656505 198.935739 
L 388.043824 195.072765 
L 388.36659 189.758908 
L 388.576388 182.323137 
L 388.673218 171.151343 
L 388.786186 208.819874 
L 389.02826 208.928691 
L 389.302611 209.273275 
L 389.560824 209.400227 
L 389.915866 209.291411 
L 390.480707 208.493426 
L 391.061685 206.915591 
L 391.658802 204.521636 
L 392.175228 201.692415 
L 392.562547 198.899467 
L 393.062834 193.476794 
L 393.369462 186.984096 
L 393.530845 178.097442 
L 393.579259 169.5191 
L 393.692228 208.819874 
L 393.918164 208.910555 
L 394.192515 209.273275 
L 394.402312 209.382091 
L 394.563695 209.400227 
L 394.821908 209.291411 
L 395.37061 208.511562 
L 395.983865 206.861183 
L 396.548706 204.59418 
L 397.484727 198.718106 
L 397.855908 194.945812 
L 398.162535 189.903997 
L 398.356195 183.556387 
L 398.469163 172.674769 
L 398.485301 167.904994 
L 398.598269 208.819874 
L 398.824205 208.910555 
L 399.098556 209.255139 
L 399.372907 209.400227 
L 399.711812 209.291411 
L 400.276652 208.493426 
L 400.873769 206.879319 
L 401.470886 204.485364 
L 402.37463 198.808787 
L 402.745811 195.072765 
L 403.068577 189.777044 
L 403.278375 182.359409 
L 403.375205 171.332703 
L 403.488173 208.819874 
L 403.730247 208.928691 
L 404.004598 209.273275 
L 404.262811 209.400227 
L 404.617853 209.291411 
L 405.182694 208.493426 
L 405.779811 206.879319 
L 406.360789 204.539772 
L 406.877215 201.710551 
L 407.49047 196.831959 
L 407.861651 191.953368 
L 408.103725 185.932206 
L 408.24897 176.410791 
L 408.281246 170.081317 
L 408.394214 208.819874 
L 408.620151 208.910555 
L 408.894502 209.273275 
L 409.104299 209.382091 
L 409.265682 209.400227 
L 409.523895 209.291411 
L 410.088735 208.493426 
L 410.669714 206.915591 
L 411.266831 204.521636 
L 411.783256 201.692415 
L 412.380373 196.958912 
L 412.751554 192.152864 
L 413.009767 185.768982 
L 413.155012 175.812302 
L 413.187288 168.612299 
L 413.300256 208.819874 
L 413.526192 208.910555 
L 413.800543 209.255139 
L 414.074894 209.400227 
L 414.413799 209.291411 
L 414.994777 208.47529 
L 415.575756 206.897455 
L 416.156734 204.557908 
L 416.689298 201.656143 
L 417.286415 196.904504 
L 417.657596 192.062184 
L 417.915809 185.55135 
L 418.044915 177.208776 
L 418.077192 171.822376 
L 418.19016 208.819874 
L 418.432234 208.928691 
L 418.706585 209.273275 
L 418.964798 209.400227 
L 419.335979 209.291411 
L 419.787851 208.692922 
L 420.610904 263.336777 
L 421.353265 298.248632 
L 422.095627 323.076855 
L 422.789574 339.526233 
L 423.548074 351.967549 
L 424.33885 360.418938 
L 425.048935 365.134305 
L 425.775158 367.909118 
L 426.42069 369.08796 
L 426.775733 369.323728 
L 427.388988 369.214912 
L 428.421839 367.890982 
L 430.229328 363.556471 
L 431.213764 360.618434 
L 431.53653 359.620953 
L 433.812029 352.330269 
L 434.102519 351.405332 
L 435.845455 345.910115 
L 435.845455 345.910115 
" style="fill:none;stroke:#ff0000;stroke-linecap:square;stroke-width:1.5;"/>
   </g>
   <g id="patch_3">
    <path d="M 63 384.48 
L 63 51.84 
" style="fill:none;stroke:#000000;stroke-linecap:square;stroke-linejoin:miter;stroke-width:0.8;"/>
   </g>
   <g id="patch_4">
    <path d="M 453.6 384.48 
L 453.6 51.84 
" style="fill:none;stroke:#000000;stroke-linecap:square;stroke-linejoin:miter;stroke-width:0.8;"/>
   </g>
   <g id="patch_5">
    <path d="M 63 384.48 
L 453.6 384.48 
" style="fill:none;stroke:#000000;stroke-linecap:square;stroke-linejoin:miter;stroke-width:0.8;"/>
   </g>
   <g id="patch_6">
    <path d="M 63 51.84 
L 453.6 51.84 
" style="fill:none;stroke:#000000;stroke-linecap:square;stroke-linejoin:miter;stroke-width:0.8;"/>
   </g>
   <g id="legend_1">
    <g id="patch_7">
     <path d="M 70 89.19625 
L 133.139062 89.19625 
Q 135.139062 89.19625 135.139062 87.19625 
L 135.139062 58.84 
Q 135.139062 56.84 133.139062 56.84 
L 70 56.84 
Q 68 56.84 68 58.84 
L 68 87.19625 
Q 68 89.19625 70 89.19625 
z
" style="fill:#ffffff;opacity:0.8;stroke:#cccccc;stroke-linejoin:miter;"/>
    </g>
    <g id="line2d_15">
     <path d="M 72 64.938437 
L 92 64.938437 
" style="fill:none;stroke:#1f77b4;stroke-linecap:square;stroke-width:1.5;"/>
    </g>
    <g id="line2d_16"/>
    <g id="text_15">
     <!-- target -->
     <defs>
      <path d="M 41.109375 46.296875 
Q 39.59375 47.171875 37.8125 47.578125 
Q 36.03125 48 33.890625 48 
Q 26.265625 48 22.1875 43.046875 
Q 18.109375 38.09375 18.109375 28.8125 
L 18.109375 0 
L 9.078125 0 
L 9.078125 54.6875 
L 18.109375 54.6875 
L 18.109375 46.1875 
Q 20.953125 51.171875 25.484375 53.578125 
Q 30.03125 56 36.53125 56 
Q 37.453125 56 38.578125 55.875 
Q 39.703125 55.765625 41.0625 55.515625 
z
" id="DejaVuSans-114"/>
     </defs>
     <g transform="translate(100 68.438437)scale(0.1 -0.1)">
      <use xlink:href="#DejaVuSans-116"/>
      <use x="39.208984" xlink:href="#DejaVuSans-97"/>
      <use x="100.488281" xlink:href="#DejaVuSans-114"/>
      <use x="141.585938" xlink:href="#DejaVuSans-103"/>
      <use x="205.0625" xlink:href="#DejaVuSans-101"/>
      <use x="266.585938" xlink:href="#DejaVuSans-116"/>
     </g>
    </g>
    <g id="line2d_17">
     <path d="M 72 79.616562 
L 92 79.616562 
" style="fill:none;stroke:#ff0000;stroke-linecap:square;stroke-width:1.5;"/>
    </g>
    <g id="line2d_18"/>
    <g id="text_16">
     <!-- model -->
     <defs>
      <path d="M 45.40625 46.390625 
L 45.40625 75.984375 
L 54.390625 75.984375 
L 54.390625 0 
L 45.40625 0 
L 45.40625 8.203125 
Q 42.578125 3.328125 38.25 0.953125 
Q 33.9375 -1.421875 27.875 -1.421875 
Q 17.96875 -1.421875 11.734375 6.484375 
Q 5.515625 14.40625 5.515625 27.296875 
Q 5.515625 40.1875 11.734375 48.09375 
Q 17.96875 56 27.875 56 
Q 33.9375 56 38.25 53.625 
Q 42.578125 51.265625 45.40625 46.390625 
z
M 14.796875 27.296875 
Q 14.796875 17.390625 18.875 11.75 
Q 22.953125 6.109375 30.078125 6.109375 
Q 37.203125 6.109375 41.296875 11.75 
Q 45.40625 17.390625 45.40625 27.296875 
Q 45.40625 37.203125 41.296875 42.84375 
Q 37.203125 48.484375 30.078125 48.484375 
Q 22.953125 48.484375 18.875 42.84375 
Q 14.796875 37.203125 14.796875 27.296875 
z
" id="DejaVuSans-100"/>
     </defs>
     <g transform="translate(100 83.116562)scale(0.1 -0.1)">
      <use xlink:href="#DejaVuSans-109"/>
      <use x="97.412109" xlink:href="#DejaVuSans-111"/>
      <use x="158.59375" xlink:href="#DejaVuSans-100"/>
      <use x="222.070312" xlink:href="#DejaVuSans-101"/>
      <use x="283.59375" xlink:href="#DejaVuSans-108"/>
     </g>
    </g>
   </g>
  </g>
 </g>
 <defs>
  <clipPath id="pca628de6d2">
   <rect height="332.64" width="390.6" x="63" y="51.84"/>
  </clipPath>
 </defs>
</svg>
