<?xml version="1.0" encoding="utf-8" standalone="no"?>
<!DOCTYPE svg PUBLIC "-//W3C//DTD SVG 1.1//EN"
  "http://www.w3.org/Graphics/SVG/1.1/DTD/svg11.dtd">
<!-- Created with matplotlib (https://matplotlib.org/) -->
<svg height="432pt" version="1.1" viewBox="0 0 504 432" width="504pt" xmlns="http://www.w3.org/2000/svg" xmlns:xlink="http://www.w3.org/1999/xlink">
 <defs>
  <style type="text/css">
*{stroke-linecap:butt;stroke-linejoin:round;}
  </style>
 </defs>
 <g id="figure_1">
  <g id="patch_1">
   <path d="M 0 432 
L 504 432 
L 504 0 
L 0 0 
z
" style="fill:#ffffff;"/>
  </g>
  <g id="axes_1">
   <g id="patch_2">
    <path d="M 63 384.48 
L 453.6 384.48 
L 453.6 51.84 
L 63 51.84 
z
" style="fill:#ffffff;"/>
   </g>
   <g id="matplotlib.axis_1">
    <g id="xtick_1">
     <g id="line2d_1">
      <defs>
       <path d="M 0 0 
L 0 3.5 
" id="mce3bf65863" style="stroke:#000000;stroke-width:0.8;"/>
      </defs>
      <g>
       <use style="stroke:#000000;stroke-width:0.8;" x="80.754545" xlink:href="#mce3bf65863" y="384.48"/>
      </g>
     </g>
     <g id="text_1">
      <!-- 0 -->
      <defs>
       <path d="M 31.78125 66.40625 
Q 24.171875 66.40625 20.328125 58.90625 
Q 16.5 51.421875 16.5 36.375 
Q 16.5 21.390625 20.328125 13.890625 
Q 24.171875 6.390625 31.78125 6.390625 
Q 39.453125 6.390625 43.28125 13.890625 
Q 47.125 21.390625 47.125 36.375 
Q 47.125 51.421875 43.28125 58.90625 
Q 39.453125 66.40625 31.78125 66.40625 
z
M 31.78125 74.21875 
Q 44.046875 74.21875 50.515625 64.515625 
Q 56.984375 54.828125 56.984375 36.375 
Q 56.984375 17.96875 50.515625 8.265625 
Q 44.046875 -1.421875 31.78125 -1.421875 
Q 19.53125 -1.421875 13.0625 8.265625 
Q 6.59375 17.96875 6.59375 36.375 
Q 6.59375 54.828125 13.0625 64.515625 
Q 19.53125 74.21875 31.78125 74.21875 
z
" id="DejaVuSans-48"/>
      </defs>
      <g transform="translate(77.573295 399.078438)scale(0.1 -0.1)">
       <use xlink:href="#DejaVuSans-48"/>
      </g>
     </g>
    </g>
    <g id="xtick_2">
     <g id="line2d_2">
      <g>
       <use style="stroke:#000000;stroke-width:0.8;" x="151.767796" xlink:href="#mce3bf65863" y="384.48"/>
      </g>
     </g>
     <g id="text_2">
      <!-- 720 -->
      <defs>
       <path d="M 8.203125 72.90625 
L 55.078125 72.90625 
L 55.078125 68.703125 
L 28.609375 0 
L 18.3125 0 
L 43.21875 64.59375 
L 8.203125 64.59375 
z
" id="DejaVuSans-55"/>
       <path d="M 19.1875 8.296875 
L 53.609375 8.296875 
L 53.609375 0 
L 7.328125 0 
L 7.328125 8.296875 
Q 12.9375 14.109375 22.625 23.890625 
Q 32.328125 33.6875 34.8125 36.53125 
Q 39.546875 41.84375 41.421875 45.53125 
Q 43.3125 49.21875 43.3125 52.78125 
Q 43.3125 58.59375 39.234375 62.25 
Q 35.15625 65.921875 28.609375 65.921875 
Q 23.96875 65.921875 18.8125 64.3125 
Q 13.671875 62.703125 7.8125 59.421875 
L 7.8125 69.390625 
Q 13.765625 71.78125 18.9375 73 
Q 24.125 74.21875 28.421875 74.21875 
Q 39.75 74.21875 46.484375 68.546875 
Q 53.21875 62.890625 53.21875 53.421875 
Q 53.21875 48.921875 51.53125 44.890625 
Q 49.859375 40.875 45.40625 35.40625 
Q 44.1875 33.984375 37.640625 27.21875 
Q 31.109375 20.453125 19.1875 8.296875 
z
" id="DejaVuSans-50"/>
      </defs>
      <g transform="translate(142.224046 399.078438)scale(0.1 -0.1)">
       <use xlink:href="#DejaVuSans-55"/>
       <use x="63.623047" xlink:href="#DejaVuSans-50"/>
       <use x="127.246094" xlink:href="#DejaVuSans-48"/>
      </g>
     </g>
    </g>
    <g id="xtick_3">
     <g id="line2d_3">
      <g>
       <use style="stroke:#000000;stroke-width:0.8;" x="222.781046" xlink:href="#mce3bf65863" y="384.48"/>
      </g>
     </g>
     <g id="text_3">
      <!-- 1440 -->
      <defs>
       <path d="M 12.40625 8.296875 
L 28.515625 8.296875 
L 28.515625 63.921875 
L 10.984375 60.40625 
L 10.984375 69.390625 
L 28.421875 72.90625 
L 38.28125 72.90625 
L 38.28125 8.296875 
L 54.390625 8.296875 
L 54.390625 0 
L 12.40625 0 
z
" id="DejaVuSans-49"/>
       <path d="M 37.796875 64.3125 
L 12.890625 25.390625 
L 37.796875 25.390625 
z
M 35.203125 72.90625 
L 47.609375 72.90625 
L 47.609375 25.390625 
L 58.015625 25.390625 
L 58.015625 17.1875 
L 47.609375 17.1875 
L 47.609375 0 
L 37.796875 0 
L 37.796875 17.1875 
L 4.890625 17.1875 
L 4.890625 26.703125 
z
" id="DejaVuSans-52"/>
      </defs>
      <g transform="translate(210.056046 399.078438)scale(0.1 -0.1)">
       <use xlink:href="#DejaVuSans-49"/>
       <use x="63.623047" xlink:href="#DejaVuSans-52"/>
       <use x="127.246094" xlink:href="#DejaVuSans-52"/>
       <use x="190.869141" xlink:href="#DejaVuSans-48"/>
      </g>
     </g>
    </g>
    <g id="xtick_4">
     <g id="line2d_4">
      <g>
       <use style="stroke:#000000;stroke-width:0.8;" x="293.794296" xlink:href="#mce3bf65863" y="384.48"/>
      </g>
     </g>
     <g id="text_4">
      <!-- 2160 -->
      <defs>
       <path d="M 33.015625 40.375 
Q 26.375 40.375 22.484375 35.828125 
Q 18.609375 31.296875 18.609375 23.390625 
Q 18.609375 15.53125 22.484375 10.953125 
Q 26.375 6.390625 33.015625 6.390625 
Q 39.65625 6.390625 43.53125 10.953125 
Q 47.40625 15.53125 47.40625 23.390625 
Q 47.40625 31.296875 43.53125 35.828125 
Q 39.65625 40.375 33.015625 40.375 
z
M 52.59375 71.296875 
L 52.59375 62.3125 
Q 48.875 64.0625 45.09375 64.984375 
Q 41.3125 65.921875 37.59375 65.921875 
Q 27.828125 65.921875 22.671875 59.328125 
Q 17.53125 52.734375 16.796875 39.40625 
Q 19.671875 43.65625 24.015625 45.921875 
Q 28.375 48.1875 33.59375 48.1875 
Q 44.578125 48.1875 50.953125 41.515625 
Q 57.328125 34.859375 57.328125 23.390625 
Q 57.328125 12.15625 50.6875 5.359375 
Q 44.046875 -1.421875 33.015625 -1.421875 
Q 20.359375 -1.421875 13.671875 8.265625 
Q 6.984375 17.96875 6.984375 36.375 
Q 6.984375 53.65625 15.1875 63.9375 
Q 23.390625 74.21875 37.203125 74.21875 
Q 40.921875 74.21875 44.703125 73.484375 
Q 48.484375 72.75 52.59375 71.296875 
z
" id="DejaVuSans-54"/>
      </defs>
      <g transform="translate(281.069296 399.078438)scale(0.1 -0.1)">
       <use xlink:href="#DejaVuSans-50"/>
       <use x="63.623047" xlink:href="#DejaVuSans-49"/>
       <use x="127.246094" xlink:href="#DejaVuSans-54"/>
       <use x="190.869141" xlink:href="#DejaVuSans-48"/>
      </g>
     </g>
    </g>
    <g id="xtick_5">
     <g id="line2d_5">
      <g>
       <use style="stroke:#000000;stroke-width:0.8;" x="364.807547" xlink:href="#mce3bf65863" y="384.48"/>
      </g>
     </g>
     <g id="text_5">
      <!-- 2880 -->
      <defs>
       <path d="M 31.78125 34.625 
Q 24.75 34.625 20.71875 30.859375 
Q 16.703125 27.09375 16.703125 20.515625 
Q 16.703125 13.921875 20.71875 10.15625 
Q 24.75 6.390625 31.78125 6.390625 
Q 38.8125 6.390625 42.859375 10.171875 
Q 46.921875 13.96875 46.921875 20.515625 
Q 46.921875 27.09375 42.890625 30.859375 
Q 38.875 34.625 31.78125 34.625 
z
M 21.921875 38.8125 
Q 15.578125 40.375 12.03125 44.71875 
Q 8.5 49.078125 8.5 55.328125 
Q 8.5 64.0625 14.71875 69.140625 
Q 20.953125 74.21875 31.78125 74.21875 
Q 42.671875 74.21875 48.875 69.140625 
Q 55.078125 64.0625 55.078125 55.328125 
Q 55.078125 49.078125 51.53125 44.71875 
Q 48 40.375 41.703125 38.8125 
Q 48.828125 37.15625 52.796875 32.3125 
Q 56.78125 27.484375 56.78125 20.515625 
Q 56.78125 9.90625 50.3125 4.234375 
Q 43.84375 -1.421875 31.78125 -1.421875 
Q 19.734375 -1.421875 13.25 4.234375 
Q 6.78125 9.90625 6.78125 20.515625 
Q 6.78125 27.484375 10.78125 32.3125 
Q 14.796875 37.15625 21.921875 38.8125 
z
M 18.3125 54.390625 
Q 18.3125 48.734375 21.84375 45.5625 
Q 25.390625 42.390625 31.78125 42.390625 
Q 38.140625 42.390625 41.71875 45.5625 
Q 45.3125 48.734375 45.3125 54.390625 
Q 45.3125 60.0625 41.71875 63.234375 
Q 38.140625 66.40625 31.78125 66.40625 
Q 25.390625 66.40625 21.84375 63.234375 
Q 18.3125 60.0625 18.3125 54.390625 
z
" id="DejaVuSans-56"/>
      </defs>
      <g transform="translate(352.082547 399.078438)scale(0.1 -0.1)">
       <use xlink:href="#DejaVuSans-50"/>
       <use x="63.623047" xlink:href="#DejaVuSans-56"/>
       <use x="127.246094" xlink:href="#DejaVuSans-56"/>
       <use x="190.869141" xlink:href="#DejaVuSans-48"/>
      </g>
     </g>
    </g>
    <g id="text_6">
     <!-- time [ms] -->
     <defs>
      <path d="M 18.3125 70.21875 
L 18.3125 54.6875 
L 36.8125 54.6875 
L 36.8125 47.703125 
L 18.3125 47.703125 
L 18.3125 18.015625 
Q 18.3125 11.328125 20.140625 9.421875 
Q 21.96875 7.515625 27.59375 7.515625 
L 36.8125 7.515625 
L 36.8125 0 
L 27.59375 0 
Q 17.1875 0 13.234375 3.875 
Q 9.28125 7.765625 9.28125 18.015625 
L 9.28125 47.703125 
L 2.6875 47.703125 
L 2.6875 54.6875 
L 9.28125 54.6875 
L 9.28125 70.21875 
z
" id="DejaVuSans-116"/>
      <path d="M 9.421875 54.6875 
L 18.40625 54.6875 
L 18.40625 0 
L 9.421875 0 
z
M 9.421875 75.984375 
L 18.40625 75.984375 
L 18.40625 64.59375 
L 9.421875 64.59375 
z
" id="DejaVuSans-105"/>
      <path d="M 52 44.1875 
Q 55.375 50.25 60.0625 53.125 
Q 64.75 56 71.09375 56 
Q 79.640625 56 84.28125 50.015625 
Q 88.921875 44.046875 88.921875 33.015625 
L 88.921875 0 
L 79.890625 0 
L 79.890625 32.71875 
Q 79.890625 40.578125 77.09375 44.375 
Q 74.3125 48.1875 68.609375 48.1875 
Q 61.625 48.1875 57.5625 43.546875 
Q 53.515625 38.921875 53.515625 30.90625 
L 53.515625 0 
L 44.484375 0 
L 44.484375 32.71875 
Q 44.484375 40.625 41.703125 44.40625 
Q 38.921875 48.1875 33.109375 48.1875 
Q 26.21875 48.1875 22.15625 43.53125 
Q 18.109375 38.875 18.109375 30.90625 
L 18.109375 0 
L 9.078125 0 
L 9.078125 54.6875 
L 18.109375 54.6875 
L 18.109375 46.1875 
Q 21.1875 51.21875 25.484375 53.609375 
Q 29.78125 56 35.6875 56 
Q 41.65625 56 45.828125 52.96875 
Q 50 49.953125 52 44.1875 
z
" id="DejaVuSans-109"/>
      <path d="M 56.203125 29.59375 
L 56.203125 25.203125 
L 14.890625 25.203125 
Q 15.484375 15.921875 20.484375 11.0625 
Q 25.484375 6.203125 34.421875 6.203125 
Q 39.59375 6.203125 44.453125 7.46875 
Q 49.3125 8.734375 54.109375 11.28125 
L 54.109375 2.78125 
Q 49.265625 0.734375 44.1875 -0.34375 
Q 39.109375 -1.421875 33.890625 -1.421875 
Q 20.796875 -1.421875 13.15625 6.1875 
Q 5.515625 13.8125 5.515625 26.8125 
Q 5.515625 40.234375 12.765625 48.109375 
Q 20.015625 56 32.328125 56 
Q 43.359375 56 49.78125 48.890625 
Q 56.203125 41.796875 56.203125 29.59375 
z
M 47.21875 32.234375 
Q 47.125 39.59375 43.09375 43.984375 
Q 39.0625 48.390625 32.421875 48.390625 
Q 24.90625 48.390625 20.390625 44.140625 
Q 15.875 39.890625 15.1875 32.171875 
z
" id="DejaVuSans-101"/>
      <path id="DejaVuSans-32"/>
      <path d="M 8.59375 75.984375 
L 29.296875 75.984375 
L 29.296875 69 
L 17.578125 69 
L 17.578125 -6.203125 
L 29.296875 -6.203125 
L 29.296875 -13.1875 
L 8.59375 -13.1875 
z
" id="DejaVuSans-91"/>
      <path d="M 44.28125 53.078125 
L 44.28125 44.578125 
Q 40.484375 46.53125 36.375 47.5 
Q 32.28125 48.484375 27.875 48.484375 
Q 21.1875 48.484375 17.84375 46.4375 
Q 14.5 44.390625 14.5 40.28125 
Q 14.5 37.15625 16.890625 35.375 
Q 19.28125 33.59375 26.515625 31.984375 
L 29.59375 31.296875 
Q 39.15625 29.25 43.1875 25.515625 
Q 47.21875 21.78125 47.21875 15.09375 
Q 47.21875 7.46875 41.1875 3.015625 
Q 35.15625 -1.421875 24.609375 -1.421875 
Q 20.21875 -1.421875 15.453125 -0.5625 
Q 10.6875 0.296875 5.421875 2 
L 5.421875 11.28125 
Q 10.40625 8.6875 15.234375 7.390625 
Q 20.0625 6.109375 24.8125 6.109375 
Q 31.15625 6.109375 34.5625 8.28125 
Q 37.984375 10.453125 37.984375 14.40625 
Q 37.984375 18.0625 35.515625 20.015625 
Q 33.0625 21.96875 24.703125 23.78125 
L 21.578125 24.515625 
Q 13.234375 26.265625 9.515625 29.90625 
Q 5.8125 33.546875 5.8125 39.890625 
Q 5.8125 47.609375 11.28125 51.796875 
Q 16.75 56 26.8125 56 
Q 31.78125 56 36.171875 55.265625 
Q 40.578125 54.546875 44.28125 53.078125 
z
" id="DejaVuSans-115"/>
      <path d="M 30.421875 75.984375 
L 30.421875 -13.1875 
L 9.71875 -13.1875 
L 9.71875 -6.203125 
L 21.390625 -6.203125 
L 21.390625 69 
L 9.71875 69 
L 9.71875 75.984375 
z
" id="DejaVuSans-93"/>
     </defs>
     <g transform="translate(234.038281 412.756563)scale(0.1 -0.1)">
      <use xlink:href="#DejaVuSans-116"/>
      <use x="39.208984" xlink:href="#DejaVuSans-105"/>
      <use x="66.992188" xlink:href="#DejaVuSans-109"/>
      <use x="164.404297" xlink:href="#DejaVuSans-101"/>
      <use x="225.927734" xlink:href="#DejaVuSans-32"/>
      <use x="257.714844" xlink:href="#DejaVuSans-91"/>
      <use x="296.728516" xlink:href="#DejaVuSans-109"/>
      <use x="394.140625" xlink:href="#DejaVuSans-115"/>
      <use x="446.240234" xlink:href="#DejaVuSans-93"/>
     </g>
    </g>
   </g>
   <g id="matplotlib.axis_2">
    <g id="ytick_1">
     <g id="line2d_6">
      <defs>
       <path d="M 0 0 
L -3.5 0 
" id="mafd98cd957" style="stroke:#000000;stroke-width:0.8;"/>
      </defs>
      <g>
       <use style="stroke:#000000;stroke-width:0.8;" x="63" xlink:href="#mafd98cd957" y="363.836202"/>
      </g>
     </g>
     <g id="text_7">
      <!-- −80 -->
      <defs>
       <path d="M 10.59375 35.5 
L 73.1875 35.5 
L 73.1875 27.203125 
L 10.59375 27.203125 
z
" id="DejaVuSans-8722"/>
      </defs>
      <g transform="translate(34.895313 367.635421)scale(0.1 -0.1)">
       <use xlink:href="#DejaVuSans-8722"/>
       <use x="83.789062" xlink:href="#DejaVuSans-56"/>
       <use x="147.412109" xlink:href="#DejaVuSans-48"/>
      </g>
     </g>
    </g>
    <g id="ytick_2">
     <g id="line2d_7">
      <g>
       <use style="stroke:#000000;stroke-width:0.8;" x="63" xlink:href="#mafd98cd957" y="311.440455"/>
      </g>
     </g>
     <g id="text_8">
      <!-- −60 -->
      <g transform="translate(34.895313 315.239673)scale(0.1 -0.1)">
       <use xlink:href="#DejaVuSans-8722"/>
       <use x="83.789062" xlink:href="#DejaVuSans-54"/>
       <use x="147.412109" xlink:href="#DejaVuSans-48"/>
      </g>
     </g>
    </g>
    <g id="ytick_3">
     <g id="line2d_8">
      <g>
       <use style="stroke:#000000;stroke-width:0.8;" x="63" xlink:href="#mafd98cd957" y="259.044707"/>
      </g>
     </g>
     <g id="text_9">
      <!-- −40 -->
      <g transform="translate(34.895313 262.843926)scale(0.1 -0.1)">
       <use xlink:href="#DejaVuSans-8722"/>
       <use x="83.789062" xlink:href="#DejaVuSans-52"/>
       <use x="147.412109" xlink:href="#DejaVuSans-48"/>
      </g>
     </g>
    </g>
    <g id="ytick_4">
     <g id="line2d_9">
      <g>
       <use style="stroke:#000000;stroke-width:0.8;" x="63" xlink:href="#mafd98cd957" y="206.64896"/>
      </g>
     </g>
     <g id="text_10">
      <!-- −20 -->
      <g transform="translate(34.895313 210.448179)scale(0.1 -0.1)">
       <use xlink:href="#DejaVuSans-8722"/>
       <use x="83.789062" xlink:href="#DejaVuSans-50"/>
       <use x="147.412109" xlink:href="#DejaVuSans-48"/>
      </g>
     </g>
    </g>
    <g id="ytick_5">
     <g id="line2d_10">
      <g>
       <use style="stroke:#000000;stroke-width:0.8;" x="63" xlink:href="#mafd98cd957" y="154.253213"/>
      </g>
     </g>
     <g id="text_11">
      <!-- 0 -->
      <g transform="translate(49.6375 158.052431)scale(0.1 -0.1)">
       <use xlink:href="#DejaVuSans-48"/>
      </g>
     </g>
    </g>
    <g id="ytick_6">
     <g id="line2d_11">
      <g>
       <use style="stroke:#000000;stroke-width:0.8;" x="63" xlink:href="#mafd98cd957" y="101.857465"/>
      </g>
     </g>
     <g id="text_12">
      <!-- 20 -->
      <g transform="translate(43.275 105.656684)scale(0.1 -0.1)">
       <use xlink:href="#DejaVuSans-50"/>
       <use x="63.623047" xlink:href="#DejaVuSans-48"/>
      </g>
     </g>
    </g>
    <g id="text_13">
     <!-- Voltage [mV] -->
     <defs>
      <path d="M 28.609375 0 
L 0.78125 72.90625 
L 11.078125 72.90625 
L 34.1875 11.53125 
L 57.328125 72.90625 
L 67.578125 72.90625 
L 39.796875 0 
z
" id="DejaVuSans-86"/>
      <path d="M 30.609375 48.390625 
Q 23.390625 48.390625 19.1875 42.75 
Q 14.984375 37.109375 14.984375 27.296875 
Q 14.984375 17.484375 19.15625 11.84375 
Q 23.34375 6.203125 30.609375 6.203125 
Q 37.796875 6.203125 41.984375 11.859375 
Q 46.1875 17.53125 46.1875 27.296875 
Q 46.1875 37.015625 41.984375 42.703125 
Q 37.796875 48.390625 30.609375 48.390625 
z
M 30.609375 56 
Q 42.328125 56 49.015625 48.375 
Q 55.71875 40.765625 55.71875 27.296875 
Q 55.71875 13.875 49.015625 6.21875 
Q 42.328125 -1.421875 30.609375 -1.421875 
Q 18.84375 -1.421875 12.171875 6.21875 
Q 5.515625 13.875 5.515625 27.296875 
Q 5.515625 40.765625 12.171875 48.375 
Q 18.84375 56 30.609375 56 
z
" id="DejaVuSans-111"/>
      <path d="M 9.421875 75.984375 
L 18.40625 75.984375 
L 18.40625 0 
L 9.421875 0 
z
" id="DejaVuSans-108"/>
      <path d="M 34.28125 27.484375 
Q 23.390625 27.484375 19.1875 25 
Q 14.984375 22.515625 14.984375 16.5 
Q 14.984375 11.71875 18.140625 8.90625 
Q 21.296875 6.109375 26.703125 6.109375 
Q 34.1875 6.109375 38.703125 11.40625 
Q 43.21875 16.703125 43.21875 25.484375 
L 43.21875 27.484375 
z
M 52.203125 31.203125 
L 52.203125 0 
L 43.21875 0 
L 43.21875 8.296875 
Q 40.140625 3.328125 35.546875 0.953125 
Q 30.953125 -1.421875 24.3125 -1.421875 
Q 15.921875 -1.421875 10.953125 3.296875 
Q 6 8.015625 6 15.921875 
Q 6 25.140625 12.171875 29.828125 
Q 18.359375 34.515625 30.609375 34.515625 
L 43.21875 34.515625 
L 43.21875 35.40625 
Q 43.21875 41.609375 39.140625 45 
Q 35.0625 48.390625 27.6875 48.390625 
Q 23 48.390625 18.546875 47.265625 
Q 14.109375 46.140625 10.015625 43.890625 
L 10.015625 52.203125 
Q 14.9375 54.109375 19.578125 55.046875 
Q 24.21875 56 28.609375 56 
Q 40.484375 56 46.34375 49.84375 
Q 52.203125 43.703125 52.203125 31.203125 
z
" id="DejaVuSans-97"/>
      <path d="M 45.40625 27.984375 
Q 45.40625 37.75 41.375 43.109375 
Q 37.359375 48.484375 30.078125 48.484375 
Q 22.859375 48.484375 18.828125 43.109375 
Q 14.796875 37.75 14.796875 27.984375 
Q 14.796875 18.265625 18.828125 12.890625 
Q 22.859375 7.515625 30.078125 7.515625 
Q 37.359375 7.515625 41.375 12.890625 
Q 45.40625 18.265625 45.40625 27.984375 
z
M 54.390625 6.78125 
Q 54.390625 -7.171875 48.1875 -13.984375 
Q 42 -20.796875 29.203125 -20.796875 
Q 24.46875 -20.796875 20.265625 -20.09375 
Q 16.0625 -19.390625 12.109375 -17.921875 
L 12.109375 -9.1875 
Q 16.0625 -11.328125 19.921875 -12.34375 
Q 23.78125 -13.375 27.78125 -13.375 
Q 36.625 -13.375 41.015625 -8.765625 
Q 45.40625 -4.15625 45.40625 5.171875 
L 45.40625 9.625 
Q 42.625 4.78125 38.28125 2.390625 
Q 33.9375 0 27.875 0 
Q 17.828125 0 11.671875 7.65625 
Q 5.515625 15.328125 5.515625 27.984375 
Q 5.515625 40.671875 11.671875 48.328125 
Q 17.828125 56 27.875 56 
Q 33.9375 56 38.28125 53.609375 
Q 42.625 51.21875 45.40625 46.390625 
L 45.40625 54.6875 
L 54.390625 54.6875 
z
" id="DejaVuSans-103"/>
     </defs>
     <g transform="translate(28.815625 251.079531)rotate(-90)scale(0.1 -0.1)">
      <use xlink:href="#DejaVuSans-86"/>
      <use x="68.298828" xlink:href="#DejaVuSans-111"/>
      <use x="129.480469" xlink:href="#DejaVuSans-108"/>
      <use x="157.263672" xlink:href="#DejaVuSans-116"/>
      <use x="196.472656" xlink:href="#DejaVuSans-97"/>
      <use x="257.751953" xlink:href="#DejaVuSans-103"/>
      <use x="321.228516" xlink:href="#DejaVuSans-101"/>
      <use x="382.751953" xlink:href="#DejaVuSans-32"/>
      <use x="414.539062" xlink:href="#DejaVuSans-91"/>
      <use x="453.552734" xlink:href="#DejaVuSans-109"/>
      <use x="550.964844" xlink:href="#DejaVuSans-86"/>
      <use x="619.373047" xlink:href="#DejaVuSans-93"/>
     </g>
    </g>
   </g>
   <g id="line2d_12">
    <path clip-path="url(#p9c0e36d71a)" d="M 80.754545 324.539391 
L 81.267419 328.851444 
L 81.800018 331.68171 
L 82.317823 333.327926 
L 82.815902 334.231425 
L 83.304118 334.688388 
L 83.821923 334.873433 
L 84.458084 334.850743 
L 85.488762 334.556282 
L 88.018609 333.798505 
L 89.877776 333.518953 
L 92.516115 333.369023 
L 98.359914 333.318001 
L 100.480448 333.316001 
L 100.638256 348.921491 
L 100.978527 360.17806 
L 101.373045 366.968595 
L 101.678797 369.120735 
L 101.846467 369.357831 
L 101.866193 369.348509 
L 101.98948 369.135556 
L 102.211396 368.201719 
L 102.665092 365.093317 
L 103.542895 359.305203 
L 104.065631 357.259545 
L 104.524258 356.267996 
L 104.943434 355.84306 
L 105.357678 355.728303 
L 105.86562 355.834605 
L 106.930819 356.356036 
L 108.040401 356.779558 
L 109.105599 356.936487 
L 110.797096 356.922512 
L 115.536244 356.852222 
L 130.069303 356.847921 
L 130.222178 341.888105 
L 130.537793 332.317115 
L 130.942174 326.081587 
L 131.341623 322.977201 
L 131.701621 321.678427 
L 132.007373 321.268905 
L 132.263809 321.251633 
L 132.559698 321.483996 
L 133.008462 322.163609 
L 133.856676 323.933627 
L 135.651733 327.660312 
L 136.736658 329.379623 
L 137.762405 330.602088 
L 138.798015 331.496712 
L 139.892802 332.150466 
L 139.932254 332.169446 
L 139.937186 324.539391 
L 140.045678 325.588069 
L 140.612798 329.869552 
L 141.140466 332.27847 
L 141.653339 333.663841 
L 142.146487 334.406848 
L 142.639634 334.769052 
L 143.177165 334.888247 
L 143.882366 334.79949 
L 145.292768 334.33944 
L 147.206181 333.797463 
L 149.065347 333.518465 
L 151.708618 333.36875 
L 157.577074 333.317952 
L 159.663088 333.316001 
L 159.820896 330.194981 
L 160.166099 327.894314 
L 160.644452 326.088239 
L 161.142531 325.007011 
L 161.650473 324.400662 
L 162.197867 324.085203 
L 162.858685 323.969987 
L 163.835117 324.049282 
L 169.639464 324.847155 
L 173.688205 324.979963 
L 183.93088 325.022863 
L 189.251943 325.024429 
L 189.40975 328.150002 
L 189.759885 330.494076 
L 190.248101 332.362449 
L 190.756043 333.491595 
L 191.263985 334.113592 
L 191.791653 334.420326 
L 192.408087 334.514235 
L 193.280958 334.400273 
L 197.901751 333.506653 
L 199.114894 333.422904 
L 199.119826 324.539391 
L 199.228318 325.588069 
L 199.795438 329.869552 
L 200.323106 332.27847 
L 200.835979 333.663841 
L 201.329127 334.406848 
L 201.822274 334.769052 
L 202.359805 334.888247 
L 203.065006 334.79949 
L 204.475408 334.33944 
L 206.388821 333.797463 
L 208.247987 333.518465 
L 210.891258 333.36875 
L 216.759714 333.317952 
L 218.845729 333.316001 
L 219.003536 327.074153 
L 219.348739 322.476789 
L 219.822161 318.896562 
L 220.315308 316.716001 
L 220.813387 315.444486 
L 221.316398 314.732291 
L 221.844066 314.35769 
L 222.450637 314.20255 
L 223.274194 314.238093 
L 224.871992 314.579122 
L 227.633618 315.121201 
L 230.326204 315.398363 
L 234.300973 315.560859 
L 242.664756 315.631541 
L 248.434583 315.639059 
L 248.59239 321.907011 
L 248.942525 326.623259 
L 249.430741 330.411052 
L 249.938683 332.756581 
L 250.436762 334.091756 
L 250.915115 334.789928 
L 251.388537 335.111322 
L 251.911273 335.195051 
L 252.60168 335.061148 
L 254.090985 334.475723 
L 255.812071 333.908265 
L 257.518361 333.592022 
L 258.297534 333.507671 
L 258.302466 324.539391 
L 258.410958 325.588069 
L 258.978078 329.869552 
L 259.505746 332.27847 
L 260.018619 333.663841 
L 260.511767 334.406848 
L 261.004914 334.769052 
L 261.542445 334.888247 
L 262.247646 334.79949 
L 263.658048 334.33944 
L 265.571461 333.797463 
L 267.430627 333.518465 
L 270.073898 333.36875 
L 275.942354 333.317952 
L 278.028369 333.316001 
L 278.186176 323.953265 
L 278.531379 317.060411 
L 279.009732 311.632631 
L 279.527537 308.134733 
L 280.124246 305.602407 
L 280.513832 303.798697 
L 280.53849 302.195103 
L 280.57301 218.815985 
L 280.612462 69.029969 
L 280.691365 173.784099 
L 280.893556 310.14296 
L 281.071089 315.225295 
L 281.194376 315.605196 
L 281.228896 315.581792 
L 281.357115 315.240837 
L 281.712181 313.459806 
L 282.594915 309.171897 
L 283.196555 307.347948 
L 283.852441 306.056583 
L 284.720381 304.42471 
L 284.78449 303.713099 
L 284.804216 287.532163 
L 284.873257 76.217001 
L 284.942298 167.63299 
L 285.14942 308.622381 
L 285.331884 314.141146 
L 285.499554 314.727975 
L 285.509417 314.726034 
L 285.61791 314.564612 
L 285.874346 313.63858 
L 287.112147 308.74541 
L 287.72365 307.393441 
L 288.389399 306.44845 
L 289.365831 305.493689 
L 289.858979 304.869894 
L 290.011855 304.299079 
L 290.026649 303.581523 
L 290.046375 274.43111 
L 290.110484 81.528003 
L 290.184456 169.388316 
L 290.391578 306.39426 
L 290.578974 312.446131 
L 290.776233 313.330614 
L 290.894589 313.27421 
L 291.096779 312.790294 
L 292.872111 307.646418 
L 293.53786 306.763366 
L 294.351553 306.061989 
L 295.727435 304.943305 
L 295.895105 304.442671 
L 295.919763 303.697553 
L 295.939488 276.726949 
L 296.008529 85.117248 
L 296.07757 166.534093 
L 296.284692 304.568109 
L 296.472088 311.220052 
L 296.67921 312.413012 
L 296.802497 312.461332 
L 296.827154 312.441925 
L 297.009619 312.116458 
L 297.492903 310.648638 
L 298.267145 308.536467 
L 298.903305 307.429871 
L 299.603575 306.651293 
L 300.496172 306.006047 
L 301.876985 305.040546 
L 302.079176 304.582764 
L 302.123559 303.996255 
L 302.143285 288.502113 
L 302.217257 87.693 
L 302.281366 161.177855 
L 302.49342 303.579004 
L 302.685747 310.533259 
L 302.902732 311.880643 
L 303.050676 311.96783 
L 303.065471 311.958531 
L 303.243004 311.691855 
L 303.676974 310.509762 
L 304.510393 308.389064 
L 305.156417 307.348997 
L 305.871481 306.611809 
L 306.803529 305.98557 
L 307.617223 305.532193 
L 307.77503 314.926704 
L 308.125165 322.023033 
L 308.623244 327.916993 
L 309.136117 331.557334 
L 309.639128 333.665364 
L 310.117481 334.803013 
L 310.576108 335.36935 
L 311.029804 335.595955 
L 311.547609 335.59879 
L 312.277467 335.354745 
L 315.82813 333.898217 
L 317.480174 333.603558 
L 317.485106 324.539391 
L 317.593598 325.588069 
L 318.160718 329.869552 
L 318.688386 332.27847 
L 319.201259 333.663841 
L 319.694407 334.406848 
L 320.187555 334.769052 
L 320.725085 334.888247 
L 321.430286 334.79949 
L 322.840688 334.33944 
L 324.754101 333.797463 
L 326.613267 333.518465 
L 329.256538 333.36875 
L 335.124994 333.317952 
L 337.211009 333.316001 
L 337.368816 320.832016 
L 337.714019 311.633593 
L 338.207167 304.064512 
L 338.754561 296.78692 
L 338.769355 285.886454 
L 338.833464 67.852252 
L 338.907436 170.82828 
L 339.109627 307.543759 
L 339.282229 311.767468 
L 339.32168 311.821081 
L 339.375927 311.716251 
L 339.538665 310.751596 
L 341.3929 295.65113 
L 341.412626 294.008642 
L 341.442215 223.3842 
L 341.486598 73.894913 
L 341.565502 176.020075 
L 341.767692 308.6145 
L 341.940294 312.671355 
L 341.984677 312.729913 
L 342.038923 312.620754 
L 342.201662 311.660994 
L 344.238362 295.607027 
L 344.253156 287.704077 
L 344.322197 79.37535 
L 344.4011 177.245302 
L 344.603291 306.285722 
L 344.780824 310.858342 
L 344.849865 311.007859 
L 344.904111 310.925976 
L 345.061918 310.168989 
L 345.609312 305.979468 
L 346.373691 300.953022 
L 347.093686 296.410171 
L 347.118343 294.581962 
L 347.152864 209.488261 
L 347.197247 83.437755 
L 347.271219 170.258379 
L 347.478341 304.512869 
L 347.655874 309.538041 
L 347.754504 309.825618 
L 347.798887 309.778458 
L 347.936968 309.262633 
L 348.331486 306.656505 
L 349.233947 300.977576 
L 349.983531 296.559621 
L 350.01312 294.22263 
L 350.052571 184.258572 
L 350.092023 86.232161 
L 350.165995 169.971842 
L 350.373117 303.153971 
L 350.555582 308.587176 
L 350.678869 308.986225 
L 350.713389 308.957856 
L 350.841608 308.56598 
L 351.181879 306.580157 
L 352.222421 300.468974 
L 352.873376 296.816523 
L 352.912827 295.397139 
L 352.932553 259.490474 
L 352.996662 88.121132 
L 353.070635 170.090545 
L 353.277757 302.179143 
L 353.460221 307.881981 
L 353.603234 308.405129 
L 353.627891 308.392449 
L 353.741315 308.121484 
L 354.022409 306.690124 
L 355.334182 299.491691 
L 355.768152 297.019329 
L 355.822398 295.282822 
L 355.847055 243.696733 
L 355.906233 89.407015 
L 355.985137 176.546517 
L 356.192259 301.83519 
L 356.379655 307.449939 
L 356.532531 307.98626 
L 356.552256 307.976797 
L 356.660749 307.745395 
L 356.922117 306.516865 
L 358.480463 298.379325 
L 358.707311 296.658141 
L 358.7369 294.197634 
L 358.776352 185.556306 
L 358.815804 90.353452 
L 358.889776 168.043588 
L 359.101829 301.232165 
L 359.289225 307.128213 
L 359.451964 307.753934 
L 359.466759 307.749922 
L 359.57032 307.562539 
L 359.811962 306.509724 
L 361.636608 296.307983 
L 361.651402 293.738449 
L 361.690854 182.459086 
L 361.730306 90.833338 
L 361.804278 168.651465 
L 362.016332 300.86502 
L 362.203728 306.891475 
L 362.376329 307.576591 
L 362.381261 307.575931 
L 362.474959 307.441174 
L 362.687012 306.609345 
L 364.511658 297.029855 
L 364.560973 295.654476 
L 364.580699 261.846226 
L 364.644808 91.266406 
L 364.71878 167.766212 
L 364.930834 300.4848 
L 365.11823 306.677072 
L 365.300694 307.423988 
L 365.394392 307.300685 
L 365.601514 306.518068 
L 366.799863 300.298571 
L 366.952739 312.207873 
L 367.278216 320.339345 
L 367.751638 326.923783 
L 368.25958 331.115462 
L 368.76259 333.562207 
L 369.240943 334.888471 
L 369.694639 335.552795 
L 370.133541 335.830111 
L 370.611894 335.868354 
L 371.248054 335.674797 
L 372.60421 334.958831 
L 374.167488 334.245306 
L 375.627205 333.832777 
L 376.662814 333.655769 
L 376.667746 324.539391 
L 376.776238 325.588069 
L 377.343358 329.869552 
L 377.871026 332.27847 
L 378.383899 333.663841 
L 378.877047 334.406848 
L 379.370195 334.769052 
L 379.907725 334.888247 
L 380.612927 334.79949 
L 382.023329 334.33944 
L 383.936741 333.797463 
L 385.795907 333.518465 
L 388.439178 333.36875 
L 394.307635 333.317952 
L 396.393649 333.316001 
L 396.551456 317.709902 
L 396.896659 306.166094 
L 397.508162 289.915091 
L 397.542683 174.698766 
L 397.577203 66.96 
L 397.651175 169.554079 
L 397.853366 304.768761 
L 398.016104 308.236747 
L 398.070351 308.078168 
L 398.238021 306.599073 
L 399.194727 294.591071 
L 399.500479 289.388447 
L 399.549793 284.511727 
L 399.589245 131.801439 
L 399.618834 72.058246 
L 399.687875 164.140392 
L 399.894997 308.3629 
L 400.047872 311.468435 
L 400.052804 311.465496 
L 400.111981 311.23995 
L 400.294446 309.382289 
L 401.70978 290.035874 
L 401.764026 285.98535 
L 401.798546 180.882197 
L 401.837998 77.597651 
L 401.907039 165.770714 
L 402.114161 305.977375 
L 402.276899 309.534499 
L 402.306488 309.510975 
L 402.326214 309.451028 
L 402.459364 308.480647 
L 402.917991 302.882062 
L 403.978258 288.216663 
L 403.997984 278.664747 
L 404.067025 81.621774 
L 404.136066 166.179043 
L 404.343188 304.154465 
L 404.510858 308.138677 
L 404.535515 308.158945 
L 404.58483 308.043152 
L 404.737706 306.935957 
L 405.299894 300.51948 
L 406.197423 289.022508 
L 406.227011 283.738603 
L 406.300984 84.397509 
L 406.38975 192.234202 
L 406.587009 303.375361 
L 406.759611 307.115423 
L 406.7892 307.137888 
L 406.838514 307.027187 
L 406.99139 306.005894 
L 407.514127 300.418324 
L 408.42645 289.292688 
L 408.46097 285.017817 
L 408.534942 86.24343 
L 408.638503 207.280413 
L 408.825899 302.475244 
L 408.998501 306.312222 
L 409.037953 306.361273 
L 409.092199 306.247144 
L 409.250006 305.242158 
L 409.772742 299.922561 
L 410.655477 289.526695 
L 410.694928 286.031655 
L 410.73438 162.3663 
L 410.768901 87.646032 
L 410.842873 166.164035 
L 411.054926 301.229856 
L 411.227528 305.73532 
L 411.281774 305.850776 
L 411.340952 305.738342 
L 411.498759 304.778571 
L 412.001769 299.847137 
L 412.889435 289.638423 
L 412.933818 285.060613 
L 413.00779 88.43371 
L 413.111351 204.963764 
L 413.298748 301.121362 
L 413.476281 305.413991 
L 413.530527 305.511072 
L 413.584773 305.411354 
L 413.737649 304.533439 
L 414.201208 300.137214 
L 415.123394 289.789459 
L 415.167777 287.040658 
L 415.192434 232.139619 
L 415.24668 88.996283 
L 415.320653 168.077637 
L 415.532706 300.389721 
L 415.710239 305.133762 
L 415.774348 305.280215 
L 415.828595 305.188272 
L 415.98147 304.339858 
L 416.430235 300.172748 
L 417.362284 289.839748 
L 417.411598 285.766622 
L 417.45105 160.770917 
L 417.48557 89.454194 
L 417.559543 166.056903 
L 417.771596 299.912829 
L 417.949129 304.887451 
L 418.023101 305.067855 
L 418.072416 304.9857 
L 418.22036 304.200972 
L 418.644467 300.359782 
L 419.596242 290.018081 
L 419.650488 286.502498 
L 419.685009 192.905905 
L 419.729392 89.573906 
L 419.798433 163.747126 
L 420.010486 299.571226 
L 420.188019 304.755588 
L 420.266923 304.967342 
L 420.316238 304.888604 
L 420.45925 304.151445 
L 420.863631 300.549286 
L 421.840064 289.98284 
L 421.89431 285.674404 
L 421.938693 137.6818 
L 421.968282 89.847896 
L 422.037323 159.709478 
L 422.254307 299.445388 
L 422.431841 304.56626 
L 422.510744 304.78772 
L 422.56499 304.702958 
L 422.712935 303.934075 
L 423.13211 300.216854 
L 424.074022 290.145983 
L 424.1332 286.525772 
L 424.16772 193.147091 
L 424.212103 89.829605 
L 424.281144 163.609214 
L 424.493197 299.202004 
L 424.670731 304.503828 
L 424.754566 304.750227 
L 424.80388 304.677571 
L 424.946893 303.963843 
L 425.341411 300.520579 
L 425.982503 294.42403 
L 426.135379 309.072565 
L 426.450993 318.427054 
L 426.909621 325.759054 
L 427.412631 330.496844 
L 427.915642 333.2948 
L 428.398926 334.836556 
L 428.852622 335.613526 
L 429.286592 335.95248 
L 429.740288 336.030235 
L 430.312339 335.886636 
L 431.303565 335.366136 
L 433.212047 334.381874 
L 434.622449 333.928909 
L 435.845455 333.694073 
L 435.845455 333.694073 
" style="fill:none;stroke:#ff0000;stroke-linecap:square;stroke-width:1.5;"/>
   </g>
   <g id="patch_3">
    <path d="M 63 384.48 
L 63 51.84 
" style="fill:none;stroke:#000000;stroke-linecap:square;stroke-linejoin:miter;stroke-width:0.8;"/>
   </g>
   <g id="patch_4">
    <path d="M 453.6 384.48 
L 453.6 51.84 
" style="fill:none;stroke:#000000;stroke-linecap:square;stroke-linejoin:miter;stroke-width:0.8;"/>
   </g>
   <g id="patch_5">
    <path d="M 63 384.48 
L 453.6 384.48 
" style="fill:none;stroke:#000000;stroke-linecap:square;stroke-linejoin:miter;stroke-width:0.8;"/>
   </g>
   <g id="patch_6">
    <path d="M 63 51.84 
L 453.6 51.84 
" style="fill:none;stroke:#000000;stroke-linecap:square;stroke-linejoin:miter;stroke-width:0.8;"/>
   </g>
   <g id="legend_1">
    <g id="patch_7">
     <path d="M 70 74.518125 
L 133.139062 74.518125 
Q 135.139062 74.518125 135.139062 72.518125 
L 135.139062 58.84 
Q 135.139062 56.84 133.139062 56.84 
L 70 56.84 
Q 68 56.84 68 58.84 
L 68 72.518125 
Q 68 74.518125 70 74.518125 
z
" style="fill:#ffffff;opacity:0.8;stroke:#cccccc;stroke-linejoin:miter;"/>
    </g>
    <g id="line2d_13">
     <path d="M 72 64.938438 
L 92 64.938438 
" style="fill:none;stroke:#ff0000;stroke-linecap:square;stroke-width:1.5;"/>
    </g>
    <g id="line2d_14"/>
    <g id="text_14">
     <!-- model -->
     <defs>
      <path d="M 45.40625 46.390625 
L 45.40625 75.984375 
L 54.390625 75.984375 
L 54.390625 0 
L 45.40625 0 
L 45.40625 8.203125 
Q 42.578125 3.328125 38.25 0.953125 
Q 33.9375 -1.421875 27.875 -1.421875 
Q 17.96875 -1.421875 11.734375 6.484375 
Q 5.515625 14.40625 5.515625 27.296875 
Q 5.515625 40.1875 11.734375 48.09375 
Q 17.96875 56 27.875 56 
Q 33.9375 56 38.25 53.625 
Q 42.578125 51.265625 45.40625 46.390625 
z
M 14.796875 27.296875 
Q 14.796875 17.390625 18.875 11.75 
Q 22.953125 6.109375 30.078125 6.109375 
Q 37.203125 6.109375 41.296875 11.75 
Q 45.40625 17.390625 45.40625 27.296875 
Q 45.40625 37.203125 41.296875 42.84375 
Q 37.203125 48.484375 30.078125 48.484375 
Q 22.953125 48.484375 18.875 42.84375 
Q 14.796875 37.203125 14.796875 27.296875 
z
" id="DejaVuSans-100"/>
     </defs>
     <g transform="translate(100 68.438438)scale(0.1 -0.1)">
      <use xlink:href="#DejaVuSans-109"/>
      <use x="97.412109" xlink:href="#DejaVuSans-111"/>
      <use x="158.59375" xlink:href="#DejaVuSans-100"/>
      <use x="222.070312" xlink:href="#DejaVuSans-101"/>
      <use x="283.59375" xlink:href="#DejaVuSans-108"/>
     </g>
    </g>
   </g>
  </g>
 </g>
 <defs>
  <clipPath id="p9c0e36d71a">
   <rect height="332.64" width="390.6" x="63" y="51.84"/>
  </clipPath>
 </defs>
</svg>
