<?xml version="1.0" encoding="utf-8" standalone="no"?>
<!DOCTYPE svg PUBLIC "-//W3C//DTD SVG 1.1//EN"
  "http://www.w3.org/Graphics/SVG/1.1/DTD/svg11.dtd">
<!-- Created with matplotlib (https://matplotlib.org/) -->
<svg height="432pt" version="1.1" viewBox="0 0 504 432" width="504pt" xmlns="http://www.w3.org/2000/svg" xmlns:xlink="http://www.w3.org/1999/xlink">
 <metadata>
  <rdf:RDF xmlns:cc="http://creativecommons.org/ns#" xmlns:dc="http://purl.org/dc/elements/1.1/" xmlns:rdf="http://www.w3.org/1999/02/22-rdf-syntax-ns#">
   <cc:Work>
    <dc:type rdf:resource="http://purl.org/dc/dcmitype/StillImage"/>
    <dc:date>2021-02-02T16:39:13.266806</dc:date>
    <dc:format>image/svg+xml</dc:format>
    <dc:creator>
     <cc:Agent>
      <dc:title>Matplotlib v3.3.2, https://matplotlib.org/</dc:title>
     </cc:Agent>
    </dc:creator>
   </cc:Work>
  </rdf:RDF>
 </metadata>
 <defs>
  <style type="text/css">*{stroke-linecap:butt;stroke-linejoin:round;}</style>
 </defs>
 <g id="figure_1">
  <g id="patch_1">
   <path d="M 0 432 
L 504 432 
L 504 0 
L 0 0 
z
" style="fill:#ffffff;"/>
  </g>
  <g id="axes_1">
   <g id="patch_2">
    <path d="M 63 384.48 
L 453.6 384.48 
L 453.6 51.84 
L 63 51.84 
z
" style="fill:#ffffff;"/>
   </g>
   <g id="matplotlib.axis_1">
    <g id="xtick_1">
     <g id="line2d_1">
      <defs>
       <path d="M 0 0 
L 0 3.5 
" id="mdba23c9aeb" style="stroke:#000000;stroke-width:0.8;"/>
      </defs>
      <g>
       <use style="stroke:#000000;stroke-width:0.8;" x="80.754545" xlink:href="#mdba23c9aeb" y="384.48"/>
      </g>
     </g>
     <g id="text_1">
      <!-- 0 -->
      <g transform="translate(77.573295 399.078438)scale(0.1 -0.1)">
       <defs>
        <path d="M 31.78125 66.40625 
Q 24.171875 66.40625 20.328125 58.90625 
Q 16.5 51.421875 16.5 36.375 
Q 16.5 21.390625 20.328125 13.890625 
Q 24.171875 6.390625 31.78125 6.390625 
Q 39.453125 6.390625 43.28125 13.890625 
Q 47.125 21.390625 47.125 36.375 
Q 47.125 51.421875 43.28125 58.90625 
Q 39.453125 66.40625 31.78125 66.40625 
z
M 31.78125 74.21875 
Q 44.046875 74.21875 50.515625 64.515625 
Q 56.984375 54.828125 56.984375 36.375 
Q 56.984375 17.96875 50.515625 8.265625 
Q 44.046875 -1.421875 31.78125 -1.421875 
Q 19.53125 -1.421875 13.0625 8.265625 
Q 6.59375 17.96875 6.59375 36.375 
Q 6.59375 54.828125 13.0625 64.515625 
Q 19.53125 74.21875 31.78125 74.21875 
z
" id="DejaVuSans-48"/>
       </defs>
       <use xlink:href="#DejaVuSans-48"/>
      </g>
     </g>
    </g>
    <g id="xtick_2">
     <g id="line2d_2">
      <g>
       <use style="stroke:#000000;stroke-width:0.8;" x="151.772727" xlink:href="#mdba23c9aeb" y="384.48"/>
      </g>
     </g>
     <g id="text_2">
      <!-- 200 -->
      <g transform="translate(142.228977 399.078438)scale(0.1 -0.1)">
       <defs>
        <path d="M 19.1875 8.296875 
L 53.609375 8.296875 
L 53.609375 0 
L 7.328125 0 
L 7.328125 8.296875 
Q 12.9375 14.109375 22.625 23.890625 
Q 32.328125 33.6875 34.8125 36.53125 
Q 39.546875 41.84375 41.421875 45.53125 
Q 43.3125 49.21875 43.3125 52.78125 
Q 43.3125 58.59375 39.234375 62.25 
Q 35.15625 65.921875 28.609375 65.921875 
Q 23.96875 65.921875 18.8125 64.3125 
Q 13.671875 62.703125 7.8125 59.421875 
L 7.8125 69.390625 
Q 13.765625 71.78125 18.9375 73 
Q 24.125 74.21875 28.421875 74.21875 
Q 39.75 74.21875 46.484375 68.546875 
Q 53.21875 62.890625 53.21875 53.421875 
Q 53.21875 48.921875 51.53125 44.890625 
Q 49.859375 40.875 45.40625 35.40625 
Q 44.1875 33.984375 37.640625 27.21875 
Q 31.109375 20.453125 19.1875 8.296875 
z
" id="DejaVuSans-50"/>
       </defs>
       <use xlink:href="#DejaVuSans-50"/>
       <use x="63.623047" xlink:href="#DejaVuSans-48"/>
       <use x="127.246094" xlink:href="#DejaVuSans-48"/>
      </g>
     </g>
    </g>
    <g id="xtick_3">
     <g id="line2d_3">
      <g>
       <use style="stroke:#000000;stroke-width:0.8;" x="222.790909" xlink:href="#mdba23c9aeb" y="384.48"/>
      </g>
     </g>
     <g id="text_3">
      <!-- 400 -->
      <g transform="translate(213.247159 399.078438)scale(0.1 -0.1)">
       <defs>
        <path d="M 37.796875 64.3125 
L 12.890625 25.390625 
L 37.796875 25.390625 
z
M 35.203125 72.90625 
L 47.609375 72.90625 
L 47.609375 25.390625 
L 58.015625 25.390625 
L 58.015625 17.1875 
L 47.609375 17.1875 
L 47.609375 0 
L 37.796875 0 
L 37.796875 17.1875 
L 4.890625 17.1875 
L 4.890625 26.703125 
z
" id="DejaVuSans-52"/>
       </defs>
       <use xlink:href="#DejaVuSans-52"/>
       <use x="63.623047" xlink:href="#DejaVuSans-48"/>
       <use x="127.246094" xlink:href="#DejaVuSans-48"/>
      </g>
     </g>
    </g>
    <g id="xtick_4">
     <g id="line2d_4">
      <g>
       <use style="stroke:#000000;stroke-width:0.8;" x="293.809091" xlink:href="#mdba23c9aeb" y="384.48"/>
      </g>
     </g>
     <g id="text_4">
      <!-- 600 -->
      <g transform="translate(284.265341 399.078438)scale(0.1 -0.1)">
       <defs>
        <path d="M 33.015625 40.375 
Q 26.375 40.375 22.484375 35.828125 
Q 18.609375 31.296875 18.609375 23.390625 
Q 18.609375 15.53125 22.484375 10.953125 
Q 26.375 6.390625 33.015625 6.390625 
Q 39.65625 6.390625 43.53125 10.953125 
Q 47.40625 15.53125 47.40625 23.390625 
Q 47.40625 31.296875 43.53125 35.828125 
Q 39.65625 40.375 33.015625 40.375 
z
M 52.59375 71.296875 
L 52.59375 62.3125 
Q 48.875 64.0625 45.09375 64.984375 
Q 41.3125 65.921875 37.59375 65.921875 
Q 27.828125 65.921875 22.671875 59.328125 
Q 17.53125 52.734375 16.796875 39.40625 
Q 19.671875 43.65625 24.015625 45.921875 
Q 28.375 48.1875 33.59375 48.1875 
Q 44.578125 48.1875 50.953125 41.515625 
Q 57.328125 34.859375 57.328125 23.390625 
Q 57.328125 12.15625 50.6875 5.359375 
Q 44.046875 -1.421875 33.015625 -1.421875 
Q 20.359375 -1.421875 13.671875 8.265625 
Q 6.984375 17.96875 6.984375 36.375 
Q 6.984375 53.65625 15.1875 63.9375 
Q 23.390625 74.21875 37.203125 74.21875 
Q 40.921875 74.21875 44.703125 73.484375 
Q 48.484375 72.75 52.59375 71.296875 
z
" id="DejaVuSans-54"/>
       </defs>
       <use xlink:href="#DejaVuSans-54"/>
       <use x="63.623047" xlink:href="#DejaVuSans-48"/>
       <use x="127.246094" xlink:href="#DejaVuSans-48"/>
      </g>
     </g>
    </g>
    <g id="xtick_5">
     <g id="line2d_5">
      <g>
       <use style="stroke:#000000;stroke-width:0.8;" x="364.827273" xlink:href="#mdba23c9aeb" y="384.48"/>
      </g>
     </g>
     <g id="text_5">
      <!-- 800 -->
      <g transform="translate(355.283523 399.078438)scale(0.1 -0.1)">
       <defs>
        <path d="M 31.78125 34.625 
Q 24.75 34.625 20.71875 30.859375 
Q 16.703125 27.09375 16.703125 20.515625 
Q 16.703125 13.921875 20.71875 10.15625 
Q 24.75 6.390625 31.78125 6.390625 
Q 38.8125 6.390625 42.859375 10.171875 
Q 46.921875 13.96875 46.921875 20.515625 
Q 46.921875 27.09375 42.890625 30.859375 
Q 38.875 34.625 31.78125 34.625 
z
M 21.921875 38.8125 
Q 15.578125 40.375 12.03125 44.71875 
Q 8.5 49.078125 8.5 55.328125 
Q 8.5 64.0625 14.71875 69.140625 
Q 20.953125 74.21875 31.78125 74.21875 
Q 42.671875 74.21875 48.875 69.140625 
Q 55.078125 64.0625 55.078125 55.328125 
Q 55.078125 49.078125 51.53125 44.71875 
Q 48 40.375 41.703125 38.8125 
Q 48.828125 37.15625 52.796875 32.3125 
Q 56.78125 27.484375 56.78125 20.515625 
Q 56.78125 9.90625 50.3125 4.234375 
Q 43.84375 -1.421875 31.78125 -1.421875 
Q 19.734375 -1.421875 13.25 4.234375 
Q 6.78125 9.90625 6.78125 20.515625 
Q 6.78125 27.484375 10.78125 32.3125 
Q 14.796875 37.15625 21.921875 38.8125 
z
M 18.3125 54.390625 
Q 18.3125 48.734375 21.84375 45.5625 
Q 25.390625 42.390625 31.78125 42.390625 
Q 38.140625 42.390625 41.71875 45.5625 
Q 45.3125 48.734375 45.3125 54.390625 
Q 45.3125 60.0625 41.71875 63.234375 
Q 38.140625 66.40625 31.78125 66.40625 
Q 25.390625 66.40625 21.84375 63.234375 
Q 18.3125 60.0625 18.3125 54.390625 
z
" id="DejaVuSans-56"/>
       </defs>
       <use xlink:href="#DejaVuSans-56"/>
       <use x="63.623047" xlink:href="#DejaVuSans-48"/>
       <use x="127.246094" xlink:href="#DejaVuSans-48"/>
      </g>
     </g>
    </g>
    <g id="text_6">
     <!-- time [ms] -->
     <g transform="translate(234.038281 412.756563)scale(0.1 -0.1)">
      <defs>
       <path d="M 18.3125 70.21875 
L 18.3125 54.6875 
L 36.8125 54.6875 
L 36.8125 47.703125 
L 18.3125 47.703125 
L 18.3125 18.015625 
Q 18.3125 11.328125 20.140625 9.421875 
Q 21.96875 7.515625 27.59375 7.515625 
L 36.8125 7.515625 
L 36.8125 0 
L 27.59375 0 
Q 17.1875 0 13.234375 3.875 
Q 9.28125 7.765625 9.28125 18.015625 
L 9.28125 47.703125 
L 2.6875 47.703125 
L 2.6875 54.6875 
L 9.28125 54.6875 
L 9.28125 70.21875 
z
" id="DejaVuSans-116"/>
       <path d="M 9.421875 54.6875 
L 18.40625 54.6875 
L 18.40625 0 
L 9.421875 0 
z
M 9.421875 75.984375 
L 18.40625 75.984375 
L 18.40625 64.59375 
L 9.421875 64.59375 
z
" id="DejaVuSans-105"/>
       <path d="M 52 44.1875 
Q 55.375 50.25 60.0625 53.125 
Q 64.75 56 71.09375 56 
Q 79.640625 56 84.28125 50.015625 
Q 88.921875 44.046875 88.921875 33.015625 
L 88.921875 0 
L 79.890625 0 
L 79.890625 32.71875 
Q 79.890625 40.578125 77.09375 44.375 
Q 74.3125 48.1875 68.609375 48.1875 
Q 61.625 48.1875 57.5625 43.546875 
Q 53.515625 38.921875 53.515625 30.90625 
L 53.515625 0 
L 44.484375 0 
L 44.484375 32.71875 
Q 44.484375 40.625 41.703125 44.40625 
Q 38.921875 48.1875 33.109375 48.1875 
Q 26.21875 48.1875 22.15625 43.53125 
Q 18.109375 38.875 18.109375 30.90625 
L 18.109375 0 
L 9.078125 0 
L 9.078125 54.6875 
L 18.109375 54.6875 
L 18.109375 46.1875 
Q 21.1875 51.21875 25.484375 53.609375 
Q 29.78125 56 35.6875 56 
Q 41.65625 56 45.828125 52.96875 
Q 50 49.953125 52 44.1875 
z
" id="DejaVuSans-109"/>
       <path d="M 56.203125 29.59375 
L 56.203125 25.203125 
L 14.890625 25.203125 
Q 15.484375 15.921875 20.484375 11.0625 
Q 25.484375 6.203125 34.421875 6.203125 
Q 39.59375 6.203125 44.453125 7.46875 
Q 49.3125 8.734375 54.109375 11.28125 
L 54.109375 2.78125 
Q 49.265625 0.734375 44.1875 -0.34375 
Q 39.109375 -1.421875 33.890625 -1.421875 
Q 20.796875 -1.421875 13.15625 6.1875 
Q 5.515625 13.8125 5.515625 26.8125 
Q 5.515625 40.234375 12.765625 48.109375 
Q 20.015625 56 32.328125 56 
Q 43.359375 56 49.78125 48.890625 
Q 56.203125 41.796875 56.203125 29.59375 
z
M 47.21875 32.234375 
Q 47.125 39.59375 43.09375 43.984375 
Q 39.0625 48.390625 32.421875 48.390625 
Q 24.90625 48.390625 20.390625 44.140625 
Q 15.875 39.890625 15.1875 32.171875 
z
" id="DejaVuSans-101"/>
       <path id="DejaVuSans-32"/>
       <path d="M 8.59375 75.984375 
L 29.296875 75.984375 
L 29.296875 69 
L 17.578125 69 
L 17.578125 -6.203125 
L 29.296875 -6.203125 
L 29.296875 -13.1875 
L 8.59375 -13.1875 
z
" id="DejaVuSans-91"/>
       <path d="M 44.28125 53.078125 
L 44.28125 44.578125 
Q 40.484375 46.53125 36.375 47.5 
Q 32.28125 48.484375 27.875 48.484375 
Q 21.1875 48.484375 17.84375 46.4375 
Q 14.5 44.390625 14.5 40.28125 
Q 14.5 37.15625 16.890625 35.375 
Q 19.28125 33.59375 26.515625 31.984375 
L 29.59375 31.296875 
Q 39.15625 29.25 43.1875 25.515625 
Q 47.21875 21.78125 47.21875 15.09375 
Q 47.21875 7.46875 41.1875 3.015625 
Q 35.15625 -1.421875 24.609375 -1.421875 
Q 20.21875 -1.421875 15.453125 -0.5625 
Q 10.6875 0.296875 5.421875 2 
L 5.421875 11.28125 
Q 10.40625 8.6875 15.234375 7.390625 
Q 20.0625 6.109375 24.8125 6.109375 
Q 31.15625 6.109375 34.5625 8.28125 
Q 37.984375 10.453125 37.984375 14.40625 
Q 37.984375 18.0625 35.515625 20.015625 
Q 33.0625 21.96875 24.703125 23.78125 
L 21.578125 24.515625 
Q 13.234375 26.265625 9.515625 29.90625 
Q 5.8125 33.546875 5.8125 39.890625 
Q 5.8125 47.609375 11.28125 51.796875 
Q 16.75 56 26.8125 56 
Q 31.78125 56 36.171875 55.265625 
Q 40.578125 54.546875 44.28125 53.078125 
z
" id="DejaVuSans-115"/>
       <path d="M 30.421875 75.984375 
L 30.421875 -13.1875 
L 9.71875 -13.1875 
L 9.71875 -6.203125 
L 21.390625 -6.203125 
L 21.390625 69 
L 9.71875 69 
L 9.71875 75.984375 
z
" id="DejaVuSans-93"/>
      </defs>
      <use xlink:href="#DejaVuSans-116"/>
      <use x="39.208984" xlink:href="#DejaVuSans-105"/>
      <use x="66.992188" xlink:href="#DejaVuSans-109"/>
      <use x="164.404297" xlink:href="#DejaVuSans-101"/>
      <use x="225.927734" xlink:href="#DejaVuSans-32"/>
      <use x="257.714844" xlink:href="#DejaVuSans-91"/>
      <use x="296.728516" xlink:href="#DejaVuSans-109"/>
      <use x="394.140625" xlink:href="#DejaVuSans-115"/>
      <use x="446.240234" xlink:href="#DejaVuSans-93"/>
     </g>
    </g>
   </g>
   <g id="matplotlib.axis_2">
    <g id="ytick_1">
     <g id="line2d_6">
      <defs>
       <path d="M 0 0 
L -3.5 0 
" id="m1618c7a306" style="stroke:#000000;stroke-width:0.8;"/>
      </defs>
      <g>
       <use style="stroke:#000000;stroke-width:0.8;" x="63" xlink:href="#m1618c7a306" y="379.239027"/>
      </g>
     </g>
     <g id="text_7">
      <!-- −80 -->
      <g transform="translate(34.895313 383.038245)scale(0.1 -0.1)">
       <defs>
        <path d="M 10.59375 35.5 
L 73.1875 35.5 
L 73.1875 27.203125 
L 10.59375 27.203125 
z
" id="DejaVuSans-8722"/>
       </defs>
       <use xlink:href="#DejaVuSans-8722"/>
       <use x="83.789062" xlink:href="#DejaVuSans-56"/>
       <use x="147.412109" xlink:href="#DejaVuSans-48"/>
      </g>
     </g>
    </g>
    <g id="ytick_2">
     <g id="line2d_7">
      <g>
       <use style="stroke:#000000;stroke-width:0.8;" x="63" xlink:href="#m1618c7a306" y="328.787472"/>
      </g>
     </g>
     <g id="text_8">
      <!-- −60 -->
      <g transform="translate(34.895313 332.586691)scale(0.1 -0.1)">
       <use xlink:href="#DejaVuSans-8722"/>
       <use x="83.789062" xlink:href="#DejaVuSans-54"/>
       <use x="147.412109" xlink:href="#DejaVuSans-48"/>
      </g>
     </g>
    </g>
    <g id="ytick_3">
     <g id="line2d_8">
      <g>
       <use style="stroke:#000000;stroke-width:0.8;" x="63" xlink:href="#m1618c7a306" y="278.335918"/>
      </g>
     </g>
     <g id="text_9">
      <!-- −40 -->
      <g transform="translate(34.895313 282.135137)scale(0.1 -0.1)">
       <use xlink:href="#DejaVuSans-8722"/>
       <use x="83.789062" xlink:href="#DejaVuSans-52"/>
       <use x="147.412109" xlink:href="#DejaVuSans-48"/>
      </g>
     </g>
    </g>
    <g id="ytick_4">
     <g id="line2d_9">
      <g>
       <use style="stroke:#000000;stroke-width:0.8;" x="63" xlink:href="#m1618c7a306" y="227.884364"/>
      </g>
     </g>
     <g id="text_10">
      <!-- −20 -->
      <g transform="translate(34.895313 231.683583)scale(0.1 -0.1)">
       <use xlink:href="#DejaVuSans-8722"/>
       <use x="83.789062" xlink:href="#DejaVuSans-50"/>
       <use x="147.412109" xlink:href="#DejaVuSans-48"/>
      </g>
     </g>
    </g>
    <g id="ytick_5">
     <g id="line2d_10">
      <g>
       <use style="stroke:#000000;stroke-width:0.8;" x="63" xlink:href="#m1618c7a306" y="177.43281"/>
      </g>
     </g>
     <g id="text_11">
      <!-- 0 -->
      <g transform="translate(49.6375 181.232029)scale(0.1 -0.1)">
       <use xlink:href="#DejaVuSans-48"/>
      </g>
     </g>
    </g>
    <g id="ytick_6">
     <g id="line2d_11">
      <g>
       <use style="stroke:#000000;stroke-width:0.8;" x="63" xlink:href="#m1618c7a306" y="126.981256"/>
      </g>
     </g>
     <g id="text_12">
      <!-- 20 -->
      <g transform="translate(43.275 130.780474)scale(0.1 -0.1)">
       <use xlink:href="#DejaVuSans-50"/>
       <use x="63.623047" xlink:href="#DejaVuSans-48"/>
      </g>
     </g>
    </g>
    <g id="ytick_7">
     <g id="line2d_12">
      <g>
       <use style="stroke:#000000;stroke-width:0.8;" x="63" xlink:href="#m1618c7a306" y="76.529702"/>
      </g>
     </g>
     <g id="text_13">
      <!-- 40 -->
      <g transform="translate(43.275 80.32892)scale(0.1 -0.1)">
       <use xlink:href="#DejaVuSans-52"/>
       <use x="63.623047" xlink:href="#DejaVuSans-48"/>
      </g>
     </g>
    </g>
    <g id="text_14">
     <!-- voltage [mV] -->
     <g transform="translate(28.815625 250.624062)rotate(-90)scale(0.1 -0.1)">
      <defs>
       <path d="M 2.984375 54.6875 
L 12.5 54.6875 
L 29.59375 8.796875 
L 46.6875 54.6875 
L 56.203125 54.6875 
L 35.6875 0 
L 23.484375 0 
z
" id="DejaVuSans-118"/>
       <path d="M 30.609375 48.390625 
Q 23.390625 48.390625 19.1875 42.75 
Q 14.984375 37.109375 14.984375 27.296875 
Q 14.984375 17.484375 19.15625 11.84375 
Q 23.34375 6.203125 30.609375 6.203125 
Q 37.796875 6.203125 41.984375 11.859375 
Q 46.1875 17.53125 46.1875 27.296875 
Q 46.1875 37.015625 41.984375 42.703125 
Q 37.796875 48.390625 30.609375 48.390625 
z
M 30.609375 56 
Q 42.328125 56 49.015625 48.375 
Q 55.71875 40.765625 55.71875 27.296875 
Q 55.71875 13.875 49.015625 6.21875 
Q 42.328125 -1.421875 30.609375 -1.421875 
Q 18.84375 -1.421875 12.171875 6.21875 
Q 5.515625 13.875 5.515625 27.296875 
Q 5.515625 40.765625 12.171875 48.375 
Q 18.84375 56 30.609375 56 
z
" id="DejaVuSans-111"/>
       <path d="M 9.421875 75.984375 
L 18.40625 75.984375 
L 18.40625 0 
L 9.421875 0 
z
" id="DejaVuSans-108"/>
       <path d="M 34.28125 27.484375 
Q 23.390625 27.484375 19.1875 25 
Q 14.984375 22.515625 14.984375 16.5 
Q 14.984375 11.71875 18.140625 8.90625 
Q 21.296875 6.109375 26.703125 6.109375 
Q 34.1875 6.109375 38.703125 11.40625 
Q 43.21875 16.703125 43.21875 25.484375 
L 43.21875 27.484375 
z
M 52.203125 31.203125 
L 52.203125 0 
L 43.21875 0 
L 43.21875 8.296875 
Q 40.140625 3.328125 35.546875 0.953125 
Q 30.953125 -1.421875 24.3125 -1.421875 
Q 15.921875 -1.421875 10.953125 3.296875 
Q 6 8.015625 6 15.921875 
Q 6 25.140625 12.171875 29.828125 
Q 18.359375 34.515625 30.609375 34.515625 
L 43.21875 34.515625 
L 43.21875 35.40625 
Q 43.21875 41.609375 39.140625 45 
Q 35.0625 48.390625 27.6875 48.390625 
Q 23 48.390625 18.546875 47.265625 
Q 14.109375 46.140625 10.015625 43.890625 
L 10.015625 52.203125 
Q 14.9375 54.109375 19.578125 55.046875 
Q 24.21875 56 28.609375 56 
Q 40.484375 56 46.34375 49.84375 
Q 52.203125 43.703125 52.203125 31.203125 
z
" id="DejaVuSans-97"/>
       <path d="M 45.40625 27.984375 
Q 45.40625 37.75 41.375 43.109375 
Q 37.359375 48.484375 30.078125 48.484375 
Q 22.859375 48.484375 18.828125 43.109375 
Q 14.796875 37.75 14.796875 27.984375 
Q 14.796875 18.265625 18.828125 12.890625 
Q 22.859375 7.515625 30.078125 7.515625 
Q 37.359375 7.515625 41.375 12.890625 
Q 45.40625 18.265625 45.40625 27.984375 
z
M 54.390625 6.78125 
Q 54.390625 -7.171875 48.1875 -13.984375 
Q 42 -20.796875 29.203125 -20.796875 
Q 24.46875 -20.796875 20.265625 -20.09375 
Q 16.0625 -19.390625 12.109375 -17.921875 
L 12.109375 -9.1875 
Q 16.0625 -11.328125 19.921875 -12.34375 
Q 23.78125 -13.375 27.78125 -13.375 
Q 36.625 -13.375 41.015625 -8.765625 
Q 45.40625 -4.15625 45.40625 5.171875 
L 45.40625 9.625 
Q 42.625 4.78125 38.28125 2.390625 
Q 33.9375 0 27.875 0 
Q 17.828125 0 11.671875 7.65625 
Q 5.515625 15.328125 5.515625 27.984375 
Q 5.515625 40.671875 11.671875 48.328125 
Q 17.828125 56 27.875 56 
Q 33.9375 56 38.28125 53.609375 
Q 42.625 51.21875 45.40625 46.390625 
L 45.40625 54.6875 
L 54.390625 54.6875 
z
" id="DejaVuSans-103"/>
       <path d="M 28.609375 0 
L 0.78125 72.90625 
L 11.078125 72.90625 
L 34.1875 11.53125 
L 57.328125 72.90625 
L 67.578125 72.90625 
L 39.796875 0 
z
" id="DejaVuSans-86"/>
      </defs>
      <use xlink:href="#DejaVuSans-118"/>
      <use x="59.179688" xlink:href="#DejaVuSans-111"/>
      <use x="120.361328" xlink:href="#DejaVuSans-108"/>
      <use x="148.144531" xlink:href="#DejaVuSans-116"/>
      <use x="187.353516" xlink:href="#DejaVuSans-97"/>
      <use x="248.632812" xlink:href="#DejaVuSans-103"/>
      <use x="312.109375" xlink:href="#DejaVuSans-101"/>
      <use x="373.632812" xlink:href="#DejaVuSans-32"/>
      <use x="405.419922" xlink:href="#DejaVuSans-91"/>
      <use x="444.433594" xlink:href="#DejaVuSans-109"/>
      <use x="541.845703" xlink:href="#DejaVuSans-86"/>
      <use x="610.253906" xlink:href="#DejaVuSans-93"/>
     </g>
    </g>
   </g>
   <g id="line2d_13">
    <path clip-path="url(#p78a23f85f3)" d="M 80.754545 341.400361 
L 81.979609 341.268682 
L 151.772727 341.334017 
L 152.314241 298.546559 
L 152.420768 251.807482 
L 152.562805 77.347521 
L 152.678209 101.581925 
L 153.565936 366.855188 
L 153.610323 366.758573 
L 153.8145 365.433463 
L 154.293873 360.865075 
L 154.959668 352.09937 
L 157.42755 314.724354 
L 157.613973 304.030895 
L 157.738255 282.921712 
L 157.835905 222.804145 
L 157.969064 100.758808 
L 158.031205 113.398436 
L 158.883423 366.447287 
L 158.945564 366.270959 
L 159.203005 364.368935 
L 159.717886 358.917141 
L 160.534595 347.455052 
L 161.8218 330.031608 
L 162.514227 320.069192 
L 162.771668 312.841754 
L 162.940336 301.317862 
L 163.064618 274.441815 
L 163.162268 193.332945 
L 163.268795 101.643224 
L 163.322059 110.78555 
L 163.863573 298.279165 
L 164.147645 366.277518 
L 164.183155 366.416764 
L 164.245295 366.242454 
L 164.493859 364.413081 
L 165.008741 358.980205 
L 165.834327 347.399807 
L 167.112655 330.103249 
L 167.813959 320.035137 
L 168.0714 312.798366 
L 168.240068 301.236635 
L 168.36435 274.205197 
L 168.462 192.616407 
L 168.568527 101.717135 
L 168.621791 110.99896 
L 169.172182 302.076906 
L 169.4385 366.195029 
L 169.482886 366.414746 
L 169.545027 366.236652 
L 169.802468 364.326808 
L 170.31735 358.85786 
L 171.151814 347.122072 
L 172.430141 329.86991 
L 173.113691 320.017479 
L 173.371132 312.763302 
L 173.5398 301.144561 
L 173.664082 273.880289 
L 173.761732 191.509979 
L 173.868259 101.73328 
L 173.921523 111.22574 
L 174.480791 305.989424 
L 174.729355 366.089838 
L 174.782618 366.414746 
L 174.844759 366.232616 
L 175.1022 364.319745 
L 175.617082 358.847517 
L 176.451545 347.109711 
L 177.729873 329.859568 
L 178.413423 320.001334 
L 178.670864 312.728743 
L 178.839532 301.051226 
L 178.963814 273.546804 
L 179.061464 190.371161 
L 179.167991 101.749929 
L 179.221255 111.455042 
L 179.7894 310.001079 
L 180.029086 366.101694 
L 180.08235 366.414998 
L 180.144491 366.228327 
L 180.401932 364.312682 
L 180.916814 358.837427 
L 181.751277 347.097855 
L 183.029605 329.849478 
L 183.713155 319.984937 
L 183.970595 312.693931 
L 184.139264 300.956882 
L 184.263545 273.2055 
L 184.361195 189.212314 
L 184.467723 101.772884 
L 184.520986 111.687876 
L 185.098009 314.101025 
L 185.328818 366.113298 
L 185.382082 366.414998 
L 185.444223 366.224291 
L 185.701664 364.305367 
L 186.216545 358.827337 
L 187.051009 347.085747 
L 188.329336 329.839387 
L 189.012886 319.968793 
L 189.270327 312.658867 
L 189.438995 300.861024 
L 189.563277 272.85915 
L 189.660927 188.048851 
L 189.767455 101.80139 
L 189.820718 111.92298 
L 190.406618 318.270341 
L 190.619673 365.984646 
L 190.681814 366.414746 
L 190.743955 366.220003 
L 191.010273 364.220103 
L 191.525155 358.706758 
L 192.368495 346.81129 
L 193.637945 329.718304 
L 194.312618 319.952144 
L 194.570059 312.623803 
L 194.738727 300.764661 
L 194.863009 272.50952 
L 194.969536 174.042087 
L 195.058309 101.788524 
L 195.12045 112.160607 
L 195.715227 322.484055 
L 195.919405 365.99953 
L 195.981545 366.414746 
L 196.043686 366.215715 
L 196.310005 364.212788 
L 196.833764 358.585674 
L 197.703736 346.275242 
L 198.955432 329.486479 
L 199.61235 319.935747 
L 199.869791 312.588235 
L 200.038459 300.66729 
L 200.162741 272.152828 
L 200.269268 172.827945 
L 200.358041 101.760272 
L 200.420182 112.40227 
L 201.023836 326.706598 
L 201.219136 366.013656 
L 201.281277 366.414241 
L 201.343418 366.211426 
L 201.609736 364.205472 
L 202.133495 358.575079 
L 202.994591 346.393803 
L 204.255164 329.476136 
L 204.912082 319.918846 
L 205.169523 312.552162 
L 205.338191 300.568405 
L 205.462473 271.78882 
L 205.569 171.605655 
L 205.657773 101.73883 
L 205.719914 112.645699 
L 206.332445 330.891807 
L 206.518868 366.027783 
L 206.581009 366.413989 
L 206.634273 366.251787 
L 206.873959 364.507425 
L 207.388841 359.114658 
L 208.187795 347.955784 
L 209.510509 330.018995 
L 210.202936 320.079282 
L 210.460377 312.893467 
L 210.629045 301.494191 
L 210.753327 275.121145 
L 210.850977 195.793821 
L 210.957505 101.724199 
L 211.019645 112.890137 
L 211.641055 334.987716 
L 211.827477 366.167786 
L 211.880741 366.413485 
L 211.934005 366.247751 
L 212.182568 364.423675 
L 212.69745 358.99534 
L 213.514159 347.549396 
L 214.810241 330.008652 
L 215.502668 320.062885 
L 215.760109 312.858908 
L 215.928777 301.401612 
L 216.053059 274.794976 
L 216.150709 194.660679 
L 216.257236 101.718144 
L 216.319377 113.13407 
L 216.949664 338.93328 
L 217.127209 366.177876 
L 217.171595 366.413989 
L 217.233736 366.243715 
L 217.4823 364.416612 
L 217.997182 358.98525 
L 218.822768 347.405862 
L 220.101095 330.108799 
L 220.8024 320.046488 
L 221.059841 312.824601 
L 221.228509 301.309286 
L 221.352791 274.467545 
L 221.450441 193.528092 
L 221.556968 101.718649 
L 221.610232 110.821118 
L 222.151745 298.332392 
L 222.426941 366.187462 
L 222.471327 366.414241 
L 222.533468 366.239679 
L 222.782032 364.409549 
L 223.296914 358.97516 
L 224.1225 347.393501 
L 225.418582 329.87773 
L 226.111009 319.85225 
L 226.36845 312.408628 
L 226.537118 300.171099 
L 226.652523 274.137592 
L 226.750173 192.390989 
L 226.8567 101.724451 
L 226.909964 111.049412 
L 227.460355 302.149304 
L 227.726673 366.196795 
L 227.771059 366.414746 
L 227.8332 366.235643 
L 228.090641 364.325043 
L 228.605523 358.855337 
L 229.439986 347.119045 
L 230.718314 329.867388 
L 231.401864 320.013695 
L 231.659305 312.75523 
L 231.827973 301.123372 
L 231.952255 273.805369 
L 232.049905 191.253685 
L 232.156432 101.736812 
L 232.209695 111.277453 
L 232.768964 306.064849 
L 233.017527 366.092613 
L 233.070791 366.414746 
L 233.132932 366.231607 
L 233.390373 364.317979 
L 233.905255 358.845247 
L 234.739718 347.106936 
L 236.018045 329.857298 
L 236.701595 319.99755 
L 236.959036 312.720923 
L 237.127705 301.030036 
L 237.251986 273.470118 
L 237.349636 190.109873 
L 237.456164 101.75447 
L 237.509427 111.507764 
L 238.077573 310.078775 
L 238.317259 366.104217 
L 238.370523 366.414998 
L 238.432664 366.227571 
L 238.698982 364.232969 
L 239.213864 358.72492 
L 240.057205 346.832732 
L 241.317777 329.847207 
L 242.001327 319.981406 
L 242.258768 312.686111 
L 242.427436 300.935187 
L 242.551718 273.127047 
L 242.649368 188.948327 
L 242.755895 101.778939 
L 242.809159 111.741102 
L 243.386182 314.180486 
L 243.616991 366.115821 
L 243.670255 366.414998 
L 243.732395 366.223282 
L 243.989836 364.303853 
L 244.504718 358.825066 
L 245.348059 346.951798 
L 246.617509 329.836865 
L 247.301059 319.965009 
L 247.5585 312.651047 
L 247.727168 300.839077 
L 247.85145 272.780193 
L 247.9491 187.783728 
L 248.055627 101.808957 
L 248.108891 111.976711 
L 248.694791 318.351568 
L 248.907845 365.988178 
L 248.969986 366.414746 
L 249.032127 366.219246 
L 249.298445 364.21859 
L 249.822205 358.593746 
L 250.692177 346.284828 
L 251.943873 329.494551 
L 252.600791 319.94836 
L 252.858232 312.615731 
L 253.0269 300.742462 
L 253.151182 272.428798 
L 253.257709 173.765663 
L 253.346482 101.781461 
L 253.408623 112.215599 
L 254.0034 322.566796 
L 254.207577 366.002809 
L 254.269718 366.414494 
L 254.331859 366.214958 
L 254.598177 364.211274 
L 255.121936 358.583151 
L 255.983032 346.403389 
L 257.22585 329.705691 
L 257.900523 319.931963 
L 258.157964 312.580163 
L 258.326632 300.644839 
L 258.450914 272.07034 
L 258.557441 172.549024 
L 258.646214 101.754722 
L 258.708355 112.458019 
L 259.312009 326.789339 
L 259.507309 366.016935 
L 259.56945 366.414241 
L 259.631591 366.210417 
L 259.897909 364.203707 
L 260.421668 358.572809 
L 261.291641 346.260359 
L 262.525582 329.695348 
L 263.200255 319.915062 
L 263.457695 312.54409 
L 263.626364 300.545701 
L 263.750645 271.70507 
L 263.857173 171.326229 
L 263.945945 101.734793 
L 264.008086 112.701448 
L 264.620618 330.973286 
L 264.807041 366.031062 
L 264.869182 366.413737 
L 264.922445 366.251031 
L 265.171009 364.429225 
L 265.685891 359.003413 
L 266.511477 347.427556 
L 267.807559 329.906236 
L 268.499986 319.898413 
L 268.757427 312.508017 
L 268.926095 300.446564 
L 269.050377 271.339801 
L 269.156905 170.112542 
L 269.245677 101.722181 
L 269.298941 110.418767 
L 269.8227 291.067116 
L 270.133405 366.329987 
L 270.168914 366.413485 
L 270.222177 366.246995 
L 270.470741 364.422162 
L 270.985623 358.99307 
L 271.802332 347.546621 
L 273.098414 330.006382 
L 273.790841 320.059101 
L 274.048282 312.851088 
L 274.21695 301.380675 
L 274.341232 274.720308 
L 274.438882 194.401459 
L 274.545409 101.717892 
L 274.598673 110.645547 
L 275.131309 294.687267 
L 275.424259 366.270455 
L 275.459768 366.413989 
L 275.521909 366.242958 
L 275.770473 364.415099 
L 276.285355 358.98298 
L 277.110941 347.403087 
L 278.389268 330.106528 
L 279.090573 320.042704 
L 279.348014 312.816528 
L 279.516682 301.288096 
L 279.640964 274.392372 
L 279.738614 193.268771 
L 279.845141 101.719153 
L 279.898405 110.873336 
L 280.439918 298.405294 
L 280.715114 366.18948 
L 280.7595 366.414494 
L 280.821641 366.238922 
L 281.079082 364.330592 
L 281.593964 358.863157 
L 282.428427 347.128378 
L 283.706755 329.875208 
L 284.390305 320.026308 
L 284.647745 312.781969 
L 284.816414 301.195265 
L 284.940695 274.061915 
L 285.038345 192.131567 
L 285.144873 101.726721 
L 285.198136 111.101377 
L 285.748527 302.223216 
L 286.014845 366.198813 
L 286.059232 366.414746 
L 286.121373 366.234634 
L 286.378814 364.323529 
L 286.902573 358.74283 
L 287.754791 346.723 
L 289.006486 329.865118 
L 289.690036 320.010163 
L 289.947477 312.74741 
L 290.116145 301.102182 
L 290.240427 273.729187 
L 290.338077 190.993406 
L 290.444605 101.740343 
L 290.497868 111.32967 
L 291.057136 306.141031 
L 291.3057 366.095388 
L 291.358964 366.414998 
L 291.421105 366.230598 
L 291.678545 364.316466 
L 292.193427 358.842977 
L 293.027891 347.104161 
L 294.315095 329.744286 
L 294.989768 319.993766 
L 295.247209 312.71285 
L 295.415877 301.008594 
L 295.540159 273.392423 
L 295.637809 189.845835 
L 295.744336 101.759515 
L 295.7976 111.560738 
L 296.365745 310.156975 
L 296.605432 366.106992 
L 296.658695 366.414998 
L 296.720836 366.226562 
L 296.978277 364.309403 
L 297.493159 358.832886 
L 298.327623 347.092305 
L 299.60595 329.844937 
L 300.2895 319.977622 
L 300.546941 312.678039 
L 300.715609 300.913241 
L 300.839891 273.048343 
L 300.937541 188.683961 
L 301.044068 101.785245 
L 301.097332 111.794329 
L 301.674355 314.259947 
L 301.905164 366.118343 
L 301.958427 366.414998 
L 302.020568 366.222526 
L 302.286886 364.22414 
L 302.810645 358.601566 
L 303.671741 346.425083 
L 304.914559 329.724105 
L 305.589232 319.961225 
L 305.846673 312.642975 
L 306.015341 300.817383 
L 306.139623 272.700984 
L 306.24615 174.699471 
L 306.334923 101.806435 
L 306.397064 112.030694 
L 306.982964 318.432795 
L 307.196018 365.991457 
L 307.258159 366.414746 
L 307.3203 366.218237 
L 307.586618 364.216824 
L 308.110377 358.591223 
L 308.971473 346.412975 
L 310.214291 329.713763 
L 310.888964 319.944828 
L 311.146405 312.607659 
L 311.315073 300.720516 
L 311.439355 272.347823 
L 311.545882 173.490223 
L 311.634655 101.774902 
L 311.696795 112.270339 
L 312.291573 322.649032 
L 312.49575 366.006088 
L 312.557891 366.414494 
L 312.620032 366.213949 
L 312.88635 364.209509 
L 313.410109 358.580881 
L 314.280082 346.269693 
L 315.531777 329.481686 
L 316.188695 319.927927 
L 316.446136 312.571838 
L 316.614805 300.622388 
L 316.739086 271.988104 
L 316.845614 172.271162 
L 316.934386 101.749677 
L 316.996527 112.513264 
L 317.600182 326.871827 
L 317.795482 366.020215 
L 317.857623 366.414241 
L 317.910886 366.254058 
L 318.15945 364.434775 
L 318.674332 359.011233 
L 319.491041 347.568316 
L 320.796 329.914056 
L 321.488427 319.911278 
L 321.745868 312.535765 
L 321.914536 300.522998 
L 322.038818 271.621573 
L 322.145345 171.04814 
L 322.234118 101.731262 
L 322.296259 112.757197 
L 322.908791 331.054513 
L 323.095214 366.034341 
L 323.157355 366.413737 
L 323.210618 366.250022 
L 323.459182 364.427712 
L 323.974064 359.00089 
L 324.790773 347.555955 
L 326.095732 329.903713 
L 326.779282 320.071714 
L 327.036723 312.877827 
L 327.205391 301.452064 
L 327.329673 274.972565 
L 327.427323 195.277197 
L 327.53385 101.720415 
L 327.595991 113.001382 
L 328.2174 335.14462 
L 328.403823 366.172326 
L 328.457086 366.413232 
L 328.51035 366.245986 
L 328.758914 364.420396 
L 329.273795 358.9908 
L 329.318182 358.438103 
L 329.335936 359.304356 
L 329.531236 363.145738 
L 329.620009 363.326606 
L 329.664395 363.271362 
L 329.815309 362.687133 
L 330.214786 359.97511 
L 332.176664 345.7677 
L 332.869091 342.665686 
L 333.428359 341.071921 
L 333.889977 340.356518 
L 334.262823 340.138063 
L 334.617914 340.176658 
L 335.106164 340.48744 
L 336.562036 341.504039 
L 337.218955 341.59359 
L 338.124436 341.483354 
L 339.917645 341.288863 
L 435.845455 341.334017 
L 435.845455 341.334017 
" style="fill:none;stroke:#1f77b4;stroke-linecap:square;stroke-width:1.5;"/>
   </g>
   <g id="line2d_14">
    <path clip-path="url(#p78a23f85f3)" d="M 80.754545 341.400361 
L 81.003109 342.948546 
L 81.269427 343.521119 
L 81.464727 343.53816 
L 81.722168 343.281741 
L 82.760809 342.061294 
L 83.195795 341.971072 
L 83.914855 342.10933 
L 84.864723 342.208595 
L 105.131536 342.170336 
L 151.772727 342.170334 
L 152.118941 289.16322 
L 152.181082 184.283188 
L 152.2521 66.96 
L 152.314241 72.990428 
L 152.500664 125.211744 
L 153.2286 369.321039 
L 153.317373 369.077192 
L 153.707973 367.258754 
L 154.169591 363.95254 
L 154.755491 357.942696 
L 156.708491 336.56544 
L 157.578464 327.879606 
L 157.782641 323.00137 
L 157.9158 313.794151 
L 158.004573 291.088213 
L 158.075591 193.569009 
L 158.155486 75.886185 
L 158.217627 83.664376 
L 158.448436 158.101166 
L 159.078723 369.231317 
L 159.149741 369.037228 
L 159.531464 367.250867 
L 159.993082 363.940853 
L 160.587859 357.824837 
L 162.487595 336.996361 
L 163.464095 327.32263 
L 163.659395 322.262858 
L 163.792555 311.62399 
L 163.881327 281.919655 
L 163.952345 147.199643 
L 164.014486 76.162511 
L 164.076627 83.332202 
L 164.298559 154.382346 
L 164.937723 369.227578 
L 165.008741 369.037103 
L 165.390464 367.250993 
L 165.852082 363.941051 
L 166.446859 357.825149 
L 168.346595 336.998799 
L 169.323095 327.348166 
L 169.518395 322.34292 
L 169.651555 311.925022 
L 169.740327 283.342619 
L 169.811345 153.666285 
L 169.882364 76.131113 
L 169.944505 84.805224 
L 170.193068 166.304713 
L 170.796723 369.227955 
L 170.876618 369.011989 
L 171.267218 367.159355 
L 171.728836 363.803649 
L 172.323614 357.640732 
L 174.178964 337.254269 
L 175.190973 327.233294 
L 175.386273 322.050633 
L 175.510555 312.223042 
L 175.599327 284.717126 
L 175.670345 160.231405 
L 175.741364 76.109869 
L 175.803505 84.351026 
L 176.043191 162.424167 
L 176.655723 369.2279 
L 176.735618 369.019495 
L 177.126218 367.171404 
L 177.587836 363.821679 
L 178.182614 357.664855 
L 180.046841 337.193251 
L 181.049973 327.268197 
L 181.245273 322.140517 
L 181.369555 312.513384 
L 181.458327 286.025318 
L 181.529345 166.807724 
L 181.600364 76.118099 
L 181.662505 83.904168 
L 181.893314 158.52486 
L 182.514723 369.22713 
L 182.594618 369.026998 
L 182.976341 367.234829 
L 183.437959 363.916768 
L 184.032736 357.792462 
L 185.923595 337.053044 
L 186.908973 327.302892 
L 187.104273 322.228925 
L 187.237432 311.52256 
L 187.326205 281.463115 
L 187.397223 145.272649 
L 187.459364 76.15579 
L 187.521505 83.475828 
L 187.752314 157.800696 
L 188.3826 369.226981 
L 188.453618 369.034326 
L 188.835341 367.246556 
L 189.296959 363.934384 
L 189.891736 357.816173 
L 191.791473 336.99203 
L 192.767973 327.336708 
L 192.963273 322.314714 
L 193.096432 311.826373 
L 193.185205 282.885473 
L 193.256223 151.561994 
L 193.327241 76.144653 
L 193.389382 84.954061 
L 193.646823 169.672685 
L 194.2416 369.227806 
L 194.321495 369.00954 
L 194.712095 367.155432 
L 195.173714 363.797782 
L 195.768491 357.632887 
L 197.623841 337.248237 
L 198.63585 327.221883 
L 198.83115 322.020822 
L 198.955432 312.125308 
L 199.044205 284.267814 
L 199.115223 158.041088 
L 199.186241 76.11311 
L 199.248382 84.500652 
L 199.496945 165.814349 
L 200.1006 369.228008 
L 200.180495 369.017025 
L 200.571095 367.167434 
L 201.032714 363.815737 
L 201.627491 357.656903 
L 203.482841 337.266705 
L 204.49485 327.256617 
L 204.69015 322.110834 
L 204.814432 312.417743 
L 204.903205 285.600959 
L 204.974223 164.639509 
L 205.045241 76.111538 
L 205.107382 84.050569 
L 205.347068 161.929097 
L 205.9596 369.227484 
L 206.039495 369.024539 
L 206.430095 367.179518 
L 206.891714 363.833827 
L 207.486491 357.681121 
L 209.350718 337.205724 
L 210.35385 327.291487 
L 210.54915 322.199886 
L 210.682309 311.419357 
L 210.771082 280.973107 
L 210.8421 143.203452 
L 210.904241 76.139451 
L 210.966382 83.617663 
L 211.197191 158.042155 
L 211.827477 369.226571 
L 211.898495 369.031887 
L 212.280218 367.242648 
L 212.741836 363.928512 
L 213.336614 357.808267 
L 215.23635 336.985974 
L 216.21285 327.325494 
L 216.40815 322.286319 
L 216.541309 311.725995 
L 216.630082 282.417513 
L 216.7011 149.441749 
L 216.772118 76.160717 
L 216.825382 83.196453 
L 217.047314 154.147834 
L 217.686477 369.227608 
L 217.757495 369.039148 
L 218.139218 367.254296 
L 218.600836 363.946016 
L 219.195614 357.831842 
L 221.09535 337.004052 
L 222.07185 327.359086 
L 222.26715 322.371387 
L 222.400309 312.025934 
L 222.489082 283.810438 
L 222.5601 155.859354 
L 222.631118 76.12061 
L 222.693259 84.652003 
L 222.941823 166.058777 
L 223.545477 369.22802 
L 223.625373 369.014516 
L 224.015973 367.163407 
L 224.477591 363.809711 
L 225.072368 357.64884 
L 226.927718 337.260507 
L 227.939727 327.245012 
L 228.135027 322.081034 
L 228.259309 312.321526 
L 228.348082 285.166828 
L 228.4191 162.45817 
L 228.490118 76.108788 
L 228.552259 84.198614 
L 228.791945 162.173751 
L 229.404477 369.227741 
L 229.484373 369.022056 
L 229.874973 367.175521 
L 230.336591 363.827841 
L 230.931368 357.673105 
L 232.795595 337.199573 
L 233.798727 327.280027 
L 233.994027 322.170695 
L 234.118309 312.609423 
L 234.207082 286.44315 
L 234.2781 168.953958 
L 234.349118 76.127004 
L 234.411259 83.758748 
L 234.642068 158.280626 
L 235.263477 369.2267 
L 235.343373 369.029473 
L 235.725095 367.238785 
L 236.186714 363.922708 
L 236.781491 357.800455 
L 238.67235 337.059177 
L 239.657727 327.31433 
L 239.853027 322.257979 
L 239.986186 311.625614 
L 240.074959 281.949057 
L 240.145977 147.370188 
L 240.208118 76.17612 
L 240.270259 83.33428 
L 240.492191 154.386205 
L 241.131355 369.227333 
L 241.202373 369.036765 
L 241.584095 367.250469 
L 242.045714 363.940264 
L 242.640491 357.824092 
L 244.540227 336.998104 
L 245.516727 327.347978 
L 245.712027 322.343248 
L 245.845186 311.927116 
L 245.933959 283.353403 
L 246.004977 153.718253 
L 246.075995 76.131413 
L 246.138136 84.802268 
L 246.3867 166.300087 
L 246.990355 369.227945 
L 247.07025 369.012021 
L 247.46085 367.159408 
L 247.922468 363.803729 
L 248.517245 357.640838 
L 250.372595 337.254356 
L 251.384605 327.233518 
L 251.579905 322.05126 
L 251.704186 312.22512 
L 251.792959 284.726723 
L 251.863977 160.278616 
L 251.934995 76.109864 
L 251.997136 84.347827 
L 252.236823 162.418934 
L 252.849355 369.227897 
L 252.92925 369.019548 
L 253.31985 367.171488 
L 253.781468 363.821805 
L 254.376245 357.665023 
L 256.240473 337.193381 
L 257.243605 327.268445 
L 257.438905 322.141152 
L 257.563186 312.515412 
L 257.651959 286.034151 
L 257.722977 166.852735 
L 257.793995 76.118245 
L 257.856136 83.901119 
L 258.086945 158.519759 
L 258.708355 369.227122 
L 258.78825 369.02705 
L 259.169973 367.234912 
L 259.631591 363.916892 
L 260.226368 357.792629 
L 262.117227 337.053172 
L 263.102605 327.30313 
L 263.297905 322.22953 
L 263.431064 311.524709 
L 263.519836 281.473314 
L 263.590855 145.316049 
L 263.652995 76.156186 
L 263.715136 83.472885 
L 263.945945 157.795671 
L 264.576232 369.226989 
L 264.64725 369.034376 
L 265.028973 367.246637 
L 265.490591 363.934505 
L 266.085368 357.816336 
L 267.985105 336.992155 
L 268.961605 327.336941 
L 269.156905 322.315307 
L 269.290064 311.828468 
L 269.378836 282.895241 
L 269.449855 151.60657 
L 269.520873 76.144343 
L 269.583014 84.950908 
L 269.840455 169.667694 
L 270.435232 369.22781 
L 270.515127 369.009591 
L 270.905727 367.155515 
L 271.367345 363.797906 
L 271.962123 357.633052 
L 273.817473 337.248364 
L 274.829482 327.222124 
L 275.024782 322.021452 
L 275.149064 312.127378 
L 275.237836 284.277333 
L 275.308855 158.087348 
L 275.379873 76.113001 
L 275.442014 84.497467 
L 275.690577 165.809186 
L 276.294232 369.228007 
L 276.374127 369.017078 
L 276.764727 367.167519 
L 277.226345 363.815865 
L 277.821123 357.657073 
L 279.676473 337.266835 
L 280.688482 327.256863 
L 280.883782 322.111465 
L 281.008064 312.41978 
L 281.096836 285.610144 
L 281.167855 164.686086 
L 281.238873 76.111644 
L 281.301014 84.047435 
L 281.5407 161.923901 
L 282.153232 369.227477 
L 282.233127 369.024591 
L 282.623727 367.179603 
L 283.085345 363.833953 
L 283.680123 357.68129 
L 285.54435 337.205854 
L 286.547482 327.29173 
L 286.742782 322.200505 
L 286.875941 311.421558 
L 286.964714 280.983563 
L 287.035732 143.247322 
L 287.097873 76.139756 
L 287.160014 83.61462 
L 287.390823 158.036987 
L 288.021109 369.22658 
L 288.092127 369.031939 
L 288.47385 367.242732 
L 288.935468 363.928638 
L 289.530245 357.808437 
L 291.429982 336.986104 
L 292.406482 327.325734 
L 292.601782 322.286926 
L 292.734941 311.728141 
L 292.823714 282.42752 
L 292.894732 149.486464 
L 292.96575 76.160339 
L 293.019014 83.193508 
L 293.240945 154.142725 
L 293.880109 369.227613 
L 293.951127 369.039199 
L 294.33285 367.254378 
L 294.794468 363.946139 
L 295.389245 357.832007 
L 297.288982 337.004179 
L 298.265482 327.359324 
L 298.460782 322.37199 
L 298.593941 312.028045 
L 298.682714 283.820158 
L 298.753732 155.905399 
L 298.82475 76.120409 
L 298.886891 84.648783 
L 299.135455 166.053589 
L 299.739109 369.228021 
L 299.819005 369.014569 
L 300.209605 367.163493 
L 300.671223 363.80984 
L 301.266 357.649012 
L 303.12135 337.260639 
L 304.133359 327.245259 
L 304.328659 322.08167 
L 304.452941 312.323582 
L 304.541714 285.176108 
L 304.612732 162.504421 
L 304.68375 76.108806 
L 304.745891 84.195443 
L 304.985577 162.168524 
L 305.598109 369.227737 
L 305.678005 369.022109 
L 306.068605 367.175607 
L 306.530223 363.82797 
L 307.125 357.673277 
L 308.989227 337.199705 
L 309.992359 327.280272 
L 310.187659 322.17132 
L 310.311941 312.611411 
L 310.400714 286.451794 
L 310.471732 168.998718 
L 310.54275 76.127233 
L 310.604891 83.755738 
L 310.8357 158.275556 
L 311.457109 369.22669 
L 311.537005 369.029524 
L 311.918727 367.238867 
L 312.380345 363.922832 
L 312.975123 357.800621 
L 314.865982 337.059304 
L 315.851359 327.314568 
L 316.046659 322.258584 
L 316.179818 311.62776 
L 316.268591 281.959076 
L 316.339609 147.414174 
L 316.40175 76.176598 
L 316.463891 83.331329 
L 316.685823 154.381115 
L 317.324986 369.22734 
L 317.396005 369.036817 
L 317.777727 367.250551 
L 318.239345 363.940387 
L 318.834123 357.824258 
L 320.733859 336.998231 
L 321.710359 327.348215 
L 321.905659 322.343846 
L 322.038818 311.929226 
L 322.127591 283.363198 
L 322.198609 153.763813 
L 322.269627 76.131165 
L 322.331768 84.799073 
L 322.580332 166.294976 
L 323.183986 369.227947 
L 323.263882 369.012074 
L 323.654482 367.159492 
L 324.1161 363.803854 
L 324.710877 357.641006 
L 326.566227 337.254485 
L 327.578236 327.233763 
L 327.773536 322.051899 
L 327.897818 312.227196 
L 327.986591 284.736259 
L 328.057609 160.325426 
L 328.128627 76.109831 
L 328.190768 84.344624 
L 328.430455 162.413688 
L 329.042986 369.227894 
L 329.122882 369.019601 
L 329.318182 368.199086 
L 329.371445 369.36 
L 329.442464 369.16605 
L 329.87745 367.330751 
L 330.392332 364.104845 
L 331.191286 357.421512 
L 332.300945 348.577709 
L 333.00225 344.714835 
L 333.552641 342.787878 
L 333.97875 341.974982 
L 334.316086 341.746069 
L 334.6623 341.785011 
L 336.206945 342.249203 
L 340.547932 342.170811 
L 402.786491 342.170334 
L 435.845455 342.170334 
L 435.845455 342.170334 
" style="fill:none;stroke:#ff0000;stroke-linecap:square;stroke-width:1.5;"/>
   </g>
   <g id="patch_3">
    <path d="M 63 384.48 
L 63 51.84 
" style="fill:none;stroke:#000000;stroke-linecap:square;stroke-linejoin:miter;stroke-width:0.8;"/>
   </g>
   <g id="patch_4">
    <path d="M 453.6 384.48 
L 453.6 51.84 
" style="fill:none;stroke:#000000;stroke-linecap:square;stroke-linejoin:miter;stroke-width:0.8;"/>
   </g>
   <g id="patch_5">
    <path d="M 63 384.48 
L 453.6 384.48 
" style="fill:none;stroke:#000000;stroke-linecap:square;stroke-linejoin:miter;stroke-width:0.8;"/>
   </g>
   <g id="patch_6">
    <path d="M 63 51.84 
L 453.6 51.84 
" style="fill:none;stroke:#000000;stroke-linecap:square;stroke-linejoin:miter;stroke-width:0.8;"/>
   </g>
   <g id="legend_1">
    <g id="patch_7">
     <path d="M 383.460938 89.19625 
L 446.6 89.19625 
Q 448.6 89.19625 448.6 87.19625 
L 448.6 58.84 
Q 448.6 56.84 446.6 56.84 
L 383.460938 56.84 
Q 381.460938 56.84 381.460938 58.84 
L 381.460938 87.19625 
Q 381.460938 89.19625 383.460938 89.19625 
z
" style="fill:#ffffff;opacity:0.8;stroke:#cccccc;stroke-linejoin:miter;"/>
    </g>
    <g id="line2d_15">
     <path d="M 385.460938 64.938437 
L 405.460938 64.938437 
" style="fill:none;stroke:#1f77b4;stroke-linecap:square;stroke-width:1.5;"/>
    </g>
    <g id="line2d_16"/>
    <g id="text_15">
     <!-- target -->
     <g transform="translate(413.460938 68.438437)scale(0.1 -0.1)">
      <defs>
       <path d="M 41.109375 46.296875 
Q 39.59375 47.171875 37.8125 47.578125 
Q 36.03125 48 33.890625 48 
Q 26.265625 48 22.1875 43.046875 
Q 18.109375 38.09375 18.109375 28.8125 
L 18.109375 0 
L 9.078125 0 
L 9.078125 54.6875 
L 18.109375 54.6875 
L 18.109375 46.1875 
Q 20.953125 51.171875 25.484375 53.578125 
Q 30.03125 56 36.53125 56 
Q 37.453125 56 38.578125 55.875 
Q 39.703125 55.765625 41.0625 55.515625 
z
" id="DejaVuSans-114"/>
      </defs>
      <use xlink:href="#DejaVuSans-116"/>
      <use x="39.208984" xlink:href="#DejaVuSans-97"/>
      <use x="100.488281" xlink:href="#DejaVuSans-114"/>
      <use x="139.851562" xlink:href="#DejaVuSans-103"/>
      <use x="203.328125" xlink:href="#DejaVuSans-101"/>
      <use x="264.851562" xlink:href="#DejaVuSans-116"/>
     </g>
    </g>
    <g id="line2d_17">
     <path d="M 385.460938 79.616562 
L 405.460938 79.616562 
" style="fill:none;stroke:#ff0000;stroke-linecap:square;stroke-width:1.5;"/>
    </g>
    <g id="line2d_18"/>
    <g id="text_16">
     <!-- model -->
     <g transform="translate(413.460938 83.116562)scale(0.1 -0.1)">
      <defs>
       <path d="M 45.40625 46.390625 
L 45.40625 75.984375 
L 54.390625 75.984375 
L 54.390625 0 
L 45.40625 0 
L 45.40625 8.203125 
Q 42.578125 3.328125 38.25 0.953125 
Q 33.9375 -1.421875 27.875 -1.421875 
Q 17.96875 -1.421875 11.734375 6.484375 
Q 5.515625 14.40625 5.515625 27.296875 
Q 5.515625 40.1875 11.734375 48.09375 
Q 17.96875 56 27.875 56 
Q 33.9375 56 38.25 53.625 
Q 42.578125 51.265625 45.40625 46.390625 
z
M 14.796875 27.296875 
Q 14.796875 17.390625 18.875 11.75 
Q 22.953125 6.109375 30.078125 6.109375 
Q 37.203125 6.109375 41.296875 11.75 
Q 45.40625 17.390625 45.40625 27.296875 
Q 45.40625 37.203125 41.296875 42.84375 
Q 37.203125 48.484375 30.078125 48.484375 
Q 22.953125 48.484375 18.875 42.84375 
Q 14.796875 37.203125 14.796875 27.296875 
z
" id="DejaVuSans-100"/>
      </defs>
      <use xlink:href="#DejaVuSans-109"/>
      <use x="97.412109" xlink:href="#DejaVuSans-111"/>
      <use x="158.59375" xlink:href="#DejaVuSans-100"/>
      <use x="222.070312" xlink:href="#DejaVuSans-101"/>
      <use x="283.59375" xlink:href="#DejaVuSans-108"/>
     </g>
    </g>
   </g>
  </g>
 </g>
 <defs>
  <clipPath id="p78a23f85f3">
   <rect height="332.64" width="390.6" x="63" y="51.84"/>
  </clipPath>
 </defs>
</svg>
