<?xml version="1.0" encoding="utf-8" standalone="no"?>
<!DOCTYPE svg PUBLIC "-//W3C//DTD SVG 1.1//EN"
  "http://www.w3.org/Graphics/SVG/1.1/DTD/svg11.dtd">
<!-- Created with matplotlib (https://matplotlib.org/) -->
<svg height="432pt" version="1.1" viewBox="0 0 504 432" width="504pt" xmlns="http://www.w3.org/2000/svg" xmlns:xlink="http://www.w3.org/1999/xlink">
 <defs>
  <style type="text/css">
*{stroke-linecap:butt;stroke-linejoin:round;}
  </style>
 </defs>
 <g id="figure_1">
  <g id="patch_1">
   <path d="M 0 432 
L 504 432 
L 504 0 
L 0 0 
z
" style="fill:#ffffff;"/>
  </g>
  <g id="axes_1">
   <g id="patch_2">
    <path d="M 63 384.48 
L 453.6 384.48 
L 453.6 51.84 
L 63 51.84 
z
" style="fill:#ffffff;"/>
   </g>
   <g id="matplotlib.axis_1">
    <g id="xtick_1">
     <g id="line2d_1">
      <defs>
       <path d="M 0 0 
L 0 3.5 
" id="m75c6b18791" style="stroke:#000000;stroke-width:0.8;"/>
      </defs>
      <g>
       <use style="stroke:#000000;stroke-width:0.8;" x="80.754545" xlink:href="#m75c6b18791" y="384.48"/>
      </g>
     </g>
     <g id="text_1">
      <!-- 0 -->
      <defs>
       <path d="M 31.78125 66.40625 
Q 24.171875 66.40625 20.328125 58.90625 
Q 16.5 51.421875 16.5 36.375 
Q 16.5 21.390625 20.328125 13.890625 
Q 24.171875 6.390625 31.78125 6.390625 
Q 39.453125 6.390625 43.28125 13.890625 
Q 47.125 21.390625 47.125 36.375 
Q 47.125 51.421875 43.28125 58.90625 
Q 39.453125 66.40625 31.78125 66.40625 
z
M 31.78125 74.21875 
Q 44.046875 74.21875 50.515625 64.515625 
Q 56.984375 54.828125 56.984375 36.375 
Q 56.984375 17.96875 50.515625 8.265625 
Q 44.046875 -1.421875 31.78125 -1.421875 
Q 19.53125 -1.421875 13.0625 8.265625 
Q 6.59375 17.96875 6.59375 36.375 
Q 6.59375 54.828125 13.0625 64.515625 
Q 19.53125 74.21875 31.78125 74.21875 
z
" id="DejaVuSans-48"/>
      </defs>
      <g transform="translate(77.573295 399.078438)scale(0.1 -0.1)">
       <use xlink:href="#DejaVuSans-48"/>
      </g>
     </g>
    </g>
    <g id="xtick_2">
     <g id="line2d_2">
      <g>
       <use style="stroke:#000000;stroke-width:0.8;" x="151.772727" xlink:href="#m75c6b18791" y="384.48"/>
      </g>
     </g>
     <g id="text_2">
      <!-- 200 -->
      <defs>
       <path d="M 19.1875 8.296875 
L 53.609375 8.296875 
L 53.609375 0 
L 7.328125 0 
L 7.328125 8.296875 
Q 12.9375 14.109375 22.625 23.890625 
Q 32.328125 33.6875 34.8125 36.53125 
Q 39.546875 41.84375 41.421875 45.53125 
Q 43.3125 49.21875 43.3125 52.78125 
Q 43.3125 58.59375 39.234375 62.25 
Q 35.15625 65.921875 28.609375 65.921875 
Q 23.96875 65.921875 18.8125 64.3125 
Q 13.671875 62.703125 7.8125 59.421875 
L 7.8125 69.390625 
Q 13.765625 71.78125 18.9375 73 
Q 24.125 74.21875 28.421875 74.21875 
Q 39.75 74.21875 46.484375 68.546875 
Q 53.21875 62.890625 53.21875 53.421875 
Q 53.21875 48.921875 51.53125 44.890625 
Q 49.859375 40.875 45.40625 35.40625 
Q 44.1875 33.984375 37.640625 27.21875 
Q 31.109375 20.453125 19.1875 8.296875 
z
" id="DejaVuSans-50"/>
      </defs>
      <g transform="translate(142.228977 399.078438)scale(0.1 -0.1)">
       <use xlink:href="#DejaVuSans-50"/>
       <use x="63.623047" xlink:href="#DejaVuSans-48"/>
       <use x="127.246094" xlink:href="#DejaVuSans-48"/>
      </g>
     </g>
    </g>
    <g id="xtick_3">
     <g id="line2d_3">
      <g>
       <use style="stroke:#000000;stroke-width:0.8;" x="222.790909" xlink:href="#m75c6b18791" y="384.48"/>
      </g>
     </g>
     <g id="text_3">
      <!-- 400 -->
      <defs>
       <path d="M 37.796875 64.3125 
L 12.890625 25.390625 
L 37.796875 25.390625 
z
M 35.203125 72.90625 
L 47.609375 72.90625 
L 47.609375 25.390625 
L 58.015625 25.390625 
L 58.015625 17.1875 
L 47.609375 17.1875 
L 47.609375 0 
L 37.796875 0 
L 37.796875 17.1875 
L 4.890625 17.1875 
L 4.890625 26.703125 
z
" id="DejaVuSans-52"/>
      </defs>
      <g transform="translate(213.247159 399.078438)scale(0.1 -0.1)">
       <use xlink:href="#DejaVuSans-52"/>
       <use x="63.623047" xlink:href="#DejaVuSans-48"/>
       <use x="127.246094" xlink:href="#DejaVuSans-48"/>
      </g>
     </g>
    </g>
    <g id="xtick_4">
     <g id="line2d_4">
      <g>
       <use style="stroke:#000000;stroke-width:0.8;" x="293.809091" xlink:href="#m75c6b18791" y="384.48"/>
      </g>
     </g>
     <g id="text_4">
      <!-- 600 -->
      <defs>
       <path d="M 33.015625 40.375 
Q 26.375 40.375 22.484375 35.828125 
Q 18.609375 31.296875 18.609375 23.390625 
Q 18.609375 15.53125 22.484375 10.953125 
Q 26.375 6.390625 33.015625 6.390625 
Q 39.65625 6.390625 43.53125 10.953125 
Q 47.40625 15.53125 47.40625 23.390625 
Q 47.40625 31.296875 43.53125 35.828125 
Q 39.65625 40.375 33.015625 40.375 
z
M 52.59375 71.296875 
L 52.59375 62.3125 
Q 48.875 64.0625 45.09375 64.984375 
Q 41.3125 65.921875 37.59375 65.921875 
Q 27.828125 65.921875 22.671875 59.328125 
Q 17.53125 52.734375 16.796875 39.40625 
Q 19.671875 43.65625 24.015625 45.921875 
Q 28.375 48.1875 33.59375 48.1875 
Q 44.578125 48.1875 50.953125 41.515625 
Q 57.328125 34.859375 57.328125 23.390625 
Q 57.328125 12.15625 50.6875 5.359375 
Q 44.046875 -1.421875 33.015625 -1.421875 
Q 20.359375 -1.421875 13.671875 8.265625 
Q 6.984375 17.96875 6.984375 36.375 
Q 6.984375 53.65625 15.1875 63.9375 
Q 23.390625 74.21875 37.203125 74.21875 
Q 40.921875 74.21875 44.703125 73.484375 
Q 48.484375 72.75 52.59375 71.296875 
z
" id="DejaVuSans-54"/>
      </defs>
      <g transform="translate(284.265341 399.078438)scale(0.1 -0.1)">
       <use xlink:href="#DejaVuSans-54"/>
       <use x="63.623047" xlink:href="#DejaVuSans-48"/>
       <use x="127.246094" xlink:href="#DejaVuSans-48"/>
      </g>
     </g>
    </g>
    <g id="xtick_5">
     <g id="line2d_5">
      <g>
       <use style="stroke:#000000;stroke-width:0.8;" x="364.827273" xlink:href="#m75c6b18791" y="384.48"/>
      </g>
     </g>
     <g id="text_5">
      <!-- 800 -->
      <defs>
       <path d="M 31.78125 34.625 
Q 24.75 34.625 20.71875 30.859375 
Q 16.703125 27.09375 16.703125 20.515625 
Q 16.703125 13.921875 20.71875 10.15625 
Q 24.75 6.390625 31.78125 6.390625 
Q 38.8125 6.390625 42.859375 10.171875 
Q 46.921875 13.96875 46.921875 20.515625 
Q 46.921875 27.09375 42.890625 30.859375 
Q 38.875 34.625 31.78125 34.625 
z
M 21.921875 38.8125 
Q 15.578125 40.375 12.03125 44.71875 
Q 8.5 49.078125 8.5 55.328125 
Q 8.5 64.0625 14.71875 69.140625 
Q 20.953125 74.21875 31.78125 74.21875 
Q 42.671875 74.21875 48.875 69.140625 
Q 55.078125 64.0625 55.078125 55.328125 
Q 55.078125 49.078125 51.53125 44.71875 
Q 48 40.375 41.703125 38.8125 
Q 48.828125 37.15625 52.796875 32.3125 
Q 56.78125 27.484375 56.78125 20.515625 
Q 56.78125 9.90625 50.3125 4.234375 
Q 43.84375 -1.421875 31.78125 -1.421875 
Q 19.734375 -1.421875 13.25 4.234375 
Q 6.78125 9.90625 6.78125 20.515625 
Q 6.78125 27.484375 10.78125 32.3125 
Q 14.796875 37.15625 21.921875 38.8125 
z
M 18.3125 54.390625 
Q 18.3125 48.734375 21.84375 45.5625 
Q 25.390625 42.390625 31.78125 42.390625 
Q 38.140625 42.390625 41.71875 45.5625 
Q 45.3125 48.734375 45.3125 54.390625 
Q 45.3125 60.0625 41.71875 63.234375 
Q 38.140625 66.40625 31.78125 66.40625 
Q 25.390625 66.40625 21.84375 63.234375 
Q 18.3125 60.0625 18.3125 54.390625 
z
" id="DejaVuSans-56"/>
      </defs>
      <g transform="translate(355.283523 399.078438)scale(0.1 -0.1)">
       <use xlink:href="#DejaVuSans-56"/>
       <use x="63.623047" xlink:href="#DejaVuSans-48"/>
       <use x="127.246094" xlink:href="#DejaVuSans-48"/>
      </g>
     </g>
    </g>
    <g id="text_6">
     <!-- time [ms] -->
     <defs>
      <path d="M 18.3125 70.21875 
L 18.3125 54.6875 
L 36.8125 54.6875 
L 36.8125 47.703125 
L 18.3125 47.703125 
L 18.3125 18.015625 
Q 18.3125 11.328125 20.140625 9.421875 
Q 21.96875 7.515625 27.59375 7.515625 
L 36.8125 7.515625 
L 36.8125 0 
L 27.59375 0 
Q 17.1875 0 13.234375 3.875 
Q 9.28125 7.765625 9.28125 18.015625 
L 9.28125 47.703125 
L 2.6875 47.703125 
L 2.6875 54.6875 
L 9.28125 54.6875 
L 9.28125 70.21875 
z
" id="DejaVuSans-116"/>
      <path d="M 9.421875 54.6875 
L 18.40625 54.6875 
L 18.40625 0 
L 9.421875 0 
z
M 9.421875 75.984375 
L 18.40625 75.984375 
L 18.40625 64.59375 
L 9.421875 64.59375 
z
" id="DejaVuSans-105"/>
      <path d="M 52 44.1875 
Q 55.375 50.25 60.0625 53.125 
Q 64.75 56 71.09375 56 
Q 79.640625 56 84.28125 50.015625 
Q 88.921875 44.046875 88.921875 33.015625 
L 88.921875 0 
L 79.890625 0 
L 79.890625 32.71875 
Q 79.890625 40.578125 77.09375 44.375 
Q 74.3125 48.1875 68.609375 48.1875 
Q 61.625 48.1875 57.5625 43.546875 
Q 53.515625 38.921875 53.515625 30.90625 
L 53.515625 0 
L 44.484375 0 
L 44.484375 32.71875 
Q 44.484375 40.625 41.703125 44.40625 
Q 38.921875 48.1875 33.109375 48.1875 
Q 26.21875 48.1875 22.15625 43.53125 
Q 18.109375 38.875 18.109375 30.90625 
L 18.109375 0 
L 9.078125 0 
L 9.078125 54.6875 
L 18.109375 54.6875 
L 18.109375 46.1875 
Q 21.1875 51.21875 25.484375 53.609375 
Q 29.78125 56 35.6875 56 
Q 41.65625 56 45.828125 52.96875 
Q 50 49.953125 52 44.1875 
z
" id="DejaVuSans-109"/>
      <path d="M 56.203125 29.59375 
L 56.203125 25.203125 
L 14.890625 25.203125 
Q 15.484375 15.921875 20.484375 11.0625 
Q 25.484375 6.203125 34.421875 6.203125 
Q 39.59375 6.203125 44.453125 7.46875 
Q 49.3125 8.734375 54.109375 11.28125 
L 54.109375 2.78125 
Q 49.265625 0.734375 44.1875 -0.34375 
Q 39.109375 -1.421875 33.890625 -1.421875 
Q 20.796875 -1.421875 13.15625 6.1875 
Q 5.515625 13.8125 5.515625 26.8125 
Q 5.515625 40.234375 12.765625 48.109375 
Q 20.015625 56 32.328125 56 
Q 43.359375 56 49.78125 48.890625 
Q 56.203125 41.796875 56.203125 29.59375 
z
M 47.21875 32.234375 
Q 47.125 39.59375 43.09375 43.984375 
Q 39.0625 48.390625 32.421875 48.390625 
Q 24.90625 48.390625 20.390625 44.140625 
Q 15.875 39.890625 15.1875 32.171875 
z
" id="DejaVuSans-101"/>
      <path id="DejaVuSans-32"/>
      <path d="M 8.59375 75.984375 
L 29.296875 75.984375 
L 29.296875 69 
L 17.578125 69 
L 17.578125 -6.203125 
L 29.296875 -6.203125 
L 29.296875 -13.1875 
L 8.59375 -13.1875 
z
" id="DejaVuSans-91"/>
      <path d="M 44.28125 53.078125 
L 44.28125 44.578125 
Q 40.484375 46.53125 36.375 47.5 
Q 32.28125 48.484375 27.875 48.484375 
Q 21.1875 48.484375 17.84375 46.4375 
Q 14.5 44.390625 14.5 40.28125 
Q 14.5 37.15625 16.890625 35.375 
Q 19.28125 33.59375 26.515625 31.984375 
L 29.59375 31.296875 
Q 39.15625 29.25 43.1875 25.515625 
Q 47.21875 21.78125 47.21875 15.09375 
Q 47.21875 7.46875 41.1875 3.015625 
Q 35.15625 -1.421875 24.609375 -1.421875 
Q 20.21875 -1.421875 15.453125 -0.5625 
Q 10.6875 0.296875 5.421875 2 
L 5.421875 11.28125 
Q 10.40625 8.6875 15.234375 7.390625 
Q 20.0625 6.109375 24.8125 6.109375 
Q 31.15625 6.109375 34.5625 8.28125 
Q 37.984375 10.453125 37.984375 14.40625 
Q 37.984375 18.0625 35.515625 20.015625 
Q 33.0625 21.96875 24.703125 23.78125 
L 21.578125 24.515625 
Q 13.234375 26.265625 9.515625 29.90625 
Q 5.8125 33.546875 5.8125 39.890625 
Q 5.8125 47.609375 11.28125 51.796875 
Q 16.75 56 26.8125 56 
Q 31.78125 56 36.171875 55.265625 
Q 40.578125 54.546875 44.28125 53.078125 
z
" id="DejaVuSans-115"/>
      <path d="M 30.421875 75.984375 
L 30.421875 -13.1875 
L 9.71875 -13.1875 
L 9.71875 -6.203125 
L 21.390625 -6.203125 
L 21.390625 69 
L 9.71875 69 
L 9.71875 75.984375 
z
" id="DejaVuSans-93"/>
     </defs>
     <g transform="translate(234.038281 412.756563)scale(0.1 -0.1)">
      <use xlink:href="#DejaVuSans-116"/>
      <use x="39.208984" xlink:href="#DejaVuSans-105"/>
      <use x="66.992188" xlink:href="#DejaVuSans-109"/>
      <use x="164.404297" xlink:href="#DejaVuSans-101"/>
      <use x="225.927734" xlink:href="#DejaVuSans-32"/>
      <use x="257.714844" xlink:href="#DejaVuSans-91"/>
      <use x="296.728516" xlink:href="#DejaVuSans-109"/>
      <use x="394.140625" xlink:href="#DejaVuSans-115"/>
      <use x="446.240234" xlink:href="#DejaVuSans-93"/>
     </g>
    </g>
   </g>
   <g id="matplotlib.axis_2">
    <g id="ytick_1">
     <g id="line2d_6">
      <defs>
       <path d="M 0 0 
L -3.5 0 
" id="m2a9a7f7338" style="stroke:#000000;stroke-width:0.8;"/>
      </defs>
      <g>
       <use style="stroke:#000000;stroke-width:0.8;" x="63" xlink:href="#m2a9a7f7338" y="381.068423"/>
      </g>
     </g>
     <g id="text_7">
      <!-- −80 -->
      <defs>
       <path d="M 10.59375 35.5 
L 73.1875 35.5 
L 73.1875 27.203125 
L 10.59375 27.203125 
z
" id="DejaVuSans-8722"/>
      </defs>
      <g transform="translate(34.895313 384.867642)scale(0.1 -0.1)">
       <use xlink:href="#DejaVuSans-8722"/>
       <use x="83.789062" xlink:href="#DejaVuSans-56"/>
       <use x="147.412109" xlink:href="#DejaVuSans-48"/>
      </g>
     </g>
    </g>
    <g id="ytick_2">
     <g id="line2d_7">
      <g>
       <use style="stroke:#000000;stroke-width:0.8;" x="63" xlink:href="#m2a9a7f7338" y="328.5752"/>
      </g>
     </g>
     <g id="text_8">
      <!-- −60 -->
      <g transform="translate(34.895313 332.374419)scale(0.1 -0.1)">
       <use xlink:href="#DejaVuSans-8722"/>
       <use x="83.789062" xlink:href="#DejaVuSans-54"/>
       <use x="147.412109" xlink:href="#DejaVuSans-48"/>
      </g>
     </g>
    </g>
    <g id="ytick_3">
     <g id="line2d_8">
      <g>
       <use style="stroke:#000000;stroke-width:0.8;" x="63" xlink:href="#m2a9a7f7338" y="276.081977"/>
      </g>
     </g>
     <g id="text_9">
      <!-- −40 -->
      <g transform="translate(34.895313 279.881196)scale(0.1 -0.1)">
       <use xlink:href="#DejaVuSans-8722"/>
       <use x="83.789062" xlink:href="#DejaVuSans-52"/>
       <use x="147.412109" xlink:href="#DejaVuSans-48"/>
      </g>
     </g>
    </g>
    <g id="ytick_4">
     <g id="line2d_9">
      <g>
       <use style="stroke:#000000;stroke-width:0.8;" x="63" xlink:href="#m2a9a7f7338" y="223.588754"/>
      </g>
     </g>
     <g id="text_10">
      <!-- −20 -->
      <g transform="translate(34.895313 227.387973)scale(0.1 -0.1)">
       <use xlink:href="#DejaVuSans-8722"/>
       <use x="83.789062" xlink:href="#DejaVuSans-50"/>
       <use x="147.412109" xlink:href="#DejaVuSans-48"/>
      </g>
     </g>
    </g>
    <g id="ytick_5">
     <g id="line2d_10">
      <g>
       <use style="stroke:#000000;stroke-width:0.8;" x="63" xlink:href="#m2a9a7f7338" y="171.095531"/>
      </g>
     </g>
     <g id="text_11">
      <!-- 0 -->
      <g transform="translate(49.6375 174.89475)scale(0.1 -0.1)">
       <use xlink:href="#DejaVuSans-48"/>
      </g>
     </g>
    </g>
    <g id="ytick_6">
     <g id="line2d_11">
      <g>
       <use style="stroke:#000000;stroke-width:0.8;" x="63" xlink:href="#m2a9a7f7338" y="118.602308"/>
      </g>
     </g>
     <g id="text_12">
      <!-- 20 -->
      <g transform="translate(43.275 122.401527)scale(0.1 -0.1)">
       <use xlink:href="#DejaVuSans-50"/>
       <use x="63.623047" xlink:href="#DejaVuSans-48"/>
      </g>
     </g>
    </g>
    <g id="ytick_7">
     <g id="line2d_12">
      <g>
       <use style="stroke:#000000;stroke-width:0.8;" x="63" xlink:href="#m2a9a7f7338" y="66.109085"/>
      </g>
     </g>
     <g id="text_13">
      <!-- 40 -->
      <g transform="translate(43.275 69.908304)scale(0.1 -0.1)">
       <use xlink:href="#DejaVuSans-52"/>
       <use x="63.623047" xlink:href="#DejaVuSans-48"/>
      </g>
     </g>
    </g>
    <g id="text_14">
     <!-- voltage [mV] -->
     <defs>
      <path d="M 2.984375 54.6875 
L 12.5 54.6875 
L 29.59375 8.796875 
L 46.6875 54.6875 
L 56.203125 54.6875 
L 35.6875 0 
L 23.484375 0 
z
" id="DejaVuSans-118"/>
      <path d="M 30.609375 48.390625 
Q 23.390625 48.390625 19.1875 42.75 
Q 14.984375 37.109375 14.984375 27.296875 
Q 14.984375 17.484375 19.15625 11.84375 
Q 23.34375 6.203125 30.609375 6.203125 
Q 37.796875 6.203125 41.984375 11.859375 
Q 46.1875 17.53125 46.1875 27.296875 
Q 46.1875 37.015625 41.984375 42.703125 
Q 37.796875 48.390625 30.609375 48.390625 
z
M 30.609375 56 
Q 42.328125 56 49.015625 48.375 
Q 55.71875 40.765625 55.71875 27.296875 
Q 55.71875 13.875 49.015625 6.21875 
Q 42.328125 -1.421875 30.609375 -1.421875 
Q 18.84375 -1.421875 12.171875 6.21875 
Q 5.515625 13.875 5.515625 27.296875 
Q 5.515625 40.765625 12.171875 48.375 
Q 18.84375 56 30.609375 56 
z
" id="DejaVuSans-111"/>
      <path d="M 9.421875 75.984375 
L 18.40625 75.984375 
L 18.40625 0 
L 9.421875 0 
z
" id="DejaVuSans-108"/>
      <path d="M 34.28125 27.484375 
Q 23.390625 27.484375 19.1875 25 
Q 14.984375 22.515625 14.984375 16.5 
Q 14.984375 11.71875 18.140625 8.90625 
Q 21.296875 6.109375 26.703125 6.109375 
Q 34.1875 6.109375 38.703125 11.40625 
Q 43.21875 16.703125 43.21875 25.484375 
L 43.21875 27.484375 
z
M 52.203125 31.203125 
L 52.203125 0 
L 43.21875 0 
L 43.21875 8.296875 
Q 40.140625 3.328125 35.546875 0.953125 
Q 30.953125 -1.421875 24.3125 -1.421875 
Q 15.921875 -1.421875 10.953125 3.296875 
Q 6 8.015625 6 15.921875 
Q 6 25.140625 12.171875 29.828125 
Q 18.359375 34.515625 30.609375 34.515625 
L 43.21875 34.515625 
L 43.21875 35.40625 
Q 43.21875 41.609375 39.140625 45 
Q 35.0625 48.390625 27.6875 48.390625 
Q 23 48.390625 18.546875 47.265625 
Q 14.109375 46.140625 10.015625 43.890625 
L 10.015625 52.203125 
Q 14.9375 54.109375 19.578125 55.046875 
Q 24.21875 56 28.609375 56 
Q 40.484375 56 46.34375 49.84375 
Q 52.203125 43.703125 52.203125 31.203125 
z
" id="DejaVuSans-97"/>
      <path d="M 45.40625 27.984375 
Q 45.40625 37.75 41.375 43.109375 
Q 37.359375 48.484375 30.078125 48.484375 
Q 22.859375 48.484375 18.828125 43.109375 
Q 14.796875 37.75 14.796875 27.984375 
Q 14.796875 18.265625 18.828125 12.890625 
Q 22.859375 7.515625 30.078125 7.515625 
Q 37.359375 7.515625 41.375 12.890625 
Q 45.40625 18.265625 45.40625 27.984375 
z
M 54.390625 6.78125 
Q 54.390625 -7.171875 48.1875 -13.984375 
Q 42 -20.796875 29.203125 -20.796875 
Q 24.46875 -20.796875 20.265625 -20.09375 
Q 16.0625 -19.390625 12.109375 -17.921875 
L 12.109375 -9.1875 
Q 16.0625 -11.328125 19.921875 -12.34375 
Q 23.78125 -13.375 27.78125 -13.375 
Q 36.625 -13.375 41.015625 -8.765625 
Q 45.40625 -4.15625 45.40625 5.171875 
L 45.40625 9.625 
Q 42.625 4.78125 38.28125 2.390625 
Q 33.9375 0 27.875 0 
Q 17.828125 0 11.671875 7.65625 
Q 5.515625 15.328125 5.515625 27.984375 
Q 5.515625 40.671875 11.671875 48.328125 
Q 17.828125 56 27.875 56 
Q 33.9375 56 38.28125 53.609375 
Q 42.625 51.21875 45.40625 46.390625 
L 45.40625 54.6875 
L 54.390625 54.6875 
z
" id="DejaVuSans-103"/>
      <path d="M 28.609375 0 
L 0.78125 72.90625 
L 11.078125 72.90625 
L 34.1875 11.53125 
L 57.328125 72.90625 
L 67.578125 72.90625 
L 39.796875 0 
z
" id="DejaVuSans-86"/>
     </defs>
     <g transform="translate(28.815625 250.624062)rotate(-90)scale(0.1 -0.1)">
      <use xlink:href="#DejaVuSans-118"/>
      <use x="59.179688" xlink:href="#DejaVuSans-111"/>
      <use x="120.361328" xlink:href="#DejaVuSans-108"/>
      <use x="148.144531" xlink:href="#DejaVuSans-116"/>
      <use x="187.353516" xlink:href="#DejaVuSans-97"/>
      <use x="248.632812" xlink:href="#DejaVuSans-103"/>
      <use x="312.109375" xlink:href="#DejaVuSans-101"/>
      <use x="373.632812" xlink:href="#DejaVuSans-32"/>
      <use x="405.419922" xlink:href="#DejaVuSans-91"/>
      <use x="444.433594" xlink:href="#DejaVuSans-109"/>
      <use x="541.845703" xlink:href="#DejaVuSans-86"/>
      <use x="610.253906" xlink:href="#DejaVuSans-93"/>
     </g>
    </g>
   </g>
   <g id="line2d_13">
    <path clip-path="url(#pb3ae83ce24)" d="M 80.754545 341.698506 
L 81.961855 341.562024 
L 83.772818 341.619241 
L 85.974382 341.638139 
L 151.772727 341.629477 
L 152.314241 297.1105 
L 152.420768 248.479991 
L 152.562805 66.96 
L 152.678209 92.17512 
L 153.565936 368.183437 
L 153.610323 368.082912 
L 153.8145 366.704178 
L 154.293873 361.950916 
L 154.959668 352.830481 
L 157.42755 313.942977 
L 157.613973 302.816776 
L 157.738255 280.853349 
L 157.835905 218.302949 
L 157.969064 91.318693 
L 158.031205 104.46982 
L 158.883423 367.759029 
L 158.945564 367.575565 
L 159.203005 365.596571 
L 159.717886 359.924153 
L 160.534595 347.998218 
L 161.8218 329.869683 
L 162.514227 319.504109 
L 162.771668 311.984192 
L 162.940336 299.993953 
L 163.064618 272.030288 
L 163.162268 187.639111 
L 163.268795 92.238899 
L 163.322059 101.751196 
L 163.863573 296.832286 
L 164.147645 367.582389 
L 164.183155 367.727271 
L 164.245295 367.545907 
L 164.493859 365.642502 
L 165.008741 359.98977 
L 165.834327 347.940738 
L 167.112655 329.944223 
L 167.813959 319.468676 
L 168.0714 311.939048 
L 168.240068 299.909438 
L 168.36435 271.784095 
L 168.462 186.893576 
L 168.568527 92.315802 
L 168.621791 101.973242 
L 169.172182 300.783713 
L 169.4385 367.496563 
L 169.482886 367.725171 
L 169.545027 367.53987 
L 169.802468 365.552739 
L 170.31735 359.862474 
L 171.151814 347.651762 
L 172.430141 329.701442 
L 173.113691 319.450303 
L 173.371132 311.902565 
L 173.5398 299.813638 
L 173.664082 271.446038 
L 173.761732 185.742374 
L 173.868259 92.332599 
L 173.921523 102.209199 
L 174.480791 304.854563 
L 174.729355 367.387115 
L 174.782618 367.725171 
L 174.844759 367.53567 
L 175.1022 365.54539 
L 175.617082 359.851712 
L 176.451545 347.638902 
L 177.729873 329.690681 
L 178.413423 319.433505 
L 178.670864 311.866607 
L 178.839532 299.716526 
L 178.963814 271.099058 
L 179.061464 184.557471 
L 179.167991 92.349922 
L 179.221255 102.447781 
L 179.7894 309.028561 
L 180.029086 367.39945 
L 180.08235 367.725433 
L 180.144491 367.531208 
L 180.401932 365.538041 
L 180.916814 359.841214 
L 181.751277 347.626566 
L 183.029605 329.680183 
L 183.713155 319.416445 
L 183.970595 311.830387 
L 184.139264 299.618364 
L 184.263545 270.743941 
L 184.361195 183.351727 
L 184.467723 92.373807 
L 184.520986 102.690037 
L 185.098009 313.294423 
L 185.328818 367.411524 
L 185.382082 367.725433 
L 185.444223 367.527009 
L 185.701664 365.530429 
L 186.216545 359.830715 
L 187.051009 347.613967 
L 188.329336 329.669684 
L 189.012886 319.399647 
L 189.270327 311.793904 
L 189.438995 299.518626 
L 189.563277 270.383575 
L 189.660927 182.141181 
L 189.767455 92.403465 
L 189.820718 102.934656 
L 190.406618 317.632463 
L 190.619673 367.277666 
L 190.681814 367.725171 
L 190.743955 367.522547 
L 191.010273 365.441716 
L 191.525155 359.705256 
L 192.368495 347.328404 
L 193.637945 329.5437 
L 194.312618 319.382325 
L 194.570059 311.757421 
L 194.738727 299.418364 
L 194.863009 270.019797 
L 194.969536 167.567593 
L 195.058309 92.390079 
L 195.12045 103.181899 
L 195.715227 322.016697 
L 195.919405 367.293152 
L 195.981545 367.725171 
L 196.043686 367.518085 
L 196.310005 365.434104 
L 196.833764 359.579273 
L 197.703736 346.770664 
L 198.955432 329.302494 
L 199.61235 319.365264 
L 199.869791 311.720414 
L 200.038459 299.317052 
L 200.162741 269.64867 
L 200.269268 166.304317 
L 200.358041 92.360683 
L 200.420182 103.433341 
L 201.023836 326.410117 
L 201.219136 367.30785 
L 201.281277 367.724646 
L 201.343418 367.513623 
L 201.609736 365.426493 
L 202.133495 359.568249 
L 202.994591 346.894023 
L 204.255164 329.291733 
L 204.912082 319.347679 
L 205.169523 311.682881 
L 205.338191 299.214166 
L 205.462473 269.269932 
L 205.569 165.032564 
L 205.657773 92.338374 
L 205.719914 103.686621 
L 206.332445 330.764693 
L 206.518868 367.322548 
L 206.581009 367.724384 
L 206.634273 367.555618 
L 206.873959 365.740665 
L 207.388841 360.129664 
L 208.187795 348.519213 
L 209.510509 329.85656 
L 210.202936 319.514607 
L 210.460377 312.037998 
L 210.629045 300.177416 
L 210.753327 272.737109 
L 210.850977 190.199573 
L 210.957505 92.323151 
L 211.019645 103.940951 
L 211.641055 335.026355 
L 211.827477 367.468217 
L 211.880741 367.723859 
L 211.934005 367.551418 
L 212.182568 365.653526 
L 212.69745 360.005518 
L 213.514159 348.09638 
L 214.810241 329.845799 
L 215.502668 319.497547 
L 215.760109 312.00204 
L 215.928777 300.081091 
L 216.053059 272.39774 
L 216.150709 189.020576 
L 216.257236 92.316851 
L 216.319377 104.194755 
L 216.949664 339.131587 
L 217.127209 367.478715 
L 217.171595 367.724384 
L 217.233736 367.547219 
L 217.4823 365.646177 
L 217.997182 359.995019 
L 218.822768 347.947037 
L 220.101095 329.949998 
L 220.8024 319.480487 
L 221.059841 311.966344 
L 221.228509 299.985029 
L 221.352791 272.057059 
L 221.450441 187.842155 
L 221.556968 92.317376 
L 221.610232 101.788204 
L 222.151745 296.887666 
L 222.426941 367.488689 
L 222.471327 367.724646 
L 222.533468 367.543019 
L 222.782032 365.638828 
L 223.296914 359.98452 
L 224.1225 347.934176 
L 225.418582 329.709579 
L 226.111009 319.278388 
L 226.36845 311.533538 
L 226.537118 298.800782 
L 226.652523 271.713754 
L 226.750173 186.659037 
L 226.8567 92.323413 
L 226.909964 102.025735 
L 227.460355 300.859041 
L 227.726673 367.4984 
L 227.771059 367.725171 
L 227.8332 367.53882 
L 228.090641 365.550902 
L 228.605523 359.859849 
L 229.439986 347.648613 
L 230.718314 329.698818 
L 231.401864 319.446366 
L 231.659305 311.894166 
L 231.827973 299.791591 
L 231.952255 271.368086 
L 232.049905 185.475708 
L 232.156432 92.336274 
L 232.209695 102.263005 
L 232.768964 304.93304 
L 233.017527 367.390002 
L 233.070791 367.725171 
L 233.132932 367.534621 
L 233.390373 365.543553 
L 233.905255 359.84935 
L 234.739718 347.636014 
L 236.018045 329.688319 
L 236.701595 319.429568 
L 236.959036 311.858471 
L 237.127705 299.694479 
L 237.251986 271.019268 
L 237.349636 184.285608 
L 237.456164 92.354647 
L 237.509427 102.502636 
L 238.077573 309.109401 
L 238.317259 367.402075 
L 238.370523 367.725433 
L 238.432664 367.530421 
L 238.690105 365.536204 
L 239.204986 359.838852 
L 240.03945 347.623679 
L 241.317777 329.67782 
L 242.001327 319.412771 
L 242.258768 311.822251 
L 242.427436 299.595791 
L 242.551718 270.662314 
L 242.649368 183.077057 
L 242.755895 92.380106 
L 242.809159 102.745418 
L 243.386182 313.3771 
L 243.616991 367.414149 
L 243.670255 367.725433 
L 243.732395 367.525959 
L 243.989836 365.528854 
L 244.504718 359.828353 
L 245.348059 347.474598 
L 246.617509 329.667059 
L 247.301059 319.39571 
L 247.5585 311.785768 
L 247.727168 299.495792 
L 247.85145 270.301423 
L 247.9491 181.865329 
L 248.055627 92.411339 
L 248.108891 102.990561 
L 248.694791 317.716977 
L 248.907845 367.281341 
L 248.969986 367.725171 
L 249.032127 367.52176 
L 249.298445 365.440141 
L 249.822205 359.587671 
L 250.692177 346.780637 
L 251.943873 329.310893 
L 252.600791 319.378388 
L 252.858232 311.749022 
L 253.0269 299.395267 
L 253.151182 269.935808 
L 253.257709 167.279982 
L 253.346482 92.38273 
L 253.408623 103.239116 
L 254.0034 322.102786 
L 254.207577 367.296564 
L 254.269718 367.724908 
L 254.331859 367.517298 
L 254.598177 365.432529 
L 255.121936 359.576648 
L 255.983032 346.903996 
L 257.22585 329.530577 
L 257.900523 319.361327 
L 258.157964 311.712015 
L 258.326632 299.293693 
L 258.450914 269.562844 
L 258.557441 166.014108 
L 258.646214 92.354909 
L 258.708355 103.491346 
L 259.312009 326.496206 
L 259.507309 367.311262 
L 259.56945 367.724646 
L 259.631591 367.512573 
L 259.897909 365.424655 
L 260.421668 359.565887 
L 261.291641 346.755178 
L 262.525582 329.519816 
L 263.200255 319.343742 
L 263.457695 311.674482 
L 263.626364 299.190544 
L 263.750645 269.182793 
L 263.857173 164.74183 
L 263.945945 92.334174 
L 264.008086 103.744626 
L 264.620618 330.849469 
L 264.807041 367.32596 
L 264.869182 367.724121 
L 264.922445 367.55483 
L 265.171009 365.6593 
L 265.685891 360.013916 
L 266.511477 347.969609 
L 267.807559 329.739237 
L 268.499986 319.326419 
L 268.757427 311.636949 
L 268.926095 299.087395 
L 269.050377 268.802742 
L 269.156905 163.479027 
L 269.245677 92.321051 
L 269.298941 101.36957 
L 269.8227 289.32838 
L 270.133405 367.636982 
L 270.168914 367.723859 
L 270.222177 367.550631 
L 270.470741 365.651951 
L 270.985623 360.003155 
L 271.802332 348.093493 
L 273.098414 329.843436 
L 273.790841 319.49361 
L 274.048282 311.993903 
L 274.21695 300.059307 
L 274.341232 272.32005 
L 274.438882 188.750865 
L 274.545409 92.316589 
L 274.598673 101.605527 
L 275.131309 293.095031 
L 275.424259 367.57504 
L 275.459768 367.724384 
L 275.521909 367.546431 
L 275.770473 365.644602 
L 276.285355 359.992657 
L 277.110941 347.94415 
L 278.389268 329.947636 
L 279.090573 319.47655 
L 279.348014 311.957946 
L 279.516682 299.962982 
L 279.640964 271.978844 
L 279.738614 187.57234 
L 279.845141 92.317901 
L 279.898405 101.842534 
L 280.439918 296.963519 
L 280.715114 367.490789 
L 280.7595 367.724908 
L 280.821641 367.542232 
L 281.079082 365.556676 
L 281.593964 359.867985 
L 282.428427 347.658324 
L 283.706755 329.706954 
L 284.390305 319.45949 
L 284.647745 311.921988 
L 284.816414 299.866394 
L 284.940695 271.635014 
L 285.038345 186.389117 
L 285.144873 92.325775 
L 285.198136 102.079803 
L 285.748527 300.935943 
L 286.014845 367.5005 
L 286.059232 367.725171 
L 286.121373 367.53777 
L 286.378814 365.549327 
L 286.893695 359.857487 
L 287.728159 347.645726 
L 289.006486 329.696455 
L 289.690036 319.442692 
L 289.947477 311.88603 
L 290.116145 299.769544 
L 290.240427 271.288821 
L 290.338077 185.204896 
L 290.444605 92.339948 
L 290.497868 102.317335 
L 291.057136 305.012305 
L 291.3057 367.392889 
L 291.358964 367.725433 
L 291.421105 367.533571 
L 291.678545 365.541978 
L 292.193427 359.846988 
L 293.027891 347.633127 
L 294.315095 329.570734 
L 294.989768 319.425631 
L 295.247209 311.850072 
L 295.415877 299.672169 
L 295.540159 270.938429 
L 295.637809 184.010885 
L 295.744336 92.359896 
L 295.7976 102.557754 
L 296.365745 309.190765 
L 296.605432 367.404962 
L 296.658695 367.725433 
L 296.720836 367.529371 
L 296.978277 365.534629 
L 297.493159 359.836489 
L 298.327623 347.620791 
L 299.60595 329.675458 
L 300.2895 319.408834 
L 300.546941 311.813852 
L 300.715609 299.572957 
L 300.839891 270.580425 
L 300.937541 182.801992 
L 301.044068 92.386667 
L 301.097332 102.800798 
L 301.674355 313.459777 
L 301.905164 367.416773 
L 301.958427 367.725433 
L 302.020568 367.525172 
L 302.286886 365.445915 
L 302.810645 359.595808 
L 303.671741 346.926569 
L 304.914559 329.549737 
L 305.589232 319.391773 
L 305.846673 311.777369 
L 306.015341 299.47322 
L 306.139623 270.219009 
L 306.24615 168.251579 
L 306.334923 92.408715 
L 306.397064 103.046729 
L 306.982964 317.801491 
L 307.196018 367.284753 
L 307.258159 367.725171 
L 307.3203 367.52071 
L 307.586618 365.438304 
L 308.110377 359.585047 
L 308.971473 346.91397 
L 310.214291 329.538976 
L 310.888964 319.374713 
L 311.146405 311.740624 
L 311.315073 299.372433 
L 311.439355 269.851557 
L 311.545882 166.993396 
L 311.634655 92.375906 
L 311.696795 103.296071 
L 312.291573 322.18835 
L 312.49575 367.299976 
L 312.557891 367.724908 
L 312.620032 367.516248 
L 312.88635 365.430692 
L 313.410109 359.574286 
L 314.280082 346.764889 
L 315.531777 329.297507 
L 316.188695 319.357128 
L 316.446136 311.703353 
L 316.614805 299.270334 
L 316.739086 269.47728 
L 316.845614 165.725002 
L 316.934386 92.34966 
L 316.996527 103.548826 
L 317.600182 326.582033 
L 317.795482 367.314674 
L 317.857623 367.724646 
L 317.910886 367.55798 
L 318.150573 365.744602 
L 318.665455 360.135438 
L 319.464409 348.526037 
L 320.787123 329.862597 
L 321.488427 319.339805 
L 321.745868 311.665821 
L 321.914536 299.166922 
L 322.038818 269.095917 
L 322.145345 164.452487 
L 322.234118 92.3305 
L 322.296259 103.802631 
L 322.908791 330.933983 
L 323.095214 367.329372 
L 323.157355 367.724121 
L 323.210618 367.553781 
L 323.459182 365.657725 
L 323.974064 360.011292 
L 324.790773 348.103204 
L 326.095732 329.736613 
L 326.779282 319.506733 
L 327.036723 312.021725 
L 327.205391 300.133585 
L 327.329673 272.582516 
L 327.427323 189.662043 
L 327.53385 92.319214 
L 327.595991 104.056698 
L 328.2174 335.189609 
L 328.403823 367.472941 
L 328.457086 367.723596 
L 328.51035 367.549581 
L 328.758914 365.650114 
L 329.273795 360.000793 
L 329.318182 359.42573 
L 329.335936 360.327039 
L 329.531236 364.323873 
L 329.620009 364.512061 
L 329.664395 364.454581 
L 329.815309 363.846709 
L 330.214786 361.024936 
L 332.176664 346.242582 
L 332.869091 343.015036 
L 333.428359 341.356775 
L 333.889977 340.612421 
L 334.262823 340.385126 
L 334.609036 340.421871 
L 335.061777 340.711371 
L 336.553159 341.80323 
L 337.156814 341.90008 
L 338.097805 341.789844 
L 339.580309 341.595094 
L 342.101455 341.631315 
L 345.723382 341.627378 
L 435.845455 341.629477 
L 435.845455 341.629477 
" style="fill:none;stroke:#1f77b4;stroke-linecap:square;stroke-width:1.5;"/>
   </g>
   <g id="line2d_14">
    <path clip-path="url(#pb3ae83ce24)" d="M 80.754545 341.698506 
L 81.109636 333.262335 
L 81.704414 320.270946 
L 81.881959 309.381366 
L 81.997364 286.537619 
L 82.086136 208.231116 
L 82.192664 68.286633 
L 82.263682 79.998476 
L 82.601018 197.028486 
L 83.169164 369.36 
L 83.21355 369.258192 
L 83.479868 367.742564 
L 83.99475 363.593983 
L 84.855845 354.438127 
L 85.8501 344.722001 
L 86.560282 339.865516 
L 87.172814 337.064183 
L 87.661064 335.735014 
L 88.051664 335.220213 
L 88.362368 335.131597 
L 88.699705 335.281473 
L 90.306491 336.308857 
L 90.972286 336.230267 
L 92.463668 336.014117 
L 103.000991 336.076506 
L 151.772727 336.07656 
L 152.314241 293.046578 
L 152.403014 243.151256 
L 152.536173 71.307818 
L 152.633823 91.425752 
L 153.290741 330.394611 
L 153.468286 367.366756 
L 153.486041 367.427639 
L 153.539305 367.244435 
L 153.832255 364.731552 
L 154.391523 358.054369 
L 156.477682 331.05094 
L 157.516323 319.499774 
L 157.756009 313.690298 
L 157.924677 303.240129 
L 158.040082 279.922952 
L 158.128855 209.065658 
L 158.244259 87.596137 
L 158.3064 99.207552 
L 158.865668 296.99037 
L 159.131986 367.126 
L 159.149741 367.117248 
L 159.167495 367.055655 
L 159.353918 365.589719 
L 159.877677 359.724873 
L 162.469841 327.406621 
L 163.153391 319.709891 
L 163.410832 313.918453 
L 163.5795 304.363411 
L 163.703782 281.351124 
L 163.792555 215.58461 
L 163.907959 88.327129 
L 163.978977 101.150306 
L 164.564877 312.012357 
L 164.786809 367.066844 
L 164.804564 367.107987 
L 164.84895 366.952404 
L 165.106391 364.735871 
L 165.665659 358.061461 
L 167.734064 331.310156 
L 168.870355 318.874629 
L 169.110041 312.736244 
L 169.269832 301.977702 
L 169.385236 275.994355 
L 169.474009 195.099456 
L 169.580536 88.372656 
L 169.6338 97.566245 
L 170.059909 247.535517 
L 170.468264 367.104819 
L 170.530405 366.863859 
L 170.849986 363.955749 
L 171.444764 356.5083 
L 173.175832 333.62167 
L 174.61395 317.422559 
L 174.827005 310.497494 
L 174.969041 297.762922 
L 175.075568 264.478326 
L 175.182095 127.029006 
L 175.244236 88.366781 
L 175.306377 98.935661 
L 175.830136 282.526053 
L 176.140841 367.105859 
L 176.158595 367.070717 
L 176.291755 366.126799 
L 176.780005 360.940916 
L 177.614468 349.188757 
L 178.635355 335.875904 
L 180.366423 315.361222 
L 180.543968 307.500266 
L 180.677127 289.936538 
L 180.774777 239.811825 
L 180.916814 88.404941 
L 181.005586 108.703262 
L 181.804541 367.105428 
L 181.875559 366.795963 
L 182.23065 363.469397 
L 182.852059 355.481904 
L 184.405582 334.747329 
L 185.994614 316.392511 
L 186.189914 308.933766 
L 186.323073 294.552702 
L 186.420723 258.025061 
L 186.580514 88.355294 
L 186.704795 119.733427 
L 187.477118 367.105386 
L 187.485995 367.092741 
L 187.583645 366.488806 
L 188.027509 362.003194 
L 188.746568 352.174485 
L 189.945 336.162176 
L 191.072414 324.756131 
L 191.542909 318.835962 
L 191.782595 312.650109 
L 191.942386 301.729925 
L 192.057791 275.072421 
L 192.146564 191.659501 
L 192.253091 88.442974 
L 192.306355 98.149481 
L 192.77685 262.78677 
L 193.140818 367.105887 
L 193.194082 366.906905 
L 193.487032 364.302179 
L 194.064055 357.224422 
L 195.937159 332.676526 
L 197.250995 318.0941 
L 197.472927 311.683353 
L 197.623841 300.003717 
L 197.730368 272.811248 
L 197.828018 167.981722 
L 197.916791 88.354599 
L 197.970055 97.093137 
L 198.351777 232.550078 
L 198.813395 367.104656 
L 198.866659 366.875302 
L 199.177364 364.067136 
L 199.763264 356.782889 
L 201.538718 333.3612 
L 202.941327 317.643755 
L 203.154382 311.033358 
L 203.305295 298.03505 
L 203.411823 265.526898 
L 203.51835 129.662173 
L 203.580491 88.411831 
L 203.642632 98.441269 
L 204.139759 272.240961 
L 204.477095 367.106128 
L 204.512605 367.002165 
L 204.725659 365.256418 
L 205.258295 359.140757 
L 207.637405 329.04552 
L 208.4985 319.618689 
L 208.747064 314.055865 
L 208.915732 304.780371 
L 209.040014 282.925931 
L 209.128786 221.747918 
L 209.253068 88.364347 
L 209.324086 102.467248 
L 209.936618 327.079758 
L 210.123041 367.037804 
L 210.149673 367.103708 
L 210.202936 366.868355 
L 210.522518 363.962996 
L 211.117295 356.518025 
L 212.848364 333.628939 
L 214.286482 317.43753 
L 214.499536 310.534368 
L 214.641573 297.872621 
L 214.7481 264.902672 
L 214.854627 128.074139 
L 214.916768 88.380882 
L 214.978909 98.736981 
L 215.493791 278.970961 
L 215.813373 367.106053 
L 215.840005 367.039073 
L 216.01755 365.659808 
L 216.532432 359.93901 
L 217.624336 344.394498 
L 218.529818 333.483603 
L 219.950182 317.519049 
L 220.163236 310.733424 
L 220.305273 298.460418 
L 220.4118 267.149317 
L 220.50945 148.691713 
L 220.589345 88.385047 
L 220.642609 97.664321 
L 221.077595 250.53261 
L 221.477073 367.104975 
L 221.539214 366.861334 
L 221.858795 363.951763 
L 222.453573 356.502955 
L 224.184641 333.61771 
L 225.622759 317.415021 
L 225.835814 310.479229 
L 225.97785 297.708881 
L 226.084377 264.268488 
L 226.190905 126.521054 
L 226.253045 88.361613 
L 226.315186 99.033674 
L 226.838945 282.657233 
L 227.14965 367.105732 
L 227.167405 367.069536 
L 227.300564 366.123794 
L 227.788814 360.936596 
L 228.623277 349.183668 
L 229.644164 335.872022 
L 231.375232 315.351424 
L 231.552777 307.47543 
L 231.685936 289.851985 
L 231.783586 239.462928 
L 231.925623 88.416592 
L 232.014395 108.819962 
L 232.81335 367.105595 
L 232.884368 366.793492 
L 233.239459 363.465571 
L 233.860868 355.476854 
L 235.414391 334.743514 
L 237.003423 316.383969 
L 237.198723 308.912337 
L 237.331882 294.487196 
L 237.429532 257.78012 
L 237.589323 88.353995 
L 237.713605 119.860024 
L 238.485927 367.105171 
L 238.494805 367.091952 
L 238.592455 366.485999 
L 239.036318 361.999072 
L 239.755377 352.169349 
L 240.953809 336.158254 
L 242.081223 324.752558 
L 242.551718 318.829893 
L 242.791405 312.636161 
L 242.951195 301.689083 
L 243.0666 274.918643 
L 243.155373 191.089537 
L 243.253023 88.439069 
L 243.315164 98.245066 
L 243.794536 265.889731 
L 244.149627 367.105991 
L 244.194014 366.957974 
L 244.451455 364.746435 
L 245.010723 358.076002 
L 247.079127 331.321229 
L 248.215418 318.897652 
L 248.455105 312.791566 
L 248.614895 302.140455 
L 248.7303 276.598884 
L 248.819073 197.386978 
L 248.9256 88.35685 
L 248.987741 99.637378 
L 249.538132 293.984381 
L 249.822205 367.104357 
L 249.884345 366.813325 
L 250.230559 363.592484 
L 250.843091 355.771786 
L 252.441 334.486509 
L 253.994523 316.664669 
L 254.189823 309.608117 
L 254.331859 295.013844 
L 254.438386 253.297921 
L 254.5893 88.40002 
L 254.704705 115.661866 
L 255.485905 367.106147 
L 255.512536 367.042161 
L 255.681205 365.746961 
L 256.196086 360.062421 
L 257.22585 345.38981 
L 258.140209 334.14769 
L 259.649345 316.958367 
L 259.853523 309.828782 
L 259.995559 295.715691 
L 260.102086 256.244955 
L 260.261877 88.369983 
L 260.377282 117.430225 
L 261.149605 367.104363 
L 261.176236 367.057971 
L 261.32715 365.940766 
L 261.833155 360.451709 
L 262.756391 347.334726 
L 263.715136 335.149978 
L 265.357432 315.982989 
L 265.543855 308.464124 
L 265.677014 293.090431 
L 265.774664 252.465033 
L 265.925577 88.373646 
L 266.040982 116.038699 
L 266.822182 367.105959 
L 266.848814 367.037536 
L 267.026359 365.656608 
L 267.541241 359.93449 
L 268.633145 344.389678 
L 269.538627 333.479936 
L 270.958991 317.51176 
L 271.172045 310.71567 
L 271.314082 298.408346 
L 271.420609 266.951971 
L 271.518259 148.087764 
L 271.598155 88.394182 
L 271.651418 97.759559 
L 272.095282 253.535695 
L 272.485882 367.105225 
L 272.548023 366.859006 
L 272.867605 363.948058 
L 273.462382 356.497986 
L 275.184573 333.70737 
L 276.631568 317.407591 
L 276.835745 310.911598 
L 276.986659 297.65471 
L 277.093186 264.057552 
L 277.199714 126.016043 
L 277.261855 88.357893 
L 277.323995 99.131882 
L 277.856632 286.17708 
L 278.158459 367.105577 
L 278.167336 367.093537 
L 278.264986 366.491721 
L 278.70885 362.007478 
L 279.427909 352.179825 
L 280.626341 336.166252 
L 281.753755 324.759845 
L 282.22425 318.84227 
L 282.463936 312.664603 
L 282.623727 301.772345 
L 282.739132 275.231967 
L 282.827905 192.252616 
L 282.934432 88.428995 
L 282.987695 98.04952 
L 283.449314 259.713597 
L 283.822159 367.105748 
L 283.875423 366.909187 
L 284.168373 364.30594 
L 284.745395 357.229523 
L 286.6185 332.680298 
L 287.941214 317.928512 
L 288.154268 311.699797 
L 288.305182 300.052157 
L 288.411709 272.983931 
L 288.509359 168.625847 
L 288.598132 88.353584 
L 288.651395 96.996507 
L 289.024241 229.522239 
L 289.494736 367.104933 
L 289.548 366.877672 
L 289.858705 364.070943 
L 290.444605 356.78801 
L 292.228936 333.272426 
L 293.622668 317.6512 
L 293.835723 311.051098 
L 293.986636 298.090337 
L 294.093164 265.738885 
L 294.190814 144.480349 
L 294.261832 88.425176 
L 294.323973 98.34092 
L 294.812223 269.036208 
L 295.158436 367.106072 
L 295.202823 366.95599 
L 295.460264 364.742991 
L 296.019532 358.071263 
L 298.087936 331.317756 
L 299.224227 318.891604 
L 299.463914 312.777785 
L 299.623705 302.100707 
L 299.739109 276.45231 
L 299.827882 196.831594 
L 299.934409 88.360123 
L 299.99655 99.737452 
L 300.546941 294.128848 
L 300.831014 367.104045 
L 300.893155 366.81091 
L 301.239368 363.588721 
L 301.8519 355.7668 
L 303.449809 334.482747 
L 305.003332 316.656472 
L 305.198632 309.588161 
L 305.340668 294.949929 
L 305.447195 253.027373 
L 305.598109 88.38989 
L 305.713514 115.785502 
L 306.494714 367.106113 
L 306.521345 367.040653 
L 306.698891 365.663136 
L 307.213773 359.943712 
L 308.305677 344.399513 
L 309.211159 333.487419 
L 310.631523 317.526637 
L 310.844577 310.751897 
L 310.986614 298.514527 
L 311.093141 267.352905 
L 311.190791 149.319884 
L 311.270686 88.376794 
L 311.32395 97.565883 
L 311.750059 247.535137 
L 312.158414 367.104676 
L 312.220555 366.863737 
L 312.540136 363.9556 
L 313.134914 356.508101 
L 314.865982 333.621544 
L 316.3041 317.422709 
L 316.517155 310.49807 
L 316.659191 297.764863 
L 316.765718 264.486155 
L 316.872245 127.048734 
L 316.934386 88.367354 
L 316.996527 98.932281 
L 317.520286 282.521547 
L 317.830991 367.105853 
L 317.848745 367.070748 
L 317.981905 366.126892 
L 318.470155 360.94105 
L 319.304618 349.188915 
L 320.325505 335.876026 
L 322.056573 315.361575 
L 322.234118 307.501178 
L 322.367277 289.939662 
L 322.464927 239.824752 
L 322.606964 88.404554 
L 322.695736 108.69896 
L 323.494691 367.105421 
L 323.565709 366.796053 
L 323.9208 363.469537 
L 324.542209 355.482089 
L 326.095732 334.747469 
L 327.684764 316.392827 
L 327.880064 308.93456 
L 328.013223 294.555127 
L 328.110873 258.034127 
L 328.270664 88.355364 
L 328.394945 119.72875 
L 329.167268 367.105393 
L 329.176145 367.09277 
L 329.273795 366.488909 
L 329.318182 366.117761 
L 329.335936 366.865478 
L 329.406955 367.665226 
L 329.460218 367.508839 
L 329.726536 365.596745 
L 330.356823 359.482436 
L 331.892591 344.074411 
L 332.593895 339.495353 
L 333.19755 336.89315 
L 333.676923 335.692086 
L 334.058645 335.246519 
L 334.36935 335.185389 
L 334.724441 335.35842 
L 336.162559 336.288787 
L 336.775091 336.259836 
L 338.728091 336.023912 
L 344.196491 336.07656 
L 405.689359 336.07656 
L 435.845455 336.07656 
L 435.845455 336.07656 
" style="fill:none;stroke:#ff0000;stroke-linecap:square;stroke-width:1.5;"/>
   </g>
   <g id="patch_3">
    <path d="M 63 384.48 
L 63 51.84 
" style="fill:none;stroke:#000000;stroke-linecap:square;stroke-linejoin:miter;stroke-width:0.8;"/>
   </g>
   <g id="patch_4">
    <path d="M 453.6 384.48 
L 453.6 51.84 
" style="fill:none;stroke:#000000;stroke-linecap:square;stroke-linejoin:miter;stroke-width:0.8;"/>
   </g>
   <g id="patch_5">
    <path d="M 63 384.48 
L 453.6 384.48 
" style="fill:none;stroke:#000000;stroke-linecap:square;stroke-linejoin:miter;stroke-width:0.8;"/>
   </g>
   <g id="patch_6">
    <path d="M 63 51.84 
L 453.6 51.84 
" style="fill:none;stroke:#000000;stroke-linecap:square;stroke-linejoin:miter;stroke-width:0.8;"/>
   </g>
   <g id="legend_1">
    <g id="patch_7">
     <path d="M 383.460938 89.19625 
L 446.6 89.19625 
Q 448.6 89.19625 448.6 87.19625 
L 448.6 58.84 
Q 448.6 56.84 446.6 56.84 
L 383.460938 56.84 
Q 381.460938 56.84 381.460938 58.84 
L 381.460938 87.19625 
Q 381.460938 89.19625 383.460938 89.19625 
z
" style="fill:#ffffff;opacity:0.8;stroke:#cccccc;stroke-linejoin:miter;"/>
    </g>
    <g id="line2d_15">
     <path d="M 385.460938 64.938437 
L 405.460938 64.938437 
" style="fill:none;stroke:#1f77b4;stroke-linecap:square;stroke-width:1.5;"/>
    </g>
    <g id="line2d_16"/>
    <g id="text_15">
     <!-- target -->
     <defs>
      <path d="M 41.109375 46.296875 
Q 39.59375 47.171875 37.8125 47.578125 
Q 36.03125 48 33.890625 48 
Q 26.265625 48 22.1875 43.046875 
Q 18.109375 38.09375 18.109375 28.8125 
L 18.109375 0 
L 9.078125 0 
L 9.078125 54.6875 
L 18.109375 54.6875 
L 18.109375 46.1875 
Q 20.953125 51.171875 25.484375 53.578125 
Q 30.03125 56 36.53125 56 
Q 37.453125 56 38.578125 55.875 
Q 39.703125 55.765625 41.0625 55.515625 
z
" id="DejaVuSans-114"/>
     </defs>
     <g transform="translate(413.460938 68.438437)scale(0.1 -0.1)">
      <use xlink:href="#DejaVuSans-116"/>
      <use x="39.208984" xlink:href="#DejaVuSans-97"/>
      <use x="100.488281" xlink:href="#DejaVuSans-114"/>
      <use x="141.585938" xlink:href="#DejaVuSans-103"/>
      <use x="205.0625" xlink:href="#DejaVuSans-101"/>
      <use x="266.585938" xlink:href="#DejaVuSans-116"/>
     </g>
    </g>
    <g id="line2d_17">
     <path d="M 385.460938 79.616562 
L 405.460938 79.616562 
" style="fill:none;stroke:#ff0000;stroke-linecap:square;stroke-width:1.5;"/>
    </g>
    <g id="line2d_18"/>
    <g id="text_16">
     <!-- model -->
     <defs>
      <path d="M 45.40625 46.390625 
L 45.40625 75.984375 
L 54.390625 75.984375 
L 54.390625 0 
L 45.40625 0 
L 45.40625 8.203125 
Q 42.578125 3.328125 38.25 0.953125 
Q 33.9375 -1.421875 27.875 -1.421875 
Q 17.96875 -1.421875 11.734375 6.484375 
Q 5.515625 14.40625 5.515625 27.296875 
Q 5.515625 40.1875 11.734375 48.09375 
Q 17.96875 56 27.875 56 
Q 33.9375 56 38.25 53.625 
Q 42.578125 51.265625 45.40625 46.390625 
z
M 14.796875 27.296875 
Q 14.796875 17.390625 18.875 11.75 
Q 22.953125 6.109375 30.078125 6.109375 
Q 37.203125 6.109375 41.296875 11.75 
Q 45.40625 17.390625 45.40625 27.296875 
Q 45.40625 37.203125 41.296875 42.84375 
Q 37.203125 48.484375 30.078125 48.484375 
Q 22.953125 48.484375 18.875 42.84375 
Q 14.796875 37.203125 14.796875 27.296875 
z
" id="DejaVuSans-100"/>
     </defs>
     <g transform="translate(413.460938 83.116562)scale(0.1 -0.1)">
      <use xlink:href="#DejaVuSans-109"/>
      <use x="97.412109" xlink:href="#DejaVuSans-111"/>
      <use x="158.59375" xlink:href="#DejaVuSans-100"/>
      <use x="222.070312" xlink:href="#DejaVuSans-101"/>
      <use x="283.59375" xlink:href="#DejaVuSans-108"/>
     </g>
    </g>
   </g>
  </g>
 </g>
 <defs>
  <clipPath id="pb3ae83ce24">
   <rect height="332.64" width="390.6" x="63" y="51.84"/>
  </clipPath>
 </defs>
</svg>
