<?xml version="1.0" encoding="utf-8" standalone="no"?>
<!DOCTYPE svg PUBLIC "-//W3C//DTD SVG 1.1//EN"
  "http://www.w3.org/Graphics/SVG/1.1/DTD/svg11.dtd">
<!-- Created with matplotlib (https://matplotlib.org/) -->
<svg height="432pt" version="1.1" viewBox="0 0 504 432" width="504pt" xmlns="http://www.w3.org/2000/svg" xmlns:xlink="http://www.w3.org/1999/xlink">
 <defs>
  <style type="text/css">
*{stroke-linecap:butt;stroke-linejoin:round;}
  </style>
 </defs>
 <g id="figure_1">
  <g id="patch_1">
   <path d="M 0 432 
L 504 432 
L 504 0 
L 0 0 
z
" style="fill:#ffffff;"/>
  </g>
  <g id="axes_1">
   <g id="patch_2">
    <path d="M 63 384.48 
L 453.6 384.48 
L 453.6 51.84 
L 63 51.84 
z
" style="fill:#ffffff;"/>
   </g>
   <g id="matplotlib.axis_1">
    <g id="xtick_1">
     <g id="line2d_1">
      <defs>
       <path d="M 0 0 
L 0 3.5 
" id="m5ab48f544f" style="stroke:#000000;stroke-width:0.8;"/>
      </defs>
      <g>
       <use style="stroke:#000000;stroke-width:0.8;" x="80.754545" xlink:href="#m5ab48f544f" y="384.48"/>
      </g>
     </g>
     <g id="text_1">
      <!-- 0 -->
      <defs>
       <path d="M 31.78125 66.40625 
Q 24.171875 66.40625 20.328125 58.90625 
Q 16.5 51.421875 16.5 36.375 
Q 16.5 21.390625 20.328125 13.890625 
Q 24.171875 6.390625 31.78125 6.390625 
Q 39.453125 6.390625 43.28125 13.890625 
Q 47.125 21.390625 47.125 36.375 
Q 47.125 51.421875 43.28125 58.90625 
Q 39.453125 66.40625 31.78125 66.40625 
z
M 31.78125 74.21875 
Q 44.046875 74.21875 50.515625 64.515625 
Q 56.984375 54.828125 56.984375 36.375 
Q 56.984375 17.96875 50.515625 8.265625 
Q 44.046875 -1.421875 31.78125 -1.421875 
Q 19.53125 -1.421875 13.0625 8.265625 
Q 6.59375 17.96875 6.59375 36.375 
Q 6.59375 54.828125 13.0625 64.515625 
Q 19.53125 74.21875 31.78125 74.21875 
z
" id="DejaVuSans-48"/>
      </defs>
      <g transform="translate(77.573295 399.078438)scale(0.1 -0.1)">
       <use xlink:href="#DejaVuSans-48"/>
      </g>
     </g>
    </g>
    <g id="xtick_2">
     <g id="line2d_2">
      <g>
       <use style="stroke:#000000;stroke-width:0.8;" x="151.763044" xlink:href="#m5ab48f544f" y="384.48"/>
      </g>
     </g>
     <g id="text_2">
      <!-- 880 -->
      <defs>
       <path d="M 31.78125 34.625 
Q 24.75 34.625 20.71875 30.859375 
Q 16.703125 27.09375 16.703125 20.515625 
Q 16.703125 13.921875 20.71875 10.15625 
Q 24.75 6.390625 31.78125 6.390625 
Q 38.8125 6.390625 42.859375 10.171875 
Q 46.921875 13.96875 46.921875 20.515625 
Q 46.921875 27.09375 42.890625 30.859375 
Q 38.875 34.625 31.78125 34.625 
z
M 21.921875 38.8125 
Q 15.578125 40.375 12.03125 44.71875 
Q 8.5 49.078125 8.5 55.328125 
Q 8.5 64.0625 14.71875 69.140625 
Q 20.953125 74.21875 31.78125 74.21875 
Q 42.671875 74.21875 48.875 69.140625 
Q 55.078125 64.0625 55.078125 55.328125 
Q 55.078125 49.078125 51.53125 44.71875 
Q 48 40.375 41.703125 38.8125 
Q 48.828125 37.15625 52.796875 32.3125 
Q 56.78125 27.484375 56.78125 20.515625 
Q 56.78125 9.90625 50.3125 4.234375 
Q 43.84375 -1.421875 31.78125 -1.421875 
Q 19.734375 -1.421875 13.25 4.234375 
Q 6.78125 9.90625 6.78125 20.515625 
Q 6.78125 27.484375 10.78125 32.3125 
Q 14.796875 37.15625 21.921875 38.8125 
z
M 18.3125 54.390625 
Q 18.3125 48.734375 21.84375 45.5625 
Q 25.390625 42.390625 31.78125 42.390625 
Q 38.140625 42.390625 41.71875 45.5625 
Q 45.3125 48.734375 45.3125 54.390625 
Q 45.3125 60.0625 41.71875 63.234375 
Q 38.140625 66.40625 31.78125 66.40625 
Q 25.390625 66.40625 21.84375 63.234375 
Q 18.3125 60.0625 18.3125 54.390625 
z
" id="DejaVuSans-56"/>
      </defs>
      <g transform="translate(142.219294 399.078438)scale(0.1 -0.1)">
       <use xlink:href="#DejaVuSans-56"/>
       <use x="63.623047" xlink:href="#DejaVuSans-56"/>
       <use x="127.246094" xlink:href="#DejaVuSans-48"/>
      </g>
     </g>
    </g>
    <g id="xtick_3">
     <g id="line2d_3">
      <g>
       <use style="stroke:#000000;stroke-width:0.8;" x="222.771543" xlink:href="#m5ab48f544f" y="384.48"/>
      </g>
     </g>
     <g id="text_3">
      <!-- 1760 -->
      <defs>
       <path d="M 12.40625 8.296875 
L 28.515625 8.296875 
L 28.515625 63.921875 
L 10.984375 60.40625 
L 10.984375 69.390625 
L 28.421875 72.90625 
L 38.28125 72.90625 
L 38.28125 8.296875 
L 54.390625 8.296875 
L 54.390625 0 
L 12.40625 0 
z
" id="DejaVuSans-49"/>
       <path d="M 8.203125 72.90625 
L 55.078125 72.90625 
L 55.078125 68.703125 
L 28.609375 0 
L 18.3125 0 
L 43.21875 64.59375 
L 8.203125 64.59375 
z
" id="DejaVuSans-55"/>
       <path d="M 33.015625 40.375 
Q 26.375 40.375 22.484375 35.828125 
Q 18.609375 31.296875 18.609375 23.390625 
Q 18.609375 15.53125 22.484375 10.953125 
Q 26.375 6.390625 33.015625 6.390625 
Q 39.65625 6.390625 43.53125 10.953125 
Q 47.40625 15.53125 47.40625 23.390625 
Q 47.40625 31.296875 43.53125 35.828125 
Q 39.65625 40.375 33.015625 40.375 
z
M 52.59375 71.296875 
L 52.59375 62.3125 
Q 48.875 64.0625 45.09375 64.984375 
Q 41.3125 65.921875 37.59375 65.921875 
Q 27.828125 65.921875 22.671875 59.328125 
Q 17.53125 52.734375 16.796875 39.40625 
Q 19.671875 43.65625 24.015625 45.921875 
Q 28.375 48.1875 33.59375 48.1875 
Q 44.578125 48.1875 50.953125 41.515625 
Q 57.328125 34.859375 57.328125 23.390625 
Q 57.328125 12.15625 50.6875 5.359375 
Q 44.046875 -1.421875 33.015625 -1.421875 
Q 20.359375 -1.421875 13.671875 8.265625 
Q 6.984375 17.96875 6.984375 36.375 
Q 6.984375 53.65625 15.1875 63.9375 
Q 23.390625 74.21875 37.203125 74.21875 
Q 40.921875 74.21875 44.703125 73.484375 
Q 48.484375 72.75 52.59375 71.296875 
z
" id="DejaVuSans-54"/>
      </defs>
      <g transform="translate(210.046543 399.078438)scale(0.1 -0.1)">
       <use xlink:href="#DejaVuSans-49"/>
       <use x="63.623047" xlink:href="#DejaVuSans-55"/>
       <use x="127.246094" xlink:href="#DejaVuSans-54"/>
       <use x="190.869141" xlink:href="#DejaVuSans-48"/>
      </g>
     </g>
    </g>
    <g id="xtick_4">
     <g id="line2d_4">
      <g>
       <use style="stroke:#000000;stroke-width:0.8;" x="293.780042" xlink:href="#m5ab48f544f" y="384.48"/>
      </g>
     </g>
     <g id="text_4">
      <!-- 2640 -->
      <defs>
       <path d="M 19.1875 8.296875 
L 53.609375 8.296875 
L 53.609375 0 
L 7.328125 0 
L 7.328125 8.296875 
Q 12.9375 14.109375 22.625 23.890625 
Q 32.328125 33.6875 34.8125 36.53125 
Q 39.546875 41.84375 41.421875 45.53125 
Q 43.3125 49.21875 43.3125 52.78125 
Q 43.3125 58.59375 39.234375 62.25 
Q 35.15625 65.921875 28.609375 65.921875 
Q 23.96875 65.921875 18.8125 64.3125 
Q 13.671875 62.703125 7.8125 59.421875 
L 7.8125 69.390625 
Q 13.765625 71.78125 18.9375 73 
Q 24.125 74.21875 28.421875 74.21875 
Q 39.75 74.21875 46.484375 68.546875 
Q 53.21875 62.890625 53.21875 53.421875 
Q 53.21875 48.921875 51.53125 44.890625 
Q 49.859375 40.875 45.40625 35.40625 
Q 44.1875 33.984375 37.640625 27.21875 
Q 31.109375 20.453125 19.1875 8.296875 
z
" id="DejaVuSans-50"/>
       <path d="M 37.796875 64.3125 
L 12.890625 25.390625 
L 37.796875 25.390625 
z
M 35.203125 72.90625 
L 47.609375 72.90625 
L 47.609375 25.390625 
L 58.015625 25.390625 
L 58.015625 17.1875 
L 47.609375 17.1875 
L 47.609375 0 
L 37.796875 0 
L 37.796875 17.1875 
L 4.890625 17.1875 
L 4.890625 26.703125 
z
" id="DejaVuSans-52"/>
      </defs>
      <g transform="translate(281.055042 399.078438)scale(0.1 -0.1)">
       <use xlink:href="#DejaVuSans-50"/>
       <use x="63.623047" xlink:href="#DejaVuSans-54"/>
       <use x="127.246094" xlink:href="#DejaVuSans-52"/>
       <use x="190.869141" xlink:href="#DejaVuSans-48"/>
      </g>
     </g>
    </g>
    <g id="xtick_5">
     <g id="line2d_5">
      <g>
       <use style="stroke:#000000;stroke-width:0.8;" x="364.788541" xlink:href="#m5ab48f544f" y="384.48"/>
      </g>
     </g>
     <g id="text_5">
      <!-- 3520 -->
      <defs>
       <path d="M 40.578125 39.3125 
Q 47.65625 37.796875 51.625 33 
Q 55.609375 28.21875 55.609375 21.1875 
Q 55.609375 10.40625 48.1875 4.484375 
Q 40.765625 -1.421875 27.09375 -1.421875 
Q 22.515625 -1.421875 17.65625 -0.515625 
Q 12.796875 0.390625 7.625 2.203125 
L 7.625 11.71875 
Q 11.71875 9.328125 16.59375 8.109375 
Q 21.484375 6.890625 26.8125 6.890625 
Q 36.078125 6.890625 40.9375 10.546875 
Q 45.796875 14.203125 45.796875 21.1875 
Q 45.796875 27.640625 41.28125 31.265625 
Q 36.765625 34.90625 28.71875 34.90625 
L 20.21875 34.90625 
L 20.21875 43.015625 
L 29.109375 43.015625 
Q 36.375 43.015625 40.234375 45.921875 
Q 44.09375 48.828125 44.09375 54.296875 
Q 44.09375 59.90625 40.109375 62.90625 
Q 36.140625 65.921875 28.71875 65.921875 
Q 24.65625 65.921875 20.015625 65.03125 
Q 15.375 64.15625 9.8125 62.3125 
L 9.8125 71.09375 
Q 15.4375 72.65625 20.34375 73.4375 
Q 25.25 74.21875 29.59375 74.21875 
Q 40.828125 74.21875 47.359375 69.109375 
Q 53.90625 64.015625 53.90625 55.328125 
Q 53.90625 49.265625 50.4375 45.09375 
Q 46.96875 40.921875 40.578125 39.3125 
z
" id="DejaVuSans-51"/>
       <path d="M 10.796875 72.90625 
L 49.515625 72.90625 
L 49.515625 64.59375 
L 19.828125 64.59375 
L 19.828125 46.734375 
Q 21.96875 47.46875 24.109375 47.828125 
Q 26.265625 48.1875 28.421875 48.1875 
Q 40.625 48.1875 47.75 41.5 
Q 54.890625 34.8125 54.890625 23.390625 
Q 54.890625 11.625 47.5625 5.09375 
Q 40.234375 -1.421875 26.90625 -1.421875 
Q 22.3125 -1.421875 17.546875 -0.640625 
Q 12.796875 0.140625 7.71875 1.703125 
L 7.71875 11.625 
Q 12.109375 9.234375 16.796875 8.0625 
Q 21.484375 6.890625 26.703125 6.890625 
Q 35.15625 6.890625 40.078125 11.328125 
Q 45.015625 15.765625 45.015625 23.390625 
Q 45.015625 31 40.078125 35.4375 
Q 35.15625 39.890625 26.703125 39.890625 
Q 22.75 39.890625 18.8125 39.015625 
Q 14.890625 38.140625 10.796875 36.28125 
z
" id="DejaVuSans-53"/>
      </defs>
      <g transform="translate(352.063541 399.078438)scale(0.1 -0.1)">
       <use xlink:href="#DejaVuSans-51"/>
       <use x="63.623047" xlink:href="#DejaVuSans-53"/>
       <use x="127.246094" xlink:href="#DejaVuSans-50"/>
       <use x="190.869141" xlink:href="#DejaVuSans-48"/>
      </g>
     </g>
    </g>
    <g id="text_6">
     <!-- time [ms] -->
     <defs>
      <path d="M 18.3125 70.21875 
L 18.3125 54.6875 
L 36.8125 54.6875 
L 36.8125 47.703125 
L 18.3125 47.703125 
L 18.3125 18.015625 
Q 18.3125 11.328125 20.140625 9.421875 
Q 21.96875 7.515625 27.59375 7.515625 
L 36.8125 7.515625 
L 36.8125 0 
L 27.59375 0 
Q 17.1875 0 13.234375 3.875 
Q 9.28125 7.765625 9.28125 18.015625 
L 9.28125 47.703125 
L 2.6875 47.703125 
L 2.6875 54.6875 
L 9.28125 54.6875 
L 9.28125 70.21875 
z
" id="DejaVuSans-116"/>
      <path d="M 9.421875 54.6875 
L 18.40625 54.6875 
L 18.40625 0 
L 9.421875 0 
z
M 9.421875 75.984375 
L 18.40625 75.984375 
L 18.40625 64.59375 
L 9.421875 64.59375 
z
" id="DejaVuSans-105"/>
      <path d="M 52 44.1875 
Q 55.375 50.25 60.0625 53.125 
Q 64.75 56 71.09375 56 
Q 79.640625 56 84.28125 50.015625 
Q 88.921875 44.046875 88.921875 33.015625 
L 88.921875 0 
L 79.890625 0 
L 79.890625 32.71875 
Q 79.890625 40.578125 77.09375 44.375 
Q 74.3125 48.1875 68.609375 48.1875 
Q 61.625 48.1875 57.5625 43.546875 
Q 53.515625 38.921875 53.515625 30.90625 
L 53.515625 0 
L 44.484375 0 
L 44.484375 32.71875 
Q 44.484375 40.625 41.703125 44.40625 
Q 38.921875 48.1875 33.109375 48.1875 
Q 26.21875 48.1875 22.15625 43.53125 
Q 18.109375 38.875 18.109375 30.90625 
L 18.109375 0 
L 9.078125 0 
L 9.078125 54.6875 
L 18.109375 54.6875 
L 18.109375 46.1875 
Q 21.1875 51.21875 25.484375 53.609375 
Q 29.78125 56 35.6875 56 
Q 41.65625 56 45.828125 52.96875 
Q 50 49.953125 52 44.1875 
z
" id="DejaVuSans-109"/>
      <path d="M 56.203125 29.59375 
L 56.203125 25.203125 
L 14.890625 25.203125 
Q 15.484375 15.921875 20.484375 11.0625 
Q 25.484375 6.203125 34.421875 6.203125 
Q 39.59375 6.203125 44.453125 7.46875 
Q 49.3125 8.734375 54.109375 11.28125 
L 54.109375 2.78125 
Q 49.265625 0.734375 44.1875 -0.34375 
Q 39.109375 -1.421875 33.890625 -1.421875 
Q 20.796875 -1.421875 13.15625 6.1875 
Q 5.515625 13.8125 5.515625 26.8125 
Q 5.515625 40.234375 12.765625 48.109375 
Q 20.015625 56 32.328125 56 
Q 43.359375 56 49.78125 48.890625 
Q 56.203125 41.796875 56.203125 29.59375 
z
M 47.21875 32.234375 
Q 47.125 39.59375 43.09375 43.984375 
Q 39.0625 48.390625 32.421875 48.390625 
Q 24.90625 48.390625 20.390625 44.140625 
Q 15.875 39.890625 15.1875 32.171875 
z
" id="DejaVuSans-101"/>
      <path id="DejaVuSans-32"/>
      <path d="M 8.59375 75.984375 
L 29.296875 75.984375 
L 29.296875 69 
L 17.578125 69 
L 17.578125 -6.203125 
L 29.296875 -6.203125 
L 29.296875 -13.1875 
L 8.59375 -13.1875 
z
" id="DejaVuSans-91"/>
      <path d="M 44.28125 53.078125 
L 44.28125 44.578125 
Q 40.484375 46.53125 36.375 47.5 
Q 32.28125 48.484375 27.875 48.484375 
Q 21.1875 48.484375 17.84375 46.4375 
Q 14.5 44.390625 14.5 40.28125 
Q 14.5 37.15625 16.890625 35.375 
Q 19.28125 33.59375 26.515625 31.984375 
L 29.59375 31.296875 
Q 39.15625 29.25 43.1875 25.515625 
Q 47.21875 21.78125 47.21875 15.09375 
Q 47.21875 7.46875 41.1875 3.015625 
Q 35.15625 -1.421875 24.609375 -1.421875 
Q 20.21875 -1.421875 15.453125 -0.5625 
Q 10.6875 0.296875 5.421875 2 
L 5.421875 11.28125 
Q 10.40625 8.6875 15.234375 7.390625 
Q 20.0625 6.109375 24.8125 6.109375 
Q 31.15625 6.109375 34.5625 8.28125 
Q 37.984375 10.453125 37.984375 14.40625 
Q 37.984375 18.0625 35.515625 20.015625 
Q 33.0625 21.96875 24.703125 23.78125 
L 21.578125 24.515625 
Q 13.234375 26.265625 9.515625 29.90625 
Q 5.8125 33.546875 5.8125 39.890625 
Q 5.8125 47.609375 11.28125 51.796875 
Q 16.75 56 26.8125 56 
Q 31.78125 56 36.171875 55.265625 
Q 40.578125 54.546875 44.28125 53.078125 
z
" id="DejaVuSans-115"/>
      <path d="M 30.421875 75.984375 
L 30.421875 -13.1875 
L 9.71875 -13.1875 
L 9.71875 -6.203125 
L 21.390625 -6.203125 
L 21.390625 69 
L 9.71875 69 
L 9.71875 75.984375 
z
" id="DejaVuSans-93"/>
     </defs>
     <g transform="translate(234.038281 412.756563)scale(0.1 -0.1)">
      <use xlink:href="#DejaVuSans-116"/>
      <use x="39.208984" xlink:href="#DejaVuSans-105"/>
      <use x="66.992188" xlink:href="#DejaVuSans-109"/>
      <use x="164.404297" xlink:href="#DejaVuSans-101"/>
      <use x="225.927734" xlink:href="#DejaVuSans-32"/>
      <use x="257.714844" xlink:href="#DejaVuSans-91"/>
      <use x="296.728516" xlink:href="#DejaVuSans-109"/>
      <use x="394.140625" xlink:href="#DejaVuSans-115"/>
      <use x="446.240234" xlink:href="#DejaVuSans-93"/>
     </g>
    </g>
   </g>
   <g id="matplotlib.axis_2">
    <g id="ytick_1">
     <g id="line2d_6">
      <defs>
       <path d="M 0 0 
L -3.5 0 
" id="ma0b3736b44" style="stroke:#000000;stroke-width:0.8;"/>
      </defs>
      <g>
       <use style="stroke:#000000;stroke-width:0.8;" x="63" xlink:href="#ma0b3736b44" y="344.44344"/>
      </g>
     </g>
     <g id="text_7">
      <!-- −80 -->
      <defs>
       <path d="M 10.59375 35.5 
L 73.1875 35.5 
L 73.1875 27.203125 
L 10.59375 27.203125 
z
" id="DejaVuSans-8722"/>
      </defs>
      <g transform="translate(34.895313 348.242659)scale(0.1 -0.1)">
       <use xlink:href="#DejaVuSans-8722"/>
       <use x="83.789062" xlink:href="#DejaVuSans-56"/>
       <use x="147.412109" xlink:href="#DejaVuSans-48"/>
      </g>
     </g>
    </g>
    <g id="ytick_2">
     <g id="line2d_7">
      <g>
       <use style="stroke:#000000;stroke-width:0.8;" x="63" xlink:href="#ma0b3736b44" y="303.462255"/>
      </g>
     </g>
     <g id="text_8">
      <!-- −60 -->
      <g transform="translate(34.895313 307.261474)scale(0.1 -0.1)">
       <use xlink:href="#DejaVuSans-8722"/>
       <use x="83.789062" xlink:href="#DejaVuSans-54"/>
       <use x="147.412109" xlink:href="#DejaVuSans-48"/>
      </g>
     </g>
    </g>
    <g id="ytick_3">
     <g id="line2d_8">
      <g>
       <use style="stroke:#000000;stroke-width:0.8;" x="63" xlink:href="#ma0b3736b44" y="262.481071"/>
      </g>
     </g>
     <g id="text_9">
      <!-- −40 -->
      <g transform="translate(34.895313 266.28029)scale(0.1 -0.1)">
       <use xlink:href="#DejaVuSans-8722"/>
       <use x="83.789062" xlink:href="#DejaVuSans-52"/>
       <use x="147.412109" xlink:href="#DejaVuSans-48"/>
      </g>
     </g>
    </g>
    <g id="ytick_4">
     <g id="line2d_9">
      <g>
       <use style="stroke:#000000;stroke-width:0.8;" x="63" xlink:href="#ma0b3736b44" y="221.499886"/>
      </g>
     </g>
     <g id="text_10">
      <!-- −20 -->
      <g transform="translate(34.895313 225.299105)scale(0.1 -0.1)">
       <use xlink:href="#DejaVuSans-8722"/>
       <use x="83.789062" xlink:href="#DejaVuSans-50"/>
       <use x="147.412109" xlink:href="#DejaVuSans-48"/>
      </g>
     </g>
    </g>
    <g id="ytick_5">
     <g id="line2d_10">
      <g>
       <use style="stroke:#000000;stroke-width:0.8;" x="63" xlink:href="#ma0b3736b44" y="180.518702"/>
      </g>
     </g>
     <g id="text_11">
      <!-- 0 -->
      <g transform="translate(49.6375 184.317921)scale(0.1 -0.1)">
       <use xlink:href="#DejaVuSans-48"/>
      </g>
     </g>
    </g>
    <g id="ytick_6">
     <g id="line2d_11">
      <g>
       <use style="stroke:#000000;stroke-width:0.8;" x="63" xlink:href="#ma0b3736b44" y="139.537518"/>
      </g>
     </g>
     <g id="text_12">
      <!-- 20 -->
      <g transform="translate(43.275 143.336736)scale(0.1 -0.1)">
       <use xlink:href="#DejaVuSans-50"/>
       <use x="63.623047" xlink:href="#DejaVuSans-48"/>
      </g>
     </g>
    </g>
    <g id="ytick_7">
     <g id="line2d_12">
      <g>
       <use style="stroke:#000000;stroke-width:0.8;" x="63" xlink:href="#ma0b3736b44" y="98.556333"/>
      </g>
     </g>
     <g id="text_13">
      <!-- 40 -->
      <g transform="translate(43.275 102.355552)scale(0.1 -0.1)">
       <use xlink:href="#DejaVuSans-52"/>
       <use x="63.623047" xlink:href="#DejaVuSans-48"/>
      </g>
     </g>
    </g>
    <g id="ytick_8">
     <g id="line2d_13">
      <g>
       <use style="stroke:#000000;stroke-width:0.8;" x="63" xlink:href="#ma0b3736b44" y="57.575149"/>
      </g>
     </g>
     <g id="text_14">
      <!-- 60 -->
      <g transform="translate(43.275 61.374367)scale(0.1 -0.1)">
       <use xlink:href="#DejaVuSans-54"/>
       <use x="63.623047" xlink:href="#DejaVuSans-48"/>
      </g>
     </g>
    </g>
    <g id="text_15">
     <!-- voltage [mV] -->
     <defs>
      <path d="M 2.984375 54.6875 
L 12.5 54.6875 
L 29.59375 8.796875 
L 46.6875 54.6875 
L 56.203125 54.6875 
L 35.6875 0 
L 23.484375 0 
z
" id="DejaVuSans-118"/>
      <path d="M 30.609375 48.390625 
Q 23.390625 48.390625 19.1875 42.75 
Q 14.984375 37.109375 14.984375 27.296875 
Q 14.984375 17.484375 19.15625 11.84375 
Q 23.34375 6.203125 30.609375 6.203125 
Q 37.796875 6.203125 41.984375 11.859375 
Q 46.1875 17.53125 46.1875 27.296875 
Q 46.1875 37.015625 41.984375 42.703125 
Q 37.796875 48.390625 30.609375 48.390625 
z
M 30.609375 56 
Q 42.328125 56 49.015625 48.375 
Q 55.71875 40.765625 55.71875 27.296875 
Q 55.71875 13.875 49.015625 6.21875 
Q 42.328125 -1.421875 30.609375 -1.421875 
Q 18.84375 -1.421875 12.171875 6.21875 
Q 5.515625 13.875 5.515625 27.296875 
Q 5.515625 40.765625 12.171875 48.375 
Q 18.84375 56 30.609375 56 
z
" id="DejaVuSans-111"/>
      <path d="M 9.421875 75.984375 
L 18.40625 75.984375 
L 18.40625 0 
L 9.421875 0 
z
" id="DejaVuSans-108"/>
      <path d="M 34.28125 27.484375 
Q 23.390625 27.484375 19.1875 25 
Q 14.984375 22.515625 14.984375 16.5 
Q 14.984375 11.71875 18.140625 8.90625 
Q 21.296875 6.109375 26.703125 6.109375 
Q 34.1875 6.109375 38.703125 11.40625 
Q 43.21875 16.703125 43.21875 25.484375 
L 43.21875 27.484375 
z
M 52.203125 31.203125 
L 52.203125 0 
L 43.21875 0 
L 43.21875 8.296875 
Q 40.140625 3.328125 35.546875 0.953125 
Q 30.953125 -1.421875 24.3125 -1.421875 
Q 15.921875 -1.421875 10.953125 3.296875 
Q 6 8.015625 6 15.921875 
Q 6 25.140625 12.171875 29.828125 
Q 18.359375 34.515625 30.609375 34.515625 
L 43.21875 34.515625 
L 43.21875 35.40625 
Q 43.21875 41.609375 39.140625 45 
Q 35.0625 48.390625 27.6875 48.390625 
Q 23 48.390625 18.546875 47.265625 
Q 14.109375 46.140625 10.015625 43.890625 
L 10.015625 52.203125 
Q 14.9375 54.109375 19.578125 55.046875 
Q 24.21875 56 28.609375 56 
Q 40.484375 56 46.34375 49.84375 
Q 52.203125 43.703125 52.203125 31.203125 
z
" id="DejaVuSans-97"/>
      <path d="M 45.40625 27.984375 
Q 45.40625 37.75 41.375 43.109375 
Q 37.359375 48.484375 30.078125 48.484375 
Q 22.859375 48.484375 18.828125 43.109375 
Q 14.796875 37.75 14.796875 27.984375 
Q 14.796875 18.265625 18.828125 12.890625 
Q 22.859375 7.515625 30.078125 7.515625 
Q 37.359375 7.515625 41.375 12.890625 
Q 45.40625 18.265625 45.40625 27.984375 
z
M 54.390625 6.78125 
Q 54.390625 -7.171875 48.1875 -13.984375 
Q 42 -20.796875 29.203125 -20.796875 
Q 24.46875 -20.796875 20.265625 -20.09375 
Q 16.0625 -19.390625 12.109375 -17.921875 
L 12.109375 -9.1875 
Q 16.0625 -11.328125 19.921875 -12.34375 
Q 23.78125 -13.375 27.78125 -13.375 
Q 36.625 -13.375 41.015625 -8.765625 
Q 45.40625 -4.15625 45.40625 5.171875 
L 45.40625 9.625 
Q 42.625 4.78125 38.28125 2.390625 
Q 33.9375 0 27.875 0 
Q 17.828125 0 11.671875 7.65625 
Q 5.515625 15.328125 5.515625 27.984375 
Q 5.515625 40.671875 11.671875 48.328125 
Q 17.828125 56 27.875 56 
Q 33.9375 56 38.28125 53.609375 
Q 42.625 51.21875 45.40625 46.390625 
L 45.40625 54.6875 
L 54.390625 54.6875 
z
" id="DejaVuSans-103"/>
      <path d="M 28.609375 0 
L 0.78125 72.90625 
L 11.078125 72.90625 
L 34.1875 11.53125 
L 57.328125 72.90625 
L 67.578125 72.90625 
L 39.796875 0 
z
" id="DejaVuSans-86"/>
     </defs>
     <g transform="translate(28.815625 250.624062)rotate(-90)scale(0.1 -0.1)">
      <use xlink:href="#DejaVuSans-118"/>
      <use x="59.179688" xlink:href="#DejaVuSans-111"/>
      <use x="120.361328" xlink:href="#DejaVuSans-108"/>
      <use x="148.144531" xlink:href="#DejaVuSans-116"/>
      <use x="187.353516" xlink:href="#DejaVuSans-97"/>
      <use x="248.632812" xlink:href="#DejaVuSans-103"/>
      <use x="312.109375" xlink:href="#DejaVuSans-101"/>
      <use x="373.632812" xlink:href="#DejaVuSans-32"/>
      <use x="405.419922" xlink:href="#DejaVuSans-91"/>
      <use x="444.433594" xlink:href="#DejaVuSans-109"/>
      <use x="541.845703" xlink:href="#DejaVuSans-86"/>
      <use x="610.253906" xlink:href="#DejaVuSans-93"/>
     </g>
    </g>
   </g>
   <g id="line2d_14">
    <path clip-path="url(#p0fdddf2a23)" d="M 80.754545 300.380662 
L 83.385088 300.280611 
L 83.417364 300.180559 
L 83.465779 300.380662 
L 83.481917 300.280611 
L 83.966066 300.180559 
L 84.062896 300.080507 
L 84.175864 300.180559 
L 84.547045 300.280611 
L 84.660013 300.380662 
L 84.96664 300.280611 
L 85.079609 300.180559 
L 85.337821 300.280611 
L 85.35396 300.380662 
L 85.402374 300.180559 
L 85.418513 300.180559 
L 86.322257 300.280611 
L 86.435225 300.380662 
L 87.419661 300.480714 
L 87.532629 300.580766 
L 87.581044 300.480714 
L 87.629459 300.580766 
L 88.694587 300.680818 
L 88.807555 300.780869 
L 88.85597 300.680818 
L 89.049629 289.274922 
L 89.501501 278.569388 
L 90.356831 264.662198 
L 91.196022 255.557492 
L 91.454235 253.356354 
L 91.777001 250.654958 
L 92.503224 246.752941 
L 92.535501 246.652889 
L 92.713022 246.15263 
L 92.745299 246.052579 
L 92.971235 245.252165 
L 93.01965 245.152113 
L 93.213309 244.551803 
L 93.358554 244.451751 
L 93.536075 243.951492 
L 93.600628 243.851441 
L 93.762011 243.451234 
L 93.858841 243.351182 
L 94.004086 243.051027 
L 94.213884 242.950975 
L 94.359128 242.65082 
L 95.133766 242.550768 
L 95.182181 242.450717 
L 95.230596 242.550768 
L 95.843851 242.450717 
L 95.989096 242.05051 
L 96.053649 242.150561 
L 96.085926 242.05051 
L 96.392553 241.950458 
L 96.505522 241.850406 
L 96.796011 241.950458 
L 97.005809 242.65082 
L 97.070362 242.750872 
L 97.215607 243.051027 
L 97.393128 242.950975 
L 97.425404 242.850924 
L 97.489958 242.950975 
L 97.845 242.850924 
L 97.974106 242.65082 
L 98.264596 242.750872 
L 98.296872 242.850924 
L 98.345287 242.750872 
L 98.458255 242.65082 
L 98.50667 242.750872 
L 98.538947 242.850924 
L 98.571223 242.65082 
L 98.6035 242.750872 
L 99.119925 242.65082 
L 99.249032 242.450717 
L 99.959117 242.350665 
L 100.055947 242.250613 
L 100.572372 244.851958 
L 100.620787 244.95201 
L 100.733755 245.152113 
L 100.862861 244.95201 
L 101.024244 244.851958 
L 101.153351 244.651854 
L 101.298595 244.551803 
L 101.44384 244.251648 
L 101.556808 244.151596 
L 101.685914 243.951492 
L 101.831159 243.851441 
L 101.847297 243.751389 
L 101.927989 243.851441 
L 102.10551 243.751389 
L 102.266893 243.351182 
L 102.363723 243.25113 
L 102.492829 243.051027 
L 102.993116 242.950975 
L 103.057669 242.65082 
L 103.106084 242.750872 
L 103.251329 243.051027 
L 103.380435 242.850924 
L 103.687063 242.750872 
L 103.783893 242.65082 
L 103.880722 242.750872 
L 103.993691 242.65082 
L 104.09052 242.550768 
L 104.18735 242.450717 
L 104.300318 242.550768 
L 104.38101 242.450717 
L 104.526254 242.05051 
L 104.574669 242.150561 
L 104.623084 242.05051 
L 104.897435 241.950458 
L 105.010403 241.850406 
L 105.236339 241.950458 
L 105.317031 242.05051 
L 105.333169 241.950458 
L 106.107807 241.850406 
L 106.123945 241.750355 
L 106.17236 241.950458 
L 106.204637 241.850406 
L 106.882445 241.950458 
L 106.995413 242.05051 
L 107.705498 241.950458 
L 107.737775 241.850406 
L 107.78619 242.05051 
L 108.383307 241.950458 
L 108.512413 241.750355 
L 108.576966 241.650303 
L 108.689934 241.550251 
L 109.254775 241.450199 
L 109.335466 241.350148 
L 109.351605 241.450199 
L 109.690509 241.350148 
L 109.819615 241.150044 
L 109.916445 241.250096 
L 110.013275 241.150044 
L 110.126243 241.250096 
L 110.5297 241.350148 
L 110.610392 241.450199 
L 110.62653 241.350148 
L 111.368891 241.450199 
L 111.497998 241.650303 
L 111.836902 241.750355 
L 111.85304 241.850406 
L 111.933732 241.750355 
L 112.256498 241.850406 
L 112.321051 241.750355 
L 112.369466 241.950458 
L 112.821338 242.05051 
L 112.837476 242.150561 
L 112.869753 241.950458 
L 112.902029 241.950458 
L 113.144104 242.05051 
L 113.289349 242.350665 
L 113.37004 242.450717 
L 113.499146 242.65082 
L 113.595976 242.750872 
L 113.644391 242.850924 
L 113.692806 242.750872 
L 113.789636 242.65082 
L 113.870327 242.550768 
L 113.886465 242.65082 
L 114.160817 242.750872 
L 114.257646 242.850924 
L 114.386753 242.550768 
L 114.419029 242.65082 
L 114.483582 242.550768 
L 114.580412 242.350665 
L 114.59655 242.450717 
L 114.806348 242.350665 
L 114.919316 242.250613 
L 115.35505 242.150561 
L 115.468018 242.05051 
L 115.758508 241.950458 
L 115.887614 241.750355 
L 116.161965 241.650303 
L 116.258795 241.450199 
L 116.274933 241.550251 
L 116.355625 241.450199 
L 116.468593 241.350148 
L 116.533146 241.250096 
L 116.662252 241.049993 
L 117.017295 241.150044 
L 117.033433 241.250096 
L 117.114125 241.150044 
L 117.259369 241.250096 
L 117.43689 241.750355 
L 117.469167 241.850406 
L 117.662827 242.450717 
L 117.711241 242.550768 
L 117.791933 242.750872 
L 117.82421 242.65082 
L 117.921039 242.750872 
L 118.034007 242.850924 
L 118.647263 242.750872 
L 118.760231 242.65082 
L 119.05072 242.550768 
L 119.131411 242.450717 
L 119.14755 242.550768 
L 119.518731 242.450717 
L 119.647837 242.250613 
L 119.80922 242.150561 
L 119.922188 242.05051 
L 120.099709 241.950458 
L 120.244954 241.650303 
L 120.438613 241.550251 
L 120.551581 241.450199 
L 120.664549 241.350148 
L 120.696826 241.250096 
L 120.745241 241.450199 
L 121.116422 241.550251 
L 121.22939 241.650303 
L 121.600571 241.550251 
L 121.729677 241.350148 
L 121.810368 241.250096 
L 121.939475 241.049993 
L 122.116996 240.949941 
L 122.213826 240.849889 
L 122.342932 241.049993 
L 122.778666 240.949941 
L 122.810943 240.849889 
L 122.875496 240.949941 
L 122.923911 241.049993 
L 122.972326 240.949941 
L 123.133709 241.049993 
L 123.262815 241.250096 
L 123.553304 241.350148 
L 123.682411 241.550251 
L 123.827655 241.250096 
L 123.924485 241.350148 
L 123.940623 241.450199 
L 124.005177 241.250096 
L 124.360219 241.150044 
L 124.473187 241.049993 
L 124.682985 241.150044 
L 124.812091 241.350148 
L 125.215549 241.450199 
L 125.328517 241.650303 
L 125.360793 241.750355 
L 125.441485 241.550251 
L 125.764251 241.450199 
L 125.780389 241.350148 
L 125.861081 241.450199 
L 126.038602 241.350148 
L 126.15157 241.250096 
L 126.329091 241.150044 
L 126.425921 241.049993 
L 126.538889 241.150044 
L 127.136006 241.049993 
L 127.152144 240.949941 
L 127.232836 241.049993 
L 127.248974 241.150044 
L 127.297389 240.949941 
L 127.313527 240.949941 
L 127.394219 241.049993 
L 127.442633 241.250096 
L 127.507187 241.150044 
L 127.523325 241.049993 
L 127.604016 241.150044 
L 127.975197 241.049993 
L 128.104304 240.849889 
L 128.217272 240.749837 
L 128.33024 240.649786 
L 128.410931 240.549734 
L 128.523899 240.449682 
L 129.08874 240.349631 
L 129.137154 240.249579 
L 129.185569 240.349631 
L 129.605165 240.449682 
L 129.718133 240.549734 
L 129.831101 240.449682 
L 130.008622 239.949424 
L 130.137729 239.849372 
L 130.266835 239.649268 
L 130.525048 239.549217 
L 130.541186 239.449165 
L 130.589601 239.649268 
L 130.621878 239.549217 
L 130.670292 239.649268 
L 130.718707 239.549217 
L 131.07375 239.449165 
L 131.138303 239.349113 
L 131.17058 239.449165 
L 131.202856 239.349113 
L 131.315824 239.249062 
L 132.477782 239.349113 
L 132.59075 239.449165 
L 132.768271 239.349113 
L 132.816686 239.249062 
L 132.865101 239.349113 
L 133.268558 239.449165 
L 133.381526 239.549217 
L 133.413803 239.549217 
L 133.559047 240.049475 
L 133.591324 239.949424 
L 133.607462 240.149527 
L 133.623601 240.149527 
L 133.736569 240.249579 
L 133.784983 240.349631 
L 133.930228 240.649786 
L 133.978643 240.749837 
L 134.156164 241.250096 
L 134.269132 241.150044 
L 134.430515 241.250096 
L 134.559622 241.450199 
L 134.624175 241.350148 
L 134.656451 241.450199 
L 134.817834 241.350148 
L 134.930802 241.250096 
L 135.301983 241.150044 
L 135.414951 240.849889 
L 135.43109 240.949941 
L 135.818409 240.849889 
L 135.834547 240.749837 
L 135.866824 240.949941 
L 135.915238 240.849889 
L 136.044345 240.749837 
L 136.060483 240.649786 
L 136.141175 240.749837 
L 136.883536 240.649786 
L 137.028781 240.349631 
L 137.157887 240.249579 
L 137.206302 240.049475 
L 137.254717 240.249579 
L 137.367685 240.149527 
L 137.432238 239.949424 
L 137.464515 240.149527 
L 137.690451 240.049475 
L 137.819557 239.849372 
L 137.916387 239.949424 
L 138.013217 240.049475 
L 138.158461 239.74932 
L 138.707163 239.649268 
L 138.820132 239.549217 
L 139.126759 239.649268 
L 139.239727 239.74932 
L 139.772291 239.649268 
L 139.901397 239.449165 
L 139.998227 239.549217 
L 140.095057 239.449165 
L 140.111195 239.549217 
L 140.191887 239.449165 
L 140.756727 239.349113 
L 140.885833 239.14901 
L 140.966525 239.048958 
L 141.095631 238.848855 
L 141.321567 239.649268 
L 141.402259 239.74932 
L 141.531365 239.949424 
L 141.902546 239.849372 
L 142.015514 239.74932 
L 142.14462 239.649268 
L 142.257588 239.549217 
L 142.80629 239.449165 
L 142.935397 239.249062 
L 144.339429 239.349113 
L 144.468535 239.74932 
L 144.484673 239.649268 
L 144.581503 239.549217 
L 144.726748 239.849372 
L 145.049513 239.949424 
L 145.08179 240.049475 
L 145.146343 239.949424 
L 145.340003 239.849372 
L 145.469109 239.649268 
L 145.64663 239.549217 
L 145.759598 239.449165 
L 146.308301 239.349113 
L 146.388992 239.14901 
L 146.421269 239.249062 
L 147.244322 239.349113 
L 147.26046 239.449165 
L 147.341151 239.349113 
L 147.550949 239.249062 
L 147.663917 239.14901 
L 148.180343 239.249062 
L 148.309449 239.449165 
L 148.374002 239.349113 
L 148.48697 239.249062 
L 148.874289 239.14901 
L 148.890428 239.048958 
L 148.971119 239.14901 
L 149.100226 239.249062 
L 149.116364 239.349113 
L 149.164779 239.14901 
L 149.197055 239.249062 
L 149.293885 239.14901 
L 149.406853 239.048958 
L 149.697343 239.14901 
L 149.810311 239.249062 
L 149.971694 239.249062 
L 150.00397 239.048958 
L 150.084662 239.14901 
L 150.407427 239.249062 
L 150.601087 239.849372 
L 150.746332 239.549217 
L 151.085236 239.649268 
L 151.149789 239.74932 
L 151.182066 239.649268 
L 151.359587 239.549217 
L 151.375725 239.449165 
L 151.456417 239.549217 
L 151.811459 239.449165 
L 151.843736 239.349113 
L 151.908289 239.449165 
L 152.424714 239.349113 
L 152.553821 239.14901 
L 152.650651 239.048958 
L 152.715204 238.948906 
L 152.74748 239.048958 
L 152.763619 239.14901 
L 152.812033 238.948906 
L 152.828172 238.948906 
L 153.40915 238.948906 
L 153.60281 250.354803 
L 154.054682 260.960285 
L 154.425863 267.463647 
L 154.861597 273.666853 
L 154.974565 274.967526 
L 155.68465 282.471405 
L 155.894448 284.372387 
L 156.265629 287.674094 
L 156.281767 287.674094 
L 156.556118 289.77518 
L 158.62182 301.98149 
L 158.670235 302.081542 
L 158.993001 303.482266 
L 159.057554 303.582317 
L 159.299628 304.482783 
L 159.331905 304.582835 
L 159.557841 305.383248 
L 159.622394 305.4833 
L 159.832192 306.183662 
L 159.896745 306.283714 
L 160.090405 306.884024 
L 160.122681 306.984076 
L 160.300202 307.484335 
L 160.348617 307.584386 
L 160.493862 307.884541 
L 160.526139 307.984593 
L 160.70366 308.484852 
L 160.768213 308.584903 
L 160.929596 308.98511 
L 161.042564 309.085162 
L 161.187809 309.385317 
L 161.413745 309.485369 
L 161.558989 309.785524 
L 161.639681 309.885576 
L 161.768787 310.085679 
L 161.897894 310.185731 
L 162.027 310.385834 
L 162.091553 310.485886 
L 162.22066 310.68599 
L 162.285213 310.786041 
L 162.317489 310.886093 
L 162.382043 310.786041 
L 162.462734 310.886093 
L 162.59184 311.086196 
L 162.995298 311.186248 
L 163.108266 311.2863 
L 163.318064 311.386352 
L 163.431032 311.586455 
L 163.463308 311.486403 
L 163.527861 311.586455 
L 163.64083 311.686507 
L 163.931319 311.786558 
L 164.044287 311.88661 
L 164.544574 311.786558 
L 164.625266 311.686507 
L 164.641404 311.786558 
L 165.997021 311.686507 
L 166.126127 311.486403 
L 166.206818 311.586455 
L 166.222957 311.486403 
L 166.432755 311.386352 
L 166.561861 311.186248 
L 166.900765 311.086196 
L 167.013733 310.986145 
L 167.304223 310.886093 
L 167.449467 310.585938 
L 167.659265 310.485886 
L 167.772233 310.385834 
L 168.014308 310.285783 
L 168.159552 309.985628 
L 168.450042 309.885576 
L 168.56301 309.785524 
L 168.579148 309.885576 
L 168.627563 309.685472 
L 168.643701 309.785524 
L 168.756669 309.685472 
L 168.837361 309.585421 
L 168.853499 309.485369 
L 168.885775 309.685472 
L 168.93419 309.585421 
L 169.12785 309.485369 
L 169.256956 309.285266 
L 169.418339 309.185214 
L 169.499031 309.085162 
L 169.611999 301.281128 
L 169.708829 301.38118 
L 169.724967 301.481231 
L 169.805658 301.38118 
L 170.951477 301.481231 
L 170.967616 301.581283 
L 171.048307 301.481231 
L 171.790669 301.581283 
L 171.822945 301.681335 
L 171.887498 301.581283 
L 171.952052 301.481231 
L 172.048881 301.38118 
L 172.161849 301.481231 
L 172.387786 301.38118 
L 172.500754 301.281128 
L 173.162424 301.181076 
L 173.29153 300.980973 
L 174.518041 301.081024 
L 174.582594 301.181076 
L 174.61487 301.081024 
L 175.018328 301.181076 
L 175.147434 301.38118 
L 175.260402 301.281128 
L 175.389508 301.38118 
L 175.405647 301.481231 
L 175.486338 301.38118 
L 175.615445 301.481231 
L 175.712274 301.581283 
L 175.825242 301.481231 
L 175.93821 301.581283 
L 176.164147 301.681335 
L 176.277115 301.781387 
L 176.390083 301.681335 
L 176.664434 301.581283 
L 176.777402 301.481231 
L 176.938785 301.38118 
L 176.971061 301.281128 
L 177.019476 301.481231 
L 177.035615 301.38118 
L 177.616593 301.38118 
L 177.810253 286.473473 
L 178.391231 268.964422 
L 179.149731 252.856096 
L 179.82754 242.250613 
L 180.39238 236.547665 
L 180.860391 234.246476 
L 180.876529 234.246476 
L 181.021773 233.746217 
L 181.183156 233.34601 
L 181.312263 233.245958 
L 181.473646 232.845752 
L 181.505922 232.7457 
L 181.699582 232.145389 
L 181.764135 232.045338 
L 181.893241 231.845234 
L 182.328975 231.745183 
L 182.47422 231.445027 
L 182.506497 231.344976 
L 182.635603 231.144872 
L 182.716294 231.044821 
L 182.877677 230.644614 
L 182.926092 230.744665 
L 182.974507 230.844717 
L 183.022922 230.744665 
L 183.103614 230.644614 
L 183.23272 230.44451 
L 183.281135 230.344459 
L 183.442518 229.944252 
L 183.474794 229.8442 
L 183.668454 229.24389 
L 183.70073 229.143838 
L 183.845975 228.843683 
L 183.89439 228.743631 
L 184.168741 227.643062 
L 184.313986 227.54301 
L 184.523784 226.842648 
L 184.814273 226.742597 
L 184.927241 226.142286 
L 184.975656 226.34239 
L 185.072486 226.242338 
L 185.250007 225.541976 
L 185.266145 225.642028 
L 185.346837 225.541976 
L 185.492081 225.241821 
L 185.524358 225.141769 
L 186.411964 219.138666 
L 186.428102 218.538356 
L 186.444241 212.335149 
L 186.492656 76.364862 
L 186.573347 147.501634 
L 186.73473 228.343424 
L 186.944528 230.944769 
L 188.05807 243.551286 
L 188.074208 243.551286 
L 188.25173 244.451751 
L 188.461528 245.152113 
L 188.526081 245.252165 
L 188.71974 245.852475 
L 188.768155 245.952527 
L 188.929538 246.352734 
L 189.026368 246.252682 
L 189.155474 246.452785 
L 189.720315 246.352734 
L 189.849421 246.15263 
L 190.091495 246.052579 
L 190.220602 245.852475 
L 190.285155 245.752423 
L 190.414261 245.55232 
L 190.4304 245.652372 
L 190.494953 245.452268 
L 190.591783 245.352217 
L 190.704751 245.252165 
L 190.89841 245.152113 
L 191.011378 245.052061 
L 191.140485 244.95201 
L 191.285729 244.651854 
L 191.46325 244.551803 
L 191.624633 244.151596 
L 192.205612 244.051544 
L 192.334718 243.851441 
L 192.41541 243.751389 
L 192.544516 243.351182 
L 192.560655 243.451234 
L 192.609069 243.351182 
L 192.625208 243.25113 
L 192.705899 243.351182 
L 192.835006 243.25113 
L 192.899559 243.151079 
L 192.931835 243.25113 
L 193.238463 243.151079 
L 193.367569 242.950975 
L 193.512814 242.850924 
L 193.64192 242.65082 
L 193.916271 242.550768 
L 194.061516 242.250613 
L 194.448835 242.150561 
L 194.577941 241.950458 
L 194.723186 241.850406 
L 194.884569 241.450199 
L 194.981399 241.350148 
L 195.110505 241.150044 
L 195.271888 241.049993 
L 195.35258 240.849889 
L 195.384856 240.949941 
L 195.465548 240.849889 
L 195.594654 240.649786 
L 195.885143 240.549734 
L 195.998111 240.449682 
L 196.094941 240.349631 
L 196.256324 239.949424 
L 196.353154 240.049475 
L 196.449984 239.949424 
L 196.546813 240.049475 
L 196.67592 239.849372 
L 197.14393 239.74932 
L 197.160069 239.649268 
L 197.224622 239.849372 
L 197.402143 239.949424 
L 197.579664 240.549734 
L 197.628079 240.449682 
L 197.660356 240.649786 
L 197.724909 240.749837 
L 197.821739 240.949941 
L 197.837877 240.849889 
L 197.950845 240.949941 
L 198.09609 241.250096 
L 198.467271 241.150044 
L 198.483409 241.049993 
L 198.5641 241.150044 
L 198.644792 241.049993 
L 198.790036 240.749837 
L 198.935281 240.649786 
L 199.080526 240.349631 
L 199.193494 240.249579 
L 199.354877 239.849372 
L 199.41943 239.74932 
L 199.548536 239.549217 
L 199.661504 239.649268 
L 199.790611 239.549217 
L 199.919717 239.349113 
L 199.98427 239.249062 
L 200.048824 239.048958 
L 200.097238 239.14901 
L 200.516834 239.048958 
L 200.662079 238.648751 
L 200.710494 238.748803 
L 200.758908 238.648751 
L 200.871877 238.5487 
L 201.000983 238.348596 
L 201.065536 238.248544 
L 201.210781 237.948389 
L 201.372164 237.848338 
L 201.485132 237.748286 
L 201.646515 237.648234 
L 201.775621 237.448131 
L 202.130664 237.348079 
L 202.195217 237.248027 
L 202.227493 237.348079 
L 202.3566 237.248027 
L 202.485706 237.047924 
L 202.550259 236.947872 
L 202.711642 236.547665 
L 202.969855 236.447613 
L 203.098961 236.24751 
L 203.728355 236.347562 
L 203.792908 236.547665 
L 203.841323 236.447613 
L 204.083397 236.547665 
L 204.14795 236.647717 
L 204.180227 236.547665 
L 204.632099 236.447613 
L 204.728929 236.24751 
L 204.745067 236.347562 
L 204.809621 236.24751 
L 204.938727 236.047407 
L 205.019418 236.147458 
L 205.116248 236.24751 
L 205.164663 236.147458 
L 205.19694 236.347562 
L 205.213078 236.24751 
L 205.261493 236.347562 
L 205.358323 236.547665 
L 205.374461 236.447613 
L 206.052269 236.547665 
L 206.197514 236.84782 
L 206.455727 236.947872 
L 206.584833 237.147975 
L 206.665525 237.248027 
L 206.810769 237.548182 
L 207.343333 237.448131 
L 207.359471 237.348079 
L 207.440163 237.448131 
L 207.666099 237.548182 
L 207.682237 237.648234 
L 207.762929 237.548182 
L 208.021141 237.448131 
L 208.150248 237.248027 
L 208.198663 237.147975 
L 208.360046 236.747769 
L 208.473014 236.647717 
L 208.585982 236.547665 
L 208.924886 236.447613 
L 209.053992 236.24751 
L 209.215375 236.147458 
L 209.344482 235.947355 
L 209.538141 235.847303 
L 209.683386 235.547148 
L 209.715662 235.447096 
L 209.844769 235.246993 
L 210.054567 235.146941 
L 210.11912 235.046889 
L 210.151396 235.146941 
L 210.264364 235.246993 
L 210.393471 235.447096 
L 211.055141 235.347045 
L 211.200385 235.046889 
L 211.329492 234.946838 
L 211.458598 234.746734 
L 211.652258 234.646682 
L 211.749088 234.546631 
L 211.781364 234.646682 
L 211.829779 234.446579 
L 211.845917 234.546631 
L 211.991162 234.246476 
L 212.168683 234.346527 
L 212.313928 234.646682 
L 212.410758 234.546631 
L 212.475311 234.346527 
L 212.507587 234.446579 
L 212.556002 234.546631 
L 212.588279 234.446579 
L 212.636694 234.346527 
L 212.685109 234.446579 
L 212.846492 234.846786 
L 213.185396 234.746734 
L 213.217672 234.646682 
L 213.266087 234.846786 
L 213.556577 234.746734 
L 213.653406 234.646682 
L 213.750236 234.746734 
L 213.927757 234.246476 
L 214.024587 234.146424 
L 214.073002 233.94632 
L 214.137555 234.046372 
L 214.2828 233.94632 
L 214.395768 233.846269 
L 214.589427 233.746217 
L 214.718534 233.546114 
L 214.84764 233.646165 
L 214.879917 233.746217 
L 214.928332 233.546114 
L 215.202683 233.446062 
L 215.315651 233.34601 
L 215.493172 233.446062 
L 215.557725 233.546114 
L 215.590002 233.446062 
L 215.751385 233.546114 
L 215.767523 233.646165 
L 215.848214 233.546114 
L 215.945044 233.446062 
L 216.122566 232.945803 
L 216.187119 232.845752 
L 216.300087 232.545596 
L 216.316225 232.645648 
L 216.46147 232.545596 
L 216.606714 232.245441 
L 216.622853 232.345493 
L 216.703544 232.245441 
L 216.92948 232.145389 
L 216.977895 232.045338 
L 217.02631 232.145389 
L 217.042448 232.245441 
L 217.12314 232.145389 
L 217.704118 232.245441 
L 217.817087 232.345493 
L 218.204406 232.345493 
L 218.34965 232.845752 
L 218.656278 232.7457 
L 218.769246 232.645648 
L 218.962905 232.7457 
L 219.027459 232.645648 
L 219.075874 232.845752 
L 219.140427 232.7457 
L 219.172703 232.845752 
L 219.511608 232.945803 
L 219.640714 233.145907 
L 219.915065 233.245958 
L 220.124863 233.94632 
L 220.205554 234.046372 
L 220.350799 234.346527 
L 220.479905 234.146424 
L 221.125437 234.046372 
L 221.141575 233.94632 
L 221.222267 234.046372 
L 221.270682 233.94632 
L 221.415926 233.646165 
L 221.722554 233.546114 
L 221.85166 233.34601 
L 221.900075 233.34601 
L 222.029182 232.945803 
L 222.077596 232.845752 
L 222.158288 232.545596 
L 222.206703 232.645648 
L 222.739267 232.545596 
L 222.868373 232.345493 
L 222.916788 232.245441 
L 223.045894 232.045338 
L 223.142724 231.945286 
L 223.287969 231.645131 
L 223.384798 231.545079 
L 223.513905 231.344976 
L 223.626873 231.244924 
L 223.836671 230.544562 
L 223.981915 230.44451 
L 224.046468 230.244407 
L 224.094883 230.344459 
L 224.256266 230.744665 
L 224.320819 230.644614 
L 224.385373 230.544562 
L 224.417649 230.644614 
L 224.498341 230.744665 
L 224.514479 230.844717 
L 224.579032 230.744665 
L 224.59517 230.644614 
L 224.643585 230.844717 
L 224.659724 230.844717 
L 224.740415 230.944769 
L 224.869522 231.144872 
L 225.127734 231.044821 
L 225.240702 230.944769 
L 225.289117 231.044821 
L 225.305255 231.144872 
L 225.35367 230.944769 
L 225.369809 230.944769 
L 225.54733 231.044821 
L 225.676436 231.244924 
L 225.740989 231.144872 
L 225.853958 231.044821 
L 226.031479 230.944769 
L 226.289691 229.944252 
L 226.660872 229.8442 
L 226.806117 229.544045 
L 227.06433 229.644097 
L 227.096606 229.744148 
L 227.145021 229.644097 
L 227.257989 229.443993 
L 227.370957 229.644097 
L 227.548479 229.143838 
L 227.661447 229.043786 
L 227.677585 228.943734 
L 227.758276 229.043786 
L 227.855106 229.24389 
L 227.871244 229.143838 
L 228.048766 229.043786 
L 228.097181 228.943734 
L 228.145595 229.043786 
L 228.419946 228.943734 
L 228.532915 228.843683 
L 228.565191 228.743631 
L 228.694297 228.543528 
L 228.823404 228.443476 
L 228.871819 228.243372 
L 228.920234 228.343424 
L 229.000925 228.443476 
L 229.017063 228.343424 
L 229.097755 228.243372 
L 229.243 227.943217 
L 229.307553 227.843166 
L 229.452797 227.54301 
L 229.630319 227.643062 
L 229.646457 227.743114 
L 229.71101 227.54301 
L 230.082191 227.442959 
L 230.098329 227.342907 
L 230.162882 227.54301 
L 230.905244 227.442959 
L 231.179595 226.34239 
L 231.22801 226.242338 
L 231.389393 225.842131 
L 231.437808 225.742079 
L 231.921957 223.340838 
L 232.002648 223.240786 
L 232.115616 222.140218 
L 232.164031 220.839545 
L 232.180169 217.137632 
L 232.244722 75.264293 
L 232.309276 141.698635 
L 232.470659 227.242855 
L 232.535212 228.043269 
L 232.599765 227.843166 
L 232.74501 227.54301 
L 233.035499 229.944252 
L 233.551924 235.146941 
L 233.584201 235.246993 
L 233.826275 236.947872 
L 234.504084 240.549734 
L 234.584775 240.649786 
L 234.762296 241.150044 
L 234.82685 241.250096 
L 234.988233 241.650303 
L 235.020509 241.750355 
L 235.181892 242.150561 
L 235.19803 242.05051 
L 235.230307 242.250613 
L 235.262584 242.250613 
L 235.359413 242.350665 
L 235.504658 242.65082 
L 235.601488 242.750872 
L 235.730594 242.950975 
L 235.908115 243.051027 
L 236.021083 243.151079 
L 236.117913 243.25113 
L 236.263158 243.551286 
L 236.279296 243.451234 
L 236.343849 243.551286 
L 236.505232 243.951492 
L 236.876413 243.851441 
L 237.005519 243.651337 
L 237.070073 243.851441 
L 237.118488 243.751389 
L 237.231456 243.651337 
L 237.392839 243.551286 
L 237.521945 243.351182 
L 237.683328 243.25113 
L 237.844711 242.850924 
L 237.957679 242.750872 
L 238.070647 242.65082 
L 238.167477 242.550768 
L 238.296583 242.350665 
L 238.474104 242.250613 
L 238.554796 242.05051 
L 238.587072 242.150561 
L 238.667764 242.05051 
L 238.780732 241.950458 
L 238.845285 241.850406 
L 238.942115 241.750355 
L 238.958253 241.850406 
L 239.022806 241.650303 
L 239.151913 241.550251 
L 239.297157 241.250096 
L 239.361711 241.150044 
L 239.490817 240.949941 
L 239.732891 240.849889 
L 239.845859 240.749837 
L 240.152487 240.649786 
L 240.265455 240.549734 
L 240.572083 240.449682 
L 240.685051 240.349631 
L 240.959402 240.249579 
L 241.088508 240.049475 
L 241.459689 239.949424 
L 241.588795 239.74932 
L 241.717902 239.649268 
L 241.847008 239.449165 
L 241.895423 239.349113 
L 242.008391 239.249062 
L 242.169774 239.349113 
L 242.363433 253.956664 
L 242.799167 266.062923 
L 243.234901 274.167112 
L 243.654497 280.070163 
L 243.767465 281.370836 
L 244.396859 287.874197 
L 244.606657 289.77518 
L 244.945561 292.67668 
L 246.430284 301.281128 
L 246.46256 301.38118 
L 246.769188 302.681852 
L 246.801465 302.781904 
L 247.108092 304.082576 
L 247.172645 304.182628 
L 247.382443 304.88299 
L 247.41472 304.983042 
L 247.624518 305.683404 
L 247.672933 305.783455 
L 247.898869 306.583869 
L 247.963422 306.683921 
L 248.157081 307.284231 
L 248.221635 307.384283 
L 248.383018 307.78449 
L 248.463709 307.884541 
L 248.64123 308.3848 
L 248.721922 308.484852 
L 248.867166 308.785007 
L 248.996273 308.885059 
L 249.141517 309.185214 
L 249.189932 309.285266 
L 249.335177 309.585421 
L 249.544975 309.685472 
L 249.674081 309.885576 
L 249.722496 309.985628 
L 249.851602 310.185731 
L 249.964571 310.285783 
L 250.093677 310.485886 
L 250.384166 310.585938 
L 250.497134 310.68599 
L 250.593964 310.786041 
L 250.610102 310.886093 
L 250.690794 310.786041 
L 250.884453 310.886093 
L 250.997421 310.986145 
L 251.255634 311.086196 
L 251.271772 311.186248 
L 251.336326 311.086196 
L 251.368602 310.986145 
L 251.433155 311.086196 
L 251.836613 311.186248 
L 251.852751 311.2863 
L 251.933443 311.186248 
L 252.046411 311.086196 
L 252.546698 310.986145 
L 252.562836 310.886093 
L 252.643528 310.986145 
L 252.853325 310.886093 
L 252.982432 310.68599 
L 253.724793 310.585938 
L 253.821623 310.485886 
L 253.934591 310.585938 
L 254.176666 310.485886 
L 254.305772 310.285783 
L 254.741506 310.185731 
L 254.789921 309.985628 
L 254.838336 310.185731 
L 255.015857 310.085679 
L 255.031995 309.985628 
L 255.096548 310.185731 
L 255.112687 310.085679 
L 255.354761 309.985628 
L 255.467729 309.885576 
L 255.709804 309.785524 
L 255.822772 309.685472 
L 256.000293 309.585421 
L 256.129399 309.385317 
L 256.242367 309.485369 
L 256.419889 309.385317 
L 256.548995 309.185214 
L 256.774931 309.085162 
L 256.791069 308.98511 
L 256.871761 309.085162 
L 256.968591 308.98511 
L 257.081559 308.885059 
L 257.129974 308.785007 
L 257.25908 308.584903 
L 257.517293 308.484852 
L 257.630261 308.3848 
L 258.01758 308.284748 
L 258.146686 308.084645 
L 258.162824 308.184697 
L 258.243516 308.084645 
L 258.259654 308.084645 
L 258.372622 302.281645 
L 259.647548 302.381697 
L 259.679824 302.481749 
L 259.744377 302.381697 
L 260.244665 302.281645 
L 260.276941 302.081542 
L 260.341494 302.281645 
L 261.42276 302.381697 
L 261.471175 302.481749 
L 261.503452 302.381697 
L 261.51959 302.281645 
L 261.600281 302.381697 
L 262.616994 302.281645 
L 262.649271 302.181593 
L 262.713824 302.281645 
L 263.230249 302.381697 
L 263.246387 302.481749 
L 263.327079 302.381697 
L 264.16627 302.481749 
L 264.214685 302.5818 
L 264.2631 302.481749 
L 264.392206 302.5818 
L 264.505175 302.681852 
L 266.377217 302.681852 
L 266.570876 280.270267 
L 267.151855 253.956664 
L 268.265397 222.84058 
L 268.507472 219.538873 
L 268.846376 212.435201 
L 268.910929 74.864086 
L 268.991621 162.509392 
L 269.153004 228.143321 
L 269.18528 228.443476 
L 269.233695 228.043269 
L 269.395078 227.242855 
L 269.572599 227.743114 
L 269.604876 227.843166 
L 269.798535 228.443476 
L 269.814674 228.343424 
L 269.863089 228.643579 
L 269.94378 228.743631 
L 270.089025 229.043786 
L 270.282684 229.143838 
L 270.395652 229.343941 
L 270.524759 229.143838 
L 270.653865 229.143838 
L 270.782971 229.443993 
L 270.79911 229.544045 
L 270.879801 229.443993 
L 271.008907 229.24389 
L 271.154152 229.343941 
L 271.218705 229.544045 
L 271.26712 229.443993 
L 271.428503 229.043786 
L 271.444641 229.143838 
L 271.525333 229.043786 
L 271.638301 228.943734 
L 271.702854 228.843683 
L 271.896514 228.243372 
L 272.009482 228.143321 
L 272.283833 227.042752 
L 272.299971 227.142803 
L 272.380663 227.042752 
L 272.445216 227.042752 
L 272.59046 226.542493 
L 272.816397 225.742079 
L 272.88095 225.642028 
L 273.090748 224.941666 
L 273.123024 224.841614 
L 273.25213 224.641511 
L 273.300545 224.741562 
L 273.461928 225.141769 
L 273.526482 225.241821 
L 273.671726 225.541976 
L 273.800833 225.642028 
L 273.865386 225.742079 
L 273.881524 225.642028 
L 274.075184 225.041717 
L 274.172013 224.941666 
L 274.414088 224.0412 
L 274.446364 223.941148 
L 274.623886 223.44089 
L 274.704577 223.540942 
L 274.752992 223.640993 
L 274.785269 223.44089 
L 274.801407 223.540942 
L 274.86596 223.44089 
L 274.946651 223.240786 
L 274.96279 223.340838 
L 275.043481 223.44089 
L 275.05962 223.340838 
L 275.172588 223.240786 
L 275.350109 222.740528 
L 275.495354 222.640476 
L 275.753566 221.539907 
L 275.801981 221.639959 
L 275.834258 221.539907 
L 276.027917 220.939597 
L 276.060194 220.839545 
L 276.140885 220.939597 
L 276.1893 220.639442 
L 276.221577 220.53939 
L 276.399098 219.638925 
L 276.641172 218.638407 
L 276.657311 218.738459 
L 276.705726 218.538356 
L 277.04463 215.937011 
L 277.286704 211.934942 
L 277.351257 71.762483 
L 277.431949 147.601686 
L 277.593332 224.441407 
L 277.754715 225.942183 
L 278.206587 229.343941 
L 278.448662 231.144872 
L 278.480938 231.244924 
L 278.868257 233.145907 
L 278.900534 233.045855 
L 278.93281 233.245958 
L 278.948949 233.245958 
L 279.094193 233.546114 
L 279.158747 233.646165 
L 279.287853 233.846269 
L 279.320129 233.94632 
L 279.433098 234.046372 
L 279.69131 233.94632 
L 279.836555 233.646165 
L 280.014076 233.546114 
L 280.223874 232.845752 
L 280.54664 232.7457 
L 280.64347 232.645648 
L 280.659608 232.7457 
L 280.740299 232.645648 
L 280.804853 232.545596 
L 280.820991 232.445545 
L 280.885544 232.645648 
L 280.901682 232.545596 
L 281.079204 232.445545 
L 281.192172 232.345493 
L 281.563353 232.245441 
L 281.708597 231.945286 
L 281.789289 232.045338 
L 281.805427 231.945286 
L 282.241161 231.845234 
L 282.370267 231.645131 
L 282.483235 231.545079 
L 282.612342 231.344976 
L 282.951246 231.244924 
L 283.096491 230.944769 
L 283.403118 230.844717 
L 283.532225 230.644614 
L 283.85499 230.544562 
L 284.000235 230.244407 
L 284.04865 230.144355 
L 284.210033 229.744148 
L 284.24231 229.644097 
L 284.387554 229.343941 
L 284.484384 229.24389 
L 284.71032 228.443476 
L 284.90398 228.343424 
L 285.033086 228.143321 
L 285.065363 228.043269 
L 285.259022 227.442959 
L 285.307437 227.342907 
L 285.420405 227.242855 
L 285.46882 227.142803 
L 285.662479 226.542493 
L 285.678618 226.642545 
L 285.743171 226.442441 
L 285.823862 226.34239 
L 285.985245 225.942183 
L 286.146628 225.842131 
L 286.308011 225.441924 
L 286.437118 225.642028 
L 286.517809 225.541976 
L 286.550086 225.441924 
L 286.598501 225.541976 
L 286.711469 225.642028 
L 286.743745 225.541976 
L 286.856713 225.441924 
L 287.486107 225.341873 
L 287.582937 225.141769 
L 287.599075 225.241821 
L 287.760458 225.141769 
L 288.067085 223.841097 
L 288.341436 223.741045 
L 288.486681 223.340838 
L 288.567373 223.640993 
L 288.615788 223.540942 
L 288.809447 222.940631 
L 288.841724 222.84058 
L 288.97083 222.640476 
L 289.132213 223.040683 
L 289.245181 223.140735 
L 289.374287 223.340838 
L 289.567947 223.240786 
L 289.810021 222.340321 
L 289.987543 222.240269 
L 290.342585 220.639442 
L 290.358723 220.739493 
L 290.391 220.53939 
L 290.439415 220.639442 
L 290.552383 220.53939 
L 290.665351 220.439338 
L 290.697628 220.339287 
L 290.842872 220.039131 
L 290.907425 219.93908 
L 291.004255 219.738976 
L 291.020394 219.839028 
L 291.05267 219.738976 
L 291.197915 219.438821 
L 291.230191 219.338769 
L 292.069383 213.735873 
L 292.101659 210.63427 
L 292.166212 72.162689 
L 292.230766 133.194239 
L 292.408287 223.741045 
L 292.553532 224.541459 
L 292.634223 224.641511 
L 293.376585 228.643579 
L 293.424999 228.743631 
L 293.780042 230.344459 
L 293.844595 230.44451 
L 294.054393 231.244924 
L 294.070531 231.144872 
L 294.118946 231.344976 
L 294.135084 231.344976 
L 294.248053 231.445027 
L 294.377159 231.645131 
L 294.490127 231.545079 
L 294.667648 231.645131 
L 294.812893 231.945286 
L 294.877446 232.045338 
L 294.990414 232.145389 
L 295.11952 232.245441 
L 295.21635 232.345493 
L 295.345457 232.145389 
L 295.571393 232.045338 
L 295.732776 231.645131 
L 295.797329 231.545079 
L 295.926435 231.344976 
L 295.990988 231.244924 
L 296.120095 231.044821 
L 296.200786 230.944769 
L 296.378308 230.44451 
L 296.555829 230.344459 
L 296.571967 230.244407 
L 296.652659 230.344459 
L 296.83018 230.844717 
L 297.346605 230.744665 
L 297.507988 230.344459 
L 297.717786 230.244407 
L 297.927584 229.544045 
L 298.040552 229.443993 
L 298.15352 229.143838 
L 298.169658 229.24389 
L 298.234211 229.143838 
L 298.444009 228.443476 
L 298.524701 228.343424 
L 298.637669 228.143321 
L 298.653807 228.243372 
L 298.702222 228.043269 
L 298.71836 228.043269 
L 298.976573 227.042752 
L 299.057265 226.9427 
L 299.267062 226.242338 
L 299.315477 226.142286 
L 299.347754 226.042235 
L 299.412307 226.142286 
L 299.912594 226.042235 
L 300.041701 225.842131 
L 300.073977 225.742079 
L 300.170807 225.541976 
L 300.186945 225.642028 
L 300.219222 225.742079 
L 300.267637 225.541976 
L 300.541988 225.441924 
L 300.671094 225.241821 
L 300.735647 225.341873 
L 300.767924 225.241821 
L 300.961583 225.141769 
L 301.139105 224.641511 
L 301.155243 224.741562 
L 301.203658 224.541459 
L 301.219796 224.541459 
L 301.397317 224.441407 
L 301.526424 224.241304 
L 301.816913 224.341355 
L 301.929881 224.441407 
L 302.139679 224.541459 
L 302.284924 224.841614 
L 302.397892 224.741562 
L 302.51086 224.841614 
L 302.672243 224.341355 
L 302.752934 224.541459 
L 302.785211 224.441407 
L 302.849764 224.341355 
L 303.027285 223.841097 
L 303.091838 223.741045 
L 303.26936 223.240786 
L 303.333913 223.140735 
L 303.479157 222.84058 
L 303.575987 222.740528 
L 303.721232 222.440373 
L 303.850338 222.340321 
L 304.011721 221.940114 
L 304.108551 221.840062 
L 304.286072 221.339804 
L 304.528147 221.239752 
L 304.608838 220.939597 
L 304.657253 221.039649 
L 304.721806 221.039649 
L 304.818636 220.639442 
L 304.850912 220.739493 
L 304.899327 220.739493 
L 305.06071 219.839028 
L 305.109125 219.93908 
L 305.125263 219.839028 
L 305.270508 219.338769 
L 305.367338 219.238718 
L 305.560997 218.638407 
L 305.609412 218.538356 
L 306.190391 214.436235 
L 306.351774 210.734321 
L 306.416327 72.662948 
L 306.497019 147.901841 
L 306.658402 223.240786 
L 306.739093 224.0412 
L 306.787508 223.841097 
L 306.932753 223.44089 
L 306.948891 223.540942 
L 306.997306 223.340838 
L 307.029582 223.44089 
L 307.207104 223.540942 
L 307.820359 226.742597 
L 307.868774 226.842648 
L 308.046295 227.342907 
L 308.110848 227.442959 
L 308.304508 228.543528 
L 308.465891 228.943734 
L 308.788657 228.843683 
L 308.885486 228.743631 
L 308.998454 228.843683 
L 309.095284 228.943734 
L 309.22439 229.143838 
L 309.337359 229.043786 
L 309.466465 229.143838 
L 309.579433 229.24389 
L 309.708539 229.043786 
L 309.756954 228.943734 
L 309.789231 228.843683 
L 309.853784 228.943734 
L 310.111997 229.043786 
L 310.224965 229.143838 
L 310.499316 229.043786 
L 310.628422 228.843683 
L 310.967326 228.743631 
L 311.096433 228.543528 
L 311.160986 228.443476 
L 311.322369 228.043269 
L 311.354645 227.943217 
L 311.532167 227.442959 
L 311.564443 227.342907 
L 311.709688 227.042752 
L 311.919486 226.9427 
L 312.032454 226.842648 
L 312.306805 226.742597 
L 312.468188 226.34239 
L 312.532741 226.242338 
L 312.694124 225.842131 
L 312.903922 225.742079 
L 313.033028 225.541976 
L 313.081443 225.441924 
L 313.210549 225.241821 
L 313.355794 225.141769 
L 313.371932 225.041717 
L 313.452624 225.141769 
L 313.67856 225.041717 
L 313.743113 225.141769 
L 313.823805 224.741562 
L 313.936773 224.641511 
L 314.049741 224.541459 
L 314.43706 224.441407 
L 314.646858 223.741045 
L 314.743687 223.640993 
L 314.856655 223.340838 
L 314.872794 223.44089 
L 314.985762 223.340838 
L 315.163283 222.84058 
L 315.243975 222.740528 
L 315.405358 222.340321 
L 315.599017 222.240269 
L 315.728123 221.940114 
L 315.744262 222.040166 
L 315.824953 221.940114 
L 315.937921 221.740011 
L 316.583453 225.141769 
L 316.793251 225.041717 
L 316.809389 224.941666 
L 316.873942 225.041717 
L 316.890081 225.141769 
L 316.938496 224.941666 
L 316.954634 224.941666 
L 317.164432 224.841614 
L 317.2774 224.641511 
L 317.406506 224.841614 
L 317.713134 224.741562 
L 317.826102 224.641511 
L 317.874517 224.541459 
L 318.197283 223.040683 
L 318.213421 223.140735 
L 318.261836 222.940631 
L 318.294112 223.040683 
L 318.713708 221.039649 
L 318.745985 220.939597 
L 318.988059 220.039131 
L 319.020336 220.039131 
L 319.197857 219.038614 
L 319.310825 219.038614 
L 319.472208 218.338252 
L 319.633591 216.737425 
L 319.859527 212.635304 
L 319.891804 145.300497 
L 319.92408 73.96362 
L 319.988633 121.288084 
L 320.166155 220.839545 
L 320.246846 221.740011 
L 320.295261 221.439855 
L 320.359814 221.539907 
L 320.553474 222.140218 
L 320.666442 222.240269 
L 320.811686 222.540424 
L 320.87624 222.640476 
L 321.279697 224.541459 
L 321.328112 224.641511 
L 321.489495 225.041717 
L 321.53791 225.141769 
L 321.667016 225.341873 
L 321.796122 225.441924 
L 321.925229 225.642028 
L 321.989782 225.742079 
L 322.135027 226.042235 
L 322.29641 226.142286 
L 322.441654 226.442441 
L 322.473931 226.34239 
L 322.538484 226.442441 
L 322.66759 226.642545 
L 322.76442 226.742597 
L 322.974218 227.442959 
L 323.006495 227.54301 
L 323.119463 227.643062 
L 323.652026 227.54301 
L 323.764994 227.342907 
L 323.797271 227.442959 
L 323.861824 227.342907 
L 323.910239 227.242855 
L 324.023207 226.9427 
L 324.039345 227.042752 
L 324.152314 226.9427 
L 324.168452 226.842648 
L 324.200728 227.042752 
L 324.216867 227.042752 
L 324.265282 227.142803 
L 324.313696 227.042752 
L 324.426665 226.842648 
L 324.539633 226.9427 
L 324.555771 226.842648 
L 324.636462 226.9427 
L 324.765569 227.042752 
L 324.830122 227.142803 
L 324.862399 227.042752 
L 325.023781 227.142803 
L 325.056058 227.242855 
L 325.120611 227.142803 
L 325.685452 227.042752 
L 325.814558 226.842648 
L 325.895249 226.742597 
L 326.024356 226.542493 
L 326.185739 226.442441 
L 326.347122 226.042235 
L 326.395537 225.942183 
L 326.540781 225.441924 
L 326.589196 225.341873 
L 326.750579 224.941666 
L 326.782856 224.841614 
L 326.911962 224.641511 
L 326.992653 224.541459 
L 327.137898 224.241304 
L 327.21859 224.141252 
L 327.299281 224.0412 
L 327.315419 224.141252 
L 327.58977 224.0412 
L 327.638185 223.941148 
L 327.6866 224.0412 
L 327.767292 223.941148 
L 327.944813 223.44089 
L 328.186887 223.340838 
L 328.412823 222.540424 
L 328.493515 222.540424 
L 328.622621 221.940114 
L 328.63876 222.040166 
L 328.961525 222.140218 
L 328.977664 222.240269 
L 329.00994 222.040166 
L 329.042217 222.040166 
L 329.219738 221.940114 
L 329.332706 221.539907 
L 329.364983 221.639959 
L 329.413398 221.539907 
L 329.590919 221.039649 
L 329.703887 221.1397 
L 329.86527 221.039649 
L 329.9621 220.53939 
L 330.010515 220.739493 
L 330.091206 221.039649 
L 330.123483 220.839545 
L 330.204174 220.739493 
L 330.397834 220.139183 
L 330.43011 220.239235 
L 330.478525 220.039131 
L 330.688323 220.039131 
L 330.833568 219.538873 
L 330.930398 219.538873 
L 331.124057 242.450717 
L 331.495238 258.659095 
L 332.076216 273.266646 
L 332.786301 284.472439 
L 333.528663 292.376525 
L 335.142493 301.781387 
L 335.174769 301.781387 
L 335.336152 302.5818 
L 335.35229 302.5818 
L 335.529812 303.482266 
L 335.933269 305.383248 
L 335.965546 305.4833 
L 336.191482 306.283714 
L 336.239897 306.383766 
L 336.433556 306.984076 
L 336.465833 307.084128 
L 336.594939 307.284231 
L 336.675631 307.384283 
L 336.853152 307.884541 
L 336.917705 307.984593 
L 337.079088 308.484852 
L 337.111365 308.3848 
L 337.127503 308.584903 
L 337.159779 308.584903 
L 337.321162 308.98511 
L 337.385716 309.085162 
L 337.547099 309.485369 
L 337.660067 309.585421 
L 337.82145 309.985628 
L 337.950556 310.085679 
L 338.079662 310.385834 
L 338.095801 310.285783 
L 338.144215 310.485886 
L 338.160354 310.385834 
L 338.305598 310.68599 
L 338.434705 310.786041 
L 338.563811 310.986145 
L 338.741332 311.086196 
L 338.838162 311.186248 
L 338.934992 311.086196 
L 338.983407 311.186248 
L 339.031822 311.086196 
L 339.306173 310.986145 
L 339.386864 310.886093 
L 339.403002 310.986145 
L 340.758619 310.886093 
L 340.887726 310.68599 
L 341.049109 310.585938 
L 341.194353 310.285783 
L 341.258906 310.185731 
L 341.388013 309.985628 
L 341.565534 309.885576 
L 341.69464 309.685472 
L 341.79147 309.785524 
L 341.904438 309.685472 
L 342.630662 309.585421 
L 342.6468 309.485369 
L 342.679076 309.685472 
L 342.711353 309.685472 
L 342.888874 309.585421 
L 343.001842 309.485369 
L 343.760342 309.385317 
L 343.792619 309.285266 
L 343.857172 309.385317 
L 343.97014 309.285266 
L 344.050831 309.185214 
L 344.06697 309.285266 
L 344.228353 309.185214 
L 344.341321 309.085162 
L 344.680225 308.98511 
L 344.696363 308.885059 
L 344.777055 308.98511 
L 344.922299 308.885059 
L 345.035268 308.785007 
L 345.600108 308.684955 
L 345.616246 308.584903 
L 345.696938 308.684955 
L 345.793767 308.584903 
L 345.906735 308.484852 
L 346.068118 308.3848 
L 346.181086 308.184697 
L 346.213363 308.284748 
L 346.261778 308.184697 
L 346.374746 308.084645 
L 346.568406 307.984593 
L 346.584544 307.884541 
L 346.665235 307.984593 
L 346.971863 307.884541 
L 347.100969 307.684438 
L 347.940161 307.78449 
L 347.972437 307.884541 
L 348.03699 307.78449 
L 349.666958 307.884541 
L 349.683097 307.984593 
L 349.763788 307.884541 
L 351.16782 307.984593 
L 351.264649 308.084645 
L 351.361479 307.984593 
L 351.393756 308.084645 
L 351.442171 307.984593 
L 351.539 307.884541 
L 351.555139 307.984593 
L 351.63583 307.884541 
L 352.362054 307.984593 
L 352.475022 308.084645 
L 353.072139 307.984593 
L 353.088277 307.884541 
L 353.168968 307.984593 
L 353.362628 307.884541 
L 353.394904 307.78449 
L 353.443319 307.984593 
L 353.524011 307.884541 
L 353.572426 307.78449 
L 353.604702 307.884541 
L 353.669255 307.984593 
L 353.701532 307.884541 
L 354.702106 307.78449 
L 354.815074 307.684438 
L 354.831213 307.78449 
L 354.879628 307.584386 
L 354.895766 307.684438 
L 355.008734 307.584386 
L 355.13784 307.484335 
L 355.3315 263.56163 
L 355.79951 219.038614 
L 355.89634 202.53008 
L 355.944755 69.26119 
L 356.009308 135.895635 
L 356.154553 217.03758 
L 356.170691 216.837476 
L 356.364351 209.333597 
L 356.800085 195.826615 
L 356.864638 72.262741 
L 356.945329 134.494911 
L 357.122851 209.333597 
L 357.284234 211.134528 
L 357.477893 211.734839 
L 357.590861 211.734839 
L 357.703829 212.135046 
L 357.719968 212.034994 
L 357.865212 211.934942 
L 358.17184 210.63427 
L 358.236393 210.534218 
L 358.73668 206.832304 
L 359.043308 201.829718 
L 359.172414 194.826098 
L 359.236967 68.260672 
L 359.30152 118.486636 
L 359.49518 209.633753 
L 359.672701 212.535252 
L 359.898637 213.435718 
L 359.930914 213.335666 
L 359.995467 213.435718 
L 360.237542 213.335666 
L 360.511893 212.235097 
L 360.640999 212.135046 
L 360.834658 211.334632 
L 360.850797 211.434683 
L 360.947627 211.334632 
L 361.092871 210.834373 
L 361.10901 210.934425 
L 361.173563 210.834373 
L 361.318807 210.534218 
L 361.351084 210.434166 
L 361.625435 209.333597 
L 361.706126 209.233546 
L 361.867509 208.833339 
L 361.883648 208.833339 
L 362.028892 208.233028 
L 362.125722 208.132977 
L 362.416211 206.932356 
L 362.496903 206.832304 
L 363.223126 202.930287 
L 363.255403 202.830236 
L 363.545892 199.228374 
L 363.56203 197.327391 
L 363.626584 66.96 
L 363.707275 130.592894 
L 363.884796 208.33308 
L 364.046179 210.934425 
L 364.143009 211.034477 
L 364.272115 211.23458 
L 364.32053 211.334632 
L 364.352807 211.534735 
L 364.433498 211.434683 
L 364.449637 211.334632 
L 364.51419 211.434683 
L 364.594881 211.634787 
L 364.627158 211.534735 
L 364.836956 211.634787 
L 364.853094 211.734839 
L 364.885371 211.534735 
L 364.917647 211.534735 
L 365.159722 210.63427 
L 365.17586 210.63427 
L 365.337243 209.833856 
L 365.595456 209.733804 
L 366.240987 206.332046 
L 366.321679 206.432097 
L 366.370094 206.632201 
L 366.40237 206.432097 
L 366.757413 204.83127 
L 366.821966 204.83127 
L 366.967211 204.23096 
L 367.015626 204.431063 
L 367.06404 204.23096 
L 367.193147 204.130908 
L 367.91937 199.128322 
L 367.983923 196.927184 
L 368.0162 149.102462 
L 368.064615 68.360724 
L 368.129168 116.185446 
L 368.338966 207.332563 
L 368.516487 209.633753 
L 368.694008 210.134011 
L 368.806976 210.033959 
L 368.919944 210.134011 
L 369.178157 210.234063 
L 369.194295 210.334115 
L 369.24271 210.234063 
L 369.323402 210.033959 
L 369.355678 210.134011 
L 369.387955 210.434166 
L 369.468646 210.334115 
L 369.646168 209.833856 
L 369.662306 209.933908 
L 369.710721 209.733804 
L 369.888242 209.133494 
L 369.920519 209.233546 
L 369.968934 209.033442 
L 370.485359 206.432097 
L 370.533774 206.332046 
L 370.695157 205.43158 
L 370.808125 205.531632 
L 371.050199 204.631167 
L 371.082476 204.531115 
L 371.211582 204.030856 
L 371.243859 204.130908 
L 371.292274 204.030856 
L 371.389104 203.730701 
L 371.42138 203.830753 
L 371.534348 203.930804 
L 371.679593 204.431063 
L 371.744146 204.23096 
L 371.776423 204.431063 
L 371.840976 204.331011 
L 371.970082 203.930804 
L 371.98622 204.030856 
L 372.08305 203.930804 
L 372.502646 201.92977 
L 372.534923 201.829718 
L 372.776997 200.128839 
L 372.857688 199.02827 
L 372.922242 195.426408 
L 372.986795 67.760414 
L 373.067486 122.188549 
L 373.261146 205.031373 
L 373.454805 207.232511 
L 373.680741 208.032925 
L 373.858263 207.932873 
L 373.955092 207.73277 
L 373.971231 207.832822 
L 374.051922 208.032925 
L 374.084199 207.932873 
L 374.293997 207.13246 
L 374.310135 207.232511 
L 374.35855 206.932356 
L 374.519933 206.432097 
L 374.536071 206.532149 
L 374.600624 206.332046 
L 374.842699 206.231994 
L 375.052497 205.531632 
L 375.100911 205.631684 
L 375.197741 205.831787 
L 375.21388 205.731735 
L 375.262294 205.631684 
L 375.488231 204.83127 
L 375.520507 204.731218 
L 375.843273 203.230442 
L 375.891688 203.430546 
L 375.923965 203.230442 
L 376.149901 202.430029 
L 376.182177 202.53008 
L 376.24673 202.430029 
L 376.295145 202.329977 
L 376.666326 200.629098 
L 376.795432 200.529046 
L 377.10206 198.127805 
L 377.182752 195.726563 
L 377.215028 159.407789 
L 377.263443 68.560828 
L 377.327996 109.481981 
L 377.537794 202.630132 
L 377.683039 205.231477 
L 377.699177 205.131425 
L 377.908975 205.831787 
L 377.941251 205.931839 
L 378.102634 206.332046 
L 378.231741 206.432097 
L 378.280156 206.532149 
L 378.32857 206.432097 
L 378.473815 206.131942 
L 378.586783 206.031891 
L 378.828858 205.131425 
L 378.861134 205.031373 
L 378.990241 204.731218 
L 379.119347 204.931322 
L 379.167762 204.83127 
L 379.458251 203.630649 
L 379.522804 203.530598 
L 379.651911 203.330494 
L 379.74874 203.230442 
L 379.974677 202.430029 
L 380.023091 202.329977 
L 380.216751 201.029305 
L 380.232889 201.129356 
L 380.265166 200.929253 
L 380.281304 200.929253 
L 380.410411 200.729149 
L 380.491102 200.829201 
L 380.571794 201.029305 
L 380.60407 200.929253 
L 380.684762 200.829201 
L 380.846145 200.428994 
L 380.862283 200.529046 
L 380.894559 200.228891 
L 381.088219 199.528529 
L 381.104357 199.628581 
L 381.16891 199.428477 
L 381.523953 193.825581 
L 381.55623 187.422271 
L 381.620783 68.160621 
L 381.685336 108.481464 
L 381.911272 203.930804 
L 382.104932 206.231994 
L 382.185623 206.332046 
L 382.347006 206.732253 
L 382.379283 206.832304 
L 382.540666 207.232511 
L 382.702048 207.13246 
L 382.927985 206.332046 
L 383.121644 206.432097 
L 383.234612 206.832304 
L 383.266889 206.732253 
L 383.379857 206.832304 
L 383.395995 206.932356 
L 383.44441 206.732253 
L 383.460548 206.732253 
L 383.654208 206.131942 
L 383.702623 206.031891 
L 383.815591 205.531632 
L 383.864006 205.631684 
L 383.896282 205.531632 
L 384.089942 204.931322 
L 384.122218 205.031373 
L 384.170633 204.83127 
L 384.219048 204.731218 
L 384.396569 204.23096 
L 384.461123 204.130908 
L 384.557952 204.030856 
L 384.606367 204.23096 
L 384.67092 204.130908 
L 384.735474 204.030856 
L 384.896857 203.530598 
L 384.945272 203.630649 
L 384.993686 203.530598 
L 385.042101 203.430546 
L 385.090516 203.530598 
L 385.171208 203.430546 
L 385.300314 203.030339 
L 385.316452 203.130391 
L 385.348729 203.230442 
L 385.364867 203.330494 
L 385.42942 203.130391 
L 386.123367 198.227856 
L 386.317027 192.62496 
L 386.38158 70.261707 
L 386.47841 129.592377 
L 386.672069 202.229925 
L 386.833452 204.130908 
L 386.84959 204.030856 
L 386.881867 204.331011 
L 387.107803 205.231477 
L 387.14008 205.131425 
L 387.188495 205.331529 
L 387.285324 205.43158 
L 387.398292 205.631684 
L 387.575814 205.131425 
L 387.70492 205.031373 
L 387.850165 204.731218 
L 387.89858 204.631167 
L 387.963133 204.531115 
L 387.979271 204.631167 
L 388.140654 205.43158 
L 388.302037 205.031373 
L 388.527973 204.931322 
L 388.640941 204.83127 
L 388.753909 204.731218 
L 388.947569 204.130908 
L 388.979845 204.030856 
L 389.157367 203.530598 
L 389.189643 203.430546 
L 389.641515 201.229408 
L 389.657654 201.229408 
L 389.899728 198.628063 
L 390.093388 196.827132 
L 390.319324 191.324288 
L 390.3516 142.5991 
L 390.400015 69.761448 
L 390.464568 110.082291 
L 390.674366 200.028787 
L 390.835749 202.53008 
L 390.868026 202.630132 
L 391.126239 203.630649 
L 391.158515 203.630649 
L 391.174653 203.430546 
L 391.271483 203.530598 
L 391.352175 203.330494 
L 391.368313 203.430546 
L 391.432866 203.630649 
L 391.481281 203.530598 
L 391.513558 203.330494 
L 391.578111 203.430546 
L 391.691079 203.530598 
L 391.739494 203.430546 
L 391.949292 202.730184 
L 392.078398 202.630132 
L 392.385026 201.32946 
L 392.449579 201.229408 
L 392.610962 200.428994 
L 392.659377 200.328943 
L 392.869174 199.02827 
L 392.885313 199.02827 
L 393.175802 196.727081 
L 393.595398 193.625477 
L 393.724504 190.123667 
L 393.756781 152.404169 
L 393.805196 70.46181 
L 393.869749 103.078671 
L 394.111823 199.228374 
L 394.305483 202.329977 
L 394.499142 203.530598 
L 394.547557 203.630649 
L 394.70894 204.030856 
L 394.741217 204.130908 
L 394.870323 204.331011 
L 394.983291 204.431063 
L 395.015568 204.531115 
L 395.080121 204.431063 
L 395.37061 203.230442 
L 395.419025 203.130391 
L 395.548131 202.930287 
L 395.612685 202.930287 
L 395.757929 202.430029 
L 395.806344 202.329977 
L 395.967727 201.729667 
L 395.983865 201.829718 
L 396.096833 201.729667 
L 396.290493 200.629098 
L 396.32277 200.529046 
L 396.69395 198.828167 
L 396.742365 198.728115 
L 397.048993 197.127288 
L 397.081269 197.227339 
L 397.161961 197.127288 
L 397.517003 191.924598 
L 397.565418 184.820926 
L 397.629972 70.761965 
L 397.710663 114.284464 
L 397.936599 198.528012 
L 398.130259 201.629615 
L 398.162535 201.729667 
L 398.485301 203.130391 
L 398.582131 203.230442 
L 398.711237 203.430546 
L 398.904897 203.330494 
L 399.034003 203.130391 
L 399.211524 203.030339 
L 399.437461 202.229925 
L 399.582705 202.129874 
L 399.744088 201.729667 
L 399.857056 201.829718 
L 399.889333 201.729667 
L 399.937748 201.829718 
L 399.970024 201.92977 
L 400.018439 201.829718 
L 400.405758 200.028787 
L 400.454173 199.928736 
L 401.196535 194.726046 
L 401.406333 189.523357 
L 401.487024 70.761965 
L 401.583854 128.491808 
L 401.777513 196.727081 
L 401.955035 199.928736 
L 402.229386 202.029822 
L 402.358492 202.329977 
L 402.503737 202.029822 
L 402.56829 202.129874 
L 402.584428 202.229925 
L 402.66512 202.129874 
L 402.842641 202.029822 
L 403.052439 201.32946 
L 403.100854 201.229408 
L 403.278375 200.729149 
L 403.342928 200.629098 
L 403.455896 200.428994 
L 403.568864 200.529046 
L 403.923907 200.428994 
L 404.036875 200.328943 
L 404.165981 200.428994 
L 404.214396 200.529046 
L 404.262811 200.428994 
L 404.359641 200.529046 
L 404.424194 200.629098 
L 404.45647 200.529046 
L 404.521024 200.428994 
L 404.730821 199.428477 
L 404.763098 199.528529 
L 405.102002 199.428477 
L 405.327938 198.628063 
L 405.392492 198.528012 
L 405.50546 197.927701 
L 405.537736 198.027753 
L 405.602289 197.927701 
L 405.908917 195.426408 
L 406.247821 189.923564 
L 406.296236 185.221133 
L 406.376928 72.062638 
L 406.441481 111.082808 
L 406.667417 197.627546 
L 406.861076 201.229408 
L 407.248395 203.030339 
L 407.329087 203.130391 
L 407.345225 203.230442 
L 407.39364 203.030339 
L 407.409778 203.030339 
L 407.442055 203.030339 
L 407.571161 202.630132 
L 407.813236 202.730184 
L 407.893927 202.830236 
L 407.910066 202.730184 
L 408.119863 202.830236 
L 408.200555 203.030339 
L 408.232831 202.930287 
L 408.3458 202.830236 
L 408.507182 202.430029 
L 408.604012 202.430029 
L 408.797672 201.32946 
L 409.088161 200.128839 
L 409.152714 200.028787 
L 409.701416 197.127288 
L 409.717555 197.227339 
L 409.749831 197.027236 
L 409.782108 197.027236 
L 409.927352 196.226822 
L 409.959629 196.426926 
L 410.072597 196.526977 
L 410.395363 196.426926 
L 410.927927 192.725012 
L 411.08931 187.422271 
L 411.121586 162.909599 
L 411.186139 72.062638 
L 411.250693 109.381929 
L 411.476629 197.427443 
L 411.65415 200.929253 
L 411.896224 202.630132 
L 412.025331 202.930287 
L 412.154437 202.730184 
L 412.331958 202.630132 
L 412.461065 202.430029 
L 412.622448 202.53008 
L 412.703139 202.930287 
L 412.767692 202.830236 
L 412.961352 202.229925 
L 413.058182 202.129874 
L 413.187288 201.92977 
L 413.300256 201.829718 
L 413.477777 201.029305 
L 413.493916 201.129356 
L 413.623022 201.32946 
L 413.784405 200.929253 
L 413.83282 200.829201 
L 414.284692 198.628063 
L 414.365384 198.528012 
L 414.413799 198.628063 
L 414.49449 198.327908 
L 414.526767 198.227856 
L 414.704288 197.327391 
L 414.752703 197.427443 
L 414.784979 197.327391 
L 415.123884 194.726046 
L 415.398235 187.922529 
L 415.446649 102.678464 
L 415.478926 71.762483 
L 415.543479 104.679498 
L 415.785554 197.627546 
L 415.979213 200.829201 
L 416.189011 202.129874 
L 416.398809 202.830236 
L 416.624745 202.730184 
L 416.705436 202.630132 
L 416.721575 202.730184 
L 416.76999 202.730184 
L 416.931373 202.029822 
L 416.963649 202.129874 
L 416.995926 202.029822 
L 417.14117 201.529563 
L 417.189585 201.429512 
L 417.350968 201.029305 
L 417.399383 200.929253 
L 417.673734 199.828684 
L 417.706011 199.728632 
L 418.077192 198.027753 
L 418.238574 197.927701 
L 418.512926 196.727081 
L 418.529064 196.827132 
L 418.56134 196.627029 
L 418.593617 196.627029 
L 418.642032 196.526977 
L 419.110042 193.025167 
L 419.31984 189.12315 
L 419.352117 185.821443 
L 419.432808 71.962586 
L 419.5135 116.185446 
L 419.771713 222.140218 
L 420.013787 246.953044 
L 420.433383 266.463129 
L 420.83684 277.368767 
L 421.224159 284.272336 
L 421.627616 289.77518 
L 421.756723 291.175904 
L 422.208595 295.478128 
L 422.660467 298.879887 
L 422.870265 300.280611 
L 422.902542 300.380662 
L 423.612627 304.182628 
L 423.644903 304.28268 
L 424.048361 306.183662 
L 424.096776 306.283714 
L 424.354988 307.284231 
L 424.403403 307.384283 
L 424.564786 308.084645 
L 424.645478 308.184697 
L 424.839137 308.785007 
L 424.871414 308.885059 
L 425.081212 309.585421 
L 425.113488 309.685472 
L 425.274871 310.085679 
L 425.339424 310.185731 
L 425.516946 310.68599 
L 425.581499 310.786041 
L 425.726743 311.086196 
L 425.839712 311.186248 
L 426.001094 311.586455 
L 426.097924 311.686507 
L 426.243169 311.986662 
L 426.32386 312.086714 
L 426.469105 312.386869 
L 426.565935 312.486921 
L 426.678903 312.687024 
L 426.695041 312.586972 
L 426.759594 312.787076 
L 426.856424 312.887127 
L 426.98553 313.087231 
L 427.033945 313.187283 
L 427.146913 313.287334 
L 427.243743 313.387386 
L 427.388988 313.687541 
L 427.421264 313.587489 
L 427.485818 313.687541 
L 428.131349 313.787593 
L 428.260456 313.987696 
L 429.148062 314.087748 
L 429.1642 314.1878 
L 429.244892 314.087748 
L 429.341722 313.987696 
L 429.45469 314.087748 
L 429.729041 314.1878 
L 429.793594 314.287851 
L 429.82587 314.1878 
L 430.697338 314.087748 
L 430.810306 313.987696 
L 431.310594 313.887645 
L 431.375147 313.787593 
L 431.407423 313.887645 
L 431.972264 313.787593 
L 432.10137 313.587489 
L 432.633934 313.487438 
L 432.746902 313.387386 
L 433.392434 313.287334 
L 433.505402 313.187283 
L 433.795891 313.087231 
L 433.860444 312.887127 
L 433.908859 312.987179 
L 433.989551 313.087231 
L 434.005689 312.987179 
L 434.74805 312.887127 
L 434.861019 312.787076 
L 435.232199 312.687024 
L 435.345167 312.586972 
L 435.635657 312.486921 
L 435.732486 312.386869 
L 435.780901 312.486921 
L 435.780901 312.486921 
" style="fill:none;stroke:#1f77b4;stroke-linecap:square;stroke-width:1.5;"/>
   </g>
   <g id="line2d_15">
    <path clip-path="url(#p0fdddf2a23)" d="M 80.754545 303.462255 
L 81.351662 307.191543 
L 81.819673 308.994715 
L 82.174715 309.916792 
L 82.562035 310.613472 
L 83.223705 311.289662 
L 83.417364 311.392115 
L 83.627162 311.494568 
L 84.030619 311.597021 
L 84.192002 311.638002 
L 86.435225 311.535549 
L 86.58047 311.515058 
L 87.774704 311.412605 
L 87.919949 311.392115 
L 88.904385 311.330643 
L 89.404672 289.405709 
L 89.888821 277.357241 
L 90.324555 271.476441 
L 90.679597 268.976589 
L 91.099193 267.788134 
L 91.567203 267.890587 
L 91.889969 268.464324 
L 92.793714 271.046138 
L 93.423107 273.013235 
L 95.246735 277.357241 
L 97.134915 279.590715 
L 97.28016 279.693168 
L 97.554511 279.877584 
L 97.74817 279.980037 
L 97.974106 280.10298 
L 98.216181 280.205433 
L 98.40984 280.287396 
L 98.716468 280.389849 
L 98.893989 280.45132 
L 99.281308 280.553773 
L 99.442691 280.594754 
L 100.007532 280.697207 
L 100.168915 280.738189 
L 101.234042 280.840642 
L 101.379287 280.861132 
L 105.429999 280.963585 
L 105.575243 280.984076 
L 153.457565 280.984076 
L 153.957852 302.888519 
L 154.442001 314.916496 
L 154.877735 320.776806 
L 155.232778 323.256167 
L 155.539405 324.280697 
L 155.87831 324.547075 
L 156.53998 323.543036 
L 157.282341 321.371033 
L 157.927873 319.342464 
L 159.832192 314.793553 
L 161.671958 312.62155 
L 161.83334 312.519097 
L 162.107692 312.334682 
L 162.301351 312.232229 
L 162.527287 312.109285 
L 162.769362 312.006832 
L 162.979159 311.904379 
L 163.318064 311.801926 
L 163.495585 311.740455 
L 163.899042 311.638002 
L 164.060425 311.597021 
L 164.657542 311.494568 
L 164.818925 311.453586 
L 165.980882 311.351133 
L 166.126127 311.330643 
L 169.515169 311.22819 
L 169.531307 303.462255 
L 169.628137 304.199917 
L 170.128424 307.191543 
L 170.596435 308.994715 
L 170.951477 309.916792 
L 171.338796 310.613472 
L 172.000466 311.289662 
L 172.194126 311.392115 
L 172.403924 311.494568 
L 172.807381 311.597021 
L 172.968764 311.638002 
L 175.211987 311.535549 
L 175.357232 311.515058 
L 176.551466 311.412605 
L 176.69671 311.392115 
L 177.681146 311.330643 
L 178.181434 282.111058 
L 178.649444 266.435755 
L 179.052901 258.833746 
L 179.488635 254.694646 
L 179.779125 253.506192 
L 180.021199 253.178342 
L 180.247135 253.280795 
L 180.505348 253.772569 
L 180.973359 255.247892 
L 183.749145 265.390735 
L 184.588337 267.234888 
L 185.072486 268.013531 
L 185.330698 268.382362 
L 186.186028 269.304438 
L 186.315134 269.406891 
L 186.6379 269.652778 
L 186.815421 269.755231 
L 187.073634 269.919156 
L 187.283432 270.021609 
L 187.49323 270.124062 
L 187.767581 270.226515 
L 187.96124 270.308477 
L 188.316283 270.41093 
L 188.493804 270.472402 
L 189.026368 270.574855 
L 189.187751 270.615836 
L 190.026942 270.718289 
L 190.172187 270.73878 
L 191.995814 270.841233 
L 192.141059 270.861723 
L 242.234327 270.902704 
L 242.734614 300.101798 
L 243.202625 315.756611 
L 243.638359 323.768432 
L 244.041816 327.477229 
L 244.332306 328.665684 
L 244.558242 328.973043 
L 244.800316 328.87059 
L 245.058529 328.378816 
L 245.526539 326.903493 
L 248.334603 316.637706 
L 249.109241 314.957478 
L 249.528837 314.260798 
L 249.803188 313.850986 
L 250.755347 312.805965 
L 250.900592 312.703512 
L 251.239496 312.437135 
L 251.417017 312.334682 
L 251.659092 312.191248 
L 251.868889 312.088795 
L 252.078687 311.986342 
L 252.353038 311.883889 
L 252.546698 311.801926 
L 252.934017 311.699473 
L 253.111538 311.638002 
L 253.676378 311.535549 
L 253.837761 311.494568 
L 254.741506 311.392115 
L 254.886751 311.371624 
L 257.129974 311.269171 
L 257.275218 311.24868 
L 258.291931 311.24868 
L 258.308069 303.462255 
L 258.404899 304.199917 
L 258.905186 307.191543 
L 259.373197 308.994715 
L 259.728239 309.916792 
L 260.115558 310.613472 
L 260.777228 311.289662 
L 260.970888 311.392115 
L 261.180686 311.494568 
L 261.584143 311.597021 
L 261.745526 311.638002 
L 263.988749 311.535549 
L 264.133994 311.515058 
L 265.328228 311.412605 
L 265.473472 311.392115 
L 266.457908 311.330643 
L 266.958195 267.501266 
L 267.426206 243.998557 
L 267.86194 231.970579 
L 268.265397 226.397138 
L 268.588163 224.512004 
L 268.797961 224.143173 
L 268.910929 224.143173 
L 269.169142 224.634947 
L 269.411216 225.516043 
L 270.331099 230.761634 
L 271.751269 239.080815 
L 272.380663 241.908516 
L 272.816397 243.547764 
L 273.413513 245.350936 
L 273.752418 246.211541 
L 273.946077 246.621353 
L 274.414088 247.522939 
L 276.027917 249.408073 
L 276.1893 249.510526 
L 276.47979 249.715432 
L 276.689587 249.817885 
L 276.915524 249.940829 
L 277.173736 250.043281 
L 277.367396 250.125244 
L 277.7063 250.227697 
L 277.883821 250.289169 
L 278.36797 250.391622 
L 278.529353 250.432603 
L 279.271715 250.535056 
L 279.416959 250.555546 
L 280.837129 250.657999 
L 280.982374 250.67849 
L 331.011089 250.739962 
L 331.511376 294.528357 
L 331.963248 317.436839 
L 332.415121 330.038554 
L 332.818578 335.611995 
L 333.189759 337.620073 
L 333.399557 337.86596 
L 333.528663 337.763507 
L 333.706184 337.374186 
L 333.964397 336.452109 
L 334.88428 331.206517 
L 336.288312 322.969299 
L 336.86929 320.326013 
L 337.321162 318.604803 
L 337.934418 316.699178 
L 338.870439 314.609138 
L 340.66179 312.498607 
L 340.823172 312.396154 
L 341.081385 312.232229 
L 341.275045 312.129776 
L 341.500981 312.006832 
L 341.775332 311.904379 
L 341.968991 311.822417 
L 342.324034 311.719964 
L 342.501555 311.658492 
L 343.017981 311.556039 
L 343.179364 311.515058 
L 343.97014 311.412605 
L 344.115385 311.392115 
L 345.826044 311.289662 
L 345.971289 311.269171 
L 347.068693 311.24868 
L 347.084831 303.462255 
L 347.181661 304.199917 
L 347.681948 307.191543 
L 348.149958 308.994715 
L 348.505001 309.916792 
L 348.89232 310.613472 
L 349.55399 311.289662 
L 349.74765 311.392115 
L 349.957448 311.494568 
L 350.360905 311.597021 
L 350.522288 311.638002 
L 352.765511 311.535549 
L 352.910756 311.515058 
L 354.104989 311.412605 
L 354.250234 311.392115 
L 355.23467 311.330643 
L 355.734957 223.71287 
L 356.009308 188.510033 
L 356.122276 212.873347 
L 356.315936 212.873347 
L 356.735532 224.798872 
L 357.090574 229.511708 
L 357.364925 230.823106 
L 357.51017 230.905068 
L 357.526308 230.884578 
L 357.703829 230.495256 
L 357.865212 229.819067 
L 358.236393 227.360196 
L 358.849648 221.868717 
L 360.269818 208.570323 
L 361.141286 199.882312 
L 361.367222 194.780154 
L 361.447914 187.587956 
L 361.560882 212.873347 
L 361.754541 212.873347 
L 362.190275 255.657704 
L 362.577594 275.041804 
L 362.90036 282.213511 
L 363.142435 283.811777 
L 363.19085 283.832268 
L 363.223126 283.791287 
L 363.368371 283.176569 
L 363.65886 280.164452 
L 364.013903 274.304143 
L 364.901509 255.309364 
L 366.257126 228.405216 
L 367.128594 215.823992 
L 368.726285 196.542345 
L 368.839253 190.743508 
L 368.855391 188.264146 
L 368.968359 212.873347 
L 369.162019 212.873347 
L 369.597753 255.452798 
L 370.00121 275.2672 
L 370.323976 282.070077 
L 370.56605 283.463437 
L 370.66288 283.360984 
L 370.85654 282.193021 
L 371.147029 278.668639 
L 371.663455 269.161004 
L 373.680741 227.974914 
L 374.794284 212.688932 
L 376.133762 196.316949 
L 376.24673 189.698487 
L 376.262869 185.9692 
L 376.375837 212.873347 
L 376.553358 212.873347 
L 376.698603 229.22484 
L 377.134337 263.915412 
L 377.505517 278.197355 
L 377.796007 282.766757 
L 377.989666 283.463437 
L 378.054219 283.360984 
L 378.183326 282.746267 
L 378.393124 280.758679 
L 378.828858 273.812368 
L 379.732602 254.510231 
L 381.039804 228.651103 
L 381.92741 215.823992 
L 382.734325 206.972057 
L 383.412133 199.021707 
L 383.589655 194.206418 
L 383.654208 188.243655 
L 383.767176 212.873347 
L 383.960836 212.873347 
L 384.396569 255.432307 
L 384.783889 274.734445 
L 385.106654 281.865171 
L 385.348729 283.442947 
L 385.397144 283.463437 
L 385.42942 283.422456 
L 385.574665 282.807738 
L 385.784463 280.840642 
L 386.123367 275.738484 
L 386.817314 261.477032 
L 388.479558 227.974914 
L 389.31875 215.926445 
L 390.141803 206.890094 
L 390.819611 198.878273 
L 390.997132 193.796606 
L 391.061685 185.907728 
L 391.174653 212.873347 
L 391.352175 212.873347 
L 391.497419 229.22484 
L 391.933153 263.894922 
L 392.304334 278.197355 
L 392.594823 282.746267 
L 392.788483 283.463437 
L 392.901451 283.19706 
L 393.127387 281.47585 
L 393.434015 277.254788 
L 394.014993 265.882509 
L 395.887036 227.85197 
L 396.726227 215.823992 
L 397.533142 206.972057 
L 398.21095 199.021707 
L 398.40461 193.345813 
L 398.453025 188.223165 
L 398.565993 212.873347 
L 398.759652 212.873347 
L 399.195386 255.432307 
L 399.582705 274.734445 
L 399.905471 281.865171 
L 400.147546 283.442947 
L 400.19596 283.463437 
L 400.228237 283.422456 
L 400.373482 282.807738 
L 400.58328 280.840642 
L 400.922184 275.738484 
L 401.61613 261.477032 
L 403.278375 227.974914 
L 404.117566 215.926445 
L 404.940619 206.890094 
L 405.618428 198.878273 
L 405.795949 193.796606 
L 405.860502 185.907728 
L 405.97347 212.873347 
L 406.150991 212.873347 
L 406.296236 229.22484 
L 406.73197 263.894922 
L 407.103151 278.197355 
L 407.39364 282.746267 
L 407.5873 283.463437 
L 407.700268 283.19706 
L 407.926204 281.47585 
L 408.232831 277.254788 
L 408.81381 265.882509 
L 410.685852 227.85197 
L 411.525044 215.823992 
L 412.331958 206.972057 
L 413.009767 199.021707 
L 413.187288 194.206418 
L 413.251841 188.223165 
L 413.364809 212.873347 
L 413.558469 212.873347 
L 413.994203 255.432307 
L 414.381522 274.734445 
L 414.704288 281.865171 
L 414.946362 283.442947 
L 414.994777 283.463437 
L 415.027054 283.422456 
L 415.172298 282.807738 
L 415.382096 280.840642 
L 415.721 275.738484 
L 416.414947 261.477032 
L 418.077192 227.974914 
L 418.916383 215.926445 
L 419.739436 206.890094 
L 419.787851 206.39832 
L 420.288138 290.450729 
L 420.74001 333.685879 
L 421.175744 356.22553 
L 421.546925 365.651203 
L 421.837414 368.786263 
L 422.06335 369.36 
L 422.144042 369.257547 
L 422.240872 368.970679 
L 422.579776 366.696223 
L 423.273723 358.540967 
L 425.581499 330.61229 
L 426.372275 324.547075 
L 427.17919 320.121107 
L 427.727892 317.908123 
L 428.325009 316.06397 
L 429.099647 314.383741 
L 430.761892 312.437135 
L 430.923275 312.334682 
L 431.181487 312.170757 
L 431.391285 312.068304 
L 431.617221 311.945361 
L 431.907711 311.842908 
L 432.10137 311.760945 
L 432.504827 311.658492 
L 432.682349 311.597021 
L 433.279466 311.494568 
L 433.440849 311.453586 
L 434.538253 311.351133 
L 434.683497 311.330643 
L 435.845455 311.269171 
L 435.845455 311.269171 
" style="fill:none;stroke:#ff0000;stroke-linecap:square;stroke-width:1.5;"/>
   </g>
   <g id="patch_3">
    <path d="M 63 384.48 
L 63 51.84 
" style="fill:none;stroke:#000000;stroke-linecap:square;stroke-linejoin:miter;stroke-width:0.8;"/>
   </g>
   <g id="patch_4">
    <path d="M 453.6 384.48 
L 453.6 51.84 
" style="fill:none;stroke:#000000;stroke-linecap:square;stroke-linejoin:miter;stroke-width:0.8;"/>
   </g>
   <g id="patch_5">
    <path d="M 63 384.48 
L 453.6 384.48 
" style="fill:none;stroke:#000000;stroke-linecap:square;stroke-linejoin:miter;stroke-width:0.8;"/>
   </g>
   <g id="patch_6">
    <path d="M 63 51.84 
L 453.6 51.84 
" style="fill:none;stroke:#000000;stroke-linecap:square;stroke-linejoin:miter;stroke-width:0.8;"/>
   </g>
   <g id="legend_1">
    <g id="patch_7">
     <path d="M 70 89.19625 
L 133.139062 89.19625 
Q 135.139062 89.19625 135.139062 87.19625 
L 135.139062 58.84 
Q 135.139062 56.84 133.139062 56.84 
L 70 56.84 
Q 68 56.84 68 58.84 
L 68 87.19625 
Q 68 89.19625 70 89.19625 
z
" style="fill:#ffffff;opacity:0.8;stroke:#cccccc;stroke-linejoin:miter;"/>
    </g>
    <g id="line2d_16">
     <path d="M 72 64.938437 
L 92 64.938437 
" style="fill:none;stroke:#1f77b4;stroke-linecap:square;stroke-width:1.5;"/>
    </g>
    <g id="line2d_17"/>
    <g id="text_16">
     <!-- target -->
     <defs>
      <path d="M 41.109375 46.296875 
Q 39.59375 47.171875 37.8125 47.578125 
Q 36.03125 48 33.890625 48 
Q 26.265625 48 22.1875 43.046875 
Q 18.109375 38.09375 18.109375 28.8125 
L 18.109375 0 
L 9.078125 0 
L 9.078125 54.6875 
L 18.109375 54.6875 
L 18.109375 46.1875 
Q 20.953125 51.171875 25.484375 53.578125 
Q 30.03125 56 36.53125 56 
Q 37.453125 56 38.578125 55.875 
Q 39.703125 55.765625 41.0625 55.515625 
z
" id="DejaVuSans-114"/>
     </defs>
     <g transform="translate(100 68.438437)scale(0.1 -0.1)">
      <use xlink:href="#DejaVuSans-116"/>
      <use x="39.208984" xlink:href="#DejaVuSans-97"/>
      <use x="100.488281" xlink:href="#DejaVuSans-114"/>
      <use x="141.585938" xlink:href="#DejaVuSans-103"/>
      <use x="205.0625" xlink:href="#DejaVuSans-101"/>
      <use x="266.585938" xlink:href="#DejaVuSans-116"/>
     </g>
    </g>
    <g id="line2d_18">
     <path d="M 72 79.616562 
L 92 79.616562 
" style="fill:none;stroke:#ff0000;stroke-linecap:square;stroke-width:1.5;"/>
    </g>
    <g id="line2d_19"/>
    <g id="text_17">
     <!-- model -->
     <defs>
      <path d="M 45.40625 46.390625 
L 45.40625 75.984375 
L 54.390625 75.984375 
L 54.390625 0 
L 45.40625 0 
L 45.40625 8.203125 
Q 42.578125 3.328125 38.25 0.953125 
Q 33.9375 -1.421875 27.875 -1.421875 
Q 17.96875 -1.421875 11.734375 6.484375 
Q 5.515625 14.40625 5.515625 27.296875 
Q 5.515625 40.1875 11.734375 48.09375 
Q 17.96875 56 27.875 56 
Q 33.9375 56 38.25 53.625 
Q 42.578125 51.265625 45.40625 46.390625 
z
M 14.796875 27.296875 
Q 14.796875 17.390625 18.875 11.75 
Q 22.953125 6.109375 30.078125 6.109375 
Q 37.203125 6.109375 41.296875 11.75 
Q 45.40625 17.390625 45.40625 27.296875 
Q 45.40625 37.203125 41.296875 42.84375 
Q 37.203125 48.484375 30.078125 48.484375 
Q 22.953125 48.484375 18.875 42.84375 
Q 14.796875 37.203125 14.796875 27.296875 
z
" id="DejaVuSans-100"/>
     </defs>
     <g transform="translate(100 83.116562)scale(0.1 -0.1)">
      <use xlink:href="#DejaVuSans-109"/>
      <use x="97.412109" xlink:href="#DejaVuSans-111"/>
      <use x="158.59375" xlink:href="#DejaVuSans-100"/>
      <use x="222.070312" xlink:href="#DejaVuSans-101"/>
      <use x="283.59375" xlink:href="#DejaVuSans-108"/>
     </g>
    </g>
   </g>
  </g>
 </g>
 <defs>
  <clipPath id="p0fdddf2a23">
   <rect height="332.64" width="390.6" x="63" y="51.84"/>
  </clipPath>
 </defs>
</svg>
