<?xml version="1.0" encoding="utf-8" standalone="no"?>
<!DOCTYPE svg PUBLIC "-//W3C//DTD SVG 1.1//EN"
  "http://www.w3.org/Graphics/SVG/1.1/DTD/svg11.dtd">
<!-- Created with matplotlib (https://matplotlib.org/) -->
<svg height="432pt" version="1.1" viewBox="0 0 504 432" width="504pt" xmlns="http://www.w3.org/2000/svg" xmlns:xlink="http://www.w3.org/1999/xlink">
 <metadata>
  <rdf:RDF xmlns:cc="http://creativecommons.org/ns#" xmlns:dc="http://purl.org/dc/elements/1.1/" xmlns:rdf="http://www.w3.org/1999/02/22-rdf-syntax-ns#">
   <cc:Work>
    <dc:type rdf:resource="http://purl.org/dc/dcmitype/StillImage"/>
    <dc:date>2020-11-06T05:26:47.228888</dc:date>
    <dc:format>image/svg+xml</dc:format>
    <dc:creator>
     <cc:Agent>
      <dc:title>Matplotlib v3.3.2, https://matplotlib.org/</dc:title>
     </cc:Agent>
    </dc:creator>
   </cc:Work>
  </rdf:RDF>
 </metadata>
 <defs>
  <style type="text/css">*{stroke-linecap:butt;stroke-linejoin:round;}</style>
 </defs>
 <g id="figure_1">
  <g id="patch_1">
   <path d="M 0 432 
L 504 432 
L 504 0 
L 0 0 
z
" style="fill:#ffffff;"/>
  </g>
  <g id="axes_1">
   <g id="patch_2">
    <path d="M 63 384.48 
L 453.6 384.48 
L 453.6 51.84 
L 63 51.84 
z
" style="fill:#ffffff;"/>
   </g>
   <g id="matplotlib.axis_1">
    <g id="xtick_1">
     <g id="line2d_1">
      <defs>
       <path d="M 0 0 
L 0 3.5 
" id="m96b27c9416" style="stroke:#000000;stroke-width:0.8;"/>
      </defs>
      <g>
       <use style="stroke:#000000;stroke-width:0.8;" x="80.754545" xlink:href="#m96b27c9416" y="384.48"/>
      </g>
     </g>
     <g id="text_1">
      <!-- 0 -->
      <g transform="translate(77.573295 399.078438)scale(0.1 -0.1)">
       <defs>
        <path d="M 31.78125 66.40625 
Q 24.171875 66.40625 20.328125 58.90625 
Q 16.5 51.421875 16.5 36.375 
Q 16.5 21.390625 20.328125 13.890625 
Q 24.171875 6.390625 31.78125 6.390625 
Q 39.453125 6.390625 43.28125 13.890625 
Q 47.125 21.390625 47.125 36.375 
Q 47.125 51.421875 43.28125 58.90625 
Q 39.453125 66.40625 31.78125 66.40625 
z
M 31.78125 74.21875 
Q 44.046875 74.21875 50.515625 64.515625 
Q 56.984375 54.828125 56.984375 36.375 
Q 56.984375 17.96875 50.515625 8.265625 
Q 44.046875 -1.421875 31.78125 -1.421875 
Q 19.53125 -1.421875 13.0625 8.265625 
Q 6.59375 17.96875 6.59375 36.375 
Q 6.59375 54.828125 13.0625 64.515625 
Q 19.53125 74.21875 31.78125 74.21875 
z
" id="DejaVuSans-48"/>
       </defs>
       <use xlink:href="#DejaVuSans-48"/>
      </g>
     </g>
    </g>
    <g id="xtick_2">
     <g id="line2d_2">
      <g>
       <use style="stroke:#000000;stroke-width:0.8;" x="151.763044" xlink:href="#m96b27c9416" y="384.48"/>
      </g>
     </g>
     <g id="text_2">
      <!-- 880 -->
      <g transform="translate(142.219294 399.078438)scale(0.1 -0.1)">
       <defs>
        <path d="M 31.78125 34.625 
Q 24.75 34.625 20.71875 30.859375 
Q 16.703125 27.09375 16.703125 20.515625 
Q 16.703125 13.921875 20.71875 10.15625 
Q 24.75 6.390625 31.78125 6.390625 
Q 38.8125 6.390625 42.859375 10.171875 
Q 46.921875 13.96875 46.921875 20.515625 
Q 46.921875 27.09375 42.890625 30.859375 
Q 38.875 34.625 31.78125 34.625 
z
M 21.921875 38.8125 
Q 15.578125 40.375 12.03125 44.71875 
Q 8.5 49.078125 8.5 55.328125 
Q 8.5 64.0625 14.71875 69.140625 
Q 20.953125 74.21875 31.78125 74.21875 
Q 42.671875 74.21875 48.875 69.140625 
Q 55.078125 64.0625 55.078125 55.328125 
Q 55.078125 49.078125 51.53125 44.71875 
Q 48 40.375 41.703125 38.8125 
Q 48.828125 37.15625 52.796875 32.3125 
Q 56.78125 27.484375 56.78125 20.515625 
Q 56.78125 9.90625 50.3125 4.234375 
Q 43.84375 -1.421875 31.78125 -1.421875 
Q 19.734375 -1.421875 13.25 4.234375 
Q 6.78125 9.90625 6.78125 20.515625 
Q 6.78125 27.484375 10.78125 32.3125 
Q 14.796875 37.15625 21.921875 38.8125 
z
M 18.3125 54.390625 
Q 18.3125 48.734375 21.84375 45.5625 
Q 25.390625 42.390625 31.78125 42.390625 
Q 38.140625 42.390625 41.71875 45.5625 
Q 45.3125 48.734375 45.3125 54.390625 
Q 45.3125 60.0625 41.71875 63.234375 
Q 38.140625 66.40625 31.78125 66.40625 
Q 25.390625 66.40625 21.84375 63.234375 
Q 18.3125 60.0625 18.3125 54.390625 
z
" id="DejaVuSans-56"/>
       </defs>
       <use xlink:href="#DejaVuSans-56"/>
       <use x="63.623047" xlink:href="#DejaVuSans-56"/>
       <use x="127.246094" xlink:href="#DejaVuSans-48"/>
      </g>
     </g>
    </g>
    <g id="xtick_3">
     <g id="line2d_3">
      <g>
       <use style="stroke:#000000;stroke-width:0.8;" x="222.771543" xlink:href="#m96b27c9416" y="384.48"/>
      </g>
     </g>
     <g id="text_3">
      <!-- 1760 -->
      <g transform="translate(210.046543 399.078438)scale(0.1 -0.1)">
       <defs>
        <path d="M 12.40625 8.296875 
L 28.515625 8.296875 
L 28.515625 63.921875 
L 10.984375 60.40625 
L 10.984375 69.390625 
L 28.421875 72.90625 
L 38.28125 72.90625 
L 38.28125 8.296875 
L 54.390625 8.296875 
L 54.390625 0 
L 12.40625 0 
z
" id="DejaVuSans-49"/>
        <path d="M 8.203125 72.90625 
L 55.078125 72.90625 
L 55.078125 68.703125 
L 28.609375 0 
L 18.3125 0 
L 43.21875 64.59375 
L 8.203125 64.59375 
z
" id="DejaVuSans-55"/>
        <path d="M 33.015625 40.375 
Q 26.375 40.375 22.484375 35.828125 
Q 18.609375 31.296875 18.609375 23.390625 
Q 18.609375 15.53125 22.484375 10.953125 
Q 26.375 6.390625 33.015625 6.390625 
Q 39.65625 6.390625 43.53125 10.953125 
Q 47.40625 15.53125 47.40625 23.390625 
Q 47.40625 31.296875 43.53125 35.828125 
Q 39.65625 40.375 33.015625 40.375 
z
M 52.59375 71.296875 
L 52.59375 62.3125 
Q 48.875 64.0625 45.09375 64.984375 
Q 41.3125 65.921875 37.59375 65.921875 
Q 27.828125 65.921875 22.671875 59.328125 
Q 17.53125 52.734375 16.796875 39.40625 
Q 19.671875 43.65625 24.015625 45.921875 
Q 28.375 48.1875 33.59375 48.1875 
Q 44.578125 48.1875 50.953125 41.515625 
Q 57.328125 34.859375 57.328125 23.390625 
Q 57.328125 12.15625 50.6875 5.359375 
Q 44.046875 -1.421875 33.015625 -1.421875 
Q 20.359375 -1.421875 13.671875 8.265625 
Q 6.984375 17.96875 6.984375 36.375 
Q 6.984375 53.65625 15.1875 63.9375 
Q 23.390625 74.21875 37.203125 74.21875 
Q 40.921875 74.21875 44.703125 73.484375 
Q 48.484375 72.75 52.59375 71.296875 
z
" id="DejaVuSans-54"/>
       </defs>
       <use xlink:href="#DejaVuSans-49"/>
       <use x="63.623047" xlink:href="#DejaVuSans-55"/>
       <use x="127.246094" xlink:href="#DejaVuSans-54"/>
       <use x="190.869141" xlink:href="#DejaVuSans-48"/>
      </g>
     </g>
    </g>
    <g id="xtick_4">
     <g id="line2d_4">
      <g>
       <use style="stroke:#000000;stroke-width:0.8;" x="293.780042" xlink:href="#m96b27c9416" y="384.48"/>
      </g>
     </g>
     <g id="text_4">
      <!-- 2640 -->
      <g transform="translate(281.055042 399.078438)scale(0.1 -0.1)">
       <defs>
        <path d="M 19.1875 8.296875 
L 53.609375 8.296875 
L 53.609375 0 
L 7.328125 0 
L 7.328125 8.296875 
Q 12.9375 14.109375 22.625 23.890625 
Q 32.328125 33.6875 34.8125 36.53125 
Q 39.546875 41.84375 41.421875 45.53125 
Q 43.3125 49.21875 43.3125 52.78125 
Q 43.3125 58.59375 39.234375 62.25 
Q 35.15625 65.921875 28.609375 65.921875 
Q 23.96875 65.921875 18.8125 64.3125 
Q 13.671875 62.703125 7.8125 59.421875 
L 7.8125 69.390625 
Q 13.765625 71.78125 18.9375 73 
Q 24.125 74.21875 28.421875 74.21875 
Q 39.75 74.21875 46.484375 68.546875 
Q 53.21875 62.890625 53.21875 53.421875 
Q 53.21875 48.921875 51.53125 44.890625 
Q 49.859375 40.875 45.40625 35.40625 
Q 44.1875 33.984375 37.640625 27.21875 
Q 31.109375 20.453125 19.1875 8.296875 
z
" id="DejaVuSans-50"/>
        <path d="M 37.796875 64.3125 
L 12.890625 25.390625 
L 37.796875 25.390625 
z
M 35.203125 72.90625 
L 47.609375 72.90625 
L 47.609375 25.390625 
L 58.015625 25.390625 
L 58.015625 17.1875 
L 47.609375 17.1875 
L 47.609375 0 
L 37.796875 0 
L 37.796875 17.1875 
L 4.890625 17.1875 
L 4.890625 26.703125 
z
" id="DejaVuSans-52"/>
       </defs>
       <use xlink:href="#DejaVuSans-50"/>
       <use x="63.623047" xlink:href="#DejaVuSans-54"/>
       <use x="127.246094" xlink:href="#DejaVuSans-52"/>
       <use x="190.869141" xlink:href="#DejaVuSans-48"/>
      </g>
     </g>
    </g>
    <g id="xtick_5">
     <g id="line2d_5">
      <g>
       <use style="stroke:#000000;stroke-width:0.8;" x="364.788541" xlink:href="#m96b27c9416" y="384.48"/>
      </g>
     </g>
     <g id="text_5">
      <!-- 3520 -->
      <g transform="translate(352.063541 399.078438)scale(0.1 -0.1)">
       <defs>
        <path d="M 40.578125 39.3125 
Q 47.65625 37.796875 51.625 33 
Q 55.609375 28.21875 55.609375 21.1875 
Q 55.609375 10.40625 48.1875 4.484375 
Q 40.765625 -1.421875 27.09375 -1.421875 
Q 22.515625 -1.421875 17.65625 -0.515625 
Q 12.796875 0.390625 7.625 2.203125 
L 7.625 11.71875 
Q 11.71875 9.328125 16.59375 8.109375 
Q 21.484375 6.890625 26.8125 6.890625 
Q 36.078125 6.890625 40.9375 10.546875 
Q 45.796875 14.203125 45.796875 21.1875 
Q 45.796875 27.640625 41.28125 31.265625 
Q 36.765625 34.90625 28.71875 34.90625 
L 20.21875 34.90625 
L 20.21875 43.015625 
L 29.109375 43.015625 
Q 36.375 43.015625 40.234375 45.921875 
Q 44.09375 48.828125 44.09375 54.296875 
Q 44.09375 59.90625 40.109375 62.90625 
Q 36.140625 65.921875 28.71875 65.921875 
Q 24.65625 65.921875 20.015625 65.03125 
Q 15.375 64.15625 9.8125 62.3125 
L 9.8125 71.09375 
Q 15.4375 72.65625 20.34375 73.4375 
Q 25.25 74.21875 29.59375 74.21875 
Q 40.828125 74.21875 47.359375 69.109375 
Q 53.90625 64.015625 53.90625 55.328125 
Q 53.90625 49.265625 50.4375 45.09375 
Q 46.96875 40.921875 40.578125 39.3125 
z
" id="DejaVuSans-51"/>
        <path d="M 10.796875 72.90625 
L 49.515625 72.90625 
L 49.515625 64.59375 
L 19.828125 64.59375 
L 19.828125 46.734375 
Q 21.96875 47.46875 24.109375 47.828125 
Q 26.265625 48.1875 28.421875 48.1875 
Q 40.625 48.1875 47.75 41.5 
Q 54.890625 34.8125 54.890625 23.390625 
Q 54.890625 11.625 47.5625 5.09375 
Q 40.234375 -1.421875 26.90625 -1.421875 
Q 22.3125 -1.421875 17.546875 -0.640625 
Q 12.796875 0.140625 7.71875 1.703125 
L 7.71875 11.625 
Q 12.109375 9.234375 16.796875 8.0625 
Q 21.484375 6.890625 26.703125 6.890625 
Q 35.15625 6.890625 40.078125 11.328125 
Q 45.015625 15.765625 45.015625 23.390625 
Q 45.015625 31 40.078125 35.4375 
Q 35.15625 39.890625 26.703125 39.890625 
Q 22.75 39.890625 18.8125 39.015625 
Q 14.890625 38.140625 10.796875 36.28125 
z
" id="DejaVuSans-53"/>
       </defs>
       <use xlink:href="#DejaVuSans-51"/>
       <use x="63.623047" xlink:href="#DejaVuSans-53"/>
       <use x="127.246094" xlink:href="#DejaVuSans-50"/>
       <use x="190.869141" xlink:href="#DejaVuSans-48"/>
      </g>
     </g>
    </g>
    <g id="text_6">
     <!-- time [ms] -->
     <g transform="translate(234.038281 412.756563)scale(0.1 -0.1)">
      <defs>
       <path d="M 18.3125 70.21875 
L 18.3125 54.6875 
L 36.8125 54.6875 
L 36.8125 47.703125 
L 18.3125 47.703125 
L 18.3125 18.015625 
Q 18.3125 11.328125 20.140625 9.421875 
Q 21.96875 7.515625 27.59375 7.515625 
L 36.8125 7.515625 
L 36.8125 0 
L 27.59375 0 
Q 17.1875 0 13.234375 3.875 
Q 9.28125 7.765625 9.28125 18.015625 
L 9.28125 47.703125 
L 2.6875 47.703125 
L 2.6875 54.6875 
L 9.28125 54.6875 
L 9.28125 70.21875 
z
" id="DejaVuSans-116"/>
       <path d="M 9.421875 54.6875 
L 18.40625 54.6875 
L 18.40625 0 
L 9.421875 0 
z
M 9.421875 75.984375 
L 18.40625 75.984375 
L 18.40625 64.59375 
L 9.421875 64.59375 
z
" id="DejaVuSans-105"/>
       <path d="M 52 44.1875 
Q 55.375 50.25 60.0625 53.125 
Q 64.75 56 71.09375 56 
Q 79.640625 56 84.28125 50.015625 
Q 88.921875 44.046875 88.921875 33.015625 
L 88.921875 0 
L 79.890625 0 
L 79.890625 32.71875 
Q 79.890625 40.578125 77.09375 44.375 
Q 74.3125 48.1875 68.609375 48.1875 
Q 61.625 48.1875 57.5625 43.546875 
Q 53.515625 38.921875 53.515625 30.90625 
L 53.515625 0 
L 44.484375 0 
L 44.484375 32.71875 
Q 44.484375 40.625 41.703125 44.40625 
Q 38.921875 48.1875 33.109375 48.1875 
Q 26.21875 48.1875 22.15625 43.53125 
Q 18.109375 38.875 18.109375 30.90625 
L 18.109375 0 
L 9.078125 0 
L 9.078125 54.6875 
L 18.109375 54.6875 
L 18.109375 46.1875 
Q 21.1875 51.21875 25.484375 53.609375 
Q 29.78125 56 35.6875 56 
Q 41.65625 56 45.828125 52.96875 
Q 50 49.953125 52 44.1875 
z
" id="DejaVuSans-109"/>
       <path d="M 56.203125 29.59375 
L 56.203125 25.203125 
L 14.890625 25.203125 
Q 15.484375 15.921875 20.484375 11.0625 
Q 25.484375 6.203125 34.421875 6.203125 
Q 39.59375 6.203125 44.453125 7.46875 
Q 49.3125 8.734375 54.109375 11.28125 
L 54.109375 2.78125 
Q 49.265625 0.734375 44.1875 -0.34375 
Q 39.109375 -1.421875 33.890625 -1.421875 
Q 20.796875 -1.421875 13.15625 6.1875 
Q 5.515625 13.8125 5.515625 26.8125 
Q 5.515625 40.234375 12.765625 48.109375 
Q 20.015625 56 32.328125 56 
Q 43.359375 56 49.78125 48.890625 
Q 56.203125 41.796875 56.203125 29.59375 
z
M 47.21875 32.234375 
Q 47.125 39.59375 43.09375 43.984375 
Q 39.0625 48.390625 32.421875 48.390625 
Q 24.90625 48.390625 20.390625 44.140625 
Q 15.875 39.890625 15.1875 32.171875 
z
" id="DejaVuSans-101"/>
       <path id="DejaVuSans-32"/>
       <path d="M 8.59375 75.984375 
L 29.296875 75.984375 
L 29.296875 69 
L 17.578125 69 
L 17.578125 -6.203125 
L 29.296875 -6.203125 
L 29.296875 -13.1875 
L 8.59375 -13.1875 
z
" id="DejaVuSans-91"/>
       <path d="M 44.28125 53.078125 
L 44.28125 44.578125 
Q 40.484375 46.53125 36.375 47.5 
Q 32.28125 48.484375 27.875 48.484375 
Q 21.1875 48.484375 17.84375 46.4375 
Q 14.5 44.390625 14.5 40.28125 
Q 14.5 37.15625 16.890625 35.375 
Q 19.28125 33.59375 26.515625 31.984375 
L 29.59375 31.296875 
Q 39.15625 29.25 43.1875 25.515625 
Q 47.21875 21.78125 47.21875 15.09375 
Q 47.21875 7.46875 41.1875 3.015625 
Q 35.15625 -1.421875 24.609375 -1.421875 
Q 20.21875 -1.421875 15.453125 -0.5625 
Q 10.6875 0.296875 5.421875 2 
L 5.421875 11.28125 
Q 10.40625 8.6875 15.234375 7.390625 
Q 20.0625 6.109375 24.8125 6.109375 
Q 31.15625 6.109375 34.5625 8.28125 
Q 37.984375 10.453125 37.984375 14.40625 
Q 37.984375 18.0625 35.515625 20.015625 
Q 33.0625 21.96875 24.703125 23.78125 
L 21.578125 24.515625 
Q 13.234375 26.265625 9.515625 29.90625 
Q 5.8125 33.546875 5.8125 39.890625 
Q 5.8125 47.609375 11.28125 51.796875 
Q 16.75 56 26.8125 56 
Q 31.78125 56 36.171875 55.265625 
Q 40.578125 54.546875 44.28125 53.078125 
z
" id="DejaVuSans-115"/>
       <path d="M 30.421875 75.984375 
L 30.421875 -13.1875 
L 9.71875 -13.1875 
L 9.71875 -6.203125 
L 21.390625 -6.203125 
L 21.390625 69 
L 9.71875 69 
L 9.71875 75.984375 
z
" id="DejaVuSans-93"/>
      </defs>
      <use xlink:href="#DejaVuSans-116"/>
      <use x="39.208984" xlink:href="#DejaVuSans-105"/>
      <use x="66.992188" xlink:href="#DejaVuSans-109"/>
      <use x="164.404297" xlink:href="#DejaVuSans-101"/>
      <use x="225.927734" xlink:href="#DejaVuSans-32"/>
      <use x="257.714844" xlink:href="#DejaVuSans-91"/>
      <use x="296.728516" xlink:href="#DejaVuSans-109"/>
      <use x="394.140625" xlink:href="#DejaVuSans-115"/>
      <use x="446.240234" xlink:href="#DejaVuSans-93"/>
     </g>
    </g>
   </g>
   <g id="matplotlib.axis_2">
    <g id="ytick_1">
     <g id="line2d_6">
      <defs>
       <path d="M 0 0 
L -3.5 0 
" id="m7dc936579f" style="stroke:#000000;stroke-width:0.8;"/>
      </defs>
      <g>
       <use style="stroke:#000000;stroke-width:0.8;" x="63" xlink:href="#m7dc936579f" y="368.640995"/>
      </g>
     </g>
     <g id="text_7">
      <!-- −125 -->
      <g transform="translate(28.532812 372.440214)scale(0.1 -0.1)">
       <defs>
        <path d="M 10.59375 35.5 
L 73.1875 35.5 
L 73.1875 27.203125 
L 10.59375 27.203125 
z
" id="DejaVuSans-8722"/>
       </defs>
       <use xlink:href="#DejaVuSans-8722"/>
       <use x="83.789062" xlink:href="#DejaVuSans-49"/>
       <use x="147.412109" xlink:href="#DejaVuSans-50"/>
       <use x="211.035156" xlink:href="#DejaVuSans-53"/>
      </g>
     </g>
    </g>
    <g id="ytick_2">
     <g id="line2d_7">
      <g>
       <use style="stroke:#000000;stroke-width:0.8;" x="63" xlink:href="#m7dc936579f" y="326.838378"/>
      </g>
     </g>
     <g id="text_8">
      <!-- −100 -->
      <g transform="translate(28.532812 330.637597)scale(0.1 -0.1)">
       <use xlink:href="#DejaVuSans-8722"/>
       <use x="83.789062" xlink:href="#DejaVuSans-49"/>
       <use x="147.412109" xlink:href="#DejaVuSans-48"/>
       <use x="211.035156" xlink:href="#DejaVuSans-48"/>
      </g>
     </g>
    </g>
    <g id="ytick_3">
     <g id="line2d_8">
      <g>
       <use style="stroke:#000000;stroke-width:0.8;" x="63" xlink:href="#m7dc936579f" y="285.035761"/>
      </g>
     </g>
     <g id="text_9">
      <!-- −75 -->
      <g transform="translate(34.895313 288.83498)scale(0.1 -0.1)">
       <use xlink:href="#DejaVuSans-8722"/>
       <use x="83.789062" xlink:href="#DejaVuSans-55"/>
       <use x="147.412109" xlink:href="#DejaVuSans-53"/>
      </g>
     </g>
    </g>
    <g id="ytick_4">
     <g id="line2d_9">
      <g>
       <use style="stroke:#000000;stroke-width:0.8;" x="63" xlink:href="#m7dc936579f" y="243.233144"/>
      </g>
     </g>
     <g id="text_10">
      <!-- −50 -->
      <g transform="translate(34.895313 247.032363)scale(0.1 -0.1)">
       <use xlink:href="#DejaVuSans-8722"/>
       <use x="83.789062" xlink:href="#DejaVuSans-53"/>
       <use x="147.412109" xlink:href="#DejaVuSans-48"/>
      </g>
     </g>
    </g>
    <g id="ytick_5">
     <g id="line2d_10">
      <g>
       <use style="stroke:#000000;stroke-width:0.8;" x="63" xlink:href="#m7dc936579f" y="201.430527"/>
      </g>
     </g>
     <g id="text_11">
      <!-- −25 -->
      <g transform="translate(34.895313 205.229746)scale(0.1 -0.1)">
       <use xlink:href="#DejaVuSans-8722"/>
       <use x="83.789062" xlink:href="#DejaVuSans-50"/>
       <use x="147.412109" xlink:href="#DejaVuSans-53"/>
      </g>
     </g>
    </g>
    <g id="ytick_6">
     <g id="line2d_11">
      <g>
       <use style="stroke:#000000;stroke-width:0.8;" x="63" xlink:href="#m7dc936579f" y="159.627911"/>
      </g>
     </g>
     <g id="text_12">
      <!-- 0 -->
      <g transform="translate(49.6375 163.427129)scale(0.1 -0.1)">
       <use xlink:href="#DejaVuSans-48"/>
      </g>
     </g>
    </g>
    <g id="ytick_7">
     <g id="line2d_12">
      <g>
       <use style="stroke:#000000;stroke-width:0.8;" x="63" xlink:href="#m7dc936579f" y="117.825294"/>
      </g>
     </g>
     <g id="text_13">
      <!-- 25 -->
      <g transform="translate(43.275 121.624512)scale(0.1 -0.1)">
       <use xlink:href="#DejaVuSans-50"/>
       <use x="63.623047" xlink:href="#DejaVuSans-53"/>
      </g>
     </g>
    </g>
    <g id="ytick_8">
     <g id="line2d_13">
      <g>
       <use style="stroke:#000000;stroke-width:0.8;" x="63" xlink:href="#m7dc936579f" y="76.022677"/>
      </g>
     </g>
     <g id="text_14">
      <!-- 50 -->
      <g transform="translate(43.275 79.821895)scale(0.1 -0.1)">
       <use xlink:href="#DejaVuSans-53"/>
       <use x="63.623047" xlink:href="#DejaVuSans-48"/>
      </g>
     </g>
    </g>
    <g id="text_15">
     <!-- voltage [mV] -->
     <g transform="translate(22.453125 250.624062)rotate(-90)scale(0.1 -0.1)">
      <defs>
       <path d="M 2.984375 54.6875 
L 12.5 54.6875 
L 29.59375 8.796875 
L 46.6875 54.6875 
L 56.203125 54.6875 
L 35.6875 0 
L 23.484375 0 
z
" id="DejaVuSans-118"/>
       <path d="M 30.609375 48.390625 
Q 23.390625 48.390625 19.1875 42.75 
Q 14.984375 37.109375 14.984375 27.296875 
Q 14.984375 17.484375 19.15625 11.84375 
Q 23.34375 6.203125 30.609375 6.203125 
Q 37.796875 6.203125 41.984375 11.859375 
Q 46.1875 17.53125 46.1875 27.296875 
Q 46.1875 37.015625 41.984375 42.703125 
Q 37.796875 48.390625 30.609375 48.390625 
z
M 30.609375 56 
Q 42.328125 56 49.015625 48.375 
Q 55.71875 40.765625 55.71875 27.296875 
Q 55.71875 13.875 49.015625 6.21875 
Q 42.328125 -1.421875 30.609375 -1.421875 
Q 18.84375 -1.421875 12.171875 6.21875 
Q 5.515625 13.875 5.515625 27.296875 
Q 5.515625 40.765625 12.171875 48.375 
Q 18.84375 56 30.609375 56 
z
" id="DejaVuSans-111"/>
       <path d="M 9.421875 75.984375 
L 18.40625 75.984375 
L 18.40625 0 
L 9.421875 0 
z
" id="DejaVuSans-108"/>
       <path d="M 34.28125 27.484375 
Q 23.390625 27.484375 19.1875 25 
Q 14.984375 22.515625 14.984375 16.5 
Q 14.984375 11.71875 18.140625 8.90625 
Q 21.296875 6.109375 26.703125 6.109375 
Q 34.1875 6.109375 38.703125 11.40625 
Q 43.21875 16.703125 43.21875 25.484375 
L 43.21875 27.484375 
z
M 52.203125 31.203125 
L 52.203125 0 
L 43.21875 0 
L 43.21875 8.296875 
Q 40.140625 3.328125 35.546875 0.953125 
Q 30.953125 -1.421875 24.3125 -1.421875 
Q 15.921875 -1.421875 10.953125 3.296875 
Q 6 8.015625 6 15.921875 
Q 6 25.140625 12.171875 29.828125 
Q 18.359375 34.515625 30.609375 34.515625 
L 43.21875 34.515625 
L 43.21875 35.40625 
Q 43.21875 41.609375 39.140625 45 
Q 35.0625 48.390625 27.6875 48.390625 
Q 23 48.390625 18.546875 47.265625 
Q 14.109375 46.140625 10.015625 43.890625 
L 10.015625 52.203125 
Q 14.9375 54.109375 19.578125 55.046875 
Q 24.21875 56 28.609375 56 
Q 40.484375 56 46.34375 49.84375 
Q 52.203125 43.703125 52.203125 31.203125 
z
" id="DejaVuSans-97"/>
       <path d="M 45.40625 27.984375 
Q 45.40625 37.75 41.375 43.109375 
Q 37.359375 48.484375 30.078125 48.484375 
Q 22.859375 48.484375 18.828125 43.109375 
Q 14.796875 37.75 14.796875 27.984375 
Q 14.796875 18.265625 18.828125 12.890625 
Q 22.859375 7.515625 30.078125 7.515625 
Q 37.359375 7.515625 41.375 12.890625 
Q 45.40625 18.265625 45.40625 27.984375 
z
M 54.390625 6.78125 
Q 54.390625 -7.171875 48.1875 -13.984375 
Q 42 -20.796875 29.203125 -20.796875 
Q 24.46875 -20.796875 20.265625 -20.09375 
Q 16.0625 -19.390625 12.109375 -17.921875 
L 12.109375 -9.1875 
Q 16.0625 -11.328125 19.921875 -12.34375 
Q 23.78125 -13.375 27.78125 -13.375 
Q 36.625 -13.375 41.015625 -8.765625 
Q 45.40625 -4.15625 45.40625 5.171875 
L 45.40625 9.625 
Q 42.625 4.78125 38.28125 2.390625 
Q 33.9375 0 27.875 0 
Q 17.828125 0 11.671875 7.65625 
Q 5.515625 15.328125 5.515625 27.984375 
Q 5.515625 40.671875 11.671875 48.328125 
Q 17.828125 56 27.875 56 
Q 33.9375 56 38.28125 53.609375 
Q 42.625 51.21875 45.40625 46.390625 
L 45.40625 54.6875 
L 54.390625 54.6875 
z
" id="DejaVuSans-103"/>
       <path d="M 28.609375 0 
L 0.78125 72.90625 
L 11.078125 72.90625 
L 34.1875 11.53125 
L 57.328125 72.90625 
L 67.578125 72.90625 
L 39.796875 0 
z
" id="DejaVuSans-86"/>
      </defs>
      <use xlink:href="#DejaVuSans-118"/>
      <use x="59.179688" xlink:href="#DejaVuSans-111"/>
      <use x="120.361328" xlink:href="#DejaVuSans-108"/>
      <use x="148.144531" xlink:href="#DejaVuSans-116"/>
      <use x="187.353516" xlink:href="#DejaVuSans-97"/>
      <use x="248.632812" xlink:href="#DejaVuSans-103"/>
      <use x="312.109375" xlink:href="#DejaVuSans-101"/>
      <use x="373.632812" xlink:href="#DejaVuSans-32"/>
      <use x="405.419922" xlink:href="#DejaVuSans-91"/>
      <use x="444.433594" xlink:href="#DejaVuSans-109"/>
      <use x="541.845703" xlink:href="#DejaVuSans-86"/>
      <use x="610.253906" xlink:href="#DejaVuSans-93"/>
     </g>
    </g>
   </g>
   <g id="line2d_14">
    <path clip-path="url(#p84d2c16b9f)" d="M 80.754545 257.439502 
L 83.385088 257.357857 
L 83.417364 257.276211 
L 83.465779 257.439502 
L 83.498056 257.357857 
L 83.514194 257.439502 
L 83.594885 257.357857 
L 83.723992 257.276211 
L 84.547045 257.357857 
L 84.676151 257.439502 
L 84.96664 257.357857 
L 85.095747 257.276211 
L 85.176438 257.357857 
L 85.208715 257.276211 
L 85.337821 257.357857 
L 85.35396 257.439502 
L 85.402374 257.276211 
L 85.434651 257.276211 
L 86.322257 257.357857 
L 86.451364 257.439502 
L 87.419661 257.521148 
L 87.532629 257.602794 
L 87.581044 257.521148 
L 87.645598 257.602794 
L 88.694587 257.68444 
L 88.807555 257.766085 
L 88.85597 257.68444 
L 89.049629 248.376826 
L 89.501501 239.640732 
L 90.356831 228.291975 
L 91.196022 220.862213 
L 91.470373 218.902715 
L 91.777001 216.861572 
L 92.551639 213.514096 
L 92.583916 213.432451 
L 92.793714 212.942576 
L 92.82599 212.86093 
L 93.11648 211.962827 
L 93.310139 211.881182 
L 93.503799 211.472953 
L 93.552214 211.391307 
L 93.745873 210.983079 
L 93.858841 210.901433 
L 94.020224 210.656496 
L 94.213884 210.57485 
L 94.391405 210.248267 
L 95.843851 210.166621 
L 95.989096 209.840038 
L 96.005234 209.921684 
L 96.118202 209.840038 
L 96.247309 209.758392 
L 96.553936 209.676747 
L 96.683043 209.595101 
L 96.892841 210.084975 
L 96.957394 210.166621 
L 97.167192 210.656496 
L 97.393128 210.57485 
L 97.425404 210.493204 
L 97.506096 210.57485 
L 97.845 210.493204 
L 97.990245 210.329913 
L 98.006383 210.411558 
L 98.03866 210.248267 
L 98.103213 210.329913 
L 98.264596 210.411558 
L 98.296872 210.493204 
L 98.361426 210.329913 
L 98.50667 210.411558 
L 98.538947 210.493204 
L 98.571223 210.329913 
L 98.619638 210.411558 
L 99.119925 210.329913 
L 99.26517 210.166621 
L 99.959117 210.084975 
L 100.055947 210.00333 
L 100.072085 210.084975 
L 100.1205 210.166621 
L 100.362574 211.554599 
L 100.604649 212.207765 
L 100.653063 212.28941 
L 100.733755 212.371056 
L 100.766031 212.28941 
L 100.943553 212.207765 
L 101.056521 211.962827 
L 101.088797 212.044473 
L 101.217904 211.962827 
L 101.395425 211.636244 
L 101.427702 211.71789 
L 101.508393 211.636244 
L 101.556808 211.554599 
L 101.702053 211.391307 
L 101.831159 211.309661 
L 101.960265 211.228016 
L 102.040957 211.309661 
L 102.073233 211.228016 
L 102.153925 211.14637 
L 102.331446 210.819787 
L 102.347584 210.901433 
L 102.379861 210.738141 
L 102.428276 210.819787 
L 102.589659 210.57485 
L 102.718765 210.656496 
L 102.993116 210.57485 
L 103.057669 210.329913 
L 103.122223 210.493204 
L 103.235191 210.57485 
L 103.251329 210.656496 
L 103.33202 210.493204 
L 103.348159 210.57485 
L 103.461127 210.411558 
L 103.477265 210.493204 
L 103.687063 210.411558 
L 103.816169 210.329913 
L 104.09052 210.248267 
L 104.18735 210.166621 
L 104.203488 210.248267 
L 104.38101 210.166621 
L 104.526254 209.840038 
L 104.542393 209.921684 
L 104.639222 209.840038 
L 104.687637 209.758392 
L 104.75219 209.840038 
L 104.897435 209.758392 
L 105.026541 209.676747 
L 105.236339 209.758392 
L 105.317031 209.840038 
L 105.349307 209.758392 
L 106.107807 209.676747 
L 106.123945 209.595101 
L 106.17236 209.758392 
L 106.220775 209.676747 
L 106.882445 209.758392 
L 107.011552 209.840038 
L 107.705498 209.758392 
L 107.737775 209.676747 
L 107.78619 209.840038 
L 107.802328 209.840038 
L 108.383307 209.758392 
L 108.528551 209.595101 
L 108.576966 209.513455 
L 108.706073 209.43181 
L 109.254775 209.350164 
L 109.335466 209.268518 
L 109.367743 209.350164 
L 109.690509 209.268518 
L 109.819615 209.105227 
L 109.916445 209.186872 
L 109.932583 209.105227 
L 110.416732 209.186872 
L 110.561977 209.350164 
L 110.691083 209.268518 
L 111.368891 209.350164 
L 111.530274 209.595101 
L 112.256498 209.676747 
L 112.321051 209.595101 
L 112.385604 209.758392 
L 112.821338 209.840038 
L 112.837476 209.921684 
L 112.869753 209.758392 
L 112.934306 209.840038 
L 113.17638 209.921684 
L 113.337763 210.166621 
L 113.434593 210.248267 
L 113.579838 210.411558 
L 113.789636 210.329913 
L 113.870327 210.248267 
L 113.902604 210.329913 
L 114.160817 210.411558 
L 114.257646 210.493204 
L 114.273785 210.411558 
L 114.386753 210.248267 
L 114.402891 210.329913 
L 114.483582 210.248267 
L 114.580412 210.084975 
L 114.612689 210.166621 
L 114.806348 210.084975 
L 114.935455 210.00333 
L 115.35505 209.921684 
L 115.484157 209.840038 
L 115.532572 209.921684 
L 115.580986 209.840038 
L 115.710093 209.758392 
L 115.839199 209.676747 
L 115.984444 209.513455 
L 116.21038 209.43181 
L 116.339486 209.350164 
L 116.484731 209.268518 
L 116.629976 209.105227 
L 116.710667 209.023581 
L 116.742944 208.941935 
L 116.823635 209.023581 
L 117.017295 209.105227 
L 117.033433 209.186872 
L 117.130263 209.105227 
L 117.259369 209.186872 
L 117.501444 209.840038 
L 117.549858 209.921684 
L 117.743518 210.329913 
L 117.921039 210.411558 
L 118.050146 210.493204 
L 118.647263 210.411558 
L 118.776369 210.329913 
L 119.05072 210.248267 
L 119.131411 210.166621 
L 119.163688 210.248267 
L 119.518731 210.166621 
L 119.663975 210.00333 
L 119.80922 209.921684 
L 119.938326 209.840038 
L 120.002879 209.921684 
L 120.051294 209.840038 
L 120.228815 209.513455 
L 120.438613 209.43181 
L 120.56772 209.350164 
L 120.664549 209.268518 
L 120.696826 209.186872 
L 120.745241 209.350164 
L 120.761379 209.350164 
L 120.858209 209.43181 
L 120.874347 209.350164 
L 121.116422 209.43181 
L 121.261666 209.595101 
L 121.471464 209.513455 
L 121.616709 209.350164 
L 121.778092 209.268518 
L 121.939475 209.023581 
L 122.116996 208.941935 
L 122.246102 208.860289 
L 122.407485 209.105227 
L 122.423624 209.023581 
L 122.520453 209.105227 
L 122.697975 209.023581 
L 122.810943 208.860289 
L 122.827081 208.941935 
L 123.133709 209.023581 
L 123.278953 209.186872 
L 123.553304 209.268518 
L 123.682411 209.43181 
L 123.843794 209.186872 
L 123.924485 209.268518 
L 123.940623 209.350164 
L 124.005177 209.186872 
L 124.021315 209.186872 
L 124.360219 209.105227 
L 124.489325 209.023581 
L 124.682985 209.105227 
L 124.844368 209.350164 
L 125.280102 209.43181 
L 125.360793 209.595101 
L 125.39307 209.513455 
L 125.522176 209.43181 
L 125.764251 209.350164 
L 125.780389 209.268518 
L 125.877219 209.350164 
L 126.038602 209.268518 
L 126.167708 209.186872 
L 126.329091 209.105227 
L 126.458197 209.023581 
L 126.587304 209.105227 
L 126.651857 209.186872 
L 126.700272 209.105227 
L 127.136006 209.023581 
L 127.152144 208.941935 
L 127.232836 209.023581 
L 127.248974 209.105227 
L 127.297389 208.941935 
L 127.329665 208.941935 
L 127.394219 209.023581 
L 127.442633 209.186872 
L 127.507187 209.105227 
L 127.636293 209.023581 
L 127.765399 209.105227 
L 127.975197 209.023581 
L 128.120442 208.860289 
L 128.217272 208.778644 
L 128.346378 208.696998 
L 128.410931 208.615352 
L 128.540038 208.533706 
L 129.08874 208.452061 
L 129.137154 208.370415 
L 129.201708 208.452061 
L 129.605165 208.533706 
L 129.734271 208.615352 
L 129.831101 208.533706 
L 130.024761 208.125478 
L 130.137729 208.043832 
L 130.282973 207.880541 
L 130.525048 207.798895 
L 130.541186 207.717249 
L 130.589601 207.880541 
L 130.621878 207.798895 
L 130.670292 207.880541 
L 130.734846 207.798895 
L 131.07375 207.717249 
L 131.218995 207.553958 
L 132.477782 207.635603 
L 132.606888 207.717249 
L 132.768271 207.635603 
L 132.816686 207.553958 
L 132.881239 207.635603 
L 133.268558 207.717249 
L 133.397664 207.798895 
L 133.413803 207.798895 
L 133.559047 208.207124 
L 133.591324 208.125478 
L 133.639739 208.370415 
L 133.655877 208.288769 
L 133.768845 208.370415 
L 133.962505 208.778644 
L 133.994781 208.860289 
L 134.156164 209.186872 
L 134.285271 209.105227 
L 134.430515 209.186872 
L 134.559622 209.350164 
L 134.688728 209.268518 
L 134.979217 209.186872 
L 135.108324 209.105227 
L 135.33426 209.023581 
L 135.414951 208.860289 
L 135.463366 208.941935 
L 135.818409 208.860289 
L 135.834547 208.778644 
L 135.866824 208.941935 
L 135.931377 208.860289 
L 136.044345 208.778644 
L 136.060483 208.696998 
L 136.157313 208.778644 
L 136.883536 208.696998 
L 137.061057 208.370415 
L 137.174025 208.288769 
L 137.206302 208.207124 
L 137.238579 208.370415 
L 137.270855 208.370415 
L 137.367685 208.288769 
L 137.432238 208.125478 
L 137.480653 208.288769 
L 137.690451 208.207124 
L 137.835696 208.043832 
L 137.98094 208.207124 
L 138.110047 208.125478 
L 138.206876 207.880541 
L 138.255291 207.962186 
L 138.707163 207.880541 
L 138.83627 207.798895 
L 138.900823 207.880541 
L 138.949238 207.798895 
L 139.126759 207.880541 
L 139.255866 207.962186 
L 139.30428 207.880541 
L 139.368834 207.962186 
L 139.772291 207.880541 
L 139.901397 207.717249 
L 139.998227 207.798895 
L 140.014365 207.717249 
L 140.756727 207.635603 
L 140.91811 207.390666 
L 141.047216 207.30902 
L 141.127908 207.227375 
L 141.160184 207.30902 
L 141.434535 208.125478 
L 141.902546 208.043832 
L 142.031652 207.962186 
L 142.14462 207.880541 
L 142.273727 207.798895 
L 142.386695 207.880541 
L 142.515801 207.798895 
L 142.80629 207.717249 
L 142.951535 207.553958 
L 144.339429 207.635603 
L 144.468535 207.962186 
L 144.484673 207.880541 
L 144.581503 207.798895 
L 144.597641 207.880541 
L 144.678333 207.962186 
L 144.823577 208.125478 
L 145.340003 208.043832 
L 145.485247 207.880541 
L 145.64663 207.798895 
L 145.775737 207.717249 
L 146.308301 207.635603 
L 146.388992 207.472312 
L 146.437407 207.553958 
L 147.244322 207.635603 
L 147.26046 207.717249 
L 147.35729 207.635603 
L 147.550949 207.553958 
L 147.680056 207.472312 
L 147.809162 207.553958 
L 147.938268 207.472312 
L 147.970545 207.390666 
L 148.051236 207.472312 
L 148.180343 207.553958 
L 148.325587 207.717249 
L 148.374002 207.635603 
L 148.503109 207.553958 
L 148.632215 207.635603 
L 148.858151 207.553958 
L 148.890428 207.390666 
L 148.987258 207.472312 
L 149.100226 207.553958 
L 149.116364 207.635603 
L 149.164779 207.472312 
L 149.213194 207.553958 
L 149.358438 207.390666 
L 149.697343 207.472312 
L 149.826449 207.553958 
L 149.971694 207.553958 
L 150.00397 207.390666 
L 150.084662 207.472312 
L 150.407427 207.553958 
L 150.601087 208.043832 
L 150.76247 207.798895 
L 151.085236 207.880541 
L 151.149789 207.962186 
L 151.198204 207.880541 
L 151.32731 207.798895 
L 151.343449 207.880541 
L 151.375725 207.717249 
L 151.440278 207.798895 
L 151.811459 207.717249 
L 151.843736 207.635603 
L 151.924427 207.717249 
L 152.424714 207.635603 
L 152.586097 207.390666 
L 152.908863 207.30902 
L 152.94114 207.227375 
L 153.005693 207.390666 
L 153.054108 207.30902 
L 153.070246 207.227375 
L 153.150938 207.390666 
L 153.328459 207.30902 
L 153.360736 207.227375 
L 153.40915 207.30902 
L 153.60281 216.616634 
L 154.054682 225.271082 
L 154.425863 230.578055 
L 154.861597 235.640091 
L 154.990703 236.864777 
L 155.265054 239.395795 
L 155.765342 243.396436 
L 155.991278 245.110996 
L 156.314044 247.315431 
L 156.927299 250.989489 
L 157.137097 252.050884 
L 158.460437 258.174314 
L 158.492713 258.25596 
L 158.815479 259.317354 
L 158.847756 259.399 
L 159.154383 260.378749 
L 159.18666 260.460395 
L 159.428735 261.113561 
L 159.461011 261.195206 
L 159.735362 262.011664 
L 159.816054 262.093309 
L 160.025851 262.583184 
L 160.058128 262.664829 
L 160.284064 263.23635 
L 160.348617 263.317995 
L 160.542277 263.726224 
L 160.60683 263.80787 
L 160.80049 264.297744 
L 160.816628 264.216098 
L 160.865043 264.37939 
L 160.897319 264.37939 
L 160.978011 264.461036 
L 161.139394 264.705973 
L 161.300777 264.787619 
L 161.478298 265.114202 
L 161.526713 265.032556 
L 161.591266 265.114202 
L 161.752649 265.359139 
L 161.897894 265.440785 
L 162.043138 265.604076 
L 162.091553 265.685722 
L 162.236798 265.849013 
L 162.285213 265.930659 
L 162.317489 266.012305 
L 162.398181 265.930659 
L 162.462734 266.012305 
L 162.607979 266.175596 
L 162.995298 266.257242 
L 163.124404 266.338888 
L 163.318064 266.420533 
L 163.431032 266.583825 
L 163.44717 266.502179 
L 163.527861 266.583825 
L 163.656968 266.665471 
L 163.931319 266.747116 
L 164.060425 266.828762 
L 164.544574 266.747116 
L 164.625266 266.665471 
L 164.657542 266.747116 
L 165.997021 266.665471 
L 166.126127 266.502179 
L 166.206818 266.583825 
L 166.239095 266.502179 
L 166.432755 266.420533 
L 166.577999 266.257242 
L 166.900765 266.175596 
L 167.029872 266.09395 
L 167.304223 266.012305 
L 167.465606 265.767367 
L 167.659265 265.685722 
L 167.788371 265.604076 
L 168.014308 265.52243 
L 168.175691 265.277493 
L 168.191829 265.359139 
L 168.288659 265.277493 
L 168.450042 265.195847 
L 168.56301 265.114202 
L 168.579148 265.195847 
L 168.627563 265.032556 
L 168.659839 265.032556 
L 168.837361 264.95091 
L 168.853499 264.869264 
L 168.885775 265.032556 
L 168.950329 264.95091 
L 169.12785 264.869264 
L 169.273095 264.705973 
L 169.418339 264.624327 
L 169.499031 264.542681 
L 169.611999 258.174314 
L 169.708829 258.25596 
L 169.724967 258.337605 
L 169.821797 258.25596 
L 170.951477 258.337605 
L 170.967616 258.419251 
L 171.064445 258.337605 
L 171.790669 258.419251 
L 171.822945 258.500897 
L 171.903637 258.419251 
L 172.048881 258.25596 
L 172.177988 258.337605 
L 172.387786 258.25596 
L 172.516892 258.174314 
L 173.162424 258.092668 
L 173.307668 257.929377 
L 174.518041 258.011023 
L 174.647147 258.092668 
L 175.115157 258.174314 
L 175.147434 258.25596 
L 175.228126 258.174314 
L 175.389508 258.25596 
L 175.405647 258.337605 
L 175.502477 258.25596 
L 175.615445 258.337605 
L 175.712274 258.419251 
L 175.728413 258.337605 
L 175.954349 258.419251 
L 176.083455 258.500897 
L 176.099593 258.419251 
L 176.180285 258.582543 
L 176.196423 258.500897 
L 176.664434 258.419251 
L 176.79354 258.337605 
L 176.938785 258.25596 
L 177.019476 258.337605 
L 177.067891 258.174314 
L 177.213136 258.25596 
L 177.293827 258.337605 
L 177.326104 258.25596 
L 177.616593 258.25596 
L 177.810253 246.090745 
L 178.391231 231.802741 
L 179.149731 218.657778 
L 179.82754 210.00333 
L 180.39238 205.349523 
L 180.924944 203.226734 
L 180.95722 203.145088 
L 181.15088 202.736859 
L 181.312263 202.655213 
L 181.522061 202.165339 
L 181.538199 202.165339 
L 181.683444 201.75711 
L 181.764135 201.675465 
L 181.90938 201.512173 
L 182.328975 201.430527 
L 182.522635 201.022299 
L 182.66788 200.940653 
L 182.861539 200.532424 
L 182.926092 200.61407 
L 182.974507 200.695716 
L 183.03906 200.61407 
L 183.103614 200.532424 
L 183.264997 200.287487 
L 183.313411 200.205841 
L 183.539348 199.634321 
L 183.620039 199.552675 
L 183.829837 199.062801 
L 183.89439 198.981155 
L 184.184879 198.083052 
L 184.233294 198.164698 
L 184.297847 198.083052 
L 184.539922 197.429886 
L 184.814273 197.348241 
L 184.927241 196.858366 
L 184.991794 197.021658 
L 185.072486 196.940012 
L 185.250007 196.368492 
L 185.282283 196.450138 
L 185.346837 196.368492 
L 185.669602 195.307097 
L 185.718017 195.225451 
L 186.411964 191.143165 
L 186.428102 190.65329 
L 186.444241 185.591255 
L 186.492656 74.634699 
L 186.573347 132.684818 
L 186.73473 198.654572 
L 186.944528 200.777362 
L 188.05807 211.064724 
L 188.074208 211.064724 
L 188.25173 211.799536 
L 188.477666 212.371056 
L 188.526081 212.452702 
L 188.752017 213.024222 
L 188.800432 213.105868 
L 188.961815 213.350805 
L 189.026368 213.269159 
L 189.058644 213.350805 
L 189.187751 213.432451 
L 189.720315 213.350805 
L 189.865559 213.187513 
L 190.091495 213.105868 
L 190.23674 212.942576 
L 190.285155 212.86093 
L 190.414261 212.697639 
L 190.4304 212.779285 
L 190.494953 212.615993 
L 190.511091 212.615993 
L 190.591783 212.534348 
L 190.720889 212.452702 
L 190.89841 212.371056 
L 191.027516 212.28941 
L 191.140485 212.207765 
L 191.301868 211.962827 
L 191.46325 211.881182 
L 191.640772 211.554599 
L 192.205612 211.472953 
L 192.366995 211.228016 
L 192.463825 211.14637 
L 192.625208 210.819787 
L 192.754314 210.901433 
L 192.835006 210.819787 
L 192.899559 210.738141 
L 192.947974 210.819787 
L 193.238463 210.738141 
L 193.383708 210.57485 
L 193.512814 210.493204 
L 193.658059 210.329913 
L 193.787165 210.411558 
L 193.964686 210.084975 
L 194.013101 210.166621 
L 194.061516 210.00333 
L 194.448835 209.921684 
L 194.59408 209.758392 
L 194.723186 209.676747 
L 194.900707 209.350164 
L 194.981399 209.268518 
L 195.126643 209.105227 
L 195.271888 209.023581 
L 195.35258 208.860289 
L 195.400994 208.941935 
L 195.465548 208.860289 
L 195.610792 208.696998 
L 195.885143 208.615352 
L 196.01425 208.533706 
L 196.094941 208.452061 
L 196.256324 208.125478 
L 196.353154 208.207124 
L 196.369292 208.125478 
L 196.708196 208.043832 
L 196.837303 207.962186 
L 196.950271 208.043832 
L 196.982547 207.962186 
L 197.063239 208.043832 
L 197.14393 207.962186 
L 197.160069 207.880541 
L 197.224622 208.043832 
L 197.24076 208.043832 
L 197.402143 208.125478 
L 197.579664 208.615352 
L 197.595803 208.533706 
L 197.644218 208.615352 
L 197.821739 208.941935 
L 197.854015 208.860289 
L 197.934707 208.941935 
L 197.966983 209.023581 
L 198.112228 209.186872 
L 198.467271 209.105227 
L 198.483409 209.023581 
L 198.580239 209.105227 
L 198.644792 209.023581 
L 198.822313 208.696998 
L 199.032111 208.615352 
L 199.209632 208.288769 
L 199.241909 208.370415 
L 199.306462 208.207124 
L 199.500121 207.798895 
L 199.629228 207.880541 
L 199.790611 207.798895 
L 199.951994 207.553958 
L 200.032685 207.472312 
L 200.161792 207.390666 
L 200.532972 207.30902 
L 200.662079 207.064083 
L 200.678217 207.145729 
L 200.807323 207.064083 
L 200.968706 206.819146 
L 201.065536 206.7375 
L 201.226919 206.492563 
L 201.372164 206.410917 
L 201.50127 206.329272 
L 201.646515 206.247626 
L 201.807898 206.002689 
L 201.856313 206.084334 
L 201.985419 206.16598 
L 202.146802 205.921043 
L 202.275908 206.002689 
L 202.3566 205.921043 
L 202.517983 205.676106 
L 202.582536 205.59446 
L 202.727781 205.349523 
L 202.743919 205.431168 
L 202.776195 205.267877 
L 202.82461 205.267877 
L 203.034408 205.186231 
L 203.179653 205.02294 
L 203.550834 205.104586 
L 203.67994 205.186231 
L 203.77677 205.267877 
L 203.905876 205.349523 
L 204.632099 205.267877 
L 204.777344 205.104586 
L 204.858035 205.02294 
L 204.987142 204.941294 
L 205.116248 205.104586 
L 205.164663 205.02294 
L 205.19694 205.186231 
L 205.229216 205.104586 
L 205.358323 205.349523 
L 205.374461 205.267877 
L 206.052269 205.349523 
L 206.213652 205.59446 
L 206.455727 205.676106 
L 206.61711 205.921043 
L 206.762354 206.002689 
L 206.907599 206.16598 
L 207.343333 206.084334 
L 207.359471 206.002689 
L 207.456301 206.084334 
L 207.472439 206.16598 
L 207.569269 206.084334 
L 207.666099 206.16598 
L 207.682237 206.247626 
L 207.779067 206.16598 
L 208.021141 206.084334 
L 208.182524 205.839397 
L 208.230939 205.757751 
L 208.40846 205.431168 
L 208.60212 205.349523 
L 208.731226 205.267877 
L 208.989439 205.186231 
L 209.118545 205.104586 
L 209.215375 205.02294 
L 209.36062 204.859648 
L 209.538141 204.778003 
L 209.731801 204.369774 
L 210.038428 204.288128 
L 210.183673 204.124837 
L 210.232088 204.206482 
L 210.393471 204.45142 
L 211.055141 204.369774 
L 211.232662 204.043191 
L 211.297215 204.124837 
L 211.329492 204.043191 
L 211.474737 203.879899 
L 211.652258 203.798254 
L 211.749088 203.716608 
L 211.765226 203.798254 
L 211.813641 203.716608 
L 211.958885 203.553317 
L 212.023439 203.471671 
L 212.039577 203.390025 
L 212.087992 203.553317 
L 212.120268 203.553317 
L 212.217098 203.634962 
L 212.362343 203.798254 
L 212.410758 203.716608 
L 212.475311 203.553317 
L 212.523726 203.716608 
L 212.588279 203.634962 
L 212.636694 203.553317 
L 212.685109 203.634962 
L 212.86263 203.961545 
L 213.185396 203.879899 
L 213.217672 203.798254 
L 213.266087 203.961545 
L 213.282226 203.961545 
L 213.556577 203.879899 
L 213.653406 203.798254 
L 213.669545 203.879899 
L 213.814789 203.798254 
L 214.008449 203.390025 
L 214.056864 203.308379 
L 214.073002 203.226734 
L 214.169832 203.308379 
L 214.2828 203.226734 
L 214.411906 203.145088 
L 214.589427 203.063442 
L 214.734672 202.900151 
L 214.84764 202.981796 
L 214.879917 203.063442 
L 214.928332 202.900151 
L 214.94447 202.900151 
L 215.202683 202.818505 
L 215.331789 202.736859 
L 215.460895 202.818505 
L 215.751385 202.900151 
L 215.767523 202.981796 
L 215.864353 202.900151 
L 216.058012 202.491922 
L 216.138704 202.410276 
L 216.300087 202.083693 
L 216.380778 202.165339 
L 216.413055 202.083693 
L 216.542161 202.002048 
L 216.687406 201.838756 
L 216.92948 201.75711 
L 216.977895 201.675465 
L 217.02631 201.75711 
L 217.042448 201.838756 
L 217.139278 201.75711 
L 217.704118 201.838756 
L 217.833225 201.920402 
L 217.849363 201.838756 
L 217.946193 201.920402 
L 218.204406 201.920402 
L 218.34965 202.328631 
L 218.656278 202.246985 
L 218.785384 202.165339 
L 218.962905 202.246985 
L 219.027459 202.165339 
L 219.075874 202.328631 
L 219.20498 202.246985 
L 219.414778 202.328631 
L 219.576161 202.573568 
L 219.915065 202.655213 
L 220.157139 203.308379 
L 220.270107 203.390025 
L 220.350799 203.553317 
L 220.399214 203.471671 
L 220.496044 203.390025 
L 220.62515 203.308379 
L 220.818809 203.390025 
L 220.834948 203.471671 
L 220.931777 203.390025 
L 221.125437 203.308379 
L 221.254543 203.226734 
L 221.319097 203.145088 
L 221.464341 202.981796 
L 221.722554 202.900151 
L 221.867799 202.736859 
L 221.900075 202.736859 
L 222.029182 202.410276 
L 222.077596 202.328631 
L 222.158288 202.083693 
L 222.222841 202.165339 
L 222.739267 202.083693 
L 222.900649 201.838756 
L 223.013618 201.75711 
L 223.158862 201.512173 
L 223.175001 201.593819 
L 223.239554 201.430527 
L 223.255692 201.512173 
L 223.449352 201.103944 
L 223.626873 201.022299 
L 223.852809 200.450779 
L 223.981915 200.369133 
L 224.046468 200.205841 
L 224.094883 200.287487 
L 224.272405 200.61407 
L 224.320819 200.532424 
L 224.385373 200.450779 
L 224.433788 200.532424 
L 224.514479 200.695716 
L 224.562894 200.61407 
L 224.692 200.695716 
L 224.853383 200.940653 
L 225.127734 200.859007 
L 225.256841 200.777362 
L 225.289117 200.859007 
L 225.305255 200.940653 
L 225.35367 200.777362 
L 225.385947 200.777362 
L 225.54733 200.859007 
L 225.692575 201.022299 
L 225.740989 200.940653 
L 225.886234 200.777362 
L 226.063755 200.695716 
L 226.338106 199.879258 
L 226.547904 199.960904 
L 226.580181 200.04255 
L 226.628596 199.879258 
L 226.644734 199.879258 
L 226.725425 199.797613 
L 226.87067 199.634321 
L 226.886808 199.715967 
L 226.9675 199.552675 
L 226.983638 199.634321 
L 227.06433 199.715967 
L 227.096606 199.797613 
L 227.161159 199.634321 
L 227.403234 199.634321 
L 227.53234 199.307738 
L 227.661447 199.226093 
L 227.677585 199.144447 
L 227.758276 199.226093 
L 227.855106 199.389384 
L 227.887383 199.307738 
L 228.048766 199.226093 
L 228.097181 199.144447 
L 228.161734 199.226093 
L 228.419946 199.144447 
L 228.597468 198.817864 
L 228.823404 198.736218 
L 228.871819 198.572927 
L 228.936372 198.736218 
L 229.081617 198.654572 
L 229.259138 198.327989 
L 229.307553 198.246344 
L 229.468936 198.001406 
L 229.630319 198.083052 
L 229.646457 198.164698 
L 229.71101 198.001406 
L 229.727148 198.001406 
L 230.082191 197.919761 
L 230.098329 197.838115 
L 230.162882 198.001406 
L 230.179021 198.001406 
L 230.905244 197.919761 
L 231.195733 197.021658 
L 231.22801 196.940012 
L 231.421669 196.531783 
L 231.453946 196.450138 
L 231.954233 194.49064 
L 231.970371 194.572286 
L 232.034925 194.327348 
L 232.164031 192.531142 
L 232.180169 189.51025 
L 232.244722 73.736596 
L 232.309276 127.949365 
L 232.470659 197.756469 
L 232.535212 198.409635 
L 232.599765 198.246344 
L 232.74501 198.001406 
L 233.051637 200.124196 
L 233.551924 204.206482 
L 233.584201 204.288128 
L 233.826275 205.676106 
L 234.520222 208.615352 
L 234.584775 208.696998 
L 234.794573 209.186872 
L 234.842988 209.268518 
L 235.036647 209.676747 
L 235.101201 209.758392 
L 235.262584 210.00333 
L 235.359413 210.084975 
L 235.520796 210.329913 
L 235.601488 210.411558 
L 235.746732 210.57485 
L 235.908115 210.656496 
L 236.037222 210.738141 
L 236.117913 210.819787 
L 236.263158 211.064724 
L 236.279296 210.983079 
L 236.359988 211.14637 
L 236.521371 211.391307 
L 236.876413 211.309661 
L 237.005519 211.14637 
L 237.070073 211.309661 
L 237.118488 211.228016 
L 237.247594 211.14637 
L 237.392839 211.064724 
L 237.538083 210.901433 
L 237.57036 210.983079 
L 237.634913 210.901433 
L 237.812434 210.57485 
L 237.860849 210.493204 
L 238.006094 210.329913 
L 238.167477 210.248267 
L 238.312721 210.084975 
L 238.474104 210.00333 
L 238.619349 209.840038 
L 238.829147 209.758392 
L 238.974392 209.595101 
L 239.103498 209.513455 
L 239.264881 209.268518 
L 239.329434 209.186872 
L 239.490817 208.941935 
L 239.732891 208.860289 
L 239.861998 208.778644 
L 240.152487 208.696998 
L 240.281593 208.615352 
L 240.378423 208.696998 
L 240.394561 208.615352 
L 240.572083 208.533706 
L 240.701189 208.452061 
L 240.959402 208.370415 
L 241.104646 208.207124 
L 241.459689 208.125478 
L 241.604934 207.962186 
L 241.717902 207.880541 
L 241.879285 207.635603 
L 242.169774 207.635603 
L 242.363433 219.555881 
L 242.799167 229.435015 
L 243.234901 236.04832 
L 243.654497 240.865418 
L 243.783603 242.090104 
L 244.396859 247.233785 
L 244.638933 249.029992 
L 244.961699 251.234426 
L 246.494837 258.419251 
L 246.55939 258.500897 
L 246.946709 259.888874 
L 246.978986 259.97052 
L 247.237199 260.705332 
L 247.269475 260.786978 
L 247.527688 261.521789 
L 247.592241 261.603435 
L 247.834316 262.256601 
L 247.850454 262.256601 
L 247.995699 262.746475 
L 248.011837 262.664829 
L 248.060252 262.828121 
L 248.092528 262.828121 
L 248.302326 263.317995 
L 248.366879 263.399641 
L 248.576677 263.889516 
L 248.657369 263.971161 
L 248.83489 264.297744 
L 248.996273 264.37939 
L 249.173794 264.705973 
L 249.238347 264.787619 
L 249.383592 264.95091 
L 249.544975 265.032556 
L 249.706358 265.277493 
L 249.819326 265.359139 
L 249.980709 265.604076 
L 250.303475 265.685722 
L 250.416443 265.849013 
L 250.432581 265.767367 
L 250.513273 265.849013 
L 250.610102 266.012305 
L 250.642379 265.930659 
L 250.884453 266.012305 
L 251.01356 266.09395 
L 251.255634 266.175596 
L 251.271772 266.257242 
L 251.352464 266.09395 
L 251.497709 266.175596 
L 251.626815 266.257242 
L 252.43373 266.175596 
L 252.562836 266.012305 
L 252.691942 266.175596 
L 252.837187 266.012305 
L 252.934017 265.930659 
L 252.99857 265.849013 
L 253.046985 265.930659 
L 253.611825 265.849013 
L 253.75707 265.685722 
L 254.273495 265.604076 
L 254.41874 265.440785 
L 254.499431 265.52243 
L 254.531708 265.440785 
L 254.773783 265.359139 
L 254.789921 265.277493 
L 254.838336 265.440785 
L 254.886751 265.359139 
L 255.354761 265.277493 
L 255.483867 265.195847 
L 255.709804 265.114202 
L 255.83891 265.032556 
L 256.000293 264.95091 
L 256.129399 264.787619 
L 256.258506 264.869264 
L 256.387612 264.787619 
L 256.50058 264.705973 
L 256.645825 264.542681 
L 256.968591 264.461036 
L 257.097697 264.37939 
L 257.129974 264.297744 
L 257.275218 264.134453 
L 257.517293 264.052807 
L 257.646399 263.971161 
L 258.01758 263.889516 
L 258.146686 263.726224 
L 258.162824 263.80787 
L 258.259654 263.726224 
L 258.372622 258.990771 
L 259.647548 259.072417 
L 259.679824 259.154063 
L 259.760516 259.072417 
L 260.244665 258.990771 
L 260.276941 258.82748 
L 260.357633 258.990771 
L 261.42276 259.072417 
L 261.471175 259.154063 
L 261.51959 258.990771 
L 261.535728 259.072417 
L 262.616994 258.990771 
L 262.649271 258.909126 
L 262.729962 258.990771 
L 263.230249 259.072417 
L 263.359356 259.154063 
L 264.392206 259.235709 
L 264.521313 259.317354 
L 266.377217 259.317354 
L 266.570876 241.028709 
L 267.151855 219.555881 
L 268.265397 194.164057 
L 268.507472 191.469748 
L 268.846376 185.6729 
L 268.910929 73.410013 
L 268.991621 144.931678 
L 269.153004 198.491281 
L 269.18528 198.736218 
L 269.233695 198.409635 
L 269.395078 197.756469 
L 269.653291 198.491281 
L 269.75012 198.572927 
L 269.959918 199.062801 
L 270.072886 199.144447 
L 270.153578 199.307738 
L 270.201993 199.226093 
L 270.282684 199.307738 
L 270.395652 199.47103 
L 270.411791 199.389384 
L 270.573173 199.307738 
L 270.621588 199.226093 
L 270.653865 199.307738 
L 270.782971 199.552675 
L 270.79911 199.634321 
L 270.879801 199.552675 
L 271.025046 199.389384 
L 271.154152 199.47103 
L 271.218705 199.634321 
L 271.26712 199.552675 
L 271.428503 199.226093 
L 271.444641 199.307738 
L 271.525333 199.226093 
L 271.670578 199.062801 
L 271.735131 198.981155 
L 271.944929 198.491281 
L 272.02562 198.409635 
L 272.283833 197.593178 
L 272.299971 197.674824 
L 272.396801 197.593178 
L 272.445216 197.593178 
L 272.59046 197.184949 
L 272.832535 196.531783 
L 272.88095 196.450138 
L 273.139162 195.715326 
L 273.332822 195.796972 
L 273.510343 196.123555 
L 273.558758 196.2052 
L 273.704003 196.368492 
L 273.800833 196.450138 
L 273.865386 196.531783 
L 273.897662 196.368492 
L 273.913801 196.450138 
L 274.059045 196.041909 
L 274.220428 195.796972 
L 274.268843 195.715326 
L 274.543194 194.653931 
L 274.575471 194.735577 
L 274.86596 194.653931 
L 274.946651 194.49064 
L 274.96279 194.572286 
L 275.043481 194.653931 
L 275.075758 194.572286 
L 275.172588 194.49064 
L 275.366247 194.082411 
L 275.495354 194.000765 
L 275.753566 193.102662 
L 275.769705 193.184308 
L 275.834258 193.102662 
L 276.076332 192.449496 
L 276.140885 192.612788 
L 276.173162 192.449496 
L 276.544343 191.061519 
L 276.560481 191.143165 
L 276.608896 190.816582 
L 276.689587 190.734936 
L 277.060768 188.285564 
L 277.286704 185.264672 
L 277.351257 70.878995 
L 277.431949 132.766463 
L 277.593332 195.470389 
L 277.754715 196.695075 
L 278.255002 199.797613 
L 278.480938 201.022299 
L 278.868257 202.573568 
L 278.884396 202.491922 
L 278.916672 202.573568 
L 279.094193 202.900151 
L 279.158747 202.981796 
L 279.336268 203.308379 
L 279.69131 203.226734 
L 279.852693 202.981796 
L 280.014076 202.900151 
L 280.240012 202.328631 
L 280.54664 202.246985 
L 280.675746 202.165339 
L 280.804853 202.083693 
L 280.820991 202.002048 
L 280.885544 202.165339 
L 280.917821 202.083693 
L 281.079204 202.002048 
L 281.20831 201.920402 
L 281.563353 201.838756 
L 281.708597 201.593819 
L 281.837704 201.675465 
L 282.031363 201.593819 
L 282.160469 201.512173 
L 282.225023 201.593819 
L 282.257299 201.430527 
L 282.273438 201.512173 
L 282.418682 201.348882 
L 282.483235 201.267236 
L 282.644618 201.022299 
L 282.693033 201.103944 
L 282.773725 201.18559 
L 282.806001 201.103944 
L 282.951246 201.022299 
L 283.128767 200.695716 
L 283.499948 200.61407 
L 283.645193 200.450779 
L 283.903405 200.369133 
L 284.097065 199.960904 
L 284.161618 199.879258 
L 284.306863 199.552675 
L 284.323001 199.634321 
L 284.371416 199.552675 
L 284.548937 199.226093 
L 284.597352 199.144447 
L 284.758735 198.736218 
L 284.774873 198.817864 
L 284.871703 198.736218 
L 285.033086 198.491281 
L 285.065363 198.409635 
L 285.27516 197.919761 
L 285.307437 197.838115 
L 285.452682 197.674824 
L 285.484958 197.593178 
L 285.662479 197.184949 
L 285.678618 197.266595 
L 285.743171 197.103303 
L 285.759309 197.103303 
L 285.823862 197.021658 
L 286.001384 196.695075 
L 286.082075 196.77672 
L 286.114352 196.695075 
L 286.146628 196.613429 
L 286.308011 196.286846 
L 286.453256 196.450138 
L 286.517809 196.368492 
L 286.550086 196.286846 
L 286.614639 196.450138 
L 286.630777 196.368492 
L 286.969681 196.286846 
L 287.001958 196.2052 
L 287.082649 196.286846 
L 287.486107 196.2052 
L 287.631352 196.041909 
L 287.776596 195.960263 
L 288.083224 194.980514 
L 288.341436 194.898869 
L 288.486681 194.572286 
L 288.502819 194.653931 
L 288.535096 194.735577 
L 288.567373 194.817223 
L 288.631926 194.653931 
L 288.728756 194.572286 
L 288.954692 194.000765 
L 289.003107 194.082411 
L 289.16449 194.408994 
L 289.212904 194.327348 
L 289.261319 194.49064 
L 289.600224 194.408994 
L 289.745468 193.91912 
L 289.793883 193.837474 
L 289.922989 193.755828 
L 289.987543 193.674182 
L 290.342585 192.367851 
L 290.358723 192.449496 
L 290.391 192.286205 
L 290.455553 192.367851 
L 290.568521 192.204559 
L 290.58466 192.286205 
L 290.681489 192.204559 
L 290.859011 191.877976 
L 290.907425 191.796331 
L 291.068808 191.551393 
L 291.133362 191.469748 
L 291.375436 190.816582 
L 291.423851 190.734936 
L 292.053244 187.060878 
L 292.101659 184.203277 
L 292.166212 71.205578 
L 292.230766 121.009477 
L 292.408287 194.898869 
L 292.553532 195.552034 
L 292.634223 195.63368 
L 293.392723 198.89951 
L 293.424999 198.981155 
L 293.812319 200.369133 
L 293.876872 200.450779 
L 294.118946 201.103944 
L 294.248053 201.18559 
L 294.377159 201.348882 
L 294.506265 201.267236 
L 294.667648 201.348882 
L 294.829031 201.593819 
L 294.877446 201.675465 
L 295.006552 201.75711 
L 295.11952 201.838756 
L 295.21635 201.920402 
L 295.232489 201.838756 
L 295.490701 201.75711 
L 295.652084 201.512173 
L 295.700499 201.430527 
L 295.87802 201.103944 
L 295.990988 201.022299 
L 296.152371 200.777362 
L 296.216925 200.695716 
L 296.394446 200.369133 
L 296.555829 200.287487 
L 296.571967 200.205841 
L 296.652659 200.287487 
L 296.862456 200.777362 
L 297.29819 200.695716 
L 297.475712 200.369133 
L 297.669371 200.287487 
L 297.879169 199.797613 
L 297.911446 199.715967 
L 298.072828 199.47103 
L 298.121243 199.389384 
L 298.282626 199.144447 
L 298.34718 199.062801 
L 298.556977 198.572927 
L 298.686084 198.491281 
L 298.976573 197.593178 
L 299.057265 197.511532 
L 299.299339 196.858366 
L 299.912594 196.77672 
L 300.090115 196.450138 
L 300.380605 196.368492 
L 300.509711 196.286846 
L 300.606541 196.2052 
L 300.703371 196.123555 
L 300.719509 196.2052 
L 300.8002 196.123555 
L 300.913168 196.041909 
L 300.945445 196.123555 
L 300.977722 195.960263 
L 301.009998 195.960263 
L 301.042275 195.960263 
L 301.171381 195.63368 
L 301.268211 195.552034 
L 301.413456 195.388743 
L 301.478009 195.470389 
L 301.510285 195.388743 
L 301.639392 195.225451 
L 301.703945 195.388743 
L 301.768498 195.307097 
L 301.816913 195.388743 
L 301.946019 195.470389 
L 302.139679 195.552034 
L 302.284924 195.796972 
L 302.397892 195.715326 
L 302.51086 195.796972 
L 302.672243 195.388743 
L 302.688381 195.470389 
L 302.849764 195.388743 
L 303.043423 194.980514 
L 303.091838 194.898869 
L 303.285498 194.49064 
L 303.333913 194.408994 
L 303.511434 194.082411 
L 303.608264 194.000765 
L 303.769647 193.755828 
L 303.963306 193.674182 
L 304.092413 193.3476 
L 304.156966 193.265954 
L 304.30221 192.939371 
L 304.318349 193.021017 
L 304.479732 192.939371 
L 304.608838 192.612788 
L 304.641115 192.694434 
L 304.721806 192.694434 
L 304.818636 192.367851 
L 304.850912 192.449496 
L 304.899327 192.449496 
L 305.06071 191.714685 
L 305.109125 191.796331 
L 305.141402 191.551393 
L 305.15754 191.633039 
L 305.189817 191.551393 
L 305.399615 191.061519 
L 305.464168 190.979873 
L 305.81921 189.755187 
L 305.835348 189.755187 
L 306.093561 188.122272 
L 306.125838 188.040627 
L 306.335636 185.264672 
L 306.351774 184.284923 
L 306.416327 71.613807 
L 306.497019 133.011401 
L 306.658402 194.49064 
L 306.739093 195.143806 
L 306.787508 194.980514 
L 306.965029 194.653931 
L 307.207104 194.735577 
L 307.836497 197.348241 
L 307.868774 197.429886 
L 308.062433 197.838115 
L 308.110848 197.919761 
L 308.304508 198.817864 
L 308.482029 199.144447 
L 308.788657 199.062801 
L 308.885486 198.981155 
L 308.901625 199.062801 
L 309.095284 199.144447 
L 309.22439 199.307738 
L 309.353497 199.226093 
L 309.466465 199.307738 
L 309.579433 199.389384 
L 309.740816 199.144447 
L 310.111997 199.226093 
L 310.257241 199.389384 
L 310.434763 199.307738 
L 310.596146 199.062801 
L 310.967326 198.981155 
L 311.112571 198.817864 
L 311.160986 198.736218 
L 311.419199 198.001406 
L 311.548305 197.919761 
L 311.725826 197.593178 
L 311.919486 197.511532 
L 312.048592 197.429886 
L 312.306805 197.348241 
L 312.484326 197.021658 
L 312.532741 196.940012 
L 312.710262 196.613429 
L 312.903922 196.531783 
L 313.065305 196.286846 
L 313.178273 196.2052 
L 313.323517 196.041909 
L 313.67856 195.960263 
L 313.743113 196.041909 
L 313.856081 195.63368 
L 314.162709 195.552034 
L 314.275677 195.470389 
L 314.404783 195.552034 
L 314.646858 194.898869 
L 314.743687 194.817223 
L 314.856655 194.572286 
L 314.888932 194.653931 
L 314.985762 194.572286 
L 315.19556 194.082411 
L 315.260113 194.000765 
L 315.437634 193.674182 
L 315.631294 193.592537 
L 315.776538 193.429245 
L 315.905645 193.3476 
L 315.937921 193.265954 
L 315.986336 193.429245 
L 316.228411 194.898869 
L 316.260687 194.980514 
L 316.42207 195.552034 
L 316.631868 196.123555 
L 316.777113 195.960263 
L 317.116017 195.878617 
L 317.2774 195.63368 
L 317.422644 195.796972 
L 317.713134 195.715326 
L 317.84224 195.63368 
L 317.874517 195.552034 
L 318.229559 194.327348 
L 318.310251 194.245703 
L 318.826676 192.204559 
L 318.891229 192.122913 
L 319.213995 191.061519 
L 319.310825 191.061519 
L 319.472208 190.489999 
L 319.633591 189.183667 
L 319.859527 185.836192 
L 319.891804 130.888611 
L 319.92408 72.675202 
L 319.988633 111.293635 
L 320.166155 192.531142 
L 320.246846 193.265954 
L 320.295261 193.021017 
L 320.359814 193.102662 
L 320.569612 193.592537 
L 320.58575 193.510891 
L 320.618027 193.674182 
L 320.666442 193.674182 
L 320.843963 194.000765 
L 320.892378 194.082411 
L 321.311974 195.63368 
L 321.360388 195.715326 
L 321.554048 196.123555 
L 321.699293 196.2052 
L 321.844537 196.368492 
L 321.941367 196.450138 
L 322.118888 196.77672 
L 322.29641 196.858366 
L 322.441654 197.103303 
L 322.473931 197.021658 
L 322.538484 197.103303 
L 322.699867 197.348241 
L 322.716005 197.266595 
L 322.780558 197.429886 
L 323.022633 198.083052 
L 323.652026 198.001406 
L 323.764994 197.838115 
L 323.781133 197.919761 
L 323.877963 197.838115 
L 324.023207 197.511532 
L 324.039345 197.593178 
L 324.152314 197.511532 
L 324.168452 197.429886 
L 324.233005 197.674824 
L 324.249143 197.593178 
L 324.265282 197.674824 
L 324.329835 197.511532 
L 324.345973 197.511532 
L 324.475079 197.429886 
L 324.701016 197.511532 
L 324.830122 197.674824 
L 324.894675 197.593178 
L 324.94309 197.674824 
L 325.685452 197.593178 
L 325.846835 197.348241 
L 325.911388 197.266595 
L 326.040494 197.184949 
L 326.185739 197.103303 
L 326.379398 196.695075 
L 326.395537 196.695075 
L 326.540781 196.286846 
L 326.589196 196.2052 
L 326.798994 195.715326 
L 326.9281 195.63368 
L 327.073345 195.388743 
L 327.089483 195.470389 
L 327.12176 195.307097 
L 327.154036 195.307097 
L 327.299281 195.143806 
L 327.412249 195.225451 
L 327.525217 195.143806 
L 327.573632 195.225451 
L 327.605909 195.06216 
L 327.622047 195.143806 
L 327.751153 195.06216 
L 327.78343 194.980514 
L 327.960951 194.653931 
L 328.186887 194.572286 
L 328.428962 193.91912 
L 328.493515 193.91912 
L 328.622621 193.429245 
L 328.63876 193.510891 
L 328.961525 193.592537 
L 328.977664 193.674182 
L 329.00994 193.510891 
L 329.058355 193.510891 
L 329.187462 193.429245 
L 329.252015 193.3476 
L 329.461813 192.857725 
L 329.558642 192.776079 
L 329.687749 192.694434 
L 329.800717 192.776079 
L 329.9621 192.286205 
L 329.978238 192.367851 
L 330.091206 192.694434 
L 330.123483 192.531142 
L 330.204174 192.449496 
L 330.397834 191.959622 
L 330.43011 192.041268 
L 330.478525 191.877976 
L 330.494664 191.877976 
L 330.688323 191.877976 
L 330.833568 191.469748 
L 330.930398 191.469748 
L 331.124057 210.166621 
L 331.495238 223.39323 
L 332.076216 235.313508 
L 332.786301 244.45783 
L 333.528663 250.907843 
L 335.158631 258.582543 
L 335.174769 258.582543 
L 335.336152 259.235709 
L 335.35229 259.235709 
L 335.529812 259.97052 
L 335.997822 261.766726 
L 336.046237 261.848372 
L 336.272173 262.419892 
L 336.30445 262.501538 
L 336.530386 263.073058 
L 336.675631 263.154704 
L 336.86929 263.562933 
L 336.917705 263.644578 
L 337.079088 264.052807 
L 337.095226 263.971161 
L 337.111365 263.971161 
L 337.256609 264.37939 
L 337.337301 264.461036 
L 337.53096 264.869264 
L 337.660067 264.95091 
L 337.853726 265.359139 
L 338.015109 265.440785 
L 338.19263 265.767367 
L 338.321737 265.849013 
L 338.466981 266.012305 
L 338.579949 266.09395 
L 338.709056 266.175596 
L 339.306173 266.09395 
L 339.386864 266.012305 
L 339.419141 266.09395 
L 340.758619 266.012305 
L 340.920002 265.767367 
L 341.065247 265.685722 
L 341.22663 265.440785 
L 341.371874 265.359139 
L 341.517119 265.195847 
L 341.662364 265.114202 
L 341.69464 265.032556 
L 341.775332 265.114202 
L 341.936715 265.032556 
L 342.065821 264.95091 
L 342.194928 265.032556 
L 342.630662 264.95091 
L 342.6468 264.869264 
L 342.679076 265.032556 
L 342.74363 264.95091 
L 343.11481 264.869264 
L 343.163225 264.787619 
L 343.227778 264.869264 
L 343.760342 264.787619 
L 343.792619 264.705973 
L 343.87331 264.787619 
L 343.97014 264.705973 
L 344.050831 264.624327 
L 344.083108 264.705973 
L 344.228353 264.624327 
L 344.357459 264.542681 
L 344.680225 264.461036 
L 344.696363 264.37939 
L 344.793193 264.461036 
L 344.922299 264.37939 
L 345.051406 264.297744 
L 345.083682 264.37939 
L 345.164374 264.297744 
L 345.600108 264.216098 
L 345.616246 264.134453 
L 345.713076 264.216098 
L 345.793767 264.134453 
L 345.922874 264.052807 
L 346.068118 263.971161 
L 346.181086 263.80787 
L 346.197225 263.889516 
L 346.261778 263.80787 
L 346.390884 263.726224 
L 346.568406 263.644578 
L 346.584544 263.562933 
L 346.681374 263.644578 
L 346.971863 263.562933 
L 347.117108 263.399641 
L 347.940161 263.481287 
L 347.972437 263.562933 
L 348.053129 263.481287 
L 349.666958 263.562933 
L 349.683097 263.644578 
L 349.779926 263.562933 
L 351.16782 263.644578 
L 351.264649 263.726224 
L 351.280788 263.644578 
L 353.362628 263.562933 
L 353.394904 263.481287 
L 353.443319 263.644578 
L 353.475596 263.562933 
L 354.702106 263.481287 
L 354.815074 263.399641 
L 354.831213 263.481287 
L 354.879628 263.317995 
L 354.928042 263.399641 
L 355.024872 263.317995 
L 355.041011 263.399641 
L 355.121702 263.399641 
L 355.13784 263.23635 
L 355.3315 227.393871 
L 355.79951 191.061519 
L 355.89634 177.589972 
L 355.944755 68.837852 
L 356.009308 123.213912 
L 356.154553 189.428604 
L 356.170691 189.265313 
L 356.364351 183.141883 
L 356.800085 172.119708 
L 356.864638 71.287224 
L 356.945329 122.070872 
L 357.122851 183.141883 
L 357.284234 184.611506 
L 357.494031 185.10138 
L 357.542446 185.019734 
L 357.590861 185.10138 
L 357.703829 185.427963 
L 357.719968 185.346317 
L 357.865212 185.264672 
L 358.187978 184.203277 
L 358.236393 184.121631 
L 358.768957 180.855802 
L 359.043308 177.018452 
L 359.172414 171.303251 
L 359.236967 68.021395 
L 359.30152 109.007554 
L 359.49518 183.38682 
L 359.672701 185.754546 
L 359.898637 186.489358 
L 359.914776 186.407712 
L 360.092297 186.489358 
L 360.140712 186.571003 
L 360.172988 186.407712 
L 360.189127 186.407712 
L 360.25368 186.326066 
L 360.528031 185.509609 
L 360.640999 185.427963 
L 360.834658 184.774797 
L 360.866935 184.856443 
L 360.947627 184.774797 
L 361.092871 184.366569 
L 361.125148 184.448214 
L 361.173563 184.366569 
L 361.383361 183.876694 
L 361.447914 183.795048 
L 361.722265 182.978591 
L 361.786818 182.896945 
L 362.028892 182.243779 
L 362.125722 182.162134 
L 362.43235 181.182385 
L 362.496903 181.100739 
L 363.303818 177.589972 
L 363.352233 177.671618 
L 363.384509 177.426681 
L 363.56203 173.344394 
L 363.626584 66.96 
L 363.707275 118.886688 
L 363.884796 182.325425 
L 364.046179 184.448214 
L 364.143009 184.52986 
L 364.304392 184.774797 
L 364.336669 184.856443 
L 364.352807 184.938089 
L 364.433498 184.856443 
L 364.449637 184.774797 
L 364.530328 184.938089 
L 364.836956 185.019734 
L 364.853094 185.10138 
L 364.885371 184.938089 
L 364.917647 184.938089 
L 365.304966 183.550111 
L 365.595456 183.468465 
L 366.257126 180.69251 
L 366.321679 180.774156 
L 366.370094 180.937448 
L 366.418509 180.69251 
L 366.773551 179.467824 
L 366.805828 179.54947 
L 366.838104 179.304533 
L 366.967211 178.97795 
L 366.999487 179.059596 
L 367.015626 179.141241 
L 367.06404 178.97795 
L 367.080179 178.97795 
L 367.225423 178.814659 
L 367.273838 178.733013 
L 367.45136 177.998201 
L 367.628881 176.528578 
L 367.854817 175.222246 
L 367.887093 175.1406 
L 367.967785 173.670977 
L 368.000062 167.87413 
L 368.064615 68.10304 
L 368.129168 107.129702 
L 368.338966 181.508968 
L 368.516487 183.38682 
L 368.694008 183.795048 
L 368.806976 183.713403 
L 368.952221 183.876694 
L 369.000636 183.713403 
L 369.081327 183.795048 
L 369.194295 183.95834 
L 369.210434 183.876694 
L 369.24271 183.876694 
L 369.323402 183.713403 
L 369.355678 183.795048 
L 369.387955 184.039986 
L 369.484785 183.876694 
L 369.581614 183.795048 
L 369.839827 183.060237 
L 369.952795 182.978591 
L 370.501497 180.774156 
L 370.533774 180.69251 
L 370.695157 179.957699 
L 370.808125 180.039345 
L 371.114753 179.059596 
L 371.163167 178.97795 
L 371.308412 178.733013 
L 371.32455 178.814659 
L 371.389104 178.569721 
L 371.405242 178.651367 
L 371.534348 178.733013 
L 371.679593 179.141241 
L 371.744146 178.97795 
L 371.808699 179.059596 
L 371.857114 178.97795 
L 371.970082 178.733013 
L 372.002359 178.814659 
L 372.08305 178.733013 
L 372.551061 176.855161 
L 372.567199 176.936807 
L 372.615614 176.691869 
L 372.825412 175.222246 
L 372.922242 171.793125 
L 372.986795 67.613166 
L 373.067486 112.028446 
L 373.261146 179.631116 
L 373.454805 181.427322 
L 373.69688 182.080488 
L 373.858263 181.998842 
L 373.955092 181.835551 
L 373.971231 181.917196 
L 374.051922 182.080488 
L 374.084199 181.998842 
L 374.374688 181.100739 
L 374.45538 181.019093 
L 374.616763 180.69251 
L 374.713592 180.774156 
L 374.729731 180.69251 
L 374.842699 180.610865 
L 375.068635 180.039345 
L 375.100911 180.12099 
L 375.197741 180.284282 
L 375.230018 180.202636 
L 375.262294 180.12099 
L 375.617337 178.896304 
L 375.665752 178.814659 
L 375.827135 178.161493 
L 375.859411 178.243138 
L 375.891688 178.324784 
L 375.940103 178.079847 
L 376.149901 177.508327 
L 376.182177 177.589972 
L 376.262869 177.508327 
L 376.295145 177.426681 
L 376.698603 175.957058 
L 376.779294 176.038703 
L 376.795432 175.957058 
L 377.118198 173.752623 
L 377.182752 172.038062 
L 377.215028 142.40066 
L 377.263443 68.266332 
L 377.327996 101.659438 
L 377.537794 177.671618 
L 377.683039 179.794407 
L 377.699177 179.712762 
L 377.95739 180.447573 
L 378.054219 180.529219 
L 378.215602 180.774156 
L 378.393124 180.69251 
L 378.538368 180.529219 
L 378.586783 180.447573 
L 378.877273 179.54947 
L 378.941826 179.467824 
L 378.990241 179.386179 
L 379.022517 179.54947 
L 379.038655 179.54947 
L 379.167762 179.467824 
L 379.474389 178.488076 
L 379.522804 178.40643 
L 379.668049 178.243138 
L 379.74874 178.161493 
L 379.990815 177.508327 
L 380.023091 177.426681 
L 380.216751 176.365286 
L 380.232889 176.446932 
L 380.297442 176.201995 
L 380.426549 176.120349 
L 380.491102 176.201995 
L 380.571794 176.365286 
L 380.620208 176.283641 
L 380.684762 176.201995 
L 380.846145 175.875412 
L 380.862283 175.957058 
L 380.910698 175.630475 
L 380.959113 175.548829 
L 381.394847 172.772874 
L 381.540091 169.670336 
L 381.572368 137.746853 
L 381.620783 67.939749 
L 381.685336 100.842981 
L 381.911272 178.733013 
L 382.104932 180.610865 
L 382.185623 180.69251 
L 382.395421 181.182385 
L 382.459974 181.264031 
L 382.605219 181.427322 
L 382.702048 181.345676 
L 382.944123 180.69251 
L 383.121644 180.774156 
L 383.234612 181.100739 
L 383.283027 181.019093 
L 383.379857 181.100739 
L 383.395995 181.182385 
L 383.44441 181.019093 
L 383.460548 181.019093 
L 383.670346 180.529219 
L 383.702623 180.447573 
L 383.912421 179.957699 
L 383.944697 179.876053 
L 384.089942 179.54947 
L 384.10608 179.631116 
L 384.154495 179.54947 
L 384.348155 179.141241 
L 384.380431 179.059596 
L 384.477261 178.814659 
L 384.525676 178.896304 
L 384.735474 178.814659 
L 384.896857 178.40643 
L 384.912995 178.488076 
L 384.993686 178.40643 
L 385.042101 178.324784 
L 385.106654 178.40643 
L 385.171208 178.324784 
L 385.300314 177.998201 
L 385.332591 178.079847 
L 385.364867 178.243138 
L 385.42942 178.079847 
L 386.123367 174.079206 
L 386.317027 169.507045 
L 386.38158 69.654309 
L 386.47841 118.070231 
L 386.672069 177.345035 
L 386.833452 178.896304 
L 386.84959 178.814659 
L 386.898005 179.141241 
L 387.107803 179.794407 
L 387.123941 179.712762 
L 387.172356 179.794407 
L 387.349877 180.12099 
L 387.527399 179.794407 
L 387.688782 179.712762 
L 387.882441 179.304533 
L 387.979271 179.304533 
L 388.140654 179.957699 
L 388.318175 179.631116 
L 388.415005 179.712762 
L 388.431143 179.631116 
L 388.527973 179.54947 
L 388.657079 179.467824 
L 388.689356 179.54947 
L 388.737771 179.386179 
L 388.753909 179.386179 
L 389.012122 178.651367 
L 389.076675 178.651367 
L 389.238058 178.079847 
L 390.077249 173.262748 
L 390.319324 168.44565 
L 390.3516 128.684177 
L 390.400015 69.246081 
L 390.464568 102.149312 
L 390.674366 175.548829 
L 390.835749 177.589972 
L 390.868026 177.671618 
L 391.142377 178.488076 
L 391.158515 178.488076 
L 391.174653 178.324784 
L 391.271483 178.40643 
L 391.352175 178.243138 
L 391.384451 178.40643 
L 391.497419 178.324784 
L 391.513558 178.243138 
L 391.594249 178.40643 
L 391.739494 178.324784 
L 391.96543 177.753264 
L 392.078398 177.671618 
L 392.417302 176.528578 
L 392.449579 176.528578 
L 392.610962 175.875412 
L 392.659377 175.793766 
L 392.869174 174.732372 
L 392.885313 174.732372 
L 393.175802 172.85452 
L 393.627674 169.996919 
L 393.724504 167.465901 
L 393.756781 136.685459 
L 393.805196 69.817601 
L 393.869749 96.434111 
L 394.111823 174.895663 
L 394.305483 177.426681 
L 394.499142 178.40643 
L 394.547557 178.488076 
L 394.757355 178.97795 
L 394.967153 179.059596 
L 395.015568 179.222887 
L 395.080121 179.141241 
L 395.386749 178.161493 
L 395.419025 178.079847 
L 395.56427 177.916555 
L 395.612685 177.916555 
L 395.757929 177.508327 
L 395.806344 177.426681 
L 395.967727 176.936807 
L 396.000004 177.018452 
L 396.096833 176.936807 
L 396.290493 176.038703 
L 396.32277 175.957058 
L 396.726227 174.487434 
L 396.758504 174.405789 
L 397.048993 173.181103 
L 397.097408 173.262748 
L 397.129684 173.344394 
L 397.161961 173.181103 
L 397.517003 168.935524 
L 397.565418 163.138677 
L 397.629972 70.062538 
L 397.710663 105.578433 
L 397.936599 174.324143 
L 398.130259 176.855161 
L 398.162535 176.936807 
L 398.501439 178.079847 
L 398.582131 178.161493 
L 398.727376 178.324784 
L 398.904897 178.243138 
L 399.050142 178.079847 
L 399.211524 177.998201 
L 399.453599 177.345035 
L 399.582705 177.26339 
L 399.744088 176.936807 
L 399.857056 177.018452 
L 399.889333 176.936807 
L 399.953886 177.100098 
L 400.018439 177.018452 
L 400.438035 175.467183 
L 400.470311 175.385538 
L 401.196535 171.221605 
L 401.406333 166.976027 
L 401.487024 70.062538 
L 401.583854 117.172128 
L 401.777513 172.85452 
L 401.955035 175.467183 
L 402.229386 177.181744 
L 402.358492 177.426681 
L 402.37463 177.345035 
L 402.439183 177.26339 
L 402.519875 177.181744 
L 402.552152 177.26339 
L 402.842641 177.181744 
L 403.068577 176.610224 
L 403.100854 176.528578 
L 403.294513 176.120349 
L 403.342928 176.038703 
L 403.455896 175.875412 
L 403.472034 175.957058 
L 403.923907 175.875412 
L 404.053013 175.793766 
L 404.165981 175.875412 
L 404.214396 175.957058 
L 404.278949 175.875412 
L 404.359641 175.957058 
L 404.424194 176.038703 
L 404.472609 175.957058 
L 404.521024 175.875412 
L 404.730821 175.058955 
L 404.779236 175.1406 
L 404.843789 175.222246 
L 404.892204 175.1406 
L 405.102002 175.058955 
L 405.344077 174.405789 
L 405.392492 174.324143 
L 405.50546 173.834269 
L 405.537736 173.915914 
L 405.602289 173.834269 
L 406.005747 171.221605 
L 406.215545 168.119067 
L 406.296236 163.46526 
L 406.376928 71.123933 
L 406.441481 102.96577 
L 406.667417 173.589331 
L 406.861076 176.528578 
L 407.280672 178.079847 
L 407.442055 177.998201 
L 407.571161 177.671618 
L 407.813236 177.753264 
L 407.893927 177.83491 
L 407.926204 177.753264 
L 408.119863 177.83491 
L 408.200555 177.998201 
L 408.24897 177.916555 
L 408.3458 177.83491 
L 408.523321 177.508327 
L 408.604012 177.508327 
L 408.797672 176.610224 
L 409.104299 175.630475 
L 409.152714 175.548829 
L 409.749831 173.099457 
L 409.798246 173.017811 
L 409.927352 172.446291 
L 409.975767 172.691228 
L 410.395363 172.609583 
L 410.944065 169.262107 
L 411.105448 162.485511 
L 411.186139 71.123933 
L 411.250693 101.577792 
L 411.476629 173.42604 
L 411.65415 176.283641 
L 411.896224 177.671618 
L 412.057607 177.916555 
L 412.138299 177.83491 
L 412.267405 177.671618 
L 412.299682 177.753264 
L 412.348097 177.589972 
L 412.364235 177.589972 
L 412.525618 177.508327 
L 412.590171 177.426681 
L 412.622448 177.589972 
L 412.703139 177.916555 
L 412.767692 177.83491 
L 412.97749 177.345035 
L 413.058182 177.26339 
L 413.203426 177.100098 
L 413.300256 177.018452 
L 413.477777 176.365286 
L 413.510054 176.528578 
L 413.752128 176.446932 
L 414.252416 174.487434 
L 414.316969 174.405789 
L 414.462213 174.242497 
L 414.510628 174.160852 
L 414.801118 173.262748 
L 414.833394 173.181103 
L 415.382096 166.649444 
L 415.414373 158.566516 
L 415.478926 70.878995 
L 415.543479 97.740443 
L 415.785554 173.589331 
L 415.979213 176.201995 
L 416.189011 177.26339 
L 416.414947 177.83491 
L 416.544053 177.753264 
L 416.76999 177.753264 
L 416.931373 177.181744 
L 416.963649 177.26339 
L 417.012064 177.018452 
L 417.060479 176.936807 
L 417.286415 176.365286 
L 417.399383 176.283641 
L 417.818979 174.732372 
L 417.851255 174.650726 
L 418.109468 173.915914 
L 418.238574 173.834269 
L 418.56134 172.772874 
L 418.577479 172.85452 
L 418.625894 172.691228 
L 418.642032 172.691228 
L 419.126181 169.670336 
L 419.335979 165.914632 
L 419.368255 150.64688 
L 419.432808 71.042287 
L 419.497362 98.5569 
L 419.787851 196.041909 
L 420.046064 215.473594 
L 420.433383 229.761598 
L 420.83684 238.660983 
L 421.224159 244.294539 
L 421.627616 248.785054 
L 421.788999 250.173032 
L 422.224733 253.520507 
L 422.757297 256.786336 
L 422.950957 257.68444 
L 423.67718 260.786978 
L 423.709457 260.868623 
L 424.145191 262.501538 
L 424.177467 262.583184 
L 424.451818 263.399641 
L 424.500233 263.481287 
L 424.758446 264.216098 
L 424.855276 264.297744 
L 425.129627 265.114202 
L 425.145765 265.032556 
L 425.178041 265.195847 
L 425.210318 265.195847 
L 425.436254 265.767367 
L 425.549222 265.849013 
L 425.726743 266.175596 
L 425.839712 266.257242 
L 426.017233 266.583825 
L 426.097924 266.665471 
L 426.259307 266.910408 
L 426.32386 266.992054 
L 426.501382 267.318636 
L 426.51752 267.236991 
L 426.582073 267.400282 
L 426.598211 267.400282 
L 426.727318 267.481928 
L 426.824148 267.563574 
L 426.98553 267.808511 
L 427.033945 267.890157 
L 427.163052 267.971802 
L 427.243743 268.053448 
L 427.388988 268.298385 
L 427.421264 268.21674 
L 427.501956 268.298385 
L 428.131349 268.380031 
L 428.276594 268.543323 
L 429.148062 268.624968 
L 429.1642 268.706614 
L 429.244892 268.624968 
L 429.341722 268.543323 
L 429.35786 268.624968 
L 429.729041 268.706614 
L 429.793594 268.78826 
L 429.842009 268.706614 
L 430.697338 268.624968 
L 430.826445 268.543323 
L 431.310594 268.461677 
L 431.375147 268.380031 
L 431.423562 268.461677 
L 431.4397 268.543323 
L 431.520391 268.461677 
L 431.649498 268.380031 
L 432.036817 268.298385 
L 432.165923 268.21674 
L 432.633934 268.135094 
L 432.76304 268.053448 
L 433.392434 267.971802 
L 433.52154 267.890157 
L 433.795891 267.808511 
L 433.860444 267.645219 
L 433.908859 267.726865 
L 433.989551 267.808511 
L 434.021827 267.726865 
L 434.74805 267.645219 
L 434.877157 267.563574 
L 435.232199 267.481928 
L 435.377444 267.318636 
L 435.458135 267.400282 
L 435.490412 267.318636 
L 435.780901 267.318636 
L 435.780901 267.318636 
" style="fill:none;stroke:#1f77b4;stroke-linecap:square;stroke-width:1.5;"/>
   </g>
   <g id="line2d_15">
    <path clip-path="url(#p84d2c16b9f)" d="M 80.754545 259.954191 
L 82.933215 255.690324 
L 83.143013 255.322461 
L 83.820822 254.168709 
L 84.111311 253.717241 
L 84.59546 252.964794 
L 84.96664 252.42972 
L 85.35396 251.877925 
L 85.983353 251.075315 
L 86.289981 250.690731 
L 88.694587 248.349785 
L 88.839831 248.249458 
L 88.920523 248.032085 
L 90.27614 236.427678 
L 91.034639 231.060222 
L 92.406395 223.20133 
L 94.472096 215.108344 
L 95.343564 212.750676 
L 96.98967 209.590398 
L 97.473819 208.938277 
L 97.764309 208.587135 
L 98.926266 207.533709 
L 99.087649 207.433383 
L 99.426553 207.232731 
L 99.668627 207.132404 
L 99.910702 207.032078 
L 100.281883 206.931752 
L 100.475542 206.881589 
L 102.186201 206.981915 
L 102.395999 207.048799 
L 102.686489 207.149125 
L 102.944701 207.266173 
L 103.170637 207.366499 
L 103.477265 207.533709 
L 103.670925 207.634036 
L 104.042105 207.86813 
L 104.219627 207.968457 
L 104.703776 208.319599 
L 104.84902 208.419925 
L 105.478414 208.921556 
L 105.60752 209.021883 
L 106.46285 209.757609 
L 106.591956 209.857935 
L 107.818466 210.978245 
L 107.931435 211.078571 
L 109.0127 212.048392 
L 109.141807 212.148718 
L 110.029413 212.917887 
L 110.158519 213.018213 
L 110.820189 213.553286 
L 110.965434 213.653613 
L 111.530274 214.08836 
L 111.675519 214.188686 
L 112.127391 214.506386 
L 112.288774 214.606712 
L 112.692232 214.874249 
L 112.869753 214.974575 
L 113.240934 215.20867 
L 113.434593 215.308996 
L 113.773497 215.509649 
L 113.983295 215.609975 
L 114.273785 215.760464 
L 114.483582 215.860791 
L 114.757933 215.994559 
L 115.000008 216.094885 
L 115.258221 216.211933 
L 115.516433 216.312259 
L 115.758508 216.412585 
L 116.065135 216.512912 
L 116.291071 216.596517 
L 116.613837 216.696843 
L 116.839774 216.780448 
L 117.243231 216.880775 
L 117.453029 216.947659 
L 117.921039 217.047985 
L 118.114699 217.098148 
L 118.647263 217.198474 
L 118.840922 217.248638 
L 119.599422 217.348964 
L 119.776943 217.382406 
L 120.858209 217.482732 
L 121.019592 217.499453 
L 128.523899 217.399127 
L 128.685282 217.382406 
L 130.525048 217.28208 
L 130.686431 217.265359 
L 132.623026 217.165032 
L 132.784409 217.148311 
L 135.092185 217.047985 
L 135.253568 217.031264 
L 138.658749 216.930938 
L 138.820132 216.914217 
L 153.473704 216.997822 
L 155.216639 230.54187 
L 156.749778 239.387304 
L 158.71865 247.078985 
L 159.525564 249.236 
L 160.913458 251.861204 
L 162.801638 253.667077 
L 163.027574 253.767404 
L 163.269649 253.86773 
L 163.624691 253.968056 
L 163.818351 254.018219 
L 165.52901 253.917893 
L 165.738808 253.851009 
L 166.077712 253.750683 
L 166.303648 253.667077 
L 166.561861 253.566751 
L 166.820074 253.449704 
L 167.04601 253.349378 
L 167.336499 253.198888 
L 167.546297 253.098562 
L 167.869063 252.91463 
L 168.062722 252.814304 
L 168.401627 252.613652 
L 168.579148 252.513325 
L 168.93419 252.295952 
L 169.111712 252.195625 
L 169.499031 251.94481 
L 169.515169 251.94481 
L 169.531307 259.954191 
L 169.628137 259.753538 
L 171.709977 255.690324 
L 171.919775 255.322461 
L 172.597583 254.168709 
L 172.888073 253.717241 
L 173.372222 252.964794 
L 173.743402 252.42972 
L 174.130721 251.877925 
L 174.760115 251.075315 
L 175.066743 250.690731 
L 177.471349 248.349785 
L 177.616593 248.249458 
L 177.681146 248.199295 
L 178.923795 234.086732 
L 180.618316 219.322047 
L 181.796412 211.563482 
L 184.943379 194.675225 
L 185.41139 190.478242 
L 185.685741 186.180933 
L 185.8794 179.258419 
L 185.927815 174.96111 
L 186.040783 251.108757 
L 186.879975 277.578174 
L 187.686889 296.406073 
L 188.413113 308.545553 
L 189.123198 316.63854 
L 189.801006 321.353875 
L 190.23674 323.0427 
L 190.559506 323.694821 
L 190.882272 323.878753 
L 191.479389 323.109585 
L 192.22175 320.450938 
L 192.657484 318.176876 
L 193.706473 310.970105 
L 194.448835 304.800038 
L 201.097813 243.835102 
L 201.985419 237.397499 
L 204.309333 223.619356 
L 205.19694 219.472537 
L 205.794057 216.96438 
L 206.294344 215.058181 
L 207.004429 212.583466 
L 208.828056 207.266173 
L 209.441311 205.744557 
L 209.941598 204.540642 
L 210.990588 202.11609 
L 211.458598 201.012501 
L 212.10413 199.424002 
L 213.572715 194.524735 
L 214.121417 191.130363 
L 214.444183 187.535338 
L 214.670119 182.184603 
L 214.783087 174.64341 
L 214.896055 251.225805 
L 215.751385 279.835516 
L 216.526023 299.114883 
L 217.300661 312.943188 
L 217.978469 321.169943 
L 218.607863 326.035768 
L 219.027459 327.99213 
L 219.479331 329.045556 
L 219.785959 329.212767 
L 219.979618 329.11244 
L 220.286246 328.644251 
L 220.641288 327.657709 
L 221.028607 326.102652 
L 221.464341 323.82859 
L 221.94849 320.735196 
L 222.497192 316.63854 
L 223.917362 303.947265 
L 227.806691 264.803295 
L 229.90467 246.276375 
L 231.098903 237.280452 
L 233.600339 222.39872 
L 236.440679 211.095292 
L 237.909264 206.881589 
L 238.441828 205.527184 
L 238.99053 204.172779 
L 239.829721 202.182975 
L 240.362285 200.878733 
L 240.910987 199.490886 
L 242.234327 195.143414 
L 242.282742 195.511277 
L 243.105795 203.2364 
L 245.268327 224.505572 
L 246.543252 234.153616 
L 247.963422 242.296766 
L 248.721922 245.657696 
L 249.367454 248.015364 
L 249.835464 249.486816 
L 250.529411 251.292689 
L 251.755921 253.583472 
L 253.450442 255.188693 
L 253.676378 255.289019 
L 253.918453 255.389345 
L 254.434878 255.489672 
L 254.6124 255.523114 
L 255.661389 255.422787 
L 255.871187 255.355903 
L 256.210091 255.255577 
L 256.452165 255.155251 
L 256.69424 255.054924 
L 256.984729 254.904435 
L 257.194527 254.804109 
L 257.517293 254.620177 
L 257.694814 254.519851 
L 258.065995 254.285756 
L 258.227378 254.18543 
L 258.291931 254.135267 
L 258.308069 259.954191 
L 258.404899 259.753538 
L 260.486739 255.690324 
L 260.696537 255.322461 
L 261.374345 254.168709 
L 261.664835 253.717241 
L 262.148983 252.964794 
L 262.520164 252.42972 
L 262.907483 251.877925 
L 263.536877 251.075315 
L 263.843504 250.690731 
L 266.24811 248.349785 
L 266.393355 248.249458 
L 266.457908 248.199295 
L 267.603727 228.903207 
L 269.104589 208.720904 
L 270.573173 189.140558 
L 270.79911 182.234766 
L 270.895939 174.827342 
L 271.008907 250.757615 
L 271.799684 270.521893 
L 272.509769 283.564309 
L 273.187577 292.393022 
L 273.704003 297.058194 
L 274.268843 300.35224 
L 274.720715 301.773529 
L 275.05962 302.224997 
L 275.237141 302.27516 
L 275.834258 301.505992 
L 276.140885 300.619777 
L 276.560481 298.964393 
L 277.561055 293.195632 
L 278.884396 282.795141 
L 279.997938 272.645466 
L 284.952395 227.481918 
L 286.065937 219.171558 
L 287.437692 210.025145 
L 289.454979 196.798797 
L 289.858436 193.120167 
L 290.261894 187.25108 
L 290.471691 180.295124 
L 290.536245 174.877505 
L 290.649213 250.974989 
L 291.407713 273.230702 
L 292.214627 290.587149 
L 292.940851 301.422387 
L 293.505691 307.124264 
L 294.038255 310.618963 
L 294.619233 312.558604 
L 294.909723 312.909746 
L 295.248627 312.80942 
L 295.522978 312.374673 
L 295.87802 311.388131 
L 296.265339 309.833074 
L 297.120669 304.833481 
L 298.201935 296.188699 
L 299.041126 288.313086 
L 304.108551 236.962752 
L 305.464168 225.358345 
L 306.690678 216.111606 
L 308.110848 206.614052 
L 309.369635 198.103039 
L 309.886061 193.588356 
L 310.321795 187.384848 
L 310.531592 180.579382 
L 310.596146 175.462742 
L 310.709114 250.707452 
L 311.548305 274.886086 
L 312.371358 291.874669 
L 313.097581 302.124671 
L 313.694698 307.676059 
L 314.227262 310.73601 
L 314.662996 312.073694 
L 314.953485 312.424836 
L 315.131007 312.458278 
L 315.292389 312.357952 
L 315.599017 311.889762 
L 315.937921 310.936663 
L 316.32524 309.381605 
L 316.744836 307.174427 
L 317.212847 304.18136 
L 318.277974 295.670347 
L 320.262984 276.123443 
L 324.18459 236.645052 
L 325.491792 225.475393 
L 328.558068 204.039011 
L 329.494089 197.534524 
L 330.123483 191.41462 
L 330.413972 186.465191 
L 330.607632 179.024325 
L 330.656046 174.292269 
L 330.769015 250.974989 
L 331.301578 272.160555 
L 332.253738 308.779648 
L 333.044514 331.386503 
L 333.867567 348.425249 
L 334.496961 357.605104 
L 335.077939 363.490913 
L 335.610503 366.985611 
L 336.030099 368.590832 
L 336.336726 369.19279 
L 336.643354 369.36 
L 337.192056 368.640995 
L 337.498684 367.75478 
L 338.305598 363.959102 
L 339.24162 357.471336 
L 340.677928 344.663014 
L 345.083682 300.168309 
L 346.842757 284.801667 
L 347.068693 282.995793 
L 347.181661 259.753538 
L 349.263501 255.690324 
L 349.473299 255.322461 
L 350.151107 254.168709 
L 350.441596 253.717241 
L 350.925745 252.964794 
L 351.296926 252.42972 
L 351.684245 251.877925 
L 352.313639 251.075315 
L 352.620266 250.690731 
L 355.024872 248.349785 
L 355.170117 248.249458 
L 355.23467 248.199295 
L 356.445042 208.33632 
L 357.155127 183.873428 
L 357.251957 175.780442 
L 357.364925 249.771074 
L 358.058872 255.222135 
L 358.446191 256.977845 
L 358.881925 257.981108 
L 359.156276 258.114876 
L 359.349935 258.01455 
L 359.640425 257.563081 
L 360.398925 254.854272 
L 360.770105 252.847746 
L 361.205839 250.021889 
L 362.190275 242.079392 
L 362.964913 234.755574 
L 365.563179 206.680936 
L 366.628306 192.150346 
L 366.918796 184.876691 
L 367.06404 176.064699 
L 367.177009 250.406473 
L 367.903232 266.391794 
L 368.613317 276.959496 
L 369.113604 281.808599 
L 369.549338 284.500688 
L 370.00121 285.905256 
L 370.243285 286.156071 
L 370.501497 286.055745 
L 370.727433 285.671161 
L 371.017923 284.818388 
L 371.61504 281.892204 
L 372.27671 277.109985 
L 373.680741 262.997422 
L 375.068635 245.908512 
L 376.924539 221.462341 
L 379.006379 192.033299 
L 379.296868 184.007197 
L 379.425975 174.910947 
L 379.538943 250.556963 
L 380.313581 266.425236 
L 380.959113 275.287391 
L 381.572368 280.5378 
L 382.02424 282.661373 
L 382.379283 283.430541 
L 382.621357 283.530867 
L 382.766602 283.430541 
L 383.008676 283.045957 
L 383.621931 280.805336 
L 384.235187 277.059822 
L 384.993686 270.755987 
L 385.961984 260.689917 
L 387.543537 241.41055 
L 391.30376 189.374653 
L 391.529696 181.398713 
L 391.610387 174.191942 
L 391.723355 250.556963 
L 392.417302 265.104273 
L 393.046696 274.267407 
L 393.546983 279.166674 
L 393.982717 281.892204 
L 394.337759 283.179725 
L 394.692802 283.681356 
L 394.967153 283.58103 
L 395.193089 283.196446 
L 395.483578 282.360394 
L 396.112972 279.283721 
L 396.774642 274.484781 
L 397.629972 266.475399 
L 398.808067 253.115283 
L 402.019588 211.814297 
L 403.375205 192.100183 
L 403.665694 184.207849 
L 403.7948 175.613231 
L 403.907768 250.35631 
L 404.617853 265.254763 
L 405.247247 274.401175 
L 405.844364 279.986005 
L 406.296236 282.477441 
L 406.651279 283.480704 
L 406.893353 283.73152 
L 407.167704 283.631193 
L 407.732544 282.209904 
L 408.297385 279.400768 
L 408.959055 274.618549 
L 409.814384 266.625889 
L 410.99248 253.265772 
L 412.073746 239.671561 
L 415.688724 189.525142 
L 415.930798 180.796756 
L 415.995351 175.061437 
L 416.10832 250.556963 
L 416.802266 265.120995 
L 417.43166 274.31757 
L 418.044915 280.052889 
L 418.480649 282.46072 
L 418.980936 283.681356 
L 419.174596 283.764962 
L 419.190734 283.748241 
L 419.352117 283.647914 
L 419.594191 283.246609 
L 419.787851 282.711536 
L 420.659319 307.140985 
L 421.466234 323.795148 
L 422.176319 334.362849 
L 422.837989 341.235199 
L 423.435106 345.281693 
L 423.935393 347.304939 
L 424.290435 348.057386 
L 424.516371 348.27476 
L 424.693893 348.308202 
L 424.90369 348.207876 
L 425.274871 347.672802 
L 425.694467 346.552492 
L 426.162477 344.746619 
L 426.711179 342.004368 
L 427.340573 338.175248 
L 429.309445 323.092864 
L 434.522114 280.788615 
L 435.845455 272.260881 
L 435.845455 272.260881 
" style="fill:none;stroke:#ff0000;stroke-linecap:square;stroke-width:1.5;"/>
   </g>
   <g id="patch_3">
    <path d="M 63 384.48 
L 63 51.84 
" style="fill:none;stroke:#000000;stroke-linecap:square;stroke-linejoin:miter;stroke-width:0.8;"/>
   </g>
   <g id="patch_4">
    <path d="M 453.6 384.48 
L 453.6 51.84 
" style="fill:none;stroke:#000000;stroke-linecap:square;stroke-linejoin:miter;stroke-width:0.8;"/>
   </g>
   <g id="patch_5">
    <path d="M 63 384.48 
L 453.6 384.48 
" style="fill:none;stroke:#000000;stroke-linecap:square;stroke-linejoin:miter;stroke-width:0.8;"/>
   </g>
   <g id="patch_6">
    <path d="M 63 51.84 
L 453.6 51.84 
" style="fill:none;stroke:#000000;stroke-linecap:square;stroke-linejoin:miter;stroke-width:0.8;"/>
   </g>
   <g id="legend_1">
    <g id="patch_7">
     <path d="M 70 89.19625 
L 133.139062 89.19625 
Q 135.139062 89.19625 135.139062 87.19625 
L 135.139062 58.84 
Q 135.139062 56.84 133.139062 56.84 
L 70 56.84 
Q 68 56.84 68 58.84 
L 68 87.19625 
Q 68 89.19625 70 89.19625 
z
" style="fill:#ffffff;opacity:0.8;stroke:#cccccc;stroke-linejoin:miter;"/>
    </g>
    <g id="line2d_16">
     <path d="M 72 64.938437 
L 92 64.938437 
" style="fill:none;stroke:#1f77b4;stroke-linecap:square;stroke-width:1.5;"/>
    </g>
    <g id="line2d_17"/>
    <g id="text_16">
     <!-- target -->
     <g transform="translate(100 68.438437)scale(0.1 -0.1)">
      <defs>
       <path d="M 41.109375 46.296875 
Q 39.59375 47.171875 37.8125 47.578125 
Q 36.03125 48 33.890625 48 
Q 26.265625 48 22.1875 43.046875 
Q 18.109375 38.09375 18.109375 28.8125 
L 18.109375 0 
L 9.078125 0 
L 9.078125 54.6875 
L 18.109375 54.6875 
L 18.109375 46.1875 
Q 20.953125 51.171875 25.484375 53.578125 
Q 30.03125 56 36.53125 56 
Q 37.453125 56 38.578125 55.875 
Q 39.703125 55.765625 41.0625 55.515625 
z
" id="DejaVuSans-114"/>
      </defs>
      <use xlink:href="#DejaVuSans-116"/>
      <use x="39.208984" xlink:href="#DejaVuSans-97"/>
      <use x="100.488281" xlink:href="#DejaVuSans-114"/>
      <use x="139.851562" xlink:href="#DejaVuSans-103"/>
      <use x="203.328125" xlink:href="#DejaVuSans-101"/>
      <use x="264.851562" xlink:href="#DejaVuSans-116"/>
     </g>
    </g>
    <g id="line2d_18">
     <path d="M 72 79.616562 
L 92 79.616562 
" style="fill:none;stroke:#ff0000;stroke-linecap:square;stroke-width:1.5;"/>
    </g>
    <g id="line2d_19"/>
    <g id="text_17">
     <!-- model -->
     <g transform="translate(100 83.116562)scale(0.1 -0.1)">
      <defs>
       <path d="M 45.40625 46.390625 
L 45.40625 75.984375 
L 54.390625 75.984375 
L 54.390625 0 
L 45.40625 0 
L 45.40625 8.203125 
Q 42.578125 3.328125 38.25 0.953125 
Q 33.9375 -1.421875 27.875 -1.421875 
Q 17.96875 -1.421875 11.734375 6.484375 
Q 5.515625 14.40625 5.515625 27.296875 
Q 5.515625 40.1875 11.734375 48.09375 
Q 17.96875 56 27.875 56 
Q 33.9375 56 38.25 53.625 
Q 42.578125 51.265625 45.40625 46.390625 
z
M 14.796875 27.296875 
Q 14.796875 17.390625 18.875 11.75 
Q 22.953125 6.109375 30.078125 6.109375 
Q 37.203125 6.109375 41.296875 11.75 
Q 45.40625 17.390625 45.40625 27.296875 
Q 45.40625 37.203125 41.296875 42.84375 
Q 37.203125 48.484375 30.078125 48.484375 
Q 22.953125 48.484375 18.875 42.84375 
Q 14.796875 37.203125 14.796875 27.296875 
z
" id="DejaVuSans-100"/>
      </defs>
      <use xlink:href="#DejaVuSans-109"/>
      <use x="97.412109" xlink:href="#DejaVuSans-111"/>
      <use x="158.59375" xlink:href="#DejaVuSans-100"/>
      <use x="222.070312" xlink:href="#DejaVuSans-101"/>
      <use x="283.59375" xlink:href="#DejaVuSans-108"/>
     </g>
    </g>
   </g>
  </g>
 </g>
 <defs>
  <clipPath id="p84d2c16b9f">
   <rect height="332.64" width="390.6" x="63" y="51.84"/>
  </clipPath>
 </defs>
</svg>
