<?xml version="1.0" encoding="utf-8" standalone="no"?>
<!DOCTYPE svg PUBLIC "-//W3C//DTD SVG 1.1//EN"
  "http://www.w3.org/Graphics/SVG/1.1/DTD/svg11.dtd">
<!-- Created with matplotlib (https://matplotlib.org/) -->
<svg height="432pt" version="1.1" viewBox="0 0 504 432" width="504pt" xmlns="http://www.w3.org/2000/svg" xmlns:xlink="http://www.w3.org/1999/xlink">
 <defs>
  <style type="text/css">
*{stroke-linecap:butt;stroke-linejoin:round;}
  </style>
 </defs>
 <g id="figure_1">
  <g id="patch_1">
   <path d="M 0 432 
L 504 432 
L 504 0 
L 0 0 
z
" style="fill:#ffffff;"/>
  </g>
  <g id="axes_1">
   <g id="patch_2">
    <path d="M 63 384.48 
L 453.6 384.48 
L 453.6 51.84 
L 63 51.84 
z
" style="fill:#ffffff;"/>
   </g>
   <g id="matplotlib.axis_1">
    <g id="xtick_1">
     <g id="line2d_1">
      <defs>
       <path d="M 0 0 
L 0 3.5 
" id="m62b527daab" style="stroke:#000000;stroke-width:0.8;"/>
      </defs>
      <g>
       <use style="stroke:#000000;stroke-width:0.8;" x="80.754545" xlink:href="#m62b527daab" y="384.48"/>
      </g>
     </g>
     <g id="text_1">
      <!-- 0 -->
      <defs>
       <path d="M 31.78125 66.40625 
Q 24.171875 66.40625 20.328125 58.90625 
Q 16.5 51.421875 16.5 36.375 
Q 16.5 21.390625 20.328125 13.890625 
Q 24.171875 6.390625 31.78125 6.390625 
Q 39.453125 6.390625 43.28125 13.890625 
Q 47.125 21.390625 47.125 36.375 
Q 47.125 51.421875 43.28125 58.90625 
Q 39.453125 66.40625 31.78125 66.40625 
z
M 31.78125 74.21875 
Q 44.046875 74.21875 50.515625 64.515625 
Q 56.984375 54.828125 56.984375 36.375 
Q 56.984375 17.96875 50.515625 8.265625 
Q 44.046875 -1.421875 31.78125 -1.421875 
Q 19.53125 -1.421875 13.0625 8.265625 
Q 6.59375 17.96875 6.59375 36.375 
Q 6.59375 54.828125 13.0625 64.515625 
Q 19.53125 74.21875 31.78125 74.21875 
z
" id="DejaVuSans-48"/>
      </defs>
      <g transform="translate(77.573295 399.078438)scale(0.1 -0.1)">
       <use xlink:href="#DejaVuSans-48"/>
      </g>
     </g>
    </g>
    <g id="xtick_2">
     <g id="line2d_2">
      <g>
       <use style="stroke:#000000;stroke-width:0.8;" x="151.767796" xlink:href="#m62b527daab" y="384.48"/>
      </g>
     </g>
     <g id="text_2">
      <!-- 720 -->
      <defs>
       <path d="M 8.203125 72.90625 
L 55.078125 72.90625 
L 55.078125 68.703125 
L 28.609375 0 
L 18.3125 0 
L 43.21875 64.59375 
L 8.203125 64.59375 
z
" id="DejaVuSans-55"/>
       <path d="M 19.1875 8.296875 
L 53.609375 8.296875 
L 53.609375 0 
L 7.328125 0 
L 7.328125 8.296875 
Q 12.9375 14.109375 22.625 23.890625 
Q 32.328125 33.6875 34.8125 36.53125 
Q 39.546875 41.84375 41.421875 45.53125 
Q 43.3125 49.21875 43.3125 52.78125 
Q 43.3125 58.59375 39.234375 62.25 
Q 35.15625 65.921875 28.609375 65.921875 
Q 23.96875 65.921875 18.8125 64.3125 
Q 13.671875 62.703125 7.8125 59.421875 
L 7.8125 69.390625 
Q 13.765625 71.78125 18.9375 73 
Q 24.125 74.21875 28.421875 74.21875 
Q 39.75 74.21875 46.484375 68.546875 
Q 53.21875 62.890625 53.21875 53.421875 
Q 53.21875 48.921875 51.53125 44.890625 
Q 49.859375 40.875 45.40625 35.40625 
Q 44.1875 33.984375 37.640625 27.21875 
Q 31.109375 20.453125 19.1875 8.296875 
z
" id="DejaVuSans-50"/>
      </defs>
      <g transform="translate(142.224046 399.078438)scale(0.1 -0.1)">
       <use xlink:href="#DejaVuSans-55"/>
       <use x="63.623047" xlink:href="#DejaVuSans-50"/>
       <use x="127.246094" xlink:href="#DejaVuSans-48"/>
      </g>
     </g>
    </g>
    <g id="xtick_3">
     <g id="line2d_3">
      <g>
       <use style="stroke:#000000;stroke-width:0.8;" x="222.781046" xlink:href="#m62b527daab" y="384.48"/>
      </g>
     </g>
     <g id="text_3">
      <!-- 1440 -->
      <defs>
       <path d="M 12.40625 8.296875 
L 28.515625 8.296875 
L 28.515625 63.921875 
L 10.984375 60.40625 
L 10.984375 69.390625 
L 28.421875 72.90625 
L 38.28125 72.90625 
L 38.28125 8.296875 
L 54.390625 8.296875 
L 54.390625 0 
L 12.40625 0 
z
" id="DejaVuSans-49"/>
       <path d="M 37.796875 64.3125 
L 12.890625 25.390625 
L 37.796875 25.390625 
z
M 35.203125 72.90625 
L 47.609375 72.90625 
L 47.609375 25.390625 
L 58.015625 25.390625 
L 58.015625 17.1875 
L 47.609375 17.1875 
L 47.609375 0 
L 37.796875 0 
L 37.796875 17.1875 
L 4.890625 17.1875 
L 4.890625 26.703125 
z
" id="DejaVuSans-52"/>
      </defs>
      <g transform="translate(210.056046 399.078438)scale(0.1 -0.1)">
       <use xlink:href="#DejaVuSans-49"/>
       <use x="63.623047" xlink:href="#DejaVuSans-52"/>
       <use x="127.246094" xlink:href="#DejaVuSans-52"/>
       <use x="190.869141" xlink:href="#DejaVuSans-48"/>
      </g>
     </g>
    </g>
    <g id="xtick_4">
     <g id="line2d_4">
      <g>
       <use style="stroke:#000000;stroke-width:0.8;" x="293.794296" xlink:href="#m62b527daab" y="384.48"/>
      </g>
     </g>
     <g id="text_4">
      <!-- 2160 -->
      <defs>
       <path d="M 33.015625 40.375 
Q 26.375 40.375 22.484375 35.828125 
Q 18.609375 31.296875 18.609375 23.390625 
Q 18.609375 15.53125 22.484375 10.953125 
Q 26.375 6.390625 33.015625 6.390625 
Q 39.65625 6.390625 43.53125 10.953125 
Q 47.40625 15.53125 47.40625 23.390625 
Q 47.40625 31.296875 43.53125 35.828125 
Q 39.65625 40.375 33.015625 40.375 
z
M 52.59375 71.296875 
L 52.59375 62.3125 
Q 48.875 64.0625 45.09375 64.984375 
Q 41.3125 65.921875 37.59375 65.921875 
Q 27.828125 65.921875 22.671875 59.328125 
Q 17.53125 52.734375 16.796875 39.40625 
Q 19.671875 43.65625 24.015625 45.921875 
Q 28.375 48.1875 33.59375 48.1875 
Q 44.578125 48.1875 50.953125 41.515625 
Q 57.328125 34.859375 57.328125 23.390625 
Q 57.328125 12.15625 50.6875 5.359375 
Q 44.046875 -1.421875 33.015625 -1.421875 
Q 20.359375 -1.421875 13.671875 8.265625 
Q 6.984375 17.96875 6.984375 36.375 
Q 6.984375 53.65625 15.1875 63.9375 
Q 23.390625 74.21875 37.203125 74.21875 
Q 40.921875 74.21875 44.703125 73.484375 
Q 48.484375 72.75 52.59375 71.296875 
z
" id="DejaVuSans-54"/>
      </defs>
      <g transform="translate(281.069296 399.078438)scale(0.1 -0.1)">
       <use xlink:href="#DejaVuSans-50"/>
       <use x="63.623047" xlink:href="#DejaVuSans-49"/>
       <use x="127.246094" xlink:href="#DejaVuSans-54"/>
       <use x="190.869141" xlink:href="#DejaVuSans-48"/>
      </g>
     </g>
    </g>
    <g id="xtick_5">
     <g id="line2d_5">
      <g>
       <use style="stroke:#000000;stroke-width:0.8;" x="364.807547" xlink:href="#m62b527daab" y="384.48"/>
      </g>
     </g>
     <g id="text_5">
      <!-- 2880 -->
      <defs>
       <path d="M 31.78125 34.625 
Q 24.75 34.625 20.71875 30.859375 
Q 16.703125 27.09375 16.703125 20.515625 
Q 16.703125 13.921875 20.71875 10.15625 
Q 24.75 6.390625 31.78125 6.390625 
Q 38.8125 6.390625 42.859375 10.171875 
Q 46.921875 13.96875 46.921875 20.515625 
Q 46.921875 27.09375 42.890625 30.859375 
Q 38.875 34.625 31.78125 34.625 
z
M 21.921875 38.8125 
Q 15.578125 40.375 12.03125 44.71875 
Q 8.5 49.078125 8.5 55.328125 
Q 8.5 64.0625 14.71875 69.140625 
Q 20.953125 74.21875 31.78125 74.21875 
Q 42.671875 74.21875 48.875 69.140625 
Q 55.078125 64.0625 55.078125 55.328125 
Q 55.078125 49.078125 51.53125 44.71875 
Q 48 40.375 41.703125 38.8125 
Q 48.828125 37.15625 52.796875 32.3125 
Q 56.78125 27.484375 56.78125 20.515625 
Q 56.78125 9.90625 50.3125 4.234375 
Q 43.84375 -1.421875 31.78125 -1.421875 
Q 19.734375 -1.421875 13.25 4.234375 
Q 6.78125 9.90625 6.78125 20.515625 
Q 6.78125 27.484375 10.78125 32.3125 
Q 14.796875 37.15625 21.921875 38.8125 
z
M 18.3125 54.390625 
Q 18.3125 48.734375 21.84375 45.5625 
Q 25.390625 42.390625 31.78125 42.390625 
Q 38.140625 42.390625 41.71875 45.5625 
Q 45.3125 48.734375 45.3125 54.390625 
Q 45.3125 60.0625 41.71875 63.234375 
Q 38.140625 66.40625 31.78125 66.40625 
Q 25.390625 66.40625 21.84375 63.234375 
Q 18.3125 60.0625 18.3125 54.390625 
z
" id="DejaVuSans-56"/>
      </defs>
      <g transform="translate(352.082547 399.078438)scale(0.1 -0.1)">
       <use xlink:href="#DejaVuSans-50"/>
       <use x="63.623047" xlink:href="#DejaVuSans-56"/>
       <use x="127.246094" xlink:href="#DejaVuSans-56"/>
       <use x="190.869141" xlink:href="#DejaVuSans-48"/>
      </g>
     </g>
    </g>
    <g id="text_6">
     <!-- time [ms] -->
     <defs>
      <path d="M 18.3125 70.21875 
L 18.3125 54.6875 
L 36.8125 54.6875 
L 36.8125 47.703125 
L 18.3125 47.703125 
L 18.3125 18.015625 
Q 18.3125 11.328125 20.140625 9.421875 
Q 21.96875 7.515625 27.59375 7.515625 
L 36.8125 7.515625 
L 36.8125 0 
L 27.59375 0 
Q 17.1875 0 13.234375 3.875 
Q 9.28125 7.765625 9.28125 18.015625 
L 9.28125 47.703125 
L 2.6875 47.703125 
L 2.6875 54.6875 
L 9.28125 54.6875 
L 9.28125 70.21875 
z
" id="DejaVuSans-116"/>
      <path d="M 9.421875 54.6875 
L 18.40625 54.6875 
L 18.40625 0 
L 9.421875 0 
z
M 9.421875 75.984375 
L 18.40625 75.984375 
L 18.40625 64.59375 
L 9.421875 64.59375 
z
" id="DejaVuSans-105"/>
      <path d="M 52 44.1875 
Q 55.375 50.25 60.0625 53.125 
Q 64.75 56 71.09375 56 
Q 79.640625 56 84.28125 50.015625 
Q 88.921875 44.046875 88.921875 33.015625 
L 88.921875 0 
L 79.890625 0 
L 79.890625 32.71875 
Q 79.890625 40.578125 77.09375 44.375 
Q 74.3125 48.1875 68.609375 48.1875 
Q 61.625 48.1875 57.5625 43.546875 
Q 53.515625 38.921875 53.515625 30.90625 
L 53.515625 0 
L 44.484375 0 
L 44.484375 32.71875 
Q 44.484375 40.625 41.703125 44.40625 
Q 38.921875 48.1875 33.109375 48.1875 
Q 26.21875 48.1875 22.15625 43.53125 
Q 18.109375 38.875 18.109375 30.90625 
L 18.109375 0 
L 9.078125 0 
L 9.078125 54.6875 
L 18.109375 54.6875 
L 18.109375 46.1875 
Q 21.1875 51.21875 25.484375 53.609375 
Q 29.78125 56 35.6875 56 
Q 41.65625 56 45.828125 52.96875 
Q 50 49.953125 52 44.1875 
z
" id="DejaVuSans-109"/>
      <path d="M 56.203125 29.59375 
L 56.203125 25.203125 
L 14.890625 25.203125 
Q 15.484375 15.921875 20.484375 11.0625 
Q 25.484375 6.203125 34.421875 6.203125 
Q 39.59375 6.203125 44.453125 7.46875 
Q 49.3125 8.734375 54.109375 11.28125 
L 54.109375 2.78125 
Q 49.265625 0.734375 44.1875 -0.34375 
Q 39.109375 -1.421875 33.890625 -1.421875 
Q 20.796875 -1.421875 13.15625 6.1875 
Q 5.515625 13.8125 5.515625 26.8125 
Q 5.515625 40.234375 12.765625 48.109375 
Q 20.015625 56 32.328125 56 
Q 43.359375 56 49.78125 48.890625 
Q 56.203125 41.796875 56.203125 29.59375 
z
M 47.21875 32.234375 
Q 47.125 39.59375 43.09375 43.984375 
Q 39.0625 48.390625 32.421875 48.390625 
Q 24.90625 48.390625 20.390625 44.140625 
Q 15.875 39.890625 15.1875 32.171875 
z
" id="DejaVuSans-101"/>
      <path id="DejaVuSans-32"/>
      <path d="M 8.59375 75.984375 
L 29.296875 75.984375 
L 29.296875 69 
L 17.578125 69 
L 17.578125 -6.203125 
L 29.296875 -6.203125 
L 29.296875 -13.1875 
L 8.59375 -13.1875 
z
" id="DejaVuSans-91"/>
      <path d="M 44.28125 53.078125 
L 44.28125 44.578125 
Q 40.484375 46.53125 36.375 47.5 
Q 32.28125 48.484375 27.875 48.484375 
Q 21.1875 48.484375 17.84375 46.4375 
Q 14.5 44.390625 14.5 40.28125 
Q 14.5 37.15625 16.890625 35.375 
Q 19.28125 33.59375 26.515625 31.984375 
L 29.59375 31.296875 
Q 39.15625 29.25 43.1875 25.515625 
Q 47.21875 21.78125 47.21875 15.09375 
Q 47.21875 7.46875 41.1875 3.015625 
Q 35.15625 -1.421875 24.609375 -1.421875 
Q 20.21875 -1.421875 15.453125 -0.5625 
Q 10.6875 0.296875 5.421875 2 
L 5.421875 11.28125 
Q 10.40625 8.6875 15.234375 7.390625 
Q 20.0625 6.109375 24.8125 6.109375 
Q 31.15625 6.109375 34.5625 8.28125 
Q 37.984375 10.453125 37.984375 14.40625 
Q 37.984375 18.0625 35.515625 20.015625 
Q 33.0625 21.96875 24.703125 23.78125 
L 21.578125 24.515625 
Q 13.234375 26.265625 9.515625 29.90625 
Q 5.8125 33.546875 5.8125 39.890625 
Q 5.8125 47.609375 11.28125 51.796875 
Q 16.75 56 26.8125 56 
Q 31.78125 56 36.171875 55.265625 
Q 40.578125 54.546875 44.28125 53.078125 
z
" id="DejaVuSans-115"/>
      <path d="M 30.421875 75.984375 
L 30.421875 -13.1875 
L 9.71875 -13.1875 
L 9.71875 -6.203125 
L 21.390625 -6.203125 
L 21.390625 69 
L 9.71875 69 
L 9.71875 75.984375 
z
" id="DejaVuSans-93"/>
     </defs>
     <g transform="translate(234.038281 412.756563)scale(0.1 -0.1)">
      <use xlink:href="#DejaVuSans-116"/>
      <use x="39.208984" xlink:href="#DejaVuSans-105"/>
      <use x="66.992188" xlink:href="#DejaVuSans-109"/>
      <use x="164.404297" xlink:href="#DejaVuSans-101"/>
      <use x="225.927734" xlink:href="#DejaVuSans-32"/>
      <use x="257.714844" xlink:href="#DejaVuSans-91"/>
      <use x="296.728516" xlink:href="#DejaVuSans-109"/>
      <use x="394.140625" xlink:href="#DejaVuSans-115"/>
      <use x="446.240234" xlink:href="#DejaVuSans-93"/>
     </g>
    </g>
   </g>
   <g id="matplotlib.axis_2">
    <g id="ytick_1">
     <g id="line2d_6">
      <defs>
       <path d="M 0 0 
L -3.5 0 
" id="m625e52ed2a" style="stroke:#000000;stroke-width:0.8;"/>
      </defs>
      <g>
       <use style="stroke:#000000;stroke-width:0.8;" x="63" xlink:href="#m625e52ed2a" y="367.345215"/>
      </g>
     </g>
     <g id="text_7">
      <!-- −80 -->
      <defs>
       <path d="M 10.59375 35.5 
L 73.1875 35.5 
L 73.1875 27.203125 
L 10.59375 27.203125 
z
" id="DejaVuSans-8722"/>
      </defs>
      <g transform="translate(34.895313 371.144434)scale(0.1 -0.1)">
       <use xlink:href="#DejaVuSans-8722"/>
       <use x="83.789062" xlink:href="#DejaVuSans-56"/>
       <use x="147.412109" xlink:href="#DejaVuSans-48"/>
      </g>
     </g>
    </g>
    <g id="ytick_2">
     <g id="line2d_7">
      <g>
       <use style="stroke:#000000;stroke-width:0.8;" x="63" xlink:href="#m625e52ed2a" y="314.643967"/>
      </g>
     </g>
     <g id="text_8">
      <!-- −60 -->
      <g transform="translate(34.895313 318.443186)scale(0.1 -0.1)">
       <use xlink:href="#DejaVuSans-8722"/>
       <use x="83.789062" xlink:href="#DejaVuSans-54"/>
       <use x="147.412109" xlink:href="#DejaVuSans-48"/>
      </g>
     </g>
    </g>
    <g id="ytick_3">
     <g id="line2d_8">
      <g>
       <use style="stroke:#000000;stroke-width:0.8;" x="63" xlink:href="#m625e52ed2a" y="261.942719"/>
      </g>
     </g>
     <g id="text_9">
      <!-- −40 -->
      <g transform="translate(34.895313 265.741938)scale(0.1 -0.1)">
       <use xlink:href="#DejaVuSans-8722"/>
       <use x="83.789062" xlink:href="#DejaVuSans-52"/>
       <use x="147.412109" xlink:href="#DejaVuSans-48"/>
      </g>
     </g>
    </g>
    <g id="ytick_4">
     <g id="line2d_9">
      <g>
       <use style="stroke:#000000;stroke-width:0.8;" x="63" xlink:href="#m625e52ed2a" y="209.241471"/>
      </g>
     </g>
     <g id="text_10">
      <!-- −20 -->
      <g transform="translate(34.895313 213.04069)scale(0.1 -0.1)">
       <use xlink:href="#DejaVuSans-8722"/>
       <use x="83.789062" xlink:href="#DejaVuSans-50"/>
       <use x="147.412109" xlink:href="#DejaVuSans-48"/>
      </g>
     </g>
    </g>
    <g id="ytick_5">
     <g id="line2d_10">
      <g>
       <use style="stroke:#000000;stroke-width:0.8;" x="63" xlink:href="#m625e52ed2a" y="156.540223"/>
      </g>
     </g>
     <g id="text_11">
      <!-- 0 -->
      <g transform="translate(49.6375 160.339442)scale(0.1 -0.1)">
       <use xlink:href="#DejaVuSans-48"/>
      </g>
     </g>
    </g>
    <g id="ytick_6">
     <g id="line2d_11">
      <g>
       <use style="stroke:#000000;stroke-width:0.8;" x="63" xlink:href="#m625e52ed2a" y="103.838975"/>
      </g>
     </g>
     <g id="text_12">
      <!-- 20 -->
      <g transform="translate(43.275 107.638194)scale(0.1 -0.1)">
       <use xlink:href="#DejaVuSans-50"/>
       <use x="63.623047" xlink:href="#DejaVuSans-48"/>
      </g>
     </g>
    </g>
    <g id="text_13">
     <!-- Voltage [mV] -->
     <defs>
      <path d="M 28.609375 0 
L 0.78125 72.90625 
L 11.078125 72.90625 
L 34.1875 11.53125 
L 57.328125 72.90625 
L 67.578125 72.90625 
L 39.796875 0 
z
" id="DejaVuSans-86"/>
      <path d="M 30.609375 48.390625 
Q 23.390625 48.390625 19.1875 42.75 
Q 14.984375 37.109375 14.984375 27.296875 
Q 14.984375 17.484375 19.15625 11.84375 
Q 23.34375 6.203125 30.609375 6.203125 
Q 37.796875 6.203125 41.984375 11.859375 
Q 46.1875 17.53125 46.1875 27.296875 
Q 46.1875 37.015625 41.984375 42.703125 
Q 37.796875 48.390625 30.609375 48.390625 
z
M 30.609375 56 
Q 42.328125 56 49.015625 48.375 
Q 55.71875 40.765625 55.71875 27.296875 
Q 55.71875 13.875 49.015625 6.21875 
Q 42.328125 -1.421875 30.609375 -1.421875 
Q 18.84375 -1.421875 12.171875 6.21875 
Q 5.515625 13.875 5.515625 27.296875 
Q 5.515625 40.765625 12.171875 48.375 
Q 18.84375 56 30.609375 56 
z
" id="DejaVuSans-111"/>
      <path d="M 9.421875 75.984375 
L 18.40625 75.984375 
L 18.40625 0 
L 9.421875 0 
z
" id="DejaVuSans-108"/>
      <path d="M 34.28125 27.484375 
Q 23.390625 27.484375 19.1875 25 
Q 14.984375 22.515625 14.984375 16.5 
Q 14.984375 11.71875 18.140625 8.90625 
Q 21.296875 6.109375 26.703125 6.109375 
Q 34.1875 6.109375 38.703125 11.40625 
Q 43.21875 16.703125 43.21875 25.484375 
L 43.21875 27.484375 
z
M 52.203125 31.203125 
L 52.203125 0 
L 43.21875 0 
L 43.21875 8.296875 
Q 40.140625 3.328125 35.546875 0.953125 
Q 30.953125 -1.421875 24.3125 -1.421875 
Q 15.921875 -1.421875 10.953125 3.296875 
Q 6 8.015625 6 15.921875 
Q 6 25.140625 12.171875 29.828125 
Q 18.359375 34.515625 30.609375 34.515625 
L 43.21875 34.515625 
L 43.21875 35.40625 
Q 43.21875 41.609375 39.140625 45 
Q 35.0625 48.390625 27.6875 48.390625 
Q 23 48.390625 18.546875 47.265625 
Q 14.109375 46.140625 10.015625 43.890625 
L 10.015625 52.203125 
Q 14.9375 54.109375 19.578125 55.046875 
Q 24.21875 56 28.609375 56 
Q 40.484375 56 46.34375 49.84375 
Q 52.203125 43.703125 52.203125 31.203125 
z
" id="DejaVuSans-97"/>
      <path d="M 45.40625 27.984375 
Q 45.40625 37.75 41.375 43.109375 
Q 37.359375 48.484375 30.078125 48.484375 
Q 22.859375 48.484375 18.828125 43.109375 
Q 14.796875 37.75 14.796875 27.984375 
Q 14.796875 18.265625 18.828125 12.890625 
Q 22.859375 7.515625 30.078125 7.515625 
Q 37.359375 7.515625 41.375 12.890625 
Q 45.40625 18.265625 45.40625 27.984375 
z
M 54.390625 6.78125 
Q 54.390625 -7.171875 48.1875 -13.984375 
Q 42 -20.796875 29.203125 -20.796875 
Q 24.46875 -20.796875 20.265625 -20.09375 
Q 16.0625 -19.390625 12.109375 -17.921875 
L 12.109375 -9.1875 
Q 16.0625 -11.328125 19.921875 -12.34375 
Q 23.78125 -13.375 27.78125 -13.375 
Q 36.625 -13.375 41.015625 -8.765625 
Q 45.40625 -4.15625 45.40625 5.171875 
L 45.40625 9.625 
Q 42.625 4.78125 38.28125 2.390625 
Q 33.9375 0 27.875 0 
Q 17.828125 0 11.671875 7.65625 
Q 5.515625 15.328125 5.515625 27.984375 
Q 5.515625 40.671875 11.671875 48.328125 
Q 17.828125 56 27.875 56 
Q 33.9375 56 38.28125 53.609375 
Q 42.625 51.21875 45.40625 46.390625 
L 45.40625 54.6875 
L 54.390625 54.6875 
z
" id="DejaVuSans-103"/>
     </defs>
     <g transform="translate(28.815625 251.079531)rotate(-90)scale(0.1 -0.1)">
      <use xlink:href="#DejaVuSans-86"/>
      <use x="68.298828" xlink:href="#DejaVuSans-111"/>
      <use x="129.480469" xlink:href="#DejaVuSans-108"/>
      <use x="157.263672" xlink:href="#DejaVuSans-116"/>
      <use x="196.472656" xlink:href="#DejaVuSans-97"/>
      <use x="257.751953" xlink:href="#DejaVuSans-103"/>
      <use x="321.228516" xlink:href="#DejaVuSans-101"/>
      <use x="382.751953" xlink:href="#DejaVuSans-32"/>
      <use x="414.539062" xlink:href="#DejaVuSans-91"/>
      <use x="453.552734" xlink:href="#DejaVuSans-109"/>
      <use x="550.964844" xlink:href="#DejaVuSans-86"/>
      <use x="619.373047" xlink:href="#DejaVuSans-93"/>
     </g>
    </g>
   </g>
   <g id="line2d_12">
    <path clip-path="url(#p8af3790120)" d="M 80.754545 327.819279 
L 80.986325 327.882974 
L 82.002209 328.323854 
L 83.047682 328.468452 
L 85.271777 328.497589 
L 100.480448 328.439978 
L 100.633324 343.756572 
L 100.963733 354.547111 
L 101.407566 362.420677 
L 101.846467 366.674362 
L 102.240985 368.594739 
L 102.566463 369.252833 
L 102.822899 369.357016 
L 103.079336 369.203429 
L 103.45906 368.669858 
L 104.307273 366.9769 
L 105.308363 365.189583 
L 106.087536 364.240116 
L 106.861778 363.637472 
L 107.724786 363.249138 
L 108.814642 363.014418 
L 110.501207 362.904917 
L 115.748297 362.897635 
L 130.069303 362.89612 
L 130.222178 347.72538 
L 130.547656 337.491213 
L 130.971763 330.511546 
L 131.400801 326.767475 
L 131.815045 324.912586 
L 132.204632 324.07906 
L 132.569561 323.772077 
L 132.944353 323.741523 
L 133.437501 323.94708 
L 134.339961 324.614076 
L 136.312551 326.067541 
L 137.722953 326.804702 
L 139.281299 327.363306 
L 139.932254 327.536344 
L 140.045678 327.823557 
L 142.15635 328.463513 
L 144.247295 328.499027 
L 159.663088 328.439978 
L 159.815964 325.375093 
L 160.146373 323.226474 
L 160.590206 321.683157 
L 161.068559 320.769561 
L 161.581432 320.247601 
L 162.183073 319.953187 
L 163.01156 319.812787 
L 164.530455 319.820985 
L 173.476152 320.093892 
L 187.723185 320.151493 
L 189.251943 320.15259 
L 189.404818 323.221463 
L 189.735227 325.363386 
L 190.17906 326.889275 
L 190.657413 327.790412 
L 191.170287 328.30555 
L 191.776858 328.598422 
L 192.615209 328.738552 
L 194.173555 328.732819 
L 199.114894 328.552904 
L 199.164209 327.810859 
L 199.228318 327.823557 
L 201.33899 328.463513 
L 203.429935 328.499027 
L 218.845729 328.439978 
L 218.998604 322.308689 
L 219.329013 318.002871 
L 219.772846 314.898579 
L 220.246268 313.041613 
L 220.744347 311.932482 
L 221.281878 311.256184 
L 221.898312 310.836036 
L 222.652828 310.59642 
L 223.575014 310.541137 
L 224.63035 310.707163 
L 228.205669 311.461476 
L 230.996885 311.658078 
L 236.59411 311.795171 
L 248.434583 311.853631 
L 248.59239 318.138988 
L 248.922799 322.424602 
L 249.356769 325.405679 
L 249.815396 327.143098 
L 250.283886 328.117823 
L 250.777034 328.66139 
L 251.339222 328.954294 
L 252.088806 329.079448 
L 253.395647 329.036618 
L 258.297534 328.68168 
L 258.346849 327.810859 
L 258.410958 327.823557 
L 260.52163 328.463513 
L 262.612576 328.499027 
L 278.028369 328.439978 
L 278.181244 319.239682 
L 278.511653 312.744496 
L 278.97028 307.801799 
L 279.655756 301.578792 
L 279.675482 264.154278 
L 279.729728 68.150605 
L 279.808631 184.809445 
L 280.000959 298.93742 
L 280.183423 307.446659 
L 280.37082 308.507644 
L 280.469449 308.482756 
L 280.484244 308.463469 
L 280.686434 307.982758 
L 281.919303 304.609545 
L 282.550532 303.707934 
L 283.433266 302.86906 
L 284.074358 302.163332 
L 284.291343 301.57605 
L 284.380109 300.613087 
L 284.394904 296.042835 
L 284.463944 73.913731 
L 284.562574 211.969003 
L 284.735176 298.641933 
L 284.91764 307.100519 
L 285.119831 308.416678 
L 285.248049 308.469559 
L 285.267775 308.45512 
L 285.465034 308.138566 
L 286.727492 305.714195 
L 287.348858 305.169153 
L 288.142825 304.780365 
L 289.385557 304.444648 
L 291.831569 304.051186 
L 296.506608 303.541874 
L 302.034792 302.921829 
L 302.69561 302.63197 
L 302.976704 302.275267 
L 303.109854 301.736795 
L 303.149306 300.469465 
L 303.173963 248.232998 
L 303.22821 78.201848 
L 303.307113 185.997061 
L 303.499441 297.49673 
L 303.686837 306.115278 
L 303.89889 307.675425 
L 304.086286 307.860221 
L 304.273682 307.698594 
L 304.9345 306.638854 
L 305.57066 305.904831 
L 306.275862 305.435451 
L 307.286814 305.050128 
L 307.617223 304.957752 
L 307.77503 314.404164 
L 308.095576 320.566219 
L 308.514752 324.717274 
L 308.958584 327.096943 
L 309.41228 328.416992 
L 309.875839 329.129199 
L 310.368986 329.496994 
L 310.965695 329.658754 
L 311.848429 329.644465 
L 314.235263 329.291094 
L 317.480174 328.921901 
L 317.529489 327.810859 
L 317.593598 327.823557 
L 319.70427 328.463513 
L 321.795216 328.499027 
L 337.211009 328.439978 
L 337.363884 316.166582 
L 337.699225 307.297565 
L 338.261413 294.937766 
L 338.295933 180.334378 
L 338.325522 67.016752 
L 338.404426 180.394529 
L 338.596753 294.927023 
L 338.774287 303.081986 
L 338.897573 303.618824 
L 338.932094 303.585323 
L 339.060312 303.145147 
L 339.45483 300.73192 
L 340.169894 295.209092 
L 340.283318 292.280599 
L 340.303044 283.544402 
L 340.362222 71.906353 
L 340.441125 180.609419 
L 340.638384 299.868749 
L 340.810986 306.840844 
L 340.88989 307.118733 
L 340.944136 307.029867 
L 341.106875 306.171204 
L 342.916726 293.136377 
L 342.951246 288.59942 
L 343.020287 77.189755 
L 343.118917 210.341292 
L 343.29645 297.104628 
L 343.473983 304.385889 
L 343.602201 304.926457 
L 343.63179 304.908464 
L 343.750146 304.586247 
L 344.115075 302.702519 
L 344.913974 298.877032 
L 345.890406 294.57703 
L 346.00383 292.633926 
L 346.028487 289.877333 
L 346.063008 183.946818 
L 346.097528 80.739022 
L 346.1715 171.626361 
L 346.373691 294.412604 
L 346.556155 302.600575 
L 346.73862 303.519087 
L 346.832318 303.432437 
L 347.03944 302.798189 
L 348.454773 297.812835 
L 349.243809 295.364828 
L 349.441068 293.914321 
L 349.515041 291.794829 
L 349.529835 286.090329 
L 349.598876 83.452981 
L 349.677779 181.972905 
L 349.875038 293.280225 
L 350.062434 301.507814 
L 350.254762 302.640306 
L 350.34846 302.649907 
L 350.378049 302.618457 
L 350.570376 302.186656 
L 352.444337 297.041707 
L 352.981868 295.552747 
L 353.203784 294.249839 
L 353.297482 292.287328 
L 353.317208 286.733412 
L 353.386249 85.201937 
L 353.470084 185.978631 
L 353.667343 292.70696 
L 353.854739 300.802876 
L 354.05693 302.116619 
L 354.175285 302.17238 
L 354.199943 302.153548 
L 354.382407 301.828012 
L 355.033362 299.963692 
L 355.832261 298.091523 
L 356.887597 295.69437 
L 357.124308 294.465923 
L 357.227869 292.713679 
L 357.252526 288.449893 
L 357.321567 86.489983 
L 357.420196 200.594487 
L 357.607592 292.355539 
L 357.794988 300.38897 
L 358.00211 301.821165 
L 358.140192 301.914331 
L 358.159918 301.902036 
L 358.337451 301.627038 
L 358.874982 300.204166 
L 359.703469 298.297062 
L 360.901818 295.688646 
L 361.133597 294.464528 
L 361.232227 292.736172 
L 361.256884 287.430092 
L 361.325925 87.288505 
L 361.414692 189.613768 
L 361.611951 291.967804 
L 361.804278 300.096157 
L 362.016332 301.576939 
L 362.169207 301.692436 
L 362.184002 301.684319 
L 362.361535 301.435446 
L 362.864545 300.189228 
L 363.732485 298.267198 
L 364.906176 295.796743 
L 365.147819 294.625579 
L 365.256311 292.994361 
L 365.2859 287.960212 
L 365.354941 87.858748 
L 365.448639 194.341331 
L 365.640966 291.581614 
L 365.833294 299.853362 
L 366.050279 301.42809 
L 366.213017 301.566665 
L 366.22288 301.562039 
L 366.395482 301.342544 
L 366.799863 300.396437 
L 366.952739 312.525675 
L 367.25849 319.959321 
L 367.662871 324.843669 
L 368.096841 327.623873 
L 368.535742 329.126412 
L 368.979575 329.917644 
L 369.438203 330.306964 
L 369.96587 330.462381 
L 370.70066 330.427998 
L 372.224486 330.079067 
L 375.232686 329.43083 
L 376.662814 329.215712 
L 376.712129 327.810859 
L 376.776238 327.823557 
L 378.88691 328.463513 
L 380.977856 328.499027 
L 396.393649 328.439978 
L 396.546525 313.087153 
L 396.896659 301.267734 
L 397.13337 292.237311 
L 397.153096 250.855031 
L 397.197479 66.96 
L 397.281314 184.732718 
L 397.468711 291.420306 
L 397.641312 298.902382 
L 397.705421 299.110038 
L 397.759668 298.983948 
L 397.922406 297.846221 
L 398.30213 293.421554 
L 398.479663 289.098022 
L 398.514183 283.865737 
L 398.553635 119.304428 
L 398.578293 72.162262 
L 398.647333 169.834024 
L 398.849524 300.923147 
L 399.012262 306.682976 
L 399.027057 306.695017 
L 399.066509 306.586112 
L 399.20459 305.335523 
L 400.008421 294.552925 
L 400.235268 289.730846 
L 400.27472 285.05617 
L 400.304309 197.909689 
L 400.343761 76.731834 
L 400.417733 179.147584 
L 400.614992 298.321998 
L 400.782662 304.476523 
L 400.812251 304.533304 
L 400.866497 304.3905 
L 401.034167 302.994738 
L 401.897176 292.782948 
L 402.054983 288.875965 
L 402.089503 281.215286 
L 402.153612 80.227704 
L 402.232516 182.38866 
L 402.429775 296.679932 
L 402.602377 302.951352 
L 402.64676 303.057216 
L 402.705938 302.918824 
L 402.878539 301.679625 
L 403.692233 293.308011 
L 403.899355 289.505597 
L 403.94867 283.646169 
L 404.01771 83.003009 
L 404.11634 207.11819 
L 404.298804 295.767104 
L 404.471406 301.832765 
L 404.530584 302.000622 
L 404.589761 301.887595 
L 404.757432 300.865809 
L 405.457701 294.531233 
L 405.773316 290.415286 
L 405.847288 286.676139 
L 405.867014 261.18753 
L 405.926191 84.837416 
L 406.000163 173.620398 
L 406.202354 293.95622 
L 406.379887 300.940563 
L 406.463722 301.221931 
L 406.513037 301.144653 
L 406.665913 300.372778 
L 407.203444 296.043318 
L 407.69166 290.966127 
L 407.790289 287.496358 
L 407.810015 281.83458 
L 407.879056 86.333728 
L 407.957959 181.889391 
L 408.155218 293.228058 
L 408.332752 300.246859 
L 408.431381 300.615706 
L 408.475764 300.562311 
L 408.613846 299.979332 
L 409.042884 296.877775 
L 409.654387 291.215703 
L 409.767811 287.87713 
L 409.792468 281.644767 
L 409.861509 87.193862 
L 409.940413 181.167068 
L 410.142603 293.001235 
L 410.320136 299.759123 
L 410.428629 300.180277 
L 410.473012 300.134989 
L 410.611093 299.606222 
L 411.015474 296.886393 
L 411.646703 291.41076 
L 411.774922 288.018498 
L 411.80451 277.108143 
L 411.86862 87.6029 
L 411.942592 171.883309 
L 412.149714 292.268608 
L 412.327247 299.419295 
L 412.450534 299.94031 
L 412.485054 299.913542 
L 412.603409 299.537185 
L 412.933818 297.519384 
L 413.648882 291.786666 
L 413.796827 288.69862 
L 413.831347 284.436432 
L 413.865867 177.576398 
L 413.900388 88.198006 
L 413.97436 168.907114 
L 414.181482 291.579322 
L 414.359015 299.066388 
L 414.497096 299.682852 
L 414.521754 299.667989 
L 414.630246 299.37642 
L 414.916272 297.781515 
L 415.651061 292.271686 
L 415.828595 289.359386 
L 415.877909 285.192227 
L 415.902567 227.144138 
L 415.951881 88.245258 
L 416.025854 172.184494 
L 416.232976 291.535191 
L 416.41544 298.931935 
L 416.553522 299.523812 
L 416.578179 299.51049 
L 416.686671 299.232427 
L 416.967765 297.717627 
L 417.697624 292.393733 
L 417.88502 289.503449 
L 417.939266 285.101547 
L 417.963924 226.346006 
L 418.013238 88.423036 
L 418.08721 172.375247 
L 418.294332 291.301575 
L 418.476797 298.749966 
L 418.624741 299.385384 
L 418.644467 299.37464 
L 418.748028 299.128476 
L 419.014328 297.759736 
L 419.734323 292.687241 
L 419.946377 289.741569 
L 420.005555 285.998085 
L 420.02528 250.47094 
L 420.084458 88.68992 
L 420.15843 174.069824 
L 420.365552 291.252208 
L 420.548017 298.613407 
L 420.700893 299.270355 
L 420.715687 299.263536 
L 420.814317 299.052021 
L 421.065822 297.823779 
L 421.771023 293.014234 
L 422.007734 290.096354 
L 422.081706 285.950683 
L 422.101432 249.686908 
L 422.160609 88.799723 
L 422.234582 174.301868 
L 422.441704 291.136487 
L 422.624168 298.518491 
L 422.777044 299.200949 
L 422.79677 299.193105 
L 422.900331 298.96648 
L 423.161699 297.682929 
L 423.8669 292.874995 
L 424.093748 289.978516 
L 424.162789 285.925479 
L 424.182514 249.237931 
L 424.236761 88.840496 
L 424.315664 174.430197 
L 424.522786 291.046875 
L 424.705251 298.448936 
L 424.863058 299.150593 
L 424.877853 299.145029 
L 424.976482 298.944908 
L 425.223056 297.779772 
L 425.913462 293.185428 
L 425.982503 292.593292 
L 426.14031 308.566022 
L 426.44113 318.036283 
L 426.835648 324.063685 
L 427.259755 327.466482 
L 427.693725 329.315537 
L 428.127695 330.277078 
L 428.566596 330.748117 
L 429.04495 330.943371 
L 429.666315 330.942711 
L 430.731514 330.683788 
L 434.528751 329.656753 
L 435.845455 329.413906 
L 435.845455 329.413906 
" style="fill:none;stroke:#ff0000;stroke-linecap:square;stroke-width:1.5;"/>
   </g>
   <g id="patch_3">
    <path d="M 63 384.48 
L 63 51.84 
" style="fill:none;stroke:#000000;stroke-linecap:square;stroke-linejoin:miter;stroke-width:0.8;"/>
   </g>
   <g id="patch_4">
    <path d="M 453.6 384.48 
L 453.6 51.84 
" style="fill:none;stroke:#000000;stroke-linecap:square;stroke-linejoin:miter;stroke-width:0.8;"/>
   </g>
   <g id="patch_5">
    <path d="M 63 384.48 
L 453.6 384.48 
" style="fill:none;stroke:#000000;stroke-linecap:square;stroke-linejoin:miter;stroke-width:0.8;"/>
   </g>
   <g id="patch_6">
    <path d="M 63 51.84 
L 453.6 51.84 
" style="fill:none;stroke:#000000;stroke-linecap:square;stroke-linejoin:miter;stroke-width:0.8;"/>
   </g>
   <g id="legend_1">
    <g id="patch_7">
     <path d="M 70 74.518125 
L 133.139062 74.518125 
Q 135.139062 74.518125 135.139062 72.518125 
L 135.139062 58.84 
Q 135.139062 56.84 133.139062 56.84 
L 70 56.84 
Q 68 56.84 68 58.84 
L 68 72.518125 
Q 68 74.518125 70 74.518125 
z
" style="fill:#ffffff;opacity:0.8;stroke:#cccccc;stroke-linejoin:miter;"/>
    </g>
    <g id="line2d_13">
     <path d="M 72 64.938438 
L 92 64.938438 
" style="fill:none;stroke:#ff0000;stroke-linecap:square;stroke-width:1.5;"/>
    </g>
    <g id="line2d_14"/>
    <g id="text_14">
     <!-- model -->
     <defs>
      <path d="M 45.40625 46.390625 
L 45.40625 75.984375 
L 54.390625 75.984375 
L 54.390625 0 
L 45.40625 0 
L 45.40625 8.203125 
Q 42.578125 3.328125 38.25 0.953125 
Q 33.9375 -1.421875 27.875 -1.421875 
Q 17.96875 -1.421875 11.734375 6.484375 
Q 5.515625 14.40625 5.515625 27.296875 
Q 5.515625 40.1875 11.734375 48.09375 
Q 17.96875 56 27.875 56 
Q 33.9375 56 38.25 53.625 
Q 42.578125 51.265625 45.40625 46.390625 
z
M 14.796875 27.296875 
Q 14.796875 17.390625 18.875 11.75 
Q 22.953125 6.109375 30.078125 6.109375 
Q 37.203125 6.109375 41.296875 11.75 
Q 45.40625 17.390625 45.40625 27.296875 
Q 45.40625 37.203125 41.296875 42.84375 
Q 37.203125 48.484375 30.078125 48.484375 
Q 22.953125 48.484375 18.875 42.84375 
Q 14.796875 37.203125 14.796875 27.296875 
z
" id="DejaVuSans-100"/>
     </defs>
     <g transform="translate(100 68.438438)scale(0.1 -0.1)">
      <use xlink:href="#DejaVuSans-109"/>
      <use x="97.412109" xlink:href="#DejaVuSans-111"/>
      <use x="158.59375" xlink:href="#DejaVuSans-100"/>
      <use x="222.070312" xlink:href="#DejaVuSans-101"/>
      <use x="283.59375" xlink:href="#DejaVuSans-108"/>
     </g>
    </g>
   </g>
  </g>
 </g>
 <defs>
  <clipPath id="p8af3790120">
   <rect height="332.64" width="390.6" x="63" y="51.84"/>
  </clipPath>
 </defs>
</svg>
