<?xml version="1.0" encoding="utf-8" standalone="no"?>
<!DOCTYPE svg PUBLIC "-//W3C//DTD SVG 1.1//EN"
  "http://www.w3.org/Graphics/SVG/1.1/DTD/svg11.dtd">
<!-- Created with matplotlib (http://matplotlib.org/) -->
<svg height="432pt" version="1.1" viewBox="0 0 504 432" width="504pt" xmlns="http://www.w3.org/2000/svg" xmlns:xlink="http://www.w3.org/1999/xlink">
 <defs>
  <style type="text/css">
*{stroke-linecap:butt;stroke-linejoin:round;}
  </style>
 </defs>
 <g id="figure_1">
  <g id="patch_1">
   <path d="M 0 432 
L 504 432 
L 504 0 
L 0 0 
z
" style="fill:#ffffff;"/>
  </g>
  <g id="axes_1">
   <g id="patch_2">
    <path d="M 63 384.48 
L 453.6 384.48 
L 453.6 51.84 
L 63 51.84 
z
" style="fill:#ffffff;"/>
   </g>
   <g id="matplotlib.axis_1">
    <g id="xtick_1">
     <g id="line2d_1">
      <defs>
       <path d="M 0 0 
L 0 3.5 
" id="mefe29a0a5a" style="stroke:#000000;stroke-width:0.8;"/>
      </defs>
      <g>
       <use style="stroke:#000000;stroke-width:0.8;" x="80.754545" xlink:href="#mefe29a0a5a" y="384.48"/>
      </g>
     </g>
     <g id="text_1">
      <!-- 0 -->
      <defs>
       <path d="M 31.78125 66.40625 
Q 24.171875 66.40625 20.328125 58.90625 
Q 16.5 51.421875 16.5 36.375 
Q 16.5 21.390625 20.328125 13.890625 
Q 24.171875 6.390625 31.78125 6.390625 
Q 39.453125 6.390625 43.28125 13.890625 
Q 47.125 21.390625 47.125 36.375 
Q 47.125 51.421875 43.28125 58.90625 
Q 39.453125 66.40625 31.78125 66.40625 
z
M 31.78125 74.21875 
Q 44.046875 74.21875 50.515625 64.515625 
Q 56.984375 54.828125 56.984375 36.375 
Q 56.984375 17.96875 50.515625 8.265625 
Q 44.046875 -1.421875 31.78125 -1.421875 
Q 19.53125 -1.421875 13.0625 8.265625 
Q 6.59375 17.96875 6.59375 36.375 
Q 6.59375 54.828125 13.0625 64.515625 
Q 19.53125 74.21875 31.78125 74.21875 
z
" id="DejaVuSans-30"/>
      </defs>
      <g transform="translate(77.573295 399.078438)scale(0.1 -0.1)">
       <use xlink:href="#DejaVuSans-30"/>
      </g>
     </g>
    </g>
    <g id="xtick_2">
     <g id="line2d_2">
      <g>
       <use style="stroke:#000000;stroke-width:0.8;" x="151.772727" xlink:href="#mefe29a0a5a" y="384.48"/>
      </g>
     </g>
     <g id="text_2">
      <!-- 200 -->
      <defs>
       <path d="M 19.1875 8.296875 
L 53.609375 8.296875 
L 53.609375 0 
L 7.328125 0 
L 7.328125 8.296875 
Q 12.9375 14.109375 22.625 23.890625 
Q 32.328125 33.6875 34.8125 36.53125 
Q 39.546875 41.84375 41.421875 45.53125 
Q 43.3125 49.21875 43.3125 52.78125 
Q 43.3125 58.59375 39.234375 62.25 
Q 35.15625 65.921875 28.609375 65.921875 
Q 23.96875 65.921875 18.8125 64.3125 
Q 13.671875 62.703125 7.8125 59.421875 
L 7.8125 69.390625 
Q 13.765625 71.78125 18.9375 73 
Q 24.125 74.21875 28.421875 74.21875 
Q 39.75 74.21875 46.484375 68.546875 
Q 53.21875 62.890625 53.21875 53.421875 
Q 53.21875 48.921875 51.53125 44.890625 
Q 49.859375 40.875 45.40625 35.40625 
Q 44.1875 33.984375 37.640625 27.21875 
Q 31.109375 20.453125 19.1875 8.296875 
z
" id="DejaVuSans-32"/>
      </defs>
      <g transform="translate(142.228977 399.078438)scale(0.1 -0.1)">
       <use xlink:href="#DejaVuSans-32"/>
       <use x="63.623047" xlink:href="#DejaVuSans-30"/>
       <use x="127.246094" xlink:href="#DejaVuSans-30"/>
      </g>
     </g>
    </g>
    <g id="xtick_3">
     <g id="line2d_3">
      <g>
       <use style="stroke:#000000;stroke-width:0.8;" x="222.790909" xlink:href="#mefe29a0a5a" y="384.48"/>
      </g>
     </g>
     <g id="text_3">
      <!-- 400 -->
      <defs>
       <path d="M 37.796875 64.3125 
L 12.890625 25.390625 
L 37.796875 25.390625 
z
M 35.203125 72.90625 
L 47.609375 72.90625 
L 47.609375 25.390625 
L 58.015625 25.390625 
L 58.015625 17.1875 
L 47.609375 17.1875 
L 47.609375 0 
L 37.796875 0 
L 37.796875 17.1875 
L 4.890625 17.1875 
L 4.890625 26.703125 
z
" id="DejaVuSans-34"/>
      </defs>
      <g transform="translate(213.247159 399.078438)scale(0.1 -0.1)">
       <use xlink:href="#DejaVuSans-34"/>
       <use x="63.623047" xlink:href="#DejaVuSans-30"/>
       <use x="127.246094" xlink:href="#DejaVuSans-30"/>
      </g>
     </g>
    </g>
    <g id="xtick_4">
     <g id="line2d_4">
      <g>
       <use style="stroke:#000000;stroke-width:0.8;" x="293.809091" xlink:href="#mefe29a0a5a" y="384.48"/>
      </g>
     </g>
     <g id="text_4">
      <!-- 600 -->
      <defs>
       <path d="M 33.015625 40.375 
Q 26.375 40.375 22.484375 35.828125 
Q 18.609375 31.296875 18.609375 23.390625 
Q 18.609375 15.53125 22.484375 10.953125 
Q 26.375 6.390625 33.015625 6.390625 
Q 39.65625 6.390625 43.53125 10.953125 
Q 47.40625 15.53125 47.40625 23.390625 
Q 47.40625 31.296875 43.53125 35.828125 
Q 39.65625 40.375 33.015625 40.375 
z
M 52.59375 71.296875 
L 52.59375 62.3125 
Q 48.875 64.0625 45.09375 64.984375 
Q 41.3125 65.921875 37.59375 65.921875 
Q 27.828125 65.921875 22.671875 59.328125 
Q 17.53125 52.734375 16.796875 39.40625 
Q 19.671875 43.65625 24.015625 45.921875 
Q 28.375 48.1875 33.59375 48.1875 
Q 44.578125 48.1875 50.953125 41.515625 
Q 57.328125 34.859375 57.328125 23.390625 
Q 57.328125 12.15625 50.6875 5.359375 
Q 44.046875 -1.421875 33.015625 -1.421875 
Q 20.359375 -1.421875 13.671875 8.265625 
Q 6.984375 17.96875 6.984375 36.375 
Q 6.984375 53.65625 15.1875 63.9375 
Q 23.390625 74.21875 37.203125 74.21875 
Q 40.921875 74.21875 44.703125 73.484375 
Q 48.484375 72.75 52.59375 71.296875 
z
" id="DejaVuSans-36"/>
      </defs>
      <g transform="translate(284.265341 399.078438)scale(0.1 -0.1)">
       <use xlink:href="#DejaVuSans-36"/>
       <use x="63.623047" xlink:href="#DejaVuSans-30"/>
       <use x="127.246094" xlink:href="#DejaVuSans-30"/>
      </g>
     </g>
    </g>
    <g id="xtick_5">
     <g id="line2d_5">
      <g>
       <use style="stroke:#000000;stroke-width:0.8;" x="364.827273" xlink:href="#mefe29a0a5a" y="384.48"/>
      </g>
     </g>
     <g id="text_5">
      <!-- 800 -->
      <defs>
       <path d="M 31.78125 34.625 
Q 24.75 34.625 20.71875 30.859375 
Q 16.703125 27.09375 16.703125 20.515625 
Q 16.703125 13.921875 20.71875 10.15625 
Q 24.75 6.390625 31.78125 6.390625 
Q 38.8125 6.390625 42.859375 10.171875 
Q 46.921875 13.96875 46.921875 20.515625 
Q 46.921875 27.09375 42.890625 30.859375 
Q 38.875 34.625 31.78125 34.625 
z
M 21.921875 38.8125 
Q 15.578125 40.375 12.03125 44.71875 
Q 8.5 49.078125 8.5 55.328125 
Q 8.5 64.0625 14.71875 69.140625 
Q 20.953125 74.21875 31.78125 74.21875 
Q 42.671875 74.21875 48.875 69.140625 
Q 55.078125 64.0625 55.078125 55.328125 
Q 55.078125 49.078125 51.53125 44.71875 
Q 48 40.375 41.703125 38.8125 
Q 48.828125 37.15625 52.796875 32.3125 
Q 56.78125 27.484375 56.78125 20.515625 
Q 56.78125 9.90625 50.3125 4.234375 
Q 43.84375 -1.421875 31.78125 -1.421875 
Q 19.734375 -1.421875 13.25 4.234375 
Q 6.78125 9.90625 6.78125 20.515625 
Q 6.78125 27.484375 10.78125 32.3125 
Q 14.796875 37.15625 21.921875 38.8125 
z
M 18.3125 54.390625 
Q 18.3125 48.734375 21.84375 45.5625 
Q 25.390625 42.390625 31.78125 42.390625 
Q 38.140625 42.390625 41.71875 45.5625 
Q 45.3125 48.734375 45.3125 54.390625 
Q 45.3125 60.0625 41.71875 63.234375 
Q 38.140625 66.40625 31.78125 66.40625 
Q 25.390625 66.40625 21.84375 63.234375 
Q 18.3125 60.0625 18.3125 54.390625 
z
" id="DejaVuSans-38"/>
      </defs>
      <g transform="translate(355.283523 399.078438)scale(0.1 -0.1)">
       <use xlink:href="#DejaVuSans-38"/>
       <use x="63.623047" xlink:href="#DejaVuSans-30"/>
       <use x="127.246094" xlink:href="#DejaVuSans-30"/>
      </g>
     </g>
    </g>
    <g id="text_6">
     <!-- time [ms] -->
     <defs>
      <path d="M 18.3125 70.21875 
L 18.3125 54.6875 
L 36.8125 54.6875 
L 36.8125 47.703125 
L 18.3125 47.703125 
L 18.3125 18.015625 
Q 18.3125 11.328125 20.140625 9.421875 
Q 21.96875 7.515625 27.59375 7.515625 
L 36.8125 7.515625 
L 36.8125 0 
L 27.59375 0 
Q 17.1875 0 13.234375 3.875 
Q 9.28125 7.765625 9.28125 18.015625 
L 9.28125 47.703125 
L 2.6875 47.703125 
L 2.6875 54.6875 
L 9.28125 54.6875 
L 9.28125 70.21875 
z
" id="DejaVuSans-74"/>
      <path d="M 9.421875 54.6875 
L 18.40625 54.6875 
L 18.40625 0 
L 9.421875 0 
z
M 9.421875 75.984375 
L 18.40625 75.984375 
L 18.40625 64.59375 
L 9.421875 64.59375 
z
" id="DejaVuSans-69"/>
      <path d="M 52 44.1875 
Q 55.375 50.25 60.0625 53.125 
Q 64.75 56 71.09375 56 
Q 79.640625 56 84.28125 50.015625 
Q 88.921875 44.046875 88.921875 33.015625 
L 88.921875 0 
L 79.890625 0 
L 79.890625 32.71875 
Q 79.890625 40.578125 77.09375 44.375 
Q 74.3125 48.1875 68.609375 48.1875 
Q 61.625 48.1875 57.5625 43.546875 
Q 53.515625 38.921875 53.515625 30.90625 
L 53.515625 0 
L 44.484375 0 
L 44.484375 32.71875 
Q 44.484375 40.625 41.703125 44.40625 
Q 38.921875 48.1875 33.109375 48.1875 
Q 26.21875 48.1875 22.15625 43.53125 
Q 18.109375 38.875 18.109375 30.90625 
L 18.109375 0 
L 9.078125 0 
L 9.078125 54.6875 
L 18.109375 54.6875 
L 18.109375 46.1875 
Q 21.1875 51.21875 25.484375 53.609375 
Q 29.78125 56 35.6875 56 
Q 41.65625 56 45.828125 52.96875 
Q 50 49.953125 52 44.1875 
z
" id="DejaVuSans-6d"/>
      <path d="M 56.203125 29.59375 
L 56.203125 25.203125 
L 14.890625 25.203125 
Q 15.484375 15.921875 20.484375 11.0625 
Q 25.484375 6.203125 34.421875 6.203125 
Q 39.59375 6.203125 44.453125 7.46875 
Q 49.3125 8.734375 54.109375 11.28125 
L 54.109375 2.78125 
Q 49.265625 0.734375 44.1875 -0.34375 
Q 39.109375 -1.421875 33.890625 -1.421875 
Q 20.796875 -1.421875 13.15625 6.1875 
Q 5.515625 13.8125 5.515625 26.8125 
Q 5.515625 40.234375 12.765625 48.109375 
Q 20.015625 56 32.328125 56 
Q 43.359375 56 49.78125 48.890625 
Q 56.203125 41.796875 56.203125 29.59375 
z
M 47.21875 32.234375 
Q 47.125 39.59375 43.09375 43.984375 
Q 39.0625 48.390625 32.421875 48.390625 
Q 24.90625 48.390625 20.390625 44.140625 
Q 15.875 39.890625 15.1875 32.171875 
z
" id="DejaVuSans-65"/>
      <path id="DejaVuSans-20"/>
      <path d="M 8.59375 75.984375 
L 29.296875 75.984375 
L 29.296875 69 
L 17.578125 69 
L 17.578125 -6.203125 
L 29.296875 -6.203125 
L 29.296875 -13.1875 
L 8.59375 -13.1875 
z
" id="DejaVuSans-5b"/>
      <path d="M 44.28125 53.078125 
L 44.28125 44.578125 
Q 40.484375 46.53125 36.375 47.5 
Q 32.28125 48.484375 27.875 48.484375 
Q 21.1875 48.484375 17.84375 46.4375 
Q 14.5 44.390625 14.5 40.28125 
Q 14.5 37.15625 16.890625 35.375 
Q 19.28125 33.59375 26.515625 31.984375 
L 29.59375 31.296875 
Q 39.15625 29.25 43.1875 25.515625 
Q 47.21875 21.78125 47.21875 15.09375 
Q 47.21875 7.46875 41.1875 3.015625 
Q 35.15625 -1.421875 24.609375 -1.421875 
Q 20.21875 -1.421875 15.453125 -0.5625 
Q 10.6875 0.296875 5.421875 2 
L 5.421875 11.28125 
Q 10.40625 8.6875 15.234375 7.390625 
Q 20.0625 6.109375 24.8125 6.109375 
Q 31.15625 6.109375 34.5625 8.28125 
Q 37.984375 10.453125 37.984375 14.40625 
Q 37.984375 18.0625 35.515625 20.015625 
Q 33.0625 21.96875 24.703125 23.78125 
L 21.578125 24.515625 
Q 13.234375 26.265625 9.515625 29.90625 
Q 5.8125 33.546875 5.8125 39.890625 
Q 5.8125 47.609375 11.28125 51.796875 
Q 16.75 56 26.8125 56 
Q 31.78125 56 36.171875 55.265625 
Q 40.578125 54.546875 44.28125 53.078125 
z
" id="DejaVuSans-73"/>
      <path d="M 30.421875 75.984375 
L 30.421875 -13.1875 
L 9.71875 -13.1875 
L 9.71875 -6.203125 
L 21.390625 -6.203125 
L 21.390625 69 
L 9.71875 69 
L 9.71875 75.984375 
z
" id="DejaVuSans-5d"/>
     </defs>
     <g transform="translate(234.038281 412.756563)scale(0.1 -0.1)">
      <use xlink:href="#DejaVuSans-74"/>
      <use x="39.208984" xlink:href="#DejaVuSans-69"/>
      <use x="66.992188" xlink:href="#DejaVuSans-6d"/>
      <use x="164.404297" xlink:href="#DejaVuSans-65"/>
      <use x="225.927734" xlink:href="#DejaVuSans-20"/>
      <use x="257.714844" xlink:href="#DejaVuSans-5b"/>
      <use x="296.728516" xlink:href="#DejaVuSans-6d"/>
      <use x="394.140625" xlink:href="#DejaVuSans-73"/>
      <use x="446.240234" xlink:href="#DejaVuSans-5d"/>
     </g>
    </g>
   </g>
   <g id="matplotlib.axis_2">
    <g id="ytick_1">
     <g id="line2d_6">
      <defs>
       <path d="M 0 0 
L -3.5 0 
" id="mfe6773bb90" style="stroke:#000000;stroke-width:0.8;"/>
      </defs>
      <g>
       <use style="stroke:#000000;stroke-width:0.8;" x="63" xlink:href="#mfe6773bb90" y="382.2895"/>
      </g>
     </g>
     <g id="text_7">
      <!-- −80 -->
      <defs>
       <path d="M 10.59375 35.5 
L 73.1875 35.5 
L 73.1875 27.203125 
L 10.59375 27.203125 
z
" id="DejaVuSans-2212"/>
      </defs>
      <g transform="translate(34.895313 386.088718)scale(0.1 -0.1)">
       <use xlink:href="#DejaVuSans-2212"/>
       <use x="83.789062" xlink:href="#DejaVuSans-38"/>
       <use x="147.412109" xlink:href="#DejaVuSans-30"/>
      </g>
     </g>
    </g>
    <g id="ytick_2">
     <g id="line2d_7">
      <g>
       <use style="stroke:#000000;stroke-width:0.8;" x="63" xlink:href="#mfe6773bb90" y="329.595463"/>
      </g>
     </g>
     <g id="text_8">
      <!-- −60 -->
      <g transform="translate(34.895313 333.394682)scale(0.1 -0.1)">
       <use xlink:href="#DejaVuSans-2212"/>
       <use x="83.789062" xlink:href="#DejaVuSans-36"/>
       <use x="147.412109" xlink:href="#DejaVuSans-30"/>
      </g>
     </g>
    </g>
    <g id="ytick_3">
     <g id="line2d_8">
      <g>
       <use style="stroke:#000000;stroke-width:0.8;" x="63" xlink:href="#mfe6773bb90" y="276.901427"/>
      </g>
     </g>
     <g id="text_9">
      <!-- −40 -->
      <g transform="translate(34.895313 280.700646)scale(0.1 -0.1)">
       <use xlink:href="#DejaVuSans-2212"/>
       <use x="83.789062" xlink:href="#DejaVuSans-34"/>
       <use x="147.412109" xlink:href="#DejaVuSans-30"/>
      </g>
     </g>
    </g>
    <g id="ytick_4">
     <g id="line2d_9">
      <g>
       <use style="stroke:#000000;stroke-width:0.8;" x="63" xlink:href="#mfe6773bb90" y="224.207391"/>
      </g>
     </g>
     <g id="text_10">
      <!-- −20 -->
      <g transform="translate(34.895313 228.00661)scale(0.1 -0.1)">
       <use xlink:href="#DejaVuSans-2212"/>
       <use x="83.789062" xlink:href="#DejaVuSans-32"/>
       <use x="147.412109" xlink:href="#DejaVuSans-30"/>
      </g>
     </g>
    </g>
    <g id="ytick_5">
     <g id="line2d_10">
      <g>
       <use style="stroke:#000000;stroke-width:0.8;" x="63" xlink:href="#mfe6773bb90" y="171.513355"/>
      </g>
     </g>
     <g id="text_11">
      <!-- 0 -->
      <g transform="translate(49.6375 175.312573)scale(0.1 -0.1)">
       <use xlink:href="#DejaVuSans-30"/>
      </g>
     </g>
    </g>
    <g id="ytick_6">
     <g id="line2d_11">
      <g>
       <use style="stroke:#000000;stroke-width:0.8;" x="63" xlink:href="#mfe6773bb90" y="118.819318"/>
      </g>
     </g>
     <g id="text_12">
      <!-- 20 -->
      <g transform="translate(43.275 122.618537)scale(0.1 -0.1)">
       <use xlink:href="#DejaVuSans-32"/>
       <use x="63.623047" xlink:href="#DejaVuSans-30"/>
      </g>
     </g>
    </g>
    <g id="ytick_7">
     <g id="line2d_12">
      <g>
       <use style="stroke:#000000;stroke-width:0.8;" x="63" xlink:href="#mfe6773bb90" y="66.125282"/>
      </g>
     </g>
     <g id="text_13">
      <!-- 40 -->
      <g transform="translate(43.275 69.924501)scale(0.1 -0.1)">
       <use xlink:href="#DejaVuSans-34"/>
       <use x="63.623047" xlink:href="#DejaVuSans-30"/>
      </g>
     </g>
    </g>
    <g id="text_14">
     <!-- voltage [mV] -->
     <defs>
      <path d="M 2.984375 54.6875 
L 12.5 54.6875 
L 29.59375 8.796875 
L 46.6875 54.6875 
L 56.203125 54.6875 
L 35.6875 0 
L 23.484375 0 
z
" id="DejaVuSans-76"/>
      <path d="M 30.609375 48.390625 
Q 23.390625 48.390625 19.1875 42.75 
Q 14.984375 37.109375 14.984375 27.296875 
Q 14.984375 17.484375 19.15625 11.84375 
Q 23.34375 6.203125 30.609375 6.203125 
Q 37.796875 6.203125 41.984375 11.859375 
Q 46.1875 17.53125 46.1875 27.296875 
Q 46.1875 37.015625 41.984375 42.703125 
Q 37.796875 48.390625 30.609375 48.390625 
z
M 30.609375 56 
Q 42.328125 56 49.015625 48.375 
Q 55.71875 40.765625 55.71875 27.296875 
Q 55.71875 13.875 49.015625 6.21875 
Q 42.328125 -1.421875 30.609375 -1.421875 
Q 18.84375 -1.421875 12.171875 6.21875 
Q 5.515625 13.875 5.515625 27.296875 
Q 5.515625 40.765625 12.171875 48.375 
Q 18.84375 56 30.609375 56 
z
" id="DejaVuSans-6f"/>
      <path d="M 9.421875 75.984375 
L 18.40625 75.984375 
L 18.40625 0 
L 9.421875 0 
z
" id="DejaVuSans-6c"/>
      <path d="M 34.28125 27.484375 
Q 23.390625 27.484375 19.1875 25 
Q 14.984375 22.515625 14.984375 16.5 
Q 14.984375 11.71875 18.140625 8.90625 
Q 21.296875 6.109375 26.703125 6.109375 
Q 34.1875 6.109375 38.703125 11.40625 
Q 43.21875 16.703125 43.21875 25.484375 
L 43.21875 27.484375 
z
M 52.203125 31.203125 
L 52.203125 0 
L 43.21875 0 
L 43.21875 8.296875 
Q 40.140625 3.328125 35.546875 0.953125 
Q 30.953125 -1.421875 24.3125 -1.421875 
Q 15.921875 -1.421875 10.953125 3.296875 
Q 6 8.015625 6 15.921875 
Q 6 25.140625 12.171875 29.828125 
Q 18.359375 34.515625 30.609375 34.515625 
L 43.21875 34.515625 
L 43.21875 35.40625 
Q 43.21875 41.609375 39.140625 45 
Q 35.0625 48.390625 27.6875 48.390625 
Q 23 48.390625 18.546875 47.265625 
Q 14.109375 46.140625 10.015625 43.890625 
L 10.015625 52.203125 
Q 14.9375 54.109375 19.578125 55.046875 
Q 24.21875 56 28.609375 56 
Q 40.484375 56 46.34375 49.84375 
Q 52.203125 43.703125 52.203125 31.203125 
z
" id="DejaVuSans-61"/>
      <path d="M 45.40625 27.984375 
Q 45.40625 37.75 41.375 43.109375 
Q 37.359375 48.484375 30.078125 48.484375 
Q 22.859375 48.484375 18.828125 43.109375 
Q 14.796875 37.75 14.796875 27.984375 
Q 14.796875 18.265625 18.828125 12.890625 
Q 22.859375 7.515625 30.078125 7.515625 
Q 37.359375 7.515625 41.375 12.890625 
Q 45.40625 18.265625 45.40625 27.984375 
z
M 54.390625 6.78125 
Q 54.390625 -7.171875 48.1875 -13.984375 
Q 42 -20.796875 29.203125 -20.796875 
Q 24.46875 -20.796875 20.265625 -20.09375 
Q 16.0625 -19.390625 12.109375 -17.921875 
L 12.109375 -9.1875 
Q 16.0625 -11.328125 19.921875 -12.34375 
Q 23.78125 -13.375 27.78125 -13.375 
Q 36.625 -13.375 41.015625 -8.765625 
Q 45.40625 -4.15625 45.40625 5.171875 
L 45.40625 9.625 
Q 42.625 4.78125 38.28125 2.390625 
Q 33.9375 0 27.875 0 
Q 17.828125 0 11.671875 7.65625 
Q 5.515625 15.328125 5.515625 27.984375 
Q 5.515625 40.671875 11.671875 48.328125 
Q 17.828125 56 27.875 56 
Q 33.9375 56 38.28125 53.609375 
Q 42.625 51.21875 45.40625 46.390625 
L 45.40625 54.6875 
L 54.390625 54.6875 
z
" id="DejaVuSans-67"/>
      <path d="M 28.609375 0 
L 0.78125 72.90625 
L 11.078125 72.90625 
L 34.1875 11.53125 
L 57.328125 72.90625 
L 67.578125 72.90625 
L 39.796875 0 
z
" id="DejaVuSans-56"/>
     </defs>
     <g transform="translate(28.815625 250.624062)rotate(-90)scale(0.1 -0.1)">
      <use xlink:href="#DejaVuSans-76"/>
      <use x="59.179688" xlink:href="#DejaVuSans-6f"/>
      <use x="120.361328" xlink:href="#DejaVuSans-6c"/>
      <use x="148.144531" xlink:href="#DejaVuSans-74"/>
      <use x="187.353516" xlink:href="#DejaVuSans-61"/>
      <use x="248.632812" xlink:href="#DejaVuSans-67"/>
      <use x="312.109375" xlink:href="#DejaVuSans-65"/>
      <use x="373.632812" xlink:href="#DejaVuSans-20"/>
      <use x="405.419922" xlink:href="#DejaVuSans-5b"/>
      <use x="444.433594" xlink:href="#DejaVuSans-6d"/>
      <use x="541.845703" xlink:href="#DejaVuSans-56"/>
      <use x="610.253906" xlink:href="#DejaVuSans-5d"/>
     </g>
    </g>
   </g>
   <g id="line2d_13">
    <path clip-path="url(#p054d028f35)" d="M 80.754545 342.768972 
L 81.952977 342.632231 
L 83.763941 342.689141 
L 87.749836 342.696518 
L 151.772727 342.69968 
L 152.314241 298.010395 
L 152.420768 249.193849 
L 152.562805 66.979452 
L 152.678209 92.291033 
L 153.565936 369.355222 
L 153.610323 369.254312 
L 153.8145 367.870304 
L 154.293873 363.098859 
L 154.959668 353.943533 
L 157.42755 314.907264 
L 157.613973 303.7385 
L 157.738255 281.691052 
L 157.835905 218.901365 
L 157.969064 91.431329 
L 158.031205 104.632766 
L 158.883423 368.92919 
L 158.945564 368.745025 
L 159.203005 366.758459 
L 159.717886 361.064342 
L 160.534595 349.092784 
L 161.8218 330.894898 
L 162.514227 320.48967 
L 162.771668 312.940986 
L 162.940336 300.904878 
L 163.064618 272.834238 
L 163.162268 188.120223 
L 163.268795 92.355056 
L 163.322059 101.903742 
L 163.863573 297.731116 
L 164.147645 368.751875 
L 164.183155 368.89731 
L 164.245295 368.715252 
L 164.493859 366.804567 
L 165.008741 361.130209 
L 165.834327 349.035084 
L 167.112655 330.969724 
L 167.813959 320.454102 
L 168.0714 312.895669 
L 168.240068 300.820041 
L 168.36435 272.587103 
L 168.462 187.371836 
L 168.568527 92.432253 
L 168.621791 102.126638 
L 169.172182 301.69766 
L 169.4385 368.66572 
L 169.482886 368.895203 
L 169.545027 368.709193 
L 169.802468 366.71446 
L 170.31735 361.002426 
L 171.151814 348.745003 
L 172.430141 330.726014 
L 173.113691 320.435659 
L 173.371132 312.859047 
L 173.5398 300.723874 
L 173.664082 272.247753 
L 173.761732 186.216229 
L 173.868259 92.449115 
L 173.921523 102.363498 
L 174.480791 305.784082 
L 174.729355 368.555853 
L 174.782618 368.895203 
L 174.844759 368.704977 
L 175.1022 366.707083 
L 175.617082 360.991624 
L 176.451545 348.732093 
L 177.729873 330.715212 
L 178.413423 320.418797 
L 178.670864 312.822952 
L 178.839532 300.62639 
L 178.963814 271.899446 
L 179.061464 185.026793 
L 179.167991 92.466504 
L 179.221255 102.602992 
L 179.7894 309.974049 
L 180.029086 368.568236 
L 180.08235 368.895466 
L 180.144491 368.700498 
L 180.401932 366.699706 
L 180.916814 360.981085 
L 181.751277 348.71971 
L 183.029605 330.704673 
L 183.713155 320.401671 
L 183.970595 312.786593 
L 184.139264 300.527852 
L 184.263545 271.542971 
L 184.361195 183.816437 
L 184.467723 92.49048 
L 184.520986 102.846175 
L 185.098009 314.256229 
L 185.328818 368.580356 
L 185.382082 368.895466 
L 185.444223 368.696283 
L 185.701664 366.692065 
L 186.216545 360.970546 
L 187.051009 348.707063 
L 188.329336 330.694134 
L 189.012886 320.384809 
L 189.270327 312.74997 
L 189.438995 300.427734 
L 189.563277 271.181226 
L 189.660927 182.60126 
L 189.767455 92.520252 
L 189.820718 103.091729 
L 190.406618 318.610865 
L 190.619673 368.445986 
L 190.681814 368.895203 
L 190.743955 368.691804 
L 191.010273 366.603012 
L 191.525155 360.844608 
L 192.368495 348.420408 
L 193.637945 330.567668 
L 194.312618 320.36742 
L 194.570059 312.713348 
L 194.738727 300.327088 
L 194.863009 270.816056 
L 194.969536 167.97192 
L 195.058309 92.506815 
L 195.12045 103.339918 
L 195.715227 323.011871 
L 195.919405 368.461531 
L 195.981545 368.895203 
L 196.043686 368.687325 
L 196.310005 366.595371 
L 196.833764 360.718142 
L 197.703736 347.860534 
L 198.955432 330.325539 
L 199.61235 320.350295 
L 199.869791 312.676199 
L 200.038459 300.225388 
L 200.162741 270.44351 
L 200.269268 166.703812 
L 200.358041 92.477306 
L 200.420182 103.592323 
L 201.023836 327.422098 
L 201.219136 368.476285 
L 201.281277 368.894676 
L 201.343418 368.682846 
L 201.609736 366.587731 
L 202.133495 360.707076 
L 202.994591 347.984365 
L 204.255164 330.314737 
L 204.912082 320.332642 
L 205.169523 312.638523 
L 205.338191 300.122108 
L 205.462473 270.063322 
L 205.569 165.427193 
L 205.657773 92.454911 
L 205.719914 103.846571 
L 206.332445 331.793332 
L 206.518868 368.491039 
L 206.581009 368.894412 
L 206.634273 368.725001 
L 206.873959 366.903105 
L 207.388841 361.270639 
L 208.187795 349.615772 
L 209.510509 330.881725 
L 210.202936 320.500209 
L 210.460377 312.994998 
L 210.629045 301.089044 
L 210.753327 273.543763 
L 210.850977 190.69048 
L 210.957505 92.43963 
L 211.019645 104.101874 
L 211.641055 336.071297 
L 211.827477 368.637265 
L 211.880741 368.893885 
L 211.934005 368.720785 
L 212.182568 366.815632 
L 212.69745 361.146018 
L 213.514159 349.191322 
L 214.810241 330.870923 
L 215.502668 320.483084 
L 215.760109 312.958902 
L 215.928777 300.99235 
L 216.053059 273.203096 
L 216.150709 189.506972 
L 216.257236 92.433307 
L 216.319377 104.35665 
L 216.949664 340.192234 
L 217.127209 368.647804 
L 217.171595 368.894412 
L 217.233736 368.71657 
L 217.4823 366.808255 
L 217.997182 361.135479 
L 218.822768 349.041407 
L 220.101095 330.97552 
L 220.8024 320.465958 
L 221.059841 312.92307 
L 221.228509 300.89592 
L 221.352791 272.861112 
L 221.450441 188.324043 
L 221.556968 92.433834 
L 221.610232 101.940892 
L 222.151745 297.786708 
L 222.426941 368.657816 
L 222.471327 368.894676 
L 222.533468 368.712354 
L 222.782032 366.800878 
L 223.296914 361.12494 
L 224.1225 349.028497 
L 225.418582 330.734182 
L 226.111009 320.263086 
L 226.36845 312.488608 
L 226.537118 299.707143 
L 226.652523 272.516493 
L 226.750173 187.136399 
L 226.8567 92.439893 
L 226.909964 102.179332 
L 227.460355 301.773276 
L 227.726673 368.667564 
L 227.771059 368.895203 
L 227.8332 368.708139 
L 228.090641 366.712616 
L 228.605523 360.999792 
L 229.439986 348.741841 
L 230.718314 330.723379 
L 231.401864 320.431707 
L 231.659305 312.850616 
L 231.827973 300.701742 
L 231.952255 272.169503 
L 232.049905 185.948543 
L 232.156432 92.452803 
L 232.209695 102.417509 
L 232.768964 305.86286 
L 233.017527 368.558751 
L 233.070791 368.895203 
L 233.132932 368.703923 
L 233.390373 366.705238 
L 233.905255 360.989253 
L 234.739718 348.729195 
L 236.018045 330.71284 
L 236.701595 320.414845 
L 236.959036 312.814784 
L 237.127705 300.604259 
L 237.251986 271.819351 
L 237.349636 184.75389 
L 237.456164 92.471246 
L 237.509427 102.658057 
L 238.077573 310.055197 
L 238.317259 368.570871 
L 238.370523 368.895466 
L 238.432664 368.699708 
L 238.690105 366.697861 
L 239.204986 360.978714 
L 240.03945 348.716812 
L 241.317777 330.702302 
L 242.001327 320.397983 
L 242.258768 312.778425 
L 242.427436 300.505194 
L 242.551718 271.461031 
L 242.649368 183.540716 
L 242.755895 92.496803 
L 242.809159 102.901767 
L 243.386182 314.339223 
L 243.616991 368.58299 
L 243.670255 368.895466 
L 243.732395 368.695229 
L 243.989836 366.690484 
L 244.504718 360.968175 
L 245.348059 348.567161 
L 246.617509 330.691499 
L 247.301059 320.380857 
L 247.5585 312.741803 
L 247.727168 300.404812 
L 247.85145 271.09876 
L 247.9491 182.324353 
L 248.055627 92.528156 
L 248.108891 103.147848 
L 248.694791 318.695702 
L 248.907845 368.449675 
L 248.969986 368.895203 
L 249.032127 368.691013 
L 249.298445 366.601431 
L 249.822205 360.726573 
L 250.692177 347.870546 
L 251.943873 330.33397 
L 252.600791 320.363468 
L 252.858232 312.704917 
L 253.0269 300.303903 
L 253.151182 270.731746 
L 253.257709 167.68321 
L 253.346482 92.499438 
L 253.408623 103.397355 
L 254.0034 323.098289 
L 254.207577 368.464956 
L 254.269718 368.894939 
L 254.331859 368.686534 
L 254.598177 366.593791 
L 255.121936 360.715507 
L 255.983032 347.994377 
L 257.22585 330.554495 
L 257.900523 320.346343 
L 258.157964 312.667768 
L 258.326632 300.20194 
L 258.450914 270.357355 
L 258.557441 166.412493 
L 258.646214 92.47151 
L 258.708355 103.65055 
L 259.312009 327.508516 
L 259.507309 368.47971 
L 259.56945 368.894676 
L 259.631591 368.681792 
L 259.897909 366.585886 
L 260.421668 360.704705 
L 261.291641 347.844989 
L 262.525582 330.543693 
L 263.200255 320.32869 
L 263.457695 312.630091 
L 263.626364 300.098396 
L 263.750645 269.97585 
L 263.857173 165.135347 
L 263.945945 92.450696 
L 264.008086 103.904798 
L 264.620618 331.878433 
L 264.807041 368.494464 
L 264.869182 368.894149 
L 264.922445 368.72421 
L 265.171009 366.821429 
L 265.685891 361.154449 
L 266.511477 349.064066 
L 267.807559 330.763954 
L 268.499986 320.311301 
L 268.757427 312.592415 
L 268.926095 299.994852 
L 269.050377 269.594345 
L 269.156905 163.867713 
L 269.245677 92.437522 
L 269.298941 101.520657 
L 269.8227 290.198504 
L 270.133405 368.806677 
L 270.168914 368.893885 
L 270.222177 368.719995 
L 270.470741 366.814052 
L 270.985623 361.143646 
L 271.802332 349.188423 
L 273.098414 330.868551 
L 273.790841 320.479132 
L 274.048282 312.950735 
L 274.21695 300.970482 
L 274.341232 273.125109 
L 274.438882 189.23623 
L 274.545409 92.433043 
L 274.598673 101.757516 
L 275.131309 293.979564 
L 275.424259 368.744498 
L 275.459768 368.894412 
L 275.521909 368.715779 
L 275.770473 366.806674 
L 276.285355 361.133108 
L 277.110941 349.038509 
L 278.389268 330.973149 
L 279.090573 320.462006 
L 279.348014 312.914639 
L 279.516682 300.873789 
L 279.640964 272.782598 
L 279.738614 188.053196 
L 279.845141 92.43436 
L 279.898405 101.99543 
L 280.439918 297.862851 
L 280.715114 368.659924 
L 280.7595 368.894939 
L 280.821641 368.711564 
L 281.079082 366.718412 
L 281.593964 361.007959 
L 282.428427 348.75159 
L 283.706755 330.731547 
L 284.390305 320.444881 
L 284.647745 312.878544 
L 284.816414 300.776832 
L 284.940695 272.437452 
L 285.038345 186.865446 
L 285.144873 92.442265 
L 285.198136 102.233607 
L 285.748527 301.850472 
L 286.014845 368.669672 
L 286.059232 368.895203 
L 286.121373 368.707085 
L 286.378814 366.711035 
L 286.893695 360.99742 
L 287.728159 348.738943 
L 289.006486 330.721008 
L 289.690036 320.428018 
L 289.947477 312.842448 
L 290.116145 300.679611 
L 290.240427 272.089935 
L 290.338077 185.676695 
L 290.444605 92.456492 
L 290.497868 102.472047 
L 291.057136 305.942428 
L 291.3057 368.561649 
L 291.358964 368.895466 
L 291.421105 368.702869 
L 291.678545 366.703658 
L 292.193427 360.986882 
L 293.027891 348.726297 
L 294.315095 330.594806 
L 294.989768 320.410893 
L 295.247209 312.806353 
L 295.415877 300.581864 
L 295.540159 271.738202 
L 295.637809 184.478116 
L 295.744336 92.476516 
L 295.7976 102.713386 
L 296.365745 310.136873 
L 296.605432 368.573769 
L 296.658695 368.895466 
L 296.720836 368.698654 
L 296.978277 366.69628 
L 297.493159 360.976343 
L 298.327623 348.713914 
L 299.60595 330.69993 
L 300.2895 320.394031 
L 300.546941 312.769994 
L 300.715609 300.482272 
L 300.839891 271.378829 
L 300.937541 183.264599 
L 301.044068 92.50339 
L 301.097332 102.95736 
L 301.674355 314.422216 
L 301.905164 368.585625 
L 301.958427 368.895466 
L 302.020568 368.694438 
L 302.286886 366.607228 
L 302.810645 360.734741 
L 303.671741 348.017035 
L 304.914559 330.573728 
L 305.589232 320.376905 
L 305.846673 312.733372 
L 306.015341 300.382153 
L 306.139623 271.01603 
L 306.24615 168.658523 
L 306.334923 92.525521 
L 306.397064 103.204231 
L 306.982964 318.780539 
L 307.196018 368.4531 
L 307.258159 368.895203 
L 307.3203 368.689959 
L 307.586618 366.599587 
L 308.110377 360.723938 
L 308.971473 348.004388 
L 310.214291 330.562926 
L 310.888964 320.35978 
L 311.146405 312.696486 
L 311.315073 300.280981 
L 311.439355 270.647172 
L 311.545882 167.395526 
L 311.634655 92.492587 
L 311.696795 103.454528 
L 312.291573 323.18418 
L 312.49575 368.468381 
L 312.557891 368.894939 
L 312.620032 368.68548 
L 312.88635 366.591946 
L 313.410109 360.713136 
L 314.280082 347.854737 
L 315.531777 330.320533 
L 316.188695 320.342127 
L 316.446136 312.659073 
L 316.614805 300.178491 
L 316.739086 270.271463 
L 316.845614 166.12228 
L 316.934386 92.46624 
L 316.996527 103.70825 
L 317.600182 327.594671 
L 317.795482 368.483135 
L 317.857623 368.894676 
L 317.910886 368.727372 
L 318.150573 366.907057 
L 318.665455 361.276435 
L 319.464409 349.622622 
L 320.787123 330.887785 
L 321.488427 320.324738 
L 321.745868 312.621397 
L 321.914536 300.074683 
L 322.038818 269.888641 
L 322.145345 164.844898 
L 322.234118 92.447007 
L 322.296259 103.963025 
L 322.908791 331.96327 
L 323.095214 368.49789 
L 323.157355 368.894149 
L 323.210618 368.723157 
L 323.459182 366.819848 
L 323.974064 361.151814 
L 324.790773 349.198172 
L 326.095732 330.761319 
L 326.779282 320.492305 
L 327.036723 312.978663 
L 327.205391 301.045044 
L 327.329673 273.388579 
L 327.427323 190.150893 
L 327.53385 92.435678 
L 327.595991 104.218064 
L 328.2174 336.235175 
L 328.403823 368.642008 
L 328.457086 368.893622 
L 328.51035 368.718941 
L 328.758914 366.812207 
L 329.273795 361.141275 
L 329.318182 360.564012 
L 329.335936 361.468769 
L 329.531236 365.480893 
L 329.620009 365.669801 
L 329.664395 365.612101 
L 329.815309 365.001904 
L 330.214786 362.169336 
L 332.176664 347.330432 
L 332.869091 344.090539 
L 333.428359 342.425934 
L 333.889977 341.678733 
L 334.262823 341.450568 
L 334.609036 341.487454 
L 335.061777 341.778061 
L 336.553159 342.874097 
L 337.156814 342.971318 
L 338.097805 342.86066 
L 339.580309 342.665165 
L 342.092577 342.701524 
L 435.845455 342.69968 
L 435.845455 342.69968 
" style="fill:none;stroke:#1f77b4;stroke-linecap:square;stroke-width:1.5;"/>
   </g>
   <g id="line2d_14">
    <path clip-path="url(#p054d028f35)" d="M 80.754545 342.768972 
L 82.166032 342.679269 
L 151.772727 342.724329 
L 152.314241 298.040412 
L 152.420768 249.305511 
L 152.562805 66.96 
L 152.678209 92.22764 
L 153.565936 369.36 
L 153.610323 369.26024 
L 153.8145 367.87842 
L 154.293873 363.111092 
L 154.959668 353.959965 
L 157.42755 314.91689 
L 157.613973 303.761329 
L 157.738255 281.766517 
L 157.835905 219.197505 
L 157.969064 91.423619 
L 158.031205 104.553931 
L 158.883423 368.933758 
L 158.954441 368.703821 
L 159.238514 366.440217 
L 159.762273 360.49922 
L 160.658877 347.194737 
L 161.892818 329.977208 
L 162.523105 320.311128 
L 162.780545 312.554803 
L 162.949214 299.848172 
L 163.073495 268.99536 
L 163.180023 161.804435 
L 163.268795 92.357412 
L 163.322059 101.832462 
L 163.863573 297.65161 
L 164.147645 368.754001 
L 164.183155 368.901699 
L 164.245295 368.721622 
L 164.493859 366.813468 
L 165.008741 361.143397 
L 165.82545 349.188363 
L 167.121532 330.863638 
L 167.813959 320.460979 
L 168.0714 312.905942 
L 168.240068 300.846113 
L 168.36435 272.685889 
L 168.462 187.734647 
L 168.568527 92.433313 
L 168.621791 102.057222 
L 169.172182 301.61939 
L 169.4385 368.667162 
L 169.482886 368.899713 
L 169.545027 368.715511 
L 169.802468 366.723485 
L 170.31735 361.015536 
L 171.142936 348.898087 
L 172.430141 330.735212 
L 173.113691 320.442463 
L 173.371132 312.86893 
L 173.5398 300.749359 
L 173.664082 272.345172 
L 173.761732 186.571583 
L 173.868259 92.448163 
L 173.921523 102.295689 
L 174.480791 305.706916 
L 174.729355 368.556569 
L 174.782618 368.899794 
L 174.844759 368.71111 
L 175.1022 366.715864 
L 175.617082 361.004728 
L 176.451545 348.74812 
L 177.729873 330.724377 
L 178.413423 320.42527 
L 178.670864 312.832606 
L 178.839532 300.651609 
L 178.963814 271.99552 
L 179.061464 185.377152 
L 179.167991 92.46385 
L 179.221255 102.536052 
L 179.7894 309.896725 
L 180.029086 368.569147 
L 180.08235 368.899945 
L 180.144491 368.706835 
L 180.401932 366.708416 
L 180.916814 360.99417 
L 181.751277 348.735516 
L 183.029605 330.713747 
L 183.713155 320.408236 
L 183.970595 312.796212 
L 184.139264 300.552595 
L 184.263545 271.638942 
L 184.361195 184.164507 
L 184.467723 92.48603 
L 184.520986 102.780086 
L 185.098009 314.179241 
L 185.328818 368.581354 
L 185.382082 368.899944 
L 185.444223 368.70248 
L 185.701664 366.700903 
L 186.216545 360.983522 
L 187.051009 348.722811 
L 188.329336 330.703031 
L 189.012886 320.391047 
L 189.270327 312.759446 
L 189.438995 300.452169 
L 189.563277 271.275878 
L 189.660927 182.941491 
L 189.767455 92.514409 
L 189.820718 103.026486 
L 190.406618 318.534809 
L 190.619673 368.44631 
L 190.681814 368.899901 
L 190.743955 368.698113 
L 191.010273 366.611939 
L 191.534032 360.742028 
L 192.395127 348.025753 
L 193.646823 330.461005 
L 194.312618 320.373801 
L 194.570059 312.722495 
L 194.738727 300.35109 
L 194.863009 270.90947 
L 194.969536 168.318325 
L 195.058309 92.519364 
L 195.12045 103.275714 
L 195.70635 318.910355 
L 195.919405 368.461878 
L 195.981545 368.899739 
L 196.043686 368.693657 
L 196.310005 366.604266 
L 196.833764 360.731151 
L 197.694859 348.01293 
L 198.946555 330.450142 
L 199.61235 320.356375 
L 199.869791 312.685175 
L 200.038459 300.248834 
L 200.162741 270.536107 
L 200.269268 167.043774 
L 200.358041 92.488091 
L 200.420182 103.529067 
L 201.014959 323.318007 
L 201.219136 368.477036 
L 201.281277 368.899425 
L 201.343418 368.689112 
L 201.609736 366.596511 
L 202.133495 360.720163 
L 202.994591 347.999982 
L 204.246286 330.439173 
L 204.912082 320.33877 
L 205.169523 312.647424 
L 205.338191 300.145103 
L 205.462473 270.15471 
L 205.569 165.757705 
L 205.657773 92.463324 
L 205.719914 103.785172 
L 206.323568 327.730958 
L 206.518868 368.491953 
L 206.581009 368.899052 
L 206.634273 368.731105 
L 206.873959 366.911417 
L 207.379964 361.396507 
L 208.170041 349.90572 
L 209.510509 330.890599 
L 210.211814 320.321115 
L 210.469255 312.609442 
L 210.637923 300.04032 
L 210.762205 269.768751 
L 210.868732 164.471235 
L 210.957505 92.446035 
L 211.019645 104.042707 
L 211.632177 332.101115 
L 211.8186 368.506635 
L 211.880741 368.898631 
L 211.934005 368.726879 
L 212.182568 366.824149 
L 212.69745 361.158637 
L 213.514159 349.206717 
L 214.819118 330.76419 
L 215.511545 320.303521 
L 215.768986 312.57158 
L 215.937655 299.935761 
L 216.061936 269.383035 
L 216.168464 163.198608 
L 216.257236 92.437218 
L 216.3105 101.650937 
L 216.834259 290.39236 
L 217.144964 368.813914 
L 217.180473 368.898078 
L 217.233736 368.722607 
L 217.4823 366.816582 
L 217.997182 361.147857 
L 218.813891 349.193762 
L 220.11885 330.753288 
L 220.8024 320.471459 
L 221.059841 312.930399 
L 221.228509 300.914567 
L 221.352791 272.93295 
L 221.450441 188.594315 
L 221.556968 92.436512 
L 221.610232 101.890019 
L 222.151745 297.735745 
L 222.435818 368.752933 
L 222.471327 368.899291 
L 222.533468 368.718319 
L 222.782032 366.809068 
L 223.296914 361.137158 
L 224.113623 349.180909 
L 225.409705 330.85798 
L 226.102132 320.454235 
L 226.359573 312.894008 
L 226.528241 300.816934 
L 226.652523 272.586337 
L 226.750173 187.399829 
L 226.8567 92.441019 
L 226.909964 102.130144 
L 227.460355 301.723867 
L 227.726673 368.669923 
L 227.771059 368.899613 
L 227.8332 368.714042 
L 228.090641 366.72101 
L 228.605523 361.012026 
L 229.431109 348.893898 
L 230.718314 330.731729 
L 231.401864 320.43705 
L 231.659305 312.857637 
L 231.827973 300.719208 
L 231.952255 272.237704 
L 232.049905 186.2047 
L 232.156432 92.452841 
L 232.209695 102.369713 
L 232.768964 305.814766 
L 233.017527 368.560509 
L 233.070791 368.89985 
L 233.132932 368.709784 
L 233.390373 366.713549 
L 233.905255 361.001446 
L 234.739718 348.744202 
L 236.018045 330.721077 
L 236.701595 320.419999 
L 236.959036 312.821366 
L 237.127705 300.621157 
L 237.251986 271.886322 
L 237.349636 185.004719 
L 237.456164 92.469887 
L 237.509427 102.611169 
L 238.077573 310.007963 
L 238.317259 368.572943 
L 238.370523 368.899952 
L 238.432664 368.705492 
L 238.690105 366.706095 
L 239.204986 360.990881 
L 240.03945 348.731591 
L 241.317777 330.710435 
L 242.001327 320.40292 
L 242.258768 312.784842 
L 242.427436 300.521544 
L 242.551718 271.526725 
L 242.649368 183.784505 
L 242.755895 92.494185 
L 242.809159 102.856436 
L 243.386182 314.2936 
L 243.616991 368.585122 
L 243.670255 368.899935 
L 243.732395 368.701122 
L 243.998714 366.617158 
L 244.522473 360.749428 
L 245.383568 348.03448 
L 246.635264 330.468397 
L 247.301059 320.385689 
L 247.5585 312.747973 
L 247.727168 300.4208 
L 247.85145 271.162372 
L 247.9491 182.560587 
L 248.055627 92.524482 
L 248.108891 103.103795 
L 248.694791 318.65158 
L 248.907845 368.451194 
L 248.969986 368.899867 
L 249.032127 368.696737 
L 249.298445 366.609562 
L 249.822205 360.738658 
L 250.6833 348.021779 
L 251.934995 330.457636 
L 252.600791 320.368389 
L 252.858232 312.710898 
L 253.0269 300.319345 
L 253.151182 270.794033 
L 253.257709 167.922604 
L 253.346482 92.508876 
L 253.408623 103.354209 
L 254.0034 323.055558 
L 254.207577 368.466635 
L 254.269718 368.899656 
L 254.331859 368.692252 
L 254.598177 366.601861 
L 255.121936 360.727744 
L 255.983032 348.008914 
L 257.234727 330.446741 
L 257.900523 320.350924 
L 258.157964 312.673498 
L 258.326632 300.216787 
L 258.450914 270.418388 
L 258.557441 166.644428 
L 258.646214 92.479486 
L 258.708355 103.608641 
L 259.312009 327.468455 
L 259.507309 368.481703 
L 259.56945 368.899312 
L 259.631591 368.68769 
L 259.897909 366.594092 
L 260.421668 360.716736 
L 261.282764 347.995945 
L 262.534459 330.43575 
L 263.200255 320.333268 
L 263.457695 312.635592 
L 263.626364 300.112476 
L 263.750645 270.034586 
L 263.857173 165.35677 
L 263.945945 92.457176 
L 264.008086 103.865029 
L 264.620618 331.842046 
L 264.807041 368.496551 
L 264.869182 368.898936 
L 264.922445 368.729802 
L 265.171009 366.829373 
L 265.685891 361.166081 
L 266.5026 349.215666 
L 267.807559 330.771728 
L 268.499986 320.315659 
L 268.757427 312.597698 
L 268.926095 300.007894 
L 269.050377 269.649218 
L 269.156905 164.074873 
L 269.245677 92.44233 
L 269.298941 101.485887 
L 269.813823 286.796799 
L 270.133405 368.810198 
L 270.168914 368.898474 
L 270.222177 368.725553 
L 270.470741 366.821792 
L 270.985623 361.155279 
L 271.802332 349.20268 
L 273.107291 330.760793 
L 273.799718 320.298054 
L 274.057159 312.559814 
L 274.225827 299.903251 
L 274.350109 269.262741 
L 274.456636 162.805654 
L 274.545409 92.436418 
L 274.598673 101.725235 
L 275.131309 293.954918 
L 275.424259 368.747846 
L 275.459768 368.89903 
L 275.521909 368.721271 
L 275.770473 366.814241 
L 276.285355 361.144524 
L 277.102064 349.189757 
L 278.398145 330.865421 
L 279.090573 320.466095 
L 279.348014 312.91907 
L 279.516682 300.884187 
L 279.640964 272.825268 
L 279.738614 188.222455 
L 279.845141 92.437225 
L 279.898405 101.964791 
L 280.439918 297.840373 
L 280.715114 368.663109 
L 280.7595 368.899403 
L 280.821641 368.716988 
L 281.070205 366.806738 
L 281.585086 361.13384 
L 282.401795 349.176925 
L 283.697877 330.85463 
L 284.390305 320.448883 
L 284.647745 312.882688 
L 284.816414 300.786535 
L 284.940695 272.478017 
L 285.038345 187.026604 
L 285.144873 92.44403 
L 285.198136 102.20497 
L 285.748527 301.830609 
L 286.014845 368.67295 
L 286.059232 368.899687 
L 286.121373 368.712705 
L 286.378814 366.718668 
L 286.893695 361.008706 
L 287.719282 348.889931 
L 289.006486 330.728386 
L 289.690036 320.431699 
L 289.947477 312.846294 
L 290.116145 300.688624 
L 290.240427 272.128186 
L 290.338077 185.830322 
L 290.444605 92.457547 
L 290.497868 102.444894 
L 291.057136 305.924152 
L 291.3057 368.56446 
L 291.358964 368.899906 
L 291.421105 368.708452 
L 291.678545 366.711224 
L 292.193427 360.99815 
L 293.027891 348.740267 
L 294.306218 330.717758 
L 294.989768 320.414678 
L 295.247209 312.809994 
L 295.415877 300.590222 
L 295.540159 271.774881 
L 295.637809 184.625629 
L 295.744336 92.476759 
L 295.7976 102.687471 
L 296.365745 310.120607 
L 296.605432 368.57676 
L 296.658695 368.899952 
L 296.720836 368.70413 
L 296.978277 366.703746 
L 297.493159 360.987552 
L 298.327623 348.727618 
L 299.60595 330.707084 
L 300.2895 320.397547 
L 300.546941 312.77335 
L 300.715609 300.490157 
L 300.839891 271.413258 
L 300.937541 183.402754 
L 301.044068 92.502979 
L 301.097332 102.933266 
L 301.674355 314.408487 
L 301.905164 368.588893 
L 301.958427 368.899926 
L 302.020568 368.699762 
L 302.286886 366.614797 
L 302.810645 360.74608 
L 303.671741 348.030531 
L 304.923436 330.465053 
L 305.589232 320.380307 
L 305.846673 312.736438 
L 306.015341 300.389242 
L 306.139623 271.048132 
L 306.24615 168.794963 
L 306.334923 92.532868 
L 306.397064 103.181511 
L 306.982964 318.768867 
L 307.196018 368.456064 
L 307.258159 368.899818 
L 307.3203 368.695345 
L 307.586618 366.607165 
L 308.110377 360.73526 
L 308.971473 348.017773 
L 310.223168 330.454242 
L 310.888964 320.362946 
L 311.146405 312.699241 
L 311.315073 300.287422 
L 311.439355 270.677384 
L 311.545882 167.523873 
L 311.634655 92.498992 
L 311.696795 103.433424 
L 312.291573 323.174736 
L 312.49575 368.47138 
L 312.557891 368.899558 
L 312.620032 368.690829 
L 312.88635 366.599434 
L 313.410109 360.724304 
L 314.271205 348.004861 
L 315.5229 330.443307 
L 316.188695 320.345412 
L 316.446136 312.661682 
L 316.614805 300.184334 
L 316.739086 270.299053 
L 316.845614 166.240682 
L 316.934386 92.471575 
L 316.996527 103.689206 
L 317.600182 327.588404 
L 317.795482 368.486393 
L 317.857623 368.899191 
L 317.910886 368.732679 
L 318.150573 366.914221 
L 318.656577 361.4005 
L 319.446655 349.910567 
L 320.787123 330.894682 
L 321.488427 320.327705 
L 321.745868 312.623627 
L 321.914536 300.079474 
L 322.038818 269.913034 
L 322.145345 164.951575 
L 322.234118 92.451651 
L 322.296259 103.946122 
L 322.908791 331.960367 
L 323.095214 368.501177 
L 323.157355 368.898805 
L 323.210618 368.728473 
L 323.459182 366.826993 
L 323.974064 361.162689 
L 324.790773 349.211588 
L 326.095732 330.768292 
L 326.788159 320.310127 
L 327.0456 312.585795 
L 327.214268 299.975025 
L 327.33855 269.527984 
L 327.445077 163.674567 
L 327.53385 92.43939 
L 327.587114 101.56123 
L 328.110873 290.272053 
L 328.421577 368.811916 
L 328.457086 368.898302 
L 328.51035 368.724209 
L 328.758914 366.81941 
L 329.273795 361.151885 
L 329.318182 360.574952 
L 329.335936 361.479948 
L 329.531236 365.49668 
L 329.620009 365.687795 
L 329.664395 365.631008 
L 329.815309 365.023873 
L 330.205909 362.269259 
L 332.185541 347.318722 
L 332.869091 344.12509 
L 333.428359 342.456371 
L 333.889977 341.705896 
L 334.262823 341.474802 
L 334.617914 341.51274 
L 335.088409 341.820171 
L 336.51765 342.883948 
L 337.139059 342.994684 
L 338.026786 342.898161 
L 339.899891 342.678896 
L 342.483177 342.732127 
L 351.609014 342.724262 
L 435.845455 342.724329 
L 435.845455 342.724329 
" style="fill:none;stroke:#ff0000;stroke-linecap:square;stroke-width:1.5;"/>
   </g>
   <g id="patch_3">
    <path d="M 63 384.48 
L 63 51.84 
" style="fill:none;stroke:#000000;stroke-linecap:square;stroke-linejoin:miter;stroke-width:0.8;"/>
   </g>
   <g id="patch_4">
    <path d="M 453.6 384.48 
L 453.6 51.84 
" style="fill:none;stroke:#000000;stroke-linecap:square;stroke-linejoin:miter;stroke-width:0.8;"/>
   </g>
   <g id="patch_5">
    <path d="M 63 384.48 
L 453.6 384.48 
" style="fill:none;stroke:#000000;stroke-linecap:square;stroke-linejoin:miter;stroke-width:0.8;"/>
   </g>
   <g id="patch_6">
    <path d="M 63 51.84 
L 453.6 51.84 
" style="fill:none;stroke:#000000;stroke-linecap:square;stroke-linejoin:miter;stroke-width:0.8;"/>
   </g>
   <g id="legend_1">
    <g id="patch_7">
     <path d="M 383.460938 89.19625 
L 446.6 89.19625 
Q 448.6 89.19625 448.6 87.19625 
L 448.6 58.84 
Q 448.6 56.84 446.6 56.84 
L 383.460938 56.84 
Q 381.460938 56.84 381.460938 58.84 
L 381.460938 87.19625 
Q 381.460938 89.19625 383.460938 89.19625 
z
" style="fill:#ffffff;opacity:0.8;stroke:#cccccc;stroke-linejoin:miter;"/>
    </g>
    <g id="line2d_15">
     <path d="M 385.460938 64.938437 
L 405.460938 64.938437 
" style="fill:none;stroke:#1f77b4;stroke-linecap:square;stroke-width:1.5;"/>
    </g>
    <g id="line2d_16"/>
    <g id="text_15">
     <!-- target -->
     <defs>
      <path d="M 41.109375 46.296875 
Q 39.59375 47.171875 37.8125 47.578125 
Q 36.03125 48 33.890625 48 
Q 26.265625 48 22.1875 43.046875 
Q 18.109375 38.09375 18.109375 28.8125 
L 18.109375 0 
L 9.078125 0 
L 9.078125 54.6875 
L 18.109375 54.6875 
L 18.109375 46.1875 
Q 20.953125 51.171875 25.484375 53.578125 
Q 30.03125 56 36.53125 56 
Q 37.453125 56 38.578125 55.875 
Q 39.703125 55.765625 41.0625 55.515625 
z
" id="DejaVuSans-72"/>
     </defs>
     <g transform="translate(413.460938 68.438437)scale(0.1 -0.1)">
      <use xlink:href="#DejaVuSans-74"/>
      <use x="39.208984" xlink:href="#DejaVuSans-61"/>
      <use x="100.488281" xlink:href="#DejaVuSans-72"/>
      <use x="141.585938" xlink:href="#DejaVuSans-67"/>
      <use x="205.0625" xlink:href="#DejaVuSans-65"/>
      <use x="266.585938" xlink:href="#DejaVuSans-74"/>
     </g>
    </g>
    <g id="line2d_17">
     <path d="M 385.460938 79.616562 
L 405.460938 79.616562 
" style="fill:none;stroke:#ff0000;stroke-linecap:square;stroke-width:1.5;"/>
    </g>
    <g id="line2d_18"/>
    <g id="text_16">
     <!-- model -->
     <defs>
      <path d="M 45.40625 46.390625 
L 45.40625 75.984375 
L 54.390625 75.984375 
L 54.390625 0 
L 45.40625 0 
L 45.40625 8.203125 
Q 42.578125 3.328125 38.25 0.953125 
Q 33.9375 -1.421875 27.875 -1.421875 
Q 17.96875 -1.421875 11.734375 6.484375 
Q 5.515625 14.40625 5.515625 27.296875 
Q 5.515625 40.1875 11.734375 48.09375 
Q 17.96875 56 27.875 56 
Q 33.9375 56 38.25 53.625 
Q 42.578125 51.265625 45.40625 46.390625 
z
M 14.796875 27.296875 
Q 14.796875 17.390625 18.875 11.75 
Q 22.953125 6.109375 30.078125 6.109375 
Q 37.203125 6.109375 41.296875 11.75 
Q 45.40625 17.390625 45.40625 27.296875 
Q 45.40625 37.203125 41.296875 42.84375 
Q 37.203125 48.484375 30.078125 48.484375 
Q 22.953125 48.484375 18.875 42.84375 
Q 14.796875 37.203125 14.796875 27.296875 
z
" id="DejaVuSans-64"/>
     </defs>
     <g transform="translate(413.460938 83.116562)scale(0.1 -0.1)">
      <use xlink:href="#DejaVuSans-6d"/>
      <use x="97.412109" xlink:href="#DejaVuSans-6f"/>
      <use x="158.59375" xlink:href="#DejaVuSans-64"/>
      <use x="222.070312" xlink:href="#DejaVuSans-65"/>
      <use x="283.59375" xlink:href="#DejaVuSans-6c"/>
     </g>
    </g>
   </g>
  </g>
 </g>
 <defs>
  <clipPath id="p054d028f35">
   <rect height="332.64" width="390.6" x="63" y="51.84"/>
  </clipPath>
 </defs>
</svg>
