<?xml version="1.0" encoding="utf-8" standalone="no"?>
<!DOCTYPE svg PUBLIC "-//W3C//DTD SVG 1.1//EN"
  "http://www.w3.org/Graphics/SVG/1.1/DTD/svg11.dtd">
<!-- Created with matplotlib (https://matplotlib.org/) -->
<svg height="432pt" version="1.1" viewBox="0 0 504 432" width="504pt" xmlns="http://www.w3.org/2000/svg" xmlns:xlink="http://www.w3.org/1999/xlink">
 <defs>
  <style type="text/css">
*{stroke-linecap:butt;stroke-linejoin:round;}
  </style>
 </defs>
 <g id="figure_1">
  <g id="patch_1">
   <path d="M 0 432 
L 504 432 
L 504 0 
L 0 0 
z
" style="fill:#ffffff;"/>
  </g>
  <g id="axes_1">
   <g id="patch_2">
    <path d="M 63 384.48 
L 453.6 384.48 
L 453.6 51.84 
L 63 51.84 
z
" style="fill:#ffffff;"/>
   </g>
   <g id="matplotlib.axis_1">
    <g id="xtick_1">
     <g id="line2d_1">
      <defs>
       <path d="M 0 0 
L 0 3.5 
" id="m2d7f89b1c6" style="stroke:#000000;stroke-width:0.8;"/>
      </defs>
      <g>
       <use style="stroke:#000000;stroke-width:0.8;" x="80.754545" xlink:href="#m2d7f89b1c6" y="384.48"/>
      </g>
     </g>
     <g id="text_1">
      <!-- 0 -->
      <defs>
       <path d="M 31.78125 66.40625 
Q 24.171875 66.40625 20.328125 58.90625 
Q 16.5 51.421875 16.5 36.375 
Q 16.5 21.390625 20.328125 13.890625 
Q 24.171875 6.390625 31.78125 6.390625 
Q 39.453125 6.390625 43.28125 13.890625 
Q 47.125 21.390625 47.125 36.375 
Q 47.125 51.421875 43.28125 58.90625 
Q 39.453125 66.40625 31.78125 66.40625 
z
M 31.78125 74.21875 
Q 44.046875 74.21875 50.515625 64.515625 
Q 56.984375 54.828125 56.984375 36.375 
Q 56.984375 17.96875 50.515625 8.265625 
Q 44.046875 -1.421875 31.78125 -1.421875 
Q 19.53125 -1.421875 13.0625 8.265625 
Q 6.59375 17.96875 6.59375 36.375 
Q 6.59375 54.828125 13.0625 64.515625 
Q 19.53125 74.21875 31.78125 74.21875 
z
" id="DejaVuSans-48"/>
      </defs>
      <g transform="translate(77.573295 399.078438)scale(0.1 -0.1)">
       <use xlink:href="#DejaVuSans-48"/>
      </g>
     </g>
    </g>
    <g id="xtick_2">
     <g id="line2d_2">
      <g>
       <use style="stroke:#000000;stroke-width:0.8;" x="151.763044" xlink:href="#m2d7f89b1c6" y="384.48"/>
      </g>
     </g>
     <g id="text_2">
      <!-- 880 -->
      <defs>
       <path d="M 31.78125 34.625 
Q 24.75 34.625 20.71875 30.859375 
Q 16.703125 27.09375 16.703125 20.515625 
Q 16.703125 13.921875 20.71875 10.15625 
Q 24.75 6.390625 31.78125 6.390625 
Q 38.8125 6.390625 42.859375 10.171875 
Q 46.921875 13.96875 46.921875 20.515625 
Q 46.921875 27.09375 42.890625 30.859375 
Q 38.875 34.625 31.78125 34.625 
z
M 21.921875 38.8125 
Q 15.578125 40.375 12.03125 44.71875 
Q 8.5 49.078125 8.5 55.328125 
Q 8.5 64.0625 14.71875 69.140625 
Q 20.953125 74.21875 31.78125 74.21875 
Q 42.671875 74.21875 48.875 69.140625 
Q 55.078125 64.0625 55.078125 55.328125 
Q 55.078125 49.078125 51.53125 44.71875 
Q 48 40.375 41.703125 38.8125 
Q 48.828125 37.15625 52.796875 32.3125 
Q 56.78125 27.484375 56.78125 20.515625 
Q 56.78125 9.90625 50.3125 4.234375 
Q 43.84375 -1.421875 31.78125 -1.421875 
Q 19.734375 -1.421875 13.25 4.234375 
Q 6.78125 9.90625 6.78125 20.515625 
Q 6.78125 27.484375 10.78125 32.3125 
Q 14.796875 37.15625 21.921875 38.8125 
z
M 18.3125 54.390625 
Q 18.3125 48.734375 21.84375 45.5625 
Q 25.390625 42.390625 31.78125 42.390625 
Q 38.140625 42.390625 41.71875 45.5625 
Q 45.3125 48.734375 45.3125 54.390625 
Q 45.3125 60.0625 41.71875 63.234375 
Q 38.140625 66.40625 31.78125 66.40625 
Q 25.390625 66.40625 21.84375 63.234375 
Q 18.3125 60.0625 18.3125 54.390625 
z
" id="DejaVuSans-56"/>
      </defs>
      <g transform="translate(142.219294 399.078438)scale(0.1 -0.1)">
       <use xlink:href="#DejaVuSans-56"/>
       <use x="63.623047" xlink:href="#DejaVuSans-56"/>
       <use x="127.246094" xlink:href="#DejaVuSans-48"/>
      </g>
     </g>
    </g>
    <g id="xtick_3">
     <g id="line2d_3">
      <g>
       <use style="stroke:#000000;stroke-width:0.8;" x="222.771543" xlink:href="#m2d7f89b1c6" y="384.48"/>
      </g>
     </g>
     <g id="text_3">
      <!-- 1760 -->
      <defs>
       <path d="M 12.40625 8.296875 
L 28.515625 8.296875 
L 28.515625 63.921875 
L 10.984375 60.40625 
L 10.984375 69.390625 
L 28.421875 72.90625 
L 38.28125 72.90625 
L 38.28125 8.296875 
L 54.390625 8.296875 
L 54.390625 0 
L 12.40625 0 
z
" id="DejaVuSans-49"/>
       <path d="M 8.203125 72.90625 
L 55.078125 72.90625 
L 55.078125 68.703125 
L 28.609375 0 
L 18.3125 0 
L 43.21875 64.59375 
L 8.203125 64.59375 
z
" id="DejaVuSans-55"/>
       <path d="M 33.015625 40.375 
Q 26.375 40.375 22.484375 35.828125 
Q 18.609375 31.296875 18.609375 23.390625 
Q 18.609375 15.53125 22.484375 10.953125 
Q 26.375 6.390625 33.015625 6.390625 
Q 39.65625 6.390625 43.53125 10.953125 
Q 47.40625 15.53125 47.40625 23.390625 
Q 47.40625 31.296875 43.53125 35.828125 
Q 39.65625 40.375 33.015625 40.375 
z
M 52.59375 71.296875 
L 52.59375 62.3125 
Q 48.875 64.0625 45.09375 64.984375 
Q 41.3125 65.921875 37.59375 65.921875 
Q 27.828125 65.921875 22.671875 59.328125 
Q 17.53125 52.734375 16.796875 39.40625 
Q 19.671875 43.65625 24.015625 45.921875 
Q 28.375 48.1875 33.59375 48.1875 
Q 44.578125 48.1875 50.953125 41.515625 
Q 57.328125 34.859375 57.328125 23.390625 
Q 57.328125 12.15625 50.6875 5.359375 
Q 44.046875 -1.421875 33.015625 -1.421875 
Q 20.359375 -1.421875 13.671875 8.265625 
Q 6.984375 17.96875 6.984375 36.375 
Q 6.984375 53.65625 15.1875 63.9375 
Q 23.390625 74.21875 37.203125 74.21875 
Q 40.921875 74.21875 44.703125 73.484375 
Q 48.484375 72.75 52.59375 71.296875 
z
" id="DejaVuSans-54"/>
      </defs>
      <g transform="translate(210.046543 399.078438)scale(0.1 -0.1)">
       <use xlink:href="#DejaVuSans-49"/>
       <use x="63.623047" xlink:href="#DejaVuSans-55"/>
       <use x="127.246094" xlink:href="#DejaVuSans-54"/>
       <use x="190.869141" xlink:href="#DejaVuSans-48"/>
      </g>
     </g>
    </g>
    <g id="xtick_4">
     <g id="line2d_4">
      <g>
       <use style="stroke:#000000;stroke-width:0.8;" x="293.780042" xlink:href="#m2d7f89b1c6" y="384.48"/>
      </g>
     </g>
     <g id="text_4">
      <!-- 2640 -->
      <defs>
       <path d="M 19.1875 8.296875 
L 53.609375 8.296875 
L 53.609375 0 
L 7.328125 0 
L 7.328125 8.296875 
Q 12.9375 14.109375 22.625 23.890625 
Q 32.328125 33.6875 34.8125 36.53125 
Q 39.546875 41.84375 41.421875 45.53125 
Q 43.3125 49.21875 43.3125 52.78125 
Q 43.3125 58.59375 39.234375 62.25 
Q 35.15625 65.921875 28.609375 65.921875 
Q 23.96875 65.921875 18.8125 64.3125 
Q 13.671875 62.703125 7.8125 59.421875 
L 7.8125 69.390625 
Q 13.765625 71.78125 18.9375 73 
Q 24.125 74.21875 28.421875 74.21875 
Q 39.75 74.21875 46.484375 68.546875 
Q 53.21875 62.890625 53.21875 53.421875 
Q 53.21875 48.921875 51.53125 44.890625 
Q 49.859375 40.875 45.40625 35.40625 
Q 44.1875 33.984375 37.640625 27.21875 
Q 31.109375 20.453125 19.1875 8.296875 
z
" id="DejaVuSans-50"/>
       <path d="M 37.796875 64.3125 
L 12.890625 25.390625 
L 37.796875 25.390625 
z
M 35.203125 72.90625 
L 47.609375 72.90625 
L 47.609375 25.390625 
L 58.015625 25.390625 
L 58.015625 17.1875 
L 47.609375 17.1875 
L 47.609375 0 
L 37.796875 0 
L 37.796875 17.1875 
L 4.890625 17.1875 
L 4.890625 26.703125 
z
" id="DejaVuSans-52"/>
      </defs>
      <g transform="translate(281.055042 399.078438)scale(0.1 -0.1)">
       <use xlink:href="#DejaVuSans-50"/>
       <use x="63.623047" xlink:href="#DejaVuSans-54"/>
       <use x="127.246094" xlink:href="#DejaVuSans-52"/>
       <use x="190.869141" xlink:href="#DejaVuSans-48"/>
      </g>
     </g>
    </g>
    <g id="xtick_5">
     <g id="line2d_5">
      <g>
       <use style="stroke:#000000;stroke-width:0.8;" x="364.788541" xlink:href="#m2d7f89b1c6" y="384.48"/>
      </g>
     </g>
     <g id="text_5">
      <!-- 3520 -->
      <defs>
       <path d="M 40.578125 39.3125 
Q 47.65625 37.796875 51.625 33 
Q 55.609375 28.21875 55.609375 21.1875 
Q 55.609375 10.40625 48.1875 4.484375 
Q 40.765625 -1.421875 27.09375 -1.421875 
Q 22.515625 -1.421875 17.65625 -0.515625 
Q 12.796875 0.390625 7.625 2.203125 
L 7.625 11.71875 
Q 11.71875 9.328125 16.59375 8.109375 
Q 21.484375 6.890625 26.8125 6.890625 
Q 36.078125 6.890625 40.9375 10.546875 
Q 45.796875 14.203125 45.796875 21.1875 
Q 45.796875 27.640625 41.28125 31.265625 
Q 36.765625 34.90625 28.71875 34.90625 
L 20.21875 34.90625 
L 20.21875 43.015625 
L 29.109375 43.015625 
Q 36.375 43.015625 40.234375 45.921875 
Q 44.09375 48.828125 44.09375 54.296875 
Q 44.09375 59.90625 40.109375 62.90625 
Q 36.140625 65.921875 28.71875 65.921875 
Q 24.65625 65.921875 20.015625 65.03125 
Q 15.375 64.15625 9.8125 62.3125 
L 9.8125 71.09375 
Q 15.4375 72.65625 20.34375 73.4375 
Q 25.25 74.21875 29.59375 74.21875 
Q 40.828125 74.21875 47.359375 69.109375 
Q 53.90625 64.015625 53.90625 55.328125 
Q 53.90625 49.265625 50.4375 45.09375 
Q 46.96875 40.921875 40.578125 39.3125 
z
" id="DejaVuSans-51"/>
       <path d="M 10.796875 72.90625 
L 49.515625 72.90625 
L 49.515625 64.59375 
L 19.828125 64.59375 
L 19.828125 46.734375 
Q 21.96875 47.46875 24.109375 47.828125 
Q 26.265625 48.1875 28.421875 48.1875 
Q 40.625 48.1875 47.75 41.5 
Q 54.890625 34.8125 54.890625 23.390625 
Q 54.890625 11.625 47.5625 5.09375 
Q 40.234375 -1.421875 26.90625 -1.421875 
Q 22.3125 -1.421875 17.546875 -0.640625 
Q 12.796875 0.140625 7.71875 1.703125 
L 7.71875 11.625 
Q 12.109375 9.234375 16.796875 8.0625 
Q 21.484375 6.890625 26.703125 6.890625 
Q 35.15625 6.890625 40.078125 11.328125 
Q 45.015625 15.765625 45.015625 23.390625 
Q 45.015625 31 40.078125 35.4375 
Q 35.15625 39.890625 26.703125 39.890625 
Q 22.75 39.890625 18.8125 39.015625 
Q 14.890625 38.140625 10.796875 36.28125 
z
" id="DejaVuSans-53"/>
      </defs>
      <g transform="translate(352.063541 399.078438)scale(0.1 -0.1)">
       <use xlink:href="#DejaVuSans-51"/>
       <use x="63.623047" xlink:href="#DejaVuSans-53"/>
       <use x="127.246094" xlink:href="#DejaVuSans-50"/>
       <use x="190.869141" xlink:href="#DejaVuSans-48"/>
      </g>
     </g>
    </g>
    <g id="text_6">
     <!-- time [ms] -->
     <defs>
      <path d="M 18.3125 70.21875 
L 18.3125 54.6875 
L 36.8125 54.6875 
L 36.8125 47.703125 
L 18.3125 47.703125 
L 18.3125 18.015625 
Q 18.3125 11.328125 20.140625 9.421875 
Q 21.96875 7.515625 27.59375 7.515625 
L 36.8125 7.515625 
L 36.8125 0 
L 27.59375 0 
Q 17.1875 0 13.234375 3.875 
Q 9.28125 7.765625 9.28125 18.015625 
L 9.28125 47.703125 
L 2.6875 47.703125 
L 2.6875 54.6875 
L 9.28125 54.6875 
L 9.28125 70.21875 
z
" id="DejaVuSans-116"/>
      <path d="M 9.421875 54.6875 
L 18.40625 54.6875 
L 18.40625 0 
L 9.421875 0 
z
M 9.421875 75.984375 
L 18.40625 75.984375 
L 18.40625 64.59375 
L 9.421875 64.59375 
z
" id="DejaVuSans-105"/>
      <path d="M 52 44.1875 
Q 55.375 50.25 60.0625 53.125 
Q 64.75 56 71.09375 56 
Q 79.640625 56 84.28125 50.015625 
Q 88.921875 44.046875 88.921875 33.015625 
L 88.921875 0 
L 79.890625 0 
L 79.890625 32.71875 
Q 79.890625 40.578125 77.09375 44.375 
Q 74.3125 48.1875 68.609375 48.1875 
Q 61.625 48.1875 57.5625 43.546875 
Q 53.515625 38.921875 53.515625 30.90625 
L 53.515625 0 
L 44.484375 0 
L 44.484375 32.71875 
Q 44.484375 40.625 41.703125 44.40625 
Q 38.921875 48.1875 33.109375 48.1875 
Q 26.21875 48.1875 22.15625 43.53125 
Q 18.109375 38.875 18.109375 30.90625 
L 18.109375 0 
L 9.078125 0 
L 9.078125 54.6875 
L 18.109375 54.6875 
L 18.109375 46.1875 
Q 21.1875 51.21875 25.484375 53.609375 
Q 29.78125 56 35.6875 56 
Q 41.65625 56 45.828125 52.96875 
Q 50 49.953125 52 44.1875 
z
" id="DejaVuSans-109"/>
      <path d="M 56.203125 29.59375 
L 56.203125 25.203125 
L 14.890625 25.203125 
Q 15.484375 15.921875 20.484375 11.0625 
Q 25.484375 6.203125 34.421875 6.203125 
Q 39.59375 6.203125 44.453125 7.46875 
Q 49.3125 8.734375 54.109375 11.28125 
L 54.109375 2.78125 
Q 49.265625 0.734375 44.1875 -0.34375 
Q 39.109375 -1.421875 33.890625 -1.421875 
Q 20.796875 -1.421875 13.15625 6.1875 
Q 5.515625 13.8125 5.515625 26.8125 
Q 5.515625 40.234375 12.765625 48.109375 
Q 20.015625 56 32.328125 56 
Q 43.359375 56 49.78125 48.890625 
Q 56.203125 41.796875 56.203125 29.59375 
z
M 47.21875 32.234375 
Q 47.125 39.59375 43.09375 43.984375 
Q 39.0625 48.390625 32.421875 48.390625 
Q 24.90625 48.390625 20.390625 44.140625 
Q 15.875 39.890625 15.1875 32.171875 
z
" id="DejaVuSans-101"/>
      <path id="DejaVuSans-32"/>
      <path d="M 8.59375 75.984375 
L 29.296875 75.984375 
L 29.296875 69 
L 17.578125 69 
L 17.578125 -6.203125 
L 29.296875 -6.203125 
L 29.296875 -13.1875 
L 8.59375 -13.1875 
z
" id="DejaVuSans-91"/>
      <path d="M 44.28125 53.078125 
L 44.28125 44.578125 
Q 40.484375 46.53125 36.375 47.5 
Q 32.28125 48.484375 27.875 48.484375 
Q 21.1875 48.484375 17.84375 46.4375 
Q 14.5 44.390625 14.5 40.28125 
Q 14.5 37.15625 16.890625 35.375 
Q 19.28125 33.59375 26.515625 31.984375 
L 29.59375 31.296875 
Q 39.15625 29.25 43.1875 25.515625 
Q 47.21875 21.78125 47.21875 15.09375 
Q 47.21875 7.46875 41.1875 3.015625 
Q 35.15625 -1.421875 24.609375 -1.421875 
Q 20.21875 -1.421875 15.453125 -0.5625 
Q 10.6875 0.296875 5.421875 2 
L 5.421875 11.28125 
Q 10.40625 8.6875 15.234375 7.390625 
Q 20.0625 6.109375 24.8125 6.109375 
Q 31.15625 6.109375 34.5625 8.28125 
Q 37.984375 10.453125 37.984375 14.40625 
Q 37.984375 18.0625 35.515625 20.015625 
Q 33.0625 21.96875 24.703125 23.78125 
L 21.578125 24.515625 
Q 13.234375 26.265625 9.515625 29.90625 
Q 5.8125 33.546875 5.8125 39.890625 
Q 5.8125 47.609375 11.28125 51.796875 
Q 16.75 56 26.8125 56 
Q 31.78125 56 36.171875 55.265625 
Q 40.578125 54.546875 44.28125 53.078125 
z
" id="DejaVuSans-115"/>
      <path d="M 30.421875 75.984375 
L 30.421875 -13.1875 
L 9.71875 -13.1875 
L 9.71875 -6.203125 
L 21.390625 -6.203125 
L 21.390625 69 
L 9.71875 69 
L 9.71875 75.984375 
z
" id="DejaVuSans-93"/>
     </defs>
     <g transform="translate(234.038281 412.756563)scale(0.1 -0.1)">
      <use xlink:href="#DejaVuSans-116"/>
      <use x="39.208984" xlink:href="#DejaVuSans-105"/>
      <use x="66.992188" xlink:href="#DejaVuSans-109"/>
      <use x="164.404297" xlink:href="#DejaVuSans-101"/>
      <use x="225.927734" xlink:href="#DejaVuSans-32"/>
      <use x="257.714844" xlink:href="#DejaVuSans-91"/>
      <use x="296.728516" xlink:href="#DejaVuSans-109"/>
      <use x="394.140625" xlink:href="#DejaVuSans-115"/>
      <use x="446.240234" xlink:href="#DejaVuSans-93"/>
     </g>
    </g>
   </g>
   <g id="matplotlib.axis_2">
    <g id="ytick_1">
     <g id="line2d_6">
      <defs>
       <path d="M 0 0 
L -3.5 0 
" id="m4f2f26968b" style="stroke:#000000;stroke-width:0.8;"/>
      </defs>
      <g>
       <use style="stroke:#000000;stroke-width:0.8;" x="63" xlink:href="#m4f2f26968b" y="364.450578"/>
      </g>
     </g>
     <g id="text_7">
      <!-- −150 -->
      <defs>
       <path d="M 10.59375 35.5 
L 73.1875 35.5 
L 73.1875 27.203125 
L 10.59375 27.203125 
z
" id="DejaVuSans-8722"/>
      </defs>
      <g transform="translate(28.532812 368.249797)scale(0.1 -0.1)">
       <use xlink:href="#DejaVuSans-8722"/>
       <use x="83.789062" xlink:href="#DejaVuSans-49"/>
       <use x="147.412109" xlink:href="#DejaVuSans-53"/>
       <use x="211.035156" xlink:href="#DejaVuSans-48"/>
      </g>
     </g>
    </g>
    <g id="ytick_2">
     <g id="line2d_7">
      <g>
       <use style="stroke:#000000;stroke-width:0.8;" x="63" xlink:href="#m4f2f26968b" y="292.040226"/>
      </g>
     </g>
     <g id="text_8">
      <!-- −100 -->
      <g transform="translate(28.532812 295.839445)scale(0.1 -0.1)">
       <use xlink:href="#DejaVuSans-8722"/>
       <use x="83.789062" xlink:href="#DejaVuSans-49"/>
       <use x="147.412109" xlink:href="#DejaVuSans-48"/>
       <use x="211.035156" xlink:href="#DejaVuSans-48"/>
      </g>
     </g>
    </g>
    <g id="ytick_3">
     <g id="line2d_8">
      <g>
       <use style="stroke:#000000;stroke-width:0.8;" x="63" xlink:href="#m4f2f26968b" y="219.629874"/>
      </g>
     </g>
     <g id="text_9">
      <!-- −50 -->
      <g transform="translate(34.895313 223.429092)scale(0.1 -0.1)">
       <use xlink:href="#DejaVuSans-8722"/>
       <use x="83.789062" xlink:href="#DejaVuSans-53"/>
       <use x="147.412109" xlink:href="#DejaVuSans-48"/>
      </g>
     </g>
    </g>
    <g id="ytick_4">
     <g id="line2d_9">
      <g>
       <use style="stroke:#000000;stroke-width:0.8;" x="63" xlink:href="#m4f2f26968b" y="147.219521"/>
      </g>
     </g>
     <g id="text_10">
      <!-- 0 -->
      <g transform="translate(49.6375 151.01874)scale(0.1 -0.1)">
       <use xlink:href="#DejaVuSans-48"/>
      </g>
     </g>
    </g>
    <g id="ytick_5">
     <g id="line2d_10">
      <g>
       <use style="stroke:#000000;stroke-width:0.8;" x="63" xlink:href="#m4f2f26968b" y="74.809169"/>
      </g>
     </g>
     <g id="text_11">
      <!-- 50 -->
      <g transform="translate(43.275 78.608388)scale(0.1 -0.1)">
       <use xlink:href="#DejaVuSans-53"/>
       <use x="63.623047" xlink:href="#DejaVuSans-48"/>
      </g>
     </g>
    </g>
    <g id="text_12">
     <!-- voltage [mV] -->
     <defs>
      <path d="M 2.984375 54.6875 
L 12.5 54.6875 
L 29.59375 8.796875 
L 46.6875 54.6875 
L 56.203125 54.6875 
L 35.6875 0 
L 23.484375 0 
z
" id="DejaVuSans-118"/>
      <path d="M 30.609375 48.390625 
Q 23.390625 48.390625 19.1875 42.75 
Q 14.984375 37.109375 14.984375 27.296875 
Q 14.984375 17.484375 19.15625 11.84375 
Q 23.34375 6.203125 30.609375 6.203125 
Q 37.796875 6.203125 41.984375 11.859375 
Q 46.1875 17.53125 46.1875 27.296875 
Q 46.1875 37.015625 41.984375 42.703125 
Q 37.796875 48.390625 30.609375 48.390625 
z
M 30.609375 56 
Q 42.328125 56 49.015625 48.375 
Q 55.71875 40.765625 55.71875 27.296875 
Q 55.71875 13.875 49.015625 6.21875 
Q 42.328125 -1.421875 30.609375 -1.421875 
Q 18.84375 -1.421875 12.171875 6.21875 
Q 5.515625 13.875 5.515625 27.296875 
Q 5.515625 40.765625 12.171875 48.375 
Q 18.84375 56 30.609375 56 
z
" id="DejaVuSans-111"/>
      <path d="M 9.421875 75.984375 
L 18.40625 75.984375 
L 18.40625 0 
L 9.421875 0 
z
" id="DejaVuSans-108"/>
      <path d="M 34.28125 27.484375 
Q 23.390625 27.484375 19.1875 25 
Q 14.984375 22.515625 14.984375 16.5 
Q 14.984375 11.71875 18.140625 8.90625 
Q 21.296875 6.109375 26.703125 6.109375 
Q 34.1875 6.109375 38.703125 11.40625 
Q 43.21875 16.703125 43.21875 25.484375 
L 43.21875 27.484375 
z
M 52.203125 31.203125 
L 52.203125 0 
L 43.21875 0 
L 43.21875 8.296875 
Q 40.140625 3.328125 35.546875 0.953125 
Q 30.953125 -1.421875 24.3125 -1.421875 
Q 15.921875 -1.421875 10.953125 3.296875 
Q 6 8.015625 6 15.921875 
Q 6 25.140625 12.171875 29.828125 
Q 18.359375 34.515625 30.609375 34.515625 
L 43.21875 34.515625 
L 43.21875 35.40625 
Q 43.21875 41.609375 39.140625 45 
Q 35.0625 48.390625 27.6875 48.390625 
Q 23 48.390625 18.546875 47.265625 
Q 14.109375 46.140625 10.015625 43.890625 
L 10.015625 52.203125 
Q 14.9375 54.109375 19.578125 55.046875 
Q 24.21875 56 28.609375 56 
Q 40.484375 56 46.34375 49.84375 
Q 52.203125 43.703125 52.203125 31.203125 
z
" id="DejaVuSans-97"/>
      <path d="M 45.40625 27.984375 
Q 45.40625 37.75 41.375 43.109375 
Q 37.359375 48.484375 30.078125 48.484375 
Q 22.859375 48.484375 18.828125 43.109375 
Q 14.796875 37.75 14.796875 27.984375 
Q 14.796875 18.265625 18.828125 12.890625 
Q 22.859375 7.515625 30.078125 7.515625 
Q 37.359375 7.515625 41.375 12.890625 
Q 45.40625 18.265625 45.40625 27.984375 
z
M 54.390625 6.78125 
Q 54.390625 -7.171875 48.1875 -13.984375 
Q 42 -20.796875 29.203125 -20.796875 
Q 24.46875 -20.796875 20.265625 -20.09375 
Q 16.0625 -19.390625 12.109375 -17.921875 
L 12.109375 -9.1875 
Q 16.0625 -11.328125 19.921875 -12.34375 
Q 23.78125 -13.375 27.78125 -13.375 
Q 36.625 -13.375 41.015625 -8.765625 
Q 45.40625 -4.15625 45.40625 5.171875 
L 45.40625 9.625 
Q 42.625 4.78125 38.28125 2.390625 
Q 33.9375 0 27.875 0 
Q 17.828125 0 11.671875 7.65625 
Q 5.515625 15.328125 5.515625 27.984375 
Q 5.515625 40.671875 11.671875 48.328125 
Q 17.828125 56 27.875 56 
Q 33.9375 56 38.28125 53.609375 
Q 42.625 51.21875 45.40625 46.390625 
L 45.40625 54.6875 
L 54.390625 54.6875 
z
" id="DejaVuSans-103"/>
      <path d="M 28.609375 0 
L 0.78125 72.90625 
L 11.078125 72.90625 
L 34.1875 11.53125 
L 57.328125 72.90625 
L 67.578125 72.90625 
L 39.796875 0 
z
" id="DejaVuSans-86"/>
     </defs>
     <g transform="translate(22.453125 250.624062)rotate(-90)scale(0.1 -0.1)">
      <use xlink:href="#DejaVuSans-118"/>
      <use x="59.179688" xlink:href="#DejaVuSans-111"/>
      <use x="120.361328" xlink:href="#DejaVuSans-108"/>
      <use x="148.144531" xlink:href="#DejaVuSans-116"/>
      <use x="187.353516" xlink:href="#DejaVuSans-97"/>
      <use x="248.632812" xlink:href="#DejaVuSans-103"/>
      <use x="312.109375" xlink:href="#DejaVuSans-101"/>
      <use x="373.632812" xlink:href="#DejaVuSans-32"/>
      <use x="405.419922" xlink:href="#DejaVuSans-91"/>
      <use x="444.433594" xlink:href="#DejaVuSans-109"/>
      <use x="541.845703" xlink:href="#DejaVuSans-86"/>
      <use x="610.253906" xlink:href="#DejaVuSans-93"/>
     </g>
    </g>
   </g>
   <g id="line2d_11">
    <path clip-path="url(#pa70ef9ae32)" d="M 80.754545 231.933976 
L 83.385088 231.863263 
L 83.417364 231.79255 
L 83.465779 231.933976 
L 83.498056 231.863263 
L 83.514194 231.933976 
L 83.594885 231.863263 
L 83.723992 231.79255 
L 84.547045 231.863263 
L 84.676151 231.933976 
L 84.96664 231.863263 
L 85.095747 231.79255 
L 85.176438 231.863263 
L 85.208715 231.79255 
L 85.337821 231.863263 
L 85.35396 231.933976 
L 85.402374 231.79255 
L 85.434651 231.79255 
L 86.322257 231.863263 
L 86.451364 231.933976 
L 87.419661 232.00469 
L 87.532629 232.075403 
L 87.581044 232.00469 
L 87.645598 232.075403 
L 88.694587 232.146116 
L 88.807555 232.216829 
L 88.85597 232.146116 
L 89.049629 224.084807 
L 89.501501 216.518491 
L 90.356831 206.689352 
L 91.196022 200.254447 
L 91.470373 198.55733 
L 91.777001 196.789499 
L 92.551639 193.890256 
L 92.583916 193.819543 
L 92.793714 193.395264 
L 92.82599 193.32455 
L 93.11648 192.546705 
L 93.310139 192.475991 
L 93.503799 192.122425 
L 93.552214 192.051712 
L 93.745873 191.698146 
L 93.858841 191.627433 
L 94.020224 191.415293 
L 94.213884 191.34458 
L 94.391405 191.061727 
L 95.843851 190.991014 
L 95.989096 190.708161 
L 96.005234 190.778874 
L 96.118202 190.708161 
L 96.247309 190.637447 
L 96.553936 190.566734 
L 96.683043 190.496021 
L 96.892841 190.9203 
L 96.957394 190.991014 
L 97.167192 191.415293 
L 97.393128 191.34458 
L 97.425404 191.273867 
L 97.506096 191.34458 
L 97.845 191.273867 
L 97.990245 191.13244 
L 98.006383 191.203153 
L 98.03866 191.061727 
L 98.103213 191.13244 
L 98.264596 191.203153 
L 98.296872 191.273867 
L 98.361426 191.13244 
L 98.50667 191.203153 
L 98.538947 191.273867 
L 98.571223 191.13244 
L 98.619638 191.203153 
L 99.119925 191.13244 
L 99.26517 190.991014 
L 99.959117 190.9203 
L 100.055947 190.849587 
L 100.072085 190.9203 
L 100.1205 190.991014 
L 100.362574 192.193139 
L 100.604649 192.758844 
L 100.653063 192.829558 
L 100.733755 192.900271 
L 100.766031 192.829558 
L 100.943553 192.758844 
L 101.056521 192.546705 
L 101.088797 192.617418 
L 101.217904 192.546705 
L 101.395425 192.263852 
L 101.427702 192.334565 
L 101.508393 192.263852 
L 101.556808 192.193139 
L 101.702053 192.051712 
L 101.831159 191.980999 
L 101.960265 191.910286 
L 102.040957 191.980999 
L 102.073233 191.910286 
L 102.153925 191.839572 
L 102.331446 191.556719 
L 102.347584 191.627433 
L 102.379861 191.486006 
L 102.428276 191.556719 
L 102.589659 191.34458 
L 102.718765 191.415293 
L 102.993116 191.34458 
L 103.057669 191.13244 
L 103.122223 191.273867 
L 103.235191 191.34458 
L 103.251329 191.415293 
L 103.33202 191.273867 
L 103.348159 191.34458 
L 103.461127 191.203153 
L 103.477265 191.273867 
L 103.687063 191.203153 
L 103.816169 191.13244 
L 104.09052 191.061727 
L 104.18735 190.991014 
L 104.203488 191.061727 
L 104.38101 190.991014 
L 104.526254 190.708161 
L 104.542393 190.778874 
L 104.639222 190.708161 
L 104.687637 190.637447 
L 104.75219 190.708161 
L 104.897435 190.637447 
L 105.026541 190.566734 
L 105.236339 190.637447 
L 105.317031 190.708161 
L 105.349307 190.637447 
L 106.107807 190.566734 
L 106.123945 190.496021 
L 106.17236 190.637447 
L 106.220775 190.566734 
L 106.882445 190.637447 
L 107.011552 190.708161 
L 107.705498 190.637447 
L 107.737775 190.566734 
L 107.78619 190.708161 
L 107.802328 190.708161 
L 108.383307 190.637447 
L 108.528551 190.496021 
L 108.576966 190.425308 
L 108.706073 190.354594 
L 109.254775 190.283881 
L 109.335466 190.213168 
L 109.367743 190.283881 
L 109.690509 190.213168 
L 109.819615 190.071742 
L 109.916445 190.142455 
L 109.932583 190.071742 
L 110.416732 190.142455 
L 110.561977 190.283881 
L 110.691083 190.213168 
L 111.368891 190.283881 
L 111.530274 190.496021 
L 112.256498 190.566734 
L 112.321051 190.496021 
L 112.385604 190.637447 
L 112.821338 190.708161 
L 112.837476 190.778874 
L 112.869753 190.637447 
L 112.934306 190.708161 
L 113.17638 190.778874 
L 113.337763 190.991014 
L 113.434593 191.061727 
L 113.579838 191.203153 
L 113.789636 191.13244 
L 113.870327 191.061727 
L 113.902604 191.13244 
L 114.160817 191.203153 
L 114.257646 191.273867 
L 114.273785 191.203153 
L 114.386753 191.061727 
L 114.402891 191.13244 
L 114.483582 191.061727 
L 114.580412 190.9203 
L 114.612689 190.991014 
L 114.806348 190.9203 
L 114.935455 190.849587 
L 115.35505 190.778874 
L 115.484157 190.708161 
L 115.532572 190.778874 
L 115.580986 190.708161 
L 115.710093 190.637447 
L 115.839199 190.566734 
L 115.984444 190.425308 
L 116.21038 190.354594 
L 116.339486 190.283881 
L 116.484731 190.213168 
L 116.629976 190.071742 
L 116.710667 190.001028 
L 116.742944 189.930315 
L 116.823635 190.001028 
L 117.017295 190.071742 
L 117.033433 190.142455 
L 117.130263 190.071742 
L 117.259369 190.142455 
L 117.501444 190.708161 
L 117.549858 190.778874 
L 117.743518 191.13244 
L 117.921039 191.203153 
L 118.050146 191.273867 
L 118.647263 191.203153 
L 118.776369 191.13244 
L 119.05072 191.061727 
L 119.131411 190.991014 
L 119.163688 191.061727 
L 119.518731 190.991014 
L 119.663975 190.849587 
L 119.80922 190.778874 
L 119.938326 190.708161 
L 120.002879 190.778874 
L 120.051294 190.708161 
L 120.228815 190.425308 
L 120.438613 190.354594 
L 120.56772 190.283881 
L 120.664549 190.213168 
L 120.696826 190.142455 
L 120.745241 190.283881 
L 120.761379 190.283881 
L 120.858209 190.354594 
L 120.874347 190.283881 
L 121.116422 190.354594 
L 121.261666 190.496021 
L 121.471464 190.425308 
L 121.616709 190.283881 
L 121.778092 190.213168 
L 121.939475 190.001028 
L 122.116996 189.930315 
L 122.246102 189.859602 
L 122.407485 190.071742 
L 122.423624 190.001028 
L 122.520453 190.071742 
L 122.697975 190.001028 
L 122.810943 189.859602 
L 122.827081 189.930315 
L 123.133709 190.001028 
L 123.278953 190.142455 
L 123.553304 190.213168 
L 123.682411 190.354594 
L 123.843794 190.142455 
L 123.924485 190.213168 
L 123.940623 190.283881 
L 124.005177 190.142455 
L 124.021315 190.142455 
L 124.360219 190.071742 
L 124.489325 190.001028 
L 124.682985 190.071742 
L 124.844368 190.283881 
L 125.280102 190.354594 
L 125.360793 190.496021 
L 125.39307 190.425308 
L 125.522176 190.354594 
L 125.764251 190.283881 
L 125.780389 190.213168 
L 125.877219 190.283881 
L 126.038602 190.213168 
L 126.167708 190.142455 
L 126.329091 190.071742 
L 126.458197 190.001028 
L 126.587304 190.071742 
L 126.651857 190.142455 
L 126.700272 190.071742 
L 127.136006 190.001028 
L 127.152144 189.930315 
L 127.232836 190.001028 
L 127.248974 190.071742 
L 127.297389 189.930315 
L 127.329665 189.930315 
L 127.394219 190.001028 
L 127.442633 190.142455 
L 127.507187 190.071742 
L 127.636293 190.001028 
L 127.765399 190.071742 
L 127.975197 190.001028 
L 128.120442 189.859602 
L 128.217272 189.788889 
L 128.346378 189.718175 
L 128.410931 189.647462 
L 128.540038 189.576749 
L 129.08874 189.506036 
L 129.137154 189.435322 
L 129.201708 189.506036 
L 129.605165 189.576749 
L 129.734271 189.647462 
L 129.831101 189.576749 
L 130.024761 189.223183 
L 130.137729 189.152469 
L 130.282973 189.011043 
L 130.525048 188.94033 
L 130.541186 188.869617 
L 130.589601 189.011043 
L 130.621878 188.94033 
L 130.670292 189.011043 
L 130.734846 188.94033 
L 131.07375 188.869617 
L 131.218995 188.72819 
L 132.477782 188.798903 
L 132.606888 188.869617 
L 132.768271 188.798903 
L 132.816686 188.72819 
L 132.881239 188.798903 
L 133.268558 188.869617 
L 133.397664 188.94033 
L 133.413803 188.94033 
L 133.559047 189.293896 
L 133.591324 189.223183 
L 133.639739 189.435322 
L 133.655877 189.364609 
L 133.768845 189.435322 
L 133.962505 189.788889 
L 133.994781 189.859602 
L 134.156164 190.142455 
L 134.285271 190.071742 
L 134.430515 190.142455 
L 134.559622 190.283881 
L 134.688728 190.213168 
L 134.979217 190.142455 
L 135.108324 190.071742 
L 135.33426 190.001028 
L 135.414951 189.859602 
L 135.463366 189.930315 
L 135.818409 189.859602 
L 135.834547 189.788889 
L 135.866824 189.930315 
L 135.931377 189.859602 
L 136.044345 189.788889 
L 136.060483 189.718175 
L 136.157313 189.788889 
L 136.883536 189.718175 
L 137.061057 189.435322 
L 137.174025 189.364609 
L 137.206302 189.293896 
L 137.238579 189.435322 
L 137.270855 189.435322 
L 137.367685 189.364609 
L 137.432238 189.223183 
L 137.480653 189.364609 
L 137.690451 189.293896 
L 137.835696 189.152469 
L 137.98094 189.293896 
L 138.110047 189.223183 
L 138.206876 189.011043 
L 138.255291 189.081756 
L 138.707163 189.011043 
L 138.83627 188.94033 
L 138.900823 189.011043 
L 138.949238 188.94033 
L 139.126759 189.011043 
L 139.255866 189.081756 
L 139.30428 189.011043 
L 139.368834 189.081756 
L 139.772291 189.011043 
L 139.901397 188.869617 
L 139.998227 188.94033 
L 140.014365 188.869617 
L 140.756727 188.798903 
L 140.91811 188.586764 
L 141.047216 188.51605 
L 141.127908 188.445337 
L 141.160184 188.51605 
L 141.434535 189.223183 
L 141.902546 189.152469 
L 142.031652 189.081756 
L 142.14462 189.011043 
L 142.273727 188.94033 
L 142.386695 189.011043 
L 142.515801 188.94033 
L 142.80629 188.869617 
L 142.951535 188.72819 
L 144.339429 188.798903 
L 144.468535 189.081756 
L 144.484673 189.011043 
L 144.581503 188.94033 
L 144.597641 189.011043 
L 144.678333 189.081756 
L 144.823577 189.223183 
L 145.340003 189.152469 
L 145.485247 189.011043 
L 145.64663 188.94033 
L 145.775737 188.869617 
L 146.308301 188.798903 
L 146.388992 188.657477 
L 146.437407 188.72819 
L 147.244322 188.798903 
L 147.26046 188.869617 
L 147.35729 188.798903 
L 147.550949 188.72819 
L 147.680056 188.657477 
L 147.809162 188.72819 
L 147.938268 188.657477 
L 147.970545 188.586764 
L 148.051236 188.657477 
L 148.180343 188.72819 
L 148.325587 188.869617 
L 148.374002 188.798903 
L 148.503109 188.72819 
L 148.632215 188.798903 
L 148.858151 188.72819 
L 148.890428 188.586764 
L 148.987258 188.657477 
L 149.100226 188.72819 
L 149.116364 188.798903 
L 149.164779 188.657477 
L 149.213194 188.72819 
L 149.358438 188.586764 
L 149.697343 188.657477 
L 149.826449 188.72819 
L 149.971694 188.72819 
L 150.00397 188.586764 
L 150.084662 188.657477 
L 150.407427 188.72819 
L 150.601087 189.152469 
L 150.76247 188.94033 
L 151.085236 189.011043 
L 151.149789 189.081756 
L 151.198204 189.011043 
L 151.32731 188.94033 
L 151.343449 189.011043 
L 151.375725 188.869617 
L 151.440278 188.94033 
L 151.811459 188.869617 
L 151.843736 188.798903 
L 151.924427 188.869617 
L 152.424714 188.798903 
L 152.586097 188.586764 
L 152.908863 188.51605 
L 152.94114 188.445337 
L 153.005693 188.586764 
L 153.054108 188.51605 
L 153.070246 188.445337 
L 153.150938 188.586764 
L 153.328459 188.51605 
L 153.360736 188.445337 
L 153.40915 188.51605 
L 153.60281 196.577359 
L 154.054682 204.072962 
L 154.425863 208.669322 
L 154.861597 213.053543 
L 154.990703 214.114241 
L 155.265054 216.306352 
L 155.765342 219.7713 
L 155.991278 221.256278 
L 156.314044 223.165535 
L 156.927299 226.347631 
L 157.137097 227.266903 
L 158.460437 232.570396 
L 158.492713 232.641109 
L 158.815479 233.560381 
L 158.847756 233.631094 
L 159.154383 234.479653 
L 159.18666 234.550366 
L 159.428735 235.116072 
L 159.461011 235.186785 
L 159.735362 235.893918 
L 159.816054 235.964631 
L 160.025851 236.38891 
L 160.058128 236.459623 
L 160.284064 236.954616 
L 160.348617 237.025329 
L 160.542277 237.378895 
L 160.60683 237.449609 
L 160.80049 237.873888 
L 160.816628 237.803175 
L 160.865043 237.944601 
L 160.897319 237.944601 
L 160.978011 238.015315 
L 161.139394 238.227454 
L 161.300777 238.298168 
L 161.478298 238.58102 
L 161.526713 238.510307 
L 161.591266 238.58102 
L 161.752649 238.79316 
L 161.897894 238.863873 
L 162.043138 239.0053 
L 162.091553 239.076013 
L 162.236798 239.21744 
L 162.285213 239.288153 
L 162.317489 239.358866 
L 162.398181 239.288153 
L 162.462734 239.358866 
L 162.607979 239.500293 
L 162.995298 239.571006 
L 163.124404 239.641719 
L 163.318064 239.712432 
L 163.431032 239.853859 
L 163.44717 239.783145 
L 163.527861 239.853859 
L 163.656968 239.924572 
L 163.931319 239.995285 
L 164.060425 240.065998 
L 164.544574 239.995285 
L 164.625266 239.924572 
L 164.657542 239.995285 
L 165.997021 239.924572 
L 166.126127 239.783145 
L 166.206818 239.853859 
L 166.239095 239.783145 
L 166.432755 239.712432 
L 166.577999 239.571006 
L 166.900765 239.500293 
L 167.029872 239.429579 
L 167.304223 239.358866 
L 167.465606 239.146726 
L 167.659265 239.076013 
L 167.788371 239.0053 
L 168.014308 238.934587 
L 168.175691 238.722447 
L 168.191829 238.79316 
L 168.288659 238.722447 
L 168.450042 238.651734 
L 168.56301 238.58102 
L 168.579148 238.651734 
L 168.627563 238.510307 
L 168.659839 238.510307 
L 168.837361 238.439594 
L 168.853499 238.368881 
L 168.885775 238.510307 
L 168.950329 238.439594 
L 169.12785 238.368881 
L 169.273095 238.227454 
L 169.418339 238.156741 
L 169.499031 238.086028 
L 169.611999 232.570396 
L 169.708829 232.641109 
L 169.724967 232.711822 
L 169.821797 232.641109 
L 170.951477 232.711822 
L 170.967616 232.782535 
L 171.064445 232.711822 
L 171.790669 232.782535 
L 171.822945 232.853248 
L 171.903637 232.782535 
L 172.048881 232.641109 
L 172.177988 232.711822 
L 172.387786 232.641109 
L 172.516892 232.570396 
L 173.162424 232.499682 
L 173.307668 232.358256 
L 174.518041 232.428969 
L 174.647147 232.499682 
L 175.115157 232.570396 
L 175.147434 232.641109 
L 175.228126 232.570396 
L 175.389508 232.641109 
L 175.405647 232.711822 
L 175.502477 232.641109 
L 175.615445 232.711822 
L 175.712274 232.782535 
L 175.728413 232.711822 
L 175.954349 232.782535 
L 176.083455 232.853248 
L 176.099593 232.782535 
L 176.180285 232.923962 
L 176.196423 232.853248 
L 176.664434 232.782535 
L 176.79354 232.711822 
L 176.938785 232.641109 
L 177.019476 232.711822 
L 177.067891 232.570396 
L 177.213136 232.641109 
L 177.293827 232.711822 
L 177.326104 232.641109 
L 177.616593 232.641109 
L 177.810253 222.104837 
L 178.391231 209.730021 
L 179.149731 198.34519 
L 179.82754 190.849587 
L 180.39238 186.818933 
L 180.924944 184.980389 
L 180.95722 184.909675 
L 181.15088 184.556109 
L 181.312263 184.485396 
L 181.522061 184.061117 
L 181.538199 184.061117 
L 181.683444 183.70755 
L 181.764135 183.636837 
L 181.90938 183.495411 
L 182.328975 183.424697 
L 182.522635 183.071131 
L 182.66788 183.000418 
L 182.861539 182.646852 
L 182.926092 182.717565 
L 182.974507 182.788278 
L 183.03906 182.717565 
L 183.103614 182.646852 
L 183.264997 182.434712 
L 183.313411 182.363999 
L 183.539348 181.869006 
L 183.620039 181.798293 
L 183.829837 181.374014 
L 183.89439 181.3033 
L 184.184879 180.525455 
L 184.233294 180.596168 
L 184.297847 180.525455 
L 184.539922 179.959749 
L 184.814273 179.889036 
L 184.927241 179.464756 
L 184.991794 179.606183 
L 185.072486 179.53547 
L 185.250007 179.040477 
L 185.282283 179.11119 
L 185.346837 179.040477 
L 185.669602 178.121205 
L 185.718017 178.050492 
L 186.411964 174.51483 
L 186.428102 174.09055 
L 186.444241 169.70633 
L 186.492656 73.607044 
L 186.573347 123.884154 
L 186.73473 181.020447 
L 186.944528 182.858992 
L 188.05807 191.768859 
L 188.074208 191.768859 
L 188.25173 192.405278 
L 188.477666 192.900271 
L 188.526081 192.970984 
L 188.752017 193.465977 
L 188.800432 193.53669 
L 188.961815 193.74883 
L 189.026368 193.678116 
L 189.058644 193.74883 
L 189.187751 193.819543 
L 189.720315 193.74883 
L 189.865559 193.607403 
L 190.091495 193.53669 
L 190.23674 193.395264 
L 190.285155 193.32455 
L 190.414261 193.183124 
L 190.4304 193.253837 
L 190.494953 193.112411 
L 190.511091 193.112411 
L 190.591783 193.041697 
L 190.720889 192.970984 
L 190.89841 192.900271 
L 191.027516 192.829558 
L 191.140485 192.758844 
L 191.301868 192.546705 
L 191.46325 192.475991 
L 191.640772 192.193139 
L 192.205612 192.122425 
L 192.366995 191.910286 
L 192.463825 191.839572 
L 192.625208 191.556719 
L 192.754314 191.627433 
L 192.835006 191.556719 
L 192.899559 191.486006 
L 192.947974 191.556719 
L 193.238463 191.486006 
L 193.383708 191.34458 
L 193.512814 191.273867 
L 193.658059 191.13244 
L 193.787165 191.203153 
L 193.964686 190.9203 
L 194.013101 190.991014 
L 194.061516 190.849587 
L 194.448835 190.778874 
L 194.59408 190.637447 
L 194.723186 190.566734 
L 194.900707 190.283881 
L 194.981399 190.213168 
L 195.126643 190.071742 
L 195.271888 190.001028 
L 195.35258 189.859602 
L 195.400994 189.930315 
L 195.465548 189.859602 
L 195.610792 189.718175 
L 195.885143 189.647462 
L 196.01425 189.576749 
L 196.094941 189.506036 
L 196.256324 189.223183 
L 196.353154 189.293896 
L 196.369292 189.223183 
L 196.708196 189.152469 
L 196.837303 189.081756 
L 196.950271 189.152469 
L 196.982547 189.081756 
L 197.063239 189.152469 
L 197.14393 189.081756 
L 197.160069 189.011043 
L 197.224622 189.152469 
L 197.24076 189.152469 
L 197.402143 189.223183 
L 197.579664 189.647462 
L 197.595803 189.576749 
L 197.644218 189.647462 
L 197.821739 189.930315 
L 197.854015 189.859602 
L 197.934707 189.930315 
L 197.966983 190.001028 
L 198.112228 190.142455 
L 198.467271 190.071742 
L 198.483409 190.001028 
L 198.580239 190.071742 
L 198.644792 190.001028 
L 198.822313 189.718175 
L 199.032111 189.647462 
L 199.209632 189.364609 
L 199.241909 189.435322 
L 199.306462 189.293896 
L 199.500121 188.94033 
L 199.629228 189.011043 
L 199.790611 188.94033 
L 199.951994 188.72819 
L 200.032685 188.657477 
L 200.161792 188.586764 
L 200.532972 188.51605 
L 200.662079 188.303911 
L 200.678217 188.374624 
L 200.807323 188.303911 
L 200.968706 188.091771 
L 201.065536 188.021058 
L 201.226919 187.808918 
L 201.372164 187.738205 
L 201.50127 187.667492 
L 201.646515 187.596778 
L 201.807898 187.384639 
L 201.856313 187.455352 
L 201.985419 187.526065 
L 202.146802 187.313925 
L 202.275908 187.384639 
L 202.3566 187.313925 
L 202.517983 187.101786 
L 202.582536 187.031072 
L 202.727781 186.818933 
L 202.743919 186.889646 
L 202.776195 186.748219 
L 202.82461 186.748219 
L 203.034408 186.677506 
L 203.179653 186.53608 
L 203.550834 186.606793 
L 203.67994 186.677506 
L 203.77677 186.748219 
L 203.905876 186.818933 
L 204.632099 186.748219 
L 204.777344 186.606793 
L 204.858035 186.53608 
L 204.987142 186.465367 
L 205.116248 186.606793 
L 205.164663 186.53608 
L 205.19694 186.677506 
L 205.229216 186.606793 
L 205.358323 186.818933 
L 205.374461 186.748219 
L 206.052269 186.818933 
L 206.213652 187.031072 
L 206.455727 187.101786 
L 206.61711 187.313925 
L 206.762354 187.384639 
L 206.907599 187.526065 
L 207.343333 187.455352 
L 207.359471 187.384639 
L 207.456301 187.455352 
L 207.472439 187.526065 
L 207.569269 187.455352 
L 207.666099 187.526065 
L 207.682237 187.596778 
L 207.779067 187.526065 
L 208.021141 187.455352 
L 208.182524 187.243212 
L 208.230939 187.172499 
L 208.40846 186.889646 
L 208.60212 186.818933 
L 208.731226 186.748219 
L 208.989439 186.677506 
L 209.118545 186.606793 
L 209.215375 186.53608 
L 209.36062 186.394653 
L 209.538141 186.32394 
L 209.731801 185.970374 
L 210.038428 185.899661 
L 210.183673 185.758234 
L 210.232088 185.828947 
L 210.393471 186.041087 
L 211.055141 185.970374 
L 211.232662 185.687521 
L 211.297215 185.758234 
L 211.329492 185.687521 
L 211.474737 185.546094 
L 211.652258 185.475381 
L 211.749088 185.404668 
L 211.765226 185.475381 
L 211.813641 185.404668 
L 211.958885 185.263242 
L 212.023439 185.192528 
L 212.039577 185.121815 
L 212.087992 185.263242 
L 212.120268 185.263242 
L 212.217098 185.333955 
L 212.362343 185.475381 
L 212.410758 185.404668 
L 212.475311 185.263242 
L 212.523726 185.404668 
L 212.588279 185.333955 
L 212.636694 185.263242 
L 212.685109 185.333955 
L 212.86263 185.616808 
L 213.185396 185.546094 
L 213.217672 185.475381 
L 213.266087 185.616808 
L 213.282226 185.616808 
L 213.556577 185.546094 
L 213.653406 185.475381 
L 213.669545 185.546094 
L 213.814789 185.475381 
L 214.008449 185.121815 
L 214.056864 185.051102 
L 214.073002 184.980389 
L 214.169832 185.051102 
L 214.2828 184.980389 
L 214.411906 184.909675 
L 214.589427 184.838962 
L 214.734672 184.697536 
L 214.84764 184.768249 
L 214.879917 184.838962 
L 214.928332 184.697536 
L 214.94447 184.697536 
L 215.202683 184.626822 
L 215.331789 184.556109 
L 215.460895 184.626822 
L 215.751385 184.697536 
L 215.767523 184.768249 
L 215.864353 184.697536 
L 216.058012 184.34397 
L 216.138704 184.273256 
L 216.300087 183.990403 
L 216.380778 184.061117 
L 216.413055 183.990403 
L 216.542161 183.91969 
L 216.687406 183.778264 
L 216.92948 183.70755 
L 216.977895 183.636837 
L 217.02631 183.70755 
L 217.042448 183.778264 
L 217.139278 183.70755 
L 217.704118 183.778264 
L 217.833225 183.848977 
L 217.849363 183.778264 
L 217.946193 183.848977 
L 218.204406 183.848977 
L 218.34965 184.202543 
L 218.656278 184.13183 
L 218.785384 184.061117 
L 218.962905 184.13183 
L 219.027459 184.061117 
L 219.075874 184.202543 
L 219.20498 184.13183 
L 219.414778 184.202543 
L 219.576161 184.414683 
L 219.915065 184.485396 
L 220.157139 185.051102 
L 220.270107 185.121815 
L 220.350799 185.263242 
L 220.399214 185.192528 
L 220.496044 185.121815 
L 220.62515 185.051102 
L 220.818809 185.121815 
L 220.834948 185.192528 
L 220.931777 185.121815 
L 221.125437 185.051102 
L 221.254543 184.980389 
L 221.319097 184.909675 
L 221.464341 184.768249 
L 221.722554 184.697536 
L 221.867799 184.556109 
L 221.900075 184.556109 
L 222.029182 184.273256 
L 222.077596 184.202543 
L 222.158288 183.990403 
L 222.222841 184.061117 
L 222.739267 183.990403 
L 222.900649 183.778264 
L 223.013618 183.70755 
L 223.158862 183.495411 
L 223.175001 183.566124 
L 223.239554 183.424697 
L 223.255692 183.495411 
L 223.449352 183.141845 
L 223.626873 183.071131 
L 223.852809 182.576139 
L 223.981915 182.505425 
L 224.046468 182.363999 
L 224.094883 182.434712 
L 224.272405 182.717565 
L 224.320819 182.646852 
L 224.385373 182.576139 
L 224.433788 182.646852 
L 224.514479 182.788278 
L 224.562894 182.717565 
L 224.692 182.788278 
L 224.853383 183.000418 
L 225.127734 182.929705 
L 225.256841 182.858992 
L 225.289117 182.929705 
L 225.305255 183.000418 
L 225.35367 182.858992 
L 225.385947 182.858992 
L 225.54733 182.929705 
L 225.692575 183.071131 
L 225.740989 183.000418 
L 225.886234 182.858992 
L 226.063755 182.788278 
L 226.338106 182.081146 
L 226.547904 182.151859 
L 226.580181 182.222572 
L 226.628596 182.081146 
L 226.644734 182.081146 
L 226.725425 182.010433 
L 226.87067 181.869006 
L 226.886808 181.93972 
L 226.9675 181.798293 
L 226.983638 181.869006 
L 227.06433 181.93972 
L 227.096606 182.010433 
L 227.161159 181.869006 
L 227.403234 181.869006 
L 227.53234 181.586153 
L 227.661447 181.51544 
L 227.677585 181.444727 
L 227.758276 181.51544 
L 227.855106 181.656867 
L 227.887383 181.586153 
L 228.048766 181.51544 
L 228.097181 181.444727 
L 228.161734 181.51544 
L 228.419946 181.444727 
L 228.597468 181.161874 
L 228.823404 181.091161 
L 228.871819 180.949734 
L 228.936372 181.091161 
L 229.081617 181.020447 
L 229.259138 180.737595 
L 229.307553 180.666881 
L 229.468936 180.454742 
L 229.630319 180.525455 
L 229.646457 180.596168 
L 229.71101 180.454742 
L 229.727148 180.454742 
L 230.082191 180.384028 
L 230.098329 180.313315 
L 230.162882 180.454742 
L 230.179021 180.454742 
L 230.905244 180.384028 
L 231.195733 179.606183 
L 231.22801 179.53547 
L 231.421669 179.181903 
L 231.453946 179.11119 
L 231.954233 177.414073 
L 231.970371 177.484786 
L 232.034925 177.272646 
L 232.164031 175.716955 
L 232.180169 173.100565 
L 232.244722 72.829198 
L 232.309276 119.782786 
L 232.470659 180.242602 
L 232.535212 180.808308 
L 232.599765 180.666881 
L 232.74501 180.454742 
L 233.051637 182.293286 
L 233.551924 185.828947 
L 233.584201 185.899661 
L 233.826275 187.101786 
L 234.520222 189.647462 
L 234.584775 189.718175 
L 234.794573 190.142455 
L 234.842988 190.213168 
L 235.036647 190.566734 
L 235.101201 190.637447 
L 235.262584 190.849587 
L 235.359413 190.9203 
L 235.520796 191.13244 
L 235.601488 191.203153 
L 235.746732 191.34458 
L 235.908115 191.415293 
L 236.037222 191.486006 
L 236.117913 191.556719 
L 236.263158 191.768859 
L 236.279296 191.698146 
L 236.359988 191.839572 
L 236.521371 192.051712 
L 236.876413 191.980999 
L 237.005519 191.839572 
L 237.070073 191.980999 
L 237.118488 191.910286 
L 237.247594 191.839572 
L 237.392839 191.768859 
L 237.538083 191.627433 
L 237.57036 191.698146 
L 237.634913 191.627433 
L 237.812434 191.34458 
L 237.860849 191.273867 
L 238.006094 191.13244 
L 238.167477 191.061727 
L 238.312721 190.9203 
L 238.474104 190.849587 
L 238.619349 190.708161 
L 238.829147 190.637447 
L 238.974392 190.496021 
L 239.103498 190.425308 
L 239.264881 190.213168 
L 239.329434 190.142455 
L 239.490817 189.930315 
L 239.732891 189.859602 
L 239.861998 189.788889 
L 240.152487 189.718175 
L 240.281593 189.647462 
L 240.378423 189.718175 
L 240.394561 189.647462 
L 240.572083 189.576749 
L 240.701189 189.506036 
L 240.959402 189.435322 
L 241.104646 189.293896 
L 241.459689 189.223183 
L 241.604934 189.081756 
L 241.717902 189.011043 
L 241.879285 188.798903 
L 242.169774 188.798903 
L 242.363433 199.123036 
L 242.799167 207.679337 
L 243.234901 213.407109 
L 243.654497 217.57919 
L 243.783603 218.639888 
L 244.396859 223.094822 
L 244.638933 224.650513 
L 244.961699 226.559771 
L 246.494837 232.782535 
L 246.55939 232.853248 
L 246.946709 234.055373 
L 246.978986 234.126087 
L 247.237199 234.762506 
L 247.269475 234.833219 
L 247.527688 235.469638 
L 247.592241 235.540351 
L 247.834316 236.106057 
L 247.850454 236.106057 
L 247.995699 236.530337 
L 248.011837 236.459623 
L 248.060252 236.60105 
L 248.092528 236.60105 
L 248.302326 237.025329 
L 248.366879 237.096043 
L 248.576677 237.520322 
L 248.657369 237.591035 
L 248.83489 237.873888 
L 248.996273 237.944601 
L 249.173794 238.227454 
L 249.238347 238.298168 
L 249.383592 238.439594 
L 249.544975 238.510307 
L 249.706358 238.722447 
L 249.819326 238.79316 
L 249.980709 239.0053 
L 250.303475 239.076013 
L 250.416443 239.21744 
L 250.432581 239.146726 
L 250.513273 239.21744 
L 250.610102 239.358866 
L 250.642379 239.288153 
L 250.884453 239.358866 
L 251.01356 239.429579 
L 251.255634 239.500293 
L 251.271772 239.571006 
L 251.352464 239.429579 
L 251.497709 239.500293 
L 251.626815 239.571006 
L 252.43373 239.500293 
L 252.562836 239.358866 
L 252.691942 239.500293 
L 252.837187 239.358866 
L 252.934017 239.288153 
L 252.99857 239.21744 
L 253.046985 239.288153 
L 253.611825 239.21744 
L 253.75707 239.076013 
L 254.273495 239.0053 
L 254.41874 238.863873 
L 254.499431 238.934587 
L 254.531708 238.863873 
L 254.773783 238.79316 
L 254.789921 238.722447 
L 254.838336 238.863873 
L 254.886751 238.79316 
L 255.354761 238.722447 
L 255.483867 238.651734 
L 255.709804 238.58102 
L 255.83891 238.510307 
L 256.000293 238.439594 
L 256.129399 238.298168 
L 256.258506 238.368881 
L 256.387612 238.298168 
L 256.50058 238.227454 
L 256.645825 238.086028 
L 256.968591 238.015315 
L 257.097697 237.944601 
L 257.129974 237.873888 
L 257.275218 237.732462 
L 257.517293 237.661748 
L 257.646399 237.591035 
L 258.01758 237.520322 
L 258.146686 237.378895 
L 258.162824 237.449609 
L 258.259654 237.378895 
L 258.372622 233.277528 
L 259.647548 233.348241 
L 259.679824 233.418954 
L 259.760516 233.348241 
L 260.244665 233.277528 
L 260.276941 233.136101 
L 260.357633 233.277528 
L 261.42276 233.348241 
L 261.471175 233.418954 
L 261.51959 233.277528 
L 261.535728 233.348241 
L 262.616994 233.277528 
L 262.649271 233.206815 
L 262.729962 233.277528 
L 263.230249 233.348241 
L 263.359356 233.418954 
L 264.392206 233.489668 
L 264.521313 233.560381 
L 266.377217 233.560381 
L 266.570876 217.720616 
L 267.151855 199.123036 
L 268.265397 177.13122 
L 268.507472 174.797683 
L 268.846376 169.777043 
L 268.910929 72.546346 
L 268.991621 134.491139 
L 269.153004 180.879021 
L 269.18528 181.091161 
L 269.233695 180.808308 
L 269.395078 180.242602 
L 269.653291 180.879021 
L 269.75012 180.949734 
L 269.959918 181.374014 
L 270.072886 181.444727 
L 270.153578 181.586153 
L 270.201993 181.51544 
L 270.282684 181.586153 
L 270.395652 181.72758 
L 270.411791 181.656867 
L 270.573173 181.586153 
L 270.621588 181.51544 
L 270.653865 181.586153 
L 270.782971 181.798293 
L 270.79911 181.869006 
L 270.879801 181.798293 
L 271.025046 181.656867 
L 271.154152 181.72758 
L 271.218705 181.869006 
L 271.26712 181.798293 
L 271.428503 181.51544 
L 271.444641 181.586153 
L 271.525333 181.51544 
L 271.670578 181.374014 
L 271.735131 181.3033 
L 271.944929 180.879021 
L 272.02562 180.808308 
L 272.283833 180.101175 
L 272.299971 180.171889 
L 272.396801 180.101175 
L 272.445216 180.101175 
L 272.59046 179.747609 
L 272.832535 179.181903 
L 272.88095 179.11119 
L 273.139162 178.474771 
L 273.332822 178.545484 
L 273.510343 178.828337 
L 273.558758 178.89905 
L 273.704003 179.040477 
L 273.800833 179.11119 
L 273.865386 179.181903 
L 273.897662 179.040477 
L 273.913801 179.11119 
L 274.059045 178.757624 
L 274.220428 178.545484 
L 274.268843 178.474771 
L 274.543194 177.555499 
L 274.575471 177.626212 
L 274.86596 177.555499 
L 274.946651 177.414073 
L 274.96279 177.484786 
L 275.043481 177.555499 
L 275.075758 177.484786 
L 275.172588 177.414073 
L 275.366247 177.060506 
L 275.495354 176.989793 
L 275.753566 176.211948 
L 275.769705 176.282661 
L 275.834258 176.211948 
L 276.076332 175.646242 
L 276.140885 175.787668 
L 276.173162 175.646242 
L 276.544343 174.444117 
L 276.560481 174.51483 
L 276.608896 174.231977 
L 276.689587 174.161264 
L 277.060768 172.039867 
L 277.286704 169.423477 
L 277.351257 70.354235 
L 277.431949 123.954867 
L 277.593332 178.262631 
L 277.754715 179.32333 
L 278.255002 182.010433 
L 278.480938 183.071131 
L 278.868257 184.414683 
L 278.884396 184.34397 
L 278.916672 184.414683 
L 279.094193 184.697536 
L 279.158747 184.768249 
L 279.336268 185.051102 
L 279.69131 184.980389 
L 279.852693 184.768249 
L 280.014076 184.697536 
L 280.240012 184.202543 
L 280.54664 184.13183 
L 280.675746 184.061117 
L 280.804853 183.990403 
L 280.820991 183.91969 
L 280.885544 184.061117 
L 280.917821 183.990403 
L 281.079204 183.91969 
L 281.20831 183.848977 
L 281.563353 183.778264 
L 281.708597 183.566124 
L 281.837704 183.636837 
L 282.031363 183.566124 
L 282.160469 183.495411 
L 282.225023 183.566124 
L 282.257299 183.424697 
L 282.273438 183.495411 
L 282.418682 183.353984 
L 282.483235 183.283271 
L 282.644618 183.071131 
L 282.693033 183.141845 
L 282.773725 183.212558 
L 282.806001 183.141845 
L 282.951246 183.071131 
L 283.128767 182.788278 
L 283.499948 182.717565 
L 283.645193 182.576139 
L 283.903405 182.505425 
L 284.097065 182.151859 
L 284.161618 182.081146 
L 284.306863 181.798293 
L 284.323001 181.869006 
L 284.371416 181.798293 
L 284.548937 181.51544 
L 284.597352 181.444727 
L 284.758735 181.091161 
L 284.774873 181.161874 
L 284.871703 181.091161 
L 285.033086 180.879021 
L 285.065363 180.808308 
L 285.27516 180.384028 
L 285.307437 180.313315 
L 285.452682 180.171889 
L 285.484958 180.101175 
L 285.662479 179.747609 
L 285.678618 179.818322 
L 285.743171 179.676896 
L 285.759309 179.676896 
L 285.823862 179.606183 
L 286.001384 179.32333 
L 286.082075 179.394043 
L 286.114352 179.32333 
L 286.146628 179.252617 
L 286.308011 178.969764 
L 286.453256 179.11119 
L 286.517809 179.040477 
L 286.550086 178.969764 
L 286.614639 179.11119 
L 286.630777 179.040477 
L 286.969681 178.969764 
L 287.001958 178.89905 
L 287.082649 178.969764 
L 287.486107 178.89905 
L 287.631352 178.757624 
L 287.776596 178.686911 
L 288.083224 177.838352 
L 288.341436 177.767639 
L 288.486681 177.484786 
L 288.502819 177.555499 
L 288.535096 177.626212 
L 288.567373 177.696925 
L 288.631926 177.555499 
L 288.728756 177.484786 
L 288.954692 176.989793 
L 289.003107 177.060506 
L 289.16449 177.343359 
L 289.212904 177.272646 
L 289.261319 177.414073 
L 289.600224 177.343359 
L 289.745468 176.91908 
L 289.793883 176.848367 
L 289.922989 176.777653 
L 289.987543 176.70694 
L 290.342585 175.575528 
L 290.358723 175.646242 
L 290.391 175.504815 
L 290.455553 175.575528 
L 290.568521 175.434102 
L 290.58466 175.504815 
L 290.681489 175.434102 
L 290.859011 175.151249 
L 290.907425 175.080536 
L 291.068808 174.868396 
L 291.133362 174.797683 
L 291.375436 174.231977 
L 291.423851 174.161264 
L 292.053244 170.979168 
L 292.101659 168.504205 
L 292.166212 70.637088 
L 292.230766 113.772161 
L 292.408287 177.767639 
L 292.553532 178.333345 
L 292.634223 178.404058 
L 293.392723 181.232587 
L 293.424999 181.3033 
L 293.812319 182.505425 
L 293.876872 182.576139 
L 294.118946 183.141845 
L 294.248053 183.212558 
L 294.377159 183.353984 
L 294.506265 183.283271 
L 294.667648 183.353984 
L 294.829031 183.566124 
L 294.877446 183.636837 
L 295.006552 183.70755 
L 295.11952 183.778264 
L 295.21635 183.848977 
L 295.232489 183.778264 
L 295.490701 183.70755 
L 295.652084 183.495411 
L 295.700499 183.424697 
L 295.87802 183.141845 
L 295.990988 183.071131 
L 296.152371 182.858992 
L 296.216925 182.788278 
L 296.394446 182.505425 
L 296.555829 182.434712 
L 296.571967 182.363999 
L 296.652659 182.434712 
L 296.862456 182.858992 
L 297.29819 182.788278 
L 297.475712 182.505425 
L 297.669371 182.434712 
L 297.879169 182.010433 
L 297.911446 181.93972 
L 298.072828 181.72758 
L 298.121243 181.656867 
L 298.282626 181.444727 
L 298.34718 181.374014 
L 298.556977 180.949734 
L 298.686084 180.879021 
L 298.976573 180.101175 
L 299.057265 180.030462 
L 299.299339 179.464756 
L 299.912594 179.394043 
L 300.090115 179.11119 
L 300.380605 179.040477 
L 300.509711 178.969764 
L 300.606541 178.89905 
L 300.703371 178.828337 
L 300.719509 178.89905 
L 300.8002 178.828337 
L 300.913168 178.757624 
L 300.945445 178.828337 
L 300.977722 178.686911 
L 301.009998 178.686911 
L 301.042275 178.686911 
L 301.171381 178.404058 
L 301.268211 178.333345 
L 301.413456 178.191918 
L 301.478009 178.262631 
L 301.510285 178.191918 
L 301.639392 178.050492 
L 301.703945 178.191918 
L 301.768498 178.121205 
L 301.816913 178.191918 
L 301.946019 178.262631 
L 302.139679 178.333345 
L 302.284924 178.545484 
L 302.397892 178.474771 
L 302.51086 178.545484 
L 302.672243 178.191918 
L 302.688381 178.262631 
L 302.849764 178.191918 
L 303.043423 177.838352 
L 303.091838 177.767639 
L 303.285498 177.414073 
L 303.333913 177.343359 
L 303.511434 177.060506 
L 303.608264 176.989793 
L 303.769647 176.777653 
L 303.963306 176.70694 
L 304.092413 176.424087 
L 304.156966 176.353374 
L 304.30221 176.070521 
L 304.318349 176.141234 
L 304.479732 176.070521 
L 304.608838 175.787668 
L 304.641115 175.858381 
L 304.721806 175.858381 
L 304.818636 175.575528 
L 304.850912 175.646242 
L 304.899327 175.646242 
L 305.06071 175.009823 
L 305.109125 175.080536 
L 305.141402 174.868396 
L 305.15754 174.939109 
L 305.189817 174.868396 
L 305.399615 174.444117 
L 305.464168 174.373403 
L 305.81921 173.312705 
L 305.835348 173.312705 
L 306.093561 171.89844 
L 306.125838 171.827727 
L 306.335636 169.423477 
L 306.351774 168.574918 
L 306.416327 70.990654 
L 306.497019 124.167007 
L 306.658402 177.414073 
L 306.739093 177.979778 
L 306.787508 177.838352 
L 306.965029 177.555499 
L 307.207104 177.626212 
L 307.836497 179.889036 
L 307.868774 179.959749 
L 308.062433 180.313315 
L 308.110848 180.384028 
L 308.304508 181.161874 
L 308.482029 181.444727 
L 308.788657 181.374014 
L 308.885486 181.3033 
L 308.901625 181.374014 
L 309.095284 181.444727 
L 309.22439 181.586153 
L 309.353497 181.51544 
L 309.466465 181.586153 
L 309.579433 181.656867 
L 309.740816 181.444727 
L 310.111997 181.51544 
L 310.257241 181.656867 
L 310.434763 181.586153 
L 310.596146 181.374014 
L 310.967326 181.3033 
L 311.112571 181.161874 
L 311.160986 181.091161 
L 311.419199 180.454742 
L 311.548305 180.384028 
L 311.725826 180.101175 
L 311.919486 180.030462 
L 312.048592 179.959749 
L 312.306805 179.889036 
L 312.484326 179.606183 
L 312.532741 179.53547 
L 312.710262 179.252617 
L 312.903922 179.181903 
L 313.065305 178.969764 
L 313.178273 178.89905 
L 313.323517 178.757624 
L 313.67856 178.686911 
L 313.743113 178.757624 
L 313.856081 178.404058 
L 314.162709 178.333345 
L 314.275677 178.262631 
L 314.404783 178.333345 
L 314.646858 177.767639 
L 314.743687 177.696925 
L 314.856655 177.484786 
L 314.888932 177.555499 
L 314.985762 177.484786 
L 315.19556 177.060506 
L 315.260113 176.989793 
L 315.437634 176.70694 
L 315.631294 176.636227 
L 315.776538 176.4948 
L 315.905645 176.424087 
L 315.937921 176.353374 
L 315.986336 176.4948 
L 316.228411 177.767639 
L 316.260687 177.838352 
L 316.42207 178.333345 
L 316.631868 178.828337 
L 316.777113 178.686911 
L 317.116017 178.616197 
L 317.2774 178.404058 
L 317.422644 178.545484 
L 317.713134 178.474771 
L 317.84224 178.404058 
L 317.874517 178.333345 
L 318.229559 177.272646 
L 318.310251 177.201933 
L 318.826676 175.434102 
L 318.891229 175.363389 
L 319.213995 174.444117 
L 319.310825 174.444117 
L 319.472208 173.949124 
L 319.633591 172.817712 
L 319.859527 169.91847 
L 319.891804 122.328463 
L 319.92408 71.909926 
L 319.988633 105.357286 
L 320.166155 175.716955 
L 320.246846 176.353374 
L 320.295261 176.141234 
L 320.359814 176.211948 
L 320.569612 176.636227 
L 320.58575 176.565514 
L 320.618027 176.70694 
L 320.666442 176.70694 
L 320.843963 176.989793 
L 320.892378 177.060506 
L 321.311974 178.404058 
L 321.360388 178.474771 
L 321.554048 178.828337 
L 321.699293 178.89905 
L 321.844537 179.040477 
L 321.941367 179.11119 
L 322.118888 179.394043 
L 322.29641 179.464756 
L 322.441654 179.676896 
L 322.473931 179.606183 
L 322.538484 179.676896 
L 322.699867 179.889036 
L 322.716005 179.818322 
L 322.780558 179.959749 
L 323.022633 180.525455 
L 323.652026 180.454742 
L 323.764994 180.313315 
L 323.781133 180.384028 
L 323.877963 180.313315 
L 324.023207 180.030462 
L 324.039345 180.101175 
L 324.152314 180.030462 
L 324.168452 179.959749 
L 324.233005 180.171889 
L 324.249143 180.101175 
L 324.265282 180.171889 
L 324.329835 180.030462 
L 324.345973 180.030462 
L 324.475079 179.959749 
L 324.701016 180.030462 
L 324.830122 180.171889 
L 324.894675 180.101175 
L 324.94309 180.171889 
L 325.685452 180.101175 
L 325.846835 179.889036 
L 325.911388 179.818322 
L 326.040494 179.747609 
L 326.185739 179.676896 
L 326.379398 179.32333 
L 326.395537 179.32333 
L 326.540781 178.969764 
L 326.589196 178.89905 
L 326.798994 178.474771 
L 326.9281 178.404058 
L 327.073345 178.191918 
L 327.089483 178.262631 
L 327.12176 178.121205 
L 327.154036 178.121205 
L 327.299281 177.979778 
L 327.412249 178.050492 
L 327.525217 177.979778 
L 327.573632 178.050492 
L 327.605909 177.909065 
L 327.622047 177.979778 
L 327.751153 177.909065 
L 327.78343 177.838352 
L 327.960951 177.555499 
L 328.186887 177.484786 
L 328.428962 176.91908 
L 328.493515 176.91908 
L 328.622621 176.4948 
L 328.63876 176.565514 
L 328.961525 176.636227 
L 328.977664 176.70694 
L 329.00994 176.565514 
L 329.058355 176.565514 
L 329.187462 176.4948 
L 329.252015 176.424087 
L 329.461813 175.999808 
L 329.558642 175.929095 
L 329.687749 175.858381 
L 329.800717 175.929095 
L 329.9621 175.504815 
L 329.978238 175.575528 
L 330.091206 175.858381 
L 330.123483 175.716955 
L 330.204174 175.646242 
L 330.397834 175.221962 
L 330.43011 175.292675 
L 330.478525 175.151249 
L 330.494664 175.151249 
L 330.688323 175.151249 
L 330.833568 174.797683 
L 330.930398 174.797683 
L 331.124057 190.991014 
L 331.495238 202.446558 
L 332.076216 212.77069 
L 332.786301 220.690572 
L 333.528663 226.276918 
L 335.158631 232.923962 
L 335.174769 232.923962 
L 335.336152 233.489668 
L 335.35229 233.489668 
L 335.529812 234.126087 
L 335.997822 235.681778 
L 336.046237 235.752491 
L 336.272173 236.247484 
L 336.30445 236.318197 
L 336.530386 236.81319 
L 336.675631 236.883903 
L 336.86929 237.237469 
L 336.917705 237.308182 
L 337.079088 237.661748 
L 337.095226 237.591035 
L 337.111365 237.591035 
L 337.256609 237.944601 
L 337.337301 238.015315 
L 337.53096 238.368881 
L 337.660067 238.439594 
L 337.853726 238.79316 
L 338.015109 238.863873 
L 338.19263 239.146726 
L 338.321737 239.21744 
L 338.466981 239.358866 
L 338.579949 239.429579 
L 338.709056 239.500293 
L 339.306173 239.429579 
L 339.386864 239.358866 
L 339.419141 239.429579 
L 340.758619 239.358866 
L 340.920002 239.146726 
L 341.065247 239.076013 
L 341.22663 238.863873 
L 341.371874 238.79316 
L 341.517119 238.651734 
L 341.662364 238.58102 
L 341.69464 238.510307 
L 341.775332 238.58102 
L 341.936715 238.510307 
L 342.065821 238.439594 
L 342.194928 238.510307 
L 342.630662 238.439594 
L 342.6468 238.368881 
L 342.679076 238.510307 
L 342.74363 238.439594 
L 343.11481 238.368881 
L 343.163225 238.298168 
L 343.227778 238.368881 
L 343.760342 238.298168 
L 343.792619 238.227454 
L 343.87331 238.298168 
L 343.97014 238.227454 
L 344.050831 238.156741 
L 344.083108 238.227454 
L 344.228353 238.156741 
L 344.357459 238.086028 
L 344.680225 238.015315 
L 344.696363 237.944601 
L 344.793193 238.015315 
L 344.922299 237.944601 
L 345.051406 237.873888 
L 345.083682 237.944601 
L 345.164374 237.873888 
L 345.600108 237.803175 
L 345.616246 237.732462 
L 345.713076 237.803175 
L 345.793767 237.732462 
L 345.922874 237.661748 
L 346.068118 237.591035 
L 346.181086 237.449609 
L 346.197225 237.520322 
L 346.261778 237.449609 
L 346.390884 237.378895 
L 346.568406 237.308182 
L 346.584544 237.237469 
L 346.681374 237.308182 
L 346.971863 237.237469 
L 347.117108 237.096043 
L 347.940161 237.166756 
L 347.972437 237.237469 
L 348.053129 237.166756 
L 349.666958 237.237469 
L 349.683097 237.308182 
L 349.779926 237.237469 
L 351.16782 237.308182 
L 351.264649 237.378895 
L 351.280788 237.308182 
L 353.362628 237.237469 
L 353.394904 237.166756 
L 353.443319 237.308182 
L 353.475596 237.237469 
L 354.702106 237.166756 
L 354.815074 237.096043 
L 354.831213 237.166756 
L 354.879628 237.025329 
L 354.928042 237.096043 
L 355.024872 237.025329 
L 355.041011 237.096043 
L 355.121702 237.096043 
L 355.13784 236.954616 
L 355.3315 205.911506 
L 355.79951 174.444117 
L 355.89634 162.776433 
L 355.944755 68.586404 
L 356.009308 115.681419 
L 356.154553 173.029852 
L 356.170691 172.888425 
L 356.364351 167.584933 
L 356.800085 158.038646 
L 356.864638 70.707801 
L 356.945329 114.691433 
L 357.122851 167.584933 
L 357.284234 168.857771 
L 357.494031 169.282051 
L 357.542446 169.211337 
L 357.590861 169.282051 
L 357.703829 169.564903 
L 357.719968 169.49419 
L 357.865212 169.423477 
L 358.187978 168.504205 
L 358.236393 168.433492 
L 358.768957 165.604962 
L 359.043308 162.28144 
L 359.172414 157.331514 
L 359.236967 67.879272 
L 359.30152 103.377316 
L 359.49518 167.797073 
L 359.672701 169.847756 
L 359.898637 170.484176 
L 359.914776 170.413462 
L 360.092297 170.484176 
L 360.140712 170.554889 
L 360.172988 170.413462 
L 360.189127 170.413462 
L 360.25368 170.342749 
L 360.528031 169.635617 
L 360.640999 169.564903 
L 360.834658 168.999198 
L 360.866935 169.069911 
L 360.947627 168.999198 
L 361.092871 168.645631 
L 361.125148 168.716345 
L 361.173563 168.645631 
L 361.383361 168.221352 
L 361.447914 168.150639 
L 361.722265 167.443506 
L 361.786818 167.372793 
L 362.028892 166.807087 
L 362.125722 166.736374 
L 362.43235 165.887815 
L 362.496903 165.817102 
L 363.303818 162.776433 
L 363.352233 162.847146 
L 363.384509 162.635006 
L 363.56203 159.099345 
L 363.626584 66.96 
L 363.707275 111.933617 
L 363.884796 166.877801 
L 364.046179 168.716345 
L 364.143009 168.787058 
L 364.304392 168.999198 
L 364.336669 169.069911 
L 364.352807 169.140624 
L 364.433498 169.069911 
L 364.449637 168.999198 
L 364.530328 169.140624 
L 364.836956 169.211337 
L 364.853094 169.282051 
L 364.885371 169.140624 
L 364.917647 169.140624 
L 365.304966 167.938499 
L 365.595456 167.867786 
L 366.257126 165.463536 
L 366.321679 165.534249 
L 366.370094 165.675676 
L 366.418509 165.463536 
L 366.773551 164.402837 
L 366.805828 164.473551 
L 366.838104 164.261411 
L 366.967211 163.978558 
L 366.999487 164.049271 
L 367.015626 164.119984 
L 367.06404 163.978558 
L 367.080179 163.978558 
L 367.225423 163.837131 
L 367.273838 163.766418 
L 367.45136 163.129999 
L 367.628881 161.857161 
L 367.854817 160.725749 
L 367.887093 160.655036 
L 367.967785 159.382198 
L 368.000062 154.361558 
L 368.064615 67.949985 
L 368.129168 101.750911 
L 368.338966 166.170668 
L 368.516487 167.797073 
L 368.694008 168.150639 
L 368.806976 168.079926 
L 368.952221 168.221352 
L 369.000636 168.079926 
L 369.081327 168.150639 
L 369.194295 168.292065 
L 369.210434 168.221352 
L 369.24271 168.221352 
L 369.323402 168.079926 
L 369.355678 168.150639 
L 369.387955 168.362778 
L 369.484785 168.221352 
L 369.581614 168.150639 
L 369.839827 167.51422 
L 369.952795 167.443506 
L 370.501497 165.534249 
L 370.533774 165.463536 
L 370.695157 164.827117 
L 370.808125 164.89783 
L 371.114753 164.049271 
L 371.163167 163.978558 
L 371.308412 163.766418 
L 371.32455 163.837131 
L 371.389104 163.624992 
L 371.405242 163.695705 
L 371.534348 163.766418 
L 371.679593 164.119984 
L 371.744146 163.978558 
L 371.808699 164.049271 
L 371.857114 163.978558 
L 371.970082 163.766418 
L 372.002359 163.837131 
L 372.08305 163.766418 
L 372.551061 162.140014 
L 372.567199 162.210727 
L 372.615614 161.998587 
L 372.825412 160.725749 
L 372.922242 157.755793 
L 372.986795 67.525706 
L 373.067486 105.993706 
L 373.261146 164.544264 
L 373.454805 166.099955 
L 373.69688 166.665661 
L 373.858263 166.594948 
L 373.955092 166.453521 
L 373.971231 166.524234 
L 374.051922 166.665661 
L 374.084199 166.594948 
L 374.374688 165.817102 
L 374.45538 165.746389 
L 374.616763 165.463536 
L 374.713592 165.534249 
L 374.729731 165.463536 
L 374.842699 165.392823 
L 375.068635 164.89783 
L 375.100911 164.968543 
L 375.197741 165.10997 
L 375.230018 165.039256 
L 375.262294 164.968543 
L 375.617337 163.907845 
L 375.665752 163.837131 
L 375.827135 163.271426 
L 375.859411 163.342139 
L 375.891688 163.412852 
L 375.940103 163.200712 
L 376.149901 162.70572 
L 376.182177 162.776433 
L 376.262869 162.70572 
L 376.295145 162.635006 
L 376.698603 161.362168 
L 376.779294 161.432881 
L 376.795432 161.362168 
L 377.118198 159.452911 
L 377.182752 157.967933 
L 377.215028 132.299029 
L 377.263443 68.091412 
L 377.327996 97.013125 
L 377.537794 162.847146 
L 377.683039 164.68569 
L 377.699177 164.614977 
L 377.95739 165.251396 
L 378.054219 165.322109 
L 378.215602 165.534249 
L 378.393124 165.463536 
L 378.538368 165.322109 
L 378.586783 165.251396 
L 378.877273 164.473551 
L 378.941826 164.402837 
L 378.990241 164.332124 
L 379.022517 164.473551 
L 379.038655 164.473551 
L 379.167762 164.402837 
L 379.474389 163.554279 
L 379.522804 163.483565 
L 379.668049 163.342139 
L 379.74874 163.271426 
L 379.990815 162.70572 
L 380.023091 162.635006 
L 380.216751 161.715734 
L 380.232889 161.786448 
L 380.297442 161.574308 
L 380.426549 161.503595 
L 380.491102 161.574308 
L 380.571794 161.715734 
L 380.620208 161.645021 
L 380.684762 161.574308 
L 380.846145 161.291455 
L 380.862283 161.362168 
L 380.910698 161.079315 
L 380.959113 161.008602 
L 381.394847 158.604352 
L 381.540091 155.917249 
L 381.572368 128.268374 
L 381.620783 67.808559 
L 381.685336 96.305992 
L 381.911272 163.766418 
L 382.104932 165.392823 
L 382.185623 165.463536 
L 382.395421 165.887815 
L 382.459974 165.958529 
L 382.605219 166.099955 
L 382.702048 166.029242 
L 382.944123 165.463536 
L 383.121644 165.534249 
L 383.234612 165.817102 
L 383.283027 165.746389 
L 383.379857 165.817102 
L 383.395995 165.887815 
L 383.44441 165.746389 
L 383.460548 165.746389 
L 383.670346 165.322109 
L 383.702623 165.251396 
L 383.912421 164.827117 
L 383.944697 164.756404 
L 384.089942 164.473551 
L 384.10608 164.544264 
L 384.154495 164.473551 
L 384.348155 164.119984 
L 384.380431 164.049271 
L 384.477261 163.837131 
L 384.525676 163.907845 
L 384.735474 163.837131 
L 384.896857 163.483565 
L 384.912995 163.554279 
L 384.993686 163.483565 
L 385.042101 163.412852 
L 385.106654 163.483565 
L 385.171208 163.412852 
L 385.300314 163.129999 
L 385.332591 163.200712 
L 385.364867 163.342139 
L 385.42942 163.200712 
L 386.123367 159.735764 
L 386.317027 155.775823 
L 386.38158 69.293537 
L 386.47841 111.226485 
L 386.672069 162.564293 
L 386.833452 163.907845 
L 386.84959 163.837131 
L 386.898005 164.119984 
L 387.107803 164.68569 
L 387.123941 164.614977 
L 387.172356 164.68569 
L 387.349877 164.968543 
L 387.527399 164.68569 
L 387.688782 164.614977 
L 387.882441 164.261411 
L 387.979271 164.261411 
L 388.140654 164.827117 
L 388.318175 164.544264 
L 388.415005 164.614977 
L 388.431143 164.544264 
L 388.527973 164.473551 
L 388.657079 164.402837 
L 388.689356 164.473551 
L 388.737771 164.332124 
L 388.753909 164.332124 
L 389.012122 163.695705 
L 389.076675 163.695705 
L 389.238058 163.200712 
L 390.077249 159.028632 
L 390.319324 154.856551 
L 390.3516 120.419205 
L 390.400015 68.939971 
L 390.464568 97.437404 
L 390.674366 161.008602 
L 390.835749 162.776433 
L 390.868026 162.847146 
L 391.142377 163.554279 
L 391.158515 163.554279 
L 391.174653 163.412852 
L 391.271483 163.483565 
L 391.352175 163.342139 
L 391.384451 163.483565 
L 391.497419 163.412852 
L 391.513558 163.342139 
L 391.594249 163.483565 
L 391.739494 163.412852 
L 391.96543 162.917859 
L 392.078398 162.847146 
L 392.417302 161.857161 
L 392.449579 161.857161 
L 392.610962 161.291455 
L 392.659377 161.220742 
L 392.869174 160.30147 
L 392.885313 160.30147 
L 393.175802 158.675065 
L 393.627674 156.200102 
L 393.724504 154.007992 
L 393.756781 127.349102 
L 393.805196 69.434963 
L 393.869749 92.487478 
L 394.111823 160.442896 
L 394.305483 162.635006 
L 394.499142 163.483565 
L 394.547557 163.554279 
L 394.757355 163.978558 
L 394.967153 164.049271 
L 395.015568 164.190698 
L 395.080121 164.119984 
L 395.386749 163.271426 
L 395.419025 163.200712 
L 395.56427 163.059286 
L 395.612685 163.059286 
L 395.757929 162.70572 
L 395.806344 162.635006 
L 395.967727 162.210727 
L 396.000004 162.28144 
L 396.096833 162.210727 
L 396.290493 161.432881 
L 396.32277 161.362168 
L 396.726227 160.08933 
L 396.758504 160.018617 
L 397.048993 158.957918 
L 397.097408 159.028632 
L 397.129684 159.099345 
L 397.161961 158.957918 
L 397.517003 155.28083 
L 397.565418 150.26019 
L 397.629972 69.647103 
L 397.710663 100.40736 
L 397.936599 159.947904 
L 398.130259 162.140014 
L 398.162535 162.210727 
L 398.501439 163.200712 
L 398.582131 163.271426 
L 398.727376 163.412852 
L 398.904897 163.342139 
L 399.050142 163.200712 
L 399.211524 163.129999 
L 399.453599 162.564293 
L 399.582705 162.49358 
L 399.744088 162.210727 
L 399.857056 162.28144 
L 399.889333 162.210727 
L 399.953886 162.352154 
L 400.018439 162.28144 
L 400.438035 160.937889 
L 400.470311 160.867176 
L 401.196535 157.260801 
L 401.406333 153.583712 
L 401.487024 69.647103 
L 401.583854 110.448639 
L 401.777513 158.675065 
L 401.955035 160.937889 
L 402.229386 162.422867 
L 402.358492 162.635006 
L 402.37463 162.564293 
L 402.439183 162.49358 
L 402.519875 162.422867 
L 402.552152 162.49358 
L 402.842641 162.422867 
L 403.068577 161.927874 
L 403.100854 161.857161 
L 403.294513 161.503595 
L 403.342928 161.432881 
L 403.455896 161.291455 
L 403.472034 161.362168 
L 403.923907 161.291455 
L 404.053013 161.220742 
L 404.165981 161.291455 
L 404.214396 161.362168 
L 404.278949 161.291455 
L 404.359641 161.362168 
L 404.424194 161.432881 
L 404.472609 161.362168 
L 404.521024 161.291455 
L 404.730821 160.584323 
L 404.779236 160.655036 
L 404.843789 160.725749 
L 404.892204 160.655036 
L 405.102002 160.584323 
L 405.344077 160.018617 
L 405.392492 159.947904 
L 405.50546 159.523624 
L 405.537736 159.594337 
L 405.602289 159.523624 
L 406.005747 157.260801 
L 406.215545 154.573698 
L 406.296236 150.543043 
L 406.376928 70.566375 
L 406.441481 98.144536 
L 406.667417 159.311484 
L 406.861076 161.857161 
L 407.280672 163.200712 
L 407.442055 163.129999 
L 407.571161 162.847146 
L 407.813236 162.917859 
L 407.893927 162.988573 
L 407.926204 162.917859 
L 408.119863 162.988573 
L 408.200555 163.129999 
L 408.24897 163.059286 
L 408.3458 162.988573 
L 408.523321 162.70572 
L 408.604012 162.70572 
L 408.797672 161.927874 
L 409.104299 161.079315 
L 409.152714 161.008602 
L 409.749831 158.887205 
L 409.798246 158.816492 
L 409.927352 158.321499 
L 409.975767 158.533639 
L 410.395363 158.462926 
L 410.944065 155.563683 
L 411.105448 149.694485 
L 411.186139 70.566375 
L 411.250693 96.942411 
L 411.476629 159.170058 
L 411.65415 161.645021 
L 411.896224 162.847146 
L 412.057607 163.059286 
L 412.138299 162.988573 
L 412.267405 162.847146 
L 412.299682 162.917859 
L 412.348097 162.776433 
L 412.364235 162.776433 
L 412.525618 162.70572 
L 412.590171 162.635006 
L 412.622448 162.776433 
L 412.703139 163.059286 
L 412.767692 162.988573 
L 412.97749 162.564293 
L 413.058182 162.49358 
L 413.203426 162.352154 
L 413.300256 162.28144 
L 413.477777 161.715734 
L 413.510054 161.857161 
L 413.752128 161.786448 
L 414.252416 160.08933 
L 414.316969 160.018617 
L 414.462213 159.87719 
L 414.510628 159.806477 
L 414.801118 159.028632 
L 414.833394 158.957918 
L 415.382096 153.300859 
L 415.414373 146.300249 
L 415.478926 70.354235 
L 415.543479 93.618889 
L 415.785554 159.311484 
L 415.979213 161.574308 
L 416.189011 162.49358 
L 416.414947 162.988573 
L 416.544053 162.917859 
L 416.76999 162.917859 
L 416.931373 162.422867 
L 416.963649 162.49358 
L 417.012064 162.28144 
L 417.060479 162.210727 
L 417.286415 161.715734 
L 417.399383 161.645021 
L 417.818979 160.30147 
L 417.851255 160.230756 
L 418.109468 159.594337 
L 418.238574 159.523624 
L 418.56134 158.604352 
L 418.577479 158.675065 
L 418.625894 158.533639 
L 418.642032 158.533639 
L 419.126181 155.917249 
L 419.335979 152.66444 
L 419.368255 139.441066 
L 419.432808 70.495662 
L 419.497362 94.326022 
L 419.787851 178.757624 
L 420.046064 195.587374 
L 420.433383 207.96219 
L 420.83684 215.669932 
L 421.224159 220.549146 
L 421.627616 224.438374 
L 421.788999 225.640499 
L 422.224733 228.539741 
L 422.757297 231.368271 
L 422.950957 232.146116 
L 423.67718 234.833219 
L 423.709457 234.903932 
L 424.145191 236.318197 
L 424.177467 236.38891 
L 424.451818 237.096043 
L 424.500233 237.166756 
L 424.758446 237.803175 
L 424.855276 237.873888 
L 425.129627 238.58102 
L 425.145765 238.510307 
L 425.178041 238.651734 
L 425.210318 238.651734 
L 425.436254 239.146726 
L 425.549222 239.21744 
L 425.726743 239.500293 
L 425.839712 239.571006 
L 426.017233 239.853859 
L 426.097924 239.924572 
L 426.259307 240.136712 
L 426.32386 240.207425 
L 426.501382 240.490278 
L 426.51752 240.419565 
L 426.582073 240.560991 
L 426.598211 240.560991 
L 426.727318 240.631704 
L 426.824148 240.702418 
L 426.98553 240.914557 
L 427.033945 240.98527 
L 427.163052 241.055984 
L 427.243743 241.126697 
L 427.388988 241.338837 
L 427.421264 241.268123 
L 427.501956 241.338837 
L 428.131349 241.40955 
L 428.276594 241.550976 
L 429.148062 241.62169 
L 429.1642 241.692403 
L 429.244892 241.62169 
L 429.341722 241.550976 
L 429.35786 241.62169 
L 429.729041 241.692403 
L 429.793594 241.763116 
L 429.842009 241.692403 
L 430.697338 241.62169 
L 430.826445 241.550976 
L 431.310594 241.480263 
L 431.375147 241.40955 
L 431.423562 241.480263 
L 431.4397 241.550976 
L 431.520391 241.480263 
L 431.649498 241.40955 
L 432.036817 241.338837 
L 432.165923 241.268123 
L 432.633934 241.19741 
L 432.76304 241.126697 
L 433.392434 241.055984 
L 433.52154 240.98527 
L 433.795891 240.914557 
L 433.860444 240.773131 
L 433.908859 240.843844 
L 433.989551 240.914557 
L 434.021827 240.843844 
L 434.74805 240.773131 
L 434.877157 240.702418 
L 435.232199 240.631704 
L 435.377444 240.490278 
L 435.458135 240.560991 
L 435.490412 240.490278 
L 435.780901 240.490278 
L 435.780901 240.490278 
" style="fill:none;stroke:#1f77b4;stroke-linecap:square;stroke-width:1.5;"/>
   </g>
   <g id="line2d_12">
    <path clip-path="url(#pa70ef9ae32)" d="M 80.754545 234.111944 
L 82.110162 234.213319 
L 82.287683 234.227801 
L 88.904385 234.314693 
L 89.61447 219.789176 
L 90.372969 209.318639 
L 91.115331 202.483102 
L 91.664033 198.920513 
L 92.422533 195.444816 
L 93.148756 193.229059 
L 94.714171 190.636769 
L 95.85999 189.753362 
L 96.085926 189.651988 
L 96.408692 189.507167 
L 96.731458 189.405793 
L 96.98967 189.3189 
L 97.489958 189.217526 
L 97.699755 189.174079 
L 98.684191 189.072705 
L 98.861713 189.058223 
L 104.558531 189.159597 
L 104.736052 189.174079 
L 106.946999 189.275454 
L 107.12452 189.289936 
L 109.383881 189.39131 
L 109.561402 189.405793 
L 111.94987 189.507167 
L 112.127391 189.521649 
L 114.709519 189.623024 
L 114.88704 189.637506 
L 117.662827 189.73888 
L 117.840348 189.753362 
L 120.874347 189.854737 
L 121.051869 189.869219 
L 124.376357 189.970593 
L 124.553879 189.985075 
L 128.249548 190.08645 
L 128.427069 190.100932 
L 132.558473 190.202306 
L 132.735994 190.216788 
L 137.4161 190.318163 
L 137.593621 190.332645 
L 142.99995 190.43402 
L 143.177471 190.448502 
L 149.552098 190.549876 
L 149.729619 190.564358 
L 153.457565 190.622286 
L 154.16765 205.147803 
L 154.813182 214.329436 
L 155.523267 221.35324 
L 156.217214 226.059913 
L 156.975714 229.53561 
L 157.718075 231.809295 
L 159.28349 234.401585 
L 160.429309 235.284992 
L 160.639107 235.386366 
L 160.961873 235.531187 
L 161.2685 235.632561 
L 161.526713 235.719454 
L 161.978585 235.820828 
L 162.188383 235.864275 
L 162.946883 235.965649 
L 163.140542 235.994613 
L 169.515169 235.936685 
L 169.59586 234.111944 
L 169.628137 234.126426 
L 171.177413 234.227801 
L 171.354935 234.242283 
L 177.681146 234.314693 
L 178.391231 214.952165 
L 179.06904 202.222425 
L 179.779125 193.02631 
L 180.424657 187.233482 
L 181.183156 182.570255 
L 182.086901 179.022148 
L 183.03906 176.777427 
L 183.749145 175.720236 
L 185.346837 174.431332 
L 185.588911 174.329957 
L 185.895539 174.199619 
L 186.234443 174.098244 
L 186.476517 174.025834 
L 186.976804 173.924459 
L 187.186602 173.881013 
L 188.300145 173.779639 
L 188.477666 173.765156 
L 192.528378 173.866531 
L 192.705899 173.881013 
L 194.239037 173.982388 
L 194.416558 173.99687 
L 195.836728 174.098244 
L 196.01425 174.112726 
L 197.466696 174.214101 
L 197.644218 174.228583 
L 199.128941 174.329957 
L 199.306462 174.344439 
L 200.871877 174.445814 
L 201.049398 174.460296 
L 202.711642 174.56167 
L 202.889163 174.576152 
L 204.664376 174.677527 
L 204.841897 174.692009 
L 206.730078 174.793383 
L 206.907599 174.807866 
L 208.941024 174.90924 
L 209.118545 174.923722 
L 211.313354 175.025097 
L 211.490875 175.039579 
L 213.847066 175.140953 
L 214.024587 175.155435 
L 216.590576 175.25681 
L 216.768097 175.271292 
L 219.560022 175.372666 
L 219.737544 175.387148 
L 222.80382 175.488523 
L 222.981341 175.503005 
L 226.354245 175.604379 
L 226.531766 175.618861 
L 230.308127 175.720236 
L 230.485648 175.734718 
L 234.746158 175.836093 
L 234.923679 175.850575 
L 239.781306 175.951949 
L 239.958828 175.966431 
L 242.234327 176.009877 
L 242.944412 195.40137 
L 243.622221 208.160074 
L 244.348444 217.544455 
L 245.171497 224.56826 
L 245.99455 229.057701 
L 246.623943 231.374833 
L 247.624518 233.749892 
L 248.302326 234.749155 
L 249.851602 235.994613 
L 250.093677 236.095988 
L 250.384166 236.211844 
L 250.72307 236.313219 
L 250.965145 236.385629 
L 251.513847 236.487004 
L 251.723645 236.53045 
L 253.289059 236.631824 
L 253.466581 236.646306 
L 257.275218 236.544932 
L 257.45274 236.53045 
L 258.291931 236.487004 
L 258.372622 234.111944 
L 258.404899 234.126426 
L 259.954175 234.227801 
L 260.131697 234.242283 
L 266.457908 234.314693 
L 267.167993 205.26366 
L 267.86194 185.799757 
L 268.52361 172.88175 
L 268.910929 165.177289 
L 269.023897 197.834358 
L 269.249833 197.834358 
L 269.37894 209.550353 
L 270.056748 262.004412 
L 270.686142 295.211799 
L 271.331673 318.310702 
L 271.961067 333.256198 
L 272.558184 342.481277 
L 273.074609 347.651376 
L 273.687864 351.286376 
L 274.236567 352.85044 
L 274.817545 353.241456 
L 275.52763 352.459424 
L 276.011779 351.373268 
L 276.786417 348.969245 
L 278.012928 344.161197 
L 287.64749 301.43909 
L 288.648064 297.442038 
L 289.53567 293.966341 
L 296.426722 269.636463 
L 297.072254 267.580009 
L 297.95986 264.799451 
L 298.863605 262.047858 
L 299.557552 259.96244 
L 301.106828 255.472998 
L 301.639392 253.966863 
L 306.642263 240.817143 
L 306.997306 239.962701 
L 308.110848 237.283517 
L 308.514305 236.342183 
L 309.369635 234.358139 
L 309.837646 233.300948 
L 310.547731 231.70792 
L 311.096433 230.505908 
L 311.709688 229.173558 
L 312.371358 227.768797 
L 312.92006 226.610232 
L 313.791528 224.828937 
L 314.275677 223.844156 
L 315.534464 221.367722 
L 315.970198 220.51328 
L 322.522346 208.97107 
L 322.732144 208.637982 
L 323.781133 206.972544 
L 324.007069 206.624974 
L 324.84626 205.33607 
L 325.088335 204.974018 
L 325.830696 203.858899 
L 326.105047 203.467883 
L 326.782856 202.46862 
L 327.073345 202.063122 
L 327.670462 201.20868 
L 327.960951 200.803182 
L 328.509653 200.035632 
L 328.832419 199.60117 
L 329.332706 198.920513 
L 329.67161 198.471569 
L 330.155759 197.819875 
L 330.52694 197.341967 
L 330.978812 196.748202 
L 331.011089 196.704756 
L 331.688897 223.80071 
L 332.382844 242.743258 
L 333.028376 254.792341 
L 333.609355 262.395428 
L 334.271025 268.376523 
L 334.932695 272.330128 
L 335.626641 274.951383 
L 336.320588 276.500964 
L 336.77246 277.094729 
L 337.450269 277.558155 
L 338.822024 277.456781 
L 339.193205 277.268514 
L 339.370726 277.167139 
L 340.032396 276.718195 
L 340.177641 276.616821 
L 344.53498 272.561841 
L 344.809331 272.286682 
L 347.068693 270.114371 
L 347.149384 234.111944 
L 347.181661 234.126426 
L 348.730937 234.227801 
L 348.908458 234.242283 
L 355.23467 234.314693 
L 355.912478 178.413901 
L 356.106138 164.916611 
L 356.219106 197.834358 
L 356.445042 197.834358 
L 357.106712 225.55304 
L 357.719968 242.75774 
L 358.333223 254.140647 
L 358.93034 261.193416 
L 359.479042 265.132539 
L 359.947052 267.058654 
L 360.25368 267.768276 
L 360.560307 268.115845 
L 361.076733 268.014471 
L 361.447914 267.536563 
L 362.012754 266.305587 
L 362.787392 263.901563 
L 363.981626 259.209372 
L 369.194295 235.313956 
L 369.888242 232.185829 
L 372.906103 219.151965 
L 373.680741 215.96591 
L 374.778146 211.548878 
L 376.149901 206.219476 
L 376.892262 203.395473 
L 381.943549 185.669418 
L 382.524527 183.786749 
L 383.557378 180.484837 
L 384.332016 178.080813 
L 385.106654 175.705754 
L 386.010399 172.954161 
L 387.188495 168.348862 
L 387.366016 166.205516 
L 387.398292 165.11936 
L 387.51126 197.834358 
L 387.737197 197.834358 
L 387.866303 210.795811 
L 388.511835 266.334551 
L 389.157367 304.002416 
L 389.802898 329.027434 
L 390.383877 343.857074 
L 390.997132 353.806256 
L 391.497419 358.759124 
L 391.997707 361.583128 
L 392.417302 362.683766 
L 392.659377 362.900997 
L 392.966004 362.799622 
L 393.240355 362.408606 
L 393.595398 361.554164 
L 394.031132 360.062511 
L 394.547557 357.803308 
L 396.274355 347.897572 
L 398.162535 335.341617 
L 400.228237 321.30849 
L 402.552152 306.015424 
L 403.520449 299.860544 
L 406.522172 281.700028 
L 409.055885 267.44967 
L 409.846661 263.177459 
L 412.461065 249.709134 
L 413.73599 243.481844 
L 414.704288 238.876545 
L 419.787851 216.574157 
L 420.465659 269.723355 
L 421.111191 304.465842 
L 421.740585 327.825422 
L 422.386116 344.132233 
L 422.999372 354.501396 
L 423.531935 360.583865 
L 424.032222 364.46506 
L 424.564786 367.115279 
L 425.09735 368.621414 
L 425.549222 369.229661 
L 425.775158 369.331036 
L 425.95268 369.345518 
L 426.259307 369.244143 
L 426.969392 368.462112 
L 428.082935 366.246355 
L 430.826445 358.541893 
L 431.584945 356.224762 
L 432.488689 353.473169 
L 433.231051 351.213966 
L 434.296178 348.02791 
L 434.94171 346.116277 
L 435.845455 343.495022 
L 435.845455 343.495022 
" style="fill:none;stroke:#ff0000;stroke-linecap:square;stroke-width:1.5;"/>
   </g>
   <g id="patch_3">
    <path d="M 63 384.48 
L 63 51.84 
" style="fill:none;stroke:#000000;stroke-linecap:square;stroke-linejoin:miter;stroke-width:0.8;"/>
   </g>
   <g id="patch_4">
    <path d="M 453.6 384.48 
L 453.6 51.84 
" style="fill:none;stroke:#000000;stroke-linecap:square;stroke-linejoin:miter;stroke-width:0.8;"/>
   </g>
   <g id="patch_5">
    <path d="M 63 384.48 
L 453.6 384.48 
" style="fill:none;stroke:#000000;stroke-linecap:square;stroke-linejoin:miter;stroke-width:0.8;"/>
   </g>
   <g id="patch_6">
    <path d="M 63 51.84 
L 453.6 51.84 
" style="fill:none;stroke:#000000;stroke-linecap:square;stroke-linejoin:miter;stroke-width:0.8;"/>
   </g>
   <g id="legend_1">
    <g id="patch_7">
     <path d="M 70 89.19625 
L 133.139062 89.19625 
Q 135.139062 89.19625 135.139062 87.19625 
L 135.139062 58.84 
Q 135.139062 56.84 133.139062 56.84 
L 70 56.84 
Q 68 56.84 68 58.84 
L 68 87.19625 
Q 68 89.19625 70 89.19625 
z
" style="fill:#ffffff;opacity:0.8;stroke:#cccccc;stroke-linejoin:miter;"/>
    </g>
    <g id="line2d_13">
     <path d="M 72 64.938437 
L 92 64.938437 
" style="fill:none;stroke:#1f77b4;stroke-linecap:square;stroke-width:1.5;"/>
    </g>
    <g id="line2d_14"/>
    <g id="text_13">
     <!-- target -->
     <defs>
      <path d="M 41.109375 46.296875 
Q 39.59375 47.171875 37.8125 47.578125 
Q 36.03125 48 33.890625 48 
Q 26.265625 48 22.1875 43.046875 
Q 18.109375 38.09375 18.109375 28.8125 
L 18.109375 0 
L 9.078125 0 
L 9.078125 54.6875 
L 18.109375 54.6875 
L 18.109375 46.1875 
Q 20.953125 51.171875 25.484375 53.578125 
Q 30.03125 56 36.53125 56 
Q 37.453125 56 38.578125 55.875 
Q 39.703125 55.765625 41.0625 55.515625 
z
" id="DejaVuSans-114"/>
     </defs>
     <g transform="translate(100 68.438437)scale(0.1 -0.1)">
      <use xlink:href="#DejaVuSans-116"/>
      <use x="39.208984" xlink:href="#DejaVuSans-97"/>
      <use x="100.488281" xlink:href="#DejaVuSans-114"/>
      <use x="141.585938" xlink:href="#DejaVuSans-103"/>
      <use x="205.0625" xlink:href="#DejaVuSans-101"/>
      <use x="266.585938" xlink:href="#DejaVuSans-116"/>
     </g>
    </g>
    <g id="line2d_15">
     <path d="M 72 79.616562 
L 92 79.616562 
" style="fill:none;stroke:#ff0000;stroke-linecap:square;stroke-width:1.5;"/>
    </g>
    <g id="line2d_16"/>
    <g id="text_14">
     <!-- model -->
     <defs>
      <path d="M 45.40625 46.390625 
L 45.40625 75.984375 
L 54.390625 75.984375 
L 54.390625 0 
L 45.40625 0 
L 45.40625 8.203125 
Q 42.578125 3.328125 38.25 0.953125 
Q 33.9375 -1.421875 27.875 -1.421875 
Q 17.96875 -1.421875 11.734375 6.484375 
Q 5.515625 14.40625 5.515625 27.296875 
Q 5.515625 40.1875 11.734375 48.09375 
Q 17.96875 56 27.875 56 
Q 33.9375 56 38.25 53.625 
Q 42.578125 51.265625 45.40625 46.390625 
z
M 14.796875 27.296875 
Q 14.796875 17.390625 18.875 11.75 
Q 22.953125 6.109375 30.078125 6.109375 
Q 37.203125 6.109375 41.296875 11.75 
Q 45.40625 17.390625 45.40625 27.296875 
Q 45.40625 37.203125 41.296875 42.84375 
Q 37.203125 48.484375 30.078125 48.484375 
Q 22.953125 48.484375 18.875 42.84375 
Q 14.796875 37.203125 14.796875 27.296875 
z
" id="DejaVuSans-100"/>
     </defs>
     <g transform="translate(100 83.116562)scale(0.1 -0.1)">
      <use xlink:href="#DejaVuSans-109"/>
      <use x="97.412109" xlink:href="#DejaVuSans-111"/>
      <use x="158.59375" xlink:href="#DejaVuSans-100"/>
      <use x="222.070312" xlink:href="#DejaVuSans-101"/>
      <use x="283.59375" xlink:href="#DejaVuSans-108"/>
     </g>
    </g>
   </g>
  </g>
 </g>
 <defs>
  <clipPath id="pa70ef9ae32">
   <rect height="332.64" width="390.6" x="63" y="51.84"/>
  </clipPath>
 </defs>
</svg>
