<?xml version="1.0" encoding="utf-8" standalone="no"?>
<!DOCTYPE svg PUBLIC "-//W3C//DTD SVG 1.1//EN"
  "http://www.w3.org/Graphics/SVG/1.1/DTD/svg11.dtd">
<!-- Created with matplotlib (https://matplotlib.org/) -->
<svg height="432pt" version="1.1" viewBox="0 0 504 432" width="504pt" xmlns="http://www.w3.org/2000/svg" xmlns:xlink="http://www.w3.org/1999/xlink">
 <metadata>
  <rdf:RDF xmlns:cc="http://creativecommons.org/ns#" xmlns:dc="http://purl.org/dc/elements/1.1/" xmlns:rdf="http://www.w3.org/1999/02/22-rdf-syntax-ns#">
   <cc:Work>
    <dc:type rdf:resource="http://purl.org/dc/dcmitype/StillImage"/>
    <dc:date>2020-11-03T22:06:34.182205</dc:date>
    <dc:format>image/svg+xml</dc:format>
    <dc:creator>
     <cc:Agent>
      <dc:title>Matplotlib v3.3.2, https://matplotlib.org/</dc:title>
     </cc:Agent>
    </dc:creator>
   </cc:Work>
  </rdf:RDF>
 </metadata>
 <defs>
  <style type="text/css">*{stroke-linecap:butt;stroke-linejoin:round;}</style>
 </defs>
 <g id="figure_1">
  <g id="patch_1">
   <path d="M 0 432 
L 504 432 
L 504 0 
L 0 0 
z
" style="fill:#ffffff;"/>
  </g>
  <g id="axes_1">
   <g id="patch_2">
    <path d="M 63 384.48 
L 453.6 384.48 
L 453.6 51.84 
L 63 51.84 
z
" style="fill:#ffffff;"/>
   </g>
   <g id="matplotlib.axis_1">
    <g id="xtick_1">
     <g id="line2d_1">
      <defs>
       <path d="M 0 0 
L 0 3.5 
" id="m766386615b" style="stroke:#000000;stroke-width:0.8;"/>
      </defs>
      <g>
       <use style="stroke:#000000;stroke-width:0.8;" x="80.754545" xlink:href="#m766386615b" y="384.48"/>
      </g>
     </g>
     <g id="text_1">
      <!-- 0 -->
      <g transform="translate(77.573295 399.078438)scale(0.1 -0.1)">
       <defs>
        <path d="M 31.78125 66.40625 
Q 24.171875 66.40625 20.328125 58.90625 
Q 16.5 51.421875 16.5 36.375 
Q 16.5 21.390625 20.328125 13.890625 
Q 24.171875 6.390625 31.78125 6.390625 
Q 39.453125 6.390625 43.28125 13.890625 
Q 47.125 21.390625 47.125 36.375 
Q 47.125 51.421875 43.28125 58.90625 
Q 39.453125 66.40625 31.78125 66.40625 
z
M 31.78125 74.21875 
Q 44.046875 74.21875 50.515625 64.515625 
Q 56.984375 54.828125 56.984375 36.375 
Q 56.984375 17.96875 50.515625 8.265625 
Q 44.046875 -1.421875 31.78125 -1.421875 
Q 19.53125 -1.421875 13.0625 8.265625 
Q 6.59375 17.96875 6.59375 36.375 
Q 6.59375 54.828125 13.0625 64.515625 
Q 19.53125 74.21875 31.78125 74.21875 
z
" id="DejaVuSans-48"/>
       </defs>
       <use xlink:href="#DejaVuSans-48"/>
      </g>
     </g>
    </g>
    <g id="xtick_2">
     <g id="line2d_2">
      <g>
       <use style="stroke:#000000;stroke-width:0.8;" x="151.775956" xlink:href="#m766386615b" y="384.48"/>
      </g>
     </g>
     <g id="text_2">
      <!-- 880 -->
      <g transform="translate(142.232206 399.078438)scale(0.1 -0.1)">
       <defs>
        <path d="M 31.78125 34.625 
Q 24.75 34.625 20.71875 30.859375 
Q 16.703125 27.09375 16.703125 20.515625 
Q 16.703125 13.921875 20.71875 10.15625 
Q 24.75 6.390625 31.78125 6.390625 
Q 38.8125 6.390625 42.859375 10.171875 
Q 46.921875 13.96875 46.921875 20.515625 
Q 46.921875 27.09375 42.890625 30.859375 
Q 38.875 34.625 31.78125 34.625 
z
M 21.921875 38.8125 
Q 15.578125 40.375 12.03125 44.71875 
Q 8.5 49.078125 8.5 55.328125 
Q 8.5 64.0625 14.71875 69.140625 
Q 20.953125 74.21875 31.78125 74.21875 
Q 42.671875 74.21875 48.875 69.140625 
Q 55.078125 64.0625 55.078125 55.328125 
Q 55.078125 49.078125 51.53125 44.71875 
Q 48 40.375 41.703125 38.8125 
Q 48.828125 37.15625 52.796875 32.3125 
Q 56.78125 27.484375 56.78125 20.515625 
Q 56.78125 9.90625 50.3125 4.234375 
Q 43.84375 -1.421875 31.78125 -1.421875 
Q 19.734375 -1.421875 13.25 4.234375 
Q 6.78125 9.90625 6.78125 20.515625 
Q 6.78125 27.484375 10.78125 32.3125 
Q 14.796875 37.15625 21.921875 38.8125 
z
M 18.3125 54.390625 
Q 18.3125 48.734375 21.84375 45.5625 
Q 25.390625 42.390625 31.78125 42.390625 
Q 38.140625 42.390625 41.71875 45.5625 
Q 45.3125 48.734375 45.3125 54.390625 
Q 45.3125 60.0625 41.71875 63.234375 
Q 38.140625 66.40625 31.78125 66.40625 
Q 25.390625 66.40625 21.84375 63.234375 
Q 18.3125 60.0625 18.3125 54.390625 
z
" id="DejaVuSans-56"/>
       </defs>
       <use xlink:href="#DejaVuSans-56"/>
       <use x="63.623047" xlink:href="#DejaVuSans-56"/>
       <use x="127.246094" xlink:href="#DejaVuSans-48"/>
      </g>
     </g>
    </g>
    <g id="xtick_3">
     <g id="line2d_3">
      <g>
       <use style="stroke:#000000;stroke-width:0.8;" x="222.797366" xlink:href="#m766386615b" y="384.48"/>
      </g>
     </g>
     <g id="text_3">
      <!-- 1760 -->
      <g transform="translate(210.072366 399.078438)scale(0.1 -0.1)">
       <defs>
        <path d="M 12.40625 8.296875 
L 28.515625 8.296875 
L 28.515625 63.921875 
L 10.984375 60.40625 
L 10.984375 69.390625 
L 28.421875 72.90625 
L 38.28125 72.90625 
L 38.28125 8.296875 
L 54.390625 8.296875 
L 54.390625 0 
L 12.40625 0 
z
" id="DejaVuSans-49"/>
        <path d="M 8.203125 72.90625 
L 55.078125 72.90625 
L 55.078125 68.703125 
L 28.609375 0 
L 18.3125 0 
L 43.21875 64.59375 
L 8.203125 64.59375 
z
" id="DejaVuSans-55"/>
        <path d="M 33.015625 40.375 
Q 26.375 40.375 22.484375 35.828125 
Q 18.609375 31.296875 18.609375 23.390625 
Q 18.609375 15.53125 22.484375 10.953125 
Q 26.375 6.390625 33.015625 6.390625 
Q 39.65625 6.390625 43.53125 10.953125 
Q 47.40625 15.53125 47.40625 23.390625 
Q 47.40625 31.296875 43.53125 35.828125 
Q 39.65625 40.375 33.015625 40.375 
z
M 52.59375 71.296875 
L 52.59375 62.3125 
Q 48.875 64.0625 45.09375 64.984375 
Q 41.3125 65.921875 37.59375 65.921875 
Q 27.828125 65.921875 22.671875 59.328125 
Q 17.53125 52.734375 16.796875 39.40625 
Q 19.671875 43.65625 24.015625 45.921875 
Q 28.375 48.1875 33.59375 48.1875 
Q 44.578125 48.1875 50.953125 41.515625 
Q 57.328125 34.859375 57.328125 23.390625 
Q 57.328125 12.15625 50.6875 5.359375 
Q 44.046875 -1.421875 33.015625 -1.421875 
Q 20.359375 -1.421875 13.671875 8.265625 
Q 6.984375 17.96875 6.984375 36.375 
Q 6.984375 53.65625 15.1875 63.9375 
Q 23.390625 74.21875 37.203125 74.21875 
Q 40.921875 74.21875 44.703125 73.484375 
Q 48.484375 72.75 52.59375 71.296875 
z
" id="DejaVuSans-54"/>
       </defs>
       <use xlink:href="#DejaVuSans-49"/>
       <use x="63.623047" xlink:href="#DejaVuSans-55"/>
       <use x="127.246094" xlink:href="#DejaVuSans-54"/>
       <use x="190.869141" xlink:href="#DejaVuSans-48"/>
      </g>
     </g>
    </g>
    <g id="xtick_4">
     <g id="line2d_4">
      <g>
       <use style="stroke:#000000;stroke-width:0.8;" x="293.818776" xlink:href="#m766386615b" y="384.48"/>
      </g>
     </g>
     <g id="text_4">
      <!-- 2640 -->
      <g transform="translate(281.093776 399.078438)scale(0.1 -0.1)">
       <defs>
        <path d="M 19.1875 8.296875 
L 53.609375 8.296875 
L 53.609375 0 
L 7.328125 0 
L 7.328125 8.296875 
Q 12.9375 14.109375 22.625 23.890625 
Q 32.328125 33.6875 34.8125 36.53125 
Q 39.546875 41.84375 41.421875 45.53125 
Q 43.3125 49.21875 43.3125 52.78125 
Q 43.3125 58.59375 39.234375 62.25 
Q 35.15625 65.921875 28.609375 65.921875 
Q 23.96875 65.921875 18.8125 64.3125 
Q 13.671875 62.703125 7.8125 59.421875 
L 7.8125 69.390625 
Q 13.765625 71.78125 18.9375 73 
Q 24.125 74.21875 28.421875 74.21875 
Q 39.75 74.21875 46.484375 68.546875 
Q 53.21875 62.890625 53.21875 53.421875 
Q 53.21875 48.921875 51.53125 44.890625 
Q 49.859375 40.875 45.40625 35.40625 
Q 44.1875 33.984375 37.640625 27.21875 
Q 31.109375 20.453125 19.1875 8.296875 
z
" id="DejaVuSans-50"/>
        <path d="M 37.796875 64.3125 
L 12.890625 25.390625 
L 37.796875 25.390625 
z
M 35.203125 72.90625 
L 47.609375 72.90625 
L 47.609375 25.390625 
L 58.015625 25.390625 
L 58.015625 17.1875 
L 47.609375 17.1875 
L 47.609375 0 
L 37.796875 0 
L 37.796875 17.1875 
L 4.890625 17.1875 
L 4.890625 26.703125 
z
" id="DejaVuSans-52"/>
       </defs>
       <use xlink:href="#DejaVuSans-50"/>
       <use x="63.623047" xlink:href="#DejaVuSans-54"/>
       <use x="127.246094" xlink:href="#DejaVuSans-52"/>
       <use x="190.869141" xlink:href="#DejaVuSans-48"/>
      </g>
     </g>
    </g>
    <g id="xtick_5">
     <g id="line2d_5">
      <g>
       <use style="stroke:#000000;stroke-width:0.8;" x="364.840186" xlink:href="#m2a14503ffa" y="384.48"/>
      </g>
     </g>
     <g id="text_5">
      <!-- 3520 -->
      <g transform="translate(352.063541 399.078438)scale(0.1 -0.1)">
       <defs>
        <path d="M 40.578125 39.3125 
Q 47.65625 37.796875 51.625 33 
Q 55.609375 28.21875 55.609375 21.1875 
Q 55.609375 10.40625 48.1875 4.484375 
Q 40.765625 -1.421875 27.09375 -1.421875 
Q 22.515625 -1.421875 17.65625 -0.515625 
Q 12.796875 0.390625 7.625 2.203125 
L 7.625 11.71875 
Q 11.71875 9.328125 16.59375 8.109375 
Q 21.484375 6.890625 26.8125 6.890625 
Q 36.078125 6.890625 40.9375 10.546875 
Q 45.796875 14.203125 45.796875 21.1875 
Q 45.796875 27.640625 41.28125 31.265625 
Q 36.765625 34.90625 28.71875 34.90625 
L 20.21875 34.90625 
L 20.21875 43.015625 
L 29.109375 43.015625 
Q 36.375 43.015625 40.234375 45.921875 
Q 44.09375 48.828125 44.09375 54.296875 
Q 44.09375 59.90625 40.109375 62.90625 
Q 36.140625 65.921875 28.71875 65.921875 
Q 24.65625 65.921875 20.015625 65.03125 
Q 15.375 64.15625 9.8125 62.3125 
L 9.8125 71.09375 
Q 15.4375 72.65625 20.34375 73.4375 
Q 25.25 74.21875 29.59375 74.21875 
Q 40.828125 74.21875 47.359375 69.109375 
Q 53.90625 64.015625 53.90625 55.328125 
Q 53.90625 49.265625 50.4375 45.09375 
Q 46.96875 40.921875 40.578125 39.3125 
z
" id="DejaVuSans-51"/>
        <path d="M 10.796875 72.90625 
L 49.515625 72.90625 
L 49.515625 64.59375 
L 19.828125 64.59375 
L 19.828125 46.734375 
Q 21.96875 47.46875 24.109375 47.828125 
Q 26.265625 48.1875 28.421875 48.1875 
Q 40.625 48.1875 47.75 41.5 
Q 54.890625 34.8125 54.890625 23.390625 
Q 54.890625 11.625 47.5625 5.09375 
Q 40.234375 -1.421875 26.90625 -1.421875 
Q 22.3125 -1.421875 17.546875 -0.640625 
Q 12.796875 0.140625 7.71875 1.703125 
L 7.71875 11.625 
Q 12.109375 9.234375 16.796875 8.0625 
Q 21.484375 6.890625 26.703125 6.890625 
Q 35.15625 6.890625 40.078125 11.328125 
Q 45.015625 15.765625 45.015625 23.390625 
Q 45.015625 31 40.078125 35.4375 
Q 35.15625 39.890625 26.703125 39.890625 
Q 22.75 39.890625 18.8125 39.015625 
Q 14.890625 38.140625 10.796875 36.28125 
z
" id="DejaVuSans-53"/>
       </defs>
       <use xlink:href="#DejaVuSans-51"/>
       <use x="63.623047" xlink:href="#DejaVuSans-53"/>
       <use x="127.246094" xlink:href="#DejaVuSans-50"/>
       <use x="190.869141" xlink:href="#DejaVuSans-48"/>
      </g>
     </g>
    </g>
    <g id="text_6">
     <!-- time [ms] -->
     <g transform="translate(234.038281 412.756563)scale(0.1 -0.1)">
      <defs>
       <path d="M 18.3125 70.21875 
L 18.3125 54.6875 
L 36.8125 54.6875 
L 36.8125 47.703125 
L 18.3125 47.703125 
L 18.3125 18.015625 
Q 18.3125 11.328125 20.140625 9.421875 
Q 21.96875 7.515625 27.59375 7.515625 
L 36.8125 7.515625 
L 36.8125 0 
L 27.59375 0 
Q 17.1875 0 13.234375 3.875 
Q 9.28125 7.765625 9.28125 18.015625 
L 9.28125 47.703125 
L 2.6875 47.703125 
L 2.6875 54.6875 
L 9.28125 54.6875 
L 9.28125 70.21875 
z
" id="DejaVuSans-116"/>
       <path d="M 9.421875 54.6875 
L 18.40625 54.6875 
L 18.40625 0 
L 9.421875 0 
z
M 9.421875 75.984375 
L 18.40625 75.984375 
L 18.40625 64.59375 
L 9.421875 64.59375 
z
" id="DejaVuSans-105"/>
       <path d="M 52 44.1875 
Q 55.375 50.25 60.0625 53.125 
Q 64.75 56 71.09375 56 
Q 79.640625 56 84.28125 50.015625 
Q 88.921875 44.046875 88.921875 33.015625 
L 88.921875 0 
L 79.890625 0 
L 79.890625 32.71875 
Q 79.890625 40.578125 77.09375 44.375 
Q 74.3125 48.1875 68.609375 48.1875 
Q 61.625 48.1875 57.5625 43.546875 
Q 53.515625 38.921875 53.515625 30.90625 
L 53.515625 0 
L 44.484375 0 
L 44.484375 32.71875 
Q 44.484375 40.625 41.703125 44.40625 
Q 38.921875 48.1875 33.109375 48.1875 
Q 26.21875 48.1875 22.15625 43.53125 
Q 18.109375 38.875 18.109375 30.90625 
L 18.109375 0 
L 9.078125 0 
L 9.078125 54.6875 
L 18.109375 54.6875 
L 18.109375 46.1875 
Q 21.1875 51.21875 25.484375 53.609375 
Q 29.78125 56 35.6875 56 
Q 41.65625 56 45.828125 52.96875 
Q 50 49.953125 52 44.1875 
z
" id="DejaVuSans-109"/>
       <path d="M 56.203125 29.59375 
L 56.203125 25.203125 
L 14.890625 25.203125 
Q 15.484375 15.921875 20.484375 11.0625 
Q 25.484375 6.203125 34.421875 6.203125 
Q 39.59375 6.203125 44.453125 7.46875 
Q 49.3125 8.734375 54.109375 11.28125 
L 54.109375 2.78125 
Q 49.265625 0.734375 44.1875 -0.34375 
Q 39.109375 -1.421875 33.890625 -1.421875 
Q 20.796875 -1.421875 13.15625 6.1875 
Q 5.515625 13.8125 5.515625 26.8125 
Q 5.515625 40.234375 12.765625 48.109375 
Q 20.015625 56 32.328125 56 
Q 43.359375 56 49.78125 48.890625 
Q 56.203125 41.796875 56.203125 29.59375 
z
M 47.21875 32.234375 
Q 47.125 39.59375 43.09375 43.984375 
Q 39.0625 48.390625 32.421875 48.390625 
Q 24.90625 48.390625 20.390625 44.140625 
Q 15.875 39.890625 15.1875 32.171875 
z
" id="DejaVuSans-101"/>
       <path id="DejaVuSans-32"/>
       <path d="M 8.59375 75.984375 
L 29.296875 75.984375 
L 29.296875 69 
L 17.578125 69 
L 17.578125 -6.203125 
L 29.296875 -6.203125 
L 29.296875 -13.1875 
L 8.59375 -13.1875 
z
" id="DejaVuSans-91"/>
       <path d="M 44.28125 53.078125 
L 44.28125 44.578125 
Q 40.484375 46.53125 36.375 47.5 
Q 32.28125 48.484375 27.875 48.484375 
Q 21.1875 48.484375 17.84375 46.4375 
Q 14.5 44.390625 14.5 40.28125 
Q 14.5 37.15625 16.890625 35.375 
Q 19.28125 33.59375 26.515625 31.984375 
L 29.59375 31.296875 
Q 39.15625 29.25 43.1875 25.515625 
Q 47.21875 21.78125 47.21875 15.09375 
Q 47.21875 7.46875 41.1875 3.015625 
Q 35.15625 -1.421875 24.609375 -1.421875 
Q 20.21875 -1.421875 15.453125 -0.5625 
Q 10.6875 0.296875 5.421875 2 
L 5.421875 11.28125 
Q 10.40625 8.6875 15.234375 7.390625 
Q 20.0625 6.109375 24.8125 6.109375 
Q 31.15625 6.109375 34.5625 8.28125 
Q 37.984375 10.453125 37.984375 14.40625 
Q 37.984375 18.0625 35.515625 20.015625 
Q 33.0625 21.96875 24.703125 23.78125 
L 21.578125 24.515625 
Q 13.234375 26.265625 9.515625 29.90625 
Q 5.8125 33.546875 5.8125 39.890625 
Q 5.8125 47.609375 11.28125 51.796875 
Q 16.75 56 26.8125 56 
Q 31.78125 56 36.171875 55.265625 
Q 40.578125 54.546875 44.28125 53.078125 
z
" id="DejaVuSans-115"/>
       <path d="M 30.421875 75.984375 
L 30.421875 -13.1875 
L 9.71875 -13.1875 
L 9.71875 -6.203125 
L 21.390625 -6.203125 
L 21.390625 69 
L 9.71875 69 
L 9.71875 75.984375 
z
" id="DejaVuSans-93"/>
      </defs>
      <use xlink:href="#DejaVuSans-116"/>
      <use x="39.208984" xlink:href="#DejaVuSans-105"/>
      <use x="66.992188" xlink:href="#DejaVuSans-109"/>
      <use x="164.404297" xlink:href="#DejaVuSans-101"/>
      <use x="225.927734" xlink:href="#DejaVuSans-32"/>
      <use x="257.714844" xlink:href="#DejaVuSans-91"/>
      <use x="296.728516" xlink:href="#DejaVuSans-109"/>
      <use x="394.140625" xlink:href="#DejaVuSans-115"/>
      <use x="446.240234" xlink:href="#DejaVuSans-93"/>
     </g>
    </g>
   </g>
   <g id="matplotlib.axis_2">
    <g id="ytick_1">
     <g id="line2d_6">
      <defs>
       <path d="M 0 0 
L -3.5 0 
" id="m97018b4713" style="stroke:#000000;stroke-width:0.8;"/>
      </defs>
      <g>
       <use style="stroke:#000000;stroke-width:0.8;" x="63" xlink:href="#m97018b4713" y="368.373119"/>
      </g>
     </g>
     <g id="text_7">
      <!-- −250 -->
      <g transform="translate(28.532812 372.172338)scale(0.1 -0.1)">
       <defs>
        <path d="M 10.59375 35.5 
L 73.1875 35.5 
L 73.1875 27.203125 
L 10.59375 27.203125 
z
" id="DejaVuSans-8722"/>
       </defs>
       <use xlink:href="#DejaVuSans-8722"/>
       <use x="83.789062" xlink:href="#DejaVuSans-50"/>
       <use x="147.412109" xlink:href="#DejaVuSans-53"/>
       <use x="211.035156" xlink:href="#DejaVuSans-48"/>
      </g>
     </g>
    </g>
    <g id="ytick_2">
     <g id="line2d_7">
      <g>
       <use style="stroke:#000000;stroke-width:0.8;" x="63" xlink:href="#m97018b4713" y="319.029069"/>
      </g>
     </g>
     <g id="text_8">
      <!-- −200 -->
      <g transform="translate(28.532812 322.828288)scale(0.1 -0.1)">
       <use xlink:href="#DejaVuSans-8722"/>
       <use x="83.789062" xlink:href="#DejaVuSans-50"/>
       <use x="147.412109" xlink:href="#DejaVuSans-48"/>
       <use x="211.035156" xlink:href="#DejaVuSans-48"/>
      </g>
     </g>
    </g>
    <g id="ytick_3">
     <g id="line2d_8">
      <g>
       <use style="stroke:#000000;stroke-width:0.8;" x="63" xlink:href="#m97018b4713" y="269.685019"/>
      </g>
     </g>
     <g id="text_9">
      <!-- −150 -->
      <g transform="translate(28.532812 273.484237)scale(0.1 -0.1)">
       <use xlink:href="#DejaVuSans-8722"/>
       <use x="83.789062" xlink:href="#DejaVuSans-49"/>
       <use x="147.412109" xlink:href="#DejaVuSans-53"/>
       <use x="211.035156" xlink:href="#DejaVuSans-48"/>
      </g>
     </g>
    </g>
    <g id="ytick_4">
     <g id="line2d_9">
      <g>
       <use style="stroke:#000000;stroke-width:0.8;" x="63" xlink:href="#m97018b4713" y="220.340968"/>
      </g>
     </g>
     <g id="text_10">
      <!-- −100 -->
      <g transform="translate(28.532812 224.140187)scale(0.1 -0.1)">
       <use xlink:href="#DejaVuSans-8722"/>
       <use x="83.789062" xlink:href="#DejaVuSans-49"/>
       <use x="147.412109" xlink:href="#DejaVuSans-48"/>
       <use x="211.035156" xlink:href="#DejaVuSans-48"/>
      </g>
     </g>
    </g>
    <g id="ytick_5">
     <g id="line2d_10">
      <g>
       <use style="stroke:#000000;stroke-width:0.8;" x="63" xlink:href="#m97018b4713" y="170.996918"/>
      </g>
     </g>
     <g id="text_11">
      <!-- −50 -->
      <g transform="translate(34.895313 174.796137)scale(0.1 -0.1)">
       <use xlink:href="#DejaVuSans-8722"/>
       <use x="83.789062" xlink:href="#DejaVuSans-53"/>
       <use x="147.412109" xlink:href="#DejaVuSans-48"/>
      </g>
     </g>
    </g>
    <g id="ytick_6">
     <g id="line2d_11">
      <g>
       <use style="stroke:#000000;stroke-width:0.8;" x="63" xlink:href="#m97018b4713" y="121.652868"/>
      </g>
     </g>
     <g id="text_12">
      <!-- 0 -->
      <g transform="translate(49.6375 125.452087)scale(0.1 -0.1)">
       <use xlink:href="#DejaVuSans-48"/>
      </g>
     </g>
    </g>
    <g id="ytick_7">
     <g id="line2d_12">
      <g>
       <use style="stroke:#000000;stroke-width:0.8;" x="63" xlink:href="#m97018b4713" y="72.308818"/>
      </g>
     </g>
     <g id="text_13">
      <!-- 50 -->
      <g transform="translate(43.275 76.108037)scale(0.1 -0.1)">
       <use xlink:href="#DejaVuSans-53"/>
       <use x="63.623047" xlink:href="#DejaVuSans-48"/>
      </g>
     </g>
    </g>
    <g id="text_14">
     <!-- voltage [mV] -->
     <g transform="translate(22.453125 250.624062)rotate(-90)scale(0.1 -0.1)">
      <defs>
       <path d="M 2.984375 54.6875 
L 12.5 54.6875 
L 29.59375 8.796875 
L 46.6875 54.6875 
L 56.203125 54.6875 
L 35.6875 0 
L 23.484375 0 
z
" id="DejaVuSans-118"/>
       <path d="M 30.609375 48.390625 
Q 23.390625 48.390625 19.1875 42.75 
Q 14.984375 37.109375 14.984375 27.296875 
Q 14.984375 17.484375 19.15625 11.84375 
Q 23.34375 6.203125 30.609375 6.203125 
Q 37.796875 6.203125 41.984375 11.859375 
Q 46.1875 17.53125 46.1875 27.296875 
Q 46.1875 37.015625 41.984375 42.703125 
Q 37.796875 48.390625 30.609375 48.390625 
z
M 30.609375 56 
Q 42.328125 56 49.015625 48.375 
Q 55.71875 40.765625 55.71875 27.296875 
Q 55.71875 13.875 49.015625 6.21875 
Q 42.328125 -1.421875 30.609375 -1.421875 
Q 18.84375 -1.421875 12.171875 6.21875 
Q 5.515625 13.875 5.515625 27.296875 
Q 5.515625 40.765625 12.171875 48.375 
Q 18.84375 56 30.609375 56 
z
" id="DejaVuSans-111"/>
       <path d="M 9.421875 75.984375 
L 18.40625 75.984375 
L 18.40625 0 
L 9.421875 0 
z
" id="DejaVuSans-108"/>
       <path d="M 34.28125 27.484375 
Q 23.390625 27.484375 19.1875 25 
Q 14.984375 22.515625 14.984375 16.5 
Q 14.984375 11.71875 18.140625 8.90625 
Q 21.296875 6.109375 26.703125 6.109375 
Q 34.1875 6.109375 38.703125 11.40625 
Q 43.21875 16.703125 43.21875 25.484375 
L 43.21875 27.484375 
z
M 52.203125 31.203125 
L 52.203125 0 
L 43.21875 0 
L 43.21875 8.296875 
Q 40.140625 3.328125 35.546875 0.953125 
Q 30.953125 -1.421875 24.3125 -1.421875 
Q 15.921875 -1.421875 10.953125 3.296875 
Q 6 8.015625 6 15.921875 
Q 6 25.140625 12.171875 29.828125 
Q 18.359375 34.515625 30.609375 34.515625 
L 43.21875 34.515625 
L 43.21875 35.40625 
Q 43.21875 41.609375 39.140625 45 
Q 35.0625 48.390625 27.6875 48.390625 
Q 23 48.390625 18.546875 47.265625 
Q 14.109375 46.140625 10.015625 43.890625 
L 10.015625 52.203125 
Q 14.9375 54.109375 19.578125 55.046875 
Q 24.21875 56 28.609375 56 
Q 40.484375 56 46.34375 49.84375 
Q 52.203125 43.703125 52.203125 31.203125 
z
" id="DejaVuSans-97"/>
       <path d="M 45.40625 27.984375 
Q 45.40625 37.75 41.375 43.109375 
Q 37.359375 48.484375 30.078125 48.484375 
Q 22.859375 48.484375 18.828125 43.109375 
Q 14.796875 37.75 14.796875 27.984375 
Q 14.796875 18.265625 18.828125 12.890625 
Q 22.859375 7.515625 30.078125 7.515625 
Q 37.359375 7.515625 41.375 12.890625 
Q 45.40625 18.265625 45.40625 27.984375 
z
M 54.390625 6.78125 
Q 54.390625 -7.171875 48.1875 -13.984375 
Q 42 -20.796875 29.203125 -20.796875 
Q 24.46875 -20.796875 20.265625 -20.09375 
Q 16.0625 -19.390625 12.109375 -17.921875 
L 12.109375 -9.1875 
Q 16.0625 -11.328125 19.921875 -12.34375 
Q 23.78125 -13.375 27.78125 -13.375 
Q 36.625 -13.375 41.015625 -8.765625 
Q 45.40625 -4.15625 45.40625 5.171875 
L 45.40625 9.625 
Q 42.625 4.78125 38.28125 2.390625 
Q 33.9375 0 27.875 0 
Q 17.828125 0 11.671875 7.65625 
Q 5.515625 15.328125 5.515625 27.984375 
Q 5.515625 40.671875 11.671875 48.328125 
Q 17.828125 56 27.875 56 
Q 33.9375 56 38.28125 53.609375 
Q 42.625 51.21875 45.40625 46.390625 
L 45.40625 54.6875 
L 54.390625 54.6875 
z
" id="DejaVuSans-103"/>
       <path d="M 28.609375 0 
L 0.78125 72.90625 
L 11.078125 72.90625 
L 34.1875 11.53125 
L 57.328125 72.90625 
L 67.578125 72.90625 
L 39.796875 0 
z
" id="DejaVuSans-86"/>
      </defs>
      <use xlink:href="#DejaVuSans-118"/>
      <use x="59.179688" xlink:href="#DejaVuSans-111"/>
      <use x="120.361328" xlink:href="#DejaVuSans-108"/>
      <use x="148.144531" xlink:href="#DejaVuSans-116"/>
      <use x="187.353516" xlink:href="#DejaVuSans-97"/>
      <use x="248.632812" xlink:href="#DejaVuSans-103"/>
      <use x="312.109375" xlink:href="#DejaVuSans-101"/>
      <use x="373.632812" xlink:href="#DejaVuSans-32"/>
      <use x="405.419922" xlink:href="#DejaVuSans-91"/>
      <use x="444.433594" xlink:href="#DejaVuSans-109"/>
      <use x="541.845703" xlink:href="#DejaVuSans-86"/>
      <use x="610.253906" xlink:href="#DejaVuSans-93"/>
     </g>
    </g>
   </g>
   <g id="line2d_13">
    <path clip-path="url(#pb713114075)" d="M 80.754545 179.381552 
L 83.966066 179.285177 
L 84.062896 179.236989 
L 84.079034 179.285177 
L 86.822544 179.381552 
L 86.838683 179.429739 
L 86.935513 179.381552 
L 87.064619 179.333364 
L 87.193725 179.381552 
L 87.855395 179.477927 
L 87.871534 179.526114 
L 87.936087 179.429739 
L 87.968363 179.477927 
L 88.85597 179.526114 
L 89.049629 174.032734 
L 89.501501 168.876666 
L 90.356831 162.178597 
L 91.196022 157.79353 
L 91.470373 156.637029 
L 91.777001 155.43234 
L 92.551639 153.45665 
L 92.616192 153.360275 
L 92.858267 152.974775 
L 92.955097 152.8784 
L 93.197171 152.492899 
L 93.374692 152.396524 
L 93.568352 152.155587 
L 93.665182 152.059212 
L 93.826565 151.914649 
L 93.923394 151.818274 
L 94.052501 151.770086 
L 94.24616 151.673711 
L 94.407543 151.529148 
L 95.908405 151.432773 
L 96.069788 151.288211 
L 96.553936 151.191836 
L 96.683043 151.143648 
L 96.892841 151.432773 
L 96.973532 151.529148 
L 97.167192 151.770086 
L 97.845 151.673711 
L 97.990245 151.577336 
L 98.006383 151.625524 
L 98.03866 151.529148 
L 98.103213 151.577336 
L 99.297447 151.480961 
L 99.394276 151.432773 
L 99.410415 151.480961 
L 100.136638 151.577336 
L 100.636925 152.733837 
L 101.024244 152.637462 
L 101.169489 152.541087 
L 101.330872 152.444712 
L 101.476116 152.348337 
L 101.653638 152.251962 
L 101.766606 152.155587 
L 101.782744 152.203774 
L 102.10551 152.107399 
L 102.283031 151.914649 
L 102.476691 151.818274 
L 102.589659 151.721899 
L 102.605797 151.770086 
L 103.009255 151.673711 
L 103.057669 151.577336 
L 103.122223 151.673711 
L 104.042105 151.577336 
L 104.18735 151.480961 
L 104.316456 151.529148 
L 104.413286 151.432773 
L 104.526254 151.288211 
L 104.558531 151.336398 
L 104.897435 151.240023 
L 105.026541 151.191836 
L 107.092243 151.288211 
L 107.205211 151.336398 
L 107.302041 151.288211 
L 107.318179 151.336398 
L 107.705498 151.240023 
L 107.737775 151.191836 
L 107.78619 151.288211 
L 107.802328 151.288211 
L 108.463998 151.191836 
L 108.625381 151.047273 
L 108.64152 151.095461 
L 108.738349 151.047273 
L 109.690509 150.950898 
L 109.819615 150.854523 
L 109.916445 150.90271 
L 109.932583 150.854523 
L 110.5297 150.950898 
L 110.658806 150.999085 
L 111.514136 151.095461 
L 111.643242 151.143648 
L 112.498572 151.240023 
L 112.546987 151.288211 
L 112.579264 151.191836 
L 112.61154 151.240023 
L 112.659955 151.191836 
L 112.724508 151.240023 
L 113.17638 151.336398 
L 113.337763 151.480961 
L 113.531423 151.577336 
L 113.644391 151.673711 
L 113.660529 151.625524 
L 114.483582 151.529148 
L 114.580412 151.432773 
L 114.612689 151.480961 
L 115.064561 151.384586 
L 115.193667 151.336398 
L 115.758508 151.240023 
L 115.903752 151.143648 
L 116.21038 151.047273 
L 116.339486 150.999085 
L 116.533146 150.90271 
L 116.678391 150.806335 
L 117.259369 150.90271 
L 117.501444 151.288211 
L 117.582135 151.384586 
L 117.759656 151.577336 
L 118.066284 151.673711 
L 118.19539 151.721899 
L 118.647263 151.625524 
L 118.776369 151.577336 
L 119.518731 151.480961 
L 119.663975 151.384586 
L 120.051294 151.288211 
L 120.228815 151.095461 
L 120.632273 150.999085 
L 120.696826 150.90271 
L 120.745241 150.999085 
L 121.245528 151.095461 
L 121.374634 151.143648 
L 121.600571 151.047273 
L 121.745815 150.950898 
L 121.907198 150.854523 
L 122.052443 150.758148 
L 123.2144 150.854523 
L 123.343506 150.90271 
L 123.666272 150.999085 
L 123.682411 151.047273 
L 123.730826 150.950898 
L 123.763102 150.950898 
L 124.360219 150.854523 
L 124.489325 150.806335 
L 124.779815 150.90271 
L 124.925059 150.999085 
L 125.005751 150.950898 
L 125.038027 150.999085 
L 125.344655 151.047273 
L 125.360793 151.143648 
L 125.441485 151.047273 
L 126.038602 150.950898 
L 126.167708 150.90271 
L 127.136006 150.806335 
L 127.152144 150.758148 
L 127.232836 150.806335 
L 127.248974 150.854523 
L 127.297389 150.758148 
L 127.329665 150.758148 
L 127.426495 150.854523 
L 127.442633 150.90271 
L 127.47491 150.806335 
L 127.539463 150.854523 
L 128.023612 150.758148 
L 128.168857 150.661773 
L 128.201133 150.70996 
L 128.23341 150.613585 
L 128.265686 150.613585 
L 129.056463 150.51721 
L 129.137154 150.420835 
L 129.185569 150.469022 
L 129.976346 150.372647 
L 130.153867 150.179897 
L 130.525048 150.083522 
L 130.541186 150.035334 
L 130.589601 150.13171 
L 130.621878 150.083522 
L 130.670292 150.13171 
L 130.734846 150.083522 
L 131.202856 149.987147 
L 131.331963 149.938959 
L 133.268558 150.035334 
L 133.397664 150.083522 
L 133.446079 150.179897 
L 133.639739 150.420835 
L 133.72043 150.372647 
L 133.752707 150.420835 
L 133.881813 150.51721 
L 134.107749 150.854523 
L 134.462792 150.950898 
L 134.559622 150.999085 
L 134.57576 150.950898 
L 135.301983 150.854523 
L 135.414951 150.70996 
L 135.447228 150.758148 
L 136.044345 150.661773 
L 136.060483 150.613585 
L 136.157313 150.661773 
L 136.915813 150.565398 
L 137.077196 150.420835 
L 137.093334 150.469022 
L 137.174025 150.372647 
L 137.206302 150.32446 
L 137.238579 150.420835 
L 137.270855 150.420835 
L 137.399962 150.32446 
L 137.432238 150.276272 
L 137.464515 150.372647 
L 137.496791 150.372647 
L 137.771142 150.276272 
L 137.835696 150.228085 
L 137.88411 150.276272 
L 138.190738 150.179897 
L 138.319844 150.13171 
L 140.595344 150.035334 
L 140.72445 149.987147 
L 140.901972 149.890772 
L 141.063355 149.746209 
L 141.289291 150.083522 
L 141.402259 150.179897 
L 141.547503 150.276272 
L 142.128482 150.179897 
L 142.273727 150.083522 
L 142.386695 150.13171 
L 142.515801 150.083522 
L 142.854705 149.987147 
L 142.99995 149.890772 
L 144.339429 149.987147 
L 144.468535 150.179897 
L 144.484673 150.13171 
L 144.581503 150.083522 
L 144.597641 150.13171 
L 144.759024 150.228085 
L 144.888131 150.276272 
L 144.936545 150.228085 
L 145.001099 150.276272 
L 145.452971 150.179897 
L 145.598216 150.083522 
L 146.308301 149.987147 
L 146.388992 149.890772 
L 146.437407 149.938959 
L 150.504257 150.035334 
L 150.601087 150.228085 
L 150.66564 150.179897 
L 150.810885 150.083522 
L 152.424714 149.987147 
L 152.586097 149.842584 
L 153.40915 149.794397 
L 153.60281 155.287777 
L 154.054682 160.395658 
L 154.425863 163.527848 
L 154.861597 166.515476 
L 154.990703 167.238289 
L 155.265054 168.732103 
L 155.765342 171.093293 
L 155.991278 172.105232 
L 156.314044 173.406296 
L 156.927299 175.574735 
L 157.137097 176.201174 
L 158.460437 179.81524 
L 158.52499 179.911615 
L 158.896171 180.682616 
L 158.944586 180.730803 
L 159.08983 181.019928 
L 159.170522 181.116304 
L 159.428735 181.549992 
L 159.477149 181.646367 
L 159.735362 182.080055 
L 159.864468 182.17643 
L 160.090405 182.513743 
L 160.154958 182.610118 
L 160.364756 182.899243 
L 160.51 182.995618 
L 160.719798 183.284743 
L 160.784351 183.381118 
L 160.945734 183.525681 
L 161.090979 183.622056 
L 161.236224 183.718431 
L 161.429883 183.814806 
L 161.575128 183.911181 
L 161.688096 184.007557 
L 161.784926 184.055744 
L 161.801064 184.007557 
L 161.897894 184.103932 
L 162.043138 184.200307 
L 162.172245 184.296682 
L 162.317489 184.441244 
L 162.414319 184.393057 
L 162.430457 184.441244 
L 162.704808 184.53762 
L 162.7855 184.585807 
L 162.817777 184.53762 
L 163.172819 184.633995 
L 163.301925 184.682182 
L 163.527861 184.778557 
L 163.656968 184.826745 
L 166.303648 184.73037 
L 166.448893 184.633995 
L 166.900765 184.53762 
L 167.029872 184.489432 
L 167.352637 184.393057 
L 167.497882 184.296682 
L 167.836786 184.200307 
L 167.965893 184.152119 
L 168.127276 184.055744 
L 168.256382 184.007557 
L 168.611424 183.911181 
L 168.740531 183.862994 
L 169.12785 183.766619 
L 169.273095 183.670244 
L 169.499031 183.573869 
L 169.611999 179.81524 
L 170.951477 179.911615 
L 170.967616 179.959802 
L 171.064445 179.911615 
L 172.645998 179.81524 
L 172.775105 179.767052 
L 173.452913 179.670677 
L 173.469051 179.62249 
L 173.565881 179.670677 
L 175.018328 179.767052 
L 175.147434 179.863427 
L 175.27654 179.81524 
L 175.615445 179.911615 
L 175.712274 179.959802 
L 175.728413 179.911615 
L 176.164147 180.00799 
L 176.277115 180.056178 
L 176.406221 180.00799 
L 176.825817 179.911615 
L 176.971061 179.81524 
L 177.019476 179.911615 
L 177.100168 179.863427 
L 177.616593 179.863427 
L 177.810253 172.683483 
L 178.391231 164.250661 
L 179.149731 156.492466 
L 179.82754 151.384586 
L 180.39238 148.637896 
L 180.924944 147.385019 
L 181.021773 147.288644 
L 181.215433 147.047706 
L 181.231571 147.095894 
L 181.312263 147.047706 
L 181.522061 146.758581 
L 181.570476 146.662206 
L 181.747997 146.469456 
L 182.135316 146.373081 
L 182.248284 146.324893 
L 182.296699 146.373081 
L 182.345114 146.276706 
L 182.490358 146.180331 
L 182.651741 146.035768 
L 182.764709 145.939393 
L 182.909954 145.79483 
L 182.974507 145.891205 
L 183.03906 145.843018 
L 183.119752 145.746643 
L 183.264997 145.650268 
L 183.377965 145.553892 
L 183.587762 145.264767 
L 183.636177 145.168392 
L 183.829837 144.927454 
L 183.910528 144.831079 
L 184.184879 144.349204 
L 184.233294 144.397391 
L 184.297847 144.349204 
L 184.539922 143.963703 
L 184.830411 143.867328 
L 184.927241 143.62639 
L 184.991794 143.722766 
L 185.088624 143.62639 
L 185.250007 143.337265 
L 185.282283 143.385453 
L 185.362975 143.289078 
L 185.669602 142.710827 
L 185.734156 142.614452 
L 186.411964 140.253262 
L 186.428102 139.964137 
L 186.444241 136.976509 
L 186.492656 71.48963 
L 186.573347 105.750977 
L 186.73473 144.686517 
L 186.944528 145.939393 
L 188.05807 152.011024 
L 188.106485 152.107399 
L 188.429251 152.733837 
L 188.526081 152.830212 
L 188.752017 153.167525 
L 188.864985 153.2639 
L 188.961815 153.360275 
L 188.994091 153.312088 
L 189.284581 153.408463 
L 189.300719 153.45665 
L 189.397549 153.408463 
L 189.768729 153.312088 
L 189.897836 153.2639 
L 190.204463 153.167525 
L 190.365846 153.022963 
L 190.559506 152.926587 
L 190.704751 152.830212 
L 191.059793 152.733837 
L 191.221176 152.589275 
L 191.46325 152.492899 
L 191.640772 152.300149 
L 192.302442 152.203774 
L 192.479963 152.011024 
L 192.609069 151.914649 
L 192.625208 151.866461 
L 192.722037 151.914649 
L 193.238463 151.818274 
L 193.383708 151.721899 
L 193.593505 151.625524 
L 193.658059 151.577336 
L 193.706473 151.625524 
L 193.916271 151.529148 
L 194.077654 151.384586 
L 194.545665 151.288211 
L 194.69091 151.191836 
L 194.852292 151.095461 
L 195.029814 150.90271 
L 195.271888 150.806335 
L 195.35258 150.70996 
L 195.400994 150.758148 
L 195.578516 150.661773 
L 195.691484 150.613585 
L 195.707622 150.661773 
L 195.739899 150.565398 
L 195.804452 150.613585 
L 196.046526 150.51721 
L 196.240186 150.276272 
L 197.14393 150.179897 
L 197.160069 150.13171 
L 197.224622 150.228085 
L 197.24076 150.228085 
L 197.43442 150.32446 
L 197.579664 150.565398 
L 197.611941 150.51721 
L 197.692632 150.613585 
L 197.821739 150.758148 
L 197.837877 150.70996 
L 197.966983 150.806335 
L 198.112228 150.90271 
L 198.644792 150.806335 
L 198.822313 150.613585 
L 199.064388 150.51721 
L 199.209632 150.372647 
L 199.241909 150.420835 
L 199.306462 150.32446 
L 199.500121 150.083522 
L 199.629228 150.13171 
L 199.855164 150.035334 
L 200.016547 149.890772 
L 200.532972 149.794397 
L 200.662079 149.649834 
L 200.678217 149.698022 
L 200.871877 149.601647 
L 201.03326 149.457084 
L 201.178504 149.360709 
L 201.323749 149.264334 
L 201.646515 149.167959 
L 201.807898 149.023396 
L 202.437291 148.927021 
L 202.614812 148.686083 
L 202.630951 148.734271 
L 202.695504 148.637896 
L 202.711642 148.637896 
L 203.034408 148.54152 
L 203.179653 148.445145 
L 203.728355 148.54152 
L 203.792908 148.637896 
L 203.857461 148.589708 
L 204.809621 148.493333 
L 204.954865 148.396958 
L 205.180801 148.493333 
L 205.342184 148.637896 
L 206.132961 148.734271 
L 206.262067 148.782458 
L 206.471865 148.878833 
L 206.61711 148.975208 
L 206.794631 149.071584 
L 206.923737 149.119771 
L 208.101833 149.023396 
L 208.295492 148.782458 
L 208.311631 148.830646 
L 208.360046 148.734271 
L 208.392322 148.734271 
L 208.537567 148.637896 
L 208.989439 148.54152 
L 209.118545 148.493333 
L 209.312205 148.396958 
L 209.45745 148.300583 
L 209.489726 148.34877 
L 209.554279 148.252395 
L 209.699524 148.15602 
L 209.860907 148.011457 
L 210.619407 148.107833 
L 210.748513 148.15602 
L 211.055141 148.059645 
L 211.232662 147.866895 
L 211.297215 147.915082 
L 211.329492 147.866895 
L 211.474737 147.77052 
L 211.813641 147.674145 
L 211.958885 147.577769 
L 212.29779 147.674145 
L 212.378481 147.722332 
L 212.410758 147.674145 
L 212.475311 147.577769 
L 212.523726 147.674145 
L 212.830353 147.77052 
L 212.95946 147.818707 
L 213.088566 147.77052 
L 213.847066 147.674145 
L 214.040725 147.433207 
L 214.460321 147.336832 
L 214.605566 147.240457 
L 215.202683 147.144082 
L 215.331789 147.095894 
L 215.460895 147.144082 
L 216.025736 147.047706 
L 216.235534 146.758581 
L 216.542161 146.662206 
L 216.687406 146.565831 
L 218.204406 146.614019 
L 218.34965 146.854956 
L 219.527746 146.951331 
L 219.656852 146.999519 
L 219.931203 147.095894 
L 220.157139 147.433207 
L 220.334661 147.529582 
L 220.350799 147.577769 
L 220.447629 147.529582 
L 221.125437 147.433207 
L 221.254543 147.385019 
L 221.367511 147.288644 
L 221.496618 147.240457 
L 221.835522 147.144082 
L 222.029182 146.903144 
L 222.126011 146.806769 
L 222.271256 146.710394 
L 222.400362 146.758581 
L 222.787681 146.662206 
L 222.932926 146.517643 
L 222.965203 146.565831 
L 223.029756 146.469456 
L 223.223415 146.373081 
L 223.417075 146.132143 
L 223.659149 146.035768 
L 223.885086 145.698455 
L 224.191713 145.79483 
L 224.288543 145.843018 
L 224.304681 145.79483 
L 224.692 145.891205 
L 224.853383 146.035768 
L 226.031479 145.939393 
L 226.321968 145.40933 
L 226.757702 145.312955 
L 226.87067 145.264767 
L 226.886808 145.312955 
L 226.9675 145.21658 
L 226.983638 145.264767 
L 227.43551 145.168392 
L 227.596893 145.023829 
L 228.549053 144.927454 
L 228.710436 144.782892 
L 228.839542 144.686517 
L 228.871819 144.638329 
L 228.936372 144.734704 
L 229.097755 144.638329 
L 229.259138 144.493766 
L 229.339829 144.397391 
L 229.501212 144.252829 
L 229.630319 144.349204 
L 229.646457 144.397391 
L 229.71101 144.301016 
L 229.727148 144.301016 
L 230.937521 144.204641 
L 231.260286 143.578203 
L 231.405531 143.481828 
L 231.921957 142.277139 
L 232.018786 142.180764 
L 232.131754 141.506138 
L 232.164031 141.07245 
L 232.180169 139.289511 
L 232.244722 70.959567 
L 232.309276 102.956099 
L 232.470659 144.156454 
L 232.535212 144.541954 
L 232.599765 144.445579 
L 232.74501 144.301016 
L 233.051637 145.553892 
L 233.551924 147.96327 
L 233.584201 148.011457 
L 233.826275 148.830646 
L 234.520222 150.565398 
L 234.649328 150.661773 
L 234.891403 151.047273 
L 235.020509 151.143648 
L 235.181892 151.336398 
L 235.19803 151.288211 
L 235.230307 151.384586 
L 235.278722 151.384586 
L 235.407828 151.480961 
L 235.569211 151.625524 
L 235.827424 151.721899 
L 235.972669 151.818274 
L 236.166328 151.914649 
L 236.311573 152.011024 
L 236.408403 152.107399 
L 236.553647 152.203774 
L 236.957105 152.107399 
L 237.005519 152.059212 
L 237.053934 152.107399 
L 237.070073 152.155587 
L 237.134626 152.059212 
L 237.166902 152.107399 
L 237.392839 152.011024 
L 237.538083 151.914649 
L 237.57036 151.962836 
L 237.634913 151.914649 
L 237.812434 151.721899 
L 237.957679 151.625524 
L 238.086785 151.577336 
L 238.248168 151.480961 
L 238.393413 151.384586 
L 238.667764 151.288211 
L 238.79687 151.240023 
L 239.006668 151.143648 
L 239.168051 150.999085 
L 239.329434 150.90271 
L 239.490817 150.758148 
L 239.974966 150.661773 
L 240.104072 150.613585 
L 240.572083 150.51721 
L 240.701189 150.469022 
L 240.991678 150.372647 
L 241.120785 150.32446 
L 241.556519 150.228085 
L 241.701763 150.13171 
L 241.863146 150.035334 
L 242.008391 149.938959 
L 242.169774 149.987147 
L 242.363433 157.022529 
L 242.799167 162.853223 
L 243.234901 166.756414 
L 243.654497 169.599479 
L 243.783603 170.322293 
L 244.396859 173.358108 
L 244.638933 174.418234 
L 244.961699 175.719298 
L 246.494837 179.959802 
L 246.575529 180.056178 
L 246.946709 180.827178 
L 247.011263 180.923553 
L 247.301752 181.453616 
L 247.398582 181.549992 
L 247.640656 181.935492 
L 247.705209 182.031867 
L 247.947284 182.417367 
L 248.044113 182.513743 
L 248.27005 182.851055 
L 248.431432 182.94743 
L 248.64123 183.236556 
L 248.754198 183.332931 
L 248.915581 183.477493 
L 249.044688 183.573869 
L 249.206071 183.718431 
L 249.39973 183.814806 
L 249.528837 183.862994 
L 249.69022 183.959369 
L 249.851602 184.103932 
L 250.012985 184.200307 
L 250.142092 184.248494 
L 250.513273 184.344869 
L 250.610102 184.441244 
L 250.642379 184.393057 
L 251.029698 184.489432 
L 251.158804 184.53762 
L 251.174943 184.489432 
L 251.255634 184.53762 
L 251.271772 184.585807 
L 251.352464 184.489432 
L 251.836613 184.585807 
L 251.852751 184.633995 
L 251.933443 184.585807 
L 252.062549 184.53762 
L 252.853325 184.441244 
L 252.99857 184.344869 
L 253.127676 184.393057 
L 253.724793 184.296682 
L 253.821623 184.248494 
L 253.837761 184.296682 
L 254.273495 184.200307 
L 254.41874 184.103932 
L 254.499431 184.152119 
L 254.531708 184.103932 
L 255.354761 184.007557 
L 255.483867 183.959369 
L 255.855048 183.862994 
L 255.984155 183.814806 
L 256.419889 183.718431 
L 256.565133 183.622056 
L 256.968591 183.525681 
L 257.097697 183.477493 
L 257.242942 183.381118 
L 257.388186 183.284743 
L 258.01758 183.188368 
L 258.146686 183.091993 
L 258.162824 183.140181 
L 258.259654 183.091993 
L 258.372622 180.297115 
L 264.16627 180.39349 
L 264.295377 180.441678 
L 264.327653 180.39349 
L 264.392206 180.441678 
L 264.521313 180.489865 
L 266.377217 180.489865 
L 266.570876 169.695854 
L 267.151855 157.022529 
L 268.265397 142.036201 
L 268.507472 140.446012 
L 268.846376 137.024696 
L 268.910929 70.766816 
L 268.991621 112.979109 
L 269.153004 144.590141 
L 269.18528 144.734704 
L 269.233695 144.541954 
L 269.395078 144.156454 
L 269.653291 144.590141 
L 269.782397 144.686517 
L 269.976057 144.927454 
L 270.13744 145.023829 
L 270.153578 145.072017 
L 270.234269 144.975642 
L 270.250408 145.023829 
L 270.314961 145.120204 
L 270.395652 145.168392 
L 270.427929 145.120204 
L 270.782971 145.21658 
L 270.79911 145.264767 
L 270.879801 145.21658 
L 271.025046 145.120204 
L 271.202567 145.21658 
L 271.218705 145.264767 
L 271.283258 145.168392 
L 271.299397 145.168392 
L 271.380088 145.072017 
L 271.509195 145.023829 
L 271.702854 144.927454 
L 271.912652 144.638329 
L 272.02562 144.541954 
L 272.283833 144.060078 
L 272.299971 144.108266 
L 272.396801 144.060078 
L 272.525907 143.963703 
L 272.816397 143.43364 
L 272.897088 143.337265 
L 273.139162 142.951765 
L 273.365099 143.04814 
L 273.54262 143.24089 
L 273.784694 143.337265 
L 273.865386 143.43364 
L 273.913801 143.385453 
L 274.059045 143.144515 
L 274.220428 142.999952 
L 274.284981 142.903577 
L 274.543194 142.325327 
L 274.575471 142.373514 
L 274.86596 142.325327 
L 274.946651 142.228952 
L 274.96279 142.277139 
L 275.043481 142.325327 
L 275.075758 142.277139 
L 275.204864 142.180764 
L 275.382385 141.988014 
L 275.52763 141.891639 
L 275.753566 141.409763 
L 275.785843 141.457951 
L 275.850396 141.361576 
L 276.076332 141.024263 
L 276.140885 141.120638 
L 276.173162 141.024263 
L 276.544343 140.205074 
L 276.560481 140.253262 
L 276.608896 140.060512 
L 276.705726 139.964137 
L 277.060768 138.566698 
L 277.286704 136.783759 
L 277.351257 69.273002 
L 277.431949 105.799164 
L 277.593332 142.807202 
L 277.754715 143.530015 
L 278.255002 145.361142 
L 278.480938 146.083955 
L 278.868257 146.999519 
L 278.884396 146.951331 
L 278.948949 147.047706 
L 279.110332 147.192269 
L 279.207161 147.288644 
L 279.368544 147.433207 
L 279.772002 147.336832 
L 279.933385 147.192269 
L 280.078629 147.095894 
L 280.288427 146.806769 
L 280.804853 146.710394 
L 280.820991 146.662206 
L 280.885544 146.758581 
L 280.917821 146.710394 
L 281.256725 146.614019 
L 281.385831 146.565831 
L 281.692459 146.469456 
L 281.821565 146.421268 
L 281.902257 146.469456 
L 281.934533 146.421268 
L 282.337991 146.324893 
L 282.515512 146.132143 
L 282.983522 146.035768 
L 283.144905 145.891205 
L 283.548363 145.79483 
L 283.677469 145.746643 
L 283.967959 145.650268 
L 284.177756 145.361142 
L 284.274586 145.264767 
L 284.403692 145.168392 
L 284.435969 145.21658 
L 284.468246 145.120204 
L 284.484384 145.120204 
L 284.726458 144.734704 
L 284.984671 144.638329 
L 285.162192 144.445579 
L 285.226746 144.349204 
L 285.404267 144.156454 
L 285.484958 144.060078 
L 285.662479 143.819141 
L 285.678618 143.867328 
L 285.743171 143.770953 
L 285.759309 143.770953 
L 285.888416 143.674578 
L 286.03366 143.530015 
L 286.082075 143.578203 
L 286.13049 143.530015 
L 286.308011 143.289078 
L 286.453256 143.385453 
L 286.969681 143.289078 
L 287.001958 143.24089 
L 287.082649 143.289078 
L 287.518383 143.192703 
L 287.64749 143.144515 
L 287.792734 143.04814 
L 288.083224 142.518077 
L 288.357575 142.421702 
L 288.486681 142.277139 
L 288.502819 142.325327 
L 288.744894 142.228952 
L 288.954692 141.939826 
L 289.035383 142.036201 
L 289.16449 142.180764 
L 289.180628 142.132576 
L 289.325873 142.228952 
L 289.454979 142.277139 
L 289.600224 142.180764 
L 289.745468 141.891639 
L 289.971404 141.795264 
L 290.342585 140.976075 
L 290.358723 141.024263 
L 290.391 140.927888 
L 290.455553 140.976075 
L 290.568521 140.8797 
L 290.58466 140.927888 
L 290.697628 140.831513 
L 290.859011 140.68695 
L 290.923564 140.590575 
L 291.068808 140.4942 
L 291.214053 140.397825 
L 292.069383 137.651134 
L 292.101659 136.15732 
L 292.166212 69.465753 
L 292.230766 98.860157 
L 292.408287 142.469889 
L 292.553532 142.85539 
L 292.650361 142.951765 
L 293.392723 144.831079 
L 293.441138 144.927454 
L 293.812319 145.698455 
L 293.89301 145.79483 
L 294.118946 146.132143 
L 294.312606 146.228518 
L 294.441712 146.276706 
L 294.732201 146.373081 
L 294.893584 146.517643 
L 294.909723 146.469456 
L 295.006552 146.517643 
L 295.635946 146.421268 
L 295.829605 146.180331 
L 295.990988 146.083955 
L 296.152371 145.939393 
L 296.265339 145.843018 
L 296.442861 145.650268 
L 296.717212 145.746643 
L 296.894733 145.939393 
L 297.346605 145.843018 
L 297.524126 145.650268 
L 297.750063 145.553892 
L 297.95986 145.264767 
L 298.088967 145.168392 
L 298.25035 145.023829 
L 298.34718 144.927454 
L 298.556977 144.638329 
L 298.71836 144.541954 
L 298.992711 144.060078 
L 299.121818 143.963703 
L 299.347754 143.578203 
L 299.47686 143.62639 
L 299.605967 143.578203 
L 300.057839 143.481828 
L 300.170807 143.337265 
L 300.186945 143.385453 
L 300.219222 143.43364 
L 300.267637 143.337265 
L 300.283775 143.337265 
L 300.606541 143.24089 
L 300.703371 143.192703 
L 300.719509 143.24089 
L 300.961583 143.144515 
L 301.139105 142.903577 
L 301.155243 142.951765 
L 301.203658 142.85539 
L 301.235934 142.85539 
L 301.510285 142.759015 
L 301.639392 142.662639 
L 301.703945 142.759015 
L 301.768498 142.710827 
L 302.075126 142.807202 
L 302.236509 142.951765 
L 302.607689 142.85539 
L 302.672243 142.759015 
L 302.720658 142.85539 
L 302.849764 142.759015 
L 303.043423 142.518077 
L 303.156391 142.421702 
L 303.366189 142.132576 
L 303.495296 142.036201 
L 303.656679 141.891639 
L 303.850338 141.795264 
L 304.043998 141.554326 
L 304.205381 141.457951 
L 304.366764 141.313388 
L 304.576561 141.217013 
L 304.608838 141.120638 
L 304.705668 141.168825 
L 304.737944 141.07245 
L 304.818636 140.976075 
L 304.867051 141.024263 
L 304.915466 140.927888 
L 305.141402 140.4942 
L 305.15754 140.542387 
L 305.205955 140.446012 
L 305.399615 140.205074 
L 305.496444 140.108699 
L 305.91604 139.193136 
L 305.964455 139.096761 
L 306.351774 136.205508 
L 306.416327 69.70669 
L 306.497019 105.943727 
L 306.658402 142.228952 
L 306.739093 142.614452 
L 306.787508 142.518077 
L 306.965029 142.325327 
L 307.223242 142.421702 
L 307.836497 143.915516 
L 307.884912 144.011891 
L 308.062433 144.204641 
L 308.110848 144.252829 
L 308.304508 144.782892 
L 308.482029 144.975642 
L 309.466465 145.072017 
L 309.579433 145.120204 
L 309.740816 144.975642 
L 310.241103 145.072017 
L 310.354071 145.120204 
L 310.515454 144.975642 
L 310.967326 144.879267 
L 311.112571 144.782892 
L 311.193262 144.686517 
L 311.435337 144.301016 
L 311.564443 144.204641 
L 311.725826 144.060078 
L 312.06473 143.963703 
L 312.16156 143.915516 
L 312.177698 143.963703 
L 312.35522 143.867328 
L 312.548879 143.62639 
L 312.677986 143.530015 
L 312.82323 143.43364 
L 313.049166 143.337265 
L 313.210549 143.192703 
L 313.67856 143.096327 
L 313.743113 143.144515 
L 313.856081 142.903577 
L 314.43706 142.807202 
L 314.662996 142.469889 
L 314.792102 142.373514 
L 314.856655 142.277139 
L 314.921209 142.325327 
L 315.0019 142.228952 
L 315.19556 141.988014 
L 315.276251 141.891639 
L 315.437634 141.747076 
L 315.711985 141.650701 
L 315.85723 141.554326 
L 315.986336 141.602513 
L 316.228411 142.469889 
L 316.260687 142.518077 
L 316.42207 142.85539 
L 316.631868 143.192703 
L 316.777113 143.096327 
L 317.164432 142.999952 
L 317.2774 142.903577 
L 317.293538 142.951765 
L 317.874517 142.85539 
L 318.229559 142.132576 
L 318.342527 142.036201 
L 318.50391 141.650701 
L 318.568463 141.554326 
L 318.955782 140.735138 
L 319.020336 140.68695 
L 319.197857 140.205074 
L 319.35924 140.108699 
L 319.714282 138.71126 
L 319.843389 137.554759 
L 319.859527 137.121071 
L 319.891804 104.690851 
L 319.92408 70.333128 
L 319.988633 93.125839 
L 320.166155 141.07245 
L 320.246846 141.506138 
L 320.295261 141.361576 
L 320.408229 141.457951 
L 320.618027 141.747076 
L 320.650303 141.698889 
L 320.68258 141.795264 
L 320.698718 141.795264 
L 320.860101 141.939826 
L 320.924654 142.036201 
L 321.34425 142.951765 
L 321.44108 143.04814 
L 321.602463 143.192703 
L 321.796122 143.289078 
L 321.957505 143.43364 
L 322.10275 143.530015 
L 322.231856 143.62639 
L 322.280271 143.578203 
L 322.312548 143.674578 
L 322.328686 143.674578 
L 322.538484 143.770953 
L 322.699867 143.915516 
L 322.716005 143.867328 
L 322.780558 143.963703 
L 323.022633 144.349204 
L 323.748856 144.252829 
L 323.894101 144.156454 
L 324.007069 144.060078 
L 324.136175 144.011891 
L 325.023781 144.108266 
L 325.056058 144.156454 
L 325.13675 144.108266 
L 325.750005 144.011891 
L 325.927526 143.819141 
L 326.201877 143.722766 
L 326.379398 143.530015 
L 326.443951 143.43364 
L 326.669888 143.096327 
L 326.686026 143.144515 
L 326.734441 143.04814 
L 326.766717 143.04814 
L 326.944239 142.85539 
L 326.960377 142.903577 
L 327.008792 142.807202 
L 327.041068 142.807202 
L 327.202451 142.662639 
L 327.767292 142.566264 
L 327.960951 142.325327 
L 328.203026 142.228952 
L 328.428962 141.891639 
L 328.525792 141.795264 
L 328.622621 141.602513 
L 328.671036 141.698889 
L 329.219738 141.602513 
L 329.397259 141.409763 
L 329.445674 141.313388 
L 329.590919 141.168825 
L 329.720025 141.217013 
L 329.897547 141.120638 
L 329.9621 140.927888 
L 330.026653 141.07245 
L 330.091206 141.168825 
L 330.139621 141.07245 
L 330.252589 140.976075 
L 330.446249 140.735138 
L 330.688323 140.68695 
L 330.833568 140.446012 
L 330.930398 140.446012 
L 331.124057 151.480961 
L 331.495238 159.287344 
L 332.076216 166.322726 
L 332.786301 171.719732 
L 333.528663 175.526548 
L 335.158631 180.056178 
L 335.207046 180.152553 
L 335.755748 181.453616 
L 335.820301 181.549992 
L 336.11079 182.080055 
L 336.175343 182.17643 
L 336.417418 182.56193 
L 336.514248 182.658305 
L 336.659492 182.75468 
L 336.707907 182.851055 
L 336.86929 182.995618 
L 336.96612 183.091993 
L 337.192056 183.429306 
L 337.337301 183.525681 
L 337.53096 183.766619 
L 337.708481 183.862994 
L 337.886003 184.055744 
L 338.063524 184.152119 
L 338.224907 184.296682 
L 338.434705 184.393057 
L 338.596088 184.53762 
L 340.758619 184.441244 
L 340.920002 184.296682 
L 341.145938 184.200307 
L 341.307321 184.055744 
L 341.32346 184.103932 
L 341.388013 184.007557 
L 341.404151 184.007557 
L 341.662364 183.911181 
L 341.69464 183.862994 
L 341.775332 183.911181 
L 342.630662 183.814806 
L 342.6468 183.766619 
L 342.679076 183.862994 
L 342.74363 183.814806 
L 343.760342 183.718431 
L 343.792619 183.670244 
L 343.87331 183.718431 
L 344.228353 183.622056 
L 344.357459 183.573869 
L 344.922299 183.477493 
L 345.051406 183.429306 
L 345.083682 183.477493 
L 345.164374 183.429306 
L 345.793767 183.332931 
L 345.922874 183.284743 
L 346.084257 183.188368 
L 346.181086 183.140181 
L 346.197225 183.188368 
L 346.439299 183.091993 
L 346.584544 182.995618 
L 346.71365 183.043806 
L 347.020278 182.995618 
L 347.133246 182.899243 
L 349.666958 182.995618 
L 349.683097 183.043806 
L 349.779926 182.995618 
L 354.863489 182.899243 
L 354.992596 182.851055 
L 355.13784 182.802868 
L 355.3315 161.648534 
L 355.79951 140.205074 
L 355.89634 132.254129 
L 355.944755 68.068314 
L 356.009308 100.161221 
L 356.154553 139.241324 
L 356.170691 139.144948 
L 356.364351 135.530882 
L 356.800085 129.025563 
L 356.864638 69.51394 
L 356.945329 99.486596 
L 357.122851 135.530882 
L 357.284234 136.398258 
L 357.494031 136.687383 
L 357.542446 136.639196 
L 357.590861 136.687383 
L 357.703829 136.880134 
L 357.719968 136.831946 
L 357.88135 136.735571 
L 358.187978 136.15732 
L 358.252531 136.060945 
L 358.510744 135.097194 
L 358.575297 135.000819 
L 358.817372 133.940693 
L 359.156276 130.66394 
L 359.172414 128.543688 
L 359.236967 67.586438 
L 359.30152 91.776588 
L 359.49518 135.675445 
L 359.672701 137.072884 
L 359.898637 137.506572 
L 359.914776 137.458384 
L 360.285956 137.362009 
L 360.544169 136.928321 
L 360.657137 136.831946 
L 360.802382 136.591008 
L 360.963765 136.446446 
L 361.01218 136.350071 
L 361.157424 136.253695 
L 361.254254 136.15732 
L 361.464052 135.868195 
L 361.544743 135.77182 
L 361.802956 135.338132 
L 361.883648 135.289944 
L 362.028892 135.000819 
L 362.14186 134.904444 
L 362.303243 134.518944 
L 362.400073 134.422569 
L 362.690562 133.892506 
L 362.755116 133.79613 
L 363.513615 131.194003 
L 363.56203 129.748376 
L 363.626584 66.96 
L 363.707275 97.607281 
L 363.884796 135.049007 
L 364.046179 136.301883 
L 364.2237 136.398258 
L 364.352807 136.591008 
L 364.385083 136.542821 
L 364.836956 136.639196 
L 364.853094 136.687383 
L 364.885371 136.591008 
L 364.917647 136.591008 
L 365.304966 135.77182 
L 365.611594 135.675445 
L 365.805253 135.097194 
L 365.853668 135.000819 
L 366.273264 134.085256 
L 366.370094 134.229818 
L 366.40237 134.133443 
L 366.773551 133.362443 
L 366.805828 133.41063 
L 366.838104 133.266067 
L 366.967211 133.073317 
L 366.999487 133.121505 
L 367.015626 133.169692 
L 367.06404 133.073317 
L 367.080179 133.073317 
L 367.225423 132.976942 
L 367.273838 132.928755 
L 367.45136 132.495067 
L 367.628881 131.627691 
L 367.854817 130.85669 
L 367.887093 130.808502 
L 367.967785 129.941127 
L 368.000062 126.519811 
L 368.064615 67.634626 
L 368.129168 90.668274 
L 368.338966 134.567131 
L 368.516487 135.675445 
L 368.694008 135.916383 
L 368.806976 135.868195 
L 368.952221 135.96457 
L 369.000636 135.868195 
L 369.081327 135.916383 
L 369.194295 136.012758 
L 369.210434 135.96457 
L 369.613891 135.868195 
L 369.855966 135.482695 
L 369.968934 135.38632 
L 370.501497 134.133443 
L 370.533774 134.085256 
L 370.695157 133.651568 
L 370.808125 133.699755 
L 371.114753 133.121505 
L 371.195444 133.02513 
L 371.340689 132.928755 
L 371.550487 133.02513 
L 371.679593 133.169692 
L 371.695731 133.121505 
L 371.905529 133.02513 
L 372.050774 132.928755 
L 372.115327 132.880567 
L 372.27671 132.543254 
L 372.857688 130.567565 
L 372.922242 128.832813 
L 372.986795 67.3455 
L 373.067486 93.559527 
L 373.261146 133.458818 
L 373.454805 134.518944 
L 373.69688 134.904444 
L 373.938954 134.808069 
L 373.955092 134.759881 
L 373.987369 134.856257 
L 374.019646 134.856257 
L 374.051922 134.904444 
L 374.100337 134.808069 
L 374.116475 134.808069 
L 374.16489 134.711694 
L 374.406965 134.326194 
L 374.471518 134.229818 
L 374.616763 134.085256 
L 374.713592 134.133443 
L 374.729731 134.085256 
L 374.858837 133.988881 
L 375.068635 133.699755 
L 375.133188 133.79613 
L 375.197741 133.844318 
L 375.246156 133.79613 
L 375.617337 133.02513 
L 375.665752 132.976942 
L 375.827135 132.591442 
L 376.004656 132.495067 
L 376.214454 132.205941 
L 376.327422 132.109566 
L 376.698603 131.290378 
L 376.779294 131.338565 
L 376.795432 131.290378 
L 377.118198 129.989314 
L 377.182752 128.977376 
L 377.215028 111.485295 
L 377.263443 67.731001 
L 377.327996 87.439708 
L 377.537794 132.302316 
L 377.683039 133.555193 
L 377.699177 133.507005 
L 377.95739 133.940693 
L 378.086496 134.037068 
L 378.247879 134.181631 
L 378.409262 134.037068 
L 378.586783 133.940693 
L 378.877273 133.41063 
L 379.1839 133.314255 
L 379.474389 132.784192 
L 379.538943 132.687817 
L 379.668049 132.639629 
L 379.861709 132.543254 
L 380.361996 131.386753 
L 380.555655 131.483128 
L 380.571794 131.531316 
L 380.652485 131.483128 
L 380.846145 131.24219 
L 380.862283 131.290378 
L 380.910698 131.097628 
L 380.975251 131.001253 
L 381.394847 129.411064 
L 381.540091 127.579937 
L 381.572368 108.738605 
L 381.620783 67.538251 
L 381.685336 86.957833 
L 381.911272 132.928755 
L 382.104932 134.037068 
L 382.2179 134.133443 
L 382.411559 134.374381 
L 382.508389 134.470756 
L 382.637495 134.518944 
L 382.847293 134.229818 
L 382.911846 134.133443 
L 383.040953 134.085256 
L 383.170059 134.181631 
L 383.234612 134.326194 
L 383.315304 134.278006 
L 383.508963 134.181631 
L 383.718761 133.892506 
L 383.767176 133.79613 
L 383.976974 133.507005 
L 384.154495 133.41063 
L 384.348155 133.169692 
L 384.444984 133.073317 
L 384.557952 132.976942 
L 384.574091 133.02513 
L 384.606367 133.073317 
L 384.654782 132.976942 
L 384.687059 133.02513 
L 384.896857 132.736004 
L 384.945272 132.784192 
L 384.993686 132.736004 
L 385.042101 132.687817 
L 385.106654 132.736004 
L 385.187346 132.639629 
L 385.300314 132.495067 
L 385.332591 132.543254 
L 385.364867 132.639629 
L 385.42942 132.543254 
L 386.123367 130.182064 
L 386.317027 127.483562 
L 386.38158 68.550189 
L 386.47841 97.125406 
L 386.672069 132.109566 
L 386.833452 133.02513 
L 386.84959 132.976942 
L 386.898005 133.169692 
L 387.107803 133.555193 
L 387.123941 133.507005 
L 387.220771 133.60338 
L 387.349877 133.747943 
L 387.366016 133.699755 
L 387.51126 133.60338 
L 387.656505 133.507005 
L 387.80175 133.41063 
L 387.963133 133.21788 
L 388.140654 133.651568 
L 388.189069 133.555193 
L 388.318175 133.458818 
L 388.415005 133.507005 
L 388.431143 133.458818 
L 388.721633 133.362443 
L 388.947569 133.02513 
L 388.995984 132.928755 
L 389.286473 132.398692 
L 389.334888 132.350504 
L 389.496271 132.013191 
L 389.835175 130.66394 
L 390.303186 127.387186 
L 390.319324 126.857123 
L 390.3516 103.389787 
L 390.400015 68.309251 
L 390.464568 87.728834 
L 390.674366 131.04944 
L 390.835749 132.254129 
L 390.900302 132.350504 
L 391.158515 132.784192 
L 391.174653 132.687817 
L 391.271483 132.736004 
L 391.352175 132.639629 
L 391.384451 132.736004 
L 391.77177 132.639629 
L 391.981568 132.350504 
L 392.094536 132.254129 
L 392.417302 131.627691 
L 392.497994 131.531316 
L 393.595398 127.965437 
L 393.724504 126.278873 
L 393.756781 108.112167 
L 393.805196 68.646564 
L 393.869749 84.355705 
L 394.111823 130.66394 
L 394.305483 132.157754 
L 394.499142 132.736004 
L 394.595972 132.832379 
L 394.773493 133.073317 
L 394.821908 133.02513 
L 394.870323 133.121505 
L 395.144674 133.02513 
L 395.435163 132.495067 
L 395.612685 132.446879 
L 395.757929 132.205941 
L 395.822482 132.109566 
L 395.967727 131.868629 
L 396.000004 131.916816 
L 396.096833 131.868629 
L 396.290493 131.338565 
L 396.338908 131.24219 
L 396.532567 130.712127 
L 396.855333 130.085689 
L 396.88761 129.989314 
L 397.048993 129.652001 
L 397.129684 129.748376 
L 397.161961 129.652001 
L 397.517003 127.146249 
L 397.565418 123.724933 
L 397.629972 68.791127 
L 397.710663 89.752711 
L 397.936599 130.326627 
L 398.130259 131.820441 
L 398.178674 131.916816 
L 398.501439 132.543254 
L 398.646684 132.639629 
L 398.743514 132.687817 
L 398.759652 132.639629 
L 399.130833 132.543254 
L 399.308354 132.350504 
L 399.372907 132.254129 
L 399.550429 132.061379 
L 399.647258 131.965004 
L 399.744088 131.868629 
L 399.776365 131.916816 
L 400.115269 131.820441 
L 400.712386 130.374814 
L 400.776939 130.278439 
L 401.083567 129.025563 
L 401.390194 126.760748 
L 401.422471 120.83368 
L 401.487024 68.791127 
L 401.551577 85.608581 
L 401.793652 129.796564 
L 401.987311 131.145815 
L 402.358492 132.157754 
L 402.406907 132.061379 
L 402.874917 131.965004 
L 403.13313 131.531316 
L 403.149268 131.579503 
L 403.197683 131.483128 
L 403.213822 131.483128 
L 403.407481 131.24219 
L 403.536588 131.290378 
L 404.537162 131.194003 
L 404.730821 130.760315 
L 404.779236 130.808502 
L 404.843789 130.85669 
L 404.892204 130.808502 
L 405.134279 130.712127 
L 405.360215 130.374814 
L 405.392492 130.326627 
L 405.50546 130.037502 
L 405.537736 130.085689 
L 405.682981 129.989314 
L 406.263959 125.893372 
L 406.296236 123.917683 
L 406.376928 69.417565 
L 406.441481 88.210709 
L 406.667417 129.892939 
L 406.861076 131.627691 
L 407.280672 132.543254 
L 407.442055 132.495067 
L 407.571161 132.302316 
L 408.119863 132.398692 
L 408.200555 132.495067 
L 408.24897 132.446879 
L 408.426491 132.350504 
L 408.555597 132.157754 
L 408.587874 132.205941 
L 408.620151 132.109566 
L 409.072023 131.097628 
L 409.184991 131.001253 
L 409.76597 129.603814 
L 409.814384 129.507439 
L 409.927352 129.218313 
L 409.975767 129.362876 
L 410.42764 129.266501 
L 410.927927 127.531749 
L 411.08931 124.977809 
L 411.121586 113.171859 
L 411.186139 69.417565 
L 411.250693 87.391521 
L 411.476629 129.796564 
L 411.65415 131.483128 
L 411.896224 132.302316 
L 412.057607 132.446879 
L 412.170576 132.350504 
L 412.267405 132.302316 
L 412.283544 132.350504 
L 412.396512 132.254129 
L 412.541756 132.157754 
L 412.622448 132.254129 
L 412.703139 132.446879 
L 412.767692 132.398692 
L 412.97749 132.109566 
L 413.155012 132.013191 
L 413.316394 131.868629 
L 413.413224 131.772253 
L 413.477777 131.531316 
L 413.558469 131.627691 
L 413.687575 131.675878 
L 413.752128 131.579503 
L 414.252416 130.423002 
L 414.365384 130.326627 
L 414.413799 130.374814 
L 414.639735 129.844751 
L 414.784979 129.748376 
L 415.123884 128.4955 
L 415.398235 125.218747 
L 415.446649 84.162955 
L 415.478926 69.273002 
L 415.543479 85.126706 
L 415.785554 129.892939 
L 415.979213 131.434941 
L 416.189011 132.061379 
L 416.414947 132.398692 
L 416.544053 132.350504 
L 416.802266 132.254129 
L 417.028202 131.916816 
L 417.108894 131.820441 
L 417.318692 131.531316 
L 417.415521 131.434941 
L 417.818979 130.567565 
L 417.867394 130.47119 
L 418.109468 130.085689 
L 418.254713 129.989314 
L 418.56134 129.411064 
L 418.577479 129.459251 
L 418.625894 129.362876 
L 418.642032 129.362876 
L 419.126181 127.579937 
L 419.335979 125.363309 
L 419.368255 116.352238 
L 419.432808 69.369377 
L 419.497362 85.608581 
L 419.787851 143.144515 
L 420.046064 154.613152 
L 420.433383 163.045973 
L 420.83684 168.298416 
L 421.224159 171.623356 
L 421.627616 174.273672 
L 421.788999 175.09286 
L 422.224733 177.068549 
L 422.757297 178.996051 
L 422.950957 179.526114 
L 423.67718 181.357241 
L 423.725595 181.453616 
L 424.145191 182.36918 
L 424.225882 182.465555 
L 424.371127 182.706493 
L 424.629339 183.140181 
L 424.693893 183.236556 
L 424.919829 183.573869 
L 425.00052 183.670244 
L 425.226456 184.007557 
L 425.339424 184.103932 
L 425.533084 184.344869 
L 425.629914 184.441244 
L 425.791297 184.585807 
L 425.904265 184.682182 
L 426.065648 184.826745 
L 426.227031 184.92312 
L 426.42069 185.164058 
L 426.598211 185.260433 
L 426.727318 185.30862 
L 426.856424 185.404995 
L 427.017807 185.549558 
L 427.243743 185.645933 
L 427.388988 185.790496 
L 427.421264 185.742308 
L 427.501956 185.790496 
L 428.228179 185.886871 
L 428.357286 185.935058 
L 429.729041 186.031434 
L 429.793594 186.079621 
L 429.842009 186.031434 
L 430.955551 185.935058 
L 430.971689 185.886871 
L 431.020104 185.983246 
L 431.068519 185.935058 
L 431.972264 185.838683 
L 432.117508 185.742308 
L 432.876008 185.645933 
L 432.972838 185.597746 
L 432.988976 185.645933 
L 433.682923 185.549558 
L 433.812029 185.453183 
L 433.860444 185.404995 
L 433.924997 185.501371 
L 434.054104 185.453183 
L 435.006263 185.356808 
L 435.13537 185.30862 
L 435.635657 185.212245 
L 435.732486 185.164058 
L 435.748625 185.212245 
L 435.780901 185.212245 
L 435.780901 185.212245 
" style="fill:none;stroke:#1f77b4;stroke-linecap:square;stroke-width:1.5;"/>
   </g>
   <g id="line2d_14">
    <path clip-path="url(#pb713114075)" d="M 80.754545 180.865728 
L 81.287109 179.059736 
L 81.997194 177.609021 
L 82.933215 176.632009 
L 83.917651 176.158306 
L 84.369524 176.049749 
L 84.692289 175.980667 
L 85.805832 175.87211 
L 86.047906 175.852373 
L 88.904385 175.803029 
L 89.469225 157.703631 
L 90.050203 141.45957 
L 90.066342 139.46607 
L 90.17931 180.826253 
L 90.356831 180.826253 
L 90.485937 185.90869 
L 90.986225 201.264559 
L 91.470373 209.741866 
L 91.906107 213.788079 
L 92.277288 215.396695 
L 92.551639 215.801316 
L 92.72916 215.781578 
L 92.938958 215.524989 
L 93.294001 214.646665 
L 93.762011 212.86041 
L 94.455958 209.416196 
L 99.749319 180.895335 
L 100.766031 176.474108 
L 104.445563 163.388066 
L 106.140084 158.562218 
L 107.544115 154.841676 
L 109.20636 149.4237 
L 109.529126 147.311774 
L 109.738924 144.173493 
L 109.819615 139.515414 
L 109.932583 180.826253 
L 110.110104 180.826253 
L 110.239211 187.833108 
L 110.755636 209.722129 
L 111.223647 221.278505 
L 111.659381 227.318217 
L 112.0467 230.051878 
L 112.369466 230.969677 
L 112.579264 231.068365 
L 112.70837 230.969677 
L 112.950444 230.515712 
L 113.483008 228.54195 
L 114.289923 224.041772 
L 115.484157 216.067774 
L 116.936603 206.22857 
L 119.970603 188.356155 
L 122.472039 176.671484 
L 123.859932 171.214032 
L 125.619006 165.17432 
L 127.942921 158.424054 
L 129.346952 154.703513 
L 130.944643 149.482912 
L 131.283548 147.272299 
L 131.477207 144.489295 
L 131.557899 140.926654 
L 131.574037 138.824598 
L 131.687005 180.826253 
L 131.864526 180.826253 
L 132.380952 205.606835 
L 132.865101 219.235662 
L 133.316973 226.400418 
L 133.736569 229.795288 
L 134.043196 230.880858 
L 134.285271 231.10784 
L 134.446654 231.009152 
L 134.688728 230.565056 
L 135.23743 228.532081 
L 136.028206 224.120723 
L 137.238579 216.038167 
L 138.691025 206.198964 
L 140.208025 196.744644 
L 141.515227 189.431855 
L 144.32329 176.247125 
L 145.630492 171.135082 
L 147.35729 165.213796 
L 149.713481 158.364841 
L 151.117512 154.6443 
L 152.699065 149.463175 
L 153.021831 147.370987 
L 153.215491 144.755752 
L 153.312321 140.46282 
L 153.328459 137.689684 
L 153.441427 180.826253 
L 153.618948 180.826253 
L 154.151512 223.420037 
L 154.667937 248.259832 
L 155.152086 261.977478 
L 155.620097 269.418561 
L 156.039693 272.813431 
L 156.34632 273.918738 
L 156.556118 274.165458 
L 156.717501 274.135852 
L 157.040267 273.57333 
L 157.379171 272.458154 
L 158.089256 268.954727 
L 160.154958 255.641702 
L 161.962447 244.233358 
L 163.382617 236.229753 
L 164.689819 229.647256 
L 166.061574 223.489119 
L 167.51402 217.745471 
L 168.224105 215.18945 
L 169.402201 211.281401 
L 169.515169 210.926124 
L 169.628137 180.470976 
L 170.257531 178.576164 
L 170.757818 177.628759 
L 171.709977 176.632009 
L 172.694413 176.158306 
L 173.146285 176.049749 
L 173.469051 175.980667 
L 174.582594 175.87211 
L 174.824668 175.852373 
L 177.681146 175.803029 
L 178.245987 151.535625 
L 178.471923 140.393738 
L 178.584891 180.826253 
L 178.762412 180.826253 
L 178.891519 184.369156 
L 179.375667 194.543899 
L 179.811401 199.586861 
L 180.166444 201.718524 
L 180.505348 202.547504 
L 180.763561 202.586979 
L 180.973359 202.33039 
L 181.312263 201.481672 
L 181.747997 199.813844 
L 183.006784 193.103053 
L 185.621188 177.796528 
L 187.412538 168.549453 
L 188.929538 161.680762 
L 191.786016 148.979603 
L 192.092644 145.673552 
L 192.205612 142.278681 
L 192.237889 139.229219 
L 192.350857 180.826253 
L 192.528378 180.826253 
L 192.657484 187.546913 
L 193.157771 207.906268 
L 193.625782 218.880385 
L 194.045378 224.258886 
L 194.40042 226.518844 
L 194.674771 227.20966 
L 194.852292 227.268873 
L 195.06209 227.022153 
L 195.320303 226.331336 
L 195.82059 224.081247 
L 196.304739 221.16008 
L 197.611941 211.61694 
L 201.339887 185.069841 
L 203.276483 173.908217 
L 206.132961 160.486636 
L 208.682811 149.127635 
L 208.973301 146.275549 
L 209.118545 142.515533 
L 209.150822 139.890429 
L 209.26379 180.826253 
L 209.441311 180.826253 
L 209.570418 187.556782 
L 210.070705 207.926005 
L 210.554854 219.176449 
L 210.958311 224.288492 
L 211.313354 226.558319 
L 211.619981 227.278742 
L 211.813641 227.278742 
L 212.10413 226.765564 
L 212.556002 225.028653 
L 213.185396 221.4068 
L 214.524874 211.646547 
L 218.25282 185.099448 
L 220.189416 173.927955 
L 223.045894 160.496504 
L 224.046468 156.410817 
L 225.531192 149.591469 
L 225.870096 146.561745 
L 226.01534 143.413594 
L 226.079894 137.344276 
L 226.192862 180.826253 
L 226.370383 180.826253 
L 226.886808 204.49166 
L 227.354819 216.946098 
L 227.790553 223.4003 
L 228.177872 226.272123 
L 228.500638 227.199791 
L 228.742712 227.229398 
L 228.904095 227.002415 
L 229.162308 226.30173 
L 229.646457 224.120723 
L 230.130606 221.209424 
L 231.453946 211.557728 
L 233.40668 196.922282 
L 234.875265 186.954784 
L 237.183041 173.523334 
L 239.926551 160.654405 
L 242.234327 150.844808 
L 242.847582 174.885229 
L 243.380146 187.349537 
L 243.896572 194.652456 
L 244.412997 198.915782 
L 244.864869 201.017838 
L 245.349018 202.142883 
L 245.623369 202.429078 
L 245.962273 202.517898 
L 246.866018 201.83695 
L 247.608379 200.761249 
L 250.658517 195.392617 
L 251.045836 194.751144 
L 251.965719 193.29056 
L 252.595113 192.353023 
L 253.159953 191.543781 
L 257.017006 186.994259 
L 257.388186 186.638982 
L 257.985303 186.07646 
L 258.291931 185.800133 
L 258.404899 180.470976 
L 259.034292 178.576164 
L 259.53458 177.628759 
L 260.486739 176.632009 
L 261.471175 176.158306 
L 261.923047 176.049749 
L 262.245813 175.980667 
L 263.359356 175.87211 
L 263.60143 175.852373 
L 266.457908 175.803029 
L 266.958195 137.896929 
L 267.071163 180.826253 
L 267.264823 180.895335 
L 267.571451 181.744052 
L 267.781248 181.842741 
L 267.926493 181.734184 
L 268.168568 181.280218 
L 268.507472 180.165043 
L 268.943206 178.161674 
L 269.588737 174.460871 
L 271.089599 164.601929 
L 273.332822 148.811833 
L 273.574896 145.150505 
L 273.671726 140.749016 
L 273.687864 138.262075 
L 273.800833 180.826253 
L 273.978354 180.826253 
L 274.478641 202.044195 
L 274.946651 213.205819 
L 275.350109 218.288256 
L 275.72129 220.370575 
L 275.979502 220.735721 
L 276.124747 220.637033 
L 276.302268 220.271887 
L 276.673449 218.781696 
L 277.302843 214.705878 
L 278.093619 208.103644 
L 281.837704 174.776673 
L 283.661331 161.157715 
L 285.242884 149.798714 
L 285.533373 146.196599 
L 285.662479 142.081305 
L 285.694756 138.341026 
L 285.807724 180.826253 
L 285.985245 180.826253 
L 286.485533 202.014588 
L 286.953543 213.156475 
L 287.357 218.229043 
L 287.728181 220.301493 
L 287.986394 220.666639 
L 288.131639 220.567951 
L 288.30916 220.202805 
L 288.664202 218.791565 
L 289.309734 214.636796 
L 290.100511 208.034562 
L 293.828457 174.855623 
L 295.668223 161.118239 
L 297.475712 147.153873 
L 297.637095 143.413594 
L 297.685509 140.008855 
L 297.798477 180.826253 
L 297.975999 180.826253 
L 298.105105 187.053472 
L 298.589254 205.123263 
L 299.041126 214.587452 
L 299.444584 218.929729 
L 299.783488 220.459394 
L 299.993286 220.686377 
L 300.219222 220.429788 
L 300.42902 219.82779 
L 300.8002 218.061273 
L 301.300488 214.715747 
L 302.591551 203.563991 
L 305.851487 174.668116 
L 307.658976 161.177452 
L 309.256667 149.680289 
L 309.563295 145.60447 
L 309.676263 141.054949 
L 309.692401 138.952892 
L 309.805369 180.826253 
L 309.98289 180.826253 
L 310.483178 202.024457 
L 310.951188 213.176212 
L 311.354645 218.248781 
L 311.69355 220.222543 
L 311.919486 220.676508 
L 312.080869 220.65677 
L 312.306805 220.232412 
L 312.661847 218.821172 
L 313.307379 214.666403 
L 314.098156 208.064169 
L 317.826102 174.875361 
L 319.665867 161.137977 
L 321.489495 146.946628 
L 321.650878 142.791859 
L 321.683154 140.364132 
L 321.796122 180.826253 
L 321.973644 180.826253 
L 322.10275 187.063341 
L 322.586899 205.143001 
L 323.038771 214.60719 
L 323.42609 218.840909 
L 323.781133 220.489001 
L 324.023207 220.706114 
L 324.216867 220.459394 
L 324.426665 219.857397 
L 324.797845 218.09088 
L 325.298132 214.745353 
L 326.589196 203.593598 
L 328.412823 186.836358 
L 330.801291 167.345459 
L 331.011089 165.796055 
L 331.543653 196.507792 
L 332.060078 214.617059 
L 332.544227 224.821408 
L 333.012238 230.555187 
L 333.415695 233.298716 
L 333.851429 234.680349 
L 334.206471 234.946807 
L 334.432408 234.83825 
L 334.868142 234.137565 
L 335.207046 233.288847 
L 336.20762 229.884108 
L 337.72462 223.874002 
L 341.436428 210.669535 
L 343.179364 205.695654 
L 345.987427 199.113158 
L 347.068693 196.991364 
L 347.181661 180.470976 
L 347.811054 178.576164 
L 348.311341 177.628759 
L 349.263501 176.632009 
L 350.247937 176.158306 
L 350.699809 176.049749 
L 351.022575 175.980667 
L 352.136117 175.87211 
L 352.378192 175.852373 
L 355.23467 175.803029 
L 355.460606 141.45957 
L 355.573574 180.826253 
L 355.751096 180.826253 
L 355.880202 172.06275 
L 356.364351 140.275313 
L 356.477319 180.826253 
L 356.670978 180.875597 
L 356.961468 182.000641 
L 357.122851 182.040117 
L 357.31651 181.635496 
L 357.558585 180.559795 
L 357.929765 177.944561 
L 358.607574 171.184426 
L 359.963191 154.160728 
L 360.415063 146.719646 
L 360.544169 141.469439 
L 360.560307 139.55489 
L 360.673276 180.826253 
L 360.850797 180.826253 
L 360.996041 186.431737 
L 361.447914 198.974995 
L 361.835233 204.225202 
L 362.125722 205.794342 
L 362.319382 205.962112 
L 362.513041 205.557491 
L 362.803531 204.087038 
L 363.142435 201.363247 
L 363.707275 195.175503 
L 364.723988 181.378906 
L 366.934934 148.75262 
L 367.128594 143.305037 
L 367.177009 138.528533 
L 367.289977 180.826253 
L 367.467498 180.826253 
L 367.91937 195.767631 
L 368.322827 202.646192 
L 368.645593 205.044313 
L 368.87153 205.478541 
L 368.984498 205.379852 
L 369.178157 204.807461 
L 369.484785 203.031076 
L 370.065763 197.534148 
L 371.050199 184.813252 
L 373.50322 148.821702 
L 373.713018 142.574745 
L 373.745295 139.278563 
L 373.858263 180.826253 
L 374.035784 180.826253 
L 374.487656 195.797238 
L 374.891114 202.685667 
L 375.21388 205.083788 
L 375.423677 205.527885 
L 375.552784 205.439065 
L 375.746443 204.866674 
L 376.053071 203.090289 
L 376.504943 199.004601 
L 377.392549 188.010747 
L 379.006379 164.819043 
L 380.216751 145.515651 
L 380.313581 139.920035 
L 380.426549 180.826253 
L 380.60407 180.826253 
L 380.733176 185.74092 
L 381.16891 198.047327 
L 381.540091 203.386353 
L 381.830581 205.182476 
L 382.02424 205.478541 
L 382.040378 205.468672 
L 382.185623 205.261427 
L 382.395421 204.471922 
L 382.718187 202.340259 
L 383.202336 197.622968 
L 384.186772 184.921809 
L 386.655931 148.663801 
L 386.84959 143.048448 
L 386.881867 140.443082 
L 386.994835 180.826253 
L 387.172356 180.826253 
L 387.301463 185.750789 
L 387.737197 198.076933 
L 388.108377 203.435697 
L 388.415005 205.281164 
L 388.608665 205.527885 
L 388.753909 205.32064 
L 388.963707 204.531135 
L 389.286473 202.399472 
L 389.770622 197.682181 
L 390.529122 188.119304 
L 392.159089 164.700617 
L 393.353323 145.752502 
L 393.450153 140.897048 
L 393.466291 138.370632 
L 393.579259 180.826253 
L 393.756781 180.826253 
L 394.208653 195.767631 
L 394.61211 202.646192 
L 394.934876 205.044313 
L 395.160812 205.478541 
L 395.27378 205.389721 
L 395.46744 204.81733 
L 395.774068 203.031076 
L 396.22594 198.93552 
L 396.903748 190.774014 
L 398.727376 164.75983 
L 399.937748 145.397225 
L 400.034578 139.2983 
L 400.147546 180.826253 
L 400.325067 180.826253 
L 400.454173 185.74092 
L 400.906045 198.343391 
L 401.293365 203.642942 
L 401.599992 205.271296 
L 401.761375 205.419328 
L 401.793652 205.39959 
L 401.971173 205.024575 
L 402.261662 203.583729 
L 402.697396 199.942138 
L 403.32679 192.698432 
L 404.601715 174.895098 
L 406.506034 145.515651 
L 406.602864 139.929904 
L 406.715832 180.826253 
L 406.893353 180.826253 
L 407.022459 185.74092 
L 407.458193 198.047327 
L 407.829374 203.396222 
L 408.136002 205.23182 
L 408.313523 205.478541 
L 408.329661 205.468672 
L 408.426491 205.369984 
L 408.604012 204.846937 
L 408.91064 203.08042 
L 409.37865 198.8467 
L 410.056459 190.665457 
L 411.880086 164.641405 
L 413.07432 145.643945 
L 413.17115 140.46282 
L 413.284118 180.826253 
L 413.461639 180.826253 
L 413.590745 185.750789 
L 414.026479 198.086802 
L 414.413799 203.583729 
L 414.704288 205.281164 
L 414.897947 205.527885 
L 415.043192 205.32064 
L 415.25299 204.541004 
L 415.656447 201.728393 
L 416.172873 196.389367 
L 417.044341 184.990891 
L 419.5135 148.742752 
L 419.707159 143.275431 
L 419.755574 138.400239 
L 419.868542 180.826253 
L 420.046064 180.826253 
L 420.578627 266.556606 
L 421.095053 316.621079 
L 421.579202 344.332698 
L 422.031074 359.0767 
L 422.45067 366.251325 
L 422.789 style="fill:none;stroke:#ff0000;stroke-linecap:square;stroke-width:1.5;"/>
   </g>
   <g id="patch_3">
    <path d="M 63 384.48 
L 63 51.84 
" style="fill:none;stroke:#000000;stroke-linecap:square;stroke-linejoin:miter;stroke-width:0.8;"/>
   </g>
   <g id="patch_4">
    <path d="M 453.6 384.48 
L 453.6 51.84 
" style="fill:none;stro style="fill:none;stroke:#ff0000;stroke-linecap:square;stroke-width:1.5;"/>
   </g>
   <g id="patch_3">
    <path d="M 63 384.48 
L 63 51.84 
" style="fill:none;stroke:#000000;stroke-linecap:square;stroke-linejoin:miter;stroke-width:0.8;"/>
   </g>
   <g id="patch_4">
    <path d="M 453.6 384.48 
L 453.6 51.84 
" style="fill:none;stroke:#000000;stroke-linecap:square;stroke-linejoin:miter;stroke-width:0.8;"/>
   </g>
   <g id="patch_5">
    <path d="M 63 384.48 
L 453.6 384.48 
" style="fill:none;stroke:#000000;stroke-linecap:square;stroke-linejoin:miter;stroke-width:0.8;"/>
   </g>
   <g id="patch_6">
    <path d="M 63 51.84 
L 453.6 51.84 
" style="fill:none;stroke:#000000;stroke-linecap:square;stroke-linejoin:miter;stroke-width:0.8;"/>
   </g>
   <g id="legend_1">
    <g id="patch_7">
     <path d="M 70 89.19625 
L 133.139062 89.19625 
Q 135.139062 89.19625 135.139062 87.19625 
L 135.139062 58.84 
Q 135.139062 56.84 133.139062 56.84 
L 70 56.84 
Q 68 56.84 68 58.84 
L 68 87.19625 
Q 68 89.19625 70 89.19625 
z
" style="fill:#ffffff;opacity:0.8;stroke:#cccccc;stroke-linejoin:miter;"/>
    </g>
    <g id="line2d_15">
     <path d="M 72 64.938437 
L 92 64.938437 
" style="fill:none;stroke:#1f77b4;stroke-linecap:square;stroke-width:1.5;"/>
    </g>
    <g id="line2d_16"/>
    <g id="text_15">
     <!-- target -->
     <g transform="translate(100 68.438437)scale(0.1 -0.1)">
      <defs>
       <path d="M 41.109375 46.296875 
Q 39.59375 47.171875 37.8125 47.578125 
Q 36.03125 48 33.890625 48 
Q 26.265625 48 22.1875 43.046875 
Q 18.109375 38.09375 18.109375 28.8125 
L 18.109375 0 
L 9.078125 0 
L 9.078125 54.6875 
L 18.109375 54.6875 
L 18.109375 46.1875 
Q 20.953125 51.171875 25.484375 53.578125 
Q 30.03125 56 36.53125 56 
Q 37.453125 56 38.578125 55.875 
Q 39.703125 55.765625 41.0625 55.515625 
z
" id="DejaVuSans-114"/>
      </defs>
      <use xlink:href="#DejaVuSans-116"/>
      <use x="39.208984" xlink:href="#DejaVuSans-97"/>
      <use x="100.488281" xlink:href="#DejaVuSans-114"/>
      <use x="139.851562" xlink:href="#DejaVuSans-103"/>
      <use x="203.328125" xlink:href="#DejaVuSans-101"/>
      <use x="264.851562" xlink:href="#DejaVuSans-116"/>
     </g>
    </g>
    <g id="line2d_17">
     <path d="M 72 79.616562 
L 92 79.616562 
" style="fill:none;stroke:#ff0000;stroke-linecap:square;stroke-width:1.5;"/>
    </g>
    <g id="line2d_18"/>
    <g id="text_16">
     <!-- model -->
     <g transform="translate(100 83.116562)scale(0.1 -0.1)">
      <defs>
       <path d="M 45.40625 46.390625 
L 45.40625 75.984375 
L 54.390625 75.984375 
L 54.390625 0 
L 45.40625 0 
L 45.40625 8.203125 
Q 42.578125 3.328125 38.25 0.953125 
Q 33.9375 -1.421875 27.875 -1.421875 
Q 17.96875 -1.421875 11.734375 6.484375 
Q 5.515625 14.40625 5.515625 27.296875 
Q 5.515625 40.1875 11.734375 48.09375 
Q 17.96875 56 27.875 56 
Q 33.9375 56 38.25 53.625 
Q 42.578125 51.265625 45.40625 46.390625 
z
M 14.796875 27.296875 
Q 14.796875 17.390625 18.875 11.75 
Q 22.953125 6.109375 30.078125 6.109375 
Q 37.203125 6.109375 41.296875 11.75 
Q 45.40625 17.390625 45.40625 27.296875 
Q 45.40625 37.203125 41.296875 42.84375 
Q 37.203125 48.484375 30.078125 48.484375 
Q 22.953125 48.484375 18.875 42.84375 
Q 14.796875 37.203125 14.796875 27.296875 
z
" id="DejaVuSans-100"/>
      </defs>
      <use xlink:href="#DejaVuSans-109"/>
      <use x="97.412109" xlink:href="#DejaVuSans-111"/>
      <use x="158.59375" xlink:href="#DejaVuSans-100"/>
      <use x="222.070312" xlink:href="#DejaVuSans-101"/>
      <use x="283.59375" xlink:href="#DejaVuSans-108"/>
     </g>
    </g>
   </g>
  </g>
 </g>
 <defs>
  <clipPath id="pb713114075">
   <rect height="332.64" width="390.6" x="63" y="51.84"/>
  </clipPath>
 </defs>
</svg>
