<?xml version="1.0" encoding="utf-8" standalone="no"?>
<!DOCTYPE svg PUBLIC "-//W3C//DTD SVG 1.1//EN"
  "http://www.w3.org/Graphics/SVG/1.1/DTD/svg11.dtd">
<!-- Created with matplotlib (http://matplotlib.org/) -->
<svg height="432pt" version="1.1" viewBox="0 0 504 432" width="504pt" xmlns="http://www.w3.org/2000/svg" xmlns:xlink="http://www.w3.org/1999/xlink">
 <defs>
  <style type="text/css">
*{stroke-linecap:butt;stroke-linejoin:round;}
  </style>
 </defs>
 <g id="figure_1">
  <g id="patch_1">
   <path d="M 0 432 
L 504 432 
L 504 0 
L 0 0 
z
" style="fill:#ffffff;"/>
  </g>
  <g id="axes_1">
   <g id="patch_2">
    <path d="M 63 384.48 
L 453.6 384.48 
L 453.6 51.84 
L 63 51.84 
z
" style="fill:#ffffff;"/>
   </g>
   <g id="matplotlib.axis_1">
    <g id="xtick_1">
     <g id="line2d_1">
      <defs>
       <path d="M 0 0 
L 0 3.5 
" id="mba278e1827" style="stroke:#000000;stroke-width:0.8;"/>
      </defs>
      <g>
       <use style="stroke:#000000;stroke-width:0.8;" x="80.754545" xlink:href="#mba278e1827" y="384.48"/>
      </g>
     </g>
     <g id="text_1">
      <!-- 0 -->
      <defs>
       <path d="M 31.78125 66.40625 
Q 24.171875 66.40625 20.328125 58.90625 
Q 16.5 51.421875 16.5 36.375 
Q 16.5 21.390625 20.328125 13.890625 
Q 24.171875 6.390625 31.78125 6.390625 
Q 39.453125 6.390625 43.28125 13.890625 
Q 47.125 21.390625 47.125 36.375 
Q 47.125 51.421875 43.28125 58.90625 
Q 39.453125 66.40625 31.78125 66.40625 
z
M 31.78125 74.21875 
Q 44.046875 74.21875 50.515625 64.515625 
Q 56.984375 54.828125 56.984375 36.375 
Q 56.984375 17.96875 50.515625 8.265625 
Q 44.046875 -1.421875 31.78125 -1.421875 
Q 19.53125 -1.421875 13.0625 8.265625 
Q 6.59375 17.96875 6.59375 36.375 
Q 6.59375 54.828125 13.0625 64.515625 
Q 19.53125 74.21875 31.78125 74.21875 
z
" id="DejaVuSans-30"/>
      </defs>
      <g transform="translate(77.573295 399.078438)scale(0.1 -0.1)">
       <use xlink:href="#DejaVuSans-30"/>
      </g>
     </g>
    </g>
    <g id="xtick_2">
     <g id="line2d_2">
      <g>
       <use style="stroke:#000000;stroke-width:0.8;" x="151.772727" xlink:href="#mba278e1827" y="384.48"/>
      </g>
     </g>
     <g id="text_2">
      <!-- 200 -->
      <defs>
       <path d="M 19.1875 8.296875 
L 53.609375 8.296875 
L 53.609375 0 
L 7.328125 0 
L 7.328125 8.296875 
Q 12.9375 14.109375 22.625 23.890625 
Q 32.328125 33.6875 34.8125 36.53125 
Q 39.546875 41.84375 41.421875 45.53125 
Q 43.3125 49.21875 43.3125 52.78125 
Q 43.3125 58.59375 39.234375 62.25 
Q 35.15625 65.921875 28.609375 65.921875 
Q 23.96875 65.921875 18.8125 64.3125 
Q 13.671875 62.703125 7.8125 59.421875 
L 7.8125 69.390625 
Q 13.765625 71.78125 18.9375 73 
Q 24.125 74.21875 28.421875 74.21875 
Q 39.75 74.21875 46.484375 68.546875 
Q 53.21875 62.890625 53.21875 53.421875 
Q 53.21875 48.921875 51.53125 44.890625 
Q 49.859375 40.875 45.40625 35.40625 
Q 44.1875 33.984375 37.640625 27.21875 
Q 31.109375 20.453125 19.1875 8.296875 
z
" id="DejaVuSans-32"/>
      </defs>
      <g transform="translate(142.228977 399.078438)scale(0.1 -0.1)">
       <use xlink:href="#DejaVuSans-32"/>
       <use x="63.623047" xlink:href="#DejaVuSans-30"/>
       <use x="127.246094" xlink:href="#DejaVuSans-30"/>
      </g>
     </g>
    </g>
    <g id="xtick_3">
     <g id="line2d_3">
      <g>
       <use style="stroke:#000000;stroke-width:0.8;" x="222.790909" xlink:href="#mba278e1827" y="384.48"/>
      </g>
     </g>
     <g id="text_3">
      <!-- 400 -->
      <defs>
       <path d="M 37.796875 64.3125 
L 12.890625 25.390625 
L 37.796875 25.390625 
z
M 35.203125 72.90625 
L 47.609375 72.90625 
L 47.609375 25.390625 
L 58.015625 25.390625 
L 58.015625 17.1875 
L 47.609375 17.1875 
L 47.609375 0 
L 37.796875 0 
L 37.796875 17.1875 
L 4.890625 17.1875 
L 4.890625 26.703125 
z
" id="DejaVuSans-34"/>
      </defs>
      <g transform="translate(213.247159 399.078438)scale(0.1 -0.1)">
       <use xlink:href="#DejaVuSans-34"/>
       <use x="63.623047" xlink:href="#DejaVuSans-30"/>
       <use x="127.246094" xlink:href="#DejaVuSans-30"/>
      </g>
     </g>
    </g>
    <g id="xtick_4">
     <g id="line2d_4">
      <g>
       <use style="stroke:#000000;stroke-width:0.8;" x="293.809091" xlink:href="#mba278e1827" y="384.48"/>
      </g>
     </g>
     <g id="text_4">
      <!-- 600 -->
      <defs>
       <path d="M 33.015625 40.375 
Q 26.375 40.375 22.484375 35.828125 
Q 18.609375 31.296875 18.609375 23.390625 
Q 18.609375 15.53125 22.484375 10.953125 
Q 26.375 6.390625 33.015625 6.390625 
Q 39.65625 6.390625 43.53125 10.953125 
Q 47.40625 15.53125 47.40625 23.390625 
Q 47.40625 31.296875 43.53125 35.828125 
Q 39.65625 40.375 33.015625 40.375 
z
M 52.59375 71.296875 
L 52.59375 62.3125 
Q 48.875 64.0625 45.09375 64.984375 
Q 41.3125 65.921875 37.59375 65.921875 
Q 27.828125 65.921875 22.671875 59.328125 
Q 17.53125 52.734375 16.796875 39.40625 
Q 19.671875 43.65625 24.015625 45.921875 
Q 28.375 48.1875 33.59375 48.1875 
Q 44.578125 48.1875 50.953125 41.515625 
Q 57.328125 34.859375 57.328125 23.390625 
Q 57.328125 12.15625 50.6875 5.359375 
Q 44.046875 -1.421875 33.015625 -1.421875 
Q 20.359375 -1.421875 13.671875 8.265625 
Q 6.984375 17.96875 6.984375 36.375 
Q 6.984375 53.65625 15.1875 63.9375 
Q 23.390625 74.21875 37.203125 74.21875 
Q 40.921875 74.21875 44.703125 73.484375 
Q 48.484375 72.75 52.59375 71.296875 
z
" id="DejaVuSans-36"/>
      </defs>
      <g transform="translate(284.265341 399.078438)scale(0.1 -0.1)">
       <use xlink:href="#DejaVuSans-36"/>
       <use x="63.623047" xlink:href="#DejaVuSans-30"/>
       <use x="127.246094" xlink:href="#DejaVuSans-30"/>
      </g>
     </g>
    </g>
    <g id="xtick_5">
     <g id="line2d_5">
      <g>
       <use style="stroke:#000000;stroke-width:0.8;" x="364.827273" xlink:href="#mba278e1827" y="384.48"/>
      </g>
     </g>
     <g id="text_5">
      <!-- 800 -->
      <defs>
       <path d="M 31.78125 34.625 
Q 24.75 34.625 20.71875 30.859375 
Q 16.703125 27.09375 16.703125 20.515625 
Q 16.703125 13.921875 20.71875 10.15625 
Q 24.75 6.390625 31.78125 6.390625 
Q 38.8125 6.390625 42.859375 10.171875 
Q 46.921875 13.96875 46.921875 20.515625 
Q 46.921875 27.09375 42.890625 30.859375 
Q 38.875 34.625 31.78125 34.625 
z
M 21.921875 38.8125 
Q 15.578125 40.375 12.03125 44.71875 
Q 8.5 49.078125 8.5 55.328125 
Q 8.5 64.0625 14.71875 69.140625 
Q 20.953125 74.21875 31.78125 74.21875 
Q 42.671875 74.21875 48.875 69.140625 
Q 55.078125 64.0625 55.078125 55.328125 
Q 55.078125 49.078125 51.53125 44.71875 
Q 48 40.375 41.703125 38.8125 
Q 48.828125 37.15625 52.796875 32.3125 
Q 56.78125 27.484375 56.78125 20.515625 
Q 56.78125 9.90625 50.3125 4.234375 
Q 43.84375 -1.421875 31.78125 -1.421875 
Q 19.734375 -1.421875 13.25 4.234375 
Q 6.78125 9.90625 6.78125 20.515625 
Q 6.78125 27.484375 10.78125 32.3125 
Q 14.796875 37.15625 21.921875 38.8125 
z
M 18.3125 54.390625 
Q 18.3125 48.734375 21.84375 45.5625 
Q 25.390625 42.390625 31.78125 42.390625 
Q 38.140625 42.390625 41.71875 45.5625 
Q 45.3125 48.734375 45.3125 54.390625 
Q 45.3125 60.0625 41.71875 63.234375 
Q 38.140625 66.40625 31.78125 66.40625 
Q 25.390625 66.40625 21.84375 63.234375 
Q 18.3125 60.0625 18.3125 54.390625 
z
" id="DejaVuSans-38"/>
      </defs>
      <g transform="translate(355.283523 399.078438)scale(0.1 -0.1)">
       <use xlink:href="#DejaVuSans-38"/>
       <use x="63.623047" xlink:href="#DejaVuSans-30"/>
       <use x="127.246094" xlink:href="#DejaVuSans-30"/>
      </g>
     </g>
    </g>
    <g id="text_6">
     <!-- time [ms] -->
     <defs>
      <path d="M 18.3125 70.21875 
L 18.3125 54.6875 
L 36.8125 54.6875 
L 36.8125 47.703125 
L 18.3125 47.703125 
L 18.3125 18.015625 
Q 18.3125 11.328125 20.140625 9.421875 
Q 21.96875 7.515625 27.59375 7.515625 
L 36.8125 7.515625 
L 36.8125 0 
L 27.59375 0 
Q 17.1875 0 13.234375 3.875 
Q 9.28125 7.765625 9.28125 18.015625 
L 9.28125 47.703125 
L 2.6875 47.703125 
L 2.6875 54.6875 
L 9.28125 54.6875 
L 9.28125 70.21875 
z
" id="DejaVuSans-74"/>
      <path d="M 9.421875 54.6875 
L 18.40625 54.6875 
L 18.40625 0 
L 9.421875 0 
z
M 9.421875 75.984375 
L 18.40625 75.984375 
L 18.40625 64.59375 
L 9.421875 64.59375 
z
" id="DejaVuSans-69"/>
      <path d="M 52 44.1875 
Q 55.375 50.25 60.0625 53.125 
Q 64.75 56 71.09375 56 
Q 79.640625 56 84.28125 50.015625 
Q 88.921875 44.046875 88.921875 33.015625 
L 88.921875 0 
L 79.890625 0 
L 79.890625 32.71875 
Q 79.890625 40.578125 77.09375 44.375 
Q 74.3125 48.1875 68.609375 48.1875 
Q 61.625 48.1875 57.5625 43.546875 
Q 53.515625 38.921875 53.515625 30.90625 
L 53.515625 0 
L 44.484375 0 
L 44.484375 32.71875 
Q 44.484375 40.625 41.703125 44.40625 
Q 38.921875 48.1875 33.109375 48.1875 
Q 26.21875 48.1875 22.15625 43.53125 
Q 18.109375 38.875 18.109375 30.90625 
L 18.109375 0 
L 9.078125 0 
L 9.078125 54.6875 
L 18.109375 54.6875 
L 18.109375 46.1875 
Q 21.1875 51.21875 25.484375 53.609375 
Q 29.78125 56 35.6875 56 
Q 41.65625 56 45.828125 52.96875 
Q 50 49.953125 52 44.1875 
z
" id="DejaVuSans-6d"/>
      <path d="M 56.203125 29.59375 
L 56.203125 25.203125 
L 14.890625 25.203125 
Q 15.484375 15.921875 20.484375 11.0625 
Q 25.484375 6.203125 34.421875 6.203125 
Q 39.59375 6.203125 44.453125 7.46875 
Q 49.3125 8.734375 54.109375 11.28125 
L 54.109375 2.78125 
Q 49.265625 0.734375 44.1875 -0.34375 
Q 39.109375 -1.421875 33.890625 -1.421875 
Q 20.796875 -1.421875 13.15625 6.1875 
Q 5.515625 13.8125 5.515625 26.8125 
Q 5.515625 40.234375 12.765625 48.109375 
Q 20.015625 56 32.328125 56 
Q 43.359375 56 49.78125 48.890625 
Q 56.203125 41.796875 56.203125 29.59375 
z
M 47.21875 32.234375 
Q 47.125 39.59375 43.09375 43.984375 
Q 39.0625 48.390625 32.421875 48.390625 
Q 24.90625 48.390625 20.390625 44.140625 
Q 15.875 39.890625 15.1875 32.171875 
z
" id="DejaVuSans-65"/>
      <path id="DejaVuSans-20"/>
      <path d="M 8.59375 75.984375 
L 29.296875 75.984375 
L 29.296875 69 
L 17.578125 69 
L 17.578125 -6.203125 
L 29.296875 -6.203125 
L 29.296875 -13.1875 
L 8.59375 -13.1875 
z
" id="DejaVuSans-5b"/>
      <path d="M 44.28125 53.078125 
L 44.28125 44.578125 
Q 40.484375 46.53125 36.375 47.5 
Q 32.28125 48.484375 27.875 48.484375 
Q 21.1875 48.484375 17.84375 46.4375 
Q 14.5 44.390625 14.5 40.28125 
Q 14.5 37.15625 16.890625 35.375 
Q 19.28125 33.59375 26.515625 31.984375 
L 29.59375 31.296875 
Q 39.15625 29.25 43.1875 25.515625 
Q 47.21875 21.78125 47.21875 15.09375 
Q 47.21875 7.46875 41.1875 3.015625 
Q 35.15625 -1.421875 24.609375 -1.421875 
Q 20.21875 -1.421875 15.453125 -0.5625 
Q 10.6875 0.296875 5.421875 2 
L 5.421875 11.28125 
Q 10.40625 8.6875 15.234375 7.390625 
Q 20.0625 6.109375 24.8125 6.109375 
Q 31.15625 6.109375 34.5625 8.28125 
Q 37.984375 10.453125 37.984375 14.40625 
Q 37.984375 18.0625 35.515625 20.015625 
Q 33.0625 21.96875 24.703125 23.78125 
L 21.578125 24.515625 
Q 13.234375 26.265625 9.515625 29.90625 
Q 5.8125 33.546875 5.8125 39.890625 
Q 5.8125 47.609375 11.28125 51.796875 
Q 16.75 56 26.8125 56 
Q 31.78125 56 36.171875 55.265625 
Q 40.578125 54.546875 44.28125 53.078125 
z
" id="DejaVuSans-73"/>
      <path d="M 30.421875 75.984375 
L 30.421875 -13.1875 
L 9.71875 -13.1875 
L 9.71875 -6.203125 
L 21.390625 -6.203125 
L 21.390625 69 
L 9.71875 69 
L 9.71875 75.984375 
z
" id="DejaVuSans-5d"/>
     </defs>
     <g transform="translate(234.038281 412.756563)scale(0.1 -0.1)">
      <use xlink:href="#DejaVuSans-74"/>
      <use x="39.208984" xlink:href="#DejaVuSans-69"/>
      <use x="66.992188" xlink:href="#DejaVuSans-6d"/>
      <use x="164.404297" xlink:href="#DejaVuSans-65"/>
      <use x="225.927734" xlink:href="#DejaVuSans-20"/>
      <use x="257.714844" xlink:href="#DejaVuSans-5b"/>
      <use x="296.728516" xlink:href="#DejaVuSans-6d"/>
      <use x="394.140625" xlink:href="#DejaVuSans-73"/>
      <use x="446.240234" xlink:href="#DejaVuSans-5d"/>
     </g>
    </g>
   </g>
   <g id="matplotlib.axis_2">
    <g id="ytick_1">
     <g id="line2d_6">
      <defs>
       <path d="M 0 0 
L -3.5 0 
" id="me68f5c3c65" style="stroke:#000000;stroke-width:0.8;"/>
      </defs>
      <g>
       <use style="stroke:#000000;stroke-width:0.8;" x="63" xlink:href="#me68f5c3c65" y="377.846189"/>
      </g>
     </g>
     <g id="text_7">
      <!-- −80 -->
      <defs>
       <path d="M 10.59375 35.5 
L 73.1875 35.5 
L 73.1875 27.203125 
L 10.59375 27.203125 
z
" id="DejaVuSans-2212"/>
      </defs>
      <g transform="translate(34.895313 381.645408)scale(0.1 -0.1)">
       <use xlink:href="#DejaVuSans-2212"/>
       <use x="83.789062" xlink:href="#DejaVuSans-38"/>
       <use x="147.412109" xlink:href="#DejaVuSans-30"/>
      </g>
     </g>
    </g>
    <g id="ytick_2">
     <g id="line2d_7">
      <g>
       <use style="stroke:#000000;stroke-width:0.8;" x="63" xlink:href="#me68f5c3c65" y="330.374545"/>
      </g>
     </g>
     <g id="text_8">
      <!-- −60 -->
      <g transform="translate(34.895313 334.173764)scale(0.1 -0.1)">
       <use xlink:href="#DejaVuSans-2212"/>
       <use x="83.789062" xlink:href="#DejaVuSans-36"/>
       <use x="147.412109" xlink:href="#DejaVuSans-30"/>
      </g>
     </g>
    </g>
    <g id="ytick_3">
     <g id="line2d_8">
      <g>
       <use style="stroke:#000000;stroke-width:0.8;" x="63" xlink:href="#me68f5c3c65" y="282.9029"/>
      </g>
     </g>
     <g id="text_9">
      <!-- −40 -->
      <g transform="translate(34.895313 286.702119)scale(0.1 -0.1)">
       <use xlink:href="#DejaVuSans-2212"/>
       <use x="83.789062" xlink:href="#DejaVuSans-34"/>
       <use x="147.412109" xlink:href="#DejaVuSans-30"/>
      </g>
     </g>
    </g>
    <g id="ytick_4">
     <g id="line2d_9">
      <g>
       <use style="stroke:#000000;stroke-width:0.8;" x="63" xlink:href="#me68f5c3c65" y="235.431256"/>
      </g>
     </g>
     <g id="text_10">
      <!-- −20 -->
      <g transform="translate(34.895313 239.230475)scale(0.1 -0.1)">
       <use xlink:href="#DejaVuSans-2212"/>
       <use x="83.789062" xlink:href="#DejaVuSans-32"/>
       <use x="147.412109" xlink:href="#DejaVuSans-30"/>
      </g>
     </g>
    </g>
    <g id="ytick_5">
     <g id="line2d_10">
      <g>
       <use style="stroke:#000000;stroke-width:0.8;" x="63" xlink:href="#me68f5c3c65" y="187.959612"/>
      </g>
     </g>
     <g id="text_11">
      <!-- 0 -->
      <g transform="translate(49.6375 191.758831)scale(0.1 -0.1)">
       <use xlink:href="#DejaVuSans-30"/>
      </g>
     </g>
    </g>
    <g id="ytick_6">
     <g id="line2d_11">
      <g>
       <use style="stroke:#000000;stroke-width:0.8;" x="63" xlink:href="#me68f5c3c65" y="140.487968"/>
      </g>
     </g>
     <g id="text_12">
      <!-- 20 -->
      <g transform="translate(43.275 144.287186)scale(0.1 -0.1)">
       <use xlink:href="#DejaVuSans-32"/>
       <use x="63.623047" xlink:href="#DejaVuSans-30"/>
      </g>
     </g>
    </g>
    <g id="ytick_7">
     <g id="line2d_12">
      <g>
       <use style="stroke:#000000;stroke-width:0.8;" x="63" xlink:href="#me68f5c3c65" y="93.016323"/>
      </g>
     </g>
     <g id="text_13">
      <!-- 40 -->
      <g transform="translate(43.275 96.815542)scale(0.1 -0.1)">
       <use xlink:href="#DejaVuSans-34"/>
       <use x="63.623047" xlink:href="#DejaVuSans-30"/>
      </g>
     </g>
    </g>
    <g id="text_14">
     <!-- voltage [V] -->
     <defs>
      <path d="M 2.984375 54.6875 
L 12.5 54.6875 
L 29.59375 8.796875 
L 46.6875 54.6875 
L 56.203125 54.6875 
L 35.6875 0 
L 23.484375 0 
z
" id="DejaVuSans-76"/>
      <path d="M 30.609375 48.390625 
Q 23.390625 48.390625 19.1875 42.75 
Q 14.984375 37.109375 14.984375 27.296875 
Q 14.984375 17.484375 19.15625 11.84375 
Q 23.34375 6.203125 30.609375 6.203125 
Q 37.796875 6.203125 41.984375 11.859375 
Q 46.1875 17.53125 46.1875 27.296875 
Q 46.1875 37.015625 41.984375 42.703125 
Q 37.796875 48.390625 30.609375 48.390625 
z
M 30.609375 56 
Q 42.328125 56 49.015625 48.375 
Q 55.71875 40.765625 55.71875 27.296875 
Q 55.71875 13.875 49.015625 6.21875 
Q 42.328125 -1.421875 30.609375 -1.421875 
Q 18.84375 -1.421875 12.171875 6.21875 
Q 5.515625 13.875 5.515625 27.296875 
Q 5.515625 40.765625 12.171875 48.375 
Q 18.84375 56 30.609375 56 
z
" id="DejaVuSans-6f"/>
      <path d="M 9.421875 75.984375 
L 18.40625 75.984375 
L 18.40625 0 
L 9.421875 0 
z
" id="DejaVuSans-6c"/>
      <path d="M 34.28125 27.484375 
Q 23.390625 27.484375 19.1875 25 
Q 14.984375 22.515625 14.984375 16.5 
Q 14.984375 11.71875 18.140625 8.90625 
Q 21.296875 6.109375 26.703125 6.109375 
Q 34.1875 6.109375 38.703125 11.40625 
Q 43.21875 16.703125 43.21875 25.484375 
L 43.21875 27.484375 
z
M 52.203125 31.203125 
L 52.203125 0 
L 43.21875 0 
L 43.21875 8.296875 
Q 40.140625 3.328125 35.546875 0.953125 
Q 30.953125 -1.421875 24.3125 -1.421875 
Q 15.921875 -1.421875 10.953125 3.296875 
Q 6 8.015625 6 15.921875 
Q 6 25.140625 12.171875 29.828125 
Q 18.359375 34.515625 30.609375 34.515625 
L 43.21875 34.515625 
L 43.21875 35.40625 
Q 43.21875 41.609375 39.140625 45 
Q 35.0625 48.390625 27.6875 48.390625 
Q 23 48.390625 18.546875 47.265625 
Q 14.109375 46.140625 10.015625 43.890625 
L 10.015625 52.203125 
Q 14.9375 54.109375 19.578125 55.046875 
Q 24.21875 56 28.609375 56 
Q 40.484375 56 46.34375 49.84375 
Q 52.203125 43.703125 52.203125 31.203125 
z
" id="DejaVuSans-61"/>
      <path d="M 45.40625 27.984375 
Q 45.40625 37.75 41.375 43.109375 
Q 37.359375 48.484375 30.078125 48.484375 
Q 22.859375 48.484375 18.828125 43.109375 
Q 14.796875 37.75 14.796875 27.984375 
Q 14.796875 18.265625 18.828125 12.890625 
Q 22.859375 7.515625 30.078125 7.515625 
Q 37.359375 7.515625 41.375 12.890625 
Q 45.40625 18.265625 45.40625 27.984375 
z
M 54.390625 6.78125 
Q 54.390625 -7.171875 48.1875 -13.984375 
Q 42 -20.796875 29.203125 -20.796875 
Q 24.46875 -20.796875 20.265625 -20.09375 
Q 16.0625 -19.390625 12.109375 -17.921875 
L 12.109375 -9.1875 
Q 16.0625 -11.328125 19.921875 -12.34375 
Q 23.78125 -13.375 27.78125 -13.375 
Q 36.625 -13.375 41.015625 -8.765625 
Q 45.40625 -4.15625 45.40625 5.171875 
L 45.40625 9.625 
Q 42.625 4.78125 38.28125 2.390625 
Q 33.9375 0 27.875 0 
Q 17.828125 0 11.671875 7.65625 
Q 5.515625 15.328125 5.515625 27.984375 
Q 5.515625 40.671875 11.671875 48.328125 
Q 17.828125 56 27.875 56 
Q 33.9375 56 38.28125 53.609375 
Q 42.625 51.21875 45.40625 46.390625 
L 45.40625 54.6875 
L 54.390625 54.6875 
z
" id="DejaVuSans-67"/>
      <path d="M 28.609375 0 
L 0.78125 72.90625 
L 11.078125 72.90625 
L 34.1875 11.53125 
L 57.328125 72.90625 
L 67.578125 72.90625 
L 39.796875 0 
z
" id="DejaVuSans-56"/>
     </defs>
     <g transform="translate(28.815625 245.75375)rotate(-90)scale(0.1 -0.1)">
      <use xlink:href="#DejaVuSans-76"/>
      <use x="59.179688" xlink:href="#DejaVuSans-6f"/>
      <use x="120.361328" xlink:href="#DejaVuSans-6c"/>
      <use x="148.144531" xlink:href="#DejaVuSans-74"/>
      <use x="187.353516" xlink:href="#DejaVuSans-61"/>
      <use x="248.632812" xlink:href="#DejaVuSans-67"/>
      <use x="312.109375" xlink:href="#DejaVuSans-65"/>
      <use x="373.632812" xlink:href="#DejaVuSans-20"/>
      <use x="405.419922" xlink:href="#DejaVuSans-5b"/>
      <use x="444.433594" xlink:href="#DejaVuSans-56"/>
      <use x="512.841797" xlink:href="#DejaVuSans-5d"/>
     </g>
    </g>
   </g>
   <g id="line2d_13">
    <path clip-path="url(#p8afd7a275e)" d="M 80.754545 342.24245 
L 81.926345 342.264133 
L 88.797355 342.790308 
L 101.438591 343.662067 
L 113.671473 344.274317 
L 127.289209 344.727826 
L 143.374827 345.033123 
L 151.772727 345.121565 
L 151.8615 343.691175 
L 152.234345 337.862787 
L 152.731473 333.78335 
L 153.565936 328.963673 
L 155.004055 322.093445 
L 156.726245 314.937007 
L 158.430682 308.759434 
L 160.046345 303.700032 
L 161.608745 299.515842 
L 163.1889 295.914136 
L 164.893336 292.582416 
L 167.503255 288.040542 
L 169.065655 285.104202 
L 169.900118 283.066743 
L 170.468264 281.049693 
L 170.841109 278.804109 
L 171.071918 275.905833 
L 171.1962 271.471065 
L 171.249464 265.786855 
L 171.622309 133.167795 
L 171.675573 131.511318 
L 171.746591 131.681891 
L 171.906382 140.760822 
L 172.190455 178.04231 
L 172.847373 261.747198 
L 173.220218 286.165725 
L 173.5398 294.922955 
L 173.912645 299.489481 
L 174.303245 301.878793 
L 174.782618 303.443379 
L 175.244236 304.253486 
L 175.723609 304.670945 
L 176.220736 304.795294 
L 176.771127 304.673243 
L 177.392536 304.299262 
L 178.209245 303.543783 
L 179.416555 302.090235 
L 181.7424 298.840711 
L 184.991482 294.392754 
L 187.654664 291.140852 
L 192.519409 285.302379 
L 193.566927 283.613918 
L 194.294864 282.017244 
L 194.791991 280.39647 
L 195.129327 278.588678 
L 195.377891 275.933364 
L 195.502173 272.532283 
L 195.573191 265.999724 
L 195.626455 246.55477 
L 195.839509 153.316379 
L 196.017055 147.209982 
L 196.034809 147.180602 
L 196.176845 149.826223 
L 196.407655 161.907944 
L 196.744991 196.438863 
L 197.437418 265.485407 
L 197.810264 282.984583 
L 198.200864 291.278356 
L 198.591464 295.265901 
L 199.070836 297.881291 
L 199.550209 299.41549 
L 200.1006 300.498937 
L 200.6865 301.169979 
L 201.254645 301.502216 
L 201.8583 301.60989 
L 202.586236 301.495816 
L 203.456209 301.114893 
L 204.574745 300.370979 
L 206.261427 298.955444 
L 216.097445 290.261887 
L 220.198745 286.764325 
L 221.849918 285.057779 
L 222.932945 283.630893 
L 223.696391 282.272852 
L 224.246782 280.856788 
L 224.655136 279.175426 
L 224.939209 276.975772 
L 225.116755 273.561731 
L 225.223282 266.649363 
L 225.578373 150.885321 
L 225.596127 150.800431 
L 225.649391 150.926977 
L 225.809182 154.80322 
L 226.111009 170.242007 
L 226.483855 203.249008 
L 227.211791 265.70128 
L 227.620145 281.25565 
L 227.992991 288.353375 
L 228.436855 292.710788 
L 228.933982 295.402858 
L 229.502127 297.249416 
L 230.123536 298.508264 
L 230.7627 299.306932 
L 231.419618 299.777228 
L 232.1298 300.00347 
L 232.928755 300.007401 
L 233.851991 299.780426 
L 235.041545 299.24534 
L 236.710473 298.225187 
L 239.5512 296.187305 
L 247.7538 290.241058 
L 251.784082 287.237255 
L 253.701573 285.535809 
L 254.962145 284.132674 
L 255.849873 282.827617 
L 256.506791 281.466353 
L 256.968409 280.011042 
L 257.305745 278.191927 
L 257.5188 275.909511 
L 257.643082 272.7297 
L 257.731855 264.193409 
L 257.767364 253.089565 
L 257.998173 155.019517 
L 258.122455 151.290372 
L 258.157964 151.721072 
L 258.264491 154.182102 
L 258.566318 168.619145 
L 258.956918 200.01605 
L 259.755873 265.582027 
L 260.181982 281.09702 
L 260.590336 288.27056 
L 261.016445 292.081736 
L 261.495818 294.501261 
L 262.028455 296.158272 
L 262.667618 297.423006 
L 263.342291 298.255997 
L 263.999209 298.739638 
L 264.727145 299.007554 
L 265.561609 299.064826 
L 266.520355 298.897953 
L 267.745418 298.44243 
L 269.361082 297.590366 
L 271.988755 295.918609 
L 283.174118 288.318926 
L 285.677509 286.376026 
L 287.275418 284.861743 
L 288.358445 283.541026 
L 289.139645 282.249 
L 289.707791 280.886025 
L 290.116145 279.332154 
L 290.400218 277.391727 
L 290.577764 274.885142 
L 290.702045 269.583734 
L 290.773064 250.334224 
L 291.1104 151.528624 
L 291.128155 151.49792 
L 291.145909 151.546589 
L 291.341209 157.146242 
L 291.643036 173.88974 
L 292.175673 220.54541 
L 292.761573 265.221847 
L 293.152173 279.76563 
L 293.560527 287.49921 
L 294.004391 291.702971 
L 294.501518 294.285289 
L 295.051909 296.00904 
L 295.691073 297.272666 
L 296.3835 298.124219 
L 297.058173 298.614141 
L 297.803864 298.881292 
L 298.602818 298.936403 
L 299.597073 298.76927 
L 300.839891 298.314111 
L 302.508818 297.445453 
L 305.243018 295.728369 
L 316.517155 288.162911 
L 318.949527 286.277066 
L 320.494173 284.814009 
L 321.5772 283.494269 
L 322.3584 282.197814 
L 322.926545 280.822593 
L 323.3349 279.243479 
L 323.618973 277.238197 
L 323.814273 274.119237 
L 323.9208 267.178778 
L 323.974064 250.492543 
L 324.204873 155.292761 
L 324.3114 151.343602 
L 324.346909 151.682567 
L 324.453436 153.81823 
L 324.755264 168.027368 
L 325.163618 200.325251 
L 325.962573 265.094746 
L 326.388682 280.670304 
L 326.797036 288.005464 
L 327.2409 292.013278 
L 327.738027 294.489168 
L 328.306173 296.187836 
L 328.927582 297.360622 
L 329.602255 298.159308 
L 330.294682 298.639861 
L 331.058127 298.889263 
L 331.910345 298.9196 
L 332.940109 298.71298 
L 334.200682 298.220974 
L 335.958382 297.277393 
L 338.923391 295.390584 
L 350.517109 287.587687 
L 352.665409 285.848416 
L 354.085773 284.419534 
L 355.080027 283.107866 
L 355.807964 281.767181 
L 356.322845 280.339872 
L 356.677936 278.720013 
L 356.9265 276.589428 
L 357.104045 272.635262 
L 357.175064 267.130965 
L 357.210573 257.129822 
L 357.476891 153.474243 
L 357.565664 151.459555 
L 357.618927 151.873439 
L 357.778718 156.505796 
L 358.116055 175.350166 
L 358.648691 222.422222 
L 359.216836 265.39861 
L 359.625191 280.479051 
L 360.033545 287.981934 
L 360.459655 291.943468 
L 360.939027 294.417375 
L 361.471664 296.08257 
L 362.093073 297.309885 
L 362.749991 298.124956 
L 363.460173 298.643504 
L 364.223618 298.90825 
L 364.880536 299.099018 
L 365.750509 309.110135 
L 366.389673 312.307915 
L 367.259645 315.541679 
L 368.289409 318.546018 
L 369.478964 321.332041 
L 370.775045 323.805625 
L 372.213164 326.06792 
L 373.757809 328.087475 
L 375.462245 329.950389 
L 377.344227 331.67248 
L 379.368245 333.227027 
L 381.676336 334.713344 
L 384.215236 336.079816 
L 387.091473 337.370091 
L 390.340555 338.578844 
L 394.0335 339.712099 
L 398.276836 340.777874 
L 403.177091 341.773736 
L 408.787527 342.682135 
L 415.232427 343.494806 
L 422.600564 344.19334 
L 430.980709 344.759555 
L 435.8277 344.999363 
L 435.8277 344.999363 
" style="fill:none;stroke:#1f77b4;stroke-linecap:square;stroke-width:1.5;"/>
   </g>
   <g id="line2d_14">
    <path clip-path="url(#p8afd7a275e)" d="M 80.754545 342.242456 
L 80.985355 342.134349 
L 81.802064 342.079606 
L 84.483 342.192542 
L 97.497082 342.840824 
L 106.889236 343.023238 
L 120.649009 343.042803 
L 151.772727 342.930022 
L 151.985782 335.741002 
L 152.411891 329.243664 
L 153.086564 322.493881 
L 153.992045 315.668199 
L 154.9863 309.786381 
L 155.998309 305.097791 
L 157.045827 301.272459 
L 158.341909 297.410894 
L 159.8688 292.822566 
L 160.330418 290.676413 
L 160.596736 288.442915 
L 160.756527 285.217886 
L 160.827545 280.407615 
L 160.863055 268.700492 
L 160.916318 68.226169 
L 161.022845 151.179522 
L 161.484464 365.517753 
L 161.715273 368.500607 
L 161.946082 369.230364 
L 162.176891 369.359721 
L 162.425455 369.239367 
L 162.780545 368.779064 
L 163.259918 367.743997 
L 163.863573 365.865155 
L 164.591509 362.814669 
L 165.479236 358.044495 
L 166.633282 350.497902 
L 169.065655 332.619093 
L 170.787845 320.936916 
L 172.048418 313.8412 
L 173.166955 308.764791 
L 174.232227 304.918478 
L 175.333009 301.750675 
L 176.575827 298.849439 
L 179.753891 291.812811 
L 180.162245 290.02573 
L 180.410809 287.958759 
L 180.5706 284.453101 
L 180.641618 277.756561 
L 180.677127 243.302451 
L 180.712636 67.09339 
L 180.783655 123.871547 
L 181.209764 362.040389 
L 181.440573 367.212856 
L 181.689136 368.633202 
L 181.919945 368.947308 
L 182.150755 368.921989 
L 182.452582 368.620957 
L 182.878691 367.832173 
L 183.429082 366.306273 
L 184.121509 363.670326 
L 184.955973 359.539989 
L 186.021245 353.04149 
L 187.761191 340.811823 
L 190.087036 324.80922 
L 191.436382 317.0505 
L 192.590427 311.644658 
L 193.673455 307.589269 
L 194.756482 304.375621 
L 195.875018 301.736158 
L 197.117836 299.368574 
L 198.680236 296.890224 
L 201.094855 293.100686 
L 201.751773 291.582447 
L 202.160127 290.08508 
L 202.426445 288.275819 
L 202.586236 285.789327 
L 202.675009 281.49426 
L 202.728273 261.691919 
L 202.763782 69.675816 
L 202.852555 130.61407 
L 203.296418 363.121175 
L 203.527227 367.330167 
L 203.793545 368.711334 
L 204.042109 369.007461 
L 204.272918 368.957194 
L 204.574745 368.633946 
L 205.000855 367.822373 
L 205.569 366.21652 
L 206.261427 363.544677 
L 207.113645 359.29745 
L 208.214427 352.579416 
L 210.2562 338.407999 
L 212.226955 325.383029 
L 213.558545 317.996837 
L 214.730345 312.699296 
L 215.813373 308.785199 
L 216.878645 305.730382 
L 217.979427 303.229457 
L 219.151227 301.109572 
L 220.465064 299.195945 
L 222.027464 297.325417 
L 226.324064 292.426546 
L 226.909964 291.236574 
L 227.300564 289.953418 
L 227.566882 288.32411 
L 227.744427 285.736087 
L 227.8332 281.478182 
L 227.886464 261.681673 
L 227.921973 69.671906 
L 228.010745 130.348616 
L 228.454609 363.077508 
L 228.685418 367.13548 
L 228.951736 368.574686 
L 229.2003 368.933446 
L 229.431109 368.915738 
L 229.732936 368.619171 
L 230.159045 367.834348 
L 230.709436 366.315638 
L 231.401864 363.699636 
L 232.254082 359.527769 
L 233.354864 352.92519 
L 235.467655 338.544159 
L 237.385145 326.206073 
L 238.716736 319.015405 
L 239.888536 313.847965 
L 240.989318 309.96329 
L 242.072345 306.939449 
L 243.155373 304.552478 
L 244.291664 302.569766 
L 245.516727 300.871508 
L 246.866073 299.376882 
L 248.410718 297.998858 
L 250.2927 296.627624 
L 253.381991 294.701554 
L 255.388255 293.329528 
L 256.400264 292.382361 
L 257.074936 291.451461 
L 257.536555 290.432999 
L 257.856136 289.19043 
L 258.086945 287.29989 
L 258.228982 283.898188 
L 258.3 274.963367 
L 258.335509 175.634326 
L 258.353264 69.742436 
L 258.442036 129.846679 
L 258.8859 363.216279 
L 259.116709 367.130604 
L 259.400782 368.605306 
L 259.649345 368.958524 
L 259.880155 368.945875 
L 260.181982 368.655382 
L 260.608091 367.8784 
L 261.158482 366.371046 
L 261.850909 363.774165 
L 262.703127 359.637748 
L 263.821664 352.994031 
L 266.200773 337.063435 
L 267.958473 326.176517 
L 269.272309 319.36351 
L 270.444109 314.410061 
L 271.544891 310.687775 
L 272.627918 307.789905 
L 273.710945 305.505662 
L 274.847236 303.618029 
L 276.054545 302.039925 
L 277.368382 300.689868 
L 278.8065 299.530357 
L 280.439918 298.502263 
L 282.3219 297.585324 
L 284.576727 296.742064 
L 287.417455 295.928503 
L 291.643036 294.974473 
L 297.253473 293.681705 
L 299.241982 292.996078 
L 300.4848 292.345123 
L 301.301509 291.677619 
L 301.869655 290.931568 
L 302.278009 290.022024 
L 302.579836 288.752702 
L 302.775136 286.940431 
L 302.899418 283.624956 
L 302.970436 272.511643 
L 303.005945 108.56301 
L 303.0237 66.96 
L 303.094718 120.1631 
L 303.520827 361.774554 
L 303.733882 366.415263 
L 304.017955 368.234996 
L 304.284273 368.730875 
L 304.515082 368.760819 
L 304.7814 368.546424 
L 305.172 367.90435 
L 305.704636 366.544987 
L 306.379309 364.144439 
L 307.196018 360.352863 
L 308.261291 354.257787 
L 310.143273 341.913096 
L 312.238309 328.67604 
L 313.605409 321.40316 
L 314.812718 316.134815 
L 315.931255 312.214644 
L 317.014282 309.201919 
L 318.097309 306.825678 
L 319.215845 304.896741 
L 320.387645 303.311861 
L 321.648218 301.978885 
L 323.015318 300.85533 
L 324.542209 299.890619 
L 326.2644 299.068743 
L 328.270664 298.364058 
L 330.649773 297.770648 
L 333.614782 297.269422 
L 337.574045 296.839914 
L 343.717118 296.421944 
L 364.827273 295.189022 
L 365.040327 302.588541 
L 365.413173 308.058652 
L 365.963564 312.813505 
L 366.709255 317.288325 
L 367.650245 321.577613 
L 368.751027 325.558385 
L 369.976091 329.166711 
L 371.325436 332.458317 
L 372.781309 335.433111 
L 374.343709 338.129292 
L 376.012636 340.572108 
L 377.770336 342.755835 
L 379.599055 344.678155 
L 381.481036 346.338357 
L 383.398527 347.737763 
L 385.351527 348.890681 
L 387.340036 349.808239 
L 389.381809 350.5067 
L 391.512355 351.000611 
L 393.784936 351.297995 
L 396.306082 351.39847 
L 399.217827 351.284666 
L 402.946282 350.90319 
L 410.669509 349.821029 
L 417.149918 349.039 
L 422.866882 348.577502 
L 429.169745 348.298937 
L 435.845455 348.185185 
L 435.845455 348.185185 
" style="fill:none;stroke:#ff0000;stroke-linecap:square;stroke-width:1.5;"/>
   </g>
   <g id="patch_3">
    <path d="M 63 384.48 
L 63 51.84 
" style="fill:none;stroke:#000000;stroke-linecap:square;stroke-linejoin:miter;stroke-width:0.8;"/>
   </g>
   <g id="patch_4">
    <path d="M 453.6 384.48 
L 453.6 51.84 
" style="fill:none;stroke:#000000;stroke-linecap:square;stroke-linejoin:miter;stroke-width:0.8;"/>
   </g>
   <g id="patch_5">
    <path d="M 63 384.48 
L 453.6 384.48 
" style="fill:none;stroke:#000000;stroke-linecap:square;stroke-linejoin:miter;stroke-width:0.8;"/>
   </g>
   <g id="patch_6">
    <path d="M 63 51.84 
L 453.6 51.84 
" style="fill:none;stroke:#000000;stroke-linecap:square;stroke-linejoin:miter;stroke-width:0.8;"/>
   </g>
   <g id="legend_1">
    <g id="patch_7">
     <path d="M 383.460938 89.19625 
L 446.6 89.19625 
Q 448.6 89.19625 448.6 87.19625 
L 448.6 58.84 
Q 448.6 56.84 446.6 56.84 
L 383.460938 56.84 
Q 381.460938 56.84 381.460938 58.84 
L 381.460938 87.19625 
Q 381.460938 89.19625 383.460938 89.19625 
z
" style="fill:#ffffff;opacity:0.8;stroke:#cccccc;stroke-linejoin:miter;"/>
    </g>
    <g id="line2d_15">
     <path d="M 385.460938 64.938437 
L 405.460938 64.938437 
" style="fill:none;stroke:#1f77b4;stroke-linecap:square;stroke-width:1.5;"/>
    </g>
    <g id="line2d_16"/>
    <g id="text_15">
     <!-- target -->
     <defs>
      <path d="M 41.109375 46.296875 
Q 39.59375 47.171875 37.8125 47.578125 
Q 36.03125 48 33.890625 48 
Q 26.265625 48 22.1875 43.046875 
Q 18.109375 38.09375 18.109375 28.8125 
L 18.109375 0 
L 9.078125 0 
L 9.078125 54.6875 
L 18.109375 54.6875 
L 18.109375 46.1875 
Q 20.953125 51.171875 25.484375 53.578125 
Q 30.03125 56 36.53125 56 
Q 37.453125 56 38.578125 55.875 
Q 39.703125 55.765625 41.0625 55.515625 
z
" id="DejaVuSans-72"/>
     </defs>
     <g transform="translate(413.460938 68.438437)scale(0.1 -0.1)">
      <use xlink:href="#DejaVuSans-74"/>
      <use x="39.208984" xlink:href="#DejaVuSans-61"/>
      <use x="100.488281" xlink:href="#DejaVuSans-72"/>
      <use x="141.585938" xlink:href="#DejaVuSans-67"/>
      <use x="205.0625" xlink:href="#DejaVuSans-65"/>
      <use x="266.585938" xlink:href="#DejaVuSans-74"/>
     </g>
    </g>
    <g id="line2d_17">
     <path d="M 385.460938 79.616562 
L 405.460938 79.616562 
" style="fill:none;stroke:#ff0000;stroke-linecap:square;stroke-width:1.5;"/>
    </g>
    <g id="line2d_18"/>
    <g id="text_16">
     <!-- model -->
     <defs>
      <path d="M 45.40625 46.390625 
L 45.40625 75.984375 
L 54.390625 75.984375 
L 54.390625 0 
L 45.40625 0 
L 45.40625 8.203125 
Q 42.578125 3.328125 38.25 0.953125 
Q 33.9375 -1.421875 27.875 -1.421875 
Q 17.96875 -1.421875 11.734375 6.484375 
Q 5.515625 14.40625 5.515625 27.296875 
Q 5.515625 40.1875 11.734375 48.09375 
Q 17.96875 56 27.875 56 
Q 33.9375 56 38.25 53.625 
Q 42.578125 51.265625 45.40625 46.390625 
z
M 14.796875 27.296875 
Q 14.796875 17.390625 18.875 11.75 
Q 22.953125 6.109375 30.078125 6.109375 
Q 37.203125 6.109375 41.296875 11.75 
Q 45.40625 17.390625 45.40625 27.296875 
Q 45.40625 37.203125 41.296875 42.84375 
Q 37.203125 48.484375 30.078125 48.484375 
Q 22.953125 48.484375 18.875 42.84375 
Q 14.796875 37.203125 14.796875 27.296875 
z
" id="DejaVuSans-64"/>
     </defs>
     <g transform="translate(413.460938 83.116562)scale(0.1 -0.1)">
      <use xlink:href="#DejaVuSans-6d"/>
      <use x="97.412109" xlink:href="#DejaVuSans-6f"/>
      <use x="158.59375" xlink:href="#DejaVuSans-64"/>
      <use x="222.070312" xlink:href="#DejaVuSans-65"/>
      <use x="283.59375" xlink:href="#DejaVuSans-6c"/>
     </g>
    </g>
   </g>
  </g>
 </g>
 <defs>
  <clipPath id="p8afd7a275e">
   <rect height="332.64" width="390.6" x="63" y="51.84"/>
  </clipPath>
 </defs>
</svg>
