<?xml version="1.0" encoding="utf-8" standalone="no"?>
<!DOCTYPE svg PUBLIC "-//W3C//DTD SVG 1.1//EN"
  "http://www.w3.org/Graphics/SVG/1.1/DTD/svg11.dtd">
<!-- Created with matplotlib (https://matplotlib.org/) -->
<svg height="432pt" version="1.1" viewBox="0 0 504 432" width="504pt" xmlns="http://www.w3.org/2000/svg" xmlns:xlink="http://www.w3.org/1999/xlink">
 <metadata>
  <rdf:RDF xmlns:cc="http://creativecommons.org/ns#" xmlns:dc="http://purl.org/dc/elements/1.1/" xmlns:rdf="http://www.w3.org/1999/02/22-rdf-syntax-ns#">
   <cc:Work>
    <dc:type rdf:resource="http://purl.org/dc/dcmitype/StillImage"/>
    <dc:date>2021-02-11T20:52:09.369413</dc:date>
    <dc:format>image/svg+xml</dc:format>
    <dc:creator>
     <cc:Agent>
      <dc:title>Matplotlib v3.3.2, https://matplotlib.org/</dc:title>
     </cc:Agent>
    </dc:creator>
   </cc:Work>
  </rdf:RDF>
 </metadata>
 <defs>
  <style type="text/css">*{stroke-linecap:butt;stroke-linejoin:round;}</style>
 </defs>
 <g id="figure_1">
  <g id="patch_1">
   <path d="M 0 432 
L 504 432 
L 504 0 
L 0 0 
z
" style="fill:#ffffff;"/>
  </g>
  <g id="axes_1">
   <g id="patch_2">
    <path d="M 63 384.48 
L 453.6 384.48 
L 453.6 51.84 
L 63 51.84 
z
" style="fill:#ffffff;"/>
   </g>
   <g id="matplotlib.axis_1">
    <g id="xtick_1">
     <g id="line2d_1">
      <defs>
       <path d="M 0 0 
L 0 3.5 
" id="mcbe4bf9b2a" style="stroke:#000000;stroke-width:0.8;"/>
      </defs>
      <g>
       <use style="stroke:#000000;stroke-width:0.8;" x="80.754545" xlink:href="#mcbe4bf9b2a" y="384.48"/>
      </g>
     </g>
     <g id="text_1">
      <!-- 0 -->
      <g transform="translate(77.573295 399.078438)scale(0.1 -0.1)">
       <defs>
        <path d="M 31.78125 66.40625 
Q 24.171875 66.40625 20.328125 58.90625 
Q 16.5 51.421875 16.5 36.375 
Q 16.5 21.390625 20.328125 13.890625 
Q 24.171875 6.390625 31.78125 6.390625 
Q 39.453125 6.390625 43.28125 13.890625 
Q 47.125 21.390625 47.125 36.375 
Q 47.125 51.421875 43.28125 58.90625 
Q 39.453125 66.40625 31.78125 66.40625 
z
M 31.78125 74.21875 
Q 44.046875 74.21875 50.515625 64.515625 
Q 56.984375 54.828125 56.984375 36.375 
Q 56.984375 17.96875 50.515625 8.265625 
Q 44.046875 -1.421875 31.78125 -1.421875 
Q 19.53125 -1.421875 13.0625 8.265625 
Q 6.59375 17.96875 6.59375 36.375 
Q 6.59375 54.828125 13.0625 64.515625 
Q 19.53125 74.21875 31.78125 74.21875 
z
" id="DejaVuSans-48"/>
       </defs>
       <use xlink:href="#DejaVuSans-48"/>
      </g>
     </g>
    </g>
    <g id="xtick_2">
     <g id="line2d_2">
      <g>
       <use style="stroke:#000000;stroke-width:0.8;" x="151.772727" xlink:href="#mcbe4bf9b2a" y="384.48"/>
      </g>
     </g>
     <g id="text_2">
      <!-- 200 -->
      <g transform="translate(142.228977 399.078438)scale(0.1 -0.1)">
       <defs>
        <path d="M 19.1875 8.296875 
L 53.609375 8.296875 
L 53.609375 0 
L 7.328125 0 
L 7.328125 8.296875 
Q 12.9375 14.109375 22.625 23.890625 
Q 32.328125 33.6875 34.8125 36.53125 
Q 39.546875 41.84375 41.421875 45.53125 
Q 43.3125 49.21875 43.3125 52.78125 
Q 43.3125 58.59375 39.234375 62.25 
Q 35.15625 65.921875 28.609375 65.921875 
Q 23.96875 65.921875 18.8125 64.3125 
Q 13.671875 62.703125 7.8125 59.421875 
L 7.8125 69.390625 
Q 13.765625 71.78125 18.9375 73 
Q 24.125 74.21875 28.421875 74.21875 
Q 39.75 74.21875 46.484375 68.546875 
Q 53.21875 62.890625 53.21875 53.421875 
Q 53.21875 48.921875 51.53125 44.890625 
Q 49.859375 40.875 45.40625 35.40625 
Q 44.1875 33.984375 37.640625 27.21875 
Q 31.109375 20.453125 19.1875 8.296875 
z
" id="DejaVuSans-50"/>
       </defs>
       <use xlink:href="#DejaVuSans-50"/>
       <use x="63.623047" xlink:href="#DejaVuSans-48"/>
       <use x="127.246094" xlink:href="#DejaVuSans-48"/>
      </g>
     </g>
    </g>
    <g id="xtick_3">
     <g id="line2d_3">
      <g>
       <use style="stroke:#000000;stroke-width:0.8;" x="222.790909" xlink:href="#mcbe4bf9b2a" y="384.48"/>
      </g>
     </g>
     <g id="text_3">
      <!-- 400 -->
      <g transform="translate(213.247159 399.078438)scale(0.1 -0.1)">
       <defs>
        <path d="M 37.796875 64.3125 
L 12.890625 25.390625 
L 37.796875 25.390625 
z
M 35.203125 72.90625 
L 47.609375 72.90625 
L 47.609375 25.390625 
L 58.015625 25.390625 
L 58.015625 17.1875 
L 47.609375 17.1875 
L 47.609375 0 
L 37.796875 0 
L 37.796875 17.1875 
L 4.890625 17.1875 
L 4.890625 26.703125 
z
" id="DejaVuSans-52"/>
       </defs>
       <use xlink:href="#DejaVuSans-52"/>
       <use x="63.623047" xlink:href="#DejaVuSans-48"/>
       <use x="127.246094" xlink:href="#DejaVuSans-48"/>
      </g>
     </g>
    </g>
    <g id="xtick_4">
     <g id="line2d_4">
      <g>
       <use style="stroke:#000000;stroke-width:0.8;" x="293.809091" xlink:href="#mcbe4bf9b2a" y="384.48"/>
      </g>
     </g>
     <g id="text_4">
      <!-- 600 -->
      <g transform="translate(284.265341 399.078438)scale(0.1 -0.1)">
       <defs>
        <path d="M 33.015625 40.375 
Q 26.375 40.375 22.484375 35.828125 
Q 18.609375 31.296875 18.609375 23.390625 
Q 18.609375 15.53125 22.484375 10.953125 
Q 26.375 6.390625 33.015625 6.390625 
Q 39.65625 6.390625 43.53125 10.953125 
Q 47.40625 15.53125 47.40625 23.390625 
Q 47.40625 31.296875 43.53125 35.828125 
Q 39.65625 40.375 33.015625 40.375 
z
M 52.59375 71.296875 
L 52.59375 62.3125 
Q 48.875 64.0625 45.09375 64.984375 
Q 41.3125 65.921875 37.59375 65.921875 
Q 27.828125 65.921875 22.671875 59.328125 
Q 17.53125 52.734375 16.796875 39.40625 
Q 19.671875 43.65625 24.015625 45.921875 
Q 28.375 48.1875 33.59375 48.1875 
Q 44.578125 48.1875 50.953125 41.515625 
Q 57.328125 34.859375 57.328125 23.390625 
Q 57.328125 12.15625 50.6875 5.359375 
Q 44.046875 -1.421875 33.015625 -1.421875 
Q 20.359375 -1.421875 13.671875 8.265625 
Q 6.984375 17.96875 6.984375 36.375 
Q 6.984375 53.65625 15.1875 63.9375 
Q 23.390625 74.21875 37.203125 74.21875 
Q 40.921875 74.21875 44.703125 73.484375 
Q 48.484375 72.75 52.59375 71.296875 
z
" id="DejaVuSans-54"/>
       </defs>
       <use xlink:href="#DejaVuSans-54"/>
       <use x="63.623047" xlink:href="#DejaVuSans-48"/>
       <use x="127.246094" xlink:href="#DejaVuSans-48"/>
      </g>
     </g>
    </g>
    <g id="xtick_5">
     <g id="line2d_5">
      <g>
       <use style="stroke:#000000;stroke-width:0.8;" x="364.827273" xlink:href="#mcbe4bf9b2a" y="384.48"/>
      </g>
     </g>
     <g id="text_5">
      <!-- 800 -->
      <g transform="translate(355.283523 399.078438)scale(0.1 -0.1)">
       <defs>
        <path d="M 31.78125 34.625 
Q 24.75 34.625 20.71875 30.859375 
Q 16.703125 27.09375 16.703125 20.515625 
Q 16.703125 13.921875 20.71875 10.15625 
Q 24.75 6.390625 31.78125 6.390625 
Q 38.8125 6.390625 42.859375 10.171875 
Q 46.921875 13.96875 46.921875 20.515625 
Q 46.921875 27.09375 42.890625 30.859375 
Q 38.875 34.625 31.78125 34.625 
z
M 21.921875 38.8125 
Q 15.578125 40.375 12.03125 44.71875 
Q 8.5 49.078125 8.5 55.328125 
Q 8.5 64.0625 14.71875 69.140625 
Q 20.953125 74.21875 31.78125 74.21875 
Q 42.671875 74.21875 48.875 69.140625 
Q 55.078125 64.0625 55.078125 55.328125 
Q 55.078125 49.078125 51.53125 44.71875 
Q 48 40.375 41.703125 38.8125 
Q 48.828125 37.15625 52.796875 32.3125 
Q 56.78125 27.484375 56.78125 20.515625 
Q 56.78125 9.90625 50.3125 4.234375 
Q 43.84375 -1.421875 31.78125 -1.421875 
Q 19.734375 -1.421875 13.25 4.234375 
Q 6.78125 9.90625 6.78125 20.515625 
Q 6.78125 27.484375 10.78125 32.3125 
Q 14.796875 37.15625 21.921875 38.8125 
z
M 18.3125 54.390625 
Q 18.3125 48.734375 21.84375 45.5625 
Q 25.390625 42.390625 31.78125 42.390625 
Q 38.140625 42.390625 41.71875 45.5625 
Q 45.3125 48.734375 45.3125 54.390625 
Q 45.3125 60.0625 41.71875 63.234375 
Q 38.140625 66.40625 31.78125 66.40625 
Q 25.390625 66.40625 21.84375 63.234375 
Q 18.3125 60.0625 18.3125 54.390625 
z
" id="DejaVuSans-56"/>
       </defs>
       <use xlink:href="#DejaVuSans-56"/>
       <use x="63.623047" xlink:href="#DejaVuSans-48"/>
       <use x="127.246094" xlink:href="#DejaVuSans-48"/>
      </g>
     </g>
    </g>
    <g id="text_6">
     <!-- time [ms] -->
     <g transform="translate(234.038281 412.756563)scale(0.1 -0.1)">
      <defs>
       <path d="M 18.3125 70.21875 
L 18.3125 54.6875 
L 36.8125 54.6875 
L 36.8125 47.703125 
L 18.3125 47.703125 
L 18.3125 18.015625 
Q 18.3125 11.328125 20.140625 9.421875 
Q 21.96875 7.515625 27.59375 7.515625 
L 36.8125 7.515625 
L 36.8125 0 
L 27.59375 0 
Q 17.1875 0 13.234375 3.875 
Q 9.28125 7.765625 9.28125 18.015625 
L 9.28125 47.703125 
L 2.6875 47.703125 
L 2.6875 54.6875 
L 9.28125 54.6875 
L 9.28125 70.21875 
z
" id="DejaVuSans-116"/>
       <path d="M 9.421875 54.6875 
L 18.40625 54.6875 
L 18.40625 0 
L 9.421875 0 
z
M 9.421875 75.984375 
L 18.40625 75.984375 
L 18.40625 64.59375 
L 9.421875 64.59375 
z
" id="DejaVuSans-105"/>
       <path d="M 52 44.1875 
Q 55.375 50.25 60.0625 53.125 
Q 64.75 56 71.09375 56 
Q 79.640625 56 84.28125 50.015625 
Q 88.921875 44.046875 88.921875 33.015625 
L 88.921875 0 
L 79.890625 0 
L 79.890625 32.71875 
Q 79.890625 40.578125 77.09375 44.375 
Q 74.3125 48.1875 68.609375 48.1875 
Q 61.625 48.1875 57.5625 43.546875 
Q 53.515625 38.921875 53.515625 30.90625 
L 53.515625 0 
L 44.484375 0 
L 44.484375 32.71875 
Q 44.484375 40.625 41.703125 44.40625 
Q 38.921875 48.1875 33.109375 48.1875 
Q 26.21875 48.1875 22.15625 43.53125 
Q 18.109375 38.875 18.109375 30.90625 
L 18.109375 0 
L 9.078125 0 
L 9.078125 54.6875 
L 18.109375 54.6875 
L 18.109375 46.1875 
Q 21.1875 51.21875 25.484375 53.609375 
Q 29.78125 56 35.6875 56 
Q 41.65625 56 45.828125 52.96875 
Q 50 49.953125 52 44.1875 
z
" id="DejaVuSans-109"/>
       <path d="M 56.203125 29.59375 
L 56.203125 25.203125 
L 14.890625 25.203125 
Q 15.484375 15.921875 20.484375 11.0625 
Q 25.484375 6.203125 34.421875 6.203125 
Q 39.59375 6.203125 44.453125 7.46875 
Q 49.3125 8.734375 54.109375 11.28125 
L 54.109375 2.78125 
Q 49.265625 0.734375 44.1875 -0.34375 
Q 39.109375 -1.421875 33.890625 -1.421875 
Q 20.796875 -1.421875 13.15625 6.1875 
Q 5.515625 13.8125 5.515625 26.8125 
Q 5.515625 40.234375 12.765625 48.109375 
Q 20.015625 56 32.328125 56 
Q 43.359375 56 49.78125 48.890625 
Q 56.203125 41.796875 56.203125 29.59375 
z
M 47.21875 32.234375 
Q 47.125 39.59375 43.09375 43.984375 
Q 39.0625 48.390625 32.421875 48.390625 
Q 24.90625 48.390625 20.390625 44.140625 
Q 15.875 39.890625 15.1875 32.171875 
z
" id="DejaVuSans-101"/>
       <path id="DejaVuSans-32"/>
       <path d="M 8.59375 75.984375 
L 29.296875 75.984375 
L 29.296875 69 
L 17.578125 69 
L 17.578125 -6.203125 
L 29.296875 -6.203125 
L 29.296875 -13.1875 
L 8.59375 -13.1875 
z
" id="DejaVuSans-91"/>
       <path d="M 44.28125 53.078125 
L 44.28125 44.578125 
Q 40.484375 46.53125 36.375 47.5 
Q 32.28125 48.484375 27.875 48.484375 
Q 21.1875 48.484375 17.84375 46.4375 
Q 14.5 44.390625 14.5 40.28125 
Q 14.5 37.15625 16.890625 35.375 
Q 19.28125 33.59375 26.515625 31.984375 
L 29.59375 31.296875 
Q 39.15625 29.25 43.1875 25.515625 
Q 47.21875 21.78125 47.21875 15.09375 
Q 47.21875 7.46875 41.1875 3.015625 
Q 35.15625 -1.421875 24.609375 -1.421875 
Q 20.21875 -1.421875 15.453125 -0.5625 
Q 10.6875 0.296875 5.421875 2 
L 5.421875 11.28125 
Q 10.40625 8.6875 15.234375 7.390625 
Q 20.0625 6.109375 24.8125 6.109375 
Q 31.15625 6.109375 34.5625 8.28125 
Q 37.984375 10.453125 37.984375 14.40625 
Q 37.984375 18.0625 35.515625 20.015625 
Q 33.0625 21.96875 24.703125 23.78125 
L 21.578125 24.515625 
Q 13.234375 26.265625 9.515625 29.90625 
Q 5.8125 33.546875 5.8125 39.890625 
Q 5.8125 47.609375 11.28125 51.796875 
Q 16.75 56 26.8125 56 
Q 31.78125 56 36.171875 55.265625 
Q 40.578125 54.546875 44.28125 53.078125 
z
" id="DejaVuSans-115"/>
       <path d="M 30.421875 75.984375 
L 30.421875 -13.1875 
L 9.71875 -13.1875 
L 9.71875 -6.203125 
L 21.390625 -6.203125 
L 21.390625 69 
L 9.71875 69 
L 9.71875 75.984375 
z
" id="DejaVuSans-93"/>
      </defs>
      <use xlink:href="#DejaVuSans-116"/>
      <use x="39.208984" xlink:href="#DejaVuSans-105"/>
      <use x="66.992188" xlink:href="#DejaVuSans-109"/>
      <use x="164.404297" xlink:href="#DejaVuSans-101"/>
      <use x="225.927734" xlink:href="#DejaVuSans-32"/>
      <use x="257.714844" xlink:href="#DejaVuSans-91"/>
      <use x="296.728516" xlink:href="#DejaVuSans-109"/>
      <use x="394.140625" xlink:href="#DejaVuSans-115"/>
      <use x="446.240234" xlink:href="#DejaVuSans-93"/>
     </g>
    </g>
   </g>
   <g id="matplotlib.axis_2">
    <g id="ytick_1">
     <g id="line2d_6">
      <defs>
       <path d="M 0 0 
L -3.5 0 
" id="ma5d42f1b90" style="stroke:#000000;stroke-width:0.8;"/>
      </defs>
      <g>
       <use style="stroke:#000000;stroke-width:0.8;" x="63" xlink:href="#ma5d42f1b90" y="381.291204"/>
      </g>
     </g>
     <g id="text_7">
      <!-- −80 -->
      <g transform="translate(34.895313 385.090423)scale(0.1 -0.1)">
       <defs>
        <path d="M 10.59375 35.5 
L 73.1875 35.5 
L 73.1875 27.203125 
L 10.59375 27.203125 
z
" id="DejaVuSans-8722"/>
       </defs>
       <use xlink:href="#DejaVuSans-8722"/>
       <use x="83.789062" xlink:href="#DejaVuSans-56"/>
       <use x="147.412109" xlink:href="#DejaVuSans-48"/>
      </g>
     </g>
    </g>
    <g id="ytick_2">
     <g id="line2d_7">
      <g>
       <use style="stroke:#000000;stroke-width:0.8;" x="63" xlink:href="#ma5d42f1b90" y="331.243785"/>
      </g>
     </g>
     <g id="text_8">
      <!-- −60 -->
      <g transform="translate(34.895313 335.043004)scale(0.1 -0.1)">
       <use xlink:href="#DejaVuSans-8722"/>
       <use x="83.789062" xlink:href="#DejaVuSans-54"/>
       <use x="147.412109" xlink:href="#DejaVuSans-48"/>
      </g>
     </g>
    </g>
    <g id="ytick_3">
     <g id="line2d_8">
      <g>
       <use style="stroke:#000000;stroke-width:0.8;" x="63" xlink:href="#ma5d42f1b90" y="281.196366"/>
      </g>
     </g>
     <g id="text_9">
      <!-- −40 -->
      <g transform="translate(34.895313 284.995585)scale(0.1 -0.1)">
       <use xlink:href="#DejaVuSans-8722"/>
       <use x="83.789062" xlink:href="#DejaVuSans-52"/>
       <use x="147.412109" xlink:href="#DejaVuSans-48"/>
      </g>
     </g>
    </g>
    <g id="ytick_4">
     <g id="line2d_9">
      <g>
       <use style="stroke:#000000;stroke-width:0.8;" x="63" xlink:href="#ma5d42f1b90" y="231.148948"/>
      </g>
     </g>
     <g id="text_10">
      <!-- −20 -->
      <g transform="translate(34.895313 234.948166)scale(0.1 -0.1)">
       <use xlink:href="#DejaVuSans-8722"/>
       <use x="83.789062" xlink:href="#DejaVuSans-50"/>
       <use x="147.412109" xlink:href="#DejaVuSans-48"/>
      </g>
     </g>
    </g>
    <g id="ytick_5">
     <g id="line2d_10">
      <g>
       <use style="stroke:#000000;stroke-width:0.8;" x="63" xlink:href="#ma5d42f1b90" y="181.101529"/>
      </g>
     </g>
     <g id="text_11">
      <!-- 0 -->
      <g transform="translate(49.6375 184.900748)scale(0.1 -0.1)">
       <use xlink:href="#DejaVuSans-48"/>
      </g>
     </g>
    </g>
    <g id="ytick_6">
     <g id="line2d_11">
      <g>
       <use style="stroke:#000000;stroke-width:0.8;" x="63" xlink:href="#ma5d42f1b90" y="131.05411"/>
      </g>
     </g>
     <g id="text_12">
      <!-- 20 -->
      <g transform="translate(43.275 134.853329)scale(0.1 -0.1)">
       <use xlink:href="#DejaVuSans-50"/>
       <use x="63.623047" xlink:href="#DejaVuSans-48"/>
      </g>
     </g>
    </g>
    <g id="ytick_7">
     <g id="line2d_12">
      <g>
       <use style="stroke:#000000;stroke-width:0.8;" x="63" xlink:href="#ma5d42f1b90" y="81.006691"/>
      </g>
     </g>
     <g id="text_13">
      <!-- 40 -->
      <g transform="translate(43.275 84.80591)scale(0.1 -0.1)">
       <use xlink:href="#DejaVuSans-52"/>
       <use x="63.623047" xlink:href="#DejaVuSans-48"/>
      </g>
     </g>
    </g>
    <g id="text_14">
     <!-- voltage [mV] -->
     <g transform="translate(28.815625 250.624062)rotate(-90)scale(0.1 -0.1)">
      <defs>
       <path d="M 2.984375 54.6875 
L 12.5 54.6875 
L 29.59375 8.796875 
L 46.6875 54.6875 
L 56.203125 54.6875 
L 35.6875 0 
L 23.484375 0 
z
" id="DejaVuSans-118"/>
       <path d="M 30.609375 48.390625 
Q 23.390625 48.390625 19.1875 42.75 
Q 14.984375 37.109375 14.984375 27.296875 
Q 14.984375 17.484375 19.15625 11.84375 
Q 23.34375 6.203125 30.609375 6.203125 
Q 37.796875 6.203125 41.984375 11.859375 
Q 46.1875 17.53125 46.1875 27.296875 
Q 46.1875 37.015625 41.984375 42.703125 
Q 37.796875 48.390625 30.609375 48.390625 
z
M 30.609375 56 
Q 42.328125 56 49.015625 48.375 
Q 55.71875 40.765625 55.71875 27.296875 
Q 55.71875 13.875 49.015625 6.21875 
Q 42.328125 -1.421875 30.609375 -1.421875 
Q 18.84375 -1.421875 12.171875 6.21875 
Q 5.515625 13.875 5.515625 27.296875 
Q 5.515625 40.765625 12.171875 48.375 
Q 18.84375 56 30.609375 56 
z
" id="DejaVuSans-111"/>
       <path d="M 9.421875 75.984375 
L 18.40625 75.984375 
L 18.40625 0 
L 9.421875 0 
z
" id="DejaVuSans-108"/>
       <path d="M 34.28125 27.484375 
Q 23.390625 27.484375 19.1875 25 
Q 14.984375 22.515625 14.984375 16.5 
Q 14.984375 11.71875 18.140625 8.90625 
Q 21.296875 6.109375 26.703125 6.109375 
Q 34.1875 6.109375 38.703125 11.40625 
Q 43.21875 16.703125 43.21875 25.484375 
L 43.21875 27.484375 
z
M 52.203125 31.203125 
L 52.203125 0 
L 43.21875 0 
L 43.21875 8.296875 
Q 40.140625 3.328125 35.546875 0.953125 
Q 30.953125 -1.421875 24.3125 -1.421875 
Q 15.921875 -1.421875 10.953125 3.296875 
Q 6 8.015625 6 15.921875 
Q 6 25.140625 12.171875 29.828125 
Q 18.359375 34.515625 30.609375 34.515625 
L 43.21875 34.515625 
L 43.21875 35.40625 
Q 43.21875 41.609375 39.140625 45 
Q 35.0625 48.390625 27.6875 48.390625 
Q 23 48.390625 18.546875 47.265625 
Q 14.109375 46.140625 10.015625 43.890625 
L 10.015625 52.203125 
Q 14.9375 54.109375 19.578125 55.046875 
Q 24.21875 56 28.609375 56 
Q 40.484375 56 46.34375 49.84375 
Q 52.203125 43.703125 52.203125 31.203125 
z
" id="DejaVuSans-97"/>
       <path d="M 45.40625 27.984375 
Q 45.40625 37.75 41.375 43.109375 
Q 37.359375 48.484375 30.078125 48.484375 
Q 22.859375 48.484375 18.828125 43.109375 
Q 14.796875 37.75 14.796875 27.984375 
Q 14.796875 18.265625 18.828125 12.890625 
Q 22.859375 7.515625 30.078125 7.515625 
Q 37.359375 7.515625 41.375 12.890625 
Q 45.40625 18.265625 45.40625 27.984375 
z
M 54.390625 6.78125 
Q 54.390625 -7.171875 48.1875 -13.984375 
Q 42 -20.796875 29.203125 -20.796875 
Q 24.46875 -20.796875 20.265625 -20.09375 
Q 16.0625 -19.390625 12.109375 -17.921875 
L 12.109375 -9.1875 
Q 16.0625 -11.328125 19.921875 -12.34375 
Q 23.78125 -13.375 27.78125 -13.375 
Q 36.625 -13.375 41.015625 -8.765625 
Q 45.40625 -4.15625 45.40625 5.171875 
L 45.40625 9.625 
Q 42.625 4.78125 38.28125 2.390625 
Q 33.9375 0 27.875 0 
Q 17.828125 0 11.671875 7.65625 
Q 5.515625 15.328125 5.515625 27.984375 
Q 5.515625 40.671875 11.671875 48.328125 
Q 17.828125 56 27.875 56 
Q 33.9375 56 38.28125 53.609375 
Q 42.625 51.21875 45.40625 46.390625 
L 45.40625 54.6875 
L 54.390625 54.6875 
z
" id="DejaVuSans-103"/>
       <path d="M 28.609375 0 
L 0.78125 72.90625 
L 11.078125 72.90625 
L 34.1875 11.53125 
L 57.328125 72.90625 
L 67.578125 72.90625 
L 39.796875 0 
z
" id="DejaVuSans-86"/>
      </defs>
      <use xlink:href="#DejaVuSans-118"/>
      <use x="59.179688" xlink:href="#DejaVuSans-111"/>
      <use x="120.361328" xlink:href="#DejaVuSans-108"/>
      <use x="148.144531" xlink:href="#DejaVuSans-116"/>
      <use x="187.353516" xlink:href="#DejaVuSans-97"/>
      <use x="248.632812" xlink:href="#DejaVuSans-103"/>
      <use x="312.109375" xlink:href="#DejaVuSans-101"/>
      <use x="373.632812" xlink:href="#DejaVuSans-32"/>
      <use x="405.419922" xlink:href="#DejaVuSans-91"/>
      <use x="444.433594" xlink:href="#DejaVuSans-109"/>
      <use x="541.845703" xlink:href="#DejaVuSans-86"/>
      <use x="610.253906" xlink:href="#DejaVuSans-93"/>
     </g>
    </g>
   </g>
   <g id="line2d_13">
    <path clip-path="url(#pe8a7fa6b47)" d="M 80.754545 343.75564 
L 81.988486 343.625016 
L 83.861591 343.683321 
L 87.927382 343.686825 
L 151.772727 343.689828 
L 152.314241 301.245112 
L 152.420768 254.880433 
L 152.562805 81.81796 
L 152.678209 105.858237 
L 153.565936 369.006565 
L 153.610323 368.910724 
L 153.8145 367.596228 
L 154.293873 363.064435 
L 154.959668 354.368946 
L 157.42755 317.293318 
L 157.613973 306.685517 
L 157.738255 285.745427 
L 157.835905 226.109423 
L 157.969064 105.041714 
L 158.031205 117.580094 
L 158.883423 368.601931 
L 158.945564 368.427016 
L 159.203005 366.540228 
L 159.717886 361.132104 
L 160.534595 349.761831 
L 161.8218 332.477955 
L 162.514227 322.595341 
L 162.771668 315.425798 
L 162.940336 303.994217 
L 163.064618 277.333456 
L 163.162268 196.874298 
L 163.268795 105.919045 
L 163.322059 114.988138 
L 163.863573 300.979861 
L 164.147645 368.433522 
L 164.183155 368.571653 
L 164.245295 368.398739 
L 164.493859 366.584019 
L 165.008741 361.194663 
L 165.834327 349.707029 
L 167.112655 332.549022 
L 167.813959 322.561559 
L 168.0714 315.382757 
L 168.240068 303.913641 
L 168.36435 277.098734 
L 168.462 196.1635 
L 168.568527 105.992364 
L 168.621791 115.199838 
L 169.172182 304.74718 
L 169.4385 368.351694 
L 169.482886 368.569651 
L 169.545027 368.392983 
L 169.802468 366.498438 
L 170.31735 361.073298 
L 171.151814 349.431518 
L 172.430141 332.317553 
L 173.113691 322.544042 
L 173.371132 315.347974 
L 173.5398 303.822304 
L 173.664082 276.776429 
L 173.761732 195.065935 
L 173.868259 106.00838 
L 173.921523 115.424802 
L 174.480791 308.628358 
L 174.729355 368.247345 
L 174.782618 368.569651 
L 174.844759 368.38898 
L 175.1022 366.491432 
L 175.617082 361.063038 
L 176.451545 349.419256 
L 177.729873 332.307293 
L 178.413423 322.528027 
L 178.670864 315.313692 
L 178.839532 303.729716 
L 178.963814 276.445615 
L 179.061464 193.936239 
L 179.167991 106.024895 
L 179.221255 115.652267 
L 179.7894 312.607878 
L 180.029086 368.259107 
L 180.08235 368.569901 
L 180.144491 368.384726 
L 180.401932 366.484425 
L 180.916814 361.053029 
L 181.751277 349.407495 
L 183.029605 332.297283 
L 183.713155 322.511762 
L 183.970595 315.279159 
L 184.139264 303.636128 
L 184.263545 276.107044 
L 184.361195 192.786675 
L 184.467723 106.047667 
L 184.520986 115.883236 
L 185.098009 316.674982 
L 185.328818 368.270617 
L 185.382082 368.569901 
L 185.444223 368.380722 
L 185.701664 366.477168 
L 186.216545 361.043019 
L 187.051009 349.395484 
L 188.329336 332.287274 
L 189.012886 322.495747 
L 189.270327 315.244376 
L 189.438995 303.541038 
L 189.563277 275.763469 
L 189.660927 191.632532 
L 189.767455 106.075944 
L 189.820718 116.116457 
L 190.406618 320.8109 
L 190.619673 368.142997 
L 190.681814 368.569651 
L 190.743955 368.376468 
L 191.010273 366.392588 
L 191.525155 360.923406 
L 192.368495 349.123226 
L 193.637945 332.16716 
L 194.312618 322.479231 
L 194.570059 315.209593 
L 194.738727 303.445447 
L 194.863009 275.41664 
L 194.969536 177.737967 
L 195.058309 106.063182 
L 195.12045 116.35218 
L 195.715227 324.990861 
L 195.919405 368.15776 
L 195.981545 368.569651 
L 196.043686 368.372214 
L 196.310005 366.385331 
L 196.833764 360.803292 
L 197.703736 348.591472 
L 198.955432 331.937192 
L 199.61235 322.462966 
L 199.869791 315.17431 
L 200.038459 303.348855 
L 200.162741 275.062805 
L 200.269268 176.533551 
L 200.358041 106.035155 
L 200.420182 116.591907 
L 201.023836 329.17958 
L 201.219136 368.171774 
L 201.281277 368.56915 
L 201.343418 368.36796 
L 201.609736 366.378074 
L 202.133495 360.792782 
L 202.994591 348.709083 
L 204.255164 331.926933 
L 204.912082 322.4462 
L 205.169523 315.138526 
L 205.338191 303.250763 
L 205.462473 274.701713 
L 205.569 175.321052 
L 205.657773 106.013885 
L 205.719914 116.833386 
L 206.332445 333.331263 
L 206.518868 368.185787 
L 206.581009 368.5689 
L 206.634273 368.407998 
L 206.873959 366.677608 
L 207.388841 361.328039 
L 208.187795 350.258551 
L 209.510509 332.465443 
L 210.202936 322.605351 
L 210.460377 315.477097 
L 210.629045 304.169133 
L 210.753327 278.007345 
L 210.850977 199.315461 
L 210.957505 105.999371 
L 211.019645 117.075866 
L 211.641055 337.394363 
L 211.827477 368.324669 
L 211.880741 368.5684 
L 211.934005 368.403994 
L 212.182568 366.594529 
L 212.69745 361.209677 
L 213.514159 349.855419 
L 214.810241 332.455183 
L 215.502668 322.589085 
L 215.760109 315.442814 
L 215.928777 304.077296 
L 216.053059 277.683788 
L 216.150709 198.191396 
L 216.257236 105.993365 
L 216.319377 117.317845 
L 216.949664 341.308321 
L 217.127209 368.334678 
L 217.171595 368.5689 
L 217.233736 368.39999 
L 217.4823 366.587523 
L 217.997182 361.199668 
L 218.822768 349.713035 
L 220.101095 332.554527 
L 220.8024 322.57282 
L 221.059841 315.408782 
L 221.228509 303.985709 
L 221.352791 277.358981 
L 221.450441 197.067882 
L 221.556968 105.993866 
L 221.610232 115.023421 
L 222.151745 301.032661 
L 222.426941 368.344187 
L 222.471327 368.56915 
L 222.533468 368.395986 
L 222.782032 366.580516 
L 223.296914 361.189658 
L 224.1225 349.700773 
L 225.418582 332.32531 
L 226.111009 322.380137 
L 226.36845 314.996141 
L 226.537118 302.856639 
L 226.652523 277.031671 
L 226.750173 195.939888 
L 226.8567 105.999621 
L 226.909964 115.249886 
L 227.460355 304.818998 
L 227.726673 368.353446 
L 227.771059 368.569651 
L 227.8332 368.391982 
L 228.090641 366.496687 
L 228.605523 361.070796 
L 229.439986 349.428515 
L 230.718314 332.31505 
L 231.401864 322.540289 
L 231.659305 315.339967 
L 231.827973 303.801284 
L 231.952255 276.702108 
L 232.049905 194.811694 
L 232.156432 106.011883 
L 232.209695 115.4761 
L 232.768964 308.703179 
L 233.017527 368.250098 
L 233.070791 368.569651 
L 233.132932 368.387979 
L 233.390373 366.48968 
L 233.905255 361.060786 
L 234.739718 349.416504 
L 236.018045 332.305041 
L 236.701595 322.524274 
L 236.959036 315.305935 
L 237.127705 303.708696 
L 237.251986 276.369543 
L 237.349636 193.677044 
L 237.456164 106.0294 
L 237.509427 115.704567 
L 238.077573 312.684951 
L 238.317259 368.261609 
L 238.370523 368.569901 
L 238.432664 368.383975 
L 238.698982 366.40535 
L 239.213864 360.941423 
L 240.057205 349.144496 
L 241.317777 332.295031 
L 242.001327 322.508259 
L 242.258768 315.271402 
L 242.427436 303.614607 
L 242.551718 276.029221 
L 242.649368 192.524802 
L 242.755895 106.053673 
L 242.809159 115.936036 
L 243.386182 316.753806 
L 243.616991 368.27312 
L 243.670255 368.569901 
L 243.732395 368.379721 
L 243.989836 366.475667 
L 244.504718 361.040767 
L 245.348059 349.262608 
L 246.617509 332.284772 
L 247.301059 322.491993 
L 247.5585 315.236619 
L 247.727168 303.519267 
L 247.85145 275.685145 
L 247.9491 191.369533 
L 248.055627 106.083451 
L 248.108891 116.169757 
L 248.694791 320.891477 
L 248.907845 368.1465 
L 248.969986 368.569651 
L 249.032127 368.375717 
L 249.298445 366.391087 
L 249.822205 360.8113 
L 250.692177 348.600981 
L 251.943873 331.9452 
L 252.600791 322.475478 
L 252.858232 315.201586 
L 253.0269 303.423426 
L 253.151182 275.336564 
L 253.257709 177.463757 
L 253.346482 106.056175 
L 253.408623 116.406732 
L 254.0034 325.072939 
L 254.207577 368.161014 
L 254.269718 368.569401 
L 254.331859 368.371463 
L 254.598177 366.38383 
L 255.121936 360.80079 
L 255.983032 348.718592 
L 257.22585 332.154648 
L 257.900523 322.459212 
L 258.157964 315.166302 
L 258.326632 303.326584 
L 258.450914 274.980978 
L 258.557441 176.256864 
L 258.646214 106.02965 
L 258.708355 116.64721 
L 259.312009 329.261657 
L 259.507309 368.175027 
L 259.56945 368.56915 
L 259.631591 368.366959 
L 259.897909 366.376323 
L 260.421668 360.79053 
L 261.291641 348.576708 
L 262.525582 332.144389 
L 263.200255 322.442446 
L 263.457695 315.130518 
L 263.626364 303.228241 
L 263.750645 274.618634 
L 263.857173 175.043864 
L 263.945945 106.009881 
L 264.008086 116.888689 
L 264.620618 333.41209 
L 264.807041 368.18904 
L 264.869182 368.56865 
L 264.922445 368.407247 
L 265.171009 366.600035 
L 265.685891 361.217685 
L 266.511477 349.734555 
L 267.807559 332.353587 
L 268.499986 322.425931 
L 268.757427 315.094734 
L 268.926095 303.129898 
L 269.050377 274.256291 
L 269.156905 173.839899 
L 269.245677 105.997369 
L 269.298941 114.624293 
L 269.8227 293.825582 
L 270.133405 368.485571 
L 270.168914 368.5684 
L 270.222177 368.403243 
L 270.470741 366.593028 
L 270.985623 361.207425 
L 271.802332 349.852667 
L 273.098414 332.452931 
L 273.790841 322.585332 
L 274.048282 315.435057 
L 274.21695 304.056526 
L 274.341232 277.609718 
L 274.438882 197.934252 
L 274.545409 105.993115 
L 274.598673 114.849256 
L 275.131309 297.416735 
L 275.424259 368.426515 
L 275.459768 368.5689 
L 275.521909 368.399239 
L 275.770473 366.586021 
L 276.285355 361.197416 
L 277.110941 349.710282 
L 278.389268 332.552275 
L 279.090573 322.569066 
L 279.348014 315.400774 
L 279.516682 303.964689 
L 279.640964 277.28441 
L 279.738614 196.810638 
L 279.845141 105.994366 
L 279.898405 115.07522 
L 280.439918 301.104979 
L 280.715114 368.346189 
L 280.7595 368.569401 
L 280.821641 368.395235 
L 281.079082 366.502192 
L 281.593964 361.078553 
L 282.428427 349.437774 
L 283.706755 332.322808 
L 284.390305 322.552801 
L 284.647745 315.366492 
L 284.816414 303.872602 
L 284.940695 276.956599 
L 285.038345 195.682544 
L 285.144873 106.001874 
L 285.198136 115.301435 
L 285.748527 304.892318 
L 286.014845 368.355448 
L 286.059232 368.569651 
L 286.121373 368.390981 
L 286.378814 366.495185 
L 286.902573 360.95919 
L 287.754791 349.035643 
L 289.006486 332.312798 
L 289.690036 322.536786 
L 289.947477 315.332209 
L 290.116145 303.780264 
L 290.240427 276.626537 
L 290.338077 194.553499 
L 290.444605 106.015386 
L 290.497868 115.527899 
L 291.057136 308.77875 
L 291.3057 368.252851 
L 291.358964 368.569901 
L 291.421105 368.386978 
L 291.678545 366.488179 
L 292.193427 361.058534 
L 293.027891 349.413751 
L 294.315095 332.192935 
L 294.989768 322.52052 
L 295.247209 315.297927 
L 295.415877 303.687426 
L 295.540159 276.29247 
L 295.637809 193.415121 
L 295.744336 106.034404 
L 295.7976 115.757116 
L 296.365745 312.762525 
L 296.605432 368.264361 
L 296.658695 368.569901 
L 296.720836 368.382974 
L 296.978277 366.481172 
L 297.493159 361.048525 
L 298.327623 349.40199 
L 299.60595 332.292779 
L 300.2895 322.504505 
L 300.546941 315.263394 
L 300.715609 303.592837 
L 300.839891 275.951147 
L 300.937541 192.262554 
L 301.044068 106.059929 
L 301.097332 115.988836 
L 301.674355 316.832631 
L 301.905164 368.275622 
L 301.958427 368.569901 
L 302.020568 368.37897 
L 302.286886 366.396592 
L 302.810645 360.819057 
L 303.671741 348.740113 
L 304.914559 332.172916 
L 305.589232 322.48824 
L 305.846673 315.228611 
L 306.015341 303.497747 
L 306.139623 275.60657 
L 306.24615 178.390085 
L 306.334923 106.080948 
L 306.397064 116.223308 
L 306.982964 320.972053 
L 307.196018 368.149753 
L 307.258159 368.569651 
L 307.3203 368.374716 
L 307.586618 366.389335 
L 308.110377 360.808798 
L 308.971473 348.728101 
L 310.214291 332.162656 
L 310.888964 322.471974 
L 311.146405 315.193578 
L 311.315073 303.401655 
L 311.439355 275.256238 
L 311.545882 177.190523 
L 311.634655 106.049669 
L 311.696795 116.461033 
L 312.291573 325.154516 
L 312.49575 368.164267 
L 312.557891 368.569401 
L 312.620032 368.370462 
L 312.88635 366.382078 
L 313.410109 360.798538 
L 314.280082 348.585967 
L 315.531777 331.932438 
L 316.188695 322.455208 
L 316.446136 315.158044 
L 316.614805 303.304313 
L 316.739086 274.8994 
L 316.845614 175.981227 
L 316.934386 106.024645 
L 316.996527 116.702012 
L 317.600182 329.343485 
L 317.795482 368.17828 
L 317.857623 368.56915 
L 317.910886 368.41025 
L 318.15945 366.60554 
L 318.674332 361.225442 
L 319.491041 349.874187 
L 320.796 332.361344 
L 321.488427 322.438693 
L 321.745868 315.122261 
L 321.914536 303.20572 
L 322.038818 274.535806 
L 322.145345 174.768003 
L 322.234118 106.006378 
L 322.296259 116.943991 
L 322.908791 333.492666 
L 323.095214 368.192293 
L 323.157355 368.56865 
L 323.210618 368.406246 
L 323.459182 366.598533 
L 323.974064 361.215183 
L 324.790773 349.861926 
L 326.095732 332.351084 
L 326.779282 322.597843 
L 327.036723 315.461582 
L 327.205391 304.127343 
L 327.329673 277.859955 
L 327.427323 198.802976 
L 327.53385 105.995618 
L 327.595991 117.18622 
L 328.2174 337.55001 
L 328.403823 368.329173 
L 328.457086 368.568149 
L 328.51035 368.402242 
L 328.758914 366.591276 
L 329.273795 361.205173 
L 329.318182 360.656904 
L 329.335936 361.516218 
L 329.531236 365.326828 
L 329.620009 365.506248 
L 329.664395 365.451446 
L 329.815309 364.871897 
L 330.214786 362.181598 
L 332.176664 348.087995 
L 332.869091 345.010829 
L 333.428359 343.429831 
L 333.889977 342.720159 
L 334.262823 342.503454 
L 334.617914 342.54174 
L 335.115041 342.857039 
L 336.473264 343.827708 
L 337.121305 343.947322 
L 338.133314 343.836467 
L 339.926523 343.645035 
L 342.163595 343.692831 
L 345.927559 343.687826 
L 435.845455 343.689828 
L 435.845455 343.689828 
" style="fill:none;stroke:#1f77b4;stroke-linecap:square;stroke-width:1.5;"/>
   </g>
   <g id="line2d_14">
    <path clip-path="url(#pe8a7fa6b47)" d="M 80.754545 343.75564 
L 81.287182 354.391575 
L 81.704414 358.889398 
L 82.086136 360.908989 
L 82.441227 361.741748 
L 82.743055 361.970499 
L 83.036005 361.92426 
L 83.417727 361.611069 
L 84.039136 360.766073 
L 86.524773 357.107628 
L 87.31485 356.445094 
L 88.051664 356.107821 
L 88.841741 355.991052 
L 89.862627 356.083056 
L 93.502309 356.586041 
L 96.280895 356.558641 
L 102.379582 356.526604 
L 151.772727 356.528354 
L 152.163327 290.181034 
L 152.243223 211.416998 
L 152.340873 66.96 
L 152.411891 76.610199 
L 152.633823 145.827793 
L 153.361759 369.332541 
L 153.379514 369.36 
L 153.4239 369.235995 
L 153.672464 367.514563 
L 154.125205 362.874192 
L 154.684473 354.5922 
L 155.882905 332.39329 
L 156.344523 321.065858 
L 156.5487 310.069052 
L 156.681859 289.268515 
L 156.779509 231.492556 
L 156.903791 103.853357 
L 156.983686 120.532347 
L 157.791518 368.692379 
L 157.827027 368.596942 
L 158.031205 367.126168 
L 158.483945 362.29572 
L 159.069845 353.353124 
L 160.419191 328.023023 
L 160.756527 318.253713 
L 160.94295 305.354083 
L 161.067232 277.215141 
L 161.164882 187.796578 
L 161.262532 105.552717 
L 161.315795 115.77837 
L 161.892818 322.949514 
L 162.096995 368.440977 
L 162.132505 368.627896 
L 162.194645 368.430746 
L 162.469841 366.22148 
L 162.949214 360.599276 
L 163.597255 349.998503 
L 164.937723 323.673187 
L 165.186286 313.704199 
L 165.3372 297.636937 
L 165.443727 258.177579 
L 165.603518 105.675915 
L 165.710045 133.491273 
L 166.446859 368.515187 
L 166.482368 368.621183 
L 166.535632 368.428496 
L 166.810827 366.220196 
L 167.2902 360.597412 
L 167.938241 349.99617 
L 169.278709 323.674382 
L 169.527273 313.712364 
L 169.678186 297.668714 
L 169.784714 258.310716 
L 169.944505 105.685718 
L 170.051032 133.433319 
L 170.787845 368.513413 
L 170.823355 368.620784 
L 170.876618 368.428824 
L 171.151814 366.220996 
L 171.631186 360.598591 
L 172.279227 349.997709 
L 173.619695 323.677165 
L 173.868259 313.719103 
L 174.019173 297.689344 
L 174.1257 258.389815 
L 174.285491 105.684786 
L 174.392018 133.392771 
L 175.128832 368.512469 
L 175.164341 368.620824 
L 175.217605 368.429386 
L 175.483923 366.305838 
L 175.963295 360.723562 
L 176.611336 350.160332 
L 177.951805 323.924711 
L 178.200368 314.266617 
L 178.351282 299.276244 
L 178.457809 264.264594 
L 178.626477 105.682971 
L 178.750759 139.982002 
L 179.460941 368.422575 
L 179.505327 368.620901 
L 179.567468 368.379509 
L 179.869295 365.880368 
L 180.357545 359.973509 
L 181.041095 348.544793 
L 182.3283 322.923757 
L 182.567986 312.57385 
L 182.710023 296.019967 
L 182.81655 251.934176 
L 182.967464 105.681163 
L 183.065114 130.087874 
L 183.828559 368.604959 
L 183.846314 368.620979 
L 183.881823 368.519542 
L 184.086 367.029669 
L 184.547618 362.037773 
L 185.142395 352.850952 
L 186.509495 327.015294 
L 186.8202 317.499776 
L 186.997745 304.444954 
L 187.11315 277.901232 
L 187.2108 190.50128 
L 187.30845 105.679465 
L 187.361714 115.427728 
L 187.929859 318.41635 
L 188.151791 368.509855 
L 188.1873 368.621056 
L 188.240564 368.431132 
L 188.506882 366.308829 
L 188.986255 360.727976 
L 189.634295 350.166087 
L 190.974764 323.933392 
L 191.223327 314.285555 
L 191.374241 299.329801 
L 191.480768 264.457878 
L 191.649436 105.677903 
L 191.773718 139.862459 
L 192.4839 368.418763 
L 192.528286 368.621132 
L 192.590427 368.381369 
L 192.883377 365.970201 
L 193.36275 360.231304 
L 194.028545 349.200104 
L 195.342382 323.190512 
L 195.582068 313.187419 
L 195.732982 296.083329 
L 195.839509 252.183693 
L 195.990423 105.676502 
L 196.088073 129.974634 
L 196.851518 368.604078 
L 196.869273 368.621206 
L 196.904782 368.520957 
L 197.108959 367.032408 
L 197.570577 362.041877 
L 198.165355 352.856478 
L 199.532455 327.022506 
L 199.843159 317.514095 
L 200.020705 304.48384 
L 200.136109 278.032684 
L 200.233759 190.971456 
L 200.331409 105.675227 
L 200.384673 115.336792 
L 200.943941 314.329189 
L 201.17475 368.507237 
L 201.210259 368.621281 
L 201.263523 368.432867 
L 201.529841 366.311805 
L 202.009214 360.732365 
L 202.657255 350.171812 
L 203.997723 323.942024 
L 204.246286 314.304337 
L 204.3972 299.382743 
L 204.503727 264.648812 
L 204.672395 105.674059 
L 204.796677 139.74287 
L 205.506859 368.414917 
L 205.551245 368.621355 
L 205.613386 368.383231 
L 205.906336 365.973291 
L 206.385709 360.235811 
L 207.051505 349.205902 
L 208.365341 323.199635 
L 208.605027 313.20805 
L 208.755941 296.146602 
L 208.862468 252.432837 
L 209.013382 105.673071 
L 209.111032 129.86041 
L 209.874477 368.603176 
L 209.892232 368.621427 
L 209.927741 368.522385 
L 210.131918 367.035178 
L 210.584659 362.160832 
L 211.170559 353.171451 
L 212.528782 327.629125 
L 212.857241 317.923551 
L 213.034786 305.579101 
L 213.159068 278.165316 
L 213.256718 191.448167 
L 213.354368 105.672256 
L 213.407632 115.244608 
L 213.9669 314.187916 
L 214.197709 368.504542 
L 214.233218 368.621496 
L 214.286482 368.434629 
L 214.5528 366.314832 
L 215.032173 360.736832 
L 215.680214 350.177638 
L 217.020682 323.950815 
L 217.269245 314.323462 
L 217.420159 299.436632 
L 217.526686 264.843096 
L 217.695355 105.671562 
L 217.819636 139.620499 
L 218.529818 368.410928 
L 218.574205 368.621565 
L 218.636345 368.385132 
L 218.929295 365.976453 
L 219.408668 360.240422 
L 220.074464 349.211834 
L 221.3883 323.208976 
L 221.627986 313.229173 
L 221.7789 296.211359 
L 221.885427 252.687741 
L 222.036341 105.670975 
L 222.133991 129.743132 
L 222.897436 368.602216 
L 222.915191 368.621633 
L 222.959577 368.482108 
L 223.199264 366.644667 
L 223.669759 361.346317 
L 224.291168 351.457227 
L 225.658268 325.122264 
L 225.933464 315.344584 
L 226.093255 300.898802 
L 226.208659 264.975399 
L 226.377327 105.670461 
L 226.501609 139.537124 
L 227.211791 368.408185 
L 227.256177 368.621698 
L 227.318318 368.38642 
L 227.611268 365.9786 
L 228.090641 360.243553 
L 228.756436 349.215863 
L 230.070273 323.215322 
L 230.309959 313.243519 
L 230.460873 296.255321 
L 230.5674 252.860054 
L 230.718314 105.670092 
L 230.815964 129.663885 
L 231.579409 368.601553 
L 231.597164 368.62176 
L 231.64155 368.483207 
L 231.872359 366.726781 
L 232.333977 361.586809 
L 232.946509 351.934486 
L 234.322486 325.571112 
L 234.606559 315.829801 
L 234.775227 300.932799 
L 234.890632 265.107879 
L 235.0593 105.669906 
L 235.192459 142.825576 
L 235.884886 368.271896 
L 235.93815 368.621821 
L 236.000291 368.387705 
L 236.293241 365.980743 
L 236.772614 360.246679 
L 237.438409 349.219886 
L 238.752245 323.221659 
L 238.991932 313.257844 
L 239.142845 296.299206 
L 239.249373 253.032026 
L 239.400286 105.669842 
L 239.497936 129.584786 
L 240.261382 368.600882 
L 240.279136 368.621881 
L 240.323523 368.4843 
L 240.554332 366.728758 
L 241.01595 361.589735 
L 241.628482 351.938385 
L 243.004459 325.576543 
L 243.288532 315.841351 
L 243.4572 300.966707 
L 243.572605 265.239988 
L 243.741273 105.669898 
L 243.874432 142.741502 
L 244.566859 368.268042 
L 244.620123 368.621936 
L 244.682264 368.388982 
L 244.975214 365.982876 
L 245.454586 360.249791 
L 246.120382 349.223891 
L 247.434218 323.227974 
L 247.673905 313.272117 
L 247.824818 296.34292 
L 247.931345 253.2033 
L 248.082259 105.670073 
L 248.179909 129.506187 
L 248.943355 368.600196 
L 248.961109 368.621988 
L 249.005495 368.485382 
L 249.236305 366.730722 
L 249.697923 361.592643 
L 250.310455 351.94226 
L 251.686432 325.581943 
L 251.970505 315.852834 
L 252.139173 301.000409 
L 252.254577 265.371258 
L 252.423245 105.670364 
L 252.556405 142.658116 
L 253.248832 368.264168 
L 253.302095 368.622036 
L 253.364236 368.390243 
L 253.657186 365.98499 
L 254.136559 360.252875 
L 254.802355 349.227861 
L 256.116191 323.234234 
L 256.355877 313.286267 
L 256.506791 296.386242 
L 256.613318 253.372995 
L 256.764232 105.67077 
L 256.861882 129.428475 
L 257.625327 368.599499 
L 257.643082 368.622081 
L 257.687468 368.486446 
L 257.918277 366.732663 
L 258.379895 361.595516 
L 258.992427 351.946089 
L 260.368405 325.58728 
L 260.652477 315.864182 
L 260.821145 301.033706 
L 260.93655 265.500914 
L 261.105218 105.671331 
L 261.238377 142.575863 
L 261.930805 368.2603 
L 261.984068 368.622121 
L 262.046209 368.391484 
L 262.339159 365.987073 
L 262.818532 360.255915 
L 263.484327 349.231773 
L 264.798164 323.240402 
L 265.03785 313.300182 
L 265.188764 296.428826 
L 265.295291 253.539723 
L 265.446205 105.671974 
L 265.552732 132.562748 
L 266.298423 368.558648 
L 266.325055 368.622159 
L 266.378318 368.441722 
L 266.644636 366.327118 
L 267.115132 360.877592 
L 267.754295 350.52184 
L 269.103641 324.226303 
L 269.361082 314.401127 
L 269.520873 298.121786 
L 269.6274 260.01729 
L 269.787191 105.672724 
L 269.902595 135.79909 
L 270.630532 368.492118 
L 270.666041 368.622198 
L 270.728182 368.392705 
L 271.021132 365.989126 
L 271.500505 360.25891 
L 272.1663 349.23563 
L 273.480136 323.246473 
L 273.719823 313.313806 
L 273.870736 296.470465 
L 273.977264 253.702483 
L 274.128177 105.673625 
L 274.234705 132.485573 
L 274.980395 368.557402 
L 275.007027 368.622234 
L 275.060291 368.442854 
L 275.326609 366.329094 
L 275.797105 360.880492 
L 276.436268 350.525635 
L 277.785614 324.231957 
L 278.043055 314.413497 
L 278.202845 298.159591 
L 278.309373 260.158854 
L 278.469164 105.67463 
L 278.584568 135.720712 
L 279.312505 368.490192 
L 279.348014 368.62227 
L 279.410155 368.393919 
L 279.703105 365.991168 
L 280.182477 360.26189 
L 280.848273 349.239466 
L 282.162109 323.252491 
L 282.401795 313.327276 
L 282.552709 296.51159 
L 282.659236 253.863165 
L 282.81015 105.675791 
L 282.916677 132.408762 
L 283.662368 368.55615 
L 283.689 368.622303 
L 283.742264 368.44398 
L 283.999705 366.413969 
L 284.4702 361.005263 
L 285.100486 350.848826 
L 286.458709 324.473454 
L 286.71615 314.936735 
L 286.875941 299.72438 
L 286.982468 265.875101 
L 287.151136 105.677057 
L 287.284295 142.334724 
L 287.9856 368.388728 
L 288.029986 368.622334 
L 288.092127 368.395122 
L 288.385077 365.993195 
L 288.86445 360.264849 
L 289.530245 349.243276 
L 290.844082 323.258465 
L 291.083768 313.340642 
L 291.234682 296.552384 
L 291.341209 254.022507 
L 291.492123 105.678472 
L 291.59865 132.332612 
L 292.344341 368.55489 
L 292.370973 368.622361 
L 292.424236 368.445093 
L 292.681677 366.415901 
L 293.152173 361.008108 
L 293.782459 350.852557 
L 295.140682 324.478938 
L 295.398123 314.948391 
L 295.557914 299.758486 
L 295.664441 265.997118 
L 295.833109 105.680026 
L 295.966268 142.255489 
L 296.667573 368.385935 
L 296.711959 368.622385 
L 296.7741 368.396313 
L 297.06705 365.995206 
L 297.546423 360.267783 
L 298.212218 349.247055 
L 299.526055 323.264388 
L 299.765741 313.353893 
L 299.916655 296.592812 
L 300.023182 254.180386 
L 300.174095 105.68176 
L 300.280623 132.256727 
L 301.026314 368.553612 
L 301.052945 368.622408 
L 301.106209 368.446201 
L 301.36365 366.41783 
L 301.834145 361.010948 
L 302.464432 350.856284 
L 303.822655 324.484405 
L 304.080095 314.960012 
L 304.239886 299.792475 
L 304.346414 266.11868 
L 304.515082 105.683606 
L 304.648241 142.175985 
L 305.349545 368.383108 
L 305.393932 368.62243 
L 305.456073 368.397508 
L 305.749023 365.997226 
L 306.228395 360.270732 
L 306.894191 349.250853 
L 308.208027 323.270332 
L 308.447714 313.367187 
L 308.598627 296.633358 
L 308.705155 254.338677 
L 308.856068 105.685566 
L 308.962595 132.180481 
L 309.708286 368.552319 
L 309.734918 368.622451 
L 309.788182 368.447312 
L 310.045623 366.419766 
L 310.516118 361.013799 
L 311.146405 350.860025 
L 312.504627 324.489891 
L 312.762068 314.97167 
L 312.921859 299.826554 
L 313.028386 266.240412 
L 313.197055 105.687546 
L 313.330214 142.096359 
L 314.031518 368.380267 
L 314.075905 368.622472 
L 314.138045 368.398704 
L 314.422118 366.084998 
L 314.901491 360.399032 
L 315.558409 349.57806 
L 316.881123 323.527618 
L 317.129686 313.380479 
L 317.2806 296.673775 
L 317.387127 254.496148 
L 317.538041 105.689584 
L 317.644568 132.104518 
L 318.390259 368.551024 
L 318.416891 368.622492 
L 318.470155 368.448422 
L 318.727595 366.421701 
L 319.198091 361.016648 
L 319.828377 350.863764 
L 321.1866 324.495366 
L 321.444041 314.983299 
L 321.603832 299.86045 
L 321.710359 266.360947 
L 321.879027 105.691672 
L 322.012186 142.017427 
L 322.713491 368.37743 
L 322.757877 368.62251 
L 322.820018 368.399892 
L 323.104091 366.086992 
L 323.583464 360.401951 
L 324.240382 349.58183 
L 325.563095 323.533424 
L 325.811659 313.393683 
L 325.962573 296.713792 
L 326.0691 254.651751 
L 326.220014 105.693799 
L 326.326541 132.029442 
L 327.072232 368.549729 
L 327.098864 368.622527 
L 327.152127 368.449519 
L 327.409568 366.423616 
L 327.880064 361.019469 
L 328.51035 350.867466 
L 329.318182 335.926654 
L 329.335936 337.872099 
L 329.637764 358.085294 
L 329.921836 364.850827 
L 330.205909 367.176303 
L 330.46335 367.827255 
L 330.667527 367.886437 
L 330.898336 367.685705 
L 331.280059 367.004492 
L 331.999118 365.182976 
L 334.422614 358.781952 
L 335.292586 357.198797 
L 336.011645 356.31738 
L 336.659686 355.85476 
L 337.29885 355.66467 
L 338.017909 355.691347 
L 339.092059 355.985066 
L 341.053936 356.516942 
L 342.492055 356.638624 
L 344.968814 356.575332 
L 349.327555 356.518086 
L 378.054409 356.528355 
L 435.845455 356.528354 
L 435.845455 356.528354 
" style="fill:none;stroke:#ff0000;stroke-linecap:square;stroke-width:1.5;"/>
   </g>
   <g id="patch_3">
    <path d="M 63 384.48 
L 63 51.84 
" style="fill:none;stroke:#000000;stroke-linecap:square;stroke-linejoin:miter;stroke-width:0.8;"/>
   </g>
   <g id="patch_4">
    <path d="M 453.6 384.48 
L 453.6 51.84 
" style="fill:none;stroke:#000000;stroke-linecap:square;stroke-linejoin:miter;stroke-width:0.8;"/>
   </g>
   <g id="patch_5">
    <path d="M 63 384.48 
L 453.6 384.48 
" style="fill:none;stroke:#000000;stroke-linecap:square;stroke-linejoin:miter;stroke-width:0.8;"/>
   </g>
   <g id="patch_6">
    <path d="M 63 51.84 
L 453.6 51.84 
" style="fill:none;stroke:#000000;stroke-linecap:square;stroke-linejoin:miter;stroke-width:0.8;"/>
   </g>
   <g id="legend_1">
    <g id="patch_7">
     <path d="M 383.460938 89.19625 
L 446.6 89.19625 
Q 448.6 89.19625 448.6 87.19625 
L 448.6 58.84 
Q 448.6 56.84 446.6 56.84 
L 383.460938 56.84 
Q 381.460938 56.84 381.460938 58.84 
L 381.460938 87.19625 
Q 381.460938 89.19625 383.460938 89.19625 
z
" style="fill:#ffffff;opacity:0.8;stroke:#cccccc;stroke-linejoin:miter;"/>
    </g>
    <g id="line2d_15">
     <path d="M 385.460938 64.938437 
L 405.460938 64.938437 
" style="fill:none;stroke:#1f77b4;stroke-linecap:square;stroke-width:1.5;"/>
    </g>
    <g id="line2d_16"/>
    <g id="text_15">
     <!-- target -->
     <g transform="translate(413.460938 68.438437)scale(0.1 -0.1)">
      <defs>
       <path d="M 41.109375 46.296875 
Q 39.59375 47.171875 37.8125 47.578125 
Q 36.03125 48 33.890625 48 
Q 26.265625 48 22.1875 43.046875 
Q 18.109375 38.09375 18.109375 28.8125 
L 18.109375 0 
L 9.078125 0 
L 9.078125 54.6875 
L 18.109375 54.6875 
L 18.109375 46.1875 
Q 20.953125 51.171875 25.484375 53.578125 
Q 30.03125 56 36.53125 56 
Q 37.453125 56 38.578125 55.875 
Q 39.703125 55.765625 41.0625 55.515625 
z
" id="DejaVuSans-114"/>
      </defs>
      <use xlink:href="#DejaVuSans-116"/>
      <use x="39.208984" xlink:href="#DejaVuSans-97"/>
      <use x="100.488281" xlink:href="#DejaVuSans-114"/>
      <use x="139.851562" xlink:href="#DejaVuSans-103"/>
      <use x="203.328125" xlink:href="#DejaVuSans-101"/>
      <use x="264.851562" xlink:href="#DejaVuSans-116"/>
     </g>
    </g>
    <g id="line2d_17">
     <path d="M 385.460938 79.616562 
L 405.460938 79.616562 
" style="fill:none;stroke:#ff0000;stroke-linecap:square;stroke-width:1.5;"/>
    </g>
    <g id="line2d_18"/>
    <g id="text_16">
     <!-- model -->
     <g transform="translate(413.460938 83.116562)scale(0.1 -0.1)">
      <defs>
       <path d="M 45.40625 46.390625 
L 45.40625 75.984375 
L 54.390625 75.984375 
L 54.390625 0 
L 45.40625 0 
L 45.40625 8.203125 
Q 42.578125 3.328125 38.25 0.953125 
Q 33.9375 -1.421875 27.875 -1.421875 
Q 17.96875 -1.421875 11.734375 6.484375 
Q 5.515625 14.40625 5.515625 27.296875 
Q 5.515625 40.1875 11.734375 48.09375 
Q 17.96875 56 27.875 56 
Q 33.9375 56 38.25 53.625 
Q 42.578125 51.265625 45.40625 46.390625 
z
M 14.796875 27.296875 
Q 14.796875 17.390625 18.875 11.75 
Q 22.953125 6.109375 30.078125 6.109375 
Q 37.203125 6.109375 41.296875 11.75 
Q 45.40625 17.390625 45.40625 27.296875 
Q 45.40625 37.203125 41.296875 42.84375 
Q 37.203125 48.484375 30.078125 48.484375 
Q 22.953125 48.484375 18.875 42.84375 
Q 14.796875 37.203125 14.796875 27.296875 
z
" id="DejaVuSans-100"/>
      </defs>
      <use xlink:href="#DejaVuSans-109"/>
      <use x="97.412109" xlink:href="#DejaVuSans-111"/>
      <use x="158.59375" xlink:href="#DejaVuSans-100"/>
      <use x="222.070312" xlink:href="#DejaVuSans-101"/>
      <use x="283.59375" xlink:href="#DejaVuSans-108"/>
     </g>
    </g>
   </g>
  </g>
 </g>
 <defs>
  <clipPath id="pe8a7fa6b47">
   <rect height="332.64" width="390.6" x="63" y="51.84"/>
  </clipPath>
 </defs>
</svg>
