<?xml version="1.0" encoding="utf-8" standalone="no"?>
<!DOCTYPE svg PUBLIC "-//W3C//DTD SVG 1.1//EN"
  "http://www.w3.org/Graphics/SVG/1.1/DTD/svg11.dtd">
<!-- Created with matplotlib (http://matplotlib.org/) -->
<svg height="432pt" version="1.1" viewBox="0 0 504 432" width="504pt" xmlns="http://www.w3.org/2000/svg" xmlns:xlink="http://www.w3.org/1999/xlink">
 <defs>
  <style type="text/css">
*{stroke-linecap:butt;stroke-linejoin:round;}
  </style>
 </defs>
 <g id="figure_1">
  <g id="patch_1">
   <path d="M 0 432 
L 504 432 
L 504 0 
L 0 0 
z
" style="fill:#ffffff;"/>
  </g>
  <g id="axes_1">
   <g id="patch_2">
    <path d="M 63 384.48 
L 453.6 384.48 
L 453.6 51.84 
L 63 51.84 
z
" style="fill:#ffffff;"/>
   </g>
   <g id="matplotlib.axis_1">
    <g id="xtick_1">
     <g id="line2d_1">
      <defs>
       <path d="M 0 0 
L 0 3.5 
" id="m90947cb78d" style="stroke:#000000;stroke-width:0.8;"/>
      </defs>
      <g>
       <use style="stroke:#000000;stroke-width:0.8;" x="80.754545" xlink:href="#m90947cb78d" y="384.48"/>
      </g>
     </g>
     <g id="text_1">
      <!-- 0 -->
      <defs>
       <path d="M 31.78125 66.40625 
Q 24.171875 66.40625 20.328125 58.90625 
Q 16.5 51.421875 16.5 36.375 
Q 16.5 21.390625 20.328125 13.890625 
Q 24.171875 6.390625 31.78125 6.390625 
Q 39.453125 6.390625 43.28125 13.890625 
Q 47.125 21.390625 47.125 36.375 
Q 47.125 51.421875 43.28125 58.90625 
Q 39.453125 66.40625 31.78125 66.40625 
z
M 31.78125 74.21875 
Q 44.046875 74.21875 50.515625 64.515625 
Q 56.984375 54.828125 56.984375 36.375 
Q 56.984375 17.96875 50.515625 8.265625 
Q 44.046875 -1.421875 31.78125 -1.421875 
Q 19.53125 -1.421875 13.0625 8.265625 
Q 6.59375 17.96875 6.59375 36.375 
Q 6.59375 54.828125 13.0625 64.515625 
Q 19.53125 74.21875 31.78125 74.21875 
z
" id="DejaVuSans-30"/>
      </defs>
      <g transform="translate(77.573295 399.078438)scale(0.1 -0.1)">
       <use xlink:href="#DejaVuSans-30"/>
      </g>
     </g>
    </g>
    <g id="xtick_2">
     <g id="line2d_2">
      <g>
       <use style="stroke:#000000;stroke-width:0.8;" x="151.772727" xlink:href="#m90947cb78d" y="384.48"/>
      </g>
     </g>
     <g id="text_2">
      <!-- 200 -->
      <defs>
       <path d="M 19.1875 8.296875 
L 53.609375 8.296875 
L 53.609375 0 
L 7.328125 0 
L 7.328125 8.296875 
Q 12.9375 14.109375 22.625 23.890625 
Q 32.328125 33.6875 34.8125 36.53125 
Q 39.546875 41.84375 41.421875 45.53125 
Q 43.3125 49.21875 43.3125 52.78125 
Q 43.3125 58.59375 39.234375 62.25 
Q 35.15625 65.921875 28.609375 65.921875 
Q 23.96875 65.921875 18.8125 64.3125 
Q 13.671875 62.703125 7.8125 59.421875 
L 7.8125 69.390625 
Q 13.765625 71.78125 18.9375 73 
Q 24.125 74.21875 28.421875 74.21875 
Q 39.75 74.21875 46.484375 68.546875 
Q 53.21875 62.890625 53.21875 53.421875 
Q 53.21875 48.921875 51.53125 44.890625 
Q 49.859375 40.875 45.40625 35.40625 
Q 44.1875 33.984375 37.640625 27.21875 
Q 31.109375 20.453125 19.1875 8.296875 
z
" id="DejaVuSans-32"/>
      </defs>
      <g transform="translate(142.228977 399.078438)scale(0.1 -0.1)">
       <use xlink:href="#DejaVuSans-32"/>
       <use x="63.623047" xlink:href="#DejaVuSans-30"/>
       <use x="127.246094" xlink:href="#DejaVuSans-30"/>
      </g>
     </g>
    </g>
    <g id="xtick_3">
     <g id="line2d_3">
      <g>
       <use style="stroke:#000000;stroke-width:0.8;" x="222.790909" xlink:href="#m90947cb78d" y="384.48"/>
      </g>
     </g>
     <g id="text_3">
      <!-- 400 -->
      <defs>
       <path d="M 37.796875 64.3125 
L 12.890625 25.390625 
L 37.796875 25.390625 
z
M 35.203125 72.90625 
L 47.609375 72.90625 
L 47.609375 25.390625 
L 58.015625 25.390625 
L 58.015625 17.1875 
L 47.609375 17.1875 
L 47.609375 0 
L 37.796875 0 
L 37.796875 17.1875 
L 4.890625 17.1875 
L 4.890625 26.703125 
z
" id="DejaVuSans-34"/>
      </defs>
      <g transform="translate(213.247159 399.078438)scale(0.1 -0.1)">
       <use xlink:href="#DejaVuSans-34"/>
       <use x="63.623047" xlink:href="#DejaVuSans-30"/>
       <use x="127.246094" xlink:href="#DejaVuSans-30"/>
      </g>
     </g>
    </g>
    <g id="xtick_4">
     <g id="line2d_4">
      <g>
       <use style="stroke:#000000;stroke-width:0.8;" x="293.809091" xlink:href="#m90947cb78d" y="384.48"/>
      </g>
     </g>
     <g id="text_4">
      <!-- 600 -->
      <defs>
       <path d="M 33.015625 40.375 
Q 26.375 40.375 22.484375 35.828125 
Q 18.609375 31.296875 18.609375 23.390625 
Q 18.609375 15.53125 22.484375 10.953125 
Q 26.375 6.390625 33.015625 6.390625 
Q 39.65625 6.390625 43.53125 10.953125 
Q 47.40625 15.53125 47.40625 23.390625 
Q 47.40625 31.296875 43.53125 35.828125 
Q 39.65625 40.375 33.015625 40.375 
z
M 52.59375 71.296875 
L 52.59375 62.3125 
Q 48.875 64.0625 45.09375 64.984375 
Q 41.3125 65.921875 37.59375 65.921875 
Q 27.828125 65.921875 22.671875 59.328125 
Q 17.53125 52.734375 16.796875 39.40625 
Q 19.671875 43.65625 24.015625 45.921875 
Q 28.375 48.1875 33.59375 48.1875 
Q 44.578125 48.1875 50.953125 41.515625 
Q 57.328125 34.859375 57.328125 23.390625 
Q 57.328125 12.15625 50.6875 5.359375 
Q 44.046875 -1.421875 33.015625 -1.421875 
Q 20.359375 -1.421875 13.671875 8.265625 
Q 6.984375 17.96875 6.984375 36.375 
Q 6.984375 53.65625 15.1875 63.9375 
Q 23.390625 74.21875 37.203125 74.21875 
Q 40.921875 74.21875 44.703125 73.484375 
Q 48.484375 72.75 52.59375 71.296875 
z
" id="DejaVuSans-36"/>
      </defs>
      <g transform="translate(284.265341 399.078438)scale(0.1 -0.1)">
       <use xlink:href="#DejaVuSans-36"/>
       <use x="63.623047" xlink:href="#DejaVuSans-30"/>
       <use x="127.246094" xlink:href="#DejaVuSans-30"/>
      </g>
     </g>
    </g>
    <g id="xtick_5">
     <g id="line2d_5">
      <g>
       <use style="stroke:#000000;stroke-width:0.8;" x="364.827273" xlink:href="#m90947cb78d" y="384.48"/>
      </g>
     </g>
     <g id="text_5">
      <!-- 800 -->
      <defs>
       <path d="M 31.78125 34.625 
Q 24.75 34.625 20.71875 30.859375 
Q 16.703125 27.09375 16.703125 20.515625 
Q 16.703125 13.921875 20.71875 10.15625 
Q 24.75 6.390625 31.78125 6.390625 
Q 38.8125 6.390625 42.859375 10.171875 
Q 46.921875 13.96875 46.921875 20.515625 
Q 46.921875 27.09375 42.890625 30.859375 
Q 38.875 34.625 31.78125 34.625 
z
M 21.921875 38.8125 
Q 15.578125 40.375 12.03125 44.71875 
Q 8.5 49.078125 8.5 55.328125 
Q 8.5 64.0625 14.71875 69.140625 
Q 20.953125 74.21875 31.78125 74.21875 
Q 42.671875 74.21875 48.875 69.140625 
Q 55.078125 64.0625 55.078125 55.328125 
Q 55.078125 49.078125 51.53125 44.71875 
Q 48 40.375 41.703125 38.8125 
Q 48.828125 37.15625 52.796875 32.3125 
Q 56.78125 27.484375 56.78125 20.515625 
Q 56.78125 9.90625 50.3125 4.234375 
Q 43.84375 -1.421875 31.78125 -1.421875 
Q 19.734375 -1.421875 13.25 4.234375 
Q 6.78125 9.90625 6.78125 20.515625 
Q 6.78125 27.484375 10.78125 32.3125 
Q 14.796875 37.15625 21.921875 38.8125 
z
M 18.3125 54.390625 
Q 18.3125 48.734375 21.84375 45.5625 
Q 25.390625 42.390625 31.78125 42.390625 
Q 38.140625 42.390625 41.71875 45.5625 
Q 45.3125 48.734375 45.3125 54.390625 
Q 45.3125 60.0625 41.71875 63.234375 
Q 38.140625 66.40625 31.78125 66.40625 
Q 25.390625 66.40625 21.84375 63.234375 
Q 18.3125 60.0625 18.3125 54.390625 
z
" id="DejaVuSans-38"/>
      </defs>
      <g transform="translate(355.283523 399.078438)scale(0.1 -0.1)">
       <use xlink:href="#DejaVuSans-38"/>
       <use x="63.623047" xlink:href="#DejaVuSans-30"/>
       <use x="127.246094" xlink:href="#DejaVuSans-30"/>
      </g>
     </g>
    </g>
    <g id="text_6">
     <!-- time [ms] -->
     <defs>
      <path d="M 18.3125 70.21875 
L 18.3125 54.6875 
L 36.8125 54.6875 
L 36.8125 47.703125 
L 18.3125 47.703125 
L 18.3125 18.015625 
Q 18.3125 11.328125 20.140625 9.421875 
Q 21.96875 7.515625 27.59375 7.515625 
L 36.8125 7.515625 
L 36.8125 0 
L 27.59375 0 
Q 17.1875 0 13.234375 3.875 
Q 9.28125 7.765625 9.28125 18.015625 
L 9.28125 47.703125 
L 2.6875 47.703125 
L 2.6875 54.6875 
L 9.28125 54.6875 
L 9.28125 70.21875 
z
" id="DejaVuSans-74"/>
      <path d="M 9.421875 54.6875 
L 18.40625 54.6875 
L 18.40625 0 
L 9.421875 0 
z
M 9.421875 75.984375 
L 18.40625 75.984375 
L 18.40625 64.59375 
L 9.421875 64.59375 
z
" id="DejaVuSans-69"/>
      <path d="M 52 44.1875 
Q 55.375 50.25 60.0625 53.125 
Q 64.75 56 71.09375 56 
Q 79.640625 56 84.28125 50.015625 
Q 88.921875 44.046875 88.921875 33.015625 
L 88.921875 0 
L 79.890625 0 
L 79.890625 32.71875 
Q 79.890625 40.578125 77.09375 44.375 
Q 74.3125 48.1875 68.609375 48.1875 
Q 61.625 48.1875 57.5625 43.546875 
Q 53.515625 38.921875 53.515625 30.90625 
L 53.515625 0 
L 44.484375 0 
L 44.484375 32.71875 
Q 44.484375 40.625 41.703125 44.40625 
Q 38.921875 48.1875 33.109375 48.1875 
Q 26.21875 48.1875 22.15625 43.53125 
Q 18.109375 38.875 18.109375 30.90625 
L 18.109375 0 
L 9.078125 0 
L 9.078125 54.6875 
L 18.109375 54.6875 
L 18.109375 46.1875 
Q 21.1875 51.21875 25.484375 53.609375 
Q 29.78125 56 35.6875 56 
Q 41.65625 56 45.828125 52.96875 
Q 50 49.953125 52 44.1875 
z
" id="DejaVuSans-6d"/>
      <path d="M 56.203125 29.59375 
L 56.203125 25.203125 
L 14.890625 25.203125 
Q 15.484375 15.921875 20.484375 11.0625 
Q 25.484375 6.203125 34.421875 6.203125 
Q 39.59375 6.203125 44.453125 7.46875 
Q 49.3125 8.734375 54.109375 11.28125 
L 54.109375 2.78125 
Q 49.265625 0.734375 44.1875 -0.34375 
Q 39.109375 -1.421875 33.890625 -1.421875 
Q 20.796875 -1.421875 13.15625 6.1875 
Q 5.515625 13.8125 5.515625 26.8125 
Q 5.515625 40.234375 12.765625 48.109375 
Q 20.015625 56 32.328125 56 
Q 43.359375 56 49.78125 48.890625 
Q 56.203125 41.796875 56.203125 29.59375 
z
M 47.21875 32.234375 
Q 47.125 39.59375 43.09375 43.984375 
Q 39.0625 48.390625 32.421875 48.390625 
Q 24.90625 48.390625 20.390625 44.140625 
Q 15.875 39.890625 15.1875 32.171875 
z
" id="DejaVuSans-65"/>
      <path id="DejaVuSans-20"/>
      <path d="M 8.59375 75.984375 
L 29.296875 75.984375 
L 29.296875 69 
L 17.578125 69 
L 17.578125 -6.203125 
L 29.296875 -6.203125 
L 29.296875 -13.1875 
L 8.59375 -13.1875 
z
" id="DejaVuSans-5b"/>
      <path d="M 44.28125 53.078125 
L 44.28125 44.578125 
Q 40.484375 46.53125 36.375 47.5 
Q 32.28125 48.484375 27.875 48.484375 
Q 21.1875 48.484375 17.84375 46.4375 
Q 14.5 44.390625 14.5 40.28125 
Q 14.5 37.15625 16.890625 35.375 
Q 19.28125 33.59375 26.515625 31.984375 
L 29.59375 31.296875 
Q 39.15625 29.25 43.1875 25.515625 
Q 47.21875 21.78125 47.21875 15.09375 
Q 47.21875 7.46875 41.1875 3.015625 
Q 35.15625 -1.421875 24.609375 -1.421875 
Q 20.21875 -1.421875 15.453125 -0.5625 
Q 10.6875 0.296875 5.421875 2 
L 5.421875 11.28125 
Q 10.40625 8.6875 15.234375 7.390625 
Q 20.0625 6.109375 24.8125 6.109375 
Q 31.15625 6.109375 34.5625 8.28125 
Q 37.984375 10.453125 37.984375 14.40625 
Q 37.984375 18.0625 35.515625 20.015625 
Q 33.0625 21.96875 24.703125 23.78125 
L 21.578125 24.515625 
Q 13.234375 26.265625 9.515625 29.90625 
Q 5.8125 33.546875 5.8125 39.890625 
Q 5.8125 47.609375 11.28125 51.796875 
Q 16.75 56 26.8125 56 
Q 31.78125 56 36.171875 55.265625 
Q 40.578125 54.546875 44.28125 53.078125 
z
" id="DejaVuSans-73"/>
      <path d="M 30.421875 75.984375 
L 30.421875 -13.1875 
L 9.71875 -13.1875 
L 9.71875 -6.203125 
L 21.390625 -6.203125 
L 21.390625 69 
L 9.71875 69 
L 9.71875 75.984375 
z
" id="DejaVuSans-5d"/>
     </defs>
     <g transform="translate(234.038281 412.756563)scale(0.1 -0.1)">
      <use xlink:href="#DejaVuSans-74"/>
      <use x="39.208984" xlink:href="#DejaVuSans-69"/>
      <use x="66.992188" xlink:href="#DejaVuSans-6d"/>
      <use x="164.404297" xlink:href="#DejaVuSans-65"/>
      <use x="225.927734" xlink:href="#DejaVuSans-20"/>
      <use x="257.714844" xlink:href="#DejaVuSans-5b"/>
      <use x="296.728516" xlink:href="#DejaVuSans-6d"/>
      <use x="394.140625" xlink:href="#DejaVuSans-73"/>
      <use x="446.240234" xlink:href="#DejaVuSans-5d"/>
     </g>
    </g>
   </g>
   <g id="matplotlib.axis_2">
    <g id="ytick_1">
     <g id="line2d_6">
      <defs>
       <path d="M 0 0 
L -3.5 0 
" id="m09da84afd4" style="stroke:#000000;stroke-width:0.8;"/>
      </defs>
      <g>
       <use style="stroke:#000000;stroke-width:0.8;" x="63" xlink:href="#m09da84afd4" y="382.277312"/>
      </g>
     </g>
     <g id="text_7">
      <!-- −80 -->
      <defs>
       <path d="M 10.59375 35.5 
L 73.1875 35.5 
L 73.1875 27.203125 
L 10.59375 27.203125 
z
" id="DejaVuSans-2212"/>
      </defs>
      <g transform="translate(34.895313 386.076531)scale(0.1 -0.1)">
       <use xlink:href="#DejaVuSans-2212"/>
       <use x="83.789062" xlink:href="#DejaVuSans-38"/>
       <use x="147.412109" xlink:href="#DejaVuSans-30"/>
      </g>
     </g>
    </g>
    <g id="ytick_2">
     <g id="line2d_7">
      <g>
       <use style="stroke:#000000;stroke-width:0.8;" x="63" xlink:href="#m09da84afd4" y="329.594334"/>
      </g>
     </g>
     <g id="text_8">
      <!-- −60 -->
      <g transform="translate(34.895313 333.393553)scale(0.1 -0.1)">
       <use xlink:href="#DejaVuSans-2212"/>
       <use x="83.789062" xlink:href="#DejaVuSans-36"/>
       <use x="147.412109" xlink:href="#DejaVuSans-30"/>
      </g>
     </g>
    </g>
    <g id="ytick_3">
     <g id="line2d_8">
      <g>
       <use style="stroke:#000000;stroke-width:0.8;" x="63" xlink:href="#m09da84afd4" y="276.911355"/>
      </g>
     </g>
     <g id="text_9">
      <!-- −40 -->
      <g transform="translate(34.895313 280.710574)scale(0.1 -0.1)">
       <use xlink:href="#DejaVuSans-2212"/>
       <use x="83.789062" xlink:href="#DejaVuSans-34"/>
       <use x="147.412109" xlink:href="#DejaVuSans-30"/>
      </g>
     </g>
    </g>
    <g id="ytick_4">
     <g id="line2d_9">
      <g>
       <use style="stroke:#000000;stroke-width:0.8;" x="63" xlink:href="#m09da84afd4" y="224.228377"/>
      </g>
     </g>
     <g id="text_10">
      <!-- −20 -->
      <g transform="translate(34.895313 228.027596)scale(0.1 -0.1)">
       <use xlink:href="#DejaVuSans-2212"/>
       <use x="83.789062" xlink:href="#DejaVuSans-32"/>
       <use x="147.412109" xlink:href="#DejaVuSans-30"/>
      </g>
     </g>
    </g>
    <g id="ytick_5">
     <g id="line2d_10">
      <g>
       <use style="stroke:#000000;stroke-width:0.8;" x="63" xlink:href="#m09da84afd4" y="171.545399"/>
      </g>
     </g>
     <g id="text_11">
      <!-- 0 -->
      <g transform="translate(49.6375 175.344617)scale(0.1 -0.1)">
       <use xlink:href="#DejaVuSans-30"/>
      </g>
     </g>
    </g>
    <g id="ytick_6">
     <g id="line2d_11">
      <g>
       <use style="stroke:#000000;stroke-width:0.8;" x="63" xlink:href="#m09da84afd4" y="118.86242"/>
      </g>
     </g>
     <g id="text_12">
      <!-- 20 -->
      <g transform="translate(43.275 122.661639)scale(0.1 -0.1)">
       <use xlink:href="#DejaVuSans-32"/>
       <use x="63.623047" xlink:href="#DejaVuSans-30"/>
      </g>
     </g>
    </g>
    <g id="ytick_7">
     <g id="line2d_12">
      <g>
       <use style="stroke:#000000;stroke-width:0.8;" x="63" xlink:href="#m09da84afd4" y="66.179442"/>
      </g>
     </g>
     <g id="text_13">
      <!-- 40 -->
      <g transform="translate(43.275 69.978661)scale(0.1 -0.1)">
       <use xlink:href="#DejaVuSans-34"/>
       <use x="63.623047" xlink:href="#DejaVuSans-30"/>
      </g>
     </g>
    </g>
    <g id="text_14">
     <!-- voltage [mV] -->
     <defs>
      <path d="M 2.984375 54.6875 
L 12.5 54.6875 
L 29.59375 8.796875 
L 46.6875 54.6875 
L 56.203125 54.6875 
L 35.6875 0 
L 23.484375 0 
z
" id="DejaVuSans-76"/>
      <path d="M 30.609375 48.390625 
Q 23.390625 48.390625 19.1875 42.75 
Q 14.984375 37.109375 14.984375 27.296875 
Q 14.984375 17.484375 19.15625 11.84375 
Q 23.34375 6.203125 30.609375 6.203125 
Q 37.796875 6.203125 41.984375 11.859375 
Q 46.1875 17.53125 46.1875 27.296875 
Q 46.1875 37.015625 41.984375 42.703125 
Q 37.796875 48.390625 30.609375 48.390625 
z
M 30.609375 56 
Q 42.328125 56 49.015625 48.375 
Q 55.71875 40.765625 55.71875 27.296875 
Q 55.71875 13.875 49.015625 6.21875 
Q 42.328125 -1.421875 30.609375 -1.421875 
Q 18.84375 -1.421875 12.171875 6.21875 
Q 5.515625 13.875 5.515625 27.296875 
Q 5.515625 40.765625 12.171875 48.375 
Q 18.84375 56 30.609375 56 
z
" id="DejaVuSans-6f"/>
      <path d="M 9.421875 75.984375 
L 18.40625 75.984375 
L 18.40625 0 
L 9.421875 0 
z
" id="DejaVuSans-6c"/>
      <path d="M 34.28125 27.484375 
Q 23.390625 27.484375 19.1875 25 
Q 14.984375 22.515625 14.984375 16.5 
Q 14.984375 11.71875 18.140625 8.90625 
Q 21.296875 6.109375 26.703125 6.109375 
Q 34.1875 6.109375 38.703125 11.40625 
Q 43.21875 16.703125 43.21875 25.484375 
L 43.21875 27.484375 
z
M 52.203125 31.203125 
L 52.203125 0 
L 43.21875 0 
L 43.21875 8.296875 
Q 40.140625 3.328125 35.546875 0.953125 
Q 30.953125 -1.421875 24.3125 -1.421875 
Q 15.921875 -1.421875 10.953125 3.296875 
Q 6 8.015625 6 15.921875 
Q 6 25.140625 12.171875 29.828125 
Q 18.359375 34.515625 30.609375 34.515625 
L 43.21875 34.515625 
L 43.21875 35.40625 
Q 43.21875 41.609375 39.140625 45 
Q 35.0625 48.390625 27.6875 48.390625 
Q 23 48.390625 18.546875 47.265625 
Q 14.109375 46.140625 10.015625 43.890625 
L 10.015625 52.203125 
Q 14.9375 54.109375 19.578125 55.046875 
Q 24.21875 56 28.609375 56 
Q 40.484375 56 46.34375 49.84375 
Q 52.203125 43.703125 52.203125 31.203125 
z
" id="DejaVuSans-61"/>
      <path d="M 45.40625 27.984375 
Q 45.40625 37.75 41.375 43.109375 
Q 37.359375 48.484375 30.078125 48.484375 
Q 22.859375 48.484375 18.828125 43.109375 
Q 14.796875 37.75 14.796875 27.984375 
Q 14.796875 18.265625 18.828125 12.890625 
Q 22.859375 7.515625 30.078125 7.515625 
Q 37.359375 7.515625 41.375 12.890625 
Q 45.40625 18.265625 45.40625 27.984375 
z
M 54.390625 6.78125 
Q 54.390625 -7.171875 48.1875 -13.984375 
Q 42 -20.796875 29.203125 -20.796875 
Q 24.46875 -20.796875 20.265625 -20.09375 
Q 16.0625 -19.390625 12.109375 -17.921875 
L 12.109375 -9.1875 
Q 16.0625 -11.328125 19.921875 -12.34375 
Q 23.78125 -13.375 27.78125 -13.375 
Q 36.625 -13.375 41.015625 -8.765625 
Q 45.40625 -4.15625 45.40625 5.171875 
L 45.40625 9.625 
Q 42.625 4.78125 38.28125 2.390625 
Q 33.9375 0 27.875 0 
Q 17.828125 0 11.671875 7.65625 
Q 5.515625 15.328125 5.515625 27.984375 
Q 5.515625 40.671875 11.671875 48.328125 
Q 17.828125 56 27.875 56 
Q 33.9375 56 38.28125 53.609375 
Q 42.625 51.21875 45.40625 46.390625 
L 45.40625 54.6875 
L 54.390625 54.6875 
z
" id="DejaVuSans-67"/>
      <path d="M 28.609375 0 
L 0.78125 72.90625 
L 11.078125 72.90625 
L 34.1875 11.53125 
L 57.328125 72.90625 
L 67.578125 72.90625 
L 39.796875 0 
z
" id="DejaVuSans-56"/>
     </defs>
     <g transform="translate(28.815625 250.624062)rotate(-90)scale(0.1 -0.1)">
      <use xlink:href="#DejaVuSans-76"/>
      <use x="59.179688" xlink:href="#DejaVuSans-6f"/>
      <use x="120.361328" xlink:href="#DejaVuSans-6c"/>
      <use x="148.144531" xlink:href="#DejaVuSans-74"/>
      <use x="187.353516" xlink:href="#DejaVuSans-61"/>
      <use x="248.632812" xlink:href="#DejaVuSans-67"/>
      <use x="312.109375" xlink:href="#DejaVuSans-65"/>
      <use x="373.632812" xlink:href="#DejaVuSans-20"/>
      <use x="405.419922" xlink:href="#DejaVuSans-5b"/>
      <use x="444.433594" xlink:href="#DejaVuSans-6d"/>
      <use x="541.845703" xlink:href="#DejaVuSans-56"/>
      <use x="610.253906" xlink:href="#DejaVuSans-5d"/>
     </g>
    </g>
   </g>
   <g id="line2d_13">
    <path clip-path="url(#p6f8e54aba0)" d="M 80.754545 342.765078 
L 81.952977 342.628366 
L 83.763941 342.685264 
L 87.749836 342.692639 
L 151.772727 342.6958 
L 152.314241 298.015893 
L 152.420768 249.209592 
L 152.562805 67.033433 
L 152.678209 92.339702 
L 153.565936 369.345748 
L 153.610323 369.24486 
L 153.8145 367.861142 
L 154.293873 363.090698 
L 154.959668 353.937294 
L 157.42755 314.909217 
L 157.613973 303.742796 
L 157.738255 281.699975 
L 157.835905 218.923465 
L 157.969064 91.480179 
L 158.031205 104.678845 
L 158.883423 368.919806 
L 158.945564 368.735679 
L 159.203005 366.749531 
L 159.717886 361.056608 
L 160.534595 349.087563 
L 161.8218 330.893496 
L 162.514227 320.490452 
L 162.771668 312.943352 
L 162.940336 300.909769 
L 163.064618 272.84502 
L 163.162268 188.148782 
L 163.268795 92.403712 
L 163.322059 101.950394 
L 163.863573 297.736673 
L 164.147645 368.742528 
L 164.183155 368.887933 
L 164.245295 368.705914 
L 164.493859 366.795629 
L 165.008741 361.122462 
L 165.834327 349.029875 
L 167.112655 330.968306 
L 167.813959 320.454891 
L 168.0714 312.898044 
L 168.240068 300.82495 
L 168.36435 272.597937 
L 168.462 187.400552 
L 168.568527 92.480892 
L 168.621791 102.173243 
L 169.172182 301.702385 
L 169.4385 368.656392 
L 169.482886 368.885826 
L 169.545027 368.699855 
L 169.802468 366.705541 
L 170.31735 360.994706 
L 171.151814 348.739855 
L 172.430141 330.724647 
L 173.113691 320.436452 
L 173.371132 312.86143 
L 173.5398 300.728803 
L 173.664082 272.258658 
L 173.761732 186.245188 
L 173.868259 92.497751 
L 173.921523 102.410053 
L 174.480791 305.78795 
L 174.729355 368.546548 
L 174.782618 368.885826 
L 174.844759 368.69564 
L 175.1022 366.698165 
L 175.617082 360.983906 
L 176.451545 348.726948 
L 177.729873 330.713847 
L 178.413423 320.419593 
L 178.670864 312.825342 
L 178.839532 300.63134 
L 178.963814 271.910424 
L 179.061464 185.056001 
L 179.167991 92.515136 
L 179.221255 102.649497 
L 179.7894 309.977037 
L 180.029086 368.558928 
L 180.08235 368.886089 
L 180.144491 368.691162 
L 180.401932 366.69079 
L 180.916814 360.973369 
L 181.751277 348.714567 
L 183.029605 330.70331 
L 183.713155 320.402471 
L 183.970595 312.788991 
L 184.139264 300.532822 
L 184.263545 271.554023 
L 184.361195 183.845899 
L 184.467723 92.539107 
L 184.520986 102.892629 
L 185.098009 314.258319 
L 185.328818 368.571045 
L 185.382082 368.886089 
L 185.444223 368.686948 
L 185.701664 366.683151 
L 186.216545 360.962833 
L 187.051009 348.701923 
L 188.329336 330.692774 
L 189.012886 320.385613 
L 189.270327 312.752376 
L 189.438995 300.432725 
L 189.563277 271.192355 
L 189.660927 182.630977 
L 189.767455 92.568873 
L 189.820718 103.138132 
L 190.406618 318.61204 
L 190.619673 368.436703 
L 190.681814 368.885826 
L 190.743955 368.68247 
L 191.010273 366.594116 
L 191.525155 360.83692 
L 192.368495 348.415328 
L 193.637945 330.566335 
L 194.312618 320.368227 
L 194.570059 312.715761 
L 194.738727 300.3321 
L 194.863009 270.827262 
L 194.969536 168.004707 
L 195.058309 92.555438 
L 195.12045 103.386269 
L 195.715227 323.012122 
L 195.919405 368.452245 
L 195.981545 368.885826 
L 196.043686 368.677992 
L 196.310005 366.586477 
L 196.833764 360.710481 
L 197.703736 347.855571 
L 198.955432 330.324256 
L 199.61235 320.351105 
L 199.869791 312.67862 
L 200.038459 300.230422 
L 200.162741 270.454793 
L 200.269268 166.736865 
L 200.358041 92.525936 
L 200.420182 103.63862 
L 201.023836 327.421424 
L 201.219136 368.466996 
L 201.281277 368.885299 
L 201.343418 368.673513 
L 201.609736 366.578838 
L 202.133495 360.699418 
L 202.994591 347.979376 
L 204.255164 330.313456 
L 204.912082 320.333456 
L 205.169523 312.640951 
L 205.338191 300.127163 
L 205.462473 270.074685 
L 205.569 165.460515 
L 205.657773 92.503546 
L 205.719914 103.892815 
L 206.332445 331.791741 
L 206.518868 368.481747 
L 206.581009 368.885036 
L 206.634273 368.71566 
L 206.873959 366.894146 
L 207.388841 361.262862 
L 208.187795 349.610441 
L 209.510509 330.880325 
L 210.202936 320.500988 
L 210.460377 312.997352 
L 210.629045 301.093896 
L 210.753327 273.554396 
L 210.850977 190.718499 
L 210.957505 92.488268 
L 211.019645 104.148064 
L 211.641055 336.068808 
L 211.827477 368.627943 
L 211.880741 368.884509 
L 211.934005 368.711445 
L 212.182568 366.806692 
L 212.69745 361.138267 
L 213.514159 349.18608 
L 214.810241 330.869525 
L 215.502668 320.483866 
L 215.760109 312.961264 
L 215.928777 300.997223 
L 216.053059 273.213801 
L 216.150709 189.53524 
L 216.257236 92.481946 
L 216.319377 104.402787 
L 216.949664 340.188881 
L 217.127209 368.638479 
L 217.171595 368.885036 
L 217.233736 368.707231 
L 217.4823 366.799317 
L 217.997182 361.12773 
L 218.822768 349.036197 
L 220.101095 330.974101 
L 220.8024 320.466744 
L 221.059841 312.925439 
L 221.228509 300.900813 
L 221.352791 272.871888 
L 221.450441 188.35256 
L 221.556968 92.482473 
L 221.610232 101.987536 
L 222.151745 297.792254 
L 222.426941 368.648489 
L 222.471327 368.885299 
L 222.533468 368.703016 
L 222.782032 366.791941 
L 223.296914 361.117194 
L 224.1225 349.023289 
L 225.418582 330.732813 
L 226.111009 320.263915 
L 226.36845 312.491068 
L 226.537118 299.712285 
L 226.652523 272.527341 
L 226.750173 187.165164 
L 226.8567 92.488531 
L 226.909964 102.225926 
L 227.460355 301.777985 
L 227.726673 368.658235 
L 227.771059 368.885826 
L 227.8332 368.698801 
L 228.090641 366.703697 
L 228.605523 360.992072 
L 229.439986 348.736694 
L 230.718314 330.722013 
L 231.401864 320.4325 
L 231.659305 312.853 
L 231.827973 300.706676 
L 231.952255 272.180424 
L 232.049905 185.977558 
L 232.156432 92.501438 
L 232.209695 102.464053 
L 232.768964 305.866711 
L 233.017527 368.549445 
L 233.070791 368.885826 
L 233.132932 368.694587 
L 233.390373 366.696321 
L 233.905255 360.981535 
L 234.739718 348.72405 
L 236.018045 330.711476 
L 236.701595 320.415642 
L 236.959036 312.817176 
L 237.127705 300.609213 
L 237.251986 271.830346 
L 237.349636 184.783156 
L 237.456164 92.519877 
L 237.509427 102.704551 
L 238.077573 310.058168 
L 238.317259 368.561562 
L 238.370523 368.886089 
L 238.432664 368.690372 
L 238.690105 366.688946 
L 239.204986 360.970999 
L 240.03945 348.71167 
L 241.317777 330.70094 
L 242.001327 320.398783 
L 242.258768 312.780825 
L 242.427436 300.510169 
L 242.551718 271.472101 
L 242.649368 183.570236 
L 242.755895 92.545429 
L 242.809159 102.94821 
L 243.386182 314.341294 
L 243.616991 368.573679 
L 243.670255 368.886089 
L 243.732395 368.685894 
L 243.989836 366.68157 
L 244.504718 360.960462 
L 245.348059 348.56205 
L 246.617509 330.69014 
L 247.301059 320.381661 
L 247.5585 312.74421 
L 247.727168 300.409808 
L 247.85145 271.109906 
L 247.9491 182.354128 
L 248.055627 92.576775 
L 248.108891 103.194239 
L 248.694791 318.69686 
L 248.907845 368.440391 
L 248.969986 368.885826 
L 249.032127 368.681679 
L 249.298445 366.592536 
L 249.822205 360.718911 
L 250.692177 347.865581 
L 251.943873 330.332686 
L 252.600791 320.364276 
L 252.858232 312.707332 
L 253.0269 300.30892 
L 253.151182 270.742969 
L 253.257709 167.716057 
L 253.346482 92.548063 
L 253.408623 103.443693 
L 254.0034 323.098523 
L 254.207577 368.455669 
L 254.269718 368.885562 
L 254.331859 368.677201 
L 254.598177 366.584897 
L 255.121936 360.707847 
L 255.983032 347.989386 
L 257.22585 330.553164 
L 257.900523 320.347154 
L 258.157964 312.67019 
L 258.326632 300.206978 
L 258.450914 270.368656 
L 258.557441 166.445607 
L 258.646214 92.520141 
L 258.708355 103.696835 
L 259.312009 327.507824 
L 259.507309 368.470421 
L 259.56945 368.885299 
L 259.631591 368.67246 
L 259.897909 366.576994 
L 260.421668 360.697047 
L 261.291641 347.84003 
L 262.525582 330.542364 
L 263.200255 320.329505 
L 263.457695 312.632522 
L 263.626364 300.103456 
L 263.750645 269.987232 
L 263.857173 165.16873 
L 263.945945 92.499331 
L 264.008086 103.95103 
L 264.620618 331.876824 
L 264.807041 368.485172 
L 264.869182 368.884772 
L 264.922445 368.71487 
L 265.171009 366.812487 
L 265.685891 361.146696 
L 266.511477 349.05885 
L 267.807559 330.762579 
L 268.499986 320.31212 
L 268.757427 312.594854 
L 268.926095 299.999934 
L 269.050377 269.605807 
L 269.156905 163.901362 
L 269.245677 92.48616 
L 269.298941 101.567389 
L 269.8227 290.205642 
L 270.133405 368.797318 
L 270.168914 368.884509 
L 270.222177 368.710655 
L 270.470741 366.805112 
L 270.985623 361.135896 
L 271.802332 349.183182 
L 273.098414 330.867155 
L 273.790841 320.479915 
L 274.048282 312.953098 
L 274.21695 300.975359 
L 274.341232 273.13583 
L 274.438882 189.264555 
L 274.545409 92.481682 
L 274.598673 101.804199 
L 275.131309 293.985909 
L 275.424259 368.735153 
L 275.459768 368.885036 
L 275.521909 368.70644 
L 275.770473 366.797736 
L 276.285355 361.12536 
L 277.110941 349.033299 
L 278.389268 330.97173 
L 279.090573 320.462793 
L 279.348014 312.91701 
L 279.516682 300.878686 
L 279.640964 272.79339 
L 279.738614 188.081769 
L 279.845141 92.482999 
L 279.898405 102.042062 
L 280.439918 297.868381 
L 280.715114 368.650596 
L 280.7595 368.885562 
L 280.821641 368.702226 
L 281.079082 366.709492 
L 281.593964 361.000238 
L 282.428427 348.74644 
L 283.706755 330.730179 
L 284.390305 320.445671 
L 284.647745 312.880922 
L 284.816414 300.78175 
L 284.940695 272.448317 
L 285.038345 186.894268 
L 285.144873 92.490902 
L 285.198136 102.280189 
L 285.748527 301.855165 
L 286.014845 368.660343 
L 286.059232 368.885826 
L 286.121373 368.697748 
L 286.378814 366.702116 
L 286.893695 360.989701 
L 287.728159 348.733796 
L 289.006486 330.719642 
L 289.690036 320.428813 
L 289.947477 312.844834 
L 290.116145 300.684549 
L 290.240427 272.100873 
L 290.338077 185.705767 
L 290.444605 92.505126 
L 290.497868 102.51858 
L 291.057136 305.946262 
L 291.3057 368.552343 
L 291.358964 368.886089 
L 291.421105 368.693533 
L 291.678545 366.694741 
L 292.193427 360.979164 
L 293.027891 348.721152 
L 294.315095 330.593466 
L 294.989768 320.411691 
L 295.247209 312.808747 
L 295.415877 300.586822 
L 295.540159 271.749214 
L 295.637809 184.50744 
L 295.744336 92.525146 
L 295.7976 102.759868 
L 296.365745 310.139827 
L 296.605432 368.56446 
L 296.658695 368.886089 
L 296.720836 368.689318 
L 296.978277 366.687365 
L 297.493159 360.968628 
L 298.327623 348.708772 
L 299.60595 330.698569 
L 300.2895 320.394832 
L 300.546941 312.772395 
L 300.715609 300.487252 
L 300.839891 271.389916 
L 300.937541 183.294177 
L 301.044068 92.552014 
L 301.097332 103.00379 
L 301.674355 314.42427 
L 301.905164 368.576313 
L 301.958427 368.886089 
L 302.020568 368.685104 
L 302.286886 366.598331 
L 302.810645 360.727076 
L 303.671741 348.01204 
L 304.914559 330.572393 
L 305.589232 320.37771 
L 305.846673 312.735781 
L 306.015341 300.387154 
L 306.139623 271.027194 
L 306.24615 168.691167 
L 306.334923 92.574141 
L 306.397064 103.25061 
L 306.982964 318.781679 
L 307.196018 368.443816 
L 307.258159 368.885826 
L 307.3203 368.680626 
L 307.586618 366.590692 
L 308.110377 360.716276 
L 308.971473 347.999396 
L 310.214291 330.561593 
L 310.888964 320.360588 
L 311.146405 312.698903 
L 311.315073 300.286003 
L 311.439355 270.658413 
L 311.545882 167.428435 
L 311.634655 92.541214 
L 311.696795 103.500854 
L 312.291573 323.184396 
L 312.49575 368.459094 
L 312.557891 368.885562 
L 312.620032 368.676148 
L 312.88635 366.583053 
L 313.410109 360.705476 
L 314.280082 347.849776 
L 315.531777 330.319252 
L 316.188695 320.342939 
L 316.446136 312.661498 
L 316.614805 300.183534 
L 316.739086 270.282783 
L 316.845614 166.155456 
L 316.934386 92.514873 
L 316.996527 103.754523 
L 317.600182 327.593961 
L 317.795482 368.473845 
L 317.857623 368.885299 
L 317.910886 368.718031 
L 318.150573 366.898097 
L 318.665455 361.268657 
L 319.464409 349.61729 
L 320.787123 330.886384 
L 321.488427 320.325554 
L 321.745868 312.623829 
L 321.914536 300.079749 
L 322.038818 269.900041 
L 322.145345 164.878341 
L 322.234118 92.495643 
L 322.296259 104.009245 
L 322.908791 331.961643 
L 323.095214 368.488596 
L 323.157355 368.884772 
L 323.210618 368.713816 
L 323.459182 366.810907 
L 323.974064 361.144062 
L 324.790773 349.192929 
L 326.095732 330.759945 
L 326.779282 320.493086 
L 327.036723 312.98102 
L 327.205391 301.049906 
L 327.329673 273.399245 
L 327.427323 190.179026 
L 327.53385 92.484316 
L 327.595991 104.26423 
L 328.2174 336.232652 
L 328.403823 368.632684 
L 328.457086 368.884245 
L 328.51035 368.709601 
L 328.758914 366.803268 
L 329.273795 361.133526 
L 329.318182 360.556384 
L 329.335936 361.46095 
L 329.531236 365.472232 
L 329.620009 365.661101 
L 329.664395 365.603413 
L 329.815309 364.993344 
L 330.214786 362.161371 
L 332.176664 347.32558 
L 332.869091 344.086367 
L 333.428359 342.422112 
L 333.889977 341.675068 
L 334.262823 341.44695 
L 334.609036 341.483828 
L 335.061777 341.774375 
L 336.553159 342.870181 
L 337.156814 342.967381 
L 338.097805 342.856747 
L 339.580309 342.661293 
L 342.092577 342.697644 
L 435.845455 342.6958 
L 435.845455 342.6958 
" style="fill:none;stroke:#1f77b4;stroke-linecap:square;stroke-width:1.5;"/>
   </g>
   <g id="line2d_14">
    <path clip-path="url(#p6f8e54aba0)" d="M 80.754545 342.765078 
L 82.707545 342.718395 
L 92.152964 342.739831 
L 151.772727 342.73975 
L 152.314241 298.039018 
L 152.420768 249.201319 
L 152.562805 66.96 
L 152.678209 92.2835 
L 153.565936 369.36 
L 153.610323 369.259927 
L 153.8145 367.879898 
L 154.293873 363.119271 
L 154.959668 353.976879 
L 157.42755 314.93237 
L 157.613973 303.762817 
L 157.738255 281.710033 
L 157.835905 218.861825 
L 157.969064 91.407912 
L 158.031205 104.63616 
L 158.883423 368.934969 
L 158.945564 368.751418 
L 159.203005 366.769751 
L 159.717886 361.086944 
L 160.534595 349.126922 
L 161.839555 330.692278 
L 162.523105 320.325737 
L 162.780545 312.558416 
L 162.949214 299.813282 
L 163.064618 272.748141 
L 163.162268 187.693235 
L 163.268795 92.327469 
L 163.322059 101.972926 
L 163.87245 301.459874 
L 164.138768 368.667761 
L 164.183155 368.903154 
L 164.245295 368.720567 
L 164.493859 366.813553 
L 165.008741 361.14958 
L 165.82545 349.202651 
L 167.130409 330.764199 
L 167.813959 320.470787 
L 168.0714 312.899705 
L 168.240068 300.786598 
L 168.36435 272.394634 
L 168.462 186.579878 
L 168.568527 92.410255 
L 168.621791 102.268306 
L 169.181059 305.630412 
L 169.429623 368.556688 
L 169.482886 368.901175 
L 169.545027 368.713203 
L 169.802468 366.721501 
L 170.31735 361.018754 
L 171.142936 348.908806 
L 172.430141 330.748169 
L 173.113691 320.447327 
L 173.371132 312.852157 
L 173.5398 300.661188 
L 173.664082 271.94945 
L 173.761732 185.064761 
L 173.868259 92.436527 
L 173.921523 102.57804 
L 174.489668 309.921939 
L 174.729355 368.572685 
L 174.782618 368.901213 
L 174.844759 368.707563 
L 175.1022 366.711763 
L 175.617082 361.004943 
L 176.442668 348.892307 
L 177.729873 330.7343 
L 178.413423 320.425236 
L 178.670864 312.805226 
L 178.839532 300.533684 
L 178.963814 271.489836 
L 179.061464 183.505884 
L 179.167991 92.4693 
L 179.221255 102.891766 
L 179.798277 314.30913 
L 180.029086 368.588223 
L 180.08235 368.901173 
L 180.144491 368.701971 
L 180.410809 366.620852 
L 180.934568 360.760773 
L 181.795664 348.054878 
L 183.047359 330.489217 
L 183.713155 320.40314 
L 183.970595 312.75788 
L 184.139264 300.404123 
L 184.263545 271.020518 
L 184.361195 181.929813 
L 184.458845 92.49011 
L 184.520986 103.210594 
L 185.106886 318.77547 
L 185.319941 368.459229 
L 185.382082 368.901036 
L 185.444223 368.696309 
L 185.710541 366.611071 
L 186.2343 360.7469 
L 187.095395 348.038505 
L 188.347091 330.475347 
L 189.012886 320.380881 
L 189.270327 312.710144 
L 189.438995 300.273258 
L 189.563277 270.543037 
L 189.669805 166.893127 
L 189.758577 92.450313 
L 189.820718 103.534699 
L 190.415495 323.290103 
L 190.619673 368.478743 
L 190.681814 368.900665 
L 190.743955 368.690509 
L 191.010273 366.601162 
L 191.534032 360.732854 
L 192.395127 348.021939 
L 193.646823 330.461326 
L 194.312618 320.358327 
L 194.570059 312.661722 
L 194.738727 300.140086 
L 194.863009 270.052767 
L 194.969536 165.243902 
L 195.058309 92.421633 
L 195.12045 103.862851 
L 195.732982 331.805345 
L 195.919405 368.497768 
L 195.981545 368.90018 
L 196.034809 368.73128 
L 196.283373 366.833888 
L 196.798255 361.178584 
L 197.606086 349.374693 
L 198.919923 330.79426 
L 199.61235 320.335686 
L 199.869791 312.612932 
L 200.038459 300.0053 
L 200.162741 269.555382 
L 200.269268 163.590924 
L 200.358041 92.405209 
L 200.411305 101.551856 
L 200.935064 290.226679 
L 201.245768 368.813018 
L 201.281277 368.899564 
L 201.334541 368.725804 
L 201.583105 366.824132 
L 202.097986 361.164678 
L 202.914695 349.220844 
L 204.219655 330.780154 
L 204.903205 320.498361 
L 205.160645 312.960235 
L 205.329314 300.952006 
L 205.453595 272.987392 
L 205.551245 188.629411 
L 205.657773 92.402988 
L 205.711036 101.862781 
L 206.25255 297.662755 
L 206.536623 368.753447 
L 206.572132 368.900499 
L 206.634273 368.720249 
L 206.882836 366.814374 
L 207.397718 361.150775 
L 208.214427 349.204128 
L 209.519386 330.766066 
L 210.202936 320.476006 
L 210.460377 312.913054 
L 210.629045 300.825337 
L 210.753327 272.537145 
L 210.850977 187.076451 
L 210.957505 92.410869 
L 211.010768 102.17461 
L 211.561159 301.751558 
L 211.827477 368.673092 
L 211.871864 368.900903 
L 211.934005 368.7147 
L 212.191445 366.724221 
L 212.706327 361.022615 
L 213.531914 348.913425 
L 214.819118 330.752106 
L 215.502668 320.453784 
L 215.760109 312.866016 
L 215.928777 300.698806 
L 216.053059 272.084711 
L 216.150709 185.527426 
L 216.257236 92.429569 
L 216.3105 102.485264 
L 216.878645 309.784548 
L 217.118332 368.567942 
L 217.171595 368.901174 
L 217.233736 368.709199 
L 217.491177 366.714603 
L 218.006059 361.008971 
L 218.831645 348.897119 
L 220.11885 330.738362 
L 220.8024 320.431781 
L 221.059841 312.819265 
L 221.228509 300.572091 
L 221.352791 271.628863 
L 221.450441 183.975584 
L 221.556968 92.458777 
L 221.610232 102.797501 
L 222.187255 314.168137 
L 222.418064 368.583584 
L 222.471327 368.901182 
L 222.533468 368.703638 
L 222.790909 366.705008 
L 223.305791 360.995367 
L 224.140255 348.74387 
L 225.418582 330.724658 
L 226.102132 320.409753 
L 226.359573 312.772068 
L 226.528241 300.442983 
L 226.652523 271.161384 
L 226.750173 182.402018 
L 226.8567 92.497888 
L 226.909964 103.11492 
L 227.495864 318.631241 
L 227.708918 368.45326 
L 227.771059 368.901103 
L 227.8332 368.698022 
L 228.099518 366.614018 
L 228.623277 360.751079 
L 229.484373 348.043436 
L 230.736068 330.479521 
L 231.401864 320.387568 
L 231.659305 312.724478 
L 231.827973 300.31259 
L 231.952255 270.687089 
L 232.058782 167.382799 
L 232.147555 92.461018 
L 232.209695 103.43716 
L 232.804473 323.144021 
L 233.00865 368.47298 
L 233.070791 368.9008 
L 233.132932 368.692255 
L 233.39925 366.604135 
L 233.923009 360.737067 
L 234.784105 348.026907 
L 236.0358 330.465534 
L 236.701595 320.365107 
L 236.959036 312.676293 
L 237.127705 300.180193 
L 237.251986 270.200564 
L 237.358514 165.737746 
L 237.447286 92.428982 
L 237.509427 103.764549 
L 238.113082 327.665012 
L 238.308382 368.49211 
L 238.370523 368.900325 
L 238.423786 368.732884 
L 238.663473 366.916336 
L 239.169477 361.409498 
L 239.959555 349.928258 
L 241.3089 330.798432 
L 242.001327 320.342434 
L 242.258768 312.627485 
L 242.427436 300.045549 
L 242.551718 269.704012 
L 242.658245 164.082314 
L 242.747018 92.408605 
L 242.800282 101.459535 
L 243.315164 286.73032 
L 243.634745 368.810906 
L 243.670255 368.899771 
L 243.723518 368.727448 
L 243.972082 366.827047 
L 244.486964 361.168832 
L 245.303673 349.22584 
L 246.608632 330.784365 
L 247.301059 320.319712 
L 247.5585 312.578494 
L 247.727168 299.910025 
L 247.85145 269.202747 
L 247.957977 162.436615 
L 248.04675 92.402571 
L 248.100014 101.769714 
L 248.63265 293.981962 
L 248.9256 368.75058 
L 248.961109 368.900353 
L 249.02325 368.721912 
L 249.271814 366.817288 
L 249.786695 361.154926 
L 250.603405 349.209118 
L 251.908364 330.770272 
L 252.591914 320.482684 
L 252.849355 312.927156 
L 253.018023 300.863223 
L 253.142305 272.67216 
L 253.239955 187.542028 
L 253.346482 92.407171 
L 253.399745 102.081282 
L 253.950136 301.618413 
L 254.216455 368.669312 
L 254.260841 368.90081 
L 254.322982 368.716368 
L 254.580423 366.72714 
L 255.095305 361.026756 
L 255.920891 348.918376 
L 257.208095 330.75628 
L 257.891645 320.460439 
L 258.149086 312.880119 
L 258.317755 300.736768 
L 258.442036 272.220788 
L 258.539686 185.992882 
L 258.646214 92.423154 
L 258.699477 102.391748 
L 259.258745 305.810297 
L 259.507309 368.563057 
L 259.560573 368.901112 
L 259.622714 368.710852 
L 259.880155 366.717485 
L 260.395036 361.013059 
L 261.220623 348.902003 
L 262.507827 330.742481 
L 263.191377 320.438401 
L 263.448818 312.833395 
L 263.617486 300.610602 
L 263.741768 271.768022 
L 263.839418 184.447793 
L 263.945945 92.448786 
L 263.999209 102.702648 
L 264.567355 310.105863 
L 264.807041 368.578893 
L 264.860305 368.901193 
L 264.922445 368.705325 
L 265.179886 366.707913 
L 265.694768 360.999485 
L 266.529232 348.748787 
L 267.807559 330.728808 
L 268.491109 320.416423 
L 268.74855 312.786359 
L 268.917218 300.482093 
L 269.0415 271.303064 
L 269.13915 182.877944 
L 269.245677 92.484879 
L 269.298941 103.018463 
L 269.884841 318.485761 
L 270.097895 368.447179 
L 270.160036 368.901145 
L 270.222177 368.699732 
L 270.488495 366.616973 
L 271.012255 360.75527 
L 271.87335 348.048382 
L 273.125045 330.48371 
L 273.790841 320.394291 
L 274.048282 312.738896 
L 274.21695 300.352104 
L 274.341232 270.831216 
L 274.447759 167.875548 
L 274.536532 92.472801 
L 274.598673 103.33931 
L 275.19345 322.996818 
L 275.397627 368.467106 
L 275.459768 368.900915 
L 275.521909 368.694006 
L 275.788227 366.607124 
L 276.311986 360.741304 
L 277.173082 348.031905 
L 278.424777 330.469763 
L 279.090573 320.37191 
L 279.348014 312.690899 
L 279.516682 300.220362 
L 279.640964 270.348502 
L 279.747491 166.233668 
L 279.836264 92.437267 
L 279.898405 103.666075 
L 280.502059 327.518761 
L 280.697359 368.486409 
L 280.7595 368.900471 
L 280.821641 368.688164 
L 281.087959 366.597178 
L 281.611718 360.727206 
L 282.472814 348.01528 
L 283.724509 330.45568 
L 284.390305 320.349227 
L 284.647745 312.642131 
L 284.816414 300.086035 
L 284.940695 269.853434 
L 285.047223 164.578959 
L 285.135995 92.413368 
L 285.198136 103.996027 
L 285.810668 331.999613 
L 285.997091 368.505343 
L 286.059232 368.899962 
L 286.112495 368.7291 
L 286.361059 366.829987 
L 286.875941 361.173023 
L 287.683773 349.368001 
L 288.997609 330.788616 
L 289.690036 320.326573 
L 289.947477 312.593287 
L 290.116145 299.950961 
L 290.240427 269.354502 
L 290.346955 162.932093 
L 290.435727 92.403044 
L 290.488991 101.67596 
L 291.021627 293.853535 
L 291.314577 368.747675 
L 291.358964 368.899252 
L 291.412227 368.72359 
L 291.660791 366.820228 
L 292.175673 361.159114 
L 292.992382 349.214153 
L 294.297341 330.774517 
L 294.980891 320.489424 
L 295.238332 312.941385 
L 295.407 300.901431 
L 295.531282 272.807956 
L 295.628932 188.009765 
L 295.735459 92.404649 
L 295.788723 101.987362 
L 296.330236 297.837114 
L 296.605432 368.665436 
L 296.649818 368.900687 
L 296.711959 368.718035 
L 296.960523 366.810498 
L 297.475405 361.145255 
L 298.292114 349.197493 
L 299.597073 330.760475 
L 300.280623 320.467119 
L 300.538064 312.894266 
L 300.706732 300.774827 
L 300.831014 272.356894 
L 300.928664 186.458716 
L 301.035191 92.417341 
L 301.088455 102.298245 
L 301.647723 305.674236 
L 301.896286 368.558073 
L 301.94955 368.901025 
L 302.011691 368.712508 
L 302.269132 366.720382 
L 302.784014 361.017168 
L 303.6096 348.906915 
L 304.896805 330.746619 
L 305.580355 320.445015 
L 305.837795 312.847423 
L 306.006464 300.648588 
L 306.130745 271.904539 
L 306.228395 184.912118 
L 306.334923 92.439656 
L 306.388186 102.609214 
L 306.956332 309.968069 
L 307.196018 368.574237 
L 307.249282 368.901201 
L 307.311423 368.706994 
L 307.568864 366.710787 
L 308.083745 361.00356 
L 308.909332 348.890655 
L 310.196536 330.732911 
L 310.880086 320.423014 
L 311.137527 312.800477 
L 311.306195 300.52071 
L 311.430477 271.442894 
L 311.528127 183.348035 
L 311.634655 92.473085 
L 311.687918 102.923552 
L 312.264941 314.356638 
L 312.49575 368.58978 
L 312.549014 368.901168 
L 312.611155 368.701409 
L 312.877473 366.619877 
L 313.401232 360.759389 
L 314.262327 348.053245 
L 315.514023 330.487833 
L 316.179818 320.400915 
L 316.437259 312.753107 
L 316.605927 300.391046 
L 316.730209 270.972981 
L 316.836736 168.362412 
L 316.925509 92.48561 
L 316.98765 103.242895 
L 317.57355 318.824058 
L 317.786605 368.461231 
L 317.848745 368.90101 
L 317.910886 368.695731 
L 318.177205 366.610077 
L 318.700964 360.745492 
L 319.562059 348.036844 
L 320.813755 330.473942 
L 321.47955 320.378631 
L 321.736991 312.705323 
L 321.905659 300.260013 
L 322.029941 270.494456 
L 322.136468 166.728352 
L 322.225241 92.446905 
L 322.287382 103.567567 
L 322.891036 327.372241 
L 323.086336 368.480673 
L 323.148477 368.900617 
L 323.210618 368.68992 
L 323.476936 366.600162 
L 324.000695 360.731435 
L 324.861791 348.020266 
L 326.113486 330.459909 
L 326.779282 320.356044 
L 327.036723 312.656814 
L 327.205391 300.126571 
L 327.329673 270.002946 
L 327.4362 165.077596 
L 327.524973 92.419394 
L 327.587114 103.896077 
L 328.199645 331.853861 
L 328.386068 368.499669 
L 328.448209 368.900129 
L 328.501473 368.730738 
L 328.750036 366.832916 
L 329.264918 361.177198 
L 329.318182 360.484545 
L 329.335936 361.389474 
L 329.531236 365.426913 
L 329.620009 365.626395 
L 329.664395 365.572869 
L 329.806432 365.020783 
L 330.179277 362.438069 
L 332.238805 347.013171 
L 332.913477 343.95912 
L 333.463868 342.384497 
L 333.916609 341.689182 
L 334.289455 341.483601 
L 334.644545 341.539974 
L 335.132795 341.876064 
L 336.455509 342.876776 
L 337.076918 343.007972 
L 337.920259 342.930924 
L 339.962032 342.693677 
L 343.379782 342.749877 
L 373.7223 342.73975 
L 435.845455 342.73975 
L 435.845455 342.73975 
" style="fill:none;stroke:#ff0000;stroke-linecap:square;stroke-width:1.5;"/>
   </g>
   <g id="patch_3">
    <path d="M 63 384.48 
L 63 51.84 
" style="fill:none;stroke:#000000;stroke-linecap:square;stroke-linejoin:miter;stroke-width:0.8;"/>
   </g>
   <g id="patch_4">
    <path d="M 453.6 384.48 
L 453.6 51.84 
" style="fill:none;stroke:#000000;stroke-linecap:square;stroke-linejoin:miter;stroke-width:0.8;"/>
   </g>
   <g id="patch_5">
    <path d="M 63 384.48 
L 453.6 384.48 
" style="fill:none;stroke:#000000;stroke-linecap:square;stroke-linejoin:miter;stroke-width:0.8;"/>
   </g>
   <g id="patch_6">
    <path d="M 63 51.84 
L 453.6 51.84 
" style="fill:none;stroke:#000000;stroke-linecap:square;stroke-linejoin:miter;stroke-width:0.8;"/>
   </g>
   <g id="legend_1">
    <g id="patch_7">
     <path d="M 383.460938 89.19625 
L 446.6 89.19625 
Q 448.6 89.19625 448.6 87.19625 
L 448.6 58.84 
Q 448.6 56.84 446.6 56.84 
L 383.460938 56.84 
Q 381.460938 56.84 381.460938 58.84 
L 381.460938 87.19625 
Q 381.460938 89.19625 383.460938 89.19625 
z
" style="fill:#ffffff;opacity:0.8;stroke:#cccccc;stroke-linejoin:miter;"/>
    </g>
    <g id="line2d_15">
     <path d="M 385.460938 64.938437 
L 405.460938 64.938437 
" style="fill:none;stroke:#1f77b4;stroke-linecap:square;stroke-width:1.5;"/>
    </g>
    <g id="line2d_16"/>
    <g id="text_15">
     <!-- target -->
     <defs>
      <path d="M 41.109375 46.296875 
Q 39.59375 47.171875 37.8125 47.578125 
Q 36.03125 48 33.890625 48 
Q 26.265625 48 22.1875 43.046875 
Q 18.109375 38.09375 18.109375 28.8125 
L 18.109375 0 
L 9.078125 0 
L 9.078125 54.6875 
L 18.109375 54.6875 
L 18.109375 46.1875 
Q 20.953125 51.171875 25.484375 53.578125 
Q 30.03125 56 36.53125 56 
Q 37.453125 56 38.578125 55.875 
Q 39.703125 55.765625 41.0625 55.515625 
z
" id="DejaVuSans-72"/>
     </defs>
     <g transform="translate(413.460938 68.438437)scale(0.1 -0.1)">
      <use xlink:href="#DejaVuSans-74"/>
      <use x="39.208984" xlink:href="#DejaVuSans-61"/>
      <use x="100.488281" xlink:href="#DejaVuSans-72"/>
      <use x="141.585938" xlink:href="#DejaVuSans-67"/>
      <use x="205.0625" xlink:href="#DejaVuSans-65"/>
      <use x="266.585938" xlink:href="#DejaVuSans-74"/>
     </g>
    </g>
    <g id="line2d_17">
     <path d="M 385.460938 79.616562 
L 405.460938 79.616562 
" style="fill:none;stroke:#ff0000;stroke-linecap:square;stroke-width:1.5;"/>
    </g>
    <g id="line2d_18"/>
    <g id="text_16">
     <!-- model -->
     <defs>
      <path d="M 45.40625 46.390625 
L 45.40625 75.984375 
L 54.390625 75.984375 
L 54.390625 0 
L 45.40625 0 
L 45.40625 8.203125 
Q 42.578125 3.328125 38.25 0.953125 
Q 33.9375 -1.421875 27.875 -1.421875 
Q 17.96875 -1.421875 11.734375 6.484375 
Q 5.515625 14.40625 5.515625 27.296875 
Q 5.515625 40.1875 11.734375 48.09375 
Q 17.96875 56 27.875 56 
Q 33.9375 56 38.25 53.625 
Q 42.578125 51.265625 45.40625 46.390625 
z
M 14.796875 27.296875 
Q 14.796875 17.390625 18.875 11.75 
Q 22.953125 6.109375 30.078125 6.109375 
Q 37.203125 6.109375 41.296875 11.75 
Q 45.40625 17.390625 45.40625 27.296875 
Q 45.40625 37.203125 41.296875 42.84375 
Q 37.203125 48.484375 30.078125 48.484375 
Q 22.953125 48.484375 18.875 42.84375 
Q 14.796875 37.203125 14.796875 27.296875 
z
" id="DejaVuSans-64"/>
     </defs>
     <g transform="translate(413.460938 83.116562)scale(0.1 -0.1)">
      <use xlink:href="#DejaVuSans-6d"/>
      <use x="97.412109" xlink:href="#DejaVuSans-6f"/>
      <use x="158.59375" xlink:href="#DejaVuSans-64"/>
      <use x="222.070312" xlink:href="#DejaVuSans-65"/>
      <use x="283.59375" xlink:href="#DejaVuSans-6c"/>
     </g>
    </g>
   </g>
  </g>
 </g>
 <defs>
  <clipPath id="p6f8e54aba0">
   <rect height="332.64" width="390.6" x="63" y="51.84"/>
  </clipPath>
 </defs>
</svg>
