<?xml version="1.0" encoding="utf-8" standalone="no"?>
<!DOCTYPE svg PUBLIC "-//W3C//DTD SVG 1.1//EN"
  "http://www.w3.org/Graphics/SVG/1.1/DTD/svg11.dtd">
<!-- Created with matplotlib (https://matplotlib.org/) -->
<svg height="432pt" version="1.1" viewBox="0 0 504 432" width="504pt" xmlns="http://www.w3.org/2000/svg" xmlns:xlink="http://www.w3.org/1999/xlink">
 <defs>
  <style type="text/css">
*{stroke-linecap:butt;stroke-linejoin:round;}
  </style>
 </defs>
 <g id="figure_1">
  <g id="patch_1">
   <path d="M 0 432 
L 504 432 
L 504 0 
L 0 0 
z
" style="fill:#ffffff;"/>
  </g>
  <g id="axes_1">
   <g id="patch_2">
    <path d="M 63 384.48 
L 453.6 384.48 
L 453.6 51.84 
L 63 51.84 
z
" style="fill:#ffffff;"/>
   </g>
   <g id="matplotlib.axis_1">
    <g id="xtick_1">
     <g id="line2d_1">
      <defs>
       <path d="M 0 0 
L 0 3.5 
" id="md292ee6923" style="stroke:#000000;stroke-width:0.8;"/>
      </defs>
      <g>
       <use style="stroke:#000000;stroke-width:0.8;" x="80.754545" xlink:href="#md292ee6923" y="384.48"/>
      </g>
     </g>
     <g id="text_1">
      <!-- 0 -->
      <defs>
       <path d="M 31.78125 66.40625 
Q 24.171875 66.40625 20.328125 58.90625 
Q 16.5 51.421875 16.5 36.375 
Q 16.5 21.390625 20.328125 13.890625 
Q 24.171875 6.390625 31.78125 6.390625 
Q 39.453125 6.390625 43.28125 13.890625 
Q 47.125 21.390625 47.125 36.375 
Q 47.125 51.421875 43.28125 58.90625 
Q 39.453125 66.40625 31.78125 66.40625 
z
M 31.78125 74.21875 
Q 44.046875 74.21875 50.515625 64.515625 
Q 56.984375 54.828125 56.984375 36.375 
Q 56.984375 17.96875 50.515625 8.265625 
Q 44.046875 -1.421875 31.78125 -1.421875 
Q 19.53125 -1.421875 13.0625 8.265625 
Q 6.59375 17.96875 6.59375 36.375 
Q 6.59375 54.828125 13.0625 64.515625 
Q 19.53125 74.21875 31.78125 74.21875 
z
" id="DejaVuSans-48"/>
      </defs>
      <g transform="translate(77.573295 399.078438)scale(0.1 -0.1)">
       <use xlink:href="#DejaVuSans-48"/>
      </g>
     </g>
    </g>
    <g id="xtick_2">
     <g id="line2d_2">
      <g>
       <use style="stroke:#000000;stroke-width:0.8;" x="151.772727" xlink:href="#md292ee6923" y="384.48"/>
      </g>
     </g>
     <g id="text_2">
      <!-- 200 -->
      <defs>
       <path d="M 19.1875 8.296875 
L 53.609375 8.296875 
L 53.609375 0 
L 7.328125 0 
L 7.328125 8.296875 
Q 12.9375 14.109375 22.625 23.890625 
Q 32.328125 33.6875 34.8125 36.53125 
Q 39.546875 41.84375 41.421875 45.53125 
Q 43.3125 49.21875 43.3125 52.78125 
Q 43.3125 58.59375 39.234375 62.25 
Q 35.15625 65.921875 28.609375 65.921875 
Q 23.96875 65.921875 18.8125 64.3125 
Q 13.671875 62.703125 7.8125 59.421875 
L 7.8125 69.390625 
Q 13.765625 71.78125 18.9375 73 
Q 24.125 74.21875 28.421875 74.21875 
Q 39.75 74.21875 46.484375 68.546875 
Q 53.21875 62.890625 53.21875 53.421875 
Q 53.21875 48.921875 51.53125 44.890625 
Q 49.859375 40.875 45.40625 35.40625 
Q 44.1875 33.984375 37.640625 27.21875 
Q 31.109375 20.453125 19.1875 8.296875 
z
" id="DejaVuSans-50"/>
      </defs>
      <g transform="translate(142.228977 399.078438)scale(0.1 -0.1)">
       <use xlink:href="#DejaVuSans-50"/>
       <use x="63.623047" xlink:href="#DejaVuSans-48"/>
       <use x="127.246094" xlink:href="#DejaVuSans-48"/>
      </g>
     </g>
    </g>
    <g id="xtick_3">
     <g id="line2d_3">
      <g>
       <use style="stroke:#000000;stroke-width:0.8;" x="222.790909" xlink:href="#md292ee6923" y="384.48"/>
      </g>
     </g>
     <g id="text_3">
      <!-- 400 -->
      <defs>
       <path d="M 37.796875 64.3125 
L 12.890625 25.390625 
L 37.796875 25.390625 
z
M 35.203125 72.90625 
L 47.609375 72.90625 
L 47.609375 25.390625 
L 58.015625 25.390625 
L 58.015625 17.1875 
L 47.609375 17.1875 
L 47.609375 0 
L 37.796875 0 
L 37.796875 17.1875 
L 4.890625 17.1875 
L 4.890625 26.703125 
z
" id="DejaVuSans-52"/>
      </defs>
      <g transform="translate(213.247159 399.078438)scale(0.1 -0.1)">
       <use xlink:href="#DejaVuSans-52"/>
       <use x="63.623047" xlink:href="#DejaVuSans-48"/>
       <use x="127.246094" xlink:href="#DejaVuSans-48"/>
      </g>
     </g>
    </g>
    <g id="xtick_4">
     <g id="line2d_4">
      <g>
       <use style="stroke:#000000;stroke-width:0.8;" x="293.809091" xlink:href="#md292ee6923" y="384.48"/>
      </g>
     </g>
     <g id="text_4">
      <!-- 600 -->
      <defs>
       <path d="M 33.015625 40.375 
Q 26.375 40.375 22.484375 35.828125 
Q 18.609375 31.296875 18.609375 23.390625 
Q 18.609375 15.53125 22.484375 10.953125 
Q 26.375 6.390625 33.015625 6.390625 
Q 39.65625 6.390625 43.53125 10.953125 
Q 47.40625 15.53125 47.40625 23.390625 
Q 47.40625 31.296875 43.53125 35.828125 
Q 39.65625 40.375 33.015625 40.375 
z
M 52.59375 71.296875 
L 52.59375 62.3125 
Q 48.875 64.0625 45.09375 64.984375 
Q 41.3125 65.921875 37.59375 65.921875 
Q 27.828125 65.921875 22.671875 59.328125 
Q 17.53125 52.734375 16.796875 39.40625 
Q 19.671875 43.65625 24.015625 45.921875 
Q 28.375 48.1875 33.59375 48.1875 
Q 44.578125 48.1875 50.953125 41.515625 
Q 57.328125 34.859375 57.328125 23.390625 
Q 57.328125 12.15625 50.6875 5.359375 
Q 44.046875 -1.421875 33.015625 -1.421875 
Q 20.359375 -1.421875 13.671875 8.265625 
Q 6.984375 17.96875 6.984375 36.375 
Q 6.984375 53.65625 15.1875 63.9375 
Q 23.390625 74.21875 37.203125 74.21875 
Q 40.921875 74.21875 44.703125 73.484375 
Q 48.484375 72.75 52.59375 71.296875 
z
" id="DejaVuSans-54"/>
      </defs>
      <g transform="translate(284.265341 399.078438)scale(0.1 -0.1)">
       <use xlink:href="#DejaVuSans-54"/>
       <use x="63.623047" xlink:href="#DejaVuSans-48"/>
       <use x="127.246094" xlink:href="#DejaVuSans-48"/>
      </g>
     </g>
    </g>
    <g id="xtick_5">
     <g id="line2d_5">
      <g>
       <use style="stroke:#000000;stroke-width:0.8;" x="364.827273" xlink:href="#md292ee6923" y="384.48"/>
      </g>
     </g>
     <g id="text_5">
      <!-- 800 -->
      <defs>
       <path d="M 31.78125 34.625 
Q 24.75 34.625 20.71875 30.859375 
Q 16.703125 27.09375 16.703125 20.515625 
Q 16.703125 13.921875 20.71875 10.15625 
Q 24.75 6.390625 31.78125 6.390625 
Q 38.8125 6.390625 42.859375 10.171875 
Q 46.921875 13.96875 46.921875 20.515625 
Q 46.921875 27.09375 42.890625 30.859375 
Q 38.875 34.625 31.78125 34.625 
z
M 21.921875 38.8125 
Q 15.578125 40.375 12.03125 44.71875 
Q 8.5 49.078125 8.5 55.328125 
Q 8.5 64.0625 14.71875 69.140625 
Q 20.953125 74.21875 31.78125 74.21875 
Q 42.671875 74.21875 48.875 69.140625 
Q 55.078125 64.0625 55.078125 55.328125 
Q 55.078125 49.078125 51.53125 44.71875 
Q 48 40.375 41.703125 38.8125 
Q 48.828125 37.15625 52.796875 32.3125 
Q 56.78125 27.484375 56.78125 20.515625 
Q 56.78125 9.90625 50.3125 4.234375 
Q 43.84375 -1.421875 31.78125 -1.421875 
Q 19.734375 -1.421875 13.25 4.234375 
Q 6.78125 9.90625 6.78125 20.515625 
Q 6.78125 27.484375 10.78125 32.3125 
Q 14.796875 37.15625 21.921875 38.8125 
z
M 18.3125 54.390625 
Q 18.3125 48.734375 21.84375 45.5625 
Q 25.390625 42.390625 31.78125 42.390625 
Q 38.140625 42.390625 41.71875 45.5625 
Q 45.3125 48.734375 45.3125 54.390625 
Q 45.3125 60.0625 41.71875 63.234375 
Q 38.140625 66.40625 31.78125 66.40625 
Q 25.390625 66.40625 21.84375 63.234375 
Q 18.3125 60.0625 18.3125 54.390625 
z
" id="DejaVuSans-56"/>
      </defs>
      <g transform="translate(355.283523 399.078438)scale(0.1 -0.1)">
       <use xlink:href="#DejaVuSans-56"/>
       <use x="63.623047" xlink:href="#DejaVuSans-48"/>
       <use x="127.246094" xlink:href="#DejaVuSans-48"/>
      </g>
     </g>
    </g>
    <g id="text_6">
     <!-- time [ms] -->
     <defs>
      <path d="M 18.3125 70.21875 
L 18.3125 54.6875 
L 36.8125 54.6875 
L 36.8125 47.703125 
L 18.3125 47.703125 
L 18.3125 18.015625 
Q 18.3125 11.328125 20.140625 9.421875 
Q 21.96875 7.515625 27.59375 7.515625 
L 36.8125 7.515625 
L 36.8125 0 
L 27.59375 0 
Q 17.1875 0 13.234375 3.875 
Q 9.28125 7.765625 9.28125 18.015625 
L 9.28125 47.703125 
L 2.6875 47.703125 
L 2.6875 54.6875 
L 9.28125 54.6875 
L 9.28125 70.21875 
z
" id="DejaVuSans-116"/>
      <path d="M 9.421875 54.6875 
L 18.40625 54.6875 
L 18.40625 0 
L 9.421875 0 
z
M 9.421875 75.984375 
L 18.40625 75.984375 
L 18.40625 64.59375 
L 9.421875 64.59375 
z
" id="DejaVuSans-105"/>
      <path d="M 52 44.1875 
Q 55.375 50.25 60.0625 53.125 
Q 64.75 56 71.09375 56 
Q 79.640625 56 84.28125 50.015625 
Q 88.921875 44.046875 88.921875 33.015625 
L 88.921875 0 
L 79.890625 0 
L 79.890625 32.71875 
Q 79.890625 40.578125 77.09375 44.375 
Q 74.3125 48.1875 68.609375 48.1875 
Q 61.625 48.1875 57.5625 43.546875 
Q 53.515625 38.921875 53.515625 30.90625 
L 53.515625 0 
L 44.484375 0 
L 44.484375 32.71875 
Q 44.484375 40.625 41.703125 44.40625 
Q 38.921875 48.1875 33.109375 48.1875 
Q 26.21875 48.1875 22.15625 43.53125 
Q 18.109375 38.875 18.109375 30.90625 
L 18.109375 0 
L 9.078125 0 
L 9.078125 54.6875 
L 18.109375 54.6875 
L 18.109375 46.1875 
Q 21.1875 51.21875 25.484375 53.609375 
Q 29.78125 56 35.6875 56 
Q 41.65625 56 45.828125 52.96875 
Q 50 49.953125 52 44.1875 
z
" id="DejaVuSans-109"/>
      <path d="M 56.203125 29.59375 
L 56.203125 25.203125 
L 14.890625 25.203125 
Q 15.484375 15.921875 20.484375 11.0625 
Q 25.484375 6.203125 34.421875 6.203125 
Q 39.59375 6.203125 44.453125 7.46875 
Q 49.3125 8.734375 54.109375 11.28125 
L 54.109375 2.78125 
Q 49.265625 0.734375 44.1875 -0.34375 
Q 39.109375 -1.421875 33.890625 -1.421875 
Q 20.796875 -1.421875 13.15625 6.1875 
Q 5.515625 13.8125 5.515625 26.8125 
Q 5.515625 40.234375 12.765625 48.109375 
Q 20.015625 56 32.328125 56 
Q 43.359375 56 49.78125 48.890625 
Q 56.203125 41.796875 56.203125 29.59375 
z
M 47.21875 32.234375 
Q 47.125 39.59375 43.09375 43.984375 
Q 39.0625 48.390625 32.421875 48.390625 
Q 24.90625 48.390625 20.390625 44.140625 
Q 15.875 39.890625 15.1875 32.171875 
z
" id="DejaVuSans-101"/>
      <path id="DejaVuSans-32"/>
      <path d="M 8.59375 75.984375 
L 29.296875 75.984375 
L 29.296875 69 
L 17.578125 69 
L 17.578125 -6.203125 
L 29.296875 -6.203125 
L 29.296875 -13.1875 
L 8.59375 -13.1875 
z
" id="DejaVuSans-91"/>
      <path d="M 44.28125 53.078125 
L 44.28125 44.578125 
Q 40.484375 46.53125 36.375 47.5 
Q 32.28125 48.484375 27.875 48.484375 
Q 21.1875 48.484375 17.84375 46.4375 
Q 14.5 44.390625 14.5 40.28125 
Q 14.5 37.15625 16.890625 35.375 
Q 19.28125 33.59375 26.515625 31.984375 
L 29.59375 31.296875 
Q 39.15625 29.25 43.1875 25.515625 
Q 47.21875 21.78125 47.21875 15.09375 
Q 47.21875 7.46875 41.1875 3.015625 
Q 35.15625 -1.421875 24.609375 -1.421875 
Q 20.21875 -1.421875 15.453125 -0.5625 
Q 10.6875 0.296875 5.421875 2 
L 5.421875 11.28125 
Q 10.40625 8.6875 15.234375 7.390625 
Q 20.0625 6.109375 24.8125 6.109375 
Q 31.15625 6.109375 34.5625 8.28125 
Q 37.984375 10.453125 37.984375 14.40625 
Q 37.984375 18.0625 35.515625 20.015625 
Q 33.0625 21.96875 24.703125 23.78125 
L 21.578125 24.515625 
Q 13.234375 26.265625 9.515625 29.90625 
Q 5.8125 33.546875 5.8125 39.890625 
Q 5.8125 47.609375 11.28125 51.796875 
Q 16.75 56 26.8125 56 
Q 31.78125 56 36.171875 55.265625 
Q 40.578125 54.546875 44.28125 53.078125 
z
" id="DejaVuSans-115"/>
      <path d="M 30.421875 75.984375 
L 30.421875 -13.1875 
L 9.71875 -13.1875 
L 9.71875 -6.203125 
L 21.390625 -6.203125 
L 21.390625 69 
L 9.71875 69 
L 9.71875 75.984375 
z
" id="DejaVuSans-93"/>
     </defs>
     <g transform="translate(234.038281 412.756563)scale(0.1 -0.1)">
      <use xlink:href="#DejaVuSans-116"/>
      <use x="39.208984" xlink:href="#DejaVuSans-105"/>
      <use x="66.992188" xlink:href="#DejaVuSans-109"/>
      <use x="164.404297" xlink:href="#DejaVuSans-101"/>
      <use x="225.927734" xlink:href="#DejaVuSans-32"/>
      <use x="257.714844" xlink:href="#DejaVuSans-91"/>
      <use x="296.728516" xlink:href="#DejaVuSans-109"/>
      <use x="394.140625" xlink:href="#DejaVuSans-115"/>
      <use x="446.240234" xlink:href="#DejaVuSans-93"/>
     </g>
    </g>
   </g>
   <g id="matplotlib.axis_2">
    <g id="ytick_1">
     <g id="line2d_6">
      <defs>
       <path d="M 0 0 
L -3.5 0 
" id="m8085b00cb9" style="stroke:#000000;stroke-width:0.8;"/>
      </defs>
      <g>
       <use style="stroke:#000000;stroke-width:0.8;" x="63" xlink:href="#m8085b00cb9" y="349.355025"/>
      </g>
     </g>
     <g id="text_7">
      <!-- −60 -->
      <defs>
       <path d="M 10.59375 35.5 
L 73.1875 35.5 
L 73.1875 27.203125 
L 10.59375 27.203125 
z
" id="DejaVuSans-8722"/>
      </defs>
      <g transform="translate(34.895313 353.154244)scale(0.1 -0.1)">
       <use xlink:href="#DejaVuSans-8722"/>
       <use x="83.789062" xlink:href="#DejaVuSans-54"/>
       <use x="147.412109" xlink:href="#DejaVuSans-48"/>
      </g>
     </g>
    </g>
    <g id="ytick_2">
     <g id="line2d_7">
      <g>
       <use style="stroke:#000000;stroke-width:0.8;" x="63" xlink:href="#m8085b00cb9" y="284.957672"/>
      </g>
     </g>
     <g id="text_8">
      <!-- −40 -->
      <g transform="translate(34.895313 288.756891)scale(0.1 -0.1)">
       <use xlink:href="#DejaVuSans-8722"/>
       <use x="83.789062" xlink:href="#DejaVuSans-52"/>
       <use x="147.412109" xlink:href="#DejaVuSans-48"/>
      </g>
     </g>
    </g>
    <g id="ytick_3">
     <g id="line2d_8">
      <g>
       <use style="stroke:#000000;stroke-width:0.8;" x="63" xlink:href="#m8085b00cb9" y="220.56032"/>
      </g>
     </g>
     <g id="text_9">
      <!-- −20 -->
      <g transform="translate(34.895313 224.359538)scale(0.1 -0.1)">
       <use xlink:href="#DejaVuSans-8722"/>
       <use x="83.789062" xlink:href="#DejaVuSans-50"/>
       <use x="147.412109" xlink:href="#DejaVuSans-48"/>
      </g>
     </g>
    </g>
    <g id="ytick_4">
     <g id="line2d_9">
      <g>
       <use style="stroke:#000000;stroke-width:0.8;" x="63" xlink:href="#m8085b00cb9" y="156.162967"/>
      </g>
     </g>
     <g id="text_10">
      <!-- 0 -->
      <g transform="translate(49.6375 159.962186)scale(0.1 -0.1)">
       <use xlink:href="#DejaVuSans-48"/>
      </g>
     </g>
    </g>
    <g id="ytick_5">
     <g id="line2d_10">
      <g>
       <use style="stroke:#000000;stroke-width:0.8;" x="63" xlink:href="#m8085b00cb9" y="91.765614"/>
      </g>
     </g>
     <g id="text_11">
      <!-- 20 -->
      <g transform="translate(43.275 95.564833)scale(0.1 -0.1)">
       <use xlink:href="#DejaVuSans-50"/>
       <use x="63.623047" xlink:href="#DejaVuSans-48"/>
      </g>
     </g>
    </g>
    <g id="text_12">
     <!-- voltage [V] -->
     <defs>
      <path d="M 2.984375 54.6875 
L 12.5 54.6875 
L 29.59375 8.796875 
L 46.6875 54.6875 
L 56.203125 54.6875 
L 35.6875 0 
L 23.484375 0 
z
" id="DejaVuSans-118"/>
      <path d="M 30.609375 48.390625 
Q 23.390625 48.390625 19.1875 42.75 
Q 14.984375 37.109375 14.984375 27.296875 
Q 14.984375 17.484375 19.15625 11.84375 
Q 23.34375 6.203125 30.609375 6.203125 
Q 37.796875 6.203125 41.984375 11.859375 
Q 46.1875 17.53125 46.1875 27.296875 
Q 46.1875 37.015625 41.984375 42.703125 
Q 37.796875 48.390625 30.609375 48.390625 
z
M 30.609375 56 
Q 42.328125 56 49.015625 48.375 
Q 55.71875 40.765625 55.71875 27.296875 
Q 55.71875 13.875 49.015625 6.21875 
Q 42.328125 -1.421875 30.609375 -1.421875 
Q 18.84375 -1.421875 12.171875 6.21875 
Q 5.515625 13.875 5.515625 27.296875 
Q 5.515625 40.765625 12.171875 48.375 
Q 18.84375 56 30.609375 56 
z
" id="DejaVuSans-111"/>
      <path d="M 9.421875 75.984375 
L 18.40625 75.984375 
L 18.40625 0 
L 9.421875 0 
z
" id="DejaVuSans-108"/>
      <path d="M 34.28125 27.484375 
Q 23.390625 27.484375 19.1875 25 
Q 14.984375 22.515625 14.984375 16.5 
Q 14.984375 11.71875 18.140625 8.90625 
Q 21.296875 6.109375 26.703125 6.109375 
Q 34.1875 6.109375 38.703125 11.40625 
Q 43.21875 16.703125 43.21875 25.484375 
L 43.21875 27.484375 
z
M 52.203125 31.203125 
L 52.203125 0 
L 43.21875 0 
L 43.21875 8.296875 
Q 40.140625 3.328125 35.546875 0.953125 
Q 30.953125 -1.421875 24.3125 -1.421875 
Q 15.921875 -1.421875 10.953125 3.296875 
Q 6 8.015625 6 15.921875 
Q 6 25.140625 12.171875 29.828125 
Q 18.359375 34.515625 30.609375 34.515625 
L 43.21875 34.515625 
L 43.21875 35.40625 
Q 43.21875 41.609375 39.140625 45 
Q 35.0625 48.390625 27.6875 48.390625 
Q 23 48.390625 18.546875 47.265625 
Q 14.109375 46.140625 10.015625 43.890625 
L 10.015625 52.203125 
Q 14.9375 54.109375 19.578125 55.046875 
Q 24.21875 56 28.609375 56 
Q 40.484375 56 46.34375 49.84375 
Q 52.203125 43.703125 52.203125 31.203125 
z
" id="DejaVuSans-97"/>
      <path d="M 45.40625 27.984375 
Q 45.40625 37.75 41.375 43.109375 
Q 37.359375 48.484375 30.078125 48.484375 
Q 22.859375 48.484375 18.828125 43.109375 
Q 14.796875 37.75 14.796875 27.984375 
Q 14.796875 18.265625 18.828125 12.890625 
Q 22.859375 7.515625 30.078125 7.515625 
Q 37.359375 7.515625 41.375 12.890625 
Q 45.40625 18.265625 45.40625 27.984375 
z
M 54.390625 6.78125 
Q 54.390625 -7.171875 48.1875 -13.984375 
Q 42 -20.796875 29.203125 -20.796875 
Q 24.46875 -20.796875 20.265625 -20.09375 
Q 16.0625 -19.390625 12.109375 -17.921875 
L 12.109375 -9.1875 
Q 16.0625 -11.328125 19.921875 -12.34375 
Q 23.78125 -13.375 27.78125 -13.375 
Q 36.625 -13.375 41.015625 -8.765625 
Q 45.40625 -4.15625 45.40625 5.171875 
L 45.40625 9.625 
Q 42.625 4.78125 38.28125 2.390625 
Q 33.9375 0 27.875 0 
Q 17.828125 0 11.671875 7.65625 
Q 5.515625 15.328125 5.515625 27.984375 
Q 5.515625 40.671875 11.671875 48.328125 
Q 17.828125 56 27.875 56 
Q 33.9375 56 38.28125 53.609375 
Q 42.625 51.21875 45.40625 46.390625 
L 45.40625 54.6875 
L 54.390625 54.6875 
z
" id="DejaVuSans-103"/>
      <path d="M 28.609375 0 
L 0.78125 72.90625 
L 11.078125 72.90625 
L 34.1875 11.53125 
L 57.328125 72.90625 
L 67.578125 72.90625 
L 39.796875 0 
z
" id="DejaVuSans-86"/>
     </defs>
     <g transform="translate(28.815625 245.75375)rotate(-90)scale(0.1 -0.1)">
      <use xlink:href="#DejaVuSans-118"/>
      <use x="59.179688" xlink:href="#DejaVuSans-111"/>
      <use x="120.361328" xlink:href="#DejaVuSans-108"/>
      <use x="148.144531" xlink:href="#DejaVuSans-116"/>
      <use x="187.353516" xlink:href="#DejaVuSans-97"/>
      <use x="248.632812" xlink:href="#DejaVuSans-103"/>
      <use x="312.109375" xlink:href="#DejaVuSans-101"/>
      <use x="373.632812" xlink:href="#DejaVuSans-32"/>
      <use x="405.419922" xlink:href="#DejaVuSans-91"/>
      <use x="444.433594" xlink:href="#DejaVuSans-86"/>
      <use x="512.841797" xlink:href="#DejaVuSans-93"/>
     </g>
    </g>
   </g>
   <g id="line2d_11">
    <path clip-path="url(#pf7ab694a72)" d="M 80.754545 365.454355 
L 81.713291 365.467154 
L 85.8501 365.882475 
L 98.704391 367.152678 
L 108.984273 367.926972 
L 120.080864 368.53614 
L 132.544555 368.992886 
L 147.280827 369.302519 
L 151.772727 369.36 
L 151.8615 367.419614 
L 152.234345 359.513152 
L 152.731473 353.979218 
L 153.565936 347.441115 
L 154.9863 338.228381 
L 156.726245 328.413333 
L 158.412927 320.114378 
L 160.028591 313.239558 
L 161.590991 307.553238 
L 163.153391 302.709428 
L 164.840073 298.220604 
L 167.254691 292.510401 
L 168.959127 288.247548 
L 169.811345 285.520233 
L 170.361736 283.058393 
L 170.752336 280.319711 
L 171.036409 276.38568 
L 171.1962 269.449889 
L 171.249464 261.739012 
L 171.622309 81.835482 
L 171.675573 79.588398 
L 171.746591 79.819788 
L 171.906382 92.135753 
L 172.190455 142.709715 
L 172.847373 256.25904 
L 173.220218 289.383836 
L 173.5398 301.2634 
L 173.912645 307.45809 
L 174.303245 310.699296 
L 174.782618 312.821725 
L 175.226482 313.890968 
L 175.6881 314.459408 
L 176.096455 314.645328 
L 176.540318 314.597217 
L 177.037445 314.308051 
L 177.676609 313.66494 
L 178.528827 312.477411 
L 179.771645 310.343429 
L 182.843182 304.465321 
L 185.488609 299.684817 
L 188.151791 295.351434 
L 192.164318 288.881953 
L 193.282855 286.607239 
L 194.064055 284.530235 
L 194.6322 282.37664 
L 195.040555 279.902648 
L 195.324627 276.601325 
L 195.502173 270.889477 
L 195.573191 262.027778 
L 195.626455 235.64985 
L 195.839509 109.167912 
L 196.017055 100.88432 
L 196.034809 100.844465 
L 196.176845 104.433365 
L 196.407655 120.822745 
L 196.744991 167.66544 
L 197.437418 261.330083 
L 197.810264 285.068477 
L 198.200864 296.319342 
L 198.591464 301.728621 
L 199.070836 305.276511 
L 199.550209 307.357719 
L 200.082845 308.791779 
L 200.650991 309.697988 
L 201.219136 310.170905 
L 201.787282 310.332189 
L 202.408691 310.244811 
L 203.083364 309.920638 
L 203.988845 309.220454 
L 205.249418 307.925701 
L 207.237927 305.520399 
L 213.008155 298.423247 
L 218.050445 292.756771 
L 220.518327 289.782452 
L 221.938691 287.739664 
L 222.932945 285.945225 
L 223.660882 284.204942 
L 224.229027 282.259523 
L 224.637382 280.026167 
L 224.9037 277.409831 
L 225.081245 273.80343 
L 225.205527 264.922974 
L 225.241036 251.958424 
L 225.525109 108.010724 
L 225.596127 105.754919 
L 225.667145 106.284597 
L 225.862445 113.889047 
L 226.164273 137.281134 
L 226.679155 203.551829 
L 227.229545 262.852875 
L 227.6379 283.366469 
L 228.046255 293.275306 
L 228.454609 298.428872 
L 228.933982 301.914408 
L 229.502127 304.419345 
L 230.105782 306.087916 
L 230.691682 307.115723 
L 231.313091 307.771023 
L 231.898991 308.091857 
L 232.555909 308.195777 
L 233.3016 308.070331 
L 234.153818 307.697716 
L 235.2546 306.969123 
L 236.834755 305.629374 
L 239.515691 303.014274 
L 247.061373 295.579153 
L 251.428991 291.223958 
L 253.328727 289.017507 
L 254.624809 287.185001 
L 255.583555 285.446085 
L 256.275982 283.741711 
L 256.808618 281.824705 
L 257.181464 279.664202 
L 257.447782 276.784069 
L 257.607573 272.996032 
L 257.696345 266.750195 
L 257.767364 244.514585 
L 257.998173 111.478294 
L 258.122455 106.419546 
L 258.157964 107.003809 
L 258.264491 110.342304 
L 258.566318 129.926781 
L 258.956918 172.51805 
L 259.755873 261.461154 
L 260.181982 282.507917 
L 260.590336 292.239135 
L 261.016445 297.409163 
L 261.495818 300.691353 
L 262.028455 302.939161 
L 262.649864 304.616973 
L 263.271273 305.690476 
L 263.892682 306.35827 
L 264.531845 306.737822 
L 265.224273 306.887156 
L 266.023227 306.808043 
L 266.928709 306.483533 
L 268.118264 305.798079 
L 269.716173 304.595079 
L 272.255073 302.372127 
L 283.440436 292.042519 
L 285.659755 289.689642 
L 287.133382 287.818807 
L 288.198655 286.121632 
L 288.979855 284.480488 
L 289.565755 282.760754 
L 290.009618 280.780298 
L 290.346955 278.135096 
L 290.542255 274.967687 
L 290.666536 269.787728 
L 290.737555 256.270306 
L 290.844082 170.569339 
L 291.003873 110.651835 
L 291.128155 106.701094 
L 291.163664 107.209505 
L 291.341209 114.363289 
L 291.643036 137.076573 
L 292.175673 200.367021 
L 292.761573 260.972553 
L 293.152173 280.701828 
L 293.560527 291.192766 
L 294.004391 296.895351 
L 294.483764 300.304478 
L 295.051909 302.736722 
L 295.673318 304.412597 
L 296.276973 305.463822 
L 296.933891 306.175504 
L 297.573055 306.555456 
L 298.247727 306.708401 
L 299.046682 306.643281 
L 299.969918 306.327995 
L 301.159473 305.662579 
L 302.757382 304.487943 
L 305.243018 302.355979 
L 316.091045 292.505344 
L 318.523418 290.018248 
L 320.103573 288.097075 
L 321.222109 286.40407 
L 322.056573 284.753448 
L 322.695736 282.990231 
L 323.175109 280.973211 
L 323.5302 278.351685 
L 323.761009 274.597389 
L 323.885291 269.292394 
L 323.974064 240.991611 
L 324.204873 111.848961 
L 324.3114 106.491755 
L 324.346909 106.951576 
L 324.453436 109.848696 
L 324.755264 129.12401 
L 325.163618 172.937495 
L 325.962573 260.800136 
L 326.388682 281.929058 
L 326.797036 291.879522 
L 327.2409 297.316296 
L 327.738027 300.674948 
L 328.306173 302.979266 
L 328.927582 304.570201 
L 329.5845 305.631735 
L 330.241418 306.268376 
L 330.880582 306.594152 
L 331.573009 306.703882 
L 332.371964 306.596388 
L 333.312955 306.237823 
L 334.502509 305.540332 
L 336.153682 304.299332 
L 338.870127 301.945564 
L 350.215282 291.615091 
L 352.292564 289.398094 
L 353.730682 287.546839 
L 354.7782 285.834824 
L 355.5594 284.117544 
L 356.127545 282.32264 
L 356.553655 280.200093 
L 356.855482 277.454302 
L 357.050782 273.48487 
L 357.157309 265.933457 
L 357.210573 249.995368 
L 357.476891 109.382062 
L 357.565664 106.64905 
L 357.618927 107.210502 
L 357.778718 113.494496 
L 358.116055 139.057704 
L 358.648691 202.912999 
L 359.216836 261.212339 
L 359.625191 281.669615 
L 360.033545 291.847602 
L 360.459655 297.221596 
L 360.939027 300.577559 
L 361.453909 302.776757 
L 362.057564 304.424789 
L 362.678973 305.511565 
L 363.335891 306.21645 
L 363.992809 306.596551 
L 364.649727 306.736086 
L 364.862782 306.740039 
L 364.969309 308.859035 
L 365.306645 315.861104 
L 365.786018 320.798726 
L 366.460691 325.252825 
L 367.348418 329.624164 
L 368.395936 333.682074 
L 369.532227 337.240049 
L 370.775045 340.443999 
L 372.1599 343.409134 
L 373.633527 346.0496 
L 375.231436 348.462942 
L 376.953627 350.664084 
L 378.853364 352.721898 
L 380.877382 354.58318 
L 383.078945 356.305759 
L 385.511318 357.923385 
L 388.1745 359.426445 
L 391.175018 360.858896 
L 394.512873 362.200595 
L 398.259082 363.462141 
L 402.502418 364.649488 
L 407.225127 365.736337 
L 412.551491 366.729877 
L 418.517018 367.611892 
L 425.192727 368.369666 
L 432.7029 368.993401 
L 435.8277 369.194228 
L 435.8277 369.194228 
" style="fill:none;stroke:#1f77b4;stroke-linecap:square;stroke-width:1.5;"/>
   </g>
   <g id="line2d_12">
    <path clip-path="url(#pf7ab694a72)" d="M 80.754545 365.454363 
L 80.949845 365.225474 
L 81.446973 365.045044 
L 82.583264 364.91202 
L 85.352973 364.852914 
L 93.129464 364.972868 
L 109.339364 365.166388 
L 133.663091 365.182691 
L 151.772727 365.163569 
L 151.985782 355.403486 
L 152.411891 346.547198 
L 153.086564 337.287017 
L 154.0098 327.667964 
L 155.021809 319.337423 
L 156.016064 312.905365 
L 157.010318 307.882941 
L 158.022327 303.87812 
L 159.105355 300.480065 
L 160.294909 297.471055 
L 161.662009 294.622701 
L 163.3842 291.573636 
L 166.437982 286.263002 
L 167.219182 284.373291 
L 167.769573 282.454468 
L 168.160173 280.250711 
L 168.426491 277.437227 
L 168.604036 273.005396 
L 168.710564 262.912498 
L 168.763827 214.481204 
L 168.834845 66.96 
L 168.888109 78.906968 
L 169.474009 318.500861 
L 169.669309 323.12998 
L 169.722573 323.227138 
L 169.775836 323.136961 
L 169.988891 322.079264 
L 170.343982 320.723706 
L 170.628055 320.37394 
L 171.764345 319.556679 
L 172.368 318.555004 
L 173.3445 316.439467 
L 177.534573 306.922735 
L 179.274518 303.712987 
L 181.049973 300.899179 
L 182.896445 298.384612 
L 184.884955 296.050206 
L 187.139782 293.751821 
L 190.087036 291.088647 
L 193.886509 287.635581 
L 195.2181 286.109822 
L 196.141336 284.717323 
L 196.798255 283.33309 
L 197.295382 281.767423 
L 197.668227 279.831437 
L 197.934545 277.213235 
L 198.112091 273.122546 
L 198.218618 264.656602 
L 198.271882 236.517416 
L 198.360655 68.733513 
L 198.431673 93.023873 
L 198.946555 311.66469 
L 199.141855 319.356682 
L 199.337155 320.270716 
L 199.461436 320.229803 
L 200.118355 319.651607 
L 200.899555 319.454126 
L 201.361173 318.996471 
L 201.982582 318.024364 
L 202.976836 315.994054 
L 207.379964 306.560227 
L 209.155418 303.477212 
L 210.948627 300.801167 
L 212.830609 298.391394 
L 214.836873 296.184991 
L 217.073945 294.060491 
L 219.790391 291.800248 
L 225.596127 287.075089 
L 226.821191 285.717897 
L 227.691164 284.431383 
L 228.330327 283.095683 
L 228.8097 281.584044 
L 229.164791 279.743491 
L 229.431109 277.137727 
L 229.608655 273.028899 
L 229.715182 264.380854 
L 229.768445 234.312557 
L 229.857218 68.951138 
L 229.910482 84.800673 
L 230.460873 313.4995 
L 230.638418 319.084173 
L 230.815964 319.713816 
L 230.958 319.66247 
L 231.455127 319.354123 
L 232.467136 319.261479 
L 232.928755 318.795039 
L 233.567918 317.785455 
L 234.615436 315.645447 
L 238.663473 307.037603 
L 240.438927 303.934393 
L 242.232136 301.242093 
L 244.078609 298.865353 
L 246.049364 296.690127 
L 248.215418 294.63491 
L 250.718809 292.573551 
L 254.465018 289.815516 
L 257.430027 287.532797 
L 258.8859 286.138278 
L 259.880155 284.888077 
L 260.608091 283.620356 
L 261.158482 282.207061 
L 261.566836 280.536081 
L 261.868664 278.343641 
L 262.081718 275.069498 
L 262.206 269.982757 
L 262.277018 259.007285 
L 262.312527 227.165103 
L 262.4013 69.214197 
L 262.454564 86.634375 
L 263.004955 313.909356 
L 263.1825 319.326251 
L 263.360045 319.895448 
L 263.502082 319.783554 
L 263.928191 319.413089 
L 264.318791 319.460456 
L 264.780409 319.441797 
L 265.171009 319.188392 
L 265.685891 318.553541 
L 266.431582 317.234184 
L 267.834191 314.2079 
L 270.550636 308.391532 
L 272.3616 305.069505 
L 274.137055 302.271654 
L 275.948018 299.825863 
L 277.865509 297.609357 
L 279.925036 295.570445 
L 282.233127 293.603675 
L 285.038345 291.517027 
L 291.341209 286.941801 
L 292.619536 285.657367 
L 293.525018 284.435502 
L 294.181936 283.182949 
L 294.679064 281.763716 
L 295.051909 280.037281 
L 295.335982 277.60663 
L 295.531282 273.762134 
L 295.637809 267.425389 
L 295.691073 254.662302 
L 295.744336 119.319948 
L 295.7976 69.114463 
L 295.868618 91.885317 
L 296.3835 311.882708 
L 296.561045 319.278585 
L 296.738591 320.10702 
L 296.862873 320.03112 
L 297.36 319.540948 
L 297.803864 319.592516 
L 298.229973 319.534134 
L 298.638327 319.231354 
L 299.170964 318.527255 
L 299.969918 317.056637 
L 301.638845 313.396618 
L 303.982445 308.425048 
L 305.775655 305.146747 
L 307.551109 302.359995 
L 309.362073 299.927454 
L 311.261809 297.745995 
L 313.303582 295.741058 
L 315.576164 293.82618 
L 318.274855 291.853638 
L 325.944818 286.44506 
L 327.081109 285.238641 
L 327.897818 284.056385 
L 328.519227 282.759785 
L 328.980845 281.275312 
L 329.335936 279.337983 
L 329.5845 276.690217 
L 329.744291 272.681928 
L 329.850818 262.888216 
L 329.904082 218.632997 
L 329.992855 69.645225 
L 330.028364 80.171605 
L 330.632018 316.327894 
L 330.827318 319.910591 
L 330.9516 320.128025 
L 330.987109 320.112197 
L 331.253427 319.748212 
L 331.555255 319.545131 
L 332.016873 319.6023 
L 332.425227 319.539335 
L 332.833582 319.234585 
L 333.366218 318.530676 
L 334.182927 317.028733 
L 335.905118 313.263862 
L 338.195455 308.440656 
L 339.988664 305.184064 
L 341.764118 302.416943 
L 343.575082 300.003255 
L 345.474818 297.84133 
L 347.498836 295.874347 
L 349.735909 294.012259 
L 352.363582 292.123544 
L 356.198564 289.674866 
L 359.571927 287.437935 
L 361.134327 286.141016 
L 362.1996 284.979087 
L 362.9808 283.802532 
L 363.5667 282.51624 
L 364.010564 280.99615 
L 364.3479 279.001255 
L 364.578709 276.301096 
L 364.7385 271.620548 
L 364.827273 261.770483 
L 364.880536 221.435178 
L 364.969309 72.104283 
L 365.022573 90.059446 
L 365.572964 317.701245 
L 365.786018 325.923317 
L 366.1056 329.807562 
L 366.993327 336.854723 
L 367.756773 341.347972 
L 368.573482 344.831947 
L 369.496718 347.797544 
L 370.544236 350.424875 
L 371.751545 352.857708 
L 373.118645 355.11802 
L 374.663291 357.242512 
L 376.349973 359.18624 
L 378.178691 360.954603 
L 380.113936 362.518856 
L 382.173464 363.897299 
L 384.339518 365.078361 
L 386.6121 366.064418 
L 389.026718 366.868359 
L 391.601127 367.489408 
L 394.406345 367.933592 
L 397.513391 368.196131 
L 401.099809 368.27019 
L 405.5562 368.12894 
L 412.285173 367.666621 
L 426.364527 366.676005 
L 435.028745 366.325832 
L 435.845455 366.303481 
L 435.845455 366.303481 
" style="fill:none;stroke:#ff0000;stroke-linecap:square;stroke-width:1.5;"/>
   </g>
   <g id="patch_3">
    <path d="M 63 384.48 
L 63 51.84 
" style="fill:none;stroke:#000000;stroke-linecap:square;stroke-linejoin:miter;stroke-width:0.8;"/>
   </g>
   <g id="patch_4">
    <path d="M 453.6 384.48 
L 453.6 51.84 
" style="fill:none;stroke:#000000;stroke-linecap:square;stroke-linejoin:miter;stroke-width:0.8;"/>
   </g>
   <g id="patch_5">
    <path d="M 63 384.48 
L 453.6 384.48 
" style="fill:none;stroke:#000000;stroke-linecap:square;stroke-linejoin:miter;stroke-width:0.8;"/>
   </g>
   <g id="patch_6">
    <path d="M 63 51.84 
L 453.6 51.84 
" style="fill:none;stroke:#000000;stroke-linecap:square;stroke-linejoin:miter;stroke-width:0.8;"/>
   </g>
   <g id="legend_1">
    <g id="patch_7">
     <path d="M 383.460938 89.19625 
L 446.6 89.19625 
Q 448.6 89.19625 448.6 87.19625 
L 448.6 58.84 
Q 448.6 56.84 446.6 56.84 
L 383.460938 56.84 
Q 381.460938 56.84 381.460938 58.84 
L 381.460938 87.19625 
Q 381.460938 89.19625 383.460938 89.19625 
z
" style="fill:#ffffff;opacity:0.8;stroke:#cccccc;stroke-linejoin:miter;"/>
    </g>
    <g id="line2d_13">
     <path d="M 385.460938 64.938437 
L 405.460938 64.938437 
" style="fill:none;stroke:#1f77b4;stroke-linecap:square;stroke-width:1.5;"/>
    </g>
    <g id="line2d_14"/>
    <g id="text_13">
     <!-- target -->
     <defs>
      <path d="M 41.109375 46.296875 
Q 39.59375 47.171875 37.8125 47.578125 
Q 36.03125 48 33.890625 48 
Q 26.265625 48 22.1875 43.046875 
Q 18.109375 38.09375 18.109375 28.8125 
L 18.109375 0 
L 9.078125 0 
L 9.078125 54.6875 
L 18.109375 54.6875 
L 18.109375 46.1875 
Q 20.953125 51.171875 25.484375 53.578125 
Q 30.03125 56 36.53125 56 
Q 37.453125 56 38.578125 55.875 
Q 39.703125 55.765625 41.0625 55.515625 
z
" id="DejaVuSans-114"/>
     </defs>
     <g transform="translate(413.460938 68.438437)scale(0.1 -0.1)">
      <use xlink:href="#DejaVuSans-116"/>
      <use x="39.208984" xlink:href="#DejaVuSans-97"/>
      <use x="100.488281" xlink:href="#DejaVuSans-114"/>
      <use x="141.585938" xlink:href="#DejaVuSans-103"/>
      <use x="205.0625" xlink:href="#DejaVuSans-101"/>
      <use x="266.585938" xlink:href="#DejaVuSans-116"/>
     </g>
    </g>
    <g id="line2d_15">
     <path d="M 385.460938 79.616562 
L 405.460938 79.616562 
" style="fill:none;stroke:#ff0000;stroke-linecap:square;stroke-width:1.5;"/>
    </g>
    <g id="line2d_16"/>
    <g id="text_14">
     <!-- model -->
     <defs>
      <path d="M 45.40625 46.390625 
L 45.40625 75.984375 
L 54.390625 75.984375 
L 54.390625 0 
L 45.40625 0 
L 45.40625 8.203125 
Q 42.578125 3.328125 38.25 0.953125 
Q 33.9375 -1.421875 27.875 -1.421875 
Q 17.96875 -1.421875 11.734375 6.484375 
Q 5.515625 14.40625 5.515625 27.296875 
Q 5.515625 40.1875 11.734375 48.09375 
Q 17.96875 56 27.875 56 
Q 33.9375 56 38.25 53.625 
Q 42.578125 51.265625 45.40625 46.390625 
z
M 14.796875 27.296875 
Q 14.796875 17.390625 18.875 11.75 
Q 22.953125 6.109375 30.078125 6.109375 
Q 37.203125 6.109375 41.296875 11.75 
Q 45.40625 17.390625 45.40625 27.296875 
Q 45.40625 37.203125 41.296875 42.84375 
Q 37.203125 48.484375 30.078125 48.484375 
Q 22.953125 48.484375 18.875 42.84375 
Q 14.796875 37.203125 14.796875 27.296875 
z
" id="DejaVuSans-100"/>
     </defs>
     <g transform="translate(413.460938 83.116562)scale(0.1 -0.1)">
      <use xlink:href="#DejaVuSans-109"/>
      <use x="97.412109" xlink:href="#DejaVuSans-111"/>
      <use x="158.59375" xlink:href="#DejaVuSans-100"/>
      <use x="222.070312" xlink:href="#DejaVuSans-101"/>
      <use x="283.59375" xlink:href="#DejaVuSans-108"/>
     </g>
    </g>
   </g>
  </g>
 </g>
 <defs>
  <clipPath id="pf7ab694a72">
   <rect height="332.64" width="390.6" x="63" y="51.84"/>
  </clipPath>
 </defs>
</svg>
