<?xml version="1.0" encoding="utf-8" standalone="no"?>
<!DOCTYPE svg PUBLIC "-//W3C//DTD SVG 1.1//EN"
  "http://www.w3.org/Graphics/SVG/1.1/DTD/svg11.dtd">
<!-- Created with matplotlib (https://matplotlib.org/) -->
<svg height="432pt" version="1.1" viewBox="0 0 504 432" width="504pt" xmlns="http://www.w3.org/2000/svg" xmlns:xlink="http://www.w3.org/1999/xlink">
 <defs>
  <style type="text/css">
*{stroke-linecap:butt;stroke-linejoin:round;}
  </style>
 </defs>
 <g id="figure_1">
  <g id="patch_1">
   <path d="M 0 432 
L 504 432 
L 504 0 
L 0 0 
z
" style="fill:#ffffff;"/>
  </g>
  <g id="axes_1">
   <g id="patch_2">
    <path d="M 63 384.48 
L 453.6 384.48 
L 453.6 51.84 
L 63 51.84 
z
" style="fill:#ffffff;"/>
   </g>
   <g id="matplotlib.axis_1">
    <g id="xtick_1">
     <g id="line2d_1">
      <defs>
       <path d="M 0 0 
L 0 3.5 
" id="md4460394b5" style="stroke:#000000;stroke-width:0.8;"/>
      </defs>
      <g>
       <use style="stroke:#000000;stroke-width:0.8;" x="80.754545" xlink:href="#md4460394b5" y="384.48"/>
      </g>
     </g>
     <g id="text_1">
      <!-- 0 -->
      <defs>
       <path d="M 31.78125 66.40625 
Q 24.171875 66.40625 20.328125 58.90625 
Q 16.5 51.421875 16.5 36.375 
Q 16.5 21.390625 20.328125 13.890625 
Q 24.171875 6.390625 31.78125 6.390625 
Q 39.453125 6.390625 43.28125 13.890625 
Q 47.125 21.390625 47.125 36.375 
Q 47.125 51.421875 43.28125 58.90625 
Q 39.453125 66.40625 31.78125 66.40625 
z
M 31.78125 74.21875 
Q 44.046875 74.21875 50.515625 64.515625 
Q 56.984375 54.828125 56.984375 36.375 
Q 56.984375 17.96875 50.515625 8.265625 
Q 44.046875 -1.421875 31.78125 -1.421875 
Q 19.53125 -1.421875 13.0625 8.265625 
Q 6.59375 17.96875 6.59375 36.375 
Q 6.59375 54.828125 13.0625 64.515625 
Q 19.53125 74.21875 31.78125 74.21875 
z
" id="DejaVuSans-48"/>
      </defs>
      <g transform="translate(77.573295 399.078438)scale(0.1 -0.1)">
       <use xlink:href="#DejaVuSans-48"/>
      </g>
     </g>
    </g>
    <g id="xtick_2">
     <g id="line2d_2">
      <g>
       <use style="stroke:#000000;stroke-width:0.8;" x="151.767796" xlink:href="#md4460394b5" y="384.48"/>
      </g>
     </g>
     <g id="text_2">
      <!-- 720 -->
      <defs>
       <path d="M 8.203125 72.90625 
L 55.078125 72.90625 
L 55.078125 68.703125 
L 28.609375 0 
L 18.3125 0 
L 43.21875 64.59375 
L 8.203125 64.59375 
z
" id="DejaVuSans-55"/>
       <path d="M 19.1875 8.296875 
L 53.609375 8.296875 
L 53.609375 0 
L 7.328125 0 
L 7.328125 8.296875 
Q 12.9375 14.109375 22.625 23.890625 
Q 32.328125 33.6875 34.8125 36.53125 
Q 39.546875 41.84375 41.421875 45.53125 
Q 43.3125 49.21875 43.3125 52.78125 
Q 43.3125 58.59375 39.234375 62.25 
Q 35.15625 65.921875 28.609375 65.921875 
Q 23.96875 65.921875 18.8125 64.3125 
Q 13.671875 62.703125 7.8125 59.421875 
L 7.8125 69.390625 
Q 13.765625 71.78125 18.9375 73 
Q 24.125 74.21875 28.421875 74.21875 
Q 39.75 74.21875 46.484375 68.546875 
Q 53.21875 62.890625 53.21875 53.421875 
Q 53.21875 48.921875 51.53125 44.890625 
Q 49.859375 40.875 45.40625 35.40625 
Q 44.1875 33.984375 37.640625 27.21875 
Q 31.109375 20.453125 19.1875 8.296875 
z
" id="DejaVuSans-50"/>
      </defs>
      <g transform="translate(142.224046 399.078438)scale(0.1 -0.1)">
       <use xlink:href="#DejaVuSans-55"/>
       <use x="63.623047" xlink:href="#DejaVuSans-50"/>
       <use x="127.246094" xlink:href="#DejaVuSans-48"/>
      </g>
     </g>
    </g>
    <g id="xtick_3">
     <g id="line2d_3">
      <g>
       <use style="stroke:#000000;stroke-width:0.8;" x="222.781046" xlink:href="#md4460394b5" y="384.48"/>
      </g>
     </g>
     <g id="text_3">
      <!-- 1440 -->
      <defs>
       <path d="M 12.40625 8.296875 
L 28.515625 8.296875 
L 28.515625 63.921875 
L 10.984375 60.40625 
L 10.984375 69.390625 
L 28.421875 72.90625 
L 38.28125 72.90625 
L 38.28125 8.296875 
L 54.390625 8.296875 
L 54.390625 0 
L 12.40625 0 
z
" id="DejaVuSans-49"/>
       <path d="M 37.796875 64.3125 
L 12.890625 25.390625 
L 37.796875 25.390625 
z
M 35.203125 72.90625 
L 47.609375 72.90625 
L 47.609375 25.390625 
L 58.015625 25.390625 
L 58.015625 17.1875 
L 47.609375 17.1875 
L 47.609375 0 
L 37.796875 0 
L 37.796875 17.1875 
L 4.890625 17.1875 
L 4.890625 26.703125 
z
" id="DejaVuSans-52"/>
      </defs>
      <g transform="translate(210.056046 399.078438)scale(0.1 -0.1)">
       <use xlink:href="#DejaVuSans-49"/>
       <use x="63.623047" xlink:href="#DejaVuSans-52"/>
       <use x="127.246094" xlink:href="#DejaVuSans-52"/>
       <use x="190.869141" xlink:href="#DejaVuSans-48"/>
      </g>
     </g>
    </g>
    <g id="xtick_4">
     <g id="line2d_4">
      <g>
       <use style="stroke:#000000;stroke-width:0.8;" x="293.794296" xlink:href="#md4460394b5" y="384.48"/>
      </g>
     </g>
     <g id="text_4">
      <!-- 2160 -->
      <defs>
       <path d="M 33.015625 40.375 
Q 26.375 40.375 22.484375 35.828125 
Q 18.609375 31.296875 18.609375 23.390625 
Q 18.609375 15.53125 22.484375 10.953125 
Q 26.375 6.390625 33.015625 6.390625 
Q 39.65625 6.390625 43.53125 10.953125 
Q 47.40625 15.53125 47.40625 23.390625 
Q 47.40625 31.296875 43.53125 35.828125 
Q 39.65625 40.375 33.015625 40.375 
z
M 52.59375 71.296875 
L 52.59375 62.3125 
Q 48.875 64.0625 45.09375 64.984375 
Q 41.3125 65.921875 37.59375 65.921875 
Q 27.828125 65.921875 22.671875 59.328125 
Q 17.53125 52.734375 16.796875 39.40625 
Q 19.671875 43.65625 24.015625 45.921875 
Q 28.375 48.1875 33.59375 48.1875 
Q 44.578125 48.1875 50.953125 41.515625 
Q 57.328125 34.859375 57.328125 23.390625 
Q 57.328125 12.15625 50.6875 5.359375 
Q 44.046875 -1.421875 33.015625 -1.421875 
Q 20.359375 -1.421875 13.671875 8.265625 
Q 6.984375 17.96875 6.984375 36.375 
Q 6.984375 53.65625 15.1875 63.9375 
Q 23.390625 74.21875 37.203125 74.21875 
Q 40.921875 74.21875 44.703125 73.484375 
Q 48.484375 72.75 52.59375 71.296875 
z
" id="DejaVuSans-54"/>
      </defs>
      <g transform="translate(281.069296 399.078438)scale(0.1 -0.1)">
       <use xlink:href="#DejaVuSans-50"/>
       <use x="63.623047" xlink:href="#DejaVuSans-49"/>
       <use x="127.246094" xlink:href="#DejaVuSans-54"/>
       <use x="190.869141" xlink:href="#DejaVuSans-48"/>
      </g>
     </g>
    </g>
    <g id="xtick_5">
     <g id="line2d_5">
      <g>
       <use style="stroke:#000000;stroke-width:0.8;" x="364.807547" xlink:href="#md4460394b5" y="384.48"/>
      </g>
     </g>
     <g id="text_5">
      <!-- 2880 -->
      <defs>
       <path d="M 31.78125 34.625 
Q 24.75 34.625 20.71875 30.859375 
Q 16.703125 27.09375 16.703125 20.515625 
Q 16.703125 13.921875 20.71875 10.15625 
Q 24.75 6.390625 31.78125 6.390625 
Q 38.8125 6.390625 42.859375 10.171875 
Q 46.921875 13.96875 46.921875 20.515625 
Q 46.921875 27.09375 42.890625 30.859375 
Q 38.875 34.625 31.78125 34.625 
z
M 21.921875 38.8125 
Q 15.578125 40.375 12.03125 44.71875 
Q 8.5 49.078125 8.5 55.328125 
Q 8.5 64.0625 14.71875 69.140625 
Q 20.953125 74.21875 31.78125 74.21875 
Q 42.671875 74.21875 48.875 69.140625 
Q 55.078125 64.0625 55.078125 55.328125 
Q 55.078125 49.078125 51.53125 44.71875 
Q 48 40.375 41.703125 38.8125 
Q 48.828125 37.15625 52.796875 32.3125 
Q 56.78125 27.484375 56.78125 20.515625 
Q 56.78125 9.90625 50.3125 4.234375 
Q 43.84375 -1.421875 31.78125 -1.421875 
Q 19.734375 -1.421875 13.25 4.234375 
Q 6.78125 9.90625 6.78125 20.515625 
Q 6.78125 27.484375 10.78125 32.3125 
Q 14.796875 37.15625 21.921875 38.8125 
z
M 18.3125 54.390625 
Q 18.3125 48.734375 21.84375 45.5625 
Q 25.390625 42.390625 31.78125 42.390625 
Q 38.140625 42.390625 41.71875 45.5625 
Q 45.3125 48.734375 45.3125 54.390625 
Q 45.3125 60.0625 41.71875 63.234375 
Q 38.140625 66.40625 31.78125 66.40625 
Q 25.390625 66.40625 21.84375 63.234375 
Q 18.3125 60.0625 18.3125 54.390625 
z
" id="DejaVuSans-56"/>
      </defs>
      <g transform="translate(352.082547 399.078438)scale(0.1 -0.1)">
       <use xlink:href="#DejaVuSans-50"/>
       <use x="63.623047" xlink:href="#DejaVuSans-56"/>
       <use x="127.246094" xlink:href="#DejaVuSans-56"/>
       <use x="190.869141" xlink:href="#DejaVuSans-48"/>
      </g>
     </g>
    </g>
    <g id="text_6">
     <!-- time [ms] -->
     <defs>
      <path d="M 18.3125 70.21875 
L 18.3125 54.6875 
L 36.8125 54.6875 
L 36.8125 47.703125 
L 18.3125 47.703125 
L 18.3125 18.015625 
Q 18.3125 11.328125 20.140625 9.421875 
Q 21.96875 7.515625 27.59375 7.515625 
L 36.8125 7.515625 
L 36.8125 0 
L 27.59375 0 
Q 17.1875 0 13.234375 3.875 
Q 9.28125 7.765625 9.28125 18.015625 
L 9.28125 47.703125 
L 2.6875 47.703125 
L 2.6875 54.6875 
L 9.28125 54.6875 
L 9.28125 70.21875 
z
" id="DejaVuSans-116"/>
      <path d="M 9.421875 54.6875 
L 18.40625 54.6875 
L 18.40625 0 
L 9.421875 0 
z
M 9.421875 75.984375 
L 18.40625 75.984375 
L 18.40625 64.59375 
L 9.421875 64.59375 
z
" id="DejaVuSans-105"/>
      <path d="M 52 44.1875 
Q 55.375 50.25 60.0625 53.125 
Q 64.75 56 71.09375 56 
Q 79.640625 56 84.28125 50.015625 
Q 88.921875 44.046875 88.921875 33.015625 
L 88.921875 0 
L 79.890625 0 
L 79.890625 32.71875 
Q 79.890625 40.578125 77.09375 44.375 
Q 74.3125 48.1875 68.609375 48.1875 
Q 61.625 48.1875 57.5625 43.546875 
Q 53.515625 38.921875 53.515625 30.90625 
L 53.515625 0 
L 44.484375 0 
L 44.484375 32.71875 
Q 44.484375 40.625 41.703125 44.40625 
Q 38.921875 48.1875 33.109375 48.1875 
Q 26.21875 48.1875 22.15625 43.53125 
Q 18.109375 38.875 18.109375 30.90625 
L 18.109375 0 
L 9.078125 0 
L 9.078125 54.6875 
L 18.109375 54.6875 
L 18.109375 46.1875 
Q 21.1875 51.21875 25.484375 53.609375 
Q 29.78125 56 35.6875 56 
Q 41.65625 56 45.828125 52.96875 
Q 50 49.953125 52 44.1875 
z
" id="DejaVuSans-109"/>
      <path d="M 56.203125 29.59375 
L 56.203125 25.203125 
L 14.890625 25.203125 
Q 15.484375 15.921875 20.484375 11.0625 
Q 25.484375 6.203125 34.421875 6.203125 
Q 39.59375 6.203125 44.453125 7.46875 
Q 49.3125 8.734375 54.109375 11.28125 
L 54.109375 2.78125 
Q 49.265625 0.734375 44.1875 -0.34375 
Q 39.109375 -1.421875 33.890625 -1.421875 
Q 20.796875 -1.421875 13.15625 6.1875 
Q 5.515625 13.8125 5.515625 26.8125 
Q 5.515625 40.234375 12.765625 48.109375 
Q 20.015625 56 32.328125 56 
Q 43.359375 56 49.78125 48.890625 
Q 56.203125 41.796875 56.203125 29.59375 
z
M 47.21875 32.234375 
Q 47.125 39.59375 43.09375 43.984375 
Q 39.0625 48.390625 32.421875 48.390625 
Q 24.90625 48.390625 20.390625 44.140625 
Q 15.875 39.890625 15.1875 32.171875 
z
" id="DejaVuSans-101"/>
      <path id="DejaVuSans-32"/>
      <path d="M 8.59375 75.984375 
L 29.296875 75.984375 
L 29.296875 69 
L 17.578125 69 
L 17.578125 -6.203125 
L 29.296875 -6.203125 
L 29.296875 -13.1875 
L 8.59375 -13.1875 
z
" id="DejaVuSans-91"/>
      <path d="M 44.28125 53.078125 
L 44.28125 44.578125 
Q 40.484375 46.53125 36.375 47.5 
Q 32.28125 48.484375 27.875 48.484375 
Q 21.1875 48.484375 17.84375 46.4375 
Q 14.5 44.390625 14.5 40.28125 
Q 14.5 37.15625 16.890625 35.375 
Q 19.28125 33.59375 26.515625 31.984375 
L 29.59375 31.296875 
Q 39.15625 29.25 43.1875 25.515625 
Q 47.21875 21.78125 47.21875 15.09375 
Q 47.21875 7.46875 41.1875 3.015625 
Q 35.15625 -1.421875 24.609375 -1.421875 
Q 20.21875 -1.421875 15.453125 -0.5625 
Q 10.6875 0.296875 5.421875 2 
L 5.421875 11.28125 
Q 10.40625 8.6875 15.234375 7.390625 
Q 20.0625 6.109375 24.8125 6.109375 
Q 31.15625 6.109375 34.5625 8.28125 
Q 37.984375 10.453125 37.984375 14.40625 
Q 37.984375 18.0625 35.515625 20.015625 
Q 33.0625 21.96875 24.703125 23.78125 
L 21.578125 24.515625 
Q 13.234375 26.265625 9.515625 29.90625 
Q 5.8125 33.546875 5.8125 39.890625 
Q 5.8125 47.609375 11.28125 51.796875 
Q 16.75 56 26.8125 56 
Q 31.78125 56 36.171875 55.265625 
Q 40.578125 54.546875 44.28125 53.078125 
z
" id="DejaVuSans-115"/>
      <path d="M 30.421875 75.984375 
L 30.421875 -13.1875 
L 9.71875 -13.1875 
L 9.71875 -6.203125 
L 21.390625 -6.203125 
L 21.390625 69 
L 9.71875 69 
L 9.71875 75.984375 
z
" id="DejaVuSans-93"/>
     </defs>
     <g transform="translate(234.038281 412.756563)scale(0.1 -0.1)">
      <use xlink:href="#DejaVuSans-116"/>
      <use x="39.208984" xlink:href="#DejaVuSans-105"/>
      <use x="66.992188" xlink:href="#DejaVuSans-109"/>
      <use x="164.404297" xlink:href="#DejaVuSans-101"/>
      <use x="225.927734" xlink:href="#DejaVuSans-32"/>
      <use x="257.714844" xlink:href="#DejaVuSans-91"/>
      <use x="296.728516" xlink:href="#DejaVuSans-109"/>
      <use x="394.140625" xlink:href="#DejaVuSans-115"/>
      <use x="446.240234" xlink:href="#DejaVuSans-93"/>
     </g>
    </g>
   </g>
   <g id="matplotlib.axis_2">
    <g id="ytick_1">
     <g id="line2d_6">
      <defs>
       <path d="M 0 0 
L -3.5 0 
" id="mbf1442551c" style="stroke:#000000;stroke-width:0.8;"/>
      </defs>
      <g>
       <use style="stroke:#000000;stroke-width:0.8;" x="63" xlink:href="#mbf1442551c" y="365.963408"/>
      </g>
     </g>
     <g id="text_7">
      <!-- −80 -->
      <defs>
       <path d="M 10.59375 35.5 
L 73.1875 35.5 
L 73.1875 27.203125 
L 10.59375 27.203125 
z
" id="DejaVuSans-8722"/>
      </defs>
      <g transform="translate(34.895313 369.762627)scale(0.1 -0.1)">
       <use xlink:href="#DejaVuSans-8722"/>
       <use x="83.789062" xlink:href="#DejaVuSans-56"/>
       <use x="147.412109" xlink:href="#DejaVuSans-48"/>
      </g>
     </g>
    </g>
    <g id="ytick_2">
     <g id="line2d_7">
      <g>
       <use style="stroke:#000000;stroke-width:0.8;" x="63" xlink:href="#mbf1442551c" y="312.166744"/>
      </g>
     </g>
     <g id="text_8">
      <!-- −60 -->
      <g transform="translate(34.895313 315.965963)scale(0.1 -0.1)">
       <use xlink:href="#DejaVuSans-8722"/>
       <use x="83.789062" xlink:href="#DejaVuSans-54"/>
       <use x="147.412109" xlink:href="#DejaVuSans-48"/>
      </g>
     </g>
    </g>
    <g id="ytick_3">
     <g id="line2d_8">
      <g>
       <use style="stroke:#000000;stroke-width:0.8;" x="63" xlink:href="#mbf1442551c" y="258.37008"/>
      </g>
     </g>
     <g id="text_9">
      <!-- −40 -->
      <g transform="translate(34.895313 262.169299)scale(0.1 -0.1)">
       <use xlink:href="#DejaVuSans-8722"/>
       <use x="83.789062" xlink:href="#DejaVuSans-52"/>
       <use x="147.412109" xlink:href="#DejaVuSans-48"/>
      </g>
     </g>
    </g>
    <g id="ytick_4">
     <g id="line2d_9">
      <g>
       <use style="stroke:#000000;stroke-width:0.8;" x="63" xlink:href="#mbf1442551c" y="204.573416"/>
      </g>
     </g>
     <g id="text_10">
      <!-- −20 -->
      <g transform="translate(34.895313 208.372635)scale(0.1 -0.1)">
       <use xlink:href="#DejaVuSans-8722"/>
       <use x="83.789062" xlink:href="#DejaVuSans-50"/>
       <use x="147.412109" xlink:href="#DejaVuSans-48"/>
      </g>
     </g>
    </g>
    <g id="ytick_5">
     <g id="line2d_10">
      <g>
       <use style="stroke:#000000;stroke-width:0.8;" x="63" xlink:href="#mbf1442551c" y="150.776752"/>
      </g>
     </g>
     <g id="text_11">
      <!-- 0 -->
      <g transform="translate(49.6375 154.575971)scale(0.1 -0.1)">
       <use xlink:href="#DejaVuSans-48"/>
      </g>
     </g>
    </g>
    <g id="ytick_6">
     <g id="line2d_11">
      <g>
       <use style="stroke:#000000;stroke-width:0.8;" x="63" xlink:href="#mbf1442551c" y="96.980088"/>
      </g>
     </g>
     <g id="text_12">
      <!-- 20 -->
      <g transform="translate(43.275 100.779307)scale(0.1 -0.1)">
       <use xlink:href="#DejaVuSans-50"/>
       <use x="63.623047" xlink:href="#DejaVuSans-48"/>
      </g>
     </g>
    </g>
    <g id="text_13">
     <!-- Voltage [mV] -->
     <defs>
      <path d="M 28.609375 0 
L 0.78125 72.90625 
L 11.078125 72.90625 
L 34.1875 11.53125 
L 57.328125 72.90625 
L 67.578125 72.90625 
L 39.796875 0 
z
" id="DejaVuSans-86"/>
      <path d="M 30.609375 48.390625 
Q 23.390625 48.390625 19.1875 42.75 
Q 14.984375 37.109375 14.984375 27.296875 
Q 14.984375 17.484375 19.15625 11.84375 
Q 23.34375 6.203125 30.609375 6.203125 
Q 37.796875 6.203125 41.984375 11.859375 
Q 46.1875 17.53125 46.1875 27.296875 
Q 46.1875 37.015625 41.984375 42.703125 
Q 37.796875 48.390625 30.609375 48.390625 
z
M 30.609375 56 
Q 42.328125 56 49.015625 48.375 
Q 55.71875 40.765625 55.71875 27.296875 
Q 55.71875 13.875 49.015625 6.21875 
Q 42.328125 -1.421875 30.609375 -1.421875 
Q 18.84375 -1.421875 12.171875 6.21875 
Q 5.515625 13.875 5.515625 27.296875 
Q 5.515625 40.765625 12.171875 48.375 
Q 18.84375 56 30.609375 56 
z
" id="DejaVuSans-111"/>
      <path d="M 9.421875 75.984375 
L 18.40625 75.984375 
L 18.40625 0 
L 9.421875 0 
z
" id="DejaVuSans-108"/>
      <path d="M 34.28125 27.484375 
Q 23.390625 27.484375 19.1875 25 
Q 14.984375 22.515625 14.984375 16.5 
Q 14.984375 11.71875 18.140625 8.90625 
Q 21.296875 6.109375 26.703125 6.109375 
Q 34.1875 6.109375 38.703125 11.40625 
Q 43.21875 16.703125 43.21875 25.484375 
L 43.21875 27.484375 
z
M 52.203125 31.203125 
L 52.203125 0 
L 43.21875 0 
L 43.21875 8.296875 
Q 40.140625 3.328125 35.546875 0.953125 
Q 30.953125 -1.421875 24.3125 -1.421875 
Q 15.921875 -1.421875 10.953125 3.296875 
Q 6 8.015625 6 15.921875 
Q 6 25.140625 12.171875 29.828125 
Q 18.359375 34.515625 30.609375 34.515625 
L 43.21875 34.515625 
L 43.21875 35.40625 
Q 43.21875 41.609375 39.140625 45 
Q 35.0625 48.390625 27.6875 48.390625 
Q 23 48.390625 18.546875 47.265625 
Q 14.109375 46.140625 10.015625 43.890625 
L 10.015625 52.203125 
Q 14.9375 54.109375 19.578125 55.046875 
Q 24.21875 56 28.609375 56 
Q 40.484375 56 46.34375 49.84375 
Q 52.203125 43.703125 52.203125 31.203125 
z
" id="DejaVuSans-97"/>
      <path d="M 45.40625 27.984375 
Q 45.40625 37.75 41.375 43.109375 
Q 37.359375 48.484375 30.078125 48.484375 
Q 22.859375 48.484375 18.828125 43.109375 
Q 14.796875 37.75 14.796875 27.984375 
Q 14.796875 18.265625 18.828125 12.890625 
Q 22.859375 7.515625 30.078125 7.515625 
Q 37.359375 7.515625 41.375 12.890625 
Q 45.40625 18.265625 45.40625 27.984375 
z
M 54.390625 6.78125 
Q 54.390625 -7.171875 48.1875 -13.984375 
Q 42 -20.796875 29.203125 -20.796875 
Q 24.46875 -20.796875 20.265625 -20.09375 
Q 16.0625 -19.390625 12.109375 -17.921875 
L 12.109375 -9.1875 
Q 16.0625 -11.328125 19.921875 -12.34375 
Q 23.78125 -13.375 27.78125 -13.375 
Q 36.625 -13.375 41.015625 -8.765625 
Q 45.40625 -4.15625 45.40625 5.171875 
L 45.40625 9.625 
Q 42.625 4.78125 38.28125 2.390625 
Q 33.9375 0 27.875 0 
Q 17.828125 0 11.671875 7.65625 
Q 5.515625 15.328125 5.515625 27.984375 
Q 5.515625 40.671875 11.671875 48.328125 
Q 17.828125 56 27.875 56 
Q 33.9375 56 38.28125 53.609375 
Q 42.625 51.21875 45.40625 46.390625 
L 45.40625 54.6875 
L 54.390625 54.6875 
z
" id="DejaVuSans-103"/>
     </defs>
     <g transform="translate(28.815625 251.079531)rotate(-90)scale(0.1 -0.1)">
      <use xlink:href="#DejaVuSans-86"/>
      <use x="68.298828" xlink:href="#DejaVuSans-111"/>
      <use x="129.480469" xlink:href="#DejaVuSans-108"/>
      <use x="157.263672" xlink:href="#DejaVuSans-116"/>
      <use x="196.472656" xlink:href="#DejaVuSans-97"/>
      <use x="257.751953" xlink:href="#DejaVuSans-103"/>
      <use x="321.228516" xlink:href="#DejaVuSans-101"/>
      <use x="382.751953" xlink:href="#DejaVuSans-32"/>
      <use x="414.539062" xlink:href="#DejaVuSans-91"/>
      <use x="453.552734" xlink:href="#DejaVuSans-109"/>
      <use x="550.964844" xlink:href="#DejaVuSans-86"/>
      <use x="619.373047" xlink:href="#DejaVuSans-93"/>
     </g>
    </g>
   </g>
   <g id="line2d_12">
    <path clip-path="url(#pbca73c4057)" d="M 80.754545 325.61591 
L 80.887695 325.720075 
L 81.829607 326.739283 
L 82.505219 327.074553 
L 83.392885 327.252231 
L 84.867396 327.288734 
L 100.480448 327.077272 
L 100.638256 343.112254 
L 100.983459 354.896495 
L 101.437155 363.520966 
L 101.846467 367.647853 
L 102.176876 369.104946 
L 102.408655 369.359984 
L 102.571394 369.246251 
L 102.813036 368.741731 
L 103.247006 367.215083 
L 104.672203 361.910268 
L 105.288637 360.563525 
L 105.860688 359.814476 
L 106.43274 359.417096 
L 107.078763 359.242767 
L 107.97136 359.253468 
L 112.843658 359.620855 
L 130.069303 359.599629 
L 130.222178 344.048091 
L 130.552587 333.208938 
L 130.991489 325.477635 
L 131.425458 321.350495 
L 131.834771 319.350969 
L 132.1997 318.527336 
L 132.515315 318.283851 
L 132.816135 318.321872 
L 133.20079 318.622667 
L 133.812293 319.426972 
L 136.583782 323.39294 
L 137.693364 324.443311 
L 138.857192 325.239986 
L 139.932254 325.766018 
L 139.947049 325.615806 
L 140.045678 325.689909 
L 141.150329 326.828865 
L 141.860461 327.126494 
L 142.82703 327.272823 
L 144.587567 327.274812 
L 154.100384 327.092896 
L 159.663088 327.077272 
L 159.820896 323.868256 
L 160.166099 321.509115 
L 160.634589 319.714536 
L 161.132668 318.623342 
L 161.645542 318.00201 
L 162.20773 317.661252 
L 162.898136 317.510885 
L 163.928815 317.537891 
L 172.657527 318.286002 
L 179.921591 318.394258 
L 189.251943 318.419945 
L 189.40975 321.628521 
L 189.750022 323.941916 
L 190.218512 325.709597 
L 190.71166 326.770382 
L 191.229464 327.385479 
L 191.796584 327.720715 
L 192.501785 327.869874 
L 193.576847 327.844597 
L 199.114894 327.31015 
L 199.129689 325.615806 
L 199.228318 325.689909 
L 200.332969 326.828865 
L 201.043101 327.126494 
L 202.00967 327.272823 
L 203.770207 327.274812 
L 213.283024 327.092896 
L 218.845729 327.077272 
L 219.003536 320.658031 
L 219.348739 315.931558 
L 219.817229 312.324164 
L 220.315308 310.080211 
L 220.862702 308.595458 
L 221.484068 306.986687 
L 221.503794 306.263202 
L 221.52352 276.728729 
L 221.582698 70.329611 
L 221.661601 179.905238 
L 221.85886 304.323045 
L 222.046256 311.678418 
L 222.268173 313.228128 
L 222.465432 313.456756 
L 222.642965 313.329441 
L 223.017757 312.69255 
L 223.861039 311.311095 
L 224.487337 310.723203 
L 225.197469 310.364497 
L 226.139381 310.151901 
L 227.687864 310.059589 
L 232.984269 310.091352 
L 248.434583 310.087236 
L 248.59239 316.51879 
L 248.92773 321.071692 
L 249.381426 324.460343 
L 249.859779 326.492364 
L 250.338132 327.63266 
L 250.821417 328.250433 
L 251.334291 328.559012 
L 251.950725 328.664394 
L 252.858117 328.570912 
L 258.297534 327.574597 
L 258.312329 325.615806 
L 258.410958 325.689909 
L 259.515609 326.828865 
L 260.225741 327.126494 
L 261.192311 327.272823 
L 262.952847 327.274812 
L 272.465664 327.092896 
L 278.028369 327.077272 
L 278.186176 317.445603 
L 278.531379 310.322895 
L 279.019595 304.54862 
L 279.473291 299.638673 
L 279.488085 289.463821 
L 279.552195 68.632065 
L 279.626167 174.673675 
L 279.823426 300.920837 
L 280.00589 307.491116 
L 280.178492 308.139805 
L 280.183423 308.139115 
L 280.286984 308.001364 
L 280.528627 307.182089 
L 281.81081 302.358678 
L 282.456834 300.267074 
L 282.51108 299.333575 
L 282.530806 275.776597 
L 282.594915 75.822706 
L 282.663956 168.819272 
L 282.866146 301.440234 
L 283.048611 308.094318 
L 283.240938 309.019564 
L 283.354362 308.972114 
L 283.551621 308.501241 
L 285.18394 303.77753 
L 285.938456 302.698088 
L 286.599273 301.691576 
L 286.747218 300.995168 
L 286.766944 299.495043 
L 286.801464 219.563935 
L 286.845847 82.075114 
L 286.919819 171.742347 
L 287.12201 299.239193 
L 287.309406 306.495235 
L 287.526391 307.973272 
L 287.708855 308.129878 
L 287.881457 307.931176 
L 288.285838 307.010607 
L 289.119258 305.222377 
L 289.799801 304.29601 
L 290.628289 303.551706 
L 292.378963 302.101595 
L 292.541702 301.555591 
L 292.571291 300.918889 
L 292.591016 280.398404 
L 292.660057 86.045387 
L 292.729098 168.682504 
L 292.931288 297.511983 
L 293.123616 305.553446 
L 293.355395 307.411732 
L 293.562517 307.738682 
L 293.725256 307.653114 
L 294.031007 307.157973 
L 295.180041 305.15866 
L 295.939488 304.363131 
L 296.935647 303.657952 
L 298.888511 302.350822 
L 299.115359 301.858654 
L 299.179468 301.308184 
L 299.194262 296.865641 
L 299.243577 135.459025 
L 299.273166 88.707122 
L 299.342207 168.687263 
L 299.549329 296.941553 
L 299.741656 304.881517 
L 299.978367 306.945327 
L 300.205215 307.399409 
L 300.377817 307.356139 
L 300.663842 306.975387 
L 302.010135 304.948568 
L 302.848486 304.208269 
L 304.061629 303.460012 
L 305.521346 302.532773 
L 305.822166 302.0735 
L 305.93559 301.523164 
L 305.950384 300.594335 
L 305.97011 266.802496 
L 306.034219 90.526369 
L 306.108191 171.167225 
L 306.315313 296.560154 
L 306.507641 304.627663 
L 306.749283 306.805289 
L 306.976131 307.295996 
L 307.153664 307.271238 
L 307.429827 306.930131 
L 307.617223 306.619444 
L 307.770099 315.777149 
L 308.085713 321.609039 
L 308.50982 325.656153 
L 308.958584 327.99595 
L 309.407349 329.262134 
L 309.84625 329.896205 
L 310.295014 330.176079 
L 310.807888 330.230005 
L 311.527883 330.060064 
L 313.150339 329.376882 
L 315.241284 328.599624 
L 317.29771 328.083887 
L 317.480174 328.047996 
L 317.494969 325.615806 
L 317.593598 325.689909 
L 318.698249 326.828865 
L 319.408381 327.126494 
L 320.374951 327.272823 
L 322.135487 327.274812 
L 331.648304 327.092896 
L 337.211009 327.077272 
L 337.368816 314.229788 
L 337.718951 304.528911 
L 338.236756 292.184578 
L 338.271276 185.774861 
L 338.305796 67.42586 
L 338.379768 173.278511 
L 338.577027 297.538457 
L 338.749629 303.30237 
L 338.828533 303.517538 
L 338.877847 303.444457 
L 339.035655 302.711917 
L 339.597843 298.590222 
L 340.32277 292.357637 
L 340.381948 289.338976 
L 340.411536 214.095885 
L 340.45592 73.361042 
L 340.529892 174.295869 
L 340.727151 300.776036 
L 340.899753 306.235778 
L 340.973725 306.437286 
L 341.027971 306.356428 
L 341.185778 305.594853 
L 341.856459 300.636384 
L 342.936452 292.525617 
L 342.951246 287.522659 
L 343.020287 79.776918 
L 343.113985 197.232196 
L 343.301381 299.130679 
L 343.478914 304.664642 
L 343.607133 305.077491 
L 343.636722 305.05597 
L 343.760008 304.724796 
L 344.090417 303.009425 
L 345.081644 297.858998 
L 345.678353 294.820083 
L 345.752325 293.095639 
L 345.767119 280.372838 
L 345.83616 84.339838 
L 345.9052 167.391103 
L 346.107391 296.840683 
L 346.289856 303.541075 
L 346.47232 304.332889 
L 346.57095 304.232629 
L 346.778072 303.556459 
L 348.74573 294.906932 
L 348.780251 293.725343 
L 348.799977 260.881705 
L 348.864086 87.502478 
L 348.938058 172.295909 
L 349.140248 295.803256 
L 349.327645 302.721121 
L 349.524904 303.768228 
L 349.618602 303.764874 
L 349.643259 303.735801 
L 349.825724 303.291431 
L 350.368186 301.15501 
L 351.196674 298.292179 
L 351.85256 295.983369 
L 351.961053 294.603494 
L 351.975847 290.045794 
L 352.049819 89.769884 
L 352.148449 200.104521 
L 352.340776 295.957922 
L 352.528172 302.315097 
L 352.735294 303.46388 
L 352.843787 303.486726 
L 352.868444 303.462754 
L 353.045977 303.088737 
L 353.534193 301.361408 
L 354.407065 298.552618 
L 355.136923 296.20107 
L 355.245415 295.027504 
L 355.265141 290.292358 
L 355.339113 91.238744 
L 355.437743 198.934749 
L 355.630071 295.052322 
L 355.822398 301.81554 
L 356.034452 303.131869 
L 356.157738 303.207578 
L 356.187327 303.186543 
L 356.359929 302.873872 
L 356.79883 301.464774 
L 357.740742 298.602886 
L 358.470601 296.382182 
L 358.588956 295.248571 
L 358.608682 292.783486 
L 358.648134 182.511189 
L 358.687585 91.987092 
L 358.761558 170.815252 
L 358.96868 293.762831 
L 359.161007 301.359527 
L 359.377992 302.908796 
L 359.525936 303.042402 
L 359.545662 303.031502 
L 359.708401 302.77971 
L 360.088125 301.657857 
L 361.148392 298.544665 
L 361.838798 296.501474 
L 361.967017 295.34617 
L 361.986743 293.206144 
L 362.026195 185.502333 
L 362.065646 92.617133 
L 362.139618 169.914234 
L 362.34674 293.291572 
L 362.539068 301.139251 
L 362.760984 302.795271 
L 362.918792 302.951475 
L 362.933586 302.944213 
L 363.091393 302.719483 
L 363.451391 301.704073 
L 364.580699 298.468401 
L 365.231654 296.556584 
L 365.364804 295.353587 
L 365.384529 292.405943 
L 365.428913 156.956935 
L 365.463433 92.942452 
L 365.532474 165.169028 
L 365.744527 293.012618 
L 365.936855 300.928997 
L 366.158771 302.654301 
L 366.326441 302.843297 
L 366.336304 302.839388 
L 366.48918 302.643796 
L 366.799863 301.82316 
L 366.952739 313.888837 
L 367.25849 321.087784 
L 367.667803 325.915661 
L 368.106704 328.684974 
L 368.540674 330.145042 
L 368.964781 330.867924 
L 369.383956 331.174271 
L 369.842584 331.233178 
L 370.454087 331.067053 
L 371.578463 330.484176 
L 373.94064 329.270809 
L 375.750491 328.615578 
L 376.662814 328.365223 
L 376.677609 325.615806 
L 376.776238 325.689909 
L 377.880889 326.828865 
L 378.591021 327.126494 
L 379.557591 327.272823 
L 381.318128 327.274812 
L 390.830944 327.092896 
L 396.393649 327.077272 
L 396.551456 311.008796 
L 396.911454 298.304226 
L 397.153096 289.254667 
L 397.16789 270.414453 
L 397.222137 66.96 
L 397.30104 176.024949 
L 397.493368 294.00699 
L 397.661038 299.181804 
L 397.690627 299.211713 
L 397.739942 299.080191 
L 397.907612 297.803096 
L 398.43528 291.608343 
L 398.691716 286.565514 
L 398.741031 281.437587 
L 398.77062 194.934253 
L 398.810072 71.599403 
L 398.884044 172.573563 
L 399.081303 300.548931 
L 399.244042 304.891601 
L 399.263768 304.887867 
L 399.293357 304.805894 
L 399.426506 303.781348 
L 399.978832 296.999312 
L 400.634718 287.607808 
L 400.684033 283.254463 
L 400.718553 177.646418 
L 400.753073 78.136806 
L 400.827045 168.431342 
L 401.029236 298.296278 
L 401.196906 303.077064 
L 401.231426 303.132695 
L 401.285673 303.017394 
L 401.44348 301.958207 
L 402.119092 295.121965 
L 402.656623 288.68203 
L 402.725664 285.03135 
L 402.74539 244.653828 
L 402.804567 82.533506 
L 402.878539 173.984868 
L 403.08073 296.940745 
L 403.253332 301.944266 
L 403.312509 302.082748 
L 403.371687 301.98077 
L 403.534426 301.080217 
L 404.11634 296.072811 
L 404.801815 289.116256 
L 404.870856 285.912227 
L 404.88565 266.335911 
L 404.949759 85.615088 
L 405.0188 163.426332 
L 405.225922 295.179692 
L 405.403455 300.965787 
L 405.502084 301.268239 
L 405.546468 301.212998 
L 405.689481 300.621777 
L 406.098793 297.675034 
L 407.02591 289.585318 
L 407.099883 286.625309 
L 407.114677 271.267032 
L 407.178786 88.038376 
L 407.252758 166.979516 
L 407.45988 294.411191 
L 407.637413 300.415458 
L 407.7607 300.861857 
L 407.795221 300.834122 
L 407.918508 300.446714 
L 408.239053 298.489069 
L 409.294389 290.359818 
L 409.393019 287.744794 
L 409.412745 277.396241 
L 409.481785 89.41996 
L 409.550826 163.872367 
L 409.762879 293.696384 
L 409.945344 299.915968 
L 410.088357 300.473462 
L 410.113014 300.461908 
L 410.221507 300.204745 
L 410.487806 298.82537 
L 411.553005 291.54373 
L 411.725607 288.900483 
L 411.755196 285.886062 
L 411.794647 166.157438 
L 411.834099 90.599427 
L 411.90314 166.438625 
L 412.110262 292.736209 
L 412.292727 299.42214 
L 412.465328 300.155882 
L 412.47026 300.154866 
L 412.563958 300.005662 
L 412.776011 299.108752 
L 413.525595 294.519466 
L 414.028606 290.683488 
L 414.127235 288.244373 
L 414.146961 278.522996 
L 414.216002 91.118762 
L 414.285043 162.673601 
L 414.497096 292.492696 
L 414.679561 299.237525 
L 414.862025 300.048542 
L 414.950792 299.934833 
L 415.148051 299.178745 
L 415.754622 295.628898 
L 416.435166 290.846739 
L 416.538727 288.38456 
L 416.558453 278.464492 
L 416.627494 91.553644 
L 416.696534 162.622031 
L 416.908588 292.090408 
L 417.091052 299.025463 
L 417.278448 299.928669 
L 417.367215 299.836123 
L 417.554611 299.170266 
L 418.092142 296.143551 
L 418.861452 290.941364 
L 418.965013 288.630424 
L 418.984739 282.125942 
L 419.058711 91.939875 
L 419.132683 171.980742 
L 419.339805 291.96716 
L 419.527201 298.900669 
L 419.714597 299.79646 
L 419.808296 299.705203 
L 419.995692 299.056024 
L 420.528291 296.127644 
L 421.297601 291.023742 
L 421.406094 288.584758 
L 421.42582 279.71987 
L 421.49486 92.060817 
L 421.568832 167.973312 
L 421.780886 291.917212 
L 421.968282 298.812463 
L 422.155678 299.73652 
L 422.249376 299.658354 
L 422.431841 299.053389 
L 422.92992 296.375152 
L 423.743613 291.073087 
L 423.852106 288.719862 
L 423.871832 281.766808 
L 423.945804 92.295021 
L 424.019776 172.328674 
L 424.226898 291.575287 
L 424.414294 298.669381 
L 424.606621 299.658053 
L 424.700319 299.588306 
L 424.877853 299.021616 
L 425.351274 296.529696 
L 425.982503 292.849346 
L 426.14031 308.644261 
L 426.450993 318.24562 
L 426.865237 324.66979 
L 427.299207 328.279154 
L 427.733177 330.214816 
L 428.157284 331.187809 
L 428.566596 331.617653 
L 428.985772 331.746791 
L 429.498645 331.658105 
L 430.297544 331.263052 
L 433.917248 329.251388 
L 435.727099 328.609697 
L 435.845455 328.575258 
L 435.845455 328.575258 
" style="fill:none;stroke:#ff0000;stroke-linecap:square;stroke-width:1.5;"/>
   </g>
   <g id="patch_3">
    <path d="M 63 384.48 
L 63 51.84 
" style="fill:none;stroke:#000000;stroke-linecap:square;stroke-linejoin:miter;stroke-width:0.8;"/>
   </g>
   <g id="patch_4">
    <path d="M 453.6 384.48 
L 453.6 51.84 
" style="fill:none;stroke:#000000;stroke-linecap:square;stroke-linejoin:miter;stroke-width:0.8;"/>
   </g>
   <g id="patch_5">
    <path d="M 63 384.48 
L 453.6 384.48 
" style="fill:none;stroke:#000000;stroke-linecap:square;stroke-linejoin:miter;stroke-width:0.8;"/>
   </g>
   <g id="patch_6">
    <path d="M 63 51.84 
L 453.6 51.84 
" style="fill:none;stroke:#000000;stroke-linecap:square;stroke-linejoin:miter;stroke-width:0.8;"/>
   </g>
   <g id="legend_1">
    <g id="patch_7">
     <path d="M 70 74.518125 
L 133.139062 74.518125 
Q 135.139062 74.518125 135.139062 72.518125 
L 135.139062 58.84 
Q 135.139062 56.84 133.139062 56.84 
L 70 56.84 
Q 68 56.84 68 58.84 
L 68 72.518125 
Q 68 74.518125 70 74.518125 
z
" style="fill:#ffffff;opacity:0.8;stroke:#cccccc;stroke-linejoin:miter;"/>
    </g>
    <g id="line2d_13">
     <path d="M 72 64.938438 
L 92 64.938438 
" style="fill:none;stroke:#ff0000;stroke-linecap:square;stroke-width:1.5;"/>
    </g>
    <g id="line2d_14"/>
    <g id="text_14">
     <!-- model -->
     <defs>
      <path d="M 45.40625 46.390625 
L 45.40625 75.984375 
L 54.390625 75.984375 
L 54.390625 0 
L 45.40625 0 
L 45.40625 8.203125 
Q 42.578125 3.328125 38.25 0.953125 
Q 33.9375 -1.421875 27.875 -1.421875 
Q 17.96875 -1.421875 11.734375 6.484375 
Q 5.515625 14.40625 5.515625 27.296875 
Q 5.515625 40.1875 11.734375 48.09375 
Q 17.96875 56 27.875 56 
Q 33.9375 56 38.25 53.625 
Q 42.578125 51.265625 45.40625 46.390625 
z
M 14.796875 27.296875 
Q 14.796875 17.390625 18.875 11.75 
Q 22.953125 6.109375 30.078125 6.109375 
Q 37.203125 6.109375 41.296875 11.75 
Q 45.40625 17.390625 45.40625 27.296875 
Q 45.40625 37.203125 41.296875 42.84375 
Q 37.203125 48.484375 30.078125 48.484375 
Q 22.953125 48.484375 18.875 42.84375 
Q 14.796875 37.203125 14.796875 27.296875 
z
" id="DejaVuSans-100"/>
     </defs>
     <g transform="translate(100 68.438438)scale(0.1 -0.1)">
      <use xlink:href="#DejaVuSans-109"/>
      <use x="97.412109" xlink:href="#DejaVuSans-111"/>
      <use x="158.59375" xlink:href="#DejaVuSans-100"/>
      <use x="222.070312" xlink:href="#DejaVuSans-101"/>
      <use x="283.59375" xlink:href="#DejaVuSans-108"/>
     </g>
    </g>
   </g>
  </g>
 </g>
 <defs>
  <clipPath id="pbca73c4057">
   <rect height="332.64" width="390.6" x="63" y="51.84"/>
  </clipPath>
 </defs>
</svg>
