<?xml version="1.0" encoding="utf-8" standalone="no"?>
<!DOCTYPE svg PUBLIC "-//W3C//DTD SVG 1.1//EN"
  "http://www.w3.org/Graphics/SVG/1.1/DTD/svg11.dtd">
<!-- Created with matplotlib (https://matplotlib.org/) -->
<svg height="432pt" version="1.1" viewBox="0 0 504 432" width="504pt" xmlns="http://www.w3.org/2000/svg" xmlns:xlink="http://www.w3.org/1999/xlink">
 <defs>
  <style type="text/css">
*{stroke-linecap:butt;stroke-linejoin:round;}
  </style>
 </defs>
 <g id="figure_1">
  <g id="patch_1">
   <path d="M 0 432 
L 504 432 
L 504 0 
L 0 0 
z
" style="fill:#ffffff;"/>
  </g>
  <g id="axes_1">
   <g id="patch_2">
    <path d="M 63 384.48 
L 453.6 384.48 
L 453.6 51.84 
L 63 51.84 
z
" style="fill:#ffffff;"/>
   </g>
   <g id="matplotlib.axis_1">
    <g id="xtick_1">
     <g id="line2d_1">
      <defs>
       <path d="M 0 0 
L 0 3.5 
" id="m4e1f37aab0" style="stroke:#000000;stroke-width:0.8;"/>
      </defs>
      <g>
       <use style="stroke:#000000;stroke-width:0.8;" x="80.754545" xlink:href="#m4e1f37aab0" y="384.48"/>
      </g>
     </g>
     <g id="text_1">
      <!-- 0 -->
      <defs>
       <path d="M 31.78125 66.40625 
Q 24.171875 66.40625 20.328125 58.90625 
Q 16.5 51.421875 16.5 36.375 
Q 16.5 21.390625 20.328125 13.890625 
Q 24.171875 6.390625 31.78125 6.390625 
Q 39.453125 6.390625 43.28125 13.890625 
Q 47.125 21.390625 47.125 36.375 
Q 47.125 51.421875 43.28125 58.90625 
Q 39.453125 66.40625 31.78125 66.40625 
z
M 31.78125 74.21875 
Q 44.046875 74.21875 50.515625 64.515625 
Q 56.984375 54.828125 56.984375 36.375 
Q 56.984375 17.96875 50.515625 8.265625 
Q 44.046875 -1.421875 31.78125 -1.421875 
Q 19.53125 -1.421875 13.0625 8.265625 
Q 6.59375 17.96875 6.59375 36.375 
Q 6.59375 54.828125 13.0625 64.515625 
Q 19.53125 74.21875 31.78125 74.21875 
z
" id="DejaVuSans-48"/>
      </defs>
      <g transform="translate(77.573295 399.078438)scale(0.1 -0.1)">
       <use xlink:href="#DejaVuSans-48"/>
      </g>
     </g>
    </g>
    <g id="xtick_2">
     <g id="line2d_2">
      <g>
       <use style="stroke:#000000;stroke-width:0.8;" x="151.763044" xlink:href="#m4e1f37aab0" y="384.48"/>
      </g>
     </g>
     <g id="text_2">
      <!-- 880 -->
      <defs>
       <path d="M 31.78125 34.625 
Q 24.75 34.625 20.71875 30.859375 
Q 16.703125 27.09375 16.703125 20.515625 
Q 16.703125 13.921875 20.71875 10.15625 
Q 24.75 6.390625 31.78125 6.390625 
Q 38.8125 6.390625 42.859375 10.171875 
Q 46.921875 13.96875 46.921875 20.515625 
Q 46.921875 27.09375 42.890625 30.859375 
Q 38.875 34.625 31.78125 34.625 
z
M 21.921875 38.8125 
Q 15.578125 40.375 12.03125 44.71875 
Q 8.5 49.078125 8.5 55.328125 
Q 8.5 64.0625 14.71875 69.140625 
Q 20.953125 74.21875 31.78125 74.21875 
Q 42.671875 74.21875 48.875 69.140625 
Q 55.078125 64.0625 55.078125 55.328125 
Q 55.078125 49.078125 51.53125 44.71875 
Q 48 40.375 41.703125 38.8125 
Q 48.828125 37.15625 52.796875 32.3125 
Q 56.78125 27.484375 56.78125 20.515625 
Q 56.78125 9.90625 50.3125 4.234375 
Q 43.84375 -1.421875 31.78125 -1.421875 
Q 19.734375 -1.421875 13.25 4.234375 
Q 6.78125 9.90625 6.78125 20.515625 
Q 6.78125 27.484375 10.78125 32.3125 
Q 14.796875 37.15625 21.921875 38.8125 
z
M 18.3125 54.390625 
Q 18.3125 48.734375 21.84375 45.5625 
Q 25.390625 42.390625 31.78125 42.390625 
Q 38.140625 42.390625 41.71875 45.5625 
Q 45.3125 48.734375 45.3125 54.390625 
Q 45.3125 60.0625 41.71875 63.234375 
Q 38.140625 66.40625 31.78125 66.40625 
Q 25.390625 66.40625 21.84375 63.234375 
Q 18.3125 60.0625 18.3125 54.390625 
z
" id="DejaVuSans-56"/>
      </defs>
      <g transform="translate(142.219294 399.078438)scale(0.1 -0.1)">
       <use xlink:href="#DejaVuSans-56"/>
       <use x="63.623047" xlink:href="#DejaVuSans-56"/>
       <use x="127.246094" xlink:href="#DejaVuSans-48"/>
      </g>
     </g>
    </g>
    <g id="xtick_3">
     <g id="line2d_3">
      <g>
       <use style="stroke:#000000;stroke-width:0.8;" x="222.771543" xlink:href="#m4e1f37aab0" y="384.48"/>
      </g>
     </g>
     <g id="text_3">
      <!-- 1760 -->
      <defs>
       <path d="M 12.40625 8.296875 
L 28.515625 8.296875 
L 28.515625 63.921875 
L 10.984375 60.40625 
L 10.984375 69.390625 
L 28.421875 72.90625 
L 38.28125 72.90625 
L 38.28125 8.296875 
L 54.390625 8.296875 
L 54.390625 0 
L 12.40625 0 
z
" id="DejaVuSans-49"/>
       <path d="M 8.203125 72.90625 
L 55.078125 72.90625 
L 55.078125 68.703125 
L 28.609375 0 
L 18.3125 0 
L 43.21875 64.59375 
L 8.203125 64.59375 
z
" id="DejaVuSans-55"/>
       <path d="M 33.015625 40.375 
Q 26.375 40.375 22.484375 35.828125 
Q 18.609375 31.296875 18.609375 23.390625 
Q 18.609375 15.53125 22.484375 10.953125 
Q 26.375 6.390625 33.015625 6.390625 
Q 39.65625 6.390625 43.53125 10.953125 
Q 47.40625 15.53125 47.40625 23.390625 
Q 47.40625 31.296875 43.53125 35.828125 
Q 39.65625 40.375 33.015625 40.375 
z
M 52.59375 71.296875 
L 52.59375 62.3125 
Q 48.875 64.0625 45.09375 64.984375 
Q 41.3125 65.921875 37.59375 65.921875 
Q 27.828125 65.921875 22.671875 59.328125 
Q 17.53125 52.734375 16.796875 39.40625 
Q 19.671875 43.65625 24.015625 45.921875 
Q 28.375 48.1875 33.59375 48.1875 
Q 44.578125 48.1875 50.953125 41.515625 
Q 57.328125 34.859375 57.328125 23.390625 
Q 57.328125 12.15625 50.6875 5.359375 
Q 44.046875 -1.421875 33.015625 -1.421875 
Q 20.359375 -1.421875 13.671875 8.265625 
Q 6.984375 17.96875 6.984375 36.375 
Q 6.984375 53.65625 15.1875 63.9375 
Q 23.390625 74.21875 37.203125 74.21875 
Q 40.921875 74.21875 44.703125 73.484375 
Q 48.484375 72.75 52.59375 71.296875 
z
" id="DejaVuSans-54"/>
      </defs>
      <g transform="translate(210.046543 399.078438)scale(0.1 -0.1)">
       <use xlink:href="#DejaVuSans-49"/>
       <use x="63.623047" xlink:href="#DejaVuSans-55"/>
       <use x="127.246094" xlink:href="#DejaVuSans-54"/>
       <use x="190.869141" xlink:href="#DejaVuSans-48"/>
      </g>
     </g>
    </g>
    <g id="xtick_4">
     <g id="line2d_4">
      <g>
       <use style="stroke:#000000;stroke-width:0.8;" x="293.780042" xlink:href="#m4e1f37aab0" y="384.48"/>
      </g>
     </g>
     <g id="text_4">
      <!-- 2640 -->
      <defs>
       <path d="M 19.1875 8.296875 
L 53.609375 8.296875 
L 53.609375 0 
L 7.328125 0 
L 7.328125 8.296875 
Q 12.9375 14.109375 22.625 23.890625 
Q 32.328125 33.6875 34.8125 36.53125 
Q 39.546875 41.84375 41.421875 45.53125 
Q 43.3125 49.21875 43.3125 52.78125 
Q 43.3125 58.59375 39.234375 62.25 
Q 35.15625 65.921875 28.609375 65.921875 
Q 23.96875 65.921875 18.8125 64.3125 
Q 13.671875 62.703125 7.8125 59.421875 
L 7.8125 69.390625 
Q 13.765625 71.78125 18.9375 73 
Q 24.125 74.21875 28.421875 74.21875 
Q 39.75 74.21875 46.484375 68.546875 
Q 53.21875 62.890625 53.21875 53.421875 
Q 53.21875 48.921875 51.53125 44.890625 
Q 49.859375 40.875 45.40625 35.40625 
Q 44.1875 33.984375 37.640625 27.21875 
Q 31.109375 20.453125 19.1875 8.296875 
z
" id="DejaVuSans-50"/>
       <path d="M 37.796875 64.3125 
L 12.890625 25.390625 
L 37.796875 25.390625 
z
M 35.203125 72.90625 
L 47.609375 72.90625 
L 47.609375 25.390625 
L 58.015625 25.390625 
L 58.015625 17.1875 
L 47.609375 17.1875 
L 47.609375 0 
L 37.796875 0 
L 37.796875 17.1875 
L 4.890625 17.1875 
L 4.890625 26.703125 
z
" id="DejaVuSans-52"/>
      </defs>
      <g transform="translate(281.055042 399.078438)scale(0.1 -0.1)">
       <use xlink:href="#DejaVuSans-50"/>
       <use x="63.623047" xlink:href="#DejaVuSans-54"/>
       <use x="127.246094" xlink:href="#DejaVuSans-52"/>
       <use x="190.869141" xlink:href="#DejaVuSans-48"/>
      </g>
     </g>
    </g>
    <g id="xtick_5">
     <g id="line2d_5">
      <g>
       <use style="stroke:#000000;stroke-width:0.8;" x="364.788541" xlink:href="#m4e1f37aab0" y="384.48"/>
      </g>
     </g>
     <g id="text_5">
      <!-- 3520 -->
      <defs>
       <path d="M 40.578125 39.3125 
Q 47.65625 37.796875 51.625 33 
Q 55.609375 28.21875 55.609375 21.1875 
Q 55.609375 10.40625 48.1875 4.484375 
Q 40.765625 -1.421875 27.09375 -1.421875 
Q 22.515625 -1.421875 17.65625 -0.515625 
Q 12.796875 0.390625 7.625 2.203125 
L 7.625 11.71875 
Q 11.71875 9.328125 16.59375 8.109375 
Q 21.484375 6.890625 26.8125 6.890625 
Q 36.078125 6.890625 40.9375 10.546875 
Q 45.796875 14.203125 45.796875 21.1875 
Q 45.796875 27.640625 41.28125 31.265625 
Q 36.765625 34.90625 28.71875 34.90625 
L 20.21875 34.90625 
L 20.21875 43.015625 
L 29.109375 43.015625 
Q 36.375 43.015625 40.234375 45.921875 
Q 44.09375 48.828125 44.09375 54.296875 
Q 44.09375 59.90625 40.109375 62.90625 
Q 36.140625 65.921875 28.71875 65.921875 
Q 24.65625 65.921875 20.015625 65.03125 
Q 15.375 64.15625 9.8125 62.3125 
L 9.8125 71.09375 
Q 15.4375 72.65625 20.34375 73.4375 
Q 25.25 74.21875 29.59375 74.21875 
Q 40.828125 74.21875 47.359375 69.109375 
Q 53.90625 64.015625 53.90625 55.328125 
Q 53.90625 49.265625 50.4375 45.09375 
Q 46.96875 40.921875 40.578125 39.3125 
z
" id="DejaVuSans-51"/>
       <path d="M 10.796875 72.90625 
L 49.515625 72.90625 
L 49.515625 64.59375 
L 19.828125 64.59375 
L 19.828125 46.734375 
Q 21.96875 47.46875 24.109375 47.828125 
Q 26.265625 48.1875 28.421875 48.1875 
Q 40.625 48.1875 47.75 41.5 
Q 54.890625 34.8125 54.890625 23.390625 
Q 54.890625 11.625 47.5625 5.09375 
Q 40.234375 -1.421875 26.90625 -1.421875 
Q 22.3125 -1.421875 17.546875 -0.640625 
Q 12.796875 0.140625 7.71875 1.703125 
L 7.71875 11.625 
Q 12.109375 9.234375 16.796875 8.0625 
Q 21.484375 6.890625 26.703125 6.890625 
Q 35.15625 6.890625 40.078125 11.328125 
Q 45.015625 15.765625 45.015625 23.390625 
Q 45.015625 31 40.078125 35.4375 
Q 35.15625 39.890625 26.703125 39.890625 
Q 22.75 39.890625 18.8125 39.015625 
Q 14.890625 38.140625 10.796875 36.28125 
z
" id="DejaVuSans-53"/>
      </defs>
      <g transform="translate(352.063541 399.078438)scale(0.1 -0.1)">
       <use xlink:href="#DejaVuSans-51"/>
       <use x="63.623047" xlink:href="#DejaVuSans-53"/>
       <use x="127.246094" xlink:href="#DejaVuSans-50"/>
       <use x="190.869141" xlink:href="#DejaVuSans-48"/>
      </g>
     </g>
    </g>
    <g id="text_6">
     <!-- time [ms] -->
     <defs>
      <path d="M 18.3125 70.21875 
L 18.3125 54.6875 
L 36.8125 54.6875 
L 36.8125 47.703125 
L 18.3125 47.703125 
L 18.3125 18.015625 
Q 18.3125 11.328125 20.140625 9.421875 
Q 21.96875 7.515625 27.59375 7.515625 
L 36.8125 7.515625 
L 36.8125 0 
L 27.59375 0 
Q 17.1875 0 13.234375 3.875 
Q 9.28125 7.765625 9.28125 18.015625 
L 9.28125 47.703125 
L 2.6875 47.703125 
L 2.6875 54.6875 
L 9.28125 54.6875 
L 9.28125 70.21875 
z
" id="DejaVuSans-116"/>
      <path d="M 9.421875 54.6875 
L 18.40625 54.6875 
L 18.40625 0 
L 9.421875 0 
z
M 9.421875 75.984375 
L 18.40625 75.984375 
L 18.40625 64.59375 
L 9.421875 64.59375 
z
" id="DejaVuSans-105"/>
      <path d="M 52 44.1875 
Q 55.375 50.25 60.0625 53.125 
Q 64.75 56 71.09375 56 
Q 79.640625 56 84.28125 50.015625 
Q 88.921875 44.046875 88.921875 33.015625 
L 88.921875 0 
L 79.890625 0 
L 79.890625 32.71875 
Q 79.890625 40.578125 77.09375 44.375 
Q 74.3125 48.1875 68.609375 48.1875 
Q 61.625 48.1875 57.5625 43.546875 
Q 53.515625 38.921875 53.515625 30.90625 
L 53.515625 0 
L 44.484375 0 
L 44.484375 32.71875 
Q 44.484375 40.625 41.703125 44.40625 
Q 38.921875 48.1875 33.109375 48.1875 
Q 26.21875 48.1875 22.15625 43.53125 
Q 18.109375 38.875 18.109375 30.90625 
L 18.109375 0 
L 9.078125 0 
L 9.078125 54.6875 
L 18.109375 54.6875 
L 18.109375 46.1875 
Q 21.1875 51.21875 25.484375 53.609375 
Q 29.78125 56 35.6875 56 
Q 41.65625 56 45.828125 52.96875 
Q 50 49.953125 52 44.1875 
z
" id="DejaVuSans-109"/>
      <path d="M 56.203125 29.59375 
L 56.203125 25.203125 
L 14.890625 25.203125 
Q 15.484375 15.921875 20.484375 11.0625 
Q 25.484375 6.203125 34.421875 6.203125 
Q 39.59375 6.203125 44.453125 7.46875 
Q 49.3125 8.734375 54.109375 11.28125 
L 54.109375 2.78125 
Q 49.265625 0.734375 44.1875 -0.34375 
Q 39.109375 -1.421875 33.890625 -1.421875 
Q 20.796875 -1.421875 13.15625 6.1875 
Q 5.515625 13.8125 5.515625 26.8125 
Q 5.515625 40.234375 12.765625 48.109375 
Q 20.015625 56 32.328125 56 
Q 43.359375 56 49.78125 48.890625 
Q 56.203125 41.796875 56.203125 29.59375 
z
M 47.21875 32.234375 
Q 47.125 39.59375 43.09375 43.984375 
Q 39.0625 48.390625 32.421875 48.390625 
Q 24.90625 48.390625 20.390625 44.140625 
Q 15.875 39.890625 15.1875 32.171875 
z
" id="DejaVuSans-101"/>
      <path id="DejaVuSans-32"/>
      <path d="M 8.59375 75.984375 
L 29.296875 75.984375 
L 29.296875 69 
L 17.578125 69 
L 17.578125 -6.203125 
L 29.296875 -6.203125 
L 29.296875 -13.1875 
L 8.59375 -13.1875 
z
" id="DejaVuSans-91"/>
      <path d="M 44.28125 53.078125 
L 44.28125 44.578125 
Q 40.484375 46.53125 36.375 47.5 
Q 32.28125 48.484375 27.875 48.484375 
Q 21.1875 48.484375 17.84375 46.4375 
Q 14.5 44.390625 14.5 40.28125 
Q 14.5 37.15625 16.890625 35.375 
Q 19.28125 33.59375 26.515625 31.984375 
L 29.59375 31.296875 
Q 39.15625 29.25 43.1875 25.515625 
Q 47.21875 21.78125 47.21875 15.09375 
Q 47.21875 7.46875 41.1875 3.015625 
Q 35.15625 -1.421875 24.609375 -1.421875 
Q 20.21875 -1.421875 15.453125 -0.5625 
Q 10.6875 0.296875 5.421875 2 
L 5.421875 11.28125 
Q 10.40625 8.6875 15.234375 7.390625 
Q 20.0625 6.109375 24.8125 6.109375 
Q 31.15625 6.109375 34.5625 8.28125 
Q 37.984375 10.453125 37.984375 14.40625 
Q 37.984375 18.0625 35.515625 20.015625 
Q 33.0625 21.96875 24.703125 23.78125 
L 21.578125 24.515625 
Q 13.234375 26.265625 9.515625 29.90625 
Q 5.8125 33.546875 5.8125 39.890625 
Q 5.8125 47.609375 11.28125 51.796875 
Q 16.75 56 26.8125 56 
Q 31.78125 56 36.171875 55.265625 
Q 40.578125 54.546875 44.28125 53.078125 
z
" id="DejaVuSans-115"/>
      <path d="M 30.421875 75.984375 
L 30.421875 -13.1875 
L 9.71875 -13.1875 
L 9.71875 -6.203125 
L 21.390625 -6.203125 
L 21.390625 69 
L 9.71875 69 
L 9.71875 75.984375 
z
" id="DejaVuSans-93"/>
     </defs>
     <g transform="translate(234.038281 412.756563)scale(0.1 -0.1)">
      <use xlink:href="#DejaVuSans-116"/>
      <use x="39.208984" xlink:href="#DejaVuSans-105"/>
      <use x="66.992188" xlink:href="#DejaVuSans-109"/>
      <use x="164.404297" xlink:href="#DejaVuSans-101"/>
      <use x="225.927734" xlink:href="#DejaVuSans-32"/>
      <use x="257.714844" xlink:href="#DejaVuSans-91"/>
      <use x="296.728516" xlink:href="#DejaVuSans-109"/>
      <use x="394.140625" xlink:href="#DejaVuSans-115"/>
      <use x="446.240234" xlink:href="#DejaVuSans-93"/>
     </g>
    </g>
   </g>
   <g id="matplotlib.axis_2">
    <g id="ytick_1">
     <g id="line2d_6">
      <defs>
       <path d="M 0 0 
L -3.5 0 
" id="m4bd69275fa" style="stroke:#000000;stroke-width:0.8;"/>
      </defs>
      <g>
       <use style="stroke:#000000;stroke-width:0.8;" x="63" xlink:href="#m4bd69275fa" y="322.951941"/>
      </g>
     </g>
     <g id="text_7">
      <!-- −150 -->
      <defs>
       <path d="M 10.59375 35.5 
L 73.1875 35.5 
L 73.1875 27.203125 
L 10.59375 27.203125 
z
" id="DejaVuSans-8722"/>
      </defs>
      <g transform="translate(28.532812 326.75116)scale(0.1 -0.1)">
       <use xlink:href="#DejaVuSans-8722"/>
       <use x="83.789062" xlink:href="#DejaVuSans-49"/>
       <use x="147.412109" xlink:href="#DejaVuSans-53"/>
       <use x="211.035156" xlink:href="#DejaVuSans-48"/>
      </g>
     </g>
    </g>
    <g id="ytick_2">
     <g id="line2d_7">
      <g>
       <use style="stroke:#000000;stroke-width:0.8;" x="63" xlink:href="#m4bd69275fa" y="260.642517"/>
      </g>
     </g>
     <g id="text_8">
      <!-- −100 -->
      <g transform="translate(28.532812 264.441735)scale(0.1 -0.1)">
       <use xlink:href="#DejaVuSans-8722"/>
       <use x="83.789062" xlink:href="#DejaVuSans-49"/>
       <use x="147.412109" xlink:href="#DejaVuSans-48"/>
       <use x="211.035156" xlink:href="#DejaVuSans-48"/>
      </g>
     </g>
    </g>
    <g id="ytick_3">
     <g id="line2d_8">
      <g>
       <use style="stroke:#000000;stroke-width:0.8;" x="63" xlink:href="#m4bd69275fa" y="198.333093"/>
      </g>
     </g>
     <g id="text_9">
      <!-- −50 -->
      <g transform="translate(34.895313 202.132311)scale(0.1 -0.1)">
       <use xlink:href="#DejaVuSans-8722"/>
       <use x="83.789062" xlink:href="#DejaVuSans-53"/>
       <use x="147.412109" xlink:href="#DejaVuSans-48"/>
      </g>
     </g>
    </g>
    <g id="ytick_4">
     <g id="line2d_9">
      <g>
       <use style="stroke:#000000;stroke-width:0.8;" x="63" xlink:href="#m4bd69275fa" y="136.023668"/>
      </g>
     </g>
     <g id="text_10">
      <!-- 0 -->
      <g transform="translate(49.6375 139.822887)scale(0.1 -0.1)">
       <use xlink:href="#DejaVuSans-48"/>
      </g>
     </g>
    </g>
    <g id="ytick_5">
     <g id="line2d_10">
      <g>
       <use style="stroke:#000000;stroke-width:0.8;" x="63" xlink:href="#m4bd69275fa" y="73.714244"/>
      </g>
     </g>
     <g id="text_11">
      <!-- 50 -->
      <g transform="translate(43.275 77.513463)scale(0.1 -0.1)">
       <use xlink:href="#DejaVuSans-53"/>
       <use x="63.623047" xlink:href="#DejaVuSans-48"/>
      </g>
     </g>
    </g>
    <g id="text_12">
     <!-- voltage [mV] -->
     <defs>
      <path d="M 2.984375 54.6875 
L 12.5 54.6875 
L 29.59375 8.796875 
L 46.6875 54.6875 
L 56.203125 54.6875 
L 35.6875 0 
L 23.484375 0 
z
" id="DejaVuSans-118"/>
      <path d="M 30.609375 48.390625 
Q 23.390625 48.390625 19.1875 42.75 
Q 14.984375 37.109375 14.984375 27.296875 
Q 14.984375 17.484375 19.15625 11.84375 
Q 23.34375 6.203125 30.609375 6.203125 
Q 37.796875 6.203125 41.984375 11.859375 
Q 46.1875 17.53125 46.1875 27.296875 
Q 46.1875 37.015625 41.984375 42.703125 
Q 37.796875 48.390625 30.609375 48.390625 
z
M 30.609375 56 
Q 42.328125 56 49.015625 48.375 
Q 55.71875 40.765625 55.71875 27.296875 
Q 55.71875 13.875 49.015625 6.21875 
Q 42.328125 -1.421875 30.609375 -1.421875 
Q 18.84375 -1.421875 12.171875 6.21875 
Q 5.515625 13.875 5.515625 27.296875 
Q 5.515625 40.765625 12.171875 48.375 
Q 18.84375 56 30.609375 56 
z
" id="DejaVuSans-111"/>
      <path d="M 9.421875 75.984375 
L 18.40625 75.984375 
L 18.40625 0 
L 9.421875 0 
z
" id="DejaVuSans-108"/>
      <path d="M 34.28125 27.484375 
Q 23.390625 27.484375 19.1875 25 
Q 14.984375 22.515625 14.984375 16.5 
Q 14.984375 11.71875 18.140625 8.90625 
Q 21.296875 6.109375 26.703125 6.109375 
Q 34.1875 6.109375 38.703125 11.40625 
Q 43.21875 16.703125 43.21875 25.484375 
L 43.21875 27.484375 
z
M 52.203125 31.203125 
L 52.203125 0 
L 43.21875 0 
L 43.21875 8.296875 
Q 40.140625 3.328125 35.546875 0.953125 
Q 30.953125 -1.421875 24.3125 -1.421875 
Q 15.921875 -1.421875 10.953125 3.296875 
Q 6 8.015625 6 15.921875 
Q 6 25.140625 12.171875 29.828125 
Q 18.359375 34.515625 30.609375 34.515625 
L 43.21875 34.515625 
L 43.21875 35.40625 
Q 43.21875 41.609375 39.140625 45 
Q 35.0625 48.390625 27.6875 48.390625 
Q 23 48.390625 18.546875 47.265625 
Q 14.109375 46.140625 10.015625 43.890625 
L 10.015625 52.203125 
Q 14.9375 54.109375 19.578125 55.046875 
Q 24.21875 56 28.609375 56 
Q 40.484375 56 46.34375 49.84375 
Q 52.203125 43.703125 52.203125 31.203125 
z
" id="DejaVuSans-97"/>
      <path d="M 45.40625 27.984375 
Q 45.40625 37.75 41.375 43.109375 
Q 37.359375 48.484375 30.078125 48.484375 
Q 22.859375 48.484375 18.828125 43.109375 
Q 14.796875 37.75 14.796875 27.984375 
Q 14.796875 18.265625 18.828125 12.890625 
Q 22.859375 7.515625 30.078125 7.515625 
Q 37.359375 7.515625 41.375 12.890625 
Q 45.40625 18.265625 45.40625 27.984375 
z
M 54.390625 6.78125 
Q 54.390625 -7.171875 48.1875 -13.984375 
Q 42 -20.796875 29.203125 -20.796875 
Q 24.46875 -20.796875 20.265625 -20.09375 
Q 16.0625 -19.390625 12.109375 -17.921875 
L 12.109375 -9.1875 
Q 16.0625 -11.328125 19.921875 -12.34375 
Q 23.78125 -13.375 27.78125 -13.375 
Q 36.625 -13.375 41.015625 -8.765625 
Q 45.40625 -4.15625 45.40625 5.171875 
L 45.40625 9.625 
Q 42.625 4.78125 38.28125 2.390625 
Q 33.9375 0 27.875 0 
Q 17.828125 0 11.671875 7.65625 
Q 5.515625 15.328125 5.515625 27.984375 
Q 5.515625 40.671875 11.671875 48.328125 
Q 17.828125 56 27.875 56 
Q 33.9375 56 38.28125 53.609375 
Q 42.625 51.21875 45.40625 46.390625 
L 45.40625 54.6875 
L 54.390625 54.6875 
z
" id="DejaVuSans-103"/>
      <path d="M 28.609375 0 
L 0.78125 72.90625 
L 11.078125 72.90625 
L 34.1875 11.53125 
L 57.328125 72.90625 
L 67.578125 72.90625 
L 39.796875 0 
z
" id="DejaVuSans-86"/>
     </defs>
     <g transform="translate(22.453125 250.624062)rotate(-90)scale(0.1 -0.1)">
      <use xlink:href="#DejaVuSans-118"/>
      <use x="59.179688" xlink:href="#DejaVuSans-111"/>
      <use x="120.361328" xlink:href="#DejaVuSans-108"/>
      <use x="148.144531" xlink:href="#DejaVuSans-116"/>
      <use x="187.353516" xlink:href="#DejaVuSans-97"/>
      <use x="248.632812" xlink:href="#DejaVuSans-103"/>
      <use x="312.109375" xlink:href="#DejaVuSans-101"/>
      <use x="373.632812" xlink:href="#DejaVuSans-32"/>
      <use x="405.419922" xlink:href="#DejaVuSans-91"/>
      <use x="444.433594" xlink:href="#DejaVuSans-109"/>
      <use x="541.845703" xlink:href="#DejaVuSans-86"/>
      <use x="610.253906" xlink:href="#DejaVuSans-93"/>
     </g>
    </g>
   </g>
   <g id="line2d_11">
    <path clip-path="url(#pc8cba8a452)" d="M 80.754545 208.920827 
L 83.385088 208.859978 
L 83.417364 208.799129 
L 83.465779 208.920827 
L 83.498056 208.859978 
L 83.514194 208.920827 
L 83.594885 208.859978 
L 83.723992 208.799129 
L 84.547045 208.859978 
L 84.676151 208.920827 
L 84.96664 208.859978 
L 85.095747 208.799129 
L 85.176438 208.859978 
L 85.208715 208.799129 
L 85.337821 208.859978 
L 85.35396 208.920827 
L 85.402374 208.799129 
L 85.434651 208.799129 
L 86.322257 208.859978 
L 86.451364 208.920827 
L 87.419661 208.981676 
L 87.532629 209.042525 
L 87.581044 208.981676 
L 87.645598 209.042525 
L 88.694587 209.103374 
L 88.807555 209.164223 
L 88.85597 209.103374 
L 89.049629 202.166583 
L 89.501501 195.655734 
L 90.356831 187.197717 
L 91.196022 181.660454 
L 91.470373 180.200077 
L 91.777001 178.67885 
L 92.551639 176.184039 
L 92.583916 176.12319 
L 92.793714 175.758096 
L 92.82599 175.697247 
L 93.11648 175.027908 
L 93.310139 174.967058 
L 93.503799 174.662813 
L 93.552214 174.601964 
L 93.745873 174.297719 
L 93.858841 174.23687 
L 94.020224 174.054323 
L 94.213884 173.993474 
L 94.391405 173.750078 
L 95.843851 173.689229 
L 95.989096 173.445832 
L 96.005234 173.506681 
L 96.118202 173.445832 
L 96.247309 173.384983 
L 96.553936 173.324134 
L 96.683043 173.263285 
L 96.892841 173.628379 
L 96.957394 173.689229 
L 97.167192 174.054323 
L 97.393128 173.993474 
L 97.425404 173.932625 
L 97.506096 173.993474 
L 97.845 173.932625 
L 97.990245 173.810927 
L 98.006383 173.871776 
L 98.03866 173.750078 
L 98.103213 173.810927 
L 98.264596 173.871776 
L 98.296872 173.932625 
L 98.361426 173.810927 
L 98.50667 173.871776 
L 98.538947 173.932625 
L 98.571223 173.810927 
L 98.619638 173.871776 
L 99.119925 173.810927 
L 99.26517 173.689229 
L 99.959117 173.628379 
L 100.055947 173.56753 
L 100.072085 173.628379 
L 100.1205 173.689229 
L 100.362574 174.723662 
L 100.604649 175.210455 
L 100.653063 175.271304 
L 100.733755 175.332153 
L 100.766031 175.271304 
L 100.943553 175.210455 
L 101.056521 175.027908 
L 101.088797 175.088757 
L 101.217904 175.027908 
L 101.395425 174.784511 
L 101.427702 174.84536 
L 101.508393 174.784511 
L 101.556808 174.723662 
L 101.702053 174.601964 
L 101.831159 174.541115 
L 101.960265 174.480266 
L 102.040957 174.541115 
L 102.073233 174.480266 
L 102.153925 174.419417 
L 102.331446 174.176021 
L 102.347584 174.23687 
L 102.379861 174.115172 
L 102.428276 174.176021 
L 102.589659 173.993474 
L 102.718765 174.054323 
L 102.993116 173.993474 
L 103.057669 173.810927 
L 103.122223 173.932625 
L 103.235191 173.993474 
L 103.251329 174.054323 
L 103.33202 173.932625 
L 103.348159 173.993474 
L 103.461127 173.871776 
L 103.477265 173.932625 
L 103.687063 173.871776 
L 103.816169 173.810927 
L 104.09052 173.750078 
L 104.18735 173.689229 
L 104.203488 173.750078 
L 104.38101 173.689229 
L 104.526254 173.445832 
L 104.542393 173.506681 
L 104.639222 173.445832 
L 104.687637 173.384983 
L 104.75219 173.445832 
L 104.897435 173.384983 
L 105.026541 173.324134 
L 105.236339 173.384983 
L 105.317031 173.445832 
L 105.349307 173.384983 
L 106.107807 173.324134 
L 106.123945 173.263285 
L 106.17236 173.384983 
L 106.220775 173.324134 
L 106.882445 173.384983 
L 107.011552 173.445832 
L 107.705498 173.384983 
L 107.737775 173.324134 
L 107.78619 173.445832 
L 107.802328 173.445832 
L 108.383307 173.384983 
L 108.528551 173.263285 
L 108.576966 173.202436 
L 108.706073 173.141587 
L 109.254775 173.080738 
L 109.335466 173.019889 
L 109.367743 173.080738 
L 109.690509 173.019889 
L 109.819615 172.898191 
L 109.916445 172.95904 
L 109.932583 172.898191 
L 110.416732 172.95904 
L 110.561977 173.080738 
L 110.691083 173.019889 
L 111.368891 173.080738 
L 111.530274 173.263285 
L 112.256498 173.324134 
L 112.321051 173.263285 
L 112.385604 173.384983 
L 112.821338 173.445832 
L 112.837476 173.506681 
L 112.869753 173.384983 
L 112.934306 173.445832 
L 113.17638 173.506681 
L 113.337763 173.689229 
L 113.434593 173.750078 
L 113.579838 173.871776 
L 113.789636 173.810927 
L 113.870327 173.750078 
L 113.902604 173.810927 
L 114.160817 173.871776 
L 114.257646 173.932625 
L 114.273785 173.871776 
L 114.386753 173.750078 
L 114.402891 173.810927 
L 114.483582 173.750078 
L 114.580412 173.628379 
L 114.612689 173.689229 
L 114.806348 173.628379 
L 114.935455 173.56753 
L 115.35505 173.506681 
L 115.484157 173.445832 
L 115.532572 173.506681 
L 115.580986 173.445832 
L 115.710093 173.384983 
L 115.839199 173.324134 
L 115.984444 173.202436 
L 116.21038 173.141587 
L 116.339486 173.080738 
L 116.484731 173.019889 
L 116.629976 172.898191 
L 116.710667 172.837342 
L 116.742944 172.776493 
L 116.823635 172.837342 
L 117.017295 172.898191 
L 117.033433 172.95904 
L 117.130263 172.898191 
L 117.259369 172.95904 
L 117.501444 173.445832 
L 117.549858 173.506681 
L 117.743518 173.810927 
L 117.921039 173.871776 
L 118.050146 173.932625 
L 118.647263 173.871776 
L 118.776369 173.810927 
L 119.05072 173.750078 
L 119.131411 173.689229 
L 119.163688 173.750078 
L 119.518731 173.689229 
L 119.663975 173.56753 
L 119.80922 173.506681 
L 119.938326 173.445832 
L 120.002879 173.506681 
L 120.051294 173.445832 
L 120.228815 173.202436 
L 120.438613 173.141587 
L 120.56772 173.080738 
L 120.664549 173.019889 
L 120.696826 172.95904 
L 120.745241 173.080738 
L 120.761379 173.080738 
L 120.858209 173.141587 
L 120.874347 173.080738 
L 121.116422 173.141587 
L 121.261666 173.263285 
L 121.471464 173.202436 
L 121.616709 173.080738 
L 121.778092 173.019889 
L 121.939475 172.837342 
L 122.116996 172.776493 
L 122.246102 172.715644 
L 122.407485 172.898191 
L 122.423624 172.837342 
L 122.520453 172.898191 
L 122.697975 172.837342 
L 122.810943 172.715644 
L 122.827081 172.776493 
L 123.133709 172.837342 
L 123.278953 172.95904 
L 123.553304 173.019889 
L 123.682411 173.141587 
L 123.843794 172.95904 
L 123.924485 173.019889 
L 123.940623 173.080738 
L 124.005177 172.95904 
L 124.021315 172.95904 
L 124.360219 172.898191 
L 124.489325 172.837342 
L 124.682985 172.898191 
L 124.844368 173.080738 
L 125.280102 173.141587 
L 125.360793 173.263285 
L 125.39307 173.202436 
L 125.522176 173.141587 
L 125.764251 173.080738 
L 125.780389 173.019889 
L 125.877219 173.080738 
L 126.038602 173.019889 
L 126.167708 172.95904 
L 126.329091 172.898191 
L 126.458197 172.837342 
L 126.587304 172.898191 
L 126.651857 172.95904 
L 126.700272 172.898191 
L 127.136006 172.837342 
L 127.152144 172.776493 
L 127.232836 172.837342 
L 127.248974 172.898191 
L 127.297389 172.776493 
L 127.329665 172.776493 
L 127.394219 172.837342 
L 127.442633 172.95904 
L 127.507187 172.898191 
L 127.636293 172.837342 
L 127.765399 172.898191 
L 127.975197 172.837342 
L 128.120442 172.715644 
L 128.217272 172.654795 
L 128.346378 172.593946 
L 128.410931 172.533097 
L 128.540038 172.472248 
L 129.08874 172.411399 
L 129.137154 172.350549 
L 129.201708 172.411399 
L 129.605165 172.472248 
L 129.734271 172.533097 
L 129.831101 172.472248 
L 130.024761 172.168002 
L 130.137729 172.107153 
L 130.282973 171.985455 
L 130.525048 171.924606 
L 130.541186 171.863757 
L 130.589601 171.985455 
L 130.621878 171.924606 
L 130.670292 171.985455 
L 130.734846 171.924606 
L 131.07375 171.863757 
L 131.218995 171.742059 
L 132.477782 171.802908 
L 132.606888 171.863757 
L 132.768271 171.802908 
L 132.816686 171.742059 
L 132.881239 171.802908 
L 133.268558 171.863757 
L 133.397664 171.924606 
L 133.413803 171.924606 
L 133.559047 172.228851 
L 133.591324 172.168002 
L 133.639739 172.350549 
L 133.655877 172.2897 
L 133.768845 172.350549 
L 133.962505 172.654795 
L 133.994781 172.715644 
L 134.156164 172.95904 
L 134.285271 172.898191 
L 134.430515 172.95904 
L 134.559622 173.080738 
L 134.688728 173.019889 
L 134.979217 172.95904 
L 135.108324 172.898191 
L 135.33426 172.837342 
L 135.414951 172.715644 
L 135.463366 172.776493 
L 135.818409 172.715644 
L 135.834547 172.654795 
L 135.866824 172.776493 
L 135.931377 172.715644 
L 136.044345 172.654795 
L 136.060483 172.593946 
L 136.157313 172.654795 
L 136.883536 172.593946 
L 137.061057 172.350549 
L 137.174025 172.2897 
L 137.206302 172.228851 
L 137.238579 172.350549 
L 137.270855 172.350549 
L 137.367685 172.2897 
L 137.432238 172.168002 
L 137.480653 172.2897 
L 137.690451 172.228851 
L 137.835696 172.107153 
L 137.98094 172.228851 
L 138.110047 172.168002 
L 138.206876 171.985455 
L 138.255291 172.046304 
L 138.707163 171.985455 
L 138.83627 171.924606 
L 138.900823 171.985455 
L 138.949238 171.924606 
L 139.126759 171.985455 
L 139.255866 172.046304 
L 139.30428 171.985455 
L 139.368834 172.046304 
L 139.772291 171.985455 
L 139.901397 171.863757 
L 139.998227 171.924606 
L 140.014365 171.863757 
L 140.756727 171.802908 
L 140.91811 171.620361 
L 141.047216 171.559512 
L 141.127908 171.498663 
L 141.160184 171.559512 
L 141.434535 172.168002 
L 141.902546 172.107153 
L 142.031652 172.046304 
L 142.14462 171.985455 
L 142.273727 171.924606 
L 142.386695 171.985455 
L 142.515801 171.924606 
L 142.80629 171.863757 
L 142.951535 171.742059 
L 144.339429 171.802908 
L 144.468535 172.046304 
L 144.484673 171.985455 
L 144.581503 171.924606 
L 144.597641 171.985455 
L 144.678333 172.046304 
L 144.823577 172.168002 
L 145.340003 172.107153 
L 145.485247 171.985455 
L 145.64663 171.924606 
L 145.775737 171.863757 
L 146.308301 171.802908 
L 146.388992 171.68121 
L 146.437407 171.742059 
L 147.244322 171.802908 
L 147.26046 171.863757 
L 147.35729 171.802908 
L 147.550949 171.742059 
L 147.680056 171.68121 
L 147.809162 171.742059 
L 147.938268 171.68121 
L 147.970545 171.620361 
L 148.051236 171.68121 
L 148.180343 171.742059 
L 148.325587 171.863757 
L 148.374002 171.802908 
L 148.503109 171.742059 
L 148.632215 171.802908 
L 148.858151 171.742059 
L 148.890428 171.620361 
L 148.987258 171.68121 
L 149.100226 171.742059 
L 149.116364 171.802908 
L 149.164779 171.68121 
L 149.213194 171.742059 
L 149.358438 171.620361 
L 149.697343 171.68121 
L 149.826449 171.742059 
L 149.971694 171.742059 
L 150.00397 171.620361 
L 150.084662 171.68121 
L 150.407427 171.742059 
L 150.601087 172.107153 
L 150.76247 171.924606 
L 151.085236 171.985455 
L 151.149789 172.046304 
L 151.198204 171.985455 
L 151.32731 171.924606 
L 151.343449 171.985455 
L 151.375725 171.863757 
L 151.440278 171.924606 
L 151.811459 171.863757 
L 151.843736 171.802908 
L 151.924427 171.863757 
L 152.424714 171.802908 
L 152.586097 171.620361 
L 152.908863 171.559512 
L 152.94114 171.498663 
L 153.005693 171.620361 
L 153.054108 171.559512 
L 153.070246 171.498663 
L 153.150938 171.620361 
L 153.328459 171.559512 
L 153.360736 171.498663 
L 153.40915 171.559512 
L 153.60281 178.496303 
L 154.054682 184.946302 
L 154.425863 188.90149 
L 154.861597 192.674131 
L 154.990703 193.586867 
L 155.265054 195.473187 
L 155.765342 198.454791 
L 155.991278 199.732621 
L 156.314044 201.375545 
L 156.927299 204.113752 
L 157.137097 204.90479 
L 158.460437 209.468468 
L 158.492713 209.529317 
L 158.815479 210.320355 
L 158.847756 210.381204 
L 159.154383 211.111392 
L 159.18666 211.172241 
L 159.428735 211.659034 
L 159.461011 211.719883 
L 159.735362 212.328373 
L 159.816054 212.389222 
L 160.025851 212.754317 
L 160.058128 212.815166 
L 160.284064 213.241109 
L 160.348617 213.301958 
L 160.542277 213.606203 
L 160.60683 213.667052 
L 160.80049 214.032147 
L 160.816628 213.971298 
L 160.865043 214.092996 
L 160.897319 214.092996 
L 160.978011 214.153845 
L 161.139394 214.336392 
L 161.300777 214.397241 
L 161.478298 214.640637 
L 161.526713 214.579788 
L 161.591266 214.640637 
L 161.752649 214.823184 
L 161.897894 214.884033 
L 162.043138 215.005731 
L 162.091553 215.06658 
L 162.236798 215.188279 
L 162.285213 215.249128 
L 162.317489 215.309977 
L 162.398181 215.249128 
L 162.462734 215.309977 
L 162.607979 215.431675 
L 162.995298 215.492524 
L 163.124404 215.553373 
L 163.318064 215.614222 
L 163.431032 215.73592 
L 163.44717 215.675071 
L 163.527861 215.73592 
L 163.656968 215.796769 
L 163.931319 215.857618 
L 164.060425 215.918467 
L 164.544574 215.857618 
L 164.625266 215.796769 
L 164.657542 215.857618 
L 165.997021 215.796769 
L 166.126127 215.675071 
L 166.206818 215.73592 
L 166.239095 215.675071 
L 166.432755 215.614222 
L 166.577999 215.492524 
L 166.900765 215.431675 
L 167.029872 215.370826 
L 167.304223 215.309977 
L 167.465606 215.12743 
L 167.659265 215.06658 
L 167.788371 215.005731 
L 168.014308 214.944882 
L 168.175691 214.762335 
L 168.191829 214.823184 
L 168.288659 214.762335 
L 168.450042 214.701486 
L 168.56301 214.640637 
L 168.579148 214.701486 
L 168.627563 214.579788 
L 168.659839 214.579788 
L 168.837361 214.518939 
L 168.853499 214.45809 
L 168.885775 214.579788 
L 168.950329 214.518939 
L 169.12785 214.45809 
L 169.273095 214.336392 
L 169.418339 214.275543 
L 169.499031 214.214694 
L 169.611999 209.468468 
L 169.708829 209.529317 
L 169.724967 209.590166 
L 169.821797 209.529317 
L 170.951477 209.590166 
L 170.967616 209.651015 
L 171.064445 209.590166 
L 171.790669 209.651015 
L 171.822945 209.711864 
L 171.903637 209.651015 
L 172.048881 209.529317 
L 172.177988 209.590166 
L 172.387786 209.529317 
L 172.516892 209.468468 
L 173.162424 209.407619 
L 173.307668 209.285921 
L 174.518041 209.34677 
L 174.647147 209.407619 
L 175.115157 209.468468 
L 175.147434 209.529317 
L 175.228126 209.468468 
L 175.389508 209.529317 
L 175.405647 209.590166 
L 175.502477 209.529317 
L 175.615445 209.590166 
L 175.712274 209.651015 
L 175.728413 209.590166 
L 175.954349 209.651015 
L 176.083455 209.711864 
L 176.099593 209.651015 
L 176.180285 209.772713 
L 176.196423 209.711864 
L 176.664434 209.651015 
L 176.79354 209.590166 
L 176.938785 209.529317 
L 177.019476 209.590166 
L 177.067891 209.468468 
L 177.213136 209.529317 
L 177.293827 209.590166 
L 177.326104 209.529317 
L 177.616593 209.529317 
L 177.810253 200.462809 
L 178.391231 189.814226 
L 179.149731 180.017529 
L 179.82754 173.56753 
L 180.39238 170.099135 
L 180.924944 168.51706 
L 180.95722 168.45621 
L 181.15088 168.151965 
L 181.312263 168.091116 
L 181.522061 167.726022 
L 181.538199 167.726022 
L 181.683444 167.421777 
L 181.764135 167.360928 
L 181.90938 167.23923 
L 182.328975 167.17838 
L 182.522635 166.874135 
L 182.66788 166.813286 
L 182.861539 166.509041 
L 182.926092 166.56989 
L 182.974507 166.630739 
L 183.03906 166.56989 
L 183.103614 166.509041 
L 183.264997 166.326494 
L 183.313411 166.265645 
L 183.539348 165.839701 
L 183.620039 165.778852 
L 183.829837 165.413758 
L 183.89439 165.352909 
L 184.184879 164.68357 
L 184.233294 164.744419 
L 184.297847 164.68357 
L 184.539922 164.196777 
L 184.814273 164.135928 
L 184.927241 163.770834 
L 184.991794 163.892532 
L 185.072486 163.831683 
L 185.250007 163.40574 
L 185.282283 163.466589 
L 185.346837 163.40574 
L 185.669602 162.614702 
L 185.718017 162.553853 
L 186.411964 159.511401 
L 186.428102 159.146306 
L 186.444241 155.373665 
L 186.492656 72.67981 
L 186.573347 115.943483 
L 186.73473 165.109513 
L 186.944528 166.691588 
L 188.05807 174.358568 
L 188.074208 174.358568 
L 188.25173 174.906209 
L 188.477666 175.332153 
L 188.526081 175.393002 
L 188.752017 175.818945 
L 188.800432 175.879794 
L 188.961815 176.062341 
L 189.026368 176.001492 
L 189.058644 176.062341 
L 189.187751 176.12319 
L 189.720315 176.062341 
L 189.865559 175.940643 
L 190.091495 175.879794 
L 190.23674 175.758096 
L 190.285155 175.697247 
L 190.414261 175.575549 
L 190.4304 175.636398 
L 190.494953 175.5147 
L 190.511091 175.5147 
L 190.591783 175.453851 
L 190.720889 175.393002 
L 190.89841 175.332153 
L 191.027516 175.271304 
L 191.140485 175.210455 
L 191.301868 175.027908 
L 191.46325 174.967058 
L 191.640772 174.723662 
L 192.205612 174.662813 
L 192.366995 174.480266 
L 192.463825 174.419417 
L 192.625208 174.176021 
L 192.754314 174.23687 
L 192.835006 174.176021 
L 192.899559 174.115172 
L 192.947974 174.176021 
L 193.238463 174.115172 
L 193.383708 173.993474 
L 193.512814 173.932625 
L 193.658059 173.810927 
L 193.787165 173.871776 
L 193.964686 173.628379 
L 194.013101 173.689229 
L 194.061516 173.56753 
L 194.448835 173.506681 
L 194.59408 173.384983 
L 194.723186 173.324134 
L 194.900707 173.080738 
L 194.981399 173.019889 
L 195.126643 172.898191 
L 195.271888 172.837342 
L 195.35258 172.715644 
L 195.400994 172.776493 
L 195.465548 172.715644 
L 195.610792 172.593946 
L 195.885143 172.533097 
L 196.01425 172.472248 
L 196.094941 172.411399 
L 196.256324 172.168002 
L 196.353154 172.228851 
L 196.369292 172.168002 
L 196.708196 172.107153 
L 196.837303 172.046304 
L 196.950271 172.107153 
L 196.982547 172.046304 
L 197.063239 172.107153 
L 197.14393 172.046304 
L 197.160069 171.985455 
L 197.224622 172.107153 
L 197.24076 172.107153 
L 197.402143 172.168002 
L 197.579664 172.533097 
L 197.595803 172.472248 
L 197.644218 172.533097 
L 197.821739 172.776493 
L 197.854015 172.715644 
L 197.934707 172.776493 
L 197.966983 172.837342 
L 198.112228 172.95904 
L 198.467271 172.898191 
L 198.483409 172.837342 
L 198.580239 172.898191 
L 198.644792 172.837342 
L 198.822313 172.593946 
L 199.032111 172.533097 
L 199.209632 172.2897 
L 199.241909 172.350549 
L 199.306462 172.228851 
L 199.500121 171.924606 
L 199.629228 171.985455 
L 199.790611 171.924606 
L 199.951994 171.742059 
L 200.032685 171.68121 
L 200.161792 171.620361 
L 200.532972 171.559512 
L 200.662079 171.376965 
L 200.678217 171.437814 
L 200.807323 171.376965 
L 200.968706 171.194418 
L 201.065536 171.133569 
L 201.226919 170.951021 
L 201.372164 170.890172 
L 201.50127 170.829323 
L 201.646515 170.768474 
L 201.807898 170.585927 
L 201.856313 170.646776 
L 201.985419 170.707625 
L 202.146802 170.525078 
L 202.275908 170.585927 
L 202.3566 170.525078 
L 202.517983 170.342531 
L 202.582536 170.281682 
L 202.727781 170.099135 
L 202.743919 170.159984 
L 202.776195 170.038286 
L 202.82461 170.038286 
L 203.034408 169.977437 
L 203.179653 169.855739 
L 203.550834 169.916588 
L 203.67994 169.977437 
L 203.77677 170.038286 
L 203.905876 170.099135 
L 204.632099 170.038286 
L 204.777344 169.916588 
L 204.858035 169.855739 
L 204.987142 169.79489 
L 205.116248 169.916588 
L 205.164663 169.855739 
L 205.19694 169.977437 
L 205.229216 169.916588 
L 205.358323 170.099135 
L 205.374461 170.038286 
L 206.052269 170.099135 
L 206.213652 170.281682 
L 206.455727 170.342531 
L 206.61711 170.525078 
L 206.762354 170.585927 
L 206.907599 170.707625 
L 207.343333 170.646776 
L 207.359471 170.585927 
L 207.456301 170.646776 
L 207.472439 170.707625 
L 207.569269 170.646776 
L 207.666099 170.707625 
L 207.682237 170.768474 
L 207.779067 170.707625 
L 208.021141 170.646776 
L 208.182524 170.464229 
L 208.230939 170.40338 
L 208.40846 170.159984 
L 208.60212 170.099135 
L 208.731226 170.038286 
L 208.989439 169.977437 
L 209.118545 169.916588 
L 209.215375 169.855739 
L 209.36062 169.73404 
L 209.538141 169.673191 
L 209.731801 169.368946 
L 210.038428 169.308097 
L 210.183673 169.186399 
L 210.232088 169.247248 
L 210.393471 169.429795 
L 211.055141 169.368946 
L 211.232662 169.12555 
L 211.297215 169.186399 
L 211.329492 169.12555 
L 211.474737 169.003852 
L 211.652258 168.943003 
L 211.749088 168.882154 
L 211.765226 168.943003 
L 211.813641 168.882154 
L 211.958885 168.760456 
L 212.023439 168.699607 
L 212.039577 168.638758 
L 212.087992 168.760456 
L 212.120268 168.760456 
L 212.217098 168.821305 
L 212.362343 168.943003 
L 212.410758 168.882154 
L 212.475311 168.760456 
L 212.523726 168.882154 
L 212.588279 168.821305 
L 212.636694 168.760456 
L 212.685109 168.821305 
L 212.86263 169.064701 
L 213.185396 169.003852 
L 213.217672 168.943003 
L 213.266087 169.064701 
L 213.282226 169.064701 
L 213.556577 169.003852 
L 213.653406 168.943003 
L 213.669545 169.003852 
L 213.814789 168.943003 
L 214.008449 168.638758 
L 214.056864 168.577909 
L 214.073002 168.51706 
L 214.169832 168.577909 
L 214.2828 168.51706 
L 214.411906 168.45621 
L 214.589427 168.395361 
L 214.734672 168.273663 
L 214.84764 168.334512 
L 214.879917 168.395361 
L 214.928332 168.273663 
L 214.94447 168.273663 
L 215.202683 168.212814 
L 215.331789 168.151965 
L 215.460895 168.212814 
L 215.751385 168.273663 
L 215.767523 168.334512 
L 215.864353 168.273663 
L 216.058012 167.969418 
L 216.138704 167.908569 
L 216.300087 167.665173 
L 216.380778 167.726022 
L 216.413055 167.665173 
L 216.542161 167.604324 
L 216.687406 167.482626 
L 216.92948 167.421777 
L 216.977895 167.360928 
L 217.02631 167.421777 
L 217.042448 167.482626 
L 217.139278 167.421777 
L 217.704118 167.482626 
L 217.833225 167.543475 
L 217.849363 167.482626 
L 217.946193 167.543475 
L 218.204406 167.543475 
L 218.34965 167.84772 
L 218.656278 167.786871 
L 218.785384 167.726022 
L 218.962905 167.786871 
L 219.027459 167.726022 
L 219.075874 167.84772 
L 219.20498 167.786871 
L 219.414778 167.84772 
L 219.576161 168.030267 
L 219.915065 168.091116 
L 220.157139 168.577909 
L 220.270107 168.638758 
L 220.350799 168.760456 
L 220.399214 168.699607 
L 220.496044 168.638758 
L 220.62515 168.577909 
L 220.818809 168.638758 
L 220.834948 168.699607 
L 220.931777 168.638758 
L 221.125437 168.577909 
L 221.254543 168.51706 
L 221.319097 168.45621 
L 221.464341 168.334512 
L 221.722554 168.273663 
L 221.867799 168.151965 
L 221.900075 168.151965 
L 222.029182 167.908569 
L 222.077596 167.84772 
L 222.158288 167.665173 
L 222.222841 167.726022 
L 222.739267 167.665173 
L 222.900649 167.482626 
L 223.013618 167.421777 
L 223.158862 167.23923 
L 223.175001 167.300079 
L 223.239554 167.17838 
L 223.255692 167.23923 
L 223.449352 166.934984 
L 223.626873 166.874135 
L 223.852809 166.448192 
L 223.981915 166.387343 
L 224.046468 166.265645 
L 224.094883 166.326494 
L 224.272405 166.56989 
L 224.320819 166.509041 
L 224.385373 166.448192 
L 224.433788 166.509041 
L 224.514479 166.630739 
L 224.562894 166.56989 
L 224.692 166.630739 
L 224.853383 166.813286 
L 225.127734 166.752437 
L 225.256841 166.691588 
L 225.289117 166.752437 
L 225.305255 166.813286 
L 225.35367 166.691588 
L 225.385947 166.691588 
L 225.54733 166.752437 
L 225.692575 166.874135 
L 225.740989 166.813286 
L 225.886234 166.691588 
L 226.063755 166.630739 
L 226.338106 166.022249 
L 226.547904 166.083098 
L 226.580181 166.143947 
L 226.628596 166.022249 
L 226.644734 166.022249 
L 226.725425 165.9614 
L 226.87067 165.839701 
L 226.886808 165.90055 
L 226.9675 165.778852 
L 226.983638 165.839701 
L 227.06433 165.90055 
L 227.096606 165.9614 
L 227.161159 165.839701 
L 227.403234 165.839701 
L 227.53234 165.596305 
L 227.661447 165.535456 
L 227.677585 165.474607 
L 227.758276 165.535456 
L 227.855106 165.657154 
L 227.887383 165.596305 
L 228.048766 165.535456 
L 228.097181 165.474607 
L 228.161734 165.535456 
L 228.419946 165.474607 
L 228.597468 165.231211 
L 228.823404 165.170362 
L 228.871819 165.048664 
L 228.936372 165.170362 
L 229.081617 165.109513 
L 229.259138 164.866117 
L 229.307553 164.805268 
L 229.468936 164.62272 
L 229.630319 164.68357 
L 229.646457 164.744419 
L 229.71101 164.62272 
L 229.727148 164.62272 
L 230.082191 164.561871 
L 230.098329 164.501022 
L 230.162882 164.62272 
L 230.179021 164.62272 
L 230.905244 164.561871 
L 231.195733 163.892532 
L 231.22801 163.831683 
L 231.421669 163.527438 
L 231.453946 163.466589 
L 231.954233 162.006211 
L 231.970371 162.067061 
L 232.034925 161.884513 
L 232.164031 160.545834 
L 232.180169 158.29442 
L 232.244722 72.010471 
L 232.309276 112.414238 
L 232.470659 164.440173 
L 232.535212 164.926966 
L 232.599765 164.805268 
L 232.74501 164.62272 
L 233.051637 166.204796 
L 233.551924 169.247248 
L 233.584201 169.308097 
L 233.826275 170.342531 
L 234.520222 172.533097 
L 234.584775 172.593946 
L 234.794573 172.95904 
L 234.842988 173.019889 
L 235.036647 173.324134 
L 235.101201 173.384983 
L 235.262584 173.56753 
L 235.359413 173.628379 
L 235.520796 173.810927 
L 235.601488 173.871776 
L 235.746732 173.993474 
L 235.908115 174.054323 
L 236.037222 174.115172 
L 236.117913 174.176021 
L 236.263158 174.358568 
L 236.279296 174.297719 
L 236.359988 174.419417 
L 236.521371 174.601964 
L 236.876413 174.541115 
L 237.005519 174.419417 
L 237.070073 174.541115 
L 237.118488 174.480266 
L 237.247594 174.419417 
L 237.392839 174.358568 
L 237.538083 174.23687 
L 237.57036 174.297719 
L 237.634913 174.23687 
L 237.812434 173.993474 
L 237.860849 173.932625 
L 238.006094 173.810927 
L 238.167477 173.750078 
L 238.312721 173.628379 
L 238.474104 173.56753 
L 238.619349 173.445832 
L 238.829147 173.384983 
L 238.974392 173.263285 
L 239.103498 173.202436 
L 239.264881 173.019889 
L 239.329434 172.95904 
L 239.490817 172.776493 
L 239.732891 172.715644 
L 239.861998 172.654795 
L 240.152487 172.593946 
L 240.281593 172.533097 
L 240.378423 172.593946 
L 240.394561 172.533097 
L 240.572083 172.472248 
L 240.701189 172.411399 
L 240.959402 172.350549 
L 241.104646 172.228851 
L 241.459689 172.168002 
L 241.604934 172.046304 
L 241.717902 171.985455 
L 241.879285 171.802908 
L 242.169774 171.802908 
L 242.363433 180.686869 
L 242.799167 188.049604 
L 243.234901 192.978376 
L 243.654497 196.56847 
L 243.783603 197.481206 
L 244.396859 201.314696 
L 244.638933 202.653375 
L 244.961699 204.296299 
L 246.494837 209.651015 
L 246.55939 209.711864 
L 246.946709 210.746298 
L 246.978986 210.807147 
L 247.237199 211.354789 
L 247.269475 211.415638 
L 247.527688 211.963279 
L 247.592241 212.024128 
L 247.834316 212.510921 
L 247.850454 212.510921 
L 247.995699 212.876015 
L 248.011837 212.815166 
L 248.060252 212.936864 
L 248.092528 212.936864 
L 248.302326 213.301958 
L 248.366879 213.362807 
L 248.576677 213.727901 
L 248.657369 213.788751 
L 248.83489 214.032147 
L 248.996273 214.092996 
L 249.173794 214.336392 
L 249.238347 214.397241 
L 249.383592 214.518939 
L 249.544975 214.579788 
L 249.706358 214.762335 
L 249.819326 214.823184 
L 249.980709 215.005731 
L 250.303475 215.06658 
L 250.416443 215.188279 
L 250.432581 215.12743 
L 250.513273 215.188279 
L 250.610102 215.309977 
L 250.642379 215.249128 
L 250.884453 215.309977 
L 251.01356 215.370826 
L 251.255634 215.431675 
L 251.271772 215.492524 
L 251.352464 215.370826 
L 251.497709 215.431675 
L 251.626815 215.492524 
L 252.43373 215.431675 
L 252.562836 215.309977 
L 252.691942 215.431675 
L 252.837187 215.309977 
L 252.934017 215.249128 
L 252.99857 215.188279 
L 253.046985 215.249128 
L 253.611825 215.188279 
L 253.75707 215.06658 
L 254.273495 215.005731 
L 254.41874 214.884033 
L 254.499431 214.944882 
L 254.531708 214.884033 
L 254.773783 214.823184 
L 254.789921 214.762335 
L 254.838336 214.884033 
L 254.886751 214.823184 
L 255.354761 214.762335 
L 255.483867 214.701486 
L 255.709804 214.640637 
L 255.83891 214.579788 
L 256.000293 214.518939 
L 256.129399 214.397241 
L 256.258506 214.45809 
L 256.387612 214.397241 
L 256.50058 214.336392 
L 256.645825 214.214694 
L 256.968591 214.153845 
L 257.097697 214.092996 
L 257.129974 214.032147 
L 257.275218 213.910449 
L 257.517293 213.8496 
L 257.646399 213.788751 
L 258.01758 213.727901 
L 258.146686 213.606203 
L 258.162824 213.667052 
L 258.259654 213.606203 
L 258.372622 210.076959 
L 259.647548 210.137808 
L 259.679824 210.198657 
L 259.760516 210.137808 
L 260.244665 210.076959 
L 260.276941 209.955261 
L 260.357633 210.076959 
L 261.42276 210.137808 
L 261.471175 210.198657 
L 261.51959 210.076959 
L 261.535728 210.137808 
L 262.616994 210.076959 
L 262.649271 210.01611 
L 262.729962 210.076959 
L 263.230249 210.137808 
L 263.359356 210.198657 
L 264.392206 210.259506 
L 264.521313 210.320355 
L 266.377217 210.320355 
L 266.570876 196.690168 
L 267.151855 180.686869 
L 268.265397 161.762815 
L 268.507472 159.754797 
L 268.846376 155.434514 
L 268.910929 71.767075 
L 268.991621 125.07084 
L 269.153004 164.987815 
L 269.18528 165.170362 
L 269.233695 164.926966 
L 269.395078 164.440173 
L 269.653291 164.987815 
L 269.75012 165.048664 
L 269.959918 165.413758 
L 270.072886 165.474607 
L 270.153578 165.596305 
L 270.201993 165.535456 
L 270.282684 165.596305 
L 270.395652 165.718003 
L 270.411791 165.657154 
L 270.573173 165.596305 
L 270.621588 165.535456 
L 270.653865 165.596305 
L 270.782971 165.778852 
L 270.79911 165.839701 
L 270.879801 165.778852 
L 271.025046 165.657154 
L 271.154152 165.718003 
L 271.218705 165.839701 
L 271.26712 165.778852 
L 271.428503 165.535456 
L 271.444641 165.596305 
L 271.525333 165.535456 
L 271.670578 165.413758 
L 271.735131 165.352909 
L 271.944929 164.987815 
L 272.02562 164.926966 
L 272.283833 164.318475 
L 272.299971 164.379324 
L 272.396801 164.318475 
L 272.445216 164.318475 
L 272.59046 164.01423 
L 272.832535 163.527438 
L 272.88095 163.466589 
L 273.139162 162.918947 
L 273.332822 162.979796 
L 273.510343 163.223192 
L 273.558758 163.284041 
L 273.704003 163.40574 
L 273.800833 163.466589 
L 273.865386 163.527438 
L 273.897662 163.40574 
L 273.913801 163.466589 
L 274.059045 163.162343 
L 274.220428 162.979796 
L 274.268843 162.918947 
L 274.543194 162.12791 
L 274.575471 162.188759 
L 274.86596 162.12791 
L 274.946651 162.006211 
L 274.96279 162.067061 
L 275.043481 162.12791 
L 275.075758 162.067061 
L 275.172588 162.006211 
L 275.366247 161.701966 
L 275.495354 161.641117 
L 275.753566 160.971778 
L 275.769705 161.032627 
L 275.834258 160.971778 
L 276.076332 160.484985 
L 276.140885 160.606683 
L 276.173162 160.484985 
L 276.544343 159.450552 
L 276.560481 159.511401 
L 276.608896 159.268004 
L 276.689587 159.207155 
L 277.060768 157.381684 
L 277.286704 155.130269 
L 277.351257 69.880754 
L 277.431949 116.004332 
L 277.593332 162.7364 
L 277.754715 163.649136 
L 278.255002 165.9614 
L 278.480938 166.874135 
L 278.868257 168.030267 
L 278.884396 167.969418 
L 278.916672 168.030267 
L 279.094193 168.273663 
L 279.158747 168.334512 
L 279.336268 168.577909 
L 279.69131 168.51706 
L 279.852693 168.334512 
L 280.014076 168.273663 
L 280.240012 167.84772 
L 280.54664 167.786871 
L 280.675746 167.726022 
L 280.804853 167.665173 
L 280.820991 167.604324 
L 280.885544 167.726022 
L 280.917821 167.665173 
L 281.079204 167.604324 
L 281.20831 167.543475 
L 281.563353 167.482626 
L 281.708597 167.300079 
L 281.837704 167.360928 
L 282.031363 167.300079 
L 282.160469 167.23923 
L 282.225023 167.300079 
L 282.257299 167.17838 
L 282.273438 167.23923 
L 282.418682 167.117531 
L 282.483235 167.056682 
L 282.644618 166.874135 
L 282.693033 166.934984 
L 282.773725 166.995833 
L 282.806001 166.934984 
L 282.951246 166.874135 
L 283.128767 166.630739 
L 283.499948 166.56989 
L 283.645193 166.448192 
L 283.903405 166.387343 
L 284.097065 166.083098 
L 284.161618 166.022249 
L 284.306863 165.778852 
L 284.323001 165.839701 
L 284.371416 165.778852 
L 284.548937 165.535456 
L 284.597352 165.474607 
L 284.758735 165.170362 
L 284.774873 165.231211 
L 284.871703 165.170362 
L 285.033086 164.987815 
L 285.065363 164.926966 
L 285.27516 164.561871 
L 285.307437 164.501022 
L 285.452682 164.379324 
L 285.484958 164.318475 
L 285.662479 164.01423 
L 285.678618 164.075079 
L 285.743171 163.953381 
L 285.759309 163.953381 
L 285.823862 163.892532 
L 286.001384 163.649136 
L 286.082075 163.709985 
L 286.114352 163.649136 
L 286.146628 163.588287 
L 286.308011 163.344891 
L 286.453256 163.466589 
L 286.517809 163.40574 
L 286.550086 163.344891 
L 286.614639 163.466589 
L 286.630777 163.40574 
L 286.969681 163.344891 
L 287.001958 163.284041 
L 287.082649 163.344891 
L 287.486107 163.284041 
L 287.631352 163.162343 
L 287.776596 163.101494 
L 288.083224 162.371306 
L 288.341436 162.310457 
L 288.486681 162.067061 
L 288.502819 162.12791 
L 288.535096 162.188759 
L 288.567373 162.249608 
L 288.631926 162.12791 
L 288.728756 162.067061 
L 288.954692 161.641117 
L 289.003107 161.701966 
L 289.16449 161.945362 
L 289.212904 161.884513 
L 289.261319 162.006211 
L 289.600224 161.945362 
L 289.745468 161.580268 
L 289.793883 161.519419 
L 289.922989 161.45857 
L 289.987543 161.397721 
L 290.342585 160.424136 
L 290.358723 160.484985 
L 290.391 160.363287 
L 290.455553 160.424136 
L 290.568521 160.302438 
L 290.58466 160.363287 
L 290.681489 160.302438 
L 290.859011 160.059042 
L 290.907425 159.998193 
L 291.068808 159.815646 
L 291.133362 159.754797 
L 291.375436 159.268004 
L 291.423851 159.207155 
L 292.053244 156.468948 
L 292.101659 154.339232 
L 292.166212 70.12415 
L 292.230766 107.242069 
L 292.408287 162.310457 
L 292.553532 162.797249 
L 292.634223 162.858098 
L 293.392723 165.29206 
L 293.424999 165.352909 
L 293.812319 166.387343 
L 293.876872 166.448192 
L 294.118946 166.934984 
L 294.248053 166.995833 
L 294.377159 167.117531 
L 294.506265 167.056682 
L 294.667648 167.117531 
L 294.829031 167.300079 
L 294.877446 167.360928 
L 295.006552 167.421777 
L 295.11952 167.482626 
L 295.21635 167.543475 
L 295.232489 167.482626 
L 295.490701 167.421777 
L 295.652084 167.23923 
L 295.700499 167.17838 
L 295.87802 166.934984 
L 295.990988 166.874135 
L 296.152371 166.691588 
L 296.216925 166.630739 
L 296.394446 166.387343 
L 296.555829 166.326494 
L 296.571967 166.265645 
L 296.652659 166.326494 
L 296.862456 166.691588 
L 297.29819 166.630739 
L 297.475712 166.387343 
L 297.669371 166.326494 
L 297.879169 165.9614 
L 297.911446 165.90055 
L 298.072828 165.718003 
L 298.121243 165.657154 
L 298.282626 165.474607 
L 298.34718 165.413758 
L 298.556977 165.048664 
L 298.686084 164.987815 
L 298.976573 164.318475 
L 299.057265 164.257626 
L 299.299339 163.770834 
L 299.912594 163.709985 
L 300.090115 163.466589 
L 300.380605 163.40574 
L 300.509711 163.344891 
L 300.606541 163.284041 
L 300.703371 163.223192 
L 300.719509 163.284041 
L 300.8002 163.223192 
L 300.913168 163.162343 
L 300.945445 163.223192 
L 300.977722 163.101494 
L 301.009998 163.101494 
L 301.042275 163.101494 
L 301.171381 162.858098 
L 301.268211 162.797249 
L 301.413456 162.675551 
L 301.478009 162.7364 
L 301.510285 162.675551 
L 301.639392 162.553853 
L 301.703945 162.675551 
L 301.768498 162.614702 
L 301.816913 162.675551 
L 301.946019 162.7364 
L 302.139679 162.797249 
L 302.284924 162.979796 
L 302.397892 162.918947 
L 302.51086 162.979796 
L 302.672243 162.675551 
L 302.688381 162.7364 
L 302.849764 162.675551 
L 303.043423 162.371306 
L 303.091838 162.310457 
L 303.285498 162.006211 
L 303.333913 161.945362 
L 303.511434 161.701966 
L 303.608264 161.641117 
L 303.769647 161.45857 
L 303.963306 161.397721 
L 304.092413 161.154325 
L 304.156966 161.093476 
L 304.30221 160.85008 
L 304.318349 160.910929 
L 304.479732 160.85008 
L 304.608838 160.606683 
L 304.641115 160.667532 
L 304.721806 160.667532 
L 304.818636 160.424136 
L 304.850912 160.484985 
L 304.899327 160.484985 
L 305.06071 159.937344 
L 305.109125 159.998193 
L 305.141402 159.815646 
L 305.15754 159.876495 
L 305.189817 159.815646 
L 305.399615 159.450552 
L 305.464168 159.389702 
L 305.81921 158.476967 
L 305.835348 158.476967 
L 306.093561 157.259986 
L 306.125838 157.199137 
L 306.335636 155.130269 
L 306.351774 154.400081 
L 306.416327 70.428396 
L 306.497019 116.186879 
L 306.658402 162.006211 
L 306.739093 162.493004 
L 306.787508 162.371306 
L 306.965029 162.12791 
L 307.207104 162.188759 
L 307.836497 164.135928 
L 307.868774 164.196777 
L 308.062433 164.501022 
L 308.110848 164.561871 
L 308.304508 165.231211 
L 308.482029 165.474607 
L 308.788657 165.413758 
L 308.885486 165.352909 
L 308.901625 165.413758 
L 309.095284 165.474607 
L 309.22439 165.596305 
L 309.353497 165.535456 
L 309.466465 165.596305 
L 309.579433 165.657154 
L 309.740816 165.474607 
L 310.111997 165.535456 
L 310.257241 165.657154 
L 310.434763 165.596305 
L 310.596146 165.413758 
L 310.967326 165.352909 
L 311.112571 165.231211 
L 311.160986 165.170362 
L 311.419199 164.62272 
L 311.548305 164.561871 
L 311.725826 164.318475 
L 311.919486 164.257626 
L 312.048592 164.196777 
L 312.306805 164.135928 
L 312.484326 163.892532 
L 312.532741 163.831683 
L 312.710262 163.588287 
L 312.903922 163.527438 
L 313.065305 163.344891 
L 313.178273 163.284041 
L 313.323517 163.162343 
L 313.67856 163.101494 
L 313.743113 163.162343 
L 313.856081 162.858098 
L 314.162709 162.797249 
L 314.275677 162.7364 
L 314.404783 162.797249 
L 314.646858 162.310457 
L 314.743687 162.249608 
L 314.856655 162.067061 
L 314.888932 162.12791 
L 314.985762 162.067061 
L 315.19556 161.701966 
L 315.260113 161.641117 
L 315.437634 161.397721 
L 315.631294 161.336872 
L 315.776538 161.215174 
L 315.905645 161.154325 
L 315.937921 161.093476 
L 315.986336 161.215174 
L 316.228411 162.310457 
L 316.260687 162.371306 
L 316.42207 162.797249 
L 316.631868 163.223192 
L 316.777113 163.101494 
L 317.116017 163.040645 
L 317.2774 162.858098 
L 317.422644 162.979796 
L 317.713134 162.918947 
L 317.84224 162.858098 
L 317.874517 162.797249 
L 318.229559 161.884513 
L 318.310251 161.823664 
L 318.826676 160.302438 
L 318.891229 160.241589 
L 319.213995 159.450552 
L 319.310825 159.450552 
L 319.472208 159.024608 
L 319.633591 158.051023 
L 319.859527 155.556212 
L 319.891804 114.604804 
L 319.92408 71.219433 
L 319.988633 100.001033 
L 320.166155 160.545834 
L 320.246846 161.093476 
L 320.295261 160.910929 
L 320.359814 160.971778 
L 320.569612 161.336872 
L 320.58575 161.276023 
L 320.618027 161.397721 
L 320.666442 161.397721 
L 320.843963 161.641117 
L 320.892378 161.701966 
L 321.311974 162.858098 
L 321.360388 162.918947 
L 321.554048 163.223192 
L 321.699293 163.284041 
L 321.844537 163.40574 
L 321.941367 163.466589 
L 322.118888 163.709985 
L 322.29641 163.770834 
L 322.441654 163.953381 
L 322.473931 163.892532 
L 322.538484 163.953381 
L 322.699867 164.135928 
L 322.716005 164.075079 
L 322.780558 164.196777 
L 323.022633 164.68357 
L 323.652026 164.62272 
L 323.764994 164.501022 
L 323.781133 164.561871 
L 323.877963 164.501022 
L 324.023207 164.257626 
L 324.039345 164.318475 
L 324.152314 164.257626 
L 324.168452 164.196777 
L 324.233005 164.379324 
L 324.249143 164.318475 
L 324.265282 164.379324 
L 324.329835 164.257626 
L 324.345973 164.257626 
L 324.475079 164.196777 
L 324.701016 164.257626 
L 324.830122 164.379324 
L 324.894675 164.318475 
L 324.94309 164.379324 
L 325.685452 164.318475 
L 325.846835 164.135928 
L 325.911388 164.075079 
L 326.040494 164.01423 
L 326.185739 163.953381 
L 326.379398 163.649136 
L 326.395537 163.649136 
L 326.540781 163.344891 
L 326.589196 163.284041 
L 326.798994 162.918947 
L 326.9281 162.858098 
L 327.073345 162.675551 
L 327.089483 162.7364 
L 327.12176 162.614702 
L 327.154036 162.614702 
L 327.299281 162.493004 
L 327.412249 162.553853 
L 327.525217 162.493004 
L 327.573632 162.553853 
L 327.605909 162.432155 
L 327.622047 162.493004 
L 327.751153 162.432155 
L 327.78343 162.371306 
L 327.960951 162.12791 
L 328.186887 162.067061 
L 328.428962 161.580268 
L 328.493515 161.580268 
L 328.622621 161.215174 
L 328.63876 161.276023 
L 328.961525 161.336872 
L 328.977664 161.397721 
L 329.00994 161.276023 
L 329.058355 161.276023 
L 329.187462 161.215174 
L 329.252015 161.154325 
L 329.461813 160.789231 
L 329.558642 160.728381 
L 329.687749 160.667532 
L 329.800717 160.728381 
L 329.9621 160.363287 
L 329.978238 160.424136 
L 330.091206 160.667532 
L 330.123483 160.545834 
L 330.204174 160.484985 
L 330.397834 160.119891 
L 330.43011 160.18074 
L 330.478525 160.059042 
L 330.494664 160.059042 
L 330.688323 160.059042 
L 330.833568 159.754797 
L 330.930398 159.754797 
L 331.124057 173.689229 
L 331.495238 183.546774 
L 332.076216 192.430735 
L 332.786301 199.245828 
L 333.528663 204.052903 
L 335.158631 209.772713 
L 335.174769 209.772713 
L 335.336152 210.259506 
L 335.35229 210.259506 
L 335.529812 210.807147 
L 335.997822 212.145826 
L 336.046237 212.206675 
L 336.272173 212.632619 
L 336.30445 212.693468 
L 336.530386 213.119411 
L 336.675631 213.18026 
L 336.86929 213.484505 
L 336.917705 213.545354 
L 337.079088 213.8496 
L 337.095226 213.788751 
L 337.111365 213.788751 
L 337.256609 214.092996 
L 337.337301 214.153845 
L 337.53096 214.45809 
L 337.660067 214.518939 
L 337.853726 214.823184 
L 338.015109 214.884033 
L 338.19263 215.12743 
L 338.321737 215.188279 
L 338.466981 215.309977 
L 338.579949 215.370826 
L 338.709056 215.431675 
L 339.306173 215.370826 
L 339.386864 215.309977 
L 339.419141 215.370826 
L 340.758619 215.309977 
L 340.920002 215.12743 
L 341.065247 215.06658 
L 341.22663 214.884033 
L 341.371874 214.823184 
L 341.517119 214.701486 
L 341.662364 214.640637 
L 341.69464 214.579788 
L 341.775332 214.640637 
L 341.936715 214.579788 
L 342.065821 214.518939 
L 342.194928 214.579788 
L 342.630662 214.518939 
L 342.6468 214.45809 
L 342.679076 214.579788 
L 342.74363 214.518939 
L 343.11481 214.45809 
L 343.163225 214.397241 
L 343.227778 214.45809 
L 343.760342 214.397241 
L 343.792619 214.336392 
L 343.87331 214.397241 
L 343.97014 214.336392 
L 344.050831 214.275543 
L 344.083108 214.336392 
L 344.228353 214.275543 
L 344.357459 214.214694 
L 344.680225 214.153845 
L 344.696363 214.092996 
L 344.793193 214.153845 
L 344.922299 214.092996 
L 345.051406 214.032147 
L 345.083682 214.092996 
L 345.164374 214.032147 
L 345.600108 213.971298 
L 345.616246 213.910449 
L 345.713076 213.971298 
L 345.793767 213.910449 
L 345.922874 213.8496 
L 346.068118 213.788751 
L 346.181086 213.667052 
L 346.197225 213.727901 
L 346.261778 213.667052 
L 346.390884 213.606203 
L 346.568406 213.545354 
L 346.584544 213.484505 
L 346.681374 213.545354 
L 346.971863 213.484505 
L 347.117108 213.362807 
L 347.940161 213.423656 
L 347.972437 213.484505 
L 348.053129 213.423656 
L 349.666958 213.484505 
L 349.683097 213.545354 
L 349.779926 213.484505 
L 351.16782 213.545354 
L 351.264649 213.606203 
L 351.280788 213.545354 
L 353.362628 213.484505 
L 353.394904 213.423656 
L 353.443319 213.545354 
L 353.475596 213.484505 
L 354.702106 213.423656 
L 354.815074 213.362807 
L 354.831213 213.423656 
L 354.879628 213.301958 
L 354.928042 213.362807 
L 355.024872 213.301958 
L 355.041011 213.362807 
L 355.121702 213.362807 
L 355.13784 213.241109 
L 355.3315 186.528377 
L 355.79951 159.450552 
L 355.89634 149.410459 
L 355.944755 68.359528 
L 356.009308 108.884993 
L 356.154553 158.233571 
L 356.170691 158.111872 
L 356.364351 153.548194 
L 356.800085 145.333573 
L 356.864638 70.184999 
L 356.945329 108.033107 
L 357.122851 153.548194 
L 357.284234 154.643477 
L 357.494031 155.008571 
L 357.542446 154.947722 
L 357.590861 155.008571 
L 357.703829 155.251967 
L 357.719968 155.191118 
L 357.865212 155.130269 
L 358.187978 154.339232 
L 358.236393 154.278383 
L 358.768957 151.844421 
L 359.043308 148.984515 
L 359.172414 144.725082 
L 359.236967 67.751038 
L 359.30152 98.297259 
L 359.49518 153.730741 
L 359.672701 155.495363 
L 359.898637 156.043005 
L 359.914776 155.982156 
L 360.092297 156.043005 
L 360.140712 156.103854 
L 360.172988 155.982156 
L 360.189127 155.982156 
L 360.25368 155.921307 
L 360.528031 155.312816 
L 360.640999 155.251967 
L 360.834658 154.765175 
L 360.866935 154.826024 
L 360.947627 154.765175 
L 361.092871 154.46093 
L 361.125148 154.521779 
L 361.173563 154.46093 
L 361.383361 154.095835 
L 361.447914 154.034986 
L 361.722265 153.426496 
L 361.786818 153.365647 
L 362.028892 152.878854 
L 362.125722 152.818005 
L 362.43235 152.087817 
L 362.496903 152.026968 
L 363.303818 149.410459 
L 363.352233 149.471308 
L 363.384509 149.288761 
L 363.56203 146.246308 
L 363.626584 66.96 
L 363.707275 105.659994 
L 363.884796 152.939703 
L 364.046179 154.521779 
L 364.143009 154.582628 
L 364.304392 154.765175 
L 364.336669 154.826024 
L 364.352807 154.886873 
L 364.433498 154.826024 
L 364.449637 154.765175 
L 364.530328 154.886873 
L 364.836956 154.947722 
L 364.853094 155.008571 
L 364.885371 154.886873 
L 364.917647 154.886873 
L 365.304966 153.852439 
L 365.595456 153.79159 
L 366.257126 151.722723 
L 366.321679 151.783572 
L 366.370094 151.90527 
L 366.418509 151.722723 
L 366.773551 150.809987 
L 366.805828 150.870836 
L 366.838104 150.688289 
L 366.967211 150.444893 
L 366.999487 150.505742 
L 367.015626 150.566591 
L 367.06404 150.444893 
L 367.080179 150.444893 
L 367.225423 150.323194 
L 367.273838 150.262345 
L 367.45136 149.714704 
L 367.628881 148.619421 
L 367.854817 147.645836 
L 367.887093 147.584987 
L 367.967785 146.489704 
L 368.000062 142.169422 
L 368.064615 67.811887 
L 368.129168 96.897731 
L 368.338966 152.331213 
L 368.516487 153.730741 
L 368.694008 154.034986 
L 368.806976 153.974137 
L 368.952221 154.095835 
L 369.000636 153.974137 
L 369.081327 154.034986 
L 369.194295 154.156684 
L 369.210434 154.095835 
L 369.24271 154.095835 
L 369.323402 153.974137 
L 369.355678 154.034986 
L 369.387955 154.217533 
L 369.484785 154.095835 
L 369.581614 154.034986 
L 369.839827 153.487345 
L 369.952795 153.426496 
L 370.501497 151.783572 
L 370.533774 151.722723 
L 370.695157 151.175081 
L 370.808125 151.23593 
L 371.114753 150.505742 
L 371.163167 150.444893 
L 371.308412 150.262345 
L 371.32455 150.323194 
L 371.389104 150.140647 
L 371.405242 150.201496 
L 371.534348 150.262345 
L 371.679593 150.566591 
L 371.744146 150.444893 
L 371.808699 150.505742 
L 371.857114 150.444893 
L 371.970082 150.262345 
L 372.002359 150.323194 
L 372.08305 150.262345 
L 372.551061 148.862817 
L 372.567199 148.923666 
L 372.615614 148.741119 
L 372.825412 147.645836 
L 372.922242 145.090176 
L 372.986795 67.446792 
L 373.067486 100.548674 
L 373.261146 150.931685 
L 373.454805 152.270364 
L 373.69688 152.757156 
L 373.858263 152.696307 
L 373.955092 152.574609 
L 373.971231 152.635458 
L 374.051922 152.757156 
L 374.084199 152.696307 
L 374.374688 152.026968 
L 374.45538 151.966119 
L 374.616763 151.722723 
L 374.713592 151.783572 
L 374.729731 151.722723 
L 374.842699 151.661873 
L 375.068635 151.23593 
L 375.100911 151.296779 
L 375.197741 151.418477 
L 375.230018 151.357628 
L 375.262294 151.296779 
L 375.617337 150.384043 
L 375.665752 150.323194 
L 375.827135 149.836402 
L 375.859411 149.897251 
L 375.891688 149.9581 
L 375.940103 149.775553 
L 376.149901 149.34961 
L 376.182177 149.410459 
L 376.262869 149.34961 
L 376.295145 149.288761 
L 376.698603 148.193478 
L 376.779294 148.254327 
L 376.795432 148.193478 
L 377.118198 146.550554 
L 377.182752 145.272724 
L 377.215028 123.184519 
L 377.263443 67.933585 
L 377.327996 92.820845 
L 377.537794 149.471308 
L 377.683039 151.053383 
L 377.699177 150.992534 
L 377.95739 151.540175 
L 378.054219 151.601024 
L 378.215602 151.783572 
L 378.393124 151.722723 
L 378.538368 151.601024 
L 378.586783 151.540175 
L 378.877273 150.870836 
L 378.941826 150.809987 
L 378.990241 150.749138 
L 379.022517 150.870836 
L 379.038655 150.870836 
L 379.167762 150.809987 
L 379.474389 150.079798 
L 379.522804 150.018949 
L 379.668049 149.897251 
L 379.74874 149.836402 
L 379.990815 149.34961 
L 380.023091 149.288761 
L 380.216751 148.497723 
L 380.232889 148.558572 
L 380.297442 148.376025 
L 380.426549 148.315176 
L 380.491102 148.376025 
L 380.571794 148.497723 
L 380.620208 148.436874 
L 380.684762 148.376025 
L 380.846145 148.132629 
L 380.862283 148.193478 
L 380.910698 147.950082 
L 380.959113 147.889233 
L 381.394847 145.820365 
L 381.540091 143.508101 
L 381.572368 119.716124 
L 381.620783 67.690189 
L 381.685336 92.212355 
L 381.911272 150.262345 
L 382.104932 151.661873 
L 382.185623 151.722723 
L 382.395421 152.087817 
L 382.459974 152.148666 
L 382.605219 152.270364 
L 382.702048 152.209515 
L 382.944123 151.722723 
L 383.121644 151.783572 
L 383.234612 152.026968 
L 383.283027 151.966119 
L 383.379857 152.026968 
L 383.395995 152.087817 
L 383.44441 151.966119 
L 383.460548 151.966119 
L 383.670346 151.601024 
L 383.702623 151.540175 
L 383.912421 151.175081 
L 383.944697 151.114232 
L 384.089942 150.870836 
L 384.10608 150.931685 
L 384.154495 150.870836 
L 384.348155 150.566591 
L 384.380431 150.505742 
L 384.477261 150.323194 
L 384.525676 150.384043 
L 384.735474 150.323194 
L 384.896857 150.018949 
L 384.912995 150.079798 
L 384.993686 150.018949 
L 385.042101 149.9581 
L 385.106654 150.018949 
L 385.171208 149.9581 
L 385.300314 149.714704 
L 385.332591 149.775553 
L 385.364867 149.897251 
L 385.42942 149.775553 
L 386.123367 146.79395 
L 386.317027 143.386403 
L 386.38158 68.968019 
L 386.47841 105.051503 
L 386.672069 149.227912 
L 386.833452 150.384043 
L 386.84959 150.323194 
L 386.898005 150.566591 
L 387.107803 151.053383 
L 387.123941 150.992534 
L 387.172356 151.053383 
L 387.349877 151.296779 
L 387.527399 151.053383 
L 387.688782 150.992534 
L 387.882441 150.688289 
L 387.979271 150.688289 
L 388.140654 151.175081 
L 388.318175 150.931685 
L 388.415005 150.992534 
L 388.431143 150.931685 
L 388.527973 150.870836 
L 388.657079 150.809987 
L 388.689356 150.870836 
L 388.737771 150.749138 
L 388.753909 150.749138 
L 389.012122 150.201496 
L 389.076675 150.201496 
L 389.238058 149.775553 
L 390.077249 146.185459 
L 390.319324 142.595365 
L 390.3516 112.96188 
L 390.400015 68.663773 
L 390.464568 93.185939 
L 390.674366 147.889233 
L 390.835749 149.410459 
L 390.868026 149.471308 
L 391.142377 150.079798 
L 391.158515 150.079798 
L 391.174653 149.9581 
L 391.271483 150.018949 
L 391.352175 149.897251 
L 391.384451 150.018949 
L 391.497419 149.9581 
L 391.513558 149.897251 
L 391.594249 150.018949 
L 391.739494 149.9581 
L 391.96543 149.532157 
L 392.078398 149.471308 
L 392.417302 148.619421 
L 392.449579 148.619421 
L 392.610962 148.132629 
L 392.659377 148.07178 
L 392.869174 147.280742 
L 392.885313 147.280742 
L 393.175802 145.881214 
L 393.627674 143.751497 
L 393.724504 141.865177 
L 393.756781 118.925086 
L 393.805196 69.089717 
L 393.869749 88.926506 
L 394.111823 147.40244 
L 394.305483 149.288761 
L 394.499142 150.018949 
L 394.547557 150.079798 
L 394.757355 150.444893 
L 394.967153 150.505742 
L 395.015568 150.62744 
L 395.080121 150.566591 
L 395.386749 149.836402 
L 395.419025 149.775553 
L 395.56427 149.653855 
L 395.612685 149.653855 
L 395.757929 149.34961 
L 395.806344 149.288761 
L 395.967727 148.923666 
L 396.000004 148.984515 
L 396.096833 148.923666 
L 396.290493 148.254327 
L 396.32277 148.193478 
L 396.726227 147.098195 
L 396.758504 147.037346 
L 397.048993 146.12461 
L 397.097408 146.185459 
L 397.129684 146.246308 
L 397.161961 146.12461 
L 397.517003 142.96046 
L 397.565418 138.640177 
L 397.629972 69.272264 
L 397.710663 95.741599 
L 397.936599 146.976497 
L 398.130259 148.862817 
L 398.162535 148.923666 
L 398.501439 149.775553 
L 398.582131 149.836402 
L 398.727376 149.9581 
L 398.904897 149.897251 
L 399.050142 149.775553 
L 399.211524 149.714704 
L 399.453599 149.227912 
L 399.582705 149.167063 
L 399.744088 148.923666 
L 399.857056 148.984515 
L 399.889333 148.923666 
L 399.953886 149.045364 
L 400.018439 148.984515 
L 400.438035 147.828384 
L 400.470311 147.767534 
L 401.196535 144.664233 
L 401.406333 141.500083 
L 401.487024 69.272264 
L 401.583854 104.382164 
L 401.777513 145.881214 
L 401.955035 147.828384 
L 402.229386 149.106214 
L 402.358492 149.288761 
L 402.37463 149.227912 
L 402.439183 149.167063 
L 402.519875 149.106214 
L 402.552152 149.167063 
L 402.842641 149.106214 
L 403.068577 148.68027 
L 403.100854 148.619421 
L 403.294513 148.315176 
L 403.342928 148.254327 
L 403.455896 148.132629 
L 403.472034 148.193478 
L 403.923907 148.132629 
L 404.053013 148.07178 
L 404.165981 148.132629 
L 404.214396 148.193478 
L 404.278949 148.132629 
L 404.359641 148.193478 
L 404.424194 148.254327 
L 404.472609 148.193478 
L 404.521024 148.132629 
L 404.730821 147.524138 
L 404.779236 147.584987 
L 404.843789 147.645836 
L 404.892204 147.584987 
L 405.102002 147.524138 
L 405.344077 147.037346 
L 405.392492 146.976497 
L 405.50546 146.611403 
L 405.537736 146.672252 
L 405.602289 146.611403 
L 406.005747 144.664233 
L 406.215545 142.351969 
L 406.296236 138.883574 
L 406.376928 70.063301 
L 406.441481 93.79443 
L 406.667417 146.428855 
L 406.861076 148.619421 
L 407.280672 149.775553 
L 407.442055 149.714704 
L 407.571161 149.471308 
L 407.813236 149.532157 
L 407.893927 149.593006 
L 407.926204 149.532157 
L 408.119863 149.593006 
L 408.200555 149.714704 
L 408.24897 149.653855 
L 408.3458 149.593006 
L 408.523321 149.34961 
L 408.604012 149.34961 
L 408.797672 148.68027 
L 409.104299 147.950082 
L 409.152714 147.889233 
L 409.749831 146.063761 
L 409.798246 146.002912 
L 409.927352 145.576969 
L 409.975767 145.759516 
L 410.395363 145.698667 
L 410.944065 143.203856 
L 411.105448 138.153385 
L 411.186139 70.063301 
L 411.250693 92.759996 
L 411.476629 146.307157 
L 411.65415 148.436874 
L 411.896224 149.471308 
L 412.057607 149.653855 
L 412.138299 149.593006 
L 412.267405 149.471308 
L 412.299682 149.532157 
L 412.348097 149.410459 
L 412.364235 149.410459 
L 412.525618 149.34961 
L 412.590171 149.288761 
L 412.622448 149.410459 
L 412.703139 149.653855 
L 412.767692 149.593006 
L 412.97749 149.227912 
L 413.058182 149.167063 
L 413.203426 149.045364 
L 413.300256 148.984515 
L 413.477777 148.497723 
L 413.510054 148.619421 
L 413.752128 148.558572 
L 414.252416 147.098195 
L 414.316969 147.037346 
L 414.462213 146.915648 
L 414.510628 146.854799 
L 414.801118 146.185459 
L 414.833394 146.12461 
L 415.382096 141.256686 
L 415.414373 135.232631 
L 415.478926 69.880754 
L 415.543479 89.900091 
L 415.785554 146.428855 
L 415.979213 148.376025 
L 416.189011 149.167063 
L 416.414947 149.593006 
L 416.544053 149.532157 
L 416.76999 149.532157 
L 416.931373 149.106214 
L 416.963649 149.167063 
L 417.012064 148.984515 
L 417.060479 148.923666 
L 417.286415 148.497723 
L 417.399383 148.436874 
L 417.818979 147.280742 
L 417.851255 147.219893 
L 418.109468 146.672252 
L 418.238574 146.611403 
L 418.56134 145.820365 
L 418.577479 145.881214 
L 418.625894 145.759516 
L 418.642032 145.759516 
L 419.126181 143.508101 
L 419.335979 140.709045 
L 419.368255 129.330273 
L 419.432808 70.002452 
L 419.497362 90.508581 
L 419.787851 163.162343 
L 420.046064 177.644417 
L 420.433383 188.293 
L 420.83684 194.925546 
L 421.224159 199.12413 
L 421.627616 202.470828 
L 421.788999 203.505262 
L 422.224733 206.000072 
L 422.757297 208.434034 
L 422.950957 209.103374 
L 423.67718 211.415638 
L 423.709457 211.476487 
L 424.145191 212.693468 
L 424.177467 212.754317 
L 424.451818 213.362807 
L 424.500233 213.423656 
L 424.758446 213.971298 
L 424.855276 214.032147 
L 425.129627 214.640637 
L 425.145765 214.579788 
L 425.178041 214.701486 
L 425.210318 214.701486 
L 425.436254 215.12743 
L 425.549222 215.188279 
L 425.726743 215.431675 
L 425.839712 215.492524 
L 426.017233 215.73592 
L 426.097924 215.796769 
L 426.259307 215.979316 
L 426.32386 216.040165 
L 426.501382 216.283561 
L 426.51752 216.222712 
L 426.582073 216.34441 
L 426.598211 216.34441 
L 426.727318 216.40526 
L 426.824148 216.466109 
L 426.98553 216.648656 
L 427.033945 216.709505 
L 427.163052 216.770354 
L 427.243743 216.831203 
L 427.388988 217.01375 
L 427.421264 216.952901 
L 427.501956 217.01375 
L 428.131349 217.074599 
L 428.276594 217.196297 
L 429.148062 217.257146 
L 429.1642 217.317995 
L 429.244892 217.257146 
L 429.341722 217.196297 
L 429.35786 217.257146 
L 429.729041 217.317995 
L 429.793594 217.378844 
L 429.842009 217.317995 
L 430.697338 217.257146 
L 430.826445 217.196297 
L 431.310594 217.135448 
L 431.375147 217.074599 
L 431.423562 217.135448 
L 431.4397 217.196297 
L 431.520391 217.135448 
L 431.649498 217.074599 
L 432.036817 217.01375 
L 432.165923 216.952901 
L 432.633934 216.892052 
L 432.76304 216.831203 
L 433.392434 216.770354 
L 433.52154 216.709505 
L 433.795891 216.648656 
L 433.860444 216.526958 
L 433.908859 216.587807 
L 433.989551 216.648656 
L 434.021827 216.587807 
L 434.74805 216.526958 
L 434.877157 216.466109 
L 435.232199 216.40526 
L 435.377444 216.283561 
L 435.458135 216.34441 
L 435.490412 216.283561 
L 435.780901 216.283561 
L 435.780901 216.283561 
" style="fill:none;stroke:#1f77b4;stroke-linecap:square;stroke-width:1.5;"/>
   </g>
   <g id="line2d_12">
    <path clip-path="url(#pc8cba8a452)" d="M 80.754545 210.794977 
L 81.222556 215.804655 
L 81.674428 218.695812 
L 82.190854 220.590019 
L 82.804109 221.748974 
L 83.869236 222.434378 
L 86.919374 222.334683 
L 87.129172 222.309759 
L 88.258853 222.210064 
L 88.468651 222.18514 
L 88.904385 222.160216 
L 89.356257 197.111828 
L 89.808129 183.416216 
L 90.243863 176.612027 
L 90.615044 173.795641 
L 90.93781 172.786229 
L 91.163746 172.636686 
L 91.486512 173.023004 
L 91.922246 174.306579 
L 92.890543 178.48131 
L 94.213884 184.089158 
L 95.133766 187.204629 
L 96.053649 189.697006 
L 97.215607 192.114612 
L 98.990819 194.656837 
L 99.507244 195.192698 
L 99.846149 195.516707 
L 101.879574 196.949823 
L 102.073233 197.049518 
L 102.557382 197.286294 
L 102.799457 197.385989 
L 103.186776 197.547994 
L 103.477265 197.647689 
L 103.800031 197.759846 
L 104.122797 197.859541 
L 104.413286 197.946774 
L 104.816744 198.046469 
L 105.091095 198.121241 
L 105.575243 198.220936 
L 105.833456 198.283245 
L 106.446711 198.38294 
L 106.688786 198.432788 
L 107.463424 198.532483 
L 107.68936 198.569868 
L 108.722211 198.669563 
L 108.932009 198.694487 
L 110.384455 198.794182 
L 110.578115 198.806644 
L 112.885891 198.906339 
L 113.079551 198.918801 
L 121.971751 199.018496 
L 122.165411 199.030958 
L 153.457565 199.030958 
L 153.909438 224.041961 
L 154.345172 237.351254 
L 154.764767 244.030824 
L 155.11981 246.759977 
L 155.442576 247.744466 
L 155.716927 247.819237 
L 155.959001 247.495228 
L 156.475426 246.024726 
L 156.927299 244.280062 
L 159.929022 233.126675 
L 160.639107 231.282316 
L 161.768787 228.939482 
L 163.624691 226.272638 
L 164.124978 225.749239 
L 164.463883 225.42523 
L 166.561861 223.942266 
L 166.771659 223.842571 
L 167.255808 223.605795 
L 167.497882 223.5061 
L 167.869063 223.356557 
L 168.159552 223.256862 
L 168.498456 223.132243 
L 168.837361 223.032548 
L 169.12785 222.945315 
L 169.515169 222.84562 
L 169.531307 210.794977 
L 169.628137 212.053628 
L 170.112286 216.664525 
L 170.531882 219.069669 
L 170.967616 220.590019 
L 171.580871 221.748974 
L 172.645998 222.434378 
L 175.696136 222.334683 
L 175.905934 222.309759 
L 177.035615 222.210064 
L 177.245412 222.18514 
L 177.681146 222.160216 
L 178.133019 188.774827 
L 178.584891 170.318775 
L 179.198146 149.968518 
L 179.230423 144.074046 
L 179.343391 175.428148 
L 179.553189 175.428148 
L 179.714572 177.945449 
L 180.19872 183.752687 
L 180.682869 187.217091 
L 181.167018 189.248379 
L 181.667305 190.457181 
L 182.312837 191.254742 
L 182.958369 191.616137 
L 183.394103 191.715832 
L 183.620039 191.753217 
L 187.089772 191.653522 
L 187.283432 191.64106 
L 189.817144 191.541365 
L 190.010804 191.528903 
L 203.147376 191.429208 
L 203.341036 191.416746 
L 242.234327 191.416746 
L 242.702338 225.637082 
L 243.138072 242.971564 
L 243.541529 251.420722 
L 243.896572 255.059592 
L 244.187061 256.305781 
L 244.396859 256.530095 
L 244.687348 256.1687 
L 244.993976 255.196673 
L 245.526539 252.716758 
L 248.189358 238.933913 
L 248.899443 236.167375 
L 249.657943 233.674998 
L 250.529411 231.332164 
L 251.707506 228.877172 
L 253.514995 226.2851 
L 254.015283 225.761701 
L 254.354187 225.437692 
L 256.468303 223.942266 
L 256.678101 223.842571 
L 257.16225 223.605795 
L 257.404325 223.5061 
L 257.791644 223.344095 
L 258.082133 223.2444 
L 258.291931 223.169629 
L 258.308069 210.794977 
L 258.404899 212.053628 
L 258.889048 216.664525 
L 259.308643 219.069669 
L 259.744377 220.590019 
L 260.357633 221.748974 
L 261.42276 222.434378 
L 264.472898 222.334683 
L 264.682696 222.309759 
L 265.812376 222.210064 
L 266.022174 222.18514 
L 266.457908 222.160216 
L 266.90978 172.038516 
L 267.184132 144.422979 
L 267.2971 175.428148 
L 267.506897 175.428148 
L 267.636004 171.303264 
L 268.249259 149.632047 
L 268.281536 142.628467 
L 268.394504 175.428148 
L 268.604301 175.428148 
L 269.056174 179.926889 
L 269.443493 182.070333 
L 269.84695 183.204364 
L 270.121301 183.565759 
L 270.444067 183.677916 
L 270.782971 183.578221 
L 271.622163 182.793122 
L 272.267694 181.995562 
L 272.574322 181.621705 
L 273.171439 180.898916 
L 273.591035 180.437826 
L 273.994492 180.014122 
L 276.996215 177.833292 
L 277.222151 177.733597 
L 277.657885 177.534207 
L 277.932236 177.434512 
L 278.287279 177.297431 
L 278.593906 177.197736 
L 278.900534 177.098041 
L 279.271715 176.998346 
L 279.562204 176.911113 
L 280.030214 176.811417 
L 280.288427 176.749108 
L 280.837129 176.649413 
L 281.079204 176.599565 
L 281.805427 176.49987 
L 282.031363 176.462485 
L 282.983522 176.36279 
L 283.19332 176.337866 
L 284.532799 176.238171 
L 284.726458 176.225709 
L 286.98582 176.126014 
L 287.179479 176.113552 
L 331.011089 176.013857 
L 331.4791 227.531289 
L 331.914834 253.651399 
L 332.318291 266.374984 
L 332.689472 272.020218 
L 332.996099 273.827191 
L 333.173621 274.063967 
L 333.286589 273.964272 
L 333.480248 273.465796 
L 333.835291 271.683747 
L 334.416269 267.421782 
L 336.498109 250.685471 
L 337.579375 243.931129 
L 338.692917 238.522671 
L 340.113087 233.475608 
L 340.952279 231.232469 
L 342.081959 228.889634 
L 343.905587 226.272638 
L 344.405874 225.749239 
L 344.744778 225.42523 
L 346.842757 223.942266 
L 347.052554 223.842571 
L 347.068693 223.830109 
L 347.084831 210.794977 
L 347.181661 212.053628 
L 347.66581 216.664525 
L 348.085405 219.069669 
L 348.521139 220.590019 
L 349.134394 221.748974 
L 350.199522 222.434378 
L 353.24966 222.334683 
L 353.459458 222.309759 
L 354.589138 222.210064 
L 354.798936 222.18514 
L 355.23467 222.160216 
L 355.541298 140.883803 
L 355.654266 175.428148 
L 355.864064 175.428148 
L 356.009308 147.07736 
L 356.122276 175.428148 
L 356.332074 175.428148 
L 356.461181 159.402164 
L 356.541872 143.37618 
L 356.65484 175.428148 
L 356.864638 175.428148 
L 357.155127 143.363719 
L 357.268095 175.428148 
L 357.477893 175.428148 
L 357.97818 146.628732 
L 357.994319 140.223324 
L 358.010457 175.428148 
L 358.317084 175.428148 
L 359.446765 162.08147 
L 359.737254 155.962684 
L 359.850222 149.482504 
L 359.882499 142.603544 
L 359.995467 175.428148 
L 360.205265 175.428148 
L 360.544169 179.204099 
L 360.834658 180.375517 
L 361.028318 180.387978 
L 361.254254 179.839655 
L 361.625435 177.982835 
L 362.190275 173.833027 
L 363.110158 165.109708 
L 363.545892 158.816456 
L 363.739552 152.236581 
L 363.804105 142.715701 
L 363.917073 175.428148 
L 364.126871 175.428148 
L 364.465775 179.428413 
L 364.740126 180.699526 
L 364.917647 180.824144 
L 364.933785 180.811682 
L 365.07903 180.574907 
L 365.304966 179.789808 
L 365.724562 177.322355 
L 366.40237 171.864049 
L 367.289977 162.617331 
L 367.612742 156.585778 
L 367.741849 150.105598 
L 367.774125 144.784373 
L 367.887093 175.428148 
L 368.096891 175.428148 
L 368.290551 177.995297 
L 368.613317 180.363055 
L 368.855391 180.799221 
L 368.984498 180.699526 
L 369.291125 179.715037 
L 369.694583 177.347278 
L 370.388529 171.751892 
L 371.259997 162.667178 
L 371.582763 156.697935 
L 371.711869 150.479455 
L 371.744146 145.843634 
L 371.857114 175.428148 
L 372.066912 175.428148 
L 372.260571 178.007758 
L 372.583337 180.375517 
L 372.809274 180.824144 
L 372.922242 180.774297 
L 373.132039 180.26336 
L 373.374114 179.179176 
L 373.858263 175.964009 
L 374.697454 168.623959 
L 375.246156 162.505174 
L 375.552784 156.810092 
L 375.68189 150.815926 
L 375.730305 141.232736 
L 375.843273 175.428148 
L 376.053071 175.428148 
L 376.391975 179.415951 
L 376.682464 180.699526 
L 376.827709 180.799221 
L 376.859986 180.774297 
L 377.00523 180.537521 
L 377.231166 179.73996 
L 377.650762 177.284969 
L 378.32857 171.814202 
L 379.006379 165.134631 
L 379.442113 158.84138 
L 379.619634 153.270917 
L 379.700326 143.226638 
L 379.813294 175.428148 
L 380.023091 175.428148 
L 380.361996 179.428413 
L 380.652485 180.724449 
L 380.830006 180.811682 
L 380.975251 180.574907 
L 381.201187 179.777346 
L 381.620783 177.322355 
L 382.298591 171.851587 
L 382.976399 165.184479 
L 383.412133 158.928613 
L 383.605793 152.56059 
L 383.670346 144.547598 
L 383.783314 175.428148 
L 383.993112 175.428148 
L 384.186772 177.995297 
L 384.509538 180.350593 
L 384.735474 180.799221 
L 384.86458 180.711987 
L 385.05824 180.225974 
L 385.300314 179.14179 
L 385.784463 175.926624 
L 386.623654 168.586573 
L 387.269186 161.022209 
L 387.527399 155.07789 
L 387.624229 148.610172 
L 387.640367 145.681629 
L 387.753335 175.428148 
L 387.963133 175.428148 
L 388.156792 178.007758 
L 388.479558 180.375517 
L 388.705494 180.824144 
L 388.850739 180.724449 
L 389.157367 179.73996 
L 389.560824 177.372202 
L 390.254771 171.776816 
L 390.932579 165.084784 
L 391.368313 158.754146 
L 391.545834 153.021679 
L 391.610387 146.541499 
L 391.626526 140.896265 
L 391.739494 175.428148 
L 391.949292 175.428148 
L 392.288196 179.415951 
L 392.578685 180.699526 
L 392.72393 180.799221 
L 392.756206 180.774297 
L 392.901451 180.537521 
L 393.127387 179.73996 
L 393.546983 177.284969 
L 394.224791 171.814202 
L 394.9026 165.134631 
L 395.338334 158.84138 
L 395.515855 153.258455 
L 395.596546 143.164328 
L 395.709514 175.428148 
L 395.919312 175.428148 
L 396.258216 179.428413 
L 396.548706 180.724449 
L 396.726227 180.811682 
L 396.871472 180.574907 
L 397.097408 179.777346 
L 397.517003 177.322355 
L 398.194812 171.851587 
L 398.87262 165.184479 
L 399.308354 158.928613 
L 399.502014 152.56059 
L 399.566567 144.547598 
L 399.679535 175.428148 
L 399.889333 175.428148 
L 400.082992 177.995297 
L 400.405758 180.350593 
L 400.631694 180.799221 
L 400.760801 180.711987 
L 400.95446 180.225974 
L 401.341779 178.294382 
L 401.890481 174.244269 
L 402.842641 165.221865 
L 403.278375 159.003384 
L 403.472034 152.797365 
L 403.536588 145.669167 
L 403.649556 175.428148 
L 403.859353 175.428148 
L 404.053013 178.007758 
L 404.375779 180.375517 
L 404.601715 180.824144 
L 404.74696 180.724449 
L 405.053587 179.73996 
L 405.457045 177.372202 
L 406.150991 171.776816 
L 406.8288 165.084784 
L 407.264534 158.754146 
L 407.442055 153.021679 
L 407.506608 146.541499 
L 407.522746 140.921189 
L 407.635715 175.428148 
L 407.845512 175.428148 
L 408.184417 179.403489 
L 408.458768 180.66214 
L 408.620151 180.799221 
L 408.652427 180.774297 
L 408.797672 180.537521 
L 409.023608 179.73996 
L 409.443204 177.284969 
L 410.121012 171.814202 
L 410.79882 165.134631 
L 411.234554 158.84138 
L 411.428214 152.29889 
L 411.492767 143.052171 
L 411.605735 175.428148 
L 411.815533 175.428148 
L 412.154437 179.428413 
L 412.444927 180.711987 
L 412.590171 180.824144 
L 412.606309 180.811682 
L 412.767692 180.574907 
L 413.122735 179.129328 
L 413.590745 176.013857 
L 414.429937 168.69873 
L 415.091607 160.947438 
L 415.333681 155.514056 
L 415.446649 147.949692 
L 415.462788 144.435441 
L 415.575756 175.428148 
L 415.785554 175.428148 
L 415.979213 177.995297 
L 416.301979 180.350593 
L 416.527915 180.799221 
L 416.657022 180.711987 
L 416.850681 180.225974 
L 417.238 178.294382 
L 417.786702 174.244269 
L 418.738862 165.221865 
L 419.174596 159.003384 
L 419.368255 152.784903 
L 419.432808 145.606858 
L 419.545776 175.428148 
L 419.755574 175.428148 
L 419.787851 175.826929 
L 420.239723 280.394604 
L 420.659319 332.634825 
L 421.046638 357.1972 
L 421.385542 366.855161 
L 421.643755 369.260305 
L 421.708308 369.36 
L 421.772861 369.285229 
L 421.934244 368.450282 
L 422.176319 365.808363 
L 422.660467 357.159815 
L 423.612627 335.027507 
L 425.081212 302.501988 
L 426.210892 282.837134 
L 427.163052 269.826926 
L 428.082935 259.820032 
L 429.244892 250.0873 
L 430.374572 243.00895 
L 431.34287 238.373129 
L 432.730764 233.450684 
L 433.569955 231.207545 
L 434.699636 228.86471 
L 435.845455 227.095123 
L 435.845455 227.095123 
" style="fill:none;stroke:#ff0000;stroke-linecap:square;stroke-width:1.5;"/>
   </g>
   <g id="patch_3">
    <path d="M 63 384.48 
L 63 51.84 
" style="fill:none;stroke:#000000;stroke-linecap:square;stroke-linejoin:miter;stroke-width:0.8;"/>
   </g>
   <g id="patch_4">
    <path d="M 453.6 384.48 
L 453.6 51.84 
" style="fill:none;stroke:#000000;stroke-linecap:square;stroke-linejoin:miter;stroke-width:0.8;"/>
   </g>
   <g id="patch_5">
    <path d="M 63 384.48 
L 453.6 384.48 
" style="fill:none;stroke:#000000;stroke-linecap:square;stroke-linejoin:miter;stroke-width:0.8;"/>
   </g>
   <g id="patch_6">
    <path d="M 63 51.84 
L 453.6 51.84 
" style="fill:none;stroke:#000000;stroke-linecap:square;stroke-linejoin:miter;stroke-width:0.8;"/>
   </g>
   <g id="legend_1">
    <g id="patch_7">
     <path d="M 70 89.19625 
L 133.139062 89.19625 
Q 135.139062 89.19625 135.139062 87.19625 
L 135.139062 58.84 
Q 135.139062 56.84 133.139062 56.84 
L 70 56.84 
Q 68 56.84 68 58.84 
L 68 87.19625 
Q 68 89.19625 70 89.19625 
z
" style="fill:#ffffff;opacity:0.8;stroke:#cccccc;stroke-linejoin:miter;"/>
    </g>
    <g id="line2d_13">
     <path d="M 72 64.938437 
L 92 64.938437 
" style="fill:none;stroke:#1f77b4;stroke-linecap:square;stroke-width:1.5;"/>
    </g>
    <g id="line2d_14"/>
    <g id="text_13">
     <!-- target -->
     <defs>
      <path d="M 41.109375 46.296875 
Q 39.59375 47.171875 37.8125 47.578125 
Q 36.03125 48 33.890625 48 
Q 26.265625 48 22.1875 43.046875 
Q 18.109375 38.09375 18.109375 28.8125 
L 18.109375 0 
L 9.078125 0 
L 9.078125 54.6875 
L 18.109375 54.6875 
L 18.109375 46.1875 
Q 20.953125 51.171875 25.484375 53.578125 
Q 30.03125 56 36.53125 56 
Q 37.453125 56 38.578125 55.875 
Q 39.703125 55.765625 41.0625 55.515625 
z
" id="DejaVuSans-114"/>
     </defs>
     <g transform="translate(100 68.438437)scale(0.1 -0.1)">
      <use xlink:href="#DejaVuSans-116"/>
      <use x="39.208984" xlink:href="#DejaVuSans-97"/>
      <use x="100.488281" xlink:href="#DejaVuSans-114"/>
      <use x="141.585938" xlink:href="#DejaVuSans-103"/>
      <use x="205.0625" xlink:href="#DejaVuSans-101"/>
      <use x="266.585938" xlink:href="#DejaVuSans-116"/>
     </g>
    </g>
    <g id="line2d_15">
     <path d="M 72 79.616562 
L 92 79.616562 
" style="fill:none;stroke:#ff0000;stroke-linecap:square;stroke-width:1.5;"/>
    </g>
    <g id="line2d_16"/>
    <g id="text_14">
     <!-- model -->
     <defs>
      <path d="M 45.40625 46.390625 
L 45.40625 75.984375 
L 54.390625 75.984375 
L 54.390625 0 
L 45.40625 0 
L 45.40625 8.203125 
Q 42.578125 3.328125 38.25 0.953125 
Q 33.9375 -1.421875 27.875 -1.421875 
Q 17.96875 -1.421875 11.734375 6.484375 
Q 5.515625 14.40625 5.515625 27.296875 
Q 5.515625 40.1875 11.734375 48.09375 
Q 17.96875 56 27.875 56 
Q 33.9375 56 38.25 53.625 
Q 42.578125 51.265625 45.40625 46.390625 
z
M 14.796875 27.296875 
Q 14.796875 17.390625 18.875 11.75 
Q 22.953125 6.109375 30.078125 6.109375 
Q 37.203125 6.109375 41.296875 11.75 
Q 45.40625 17.390625 45.40625 27.296875 
Q 45.40625 37.203125 41.296875 42.84375 
Q 37.203125 48.484375 30.078125 48.484375 
Q 22.953125 48.484375 18.875 42.84375 
Q 14.796875 37.203125 14.796875 27.296875 
z
" id="DejaVuSans-100"/>
     </defs>
     <g transform="translate(100 83.116562)scale(0.1 -0.1)">
      <use xlink:href="#DejaVuSans-109"/>
      <use x="97.412109" xlink:href="#DejaVuSans-111"/>
      <use x="158.59375" xlink:href="#DejaVuSans-100"/>
      <use x="222.070312" xlink:href="#DejaVuSans-101"/>
      <use x="283.59375" xlink:href="#DejaVuSans-108"/>
     </g>
    </g>
   </g>
  </g>
 </g>
 <defs>
  <clipPath id="pc8cba8a452">
   <rect height="332.64" width="390.6" x="63" y="51.84"/>
  </clipPath>
 </defs>
</svg>
