<?xml version="1.0" encoding="utf-8" standalone="no"?>
<!DOCTYPE svg PUBLIC "-//W3C//DTD SVG 1.1//EN"
  "http://www.w3.org/Graphics/SVG/1.1/DTD/svg11.dtd">
<!-- Created with matplotlib (https://matplotlib.org/) -->
<svg height="432pt" version="1.1" viewBox="0 0 504 432" width="504pt" xmlns="http://www.w3.org/2000/svg" xmlns:xlink="http://www.w3.org/1999/xlink">
 <metadata>
  <rdf:RDF xmlns:cc="http://creativecommons.org/ns#" xmlns:dc="http://purl.org/dc/elements/1.1/" xmlns:rdf="http://www.w3.org/1999/02/22-rdf-syntax-ns#">
   <cc:Work>
    <dc:type rdf:resource="http://purl.org/dc/dcmitype/StillImage"/>
    <dc:date>2021-02-25T12:33:43.794226</dc:date>
    <dc:format>image/svg+xml</dc:format>
    <dc:creator>
     <cc:Agent>
      <dc:title>Matplotlib v3.3.2, https://matplotlib.org/</dc:title>
     </cc:Agent>
    </dc:creator>
   </cc:Work>
  </rdf:RDF>
 </metadata>
 <defs>
  <style type="text/css">*{stroke-linecap:butt;stroke-linejoin:round;}</style>
 </defs>
 <g id="figure_1">
  <g id="patch_1">
   <path d="M 0 432 
L 504 432 
L 504 0 
L 0 0 
z
" style="fill:#ffffff;"/>
  </g>
  <g id="axes_1">
   <g id="patch_2">
    <path d="M 63 384.48 
L 453.6 384.48 
L 453.6 51.84 
L 63 51.84 
z
" style="fill:#ffffff;"/>
   </g>
   <g id="matplotlib.axis_1">
    <g id="xtick_1">
     <g id="line2d_1">
      <defs>
       <path d="M 0 0 
L 0 3.5 
" id="m0449cbfa0c" style="stroke:#000000;stroke-width:0.8;"/>
      </defs>
      <g>
       <use style="stroke:#000000;stroke-width:0.8;" x="80.754545" xlink:href="#m0449cbfa0c" y="384.48"/>
      </g>
     </g>
     <g id="text_1">
      <!-- 0 -->
      <g transform="translate(77.573295 399.078438)scale(0.1 -0.1)">
       <defs>
        <path d="M 31.78125 66.40625 
Q 24.171875 66.40625 20.328125 58.90625 
Q 16.5 51.421875 16.5 36.375 
Q 16.5 21.390625 20.328125 13.890625 
Q 24.171875 6.390625 31.78125 6.390625 
Q 39.453125 6.390625 43.28125 13.890625 
Q 47.125 21.390625 47.125 36.375 
Q 47.125 51.421875 43.28125 58.90625 
Q 39.453125 66.40625 31.78125 66.40625 
z
M 31.78125 74.21875 
Q 44.046875 74.21875 50.515625 64.515625 
Q 56.984375 54.828125 56.984375 36.375 
Q 56.984375 17.96875 50.515625 8.265625 
Q 44.046875 -1.421875 31.78125 -1.421875 
Q 19.53125 -1.421875 13.0625 8.265625 
Q 6.59375 17.96875 6.59375 36.375 
Q 6.59375 54.828125 13.0625 64.515625 
Q 19.53125 74.21875 31.78125 74.21875 
z
" id="DejaVuSans-48"/>
       </defs>
       <use xlink:href="#DejaVuSans-48"/>
      </g>
     </g>
    </g>
    <g id="xtick_2">
     <g id="line2d_2">
      <g>
       <use style="stroke:#000000;stroke-width:0.8;" x="151.767796" xlink:href="#m0449cbfa0c" y="384.48"/>
      </g>
     </g>
     <g id="text_2">
      <!-- 720 -->
      <g transform="translate(142.224046 399.078438)scale(0.1 -0.1)">
       <defs>
        <path d="M 8.203125 72.90625 
L 55.078125 72.90625 
L 55.078125 68.703125 
L 28.609375 0 
L 18.3125 0 
L 43.21875 64.59375 
L 8.203125 64.59375 
z
" id="DejaVuSans-55"/>
        <path d="M 19.1875 8.296875 
L 53.609375 8.296875 
L 53.609375 0 
L 7.328125 0 
L 7.328125 8.296875 
Q 12.9375 14.109375 22.625 23.890625 
Q 32.328125 33.6875 34.8125 36.53125 
Q 39.546875 41.84375 41.421875 45.53125 
Q 43.3125 49.21875 43.3125 52.78125 
Q 43.3125 58.59375 39.234375 62.25 
Q 35.15625 65.921875 28.609375 65.921875 
Q 23.96875 65.921875 18.8125 64.3125 
Q 13.671875 62.703125 7.8125 59.421875 
L 7.8125 69.390625 
Q 13.765625 71.78125 18.9375 73 
Q 24.125 74.21875 28.421875 74.21875 
Q 39.75 74.21875 46.484375 68.546875 
Q 53.21875 62.890625 53.21875 53.421875 
Q 53.21875 48.921875 51.53125 44.890625 
Q 49.859375 40.875 45.40625 35.40625 
Q 44.1875 33.984375 37.640625 27.21875 
Q 31.109375 20.453125 19.1875 8.296875 
z
" id="DejaVuSans-50"/>
       </defs>
       <use xlink:href="#DejaVuSans-55"/>
       <use x="63.623047" xlink:href="#DejaVuSans-50"/>
       <use x="127.246094" xlink:href="#DejaVuSans-48"/>
      </g>
     </g>
    </g>
    <g id="xtick_3">
     <g id="line2d_3">
      <g>
       <use style="stroke:#000000;stroke-width:0.8;" x="222.781046" xlink:href="#m0449cbfa0c" y="384.48"/>
      </g>
     </g>
     <g id="text_3">
      <!-- 1440 -->
      <g transform="translate(210.056046 399.078438)scale(0.1 -0.1)">
       <defs>
        <path d="M 12.40625 8.296875 
L 28.515625 8.296875 
L 28.515625 63.921875 
L 10.984375 60.40625 
L 10.984375 69.390625 
L 28.421875 72.90625 
L 38.28125 72.90625 
L 38.28125 8.296875 
L 54.390625 8.296875 
L 54.390625 0 
L 12.40625 0 
z
" id="DejaVuSans-49"/>
        <path d="M 37.796875 64.3125 
L 12.890625 25.390625 
L 37.796875 25.390625 
z
M 35.203125 72.90625 
L 47.609375 72.90625 
L 47.609375 25.390625 
L 58.015625 25.390625 
L 58.015625 17.1875 
L 47.609375 17.1875 
L 47.609375 0 
L 37.796875 0 
L 37.796875 17.1875 
L 4.890625 17.1875 
L 4.890625 26.703125 
z
" id="DejaVuSans-52"/>
       </defs>
       <use xlink:href="#DejaVuSans-49"/>
       <use x="63.623047" xlink:href="#DejaVuSans-52"/>
       <use x="127.246094" xlink:href="#DejaVuSans-52"/>
       <use x="190.869141" xlink:href="#DejaVuSans-48"/>
      </g>
     </g>
    </g>
    <g id="xtick_4">
     <g id="line2d_4">
      <g>
       <use style="stroke:#000000;stroke-width:0.8;" x="293.794296" xlink:href="#m0449cbfa0c" y="384.48"/>
      </g>
     </g>
     <g id="text_4">
      <!-- 2160 -->
      <g transform="translate(281.069296 399.078438)scale(0.1 -0.1)">
       <defs>
        <path d="M 33.015625 40.375 
Q 26.375 40.375 22.484375 35.828125 
Q 18.609375 31.296875 18.609375 23.390625 
Q 18.609375 15.53125 22.484375 10.953125 
Q 26.375 6.390625 33.015625 6.390625 
Q 39.65625 6.390625 43.53125 10.953125 
Q 47.40625 15.53125 47.40625 23.390625 
Q 47.40625 31.296875 43.53125 35.828125 
Q 39.65625 40.375 33.015625 40.375 
z
M 52.59375 71.296875 
L 52.59375 62.3125 
Q 48.875 64.0625 45.09375 64.984375 
Q 41.3125 65.921875 37.59375 65.921875 
Q 27.828125 65.921875 22.671875 59.328125 
Q 17.53125 52.734375 16.796875 39.40625 
Q 19.671875 43.65625 24.015625 45.921875 
Q 28.375 48.1875 33.59375 48.1875 
Q 44.578125 48.1875 50.953125 41.515625 
Q 57.328125 34.859375 57.328125 23.390625 
Q 57.328125 12.15625 50.6875 5.359375 
Q 44.046875 -1.421875 33.015625 -1.421875 
Q 20.359375 -1.421875 13.671875 8.265625 
Q 6.984375 17.96875 6.984375 36.375 
Q 6.984375 53.65625 15.1875 63.9375 
Q 23.390625 74.21875 37.203125 74.21875 
Q 40.921875 74.21875 44.703125 73.484375 
Q 48.484375 72.75 52.59375 71.296875 
z
" id="DejaVuSans-54"/>
       </defs>
       <use xlink:href="#DejaVuSans-50"/>
       <use x="63.623047" xlink:href="#DejaVuSans-49"/>
       <use x="127.246094" xlink:href="#DejaVuSans-54"/>
       <use x="190.869141" xlink:href="#DejaVuSans-48"/>
      </g>
     </g>
    </g>
    <g id="xtick_5">
     <g id="line2d_5">
      <g>
       <use style="stroke:#000000;stroke-width:0.8;" x="364.807547" xlink:href="#m0449cbfa0c" y="384.48"/>
      </g>
     </g>
     <g id="text_5">
      <!-- 2880 -->
      <g transform="translate(352.082547 399.078438)scale(0.1 -0.1)">
       <defs>
        <path d="M 31.78125 34.625 
Q 24.75 34.625 20.71875 30.859375 
Q 16.703125 27.09375 16.703125 20.515625 
Q 16.703125 13.921875 20.71875 10.15625 
Q 24.75 6.390625 31.78125 6.390625 
Q 38.8125 6.390625 42.859375 10.171875 
Q 46.921875 13.96875 46.921875 20.515625 
Q 46.921875 27.09375 42.890625 30.859375 
Q 38.875 34.625 31.78125 34.625 
z
M 21.921875 38.8125 
Q 15.578125 40.375 12.03125 44.71875 
Q 8.5 49.078125 8.5 55.328125 
Q 8.5 64.0625 14.71875 69.140625 
Q 20.953125 74.21875 31.78125 74.21875 
Q 42.671875 74.21875 48.875 69.140625 
Q 55.078125 64.0625 55.078125 55.328125 
Q 55.078125 49.078125 51.53125 44.71875 
Q 48 40.375 41.703125 38.8125 
Q 48.828125 37.15625 52.796875 32.3125 
Q 56.78125 27.484375 56.78125 20.515625 
Q 56.78125 9.90625 50.3125 4.234375 
Q 43.84375 -1.421875 31.78125 -1.421875 
Q 19.734375 -1.421875 13.25 4.234375 
Q 6.78125 9.90625 6.78125 20.515625 
Q 6.78125 27.484375 10.78125 32.3125 
Q 14.796875 37.15625 21.921875 38.8125 
z
M 18.3125 54.390625 
Q 18.3125 48.734375 21.84375 45.5625 
Q 25.390625 42.390625 31.78125 42.390625 
Q 38.140625 42.390625 41.71875 45.5625 
Q 45.3125 48.734375 45.3125 54.390625 
Q 45.3125 60.0625 41.71875 63.234375 
Q 38.140625 66.40625 31.78125 66.40625 
Q 25.390625 66.40625 21.84375 63.234375 
Q 18.3125 60.0625 18.3125 54.390625 
z
" id="DejaVuSans-56"/>
       </defs>
       <use xlink:href="#DejaVuSans-50"/>
       <use x="63.623047" xlink:href="#DejaVuSans-56"/>
       <use x="127.246094" xlink:href="#DejaVuSans-56"/>
       <use x="190.869141" xlink:href="#DejaVuSans-48"/>
      </g>
     </g>
    </g>
    <g id="text_6">
     <!-- time [ms] -->
     <g transform="translate(234.038281 412.756563)scale(0.1 -0.1)">
      <defs>
       <path d="M 18.3125 70.21875 
L 18.3125 54.6875 
L 36.8125 54.6875 
L 36.8125 47.703125 
L 18.3125 47.703125 
L 18.3125 18.015625 
Q 18.3125 11.328125 20.140625 9.421875 
Q 21.96875 7.515625 27.59375 7.515625 
L 36.8125 7.515625 
L 36.8125 0 
L 27.59375 0 
Q 17.1875 0 13.234375 3.875 
Q 9.28125 7.765625 9.28125 18.015625 
L 9.28125 47.703125 
L 2.6875 47.703125 
L 2.6875 54.6875 
L 9.28125 54.6875 
L 9.28125 70.21875 
z
" id="DejaVuSans-116"/>
       <path d="M 9.421875 54.6875 
L 18.40625 54.6875 
L 18.40625 0 
L 9.421875 0 
z
M 9.421875 75.984375 
L 18.40625 75.984375 
L 18.40625 64.59375 
L 9.421875 64.59375 
z
" id="DejaVuSans-105"/>
       <path d="M 52 44.1875 
Q 55.375 50.25 60.0625 53.125 
Q 64.75 56 71.09375 56 
Q 79.640625 56 84.28125 50.015625 
Q 88.921875 44.046875 88.921875 33.015625 
L 88.921875 0 
L 79.890625 0 
L 79.890625 32.71875 
Q 79.890625 40.578125 77.09375 44.375 
Q 74.3125 48.1875 68.609375 48.1875 
Q 61.625 48.1875 57.5625 43.546875 
Q 53.515625 38.921875 53.515625 30.90625 
L 53.515625 0 
L 44.484375 0 
L 44.484375 32.71875 
Q 44.484375 40.625 41.703125 44.40625 
Q 38.921875 48.1875 33.109375 48.1875 
Q 26.21875 48.1875 22.15625 43.53125 
Q 18.109375 38.875 18.109375 30.90625 
L 18.109375 0 
L 9.078125 0 
L 9.078125 54.6875 
L 18.109375 54.6875 
L 18.109375 46.1875 
Q 21.1875 51.21875 25.484375 53.609375 
Q 29.78125 56 35.6875 56 
Q 41.65625 56 45.828125 52.96875 
Q 50 49.953125 52 44.1875 
z
" id="DejaVuSans-109"/>
       <path d="M 56.203125 29.59375 
L 56.203125 25.203125 
L 14.890625 25.203125 
Q 15.484375 15.921875 20.484375 11.0625 
Q 25.484375 6.203125 34.421875 6.203125 
Q 39.59375 6.203125 44.453125 7.46875 
Q 49.3125 8.734375 54.109375 11.28125 
L 54.109375 2.78125 
Q 49.265625 0.734375 44.1875 -0.34375 
Q 39.109375 -1.421875 33.890625 -1.421875 
Q 20.796875 -1.421875 13.15625 6.1875 
Q 5.515625 13.8125 5.515625 26.8125 
Q 5.515625 40.234375 12.765625 48.109375 
Q 20.015625 56 32.328125 56 
Q 43.359375 56 49.78125 48.890625 
Q 56.203125 41.796875 56.203125 29.59375 
z
M 47.21875 32.234375 
Q 47.125 39.59375 43.09375 43.984375 
Q 39.0625 48.390625 32.421875 48.390625 
Q 24.90625 48.390625 20.390625 44.140625 
Q 15.875 39.890625 15.1875 32.171875 
z
" id="DejaVuSans-101"/>
       <path id="DejaVuSans-32"/>
       <path d="M 8.59375 75.984375 
L 29.296875 75.984375 
L 29.296875 69 
L 17.578125 69 
L 17.578125 -6.203125 
L 29.296875 -6.203125 
L 29.296875 -13.1875 
L 8.59375 -13.1875 
z
" id="DejaVuSans-91"/>
       <path d="M 44.28125 53.078125 
L 44.28125 44.578125 
Q 40.484375 46.53125 36.375 47.5 
Q 32.28125 48.484375 27.875 48.484375 
Q 21.1875 48.484375 17.84375 46.4375 
Q 14.5 44.390625 14.5 40.28125 
Q 14.5 37.15625 16.890625 35.375 
Q 19.28125 33.59375 26.515625 31.984375 
L 29.59375 31.296875 
Q 39.15625 29.25 43.1875 25.515625 
Q 47.21875 21.78125 47.21875 15.09375 
Q 47.21875 7.46875 41.1875 3.015625 
Q 35.15625 -1.421875 24.609375 -1.421875 
Q 20.21875 -1.421875 15.453125 -0.5625 
Q 10.6875 0.296875 5.421875 2 
L 5.421875 11.28125 
Q 10.40625 8.6875 15.234375 7.390625 
Q 20.0625 6.109375 24.8125 6.109375 
Q 31.15625 6.109375 34.5625 8.28125 
Q 37.984375 10.453125 37.984375 14.40625 
Q 37.984375 18.0625 35.515625 20.015625 
Q 33.0625 21.96875 24.703125 23.78125 
L 21.578125 24.515625 
Q 13.234375 26.265625 9.515625 29.90625 
Q 5.8125 33.546875 5.8125 39.890625 
Q 5.8125 47.609375 11.28125 51.796875 
Q 16.75 56 26.8125 56 
Q 31.78125 56 36.171875 55.265625 
Q 40.578125 54.546875 44.28125 53.078125 
z
" id="DejaVuSans-115"/>
       <path d="M 30.421875 75.984375 
L 30.421875 -13.1875 
L 9.71875 -13.1875 
L 9.71875 -6.203125 
L 21.390625 -6.203125 
L 21.390625 69 
L 9.71875 69 
L 9.71875 75.984375 
z
" id="DejaVuSans-93"/>
      </defs>
      <use xlink:href="#DejaVuSans-116"/>
      <use x="39.208984" xlink:href="#DejaVuSans-105"/>
      <use x="66.992188" xlink:href="#DejaVuSans-109"/>
      <use x="164.404297" xlink:href="#DejaVuSans-101"/>
      <use x="225.927734" xlink:href="#DejaVuSans-32"/>
      <use x="257.714844" xlink:href="#DejaVuSans-91"/>
      <use x="296.728516" xlink:href="#DejaVuSans-109"/>
      <use x="394.140625" xlink:href="#DejaVuSans-115"/>
      <use x="446.240234" xlink:href="#DejaVuSans-93"/>
     </g>
    </g>
   </g>
   <g id="matplotlib.axis_2">
    <g id="ytick_1">
     <g id="line2d_6">
      <defs>
       <path d="M 0 0 
L -3.5 0 
" id="m4849bfe818" style="stroke:#000000;stroke-width:0.8;"/>
      </defs>
      <g>
       <use style="stroke:#000000;stroke-width:0.8;" x="63" xlink:href="#m4849bfe818" y="380.794448"/>
      </g>
     </g>
     <g id="text_7">
      <!-- −80 -->
      <g transform="translate(34.895313 384.593667)scale(0.1 -0.1)">
       <defs>
        <path d="M 10.59375 35.5 
L 73.1875 35.5 
L 73.1875 27.203125 
L 10.59375 27.203125 
z
" id="DejaVuSans-8722"/>
       </defs>
       <use xlink:href="#DejaVuSans-8722"/>
       <use x="83.789062" xlink:href="#DejaVuSans-56"/>
       <use x="147.412109" xlink:href="#DejaVuSans-48"/>
      </g>
     </g>
    </g>
    <g id="ytick_2">
     <g id="line2d_7">
      <g>
       <use style="stroke:#000000;stroke-width:0.8;" x="63" xlink:href="#m4849bfe818" y="329.688794"/>
      </g>
     </g>
     <g id="text_8">
      <!-- −60 -->
      <g transform="translate(34.895313 333.488012)scale(0.1 -0.1)">
       <use xlink:href="#DejaVuSans-8722"/>
       <use x="83.789062" xlink:href="#DejaVuSans-54"/>
       <use x="147.412109" xlink:href="#DejaVuSans-48"/>
      </g>
     </g>
    </g>
    <g id="ytick_3">
     <g id="line2d_8">
      <g>
       <use style="stroke:#000000;stroke-width:0.8;" x="63" xlink:href="#m4849bfe818" y="278.583139"/>
      </g>
     </g>
     <g id="text_9">
      <!-- −40 -->
      <g transform="translate(34.895313 282.382358)scale(0.1 -0.1)">
       <use xlink:href="#DejaVuSans-8722"/>
       <use x="83.789062" xlink:href="#DejaVuSans-52"/>
       <use x="147.412109" xlink:href="#DejaVuSans-48"/>
      </g>
     </g>
    </g>
    <g id="ytick_4">
     <g id="line2d_9">
      <g>
       <use style="stroke:#000000;stroke-width:0.8;" x="63" xlink:href="#m4849bfe818" y="227.477485"/>
      </g>
     </g>
     <g id="text_10">
      <!-- −20 -->
      <g transform="translate(34.895313 231.276704)scale(0.1 -0.1)">
       <use xlink:href="#DejaVuSans-8722"/>
       <use x="83.789062" xlink:href="#DejaVuSans-50"/>
       <use x="147.412109" xlink:href="#DejaVuSans-48"/>
      </g>
     </g>
    </g>
    <g id="ytick_5">
     <g id="line2d_10">
      <g>
       <use style="stroke:#000000;stroke-width:0.8;" x="63" xlink:href="#m4849bfe818" y="176.371831"/>
      </g>
     </g>
     <g id="text_11">
      <!-- 0 -->
      <g transform="translate(49.6375 180.17105)scale(0.1 -0.1)">
       <use xlink:href="#DejaVuSans-48"/>
      </g>
     </g>
    </g>
    <g id="ytick_6">
     <g id="line2d_11">
      <g>
       <use style="stroke:#000000;stroke-width:0.8;" x="63" xlink:href="#m4849bfe818" y="125.266176"/>
      </g>
     </g>
     <g id="text_12">
      <!-- 20 -->
      <g transform="translate(43.275 129.065395)scale(0.1 -0.1)">
       <use xlink:href="#DejaVuSans-50"/>
       <use x="63.623047" xlink:href="#DejaVuSans-48"/>
      </g>
     </g>
    </g>
    <g id="ytick_7">
     <g id="line2d_12">
      <g>
       <use style="stroke:#000000;stroke-width:0.8;" x="63" xlink:href="#m4849bfe818" y="74.160522"/>
      </g>
     </g>
     <g id="text_13">
      <!-- 40 -->
      <g transform="translate(43.275 77.959741)scale(0.1 -0.1)">
       <use xlink:href="#DejaVuSans-52"/>
       <use x="63.623047" xlink:href="#DejaVuSans-48"/>
      </g>
     </g>
    </g>
    <g id="text_14">
     <!-- Voltage [mV] -->
     <g transform="translate(28.815625 250.6975)rotate(-90)scale(0.1 -0.1)">
      <defs>
       <path d="M 28.609375 0 
L 0.78125 72.90625 
L 11.078125 72.90625 
L 34.1875 11.53125 
L 57.328125 72.90625 
L 67.578125 72.90625 
L 39.796875 0 
z
" id="DejaVuSans-86"/>
       <path d="M 30.609375 48.390625 
Q 23.390625 48.390625 19.1875 42.75 
Q 14.984375 37.109375 14.984375 27.296875 
Q 14.984375 17.484375 19.15625 11.84375 
Q 23.34375 6.203125 30.609375 6.203125 
Q 37.796875 6.203125 41.984375 11.859375 
Q 46.1875 17.53125 46.1875 27.296875 
Q 46.1875 37.015625 41.984375 42.703125 
Q 37.796875 48.390625 30.609375 48.390625 
z
M 30.609375 56 
Q 42.328125 56 49.015625 48.375 
Q 55.71875 40.765625 55.71875 27.296875 
Q 55.71875 13.875 49.015625 6.21875 
Q 42.328125 -1.421875 30.609375 -1.421875 
Q 18.84375 -1.421875 12.171875 6.21875 
Q 5.515625 13.875 5.515625 27.296875 
Q 5.515625 40.765625 12.171875 48.375 
Q 18.84375 56 30.609375 56 
z
" id="DejaVuSans-111"/>
       <path d="M 9.421875 75.984375 
L 18.40625 75.984375 
L 18.40625 0 
L 9.421875 0 
z
" id="DejaVuSans-108"/>
       <path d="M 34.28125 27.484375 
Q 23.390625 27.484375 19.1875 25 
Q 14.984375 22.515625 14.984375 16.5 
Q 14.984375 11.71875 18.140625 8.90625 
Q 21.296875 6.109375 26.703125 6.109375 
Q 34.1875 6.109375 38.703125 11.40625 
Q 43.21875 16.703125 43.21875 25.484375 
L 43.21875 27.484375 
z
M 52.203125 31.203125 
L 52.203125 0 
L 43.21875 0 
L 43.21875 8.296875 
Q 40.140625 3.328125 35.546875 0.953125 
Q 30.953125 -1.421875 24.3125 -1.421875 
Q 15.921875 -1.421875 10.953125 3.296875 
Q 6 8.015625 6 15.921875 
Q 6 25.140625 12.171875 29.828125 
Q 18.359375 34.515625 30.609375 34.515625 
L 43.21875 34.515625 
L 43.21875 35.40625 
Q 43.21875 41.609375 39.140625 45 
Q 35.0625 48.390625 27.6875 48.390625 
Q 23 48.390625 18.546875 47.265625 
Q 14.109375 46.140625 10.015625 43.890625 
L 10.015625 52.203125 
Q 14.9375 54.109375 19.578125 55.046875 
Q 24.21875 56 28.609375 56 
Q 40.484375 56 46.34375 49.84375 
Q 52.203125 43.703125 52.203125 31.203125 
z
" id="DejaVuSans-97"/>
       <path d="M 45.40625 27.984375 
Q 45.40625 37.75 41.375 43.109375 
Q 37.359375 48.484375 30.078125 48.484375 
Q 22.859375 48.484375 18.828125 43.109375 
Q 14.796875 37.75 14.796875 27.984375 
Q 14.796875 18.265625 18.828125 12.890625 
Q 22.859375 7.515625 30.078125 7.515625 
Q 37.359375 7.515625 41.375 12.890625 
Q 45.40625 18.265625 45.40625 27.984375 
z
M 54.390625 6.78125 
Q 54.390625 -7.171875 48.1875 -13.984375 
Q 42 -20.796875 29.203125 -20.796875 
Q 24.46875 -20.796875 20.265625 -20.09375 
Q 16.0625 -19.390625 12.109375 -17.921875 
L 12.109375 -9.1875 
Q 16.0625 -11.328125 19.921875 -12.34375 
Q 23.78125 -13.375 27.78125 -13.375 
Q 36.625 -13.375 41.015625 -8.765625 
Q 45.40625 -4.15625 45.40625 5.171875 
L 45.40625 9.625 
Q 42.625 4.78125 38.28125 2.390625 
Q 33.9375 0 27.875 0 
Q 17.828125 0 11.671875 7.65625 
Q 5.515625 15.328125 5.515625 27.984375 
Q 5.515625 40.671875 11.671875 48.328125 
Q 17.828125 56 27.875 56 
Q 33.9375 56 38.28125 53.609375 
Q 42.625 51.21875 45.40625 46.390625 
L 45.40625 54.6875 
L 54.390625 54.6875 
z
" id="DejaVuSans-103"/>
      </defs>
      <use xlink:href="#DejaVuSans-86"/>
      <use x="60.658203" xlink:href="#DejaVuSans-111"/>
      <use x="121.839844" xlink:href="#DejaVuSans-108"/>
      <use x="149.623047" xlink:href="#DejaVuSans-116"/>
      <use x="188.832031" xlink:href="#DejaVuSans-97"/>
      <use x="250.111328" xlink:href="#DejaVuSans-103"/>
      <use x="313.587891" xlink:href="#DejaVuSans-101"/>
      <use x="375.111328" xlink:href="#DejaVuSans-32"/>
      <use x="406.898438" xlink:href="#DejaVuSans-91"/>
      <use x="445.912109" xlink:href="#DejaVuSans-109"/>
      <use x="543.324219" xlink:href="#DejaVuSans-86"/>
      <use x="611.732422" xlink:href="#DejaVuSans-93"/>
     </g>
    </g>
   </g>
   <g id="line2d_13">
    <path clip-path="url(#p9d8ad33e47)" d="M 80.754545 342.465207 
L 81.134269 340.729353 
L 81.513993 339.931728 
L 81.928237 339.548222 
L 82.455905 339.370898 
L 83.299187 339.349774 
L 85.197805 339.580701 
L 87.974226 339.842805 
L 92.308993 339.97807 
L 100.480448 340.037537 
L 100.633324 354.299273 
L 100.924281 361.93599 
L 101.284279 366.230598 
L 101.649208 368.246892 
L 101.994411 369.073366 
L 102.314957 369.337063 
L 102.650298 369.330078 
L 103.143445 369.065474 
L 106.181234 367.072611 
L 107.586705 366.587962 
L 109.347242 366.226693 
L 111.778459 365.970596 
L 115.654599 365.810503 
L 124.07756 365.73388 
L 130.069303 365.723669 
L 130.222178 351.201617 
L 130.522998 342.777631 
L 130.892859 338.012468 
L 131.154227 335.477493 
L 131.169022 325.76604 
L 131.208474 67.864941 
L 131.282446 268.184681 
L 131.405733 345.526194 
L 131.553677 358.723246 
L 131.63258 359.087948 
L 131.686827 358.963337 
L 131.839702 357.885438 
L 132.1997 353.419868 
L 132.988736 343.798334 
L 133.432569 340.989745 
L 133.841882 339.677389 
L 134.2364 339.084424 
L 134.655575 338.836585 
L 135.188174 338.792948 
L 136.149812 338.9793 
L 139.010068 339.583206 
L 139.932254 339.704215 
L 139.937186 342.465207 
L 140.045678 341.833627 
L 140.42047 340.446479 
L 140.805125 339.797465 
L 141.239095 339.483426 
L 141.825941 339.348622 
L 142.82703 339.378317 
L 149.533837 339.936845 
L 157.034612 340.028393 
L 159.663088 340.037537 
L 159.815964 337.172479 
L 160.111853 335.60136 
L 160.560617 334.434928 
L 160.748013 333.734047 
L 160.767739 332.333031 
L 160.797328 248.233204 
L 160.817054 69.55148 
L 160.900889 314.007407 
L 160.960067 307.265576 
L 161.03897 351.240384 
L 161.191846 357.643687 
L 161.226366 357.69203 
L 161.275681 357.565194 
L 161.428557 356.397732 
L 161.798417 351.471074 
L 162.557865 341.684467 
L 163.001697 338.686974 
L 163.420873 337.22128 
L 163.84498 336.483984 
L 164.318401 336.094135 
L 164.959493 335.87209 
L 166.157842 335.735055 
L 170.186858 335.587593 
L 178.363244 335.505172 
L 189.251943 335.484199 
L 189.404818 338.338074 
L 189.690844 339.806091 
L 190.050842 340.60017 
L 190.440428 340.959164 
L 190.918782 341.091556 
L 191.717681 341.046496 
L 197.319837 340.393863 
L 199.114894 340.304108 
L 199.119826 342.465207 
L 199.228318 341.833627 
L 199.60311 340.446479 
L 199.987765 339.797465 
L 200.421735 339.483426 
L 201.008581 339.348622 
L 202.00967 339.378317 
L 208.716477 339.936845 
L 216.217252 340.028393 
L 218.845729 340.037537 
L 218.998604 334.290987 
L 219.309287 330.845021 
L 219.511478 328.348843 
L 219.526272 310.461035 
L 219.560792 67.004435 
L 219.639696 282.042786 
L 219.762983 343.874757 
L 219.910927 355.240716 
L 219.955311 355.382598 
L 220.014488 355.198867 
L 220.182158 353.629947 
L 220.591471 347.219211 
L 221.276946 337.286751 
L 221.72571 333.820071 
L 222.149817 332.108385 
L 222.583787 331.209271 
L 223.067072 330.701261 
L 223.737752 330.342631 
L 224.467611 329.918951 
L 224.635281 329.530298 
L 224.689527 328.696275 
L 224.704322 308.760951 
L 224.738842 68.848877 
L 224.817746 285.040754 
L 224.941033 345.006962 
L 225.088977 355.405062 
L 225.128429 355.52477 
L 225.187606 355.353818 
L 225.350345 353.879287 
L 225.754726 347.73582 
L 226.430338 338.258286 
L 226.874171 334.946417 
L 227.293346 333.333889 
L 227.717453 332.514048 
L 228.190875 332.063895 
L 228.827035 331.781391 
L 229.966206 331.557152 
L 233.073036 331.235234 
L 237.314105 330.76011 
L 237.669171 330.5094 
L 237.802321 330.123178 
L 237.826979 329.702095 
L 237.841773 320.586208 
L 237.881225 70.920387 
L 237.955197 272.543937 
L 238.078484 343.928993 
L 238.226428 355.317387 
L 238.275743 355.477554 
L 238.334921 355.293404 
L 238.502591 353.761945 
L 238.921766 347.397951 
L 239.572721 338.456011 
L 240.016554 335.200063 
L 240.435729 333.612732 
L 240.864768 332.792217 
L 241.348052 332.331721 
L 242.00887 332.026449 
L 243.207219 331.757113 
L 246.032954 331.392569 
L 248.434583 331.1737 
L 248.587459 336.875628 
L 248.868553 339.704347 
L 249.208825 341.148347 
L 249.558959 341.773595 
L 249.92882 342.00642 
L 250.407173 342.028598 
L 251.344153 341.799989 
L 254.1403 341.087231 
L 256.689873 340.701717 
L 258.297534 340.54781 
L 258.302466 342.465207 
L 258.410958 341.833627 
L 258.78575 340.446479 
L 259.170405 339.797465 
L 259.604375 339.483426 
L 260.191221 339.348622 
L 261.192311 339.378317 
L 267.899117 339.936845 
L 275.399892 340.028393 
L 278.028369 340.037537 
L 278.181244 331.381201 
L 278.496859 322.943199 
L 278.521516 246.523339 
L 278.536311 68.752055 
L 278.625077 311.674185 
L 278.689186 303.847971 
L 278.758227 346.163385 
L 278.906171 353.216282 
L 278.920966 353.228414 
L 278.960418 353.120527 
L 279.098499 351.868595 
L 279.438771 346.319684 
L 280.277122 332.507593 
L 280.735749 328.646058 
L 281.243691 326.192005 
L 281.618483 324.250846 
L 281.682592 322.730755 
L 281.697387 312.035914 
L 281.731907 68.515432 
L 281.81081 278.924308 
L 281.934097 344.918638 
L 282.082042 353.762567 
L 282.101768 353.78575 
L 282.146151 353.648269 
L 282.294095 352.240025 
L 282.663956 346.167461 
L 283.428335 333.941528 
L 283.877099 330.231739 
L 284.311069 328.329168 
L 284.769696 327.251446 
L 285.322021 326.519817 
L 286.115989 325.522758 
L 286.259002 324.876201 
L 286.308316 323.85438 
L 286.323111 314.895419 
L 286.357631 71.387746 
L 286.436535 276.119759 
L 286.559822 343.372323 
L 286.707766 353.419388 
L 286.737355 353.478031 
L 286.791601 353.292187 
L 286.95434 351.656903 
L 287.363652 344.82286 
L 288.029401 334.651017 
L 288.473234 331.052558 
L 288.902273 329.231883 
L 289.341174 328.261704 
L 289.839253 327.682481 
L 290.495139 327.274694 
L 292.640331 326.150935 
L 292.798138 325.636071 
L 292.857316 324.742183 
L 292.872111 318.00841 
L 292.911562 72.043213 
L 292.985534 271.052582 
L 293.108821 342.171395 
L 293.256766 353.214249 
L 293.291286 353.308484 
L 293.350464 353.111524 
L 293.518134 351.418527 
L 293.942241 344.351458 
L 294.578401 334.847522 
L 295.022234 331.300705 
L 295.446341 329.523359 
L 295.890174 328.55307 
L 296.393184 327.974124 
L 297.063865 327.556639 
L 298.454541 327.021664 
L 299.248509 326.596979 
L 299.51974 326.210813 
L 299.643027 325.625137 
L 299.682478 323.964038 
L 299.712067 232.479203 
L 299.726862 73.011332 
L 299.815628 313.295819 
L 299.869875 304.271702 
L 299.993161 351.269355 
L 300.106585 353.185889 
L 300.141106 353.118263 
L 300.259461 352.199704 
L 300.565213 347.702724 
L 301.447947 334.310755 
L 301.886848 331.081451 
L 302.315887 329.429409 
L 302.764651 328.528114 
L 303.282456 327.977202 
L 303.99752 327.560786 
L 306.231478 326.441149 
L 306.40408 325.981637 
L 306.478052 325.051792 
L 306.492846 318.219968 
L 306.532298 73.296185 
L 306.60627 274.618982 
L 306.729557 341.897497 
L 306.877502 353.05668 
L 306.916953 353.16622 
L 306.9712 352.991129 
L 307.133938 351.404353 
L 307.538319 344.778045 
L 307.617223 343.366702 
L 307.627086 344.795136 
L 307.779962 348.551606 
L 307.834208 348.617683 
L 307.888454 348.546153 
L 308.080782 347.858692 
L 308.869818 344.914884 
L 309.358034 343.993431 
L 309.935017 343.37984 
L 310.788162 342.823327 
L 312.233084 342.168799 
L 314.15636 341.54295 
L 316.419907 341.045368 
L 317.480174 340.877849 
L 317.485106 342.465207 
L 317.593598 341.833627 
L 317.96839 340.446479 
L 318.353046 339.797465 
L 318.787015 339.483426 
L 319.373861 339.348622 
L 320.374951 339.378317 
L 327.081758 339.936845 
L 334.582532 340.028393 
L 337.211009 340.037537 
L 337.363884 328.421129 
L 337.551281 320.245281 
L 337.575938 246.407699 
L 337.590732 68.6309 
L 337.679499 311.378744 
L 337.743608 302.478602 
L 337.812649 344.26042 
L 337.960593 351.023853 
L 338.004976 350.878264 
L 338.152921 349.283329 
L 338.522781 342.402948 
L 339.292091 328.427911 
L 339.913457 321.873445 
L 340.046607 319.0152 
L 340.071265 313.83454 
L 340.105785 70.392608 
L 340.18962 291.86732 
L 340.312907 344.567438 
L 340.45592 351.986603 
L 340.475646 351.969462 
L 340.495372 351.896727 
L 340.62359 350.685079 
L 340.953999 345.055649 
L 341.856459 329.147789 
L 342.334812 324.899174 
L 342.936452 320.084764 
L 342.980835 315.898438 
L 343.010424 140.945941 
L 343.020287 69.954045 
L 343.104122 304.760094 
L 343.237272 346.632003 
L 343.375353 351.819734 
L 343.385216 351.809836 
L 343.454257 351.423117 
L 343.66631 348.643748 
L 344.356717 335.455879 
L 344.854796 328.812191 
L 345.313423 325.428917 
L 345.9052 322.786108 
L 346.191226 321.101719 
L 346.275061 318.955212 
L 346.289856 311.935401 
L 346.324376 71.969351 
L 346.403279 279.928418 
L 346.526566 342.549565 
L 346.674511 351.598803 
L 346.689305 351.614763 
L 346.733688 351.476178 
L 346.881633 349.988406 
L 347.251493 343.547143 
L 347.996146 330.984696 
L 348.449842 326.984707 
L 348.918332 324.696271 
L 349.889833 320.68907 
L 349.934216 318.729186 
L 349.94901 291.320996 
L 349.978599 73.543055 
L 350.057503 280.520954 
L 350.18079 342.043312 
L 350.328734 351.437554 
L 350.34846 351.462686 
L 350.392843 351.320328 
L 350.540788 349.839876 
L 350.910648 343.436932 
L 351.640507 331.267825 
L 352.094202 327.304306 
L 352.55283 325.107639 
L 353.115018 323.500352 
L 353.632823 321.941918 
L 353.765973 320.658317 
L 353.800493 318.845245 
L 353.820219 273.170116 
L 353.844876 74.011033 
L 353.92378 284.397222 
L 354.047067 342.170775 
L 354.195011 351.331293 
L 354.214737 351.35387 
L 354.25912 351.207439 
L 354.407065 349.717073 
L 354.781857 343.219916 
L 355.496921 331.405805 
L 355.950616 327.463066 
L 356.409244 325.287885 
L 356.951706 323.777499 
L 357.587866 322.044287 
L 357.721016 320.856985 
L 357.760468 318.807868 
L 357.785125 254.899948 
L 357.804851 74.057602 
L 357.883755 288.795893 
L 358.007042 342.157267 
L 358.154986 351.217744 
L 358.174712 351.241909 
L 358.219095 351.099082 
L 358.36704 349.616969 
L 358.741832 343.142244 
L 359.451964 331.474885 
L 359.90566 327.541708 
L 360.364287 325.374647 
L 360.901818 323.893115 
L 361.592225 322.065885 
L 361.720443 320.904457 
L 361.759895 318.64169 
L 361.784552 249.848462 
L 361.804278 74.32001 
L 361.883182 293.604856 
L 362.0114 343.183809 
L 362.159344 351.132513 
L 362.17907 351.147793 
L 362.218522 351.022615 
L 362.361535 349.642765 
L 362.721533 343.535991 
L 363.461254 331.396121 
L 363.910018 327.545498 
L 364.368645 325.393966 
L 364.906176 323.924022 
L 365.606446 322.08441 
L 365.734664 320.897046 
L 365.774116 317.789499 
L 365.803705 181.927113 
L 365.818499 76.831676 
L 365.902334 309.818585 
L 365.956581 302.949844 
L 366.070005 348.907282 
L 366.18836 351.189055 
L 366.217949 351.125096 
L 366.331373 350.216105 
L 366.62233 345.731809 
L 366.799863 342.344124 
L 366.809726 344.283697 
L 366.962602 349.524334 
L 367.046437 349.71619 
L 367.095752 349.660269 
L 367.263422 349.089963 
L 368.215197 345.448128 
L 368.718207 344.542637 
L 369.339573 343.887917 
L 370.306142 343.221272 
L 371.8349 342.450145 
L 373.689135 341.764251 
L 375.824464 341.21653 
L 376.662814 341.055627 
L 376.667746 342.465207 
L 376.776238 341.833627 
L 377.151031 340.446479 
L 377.535686 339.797465 
L 377.969656 339.483426 
L 378.556501 339.348622 
L 379.557591 339.378317 
L 386.264398 339.936845 
L 393.765172 340.028393 
L 396.393649 340.037537 
L 396.546525 325.367035 
L 396.655017 317.312783 
L 396.679674 225.227919 
L 396.694469 66.96 
L 396.783235 315.505795 
L 396.847345 301.179845 
L 396.941043 346.053662 
L 397.049535 348.977521 
L 397.084055 348.883359 
L 397.207342 347.589668 
L 397.53282 341.391371 
L 398.474732 322.767433 
L 398.760757 317.113803 
L 398.790346 313.114057 
L 398.815003 214.692588 
L 398.829798 68.576482 
L 398.918564 314.896228 
L 398.972811 306.528213 
L 399.076372 348.652396 
L 399.165138 350.351538 
L 399.214453 350.160945 
L 399.377192 348.198792 
L 399.77171 340.340749 
L 400.536088 325.537652 
L 401.122934 316.068142 
L 401.14266 308.677329 
L 401.17718 69.907838 
L 401.256084 284.692287 
L 401.379371 342.995419 
L 401.517452 350.163092 
L 401.522384 350.162018 
L 401.571698 349.948914 
L 401.7443 347.839969 
L 402.158544 339.581134 
L 402.853882 326.603811 
L 403.455522 320.015014 
L 403.603466 317.076621 
L 403.633055 313.009746 
L 403.657713 217.314478 
L 403.672507 71.320739 
L 403.761274 313.796975 
L 403.81552 305.32456 
L 403.938807 349.047639 
L 404.012779 350.016111 
L 404.071956 349.772224 
L 404.24949 347.555987 
L 404.693322 338.675693 
L 405.334414 327.154648 
L 405.847288 321.908393 
L 406.18756 318.064951 
L 406.241806 313.955089 
L 406.266463 236.576271 
L 406.281258 73.943575 
L 406.370024 310.776008 
L 406.42427 304.166391 
L 406.5229 347.257168 
L 406.631392 349.834592 
L 406.665913 349.74454 
L 406.794131 348.492571 
L 407.12454 342.644809 
L 407.997411 326.832983 
L 408.505353 322.05411 
L 408.880145 318.346532 
L 408.939323 315.303247 
L 408.954117 294.551204 
L 408.988638 75.548448 
L 409.06261 279.594218 
L 409.185897 341.319162 
L 409.32891 349.716806 
L 409.343704 349.719714 
L 409.373293 349.624279 
L 409.501511 348.370796 
L 409.83192 342.547431 
L 410.689997 327.131725 
L 411.183144 322.541952 
L 411.646703 318.290411 
L 411.705881 314.390439 
L 411.730538 243.490306 
L 411.750264 74.906708 
L 411.834099 308.599744 
L 411.888346 303.504309 
L 411.982044 346.401162 
L 412.100399 349.616054 
L 412.125056 349.569719 
L 412.228617 348.720755 
L 412.509711 344.183584 
L 413.545321 326.175898 
L 414.058195 321.913696 
L 414.432987 318.593483 
L 414.502028 315.340224 
L 414.516822 291.774917 
L 414.546411 76.225832 
L 414.625315 283.67817 
L 414.748601 341.149591 
L 414.891614 349.597909 
L 414.906409 349.60843 
L 414.94586 349.47689 
L 415.088873 347.997234 
L 415.443939 341.565085 
L 416.218181 327.732178 
L 416.701466 323.14377 
L 417.278448 318.131834 
L 417.327763 314.74064 
L 417.347489 266.516596 
L 417.372147 74.959951 
L 417.446119 272.215274 
L 417.569406 340.625617 
L 417.712418 349.507777 
L 417.727213 349.52088 
L 417.766665 349.392036 
L 417.909677 347.905115 
L 418.269675 341.364201 
L 419.029122 327.856079 
L 419.512407 323.263938 
L 420.118978 317.995057 
L 420.163362 314.575749 
L 420.188019 245.470705 
L 420.207745 75.619709 
L 420.29158 307.577128 
L 420.350758 302.992942 
L 420.444456 346.555168 
L 420.562811 349.456957 
L 420.587469 349.405642 
L 420.69103 348.559384 
L 420.972124 344.049768 
L 421.992939 326.416995 
L 422.49595 322.271157 
L 422.934851 318.635489 
L 423.003892 315.411653 
L 423.018686 291.606108 
L 423.048275 77.570849 
L 423.127179 284.339343 
L 423.250466 340.900366 
L 423.393478 349.467995 
L 423.408273 349.484905 
L 423.452656 349.341425 
L 423.6006 347.794188 
L 423.960598 341.248379 
L 424.715114 327.864845 
L 425.198398 323.292264 
L 425.809901 318.067723 
L 425.854285 315.083471 
L 425.874011 269.489292 
L 425.898668 75.866879 
L 425.977572 291.396859 
L 426.10579 349.795716 
L 426.258666 359.565183 
L 426.362227 360.028523 
L 426.40661 359.970683 
L 426.534828 359.364554 
L 426.835648 356.614925 
L 427.703588 348.469516 
L 428.162215 346.291837 
L 428.615911 345.129824 
L 429.138648 344.385044 
L 429.868506 343.751704 
L 431.091512 343.012105 
L 432.812597 342.232545 
L 434.790119 341.583448 
L 435.845455 341.320938 
L 435.845455 341.320938 
" style="fill:none;stroke:#ff0000;stroke-linecap:square;stroke-width:1.5;"/>
   </g>
   <g id="patch_3">
    <path d="M 63 384.48 
L 63 51.84 
" style="fill:none;stroke:#000000;stroke-linecap:square;stroke-linejoin:miter;stroke-width:0.8;"/>
   </g>
   <g id="patch_4">
    <path d="M 453.6 384.48 
L 453.6 51.84 
" style="fill:none;stroke:#000000;stroke-linecap:square;stroke-linejoin:miter;stroke-width:0.8;"/>
   </g>
   <g id="patch_5">
    <path d="M 63 384.48 
L 453.6 384.48 
" style="fill:none;stroke:#000000;stroke-linecap:square;stroke-linejoin:miter;stroke-width:0.8;"/>
   </g>
   <g id="patch_6">
    <path d="M 63 51.84 
L 453.6 51.84 
" style="fill:none;stroke:#000000;stroke-linecap:square;stroke-linejoin:miter;stroke-width:0.8;"/>
   </g>
   <g id="legend_1">
    <g id="patch_7">
     <path d="M 383.460938 379.48 
L 446.6 379.48 
Q 448.6 379.48 448.6 377.48 
L 448.6 363.801875 
Q 448.6 361.801875 446.6 361.801875 
L 383.460938 361.801875 
Q 381.460938 361.801875 381.460938 363.801875 
L 381.460938 377.48 
Q 381.460938 379.48 383.460938 379.48 
z
" style="fill:#ffffff;opacity:0.8;stroke:#cccccc;stroke-linejoin:miter;"/>
    </g>
    <g id="line2d_14">
     <path d="M 385.460938 369.900312 
L 405.460938 369.900312 
" style="fill:none;stroke:#ff0000;stroke-linecap:square;stroke-width:1.5;"/>
    </g>
    <g id="line2d_15"/>
    <g id="text_15">
     <!-- model -->
     <g transform="translate(413.460938 373.400312)scale(0.1 -0.1)">
      <defs>
       <path d="M 45.40625 46.390625 
L 45.40625 75.984375 
L 54.390625 75.984375 
L 54.390625 0 
L 45.40625 0 
L 45.40625 8.203125 
Q 42.578125 3.328125 38.25 0.953125 
Q 33.9375 -1.421875 27.875 -1.421875 
Q 17.96875 -1.421875 11.734375 6.484375 
Q 5.515625 14.40625 5.515625 27.296875 
Q 5.515625 40.1875 11.734375 48.09375 
Q 17.96875 56 27.875 56 
Q 33.9375 56 38.25 53.625 
Q 42.578125 51.265625 45.40625 46.390625 
z
M 14.796875 27.296875 
Q 14.796875 17.390625 18.875 11.75 
Q 22.953125 6.109375 30.078125 6.109375 
Q 37.203125 6.109375 41.296875 11.75 
Q 45.40625 17.390625 45.40625 27.296875 
Q 45.40625 37.203125 41.296875 42.84375 
Q 37.203125 48.484375 30.078125 48.484375 
Q 22.953125 48.484375 18.875 42.84375 
Q 14.796875 37.203125 14.796875 27.296875 
z
" id="DejaVuSans-100"/>
      </defs>
      <use xlink:href="#DejaVuSans-109"/>
      <use x="97.412109" xlink:href="#DejaVuSans-111"/>
      <use x="158.59375" xlink:href="#DejaVuSans-100"/>
      <use x="222.070312" xlink:href="#DejaVuSans-101"/>
      <use x="283.59375" xlink:href="#DejaVuSans-108"/>
     </g>
    </g>
   </g>
  </g>
 </g>
 <defs>
  <clipPath id="p9d8ad33e47">
   <rect height="332.64" width="390.6" x="63" y="51.84"/>
  </clipPath>
 </defs>
</svg>
