<?xml version="1.0" encoding="utf-8" standalone="no"?>
<!DOCTYPE svg PUBLIC "-//W3C//DTD SVG 1.1//EN"
  "http://www.w3.org/Graphics/SVG/1.1/DTD/svg11.dtd">
<!-- Created with matplotlib (https://matplotlib.org/) -->
<svg height="432pt" version="1.1" viewBox="0 0 504 432" width="504pt" xmlns="http://www.w3.org/2000/svg" xmlns:xlink="http://www.w3.org/1999/xlink">
 <defs>
  <style type="text/css">
*{stroke-linecap:butt;stroke-linejoin:round;}
  </style>
 </defs>
 <g id="figure_1">
  <g id="patch_1">
   <path d="M 0 432 
L 504 432 
L 504 0 
L 0 0 
z
" style="fill:#ffffff;"/>
  </g>
  <g id="axes_1">
   <g id="patch_2">
    <path d="M 63 384.48 
L 453.6 384.48 
L 453.6 51.84 
L 63 51.84 
z
" style="fill:#ffffff;"/>
   </g>
   <g id="matplotlib.axis_1">
    <g id="xtick_1">
     <g id="line2d_1">
      <defs>
       <path d="M 0 0 
L 0 3.5 
" id="m20c3a391a6" style="stroke:#000000;stroke-width:0.8;"/>
      </defs>
      <g>
       <use style="stroke:#000000;stroke-width:0.8;" x="80.754545" xlink:href="#m20c3a391a6" y="384.48"/>
      </g>
     </g>
     <g id="text_1">
      <!-- 0 -->
      <defs>
       <path d="M 31.78125 66.40625 
Q 24.171875 66.40625 20.328125 58.90625 
Q 16.5 51.421875 16.5 36.375 
Q 16.5 21.390625 20.328125 13.890625 
Q 24.171875 6.390625 31.78125 6.390625 
Q 39.453125 6.390625 43.28125 13.890625 
Q 47.125 21.390625 47.125 36.375 
Q 47.125 51.421875 43.28125 58.90625 
Q 39.453125 66.40625 31.78125 66.40625 
z
M 31.78125 74.21875 
Q 44.046875 74.21875 50.515625 64.515625 
Q 56.984375 54.828125 56.984375 36.375 
Q 56.984375 17.96875 50.515625 8.265625 
Q 44.046875 -1.421875 31.78125 -1.421875 
Q 19.53125 -1.421875 13.0625 8.265625 
Q 6.59375 17.96875 6.59375 36.375 
Q 6.59375 54.828125 13.0625 64.515625 
Q 19.53125 74.21875 31.78125 74.21875 
z
" id="DejaVuSans-48"/>
      </defs>
      <g transform="translate(77.573295 399.078438)scale(0.1 -0.1)">
       <use xlink:href="#DejaVuSans-48"/>
      </g>
     </g>
    </g>
    <g id="xtick_2">
     <g id="line2d_2">
      <g>
       <use style="stroke:#000000;stroke-width:0.8;" x="151.772727" xlink:href="#m20c3a391a6" y="384.48"/>
      </g>
     </g>
     <g id="text_2">
      <!-- 200 -->
      <defs>
       <path d="M 19.1875 8.296875 
L 53.609375 8.296875 
L 53.609375 0 
L 7.328125 0 
L 7.328125 8.296875 
Q 12.9375 14.109375 22.625 23.890625 
Q 32.328125 33.6875 34.8125 36.53125 
Q 39.546875 41.84375 41.421875 45.53125 
Q 43.3125 49.21875 43.3125 52.78125 
Q 43.3125 58.59375 39.234375 62.25 
Q 35.15625 65.921875 28.609375 65.921875 
Q 23.96875 65.921875 18.8125 64.3125 
Q 13.671875 62.703125 7.8125 59.421875 
L 7.8125 69.390625 
Q 13.765625 71.78125 18.9375 73 
Q 24.125 74.21875 28.421875 74.21875 
Q 39.75 74.21875 46.484375 68.546875 
Q 53.21875 62.890625 53.21875 53.421875 
Q 53.21875 48.921875 51.53125 44.890625 
Q 49.859375 40.875 45.40625 35.40625 
Q 44.1875 33.984375 37.640625 27.21875 
Q 31.109375 20.453125 19.1875 8.296875 
z
" id="DejaVuSans-50"/>
      </defs>
      <g transform="translate(142.228977 399.078438)scale(0.1 -0.1)">
       <use xlink:href="#DejaVuSans-50"/>
       <use x="63.623047" xlink:href="#DejaVuSans-48"/>
       <use x="127.246094" xlink:href="#DejaVuSans-48"/>
      </g>
     </g>
    </g>
    <g id="xtick_3">
     <g id="line2d_3">
      <g>
       <use style="stroke:#000000;stroke-width:0.8;" x="222.790909" xlink:href="#m20c3a391a6" y="384.48"/>
      </g>
     </g>
     <g id="text_3">
      <!-- 400 -->
      <defs>
       <path d="M 37.796875 64.3125 
L 12.890625 25.390625 
L 37.796875 25.390625 
z
M 35.203125 72.90625 
L 47.609375 72.90625 
L 47.609375 25.390625 
L 58.015625 25.390625 
L 58.015625 17.1875 
L 47.609375 17.1875 
L 47.609375 0 
L 37.796875 0 
L 37.796875 17.1875 
L 4.890625 17.1875 
L 4.890625 26.703125 
z
" id="DejaVuSans-52"/>
      </defs>
      <g transform="translate(213.247159 399.078438)scale(0.1 -0.1)">
       <use xlink:href="#DejaVuSans-52"/>
       <use x="63.623047" xlink:href="#DejaVuSans-48"/>
       <use x="127.246094" xlink:href="#DejaVuSans-48"/>
      </g>
     </g>
    </g>
    <g id="xtick_4">
     <g id="line2d_4">
      <g>
       <use style="stroke:#000000;stroke-width:0.8;" x="293.809091" xlink:href="#m20c3a391a6" y="384.48"/>
      </g>
     </g>
     <g id="text_4">
      <!-- 600 -->
      <defs>
       <path d="M 33.015625 40.375 
Q 26.375 40.375 22.484375 35.828125 
Q 18.609375 31.296875 18.609375 23.390625 
Q 18.609375 15.53125 22.484375 10.953125 
Q 26.375 6.390625 33.015625 6.390625 
Q 39.65625 6.390625 43.53125 10.953125 
Q 47.40625 15.53125 47.40625 23.390625 
Q 47.40625 31.296875 43.53125 35.828125 
Q 39.65625 40.375 33.015625 40.375 
z
M 52.59375 71.296875 
L 52.59375 62.3125 
Q 48.875 64.0625 45.09375 64.984375 
Q 41.3125 65.921875 37.59375 65.921875 
Q 27.828125 65.921875 22.671875 59.328125 
Q 17.53125 52.734375 16.796875 39.40625 
Q 19.671875 43.65625 24.015625 45.921875 
Q 28.375 48.1875 33.59375 48.1875 
Q 44.578125 48.1875 50.953125 41.515625 
Q 57.328125 34.859375 57.328125 23.390625 
Q 57.328125 12.15625 50.6875 5.359375 
Q 44.046875 -1.421875 33.015625 -1.421875 
Q 20.359375 -1.421875 13.671875 8.265625 
Q 6.984375 17.96875 6.984375 36.375 
Q 6.984375 53.65625 15.1875 63.9375 
Q 23.390625 74.21875 37.203125 74.21875 
Q 40.921875 74.21875 44.703125 73.484375 
Q 48.484375 72.75 52.59375 71.296875 
z
" id="DejaVuSans-54"/>
      </defs>
      <g transform="translate(284.265341 399.078438)scale(0.1 -0.1)">
       <use xlink:href="#DejaVuSans-54"/>
       <use x="63.623047" xlink:href="#DejaVuSans-48"/>
       <use x="127.246094" xlink:href="#DejaVuSans-48"/>
      </g>
     </g>
    </g>
    <g id="xtick_5">
     <g id="line2d_5">
      <g>
       <use style="stroke:#000000;stroke-width:0.8;" x="364.827273" xlink:href="#m20c3a391a6" y="384.48"/>
      </g>
     </g>
     <g id="text_5">
      <!-- 800 -->
      <defs>
       <path d="M 31.78125 34.625 
Q 24.75 34.625 20.71875 30.859375 
Q 16.703125 27.09375 16.703125 20.515625 
Q 16.703125 13.921875 20.71875 10.15625 
Q 24.75 6.390625 31.78125 6.390625 
Q 38.8125 6.390625 42.859375 10.171875 
Q 46.921875 13.96875 46.921875 20.515625 
Q 46.921875 27.09375 42.890625 30.859375 
Q 38.875 34.625 31.78125 34.625 
z
M 21.921875 38.8125 
Q 15.578125 40.375 12.03125 44.71875 
Q 8.5 49.078125 8.5 55.328125 
Q 8.5 64.0625 14.71875 69.140625 
Q 20.953125 74.21875 31.78125 74.21875 
Q 42.671875 74.21875 48.875 69.140625 
Q 55.078125 64.0625 55.078125 55.328125 
Q 55.078125 49.078125 51.53125 44.71875 
Q 48 40.375 41.703125 38.8125 
Q 48.828125 37.15625 52.796875 32.3125 
Q 56.78125 27.484375 56.78125 20.515625 
Q 56.78125 9.90625 50.3125 4.234375 
Q 43.84375 -1.421875 31.78125 -1.421875 
Q 19.734375 -1.421875 13.25 4.234375 
Q 6.78125 9.90625 6.78125 20.515625 
Q 6.78125 27.484375 10.78125 32.3125 
Q 14.796875 37.15625 21.921875 38.8125 
z
M 18.3125 54.390625 
Q 18.3125 48.734375 21.84375 45.5625 
Q 25.390625 42.390625 31.78125 42.390625 
Q 38.140625 42.390625 41.71875 45.5625 
Q 45.3125 48.734375 45.3125 54.390625 
Q 45.3125 60.0625 41.71875 63.234375 
Q 38.140625 66.40625 31.78125 66.40625 
Q 25.390625 66.40625 21.84375 63.234375 
Q 18.3125 60.0625 18.3125 54.390625 
z
" id="DejaVuSans-56"/>
      </defs>
      <g transform="translate(355.283523 399.078438)scale(0.1 -0.1)">
       <use xlink:href="#DejaVuSans-56"/>
       <use x="63.623047" xlink:href="#DejaVuSans-48"/>
       <use x="127.246094" xlink:href="#DejaVuSans-48"/>
      </g>
     </g>
    </g>
    <g id="text_6">
     <!-- time [ms] -->
     <defs>
      <path d="M 18.3125 70.21875 
L 18.3125 54.6875 
L 36.8125 54.6875 
L 36.8125 47.703125 
L 18.3125 47.703125 
L 18.3125 18.015625 
Q 18.3125 11.328125 20.140625 9.421875 
Q 21.96875 7.515625 27.59375 7.515625 
L 36.8125 7.515625 
L 36.8125 0 
L 27.59375 0 
Q 17.1875 0 13.234375 3.875 
Q 9.28125 7.765625 9.28125 18.015625 
L 9.28125 47.703125 
L 2.6875 47.703125 
L 2.6875 54.6875 
L 9.28125 54.6875 
L 9.28125 70.21875 
z
" id="DejaVuSans-116"/>
      <path d="M 9.421875 54.6875 
L 18.40625 54.6875 
L 18.40625 0 
L 9.421875 0 
z
M 9.421875 75.984375 
L 18.40625 75.984375 
L 18.40625 64.59375 
L 9.421875 64.59375 
z
" id="DejaVuSans-105"/>
      <path d="M 52 44.1875 
Q 55.375 50.25 60.0625 53.125 
Q 64.75 56 71.09375 56 
Q 79.640625 56 84.28125 50.015625 
Q 88.921875 44.046875 88.921875 33.015625 
L 88.921875 0 
L 79.890625 0 
L 79.890625 32.71875 
Q 79.890625 40.578125 77.09375 44.375 
Q 74.3125 48.1875 68.609375 48.1875 
Q 61.625 48.1875 57.5625 43.546875 
Q 53.515625 38.921875 53.515625 30.90625 
L 53.515625 0 
L 44.484375 0 
L 44.484375 32.71875 
Q 44.484375 40.625 41.703125 44.40625 
Q 38.921875 48.1875 33.109375 48.1875 
Q 26.21875 48.1875 22.15625 43.53125 
Q 18.109375 38.875 18.109375 30.90625 
L 18.109375 0 
L 9.078125 0 
L 9.078125 54.6875 
L 18.109375 54.6875 
L 18.109375 46.1875 
Q 21.1875 51.21875 25.484375 53.609375 
Q 29.78125 56 35.6875 56 
Q 41.65625 56 45.828125 52.96875 
Q 50 49.953125 52 44.1875 
z
" id="DejaVuSans-109"/>
      <path d="M 56.203125 29.59375 
L 56.203125 25.203125 
L 14.890625 25.203125 
Q 15.484375 15.921875 20.484375 11.0625 
Q 25.484375 6.203125 34.421875 6.203125 
Q 39.59375 6.203125 44.453125 7.46875 
Q 49.3125 8.734375 54.109375 11.28125 
L 54.109375 2.78125 
Q 49.265625 0.734375 44.1875 -0.34375 
Q 39.109375 -1.421875 33.890625 -1.421875 
Q 20.796875 -1.421875 13.15625 6.1875 
Q 5.515625 13.8125 5.515625 26.8125 
Q 5.515625 40.234375 12.765625 48.109375 
Q 20.015625 56 32.328125 56 
Q 43.359375 56 49.78125 48.890625 
Q 56.203125 41.796875 56.203125 29.59375 
z
M 47.21875 32.234375 
Q 47.125 39.59375 43.09375 43.984375 
Q 39.0625 48.390625 32.421875 48.390625 
Q 24.90625 48.390625 20.390625 44.140625 
Q 15.875 39.890625 15.1875 32.171875 
z
" id="DejaVuSans-101"/>
      <path id="DejaVuSans-32"/>
      <path d="M 8.59375 75.984375 
L 29.296875 75.984375 
L 29.296875 69 
L 17.578125 69 
L 17.578125 -6.203125 
L 29.296875 -6.203125 
L 29.296875 -13.1875 
L 8.59375 -13.1875 
z
" id="DejaVuSans-91"/>
      <path d="M 44.28125 53.078125 
L 44.28125 44.578125 
Q 40.484375 46.53125 36.375 47.5 
Q 32.28125 48.484375 27.875 48.484375 
Q 21.1875 48.484375 17.84375 46.4375 
Q 14.5 44.390625 14.5 40.28125 
Q 14.5 37.15625 16.890625 35.375 
Q 19.28125 33.59375 26.515625 31.984375 
L 29.59375 31.296875 
Q 39.15625 29.25 43.1875 25.515625 
Q 47.21875 21.78125 47.21875 15.09375 
Q 47.21875 7.46875 41.1875 3.015625 
Q 35.15625 -1.421875 24.609375 -1.421875 
Q 20.21875 -1.421875 15.453125 -0.5625 
Q 10.6875 0.296875 5.421875 2 
L 5.421875 11.28125 
Q 10.40625 8.6875 15.234375 7.390625 
Q 20.0625 6.109375 24.8125 6.109375 
Q 31.15625 6.109375 34.5625 8.28125 
Q 37.984375 10.453125 37.984375 14.40625 
Q 37.984375 18.0625 35.515625 20.015625 
Q 33.0625 21.96875 24.703125 23.78125 
L 21.578125 24.515625 
Q 13.234375 26.265625 9.515625 29.90625 
Q 5.8125 33.546875 5.8125 39.890625 
Q 5.8125 47.609375 11.28125 51.796875 
Q 16.75 56 26.8125 56 
Q 31.78125 56 36.171875 55.265625 
Q 40.578125 54.546875 44.28125 53.078125 
z
" id="DejaVuSans-115"/>
      <path d="M 30.421875 75.984375 
L 30.421875 -13.1875 
L 9.71875 -13.1875 
L 9.71875 -6.203125 
L 21.390625 -6.203125 
L 21.390625 69 
L 9.71875 69 
L 9.71875 75.984375 
z
" id="DejaVuSans-93"/>
     </defs>
     <g transform="translate(234.038281 412.756563)scale(0.1 -0.1)">
      <use xlink:href="#DejaVuSans-116"/>
      <use x="39.208984" xlink:href="#DejaVuSans-105"/>
      <use x="66.992188" xlink:href="#DejaVuSans-109"/>
      <use x="164.404297" xlink:href="#DejaVuSans-101"/>
      <use x="225.927734" xlink:href="#DejaVuSans-32"/>
      <use x="257.714844" xlink:href="#DejaVuSans-91"/>
      <use x="296.728516" xlink:href="#DejaVuSans-109"/>
      <use x="394.140625" xlink:href="#DejaVuSans-115"/>
      <use x="446.240234" xlink:href="#DejaVuSans-93"/>
     </g>
    </g>
   </g>
   <g id="matplotlib.axis_2">
    <g id="ytick_1">
     <g id="line2d_6">
      <defs>
       <path d="M 0 0 
L -3.5 0 
" id="m98ac3de2ac" style="stroke:#000000;stroke-width:0.8;"/>
      </defs>
      <g>
       <use style="stroke:#000000;stroke-width:0.8;" x="63" xlink:href="#m98ac3de2ac" y="348.880833"/>
      </g>
     </g>
     <g id="text_7">
      <!-- −60 -->
      <defs>
       <path d="M 10.59375 35.5 
L 73.1875 35.5 
L 73.1875 27.203125 
L 10.59375 27.203125 
z
" id="DejaVuSans-8722"/>
      </defs>
      <g transform="translate(34.895313 352.680051)scale(0.1 -0.1)">
       <use xlink:href="#DejaVuSans-8722"/>
       <use x="83.789062" xlink:href="#DejaVuSans-54"/>
       <use x="147.412109" xlink:href="#DejaVuSans-48"/>
      </g>
     </g>
    </g>
    <g id="ytick_2">
     <g id="line2d_7">
      <g>
       <use style="stroke:#000000;stroke-width:0.8;" x="63" xlink:href="#m98ac3de2ac" y="282.957024"/>
      </g>
     </g>
     <g id="text_8">
      <!-- −40 -->
      <g transform="translate(34.895313 286.756243)scale(0.1 -0.1)">
       <use xlink:href="#DejaVuSans-8722"/>
       <use x="83.789062" xlink:href="#DejaVuSans-52"/>
       <use x="147.412109" xlink:href="#DejaVuSans-48"/>
      </g>
     </g>
    </g>
    <g id="ytick_3">
     <g id="line2d_8">
      <g>
       <use style="stroke:#000000;stroke-width:0.8;" x="63" xlink:href="#m98ac3de2ac" y="217.033215"/>
      </g>
     </g>
     <g id="text_9">
      <!-- −20 -->
      <g transform="translate(34.895313 220.832434)scale(0.1 -0.1)">
       <use xlink:href="#DejaVuSans-8722"/>
       <use x="83.789062" xlink:href="#DejaVuSans-50"/>
       <use x="147.412109" xlink:href="#DejaVuSans-48"/>
      </g>
     </g>
    </g>
    <g id="ytick_4">
     <g id="line2d_9">
      <g>
       <use style="stroke:#000000;stroke-width:0.8;" x="63" xlink:href="#m98ac3de2ac" y="151.109407"/>
      </g>
     </g>
     <g id="text_10">
      <!-- 0 -->
      <g transform="translate(49.6375 154.908625)scale(0.1 -0.1)">
       <use xlink:href="#DejaVuSans-48"/>
      </g>
     </g>
    </g>
    <g id="ytick_5">
     <g id="line2d_10">
      <g>
       <use style="stroke:#000000;stroke-width:0.8;" x="63" xlink:href="#m98ac3de2ac" y="85.185598"/>
      </g>
     </g>
     <g id="text_11">
      <!-- 20 -->
      <g transform="translate(43.275 88.984817)scale(0.1 -0.1)">
       <use xlink:href="#DejaVuSans-50"/>
       <use x="63.623047" xlink:href="#DejaVuSans-48"/>
      </g>
     </g>
    </g>
    <g id="text_12">
     <!-- voltage [V] -->
     <defs>
      <path d="M 2.984375 54.6875 
L 12.5 54.6875 
L 29.59375 8.796875 
L 46.6875 54.6875 
L 56.203125 54.6875 
L 35.6875 0 
L 23.484375 0 
z
" id="DejaVuSans-118"/>
      <path d="M 30.609375 48.390625 
Q 23.390625 48.390625 19.1875 42.75 
Q 14.984375 37.109375 14.984375 27.296875 
Q 14.984375 17.484375 19.15625 11.84375 
Q 23.34375 6.203125 30.609375 6.203125 
Q 37.796875 6.203125 41.984375 11.859375 
Q 46.1875 17.53125 46.1875 27.296875 
Q 46.1875 37.015625 41.984375 42.703125 
Q 37.796875 48.390625 30.609375 48.390625 
z
M 30.609375 56 
Q 42.328125 56 49.015625 48.375 
Q 55.71875 40.765625 55.71875 27.296875 
Q 55.71875 13.875 49.015625 6.21875 
Q 42.328125 -1.421875 30.609375 -1.421875 
Q 18.84375 -1.421875 12.171875 6.21875 
Q 5.515625 13.875 5.515625 27.296875 
Q 5.515625 40.765625 12.171875 48.375 
Q 18.84375 56 30.609375 56 
z
" id="DejaVuSans-111"/>
      <path d="M 9.421875 75.984375 
L 18.40625 75.984375 
L 18.40625 0 
L 9.421875 0 
z
" id="DejaVuSans-108"/>
      <path d="M 34.28125 27.484375 
Q 23.390625 27.484375 19.1875 25 
Q 14.984375 22.515625 14.984375 16.5 
Q 14.984375 11.71875 18.140625 8.90625 
Q 21.296875 6.109375 26.703125 6.109375 
Q 34.1875 6.109375 38.703125 11.40625 
Q 43.21875 16.703125 43.21875 25.484375 
L 43.21875 27.484375 
z
M 52.203125 31.203125 
L 52.203125 0 
L 43.21875 0 
L 43.21875 8.296875 
Q 40.140625 3.328125 35.546875 0.953125 
Q 30.953125 -1.421875 24.3125 -1.421875 
Q 15.921875 -1.421875 10.953125 3.296875 
Q 6 8.015625 6 15.921875 
Q 6 25.140625 12.171875 29.828125 
Q 18.359375 34.515625 30.609375 34.515625 
L 43.21875 34.515625 
L 43.21875 35.40625 
Q 43.21875 41.609375 39.140625 45 
Q 35.0625 48.390625 27.6875 48.390625 
Q 23 48.390625 18.546875 47.265625 
Q 14.109375 46.140625 10.015625 43.890625 
L 10.015625 52.203125 
Q 14.9375 54.109375 19.578125 55.046875 
Q 24.21875 56 28.609375 56 
Q 40.484375 56 46.34375 49.84375 
Q 52.203125 43.703125 52.203125 31.203125 
z
" id="DejaVuSans-97"/>
      <path d="M 45.40625 27.984375 
Q 45.40625 37.75 41.375 43.109375 
Q 37.359375 48.484375 30.078125 48.484375 
Q 22.859375 48.484375 18.828125 43.109375 
Q 14.796875 37.75 14.796875 27.984375 
Q 14.796875 18.265625 18.828125 12.890625 
Q 22.859375 7.515625 30.078125 7.515625 
Q 37.359375 7.515625 41.375 12.890625 
Q 45.40625 18.265625 45.40625 27.984375 
z
M 54.390625 6.78125 
Q 54.390625 -7.171875 48.1875 -13.984375 
Q 42 -20.796875 29.203125 -20.796875 
Q 24.46875 -20.796875 20.265625 -20.09375 
Q 16.0625 -19.390625 12.109375 -17.921875 
L 12.109375 -9.1875 
Q 16.0625 -11.328125 19.921875 -12.34375 
Q 23.78125 -13.375 27.78125 -13.375 
Q 36.625 -13.375 41.015625 -8.765625 
Q 45.40625 -4.15625 45.40625 5.171875 
L 45.40625 9.625 
Q 42.625 4.78125 38.28125 2.390625 
Q 33.9375 0 27.875 0 
Q 17.828125 0 11.671875 7.65625 
Q 5.515625 15.328125 5.515625 27.984375 
Q 5.515625 40.671875 11.671875 48.328125 
Q 17.828125 56 27.875 56 
Q 33.9375 56 38.28125 53.609375 
Q 42.625 51.21875 45.40625 46.390625 
L 45.40625 54.6875 
L 54.390625 54.6875 
z
" id="DejaVuSans-103"/>
      <path d="M 28.609375 0 
L 0.78125 72.90625 
L 11.078125 72.90625 
L 34.1875 11.53125 
L 57.328125 72.90625 
L 67.578125 72.90625 
L 39.796875 0 
z
" id="DejaVuSans-86"/>
     </defs>
     <g transform="translate(28.815625 245.75375)rotate(-90)scale(0.1 -0.1)">
      <use xlink:href="#DejaVuSans-118"/>
      <use x="59.179688" xlink:href="#DejaVuSans-111"/>
      <use x="120.361328" xlink:href="#DejaVuSans-108"/>
      <use x="148.144531" xlink:href="#DejaVuSans-116"/>
      <use x="187.353516" xlink:href="#DejaVuSans-97"/>
      <use x="248.632812" xlink:href="#DejaVuSans-103"/>
      <use x="312.109375" xlink:href="#DejaVuSans-101"/>
      <use x="373.632812" xlink:href="#DejaVuSans-32"/>
      <use x="405.419922" xlink:href="#DejaVuSans-91"/>
      <use x="444.433594" xlink:href="#DejaVuSans-86"/>
      <use x="512.841797" xlink:href="#DejaVuSans-93"/>
     </g>
    </g>
   </g>
   <g id="line2d_11">
    <path clip-path="url(#p667a10eda2)" d="M 80.754545 365.361777 
L 81.695536 365.373543 
L 85.779082 365.792231 
L 98.597864 367.090952 
L 108.788973 367.879987 
L 119.708018 368.499117 
L 131.976409 368.967366 
L 146.410855 369.287987 
L 151.772727 369.36 
L 151.8615 367.37362 
L 152.234345 359.279745 
L 152.731473 353.614636 
L 153.565936 346.921556 
L 154.9863 337.490446 
L 156.726245 327.442745 
L 158.412927 318.947075 
L 160.028591 311.909296 
L 161.590991 306.088188 
L 163.153391 301.129563 
L 164.840073 296.534337 
L 167.236936 290.731201 
L 168.941373 286.375793 
L 169.793591 283.600368 
L 170.361736 281.012725 
L 170.752336 278.209126 
L 171.036409 274.181844 
L 171.1962 267.081649 
L 171.249464 259.187995 
L 171.622309 75.020085 
L 171.675573 72.719737 
L 171.746591 72.956611 
L 171.906382 85.56451 
L 172.190455 137.337262 
L 172.847373 253.578128 
L 173.220218 287.488104 
L 173.5398 299.649258 
L 173.912645 305.990786 
L 174.303245 309.30882 
L 174.782618 311.481558 
L 175.226482 312.576146 
L 175.6881 313.158061 
L 176.096455 313.348387 
L 176.522564 313.305428 
L 177.019691 313.017489 
L 177.676609 312.34476 
L 178.528827 311.129082 
L 179.771645 308.944517 
L 182.825427 302.961551 
L 185.470855 298.064322 
L 188.151791 293.597157 
L 192.164318 286.974325 
L 193.282855 284.645691 
L 194.064055 282.519455 
L 194.6322 280.314812 
L 195.040555 277.782177 
L 195.324627 274.4026 
L 195.502173 268.555361 
L 195.573191 259.483606 
L 195.626455 232.480424 
L 195.839509 103.000395 
L 196.017055 94.520451 
L 196.034809 94.479651 
L 196.176845 98.153621 
L 196.407655 114.93149 
L 196.744991 162.884532 
L 197.437418 258.769374 
L 197.810264 283.070456 
L 198.200864 294.588007 
L 198.591464 300.125507 
L 199.070836 303.757494 
L 199.550209 305.888035 
L 200.082845 307.356087 
L 200.650991 308.283777 
L 201.219136 308.767904 
L 201.787282 308.933011 
L 202.408691 308.843562 
L 203.083364 308.511705 
L 203.988845 307.794924 
L 205.231664 306.489955 
L 207.237927 304.007164 
L 212.9904 296.762828 
L 217.890655 291.126517 
L 220.429555 288.014989 
L 221.885427 285.892107 
L 222.915191 284.005344 
L 223.660882 282.186452 
L 224.229027 280.194919 
L 224.637382 277.908624 
L 224.9037 275.230271 
L 225.081245 271.538385 
L 225.205527 262.447429 
L 225.241036 249.175571 
L 225.525109 101.815778 
L 225.596127 99.506502 
L 225.667145 100.048735 
L 225.862445 107.833438 
L 226.164273 131.780004 
L 226.679155 199.621561 
L 227.229545 260.328262 
L 227.6379 281.328104 
L 228.046255 291.471816 
L 228.454609 296.747541 
L 228.933982 300.315698 
L 229.502127 302.880011 
L 230.105782 304.588133 
L 230.691682 305.640303 
L 231.313091 306.311136 
L 231.898991 306.639574 
L 232.538155 306.746188 
L 233.266091 306.628634 
L 234.153818 306.236092 
L 235.236845 305.503985 
L 236.781491 304.168724 
L 239.320391 301.642545 
L 247.434218 293.462924 
L 251.446745 289.352269 
L 253.346482 287.089915 
L 254.642564 285.208148 
L 255.601309 283.418681 
L 256.275982 281.71224 
L 256.808618 279.749794 
L 257.181464 277.538079 
L 257.447782 274.589676 
L 257.607573 270.711849 
L 257.696345 264.317962 
L 257.767364 241.555286 
L 257.998173 105.365542 
L 258.122455 100.186883 
L 258.157964 100.784995 
L 258.264491 104.202624 
L 258.566318 124.251326 
L 258.956918 167.852166 
L 259.755873 258.903551 
L 260.181982 280.4492 
L 260.590336 290.411085 
L 261.016445 295.703661 
L 261.495818 299.063652 
L 262.028455 301.364741 
L 262.649864 303.082324 
L 263.271273 304.181272 
L 263.892682 304.864895 
L 264.531845 305.253444 
L 265.206518 305.405249 
L 265.952209 305.341674 
L 266.857691 305.026495 
L 267.993982 304.375427 
L 269.538627 303.207828 
L 271.935491 301.081304 
L 282.694745 290.954335 
L 285.215891 288.315475 
L 286.8138 286.336695 
L 287.9856 284.5337 
L 288.820064 282.856704 
L 289.459227 281.080927 
L 289.9386 279.077269 
L 290.293691 276.543981 
L 290.542255 272.730239 
L 290.666536 267.427496 
L 290.737555 253.589661 
L 290.844082 165.857263 
L 291.003873 104.519492 
L 291.128155 100.475105 
L 291.163664 100.995566 
L 291.341209 108.318921 
L 291.643036 131.570594 
L 292.175673 196.361261 
L 292.761573 258.403368 
L 293.152173 278.600301 
L 293.560527 289.339912 
L 294.004391 295.17767 
L 294.483764 298.667606 
L 295.051909 301.157503 
L 295.673318 302.873102 
L 296.276973 303.949246 
L 296.916136 304.662972 
L 297.5553 305.059541 
L 298.247727 305.223326 
L 299.046682 305.156662 
L 299.952164 304.842208 
L 301.141718 304.164501 
L 302.686364 303.008363 
L 305.154245 300.84885 
L 315.469636 291.287404 
L 318.150573 288.554949 
L 319.855009 286.508206 
L 321.062318 284.713267 
L 321.950045 282.994307 
L 322.589209 281.295282 
L 323.068582 279.42723 
L 323.423673 277.188936 
L 323.672236 274.293592 
L 323.849782 268.851448 
L 323.938555 258.167335 
L 323.974064 237.948804 
L 324.204873 105.744994 
L 324.3114 100.260803 
L 324.346909 100.731523 
L 324.453436 103.697316 
L 324.755264 123.429526 
L 325.163618 168.281554 
L 325.962573 258.226864 
L 326.388682 279.856621 
L 326.797036 290.042948 
L 327.2409 295.608593 
L 327.738027 299.046858 
L 328.306173 301.405796 
L 328.927582 303.034443 
L 329.5845 304.121139 
L 330.241418 304.772871 
L 330.880582 305.106369 
L 331.573009 305.218699 
L 332.371964 305.108658 
L 333.312955 304.741593 
L 334.484755 304.039769 
L 336.135927 302.77195 
L 338.852373 300.363905 
L 350.197527 289.790293 
L 352.292564 287.5027 
L 353.730682 285.607564 
L 354.7782 283.854968 
L 355.541645 282.143786 
L 356.092036 280.397479 
L 356.518145 278.313655 
L 356.819973 275.721605 
L 357.015273 272.2142 
L 357.139555 265.909171 
L 357.210573 247.165984 
L 357.476891 103.219621 
L 357.565664 100.421827 
L 357.618927 100.996587 
L 357.778718 107.429534 
L 358.116055 133.598686 
L 358.648691 198.967587 
L 359.216836 258.648839 
L 359.625191 279.591028 
L 360.033545 290.010271 
L 360.459655 295.511649 
L 360.939027 298.94716 
L 361.453909 301.198487 
L 362.057564 302.885584 
L 362.678973 303.998121 
L 363.318136 304.705319 
L 363.975055 305.1018 
L 364.649727 305.251668 
L 364.862782 305.255714 
L 364.969309 307.424938 
L 365.306645 314.592982 
L 365.786018 319.647643 
L 366.460691 324.207322 
L 367.348418 328.682278 
L 368.395936 332.836375 
L 369.532227 336.478687 
L 370.775045 339.758582 
L 372.1599 342.794003 
L 373.633527 345.497057 
L 375.213682 347.942283 
L 376.900364 350.156516 
L 378.746836 352.218275 
L 380.735345 354.108903 
L 382.9014 355.864331 
L 385.280509 357.506415 
L 387.908182 359.048123 
L 390.837682 360.504568 
L 394.069009 361.861596 
L 397.726445 363.152489 
L 401.809991 364.354857 
L 406.443927 365.48143 
L 411.6105 366.503723 
L 417.416236 367.420174 
L 423.861136 368.208685 
L 431.087236 368.865466 
L 435.8277 369.190298 
L 435.8277 369.190298 
" style="fill:none;stroke:#1f77b4;stroke-linecap:square;stroke-width:1.5;"/>
   </g>
   <g id="line2d_12">
    <path clip-path="url(#p667a10eda2)" d="M 80.754545 365.361785 
L 80.949845 364.468241 
L 81.3582 363.684143 
L 82.032873 362.905386 
L 83.1159 362.024247 
L 84.625036 361.090838 
L 86.453755 360.225425 
L 88.531036 359.492947 
L 90.856882 358.913422 
L 93.4668 358.496638 
L 96.467318 358.248162 
L 100.071491 358.181495 
L 104.811955 358.331101 
L 114.044318 358.900688 
L 124.111145 359.426689 
L 133.254736 359.670134 
L 145.2213 359.747251 
L 151.772727 359.736004 
L 151.985782 349.757114 
L 152.411891 340.733357 
L 153.068809 331.579496 
L 153.974291 322.076042 
L 154.968545 313.908806 
L 155.945045 307.633349 
L 156.9393 302.636573 
L 157.986818 298.487426 
L 159.140864 294.810671 
L 160.543473 291.101432 
L 164.058873 282.189655 
L 164.662527 279.75185 
L 165.070882 277.195391 
L 165.354955 274.013654 
L 165.550255 268.952221 
L 165.656782 259.211542 
L 165.710045 227.221885 
L 165.834327 66.96 
L 165.869836 68.06617 
L 166.029627 96.550608 
L 166.810827 235.344693 
L 167.077145 262.464212 
L 167.325709 269.556977 
L 167.627536 272.423821 
L 168.177927 276.95152 
L 169.225445 286.56141 
L 169.8291 289.834061 
L 170.450509 292.047539 
L 171.107427 293.606818 
L 171.7821 294.66461 
L 172.474527 295.354901 
L 173.202464 295.769852 
L 173.983664 295.954567 
L 174.853636 295.926136 
L 175.8834 295.661804 
L 177.161727 295.093648 
L 178.866164 294.076094 
L 181.3518 292.309539 
L 185.133518 289.332137 
L 188.080773 286.762334 
L 189.891736 284.903566 
L 191.134555 283.322981 
L 192.057791 281.791572 
L 192.750218 280.202713 
L 193.2651 278.456663 
L 193.6557 276.313774 
L 193.939773 273.414465 
L 194.117318 269.400032 
L 194.223845 262.615769 
L 194.294864 237.233901 
L 194.4369 72.770976 
L 194.490164 78.308956 
L 195.768491 278.200582 
L 196.088073 284.928895 
L 196.549691 290.084102 
L 197.135591 294.265958 
L 197.757 297.184593 
L 198.396164 299.163151 
L 199.035327 300.453949 
L 199.674491 301.265483 
L 200.313655 301.727833 
L 200.970573 301.930478 
L 201.680755 301.91466 
L 202.515218 301.664027 
L 203.544982 301.10928 
L 204.912082 300.103245 
L 207.024873 298.240153 
L 215.635827 290.411393 
L 220.269764 286.268388 
L 221.9742 284.437398 
L 223.128245 282.885361 
L 223.980464 281.373693 
L 224.619627 279.787615 
L 225.099 278.004306 
L 225.454091 275.837747 
L 225.720409 272.741506 
L 225.897955 267.634972 
L 225.986727 259.098978 
L 226.039991 230.30059 
L 226.164273 72.829732 
L 226.199782 74.387205 
L 226.377327 108.404659 
L 227.229545 262.087515 
L 227.495864 277.879986 
L 227.815445 284.684588 
L 228.277064 289.753913 
L 228.862964 293.836357 
L 229.484373 296.695613 
L 230.123536 298.644948 
L 230.7627 299.925553 
L 231.401864 300.738885 
L 232.041027 301.211128 
L 232.697945 301.429843 
L 233.425882 301.43373 
L 234.260345 301.208724 
L 235.307864 300.680195 
L 236.692718 299.710695 
L 238.805509 297.926816 
L 248.268682 289.66078 
L 252.192436 286.239154 
L 253.932382 284.427437 
L 255.104182 282.899117 
L 255.974155 281.402313 
L 256.631073 279.817702 
L 257.1282 278.00666 
L 257.483291 275.876277 
L 257.749609 272.858773 
L 257.927155 268.013879 
L 258.033682 256.972686 
L 258.086945 211.515407 
L 258.211227 72.846479 
L 258.228982 73.728533 
L 258.371018 99.188075 
L 259.205482 255.368177 
L 259.4718 275.707008 
L 259.773627 283.476897 
L 260.199736 288.712618 
L 260.767882 293.030919 
L 261.389291 296.137419 
L 262.028455 298.253028 
L 262.667618 299.6492 
L 263.306782 300.54767 
L 263.945945 301.085483 
L 264.602864 301.357593 
L 265.313045 301.410132 
L 266.129755 301.238819 
L 267.124009 300.790054 
L 268.420091 299.943432 
L 270.319827 298.40843 
L 285.961582 284.802445 
L 287.257664 283.240727 
L 288.198655 281.761415 
L 288.891082 280.264552 
L 289.423718 278.576824 
L 289.814318 276.609756 
L 290.116145 273.859866 
L 290.311445 269.971413 
L 290.435727 262.621926 
L 290.506745 237.553275 
L 290.648782 72.926503 
L 290.702045 78.396901 
L 291.518755 235.953977 
L 291.802827 270.247276 
L 292.0869 281.038151 
L 292.459745 286.806773 
L 292.992382 291.554326 
L 293.596036 295.060373 
L 294.2352 297.519494 
L 294.874364 299.147497 
L 295.513527 300.211726 
L 296.152691 300.873568 
L 296.809609 301.243804 
L 297.502036 301.378127 
L 298.283236 301.293325 
L 299.206473 300.957431 
L 300.378273 300.27951 
L 302.011691 299.053809 
L 304.958945 296.510808 
L 310.374082 291.873132 
L 318.132818 285.37648 
L 319.6242 283.748188 
L 320.671718 282.282879 
L 321.452918 280.808555 
L 322.038818 279.226263 
L 322.482682 277.380014 
L 322.820018 274.961504 
L 323.050827 271.613486 
L 323.192864 266.460923 
L 323.281636 253.939048 
L 323.3349 178.262275 
L 323.441427 72.968379 
L 323.476936 74.791982 
L 323.672236 112.583254 
L 324.524455 264.000896 
L 324.790773 278.409032 
L 325.128109 285.059859 
L 325.607482 290.041013 
L 326.193382 293.951587 
L 326.814791 296.706832 
L 327.453955 298.594185 
L 328.093118 299.840252 
L 328.732282 300.636108 
L 329.3892 301.111181 
L 330.063873 301.32818 
L 330.809564 301.327908 
L 331.679536 301.092168 
L 332.744809 300.560488 
L 334.165173 299.586705 
L 336.384491 297.762974 
L 344.409545 290.989445 
L 350.747918 285.811123 
L 352.399091 284.134385 
L 353.553136 282.652606 
L 354.3876 281.229448 
L 355.026764 279.7005 
L 355.506136 277.978337 
L 355.878982 275.753938 
L 356.1453 272.670536 
L 356.322845 267.547183 
L 356.411618 258.88613 
L 356.464882 228.940744 
L 356.589164 73.028822 
L 356.624673 74.655856 
L 356.802218 108.573871 
L 357.654436 262.023337 
L 357.920755 277.693012 
L 358.240336 284.439636 
L 358.701955 289.489519 
L 359.287855 293.570496 
L 359.909264 296.436791 
L 360.548427 298.400588 
L 361.205345 299.729874 
L 361.862264 300.573676 
L 362.519182 301.065512 
L 363.193855 301.29731 
L 363.939545 301.311289 
L 364.791764 301.096631 
L 364.827273 301.083402 
L 365.022573 310.321888 
L 365.395418 317.746377 
L 365.928055 323.970425 
L 366.638236 329.638664 
L 367.508209 334.793614 
L 368.484709 339.279484 
L 369.567736 343.229271 
L 370.721782 346.618793 
L 371.9646 349.587186 
L 373.278436 352.153731 
L 374.663291 354.375393 
L 376.119164 356.294522 
L 377.646055 357.942242 
L 379.243964 359.34115 
L 380.912891 360.507792 
L 382.652836 361.455032 
L 384.499309 362.206503 
L 386.470064 362.765988 
L 388.600609 363.137551 
L 390.979718 363.322858 
L 393.749427 363.308094 
L 397.211564 363.05534 
L 402.644455 362.404719 
L 412.089873 361.284183 
L 418.179682 360.80869 
L 424.748864 360.525724 
L 433.057991 360.404556 
L 435.845455 360.398976 
L 435.845455 360.398976 
" style="fill:none;stroke:#ff0000;stroke-linecap:square;stroke-width:1.5;"/>
   </g>
   <g id="patch_3">
    <path d="M 63 384.48 
L 63 51.84 
" style="fill:none;stroke:#000000;stroke-linecap:square;stroke-linejoin:miter;stroke-width:0.8;"/>
   </g>
   <g id="patch_4">
    <path d="M 453.6 384.48 
L 453.6 51.84 
" style="fill:none;stroke:#000000;stroke-linecap:square;stroke-linejoin:miter;stroke-width:0.8;"/>
   </g>
   <g id="patch_5">
    <path d="M 63 384.48 
L 453.6 384.48 
" style="fill:none;stroke:#000000;stroke-linecap:square;stroke-linejoin:miter;stroke-width:0.8;"/>
   </g>
   <g id="patch_6">
    <path d="M 63 51.84 
L 453.6 51.84 
" style="fill:none;stroke:#000000;stroke-linecap:square;stroke-linejoin:miter;stroke-width:0.8;"/>
   </g>
   <g id="legend_1">
    <g id="patch_7">
     <path d="M 383.460938 89.19625 
L 446.6 89.19625 
Q 448.6 89.19625 448.6 87.19625 
L 448.6 58.84 
Q 448.6 56.84 446.6 56.84 
L 383.460938 56.84 
Q 381.460938 56.84 381.460938 58.84 
L 381.460938 87.19625 
Q 381.460938 89.19625 383.460938 89.19625 
z
" style="fill:#ffffff;opacity:0.8;stroke:#cccccc;stroke-linejoin:miter;"/>
    </g>
    <g id="line2d_13">
     <path d="M 385.460938 64.938437 
L 405.460938 64.938437 
" style="fill:none;stroke:#1f77b4;stroke-linecap:square;stroke-width:1.5;"/>
    </g>
    <g id="line2d_14"/>
    <g id="text_13">
     <!-- target -->
     <defs>
      <path d="M 41.109375 46.296875 
Q 39.59375 47.171875 37.8125 47.578125 
Q 36.03125 48 33.890625 48 
Q 26.265625 48 22.1875 43.046875 
Q 18.109375 38.09375 18.109375 28.8125 
L 18.109375 0 
L 9.078125 0 
L 9.078125 54.6875 
L 18.109375 54.6875 
L 18.109375 46.1875 
Q 20.953125 51.171875 25.484375 53.578125 
Q 30.03125 56 36.53125 56 
Q 37.453125 56 38.578125 55.875 
Q 39.703125 55.765625 41.0625 55.515625 
z
" id="DejaVuSans-114"/>
     </defs>
     <g transform="translate(413.460938 68.438437)scale(0.1 -0.1)">
      <use xlink:href="#DejaVuSans-116"/>
      <use x="39.208984" xlink:href="#DejaVuSans-97"/>
      <use x="100.488281" xlink:href="#DejaVuSans-114"/>
      <use x="141.585938" xlink:href="#DejaVuSans-103"/>
      <use x="205.0625" xlink:href="#DejaVuSans-101"/>
      <use x="266.585938" xlink:href="#DejaVuSans-116"/>
     </g>
    </g>
    <g id="line2d_15">
     <path d="M 385.460938 79.616562 
L 405.460938 79.616562 
" style="fill:none;stroke:#ff0000;stroke-linecap:square;stroke-width:1.5;"/>
    </g>
    <g id="line2d_16"/>
    <g id="text_14">
     <!-- model -->
     <defs>
      <path d="M 45.40625 46.390625 
L 45.40625 75.984375 
L 54.390625 75.984375 
L 54.390625 0 
L 45.40625 0 
L 45.40625 8.203125 
Q 42.578125 3.328125 38.25 0.953125 
Q 33.9375 -1.421875 27.875 -1.421875 
Q 17.96875 -1.421875 11.734375 6.484375 
Q 5.515625 14.40625 5.515625 27.296875 
Q 5.515625 40.1875 11.734375 48.09375 
Q 17.96875 56 27.875 56 
Q 33.9375 56 38.25 53.625 
Q 42.578125 51.265625 45.40625 46.390625 
z
M 14.796875 27.296875 
Q 14.796875 17.390625 18.875 11.75 
Q 22.953125 6.109375 30.078125 6.109375 
Q 37.203125 6.109375 41.296875 11.75 
Q 45.40625 17.390625 45.40625 27.296875 
Q 45.40625 37.203125 41.296875 42.84375 
Q 37.203125 48.484375 30.078125 48.484375 
Q 22.953125 48.484375 18.875 42.84375 
Q 14.796875 37.203125 14.796875 27.296875 
z
" id="DejaVuSans-100"/>
     </defs>
     <g transform="translate(413.460938 83.116562)scale(0.1 -0.1)">
      <use xlink:href="#DejaVuSans-109"/>
      <use x="97.412109" xlink:href="#DejaVuSans-111"/>
      <use x="158.59375" xlink:href="#DejaVuSans-100"/>
      <use x="222.070312" xlink:href="#DejaVuSans-101"/>
      <use x="283.59375" xlink:href="#DejaVuSans-108"/>
     </g>
    </g>
   </g>
  </g>
 </g>
 <defs>
  <clipPath id="p667a10eda2">
   <rect height="332.64" width="390.6" x="63" y="51.84"/>
  </clipPath>
 </defs>
</svg>
