<?xml version="1.0" encoding="utf-8" standalone="no"?>
<!DOCTYPE svg PUBLIC "-//W3C//DTD SVG 1.1//EN"
  "http://www.w3.org/Graphics/SVG/1.1/DTD/svg11.dtd">
<!-- Created with matplotlib (https://matplotlib.org/) -->
<svg height="432pt" version="1.1" viewBox="0 0 504 432" width="504pt" xmlns="http://www.w3.org/2000/svg" xmlns:xlink="http://www.w3.org/1999/xlink">
 <defs>
  <style type="text/css">
*{stroke-linecap:butt;stroke-linejoin:round;}
  </style>
 </defs>
 <g id="figure_1">
  <g id="patch_1">
   <path d="M 0 432 
L 504 432 
L 504 0 
L 0 0 
z
" style="fill:#ffffff;"/>
  </g>
  <g id="axes_1">
   <g id="patch_2">
    <path d="M 63 384.48 
L 453.6 384.48 
L 453.6 51.84 
L 63 51.84 
z
" style="fill:#ffffff;"/>
   </g>
   <g id="matplotlib.axis_1">
    <g id="xtick_1">
     <g id="line2d_1">
      <defs>
       <path d="M 0 0 
L 0 3.5 
" id="m52b6c49d48" style="stroke:#000000;stroke-width:0.8;"/>
      </defs>
      <g>
       <use style="stroke:#000000;stroke-width:0.8;" x="80.754545" xlink:href="#m52b6c49d48" y="384.48"/>
      </g>
     </g>
     <g id="text_1">
      <!-- 0 -->
      <defs>
       <path d="M 31.78125 66.40625 
Q 24.171875 66.40625 20.328125 58.90625 
Q 16.5 51.421875 16.5 36.375 
Q 16.5 21.390625 20.328125 13.890625 
Q 24.171875 6.390625 31.78125 6.390625 
Q 39.453125 6.390625 43.28125 13.890625 
Q 47.125 21.390625 47.125 36.375 
Q 47.125 51.421875 43.28125 58.90625 
Q 39.453125 66.40625 31.78125 66.40625 
z
M 31.78125 74.21875 
Q 44.046875 74.21875 50.515625 64.515625 
Q 56.984375 54.828125 56.984375 36.375 
Q 56.984375 17.96875 50.515625 8.265625 
Q 44.046875 -1.421875 31.78125 -1.421875 
Q 19.53125 -1.421875 13.0625 8.265625 
Q 6.59375 17.96875 6.59375 36.375 
Q 6.59375 54.828125 13.0625 64.515625 
Q 19.53125 74.21875 31.78125 74.21875 
z
" id="DejaVuSans-48"/>
      </defs>
      <g transform="translate(77.573295 399.078438)scale(0.1 -0.1)">
       <use xlink:href="#DejaVuSans-48"/>
      </g>
     </g>
    </g>
    <g id="xtick_2">
     <g id="line2d_2">
      <g>
       <use style="stroke:#000000;stroke-width:0.8;" x="151.772727" xlink:href="#m52b6c49d48" y="384.48"/>
      </g>
     </g>
     <g id="text_2">
      <!-- 200 -->
      <defs>
       <path d="M 19.1875 8.296875 
L 53.609375 8.296875 
L 53.609375 0 
L 7.328125 0 
L 7.328125 8.296875 
Q 12.9375 14.109375 22.625 23.890625 
Q 32.328125 33.6875 34.8125 36.53125 
Q 39.546875 41.84375 41.421875 45.53125 
Q 43.3125 49.21875 43.3125 52.78125 
Q 43.3125 58.59375 39.234375 62.25 
Q 35.15625 65.921875 28.609375 65.921875 
Q 23.96875 65.921875 18.8125 64.3125 
Q 13.671875 62.703125 7.8125 59.421875 
L 7.8125 69.390625 
Q 13.765625 71.78125 18.9375 73 
Q 24.125 74.21875 28.421875 74.21875 
Q 39.75 74.21875 46.484375 68.546875 
Q 53.21875 62.890625 53.21875 53.421875 
Q 53.21875 48.921875 51.53125 44.890625 
Q 49.859375 40.875 45.40625 35.40625 
Q 44.1875 33.984375 37.640625 27.21875 
Q 31.109375 20.453125 19.1875 8.296875 
z
" id="DejaVuSans-50"/>
      </defs>
      <g transform="translate(142.228977 399.078438)scale(0.1 -0.1)">
       <use xlink:href="#DejaVuSans-50"/>
       <use x="63.623047" xlink:href="#DejaVuSans-48"/>
       <use x="127.246094" xlink:href="#DejaVuSans-48"/>
      </g>
     </g>
    </g>
    <g id="xtick_3">
     <g id="line2d_3">
      <g>
       <use style="stroke:#000000;stroke-width:0.8;" x="222.790909" xlink:href="#m52b6c49d48" y="384.48"/>
      </g>
     </g>
     <g id="text_3">
      <!-- 400 -->
      <defs>
       <path d="M 37.796875 64.3125 
L 12.890625 25.390625 
L 37.796875 25.390625 
z
M 35.203125 72.90625 
L 47.609375 72.90625 
L 47.609375 25.390625 
L 58.015625 25.390625 
L 58.015625 17.1875 
L 47.609375 17.1875 
L 47.609375 0 
L 37.796875 0 
L 37.796875 17.1875 
L 4.890625 17.1875 
L 4.890625 26.703125 
z
" id="DejaVuSans-52"/>
      </defs>
      <g transform="translate(213.247159 399.078438)scale(0.1 -0.1)">
       <use xlink:href="#DejaVuSans-52"/>
       <use x="63.623047" xlink:href="#DejaVuSans-48"/>
       <use x="127.246094" xlink:href="#DejaVuSans-48"/>
      </g>
     </g>
    </g>
    <g id="xtick_4">
     <g id="line2d_4">
      <g>
       <use style="stroke:#000000;stroke-width:0.8;" x="293.809091" xlink:href="#m52b6c49d48" y="384.48"/>
      </g>
     </g>
     <g id="text_4">
      <!-- 600 -->
      <defs>
       <path d="M 33.015625 40.375 
Q 26.375 40.375 22.484375 35.828125 
Q 18.609375 31.296875 18.609375 23.390625 
Q 18.609375 15.53125 22.484375 10.953125 
Q 26.375 6.390625 33.015625 6.390625 
Q 39.65625 6.390625 43.53125 10.953125 
Q 47.40625 15.53125 47.40625 23.390625 
Q 47.40625 31.296875 43.53125 35.828125 
Q 39.65625 40.375 33.015625 40.375 
z
M 52.59375 71.296875 
L 52.59375 62.3125 
Q 48.875 64.0625 45.09375 64.984375 
Q 41.3125 65.921875 37.59375 65.921875 
Q 27.828125 65.921875 22.671875 59.328125 
Q 17.53125 52.734375 16.796875 39.40625 
Q 19.671875 43.65625 24.015625 45.921875 
Q 28.375 48.1875 33.59375 48.1875 
Q 44.578125 48.1875 50.953125 41.515625 
Q 57.328125 34.859375 57.328125 23.390625 
Q 57.328125 12.15625 50.6875 5.359375 
Q 44.046875 -1.421875 33.015625 -1.421875 
Q 20.359375 -1.421875 13.671875 8.265625 
Q 6.984375 17.96875 6.984375 36.375 
Q 6.984375 53.65625 15.1875 63.9375 
Q 23.390625 74.21875 37.203125 74.21875 
Q 40.921875 74.21875 44.703125 73.484375 
Q 48.484375 72.75 52.59375 71.296875 
z
" id="DejaVuSans-54"/>
      </defs>
      <g transform="translate(284.265341 399.078438)scale(0.1 -0.1)">
       <use xlink:href="#DejaVuSans-54"/>
       <use x="63.623047" xlink:href="#DejaVuSans-48"/>
       <use x="127.246094" xlink:href="#DejaVuSans-48"/>
      </g>
     </g>
    </g>
    <g id="xtick_5">
     <g id="line2d_5">
      <g>
       <use style="stroke:#000000;stroke-width:0.8;" x="364.827273" xlink:href="#m52b6c49d48" y="384.48"/>
      </g>
     </g>
     <g id="text_5">
      <!-- 800 -->
      <defs>
       <path d="M 31.78125 34.625 
Q 24.75 34.625 20.71875 30.859375 
Q 16.703125 27.09375 16.703125 20.515625 
Q 16.703125 13.921875 20.71875 10.15625 
Q 24.75 6.390625 31.78125 6.390625 
Q 38.8125 6.390625 42.859375 10.171875 
Q 46.921875 13.96875 46.921875 20.515625 
Q 46.921875 27.09375 42.890625 30.859375 
Q 38.875 34.625 31.78125 34.625 
z
M 21.921875 38.8125 
Q 15.578125 40.375 12.03125 44.71875 
Q 8.5 49.078125 8.5 55.328125 
Q 8.5 64.0625 14.71875 69.140625 
Q 20.953125 74.21875 31.78125 74.21875 
Q 42.671875 74.21875 48.875 69.140625 
Q 55.078125 64.0625 55.078125 55.328125 
Q 55.078125 49.078125 51.53125 44.71875 
Q 48 40.375 41.703125 38.8125 
Q 48.828125 37.15625 52.796875 32.3125 
Q 56.78125 27.484375 56.78125 20.515625 
Q 56.78125 9.90625 50.3125 4.234375 
Q 43.84375 -1.421875 31.78125 -1.421875 
Q 19.734375 -1.421875 13.25 4.234375 
Q 6.78125 9.90625 6.78125 20.515625 
Q 6.78125 27.484375 10.78125 32.3125 
Q 14.796875 37.15625 21.921875 38.8125 
z
M 18.3125 54.390625 
Q 18.3125 48.734375 21.84375 45.5625 
Q 25.390625 42.390625 31.78125 42.390625 
Q 38.140625 42.390625 41.71875 45.5625 
Q 45.3125 48.734375 45.3125 54.390625 
Q 45.3125 60.0625 41.71875 63.234375 
Q 38.140625 66.40625 31.78125 66.40625 
Q 25.390625 66.40625 21.84375 63.234375 
Q 18.3125 60.0625 18.3125 54.390625 
z
" id="DejaVuSans-56"/>
      </defs>
      <g transform="translate(355.283523 399.078438)scale(0.1 -0.1)">
       <use xlink:href="#DejaVuSans-56"/>
       <use x="63.623047" xlink:href="#DejaVuSans-48"/>
       <use x="127.246094" xlink:href="#DejaVuSans-48"/>
      </g>
     </g>
    </g>
    <g id="text_6">
     <!-- time [ms] -->
     <defs>
      <path d="M 18.3125 70.21875 
L 18.3125 54.6875 
L 36.8125 54.6875 
L 36.8125 47.703125 
L 18.3125 47.703125 
L 18.3125 18.015625 
Q 18.3125 11.328125 20.140625 9.421875 
Q 21.96875 7.515625 27.59375 7.515625 
L 36.8125 7.515625 
L 36.8125 0 
L 27.59375 0 
Q 17.1875 0 13.234375 3.875 
Q 9.28125 7.765625 9.28125 18.015625 
L 9.28125 47.703125 
L 2.6875 47.703125 
L 2.6875 54.6875 
L 9.28125 54.6875 
L 9.28125 70.21875 
z
" id="DejaVuSans-116"/>
      <path d="M 9.421875 54.6875 
L 18.40625 54.6875 
L 18.40625 0 
L 9.421875 0 
z
M 9.421875 75.984375 
L 18.40625 75.984375 
L 18.40625 64.59375 
L 9.421875 64.59375 
z
" id="DejaVuSans-105"/>
      <path d="M 52 44.1875 
Q 55.375 50.25 60.0625 53.125 
Q 64.75 56 71.09375 56 
Q 79.640625 56 84.28125 50.015625 
Q 88.921875 44.046875 88.921875 33.015625 
L 88.921875 0 
L 79.890625 0 
L 79.890625 32.71875 
Q 79.890625 40.578125 77.09375 44.375 
Q 74.3125 48.1875 68.609375 48.1875 
Q 61.625 48.1875 57.5625 43.546875 
Q 53.515625 38.921875 53.515625 30.90625 
L 53.515625 0 
L 44.484375 0 
L 44.484375 32.71875 
Q 44.484375 40.625 41.703125 44.40625 
Q 38.921875 48.1875 33.109375 48.1875 
Q 26.21875 48.1875 22.15625 43.53125 
Q 18.109375 38.875 18.109375 30.90625 
L 18.109375 0 
L 9.078125 0 
L 9.078125 54.6875 
L 18.109375 54.6875 
L 18.109375 46.1875 
Q 21.1875 51.21875 25.484375 53.609375 
Q 29.78125 56 35.6875 56 
Q 41.65625 56 45.828125 52.96875 
Q 50 49.953125 52 44.1875 
z
" id="DejaVuSans-109"/>
      <path d="M 56.203125 29.59375 
L 56.203125 25.203125 
L 14.890625 25.203125 
Q 15.484375 15.921875 20.484375 11.0625 
Q 25.484375 6.203125 34.421875 6.203125 
Q 39.59375 6.203125 44.453125 7.46875 
Q 49.3125 8.734375 54.109375 11.28125 
L 54.109375 2.78125 
Q 49.265625 0.734375 44.1875 -0.34375 
Q 39.109375 -1.421875 33.890625 -1.421875 
Q 20.796875 -1.421875 13.15625 6.1875 
Q 5.515625 13.8125 5.515625 26.8125 
Q 5.515625 40.234375 12.765625 48.109375 
Q 20.015625 56 32.328125 56 
Q 43.359375 56 49.78125 48.890625 
Q 56.203125 41.796875 56.203125 29.59375 
z
M 47.21875 32.234375 
Q 47.125 39.59375 43.09375 43.984375 
Q 39.0625 48.390625 32.421875 48.390625 
Q 24.90625 48.390625 20.390625 44.140625 
Q 15.875 39.890625 15.1875 32.171875 
z
" id="DejaVuSans-101"/>
      <path id="DejaVuSans-32"/>
      <path d="M 8.59375 75.984375 
L 29.296875 75.984375 
L 29.296875 69 
L 17.578125 69 
L 17.578125 -6.203125 
L 29.296875 -6.203125 
L 29.296875 -13.1875 
L 8.59375 -13.1875 
z
" id="DejaVuSans-91"/>
      <path d="M 44.28125 53.078125 
L 44.28125 44.578125 
Q 40.484375 46.53125 36.375 47.5 
Q 32.28125 48.484375 27.875 48.484375 
Q 21.1875 48.484375 17.84375 46.4375 
Q 14.5 44.390625 14.5 40.28125 
Q 14.5 37.15625 16.890625 35.375 
Q 19.28125 33.59375 26.515625 31.984375 
L 29.59375 31.296875 
Q 39.15625 29.25 43.1875 25.515625 
Q 47.21875 21.78125 47.21875 15.09375 
Q 47.21875 7.46875 41.1875 3.015625 
Q 35.15625 -1.421875 24.609375 -1.421875 
Q 20.21875 -1.421875 15.453125 -0.5625 
Q 10.6875 0.296875 5.421875 2 
L 5.421875 11.28125 
Q 10.40625 8.6875 15.234375 7.390625 
Q 20.0625 6.109375 24.8125 6.109375 
Q 31.15625 6.109375 34.5625 8.28125 
Q 37.984375 10.453125 37.984375 14.40625 
Q 37.984375 18.0625 35.515625 20.015625 
Q 33.0625 21.96875 24.703125 23.78125 
L 21.578125 24.515625 
Q 13.234375 26.265625 9.515625 29.90625 
Q 5.8125 33.546875 5.8125 39.890625 
Q 5.8125 47.609375 11.28125 51.796875 
Q 16.75 56 26.8125 56 
Q 31.78125 56 36.171875 55.265625 
Q 40.578125 54.546875 44.28125 53.078125 
z
" id="DejaVuSans-115"/>
      <path d="M 30.421875 75.984375 
L 30.421875 -13.1875 
L 9.71875 -13.1875 
L 9.71875 -6.203125 
L 21.390625 -6.203125 
L 21.390625 69 
L 9.71875 69 
L 9.71875 75.984375 
z
" id="DejaVuSans-93"/>
     </defs>
     <g transform="translate(234.038281 412.756563)scale(0.1 -0.1)">
      <use xlink:href="#DejaVuSans-116"/>
      <use x="39.208984" xlink:href="#DejaVuSans-105"/>
      <use x="66.992188" xlink:href="#DejaVuSans-109"/>
      <use x="164.404297" xlink:href="#DejaVuSans-101"/>
      <use x="225.927734" xlink:href="#DejaVuSans-32"/>
      <use x="257.714844" xlink:href="#DejaVuSans-91"/>
      <use x="296.728516" xlink:href="#DejaVuSans-109"/>
      <use x="394.140625" xlink:href="#DejaVuSans-115"/>
      <use x="446.240234" xlink:href="#DejaVuSans-93"/>
     </g>
    </g>
   </g>
   <g id="matplotlib.axis_2">
    <g id="ytick_1">
     <g id="line2d_6">
      <defs>
       <path d="M 0 0 
L -3.5 0 
" id="m5c265b78e9" style="stroke:#000000;stroke-width:0.8;"/>
      </defs>
      <g>
       <use style="stroke:#000000;stroke-width:0.8;" x="63" xlink:href="#m5c265b78e9" y="381.860749"/>
      </g>
     </g>
     <g id="text_7">
      <!-- −80 -->
      <defs>
       <path d="M 10.59375 35.5 
L 73.1875 35.5 
L 73.1875 27.203125 
L 10.59375 27.203125 
z
" id="DejaVuSans-8722"/>
      </defs>
      <g transform="translate(34.895313 385.659968)scale(0.1 -0.1)">
       <use xlink:href="#DejaVuSans-8722"/>
       <use x="83.789062" xlink:href="#DejaVuSans-56"/>
       <use x="147.412109" xlink:href="#DejaVuSans-48"/>
      </g>
     </g>
    </g>
    <g id="ytick_2">
     <g id="line2d_7">
      <g>
       <use style="stroke:#000000;stroke-width:0.8;" x="63" xlink:href="#m5c265b78e9" y="329.235114"/>
      </g>
     </g>
     <g id="text_8">
      <!-- −60 -->
      <g transform="translate(34.895313 333.034333)scale(0.1 -0.1)">
       <use xlink:href="#DejaVuSans-8722"/>
       <use x="83.789062" xlink:href="#DejaVuSans-54"/>
       <use x="147.412109" xlink:href="#DejaVuSans-48"/>
      </g>
     </g>
    </g>
    <g id="ytick_3">
     <g id="line2d_8">
      <g>
       <use style="stroke:#000000;stroke-width:0.8;" x="63" xlink:href="#m5c265b78e9" y="276.609479"/>
      </g>
     </g>
     <g id="text_9">
      <!-- −40 -->
      <g transform="translate(34.895313 280.408698)scale(0.1 -0.1)">
       <use xlink:href="#DejaVuSans-8722"/>
       <use x="83.789062" xlink:href="#DejaVuSans-52"/>
       <use x="147.412109" xlink:href="#DejaVuSans-48"/>
      </g>
     </g>
    </g>
    <g id="ytick_4">
     <g id="line2d_9">
      <g>
       <use style="stroke:#000000;stroke-width:0.8;" x="63" xlink:href="#m5c265b78e9" y="223.983844"/>
      </g>
     </g>
     <g id="text_10">
      <!-- −20 -->
      <g transform="translate(34.895313 227.783063)scale(0.1 -0.1)">
       <use xlink:href="#DejaVuSans-8722"/>
       <use x="83.789062" xlink:href="#DejaVuSans-50"/>
       <use x="147.412109" xlink:href="#DejaVuSans-48"/>
      </g>
     </g>
    </g>
    <g id="ytick_5">
     <g id="line2d_10">
      <g>
       <use style="stroke:#000000;stroke-width:0.8;" x="63" xlink:href="#m5c265b78e9" y="171.358209"/>
      </g>
     </g>
     <g id="text_11">
      <!-- 0 -->
      <g transform="translate(49.6375 175.157427)scale(0.1 -0.1)">
       <use xlink:href="#DejaVuSans-48"/>
      </g>
     </g>
    </g>
    <g id="ytick_6">
     <g id="line2d_11">
      <g>
       <use style="stroke:#000000;stroke-width:0.8;" x="63" xlink:href="#m5c265b78e9" y="118.732574"/>
      </g>
     </g>
     <g id="text_12">
      <!-- 20 -->
      <g transform="translate(43.275 122.531792)scale(0.1 -0.1)">
       <use xlink:href="#DejaVuSans-50"/>
       <use x="63.623047" xlink:href="#DejaVuSans-48"/>
      </g>
     </g>
    </g>
    <g id="ytick_7">
     <g id="line2d_12">
      <g>
       <use style="stroke:#000000;stroke-width:0.8;" x="63" xlink:href="#m5c265b78e9" y="66.106938"/>
      </g>
     </g>
     <g id="text_13">
      <!-- 40 -->
      <g transform="translate(43.275 69.906157)scale(0.1 -0.1)">
       <use xlink:href="#DejaVuSans-52"/>
       <use x="63.623047" xlink:href="#DejaVuSans-48"/>
      </g>
     </g>
    </g>
    <g id="text_14">
     <!-- voltage [mV] -->
     <defs>
      <path d="M 2.984375 54.6875 
L 12.5 54.6875 
L 29.59375 8.796875 
L 46.6875 54.6875 
L 56.203125 54.6875 
L 35.6875 0 
L 23.484375 0 
z
" id="DejaVuSans-118"/>
      <path d="M 30.609375 48.390625 
Q 23.390625 48.390625 19.1875 42.75 
Q 14.984375 37.109375 14.984375 27.296875 
Q 14.984375 17.484375 19.15625 11.84375 
Q 23.34375 6.203125 30.609375 6.203125 
Q 37.796875 6.203125 41.984375 11.859375 
Q 46.1875 17.53125 46.1875 27.296875 
Q 46.1875 37.015625 41.984375 42.703125 
Q 37.796875 48.390625 30.609375 48.390625 
z
M 30.609375 56 
Q 42.328125 56 49.015625 48.375 
Q 55.71875 40.765625 55.71875 27.296875 
Q 55.71875 13.875 49.015625 6.21875 
Q 42.328125 -1.421875 30.609375 -1.421875 
Q 18.84375 -1.421875 12.171875 6.21875 
Q 5.515625 13.875 5.515625 27.296875 
Q 5.515625 40.765625 12.171875 48.375 
Q 18.84375 56 30.609375 56 
z
" id="DejaVuSans-111"/>
      <path d="M 9.421875 75.984375 
L 18.40625 75.984375 
L 18.40625 0 
L 9.421875 0 
z
" id="DejaVuSans-108"/>
      <path d="M 34.28125 27.484375 
Q 23.390625 27.484375 19.1875 25 
Q 14.984375 22.515625 14.984375 16.5 
Q 14.984375 11.71875 18.140625 8.90625 
Q 21.296875 6.109375 26.703125 6.109375 
Q 34.1875 6.109375 38.703125 11.40625 
Q 43.21875 16.703125 43.21875 25.484375 
L 43.21875 27.484375 
z
M 52.203125 31.203125 
L 52.203125 0 
L 43.21875 0 
L 43.21875 8.296875 
Q 40.140625 3.328125 35.546875 0.953125 
Q 30.953125 -1.421875 24.3125 -1.421875 
Q 15.921875 -1.421875 10.953125 3.296875 
Q 6 8.015625 6 15.921875 
Q 6 25.140625 12.171875 29.828125 
Q 18.359375 34.515625 30.609375 34.515625 
L 43.21875 34.515625 
L 43.21875 35.40625 
Q 43.21875 41.609375 39.140625 45 
Q 35.0625 48.390625 27.6875 48.390625 
Q 23 48.390625 18.546875 47.265625 
Q 14.109375 46.140625 10.015625 43.890625 
L 10.015625 52.203125 
Q 14.9375 54.109375 19.578125 55.046875 
Q 24.21875 56 28.609375 56 
Q 40.484375 56 46.34375 49.84375 
Q 52.203125 43.703125 52.203125 31.203125 
z
" id="DejaVuSans-97"/>
      <path d="M 45.40625 27.984375 
Q 45.40625 37.75 41.375 43.109375 
Q 37.359375 48.484375 30.078125 48.484375 
Q 22.859375 48.484375 18.828125 43.109375 
Q 14.796875 37.75 14.796875 27.984375 
Q 14.796875 18.265625 18.828125 12.890625 
Q 22.859375 7.515625 30.078125 7.515625 
Q 37.359375 7.515625 41.375 12.890625 
Q 45.40625 18.265625 45.40625 27.984375 
z
M 54.390625 6.78125 
Q 54.390625 -7.171875 48.1875 -13.984375 
Q 42 -20.796875 29.203125 -20.796875 
Q 24.46875 -20.796875 20.265625 -20.09375 
Q 16.0625 -19.390625 12.109375 -17.921875 
L 12.109375 -9.1875 
Q 16.0625 -11.328125 19.921875 -12.34375 
Q 23.78125 -13.375 27.78125 -13.375 
Q 36.625 -13.375 41.015625 -8.765625 
Q 45.40625 -4.15625 45.40625 5.171875 
L 45.40625 9.625 
Q 42.625 4.78125 38.28125 2.390625 
Q 33.9375 0 27.875 0 
Q 17.828125 0 11.671875 7.65625 
Q 5.515625 15.328125 5.515625 27.984375 
Q 5.515625 40.671875 11.671875 48.328125 
Q 17.828125 56 27.875 56 
Q 33.9375 56 38.28125 53.609375 
Q 42.625 51.21875 45.40625 46.390625 
L 45.40625 54.6875 
L 54.390625 54.6875 
z
" id="DejaVuSans-103"/>
      <path d="M 28.609375 0 
L 0.78125 72.90625 
L 11.078125 72.90625 
L 34.1875 11.53125 
L 57.328125 72.90625 
L 67.578125 72.90625 
L 39.796875 0 
z
" id="DejaVuSans-86"/>
     </defs>
     <g transform="translate(28.815625 250.624062)rotate(-90)scale(0.1 -0.1)">
      <use xlink:href="#DejaVuSans-118"/>
      <use x="59.179688" xlink:href="#DejaVuSans-111"/>
      <use x="120.361328" xlink:href="#DejaVuSans-108"/>
      <use x="148.144531" xlink:href="#DejaVuSans-116"/>
      <use x="187.353516" xlink:href="#DejaVuSans-97"/>
      <use x="248.632812" xlink:href="#DejaVuSans-103"/>
      <use x="312.109375" xlink:href="#DejaVuSans-101"/>
      <use x="373.632812" xlink:href="#DejaVuSans-32"/>
      <use x="405.419922" xlink:href="#DejaVuSans-91"/>
      <use x="444.433594" xlink:href="#DejaVuSans-109"/>
      <use x="541.845703" xlink:href="#DejaVuSans-86"/>
      <use x="610.253906" xlink:href="#DejaVuSans-93"/>
     </g>
    </g>
   </g>
   <g id="line2d_13">
    <path clip-path="url(#p88022f5857)" d="M 80.754545 342.391523 
L 81.952977 342.254959 
L 83.772818 342.312058 
L 85.965505 342.331003 
L 151.772727 342.32232 
L 152.314241 297.691045 
L 152.420768 248.937867 
L 152.562805 66.96 
L 152.678209 92.238724 
L 153.565936 368.943261 
L 153.610323 368.842483 
L 153.8145 367.46027 
L 154.293873 362.695019 
L 154.959668 353.551578 
L 157.42755 314.565981 
L 157.613973 303.411715 
L 157.738255 281.392886 
L 157.835905 218.684705 
L 157.969064 91.380137 
L 158.031205 104.564437 
L 158.883423 368.517782 
L 158.945564 368.333856 
L 159.203005 366.349869 
L 159.717886 360.663143 
L 160.534595 348.707125 
L 161.8218 330.532862 
L 162.514227 320.141141 
L 162.771668 312.602256 
L 162.940336 300.581771 
L 163.064618 272.547569 
L 163.162268 187.94352 
L 163.268795 92.302664 
L 163.322059 101.838955 
L 163.863573 297.412129 
L 164.147645 368.340697 
L 164.183155 368.485944 
L 164.245295 368.304122 
L 164.493859 366.395917 
L 165.008741 360.728925 
L 165.834327 348.6495 
L 167.112655 330.607591 
L 167.813959 320.105619 
L 168.0714 312.556998 
L 168.240068 300.497044 
L 168.36435 272.300755 
L 168.462 187.196104 
L 168.568527 92.379761 
L 168.621791 102.061562 
L 169.172182 301.373524 
L 169.4385 368.254654 
L 169.482886 368.483839 
L 169.545027 368.29807 
L 169.802468 366.305927 
L 170.31735 360.601308 
L 171.151814 348.359796 
L 172.430141 330.364197 
L 173.113691 320.0872 
L 173.371132 312.520423 
L 173.5398 300.401002 
L 173.664082 271.961846 
L 173.761732 186.041998 
L 173.868259 92.396601 
L 173.921523 102.298114 
L 174.480791 305.454642 
L 174.729355 368.14493 
L 174.782618 368.483839 
L 174.844759 368.29386 
L 175.1022 366.298559 
L 175.617082 360.59052 
L 176.451545 348.346903 
L 177.729873 330.353409 
L 178.413423 320.07036 
L 178.670864 312.484374 
L 178.839532 300.303645 
L 178.963814 271.61399 
L 179.061464 184.854105 
L 179.167991 92.413967 
L 179.221255 102.537297 
L 179.7894 309.639169 
L 180.029086 368.157297 
L 180.08235 368.484102 
L 180.144491 368.289387 
L 180.401932 366.291192 
L 180.916814 360.579995 
L 181.751277 348.334536 
L 183.029605 330.342884 
L 183.713155 320.053256 
L 183.970595 312.448063 
L 184.139264 300.205235 
L 184.263545 271.257978 
L 184.361195 183.645321 
L 184.467723 92.437912 
L 184.520986 102.780165 
L 185.098009 313.915792 
L 185.328818 368.169401 
L 185.382082 368.484102 
L 185.444223 368.285177 
L 185.701664 366.283561 
L 186.216545 360.56947 
L 187.051009 348.321906 
L 188.329336 330.332358 
L 189.012886 320.036416 
L 189.270327 312.411488 
L 189.438995 300.105246 
L 189.563277 270.896703 
L 189.660927 182.431721 
L 189.767455 92.467645 
L 189.820718 103.0254 
L 190.406618 318.264774 
L 190.619673 368.035205 
L 190.681814 368.483839 
L 190.743955 368.280704 
L 191.010273 366.194624 
L 191.525155 360.443694 
L 192.368495 348.035622 
L 193.637945 330.206057 
L 194.312618 320.01905 
L 194.570059 312.374913 
L 194.738727 300.004731 
L 194.863009 270.532007 
L 194.969536 167.821371 
L 195.058309 92.454226 
L 195.12045 103.273267 
L 195.715227 322.660067 
L 195.919405 368.05073 
L 195.981545 368.483839 
L 196.043686 368.276231 
L 196.310005 366.186993 
L 196.833764 360.317393 
L 197.703736 347.476475 
L 198.955432 329.964242 
L 199.61235 320.001946 
L 199.869791 312.337812 
L 200.038459 299.903164 
L 200.162741 270.159944 
L 200.269268 166.554909 
L 200.358041 92.424755 
L 200.420182 103.525344 
L 201.023836 327.06457 
L 201.219136 368.065465 
L 201.281277 368.483313 
L 201.343418 368.271758 
L 201.609736 366.179362 
L 202.133495 360.306341 
L 202.994591 347.600145 
L 204.255164 329.953454 
L 204.912082 319.984317 
L 205.169523 312.300185 
L 205.338191 299.800018 
L 205.462473 269.78025 
L 205.569 165.279948 
L 205.657773 92.40239 
L 205.719914 103.779262 
L 206.332445 331.430129 
L 206.518868 368.0802 
L 206.581009 368.48305 
L 206.634273 368.313858 
L 206.873959 366.494327 
L 207.388841 360.869173 
L 208.187795 349.229435 
L 209.510509 330.519706 
L 210.202936 320.151666 
L 210.460377 312.656197 
L 210.629045 300.765698 
L 210.753327 273.256173 
L 210.850977 190.51044 
L 210.957505 92.387128 
L 211.019645 104.034234 
L 211.641055 335.702541 
L 211.827477 368.226236 
L 211.880741 368.482523 
L 211.934005 368.309648 
L 212.182568 366.406968 
L 212.69745 360.744713 
L 213.514159 348.805535 
L 214.810241 330.508917 
L 215.502668 320.134563 
L 215.760109 312.620148 
L 215.928777 300.66913 
L 216.053059 272.915949 
L 216.150709 189.328468 
L 216.257236 92.380813 
L 216.319377 104.288679 
L 216.949664 339.818129 
L 217.127209 368.236762 
L 217.171595 368.48305 
L 217.233736 368.305438 
L 217.4823 366.399601 
L 217.997182 360.734188 
L 218.822768 348.655815 
L 220.101095 330.613379 
L 220.8024 320.11746 
L 221.059841 312.584363 
L 221.228509 300.572825 
L 221.352791 272.574408 
L 221.450441 188.147076 
L 221.556968 92.381339 
L 221.610232 101.876056 
L 222.151745 297.467649 
L 222.426941 368.24676 
L 222.471327 368.483313 
L 222.533468 368.301228 
L 222.782032 366.392233 
L 223.296914 360.723663 
L 224.1225 348.642922 
L 225.418582 330.372354 
L 226.111009 319.914851 
L 226.36845 312.150465 
L 226.537118 299.385591 
L 226.652523 272.230237 
L 226.750173 186.960973 
L 226.8567 92.387391 
L 226.909964 102.114187 
L 227.460355 301.449042 
L 227.726673 368.256496 
L 227.771059 368.483839 
L 227.8332 368.297018 
L 228.090641 366.304085 
L 228.605523 360.598677 
L 229.439986 348.356639 
L 230.718314 330.361566 
L 231.401864 320.083253 
L 231.659305 312.512003 
L 231.827973 300.378899 
L 231.952255 271.883697 
L 232.049905 185.774659 
L 232.156432 92.400285 
L 232.209695 102.352055 
L 232.768964 305.533317 
L 233.017527 368.147824 
L 233.070791 368.483839 
L 233.132932 368.292808 
L 233.390373 366.296718 
L 233.905255 360.588152 
L 234.739718 348.344008 
L 236.018045 330.351041 
L 236.701595 320.066413 
L 236.959036 312.476217 
L 237.127705 300.281542 
L 237.251986 271.534 
L 237.349636 184.581557 
L 237.456164 92.418703 
L 237.509427 102.592291 
L 238.077573 309.720213 
L 238.317259 368.159928 
L 238.370523 368.484102 
L 238.432664 368.288598 
L 238.690105 366.28935 
L 239.204986 360.577627 
L 240.03945 348.331641 
L 241.317777 330.340515 
L 242.001327 320.049573 
L 242.258768 312.439906 
L 242.427436 300.182606 
L 242.551718 271.176145 
L 242.649368 183.369957 
L 242.755895 92.444227 
L 242.809159 102.835685 
L 243.386182 313.998677 
L 243.616991 368.172032 
L 243.670255 368.484102 
L 243.732395 368.284125 
L 243.989836 366.281982 
L 244.504718 360.567101 
L 245.348059 348.182185 
L 246.617509 330.329727 
L 247.301059 320.032469 
L 247.5585 312.403331 
L 247.727168 300.082354 
L 247.85145 270.814344 
L 247.9491 182.155173 
L 248.055627 92.475539 
L 248.108891 103.081447 
L 248.694791 318.349501 
L 248.907845 368.038889 
L 248.969986 368.483839 
L 249.032127 368.279915 
L 249.298445 366.193045 
L 249.822205 360.325813 
L 250.692177 347.486474 
L 251.943873 329.972662 
L 252.600791 320.015103 
L 252.858232 312.366493 
L 253.0269 299.981576 
L 253.151182 270.447806 
L 253.257709 167.533035 
L 253.346482 92.446858 
L 253.408623 103.330629 
L 254.0034 322.746373 
L 254.207577 368.054151 
L 254.269718 368.483576 
L 254.331859 368.275441 
L 254.598177 366.185414 
L 255.121936 360.314762 
L 255.983032 347.610144 
L 257.22585 330.192901 
L 257.900523 319.997999 
L 258.157964 312.329392 
L 258.326632 299.879745 
L 258.450914 270.073901 
L 258.557441 166.263968 
L 258.646214 92.418967 
L 258.708355 103.583495 
L 259.312009 327.150876 
L 259.507309 368.068886 
L 259.56945 368.483313 
L 259.631591 368.270705 
L 259.897909 366.17752 
L 260.421668 360.303973 
L 261.291641 347.46095 
L 262.525582 330.182112 
L 263.200255 319.98037 
L 263.457695 312.291765 
L 263.626364 299.776336 
L 263.750645 269.692892 
L 263.857173 164.988481 
L 263.945945 92.398179 
L 264.008086 103.837414 
L 264.620618 331.51512 
L 264.807041 368.083621 
L 264.869182 368.482786 
L 264.922445 368.313069 
L 265.171009 366.412757 
L 265.685891 360.753133 
L 266.511477 348.678444 
L 267.807559 330.402087 
L 268.499986 319.963003 
L 268.757427 312.254137 
L 268.926095 299.672927 
L 269.050377 269.311882 
L 269.156905 163.722492 
L 269.245677 92.385023 
L 269.298941 101.456367 
L 269.8227 289.889295 
L 270.133405 368.395428 
L 270.168914 368.482523 
L 270.222177 368.308859 
L 270.470741 366.405389 
L 270.985623 360.742345 
L 271.802332 348.802641 
L 273.098414 330.506549 
L 273.790841 320.130616 
L 274.048282 312.611992 
L 274.21695 300.64729 
L 274.341232 272.838063 
L 274.438882 189.058078 
L 274.545409 92.38055 
L 274.598673 101.692919 
L 275.131309 293.665447 
L 275.424259 368.33333 
L 275.459768 368.48305 
L 275.521909 368.304649 
L 275.770473 366.398022 
L 276.285355 360.73182 
L 277.110941 348.652921 
L 278.389268 330.611011 
L 279.090573 320.113513 
L 279.348014 312.575943 
L 279.516682 300.550722 
L 279.640964 272.495996 
L 279.738614 187.87658 
L 279.845141 92.381866 
L 279.898405 101.930524 
L 280.439918 297.543693 
L 280.715114 368.248865 
L 280.7595 368.483576 
L 280.821641 368.300439 
L 281.079082 366.309874 
L 281.593964 360.606834 
L 282.428427 348.366374 
L 283.706755 330.369723 
L 284.390305 320.096409 
L 284.647745 312.539894 
L 284.816414 300.453891 
L 284.940695 272.151298 
L 285.038345 186.690372 
L 285.144873 92.389759 
L 285.198136 102.168392 
L 285.748527 301.526138 
L 286.014845 368.258601 
L 286.059232 368.483839 
L 286.121373 368.295965 
L 286.378814 366.302506 
L 286.893695 360.596309 
L 287.728159 348.353744 
L 289.006486 330.359198 
L 289.690036 320.079569 
L 289.947477 312.503846 
L 290.116145 300.356797 
L 290.240427 271.804232 
L 290.338077 185.503164 
L 290.444605 92.403968 
L 290.497868 102.406523 
L 291.057136 305.612782 
L 291.3057 368.150719 
L 291.358964 368.484102 
L 291.421105 368.291755 
L 291.678545 366.295139 
L 292.193427 360.585784 
L 293.027891 348.341114 
L 294.315095 330.233159 
L 294.989768 320.062466 
L 295.247209 312.467797 
L 295.415877 300.259176 
L 295.540159 271.452956 
L 295.637809 184.306141 
L 295.744336 92.423966 
L 295.7976 102.647548 
L 296.365745 309.801783 
L 296.605432 368.162823 
L 296.658695 368.484102 
L 296.720836 368.287545 
L 296.978277 366.287771 
L 297.493159 360.575258 
L 298.327623 348.328747 
L 299.60595 330.338147 
L 300.2895 320.045626 
L 300.546941 312.431486 
L 300.715609 300.159714 
L 300.839891 271.094049 
L 300.937541 183.094199 
L 301.044068 92.450805 
L 301.097332 102.891205 
L 301.674355 314.081562 
L 301.905164 368.174663 
L 301.958427 368.484102 
L 302.020568 368.283335 
L 302.286886 366.198834 
L 302.810645 360.33397 
L 303.671741 347.632773 
L 304.914559 330.212109 
L 305.589232 320.028522 
L 305.846673 312.394911 
L 306.015341 300.059725 
L 306.139623 270.731722 
L 306.24615 168.507083 
L 306.334923 92.472908 
L 306.397064 103.137756 
L 306.982964 318.434229 
L 307.196018 368.04231 
L 307.258159 368.483839 
L 307.3203 368.278862 
L 307.586618 366.191203 
L 308.110377 360.323182 
L 308.971473 347.620143 
L 310.214291 330.201321 
L 310.888964 320.011419 
L 311.146405 312.358073 
L 311.315073 299.958684 
L 311.439355 270.363342 
L 311.545882 167.245726 
L 311.634655 92.440017 
L 311.696795 103.387728 
L 312.291573 322.832153 
L 312.49575 368.057571 
L 312.557891 368.483576 
L 312.620032 368.274389 
L 312.88635 366.183572 
L 313.410109 360.312393 
L 314.280082 347.470686 
L 315.531777 329.959243 
L 316.188695 319.993789 
L 316.446136 312.320709 
L 316.614805 299.856327 
L 316.739086 269.988121 
L 316.845614 165.974133 
L 316.934386 92.413704 
L 316.996527 103.64112 
L 317.600182 327.236919 
L 317.795482 368.072306 
L 317.857623 368.483313 
L 317.910886 368.316226 
L 318.150573 366.498274 
L 318.665455 360.874961 
L 319.464409 349.236276 
L 320.787123 330.525758 
L 321.488427 319.976423 
L 321.745868 312.283081 
L 321.914536 299.752654 
L 322.038818 269.605796 
L 322.145345 164.698408 
L 322.234118 92.394496 
L 322.296259 103.895565 
L 322.908791 331.599847 
L 323.095214 368.087042 
L 323.157355 368.482786 
L 323.210618 368.312016 
L 323.459182 366.411178 
L 323.974064 360.750502 
L 324.790773 348.812377 
L 326.095732 330.399456 
L 326.779282 320.143772 
L 327.036723 312.639883 
L 327.205391 300.721756 
L 327.329673 273.101191 
L 327.427323 189.971554 
L 327.53385 92.383181 
L 327.595991 104.150273 
L 328.2174 335.866207 
L 328.403823 368.230973 
L 328.457086 368.48226 
L 328.51035 368.307806 
L 328.758914 366.403548 
L 329.273795 360.739977 
L 329.318182 360.163463 
L 329.335936 361.067045 
L 329.531236 365.073961 
L 329.620009 365.262624 
L 329.664395 365.204999 
L 329.815309 364.595594 
L 330.214786 361.766703 
L 332.176664 346.947061 
L 332.869091 343.711374 
L 333.428359 342.04893 
L 333.889977 341.302698 
L 334.262823 341.074829 
L 334.609036 341.111667 
L 335.061777 341.401898 
L 336.553159 342.496511 
L 337.156814 342.593605 
L 338.097805 342.483091 
L 339.580309 342.28785 
L 342.101455 342.324162 
L 345.714505 342.320215 
L 435.845455 342.32232 
L 435.845455 342.32232 
" style="fill:none;stroke:#1f77b4;stroke-linecap:square;stroke-width:1.5;"/>
   </g>
   <g id="line2d_14">
    <path clip-path="url(#p88022f5857)" d="M 80.754545 342.391523 
L 81.127391 332.3427 
L 81.606764 319.76902 
L 81.784309 307.589601 
L 81.899714 281.945323 
L 81.988486 195.992303 
L 82.095014 68.860643 
L 82.157155 78.861571 
L 82.458982 182.112636 
L 83.098145 369.36 
L 83.107023 369.351992 
L 83.195795 368.969371 
L 83.60415 365.929092 
L 84.252191 359.315192 
L 85.708064 344.089087 
L 86.418245 339.141424 
L 87.048532 336.17951 
L 87.554536 334.736542 
L 87.936259 334.229504 
L 88.246964 334.144736 
L 88.566545 334.306381 
L 89.161323 334.936505 
L 89.773855 335.432887 
L 90.270982 335.551581 
L 90.9279 335.451513 
L 92.339386 335.207502 
L 93.981682 335.275457 
L 96.88455 335.27137 
L 151.772727 335.275846 
L 152.314241 291.185418 
L 152.411891 234.248455 
L 152.54505 74.654264 
L 152.633823 92.623269 
L 153.308495 334.918677 
L 153.486041 366.803675 
L 153.512673 366.893141 
L 153.565936 366.665057 
L 153.850009 363.853251 
L 154.462541 355.593411 
L 156.069327 333.015758 
L 157.196741 318.651045 
L 157.436427 311.532917 
L 157.596218 299.186661 
L 157.711623 269.479303 
L 157.809273 169.391042 
L 157.898045 91.807082 
L 157.960186 101.779238 
L 158.492823 286.411145 
L 158.812405 366.53424 
L 158.856791 366.370678 
L 159.0876 364.140644 
L 159.682377 356.243916 
L 161.386814 332.44368 
L 162.487595 318.641508 
L 162.727282 311.818587 
L 162.887073 300.360815 
L 163.002477 274.191179 
L 163.100127 186.934313 
L 163.206655 92.443659 
L 163.259918 101.828643 
L 163.757045 273.90503 
L 164.112136 366.507144 
L 164.129891 366.475303 
L 164.245295 365.600926 
L 164.724668 359.897598 
L 167.964873 314.162445 
L 168.142418 304.844446 
L 168.275577 283.594454 
L 168.373227 223.126645 
L 168.506386 92.487505 
L 168.577405 106.992634 
L 169.411868 366.505133 
L 169.500641 366.005981 
L 169.891241 361.657581 
L 170.663564 350.346709 
L 171.764345 335.001086 
L 173.166955 316.90283 
L 173.380009 309.170438 
L 173.530923 293.862066 
L 173.63745 255.231534 
L 173.806118 92.489332 
L 173.921523 121.941173 
L 174.702723 366.495481 
L 174.7116 366.504981 
L 174.747109 366.394713 
L 174.942409 364.597211 
L 175.510555 357.252668 
L 177.410291 331.018039 
L 178.351282 319.301435 
L 178.608723 312.555027 
L 178.777391 301.410985 
L 178.901673 274.325551 
L 178.999323 187.508622 
L 179.10585 92.488064 
L 179.159114 101.779366 
L 179.647364 270.838065 
L 180.011332 366.504965 
L 180.037964 366.439209 
L 180.188877 365.158738 
L 180.721514 358.535328 
L 182.949709 328.367383 
L 183.633259 319.621095 
L 183.8907 313.23785 
L 184.059368 303.256051 
L 184.18365 280.898893 
L 184.2813 212.595341 
L 184.405582 92.486608 
L 184.467723 104.266541 
L 185.0625 315.61907 
L 185.284432 366.40309 
L 185.311064 366.504959 
L 185.364327 366.28528 
L 185.630645 363.606016 
L 186.252055 355.135976 
L 187.778945 333.643247 
L 189.012886 318.095385 
L 189.243695 311.022228 
L 189.403486 298.11433 
L 189.518891 266.073115 
L 189.625418 146.031888 
L 189.705314 92.485182 
L 189.758577 101.742833 
L 190.246827 270.792934 
L 190.610795 366.50495 
L 190.637427 366.4398 
L 190.788341 365.16011 
L 191.320977 358.537232 
L 193.549173 328.36886 
L 194.232723 319.623448 
L 194.490164 313.242768 
L 194.658832 303.268924 
L 194.783114 280.942479 
L 194.880764 212.765541 
L 195.005045 92.483788 
L 195.067186 104.227824 
L 195.661964 315.559272 
L 195.883895 366.401928 
L 195.910527 366.504942 
L 195.963791 366.286189 
L 196.230109 363.60755 
L 196.851518 355.137988 
L 198.378409 333.644791 
L 199.61235 318.098131 
L 199.843159 311.028445 
L 200.00295 298.132673 
L 200.118355 266.142568 
L 200.224882 146.230692 
L 200.304777 92.482452 
L 200.358041 101.707083 
L 200.837414 267.785277 
L 201.210259 366.504933 
L 201.236891 366.440379 
L 201.387805 365.161457 
L 201.920441 358.539102 
L 204.148636 328.370311 
L 204.832186 319.625755 
L 205.098505 312.914469 
L 205.267173 302.396585 
L 205.391455 277.911995 
L 205.489105 201.002484 
L 205.604509 92.481163 
L 205.657773 101.689456 
L 206.137145 267.763726 
L 206.509991 366.504924 
L 206.536623 366.440664 
L 206.687536 365.162121 
L 207.220173 358.540025 
L 209.448368 328.371027 
L 210.131918 319.626894 
L 210.398236 312.91694 
L 210.566905 302.40325 
L 210.691186 277.935608 
L 210.788836 201.092967 
L 210.904241 92.47992 
L 210.957505 101.671989 
L 211.436877 267.742364 
L 211.809723 366.504914 
L 211.836355 366.440947 
L 211.987268 365.16278 
L 212.519905 358.54094 
L 214.7481 328.371737 
L 215.43165 319.628025 
L 215.697968 312.919392 
L 215.866636 302.40986 
L 215.990918 277.959028 
L 216.088568 201.182799 
L 216.203973 92.478686 
L 216.257236 101.65463 
L 216.736609 267.721141 
L 217.109455 366.504905 
L 217.136086 366.441228 
L 217.287 365.163436 
L 217.819636 358.54185 
L 220.047832 328.372443 
L 220.731382 319.629148 
L 220.9977 312.921827 
L 221.166368 302.416425 
L 221.29065 277.982281 
L 221.3883 201.272017 
L 221.503705 92.477481 
L 221.565845 104.134081 
L 222.151745 311.461755 
L 222.382555 366.399094 
L 222.409186 366.504895 
L 222.46245 366.288395 
L 222.728768 363.611275 
L 223.350177 355.142872 
L 224.885945 333.545435 
L 226.111009 318.104801 
L 226.341818 311.043548 
L 226.501609 298.177216 
L 226.617014 266.311182 
L 226.723541 146.714969 
L 226.803436 92.476318 
L 226.8567 101.620321 
L 227.327195 264.752908 
L 227.708918 366.504886 
L 227.744427 366.398219 
L 227.93085 364.69963 
L 228.490118 357.521475 
L 230.451995 330.531282 
L 231.339723 319.473666 
L 231.597164 312.926637 
L 231.765832 302.429391 
L 231.890114 278.028202 
L 231.987764 201.448394 
L 232.103168 92.475195 
L 232.165309 104.097585 
L 232.751209 311.406304 
L 232.982018 366.397986 
L 233.00865 366.504877 
L 233.061914 366.289256 
L 233.328232 363.612728 
L 233.949641 355.144777 
L 235.485409 333.546895 
L 236.710473 318.107401 
L 236.941282 311.049434 
L 237.101073 298.194567 
L 237.216477 266.376838 
L 237.323005 146.90474 
L 237.4029 92.474108 
L 237.456164 101.586447 
L 237.926659 264.71193 
L 238.308382 366.504867 
L 238.343891 366.398893 
L 238.530314 364.700972 
L 239.089582 357.523301 
L 241.051459 330.532675 
L 241.939186 319.4759 
L 242.196627 312.931399 
L 242.365295 302.442222 
L 242.489577 278.073637 
L 242.587227 201.623303 
L 242.702632 92.473066 
L 242.764773 104.061386 
L 243.350673 311.351266 
L 243.581482 366.396885 
L 243.608114 366.504858 
L 243.661377 366.290112 
L 243.927695 363.614172 
L 244.549105 355.146672 
L 246.084873 333.548347 
L 247.309936 318.109987 
L 247.540745 311.055284 
L 247.700536 298.211812 
L 247.815941 266.442088 
L 247.922468 147.094457 
L 248.002364 92.472108 
L 248.055627 101.55269 
L 248.526123 264.671024 
L 248.907845 366.504847 
L 248.943355 366.399565 
L 249.129777 364.702311 
L 249.689045 357.525123 
L 251.650923 330.534066 
L 252.53865 319.478133 
L 252.796091 312.936158 
L 252.964759 302.455047 
L 253.089041 278.119044 
L 253.186691 201.798366 
L 253.302095 92.471185 
L 253.364236 104.025086 
L 253.950136 311.296025 
L 254.180945 366.395773 
L 254.207577 366.504835 
L 254.260841 366.290968 
L 254.527159 363.615621 
L 255.148568 355.148572 
L 256.684336 333.549803 
L 257.9094 318.112583 
L 258.140209 311.061161 
L 258.3 298.229134 
L 258.415405 266.507615 
L 258.521932 147.285569 
L 258.601827 92.470293 
L 258.655091 101.51879 
L 259.116709 261.734046 
L 259.507309 366.504822 
L 259.542818 366.400237 
L 259.729241 364.703654 
L 260.288509 357.526951 
L 262.250386 330.535461 
L 263.138114 319.480373 
L 263.395555 312.940935 
L 263.564223 302.467917 
L 263.688505 278.164569 
L 263.786155 201.973852 
L 263.901559 92.469423 
L 263.9637 103.98875 
L 264.5496 311.240748 
L 264.780409 366.394654 
L 264.807041 366.504808 
L 264.869182 366.228799 
L 265.171009 363.096587 
L 265.827927 353.932173 
L 267.212782 334.381767 
L 268.535495 317.543549 
L 268.757427 310.19497 
L 268.908341 296.968901 
L 269.023745 261.635828 
L 269.148027 113.376966 
L 269.201291 92.468573 
L 269.263432 103.970685 
L 269.849332 311.213284 
L 270.080141 366.394097 
L 270.106773 366.504795 
L 270.168914 366.229259 
L 270.470741 363.097329 
L 271.127659 353.93313 
L 272.512514 334.382503 
L 273.835227 317.544929 
L 274.057159 310.19817 
L 274.208073 296.97823 
L 274.323477 261.672663 
L 274.447759 113.437208 
L 274.501023 92.467783 
L 274.563164 103.952718 
L 275.149064 311.185991 
L 275.379873 366.393542 
L 275.406505 366.50478 
L 275.468645 366.229715 
L 275.770473 363.098066 
L 276.427391 353.934079 
L 277.812245 334.383233 
L 279.134959 317.5463 
L 279.356891 310.201349 
L 279.507805 296.987497 
L 279.623209 261.709254 
L 279.747491 113.497192 
L 279.800755 92.46704 
L 279.862895 103.934861 
L 280.448795 311.15884 
L 280.679605 366.392987 
L 280.706236 366.504764 
L 280.768377 366.230168 
L 281.070205 363.098798 
L 281.727123 353.935023 
L 283.111977 334.383959 
L 284.434691 317.547664 
L 284.656623 310.204513 
L 284.807536 296.996697 
L 284.922941 261.745571 
L 285.047223 113.557066 
L 285.100486 92.466345 
L 285.162627 103.917057 
L 285.748527 311.13175 
L 285.979336 366.392434 
L 286.005968 366.504749 
L 286.068109 366.230621 
L 286.369936 363.09953 
L 287.026855 353.935965 
L 288.411709 334.384684 
L 289.734423 317.549027 
L 289.956355 310.207673 
L 290.107268 297.005864 
L 290.222673 261.781746 
L 290.346955 113.616799 
L 290.400218 92.465684 
L 290.462359 103.899331 
L 291.048259 311.104773 
L 291.279068 366.391882 
L 291.3057 366.504733 
L 291.367841 366.231072 
L 291.669668 363.100259 
L 292.326586 353.936905 
L 293.711441 334.385407 
L 295.034155 317.550385 
L 295.256086 310.210821 
L 295.407 297.014999 
L 295.522405 261.817793 
L 295.646686 113.676405 
L 295.69995 92.465065 
L 295.762091 103.88168 
L 296.347991 311.077894 
L 296.5788 366.391331 
L 296.605432 366.504717 
L 296.667573 366.23152 
L 296.9694 363.100984 
L 297.626318 353.93784 
L 299.011173 334.386126 
L 300.333886 317.551739 
L 300.555818 310.213961 
L 300.706732 297.024109 
L 300.822136 261.853737 
L 300.946418 113.735924 
L 300.999682 92.46448 
L 301.061823 103.864095 
L 301.647723 311.051113 
L 301.878532 366.390781 
L 301.905164 366.5047 
L 301.967305 366.231968 
L 302.269132 363.101708 
L 302.92605 353.938772 
L 304.310905 334.386844 
L 305.633618 317.553089 
L 305.85555 310.217092 
L 306.006464 297.033192 
L 306.121868 261.889575 
L 306.237273 123.51435 
L 306.299414 92.463937 
L 306.361555 103.846566 
L 306.947455 311.024406 
L 307.178264 366.390231 
L 307.204895 366.504683 
L 307.267036 366.232413 
L 307.568864 363.102429 
L 308.225782 353.939702 
L 309.610636 334.387559 
L 310.93335 317.554436 
L 311.155282 310.220217 
L 311.306195 297.042256 
L 311.4216 261.925335 
L 311.537005 123.587665 
L 311.599145 92.463458 
L 311.661286 103.829048 
L 312.247186 310.997689 
L 312.477995 366.389679 
L 312.504627 366.504664 
L 312.566768 366.232858 
L 312.868595 363.103149 
L 313.525514 353.94063 
L 314.910368 334.388274 
L 316.233082 317.555784 
L 316.455014 310.223344 
L 316.605927 297.051329 
L 316.721332 261.961129 
L 316.836736 123.66122 
L 316.898877 92.463005 
L 316.961018 103.811501 
L 317.538041 307.105066 
L 317.777727 366.389124 
L 317.804359 366.504644 
L 317.8665 366.233304 
L 318.168327 363.103871 
L 318.825245 353.941561 
L 320.2101 334.388991 
L 321.532814 317.557136 
L 321.754745 310.22648 
L 321.905659 297.060424 
L 322.021064 261.99701 
L 322.136468 123.735216 
L 322.198609 92.462571 
L 322.26075 103.793868 
L 322.837773 307.078718 
L 323.077459 366.388567 
L 323.104091 366.504625 
L 323.166232 366.233753 
L 323.468059 363.104598 
L 324.124977 353.942498 
L 325.509832 334.389712 
L 326.832545 317.558494 
L 327.054477 310.22963 
L 327.205391 297.06956 
L 327.320795 262.033045 
L 327.4362 123.809907 
L 327.498341 92.462187 
L 327.560482 103.77612 
L 328.137505 307.052224 
L 328.377191 366.388 
L 328.403823 366.504602 
L 328.465964 366.234203 
L 328.767791 363.105329 
L 329.318182 355.563934 
L 329.362568 357.334917 
L 329.495727 358.8355 
L 329.522359 358.800452 
L 329.628886 358.203391 
L 330.010609 354.260227 
L 331.031495 344.101348 
L 331.741677 339.197284 
L 332.371964 336.274692 
L 332.877968 334.849723 
L 333.259691 334.339585 
L 333.579273 334.243034 
L 333.907732 334.390748 
L 334.56465 335.021586 
L 335.168305 335.438001 
L 335.692064 335.52837 
L 336.464386 335.397675 
L 337.716082 335.218725 
L 339.695714 335.285544 
L 346.548968 335.275633 
L 435.845455 335.275846 
L 435.845455 335.275846 
" style="fill:none;stroke:#ff0000;stroke-linecap:square;stroke-width:1.5;"/>
   </g>
   <g id="patch_3">
    <path d="M 63 384.48 
L 63 51.84 
" style="fill:none;stroke:#000000;stroke-linecap:square;stroke-linejoin:miter;stroke-width:0.8;"/>
   </g>
   <g id="patch_4">
    <path d="M 453.6 384.48 
L 453.6 51.84 
" style="fill:none;stroke:#000000;stroke-linecap:square;stroke-linejoin:miter;stroke-width:0.8;"/>
   </g>
   <g id="patch_5">
    <path d="M 63 384.48 
L 453.6 384.48 
" style="fill:none;stroke:#000000;stroke-linecap:square;stroke-linejoin:miter;stroke-width:0.8;"/>
   </g>
   <g id="patch_6">
    <path d="M 63 51.84 
L 453.6 51.84 
" style="fill:none;stroke:#000000;stroke-linecap:square;stroke-linejoin:miter;stroke-width:0.8;"/>
   </g>
   <g id="legend_1">
    <g id="patch_7">
     <path d="M 383.460938 89.19625 
L 446.6 89.19625 
Q 448.6 89.19625 448.6 87.19625 
L 448.6 58.84 
Q 448.6 56.84 446.6 56.84 
L 383.460938 56.84 
Q 381.460938 56.84 381.460938 58.84 
L 381.460938 87.19625 
Q 381.460938 89.19625 383.460938 89.19625 
z
" style="fill:#ffffff;opacity:0.8;stroke:#cccccc;stroke-linejoin:miter;"/>
    </g>
    <g id="line2d_15">
     <path d="M 385.460938 64.938437 
L 405.460938 64.938437 
" style="fill:none;stroke:#1f77b4;stroke-linecap:square;stroke-width:1.5;"/>
    </g>
    <g id="line2d_16"/>
    <g id="text_15">
     <!-- target -->
     <defs>
      <path d="M 41.109375 46.296875 
Q 39.59375 47.171875 37.8125 47.578125 
Q 36.03125 48 33.890625 48 
Q 26.265625 48 22.1875 43.046875 
Q 18.109375 38.09375 18.109375 28.8125 
L 18.109375 0 
L 9.078125 0 
L 9.078125 54.6875 
L 18.109375 54.6875 
L 18.109375 46.1875 
Q 20.953125 51.171875 25.484375 53.578125 
Q 30.03125 56 36.53125 56 
Q 37.453125 56 38.578125 55.875 
Q 39.703125 55.765625 41.0625 55.515625 
z
" id="DejaVuSans-114"/>
     </defs>
     <g transform="translate(413.460938 68.438437)scale(0.1 -0.1)">
      <use xlink:href="#DejaVuSans-116"/>
      <use x="39.208984" xlink:href="#DejaVuSans-97"/>
      <use x="100.488281" xlink:href="#DejaVuSans-114"/>
      <use x="141.585938" xlink:href="#DejaVuSans-103"/>
      <use x="205.0625" xlink:href="#DejaVuSans-101"/>
      <use x="266.585938" xlink:href="#DejaVuSans-116"/>
     </g>
    </g>
    <g id="line2d_17">
     <path d="M 385.460938 79.616562 
L 405.460938 79.616562 
" style="fill:none;stroke:#ff0000;stroke-linecap:square;stroke-width:1.5;"/>
    </g>
    <g id="line2d_18"/>
    <g id="text_16">
     <!-- model -->
     <defs>
      <path d="M 45.40625 46.390625 
L 45.40625 75.984375 
L 54.390625 75.984375 
L 54.390625 0 
L 45.40625 0 
L 45.40625 8.203125 
Q 42.578125 3.328125 38.25 0.953125 
Q 33.9375 -1.421875 27.875 -1.421875 
Q 17.96875 -1.421875 11.734375 6.484375 
Q 5.515625 14.40625 5.515625 27.296875 
Q 5.515625 40.1875 11.734375 48.09375 
Q 17.96875 56 27.875 56 
Q 33.9375 56 38.25 53.625 
Q 42.578125 51.265625 45.40625 46.390625 
z
M 14.796875 27.296875 
Q 14.796875 17.390625 18.875 11.75 
Q 22.953125 6.109375 30.078125 6.109375 
Q 37.203125 6.109375 41.296875 11.75 
Q 45.40625 17.390625 45.40625 27.296875 
Q 45.40625 37.203125 41.296875 42.84375 
Q 37.203125 48.484375 30.078125 48.484375 
Q 22.953125 48.484375 18.875 42.84375 
Q 14.796875 37.203125 14.796875 27.296875 
z
" id="DejaVuSans-100"/>
     </defs>
     <g transform="translate(413.460938 83.116562)scale(0.1 -0.1)">
      <use xlink:href="#DejaVuSans-109"/>
      <use x="97.412109" xlink:href="#DejaVuSans-111"/>
      <use x="158.59375" xlink:href="#DejaVuSans-100"/>
      <use x="222.070312" xlink:href="#DejaVuSans-101"/>
      <use x="283.59375" xlink:href="#DejaVuSans-108"/>
     </g>
    </g>
   </g>
  </g>
 </g>
 <defs>
  <clipPath id="p88022f5857">
   <rect height="332.64" width="390.6" x="63" y="51.84"/>
  </clipPath>
 </defs>
</svg>
