<?xml version="1.0" encoding="utf-8" standalone="no"?>
<!DOCTYPE svg PUBLIC "-//W3C//DTD SVG 1.1//EN"
  "http://www.w3.org/Graphics/SVG/1.1/DTD/svg11.dtd">
<!-- Created with matplotlib (https://matplotlib.org/) -->
<svg height="432pt" version="1.1" viewBox="0 0 504 432" width="504pt" xmlns="http://www.w3.org/2000/svg" xmlns:xlink="http://www.w3.org/1999/xlink">
 <defs>
  <style type="text/css">
*{stroke-linecap:butt;stroke-linejoin:round;}
  </style>
 </defs>
 <g id="figure_1">
  <g id="patch_1">
   <path d="M 0 432 
L 504 432 
L 504 0 
L 0 0 
z
" style="fill:#ffffff;"/>
  </g>
  <g id="axes_1">
   <g id="patch_2">
    <path d="M 63 384.48 
L 453.6 384.48 
L 453.6 51.84 
L 63 51.84 
z
" style="fill:#ffffff;"/>
   </g>
   <g id="matplotlib.axis_1">
    <g id="xtick_1">
     <g id="line2d_1">
      <defs>
       <path d="M 0 0 
L 0 3.5 
" id="mb7a9344539" style="stroke:#000000;stroke-width:0.8;"/>
      </defs>
      <g>
       <use style="stroke:#000000;stroke-width:0.8;" x="80.754545" xlink:href="#mb7a9344539" y="384.48"/>
      </g>
     </g>
     <g id="text_1">
      <!-- 0 -->
      <defs>
       <path d="M 31.78125 66.40625 
Q 24.171875 66.40625 20.328125 58.90625 
Q 16.5 51.421875 16.5 36.375 
Q 16.5 21.390625 20.328125 13.890625 
Q 24.171875 6.390625 31.78125 6.390625 
Q 39.453125 6.390625 43.28125 13.890625 
Q 47.125 21.390625 47.125 36.375 
Q 47.125 51.421875 43.28125 58.90625 
Q 39.453125 66.40625 31.78125 66.40625 
z
M 31.78125 74.21875 
Q 44.046875 74.21875 50.515625 64.515625 
Q 56.984375 54.828125 56.984375 36.375 
Q 56.984375 17.96875 50.515625 8.265625 
Q 44.046875 -1.421875 31.78125 -1.421875 
Q 19.53125 -1.421875 13.0625 8.265625 
Q 6.59375 17.96875 6.59375 36.375 
Q 6.59375 54.828125 13.0625 64.515625 
Q 19.53125 74.21875 31.78125 74.21875 
z
" id="DejaVuSans-48"/>
      </defs>
      <g transform="translate(77.573295 399.078438)scale(0.1 -0.1)">
       <use xlink:href="#DejaVuSans-48"/>
      </g>
     </g>
    </g>
    <g id="xtick_2">
     <g id="line2d_2">
      <g>
       <use style="stroke:#000000;stroke-width:0.8;" x="151.767796" xlink:href="#mb7a9344539" y="384.48"/>
      </g>
     </g>
     <g id="text_2">
      <!-- 720 -->
      <defs>
       <path d="M 8.203125 72.90625 
L 55.078125 72.90625 
L 55.078125 68.703125 
L 28.609375 0 
L 18.3125 0 
L 43.21875 64.59375 
L 8.203125 64.59375 
z
" id="DejaVuSans-55"/>
       <path d="M 19.1875 8.296875 
L 53.609375 8.296875 
L 53.609375 0 
L 7.328125 0 
L 7.328125 8.296875 
Q 12.9375 14.109375 22.625 23.890625 
Q 32.328125 33.6875 34.8125 36.53125 
Q 39.546875 41.84375 41.421875 45.53125 
Q 43.3125 49.21875 43.3125 52.78125 
Q 43.3125 58.59375 39.234375 62.25 
Q 35.15625 65.921875 28.609375 65.921875 
Q 23.96875 65.921875 18.8125 64.3125 
Q 13.671875 62.703125 7.8125 59.421875 
L 7.8125 69.390625 
Q 13.765625 71.78125 18.9375 73 
Q 24.125 74.21875 28.421875 74.21875 
Q 39.75 74.21875 46.484375 68.546875 
Q 53.21875 62.890625 53.21875 53.421875 
Q 53.21875 48.921875 51.53125 44.890625 
Q 49.859375 40.875 45.40625 35.40625 
Q 44.1875 33.984375 37.640625 27.21875 
Q 31.109375 20.453125 19.1875 8.296875 
z
" id="DejaVuSans-50"/>
      </defs>
      <g transform="translate(142.224046 399.078438)scale(0.1 -0.1)">
       <use xlink:href="#DejaVuSans-55"/>
       <use x="63.623047" xlink:href="#DejaVuSans-50"/>
       <use x="127.246094" xlink:href="#DejaVuSans-48"/>
      </g>
     </g>
    </g>
    <g id="xtick_3">
     <g id="line2d_3">
      <g>
       <use style="stroke:#000000;stroke-width:0.8;" x="222.781046" xlink:href="#mb7a9344539" y="384.48"/>
      </g>
     </g>
     <g id="text_3">
      <!-- 1440 -->
      <defs>
       <path d="M 12.40625 8.296875 
L 28.515625 8.296875 
L 28.515625 63.921875 
L 10.984375 60.40625 
L 10.984375 69.390625 
L 28.421875 72.90625 
L 38.28125 72.90625 
L 38.28125 8.296875 
L 54.390625 8.296875 
L 54.390625 0 
L 12.40625 0 
z
" id="DejaVuSans-49"/>
       <path d="M 37.796875 64.3125 
L 12.890625 25.390625 
L 37.796875 25.390625 
z
M 35.203125 72.90625 
L 47.609375 72.90625 
L 47.609375 25.390625 
L 58.015625 25.390625 
L 58.015625 17.1875 
L 47.609375 17.1875 
L 47.609375 0 
L 37.796875 0 
L 37.796875 17.1875 
L 4.890625 17.1875 
L 4.890625 26.703125 
z
" id="DejaVuSans-52"/>
      </defs>
      <g transform="translate(210.056046 399.078438)scale(0.1 -0.1)">
       <use xlink:href="#DejaVuSans-49"/>
       <use x="63.623047" xlink:href="#DejaVuSans-52"/>
       <use x="127.246094" xlink:href="#DejaVuSans-52"/>
       <use x="190.869141" xlink:href="#DejaVuSans-48"/>
      </g>
     </g>
    </g>
    <g id="xtick_4">
     <g id="line2d_4">
      <g>
       <use style="stroke:#000000;stroke-width:0.8;" x="293.794296" xlink:href="#mb7a9344539" y="384.48"/>
      </g>
     </g>
     <g id="text_4">
      <!-- 2160 -->
      <defs>
       <path d="M 33.015625 40.375 
Q 26.375 40.375 22.484375 35.828125 
Q 18.609375 31.296875 18.609375 23.390625 
Q 18.609375 15.53125 22.484375 10.953125 
Q 26.375 6.390625 33.015625 6.390625 
Q 39.65625 6.390625 43.53125 10.953125 
Q 47.40625 15.53125 47.40625 23.390625 
Q 47.40625 31.296875 43.53125 35.828125 
Q 39.65625 40.375 33.015625 40.375 
z
M 52.59375 71.296875 
L 52.59375 62.3125 
Q 48.875 64.0625 45.09375 64.984375 
Q 41.3125 65.921875 37.59375 65.921875 
Q 27.828125 65.921875 22.671875 59.328125 
Q 17.53125 52.734375 16.796875 39.40625 
Q 19.671875 43.65625 24.015625 45.921875 
Q 28.375 48.1875 33.59375 48.1875 
Q 44.578125 48.1875 50.953125 41.515625 
Q 57.328125 34.859375 57.328125 23.390625 
Q 57.328125 12.15625 50.6875 5.359375 
Q 44.046875 -1.421875 33.015625 -1.421875 
Q 20.359375 -1.421875 13.671875 8.265625 
Q 6.984375 17.96875 6.984375 36.375 
Q 6.984375 53.65625 15.1875 63.9375 
Q 23.390625 74.21875 37.203125 74.21875 
Q 40.921875 74.21875 44.703125 73.484375 
Q 48.484375 72.75 52.59375 71.296875 
z
" id="DejaVuSans-54"/>
      </defs>
      <g transform="translate(281.069296 399.078438)scale(0.1 -0.1)">
       <use xlink:href="#DejaVuSans-50"/>
       <use x="63.623047" xlink:href="#DejaVuSans-49"/>
       <use x="127.246094" xlink:href="#DejaVuSans-54"/>
       <use x="190.869141" xlink:href="#DejaVuSans-48"/>
      </g>
     </g>
    </g>
    <g id="xtick_5">
     <g id="line2d_5">
      <g>
       <use style="stroke:#000000;stroke-width:0.8;" x="364.807547" xlink:href="#mb7a9344539" y="384.48"/>
      </g>
     </g>
     <g id="text_5">
      <!-- 2880 -->
      <defs>
       <path d="M 31.78125 34.625 
Q 24.75 34.625 20.71875 30.859375 
Q 16.703125 27.09375 16.703125 20.515625 
Q 16.703125 13.921875 20.71875 10.15625 
Q 24.75 6.390625 31.78125 6.390625 
Q 38.8125 6.390625 42.859375 10.171875 
Q 46.921875 13.96875 46.921875 20.515625 
Q 46.921875 27.09375 42.890625 30.859375 
Q 38.875 34.625 31.78125 34.625 
z
M 21.921875 38.8125 
Q 15.578125 40.375 12.03125 44.71875 
Q 8.5 49.078125 8.5 55.328125 
Q 8.5 64.0625 14.71875 69.140625 
Q 20.953125 74.21875 31.78125 74.21875 
Q 42.671875 74.21875 48.875 69.140625 
Q 55.078125 64.0625 55.078125 55.328125 
Q 55.078125 49.078125 51.53125 44.71875 
Q 48 40.375 41.703125 38.8125 
Q 48.828125 37.15625 52.796875 32.3125 
Q 56.78125 27.484375 56.78125 20.515625 
Q 56.78125 9.90625 50.3125 4.234375 
Q 43.84375 -1.421875 31.78125 -1.421875 
Q 19.734375 -1.421875 13.25 4.234375 
Q 6.78125 9.90625 6.78125 20.515625 
Q 6.78125 27.484375 10.78125 32.3125 
Q 14.796875 37.15625 21.921875 38.8125 
z
M 18.3125 54.390625 
Q 18.3125 48.734375 21.84375 45.5625 
Q 25.390625 42.390625 31.78125 42.390625 
Q 38.140625 42.390625 41.71875 45.5625 
Q 45.3125 48.734375 45.3125 54.390625 
Q 45.3125 60.0625 41.71875 63.234375 
Q 38.140625 66.40625 31.78125 66.40625 
Q 25.390625 66.40625 21.84375 63.234375 
Q 18.3125 60.0625 18.3125 54.390625 
z
" id="DejaVuSans-56"/>
      </defs>
      <g transform="translate(352.082547 399.078438)scale(0.1 -0.1)">
       <use xlink:href="#DejaVuSans-50"/>
       <use x="63.623047" xlink:href="#DejaVuSans-56"/>
       <use x="127.246094" xlink:href="#DejaVuSans-56"/>
       <use x="190.869141" xlink:href="#DejaVuSans-48"/>
      </g>
     </g>
    </g>
    <g id="text_6">
     <!-- time [ms] -->
     <defs>
      <path d="M 18.3125 70.21875 
L 18.3125 54.6875 
L 36.8125 54.6875 
L 36.8125 47.703125 
L 18.3125 47.703125 
L 18.3125 18.015625 
Q 18.3125 11.328125 20.140625 9.421875 
Q 21.96875 7.515625 27.59375 7.515625 
L 36.8125 7.515625 
L 36.8125 0 
L 27.59375 0 
Q 17.1875 0 13.234375 3.875 
Q 9.28125 7.765625 9.28125 18.015625 
L 9.28125 47.703125 
L 2.6875 47.703125 
L 2.6875 54.6875 
L 9.28125 54.6875 
L 9.28125 70.21875 
z
" id="DejaVuSans-116"/>
      <path d="M 9.421875 54.6875 
L 18.40625 54.6875 
L 18.40625 0 
L 9.421875 0 
z
M 9.421875 75.984375 
L 18.40625 75.984375 
L 18.40625 64.59375 
L 9.421875 64.59375 
z
" id="DejaVuSans-105"/>
      <path d="M 52 44.1875 
Q 55.375 50.25 60.0625 53.125 
Q 64.75 56 71.09375 56 
Q 79.640625 56 84.28125 50.015625 
Q 88.921875 44.046875 88.921875 33.015625 
L 88.921875 0 
L 79.890625 0 
L 79.890625 32.71875 
Q 79.890625 40.578125 77.09375 44.375 
Q 74.3125 48.1875 68.609375 48.1875 
Q 61.625 48.1875 57.5625 43.546875 
Q 53.515625 38.921875 53.515625 30.90625 
L 53.515625 0 
L 44.484375 0 
L 44.484375 32.71875 
Q 44.484375 40.625 41.703125 44.40625 
Q 38.921875 48.1875 33.109375 48.1875 
Q 26.21875 48.1875 22.15625 43.53125 
Q 18.109375 38.875 18.109375 30.90625 
L 18.109375 0 
L 9.078125 0 
L 9.078125 54.6875 
L 18.109375 54.6875 
L 18.109375 46.1875 
Q 21.1875 51.21875 25.484375 53.609375 
Q 29.78125 56 35.6875 56 
Q 41.65625 56 45.828125 52.96875 
Q 50 49.953125 52 44.1875 
z
" id="DejaVuSans-109"/>
      <path d="M 56.203125 29.59375 
L 56.203125 25.203125 
L 14.890625 25.203125 
Q 15.484375 15.921875 20.484375 11.0625 
Q 25.484375 6.203125 34.421875 6.203125 
Q 39.59375 6.203125 44.453125 7.46875 
Q 49.3125 8.734375 54.109375 11.28125 
L 54.109375 2.78125 
Q 49.265625 0.734375 44.1875 -0.34375 
Q 39.109375 -1.421875 33.890625 -1.421875 
Q 20.796875 -1.421875 13.15625 6.1875 
Q 5.515625 13.8125 5.515625 26.8125 
Q 5.515625 40.234375 12.765625 48.109375 
Q 20.015625 56 32.328125 56 
Q 43.359375 56 49.78125 48.890625 
Q 56.203125 41.796875 56.203125 29.59375 
z
M 47.21875 32.234375 
Q 47.125 39.59375 43.09375 43.984375 
Q 39.0625 48.390625 32.421875 48.390625 
Q 24.90625 48.390625 20.390625 44.140625 
Q 15.875 39.890625 15.1875 32.171875 
z
" id="DejaVuSans-101"/>
      <path id="DejaVuSans-32"/>
      <path d="M 8.59375 75.984375 
L 29.296875 75.984375 
L 29.296875 69 
L 17.578125 69 
L 17.578125 -6.203125 
L 29.296875 -6.203125 
L 29.296875 -13.1875 
L 8.59375 -13.1875 
z
" id="DejaVuSans-91"/>
      <path d="M 44.28125 53.078125 
L 44.28125 44.578125 
Q 40.484375 46.53125 36.375 47.5 
Q 32.28125 48.484375 27.875 48.484375 
Q 21.1875 48.484375 17.84375 46.4375 
Q 14.5 44.390625 14.5 40.28125 
Q 14.5 37.15625 16.890625 35.375 
Q 19.28125 33.59375 26.515625 31.984375 
L 29.59375 31.296875 
Q 39.15625 29.25 43.1875 25.515625 
Q 47.21875 21.78125 47.21875 15.09375 
Q 47.21875 7.46875 41.1875 3.015625 
Q 35.15625 -1.421875 24.609375 -1.421875 
Q 20.21875 -1.421875 15.453125 -0.5625 
Q 10.6875 0.296875 5.421875 2 
L 5.421875 11.28125 
Q 10.40625 8.6875 15.234375 7.390625 
Q 20.0625 6.109375 24.8125 6.109375 
Q 31.15625 6.109375 34.5625 8.28125 
Q 37.984375 10.453125 37.984375 14.40625 
Q 37.984375 18.0625 35.515625 20.015625 
Q 33.0625 21.96875 24.703125 23.78125 
L 21.578125 24.515625 
Q 13.234375 26.265625 9.515625 29.90625 
Q 5.8125 33.546875 5.8125 39.890625 
Q 5.8125 47.609375 11.28125 51.796875 
Q 16.75 56 26.8125 56 
Q 31.78125 56 36.171875 55.265625 
Q 40.578125 54.546875 44.28125 53.078125 
z
" id="DejaVuSans-115"/>
      <path d="M 30.421875 75.984375 
L 30.421875 -13.1875 
L 9.71875 -13.1875 
L 9.71875 -6.203125 
L 21.390625 -6.203125 
L 21.390625 69 
L 9.71875 69 
L 9.71875 75.984375 
z
" id="DejaVuSans-93"/>
     </defs>
     <g transform="translate(234.038281 412.756563)scale(0.1 -0.1)">
      <use xlink:href="#DejaVuSans-116"/>
      <use x="39.208984" xlink:href="#DejaVuSans-105"/>
      <use x="66.992188" xlink:href="#DejaVuSans-109"/>
      <use x="164.404297" xlink:href="#DejaVuSans-101"/>
      <use x="225.927734" xlink:href="#DejaVuSans-32"/>
      <use x="257.714844" xlink:href="#DejaVuSans-91"/>
      <use x="296.728516" xlink:href="#DejaVuSans-109"/>
      <use x="394.140625" xlink:href="#DejaVuSans-115"/>
      <use x="446.240234" xlink:href="#DejaVuSans-93"/>
     </g>
    </g>
   </g>
   <g id="matplotlib.axis_2">
    <g id="ytick_1">
     <g id="line2d_6">
      <defs>
       <path d="M 0 0 
L -3.5 0 
" id="m5158218fed" style="stroke:#000000;stroke-width:0.8;"/>
      </defs>
      <g>
       <use style="stroke:#000000;stroke-width:0.8;" x="63" xlink:href="#m5158218fed" y="369.798638"/>
      </g>
     </g>
     <g id="text_7">
      <!-- −80 -->
      <defs>
       <path d="M 10.59375 35.5 
L 73.1875 35.5 
L 73.1875 27.203125 
L 10.59375 27.203125 
z
" id="DejaVuSans-8722"/>
      </defs>
      <g transform="translate(34.895313 373.597856)scale(0.1 -0.1)">
       <use xlink:href="#DejaVuSans-8722"/>
       <use x="83.789062" xlink:href="#DejaVuSans-56"/>
       <use x="147.412109" xlink:href="#DejaVuSans-48"/>
      </g>
     </g>
    </g>
    <g id="ytick_2">
     <g id="line2d_7">
      <g>
       <use style="stroke:#000000;stroke-width:0.8;" x="63" xlink:href="#m5158218fed" y="316.574461"/>
      </g>
     </g>
     <g id="text_8">
      <!-- −60 -->
      <g transform="translate(34.895313 320.373679)scale(0.1 -0.1)">
       <use xlink:href="#DejaVuSans-8722"/>
       <use x="83.789062" xlink:href="#DejaVuSans-54"/>
       <use x="147.412109" xlink:href="#DejaVuSans-48"/>
      </g>
     </g>
    </g>
    <g id="ytick_3">
     <g id="line2d_8">
      <g>
       <use style="stroke:#000000;stroke-width:0.8;" x="63" xlink:href="#m5158218fed" y="263.350283"/>
      </g>
     </g>
     <g id="text_9">
      <!-- −40 -->
      <g transform="translate(34.895313 267.149502)scale(0.1 -0.1)">
       <use xlink:href="#DejaVuSans-8722"/>
       <use x="83.789062" xlink:href="#DejaVuSans-52"/>
       <use x="147.412109" xlink:href="#DejaVuSans-48"/>
      </g>
     </g>
    </g>
    <g id="ytick_4">
     <g id="line2d_9">
      <g>
       <use style="stroke:#000000;stroke-width:0.8;" x="63" xlink:href="#m5158218fed" y="210.126106"/>
      </g>
     </g>
     <g id="text_10">
      <!-- −20 -->
      <g transform="translate(34.895313 213.925325)scale(0.1 -0.1)">
       <use xlink:href="#DejaVuSans-8722"/>
       <use x="83.789062" xlink:href="#DejaVuSans-50"/>
       <use x="147.412109" xlink:href="#DejaVuSans-48"/>
      </g>
     </g>
    </g>
    <g id="ytick_5">
     <g id="line2d_10">
      <g>
       <use style="stroke:#000000;stroke-width:0.8;" x="63" xlink:href="#m5158218fed" y="156.901929"/>
      </g>
     </g>
     <g id="text_11">
      <!-- 0 -->
      <g transform="translate(49.6375 160.701148)scale(0.1 -0.1)">
       <use xlink:href="#DejaVuSans-48"/>
      </g>
     </g>
    </g>
    <g id="ytick_6">
     <g id="line2d_11">
      <g>
       <use style="stroke:#000000;stroke-width:0.8;" x="63" xlink:href="#m5158218fed" y="103.677752"/>
      </g>
     </g>
     <g id="text_12">
      <!-- 20 -->
      <g transform="translate(43.275 107.476971)scale(0.1 -0.1)">
       <use xlink:href="#DejaVuSans-50"/>
       <use x="63.623047" xlink:href="#DejaVuSans-48"/>
      </g>
     </g>
    </g>
    <g id="text_13">
     <!-- Voltage [mV] -->
     <defs>
      <path d="M 28.609375 0 
L 0.78125 72.90625 
L 11.078125 72.90625 
L 34.1875 11.53125 
L 57.328125 72.90625 
L 67.578125 72.90625 
L 39.796875 0 
z
" id="DejaVuSans-86"/>
      <path d="M 30.609375 48.390625 
Q 23.390625 48.390625 19.1875 42.75 
Q 14.984375 37.109375 14.984375 27.296875 
Q 14.984375 17.484375 19.15625 11.84375 
Q 23.34375 6.203125 30.609375 6.203125 
Q 37.796875 6.203125 41.984375 11.859375 
Q 46.1875 17.53125 46.1875 27.296875 
Q 46.1875 37.015625 41.984375 42.703125 
Q 37.796875 48.390625 30.609375 48.390625 
z
M 30.609375 56 
Q 42.328125 56 49.015625 48.375 
Q 55.71875 40.765625 55.71875 27.296875 
Q 55.71875 13.875 49.015625 6.21875 
Q 42.328125 -1.421875 30.609375 -1.421875 
Q 18.84375 -1.421875 12.171875 6.21875 
Q 5.515625 13.875 5.515625 27.296875 
Q 5.515625 40.765625 12.171875 48.375 
Q 18.84375 56 30.609375 56 
z
" id="DejaVuSans-111"/>
      <path d="M 9.421875 75.984375 
L 18.40625 75.984375 
L 18.40625 0 
L 9.421875 0 
z
" id="DejaVuSans-108"/>
      <path d="M 34.28125 27.484375 
Q 23.390625 27.484375 19.1875 25 
Q 14.984375 22.515625 14.984375 16.5 
Q 14.984375 11.71875 18.140625 8.90625 
Q 21.296875 6.109375 26.703125 6.109375 
Q 34.1875 6.109375 38.703125 11.40625 
Q 43.21875 16.703125 43.21875 25.484375 
L 43.21875 27.484375 
z
M 52.203125 31.203125 
L 52.203125 0 
L 43.21875 0 
L 43.21875 8.296875 
Q 40.140625 3.328125 35.546875 0.953125 
Q 30.953125 -1.421875 24.3125 -1.421875 
Q 15.921875 -1.421875 10.953125 3.296875 
Q 6 8.015625 6 15.921875 
Q 6 25.140625 12.171875 29.828125 
Q 18.359375 34.515625 30.609375 34.515625 
L 43.21875 34.515625 
L 43.21875 35.40625 
Q 43.21875 41.609375 39.140625 45 
Q 35.0625 48.390625 27.6875 48.390625 
Q 23 48.390625 18.546875 47.265625 
Q 14.109375 46.140625 10.015625 43.890625 
L 10.015625 52.203125 
Q 14.9375 54.109375 19.578125 55.046875 
Q 24.21875 56 28.609375 56 
Q 40.484375 56 46.34375 49.84375 
Q 52.203125 43.703125 52.203125 31.203125 
z
" id="DejaVuSans-97"/>
      <path d="M 45.40625 27.984375 
Q 45.40625 37.75 41.375 43.109375 
Q 37.359375 48.484375 30.078125 48.484375 
Q 22.859375 48.484375 18.828125 43.109375 
Q 14.796875 37.75 14.796875 27.984375 
Q 14.796875 18.265625 18.828125 12.890625 
Q 22.859375 7.515625 30.078125 7.515625 
Q 37.359375 7.515625 41.375 12.890625 
Q 45.40625 18.265625 45.40625 27.984375 
z
M 54.390625 6.78125 
Q 54.390625 -7.171875 48.1875 -13.984375 
Q 42 -20.796875 29.203125 -20.796875 
Q 24.46875 -20.796875 20.265625 -20.09375 
Q 16.0625 -19.390625 12.109375 -17.921875 
L 12.109375 -9.1875 
Q 16.0625 -11.328125 19.921875 -12.34375 
Q 23.78125 -13.375 27.78125 -13.375 
Q 36.625 -13.375 41.015625 -8.765625 
Q 45.40625 -4.15625 45.40625 5.171875 
L 45.40625 9.625 
Q 42.625 4.78125 38.28125 2.390625 
Q 33.9375 0 27.875 0 
Q 17.828125 0 11.671875 7.65625 
Q 5.515625 15.328125 5.515625 27.984375 
Q 5.515625 40.671875 11.671875 48.328125 
Q 17.828125 56 27.875 56 
Q 33.9375 56 38.28125 53.609375 
Q 42.625 51.21875 45.40625 46.390625 
L 45.40625 54.6875 
L 54.390625 54.6875 
z
" id="DejaVuSans-103"/>
     </defs>
     <g transform="translate(28.815625 251.079531)rotate(-90)scale(0.1 -0.1)">
      <use xlink:href="#DejaVuSans-86"/>
      <use x="68.298828" xlink:href="#DejaVuSans-111"/>
      <use x="129.480469" xlink:href="#DejaVuSans-108"/>
      <use x="157.263672" xlink:href="#DejaVuSans-116"/>
      <use x="196.472656" xlink:href="#DejaVuSans-97"/>
      <use x="257.751953" xlink:href="#DejaVuSans-103"/>
      <use x="321.228516" xlink:href="#DejaVuSans-101"/>
      <use x="382.751953" xlink:href="#DejaVuSans-32"/>
      <use x="414.539062" xlink:href="#DejaVuSans-91"/>
      <use x="453.552734" xlink:href="#DejaVuSans-109"/>
      <use x="550.964844" xlink:href="#DejaVuSans-86"/>
      <use x="619.373047" xlink:href="#DejaVuSans-93"/>
     </g>
    </g>
   </g>
   <g id="line2d_12">
    <path clip-path="url(#p329a699585)" d="M 80.754545 329.880505 
L 81.425226 332.070759 
L 81.923305 332.928813 
L 82.450973 333.412338 
L 83.062476 333.668747 
L 83.91069 333.764432 
L 85.612049 333.681318 
L 90.119418 333.461006 
L 97.595535 333.393273 
L 100.480448 333.38892 
L 100.633324 348.806603 
L 100.958801 359.336707 
L 101.363182 366.026278 
L 101.713317 368.68641 
L 101.974685 369.33477 
L 102.132493 369.318812 
L 102.32482 368.993971 
L 102.665092 367.887729 
L 104.282616 362.037915 
L 104.859599 360.977587 
L 105.421787 360.382692 
L 106.028359 360.060839 
L 106.787806 359.922442 
L 108.109441 359.947929 
L 112.025033 360.06653 
L 130.069303 360.05982 
L 130.222178 344.968627 
L 130.532861 335.695561 
L 130.927379 329.860328 
L 131.321897 326.953949 
L 131.686827 325.701966 
L 132.007373 325.277039 
L 132.293398 325.231162 
L 132.628739 325.429555 
L 133.151475 326.040608 
L 136.381592 330.301205 
L 137.510899 331.211117 
L 138.728974 331.90651 
L 139.932254 332.380097 
L 139.937186 329.880505 
L 140.045678 330.304831 
L 140.593072 332.036792 
L 141.091151 332.910034 
L 141.613887 333.399653 
L 142.220459 333.662487 
L 143.053878 333.763654 
L 144.686197 333.689287 
L 149.326715 333.460418 
L 156.842284 333.39313 
L 159.663088 333.38892 
L 159.815964 330.303353 
L 160.146373 328.151973 
L 160.590206 326.604198 
L 161.063628 325.697198 
L 161.566638 325.188982 
L 162.148552 324.918087 
L 162.932657 324.814745 
L 164.387442 324.889233 
L 169.175905 325.194414 
L 175.453674 325.29216 
L 189.251943 325.314451 
L 189.404818 328.405815 
L 189.735227 330.569818 
L 190.183992 332.146716 
L 190.657413 333.061858 
L 191.155492 333.569931 
L 191.727544 333.836451 
L 192.491922 333.930372 
L 193.902324 333.83669 
L 198.079284 333.519604 
L 199.114894 333.483059 
L 199.119826 329.880505 
L 199.228318 330.304831 
L 199.775712 332.036792 
L 200.273791 332.910034 
L 200.796527 333.399653 
L 201.403099 333.662487 
L 202.236518 333.763654 
L 203.868837 333.689287 
L 208.509355 333.460418 
L 216.024924 333.39313 
L 218.845729 333.38892 
L 218.998604 327.216772 
L 219.329013 322.903986 
L 219.772846 319.777016 
L 220.246268 317.898711 
L 220.734484 316.804801 
L 221.252289 316.16071 
L 221.844066 315.777071 
L 222.603513 315.561333 
L 223.787067 315.480921 
L 226.188696 315.579768 
L 228.624845 315.874447 
L 231.874687 316.284292 
L 235.168913 316.404494 
L 245.031865 316.452661 
L 248.434583 316.455827 
L 248.59239 322.776298 
L 248.92773 327.192482 
L 249.376495 330.422741 
L 249.844985 332.318731 
L 250.313475 333.364945 
L 250.791828 333.924018 
L 251.314565 334.199158 
L 251.975382 334.284004 
L 253.084964 334.167748 
L 257.040008 333.647122 
L 258.297534 333.565913 
L 258.302466 329.880505 
L 258.410958 330.304831 
L 258.958352 332.036792 
L 259.456431 332.910034 
L 259.979167 333.399653 
L 260.585739 333.662487 
L 261.419158 333.763654 
L 263.051477 333.689287 
L 267.691996 333.460418 
L 275.207564 333.39313 
L 278.028369 333.38892 
L 278.181244 324.12851 
L 278.511653 317.632042 
L 278.965349 312.745403 
L 279.50288 309.271971 
L 279.843152 306.844121 
L 279.857946 302.776018 
L 279.897398 162.314618 
L 279.926987 69.856006 
L 280.000959 174.149923 
L 280.173561 323.289517 
L 280.351094 330.123551 
L 280.454655 330.550936 
L 280.499038 330.477651 
L 280.627256 329.730786 
L 280.933008 326.29048 
L 281.87492 315.477294 
L 282.432176 311.697639 
L 283.048611 309.024822 
L 283.393814 307.291201 
L 283.41354 306.179386 
L 283.438197 254.545419 
L 283.492444 78.575934 
L 283.571347 192.757043 
L 283.739017 321.254815 
L 283.916551 328.974729 
L 284.039838 329.618407 
L 284.074358 329.581816 
L 284.18285 329.082039 
L 284.439287 326.569457 
L 285.558732 314.661855 
L 286.111057 311.426763 
L 286.72256 309.145607 
L 287.126941 307.504069 
L 287.15653 306.473066 
L 287.176256 272.735249 
L 287.240365 85.100267 
L 287.309406 176.76972 
L 287.477076 318.010725 
L 287.654609 327.52229 
L 287.807485 328.514746 
L 287.827211 328.502727 
L 287.915977 328.204769 
L 288.123099 326.51602 
L 289.543364 313.058515 
L 290.09569 310.54421 
L 291.003081 307.003306 
L 291.022807 290.723883 
L 291.091848 89.5187 
L 291.160888 176.291923 
L 291.328559 316.008712 
L 291.511023 326.527464 
L 291.678693 327.694925 
L 291.688556 327.691862 
L 291.762528 327.510293 
L 291.940062 326.287181 
L 292.521976 320.017468 
L 293.163068 314.45448 
L 293.715393 311.483792 
L 294.30717 309.482397 
L 294.894016 307.517337 
L 294.918673 306.779486 
L 294.938399 279.756011 
L 295.002508 92.886693 
L 295.07648 181.458516 
L 295.24415 314.660998 
L 295.426615 325.617876 
L 295.60908 326.974289 
L 295.67812 326.849907 
L 295.835927 325.905098 
L 296.269897 321.502393 
L 296.994824 314.927813 
L 297.54715 311.823244 
L 298.124132 309.795906 
L 298.849059 307.438762 
L 298.868785 305.920582 
L 298.903305 227.537536 
L 298.95262 94.747042 
L 299.026592 188.732537 
L 299.194262 314.046433 
L 299.376727 325.059265 
L 299.564123 326.542598 
L 299.628232 326.452423 
L 299.771245 325.68693 
L 300.141106 322.136374 
L 300.935073 314.926794 
L 301.49233 311.827392 
L 302.069313 309.825768 
L 302.818897 307.392968 
L 302.833691 306.161557 
L 302.86328 242.085521 
L 302.917527 96.203859 
L 302.991499 186.730906 
L 303.1641 313.769047 
L 303.351496 324.741064 
L 303.538893 326.208932 
L 303.607933 326.111895 
L 303.755877 325.31105 
L 304.145464 321.597822 
L 304.914774 314.79253 
L 305.472031 311.76131 
L 306.049014 309.799841 
L 306.788735 307.48211 
L 306.808461 306.395746 
L 306.833118 256.339637 
L 306.892296 97.320798 
L 306.966268 185.338496 
L 307.13887 312.994624 
L 307.326266 324.344026 
L 307.518593 325.944303 
L 307.577771 325.887162 
L 307.587634 325.861971 
L 307.617223 325.763236 
L 307.765167 333.137747 
L 308.001878 335.316795 
L 308.268178 336.049417 
L 308.504889 336.168495 
L 308.790914 336.032444 
L 310.876928 334.600456 
L 312.159112 334.201875 
L 313.993621 333.879134 
L 316.735522 333.640135 
L 317.480174 333.601653 
L 317.485106 329.880505 
L 317.593598 330.304831 
L 318.140992 332.036792 
L 318.639071 332.910034 
L 319.161808 333.399653 
L 319.768379 333.662487 
L 320.601798 333.763654 
L 322.234117 333.689287 
L 326.874636 333.460418 
L 334.390205 333.39313 
L 337.211009 333.38892 
L 337.363884 321.037777 
L 337.699225 312.212459 
L 338.212098 304.473652 
L 338.41922 300.64775 
L 338.434015 294.299433 
L 338.498124 68.095425 
L 338.581959 196.576849 
L 338.739766 321.165666 
L 338.912368 327.52113 
L 338.976477 327.7247 
L 339.030723 327.597559 
L 339.168805 326.499928 
L 339.509076 321.539153 
L 340.396742 308.70245 
L 341.264682 298.683432 
L 341.284408 262.171603 
L 341.343585 76.8017 
L 341.417557 185.927132 
L 341.580296 319.115393 
L 341.752898 326.663513 
L 341.841664 327.05324 
L 341.890979 326.950219 
L 342.024129 325.975464 
L 342.344675 321.554264 
L 343.271792 308.664978 
L 343.976993 302.392464 
L 344.179184 299.692594 
L 344.19891 293.547875 
L 344.26795 83.002976 
L 344.351786 204.677627 
L 344.519456 318.375493 
L 344.696989 325.505861 
L 344.785755 325.886622 
L 344.83507 325.793078 
L 344.963289 324.913163 
L 345.278903 320.786473 
L 346.210952 308.441302 
L 346.896427 302.664963 
L 347.133138 299.924296 
L 347.152864 296.941972 
L 347.192316 173.283955 
L 347.226836 87.63741 
L 347.300808 182.836458 
L 347.468478 315.246889 
L 347.646011 324.280692 
L 347.764367 324.946641 
L 347.798887 324.895183 
L 347.912311 324.247417 
L 348.183542 321.050751 
L 349.263535 307.469654 
L 350.121612 299.285869 
L 350.136407 287.180963 
L 350.205447 91.4265 
L 350.274488 177.566653 
L 350.442158 313.244538 
L 350.619691 323.345422 
L 350.752841 324.234367 
L 350.78243 324.202666 
L 350.881059 323.728322 
L 351.11777 321.211297 
L 352.375297 306.261818 
L 353.105155 299.61163 
L 353.119949 293.078343 
L 353.18899 93.411529 
L 353.267894 191.029809 
L 353.435564 312.91908 
L 353.618028 322.825172 
L 353.751178 323.697674 
L 353.780767 323.669359 
L 353.879397 323.212792 
L 354.116107 320.759639 
L 355.378565 306.113779 
L 356.098561 299.528752 
L 356.113355 291.160129 
L 356.182396 94.977109 
L 356.256368 183.195181 
L 356.424038 311.36473 
L 356.606503 322.163557 
L 356.754447 323.228262 
L 356.779104 323.207711 
L 356.872802 322.813248 
L 357.094719 320.642965 
L 358.460738 305.391161 
L 359.087035 299.913724 
L 359.101829 297.299957 
L 359.141281 181.36531 
L 359.175802 95.993305 
L 359.249774 180.026197 
L 359.417444 310.527979 
L 359.599908 321.795547 
L 359.757716 322.990601 
L 359.77251 322.982263 
L 359.851414 322.719562 
L 360.03881 321.105849 
L 361.759895 303.224967 
L 362.070578 300.331092 
L 362.095235 298.77973 
L 362.124824 232.04273 
L 362.174139 96.682068 
L 362.248111 183.030358 
L 362.415781 310.16347 
L 362.598246 321.469261 
L 362.760984 322.724024 
L 362.775779 322.715545 
L 362.854682 322.455257 
L 363.042079 320.860216 
L 364.763164 303.1827 
L 365.068915 300.327473 
L 365.093572 298.659728 
L 365.123161 230.611046 
L 365.172476 97.241989 
L 365.246448 184.467416 
L 365.414118 309.874836 
L 365.596583 321.25763 
L 365.764253 322.562622 
L 365.774116 322.557819 
L 365.848088 322.340012 
L 366.025621 320.911173 
L 366.602604 313.663412 
L 366.799863 311.344139 
L 366.947807 321.891696 
L 367.228901 327.028526 
L 367.623419 330.462529 
L 368.062321 332.491947 
L 368.516017 333.624792 
L 368.979575 334.225558 
L 369.472723 334.514673 
L 370.079294 334.604616 
L 371.036001 334.492178 
L 375.469397 333.768372 
L 376.662814 333.672895 
L 376.667746 329.880505 
L 376.776238 330.304831 
L 377.323632 332.036792 
L 377.821711 332.910034 
L 378.344448 333.399653 
L 378.951019 333.662487 
L 379.784439 333.763654 
L 381.416757 333.689287 
L 386.057276 333.460418 
L 393.572845 333.39313 
L 396.393649 333.38892 
L 396.546525 317.943393 
L 396.886796 306.615294 
L 397.281314 294.318857 
L 397.310903 211.184888 
L 397.350355 66.96 
L 397.424327 175.322479 
L 397.60186 320.471369 
L 397.769531 325.009984 
L 397.794188 325.031699 
L 397.838571 324.908219 
L 397.971721 323.692318 
L 398.292267 318.220231 
L 399.342671 299.765017 
L 399.628697 293.820033 
L 399.663217 289.014206 
L 399.732258 75.678396 
L 399.821024 218.281771 
L 399.983763 319.36508 
L 400.151433 324.618842 
L 400.190885 324.708029 
L 400.245131 324.564538 
L 400.383213 323.292793 
L 400.718553 317.605867 
L 401.694985 300.894912 
L 402.07964 293.952243 
L 402.114161 290.619589 
L 402.148681 185.846811 
L 402.183201 81.534498 
L 402.257173 175.713453 
L 402.424844 315.733441 
L 402.597445 323.251302 
L 402.661554 323.5066 
L 402.720732 323.352333 
L 402.863745 322.03585 
L 403.218811 316.126515 
L 404.136066 301.067644 
L 404.555241 293.888284 
L 404.589761 290.20484 
L 404.629213 154.926568 
L 404.658802 86.346577 
L 404.732774 176.684212 
L 404.900444 313.707502 
L 405.073046 322.053477 
L 405.156881 322.444297 
L 405.206196 322.323416 
L 405.339346 321.208584 
L 405.664823 316.117607 
L 406.651118 300.473825 
L 407.040705 293.865092 
L 407.075225 290.075963 
L 407.114677 156.99603 
L 407.149197 89.749727 
L 407.218238 176.286861 
L 407.385908 312.014742 
L 407.563441 321.173454 
L 407.652208 321.650217 
L 407.701523 321.55107 
L 407.829741 320.552195 
L 408.140424 315.907866 
L 409.180965 299.874577 
L 409.5311 293.935636 
L 409.56562 290.834016 
L 409.600141 193.731014 
L 409.639593 91.749527 
L 409.708633 171.824877 
L 409.881235 311.243036 
L 410.058768 320.569684 
L 410.157398 321.134049 
L 410.206712 321.032663 
L 410.334931 320.046072 
L 410.645614 315.477535 
L 411.686155 299.728525 
L 412.031358 293.839542 
L 412.065879 289.257751 
L 412.134919 93.81428 
L 412.228617 216.267048 
L 412.401219 312.991735 
L 412.583684 320.276822 
L 412.667519 320.626333 
L 412.716833 320.515375 
L 412.849983 319.474079 
L 413.175461 314.693616 
L 414.17655 299.799909 
L 414.526685 293.99114 
L 414.566137 288.165404 
L 414.635177 94.543625 
L 414.719013 201.176618 
L 414.891614 311.420936 
L 415.074079 319.851663 
L 415.172708 320.359344 
L 415.217092 320.272453 
L 415.340379 319.385929 
L 415.636267 315.2337 
L 416.745849 298.921878 
L 417.031875 293.871982 
L 417.066395 289.412478 
L 417.135436 95.611921 
L 417.229134 215.270936 
L 417.401735 311.835161 
L 417.5842 319.590778 
L 417.677898 320.056026 
L 417.727213 319.95961 
L 417.855431 319.014711 
L 418.166114 314.622856 
L 419.226381 299.178222 
L 419.532133 293.933147 
L 419.566653 290.329795 
L 419.606105 163.876745 
L 419.640625 95.627471 
L 419.709666 174.488495 
L 419.877336 308.016988 
L 420.054869 318.937225 
L 420.183088 319.878545 
L 420.217608 319.831268 
L 420.321169 319.221147 
L 420.567743 316.118537 
L 422.06198 292.163831 
L 422.076774 280.062178 
L 422.140884 96.039448 
L 422.209924 170.053384 
L 422.382526 308.245464 
L 422.56499 318.975325 
L 422.688277 319.828477 
L 422.722798 319.782242 
L 422.826359 319.176522 
L 423.072932 316.084018 
L 424.56717 292.035681 
L 424.581964 276.202308 
L 424.646073 96.002134 
L 424.715114 171.955611 
L 424.887715 308.216352 
L 425.07018 318.866898 
L 425.193467 319.726134 
L 425.232919 319.668822 
L 425.341411 318.998389 
L 425.602779 315.633309 
L 425.982503 309.527208 
L 425.987435 311.112867 
L 426.150173 322.86365 
L 426.431267 328.03069 
L 426.80606 331.177838 
L 427.225235 332.971248 
L 427.664136 333.955182 
L 428.117832 334.468472 
L 428.615911 334.705856 
L 429.252072 334.74929 
L 430.327133 334.563619 
L 433.655879 333.917121 
L 435.845455 333.700202 
L 435.845455 333.700202 
" style="fill:none;stroke:#ff0000;stroke-linecap:square;stroke-width:1.5;"/>
   </g>
   <g id="patch_3">
    <path d="M 63 384.48 
L 63 51.84 
" style="fill:none;stroke:#000000;stroke-linecap:square;stroke-linejoin:miter;stroke-width:0.8;"/>
   </g>
   <g id="patch_4">
    <path d="M 453.6 384.48 
L 453.6 51.84 
" style="fill:none;stroke:#000000;stroke-linecap:square;stroke-linejoin:miter;stroke-width:0.8;"/>
   </g>
   <g id="patch_5">
    <path d="M 63 384.48 
L 453.6 384.48 
" style="fill:none;stroke:#000000;stroke-linecap:square;stroke-linejoin:miter;stroke-width:0.8;"/>
   </g>
   <g id="patch_6">
    <path d="M 63 51.84 
L 453.6 51.84 
" style="fill:none;stroke:#000000;stroke-linecap:square;stroke-linejoin:miter;stroke-width:0.8;"/>
   </g>
   <g id="legend_1">
    <g id="patch_7">
     <path d="M 70 74.518125 
L 133.139062 74.518125 
Q 135.139062 74.518125 135.139062 72.518125 
L 135.139062 58.84 
Q 135.139062 56.84 133.139062 56.84 
L 70 56.84 
Q 68 56.84 68 58.84 
L 68 72.518125 
Q 68 74.518125 70 74.518125 
z
" style="fill:#ffffff;opacity:0.8;stroke:#cccccc;stroke-linejoin:miter;"/>
    </g>
    <g id="line2d_13">
     <path d="M 72 64.938438 
L 92 64.938438 
" style="fill:none;stroke:#ff0000;stroke-linecap:square;stroke-width:1.5;"/>
    </g>
    <g id="line2d_14"/>
    <g id="text_14">
     <!-- model -->
     <defs>
      <path d="M 45.40625 46.390625 
L 45.40625 75.984375 
L 54.390625 75.984375 
L 54.390625 0 
L 45.40625 0 
L 45.40625 8.203125 
Q 42.578125 3.328125 38.25 0.953125 
Q 33.9375 -1.421875 27.875 -1.421875 
Q 17.96875 -1.421875 11.734375 6.484375 
Q 5.515625 14.40625 5.515625 27.296875 
Q 5.515625 40.1875 11.734375 48.09375 
Q 17.96875 56 27.875 56 
Q 33.9375 56 38.25 53.625 
Q 42.578125 51.265625 45.40625 46.390625 
z
M 14.796875 27.296875 
Q 14.796875 17.390625 18.875 11.75 
Q 22.953125 6.109375 30.078125 6.109375 
Q 37.203125 6.109375 41.296875 11.75 
Q 45.40625 17.390625 45.40625 27.296875 
Q 45.40625 37.203125 41.296875 42.84375 
Q 37.203125 48.484375 30.078125 48.484375 
Q 22.953125 48.484375 18.875 42.84375 
Q 14.796875 37.203125 14.796875 27.296875 
z
" id="DejaVuSans-100"/>
     </defs>
     <g transform="translate(100 68.438438)scale(0.1 -0.1)">
      <use xlink:href="#DejaVuSans-109"/>
      <use x="97.412109" xlink:href="#DejaVuSans-111"/>
      <use x="158.59375" xlink:href="#DejaVuSans-100"/>
      <use x="222.070312" xlink:href="#DejaVuSans-101"/>
      <use x="283.59375" xlink:href="#DejaVuSans-108"/>
     </g>
    </g>
   </g>
  </g>
 </g>
 <defs>
  <clipPath id="p329a699585">
   <rect height="332.64" width="390.6" x="63" y="51.84"/>
  </clipPath>
 </defs>
</svg>
