<?xml version="1.0" encoding="utf-8" standalone="no"?>
<!DOCTYPE svg PUBLIC "-//W3C//DTD SVG 1.1//EN"
  "http://www.w3.org/Graphics/SVG/1.1/DTD/svg11.dtd">
<!-- Created with matplotlib (https://matplotlib.org/) -->
<svg height="432pt" version="1.1" viewBox="0 0 504 432" width="504pt" xmlns="http://www.w3.org/2000/svg" xmlns:xlink="http://www.w3.org/1999/xlink">
 <defs>
  <style type="text/css">
*{stroke-linecap:butt;stroke-linejoin:round;}
  </style>
 </defs>
 <g id="figure_1">
  <g id="patch_1">
   <path d="M 0 432 
L 504 432 
L 504 0 
L 0 0 
z
" style="fill:#ffffff;"/>
  </g>
  <g id="axes_1">
   <g id="patch_2">
    <path d="M 63 384.48 
L 453.6 384.48 
L 453.6 51.84 
L 63 51.84 
z
" style="fill:#ffffff;"/>
   </g>
   <g id="matplotlib.axis_1">
    <g id="xtick_1">
     <g id="line2d_1">
      <defs>
       <path d="M 0 0 
L 0 3.5 
" id="mced467ce03" style="stroke:#000000;stroke-width:0.8;"/>
      </defs>
      <g>
       <use style="stroke:#000000;stroke-width:0.8;" x="80.754545" xlink:href="#mced467ce03" y="384.48"/>
      </g>
     </g>
     <g id="text_1">
      <!-- 0 -->
      <defs>
       <path d="M 31.78125 66.40625 
Q 24.171875 66.40625 20.328125 58.90625 
Q 16.5 51.421875 16.5 36.375 
Q 16.5 21.390625 20.328125 13.890625 
Q 24.171875 6.390625 31.78125 6.390625 
Q 39.453125 6.390625 43.28125 13.890625 
Q 47.125 21.390625 47.125 36.375 
Q 47.125 51.421875 43.28125 58.90625 
Q 39.453125 66.40625 31.78125 66.40625 
z
M 31.78125 74.21875 
Q 44.046875 74.21875 50.515625 64.515625 
Q 56.984375 54.828125 56.984375 36.375 
Q 56.984375 17.96875 50.515625 8.265625 
Q 44.046875 -1.421875 31.78125 -1.421875 
Q 19.53125 -1.421875 13.0625 8.265625 
Q 6.59375 17.96875 6.59375 36.375 
Q 6.59375 54.828125 13.0625 64.515625 
Q 19.53125 74.21875 31.78125 74.21875 
z
" id="DejaVuSans-48"/>
      </defs>
      <g transform="translate(77.573295 399.078438)scale(0.1 -0.1)">
       <use xlink:href="#DejaVuSans-48"/>
      </g>
     </g>
    </g>
    <g id="xtick_2">
     <g id="line2d_2">
      <g>
       <use style="stroke:#000000;stroke-width:0.8;" x="151.772727" xlink:href="#mced467ce03" y="384.48"/>
      </g>
     </g>
     <g id="text_2">
      <!-- 200 -->
      <defs>
       <path d="M 19.1875 8.296875 
L 53.609375 8.296875 
L 53.609375 0 
L 7.328125 0 
L 7.328125 8.296875 
Q 12.9375 14.109375 22.625 23.890625 
Q 32.328125 33.6875 34.8125 36.53125 
Q 39.546875 41.84375 41.421875 45.53125 
Q 43.3125 49.21875 43.3125 52.78125 
Q 43.3125 58.59375 39.234375 62.25 
Q 35.15625 65.921875 28.609375 65.921875 
Q 23.96875 65.921875 18.8125 64.3125 
Q 13.671875 62.703125 7.8125 59.421875 
L 7.8125 69.390625 
Q 13.765625 71.78125 18.9375 73 
Q 24.125 74.21875 28.421875 74.21875 
Q 39.75 74.21875 46.484375 68.546875 
Q 53.21875 62.890625 53.21875 53.421875 
Q 53.21875 48.921875 51.53125 44.890625 
Q 49.859375 40.875 45.40625 35.40625 
Q 44.1875 33.984375 37.640625 27.21875 
Q 31.109375 20.453125 19.1875 8.296875 
z
" id="DejaVuSans-50"/>
      </defs>
      <g transform="translate(142.228977 399.078438)scale(0.1 -0.1)">
       <use xlink:href="#DejaVuSans-50"/>
       <use x="63.623047" xlink:href="#DejaVuSans-48"/>
       <use x="127.246094" xlink:href="#DejaVuSans-48"/>
      </g>
     </g>
    </g>
    <g id="xtick_3">
     <g id="line2d_3">
      <g>
       <use style="stroke:#000000;stroke-width:0.8;" x="222.790909" xlink:href="#mced467ce03" y="384.48"/>
      </g>
     </g>
     <g id="text_3">
      <!-- 400 -->
      <defs>
       <path d="M 37.796875 64.3125 
L 12.890625 25.390625 
L 37.796875 25.390625 
z
M 35.203125 72.90625 
L 47.609375 72.90625 
L 47.609375 25.390625 
L 58.015625 25.390625 
L 58.015625 17.1875 
L 47.609375 17.1875 
L 47.609375 0 
L 37.796875 0 
L 37.796875 17.1875 
L 4.890625 17.1875 
L 4.890625 26.703125 
z
" id="DejaVuSans-52"/>
      </defs>
      <g transform="translate(213.247159 399.078438)scale(0.1 -0.1)">
       <use xlink:href="#DejaVuSans-52"/>
       <use x="63.623047" xlink:href="#DejaVuSans-48"/>
       <use x="127.246094" xlink:href="#DejaVuSans-48"/>
      </g>
     </g>
    </g>
    <g id="xtick_4">
     <g id="line2d_4">
      <g>
       <use style="stroke:#000000;stroke-width:0.8;" x="293.809091" xlink:href="#mced467ce03" y="384.48"/>
      </g>
     </g>
     <g id="text_4">
      <!-- 600 -->
      <defs>
       <path d="M 33.015625 40.375 
Q 26.375 40.375 22.484375 35.828125 
Q 18.609375 31.296875 18.609375 23.390625 
Q 18.609375 15.53125 22.484375 10.953125 
Q 26.375 6.390625 33.015625 6.390625 
Q 39.65625 6.390625 43.53125 10.953125 
Q 47.40625 15.53125 47.40625 23.390625 
Q 47.40625 31.296875 43.53125 35.828125 
Q 39.65625 40.375 33.015625 40.375 
z
M 52.59375 71.296875 
L 52.59375 62.3125 
Q 48.875 64.0625 45.09375 64.984375 
Q 41.3125 65.921875 37.59375 65.921875 
Q 27.828125 65.921875 22.671875 59.328125 
Q 17.53125 52.734375 16.796875 39.40625 
Q 19.671875 43.65625 24.015625 45.921875 
Q 28.375 48.1875 33.59375 48.1875 
Q 44.578125 48.1875 50.953125 41.515625 
Q 57.328125 34.859375 57.328125 23.390625 
Q 57.328125 12.15625 50.6875 5.359375 
Q 44.046875 -1.421875 33.015625 -1.421875 
Q 20.359375 -1.421875 13.671875 8.265625 
Q 6.984375 17.96875 6.984375 36.375 
Q 6.984375 53.65625 15.1875 63.9375 
Q 23.390625 74.21875 37.203125 74.21875 
Q 40.921875 74.21875 44.703125 73.484375 
Q 48.484375 72.75 52.59375 71.296875 
z
" id="DejaVuSans-54"/>
      </defs>
      <g transform="translate(284.265341 399.078438)scale(0.1 -0.1)">
       <use xlink:href="#DejaVuSans-54"/>
       <use x="63.623047" xlink:href="#DejaVuSans-48"/>
       <use x="127.246094" xlink:href="#DejaVuSans-48"/>
      </g>
     </g>
    </g>
    <g id="xtick_5">
     <g id="line2d_5">
      <g>
       <use style="stroke:#000000;stroke-width:0.8;" x="364.827273" xlink:href="#mced467ce03" y="384.48"/>
      </g>
     </g>
     <g id="text_5">
      <!-- 800 -->
      <defs>
       <path d="M 31.78125 34.625 
Q 24.75 34.625 20.71875 30.859375 
Q 16.703125 27.09375 16.703125 20.515625 
Q 16.703125 13.921875 20.71875 10.15625 
Q 24.75 6.390625 31.78125 6.390625 
Q 38.8125 6.390625 42.859375 10.171875 
Q 46.921875 13.96875 46.921875 20.515625 
Q 46.921875 27.09375 42.890625 30.859375 
Q 38.875 34.625 31.78125 34.625 
z
M 21.921875 38.8125 
Q 15.578125 40.375 12.03125 44.71875 
Q 8.5 49.078125 8.5 55.328125 
Q 8.5 64.0625 14.71875 69.140625 
Q 20.953125 74.21875 31.78125 74.21875 
Q 42.671875 74.21875 48.875 69.140625 
Q 55.078125 64.0625 55.078125 55.328125 
Q 55.078125 49.078125 51.53125 44.71875 
Q 48 40.375 41.703125 38.8125 
Q 48.828125 37.15625 52.796875 32.3125 
Q 56.78125 27.484375 56.78125 20.515625 
Q 56.78125 9.90625 50.3125 4.234375 
Q 43.84375 -1.421875 31.78125 -1.421875 
Q 19.734375 -1.421875 13.25 4.234375 
Q 6.78125 9.90625 6.78125 20.515625 
Q 6.78125 27.484375 10.78125 32.3125 
Q 14.796875 37.15625 21.921875 38.8125 
z
M 18.3125 54.390625 
Q 18.3125 48.734375 21.84375 45.5625 
Q 25.390625 42.390625 31.78125 42.390625 
Q 38.140625 42.390625 41.71875 45.5625 
Q 45.3125 48.734375 45.3125 54.390625 
Q 45.3125 60.0625 41.71875 63.234375 
Q 38.140625 66.40625 31.78125 66.40625 
Q 25.390625 66.40625 21.84375 63.234375 
Q 18.3125 60.0625 18.3125 54.390625 
z
" id="DejaVuSans-56"/>
      </defs>
      <g transform="translate(355.283523 399.078438)scale(0.1 -0.1)">
       <use xlink:href="#DejaVuSans-56"/>
       <use x="63.623047" xlink:href="#DejaVuSans-48"/>
       <use x="127.246094" xlink:href="#DejaVuSans-48"/>
      </g>
     </g>
    </g>
    <g id="text_6">
     <!-- time [ms] -->
     <defs>
      <path d="M 18.3125 70.21875 
L 18.3125 54.6875 
L 36.8125 54.6875 
L 36.8125 47.703125 
L 18.3125 47.703125 
L 18.3125 18.015625 
Q 18.3125 11.328125 20.140625 9.421875 
Q 21.96875 7.515625 27.59375 7.515625 
L 36.8125 7.515625 
L 36.8125 0 
L 27.59375 0 
Q 17.1875 0 13.234375 3.875 
Q 9.28125 7.765625 9.28125 18.015625 
L 9.28125 47.703125 
L 2.6875 47.703125 
L 2.6875 54.6875 
L 9.28125 54.6875 
L 9.28125 70.21875 
z
" id="DejaVuSans-116"/>
      <path d="M 9.421875 54.6875 
L 18.40625 54.6875 
L 18.40625 0 
L 9.421875 0 
z
M 9.421875 75.984375 
L 18.40625 75.984375 
L 18.40625 64.59375 
L 9.421875 64.59375 
z
" id="DejaVuSans-105"/>
      <path d="M 52 44.1875 
Q 55.375 50.25 60.0625 53.125 
Q 64.75 56 71.09375 56 
Q 79.640625 56 84.28125 50.015625 
Q 88.921875 44.046875 88.921875 33.015625 
L 88.921875 0 
L 79.890625 0 
L 79.890625 32.71875 
Q 79.890625 40.578125 77.09375 44.375 
Q 74.3125 48.1875 68.609375 48.1875 
Q 61.625 48.1875 57.5625 43.546875 
Q 53.515625 38.921875 53.515625 30.90625 
L 53.515625 0 
L 44.484375 0 
L 44.484375 32.71875 
Q 44.484375 40.625 41.703125 44.40625 
Q 38.921875 48.1875 33.109375 48.1875 
Q 26.21875 48.1875 22.15625 43.53125 
Q 18.109375 38.875 18.109375 30.90625 
L 18.109375 0 
L 9.078125 0 
L 9.078125 54.6875 
L 18.109375 54.6875 
L 18.109375 46.1875 
Q 21.1875 51.21875 25.484375 53.609375 
Q 29.78125 56 35.6875 56 
Q 41.65625 56 45.828125 52.96875 
Q 50 49.953125 52 44.1875 
z
" id="DejaVuSans-109"/>
      <path d="M 56.203125 29.59375 
L 56.203125 25.203125 
L 14.890625 25.203125 
Q 15.484375 15.921875 20.484375 11.0625 
Q 25.484375 6.203125 34.421875 6.203125 
Q 39.59375 6.203125 44.453125 7.46875 
Q 49.3125 8.734375 54.109375 11.28125 
L 54.109375 2.78125 
Q 49.265625 0.734375 44.1875 -0.34375 
Q 39.109375 -1.421875 33.890625 -1.421875 
Q 20.796875 -1.421875 13.15625 6.1875 
Q 5.515625 13.8125 5.515625 26.8125 
Q 5.515625 40.234375 12.765625 48.109375 
Q 20.015625 56 32.328125 56 
Q 43.359375 56 49.78125 48.890625 
Q 56.203125 41.796875 56.203125 29.59375 
z
M 47.21875 32.234375 
Q 47.125 39.59375 43.09375 43.984375 
Q 39.0625 48.390625 32.421875 48.390625 
Q 24.90625 48.390625 20.390625 44.140625 
Q 15.875 39.890625 15.1875 32.171875 
z
" id="DejaVuSans-101"/>
      <path id="DejaVuSans-32"/>
      <path d="M 8.59375 75.984375 
L 29.296875 75.984375 
L 29.296875 69 
L 17.578125 69 
L 17.578125 -6.203125 
L 29.296875 -6.203125 
L 29.296875 -13.1875 
L 8.59375 -13.1875 
z
" id="DejaVuSans-91"/>
      <path d="M 44.28125 53.078125 
L 44.28125 44.578125 
Q 40.484375 46.53125 36.375 47.5 
Q 32.28125 48.484375 27.875 48.484375 
Q 21.1875 48.484375 17.84375 46.4375 
Q 14.5 44.390625 14.5 40.28125 
Q 14.5 37.15625 16.890625 35.375 
Q 19.28125 33.59375 26.515625 31.984375 
L 29.59375 31.296875 
Q 39.15625 29.25 43.1875 25.515625 
Q 47.21875 21.78125 47.21875 15.09375 
Q 47.21875 7.46875 41.1875 3.015625 
Q 35.15625 -1.421875 24.609375 -1.421875 
Q 20.21875 -1.421875 15.453125 -0.5625 
Q 10.6875 0.296875 5.421875 2 
L 5.421875 11.28125 
Q 10.40625 8.6875 15.234375 7.390625 
Q 20.0625 6.109375 24.8125 6.109375 
Q 31.15625 6.109375 34.5625 8.28125 
Q 37.984375 10.453125 37.984375 14.40625 
Q 37.984375 18.0625 35.515625 20.015625 
Q 33.0625 21.96875 24.703125 23.78125 
L 21.578125 24.515625 
Q 13.234375 26.265625 9.515625 29.90625 
Q 5.8125 33.546875 5.8125 39.890625 
Q 5.8125 47.609375 11.28125 51.796875 
Q 16.75 56 26.8125 56 
Q 31.78125 56 36.171875 55.265625 
Q 40.578125 54.546875 44.28125 53.078125 
z
" id="DejaVuSans-115"/>
      <path d="M 30.421875 75.984375 
L 30.421875 -13.1875 
L 9.71875 -13.1875 
L 9.71875 -6.203125 
L 21.390625 -6.203125 
L 21.390625 69 
L 9.71875 69 
L 9.71875 75.984375 
z
" id="DejaVuSans-93"/>
     </defs>
     <g transform="translate(234.038281 412.756563)scale(0.1 -0.1)">
      <use xlink:href="#DejaVuSans-116"/>
      <use x="39.208984" xlink:href="#DejaVuSans-105"/>
      <use x="66.992188" xlink:href="#DejaVuSans-109"/>
      <use x="164.404297" xlink:href="#DejaVuSans-101"/>
      <use x="225.927734" xlink:href="#DejaVuSans-32"/>
      <use x="257.714844" xlink:href="#DejaVuSans-91"/>
      <use x="296.728516" xlink:href="#DejaVuSans-109"/>
      <use x="394.140625" xlink:href="#DejaVuSans-115"/>
      <use x="446.240234" xlink:href="#DejaVuSans-93"/>
     </g>
    </g>
   </g>
   <g id="matplotlib.axis_2">
    <g id="ytick_1">
     <g id="line2d_6">
      <defs>
       <path d="M 0 0 
L -3.5 0 
" id="m4e3227f5f7" style="stroke:#000000;stroke-width:0.8;"/>
      </defs>
      <g>
       <use style="stroke:#000000;stroke-width:0.8;" x="63" xlink:href="#m4e3227f5f7" y="348.906136"/>
      </g>
     </g>
     <g id="text_7">
      <!-- −60 -->
      <defs>
       <path d="M 10.59375 35.5 
L 73.1875 35.5 
L 73.1875 27.203125 
L 10.59375 27.203125 
z
" id="DejaVuSans-8722"/>
      </defs>
      <g transform="translate(34.895313 352.705355)scale(0.1 -0.1)">
       <use xlink:href="#DejaVuSans-8722"/>
       <use x="83.789062" xlink:href="#DejaVuSans-54"/>
       <use x="147.412109" xlink:href="#DejaVuSans-48"/>
      </g>
     </g>
    </g>
    <g id="ytick_2">
     <g id="line2d_7">
      <g>
       <use style="stroke:#000000;stroke-width:0.8;" x="63" xlink:href="#m4e3227f5f7" y="283.063782"/>
      </g>
     </g>
     <g id="text_8">
      <!-- −40 -->
      <g transform="translate(34.895313 286.863001)scale(0.1 -0.1)">
       <use xlink:href="#DejaVuSans-8722"/>
       <use x="83.789062" xlink:href="#DejaVuSans-52"/>
       <use x="147.412109" xlink:href="#DejaVuSans-48"/>
      </g>
     </g>
    </g>
    <g id="ytick_3">
     <g id="line2d_8">
      <g>
       <use style="stroke:#000000;stroke-width:0.8;" x="63" xlink:href="#m4e3227f5f7" y="217.221427"/>
      </g>
     </g>
     <g id="text_9">
      <!-- −20 -->
      <g transform="translate(34.895313 221.020646)scale(0.1 -0.1)">
       <use xlink:href="#DejaVuSans-8722"/>
       <use x="83.789062" xlink:href="#DejaVuSans-50"/>
       <use x="147.412109" xlink:href="#DejaVuSans-48"/>
      </g>
     </g>
    </g>
    <g id="ytick_4">
     <g id="line2d_9">
      <g>
       <use style="stroke:#000000;stroke-width:0.8;" x="63" xlink:href="#m4e3227f5f7" y="151.379073"/>
      </g>
     </g>
     <g id="text_10">
      <!-- 0 -->
      <g transform="translate(49.6375 155.178292)scale(0.1 -0.1)">
       <use xlink:href="#DejaVuSans-48"/>
      </g>
     </g>
    </g>
    <g id="ytick_5">
     <g id="line2d_10">
      <g>
       <use style="stroke:#000000;stroke-width:0.8;" x="63" xlink:href="#m4e3227f5f7" y="85.536719"/>
      </g>
     </g>
     <g id="text_11">
      <!-- 20 -->
      <g transform="translate(43.275 89.335937)scale(0.1 -0.1)">
       <use xlink:href="#DejaVuSans-50"/>
       <use x="63.623047" xlink:href="#DejaVuSans-48"/>
      </g>
     </g>
    </g>
    <g id="text_12">
     <!-- voltage [V] -->
     <defs>
      <path d="M 2.984375 54.6875 
L 12.5 54.6875 
L 29.59375 8.796875 
L 46.6875 54.6875 
L 56.203125 54.6875 
L 35.6875 0 
L 23.484375 0 
z
" id="DejaVuSans-118"/>
      <path d="M 30.609375 48.390625 
Q 23.390625 48.390625 19.1875 42.75 
Q 14.984375 37.109375 14.984375 27.296875 
Q 14.984375 17.484375 19.15625 11.84375 
Q 23.34375 6.203125 30.609375 6.203125 
Q 37.796875 6.203125 41.984375 11.859375 
Q 46.1875 17.53125 46.1875 27.296875 
Q 46.1875 37.015625 41.984375 42.703125 
Q 37.796875 48.390625 30.609375 48.390625 
z
M 30.609375 56 
Q 42.328125 56 49.015625 48.375 
Q 55.71875 40.765625 55.71875 27.296875 
Q 55.71875 13.875 49.015625 6.21875 
Q 42.328125 -1.421875 30.609375 -1.421875 
Q 18.84375 -1.421875 12.171875 6.21875 
Q 5.515625 13.875 5.515625 27.296875 
Q 5.515625 40.765625 12.171875 48.375 
Q 18.84375 56 30.609375 56 
z
" id="DejaVuSans-111"/>
      <path d="M 9.421875 75.984375 
L 18.40625 75.984375 
L 18.40625 0 
L 9.421875 0 
z
" id="DejaVuSans-108"/>
      <path d="M 34.28125 27.484375 
Q 23.390625 27.484375 19.1875 25 
Q 14.984375 22.515625 14.984375 16.5 
Q 14.984375 11.71875 18.140625 8.90625 
Q 21.296875 6.109375 26.703125 6.109375 
Q 34.1875 6.109375 38.703125 11.40625 
Q 43.21875 16.703125 43.21875 25.484375 
L 43.21875 27.484375 
z
M 52.203125 31.203125 
L 52.203125 0 
L 43.21875 0 
L 43.21875 8.296875 
Q 40.140625 3.328125 35.546875 0.953125 
Q 30.953125 -1.421875 24.3125 -1.421875 
Q 15.921875 -1.421875 10.953125 3.296875 
Q 6 8.015625 6 15.921875 
Q 6 25.140625 12.171875 29.828125 
Q 18.359375 34.515625 30.609375 34.515625 
L 43.21875 34.515625 
L 43.21875 35.40625 
Q 43.21875 41.609375 39.140625 45 
Q 35.0625 48.390625 27.6875 48.390625 
Q 23 48.390625 18.546875 47.265625 
Q 14.109375 46.140625 10.015625 43.890625 
L 10.015625 52.203125 
Q 14.9375 54.109375 19.578125 55.046875 
Q 24.21875 56 28.609375 56 
Q 40.484375 56 46.34375 49.84375 
Q 52.203125 43.703125 52.203125 31.203125 
z
" id="DejaVuSans-97"/>
      <path d="M 45.40625 27.984375 
Q 45.40625 37.75 41.375 43.109375 
Q 37.359375 48.484375 30.078125 48.484375 
Q 22.859375 48.484375 18.828125 43.109375 
Q 14.796875 37.75 14.796875 27.984375 
Q 14.796875 18.265625 18.828125 12.890625 
Q 22.859375 7.515625 30.078125 7.515625 
Q 37.359375 7.515625 41.375 12.890625 
Q 45.40625 18.265625 45.40625 27.984375 
z
M 54.390625 6.78125 
Q 54.390625 -7.171875 48.1875 -13.984375 
Q 42 -20.796875 29.203125 -20.796875 
Q 24.46875 -20.796875 20.265625 -20.09375 
Q 16.0625 -19.390625 12.109375 -17.921875 
L 12.109375 -9.1875 
Q 16.0625 -11.328125 19.921875 -12.34375 
Q 23.78125 -13.375 27.78125 -13.375 
Q 36.625 -13.375 41.015625 -8.765625 
Q 45.40625 -4.15625 45.40625 5.171875 
L 45.40625 9.625 
Q 42.625 4.78125 38.28125 2.390625 
Q 33.9375 0 27.875 0 
Q 17.828125 0 11.671875 7.65625 
Q 5.515625 15.328125 5.515625 27.984375 
Q 5.515625 40.671875 11.671875 48.328125 
Q 17.828125 56 27.875 56 
Q 33.9375 56 38.28125 53.609375 
Q 42.625 51.21875 45.40625 46.390625 
L 45.40625 54.6875 
L 54.390625 54.6875 
z
" id="DejaVuSans-103"/>
      <path d="M 28.609375 0 
L 0.78125 72.90625 
L 11.078125 72.90625 
L 34.1875 11.53125 
L 57.328125 72.90625 
L 67.578125 72.90625 
L 39.796875 0 
z
" id="DejaVuSans-86"/>
     </defs>
     <g transform="translate(28.815625 245.75375)rotate(-90)scale(0.1 -0.1)">
      <use xlink:href="#DejaVuSans-118"/>
      <use x="59.179688" xlink:href="#DejaVuSans-111"/>
      <use x="120.361328" xlink:href="#DejaVuSans-108"/>
      <use x="148.144531" xlink:href="#DejaVuSans-116"/>
      <use x="187.353516" xlink:href="#DejaVuSans-97"/>
      <use x="248.632812" xlink:href="#DejaVuSans-103"/>
      <use x="312.109375" xlink:href="#DejaVuSans-101"/>
      <use x="373.632812" xlink:href="#DejaVuSans-32"/>
      <use x="405.419922" xlink:href="#DejaVuSans-91"/>
      <use x="444.433594" xlink:href="#DejaVuSans-86"/>
      <use x="512.841797" xlink:href="#DejaVuSans-93"/>
     </g>
    </g>
   </g>
   <g id="line2d_11">
    <path clip-path="url(#p50850347d0)" d="M 80.754545 365.366717 
L 81.695536 365.378469 
L 85.779082 365.796639 
L 98.615618 367.095323 
L 108.788973 367.881815 
L 119.725773 368.501018 
L 131.994164 368.968382 
L 146.410855 369.288076 
L 151.772727 369.36 
L 151.8615 367.376074 
L 152.234345 359.2922 
L 152.731473 353.634091 
L 153.565936 346.949281 
L 154.9863 337.529823 
L 156.726245 327.494537 
L 158.412927 319.009364 
L 160.028591 311.980281 
L 161.590991 306.166366 
L 163.153391 301.213867 
L 164.840073 296.624319 
L 167.236936 290.828353 
L 168.941373 286.478326 
L 169.793591 283.706331 
L 170.361736 281.121885 
L 170.752336 278.32175 
L 171.036409 274.299444 
L 171.1962 267.208023 
L 171.249464 259.324122 
L 171.622309 75.383766 
L 171.675573 73.08626 
L 171.746591 73.322841 
L 171.906382 85.915162 
L 172.190455 137.623945 
L 172.847373 253.721186 
L 173.220218 287.589264 
L 173.5398 299.735391 
L 173.912645 306.069083 
L 174.303245 309.383018 
L 174.782618 311.553072 
L 175.226482 312.646307 
L 175.6881 313.227503 
L 176.096455 313.417594 
L 176.522564 313.374688 
L 177.019691 313.087104 
L 177.676609 312.415207 
L 178.528827 311.201031 
L 179.771645 309.019165 
L 182.825427 303.043592 
L 185.470855 298.152413 
L 188.151791 293.690768 
L 192.164318 287.076119 
L 193.282855 284.750363 
L 194.064055 282.626753 
L 194.6322 280.424835 
L 195.040555 277.895329 
L 195.324627 274.519928 
L 195.502173 268.679913 
L 195.573191 259.619367 
L 195.626455 232.64955 
L 195.839509 103.329504 
L 196.017055 94.860037 
L 196.034809 94.819288 
L 196.176845 98.488719 
L 196.407655 115.245857 
L 196.744991 163.139649 
L 197.437418 258.906017 
L 197.810264 283.177074 
L 198.200864 294.680394 
L 198.591464 300.211052 
L 199.070836 303.838552 
L 199.550209 305.96646 
L 200.082845 307.432698 
L 200.650991 308.359242 
L 201.219136 308.84277 
L 201.787282 309.007674 
L 202.408691 308.918335 
L 203.083364 308.586888 
L 203.988845 307.870993 
L 205.231664 306.567636 
L 207.237927 304.087913 
L 212.9904 296.852528 
L 217.890655 291.22318 
L 220.429555 288.115498 
L 221.885427 285.995238 
L 222.915191 284.110807 
L 223.660882 282.294162 
L 224.229027 280.30509 
L 224.637382 278.021619 
L 224.9037 275.346576 
L 225.081245 271.659252 
L 225.205527 262.579528 
L 225.241036 249.324069 
L 225.525109 102.14635 
L 225.596127 99.839927 
L 225.667145 100.381491 
L 225.862445 108.156575 
L 226.164273 132.073554 
L 226.679155 199.831286 
L 227.229545 260.462979 
L 227.6379 281.436874 
L 228.046255 291.568054 
L 228.454609 296.83726 
L 228.933982 300.401008 
L 229.502127 302.962152 
L 230.105782 304.668164 
L 230.691682 305.719034 
L 231.313091 306.389038 
L 231.898991 306.717071 
L 232.555909 306.823323 
L 233.283845 306.700603 
L 234.153818 306.314086 
L 235.236845 305.582885 
L 236.781491 304.249273 
L 239.320391 301.726216 
L 247.434218 293.556701 
L 251.446745 289.451125 
L 253.346482 287.191567 
L 254.642564 285.312125 
L 255.601309 283.524868 
L 256.275982 281.820536 
L 256.808618 279.860514 
L 257.181464 277.651532 
L 257.447782 274.706773 
L 257.607573 270.833736 
L 257.696345 264.44775 
L 257.767364 241.713199 
L 257.998173 105.691728 
L 258.122455 100.519468 
L 258.157964 101.116841 
L 258.264491 104.530248 
L 258.566318 124.554178 
L 258.956918 168.101145 
L 259.755873 259.040029 
L 260.181982 280.559057 
L 260.590336 290.508633 
L 261.016445 295.794669 
L 261.495818 299.150509 
L 262.028455 301.448755 
L 262.649864 303.164215 
L 263.271273 304.261805 
L 263.892682 304.944584 
L 264.531845 305.332653 
L 265.206518 305.48427 
L 265.952209 305.420774 
L 266.857691 305.105984 
L 267.993982 304.455721 
L 269.538627 303.289564 
L 271.935491 301.165668 
L 282.7125 291.033731 
L 285.215891 288.415612 
L 286.8138 286.439278 
L 287.9856 284.638509 
L 288.820064 282.963586 
L 289.459227 281.190003 
L 289.9386 279.188821 
L 290.293691 276.658662 
L 290.542255 272.849633 
L 290.666536 267.553442 
L 290.737555 253.732705 
L 290.844082 166.108707 
L 291.003873 104.846724 
L 291.128155 100.807334 
L 291.163664 101.327152 
L 291.341209 108.641459 
L 291.643036 131.864402 
L 292.175673 196.575015 
L 292.761573 258.540464 
L 293.152173 278.712442 
L 293.560527 289.438784 
L 294.004391 295.269328 
L 294.483764 298.754952 
L 295.051909 301.241773 
L 295.673318 302.955252 
L 296.276973 304.030066 
L 296.916136 304.74291 
L 297.573055 305.146195 
L 298.247727 305.302572 
L 299.046682 305.23599 
L 299.952164 304.921925 
L 301.141718 304.245055 
L 302.704118 303.075851 
L 305.172 300.917322 
L 315.469636 291.383869 
L 318.150573 288.65479 
L 319.855009 286.610576 
L 321.062318 284.817855 
L 321.950045 283.101019 
L 322.589209 281.404093 
L 323.068582 279.53835 
L 323.423673 277.302821 
L 323.672236 274.411054 
L 323.849782 268.975635 
L 323.938555 258.304723 
L 323.974064 238.111173 
L 324.204873 106.070712 
L 324.3114 100.593297 
L 324.346909 101.063435 
L 324.453436 104.025564 
L 324.755264 123.733393 
L 325.163618 168.530002 
L 325.962573 258.364178 
L 326.388682 279.96721 
L 326.797036 290.14095 
L 327.2409 295.699719 
L 327.738027 299.133735 
L 328.306173 301.489759 
L 328.927582 303.116394 
L 329.5845 304.201747 
L 330.241418 304.852674 
L 330.880582 305.18576 
L 331.573009 305.297951 
L 332.371964 305.188045 
L 333.312955 304.821434 
L 334.484755 304.120478 
L 336.135927 302.854224 
L 338.852373 300.449155 
L 350.197527 289.888608 
L 352.292564 287.603841 
L 353.730682 285.711047 
L 354.7782 283.960616 
L 355.541645 282.251549 
L 356.092036 280.507399 
L 356.518145 278.42615 
L 356.819973 275.837303 
L 357.015273 272.334231 
L 357.139555 266.036993 
L 357.210573 247.316965 
L 357.476891 103.548459 
L 357.565664 100.754122 
L 357.618927 101.328172 
L 357.778718 107.753171 
L 358.116055 133.889988 
L 358.648691 199.178121 
L 359.216836 258.785632 
L 359.625191 279.701945 
L 360.033545 290.108314 
L 360.459655 295.602894 
L 360.939027 299.034161 
L 361.453909 301.282706 
L 362.057564 302.967719 
L 362.678973 304.078881 
L 363.318136 304.785206 
L 363.975055 305.181196 
L 364.649727 305.330879 
L 364.862782 305.33492 
L 364.969309 307.501464 
L 365.306645 314.660651 
L 365.786018 319.709067 
L 366.460691 324.263112 
L 367.348418 328.732538 
L 368.395936 332.881502 
L 369.532227 336.519315 
L 370.775045 339.795157 
L 372.1599 342.826827 
L 373.633527 345.526542 
L 375.213682 347.968746 
L 376.900364 350.180243 
L 378.746836 352.239455 
L 380.735345 354.127747 
L 382.9014 355.881006 
L 385.280509 357.521062 
L 387.908182 359.060864 
L 390.837682 360.515509 
L 394.069009 361.87086 
L 397.726445 363.160159 
L 401.809991 364.361042 
L 406.443927 365.486223 
L 411.6105 366.507252 
L 417.416236 367.422571 
L 423.861136 368.210107 
L 431.104991 368.867436 
L 435.8277 369.190508 
L 435.8277 369.190508 
" style="fill:none;stroke:#1f77b4;stroke-linecap:square;stroke-width:1.5;"/>
   </g>
   <g id="line2d_12">
    <path clip-path="url(#p50850347d0)" d="M 80.754545 365.366725 
L 80.949845 364.474261 
L 81.3582 363.691107 
L 82.032873 362.913284 
L 83.1159 362.033197 
L 84.625036 361.100898 
L 86.453755 360.236507 
L 88.531036 359.50489 
L 90.856882 358.926041 
L 93.4668 358.509736 
L 96.467318 358.261537 
L 100.071491 358.194931 
L 104.811955 358.344343 
L 114.044318 358.913242 
L 124.111145 359.438628 
L 133.254736 359.681798 
L 145.239055 359.758833 
L 151.772727 359.747603 
L 151.985782 349.781024 
L 152.411891 340.768327 
L 153.068809 331.625552 
L 153.974291 322.133356 
L 154.968545 313.975508 
L 155.945045 307.707186 
L 156.9393 302.71648 
L 157.986818 298.573537 
L 159.140864 294.904809 
L 160.525718 291.253174 
L 164.183155 282.03444 
L 164.769055 279.637634 
L 165.177409 277.028114 
L 165.461482 273.703091 
L 165.639027 268.939603 
L 165.745555 259.245176 
L 165.798818 227.993054 
L 165.940855 66.96 
L 165.958609 67.173144 
L 166.082891 78.135712 
L 166.810827 168.303695 
L 167.023882 232.556594 
L 167.325709 308.364276 
L 167.503255 312.01077 
L 167.538764 311.999119 
L 167.556518 311.954833 
L 167.716309 311.013548 
L 168.106909 309.025615 
L 168.319964 308.800111 
L 168.497509 308.922424 
L 168.834845 309.524646 
L 169.988891 311.718079 
L 170.681318 312.530864 
L 170.965391 312.543662 
L 171.373745 312.309939 
L 172.012909 311.655835 
L 172.971655 310.318182 
L 174.534055 307.698684 
L 179.665118 298.872653 
L 181.973209 295.460871 
L 184.441091 292.21708 
L 191.170064 283.650504 
L 192.0933 281.90202 
L 192.767973 280.149588 
L 193.2651 278.236165 
L 193.637945 275.872821 
L 193.904264 272.59932 
L 194.064055 267.918881 
L 194.152827 259.966957 
L 194.206091 236.291343 
L 194.348127 72.495833 
L 194.401391 75.3408 
L 194.916273 138.167315 
L 195.2181 214.069058 
L 195.573191 310.934169 
L 195.732982 313.959104 
L 195.750736 313.946446 
L 195.839509 313.489104 
L 196.425409 309.690747 
L 196.638464 309.49053 
L 196.833764 309.632314 
L 197.206609 310.277194 
L 197.668227 310.967424 
L 198.076582 311.136688 
L 198.5382 311.077453 
L 199.106345 310.757877 
L 199.834282 310.071164 
L 200.846291 308.783292 
L 202.4442 306.343736 
L 207.699545 298.110449 
L 210.0609 294.93857 
L 212.582045 291.929511 
L 216.523555 287.635728 
L 218.796136 284.989938 
L 220.056709 283.190493 
L 220.944436 281.538821 
L 221.5836 279.890124 
L 222.062973 278.051785 
L 222.418064 275.824139 
L 222.684382 272.621221 
L 222.844173 268.092327 
L 222.9507 257.259269 
L 223.003964 214.671755 
L 223.128245 72.903472 
L 223.146 72.992613 
L 223.252527 83.332963 
L 223.838427 168.155031 
L 224.086991 251.32326 
L 224.335555 310.46973 
L 224.5131 314.217101 
L 224.584118 313.953145 
L 225.312055 309.714753 
L 225.4896 309.695973 
L 225.720409 309.958408 
L 226.501609 311.008135 
L 226.927718 311.107107 
L 227.424845 310.984658 
L 228.0285 310.588993 
L 228.827455 309.77511 
L 229.963745 308.263956 
L 231.916745 305.23177 
L 235.804991 299.19828 
L 238.166345 295.979604 
L 240.563209 293.09035 
L 243.421691 290.010358 
L 248.162155 284.955153 
L 249.458236 283.195581 
L 250.363718 281.595359 
L 251.020636 279.991585 
L 251.517764 278.193428 
L 251.890609 275.988838 
L 252.156927 273.030511 
L 252.334473 268.43633 
L 252.441 258.989849 
L 252.494264 229.82713 
L 252.6363 72.961004 
L 252.654055 73.509567 
L 252.813845 91.134216 
L 253.293218 159.262712 
L 253.541782 234.985725 
L 253.825855 310.266463 
L 254.0034 314.275066 
L 254.056664 314.131844 
L 254.269718 312.342217 
L 254.624809 310.111301 
L 254.855618 309.713136 
L 255.033164 309.760352 
L 255.317236 310.159072 
L 255.849873 310.90112 
L 256.275982 311.073652 
L 256.755355 311.022342 
L 257.3235 310.720883 
L 258.051436 310.063069 
L 259.063445 308.818533 
L 260.6436 306.475744 
L 265.987718 298.330854 
L 268.313564 295.311141 
L 270.745936 292.52282 
L 273.7287 289.461259 
L 278.007545 285.078037 
L 279.374645 283.32734 
L 280.315636 281.768872 
L 281.008064 280.196302 
L 281.522945 278.483186 
L 281.913545 276.403537 
L 282.197618 273.647525 
L 282.392918 269.411004 
L 282.499445 262.743194 
L 282.570464 238.840329 
L 282.7125 73.072722 
L 282.765764 75.665315 
L 283.262891 135.926431 
L 283.546964 204.720906 
L 283.955318 312.442126 
L 284.097355 314.268078 
L 284.115109 314.232144 
L 284.239391 313.397482 
L 284.701009 310.14814 
L 284.931818 309.732912 
L 285.109364 309.773203 
L 285.375682 310.137001 
L 285.943827 310.933993 
L 286.369936 311.104451 
L 286.849309 311.053591 
L 287.417455 310.754509 
L 288.145391 310.101563 
L 289.1574 308.865914 
L 290.737555 306.539679 
L 296.046164 298.507117 
L 298.354255 295.534094 
L 300.733364 292.833528 
L 303.538582 289.997881 
L 308.918209 284.648262 
L 310.196536 282.988298 
L 311.084264 281.48051 
L 311.741182 279.937736 
L 312.238309 278.209864 
L 312.611155 276.110132 
L 312.877473 273.362913 
L 313.055018 269.375796 
L 313.161545 262.671653 
L 313.232564 238.348049 
L 313.3746 73.152783 
L 313.427864 75.781637 
L 313.924991 135.99014 
L 314.209064 204.936481 
L 314.599664 311.769568 
L 314.7417 314.27007 
L 314.759455 314.268829 
L 314.848227 313.836828 
L 315.451882 309.914311 
L 315.664936 309.73081 
L 315.860236 309.878571 
L 316.268591 310.582446 
L 316.641436 310.97151 
L 317.0853 311.126091 
L 317.564673 311.055904 
L 318.150573 310.729022 
L 318.914018 310.021335 
L 319.961536 308.718077 
L 321.665973 306.19049 
L 326.353173 299.115266 
L 328.661264 296.110806 
L 330.987109 293.448071 
L 333.614782 290.78668 
L 340.734355 283.800288 
L 341.817382 282.261843 
L 342.598582 280.769468 
L 343.184482 279.170228 
L 343.628345 277.298609 
L 343.947927 275.002417 
L 344.178736 271.726896 
L 344.338527 265.663379 
L 344.409545 255.856197 
L 344.462809 200.962839 
L 344.587091 73.20275 
L 344.604845 73.539769 
L 344.729127 86.413976 
L 345.279518 166.447217 
L 345.528082 248.64668 
L 345.776645 310.178427 
L 345.954191 314.305058 
L 346.007455 314.169551 
L 346.220509 312.382369 
L 346.5756 310.143463 
L 346.806409 309.745186 
L 346.983955 309.794472 
L 347.268027 310.19879 
L 347.782909 310.909266 
L 348.226773 311.099394 
L 348.706145 311.059816 
L 349.274291 310.775182 
L 350.002227 310.140974 
L 350.996482 308.954582 
L 352.558882 306.697686 
L 357.991773 298.610397 
L 360.264355 295.745919 
L 362.607955 293.151418 
L 364.827273 290.960467 
L 365.040327 300.932572 
L 365.430927 308.688763 
L 365.963564 314.895657 
L 366.6915 320.744785 
L 367.596982 326.228893 
L 368.662255 331.320682 
L 369.851809 335.922776 
L 371.130136 339.995533 
L 372.497236 343.625789 
L 373.953109 346.871833 
L 375.48 349.744743 
L 377.077909 352.28858 
L 378.746836 354.533854 
L 380.469027 356.482686 
L 382.244482 358.157908 
L 384.055445 359.563563 
L 385.919673 360.730146 
L 387.837164 361.668896 
L 389.843427 362.402975 
L 391.973973 362.942975 
L 394.282064 363.29422 
L 396.856473 363.455538 
L 399.874745 363.413741 
L 403.762991 363.123228 
L 411.166636 362.292417 
L 418.783336 361.535297 
L 425.245991 361.124151 
L 432.5076 360.894005 
L 435.845455 360.847382 
L 435.845455 360.847382 
" style="fill:none;stroke:#ff0000;stroke-linecap:square;stroke-width:1.5;"/>
   </g>
   <g id="patch_3">
    <path d="M 63 384.48 
L 63 51.84 
" style="fill:none;stroke:#000000;stroke-linecap:square;stroke-linejoin:miter;stroke-width:0.8;"/>
   </g>
   <g id="patch_4">
    <path d="M 453.6 384.48 
L 453.6 51.84 
" style="fill:none;stroke:#000000;stroke-linecap:square;stroke-linejoin:miter;stroke-width:0.8;"/>
   </g>
   <g id="patch_5">
    <path d="M 63 384.48 
L 453.6 384.48 
" style="fill:none;stroke:#000000;stroke-linecap:square;stroke-linejoin:miter;stroke-width:0.8;"/>
   </g>
   <g id="patch_6">
    <path d="M 63 51.84 
L 453.6 51.84 
" style="fill:none;stroke:#000000;stroke-linecap:square;stroke-linejoin:miter;stroke-width:0.8;"/>
   </g>
   <g id="legend_1">
    <g id="patch_7">
     <path d="M 383.460938 89.19625 
L 446.6 89.19625 
Q 448.6 89.19625 448.6 87.19625 
L 448.6 58.84 
Q 448.6 56.84 446.6 56.84 
L 383.460938 56.84 
Q 381.460938 56.84 381.460938 58.84 
L 381.460938 87.19625 
Q 381.460938 89.19625 383.460938 89.19625 
z
" style="fill:#ffffff;opacity:0.8;stroke:#cccccc;stroke-linejoin:miter;"/>
    </g>
    <g id="line2d_13">
     <path d="M 385.460938 64.938437 
L 405.460938 64.938437 
" style="fill:none;stroke:#1f77b4;stroke-linecap:square;stroke-width:1.5;"/>
    </g>
    <g id="line2d_14"/>
    <g id="text_13">
     <!-- target -->
     <defs>
      <path d="M 41.109375 46.296875 
Q 39.59375 47.171875 37.8125 47.578125 
Q 36.03125 48 33.890625 48 
Q 26.265625 48 22.1875 43.046875 
Q 18.109375 38.09375 18.109375 28.8125 
L 18.109375 0 
L 9.078125 0 
L 9.078125 54.6875 
L 18.109375 54.6875 
L 18.109375 46.1875 
Q 20.953125 51.171875 25.484375 53.578125 
Q 30.03125 56 36.53125 56 
Q 37.453125 56 38.578125 55.875 
Q 39.703125 55.765625 41.0625 55.515625 
z
" id="DejaVuSans-114"/>
     </defs>
     <g transform="translate(413.460938 68.438437)scale(0.1 -0.1)">
      <use xlink:href="#DejaVuSans-116"/>
      <use x="39.208984" xlink:href="#DejaVuSans-97"/>
      <use x="100.488281" xlink:href="#DejaVuSans-114"/>
      <use x="141.585938" xlink:href="#DejaVuSans-103"/>
      <use x="205.0625" xlink:href="#DejaVuSans-101"/>
      <use x="266.585938" xlink:href="#DejaVuSans-116"/>
     </g>
    </g>
    <g id="line2d_15">
     <path d="M 385.460938 79.616562 
L 405.460938 79.616562 
" style="fill:none;stroke:#ff0000;stroke-linecap:square;stroke-width:1.5;"/>
    </g>
    <g id="line2d_16"/>
    <g id="text_14">
     <!-- model -->
     <defs>
      <path d="M 45.40625 46.390625 
L 45.40625 75.984375 
L 54.390625 75.984375 
L 54.390625 0 
L 45.40625 0 
L 45.40625 8.203125 
Q 42.578125 3.328125 38.25 0.953125 
Q 33.9375 -1.421875 27.875 -1.421875 
Q 17.96875 -1.421875 11.734375 6.484375 
Q 5.515625 14.40625 5.515625 27.296875 
Q 5.515625 40.1875 11.734375 48.09375 
Q 17.96875 56 27.875 56 
Q 33.9375 56 38.25 53.625 
Q 42.578125 51.265625 45.40625 46.390625 
z
M 14.796875 27.296875 
Q 14.796875 17.390625 18.875 11.75 
Q 22.953125 6.109375 30.078125 6.109375 
Q 37.203125 6.109375 41.296875 11.75 
Q 45.40625 17.390625 45.40625 27.296875 
Q 45.40625 37.203125 41.296875 42.84375 
Q 37.203125 48.484375 30.078125 48.484375 
Q 22.953125 48.484375 18.875 42.84375 
Q 14.796875 37.203125 14.796875 27.296875 
z
" id="DejaVuSans-100"/>
     </defs>
     <g transform="translate(413.460938 83.116562)scale(0.1 -0.1)">
      <use xlink:href="#DejaVuSans-109"/>
      <use x="97.412109" xlink:href="#DejaVuSans-111"/>
      <use x="158.59375" xlink:href="#DejaVuSans-100"/>
      <use x="222.070312" xlink:href="#DejaVuSans-101"/>
      <use x="283.59375" xlink:href="#DejaVuSans-108"/>
     </g>
    </g>
   </g>
  </g>
 </g>
 <defs>
  <clipPath id="p50850347d0">
   <rect height="332.64" width="390.6" x="63" y="51.84"/>
  </clipPath>
 </defs>
</svg>
