<?xml version="1.0" encoding="utf-8" standalone="no"?>
<!DOCTYPE svg PUBLIC "-//W3C//DTD SVG 1.1//EN"
  "http://www.w3.org/Graphics/SVG/1.1/DTD/svg11.dtd">
<!-- Created with matplotlib (http://matplotlib.org/) -->
<svg height="432pt" version="1.1" viewBox="0 0 504 432" width="504pt" xmlns="http://www.w3.org/2000/svg" xmlns:xlink="http://www.w3.org/1999/xlink">
 <defs>
  <style type="text/css">
*{stroke-linecap:butt;stroke-linejoin:round;}
  </style>
 </defs>
 <g id="figure_1">
  <g id="patch_1">
   <path d="M 0 432 
L 504 432 
L 504 0 
L 0 0 
z
" style="fill:#ffffff;"/>
  </g>
  <g id="axes_1">
   <g id="patch_2">
    <path d="M 63 384.48 
L 453.6 384.48 
L 453.6 51.84 
L 63 51.84 
z
" style="fill:#ffffff;"/>
   </g>
   <g id="matplotlib.axis_1">
    <g id="xtick_1">
     <g id="line2d_1">
      <defs>
       <path d="M 0 0 
L 0 3.5 
" id="mf1f73ed48e" style="stroke:#000000;stroke-width:0.8;"/>
      </defs>
      <g>
       <use style="stroke:#000000;stroke-width:0.8;" x="80.754545" xlink:href="#mf1f73ed48e" y="384.48"/>
      </g>
     </g>
     <g id="text_1">
      <!-- 0 -->
      <defs>
       <path d="M 31.78125 66.40625 
Q 24.171875 66.40625 20.328125 58.90625 
Q 16.5 51.421875 16.5 36.375 
Q 16.5 21.390625 20.328125 13.890625 
Q 24.171875 6.390625 31.78125 6.390625 
Q 39.453125 6.390625 43.28125 13.890625 
Q 47.125 21.390625 47.125 36.375 
Q 47.125 51.421875 43.28125 58.90625 
Q 39.453125 66.40625 31.78125 66.40625 
z
M 31.78125 74.21875 
Q 44.046875 74.21875 50.515625 64.515625 
Q 56.984375 54.828125 56.984375 36.375 
Q 56.984375 17.96875 50.515625 8.265625 
Q 44.046875 -1.421875 31.78125 -1.421875 
Q 19.53125 -1.421875 13.0625 8.265625 
Q 6.59375 17.96875 6.59375 36.375 
Q 6.59375 54.828125 13.0625 64.515625 
Q 19.53125 74.21875 31.78125 74.21875 
z
" id="DejaVuSans-30"/>
      </defs>
      <g transform="translate(77.573295 399.078438)scale(0.1 -0.1)">
       <use xlink:href="#DejaVuSans-30"/>
      </g>
     </g>
    </g>
    <g id="xtick_2">
     <g id="line2d_2">
      <g>
       <use style="stroke:#000000;stroke-width:0.8;" x="151.767796" xlink:href="#mf1f73ed48e" y="384.48"/>
      </g>
     </g>
     <g id="text_2">
      <!-- 720 -->
      <defs>
       <path d="M 8.203125 72.90625 
L 55.078125 72.90625 
L 55.078125 68.703125 
L 28.609375 0 
L 18.3125 0 
L 43.21875 64.59375 
L 8.203125 64.59375 
z
" id="DejaVuSans-37"/>
       <path d="M 19.1875 8.296875 
L 53.609375 8.296875 
L 53.609375 0 
L 7.328125 0 
L 7.328125 8.296875 
Q 12.9375 14.109375 22.625 23.890625 
Q 32.328125 33.6875 34.8125 36.53125 
Q 39.546875 41.84375 41.421875 45.53125 
Q 43.3125 49.21875 43.3125 52.78125 
Q 43.3125 58.59375 39.234375 62.25 
Q 35.15625 65.921875 28.609375 65.921875 
Q 23.96875 65.921875 18.8125 64.3125 
Q 13.671875 62.703125 7.8125 59.421875 
L 7.8125 69.390625 
Q 13.765625 71.78125 18.9375 73 
Q 24.125 74.21875 28.421875 74.21875 
Q 39.75 74.21875 46.484375 68.546875 
Q 53.21875 62.890625 53.21875 53.421875 
Q 53.21875 48.921875 51.53125 44.890625 
Q 49.859375 40.875 45.40625 35.40625 
Q 44.1875 33.984375 37.640625 27.21875 
Q 31.109375 20.453125 19.1875 8.296875 
z
" id="DejaVuSans-32"/>
      </defs>
      <g transform="translate(142.224046 399.078438)scale(0.1 -0.1)">
       <use xlink:href="#DejaVuSans-37"/>
       <use x="63.623047" xlink:href="#DejaVuSans-32"/>
       <use x="127.246094" xlink:href="#DejaVuSans-30"/>
      </g>
     </g>
    </g>
    <g id="xtick_3">
     <g id="line2d_3">
      <g>
       <use style="stroke:#000000;stroke-width:0.8;" x="222.781046" xlink:href="#mf1f73ed48e" y="384.48"/>
      </g>
     </g>
     <g id="text_3">
      <!-- 1440 -->
      <defs>
       <path d="M 12.40625 8.296875 
L 28.515625 8.296875 
L 28.515625 63.921875 
L 10.984375 60.40625 
L 10.984375 69.390625 
L 28.421875 72.90625 
L 38.28125 72.90625 
L 38.28125 8.296875 
L 54.390625 8.296875 
L 54.390625 0 
L 12.40625 0 
z
" id="DejaVuSans-31"/>
       <path d="M 37.796875 64.3125 
L 12.890625 25.390625 
L 37.796875 25.390625 
z
M 35.203125 72.90625 
L 47.609375 72.90625 
L 47.609375 25.390625 
L 58.015625 25.390625 
L 58.015625 17.1875 
L 47.609375 17.1875 
L 47.609375 0 
L 37.796875 0 
L 37.796875 17.1875 
L 4.890625 17.1875 
L 4.890625 26.703125 
z
" id="DejaVuSans-34"/>
      </defs>
      <g transform="translate(210.056046 399.078438)scale(0.1 -0.1)">
       <use xlink:href="#DejaVuSans-31"/>
       <use x="63.623047" xlink:href="#DejaVuSans-34"/>
       <use x="127.246094" xlink:href="#DejaVuSans-34"/>
       <use x="190.869141" xlink:href="#DejaVuSans-30"/>
      </g>
     </g>
    </g>
    <g id="xtick_4">
     <g id="line2d_4">
      <g>
       <use style="stroke:#000000;stroke-width:0.8;" x="293.794296" xlink:href="#mf1f73ed48e" y="384.48"/>
      </g>
     </g>
     <g id="text_4">
      <!-- 2160 -->
      <defs>
       <path d="M 33.015625 40.375 
Q 26.375 40.375 22.484375 35.828125 
Q 18.609375 31.296875 18.609375 23.390625 
Q 18.609375 15.53125 22.484375 10.953125 
Q 26.375 6.390625 33.015625 6.390625 
Q 39.65625 6.390625 43.53125 10.953125 
Q 47.40625 15.53125 47.40625 23.390625 
Q 47.40625 31.296875 43.53125 35.828125 
Q 39.65625 40.375 33.015625 40.375 
z
M 52.59375 71.296875 
L 52.59375 62.3125 
Q 48.875 64.0625 45.09375 64.984375 
Q 41.3125 65.921875 37.59375 65.921875 
Q 27.828125 65.921875 22.671875 59.328125 
Q 17.53125 52.734375 16.796875 39.40625 
Q 19.671875 43.65625 24.015625 45.921875 
Q 28.375 48.1875 33.59375 48.1875 
Q 44.578125 48.1875 50.953125 41.515625 
Q 57.328125 34.859375 57.328125 23.390625 
Q 57.328125 12.15625 50.6875 5.359375 
Q 44.046875 -1.421875 33.015625 -1.421875 
Q 20.359375 -1.421875 13.671875 8.265625 
Q 6.984375 17.96875 6.984375 36.375 
Q 6.984375 53.65625 15.1875 63.9375 
Q 23.390625 74.21875 37.203125 74.21875 
Q 40.921875 74.21875 44.703125 73.484375 
Q 48.484375 72.75 52.59375 71.296875 
z
" id="DejaVuSans-36"/>
      </defs>
      <g transform="translate(281.069296 399.078438)scale(0.1 -0.1)">
       <use xlink:href="#DejaVuSans-32"/>
       <use x="63.623047" xlink:href="#DejaVuSans-31"/>
       <use x="127.246094" xlink:href="#DejaVuSans-36"/>
       <use x="190.869141" xlink:href="#DejaVuSans-30"/>
      </g>
     </g>
    </g>
    <g id="xtick_5">
     <g id="line2d_5">
      <g>
       <use style="stroke:#000000;stroke-width:0.8;" x="364.807547" xlink:href="#mf1f73ed48e" y="384.48"/>
      </g>
     </g>
     <g id="text_5">
      <!-- 2880 -->
      <defs>
       <path d="M 31.78125 34.625 
Q 24.75 34.625 20.71875 30.859375 
Q 16.703125 27.09375 16.703125 20.515625 
Q 16.703125 13.921875 20.71875 10.15625 
Q 24.75 6.390625 31.78125 6.390625 
Q 38.8125 6.390625 42.859375 10.171875 
Q 46.921875 13.96875 46.921875 20.515625 
Q 46.921875 27.09375 42.890625 30.859375 
Q 38.875 34.625 31.78125 34.625 
z
M 21.921875 38.8125 
Q 15.578125 40.375 12.03125 44.71875 
Q 8.5 49.078125 8.5 55.328125 
Q 8.5 64.0625 14.71875 69.140625 
Q 20.953125 74.21875 31.78125 74.21875 
Q 42.671875 74.21875 48.875 69.140625 
Q 55.078125 64.0625 55.078125 55.328125 
Q 55.078125 49.078125 51.53125 44.71875 
Q 48 40.375 41.703125 38.8125 
Q 48.828125 37.15625 52.796875 32.3125 
Q 56.78125 27.484375 56.78125 20.515625 
Q 56.78125 9.90625 50.3125 4.234375 
Q 43.84375 -1.421875 31.78125 -1.421875 
Q 19.734375 -1.421875 13.25 4.234375 
Q 6.78125 9.90625 6.78125 20.515625 
Q 6.78125 27.484375 10.78125 32.3125 
Q 14.796875 37.15625 21.921875 38.8125 
z
M 18.3125 54.390625 
Q 18.3125 48.734375 21.84375 45.5625 
Q 25.390625 42.390625 31.78125 42.390625 
Q 38.140625 42.390625 41.71875 45.5625 
Q 45.3125 48.734375 45.3125 54.390625 
Q 45.3125 60.0625 41.71875 63.234375 
Q 38.140625 66.40625 31.78125 66.40625 
Q 25.390625 66.40625 21.84375 63.234375 
Q 18.3125 60.0625 18.3125 54.390625 
z
" id="DejaVuSans-38"/>
      </defs>
      <g transform="translate(352.082547 399.078438)scale(0.1 -0.1)">
       <use xlink:href="#DejaVuSans-32"/>
       <use x="63.623047" xlink:href="#DejaVuSans-38"/>
       <use x="127.246094" xlink:href="#DejaVuSans-38"/>
       <use x="190.869141" xlink:href="#DejaVuSans-30"/>
      </g>
     </g>
    </g>
    <g id="text_6">
     <!-- time [ms] -->
     <defs>
      <path d="M 18.3125 70.21875 
L 18.3125 54.6875 
L 36.8125 54.6875 
L 36.8125 47.703125 
L 18.3125 47.703125 
L 18.3125 18.015625 
Q 18.3125 11.328125 20.140625 9.421875 
Q 21.96875 7.515625 27.59375 7.515625 
L 36.8125 7.515625 
L 36.8125 0 
L 27.59375 0 
Q 17.1875 0 13.234375 3.875 
Q 9.28125 7.765625 9.28125 18.015625 
L 9.28125 47.703125 
L 2.6875 47.703125 
L 2.6875 54.6875 
L 9.28125 54.6875 
L 9.28125 70.21875 
z
" id="DejaVuSans-74"/>
      <path d="M 9.421875 54.6875 
L 18.40625 54.6875 
L 18.40625 0 
L 9.421875 0 
z
M 9.421875 75.984375 
L 18.40625 75.984375 
L 18.40625 64.59375 
L 9.421875 64.59375 
z
" id="DejaVuSans-69"/>
      <path d="M 52 44.1875 
Q 55.375 50.25 60.0625 53.125 
Q 64.75 56 71.09375 56 
Q 79.640625 56 84.28125 50.015625 
Q 88.921875 44.046875 88.921875 33.015625 
L 88.921875 0 
L 79.890625 0 
L 79.890625 32.71875 
Q 79.890625 40.578125 77.09375 44.375 
Q 74.3125 48.1875 68.609375 48.1875 
Q 61.625 48.1875 57.5625 43.546875 
Q 53.515625 38.921875 53.515625 30.90625 
L 53.515625 0 
L 44.484375 0 
L 44.484375 32.71875 
Q 44.484375 40.625 41.703125 44.40625 
Q 38.921875 48.1875 33.109375 48.1875 
Q 26.21875 48.1875 22.15625 43.53125 
Q 18.109375 38.875 18.109375 30.90625 
L 18.109375 0 
L 9.078125 0 
L 9.078125 54.6875 
L 18.109375 54.6875 
L 18.109375 46.1875 
Q 21.1875 51.21875 25.484375 53.609375 
Q 29.78125 56 35.6875 56 
Q 41.65625 56 45.828125 52.96875 
Q 50 49.953125 52 44.1875 
z
" id="DejaVuSans-6d"/>
      <path d="M 56.203125 29.59375 
L 56.203125 25.203125 
L 14.890625 25.203125 
Q 15.484375 15.921875 20.484375 11.0625 
Q 25.484375 6.203125 34.421875 6.203125 
Q 39.59375 6.203125 44.453125 7.46875 
Q 49.3125 8.734375 54.109375 11.28125 
L 54.109375 2.78125 
Q 49.265625 0.734375 44.1875 -0.34375 
Q 39.109375 -1.421875 33.890625 -1.421875 
Q 20.796875 -1.421875 13.15625 6.1875 
Q 5.515625 13.8125 5.515625 26.8125 
Q 5.515625 40.234375 12.765625 48.109375 
Q 20.015625 56 32.328125 56 
Q 43.359375 56 49.78125 48.890625 
Q 56.203125 41.796875 56.203125 29.59375 
z
M 47.21875 32.234375 
Q 47.125 39.59375 43.09375 43.984375 
Q 39.0625 48.390625 32.421875 48.390625 
Q 24.90625 48.390625 20.390625 44.140625 
Q 15.875 39.890625 15.1875 32.171875 
z
" id="DejaVuSans-65"/>
      <path id="DejaVuSans-20"/>
      <path d="M 8.59375 75.984375 
L 29.296875 75.984375 
L 29.296875 69 
L 17.578125 69 
L 17.578125 -6.203125 
L 29.296875 -6.203125 
L 29.296875 -13.1875 
L 8.59375 -13.1875 
z
" id="DejaVuSans-5b"/>
      <path d="M 44.28125 53.078125 
L 44.28125 44.578125 
Q 40.484375 46.53125 36.375 47.5 
Q 32.28125 48.484375 27.875 48.484375 
Q 21.1875 48.484375 17.84375 46.4375 
Q 14.5 44.390625 14.5 40.28125 
Q 14.5 37.15625 16.890625 35.375 
Q 19.28125 33.59375 26.515625 31.984375 
L 29.59375 31.296875 
Q 39.15625 29.25 43.1875 25.515625 
Q 47.21875 21.78125 47.21875 15.09375 
Q 47.21875 7.46875 41.1875 3.015625 
Q 35.15625 -1.421875 24.609375 -1.421875 
Q 20.21875 -1.421875 15.453125 -0.5625 
Q 10.6875 0.296875 5.421875 2 
L 5.421875 11.28125 
Q 10.40625 8.6875 15.234375 7.390625 
Q 20.0625 6.109375 24.8125 6.109375 
Q 31.15625 6.109375 34.5625 8.28125 
Q 37.984375 10.453125 37.984375 14.40625 
Q 37.984375 18.0625 35.515625 20.015625 
Q 33.0625 21.96875 24.703125 23.78125 
L 21.578125 24.515625 
Q 13.234375 26.265625 9.515625 29.90625 
Q 5.8125 33.546875 5.8125 39.890625 
Q 5.8125 47.609375 11.28125 51.796875 
Q 16.75 56 26.8125 56 
Q 31.78125 56 36.171875 55.265625 
Q 40.578125 54.546875 44.28125 53.078125 
z
" id="DejaVuSans-73"/>
      <path d="M 30.421875 75.984375 
L 30.421875 -13.1875 
L 9.71875 -13.1875 
L 9.71875 -6.203125 
L 21.390625 -6.203125 
L 21.390625 69 
L 9.71875 69 
L 9.71875 75.984375 
z
" id="DejaVuSans-5d"/>
     </defs>
     <g transform="translate(234.038281 412.756563)scale(0.1 -0.1)">
      <use xlink:href="#DejaVuSans-74"/>
      <use x="39.208984" xlink:href="#DejaVuSans-69"/>
      <use x="66.992188" xlink:href="#DejaVuSans-6d"/>
      <use x="164.404297" xlink:href="#DejaVuSans-65"/>
      <use x="225.927734" xlink:href="#DejaVuSans-20"/>
      <use x="257.714844" xlink:href="#DejaVuSans-5b"/>
      <use x="296.728516" xlink:href="#DejaVuSans-6d"/>
      <use x="394.140625" xlink:href="#DejaVuSans-73"/>
      <use x="446.240234" xlink:href="#DejaVuSans-5d"/>
     </g>
    </g>
   </g>
   <g id="matplotlib.axis_2">
    <g id="ytick_1">
     <g id="line2d_6">
      <defs>
       <path d="M 0 0 
L -3.5 0 
" id="me842e5908c" style="stroke:#000000;stroke-width:0.8;"/>
      </defs>
      <g>
       <use style="stroke:#000000;stroke-width:0.8;" x="63" xlink:href="#me842e5908c" y="357.369178"/>
      </g>
     </g>
     <g id="text_7">
      <!-- −80 -->
      <defs>
       <path d="M 10.59375 35.5 
L 73.1875 35.5 
L 73.1875 27.203125 
L 10.59375 27.203125 
z
" id="DejaVuSans-2212"/>
      </defs>
      <g transform="translate(34.895313 361.168396)scale(0.1 -0.1)">
       <use xlink:href="#DejaVuSans-2212"/>
       <use x="83.789062" xlink:href="#DejaVuSans-38"/>
       <use x="147.412109" xlink:href="#DejaVuSans-30"/>
      </g>
     </g>
    </g>
    <g id="ytick_2">
     <g id="line2d_7">
      <g>
       <use style="stroke:#000000;stroke-width:0.8;" x="63" xlink:href="#me842e5908c" y="309.000731"/>
      </g>
     </g>
     <g id="text_8">
      <!-- −60 -->
      <g transform="translate(34.895313 312.79995)scale(0.1 -0.1)">
       <use xlink:href="#DejaVuSans-2212"/>
       <use x="83.789062" xlink:href="#DejaVuSans-36"/>
       <use x="147.412109" xlink:href="#DejaVuSans-30"/>
      </g>
     </g>
    </g>
    <g id="ytick_3">
     <g id="line2d_8">
      <g>
       <use style="stroke:#000000;stroke-width:0.8;" x="63" xlink:href="#me842e5908c" y="260.632285"/>
      </g>
     </g>
     <g id="text_9">
      <!-- −40 -->
      <g transform="translate(34.895313 264.431504)scale(0.1 -0.1)">
       <use xlink:href="#DejaVuSans-2212"/>
       <use x="83.789062" xlink:href="#DejaVuSans-34"/>
       <use x="147.412109" xlink:href="#DejaVuSans-30"/>
      </g>
     </g>
    </g>
    <g id="ytick_4">
     <g id="line2d_9">
      <g>
       <use style="stroke:#000000;stroke-width:0.8;" x="63" xlink:href="#me842e5908c" y="212.263839"/>
      </g>
     </g>
     <g id="text_10">
      <!-- −20 -->
      <g transform="translate(34.895313 216.063058)scale(0.1 -0.1)">
       <use xlink:href="#DejaVuSans-2212"/>
       <use x="83.789062" xlink:href="#DejaVuSans-32"/>
       <use x="147.412109" xlink:href="#DejaVuSans-30"/>
      </g>
     </g>
    </g>
    <g id="ytick_5">
     <g id="line2d_10">
      <g>
       <use style="stroke:#000000;stroke-width:0.8;" x="63" xlink:href="#me842e5908c" y="163.895393"/>
      </g>
     </g>
     <g id="text_11">
      <!-- 0 -->
      <g transform="translate(49.6375 167.694612)scale(0.1 -0.1)">
       <use xlink:href="#DejaVuSans-30"/>
      </g>
     </g>
    </g>
    <g id="ytick_6">
     <g id="line2d_11">
      <g>
       <use style="stroke:#000000;stroke-width:0.8;" x="63" xlink:href="#me842e5908c" y="115.526947"/>
      </g>
     </g>
     <g id="text_12">
      <!-- 20 -->
      <g transform="translate(43.275 119.326166)scale(0.1 -0.1)">
       <use xlink:href="#DejaVuSans-32"/>
       <use x="63.623047" xlink:href="#DejaVuSans-30"/>
      </g>
     </g>
    </g>
    <g id="ytick_7">
     <g id="line2d_12">
      <g>
       <use style="stroke:#000000;stroke-width:0.8;" x="63" xlink:href="#me842e5908c" y="67.158501"/>
      </g>
     </g>
     <g id="text_13">
      <!-- 40 -->
      <g transform="translate(43.275 70.957719)scale(0.1 -0.1)">
       <use xlink:href="#DejaVuSans-34"/>
       <use x="63.623047" xlink:href="#DejaVuSans-30"/>
      </g>
     </g>
    </g>
    <g id="text_14">
     <!-- Voltage [mV] -->
     <defs>
      <path d="M 28.609375 0 
L 0.78125 72.90625 
L 11.078125 72.90625 
L 34.1875 11.53125 
L 57.328125 72.90625 
L 67.578125 72.90625 
L 39.796875 0 
z
" id="DejaVuSans-56"/>
      <path d="M 30.609375 48.390625 
Q 23.390625 48.390625 19.1875 42.75 
Q 14.984375 37.109375 14.984375 27.296875 
Q 14.984375 17.484375 19.15625 11.84375 
Q 23.34375 6.203125 30.609375 6.203125 
Q 37.796875 6.203125 41.984375 11.859375 
Q 46.1875 17.53125 46.1875 27.296875 
Q 46.1875 37.015625 41.984375 42.703125 
Q 37.796875 48.390625 30.609375 48.390625 
z
M 30.609375 56 
Q 42.328125 56 49.015625 48.375 
Q 55.71875 40.765625 55.71875 27.296875 
Q 55.71875 13.875 49.015625 6.21875 
Q 42.328125 -1.421875 30.609375 -1.421875 
Q 18.84375 -1.421875 12.171875 6.21875 
Q 5.515625 13.875 5.515625 27.296875 
Q 5.515625 40.765625 12.171875 48.375 
Q 18.84375 56 30.609375 56 
z
" id="DejaVuSans-6f"/>
      <path d="M 9.421875 75.984375 
L 18.40625 75.984375 
L 18.40625 0 
L 9.421875 0 
z
" id="DejaVuSans-6c"/>
      <path d="M 34.28125 27.484375 
Q 23.390625 27.484375 19.1875 25 
Q 14.984375 22.515625 14.984375 16.5 
Q 14.984375 11.71875 18.140625 8.90625 
Q 21.296875 6.109375 26.703125 6.109375 
Q 34.1875 6.109375 38.703125 11.40625 
Q 43.21875 16.703125 43.21875 25.484375 
L 43.21875 27.484375 
z
M 52.203125 31.203125 
L 52.203125 0 
L 43.21875 0 
L 43.21875 8.296875 
Q 40.140625 3.328125 35.546875 0.953125 
Q 30.953125 -1.421875 24.3125 -1.421875 
Q 15.921875 -1.421875 10.953125 3.296875 
Q 6 8.015625 6 15.921875 
Q 6 25.140625 12.171875 29.828125 
Q 18.359375 34.515625 30.609375 34.515625 
L 43.21875 34.515625 
L 43.21875 35.40625 
Q 43.21875 41.609375 39.140625 45 
Q 35.0625 48.390625 27.6875 48.390625 
Q 23 48.390625 18.546875 47.265625 
Q 14.109375 46.140625 10.015625 43.890625 
L 10.015625 52.203125 
Q 14.9375 54.109375 19.578125 55.046875 
Q 24.21875 56 28.609375 56 
Q 40.484375 56 46.34375 49.84375 
Q 52.203125 43.703125 52.203125 31.203125 
z
" id="DejaVuSans-61"/>
      <path d="M 45.40625 27.984375 
Q 45.40625 37.75 41.375 43.109375 
Q 37.359375 48.484375 30.078125 48.484375 
Q 22.859375 48.484375 18.828125 43.109375 
Q 14.796875 37.75 14.796875 27.984375 
Q 14.796875 18.265625 18.828125 12.890625 
Q 22.859375 7.515625 30.078125 7.515625 
Q 37.359375 7.515625 41.375 12.890625 
Q 45.40625 18.265625 45.40625 27.984375 
z
M 54.390625 6.78125 
Q 54.390625 -7.171875 48.1875 -13.984375 
Q 42 -20.796875 29.203125 -20.796875 
Q 24.46875 -20.796875 20.265625 -20.09375 
Q 16.0625 -19.390625 12.109375 -17.921875 
L 12.109375 -9.1875 
Q 16.0625 -11.328125 19.921875 -12.34375 
Q 23.78125 -13.375 27.78125 -13.375 
Q 36.625 -13.375 41.015625 -8.765625 
Q 45.40625 -4.15625 45.40625 5.171875 
L 45.40625 9.625 
Q 42.625 4.78125 38.28125 2.390625 
Q 33.9375 0 27.875 0 
Q 17.828125 0 11.671875 7.65625 
Q 5.515625 15.328125 5.515625 27.984375 
Q 5.515625 40.671875 11.671875 48.328125 
Q 17.828125 56 27.875 56 
Q 33.9375 56 38.28125 53.609375 
Q 42.625 51.21875 45.40625 46.390625 
L 45.40625 54.6875 
L 54.390625 54.6875 
z
" id="DejaVuSans-67"/>
     </defs>
     <g transform="translate(28.815625 251.079531)rotate(-90)scale(0.1 -0.1)">
      <use xlink:href="#DejaVuSans-56"/>
      <use x="68.298828" xlink:href="#DejaVuSans-6f"/>
      <use x="129.480469" xlink:href="#DejaVuSans-6c"/>
      <use x="157.263672" xlink:href="#DejaVuSans-74"/>
      <use x="196.472656" xlink:href="#DejaVuSans-61"/>
      <use x="257.751953" xlink:href="#DejaVuSans-67"/>
      <use x="321.228516" xlink:href="#DejaVuSans-65"/>
      <use x="382.751953" xlink:href="#DejaVuSans-20"/>
      <use x="414.539062" xlink:href="#DejaVuSans-5b"/>
      <use x="453.552734" xlink:href="#DejaVuSans-6d"/>
      <use x="550.964844" xlink:href="#DejaVuSans-56"/>
      <use x="619.373047" xlink:href="#DejaVuSans-5d"/>
     </g>
    </g>
   </g>
   <g id="line2d_13">
    <path clip-path="url(#p25acd50295)" d="M 80.754545 321.092843 
L 81.459746 322.590346 
L 82.041661 323.093998 
L 82.810971 323.461329 
L 83.772609 323.668418 
L 85.039998 323.700754 
L 87.130944 323.498809 
L 91.948995 323.011697 
L 96.096366 322.867173 
L 100.480448 322.838138 
L 100.638256 337.603845 
L 101.032774 351.341862 
L 101.580167 363.600462 
L 101.974685 368.323092 
L 102.226191 369.337893 
L 102.319889 369.332506 
L 102.344546 369.298809 
L 102.49249 368.835972 
L 102.748927 367.153203 
L 103.296321 361.68143 
L 104.080426 354.56195 
L 104.608094 351.646478 
L 105.046995 350.319641 
L 105.406993 349.836509 
L 105.702881 349.764573 
L 106.008633 349.932539 
L 106.422877 350.449393 
L 107.118215 351.737706 
L 108.410261 354.106758 
L 109.031627 354.786209 
L 109.569158 355.064867 
L 110.11162 355.096129 
L 110.797096 354.894181 
L 113.243107 353.992905 
L 114.337895 353.951773 
L 120.724156 354.124545 
L 128.264383 354.123736 
L 130.069303 354.122656 
L 130.22711 339.663863 
L 130.587108 328.222601 
L 131.099981 318.404395 
L 131.617786 312.378365 
L 132.101071 309.092262 
L 132.53504 307.493309 
L 132.89997 306.87322 
L 133.20079 306.739401 
L 133.491747 306.86085 
L 133.866539 307.291505 
L 134.423796 308.315251 
L 135.454474 310.766873 
L 137.427064 315.407858 
L 138.630344 317.655435 
L 139.749789 319.292565 
L 139.932254 319.520409 
L 140.045678 321.479769 
L 140.430333 322.307738 
L 140.938275 322.882291 
L 141.62375 323.314186 
L 142.496621 323.596111 
L 143.601272 323.709514 
L 145.184276 323.628639 
L 153.548059 322.904826 
L 159.608842 322.838227 
L 159.663088 322.838138 
L 159.820896 319.883889 
L 160.215414 317.14097 
L 160.851574 314.201067 
L 161.532118 312.042852 
L 162.202798 310.613446 
L 162.858685 309.709221 
L 163.519502 309.160334 
L 164.224703 308.860464 
L 165.043328 308.760444 
L 166.133185 308.868126 
L 168.209336 309.347619 
L 171.19781 309.971459 
L 173.919985 310.295399 
L 177.534756 310.484004 
L 184.142934 310.566671 
L 189.251943 310.577011 
L 189.40975 313.527739 
L 189.794405 316.158546 
L 190.405908 318.869302 
L 191.08152 320.910246 
L 191.771927 322.32801 
L 192.467265 323.273985 
L 193.177397 323.878621 
L 193.931913 324.233207 
L 194.794921 324.387977 
L 195.889709 324.345281 
L 197.650246 324.022031 
L 199.114894 323.704818 
L 199.119826 321.092843 
L 199.228318 321.479769 
L 199.612973 322.307738 
L 200.120915 322.882291 
L 200.80639 323.314186 
L 201.679262 323.596111 
L 202.783912 323.709514 
L 204.366916 323.628639 
L 212.730699 322.904826 
L 218.791482 322.838227 
L 218.845729 322.838138 
L 219.003536 316.928703 
L 219.398054 311.43678 
L 220.034214 305.534323 
L 220.734484 300.99991 
L 221.479137 297.577237 
L 222.342145 294.655305 
L 223.520767 290.761598 
L 223.742684 289.007348 
L 223.836382 286.253994 
L 223.856108 281.47721 
L 223.915286 66.96 
L 224.013915 175.755016 
L 224.225969 293.094189 
L 224.413365 302.933108 
L 224.615555 304.509914 
L 224.793088 304.652818 
L 225.015005 304.45992 
L 225.858287 303.651646 
L 226.800199 303.173659 
L 231.475238 301.219413 
L 233.561252 300.638055 
L 235.790279 300.253053 
L 238.502591 300.021545 
L 242.551332 299.923656 
L 248.434583 299.923952 
L 248.59239 305.884346 
L 248.962251 310.955082 
L 249.524439 315.767743 
L 250.155668 319.356686 
L 250.806623 321.84311 
L 251.452646 323.489289 
L 252.093738 324.549104 
L 252.724967 325.186319 
L 253.375921 325.535565 
L 254.086054 325.662594 
L 254.949062 325.580541 
L 256.181931 325.217697 
L 258.297534 324.420353 
L 258.302466 321.092843 
L 258.410958 321.479769 
L 258.795613 322.307738 
L 259.303555 322.882291 
L 259.98903 323.314186 
L 260.861902 323.596111 
L 261.966552 323.709514 
L 263.549556 323.628639 
L 271.913339 322.904826 
L 277.974122 322.838227 
L 278.028369 322.838138 
L 278.186176 313.971461 
L 278.580694 305.689977 
L 279.374661 294.042611 
L 279.650824 288.41982 
L 279.700139 281.384484 
L 279.759317 67.563117 
L 279.857946 178.99885 
L 280.065068 289.086242 
L 280.247533 298.173429 
L 280.385614 298.877366 
L 280.410271 298.859426 
L 280.523695 298.521057 
L 280.883693 296.480232 
L 281.805879 291.533961 
L 282.60971 287.195226 
L 282.8119 284.733278 
L 282.880941 280.866447 
L 282.900667 244.899488 
L 282.949981 71.550121 
L 283.033816 162.47614 
L 283.250801 291.847634 
L 283.433266 301.110646 
L 283.586142 301.883092 
L 283.600936 301.877088 
L 283.704497 301.657288 
L 284.034906 300.207574 
L 284.730244 297.458124 
L 285.395993 295.737195 
L 286.229413 294.206733 
L 287.338995 292.648952 
L 289.010765 290.720647 
L 290.938972 288.445584 
L 291.589927 287.31927 
L 291.979513 286.201588 
L 292.216224 284.817063 
L 292.33458 282.757133 
L 292.374031 277.650149 
L 292.443072 74.92741 
L 292.546633 188.009658 
L 292.748824 289.215414 
L 292.93622 298.197715 
L 293.128547 299.436344 
L 293.246903 299.467252 
L 293.266629 299.451284 
L 293.488545 299.092257 
L 294.47484 297.361454 
L 295.540039 296.105168 
L 298.060023 293.535931 
L 300.72302 291.12687 
L 303.810124 288.332925 
L 304.539982 287.341649 
L 304.973952 286.377566 
L 305.245183 285.206206 
L 305.398059 283.442817 
L 305.457237 279.37486 
L 305.481894 221.720276 
L 305.531209 77.333878 
L 305.605181 153.900289 
L 305.822166 286.221952 
L 306.009562 297.078204 
L 306.211752 298.728811 
L 306.379423 298.85792 
L 306.581613 298.653334 
L 307.617223 297.303738 
L 307.77503 305.903508 
L 308.125165 312.294679 
L 308.64297 317.897288 
L 309.224884 321.925465 
L 309.821593 324.608818 
L 310.41337 326.318724 
L 310.985421 327.340591 
L 311.537746 327.899891 
L 312.08514 328.149141 
L 312.671986 328.170755 
L 313.382118 327.962853 
L 314.383208 327.414365 
L 317.480174 325.368993 
L 317.485106 321.092843 
L 317.593598 321.479769 
L 317.978253 322.307738 
L 318.486195 322.882291 
L 319.171671 323.314186 
L 320.044542 323.596111 
L 321.149192 323.709514 
L 322.732196 323.628639 
L 331.095979 322.904826 
L 337.156762 322.838227 
L 337.211009 322.838138 
L 337.368816 311.01082 
L 337.773197 299.570352 
L 338.221961 286.580166 
L 338.246619 279.237273 
L 338.305796 67.917442 
L 338.389631 165.503318 
L 338.601685 285.172777 
L 338.779218 293.949221 
L 338.85319 294.261103 
L 338.907436 294.127997 
L 339.065244 292.936277 
L 339.479488 287.785875 
L 339.701404 282.661929 
L 339.740856 276.176381 
L 339.804965 73.238862 
L 339.898663 185.801642 
L 340.105785 299.322394 
L 340.273455 305.160508 
L 340.293181 305.184977 
L 340.342496 305.042534 
L 340.500303 303.58949 
L 342.310155 281.082273 
L 342.339743 273.092522 
L 342.403853 75.334095 
L 342.482756 164.522019 
L 342.699741 291.143238 
L 342.877274 299.16273 
L 342.951246 299.45153 
L 343.005493 299.354069 
L 343.168231 298.386917 
L 344.682194 287.731709 
L 345.185205 284.014481 
L 345.347944 281.011627 
L 345.387395 276.573087 
L 345.416984 181.584882 
L 345.456436 77.715452 
L 345.530408 154.140938 
L 345.747393 287.624493 
L 345.924926 296.915981 
L 346.048213 297.525784 
L 346.082734 297.489138 
L 346.215883 296.992811 
L 348.267377 287.15516 
L 348.804908 284.45641 
L 349.031756 282.172371 
L 349.115591 279.210444 
L 349.135317 272.175009 
L 349.199426 79.599064 
L 349.27833 157.458034 
L 349.495315 285.907401 
L 349.677779 295.191891 
L 349.830655 295.956931 
L 349.845449 295.951465 
L 349.94901 295.739799 
L 350.269556 294.366806 
L 351.098044 291.014034 
L 353.075566 283.940536 
L 353.272825 281.800877 
L 353.346797 278.507277 
L 353.366523 254.494791 
L 353.425701 80.858716 
L 353.504604 156.740929 
L 353.721589 284.631584 
L 353.904054 294.156033 
L 354.081587 295.104783 
L 354.175285 294.99395 
L 354.416927 294.203807 
L 355.447606 290.674917 
L 357.351156 284.960871 
L 357.642113 283.050327 
L 357.780194 280.573834 
L 357.819646 275.175655 
L 357.888686 81.62652 
L 357.992247 184.764049 
L 358.199369 285.940865 
L 358.381834 293.835519 
L 358.559367 294.657806 
L 358.657997 294.54822 
L 358.914433 293.776233 
L 359.94018 290.579491 
L 361.799347 285.41508 
L 362.139618 283.562794 
L 362.31222 281.318182 
L 362.366466 277.989597 
L 362.386192 244.219338 
L 362.44537 82.153655 
L 362.524274 159.38386 
L 362.741258 283.904425 
L 362.923723 293.278895 
L 363.106188 294.347814 
L 363.209749 294.279537 
L 363.431665 293.694112 
L 364.654671 290.15373 
L 366.227812 286.046355 
L 366.646987 284.204511 
L 366.799863 283.043876 
L 366.967533 296.395526 
L 367.302874 305.88686 
L 367.79109 313.669907 
L 368.348346 319.218187 
L 368.940123 323.016545 
L 369.536832 325.490473 
L 370.118746 327.02075 
L 370.676003 327.907494 
L 371.213534 328.370874 
L 371.751065 328.550148 
L 372.342842 328.509421 
L 373.082563 328.221488 
L 374.182282 327.52604 
L 376.662814 325.759618 
L 376.667746 321.092843 
L 376.776238 321.479769 
L 377.160893 322.307738 
L 377.668835 322.882291 
L 378.354311 323.314186 
L 379.227182 323.596111 
L 380.331832 323.709514 
L 381.914836 323.628639 
L 390.278619 322.904826 
L 396.339403 322.838227 
L 396.393649 322.838138 
L 396.551456 308.044733 
L 397.005152 291.307895 
L 397.118576 283.465182 
L 397.143233 224.8413 
L 397.182685 67.913312 
L 397.26652 163.489203 
L 397.478573 282.10906 
L 397.651175 289.963795 
L 397.685695 290.043399 
L 397.73501 289.860767 
L 397.882954 288.166689 
L 398.139391 282.572168 
L 398.213363 276.544932 
L 398.238021 214.299384 
L 398.282404 77.112071 
L 398.356376 166.441316 
L 398.56843 299.65473 
L 398.721305 305.136869 
L 398.731168 305.127335 
L 398.795277 304.70732 
L 399.012262 301.301829 
L 399.968969 281.61749 
L 400.013352 275.315858 
L 400.077461 75.980803 
L 400.176091 189.548017 
L 400.378281 295.203088 
L 400.545951 300.84885 
L 400.570609 300.819723 
L 400.585403 300.763221 
L 400.70869 299.614787 
L 401.280741 291.065753 
L 401.852792 281.058309 
L 401.907039 275.832415 
L 401.936628 181.813208 
L 401.976079 78.493868 
L 402.050051 160.101429 
L 402.267036 291.972813 
L 402.434707 299.004553 
L 402.464295 299.066842 
L 402.518542 298.896427 
L 402.686212 297.285015 
L 403.854972 281.939653 
L 403.958533 277.364324 
L 403.978258 252.297301 
L 404.037436 80.149643 
L 404.11634 165.147144 
L 404.333325 290.549681 
L 404.505926 297.429496 
L 404.545378 297.508805 
L 404.599624 297.348348 
L 404.777158 295.849726 
L 406.083999 281.041631 
L 406.172765 276.565035 
L 406.192491 244.144383 
L 406.251669 81.401323 
L 406.325641 159.956114 
L 406.542626 288.804335 
L 406.715227 296.23925 
L 406.769474 296.398331 
L 406.82372 296.265249 
L 406.996322 295.004666 
L 408.416587 281.025755 
L 408.515216 277.086046 
L 408.534942 259.347974 
L 408.599051 82.091214 
L 408.673023 158.8045 
L 408.890008 287.598074 
L 409.06261 295.314754 
L 409.126719 295.547394 
L 409.185897 295.422558 
L 409.358498 294.287381 
L 410.857667 281.067438 
L 410.96616 277.357765 
L 410.985885 269.247325 
L 411.049995 82.43047 
L 411.128898 159.705779 
L 411.345883 286.806827 
L 411.518485 294.645569 
L 411.592457 294.937632 
L 411.646703 294.841714 
L 411.809442 293.89512 
L 413.333268 281.784844 
L 413.481212 278.597902 
L 413.515732 273.410113 
L 413.584773 82.687801 
L 413.688334 187.407029 
L 413.895456 287.920568 
L 414.072989 294.333956 
L 414.137098 294.513038 
L 414.191345 294.41547 
L 414.359015 293.482509 
L 415.922293 281.677972 
L 416.070237 278.453733 
L 416.104757 271.606782 
L 416.173798 82.947484 
L 416.257633 167.797805 
L 416.474618 286.811318 
L 416.652151 294.003428 
L 416.726123 294.25848 
L 416.780369 294.171556 
L 416.943108 293.316474 
L 418.496523 282.15257 
L 418.674056 279.101592 
L 418.718439 274.980086 
L 418.743097 213.286454 
L 418.792412 83.024279 
L 418.861452 149.32598 
L 419.083369 285.290394 
L 419.260902 293.699013 
L 419.349668 294.070179 
L 419.398983 293.99857 
L 419.551859 293.247845 
L 421.031301 283.104245 
L 421.277875 280.075424 
L 421.351847 276.375937 
L 421.371573 247.491186 
L 421.430751 83.073802 
L 421.509655 159.856634 
L 421.72664 285.51085 
L 421.904173 293.563295 
L 421.992939 293.923478 
L 422.042254 293.853485 
L 422.19513 293.119384 
L 423.659778 283.28305 
L 423.921146 280.278955 
L 424.004981 276.413863 
L 424.024707 248.169086 
L 424.083885 83.121057 
L 424.162789 159.473947 
L 424.379774 285.31614 
L 424.557307 293.455006 
L 424.651005 293.832328 
L 424.700319 293.757291 
L 424.858127 292.995206 
L 425.982503 285.608337 
L 426.14031 299.912449 
L 426.465788 309.192722 
L 426.944141 316.74695 
L 427.491535 322.0659 
L 428.063586 325.587589 
L 428.630706 327.798303 
L 429.178099 329.113254 
L 429.695904 329.828715 
L 430.189052 330.158616 
L 430.692062 330.233008 
L 431.269045 330.082611 
L 432.018629 329.638345 
L 433.221909 328.629397 
L 435.845455 326.368163 
L 435.845455 326.368163 
" style="fill:none;stroke:#ff0000;stroke-linecap:square;stroke-width:1.5;"/>
   </g>
   <g id="patch_3">
    <path d="M 63 384.48 
L 63 51.84 
" style="fill:none;stroke:#000000;stroke-linecap:square;stroke-linejoin:miter;stroke-width:0.8;"/>
   </g>
   <g id="patch_4">
    <path d="M 453.6 384.48 
L 453.6 51.84 
" style="fill:none;stroke:#000000;stroke-linecap:square;stroke-linejoin:miter;stroke-width:0.8;"/>
   </g>
   <g id="patch_5">
    <path d="M 63 384.48 
L 453.6 384.48 
" style="fill:none;stroke:#000000;stroke-linecap:square;stroke-linejoin:miter;stroke-width:0.8;"/>
   </g>
   <g id="patch_6">
    <path d="M 63 51.84 
L 453.6 51.84 
" style="fill:none;stroke:#000000;stroke-linecap:square;stroke-linejoin:miter;stroke-width:0.8;"/>
   </g>
   <g id="legend_1">
    <g id="patch_7">
     <path d="M 70 74.518125 
L 133.139062 74.518125 
Q 135.139062 74.518125 135.139062 72.518125 
L 135.139062 58.84 
Q 135.139062 56.84 133.139062 56.84 
L 70 56.84 
Q 68 56.84 68 58.84 
L 68 72.518125 
Q 68 74.518125 70 74.518125 
z
" style="fill:#ffffff;opacity:0.8;stroke:#cccccc;stroke-linejoin:miter;"/>
    </g>
    <g id="line2d_14">
     <path d="M 72 64.938438 
L 92 64.938438 
" style="fill:none;stroke:#ff0000;stroke-linecap:square;stroke-width:1.5;"/>
    </g>
    <g id="line2d_15"/>
    <g id="text_15">
     <!-- model -->
     <defs>
      <path d="M 45.40625 46.390625 
L 45.40625 75.984375 
L 54.390625 75.984375 
L 54.390625 0 
L 45.40625 0 
L 45.40625 8.203125 
Q 42.578125 3.328125 38.25 0.953125 
Q 33.9375 -1.421875 27.875 -1.421875 
Q 17.96875 -1.421875 11.734375 6.484375 
Q 5.515625 14.40625 5.515625 27.296875 
Q 5.515625 40.1875 11.734375 48.09375 
Q 17.96875 56 27.875 56 
Q 33.9375 56 38.25 53.625 
Q 42.578125 51.265625 45.40625 46.390625 
z
M 14.796875 27.296875 
Q 14.796875 17.390625 18.875 11.75 
Q 22.953125 6.109375 30.078125 6.109375 
Q 37.203125 6.109375 41.296875 11.75 
Q 45.40625 17.390625 45.40625 27.296875 
Q 45.40625 37.203125 41.296875 42.84375 
Q 37.203125 48.484375 30.078125 48.484375 
Q 22.953125 48.484375 18.875 42.84375 
Q 14.796875 37.203125 14.796875 27.296875 
z
" id="DejaVuSans-64"/>
     </defs>
     <g transform="translate(100 68.438438)scale(0.1 -0.1)">
      <use xlink:href="#DejaVuSans-6d"/>
      <use x="97.412109" xlink:href="#DejaVuSans-6f"/>
      <use x="158.59375" xlink:href="#DejaVuSans-64"/>
      <use x="222.070312" xlink:href="#DejaVuSans-65"/>
      <use x="283.59375" xlink:href="#DejaVuSans-6c"/>
     </g>
    </g>
   </g>
  </g>
 </g>
 <defs>
  <clipPath id="p25acd50295">
   <rect height="332.64" width="390.6" x="63" y="51.84"/>
  </clipPath>
 </defs>
</svg>
