<?xml version="1.0" encoding="utf-8" standalone="no"?>
<!DOCTYPE svg PUBLIC "-//W3C//DTD SVG 1.1//EN"
  "http://www.w3.org/Graphics/SVG/1.1/DTD/svg11.dtd">
<!-- Created with matplotlib (http://matplotlib.org/) -->
<svg height="432pt" version="1.1" viewBox="0 0 504 432" width="504pt" xmlns="http://www.w3.org/2000/svg" xmlns:xlink="http://www.w3.org/1999/xlink">
 <defs>
  <style type="text/css">
*{stroke-linecap:butt;stroke-linejoin:round;}
  </style>
 </defs>
 <g id="figure_1">
  <g id="patch_1">
   <path d="M 0 432 
L 504 432 
L 504 0 
L 0 0 
z
" style="fill:#ffffff;"/>
  </g>
  <g id="axes_1">
   <g id="patch_2">
    <path d="M 63 384.48 
L 453.6 384.48 
L 453.6 51.84 
L 63 51.84 
z
" style="fill:#ffffff;"/>
   </g>
   <g id="matplotlib.axis_1">
    <g id="xtick_1">
     <g id="line2d_1">
      <defs>
       <path d="M 0 0 
L 0 3.5 
" id="mffde7f18fa" style="stroke:#000000;stroke-width:0.8;"/>
      </defs>
      <g>
       <use style="stroke:#000000;stroke-width:0.8;" x="80.754545" xlink:href="#mffde7f18fa" y="384.48"/>
      </g>
     </g>
     <g id="text_1">
      <!-- 0 -->
      <defs>
       <path d="M 31.78125 66.40625 
Q 24.171875 66.40625 20.328125 58.90625 
Q 16.5 51.421875 16.5 36.375 
Q 16.5 21.390625 20.328125 13.890625 
Q 24.171875 6.390625 31.78125 6.390625 
Q 39.453125 6.390625 43.28125 13.890625 
Q 47.125 21.390625 47.125 36.375 
Q 47.125 51.421875 43.28125 58.90625 
Q 39.453125 66.40625 31.78125 66.40625 
z
M 31.78125 74.21875 
Q 44.046875 74.21875 50.515625 64.515625 
Q 56.984375 54.828125 56.984375 36.375 
Q 56.984375 17.96875 50.515625 8.265625 
Q 44.046875 -1.421875 31.78125 -1.421875 
Q 19.53125 -1.421875 13.0625 8.265625 
Q 6.59375 17.96875 6.59375 36.375 
Q 6.59375 54.828125 13.0625 64.515625 
Q 19.53125 74.21875 31.78125 74.21875 
z
" id="DejaVuSans-30"/>
      </defs>
      <g transform="translate(77.573295 399.078438)scale(0.1 -0.1)">
       <use xlink:href="#DejaVuSans-30"/>
      </g>
     </g>
    </g>
    <g id="xtick_2">
     <g id="line2d_2">
      <g>
       <use style="stroke:#000000;stroke-width:0.8;" x="151.767796" xlink:href="#mffde7f18fa" y="384.48"/>
      </g>
     </g>
     <g id="text_2">
      <!-- 720 -->
      <defs>
       <path d="M 8.203125 72.90625 
L 55.078125 72.90625 
L 55.078125 68.703125 
L 28.609375 0 
L 18.3125 0 
L 43.21875 64.59375 
L 8.203125 64.59375 
z
" id="DejaVuSans-37"/>
       <path d="M 19.1875 8.296875 
L 53.609375 8.296875 
L 53.609375 0 
L 7.328125 0 
L 7.328125 8.296875 
Q 12.9375 14.109375 22.625 23.890625 
Q 32.328125 33.6875 34.8125 36.53125 
Q 39.546875 41.84375 41.421875 45.53125 
Q 43.3125 49.21875 43.3125 52.78125 
Q 43.3125 58.59375 39.234375 62.25 
Q 35.15625 65.921875 28.609375 65.921875 
Q 23.96875 65.921875 18.8125 64.3125 
Q 13.671875 62.703125 7.8125 59.421875 
L 7.8125 69.390625 
Q 13.765625 71.78125 18.9375 73 
Q 24.125 74.21875 28.421875 74.21875 
Q 39.75 74.21875 46.484375 68.546875 
Q 53.21875 62.890625 53.21875 53.421875 
Q 53.21875 48.921875 51.53125 44.890625 
Q 49.859375 40.875 45.40625 35.40625 
Q 44.1875 33.984375 37.640625 27.21875 
Q 31.109375 20.453125 19.1875 8.296875 
z
" id="DejaVuSans-32"/>
      </defs>
      <g transform="translate(142.224046 399.078438)scale(0.1 -0.1)">
       <use xlink:href="#DejaVuSans-37"/>
       <use x="63.623047" xlink:href="#DejaVuSans-32"/>
       <use x="127.246094" xlink:href="#DejaVuSans-30"/>
      </g>
     </g>
    </g>
    <g id="xtick_3">
     <g id="line2d_3">
      <g>
       <use style="stroke:#000000;stroke-width:0.8;" x="222.781046" xlink:href="#mffde7f18fa" y="384.48"/>
      </g>
     </g>
     <g id="text_3">
      <!-- 1440 -->
      <defs>
       <path d="M 12.40625 8.296875 
L 28.515625 8.296875 
L 28.515625 63.921875 
L 10.984375 60.40625 
L 10.984375 69.390625 
L 28.421875 72.90625 
L 38.28125 72.90625 
L 38.28125 8.296875 
L 54.390625 8.296875 
L 54.390625 0 
L 12.40625 0 
z
" id="DejaVuSans-31"/>
       <path d="M 37.796875 64.3125 
L 12.890625 25.390625 
L 37.796875 25.390625 
z
M 35.203125 72.90625 
L 47.609375 72.90625 
L 47.609375 25.390625 
L 58.015625 25.390625 
L 58.015625 17.1875 
L 47.609375 17.1875 
L 47.609375 0 
L 37.796875 0 
L 37.796875 17.1875 
L 4.890625 17.1875 
L 4.890625 26.703125 
z
" id="DejaVuSans-34"/>
      </defs>
      <g transform="translate(210.056046 399.078438)scale(0.1 -0.1)">
       <use xlink:href="#DejaVuSans-31"/>
       <use x="63.623047" xlink:href="#DejaVuSans-34"/>
       <use x="127.246094" xlink:href="#DejaVuSans-34"/>
       <use x="190.869141" xlink:href="#DejaVuSans-30"/>
      </g>
     </g>
    </g>
    <g id="xtick_4">
     <g id="line2d_4">
      <g>
       <use style="stroke:#000000;stroke-width:0.8;" x="293.794296" xlink:href="#mffde7f18fa" y="384.48"/>
      </g>
     </g>
     <g id="text_4">
      <!-- 2160 -->
      <defs>
       <path d="M 33.015625 40.375 
Q 26.375 40.375 22.484375 35.828125 
Q 18.609375 31.296875 18.609375 23.390625 
Q 18.609375 15.53125 22.484375 10.953125 
Q 26.375 6.390625 33.015625 6.390625 
Q 39.65625 6.390625 43.53125 10.953125 
Q 47.40625 15.53125 47.40625 23.390625 
Q 47.40625 31.296875 43.53125 35.828125 
Q 39.65625 40.375 33.015625 40.375 
z
M 52.59375 71.296875 
L 52.59375 62.3125 
Q 48.875 64.0625 45.09375 64.984375 
Q 41.3125 65.921875 37.59375 65.921875 
Q 27.828125 65.921875 22.671875 59.328125 
Q 17.53125 52.734375 16.796875 39.40625 
Q 19.671875 43.65625 24.015625 45.921875 
Q 28.375 48.1875 33.59375 48.1875 
Q 44.578125 48.1875 50.953125 41.515625 
Q 57.328125 34.859375 57.328125 23.390625 
Q 57.328125 12.15625 50.6875 5.359375 
Q 44.046875 -1.421875 33.015625 -1.421875 
Q 20.359375 -1.421875 13.671875 8.265625 
Q 6.984375 17.96875 6.984375 36.375 
Q 6.984375 53.65625 15.1875 63.9375 
Q 23.390625 74.21875 37.203125 74.21875 
Q 40.921875 74.21875 44.703125 73.484375 
Q 48.484375 72.75 52.59375 71.296875 
z
" id="DejaVuSans-36"/>
      </defs>
      <g transform="translate(281.069296 399.078438)scale(0.1 -0.1)">
       <use xlink:href="#DejaVuSans-32"/>
       <use x="63.623047" xlink:href="#DejaVuSans-31"/>
       <use x="127.246094" xlink:href="#DejaVuSans-36"/>
       <use x="190.869141" xlink:href="#DejaVuSans-30"/>
      </g>
     </g>
    </g>
    <g id="xtick_5">
     <g id="line2d_5">
      <g>
       <use style="stroke:#000000;stroke-width:0.8;" x="364.807547" xlink:href="#mffde7f18fa" y="384.48"/>
      </g>
     </g>
     <g id="text_5">
      <!-- 2880 -->
      <defs>
       <path d="M 31.78125 34.625 
Q 24.75 34.625 20.71875 30.859375 
Q 16.703125 27.09375 16.703125 20.515625 
Q 16.703125 13.921875 20.71875 10.15625 
Q 24.75 6.390625 31.78125 6.390625 
Q 38.8125 6.390625 42.859375 10.171875 
Q 46.921875 13.96875 46.921875 20.515625 
Q 46.921875 27.09375 42.890625 30.859375 
Q 38.875 34.625 31.78125 34.625 
z
M 21.921875 38.8125 
Q 15.578125 40.375 12.03125 44.71875 
Q 8.5 49.078125 8.5 55.328125 
Q 8.5 64.0625 14.71875 69.140625 
Q 20.953125 74.21875 31.78125 74.21875 
Q 42.671875 74.21875 48.875 69.140625 
Q 55.078125 64.0625 55.078125 55.328125 
Q 55.078125 49.078125 51.53125 44.71875 
Q 48 40.375 41.703125 38.8125 
Q 48.828125 37.15625 52.796875 32.3125 
Q 56.78125 27.484375 56.78125 20.515625 
Q 56.78125 9.90625 50.3125 4.234375 
Q 43.84375 -1.421875 31.78125 -1.421875 
Q 19.734375 -1.421875 13.25 4.234375 
Q 6.78125 9.90625 6.78125 20.515625 
Q 6.78125 27.484375 10.78125 32.3125 
Q 14.796875 37.15625 21.921875 38.8125 
z
M 18.3125 54.390625 
Q 18.3125 48.734375 21.84375 45.5625 
Q 25.390625 42.390625 31.78125 42.390625 
Q 38.140625 42.390625 41.71875 45.5625 
Q 45.3125 48.734375 45.3125 54.390625 
Q 45.3125 60.0625 41.71875 63.234375 
Q 38.140625 66.40625 31.78125 66.40625 
Q 25.390625 66.40625 21.84375 63.234375 
Q 18.3125 60.0625 18.3125 54.390625 
z
" id="DejaVuSans-38"/>
      </defs>
      <g transform="translate(352.082547 399.078438)scale(0.1 -0.1)">
       <use xlink:href="#DejaVuSans-32"/>
       <use x="63.623047" xlink:href="#DejaVuSans-38"/>
       <use x="127.246094" xlink:href="#DejaVuSans-38"/>
       <use x="190.869141" xlink:href="#DejaVuSans-30"/>
      </g>
     </g>
    </g>
    <g id="text_6">
     <!-- time [ms] -->
     <defs>
      <path d="M 18.3125 70.21875 
L 18.3125 54.6875 
L 36.8125 54.6875 
L 36.8125 47.703125 
L 18.3125 47.703125 
L 18.3125 18.015625 
Q 18.3125 11.328125 20.140625 9.421875 
Q 21.96875 7.515625 27.59375 7.515625 
L 36.8125 7.515625 
L 36.8125 0 
L 27.59375 0 
Q 17.1875 0 13.234375 3.875 
Q 9.28125 7.765625 9.28125 18.015625 
L 9.28125 47.703125 
L 2.6875 47.703125 
L 2.6875 54.6875 
L 9.28125 54.6875 
L 9.28125 70.21875 
z
" id="DejaVuSans-74"/>
      <path d="M 9.421875 54.6875 
L 18.40625 54.6875 
L 18.40625 0 
L 9.421875 0 
z
M 9.421875 75.984375 
L 18.40625 75.984375 
L 18.40625 64.59375 
L 9.421875 64.59375 
z
" id="DejaVuSans-69"/>
      <path d="M 52 44.1875 
Q 55.375 50.25 60.0625 53.125 
Q 64.75 56 71.09375 56 
Q 79.640625 56 84.28125 50.015625 
Q 88.921875 44.046875 88.921875 33.015625 
L 88.921875 0 
L 79.890625 0 
L 79.890625 32.71875 
Q 79.890625 40.578125 77.09375 44.375 
Q 74.3125 48.1875 68.609375 48.1875 
Q 61.625 48.1875 57.5625 43.546875 
Q 53.515625 38.921875 53.515625 30.90625 
L 53.515625 0 
L 44.484375 0 
L 44.484375 32.71875 
Q 44.484375 40.625 41.703125 44.40625 
Q 38.921875 48.1875 33.109375 48.1875 
Q 26.21875 48.1875 22.15625 43.53125 
Q 18.109375 38.875 18.109375 30.90625 
L 18.109375 0 
L 9.078125 0 
L 9.078125 54.6875 
L 18.109375 54.6875 
L 18.109375 46.1875 
Q 21.1875 51.21875 25.484375 53.609375 
Q 29.78125 56 35.6875 56 
Q 41.65625 56 45.828125 52.96875 
Q 50 49.953125 52 44.1875 
z
" id="DejaVuSans-6d"/>
      <path d="M 56.203125 29.59375 
L 56.203125 25.203125 
L 14.890625 25.203125 
Q 15.484375 15.921875 20.484375 11.0625 
Q 25.484375 6.203125 34.421875 6.203125 
Q 39.59375 6.203125 44.453125 7.46875 
Q 49.3125 8.734375 54.109375 11.28125 
L 54.109375 2.78125 
Q 49.265625 0.734375 44.1875 -0.34375 
Q 39.109375 -1.421875 33.890625 -1.421875 
Q 20.796875 -1.421875 13.15625 6.1875 
Q 5.515625 13.8125 5.515625 26.8125 
Q 5.515625 40.234375 12.765625 48.109375 
Q 20.015625 56 32.328125 56 
Q 43.359375 56 49.78125 48.890625 
Q 56.203125 41.796875 56.203125 29.59375 
z
M 47.21875 32.234375 
Q 47.125 39.59375 43.09375 43.984375 
Q 39.0625 48.390625 32.421875 48.390625 
Q 24.90625 48.390625 20.390625 44.140625 
Q 15.875 39.890625 15.1875 32.171875 
z
" id="DejaVuSans-65"/>
      <path id="DejaVuSans-20"/>
      <path d="M 8.59375 75.984375 
L 29.296875 75.984375 
L 29.296875 69 
L 17.578125 69 
L 17.578125 -6.203125 
L 29.296875 -6.203125 
L 29.296875 -13.1875 
L 8.59375 -13.1875 
z
" id="DejaVuSans-5b"/>
      <path d="M 44.28125 53.078125 
L 44.28125 44.578125 
Q 40.484375 46.53125 36.375 47.5 
Q 32.28125 48.484375 27.875 48.484375 
Q 21.1875 48.484375 17.84375 46.4375 
Q 14.5 44.390625 14.5 40.28125 
Q 14.5 37.15625 16.890625 35.375 
Q 19.28125 33.59375 26.515625 31.984375 
L 29.59375 31.296875 
Q 39.15625 29.25 43.1875 25.515625 
Q 47.21875 21.78125 47.21875 15.09375 
Q 47.21875 7.46875 41.1875 3.015625 
Q 35.15625 -1.421875 24.609375 -1.421875 
Q 20.21875 -1.421875 15.453125 -0.5625 
Q 10.6875 0.296875 5.421875 2 
L 5.421875 11.28125 
Q 10.40625 8.6875 15.234375 7.390625 
Q 20.0625 6.109375 24.8125 6.109375 
Q 31.15625 6.109375 34.5625 8.28125 
Q 37.984375 10.453125 37.984375 14.40625 
Q 37.984375 18.0625 35.515625 20.015625 
Q 33.0625 21.96875 24.703125 23.78125 
L 21.578125 24.515625 
Q 13.234375 26.265625 9.515625 29.90625 
Q 5.8125 33.546875 5.8125 39.890625 
Q 5.8125 47.609375 11.28125 51.796875 
Q 16.75 56 26.8125 56 
Q 31.78125 56 36.171875 55.265625 
Q 40.578125 54.546875 44.28125 53.078125 
z
" id="DejaVuSans-73"/>
      <path d="M 30.421875 75.984375 
L 30.421875 -13.1875 
L 9.71875 -13.1875 
L 9.71875 -6.203125 
L 21.390625 -6.203125 
L 21.390625 69 
L 9.71875 69 
L 9.71875 75.984375 
z
" id="DejaVuSans-5d"/>
     </defs>
     <g transform="translate(234.038281 412.756563)scale(0.1 -0.1)">
      <use xlink:href="#DejaVuSans-74"/>
      <use x="39.208984" xlink:href="#DejaVuSans-69"/>
      <use x="66.992188" xlink:href="#DejaVuSans-6d"/>
      <use x="164.404297" xlink:href="#DejaVuSans-65"/>
      <use x="225.927734" xlink:href="#DejaVuSans-20"/>
      <use x="257.714844" xlink:href="#DejaVuSans-5b"/>
      <use x="296.728516" xlink:href="#DejaVuSans-6d"/>
      <use x="394.140625" xlink:href="#DejaVuSans-73"/>
      <use x="446.240234" xlink:href="#DejaVuSans-5d"/>
     </g>
    </g>
   </g>
   <g id="matplotlib.axis_2">
    <g id="ytick_1">
     <g id="line2d_6">
      <defs>
       <path d="M 0 0 
L -3.5 0 
" id="m91d81d90c1" style="stroke:#000000;stroke-width:0.8;"/>
      </defs>
      <g>
       <use style="stroke:#000000;stroke-width:0.8;" x="63" xlink:href="#m91d81d90c1" y="371.962075"/>
      </g>
     </g>
     <g id="text_7">
      <!-- −80 -->
      <defs>
       <path d="M 10.59375 35.5 
L 73.1875 35.5 
L 73.1875 27.203125 
L 10.59375 27.203125 
z
" id="DejaVuSans-2212"/>
      </defs>
      <g transform="translate(34.895313 375.761294)scale(0.1 -0.1)">
       <use xlink:href="#DejaVuSans-2212"/>
       <use x="83.789062" xlink:href="#DejaVuSans-38"/>
       <use x="147.412109" xlink:href="#DejaVuSans-30"/>
      </g>
     </g>
    </g>
    <g id="ytick_2">
     <g id="line2d_7">
      <g>
       <use style="stroke:#000000;stroke-width:0.8;" x="63" xlink:href="#m91d81d90c1" y="322.999966"/>
      </g>
     </g>
     <g id="text_8">
      <!-- −60 -->
      <g transform="translate(34.895313 326.799185)scale(0.1 -0.1)">
       <use xlink:href="#DejaVuSans-2212"/>
       <use x="83.789062" xlink:href="#DejaVuSans-36"/>
       <use x="147.412109" xlink:href="#DejaVuSans-30"/>
      </g>
     </g>
    </g>
    <g id="ytick_3">
     <g id="line2d_8">
      <g>
       <use style="stroke:#000000;stroke-width:0.8;" x="63" xlink:href="#m91d81d90c1" y="274.037856"/>
      </g>
     </g>
     <g id="text_9">
      <!-- −40 -->
      <g transform="translate(34.895313 277.837075)scale(0.1 -0.1)">
       <use xlink:href="#DejaVuSans-2212"/>
       <use x="83.789062" xlink:href="#DejaVuSans-34"/>
       <use x="147.412109" xlink:href="#DejaVuSans-30"/>
      </g>
     </g>
    </g>
    <g id="ytick_4">
     <g id="line2d_9">
      <g>
       <use style="stroke:#000000;stroke-width:0.8;" x="63" xlink:href="#m91d81d90c1" y="225.075747"/>
      </g>
     </g>
     <g id="text_10">
      <!-- −20 -->
      <g transform="translate(34.895313 228.874966)scale(0.1 -0.1)">
       <use xlink:href="#DejaVuSans-2212"/>
       <use x="83.789062" xlink:href="#DejaVuSans-32"/>
       <use x="147.412109" xlink:href="#DejaVuSans-30"/>
      </g>
     </g>
    </g>
    <g id="ytick_5">
     <g id="line2d_10">
      <g>
       <use style="stroke:#000000;stroke-width:0.8;" x="63" xlink:href="#m91d81d90c1" y="176.113638"/>
      </g>
     </g>
     <g id="text_11">
      <!-- 0 -->
      <g transform="translate(49.6375 179.912856)scale(0.1 -0.1)">
       <use xlink:href="#DejaVuSans-30"/>
      </g>
     </g>
    </g>
    <g id="ytick_6">
     <g id="line2d_11">
      <g>
       <use style="stroke:#000000;stroke-width:0.8;" x="63" xlink:href="#m91d81d90c1" y="127.151528"/>
      </g>
     </g>
     <g id="text_12">
      <!-- 20 -->
      <g transform="translate(43.275 130.950747)scale(0.1 -0.1)">
       <use xlink:href="#DejaVuSans-32"/>
       <use x="63.623047" xlink:href="#DejaVuSans-30"/>
      </g>
     </g>
    </g>
    <g id="ytick_7">
     <g id="line2d_12">
      <g>
       <use style="stroke:#000000;stroke-width:0.8;" x="63" xlink:href="#m91d81d90c1" y="78.189419"/>
      </g>
     </g>
     <g id="text_13">
      <!-- 40 -->
      <g transform="translate(43.275 81.988638)scale(0.1 -0.1)">
       <use xlink:href="#DejaVuSans-34"/>
       <use x="63.623047" xlink:href="#DejaVuSans-30"/>
      </g>
     </g>
    </g>
    <g id="text_14">
     <!-- Voltage [mV] -->
     <defs>
      <path d="M 28.609375 0 
L 0.78125 72.90625 
L 11.078125 72.90625 
L 34.1875 11.53125 
L 57.328125 72.90625 
L 67.578125 72.90625 
L 39.796875 0 
z
" id="DejaVuSans-56"/>
      <path d="M 30.609375 48.390625 
Q 23.390625 48.390625 19.1875 42.75 
Q 14.984375 37.109375 14.984375 27.296875 
Q 14.984375 17.484375 19.15625 11.84375 
Q 23.34375 6.203125 30.609375 6.203125 
Q 37.796875 6.203125 41.984375 11.859375 
Q 46.1875 17.53125 46.1875 27.296875 
Q 46.1875 37.015625 41.984375 42.703125 
Q 37.796875 48.390625 30.609375 48.390625 
z
M 30.609375 56 
Q 42.328125 56 49.015625 48.375 
Q 55.71875 40.765625 55.71875 27.296875 
Q 55.71875 13.875 49.015625 6.21875 
Q 42.328125 -1.421875 30.609375 -1.421875 
Q 18.84375 -1.421875 12.171875 6.21875 
Q 5.515625 13.875 5.515625 27.296875 
Q 5.515625 40.765625 12.171875 48.375 
Q 18.84375 56 30.609375 56 
z
" id="DejaVuSans-6f"/>
      <path d="M 9.421875 75.984375 
L 18.40625 75.984375 
L 18.40625 0 
L 9.421875 0 
z
" id="DejaVuSans-6c"/>
      <path d="M 34.28125 27.484375 
Q 23.390625 27.484375 19.1875 25 
Q 14.984375 22.515625 14.984375 16.5 
Q 14.984375 11.71875 18.140625 8.90625 
Q 21.296875 6.109375 26.703125 6.109375 
Q 34.1875 6.109375 38.703125 11.40625 
Q 43.21875 16.703125 43.21875 25.484375 
L 43.21875 27.484375 
z
M 52.203125 31.203125 
L 52.203125 0 
L 43.21875 0 
L 43.21875 8.296875 
Q 40.140625 3.328125 35.546875 0.953125 
Q 30.953125 -1.421875 24.3125 -1.421875 
Q 15.921875 -1.421875 10.953125 3.296875 
Q 6 8.015625 6 15.921875 
Q 6 25.140625 12.171875 29.828125 
Q 18.359375 34.515625 30.609375 34.515625 
L 43.21875 34.515625 
L 43.21875 35.40625 
Q 43.21875 41.609375 39.140625 45 
Q 35.0625 48.390625 27.6875 48.390625 
Q 23 48.390625 18.546875 47.265625 
Q 14.109375 46.140625 10.015625 43.890625 
L 10.015625 52.203125 
Q 14.9375 54.109375 19.578125 55.046875 
Q 24.21875 56 28.609375 56 
Q 40.484375 56 46.34375 49.84375 
Q 52.203125 43.703125 52.203125 31.203125 
z
" id="DejaVuSans-61"/>
      <path d="M 45.40625 27.984375 
Q 45.40625 37.75 41.375 43.109375 
Q 37.359375 48.484375 30.078125 48.484375 
Q 22.859375 48.484375 18.828125 43.109375 
Q 14.796875 37.75 14.796875 27.984375 
Q 14.796875 18.265625 18.828125 12.890625 
Q 22.859375 7.515625 30.078125 7.515625 
Q 37.359375 7.515625 41.375 12.890625 
Q 45.40625 18.265625 45.40625 27.984375 
z
M 54.390625 6.78125 
Q 54.390625 -7.171875 48.1875 -13.984375 
Q 42 -20.796875 29.203125 -20.796875 
Q 24.46875 -20.796875 20.265625 -20.09375 
Q 16.0625 -19.390625 12.109375 -17.921875 
L 12.109375 -9.1875 
Q 16.0625 -11.328125 19.921875 -12.34375 
Q 23.78125 -13.375 27.78125 -13.375 
Q 36.625 -13.375 41.015625 -8.765625 
Q 45.40625 -4.15625 45.40625 5.171875 
L 45.40625 9.625 
Q 42.625 4.78125 38.28125 2.390625 
Q 33.9375 0 27.875 0 
Q 17.828125 0 11.671875 7.65625 
Q 5.515625 15.328125 5.515625 27.984375 
Q 5.515625 40.671875 11.671875 48.328125 
Q 17.828125 56 27.875 56 
Q 33.9375 56 38.28125 53.609375 
Q 42.625 51.21875 45.40625 46.390625 
L 45.40625 54.6875 
L 54.390625 54.6875 
z
" id="DejaVuSans-67"/>
     </defs>
     <g transform="translate(28.815625 251.079531)rotate(-90)scale(0.1 -0.1)">
      <use xlink:href="#DejaVuSans-56"/>
      <use x="68.298828" xlink:href="#DejaVuSans-6f"/>
      <use x="129.480469" xlink:href="#DejaVuSans-6c"/>
      <use x="157.263672" xlink:href="#DejaVuSans-74"/>
      <use x="196.472656" xlink:href="#DejaVuSans-61"/>
      <use x="257.751953" xlink:href="#DejaVuSans-67"/>
      <use x="321.228516" xlink:href="#DejaVuSans-65"/>
      <use x="382.751953" xlink:href="#DejaVuSans-20"/>
      <use x="414.539062" xlink:href="#DejaVuSans-5b"/>
      <use x="453.552734" xlink:href="#DejaVuSans-6d"/>
      <use x="550.964844" xlink:href="#DejaVuSans-56"/>
      <use x="619.373047" xlink:href="#DejaVuSans-5d"/>
     </g>
    </g>
   </g>
   <g id="line2d_13">
    <path clip-path="url(#p7ae9ccec2e)" d="M 80.754545 335.240493 
L 81.020845 346.988319 
L 81.292076 350.782168 
L 81.558376 351.921472 
L 81.819744 352.217808 
L 82.10577 352.211982 
L 82.628506 351.929627 
L 85.759993 349.984839 
L 87.525462 349.234653 
L 89.453669 348.660557 
L 91.702422 348.230365 
L 94.542952 347.924836 
L 98.606488 347.729985 
L 100.480448 347.68785 
L 100.633324 360.638284 
L 100.894692 365.918115 
L 101.200444 368.211448 
L 101.506195 369.068014 
L 101.807015 369.332465 
L 102.15715 369.33711 
L 102.798242 369.07234 
L 104.918776 368.132758 
L 106.620136 367.665255 
L 108.74067 367.323786 
L 111.660104 367.095204 
L 116.478156 366.969296 
L 129.373965 366.928991 
L 130.069303 366.92875 
L 130.222178 353.399857 
L 130.503273 346.752162 
L 130.823818 343.707486 
L 131.12957 342.586435 
L 131.405733 342.27312 
L 131.691758 342.274446 
L 132.140522 342.382451 
L 132.145454 342.353413 
L 132.160248 341.167563 
L 132.184906 290.583507 
L 132.229289 67.711044 
L 132.322987 208.194652 
L 132.510383 354.864071 
L 132.687916 356.546912 
L 132.761888 356.598519 
L 132.811203 356.545953 
L 132.973942 356.062165 
L 133.486815 353.530268 
L 134.049004 351.368319 
L 134.547083 350.271476 
L 135.055025 349.66262 
L 135.696116 349.251369 
L 136.751452 348.870715 
L 138.679659 348.431998 
L 139.932254 348.233624 
L 139.937186 335.240493 
L 140.045678 341.606813 
L 140.316909 349.120986 
L 140.58814 351.435422 
L 140.85444 352.106822 
L 141.115808 352.240129 
L 141.465943 352.13711 
L 142.319088 351.578126 
L 144.316336 350.31176 
L 146.052215 349.485473 
L 147.90645 348.851713 
L 150.01219 348.3724 
L 152.591352 348.023062 
L 156.087769 347.789163 
L 159.663088 347.68785 
L 159.815964 345.094475 
L 160.082264 344.028506 
L 160.40281 343.571241 
L 160.797328 343.391903 
L 161.468009 343.369082 
L 163.627995 343.616504 
L 167.691531 344.028721 
L 172.001641 344.146066 
L 184.340193 344.193465 
L 189.251943 344.195294 
L 189.399887 346.723886 
L 189.661255 347.755199 
L 189.981801 348.197697 
L 190.376319 348.365151 
L 191.032205 348.365897 
L 198.439282 347.74667 
L 199.114894 347.726911 
L 199.119826 335.240493 
L 199.228318 341.606813 
L 199.499549 349.120986 
L 199.77078 351.435422 
L 200.03708 352.106822 
L 200.298448 352.240129 
L 200.648583 352.13711 
L 201.501728 351.578126 
L 203.498976 350.31176 
L 205.234856 349.485473 
L 207.08909 348.851713 
L 209.194831 348.3724 
L 211.773992 348.023062 
L 215.270409 347.789163 
L 218.845729 347.68785 
L 218.998604 342.503349 
L 219.259972 340.399348 
L 219.570655 339.489593 
L 219.930653 339.088788 
L 220.211747 338.768236 
L 220.226542 337.607436 
L 220.251199 286.42504 
L 220.290651 68.124174 
L 220.38928 210.013621 
L 220.571745 352.521721 
L 220.729552 353.699936 
L 220.734484 353.698571 
L 220.813387 353.547206 
L 221.010646 352.52777 
L 222.149817 345.751309 
L 222.62817 344.537606 
L 223.141044 343.814967 
L 223.801862 343.27697 
L 224.83254 342.748461 
L 226.430338 342.191235 
L 228.471969 341.71941 
L 231.031405 341.36608 
L 234.527821 341.123623 
L 240.218744 340.979211 
L 247.670204 340.770404 
L 247.941435 340.600317 
L 247.95623 340.30661 
L 247.975956 327.751792 
L 248.030202 69.968844 
L 248.114037 193.408655 
L 248.32609 352.938897 
L 248.651568 357.230912 
L 248.681157 357.214641 
L 248.814306 356.927132 
L 249.22855 355.282455 
L 249.844985 353.223365 
L 250.387447 352.145349 
L 250.984156 351.446258 
L 251.852095 350.798329 
L 253.326607 349.996701 
L 255.131527 349.265088 
L 257.133706 348.697583 
L 258.297534 348.459245 
L 258.302466 335.240493 
L 258.410958 341.606813 
L 258.682189 349.120986 
L 258.953421 351.435422 
L 259.21972 352.106822 
L 259.481088 352.240129 
L 259.831223 352.13711 
L 260.684369 351.578126 
L 262.681616 350.31176 
L 264.417496 349.485473 
L 266.27173 348.851713 
L 268.377471 348.3724 
L 270.956632 348.023062 
L 274.453049 347.789163 
L 278.028369 347.68785 
L 278.181244 339.911449 
L 278.442613 336.755139 
L 278.753296 335.368289 
L 278.990006 334.433959 
L 279.009732 319.078522 
L 279.059047 67.364971 
L 279.147814 195.565364 
L 279.354936 351.229754 
L 279.46836 351.85914 
L 279.50288 351.826905 
L 279.621235 351.366842 
L 279.922055 349.04566 
L 280.646982 343.590817 
L 281.110541 341.762344 
L 281.579031 340.755489 
L 282.116562 340.118246 
L 282.885872 339.576122 
L 284.128604 338.729827 
L 284.143399 338.231442 
L 284.163124 320.609961 
L 284.217371 71.122999 
L 284.301206 197.679694 
L 284.508328 351.64751 
L 284.636546 352.444195 
L 284.661203 352.426368 
L 284.764764 352.092345 
L 285.035996 350.254968 
L 285.795443 345.108913 
L 286.278727 343.382704 
L 286.781738 342.362709 
L 287.393241 341.624372 
L 288.300633 340.901197 
L 289.681446 340.098761 
L 291.446914 339.335478 
L 293.163068 338.572739 
L 293.217314 338.3688 
L 293.23704 331.14617 
L 293.281423 126.095686 
L 293.296217 72.785398 
L 293.380053 197.539271 
L 293.587175 351.273018 
L 293.725256 352.173961 
L 293.744982 352.160973 
L 293.843611 351.866933 
L 294.100048 350.193075 
L 294.894016 344.89394 
L 295.372369 343.234864 
L 295.875379 342.244129 
L 296.491814 341.52365 
L 297.409068 340.818359 
L 298.804676 340.039051 
L 300.545487 339.32461 
L 303.060539 338.334866 
L 303.075334 338.098483 
L 303.09506 326.512087 
L 303.154237 74.205512 
L 303.238072 204.140653 
L 303.435332 350.942802 
L 303.583276 352.022718 
L 303.593139 352.018905 
L 303.676974 351.821433 
L 303.889027 350.574213 
L 304.850665 344.369135 
L 305.33395 342.892388 
L 305.851755 341.994331 
L 306.512572 341.304684 
L 307.523525 340.595806 
L 307.617223 340.540222 
L 307.765167 347.687611 
L 308.00681 349.989397 
L 308.278041 350.775334 
L 308.554203 350.989029 
L 308.899407 350.961712 
L 309.624334 350.622147 
L 311.858292 349.551025 
L 313.742116 348.920612 
L 315.902102 348.438497 
L 317.480174 348.202889 
L 317.485106 335.240493 
L 317.593598 341.606813 
L 317.864829 349.120986 
L 318.136061 351.435422 
L 318.40236 352.106822 
L 318.663729 352.240129 
L 319.013863 352.13711 
L 319.867009 351.578126 
L 321.864256 350.31176 
L 323.600136 349.485473 
L 325.454371 348.851713 
L 327.560111 348.3724 
L 330.139273 348.023062 
L 333.635689 347.789163 
L 337.211009 347.68785 
L 337.363884 337.318229 
L 337.625253 333.099354 
L 337.995113 328.698899 
L 338.029634 233.575632 
L 338.054291 67.151263 
L 338.143058 196.821486 
L 338.345248 349.626388 
L 338.438946 350.158644 
L 338.488261 350.083046 
L 338.631274 349.296261 
L 339.02086 345.5353 
L 339.612637 340.562678 
L 340.061402 338.531176 
L 340.515097 337.430428 
L 341.037834 336.738352 
L 341.772624 335.851745 
L 341.787418 333.860973 
L 341.82687 230.202339 
L 341.851527 70.98493 
L 341.940294 204.251472 
L 342.132621 350.320277 
L 342.246045 351.076641 
L 342.280566 351.036067 
L 342.403853 350.486863 
L 342.744124 347.641803 
L 343.380285 342.773616 
L 343.848775 340.817624 
L 344.336991 339.667265 
L 344.923837 338.84992 
L 345.801639 338.039577 
L 346.980262 336.966903 
L 346.995057 336.772264 
L 347.014782 327.210955 
L 347.07396 73.566059 
L 347.162727 209.642377 
L 347.350123 349.917833 
L 347.478341 350.895903 
L 347.502999 350.877026 
L 347.60656 350.507321 
L 347.882722 348.449743 
L 348.612581 343.081437 
L 349.090934 341.216465 
L 349.593944 340.096335 
L 350.21531 339.258565 
L 351.147359 338.402913 
L 353.080498 336.764808 
L 353.095292 334.520833 
L 353.134744 236.555406 
L 353.159401 75.228226 
L 353.248168 205.84008 
L 353.440495 349.726017 
L 353.573645 350.739622 
L 353.593371 350.726086 
L 353.687069 350.423014 
L 353.938574 348.637246 
L 354.732542 342.858305 
L 355.210895 341.066655 
L 355.718837 339.980921 
L 356.350066 339.161633 
L 357.306772 338.312053 
L 359.318814 336.622422 
L 359.333609 333.644761 
L 359.373061 232.57476 
L 359.397718 75.920914 
L 359.486485 207.765343 
L 359.678812 349.579108 
L 359.816893 350.636006 
L 359.836619 350.621205 
L 359.935249 350.291653 
L 360.196617 348.406017 
L 360.960996 342.852286 
L 361.439349 341.041797 
L 361.947291 339.94828 
L 362.573588 339.133435 
L 363.5155 338.298543 
L 365.58672 336.607137 
L 365.601514 333.980654 
L 365.640966 234.855397 
L 365.665624 76.740597 
L 365.75439 207.51615 
L 365.946718 349.466612 
L 366.084799 350.572054 
L 366.104525 350.561099 
L 366.198223 350.269467 
L 366.444797 348.543158 
L 366.799863 345.560533 
L 366.942876 353.242314 
L 367.135203 354.352887 
L 367.293011 354.402887 
L 367.52479 354.130982 
L 368.619578 352.679391 
L 369.655187 351.814168 
L 371.3023 350.735998 
L 373.0727 349.837627 
L 374.941729 349.140408 
L 376.662814 348.682783 
L 376.667746 335.240493 
L 376.776238 341.606813 
L 377.04747 349.120986 
L 377.318701 351.435422 
L 377.585 352.106822 
L 377.846369 352.240129 
L 378.196503 352.13711 
L 379.049649 351.578126 
L 381.046896 350.31176 
L 382.782776 349.485473 
L 384.637011 348.851713 
L 386.742751 348.3724 
L 389.321913 348.023062 
L 392.818329 347.789163 
L 396.393649 347.68785 
L 396.546525 334.722876 
L 396.807893 329.416233 
L 397.059398 326.27989 
L 397.079124 288.642688 
L 397.118576 66.96 
L 397.217205 207.842465 
L 397.39967 347.894453 
L 397.488436 348.477847 
L 397.537751 348.380635 
L 397.685695 347.414046 
L 398.109802 342.708161 
L 398.671991 337.465949 
L 399.110892 335.280788 
L 399.549793 334.125733 
L 400.10705 333.304679 
L 400.348692 332.836286 
L 400.363487 332.203863 
L 400.383213 299.414815 
L 400.432527 71.146423 
L 400.521294 206.571492 
L 400.713622 349.156193 
L 400.802388 349.696307 
L 400.851703 349.611017 
L 400.999647 348.730297 
L 401.463206 344.136511 
L 402.000737 339.89783 
L 402.464295 337.897842 
L 402.952512 336.723823 
L 403.559083 335.851079 
L 404.357982 334.778498 
L 404.372777 333.915473 
L 404.392502 300.515351 
L 404.441817 73.602226 
L 404.530584 207.187486 
L 404.722911 348.952094 
L 404.826472 349.661771 
L 404.870856 349.599529 
L 405.004005 348.907366 
L 405.403455 345.270137 
L 405.970575 340.906405 
L 406.439065 338.910293 
L 406.942075 337.68886 
L 407.568373 336.759897 
L 408.89494 335.021392 
L 408.914666 326.532509 
L 408.973843 75.303665 
L 409.067541 218.866841 
L 409.240143 348.378623 
L 409.368361 349.514413 
L 409.393019 349.491621 
L 409.49658 349.075524 
L 409.782605 346.727666 
L 410.487806 341.117678 
L 410.961228 339.117034 
L 411.464239 337.89911 
L 412.095467 336.959451 
L 413.200118 335.779691 
L 413.624225 335.182472 
L 413.639019 334.736942 
L 413.658745 318.089538 
L 413.712992 76.452514 
L 413.796827 201.771779 
L 413.999017 348.630675 
L 414.112441 349.405712 
L 414.146961 349.365817 
L 414.265317 348.827473 
L 414.600657 345.95488 
L 415.222023 341.141324 
L 415.695445 339.133135 
L 416.198455 337.911513 
L 416.824753 336.977416 
L 417.880089 335.85673 
L 418.412688 335.169753 
L 418.432414 334.734501 
L 418.45214 319.242762 
L 418.506386 77.290577 
L 418.590221 201.658954 
L 418.792412 348.505718 
L 418.910767 349.328394 
L 418.945287 349.286616 
L 419.063643 348.74779 
L 419.403915 345.837408 
L 420.020349 341.095314 
L 420.493771 339.09901 
L 420.996781 337.884496 
L 421.623079 336.955329 
L 422.678414 335.840568 
L 423.220877 335.141113 
L 423.235671 334.895439 
L 423.255397 322.657913 
L 423.314575 77.916699 
L 423.393478 200.116573 
L 423.595669 348.404685 
L 423.718956 349.276266 
L 423.748545 349.242251 
L 423.861969 348.751465 
L 424.177583 346.106598 
L 424.823606 341.088505 
L 425.297028 339.089901 
L 425.800039 337.874162 
L 425.982503 337.560215 
L 426.130447 348.872078 
L 426.357295 351.850979 
L 426.608801 352.737505 
L 426.855374 352.929115 
L 427.156194 352.862201 
L 427.817012 352.420595 
L 430.129874 350.828283 
L 431.890411 349.910651 
L 433.739714 349.198756 
L 435.79614 348.649691 
L 435.845455 348.639089 
L 435.845455 348.639089 
" style="fill:none;stroke:#ff0000;stroke-linecap:square;stroke-width:1.5;"/>
   </g>
   <g id="patch_3">
    <path d="M 63 384.48 
L 63 51.84 
" style="fill:none;stroke:#000000;stroke-linecap:square;stroke-linejoin:miter;stroke-width:0.8;"/>
   </g>
   <g id="patch_4">
    <path d="M 453.6 384.48 
L 453.6 51.84 
" style="fill:none;stroke:#000000;stroke-linecap:square;stroke-linejoin:miter;stroke-width:0.8;"/>
   </g>
   <g id="patch_5">
    <path d="M 63 384.48 
L 453.6 384.48 
" style="fill:none;stroke:#000000;stroke-linecap:square;stroke-linejoin:miter;stroke-width:0.8;"/>
   </g>
   <g id="patch_6">
    <path d="M 63 51.84 
L 453.6 51.84 
" style="fill:none;stroke:#000000;stroke-linecap:square;stroke-linejoin:miter;stroke-width:0.8;"/>
   </g>
   <g id="legend_1">
    <g id="patch_7">
     <path d="M 383.460938 379.48 
L 446.6 379.48 
Q 448.6 379.48 448.6 377.48 
L 448.6 363.801875 
Q 448.6 361.801875 446.6 361.801875 
L 383.460938 361.801875 
Q 381.460938 361.801875 381.460938 363.801875 
L 381.460938 377.48 
Q 381.460938 379.48 383.460938 379.48 
z
" style="fill:#ffffff;opacity:0.8;stroke:#cccccc;stroke-linejoin:miter;"/>
    </g>
    <g id="line2d_14">
     <path d="M 385.460938 369.900312 
L 405.460938 369.900312 
" style="fill:none;stroke:#ff0000;stroke-linecap:square;stroke-width:1.5;"/>
    </g>
    <g id="line2d_15"/>
    <g id="text_15">
     <!-- model -->
     <defs>
      <path d="M 45.40625 46.390625 
L 45.40625 75.984375 
L 54.390625 75.984375 
L 54.390625 0 
L 45.40625 0 
L 45.40625 8.203125 
Q 42.578125 3.328125 38.25 0.953125 
Q 33.9375 -1.421875 27.875 -1.421875 
Q 17.96875 -1.421875 11.734375 6.484375 
Q 5.515625 14.40625 5.515625 27.296875 
Q 5.515625 40.1875 11.734375 48.09375 
Q 17.96875 56 27.875 56 
Q 33.9375 56 38.25 53.625 
Q 42.578125 51.265625 45.40625 46.390625 
z
M 14.796875 27.296875 
Q 14.796875 17.390625 18.875 11.75 
Q 22.953125 6.109375 30.078125 6.109375 
Q 37.203125 6.109375 41.296875 11.75 
Q 45.40625 17.390625 45.40625 27.296875 
Q 45.40625 37.203125 41.296875 42.84375 
Q 37.203125 48.484375 30.078125 48.484375 
Q 22.953125 48.484375 18.875 42.84375 
Q 14.796875 37.203125 14.796875 27.296875 
z
" id="DejaVuSans-64"/>
     </defs>
     <g transform="translate(413.460938 373.400312)scale(0.1 -0.1)">
      <use xlink:href="#DejaVuSans-6d"/>
      <use x="97.412109" xlink:href="#DejaVuSans-6f"/>
      <use x="158.59375" xlink:href="#DejaVuSans-64"/>
      <use x="222.070312" xlink:href="#DejaVuSans-65"/>
      <use x="283.59375" xlink:href="#DejaVuSans-6c"/>
     </g>
    </g>
   </g>
  </g>
 </g>
 <defs>
  <clipPath id="p7ae9ccec2e">
   <rect height="332.64" width="390.6" x="63" y="51.84"/>
  </clipPath>
 </defs>
</svg>
