<?xml version="1.0" encoding="utf-8" standalone="no"?>
<!DOCTYPE svg PUBLIC "-//W3C//DTD SVG 1.1//EN"
  "http://www.w3.org/Graphics/SVG/1.1/DTD/svg11.dtd">
<!-- Created with matplotlib (https://matplotlib.org/) -->
<svg height="432pt" version="1.1" viewBox="0 0 504 432" width="504pt" xmlns="http://www.w3.org/2000/svg" xmlns:xlink="http://www.w3.org/1999/xlink">
 <defs>
  <style type="text/css">
*{stroke-linecap:butt;stroke-linejoin:round;}
  </style>
 </defs>
 <g id="figure_1">
  <g id="patch_1">
   <path d="M 0 432 
L 504 432 
L 504 0 
L 0 0 
z
" style="fill:#ffffff;"/>
  </g>
  <g id="axes_1">
   <g id="patch_2">
    <path d="M 63 384.48 
L 453.6 384.48 
L 453.6 51.84 
L 63 51.84 
z
" style="fill:#ffffff;"/>
   </g>
   <g id="matplotlib.axis_1">
    <g id="xtick_1">
     <g id="line2d_1">
      <defs>
       <path d="M 0 0 
L 0 3.5 
" id="m1ea42784eb" style="stroke:#000000;stroke-width:0.8;"/>
      </defs>
      <g>
       <use style="stroke:#000000;stroke-width:0.8;" x="80.754545" xlink:href="#m1ea42784eb" y="384.48"/>
      </g>
     </g>
     <g id="text_1">
      <!-- 0 -->
      <defs>
       <path d="M 31.78125 66.40625 
Q 24.171875 66.40625 20.328125 58.90625 
Q 16.5 51.421875 16.5 36.375 
Q 16.5 21.390625 20.328125 13.890625 
Q 24.171875 6.390625 31.78125 6.390625 
Q 39.453125 6.390625 43.28125 13.890625 
Q 47.125 21.390625 47.125 36.375 
Q 47.125 51.421875 43.28125 58.90625 
Q 39.453125 66.40625 31.78125 66.40625 
z
M 31.78125 74.21875 
Q 44.046875 74.21875 50.515625 64.515625 
Q 56.984375 54.828125 56.984375 36.375 
Q 56.984375 17.96875 50.515625 8.265625 
Q 44.046875 -1.421875 31.78125 -1.421875 
Q 19.53125 -1.421875 13.0625 8.265625 
Q 6.59375 17.96875 6.59375 36.375 
Q 6.59375 54.828125 13.0625 64.515625 
Q 19.53125 74.21875 31.78125 74.21875 
z
" id="DejaVuSans-48"/>
      </defs>
      <g transform="translate(77.573295 399.078438)scale(0.1 -0.1)">
       <use xlink:href="#DejaVuSans-48"/>
      </g>
     </g>
    </g>
    <g id="xtick_2">
     <g id="line2d_2">
      <g>
       <use style="stroke:#000000;stroke-width:0.8;" x="151.772727" xlink:href="#m1ea42784eb" y="384.48"/>
      </g>
     </g>
     <g id="text_2">
      <!-- 200 -->
      <defs>
       <path d="M 19.1875 8.296875 
L 53.609375 8.296875 
L 53.609375 0 
L 7.328125 0 
L 7.328125 8.296875 
Q 12.9375 14.109375 22.625 23.890625 
Q 32.328125 33.6875 34.8125 36.53125 
Q 39.546875 41.84375 41.421875 45.53125 
Q 43.3125 49.21875 43.3125 52.78125 
Q 43.3125 58.59375 39.234375 62.25 
Q 35.15625 65.921875 28.609375 65.921875 
Q 23.96875 65.921875 18.8125 64.3125 
Q 13.671875 62.703125 7.8125 59.421875 
L 7.8125 69.390625 
Q 13.765625 71.78125 18.9375 73 
Q 24.125 74.21875 28.421875 74.21875 
Q 39.75 74.21875 46.484375 68.546875 
Q 53.21875 62.890625 53.21875 53.421875 
Q 53.21875 48.921875 51.53125 44.890625 
Q 49.859375 40.875 45.40625 35.40625 
Q 44.1875 33.984375 37.640625 27.21875 
Q 31.109375 20.453125 19.1875 8.296875 
z
" id="DejaVuSans-50"/>
      </defs>
      <g transform="translate(142.228977 399.078438)scale(0.1 -0.1)">
       <use xlink:href="#DejaVuSans-50"/>
       <use x="63.623047" xlink:href="#DejaVuSans-48"/>
       <use x="127.246094" xlink:href="#DejaVuSans-48"/>
      </g>
     </g>
    </g>
    <g id="xtick_3">
     <g id="line2d_3">
      <g>
       <use style="stroke:#000000;stroke-width:0.8;" x="222.790909" xlink:href="#m1ea42784eb" y="384.48"/>
      </g>
     </g>
     <g id="text_3">
      <!-- 400 -->
      <defs>
       <path d="M 37.796875 64.3125 
L 12.890625 25.390625 
L 37.796875 25.390625 
z
M 35.203125 72.90625 
L 47.609375 72.90625 
L 47.609375 25.390625 
L 58.015625 25.390625 
L 58.015625 17.1875 
L 47.609375 17.1875 
L 47.609375 0 
L 37.796875 0 
L 37.796875 17.1875 
L 4.890625 17.1875 
L 4.890625 26.703125 
z
" id="DejaVuSans-52"/>
      </defs>
      <g transform="translate(213.247159 399.078438)scale(0.1 -0.1)">
       <use xlink:href="#DejaVuSans-52"/>
       <use x="63.623047" xlink:href="#DejaVuSans-48"/>
       <use x="127.246094" xlink:href="#DejaVuSans-48"/>
      </g>
     </g>
    </g>
    <g id="xtick_4">
     <g id="line2d_4">
      <g>
       <use style="stroke:#000000;stroke-width:0.8;" x="293.809091" xlink:href="#m1ea42784eb" y="384.48"/>
      </g>
     </g>
     <g id="text_4">
      <!-- 600 -->
      <defs>
       <path d="M 33.015625 40.375 
Q 26.375 40.375 22.484375 35.828125 
Q 18.609375 31.296875 18.609375 23.390625 
Q 18.609375 15.53125 22.484375 10.953125 
Q 26.375 6.390625 33.015625 6.390625 
Q 39.65625 6.390625 43.53125 10.953125 
Q 47.40625 15.53125 47.40625 23.390625 
Q 47.40625 31.296875 43.53125 35.828125 
Q 39.65625 40.375 33.015625 40.375 
z
M 52.59375 71.296875 
L 52.59375 62.3125 
Q 48.875 64.0625 45.09375 64.984375 
Q 41.3125 65.921875 37.59375 65.921875 
Q 27.828125 65.921875 22.671875 59.328125 
Q 17.53125 52.734375 16.796875 39.40625 
Q 19.671875 43.65625 24.015625 45.921875 
Q 28.375 48.1875 33.59375 48.1875 
Q 44.578125 48.1875 50.953125 41.515625 
Q 57.328125 34.859375 57.328125 23.390625 
Q 57.328125 12.15625 50.6875 5.359375 
Q 44.046875 -1.421875 33.015625 -1.421875 
Q 20.359375 -1.421875 13.671875 8.265625 
Q 6.984375 17.96875 6.984375 36.375 
Q 6.984375 53.65625 15.1875 63.9375 
Q 23.390625 74.21875 37.203125 74.21875 
Q 40.921875 74.21875 44.703125 73.484375 
Q 48.484375 72.75 52.59375 71.296875 
z
" id="DejaVuSans-54"/>
      </defs>
      <g transform="translate(284.265341 399.078438)scale(0.1 -0.1)">
       <use xlink:href="#DejaVuSans-54"/>
       <use x="63.623047" xlink:href="#DejaVuSans-48"/>
       <use x="127.246094" xlink:href="#DejaVuSans-48"/>
      </g>
     </g>
    </g>
    <g id="xtick_5">
     <g id="line2d_5">
      <g>
       <use style="stroke:#000000;stroke-width:0.8;" x="364.827273" xlink:href="#m1ea42784eb" y="384.48"/>
      </g>
     </g>
     <g id="text_5">
      <!-- 800 -->
      <defs>
       <path d="M 31.78125 34.625 
Q 24.75 34.625 20.71875 30.859375 
Q 16.703125 27.09375 16.703125 20.515625 
Q 16.703125 13.921875 20.71875 10.15625 
Q 24.75 6.390625 31.78125 6.390625 
Q 38.8125 6.390625 42.859375 10.171875 
Q 46.921875 13.96875 46.921875 20.515625 
Q 46.921875 27.09375 42.890625 30.859375 
Q 38.875 34.625 31.78125 34.625 
z
M 21.921875 38.8125 
Q 15.578125 40.375 12.03125 44.71875 
Q 8.5 49.078125 8.5 55.328125 
Q 8.5 64.0625 14.71875 69.140625 
Q 20.953125 74.21875 31.78125 74.21875 
Q 42.671875 74.21875 48.875 69.140625 
Q 55.078125 64.0625 55.078125 55.328125 
Q 55.078125 49.078125 51.53125 44.71875 
Q 48 40.375 41.703125 38.8125 
Q 48.828125 37.15625 52.796875 32.3125 
Q 56.78125 27.484375 56.78125 20.515625 
Q 56.78125 9.90625 50.3125 4.234375 
Q 43.84375 -1.421875 31.78125 -1.421875 
Q 19.734375 -1.421875 13.25 4.234375 
Q 6.78125 9.90625 6.78125 20.515625 
Q 6.78125 27.484375 10.78125 32.3125 
Q 14.796875 37.15625 21.921875 38.8125 
z
M 18.3125 54.390625 
Q 18.3125 48.734375 21.84375 45.5625 
Q 25.390625 42.390625 31.78125 42.390625 
Q 38.140625 42.390625 41.71875 45.5625 
Q 45.3125 48.734375 45.3125 54.390625 
Q 45.3125 60.0625 41.71875 63.234375 
Q 38.140625 66.40625 31.78125 66.40625 
Q 25.390625 66.40625 21.84375 63.234375 
Q 18.3125 60.0625 18.3125 54.390625 
z
" id="DejaVuSans-56"/>
      </defs>
      <g transform="translate(355.283523 399.078438)scale(0.1 -0.1)">
       <use xlink:href="#DejaVuSans-56"/>
       <use x="63.623047" xlink:href="#DejaVuSans-48"/>
       <use x="127.246094" xlink:href="#DejaVuSans-48"/>
      </g>
     </g>
    </g>
    <g id="text_6">
     <!-- time [ms] -->
     <defs>
      <path d="M 18.3125 70.21875 
L 18.3125 54.6875 
L 36.8125 54.6875 
L 36.8125 47.703125 
L 18.3125 47.703125 
L 18.3125 18.015625 
Q 18.3125 11.328125 20.140625 9.421875 
Q 21.96875 7.515625 27.59375 7.515625 
L 36.8125 7.515625 
L 36.8125 0 
L 27.59375 0 
Q 17.1875 0 13.234375 3.875 
Q 9.28125 7.765625 9.28125 18.015625 
L 9.28125 47.703125 
L 2.6875 47.703125 
L 2.6875 54.6875 
L 9.28125 54.6875 
L 9.28125 70.21875 
z
" id="DejaVuSans-116"/>
      <path d="M 9.421875 54.6875 
L 18.40625 54.6875 
L 18.40625 0 
L 9.421875 0 
z
M 9.421875 75.984375 
L 18.40625 75.984375 
L 18.40625 64.59375 
L 9.421875 64.59375 
z
" id="DejaVuSans-105"/>
      <path d="M 52 44.1875 
Q 55.375 50.25 60.0625 53.125 
Q 64.75 56 71.09375 56 
Q 79.640625 56 84.28125 50.015625 
Q 88.921875 44.046875 88.921875 33.015625 
L 88.921875 0 
L 79.890625 0 
L 79.890625 32.71875 
Q 79.890625 40.578125 77.09375 44.375 
Q 74.3125 48.1875 68.609375 48.1875 
Q 61.625 48.1875 57.5625 43.546875 
Q 53.515625 38.921875 53.515625 30.90625 
L 53.515625 0 
L 44.484375 0 
L 44.484375 32.71875 
Q 44.484375 40.625 41.703125 44.40625 
Q 38.921875 48.1875 33.109375 48.1875 
Q 26.21875 48.1875 22.15625 43.53125 
Q 18.109375 38.875 18.109375 30.90625 
L 18.109375 0 
L 9.078125 0 
L 9.078125 54.6875 
L 18.109375 54.6875 
L 18.109375 46.1875 
Q 21.1875 51.21875 25.484375 53.609375 
Q 29.78125 56 35.6875 56 
Q 41.65625 56 45.828125 52.96875 
Q 50 49.953125 52 44.1875 
z
" id="DejaVuSans-109"/>
      <path d="M 56.203125 29.59375 
L 56.203125 25.203125 
L 14.890625 25.203125 
Q 15.484375 15.921875 20.484375 11.0625 
Q 25.484375 6.203125 34.421875 6.203125 
Q 39.59375 6.203125 44.453125 7.46875 
Q 49.3125 8.734375 54.109375 11.28125 
L 54.109375 2.78125 
Q 49.265625 0.734375 44.1875 -0.34375 
Q 39.109375 -1.421875 33.890625 -1.421875 
Q 20.796875 -1.421875 13.15625 6.1875 
Q 5.515625 13.8125 5.515625 26.8125 
Q 5.515625 40.234375 12.765625 48.109375 
Q 20.015625 56 32.328125 56 
Q 43.359375 56 49.78125 48.890625 
Q 56.203125 41.796875 56.203125 29.59375 
z
M 47.21875 32.234375 
Q 47.125 39.59375 43.09375 43.984375 
Q 39.0625 48.390625 32.421875 48.390625 
Q 24.90625 48.390625 20.390625 44.140625 
Q 15.875 39.890625 15.1875 32.171875 
z
" id="DejaVuSans-101"/>
      <path id="DejaVuSans-32"/>
      <path d="M 8.59375 75.984375 
L 29.296875 75.984375 
L 29.296875 69 
L 17.578125 69 
L 17.578125 -6.203125 
L 29.296875 -6.203125 
L 29.296875 -13.1875 
L 8.59375 -13.1875 
z
" id="DejaVuSans-91"/>
      <path d="M 44.28125 53.078125 
L 44.28125 44.578125 
Q 40.484375 46.53125 36.375 47.5 
Q 32.28125 48.484375 27.875 48.484375 
Q 21.1875 48.484375 17.84375 46.4375 
Q 14.5 44.390625 14.5 40.28125 
Q 14.5 37.15625 16.890625 35.375 
Q 19.28125 33.59375 26.515625 31.984375 
L 29.59375 31.296875 
Q 39.15625 29.25 43.1875 25.515625 
Q 47.21875 21.78125 47.21875 15.09375 
Q 47.21875 7.46875 41.1875 3.015625 
Q 35.15625 -1.421875 24.609375 -1.421875 
Q 20.21875 -1.421875 15.453125 -0.5625 
Q 10.6875 0.296875 5.421875 2 
L 5.421875 11.28125 
Q 10.40625 8.6875 15.234375 7.390625 
Q 20.0625 6.109375 24.8125 6.109375 
Q 31.15625 6.109375 34.5625 8.28125 
Q 37.984375 10.453125 37.984375 14.40625 
Q 37.984375 18.0625 35.515625 20.015625 
Q 33.0625 21.96875 24.703125 23.78125 
L 21.578125 24.515625 
Q 13.234375 26.265625 9.515625 29.90625 
Q 5.8125 33.546875 5.8125 39.890625 
Q 5.8125 47.609375 11.28125 51.796875 
Q 16.75 56 26.8125 56 
Q 31.78125 56 36.171875 55.265625 
Q 40.578125 54.546875 44.28125 53.078125 
z
" id="DejaVuSans-115"/>
      <path d="M 30.421875 75.984375 
L 30.421875 -13.1875 
L 9.71875 -13.1875 
L 9.71875 -6.203125 
L 21.390625 -6.203125 
L 21.390625 69 
L 9.71875 69 
L 9.71875 75.984375 
z
" id="DejaVuSans-93"/>
     </defs>
     <g transform="translate(234.038281 412.756563)scale(0.1 -0.1)">
      <use xlink:href="#DejaVuSans-116"/>
      <use x="39.208984" xlink:href="#DejaVuSans-105"/>
      <use x="66.992188" xlink:href="#DejaVuSans-109"/>
      <use x="164.404297" xlink:href="#DejaVuSans-101"/>
      <use x="225.927734" xlink:href="#DejaVuSans-32"/>
      <use x="257.714844" xlink:href="#DejaVuSans-91"/>
      <use x="296.728516" xlink:href="#DejaVuSans-109"/>
      <use x="394.140625" xlink:href="#DejaVuSans-115"/>
      <use x="446.240234" xlink:href="#DejaVuSans-93"/>
     </g>
    </g>
   </g>
   <g id="matplotlib.axis_2">
    <g id="ytick_1">
     <g id="line2d_6">
      <defs>
       <path d="M 0 0 
L -3.5 0 
" id="m061d7899ce" style="stroke:#000000;stroke-width:0.8;"/>
      </defs>
      <g>
       <use style="stroke:#000000;stroke-width:0.8;" x="63" xlink:href="#m061d7899ce" y="381.410492"/>
      </g>
     </g>
     <g id="text_7">
      <!-- −80 -->
      <defs>
       <path d="M 10.59375 35.5 
L 73.1875 35.5 
L 73.1875 27.203125 
L 10.59375 27.203125 
z
" id="DejaVuSans-8722"/>
      </defs>
      <g transform="translate(34.895313 385.209711)scale(0.1 -0.1)">
       <use xlink:href="#DejaVuSans-8722"/>
       <use x="83.789062" xlink:href="#DejaVuSans-56"/>
       <use x="147.412109" xlink:href="#DejaVuSans-48"/>
      </g>
     </g>
    </g>
    <g id="ytick_2">
     <g id="line2d_7">
      <g>
       <use style="stroke:#000000;stroke-width:0.8;" x="63" xlink:href="#m061d7899ce" y="328.860103"/>
      </g>
     </g>
     <g id="text_8">
      <!-- −60 -->
      <g transform="translate(34.895313 332.659322)scale(0.1 -0.1)">
       <use xlink:href="#DejaVuSans-8722"/>
       <use x="83.789062" xlink:href="#DejaVuSans-54"/>
       <use x="147.412109" xlink:href="#DejaVuSans-48"/>
      </g>
     </g>
    </g>
    <g id="ytick_3">
     <g id="line2d_8">
      <g>
       <use style="stroke:#000000;stroke-width:0.8;" x="63" xlink:href="#m061d7899ce" y="276.309714"/>
      </g>
     </g>
     <g id="text_9">
      <!-- −40 -->
      <g transform="translate(34.895313 280.108933)scale(0.1 -0.1)">
       <use xlink:href="#DejaVuSans-8722"/>
       <use x="83.789062" xlink:href="#DejaVuSans-52"/>
       <use x="147.412109" xlink:href="#DejaVuSans-48"/>
      </g>
     </g>
    </g>
    <g id="ytick_4">
     <g id="line2d_9">
      <g>
       <use style="stroke:#000000;stroke-width:0.8;" x="63" xlink:href="#m061d7899ce" y="223.759325"/>
      </g>
     </g>
     <g id="text_10">
      <!-- −20 -->
      <g transform="translate(34.895313 227.558544)scale(0.1 -0.1)">
       <use xlink:href="#DejaVuSans-8722"/>
       <use x="83.789062" xlink:href="#DejaVuSans-50"/>
       <use x="147.412109" xlink:href="#DejaVuSans-48"/>
      </g>
     </g>
    </g>
    <g id="ytick_5">
     <g id="line2d_10">
      <g>
       <use style="stroke:#000000;stroke-width:0.8;" x="63" xlink:href="#m061d7899ce" y="171.208936"/>
      </g>
     </g>
     <g id="text_11">
      <!-- 0 -->
      <g transform="translate(49.6375 175.008155)scale(0.1 -0.1)">
       <use xlink:href="#DejaVuSans-48"/>
      </g>
     </g>
    </g>
    <g id="ytick_6">
     <g id="line2d_11">
      <g>
       <use style="stroke:#000000;stroke-width:0.8;" x="63" xlink:href="#m061d7899ce" y="118.658547"/>
      </g>
     </g>
     <g id="text_12">
      <!-- 20 -->
      <g transform="translate(43.275 122.457766)scale(0.1 -0.1)">
       <use xlink:href="#DejaVuSans-50"/>
       <use x="63.623047" xlink:href="#DejaVuSans-48"/>
      </g>
     </g>
    </g>
    <g id="ytick_7">
     <g id="line2d_12">
      <g>
       <use style="stroke:#000000;stroke-width:0.8;" x="63" xlink:href="#m061d7899ce" y="66.108158"/>
      </g>
     </g>
     <g id="text_13">
      <!-- 40 -->
      <g transform="translate(43.275 69.907377)scale(0.1 -0.1)">
       <use xlink:href="#DejaVuSans-52"/>
       <use x="63.623047" xlink:href="#DejaVuSans-48"/>
      </g>
     </g>
    </g>
    <g id="text_14">
     <!-- voltage [mV] -->
     <defs>
      <path d="M 2.984375 54.6875 
L 12.5 54.6875 
L 29.59375 8.796875 
L 46.6875 54.6875 
L 56.203125 54.6875 
L 35.6875 0 
L 23.484375 0 
z
" id="DejaVuSans-118"/>
      <path d="M 30.609375 48.390625 
Q 23.390625 48.390625 19.1875 42.75 
Q 14.984375 37.109375 14.984375 27.296875 
Q 14.984375 17.484375 19.15625 11.84375 
Q 23.34375 6.203125 30.609375 6.203125 
Q 37.796875 6.203125 41.984375 11.859375 
Q 46.1875 17.53125 46.1875 27.296875 
Q 46.1875 37.015625 41.984375 42.703125 
Q 37.796875 48.390625 30.609375 48.390625 
z
M 30.609375 56 
Q 42.328125 56 49.015625 48.375 
Q 55.71875 40.765625 55.71875 27.296875 
Q 55.71875 13.875 49.015625 6.21875 
Q 42.328125 -1.421875 30.609375 -1.421875 
Q 18.84375 -1.421875 12.171875 6.21875 
Q 5.515625 13.875 5.515625 27.296875 
Q 5.515625 40.765625 12.171875 48.375 
Q 18.84375 56 30.609375 56 
z
" id="DejaVuSans-111"/>
      <path d="M 9.421875 75.984375 
L 18.40625 75.984375 
L 18.40625 0 
L 9.421875 0 
z
" id="DejaVuSans-108"/>
      <path d="M 34.28125 27.484375 
Q 23.390625 27.484375 19.1875 25 
Q 14.984375 22.515625 14.984375 16.5 
Q 14.984375 11.71875 18.140625 8.90625 
Q 21.296875 6.109375 26.703125 6.109375 
Q 34.1875 6.109375 38.703125 11.40625 
Q 43.21875 16.703125 43.21875 25.484375 
L 43.21875 27.484375 
z
M 52.203125 31.203125 
L 52.203125 0 
L 43.21875 0 
L 43.21875 8.296875 
Q 40.140625 3.328125 35.546875 0.953125 
Q 30.953125 -1.421875 24.3125 -1.421875 
Q 15.921875 -1.421875 10.953125 3.296875 
Q 6 8.015625 6 15.921875 
Q 6 25.140625 12.171875 29.828125 
Q 18.359375 34.515625 30.609375 34.515625 
L 43.21875 34.515625 
L 43.21875 35.40625 
Q 43.21875 41.609375 39.140625 45 
Q 35.0625 48.390625 27.6875 48.390625 
Q 23 48.390625 18.546875 47.265625 
Q 14.109375 46.140625 10.015625 43.890625 
L 10.015625 52.203125 
Q 14.9375 54.109375 19.578125 55.046875 
Q 24.21875 56 28.609375 56 
Q 40.484375 56 46.34375 49.84375 
Q 52.203125 43.703125 52.203125 31.203125 
z
" id="DejaVuSans-97"/>
      <path d="M 45.40625 27.984375 
Q 45.40625 37.75 41.375 43.109375 
Q 37.359375 48.484375 30.078125 48.484375 
Q 22.859375 48.484375 18.828125 43.109375 
Q 14.796875 37.75 14.796875 27.984375 
Q 14.796875 18.265625 18.828125 12.890625 
Q 22.859375 7.515625 30.078125 7.515625 
Q 37.359375 7.515625 41.375 12.890625 
Q 45.40625 18.265625 45.40625 27.984375 
z
M 54.390625 6.78125 
Q 54.390625 -7.171875 48.1875 -13.984375 
Q 42 -20.796875 29.203125 -20.796875 
Q 24.46875 -20.796875 20.265625 -20.09375 
Q 16.0625 -19.390625 12.109375 -17.921875 
L 12.109375 -9.1875 
Q 16.0625 -11.328125 19.921875 -12.34375 
Q 23.78125 -13.375 27.78125 -13.375 
Q 36.625 -13.375 41.015625 -8.765625 
Q 45.40625 -4.15625 45.40625 5.171875 
L 45.40625 9.625 
Q 42.625 4.78125 38.28125 2.390625 
Q 33.9375 0 27.875 0 
Q 17.828125 0 11.671875 7.65625 
Q 5.515625 15.328125 5.515625 27.984375 
Q 5.515625 40.671875 11.671875 48.328125 
Q 17.828125 56 27.875 56 
Q 33.9375 56 38.28125 53.609375 
Q 42.625 51.21875 45.40625 46.390625 
L 45.40625 54.6875 
L 54.390625 54.6875 
z
" id="DejaVuSans-103"/>
      <path d="M 28.609375 0 
L 0.78125 72.90625 
L 11.078125 72.90625 
L 34.1875 11.53125 
L 57.328125 72.90625 
L 67.578125 72.90625 
L 39.796875 0 
z
" id="DejaVuSans-86"/>
     </defs>
     <g transform="translate(28.815625 250.624062)rotate(-90)scale(0.1 -0.1)">
      <use xlink:href="#DejaVuSans-118"/>
      <use x="59.179688" xlink:href="#DejaVuSans-111"/>
      <use x="120.361328" xlink:href="#DejaVuSans-108"/>
      <use x="148.144531" xlink:href="#DejaVuSans-116"/>
      <use x="187.353516" xlink:href="#DejaVuSans-97"/>
      <use x="248.632812" xlink:href="#DejaVuSans-103"/>
      <use x="312.109375" xlink:href="#DejaVuSans-101"/>
      <use x="373.632812" xlink:href="#DejaVuSans-32"/>
      <use x="405.419922" xlink:href="#DejaVuSans-91"/>
      <use x="444.433594" xlink:href="#DejaVuSans-109"/>
      <use x="541.845703" xlink:href="#DejaVuSans-86"/>
      <use x="610.253906" xlink:href="#DejaVuSans-93"/>
     </g>
    </g>
   </g>
   <g id="line2d_13">
    <path clip-path="url(#pc73ae39b91)" d="M 80.754545 341.997701 
L 81.952977 341.861332 
L 83.772818 341.918349 
L 85.965505 341.937268 
L 151.772727 341.928597 
L 152.314241 297.361137 
L 152.420768 248.677669 
L 152.562805 66.96 
L 152.678209 92.202579 
L 153.565936 368.511474 
L 153.610323 368.41084 
L 153.8145 367.030604 
L 154.293873 362.272166 
L 154.959668 353.141799 
L 157.42755 314.211945 
L 157.613973 303.073627 
L 157.738255 281.086282 
L 157.835905 218.467764 
L 157.969064 91.34522 
L 158.031205 104.510669 
L 158.883423 368.086604 
L 158.945564 367.90294 
L 159.203005 365.921791 
L 159.717886 360.243196 
L 160.534595 348.304273 
L 161.8218 330.155996 
L 162.514227 319.779133 
L 162.771668 312.251027 
L 162.940336 300.24773 
L 163.064618 272.253613 
L 163.162268 187.770533 
L 163.268795 92.266428 
L 163.322059 101.789084 
L 163.863573 297.08262 
L 164.147645 367.909772 
L 164.183155 368.054811 
L 164.245295 367.873249 
L 164.493859 365.967772 
L 165.008741 360.308884 
L 165.834327 348.24673 
L 167.112655 330.230617 
L 167.813959 319.743662 
L 168.0714 312.205834 
L 168.240068 300.163124 
L 168.36435 272.007151 
L 168.462 187.024186 
L 168.568527 92.343414 
L 168.621791 102.011372 
L 169.172182 301.038351 
L 169.4385 367.823852 
L 169.482886 368.052709 
L 169.545027 367.867206 
L 169.802468 365.877911 
L 170.31735 360.181449 
L 171.151814 347.95744 
L 172.430141 329.987572 
L 173.113691 319.725269 
L 173.371132 312.169311 
L 173.5398 300.06722 
L 173.664082 271.668727 
L 173.761732 185.87173 
L 173.868259 92.360231 
L 173.921523 102.247586 
L 174.480791 305.113634 
L 174.729355 367.714284 
L 174.782618 368.052709 
L 174.844759 367.863002 
L 175.1022 365.870554 
L 175.617082 360.170676 
L 176.451545 347.944565 
L 177.729873 329.976799 
L 178.413423 319.708453 
L 178.670864 312.133314 
L 178.839532 299.970001 
L 178.963814 271.321369 
L 179.061464 184.685536 
L 179.167991 92.377572 
L 179.221255 102.486428 
L 179.7894 309.292178 
L 180.029086 367.726634 
L 180.08235 368.052972 
L 180.144491 367.858535 
L 180.401932 365.863197 
L 180.916814 360.160166 
L 181.751277 347.932216 
L 183.029605 329.966289 
L 183.713155 319.691374 
L 183.970595 312.097055 
L 184.139264 299.871732 
L 184.263545 270.965865 
L 184.361195 183.47848 
L 184.467723 92.401483 
L 184.520986 102.728948 
L 185.098009 313.562685 
L 185.328818 367.73872 
L 185.382082 368.052972 
L 185.444223 367.854331 
L 185.701664 365.855577 
L 186.216545 360.149656 
L 187.051009 347.919604 
L 188.329336 329.955779 
L 189.012886 319.674558 
L 189.270327 312.060532 
L 189.438995 299.771886 
L 189.563277 270.605107 
L 189.660927 182.266615 
L 189.767455 92.431174 
L 189.820718 102.973833 
L 190.406618 317.905449 
L 190.619673 367.604717 
L 190.681814 368.052709 
L 190.743955 367.849864 
L 191.010273 365.766767 
L 191.525155 360.024061 
L 192.368495 347.63373 
L 193.637945 329.829658 
L 194.312618 319.657216 
L 194.570059 312.02401 
L 194.738727 299.671515 
L 194.863009 270.240933 
L 194.969536 167.677156 
L 195.058309 92.417773 
L 195.12045 103.221345 
L 195.715227 322.294458 
L 195.919405 367.620219 
L 195.981545 368.052709 
L 196.043686 367.845398 
L 196.310005 365.759147 
L 196.833764 359.89794 
L 197.703736 347.075382 
L 198.955432 329.588189 
L 199.61235 319.640138 
L 199.869791 311.986962 
L 200.038459 299.570093 
L 200.162741 269.869401 
L 200.269268 166.412505 
L 200.358041 92.388345 
L 200.420182 103.473061 
L 201.023836 326.692663 
L 201.219136 367.634933 
L 201.281277 368.052183 
L 201.343418 367.840931 
L 201.609736 365.751527 
L 202.133495 359.886904 
L 202.994591 347.198875 
L 204.255164 329.577416 
L 204.912082 319.622533 
L 205.169523 311.949388 
L 205.338191 299.467094 
L 205.462473 269.49025 
L 205.569 165.139366 
L 205.657773 92.366011 
L 205.719914 103.726617 
L 206.332445 331.05198 
L 206.518868 367.649647 
L 206.581009 368.051921 
L 206.634273 367.882971 
L 206.873959 366.066041 
L 207.388841 360.44893 
L 208.187795 348.825835 
L 209.510509 330.142858 
L 210.202936 319.789643 
L 210.460377 312.304891 
L 210.629045 300.431394 
L 210.753327 272.961203 
L 210.850977 190.333783 
L 210.957505 92.350771 
L 211.019645 103.981224 
L 211.641055 335.318283 
L 211.827477 367.795475 
L 211.880741 368.051395 
L 211.934005 367.878767 
L 212.182568 365.978808 
L 212.69745 360.324649 
L 213.514159 348.402542 
L 214.810241 330.132085 
L 215.502668 319.772565 
L 215.760109 312.268894 
L 215.928777 300.334964 
L 216.053059 272.621465 
L 216.150709 189.153502 
L 216.257236 92.344465 
L 216.319377 104.235305 
L 216.949664 339.427987 
L 217.127209 367.805985 
L 217.171595 368.051921 
L 217.233736 367.874563 
L 217.4823 365.971451 
L 217.997182 360.314139 
L 218.822768 348.253036 
L 220.101095 330.236398 
L 220.8024 319.755486 
L 221.059841 312.23316 
L 221.228509 300.238797 
L 221.352791 272.280413 
L 221.450441 187.973798 
L 221.556968 92.344991 
L 221.610232 101.826132 
L 222.151745 297.138061 
L 222.426941 367.815969 
L 222.471327 368.052183 
L 222.533468 367.870359 
L 222.782032 365.964094 
L 223.296914 360.303629 
L 224.1225 348.240161 
L 225.418582 329.995717 
L 226.111009 319.553167 
L 226.36845 311.799882 
L 226.537118 299.05326 
L 226.652523 271.936734 
L 226.750173 186.789391 
L 226.8567 92.351034 
L 226.909964 102.063923 
L 227.460355 301.113761 
L 227.726673 367.825691 
L 227.771059 368.052709 
L 227.8332 367.866155 
L 228.090641 365.876072 
L 228.605523 360.178821 
L 229.439986 347.954287 
L 230.718314 329.984944 
L 231.401864 319.721328 
L 231.659305 312.160903 
L 231.827973 300.045148 
L 231.952255 271.590689 
L 232.049905 185.604774 
L 232.156432 92.363909 
L 232.209695 102.30145 
L 232.768964 305.192196 
L 233.017527 367.717175 
L 233.070791 368.052709 
L 233.132932 367.861951 
L 233.390373 365.868715 
L 233.905255 360.168311 
L 234.739718 347.941675 
L 236.018045 329.974434 
L 236.701595 319.704512 
L 236.959036 312.125169 
L 237.127705 299.94793 
L 237.251986 271.241492 
L 237.349636 184.413378 
L 237.456164 92.382302 
L 237.509427 102.541343 
L 238.077573 309.373105 
L 238.317259 367.729261 
L 238.370523 368.052972 
L 238.432664 367.857747 
L 238.690105 365.861358 
L 239.204986 360.157801 
L 240.03945 347.929326 
L 241.317777 329.963924 
L 242.001327 319.687696 
L 242.258768 312.088909 
L 242.427436 299.849136 
L 242.551718 270.884149 
L 242.649368 183.20351 
L 242.755895 92.407789 
L 242.809159 102.784388 
L 243.386182 313.645452 
L 243.616991 367.741348 
L 243.670255 368.052972 
L 243.732395 367.85328 
L 243.989836 365.854001 
L 244.504718 360.147291 
L 245.348059 347.780083 
L 246.617509 329.953151 
L 247.301059 319.670617 
L 247.5585 312.052387 
L 247.727168 299.749027 
L 247.85145 270.522865 
L 247.9491 181.990463 
L 248.055627 92.439056 
L 248.108891 103.029799 
L 248.694791 317.990055 
L 248.907845 367.608395 
L 248.969986 368.052709 
L 249.032127 367.849076 
L 249.298445 365.765191 
L 249.822205 359.906348 
L 250.692177 347.085366 
L 251.943873 329.596597 
L 252.600791 319.653275 
L 252.858232 312.015602 
L 253.0269 299.648393 
L 253.151182 270.156852 
L 253.257709 167.389232 
L 253.346482 92.410416 
L 253.408623 103.278625 
L 254.0034 322.38064 
L 254.207577 367.623635 
L 254.269718 368.052446 
L 254.331859 367.844609 
L 254.598177 365.757571 
L 255.121936 359.895312 
L 255.983032 347.20886 
L 257.22585 329.81652 
L 257.900523 319.636196 
L 258.157964 311.978554 
L 258.326632 299.546708 
L 258.450914 269.783481 
L 258.557441 166.12198 
L 258.646214 92.382564 
L 258.708355 103.531129 
L 259.312009 326.778845 
L 259.507309 367.638349 
L 259.56945 368.052183 
L 259.631591 367.83988 
L 259.897909 365.749688 
L 260.421668 359.884539 
L 261.291641 347.05988 
L 262.525582 329.805748 
L 263.200255 319.618592 
L 263.457695 311.94098 
L 263.626364 299.443447 
L 263.750645 269.403017 
L 263.857173 164.848316 
L 263.945945 92.361807 
L 264.008086 103.784685 
L 264.620618 331.136849 
L 264.807041 367.653063 
L 264.869182 368.051658 
L 264.922445 367.882183 
L 265.171009 365.984588 
L 265.685891 360.333057 
L 266.511477 348.275633 
L 267.807559 330.025408 
L 268.499986 319.60125 
L 268.757427 311.903407 
L 268.926095 299.340185 
L 269.050377 269.022552 
L 269.156905 163.584138 
L 269.245677 92.348669 
L 269.298941 101.407043 
L 269.8227 289.570542 
L 270.133405 367.964424 
L 270.168914 368.051395 
L 270.222177 367.877979 
L 270.470741 365.977231 
L 270.985623 360.322284 
L 271.802332 348.399652 
L 273.098414 330.129721 
L 273.790841 319.768623 
L 274.048282 312.260749 
L 274.21695 300.313155 
L 274.341232 272.543691 
L 274.438882 188.883498 
L 274.545409 92.344203 
L 274.598673 101.643257 
L 275.131309 293.341295 
L 275.424259 367.902415 
L 275.459768 368.051921 
L 275.521909 367.873775 
L 275.770473 365.969874 
L 276.285355 360.311774 
L 277.110941 348.250146 
L 278.389268 330.234033 
L 279.090573 319.751544 
L 279.348014 312.224752 
L 279.516682 300.216726 
L 279.640964 272.202113 
L 279.738614 187.703689 
L 279.845141 92.345516 
L 279.898405 101.880522 
L 280.439918 297.213996 
L 280.715114 367.818071 
L 280.7595 368.052446 
L 280.821641 367.869571 
L 281.079082 365.881852 
L 281.593964 360.186967 
L 282.428427 347.964009 
L 283.706755 329.99309 
L 284.390305 319.734465 
L 284.647745 312.188755 
L 284.816414 300.120033 
L 284.940695 271.857908 
L 285.038345 186.519177 
L 285.144873 92.353399 
L 285.198136 102.11805 
L 285.748527 301.190747 
L 286.014845 367.827793 
L 286.059232 368.052709 
L 286.121373 367.865104 
L 286.378814 365.874495 
L 286.893695 360.176457 
L 287.728159 347.951397 
L 289.006486 329.98258 
L 289.690036 319.717649 
L 289.947477 312.152758 
L 290.116145 300.023077 
L 290.240427 271.511338 
L 290.338077 185.333666 
L 290.444605 92.367588 
L 290.497868 102.35584 
L 291.057136 305.271547 
L 291.3057 367.720065 
L 291.358964 368.052972 
L 291.421105 367.8609 
L 291.678545 365.867138 
L 292.193427 360.165947 
L 293.027891 347.938785 
L 294.315095 329.856721 
L 294.989768 319.70057 
L 295.247209 312.116761 
L 295.415877 299.925596 
L 295.540159 271.160564 
L 295.637809 184.138355 
L 295.744336 92.387557 
L 295.7976 102.596521 
L 296.365745 309.454558 
L 296.605432 367.732152 
L 296.658695 368.052972 
L 296.720836 367.856696 
L 296.978277 365.859781 
L 297.493159 360.155436 
L 298.327623 347.926435 
L 299.60595 329.961559 
L 300.2895 319.683754 
L 300.546941 312.080501 
L 300.715609 299.826276 
L 300.839891 270.802171 
L 300.937541 182.928146 
L 301.044068 92.414357 
L 301.097332 102.839829 
L 301.674355 313.728219 
L 301.905164 367.743975 
L 301.958427 368.052972 
L 302.020568 367.852492 
L 302.286886 365.770971 
L 302.810645 359.914493 
L 303.671741 347.231457 
L 304.914559 329.835701 
L 305.589232 319.666675 
L 305.846673 312.043979 
L 306.015341 299.72643 
L 306.139623 270.440361 
L 306.24615 168.361888 
L 306.334923 92.436429 
L 306.397064 103.086028 
L 306.982964 318.074661 
L 307.196018 367.611811 
L 307.258159 368.052709 
L 307.3203 367.848025 
L 307.586618 365.763351 
L 308.110377 359.90372 
L 308.971473 347.218844 
L 310.214291 329.824928 
L 310.888964 319.649597 
L 311.146405 312.007194 
L 311.315073 299.625534 
L 311.439355 270.072509 
L 311.545882 167.102334 
L 311.634655 92.403585 
L 311.696795 103.335642 
L 312.291573 322.466297 
L 312.49575 367.627051 
L 312.557891 368.052446 
L 312.620032 367.843558 
L 312.88635 365.755731 
L 313.410109 359.892947 
L 314.280082 347.069601 
L 315.531777 329.583197 
L 316.188695 319.631992 
L 316.446136 311.969883 
L 316.614805 299.523323 
L 316.739086 269.697824 
L 316.845614 165.832558 
L 316.934386 92.377309 
L 316.996527 103.588672 
L 317.600182 326.864765 
L 317.795482 367.641765 
L 317.857623 368.052183 
L 317.910886 367.885336 
L 318.150573 366.069983 
L 318.665455 360.454711 
L 319.464409 348.832667 
L 320.787123 330.148902 
L 321.488427 319.614651 
L 321.745868 311.932309 
L 321.914536 299.419799 
L 322.038818 269.316046 
L 322.145345 164.558658 
L 322.234118 92.358129 
L 322.296259 103.842753 
L 322.908791 331.221455 
L 323.095214 367.656479 
L 323.157355 368.051658 
L 323.210618 367.881132 
L 323.459182 365.983012 
L 323.974064 360.330429 
L 324.790773 348.409374 
L 326.095732 330.022781 
L 326.779282 319.781761 
L 327.036723 312.288601 
L 327.205391 300.387514 
L 327.329673 272.806443 
L 327.427323 189.795667 
L 327.53385 92.34683 
L 327.595991 104.097097 
L 328.2174 335.481715 
L 328.403823 367.800204 
L 328.457086 368.051132 
L 328.51035 367.876928 
L 328.758914 365.975392 
L 329.273795 360.319919 
L 329.318182 359.74423 
L 329.335936 360.64652 
L 329.531236 364.647706 
L 329.620009 364.8361 
L 329.664395 364.778557 
L 329.815309 364.170023 
L 330.214786 361.345177 
L 332.176664 346.546725 
L 332.869091 343.315664 
L 333.428359 341.655598 
L 333.889977 340.910433 
L 334.262823 340.68289 
L 334.609036 340.719675 
L 335.061777 341.00949 
L 336.553159 342.102539 
L 337.156814 342.199494 
L 338.097805 342.089138 
L 339.580309 341.894176 
L 342.101455 341.930436 
L 345.723382 341.926495 
L 435.845455 341.928597 
L 435.845455 341.928597 
" style="fill:none;stroke:#1f77b4;stroke-linecap:square;stroke-width:1.5;"/>
   </g>
   <g id="line2d_14">
    <path clip-path="url(#pc73ae39b91)" d="M 80.754545 341.997701 
L 81.145145 333.826939 
L 81.899714 319.635919 
L 82.086136 309.873411 
L 82.210418 290.7267 
L 82.308068 230.004975 
L 82.43235 71.66524 
L 82.521123 87.82059 
L 83.133655 300.940288 
L 83.399973 369.27801 
L 83.435482 369.359663 
L 83.488745 369.21208 
L 83.772818 367.488581 
L 84.323209 362.794923 
L 86.684564 340.607458 
L 87.323727 337.397067 
L 87.847486 335.755347 
L 88.264718 335.067657 
L 88.593177 334.900935 
L 88.903882 334.993681 
L 89.374377 335.410612 
L 90.253227 336.175207 
L 90.768109 336.316202 
L 91.41615 336.23952 
L 93.085077 335.962644 
L 95.526327 336.05079 
L 147.325214 336.035657 
L 151.772727 336.035657 
L 152.314241 291.768714 
L 152.411891 237.879273 
L 152.54505 73.465924 
L 152.6427 93.1374 
L 153.52155 366.856932 
L 153.610323 366.389758 
L 153.992045 362.44794 
L 154.657841 353.143117 
L 156.06045 333.331921 
L 157.214495 318.262438 
L 157.454182 310.953261 
L 157.613973 298.281815 
L 157.729377 267.854969 
L 157.835905 153.36354 
L 157.9158 92.080049 
L 157.977941 102.509976 
L 158.537209 298.963359 
L 158.803527 366.385651 
L 158.830159 366.476333 
L 158.883423 366.269612 
L 159.140864 363.812844 
L 159.735641 356.007351 
L 161.546605 330.837659 
L 162.469841 319.052844 
L 162.727282 312.26621 
L 162.89595 301.288967 
L 163.020232 275.459422 
L 163.117882 194.876227 
L 163.224409 92.838332 
L 163.28655 103.175093 
L 163.845818 299.968769 
L 164.112136 366.371709 
L 164.138768 366.446848 
L 164.192032 366.227078 
L 164.45835 363.65716 
L 165.062005 355.66746 
L 166.80195 331.394144 
L 167.787327 318.829418 
L 168.035891 312.167669 
L 168.204559 301.049483 
L 168.328841 274.638898 
L 168.426491 191.933207 
L 168.533018 92.849536 
L 168.595159 103.811785 
L 169.172182 308.402405 
L 169.411868 366.31505 
L 169.447377 366.443292 
L 169.500641 366.21031 
L 169.775836 363.530781 
L 170.379491 355.499154 
L 172.092805 331.570997 
L 173.095936 318.786355 
L 173.3445 312.077706 
L 173.513168 300.804326 
L 173.63745 273.748771 
L 173.7351 188.703318 
L 173.841627 92.853151 
L 173.894891 101.935701 
L 174.383141 272.00258 
L 174.747109 366.444659 
L 174.764864 366.422566 
L 174.871391 365.692283 
L 175.324132 360.589683 
L 176.167473 348.119316 
L 177.223868 333.625795 
L 178.457809 317.671254 
L 178.688618 310.408157 
L 178.848409 297.15505 
L 178.963814 264.334362 
L 179.070341 144.465523 
L 179.150236 92.897187 
L 179.2035 102.547461 
L 179.727259 285.303943 
L 180.055718 366.445144 
L 180.100105 366.294194 
L 180.322036 364.259858 
L 180.890182 357.001662 
L 182.9142 329.192345 
L 183.686523 319.198528 
L 183.943964 312.602121 
L 184.112632 302.220048 
L 184.236914 278.770166 
L 184.334564 207.417136 
L 184.449968 92.906876 
L 184.512109 103.169691 
L 185.0625 296.368066 
L 185.337695 366.36909 
L 185.364327 366.444544 
L 185.417591 366.225028 
L 185.683909 363.654859 
L 186.287564 355.664403 
L 188.027509 331.392173 
L 189.012886 318.828724 
L 189.26145 312.168126 
L 189.430118 301.053142 
L 189.5544 274.655637 
L 189.65205 192.00102 
L 189.758577 92.854559 
L 189.820718 103.802876 
L 190.397741 308.389305 
L 190.637427 366.314565 
L 190.672936 366.443146 
L 190.7262 366.210354 
L 191.001395 363.530936 
L 191.60505 355.499361 
L 193.318364 331.571186 
L 194.321495 318.786857 
L 194.570059 312.078922 
L 194.738727 300.807855 
L 194.863009 273.76193 
L 194.960659 188.751086 
L 195.067186 92.853158 
L 195.12045 101.927198 
L 195.6087 271.992054 
L 195.972668 366.444634 
L 195.990423 366.42264 
L 196.09695 365.69255 
L 196.549691 360.590072 
L 197.393032 348.119773 
L 198.449427 333.626152 
L 199.683368 317.671914 
L 199.914177 310.409662 
L 200.073968 297.159521 
L 200.189373 264.351283 
L 200.2959 144.511483 
L 200.375795 92.89627 
L 200.429059 102.538782 
L 200.952818 285.292499 
L 201.281277 366.445144 
L 201.325664 366.294375 
L 201.547595 364.260188 
L 202.115741 357.002111 
L 204.139759 329.192696 
L 204.912082 319.199092 
L 205.169523 312.603306 
L 205.338191 302.22317 
L 205.462473 278.780857 
L 205.560123 207.457913 
L 205.675527 92.90795 
L 205.737668 103.160897 
L 206.288059 296.355699 
L 206.572132 366.416452 
L 206.589886 366.444556 
L 206.634273 366.281242 
L 206.865082 364.141329 
L 207.442105 356.711555 
L 209.395105 329.771794 
L 210.220691 319.158863 
L 210.478132 312.51831 
L 210.6468 301.998107 
L 210.771082 278.006351 
L 210.868732 204.509667 
L 210.984136 92.85492 
L 211.046277 103.793952 
L 211.6233 308.375909 
L 211.862986 366.314266 
L 211.898495 366.443173 
L 211.951759 366.210562 
L 212.226955 363.531283 
L 212.830609 355.499822 
L 214.543923 331.571542 
L 215.547055 318.787444 
L 215.795618 312.080172 
L 215.964286 300.811298 
L 216.088568 273.77451 
L 216.186218 188.796282 
L 216.292745 92.852856 
L 216.346009 101.918843 
L 216.834259 271.981699 
L 217.198227 366.444621 
L 217.215982 366.422725 
L 217.322509 365.692823 
L 217.77525 360.590469 
L 218.618591 348.120241 
L 219.674986 333.626516 
L 220.908927 317.672567 
L 221.139736 310.411141 
L 221.299527 297.163898 
L 221.414932 264.367826 
L 221.521459 144.556576 
L 221.601355 92.895357 
L 221.654618 102.530245 
L 222.178377 285.281233 
L 222.506836 366.445145 
L 222.551223 366.294554 
L 222.773155 364.260515 
L 223.3413 357.002555 
L 225.365318 329.193042 
L 226.137641 319.199648 
L 226.395082 312.604474 
L 226.56375 302.226244 
L 226.688032 278.791378 
L 226.785682 207.498039 
L 226.901086 92.909022 
L 226.963227 103.152242 
L 227.513618 296.343521 
L 227.797691 366.416329 
L 227.815445 366.444567 
L 227.859832 366.281424 
L 228.090641 364.141656 
L 228.667664 356.711999 
L 230.620664 329.772139 
L 231.44625 319.159417 
L 231.703691 312.519483 
L 231.872359 302.001226 
L 231.996641 278.017156 
L 232.094291 204.550778 
L 232.209695 92.855287 
L 232.271836 103.785156 
L 232.848859 308.362703 
L 233.088545 366.313972 
L 233.124055 366.443198 
L 233.177318 366.210767 
L 233.452514 363.531626 
L 234.056168 355.500277 
L 235.769482 331.571894 
L 236.772614 318.788022 
L 237.021177 312.081405 
L 237.189845 300.814693 
L 237.314127 273.786916 
L 237.411777 188.840852 
L 237.518305 92.852567 
L 237.571568 101.910607 
L 238.050941 268.981801 
L 238.423786 366.444608 
L 238.450418 366.393251 
L 238.592455 365.278824 
L 239.098459 359.287334 
L 242.249891 314.774462 
L 242.445191 305.547291 
L 242.57835 287.189239 
L 242.676 239.376606 
L 242.826914 92.894469 
L 242.915686 113.617702 
L 243.732395 366.445146 
L 243.759027 366.384333 
L 243.909941 365.170955 
L 244.424823 359.013502 
L 247.576255 314.157366 
L 247.762677 304.662228 
L 247.895836 284.299748 
L 247.993486 228.556541 
L 248.126645 92.9101 
L 248.206541 108.501621 
L 249.041005 366.444578 
L 249.103145 366.164792 
L 249.404973 363.153592 
L 250.035259 354.601249 
L 251.606536 332.526413 
L 252.716195 318.314059 
L 252.955882 311.431011 
L 253.115673 300.05282 
L 253.231077 274.69205 
L 253.328727 192.134687 
L 253.435255 92.855658 
L 253.497395 103.776489 
L 254.074418 308.349688 
L 254.314105 366.313681 
L 254.349614 366.443224 
L 254.402877 366.210969 
L 254.678073 363.531963 
L 255.281727 355.500725 
L 256.995041 331.572241 
L 257.998173 318.788593 
L 258.246736 312.082621 
L 258.415405 300.81804 
L 258.539686 273.799145 
L 258.637336 188.884794 
L 258.743864 92.852289 
L 258.797127 101.902492 
L 259.2765 268.971896 
L 259.649345 366.444595 
L 259.675977 366.393368 
L 259.818014 365.27911 
L 260.324018 359.287738 
L 263.47545 314.775345 
L 263.67075 305.549572 
L 263.803909 287.196521 
L 263.901559 239.403411 
L 264.052473 92.893616 
L 264.141245 113.607618 
L 264.957955 366.445146 
L 264.984586 366.384456 
L 265.1355 365.171246 
L 265.650382 359.01391 
L 268.801814 314.158317 
L 268.988236 304.664689 
L 269.121395 284.307982 
L 269.219045 228.587793 
L 269.352205 92.911141 
L 269.4321 108.492165 
L 270.266564 366.44459 
L 270.328705 366.165003 
L 270.630532 363.153935 
L 271.260818 354.6017 
L 272.832095 332.526763 
L 273.950632 318.136177 
L 274.190318 311.038363 
L 274.350109 298.969513 
L 274.465514 270.955806 
L 274.563164 178.862431 
L 274.660814 92.856031 
L 274.714077 101.295854 
L 275.131309 248.060319 
L 275.575173 366.443248 
L 275.610682 366.320097 
L 275.814859 364.495936 
L 276.374127 357.4522 
L 278.522427 328.139616 
L 279.1971 319.281371 
L 279.463418 312.43602 
L 279.632086 301.778821 
L 279.756368 277.24318 
L 279.854018 201.623045 
L 279.969423 92.852027 
L 280.031564 104.411963 
L 280.626341 317.168822 
L 280.839395 366.239006 
L 280.874905 366.444583 
L 280.937045 366.19612 
L 281.221118 363.407261 
L 281.83365 355.202717 
L 283.4937 331.957765 
L 284.541218 318.576536 
L 284.789782 311.623717 
L 284.95845 299.524515 
L 285.073855 272.890666 
L 285.171505 185.626941 
L 285.278032 92.892773 
L 285.331295 102.50533 
L 285.855055 285.248319 
L 286.183514 366.445145 
L 286.2279 366.295075 
L 286.449832 364.261468 
L 287.017977 357.003851 
L 289.041995 329.194053 
L 289.814318 319.201271 
L 290.071759 312.607886 
L 290.240427 302.235225 
L 290.364709 278.822118 
L 290.462359 207.615336 
L 290.577764 92.912178 
L 290.639905 103.12686 
L 291.190295 296.307779 
L 291.474368 366.41597 
L 291.492123 366.444602 
L 291.536509 366.281959 
L 291.767318 364.14262 
L 292.344341 356.713306 
L 294.297341 329.773155 
L 295.122927 319.161046 
L 295.380368 312.522928 
L 295.549036 302.010385 
L 295.673318 278.048876 
L 295.770968 204.671466 
L 295.886373 92.85641 
L 295.948514 103.759355 
L 296.525536 308.32399 
L 296.765223 366.313106 
L 296.800732 366.443273 
L 296.853995 366.211367 
L 297.129191 363.532629 
L 297.732845 355.501609 
L 299.446159 331.572925 
L 300.449291 318.789718 
L 300.697855 312.085019 
L 300.866523 300.824641 
L 300.990805 273.823265 
L 301.088455 188.971945 
L 301.194982 92.851775 
L 301.248245 101.886372 
L 301.727618 268.952192 
L 302.100464 366.444571 
L 302.127095 366.393599 
L 302.269132 365.279679 
L 302.775136 359.288542 
L 305.926568 314.777103 
L 306.121868 305.554109 
L 306.255027 287.211005 
L 306.352677 239.456724 
L 306.503591 92.891939 
L 306.592364 113.587569 
L 307.409073 366.445144 
L 307.435705 366.384701 
L 307.586618 365.171824 
L 308.1015 359.014724 
L 311.252932 314.160209 
L 311.439355 304.669581 
L 311.572514 284.324347 
L 311.670164 228.649922 
L 311.803323 92.913243 
L 311.883218 108.473343 
L 312.717682 366.444614 
L 312.779823 366.165424 
L 313.08165 363.154618 
L 313.711936 354.602597 
L 315.283214 332.527458 
L 316.40175 318.137378 
L 316.641436 311.041047 
L 316.801227 298.977048 
L 316.916632 270.982382 
L 317.014282 178.953761 
L 317.111932 92.856815 
L 317.165195 101.279994 
L 317.582427 248.041372 
L 318.026291 366.443297 
L 318.0618 366.320419 
L 318.265977 364.496556 
L 318.825245 357.453051 
L 320.973545 328.140288 
L 321.648218 319.282439 
L 321.914536 312.438324 
L 322.083205 301.784968 
L 322.207486 277.264637 
L 322.305136 201.703892 
L 322.420541 92.85153 
L 322.482682 104.394665 
L 323.077459 317.142326 
L 323.290514 366.238262 
L 323.326023 366.444558 
L 323.388164 366.196524 
L 323.672236 363.407928 
L 324.284768 355.2036 
L 325.944818 331.958449 
L 326.992336 318.57768 
L 327.2409 311.626226 
L 327.409568 299.531743 
L 327.524973 272.915657 
L 327.622623 185.715612 
L 327.72915 92.89111 
L 327.782414 102.488879 
L 328.306173 285.226574 
L 328.634632 366.445143 
L 328.679018 366.295418 
L 328.90095 364.262097 
L 329.318182 359.137154 
L 329.344814 360.319508 
L 329.48685 362.182432 
L 329.504605 362.162833 
L 329.602255 361.683513 
L 329.939591 358.443294 
L 331.377709 344.18315 
L 332.087891 339.518591 
L 332.700423 336.836094 
L 333.19755 335.541124 
L 333.58815 335.054736 
L 333.907732 334.978073 
L 334.253945 335.142881 
L 335.035145 335.866589 
L 335.629923 336.231359 
L 336.171436 336.301828 
L 337.014777 336.144627 
L 338.222086 335.972673 
L 339.953155 336.039036 
L 343.024691 336.031768 
L 435.845455 336.035657 
L 435.845455 336.035657 
" style="fill:none;stroke:#ff0000;stroke-linecap:square;stroke-width:1.5;"/>
   </g>
   <g id="patch_3">
    <path d="M 63 384.48 
L 63 51.84 
" style="fill:none;stroke:#000000;stroke-linecap:square;stroke-linejoin:miter;stroke-width:0.8;"/>
   </g>
   <g id="patch_4">
    <path d="M 453.6 384.48 
L 453.6 51.84 
" style="fill:none;stroke:#000000;stroke-linecap:square;stroke-linejoin:miter;stroke-width:0.8;"/>
   </g>
   <g id="patch_5">
    <path d="M 63 384.48 
L 453.6 384.48 
" style="fill:none;stroke:#000000;stroke-linecap:square;stroke-linejoin:miter;stroke-width:0.8;"/>
   </g>
   <g id="patch_6">
    <path d="M 63 51.84 
L 453.6 51.84 
" style="fill:none;stroke:#000000;stroke-linecap:square;stroke-linejoin:miter;stroke-width:0.8;"/>
   </g>
   <g id="legend_1">
    <g id="patch_7">
     <path d="M 383.460938 89.19625 
L 446.6 89.19625 
Q 448.6 89.19625 448.6 87.19625 
L 448.6 58.84 
Q 448.6 56.84 446.6 56.84 
L 383.460938 56.84 
Q 381.460938 56.84 381.460938 58.84 
L 381.460938 87.19625 
Q 381.460938 89.19625 383.460938 89.19625 
z
" style="fill:#ffffff;opacity:0.8;stroke:#cccccc;stroke-linejoin:miter;"/>
    </g>
    <g id="line2d_15">
     <path d="M 385.460938 64.938437 
L 405.460938 64.938437 
" style="fill:none;stroke:#1f77b4;stroke-linecap:square;stroke-width:1.5;"/>
    </g>
    <g id="line2d_16"/>
    <g id="text_15">
     <!-- target -->
     <defs>
      <path d="M 41.109375 46.296875 
Q 39.59375 47.171875 37.8125 47.578125 
Q 36.03125 48 33.890625 48 
Q 26.265625 48 22.1875 43.046875 
Q 18.109375 38.09375 18.109375 28.8125 
L 18.109375 0 
L 9.078125 0 
L 9.078125 54.6875 
L 18.109375 54.6875 
L 18.109375 46.1875 
Q 20.953125 51.171875 25.484375 53.578125 
Q 30.03125 56 36.53125 56 
Q 37.453125 56 38.578125 55.875 
Q 39.703125 55.765625 41.0625 55.515625 
z
" id="DejaVuSans-114"/>
     </defs>
     <g transform="translate(413.460938 68.438437)scale(0.1 -0.1)">
      <use xlink:href="#DejaVuSans-116"/>
      <use x="39.208984" xlink:href="#DejaVuSans-97"/>
      <use x="100.488281" xlink:href="#DejaVuSans-114"/>
      <use x="141.585938" xlink:href="#DejaVuSans-103"/>
      <use x="205.0625" xlink:href="#DejaVuSans-101"/>
      <use x="266.585938" xlink:href="#DejaVuSans-116"/>
     </g>
    </g>
    <g id="line2d_17">
     <path d="M 385.460938 79.616562 
L 405.460938 79.616562 
" style="fill:none;stroke:#ff0000;stroke-linecap:square;stroke-width:1.5;"/>
    </g>
    <g id="line2d_18"/>
    <g id="text_16">
     <!-- model -->
     <defs>
      <path d="M 45.40625 46.390625 
L 45.40625 75.984375 
L 54.390625 75.984375 
L 54.390625 0 
L 45.40625 0 
L 45.40625 8.203125 
Q 42.578125 3.328125 38.25 0.953125 
Q 33.9375 -1.421875 27.875 -1.421875 
Q 17.96875 -1.421875 11.734375 6.484375 
Q 5.515625 14.40625 5.515625 27.296875 
Q 5.515625 40.1875 11.734375 48.09375 
Q 17.96875 56 27.875 56 
Q 33.9375 56 38.25 53.625 
Q 42.578125 51.265625 45.40625 46.390625 
z
M 14.796875 27.296875 
Q 14.796875 17.390625 18.875 11.75 
Q 22.953125 6.109375 30.078125 6.109375 
Q 37.203125 6.109375 41.296875 11.75 
Q 45.40625 17.390625 45.40625 27.296875 
Q 45.40625 37.203125 41.296875 42.84375 
Q 37.203125 48.484375 30.078125 48.484375 
Q 22.953125 48.484375 18.875 42.84375 
Q 14.796875 37.203125 14.796875 27.296875 
z
" id="DejaVuSans-100"/>
     </defs>
     <g transform="translate(413.460938 83.116562)scale(0.1 -0.1)">
      <use xlink:href="#DejaVuSans-109"/>
      <use x="97.412109" xlink:href="#DejaVuSans-111"/>
      <use x="158.59375" xlink:href="#DejaVuSans-100"/>
      <use x="222.070312" xlink:href="#DejaVuSans-101"/>
      <use x="283.59375" xlink:href="#DejaVuSans-108"/>
     </g>
    </g>
   </g>
  </g>
 </g>
 <defs>
  <clipPath id="pc73ae39b91">
   <rect height="332.64" width="390.6" x="63" y="51.84"/>
  </clipPath>
 </defs>
</svg>
