<?xml version="1.0" encoding="utf-8" standalone="no"?>
<!DOCTYPE svg PUBLIC "-//W3C//DTD SVG 1.1//EN"
  "http://www.w3.org/Graphics/SVG/1.1/DTD/svg11.dtd">
<!-- Created with matplotlib (https://matplotlib.org/) -->
<svg height="432pt" version="1.1" viewBox="0 0 504 432" width="504pt" xmlns="http://www.w3.org/2000/svg" xmlns:xlink="http://www.w3.org/1999/xlink">
 <defs>
  <style type="text/css">
*{stroke-linecap:butt;stroke-linejoin:round;}
  </style>
 </defs>
 <g id="figure_1">
  <g id="patch_1">
   <path d="M 0 432 
L 504 432 
L 504 0 
L 0 0 
z
" style="fill:#ffffff;"/>
  </g>
  <g id="axes_1">
   <g id="patch_2">
    <path d="M 63 384.48 
L 453.6 384.48 
L 453.6 51.84 
L 63 51.84 
z
" style="fill:#ffffff;"/>
   </g>
   <g id="matplotlib.axis_1">
    <g id="xtick_1">
     <g id="line2d_1">
      <defs>
       <path d="M 0 0 
L 0 3.5 
" id="m2f21f58782" style="stroke:#000000;stroke-width:0.8;"/>
      </defs>
      <g>
       <use style="stroke:#000000;stroke-width:0.8;" x="80.754545" xlink:href="#m2f21f58782" y="384.48"/>
      </g>
     </g>
     <g id="text_1">
      <!-- 0 -->
      <defs>
       <path d="M 31.78125 66.40625 
Q 24.171875 66.40625 20.328125 58.90625 
Q 16.5 51.421875 16.5 36.375 
Q 16.5 21.390625 20.328125 13.890625 
Q 24.171875 6.390625 31.78125 6.390625 
Q 39.453125 6.390625 43.28125 13.890625 
Q 47.125 21.390625 47.125 36.375 
Q 47.125 51.421875 43.28125 58.90625 
Q 39.453125 66.40625 31.78125 66.40625 
z
M 31.78125 74.21875 
Q 44.046875 74.21875 50.515625 64.515625 
Q 56.984375 54.828125 56.984375 36.375 
Q 56.984375 17.96875 50.515625 8.265625 
Q 44.046875 -1.421875 31.78125 -1.421875 
Q 19.53125 -1.421875 13.0625 8.265625 
Q 6.59375 17.96875 6.59375 36.375 
Q 6.59375 54.828125 13.0625 64.515625 
Q 19.53125 74.21875 31.78125 74.21875 
z
" id="DejaVuSans-48"/>
      </defs>
      <g transform="translate(77.573295 399.078438)scale(0.1 -0.1)">
       <use xlink:href="#DejaVuSans-48"/>
      </g>
     </g>
    </g>
    <g id="xtick_2">
     <g id="line2d_2">
      <g>
       <use style="stroke:#000000;stroke-width:0.8;" x="151.772727" xlink:href="#m2f21f58782" y="384.48"/>
      </g>
     </g>
     <g id="text_2">
      <!-- 200 -->
      <defs>
       <path d="M 19.1875 8.296875 
L 53.609375 8.296875 
L 53.609375 0 
L 7.328125 0 
L 7.328125 8.296875 
Q 12.9375 14.109375 22.625 23.890625 
Q 32.328125 33.6875 34.8125 36.53125 
Q 39.546875 41.84375 41.421875 45.53125 
Q 43.3125 49.21875 43.3125 52.78125 
Q 43.3125 58.59375 39.234375 62.25 
Q 35.15625 65.921875 28.609375 65.921875 
Q 23.96875 65.921875 18.8125 64.3125 
Q 13.671875 62.703125 7.8125 59.421875 
L 7.8125 69.390625 
Q 13.765625 71.78125 18.9375 73 
Q 24.125 74.21875 28.421875 74.21875 
Q 39.75 74.21875 46.484375 68.546875 
Q 53.21875 62.890625 53.21875 53.421875 
Q 53.21875 48.921875 51.53125 44.890625 
Q 49.859375 40.875 45.40625 35.40625 
Q 44.1875 33.984375 37.640625 27.21875 
Q 31.109375 20.453125 19.1875 8.296875 
z
" id="DejaVuSans-50"/>
      </defs>
      <g transform="translate(142.228977 399.078438)scale(0.1 -0.1)">
       <use xlink:href="#DejaVuSans-50"/>
       <use x="63.623047" xlink:href="#DejaVuSans-48"/>
       <use x="127.246094" xlink:href="#DejaVuSans-48"/>
      </g>
     </g>
    </g>
    <g id="xtick_3">
     <g id="line2d_3">
      <g>
       <use style="stroke:#000000;stroke-width:0.8;" x="222.790909" xlink:href="#m2f21f58782" y="384.48"/>
      </g>
     </g>
     <g id="text_3">
      <!-- 400 -->
      <defs>
       <path d="M 37.796875 64.3125 
L 12.890625 25.390625 
L 37.796875 25.390625 
z
M 35.203125 72.90625 
L 47.609375 72.90625 
L 47.609375 25.390625 
L 58.015625 25.390625 
L 58.015625 17.1875 
L 47.609375 17.1875 
L 47.609375 0 
L 37.796875 0 
L 37.796875 17.1875 
L 4.890625 17.1875 
L 4.890625 26.703125 
z
" id="DejaVuSans-52"/>
      </defs>
      <g transform="translate(213.247159 399.078438)scale(0.1 -0.1)">
       <use xlink:href="#DejaVuSans-52"/>
       <use x="63.623047" xlink:href="#DejaVuSans-48"/>
       <use x="127.246094" xlink:href="#DejaVuSans-48"/>
      </g>
     </g>
    </g>
    <g id="xtick_4">
     <g id="line2d_4">
      <g>
       <use style="stroke:#000000;stroke-width:0.8;" x="293.809091" xlink:href="#m2f21f58782" y="384.48"/>
      </g>
     </g>
     <g id="text_4">
      <!-- 600 -->
      <defs>
       <path d="M 33.015625 40.375 
Q 26.375 40.375 22.484375 35.828125 
Q 18.609375 31.296875 18.609375 23.390625 
Q 18.609375 15.53125 22.484375 10.953125 
Q 26.375 6.390625 33.015625 6.390625 
Q 39.65625 6.390625 43.53125 10.953125 
Q 47.40625 15.53125 47.40625 23.390625 
Q 47.40625 31.296875 43.53125 35.828125 
Q 39.65625 40.375 33.015625 40.375 
z
M 52.59375 71.296875 
L 52.59375 62.3125 
Q 48.875 64.0625 45.09375 64.984375 
Q 41.3125 65.921875 37.59375 65.921875 
Q 27.828125 65.921875 22.671875 59.328125 
Q 17.53125 52.734375 16.796875 39.40625 
Q 19.671875 43.65625 24.015625 45.921875 
Q 28.375 48.1875 33.59375 48.1875 
Q 44.578125 48.1875 50.953125 41.515625 
Q 57.328125 34.859375 57.328125 23.390625 
Q 57.328125 12.15625 50.6875 5.359375 
Q 44.046875 -1.421875 33.015625 -1.421875 
Q 20.359375 -1.421875 13.671875 8.265625 
Q 6.984375 17.96875 6.984375 36.375 
Q 6.984375 53.65625 15.1875 63.9375 
Q 23.390625 74.21875 37.203125 74.21875 
Q 40.921875 74.21875 44.703125 73.484375 
Q 48.484375 72.75 52.59375 71.296875 
z
" id="DejaVuSans-54"/>
      </defs>
      <g transform="translate(284.265341 399.078438)scale(0.1 -0.1)">
       <use xlink:href="#DejaVuSans-54"/>
       <use x="63.623047" xlink:href="#DejaVuSans-48"/>
       <use x="127.246094" xlink:href="#DejaVuSans-48"/>
      </g>
     </g>
    </g>
    <g id="xtick_5">
     <g id="line2d_5">
      <g>
       <use style="stroke:#000000;stroke-width:0.8;" x="364.827273" xlink:href="#m2f21f58782" y="384.48"/>
      </g>
     </g>
     <g id="text_5">
      <!-- 800 -->
      <defs>
       <path d="M 31.78125 34.625 
Q 24.75 34.625 20.71875 30.859375 
Q 16.703125 27.09375 16.703125 20.515625 
Q 16.703125 13.921875 20.71875 10.15625 
Q 24.75 6.390625 31.78125 6.390625 
Q 38.8125 6.390625 42.859375 10.171875 
Q 46.921875 13.96875 46.921875 20.515625 
Q 46.921875 27.09375 42.890625 30.859375 
Q 38.875 34.625 31.78125 34.625 
z
M 21.921875 38.8125 
Q 15.578125 40.375 12.03125 44.71875 
Q 8.5 49.078125 8.5 55.328125 
Q 8.5 64.0625 14.71875 69.140625 
Q 20.953125 74.21875 31.78125 74.21875 
Q 42.671875 74.21875 48.875 69.140625 
Q 55.078125 64.0625 55.078125 55.328125 
Q 55.078125 49.078125 51.53125 44.71875 
Q 48 40.375 41.703125 38.8125 
Q 48.828125 37.15625 52.796875 32.3125 
Q 56.78125 27.484375 56.78125 20.515625 
Q 56.78125 9.90625 50.3125 4.234375 
Q 43.84375 -1.421875 31.78125 -1.421875 
Q 19.734375 -1.421875 13.25 4.234375 
Q 6.78125 9.90625 6.78125 20.515625 
Q 6.78125 27.484375 10.78125 32.3125 
Q 14.796875 37.15625 21.921875 38.8125 
z
M 18.3125 54.390625 
Q 18.3125 48.734375 21.84375 45.5625 
Q 25.390625 42.390625 31.78125 42.390625 
Q 38.140625 42.390625 41.71875 45.5625 
Q 45.3125 48.734375 45.3125 54.390625 
Q 45.3125 60.0625 41.71875 63.234375 
Q 38.140625 66.40625 31.78125 66.40625 
Q 25.390625 66.40625 21.84375 63.234375 
Q 18.3125 60.0625 18.3125 54.390625 
z
" id="DejaVuSans-56"/>
      </defs>
      <g transform="translate(355.283523 399.078438)scale(0.1 -0.1)">
       <use xlink:href="#DejaVuSans-56"/>
       <use x="63.623047" xlink:href="#DejaVuSans-48"/>
       <use x="127.246094" xlink:href="#DejaVuSans-48"/>
      </g>
     </g>
    </g>
    <g id="text_6">
     <!-- time [ms] -->
     <defs>
      <path d="M 18.3125 70.21875 
L 18.3125 54.6875 
L 36.8125 54.6875 
L 36.8125 47.703125 
L 18.3125 47.703125 
L 18.3125 18.015625 
Q 18.3125 11.328125 20.140625 9.421875 
Q 21.96875 7.515625 27.59375 7.515625 
L 36.8125 7.515625 
L 36.8125 0 
L 27.59375 0 
Q 17.1875 0 13.234375 3.875 
Q 9.28125 7.765625 9.28125 18.015625 
L 9.28125 47.703125 
L 2.6875 47.703125 
L 2.6875 54.6875 
L 9.28125 54.6875 
L 9.28125 70.21875 
z
" id="DejaVuSans-116"/>
      <path d="M 9.421875 54.6875 
L 18.40625 54.6875 
L 18.40625 0 
L 9.421875 0 
z
M 9.421875 75.984375 
L 18.40625 75.984375 
L 18.40625 64.59375 
L 9.421875 64.59375 
z
" id="DejaVuSans-105"/>
      <path d="M 52 44.1875 
Q 55.375 50.25 60.0625 53.125 
Q 64.75 56 71.09375 56 
Q 79.640625 56 84.28125 50.015625 
Q 88.921875 44.046875 88.921875 33.015625 
L 88.921875 0 
L 79.890625 0 
L 79.890625 32.71875 
Q 79.890625 40.578125 77.09375 44.375 
Q 74.3125 48.1875 68.609375 48.1875 
Q 61.625 48.1875 57.5625 43.546875 
Q 53.515625 38.921875 53.515625 30.90625 
L 53.515625 0 
L 44.484375 0 
L 44.484375 32.71875 
Q 44.484375 40.625 41.703125 44.40625 
Q 38.921875 48.1875 33.109375 48.1875 
Q 26.21875 48.1875 22.15625 43.53125 
Q 18.109375 38.875 18.109375 30.90625 
L 18.109375 0 
L 9.078125 0 
L 9.078125 54.6875 
L 18.109375 54.6875 
L 18.109375 46.1875 
Q 21.1875 51.21875 25.484375 53.609375 
Q 29.78125 56 35.6875 56 
Q 41.65625 56 45.828125 52.96875 
Q 50 49.953125 52 44.1875 
z
" id="DejaVuSans-109"/>
      <path d="M 56.203125 29.59375 
L 56.203125 25.203125 
L 14.890625 25.203125 
Q 15.484375 15.921875 20.484375 11.0625 
Q 25.484375 6.203125 34.421875 6.203125 
Q 39.59375 6.203125 44.453125 7.46875 
Q 49.3125 8.734375 54.109375 11.28125 
L 54.109375 2.78125 
Q 49.265625 0.734375 44.1875 -0.34375 
Q 39.109375 -1.421875 33.890625 -1.421875 
Q 20.796875 -1.421875 13.15625 6.1875 
Q 5.515625 13.8125 5.515625 26.8125 
Q 5.515625 40.234375 12.765625 48.109375 
Q 20.015625 56 32.328125 56 
Q 43.359375 56 49.78125 48.890625 
Q 56.203125 41.796875 56.203125 29.59375 
z
M 47.21875 32.234375 
Q 47.125 39.59375 43.09375 43.984375 
Q 39.0625 48.390625 32.421875 48.390625 
Q 24.90625 48.390625 20.390625 44.140625 
Q 15.875 39.890625 15.1875 32.171875 
z
" id="DejaVuSans-101"/>
      <path id="DejaVuSans-32"/>
      <path d="M 8.59375 75.984375 
L 29.296875 75.984375 
L 29.296875 69 
L 17.578125 69 
L 17.578125 -6.203125 
L 29.296875 -6.203125 
L 29.296875 -13.1875 
L 8.59375 -13.1875 
z
" id="DejaVuSans-91"/>
      <path d="M 44.28125 53.078125 
L 44.28125 44.578125 
Q 40.484375 46.53125 36.375 47.5 
Q 32.28125 48.484375 27.875 48.484375 
Q 21.1875 48.484375 17.84375 46.4375 
Q 14.5 44.390625 14.5 40.28125 
Q 14.5 37.15625 16.890625 35.375 
Q 19.28125 33.59375 26.515625 31.984375 
L 29.59375 31.296875 
Q 39.15625 29.25 43.1875 25.515625 
Q 47.21875 21.78125 47.21875 15.09375 
Q 47.21875 7.46875 41.1875 3.015625 
Q 35.15625 -1.421875 24.609375 -1.421875 
Q 20.21875 -1.421875 15.453125 -0.5625 
Q 10.6875 0.296875 5.421875 2 
L 5.421875 11.28125 
Q 10.40625 8.6875 15.234375 7.390625 
Q 20.0625 6.109375 24.8125 6.109375 
Q 31.15625 6.109375 34.5625 8.28125 
Q 37.984375 10.453125 37.984375 14.40625 
Q 37.984375 18.0625 35.515625 20.015625 
Q 33.0625 21.96875 24.703125 23.78125 
L 21.578125 24.515625 
Q 13.234375 26.265625 9.515625 29.90625 
Q 5.8125 33.546875 5.8125 39.890625 
Q 5.8125 47.609375 11.28125 51.796875 
Q 16.75 56 26.8125 56 
Q 31.78125 56 36.171875 55.265625 
Q 40.578125 54.546875 44.28125 53.078125 
z
" id="DejaVuSans-115"/>
      <path d="M 30.421875 75.984375 
L 30.421875 -13.1875 
L 9.71875 -13.1875 
L 9.71875 -6.203125 
L 21.390625 -6.203125 
L 21.390625 69 
L 9.71875 69 
L 9.71875 75.984375 
z
" id="DejaVuSans-93"/>
     </defs>
     <g transform="translate(234.038281 412.756563)scale(0.1 -0.1)">
      <use xlink:href="#DejaVuSans-116"/>
      <use x="39.208984" xlink:href="#DejaVuSans-105"/>
      <use x="66.992188" xlink:href="#DejaVuSans-109"/>
      <use x="164.404297" xlink:href="#DejaVuSans-101"/>
      <use x="225.927734" xlink:href="#DejaVuSans-32"/>
      <use x="257.714844" xlink:href="#DejaVuSans-91"/>
      <use x="296.728516" xlink:href="#DejaVuSans-109"/>
      <use x="394.140625" xlink:href="#DejaVuSans-115"/>
      <use x="446.240234" xlink:href="#DejaVuSans-93"/>
     </g>
    </g>
   </g>
   <g id="matplotlib.axis_2">
    <g id="ytick_1">
     <g id="line2d_6">
      <defs>
       <path d="M 0 0 
L -3.5 0 
" id="m57d0a23439" style="stroke:#000000;stroke-width:0.8;"/>
      </defs>
      <g>
       <use style="stroke:#000000;stroke-width:0.8;" x="63" xlink:href="#m57d0a23439" y="380.311727"/>
      </g>
     </g>
     <g id="text_7">
      <!-- −80 -->
      <defs>
       <path d="M 10.59375 35.5 
L 73.1875 35.5 
L 73.1875 27.203125 
L 10.59375 27.203125 
z
" id="DejaVuSans-8722"/>
      </defs>
      <g transform="translate(34.895313 384.110946)scale(0.1 -0.1)">
       <use xlink:href="#DejaVuSans-8722"/>
       <use x="83.789062" xlink:href="#DejaVuSans-56"/>
       <use x="147.412109" xlink:href="#DejaVuSans-48"/>
      </g>
     </g>
    </g>
    <g id="ytick_2">
     <g id="line2d_7">
      <g>
       <use style="stroke:#000000;stroke-width:0.8;" x="63" xlink:href="#m57d0a23439" y="328.668961"/>
      </g>
     </g>
     <g id="text_8">
      <!-- −60 -->
      <g transform="translate(34.895313 332.46818)scale(0.1 -0.1)">
       <use xlink:href="#DejaVuSans-8722"/>
       <use x="83.789062" xlink:href="#DejaVuSans-54"/>
       <use x="147.412109" xlink:href="#DejaVuSans-48"/>
      </g>
     </g>
    </g>
    <g id="ytick_3">
     <g id="line2d_8">
      <g>
       <use style="stroke:#000000;stroke-width:0.8;" x="63" xlink:href="#m57d0a23439" y="277.026195"/>
      </g>
     </g>
     <g id="text_9">
      <!-- −40 -->
      <g transform="translate(34.895313 280.825414)scale(0.1 -0.1)">
       <use xlink:href="#DejaVuSans-8722"/>
       <use x="83.789062" xlink:href="#DejaVuSans-52"/>
       <use x="147.412109" xlink:href="#DejaVuSans-48"/>
      </g>
     </g>
    </g>
    <g id="ytick_4">
     <g id="line2d_9">
      <g>
       <use style="stroke:#000000;stroke-width:0.8;" x="63" xlink:href="#m57d0a23439" y="225.383429"/>
      </g>
     </g>
     <g id="text_10">
      <!-- −20 -->
      <g transform="translate(34.895313 229.182648)scale(0.1 -0.1)">
       <use xlink:href="#DejaVuSans-8722"/>
       <use x="83.789062" xlink:href="#DejaVuSans-50"/>
       <use x="147.412109" xlink:href="#DejaVuSans-48"/>
      </g>
     </g>
    </g>
    <g id="ytick_5">
     <g id="line2d_10">
      <g>
       <use style="stroke:#000000;stroke-width:0.8;" x="63" xlink:href="#m57d0a23439" y="173.740663"/>
      </g>
     </g>
     <g id="text_11">
      <!-- 0 -->
      <g transform="translate(49.6375 177.539882)scale(0.1 -0.1)">
       <use xlink:href="#DejaVuSans-48"/>
      </g>
     </g>
    </g>
    <g id="ytick_6">
     <g id="line2d_11">
      <g>
       <use style="stroke:#000000;stroke-width:0.8;" x="63" xlink:href="#m57d0a23439" y="122.097897"/>
      </g>
     </g>
     <g id="text_12">
      <!-- 20 -->
      <g transform="translate(43.275 125.897116)scale(0.1 -0.1)">
       <use xlink:href="#DejaVuSans-50"/>
       <use x="63.623047" xlink:href="#DejaVuSans-48"/>
      </g>
     </g>
    </g>
    <g id="ytick_7">
     <g id="line2d_12">
      <g>
       <use style="stroke:#000000;stroke-width:0.8;" x="63" xlink:href="#m57d0a23439" y="70.455131"/>
      </g>
     </g>
     <g id="text_13">
      <!-- 40 -->
      <g transform="translate(43.275 74.254349)scale(0.1 -0.1)">
       <use xlink:href="#DejaVuSans-52"/>
       <use x="63.623047" xlink:href="#DejaVuSans-48"/>
      </g>
     </g>
    </g>
    <g id="text_14">
     <!-- voltage [mV] -->
     <defs>
      <path d="M 2.984375 54.6875 
L 12.5 54.6875 
L 29.59375 8.796875 
L 46.6875 54.6875 
L 56.203125 54.6875 
L 35.6875 0 
L 23.484375 0 
z
" id="DejaVuSans-118"/>
      <path d="M 30.609375 48.390625 
Q 23.390625 48.390625 19.1875 42.75 
Q 14.984375 37.109375 14.984375 27.296875 
Q 14.984375 17.484375 19.15625 11.84375 
Q 23.34375 6.203125 30.609375 6.203125 
Q 37.796875 6.203125 41.984375 11.859375 
Q 46.1875 17.53125 46.1875 27.296875 
Q 46.1875 37.015625 41.984375 42.703125 
Q 37.796875 48.390625 30.609375 48.390625 
z
M 30.609375 56 
Q 42.328125 56 49.015625 48.375 
Q 55.71875 40.765625 55.71875 27.296875 
Q 55.71875 13.875 49.015625 6.21875 
Q 42.328125 -1.421875 30.609375 -1.421875 
Q 18.84375 -1.421875 12.171875 6.21875 
Q 5.515625 13.875 5.515625 27.296875 
Q 5.515625 40.765625 12.171875 48.375 
Q 18.84375 56 30.609375 56 
z
" id="DejaVuSans-111"/>
      <path d="M 9.421875 75.984375 
L 18.40625 75.984375 
L 18.40625 0 
L 9.421875 0 
z
" id="DejaVuSans-108"/>
      <path d="M 34.28125 27.484375 
Q 23.390625 27.484375 19.1875 25 
Q 14.984375 22.515625 14.984375 16.5 
Q 14.984375 11.71875 18.140625 8.90625 
Q 21.296875 6.109375 26.703125 6.109375 
Q 34.1875 6.109375 38.703125 11.40625 
Q 43.21875 16.703125 43.21875 25.484375 
L 43.21875 27.484375 
z
M 52.203125 31.203125 
L 52.203125 0 
L 43.21875 0 
L 43.21875 8.296875 
Q 40.140625 3.328125 35.546875 0.953125 
Q 30.953125 -1.421875 24.3125 -1.421875 
Q 15.921875 -1.421875 10.953125 3.296875 
Q 6 8.015625 6 15.921875 
Q 6 25.140625 12.171875 29.828125 
Q 18.359375 34.515625 30.609375 34.515625 
L 43.21875 34.515625 
L 43.21875 35.40625 
Q 43.21875 41.609375 39.140625 45 
Q 35.0625 48.390625 27.6875 48.390625 
Q 23 48.390625 18.546875 47.265625 
Q 14.109375 46.140625 10.015625 43.890625 
L 10.015625 52.203125 
Q 14.9375 54.109375 19.578125 55.046875 
Q 24.21875 56 28.609375 56 
Q 40.484375 56 46.34375 49.84375 
Q 52.203125 43.703125 52.203125 31.203125 
z
" id="DejaVuSans-97"/>
      <path d="M 45.40625 27.984375 
Q 45.40625 37.75 41.375 43.109375 
Q 37.359375 48.484375 30.078125 48.484375 
Q 22.859375 48.484375 18.828125 43.109375 
Q 14.796875 37.75 14.796875 27.984375 
Q 14.796875 18.265625 18.828125 12.890625 
Q 22.859375 7.515625 30.078125 7.515625 
Q 37.359375 7.515625 41.375 12.890625 
Q 45.40625 18.265625 45.40625 27.984375 
z
M 54.390625 6.78125 
Q 54.390625 -7.171875 48.1875 -13.984375 
Q 42 -20.796875 29.203125 -20.796875 
Q 24.46875 -20.796875 20.265625 -20.09375 
Q 16.0625 -19.390625 12.109375 -17.921875 
L 12.109375 -9.1875 
Q 16.0625 -11.328125 19.921875 -12.34375 
Q 23.78125 -13.375 27.78125 -13.375 
Q 36.625 -13.375 41.015625 -8.765625 
Q 45.40625 -4.15625 45.40625 5.171875 
L 45.40625 9.625 
Q 42.625 4.78125 38.28125 2.390625 
Q 33.9375 0 27.875 0 
Q 17.828125 0 11.671875 7.65625 
Q 5.515625 15.328125 5.515625 27.984375 
Q 5.515625 40.671875 11.671875 48.328125 
Q 17.828125 56 27.875 56 
Q 33.9375 56 38.28125 53.609375 
Q 42.625 51.21875 45.40625 46.390625 
L 45.40625 54.6875 
L 54.390625 54.6875 
z
" id="DejaVuSans-103"/>
      <path d="M 28.609375 0 
L 0.78125 72.90625 
L 11.078125 72.90625 
L 34.1875 11.53125 
L 57.328125 72.90625 
L 67.578125 72.90625 
L 39.796875 0 
z
" id="DejaVuSans-86"/>
     </defs>
     <g transform="translate(28.815625 250.624062)rotate(-90)scale(0.1 -0.1)">
      <use xlink:href="#DejaVuSans-118"/>
      <use x="59.179688" xlink:href="#DejaVuSans-111"/>
      <use x="120.361328" xlink:href="#DejaVuSans-108"/>
      <use x="148.144531" xlink:href="#DejaVuSans-116"/>
      <use x="187.353516" xlink:href="#DejaVuSans-97"/>
      <use x="248.632812" xlink:href="#DejaVuSans-103"/>
      <use x="312.109375" xlink:href="#DejaVuSans-101"/>
      <use x="373.632812" xlink:href="#DejaVuSans-32"/>
      <use x="405.419922" xlink:href="#DejaVuSans-91"/>
      <use x="444.433594" xlink:href="#DejaVuSans-109"/>
      <use x="541.845703" xlink:href="#DejaVuSans-86"/>
      <use x="610.253906" xlink:href="#DejaVuSans-93"/>
     </g>
    </g>
   </g>
   <g id="line2d_13">
    <path clip-path="url(#p070db12ce3)" d="M 80.754545 341.579653 
L 81.970732 341.445123 
L 83.79945 341.502705 
L 86.009891 341.520005 
L 90.102314 341.512001 
L 151.772727 341.511742 
L 152.314241 297.714029 
L 152.420768 249.871396 
L 152.562805 71.29226 
L 152.678209 96.098863 
L 153.565936 367.635494 
L 153.610323 367.536598 
L 153.8145 366.180201 
L 154.293873 361.503948 
L 154.959668 352.531276 
L 157.42755 314.273798 
L 157.613973 303.327856 
L 157.738255 281.720264 
L 157.835905 220.183261 
L 157.969064 95.256311 
L 158.031205 108.194373 
L 158.883423 367.217962 
L 158.945564 367.037471 
L 159.203005 365.090538 
L 159.717886 359.510021 
L 160.534595 347.777301 
L 161.8218 329.942472 
L 162.514227 319.744833 
L 162.771668 312.346749 
L 162.940336 300.550766 
L 163.064618 273.040148 
L 163.162268 190.016216 
L 163.268795 96.161609 
L 163.322059 105.519794 
L 163.863573 297.440322 
L 164.147645 367.044184 
L 164.183155 367.186718 
L 164.245295 367.008293 
L 164.493859 365.135726 
L 165.008741 359.574575 
L 165.834327 347.720752 
L 167.112655 330.015805 
L 167.813959 319.709974 
L 168.0714 312.302336 
L 168.240068 300.467621 
L 168.36435 272.797944 
L 168.462 189.28276 
L 168.568527 96.237265 
L 168.621791 105.738243 
L 169.172182 301.327732 
L 169.4385 366.959748 
L 169.482886 367.184653 
L 169.545027 367.002354 
L 169.802468 365.047417 
L 170.31735 359.449341 
L 171.151814 347.436459 
L 172.430141 329.776957 
L 173.113691 319.691899 
L 173.371132 312.266444 
L 173.5398 300.373373 
L 173.664082 272.465364 
L 173.761732 188.150208 
L 173.868259 96.253791 
L 173.921523 105.970377 
L 174.480791 305.332628 
L 174.729355 366.852073 
L 174.782618 367.184653 
L 174.844759 366.998222 
L 175.1022 365.040187 
L 175.617082 359.438754 
L 176.451545 347.423806 
L 177.729873 329.76637 
L 178.413423 319.675373 
L 178.670864 312.231069 
L 178.839532 300.277834 
L 178.963814 272.124006 
L 179.061464 186.984502 
L 179.167991 96.270833 
L 179.221255 106.205094 
L 179.7894 309.439003 
L 180.029086 366.864209 
L 180.08235 367.184911 
L 180.144491 366.993833 
L 180.401932 365.032957 
L 180.916814 359.428426 
L 181.751277 347.41167 
L 183.029605 329.756041 
L 183.713155 319.65859 
L 183.970595 312.195435 
L 184.139264 300.181262 
L 184.263545 271.774642 
L 184.361195 185.798293 
L 184.467723 96.294331 
L 184.520986 106.443425 
L 185.098009 313.635752 
L 185.328818 366.876087 
L 185.382082 367.184911 
L 185.444223 366.989701 
L 185.701664 365.025469 
L 186.216545 359.418097 
L 187.051009 347.399276 
L 188.329336 329.745713 
L 189.012886 319.642064 
L 189.270327 312.159544 
L 189.438995 300.083141 
L 189.563277 271.420115 
L 189.660927 184.60736 
L 189.767455 96.323509 
L 189.820718 106.68408 
L 190.406618 317.90351 
L 190.619673 366.744398 
L 190.681814 367.184653 
L 190.743955 366.985311 
L 191.010273 364.938192 
L 191.525155 359.294671 
L 192.368495 347.118339 
L 193.637945 329.62177 
L 194.312618 319.625022 
L 194.570059 312.123652 
L 194.738727 299.984503 
L 194.863009 271.06223 
L 194.969536 170.269882 
L 195.058309 96.31034 
L 195.12045 106.927318 
L 195.715227 322.216714 
L 195.919405 366.759633 
L 195.981545 367.184653 
L 196.043686 366.980922 
L 196.310005 364.930704 
L 196.833764 359.170728 
L 197.703736 346.569635 
L 198.955432 329.384472 
L 199.61235 319.608238 
L 199.869791 312.087244 
L 200.038459 299.884833 
L 200.162741 270.697116 
L 200.269268 169.027073 
L 200.358041 96.28142 
L 200.420182 107.174687 
L 201.023836 326.538955 
L 201.219136 366.774093 
L 201.281277 367.184136 
L 201.343418 366.976532 
L 201.609736 364.923216 
L 202.133495 359.159883 
L 202.994591 346.690995 
L 204.255164 329.373885 
L 204.912082 319.590938 
L 205.169523 312.050319 
L 205.338191 299.783613 
L 205.462473 270.324513 
L 205.569 167.775923 
L 205.657773 96.259472 
L 205.719914 107.423863 
L 206.332445 330.822981 
L 206.518868 366.788553 
L 206.581009 367.183878 
L 206.634273 367.017846 
L 206.873959 365.232298 
L 207.388841 359.712203 
L 208.187795 348.289856 
L 209.510509 329.929561 
L 210.202936 319.755162 
L 210.460377 312.399682 
L 210.629045 300.731258 
L 210.753327 273.735518 
L 210.850977 192.535196 
L 210.957505 96.244495 
L 211.019645 107.674072 
L 211.641055 335.015599 
L 211.827477 366.931861 
L 211.880741 367.183361 
L 211.934005 367.013715 
L 212.182568 365.146571 
L 212.69745 359.590067 
L 213.514159 347.873873 
L 214.810241 329.918974 
L 215.502668 319.738378 
L 215.760109 312.364307 
L 215.928777 300.636493 
L 216.053059 273.401648 
L 216.150709 191.375299 
L 216.257236 96.238298 
L 216.319377 107.923765 
L 216.949664 339.054321 
L 217.127209 366.94219 
L 217.171595 367.183878 
L 217.233736 367.009584 
L 217.4823 365.139341 
L 217.997182 359.579739 
L 218.822768 347.726949 
L 220.101095 330.021485 
L 220.8024 319.721594 
L 221.059841 312.32919 
L 221.228509 300.541987 
L 221.352791 273.066486 
L 221.450441 190.215971 
L 221.556968 96.238815 
L 221.610232 105.556202 
L 222.151745 297.494805 
L 222.426941 366.952002 
L 222.471327 367.184136 
L 222.533468 367.005452 
L 222.782032 365.132111 
L 223.296914 359.56941 
L 224.1225 347.714297 
L 225.418582 329.784961 
L 226.111009 319.522769 
L 226.36845 311.903395 
L 226.537118 299.376926 
L 226.652523 272.728742 
L 226.750173 189.05202 
L 226.8567 96.244753 
L 226.909964 105.789886 
L 227.460355 301.401839 
L 227.726673 366.961556 
L 227.771059 367.184653 
L 227.8332 367.001321 
L 228.090641 365.045609 
L 228.605523 359.446759 
L 229.439986 347.43336 
L 230.718314 329.774375 
L 231.401864 319.688026 
L 231.659305 312.258181 
L 231.827973 300.351683 
L 231.952255 272.388675 
L 232.049905 187.887863 
L 232.156432 96.257406 
L 232.209695 106.023311 
L 232.768964 305.409834 
L 233.017527 366.854914 
L 233.070791 367.184653 
L 233.132932 366.997189 
L 233.390373 365.038379 
L 233.905255 359.43643 
L 234.739718 347.420966 
L 236.018045 329.764046 
L 236.701595 319.6715 
L 236.959036 312.223064 
L 237.127705 300.256144 
L 237.251986 272.045509 
L 237.349636 186.717044 
L 237.456164 96.275481 
L 237.509427 106.25906 
L 238.077573 309.518532 
L 238.317259 366.866791 
L 238.370523 367.184911 
L 238.432664 366.993058 
L 238.690105 365.031149 
L 239.204986 359.426102 
L 240.03945 347.40883 
L 241.317777 329.753717 
L 242.001327 319.654975 
L 242.258768 312.187431 
L 242.427436 300.159056 
L 242.551718 271.694338 
L 242.649368 185.528073 
L 242.755895 96.300528 
L 242.809159 106.497908 
L 243.386182 313.717089 
L 243.616991 366.878669 
L 243.670255 367.184911 
L 243.732395 366.988668 
L 243.989836 365.023919 
L 244.504718 359.415773 
L 245.348059 347.262164 
L 246.617509 329.743131 
L 247.301059 319.638191 
L 247.5585 312.151539 
L 247.727168 300.060676 
L 247.85145 271.339294 
L 247.9491 184.335977 
L 248.055627 96.331255 
L 248.108891 106.73908 
L 248.694791 317.986655 
L 248.907845 366.748013 
L 248.969986 367.184653 
L 249.032127 366.984537 
L 249.298445 364.936643 
L 249.822205 359.178991 
L 250.692177 346.579447 
L 251.943873 329.392735 
L 252.600791 319.621149 
L 252.858232 312.115389 
L 253.0269 299.96178 
L 253.151182 270.979602 
L 253.257709 169.986931 
L 253.346482 96.30311 
L 253.408623 106.983608 
L 254.0034 322.301408 
L 254.207577 366.762989 
L 254.269718 367.184394 
L 254.331859 366.980147 
L 254.598177 364.929155 
L 255.121936 359.168146 
L 255.983032 346.700808 
L 257.22585 329.60886 
L 257.900523 319.604365 
L 258.157964 312.078981 
L 258.326632 299.861852 
L 258.450914 270.61268 
L 258.557441 168.741566 
L 258.646214 96.275739 
L 258.708355 107.231752 
L 259.312009 326.623649 
L 259.507309 366.777449 
L 259.56945 367.184136 
L 259.631591 366.975499 
L 259.897909 364.921408 
L 260.421668 359.157559 
L 261.291641 346.5544 
L 262.525582 329.598273 
L 263.200255 319.587064 
L 263.457695 312.042056 
L 263.626364 299.760374 
L 263.750645 270.238786 
L 263.857173 167.4899 
L 263.945945 96.25534 
L 264.008086 107.480928 
L 264.620618 330.906384 
L 264.807041 366.791909 
L 264.869182 367.18362 
L 264.922445 367.017072 
L 265.171009 365.152252 
L 265.685891 359.59833 
L 266.511477 347.749156 
L 267.807559 329.81414 
L 268.499986 319.570022 
L 268.757427 312.005132 
L 268.926095 299.658896 
L 269.050377 269.864893 
L 269.156905 166.247556 
L 269.245677 96.24243 
L 269.298941 105.144351 
L 269.8227 290.057989 
L 270.133405 367.097893 
L 270.168914 367.183361 
L 270.222177 367.01294 
L 270.470741 365.145022 
L 270.985623 359.587743 
L 271.802332 347.871033 
L 273.098414 329.91665 
L 273.790841 319.734504 
L 274.048282 312.356302 
L 274.21695 300.615061 
L 274.341232 273.325216 
L 274.438882 191.109958 
L 274.545409 96.23804 
L 274.598673 105.376486 
L 275.131309 293.763616 
L 275.424259 367.036954 
L 275.459768 367.183878 
L 275.521909 367.008809 
L 275.770473 365.137792 
L 276.285355 359.577415 
L 277.110941 347.724109 
L 278.389268 330.019161 
L 279.090573 319.717721 
L 279.348014 312.320927 
L 279.516682 300.520297 
L 279.640964 272.989538 
L 279.738614 189.950527 
L 279.845141 96.239331 
L 279.898405 105.609653 
L 280.439918 297.569429 
L 280.715114 366.954068 
L 280.7595 367.184394 
L 280.821641 367.004678 
L 281.079082 365.05129 
L 281.593964 359.454763 
L 282.428427 347.442914 
L 283.706755 329.782379 
L 284.390305 319.700937 
L 284.647745 312.285552 
L 284.816414 300.425274 
L 284.940695 272.651278 
L 285.038345 188.786473 
L 285.144873 96.247077 
L 285.198136 105.843078 
L 285.748527 301.477496 
L 286.014845 366.963622 
L 286.059232 367.184653 
L 286.121373 367.000288 
L 286.378814 365.04406 
L 286.893695 359.444435 
L 287.728159 347.43052 
L 289.006486 329.772051 
L 289.690036 319.684411 
L 289.947477 312.250177 
L 290.116145 300.329993 
L 290.240427 272.310694 
L 290.338077 187.621438 
L 290.444605 96.261021 
L 290.497868 106.076762 
L 291.057136 305.487815 
L 291.3057 366.857754 
L 291.358964 367.184911 
L 291.421105 366.996156 
L 291.678545 365.03683 
L 292.193427 359.434106 
L 293.027891 347.418126 
L 294.315095 329.648366 
L 294.989768 319.667627 
L 295.247209 312.214801 
L 295.415877 300.234196 
L 295.540159 271.965979 
L 295.637809 186.446772 
L 295.744336 96.280645 
L 295.7976 106.313285 
L 296.365745 309.598579 
L 296.605432 366.869632 
L 296.658695 367.184911 
L 296.720836 366.992025 
L 296.978277 365.0296 
L 297.493159 359.423778 
L 298.327623 347.40599 
L 299.60595 329.751394 
L 300.2895 319.651101 
L 300.546941 312.179168 
L 300.715609 300.136591 
L 300.839891 271.613775 
L 300.937541 185.257465 
L 301.044068 96.306983 
L 301.097332 106.552391 
L 301.674355 313.798427 
L 301.905164 366.881251 
L 301.958427 367.184911 
L 302.020568 366.987894 
L 302.286886 364.942324 
L 302.810645 359.186996 
L 303.671741 346.723014 
L 304.914559 329.627709 
L 305.589232 319.634317 
L 305.846673 312.143276 
L 306.015341 300.03847 
L 306.139623 271.258215 
L 306.24615 170.942787 
L 306.334923 96.328673 
L 306.397064 106.794338 
L 306.982964 318.0698 
L 307.196018 366.75137 
L 307.258159 367.184653 
L 307.3203 366.983504 
L 307.586618 364.934835 
L 308.110377 359.176409 
L 308.971473 346.71062 
L 310.214291 329.617122 
L 310.888964 319.617534 
L 311.146405 312.107126 
L 311.315073 299.939316 
L 311.439355 270.896715 
L 311.545882 169.704987 
L 311.634655 96.296396 
L 311.696795 107.039641 
L 312.291573 322.385586 
L 312.49575 366.766346 
L 312.557891 367.184394 
L 312.620032 366.979114 
L 312.88635 364.927347 
L 313.410109 359.165822 
L 314.280082 346.563954 
L 315.531777 329.379566 
L 316.188695 319.600233 
L 316.446136 312.07046 
L 316.614805 299.838871 
L 316.739086 270.528502 
L 316.845614 168.457143 
L 316.934386 96.270575 
L 316.996527 107.288301 
L 317.600182 326.708085 
L 317.795482 366.780806 
L 317.857623 367.184136 
L 317.910886 367.02017 
L 318.15945 365.157932 
L 318.674332 359.606335 
L 319.491041 347.893239 
L 320.796 329.822144 
L 321.488427 319.583191 
L 321.745868 312.033535 
L 321.914536 299.737134 
L 322.038818 270.153318 
L 322.145345 167.205245 
L 322.234118 96.251725 
L 322.296259 107.537994 
L 322.908791 330.989529 
L 323.095214 366.795266 
L 323.157355 367.18362 
L 323.210618 367.016039 
L 323.459182 365.150702 
L 323.974064 359.595748 
L 324.790773 347.880587 
L 326.095732 329.811557 
L 326.779282 319.747415 
L 327.036723 312.383673 
L 327.205391 300.688136 
L 327.329673 273.58343 
L 327.427323 192.006374 
L 327.53385 96.240622 
L 327.595991 107.787945 
L 328.2174 335.176208 
L 328.403823 366.936509 
L 328.457086 367.183103 
L 328.51035 367.011908 
L 328.758914 365.143214 
L 329.273795 359.58542 
L 329.318182 359.019673 
L 329.335936 359.906379 
L 329.531236 363.83846 
L 329.620009 364.023599 
L 329.664395 363.96705 
L 329.815309 363.369027 
L 330.214786 360.59297 
L 332.176664 346.050109 
L 332.869091 342.874853 
L 333.428359 341.243458 
L 333.889977 340.511164 
L 334.262823 340.287551 
L 334.617914 340.327057 
L 335.106164 340.645177 
L 336.553159 341.68268 
L 337.156814 341.777961 
L 338.106682 341.667704 
L 339.908768 341.46578 
L 342.0837 341.513292 
L 345.776645 341.509677 
L 435.845455 341.511742 
L 435.845455 341.511742 
" style="fill:none;stroke:#1f77b4;stroke-linecap:square;stroke-width:1.5;"/>
   </g>
   <g id="line2d_14">
    <path clip-path="url(#p070db12ce3)" d="M 80.754545 341.579653 
L 81.269427 345.679426 
L 81.686659 347.522533 
L 82.032873 348.190712 
L 82.316945 348.325781 
L 82.609895 348.203429 
L 83.044882 347.732146 
L 84.953495 345.37502 
L 85.55715 345.090272 
L 86.196314 345.040525 
L 87.146182 345.223898 
L 88.7796 345.520454 
L 90.297614 345.521908 
L 94.425545 345.45874 
L 109.978527 345.463353 
L 151.772727 345.463349 
L 152.323118 300.375615 
L 152.429645 255.979006 
L 152.580559 66.96 
L 152.713718 98.718243 
L 153.601445 368.465036 
L 153.672464 368.246332 
L 153.974291 366.277295 
L 154.462541 361.636514 
L 155.119459 352.978886 
L 157.365409 318.552538 
L 157.587341 309.742835 
L 157.738255 293.675963 
L 157.844782 255.02975 
L 158.01345 92.964046 
L 158.128855 124.250048 
L 158.874545 367.64349 
L 158.936686 368.0615 
L 158.998827 367.903741 
L 159.247391 366.287104 
L 159.735641 361.653515 
L 160.392559 353.004526 
L 162.70065 317.710126 
L 162.913705 308.799183 
L 163.064618 291.389543 
L 163.171145 247.456985 
L 163.330936 94.002087 
L 163.428586 119.102844 
L 164.209786 367.883405 
L 164.254173 368.032196 
L 164.316314 367.856438 
L 164.582632 366.081358 
L 165.070882 361.354484 
L 165.745555 352.357048 
L 168.035891 317.010936 
L 168.240068 307.78815 
L 168.382105 290.168976 
L 168.488632 242.843002 
L 168.639545 94.036207 
L 168.737195 118.008693 
L 169.527273 367.925668 
L 169.562782 368.030631 
L 169.624923 367.867871 
L 169.882364 366.172106 
L 170.370614 361.486199 
L 171.036409 352.657748 
L 173.335623 317.354704 
L 173.548677 307.989425 
L 173.690714 290.783993 
L 173.797241 245.218118 
L 173.948155 94.100154 
L 174.045805 116.968812 
L 174.844759 367.961094 
L 174.880268 368.028686 
L 174.933532 367.880299 
L 175.182095 366.26317 
L 175.670345 361.618898 
L 176.327264 352.959824 
L 178.644232 317.437069 
L 178.857286 308.187692 
L 178.999323 291.379812 
L 179.10585 247.492621 
L 179.265641 94.075524 
L 179.363291 119.152068 
L 180.144491 367.882451 
L 180.188877 368.030016 
L 180.251018 367.853649 
L 180.517336 366.077599 
L 181.005586 361.349059 
L 181.680259 352.350075 
L 183.970595 317.00161 
L 184.174773 307.768356 
L 184.316809 290.111595 
L 184.423336 242.626648 
L 184.57425 94.040328 
L 184.6719 118.106747 
L 185.461977 367.927332 
L 185.497486 368.030502 
L 185.559627 367.866529 
L 185.817068 366.169818 
L 186.305318 361.482872 
L 186.971114 352.653446 
L 189.270327 317.346546 
L 189.483382 307.969849 
L 189.625418 290.724841 
L 189.731945 244.991357 
L 189.882859 94.090496 
L 189.980509 117.069972 
L 190.770586 367.907328 
L 190.806095 368.02995 
L 190.868236 367.879085 
L 191.1168 366.260996 
L 191.60505 361.615723 
L 192.261968 352.955703 
L 194.578936 317.428997 
L 194.791991 308.168382 
L 194.934027 291.322304 
L 195.040555 247.274904 
L 195.200345 94.083357 
L 195.297995 119.254966 
L 196.079195 367.884785 
L 196.123582 368.029922 
L 196.185723 367.852372 
L 196.452041 366.075379 
L 196.940291 361.345843 
L 197.614964 352.345931 
L 199.9053 316.99325 
L 200.109477 307.74846 
L 200.251514 290.050765 
L 200.358041 242.391595 
L 200.508955 94.040176 
L 200.606605 118.207888 
L 201.387805 367.859969 
L 201.432191 368.030496 
L 201.494332 367.865292 
L 201.751773 366.167645 
L 202.240023 361.479713 
L 202.905818 352.64936 
L 205.205032 317.338499 
L 205.418086 307.950369 
L 205.560123 290.6657 
L 205.66665 244.763546 
L 205.817564 94.081199 
L 205.915214 117.171378 
L 206.705291 367.909408 
L 206.7408 368.030062 
L 206.802941 367.877874 
L 207.051505 366.25883 
L 207.539755 361.612561 
L 208.196673 352.951599 
L 210.513641 317.420945 
L 210.726695 308.149106 
L 210.868732 291.264803 
L 210.975259 247.05652 
L 211.13505 94.091692 
L 211.2327 119.357784 
L 212.005023 367.80211 
L 212.058286 368.029818 
L 212.120427 367.851095 
L 212.386745 366.073163 
L 212.874995 361.342635 
L 213.549668 352.341797 
L 215.840005 316.984896 
L 216.044182 307.728557 
L 216.186218 289.989677 
L 216.292745 242.155234 
L 216.443659 94.040887 
L 216.532432 115.119383 
L 217.340264 367.978665 
L 217.366895 368.030488 
L 217.420159 367.902031 
L 217.650968 366.438157 
L 218.130341 361.973862 
L 218.769505 353.681308 
L 221.104227 318.309132 
L 221.326159 309.662286 
L 221.477073 294.062335 
L 221.5836 257.350326 
L 221.752268 94.07304 
L 221.87655 127.212584 
L 222.604486 367.421819 
L 222.675505 368.03015 
L 222.737645 367.876656 
L 222.986209 366.256665 
L 223.474459 361.6094 
L 224.131377 352.947497 
L 226.448345 317.412898 
L 226.6614 308.129815 
L 226.803436 291.207047 
L 226.909964 246.836892 
L 227.069755 94.100926 
L 227.167405 119.460818 
L 227.939727 367.805207 
L 227.992991 368.0297 
L 228.055132 367.849808 
L 228.32145 366.070938 
L 228.8097 361.339414 
L 229.484373 352.337647 
L 231.774709 316.976466 
L 231.978886 307.708452 
L 232.120923 289.927795 
L 232.22745 241.915131 
L 232.378364 94.042282 
L 232.467136 115.219058 
L 233.274968 367.979876 
L 233.3016 368.030467 
L 233.354864 367.900877 
L 233.585673 366.436033 
L 234.065045 361.970752 
L 234.704209 353.677231 
L 237.038932 318.301734 
L 237.260864 309.64529 
L 237.411777 294.012083 
L 237.518305 257.171056 
L 237.686973 94.06577 
L 237.811255 127.321027 
L 238.539191 367.428091 
L 238.610209 368.030231 
L 238.67235 367.875423 
L 238.920914 366.254477 
L 239.409164 361.606207 
L 240.066082 352.943354 
L 242.38305 317.404768 
L 242.596105 308.110261 
L 242.738141 291.148456 
L 242.844668 246.614008 
L 243.004459 94.111105 
L 243.102109 119.565155 
L 243.874432 367.80829 
L 243.927695 368.029565 
L 243.989836 367.848502 
L 244.256155 366.068687 
L 244.753282 361.234319 
L 245.436832 352.071401 
L 247.718291 316.698121 
L 247.922468 307.036223 
L 248.064505 287.816259 
L 248.171032 233.563141 
L 248.313068 94.044473 
L 248.392964 112.22234 
L 249.236305 368.03043 
L 249.298445 367.861517 
L 249.555886 366.161037 
L 250.044136 361.470108 
L 250.709932 352.636939 
L 253.009145 317.314037 
L 253.2222 307.891117 
L 253.364236 290.485649 
L 253.470764 244.069736 
L 253.621677 94.059439 
L 253.719327 117.478522 
L 254.509405 367.91549 
L 254.544914 368.030293 
L 254.607055 367.874167 
L 254.855618 366.252258 
L 255.343868 361.602967 
L 256.000786 352.939151 
L 258.317755 317.396507 
L 258.530809 308.090374 
L 258.672845 291.088711 
L 258.779373 246.38569 
L 258.939164 94.12157 
L 259.036814 119.67149 
L 259.809136 367.811416 
L 259.8624 368.029437 
L 259.924541 367.84719 
L 260.190859 366.066421 
L 260.687986 361.231021 
L 261.371536 352.067164 
L 263.652995 316.689239 
L 263.857173 307.014418 
L 263.999209 287.746223 
L 264.105736 233.282209 
L 264.247773 94.047657 
L 264.327668 112.321909 
L 265.162132 368.026638 
L 265.197641 367.990255 
L 265.215395 367.933334 
L 265.419573 366.69494 
L 265.890068 362.448141 
L 266.511477 354.562537 
L 268.863955 319.396545 
L 269.103641 311.118224 
L 269.263432 296.848228 
L 269.378836 262.159821 
L 269.494241 129.182829 
L 269.556382 94.054327 
L 269.618523 105.604343 
L 270.239932 335.858814 
L 270.426355 367.743752 
L 270.479618 368.030343 
L 270.541759 367.872893 
L 270.790323 366.250012 
L 271.278573 361.59969 
L 271.935491 352.9349 
L 274.252459 317.388166 
L 274.465514 308.070297 
L 274.60755 291.02827 
L 274.714077 246.154376 
L 274.873868 94.132856 
L 274.971518 119.778999 
L 275.743841 367.814553 
L 275.797105 368.029296 
L 275.850368 367.885231 
L 276.090055 366.340234 
L 276.569427 361.830799 
L 277.217468 353.365257 
L 279.543314 317.964502 
L 279.765245 308.856441 
L 279.916159 291.615396 
L 280.022686 248.382221 
L 280.182477 94.05164 
L 280.289005 122.008931 
L 281.043573 367.662481 
L 281.105714 368.030311 
L 281.167855 367.858885 
L 281.425295 366.156465 
L 281.913545 361.463464 
L 282.579341 352.628351 
L 284.878555 317.297092 
L 285.091609 307.850038 
L 285.233645 290.360687 
L 285.340173 243.588005 
L 285.491086 94.050091 
L 285.588736 117.68954 
L 286.378814 367.919523 
L 286.414323 368.030379 
L 286.476464 367.871594 
L 286.725027 366.24773 
L 287.213277 361.596361 
L 287.870195 352.930582 
L 290.187164 317.379709 
L 290.400218 308.04994 
L 290.542255 290.966968 
L 290.648782 245.919695 
L 290.799695 94.137035 
L 290.906223 119.887447 
L 291.678545 367.817689 
L 291.731809 368.029144 
L 291.785073 367.883979 
L 292.024759 366.337989 
L 292.504132 361.827526 
L 293.152173 353.360982 
L 295.478018 317.956498 
L 295.69995 308.837351 
L 295.850864 291.555743 
L 295.957391 248.157209 
L 296.117182 94.056514 
L 296.214832 118.836245 
L 296.996032 367.875134 
L 297.040418 368.030247 
L 297.102559 367.857557 
L 297.36 366.154161 
L 297.84825 361.460116 
L 298.514045 352.624023 
L 300.813259 317.288551 
L 301.026314 307.829321 
L 301.16835 290.297623 
L 301.274877 243.344753 
L 301.425791 94.046455 
L 301.523441 117.795686 
L 302.313518 367.921535 
L 302.349027 368.030418 
L 302.411168 367.870303 
L 302.668609 366.176497 
L 303.156859 361.492586 
L 303.822655 352.666012 
L 306.121868 317.371263 
L 306.334923 308.02959 
L 306.476959 290.905647 
L 306.583486 245.684831 
L 306.7344 94.12366 
L 306.840927 119.995012 
L 307.61325 367.820788 
L 307.666514 368.028995 
L 307.719777 367.882745 
L 307.968341 366.267591 
L 308.456591 361.625354 
L 309.113509 352.968204 
L 311.430477 317.453486 
L 311.643532 308.226968 
L 311.785568 291.496738 
L 311.892095 247.934427 
L 312.051886 94.062108 
L 312.149536 118.942393 
L 312.930736 367.877615 
L 312.975123 368.030177 
L 313.037264 367.856246 
L 313.303582 366.082128 
L 313.791832 361.355618 
L 314.466505 352.35853 
L 316.756841 317.018692 
L 316.961018 307.808867 
L 317.103055 290.235294 
L 317.209582 243.104354 
L 317.360495 94.043676 
L 317.458145 117.900093 
L 318.248223 367.923496 
L 318.283732 368.030454 
L 318.345873 367.869039 
L 318.603314 366.174256 
L 319.091564 361.489326 
L 319.757359 352.661795 
L 322.056573 317.362983 
L 322.269627 308.009615 
L 322.411664 290.845389 
L 322.518191 245.453938 
L 322.669105 94.111644 
L 322.775632 120.100532 
L 323.547955 367.823806 
L 323.601218 368.028842 
L 323.654482 367.881529 
L 323.903045 366.265394 
L 324.391295 361.622146 
L 325.048214 352.964039 
L 327.365182 317.445349 
L 327.578236 308.207513 
L 327.720273 291.43884 
L 327.8268 247.715747 
L 327.986591 94.068407 
L 328.084241 119.046549 
L 328.865441 367.880026 
L 328.909827 368.030098 
L 328.971968 367.854954 
L 329.238286 366.079874 
L 329.318182 365.425619 
L 329.327059 365.904998 
L 329.504605 369.252932 
L 329.5845 369.358055 
L 329.628886 369.315078 
L 329.806432 368.836874 
L 330.259173 366.840859 
L 330.995986 362.494283 
L 333.073268 349.730221 
L 333.810082 346.73367 
L 334.413736 345.120541 
L 334.901986 344.380771 
L 335.310341 344.126859 
L 335.700941 344.138777 
L 336.198068 344.40191 
L 338.097805 345.61904 
L 338.86125 345.717199 
L 340.006418 345.605876 
L 342.065945 345.422046 
L 346.08735 345.471157 
L 404.295627 345.463349 
L 435.845455 345.463349 
L 435.845455 345.463349 
" style="fill:none;stroke:#ff0000;stroke-linecap:square;stroke-width:1.5;"/>
   </g>
   <g id="patch_3">
    <path d="M 63 384.48 
L 63 51.84 
" style="fill:none;stroke:#000000;stroke-linecap:square;stroke-linejoin:miter;stroke-width:0.8;"/>
   </g>
   <g id="patch_4">
    <path d="M 453.6 384.48 
L 453.6 51.84 
" style="fill:none;stroke:#000000;stroke-linecap:square;stroke-linejoin:miter;stroke-width:0.8;"/>
   </g>
   <g id="patch_5">
    <path d="M 63 384.48 
L 453.6 384.48 
" style="fill:none;stroke:#000000;stroke-linecap:square;stroke-linejoin:miter;stroke-width:0.8;"/>
   </g>
   <g id="patch_6">
    <path d="M 63 51.84 
L 453.6 51.84 
" style="fill:none;stroke:#000000;stroke-linecap:square;stroke-linejoin:miter;stroke-width:0.8;"/>
   </g>
   <g id="legend_1">
    <g id="patch_7">
     <path d="M 383.460938 89.19625 
L 446.6 89.19625 
Q 448.6 89.19625 448.6 87.19625 
L 448.6 58.84 
Q 448.6 56.84 446.6 56.84 
L 383.460938 56.84 
Q 381.460938 56.84 381.460938 58.84 
L 381.460938 87.19625 
Q 381.460938 89.19625 383.460938 89.19625 
z
" style="fill:#ffffff;opacity:0.8;stroke:#cccccc;stroke-linejoin:miter;"/>
    </g>
    <g id="line2d_15">
     <path d="M 385.460938 64.938437 
L 405.460938 64.938437 
" style="fill:none;stroke:#1f77b4;stroke-linecap:square;stroke-width:1.5;"/>
    </g>
    <g id="line2d_16"/>
    <g id="text_15">
     <!-- target -->
     <defs>
      <path d="M 41.109375 46.296875 
Q 39.59375 47.171875 37.8125 47.578125 
Q 36.03125 48 33.890625 48 
Q 26.265625 48 22.1875 43.046875 
Q 18.109375 38.09375 18.109375 28.8125 
L 18.109375 0 
L 9.078125 0 
L 9.078125 54.6875 
L 18.109375 54.6875 
L 18.109375 46.1875 
Q 20.953125 51.171875 25.484375 53.578125 
Q 30.03125 56 36.53125 56 
Q 37.453125 56 38.578125 55.875 
Q 39.703125 55.765625 41.0625 55.515625 
z
" id="DejaVuSans-114"/>
     </defs>
     <g transform="translate(413.460938 68.438437)scale(0.1 -0.1)">
      <use xlink:href="#DejaVuSans-116"/>
      <use x="39.208984" xlink:href="#DejaVuSans-97"/>
      <use x="100.488281" xlink:href="#DejaVuSans-114"/>
      <use x="141.585938" xlink:href="#DejaVuSans-103"/>
      <use x="205.0625" xlink:href="#DejaVuSans-101"/>
      <use x="266.585938" xlink:href="#DejaVuSans-116"/>
     </g>
    </g>
    <g id="line2d_17">
     <path d="M 385.460938 79.616562 
L 405.460938 79.616562 
" style="fill:none;stroke:#ff0000;stroke-linecap:square;stroke-width:1.5;"/>
    </g>
    <g id="line2d_18"/>
    <g id="text_16">
     <!-- model -->
     <defs>
      <path d="M 45.40625 46.390625 
L 45.40625 75.984375 
L 54.390625 75.984375 
L 54.390625 0 
L 45.40625 0 
L 45.40625 8.203125 
Q 42.578125 3.328125 38.25 0.953125 
Q 33.9375 -1.421875 27.875 -1.421875 
Q 17.96875 -1.421875 11.734375 6.484375 
Q 5.515625 14.40625 5.515625 27.296875 
Q 5.515625 40.1875 11.734375 48.09375 
Q 17.96875 56 27.875 56 
Q 33.9375 56 38.25 53.625 
Q 42.578125 51.265625 45.40625 46.390625 
z
M 14.796875 27.296875 
Q 14.796875 17.390625 18.875 11.75 
Q 22.953125 6.109375 30.078125 6.109375 
Q 37.203125 6.109375 41.296875 11.75 
Q 45.40625 17.390625 45.40625 27.296875 
Q 45.40625 37.203125 41.296875 42.84375 
Q 37.203125 48.484375 30.078125 48.484375 
Q 22.953125 48.484375 18.875 42.84375 
Q 14.796875 37.203125 14.796875 27.296875 
z
" id="DejaVuSans-100"/>
     </defs>
     <g transform="translate(413.460938 83.116562)scale(0.1 -0.1)">
      <use xlink:href="#DejaVuSans-109"/>
      <use x="97.412109" xlink:href="#DejaVuSans-111"/>
      <use x="158.59375" xlink:href="#DejaVuSans-100"/>
      <use x="222.070312" xlink:href="#DejaVuSans-101"/>
      <use x="283.59375" xlink:href="#DejaVuSans-108"/>
     </g>
    </g>
   </g>
  </g>
 </g>
 <defs>
  <clipPath id="p070db12ce3">
   <rect height="332.64" width="390.6" x="63" y="51.84"/>
  </clipPath>
 </defs>
</svg>
