<?xml version="1.0" encoding="utf-8" standalone="no"?>
<!DOCTYPE svg PUBLIC "-//W3C//DTD SVG 1.1//EN"
  "http://www.w3.org/Graphics/SVG/1.1/DTD/svg11.dtd">
<!-- Created with matplotlib (https://matplotlib.org/) -->
<svg height="432pt" version="1.1" viewBox="0 0 504 432" width="504pt" xmlns="http://www.w3.org/2000/svg" xmlns:xlink="http://www.w3.org/1999/xlink">
 <defs>
  <style type="text/css">
*{stroke-linecap:butt;stroke-linejoin:round;}
  </style>
 </defs>
 <g id="figure_1">
  <g id="patch_1">
   <path d="M 0 432 
L 504 432 
L 504 0 
L 0 0 
z
" style="fill:#ffffff;"/>
  </g>
  <g id="axes_1">
   <g id="patch_2">
    <path d="M 63 384.48 
L 453.6 384.48 
L 453.6 51.84 
L 63 51.84 
z
" style="fill:#ffffff;"/>
   </g>
   <g id="matplotlib.axis_1">
    <g id="xtick_1">
     <g id="line2d_1">
      <defs>
       <path d="M 0 0 
L 0 3.5 
" id="mb049af407b" style="stroke:#000000;stroke-width:0.8;"/>
      </defs>
      <g>
       <use style="stroke:#000000;stroke-width:0.8;" x="80.754545" xlink:href="#mb049af407b" y="384.48"/>
      </g>
     </g>
     <g id="text_1">
      <!-- 0 -->
      <defs>
       <path d="M 31.78125 66.40625 
Q 24.171875 66.40625 20.328125 58.90625 
Q 16.5 51.421875 16.5 36.375 
Q 16.5 21.390625 20.328125 13.890625 
Q 24.171875 6.390625 31.78125 6.390625 
Q 39.453125 6.390625 43.28125 13.890625 
Q 47.125 21.390625 47.125 36.375 
Q 47.125 51.421875 43.28125 58.90625 
Q 39.453125 66.40625 31.78125 66.40625 
z
M 31.78125 74.21875 
Q 44.046875 74.21875 50.515625 64.515625 
Q 56.984375 54.828125 56.984375 36.375 
Q 56.984375 17.96875 50.515625 8.265625 
Q 44.046875 -1.421875 31.78125 -1.421875 
Q 19.53125 -1.421875 13.0625 8.265625 
Q 6.59375 17.96875 6.59375 36.375 
Q 6.59375 54.828125 13.0625 64.515625 
Q 19.53125 74.21875 31.78125 74.21875 
z
" id="DejaVuSans-48"/>
      </defs>
      <g transform="translate(77.573295 399.078438)scale(0.1 -0.1)">
       <use xlink:href="#DejaVuSans-48"/>
      </g>
     </g>
    </g>
    <g id="xtick_2">
     <g id="line2d_2">
      <g>
       <use style="stroke:#000000;stroke-width:0.8;" x="151.763044" xlink:href="#mb049af407b" y="384.48"/>
      </g>
     </g>
     <g id="text_2">
      <!-- 880 -->
      <defs>
       <path d="M 31.78125 34.625 
Q 24.75 34.625 20.71875 30.859375 
Q 16.703125 27.09375 16.703125 20.515625 
Q 16.703125 13.921875 20.71875 10.15625 
Q 24.75 6.390625 31.78125 6.390625 
Q 38.8125 6.390625 42.859375 10.171875 
Q 46.921875 13.96875 46.921875 20.515625 
Q 46.921875 27.09375 42.890625 30.859375 
Q 38.875 34.625 31.78125 34.625 
z
M 21.921875 38.8125 
Q 15.578125 40.375 12.03125 44.71875 
Q 8.5 49.078125 8.5 55.328125 
Q 8.5 64.0625 14.71875 69.140625 
Q 20.953125 74.21875 31.78125 74.21875 
Q 42.671875 74.21875 48.875 69.140625 
Q 55.078125 64.0625 55.078125 55.328125 
Q 55.078125 49.078125 51.53125 44.71875 
Q 48 40.375 41.703125 38.8125 
Q 48.828125 37.15625 52.796875 32.3125 
Q 56.78125 27.484375 56.78125 20.515625 
Q 56.78125 9.90625 50.3125 4.234375 
Q 43.84375 -1.421875 31.78125 -1.421875 
Q 19.734375 -1.421875 13.25 4.234375 
Q 6.78125 9.90625 6.78125 20.515625 
Q 6.78125 27.484375 10.78125 32.3125 
Q 14.796875 37.15625 21.921875 38.8125 
z
M 18.3125 54.390625 
Q 18.3125 48.734375 21.84375 45.5625 
Q 25.390625 42.390625 31.78125 42.390625 
Q 38.140625 42.390625 41.71875 45.5625 
Q 45.3125 48.734375 45.3125 54.390625 
Q 45.3125 60.0625 41.71875 63.234375 
Q 38.140625 66.40625 31.78125 66.40625 
Q 25.390625 66.40625 21.84375 63.234375 
Q 18.3125 60.0625 18.3125 54.390625 
z
" id="DejaVuSans-56"/>
      </defs>
      <g transform="translate(142.219294 399.078438)scale(0.1 -0.1)">
       <use xlink:href="#DejaVuSans-56"/>
       <use x="63.623047" xlink:href="#DejaVuSans-56"/>
       <use x="127.246094" xlink:href="#DejaVuSans-48"/>
      </g>
     </g>
    </g>
    <g id="xtick_3">
     <g id="line2d_3">
      <g>
       <use style="stroke:#000000;stroke-width:0.8;" x="222.771543" xlink:href="#mb049af407b" y="384.48"/>
      </g>
     </g>
     <g id="text_3">
      <!-- 1760 -->
      <defs>
       <path d="M 12.40625 8.296875 
L 28.515625 8.296875 
L 28.515625 63.921875 
L 10.984375 60.40625 
L 10.984375 69.390625 
L 28.421875 72.90625 
L 38.28125 72.90625 
L 38.28125 8.296875 
L 54.390625 8.296875 
L 54.390625 0 
L 12.40625 0 
z
" id="DejaVuSans-49"/>
       <path d="M 8.203125 72.90625 
L 55.078125 72.90625 
L 55.078125 68.703125 
L 28.609375 0 
L 18.3125 0 
L 43.21875 64.59375 
L 8.203125 64.59375 
z
" id="DejaVuSans-55"/>
       <path d="M 33.015625 40.375 
Q 26.375 40.375 22.484375 35.828125 
Q 18.609375 31.296875 18.609375 23.390625 
Q 18.609375 15.53125 22.484375 10.953125 
Q 26.375 6.390625 33.015625 6.390625 
Q 39.65625 6.390625 43.53125 10.953125 
Q 47.40625 15.53125 47.40625 23.390625 
Q 47.40625 31.296875 43.53125 35.828125 
Q 39.65625 40.375 33.015625 40.375 
z
M 52.59375 71.296875 
L 52.59375 62.3125 
Q 48.875 64.0625 45.09375 64.984375 
Q 41.3125 65.921875 37.59375 65.921875 
Q 27.828125 65.921875 22.671875 59.328125 
Q 17.53125 52.734375 16.796875 39.40625 
Q 19.671875 43.65625 24.015625 45.921875 
Q 28.375 48.1875 33.59375 48.1875 
Q 44.578125 48.1875 50.953125 41.515625 
Q 57.328125 34.859375 57.328125 23.390625 
Q 57.328125 12.15625 50.6875 5.359375 
Q 44.046875 -1.421875 33.015625 -1.421875 
Q 20.359375 -1.421875 13.671875 8.265625 
Q 6.984375 17.96875 6.984375 36.375 
Q 6.984375 53.65625 15.1875 63.9375 
Q 23.390625 74.21875 37.203125 74.21875 
Q 40.921875 74.21875 44.703125 73.484375 
Q 48.484375 72.75 52.59375 71.296875 
z
" id="DejaVuSans-54"/>
      </defs>
      <g transform="translate(210.046543 399.078438)scale(0.1 -0.1)">
       <use xlink:href="#DejaVuSans-49"/>
       <use x="63.623047" xlink:href="#DejaVuSans-55"/>
       <use x="127.246094" xlink:href="#DejaVuSans-54"/>
       <use x="190.869141" xlink:href="#DejaVuSans-48"/>
      </g>
     </g>
    </g>
    <g id="xtick_4">
     <g id="line2d_4">
      <g>
       <use style="stroke:#000000;stroke-width:0.8;" x="293.780042" xlink:href="#mb049af407b" y="384.48"/>
      </g>
     </g>
     <g id="text_4">
      <!-- 2640 -->
      <defs>
       <path d="M 19.1875 8.296875 
L 53.609375 8.296875 
L 53.609375 0 
L 7.328125 0 
L 7.328125 8.296875 
Q 12.9375 14.109375 22.625 23.890625 
Q 32.328125 33.6875 34.8125 36.53125 
Q 39.546875 41.84375 41.421875 45.53125 
Q 43.3125 49.21875 43.3125 52.78125 
Q 43.3125 58.59375 39.234375 62.25 
Q 35.15625 65.921875 28.609375 65.921875 
Q 23.96875 65.921875 18.8125 64.3125 
Q 13.671875 62.703125 7.8125 59.421875 
L 7.8125 69.390625 
Q 13.765625 71.78125 18.9375 73 
Q 24.125 74.21875 28.421875 74.21875 
Q 39.75 74.21875 46.484375 68.546875 
Q 53.21875 62.890625 53.21875 53.421875 
Q 53.21875 48.921875 51.53125 44.890625 
Q 49.859375 40.875 45.40625 35.40625 
Q 44.1875 33.984375 37.640625 27.21875 
Q 31.109375 20.453125 19.1875 8.296875 
z
" id="DejaVuSans-50"/>
       <path d="M 37.796875 64.3125 
L 12.890625 25.390625 
L 37.796875 25.390625 
z
M 35.203125 72.90625 
L 47.609375 72.90625 
L 47.609375 25.390625 
L 58.015625 25.390625 
L 58.015625 17.1875 
L 47.609375 17.1875 
L 47.609375 0 
L 37.796875 0 
L 37.796875 17.1875 
L 4.890625 17.1875 
L 4.890625 26.703125 
z
" id="DejaVuSans-52"/>
      </defs>
      <g transform="translate(281.055042 399.078438)scale(0.1 -0.1)">
       <use xlink:href="#DejaVuSans-50"/>
       <use x="63.623047" xlink:href="#DejaVuSans-54"/>
       <use x="127.246094" xlink:href="#DejaVuSans-52"/>
       <use x="190.869141" xlink:href="#DejaVuSans-48"/>
      </g>
     </g>
    </g>
    <g id="xtick_5">
     <g id="line2d_5">
      <g>
       <use style="stroke:#000000;stroke-width:0.8;" x="364.788541" xlink:href="#mb049af407b" y="384.48"/>
      </g>
     </g>
     <g id="text_5">
      <!-- 3520 -->
      <defs>
       <path d="M 40.578125 39.3125 
Q 47.65625 37.796875 51.625 33 
Q 55.609375 28.21875 55.609375 21.1875 
Q 55.609375 10.40625 48.1875 4.484375 
Q 40.765625 -1.421875 27.09375 -1.421875 
Q 22.515625 -1.421875 17.65625 -0.515625 
Q 12.796875 0.390625 7.625 2.203125 
L 7.625 11.71875 
Q 11.71875 9.328125 16.59375 8.109375 
Q 21.484375 6.890625 26.8125 6.890625 
Q 36.078125 6.890625 40.9375 10.546875 
Q 45.796875 14.203125 45.796875 21.1875 
Q 45.796875 27.640625 41.28125 31.265625 
Q 36.765625 34.90625 28.71875 34.90625 
L 20.21875 34.90625 
L 20.21875 43.015625 
L 29.109375 43.015625 
Q 36.375 43.015625 40.234375 45.921875 
Q 44.09375 48.828125 44.09375 54.296875 
Q 44.09375 59.90625 40.109375 62.90625 
Q 36.140625 65.921875 28.71875 65.921875 
Q 24.65625 65.921875 20.015625 65.03125 
Q 15.375 64.15625 9.8125 62.3125 
L 9.8125 71.09375 
Q 15.4375 72.65625 20.34375 73.4375 
Q 25.25 74.21875 29.59375 74.21875 
Q 40.828125 74.21875 47.359375 69.109375 
Q 53.90625 64.015625 53.90625 55.328125 
Q 53.90625 49.265625 50.4375 45.09375 
Q 46.96875 40.921875 40.578125 39.3125 
z
" id="DejaVuSans-51"/>
       <path d="M 10.796875 72.90625 
L 49.515625 72.90625 
L 49.515625 64.59375 
L 19.828125 64.59375 
L 19.828125 46.734375 
Q 21.96875 47.46875 24.109375 47.828125 
Q 26.265625 48.1875 28.421875 48.1875 
Q 40.625 48.1875 47.75 41.5 
Q 54.890625 34.8125 54.890625 23.390625 
Q 54.890625 11.625 47.5625 5.09375 
Q 40.234375 -1.421875 26.90625 -1.421875 
Q 22.3125 -1.421875 17.546875 -0.640625 
Q 12.796875 0.140625 7.71875 1.703125 
L 7.71875 11.625 
Q 12.109375 9.234375 16.796875 8.0625 
Q 21.484375 6.890625 26.703125 6.890625 
Q 35.15625 6.890625 40.078125 11.328125 
Q 45.015625 15.765625 45.015625 23.390625 
Q 45.015625 31 40.078125 35.4375 
Q 35.15625 39.890625 26.703125 39.890625 
Q 22.75 39.890625 18.8125 39.015625 
Q 14.890625 38.140625 10.796875 36.28125 
z
" id="DejaVuSans-53"/>
      </defs>
      <g transform="translate(352.063541 399.078438)scale(0.1 -0.1)">
       <use xlink:href="#DejaVuSans-51"/>
       <use x="63.623047" xlink:href="#DejaVuSans-53"/>
       <use x="127.246094" xlink:href="#DejaVuSans-50"/>
       <use x="190.869141" xlink:href="#DejaVuSans-48"/>
      </g>
     </g>
    </g>
    <g id="text_6">
     <!-- time [ms] -->
     <defs>
      <path d="M 18.3125 70.21875 
L 18.3125 54.6875 
L 36.8125 54.6875 
L 36.8125 47.703125 
L 18.3125 47.703125 
L 18.3125 18.015625 
Q 18.3125 11.328125 20.140625 9.421875 
Q 21.96875 7.515625 27.59375 7.515625 
L 36.8125 7.515625 
L 36.8125 0 
L 27.59375 0 
Q 17.1875 0 13.234375 3.875 
Q 9.28125 7.765625 9.28125 18.015625 
L 9.28125 47.703125 
L 2.6875 47.703125 
L 2.6875 54.6875 
L 9.28125 54.6875 
L 9.28125 70.21875 
z
" id="DejaVuSans-116"/>
      <path d="M 9.421875 54.6875 
L 18.40625 54.6875 
L 18.40625 0 
L 9.421875 0 
z
M 9.421875 75.984375 
L 18.40625 75.984375 
L 18.40625 64.59375 
L 9.421875 64.59375 
z
" id="DejaVuSans-105"/>
      <path d="M 52 44.1875 
Q 55.375 50.25 60.0625 53.125 
Q 64.75 56 71.09375 56 
Q 79.640625 56 84.28125 50.015625 
Q 88.921875 44.046875 88.921875 33.015625 
L 88.921875 0 
L 79.890625 0 
L 79.890625 32.71875 
Q 79.890625 40.578125 77.09375 44.375 
Q 74.3125 48.1875 68.609375 48.1875 
Q 61.625 48.1875 57.5625 43.546875 
Q 53.515625 38.921875 53.515625 30.90625 
L 53.515625 0 
L 44.484375 0 
L 44.484375 32.71875 
Q 44.484375 40.625 41.703125 44.40625 
Q 38.921875 48.1875 33.109375 48.1875 
Q 26.21875 48.1875 22.15625 43.53125 
Q 18.109375 38.875 18.109375 30.90625 
L 18.109375 0 
L 9.078125 0 
L 9.078125 54.6875 
L 18.109375 54.6875 
L 18.109375 46.1875 
Q 21.1875 51.21875 25.484375 53.609375 
Q 29.78125 56 35.6875 56 
Q 41.65625 56 45.828125 52.96875 
Q 50 49.953125 52 44.1875 
z
" id="DejaVuSans-109"/>
      <path d="M 56.203125 29.59375 
L 56.203125 25.203125 
L 14.890625 25.203125 
Q 15.484375 15.921875 20.484375 11.0625 
Q 25.484375 6.203125 34.421875 6.203125 
Q 39.59375 6.203125 44.453125 7.46875 
Q 49.3125 8.734375 54.109375 11.28125 
L 54.109375 2.78125 
Q 49.265625 0.734375 44.1875 -0.34375 
Q 39.109375 -1.421875 33.890625 -1.421875 
Q 20.796875 -1.421875 13.15625 6.1875 
Q 5.515625 13.8125 5.515625 26.8125 
Q 5.515625 40.234375 12.765625 48.109375 
Q 20.015625 56 32.328125 56 
Q 43.359375 56 49.78125 48.890625 
Q 56.203125 41.796875 56.203125 29.59375 
z
M 47.21875 32.234375 
Q 47.125 39.59375 43.09375 43.984375 
Q 39.0625 48.390625 32.421875 48.390625 
Q 24.90625 48.390625 20.390625 44.140625 
Q 15.875 39.890625 15.1875 32.171875 
z
" id="DejaVuSans-101"/>
      <path id="DejaVuSans-32"/>
      <path d="M 8.59375 75.984375 
L 29.296875 75.984375 
L 29.296875 69 
L 17.578125 69 
L 17.578125 -6.203125 
L 29.296875 -6.203125 
L 29.296875 -13.1875 
L 8.59375 -13.1875 
z
" id="DejaVuSans-91"/>
      <path d="M 44.28125 53.078125 
L 44.28125 44.578125 
Q 40.484375 46.53125 36.375 47.5 
Q 32.28125 48.484375 27.875 48.484375 
Q 21.1875 48.484375 17.84375 46.4375 
Q 14.5 44.390625 14.5 40.28125 
Q 14.5 37.15625 16.890625 35.375 
Q 19.28125 33.59375 26.515625 31.984375 
L 29.59375 31.296875 
Q 39.15625 29.25 43.1875 25.515625 
Q 47.21875 21.78125 47.21875 15.09375 
Q 47.21875 7.46875 41.1875 3.015625 
Q 35.15625 -1.421875 24.609375 -1.421875 
Q 20.21875 -1.421875 15.453125 -0.5625 
Q 10.6875 0.296875 5.421875 2 
L 5.421875 11.28125 
Q 10.40625 8.6875 15.234375 7.390625 
Q 20.0625 6.109375 24.8125 6.109375 
Q 31.15625 6.109375 34.5625 8.28125 
Q 37.984375 10.453125 37.984375 14.40625 
Q 37.984375 18.0625 35.515625 20.015625 
Q 33.0625 21.96875 24.703125 23.78125 
L 21.578125 24.515625 
Q 13.234375 26.265625 9.515625 29.90625 
Q 5.8125 33.546875 5.8125 39.890625 
Q 5.8125 47.609375 11.28125 51.796875 
Q 16.75 56 26.8125 56 
Q 31.78125 56 36.171875 55.265625 
Q 40.578125 54.546875 44.28125 53.078125 
z
" id="DejaVuSans-115"/>
      <path d="M 30.421875 75.984375 
L 30.421875 -13.1875 
L 9.71875 -13.1875 
L 9.71875 -6.203125 
L 21.390625 -6.203125 
L 21.390625 69 
L 9.71875 69 
L 9.71875 75.984375 
z
" id="DejaVuSans-93"/>
     </defs>
     <g transform="translate(234.038281 412.756563)scale(0.1 -0.1)">
      <use xlink:href="#DejaVuSans-116"/>
      <use x="39.208984" xlink:href="#DejaVuSans-105"/>
      <use x="66.992188" xlink:href="#DejaVuSans-109"/>
      <use x="164.404297" xlink:href="#DejaVuSans-101"/>
      <use x="225.927734" xlink:href="#DejaVuSans-32"/>
      <use x="257.714844" xlink:href="#DejaVuSans-91"/>
      <use x="296.728516" xlink:href="#DejaVuSans-109"/>
      <use x="394.140625" xlink:href="#DejaVuSans-115"/>
      <use x="446.240234" xlink:href="#DejaVuSans-93"/>
     </g>
    </g>
   </g>
   <g id="matplotlib.axis_2">
    <g id="ytick_1">
     <g id="line2d_6">
      <defs>
       <path d="M 0 0 
L -3.5 0 
" id="m65a26dea86" style="stroke:#000000;stroke-width:0.8;"/>
      </defs>
      <g>
       <use style="stroke:#000000;stroke-width:0.8;" x="63" xlink:href="#m65a26dea86" y="359.37616"/>
      </g>
     </g>
     <g id="text_7">
      <!-- −125 -->
      <defs>
       <path d="M 10.59375 35.5 
L 73.1875 35.5 
L 73.1875 27.203125 
L 10.59375 27.203125 
z
" id="DejaVuSans-8722"/>
      </defs>
      <g transform="translate(28.532812 363.175379)scale(0.1 -0.1)">
       <use xlink:href="#DejaVuSans-8722"/>
       <use x="83.789062" xlink:href="#DejaVuSans-49"/>
       <use x="147.412109" xlink:href="#DejaVuSans-50"/>
       <use x="211.035156" xlink:href="#DejaVuSans-53"/>
      </g>
     </g>
    </g>
    <g id="ytick_2">
     <g id="line2d_7">
      <g>
       <use style="stroke:#000000;stroke-width:0.8;" x="63" xlink:href="#m65a26dea86" y="318.857331"/>
      </g>
     </g>
     <g id="text_8">
      <!-- −100 -->
      <g transform="translate(28.532812 322.65655)scale(0.1 -0.1)">
       <use xlink:href="#DejaVuSans-8722"/>
       <use x="83.789062" xlink:href="#DejaVuSans-49"/>
       <use x="147.412109" xlink:href="#DejaVuSans-48"/>
       <use x="211.035156" xlink:href="#DejaVuSans-48"/>
      </g>
     </g>
    </g>
    <g id="ytick_3">
     <g id="line2d_8">
      <g>
       <use style="stroke:#000000;stroke-width:0.8;" x="63" xlink:href="#m65a26dea86" y="278.338502"/>
      </g>
     </g>
     <g id="text_9">
      <!-- −75 -->
      <g transform="translate(34.895313 282.137721)scale(0.1 -0.1)">
       <use xlink:href="#DejaVuSans-8722"/>
       <use x="83.789062" xlink:href="#DejaVuSans-55"/>
       <use x="147.412109" xlink:href="#DejaVuSans-53"/>
      </g>
     </g>
    </g>
    <g id="ytick_4">
     <g id="line2d_9">
      <g>
       <use style="stroke:#000000;stroke-width:0.8;" x="63" xlink:href="#m65a26dea86" y="237.819673"/>
      </g>
     </g>
     <g id="text_10">
      <!-- −50 -->
      <g transform="translate(34.895313 241.618891)scale(0.1 -0.1)">
       <use xlink:href="#DejaVuSans-8722"/>
       <use x="83.789062" xlink:href="#DejaVuSans-53"/>
       <use x="147.412109" xlink:href="#DejaVuSans-48"/>
      </g>
     </g>
    </g>
    <g id="ytick_5">
     <g id="line2d_10">
      <g>
       <use style="stroke:#000000;stroke-width:0.8;" x="63" xlink:href="#m65a26dea86" y="197.300843"/>
      </g>
     </g>
     <g id="text_11">
      <!-- −25 -->
      <g transform="translate(34.895313 201.100062)scale(0.1 -0.1)">
       <use xlink:href="#DejaVuSans-8722"/>
       <use x="83.789062" xlink:href="#DejaVuSans-50"/>
       <use x="147.412109" xlink:href="#DejaVuSans-53"/>
      </g>
     </g>
    </g>
    <g id="ytick_6">
     <g id="line2d_11">
      <g>
       <use style="stroke:#000000;stroke-width:0.8;" x="63" xlink:href="#m65a26dea86" y="156.782014"/>
      </g>
     </g>
     <g id="text_12">
      <!-- 0 -->
      <g transform="translate(49.6375 160.581233)scale(0.1 -0.1)">
       <use xlink:href="#DejaVuSans-48"/>
      </g>
     </g>
    </g>
    <g id="ytick_7">
     <g id="line2d_12">
      <g>
       <use style="stroke:#000000;stroke-width:0.8;" x="63" xlink:href="#m65a26dea86" y="116.263185"/>
      </g>
     </g>
     <g id="text_13">
      <!-- 25 -->
      <g transform="translate(43.275 120.062404)scale(0.1 -0.1)">
       <use xlink:href="#DejaVuSans-50"/>
       <use x="63.623047" xlink:href="#DejaVuSans-53"/>
      </g>
     </g>
    </g>
    <g id="ytick_8">
     <g id="line2d_13">
      <g>
       <use style="stroke:#000000;stroke-width:0.8;" x="63" xlink:href="#m65a26dea86" y="75.744356"/>
      </g>
     </g>
     <g id="text_14">
      <!-- 50 -->
      <g transform="translate(43.275 79.543574)scale(0.1 -0.1)">
       <use xlink:href="#DejaVuSans-53"/>
       <use x="63.623047" xlink:href="#DejaVuSans-48"/>
      </g>
     </g>
    </g>
    <g id="text_15">
     <!-- voltage [mV] -->
     <defs>
      <path d="M 2.984375 54.6875 
L 12.5 54.6875 
L 29.59375 8.796875 
L 46.6875 54.6875 
L 56.203125 54.6875 
L 35.6875 0 
L 23.484375 0 
z
" id="DejaVuSans-118"/>
      <path d="M 30.609375 48.390625 
Q 23.390625 48.390625 19.1875 42.75 
Q 14.984375 37.109375 14.984375 27.296875 
Q 14.984375 17.484375 19.15625 11.84375 
Q 23.34375 6.203125 30.609375 6.203125 
Q 37.796875 6.203125 41.984375 11.859375 
Q 46.1875 17.53125 46.1875 27.296875 
Q 46.1875 37.015625 41.984375 42.703125 
Q 37.796875 48.390625 30.609375 48.390625 
z
M 30.609375 56 
Q 42.328125 56 49.015625 48.375 
Q 55.71875 40.765625 55.71875 27.296875 
Q 55.71875 13.875 49.015625 6.21875 
Q 42.328125 -1.421875 30.609375 -1.421875 
Q 18.84375 -1.421875 12.171875 6.21875 
Q 5.515625 13.875 5.515625 27.296875 
Q 5.515625 40.765625 12.171875 48.375 
Q 18.84375 56 30.609375 56 
z
" id="DejaVuSans-111"/>
      <path d="M 9.421875 75.984375 
L 18.40625 75.984375 
L 18.40625 0 
L 9.421875 0 
z
" id="DejaVuSans-108"/>
      <path d="M 34.28125 27.484375 
Q 23.390625 27.484375 19.1875 25 
Q 14.984375 22.515625 14.984375 16.5 
Q 14.984375 11.71875 18.140625 8.90625 
Q 21.296875 6.109375 26.703125 6.109375 
Q 34.1875 6.109375 38.703125 11.40625 
Q 43.21875 16.703125 43.21875 25.484375 
L 43.21875 27.484375 
z
M 52.203125 31.203125 
L 52.203125 0 
L 43.21875 0 
L 43.21875 8.296875 
Q 40.140625 3.328125 35.546875 0.953125 
Q 30.953125 -1.421875 24.3125 -1.421875 
Q 15.921875 -1.421875 10.953125 3.296875 
Q 6 8.015625 6 15.921875 
Q 6 25.140625 12.171875 29.828125 
Q 18.359375 34.515625 30.609375 34.515625 
L 43.21875 34.515625 
L 43.21875 35.40625 
Q 43.21875 41.609375 39.140625 45 
Q 35.0625 48.390625 27.6875 48.390625 
Q 23 48.390625 18.546875 47.265625 
Q 14.109375 46.140625 10.015625 43.890625 
L 10.015625 52.203125 
Q 14.9375 54.109375 19.578125 55.046875 
Q 24.21875 56 28.609375 56 
Q 40.484375 56 46.34375 49.84375 
Q 52.203125 43.703125 52.203125 31.203125 
z
" id="DejaVuSans-97"/>
      <path d="M 45.40625 27.984375 
Q 45.40625 37.75 41.375 43.109375 
Q 37.359375 48.484375 30.078125 48.484375 
Q 22.859375 48.484375 18.828125 43.109375 
Q 14.796875 37.75 14.796875 27.984375 
Q 14.796875 18.265625 18.828125 12.890625 
Q 22.859375 7.515625 30.078125 7.515625 
Q 37.359375 7.515625 41.375 12.890625 
Q 45.40625 18.265625 45.40625 27.984375 
z
M 54.390625 6.78125 
Q 54.390625 -7.171875 48.1875 -13.984375 
Q 42 -20.796875 29.203125 -20.796875 
Q 24.46875 -20.796875 20.265625 -20.09375 
Q 16.0625 -19.390625 12.109375 -17.921875 
L 12.109375 -9.1875 
Q 16.0625 -11.328125 19.921875 -12.34375 
Q 23.78125 -13.375 27.78125 -13.375 
Q 36.625 -13.375 41.015625 -8.765625 
Q 45.40625 -4.15625 45.40625 5.171875 
L 45.40625 9.625 
Q 42.625 4.78125 38.28125 2.390625 
Q 33.9375 0 27.875 0 
Q 17.828125 0 11.671875 7.65625 
Q 5.515625 15.328125 5.515625 27.984375 
Q 5.515625 40.671875 11.671875 48.328125 
Q 17.828125 56 27.875 56 
Q 33.9375 56 38.28125 53.609375 
Q 42.625 51.21875 45.40625 46.390625 
L 45.40625 54.6875 
L 54.390625 54.6875 
z
" id="DejaVuSans-103"/>
      <path d="M 28.609375 0 
L 0.78125 72.90625 
L 11.078125 72.90625 
L 34.1875 11.53125 
L 57.328125 72.90625 
L 67.578125 72.90625 
L 39.796875 0 
z
" id="DejaVuSans-86"/>
     </defs>
     <g transform="translate(22.453125 250.624062)rotate(-90)scale(0.1 -0.1)">
      <use xlink:href="#DejaVuSans-118"/>
      <use x="59.179688" xlink:href="#DejaVuSans-111"/>
      <use x="120.361328" xlink:href="#DejaVuSans-108"/>
      <use x="148.144531" xlink:href="#DejaVuSans-116"/>
      <use x="187.353516" xlink:href="#DejaVuSans-97"/>
      <use x="248.632812" xlink:href="#DejaVuSans-103"/>
      <use x="312.109375" xlink:href="#DejaVuSans-101"/>
      <use x="373.632812" xlink:href="#DejaVuSans-32"/>
      <use x="405.419922" xlink:href="#DejaVuSans-91"/>
      <use x="444.433594" xlink:href="#DejaVuSans-109"/>
      <use x="541.845703" xlink:href="#DejaVuSans-86"/>
      <use x="610.253906" xlink:href="#DejaVuSans-93"/>
     </g>
    </g>
   </g>
   <g id="line2d_14">
    <path clip-path="url(#p53bf9d22eb)" d="M 80.754545 251.589744 
L 83.385088 251.510605 
L 83.417364 251.431467 
L 83.465779 251.589744 
L 83.498056 251.510605 
L 83.514194 251.589744 
L 83.594885 251.510605 
L 83.723992 251.431467 
L 84.547045 251.510605 
L 84.676151 251.589744 
L 84.96664 251.510605 
L 85.095747 251.431467 
L 85.176438 251.510605 
L 85.208715 251.431467 
L 85.337821 251.510605 
L 85.35396 251.589744 
L 85.402374 251.431467 
L 85.434651 251.431467 
L 86.322257 251.510605 
L 86.451364 251.589744 
L 87.419661 251.668882 
L 87.532629 251.74802 
L 87.581044 251.668882 
L 87.645598 251.74802 
L 88.694587 251.827159 
L 88.807555 251.906297 
L 88.85597 251.827159 
L 89.049629 242.805388 
L 89.501501 234.337586 
L 90.356831 223.337357 
L 91.196022 216.135768 
L 91.470373 214.236448 
L 91.777001 212.257989 
L 92.551639 209.013317 
L 92.583916 208.934179 
L 92.793714 208.459349 
L 92.82599 208.380211 
L 93.11648 207.509689 
L 93.310139 207.430551 
L 93.503799 207.034859 
L 93.552214 206.955721 
L 93.745873 206.560029 
L 93.858841 206.480891 
L 94.020224 206.243476 
L 94.213884 206.164337 
L 94.391405 205.847784 
L 95.843851 205.768646 
L 95.989096 205.452092 
L 96.005234 205.531231 
L 96.118202 205.452092 
L 96.247309 205.372954 
L 96.553936 205.293816 
L 96.683043 205.214677 
L 96.892841 205.689507 
L 96.957394 205.768646 
L 97.167192 206.243476 
L 97.393128 206.164337 
L 97.425404 206.085199 
L 97.506096 206.164337 
L 97.845 206.085199 
L 97.990245 205.926922 
L 98.006383 206.006061 
L 98.03866 205.847784 
L 98.103213 205.926922 
L 98.264596 206.006061 
L 98.296872 206.085199 
L 98.361426 205.926922 
L 98.50667 206.006061 
L 98.538947 206.085199 
L 98.571223 205.926922 
L 98.619638 206.006061 
L 99.119925 205.926922 
L 99.26517 205.768646 
L 99.959117 205.689507 
L 100.055947 205.610369 
L 100.072085 205.689507 
L 100.1205 205.768646 
L 100.362574 207.113997 
L 100.604649 207.747104 
L 100.653063 207.826242 
L 100.733755 207.905381 
L 100.766031 207.826242 
L 100.943553 207.747104 
L 101.056521 207.509689 
L 101.088797 207.588827 
L 101.217904 207.509689 
L 101.395425 207.193136 
L 101.427702 207.272274 
L 101.508393 207.193136 
L 101.556808 207.113997 
L 101.702053 206.955721 
L 101.831159 206.876582 
L 101.960265 206.797444 
L 102.040957 206.876582 
L 102.073233 206.797444 
L 102.153925 206.718306 
L 102.331446 206.401752 
L 102.347584 206.480891 
L 102.379861 206.322614 
L 102.428276 206.401752 
L 102.589659 206.164337 
L 102.718765 206.243476 
L 102.993116 206.164337 
L 103.057669 205.926922 
L 103.122223 206.085199 
L 103.235191 206.164337 
L 103.251329 206.243476 
L 103.33202 206.085199 
L 103.348159 206.164337 
L 103.461127 206.006061 
L 103.477265 206.085199 
L 103.687063 206.006061 
L 103.816169 205.926922 
L 104.09052 205.847784 
L 104.18735 205.768646 
L 104.203488 205.847784 
L 104.38101 205.768646 
L 104.526254 205.452092 
L 104.542393 205.531231 
L 104.639222 205.452092 
L 104.687637 205.372954 
L 104.75219 205.452092 
L 104.897435 205.372954 
L 105.026541 205.293816 
L 105.236339 205.372954 
L 105.317031 205.452092 
L 105.349307 205.372954 
L 106.107807 205.293816 
L 106.123945 205.214677 
L 106.17236 205.372954 
L 106.220775 205.293816 
L 106.882445 205.372954 
L 107.011552 205.452092 
L 107.705498 205.372954 
L 107.737775 205.293816 
L 107.78619 205.452092 
L 107.802328 205.452092 
L 108.383307 205.372954 
L 108.528551 205.214677 
L 108.576966 205.135539 
L 108.706073 205.056401 
L 109.254775 204.977262 
L 109.335466 204.898124 
L 109.367743 204.977262 
L 109.690509 204.898124 
L 109.819615 204.739847 
L 109.916445 204.818986 
L 109.932583 204.739847 
L 110.416732 204.818986 
L 110.561977 204.977262 
L 110.691083 204.898124 
L 111.368891 204.977262 
L 111.530274 205.214677 
L 112.256498 205.293816 
L 112.321051 205.214677 
L 112.385604 205.372954 
L 112.821338 205.452092 
L 112.837476 205.531231 
L 112.869753 205.372954 
L 112.934306 205.452092 
L 113.17638 205.531231 
L 113.337763 205.768646 
L 113.434593 205.847784 
L 113.579838 206.006061 
L 113.789636 205.926922 
L 113.870327 205.847784 
L 113.902604 205.926922 
L 114.160817 206.006061 
L 114.257646 206.085199 
L 114.273785 206.006061 
L 114.386753 205.847784 
L 114.402891 205.926922 
L 114.483582 205.847784 
L 114.580412 205.689507 
L 114.612689 205.768646 
L 114.806348 205.689507 
L 114.935455 205.610369 
L 115.35505 205.531231 
L 115.484157 205.452092 
L 115.532572 205.531231 
L 115.580986 205.452092 
L 115.710093 205.372954 
L 115.839199 205.293816 
L 115.984444 205.135539 
L 116.21038 205.056401 
L 116.339486 204.977262 
L 116.484731 204.898124 
L 116.629976 204.739847 
L 116.710667 204.660709 
L 116.742944 204.581571 
L 116.823635 204.660709 
L 117.017295 204.739847 
L 117.033433 204.818986 
L 117.130263 204.739847 
L 117.259369 204.818986 
L 117.501444 205.452092 
L 117.549858 205.531231 
L 117.743518 205.926922 
L 117.921039 206.006061 
L 118.050146 206.085199 
L 118.647263 206.006061 
L 118.776369 205.926922 
L 119.05072 205.847784 
L 119.131411 205.768646 
L 119.163688 205.847784 
L 119.518731 205.768646 
L 119.663975 205.610369 
L 119.80922 205.531231 
L 119.938326 205.452092 
L 120.002879 205.531231 
L 120.051294 205.452092 
L 120.228815 205.135539 
L 120.438613 205.056401 
L 120.56772 204.977262 
L 120.664549 204.898124 
L 120.696826 204.818986 
L 120.745241 204.977262 
L 120.761379 204.977262 
L 120.858209 205.056401 
L 120.874347 204.977262 
L 121.116422 205.056401 
L 121.261666 205.214677 
L 121.471464 205.135539 
L 121.616709 204.977262 
L 121.778092 204.898124 
L 121.939475 204.660709 
L 122.116996 204.581571 
L 122.246102 204.502432 
L 122.407485 204.739847 
L 122.423624 204.660709 
L 122.520453 204.739847 
L 122.697975 204.660709 
L 122.810943 204.502432 
L 122.827081 204.581571 
L 123.133709 204.660709 
L 123.278953 204.818986 
L 123.553304 204.898124 
L 123.682411 205.056401 
L 123.843794 204.818986 
L 123.924485 204.898124 
L 123.940623 204.977262 
L 124.005177 204.818986 
L 124.021315 204.818986 
L 124.360219 204.739847 
L 124.489325 204.660709 
L 124.682985 204.739847 
L 124.844368 204.977262 
L 125.280102 205.056401 
L 125.360793 205.214677 
L 125.39307 205.135539 
L 125.522176 205.056401 
L 125.764251 204.977262 
L 125.780389 204.898124 
L 125.877219 204.977262 
L 126.038602 204.898124 
L 126.167708 204.818986 
L 126.329091 204.739847 
L 126.458197 204.660709 
L 126.587304 204.739847 
L 126.651857 204.818986 
L 126.700272 204.739847 
L 127.136006 204.660709 
L 127.152144 204.581571 
L 127.232836 204.660709 
L 127.248974 204.739847 
L 127.297389 204.581571 
L 127.329665 204.581571 
L 127.394219 204.660709 
L 127.442633 204.818986 
L 127.507187 204.739847 
L 127.636293 204.660709 
L 127.765399 204.739847 
L 127.975197 204.660709 
L 128.120442 204.502432 
L 128.217272 204.423294 
L 128.346378 204.344156 
L 128.410931 204.265017 
L 128.540038 204.185879 
L 129.08874 204.10674 
L 129.137154 204.027602 
L 129.201708 204.10674 
L 129.605165 204.185879 
L 129.734271 204.265017 
L 129.831101 204.185879 
L 130.024761 203.790187 
L 130.137729 203.711049 
L 130.282973 203.552772 
L 130.525048 203.473634 
L 130.541186 203.394495 
L 130.589601 203.552772 
L 130.621878 203.473634 
L 130.670292 203.552772 
L 130.734846 203.473634 
L 131.07375 203.394495 
L 131.218995 203.236219 
L 132.477782 203.315357 
L 132.606888 203.394495 
L 132.768271 203.315357 
L 132.816686 203.236219 
L 132.881239 203.315357 
L 133.268558 203.394495 
L 133.397664 203.473634 
L 133.413803 203.473634 
L 133.559047 203.869325 
L 133.591324 203.790187 
L 133.639739 204.027602 
L 133.655877 203.948464 
L 133.768845 204.027602 
L 133.962505 204.423294 
L 133.994781 204.502432 
L 134.156164 204.818986 
L 134.285271 204.739847 
L 134.430515 204.818986 
L 134.559622 204.977262 
L 134.688728 204.898124 
L 134.979217 204.818986 
L 135.108324 204.739847 
L 135.33426 204.660709 
L 135.414951 204.502432 
L 135.463366 204.581571 
L 135.818409 204.502432 
L 135.834547 204.423294 
L 135.866824 204.581571 
L 135.931377 204.502432 
L 136.044345 204.423294 
L 136.060483 204.344156 
L 136.157313 204.423294 
L 136.883536 204.344156 
L 137.061057 204.027602 
L 137.174025 203.948464 
L 137.206302 203.869325 
L 137.238579 204.027602 
L 137.270855 204.027602 
L 137.367685 203.948464 
L 137.432238 203.790187 
L 137.480653 203.948464 
L 137.690451 203.869325 
L 137.835696 203.711049 
L 137.98094 203.869325 
L 138.110047 203.790187 
L 138.206876 203.552772 
L 138.255291 203.63191 
L 138.707163 203.552772 
L 138.83627 203.473634 
L 138.900823 203.552772 
L 138.949238 203.473634 
L 139.126759 203.552772 
L 139.255866 203.63191 
L 139.30428 203.552772 
L 139.368834 203.63191 
L 139.772291 203.552772 
L 139.901397 203.394495 
L 139.998227 203.473634 
L 140.014365 203.394495 
L 140.756727 203.315357 
L 140.91811 203.077942 
L 141.047216 202.998804 
L 141.127908 202.919665 
L 141.160184 202.998804 
L 141.434535 203.790187 
L 141.902546 203.711049 
L 142.031652 203.63191 
L 142.14462 203.552772 
L 142.273727 203.473634 
L 142.386695 203.552772 
L 142.515801 203.473634 
L 142.80629 203.394495 
L 142.951535 203.236219 
L 144.339429 203.315357 
L 144.468535 203.63191 
L 144.484673 203.552772 
L 144.581503 203.473634 
L 144.597641 203.552772 
L 144.678333 203.63191 
L 144.823577 203.790187 
L 145.340003 203.711049 
L 145.485247 203.552772 
L 145.64663 203.473634 
L 145.775737 203.394495 
L 146.308301 203.315357 
L 146.388992 203.15708 
L 146.437407 203.236219 
L 147.244322 203.315357 
L 147.26046 203.394495 
L 147.35729 203.315357 
L 147.550949 203.236219 
L 147.680056 203.15708 
L 147.809162 203.236219 
L 147.938268 203.15708 
L 147.970545 203.077942 
L 148.051236 203.15708 
L 148.180343 203.236219 
L 148.325587 203.394495 
L 148.374002 203.315357 
L 148.503109 203.236219 
L 148.632215 203.315357 
L 148.858151 203.236219 
L 148.890428 203.077942 
L 148.987258 203.15708 
L 149.100226 203.236219 
L 149.116364 203.315357 
L 149.164779 203.15708 
L 149.213194 203.236219 
L 149.358438 203.077942 
L 149.697343 203.15708 
L 149.826449 203.236219 
L 149.971694 203.236219 
L 150.00397 203.077942 
L 150.084662 203.15708 
L 150.407427 203.236219 
L 150.601087 203.711049 
L 150.76247 203.473634 
L 151.085236 203.552772 
L 151.149789 203.63191 
L 151.198204 203.552772 
L 151.32731 203.473634 
L 151.343449 203.552772 
L 151.375725 203.394495 
L 151.440278 203.473634 
L 151.811459 203.394495 
L 151.843736 203.315357 
L 151.924427 203.394495 
L 152.424714 203.315357 
L 152.586097 203.077942 
L 152.908863 202.998804 
L 152.94114 202.919665 
L 153.005693 203.077942 
L 153.054108 202.998804 
L 153.070246 202.919665 
L 153.150938 203.077942 
L 153.328459 202.998804 
L 153.360736 202.919665 
L 153.40915 202.998804 
L 153.60281 212.020574 
L 154.054682 220.409238 
L 154.425863 225.55323 
L 154.861597 230.459807 
L 154.990703 231.646882 
L 155.265054 234.100171 
L 155.765342 237.977949 
L 155.991278 239.639854 
L 156.314044 241.77659 
L 156.927299 245.337815 
L 157.137097 246.366613 
L 158.460437 252.301989 
L 158.492713 252.381127 
L 158.815479 253.409925 
L 158.847756 253.489064 
L 159.154383 254.438724 
L 159.18666 254.517862 
L 159.428735 255.150969 
L 159.461011 255.230107 
L 159.735362 256.02149 
L 159.816054 256.100629 
L 160.025851 256.575459 
L 160.058128 256.654597 
L 160.284064 257.208566 
L 160.348617 257.287704 
L 160.542277 257.683396 
L 160.60683 257.762534 
L 160.80049 258.237364 
L 160.816628 258.158226 
L 160.865043 258.316502 
L 160.897319 258.316502 
L 160.978011 258.395641 
L 161.139394 258.633056 
L 161.300777 258.712194 
L 161.478298 259.028747 
L 161.526713 258.949609 
L 161.591266 259.028747 
L 161.752649 259.266162 
L 161.897894 259.345301 
L 162.043138 259.503577 
L 162.091553 259.582716 
L 162.236798 259.740992 
L 162.285213 259.820131 
L 162.317489 259.899269 
L 162.398181 259.820131 
L 162.462734 259.899269 
L 162.607979 260.057546 
L 162.995298 260.136684 
L 163.124404 260.215822 
L 163.318064 260.294961 
L 163.431032 260.453237 
L 163.44717 260.374099 
L 163.527861 260.453237 
L 163.656968 260.532376 
L 163.931319 260.611514 
L 164.060425 260.690652 
L 164.544574 260.611514 
L 164.625266 260.532376 
L 164.657542 260.611514 
L 165.997021 260.532376 
L 166.126127 260.374099 
L 166.206818 260.453237 
L 166.239095 260.374099 
L 166.432755 260.294961 
L 166.577999 260.136684 
L 166.900765 260.057546 
L 167.029872 259.978407 
L 167.304223 259.899269 
L 167.465606 259.661854 
L 167.659265 259.582716 
L 167.788371 259.503577 
L 168.014308 259.424439 
L 168.175691 259.187024 
L 168.191829 259.266162 
L 168.288659 259.187024 
L 168.450042 259.107886 
L 168.56301 259.028747 
L 168.579148 259.107886 
L 168.627563 258.949609 
L 168.659839 258.949609 
L 168.837361 258.870471 
L 168.853499 258.791332 
L 168.885775 258.949609 
L 168.950329 258.870471 
L 169.12785 258.791332 
L 169.273095 258.633056 
L 169.418339 258.553917 
L 169.499031 258.474779 
L 169.611999 252.301989 
L 169.708829 252.381127 
L 169.724967 252.460265 
L 169.821797 252.381127 
L 170.951477 252.460265 
L 170.967616 252.539404 
L 171.064445 252.460265 
L 171.790669 252.539404 
L 171.822945 252.618542 
L 171.903637 252.539404 
L 172.048881 252.381127 
L 172.177988 252.460265 
L 172.387786 252.381127 
L 172.516892 252.301989 
L 173.162424 252.22285 
L 173.307668 252.064574 
L 174.518041 252.143712 
L 174.647147 252.22285 
L 175.115157 252.301989 
L 175.147434 252.381127 
L 175.228126 252.301989 
L 175.389508 252.381127 
L 175.405647 252.460265 
L 175.502477 252.381127 
L 175.615445 252.460265 
L 175.712274 252.539404 
L 175.728413 252.460265 
L 175.954349 252.539404 
L 176.083455 252.618542 
L 176.099593 252.539404 
L 176.180285 252.69768 
L 176.196423 252.618542 
L 176.664434 252.539404 
L 176.79354 252.460265 
L 176.938785 252.381127 
L 177.019476 252.460265 
L 177.067891 252.301989 
L 177.213136 252.381127 
L 177.293827 252.460265 
L 177.326104 252.381127 
L 177.616593 252.381127 
L 177.810253 240.589515 
L 178.391231 226.740305 
L 179.149731 213.999033 
L 179.82754 205.610369 
L 180.39238 201.099484 
L 180.924944 199.041887 
L 180.95722 198.962748 
L 181.15088 198.567057 
L 181.312263 198.487918 
L 181.522061 198.013088 
L 181.538199 198.013088 
L 181.683444 197.617397 
L 181.764135 197.538258 
L 181.90938 197.379982 
L 182.328975 197.300843 
L 182.522635 196.905152 
L 182.66788 196.826013 
L 182.861539 196.430322 
L 182.926092 196.50946 
L 182.974507 196.588598 
L 183.03906 196.50946 
L 183.103614 196.430322 
L 183.264997 196.192907 
L 183.313411 196.113768 
L 183.539348 195.5598 
L 183.620039 195.480662 
L 183.829837 195.005832 
L 183.89439 194.926693 
L 184.184879 194.056172 
L 184.233294 194.13531 
L 184.297847 194.056172 
L 184.539922 193.423065 
L 184.814273 193.343926 
L 184.927241 192.869096 
L 184.991794 193.027373 
L 185.072486 192.948235 
L 185.250007 192.394266 
L 185.282283 192.473405 
L 185.346837 192.394266 
L 185.669602 191.365468 
L 185.718017 191.28633 
L 186.411964 187.329413 
L 186.428102 186.854583 
L 186.444241 181.948006 
L 186.492656 74.399004 
L 186.573347 130.666362 
L 186.73473 194.61014 
L 186.944528 196.667737 
L 188.05807 206.639167 
L 188.074208 206.639167 
L 188.25173 207.351412 
L 188.477666 207.905381 
L 188.526081 207.984519 
L 188.752017 208.538487 
L 188.800432 208.617626 
L 188.961815 208.855041 
L 189.026368 208.775902 
L 189.058644 208.855041 
L 189.187751 208.934179 
L 189.720315 208.855041 
L 189.865559 208.696764 
L 190.091495 208.617626 
L 190.23674 208.459349 
L 190.285155 208.380211 
L 190.414261 208.221934 
L 190.4304 208.301072 
L 190.494953 208.142796 
L 190.511091 208.142796 
L 190.591783 208.063657 
L 190.720889 207.984519 
L 190.89841 207.905381 
L 191.027516 207.826242 
L 191.140485 207.747104 
L 191.301868 207.509689 
L 191.46325 207.430551 
L 191.640772 207.113997 
L 192.205612 207.034859 
L 192.366995 206.797444 
L 192.463825 206.718306 
L 192.625208 206.401752 
L 192.754314 206.480891 
L 192.835006 206.401752 
L 192.899559 206.322614 
L 192.947974 206.401752 
L 193.238463 206.322614 
L 193.383708 206.164337 
L 193.512814 206.085199 
L 193.658059 205.926922 
L 193.787165 206.006061 
L 193.964686 205.689507 
L 194.013101 205.768646 
L 194.061516 205.610369 
L 194.448835 205.531231 
L 194.59408 205.372954 
L 194.723186 205.293816 
L 194.900707 204.977262 
L 194.981399 204.898124 
L 195.126643 204.739847 
L 195.271888 204.660709 
L 195.35258 204.502432 
L 195.400994 204.581571 
L 195.465548 204.502432 
L 195.610792 204.344156 
L 195.885143 204.265017 
L 196.01425 204.185879 
L 196.094941 204.10674 
L 196.256324 203.790187 
L 196.353154 203.869325 
L 196.369292 203.790187 
L 196.708196 203.711049 
L 196.837303 203.63191 
L 196.950271 203.711049 
L 196.982547 203.63191 
L 197.063239 203.711049 
L 197.14393 203.63191 
L 197.160069 203.552772 
L 197.224622 203.711049 
L 197.24076 203.711049 
L 197.402143 203.790187 
L 197.579664 204.265017 
L 197.595803 204.185879 
L 197.644218 204.265017 
L 197.821739 204.581571 
L 197.854015 204.502432 
L 197.934707 204.581571 
L 197.966983 204.660709 
L 198.112228 204.818986 
L 198.467271 204.739847 
L 198.483409 204.660709 
L 198.580239 204.739847 
L 198.644792 204.660709 
L 198.822313 204.344156 
L 199.032111 204.265017 
L 199.209632 203.948464 
L 199.241909 204.027602 
L 199.306462 203.869325 
L 199.500121 203.473634 
L 199.629228 203.552772 
L 199.790611 203.473634 
L 199.951994 203.236219 
L 200.032685 203.15708 
L 200.161792 203.077942 
L 200.532972 202.998804 
L 200.662079 202.761389 
L 200.678217 202.840527 
L 200.807323 202.761389 
L 200.968706 202.523974 
L 201.065536 202.444835 
L 201.226919 202.20742 
L 201.372164 202.128282 
L 201.50127 202.049144 
L 201.646515 201.970005 
L 201.807898 201.73259 
L 201.856313 201.811729 
L 201.985419 201.890867 
L 202.146802 201.653452 
L 202.275908 201.73259 
L 202.3566 201.653452 
L 202.517983 201.416037 
L 202.582536 201.336899 
L 202.727781 201.099484 
L 202.743919 201.178622 
L 202.776195 201.020345 
L 202.82461 201.020345 
L 203.034408 200.941207 
L 203.179653 200.78293 
L 203.550834 200.862069 
L 203.67994 200.941207 
L 203.77677 201.020345 
L 203.905876 201.099484 
L 204.632099 201.020345 
L 204.777344 200.862069 
L 204.858035 200.78293 
L 204.987142 200.703792 
L 205.116248 200.862069 
L 205.164663 200.78293 
L 205.19694 200.941207 
L 205.229216 200.862069 
L 205.358323 201.099484 
L 205.374461 201.020345 
L 206.052269 201.099484 
L 206.213652 201.336899 
L 206.455727 201.416037 
L 206.61711 201.653452 
L 206.762354 201.73259 
L 206.907599 201.890867 
L 207.343333 201.811729 
L 207.359471 201.73259 
L 207.456301 201.811729 
L 207.472439 201.890867 
L 207.569269 201.811729 
L 207.666099 201.890867 
L 207.682237 201.970005 
L 207.779067 201.890867 
L 208.021141 201.811729 
L 208.182524 201.574314 
L 208.230939 201.495175 
L 208.40846 201.178622 
L 208.60212 201.099484 
L 208.731226 201.020345 
L 208.989439 200.941207 
L 209.118545 200.862069 
L 209.215375 200.78293 
L 209.36062 200.624654 
L 209.538141 200.545515 
L 209.731801 200.149824 
L 210.038428 200.070685 
L 210.183673 199.912409 
L 210.232088 199.991547 
L 210.393471 200.228962 
L 211.055141 200.149824 
L 211.232662 199.83327 
L 211.297215 199.912409 
L 211.329492 199.83327 
L 211.474737 199.674994 
L 211.652258 199.595855 
L 211.749088 199.516717 
L 211.765226 199.595855 
L 211.813641 199.516717 
L 211.958885 199.35844 
L 212.023439 199.279302 
L 212.039577 199.200164 
L 212.087992 199.35844 
L 212.120268 199.35844 
L 212.217098 199.437579 
L 212.362343 199.595855 
L 212.410758 199.516717 
L 212.475311 199.35844 
L 212.523726 199.516717 
L 212.588279 199.437579 
L 212.636694 199.35844 
L 212.685109 199.437579 
L 212.86263 199.754132 
L 213.185396 199.674994 
L 213.217672 199.595855 
L 213.266087 199.754132 
L 213.282226 199.754132 
L 213.556577 199.674994 
L 213.653406 199.595855 
L 213.669545 199.674994 
L 213.814789 199.595855 
L 214.008449 199.200164 
L 214.056864 199.121025 
L 214.073002 199.041887 
L 214.169832 199.121025 
L 214.2828 199.041887 
L 214.411906 198.962748 
L 214.589427 198.88361 
L 214.734672 198.725333 
L 214.84764 198.804472 
L 214.879917 198.88361 
L 214.928332 198.725333 
L 214.94447 198.725333 
L 215.202683 198.646195 
L 215.331789 198.567057 
L 215.460895 198.646195 
L 215.751385 198.725333 
L 215.767523 198.804472 
L 215.864353 198.725333 
L 216.058012 198.329642 
L 216.138704 198.250503 
L 216.300087 197.93395 
L 216.380778 198.013088 
L 216.413055 197.93395 
L 216.542161 197.854812 
L 216.687406 197.696535 
L 216.92948 197.617397 
L 216.977895 197.538258 
L 217.02631 197.617397 
L 217.042448 197.696535 
L 217.139278 197.617397 
L 217.704118 197.696535 
L 217.833225 197.775673 
L 217.849363 197.696535 
L 217.946193 197.775673 
L 218.204406 197.775673 
L 218.34965 198.171365 
L 218.656278 198.092227 
L 218.785384 198.013088 
L 218.962905 198.092227 
L 219.027459 198.013088 
L 219.075874 198.171365 
L 219.20498 198.092227 
L 219.414778 198.171365 
L 219.576161 198.40878 
L 219.915065 198.487918 
L 220.157139 199.121025 
L 220.270107 199.200164 
L 220.350799 199.35844 
L 220.399214 199.279302 
L 220.496044 199.200164 
L 220.62515 199.121025 
L 220.818809 199.200164 
L 220.834948 199.279302 
L 220.931777 199.200164 
L 221.125437 199.121025 
L 221.254543 199.041887 
L 221.319097 198.962748 
L 221.464341 198.804472 
L 221.722554 198.725333 
L 221.867799 198.567057 
L 221.900075 198.567057 
L 222.029182 198.250503 
L 222.077596 198.171365 
L 222.158288 197.93395 
L 222.222841 198.013088 
L 222.739267 197.93395 
L 222.900649 197.696535 
L 223.013618 197.617397 
L 223.158862 197.379982 
L 223.175001 197.45912 
L 223.239554 197.300843 
L 223.255692 197.379982 
L 223.449352 196.98429 
L 223.626873 196.905152 
L 223.852809 196.351183 
L 223.981915 196.272045 
L 224.046468 196.113768 
L 224.094883 196.192907 
L 224.272405 196.50946 
L 224.320819 196.430322 
L 224.385373 196.351183 
L 224.433788 196.430322 
L 224.514479 196.588598 
L 224.562894 196.50946 
L 224.692 196.588598 
L 224.853383 196.826013 
L 225.127734 196.746875 
L 225.256841 196.667737 
L 225.289117 196.746875 
L 225.305255 196.826013 
L 225.35367 196.667737 
L 225.385947 196.667737 
L 225.54733 196.746875 
L 225.692575 196.905152 
L 225.740989 196.826013 
L 225.886234 196.667737 
L 226.063755 196.588598 
L 226.338106 195.797215 
L 226.547904 195.876353 
L 226.580181 195.955492 
L 226.628596 195.797215 
L 226.644734 195.797215 
L 226.725425 195.718077 
L 226.87067 195.5598 
L 226.886808 195.638938 
L 226.9675 195.480662 
L 226.983638 195.5598 
L 227.06433 195.638938 
L 227.096606 195.718077 
L 227.161159 195.5598 
L 227.403234 195.5598 
L 227.53234 195.243247 
L 227.661447 195.164108 
L 227.677585 195.08497 
L 227.758276 195.164108 
L 227.855106 195.322385 
L 227.887383 195.243247 
L 228.048766 195.164108 
L 228.097181 195.08497 
L 228.161734 195.164108 
L 228.419946 195.08497 
L 228.597468 194.768417 
L 228.823404 194.689278 
L 228.871819 194.531002 
L 228.936372 194.689278 
L 229.081617 194.61014 
L 229.259138 194.293587 
L 229.307553 194.214448 
L 229.468936 193.977033 
L 229.630319 194.056172 
L 229.646457 194.13531 
L 229.71101 193.977033 
L 229.727148 193.977033 
L 230.082191 193.897895 
L 230.098329 193.818756 
L 230.162882 193.977033 
L 230.179021 193.977033 
L 230.905244 193.897895 
L 231.195733 193.027373 
L 231.22801 192.948235 
L 231.421669 192.552543 
L 231.453946 192.473405 
L 231.954233 190.574085 
L 231.970371 190.653223 
L 232.034925 190.415808 
L 232.164031 188.674765 
L 232.180169 185.746646 
L 232.244722 73.528482 
L 232.309276 126.076339 
L 232.470659 193.739618 
L 232.535212 194.372725 
L 232.599765 194.214448 
L 232.74501 193.977033 
L 233.051637 196.03463 
L 233.551924 199.991547 
L 233.584201 200.070685 
L 233.826275 201.416037 
L 234.520222 204.265017 
L 234.584775 204.344156 
L 234.794573 204.818986 
L 234.842988 204.898124 
L 235.036647 205.293816 
L 235.101201 205.372954 
L 235.262584 205.610369 
L 235.359413 205.689507 
L 235.520796 205.926922 
L 235.601488 206.006061 
L 235.746732 206.164337 
L 235.908115 206.243476 
L 236.037222 206.322614 
L 236.117913 206.401752 
L 236.263158 206.639167 
L 236.279296 206.560029 
L 236.359988 206.718306 
L 236.521371 206.955721 
L 236.876413 206.876582 
L 237.005519 206.718306 
L 237.070073 206.876582 
L 237.118488 206.797444 
L 237.247594 206.718306 
L 237.392839 206.639167 
L 237.538083 206.480891 
L 237.57036 206.560029 
L 237.634913 206.480891 
L 237.812434 206.164337 
L 237.860849 206.085199 
L 238.006094 205.926922 
L 238.167477 205.847784 
L 238.312721 205.689507 
L 238.474104 205.610369 
L 238.619349 205.452092 
L 238.829147 205.372954 
L 238.974392 205.214677 
L 239.103498 205.135539 
L 239.264881 204.898124 
L 239.329434 204.818986 
L 239.490817 204.581571 
L 239.732891 204.502432 
L 239.861998 204.423294 
L 240.152487 204.344156 
L 240.281593 204.265017 
L 240.378423 204.344156 
L 240.394561 204.265017 
L 240.572083 204.185879 
L 240.701189 204.10674 
L 240.959402 204.027602 
L 241.104646 203.869325 
L 241.459689 203.790187 
L 241.604934 203.63191 
L 241.717902 203.552772 
L 241.879285 203.315357 
L 242.169774 203.315357 
L 242.363433 214.869555 
L 242.799167 224.445293 
L 243.234901 230.855499 
L 243.654497 235.524661 
L 243.783603 236.711736 
L 244.396859 241.697451 
L 244.638933 243.438495 
L 244.961699 245.57523 
L 246.494837 252.539404 
L 246.55939 252.618542 
L 246.946709 253.963894 
L 246.978986 254.043032 
L 247.237199 254.755277 
L 247.269475 254.834415 
L 247.527688 255.54666 
L 247.592241 255.625799 
L 247.834316 256.258906 
L 247.850454 256.258906 
L 247.995699 256.733736 
L 248.011837 256.654597 
L 248.060252 256.812874 
L 248.092528 256.812874 
L 248.302326 257.287704 
L 248.366879 257.366842 
L 248.576677 257.841672 
L 248.657369 257.920811 
L 248.83489 258.237364 
L 248.996273 258.316502 
L 249.173794 258.633056 
L 249.238347 258.712194 
L 249.383592 258.870471 
L 249.544975 258.949609 
L 249.706358 259.187024 
L 249.819326 259.266162 
L 249.980709 259.503577 
L 250.303475 259.582716 
L 250.416443 259.740992 
L 250.432581 259.661854 
L 250.513273 259.740992 
L 250.610102 259.899269 
L 250.642379 259.820131 
L 250.884453 259.899269 
L 251.01356 259.978407 
L 251.255634 260.057546 
L 251.271772 260.136684 
L 251.352464 259.978407 
L 251.497709 260.057546 
L 251.626815 260.136684 
L 252.43373 260.057546 
L 252.562836 259.899269 
L 252.691942 260.057546 
L 252.837187 259.899269 
L 252.934017 259.820131 
L 252.99857 259.740992 
L 253.046985 259.820131 
L 253.611825 259.740992 
L 253.75707 259.582716 
L 254.273495 259.503577 
L 254.41874 259.345301 
L 254.499431 259.424439 
L 254.531708 259.345301 
L 254.773783 259.266162 
L 254.789921 259.187024 
L 254.838336 259.345301 
L 254.886751 259.266162 
L 255.354761 259.187024 
L 255.483867 259.107886 
L 255.709804 259.028747 
L 255.83891 258.949609 
L 256.000293 258.870471 
L 256.129399 258.712194 
L 256.258506 258.791332 
L 256.387612 258.712194 
L 256.50058 258.633056 
L 256.645825 258.474779 
L 256.968591 258.395641 
L 257.097697 258.316502 
L 257.129974 258.237364 
L 257.275218 258.079087 
L 257.517293 257.999949 
L 257.646399 257.920811 
L 258.01758 257.841672 
L 258.146686 257.683396 
L 258.162824 257.762534 
L 258.259654 257.683396 
L 258.372622 253.093372 
L 259.647548 253.17251 
L 259.679824 253.251649 
L 259.760516 253.17251 
L 260.244665 253.093372 
L 260.276941 252.935095 
L 260.357633 253.093372 
L 261.42276 253.17251 
L 261.471175 253.251649 
L 261.51959 253.093372 
L 261.535728 253.17251 
L 262.616994 253.093372 
L 262.649271 253.014234 
L 262.729962 253.093372 
L 263.230249 253.17251 
L 263.359356 253.251649 
L 264.392206 253.330787 
L 264.521313 253.409925 
L 266.377217 253.409925 
L 266.570876 235.682938 
L 267.151855 214.869555 
L 268.265397 190.257531 
L 268.507472 187.645966 
L 268.846376 182.027144 
L 268.910929 73.211929 
L 268.991621 142.537113 
L 269.153004 194.451863 
L 269.18528 194.689278 
L 269.233695 194.372725 
L 269.395078 193.739618 
L 269.653291 194.451863 
L 269.75012 194.531002 
L 269.959918 195.005832 
L 270.072886 195.08497 
L 270.153578 195.243247 
L 270.201993 195.164108 
L 270.282684 195.243247 
L 270.395652 195.401523 
L 270.411791 195.322385 
L 270.573173 195.243247 
L 270.621588 195.164108 
L 270.653865 195.243247 
L 270.782971 195.480662 
L 270.79911 195.5598 
L 270.879801 195.480662 
L 271.025046 195.322385 
L 271.154152 195.401523 
L 271.218705 195.5598 
L 271.26712 195.480662 
L 271.428503 195.164108 
L 271.444641 195.243247 
L 271.525333 195.164108 
L 271.670578 195.005832 
L 271.735131 194.926693 
L 271.944929 194.451863 
L 272.02562 194.372725 
L 272.283833 193.581341 
L 272.299971 193.66048 
L 272.396801 193.581341 
L 272.445216 193.581341 
L 272.59046 193.18565 
L 272.832535 192.552543 
L 272.88095 192.473405 
L 273.139162 191.76116 
L 273.332822 191.840298 
L 273.510343 192.156851 
L 273.558758 192.23599 
L 273.704003 192.394266 
L 273.800833 192.473405 
L 273.865386 192.552543 
L 273.897662 192.394266 
L 273.913801 192.473405 
L 274.059045 192.077713 
L 274.220428 191.840298 
L 274.268843 191.76116 
L 274.543194 190.732361 
L 274.575471 190.8115 
L 274.86596 190.732361 
L 274.946651 190.574085 
L 274.96279 190.653223 
L 275.043481 190.732361 
L 275.075758 190.653223 
L 275.172588 190.574085 
L 275.366247 190.178393 
L 275.495354 190.099255 
L 275.753566 189.228733 
L 275.769705 189.307871 
L 275.834258 189.228733 
L 276.076332 188.595626 
L 276.140885 188.753903 
L 276.173162 188.595626 
L 276.544343 187.250274 
L 276.560481 187.329413 
L 276.608896 187.012859 
L 276.689587 186.933721 
L 277.060768 184.559571 
L 277.286704 181.631452 
L 277.351257 70.75864 
L 277.431949 130.745501 
L 277.593332 191.523745 
L 277.754715 192.71082 
L 278.255002 195.718077 
L 278.480938 196.905152 
L 278.868257 198.40878 
L 278.884396 198.329642 
L 278.916672 198.40878 
L 279.094193 198.725333 
L 279.158747 198.804472 
L 279.336268 199.121025 
L 279.69131 199.041887 
L 279.852693 198.804472 
L 280.014076 198.725333 
L 280.240012 198.171365 
L 280.54664 198.092227 
L 280.675746 198.013088 
L 280.804853 197.93395 
L 280.820991 197.854812 
L 280.885544 198.013088 
L 280.917821 197.93395 
L 281.079204 197.854812 
L 281.20831 197.775673 
L 281.563353 197.696535 
L 281.708597 197.45912 
L 281.837704 197.538258 
L 282.031363 197.45912 
L 282.160469 197.379982 
L 282.225023 197.45912 
L 282.257299 197.300843 
L 282.273438 197.379982 
L 282.418682 197.221705 
L 282.483235 197.142567 
L 282.644618 196.905152 
L 282.693033 196.98429 
L 282.773725 197.063428 
L 282.806001 196.98429 
L 282.951246 196.905152 
L 283.128767 196.588598 
L 283.499948 196.50946 
L 283.645193 196.351183 
L 283.903405 196.272045 
L 284.097065 195.876353 
L 284.161618 195.797215 
L 284.306863 195.480662 
L 284.323001 195.5598 
L 284.371416 195.480662 
L 284.548937 195.164108 
L 284.597352 195.08497 
L 284.758735 194.689278 
L 284.774873 194.768417 
L 284.871703 194.689278 
L 285.033086 194.451863 
L 285.065363 194.372725 
L 285.27516 193.897895 
L 285.307437 193.818756 
L 285.452682 193.66048 
L 285.484958 193.581341 
L 285.662479 193.18565 
L 285.678618 193.264788 
L 285.743171 193.106511 
L 285.759309 193.106511 
L 285.823862 193.027373 
L 286.001384 192.71082 
L 286.082075 192.789958 
L 286.114352 192.71082 
L 286.146628 192.631681 
L 286.308011 192.315128 
L 286.453256 192.473405 
L 286.517809 192.394266 
L 286.550086 192.315128 
L 286.614639 192.473405 
L 286.630777 192.394266 
L 286.969681 192.315128 
L 287.001958 192.23599 
L 287.082649 192.315128 
L 287.486107 192.23599 
L 287.631352 192.077713 
L 287.776596 191.998575 
L 288.083224 191.048915 
L 288.341436 190.969776 
L 288.486681 190.653223 
L 288.502819 190.732361 
L 288.535096 190.8115 
L 288.567373 190.890638 
L 288.631926 190.732361 
L 288.728756 190.653223 
L 288.954692 190.099255 
L 289.003107 190.178393 
L 289.16449 190.494946 
L 289.212904 190.415808 
L 289.261319 190.574085 
L 289.600224 190.494946 
L 289.745468 190.020116 
L 289.793883 189.940978 
L 289.922989 189.86184 
L 289.987543 189.782701 
L 290.342585 188.516488 
L 290.358723 188.595626 
L 290.391 188.437349 
L 290.455553 188.516488 
L 290.568521 188.358211 
L 290.58466 188.437349 
L 290.681489 188.358211 
L 290.859011 188.041658 
L 290.907425 187.962519 
L 291.068808 187.725104 
L 291.133362 187.645966 
L 291.375436 187.012859 
L 291.423851 186.933721 
L 292.053244 183.372496 
L 292.101659 180.602654 
L 292.166212 71.075194 
L 292.230766 119.34958 
L 292.408287 190.969776 
L 292.553532 191.602883 
L 292.634223 191.682021 
L 293.392723 194.847555 
L 293.424999 194.926693 
L 293.812319 196.272045 
L 293.876872 196.351183 
L 294.118946 196.98429 
L 294.248053 197.063428 
L 294.377159 197.221705 
L 294.506265 197.142567 
L 294.667648 197.221705 
L 294.829031 197.45912 
L 294.877446 197.538258 
L 295.006552 197.617397 
L 295.11952 197.696535 
L 295.21635 197.775673 
L 295.232489 197.696535 
L 295.490701 197.617397 
L 295.652084 197.379982 
L 295.700499 197.300843 
L 295.87802 196.98429 
L 295.990988 196.905152 
L 296.152371 196.667737 
L 296.216925 196.588598 
L 296.394446 196.272045 
L 296.555829 196.192907 
L 296.571967 196.113768 
L 296.652659 196.192907 
L 296.862456 196.667737 
L 297.29819 196.588598 
L 297.475712 196.272045 
L 297.669371 196.192907 
L 297.879169 195.718077 
L 297.911446 195.638938 
L 298.072828 195.401523 
L 298.121243 195.322385 
L 298.282626 195.08497 
L 298.34718 195.005832 
L 298.556977 194.531002 
L 298.686084 194.451863 
L 298.976573 193.581341 
L 299.057265 193.502203 
L 299.299339 192.869096 
L 299.912594 192.789958 
L 300.090115 192.473405 
L 300.380605 192.394266 
L 300.509711 192.315128 
L 300.606541 192.23599 
L 300.703371 192.156851 
L 300.719509 192.23599 
L 300.8002 192.156851 
L 300.913168 192.077713 
L 300.945445 192.156851 
L 300.977722 191.998575 
L 301.009998 191.998575 
L 301.042275 191.998575 
L 301.171381 191.682021 
L 301.268211 191.602883 
L 301.413456 191.444606 
L 301.478009 191.523745 
L 301.510285 191.444606 
L 301.639392 191.28633 
L 301.703945 191.444606 
L 301.768498 191.365468 
L 301.816913 191.444606 
L 301.946019 191.523745 
L 302.139679 191.602883 
L 302.284924 191.840298 
L 302.397892 191.76116 
L 302.51086 191.840298 
L 302.672243 191.444606 
L 302.688381 191.523745 
L 302.849764 191.444606 
L 303.043423 191.048915 
L 303.091838 190.969776 
L 303.285498 190.574085 
L 303.333913 190.494946 
L 303.511434 190.178393 
L 303.608264 190.099255 
L 303.769647 189.86184 
L 303.963306 189.782701 
L 304.092413 189.466148 
L 304.156966 189.38701 
L 304.30221 189.070456 
L 304.318349 189.149595 
L 304.479732 189.070456 
L 304.608838 188.753903 
L 304.641115 188.833041 
L 304.721806 188.833041 
L 304.818636 188.516488 
L 304.850912 188.595626 
L 304.899327 188.595626 
L 305.06071 187.883381 
L 305.109125 187.962519 
L 305.141402 187.725104 
L 305.15754 187.804243 
L 305.189817 187.725104 
L 305.399615 187.250274 
L 305.464168 187.171136 
L 305.81921 185.984061 
L 305.835348 185.984061 
L 306.093561 184.401294 
L 306.125838 184.322156 
L 306.335636 181.631452 
L 306.351774 180.681792 
L 306.416327 71.470885 
L 306.497019 130.982916 
L 306.658402 190.574085 
L 306.739093 191.207191 
L 306.787508 191.048915 
L 306.965029 190.732361 
L 307.207104 190.8115 
L 307.836497 193.343926 
L 307.868774 193.423065 
L 308.062433 193.818756 
L 308.110848 193.897895 
L 308.304508 194.768417 
L 308.482029 195.08497 
L 308.788657 195.005832 
L 308.885486 194.926693 
L 308.901625 195.005832 
L 309.095284 195.08497 
L 309.22439 195.243247 
L 309.353497 195.164108 
L 309.466465 195.243247 
L 309.579433 195.322385 
L 309.740816 195.08497 
L 310.111997 195.164108 
L 310.257241 195.322385 
L 310.434763 195.243247 
L 310.596146 195.005832 
L 310.967326 194.926693 
L 311.112571 194.768417 
L 311.160986 194.689278 
L 311.419199 193.977033 
L 311.548305 193.897895 
L 311.725826 193.581341 
L 311.919486 193.502203 
L 312.048592 193.423065 
L 312.306805 193.343926 
L 312.484326 193.027373 
L 312.532741 192.948235 
L 312.710262 192.631681 
L 312.903922 192.552543 
L 313.065305 192.315128 
L 313.178273 192.23599 
L 313.323517 192.077713 
L 313.67856 191.998575 
L 313.743113 192.077713 
L 313.856081 191.682021 
L 314.162709 191.602883 
L 314.275677 191.523745 
L 314.404783 191.602883 
L 314.646858 190.969776 
L 314.743687 190.890638 
L 314.856655 190.653223 
L 314.888932 190.732361 
L 314.985762 190.653223 
L 315.19556 190.178393 
L 315.260113 190.099255 
L 315.437634 189.782701 
L 315.631294 189.703563 
L 315.776538 189.545286 
L 315.905645 189.466148 
L 315.937921 189.38701 
L 315.986336 189.545286 
L 316.228411 190.969776 
L 316.260687 191.048915 
L 316.42207 191.602883 
L 316.631868 192.156851 
L 316.777113 191.998575 
L 317.116017 191.919436 
L 317.2774 191.682021 
L 317.422644 191.840298 
L 317.713134 191.76116 
L 317.84224 191.682021 
L 317.874517 191.602883 
L 318.229559 190.415808 
L 318.310251 190.33667 
L 318.826676 188.358211 
L 318.891229 188.279073 
L 319.213995 187.250274 
L 319.310825 187.250274 
L 319.472208 186.696306 
L 319.633591 185.430093 
L 319.859527 182.185421 
L 319.891804 128.925319 
L 319.92408 72.499684 
L 319.988633 109.932118 
L 320.166155 188.674765 
L 320.246846 189.38701 
L 320.295261 189.149595 
L 320.359814 189.228733 
L 320.569612 189.703563 
L 320.58575 189.624425 
L 320.618027 189.782701 
L 320.666442 189.782701 
L 320.843963 190.099255 
L 320.892378 190.178393 
L 321.311974 191.682021 
L 321.360388 191.76116 
L 321.554048 192.156851 
L 321.699293 192.23599 
L 321.844537 192.394266 
L 321.941367 192.473405 
L 322.118888 192.789958 
L 322.29641 192.869096 
L 322.441654 193.106511 
L 322.473931 193.027373 
L 322.538484 193.106511 
L 322.699867 193.343926 
L 322.716005 193.264788 
L 322.780558 193.423065 
L 323.022633 194.056172 
L 323.652026 193.977033 
L 323.764994 193.818756 
L 323.781133 193.897895 
L 323.877963 193.818756 
L 324.023207 193.502203 
L 324.039345 193.581341 
L 324.152314 193.502203 
L 324.168452 193.423065 
L 324.233005 193.66048 
L 324.249143 193.581341 
L 324.265282 193.66048 
L 324.329835 193.502203 
L 324.345973 193.502203 
L 324.475079 193.423065 
L 324.701016 193.502203 
L 324.830122 193.66048 
L 324.894675 193.581341 
L 324.94309 193.66048 
L 325.685452 193.581341 
L 325.846835 193.343926 
L 325.911388 193.264788 
L 326.040494 193.18565 
L 326.185739 193.106511 
L 326.379398 192.71082 
L 326.395537 192.71082 
L 326.540781 192.315128 
L 326.589196 192.23599 
L 326.798994 191.76116 
L 326.9281 191.682021 
L 327.073345 191.444606 
L 327.089483 191.523745 
L 327.12176 191.365468 
L 327.154036 191.365468 
L 327.299281 191.207191 
L 327.412249 191.28633 
L 327.525217 191.207191 
L 327.573632 191.28633 
L 327.605909 191.128053 
L 327.622047 191.207191 
L 327.751153 191.128053 
L 327.78343 191.048915 
L 327.960951 190.732361 
L 328.186887 190.653223 
L 328.428962 190.020116 
L 328.493515 190.020116 
L 328.622621 189.545286 
L 328.63876 189.624425 
L 328.961525 189.703563 
L 328.977664 189.782701 
L 329.00994 189.624425 
L 329.058355 189.624425 
L 329.187462 189.545286 
L 329.252015 189.466148 
L 329.461813 188.991318 
L 329.558642 188.91218 
L 329.687749 188.833041 
L 329.800717 188.91218 
L 329.9621 188.437349 
L 329.978238 188.516488 
L 330.091206 188.833041 
L 330.123483 188.674765 
L 330.204174 188.595626 
L 330.397834 188.120796 
L 330.43011 188.199934 
L 330.478525 188.041658 
L 330.494664 188.041658 
L 330.688323 188.041658 
L 330.833568 187.645966 
L 330.930398 187.645966 
L 331.124057 205.768646 
L 331.495238 218.589056 
L 332.076216 230.143254 
L 332.786301 239.006748 
L 333.528663 245.258676 
L 335.158631 252.69768 
L 335.174769 252.69768 
L 335.336152 253.330787 
L 335.35229 253.330787 
L 335.529812 254.043032 
L 335.997822 255.784075 
L 336.046237 255.863214 
L 336.272173 256.417182 
L 336.30445 256.496321 
L 336.530386 257.050289 
L 336.675631 257.129427 
L 336.86929 257.525119 
L 336.917705 257.604257 
L 337.079088 257.999949 
L 337.095226 257.920811 
L 337.111365 257.920811 
L 337.256609 258.316502 
L 337.337301 258.395641 
L 337.53096 258.791332 
L 337.660067 258.870471 
L 337.853726 259.266162 
L 338.015109 259.345301 
L 338.19263 259.661854 
L 338.321737 259.740992 
L 338.466981 259.899269 
L 338.579949 259.978407 
L 338.709056 260.057546 
L 339.306173 259.978407 
L 339.386864 259.899269 
L 339.419141 259.978407 
L 340.758619 259.899269 
L 340.920002 259.661854 
L 341.065247 259.582716 
L 341.22663 259.345301 
L 341.371874 259.266162 
L 341.517119 259.107886 
L 341.662364 259.028747 
L 341.69464 258.949609 
L 341.775332 259.028747 
L 341.936715 258.949609 
L 342.065821 258.870471 
L 342.194928 258.949609 
L 342.630662 258.870471 
L 342.6468 258.791332 
L 342.679076 258.949609 
L 342.74363 258.870471 
L 343.11481 258.791332 
L 343.163225 258.712194 
L 343.227778 258.791332 
L 343.760342 258.712194 
L 343.792619 258.633056 
L 343.87331 258.712194 
L 343.97014 258.633056 
L 344.050831 258.553917 
L 344.083108 258.633056 
L 344.228353 258.553917 
L 344.357459 258.474779 
L 344.680225 258.395641 
L 344.696363 258.316502 
L 344.793193 258.395641 
L 344.922299 258.316502 
L 345.051406 258.237364 
L 345.083682 258.316502 
L 345.164374 258.237364 
L 345.600108 258.158226 
L 345.616246 258.079087 
L 345.713076 258.158226 
L 345.793767 258.079087 
L 345.922874 257.999949 
L 346.068118 257.920811 
L 346.181086 257.762534 
L 346.197225 257.841672 
L 346.261778 257.762534 
L 346.390884 257.683396 
L 346.568406 257.604257 
L 346.584544 257.525119 
L 346.681374 257.604257 
L 346.971863 257.525119 
L 347.117108 257.366842 
L 347.940161 257.445981 
L 347.972437 257.525119 
L 348.053129 257.445981 
L 349.666958 257.525119 
L 349.683097 257.604257 
L 349.779926 257.525119 
L 351.16782 257.604257 
L 351.264649 257.683396 
L 351.280788 257.604257 
L 353.362628 257.525119 
L 353.394904 257.445981 
L 353.443319 257.604257 
L 353.475596 257.525119 
L 354.702106 257.445981 
L 354.815074 257.366842 
L 354.831213 257.445981 
L 354.879628 257.287704 
L 354.928042 257.366842 
L 355.024872 257.287704 
L 355.041011 257.366842 
L 355.121702 257.366842 
L 355.13784 257.208566 
L 355.3315 222.466835 
L 355.79951 187.250274 
L 355.89634 174.192449 
L 355.944755 68.780182 
L 356.009308 121.486315 
L 356.154553 185.667508 
L 356.170691 185.509231 
L 356.364351 179.573856 
L 356.800085 168.89018 
L 356.864638 71.154332 
L 356.945329 120.378378 
L 357.122851 179.573856 
L 357.284234 180.998346 
L 357.494031 181.473176 
L 357.542446 181.394037 
L 357.590861 181.473176 
L 357.703829 181.789729 
L 357.719968 181.710591 
L 357.865212 181.631452 
L 358.187978 180.602654 
L 358.236393 180.523516 
L 358.768957 177.357982 
L 359.043308 173.63848 
L 359.172414 168.098797 
L 359.236967 67.988798 
L 359.30152 107.716244 
L 359.49518 179.811271 
L 359.672701 182.106282 
L 359.898637 182.818527 
L 359.914776 182.739389 
L 360.092297 182.818527 
L 360.140712 182.897666 
L 360.172988 182.739389 
L 360.189127 182.739389 
L 360.25368 182.660251 
L 360.528031 181.868867 
L 360.640999 181.789729 
L 360.834658 181.156622 
L 360.866935 181.235761 
L 360.947627 181.156622 
L 361.092871 180.760931 
L 361.125148 180.840069 
L 361.173563 180.760931 
L 361.383361 180.286101 
L 361.447914 180.206962 
L 361.722265 179.415579 
L 361.786818 179.336441 
L 362.028892 178.703334 
L 362.125722 178.624196 
L 362.43235 177.674535 
L 362.496903 177.595397 
L 363.303818 174.192449 
L 363.352233 174.271587 
L 363.384509 174.034172 
L 363.56203 170.077255 
L 363.626584 66.96 
L 363.707275 117.291983 
L 363.884796 178.782472 
L 364.046179 180.840069 
L 364.143009 180.919207 
L 364.304392 181.156622 
L 364.336669 181.235761 
L 364.352807 181.314899 
L 364.433498 181.235761 
L 364.449637 181.156622 
L 364.530328 181.314899 
L 364.836956 181.394037 
L 364.853094 181.473176 
L 364.885371 181.314899 
L 364.917647 181.314899 
L 365.304966 179.969547 
L 365.595456 179.890409 
L 366.257126 177.199705 
L 366.321679 177.278844 
L 366.370094 177.43712 
L 366.418509 177.199705 
L 366.773551 176.01263 
L 366.805828 176.091769 
L 366.838104 175.854354 
L 366.967211 175.5378 
L 366.999487 175.616939 
L 367.015626 175.696077 
L 367.06404 175.5378 
L 367.080179 175.5378 
L 367.225423 175.379524 
L 367.273838 175.300385 
L 367.45136 174.58814 
L 367.628881 173.16365 
L 367.854817 171.897437 
L 367.887093 171.818298 
L 367.967785 170.393808 
L 368.000062 164.774986 
L 368.064615 68.067937 
L 368.129168 105.896063 
L 368.338966 177.991089 
L 368.516487 179.811271 
L 368.694008 180.206962 
L 368.806976 180.127824 
L 368.952221 180.286101 
L 369.000636 180.127824 
L 369.081327 180.206962 
L 369.194295 180.365239 
L 369.210434 180.286101 
L 369.24271 180.286101 
L 369.323402 180.127824 
L 369.355678 180.206962 
L 369.387955 180.444377 
L 369.484785 180.286101 
L 369.581614 180.206962 
L 369.839827 179.494717 
L 369.952795 179.415579 
L 370.501497 177.278844 
L 370.533774 177.199705 
L 370.695157 176.48746 
L 370.808125 176.566599 
L 371.114753 175.616939 
L 371.163167 175.5378 
L 371.308412 175.300385 
L 371.32455 175.379524 
L 371.389104 175.142109 
L 371.405242 175.221247 
L 371.534348 175.300385 
L 371.679593 175.696077 
L 371.744146 175.5378 
L 371.808699 175.616939 
L 371.857114 175.5378 
L 371.970082 175.300385 
L 372.002359 175.379524 
L 372.08305 175.300385 
L 372.551061 173.480204 
L 372.567199 173.559342 
L 372.615614 173.321927 
L 372.825412 171.897437 
L 372.922242 168.573627 
L 372.986795 67.593107 
L 373.067486 110.644363 
L 373.261146 176.170907 
L 373.454805 177.91195 
L 373.69688 178.545057 
L 373.858263 178.465919 
L 373.955092 178.307642 
L 373.971231 178.386781 
L 374.051922 178.545057 
L 374.084199 178.465919 
L 374.374688 177.595397 
L 374.45538 177.516259 
L 374.616763 177.199705 
L 374.713592 177.278844 
L 374.729731 177.199705 
L 374.842699 177.120567 
L 375.068635 176.566599 
L 375.100911 176.645737 
L 375.197741 176.804014 
L 375.230018 176.724875 
L 375.262294 176.645737 
L 375.617337 175.458662 
L 375.665752 175.379524 
L 375.827135 174.746417 
L 375.859411 174.825555 
L 375.891688 174.904694 
L 375.940103 174.667279 
L 376.149901 174.11331 
L 376.182177 174.192449 
L 376.262869 174.11331 
L 376.295145 174.034172 
L 376.698603 172.609682 
L 376.779294 172.68882 
L 376.795432 172.609682 
L 377.118198 170.472947 
L 377.182752 168.811042 
L 377.215028 140.083825 
L 377.263443 68.226213 
L 377.327996 100.593794 
L 377.537794 174.271587 
L 377.683039 176.329184 
L 377.699177 176.250045 
L 377.95739 176.96229 
L 378.054219 177.041429 
L 378.215602 177.278844 
L 378.393124 177.199705 
L 378.538368 177.041429 
L 378.586783 176.96229 
L 378.877273 176.091769 
L 378.941826 176.01263 
L 378.990241 175.933492 
L 379.022517 176.091769 
L 379.038655 176.091769 
L 379.167762 176.01263 
L 379.474389 175.06297 
L 379.522804 174.983832 
L 379.668049 174.825555 
L 379.74874 174.746417 
L 379.990815 174.11331 
L 380.023091 174.034172 
L 380.216751 173.005373 
L 380.232889 173.084512 
L 380.297442 172.847097 
L 380.426549 172.767958 
L 380.491102 172.847097 
L 380.571794 173.005373 
L 380.620208 172.926235 
L 380.684762 172.847097 
L 380.846145 172.530543 
L 380.862283 172.609682 
L 380.910698 172.293128 
L 380.959113 172.21399 
L 381.394847 169.523287 
L 381.540091 166.51603 
L 381.572368 135.572939 
L 381.620783 67.90966 
L 381.685336 99.80241 
L 381.911272 175.300385 
L 382.104932 177.120567 
L 382.185623 177.199705 
L 382.395421 177.674535 
L 382.459974 177.753674 
L 382.605219 177.91195 
L 382.702048 177.832812 
L 382.944123 177.199705 
L 383.121644 177.278844 
L 383.234612 177.595397 
L 383.283027 177.516259 
L 383.379857 177.595397 
L 383.395995 177.674535 
L 383.44441 177.516259 
L 383.460548 177.516259 
L 383.670346 177.041429 
L 383.702623 176.96229 
L 383.912421 176.48746 
L 383.944697 176.408322 
L 384.089942 176.091769 
L 384.10608 176.170907 
L 384.154495 176.091769 
L 384.348155 175.696077 
L 384.380431 175.616939 
L 384.477261 175.379524 
L 384.525676 175.458662 
L 384.735474 175.379524 
L 384.896857 174.983832 
L 384.912995 175.06297 
L 384.993686 174.983832 
L 385.042101 174.904694 
L 385.106654 174.983832 
L 385.171208 174.904694 
L 385.300314 174.58814 
L 385.332591 174.667279 
L 385.364867 174.825555 
L 385.42942 174.667279 
L 386.123367 170.7895 
L 386.317027 166.357753 
L 386.38158 69.571565 
L 386.47841 116.5006 
L 386.672069 173.955034 
L 386.833452 175.458662 
L 386.84959 175.379524 
L 386.898005 175.696077 
L 387.107803 176.329184 
L 387.123941 176.250045 
L 387.172356 176.329184 
L 387.349877 176.645737 
L 387.527399 176.329184 
L 387.688782 176.250045 
L 387.882441 175.854354 
L 387.979271 175.854354 
L 388.140654 176.48746 
L 388.318175 176.170907 
L 388.415005 176.250045 
L 388.431143 176.170907 
L 388.527973 176.091769 
L 388.657079 176.01263 
L 388.689356 176.091769 
L 388.737771 175.933492 
L 388.753909 175.933492 
L 389.012122 175.221247 
L 389.076675 175.221247 
L 389.238058 174.667279 
L 390.077249 169.998117 
L 390.319324 165.328955 
L 390.3516 126.788584 
L 390.400015 69.175873 
L 390.464568 101.068624 
L 390.674366 172.21399 
L 390.835749 174.192449 
L 390.868026 174.271587 
L 391.142377 175.06297 
L 391.158515 175.06297 
L 391.174653 174.904694 
L 391.271483 174.983832 
L 391.352175 174.825555 
L 391.384451 174.983832 
L 391.497419 174.904694 
L 391.513558 174.825555 
L 391.594249 174.983832 
L 391.739494 174.904694 
L 391.96543 174.350725 
L 392.078398 174.271587 
L 392.417302 173.16365 
L 392.449579 173.16365 
L 392.610962 172.530543 
L 392.659377 172.451405 
L 392.869174 171.422607 
L 392.885313 171.422607 
L 393.175802 169.602425 
L 393.627674 166.832583 
L 393.724504 164.379295 
L 393.756781 134.544141 
L 393.805196 69.729842 
L 393.869749 95.52894 
L 394.111823 171.580883 
L 394.305483 174.034172 
L 394.499142 174.983832 
L 394.547557 175.06297 
L 394.757355 175.5378 
L 394.967153 175.616939 
L 395.015568 175.775215 
L 395.080121 175.696077 
L 395.386749 174.746417 
L 395.419025 174.667279 
L 395.56427 174.509002 
L 395.612685 174.509002 
L 395.757929 174.11331 
L 395.806344 174.034172 
L 395.967727 173.559342 
L 396.000004 173.63848 
L 396.096833 173.559342 
L 396.290493 172.68882 
L 396.32277 172.609682 
L 396.726227 171.185192 
L 396.758504 171.106053 
L 397.048993 169.918978 
L 397.097408 169.998117 
L 397.129684 170.077255 
L 397.161961 169.918978 
L 397.517003 165.803785 
L 397.565418 160.184963 
L 397.629972 69.967257 
L 397.710663 104.392434 
L 397.936599 171.026915 
L 398.130259 173.480204 
L 398.162535 173.559342 
L 398.501439 174.667279 
L 398.582131 174.746417 
L 398.727376 174.904694 
L 398.904897 174.825555 
L 399.050142 174.667279 
L 399.211524 174.58814 
L 399.453599 173.955034 
L 399.582705 173.875895 
L 399.744088 173.559342 
L 399.857056 173.63848 
L 399.889333 173.559342 
L 399.953886 173.717619 
L 400.018439 173.63848 
L 400.438035 172.134852 
L 400.470311 172.055713 
L 401.196535 168.019658 
L 401.406333 163.904465 
L 401.487024 69.967257 
L 401.583854 115.630078 
L 401.777513 169.602425 
L 401.955035 172.134852 
L 402.229386 173.796757 
L 402.358492 174.034172 
L 402.37463 173.955034 
L 402.439183 173.875895 
L 402.519875 173.796757 
L 402.552152 173.875895 
L 402.842641 173.796757 
L 403.068577 173.242789 
L 403.100854 173.16365 
L 403.294513 172.767958 
L 403.342928 172.68882 
L 403.455896 172.530543 
L 403.472034 172.609682 
L 403.923907 172.530543 
L 404.053013 172.451405 
L 404.165981 172.530543 
L 404.214396 172.609682 
L 404.278949 172.530543 
L 404.359641 172.609682 
L 404.424194 172.68882 
L 404.472609 172.609682 
L 404.521024 172.530543 
L 404.730821 171.73916 
L 404.779236 171.818298 
L 404.843789 171.897437 
L 404.892204 171.818298 
L 405.102002 171.73916 
L 405.344077 171.106053 
L 405.392492 171.026915 
L 405.50546 170.552085 
L 405.537736 170.631223 
L 405.602289 170.552085 
L 406.005747 168.019658 
L 406.215545 165.012401 
L 406.296236 160.501516 
L 406.376928 70.996055 
L 406.441481 101.860007 
L 406.667417 170.31467 
L 406.861076 173.16365 
L 407.280672 174.667279 
L 407.442055 174.58814 
L 407.571161 174.271587 
L 407.813236 174.350725 
L 407.893927 174.429864 
L 407.926204 174.350725 
L 408.119863 174.429864 
L 408.200555 174.58814 
L 408.24897 174.509002 
L 408.3458 174.429864 
L 408.523321 174.11331 
L 408.604012 174.11331 
L 408.797672 173.242789 
L 409.104299 172.293128 
L 409.152714 172.21399 
L 409.749831 169.83984 
L 409.798246 169.760702 
L 409.927352 169.206733 
L 409.975767 169.444148 
L 410.395363 169.36501 
L 410.944065 166.120338 
L 411.105448 159.551856 
L 411.186139 70.996055 
L 411.250693 100.514655 
L 411.476629 170.156393 
L 411.65415 172.926235 
L 411.896224 174.271587 
L 412.057607 174.509002 
L 412.138299 174.429864 
L 412.267405 174.271587 
L 412.299682 174.350725 
L 412.348097 174.192449 
L 412.364235 174.192449 
L 412.525618 174.11331 
L 412.590171 174.034172 
L 412.622448 174.192449 
L 412.703139 174.509002 
L 412.767692 174.429864 
L 412.97749 173.955034 
L 413.058182 173.875895 
L 413.203426 173.717619 
L 413.300256 173.63848 
L 413.477777 173.005373 
L 413.510054 173.16365 
L 413.752128 173.084512 
L 414.252416 171.185192 
L 414.316969 171.106053 
L 414.462213 170.947777 
L 414.510628 170.868638 
L 414.801118 169.998117 
L 414.833394 169.918978 
L 415.382096 163.587911 
L 415.414373 155.753216 
L 415.478926 70.75864 
L 415.543479 96.795154 
L 415.785554 170.31467 
L 415.979213 172.847097 
L 416.189011 173.875895 
L 416.414947 174.429864 
L 416.544053 174.350725 
L 416.76999 174.350725 
L 416.931373 173.796757 
L 416.963649 173.875895 
L 417.012064 173.63848 
L 417.060479 173.559342 
L 417.286415 173.005373 
L 417.399383 172.926235 
L 417.818979 171.422607 
L 417.851255 171.343468 
L 418.109468 170.631223 
L 418.238574 170.552085 
L 418.56134 169.523287 
L 418.577479 169.602425 
L 418.625894 169.444148 
L 418.642032 169.444148 
L 419.126181 166.51603 
L 419.335979 162.875666 
L 419.368255 148.076797 
L 419.432808 70.916917 
L 419.497362 97.586537 
L 419.787851 192.077713 
L 420.046064 210.912638 
L 420.433383 224.761847 
L 420.83684 233.387926 
L 421.224159 238.848471 
L 421.627616 243.20108 
L 421.788999 244.546431 
L 422.224733 247.791103 
L 422.757297 250.956637 
L 422.950957 251.827159 
L 423.67718 254.834415 
L 423.709457 254.913554 
L 424.145191 256.496321 
L 424.177467 256.575459 
L 424.451818 257.366842 
L 424.500233 257.445981 
L 424.758446 258.158226 
L 424.855276 258.237364 
L 425.129627 259.028747 
L 425.145765 258.949609 
L 425.178041 259.107886 
L 425.210318 259.107886 
L 425.436254 259.661854 
L 425.549222 259.740992 
L 425.726743 260.057546 
L 425.839712 260.136684 
L 426.017233 260.453237 
L 426.097924 260.532376 
L 426.259307 260.769791 
L 426.32386 260.848929 
L 426.501382 261.165482 
L 426.51752 261.086344 
L 426.582073 261.244621 
L 426.598211 261.244621 
L 426.727318 261.323759 
L 426.824148 261.402898 
L 426.98553 261.640313 
L 427.033945 261.719451 
L 427.163052 261.798589 
L 427.243743 261.877728 
L 427.388988 262.115143 
L 427.421264 262.036004 
L 427.501956 262.115143 
L 428.131349 262.194281 
L 428.276594 262.352558 
L 429.148062 262.431696 
L 429.1642 262.510834 
L 429.244892 262.431696 
L 429.341722 262.352558 
L 429.35786 262.431696 
L 429.729041 262.510834 
L 429.793594 262.589973 
L 429.842009 262.510834 
L 430.697338 262.431696 
L 430.826445 262.352558 
L 431.310594 262.273419 
L 431.375147 262.194281 
L 431.423562 262.273419 
L 431.4397 262.352558 
L 431.520391 262.273419 
L 431.649498 262.194281 
L 432.036817 262.115143 
L 432.165923 262.036004 
L 432.633934 261.956866 
L 432.76304 261.877728 
L 433.392434 261.798589 
L 433.52154 261.719451 
L 433.795891 261.640313 
L 433.860444 261.482036 
L 433.908859 261.561174 
L 433.989551 261.640313 
L 434.021827 261.561174 
L 434.74805 261.482036 
L 434.877157 261.402898 
L 435.232199 261.323759 
L 435.377444 261.165482 
L 435.458135 261.244621 
L 435.490412 261.165482 
L 435.780901 261.165482 
L 435.780901 261.165482 
" style="fill:none;stroke:#1f77b4;stroke-linecap:square;stroke-width:1.5;"/>
   </g>
   <g id="line2d_15">
    <path clip-path="url(#p53bf9d22eb)" d="M 80.754545 254.027204 
L 88.904385 254.108242 
L 89.61447 237.803465 
L 90.260001 227.544098 
L 90.953948 219.877935 
L 91.631756 214.72394 
L 92.374118 210.898962 
L 93.132618 208.305757 
L 93.665182 207.04157 
L 94.407543 205.79359 
L 95.876128 204.464572 
L 96.069788 204.367327 
L 96.360277 204.221459 
L 96.634628 204.124214 
L 96.860564 204.043177 
L 97.247883 203.945931 
L 97.441543 203.897309 
L 98.054798 203.800064 
L 98.232319 203.767649 
L 105.252478 203.864894 
L 105.413861 203.881101 
L 107.479562 203.978346 
L 107.640945 203.994554 
L 109.755062 204.091799 
L 109.916445 204.108007 
L 112.159668 204.205252 
L 112.321051 204.221459 
L 114.725657 204.318705 
L 114.88704 204.334912 
L 117.469167 204.432157 
L 117.63055 204.448365 
L 120.422475 204.54561 
L 120.583858 204.561818 
L 123.617857 204.659063 
L 123.77924 204.67527 
L 127.119868 204.772516 
L 127.28125 204.788723 
L 130.97692 204.885968 
L 131.138303 204.902176 
L 135.269707 204.999421 
L 135.43109 205.015628 
L 140.111195 205.112874 
L 140.272578 205.129081 
L 145.64663 205.226326 
L 145.808013 205.242534 
L 152.150363 205.339779 
L 152.311746 205.355987 
L 153.457565 205.372194 
L 154.16765 221.693179 
L 154.813182 231.952546 
L 155.394161 238.581427 
L 156.201075 244.902364 
L 156.943437 248.711134 
L 157.685799 251.239509 
L 158.234501 252.552319 
L 158.960724 253.767884 
L 160.493862 255.161732 
L 160.70366 255.258977 
L 160.994149 255.404845 
L 161.284638 255.50209 
L 161.510575 255.583127 
L 161.897894 255.680373 
L 162.091553 255.728995 
L 162.720947 255.82624 
L 162.898468 255.858655 
L 169.515169 255.82624 
L 169.628137 254.027204 
L 177.681146 254.108242 
L 178.391231 232.357734 
L 179.149731 216.749881 
L 179.892093 206.603967 
L 180.569901 200.299237 
L 181.409093 195.145242 
L 182.522635 191.125774 
L 183.862113 188.678437 
L 185.040209 187.641154 
L 185.21773 187.543909 
L 185.50822 187.398042 
L 185.750294 187.300796 
L 185.992368 187.203551 
L 186.379687 187.106306 
L 186.589485 187.041476 
L 187.251155 186.944231 
L 187.428677 186.911816 
L 192.851144 187.009061 
L 193.012527 187.025268 
L 194.513388 187.122513 
L 194.674771 187.138721 
L 196.143356 187.235966 
L 196.304739 187.252174 
L 197.821739 187.349419 
L 197.983122 187.365626 
L 199.548536 187.462872 
L 199.709919 187.479079 
L 201.356025 187.576324 
L 201.517408 187.592532 
L 203.260344 187.689777 
L 203.421727 187.705985 
L 205.261493 187.80323 
L 205.422876 187.819437 
L 207.359471 187.916683 
L 207.520854 187.93289 
L 209.602694 188.030135 
L 209.764077 188.046343 
L 211.975024 188.143588 
L 212.136407 188.159796 
L 214.524874 188.257041 
L 214.686257 188.273248 
L 217.236108 188.370493 
L 217.397491 188.386701 
L 220.173278 188.483946 
L 220.334661 188.500154 
L 223.36866 188.597399 
L 223.530043 188.613606 
L 226.838394 188.710852 
L 226.999776 188.727059 
L 230.679308 188.824304 
L 230.840691 188.840512 
L 234.939818 188.937757 
L 235.101201 188.953965 
L 239.765168 189.05121 
L 239.926551 189.067417 
L 242.234327 189.11604 
L 242.944412 210.882755 
L 243.622221 225.129175 
L 244.235476 234.205393 
L 244.832593 240.558746 
L 245.494263 245.566873 
L 246.236624 249.39185 
L 246.995124 251.985055 
L 248.512124 254.788958 
L 249.59339 255.728995 
L 249.787049 255.82624 
L 250.093677 255.988316 
L 250.335751 256.085561 
L 250.577826 256.182806 
L 250.949007 256.280051 
L 251.158804 256.344881 
L 251.77206 256.442127 
L 251.949581 256.474542 
L 258.291931 256.409712 
L 258.404899 254.027204 
L 266.457908 254.108242 
L 267.167993 221.482481 
L 267.86194 199.715766 
L 268.507472 185.647628 
L 269.072312 174.107866 
L 269.18528 227.3334 
L 269.411216 227.3334 
L 270.121301 217.09024 
L 270.815248 210.039963 
L 271.686716 203.929724 
L 272.800258 198.905389 
L 274.155875 195.161449 
L 275.414662 192.876187 
L 275.753566 192.389961 
L 276.140885 191.855113 
L 276.867109 190.979906 
L 277.157598 190.639548 
L 279.949523 187.981513 
L 280.078629 187.884267 
L 280.966236 187.138721 
L 281.095342 187.041476 
L 281.821565 186.458005 
L 281.950672 186.360759 
L 282.612342 185.842118 
L 282.757586 185.744873 
L 283.419256 185.226232 
L 283.564501 185.128987 
L 284.177756 184.658969 
L 284.323001 184.561723 
L 284.936256 184.091705 
L 285.081501 183.99446 
L 285.710894 183.508234 
L 285.856139 183.410989 
L 286.517809 182.892348 
L 286.646916 182.795103 
L 287.373139 182.211631 
L 287.502245 182.114386 
L 289.697053 179.764294 
L 290.310309 178.289409 
L 290.536245 176.960391 
L 290.649213 174.902035 
L 290.665351 174.026828 
L 290.778319 227.3334 
L 291.036532 227.252362 
L 291.585234 225.939552 
L 294.958138 219.407917 
L 295.184074 219.035143 
L 295.894159 217.851994 
L 296.136233 217.463013 
L 296.73335 216.506768 
L 297.007701 216.085373 
L 297.556403 215.226373 
L 297.846892 214.78877 
L 298.34718 214.027016 
L 298.669945 213.556998 
L 299.137956 212.860074 
L 299.47686 212.373848 
L 299.912594 211.741754 
L 300.283775 211.223113 
L 300.703371 210.623434 
L 301.106828 210.072378 
L 301.494147 209.53753 
L 301.913743 208.970266 
L 302.284924 208.467833 
L 302.752934 207.851947 
L 303.124115 207.349513 
L 303.672817 206.652589 
L 304.027859 206.182571 
L 304.641115 205.420817 
L 304.980019 204.983213 
L 305.673966 204.140422 
L 305.996731 203.735233 
L 306.819784 202.762782 
L 307.126412 202.390008 
L 308.126986 201.239274 
L 308.417476 200.898915 
L 309.805369 199.3592 
L 310.07972 199.051257 
L 317.777687 191.466132 
L 317.890655 191.368887 
L 319.020336 190.380227 
L 319.149442 190.282982 
L 320.150016 189.423983 
L 320.279123 189.326738 
L 321.150591 188.597399 
L 321.279697 188.500154 
L 322.054335 187.86806 
L 322.183442 187.770815 
L 322.877388 187.219759 
L 323.006495 187.122513 
L 323.668165 186.603872 
L 323.813409 186.506627 
L 324.475079 185.987986 
L 324.620324 185.890741 
L 325.249718 185.404515 
L 325.394962 185.30727 
L 325.992079 184.853459 
L 326.137324 184.756214 
L 326.750579 184.286195 
L 326.895824 184.18895 
L 327.492941 183.735139 
L 327.638185 183.637894 
L 328.267579 183.151668 
L 328.396685 183.054423 
L 329.058355 182.535782 
L 329.187462 182.438537 
L 330.123483 181.644368 
L 330.236451 181.547123 
L 331.011089 180.785369 
L 331.705036 212.600753 
L 332.398982 234.318846 
L 333.109067 249.359435 
L 333.786876 259.083954 
L 334.561514 266.409759 
L 335.110216 269.926793 
L 335.868716 273.184507 
L 336.675631 275.275278 
L 337.240471 276.166693 
L 338.19263 276.977069 
L 338.450843 277.074314 
L 338.660641 277.139145 
L 340.435853 277.041899 
L 340.645651 276.977069 
L 340.952279 276.879824 
L 341.194353 276.782579 
L 341.452566 276.685334 
L 341.710779 276.571881 
L 341.952853 276.474636 
L 342.227204 276.344976 
L 342.437002 276.24773 
L 342.727491 276.101863 
L 342.953427 276.004617 
L 343.260055 275.842542 
L 343.469853 275.745297 
L 343.792619 275.567014 
L 344.002417 275.469769 
L 344.309044 275.307693 
L 344.502704 275.210448 
L 344.82547 275.032165 
L 345.035268 274.93492 
L 345.358033 274.756637 
L 345.567831 274.659392 
L 345.890597 274.481109 
L 346.100395 274.383864 
L 346.423161 274.205581 
L 346.632959 274.108336 
L 346.955725 273.930053 
L 347.068693 273.881431 
L 347.181661 254.027204 
L 355.23467 254.108242 
L 355.928617 190.088492 
L 356.138415 173.718885 
L 356.251383 227.3334 
L 356.477319 227.3334 
L 357.155127 186.052816 
L 357.381063 173.346112 
L 357.494031 227.3334 
L 357.719968 227.3334 
L 358.381638 199.48886 
L 359.188552 173.832337 
L 359.30152 227.3334 
L 359.527457 227.3334 
L 360.237542 210.428944 
L 360.963765 198.013975 
L 361.802956 187.770815 
L 362.464626 181.69299 
L 362.964913 176.393127 
L 363.029467 173.832337 
L 363.142435 227.3334 
L 363.368371 227.3334 
L 364.094594 220.542444 
L 365.17586 212.746621 
L 366.4992 205.437024 
L 367.709572 199.926464 
L 370.243285 190.201944 
L 370.985646 187.624947 
L 371.728008 185.096572 
L 372.615614 182.081971 
L 373.50322 178.078711 
L 373.680741 175.842071 
L 373.729156 173.718885 
L 373.842124 227.3334 
L 374.068061 227.3334 
L 374.82656 222.779083 
L 375.714167 218.095107 
L 377.166613 211.368981 
L 381.120496 195.939411 
L 381.766027 193.654149 
L 382.621357 190.671963 
L 383.573516 187.462872 
L 384.235187 185.258647 
L 385.219623 181.952311 
L 386.074952 178.094918 
L 386.252473 175.906902 
L 386.300888 173.94579 
L 386.413856 227.3334 
L 386.639793 227.3334 
L 387.382154 222.876328 
L 390.012696 210.234454 
L 393.514706 196.620127 
L 394.1441 194.383488 
L 395.031706 191.271642 
L 395.935451 188.208418 
L 396.613259 185.939364 
L 397.678386 182.389914 
L 398.678961 177.949051 
L 398.856482 175.388261 
L 398.888759 173.702677 
L 399.001727 227.3334 
L 399.227663 227.3334 
L 399.986163 222.779083 
L 402.600566 210.218246 
L 406.086438 196.66875 
L 406.715832 194.43211 
L 407.603438 191.320264 
L 408.507182 188.257041 
L 409.184991 185.987986 
L 410.250118 182.438537 
L 411.266831 177.916635 
L 411.428214 175.777241 
L 411.476629 173.427149 
L 411.589597 227.3334 
L 411.815533 227.3334 
L 412.574033 222.779083 
L 415.188437 210.218246 
L 418.690447 196.60392 
L 419.303702 194.415903 
L 419.787851 192.714112 
L 420.465659 253.184413 
L 421.143468 294.351543 
L 421.772861 320.542914 
L 422.418393 338.938463 
L 423.047786 351.029282 
L 423.709457 359.343745 
L 424.274297 363.914269 
L 424.726169 366.345399 
L 425.323286 368.290303 
L 425.629914 368.873774 
L 426.259307 369.36 
L 426.727318 369.262755 
L 427.808584 368.030982 
L 429.938839 363.509081 
L 430.616647 361.80729 
L 431.068519 360.656555 
L 431.875434 358.565784 
L 432.29503 357.479879 
L 433.134221 355.291862 
L 433.569955 354.173543 
L 434.344593 352.180016 
L 434.828742 350.964452 
L 435.50655 349.262661 
L 435.845455 348.419869 
L 435.845455 348.419869 
" style="fill:none;stroke:#ff0000;stroke-linecap:square;stroke-width:1.5;"/>
   </g>
   <g id="patch_3">
    <path d="M 63 384.48 
L 63 51.84 
" style="fill:none;stroke:#000000;stroke-linecap:square;stroke-linejoin:miter;stroke-width:0.8;"/>
   </g>
   <g id="patch_4">
    <path d="M 453.6 384.48 
L 453.6 51.84 
" style="fill:none;stroke:#000000;stroke-linecap:square;stroke-linejoin:miter;stroke-width:0.8;"/>
   </g>
   <g id="patch_5">
    <path d="M 63 384.48 
L 453.6 384.48 
" style="fill:none;stroke:#000000;stroke-linecap:square;stroke-linejoin:miter;stroke-width:0.8;"/>
   </g>
   <g id="patch_6">
    <path d="M 63 51.84 
L 453.6 51.84 
" style="fill:none;stroke:#000000;stroke-linecap:square;stroke-linejoin:miter;stroke-width:0.8;"/>
   </g>
   <g id="legend_1">
    <g id="patch_7">
     <path d="M 70 89.19625 
L 133.139062 89.19625 
Q 135.139062 89.19625 135.139062 87.19625 
L 135.139062 58.84 
Q 135.139062 56.84 133.139062 56.84 
L 70 56.84 
Q 68 56.84 68 58.84 
L 68 87.19625 
Q 68 89.19625 70 89.19625 
z
" style="fill:#ffffff;opacity:0.8;stroke:#cccccc;stroke-linejoin:miter;"/>
    </g>
    <g id="line2d_16">
     <path d="M 72 64.938437 
L 92 64.938437 
" style="fill:none;stroke:#1f77b4;stroke-linecap:square;stroke-width:1.5;"/>
    </g>
    <g id="line2d_17"/>
    <g id="text_16">
     <!-- target -->
     <defs>
      <path d="M 41.109375 46.296875 
Q 39.59375 47.171875 37.8125 47.578125 
Q 36.03125 48 33.890625 48 
Q 26.265625 48 22.1875 43.046875 
Q 18.109375 38.09375 18.109375 28.8125 
L 18.109375 0 
L 9.078125 0 
L 9.078125 54.6875 
L 18.109375 54.6875 
L 18.109375 46.1875 
Q 20.953125 51.171875 25.484375 53.578125 
Q 30.03125 56 36.53125 56 
Q 37.453125 56 38.578125 55.875 
Q 39.703125 55.765625 41.0625 55.515625 
z
" id="DejaVuSans-114"/>
     </defs>
     <g transform="translate(100 68.438437)scale(0.1 -0.1)">
      <use xlink:href="#DejaVuSans-116"/>
      <use x="39.208984" xlink:href="#DejaVuSans-97"/>
      <use x="100.488281" xlink:href="#DejaVuSans-114"/>
      <use x="141.585938" xlink:href="#DejaVuSans-103"/>
      <use x="205.0625" xlink:href="#DejaVuSans-101"/>
      <use x="266.585938" xlink:href="#DejaVuSans-116"/>
     </g>
    </g>
    <g id="line2d_18">
     <path d="M 72 79.616562 
L 92 79.616562 
" style="fill:none;stroke:#ff0000;stroke-linecap:square;stroke-width:1.5;"/>
    </g>
    <g id="line2d_19"/>
    <g id="text_17">
     <!-- model -->
     <defs>
      <path d="M 45.40625 46.390625 
L 45.40625 75.984375 
L 54.390625 75.984375 
L 54.390625 0 
L 45.40625 0 
L 45.40625 8.203125 
Q 42.578125 3.328125 38.25 0.953125 
Q 33.9375 -1.421875 27.875 -1.421875 
Q 17.96875 -1.421875 11.734375 6.484375 
Q 5.515625 14.40625 5.515625 27.296875 
Q 5.515625 40.1875 11.734375 48.09375 
Q 17.96875 56 27.875 56 
Q 33.9375 56 38.25 53.625 
Q 42.578125 51.265625 45.40625 46.390625 
z
M 14.796875 27.296875 
Q 14.796875 17.390625 18.875 11.75 
Q 22.953125 6.109375 30.078125 6.109375 
Q 37.203125 6.109375 41.296875 11.75 
Q 45.40625 17.390625 45.40625 27.296875 
Q 45.40625 37.203125 41.296875 42.84375 
Q 37.203125 48.484375 30.078125 48.484375 
Q 22.953125 48.484375 18.875 42.84375 
Q 14.796875 37.203125 14.796875 27.296875 
z
" id="DejaVuSans-100"/>
     </defs>
     <g transform="translate(100 83.116562)scale(0.1 -0.1)">
      <use xlink:href="#DejaVuSans-109"/>
      <use x="97.412109" xlink:href="#DejaVuSans-111"/>
      <use x="158.59375" xlink:href="#DejaVuSans-100"/>
      <use x="222.070312" xlink:href="#DejaVuSans-101"/>
      <use x="283.59375" xlink:href="#DejaVuSans-108"/>
     </g>
    </g>
   </g>
  </g>
 </g>
 <defs>
  <clipPath id="p53bf9d22eb">
   <rect height="332.64" width="390.6" x="63" y="51.84"/>
  </clipPath>
 </defs>
</svg>
