<?xml version="1.0" encoding="utf-8" standalone="no"?>
<!DOCTYPE svg PUBLIC "-//W3C//DTD SVG 1.1//EN"
  "http://www.w3.org/Graphics/SVG/1.1/DTD/svg11.dtd">
<!-- Created with matplotlib (https://matplotlib.org/) -->
<svg height="432pt" version="1.1" viewBox="0 0 504 432" width="504pt" xmlns="http://www.w3.org/2000/svg" xmlns:xlink="http://www.w3.org/1999/xlink">
 <defs>
  <style type="text/css">
*{stroke-linecap:butt;stroke-linejoin:round;}
  </style>
 </defs>
 <g id="figure_1">
  <g id="patch_1">
   <path d="M 0 432 
L 504 432 
L 504 0 
L 0 0 
z
" style="fill:#ffffff;"/>
  </g>
  <g id="axes_1">
   <g id="patch_2">
    <path d="M 63 384.48 
L 453.6 384.48 
L 453.6 51.84 
L 63 51.84 
z
" style="fill:#ffffff;"/>
   </g>
   <g id="matplotlib.axis_1">
    <g id="xtick_1">
     <g id="line2d_1">
      <defs>
       <path d="M 0 0 
L 0 3.5 
" id="m5716138d87" style="stroke:#000000;stroke-width:0.8;"/>
      </defs>
      <g>
       <use style="stroke:#000000;stroke-width:0.8;" x="80.754545" xlink:href="#m5716138d87" y="384.48"/>
      </g>
     </g>
     <g id="text_1">
      <!-- 0 -->
      <defs>
       <path d="M 31.78125 66.40625 
Q 24.171875 66.40625 20.328125 58.90625 
Q 16.5 51.421875 16.5 36.375 
Q 16.5 21.390625 20.328125 13.890625 
Q 24.171875 6.390625 31.78125 6.390625 
Q 39.453125 6.390625 43.28125 13.890625 
Q 47.125 21.390625 47.125 36.375 
Q 47.125 51.421875 43.28125 58.90625 
Q 39.453125 66.40625 31.78125 66.40625 
z
M 31.78125 74.21875 
Q 44.046875 74.21875 50.515625 64.515625 
Q 56.984375 54.828125 56.984375 36.375 
Q 56.984375 17.96875 50.515625 8.265625 
Q 44.046875 -1.421875 31.78125 -1.421875 
Q 19.53125 -1.421875 13.0625 8.265625 
Q 6.59375 17.96875 6.59375 36.375 
Q 6.59375 54.828125 13.0625 64.515625 
Q 19.53125 74.21875 31.78125 74.21875 
z
" id="DejaVuSans-48"/>
      </defs>
      <g transform="translate(77.573295 399.078438)scale(0.1 -0.1)">
       <use xlink:href="#DejaVuSans-48"/>
      </g>
     </g>
    </g>
    <g id="xtick_2">
     <g id="line2d_2">
      <g>
       <use style="stroke:#000000;stroke-width:0.8;" x="151.763044" xlink:href="#m5716138d87" y="384.48"/>
      </g>
     </g>
     <g id="text_2">
      <!-- 880 -->
      <defs>
       <path d="M 31.78125 34.625 
Q 24.75 34.625 20.71875 30.859375 
Q 16.703125 27.09375 16.703125 20.515625 
Q 16.703125 13.921875 20.71875 10.15625 
Q 24.75 6.390625 31.78125 6.390625 
Q 38.8125 6.390625 42.859375 10.171875 
Q 46.921875 13.96875 46.921875 20.515625 
Q 46.921875 27.09375 42.890625 30.859375 
Q 38.875 34.625 31.78125 34.625 
z
M 21.921875 38.8125 
Q 15.578125 40.375 12.03125 44.71875 
Q 8.5 49.078125 8.5 55.328125 
Q 8.5 64.0625 14.71875 69.140625 
Q 20.953125 74.21875 31.78125 74.21875 
Q 42.671875 74.21875 48.875 69.140625 
Q 55.078125 64.0625 55.078125 55.328125 
Q 55.078125 49.078125 51.53125 44.71875 
Q 48 40.375 41.703125 38.8125 
Q 48.828125 37.15625 52.796875 32.3125 
Q 56.78125 27.484375 56.78125 20.515625 
Q 56.78125 9.90625 50.3125 4.234375 
Q 43.84375 -1.421875 31.78125 -1.421875 
Q 19.734375 -1.421875 13.25 4.234375 
Q 6.78125 9.90625 6.78125 20.515625 
Q 6.78125 27.484375 10.78125 32.3125 
Q 14.796875 37.15625 21.921875 38.8125 
z
M 18.3125 54.390625 
Q 18.3125 48.734375 21.84375 45.5625 
Q 25.390625 42.390625 31.78125 42.390625 
Q 38.140625 42.390625 41.71875 45.5625 
Q 45.3125 48.734375 45.3125 54.390625 
Q 45.3125 60.0625 41.71875 63.234375 
Q 38.140625 66.40625 31.78125 66.40625 
Q 25.390625 66.40625 21.84375 63.234375 
Q 18.3125 60.0625 18.3125 54.390625 
z
" id="DejaVuSans-56"/>
      </defs>
      <g transform="translate(142.219294 399.078438)scale(0.1 -0.1)">
       <use xlink:href="#DejaVuSans-56"/>
       <use x="63.623047" xlink:href="#DejaVuSans-56"/>
       <use x="127.246094" xlink:href="#DejaVuSans-48"/>
      </g>
     </g>
    </g>
    <g id="xtick_3">
     <g id="line2d_3">
      <g>
       <use style="stroke:#000000;stroke-width:0.8;" x="222.771543" xlink:href="#m5716138d87" y="384.48"/>
      </g>
     </g>
     <g id="text_3">
      <!-- 1760 -->
      <defs>
       <path d="M 12.40625 8.296875 
L 28.515625 8.296875 
L 28.515625 63.921875 
L 10.984375 60.40625 
L 10.984375 69.390625 
L 28.421875 72.90625 
L 38.28125 72.90625 
L 38.28125 8.296875 
L 54.390625 8.296875 
L 54.390625 0 
L 12.40625 0 
z
" id="DejaVuSans-49"/>
       <path d="M 8.203125 72.90625 
L 55.078125 72.90625 
L 55.078125 68.703125 
L 28.609375 0 
L 18.3125 0 
L 43.21875 64.59375 
L 8.203125 64.59375 
z
" id="DejaVuSans-55"/>
       <path d="M 33.015625 40.375 
Q 26.375 40.375 22.484375 35.828125 
Q 18.609375 31.296875 18.609375 23.390625 
Q 18.609375 15.53125 22.484375 10.953125 
Q 26.375 6.390625 33.015625 6.390625 
Q 39.65625 6.390625 43.53125 10.953125 
Q 47.40625 15.53125 47.40625 23.390625 
Q 47.40625 31.296875 43.53125 35.828125 
Q 39.65625 40.375 33.015625 40.375 
z
M 52.59375 71.296875 
L 52.59375 62.3125 
Q 48.875 64.0625 45.09375 64.984375 
Q 41.3125 65.921875 37.59375 65.921875 
Q 27.828125 65.921875 22.671875 59.328125 
Q 17.53125 52.734375 16.796875 39.40625 
Q 19.671875 43.65625 24.015625 45.921875 
Q 28.375 48.1875 33.59375 48.1875 
Q 44.578125 48.1875 50.953125 41.515625 
Q 57.328125 34.859375 57.328125 23.390625 
Q 57.328125 12.15625 50.6875 5.359375 
Q 44.046875 -1.421875 33.015625 -1.421875 
Q 20.359375 -1.421875 13.671875 8.265625 
Q 6.984375 17.96875 6.984375 36.375 
Q 6.984375 53.65625 15.1875 63.9375 
Q 23.390625 74.21875 37.203125 74.21875 
Q 40.921875 74.21875 44.703125 73.484375 
Q 48.484375 72.75 52.59375 71.296875 
z
" id="DejaVuSans-54"/>
      </defs>
      <g transform="translate(210.046543 399.078438)scale(0.1 -0.1)">
       <use xlink:href="#DejaVuSans-49"/>
       <use x="63.623047" xlink:href="#DejaVuSans-55"/>
       <use x="127.246094" xlink:href="#DejaVuSans-54"/>
       <use x="190.869141" xlink:href="#DejaVuSans-48"/>
      </g>
     </g>
    </g>
    <g id="xtick_4">
     <g id="line2d_4">
      <g>
       <use style="stroke:#000000;stroke-width:0.8;" x="293.780042" xlink:href="#m5716138d87" y="384.48"/>
      </g>
     </g>
     <g id="text_4">
      <!-- 2640 -->
      <defs>
       <path d="M 19.1875 8.296875 
L 53.609375 8.296875 
L 53.609375 0 
L 7.328125 0 
L 7.328125 8.296875 
Q 12.9375 14.109375 22.625 23.890625 
Q 32.328125 33.6875 34.8125 36.53125 
Q 39.546875 41.84375 41.421875 45.53125 
Q 43.3125 49.21875 43.3125 52.78125 
Q 43.3125 58.59375 39.234375 62.25 
Q 35.15625 65.921875 28.609375 65.921875 
Q 23.96875 65.921875 18.8125 64.3125 
Q 13.671875 62.703125 7.8125 59.421875 
L 7.8125 69.390625 
Q 13.765625 71.78125 18.9375 73 
Q 24.125 74.21875 28.421875 74.21875 
Q 39.75 74.21875 46.484375 68.546875 
Q 53.21875 62.890625 53.21875 53.421875 
Q 53.21875 48.921875 51.53125 44.890625 
Q 49.859375 40.875 45.40625 35.40625 
Q 44.1875 33.984375 37.640625 27.21875 
Q 31.109375 20.453125 19.1875 8.296875 
z
" id="DejaVuSans-50"/>
       <path d="M 37.796875 64.3125 
L 12.890625 25.390625 
L 37.796875 25.390625 
z
M 35.203125 72.90625 
L 47.609375 72.90625 
L 47.609375 25.390625 
L 58.015625 25.390625 
L 58.015625 17.1875 
L 47.609375 17.1875 
L 47.609375 0 
L 37.796875 0 
L 37.796875 17.1875 
L 4.890625 17.1875 
L 4.890625 26.703125 
z
" id="DejaVuSans-52"/>
      </defs>
      <g transform="translate(281.055042 399.078438)scale(0.1 -0.1)">
       <use xlink:href="#DejaVuSans-50"/>
       <use x="63.623047" xlink:href="#DejaVuSans-54"/>
       <use x="127.246094" xlink:href="#DejaVuSans-52"/>
       <use x="190.869141" xlink:href="#DejaVuSans-48"/>
      </g>
     </g>
    </g>
    <g id="xtick_5">
     <g id="line2d_5">
      <g>
       <use style="stroke:#000000;stroke-width:0.8;" x="364.788541" xlink:href="#m5716138d87" y="384.48"/>
      </g>
     </g>
     <g id="text_5">
      <!-- 3520 -->
      <defs>
       <path d="M 40.578125 39.3125 
Q 47.65625 37.796875 51.625 33 
Q 55.609375 28.21875 55.609375 21.1875 
Q 55.609375 10.40625 48.1875 4.484375 
Q 40.765625 -1.421875 27.09375 -1.421875 
Q 22.515625 -1.421875 17.65625 -0.515625 
Q 12.796875 0.390625 7.625 2.203125 
L 7.625 11.71875 
Q 11.71875 9.328125 16.59375 8.109375 
Q 21.484375 6.890625 26.8125 6.890625 
Q 36.078125 6.890625 40.9375 10.546875 
Q 45.796875 14.203125 45.796875 21.1875 
Q 45.796875 27.640625 41.28125 31.265625 
Q 36.765625 34.90625 28.71875 34.90625 
L 20.21875 34.90625 
L 20.21875 43.015625 
L 29.109375 43.015625 
Q 36.375 43.015625 40.234375 45.921875 
Q 44.09375 48.828125 44.09375 54.296875 
Q 44.09375 59.90625 40.109375 62.90625 
Q 36.140625 65.921875 28.71875 65.921875 
Q 24.65625 65.921875 20.015625 65.03125 
Q 15.375 64.15625 9.8125 62.3125 
L 9.8125 71.09375 
Q 15.4375 72.65625 20.34375 73.4375 
Q 25.25 74.21875 29.59375 74.21875 
Q 40.828125 74.21875 47.359375 69.109375 
Q 53.90625 64.015625 53.90625 55.328125 
Q 53.90625 49.265625 50.4375 45.09375 
Q 46.96875 40.921875 40.578125 39.3125 
z
" id="DejaVuSans-51"/>
       <path d="M 10.796875 72.90625 
L 49.515625 72.90625 
L 49.515625 64.59375 
L 19.828125 64.59375 
L 19.828125 46.734375 
Q 21.96875 47.46875 24.109375 47.828125 
Q 26.265625 48.1875 28.421875 48.1875 
Q 40.625 48.1875 47.75 41.5 
Q 54.890625 34.8125 54.890625 23.390625 
Q 54.890625 11.625 47.5625 5.09375 
Q 40.234375 -1.421875 26.90625 -1.421875 
Q 22.3125 -1.421875 17.546875 -0.640625 
Q 12.796875 0.140625 7.71875 1.703125 
L 7.71875 11.625 
Q 12.109375 9.234375 16.796875 8.0625 
Q 21.484375 6.890625 26.703125 6.890625 
Q 35.15625 6.890625 40.078125 11.328125 
Q 45.015625 15.765625 45.015625 23.390625 
Q 45.015625 31 40.078125 35.4375 
Q 35.15625 39.890625 26.703125 39.890625 
Q 22.75 39.890625 18.8125 39.015625 
Q 14.890625 38.140625 10.796875 36.28125 
z
" id="DejaVuSans-53"/>
      </defs>
      <g transform="translate(352.063541 399.078438)scale(0.1 -0.1)">
       <use xlink:href="#DejaVuSans-51"/>
       <use x="63.623047" xlink:href="#DejaVuSans-53"/>
       <use x="127.246094" xlink:href="#DejaVuSans-50"/>
       <use x="190.869141" xlink:href="#DejaVuSans-48"/>
      </g>
     </g>
    </g>
    <g id="text_6">
     <!-- time [ms] -->
     <defs>
      <path d="M 18.3125 70.21875 
L 18.3125 54.6875 
L 36.8125 54.6875 
L 36.8125 47.703125 
L 18.3125 47.703125 
L 18.3125 18.015625 
Q 18.3125 11.328125 20.140625 9.421875 
Q 21.96875 7.515625 27.59375 7.515625 
L 36.8125 7.515625 
L 36.8125 0 
L 27.59375 0 
Q 17.1875 0 13.234375 3.875 
Q 9.28125 7.765625 9.28125 18.015625 
L 9.28125 47.703125 
L 2.6875 47.703125 
L 2.6875 54.6875 
L 9.28125 54.6875 
L 9.28125 70.21875 
z
" id="DejaVuSans-116"/>
      <path d="M 9.421875 54.6875 
L 18.40625 54.6875 
L 18.40625 0 
L 9.421875 0 
z
M 9.421875 75.984375 
L 18.40625 75.984375 
L 18.40625 64.59375 
L 9.421875 64.59375 
z
" id="DejaVuSans-105"/>
      <path d="M 52 44.1875 
Q 55.375 50.25 60.0625 53.125 
Q 64.75 56 71.09375 56 
Q 79.640625 56 84.28125 50.015625 
Q 88.921875 44.046875 88.921875 33.015625 
L 88.921875 0 
L 79.890625 0 
L 79.890625 32.71875 
Q 79.890625 40.578125 77.09375 44.375 
Q 74.3125 48.1875 68.609375 48.1875 
Q 61.625 48.1875 57.5625 43.546875 
Q 53.515625 38.921875 53.515625 30.90625 
L 53.515625 0 
L 44.484375 0 
L 44.484375 32.71875 
Q 44.484375 40.625 41.703125 44.40625 
Q 38.921875 48.1875 33.109375 48.1875 
Q 26.21875 48.1875 22.15625 43.53125 
Q 18.109375 38.875 18.109375 30.90625 
L 18.109375 0 
L 9.078125 0 
L 9.078125 54.6875 
L 18.109375 54.6875 
L 18.109375 46.1875 
Q 21.1875 51.21875 25.484375 53.609375 
Q 29.78125 56 35.6875 56 
Q 41.65625 56 45.828125 52.96875 
Q 50 49.953125 52 44.1875 
z
" id="DejaVuSans-109"/>
      <path d="M 56.203125 29.59375 
L 56.203125 25.203125 
L 14.890625 25.203125 
Q 15.484375 15.921875 20.484375 11.0625 
Q 25.484375 6.203125 34.421875 6.203125 
Q 39.59375 6.203125 44.453125 7.46875 
Q 49.3125 8.734375 54.109375 11.28125 
L 54.109375 2.78125 
Q 49.265625 0.734375 44.1875 -0.34375 
Q 39.109375 -1.421875 33.890625 -1.421875 
Q 20.796875 -1.421875 13.15625 6.1875 
Q 5.515625 13.8125 5.515625 26.8125 
Q 5.515625 40.234375 12.765625 48.109375 
Q 20.015625 56 32.328125 56 
Q 43.359375 56 49.78125 48.890625 
Q 56.203125 41.796875 56.203125 29.59375 
z
M 47.21875 32.234375 
Q 47.125 39.59375 43.09375 43.984375 
Q 39.0625 48.390625 32.421875 48.390625 
Q 24.90625 48.390625 20.390625 44.140625 
Q 15.875 39.890625 15.1875 32.171875 
z
" id="DejaVuSans-101"/>
      <path id="DejaVuSans-32"/>
      <path d="M 8.59375 75.984375 
L 29.296875 75.984375 
L 29.296875 69 
L 17.578125 69 
L 17.578125 -6.203125 
L 29.296875 -6.203125 
L 29.296875 -13.1875 
L 8.59375 -13.1875 
z
" id="DejaVuSans-91"/>
      <path d="M 44.28125 53.078125 
L 44.28125 44.578125 
Q 40.484375 46.53125 36.375 47.5 
Q 32.28125 48.484375 27.875 48.484375 
Q 21.1875 48.484375 17.84375 46.4375 
Q 14.5 44.390625 14.5 40.28125 
Q 14.5 37.15625 16.890625 35.375 
Q 19.28125 33.59375 26.515625 31.984375 
L 29.59375 31.296875 
Q 39.15625 29.25 43.1875 25.515625 
Q 47.21875 21.78125 47.21875 15.09375 
Q 47.21875 7.46875 41.1875 3.015625 
Q 35.15625 -1.421875 24.609375 -1.421875 
Q 20.21875 -1.421875 15.453125 -0.5625 
Q 10.6875 0.296875 5.421875 2 
L 5.421875 11.28125 
Q 10.40625 8.6875 15.234375 7.390625 
Q 20.0625 6.109375 24.8125 6.109375 
Q 31.15625 6.109375 34.5625 8.28125 
Q 37.984375 10.453125 37.984375 14.40625 
Q 37.984375 18.0625 35.515625 20.015625 
Q 33.0625 21.96875 24.703125 23.78125 
L 21.578125 24.515625 
Q 13.234375 26.265625 9.515625 29.90625 
Q 5.8125 33.546875 5.8125 39.890625 
Q 5.8125 47.609375 11.28125 51.796875 
Q 16.75 56 26.8125 56 
Q 31.78125 56 36.171875 55.265625 
Q 40.578125 54.546875 44.28125 53.078125 
z
" id="DejaVuSans-115"/>
      <path d="M 30.421875 75.984375 
L 30.421875 -13.1875 
L 9.71875 -13.1875 
L 9.71875 -6.203125 
L 21.390625 -6.203125 
L 21.390625 69 
L 9.71875 69 
L 9.71875 75.984375 
z
" id="DejaVuSans-93"/>
     </defs>
     <g transform="translate(234.038281 412.756563)scale(0.1 -0.1)">
      <use xlink:href="#DejaVuSans-116"/>
      <use x="39.208984" xlink:href="#DejaVuSans-105"/>
      <use x="66.992188" xlink:href="#DejaVuSans-109"/>
      <use x="164.404297" xlink:href="#DejaVuSans-101"/>
      <use x="225.927734" xlink:href="#DejaVuSans-32"/>
      <use x="257.714844" xlink:href="#DejaVuSans-91"/>
      <use x="296.728516" xlink:href="#DejaVuSans-109"/>
      <use x="394.140625" xlink:href="#DejaVuSans-115"/>
      <use x="446.240234" xlink:href="#DejaVuSans-93"/>
     </g>
    </g>
   </g>
   <g id="matplotlib.axis_2">
    <g id="ytick_1">
     <g id="line2d_6">
      <defs>
       <path d="M 0 0 
L -3.5 0 
" id="mb7d8327749" style="stroke:#000000;stroke-width:0.8;"/>
      </defs>
      <g>
       <use style="stroke:#000000;stroke-width:0.8;" x="63" xlink:href="#mb7d8327749" y="365.973919"/>
      </g>
     </g>
     <g id="text_7">
      <!-- −100 -->
      <defs>
       <path d="M 10.59375 35.5 
L 73.1875 35.5 
L 73.1875 27.203125 
L 10.59375 27.203125 
z
" id="DejaVuSans-8722"/>
      </defs>
      <g transform="translate(28.532812 369.773137)scale(0.1 -0.1)">
       <use xlink:href="#DejaVuSans-8722"/>
       <use x="83.789062" xlink:href="#DejaVuSans-49"/>
       <use x="147.412109" xlink:href="#DejaVuSans-48"/>
       <use x="211.035156" xlink:href="#DejaVuSans-48"/>
      </g>
     </g>
    </g>
    <g id="ytick_2">
     <g id="line2d_7">
      <g>
       <use style="stroke:#000000;stroke-width:0.8;" x="63" xlink:href="#mb7d8327749" y="327.495722"/>
      </g>
     </g>
     <g id="text_8">
      <!-- −80 -->
      <g transform="translate(34.895313 331.29494)scale(0.1 -0.1)">
       <use xlink:href="#DejaVuSans-8722"/>
       <use x="83.789062" xlink:href="#DejaVuSans-56"/>
       <use x="147.412109" xlink:href="#DejaVuSans-48"/>
      </g>
     </g>
    </g>
    <g id="ytick_3">
     <g id="line2d_8">
      <g>
       <use style="stroke:#000000;stroke-width:0.8;" x="63" xlink:href="#mb7d8327749" y="289.017525"/>
      </g>
     </g>
     <g id="text_9">
      <!-- −60 -->
      <g transform="translate(34.895313 292.816743)scale(0.1 -0.1)">
       <use xlink:href="#DejaVuSans-8722"/>
       <use x="83.789062" xlink:href="#DejaVuSans-54"/>
       <use x="147.412109" xlink:href="#DejaVuSans-48"/>
      </g>
     </g>
    </g>
    <g id="ytick_4">
     <g id="line2d_9">
      <g>
       <use style="stroke:#000000;stroke-width:0.8;" x="63" xlink:href="#mb7d8327749" y="250.539328"/>
      </g>
     </g>
     <g id="text_10">
      <!-- −40 -->
      <g transform="translate(34.895313 254.338546)scale(0.1 -0.1)">
       <use xlink:href="#DejaVuSans-8722"/>
       <use x="83.789062" xlink:href="#DejaVuSans-52"/>
       <use x="147.412109" xlink:href="#DejaVuSans-48"/>
      </g>
     </g>
    </g>
    <g id="ytick_5">
     <g id="line2d_10">
      <g>
       <use style="stroke:#000000;stroke-width:0.8;" x="63" xlink:href="#mb7d8327749" y="212.061131"/>
      </g>
     </g>
     <g id="text_11">
      <!-- −20 -->
      <g transform="translate(34.895313 215.860349)scale(0.1 -0.1)">
       <use xlink:href="#DejaVuSans-8722"/>
       <use x="83.789062" xlink:href="#DejaVuSans-50"/>
       <use x="147.412109" xlink:href="#DejaVuSans-48"/>
      </g>
     </g>
    </g>
    <g id="ytick_6">
     <g id="line2d_11">
      <g>
       <use style="stroke:#000000;stroke-width:0.8;" x="63" xlink:href="#mb7d8327749" y="173.582934"/>
      </g>
     </g>
     <g id="text_12">
      <!-- 0 -->
      <g transform="translate(49.6375 177.382152)scale(0.1 -0.1)">
       <use xlink:href="#DejaVuSans-48"/>
      </g>
     </g>
    </g>
    <g id="ytick_7">
     <g id="line2d_12">
      <g>
       <use style="stroke:#000000;stroke-width:0.8;" x="63" xlink:href="#mb7d8327749" y="135.104737"/>
      </g>
     </g>
     <g id="text_13">
      <!-- 20 -->
      <g transform="translate(43.275 138.903955)scale(0.1 -0.1)">
       <use xlink:href="#DejaVuSans-50"/>
       <use x="63.623047" xlink:href="#DejaVuSans-48"/>
      </g>
     </g>
    </g>
    <g id="ytick_8">
     <g id="line2d_13">
      <g>
       <use style="stroke:#000000;stroke-width:0.8;" x="63" xlink:href="#mb7d8327749" y="96.62654"/>
      </g>
     </g>
     <g id="text_14">
      <!-- 40 -->
      <g transform="translate(43.275 100.425758)scale(0.1 -0.1)">
       <use xlink:href="#DejaVuSans-52"/>
       <use x="63.623047" xlink:href="#DejaVuSans-48"/>
      </g>
     </g>
    </g>
    <g id="ytick_9">
     <g id="line2d_14">
      <g>
       <use style="stroke:#000000;stroke-width:0.8;" x="63" xlink:href="#mb7d8327749" y="58.148343"/>
      </g>
     </g>
     <g id="text_15">
      <!-- 60 -->
      <g transform="translate(43.275 61.947561)scale(0.1 -0.1)">
       <use xlink:href="#DejaVuSans-54"/>
       <use x="63.623047" xlink:href="#DejaVuSans-48"/>
      </g>
     </g>
    </g>
    <g id="text_16">
     <!-- voltage [mV] -->
     <defs>
      <path d="M 2.984375 54.6875 
L 12.5 54.6875 
L 29.59375 8.796875 
L 46.6875 54.6875 
L 56.203125 54.6875 
L 35.6875 0 
L 23.484375 0 
z
" id="DejaVuSans-118"/>
      <path d="M 30.609375 48.390625 
Q 23.390625 48.390625 19.1875 42.75 
Q 14.984375 37.109375 14.984375 27.296875 
Q 14.984375 17.484375 19.15625 11.84375 
Q 23.34375 6.203125 30.609375 6.203125 
Q 37.796875 6.203125 41.984375 11.859375 
Q 46.1875 17.53125 46.1875 27.296875 
Q 46.1875 37.015625 41.984375 42.703125 
Q 37.796875 48.390625 30.609375 48.390625 
z
M 30.609375 56 
Q 42.328125 56 49.015625 48.375 
Q 55.71875 40.765625 55.71875 27.296875 
Q 55.71875 13.875 49.015625 6.21875 
Q 42.328125 -1.421875 30.609375 -1.421875 
Q 18.84375 -1.421875 12.171875 6.21875 
Q 5.515625 13.875 5.515625 27.296875 
Q 5.515625 40.765625 12.171875 48.375 
Q 18.84375 56 30.609375 56 
z
" id="DejaVuSans-111"/>
      <path d="M 9.421875 75.984375 
L 18.40625 75.984375 
L 18.40625 0 
L 9.421875 0 
z
" id="DejaVuSans-108"/>
      <path d="M 34.28125 27.484375 
Q 23.390625 27.484375 19.1875 25 
Q 14.984375 22.515625 14.984375 16.5 
Q 14.984375 11.71875 18.140625 8.90625 
Q 21.296875 6.109375 26.703125 6.109375 
Q 34.1875 6.109375 38.703125 11.40625 
Q 43.21875 16.703125 43.21875 25.484375 
L 43.21875 27.484375 
z
M 52.203125 31.203125 
L 52.203125 0 
L 43.21875 0 
L 43.21875 8.296875 
Q 40.140625 3.328125 35.546875 0.953125 
Q 30.953125 -1.421875 24.3125 -1.421875 
Q 15.921875 -1.421875 10.953125 3.296875 
Q 6 8.015625 6 15.921875 
Q 6 25.140625 12.171875 29.828125 
Q 18.359375 34.515625 30.609375 34.515625 
L 43.21875 34.515625 
L 43.21875 35.40625 
Q 43.21875 41.609375 39.140625 45 
Q 35.0625 48.390625 27.6875 48.390625 
Q 23 48.390625 18.546875 47.265625 
Q 14.109375 46.140625 10.015625 43.890625 
L 10.015625 52.203125 
Q 14.9375 54.109375 19.578125 55.046875 
Q 24.21875 56 28.609375 56 
Q 40.484375 56 46.34375 49.84375 
Q 52.203125 43.703125 52.203125 31.203125 
z
" id="DejaVuSans-97"/>
      <path d="M 45.40625 27.984375 
Q 45.40625 37.75 41.375 43.109375 
Q 37.359375 48.484375 30.078125 48.484375 
Q 22.859375 48.484375 18.828125 43.109375 
Q 14.796875 37.75 14.796875 27.984375 
Q 14.796875 18.265625 18.828125 12.890625 
Q 22.859375 7.515625 30.078125 7.515625 
Q 37.359375 7.515625 41.375 12.890625 
Q 45.40625 18.265625 45.40625 27.984375 
z
M 54.390625 6.78125 
Q 54.390625 -7.171875 48.1875 -13.984375 
Q 42 -20.796875 29.203125 -20.796875 
Q 24.46875 -20.796875 20.265625 -20.09375 
Q 16.0625 -19.390625 12.109375 -17.921875 
L 12.109375 -9.1875 
Q 16.0625 -11.328125 19.921875 -12.34375 
Q 23.78125 -13.375 27.78125 -13.375 
Q 36.625 -13.375 41.015625 -8.765625 
Q 45.40625 -4.15625 45.40625 5.171875 
L 45.40625 9.625 
Q 42.625 4.78125 38.28125 2.390625 
Q 33.9375 0 27.875 0 
Q 17.828125 0 11.671875 7.65625 
Q 5.515625 15.328125 5.515625 27.984375 
Q 5.515625 40.671875 11.671875 48.328125 
Q 17.828125 56 27.875 56 
Q 33.9375 56 38.28125 53.609375 
Q 42.625 51.21875 45.40625 46.390625 
L 45.40625 54.6875 
L 54.390625 54.6875 
z
" id="DejaVuSans-103"/>
      <path d="M 28.609375 0 
L 0.78125 72.90625 
L 11.078125 72.90625 
L 34.1875 11.53125 
L 57.328125 72.90625 
L 67.578125 72.90625 
L 39.796875 0 
z
" id="DejaVuSans-86"/>
     </defs>
     <g transform="translate(22.453125 250.624062)rotate(-90)scale(0.1 -0.1)">
      <use xlink:href="#DejaVuSans-118"/>
      <use x="59.179688" xlink:href="#DejaVuSans-111"/>
      <use x="120.361328" xlink:href="#DejaVuSans-108"/>
      <use x="148.144531" xlink:href="#DejaVuSans-116"/>
      <use x="187.353516" xlink:href="#DejaVuSans-97"/>
      <use x="248.632812" xlink:href="#DejaVuSans-103"/>
      <use x="312.109375" xlink:href="#DejaVuSans-101"/>
      <use x="373.632812" xlink:href="#DejaVuSans-32"/>
      <use x="405.419922" xlink:href="#DejaVuSans-91"/>
      <use x="444.433594" xlink:href="#DejaVuSans-109"/>
      <use x="541.845703" xlink:href="#DejaVuSans-86"/>
      <use x="610.253906" xlink:href="#DejaVuSans-93"/>
     </g>
    </g>
   </g>
   <g id="line2d_15">
    <path clip-path="url(#p10fa7480ca)" d="M 80.754545 286.124145 
L 83.385088 286.030204 
L 83.417364 285.936263 
L 83.465779 286.124145 
L 83.481917 286.030204 
L 83.966066 285.936263 
L 84.062896 285.842322 
L 84.175864 285.936263 
L 84.547045 286.030204 
L 84.660013 286.124145 
L 84.96664 286.030204 
L 85.079609 285.936263 
L 85.337821 286.030204 
L 85.35396 286.124145 
L 85.402374 285.936263 
L 85.418513 285.936263 
L 86.322257 286.030204 
L 86.435225 286.124145 
L 87.419661 286.218086 
L 87.532629 286.312026 
L 87.581044 286.218086 
L 87.629459 286.312026 
L 88.694587 286.405967 
L 88.807555 286.499908 
L 88.85597 286.405967 
L 89.049629 275.696704 
L 89.501501 265.645026 
L 90.356831 252.587239 
L 91.196022 244.038617 
L 91.454235 241.971917 
L 91.777001 239.435512 
L 92.503224 235.771816 
L 92.535501 235.677876 
L 92.713022 235.208171 
L 92.745299 235.11423 
L 92.971235 234.362703 
L 93.01965 234.268762 
L 93.213309 233.705116 
L 93.358554 233.611176 
L 93.536075 233.141471 
L 93.600628 233.04753 
L 93.762011 232.671766 
L 93.858841 232.577826 
L 94.004086 232.296003 
L 94.213884 232.202062 
L 94.359128 231.920239 
L 95.133766 231.826298 
L 95.182181 231.732357 
L 95.230596 231.826298 
L 95.843851 231.732357 
L 95.989096 231.356594 
L 96.053649 231.450535 
L 96.085926 231.356594 
L 96.392553 231.262653 
L 96.505522 231.168712 
L 96.796011 231.262653 
L 97.005809 231.920239 
L 97.070362 232.01418 
L 97.215607 232.296003 
L 97.393128 232.202062 
L 97.425404 232.108121 
L 97.489958 232.202062 
L 97.845 232.108121 
L 97.974106 231.920239 
L 98.264596 232.01418 
L 98.296872 232.108121 
L 98.345287 232.01418 
L 98.458255 231.920239 
L 98.50667 232.01418 
L 98.538947 232.108121 
L 98.571223 231.920239 
L 98.6035 232.01418 
L 99.119925 231.920239 
L 99.249032 231.732357 
L 99.959117 231.638416 
L 100.055947 231.544476 
L 100.572372 233.986939 
L 100.620787 234.08088 
L 100.733755 234.268762 
L 100.862861 234.08088 
L 101.024244 233.986939 
L 101.153351 233.799057 
L 101.298595 233.705116 
L 101.44384 233.423294 
L 101.556808 233.329353 
L 101.685914 233.141471 
L 101.831159 233.04753 
L 101.847297 232.953589 
L 101.927989 233.04753 
L 102.10551 232.953589 
L 102.266893 232.577826 
L 102.363723 232.483885 
L 102.492829 232.296003 
L 102.993116 232.202062 
L 103.057669 231.920239 
L 103.106084 232.01418 
L 103.251329 232.296003 
L 103.380435 232.108121 
L 103.687063 232.01418 
L 103.783893 231.920239 
L 103.880722 232.01418 
L 103.993691 231.920239 
L 104.09052 231.826298 
L 104.18735 231.732357 
L 104.300318 231.826298 
L 104.38101 231.732357 
L 104.526254 231.356594 
L 104.574669 231.450535 
L 104.623084 231.356594 
L 104.897435 231.262653 
L 105.010403 231.168712 
L 105.236339 231.262653 
L 105.317031 231.356594 
L 105.333169 231.262653 
L 106.107807 231.168712 
L 106.123945 231.074771 
L 106.17236 231.262653 
L 106.204637 231.168712 
L 106.882445 231.262653 
L 106.995413 231.356594 
L 107.705498 231.262653 
L 107.737775 231.168712 
L 107.78619 231.356594 
L 108.383307 231.262653 
L 108.512413 231.074771 
L 108.576966 230.98083 
L 108.689934 230.886889 
L 109.254775 230.792948 
L 109.335466 230.699007 
L 109.351605 230.792948 
L 109.690509 230.699007 
L 109.819615 230.511125 
L 109.916445 230.605066 
L 110.013275 230.511125 
L 110.126243 230.605066 
L 110.5297 230.699007 
L 110.610392 230.792948 
L 110.62653 230.699007 
L 111.368891 230.792948 
L 111.497998 230.98083 
L 111.836902 231.074771 
L 111.85304 231.168712 
L 111.933732 231.074771 
L 112.256498 231.168712 
L 112.321051 231.074771 
L 112.369466 231.262653 
L 112.821338 231.356594 
L 112.837476 231.450535 
L 112.869753 231.262653 
L 112.902029 231.262653 
L 113.144104 231.356594 
L 113.289349 231.638416 
L 113.37004 231.732357 
L 113.499146 231.920239 
L 113.595976 232.01418 
L 113.644391 232.108121 
L 113.692806 232.01418 
L 113.789636 231.920239 
L 113.870327 231.826298 
L 113.886465 231.920239 
L 114.160817 232.01418 
L 114.257646 232.108121 
L 114.386753 231.826298 
L 114.419029 231.920239 
L 114.483582 231.826298 
L 114.580412 231.638416 
L 114.59655 231.732357 
L 114.806348 231.638416 
L 114.919316 231.544476 
L 115.35505 231.450535 
L 115.468018 231.356594 
L 115.758508 231.262653 
L 115.887614 231.074771 
L 116.161965 230.98083 
L 116.258795 230.792948 
L 116.274933 230.886889 
L 116.355625 230.792948 
L 116.468593 230.699007 
L 116.533146 230.605066 
L 116.662252 230.417185 
L 117.017295 230.511125 
L 117.033433 230.605066 
L 117.114125 230.511125 
L 117.259369 230.605066 
L 117.43689 231.074771 
L 117.469167 231.168712 
L 117.662827 231.732357 
L 117.711241 231.826298 
L 117.791933 232.01418 
L 117.82421 231.920239 
L 117.921039 232.01418 
L 118.034007 232.108121 
L 118.647263 232.01418 
L 118.760231 231.920239 
L 119.05072 231.826298 
L 119.131411 231.732357 
L 119.14755 231.826298 
L 119.518731 231.732357 
L 119.647837 231.544476 
L 119.80922 231.450535 
L 119.922188 231.356594 
L 120.099709 231.262653 
L 120.244954 230.98083 
L 120.438613 230.886889 
L 120.551581 230.792948 
L 120.664549 230.699007 
L 120.696826 230.605066 
L 120.745241 230.792948 
L 121.116422 230.886889 
L 121.22939 230.98083 
L 121.600571 230.886889 
L 121.729677 230.699007 
L 121.810368 230.605066 
L 121.939475 230.417185 
L 122.116996 230.323244 
L 122.213826 230.229303 
L 122.342932 230.417185 
L 122.778666 230.323244 
L 122.810943 230.229303 
L 122.875496 230.323244 
L 122.923911 230.417185 
L 122.972326 230.323244 
L 123.133709 230.417185 
L 123.262815 230.605066 
L 123.553304 230.699007 
L 123.682411 230.886889 
L 123.827655 230.605066 
L 123.924485 230.699007 
L 123.940623 230.792948 
L 124.005177 230.605066 
L 124.360219 230.511125 
L 124.473187 230.417185 
L 124.682985 230.511125 
L 124.812091 230.699007 
L 125.215549 230.792948 
L 125.328517 230.98083 
L 125.360793 231.074771 
L 125.441485 230.886889 
L 125.764251 230.792948 
L 125.780389 230.699007 
L 125.861081 230.792948 
L 126.038602 230.699007 
L 126.15157 230.605066 
L 126.329091 230.511125 
L 126.425921 230.417185 
L 126.538889 230.511125 
L 127.136006 230.417185 
L 127.152144 230.323244 
L 127.232836 230.417185 
L 127.248974 230.511125 
L 127.297389 230.323244 
L 127.313527 230.323244 
L 127.394219 230.417185 
L 127.442633 230.605066 
L 127.507187 230.511125 
L 127.523325 230.417185 
L 127.604016 230.511125 
L 127.975197 230.417185 
L 128.104304 230.229303 
L 128.217272 230.135362 
L 128.33024 230.041421 
L 128.410931 229.94748 
L 128.523899 229.853539 
L 129.08874 229.759598 
L 129.137154 229.665657 
L 129.185569 229.759598 
L 129.605165 229.853539 
L 129.718133 229.94748 
L 129.831101 229.853539 
L 130.008622 229.383835 
L 130.137729 229.289894 
L 130.266835 229.102012 
L 130.525048 229.008071 
L 130.541186 228.91413 
L 130.589601 229.102012 
L 130.621878 229.008071 
L 130.670292 229.102012 
L 130.718707 229.008071 
L 131.07375 228.91413 
L 131.138303 228.820189 
L 131.17058 228.91413 
L 131.202856 228.820189 
L 131.315824 228.726248 
L 132.477782 228.820189 
L 132.59075 228.91413 
L 132.768271 228.820189 
L 132.816686 228.726248 
L 132.865101 228.820189 
L 133.268558 228.91413 
L 133.381526 229.008071 
L 133.413803 229.008071 
L 133.559047 229.477775 
L 133.591324 229.383835 
L 133.607462 229.571716 
L 133.623601 229.571716 
L 133.736569 229.665657 
L 133.784983 229.759598 
L 133.930228 230.041421 
L 133.978643 230.135362 
L 134.156164 230.605066 
L 134.269132 230.511125 
L 134.430515 230.605066 
L 134.559622 230.792948 
L 134.624175 230.699007 
L 134.656451 230.792948 
L 134.817834 230.699007 
L 134.930802 230.605066 
L 135.301983 230.511125 
L 135.414951 230.229303 
L 135.43109 230.323244 
L 135.818409 230.229303 
L 135.834547 230.135362 
L 135.866824 230.323244 
L 135.915238 230.229303 
L 136.044345 230.135362 
L 136.060483 230.041421 
L 136.141175 230.135362 
L 136.883536 230.041421 
L 137.028781 229.759598 
L 137.157887 229.665657 
L 137.206302 229.477775 
L 137.254717 229.665657 
L 137.367685 229.571716 
L 137.432238 229.383835 
L 137.464515 229.571716 
L 137.690451 229.477775 
L 137.819557 229.289894 
L 137.916387 229.383835 
L 138.013217 229.477775 
L 138.158461 229.195953 
L 138.707163 229.102012 
L 138.820132 229.008071 
L 139.126759 229.102012 
L 139.239727 229.195953 
L 139.772291 229.102012 
L 139.901397 228.91413 
L 139.998227 229.008071 
L 140.095057 228.91413 
L 140.111195 229.008071 
L 140.191887 228.91413 
L 140.756727 228.820189 
L 140.885833 228.632307 
L 140.966525 228.538366 
L 141.095631 228.350485 
L 141.321567 229.102012 
L 141.402259 229.195953 
L 141.531365 229.383835 
L 141.902546 229.289894 
L 142.015514 229.195953 
L 142.14462 229.102012 
L 142.257588 229.008071 
L 142.80629 228.91413 
L 142.935397 228.726248 
L 144.339429 228.820189 
L 144.468535 229.195953 
L 144.484673 229.102012 
L 144.581503 229.008071 
L 144.726748 229.289894 
L 145.049513 229.383835 
L 145.08179 229.477775 
L 145.146343 229.383835 
L 145.340003 229.289894 
L 145.469109 229.102012 
L 145.64663 229.008071 
L 145.759598 228.91413 
L 146.308301 228.820189 
L 146.388992 228.632307 
L 146.421269 228.726248 
L 147.244322 228.820189 
L 147.26046 228.91413 
L 147.341151 228.820189 
L 147.550949 228.726248 
L 147.663917 228.632307 
L 148.180343 228.726248 
L 148.309449 228.91413 
L 148.374002 228.820189 
L 148.48697 228.726248 
L 148.874289 228.632307 
L 148.890428 228.538366 
L 148.971119 228.632307 
L 149.100226 228.726248 
L 149.116364 228.820189 
L 149.164779 228.632307 
L 149.197055 228.726248 
L 149.293885 228.632307 
L 149.406853 228.538366 
L 149.697343 228.632307 
L 149.810311 228.726248 
L 149.971694 228.726248 
L 150.00397 228.538366 
L 150.084662 228.632307 
L 150.407427 228.726248 
L 150.601087 229.289894 
L 150.746332 229.008071 
L 151.085236 229.102012 
L 151.149789 229.195953 
L 151.182066 229.102012 
L 151.359587 229.008071 
L 151.375725 228.91413 
L 151.456417 229.008071 
L 151.811459 228.91413 
L 151.843736 228.820189 
L 151.908289 228.91413 
L 152.424714 228.820189 
L 152.553821 228.632307 
L 152.650651 228.538366 
L 152.715204 228.444425 
L 152.74748 228.538366 
L 152.763619 228.632307 
L 152.812033 228.444425 
L 152.828172 228.444425 
L 153.40915 228.444425 
L 153.60281 239.153689 
L 154.054682 249.111426 
L 154.425863 255.217585 
L 154.861597 261.041921 
L 154.974565 262.263153 
L 155.68465 269.308722 
L 155.894448 271.093599 
L 156.265629 274.193649 
L 156.281767 274.193649 
L 156.556118 276.166408 
L 158.62182 287.627199 
L 158.670235 287.72114 
L 158.993001 289.036313 
L 159.057554 289.130254 
L 159.299628 289.975722 
L 159.331905 290.069663 
L 159.557841 290.82119 
L 159.622394 290.915131 
L 159.832192 291.572717 
L 159.896745 291.666658 
L 160.090405 292.230304 
L 160.122681 292.324245 
L 160.300202 292.793949 
L 160.348617 292.88789 
L 160.493862 293.169713 
L 160.526139 293.263654 
L 160.70366 293.733358 
L 160.768213 293.827299 
L 160.929596 294.203063 
L 161.042564 294.297004 
L 161.187809 294.578827 
L 161.413745 294.672767 
L 161.558989 294.95459 
L 161.639681 295.048531 
L 161.768787 295.236413 
L 161.897894 295.330354 
L 162.027 295.518236 
L 162.091553 295.612177 
L 162.22066 295.800058 
L 162.285213 295.893999 
L 162.317489 295.98794 
L 162.382043 295.893999 
L 162.462734 295.98794 
L 162.59184 296.175822 
L 162.995298 296.269763 
L 163.108266 296.363704 
L 163.318064 296.457645 
L 163.431032 296.645527 
L 163.463308 296.551586 
L 163.527861 296.645527 
L 163.64083 296.739468 
L 163.931319 296.833408 
L 164.044287 296.927349 
L 164.544574 296.833408 
L 164.625266 296.739468 
L 164.641404 296.833408 
L 165.997021 296.739468 
L 166.126127 296.551586 
L 166.206818 296.645527 
L 166.222957 296.551586 
L 166.432755 296.457645 
L 166.561861 296.269763 
L 166.900765 296.175822 
L 167.013733 296.081881 
L 167.304223 295.98794 
L 167.449467 295.706117 
L 167.659265 295.612177 
L 167.772233 295.518236 
L 168.014308 295.424295 
L 168.159552 295.142472 
L 168.450042 295.048531 
L 168.56301 294.95459 
L 168.579148 295.048531 
L 168.627563 294.860649 
L 168.643701 294.95459 
L 168.756669 294.860649 
L 168.837361 294.766708 
L 168.853499 294.672767 
L 168.885775 294.860649 
L 168.93419 294.766708 
L 169.12785 294.672767 
L 169.256956 294.484886 
L 169.418339 294.390945 
L 169.499031 294.297004 
L 169.611999 286.969613 
L 169.708829 287.063554 
L 169.724967 287.157495 
L 169.805658 287.063554 
L 170.951477 287.157495 
L 170.967616 287.251436 
L 171.048307 287.157495 
L 171.790669 287.251436 
L 171.822945 287.345376 
L 171.887498 287.251436 
L 171.952052 287.157495 
L 172.048881 287.063554 
L 172.161849 287.157495 
L 172.387786 287.063554 
L 172.500754 286.969613 
L 173.162424 286.875672 
L 173.29153 286.68779 
L 174.518041 286.781731 
L 174.582594 286.875672 
L 174.61487 286.781731 
L 175.018328 286.875672 
L 175.147434 287.063554 
L 175.260402 286.969613 
L 175.389508 287.063554 
L 175.405647 287.157495 
L 175.486338 287.063554 
L 175.615445 287.157495 
L 175.712274 287.251436 
L 175.825242 287.157495 
L 175.93821 287.251436 
L 176.164147 287.345376 
L 176.277115 287.439317 
L 176.390083 287.345376 
L 176.664434 287.251436 
L 176.777402 287.157495 
L 176.938785 287.063554 
L 176.971061 286.969613 
L 177.019476 287.157495 
L 177.035615 287.063554 
L 177.616593 287.063554 
L 177.810253 273.066358 
L 178.391231 256.626699 
L 179.149731 241.502212 
L 179.82754 231.544476 
L 180.39238 226.189844 
L 180.860391 224.029203 
L 180.876529 224.029203 
L 181.021773 223.559498 
L 181.183156 223.183734 
L 181.312263 223.089794 
L 181.473646 222.71403 
L 181.505922 222.620089 
L 181.699582 222.056444 
L 181.764135 221.962503 
L 181.893241 221.774621 
L 182.328975 221.68068 
L 182.47422 221.398857 
L 182.506497 221.304916 
L 182.635603 221.117034 
L 182.716294 221.023094 
L 182.877677 220.64733 
L 182.926092 220.741271 
L 182.974507 220.835212 
L 183.022922 220.741271 
L 183.103614 220.64733 
L 183.23272 220.459448 
L 183.281135 220.365507 
L 183.442518 219.989743 
L 183.474794 219.895803 
L 183.668454 219.332157 
L 183.70073 219.238216 
L 183.845975 218.956393 
L 183.89439 218.862453 
L 184.168741 217.829103 
L 184.313986 217.735162 
L 184.523784 217.077575 
L 184.814273 216.983634 
L 184.927241 216.419989 
L 184.975656 216.607871 
L 185.072486 216.51393 
L 185.250007 215.856343 
L 185.266145 215.950284 
L 185.346837 215.856343 
L 185.492081 215.574521 
L 185.524358 215.48058 
L 186.411964 209.844125 
L 186.428102 209.28048 
L 186.444241 203.456143 
L 186.492656 75.790446 
L 186.573347 142.582433 
L 186.73473 218.486689 
L 186.944528 220.929153 
L 188.05807 232.765707 
L 188.074208 232.765707 
L 188.25173 233.611176 
L 188.461528 234.268762 
L 188.526081 234.362703 
L 188.71974 234.926348 
L 188.768155 235.020289 
L 188.929538 235.396053 
L 189.026368 235.302112 
L 189.155474 235.489994 
L 189.720315 235.396053 
L 189.849421 235.208171 
L 190.091495 235.11423 
L 190.220602 234.926348 
L 190.285155 234.832407 
L 190.414261 234.644526 
L 190.4304 234.738466 
L 190.494953 234.550585 
L 190.591783 234.456644 
L 190.704751 234.362703 
L 190.89841 234.268762 
L 191.011378 234.174821 
L 191.140485 234.08088 
L 191.285729 233.799057 
L 191.46325 233.705116 
L 191.624633 233.329353 
L 192.205612 233.235412 
L 192.334718 233.04753 
L 192.41541 232.953589 
L 192.544516 232.577826 
L 192.560655 232.671766 
L 192.609069 232.577826 
L 192.625208 232.483885 
L 192.705899 232.577826 
L 192.835006 232.483885 
L 192.899559 232.389944 
L 192.931835 232.483885 
L 193.238463 232.389944 
L 193.367569 232.202062 
L 193.512814 232.108121 
L 193.64192 231.920239 
L 193.916271 231.826298 
L 194.061516 231.544476 
L 194.448835 231.450535 
L 194.577941 231.262653 
L 194.723186 231.168712 
L 194.884569 230.792948 
L 194.981399 230.699007 
L 195.110505 230.511125 
L 195.271888 230.417185 
L 195.35258 230.229303 
L 195.384856 230.323244 
L 195.465548 230.229303 
L 195.594654 230.041421 
L 195.885143 229.94748 
L 195.998111 229.853539 
L 196.094941 229.759598 
L 196.256324 229.383835 
L 196.353154 229.477775 
L 196.449984 229.383835 
L 196.546813 229.477775 
L 196.67592 229.289894 
L 197.14393 229.195953 
L 197.160069 229.102012 
L 197.224622 229.289894 
L 197.402143 229.383835 
L 197.579664 229.94748 
L 197.628079 229.853539 
L 197.660356 230.041421 
L 197.724909 230.135362 
L 197.821739 230.323244 
L 197.837877 230.229303 
L 197.950845 230.323244 
L 198.09609 230.605066 
L 198.467271 230.511125 
L 198.483409 230.417185 
L 198.5641 230.511125 
L 198.644792 230.417185 
L 198.790036 230.135362 
L 198.935281 230.041421 
L 199.080526 229.759598 
L 199.193494 229.665657 
L 199.354877 229.289894 
L 199.41943 229.195953 
L 199.548536 229.008071 
L 199.661504 229.102012 
L 199.790611 229.008071 
L 199.919717 228.820189 
L 199.98427 228.726248 
L 200.048824 228.538366 
L 200.097238 228.632307 
L 200.516834 228.538366 
L 200.662079 228.162603 
L 200.710494 228.256544 
L 200.758908 228.162603 
L 200.871877 228.068662 
L 201.000983 227.88078 
L 201.065536 227.786839 
L 201.210781 227.505016 
L 201.372164 227.411075 
L 201.485132 227.317135 
L 201.646515 227.223194 
L 201.775621 227.035312 
L 202.130664 226.941371 
L 202.195217 226.84743 
L 202.227493 226.941371 
L 202.3566 226.84743 
L 202.485706 226.659548 
L 202.550259 226.565607 
L 202.711642 226.189844 
L 202.969855 226.095903 
L 203.098961 225.908021 
L 203.728355 226.001962 
L 203.792908 226.189844 
L 203.841323 226.095903 
L 204.083397 226.189844 
L 204.14795 226.283785 
L 204.180227 226.189844 
L 204.632099 226.095903 
L 204.728929 225.908021 
L 204.745067 226.001962 
L 204.809621 225.908021 
L 204.938727 225.720139 
L 205.019418 225.81408 
L 205.116248 225.908021 
L 205.164663 225.81408 
L 205.19694 226.001962 
L 205.213078 225.908021 
L 205.261493 226.001962 
L 205.358323 226.189844 
L 205.374461 226.095903 
L 206.052269 226.189844 
L 206.197514 226.471666 
L 206.455727 226.565607 
L 206.584833 226.753489 
L 206.665525 226.84743 
L 206.810769 227.129253 
L 207.343333 227.035312 
L 207.359471 226.941371 
L 207.440163 227.035312 
L 207.666099 227.129253 
L 207.682237 227.223194 
L 207.762929 227.129253 
L 208.021141 227.035312 
L 208.150248 226.84743 
L 208.198663 226.753489 
L 208.360046 226.377725 
L 208.473014 226.283785 
L 208.585982 226.189844 
L 208.924886 226.095903 
L 209.053992 225.908021 
L 209.215375 225.81408 
L 209.344482 225.626198 
L 209.538141 225.532257 
L 209.683386 225.250434 
L 209.715662 225.156494 
L 209.844769 224.968612 
L 210.054567 224.874671 
L 210.11912 224.78073 
L 210.151396 224.874671 
L 210.264364 224.968612 
L 210.393471 225.156494 
L 211.055141 225.062553 
L 211.200385 224.78073 
L 211.329492 224.686789 
L 211.458598 224.498907 
L 211.652258 224.404966 
L 211.749088 224.311025 
L 211.781364 224.404966 
L 211.829779 224.217084 
L 211.845917 224.311025 
L 211.991162 224.029203 
L 212.168683 224.123144 
L 212.313928 224.404966 
L 212.410758 224.311025 
L 212.475311 224.123144 
L 212.507587 224.217084 
L 212.556002 224.311025 
L 212.588279 224.217084 
L 212.636694 224.123144 
L 212.685109 224.217084 
L 212.846492 224.592848 
L 213.185396 224.498907 
L 213.217672 224.404966 
L 213.266087 224.592848 
L 213.556577 224.498907 
L 213.653406 224.404966 
L 213.750236 224.498907 
L 213.927757 224.029203 
L 214.024587 223.935262 
L 214.073002 223.74738 
L 214.137555 223.841321 
L 214.2828 223.74738 
L 214.395768 223.653439 
L 214.589427 223.559498 
L 214.718534 223.371616 
L 214.84764 223.465557 
L 214.879917 223.559498 
L 214.928332 223.371616 
L 215.202683 223.277675 
L 215.315651 223.183734 
L 215.493172 223.277675 
L 215.557725 223.371616 
L 215.590002 223.277675 
L 215.751385 223.371616 
L 215.767523 223.465557 
L 215.848214 223.371616 
L 215.945044 223.277675 
L 216.122566 222.807971 
L 216.187119 222.71403 
L 216.300087 222.432207 
L 216.316225 222.526148 
L 216.46147 222.432207 
L 216.606714 222.150384 
L 216.622853 222.244325 
L 216.703544 222.150384 
L 216.92948 222.056444 
L 216.977895 221.962503 
L 217.02631 222.056444 
L 217.042448 222.150384 
L 217.12314 222.056444 
L 217.704118 222.150384 
L 217.817087 222.244325 
L 218.204406 222.244325 
L 218.34965 222.71403 
L 218.656278 222.620089 
L 218.769246 222.526148 
L 218.962905 222.620089 
L 219.027459 222.526148 
L 219.075874 222.71403 
L 219.140427 222.620089 
L 219.172703 222.71403 
L 219.511608 222.807971 
L 219.640714 222.995853 
L 219.915065 223.089794 
L 220.124863 223.74738 
L 220.205554 223.841321 
L 220.350799 224.123144 
L 220.479905 223.935262 
L 221.125437 223.841321 
L 221.141575 223.74738 
L 221.222267 223.841321 
L 221.270682 223.74738 
L 221.415926 223.465557 
L 221.722554 223.371616 
L 221.85166 223.183734 
L 221.900075 223.183734 
L 222.029182 222.807971 
L 222.077596 222.71403 
L 222.158288 222.432207 
L 222.206703 222.526148 
L 222.739267 222.432207 
L 222.868373 222.244325 
L 222.916788 222.150384 
L 223.045894 221.962503 
L 223.142724 221.868562 
L 223.287969 221.586739 
L 223.384798 221.492798 
L 223.513905 221.304916 
L 223.626873 221.210975 
L 223.836671 220.553389 
L 223.981915 220.459448 
L 224.046468 220.271566 
L 224.094883 220.365507 
L 224.256266 220.741271 
L 224.320819 220.64733 
L 224.385373 220.553389 
L 224.417649 220.64733 
L 224.498341 220.741271 
L 224.514479 220.835212 
L 224.579032 220.741271 
L 224.59517 220.64733 
L 224.643585 220.835212 
L 224.659724 220.835212 
L 224.740415 220.929153 
L 224.869522 221.117034 
L 225.127734 221.023094 
L 225.240702 220.929153 
L 225.289117 221.023094 
L 225.305255 221.117034 
L 225.35367 220.929153 
L 225.369809 220.929153 
L 225.54733 221.023094 
L 225.676436 221.210975 
L 225.740989 221.117034 
L 225.853958 221.023094 
L 226.031479 220.929153 
L 226.289691 219.989743 
L 226.660872 219.895803 
L 226.806117 219.61398 
L 227.06433 219.707921 
L 227.096606 219.801862 
L 227.145021 219.707921 
L 227.257989 219.520039 
L 227.370957 219.707921 
L 227.548479 219.238216 
L 227.661447 219.144275 
L 227.677585 219.050334 
L 227.758276 219.144275 
L 227.855106 219.332157 
L 227.871244 219.238216 
L 228.048766 219.144275 
L 228.097181 219.050334 
L 228.145595 219.144275 
L 228.419946 219.050334 
L 228.532915 218.956393 
L 228.565191 218.862453 
L 228.694297 218.674571 
L 228.823404 218.58063 
L 228.871819 218.392748 
L 228.920234 218.486689 
L 229.000925 218.58063 
L 229.017063 218.486689 
L 229.097755 218.392748 
L 229.243 218.110925 
L 229.307553 218.016984 
L 229.452797 217.735162 
L 229.630319 217.829103 
L 229.646457 217.923043 
L 229.71101 217.735162 
L 230.082191 217.641221 
L 230.098329 217.54728 
L 230.162882 217.735162 
L 230.905244 217.641221 
L 231.179595 216.607871 
L 231.22801 216.51393 
L 231.389393 216.138166 
L 231.437808 216.044225 
L 231.921957 213.789643 
L 232.002648 213.695702 
L 232.115616 212.662352 
L 232.164031 211.441121 
L 232.180169 207.965307 
L 232.244722 74.757096 
L 232.309276 137.13386 
L 232.470659 217.453339 
L 232.535212 218.204866 
L 232.599765 218.016984 
L 232.74501 217.735162 
L 233.035499 219.989743 
L 233.551924 224.874671 
L 233.584201 224.968612 
L 233.826275 226.565607 
L 234.504084 229.94748 
L 234.584775 230.041421 
L 234.762296 230.511125 
L 234.82685 230.605066 
L 234.988233 230.98083 
L 235.020509 231.074771 
L 235.181892 231.450535 
L 235.19803 231.356594 
L 235.230307 231.544476 
L 235.262584 231.544476 
L 235.359413 231.638416 
L 235.504658 231.920239 
L 235.601488 232.01418 
L 235.730594 232.202062 
L 235.908115 232.296003 
L 236.021083 232.389944 
L 236.117913 232.483885 
L 236.263158 232.765707 
L 236.279296 232.671766 
L 236.343849 232.765707 
L 236.505232 233.141471 
L 236.876413 233.04753 
L 237.005519 232.859648 
L 237.070073 233.04753 
L 237.118488 232.953589 
L 237.231456 232.859648 
L 237.392839 232.765707 
L 237.521945 232.577826 
L 237.683328 232.483885 
L 237.844711 232.108121 
L 237.957679 232.01418 
L 238.070647 231.920239 
L 238.167477 231.826298 
L 238.296583 231.638416 
L 238.474104 231.544476 
L 238.554796 231.356594 
L 238.587072 231.450535 
L 238.667764 231.356594 
L 238.780732 231.262653 
L 238.845285 231.168712 
L 238.942115 231.074771 
L 238.958253 231.168712 
L 239.022806 230.98083 
L 239.151913 230.886889 
L 239.297157 230.605066 
L 239.361711 230.511125 
L 239.490817 230.323244 
L 239.732891 230.229303 
L 239.845859 230.135362 
L 240.152487 230.041421 
L 240.265455 229.94748 
L 240.572083 229.853539 
L 240.685051 229.759598 
L 240.959402 229.665657 
L 241.088508 229.477775 
L 241.459689 229.383835 
L 241.588795 229.195953 
L 241.717902 229.102012 
L 241.847008 228.91413 
L 241.895423 228.820189 
L 242.008391 228.726248 
L 242.169774 228.820189 
L 242.363433 242.535562 
L 242.799167 253.902412 
L 243.234901 261.511626 
L 243.654497 267.05414 
L 243.767465 268.275372 
L 244.396859 274.381531 
L 244.606657 276.166408 
L 244.945561 278.890694 
L 246.430284 286.969613 
L 246.46256 287.063554 
L 246.769188 288.284786 
L 246.801465 288.378726 
L 247.108092 289.599958 
L 247.172645 289.693899 
L 247.382443 290.351486 
L 247.41472 290.445426 
L 247.624518 291.103013 
L 247.672933 291.196954 
L 247.898869 291.948481 
L 247.963422 292.042422 
L 248.157081 292.606067 
L 248.221635 292.700008 
L 248.383018 293.075772 
L 248.463709 293.169713 
L 248.64123 293.639417 
L 248.721922 293.733358 
L 248.867166 294.015181 
L 248.996273 294.109122 
L 249.141517 294.390945 
L 249.189932 294.484886 
L 249.335177 294.766708 
L 249.544975 294.860649 
L 249.674081 295.048531 
L 249.722496 295.142472 
L 249.851602 295.330354 
L 249.964571 295.424295 
L 250.093677 295.612177 
L 250.384166 295.706117 
L 250.497134 295.800058 
L 250.593964 295.893999 
L 250.610102 295.98794 
L 250.690794 295.893999 
L 250.884453 295.98794 
L 250.997421 296.081881 
L 251.255634 296.175822 
L 251.271772 296.269763 
L 251.336326 296.175822 
L 251.368602 296.081881 
L 251.433155 296.175822 
L 251.836613 296.269763 
L 251.852751 296.363704 
L 251.933443 296.269763 
L 252.046411 296.175822 
L 252.546698 296.081881 
L 252.562836 295.98794 
L 252.643528 296.081881 
L 252.853325 295.98794 
L 252.982432 295.800058 
L 253.724793 295.706117 
L 253.821623 295.612177 
L 253.934591 295.706117 
L 254.176666 295.612177 
L 254.305772 295.424295 
L 254.741506 295.330354 
L 254.789921 295.142472 
L 254.838336 295.330354 
L 255.015857 295.236413 
L 255.031995 295.142472 
L 255.096548 295.330354 
L 255.112687 295.236413 
L 255.354761 295.142472 
L 255.467729 295.048531 
L 255.709804 294.95459 
L 255.822772 294.860649 
L 256.000293 294.766708 
L 256.129399 294.578827 
L 256.242367 294.672767 
L 256.419889 294.578827 
L 256.548995 294.390945 
L 256.774931 294.297004 
L 256.791069 294.203063 
L 256.871761 294.297004 
L 256.968591 294.203063 
L 257.081559 294.109122 
L 257.129974 294.015181 
L 257.25908 293.827299 
L 257.517293 293.733358 
L 257.630261 293.639417 
L 258.01758 293.545477 
L 258.146686 293.357595 
L 258.162824 293.451536 
L 258.243516 293.357595 
L 258.259654 293.357595 
L 258.372622 287.909022 
L 259.647548 288.002963 
L 259.679824 288.096904 
L 259.744377 288.002963 
L 260.244665 287.909022 
L 260.276941 287.72114 
L 260.341494 287.909022 
L 261.42276 288.002963 
L 261.471175 288.096904 
L 261.503452 288.002963 
L 261.51959 287.909022 
L 261.600281 288.002963 
L 262.616994 287.909022 
L 262.649271 287.815081 
L 262.713824 287.909022 
L 263.230249 288.002963 
L 263.246387 288.096904 
L 263.327079 288.002963 
L 264.16627 288.096904 
L 264.214685 288.190845 
L 264.2631 288.096904 
L 264.392206 288.190845 
L 264.505175 288.284786 
L 266.377217 288.284786 
L 266.570876 267.242022 
L 267.151855 242.535562 
L 268.265397 213.319939 
L 268.507472 210.219889 
L 268.846376 203.550084 
L 268.910929 74.381332 
L 268.991621 156.67357 
L 269.153004 218.298807 
L 269.18528 218.58063 
L 269.233695 218.204866 
L 269.395078 217.453339 
L 269.572599 217.923043 
L 269.604876 218.016984 
L 269.798535 218.58063 
L 269.814674 218.486689 
L 269.863089 218.768512 
L 269.94378 218.862453 
L 270.089025 219.144275 
L 270.282684 219.238216 
L 270.395652 219.426098 
L 270.524759 219.238216 
L 270.653865 219.238216 
L 270.782971 219.520039 
L 270.79911 219.61398 
L 270.879801 219.520039 
L 271.008907 219.332157 
L 271.154152 219.426098 
L 271.218705 219.61398 
L 271.26712 219.520039 
L 271.428503 219.144275 
L 271.444641 219.238216 
L 271.525333 219.144275 
L 271.638301 219.050334 
L 271.702854 218.956393 
L 271.896514 218.392748 
L 272.009482 218.298807 
L 272.283833 217.265457 
L 272.299971 217.359398 
L 272.380663 217.265457 
L 272.445216 217.265457 
L 272.59046 216.795753 
L 272.816397 216.044225 
L 272.88095 215.950284 
L 273.090748 215.292698 
L 273.123024 215.198757 
L 273.25213 215.010875 
L 273.300545 215.104816 
L 273.461928 215.48058 
L 273.526482 215.574521 
L 273.671726 215.856343 
L 273.800833 215.950284 
L 273.865386 216.044225 
L 273.881524 215.950284 
L 274.075184 215.386639 
L 274.172013 215.292698 
L 274.414088 214.44723 
L 274.446364 214.353289 
L 274.623886 213.883584 
L 274.704577 213.977525 
L 274.752992 214.071466 
L 274.785269 213.883584 
L 274.801407 213.977525 
L 274.86596 213.883584 
L 274.946651 213.695702 
L 274.96279 213.789643 
L 275.043481 213.883584 
L 275.05962 213.789643 
L 275.172588 213.695702 
L 275.350109 213.225998 
L 275.495354 213.132057 
L 275.753566 212.098707 
L 275.801981 212.192648 
L 275.834258 212.098707 
L 276.027917 211.535062 
L 276.060194 211.441121 
L 276.140885 211.535062 
L 276.1893 211.253239 
L 276.221577 211.159298 
L 276.399098 210.31383 
L 276.641172 209.374421 
L 276.657311 209.468361 
L 276.705726 209.28048 
L 277.04463 206.838016 
L 277.286704 203.08038 
L 277.351257 71.469164 
L 277.431949 142.676374 
L 277.593332 214.822993 
L 277.754715 216.232107 
L 278.206587 219.426098 
L 278.448662 221.117034 
L 278.480938 221.210975 
L 278.868257 222.995853 
L 278.900534 222.901912 
L 278.93281 223.089794 
L 278.948949 223.089794 
L 279.094193 223.371616 
L 279.158747 223.465557 
L 279.287853 223.653439 
L 279.320129 223.74738 
L 279.433098 223.841321 
L 279.69131 223.74738 
L 279.836555 223.465557 
L 280.014076 223.371616 
L 280.223874 222.71403 
L 280.54664 222.620089 
L 280.64347 222.526148 
L 280.659608 222.620089 
L 280.740299 222.526148 
L 280.804853 222.432207 
L 280.820991 222.338266 
L 280.885544 222.526148 
L 280.901682 222.432207 
L 281.079204 222.338266 
L 281.192172 222.244325 
L 281.563353 222.150384 
L 281.708597 221.868562 
L 281.789289 221.962503 
L 281.805427 221.868562 
L 282.241161 221.774621 
L 282.370267 221.586739 
L 282.483235 221.492798 
L 282.612342 221.304916 
L 282.951246 221.210975 
L 283.096491 220.929153 
L 283.403118 220.835212 
L 283.532225 220.64733 
L 283.85499 220.553389 
L 284.000235 220.271566 
L 284.04865 220.177625 
L 284.210033 219.801862 
L 284.24231 219.707921 
L 284.387554 219.426098 
L 284.484384 219.332157 
L 284.71032 218.58063 
L 284.90398 218.486689 
L 285.033086 218.298807 
L 285.065363 218.204866 
L 285.259022 217.641221 
L 285.307437 217.54728 
L 285.420405 217.453339 
L 285.46882 217.359398 
L 285.662479 216.795753 
L 285.678618 216.889693 
L 285.743171 216.701812 
L 285.823862 216.607871 
L 285.985245 216.232107 
L 286.146628 216.138166 
L 286.308011 215.762403 
L 286.437118 215.950284 
L 286.517809 215.856343 
L 286.550086 215.762403 
L 286.598501 215.856343 
L 286.711469 215.950284 
L 286.743745 215.856343 
L 286.856713 215.762403 
L 287.486107 215.668462 
L 287.582937 215.48058 
L 287.599075 215.574521 
L 287.760458 215.48058 
L 288.067085 214.259348 
L 288.341436 214.165407 
L 288.486681 213.789643 
L 288.567373 214.071466 
L 288.615788 213.977525 
L 288.809447 213.41388 
L 288.841724 213.319939 
L 288.97083 213.132057 
L 289.132213 213.507821 
L 289.245181 213.601762 
L 289.374287 213.789643 
L 289.567947 213.695702 
L 289.810021 212.850234 
L 289.987543 212.756293 
L 290.342585 211.253239 
L 290.358723 211.34718 
L 290.391 211.159298 
L 290.439415 211.253239 
L 290.552383 211.159298 
L 290.665351 211.065357 
L 290.697628 210.971416 
L 290.842872 210.689593 
L 290.907425 210.595652 
L 291.004255 210.407771 
L 291.020394 210.501712 
L 291.05267 210.407771 
L 291.197915 210.125948 
L 291.230191 210.032007 
L 292.069383 204.771316 
L 292.101659 201.859148 
L 292.166212 71.844927 
L 292.230766 129.148883 
L 292.408287 214.165407 
L 292.553532 214.916934 
L 292.634223 215.010875 
L 293.376585 218.768512 
L 293.424999 218.862453 
L 293.780042 220.365507 
L 293.844595 220.459448 
L 294.054393 221.210975 
L 294.070531 221.117034 
L 294.118946 221.304916 
L 294.135084 221.304916 
L 294.248053 221.398857 
L 294.377159 221.586739 
L 294.490127 221.492798 
L 294.667648 221.586739 
L 294.812893 221.868562 
L 294.877446 221.962503 
L 294.990414 222.056444 
L 295.11952 222.150384 
L 295.21635 222.244325 
L 295.345457 222.056444 
L 295.571393 221.962503 
L 295.732776 221.586739 
L 295.797329 221.492798 
L 295.926435 221.304916 
L 295.990988 221.210975 
L 296.120095 221.023094 
L 296.200786 220.929153 
L 296.378308 220.459448 
L 296.555829 220.365507 
L 296.571967 220.271566 
L 296.652659 220.365507 
L 296.83018 220.835212 
L 297.346605 220.741271 
L 297.507988 220.365507 
L 297.717786 220.271566 
L 297.927584 219.61398 
L 298.040552 219.520039 
L 298.15352 219.238216 
L 298.169658 219.332157 
L 298.234211 219.238216 
L 298.444009 218.58063 
L 298.524701 218.486689 
L 298.637669 218.298807 
L 298.653807 218.392748 
L 298.702222 218.204866 
L 298.71836 218.204866 
L 298.976573 217.265457 
L 299.057265 217.171516 
L 299.267062 216.51393 
L 299.315477 216.419989 
L 299.347754 216.326048 
L 299.412307 216.419989 
L 299.912594 216.326048 
L 300.041701 216.138166 
L 300.073977 216.044225 
L 300.170807 215.856343 
L 300.186945 215.950284 
L 300.219222 216.044225 
L 300.267637 215.856343 
L 300.541988 215.762403 
L 300.671094 215.574521 
L 300.735647 215.668462 
L 300.767924 215.574521 
L 300.961583 215.48058 
L 301.139105 215.010875 
L 301.155243 215.104816 
L 301.203658 214.916934 
L 301.219796 214.916934 
L 301.397317 214.822993 
L 301.526424 214.635112 
L 301.816913 214.729052 
L 301.929881 214.822993 
L 302.139679 214.916934 
L 302.284924 215.198757 
L 302.397892 215.104816 
L 302.51086 215.198757 
L 302.672243 214.729052 
L 302.752934 214.916934 
L 302.785211 214.822993 
L 302.849764 214.729052 
L 303.027285 214.259348 
L 303.091838 214.165407 
L 303.26936 213.695702 
L 303.333913 213.601762 
L 303.479157 213.319939 
L 303.575987 213.225998 
L 303.721232 212.944175 
L 303.850338 212.850234 
L 304.011721 212.474471 
L 304.108551 212.38053 
L 304.286072 211.910825 
L 304.528147 211.816884 
L 304.608838 211.535062 
L 304.657253 211.629002 
L 304.721806 211.629002 
L 304.818636 211.253239 
L 304.850912 211.34718 
L 304.899327 211.34718 
L 305.06071 210.501712 
L 305.109125 210.595652 
L 305.125263 210.501712 
L 305.270508 210.032007 
L 305.367338 209.938066 
L 305.560997 209.374421 
L 305.609412 209.28048 
L 306.190391 205.428902 
L 306.351774 201.953089 
L 306.416327 72.314632 
L 306.497019 142.958197 
L 306.658402 213.695702 
L 306.739093 214.44723 
L 306.787508 214.259348 
L 306.932753 213.883584 
L 306.948891 213.977525 
L 306.997306 213.789643 
L 307.029582 213.883584 
L 307.207104 213.977525 
L 307.820359 216.983634 
L 307.868774 217.077575 
L 308.046295 217.54728 
L 308.110848 217.641221 
L 308.304508 218.674571 
L 308.465891 219.050334 
L 308.788657 218.956393 
L 308.885486 218.862453 
L 308.998454 218.956393 
L 309.095284 219.050334 
L 309.22439 219.238216 
L 309.337359 219.144275 
L 309.466465 219.238216 
L 309.579433 219.332157 
L 309.708539 219.144275 
L 309.756954 219.050334 
L 309.789231 218.956393 
L 309.853784 219.050334 
L 310.111997 219.144275 
L 310.224965 219.238216 
L 310.499316 219.144275 
L 310.628422 218.956393 
L 310.967326 218.862453 
L 311.096433 218.674571 
L 311.160986 218.58063 
L 311.322369 218.204866 
L 311.354645 218.110925 
L 311.532167 217.641221 
L 311.564443 217.54728 
L 311.709688 217.265457 
L 311.919486 217.171516 
L 312.032454 217.077575 
L 312.306805 216.983634 
L 312.468188 216.607871 
L 312.532741 216.51393 
L 312.694124 216.138166 
L 312.903922 216.044225 
L 313.033028 215.856343 
L 313.081443 215.762403 
L 313.210549 215.574521 
L 313.355794 215.48058 
L 313.371932 215.386639 
L 313.452624 215.48058 
L 313.67856 215.386639 
L 313.743113 215.48058 
L 313.823805 215.104816 
L 313.936773 215.010875 
L 314.049741 214.916934 
L 314.43706 214.822993 
L 314.646858 214.165407 
L 314.743687 214.071466 
L 314.856655 213.789643 
L 314.872794 213.883584 
L 314.985762 213.789643 
L 315.163283 213.319939 
L 315.243975 213.225998 
L 315.405358 212.850234 
L 315.599017 212.756293 
L 315.728123 212.474471 
L 315.744262 212.568412 
L 315.824953 212.474471 
L 315.937921 212.286589 
L 316.583453 215.48058 
L 316.793251 215.386639 
L 316.809389 215.292698 
L 316.873942 215.386639 
L 316.890081 215.48058 
L 316.938496 215.292698 
L 316.954634 215.292698 
L 317.164432 215.198757 
L 317.2774 215.010875 
L 317.406506 215.198757 
L 317.713134 215.104816 
L 317.826102 215.010875 
L 317.874517 214.916934 
L 318.197283 213.507821 
L 318.213421 213.601762 
L 318.261836 213.41388 
L 318.294112 213.507821 
L 318.713708 211.629002 
L 318.745985 211.535062 
L 318.988059 210.689593 
L 319.020336 210.689593 
L 319.197857 209.750184 
L 319.310825 209.750184 
L 319.472208 209.092598 
L 319.633591 207.589543 
L 319.859527 203.737966 
L 319.891804 140.515733 
L 319.92408 73.535864 
L 319.988633 117.969915 
L 320.166155 211.441121 
L 320.246846 212.286589 
L 320.295261 212.004766 
L 320.359814 212.098707 
L 320.553474 212.662352 
L 320.666442 212.756293 
L 320.811686 213.038116 
L 320.87624 213.132057 
L 321.279697 214.916934 
L 321.328112 215.010875 
L 321.489495 215.386639 
L 321.53791 215.48058 
L 321.667016 215.668462 
L 321.796122 215.762403 
L 321.925229 215.950284 
L 321.989782 216.044225 
L 322.135027 216.326048 
L 322.29641 216.419989 
L 322.441654 216.701812 
L 322.473931 216.607871 
L 322.538484 216.701812 
L 322.66759 216.889693 
L 322.76442 216.983634 
L 322.974218 217.641221 
L 323.006495 217.735162 
L 323.119463 217.829103 
L 323.652026 217.735162 
L 323.764994 217.54728 
L 323.797271 217.641221 
L 323.861824 217.54728 
L 323.910239 217.453339 
L 324.023207 217.171516 
L 324.039345 217.265457 
L 324.152314 217.171516 
L 324.168452 217.077575 
L 324.200728 217.265457 
L 324.216867 217.265457 
L 324.265282 217.359398 
L 324.313696 217.265457 
L 324.426665 217.077575 
L 324.539633 217.171516 
L 324.555771 217.077575 
L 324.636462 217.171516 
L 324.765569 217.265457 
L 324.830122 217.359398 
L 324.862399 217.265457 
L 325.023781 217.359398 
L 325.056058 217.453339 
L 325.120611 217.359398 
L 325.685452 217.265457 
L 325.814558 217.077575 
L 325.895249 216.983634 
L 326.024356 216.795753 
L 326.185739 216.701812 
L 326.347122 216.326048 
L 326.395537 216.232107 
L 326.540781 215.762403 
L 326.589196 215.668462 
L 326.750579 215.292698 
L 326.782856 215.198757 
L 326.911962 215.010875 
L 326.992653 214.916934 
L 327.137898 214.635112 
L 327.21859 214.541171 
L 327.299281 214.44723 
L 327.315419 214.541171 
L 327.58977 214.44723 
L 327.638185 214.353289 
L 327.6866 214.44723 
L 327.767292 214.353289 
L 327.944813 213.883584 
L 328.186887 213.789643 
L 328.412823 213.038116 
L 328.493515 213.038116 
L 328.622621 212.474471 
L 328.63876 212.568412 
L 328.961525 212.662352 
L 328.977664 212.756293 
L 329.00994 212.568412 
L 329.042217 212.568412 
L 329.219738 212.474471 
L 329.332706 212.098707 
L 329.364983 212.192648 
L 329.413398 212.098707 
L 329.590919 211.629002 
L 329.703887 211.722943 
L 329.86527 211.629002 
L 329.9621 211.159298 
L 330.010515 211.34718 
L 330.091206 211.629002 
L 330.123483 211.441121 
L 330.204174 211.34718 
L 330.397834 210.783534 
L 330.43011 210.877475 
L 330.478525 210.689593 
L 330.688323 210.689593 
L 330.833568 210.219889 
L 330.930398 210.219889 
L 331.124057 231.732357 
L 331.495238 246.950785 
L 332.076216 260.666158 
L 332.786301 271.18754 
L 333.528663 278.608872 
L 335.142493 287.439317 
L 335.174769 287.439317 
L 335.336152 288.190845 
L 335.35229 288.190845 
L 335.529812 289.036313 
L 335.933269 290.82119 
L 335.965546 290.915131 
L 336.191482 291.666658 
L 336.239897 291.760599 
L 336.433556 292.324245 
L 336.465833 292.418186 
L 336.594939 292.606067 
L 336.675631 292.700008 
L 336.853152 293.169713 
L 336.917705 293.263654 
L 337.079088 293.733358 
L 337.111365 293.639417 
L 337.127503 293.827299 
L 337.159779 293.827299 
L 337.321162 294.203063 
L 337.385716 294.297004 
L 337.547099 294.672767 
L 337.660067 294.766708 
L 337.82145 295.142472 
L 337.950556 295.236413 
L 338.079662 295.518236 
L 338.095801 295.424295 
L 338.144215 295.612177 
L 338.160354 295.518236 
L 338.305598 295.800058 
L 338.434705 295.893999 
L 338.563811 296.081881 
L 338.741332 296.175822 
L 338.838162 296.269763 
L 338.934992 296.175822 
L 338.983407 296.269763 
L 339.031822 296.175822 
L 339.306173 296.081881 
L 339.386864 295.98794 
L 339.403002 296.081881 
L 340.758619 295.98794 
L 340.887726 295.800058 
L 341.049109 295.706117 
L 341.194353 295.424295 
L 341.258906 295.330354 
L 341.388013 295.142472 
L 341.565534 295.048531 
L 341.69464 294.860649 
L 341.79147 294.95459 
L 341.904438 294.860649 
L 342.630662 294.766708 
L 342.6468 294.672767 
L 342.679076 294.860649 
L 342.711353 294.860649 
L 342.888874 294.766708 
L 343.001842 294.672767 
L 343.760342 294.578827 
L 343.792619 294.484886 
L 343.857172 294.578827 
L 343.97014 294.484886 
L 344.050831 294.390945 
L 344.06697 294.484886 
L 344.228353 294.390945 
L 344.341321 294.297004 
L 344.680225 294.203063 
L 344.696363 294.109122 
L 344.777055 294.203063 
L 344.922299 294.109122 
L 345.035268 294.015181 
L 345.600108 293.92124 
L 345.616246 293.827299 
L 345.696938 293.92124 
L 345.793767 293.827299 
L 345.906735 293.733358 
L 346.068118 293.639417 
L 346.181086 293.451536 
L 346.213363 293.545477 
L 346.261778 293.451536 
L 346.374746 293.357595 
L 346.568406 293.263654 
L 346.584544 293.169713 
L 346.665235 293.263654 
L 346.971863 293.169713 
L 347.100969 292.981831 
L 347.940161 293.075772 
L 347.972437 293.169713 
L 348.03699 293.075772 
L 349.666958 293.169713 
L 349.683097 293.263654 
L 349.763788 293.169713 
L 351.16782 293.263654 
L 351.264649 293.357595 
L 351.361479 293.263654 
L 351.393756 293.357595 
L 351.442171 293.263654 
L 351.539 293.169713 
L 351.555139 293.263654 
L 351.63583 293.169713 
L 352.362054 293.263654 
L 352.475022 293.357595 
L 353.072139 293.263654 
L 353.088277 293.169713 
L 353.168968 293.263654 
L 353.362628 293.169713 
L 353.394904 293.075772 
L 353.443319 293.263654 
L 353.524011 293.169713 
L 353.572426 293.075772 
L 353.604702 293.169713 
L 353.669255 293.263654 
L 353.701532 293.169713 
L 354.702106 293.075772 
L 354.815074 292.981831 
L 354.831213 293.075772 
L 354.879628 292.88789 
L 354.895766 292.981831 
L 355.008734 292.88789 
L 355.13784 292.793949 
L 355.3315 251.553889 
L 355.79951 209.750184 
L 355.89634 194.249934 
L 355.944755 69.120641 
L 356.009308 131.685287 
L 356.154553 207.871366 
L 356.170691 207.683484 
L 356.364351 200.637916 
L 356.800085 187.955893 
L 356.864638 71.938868 
L 356.945329 130.370115 
L 357.122851 200.637916 
L 357.284234 202.328852 
L 357.477893 202.892498 
L 357.590861 202.892498 
L 357.703829 203.268261 
L 357.719968 203.17432 
L 357.865212 203.08038 
L 358.17184 201.859148 
L 358.236393 201.765207 
L 358.73668 198.289393 
L 359.043308 193.592348 
L 359.172414 187.016484 
L 359.236967 68.181232 
L 359.30152 115.339569 
L 359.49518 200.919739 
L 359.672701 203.644025 
L 359.898637 204.489493 
L 359.930914 204.395552 
L 359.995467 204.489493 
L 360.237542 204.395552 
L 360.511893 203.362202 
L 360.640999 203.268261 
L 360.834658 202.516734 
L 360.850797 202.610675 
L 360.947627 202.516734 
L 361.092871 202.04703 
L 361.10901 202.14097 
L 361.173563 202.04703 
L 361.318807 201.765207 
L 361.351084 201.671266 
L 361.625435 200.637916 
L 361.706126 200.543975 
L 361.867509 200.168211 
L 361.883648 200.168211 
L 362.028892 199.604566 
L 362.125722 199.510625 
L 362.416211 198.383334 
L 362.496903 198.289393 
L 363.223126 194.625698 
L 363.255403 194.531757 
L 363.545892 191.149884 
L 363.56203 189.365007 
L 363.626584 66.96 
L 363.707275 126.706419 
L 363.884796 199.698507 
L 364.046179 202.14097 
L 364.143009 202.234911 
L 364.272115 202.422793 
L 364.32053 202.516734 
L 364.352807 202.704616 
L 364.433498 202.610675 
L 364.449637 202.516734 
L 364.51419 202.610675 
L 364.594881 202.798557 
L 364.627158 202.704616 
L 364.836956 202.798557 
L 364.853094 202.892498 
L 364.885371 202.704616 
L 364.917647 202.704616 
L 365.159722 201.859148 
L 365.17586 201.859148 
L 365.337243 201.10762 
L 365.595456 201.01368 
L 366.240987 197.819689 
L 366.321679 197.913629 
L 366.370094 198.101511 
L 366.40237 197.913629 
L 366.757413 196.410575 
L 366.821966 196.410575 
L 366.967211 195.846929 
L 367.015626 196.034811 
L 367.06404 195.846929 
L 367.193147 195.752989 
L 367.91937 191.055943 
L 367.983923 188.989243 
L 368.0162 144.085488 
L 368.064615 68.275173 
L 368.129168 113.178928 
L 368.338966 198.759098 
L 368.516487 200.919739 
L 368.694008 201.389443 
L 368.806976 201.295502 
L 368.919944 201.389443 
L 369.178157 201.483384 
L 369.194295 201.577325 
L 369.24271 201.483384 
L 369.323402 201.295502 
L 369.355678 201.389443 
L 369.387955 201.671266 
L 369.468646 201.577325 
L 369.646168 201.10762 
L 369.662306 201.201561 
L 369.710721 201.01368 
L 369.888242 200.450034 
L 369.920519 200.543975 
L 369.968934 200.356093 
L 370.485359 197.913629 
L 370.533774 197.819689 
L 370.695157 196.97422 
L 370.808125 197.068161 
L 371.050199 196.222693 
L 371.082476 196.128752 
L 371.211582 195.659048 
L 371.243859 195.752989 
L 371.292274 195.659048 
L 371.389104 195.377225 
L 371.42138 195.471166 
L 371.534348 195.565107 
L 371.679593 196.034811 
L 371.744146 195.846929 
L 371.776423 196.034811 
L 371.840976 195.94087 
L 371.970082 195.565107 
L 371.98622 195.659048 
L 372.08305 195.565107 
L 372.502646 193.686288 
L 372.534923 193.592348 
L 372.776997 191.995352 
L 372.857688 190.962002 
L 372.922242 187.580129 
L 372.986795 67.711527 
L 373.067486 118.815383 
L 373.261146 196.598457 
L 373.454805 198.665157 
L 373.680741 199.416684 
L 373.858263 199.322743 
L 373.955092 199.134861 
L 373.971231 199.228802 
L 374.051922 199.416684 
L 374.084199 199.322743 
L 374.293997 198.571216 
L 374.310135 198.665157 
L 374.35855 198.383334 
L 374.519933 197.913629 
L 374.536071 198.00757 
L 374.600624 197.819689 
L 374.842699 197.725748 
L 375.052497 197.068161 
L 375.100911 197.162102 
L 375.197741 197.349984 
L 375.21388 197.256043 
L 375.262294 197.162102 
L 375.488231 196.410575 
L 375.520507 196.316634 
L 375.843273 194.90752 
L 375.891688 195.095402 
L 375.923965 194.90752 
L 376.149901 194.155993 
L 376.182177 194.249934 
L 376.24673 194.155993 
L 376.295145 194.062052 
L 376.666326 192.465057 
L 376.795432 192.371116 
L 377.10206 190.116534 
L 377.182752 187.861952 
L 377.215028 153.761401 
L 377.263443 68.463055 
L 377.327996 106.884887 
L 377.537794 194.343875 
L 377.683039 196.786339 
L 377.699177 196.692398 
L 377.908975 197.349984 
L 377.941251 197.443925 
L 378.102634 197.819689 
L 378.231741 197.913629 
L 378.280156 198.00757 
L 378.32857 197.913629 
L 378.473815 197.631807 
L 378.586783 197.537866 
L 378.828858 196.692398 
L 378.861134 196.598457 
L 378.990241 196.316634 
L 379.119347 196.504516 
L 379.167762 196.410575 
L 379.458251 195.283284 
L 379.522804 195.189343 
L 379.651911 195.001461 
L 379.74874 194.90752 
L 379.974677 194.155993 
L 380.023091 194.062052 
L 380.216751 192.84082 
L 380.232889 192.934761 
L 380.265166 192.746879 
L 380.281304 192.746879 
L 380.410411 192.558998 
L 380.491102 192.652938 
L 380.571794 192.84082 
L 380.60407 192.746879 
L 380.684762 192.652938 
L 380.846145 192.277175 
L 380.862283 192.371116 
L 380.894559 192.089293 
L 381.088219 191.431707 
L 381.104357 191.525648 
L 381.16891 191.337766 
L 381.523953 186.077075 
L 381.55623 180.064856 
L 381.620783 68.087291 
L 381.685336 105.945478 
L 381.911272 195.565107 
L 382.104932 197.725748 
L 382.185623 197.819689 
L 382.347006 198.195452 
L 382.379283 198.289393 
L 382.540666 198.665157 
L 382.702048 198.571216 
L 382.927985 197.819689 
L 383.121644 197.913629 
L 383.234612 198.289393 
L 383.266889 198.195452 
L 383.379857 198.289393 
L 383.395995 198.383334 
L 383.44441 198.195452 
L 383.460548 198.195452 
L 383.654208 197.631807 
L 383.702623 197.537866 
L 383.815591 197.068161 
L 383.864006 197.162102 
L 383.896282 197.068161 
L 384.089942 196.504516 
L 384.122218 196.598457 
L 384.170633 196.410575 
L 384.219048 196.316634 
L 384.396569 195.846929 
L 384.461123 195.752989 
L 384.557952 195.659048 
L 384.606367 195.846929 
L 384.67092 195.752989 
L 384.735474 195.659048 
L 384.896857 195.189343 
L 384.945272 195.283284 
L 384.993686 195.189343 
L 385.042101 195.095402 
L 385.090516 195.189343 
L 385.171208 195.095402 
L 385.300314 194.719639 
L 385.316452 194.813579 
L 385.348729 194.90752 
L 385.364867 195.001461 
L 385.42942 194.813579 
L 386.123367 190.210475 
L 386.317027 184.949784 
L 386.38158 70.06005 
L 386.47841 125.76701 
L 386.672069 193.968111 
L 386.833452 195.752989 
L 386.84959 195.659048 
L 386.881867 195.94087 
L 387.107803 196.786339 
L 387.14008 196.692398 
L 387.188495 196.880279 
L 387.285324 196.97422 
L 387.398292 197.162102 
L 387.575814 196.692398 
L 387.70492 196.598457 
L 387.850165 196.316634 
L 387.89858 196.222693 
L 387.963133 196.128752 
L 387.979271 196.222693 
L 388.140654 196.97422 
L 388.302037 196.598457 
L 388.527973 196.504516 
L 388.640941 196.410575 
L 388.753909 196.316634 
L 388.947569 195.752989 
L 388.979845 195.659048 
L 389.157367 195.189343 
L 389.189643 195.095402 
L 389.641515 193.028702 
L 389.657654 193.028702 
L 389.899728 190.586238 
L 390.093388 188.895302 
L 390.319324 183.728552 
L 390.3516 137.979328 
L 390.400015 69.590345 
L 390.464568 107.448533 
L 390.674366 191.901411 
L 390.835749 194.249934 
L 390.868026 194.343875 
L 391.126239 195.283284 
L 391.158515 195.283284 
L 391.174653 195.095402 
L 391.271483 195.189343 
L 391.352175 195.001461 
L 391.368313 195.095402 
L 391.432866 195.283284 
L 391.481281 195.189343 
L 391.513558 195.001461 
L 391.578111 195.095402 
L 391.691079 195.189343 
L 391.739494 195.095402 
L 391.949292 194.437816 
L 392.078398 194.343875 
L 392.385026 193.122643 
L 392.449579 193.028702 
L 392.610962 192.277175 
L 392.659377 192.183234 
L 392.869174 190.962002 
L 392.885313 190.962002 
L 393.175802 188.801361 
L 393.595398 185.889193 
L 393.724504 182.601261 
L 393.756781 147.185538 
L 393.805196 70.247932 
L 393.869749 100.872669 
L 394.111823 191.149884 
L 394.305483 194.062052 
L 394.499142 195.189343 
L 394.547557 195.283284 
L 394.70894 195.659048 
L 394.741217 195.752989 
L 394.870323 195.94087 
L 394.983291 196.034811 
L 395.015568 196.128752 
L 395.080121 196.034811 
L 395.37061 194.90752 
L 395.419025 194.813579 
L 395.548131 194.625698 
L 395.612685 194.625698 
L 395.757929 194.155993 
L 395.806344 194.062052 
L 395.967727 193.498407 
L 395.983865 193.592348 
L 396.096833 193.498407 
L 396.290493 192.465057 
L 396.32277 192.371116 
L 396.69395 190.77412 
L 396.742365 190.680179 
L 397.048993 189.177125 
L 397.081269 189.271066 
L 397.161961 189.177125 
L 397.517003 184.292197 
L 397.565418 177.622393 
L 397.629972 70.529755 
L 397.710663 111.394051 
L 397.936599 190.492298 
L 398.130259 193.404466 
L 398.162535 193.498407 
L 398.485301 194.813579 
L 398.582131 194.90752 
L 398.711237 195.095402 
L 398.904897 195.001461 
L 399.034003 194.813579 
L 399.211524 194.719639 
L 399.437461 193.968111 
L 399.582705 193.87417 
L 399.744088 193.498407 
L 399.857056 193.592348 
L 399.889333 193.498407 
L 399.937748 193.592348 
L 399.970024 193.686288 
L 400.018439 193.592348 
L 400.405758 191.901411 
L 400.454173 191.80747 
L 401.196535 186.922543 
L 401.406333 182.037616 
L 401.487024 70.529755 
L 401.583854 124.73366 
L 401.777513 188.801361 
L 401.955035 191.80747 
L 402.229386 193.780229 
L 402.358492 194.062052 
L 402.503737 193.780229 
L 402.56829 193.87417 
L 402.584428 193.968111 
L 402.66512 193.87417 
L 402.842641 193.780229 
L 403.052439 193.122643 
L 403.100854 193.028702 
L 403.278375 192.558998 
L 403.342928 192.465057 
L 403.455896 192.277175 
L 403.568864 192.371116 
L 403.923907 192.277175 
L 404.036875 192.183234 
L 404.165981 192.277175 
L 404.214396 192.371116 
L 404.262811 192.277175 
L 404.359641 192.371116 
L 404.424194 192.465057 
L 404.45647 192.371116 
L 404.521024 192.277175 
L 404.730821 191.337766 
L 404.763098 191.431707 
L 405.102002 191.337766 
L 405.327938 190.586238 
L 405.392492 190.492298 
L 405.50546 189.928652 
L 405.537736 190.022593 
L 405.602289 189.928652 
L 405.908917 187.580129 
L 406.247821 182.413379 
L 406.296236 177.998156 
L 406.376928 71.750986 
L 406.441481 108.387942 
L 406.667417 189.646829 
L 406.861076 193.028702 
L 407.248395 194.719639 
L 407.329087 194.813579 
L 407.345225 194.90752 
L 407.39364 194.719639 
L 407.409778 194.719639 
L 407.442055 194.719639 
L 407.571161 194.343875 
L 407.813236 194.437816 
L 407.893927 194.531757 
L 407.910066 194.437816 
L 408.119863 194.531757 
L 408.200555 194.719639 
L 408.232831 194.625698 
L 408.3458 194.531757 
L 408.507182 194.155993 
L 408.604012 194.155993 
L 408.797672 193.122643 
L 409.088161 191.995352 
L 409.152714 191.901411 
L 409.701416 189.177125 
L 409.717555 189.271066 
L 409.749831 189.083184 
L 409.782108 189.083184 
L 409.927352 188.331657 
L 409.959629 188.519538 
L 410.072597 188.613479 
L 410.395363 188.519538 
L 410.927927 185.043725 
L 411.08931 180.064856 
L 411.121586 157.049333 
L 411.186139 71.750986 
L 411.250693 106.790946 
L 411.476629 189.458948 
L 411.65415 192.746879 
L 411.896224 194.343875 
L 412.025331 194.625698 
L 412.154437 194.437816 
L 412.331958 194.343875 
L 412.461065 194.155993 
L 412.622448 194.249934 
L 412.703139 194.625698 
L 412.767692 194.531757 
L 412.961352 193.968111 
L 413.058182 193.87417 
L 413.187288 193.686288 
L 413.300256 193.592348 
L 413.477777 192.84082 
L 413.493916 192.934761 
L 413.623022 193.122643 
L 413.784405 192.746879 
L 413.83282 192.652938 
L 414.284692 190.586238 
L 414.365384 190.492298 
L 414.413799 190.586238 
L 414.49449 190.304416 
L 414.526767 190.210475 
L 414.704288 189.365007 
L 414.752703 189.458948 
L 414.784979 189.365007 
L 415.123884 186.922543 
L 415.398235 180.534561 
L 415.446649 100.496905 
L 415.478926 71.469164 
L 415.543479 102.375723 
L 415.785554 189.646829 
L 415.979213 192.652938 
L 416.189011 193.87417 
L 416.398809 194.531757 
L 416.624745 194.437816 
L 416.705436 194.343875 
L 416.721575 194.437816 
L 416.76999 194.437816 
L 416.931373 193.780229 
L 416.963649 193.87417 
L 416.995926 193.780229 
L 417.14117 193.310525 
L 417.189585 193.216584 
L 417.350968 192.84082 
L 417.399383 192.746879 
L 417.673734 191.713529 
L 417.706011 191.619588 
L 418.077192 190.022593 
L 418.238574 189.928652 
L 418.512926 188.801361 
L 418.529064 188.895302 
L 418.56134 188.70742 
L 418.593617 188.70742 
L 418.642032 188.613479 
L 419.110042 185.325547 
L 419.31984 181.661852 
L 419.352117 178.561802 
L 419.432808 71.657046 
L 419.5135 113.178928 
L 419.771713 212.662352 
L 420.013787 235.959698 
L 420.433383 254.278176 
L 420.83684 264.517735 
L 421.224159 270.999658 
L 421.627616 276.166408 
L 421.756723 277.481581 
L 422.208595 281.52104 
L 422.660467 284.715031 
L 422.870265 286.030204 
L 422.902542 286.124145 
L 423.612627 289.693899 
L 423.644903 289.78784 
L 424.048361 291.572717 
L 424.096776 291.666658 
L 424.354988 292.606067 
L 424.403403 292.700008 
L 424.564786 293.357595 
L 424.645478 293.451536 
L 424.839137 294.015181 
L 424.871414 294.109122 
L 425.081212 294.766708 
L 425.113488 294.860649 
L 425.274871 295.236413 
L 425.339424 295.330354 
L 425.516946 295.800058 
L 425.581499 295.893999 
L 425.726743 296.175822 
L 425.839712 296.269763 
L 426.001094 296.645527 
L 426.097924 296.739468 
L 426.243169 297.02129 
L 426.32386 297.115231 
L 426.469105 297.397054 
L 426.565935 297.490995 
L 426.678903 297.678877 
L 426.695041 297.584936 
L 426.759594 297.772818 
L 426.856424 297.866758 
L 426.98553 298.05464 
L 427.033945 298.148581 
L 427.146913 298.242522 
L 427.243743 298.336463 
L 427.388988 298.618286 
L 427.421264 298.524345 
L 427.485818 298.618286 
L 428.131349 298.712227 
L 428.260456 298.900108 
L 429.148062 298.994049 
L 429.1642 299.08799 
L 429.244892 298.994049 
L 429.341722 298.900108 
L 429.45469 298.994049 
L 429.729041 299.08799 
L 429.793594 299.181931 
L 429.82587 299.08799 
L 430.697338 298.994049 
L 430.810306 298.900108 
L 431.310594 298.806168 
L 431.375147 298.712227 
L 431.407423 298.806168 
L 431.972264 298.712227 
L 432.10137 298.524345 
L 432.633934 298.430404 
L 432.746902 298.336463 
L 433.392434 298.242522 
L 433.505402 298.148581 
L 433.795891 298.05464 
L 433.860444 297.866758 
L 433.908859 297.960699 
L 433.989551 298.05464 
L 434.005689 297.960699 
L 434.74805 297.866758 
L 434.861019 297.772818 
L 435.232199 297.678877 
L 435.345167 297.584936 
L 435.635657 297.490995 
L 435.732486 297.397054 
L 435.780901 297.490995 
L 435.780901 297.490995 
" style="fill:none;stroke:#1f77b4;stroke-linecap:square;stroke-width:1.5;"/>
   </g>
   <g id="line2d_16">
    <path clip-path="url(#p10fa7480ca)" d="M 80.754545 289.017525 
L 81.496907 291.268499 
L 83.514194 295.808926 
L 83.83696 296.347621 
L 84.192002 296.924794 
L 85.047332 298.098379 
L 85.289406 298.406205 
L 86.402949 299.57979 
L 86.515917 299.675985 
L 86.983927 300.080006 
L 87.129172 300.176202 
L 87.500353 300.464788 
L 87.645598 300.560984 
L 87.952225 300.772614 
L 88.129746 300.868809 
L 88.404097 301.041961 
L 88.597757 301.138157 
L 88.85597 301.292069 
L 88.904385 301.311309 
L 90.034065 287.940135 
L 91.40582 275.915699 
L 92.503224 268.83571 
L 94.310713 260.755289 
L 95.182181 258.042576 
L 96.763734 254.54106 
L 97.118777 253.963887 
L 97.425404 253.502149 
L 99.119925 251.635956 
L 99.249032 251.539761 
L 99.587936 251.289652 
L 99.749319 251.193457 
L 100.039808 251.001066 
L 100.233468 250.904871 
L 100.459404 250.789436 
L 100.68534 250.69324 
L 100.895138 250.597045 
L 101.169489 250.500849 
L 101.363148 250.423893 
L 101.766606 250.327698 
L 101.944127 250.26998 
L 102.541244 250.173785 
L 102.702627 250.135307 
L 106.640371 250.231502 
L 106.801754 250.26998 
L 107.608669 250.366176 
L 107.770052 250.404654 
L 108.44786 250.500849 
L 108.609243 250.539328 
L 109.254775 250.635523 
L 109.416158 250.674001 
L 110.029413 250.770197 
L 110.190796 250.808675 
L 110.787913 250.904871 
L 110.949296 250.943349 
L 111.562551 251.039544 
L 111.723934 251.078022 
L 112.337189 251.174218 
L 112.498572 251.212696 
L 113.144104 251.308892 
L 113.305487 251.34737 
L 113.967157 251.443565 
L 114.12854 251.482043 
L 114.854763 251.578239 
L 115.016146 251.616717 
L 115.774646 251.712913 
L 115.936029 251.751391 
L 116.759082 251.847586 
L 116.920465 251.886065 
L 117.82421 251.98226 
L 117.969454 252.001499 
L 118.824784 252.097695 
L 118.970028 252.116934 
L 119.90605 252.213129 
L 120.051294 252.232368 
L 121.116422 252.328564 
L 121.261666 252.347803 
L 122.488177 252.443998 
L 122.633421 252.463237 
L 124.085868 252.559433 
L 124.231113 252.578672 
L 125.990187 252.674868 
L 126.135432 252.694107 
L 128.394793 252.790302 
L 128.540038 252.809541 
L 131.703143 252.905737 
L 131.848388 252.924976 
L 137.125611 253.021171 
L 137.270855 253.04041 
L 153.457565 253.136606 
L 154.377448 264.718543 
L 155.168225 272.837443 
L 156.071969 280.398409 
L 157.217788 287.824701 
L 158.993001 295.751209 
L 159.28349 296.713164 
L 159.929022 298.617835 
L 161.381468 301.811525 
L 161.736511 302.388698 
L 162.043138 302.850436 
L 163.673106 304.639673 
L 163.802213 304.735868 
L 164.141117 304.985976 
L 164.3025 305.082172 
L 164.560712 305.236085 
L 164.754372 305.33228 
L 164.996446 305.466954 
L 165.238521 305.563149 
L 165.448319 305.659345 
L 165.771085 305.75554 
L 165.948606 305.813258 
L 166.352063 305.909453 
L 166.513446 305.947931 
L 167.158978 306.044127 
L 167.304223 306.063366 
L 169.515169 306.082605 
L 169.531307 289.017525 
L 169.628137 289.32535 
L 170.322084 291.403173 
L 172.258679 295.751209 
L 172.565307 296.270665 
L 172.920349 296.847838 
L 173.614296 297.829032 
L 173.872509 298.175336 
L 175.179711 299.57979 
L 175.292679 299.675985 
L 175.760689 300.080006 
L 175.905934 300.176202 
L 176.277115 300.464788 
L 176.422359 300.560984 
L 176.728987 300.772614 
L 176.906508 300.868809 
L 177.180859 301.041961 
L 177.374519 301.138157 
L 177.632731 301.292069 
L 177.681146 301.311309 
L 178.746274 284.226989 
L 179.666157 272.606574 
L 180.876529 260.813006 
L 181.844827 253.636822 
L 183.264997 245.825749 
L 184.136464 242.208798 
L 185.524358 237.649132 
L 186.298996 235.532831 
L 186.718592 234.436202 
L 187.864411 231.434903 
L 189.429825 225.451543 
L 189.736453 223.008178 
L 189.994666 219.160358 
L 190.13991 213.811889 
L 190.188325 208.771245 
L 190.301293 289.633176 
L 190.398123 289.671654 
L 191.140485 292.672953 
L 192.044229 294.558385 
L 192.463825 294.904689 
L 193.27074 294.808493 
L 194.464973 293.230887 
L 196.562952 287.959374 
L 197.43442 285.246661 
L 197.773324 284.169272 
L 199.306462 279.09015 
L 199.61309 278.089717 
L 200.952568 273.703202 
L 201.307611 272.587335 
L 202.179078 269.874622 
L 202.647089 268.489407 
L 203.260344 266.70017 
L 203.938153 264.814739 
L 204.406163 263.544958 
L 208.021141 255.195189 
L 208.230939 254.791168 
L 208.79578 253.713779 
L 209.053992 253.252041 
L 209.522003 252.40552 
L 209.844769 251.866825 
L 210.232088 251.212696 
L 210.619407 250.597045 
L 210.958311 250.05835 
L 211.523151 249.231069 
L 211.813641 248.807809 
L 212.781938 247.49955 
L 213.040151 247.153246 
L 215.751385 244.074991 
L 215.848214 243.978795 
L 216.558299 243.286187 
L 216.671268 243.189992 
L 217.268384 242.632058 
L 217.381353 242.535863 
L 217.88164 242.093363 
L 218.010746 241.997168 
L 218.478757 241.593147 
L 218.607863 241.496951 
L 219.027459 241.150648 
L 219.156565 241.054452 
L 219.543884 240.746626 
L 219.689129 240.650431 
L 220.06031 240.361845 
L 220.205554 240.265649 
L 220.560597 239.996302 
L 220.705841 239.900106 
L 221.044746 239.649998 
L 221.206129 239.553802 
L 221.545033 239.303694 
L 221.706416 239.207499 
L 222.013043 238.995869 
L 222.174426 238.899673 
L 222.481054 238.688043 
L 222.642437 238.591847 
L 222.949064 238.380217 
L 223.126586 238.284022 
L 223.417075 238.091631 
L 223.578458 237.995435 
L 223.852809 237.822284 
L 224.014192 237.726088 
L 224.288543 237.552936 
L 224.466064 237.456741 
L 224.740415 237.283589 
L 224.917936 237.187393 
L 225.192287 237.014241 
L 225.369809 236.918046 
L 225.64416 236.744894 
L 225.821681 236.648699 
L 226.079894 236.494786 
L 226.257415 236.39859 
L 226.531766 236.225438 
L 226.725425 236.129243 
L 226.999776 235.956091 
L 227.177298 235.859895 
L 227.43551 235.705983 
L 227.613032 235.609787 
L 227.887383 235.436635 
L 228.081042 235.34044 
L 228.355393 235.167288 
L 228.532915 235.071092 
L 228.807266 234.897941 
L 228.984787 234.801745 
L 229.275276 234.609354 
L 229.452797 234.513159 
L 229.727148 234.340007 
L 229.888531 234.243811 
L 230.179021 234.05142 
L 230.340404 233.955225 
L 230.647031 233.743595 
L 230.808414 233.647399 
L 231.13118 233.41653 
L 231.292563 233.320334 
L 231.647605 233.050987 
L 231.79285 232.954792 
L 232.164031 232.666205 
L 232.293137 232.57001 
L 232.728871 232.204467 
L 232.857978 232.108271 
L 233.503509 231.49262 
L 233.616478 231.396425 
L 235.149616 229.414797 
L 236.489094 225.95176 
L 236.763445 224.585784 
L 237.070073 222.142418 
L 237.296009 218.602424 
L 237.425115 213.677215 
L 237.457392 210.849067 
L 237.57036 289.633176 
L 237.683328 289.729371 
L 238.199753 292.634475 
L 238.845285 295.174036 
L 239.248743 296.232187 
L 239.490817 296.674686 
L 239.765168 297.059468 
L 240.136349 297.348054 
L 240.894849 297.251859 
L 242.056806 295.712731 
L 242.234327 295.347188 
L 243.089657 307.794885 
L 244.106369 318.588019 
L 244.735763 323.532467 
L 245.42971 327.726591 
L 246.365731 331.651367 
L 246.898294 333.152017 
L 247.527688 334.383319 
L 248.383018 335.249078 
L 248.625092 335.345274 
L 248.802613 335.402991 
L 249.544975 335.306796 
L 249.770911 335.191361 
L 249.948432 335.095166 
L 250.35189 334.768101 
L 250.464858 334.671905 
L 252.24007 332.401692 
L 252.595113 331.824519 
L 252.934017 331.266585 
L 253.353613 330.535499 
L 253.644102 330.035283 
L 254.128251 329.150284 
L 254.386463 328.688546 
L 254.902889 327.726591 
L 255.144963 327.284092 
L 255.661389 326.322137 
L 255.903463 325.879637 
L 256.40375 324.956161 
L 256.661963 324.494422 
L 257.146112 323.609424 
L 257.420463 323.128446 
L 257.856197 322.358882 
L 258.162824 321.839427 
L 258.291931 321.608558 
L 258.308069 289.017525 
L 258.404899 289.32535 
L 259.098846 291.403173 
L 261.035441 295.751209 
L 261.342069 296.270665 
L 261.697111 296.847838 
L 262.391058 297.829032 
L 262.649271 298.175336 
L 263.956472 299.57979 
L 264.069441 299.675985 
L 264.537451 300.080006 
L 264.682696 300.176202 
L 265.053877 300.464788 
L 265.199121 300.560984 
L 265.505749 300.772614 
L 265.68327 300.868809 
L 265.957621 301.041961 
L 266.151281 301.138157 
L 266.409493 301.292069 
L 266.457908 301.311309 
L 267.458483 276.839175 
L 268.491333 257.042143 
L 269.28211 244.863794 
L 271.041184 218.294599 
L 271.154152 211.368523 
L 271.17029 209.040592 
L 271.283258 289.633176 
L 271.380088 289.594698 
L 272.671152 282.553188 
L 273.300545 279.013193 
L 275.237141 268.123864 
L 276.076332 263.583436 
L 276.980077 258.850618 
L 280.659608 241.843255 
L 281.337416 239.015108 
L 282.644618 233.320334 
L 282.967384 231.761967 
L 283.548363 228.472082 
L 284.097065 223.777742 
L 284.355278 219.506662 
L 284.500522 213.869606 
L 284.532799 210.983741 
L 284.645767 289.633176 
L 284.80715 289.729371 
L 285.27516 290.133392 
L 285.759309 290.037197 
L 286.533947 288.959807 
L 287.518383 286.34329 
L 289.019245 280.57156 
L 296.329893 246.249009 
L 297.007701 243.420861 
L 297.814616 240.111736 
L 298.605392 236.879568 
L 300.509711 227.298497 
L 301.009998 222.200136 
L 301.235934 216.98634 
L 301.332764 210.618198 
L 301.445732 289.633176 
L 301.607115 289.729371 
L 302.107402 290.171871 
L 302.575413 290.075675 
L 303.350051 288.998286 
L 304.334487 286.381768 
L 305.835348 280.610039 
L 313.162135 246.21053 
L 313.839943 243.382383 
L 314.646858 240.073258 
L 315.437634 236.84109 
L 317.341953 227.22154 
L 317.713134 223.796981 
L 317.987485 219.198836 
L 318.132729 212.946129 
L 318.165006 209.271461 
L 318.277974 289.633176 
L 318.423219 289.710132 
L 318.665293 290.017958 
L 318.810538 290.114153 
L 319.004197 290.19111 
L 319.35924 290.094914 
L 320.198431 288.940568 
L 321.150591 286.401007 
L 322.66759 280.57156 
L 329.994376 246.172052 
L 330.672185 243.343905 
L 331.011089 241.95869 
L 332.011663 263.179415 
L 332.850855 277.108523 
L 333.883706 290.306544 
L 334.852003 299.502833 
L 336.223758 308.525971 
L 337.305024 313.143354 
L 338.015109 315.278894 
L 338.934992 317.202804 
L 340.355162 318.741932 
L 340.548821 318.838127 
L 340.758619 318.934323 
L 341.1298 319.030518 
L 341.291183 319.068997 
L 342.372449 318.972801 
L 342.566108 318.895845 
L 342.856598 318.799649 
L 343.082534 318.684215 
L 343.30847 318.588019 
L 343.566683 318.434106 
L 343.744204 318.337911 
L 344.050831 318.126281 
L 344.212214 318.030085 
L 344.567257 317.760738 
L 344.712502 317.664542 
L 345.115959 317.337478 
L 345.245065 317.241282 
L 345.713076 316.837261 
L 345.842182 316.741066 
L 346.374746 316.260088 
L 346.487714 316.163893 
L 347.052554 315.644437 
L 347.068693 315.644437 
L 347.084831 289.017525 
L 347.181661 289.32535 
L 347.875607 291.403173 
L 349.812203 295.751209 
L 350.11883 296.270665 
L 350.473873 296.847838 
L 351.16782 297.829032 
L 351.426032 298.175336 
L 352.733234 299.57979 
L 352.846202 299.675985 
L 353.314213 300.080006 
L 353.459458 300.176202 
L 353.830638 300.464788 
L 353.975883 300.560984 
L 354.282511 300.772614 
L 354.460032 300.868809 
L 354.734383 301.041961 
L 354.928042 301.138157 
L 355.186255 301.292069 
L 355.23467 301.311309 
L 356.186829 254.040844 
L 357.074436 211.734066 
L 357.090574 209.021353 
L 357.203542 289.633176 
L 357.284234 289.633176 
L 357.397202 286.13166 
L 358.655989 249.115634 
L 359.817946 216.101341 
L 359.882499 209.637004 
L 359.995467 289.633176 
L 360.076159 289.633176 
L 360.205265 287.382201 
L 362.319382 251.559 
L 364.143009 221.68068 
L 364.32053 214.00428 
L 364.352807 210.733633 
L 364.465775 289.633176 
L 364.562605 289.633176 
L 366.838104 264.025936 
L 369.90438 226.182629 
L 370.227146 218.429272 
L 370.356253 208.752006 
L 370.469221 289.633176 
L 370.56605 289.556219 
L 371.098614 284.958075 
L 371.840976 277.839608 
L 375.504369 237.341306 
L 376.359698 225.874803 
L 376.666326 218.525468 
L 376.795432 209.329179 
L 376.908401 289.633176 
L 377.00523 289.556219 
L 377.618485 284.380902 
L 378.409262 276.858414 
L 382.201761 234.974897 
L 382.863431 225.817086 
L 383.137782 219.583618 
L 383.283027 211.349284 
L 383.299165 208.963636 
L 383.412133 289.633176 
L 383.508963 289.575459 
L 384.880718 277.204718 
L 388.737771 234.628593 
L 389.383303 225.624695 
L 389.673792 218.602424 
L 389.802898 209.7332 
L 389.915866 289.633176 
L 390.012696 289.575459 
L 391.40059 277.070044 
L 395.241504 234.68631 
L 396.016142 223.18133 
L 396.22594 216.716992 
L 396.306631 210.329612 
L 396.419599 289.633176 
L 396.516429 289.633176 
L 397.904323 277.127762 
L 399.050142 265.141803 
L 401.503162 237.629893 
L 402.390769 225.778608 
L 402.697396 218.352316 
L 402.810364 211.041458 
L 402.923332 289.633176 
L 403.020162 289.633176 
L 404.424194 276.993088 
L 408.265108 234.590115 
L 408.91064 225.566978 
L 409.201129 218.506229 
L 409.330236 209.252222 
L 409.443204 289.633176 
L 409.540033 289.575459 
L 410.911788 277.204718 
L 412.073746 265.064847 
L 414.526767 237.552936 
L 415.414373 225.663173 
L 415.704862 218.69862 
L 415.833969 210.079503 
L 415.946937 289.633176 
L 416.043766 289.575459 
L 417.43166 277.070044 
L 418.577479 265.084086 
L 419.787851 251.712913 
L 419.803989 252.424759 
L 420.723872 288.247961 
L 421.611478 314.2977 
L 422.466808 333.036582 
L 423.402829 347.81221 
L 424.145191 356.142739 
L 424.839137 361.702839 
L 425.387839 364.858051 
L 426.017233 367.320656 
L 426.840286 369.013696 
L 427.211467 369.302283 
L 427.905413 369.206087 
L 428.954402 367.801633 
L 430.471402 363.915335 
L 435.845455 344.38765 
L 435.845455 344.38765 
" style="fill:none;stroke:#ff0000;stroke-linecap:square;stroke-width:1.5;"/>
   </g>
   <g id="patch_3">
    <path d="M 63 384.48 
L 63 51.84 
" style="fill:none;stroke:#000000;stroke-linecap:square;stroke-linejoin:miter;stroke-width:0.8;"/>
   </g>
   <g id="patch_4">
    <path d="M 453.6 384.48 
L 453.6 51.84 
" style="fill:none;stroke:#000000;stroke-linecap:square;stroke-linejoin:miter;stroke-width:0.8;"/>
   </g>
   <g id="patch_5">
    <path d="M 63 384.48 
L 453.6 384.48 
" style="fill:none;stroke:#000000;stroke-linecap:square;stroke-linejoin:miter;stroke-width:0.8;"/>
   </g>
   <g id="patch_6">
    <path d="M 63 51.84 
L 453.6 51.84 
" style="fill:none;stroke:#000000;stroke-linecap:square;stroke-linejoin:miter;stroke-width:0.8;"/>
   </g>
   <g id="legend_1">
    <g id="patch_7">
     <path d="M 70 89.19625 
L 133.139062 89.19625 
Q 135.139062 89.19625 135.139062 87.19625 
L 135.139062 58.84 
Q 135.139062 56.84 133.139062 56.84 
L 70 56.84 
Q 68 56.84 68 58.84 
L 68 87.19625 
Q 68 89.19625 70 89.19625 
z
" style="fill:#ffffff;opacity:0.8;stroke:#cccccc;stroke-linejoin:miter;"/>
    </g>
    <g id="line2d_17">
     <path d="M 72 64.938437 
L 92 64.938437 
" style="fill:none;stroke:#1f77b4;stroke-linecap:square;stroke-width:1.5;"/>
    </g>
    <g id="line2d_18"/>
    <g id="text_17">
     <!-- target -->
     <defs>
      <path d="M 41.109375 46.296875 
Q 39.59375 47.171875 37.8125 47.578125 
Q 36.03125 48 33.890625 48 
Q 26.265625 48 22.1875 43.046875 
Q 18.109375 38.09375 18.109375 28.8125 
L 18.109375 0 
L 9.078125 0 
L 9.078125 54.6875 
L 18.109375 54.6875 
L 18.109375 46.1875 
Q 20.953125 51.171875 25.484375 53.578125 
Q 30.03125 56 36.53125 56 
Q 37.453125 56 38.578125 55.875 
Q 39.703125 55.765625 41.0625 55.515625 
z
" id="DejaVuSans-114"/>
     </defs>
     <g transform="translate(100 68.438437)scale(0.1 -0.1)">
      <use xlink:href="#DejaVuSans-116"/>
      <use x="39.208984" xlink:href="#DejaVuSans-97"/>
      <use x="100.488281" xlink:href="#DejaVuSans-114"/>
      <use x="141.585938" xlink:href="#DejaVuSans-103"/>
      <use x="205.0625" xlink:href="#DejaVuSans-101"/>
      <use x="266.585938" xlink:href="#DejaVuSans-116"/>
     </g>
    </g>
    <g id="line2d_19">
     <path d="M 72 79.616562 
L 92 79.616562 
" style="fill:none;stroke:#ff0000;stroke-linecap:square;stroke-width:1.5;"/>
    </g>
    <g id="line2d_20"/>
    <g id="text_18">
     <!-- model -->
     <defs>
      <path d="M 45.40625 46.390625 
L 45.40625 75.984375 
L 54.390625 75.984375 
L 54.390625 0 
L 45.40625 0 
L 45.40625 8.203125 
Q 42.578125 3.328125 38.25 0.953125 
Q 33.9375 -1.421875 27.875 -1.421875 
Q 17.96875 -1.421875 11.734375 6.484375 
Q 5.515625 14.40625 5.515625 27.296875 
Q 5.515625 40.1875 11.734375 48.09375 
Q 17.96875 56 27.875 56 
Q 33.9375 56 38.25 53.625 
Q 42.578125 51.265625 45.40625 46.390625 
z
M 14.796875 27.296875 
Q 14.796875 17.390625 18.875 11.75 
Q 22.953125 6.109375 30.078125 6.109375 
Q 37.203125 6.109375 41.296875 11.75 
Q 45.40625 17.390625 45.40625 27.296875 
Q 45.40625 37.203125 41.296875 42.84375 
Q 37.203125 48.484375 30.078125 48.484375 
Q 22.953125 48.484375 18.875 42.84375 
Q 14.796875 37.203125 14.796875 27.296875 
z
" id="DejaVuSans-100"/>
     </defs>
     <g transform="translate(100 83.116562)scale(0.1 -0.1)">
      <use xlink:href="#DejaVuSans-109"/>
      <use x="97.412109" xlink:href="#DejaVuSans-111"/>
      <use x="158.59375" xlink:href="#DejaVuSans-100"/>
      <use x="222.070312" xlink:href="#DejaVuSans-101"/>
      <use x="283.59375" xlink:href="#DejaVuSans-108"/>
     </g>
    </g>
   </g>
  </g>
 </g>
 <defs>
  <clipPath id="p10fa7480ca">
   <rect height="332.64" width="390.6" x="63" y="51.84"/>
  </clipPath>
 </defs>
</svg>
