<?xml version="1.0" encoding="utf-8" standalone="no"?>
<!DOCTYPE svg PUBLIC "-//W3C//DTD SVG 1.1//EN"
  "http://www.w3.org/Graphics/SVG/1.1/DTD/svg11.dtd">
<!-- Created with matplotlib (https://matplotlib.org/) -->
<svg height="432pt" version="1.1" viewBox="0 0 504 432" width="504pt" xmlns="http://www.w3.org/2000/svg" xmlns:xlink="http://www.w3.org/1999/xlink">
 <defs>
  <style type="text/css">
*{stroke-linecap:butt;stroke-linejoin:round;}
  </style>
 </defs>
 <g id="figure_1">
  <g id="patch_1">
   <path d="M 0 432 
L 504 432 
L 504 0 
L 0 0 
z
" style="fill:#ffffff;"/>
  </g>
  <g id="axes_1">
   <g id="patch_2">
    <path d="M 63 384.48 
L 453.6 384.48 
L 453.6 51.84 
L 63 51.84 
z
" style="fill:#ffffff;"/>
   </g>
   <g id="matplotlib.axis_1">
    <g id="xtick_1">
     <g id="line2d_1">
      <defs>
       <path d="M 0 0 
L 0 3.5 
" id="mf1284291fd" style="stroke:#000000;stroke-width:0.8;"/>
      </defs>
      <g>
       <use style="stroke:#000000;stroke-width:0.8;" x="80.754545" xlink:href="#mf1284291fd" y="384.48"/>
      </g>
     </g>
     <g id="text_1">
      <!-- 0 -->
      <defs>
       <path d="M 31.78125 66.40625 
Q 24.171875 66.40625 20.328125 58.90625 
Q 16.5 51.421875 16.5 36.375 
Q 16.5 21.390625 20.328125 13.890625 
Q 24.171875 6.390625 31.78125 6.390625 
Q 39.453125 6.390625 43.28125 13.890625 
Q 47.125 21.390625 47.125 36.375 
Q 47.125 51.421875 43.28125 58.90625 
Q 39.453125 66.40625 31.78125 66.40625 
z
M 31.78125 74.21875 
Q 44.046875 74.21875 50.515625 64.515625 
Q 56.984375 54.828125 56.984375 36.375 
Q 56.984375 17.96875 50.515625 8.265625 
Q 44.046875 -1.421875 31.78125 -1.421875 
Q 19.53125 -1.421875 13.0625 8.265625 
Q 6.59375 17.96875 6.59375 36.375 
Q 6.59375 54.828125 13.0625 64.515625 
Q 19.53125 74.21875 31.78125 74.21875 
z
" id="DejaVuSans-48"/>
      </defs>
      <g transform="translate(77.573295 399.078438)scale(0.1 -0.1)">
       <use xlink:href="#DejaVuSans-48"/>
      </g>
     </g>
    </g>
    <g id="xtick_2">
     <g id="line2d_2">
      <g>
       <use style="stroke:#000000;stroke-width:0.8;" x="151.767796" xlink:href="#mf1284291fd" y="384.48"/>
      </g>
     </g>
     <g id="text_2">
      <!-- 720 -->
      <defs>
       <path d="M 8.203125 72.90625 
L 55.078125 72.90625 
L 55.078125 68.703125 
L 28.609375 0 
L 18.3125 0 
L 43.21875 64.59375 
L 8.203125 64.59375 
z
" id="DejaVuSans-55"/>
       <path d="M 19.1875 8.296875 
L 53.609375 8.296875 
L 53.609375 0 
L 7.328125 0 
L 7.328125 8.296875 
Q 12.9375 14.109375 22.625 23.890625 
Q 32.328125 33.6875 34.8125 36.53125 
Q 39.546875 41.84375 41.421875 45.53125 
Q 43.3125 49.21875 43.3125 52.78125 
Q 43.3125 58.59375 39.234375 62.25 
Q 35.15625 65.921875 28.609375 65.921875 
Q 23.96875 65.921875 18.8125 64.3125 
Q 13.671875 62.703125 7.8125 59.421875 
L 7.8125 69.390625 
Q 13.765625 71.78125 18.9375 73 
Q 24.125 74.21875 28.421875 74.21875 
Q 39.75 74.21875 46.484375 68.546875 
Q 53.21875 62.890625 53.21875 53.421875 
Q 53.21875 48.921875 51.53125 44.890625 
Q 49.859375 40.875 45.40625 35.40625 
Q 44.1875 33.984375 37.640625 27.21875 
Q 31.109375 20.453125 19.1875 8.296875 
z
" id="DejaVuSans-50"/>
      </defs>
      <g transform="translate(142.224046 399.078438)scale(0.1 -0.1)">
       <use xlink:href="#DejaVuSans-55"/>
       <use x="63.623047" xlink:href="#DejaVuSans-50"/>
       <use x="127.246094" xlink:href="#DejaVuSans-48"/>
      </g>
     </g>
    </g>
    <g id="xtick_3">
     <g id="line2d_3">
      <g>
       <use style="stroke:#000000;stroke-width:0.8;" x="222.781046" xlink:href="#mf1284291fd" y="384.48"/>
      </g>
     </g>
     <g id="text_3">
      <!-- 1440 -->
      <defs>
       <path d="M 12.40625 8.296875 
L 28.515625 8.296875 
L 28.515625 63.921875 
L 10.984375 60.40625 
L 10.984375 69.390625 
L 28.421875 72.90625 
L 38.28125 72.90625 
L 38.28125 8.296875 
L 54.390625 8.296875 
L 54.390625 0 
L 12.40625 0 
z
" id="DejaVuSans-49"/>
       <path d="M 37.796875 64.3125 
L 12.890625 25.390625 
L 37.796875 25.390625 
z
M 35.203125 72.90625 
L 47.609375 72.90625 
L 47.609375 25.390625 
L 58.015625 25.390625 
L 58.015625 17.1875 
L 47.609375 17.1875 
L 47.609375 0 
L 37.796875 0 
L 37.796875 17.1875 
L 4.890625 17.1875 
L 4.890625 26.703125 
z
" id="DejaVuSans-52"/>
      </defs>
      <g transform="translate(210.056046 399.078438)scale(0.1 -0.1)">
       <use xlink:href="#DejaVuSans-49"/>
       <use x="63.623047" xlink:href="#DejaVuSans-52"/>
       <use x="127.246094" xlink:href="#DejaVuSans-52"/>
       <use x="190.869141" xlink:href="#DejaVuSans-48"/>
      </g>
     </g>
    </g>
    <g id="xtick_4">
     <g id="line2d_4">
      <g>
       <use style="stroke:#000000;stroke-width:0.8;" x="293.794296" xlink:href="#mf1284291fd" y="384.48"/>
      </g>
     </g>
     <g id="text_4">
      <!-- 2160 -->
      <defs>
       <path d="M 33.015625 40.375 
Q 26.375 40.375 22.484375 35.828125 
Q 18.609375 31.296875 18.609375 23.390625 
Q 18.609375 15.53125 22.484375 10.953125 
Q 26.375 6.390625 33.015625 6.390625 
Q 39.65625 6.390625 43.53125 10.953125 
Q 47.40625 15.53125 47.40625 23.390625 
Q 47.40625 31.296875 43.53125 35.828125 
Q 39.65625 40.375 33.015625 40.375 
z
M 52.59375 71.296875 
L 52.59375 62.3125 
Q 48.875 64.0625 45.09375 64.984375 
Q 41.3125 65.921875 37.59375 65.921875 
Q 27.828125 65.921875 22.671875 59.328125 
Q 17.53125 52.734375 16.796875 39.40625 
Q 19.671875 43.65625 24.015625 45.921875 
Q 28.375 48.1875 33.59375 48.1875 
Q 44.578125 48.1875 50.953125 41.515625 
Q 57.328125 34.859375 57.328125 23.390625 
Q 57.328125 12.15625 50.6875 5.359375 
Q 44.046875 -1.421875 33.015625 -1.421875 
Q 20.359375 -1.421875 13.671875 8.265625 
Q 6.984375 17.96875 6.984375 36.375 
Q 6.984375 53.65625 15.1875 63.9375 
Q 23.390625 74.21875 37.203125 74.21875 
Q 40.921875 74.21875 44.703125 73.484375 
Q 48.484375 72.75 52.59375 71.296875 
z
" id="DejaVuSans-54"/>
      </defs>
      <g transform="translate(281.069296 399.078438)scale(0.1 -0.1)">
       <use xlink:href="#DejaVuSans-50"/>
       <use x="63.623047" xlink:href="#DejaVuSans-49"/>
       <use x="127.246094" xlink:href="#DejaVuSans-54"/>
       <use x="190.869141" xlink:href="#DejaVuSans-48"/>
      </g>
     </g>
    </g>
    <g id="xtick_5">
     <g id="line2d_5">
      <g>
       <use style="stroke:#000000;stroke-width:0.8;" x="364.807547" xlink:href="#mf1284291fd" y="384.48"/>
      </g>
     </g>
     <g id="text_5">
      <!-- 2880 -->
      <defs>
       <path d="M 31.78125 34.625 
Q 24.75 34.625 20.71875 30.859375 
Q 16.703125 27.09375 16.703125 20.515625 
Q 16.703125 13.921875 20.71875 10.15625 
Q 24.75 6.390625 31.78125 6.390625 
Q 38.8125 6.390625 42.859375 10.171875 
Q 46.921875 13.96875 46.921875 20.515625 
Q 46.921875 27.09375 42.890625 30.859375 
Q 38.875 34.625 31.78125 34.625 
z
M 21.921875 38.8125 
Q 15.578125 40.375 12.03125 44.71875 
Q 8.5 49.078125 8.5 55.328125 
Q 8.5 64.0625 14.71875 69.140625 
Q 20.953125 74.21875 31.78125 74.21875 
Q 42.671875 74.21875 48.875 69.140625 
Q 55.078125 64.0625 55.078125 55.328125 
Q 55.078125 49.078125 51.53125 44.71875 
Q 48 40.375 41.703125 38.8125 
Q 48.828125 37.15625 52.796875 32.3125 
Q 56.78125 27.484375 56.78125 20.515625 
Q 56.78125 9.90625 50.3125 4.234375 
Q 43.84375 -1.421875 31.78125 -1.421875 
Q 19.734375 -1.421875 13.25 4.234375 
Q 6.78125 9.90625 6.78125 20.515625 
Q 6.78125 27.484375 10.78125 32.3125 
Q 14.796875 37.15625 21.921875 38.8125 
z
M 18.3125 54.390625 
Q 18.3125 48.734375 21.84375 45.5625 
Q 25.390625 42.390625 31.78125 42.390625 
Q 38.140625 42.390625 41.71875 45.5625 
Q 45.3125 48.734375 45.3125 54.390625 
Q 45.3125 60.0625 41.71875 63.234375 
Q 38.140625 66.40625 31.78125 66.40625 
Q 25.390625 66.40625 21.84375 63.234375 
Q 18.3125 60.0625 18.3125 54.390625 
z
" id="DejaVuSans-56"/>
      </defs>
      <g transform="translate(352.082547 399.078438)scale(0.1 -0.1)">
       <use xlink:href="#DejaVuSans-50"/>
       <use x="63.623047" xlink:href="#DejaVuSans-56"/>
       <use x="127.246094" xlink:href="#DejaVuSans-56"/>
       <use x="190.869141" xlink:href="#DejaVuSans-48"/>
      </g>
     </g>
    </g>
    <g id="text_6">
     <!-- time [ms] -->
     <defs>
      <path d="M 18.3125 70.21875 
L 18.3125 54.6875 
L 36.8125 54.6875 
L 36.8125 47.703125 
L 18.3125 47.703125 
L 18.3125 18.015625 
Q 18.3125 11.328125 20.140625 9.421875 
Q 21.96875 7.515625 27.59375 7.515625 
L 36.8125 7.515625 
L 36.8125 0 
L 27.59375 0 
Q 17.1875 0 13.234375 3.875 
Q 9.28125 7.765625 9.28125 18.015625 
L 9.28125 47.703125 
L 2.6875 47.703125 
L 2.6875 54.6875 
L 9.28125 54.6875 
L 9.28125 70.21875 
z
" id="DejaVuSans-116"/>
      <path d="M 9.421875 54.6875 
L 18.40625 54.6875 
L 18.40625 0 
L 9.421875 0 
z
M 9.421875 75.984375 
L 18.40625 75.984375 
L 18.40625 64.59375 
L 9.421875 64.59375 
z
" id="DejaVuSans-105"/>
      <path d="M 52 44.1875 
Q 55.375 50.25 60.0625 53.125 
Q 64.75 56 71.09375 56 
Q 79.640625 56 84.28125 50.015625 
Q 88.921875 44.046875 88.921875 33.015625 
L 88.921875 0 
L 79.890625 0 
L 79.890625 32.71875 
Q 79.890625 40.578125 77.09375 44.375 
Q 74.3125 48.1875 68.609375 48.1875 
Q 61.625 48.1875 57.5625 43.546875 
Q 53.515625 38.921875 53.515625 30.90625 
L 53.515625 0 
L 44.484375 0 
L 44.484375 32.71875 
Q 44.484375 40.625 41.703125 44.40625 
Q 38.921875 48.1875 33.109375 48.1875 
Q 26.21875 48.1875 22.15625 43.53125 
Q 18.109375 38.875 18.109375 30.90625 
L 18.109375 0 
L 9.078125 0 
L 9.078125 54.6875 
L 18.109375 54.6875 
L 18.109375 46.1875 
Q 21.1875 51.21875 25.484375 53.609375 
Q 29.78125 56 35.6875 56 
Q 41.65625 56 45.828125 52.96875 
Q 50 49.953125 52 44.1875 
z
" id="DejaVuSans-109"/>
      <path d="M 56.203125 29.59375 
L 56.203125 25.203125 
L 14.890625 25.203125 
Q 15.484375 15.921875 20.484375 11.0625 
Q 25.484375 6.203125 34.421875 6.203125 
Q 39.59375 6.203125 44.453125 7.46875 
Q 49.3125 8.734375 54.109375 11.28125 
L 54.109375 2.78125 
Q 49.265625 0.734375 44.1875 -0.34375 
Q 39.109375 -1.421875 33.890625 -1.421875 
Q 20.796875 -1.421875 13.15625 6.1875 
Q 5.515625 13.8125 5.515625 26.8125 
Q 5.515625 40.234375 12.765625 48.109375 
Q 20.015625 56 32.328125 56 
Q 43.359375 56 49.78125 48.890625 
Q 56.203125 41.796875 56.203125 29.59375 
z
M 47.21875 32.234375 
Q 47.125 39.59375 43.09375 43.984375 
Q 39.0625 48.390625 32.421875 48.390625 
Q 24.90625 48.390625 20.390625 44.140625 
Q 15.875 39.890625 15.1875 32.171875 
z
" id="DejaVuSans-101"/>
      <path id="DejaVuSans-32"/>
      <path d="M 8.59375 75.984375 
L 29.296875 75.984375 
L 29.296875 69 
L 17.578125 69 
L 17.578125 -6.203125 
L 29.296875 -6.203125 
L 29.296875 -13.1875 
L 8.59375 -13.1875 
z
" id="DejaVuSans-91"/>
      <path d="M 44.28125 53.078125 
L 44.28125 44.578125 
Q 40.484375 46.53125 36.375 47.5 
Q 32.28125 48.484375 27.875 48.484375 
Q 21.1875 48.484375 17.84375 46.4375 
Q 14.5 44.390625 14.5 40.28125 
Q 14.5 37.15625 16.890625 35.375 
Q 19.28125 33.59375 26.515625 31.984375 
L 29.59375 31.296875 
Q 39.15625 29.25 43.1875 25.515625 
Q 47.21875 21.78125 47.21875 15.09375 
Q 47.21875 7.46875 41.1875 3.015625 
Q 35.15625 -1.421875 24.609375 -1.421875 
Q 20.21875 -1.421875 15.453125 -0.5625 
Q 10.6875 0.296875 5.421875 2 
L 5.421875 11.28125 
Q 10.40625 8.6875 15.234375 7.390625 
Q 20.0625 6.109375 24.8125 6.109375 
Q 31.15625 6.109375 34.5625 8.28125 
Q 37.984375 10.453125 37.984375 14.40625 
Q 37.984375 18.0625 35.515625 20.015625 
Q 33.0625 21.96875 24.703125 23.78125 
L 21.578125 24.515625 
Q 13.234375 26.265625 9.515625 29.90625 
Q 5.8125 33.546875 5.8125 39.890625 
Q 5.8125 47.609375 11.28125 51.796875 
Q 16.75 56 26.8125 56 
Q 31.78125 56 36.171875 55.265625 
Q 40.578125 54.546875 44.28125 53.078125 
z
" id="DejaVuSans-115"/>
      <path d="M 30.421875 75.984375 
L 30.421875 -13.1875 
L 9.71875 -13.1875 
L 9.71875 -6.203125 
L 21.390625 -6.203125 
L 21.390625 69 
L 9.71875 69 
L 9.71875 75.984375 
z
" id="DejaVuSans-93"/>
     </defs>
     <g transform="translate(234.038281 412.756563)scale(0.1 -0.1)">
      <use xlink:href="#DejaVuSans-116"/>
      <use x="39.208984" xlink:href="#DejaVuSans-105"/>
      <use x="66.992188" xlink:href="#DejaVuSans-109"/>
      <use x="164.404297" xlink:href="#DejaVuSans-101"/>
      <use x="225.927734" xlink:href="#DejaVuSans-32"/>
      <use x="257.714844" xlink:href="#DejaVuSans-91"/>
      <use x="296.728516" xlink:href="#DejaVuSans-109"/>
      <use x="394.140625" xlink:href="#DejaVuSans-115"/>
      <use x="446.240234" xlink:href="#DejaVuSans-93"/>
     </g>
    </g>
   </g>
   <g id="matplotlib.axis_2">
    <g id="ytick_1">
     <g id="line2d_6">
      <defs>
       <path d="M 0 0 
L -3.5 0 
" id="m4b96e74b14" style="stroke:#000000;stroke-width:0.8;"/>
      </defs>
      <g>
       <use style="stroke:#000000;stroke-width:0.8;" x="63" xlink:href="#m4b96e74b14" y="361.798829"/>
      </g>
     </g>
     <g id="text_7">
      <!-- −80 -->
      <defs>
       <path d="M 10.59375 35.5 
L 73.1875 35.5 
L 73.1875 27.203125 
L 10.59375 27.203125 
z
" id="DejaVuSans-8722"/>
      </defs>
      <g transform="translate(34.895313 365.598048)scale(0.1 -0.1)">
       <use xlink:href="#DejaVuSans-8722"/>
       <use x="83.789062" xlink:href="#DejaVuSans-56"/>
       <use x="147.412109" xlink:href="#DejaVuSans-48"/>
      </g>
     </g>
    </g>
    <g id="ytick_2">
     <g id="line2d_7">
      <g>
       <use style="stroke:#000000;stroke-width:0.8;" x="63" xlink:href="#m4b96e74b14" y="311.924521"/>
      </g>
     </g>
     <g id="text_8">
      <!-- −60 -->
      <g transform="translate(34.895313 315.72374)scale(0.1 -0.1)">
       <use xlink:href="#DejaVuSans-8722"/>
       <use x="83.789062" xlink:href="#DejaVuSans-54"/>
       <use x="147.412109" xlink:href="#DejaVuSans-48"/>
      </g>
     </g>
    </g>
    <g id="ytick_3">
     <g id="line2d_8">
      <g>
       <use style="stroke:#000000;stroke-width:0.8;" x="63" xlink:href="#m4b96e74b14" y="262.050213"/>
      </g>
     </g>
     <g id="text_9">
      <!-- −40 -->
      <g transform="translate(34.895313 265.849432)scale(0.1 -0.1)">
       <use xlink:href="#DejaVuSans-8722"/>
       <use x="83.789062" xlink:href="#DejaVuSans-52"/>
       <use x="147.412109" xlink:href="#DejaVuSans-48"/>
      </g>
     </g>
    </g>
    <g id="ytick_4">
     <g id="line2d_9">
      <g>
       <use style="stroke:#000000;stroke-width:0.8;" x="63" xlink:href="#m4b96e74b14" y="212.175904"/>
      </g>
     </g>
     <g id="text_10">
      <!-- −20 -->
      <g transform="translate(34.895313 215.975123)scale(0.1 -0.1)">
       <use xlink:href="#DejaVuSans-8722"/>
       <use x="83.789062" xlink:href="#DejaVuSans-50"/>
       <use x="147.412109" xlink:href="#DejaVuSans-48"/>
      </g>
     </g>
    </g>
    <g id="ytick_5">
     <g id="line2d_10">
      <g>
       <use style="stroke:#000000;stroke-width:0.8;" x="63" xlink:href="#m4b96e74b14" y="162.301596"/>
      </g>
     </g>
     <g id="text_11">
      <!-- 0 -->
      <g transform="translate(49.6375 166.100815)scale(0.1 -0.1)">
       <use xlink:href="#DejaVuSans-48"/>
      </g>
     </g>
    </g>
    <g id="ytick_6">
     <g id="line2d_11">
      <g>
       <use style="stroke:#000000;stroke-width:0.8;" x="63" xlink:href="#m4b96e74b14" y="112.427288"/>
      </g>
     </g>
     <g id="text_12">
      <!-- 20 -->
      <g transform="translate(43.275 116.226506)scale(0.1 -0.1)">
       <use xlink:href="#DejaVuSans-50"/>
       <use x="63.623047" xlink:href="#DejaVuSans-48"/>
      </g>
     </g>
    </g>
    <g id="ytick_7">
     <g id="line2d_12">
      <g>
       <use style="stroke:#000000;stroke-width:0.8;" x="63" xlink:href="#m4b96e74b14" y="62.552979"/>
      </g>
     </g>
     <g id="text_13">
      <!-- 40 -->
      <g transform="translate(43.275 66.352198)scale(0.1 -0.1)">
       <use xlink:href="#DejaVuSans-52"/>
       <use x="63.623047" xlink:href="#DejaVuSans-48"/>
      </g>
     </g>
    </g>
    <g id="text_14">
     <!-- Voltage [mV] -->
     <defs>
      <path d="M 28.609375 0 
L 0.78125 72.90625 
L 11.078125 72.90625 
L 34.1875 11.53125 
L 57.328125 72.90625 
L 67.578125 72.90625 
L 39.796875 0 
z
" id="DejaVuSans-86"/>
      <path d="M 30.609375 48.390625 
Q 23.390625 48.390625 19.1875 42.75 
Q 14.984375 37.109375 14.984375 27.296875 
Q 14.984375 17.484375 19.15625 11.84375 
Q 23.34375 6.203125 30.609375 6.203125 
Q 37.796875 6.203125 41.984375 11.859375 
Q 46.1875 17.53125 46.1875 27.296875 
Q 46.1875 37.015625 41.984375 42.703125 
Q 37.796875 48.390625 30.609375 48.390625 
z
M 30.609375 56 
Q 42.328125 56 49.015625 48.375 
Q 55.71875 40.765625 55.71875 27.296875 
Q 55.71875 13.875 49.015625 6.21875 
Q 42.328125 -1.421875 30.609375 -1.421875 
Q 18.84375 -1.421875 12.171875 6.21875 
Q 5.515625 13.875 5.515625 27.296875 
Q 5.515625 40.765625 12.171875 48.375 
Q 18.84375 56 30.609375 56 
z
" id="DejaVuSans-111"/>
      <path d="M 9.421875 75.984375 
L 18.40625 75.984375 
L 18.40625 0 
L 9.421875 0 
z
" id="DejaVuSans-108"/>
      <path d="M 34.28125 27.484375 
Q 23.390625 27.484375 19.1875 25 
Q 14.984375 22.515625 14.984375 16.5 
Q 14.984375 11.71875 18.140625 8.90625 
Q 21.296875 6.109375 26.703125 6.109375 
Q 34.1875 6.109375 38.703125 11.40625 
Q 43.21875 16.703125 43.21875 25.484375 
L 43.21875 27.484375 
z
M 52.203125 31.203125 
L 52.203125 0 
L 43.21875 0 
L 43.21875 8.296875 
Q 40.140625 3.328125 35.546875 0.953125 
Q 30.953125 -1.421875 24.3125 -1.421875 
Q 15.921875 -1.421875 10.953125 3.296875 
Q 6 8.015625 6 15.921875 
Q 6 25.140625 12.171875 29.828125 
Q 18.359375 34.515625 30.609375 34.515625 
L 43.21875 34.515625 
L 43.21875 35.40625 
Q 43.21875 41.609375 39.140625 45 
Q 35.0625 48.390625 27.6875 48.390625 
Q 23 48.390625 18.546875 47.265625 
Q 14.109375 46.140625 10.015625 43.890625 
L 10.015625 52.203125 
Q 14.9375 54.109375 19.578125 55.046875 
Q 24.21875 56 28.609375 56 
Q 40.484375 56 46.34375 49.84375 
Q 52.203125 43.703125 52.203125 31.203125 
z
" id="DejaVuSans-97"/>
      <path d="M 45.40625 27.984375 
Q 45.40625 37.75 41.375 43.109375 
Q 37.359375 48.484375 30.078125 48.484375 
Q 22.859375 48.484375 18.828125 43.109375 
Q 14.796875 37.75 14.796875 27.984375 
Q 14.796875 18.265625 18.828125 12.890625 
Q 22.859375 7.515625 30.078125 7.515625 
Q 37.359375 7.515625 41.375 12.890625 
Q 45.40625 18.265625 45.40625 27.984375 
z
M 54.390625 6.78125 
Q 54.390625 -7.171875 48.1875 -13.984375 
Q 42 -20.796875 29.203125 -20.796875 
Q 24.46875 -20.796875 20.265625 -20.09375 
Q 16.0625 -19.390625 12.109375 -17.921875 
L 12.109375 -9.1875 
Q 16.0625 -11.328125 19.921875 -12.34375 
Q 23.78125 -13.375 27.78125 -13.375 
Q 36.625 -13.375 41.015625 -8.765625 
Q 45.40625 -4.15625 45.40625 5.171875 
L 45.40625 9.625 
Q 42.625 4.78125 38.28125 2.390625 
Q 33.9375 0 27.875 0 
Q 17.828125 0 11.671875 7.65625 
Q 5.515625 15.328125 5.515625 27.984375 
Q 5.515625 40.671875 11.671875 48.328125 
Q 17.828125 56 27.875 56 
Q 33.9375 56 38.28125 53.609375 
Q 42.625 51.21875 45.40625 46.390625 
L 45.40625 54.6875 
L 54.390625 54.6875 
z
" id="DejaVuSans-103"/>
     </defs>
     <g transform="translate(28.815625 251.079531)rotate(-90)scale(0.1 -0.1)">
      <use xlink:href="#DejaVuSans-86"/>
      <use x="68.298828" xlink:href="#DejaVuSans-111"/>
      <use x="129.480469" xlink:href="#DejaVuSans-108"/>
      <use x="157.263672" xlink:href="#DejaVuSans-116"/>
      <use x="196.472656" xlink:href="#DejaVuSans-97"/>
      <use x="257.751953" xlink:href="#DejaVuSans-103"/>
      <use x="321.228516" xlink:href="#DejaVuSans-101"/>
      <use x="382.751953" xlink:href="#DejaVuSans-32"/>
      <use x="414.539062" xlink:href="#DejaVuSans-91"/>
      <use x="453.552734" xlink:href="#DejaVuSans-109"/>
      <use x="550.964844" xlink:href="#DejaVuSans-86"/>
      <use x="619.373047" xlink:href="#DejaVuSans-93"/>
     </g>
    </g>
   </g>
   <g id="line2d_13">
    <path clip-path="url(#p2949e2b014)" d="M 80.754545 324.393098 
L 80.946873 324.242404 
L 81.957826 323.758065 
L 83.116722 323.42171 
L 84.635617 323.232278 
L 87.313408 323.15772 
L 100.480448 323.183141 
L 100.638256 338.250556 
L 101.008116 350.752964 
L 101.525921 361.394569 
L 101.98948 366.915642 
L 102.344546 368.931883 
L 102.59112 369.355883 
L 102.739064 369.287369 
L 102.941255 368.87287 
L 103.281527 367.564467 
L 104.188918 362.807616 
L 104.918776 359.704791 
L 105.495759 358.1388 
L 106.008633 357.333212 
L 106.486986 356.968201 
L 106.975202 356.872345 
L 107.57191 356.997668 
L 108.637109 357.498046 
L 110.04258 358.085077 
L 111.162025 358.299566 
L 112.597084 358.328047 
L 119.890737 358.193358 
L 130.069303 358.192436 
L 130.22711 343.349054 
L 130.582176 331.997598 
L 131.075324 322.760309 
L 131.573403 317.198878 
L 132.046824 314.167523 
L 132.470931 312.724731 
L 132.835861 312.168056 
L 133.136681 312.062651 
L 133.442432 312.202237 
L 133.851745 312.668178 
L 134.517494 313.819279 
L 137.032546 318.436079 
L 138.102677 319.81905 
L 139.172807 320.846016 
L 139.932254 321.397743 
L 139.937186 324.393098 
L 140.045678 324.296372 
L 140.864303 323.873713 
L 142.0232 323.482026 
L 143.413876 323.264979 
L 145.682355 323.165024 
L 153.079568 323.173162 
L 159.663088 323.183141 
L 159.820896 320.165753 
L 160.190756 317.651209 
L 160.728287 315.416943 
L 161.295407 313.94274 
L 161.862527 313.046204 
L 162.444441 312.524524 
L 163.07567 312.25613 
L 163.840048 312.182578 
L 164.959493 312.321352 
L 170.739183 313.310482 
L 174.245462 313.525545 
L 180.296383 313.641677 
L 189.251943 313.673273 
L 189.40975 316.693954 
L 189.769748 319.124393 
L 190.292484 321.232849 
L 190.849741 322.617693 
L 191.421792 323.479574 
L 192.023432 323.998141 
L 192.694113 324.282434 
L 193.527532 324.383577 
L 194.770264 324.28648 
L 199.114894 323.649779 
L 199.119826 324.393098 
L 199.228318 324.296372 
L 200.046943 323.873713 
L 201.20584 323.482026 
L 202.596516 323.264979 
L 204.864995 323.165024 
L 212.262208 323.173162 
L 218.845729 323.183141 
L 219.003536 317.145176 
L 219.373396 312.084716 
L 219.92079 307.441691 
L 220.517499 304.158913 
L 221.143796 301.888274 
L 221.799682 300.306429 
L 222.4605 299.259342 
L 223.047346 298.707976 
L 223.49611 298.560924 
L 223.865971 298.667887 
L 224.270352 299.037384 
L 224.886786 299.956089 
L 226.376092 302.222873 
L 227.248963 303.109775 
L 228.161286 303.722304 
L 229.206759 304.152373 
L 230.538257 304.448849 
L 232.491122 304.636046 
L 236.278495 304.734427 
L 248.434583 304.780801 
L 248.59239 310.904072 
L 248.947456 315.769916 
L 249.445535 319.741322 
L 249.973203 322.294279 
L 250.505803 323.856985 
L 251.038402 324.778501 
L 251.575933 325.289201 
L 252.152916 325.536409 
L 252.843322 325.581982 
L 253.819754 325.402694 
L 256.536997 324.566105 
L 258.297534 324.128201 
L 258.302466 324.393098 
L 258.410958 324.296372 
L 259.229583 323.873713 
L 260.38848 323.482026 
L 261.779156 323.264979 
L 264.047635 323.165024 
L 271.444849 323.173162 
L 278.028369 323.183141 
L 278.186176 314.120012 
L 278.560968 306.348871 
L 279.448634 290.587044 
L 279.463428 270.547544 
L 279.517674 67.278038 
L 279.596578 189.676731 
L 279.759317 323.558788 
L 279.926987 327.905624 
L 279.966439 327.968615 
L 280.020685 327.850338 
L 280.158766 326.837363 
L 280.469449 322.525336 
L 281.682592 304.482608 
L 282.392725 297.897894 
L 282.930255 292.588689 
L 283.023954 289.288429 
L 283.043679 277.064931 
L 283.097926 73.032452 
L 283.176829 186.702773 
L 283.339568 322.077398 
L 283.507238 327.233805 
L 283.566416 327.380951 
L 283.620662 327.269347 
L 283.758743 326.299316 
L 284.069426 322.17472 
L 285.198734 306.310319 
L 285.8201 301.01346 
L 286.530233 296.860765 
L 287.294611 292.376557 
L 287.442556 289.812136 
L 287.482008 284.164065 
L 287.546117 76.676654 
L 287.629952 207.831627 
L 287.792691 321.145795 
L 287.965292 326.184952 
L 288.029401 326.339477 
L 288.083648 326.22653 
L 288.22666 325.237377 
L 288.552138 321.046118 
L 289.577885 307.452064 
L 290.184456 302.51821 
L 290.810754 299.169325 
L 291.525818 296.541211 
L 292.867179 291.968716 
L 293.034849 290.157969 
L 293.098958 286.679762 
L 293.118684 248.800084 
L 293.167999 79.934572 
L 293.246903 187.71043 
L 293.409641 319.00306 
L 293.582243 325.267473 
L 293.666078 325.560789 
L 293.715393 325.476285 
L 293.843611 324.692608 
L 294.1395 321.194016 
L 295.239219 307.432706 
L 295.835927 302.980763 
L 296.44743 300.008034 
L 297.103317 297.876266 
L 297.84797 296.197025 
L 298.78495 294.648636 
L 300.037545 292.600345 
L 300.348228 291.586415 
L 300.520829 290.225918 
L 300.599733 287.68063 
L 300.619459 279.402575 
L 300.678637 81.958042 
L 300.752609 176.395671 
L 300.920279 318.124281 
L 301.092881 324.761416 
L 301.186579 325.132638 
L 301.235893 325.053374 
L 301.364112 324.294958 
L 301.664932 320.830962 
L 302.73013 307.924534 
L 303.326839 303.590898 
L 303.928479 300.758933 
L 304.569571 298.76291 
L 305.264909 297.297343 
L 306.034219 296.181344 
L 306.882433 295.33554 
L 307.617223 294.831956 
L 307.779962 304.631265 
L 308.125165 312.179979 
L 308.598587 318.019331 
L 309.106529 321.749722 
L 309.624334 324.032947 
L 310.137207 325.369034 
L 310.645149 326.114252 
L 311.153091 326.486325 
L 311.710348 326.619049 
L 312.405686 326.541681 
L 313.461022 326.173322 
L 317.524558 324.347187 
L 318.111403 324.013676 
L 319.334409 323.542742 
L 320.636319 323.299133 
L 322.638498 323.176265 
L 327.643946 323.163647 
L 337.211009 323.183141 
L 337.368816 311.087957 
L 337.763334 299.949345 
L 338.078948 290.022092 
L 338.098674 284.222373 
L 338.157852 67.081923 
L 338.236756 189.719716 
L 338.399494 322.05822 
L 338.562233 325.642589 
L 338.611548 325.542456 
L 338.739766 324.485873 
L 339.025792 319.879602 
L 340.58907 287.796145 
L 340.613727 276.943613 
L 340.667973 73.405179 
L 340.746877 191.919761 
L 340.909615 321.436954 
L 341.072354 325.663901 
L 341.097012 325.682415 
L 341.141395 325.569257 
L 341.274545 324.46527 
L 341.570433 319.742777 
L 342.99563 294.717572 
L 343.281655 288.795507 
L 343.326039 283.313297 
L 343.36549 119.245762 
L 343.390148 77.779185 
L 343.459188 176.393541 
L 343.626859 319.601603 
L 343.789597 324.534515 
L 343.829049 324.598258 
L 343.878364 324.469997 
L 344.016445 323.311394 
L 344.327128 318.40093 
L 345.53534 298.007802 
L 346.132048 288.739595 
L 346.181363 284.491496 
L 346.20602 227.295902 
L 346.250404 80.950295 
L 346.324376 187.617158 
L 346.487115 318.226612 
L 346.654785 323.687741 
L 346.699168 323.782189 
L 346.753414 323.647628 
L 346.891496 322.505334 
L 347.20711 317.629528 
L 348.341349 299.155718 
L 349.120523 288.052322 
L 349.164906 281.294086 
L 349.229015 83.254906 
L 349.307919 199.510261 
L 349.470657 317.621083 
L 349.638328 323.031265 
L 349.687642 323.14945 
L 349.741889 323.020908 
L 349.87997 321.906863 
L 350.195584 317.143691 
L 351.300235 299.675056 
L 352.192832 287.700569 
L 352.232284 281.403295 
L 352.296393 84.957729 
L 352.380228 208.346418 
L 352.542967 317.172632 
L 352.710637 322.542933 
L 352.764883 322.683056 
L 352.819129 322.556783 
L 352.957211 321.461573 
L 353.277757 316.695197 
L 354.347887 300.107022 
L 355.334182 287.193764 
L 355.363771 282.509588 
L 355.42788 86.477159 
L 355.521578 223.672006 
L 355.684317 317.206597 
L 355.856918 322.19874 
L 355.906233 322.304707 
L 355.960479 322.177143 
L 356.098561 321.091549 
L 356.419107 316.385081 
L 357.474442 300.290076 
L 358.514984 286.885165 
L 358.544573 278.025953 
L 358.60375 87.433155 
L 358.677723 179.638279 
L 358.840461 314.634805 
L 359.013063 321.751755 
L 359.087035 322.021544 
L 359.141281 321.899471 
L 359.279363 320.83124 
L 359.599908 316.178608 
L 360.650313 300.358927 
L 361.720443 286.852591 
L 361.750032 277.560285 
L 361.80921 87.96203 
L 361.883182 179.808816 
L 362.04592 314.276798 
L 362.218522 321.539532 
L 362.297426 321.838221 
L 362.34674 321.733294 
L 362.47989 320.750642 
L 362.785642 316.430807 
L 363.885361 300.071377 
L 364.940697 287.172464 
L 364.975217 278.169191 
L 365.039326 88.358161 
L 365.108367 178.772449 
L 365.276037 314.518406 
L 365.448639 321.400584 
L 365.522611 321.682456 
L 365.576857 321.57159 
L 365.710007 320.584035 
L 366.02069 316.196706 
L 366.799863 303.903808 
L 366.804794 305.086952 
L 366.967533 314.079737 
L 367.268353 318.72102 
L 367.707255 322.248895 
L 368.200402 324.544329 
L 368.698481 325.893427 
L 369.191629 326.637402 
L 369.684776 327.00249 
L 370.217376 327.123244 
L 370.878193 327.033329 
L 371.874352 326.646644 
L 376.218982 324.743046 
L 376.662814 324.606758 
L 376.78117 324.293017 
L 377.609658 323.867179 
L 378.768555 323.478519 
L 380.169094 323.262699 
L 382.46223 323.164354 
L 390.145469 323.173995 
L 396.393649 323.183141 
L 396.551456 308.045492 
L 397.019946 284.862997 
L 397.059398 99.39098 
L 397.079124 66.96 
L 397.148165 168.225959 
L 397.340492 321.410204 
L 397.458848 323.350218 
L 397.493368 323.282051 
L 397.60186 322.363127 
L 397.858297 317.89241 
L 398.800209 295.242203 
L 399.066509 286.378157 
L 399.091166 279.844159 
L 399.150344 73.377161 
L 399.229247 201.168485 
L 399.391986 320.761512 
L 399.53993 324.033913 
L 399.549793 324.027423 
L 399.613902 323.734529 
L 399.786504 321.592481 
L 400.171159 313.398562 
L 401.270878 284.736806 
L 401.290604 263.285917 
L 401.34485 77.996691 
L 401.418823 189.48178 
L 401.581561 318.771247 
L 401.739368 322.948272 
L 401.759094 322.940395 
L 401.783752 322.868571 
L 401.902107 321.855674 
L 402.173338 317.172631 
L 403.485111 287.281238 
L 403.534426 279.929943 
L 403.593603 81.47985 
L 403.677438 206.282769 
L 403.840177 317.996164 
L 404.002916 322.08106 
L 404.027573 322.064141 
L 404.052231 321.982864 
L 404.175517 320.899817 
L 404.456612 316.042037 
L 405.802904 285.990686 
L 405.832493 280.19478 
L 405.896603 84.113034 
L 405.980438 213.726561 
L 406.143176 317.169063 
L 406.305915 321.374213 
L 406.325641 321.38287 
L 406.365093 321.27552 
L 406.493311 320.137382 
L 406.784268 315.11534 
L 408.150287 284.926492 
L 408.170013 278.732781 
L 408.229191 85.986823 
L 408.308094 193.9171 
L 408.470833 315.443089 
L 408.638503 320.777485 
L 408.668092 320.817566 
L 408.717407 320.677121 
L 408.855488 319.379151 
L 409.171102 313.804349 
L 410.522327 283.668871 
L 410.542053 252.5624 
L 410.596299 87.139911 
L 410.670271 190.103919 
L 410.83301 314.597855 
L 411.00068 320.381757 
L 411.0352 320.455283 
L 411.089446 320.312608 
L 411.227528 319.028808 
L 411.543142 313.521828 
L 412.909161 283.530841 
L 412.928887 250.71022 
L 412.983133 88.012154 
L 413.057105 190.673794 
L 413.219844 314.075442 
L 413.387514 320.045435 
L 413.426966 320.140798 
L 413.486144 319.975466 
L 413.629156 318.605028 
L 413.959565 312.784257 
L 415.31079 283.517585 
L 415.330516 250.638247 
L 415.384762 88.599118 
L 415.458734 190.231235 
L 415.621473 313.643572 
L 415.789143 319.797736 
L 415.833526 319.914747 
L 415.892704 319.748672 
L 416.035717 318.386741 
L 416.366125 312.609356 
L 417.722281 283.841103 
L 417.742007 255.883408 
L 417.796253 89.169606 
L 417.870226 186.463009 
L 418.032964 313.123265 
L 418.200634 319.603881 
L 418.249949 319.75165 
L 418.309127 319.590101 
L 418.45214 318.242682 
L 418.782549 312.504663 
L 420.148567 283.05848 
L 420.168293 244.166655 
L 420.217608 89.594373 
L 420.296512 195.313066 
L 420.45925 313.265962 
L 420.62692 319.448128 
L 420.676235 319.585429 
L 420.730481 319.442529 
L 420.868563 318.191368 
L 421.184177 312.836736 
L 422.574853 283.258154 
L 422.594579 246.79177 
L 422.643894 89.790277 
L 422.722798 192.835776 
L 422.885536 312.985931 
L 423.053207 319.323026 
L 423.107453 319.474256 
L 423.161699 319.320425 
L 423.304712 317.992724 
L 423.635121 312.312062 
L 425.006071 283.145655 
L 425.025797 245.217327 
L 425.075112 89.919094 
L 425.154015 194.160476 
L 425.316754 312.912306 
L 425.484424 319.251206 
L 425.53867 319.408657 
L 425.592917 319.260591 
L 425.730998 318.007869 
L 425.982503 313.914806 
L 425.987435 315.376996 
L 426.14031 324.411641 
L 426.377021 326.84004 
L 426.687704 327.963832 
L 427.052633 328.514721 
L 427.486603 328.777332 
L 428.004408 328.828757 
L 428.640569 328.656899 
L 429.557823 328.152036 
L 433.907385 325.481841 
L 435.682716 324.790723 
L 435.845455 324.738559 
L 435.845455 324.738559 
" style="fill:none;stroke:#ff0000;stroke-linecap:square;stroke-width:1.5;"/>
   </g>
   <g id="patch_3">
    <path d="M 63 384.48 
L 63 51.84 
" style="fill:none;stroke:#000000;stroke-linecap:square;stroke-linejoin:miter;stroke-width:0.8;"/>
   </g>
   <g id="patch_4">
    <path d="M 453.6 384.48 
L 453.6 51.84 
" style="fill:none;stroke:#000000;stroke-linecap:square;stroke-linejoin:miter;stroke-width:0.8;"/>
   </g>
   <g id="patch_5">
    <path d="M 63 384.48 
L 453.6 384.48 
" style="fill:none;stroke:#000000;stroke-linecap:square;stroke-linejoin:miter;stroke-width:0.8;"/>
   </g>
   <g id="patch_6">
    <path d="M 63 51.84 
L 453.6 51.84 
" style="fill:none;stroke:#000000;stroke-linecap:square;stroke-linejoin:miter;stroke-width:0.8;"/>
   </g>
   <g id="legend_1">
    <g id="patch_7">
     <path d="M 70 74.518125 
L 133.139062 74.518125 
Q 135.139062 74.518125 135.139062 72.518125 
L 135.139062 58.84 
Q 135.139062 56.84 133.139062 56.84 
L 70 56.84 
Q 68 56.84 68 58.84 
L 68 72.518125 
Q 68 74.518125 70 74.518125 
z
" style="fill:#ffffff;opacity:0.8;stroke:#cccccc;stroke-linejoin:miter;"/>
    </g>
    <g id="line2d_14">
     <path d="M 72 64.938438 
L 92 64.938438 
" style="fill:none;stroke:#ff0000;stroke-linecap:square;stroke-width:1.5;"/>
    </g>
    <g id="line2d_15"/>
    <g id="text_15">
     <!-- model -->
     <defs>
      <path d="M 45.40625 46.390625 
L 45.40625 75.984375 
L 54.390625 75.984375 
L 54.390625 0 
L 45.40625 0 
L 45.40625 8.203125 
Q 42.578125 3.328125 38.25 0.953125 
Q 33.9375 -1.421875 27.875 -1.421875 
Q 17.96875 -1.421875 11.734375 6.484375 
Q 5.515625 14.40625 5.515625 27.296875 
Q 5.515625 40.1875 11.734375 48.09375 
Q 17.96875 56 27.875 56 
Q 33.9375 56 38.25 53.625 
Q 42.578125 51.265625 45.40625 46.390625 
z
M 14.796875 27.296875 
Q 14.796875 17.390625 18.875 11.75 
Q 22.953125 6.109375 30.078125 6.109375 
Q 37.203125 6.109375 41.296875 11.75 
Q 45.40625 17.390625 45.40625 27.296875 
Q 45.40625 37.203125 41.296875 42.84375 
Q 37.203125 48.484375 30.078125 48.484375 
Q 22.953125 48.484375 18.875 42.84375 
Q 14.796875 37.203125 14.796875 27.296875 
z
" id="DejaVuSans-100"/>
     </defs>
     <g transform="translate(100 68.438438)scale(0.1 -0.1)">
      <use xlink:href="#DejaVuSans-109"/>
      <use x="97.412109" xlink:href="#DejaVuSans-111"/>
      <use x="158.59375" xlink:href="#DejaVuSans-100"/>
      <use x="222.070312" xlink:href="#DejaVuSans-101"/>
      <use x="283.59375" xlink:href="#DejaVuSans-108"/>
     </g>
    </g>
   </g>
  </g>
 </g>
 <defs>
  <clipPath id="p2949e2b014">
   <rect height="332.64" width="390.6" x="63" y="51.84"/>
  </clipPath>
 </defs>
</svg>
