<?xml version="1.0" encoding="utf-8" standalone="no"?>
<!DOCTYPE svg PUBLIC "-//W3C//DTD SVG 1.1//EN"
  "http://www.w3.org/Graphics/SVG/1.1/DTD/svg11.dtd">
<!-- Created with matplotlib (https://matplotlib.org/) -->
<svg height="432pt" version="1.1" viewBox="0 0 504 432" width="504pt" xmlns="http://www.w3.org/2000/svg" xmlns:xlink="http://www.w3.org/1999/xlink">
 <defs>
  <style type="text/css">
*{stroke-linecap:butt;stroke-linejoin:round;}
  </style>
 </defs>
 <g id="figure_1">
  <g id="patch_1">
   <path d="M 0 432 
L 504 432 
L 504 0 
L 0 0 
z
" style="fill:#ffffff;"/>
  </g>
  <g id="axes_1">
   <g id="patch_2">
    <path d="M 63 384.48 
L 453.6 384.48 
L 453.6 51.84 
L 63 51.84 
z
" style="fill:#ffffff;"/>
   </g>
   <g id="matplotlib.axis_1">
    <g id="xtick_1">
     <g id="line2d_1">
      <defs>
       <path d="M 0 0 
L 0 3.5 
" id="m1147c6ae94" style="stroke:#000000;stroke-width:0.8;"/>
      </defs>
      <g>
       <use style="stroke:#000000;stroke-width:0.8;" x="80.754545" xlink:href="#m1147c6ae94" y="384.48"/>
      </g>
     </g>
     <g id="text_1">
      <!-- 0 -->
      <defs>
       <path d="M 31.78125 66.40625 
Q 24.171875 66.40625 20.328125 58.90625 
Q 16.5 51.421875 16.5 36.375 
Q 16.5 21.390625 20.328125 13.890625 
Q 24.171875 6.390625 31.78125 6.390625 
Q 39.453125 6.390625 43.28125 13.890625 
Q 47.125 21.390625 47.125 36.375 
Q 47.125 51.421875 43.28125 58.90625 
Q 39.453125 66.40625 31.78125 66.40625 
z
M 31.78125 74.21875 
Q 44.046875 74.21875 50.515625 64.515625 
Q 56.984375 54.828125 56.984375 36.375 
Q 56.984375 17.96875 50.515625 8.265625 
Q 44.046875 -1.421875 31.78125 -1.421875 
Q 19.53125 -1.421875 13.0625 8.265625 
Q 6.59375 17.96875 6.59375 36.375 
Q 6.59375 54.828125 13.0625 64.515625 
Q 19.53125 74.21875 31.78125 74.21875 
z
" id="DejaVuSans-48"/>
      </defs>
      <g transform="translate(77.573295 399.078438)scale(0.1 -0.1)">
       <use xlink:href="#DejaVuSans-48"/>
      </g>
     </g>
    </g>
    <g id="xtick_2">
     <g id="line2d_2">
      <g>
       <use style="stroke:#000000;stroke-width:0.8;" x="151.772727" xlink:href="#m1147c6ae94" y="384.48"/>
      </g>
     </g>
     <g id="text_2">
      <!-- 200 -->
      <defs>
       <path d="M 19.1875 8.296875 
L 53.609375 8.296875 
L 53.609375 0 
L 7.328125 0 
L 7.328125 8.296875 
Q 12.9375 14.109375 22.625 23.890625 
Q 32.328125 33.6875 34.8125 36.53125 
Q 39.546875 41.84375 41.421875 45.53125 
Q 43.3125 49.21875 43.3125 52.78125 
Q 43.3125 58.59375 39.234375 62.25 
Q 35.15625 65.921875 28.609375 65.921875 
Q 23.96875 65.921875 18.8125 64.3125 
Q 13.671875 62.703125 7.8125 59.421875 
L 7.8125 69.390625 
Q 13.765625 71.78125 18.9375 73 
Q 24.125 74.21875 28.421875 74.21875 
Q 39.75 74.21875 46.484375 68.546875 
Q 53.21875 62.890625 53.21875 53.421875 
Q 53.21875 48.921875 51.53125 44.890625 
Q 49.859375 40.875 45.40625 35.40625 
Q 44.1875 33.984375 37.640625 27.21875 
Q 31.109375 20.453125 19.1875 8.296875 
z
" id="DejaVuSans-50"/>
      </defs>
      <g transform="translate(142.228977 399.078438)scale(0.1 -0.1)">
       <use xlink:href="#DejaVuSans-50"/>
       <use x="63.623047" xlink:href="#DejaVuSans-48"/>
       <use x="127.246094" xlink:href="#DejaVuSans-48"/>
      </g>
     </g>
    </g>
    <g id="xtick_3">
     <g id="line2d_3">
      <g>
       <use style="stroke:#000000;stroke-width:0.8;" x="222.790909" xlink:href="#m1147c6ae94" y="384.48"/>
      </g>
     </g>
     <g id="text_3">
      <!-- 400 -->
      <defs>
       <path d="M 37.796875 64.3125 
L 12.890625 25.390625 
L 37.796875 25.390625 
z
M 35.203125 72.90625 
L 47.609375 72.90625 
L 47.609375 25.390625 
L 58.015625 25.390625 
L 58.015625 17.1875 
L 47.609375 17.1875 
L 47.609375 0 
L 37.796875 0 
L 37.796875 17.1875 
L 4.890625 17.1875 
L 4.890625 26.703125 
z
" id="DejaVuSans-52"/>
      </defs>
      <g transform="translate(213.247159 399.078438)scale(0.1 -0.1)">
       <use xlink:href="#DejaVuSans-52"/>
       <use x="63.623047" xlink:href="#DejaVuSans-48"/>
       <use x="127.246094" xlink:href="#DejaVuSans-48"/>
      </g>
     </g>
    </g>
    <g id="xtick_4">
     <g id="line2d_4">
      <g>
       <use style="stroke:#000000;stroke-width:0.8;" x="293.809091" xlink:href="#m1147c6ae94" y="384.48"/>
      </g>
     </g>
     <g id="text_4">
      <!-- 600 -->
      <defs>
       <path d="M 33.015625 40.375 
Q 26.375 40.375 22.484375 35.828125 
Q 18.609375 31.296875 18.609375 23.390625 
Q 18.609375 15.53125 22.484375 10.953125 
Q 26.375 6.390625 33.015625 6.390625 
Q 39.65625 6.390625 43.53125 10.953125 
Q 47.40625 15.53125 47.40625 23.390625 
Q 47.40625 31.296875 43.53125 35.828125 
Q 39.65625 40.375 33.015625 40.375 
z
M 52.59375 71.296875 
L 52.59375 62.3125 
Q 48.875 64.0625 45.09375 64.984375 
Q 41.3125 65.921875 37.59375 65.921875 
Q 27.828125 65.921875 22.671875 59.328125 
Q 17.53125 52.734375 16.796875 39.40625 
Q 19.671875 43.65625 24.015625 45.921875 
Q 28.375 48.1875 33.59375 48.1875 
Q 44.578125 48.1875 50.953125 41.515625 
Q 57.328125 34.859375 57.328125 23.390625 
Q 57.328125 12.15625 50.6875 5.359375 
Q 44.046875 -1.421875 33.015625 -1.421875 
Q 20.359375 -1.421875 13.671875 8.265625 
Q 6.984375 17.96875 6.984375 36.375 
Q 6.984375 53.65625 15.1875 63.9375 
Q 23.390625 74.21875 37.203125 74.21875 
Q 40.921875 74.21875 44.703125 73.484375 
Q 48.484375 72.75 52.59375 71.296875 
z
" id="DejaVuSans-54"/>
      </defs>
      <g transform="translate(284.265341 399.078438)scale(0.1 -0.1)">
       <use xlink:href="#DejaVuSans-54"/>
       <use x="63.623047" xlink:href="#DejaVuSans-48"/>
       <use x="127.246094" xlink:href="#DejaVuSans-48"/>
      </g>
     </g>
    </g>
    <g id="xtick_5">
     <g id="line2d_5">
      <g>
       <use style="stroke:#000000;stroke-width:0.8;" x="364.827273" xlink:href="#m1147c6ae94" y="384.48"/>
      </g>
     </g>
     <g id="text_5">
      <!-- 800 -->
      <defs>
       <path d="M 31.78125 34.625 
Q 24.75 34.625 20.71875 30.859375 
Q 16.703125 27.09375 16.703125 20.515625 
Q 16.703125 13.921875 20.71875 10.15625 
Q 24.75 6.390625 31.78125 6.390625 
Q 38.8125 6.390625 42.859375 10.171875 
Q 46.921875 13.96875 46.921875 20.515625 
Q 46.921875 27.09375 42.890625 30.859375 
Q 38.875 34.625 31.78125 34.625 
z
M 21.921875 38.8125 
Q 15.578125 40.375 12.03125 44.71875 
Q 8.5 49.078125 8.5 55.328125 
Q 8.5 64.0625 14.71875 69.140625 
Q 20.953125 74.21875 31.78125 74.21875 
Q 42.671875 74.21875 48.875 69.140625 
Q 55.078125 64.0625 55.078125 55.328125 
Q 55.078125 49.078125 51.53125 44.71875 
Q 48 40.375 41.703125 38.8125 
Q 48.828125 37.15625 52.796875 32.3125 
Q 56.78125 27.484375 56.78125 20.515625 
Q 56.78125 9.90625 50.3125 4.234375 
Q 43.84375 -1.421875 31.78125 -1.421875 
Q 19.734375 -1.421875 13.25 4.234375 
Q 6.78125 9.90625 6.78125 20.515625 
Q 6.78125 27.484375 10.78125 32.3125 
Q 14.796875 37.15625 21.921875 38.8125 
z
M 18.3125 54.390625 
Q 18.3125 48.734375 21.84375 45.5625 
Q 25.390625 42.390625 31.78125 42.390625 
Q 38.140625 42.390625 41.71875 45.5625 
Q 45.3125 48.734375 45.3125 54.390625 
Q 45.3125 60.0625 41.71875 63.234375 
Q 38.140625 66.40625 31.78125 66.40625 
Q 25.390625 66.40625 21.84375 63.234375 
Q 18.3125 60.0625 18.3125 54.390625 
z
" id="DejaVuSans-56"/>
      </defs>
      <g transform="translate(355.283523 399.078438)scale(0.1 -0.1)">
       <use xlink:href="#DejaVuSans-56"/>
       <use x="63.623047" xlink:href="#DejaVuSans-48"/>
       <use x="127.246094" xlink:href="#DejaVuSans-48"/>
      </g>
     </g>
    </g>
    <g id="text_6">
     <!-- time [ms] -->
     <defs>
      <path d="M 18.3125 70.21875 
L 18.3125 54.6875 
L 36.8125 54.6875 
L 36.8125 47.703125 
L 18.3125 47.703125 
L 18.3125 18.015625 
Q 18.3125 11.328125 20.140625 9.421875 
Q 21.96875 7.515625 27.59375 7.515625 
L 36.8125 7.515625 
L 36.8125 0 
L 27.59375 0 
Q 17.1875 0 13.234375 3.875 
Q 9.28125 7.765625 9.28125 18.015625 
L 9.28125 47.703125 
L 2.6875 47.703125 
L 2.6875 54.6875 
L 9.28125 54.6875 
L 9.28125 70.21875 
z
" id="DejaVuSans-116"/>
      <path d="M 9.421875 54.6875 
L 18.40625 54.6875 
L 18.40625 0 
L 9.421875 0 
z
M 9.421875 75.984375 
L 18.40625 75.984375 
L 18.40625 64.59375 
L 9.421875 64.59375 
z
" id="DejaVuSans-105"/>
      <path d="M 52 44.1875 
Q 55.375 50.25 60.0625 53.125 
Q 64.75 56 71.09375 56 
Q 79.640625 56 84.28125 50.015625 
Q 88.921875 44.046875 88.921875 33.015625 
L 88.921875 0 
L 79.890625 0 
L 79.890625 32.71875 
Q 79.890625 40.578125 77.09375 44.375 
Q 74.3125 48.1875 68.609375 48.1875 
Q 61.625 48.1875 57.5625 43.546875 
Q 53.515625 38.921875 53.515625 30.90625 
L 53.515625 0 
L 44.484375 0 
L 44.484375 32.71875 
Q 44.484375 40.625 41.703125 44.40625 
Q 38.921875 48.1875 33.109375 48.1875 
Q 26.21875 48.1875 22.15625 43.53125 
Q 18.109375 38.875 18.109375 30.90625 
L 18.109375 0 
L 9.078125 0 
L 9.078125 54.6875 
L 18.109375 54.6875 
L 18.109375 46.1875 
Q 21.1875 51.21875 25.484375 53.609375 
Q 29.78125 56 35.6875 56 
Q 41.65625 56 45.828125 52.96875 
Q 50 49.953125 52 44.1875 
z
" id="DejaVuSans-109"/>
      <path d="M 56.203125 29.59375 
L 56.203125 25.203125 
L 14.890625 25.203125 
Q 15.484375 15.921875 20.484375 11.0625 
Q 25.484375 6.203125 34.421875 6.203125 
Q 39.59375 6.203125 44.453125 7.46875 
Q 49.3125 8.734375 54.109375 11.28125 
L 54.109375 2.78125 
Q 49.265625 0.734375 44.1875 -0.34375 
Q 39.109375 -1.421875 33.890625 -1.421875 
Q 20.796875 -1.421875 13.15625 6.1875 
Q 5.515625 13.8125 5.515625 26.8125 
Q 5.515625 40.234375 12.765625 48.109375 
Q 20.015625 56 32.328125 56 
Q 43.359375 56 49.78125 48.890625 
Q 56.203125 41.796875 56.203125 29.59375 
z
M 47.21875 32.234375 
Q 47.125 39.59375 43.09375 43.984375 
Q 39.0625 48.390625 32.421875 48.390625 
Q 24.90625 48.390625 20.390625 44.140625 
Q 15.875 39.890625 15.1875 32.171875 
z
" id="DejaVuSans-101"/>
      <path id="DejaVuSans-32"/>
      <path d="M 8.59375 75.984375 
L 29.296875 75.984375 
L 29.296875 69 
L 17.578125 69 
L 17.578125 -6.203125 
L 29.296875 -6.203125 
L 29.296875 -13.1875 
L 8.59375 -13.1875 
z
" id="DejaVuSans-91"/>
      <path d="M 44.28125 53.078125 
L 44.28125 44.578125 
Q 40.484375 46.53125 36.375 47.5 
Q 32.28125 48.484375 27.875 48.484375 
Q 21.1875 48.484375 17.84375 46.4375 
Q 14.5 44.390625 14.5 40.28125 
Q 14.5 37.15625 16.890625 35.375 
Q 19.28125 33.59375 26.515625 31.984375 
L 29.59375 31.296875 
Q 39.15625 29.25 43.1875 25.515625 
Q 47.21875 21.78125 47.21875 15.09375 
Q 47.21875 7.46875 41.1875 3.015625 
Q 35.15625 -1.421875 24.609375 -1.421875 
Q 20.21875 -1.421875 15.453125 -0.5625 
Q 10.6875 0.296875 5.421875 2 
L 5.421875 11.28125 
Q 10.40625 8.6875 15.234375 7.390625 
Q 20.0625 6.109375 24.8125 6.109375 
Q 31.15625 6.109375 34.5625 8.28125 
Q 37.984375 10.453125 37.984375 14.40625 
Q 37.984375 18.0625 35.515625 20.015625 
Q 33.0625 21.96875 24.703125 23.78125 
L 21.578125 24.515625 
Q 13.234375 26.265625 9.515625 29.90625 
Q 5.8125 33.546875 5.8125 39.890625 
Q 5.8125 47.609375 11.28125 51.796875 
Q 16.75 56 26.8125 56 
Q 31.78125 56 36.171875 55.265625 
Q 40.578125 54.546875 44.28125 53.078125 
z
" id="DejaVuSans-115"/>
      <path d="M 30.421875 75.984375 
L 30.421875 -13.1875 
L 9.71875 -13.1875 
L 9.71875 -6.203125 
L 21.390625 -6.203125 
L 21.390625 69 
L 9.71875 69 
L 9.71875 75.984375 
z
" id="DejaVuSans-93"/>
     </defs>
     <g transform="translate(234.038281 412.756563)scale(0.1 -0.1)">
      <use xlink:href="#DejaVuSans-116"/>
      <use x="39.208984" xlink:href="#DejaVuSans-105"/>
      <use x="66.992188" xlink:href="#DejaVuSans-109"/>
      <use x="164.404297" xlink:href="#DejaVuSans-101"/>
      <use x="225.927734" xlink:href="#DejaVuSans-32"/>
      <use x="257.714844" xlink:href="#DejaVuSans-91"/>
      <use x="296.728516" xlink:href="#DejaVuSans-109"/>
      <use x="394.140625" xlink:href="#DejaVuSans-115"/>
      <use x="446.240234" xlink:href="#DejaVuSans-93"/>
     </g>
    </g>
   </g>
   <g id="matplotlib.axis_2">
    <g id="ytick_1">
     <g id="line2d_6">
      <defs>
       <path d="M 0 0 
L -3.5 0 
" id="m91f9d9fe19" style="stroke:#000000;stroke-width:0.8;"/>
      </defs>
      <g>
       <use style="stroke:#000000;stroke-width:0.8;" x="63" xlink:href="#m91f9d9fe19" y="348.483197"/>
      </g>
     </g>
     <g id="text_7">
      <!-- −60 -->
      <defs>
       <path d="M 10.59375 35.5 
L 73.1875 35.5 
L 73.1875 27.203125 
L 10.59375 27.203125 
z
" id="DejaVuSans-8722"/>
      </defs>
      <g transform="translate(34.895313 352.282416)scale(0.1 -0.1)">
       <use xlink:href="#DejaVuSans-8722"/>
       <use x="83.789062" xlink:href="#DejaVuSans-54"/>
       <use x="147.412109" xlink:href="#DejaVuSans-48"/>
      </g>
     </g>
    </g>
    <g id="ytick_2">
     <g id="line2d_7">
      <g>
       <use style="stroke:#000000;stroke-width:0.8;" x="63" xlink:href="#m91f9d9fe19" y="281.279374"/>
      </g>
     </g>
     <g id="text_8">
      <!-- −40 -->
      <g transform="translate(34.895313 285.078593)scale(0.1 -0.1)">
       <use xlink:href="#DejaVuSans-8722"/>
       <use x="83.789062" xlink:href="#DejaVuSans-52"/>
       <use x="147.412109" xlink:href="#DejaVuSans-48"/>
      </g>
     </g>
    </g>
    <g id="ytick_3">
     <g id="line2d_8">
      <g>
       <use style="stroke:#000000;stroke-width:0.8;" x="63" xlink:href="#m91f9d9fe19" y="214.075551"/>
      </g>
     </g>
     <g id="text_9">
      <!-- −20 -->
      <g transform="translate(34.895313 217.87477)scale(0.1 -0.1)">
       <use xlink:href="#DejaVuSans-8722"/>
       <use x="83.789062" xlink:href="#DejaVuSans-50"/>
       <use x="147.412109" xlink:href="#DejaVuSans-48"/>
      </g>
     </g>
    </g>
    <g id="ytick_4">
     <g id="line2d_9">
      <g>
       <use style="stroke:#000000;stroke-width:0.8;" x="63" xlink:href="#m91f9d9fe19" y="146.871728"/>
      </g>
     </g>
     <g id="text_10">
      <!-- 0 -->
      <g transform="translate(49.6375 150.670947)scale(0.1 -0.1)">
       <use xlink:href="#DejaVuSans-48"/>
      </g>
     </g>
    </g>
    <g id="ytick_5">
     <g id="line2d_10">
      <g>
       <use style="stroke:#000000;stroke-width:0.8;" x="63" xlink:href="#m91f9d9fe19" y="79.667905"/>
      </g>
     </g>
     <g id="text_11">
      <!-- 20 -->
      <g transform="translate(43.275 83.467124)scale(0.1 -0.1)">
       <use xlink:href="#DejaVuSans-50"/>
       <use x="63.623047" xlink:href="#DejaVuSans-48"/>
      </g>
     </g>
    </g>
    <g id="text_12">
     <!-- voltage [V] -->
     <defs>
      <path d="M 2.984375 54.6875 
L 12.5 54.6875 
L 29.59375 8.796875 
L 46.6875 54.6875 
L 56.203125 54.6875 
L 35.6875 0 
L 23.484375 0 
z
" id="DejaVuSans-118"/>
      <path d="M 30.609375 48.390625 
Q 23.390625 48.390625 19.1875 42.75 
Q 14.984375 37.109375 14.984375 27.296875 
Q 14.984375 17.484375 19.15625 11.84375 
Q 23.34375 6.203125 30.609375 6.203125 
Q 37.796875 6.203125 41.984375 11.859375 
Q 46.1875 17.53125 46.1875 27.296875 
Q 46.1875 37.015625 41.984375 42.703125 
Q 37.796875 48.390625 30.609375 48.390625 
z
M 30.609375 56 
Q 42.328125 56 49.015625 48.375 
Q 55.71875 40.765625 55.71875 27.296875 
Q 55.71875 13.875 49.015625 6.21875 
Q 42.328125 -1.421875 30.609375 -1.421875 
Q 18.84375 -1.421875 12.171875 6.21875 
Q 5.515625 13.875 5.515625 27.296875 
Q 5.515625 40.765625 12.171875 48.375 
Q 18.84375 56 30.609375 56 
z
" id="DejaVuSans-111"/>
      <path d="M 9.421875 75.984375 
L 18.40625 75.984375 
L 18.40625 0 
L 9.421875 0 
z
" id="DejaVuSans-108"/>
      <path d="M 34.28125 27.484375 
Q 23.390625 27.484375 19.1875 25 
Q 14.984375 22.515625 14.984375 16.5 
Q 14.984375 11.71875 18.140625 8.90625 
Q 21.296875 6.109375 26.703125 6.109375 
Q 34.1875 6.109375 38.703125 11.40625 
Q 43.21875 16.703125 43.21875 25.484375 
L 43.21875 27.484375 
z
M 52.203125 31.203125 
L 52.203125 0 
L 43.21875 0 
L 43.21875 8.296875 
Q 40.140625 3.328125 35.546875 0.953125 
Q 30.953125 -1.421875 24.3125 -1.421875 
Q 15.921875 -1.421875 10.953125 3.296875 
Q 6 8.015625 6 15.921875 
Q 6 25.140625 12.171875 29.828125 
Q 18.359375 34.515625 30.609375 34.515625 
L 43.21875 34.515625 
L 43.21875 35.40625 
Q 43.21875 41.609375 39.140625 45 
Q 35.0625 48.390625 27.6875 48.390625 
Q 23 48.390625 18.546875 47.265625 
Q 14.109375 46.140625 10.015625 43.890625 
L 10.015625 52.203125 
Q 14.9375 54.109375 19.578125 55.046875 
Q 24.21875 56 28.609375 56 
Q 40.484375 56 46.34375 49.84375 
Q 52.203125 43.703125 52.203125 31.203125 
z
" id="DejaVuSans-97"/>
      <path d="M 45.40625 27.984375 
Q 45.40625 37.75 41.375 43.109375 
Q 37.359375 48.484375 30.078125 48.484375 
Q 22.859375 48.484375 18.828125 43.109375 
Q 14.796875 37.75 14.796875 27.984375 
Q 14.796875 18.265625 18.828125 12.890625 
Q 22.859375 7.515625 30.078125 7.515625 
Q 37.359375 7.515625 41.375 12.890625 
Q 45.40625 18.265625 45.40625 27.984375 
z
M 54.390625 6.78125 
Q 54.390625 -7.171875 48.1875 -13.984375 
Q 42 -20.796875 29.203125 -20.796875 
Q 24.46875 -20.796875 20.265625 -20.09375 
Q 16.0625 -19.390625 12.109375 -17.921875 
L 12.109375 -9.1875 
Q 16.0625 -11.328125 19.921875 -12.34375 
Q 23.78125 -13.375 27.78125 -13.375 
Q 36.625 -13.375 41.015625 -8.765625 
Q 45.40625 -4.15625 45.40625 5.171875 
L 45.40625 9.625 
Q 42.625 4.78125 38.28125 2.390625 
Q 33.9375 0 27.875 0 
Q 17.828125 0 11.671875 7.65625 
Q 5.515625 15.328125 5.515625 27.984375 
Q 5.515625 40.671875 11.671875 48.328125 
Q 17.828125 56 27.875 56 
Q 33.9375 56 38.28125 53.609375 
Q 42.625 51.21875 45.40625 46.390625 
L 45.40625 54.6875 
L 54.390625 54.6875 
z
" id="DejaVuSans-103"/>
      <path d="M 28.609375 0 
L 0.78125 72.90625 
L 11.078125 72.90625 
L 34.1875 11.53125 
L 57.328125 72.90625 
L 67.578125 72.90625 
L 39.796875 0 
z
" id="DejaVuSans-86"/>
     </defs>
     <g transform="translate(28.815625 245.75375)rotate(-90)scale(0.1 -0.1)">
      <use xlink:href="#DejaVuSans-118"/>
      <use x="59.179688" xlink:href="#DejaVuSans-111"/>
      <use x="120.361328" xlink:href="#DejaVuSans-108"/>
      <use x="148.144531" xlink:href="#DejaVuSans-116"/>
      <use x="187.353516" xlink:href="#DejaVuSans-97"/>
      <use x="248.632812" xlink:href="#DejaVuSans-103"/>
      <use x="312.109375" xlink:href="#DejaVuSans-101"/>
      <use x="373.632812" xlink:href="#DejaVuSans-32"/>
      <use x="405.419922" xlink:href="#DejaVuSans-91"/>
      <use x="444.433594" xlink:href="#DejaVuSans-86"/>
      <use x="512.841797" xlink:href="#DejaVuSans-93"/>
     </g>
    </g>
   </g>
   <g id="line2d_11">
    <path clip-path="url(#pfb03537323)" d="M 80.754545 365.284145 
L 81.695536 365.29614 
L 85.708064 365.714993 
L 98.526845 367.04049 
L 108.611427 367.83912 
L 119.4417 368.469522 
L 131.532545 368.946072 
L 145.700673 369.275172 
L 151.772727 369.36 
L 151.8615 367.335051 
L 152.234345 359.084021 
L 152.731473 353.308915 
L 153.565936 346.485879 
L 154.9863 336.871648 
L 156.726245 326.628856 
L 158.412927 317.968228 
L 160.028591 310.7938 
L 161.590991 304.859667 
L 163.153391 299.804762 
L 164.840073 295.120312 
L 167.236936 289.204499 
L 168.941373 284.764524 
L 169.793591 281.93521 
L 170.361736 279.297324 
L 170.752336 276.439289 
L 171.036409 272.33381 
L 171.1962 265.095754 
L 171.249464 257.048833 
L 171.622309 69.305013 
L 171.675573 66.96 
L 171.746591 67.201473 
L 171.906382 80.054175 
L 172.190455 132.832176 
L 172.847373 251.330041 
L 173.220218 285.898433 
L 173.5398 298.295714 
L 173.912645 304.760373 
L 174.303245 308.142832 
L 174.782618 310.357758 
L 175.226482 311.473599 
L 175.6881 312.066812 
L 176.096455 312.260834 
L 176.522564 312.217041 
L 177.019691 311.92351 
L 177.676609 311.23772 
L 178.511073 310.027249 
L 179.771645 307.771455 
L 182.807673 301.707469 
L 185.470855 296.680004 
L 188.134036 292.1551 
L 192.199827 285.306722 
L 193.336118 282.871968 
L 194.117318 280.6573 
L 194.685464 278.319753 
L 195.093818 275.5215 
L 195.324627 272.558853 
L 195.502173 266.59808 
L 195.573191 257.350183 
L 195.626455 229.822692 
L 195.839509 97.828605 
L 196.017055 89.184009 
L 196.034809 89.142417 
L 196.176845 92.887723 
L 196.407655 109.991361 
L 196.744991 158.875486 
L 197.437418 256.622083 
L 197.810264 281.395009 
L 198.200864 293.136192 
L 198.591464 298.78121 
L 199.070836 302.483719 
L 199.550209 304.655627 
L 200.082845 306.152184 
L 200.650991 307.097887 
L 201.219136 307.591413 
L 201.769527 307.758087 
L 202.302164 307.701068 
L 202.976836 307.397212 
L 203.793545 306.7784 
L 204.947591 305.597082 
L 206.705291 303.434051 
L 214.1622 293.954287 
L 220.695873 286.068872 
L 222.080727 283.941448 
L 223.039473 282.076256 
L 223.767409 280.169723 
L 224.300045 278.136698 
L 224.690645 275.70916 
L 224.956964 272.568218 
L 225.134509 267.226061 
L 225.223282 258.269852 
L 225.578373 94.387048 
L 225.596127 94.266872 
L 225.649391 94.446018 
L 225.809182 99.933471 
L 226.111009 121.789581 
L 226.483855 168.516351 
L 227.211791 256.927687 
L 227.620145 278.947424 
L 227.992991 288.995407 
L 228.436855 295.164033 
L 228.933982 298.975094 
L 229.502127 301.589197 
L 230.105782 303.330485 
L 230.691682 304.403085 
L 231.313091 305.086943 
L 231.898991 305.421759 
L 232.538155 305.530443 
L 233.266091 305.410606 
L 234.136064 305.020601 
L 235.236845 304.264121 
L 236.781491 302.902933 
L 239.302636 300.346305 
L 247.398709 292.024948 
L 251.428991 287.818749 
L 253.310973 285.539765 
L 254.607055 283.633084 
L 255.548045 281.866745 
L 256.258227 280.064567 
L 256.790864 278.092693 
L 257.181464 275.755212 
L 257.447782 272.749561 
L 257.607573 268.79644 
L 257.696345 262.278406 
L 257.767364 239.073756 
L 257.998173 100.239674 
L 258.122455 94.960464 
L 258.157964 95.570189 
L 258.264491 99.054177 
L 258.566318 119.492156 
L 258.956918 163.939574 
L 259.755873 256.758865 
L 260.181982 278.722857 
L 260.590336 288.878168 
L 261.016445 294.273507 
L 261.495818 297.698738 
L 262.028455 300.044506 
L 262.649864 301.795438 
L 263.271273 302.915724 
L 263.892682 303.612621 
L 264.531845 304.008715 
L 265.206518 304.163467 
L 265.952209 304.098658 
L 266.839936 303.785691 
L 267.940718 303.149671 
L 269.449855 301.997928 
L 271.722436 299.956366 
L 281.167855 290.932963 
L 284.434691 287.618719 
L 286.281164 285.441155 
L 287.577245 283.580041 
L 288.518236 281.854453 
L 289.246173 280.046392 
L 289.778809 278.113874 
L 290.151655 275.972091 
L 290.435727 272.98368 
L 290.631027 267.841381 
L 290.7198 259.426136 
L 290.844082 161.905937 
L 291.003873 99.377198 
L 291.128155 95.254282 
L 291.163664 95.784849 
L 291.341209 103.250398 
L 291.643036 126.953539 
L 292.175673 193.002219 
L 292.761573 256.248971 
L 293.152173 276.838059 
L 293.560527 287.786197 
L 294.004391 293.737303 
L 294.483764 297.295002 
L 295.051909 299.833244 
L 295.673318 301.582155 
L 296.276973 302.679193 
L 296.916136 303.406777 
L 297.5553 303.811047 
L 298.247727 303.978012 
L 299.028927 303.914117 
L 299.952164 303.589494 
L 301.123964 302.910628 
L 302.668609 301.734837 
L 305.136491 299.535112 
L 315.434127 289.806346 
L 318.150573 286.985992 
L 319.837255 284.923661 
L 321.062318 283.069717 
L 321.950045 281.317381 
L 322.589209 279.585367 
L 323.068582 277.681044 
L 323.423673 275.39929 
L 323.672236 272.447728 
L 323.849782 266.899917 
L 323.938555 256.008355 
L 323.974064 235.397249 
L 324.204873 100.626495 
L 324.3114 95.035819 
L 324.346909 95.515679 
L 324.453436 98.539057 
L 324.755264 118.654399 
L 325.163618 164.3773 
L 325.962573 256.06904 
L 326.388682 278.118772 
L 326.797036 288.502882 
L 327.2409 294.176593 
L 327.738027 297.681617 
L 328.306173 300.086359 
L 328.927582 301.746628 
L 329.5845 302.854424 
L 330.223664 303.505599 
L 330.880582 303.858784 
L 331.555255 303.973252 
L 332.354209 303.865967 
L 333.2952 303.495892 
L 334.484755 302.771474 
L 336.118173 301.494122 
L 338.834618 299.040866 
L 350.179773 288.263718 
L 352.274809 285.934857 
L 353.677418 284.061111 
L 354.707182 282.33265 
L 355.488382 280.592929 
L 356.074282 278.740444 
L 356.518145 276.545847 
L 356.819973 273.903468 
L 357.015273 270.327961 
L 357.139555 263.900511 
L 357.210573 244.793395 
L 357.476891 98.052087 
L 357.565664 95.19997 
L 357.618927 95.78589 
L 357.778718 102.343743 
L 358.116055 129.021009 
L 358.648691 195.659151 
L 359.216836 256.499208 
L 359.625191 277.848022 
L 360.033545 288.469572 
L 360.459655 294.077767 
L 360.939027 297.579984 
L 361.453909 299.875024 
L 362.057564 301.594879 
L 362.678973 302.729017 
L 363.318136 303.449947 
L 363.975055 303.854126 
L 364.649727 304.006903 
L 364.862782 304.011028 
L 364.969309 306.222372 
L 365.306645 313.529595 
L 365.786018 318.6824 
L 366.460691 323.330612 
L 367.348418 327.892456 
L 368.395936 332.127211 
L 369.532227 335.840245 
L 370.775045 339.183824 
L 372.1599 342.278182 
L 373.633527 345.03372 
L 375.213682 347.526424 
L 376.900364 349.78365 
L 378.729082 351.866802 
L 380.735345 353.812779 
L 382.9014 355.602291 
L 385.262755 357.264736 
L 387.890427 358.838127 
L 390.819927 360.324344 
L 394.051255 361.709016 
L 397.655427 363.008549 
L 401.685709 364.223585 
L 406.230873 365.358145 
L 411.326427 366.396566 
L 417.043391 367.329007 
L 423.381764 368.133845 
L 430.465827 368.80657 
L 435.8277 369.187003 
L 435.8277 369.187003 
" style="fill:none;stroke:#1f77b4;stroke-linecap:square;stroke-width:1.5;"/>
   </g>
   <g id="line2d_12">
    <path clip-path="url(#pfb03537323)" d="M 80.754545 365.284153 
L 80.949845 364.700061 
L 81.375955 364.191091 
L 82.103891 363.69958 
L 83.399973 363.119716 
L 85.388482 362.484749 
L 87.980645 361.898009 
L 91.1232 361.421763 
L 94.851655 361.087981 
L 99.379064 360.914787 
L 105.309082 360.924812 
L 116.050582 361.210465 
L 131.497036 361.561559 
L 146.943491 361.662023 
L 151.772727 361.663791 
L 151.985782 351.485711 
L 152.411891 342.266763 
L 153.086564 332.664751 
L 154.0098 322.75088 
L 155.004055 314.358337 
L 155.998309 307.786471 
L 156.974809 302.751641 
L 157.986818 298.656971 
L 159.069845 295.179085 
L 160.2594 292.096301 
L 161.608745 289.218548 
L 163.224409 286.312243 
L 167.769573 278.485265 
L 168.462 276.568631 
L 168.959127 274.520514 
L 169.314218 272.111605 
L 169.562782 268.941941 
L 169.740327 263.45041 
L 169.8291 254.314545 
L 169.882364 226.025231 
L 170.006645 88.497405 
L 170.042155 93.193464 
L 170.290718 186.605989 
L 170.663564 276.342816 
L 170.912127 292.438075 
L 171.178445 297.40988 
L 171.480273 299.22004 
L 171.906382 300.391317 
L 172.350245 301.040531 
L 172.723091 301.233251 
L 173.078182 301.170678 
L 173.522045 300.842517 
L 174.178964 300.035978 
L 175.439536 298.052486 
L 177.783136 294.419279 
L 179.540836 292.128136 
L 181.422818 290.043837 
L 183.571118 288.003143 
L 186.198791 285.826607 
L 193.247345 280.172262 
L 194.4369 278.813843 
L 195.306873 277.490106 
L 195.963791 276.087822 
L 196.460918 274.511854 
L 196.851518 272.514965 
L 197.135591 269.881513 
L 197.330891 266.029251 
L 197.455173 259.252276 
L 197.526191 242.561819 
L 197.668227 91.715959 
L 197.774755 118.783032 
L 198.236373 258.977126 
L 198.502691 283.778634 
L 198.804518 293.317862 
L 199.1241 296.959735 
L 199.496945 298.782945 
L 199.923055 299.830639 
L 200.331409 300.297493 
L 200.704255 300.409213 
L 201.112609 300.286706 
L 201.645245 299.869867 
L 202.479709 298.89421 
L 207.681791 292.282883 
L 209.723564 290.284314 
L 212.0139 288.356851 
L 214.730345 286.369632 
L 218.636345 283.818292 
L 222.471327 281.245006 
L 224.175764 279.833841 
L 225.347564 278.583035 
L 226.217536 277.329676 
L 226.874455 275.990558 
L 227.389336 274.413453 
L 227.779936 272.462075 
L 228.064009 269.888903 
L 228.259309 266.158477 
L 228.383591 259.801216 
L 228.454609 245.589876 
L 228.507873 164.23257 
L 228.596645 92.119233 
L 228.649909 98.925809 
L 229.3956 281.769199 
L 229.679673 292.116249 
L 229.9815 296.2749 
L 230.336591 298.400234 
L 230.744945 299.630221 
L 231.1533 300.23638 
L 231.526145 300.434515 
L 231.916745 300.386367 
L 232.396118 300.083335 
L 233.1063 299.340145 
L 234.508909 297.476285 
L 236.994545 294.238663 
L 238.929791 292.103417 
L 240.989318 290.163304 
L 243.315164 288.281761 
L 246.049364 286.363168 
L 249.866591 283.982541 
L 254.216455 281.226193 
L 255.974155 279.84338 
L 257.181464 278.617084 
L 258.069191 277.4012 
L 258.743864 276.098326 
L 259.258745 274.622456 
L 259.6671 272.745907 
L 259.968927 270.258257 
L 260.181982 266.557512 
L 260.324018 259.502245 
L 260.395036 244.184415 
L 260.537073 92.133107 
L 260.661355 124.627396 
L 261.087464 256.049714 
L 261.353782 283.24069 
L 261.637855 292.794463 
L 261.957436 296.746801 
L 262.330282 298.735602 
L 262.756391 299.872053 
L 263.164745 300.38067 
L 263.537591 300.515129 
L 263.945945 300.410114 
L 264.478582 300.010442 
L 265.295291 299.077691 
L 270.710427 292.319566 
L 272.7522 290.38315 
L 275.042536 288.523361 
L 277.705718 286.655597 
L 281.185609 284.506628 
L 286.867064 281.022644 
L 288.553745 279.699584 
L 289.725545 278.50859 
L 290.595518 277.313909 
L 291.252436 276.042986 
L 291.767318 274.563864 
L 292.175673 272.671905 
L 292.4775 270.14006 
L 292.690555 266.3017 
L 292.814836 260.310199 
L 292.885855 247.993095 
L 292.939118 181.044938 
L 293.045645 92.343031 
L 293.081155 97.538948 
L 293.418491 215.763539 
L 293.738073 275.195313 
L 294.022145 290.089694 
L 294.323973 295.560689 
L 294.661309 298.028459 
L 295.069664 299.481317 
L 295.478018 300.212057 
L 295.868618 300.493607 
L 296.241464 300.496536 
L 296.703082 300.253049 
L 297.36 299.615694 
L 298.5318 298.10526 
L 301.479055 294.257821 
L 303.396545 292.167001 
L 305.456073 290.254726 
L 307.746409 288.434482 
L 310.427345 286.595199 
L 313.889482 284.506436 
L 319.8195 280.961318 
L 321.506182 279.662559 
L 322.677982 278.492089 
L 323.547955 277.318621 
L 324.222627 276.032581 
L 324.737509 274.569546 
L 325.145864 272.702532 
L 325.447691 270.219189 
L 325.660745 266.511467 
L 325.802782 259.399678 
L 325.8738 243.741855 
L 326.015836 92.237389 
L 326.140118 124.951006 
L 326.566227 256.111758 
L 326.832545 283.344756 
L 327.116618 292.884815 
L 327.4362 296.793007 
L 327.809045 298.762097 
L 328.235155 299.891074 
L 328.643509 300.396697 
L 329.016355 300.530124 
L 329.424709 300.425342 
L 329.957345 300.027564 
L 330.774055 299.099945 
L 336.135927 292.447292 
L 338.159945 290.540171 
L 340.414773 288.725014 
L 343.006936 286.929254 
L 346.238264 284.974073 
L 353.730682 280.553673 
L 355.257573 279.320987 
L 356.3406 278.172198 
L 357.157309 276.987424 
L 357.778718 275.700239 
L 358.275845 274.138438 
L 358.648691 272.212483 
L 358.932764 269.497201 
L 359.128064 265.313088 
L 359.252345 256.959753 
L 359.323364 226.982737 
L 359.447645 92.290109 
L 359.500909 100.934766 
L 360.193336 279.039819 
L 360.477409 291.386728 
L 360.779236 296.047647 
L 361.134327 298.328494 
L 361.542682 299.628812 
L 361.951036 300.276851 
L 362.323882 300.501771 
L 362.714482 300.474223 
L 363.193855 300.189496 
L 363.886282 299.485658 
L 364.827273 298.275879 
L 365.022573 307.496561 
L 365.395418 314.662524 
L 365.9103 320.333573 
L 366.602727 325.496398 
L 367.4727 330.313229 
L 368.484709 334.691564 
L 369.638755 338.709558 
L 370.899327 342.307305 
L 372.266427 345.548046 
L 373.740055 348.472748 
L 375.302455 351.083037 
L 376.953627 353.41227 
L 378.693573 355.483625 
L 380.504536 357.296499 
L 382.386518 358.869385 
L 384.339518 360.215425 
L 386.381291 361.353555 
L 388.511836 362.286846 
L 390.766664 363.030197 
L 393.181282 363.588692 
L 395.808955 363.964505 
L 398.756209 364.157033 
L 402.2361 364.154069 
L 406.763509 363.913191 
L 415.853836 363.144634 
L 424.553564 362.520112 
L 432.401073 362.18814 
L 435.845455 362.105011 
L 435.845455 362.105011 
" style="fill:none;stroke:#ff0000;stroke-linecap:square;stroke-width:1.5;"/>
   </g>
   <g id="patch_3">
    <path d="M 63 384.48 
L 63 51.84 
" style="fill:none;stroke:#000000;stroke-linecap:square;stroke-linejoin:miter;stroke-width:0.8;"/>
   </g>
   <g id="patch_4">
    <path d="M 453.6 384.48 
L 453.6 51.84 
" style="fill:none;stroke:#000000;stroke-linecap:square;stroke-linejoin:miter;stroke-width:0.8;"/>
   </g>
   <g id="patch_5">
    <path d="M 63 384.48 
L 453.6 384.48 
" style="fill:none;stroke:#000000;stroke-linecap:square;stroke-linejoin:miter;stroke-width:0.8;"/>
   </g>
   <g id="patch_6">
    <path d="M 63 51.84 
L 453.6 51.84 
" style="fill:none;stroke:#000000;stroke-linecap:square;stroke-linejoin:miter;stroke-width:0.8;"/>
   </g>
   <g id="legend_1">
    <g id="patch_7">
     <path d="M 383.460938 89.19625 
L 446.6 89.19625 
Q 448.6 89.19625 448.6 87.19625 
L 448.6 58.84 
Q 448.6 56.84 446.6 56.84 
L 383.460938 56.84 
Q 381.460938 56.84 381.460938 58.84 
L 381.460938 87.19625 
Q 381.460938 89.19625 383.460938 89.19625 
z
" style="fill:#ffffff;opacity:0.8;stroke:#cccccc;stroke-linejoin:miter;"/>
    </g>
    <g id="line2d_13">
     <path d="M 385.460938 64.938437 
L 405.460938 64.938437 
" style="fill:none;stroke:#1f77b4;stroke-linecap:square;stroke-width:1.5;"/>
    </g>
    <g id="line2d_14"/>
    <g id="text_13">
     <!-- target -->
     <defs>
      <path d="M 41.109375 46.296875 
Q 39.59375 47.171875 37.8125 47.578125 
Q 36.03125 48 33.890625 48 
Q 26.265625 48 22.1875 43.046875 
Q 18.109375 38.09375 18.109375 28.8125 
L 18.109375 0 
L 9.078125 0 
L 9.078125 54.6875 
L 18.109375 54.6875 
L 18.109375 46.1875 
Q 20.953125 51.171875 25.484375 53.578125 
Q 30.03125 56 36.53125 56 
Q 37.453125 56 38.578125 55.875 
Q 39.703125 55.765625 41.0625 55.515625 
z
" id="DejaVuSans-114"/>
     </defs>
     <g transform="translate(413.460938 68.438437)scale(0.1 -0.1)">
      <use xlink:href="#DejaVuSans-116"/>
      <use x="39.208984" xlink:href="#DejaVuSans-97"/>
      <use x="100.488281" xlink:href="#DejaVuSans-114"/>
      <use x="141.585938" xlink:href="#DejaVuSans-103"/>
      <use x="205.0625" xlink:href="#DejaVuSans-101"/>
      <use x="266.585938" xlink:href="#DejaVuSans-116"/>
     </g>
    </g>
    <g id="line2d_15">
     <path d="M 385.460938 79.616562 
L 405.460938 79.616562 
" style="fill:none;stroke:#ff0000;stroke-linecap:square;stroke-width:1.5;"/>
    </g>
    <g id="line2d_16"/>
    <g id="text_14">
     <!-- model -->
     <defs>
      <path d="M 45.40625 46.390625 
L 45.40625 75.984375 
L 54.390625 75.984375 
L 54.390625 0 
L 45.40625 0 
L 45.40625 8.203125 
Q 42.578125 3.328125 38.25 0.953125 
Q 33.9375 -1.421875 27.875 -1.421875 
Q 17.96875 -1.421875 11.734375 6.484375 
Q 5.515625 14.40625 5.515625 27.296875 
Q 5.515625 40.1875 11.734375 48.09375 
Q 17.96875 56 27.875 56 
Q 33.9375 56 38.25 53.625 
Q 42.578125 51.265625 45.40625 46.390625 
z
M 14.796875 27.296875 
Q 14.796875 17.390625 18.875 11.75 
Q 22.953125 6.109375 30.078125 6.109375 
Q 37.203125 6.109375 41.296875 11.75 
Q 45.40625 17.390625 45.40625 27.296875 
Q 45.40625 37.203125 41.296875 42.84375 
Q 37.203125 48.484375 30.078125 48.484375 
Q 22.953125 48.484375 18.875 42.84375 
Q 14.796875 37.203125 14.796875 27.296875 
z
" id="DejaVuSans-100"/>
     </defs>
     <g transform="translate(413.460938 83.116562)scale(0.1 -0.1)">
      <use xlink:href="#DejaVuSans-109"/>
      <use x="97.412109" xlink:href="#DejaVuSans-111"/>
      <use x="158.59375" xlink:href="#DejaVuSans-100"/>
      <use x="222.070312" xlink:href="#DejaVuSans-101"/>
      <use x="283.59375" xlink:href="#DejaVuSans-108"/>
     </g>
    </g>
   </g>
  </g>
 </g>
 <defs>
  <clipPath id="pfb03537323">
   <rect height="332.64" width="390.6" x="63" y="51.84"/>
  </clipPath>
 </defs>
</svg>
