<?xml version="1.0" encoding="utf-8" standalone="no"?>
<!DOCTYPE svg PUBLIC "-//W3C//DTD SVG 1.1//EN"
  "http://www.w3.org/Graphics/SVG/1.1/DTD/svg11.dtd">
<!-- Created with matplotlib (https://matplotlib.org/) -->
<svg height="432pt" version="1.1" viewBox="0 0 504 432" width="504pt" xmlns="http://www.w3.org/2000/svg" xmlns:xlink="http://www.w3.org/1999/xlink">
 <metadata>
  <rdf:RDF xmlns:cc="http://creativecommons.org/ns#" xmlns:dc="http://purl.org/dc/elements/1.1/" xmlns:rdf="http://www.w3.org/1999/02/22-rdf-syntax-ns#">
   <cc:Work>
    <dc:type rdf:resource="http://purl.org/dc/dcmitype/StillImage"/>
    <dc:date>2020-11-06T12:15:08.590549</dc:date>
    <dc:format>image/svg+xml</dc:format>
    <dc:creator>
     <cc:Agent>
      <dc:title>Matplotlib v3.3.2, https://matplotlib.org/</dc:title>
     </cc:Agent>
    </dc:creator>
   </cc:Work>
  </rdf:RDF>
 </metadata>
 <defs>
  <style type="text/css">*{stroke-linecap:butt;stroke-linejoin:round;}</style>
 </defs>
 <g id="figure_1">
  <g id="patch_1">
   <path d="M 0 432 
L 504 432 
L 504 0 
L 0 0 
z
" style="fill:#ffffff;"/>
  </g>
  <g id="axes_1">
   <g id="patch_2">
    <path d="M 63 384.48 
L 453.6 384.48 
L 453.6 51.84 
L 63 51.84 
z
" style="fill:#ffffff;"/>
   </g>
   <g id="matplotlib.axis_1">
    <g id="xtick_1">
     <g id="line2d_1">
      <defs>
       <path d="M 0 0 
L 0 3.5 
" id="m10c9b94867" style="stroke:#000000;stroke-width:0.8;"/>
      </defs>
      <g>
       <use style="stroke:#000000;stroke-width:0.8;" x="80.754545" xlink:href="#m10c9b94867" y="384.48"/>
      </g>
     </g>
     <g id="text_1">
      <!-- 0 -->
      <g transform="translate(77.573295 399.078438)scale(0.1 -0.1)">
       <defs>
        <path d="M 31.78125 66.40625 
Q 24.171875 66.40625 20.328125 58.90625 
Q 16.5 51.421875 16.5 36.375 
Q 16.5 21.390625 20.328125 13.890625 
Q 24.171875 6.390625 31.78125 6.390625 
Q 39.453125 6.390625 43.28125 13.890625 
Q 47.125 21.390625 47.125 36.375 
Q 47.125 51.421875 43.28125 58.90625 
Q 39.453125 66.40625 31.78125 66.40625 
z
M 31.78125 74.21875 
Q 44.046875 74.21875 50.515625 64.515625 
Q 56.984375 54.828125 56.984375 36.375 
Q 56.984375 17.96875 50.515625 8.265625 
Q 44.046875 -1.421875 31.78125 -1.421875 
Q 19.53125 -1.421875 13.0625 8.265625 
Q 6.59375 17.96875 6.59375 36.375 
Q 6.59375 54.828125 13.0625 64.515625 
Q 19.53125 74.21875 31.78125 74.21875 
z
" id="DejaVuSans-48"/>
       </defs>
       <use xlink:href="#DejaVuSans-48"/>
      </g>
     </g>
    </g>
    <g id="xtick_2">
     <g id="line2d_2">
      <g>
       <use style="stroke:#000000;stroke-width:0.8;" x="151.763044" xlink:href="#m10c9b94867" y="384.48"/>
      </g>
     </g>
     <g id="text_2">
      <!-- 880 -->
      <g transform="translate(142.219294 399.078438)scale(0.1 -0.1)">
       <defs>
        <path d="M 31.78125 34.625 
Q 24.75 34.625 20.71875 30.859375 
Q 16.703125 27.09375 16.703125 20.515625 
Q 16.703125 13.921875 20.71875 10.15625 
Q 24.75 6.390625 31.78125 6.390625 
Q 38.8125 6.390625 42.859375 10.171875 
Q 46.921875 13.96875 46.921875 20.515625 
Q 46.921875 27.09375 42.890625 30.859375 
Q 38.875 34.625 31.78125 34.625 
z
M 21.921875 38.8125 
Q 15.578125 40.375 12.03125 44.71875 
Q 8.5 49.078125 8.5 55.328125 
Q 8.5 64.0625 14.71875 69.140625 
Q 20.953125 74.21875 31.78125 74.21875 
Q 42.671875 74.21875 48.875 69.140625 
Q 55.078125 64.0625 55.078125 55.328125 
Q 55.078125 49.078125 51.53125 44.71875 
Q 48 40.375 41.703125 38.8125 
Q 48.828125 37.15625 52.796875 32.3125 
Q 56.78125 27.484375 56.78125 20.515625 
Q 56.78125 9.90625 50.3125 4.234375 
Q 43.84375 -1.421875 31.78125 -1.421875 
Q 19.734375 -1.421875 13.25 4.234375 
Q 6.78125 9.90625 6.78125 20.515625 
Q 6.78125 27.484375 10.78125 32.3125 
Q 14.796875 37.15625 21.921875 38.8125 
z
M 18.3125 54.390625 
Q 18.3125 48.734375 21.84375 45.5625 
Q 25.390625 42.390625 31.78125 42.390625 
Q 38.140625 42.390625 41.71875 45.5625 
Q 45.3125 48.734375 45.3125 54.390625 
Q 45.3125 60.0625 41.71875 63.234375 
Q 38.140625 66.40625 31.78125 66.40625 
Q 25.390625 66.40625 21.84375 63.234375 
Q 18.3125 60.0625 18.3125 54.390625 
z
" id="DejaVuSans-56"/>
       </defs>
       <use xlink:href="#DejaVuSans-56"/>
       <use x="63.623047" xlink:href="#DejaVuSans-56"/>
       <use x="127.246094" xlink:href="#DejaVuSans-48"/>
      </g>
     </g>
    </g>
    <g id="xtick_3">
     <g id="line2d_3">
      <g>
       <use style="stroke:#000000;stroke-width:0.8;" x="222.771543" xlink:href="#m10c9b94867" y="384.48"/>
      </g>
     </g>
     <g id="text_3">
      <!-- 1760 -->
      <g transform="translate(210.046543 399.078438)scale(0.1 -0.1)">
       <defs>
        <path d="M 12.40625 8.296875 
L 28.515625 8.296875 
L 28.515625 63.921875 
L 10.984375 60.40625 
L 10.984375 69.390625 
L 28.421875 72.90625 
L 38.28125 72.90625 
L 38.28125 8.296875 
L 54.390625 8.296875 
L 54.390625 0 
L 12.40625 0 
z
" id="DejaVuSans-49"/>
        <path d="M 8.203125 72.90625 
L 55.078125 72.90625 
L 55.078125 68.703125 
L 28.609375 0 
L 18.3125 0 
L 43.21875 64.59375 
L 8.203125 64.59375 
z
" id="DejaVuSans-55"/>
        <path d="M 33.015625 40.375 
Q 26.375 40.375 22.484375 35.828125 
Q 18.609375 31.296875 18.609375 23.390625 
Q 18.609375 15.53125 22.484375 10.953125 
Q 26.375 6.390625 33.015625 6.390625 
Q 39.65625 6.390625 43.53125 10.953125 
Q 47.40625 15.53125 47.40625 23.390625 
Q 47.40625 31.296875 43.53125 35.828125 
Q 39.65625 40.375 33.015625 40.375 
z
M 52.59375 71.296875 
L 52.59375 62.3125 
Q 48.875 64.0625 45.09375 64.984375 
Q 41.3125 65.921875 37.59375 65.921875 
Q 27.828125 65.921875 22.671875 59.328125 
Q 17.53125 52.734375 16.796875 39.40625 
Q 19.671875 43.65625 24.015625 45.921875 
Q 28.375 48.1875 33.59375 48.1875 
Q 44.578125 48.1875 50.953125 41.515625 
Q 57.328125 34.859375 57.328125 23.390625 
Q 57.328125 12.15625 50.6875 5.359375 
Q 44.046875 -1.421875 33.015625 -1.421875 
Q 20.359375 -1.421875 13.671875 8.265625 
Q 6.984375 17.96875 6.984375 36.375 
Q 6.984375 53.65625 15.1875 63.9375 
Q 23.390625 74.21875 37.203125 74.21875 
Q 40.921875 74.21875 44.703125 73.484375 
Q 48.484375 72.75 52.59375 71.296875 
z
" id="DejaVuSans-54"/>
       </defs>
       <use xlink:href="#DejaVuSans-49"/>
       <use x="63.623047" xlink:href="#DejaVuSans-55"/>
       <use x="127.246094" xlink:href="#DejaVuSans-54"/>
       <use x="190.869141" xlink:href="#DejaVuSans-48"/>
      </g>
     </g>
    </g>
    <g id="xtick_4">
     <g id="line2d_4">
      <g>
       <use style="stroke:#000000;stroke-width:0.8;" x="293.780042" xlink:href="#m10c9b94867" y="384.48"/>
      </g>
     </g>
     <g id="text_4">
      <!-- 2640 -->
      <g transform="translate(281.055042 399.078438)scale(0.1 -0.1)">
       <defs>
        <path d="M 19.1875 8.296875 
L 53.609375 8.296875 
L 53.609375 0 
L 7.328125 0 
L 7.328125 8.296875 
Q 12.9375 14.109375 22.625 23.890625 
Q 32.328125 33.6875 34.8125 36.53125 
Q 39.546875 41.84375 41.421875 45.53125 
Q 43.3125 49.21875 43.3125 52.78125 
Q 43.3125 58.59375 39.234375 62.25 
Q 35.15625 65.921875 28.609375 65.921875 
Q 23.96875 65.921875 18.8125 64.3125 
Q 13.671875 62.703125 7.8125 59.421875 
L 7.8125 69.390625 
Q 13.765625 71.78125 18.9375 73 
Q 24.125 74.21875 28.421875 74.21875 
Q 39.75 74.21875 46.484375 68.546875 
Q 53.21875 62.890625 53.21875 53.421875 
Q 53.21875 48.921875 51.53125 44.890625 
Q 49.859375 40.875 45.40625 35.40625 
Q 44.1875 33.984375 37.640625 27.21875 
Q 31.109375 20.453125 19.1875 8.296875 
z
" id="DejaVuSans-50"/>
        <path d="M 37.796875 64.3125 
L 12.890625 25.390625 
L 37.796875 25.390625 
z
M 35.203125 72.90625 
L 47.609375 72.90625 
L 47.609375 25.390625 
L 58.015625 25.390625 
L 58.015625 17.1875 
L 47.609375 17.1875 
L 47.609375 0 
L 37.796875 0 
L 37.796875 17.1875 
L 4.890625 17.1875 
L 4.890625 26.703125 
z
" id="DejaVuSans-52"/>
       </defs>
       <use xlink:href="#DejaVuSans-50"/>
       <use x="63.623047" xlink:href="#DejaVuSans-54"/>
       <use x="127.246094" xlink:href="#DejaVuSans-52"/>
       <use x="190.869141" xlink:href="#DejaVuSans-48"/>
      </g>
     </g>
    </g>
    <g id="xtick_5">
     <g id="line2d_5">
      <g>
       <use style="stroke:#000000;stroke-width:0.8;" x="364.788541" xlink:href="#m10c9b94867" y="384.48"/>
      </g>
     </g>
     <g id="text_5">
      <!-- 3520 -->
      <g transform="translate(352.063541 399.078438)scale(0.1 -0.1)">
       <defs>
        <path d="M 40.578125 39.3125 
Q 47.65625 37.796875 51.625 33 
Q 55.609375 28.21875 55.609375 21.1875 
Q 55.609375 10.40625 48.1875 4.484375 
Q 40.765625 -1.421875 27.09375 -1.421875 
Q 22.515625 -1.421875 17.65625 -0.515625 
Q 12.796875 0.390625 7.625 2.203125 
L 7.625 11.71875 
Q 11.71875 9.328125 16.59375 8.109375 
Q 21.484375 6.890625 26.8125 6.890625 
Q 36.078125 6.890625 40.9375 10.546875 
Q 45.796875 14.203125 45.796875 21.1875 
Q 45.796875 27.640625 41.28125 31.265625 
Q 36.765625 34.90625 28.71875 34.90625 
L 20.21875 34.90625 
L 20.21875 43.015625 
L 29.109375 43.015625 
Q 36.375 43.015625 40.234375 45.921875 
Q 44.09375 48.828125 44.09375 54.296875 
Q 44.09375 59.90625 40.109375 62.90625 
Q 36.140625 65.921875 28.71875 65.921875 
Q 24.65625 65.921875 20.015625 65.03125 
Q 15.375 64.15625 9.8125 62.3125 
L 9.8125 71.09375 
Q 15.4375 72.65625 20.34375 73.4375 
Q 25.25 74.21875 29.59375 74.21875 
Q 40.828125 74.21875 47.359375 69.109375 
Q 53.90625 64.015625 53.90625 55.328125 
Q 53.90625 49.265625 50.4375 45.09375 
Q 46.96875 40.921875 40.578125 39.3125 
z
" id="DejaVuSans-51"/>
        <path d="M 10.796875 72.90625 
L 49.515625 72.90625 
L 49.515625 64.59375 
L 19.828125 64.59375 
L 19.828125 46.734375 
Q 21.96875 47.46875 24.109375 47.828125 
Q 26.265625 48.1875 28.421875 48.1875 
Q 40.625 48.1875 47.75 41.5 
Q 54.890625 34.8125 54.890625 23.390625 
Q 54.890625 11.625 47.5625 5.09375 
Q 40.234375 -1.421875 26.90625 -1.421875 
Q 22.3125 -1.421875 17.546875 -0.640625 
Q 12.796875 0.140625 7.71875 1.703125 
L 7.71875 11.625 
Q 12.109375 9.234375 16.796875 8.0625 
Q 21.484375 6.890625 26.703125 6.890625 
Q 35.15625 6.890625 40.078125 11.328125 
Q 45.015625 15.765625 45.015625 23.390625 
Q 45.015625 31 40.078125 35.4375 
Q 35.15625 39.890625 26.703125 39.890625 
Q 22.75 39.890625 18.8125 39.015625 
Q 14.890625 38.140625 10.796875 36.28125 
z
" id="DejaVuSans-53"/>
       </defs>
       <use xlink:href="#DejaVuSans-51"/>
       <use x="63.623047" xlink:href="#DejaVuSans-53"/>
       <use x="127.246094" xlink:href="#DejaVuSans-50"/>
       <use x="190.869141" xlink:href="#DejaVuSans-48"/>
      </g>
     </g>
    </g>
    <g id="text_6">
     <!-- time [ms] -->
     <g transform="translate(234.038281 412.756563)scale(0.1 -0.1)">
      <defs>
       <path d="M 18.3125 70.21875 
L 18.3125 54.6875 
L 36.8125 54.6875 
L 36.8125 47.703125 
L 18.3125 47.703125 
L 18.3125 18.015625 
Q 18.3125 11.328125 20.140625 9.421875 
Q 21.96875 7.515625 27.59375 7.515625 
L 36.8125 7.515625 
L 36.8125 0 
L 27.59375 0 
Q 17.1875 0 13.234375 3.875 
Q 9.28125 7.765625 9.28125 18.015625 
L 9.28125 47.703125 
L 2.6875 47.703125 
L 2.6875 54.6875 
L 9.28125 54.6875 
L 9.28125 70.21875 
z
" id="DejaVuSans-116"/>
       <path d="M 9.421875 54.6875 
L 18.40625 54.6875 
L 18.40625 0 
L 9.421875 0 
z
M 9.421875 75.984375 
L 18.40625 75.984375 
L 18.40625 64.59375 
L 9.421875 64.59375 
z
" id="DejaVuSans-105"/>
       <path d="M 52 44.1875 
Q 55.375 50.25 60.0625 53.125 
Q 64.75 56 71.09375 56 
Q 79.640625 56 84.28125 50.015625 
Q 88.921875 44.046875 88.921875 33.015625 
L 88.921875 0 
L 79.890625 0 
L 79.890625 32.71875 
Q 79.890625 40.578125 77.09375 44.375 
Q 74.3125 48.1875 68.609375 48.1875 
Q 61.625 48.1875 57.5625 43.546875 
Q 53.515625 38.921875 53.515625 30.90625 
L 53.515625 0 
L 44.484375 0 
L 44.484375 32.71875 
Q 44.484375 40.625 41.703125 44.40625 
Q 38.921875 48.1875 33.109375 48.1875 
Q 26.21875 48.1875 22.15625 43.53125 
Q 18.109375 38.875 18.109375 30.90625 
L 18.109375 0 
L 9.078125 0 
L 9.078125 54.6875 
L 18.109375 54.6875 
L 18.109375 46.1875 
Q 21.1875 51.21875 25.484375 53.609375 
Q 29.78125 56 35.6875 56 
Q 41.65625 56 45.828125 52.96875 
Q 50 49.953125 52 44.1875 
z
" id="DejaVuSans-109"/>
       <path d="M 56.203125 29.59375 
L 56.203125 25.203125 
L 14.890625 25.203125 
Q 15.484375 15.921875 20.484375 11.0625 
Q 25.484375 6.203125 34.421875 6.203125 
Q 39.59375 6.203125 44.453125 7.46875 
Q 49.3125 8.734375 54.109375 11.28125 
L 54.109375 2.78125 
Q 49.265625 0.734375 44.1875 -0.34375 
Q 39.109375 -1.421875 33.890625 -1.421875 
Q 20.796875 -1.421875 13.15625 6.1875 
Q 5.515625 13.8125 5.515625 26.8125 
Q 5.515625 40.234375 12.765625 48.109375 
Q 20.015625 56 32.328125 56 
Q 43.359375 56 49.78125 48.890625 
Q 56.203125 41.796875 56.203125 29.59375 
z
M 47.21875 32.234375 
Q 47.125 39.59375 43.09375 43.984375 
Q 39.0625 48.390625 32.421875 48.390625 
Q 24.90625 48.390625 20.390625 44.140625 
Q 15.875 39.890625 15.1875 32.171875 
z
" id="DejaVuSans-101"/>
       <path id="DejaVuSans-32"/>
       <path d="M 8.59375 75.984375 
L 29.296875 75.984375 
L 29.296875 69 
L 17.578125 69 
L 17.578125 -6.203125 
L 29.296875 -6.203125 
L 29.296875 -13.1875 
L 8.59375 -13.1875 
z
" id="DejaVuSans-91"/>
       <path d="M 44.28125 53.078125 
L 44.28125 44.578125 
Q 40.484375 46.53125 36.375 47.5 
Q 32.28125 48.484375 27.875 48.484375 
Q 21.1875 48.484375 17.84375 46.4375 
Q 14.5 44.390625 14.5 40.28125 
Q 14.5 37.15625 16.890625 35.375 
Q 19.28125 33.59375 26.515625 31.984375 
L 29.59375 31.296875 
Q 39.15625 29.25 43.1875 25.515625 
Q 47.21875 21.78125 47.21875 15.09375 
Q 47.21875 7.46875 41.1875 3.015625 
Q 35.15625 -1.421875 24.609375 -1.421875 
Q 20.21875 -1.421875 15.453125 -0.5625 
Q 10.6875 0.296875 5.421875 2 
L 5.421875 11.28125 
Q 10.40625 8.6875 15.234375 7.390625 
Q 20.0625 6.109375 24.8125 6.109375 
Q 31.15625 6.109375 34.5625 8.28125 
Q 37.984375 10.453125 37.984375 14.40625 
Q 37.984375 18.0625 35.515625 20.015625 
Q 33.0625 21.96875 24.703125 23.78125 
L 21.578125 24.515625 
Q 13.234375 26.265625 9.515625 29.90625 
Q 5.8125 33.546875 5.8125 39.890625 
Q 5.8125 47.609375 11.28125 51.796875 
Q 16.75 56 26.8125 56 
Q 31.78125 56 36.171875 55.265625 
Q 40.578125 54.546875 44.28125 53.078125 
z
" id="DejaVuSans-115"/>
       <path d="M 30.421875 75.984375 
L 30.421875 -13.1875 
L 9.71875 -13.1875 
L 9.71875 -6.203125 
L 21.390625 -6.203125 
L 21.390625 69 
L 9.71875 69 
L 9.71875 75.984375 
z
" id="DejaVuSans-93"/>
      </defs>
      <use xlink:href="#DejaVuSans-116"/>
      <use x="39.208984" xlink:href="#DejaVuSans-105"/>
      <use x="66.992188" xlink:href="#DejaVuSans-109"/>
      <use x="164.404297" xlink:href="#DejaVuSans-101"/>
      <use x="225.927734" xlink:href="#DejaVuSans-32"/>
      <use x="257.714844" xlink:href="#DejaVuSans-91"/>
      <use x="296.728516" xlink:href="#DejaVuSans-109"/>
      <use x="394.140625" xlink:href="#DejaVuSans-115"/>
      <use x="446.240234" xlink:href="#DejaVuSans-93"/>
     </g>
    </g>
   </g>
   <g id="matplotlib.axis_2">
    <g id="ytick_1">
     <g id="line2d_6">
      <defs>
       <path d="M 0 0 
L -3.5 0 
" id="m8313a8cc7b" style="stroke:#000000;stroke-width:0.8;"/>
      </defs>
      <g>
       <use style="stroke:#000000;stroke-width:0.8;" x="63" xlink:href="#m8313a8cc7b" y="373.092916"/>
      </g>
     </g>
     <g id="text_7">
      <!-- −125 -->
      <g transform="translate(28.532812 376.892135)scale(0.1 -0.1)">
       <defs>
        <path d="M 10.59375 35.5 
L 73.1875 35.5 
L 73.1875 27.203125 
L 10.59375 27.203125 
z
" id="DejaVuSans-8722"/>
       </defs>
       <use xlink:href="#DejaVuSans-8722"/>
       <use x="83.789062" xlink:href="#DejaVuSans-49"/>
       <use x="147.412109" xlink:href="#DejaVuSans-50"/>
       <use x="211.035156" xlink:href="#DejaVuSans-53"/>
      </g>
     </g>
    </g>
    <g id="ytick_2">
     <g id="line2d_7">
      <g>
       <use style="stroke:#000000;stroke-width:0.8;" x="63" xlink:href="#m8313a8cc7b" y="330.673416"/>
      </g>
     </g>
     <g id="text_8">
      <!-- −100 -->
      <g transform="translate(28.532812 334.472635)scale(0.1 -0.1)">
       <use xlink:href="#DejaVuSans-8722"/>
       <use x="83.789062" xlink:href="#DejaVuSans-49"/>
       <use x="147.412109" xlink:href="#DejaVuSans-48"/>
       <use x="211.035156" xlink:href="#DejaVuSans-48"/>
      </g>
     </g>
    </g>
    <g id="ytick_3">
     <g id="line2d_8">
      <g>
       <use style="stroke:#000000;stroke-width:0.8;" x="63" xlink:href="#m8313a8cc7b" y="288.253916"/>
      </g>
     </g>
     <g id="text_9">
      <!-- −75 -->
      <g transform="translate(34.895313 292.053134)scale(0.1 -0.1)">
       <use xlink:href="#DejaVuSans-8722"/>
       <use x="83.789062" xlink:href="#DejaVuSans-55"/>
       <use x="147.412109" xlink:href="#DejaVuSans-53"/>
      </g>
     </g>
    </g>
    <g id="ytick_4">
     <g id="line2d_9">
      <g>
       <use style="stroke:#000000;stroke-width:0.8;" x="63" xlink:href="#m8313a8cc7b" y="245.834416"/>
      </g>
     </g>
     <g id="text_10">
      <!-- −50 -->
      <g transform="translate(34.895313 249.633634)scale(0.1 -0.1)">
       <use xlink:href="#DejaVuSans-8722"/>
       <use x="83.789062" xlink:href="#DejaVuSans-53"/>
       <use x="147.412109" xlink:href="#DejaVuSans-48"/>
      </g>
     </g>
    </g>
    <g id="ytick_5">
     <g id="line2d_10">
      <g>
       <use style="stroke:#000000;stroke-width:0.8;" x="63" xlink:href="#m8313a8cc7b" y="203.414915"/>
      </g>
     </g>
     <g id="text_11">
      <!-- −25 -->
      <g transform="translate(34.895313 207.214134)scale(0.1 -0.1)">
       <use xlink:href="#DejaVuSans-8722"/>
       <use x="83.789062" xlink:href="#DejaVuSans-50"/>
       <use x="147.412109" xlink:href="#DejaVuSans-53"/>
      </g>
     </g>
    </g>
    <g id="ytick_6">
     <g id="line2d_11">
      <g>
       <use style="stroke:#000000;stroke-width:0.8;" x="63" xlink:href="#m8313a8cc7b" y="160.995415"/>
      </g>
     </g>
     <g id="text_12">
      <!-- 0 -->
      <g transform="translate(49.6375 164.794634)scale(0.1 -0.1)">
       <use xlink:href="#DejaVuSans-48"/>
      </g>
     </g>
    </g>
    <g id="ytick_7">
     <g id="line2d_12">
      <g>
       <use style="stroke:#000000;stroke-width:0.8;" x="63" xlink:href="#m8313a8cc7b" y="118.575915"/>
      </g>
     </g>
     <g id="text_13">
      <!-- 25 -->
      <g transform="translate(43.275 122.375134)scale(0.1 -0.1)">
       <use xlink:href="#DejaVuSans-50"/>
       <use x="63.623047" xlink:href="#DejaVuSans-53"/>
      </g>
     </g>
    </g>
    <g id="ytick_8">
     <g id="line2d_13">
      <g>
       <use style="stroke:#000000;stroke-width:0.8;" x="63" xlink:href="#m8313a8cc7b" y="76.156415"/>
      </g>
     </g>
     <g id="text_14">
      <!-- 50 -->
      <g transform="translate(43.275 79.955634)scale(0.1 -0.1)">
       <use xlink:href="#DejaVuSans-53"/>
       <use x="63.623047" xlink:href="#DejaVuSans-48"/>
      </g>
     </g>
    </g>
    <g id="text_15">
     <!-- voltage [mV] -->
     <g transform="translate(22.453125 250.624062)rotate(-90)scale(0.1 -0.1)">
      <defs>
       <path d="M 2.984375 54.6875 
L 12.5 54.6875 
L 29.59375 8.796875 
L 46.6875 54.6875 
L 56.203125 54.6875 
L 35.6875 0 
L 23.484375 0 
z
" id="DejaVuSans-118"/>
       <path d="M 30.609375 48.390625 
Q 23.390625 48.390625 19.1875 42.75 
Q 14.984375 37.109375 14.984375 27.296875 
Q 14.984375 17.484375 19.15625 11.84375 
Q 23.34375 6.203125 30.609375 6.203125 
Q 37.796875 6.203125 41.984375 11.859375 
Q 46.1875 17.53125 46.1875 27.296875 
Q 46.1875 37.015625 41.984375 42.703125 
Q 37.796875 48.390625 30.609375 48.390625 
z
M 30.609375 56 
Q 42.328125 56 49.015625 48.375 
Q 55.71875 40.765625 55.71875 27.296875 
Q 55.71875 13.875 49.015625 6.21875 
Q 42.328125 -1.421875 30.609375 -1.421875 
Q 18.84375 -1.421875 12.171875 6.21875 
Q 5.515625 13.875 5.515625 27.296875 
Q 5.515625 40.765625 12.171875 48.375 
Q 18.84375 56 30.609375 56 
z
" id="DejaVuSans-111"/>
       <path d="M 9.421875 75.984375 
L 18.40625 75.984375 
L 18.40625 0 
L 9.421875 0 
z
" id="DejaVuSans-108"/>
       <path d="M 34.28125 27.484375 
Q 23.390625 27.484375 19.1875 25 
Q 14.984375 22.515625 14.984375 16.5 
Q 14.984375 11.71875 18.140625 8.90625 
Q 21.296875 6.109375 26.703125 6.109375 
Q 34.1875 6.109375 38.703125 11.40625 
Q 43.21875 16.703125 43.21875 25.484375 
L 43.21875 27.484375 
z
M 52.203125 31.203125 
L 52.203125 0 
L 43.21875 0 
L 43.21875 8.296875 
Q 40.140625 3.328125 35.546875 0.953125 
Q 30.953125 -1.421875 24.3125 -1.421875 
Q 15.921875 -1.421875 10.953125 3.296875 
Q 6 8.015625 6 15.921875 
Q 6 25.140625 12.171875 29.828125 
Q 18.359375 34.515625 30.609375 34.515625 
L 43.21875 34.515625 
L 43.21875 35.40625 
Q 43.21875 41.609375 39.140625 45 
Q 35.0625 48.390625 27.6875 48.390625 
Q 23 48.390625 18.546875 47.265625 
Q 14.109375 46.140625 10.015625 43.890625 
L 10.015625 52.203125 
Q 14.9375 54.109375 19.578125 55.046875 
Q 24.21875 56 28.609375 56 
Q 40.484375 56 46.34375 49.84375 
Q 52.203125 43.703125 52.203125 31.203125 
z
" id="DejaVuSans-97"/>
       <path d="M 45.40625 27.984375 
Q 45.40625 37.75 41.375 43.109375 
Q 37.359375 48.484375 30.078125 48.484375 
Q 22.859375 48.484375 18.828125 43.109375 
Q 14.796875 37.75 14.796875 27.984375 
Q 14.796875 18.265625 18.828125 12.890625 
Q 22.859375 7.515625 30.078125 7.515625 
Q 37.359375 7.515625 41.375 12.890625 
Q 45.40625 18.265625 45.40625 27.984375 
z
M 54.390625 6.78125 
Q 54.390625 -7.171875 48.1875 -13.984375 
Q 42 -20.796875 29.203125 -20.796875 
Q 24.46875 -20.796875 20.265625 -20.09375 
Q 16.0625 -19.390625 12.109375 -17.921875 
L 12.109375 -9.1875 
Q 16.0625 -11.328125 19.921875 -12.34375 
Q 23.78125 -13.375 27.78125 -13.375 
Q 36.625 -13.375 41.015625 -8.765625 
Q 45.40625 -4.15625 45.40625 5.171875 
L 45.40625 9.625 
Q 42.625 4.78125 38.28125 2.390625 
Q 33.9375 0 27.875 0 
Q 17.828125 0 11.671875 7.65625 
Q 5.515625 15.328125 5.515625 27.984375 
Q 5.515625 40.671875 11.671875 48.328125 
Q 17.828125 56 27.875 56 
Q 33.9375 56 38.28125 53.609375 
Q 42.625 51.21875 45.40625 46.390625 
L 45.40625 54.6875 
L 54.390625 54.6875 
z
" id="DejaVuSans-103"/>
       <path d="M 28.609375 0 
L 0.78125 72.90625 
L 11.078125 72.90625 
L 34.1875 11.53125 
L 57.328125 72.90625 
L 67.578125 72.90625 
L 39.796875 0 
z
" id="DejaVuSans-86"/>
      </defs>
      <use xlink:href="#DejaVuSans-118"/>
      <use x="59.179688" xlink:href="#DejaVuSans-111"/>
      <use x="120.361328" xlink:href="#DejaVuSans-108"/>
      <use x="148.144531" xlink:href="#DejaVuSans-116"/>
      <use x="187.353516" xlink:href="#DejaVuSans-97"/>
      <use x="248.632812" xlink:href="#DejaVuSans-103"/>
      <use x="312.109375" xlink:href="#DejaVuSans-101"/>
      <use x="373.632812" xlink:href="#DejaVuSans-32"/>
      <use x="405.419922" xlink:href="#DejaVuSans-91"/>
      <use x="444.433594" xlink:href="#DejaVuSans-109"/>
      <use x="541.845703" xlink:href="#DejaVuSans-86"/>
      <use x="610.253906" xlink:href="#DejaVuSans-93"/>
     </g>
    </g>
   </g>
   <g id="line2d_14">
    <path clip-path="url(#p3a6f88fd56)" d="M 80.754545 260.250418 
L 83.385088 260.167567 
L 83.417364 260.084716 
L 83.465779 260.250418 
L 83.498056 260.167567 
L 83.514194 260.250418 
L 83.594885 260.167567 
L 83.723992 260.084716 
L 84.547045 260.167567 
L 84.676151 260.250418 
L 84.96664 260.167567 
L 85.095747 260.084716 
L 85.176438 260.167567 
L 85.208715 260.084716 
L 85.337821 260.167567 
L 85.35396 260.250418 
L 85.402374 260.084716 
L 85.434651 260.084716 
L 86.322257 260.167567 
L 86.451364 260.250418 
L 87.419661 260.333268 
L 87.532629 260.416119 
L 87.581044 260.333268 
L 87.645598 260.416119 
L 88.694587 260.498969 
L 88.807555 260.58182 
L 88.85597 260.498969 
L 89.049629 251.054003 
L 89.501501 242.18899 
L 90.356831 230.672758 
L 91.196022 223.133355 
L 91.470373 221.144941 
L 91.777001 219.073676 
L 92.551639 215.676802 
L 92.583916 215.593952 
L 92.793714 215.096848 
L 92.82599 215.013998 
L 93.11648 214.102641 
L 93.310139 214.019791 
L 93.503799 213.605538 
L 93.552214 213.522687 
L 93.745873 213.108434 
L 93.858841 213.025583 
L 94.020224 212.777032 
L 94.213884 212.694181 
L 94.391405 212.362779 
L 95.843851 212.279928 
L 95.989096 211.948526 
L 96.005234 212.031376 
L 96.118202 211.948526 
L 96.247309 211.865675 
L 96.553936 211.782825 
L 96.683043 211.699974 
L 96.892841 212.197078 
L 96.957394 212.279928 
L 97.167192 212.777032 
L 97.393128 212.694181 
L 97.425404 212.611331 
L 97.506096 212.694181 
L 97.845 212.611331 
L 97.990245 212.445629 
L 98.006383 212.52848 
L 98.03866 212.362779 
L 98.103213 212.445629 
L 98.264596 212.52848 
L 98.296872 212.611331 
L 98.361426 212.445629 
L 98.50667 212.52848 
L 98.538947 212.611331 
L 98.571223 212.445629 
L 98.619638 212.52848 
L 99.119925 212.445629 
L 99.26517 212.279928 
L 99.959117 212.197078 
L 100.055947 212.114227 
L 100.072085 212.197078 
L 100.1205 212.279928 
L 100.362574 213.688388 
L 100.604649 214.351193 
L 100.653063 214.434043 
L 100.733755 214.516894 
L 100.766031 214.434043 
L 100.943553 214.351193 
L 101.056521 214.102641 
L 101.088797 214.185492 
L 101.217904 214.102641 
L 101.395425 213.771239 
L 101.427702 213.854089 
L 101.508393 213.771239 
L 101.556808 213.688388 
L 101.702053 213.522687 
L 101.831159 213.439836 
L 101.960265 213.356986 
L 102.040957 213.439836 
L 102.073233 213.356986 
L 102.153925 213.274135 
L 102.331446 212.942733 
L 102.347584 213.025583 
L 102.379861 212.859882 
L 102.428276 212.942733 
L 102.589659 212.694181 
L 102.718765 212.777032 
L 102.993116 212.694181 
L 103.057669 212.445629 
L 103.122223 212.611331 
L 103.235191 212.694181 
L 103.251329 212.777032 
L 103.33202 212.611331 
L 103.348159 212.694181 
L 103.461127 212.52848 
L 103.477265 212.611331 
L 103.687063 212.52848 
L 103.816169 212.445629 
L 104.09052 212.362779 
L 104.18735 212.279928 
L 104.203488 212.362779 
L 104.38101 212.279928 
L 104.526254 211.948526 
L 104.542393 212.031376 
L 104.639222 211.948526 
L 104.687637 211.865675 
L 104.75219 211.948526 
L 104.897435 211.865675 
L 105.026541 211.782825 
L 105.236339 211.865675 
L 105.317031 211.948526 
L 105.349307 211.865675 
L 106.107807 211.782825 
L 106.123945 211.699974 
L 106.17236 211.865675 
L 106.220775 211.782825 
L 106.882445 211.865675 
L 107.011552 211.948526 
L 107.705498 211.865675 
L 107.737775 211.782825 
L 107.78619 211.948526 
L 107.802328 211.948526 
L 108.383307 211.865675 
L 108.528551 211.699974 
L 108.576966 211.617124 
L 108.706073 211.534273 
L 109.254775 211.451422 
L 109.335466 211.368572 
L 109.367743 211.451422 
L 109.690509 211.368572 
L 109.819615 211.202871 
L 109.916445 211.285721 
L 109.932583 211.202871 
L 110.416732 211.285721 
L 110.561977 211.451422 
L 110.691083 211.368572 
L 111.368891 211.451422 
L 111.530274 211.699974 
L 112.256498 211.782825 
L 112.321051 211.699974 
L 112.385604 211.865675 
L 112.821338 211.948526 
L 112.837476 212.031376 
L 112.869753 211.865675 
L 112.934306 211.948526 
L 113.17638 212.031376 
L 113.337763 212.279928 
L 113.434593 212.362779 
L 113.579838 212.52848 
L 113.789636 212.445629 
L 113.870327 212.362779 
L 113.902604 212.445629 
L 114.160817 212.52848 
L 114.257646 212.611331 
L 114.273785 212.52848 
L 114.386753 212.362779 
L 114.402891 212.445629 
L 114.483582 212.362779 
L 114.580412 212.197078 
L 114.612689 212.279928 
L 114.806348 212.197078 
L 114.935455 212.114227 
L 115.35505 212.031376 
L 115.484157 211.948526 
L 115.532572 212.031376 
L 115.580986 211.948526 
L 115.710093 211.865675 
L 115.839199 211.782825 
L 115.984444 211.617124 
L 116.21038 211.534273 
L 116.339486 211.451422 
L 116.484731 211.368572 
L 116.629976 211.202871 
L 116.710667 211.12002 
L 116.742944 211.037169 
L 116.823635 211.12002 
L 117.017295 211.202871 
L 117.033433 211.285721 
L 117.130263 211.202871 
L 117.259369 211.285721 
L 117.501444 211.948526 
L 117.549858 212.031376 
L 117.743518 212.445629 
L 117.921039 212.52848 
L 118.050146 212.611331 
L 118.647263 212.52848 
L 118.776369 212.445629 
L 119.05072 212.362779 
L 119.131411 212.279928 
L 119.163688 212.362779 
L 119.518731 212.279928 
L 119.663975 212.114227 
L 119.80922 212.031376 
L 119.938326 211.948526 
L 120.002879 212.031376 
L 120.051294 211.948526 
L 120.228815 211.617124 
L 120.438613 211.534273 
L 120.56772 211.451422 
L 120.664549 211.368572 
L 120.696826 211.285721 
L 120.745241 211.451422 
L 120.761379 211.451422 
L 120.858209 211.534273 
L 120.874347 211.451422 
L 121.116422 211.534273 
L 121.261666 211.699974 
L 121.471464 211.617124 
L 121.616709 211.451422 
L 121.778092 211.368572 
L 121.939475 211.12002 
L 122.116996 211.037169 
L 122.246102 210.954319 
L 122.407485 211.202871 
L 122.423624 211.12002 
L 122.520453 211.202871 
L 122.697975 211.12002 
L 122.810943 210.954319 
L 122.827081 211.037169 
L 123.133709 211.12002 
L 123.278953 211.285721 
L 123.553304 211.368572 
L 123.682411 211.534273 
L 123.843794 211.285721 
L 123.924485 211.368572 
L 123.940623 211.451422 
L 124.005177 211.285721 
L 124.021315 211.285721 
L 124.360219 211.202871 
L 124.489325 211.12002 
L 124.682985 211.202871 
L 124.844368 211.451422 
L 125.280102 211.534273 
L 125.360793 211.699974 
L 125.39307 211.617124 
L 125.522176 211.534273 
L 125.764251 211.451422 
L 125.780389 211.368572 
L 125.877219 211.451422 
L 126.038602 211.368572 
L 126.167708 211.285721 
L 126.329091 211.202871 
L 126.458197 211.12002 
L 126.587304 211.202871 
L 126.651857 211.285721 
L 126.700272 211.202871 
L 127.136006 211.12002 
L 127.152144 211.037169 
L 127.232836 211.12002 
L 127.248974 211.202871 
L 127.297389 211.037169 
L 127.329665 211.037169 
L 127.394219 211.12002 
L 127.442633 211.285721 
L 127.507187 211.202871 
L 127.636293 211.12002 
L 127.765399 211.202871 
L 127.975197 211.12002 
L 128.120442 210.954319 
L 128.217272 210.871468 
L 128.346378 210.788618 
L 128.410931 210.705767 
L 128.540038 210.622916 
L 129.08874 210.540066 
L 129.137154 210.457215 
L 129.201708 210.540066 
L 129.605165 210.622916 
L 129.734271 210.705767 
L 129.831101 210.622916 
L 130.024761 210.208664 
L 130.137729 210.125813 
L 130.282973 209.960112 
L 130.525048 209.877261 
L 130.541186 209.794411 
L 130.589601 209.960112 
L 130.621878 209.877261 
L 130.670292 209.960112 
L 130.734846 209.877261 
L 131.07375 209.794411 
L 131.218995 209.628709 
L 132.477782 209.71156 
L 132.606888 209.794411 
L 132.768271 209.71156 
L 132.816686 209.628709 
L 132.881239 209.71156 
L 133.268558 209.794411 
L 133.397664 209.877261 
L 133.413803 209.877261 
L 133.559047 210.291514 
L 133.591324 210.208664 
L 133.639739 210.457215 
L 133.655877 210.374365 
L 133.768845 210.457215 
L 133.962505 210.871468 
L 133.994781 210.954319 
L 134.156164 211.285721 
L 134.285271 211.202871 
L 134.430515 211.285721 
L 134.559622 211.451422 
L 134.688728 211.368572 
L 134.979217 211.285721 
L 135.108324 211.202871 
L 135.33426 211.12002 
L 135.414951 210.954319 
L 135.463366 211.037169 
L 135.818409 210.954319 
L 135.834547 210.871468 
L 135.866824 211.037169 
L 135.931377 210.954319 
L 136.044345 210.871468 
L 136.060483 210.788618 
L 136.157313 210.871468 
L 136.883536 210.788618 
L 137.061057 210.457215 
L 137.174025 210.374365 
L 137.206302 210.291514 
L 137.238579 210.457215 
L 137.270855 210.457215 
L 137.367685 210.374365 
L 137.432238 210.208664 
L 137.480653 210.374365 
L 137.690451 210.291514 
L 137.835696 210.125813 
L 137.98094 210.291514 
L 138.110047 210.208664 
L 138.206876 209.960112 
L 138.255291 210.042962 
L 138.707163 209.960112 
L 138.83627 209.877261 
L 138.900823 209.960112 
L 138.949238 209.877261 
L 139.126759 209.960112 
L 139.255866 210.042962 
L 139.30428 209.960112 
L 139.368834 210.042962 
L 139.772291 209.960112 
L 139.901397 209.794411 
L 139.998227 209.877261 
L 140.014365 209.794411 
L 140.756727 209.71156 
L 140.91811 209.463008 
L 141.047216 209.380158 
L 141.127908 209.297307 
L 141.160184 209.380158 
L 141.434535 210.208664 
L 141.902546 210.125813 
L 142.031652 210.042962 
L 142.14462 209.960112 
L 142.273727 209.877261 
L 142.386695 209.960112 
L 142.515801 209.877261 
L 142.80629 209.794411 
L 142.951535 209.628709 
L 144.339429 209.71156 
L 144.468535 210.042962 
L 144.484673 209.960112 
L 144.581503 209.877261 
L 144.597641 209.960112 
L 144.678333 210.042962 
L 144.823577 210.208664 
L 145.340003 210.125813 
L 145.485247 209.960112 
L 145.64663 209.877261 
L 145.775737 209.794411 
L 146.308301 209.71156 
L 146.388992 209.545859 
L 146.437407 209.628709 
L 147.244322 209.71156 
L 147.26046 209.794411 
L 147.35729 209.71156 
L 147.550949 209.628709 
L 147.680056 209.545859 
L 147.809162 209.628709 
L 147.938268 209.545859 
L 147.970545 209.463008 
L 148.051236 209.545859 
L 148.180343 209.628709 
L 148.325587 209.794411 
L 148.374002 209.71156 
L 148.503109 209.628709 
L 148.632215 209.71156 
L 148.858151 209.628709 
L 148.890428 209.463008 
L 148.987258 209.545859 
L 149.100226 209.628709 
L 149.116364 209.71156 
L 149.164779 209.545859 
L 149.213194 209.628709 
L 149.358438 209.463008 
L 149.697343 209.545859 
L 149.826449 209.628709 
L 149.971694 209.628709 
L 150.00397 209.463008 
L 150.084662 209.545859 
L 150.407427 209.628709 
L 150.601087 210.125813 
L 150.76247 209.877261 
L 151.085236 209.960112 
L 151.149789 210.042962 
L 151.198204 209.960112 
L 151.32731 209.877261 
L 151.343449 209.960112 
L 151.375725 209.794411 
L 151.440278 209.877261 
L 151.811459 209.794411 
L 151.843736 209.71156 
L 151.924427 209.794411 
L 152.424714 209.71156 
L 152.586097 209.463008 
L 152.908863 209.380158 
L 152.94114 209.297307 
L 153.005693 209.463008 
L 153.054108 209.380158 
L 153.070246 209.297307 
L 153.150938 209.463008 
L 153.328459 209.380158 
L 153.360736 209.297307 
L 153.40915 209.380158 
L 153.60281 218.825125 
L 154.054682 227.607287 
L 154.425863 232.992575 
L 154.861597 238.129311 
L 154.990703 239.37207 
L 155.265054 241.940438 
L 155.765342 246.000117 
L 155.991278 247.739979 
L 156.314044 249.976945 
L 156.927299 253.705221 
L 157.137097 254.782279 
L 158.460437 260.996073 
L 158.492713 261.078923 
L 158.815479 262.155981 
L 158.847756 262.238832 
L 159.154383 263.233039 
L 159.18666 263.315889 
L 159.428735 263.978694 
L 159.461011 264.061545 
L 159.735362 264.89005 
L 159.816054 264.972901 
L 160.025851 265.470005 
L 160.058128 265.552855 
L 160.284064 266.132809 
L 160.348617 266.21566 
L 160.542277 266.629913 
L 160.60683 266.712763 
L 160.80049 267.209867 
L 160.816628 267.127016 
L 160.865043 267.292717 
L 160.897319 267.292717 
L 160.978011 267.375568 
L 161.139394 267.62412 
L 161.300777 267.70697 
L 161.478298 268.038373 
L 161.526713 267.955522 
L 161.591266 268.038373 
L 161.752649 268.286924 
L 161.897894 268.369775 
L 162.043138 268.535476 
L 162.091553 268.618327 
L 162.236798 268.784028 
L 162.285213 268.866879 
L 162.317489 268.949729 
L 162.398181 268.866879 
L 162.462734 268.949729 
L 162.607979 269.11543 
L 162.995298 269.198281 
L 163.124404 269.281132 
L 163.318064 269.363982 
L 163.431032 269.529683 
L 163.44717 269.446833 
L 163.527861 269.529683 
L 163.656968 269.612534 
L 163.931319 269.695384 
L 164.060425 269.778235 
L 164.544574 269.695384 
L 164.625266 269.612534 
L 164.657542 269.695384 
L 165.997021 269.612534 
L 166.126127 269.446833 
L 166.206818 269.529683 
L 166.239095 269.446833 
L 166.432755 269.363982 
L 166.577999 269.198281 
L 166.900765 269.11543 
L 167.029872 269.03258 
L 167.304223 268.949729 
L 167.465606 268.701177 
L 167.659265 268.618327 
L 167.788371 268.535476 
L 168.014308 268.452626 
L 168.175691 268.204074 
L 168.191829 268.286924 
L 168.288659 268.204074 
L 168.450042 268.121223 
L 168.56301 268.038373 
L 168.579148 268.121223 
L 168.627563 267.955522 
L 168.659839 267.955522 
L 168.837361 267.872672 
L 168.853499 267.789821 
L 168.885775 267.955522 
L 168.950329 267.872672 
L 169.12785 267.789821 
L 169.273095 267.62412 
L 169.418339 267.541269 
L 169.499031 267.458419 
L 169.611999 260.996073 
L 169.708829 261.078923 
L 169.724967 261.161774 
L 169.821797 261.078923 
L 170.951477 261.161774 
L 170.967616 261.244625 
L 171.064445 261.161774 
L 171.790669 261.244625 
L 171.822945 261.327475 
L 171.903637 261.244625 
L 172.048881 261.078923 
L 172.177988 261.161774 
L 172.387786 261.078923 
L 172.516892 260.996073 
L 173.162424 260.913222 
L 173.307668 260.747521 
L 174.518041 260.830372 
L 174.647147 260.913222 
L 175.115157 260.996073 
L 175.147434 261.078923 
L 175.228126 260.996073 
L 175.389508 261.078923 
L 175.405647 261.161774 
L 175.502477 261.078923 
L 175.615445 261.161774 
L 175.712274 261.244625 
L 175.728413 261.161774 
L 175.954349 261.244625 
L 176.083455 261.327475 
L 176.099593 261.244625 
L 176.180285 261.410326 
L 176.196423 261.327475 
L 176.664434 261.244625 
L 176.79354 261.161774 
L 176.938785 261.078923 
L 177.019476 261.161774 
L 177.067891 260.996073 
L 177.213136 261.078923 
L 177.293827 261.161774 
L 177.326104 261.078923 
L 177.616593 261.078923 
L 177.810253 248.734186 
L 178.391231 234.235334 
L 179.149731 220.896389 
L 179.82754 212.114227 
L 180.39238 207.391744 
L 180.924944 205.237628 
L 180.95722 205.154778 
L 181.15088 204.740525 
L 181.312263 204.657674 
L 181.522061 204.160571 
L 181.538199 204.160571 
L 181.683444 203.746318 
L 181.764135 203.663467 
L 181.90938 203.497766 
L 182.328975 203.414915 
L 182.522635 203.000663 
L 182.66788 202.917812 
L 182.861539 202.503559 
L 182.926092 202.58641 
L 182.974507 202.66926 
L 183.03906 202.58641 
L 183.103614 202.503559 
L 183.264997 202.255007 
L 183.313411 202.172157 
L 183.539348 201.592203 
L 183.620039 201.509352 
L 183.829837 201.012248 
L 183.89439 200.929398 
L 184.184879 200.018041 
L 184.233294 200.100892 
L 184.297847 200.018041 
L 184.539922 199.355237 
L 184.814273 199.272386 
L 184.927241 198.775283 
L 184.991794 198.940984 
L 185.072486 198.858133 
L 185.250007 198.278179 
L 185.282283 198.36103 
L 185.346837 198.278179 
L 185.669602 197.201122 
L 185.718017 197.118271 
L 186.411964 192.975742 
L 186.428102 192.478638 
L 186.444241 187.341902 
L 186.492656 74.747955 
L 186.573347 133.654722 
L 186.73473 200.597996 
L 186.944528 202.752111 
L 188.05807 213.191285 
L 188.074208 213.191285 
L 188.25173 213.93694 
L 188.477666 214.516894 
L 188.526081 214.599745 
L 188.752017 215.179699 
L 188.800432 215.262549 
L 188.961815 215.511101 
L 189.026368 215.42825 
L 189.058644 215.511101 
L 189.187751 215.593952 
L 189.720315 215.511101 
L 189.865559 215.3454 
L 190.091495 215.262549 
L 190.23674 215.096848 
L 190.285155 215.013998 
L 190.414261 214.848296 
L 190.4304 214.931147 
L 190.494953 214.765446 
L 190.511091 214.765446 
L 190.591783 214.682595 
L 190.720889 214.599745 
L 190.89841 214.516894 
L 191.027516 214.434043 
L 191.140485 214.351193 
L 191.301868 214.102641 
L 191.46325 214.019791 
L 191.640772 213.688388 
L 192.205612 213.605538 
L 192.366995 213.356986 
L 192.463825 213.274135 
L 192.625208 212.942733 
L 192.754314 213.025583 
L 192.835006 212.942733 
L 192.899559 212.859882 
L 192.947974 212.942733 
L 193.238463 212.859882 
L 193.383708 212.694181 
L 193.512814 212.611331 
L 193.658059 212.445629 
L 193.787165 212.52848 
L 193.964686 212.197078 
L 194.013101 212.279928 
L 194.061516 212.114227 
L 194.448835 212.031376 
L 194.59408 211.865675 
L 194.723186 211.782825 
L 194.900707 211.451422 
L 194.981399 211.368572 
L 195.126643 211.202871 
L 195.271888 211.12002 
L 195.35258 210.954319 
L 195.400994 211.037169 
L 195.465548 210.954319 
L 195.610792 210.788618 
L 195.885143 210.705767 
L 196.01425 210.622916 
L 196.094941 210.540066 
L 196.256324 210.208664 
L 196.353154 210.291514 
L 196.369292 210.208664 
L 196.708196 210.125813 
L 196.837303 210.042962 
L 196.950271 210.125813 
L 196.982547 210.042962 
L 197.063239 210.125813 
L 197.14393 210.042962 
L 197.160069 209.960112 
L 197.224622 210.125813 
L 197.24076 210.125813 
L 197.402143 210.208664 
L 197.579664 210.705767 
L 197.595803 210.622916 
L 197.644218 210.705767 
L 197.821739 211.037169 
L 197.854015 210.954319 
L 197.934707 211.037169 
L 197.966983 211.12002 
L 198.112228 211.285721 
L 198.467271 211.202871 
L 198.483409 211.12002 
L 198.580239 211.202871 
L 198.644792 211.12002 
L 198.822313 210.788618 
L 199.032111 210.705767 
L 199.209632 210.374365 
L 199.241909 210.457215 
L 199.306462 210.291514 
L 199.500121 209.877261 
L 199.629228 209.960112 
L 199.790611 209.877261 
L 199.951994 209.628709 
L 200.032685 209.545859 
L 200.161792 209.463008 
L 200.532972 209.380158 
L 200.662079 209.131606 
L 200.678217 209.214457 
L 200.807323 209.131606 
L 200.968706 208.883054 
L 201.065536 208.800204 
L 201.226919 208.551652 
L 201.372164 208.468801 
L 201.50127 208.385951 
L 201.646515 208.3031 
L 201.807898 208.054548 
L 201.856313 208.137399 
L 201.985419 208.220249 
L 202.146802 207.971698 
L 202.275908 208.054548 
L 202.3566 207.971698 
L 202.517983 207.723146 
L 202.582536 207.640295 
L 202.727781 207.391744 
L 202.743919 207.474594 
L 202.776195 207.308893 
L 202.82461 207.308893 
L 203.034408 207.226042 
L 203.179653 207.060341 
L 203.550834 207.143192 
L 203.67994 207.226042 
L 203.77677 207.308893 
L 203.905876 207.391744 
L 204.632099 207.308893 
L 204.777344 207.143192 
L 204.858035 207.060341 
L 204.987142 206.977491 
L 205.116248 207.143192 
L 205.164663 207.060341 
L 205.19694 207.226042 
L 205.229216 207.143192 
L 205.358323 207.391744 
L 205.374461 207.308893 
L 206.052269 207.391744 
L 206.213652 207.640295 
L 206.455727 207.723146 
L 206.61711 207.971698 
L 206.762354 208.054548 
L 206.907599 208.220249 
L 207.343333 208.137399 
L 207.359471 208.054548 
L 207.456301 208.137399 
L 207.472439 208.220249 
L 207.569269 208.137399 
L 207.666099 208.220249 
L 207.682237 208.3031 
L 207.779067 208.220249 
L 208.021141 208.137399 
L 208.182524 207.888847 
L 208.230939 207.805997 
L 208.40846 207.474594 
L 208.60212 207.391744 
L 208.731226 207.308893 
L 208.989439 207.226042 
L 209.118545 207.143192 
L 209.215375 207.060341 
L 209.36062 206.89464 
L 209.538141 206.81179 
L 209.731801 206.397537 
L 210.038428 206.314686 
L 210.183673 206.148985 
L 210.232088 206.231835 
L 210.393471 206.480387 
L 211.055141 206.397537 
L 211.232662 206.066134 
L 211.297215 206.148985 
L 211.329492 206.066134 
L 211.474737 205.900433 
L 211.652258 205.817582 
L 211.749088 205.734732 
L 211.765226 205.817582 
L 211.813641 205.734732 
L 211.958885 205.569031 
L 212.023439 205.48618 
L 212.039577 205.40333 
L 212.087992 205.569031 
L 212.120268 205.569031 
L 212.217098 205.651881 
L 212.362343 205.817582 
L 212.410758 205.734732 
L 212.475311 205.569031 
L 212.523726 205.734732 
L 212.588279 205.651881 
L 212.636694 205.569031 
L 212.685109 205.651881 
L 212.86263 205.983284 
L 213.185396 205.900433 
L 213.217672 205.817582 
L 213.266087 205.983284 
L 213.282226 205.983284 
L 213.556577 205.900433 
L 213.653406 205.817582 
L 213.669545 205.900433 
L 213.814789 205.817582 
L 214.008449 205.40333 
L 214.056864 205.320479 
L 214.073002 205.237628 
L 214.169832 205.320479 
L 214.2828 205.237628 
L 214.411906 205.154778 
L 214.589427 205.071927 
L 214.734672 204.906226 
L 214.84764 204.989077 
L 214.879917 205.071927 
L 214.928332 204.906226 
L 214.94447 204.906226 
L 215.202683 204.823375 
L 215.331789 204.740525 
L 215.460895 204.823375 
L 215.751385 204.906226 
L 215.767523 204.989077 
L 215.864353 204.906226 
L 216.058012 204.491973 
L 216.138704 204.409123 
L 216.300087 204.07772 
L 216.380778 204.160571 
L 216.413055 204.07772 
L 216.542161 203.99487 
L 216.687406 203.829168 
L 216.92948 203.746318 
L 216.977895 203.663467 
L 217.02631 203.746318 
L 217.042448 203.829168 
L 217.139278 203.746318 
L 217.704118 203.829168 
L 217.833225 203.912019 
L 217.849363 203.829168 
L 217.946193 203.912019 
L 218.204406 203.912019 
L 218.34965 204.326272 
L 218.656278 204.243421 
L 218.785384 204.160571 
L 218.962905 204.243421 
L 219.027459 204.160571 
L 219.075874 204.326272 
L 219.20498 204.243421 
L 219.414778 204.326272 
L 219.576161 204.574824 
L 219.915065 204.657674 
L 220.157139 205.320479 
L 220.270107 205.40333 
L 220.350799 205.569031 
L 220.399214 205.48618 
L 220.496044 205.40333 
L 220.62515 205.320479 
L 220.818809 205.40333 
L 220.834948 205.48618 
L 220.931777 205.40333 
L 221.125437 205.320479 
L 221.254543 205.237628 
L 221.319097 205.154778 
L 221.464341 204.989077 
L 221.722554 204.906226 
L 221.867799 204.740525 
L 221.900075 204.740525 
L 222.029182 204.409123 
L 222.077596 204.326272 
L 222.158288 204.07772 
L 222.222841 204.160571 
L 222.739267 204.07772 
L 222.900649 203.829168 
L 223.013618 203.746318 
L 223.158862 203.497766 
L 223.175001 203.580617 
L 223.239554 203.414915 
L 223.255692 203.497766 
L 223.449352 203.083513 
L 223.626873 203.000663 
L 223.852809 202.420708 
L 223.981915 202.337858 
L 224.046468 202.172157 
L 224.094883 202.255007 
L 224.272405 202.58641 
L 224.320819 202.503559 
L 224.385373 202.420708 
L 224.433788 202.503559 
L 224.514479 202.66926 
L 224.562894 202.58641 
L 224.692 202.66926 
L 224.853383 202.917812 
L 225.127734 202.834961 
L 225.256841 202.752111 
L 225.289117 202.834961 
L 225.305255 202.917812 
L 225.35367 202.752111 
L 225.385947 202.752111 
L 225.54733 202.834961 
L 225.692575 203.000663 
L 225.740989 202.917812 
L 225.886234 202.752111 
L 226.063755 202.66926 
L 226.338106 201.840754 
L 226.547904 201.923605 
L 226.580181 202.006456 
L 226.628596 201.840754 
L 226.644734 201.840754 
L 226.725425 201.757904 
L 226.87067 201.592203 
L 226.886808 201.675053 
L 226.9675 201.509352 
L 226.983638 201.592203 
L 227.06433 201.675053 
L 227.096606 201.757904 
L 227.161159 201.592203 
L 227.403234 201.592203 
L 227.53234 201.2608 
L 227.661447 201.17795 
L 227.677585 201.095099 
L 227.758276 201.17795 
L 227.855106 201.343651 
L 227.887383 201.2608 
L 228.048766 201.17795 
L 228.097181 201.095099 
L 228.161734 201.17795 
L 228.419946 201.095099 
L 228.597468 200.763697 
L 228.823404 200.680846 
L 228.871819 200.515145 
L 228.936372 200.680846 
L 229.081617 200.597996 
L 229.259138 200.266593 
L 229.307553 200.183743 
L 229.468936 199.935191 
L 229.630319 200.018041 
L 229.646457 200.100892 
L 229.71101 199.935191 
L 229.727148 199.935191 
L 230.082191 199.85234 
L 230.098329 199.76949 
L 230.162882 199.935191 
L 230.179021 199.935191 
L 230.905244 199.85234 
L 231.195733 198.940984 
L 231.22801 198.858133 
L 231.421669 198.44388 
L 231.453946 198.36103 
L 231.954233 196.372616 
L 231.970371 196.455466 
L 232.034925 196.206914 
L 232.164031 194.384202 
L 232.180169 191.31873 
L 232.244722 73.836599 
L 232.309276 128.849388 
L 232.470659 199.686639 
L 232.535212 200.349444 
L 232.599765 200.183743 
L 232.74501 199.935191 
L 233.051637 202.089306 
L 233.551924 206.231835 
L 233.584201 206.314686 
L 233.826275 207.723146 
L 234.520222 210.705767 
L 234.584775 210.788618 
L 234.794573 211.285721 
L 234.842988 211.368572 
L 235.036647 211.782825 
L 235.101201 211.865675 
L 235.262584 212.114227 
L 235.359413 212.197078 
L 235.520796 212.445629 
L 235.601488 212.52848 
L 235.746732 212.694181 
L 235.908115 212.777032 
L 236.037222 212.859882 
L 236.117913 212.942733 
L 236.263158 213.191285 
L 236.279296 213.108434 
L 236.359988 213.274135 
L 236.521371 213.522687 
L 236.876413 213.439836 
L 237.005519 213.274135 
L 237.070073 213.439836 
L 237.118488 213.356986 
L 237.247594 213.274135 
L 237.392839 213.191285 
L 237.538083 213.025583 
L 237.57036 213.108434 
L 237.634913 213.025583 
L 237.812434 212.694181 
L 237.860849 212.611331 
L 238.006094 212.445629 
L 238.167477 212.362779 
L 238.312721 212.197078 
L 238.474104 212.114227 
L 238.619349 211.948526 
L 238.829147 211.865675 
L 238.974392 211.699974 
L 239.103498 211.617124 
L 239.264881 211.368572 
L 239.329434 211.285721 
L 239.490817 211.037169 
L 239.732891 210.954319 
L 239.861998 210.871468 
L 240.152487 210.788618 
L 240.281593 210.705767 
L 240.378423 210.788618 
L 240.394561 210.705767 
L 240.572083 210.622916 
L 240.701189 210.540066 
L 240.959402 210.457215 
L 241.104646 210.291514 
L 241.459689 210.208664 
L 241.604934 210.042962 
L 241.717902 209.960112 
L 241.879285 209.71156 
L 242.169774 209.71156 
L 242.363433 221.807746 
L 242.799167 231.832667 
L 243.234901 238.543564 
L 243.654497 243.431749 
L 243.783603 244.674507 
L 244.396859 249.894094 
L 244.638933 251.716807 
L 244.961699 253.953773 
L 246.494837 261.244625 
L 246.55939 261.327475 
L 246.946709 262.735935 
L 246.978986 262.818786 
L 247.237199 263.564441 
L 247.269475 263.647292 
L 247.527688 264.392947 
L 247.592241 264.475798 
L 247.834316 265.138602 
L 247.850454 265.138602 
L 247.995699 265.635706 
L 248.011837 265.552855 
L 248.060252 265.718556 
L 248.092528 265.718556 
L 248.302326 266.21566 
L 248.366879 266.29851 
L 248.576677 266.795614 
L 248.657369 266.878465 
L 248.83489 267.209867 
L 248.996273 267.292717 
L 249.173794 267.62412 
L 249.238347 267.70697 
L 249.383592 267.872672 
L 249.544975 267.955522 
L 249.706358 268.204074 
L 249.819326 268.286924 
L 249.980709 268.535476 
L 250.303475 268.618327 
L 250.416443 268.784028 
L 250.432581 268.701177 
L 250.513273 268.784028 
L 250.610102 268.949729 
L 250.642379 268.866879 
L 250.884453 268.949729 
L 251.01356 269.03258 
L 251.255634 269.11543 
L 251.271772 269.198281 
L 251.352464 269.03258 
L 251.497709 269.11543 
L 251.626815 269.198281 
L 252.43373 269.11543 
L 252.562836 268.949729 
L 252.691942 269.11543 
L 252.837187 268.949729 
L 252.934017 268.866879 
L 252.99857 268.784028 
L 253.046985 268.866879 
L 253.611825 268.784028 
L 253.75707 268.618327 
L 254.273495 268.535476 
L 254.41874 268.369775 
L 254.499431 268.452626 
L 254.531708 268.369775 
L 254.773783 268.286924 
L 254.789921 268.204074 
L 254.838336 268.369775 
L 254.886751 268.286924 
L 255.354761 268.204074 
L 255.483867 268.121223 
L 255.709804 268.038373 
L 255.83891 267.955522 
L 256.000293 267.872672 
L 256.129399 267.70697 
L 256.258506 267.789821 
L 256.387612 267.70697 
L 256.50058 267.62412 
L 256.645825 267.458419 
L 256.968591 267.375568 
L 257.097697 267.292717 
L 257.129974 267.209867 
L 257.275218 267.044166 
L 257.517293 266.961315 
L 257.646399 266.878465 
L 258.01758 266.795614 
L 258.146686 266.629913 
L 258.162824 266.712763 
L 258.259654 266.629913 
L 258.372622 261.824579 
L 259.647548 261.907429 
L 259.679824 261.99028 
L 259.760516 261.907429 
L 260.244665 261.824579 
L 260.276941 261.658878 
L 260.357633 261.824579 
L 261.42276 261.907429 
L 261.471175 261.99028 
L 261.51959 261.824579 
L 261.535728 261.907429 
L 262.616994 261.824579 
L 262.649271 261.741728 
L 262.729962 261.824579 
L 263.230249 261.907429 
L 263.359356 261.99028 
L 264.392206 262.073131 
L 264.521313 262.155981 
L 266.377217 262.155981 
L 266.570876 243.59745 
L 267.151855 221.807746 
L 268.265397 196.041213 
L 268.507472 193.307144 
L 268.846376 187.424752 
L 268.910929 73.505196 
L 268.991621 146.08231 
L 269.153004 200.432294 
L 269.18528 200.680846 
L 269.233695 200.349444 
L 269.395078 199.686639 
L 269.653291 200.432294 
L 269.75012 200.515145 
L 269.959918 201.012248 
L 270.072886 201.095099 
L 270.153578 201.2608 
L 270.201993 201.17795 
L 270.282684 201.2608 
L 270.395652 201.426501 
L 270.411791 201.343651 
L 270.573173 201.2608 
L 270.621588 201.17795 
L 270.653865 201.2608 
L 270.782971 201.509352 
L 270.79911 201.592203 
L 270.879801 201.509352 
L 271.025046 201.343651 
L 271.154152 201.426501 
L 271.218705 201.592203 
L 271.26712 201.509352 
L 271.428503 201.17795 
L 271.444641 201.2608 
L 271.525333 201.17795 
L 271.670578 201.012248 
L 271.735131 200.929398 
L 271.944929 200.432294 
L 272.02562 200.349444 
L 272.283833 199.520938 
L 272.299971 199.603789 
L 272.396801 199.520938 
L 272.445216 199.520938 
L 272.59046 199.106685 
L 272.832535 198.44388 
L 272.88095 198.36103 
L 273.139162 197.615374 
L 273.332822 197.698225 
L 273.510343 198.029627 
L 273.558758 198.112478 
L 273.704003 198.278179 
L 273.800833 198.36103 
L 273.865386 198.44388 
L 273.897662 198.278179 
L 273.913801 198.36103 
L 274.059045 197.946777 
L 274.220428 197.698225 
L 274.268843 197.615374 
L 274.543194 196.538317 
L 274.575471 196.621167 
L 274.86596 196.538317 
L 274.946651 196.372616 
L 274.96279 196.455466 
L 275.043481 196.538317 
L 275.075758 196.455466 
L 275.172588 196.372616 
L 275.366247 195.958363 
L 275.495354 195.875512 
L 275.753566 194.964156 
L 275.769705 195.047006 
L 275.834258 194.964156 
L 276.076332 194.301351 
L 276.140885 194.467052 
L 276.173162 194.301351 
L 276.544343 192.892891 
L 276.560481 192.975742 
L 276.608896 192.644339 
L 276.689587 192.561489 
L 277.060768 190.075971 
L 277.286704 187.010499 
L 277.351257 70.936828 
L 277.431949 133.737572 
L 277.593332 197.366823 
L 277.754715 198.609581 
L 278.255002 201.757904 
L 278.480938 203.000663 
L 278.868257 204.574824 
L 278.884396 204.491973 
L 278.916672 204.574824 
L 279.094193 204.906226 
L 279.158747 204.989077 
L 279.336268 205.320479 
L 279.69131 205.237628 
L 279.852693 204.989077 
L 280.014076 204.906226 
L 280.240012 204.326272 
L 280.54664 204.243421 
L 280.675746 204.160571 
L 280.804853 204.07772 
L 280.820991 203.99487 
L 280.885544 204.160571 
L 280.917821 204.07772 
L 281.079204 203.99487 
L 281.20831 203.912019 
L 281.563353 203.829168 
L 281.708597 203.580617 
L 281.837704 203.663467 
L 282.031363 203.580617 
L 282.160469 203.497766 
L 282.225023 203.580617 
L 282.257299 203.414915 
L 282.273438 203.497766 
L 282.418682 203.332065 
L 282.483235 203.249214 
L 282.644618 203.000663 
L 282.693033 203.083513 
L 282.773725 203.166364 
L 282.806001 203.083513 
L 282.951246 203.000663 
L 283.128767 202.66926 
L 283.499948 202.58641 
L 283.645193 202.420708 
L 283.903405 202.337858 
L 284.097065 201.923605 
L 284.161618 201.840754 
L 284.306863 201.509352 
L 284.323001 201.592203 
L 284.371416 201.509352 
L 284.548937 201.17795 
L 284.597352 201.095099 
L 284.758735 200.680846 
L 284.774873 200.763697 
L 284.871703 200.680846 
L 285.033086 200.432294 
L 285.065363 200.349444 
L 285.27516 199.85234 
L 285.307437 199.76949 
L 285.452682 199.603789 
L 285.484958 199.520938 
L 285.662479 199.106685 
L 285.678618 199.189536 
L 285.743171 199.023834 
L 285.759309 199.023834 
L 285.823862 198.940984 
L 286.001384 198.609581 
L 286.082075 198.692432 
L 286.114352 198.609581 
L 286.146628 198.526731 
L 286.308011 198.195329 
L 286.453256 198.36103 
L 286.517809 198.278179 
L 286.550086 198.195329 
L 286.614639 198.36103 
L 286.630777 198.278179 
L 286.969681 198.195329 
L 287.001958 198.112478 
L 287.082649 198.195329 
L 287.486107 198.112478 
L 287.631352 197.946777 
L 287.776596 197.863926 
L 288.083224 196.869719 
L 288.341436 196.786869 
L 288.486681 196.455466 
L 288.502819 196.538317 
L 288.535096 196.621167 
L 288.567373 196.704018 
L 288.631926 196.538317 
L 288.728756 196.455466 
L 288.954692 195.875512 
L 289.003107 195.958363 
L 289.16449 196.289765 
L 289.212904 196.206914 
L 289.261319 196.372616 
L 289.600224 196.289765 
L 289.745468 195.792662 
L 289.793883 195.709811 
L 289.922989 195.62696 
L 289.987543 195.54411 
L 290.342585 194.2185 
L 290.358723 194.301351 
L 290.391 194.13565 
L 290.455553 194.2185 
L 290.568521 194.052799 
L 290.58466 194.13565 
L 290.681489 194.052799 
L 290.859011 193.721397 
L 290.907425 193.638546 
L 291.068808 193.389995 
L 291.133362 193.307144 
L 291.375436 192.644339 
L 291.423851 192.561489 
L 292.053244 188.833212 
L 292.101659 185.933442 
L 292.166212 71.26823 
L 292.230766 121.807088 
L 292.408287 196.786869 
L 292.553532 197.449673 
L 292.634223 197.532524 
L 293.392723 200.846547 
L 293.424999 200.929398 
L 293.812319 202.337858 
L 293.876872 202.420708 
L 294.118946 203.083513 
L 294.248053 203.166364 
L 294.377159 203.332065 
L 294.506265 203.249214 
L 294.667648 203.332065 
L 294.829031 203.580617 
L 294.877446 203.663467 
L 295.006552 203.746318 
L 295.11952 203.829168 
L 295.21635 203.912019 
L 295.232489 203.829168 
L 295.490701 203.746318 
L 295.652084 203.497766 
L 295.700499 203.414915 
L 295.87802 203.083513 
L 295.990988 203.000663 
L 296.152371 202.752111 
L 296.216925 202.66926 
L 296.394446 202.337858 
L 296.555829 202.255007 
L 296.571967 202.172157 
L 296.652659 202.255007 
L 296.862456 202.752111 
L 297.29819 202.66926 
L 297.475712 202.337858 
L 297.669371 202.255007 
L 297.879169 201.757904 
L 297.911446 201.675053 
L 298.072828 201.426501 
L 298.121243 201.343651 
L 298.282626 201.095099 
L 298.34718 201.012248 
L 298.556977 200.515145 
L 298.686084 200.432294 
L 298.976573 199.520938 
L 299.057265 199.438087 
L 299.299339 198.775283 
L 299.912594 198.692432 
L 300.090115 198.36103 
L 300.380605 198.278179 
L 300.509711 198.195329 
L 300.606541 198.112478 
L 300.703371 198.029627 
L 300.719509 198.112478 
L 300.8002 198.029627 
L 300.913168 197.946777 
L 300.945445 198.029627 
L 300.977722 197.863926 
L 301.009998 197.863926 
L 301.042275 197.863926 
L 301.171381 197.532524 
L 301.268211 197.449673 
L 301.413456 197.283972 
L 301.478009 197.366823 
L 301.510285 197.283972 
L 301.639392 197.118271 
L 301.703945 197.283972 
L 301.768498 197.201122 
L 301.816913 197.283972 
L 301.946019 197.366823 
L 302.139679 197.449673 
L 302.284924 197.698225 
L 302.397892 197.615374 
L 302.51086 197.698225 
L 302.672243 197.283972 
L 302.688381 197.366823 
L 302.849764 197.283972 
L 303.043423 196.869719 
L 303.091838 196.786869 
L 303.285498 196.372616 
L 303.333913 196.289765 
L 303.511434 195.958363 
L 303.608264 195.875512 
L 303.769647 195.62696 
L 303.963306 195.54411 
L 304.092413 195.212707 
L 304.156966 195.129857 
L 304.30221 194.798455 
L 304.318349 194.881305 
L 304.479732 194.798455 
L 304.608838 194.467052 
L 304.641115 194.549903 
L 304.721806 194.549903 
L 304.818636 194.2185 
L 304.850912 194.301351 
L 304.899327 194.301351 
L 305.06071 193.555696 
L 305.109125 193.638546 
L 305.141402 193.389995 
L 305.15754 193.472845 
L 305.189817 193.389995 
L 305.399615 192.892891 
L 305.464168 192.81004 
L 305.81921 191.567282 
L 305.835348 191.567282 
L 306.093561 189.91027 
L 306.125838 189.827419 
L 306.335636 187.010499 
L 306.351774 186.016292 
L 306.416327 71.682483 
L 306.497019 133.986124 
L 306.658402 196.372616 
L 306.739093 197.03542 
L 306.787508 196.869719 
L 306.965029 196.538317 
L 307.207104 196.621167 
L 307.836497 199.272386 
L 307.868774 199.355237 
L 308.062433 199.76949 
L 308.110848 199.85234 
L 308.304508 200.763697 
L 308.482029 201.095099 
L 308.788657 201.012248 
L 308.885486 200.929398 
L 308.901625 201.012248 
L 309.095284 201.095099 
L 309.22439 201.2608 
L 309.353497 201.17795 
L 309.466465 201.2608 
L 309.579433 201.343651 
L 309.740816 201.095099 
L 310.111997 201.17795 
L 310.257241 201.343651 
L 310.434763 201.2608 
L 310.596146 201.012248 
L 310.967326 200.929398 
L 311.112571 200.763697 
L 311.160986 200.680846 
L 311.419199 199.935191 
L 311.548305 199.85234 
L 311.725826 199.520938 
L 311.919486 199.438087 
L 312.048592 199.355237 
L 312.306805 199.272386 
L 312.484326 198.940984 
L 312.532741 198.858133 
L 312.710262 198.526731 
L 312.903922 198.44388 
L 313.065305 198.195329 
L 313.178273 198.112478 
L 313.323517 197.946777 
L 313.67856 197.863926 
L 313.743113 197.946777 
L 313.856081 197.532524 
L 314.162709 197.449673 
L 314.275677 197.366823 
L 314.404783 197.449673 
L 314.646858 196.786869 
L 314.743687 196.704018 
L 314.856655 196.455466 
L 314.888932 196.538317 
L 314.985762 196.455466 
L 315.19556 195.958363 
L 315.260113 195.875512 
L 315.437634 195.54411 
L 315.631294 195.461259 
L 315.776538 195.295558 
L 315.905645 195.212707 
L 315.937921 195.129857 
L 315.986336 195.295558 
L 316.228411 196.786869 
L 316.260687 196.869719 
L 316.42207 197.449673 
L 316.631868 198.029627 
L 316.777113 197.863926 
L 317.116017 197.781076 
L 317.2774 197.532524 
L 317.422644 197.698225 
L 317.713134 197.615374 
L 317.84224 197.532524 
L 317.874517 197.449673 
L 318.229559 196.206914 
L 318.310251 196.124064 
L 318.826676 194.052799 
L 318.891229 193.969949 
L 319.213995 192.892891 
L 319.310825 192.892891 
L 319.472208 192.312937 
L 319.633591 190.987328 
L 319.859527 187.590454 
L 319.891804 131.832009 
L 319.92408 72.759541 
L 319.988633 111.947868 
L 320.166155 194.384202 
L 320.246846 195.129857 
L 320.295261 194.881305 
L 320.359814 194.964156 
L 320.569612 195.461259 
L 320.58575 195.378409 
L 320.618027 195.54411 
L 320.666442 195.54411 
L 320.843963 195.875512 
L 320.892378 195.958363 
L 321.311974 197.532524 
L 321.360388 197.615374 
L 321.554048 198.029627 
L 321.699293 198.112478 
L 321.844537 198.278179 
L 321.941367 198.36103 
L 322.118888 198.692432 
L 322.29641 198.775283 
L 322.441654 199.023834 
L 322.473931 198.940984 
L 322.538484 199.023834 
L 322.699867 199.272386 
L 322.716005 199.189536 
L 322.780558 199.355237 
L 323.022633 200.018041 
L 323.652026 199.935191 
L 323.764994 199.76949 
L 323.781133 199.85234 
L 323.877963 199.76949 
L 324.023207 199.438087 
L 324.039345 199.520938 
L 324.152314 199.438087 
L 324.168452 199.355237 
L 324.233005 199.603789 
L 324.249143 199.520938 
L 324.265282 199.603789 
L 324.329835 199.438087 
L 324.345973 199.438087 
L 324.475079 199.355237 
L 324.701016 199.438087 
L 324.830122 199.603789 
L 324.894675 199.520938 
L 324.94309 199.603789 
L 325.685452 199.520938 
L 325.846835 199.272386 
L 325.911388 199.189536 
L 326.040494 199.106685 
L 326.185739 199.023834 
L 326.379398 198.609581 
L 326.395537 198.609581 
L 326.540781 198.195329 
L 326.589196 198.112478 
L 326.798994 197.615374 
L 326.9281 197.532524 
L 327.073345 197.283972 
L 327.089483 197.366823 
L 327.12176 197.201122 
L 327.154036 197.201122 
L 327.299281 197.03542 
L 327.412249 197.118271 
L 327.525217 197.03542 
L 327.573632 197.118271 
L 327.605909 196.95257 
L 327.622047 197.03542 
L 327.751153 196.95257 
L 327.78343 196.869719 
L 327.960951 196.538317 
L 328.186887 196.455466 
L 328.428962 195.792662 
L 328.493515 195.792662 
L 328.622621 195.295558 
L 328.63876 195.378409 
L 328.961525 195.461259 
L 328.977664 195.54411 
L 329.00994 195.378409 
L 329.058355 195.378409 
L 329.187462 195.295558 
L 329.252015 195.212707 
L 329.461813 194.715604 
L 329.558642 194.632753 
L 329.687749 194.549903 
L 329.800717 194.632753 
L 329.9621 194.13565 
L 329.978238 194.2185 
L 330.091206 194.549903 
L 330.123483 194.384202 
L 330.204174 194.301351 
L 330.397834 193.804247 
L 330.43011 193.887098 
L 330.478525 193.721397 
L 330.494664 193.721397 
L 330.688323 193.721397 
L 330.833568 193.307144 
L 330.930398 193.307144 
L 331.124057 212.279928 
L 331.495238 225.701723 
L 332.076216 237.797909 
L 332.786301 247.077174 
L 333.528663 253.622371 
L 335.158631 261.410326 
L 335.174769 261.410326 
L 335.336152 262.073131 
L 335.35229 262.073131 
L 335.529812 262.818786 
L 335.997822 264.641499 
L 336.046237 264.724349 
L 336.272173 265.304303 
L 336.30445 265.387154 
L 336.530386 265.967108 
L 336.675631 266.049959 
L 336.86929 266.464212 
L 336.917705 266.547062 
L 337.079088 266.961315 
L 337.095226 266.878465 
L 337.111365 266.878465 
L 337.256609 267.292717 
L 337.337301 267.375568 
L 337.53096 267.789821 
L 337.660067 267.872672 
L 337.853726 268.286924 
L 338.015109 268.369775 
L 338.19263 268.701177 
L 338.321737 268.784028 
L 338.466981 268.949729 
L 338.579949 269.03258 
L 338.709056 269.11543 
L 339.306173 269.03258 
L 339.386864 268.949729 
L 339.419141 269.03258 
L 340.758619 268.949729 
L 340.920002 268.701177 
L 341.065247 268.618327 
L 341.22663 268.369775 
L 341.371874 268.286924 
L 341.517119 268.121223 
L 341.662364 268.038373 
L 341.69464 267.955522 
L 341.775332 268.038373 
L 341.936715 267.955522 
L 342.065821 267.872672 
L 342.194928 267.955522 
L 342.630662 267.872672 
L 342.6468 267.789821 
L 342.679076 267.955522 
L 342.74363 267.872672 
L 343.11481 267.789821 
L 343.163225 267.70697 
L 343.227778 267.789821 
L 343.760342 267.70697 
L 343.792619 267.62412 
L 343.87331 267.70697 
L 343.97014 267.62412 
L 344.050831 267.541269 
L 344.083108 267.62412 
L 344.228353 267.541269 
L 344.357459 267.458419 
L 344.680225 267.375568 
L 344.696363 267.292717 
L 344.793193 267.375568 
L 344.922299 267.292717 
L 345.051406 267.209867 
L 345.083682 267.292717 
L 345.164374 267.209867 
L 345.600108 267.127016 
L 345.616246 267.044166 
L 345.713076 267.127016 
L 345.793767 267.044166 
L 345.922874 266.961315 
L 346.068118 266.878465 
L 346.181086 266.712763 
L 346.197225 266.795614 
L 346.261778 266.712763 
L 346.390884 266.629913 
L 346.568406 266.547062 
L 346.584544 266.464212 
L 346.681374 266.547062 
L 346.971863 266.464212 
L 347.117108 266.29851 
L 347.940161 266.381361 
L 347.972437 266.464212 
L 348.053129 266.381361 
L 349.666958 266.464212 
L 349.683097 266.547062 
L 349.779926 266.464212 
L 351.16782 266.547062 
L 351.264649 266.629913 
L 351.280788 266.547062 
L 353.362628 266.464212 
L 353.394904 266.381361 
L 353.443319 266.547062 
L 353.475596 266.464212 
L 354.702106 266.381361 
L 354.815074 266.29851 
L 354.831213 266.381361 
L 354.879628 266.21566 
L 354.928042 266.29851 
L 355.024872 266.21566 
L 355.041011 266.29851 
L 355.121702 266.29851 
L 355.13784 266.132809 
L 355.3315 229.761402 
L 355.79951 192.892891 
L 355.89634 179.222544 
L 355.944755 68.865563 
L 356.009308 124.044054 
L 356.154553 191.235879 
L 356.170691 191.070178 
L 356.364351 184.856384 
L 356.800085 173.671555 
L 356.864638 71.351081 
L 356.945329 122.884146 
L 357.122851 184.856384 
L 357.284234 186.347695 
L 357.494031 186.844798 
L 357.542446 186.761948 
L 357.590861 186.844798 
L 357.703829 187.176201 
L 357.719968 187.09335 
L 357.865212 187.010499 
L 358.187978 185.933442 
L 358.236393 185.850591 
L 358.768957 182.536568 
L 359.043308 178.64259 
L 359.172414 172.843049 
L 359.236967 68.037058 
L 359.30152 109.628052 
L 359.49518 185.104936 
L 359.672701 187.507603 
L 359.898637 188.253258 
L 359.914776 188.170408 
L 360.092297 188.253258 
L 360.140712 188.336109 
L 360.172988 188.170408 
L 360.189127 188.170408 
L 360.25368 188.087557 
L 360.528031 187.259051 
L 360.640999 187.176201 
L 360.834658 186.513396 
L 360.866935 186.596246 
L 360.947627 186.513396 
L 361.092871 186.099143 
L 361.125148 186.181994 
L 361.173563 186.099143 
L 361.383361 185.602039 
L 361.447914 185.519189 
L 361.722265 184.690683 
L 361.786818 184.607832 
L 362.028892 183.945028 
L 362.125722 183.862177 
L 362.43235 182.86797 
L 362.496903 182.78512 
L 363.303818 179.222544 
L 363.352233 179.305395 
L 363.384509 179.056843 
L 363.56203 174.914314 
L 363.626584 66.96 
L 363.707275 119.652973 
L 363.884796 184.027878 
L 364.046179 186.181994 
L 364.143009 186.264844 
L 364.304392 186.513396 
L 364.336669 186.596246 
L 364.352807 186.679097 
L 364.433498 186.596246 
L 364.449637 186.513396 
L 364.530328 186.679097 
L 364.836956 186.761948 
L 364.853094 186.844798 
L 364.885371 186.679097 
L 364.917647 186.679097 
L 365.304966 185.270637 
L 365.595456 185.187787 
L 366.257126 182.370867 
L 366.321679 182.453717 
L 366.370094 182.619418 
L 366.418509 182.370867 
L 366.773551 181.128108 
L 366.805828 181.210958 
L 366.838104 180.962407 
L 366.967211 180.631004 
L 366.999487 180.713855 
L 367.015626 180.796705 
L 367.06404 180.631004 
L 367.080179 180.631004 
L 367.225423 180.465303 
L 367.273838 180.382453 
L 367.45136 179.636797 
L 367.628881 178.145487 
L 367.854817 176.819877 
L 367.887093 176.737027 
L 367.967785 175.245716 
L 368.000062 169.363325 
L 368.064615 68.119908 
L 368.129168 107.722488 
L 368.338966 183.199372 
L 368.516487 185.104936 
L 368.694008 185.519189 
L 368.806976 185.436338 
L 368.952221 185.602039 
L 369.000636 185.436338 
L 369.081327 185.519189 
L 369.194295 185.68489 
L 369.210434 185.602039 
L 369.24271 185.602039 
L 369.323402 185.436338 
L 369.355678 185.519189 
L 369.387955 185.767741 
L 369.484785 185.602039 
L 369.581614 185.519189 
L 369.839827 184.773534 
L 369.952795 184.690683 
L 370.501497 182.453717 
L 370.533774 182.370867 
L 370.695157 181.625211 
L 370.808125 181.708062 
L 371.114753 180.713855 
L 371.163167 180.631004 
L 371.308412 180.382453 
L 371.32455 180.465303 
L 371.389104 180.216751 
L 371.405242 180.299602 
L 371.534348 180.382453 
L 371.679593 180.796705 
L 371.744146 180.631004 
L 371.808699 180.713855 
L 371.857114 180.631004 
L 371.970082 180.382453 
L 372.002359 180.465303 
L 372.08305 180.382453 
L 372.551061 178.476889 
L 372.567199 178.55974 
L 372.615614 178.311188 
L 372.825412 176.819877 
L 372.922242 173.340153 
L 372.986795 67.622805 
L 373.067486 112.693524 
L 373.261146 181.293809 
L 373.454805 183.116522 
L 373.69688 183.779327 
L 373.858263 183.696476 
L 373.955092 183.530775 
L 373.971231 183.613625 
L 374.051922 183.779327 
L 374.084199 183.696476 
L 374.374688 182.78512 
L 374.45538 182.702269 
L 374.616763 182.370867 
L 374.713592 182.453717 
L 374.729731 182.370867 
L 374.842699 182.288016 
L 375.068635 181.708062 
L 375.100911 181.790912 
L 375.197741 181.956614 
L 375.230018 181.873763 
L 375.262294 181.790912 
L 375.617337 180.548154 
L 375.665752 180.465303 
L 375.827135 179.802498 
L 375.859411 179.885349 
L 375.891688 179.9682 
L 375.940103 179.719648 
L 376.149901 179.139694 
L 376.182177 179.222544 
L 376.262869 179.139694 
L 376.295145 179.056843 
L 376.698603 177.565533 
L 376.779294 177.648383 
L 376.795432 177.565533 
L 377.118198 175.328567 
L 377.182752 173.588704 
L 377.215028 143.513942 
L 377.263443 68.285609 
L 377.327996 102.171499 
L 377.537794 179.305395 
L 377.683039 181.45951 
L 377.699177 181.37666 
L 377.95739 182.122315 
L 378.054219 182.205165 
L 378.215602 182.453717 
L 378.393124 182.370867 
L 378.538368 182.205165 
L 378.586783 182.122315 
L 378.877273 181.210958 
L 378.941826 181.128108 
L 378.990241 181.045257 
L 379.022517 181.210958 
L 379.038655 181.210958 
L 379.167762 181.128108 
L 379.474389 180.133901 
L 379.522804 180.05105 
L 379.668049 179.885349 
L 379.74874 179.802498 
L 379.990815 179.139694 
L 380.023091 179.056843 
L 380.216751 177.979786 
L 380.232889 178.062636 
L 380.297442 177.814084 
L 380.426549 177.731234 
L 380.491102 177.814084 
L 380.571794 177.979786 
L 380.620208 177.896935 
L 380.684762 177.814084 
L 380.846145 177.482682 
L 380.862283 177.565533 
L 380.910698 177.23413 
L 380.959113 177.15128 
L 381.394847 174.33436 
L 381.540091 171.186037 
L 381.572368 138.791458 
L 381.620783 67.954207 
L 381.685336 101.342993 
L 381.911272 180.382453 
L 382.104932 182.288016 
L 382.185623 182.370867 
L 382.395421 182.86797 
L 382.459974 182.950821 
L 382.605219 183.116522 
L 382.702048 183.033671 
L 382.944123 182.370867 
L 383.121644 182.453717 
L 383.234612 182.78512 
L 383.283027 182.702269 
L 383.379857 182.78512 
L 383.395995 182.86797 
L 383.44441 182.702269 
L 383.460548 182.702269 
L 383.670346 182.205165 
L 383.702623 182.122315 
L 383.912421 181.625211 
L 383.944697 181.542361 
L 384.089942 181.210958 
L 384.10608 181.293809 
L 384.154495 181.210958 
L 384.348155 180.796705 
L 384.380431 180.713855 
L 384.477261 180.465303 
L 384.525676 180.548154 
L 384.735474 180.465303 
L 384.896857 180.05105 
L 384.912995 180.133901 
L 384.993686 180.05105 
L 385.042101 179.9682 
L 385.106654 180.05105 
L 385.171208 179.9682 
L 385.300314 179.636797 
L 385.332591 179.719648 
L 385.364867 179.885349 
L 385.42942 179.719648 
L 386.123367 175.659969 
L 386.317027 171.020336 
L 386.38158 69.694069 
L 386.47841 118.824467 
L 386.672069 178.973993 
L 386.833452 180.548154 
L 386.84959 180.465303 
L 386.898005 180.796705 
L 387.107803 181.45951 
L 387.123941 181.37666 
L 387.172356 181.45951 
L 387.349877 181.790912 
L 387.527399 181.45951 
L 387.688782 181.37666 
L 387.882441 180.962407 
L 387.979271 180.962407 
L 388.140654 181.625211 
L 388.318175 181.293809 
L 388.415005 181.37666 
L 388.431143 181.293809 
L 388.527973 181.210958 
L 388.657079 181.128108 
L 388.689356 181.210958 
L 388.737771 181.045257 
L 388.753909 181.045257 
L 389.012122 180.299602 
L 389.076675 180.299602 
L 389.238058 179.719648 
L 390.077249 174.831463 
L 390.319324 169.943279 
L 390.3516 129.595043 
L 390.400015 69.279816 
L 390.464568 102.668603 
L 390.674366 177.15128 
L 390.835749 179.222544 
L 390.868026 179.305395 
L 391.142377 180.133901 
L 391.158515 180.133901 
L 391.174653 179.9682 
L 391.271483 180.05105 
L 391.352175 179.885349 
L 391.384451 180.05105 
L 391.497419 179.9682 
L 391.513558 179.885349 
L 391.594249 180.05105 
L 391.739494 179.9682 
L 391.96543 179.388245 
L 392.078398 179.305395 
L 392.417302 178.145487 
L 392.449579 178.145487 
L 392.610962 177.482682 
L 392.659377 177.399831 
L 392.869174 176.322774 
L 392.885313 176.322774 
L 393.175802 174.41721 
L 393.627674 171.51744 
L 393.724504 168.949072 
L 393.756781 137.714401 
L 393.805196 69.859771 
L 393.869749 96.869062 
L 394.111823 176.488475 
L 394.305483 179.056843 
L 394.499142 180.05105 
L 394.547557 180.133901 
L 394.757355 180.631004 
L 394.967153 180.713855 
L 395.015568 180.879556 
L 395.080121 180.796705 
L 395.386749 179.802498 
L 395.419025 179.719648 
L 395.56427 179.553947 
L 395.612685 179.553947 
L 395.757929 179.139694 
L 395.806344 179.056843 
L 395.967727 178.55974 
L 396.000004 178.64259 
L 396.096833 178.55974 
L 396.290493 177.648383 
L 396.32277 177.565533 
L 396.726227 176.074222 
L 396.758504 175.991371 
L 397.048993 174.748613 
L 397.097408 174.831463 
L 397.129684 174.914314 
L 397.161961 174.748613 
L 397.517003 170.440382 
L 397.565418 164.557991 
L 397.629972 70.108322 
L 397.710663 106.148327 
L 397.936599 175.908521 
L 398.130259 178.476889 
L 398.162535 178.55974 
L 398.501439 179.719648 
L 398.582131 179.802498 
L 398.727376 179.9682 
L 398.904897 179.885349 
L 399.050142 179.719648 
L 399.211524 179.636797 
L 399.453599 178.973993 
L 399.582705 178.891142 
L 399.744088 178.55974 
L 399.857056 178.64259 
L 399.889333 178.55974 
L 399.953886 178.725441 
L 400.018439 178.64259 
L 400.438035 177.068429 
L 400.470311 176.985578 
L 401.196535 172.760199 
L 401.406333 168.451968 
L 401.487024 70.108322 
L 401.583854 117.913111 
L 401.777513 174.41721 
L 401.955035 177.068429 
L 402.229386 178.808291 
L 402.358492 179.056843 
L 402.37463 178.973993 
L 402.439183 178.891142 
L 402.519875 178.808291 
L 402.552152 178.891142 
L 402.842641 178.808291 
L 403.068577 178.228337 
L 403.100854 178.145487 
L 403.294513 177.731234 
L 403.342928 177.648383 
L 403.455896 177.482682 
L 403.472034 177.565533 
L 403.923907 177.482682 
L 404.053013 177.399831 
L 404.165981 177.482682 
L 404.214396 177.565533 
L 404.278949 177.482682 
L 404.359641 177.565533 
L 404.424194 177.648383 
L 404.472609 177.565533 
L 404.521024 177.482682 
L 404.730821 176.654176 
L 404.779236 176.737027 
L 404.843789 176.819877 
L 404.892204 176.737027 
L 405.102002 176.654176 
L 405.344077 175.991371 
L 405.392492 175.908521 
L 405.50546 175.411417 
L 405.537736 175.494268 
L 405.602289 175.411417 
L 406.005747 172.760199 
L 406.215545 169.611876 
L 406.296236 164.889393 
L 406.376928 71.18538 
L 406.441481 103.497109 
L 406.667417 175.162866 
L 406.861076 178.145487 
L 407.280672 179.719648 
L 407.442055 179.636797 
L 407.571161 179.305395 
L 407.813236 179.388245 
L 407.893927 179.471096 
L 407.926204 179.388245 
L 408.119863 179.471096 
L 408.200555 179.636797 
L 408.24897 179.553947 
L 408.3458 179.471096 
L 408.523321 179.139694 
L 408.604012 179.139694 
L 408.797672 178.228337 
L 409.104299 177.23413 
L 409.152714 177.15128 
L 409.749831 174.665762 
L 409.798246 174.582911 
L 409.927352 174.002957 
L 409.975767 174.251509 
L 410.395363 174.168659 
L 410.944065 170.771785 
L 411.105448 163.895186 
L 411.186139 71.18538 
L 411.250693 102.088649 
L 411.476629 174.997164 
L 411.65415 177.896935 
L 411.896224 179.305395 
L 412.057607 179.553947 
L 412.138299 179.471096 
L 412.267405 179.305395 
L 412.299682 179.388245 
L 412.348097 179.222544 
L 412.364235 179.222544 
L 412.525618 179.139694 
L 412.590171 179.056843 
L 412.622448 179.222544 
L 412.703139 179.553947 
L 412.767692 179.471096 
L 412.97749 178.973993 
L 413.058182 178.891142 
L 413.203426 178.725441 
L 413.300256 178.64259 
L 413.477777 177.979786 
L 413.510054 178.145487 
L 413.752128 178.062636 
L 414.252416 176.074222 
L 414.316969 175.991371 
L 414.462213 175.82567 
L 414.510628 175.74282 
L 414.801118 174.831463 
L 414.833394 174.748613 
L 415.382096 168.120566 
L 415.414373 159.918358 
L 415.478926 70.936828 
L 415.543479 98.194671 
L 415.785554 175.162866 
L 415.979213 177.814084 
L 416.189011 178.891142 
L 416.414947 179.471096 
L 416.544053 179.388245 
L 416.76999 179.388245 
L 416.931373 178.808291 
L 416.963649 178.891142 
L 417.012064 178.64259 
L 417.060479 178.55974 
L 417.286415 177.979786 
L 417.399383 177.896935 
L 417.818979 176.322774 
L 417.851255 176.239923 
L 418.109468 175.494268 
L 418.238574 175.411417 
L 418.56134 174.33436 
L 418.577479 174.41721 
L 418.625894 174.251509 
L 418.642032 174.251509 
L 419.126181 171.186037 
L 419.335979 167.37491 
L 419.368255 151.881851 
L 419.432808 71.102529 
L 419.497362 99.023177 
L 419.787851 197.946777 
L 420.046064 217.665216 
L 420.433383 232.164069 
L 420.83684 241.194783 
L 421.224159 246.911473 
L 421.627616 251.468255 
L 421.788999 252.876715 
L 422.224733 256.273589 
L 422.757297 259.587613 
L 422.950957 260.498969 
L 423.67718 263.647292 
L 423.709457 263.730142 
L 424.145191 265.387154 
L 424.177467 265.470005 
L 424.451818 266.29851 
L 424.500233 266.381361 
L 424.758446 267.127016 
L 424.855276 267.209867 
L 425.129627 268.038373 
L 425.145765 267.955522 
L 425.178041 268.121223 
L 425.210318 268.121223 
L 425.436254 268.701177 
L 425.549222 268.784028 
L 425.726743 269.11543 
L 425.839712 269.198281 
L 426.017233 269.529683 
L 426.097924 269.612534 
L 426.259307 269.861086 
L 426.32386 269.943936 
L 426.501382 270.275339 
L 426.51752 270.192488 
L 426.582073 270.358189 
L 426.598211 270.358189 
L 426.727318 270.44104 
L 426.824148 270.52389 
L 426.98553 270.772442 
L 427.033945 270.855293 
L 427.163052 270.938143 
L 427.243743 271.020994 
L 427.388988 271.269546 
L 427.421264 271.186695 
L 427.501956 271.269546 
L 428.131349 271.352396 
L 428.276594 271.518097 
L 429.148062 271.600948 
L 429.1642 271.683799 
L 429.244892 271.600948 
L 429.341722 271.518097 
L 429.35786 271.600948 
L 429.729041 271.683799 
L 429.793594 271.766649 
L 429.842009 271.683799 
L 430.697338 271.600948 
L 430.826445 271.518097 
L 431.310594 271.435247 
L 431.375147 271.352396 
L 431.423562 271.435247 
L 431.4397 271.518097 
L 431.520391 271.435247 
L 431.649498 271.352396 
L 432.036817 271.269546 
L 432.165923 271.186695 
L 432.633934 271.103844 
L 432.76304 271.020994 
L 433.392434 270.938143 
L 433.52154 270.855293 
L 433.795891 270.772442 
L 433.860444 270.606741 
L 433.908859 270.689591 
L 433.989551 270.772442 
L 434.021827 270.689591 
L 434.74805 270.606741 
L 434.877157 270.52389 
L 435.232199 270.44104 
L 435.377444 270.275339 
L 435.458135 270.358189 
L 435.490412 270.275339 
L 435.780901 270.275339 
L 435.780901 270.275339 
" style="fill:none;stroke:#1f77b4;stroke-linecap:square;stroke-width:1.5;"/>
   </g>
   <g id="line2d_15">
    <path clip-path="url(#p3a6f88fd56)" d="M 80.754545 262.802216 
L 81.061173 262.971894 
L 81.287109 263.0737 
L 81.56146 263.209443 
L 81.803535 263.31125 
L 82.061747 263.430024 
L 82.336098 263.531831 
L 82.578173 263.633638 
L 82.900939 263.735445 
L 83.126875 263.820284 
L 83.481917 263.92209 
L 83.691715 263.989962 
L 84.095173 264.091768 
L 84.288832 264.142672 
L 84.740704 264.244479 
L 84.934364 264.295382 
L 85.483066 264.397189 
L 85.660587 264.431124 
L 86.289981 264.532931 
L 86.467502 264.566867 
L 87.306693 264.668674 
L 87.484215 264.702609 
L 88.678448 264.804416 
L 88.839831 264.821384 
L 88.904385 264.838352 
L 89.791991 250.958691 
L 90.808703 238.555229 
L 91.777001 229.52836 
L 92.583916 223.674469 
L 93.536075 218.34658 
L 94.940107 212.916884 
L 95.66633 210.982554 
L 96.763734 208.92945 
L 98.538947 207.215703 
L 98.764883 207.113896 
L 99.006957 207.012089 
L 99.394276 206.910282 
L 99.571798 206.876347 
L 101.282457 206.978153 
L 101.492255 207.046025 
L 101.847297 207.147831 
L 102.089372 207.249638 
L 102.379861 207.351445 
L 102.638074 207.47022 
L 102.86401 207.572026 
L 103.138361 207.707769 
L 103.348159 207.809576 
L 103.654786 207.979254 
L 103.864584 208.08106 
L 104.203488 208.284674 
L 104.397148 208.386481 
L 104.736052 208.590094 
L 104.913573 208.691901 
L 105.268616 208.912483 
L 105.446137 209.014289 
L 105.817318 209.251839 
L 105.994839 209.353645 
L 106.36602 209.591195 
L 106.543541 209.693001 
L 106.914722 209.930551 
L 107.092243 210.032357 
L 107.463424 210.269907 
L 107.640945 210.371713 
L 107.995988 210.592295 
L 108.173509 210.694102 
L 108.528551 210.914683 
L 108.722211 211.01649 
L 109.077254 211.237071 
L 109.270913 211.338878 
L 109.609817 211.542492 
L 109.803477 211.644299 
L 110.126243 211.830944 
L 110.336041 211.932751 
L 110.642668 212.102429 
L 110.852466 212.204236 
L 111.159094 212.373914 
L 111.368891 212.475721 
L 111.659381 212.628431 
L 111.885317 212.730238 
L 112.159668 212.86598 
L 112.385604 212.967787 
L 112.659955 213.103529 
L 112.902029 213.205336 
L 113.160242 213.324111 
L 113.402317 213.425918 
L 113.660529 213.544692 
L 113.93488 213.646499 
L 114.193093 213.765274 
L 114.483582 213.86708 
L 114.725657 213.968887 
L 115.016146 214.070694 
L 115.258221 214.172501 
L 115.580986 214.274308 
L 115.806923 214.359147 
L 116.129689 214.460953 
L 116.355625 214.545792 
L 116.694529 214.647599 
L 116.904327 214.71547 
L 117.259369 214.817277 
L 117.469167 214.885148 
L 117.840348 214.986955 
L 118.050146 215.054826 
L 118.453603 215.156633 
L 118.647263 215.207537 
L 119.066858 215.309343 
L 119.260518 215.360247 
L 119.696252 215.462054 
L 119.889911 215.512957 
L 120.390198 215.614764 
L 120.583858 215.665667 
L 121.13256 215.767474 
L 121.32622 215.818377 
L 121.955613 215.920184 
L 122.133134 215.95412 
L 122.74639 216.055927 
L 122.923911 216.089862 
L 123.617857 216.191669 
L 123.795379 216.225605 
L 124.586155 216.327411 
L 124.763676 216.361347 
L 125.699698 216.463154 
L 125.877219 216.497089 
L 126.974623 216.598896 
L 127.152144 216.632832 
L 128.475484 216.734639 
L 128.636867 216.751606 
L 130.073176 216.853413 
L 130.234559 216.870381 
L 132.090462 216.972188 
L 132.251845 216.989156 
L 134.801696 217.090962 
L 134.963079 217.10793 
L 139.029929 217.209737 
L 139.191312 217.226705 
L 149.648928 217.328512 
L 149.810311 217.345479 
L 153.457565 217.345479 
L 154.36131 231.513592 
L 155.135948 241.287045 
L 156.007416 250.093333 
L 157.169373 258.933557 
L 158.105394 264.15964 
L 159.477149 269.453593 
L 160.203373 271.387922 
L 161.2685 273.373155 
L 162.979159 275.019032 
L 163.205096 275.120839 
L 163.44717 275.222645 
L 163.850627 275.324452 
L 164.028149 275.358388 
L 165.674255 275.256581 
L 165.884053 275.18871 
L 166.239095 275.086903 
L 166.48117 274.985096 
L 166.771659 274.883289 
L 167.029872 274.764515 
L 167.271946 274.662708 
L 167.546297 274.526966 
L 167.756095 274.425159 
L 168.062722 274.255481 
L 168.27252 274.153674 
L 168.595286 273.967028 
L 168.788946 273.865221 
L 169.12785 273.661608 
L 169.321509 273.559801 
L 169.515169 273.441026 
L 169.531307 262.802216 
L 169.628137 262.853119 
L 169.934765 263.022797 
L 170.160701 263.124604 
L 170.435052 263.260346 
L 170.693265 263.362153 
L 170.951477 263.480928 
L 171.241967 263.582734 
L 171.467903 263.667573 
L 171.77453 263.76938 
L 172.000466 263.854219 
L 172.371647 263.956026 
L 172.581445 264.023897 
L 173.001041 264.125704 
L 173.1947 264.176607 
L 173.662711 264.278414 
L 173.85637 264.329318 
L 174.453487 264.431124 
L 174.631009 264.46506 
L 175.292679 264.566867 
L 175.4702 264.600802 
L 176.373944 264.702609 
L 176.551466 264.736545 
L 177.681146 264.838352 
L 178.520338 247.225775 
L 179.456359 231.615399 
L 180.376242 219.670068 
L 181.24771 210.86378 
L 181.990071 204.891114 
L 182.845401 199.410515 
L 184.201018 192.877912 
L 185.379113 188.398412 
L 186.137613 185.649629 
L 187.235017 180.576257 
L 187.638475 177.335407 
L 187.912826 173.314038 
L 188.090347 167.120791 
L 188.1549 160.282768 
L 188.267868 208.92945 
L 188.364698 208.997322 
L 189.236166 215.394182 
L 190.010804 219.585229 
L 190.99524 223.267242 
L 192.51224 226.202671 
L 193.141633 226.711705 
L 193.399846 226.813512 
L 193.593505 226.864415 
L 194.545665 226.762608 
L 194.820016 226.626866 
L 195.013675 226.525059 
L 195.497824 226.168735 
L 195.626931 226.066929 
L 197.676494 223.759308 
L 198.031537 223.267242 
L 198.499547 222.622465 
L 198.886866 222.062528 
L 199.274185 221.50259 
L 199.693781 220.874782 
L 200.0811 220.314844 
L 200.516834 219.6531 
L 200.904153 219.093163 
L 201.307611 218.49929 
L 201.69493 217.939352 
L 202.082249 217.379415 
L 202.517983 216.768574 
L 202.889163 216.242572 
L 203.405589 215.546893 
L 203.744493 215.088762 
L 204.390025 214.25734 
L 204.696653 213.86708 
L 205.729503 212.628431 
L 206.003854 212.306043 
L 209.36062 208.92945 
L 209.489726 208.827644 
L 210.232088 208.199835 
L 210.377332 208.098028 
L 210.974449 207.62293 
L 211.119694 207.521123 
L 211.603843 207.164799 
L 211.765226 207.062992 
L 212.20096 206.757572 
L 212.362343 206.655765 
L 212.7658 206.38428 
L 212.943321 206.282474 
L 213.298364 206.061892 
L 213.475885 205.960085 
L 213.814789 205.756472 
L 214.008449 205.654665 
L 214.331215 205.468019 
L 214.541013 205.366212 
L 214.84764 205.196534 
L 215.057438 205.094728 
L 215.347927 204.942017 
L 215.573863 204.840211 
L 215.848214 204.704468 
L 216.090289 204.602661 
L 216.36464 204.466919 
L 216.622853 204.365112 
L 216.881065 204.246338 
L 217.155416 204.144531 
L 217.397491 204.042724 
L 217.671842 203.940917 
L 217.913916 203.83911 
L 218.220544 203.737304 
L 218.44648 203.652465 
L 218.753108 203.550658 
L 218.979044 203.465819 
L 219.317948 203.364012 
L 219.543884 203.279173 
L 219.915065 203.177366 
L 220.124863 203.109495 
L 220.496044 203.007688 
L 220.705841 202.939817 
L 221.109299 202.83801 
L 221.302958 202.787107 
L 221.722554 202.6853 
L 221.916213 202.634397 
L 222.368086 202.53259 
L 222.561745 202.481686 
L 223.062032 202.37988 
L 223.255692 202.328976 
L 223.820532 202.227169 
L 224.014192 202.176266 
L 224.643585 202.074459 
L 224.821107 202.040524 
L 225.466638 201.938717 
L 225.64416 201.904781 
L 226.370383 201.802974 
L 226.547904 201.769039 
L 227.387096 201.667232 
L 227.564617 201.633296 
L 228.565191 201.53149 
L 228.742712 201.497554 
L 229.953084 201.395747 
L 230.114467 201.378779 
L 231.405531 201.276973 
L 231.566914 201.260005 
L 233.229158 201.158198 
L 233.390541 201.14123 
L 235.682179 201.039423 
L 235.843562 201.022456 
L 239.587647 200.920649 
L 239.74903 200.903681 
L 242.234327 200.869745 
L 243.283316 222.571562 
L 244.267752 238.232841 
L 245.252188 250.212108 
L 246.172071 258.729944 
L 246.930571 264.193575 
L 247.818177 269.097269 
L 248.431432 271.727278 
L 249.900017 276.003164 
L 250.674656 277.377556 
L 252.127102 278.751948 
L 252.385315 278.853755 
L 252.611251 278.938594 
L 254.434878 278.836787 
L 254.676953 278.73498 
L 254.951304 278.633173 
L 255.225655 278.497431 
L 255.435453 278.395624 
L 255.774357 278.19201 
L 255.951878 278.090204 
L 256.339197 277.835687 
L 256.50058 277.73388 
L 256.952452 277.411492 
L 257.097697 277.309685 
L 257.630261 276.902458 
L 257.775505 276.800651 
L 258.291931 276.393424 
L 258.308069 262.802216 
L 258.404899 262.853119 
L 258.711527 263.022797 
L 258.937463 263.124604 
L 259.211814 263.260346 
L 259.470026 263.362153 
L 259.728239 263.480928 
L 260.018728 263.582734 
L 260.244665 263.667573 
L 260.551292 263.76938 
L 260.777228 263.854219 
L 261.148409 263.956026 
L 261.358207 264.023897 
L 261.777803 264.125704 
L 261.971462 264.176607 
L 262.439473 264.278414 
L 262.633132 264.329318 
L 263.230249 264.431124 
L 263.40777 264.46506 
L 264.069441 264.566867 
L 264.246962 264.600802 
L 265.150706 264.702609 
L 265.328228 264.736545 
L 266.457908 264.838352 
L 267.345514 237.028127 
L 268.378365 211.813977 
L 269.411216 192.419781 
L 270.298822 175.706498 
L 270.492482 167.680729 
L 270.557035 160.180961 
L 270.670003 208.92945 
L 270.766833 208.878547 
L 272.364524 201.073359 
L 276.269992 184.17343 
L 276.721864 181.238001 
L 277.189875 176.436113 
L 277.431949 171.29487 
L 277.561055 164.049619 
L 277.577194 161.996516 
L 277.690162 208.92945 
L 277.80313 209.014289 
L 278.36797 211.881848 
L 279.061917 214.342179 
L 280.078629 216.242572 
L 280.191597 216.344379 
L 280.530502 216.547993 
L 281.369693 216.446186 
L 282.72531 214.868181 
L 285.113777 209.591195 
L 285.856139 207.605962 
L 286.275735 206.469119 
L 287.340862 203.465819 
L 287.695905 202.464719 
L 288.954692 198.850577 
L 289.293596 197.883413 
L 291.004255 192.843976 
L 291.278606 192.012554 
L 292.731053 187.074924 
L 293.699351 182.527554 
L 294.054393 180.08419 
L 294.425574 176.113725 
L 294.65151 171.345773 
L 294.780616 164.388975 
L 294.812893 159.671927 
L 294.925861 208.92945 
L 295.022691 208.980354 
L 295.765052 212.984755 
L 296.491276 215.56386 
L 296.92701 216.581928 
L 297.378882 217.277608 
L 297.927584 217.701803 
L 298.734499 217.599996 
L 300.041701 216.072894 
L 302.3172 211.033458 
L 303.107977 208.895515 
L 303.495296 207.826543 
L 304.721806 204.314209 
L 305.06071 203.347044 
L 306.561572 198.969352 
L 306.884338 198.036123 
L 310.676837 185.7175 
L 311.290092 182.663296 
L 311.661273 180.135094 
L 312.048592 175.944047 
L 312.290667 170.395577 
L 312.403635 163.11639 
L 312.419773 160.639092 
L 312.532741 208.92945 
L 312.629571 208.980354 
L 313.371932 212.967787 
L 313.807666 214.664567 
L 314.517751 216.547993 
L 314.969624 217.243673 
L 315.534464 217.684835 
L 316.341379 217.583029 
L 317.664719 216.038959 
L 319.907942 211.067393 
L 320.698718 208.92945 
L 321.086037 207.860479 
L 322.312548 204.348144 
L 322.651452 203.38098 
L 324.152314 199.003287 
L 324.475079 198.070058 
L 328.283717 185.700532 
L 328.896972 182.646328 
L 329.445674 178.489217 
L 329.752302 174.196364 
L 329.929823 168.885442 
L 330.026653 159.892508 
L 330.139621 208.92945 
L 330.236451 208.980354 
L 330.978812 212.967787 
L 331.011089 213.120497 
L 331.963248 245.868351 
L 332.866993 269.300883 
L 333.754599 286.472297 
L 334.529237 297.637109 
L 335.271599 305.611975 
L 335.933269 310.855025 
L 336.756322 315.351492 
L 337.401854 317.60821 
L 338.28946 319.220151 
L 338.692917 319.491636 
L 339.403002 319.389829 
L 340.516545 318.06634 
L 342.227204 314.21465 
L 343.760342 309.735151 
L 344.018555 308.937664 
L 347.068693 299.350857 
L 347.084831 262.802216 
L 347.181661 262.853119 
L 347.488288 263.022797 
L 347.714225 263.124604 
L 347.988576 263.260346 
L 348.246788 263.362153 
L 348.505001 263.480928 
L 348.79549 263.582734 
L 349.021426 263.667573 
L 349.328054 263.76938 
L 349.55399 263.854219 
L 349.925171 263.956026 
L 350.134969 264.023897 
L 350.554564 264.125704 
L 350.748224 264.176607 
L 351.216235 264.278414 
L 351.409894 264.329318 
L 352.007011 264.431124 
L 352.184532 264.46506 
L 352.846202 264.566867 
L 353.023724 264.600802 
L 353.927468 264.702609 
L 354.104989 264.736545 
L 355.23467 264.838352 
L 356.186829 205.569826 
L 356.880776 161.640192 
L 356.993744 208.92945 
L 357.090574 208.92945 
L 358.058872 165.763367 
L 358.091148 160.757866 
L 358.204116 208.92945 
L 358.284808 208.92945 
L 358.397776 206.027957 
L 359.640425 169.275702 
L 359.721116 160.163993 
L 359.834084 208.92945 
L 359.914776 208.92945 
L 360.043882 206.995121 
L 361.915924 175.757401 
L 362.109584 167.561954 
L 362.174137 159.688895 
L 362.287105 208.92945 
L 362.383935 208.878547 
L 364.030041 195.949083 
L 364.917647 187.550022 
L 365.498626 180.338707 
L 365.821392 173.670362 
L 365.982775 165.966981 
L 366.015051 162.318904 
L 366.128019 208.92945 
L 366.257126 208.844611 
L 366.563753 207.945318 
L 367.06404 206.010989 
L 368.500349 197.866445 
L 369.823689 187.329441 
L 370.388529 180.966516 
L 370.75971 173.975782 
L 370.937231 165.780335 
L 370.969508 162.013483 
L 371.082476 208.92945 
L 371.227721 208.844611 
L 371.792561 207.419316 
L 373.051348 201.667232 
L 374.439241 192.216167 
L 375.391401 183.274137 
L 375.859411 176.07979 
L 376.069209 169.360541 
L 376.166039 160.011283 
L 376.279007 208.92945 
L 376.424252 208.827644 
L 376.585635 208.522223 
L 377.634624 204.857178 
L 378.167188 202.14233 
L 378.844996 198.002187 
L 380.265166 186.752536 
L 380.781591 180.864709 
L 381.104357 175.095657 
L 381.298017 167.833439 
L 381.36257 161.165093 
L 381.475538 208.92945 
L 381.620783 208.827644 
L 381.798304 208.488288 
L 382.185623 207.419316 
L 382.718187 205.400148 
L 384.170633 197.170765 
L 385.445559 186.973117 
L 385.994261 180.728967 
L 386.349303 173.99275 
L 386.526824 165.848206 
L 386.559101 162.132258 
L 386.672069 208.92945 
L 386.833452 208.827644 
L 387.414431 207.351445 
L 388.657079 201.667232 
L 390.044973 192.216167 
L 390.64209 187.024021 
L 391.190792 180.813806 
L 391.513558 174.99385 
L 391.707217 167.561954 
L 391.77177 160.384575 
L 391.884738 208.92945 
L 392.029983 208.827644 
L 392.207504 208.488288 
L 393.240355 204.874146 
L 394.515281 197.577992 
L 395.225366 192.402813 
L 396.193663 183.358976 
L 396.613259 177.250568 
L 396.855333 170.514351 
L 396.968301 161.538385 
L 397.081269 208.92945 
L 397.226514 208.844611 
L 397.823631 207.334477 
L 398.323918 205.417116 
L 399.776365 197.187733 
L 401.05129 187.007053 
L 401.729099 178.794638 
L 402.019588 172.041453 
L 402.148694 164.558653 
L 402.180971 159.654959 
L 402.293939 208.92945 
L 402.439183 208.827644 
L 402.600566 208.505255 
L 403.004024 207.419316 
L 404.278949 201.582393 
L 404.892204 197.781606 
L 406.280098 186.752536 
L 406.941768 178.641927 
L 407.216119 172.262035 
L 407.361364 163.421811 
L 407.377502 160.944512 
L 407.49047 208.92945 
L 407.635715 208.827644 
L 407.813236 208.488288 
L 408.200555 207.419316 
L 408.733119 205.38318 
L 409.362512 202.261105 
L 410.89565 191.910747 
L 411.799395 183.392911 
L 412.21899 177.301471 
L 412.461065 170.633126 
L 412.574033 162.030451 
L 412.687001 208.92945 
L 412.848384 208.827644 
L 413.413224 207.402348 
L 414.68815 201.565425 
L 416.059905 192.216167 
L 417.012064 183.274137 
L 417.415521 177.420246 
L 417.657596 170.904611 
L 417.770564 162.946712 
L 417.786702 160.231864 
L 417.89967 208.92945 
L 418.044915 208.827644 
L 418.206298 208.522223 
L 419.255287 204.874146 
L 419.787851 202.14233 
L 420.659319 251.790113 
L 421.530787 289.526501 
L 422.321563 315.402396 
L 423.209169 336.73092 
L 423.967669 349.711288 
L 424.629339 357.821896 
L 425.242595 363.11585 
L 425.775158 366.254893 
L 426.42069 368.494642 
L 426.888701 369.224258 
L 427.163052 369.36 
L 427.469679 369.258193 
L 428.018381 368.528578 
L 428.647775 366.950572 
L 429.422413 364.150885 
L 430.455264 359.33203 
L 432.182062 349.660384 
L 434.812604 333.761555 
L 435.813178 327.907664 
L 435.845455 327.721019 
L 435.845455 327.721019 
" style="fill:none;stroke:#ff0000;stroke-linecap:square;stroke-width:1.5;"/>
   </g>
   <g id="patch_3">
    <path d="M 63 384.48 
L 63 51.84 
" style="fill:none;stroke:#000000;stroke-linecap:square;stroke-linejoin:miter;stroke-width:0.8;"/>
   </g>
   <g id="patch_4">
    <path d="M 453.6 384.48 
L 453.6 51.84 
" style="fill:none;stroke:#000000;stroke-linecap:square;stroke-linejoin:miter;stroke-width:0.8;"/>
   </g>
   <g id="patch_5">
    <path d="M 63 384.48 
L 453.6 384.48 
" style="fill:none;stroke:#000000;stroke-linecap:square;stroke-linejoin:miter;stroke-width:0.8;"/>
   </g>
   <g id="patch_6">
    <path d="M 63 51.84 
L 453.6 51.84 
" style="fill:none;stroke:#000000;stroke-linecap:square;stroke-linejoin:miter;stroke-width:0.8;"/>
   </g>
   <g id="legend_1">
    <g id="patch_7">
     <path d="M 70 89.19625 
L 133.139062 89.19625 
Q 135.139062 89.19625 135.139062 87.19625 
L 135.139062 58.84 
Q 135.139062 56.84 133.139062 56.84 
L 70 56.84 
Q 68 56.84 68 58.84 
L 68 87.19625 
Q 68 89.19625 70 89.19625 
z
" style="fill:#ffffff;opacity:0.8;stroke:#cccccc;stroke-linejoin:miter;"/>
    </g>
    <g id="line2d_16">
     <path d="M 72 64.938437 
L 92 64.938437 
" style="fill:none;stroke:#1f77b4;stroke-linecap:square;stroke-width:1.5;"/>
    </g>
    <g id="line2d_17"/>
    <g id="text_16">
     <!-- target -->
     <g transform="translate(100 68.438437)scale(0.1 -0.1)">
      <defs>
       <path d="M 41.109375 46.296875 
Q 39.59375 47.171875 37.8125 47.578125 
Q 36.03125 48 33.890625 48 
Q 26.265625 48 22.1875 43.046875 
Q 18.109375 38.09375 18.109375 28.8125 
L 18.109375 0 
L 9.078125 0 
L 9.078125 54.6875 
L 18.109375 54.6875 
L 18.109375 46.1875 
Q 20.953125 51.171875 25.484375 53.578125 
Q 30.03125 56 36.53125 56 
Q 37.453125 56 38.578125 55.875 
Q 39.703125 55.765625 41.0625 55.515625 
z
" id="DejaVuSans-114"/>
      </defs>
      <use xlink:href="#DejaVuSans-116"/>
      <use x="39.208984" xlink:href="#DejaVuSans-97"/>
      <use x="100.488281" xlink:href="#DejaVuSans-114"/>
      <use x="139.851562" xlink:href="#DejaVuSans-103"/>
      <use x="203.328125" xlink:href="#DejaVuSans-101"/>
      <use x="264.851562" xlink:href="#DejaVuSans-116"/>
     </g>
    </g>
    <g id="line2d_18">
     <path d="M 72 79.616562 
L 92 79.616562 
" style="fill:none;stroke:#ff0000;stroke-linecap:square;stroke-width:1.5;"/>
    </g>
    <g id="line2d_19"/>
    <g id="text_17">
     <!-- model -->
     <g transform="translate(100 83.116562)scale(0.1 -0.1)">
      <defs>
       <path d="M 45.40625 46.390625 
L 45.40625 75.984375 
L 54.390625 75.984375 
L 54.390625 0 
L 45.40625 0 
L 45.40625 8.203125 
Q 42.578125 3.328125 38.25 0.953125 
Q 33.9375 -1.421875 27.875 -1.421875 
Q 17.96875 -1.421875 11.734375 6.484375 
Q 5.515625 14.40625 5.515625 27.296875 
Q 5.515625 40.1875 11.734375 48.09375 
Q 17.96875 56 27.875 56 
Q 33.9375 56 38.25 53.625 
Q 42.578125 51.265625 45.40625 46.390625 
z
M 14.796875 27.296875 
Q 14.796875 17.390625 18.875 11.75 
Q 22.953125 6.109375 30.078125 6.109375 
Q 37.203125 6.109375 41.296875 11.75 
Q 45.40625 17.390625 45.40625 27.296875 
Q 45.40625 37.203125 41.296875 42.84375 
Q 37.203125 48.484375 30.078125 48.484375 
Q 22.953125 48.484375 18.875 42.84375 
Q 14.796875 37.203125 14.796875 27.296875 
z
" id="DejaVuSans-100"/>
      </defs>
      <use xlink:href="#DejaVuSans-109"/>
      <use x="97.412109" xlink:href="#DejaVuSans-111"/>
      <use x="158.59375" xlink:href="#DejaVuSans-100"/>
      <use x="222.070312" xlink:href="#DejaVuSans-101"/>
      <use x="283.59375" xlink:href="#DejaVuSans-108"/>
     </g>
    </g>
   </g>
  </g>
 </g>
 <defs>
  <clipPath id="p3a6f88fd56">
   <rect height="332.64" width="390.6" x="63" y="51.84"/>
  </clipPath>
 </defs>
</svg>
