<?xml version="1.0" encoding="utf-8" standalone="no"?>
<!DOCTYPE svg PUBLIC "-//W3C//DTD SVG 1.1//EN"
  "http://www.w3.org/Graphics/SVG/1.1/DTD/svg11.dtd">
<!-- Created with matplotlib (https://matplotlib.org/) -->
<svg height="432pt" version="1.1" viewBox="0 0 504 432" width="504pt" xmlns="http://www.w3.org/2000/svg" xmlns:xlink="http://www.w3.org/1999/xlink">
 <defs>
  <style type="text/css">
*{stroke-linecap:butt;stroke-linejoin:round;}
  </style>
 </defs>
 <g id="figure_1">
  <g id="patch_1">
   <path d="M 0 432 
L 504 432 
L 504 0 
L 0 0 
z
" style="fill:#ffffff;"/>
  </g>
  <g id="axes_1">
   <g id="patch_2">
    <path d="M 63 384.48 
L 453.6 384.48 
L 453.6 51.84 
L 63 51.84 
z
" style="fill:#ffffff;"/>
   </g>
   <g id="matplotlib.axis_1">
    <g id="xtick_1">
     <g id="line2d_1">
      <defs>
       <path d="M 0 0 
L 0 3.5 
" id="me7642043f3" style="stroke:#000000;stroke-width:0.8;"/>
      </defs>
      <g>
       <use style="stroke:#000000;stroke-width:0.8;" x="80.754545" xlink:href="#me7642043f3" y="384.48"/>
      </g>
     </g>
     <g id="text_1">
      <!-- 0 -->
      <defs>
       <path d="M 31.78125 66.40625 
Q 24.171875 66.40625 20.328125 58.90625 
Q 16.5 51.421875 16.5 36.375 
Q 16.5 21.390625 20.328125 13.890625 
Q 24.171875 6.390625 31.78125 6.390625 
Q 39.453125 6.390625 43.28125 13.890625 
Q 47.125 21.390625 47.125 36.375 
Q 47.125 51.421875 43.28125 58.90625 
Q 39.453125 66.40625 31.78125 66.40625 
z
M 31.78125 74.21875 
Q 44.046875 74.21875 50.515625 64.515625 
Q 56.984375 54.828125 56.984375 36.375 
Q 56.984375 17.96875 50.515625 8.265625 
Q 44.046875 -1.421875 31.78125 -1.421875 
Q 19.53125 -1.421875 13.0625 8.265625 
Q 6.59375 17.96875 6.59375 36.375 
Q 6.59375 54.828125 13.0625 64.515625 
Q 19.53125 74.21875 31.78125 74.21875 
z
" id="DejaVuSans-48"/>
      </defs>
      <g transform="translate(77.573295 399.078438)scale(0.1 -0.1)">
       <use xlink:href="#DejaVuSans-48"/>
      </g>
     </g>
    </g>
    <g id="xtick_2">
     <g id="line2d_2">
      <g>
       <use style="stroke:#000000;stroke-width:0.8;" x="151.767796" xlink:href="#me7642043f3" y="384.48"/>
      </g>
     </g>
     <g id="text_2">
      <!-- 720 -->
      <defs>
       <path d="M 8.203125 72.90625 
L 55.078125 72.90625 
L 55.078125 68.703125 
L 28.609375 0 
L 18.3125 0 
L 43.21875 64.59375 
L 8.203125 64.59375 
z
" id="DejaVuSans-55"/>
       <path d="M 19.1875 8.296875 
L 53.609375 8.296875 
L 53.609375 0 
L 7.328125 0 
L 7.328125 8.296875 
Q 12.9375 14.109375 22.625 23.890625 
Q 32.328125 33.6875 34.8125 36.53125 
Q 39.546875 41.84375 41.421875 45.53125 
Q 43.3125 49.21875 43.3125 52.78125 
Q 43.3125 58.59375 39.234375 62.25 
Q 35.15625 65.921875 28.609375 65.921875 
Q 23.96875 65.921875 18.8125 64.3125 
Q 13.671875 62.703125 7.8125 59.421875 
L 7.8125 69.390625 
Q 13.765625 71.78125 18.9375 73 
Q 24.125 74.21875 28.421875 74.21875 
Q 39.75 74.21875 46.484375 68.546875 
Q 53.21875 62.890625 53.21875 53.421875 
Q 53.21875 48.921875 51.53125 44.890625 
Q 49.859375 40.875 45.40625 35.40625 
Q 44.1875 33.984375 37.640625 27.21875 
Q 31.109375 20.453125 19.1875 8.296875 
z
" id="DejaVuSans-50"/>
      </defs>
      <g transform="translate(142.224046 399.078438)scale(0.1 -0.1)">
       <use xlink:href="#DejaVuSans-55"/>
       <use x="63.623047" xlink:href="#DejaVuSans-50"/>
       <use x="127.246094" xlink:href="#DejaVuSans-48"/>
      </g>
     </g>
    </g>
    <g id="xtick_3">
     <g id="line2d_3">
      <g>
       <use style="stroke:#000000;stroke-width:0.8;" x="222.781046" xlink:href="#me7642043f3" y="384.48"/>
      </g>
     </g>
     <g id="text_3">
      <!-- 1440 -->
      <defs>
       <path d="M 12.40625 8.296875 
L 28.515625 8.296875 
L 28.515625 63.921875 
L 10.984375 60.40625 
L 10.984375 69.390625 
L 28.421875 72.90625 
L 38.28125 72.90625 
L 38.28125 8.296875 
L 54.390625 8.296875 
L 54.390625 0 
L 12.40625 0 
z
" id="DejaVuSans-49"/>
       <path d="M 37.796875 64.3125 
L 12.890625 25.390625 
L 37.796875 25.390625 
z
M 35.203125 72.90625 
L 47.609375 72.90625 
L 47.609375 25.390625 
L 58.015625 25.390625 
L 58.015625 17.1875 
L 47.609375 17.1875 
L 47.609375 0 
L 37.796875 0 
L 37.796875 17.1875 
L 4.890625 17.1875 
L 4.890625 26.703125 
z
" id="DejaVuSans-52"/>
      </defs>
      <g transform="translate(210.056046 399.078438)scale(0.1 -0.1)">
       <use xlink:href="#DejaVuSans-49"/>
       <use x="63.623047" xlink:href="#DejaVuSans-52"/>
       <use x="127.246094" xlink:href="#DejaVuSans-52"/>
       <use x="190.869141" xlink:href="#DejaVuSans-48"/>
      </g>
     </g>
    </g>
    <g id="xtick_4">
     <g id="line2d_4">
      <g>
       <use style="stroke:#000000;stroke-width:0.8;" x="293.794296" xlink:href="#me7642043f3" y="384.48"/>
      </g>
     </g>
     <g id="text_4">
      <!-- 2160 -->
      <defs>
       <path d="M 33.015625 40.375 
Q 26.375 40.375 22.484375 35.828125 
Q 18.609375 31.296875 18.609375 23.390625 
Q 18.609375 15.53125 22.484375 10.953125 
Q 26.375 6.390625 33.015625 6.390625 
Q 39.65625 6.390625 43.53125 10.953125 
Q 47.40625 15.53125 47.40625 23.390625 
Q 47.40625 31.296875 43.53125 35.828125 
Q 39.65625 40.375 33.015625 40.375 
z
M 52.59375 71.296875 
L 52.59375 62.3125 
Q 48.875 64.0625 45.09375 64.984375 
Q 41.3125 65.921875 37.59375 65.921875 
Q 27.828125 65.921875 22.671875 59.328125 
Q 17.53125 52.734375 16.796875 39.40625 
Q 19.671875 43.65625 24.015625 45.921875 
Q 28.375 48.1875 33.59375 48.1875 
Q 44.578125 48.1875 50.953125 41.515625 
Q 57.328125 34.859375 57.328125 23.390625 
Q 57.328125 12.15625 50.6875 5.359375 
Q 44.046875 -1.421875 33.015625 -1.421875 
Q 20.359375 -1.421875 13.671875 8.265625 
Q 6.984375 17.96875 6.984375 36.375 
Q 6.984375 53.65625 15.1875 63.9375 
Q 23.390625 74.21875 37.203125 74.21875 
Q 40.921875 74.21875 44.703125 73.484375 
Q 48.484375 72.75 52.59375 71.296875 
z
" id="DejaVuSans-54"/>
      </defs>
      <g transform="translate(281.069296 399.078438)scale(0.1 -0.1)">
       <use xlink:href="#DejaVuSans-50"/>
       <use x="63.623047" xlink:href="#DejaVuSans-49"/>
       <use x="127.246094" xlink:href="#DejaVuSans-54"/>
       <use x="190.869141" xlink:href="#DejaVuSans-48"/>
      </g>
     </g>
    </g>
    <g id="xtick_5">
     <g id="line2d_5">
      <g>
       <use style="stroke:#000000;stroke-width:0.8;" x="364.807547" xlink:href="#me7642043f3" y="384.48"/>
      </g>
     </g>
     <g id="text_5">
      <!-- 2880 -->
      <defs>
       <path d="M 31.78125 34.625 
Q 24.75 34.625 20.71875 30.859375 
Q 16.703125 27.09375 16.703125 20.515625 
Q 16.703125 13.921875 20.71875 10.15625 
Q 24.75 6.390625 31.78125 6.390625 
Q 38.8125 6.390625 42.859375 10.171875 
Q 46.921875 13.96875 46.921875 20.515625 
Q 46.921875 27.09375 42.890625 30.859375 
Q 38.875 34.625 31.78125 34.625 
z
M 21.921875 38.8125 
Q 15.578125 40.375 12.03125 44.71875 
Q 8.5 49.078125 8.5 55.328125 
Q 8.5 64.0625 14.71875 69.140625 
Q 20.953125 74.21875 31.78125 74.21875 
Q 42.671875 74.21875 48.875 69.140625 
Q 55.078125 64.0625 55.078125 55.328125 
Q 55.078125 49.078125 51.53125 44.71875 
Q 48 40.375 41.703125 38.8125 
Q 48.828125 37.15625 52.796875 32.3125 
Q 56.78125 27.484375 56.78125 20.515625 
Q 56.78125 9.90625 50.3125 4.234375 
Q 43.84375 -1.421875 31.78125 -1.421875 
Q 19.734375 -1.421875 13.25 4.234375 
Q 6.78125 9.90625 6.78125 20.515625 
Q 6.78125 27.484375 10.78125 32.3125 
Q 14.796875 37.15625 21.921875 38.8125 
z
M 18.3125 54.390625 
Q 18.3125 48.734375 21.84375 45.5625 
Q 25.390625 42.390625 31.78125 42.390625 
Q 38.140625 42.390625 41.71875 45.5625 
Q 45.3125 48.734375 45.3125 54.390625 
Q 45.3125 60.0625 41.71875 63.234375 
Q 38.140625 66.40625 31.78125 66.40625 
Q 25.390625 66.40625 21.84375 63.234375 
Q 18.3125 60.0625 18.3125 54.390625 
z
" id="DejaVuSans-56"/>
      </defs>
      <g transform="translate(352.082547 399.078438)scale(0.1 -0.1)">
       <use xlink:href="#DejaVuSans-50"/>
       <use x="63.623047" xlink:href="#DejaVuSans-56"/>
       <use x="127.246094" xlink:href="#DejaVuSans-56"/>
       <use x="190.869141" xlink:href="#DejaVuSans-48"/>
      </g>
     </g>
    </g>
    <g id="text_6">
     <!-- time [ms] -->
     <defs>
      <path d="M 18.3125 70.21875 
L 18.3125 54.6875 
L 36.8125 54.6875 
L 36.8125 47.703125 
L 18.3125 47.703125 
L 18.3125 18.015625 
Q 18.3125 11.328125 20.140625 9.421875 
Q 21.96875 7.515625 27.59375 7.515625 
L 36.8125 7.515625 
L 36.8125 0 
L 27.59375 0 
Q 17.1875 0 13.234375 3.875 
Q 9.28125 7.765625 9.28125 18.015625 
L 9.28125 47.703125 
L 2.6875 47.703125 
L 2.6875 54.6875 
L 9.28125 54.6875 
L 9.28125 70.21875 
z
" id="DejaVuSans-116"/>
      <path d="M 9.421875 54.6875 
L 18.40625 54.6875 
L 18.40625 0 
L 9.421875 0 
z
M 9.421875 75.984375 
L 18.40625 75.984375 
L 18.40625 64.59375 
L 9.421875 64.59375 
z
" id="DejaVuSans-105"/>
      <path d="M 52 44.1875 
Q 55.375 50.25 60.0625 53.125 
Q 64.75 56 71.09375 56 
Q 79.640625 56 84.28125 50.015625 
Q 88.921875 44.046875 88.921875 33.015625 
L 88.921875 0 
L 79.890625 0 
L 79.890625 32.71875 
Q 79.890625 40.578125 77.09375 44.375 
Q 74.3125 48.1875 68.609375 48.1875 
Q 61.625 48.1875 57.5625 43.546875 
Q 53.515625 38.921875 53.515625 30.90625 
L 53.515625 0 
L 44.484375 0 
L 44.484375 32.71875 
Q 44.484375 40.625 41.703125 44.40625 
Q 38.921875 48.1875 33.109375 48.1875 
Q 26.21875 48.1875 22.15625 43.53125 
Q 18.109375 38.875 18.109375 30.90625 
L 18.109375 0 
L 9.078125 0 
L 9.078125 54.6875 
L 18.109375 54.6875 
L 18.109375 46.1875 
Q 21.1875 51.21875 25.484375 53.609375 
Q 29.78125 56 35.6875 56 
Q 41.65625 56 45.828125 52.96875 
Q 50 49.953125 52 44.1875 
z
" id="DejaVuSans-109"/>
      <path d="M 56.203125 29.59375 
L 56.203125 25.203125 
L 14.890625 25.203125 
Q 15.484375 15.921875 20.484375 11.0625 
Q 25.484375 6.203125 34.421875 6.203125 
Q 39.59375 6.203125 44.453125 7.46875 
Q 49.3125 8.734375 54.109375 11.28125 
L 54.109375 2.78125 
Q 49.265625 0.734375 44.1875 -0.34375 
Q 39.109375 -1.421875 33.890625 -1.421875 
Q 20.796875 -1.421875 13.15625 6.1875 
Q 5.515625 13.8125 5.515625 26.8125 
Q 5.515625 40.234375 12.765625 48.109375 
Q 20.015625 56 32.328125 56 
Q 43.359375 56 49.78125 48.890625 
Q 56.203125 41.796875 56.203125 29.59375 
z
M 47.21875 32.234375 
Q 47.125 39.59375 43.09375 43.984375 
Q 39.0625 48.390625 32.421875 48.390625 
Q 24.90625 48.390625 20.390625 44.140625 
Q 15.875 39.890625 15.1875 32.171875 
z
" id="DejaVuSans-101"/>
      <path id="DejaVuSans-32"/>
      <path d="M 8.59375 75.984375 
L 29.296875 75.984375 
L 29.296875 69 
L 17.578125 69 
L 17.578125 -6.203125 
L 29.296875 -6.203125 
L 29.296875 -13.1875 
L 8.59375 -13.1875 
z
" id="DejaVuSans-91"/>
      <path d="M 44.28125 53.078125 
L 44.28125 44.578125 
Q 40.484375 46.53125 36.375 47.5 
Q 32.28125 48.484375 27.875 48.484375 
Q 21.1875 48.484375 17.84375 46.4375 
Q 14.5 44.390625 14.5 40.28125 
Q 14.5 37.15625 16.890625 35.375 
Q 19.28125 33.59375 26.515625 31.984375 
L 29.59375 31.296875 
Q 39.15625 29.25 43.1875 25.515625 
Q 47.21875 21.78125 47.21875 15.09375 
Q 47.21875 7.46875 41.1875 3.015625 
Q 35.15625 -1.421875 24.609375 -1.421875 
Q 20.21875 -1.421875 15.453125 -0.5625 
Q 10.6875 0.296875 5.421875 2 
L 5.421875 11.28125 
Q 10.40625 8.6875 15.234375 7.390625 
Q 20.0625 6.109375 24.8125 6.109375 
Q 31.15625 6.109375 34.5625 8.28125 
Q 37.984375 10.453125 37.984375 14.40625 
Q 37.984375 18.0625 35.515625 20.015625 
Q 33.0625 21.96875 24.703125 23.78125 
L 21.578125 24.515625 
Q 13.234375 26.265625 9.515625 29.90625 
Q 5.8125 33.546875 5.8125 39.890625 
Q 5.8125 47.609375 11.28125 51.796875 
Q 16.75 56 26.8125 56 
Q 31.78125 56 36.171875 55.265625 
Q 40.578125 54.546875 44.28125 53.078125 
z
" id="DejaVuSans-115"/>
      <path d="M 30.421875 75.984375 
L 30.421875 -13.1875 
L 9.71875 -13.1875 
L 9.71875 -6.203125 
L 21.390625 -6.203125 
L 21.390625 69 
L 9.71875 69 
L 9.71875 75.984375 
z
" id="DejaVuSans-93"/>
     </defs>
     <g transform="translate(234.038281 412.756563)scale(0.1 -0.1)">
      <use xlink:href="#DejaVuSans-116"/>
      <use x="39.208984" xlink:href="#DejaVuSans-105"/>
      <use x="66.992188" xlink:href="#DejaVuSans-109"/>
      <use x="164.404297" xlink:href="#DejaVuSans-101"/>
      <use x="225.927734" xlink:href="#DejaVuSans-32"/>
      <use x="257.714844" xlink:href="#DejaVuSans-91"/>
      <use x="296.728516" xlink:href="#DejaVuSans-109"/>
      <use x="394.140625" xlink:href="#DejaVuSans-115"/>
      <use x="446.240234" xlink:href="#DejaVuSans-93"/>
     </g>
    </g>
   </g>
   <g id="matplotlib.axis_2">
    <g id="ytick_1">
     <g id="line2d_6">
      <defs>
       <path d="M 0 0 
L -3.5 0 
" id="mfaf95f5f2d" style="stroke:#000000;stroke-width:0.8;"/>
      </defs>
      <g>
       <use style="stroke:#000000;stroke-width:0.8;" x="63" xlink:href="#mfaf95f5f2d" y="378.192633"/>
      </g>
     </g>
     <g id="text_7">
      <!-- −80 -->
      <defs>
       <path d="M 10.59375 35.5 
L 73.1875 35.5 
L 73.1875 27.203125 
L 10.59375 27.203125 
z
" id="DejaVuSans-8722"/>
      </defs>
      <g transform="translate(34.895313 381.991852)scale(0.1 -0.1)">
       <use xlink:href="#DejaVuSans-8722"/>
       <use x="83.789062" xlink:href="#DejaVuSans-56"/>
       <use x="147.412109" xlink:href="#DejaVuSans-48"/>
      </g>
     </g>
    </g>
    <g id="ytick_2">
     <g id="line2d_7">
      <g>
       <use style="stroke:#000000;stroke-width:0.8;" x="63" xlink:href="#mfaf95f5f2d" y="329.252702"/>
      </g>
     </g>
     <g id="text_8">
      <!-- −60 -->
      <g transform="translate(34.895313 333.051921)scale(0.1 -0.1)">
       <use xlink:href="#DejaVuSans-8722"/>
       <use x="83.789062" xlink:href="#DejaVuSans-54"/>
       <use x="147.412109" xlink:href="#DejaVuSans-48"/>
      </g>
     </g>
    </g>
    <g id="ytick_3">
     <g id="line2d_8">
      <g>
       <use style="stroke:#000000;stroke-width:0.8;" x="63" xlink:href="#mfaf95f5f2d" y="280.312771"/>
      </g>
     </g>
     <g id="text_9">
      <!-- −40 -->
      <g transform="translate(34.895313 284.11199)scale(0.1 -0.1)">
       <use xlink:href="#DejaVuSans-8722"/>
       <use x="83.789062" xlink:href="#DejaVuSans-52"/>
       <use x="147.412109" xlink:href="#DejaVuSans-48"/>
      </g>
     </g>
    </g>
    <g id="ytick_4">
     <g id="line2d_9">
      <g>
       <use style="stroke:#000000;stroke-width:0.8;" x="63" xlink:href="#mfaf95f5f2d" y="231.37284"/>
      </g>
     </g>
     <g id="text_10">
      <!-- −20 -->
      <g transform="translate(34.895313 235.172059)scale(0.1 -0.1)">
       <use xlink:href="#DejaVuSans-8722"/>
       <use x="83.789062" xlink:href="#DejaVuSans-50"/>
       <use x="147.412109" xlink:href="#DejaVuSans-48"/>
      </g>
     </g>
    </g>
    <g id="ytick_5">
     <g id="line2d_10">
      <g>
       <use style="stroke:#000000;stroke-width:0.8;" x="63" xlink:href="#mfaf95f5f2d" y="182.43291"/>
      </g>
     </g>
     <g id="text_11">
      <!-- 0 -->
      <g transform="translate(49.6375 186.232128)scale(0.1 -0.1)">
       <use xlink:href="#DejaVuSans-48"/>
      </g>
     </g>
    </g>
    <g id="ytick_6">
     <g id="line2d_11">
      <g>
       <use style="stroke:#000000;stroke-width:0.8;" x="63" xlink:href="#mfaf95f5f2d" y="133.492979"/>
      </g>
     </g>
     <g id="text_12">
      <!-- 20 -->
      <g transform="translate(43.275 137.292197)scale(0.1 -0.1)">
       <use xlink:href="#DejaVuSans-50"/>
       <use x="63.623047" xlink:href="#DejaVuSans-48"/>
      </g>
     </g>
    </g>
    <g id="ytick_7">
     <g id="line2d_12">
      <g>
       <use style="stroke:#000000;stroke-width:0.8;" x="63" xlink:href="#mfaf95f5f2d" y="84.553048"/>
      </g>
     </g>
     <g id="text_13">
      <!-- 40 -->
      <g transform="translate(43.275 88.352267)scale(0.1 -0.1)">
       <use xlink:href="#DejaVuSans-52"/>
       <use x="63.623047" xlink:href="#DejaVuSans-48"/>
      </g>
     </g>
    </g>
    <g id="text_14">
     <!-- Voltage [mV] -->
     <defs>
      <path d="M 28.609375 0 
L 0.78125 72.90625 
L 11.078125 72.90625 
L 34.1875 11.53125 
L 57.328125 72.90625 
L 67.578125 72.90625 
L 39.796875 0 
z
" id="DejaVuSans-86"/>
      <path d="M 30.609375 48.390625 
Q 23.390625 48.390625 19.1875 42.75 
Q 14.984375 37.109375 14.984375 27.296875 
Q 14.984375 17.484375 19.15625 11.84375 
Q 23.34375 6.203125 30.609375 6.203125 
Q 37.796875 6.203125 41.984375 11.859375 
Q 46.1875 17.53125 46.1875 27.296875 
Q 46.1875 37.015625 41.984375 42.703125 
Q 37.796875 48.390625 30.609375 48.390625 
z
M 30.609375 56 
Q 42.328125 56 49.015625 48.375 
Q 55.71875 40.765625 55.71875 27.296875 
Q 55.71875 13.875 49.015625 6.21875 
Q 42.328125 -1.421875 30.609375 -1.421875 
Q 18.84375 -1.421875 12.171875 6.21875 
Q 5.515625 13.875 5.515625 27.296875 
Q 5.515625 40.765625 12.171875 48.375 
Q 18.84375 56 30.609375 56 
z
" id="DejaVuSans-111"/>
      <path d="M 9.421875 75.984375 
L 18.40625 75.984375 
L 18.40625 0 
L 9.421875 0 
z
" id="DejaVuSans-108"/>
      <path d="M 34.28125 27.484375 
Q 23.390625 27.484375 19.1875 25 
Q 14.984375 22.515625 14.984375 16.5 
Q 14.984375 11.71875 18.140625 8.90625 
Q 21.296875 6.109375 26.703125 6.109375 
Q 34.1875 6.109375 38.703125 11.40625 
Q 43.21875 16.703125 43.21875 25.484375 
L 43.21875 27.484375 
z
M 52.203125 31.203125 
L 52.203125 0 
L 43.21875 0 
L 43.21875 8.296875 
Q 40.140625 3.328125 35.546875 0.953125 
Q 30.953125 -1.421875 24.3125 -1.421875 
Q 15.921875 -1.421875 10.953125 3.296875 
Q 6 8.015625 6 15.921875 
Q 6 25.140625 12.171875 29.828125 
Q 18.359375 34.515625 30.609375 34.515625 
L 43.21875 34.515625 
L 43.21875 35.40625 
Q 43.21875 41.609375 39.140625 45 
Q 35.0625 48.390625 27.6875 48.390625 
Q 23 48.390625 18.546875 47.265625 
Q 14.109375 46.140625 10.015625 43.890625 
L 10.015625 52.203125 
Q 14.9375 54.109375 19.578125 55.046875 
Q 24.21875 56 28.609375 56 
Q 40.484375 56 46.34375 49.84375 
Q 52.203125 43.703125 52.203125 31.203125 
z
" id="DejaVuSans-97"/>
      <path d="M 45.40625 27.984375 
Q 45.40625 37.75 41.375 43.109375 
Q 37.359375 48.484375 30.078125 48.484375 
Q 22.859375 48.484375 18.828125 43.109375 
Q 14.796875 37.75 14.796875 27.984375 
Q 14.796875 18.265625 18.828125 12.890625 
Q 22.859375 7.515625 30.078125 7.515625 
Q 37.359375 7.515625 41.375 12.890625 
Q 45.40625 18.265625 45.40625 27.984375 
z
M 54.390625 6.78125 
Q 54.390625 -7.171875 48.1875 -13.984375 
Q 42 -20.796875 29.203125 -20.796875 
Q 24.46875 -20.796875 20.265625 -20.09375 
Q 16.0625 -19.390625 12.109375 -17.921875 
L 12.109375 -9.1875 
Q 16.0625 -11.328125 19.921875 -12.34375 
Q 23.78125 -13.375 27.78125 -13.375 
Q 36.625 -13.375 41.015625 -8.765625 
Q 45.40625 -4.15625 45.40625 5.171875 
L 45.40625 9.625 
Q 42.625 4.78125 38.28125 2.390625 
Q 33.9375 0 27.875 0 
Q 17.828125 0 11.671875 7.65625 
Q 5.515625 15.328125 5.515625 27.984375 
Q 5.515625 40.671875 11.671875 48.328125 
Q 17.828125 56 27.875 56 
Q 33.9375 56 38.28125 53.609375 
Q 42.625 51.21875 45.40625 46.390625 
L 45.40625 54.6875 
L 54.390625 54.6875 
z
" id="DejaVuSans-103"/>
     </defs>
     <g transform="translate(28.815625 251.079531)rotate(-90)scale(0.1 -0.1)">
      <use xlink:href="#DejaVuSans-86"/>
      <use x="68.298828" xlink:href="#DejaVuSans-111"/>
      <use x="129.480469" xlink:href="#DejaVuSans-108"/>
      <use x="157.263672" xlink:href="#DejaVuSans-116"/>
      <use x="196.472656" xlink:href="#DejaVuSans-97"/>
      <use x="257.751953" xlink:href="#DejaVuSans-103"/>
      <use x="321.228516" xlink:href="#DejaVuSans-101"/>
      <use x="382.751953" xlink:href="#DejaVuSans-32"/>
      <use x="414.539062" xlink:href="#DejaVuSans-91"/>
      <use x="453.552734" xlink:href="#DejaVuSans-109"/>
      <use x="550.964844" xlink:href="#DejaVuSans-86"/>
      <use x="619.373047" xlink:href="#DejaVuSans-93"/>
     </g>
    </g>
   </g>
   <g id="line2d_13">
    <path clip-path="url(#p359c78fa09)" d="M 80.754545 341.487685 
L 81.267419 337.428093 
L 81.770429 334.654699 
L 82.233988 333.225799 
L 82.677821 332.508981 
L 83.121654 332.186803 
L 83.614801 332.103777 
L 84.295345 332.235599 
L 85.932595 332.863084 
L 87.78683 333.448512 
L 89.769283 333.828586 
L 92.412554 334.093869 
L 96.540199 334.261351 
L 100.480448 334.316483 
L 100.633324 348.328097 
L 100.95387 357.432826 
L 101.377977 363.707446 
L 101.807015 367.091342 
L 102.201533 368.65638 
L 102.546737 369.243992 
L 102.837694 369.359374 
L 103.143445 369.229259 
L 103.59221 368.755873 
L 104.73138 367.098881 
L 105.76699 365.819167 
L 106.674382 365.043111 
L 107.631088 364.516753 
L 108.755465 364.159711 
L 110.254633 363.932378 
L 112.764754 363.807869 
L 120.600869 363.736771 
L 130.069303 363.7167 
L 130.222178 349.507042 
L 130.552587 339.475311 
L 130.991489 332.231462 
L 131.435321 328.198738 
L 131.849565 326.22276 
L 132.204632 325.45044 
L 132.490657 325.276473 
L 132.752025 325.377164 
L 133.107092 325.792336 
L 133.728458 326.929397 
L 135.380502 330.025016 
L 136.312551 331.25011 
L 137.264326 332.140783 
L 138.31473 332.81889 
L 139.542667 333.341955 
L 139.932254 333.465226 
L 139.937186 341.487685 
L 140.045678 340.677047 
L 140.839646 335.15118 
L 141.308136 333.485973 
L 141.7569 332.633726 
L 142.195801 332.238667 
L 142.669223 332.105582 
L 143.285658 332.180499 
L 144.419897 332.588818 
L 146.639061 333.362324 
L 148.552474 333.76816 
L 151.033006 334.052731 
L 154.780927 334.237573 
L 159.663088 334.316483 
L 159.815964 331.494085 
L 160.141442 329.587907 
L 160.565548 328.301593 
L 161.00445 327.618168 
L 161.453214 327.304763 
L 161.966088 327.218914 
L 162.691015 327.344376 
L 167.647148 328.619243 
L 170.334802 328.858021 
L 174.728747 328.998024 
L 185.247584 329.051162 
L 189.251943 329.053509 
L 189.404818 331.876654 
L 189.720433 333.687696 
L 190.129745 334.86135 
L 190.563715 335.48137 
L 191.027274 335.771845 
L 191.594394 335.856698 
L 192.472196 335.736058 
L 197.379015 334.78091 
L 199.114894 334.624117 
L 199.119826 341.487685 
L 199.228318 340.677047 
L 200.022286 335.15118 
L 200.490776 333.485973 
L 200.93954 332.633726 
L 201.378442 332.238667 
L 201.851863 332.105582 
L 202.468298 332.180499 
L 203.602537 332.588818 
L 205.821701 333.362324 
L 207.735114 333.76816 
L 210.215646 334.052731 
L 213.963568 334.237573 
L 218.845729 334.316483 
L 218.998604 328.654178 
L 219.329013 324.663623 
L 219.78764 321.607346 
L 220.275856 319.720807 
L 220.734484 318.734566 
L 221.119139 318.367622 
L 221.434753 318.345752 
L 221.775025 318.564315 
L 222.268173 319.19079 
L 224.216106 321.921315 
L 225.069251 322.612573 
L 226.030889 323.103366 
L 227.244032 323.462154 
L 228.960185 323.720228 
L 231.756332 323.890922 
L 237.526159 323.978884 
L 248.434583 323.997843 
L 248.587459 329.694883 
L 248.898142 333.264738 
L 249.29266 335.480991 
L 249.697041 336.614209 
L 250.09649 337.137297 
L 250.510734 337.331925 
L 251.013745 337.311415 
L 251.807712 337.025577 
L 255.323854 335.562716 
L 257.266856 335.094639 
L 258.297534 334.923458 
L 258.302466 341.487685 
L 258.410958 340.677047 
L 259.204926 335.15118 
L 259.673416 333.485973 
L 260.12218 332.633726 
L 260.561082 332.238667 
L 261.034503 332.105582 
L 261.650938 332.180499 
L 262.785177 332.588818 
L 265.004341 333.362324 
L 266.917754 333.76816 
L 269.398286 334.052731 
L 273.146208 334.237573 
L 278.028369 334.316483 
L 278.181244 325.789633 
L 278.541242 318.8832 
L 278.866719 312.106238 
L 278.896308 306.50715 
L 278.940692 67.077052 
L 279.054116 195.139351 
L 279.246443 349.150101 
L 279.359867 350.366523 
L 279.394387 350.305917 
L 279.507811 349.508275 
L 279.764248 345.776618 
L 281.145061 322.855308 
L 281.657935 319.090414 
L 282.200397 316.660325 
L 282.806969 314.926551 
L 283.536827 313.515759 
L 284.232165 312.142529 
L 284.399835 311.203888 
L 284.48367 309.216838 
L 284.508328 299.647382 
L 284.552711 68.474172 
L 284.646409 171.596885 
L 284.878188 349.070274 
L 284.991612 350.022238 
L 285.026133 349.960054 
L 285.139557 349.201089 
L 285.400925 345.590222 
L 286.584479 327.381648 
L 287.062832 323.988459 
L 287.546117 322.026848 
L 288.049127 320.852547 
L 288.586658 320.133644 
L 289.19323 319.68655 
L 289.947745 319.414598 
L 291.037602 319.278416 
L 293.202519 319.278705 
L 303.252867 319.394327 
L 307.617223 319.395144 
L 307.77503 328.104747 
L 308.080782 333.193228 
L 308.465437 336.248651 
L 308.859955 337.782761 
L 309.239678 338.468931 
L 309.609539 338.722047 
L 310.018852 338.732308 
L 310.595834 338.499902 
L 311.853361 337.685486 
L 313.682938 336.591245 
L 315.295531 335.895138 
L 317.095519 335.365882 
L 317.480174 335.279177 
L 317.485106 341.487685 
L 317.593598 340.677047 
L 318.387566 335.15118 
L 318.856056 333.485973 
L 319.30482 332.633726 
L 319.743722 332.238667 
L 320.217143 332.105582 
L 320.833578 332.180499 
L 321.967817 332.588818 
L 324.186981 333.362324 
L 326.100394 333.76816 
L 328.580926 334.052731 
L 332.328848 334.237573 
L 337.211009 334.316483 
L 337.368816 322.700698 
L 337.714019 308.286125 
L 337.738677 227.144452 
L 337.763334 66.96 
L 337.852101 160.960552 
L 338.088811 347.962268 
L 338.157852 348.411284 
L 338.212098 348.239851 
L 338.360043 346.701982 
L 338.680588 340.61601 
L 339.775376 318.447848 
L 340.28825 309.551012 
L 340.32277 303.11139 
L 340.367153 69.036298 
L 340.470714 189.317596 
L 340.672905 348.214627 
L 340.766603 349.086414 
L 340.810986 348.96675 
L 340.944136 347.741798 
L 341.240024 342.567913 
L 342.374264 321.025635 
L 342.926589 315.602862 
L 343.547955 309.738603 
L 343.612064 306.000953 
L 343.63179 262.625094 
L 343.66631 70.223017 
L 343.760008 177.938779 
L 343.981925 347.264312 
L 344.075623 348.076699 
L 344.124938 347.954005 
L 344.258088 346.769401 
L 344.558908 341.679545 
L 345.579723 323.300729 
L 346.082734 318.647136 
L 346.610401 315.714394 
L 347.24163 313.450935 
L 348.134227 310.403493 
L 348.282172 308.810106 
L 348.336418 305.409473 
L 348.356144 260.587786 
L 348.390664 71.217772 
L 348.484362 177.207047 
L 348.706279 346.26324 
L 348.814771 347.279437 
L 348.854223 347.198182 
L 348.972578 346.289796 
L 349.243809 342.122292 
L 350.338597 323.774489 
L 350.826813 319.79596 
L 351.329824 317.392126 
L 351.872286 315.828205 
L 352.459132 314.783288 
L 353.090361 314.095789 
L 353.751178 313.694855 
L 354.446516 313.53137 
L 355.240484 313.581249 
L 356.478284 313.918034 
L 358.445943 314.418049 
L 360.157165 314.594456 
L 363.037147 314.627658 
L 366.799863 314.604434 
L 366.95767 326.498089 
L 367.253559 333.159488 
L 367.628351 337.085805 
L 368.013006 339.023737 
L 368.382867 339.880639 
L 368.733001 340.190869 
L 369.092999 340.218868 
L 369.566421 340.01013 
L 370.414635 339.348128 
L 372.781743 337.447643 
L 374.27598 336.574048 
L 375.873778 335.899905 
L 376.662814 335.646174 
L 376.667746 341.487685 
L 376.776238 340.677047 
L 377.570206 335.15118 
L 378.038696 333.485973 
L 378.48746 332.633726 
L 378.926362 332.238667 
L 379.399783 332.105582 
L 380.016218 332.180499 
L 381.150457 332.588818 
L 383.369621 333.362324 
L 385.283034 333.76816 
L 387.763566 334.052731 
L 391.511488 334.237573 
L 396.393649 334.316483 
L 396.551456 319.67944 
L 396.743784 305.846444 
L 396.788167 67.023034 
L 396.906522 205.151395 
L 397.074192 345.352546 
L 397.162959 346.531979 
L 397.212274 346.374248 
L 397.355287 344.757479 
L 397.670901 338.198727 
L 398.874181 306.122822 
L 398.888976 287.047119 
L 398.928427 68.865029 
L 399.027057 185.245817 
L 399.234179 347.414432 
L 399.303219 347.949344 
L 399.357466 347.746603 
L 399.510341 345.952305 
L 399.845682 338.933928 
L 400.910881 315.387389 
L 401.265947 307.716592 
L 401.295536 302.845335 
L 401.34485 70.310096 
L 401.458274 222.150858 
L 401.616082 345.436309 
L 401.724574 347.112489 
L 401.764026 347.013013 
L 401.887313 345.851148 
L 402.173338 340.609098 
L 403.391413 315.952777 
L 403.919081 307.462545 
L 403.953601 301.746875 
L 404.002916 71.386604 
L 404.106477 200.148789 
L 404.288941 345.127857 
L 404.392502 346.383579 
L 404.431954 346.281272 
L 404.555241 345.148994 
L 404.841267 340.039535 
L 405.975506 317.906293 
L 406.843446 305.626115 
L 406.85824 299.935775 
L 406.907555 72.17709 
L 407.001253 186.691234 
L 407.213307 345.078052 
L 407.302073 345.856822 
L 407.351388 345.712155 
L 407.489469 344.344778 
L 407.800152 338.618461 
L 408.771653 319.860784 
L 409.319047 314.089529 
L 409.910824 308.104738 
L 409.970001 304.87887 
L 409.984796 286.643077 
L 410.029179 72.643415 
L 410.122877 184.997903 
L 410.334931 344.627798 
L 410.428629 345.501346 
L 410.477943 345.365235 
L 410.616025 344.031465 
L 410.926708 338.402022 
L 411.878483 320.394926 
L 412.411082 314.94007 
L 413.224775 307.522998 
L 413.269159 304.157319 
L 413.288885 258.955223 
L 413.328336 73.160599 
L 413.417103 182.028627 
L 413.634088 344.431332 
L 413.727786 345.285571 
L 413.777101 345.155811 
L 413.910251 343.912793 
L 414.211071 338.601646 
L 415.187503 320.445146 
L 415.710239 315.265332 
L 416.652151 307.14485 
L 416.691603 302.031599 
L 416.745849 73.34294 
L 416.854342 216.993438 
L 417.012149 342.800554 
L 417.15023 345.126405 
L 417.165025 345.109471 
L 417.243928 344.683349 
L 417.441187 342.106628 
L 417.949129 331.659409 
L 418.560632 321.124163 
L 419.078437 315.844053 
L 419.758981 311.317823 
L 420.084458 308.514393 
L 420.168293 305.836411 
L 420.188019 298.243167 
L 420.237334 73.333973 
L 420.3261 179.974184 
L 420.548017 344.193822 
L 420.641715 345.01395 
L 420.69103 344.886567 
L 420.82418 343.662387 
L 421.125 338.416087 
L 422.091569 320.697548 
L 422.609374 315.644405 
L 423.314575 311.115641 
L 423.615395 308.52798 
L 423.704161 305.495148 
L 423.718956 300.502726 
L 423.768271 73.445086 
L 423.8669 191.861571 
L 424.069091 343.809284 
L 424.177583 344.931185 
L 424.217035 344.837517 
L 424.340322 343.792925 
L 424.621416 339.097137 
L 425.676752 320.091164 
L 425.982503 316.997916 
L 426.135379 329.701753 
L 426.411541 335.435304 
L 426.766608 338.682623 
L 427.136468 340.251669 
L 427.491535 340.901791 
L 427.821944 341.093484 
L 428.186873 341.041677 
L 428.709609 340.713524 
L 429.809328 339.693826 
L 431.678358 338.033127 
L 433.152869 337.029456 
L 434.691489 336.252166 
L 435.845455 335.816335 
L 435.845455 335.816335 
" style="fill:none;stroke:#ff0000;stroke-linecap:square;stroke-width:1.5;"/>
   </g>
   <g id="patch_3">
    <path d="M 63 384.48 
L 63 51.84 
" style="fill:none;stroke:#000000;stroke-linecap:square;stroke-linejoin:miter;stroke-width:0.8;"/>
   </g>
   <g id="patch_4">
    <path d="M 453.6 384.48 
L 453.6 51.84 
" style="fill:none;stroke:#000000;stroke-linecap:square;stroke-linejoin:miter;stroke-width:0.8;"/>
   </g>
   <g id="patch_5">
    <path d="M 63 384.48 
L 453.6 384.48 
" style="fill:none;stroke:#000000;stroke-linecap:square;stroke-linejoin:miter;stroke-width:0.8;"/>
   </g>
   <g id="patch_6">
    <path d="M 63 51.84 
L 453.6 51.84 
" style="fill:none;stroke:#000000;stroke-linecap:square;stroke-linejoin:miter;stroke-width:0.8;"/>
   </g>
   <g id="legend_1">
    <g id="patch_7">
     <path d="M 70 74.518125 
L 133.139062 74.518125 
Q 135.139062 74.518125 135.139062 72.518125 
L 135.139062 58.84 
Q 135.139062 56.84 133.139062 56.84 
L 70 56.84 
Q 68 56.84 68 58.84 
L 68 72.518125 
Q 68 74.518125 70 74.518125 
z
" style="fill:#ffffff;opacity:0.8;stroke:#cccccc;stroke-linejoin:miter;"/>
    </g>
    <g id="line2d_14">
     <path d="M 72 64.938438 
L 92 64.938438 
" style="fill:none;stroke:#ff0000;stroke-linecap:square;stroke-width:1.5;"/>
    </g>
    <g id="line2d_15"/>
    <g id="text_15">
     <!-- model -->
     <defs>
      <path d="M 45.40625 46.390625 
L 45.40625 75.984375 
L 54.390625 75.984375 
L 54.390625 0 
L 45.40625 0 
L 45.40625 8.203125 
Q 42.578125 3.328125 38.25 0.953125 
Q 33.9375 -1.421875 27.875 -1.421875 
Q 17.96875 -1.421875 11.734375 6.484375 
Q 5.515625 14.40625 5.515625 27.296875 
Q 5.515625 40.1875 11.734375 48.09375 
Q 17.96875 56 27.875 56 
Q 33.9375 56 38.25 53.625 
Q 42.578125 51.265625 45.40625 46.390625 
z
M 14.796875 27.296875 
Q 14.796875 17.390625 18.875 11.75 
Q 22.953125 6.109375 30.078125 6.109375 
Q 37.203125 6.109375 41.296875 11.75 
Q 45.40625 17.390625 45.40625 27.296875 
Q 45.40625 37.203125 41.296875 42.84375 
Q 37.203125 48.484375 30.078125 48.484375 
Q 22.953125 48.484375 18.875 42.84375 
Q 14.796875 37.203125 14.796875 27.296875 
z
" id="DejaVuSans-100"/>
     </defs>
     <g transform="translate(100 68.438438)scale(0.1 -0.1)">
      <use xlink:href="#DejaVuSans-109"/>
      <use x="97.412109" xlink:href="#DejaVuSans-111"/>
      <use x="158.59375" xlink:href="#DejaVuSans-100"/>
      <use x="222.070312" xlink:href="#DejaVuSans-101"/>
      <use x="283.59375" xlink:href="#DejaVuSans-108"/>
     </g>
    </g>
   </g>
  </g>
 </g>
 <defs>
  <clipPath id="p359c78fa09">
   <rect height="332.64" width="390.6" x="63" y="51.84"/>
  </clipPath>
 </defs>
</svg>
