<?xml version="1.0" encoding="utf-8" standalone="no"?>
<!DOCTYPE svg PUBLIC "-//W3C//DTD SVG 1.1//EN"
  "http://www.w3.org/Graphics/SVG/1.1/DTD/svg11.dtd">
<!-- Created with matplotlib (https://matplotlib.org/) -->
<svg height="432pt" version="1.1" viewBox="0 0 504 432" width="504pt" xmlns="http://www.w3.org/2000/svg" xmlns:xlink="http://www.w3.org/1999/xlink">
 <defs>
  <style type="text/css">
*{stroke-linecap:butt;stroke-linejoin:round;}
  </style>
 </defs>
 <g id="figure_1">
  <g id="patch_1">
   <path d="M 0 432 
L 504 432 
L 504 0 
L 0 0 
z
" style="fill:#ffffff;"/>
  </g>
  <g id="axes_1">
   <g id="patch_2">
    <path d="M 63 384.48 
L 453.6 384.48 
L 453.6 51.84 
L 63 51.84 
z
" style="fill:#ffffff;"/>
   </g>
   <g id="matplotlib.axis_1">
    <g id="xtick_1">
     <g id="line2d_1">
      <defs>
       <path d="M 0 0 
L 0 3.5 
" id="m2cad804f75" style="stroke:#000000;stroke-width:0.8;"/>
      </defs>
      <g>
       <use style="stroke:#000000;stroke-width:0.8;" x="80.754545" xlink:href="#m2cad804f75" y="384.48"/>
      </g>
     </g>
     <g id="text_1">
      <!-- 0 -->
      <defs>
       <path d="M 31.78125 66.40625 
Q 24.171875 66.40625 20.328125 58.90625 
Q 16.5 51.421875 16.5 36.375 
Q 16.5 21.390625 20.328125 13.890625 
Q 24.171875 6.390625 31.78125 6.390625 
Q 39.453125 6.390625 43.28125 13.890625 
Q 47.125 21.390625 47.125 36.375 
Q 47.125 51.421875 43.28125 58.90625 
Q 39.453125 66.40625 31.78125 66.40625 
z
M 31.78125 74.21875 
Q 44.046875 74.21875 50.515625 64.515625 
Q 56.984375 54.828125 56.984375 36.375 
Q 56.984375 17.96875 50.515625 8.265625 
Q 44.046875 -1.421875 31.78125 -1.421875 
Q 19.53125 -1.421875 13.0625 8.265625 
Q 6.59375 17.96875 6.59375 36.375 
Q 6.59375 54.828125 13.0625 64.515625 
Q 19.53125 74.21875 31.78125 74.21875 
z
" id="DejaVuSans-48"/>
      </defs>
      <g transform="translate(77.573295 399.078438)scale(0.1 -0.1)">
       <use xlink:href="#DejaVuSans-48"/>
      </g>
     </g>
    </g>
    <g id="xtick_2">
     <g id="line2d_2">
      <g>
       <use style="stroke:#000000;stroke-width:0.8;" x="151.767796" xlink:href="#m2cad804f75" y="384.48"/>
      </g>
     </g>
     <g id="text_2">
      <!-- 720 -->
      <defs>
       <path d="M 8.203125 72.90625 
L 55.078125 72.90625 
L 55.078125 68.703125 
L 28.609375 0 
L 18.3125 0 
L 43.21875 64.59375 
L 8.203125 64.59375 
z
" id="DejaVuSans-55"/>
       <path d="M 19.1875 8.296875 
L 53.609375 8.296875 
L 53.609375 0 
L 7.328125 0 
L 7.328125 8.296875 
Q 12.9375 14.109375 22.625 23.890625 
Q 32.328125 33.6875 34.8125 36.53125 
Q 39.546875 41.84375 41.421875 45.53125 
Q 43.3125 49.21875 43.3125 52.78125 
Q 43.3125 58.59375 39.234375 62.25 
Q 35.15625 65.921875 28.609375 65.921875 
Q 23.96875 65.921875 18.8125 64.3125 
Q 13.671875 62.703125 7.8125 59.421875 
L 7.8125 69.390625 
Q 13.765625 71.78125 18.9375 73 
Q 24.125 74.21875 28.421875 74.21875 
Q 39.75 74.21875 46.484375 68.546875 
Q 53.21875 62.890625 53.21875 53.421875 
Q 53.21875 48.921875 51.53125 44.890625 
Q 49.859375 40.875 45.40625 35.40625 
Q 44.1875 33.984375 37.640625 27.21875 
Q 31.109375 20.453125 19.1875 8.296875 
z
" id="DejaVuSans-50"/>
      </defs>
      <g transform="translate(142.224046 399.078438)scale(0.1 -0.1)">
       <use xlink:href="#DejaVuSans-55"/>
       <use x="63.623047" xlink:href="#DejaVuSans-50"/>
       <use x="127.246094" xlink:href="#DejaVuSans-48"/>
      </g>
     </g>
    </g>
    <g id="xtick_3">
     <g id="line2d_3">
      <g>
       <use style="stroke:#000000;stroke-width:0.8;" x="222.781046" xlink:href="#m2cad804f75" y="384.48"/>
      </g>
     </g>
     <g id="text_3">
      <!-- 1440 -->
      <defs>
       <path d="M 12.40625 8.296875 
L 28.515625 8.296875 
L 28.515625 63.921875 
L 10.984375 60.40625 
L 10.984375 69.390625 
L 28.421875 72.90625 
L 38.28125 72.90625 
L 38.28125 8.296875 
L 54.390625 8.296875 
L 54.390625 0 
L 12.40625 0 
z
" id="DejaVuSans-49"/>
       <path d="M 37.796875 64.3125 
L 12.890625 25.390625 
L 37.796875 25.390625 
z
M 35.203125 72.90625 
L 47.609375 72.90625 
L 47.609375 25.390625 
L 58.015625 25.390625 
L 58.015625 17.1875 
L 47.609375 17.1875 
L 47.609375 0 
L 37.796875 0 
L 37.796875 17.1875 
L 4.890625 17.1875 
L 4.890625 26.703125 
z
" id="DejaVuSans-52"/>
      </defs>
      <g transform="translate(210.056046 399.078438)scale(0.1 -0.1)">
       <use xlink:href="#DejaVuSans-49"/>
       <use x="63.623047" xlink:href="#DejaVuSans-52"/>
       <use x="127.246094" xlink:href="#DejaVuSans-52"/>
       <use x="190.869141" xlink:href="#DejaVuSans-48"/>
      </g>
     </g>
    </g>
    <g id="xtick_4">
     <g id="line2d_4">
      <g>
       <use style="stroke:#000000;stroke-width:0.8;" x="293.794296" xlink:href="#m2cad804f75" y="384.48"/>
      </g>
     </g>
     <g id="text_4">
      <!-- 2160 -->
      <defs>
       <path d="M 33.015625 40.375 
Q 26.375 40.375 22.484375 35.828125 
Q 18.609375 31.296875 18.609375 23.390625 
Q 18.609375 15.53125 22.484375 10.953125 
Q 26.375 6.390625 33.015625 6.390625 
Q 39.65625 6.390625 43.53125 10.953125 
Q 47.40625 15.53125 47.40625 23.390625 
Q 47.40625 31.296875 43.53125 35.828125 
Q 39.65625 40.375 33.015625 40.375 
z
M 52.59375 71.296875 
L 52.59375 62.3125 
Q 48.875 64.0625 45.09375 64.984375 
Q 41.3125 65.921875 37.59375 65.921875 
Q 27.828125 65.921875 22.671875 59.328125 
Q 17.53125 52.734375 16.796875 39.40625 
Q 19.671875 43.65625 24.015625 45.921875 
Q 28.375 48.1875 33.59375 48.1875 
Q 44.578125 48.1875 50.953125 41.515625 
Q 57.328125 34.859375 57.328125 23.390625 
Q 57.328125 12.15625 50.6875 5.359375 
Q 44.046875 -1.421875 33.015625 -1.421875 
Q 20.359375 -1.421875 13.671875 8.265625 
Q 6.984375 17.96875 6.984375 36.375 
Q 6.984375 53.65625 15.1875 63.9375 
Q 23.390625 74.21875 37.203125 74.21875 
Q 40.921875 74.21875 44.703125 73.484375 
Q 48.484375 72.75 52.59375 71.296875 
z
" id="DejaVuSans-54"/>
      </defs>
      <g transform="translate(281.069296 399.078438)scale(0.1 -0.1)">
       <use xlink:href="#DejaVuSans-50"/>
       <use x="63.623047" xlink:href="#DejaVuSans-49"/>
       <use x="127.246094" xlink:href="#DejaVuSans-54"/>
       <use x="190.869141" xlink:href="#DejaVuSans-48"/>
      </g>
     </g>
    </g>
    <g id="xtick_5">
     <g id="line2d_5">
      <g>
       <use style="stroke:#000000;stroke-width:0.8;" x="364.807547" xlink:href="#m2cad804f75" y="384.48"/>
      </g>
     </g>
     <g id="text_5">
      <!-- 2880 -->
      <defs>
       <path d="M 31.78125 34.625 
Q 24.75 34.625 20.71875 30.859375 
Q 16.703125 27.09375 16.703125 20.515625 
Q 16.703125 13.921875 20.71875 10.15625 
Q 24.75 6.390625 31.78125 6.390625 
Q 38.8125 6.390625 42.859375 10.171875 
Q 46.921875 13.96875 46.921875 20.515625 
Q 46.921875 27.09375 42.890625 30.859375 
Q 38.875 34.625 31.78125 34.625 
z
M 21.921875 38.8125 
Q 15.578125 40.375 12.03125 44.71875 
Q 8.5 49.078125 8.5 55.328125 
Q 8.5 64.0625 14.71875 69.140625 
Q 20.953125 74.21875 31.78125 74.21875 
Q 42.671875 74.21875 48.875 69.140625 
Q 55.078125 64.0625 55.078125 55.328125 
Q 55.078125 49.078125 51.53125 44.71875 
Q 48 40.375 41.703125 38.8125 
Q 48.828125 37.15625 52.796875 32.3125 
Q 56.78125 27.484375 56.78125 20.515625 
Q 56.78125 9.90625 50.3125 4.234375 
Q 43.84375 -1.421875 31.78125 -1.421875 
Q 19.734375 -1.421875 13.25 4.234375 
Q 6.78125 9.90625 6.78125 20.515625 
Q 6.78125 27.484375 10.78125 32.3125 
Q 14.796875 37.15625 21.921875 38.8125 
z
M 18.3125 54.390625 
Q 18.3125 48.734375 21.84375 45.5625 
Q 25.390625 42.390625 31.78125 42.390625 
Q 38.140625 42.390625 41.71875 45.5625 
Q 45.3125 48.734375 45.3125 54.390625 
Q 45.3125 60.0625 41.71875 63.234375 
Q 38.140625 66.40625 31.78125 66.40625 
Q 25.390625 66.40625 21.84375 63.234375 
Q 18.3125 60.0625 18.3125 54.390625 
z
" id="DejaVuSans-56"/>
      </defs>
      <g transform="translate(352.082547 399.078438)scale(0.1 -0.1)">
       <use xlink:href="#DejaVuSans-50"/>
       <use x="63.623047" xlink:href="#DejaVuSans-56"/>
       <use x="127.246094" xlink:href="#DejaVuSans-56"/>
       <use x="190.869141" xlink:href="#DejaVuSans-48"/>
      </g>
     </g>
    </g>
    <g id="text_6">
     <!-- time [ms] -->
     <defs>
      <path d="M 18.3125 70.21875 
L 18.3125 54.6875 
L 36.8125 54.6875 
L 36.8125 47.703125 
L 18.3125 47.703125 
L 18.3125 18.015625 
Q 18.3125 11.328125 20.140625 9.421875 
Q 21.96875 7.515625 27.59375 7.515625 
L 36.8125 7.515625 
L 36.8125 0 
L 27.59375 0 
Q 17.1875 0 13.234375 3.875 
Q 9.28125 7.765625 9.28125 18.015625 
L 9.28125 47.703125 
L 2.6875 47.703125 
L 2.6875 54.6875 
L 9.28125 54.6875 
L 9.28125 70.21875 
z
" id="DejaVuSans-116"/>
      <path d="M 9.421875 54.6875 
L 18.40625 54.6875 
L 18.40625 0 
L 9.421875 0 
z
M 9.421875 75.984375 
L 18.40625 75.984375 
L 18.40625 64.59375 
L 9.421875 64.59375 
z
" id="DejaVuSans-105"/>
      <path d="M 52 44.1875 
Q 55.375 50.25 60.0625 53.125 
Q 64.75 56 71.09375 56 
Q 79.640625 56 84.28125 50.015625 
Q 88.921875 44.046875 88.921875 33.015625 
L 88.921875 0 
L 79.890625 0 
L 79.890625 32.71875 
Q 79.890625 40.578125 77.09375 44.375 
Q 74.3125 48.1875 68.609375 48.1875 
Q 61.625 48.1875 57.5625 43.546875 
Q 53.515625 38.921875 53.515625 30.90625 
L 53.515625 0 
L 44.484375 0 
L 44.484375 32.71875 
Q 44.484375 40.625 41.703125 44.40625 
Q 38.921875 48.1875 33.109375 48.1875 
Q 26.21875 48.1875 22.15625 43.53125 
Q 18.109375 38.875 18.109375 30.90625 
L 18.109375 0 
L 9.078125 0 
L 9.078125 54.6875 
L 18.109375 54.6875 
L 18.109375 46.1875 
Q 21.1875 51.21875 25.484375 53.609375 
Q 29.78125 56 35.6875 56 
Q 41.65625 56 45.828125 52.96875 
Q 50 49.953125 52 44.1875 
z
" id="DejaVuSans-109"/>
      <path d="M 56.203125 29.59375 
L 56.203125 25.203125 
L 14.890625 25.203125 
Q 15.484375 15.921875 20.484375 11.0625 
Q 25.484375 6.203125 34.421875 6.203125 
Q 39.59375 6.203125 44.453125 7.46875 
Q 49.3125 8.734375 54.109375 11.28125 
L 54.109375 2.78125 
Q 49.265625 0.734375 44.1875 -0.34375 
Q 39.109375 -1.421875 33.890625 -1.421875 
Q 20.796875 -1.421875 13.15625 6.1875 
Q 5.515625 13.8125 5.515625 26.8125 
Q 5.515625 40.234375 12.765625 48.109375 
Q 20.015625 56 32.328125 56 
Q 43.359375 56 49.78125 48.890625 
Q 56.203125 41.796875 56.203125 29.59375 
z
M 47.21875 32.234375 
Q 47.125 39.59375 43.09375 43.984375 
Q 39.0625 48.390625 32.421875 48.390625 
Q 24.90625 48.390625 20.390625 44.140625 
Q 15.875 39.890625 15.1875 32.171875 
z
" id="DejaVuSans-101"/>
      <path id="DejaVuSans-32"/>
      <path d="M 8.59375 75.984375 
L 29.296875 75.984375 
L 29.296875 69 
L 17.578125 69 
L 17.578125 -6.203125 
L 29.296875 -6.203125 
L 29.296875 -13.1875 
L 8.59375 -13.1875 
z
" id="DejaVuSans-91"/>
      <path d="M 44.28125 53.078125 
L 44.28125 44.578125 
Q 40.484375 46.53125 36.375 47.5 
Q 32.28125 48.484375 27.875 48.484375 
Q 21.1875 48.484375 17.84375 46.4375 
Q 14.5 44.390625 14.5 40.28125 
Q 14.5 37.15625 16.890625 35.375 
Q 19.28125 33.59375 26.515625 31.984375 
L 29.59375 31.296875 
Q 39.15625 29.25 43.1875 25.515625 
Q 47.21875 21.78125 47.21875 15.09375 
Q 47.21875 7.46875 41.1875 3.015625 
Q 35.15625 -1.421875 24.609375 -1.421875 
Q 20.21875 -1.421875 15.453125 -0.5625 
Q 10.6875 0.296875 5.421875 2 
L 5.421875 11.28125 
Q 10.40625 8.6875 15.234375 7.390625 
Q 20.0625 6.109375 24.8125 6.109375 
Q 31.15625 6.109375 34.5625 8.28125 
Q 37.984375 10.453125 37.984375 14.40625 
Q 37.984375 18.0625 35.515625 20.015625 
Q 33.0625 21.96875 24.703125 23.78125 
L 21.578125 24.515625 
Q 13.234375 26.265625 9.515625 29.90625 
Q 5.8125 33.546875 5.8125 39.890625 
Q 5.8125 47.609375 11.28125 51.796875 
Q 16.75 56 26.8125 56 
Q 31.78125 56 36.171875 55.265625 
Q 40.578125 54.546875 44.28125 53.078125 
z
" id="DejaVuSans-115"/>
      <path d="M 30.421875 75.984375 
L 30.421875 -13.1875 
L 9.71875 -13.1875 
L 9.71875 -6.203125 
L 21.390625 -6.203125 
L 21.390625 69 
L 9.71875 69 
L 9.71875 75.984375 
z
" id="DejaVuSans-93"/>
     </defs>
     <g transform="translate(234.038281 412.756563)scale(0.1 -0.1)">
      <use xlink:href="#DejaVuSans-116"/>
      <use x="39.208984" xlink:href="#DejaVuSans-105"/>
      <use x="66.992188" xlink:href="#DejaVuSans-109"/>
      <use x="164.404297" xlink:href="#DejaVuSans-101"/>
      <use x="225.927734" xlink:href="#DejaVuSans-32"/>
      <use x="257.714844" xlink:href="#DejaVuSans-91"/>
      <use x="296.728516" xlink:href="#DejaVuSans-109"/>
      <use x="394.140625" xlink:href="#DejaVuSans-115"/>
      <use x="446.240234" xlink:href="#DejaVuSans-93"/>
     </g>
    </g>
   </g>
   <g id="matplotlib.axis_2">
    <g id="ytick_1">
     <g id="line2d_6">
      <defs>
       <path d="M 0 0 
L -3.5 0 
" id="m392e8b9f8a" style="stroke:#000000;stroke-width:0.8;"/>
      </defs>
      <g>
       <use style="stroke:#000000;stroke-width:0.8;" x="63" xlink:href="#m392e8b9f8a" y="365.570586"/>
      </g>
     </g>
     <g id="text_7">
      <!-- −80 -->
      <defs>
       <path d="M 10.59375 35.5 
L 73.1875 35.5 
L 73.1875 27.203125 
L 10.59375 27.203125 
z
" id="DejaVuSans-8722"/>
      </defs>
      <g transform="translate(34.895313 369.369804)scale(0.1 -0.1)">
       <use xlink:href="#DejaVuSans-8722"/>
       <use x="83.789062" xlink:href="#DejaVuSans-56"/>
       <use x="147.412109" xlink:href="#DejaVuSans-48"/>
      </g>
     </g>
    </g>
    <g id="ytick_2">
     <g id="line2d_7">
      <g>
       <use style="stroke:#000000;stroke-width:0.8;" x="63" xlink:href="#m392e8b9f8a" y="313.131211"/>
      </g>
     </g>
     <g id="text_8">
      <!-- −60 -->
      <g transform="translate(34.895313 316.930429)scale(0.1 -0.1)">
       <use xlink:href="#DejaVuSans-8722"/>
       <use x="83.789062" xlink:href="#DejaVuSans-54"/>
       <use x="147.412109" xlink:href="#DejaVuSans-48"/>
      </g>
     </g>
    </g>
    <g id="ytick_3">
     <g id="line2d_8">
      <g>
       <use style="stroke:#000000;stroke-width:0.8;" x="63" xlink:href="#m392e8b9f8a" y="260.691836"/>
      </g>
     </g>
     <g id="text_9">
      <!-- −40 -->
      <g transform="translate(34.895313 264.491055)scale(0.1 -0.1)">
       <use xlink:href="#DejaVuSans-8722"/>
       <use x="83.789062" xlink:href="#DejaVuSans-52"/>
       <use x="147.412109" xlink:href="#DejaVuSans-48"/>
      </g>
     </g>
    </g>
    <g id="ytick_4">
     <g id="line2d_9">
      <g>
       <use style="stroke:#000000;stroke-width:0.8;" x="63" xlink:href="#m392e8b9f8a" y="208.252461"/>
      </g>
     </g>
     <g id="text_10">
      <!-- −20 -->
      <g transform="translate(34.895313 212.05168)scale(0.1 -0.1)">
       <use xlink:href="#DejaVuSans-8722"/>
       <use x="83.789062" xlink:href="#DejaVuSans-50"/>
       <use x="147.412109" xlink:href="#DejaVuSans-48"/>
      </g>
     </g>
    </g>
    <g id="ytick_5">
     <g id="line2d_10">
      <g>
       <use style="stroke:#000000;stroke-width:0.8;" x="63" xlink:href="#m392e8b9f8a" y="155.813086"/>
      </g>
     </g>
     <g id="text_11">
      <!-- 0 -->
      <g transform="translate(49.6375 159.612305)scale(0.1 -0.1)">
       <use xlink:href="#DejaVuSans-48"/>
      </g>
     </g>
    </g>
    <g id="ytick_6">
     <g id="line2d_11">
      <g>
       <use style="stroke:#000000;stroke-width:0.8;" x="63" xlink:href="#m392e8b9f8a" y="103.373711"/>
      </g>
     </g>
     <g id="text_12">
      <!-- 20 -->
      <g transform="translate(43.275 107.17293)scale(0.1 -0.1)">
       <use xlink:href="#DejaVuSans-50"/>
       <use x="63.623047" xlink:href="#DejaVuSans-48"/>
      </g>
     </g>
    </g>
    <g id="text_13">
     <!-- Voltage [mV] -->
     <defs>
      <path d="M 28.609375 0 
L 0.78125 72.90625 
L 11.078125 72.90625 
L 34.1875 11.53125 
L 57.328125 72.90625 
L 67.578125 72.90625 
L 39.796875 0 
z
" id="DejaVuSans-86"/>
      <path d="M 30.609375 48.390625 
Q 23.390625 48.390625 19.1875 42.75 
Q 14.984375 37.109375 14.984375 27.296875 
Q 14.984375 17.484375 19.15625 11.84375 
Q 23.34375 6.203125 30.609375 6.203125 
Q 37.796875 6.203125 41.984375 11.859375 
Q 46.1875 17.53125 46.1875 27.296875 
Q 46.1875 37.015625 41.984375 42.703125 
Q 37.796875 48.390625 30.609375 48.390625 
z
M 30.609375 56 
Q 42.328125 56 49.015625 48.375 
Q 55.71875 40.765625 55.71875 27.296875 
Q 55.71875 13.875 49.015625 6.21875 
Q 42.328125 -1.421875 30.609375 -1.421875 
Q 18.84375 -1.421875 12.171875 6.21875 
Q 5.515625 13.875 5.515625 27.296875 
Q 5.515625 40.765625 12.171875 48.375 
Q 18.84375 56 30.609375 56 
z
" id="DejaVuSans-111"/>
      <path d="M 9.421875 75.984375 
L 18.40625 75.984375 
L 18.40625 0 
L 9.421875 0 
z
" id="DejaVuSans-108"/>
      <path d="M 34.28125 27.484375 
Q 23.390625 27.484375 19.1875 25 
Q 14.984375 22.515625 14.984375 16.5 
Q 14.984375 11.71875 18.140625 8.90625 
Q 21.296875 6.109375 26.703125 6.109375 
Q 34.1875 6.109375 38.703125 11.40625 
Q 43.21875 16.703125 43.21875 25.484375 
L 43.21875 27.484375 
z
M 52.203125 31.203125 
L 52.203125 0 
L 43.21875 0 
L 43.21875 8.296875 
Q 40.140625 3.328125 35.546875 0.953125 
Q 30.953125 -1.421875 24.3125 -1.421875 
Q 15.921875 -1.421875 10.953125 3.296875 
Q 6 8.015625 6 15.921875 
Q 6 25.140625 12.171875 29.828125 
Q 18.359375 34.515625 30.609375 34.515625 
L 43.21875 34.515625 
L 43.21875 35.40625 
Q 43.21875 41.609375 39.140625 45 
Q 35.0625 48.390625 27.6875 48.390625 
Q 23 48.390625 18.546875 47.265625 
Q 14.109375 46.140625 10.015625 43.890625 
L 10.015625 52.203125 
Q 14.9375 54.109375 19.578125 55.046875 
Q 24.21875 56 28.609375 56 
Q 40.484375 56 46.34375 49.84375 
Q 52.203125 43.703125 52.203125 31.203125 
z
" id="DejaVuSans-97"/>
      <path d="M 45.40625 27.984375 
Q 45.40625 37.75 41.375 43.109375 
Q 37.359375 48.484375 30.078125 48.484375 
Q 22.859375 48.484375 18.828125 43.109375 
Q 14.796875 37.75 14.796875 27.984375 
Q 14.796875 18.265625 18.828125 12.890625 
Q 22.859375 7.515625 30.078125 7.515625 
Q 37.359375 7.515625 41.375 12.890625 
Q 45.40625 18.265625 45.40625 27.984375 
z
M 54.390625 6.78125 
Q 54.390625 -7.171875 48.1875 -13.984375 
Q 42 -20.796875 29.203125 -20.796875 
Q 24.46875 -20.796875 20.265625 -20.09375 
Q 16.0625 -19.390625 12.109375 -17.921875 
L 12.109375 -9.1875 
Q 16.0625 -11.328125 19.921875 -12.34375 
Q 23.78125 -13.375 27.78125 -13.375 
Q 36.625 -13.375 41.015625 -8.765625 
Q 45.40625 -4.15625 45.40625 5.171875 
L 45.40625 9.625 
Q 42.625 4.78125 38.28125 2.390625 
Q 33.9375 0 27.875 0 
Q 17.828125 0 11.671875 7.65625 
Q 5.515625 15.328125 5.515625 27.984375 
Q 5.515625 40.671875 11.671875 48.328125 
Q 17.828125 56 27.875 56 
Q 33.9375 56 38.28125 53.609375 
Q 42.625 51.21875 45.40625 46.390625 
L 45.40625 54.6875 
L 54.390625 54.6875 
z
" id="DejaVuSans-103"/>
     </defs>
     <g transform="translate(28.815625 251.079531)rotate(-90)scale(0.1 -0.1)">
      <use xlink:href="#DejaVuSans-86"/>
      <use x="68.298828" xlink:href="#DejaVuSans-111"/>
      <use x="129.480469" xlink:href="#DejaVuSans-108"/>
      <use x="157.263672" xlink:href="#DejaVuSans-116"/>
      <use x="196.472656" xlink:href="#DejaVuSans-97"/>
      <use x="257.751953" xlink:href="#DejaVuSans-103"/>
      <use x="321.228516" xlink:href="#DejaVuSans-101"/>
      <use x="382.751953" xlink:href="#DejaVuSans-32"/>
      <use x="414.539062" xlink:href="#DejaVuSans-91"/>
      <use x="453.552734" xlink:href="#DejaVuSans-109"/>
      <use x="550.964844" xlink:href="#DejaVuSans-86"/>
      <use x="619.373047" xlink:href="#DejaVuSans-93"/>
     </g>
    </g>
   </g>
   <g id="line2d_12">
    <path clip-path="url(#p3a575ed354)" d="M 80.754545 326.241054 
L 81.23783 328.409985 
L 81.785224 330.016208 
L 82.327686 330.965531 
L 82.884943 331.514638 
L 83.496446 331.80952 
L 84.265756 331.922083 
L 85.478899 331.845144 
L 90.464621 331.366802 
L 95.169249 331.267719 
L 100.480448 331.250337 
L 100.638256 346.889568 
L 100.983459 358.435979 
L 101.407566 366.09278 
L 101.742906 368.843745 
L 101.969754 369.358243 
L 102.088109 369.277255 
L 102.270574 368.781294 
L 102.600983 367.103682 
L 104.040974 359.049508 
L 104.553847 357.636415 
L 105.017406 356.951344 
L 105.456307 356.670238 
L 105.939592 356.627916 
L 106.625067 356.817937 
L 108.799848 357.535008 
L 110.11162 357.644134 
L 113.312148 357.589991 
L 122.681952 357.575755 
L 130.069303 357.575037 
L 130.222178 342.55311 
L 130.542724 332.693891 
L 130.956968 326.112476 
L 131.371212 322.706296 
L 131.755867 321.163269 
L 132.096139 320.589442 
L 132.387096 320.480031 
L 132.687916 320.616564 
L 133.107092 321.085014 
L 133.80243 322.248719 
L 136.263236 326.59078 
L 137.348161 327.950102 
L 138.428154 328.953546 
L 139.562393 329.705691 
L 139.932254 329.897117 
L 139.937186 326.241054 
L 140.045678 326.779137 
L 140.642387 329.158846 
L 141.184849 330.457706 
L 141.732243 331.225543 
L 142.304294 331.658649 
L 142.965112 331.876118 
L 143.852777 331.917297 
L 145.59852 331.724392 
L 148.858225 331.407503 
L 152.862583 331.282825 
L 159.663088 331.250337 
L 159.820896 328.121973 
L 160.17103 325.775211 
L 160.659247 323.903996 
L 161.177051 322.738811 
L 161.714582 322.047856 
L 162.296496 321.654214 
L 162.991835 321.458576 
L 163.97813 321.432374 
L 166.177568 321.662852 
L 169.688779 321.950583 
L 174.43779 322.081815 
L 186.687575 322.125216 
L 189.251943 322.126245 
L 189.40975 325.261304 
L 189.759885 327.62737 
L 190.253032 329.551459 
L 190.775769 330.760446 
L 191.308368 331.466368 
L 191.870556 331.855732 
L 192.526443 332.036064 
L 193.433834 332.036244 
L 195.49026 331.742766 
L 198.306132 331.43969 
L 199.114894 331.39104 
L 199.119826 326.241054 
L 199.228318 326.779137 
L 199.825027 329.158846 
L 200.367489 330.457706 
L 200.914883 331.225543 
L 201.486934 331.658649 
L 202.147752 331.876118 
L 203.035417 331.917297 
L 204.78116 331.724392 
L 208.040865 331.407503 
L 212.045224 331.282825 
L 218.845729 331.250337 
L 219.003536 324.993211 
L 219.353671 320.297496 
L 219.841887 316.533732 
L 220.369555 314.073971 
L 220.966263 312.323079 
L 221.548177 310.624492 
L 221.567903 309.857642 
L 221.587629 277.924938 
L 221.646807 70.727209 
L 221.720779 179.080504 
L 221.918038 324.778888 
L 222.100502 329.083076 
L 222.199132 329.34799 
L 222.243515 329.296847 
L 222.376665 328.749989 
L 222.702143 326.209208 
L 223.683506 318.468953 
L 224.270352 315.628294 
L 224.852266 313.853873 
L 225.503221 312.573132 
L 226.233079 311.169234 
L 226.272531 310.749702 
L 226.292257 298.724397 
L 226.361298 78.388774 
L 226.430338 175.998209 
L 226.627597 322.521111 
L 226.810062 327.653952 
L 226.943212 328.135134 
L 226.9728 328.114106 
L 227.081293 327.790594 
L 227.342661 326.117609 
L 228.570599 317.544385 
L 229.147581 315.269447 
L 229.729495 313.824653 
L 230.370587 312.81234 
L 231.667565 311.011892 
L 231.687291 309.918075 
L 231.711949 260.566004 
L 231.771126 84.068849 
L 231.845099 183.325785 
L 232.037426 320.533803 
L 232.224822 326.353708 
L 232.382629 327.014691 
L 232.402355 327.006919 
L 232.500985 326.782354 
L 232.727833 325.550484 
L 234.167824 316.618702 
L 234.744806 314.771955 
L 235.336583 313.582213 
L 235.997401 312.74089 
L 236.959039 311.91697 
L 237.457118 311.364331 
L 237.585336 310.950805 
L 237.600131 309.948972 
L 237.624788 261.277747 
L 237.683966 88.245154 
L 237.762869 189.344396 
L 237.945334 318.620665 
L 238.13273 325.33623 
L 238.320126 326.262605 
L 238.403961 326.151624 
L 238.581494 325.396626 
L 239.123957 321.735443 
L 239.848884 317.528246 
L 240.435729 315.358501 
L 241.017643 314.007992 
L 241.643941 313.094812 
L 242.388594 312.404081 
L 243.700366 311.271718 
L 243.794064 310.909305 
L 243.808859 309.320872 
L 243.843379 232.387852 
L 243.892694 90.68751 
L 243.966666 183.221902 
L 244.158993 318.065968 
L 244.346389 324.697888 
L 244.538717 325.702117 
L 244.622552 325.613268 
L 244.795154 324.938445 
L 245.288301 321.780229 
L 246.047749 317.462989 
L 246.634594 315.339434 
L 247.22144 314.006222 
L 247.847737 313.114116 
L 248.434583 312.56269 
L 248.59239 318.746308 
L 248.937593 323.293731 
L 249.435672 327.12736 
L 249.958409 329.558328 
L 250.476214 330.9887 
L 250.989087 331.799936 
L 251.511824 332.234197 
L 252.098669 332.432227 
L 252.858117 332.43828 
L 254.209341 332.185413 
L 257.074528 331.657066 
L 258.297534 331.52767 
L 258.302466 326.241054 
L 258.410958 326.779137 
L 259.007667 329.158846 
L 259.550129 330.457706 
L 260.097523 331.225543 
L 260.669574 331.658649 
L 261.330392 331.876118 
L 262.218057 331.917297 
L 263.9638 331.724392 
L 267.223505 331.407503 
L 271.227864 331.282825 
L 278.028369 331.250337 
L 278.186176 321.863341 
L 278.536311 314.802097 
L 279.044253 308.818293 
L 279.542332 303.680037 
L 279.557126 296.073932 
L 279.621235 68.979369 
L 279.70507 193.693026 
L 279.887535 322.310328 
L 280.060137 326.002499 
L 280.10452 326.065745 
L 280.158766 325.954683 
L 280.30671 324.986963 
L 280.691365 320.563269 
L 281.554374 311.057813 
L 282.205329 306.364855 
L 282.619573 303.204958 
L 282.634367 300.917419 
L 282.673819 182.893379 
L 282.708339 76.488041 
L 282.782311 181.907815 
L 282.974639 320.887932 
L 283.152172 325.134663 
L 283.216281 325.268724 
L 283.270527 325.166592 
L 283.41354 324.303577 
L 283.783401 320.321334 
L 284.671066 311.044112 
L 285.312158 306.706817 
L 285.810237 303.321253 
L 285.825032 300.449597 
L 285.864484 185.015009 
L 285.899004 82.449734 
L 285.972976 180.354327 
L 286.165304 318.820339 
L 286.342837 323.738548 
L 286.431603 324.005043 
L 286.480918 323.927617 
L 286.618999 323.186142 
L 286.964203 319.772096 
L 287.896252 310.639551 
L 288.537343 306.602644 
L 289.040354 303.436178 
L 289.055148 301.769784 
L 289.089669 218.329409 
L 289.134052 86.772965 
L 289.208024 182.799711 
L 289.39542 317.110585 
L 289.577885 322.780186 
L 289.686377 323.168271 
L 289.725829 323.119189 
L 289.849116 322.559037 
L 290.149936 319.860446 
L 291.205272 310.015156 
L 291.861158 306.189655 
L 292.295128 303.486397 
L 292.309922 302.101798 
L 292.339511 235.833555 
L 292.393757 90.031254 
L 292.46773 187.247096 
L 292.650194 315.690022 
L 292.832659 321.956003 
L 292.955946 322.484181 
L 292.995397 322.444722 
L 293.113753 321.953822 
L 293.399778 319.540828 
L 294.514292 309.582722 
L 295.184973 305.873012 
L 295.559765 303.522235 
L 295.579491 300.213418 
L 295.623874 164.863205 
L 295.658394 92.036784 
L 295.727435 177.113731 
L 295.924694 315.484762 
L 296.107159 321.453003 
L 296.240308 322.007003 
L 296.269897 321.979169 
L 296.37839 321.580784 
L 296.639758 319.53105 
L 297.877558 308.922275 
L 298.612348 305.098013 
L 298.834265 303.44412 
L 298.849059 300.859026 
L 298.888511 194.403449 
L 298.927963 93.549601 
L 298.997003 175.66936 
L 299.194262 314.690235 
L 299.381658 321.101707 
L 299.51974 321.71209 
L 299.549329 321.688266 
L 299.657821 321.306887 
L 299.914258 319.348219 
L 301.176716 308.738936 
L 302.118627 302.513299 
L 302.143285 251.82817 
L 302.202463 94.50141 
L 302.276435 183.510188 
L 302.463831 313.673562 
L 302.651227 320.652074 
L 302.804103 321.393944 
L 302.823829 321.382057 
L 302.917527 321.111728 
L 303.139443 319.588262 
L 304.653406 307.571075 
L 305.388196 303.12109 
L 305.407922 283.013697 
L 305.476962 95.104929 
L 305.546003 177.016717 
L 305.743262 313.826937 
L 305.930658 320.463082 
L 306.083534 321.18401 
L 306.10326 321.172002 
L 306.196958 320.904581 
L 306.418874 319.400288 
L 307.617223 309.332874 
L 307.770099 317.723419 
L 308.085713 322.811709 
L 308.54434 326.826308 
L 309.052282 329.46117 
L 309.565156 331.035551 
L 310.073098 331.928376 
L 310.585971 332.404145 
L 311.143228 332.620488 
L 311.843498 332.640302 
L 312.9876 332.416653 
L 316.193059 331.731615 
L 317.480174 331.578013 
L 317.485106 326.241054 
L 317.593598 326.779137 
L 318.190307 329.158846 
L 318.732769 330.457706 
L 319.280163 331.225543 
L 319.852214 331.658649 
L 320.513032 331.876118 
L 321.400698 331.917297 
L 323.14644 331.724392 
L 326.406145 331.407503 
L 330.410504 331.282825 
L 337.211009 331.250337 
L 337.368816 318.731517 
L 337.718951 309.25186 
L 338.300865 295.152067 
L 338.340317 141.688871 
L 338.369905 67.916572 
L 338.443878 181.225856 
L 338.636205 320.462843 
L 338.798944 323.203098 
L 338.848259 323.091085 
L 338.98634 321.982341 
L 339.341406 316.82655 
L 340.307975 302.884554 
L 340.82578 295.548251 
L 340.850438 290.562927 
L 340.919478 74.810087 
L 341.008245 212.698319 
L 341.156189 317.19558 
L 341.323859 322.53826 
L 341.373174 322.647824 
L 341.42742 322.510905 
L 341.575365 321.310053 
L 341.955088 315.890311 
L 342.86248 303.334178 
L 343.459188 295.313115 
L 343.478914 287.441473 
L 343.543024 80.566772 
L 343.621927 185.706623 
L 343.804392 316.838998 
L 343.976993 321.263336 
L 344.021377 321.337714 
L 344.075623 321.206495 
L 344.223567 320.066411 
L 344.603291 314.917765 
L 345.510682 303.011332 
L 346.102459 295.446626 
L 346.122185 288.983325 
L 346.191226 84.753189 
L 346.27013 189.973796 
L 346.447663 315.049914 
L 346.620264 320.133132 
L 346.684374 320.297751 
L 346.73862 320.175938 
L 346.881633 319.144864 
L 347.246562 314.455638 
L 348.188474 302.59184 
L 348.750662 295.7305 
L 348.770388 293.437912 
L 348.804908 199.793413 
L 348.84436 88.033959 
L 348.918332 179.613543 
L 349.11066 314.549274 
L 349.288193 319.450637 
L 349.352302 319.608137 
L 349.406548 319.49376 
L 349.549561 318.503817 
L 349.909559 314.028356 
L 350.866265 302.318298 
L 351.408727 295.805437 
L 351.433385 290.714254 
L 351.507357 90.473652 
L 351.591192 203.23701 
L 351.748999 311.672069 
L 351.926532 318.704228 
L 352.02023 319.103216 
L 352.069545 319.02262 
L 352.197763 318.239624 
L 352.513378 314.568006 
L 353.58844 301.675373 
L 354.066793 295.964231 
L 354.09145 293.507349 
L 354.130902 177.88711 
L 354.165422 91.894232 
L 354.239394 178.315924 
L 354.431722 312.830453 
L 354.609255 318.420099 
L 354.69309 318.709454 
L 354.742405 318.626514 
L 354.875555 317.810785 
L 355.201032 314.047442 
L 356.251436 301.652803 
L 356.72979 296.000932 
L 356.754447 293.822445 
L 356.788967 204.386405 
L 356.833351 92.981749 
L 356.902391 177.094789 
L 357.09965 312.591712 
L 357.282115 318.139522 
L 357.36595 318.414292 
L 357.415265 318.33007 
L 357.548415 317.521479 
L 357.873892 313.801851 
L 358.929228 301.503835 
L 359.392786 296.048692 
L 359.422375 291.591314 
L 359.496347 93.521584 
L 359.590046 220.8167 
L 359.742921 310.250493 
L 359.920454 317.66612 
L 360.033878 318.223291 
L 360.07333 318.172614 
L 360.186754 317.588933 
L 360.457985 314.741857 
L 361.759895 299.902218 
L 362.060715 295.951132 
L 362.085372 292.8158 
L 362.129756 148.869483 
L 362.159344 93.883795 
L 362.228385 172.249575 
L 362.430576 312.060317 
L 362.61304 317.698495 
L 362.701807 318.017802 
L 362.751121 317.94291 
L 362.87934 317.205999 
L 363.190023 313.78059 
L 364.304536 301.037075 
L 364.723712 296.001539 
L 364.748369 293.62478 
L 364.787821 180.234602 
L 364.827273 94.43157 
L 364.896313 177.611444 
L 365.093572 311.724675 
L 365.276037 317.562798 
L 365.369735 317.914706 
L 365.41905 317.838673 
L 365.547268 317.103014 
L 365.857951 313.692028 
L 366.799863 302.665909 
L 366.952739 313.788029 
L 367.25849 320.237608 
L 367.707255 325.276827 
L 368.210265 328.608453 
L 368.723139 330.630243 
L 369.226149 331.784435 
L 369.724228 332.41342 
L 370.242033 332.723796 
L 370.843673 332.819328 
L 371.686955 332.707167 
L 376.662814 331.633574 
L 376.667746 326.241054 
L 376.776238 326.779137 
L 377.372947 329.158846 
L 377.915409 330.457706 
L 378.462803 331.225543 
L 379.034854 331.658649 
L 379.695672 331.876118 
L 380.583338 331.917297 
L 382.32908 331.724392 
L 385.588786 331.407503 
L 389.593144 331.282825 
L 396.393649 331.250337 
L 396.551456 315.596437 
L 396.911454 303.283701 
L 397.212274 292.630568 
L 397.241863 215.497231 
L 397.281314 66.96 
L 397.355287 178.341685 
L 397.547614 318.245193 
L 397.675832 320.385876 
L 397.70049 320.349651 
L 397.794188 319.687659 
L 398.040762 315.962111 
L 399.308151 290.737441 
L 399.352534 284.343489 
L 399.416643 73.536262 
L 399.50541 206.411302 
L 399.658286 315.796334 
L 399.821024 320.119829 
L 399.84075 320.123207 
L 399.875271 320.024897 
L 400.003489 318.889288 
L 400.324035 313.567171 
L 401.551972 288.051735 
L 401.566767 278.340115 
L 401.630876 79.478719 
L 401.699917 175.272814 
L 401.892244 315.43494 
L 402.059914 318.80888 
L 402.109229 318.688533 
L 402.242379 317.510408 
L 402.577719 312.066469 
L 403.771136 288.487335 
L 403.790862 274.678027 
L 403.854972 83.814257 
L 403.924012 175.131412 
L 404.11634 313.775961 
L 404.28401 317.616869 
L 404.303736 317.629298 
L 404.348119 317.517221 
L 404.481269 316.396221 
L 404.816609 311.165999 
L 406.000163 288.233492 
L 406.014958 281.59526 
L 406.079067 87.05093 
L 406.153039 176.925453 
L 406.345367 312.70858 
L 406.517968 316.863839 
L 406.542626 316.888493 
L 406.591941 316.765892 
L 406.730022 315.606696 
L 407.075225 310.303973 
L 408.229191 288.549764 
L 408.248916 277.253828 
L 408.313026 89.239025 
L 408.382066 171.936859 
L 408.579325 311.868247 
L 408.751927 316.262707 
L 408.786447 316.312798 
L 408.835762 316.193208 
L 408.973843 315.063805 
L 409.314115 309.954608 
L 410.463149 288.610929 
L 410.482875 278.473596 
L 410.546984 90.851962 
L 410.616025 170.859042 
L 410.818215 311.50285 
L 410.990817 315.878116 
L 411.030269 315.939989 
L 411.079583 315.819796 
L 411.217665 314.706306 
L 411.557937 309.666712 
L 412.697108 288.893385 
L 412.716833 282.99163 
L 412.785874 91.752726 
L 412.864778 189.13543 
L 413.037379 309.322787 
L 413.209981 315.301834 
L 413.269159 315.491903 
L 413.328336 315.352421 
L 413.471349 314.170785 
L 413.831347 308.830345 
L 414.931066 288.968702 
L 414.950792 284.08592 
L 415.019833 92.540464 
L 415.103668 196.073814 
L 415.266406 308.28398 
L 415.439008 314.97969 
L 415.51298 315.25211 
L 415.567226 315.12312 
L 415.705308 314.023397 
L 416.050511 309.013709 
L 417.165025 289.145915 
L 417.189682 280.481983 
L 417.258723 93.202239 
L 417.327763 176.328495 
L 417.525022 310.114305 
L 417.702555 315.05916 
L 417.75187 315.170146 
L 417.806116 315.045559 
L 417.944198 313.95995 
L 418.28447 309.059146 
L 419.403915 289.119257 
L 419.428572 279.394887 
L 419.492681 93.491945 
L 419.566653 177.208507 
L 419.758981 309.556635 
L 419.936514 314.919685 
L 419.99076 315.066908 
L 420.049938 314.930522 
L 420.192951 313.777689 
L 420.548017 308.61404 
L 421.642804 289.128504 
L 421.667462 279.488407 
L 421.731571 93.708651 
L 421.805543 177.129358 
L 421.997871 309.374259 
L 422.175404 314.81956 
L 422.234582 314.978495 
L 422.288828 314.852534 
L 422.426909 313.772196 
L 422.767181 308.904048 
L 423.881694 289.154608 
L 423.906352 280.030268 
L 423.970461 93.87851 
L 424.044433 176.706109 
L 424.241692 309.613182 
L 424.419225 314.767724 
L 424.473472 314.909101 
L 424.532649 314.770736 
L 424.675662 313.62106 
L 425.030728 308.484442 
L 425.982503 293.429908 
L 426.135379 307.635833 
L 426.436199 316.048713 
L 426.884963 322.591416 
L 427.402768 327.113856 
L 427.920573 329.837048 
L 428.428515 331.414518 
L 428.926594 332.290831 
L 429.424673 332.74287 
L 429.962204 332.933564 
L 430.637816 332.92307 
L 431.747398 332.648991 
L 434.6619 331.884276 
L 435.845455 331.697951 
L 435.845455 331.697951 
" style="fill:none;stroke:#ff0000;stroke-linecap:square;stroke-width:1.5;"/>
   </g>
   <g id="patch_3">
    <path d="M 63 384.48 
L 63 51.84 
" style="fill:none;stroke:#000000;stroke-linecap:square;stroke-linejoin:miter;stroke-width:0.8;"/>
   </g>
   <g id="patch_4">
    <path d="M 453.6 384.48 
L 453.6 51.84 
" style="fill:none;stroke:#000000;stroke-linecap:square;stroke-linejoin:miter;stroke-width:0.8;"/>
   </g>
   <g id="patch_5">
    <path d="M 63 384.48 
L 453.6 384.48 
" style="fill:none;stroke:#000000;stroke-linecap:square;stroke-linejoin:miter;stroke-width:0.8;"/>
   </g>
   <g id="patch_6">
    <path d="M 63 51.84 
L 453.6 51.84 
" style="fill:none;stroke:#000000;stroke-linecap:square;stroke-linejoin:miter;stroke-width:0.8;"/>
   </g>
   <g id="legend_1">
    <g id="patch_7">
     <path d="M 70 74.518125 
L 133.139062 74.518125 
Q 135.139062 74.518125 135.139062 72.518125 
L 135.139062 58.84 
Q 135.139062 56.84 133.139062 56.84 
L 70 56.84 
Q 68 56.84 68 58.84 
L 68 72.518125 
Q 68 74.518125 70 74.518125 
z
" style="fill:#ffffff;opacity:0.8;stroke:#cccccc;stroke-linejoin:miter;"/>
    </g>
    <g id="line2d_13">
     <path d="M 72 64.938438 
L 92 64.938438 
" style="fill:none;stroke:#ff0000;stroke-linecap:square;stroke-width:1.5;"/>
    </g>
    <g id="line2d_14"/>
    <g id="text_14">
     <!-- model -->
     <defs>
      <path d="M 45.40625 46.390625 
L 45.40625 75.984375 
L 54.390625 75.984375 
L 54.390625 0 
L 45.40625 0 
L 45.40625 8.203125 
Q 42.578125 3.328125 38.25 0.953125 
Q 33.9375 -1.421875 27.875 -1.421875 
Q 17.96875 -1.421875 11.734375 6.484375 
Q 5.515625 14.40625 5.515625 27.296875 
Q 5.515625 40.1875 11.734375 48.09375 
Q 17.96875 56 27.875 56 
Q 33.9375 56 38.25 53.625 
Q 42.578125 51.265625 45.40625 46.390625 
z
M 14.796875 27.296875 
Q 14.796875 17.390625 18.875 11.75 
Q 22.953125 6.109375 30.078125 6.109375 
Q 37.203125 6.109375 41.296875 11.75 
Q 45.40625 17.390625 45.40625 27.296875 
Q 45.40625 37.203125 41.296875 42.84375 
Q 37.203125 48.484375 30.078125 48.484375 
Q 22.953125 48.484375 18.875 42.84375 
Q 14.796875 37.203125 14.796875 27.296875 
z
" id="DejaVuSans-100"/>
     </defs>
     <g transform="translate(100 68.438438)scale(0.1 -0.1)">
      <use xlink:href="#DejaVuSans-109"/>
      <use x="97.412109" xlink:href="#DejaVuSans-111"/>
      <use x="158.59375" xlink:href="#DejaVuSans-100"/>
      <use x="222.070312" xlink:href="#DejaVuSans-101"/>
      <use x="283.59375" xlink:href="#DejaVuSans-108"/>
     </g>
    </g>
   </g>
  </g>
 </g>
 <defs>
  <clipPath id="p3a575ed354">
   <rect height="332.64" width="390.6" x="63" y="51.84"/>
  </clipPath>
 </defs>
</svg>
