<?xml version="1.0" encoding="utf-8" standalone="no"?>
<!DOCTYPE svg PUBLIC "-//W3C//DTD SVG 1.1//EN"
  "http://www.w3.org/Graphics/SVG/1.1/DTD/svg11.dtd">
<!-- Created with matplotlib (http://matplotlib.org/) -->
<svg height="432pt" version="1.1" viewBox="0 0 504 432" width="504pt" xmlns="http://www.w3.org/2000/svg" xmlns:xlink="http://www.w3.org/1999/xlink">
 <defs>
  <style type="text/css">
*{stroke-linecap:butt;stroke-linejoin:round;}
  </style>
 </defs>
 <g id="figure_1">
  <g id="patch_1">
   <path d="M 0 432 
L 504 432 
L 504 0 
L 0 0 
z
" style="fill:#ffffff;"/>
  </g>
  <g id="axes_1">
   <g id="patch_2">
    <path d="M 63 384.48 
L 453.6 384.48 
L 453.6 51.84 
L 63 51.84 
z
" style="fill:#ffffff;"/>
   </g>
   <g id="matplotlib.axis_1">
    <g id="xtick_1">
     <g id="line2d_1">
      <defs>
       <path d="M 0 0 
L 0 3.5 
" id="mc7cd6ef4a5" style="stroke:#000000;stroke-width:0.8;"/>
      </defs>
      <g>
       <use style="stroke:#000000;stroke-width:0.8;" x="80.754545" xlink:href="#mc7cd6ef4a5" y="384.48"/>
      </g>
     </g>
     <g id="text_1">
      <!-- 0 -->
      <defs>
       <path d="M 31.78125 66.40625 
Q 24.171875 66.40625 20.328125 58.90625 
Q 16.5 51.421875 16.5 36.375 
Q 16.5 21.390625 20.328125 13.890625 
Q 24.171875 6.390625 31.78125 6.390625 
Q 39.453125 6.390625 43.28125 13.890625 
Q 47.125 21.390625 47.125 36.375 
Q 47.125 51.421875 43.28125 58.90625 
Q 39.453125 66.40625 31.78125 66.40625 
z
M 31.78125 74.21875 
Q 44.046875 74.21875 50.515625 64.515625 
Q 56.984375 54.828125 56.984375 36.375 
Q 56.984375 17.96875 50.515625 8.265625 
Q 44.046875 -1.421875 31.78125 -1.421875 
Q 19.53125 -1.421875 13.0625 8.265625 
Q 6.59375 17.96875 6.59375 36.375 
Q 6.59375 54.828125 13.0625 64.515625 
Q 19.53125 74.21875 31.78125 74.21875 
z
" id="DejaVuSans-30"/>
      </defs>
      <g transform="translate(77.573295 399.078438)scale(0.1 -0.1)">
       <use xlink:href="#DejaVuSans-30"/>
      </g>
     </g>
    </g>
    <g id="xtick_2">
     <g id="line2d_2">
      <g>
       <use style="stroke:#000000;stroke-width:0.8;" x="151.772727" xlink:href="#mc7cd6ef4a5" y="384.48"/>
      </g>
     </g>
     <g id="text_2">
      <!-- 200 -->
      <defs>
       <path d="M 19.1875 8.296875 
L 53.609375 8.296875 
L 53.609375 0 
L 7.328125 0 
L 7.328125 8.296875 
Q 12.9375 14.109375 22.625 23.890625 
Q 32.328125 33.6875 34.8125 36.53125 
Q 39.546875 41.84375 41.421875 45.53125 
Q 43.3125 49.21875 43.3125 52.78125 
Q 43.3125 58.59375 39.234375 62.25 
Q 35.15625 65.921875 28.609375 65.921875 
Q 23.96875 65.921875 18.8125 64.3125 
Q 13.671875 62.703125 7.8125 59.421875 
L 7.8125 69.390625 
Q 13.765625 71.78125 18.9375 73 
Q 24.125 74.21875 28.421875 74.21875 
Q 39.75 74.21875 46.484375 68.546875 
Q 53.21875 62.890625 53.21875 53.421875 
Q 53.21875 48.921875 51.53125 44.890625 
Q 49.859375 40.875 45.40625 35.40625 
Q 44.1875 33.984375 37.640625 27.21875 
Q 31.109375 20.453125 19.1875 8.296875 
z
" id="DejaVuSans-32"/>
      </defs>
      <g transform="translate(142.228977 399.078438)scale(0.1 -0.1)">
       <use xlink:href="#DejaVuSans-32"/>
       <use x="63.623047" xlink:href="#DejaVuSans-30"/>
       <use x="127.246094" xlink:href="#DejaVuSans-30"/>
      </g>
     </g>
    </g>
    <g id="xtick_3">
     <g id="line2d_3">
      <g>
       <use style="stroke:#000000;stroke-width:0.8;" x="222.790909" xlink:href="#mc7cd6ef4a5" y="384.48"/>
      </g>
     </g>
     <g id="text_3">
      <!-- 400 -->
      <defs>
       <path d="M 37.796875 64.3125 
L 12.890625 25.390625 
L 37.796875 25.390625 
z
M 35.203125 72.90625 
L 47.609375 72.90625 
L 47.609375 25.390625 
L 58.015625 25.390625 
L 58.015625 17.1875 
L 47.609375 17.1875 
L 47.609375 0 
L 37.796875 0 
L 37.796875 17.1875 
L 4.890625 17.1875 
L 4.890625 26.703125 
z
" id="DejaVuSans-34"/>
      </defs>
      <g transform="translate(213.247159 399.078438)scale(0.1 -0.1)">
       <use xlink:href="#DejaVuSans-34"/>
       <use x="63.623047" xlink:href="#DejaVuSans-30"/>
       <use x="127.246094" xlink:href="#DejaVuSans-30"/>
      </g>
     </g>
    </g>
    <g id="xtick_4">
     <g id="line2d_4">
      <g>
       <use style="stroke:#000000;stroke-width:0.8;" x="293.809091" xlink:href="#mc7cd6ef4a5" y="384.48"/>
      </g>
     </g>
     <g id="text_4">
      <!-- 600 -->
      <defs>
       <path d="M 33.015625 40.375 
Q 26.375 40.375 22.484375 35.828125 
Q 18.609375 31.296875 18.609375 23.390625 
Q 18.609375 15.53125 22.484375 10.953125 
Q 26.375 6.390625 33.015625 6.390625 
Q 39.65625 6.390625 43.53125 10.953125 
Q 47.40625 15.53125 47.40625 23.390625 
Q 47.40625 31.296875 43.53125 35.828125 
Q 39.65625 40.375 33.015625 40.375 
z
M 52.59375 71.296875 
L 52.59375 62.3125 
Q 48.875 64.0625 45.09375 64.984375 
Q 41.3125 65.921875 37.59375 65.921875 
Q 27.828125 65.921875 22.671875 59.328125 
Q 17.53125 52.734375 16.796875 39.40625 
Q 19.671875 43.65625 24.015625 45.921875 
Q 28.375 48.1875 33.59375 48.1875 
Q 44.578125 48.1875 50.953125 41.515625 
Q 57.328125 34.859375 57.328125 23.390625 
Q 57.328125 12.15625 50.6875 5.359375 
Q 44.046875 -1.421875 33.015625 -1.421875 
Q 20.359375 -1.421875 13.671875 8.265625 
Q 6.984375 17.96875 6.984375 36.375 
Q 6.984375 53.65625 15.1875 63.9375 
Q 23.390625 74.21875 37.203125 74.21875 
Q 40.921875 74.21875 44.703125 73.484375 
Q 48.484375 72.75 52.59375 71.296875 
z
" id="DejaVuSans-36"/>
      </defs>
      <g transform="translate(284.265341 399.078438)scale(0.1 -0.1)">
       <use xlink:href="#DejaVuSans-36"/>
       <use x="63.623047" xlink:href="#DejaVuSans-30"/>
       <use x="127.246094" xlink:href="#DejaVuSans-30"/>
      </g>
     </g>
    </g>
    <g id="xtick_5">
     <g id="line2d_5">
      <g>
       <use style="stroke:#000000;stroke-width:0.8;" x="364.827273" xlink:href="#mc7cd6ef4a5" y="384.48"/>
      </g>
     </g>
     <g id="text_5">
      <!-- 800 -->
      <defs>
       <path d="M 31.78125 34.625 
Q 24.75 34.625 20.71875 30.859375 
Q 16.703125 27.09375 16.703125 20.515625 
Q 16.703125 13.921875 20.71875 10.15625 
Q 24.75 6.390625 31.78125 6.390625 
Q 38.8125 6.390625 42.859375 10.171875 
Q 46.921875 13.96875 46.921875 20.515625 
Q 46.921875 27.09375 42.890625 30.859375 
Q 38.875 34.625 31.78125 34.625 
z
M 21.921875 38.8125 
Q 15.578125 40.375 12.03125 44.71875 
Q 8.5 49.078125 8.5 55.328125 
Q 8.5 64.0625 14.71875 69.140625 
Q 20.953125 74.21875 31.78125 74.21875 
Q 42.671875 74.21875 48.875 69.140625 
Q 55.078125 64.0625 55.078125 55.328125 
Q 55.078125 49.078125 51.53125 44.71875 
Q 48 40.375 41.703125 38.8125 
Q 48.828125 37.15625 52.796875 32.3125 
Q 56.78125 27.484375 56.78125 20.515625 
Q 56.78125 9.90625 50.3125 4.234375 
Q 43.84375 -1.421875 31.78125 -1.421875 
Q 19.734375 -1.421875 13.25 4.234375 
Q 6.78125 9.90625 6.78125 20.515625 
Q 6.78125 27.484375 10.78125 32.3125 
Q 14.796875 37.15625 21.921875 38.8125 
z
M 18.3125 54.390625 
Q 18.3125 48.734375 21.84375 45.5625 
Q 25.390625 42.390625 31.78125 42.390625 
Q 38.140625 42.390625 41.71875 45.5625 
Q 45.3125 48.734375 45.3125 54.390625 
Q 45.3125 60.0625 41.71875 63.234375 
Q 38.140625 66.40625 31.78125 66.40625 
Q 25.390625 66.40625 21.84375 63.234375 
Q 18.3125 60.0625 18.3125 54.390625 
z
" id="DejaVuSans-38"/>
      </defs>
      <g transform="translate(355.283523 399.078438)scale(0.1 -0.1)">
       <use xlink:href="#DejaVuSans-38"/>
       <use x="63.623047" xlink:href="#DejaVuSans-30"/>
       <use x="127.246094" xlink:href="#DejaVuSans-30"/>
      </g>
     </g>
    </g>
    <g id="text_6">
     <!-- time [ms] -->
     <defs>
      <path d="M 18.3125 70.21875 
L 18.3125 54.6875 
L 36.8125 54.6875 
L 36.8125 47.703125 
L 18.3125 47.703125 
L 18.3125 18.015625 
Q 18.3125 11.328125 20.140625 9.421875 
Q 21.96875 7.515625 27.59375 7.515625 
L 36.8125 7.515625 
L 36.8125 0 
L 27.59375 0 
Q 17.1875 0 13.234375 3.875 
Q 9.28125 7.765625 9.28125 18.015625 
L 9.28125 47.703125 
L 2.6875 47.703125 
L 2.6875 54.6875 
L 9.28125 54.6875 
L 9.28125 70.21875 
z
" id="DejaVuSans-74"/>
      <path d="M 9.421875 54.6875 
L 18.40625 54.6875 
L 18.40625 0 
L 9.421875 0 
z
M 9.421875 75.984375 
L 18.40625 75.984375 
L 18.40625 64.59375 
L 9.421875 64.59375 
z
" id="DejaVuSans-69"/>
      <path d="M 52 44.1875 
Q 55.375 50.25 60.0625 53.125 
Q 64.75 56 71.09375 56 
Q 79.640625 56 84.28125 50.015625 
Q 88.921875 44.046875 88.921875 33.015625 
L 88.921875 0 
L 79.890625 0 
L 79.890625 32.71875 
Q 79.890625 40.578125 77.09375 44.375 
Q 74.3125 48.1875 68.609375 48.1875 
Q 61.625 48.1875 57.5625 43.546875 
Q 53.515625 38.921875 53.515625 30.90625 
L 53.515625 0 
L 44.484375 0 
L 44.484375 32.71875 
Q 44.484375 40.625 41.703125 44.40625 
Q 38.921875 48.1875 33.109375 48.1875 
Q 26.21875 48.1875 22.15625 43.53125 
Q 18.109375 38.875 18.109375 30.90625 
L 18.109375 0 
L 9.078125 0 
L 9.078125 54.6875 
L 18.109375 54.6875 
L 18.109375 46.1875 
Q 21.1875 51.21875 25.484375 53.609375 
Q 29.78125 56 35.6875 56 
Q 41.65625 56 45.828125 52.96875 
Q 50 49.953125 52 44.1875 
z
" id="DejaVuSans-6d"/>
      <path d="M 56.203125 29.59375 
L 56.203125 25.203125 
L 14.890625 25.203125 
Q 15.484375 15.921875 20.484375 11.0625 
Q 25.484375 6.203125 34.421875 6.203125 
Q 39.59375 6.203125 44.453125 7.46875 
Q 49.3125 8.734375 54.109375 11.28125 
L 54.109375 2.78125 
Q 49.265625 0.734375 44.1875 -0.34375 
Q 39.109375 -1.421875 33.890625 -1.421875 
Q 20.796875 -1.421875 13.15625 6.1875 
Q 5.515625 13.8125 5.515625 26.8125 
Q 5.515625 40.234375 12.765625 48.109375 
Q 20.015625 56 32.328125 56 
Q 43.359375 56 49.78125 48.890625 
Q 56.203125 41.796875 56.203125 29.59375 
z
M 47.21875 32.234375 
Q 47.125 39.59375 43.09375 43.984375 
Q 39.0625 48.390625 32.421875 48.390625 
Q 24.90625 48.390625 20.390625 44.140625 
Q 15.875 39.890625 15.1875 32.171875 
z
" id="DejaVuSans-65"/>
      <path id="DejaVuSans-20"/>
      <path d="M 8.59375 75.984375 
L 29.296875 75.984375 
L 29.296875 69 
L 17.578125 69 
L 17.578125 -6.203125 
L 29.296875 -6.203125 
L 29.296875 -13.1875 
L 8.59375 -13.1875 
z
" id="DejaVuSans-5b"/>
      <path d="M 44.28125 53.078125 
L 44.28125 44.578125 
Q 40.484375 46.53125 36.375 47.5 
Q 32.28125 48.484375 27.875 48.484375 
Q 21.1875 48.484375 17.84375 46.4375 
Q 14.5 44.390625 14.5 40.28125 
Q 14.5 37.15625 16.890625 35.375 
Q 19.28125 33.59375 26.515625 31.984375 
L 29.59375 31.296875 
Q 39.15625 29.25 43.1875 25.515625 
Q 47.21875 21.78125 47.21875 15.09375 
Q 47.21875 7.46875 41.1875 3.015625 
Q 35.15625 -1.421875 24.609375 -1.421875 
Q 20.21875 -1.421875 15.453125 -0.5625 
Q 10.6875 0.296875 5.421875 2 
L 5.421875 11.28125 
Q 10.40625 8.6875 15.234375 7.390625 
Q 20.0625 6.109375 24.8125 6.109375 
Q 31.15625 6.109375 34.5625 8.28125 
Q 37.984375 10.453125 37.984375 14.40625 
Q 37.984375 18.0625 35.515625 20.015625 
Q 33.0625 21.96875 24.703125 23.78125 
L 21.578125 24.515625 
Q 13.234375 26.265625 9.515625 29.90625 
Q 5.8125 33.546875 5.8125 39.890625 
Q 5.8125 47.609375 11.28125 51.796875 
Q 16.75 56 26.8125 56 
Q 31.78125 56 36.171875 55.265625 
Q 40.578125 54.546875 44.28125 53.078125 
z
" id="DejaVuSans-73"/>
      <path d="M 30.421875 75.984375 
L 30.421875 -13.1875 
L 9.71875 -13.1875 
L 9.71875 -6.203125 
L 21.390625 -6.203125 
L 21.390625 69 
L 9.71875 69 
L 9.71875 75.984375 
z
" id="DejaVuSans-5d"/>
     </defs>
     <g transform="translate(234.038281 412.756563)scale(0.1 -0.1)">
      <use xlink:href="#DejaVuSans-74"/>
      <use x="39.208984" xlink:href="#DejaVuSans-69"/>
      <use x="66.992188" xlink:href="#DejaVuSans-6d"/>
      <use x="164.404297" xlink:href="#DejaVuSans-65"/>
      <use x="225.927734" xlink:href="#DejaVuSans-20"/>
      <use x="257.714844" xlink:href="#DejaVuSans-5b"/>
      <use x="296.728516" xlink:href="#DejaVuSans-6d"/>
      <use x="394.140625" xlink:href="#DejaVuSans-73"/>
      <use x="446.240234" xlink:href="#DejaVuSans-5d"/>
     </g>
    </g>
   </g>
   <g id="matplotlib.axis_2">
    <g id="ytick_1">
     <g id="line2d_6">
      <defs>
       <path d="M 0 0 
L -3.5 0 
" id="mdcfb6cced6" style="stroke:#000000;stroke-width:0.8;"/>
      </defs>
      <g>
       <use style="stroke:#000000;stroke-width:0.8;" x="63" xlink:href="#mdcfb6cced6" y="382.196076"/>
      </g>
     </g>
     <g id="text_7">
      <!-- −80 -->
      <defs>
       <path d="M 10.59375 35.5 
L 73.1875 35.5 
L 73.1875 27.203125 
L 10.59375 27.203125 
z
" id="DejaVuSans-2212"/>
      </defs>
      <g transform="translate(34.895313 385.995295)scale(0.1 -0.1)">
       <use xlink:href="#DejaVuSans-2212"/>
       <use x="83.789062" xlink:href="#DejaVuSans-38"/>
       <use x="147.412109" xlink:href="#DejaVuSans-30"/>
      </g>
     </g>
    </g>
    <g id="ytick_2">
     <g id="line2d_7">
      <g>
       <use style="stroke:#000000;stroke-width:0.8;" x="63" xlink:href="#mdcfb6cced6" y="329.579302"/>
      </g>
     </g>
     <g id="text_8">
      <!-- −60 -->
      <g transform="translate(34.895313 333.378521)scale(0.1 -0.1)">
       <use xlink:href="#DejaVuSans-2212"/>
       <use x="83.789062" xlink:href="#DejaVuSans-36"/>
       <use x="147.412109" xlink:href="#DejaVuSans-30"/>
      </g>
     </g>
    </g>
    <g id="ytick_3">
     <g id="line2d_8">
      <g>
       <use style="stroke:#000000;stroke-width:0.8;" x="63" xlink:href="#mdcfb6cced6" y="276.962529"/>
      </g>
     </g>
     <g id="text_9">
      <!-- −40 -->
      <g transform="translate(34.895313 280.761748)scale(0.1 -0.1)">
       <use xlink:href="#DejaVuSans-2212"/>
       <use x="83.789062" xlink:href="#DejaVuSans-34"/>
       <use x="147.412109" xlink:href="#DejaVuSans-30"/>
      </g>
     </g>
    </g>
    <g id="ytick_4">
     <g id="line2d_9">
      <g>
       <use style="stroke:#000000;stroke-width:0.8;" x="63" xlink:href="#mdcfb6cced6" y="224.345755"/>
      </g>
     </g>
     <g id="text_10">
      <!-- −20 -->
      <g transform="translate(34.895313 228.144974)scale(0.1 -0.1)">
       <use xlink:href="#DejaVuSans-2212"/>
       <use x="83.789062" xlink:href="#DejaVuSans-32"/>
       <use x="147.412109" xlink:href="#DejaVuSans-30"/>
      </g>
     </g>
    </g>
    <g id="ytick_5">
     <g id="line2d_10">
      <g>
       <use style="stroke:#000000;stroke-width:0.8;" x="63" xlink:href="#mdcfb6cced6" y="171.728982"/>
      </g>
     </g>
     <g id="text_11">
      <!-- 0 -->
      <g transform="translate(49.6375 175.528201)scale(0.1 -0.1)">
       <use xlink:href="#DejaVuSans-30"/>
      </g>
     </g>
    </g>
    <g id="ytick_6">
     <g id="line2d_11">
      <g>
       <use style="stroke:#000000;stroke-width:0.8;" x="63" xlink:href="#mdcfb6cced6" y="119.112208"/>
      </g>
     </g>
     <g id="text_12">
      <!-- 20 -->
      <g transform="translate(43.275 122.911427)scale(0.1 -0.1)">
       <use xlink:href="#DejaVuSans-32"/>
       <use x="63.623047" xlink:href="#DejaVuSans-30"/>
      </g>
     </g>
    </g>
    <g id="ytick_7">
     <g id="line2d_12">
      <g>
       <use style="stroke:#000000;stroke-width:0.8;" x="63" xlink:href="#mdcfb6cced6" y="66.495435"/>
      </g>
     </g>
     <g id="text_13">
      <!-- 40 -->
      <g transform="translate(43.275 70.294653)scale(0.1 -0.1)">
       <use xlink:href="#DejaVuSans-34"/>
       <use x="63.623047" xlink:href="#DejaVuSans-30"/>
      </g>
     </g>
    </g>
    <g id="text_14">
     <!-- voltage [mV] -->
     <defs>
      <path d="M 2.984375 54.6875 
L 12.5 54.6875 
L 29.59375 8.796875 
L 46.6875 54.6875 
L 56.203125 54.6875 
L 35.6875 0 
L 23.484375 0 
z
" id="DejaVuSans-76"/>
      <path d="M 30.609375 48.390625 
Q 23.390625 48.390625 19.1875 42.75 
Q 14.984375 37.109375 14.984375 27.296875 
Q 14.984375 17.484375 19.15625 11.84375 
Q 23.34375 6.203125 30.609375 6.203125 
Q 37.796875 6.203125 41.984375 11.859375 
Q 46.1875 17.53125 46.1875 27.296875 
Q 46.1875 37.015625 41.984375 42.703125 
Q 37.796875 48.390625 30.609375 48.390625 
z
M 30.609375 56 
Q 42.328125 56 49.015625 48.375 
Q 55.71875 40.765625 55.71875 27.296875 
Q 55.71875 13.875 49.015625 6.21875 
Q 42.328125 -1.421875 30.609375 -1.421875 
Q 18.84375 -1.421875 12.171875 6.21875 
Q 5.515625 13.875 5.515625 27.296875 
Q 5.515625 40.765625 12.171875 48.375 
Q 18.84375 56 30.609375 56 
z
" id="DejaVuSans-6f"/>
      <path d="M 9.421875 75.984375 
L 18.40625 75.984375 
L 18.40625 0 
L 9.421875 0 
z
" id="DejaVuSans-6c"/>
      <path d="M 34.28125 27.484375 
Q 23.390625 27.484375 19.1875 25 
Q 14.984375 22.515625 14.984375 16.5 
Q 14.984375 11.71875 18.140625 8.90625 
Q 21.296875 6.109375 26.703125 6.109375 
Q 34.1875 6.109375 38.703125 11.40625 
Q 43.21875 16.703125 43.21875 25.484375 
L 43.21875 27.484375 
z
M 52.203125 31.203125 
L 52.203125 0 
L 43.21875 0 
L 43.21875 8.296875 
Q 40.140625 3.328125 35.546875 0.953125 
Q 30.953125 -1.421875 24.3125 -1.421875 
Q 15.921875 -1.421875 10.953125 3.296875 
Q 6 8.015625 6 15.921875 
Q 6 25.140625 12.171875 29.828125 
Q 18.359375 34.515625 30.609375 34.515625 
L 43.21875 34.515625 
L 43.21875 35.40625 
Q 43.21875 41.609375 39.140625 45 
Q 35.0625 48.390625 27.6875 48.390625 
Q 23 48.390625 18.546875 47.265625 
Q 14.109375 46.140625 10.015625 43.890625 
L 10.015625 52.203125 
Q 14.9375 54.109375 19.578125 55.046875 
Q 24.21875 56 28.609375 56 
Q 40.484375 56 46.34375 49.84375 
Q 52.203125 43.703125 52.203125 31.203125 
z
" id="DejaVuSans-61"/>
      <path d="M 45.40625 27.984375 
Q 45.40625 37.75 41.375 43.109375 
Q 37.359375 48.484375 30.078125 48.484375 
Q 22.859375 48.484375 18.828125 43.109375 
Q 14.796875 37.75 14.796875 27.984375 
Q 14.796875 18.265625 18.828125 12.890625 
Q 22.859375 7.515625 30.078125 7.515625 
Q 37.359375 7.515625 41.375 12.890625 
Q 45.40625 18.265625 45.40625 27.984375 
z
M 54.390625 6.78125 
Q 54.390625 -7.171875 48.1875 -13.984375 
Q 42 -20.796875 29.203125 -20.796875 
Q 24.46875 -20.796875 20.265625 -20.09375 
Q 16.0625 -19.390625 12.109375 -17.921875 
L 12.109375 -9.1875 
Q 16.0625 -11.328125 19.921875 -12.34375 
Q 23.78125 -13.375 27.78125 -13.375 
Q 36.625 -13.375 41.015625 -8.765625 
Q 45.40625 -4.15625 45.40625 5.171875 
L 45.40625 9.625 
Q 42.625 4.78125 38.28125 2.390625 
Q 33.9375 0 27.875 0 
Q 17.828125 0 11.671875 7.65625 
Q 5.515625 15.328125 5.515625 27.984375 
Q 5.515625 40.671875 11.671875 48.328125 
Q 17.828125 56 27.875 56 
Q 33.9375 56 38.28125 53.609375 
Q 42.625 51.21875 45.40625 46.390625 
L 45.40625 54.6875 
L 54.390625 54.6875 
z
" id="DejaVuSans-67"/>
      <path d="M 28.609375 0 
L 0.78125 72.90625 
L 11.078125 72.90625 
L 34.1875 11.53125 
L 57.328125 72.90625 
L 67.578125 72.90625 
L 39.796875 0 
z
" id="DejaVuSans-56"/>
     </defs>
     <g transform="translate(28.815625 250.624062)rotate(-90)scale(0.1 -0.1)">
      <use xlink:href="#DejaVuSans-76"/>
      <use x="59.179688" xlink:href="#DejaVuSans-6f"/>
      <use x="120.361328" xlink:href="#DejaVuSans-6c"/>
      <use x="148.144531" xlink:href="#DejaVuSans-74"/>
      <use x="187.353516" xlink:href="#DejaVuSans-61"/>
      <use x="248.632812" xlink:href="#DejaVuSans-67"/>
      <use x="312.109375" xlink:href="#DejaVuSans-65"/>
      <use x="373.632812" xlink:href="#DejaVuSans-20"/>
      <use x="405.419922" xlink:href="#DejaVuSans-5b"/>
      <use x="444.433594" xlink:href="#DejaVuSans-6d"/>
      <use x="541.845703" xlink:href="#DejaVuSans-56"/>
      <use x="610.253906" xlink:href="#DejaVuSans-5d"/>
     </g>
    </g>
   </g>
   <g id="line2d_13">
    <path clip-path="url(#pf0bbe88fd2)" d="M 80.754545 342.733496 
L 81.952977 342.596955 
L 83.772818 342.654044 
L 85.965505 342.672986 
L 151.772727 342.664305 
L 152.314241 298.040545 
L 152.420768 249.295577 
L 152.562805 67.348353 
L 152.678209 92.62282 
L 153.565936 369.280763 
L 153.610323 369.180002 
L 153.8145 367.798022 
L 154.293873 363.033573 
L 154.959668 353.891672 
L 157.42755 314.91264 
L 157.613973 303.760252 
L 157.738255 281.74513 
L 157.835905 219.047509 
L 157.969064 91.764377 
L 158.031205 104.946457 
L 158.883423 368.855356 
L 158.945564 368.67146 
L 159.203005 366.687808 
L 159.717886 361.00204 
L 160.534595 349.048035 
L 161.8218 330.876832 
L 162.514227 320.486861 
L 162.771668 312.949245 
L 162.940336 300.930785 
L 163.064618 272.901303 
L 163.162268 188.3115 
L 163.268795 92.686749 
L 163.322059 102.221435 
L 163.863573 297.761676 
L 164.147645 368.678301 
L 164.183155 368.823523 
L 164.245295 368.641732 
L 164.493859 366.733848 
L 165.008741 361.067811 
L 165.834327 348.990419 
L 167.112655 330.951548 
L 167.813959 320.451345 
L 168.0714 312.903995 
L 168.240068 300.846072 
L 168.36435 272.654531 
L 168.462 187.56421 
L 168.568527 92.763833 
L 168.621791 102.444004 
L 169.172182 301.722404 
L 169.4385 368.592272 
L 169.482886 368.821418 
L 169.545027 368.635681 
L 169.802468 366.643873 
L 170.31735 360.940215 
L 171.151814 348.700764 
L 172.430141 330.708195 
L 173.113691 320.432929 
L 173.371132 312.867426 
L 173.5398 300.750046 
L 173.664082 272.315678 
L 173.761732 186.410298 
L 173.868259 92.78067 
L 173.921523 102.680516 
L 174.480791 305.802835 
L 174.729355 368.482566 
L 174.782618 368.821418 
L 174.844759 368.631472 
L 175.1022 366.636507 
L 175.617082 360.929428 
L 176.451545 348.687873 
L 177.729873 330.697409 
L 178.413423 320.416091 
L 178.670864 312.831383 
L 178.839532 300.652705 
L 178.963814 271.967882 
L 179.061464 185.222606 
L 179.167991 92.798034 
L 179.221255 102.919659 
L 179.7894 309.986658 
L 180.029086 368.494931 
L 180.08235 368.821681 
L 180.144491 368.626999 
L 180.401932 366.62914 
L 180.916814 360.918905 
L 181.751277 348.675508 
L 183.029605 330.686885 
L 183.713155 320.398991 
L 183.970595 312.795078 
L 184.139264 300.554312 
L 184.263545 271.611929 
L 184.361195 184.014025 
L 184.467723 92.821974 
L 184.520986 103.162486 
L 185.098009 314.26256 
L 185.328818 368.507033 
L 185.382082 368.821681 
L 185.444223 368.62279 
L 185.701664 366.621511 
L 186.216545 360.908382 
L 187.051009 348.66288 
L 188.329336 330.676362 
L 189.012886 320.382153 
L 189.270327 312.758509 
L 189.438995 300.45434 
L 189.563277 271.250715 
L 189.660927 182.80063 
L 189.767455 92.851703 
L 189.820718 103.40768 
L 190.406618 318.61081 
L 190.619673 368.37286 
L 190.681814 368.821418 
L 190.743955 368.618318 
L 191.010273 366.532589 
L 191.525155 360.782628 
L 192.368495 348.376645 
L 193.637945 330.550082 
L 194.312618 320.36479 
L 194.570059 312.72194 
L 194.738727 300.353842 
L 194.863009 270.886081 
L 194.969536 168.19274 
L 195.058309 92.838285 
L 195.12045 103.655505 
L 195.715227 323.005363 
L 195.919405 368.388382 
L 195.981545 368.821418 
L 196.043686 368.613845 
L 196.310005 366.524959 
L 196.833764 360.656347 
L 197.703736 347.817592 
L 198.955432 330.308308 
L 199.61235 320.347689 
L 199.869791 312.684846 
L 200.038459 300.252291 
L 200.162741 270.51408 
L 200.269268 166.926491 
L 200.358041 92.80882 
L 200.420182 103.907539 
L 201.023836 327.409124 
L 201.219136 368.403115 
L 201.281277 368.820892 
L 201.343418 368.609373 
L 201.609736 366.51733 
L 202.133495 360.645298 
L 202.994591 347.941241 
L 204.255164 330.297521 
L 204.912082 320.330063 
L 205.169523 312.647225 
L 205.338191 300.149162 
L 205.462473 270.13445 
L 205.569 165.651744 
L 205.657773 92.786458 
L 205.719914 104.161415 
L 206.332445 331.773948 
L 206.518868 368.417848 
L 206.581009 368.820629 
L 206.634273 368.651466 
L 206.873959 366.832241 
L 207.388841 361.208034 
L 208.187795 349.570256 
L 209.510509 330.863678 
L 210.202936 320.497384 
L 210.460377 313.003177 
L 210.629045 301.11468 
L 210.753327 273.609788 
L 210.850977 190.877988 
L 210.957505 92.771199 
L 211.019645 104.416343 
L 211.641055 336.045641 
L 211.827477 368.563859 
L 211.880741 368.820103 
L 211.934005 368.647257 
L 212.182568 366.744897 
L 212.69745 361.083596 
L 213.514159 349.146428 
L 214.810241 330.852891 
L 215.502668 320.480284 
L 215.760109 312.967135 
L 215.928777 301.018128 
L 216.053059 273.269621 
L 216.150709 189.696216 
L 216.257236 92.764885 
L 216.319377 104.670746 
L 216.949664 340.160536 
L 217.127209 368.574383 
L 217.171595 368.820629 
L 217.233736 368.643047 
L 217.4823 366.737531 
L 217.997182 361.073072 
L 218.822768 348.996733 
L 220.101095 330.957336 
L 220.8024 320.463183 
L 221.059841 312.931355 
L 221.228509 300.92184 
L 221.352791 272.928138 
L 221.450441 188.515022 
L 221.556968 92.765411 
L 221.610232 102.25853 
L 222.151745 297.817187 
L 222.426941 368.58438 
L 222.471327 368.820892 
L 222.533468 368.638838 
L 222.782032 366.730165 
L 223.296914 361.062549 
L 224.1225 348.983842 
L 225.418582 330.716351 
L 226.111009 320.260609 
L 226.36845 312.49753 
L 226.537118 299.734805 
L 226.652523 272.584024 
L 226.750173 187.329119 
L 226.8567 92.771462 
L 226.909964 102.49662 
L 227.460355 301.797909 
L 227.726673 368.594114 
L 227.771059 368.821418 
L 227.8332 368.634629 
L 228.090641 366.642031 
L 228.605523 360.937584 
L 229.439986 348.697607 
L 230.718314 330.705564 
L 231.401864 320.428982 
L 231.659305 312.859007 
L 231.827973 300.727947 
L 231.952255 272.237543 
L 232.049905 186.143005 
L 232.156432 92.784353 
L 232.209695 102.734448 
L 232.768964 305.881497 
L 233.017527 368.48546 
L 233.070791 368.821418 
L 233.132932 368.630419 
L 233.390373 366.634665 
L 233.905255 360.927061 
L 234.739718 348.684979 
L 236.018045 330.695041 
L 236.701595 320.412145 
L 236.959036 312.823228 
L 237.127705 300.630606 
L 237.251986 271.887904 
L 237.349636 184.950104 
L 237.456164 92.802769 
L 237.509427 102.974644 
L 238.077573 310.067687 
L 238.317259 368.497562 
L 238.370523 368.821681 
L 238.432664 368.62621 
L 238.690105 366.627299 
L 239.204986 360.916537 
L 240.03945 348.672614 
L 241.317777 330.684518 
L 242.001327 320.395308 
L 242.258768 312.786922 
L 242.427436 300.531686 
L 242.551718 271.53011 
L 242.649368 183.738708 
L 242.755895 92.828288 
L 242.809159 103.217996 
L 243.386182 314.345431 
L 243.616991 368.509664 
L 243.670255 368.821681 
L 243.732395 368.621738 
L 243.989836 366.619932 
L 244.504718 360.906014 
L 245.348059 348.523182 
L 246.617509 330.673731 
L 247.301059 320.378207 
L 247.5585 312.750354 
L 247.727168 300.431451 
L 247.85145 271.16837 
L 247.9491 182.524128 
L 248.055627 92.859595 
L 248.108891 103.463717 
L 248.694791 318.695523 
L 248.907845 368.376543 
L 248.969986 368.821418 
L 249.032127 368.617528 
L 249.298445 366.53101 
L 249.822205 360.664766 
L 250.692177 347.827589 
L 251.943873 330.316726 
L 252.600791 320.360844 
L 252.858232 312.713522 
L 253.0269 300.33069 
L 253.151182 270.801894 
L 253.257709 167.904453 
L 253.346482 92.830919 
L 253.408623 103.712857 
L 254.0034 323.091654 
L 254.207577 368.391802 
L 254.269718 368.821155 
L 254.331859 368.613056 
L 254.598177 366.523381 
L 255.121936 360.653717 
L 255.983032 347.951238 
L 257.22585 330.536928 
L 257.900523 320.343743 
L 258.157964 312.676427 
L 258.326632 300.228877 
L 258.450914 270.428052 
L 258.557441 166.635599 
L 258.646214 92.803032 
L 258.708355 103.965681 
L 259.312009 327.495415 
L 259.507309 368.406535 
L 259.56945 368.820892 
L 259.631591 368.60832 
L 259.897909 366.515488 
L 260.421668 360.64293 
L 261.291641 347.80207 
L 262.525582 330.526141 
L 263.200255 320.326117 
L 263.457695 312.638806 
L 263.626364 300.125485 
L 263.750645 270.047106 
L 263.857173 165.360326 
L 263.945945 92.782249 
L 264.008086 104.219557 
L 264.620618 331.858924 
L 264.807041 368.421268 
L 264.869182 368.820366 
L 264.922445 368.650677 
L 265.171009 366.750685 
L 265.685891 361.092014 
L 266.511477 349.019359 
L 267.807559 330.746079 
L 268.499986 320.308753 
L 268.757427 312.601185 
L 268.926095 300.022093 
L 269.050377 269.666161 
L 269.156905 164.094551 
L 269.245677 92.769094 
L 269.298941 101.838911 
L 269.8227 290.240109 
L 270.133405 368.733022 
L 270.168914 368.820103 
L 270.222177 368.646467 
L 270.470741 366.743319 
L 270.985623 361.081228 
L 271.802332 349.143534 
L 273.098414 330.850524 
L 273.790841 320.476337 
L 274.048282 312.958979 
L 274.21695 300.996293 
L 274.341232 273.191748 
L 274.438882 189.425871 
L 274.545409 92.764622 
L 274.598673 102.075423 
L 275.131309 294.015625 
L 275.424259 368.670934 
L 275.459768 368.820629 
L 275.521909 368.642258 
L 275.770473 366.735952 
L 276.285355 361.070704 
L 277.110941 348.993839 
L 278.389268 330.954968 
L 279.090573 320.459237 
L 279.348014 312.922937 
L 279.516682 300.899741 
L 279.640964 272.849739 
L 279.738614 188.244571 
L 279.845141 92.765937 
L 279.898405 102.312988 
L 280.439918 297.893218 
L 280.715114 368.586484 
L 280.7595 368.821155 
L 280.821641 368.638049 
L 281.079082 366.647819 
L 281.593964 360.94574 
L 282.428427 348.707341 
L 283.706755 330.71372 
L 284.390305 320.442137 
L 284.647745 312.886894 
L 284.816414 300.802926 
L 284.940695 272.505099 
L 285.038345 187.058563 
L 285.144873 92.77383 
L 285.198136 102.550816 
L 285.748527 301.874993 
L 286.014845 368.596218 
L 286.059232 368.821418 
L 286.121373 368.633576 
L 286.378814 366.640453 
L 286.893695 360.935216 
L 287.728159 348.694713 
L 289.006486 330.703197 
L 289.690036 320.425299 
L 289.947477 312.850852 
L 290.116145 300.705848 
L 290.240427 272.158091 
L 290.338077 185.871555 
L 290.444605 92.788036 
L 290.497868 102.788907 
L 291.057136 305.960948 
L 291.3057 368.488354 
L 291.358964 368.821681 
L 291.421105 368.629367 
L 291.678545 366.633087 
L 292.193427 360.924693 
L 293.027891 348.682085 
L 294.315095 330.577179 
L 294.989768 320.408199 
L 295.247209 312.814809 
L 295.415877 300.608244 
L 295.540159 271.806874 
L 295.637809 184.674734 
L 295.744336 92.808031 
L 295.7976 103.029891 
L 296.365745 310.149243 
L 296.605432 368.500456 
L 296.658695 368.821681 
L 296.720836 368.625158 
L 296.978277 366.62572 
L 297.493159 360.91417 
L 298.327623 348.66972 
L 299.60595 330.68215 
L 300.2895 320.391361 
L 300.546941 312.778504 
L 300.715609 300.508798 
L 300.839891 271.448028 
L 300.937541 183.462996 
L 301.044068 92.834865 
L 301.097332 103.273507 
L 301.674355 314.428302 
L 301.905164 368.512295 
L 301.958427 368.821681 
L 302.020568 368.620948 
L 302.286886 366.536798 
L 302.810645 360.672922 
L 303.671741 347.973863 
L 304.914559 330.556133 
L 305.589232 320.374261 
L 305.846673 312.741935 
L 306.015341 300.408826 
L 306.139623 271.085761 
L 306.24615 168.878337 
L 306.334923 92.856964 
L 306.397064 103.520017 
L 306.982964 318.780236 
L 307.196018 368.379964 
L 307.258159 368.821418 
L 307.3203 368.616476 
L 307.586618 366.529169 
L 308.110377 360.662135 
L 308.971473 347.961235 
L 310.214291 330.545346 
L 310.888964 320.35716 
L 311.146405 312.705103 
L 311.315073 300.307802 
L 311.439355 270.717444 
L 311.545882 167.617191 
L 311.634655 92.824079 
L 311.696795 103.769946 
L 312.291573 323.17742 
L 312.49575 368.395222 
L 312.557891 368.821155 
L 312.620032 368.612003 
L 312.88635 366.521539 
L 313.410109 360.651349 
L 314.280082 347.811804 
L 315.531777 330.303309 
L 316.188695 320.339534 
L 316.446136 312.667745 
L 316.614805 300.205462 
L 316.739086 270.342286 
L 316.845614 166.345812 
L 316.934386 92.797771 
L 316.996527 104.023296 
L 317.600182 327.581443 
L 317.795482 368.409955 
L 317.857623 368.820892 
L 317.910886 368.653834 
L 318.150573 366.836187 
L 318.665455 361.213822 
L 319.464409 349.577096 
L 320.787123 330.869729 
L 321.488427 320.32217 
L 321.745868 312.630124 
L 321.914536 300.101807 
L 322.038818 269.960026 
L 322.145345 165.070303 
L 322.234118 92.778565 
L 322.296259 104.277698 
L 322.908791 331.943637 
L 323.095214 368.424688 
L 323.157355 368.820366 
L 323.210618 368.649624 
L 323.459182 366.749107 
L 323.974064 361.089383 
L 324.790773 349.153268 
L 326.095732 330.743449 
L 326.779282 320.489492 
L 327.036723 312.986866 
L 327.205391 301.070745 
L 327.329673 273.454832 
L 327.427323 190.339193 
L 327.53385 92.767253 
L 327.595991 104.532363 
L 328.2174 336.209279 
L 328.403823 368.568595 
L 328.457086 368.81984 
L 328.51035 368.645415 
L 328.758914 366.741477 
L 329.273795 361.07886 
L 329.318182 360.502443 
L 329.335936 361.405873 
L 329.531236 365.412114 
L 329.620009 365.600746 
L 329.664395 365.54313 
L 329.815309 364.933828 
L 330.214786 362.105413 
L 332.176664 347.288267 
L 332.869091 344.053124 
L 333.428359 342.390961 
L 333.889977 341.644855 
L 334.262823 341.417024 
L 334.609036 341.453856 
L 335.061777 341.744037 
L 336.553159 342.838466 
L 337.156814 342.935544 
L 338.097805 342.825049 
L 339.580309 342.629841 
L 342.101455 342.666146 
L 345.714505 342.6622 
L 435.845455 342.664305 
L 435.845455 342.664305 
" style="fill:none;stroke:#1f77b4;stroke-linecap:square;stroke-width:1.5;"/>
   </g>
   <g id="line2d_14">
    <path clip-path="url(#pf0bbe88fd2)" d="M 80.754545 342.733496 
L 81.304936 343.201924 
L 81.873082 343.412321 
L 82.53 343.405179 
L 85.796836 343.05269 
L 90.297614 343.096934 
L 125.353964 343.097461 
L 151.772727 343.097461 
L 152.314241 298.618411 
L 152.420768 251.533987 
L 152.571682 66.96 
L 152.687086 94.392463 
L 153.574814 369.36 
L 153.592568 369.334386 
L 153.71685 368.663426 
L 154.142959 364.910691 
L 154.719982 357.697488 
L 157.250005 320.104253 
L 157.498568 312.057044 
L 157.658359 299.130058 
L 157.773764 269.928039 
L 157.880291 163.719346 
L 157.969064 91.784007 
L 158.022327 100.891064 
L 158.546086 289.244803 
L 158.856791 368.81911 
L 158.8923 368.93094 
L 158.954441 368.732593 
L 159.220759 366.682033 
L 159.735641 361.003551 
L 160.55235 349.053592 
L 161.875064 330.334432 
L 162.531982 320.226151 
L 162.789423 312.33117 
L 162.958091 299.239045 
L 163.073495 271.026125 
L 163.180023 169.136965 
L 163.277673 92.896776 
L 163.330936 103.520617 
L 163.916836 319.156777 
L 164.129891 368.451498 
L 164.192032 368.898904 
L 164.254173 368.702332 
L 164.511614 366.726689 
L 165.026495 361.067296 
L 165.843205 349.130753 
L 167.165918 330.408741 
L 167.822836 320.37546 
L 168.080277 312.684689 
L 168.248945 300.257995 
L 168.373227 270.703193 
L 168.479755 168.154605 
L 168.568527 92.955515 
L 168.630668 103.793889 
L 169.225445 323.590606 
L 169.429623 368.465141 
L 169.491764 368.896394 
L 169.553905 368.695378 
L 169.820223 366.635459 
L 170.335105 360.937803 
L 171.160691 348.838318 
L 172.474527 330.277164 
L 173.122568 320.35364 
L 173.380009 312.640211 
L 173.548677 300.138909 
L 173.672959 270.271846 
L 173.779486 166.703945 
L 173.868259 92.926458 
L 173.9304 104.089892 
L 174.534055 328.053561 
L 174.729355 368.482415 
L 174.791495 368.895971 
L 174.853636 368.690067 
L 175.119955 366.626385 
L 175.634836 360.924951 
L 176.460423 348.822943 
L 177.765382 330.380751 
L 178.4223 320.33283 
L 178.679741 312.595714 
L 178.848409 300.01683 
L 178.972691 269.82485 
L 179.079218 165.217692 
L 179.167991 92.902255 
L 179.230132 104.388882 
L 179.842664 332.467539 
L 180.029086 368.499405 
L 180.091227 368.895581 
L 180.144491 368.730631 
L 180.384177 366.936189 
L 180.890182 361.479041 
L 181.662505 350.316105 
L 183.065114 330.367916 
L 183.722032 320.312147 
L 183.979473 312.55126 
L 184.148141 299.894474 
L 184.272423 269.375299 
L 184.37895 163.735282 
L 184.467723 92.887905 
L 184.520986 102.040856 
L 185.044745 290.842915 
L 185.35545 368.808155 
L 185.390959 368.895018 
L 185.444223 368.725745 
L 185.692786 366.848731 
L 186.207668 361.241391 
L 187.006623 349.615313 
L 188.355968 330.471599 
L 189.021764 320.291375 
L 189.279205 312.506568 
L 189.447873 299.771282 
L 189.572155 268.920921 
L 189.678682 162.260711 
L 189.767455 92.885119 
L 189.820718 102.322125 
L 190.362232 298.255774 
L 190.637427 368.656061 
L 190.681814 368.895524 
L 190.743955 368.720824 
L 190.992518 366.840008 
L 191.5074 361.228917 
L 192.306355 349.600198 
L 193.6557 330.458762 
L 194.321495 320.270678 
L 194.578936 312.462025 
L 194.747605 299.64835 
L 194.863009 272.449471 
L 194.960659 187.385008 
L 195.067186 92.889835 
L 195.12045 102.603786 
L 195.670841 302.309681 
L 195.937159 368.667623 
L 195.981545 368.895977 
L 196.043686 368.715931 
L 196.29225 366.831377 
L 196.807132 361.21658 
L 197.606086 349.585256 
L 198.955432 330.446061 
L 199.621227 320.250108 
L 199.878668 312.417536 
L 200.047336 299.524541 
L 200.162741 272.038057 
L 200.260391 185.983609 
L 200.366918 92.903923 
L 200.420182 102.886295 
L 200.988327 310.310179 
L 201.228014 368.561736 
L 201.281277 368.896238 
L 201.343418 368.711024 
L 201.600859 366.743172 
L 202.115741 361.090776 
L 202.923573 349.296175 
L 204.255164 330.433464 
L 204.920959 320.22966 
L 205.1784 312.372924 
L 205.347068 299.399198 
L 205.462473 271.618931 
L 205.560123 184.562359 
L 205.66665 92.926472 
L 205.719914 103.174052 
L 206.296936 314.657897 
L 206.527745 368.576251 
L 206.581009 368.896404 
L 206.64315 368.70603 
L 206.900591 366.734432 
L 207.415473 361.078336 
L 208.223305 349.281193 
L 209.554895 330.420733 
L 210.211814 320.396824 
L 210.469255 312.732715 
L 210.637923 300.392016 
L 210.762205 271.194216 
L 210.868732 169.846485 
L 210.966382 92.958697 
L 211.019645 103.463185 
L 211.605545 319.074808 
L 211.8186 368.444906 
L 211.880741 368.896435 
L 211.942882 368.701007 
L 212.200323 366.725704 
L 212.715205 361.065919 
L 213.531914 349.129137 
L 214.854627 330.408032 
L 215.511545 320.376586 
L 215.768986 312.689488 
L 215.937655 300.27408 
L 216.061936 270.766254 
L 216.168464 168.37924 
L 216.257236 92.967389 
L 216.319377 103.755052 
L 216.914155 323.532591 
L 217.118332 368.462607 
L 217.180473 368.89625 
L 217.242614 368.695893 
L 217.508932 366.636439 
L 218.023814 360.939194 
L 218.8494 348.839985 
L 220.163236 330.278632 
L 220.811277 320.35615 
L 221.068718 312.645761 
L 221.237386 300.154356 
L 221.361668 270.328715 
L 221.468195 166.895687 
L 221.556968 92.93098 
L 221.619109 104.051838 
L 222.222764 327.997042 
L 222.418064 368.480179 
L 222.480205 368.895994 
L 222.542345 368.690715 
L 222.808664 366.627508 
L 223.323545 360.926541 
L 224.149132 348.824845 
L 225.462968 330.26574 
L 226.111009 320.335459 
L 226.36845 312.601377 
L 226.537118 300.032425 
L 226.6614 269.882057 
L 226.767927 165.407523 
L 226.8567 92.904845 
L 226.918841 104.350535 
L 227.531373 332.412267 
L 227.717795 368.497276 
L 227.779936 368.895641 
L 227.8332 368.731248 
L 228.072886 366.93729 
L 228.578891 361.480615 
L 229.351214 350.318031 
L 230.753823 330.369554 
L 231.410741 320.314789 
L 231.668182 312.556944 
L 231.83685 299.91013 
L 231.961132 269.432985 
L 232.067659 163.924146 
L 232.156432 92.88908 
L 232.209695 102.005041 
L 232.733455 290.794765 
L 233.044159 368.807354 
L 233.079668 368.895094 
L 233.132932 368.726368 
L 233.381495 366.849844 
L 233.8875 361.355864 
L 234.6687 350.02866 
L 236.044677 330.473236 
L 236.710473 320.294015 
L 236.967914 312.512248 
L 237.136582 299.786945 
L 237.260864 268.978779 
L 237.367391 162.447707 
L 237.456164 92.885101 
L 237.509427 102.286326 
L 238.050941 298.205629 
L 238.326136 368.654561 
L 238.370523 368.895459 
L 238.432664 368.721448 
L 238.681227 366.841112 
L 239.196109 361.230496 
L 239.995064 349.602111 
L 241.344409 330.460387 
L 242.010205 320.273305 
L 242.267645 312.467688 
L 242.436314 299.664014 
L 242.560595 268.52324 
L 242.667123 160.982534 
L 242.755895 92.888647 
L 242.809159 102.567953 
L 243.35955 302.258468 
L 243.625868 368.666197 
L 243.670255 368.895935 
L 243.732395 368.716555 
L 243.980959 366.832469 
L 244.495841 361.218142 
L 245.294795 349.587147 
L 246.644141 330.447669 
L 247.309936 320.252717 
L 247.567377 312.423215 
L 247.736045 299.54044 
L 247.85145 272.091115 
L 247.9491 186.16419 
L 248.055627 92.901755 
L 248.108891 102.849839 
L 248.668159 306.416336 
L 248.916723 368.559869 
L 248.969986 368.896211 
L 249.032127 368.711657 
L 249.289568 366.744283 
L 249.80445 361.092357 
L 250.612282 349.298081 
L 251.943873 330.435084 
L 252.609668 320.232292 
L 252.867109 312.378669 
L 253.035777 299.415349 
L 253.151182 271.672968 
L 253.248832 184.744924 
L 253.355359 92.92302 
L 253.408623 103.137182 
L 253.985645 314.602624 
L 254.216455 368.574416 
L 254.269718 368.896387 
L 254.331859 368.706668 
L 254.5893 366.735546 
L 255.104182 361.079922 
L 255.912014 349.283103 
L 257.243605 330.422355 
L 257.900523 320.399412 
L 258.157964 312.738242 
L 258.326632 300.407072 
L 258.450914 271.248586 
L 258.557441 170.033753 
L 258.655091 92.954139 
L 258.708355 103.426114 
L 259.294255 319.018956 
L 259.507309 368.442593 
L 259.56945 368.896441 
L 259.631591 368.701651 
L 259.889032 366.726817 
L 260.403914 361.067503 
L 261.220623 349.131044 
L 262.543336 330.409654 
L 263.200255 320.37917 
L 263.457695 312.69501 
L 263.626364 300.28917 
L 263.750645 270.821206 
L 263.857173 168.566793 
L 263.945945 92.97261 
L 264.008086 103.717655 
L 264.602864 323.476467 
L 264.807041 368.460372 
L 264.869182 368.896281 
L 264.931323 368.69655 
L 265.197641 366.637572 
L 265.712523 360.940799 
L 266.538109 348.841907 
L 267.851945 330.280268 
L 268.499986 320.35877 
L 268.757427 312.651373 
L 268.926095 300.169759 
L 269.050377 270.385091 
L 269.156905 167.085683 
L 269.245677 92.935131 
L 269.307818 104.013691 
L 269.911473 327.940159 
L 270.106773 368.47794 
L 270.168914 368.89603 
L 270.231055 368.691379 
L 270.497373 366.628652 
L 271.012255 360.928163 
L 271.837841 348.826785 
L 273.151677 330.267392 
L 273.799718 320.338118 
L 274.057159 312.607086 
L 274.225827 300.048121 
L 274.350109 269.939596 
L 274.456636 165.598503 
L 274.545409 92.907568 
L 274.60755 104.312002 
L 275.220082 332.356532 
L 275.406505 368.495119 
L 275.468645 368.895699 
L 275.521909 368.731868 
L 275.761595 366.9384 
L 276.2676 361.482201 
L 277.039923 350.319972 
L 278.442532 330.371204 
L 279.09945 320.317449 
L 279.356891 312.562663 
L 279.525559 299.925879 
L 279.649841 269.490996 
L 279.756368 164.114854 
L 279.845141 92.890562 
L 279.898405 101.968901 
L 280.422164 290.74608 
L 280.732868 368.806538 
L 280.768377 368.895167 
L 280.821641 368.726997 
L 281.070205 366.850968 
L 281.576209 361.357465 
L 282.357409 350.030609 
L 283.733386 330.474891 
L 284.399182 320.296687 
L 284.656623 312.517997 
L 284.825291 299.802796 
L 284.949573 269.03732 
L 285.0561 162.637233 
L 285.144873 92.885228 
L 285.198136 102.250127 
L 285.73965 298.154883 
L 286.014845 368.653041 
L 286.059232 368.895392 
L 286.121373 368.72208 
L 286.369936 366.842231 
L 286.884818 361.232096 
L 287.683773 349.604049 
L 289.033118 330.462034 
L 289.698914 320.275962 
L 289.956355 312.47341 
L 290.125023 299.679812 
L 290.249305 268.581896 
L 290.355832 161.170469 
L 290.444605 92.887584 
L 290.497868 102.531684 
L 291.048259 302.206542 
L 291.314577 368.664746 
L 291.358964 368.895891 
L 291.421105 368.717189 
L 291.669668 366.83358 
L 292.18455 361.219729 
L 292.983505 349.58907 
L 294.33285 330.449303 
L 294.998645 320.255365 
L 295.256086 312.428956 
L 295.424755 299.556469 
L 295.540159 272.144406 
L 295.637809 186.345506 
L 295.744336 92.899665 
L 295.7976 102.813242 
L 296.356868 306.363195 
L 296.605432 368.557987 
L 296.658695 368.896181 
L 296.720836 368.712292 
L 296.978277 366.745398 
L 297.493159 361.093945 
L 298.300991 349.299993 
L 299.632582 330.436711 
L 300.298377 320.234932 
L 300.555818 312.384429 
L 300.724486 299.431541 
L 300.839891 271.727133 
L 300.937541 184.927842 
L 301.044068 92.919675 
L 301.097332 103.100243 
L 301.665477 310.62676 
L 301.905164 368.572572 
L 301.958427 368.896369 
L 302.020568 368.707307 
L 302.278009 366.736663 
L 302.792891 361.081511 
L 303.600723 349.285016 
L 304.932314 330.423981 
L 305.589232 320.402005 
L 305.846673 312.743779 
L 306.015341 300.422152 
L 306.139623 271.302872 
L 306.24615 170.220734 
L 306.3438 92.949681 
L 306.397064 103.389139 
L 306.974086 314.979545 
L 307.196018 368.440276 
L 307.258159 368.896444 
L 307.3203 368.702293 
L 307.577741 366.727929 
L 308.092623 361.069084 
L 308.909332 349.132947 
L 310.232045 330.411271 
L 310.888964 320.381746 
L 311.146405 312.700514 
L 311.315073 300.304209 
L 311.439355 270.875963 
L 311.545882 168.753782 
L 311.634655 92.97797 
L 311.696795 103.680454 
L 312.291573 323.420664 
L 312.49575 368.458144 
L 312.557891 368.896311 
L 312.620032 368.697202 
L 312.88635 366.638697 
L 313.401232 360.942393 
L 314.226818 348.843816 
L 315.540655 330.281893 
L 316.188695 320.361369 
L 316.446136 312.656941 
L 316.614805 300.185035 
L 316.739086 270.440991 
L 316.845614 167.274345 
L 316.934386 92.939378 
L 316.996527 103.975858 
L 317.600182 327.88379 
L 317.795482 368.475714 
L 317.857623 368.896063 
L 317.919764 368.692036 
L 318.186082 366.629785 
L 318.700964 360.929768 
L 319.52655 348.828705 
L 320.840386 330.269027 
L 321.488427 320.340747 
L 321.745868 312.612729 
L 321.914536 300.063633 
L 322.038818 269.996446 
L 322.145345 165.787302 
L 322.234118 92.910408 
L 322.296259 104.27399 
L 322.908791 332.301375 
L 323.095214 368.492976 
L 323.157355 368.895752 
L 323.210618 368.73248 
L 323.450305 366.939496 
L 323.956309 361.483768 
L 324.728632 350.321889 
L 326.131241 330.372834 
L 326.788159 320.320077 
L 327.0456 312.568312 
L 327.214268 299.941431 
L 327.33855 269.548165 
L 327.445077 164.302778 
L 327.53385 92.892183 
L 327.587114 101.933299 
L 328.110873 290.698073 
L 328.421577 368.805731 
L 328.457086 368.895239 
L 328.51035 368.727617 
L 328.750036 366.93084 
L 329.256041 361.471396 
L 329.318182 360.674233 
L 329.335936 361.581085 
L 329.531236 365.673949 
L 329.628886 365.902016 
L 329.673273 365.848021 
L 329.824186 365.26737 
L 330.214786 362.6082 
L 332.300945 347.28421 
L 332.975618 344.281766 
L 333.526009 342.726302 
L 333.97875 342.042724 
L 334.351595 341.836413 
L 334.715564 341.890194 
L 335.203814 342.220625 
L 336.544282 343.224767 
L 337.183445 343.356513 
L 338.053418 343.281874 
L 340.1307 343.054364 
L 346.096227 343.096228 
L 435.845455 343.097461 
L 435.845455 343.097461 
" style="fill:none;stroke:#ff0000;stroke-linecap:square;stroke-width:1.5;"/>
   </g>
   <g id="patch_3">
    <path d="M 63 384.48 
L 63 51.84 
" style="fill:none;stroke:#000000;stroke-linecap:square;stroke-linejoin:miter;stroke-width:0.8;"/>
   </g>
   <g id="patch_4">
    <path d="M 453.6 384.48 
L 453.6 51.84 
" style="fill:none;stroke:#000000;stroke-linecap:square;stroke-linejoin:miter;stroke-width:0.8;"/>
   </g>
   <g id="patch_5">
    <path d="M 63 384.48 
L 453.6 384.48 
" style="fill:none;stroke:#000000;stroke-linecap:square;stroke-linejoin:miter;stroke-width:0.8;"/>
   </g>
   <g id="patch_6">
    <path d="M 63 51.84 
L 453.6 51.84 
" style="fill:none;stroke:#000000;stroke-linecap:square;stroke-linejoin:miter;stroke-width:0.8;"/>
   </g>
   <g id="legend_1">
    <g id="patch_7">
     <path d="M 383.460938 89.19625 
L 446.6 89.19625 
Q 448.6 89.19625 448.6 87.19625 
L 448.6 58.84 
Q 448.6 56.84 446.6 56.84 
L 383.460938 56.84 
Q 381.460938 56.84 381.460938 58.84 
L 381.460938 87.19625 
Q 381.460938 89.19625 383.460938 89.19625 
z
" style="fill:#ffffff;opacity:0.8;stroke:#cccccc;stroke-linejoin:miter;"/>
    </g>
    <g id="line2d_15">
     <path d="M 385.460938 64.938437 
L 405.460938 64.938437 
" style="fill:none;stroke:#1f77b4;stroke-linecap:square;stroke-width:1.5;"/>
    </g>
    <g id="line2d_16"/>
    <g id="text_15">
     <!-- target -->
     <defs>
      <path d="M 41.109375 46.296875 
Q 39.59375 47.171875 37.8125 47.578125 
Q 36.03125 48 33.890625 48 
Q 26.265625 48 22.1875 43.046875 
Q 18.109375 38.09375 18.109375 28.8125 
L 18.109375 0 
L 9.078125 0 
L 9.078125 54.6875 
L 18.109375 54.6875 
L 18.109375 46.1875 
Q 20.953125 51.171875 25.484375 53.578125 
Q 30.03125 56 36.53125 56 
Q 37.453125 56 38.578125 55.875 
Q 39.703125 55.765625 41.0625 55.515625 
z
" id="DejaVuSans-72"/>
     </defs>
     <g transform="translate(413.460938 68.438437)scale(0.1 -0.1)">
      <use xlink:href="#DejaVuSans-74"/>
      <use x="39.208984" xlink:href="#DejaVuSans-61"/>
      <use x="100.488281" xlink:href="#DejaVuSans-72"/>
      <use x="141.585938" xlink:href="#DejaVuSans-67"/>
      <use x="205.0625" xlink:href="#DejaVuSans-65"/>
      <use x="266.585938" xlink:href="#DejaVuSans-74"/>
     </g>
    </g>
    <g id="line2d_17">
     <path d="M 385.460938 79.616562 
L 405.460938 79.616562 
" style="fill:none;stroke:#ff0000;stroke-linecap:square;stroke-width:1.5;"/>
    </g>
    <g id="line2d_18"/>
    <g id="text_16">
     <!-- model -->
     <defs>
      <path d="M 45.40625 46.390625 
L 45.40625 75.984375 
L 54.390625 75.984375 
L 54.390625 0 
L 45.40625 0 
L 45.40625 8.203125 
Q 42.578125 3.328125 38.25 0.953125 
Q 33.9375 -1.421875 27.875 -1.421875 
Q 17.96875 -1.421875 11.734375 6.484375 
Q 5.515625 14.40625 5.515625 27.296875 
Q 5.515625 40.1875 11.734375 48.09375 
Q 17.96875 56 27.875 56 
Q 33.9375 56 38.25 53.625 
Q 42.578125 51.265625 45.40625 46.390625 
z
M 14.796875 27.296875 
Q 14.796875 17.390625 18.875 11.75 
Q 22.953125 6.109375 30.078125 6.109375 
Q 37.203125 6.109375 41.296875 11.75 
Q 45.40625 17.390625 45.40625 27.296875 
Q 45.40625 37.203125 41.296875 42.84375 
Q 37.203125 48.484375 30.078125 48.484375 
Q 22.953125 48.484375 18.875 42.84375 
Q 14.796875 37.203125 14.796875 27.296875 
z
" id="DejaVuSans-64"/>
     </defs>
     <g transform="translate(413.460938 83.116562)scale(0.1 -0.1)">
      <use xlink:href="#DejaVuSans-6d"/>
      <use x="97.412109" xlink:href="#DejaVuSans-6f"/>
      <use x="158.59375" xlink:href="#DejaVuSans-64"/>
      <use x="222.070312" xlink:href="#DejaVuSans-65"/>
      <use x="283.59375" xlink:href="#DejaVuSans-6c"/>
     </g>
    </g>
   </g>
  </g>
 </g>
 <defs>
  <clipPath id="pf0bbe88fd2">
   <rect height="332.64" width="390.6" x="63" y="51.84"/>
  </clipPath>
 </defs>
</svg>
