<?xml version="1.0" encoding="utf-8" standalone="no"?>
<!DOCTYPE svg PUBLIC "-//W3C//DTD SVG 1.1//EN"
  "http://www.w3.org/Graphics/SVG/1.1/DTD/svg11.dtd">
<!-- Created with matplotlib (https://matplotlib.org/) -->
<svg height="432pt" version="1.1" viewBox="0 0 504 432" width="504pt" xmlns="http://www.w3.org/2000/svg" xmlns:xlink="http://www.w3.org/1999/xlink">
 <defs>
  <style type="text/css">
*{stroke-linecap:butt;stroke-linejoin:round;}
  </style>
 </defs>
 <g id="figure_1">
  <g id="patch_1">
   <path d="M 0 432 
L 504 432 
L 504 0 
L 0 0 
z
" style="fill:#ffffff;"/>
  </g>
  <g id="axes_1">
   <g id="patch_2">
    <path d="M 63 384.48 
L 453.6 384.48 
L 453.6 51.84 
L 63 51.84 
z
" style="fill:#ffffff;"/>
   </g>
   <g id="matplotlib.axis_1">
    <g id="xtick_1">
     <g id="line2d_1">
      <defs>
       <path d="M 0 0 
L 0 3.5 
" id="ma77f4b3d66" style="stroke:#000000;stroke-width:0.8;"/>
      </defs>
      <g>
       <use style="stroke:#000000;stroke-width:0.8;" x="80.754545" xlink:href="#ma77f4b3d66" y="384.48"/>
      </g>
     </g>
     <g id="text_1">
      <!-- 0 -->
      <defs>
       <path d="M 31.78125 66.40625 
Q 24.171875 66.40625 20.328125 58.90625 
Q 16.5 51.421875 16.5 36.375 
Q 16.5 21.390625 20.328125 13.890625 
Q 24.171875 6.390625 31.78125 6.390625 
Q 39.453125 6.390625 43.28125 13.890625 
Q 47.125 21.390625 47.125 36.375 
Q 47.125 51.421875 43.28125 58.90625 
Q 39.453125 66.40625 31.78125 66.40625 
z
M 31.78125 74.21875 
Q 44.046875 74.21875 50.515625 64.515625 
Q 56.984375 54.828125 56.984375 36.375 
Q 56.984375 17.96875 50.515625 8.265625 
Q 44.046875 -1.421875 31.78125 -1.421875 
Q 19.53125 -1.421875 13.0625 8.265625 
Q 6.59375 17.96875 6.59375 36.375 
Q 6.59375 54.828125 13.0625 64.515625 
Q 19.53125 74.21875 31.78125 74.21875 
z
" id="DejaVuSans-48"/>
      </defs>
      <g transform="translate(77.573295 399.078438)scale(0.1 -0.1)">
       <use xlink:href="#DejaVuSans-48"/>
      </g>
     </g>
    </g>
    <g id="xtick_2">
     <g id="line2d_2">
      <g>
       <use style="stroke:#000000;stroke-width:0.8;" x="151.763044" xlink:href="#ma77f4b3d66" y="384.48"/>
      </g>
     </g>
     <g id="text_2">
      <!-- 880 -->
      <defs>
       <path d="M 31.78125 34.625 
Q 24.75 34.625 20.71875 30.859375 
Q 16.703125 27.09375 16.703125 20.515625 
Q 16.703125 13.921875 20.71875 10.15625 
Q 24.75 6.390625 31.78125 6.390625 
Q 38.8125 6.390625 42.859375 10.171875 
Q 46.921875 13.96875 46.921875 20.515625 
Q 46.921875 27.09375 42.890625 30.859375 
Q 38.875 34.625 31.78125 34.625 
z
M 21.921875 38.8125 
Q 15.578125 40.375 12.03125 44.71875 
Q 8.5 49.078125 8.5 55.328125 
Q 8.5 64.0625 14.71875 69.140625 
Q 20.953125 74.21875 31.78125 74.21875 
Q 42.671875 74.21875 48.875 69.140625 
Q 55.078125 64.0625 55.078125 55.328125 
Q 55.078125 49.078125 51.53125 44.71875 
Q 48 40.375 41.703125 38.8125 
Q 48.828125 37.15625 52.796875 32.3125 
Q 56.78125 27.484375 56.78125 20.515625 
Q 56.78125 9.90625 50.3125 4.234375 
Q 43.84375 -1.421875 31.78125 -1.421875 
Q 19.734375 -1.421875 13.25 4.234375 
Q 6.78125 9.90625 6.78125 20.515625 
Q 6.78125 27.484375 10.78125 32.3125 
Q 14.796875 37.15625 21.921875 38.8125 
z
M 18.3125 54.390625 
Q 18.3125 48.734375 21.84375 45.5625 
Q 25.390625 42.390625 31.78125 42.390625 
Q 38.140625 42.390625 41.71875 45.5625 
Q 45.3125 48.734375 45.3125 54.390625 
Q 45.3125 60.0625 41.71875 63.234375 
Q 38.140625 66.40625 31.78125 66.40625 
Q 25.390625 66.40625 21.84375 63.234375 
Q 18.3125 60.0625 18.3125 54.390625 
z
" id="DejaVuSans-56"/>
      </defs>
      <g transform="translate(142.219294 399.078438)scale(0.1 -0.1)">
       <use xlink:href="#DejaVuSans-56"/>
       <use x="63.623047" xlink:href="#DejaVuSans-56"/>
       <use x="127.246094" xlink:href="#DejaVuSans-48"/>
      </g>
     </g>
    </g>
    <g id="xtick_3">
     <g id="line2d_3">
      <g>
       <use style="stroke:#000000;stroke-width:0.8;" x="222.771543" xlink:href="#ma77f4b3d66" y="384.48"/>
      </g>
     </g>
     <g id="text_3">
      <!-- 1760 -->
      <defs>
       <path d="M 12.40625 8.296875 
L 28.515625 8.296875 
L 28.515625 63.921875 
L 10.984375 60.40625 
L 10.984375 69.390625 
L 28.421875 72.90625 
L 38.28125 72.90625 
L 38.28125 8.296875 
L 54.390625 8.296875 
L 54.390625 0 
L 12.40625 0 
z
" id="DejaVuSans-49"/>
       <path d="M 8.203125 72.90625 
L 55.078125 72.90625 
L 55.078125 68.703125 
L 28.609375 0 
L 18.3125 0 
L 43.21875 64.59375 
L 8.203125 64.59375 
z
" id="DejaVuSans-55"/>
       <path d="M 33.015625 40.375 
Q 26.375 40.375 22.484375 35.828125 
Q 18.609375 31.296875 18.609375 23.390625 
Q 18.609375 15.53125 22.484375 10.953125 
Q 26.375 6.390625 33.015625 6.390625 
Q 39.65625 6.390625 43.53125 10.953125 
Q 47.40625 15.53125 47.40625 23.390625 
Q 47.40625 31.296875 43.53125 35.828125 
Q 39.65625 40.375 33.015625 40.375 
z
M 52.59375 71.296875 
L 52.59375 62.3125 
Q 48.875 64.0625 45.09375 64.984375 
Q 41.3125 65.921875 37.59375 65.921875 
Q 27.828125 65.921875 22.671875 59.328125 
Q 17.53125 52.734375 16.796875 39.40625 
Q 19.671875 43.65625 24.015625 45.921875 
Q 28.375 48.1875 33.59375 48.1875 
Q 44.578125 48.1875 50.953125 41.515625 
Q 57.328125 34.859375 57.328125 23.390625 
Q 57.328125 12.15625 50.6875 5.359375 
Q 44.046875 -1.421875 33.015625 -1.421875 
Q 20.359375 -1.421875 13.671875 8.265625 
Q 6.984375 17.96875 6.984375 36.375 
Q 6.984375 53.65625 15.1875 63.9375 
Q 23.390625 74.21875 37.203125 74.21875 
Q 40.921875 74.21875 44.703125 73.484375 
Q 48.484375 72.75 52.59375 71.296875 
z
" id="DejaVuSans-54"/>
      </defs>
      <g transform="translate(210.046543 399.078438)scale(0.1 -0.1)">
       <use xlink:href="#DejaVuSans-49"/>
       <use x="63.623047" xlink:href="#DejaVuSans-55"/>
       <use x="127.246094" xlink:href="#DejaVuSans-54"/>
       <use x="190.869141" xlink:href="#DejaVuSans-48"/>
      </g>
     </g>
    </g>
    <g id="xtick_4">
     <g id="line2d_4">
      <g>
       <use style="stroke:#000000;stroke-width:0.8;" x="293.780042" xlink:href="#ma77f4b3d66" y="384.48"/>
      </g>
     </g>
     <g id="text_4">
      <!-- 2640 -->
      <defs>
       <path d="M 19.1875 8.296875 
L 53.609375 8.296875 
L 53.609375 0 
L 7.328125 0 
L 7.328125 8.296875 
Q 12.9375 14.109375 22.625 23.890625 
Q 32.328125 33.6875 34.8125 36.53125 
Q 39.546875 41.84375 41.421875 45.53125 
Q 43.3125 49.21875 43.3125 52.78125 
Q 43.3125 58.59375 39.234375 62.25 
Q 35.15625 65.921875 28.609375 65.921875 
Q 23.96875 65.921875 18.8125 64.3125 
Q 13.671875 62.703125 7.8125 59.421875 
L 7.8125 69.390625 
Q 13.765625 71.78125 18.9375 73 
Q 24.125 74.21875 28.421875 74.21875 
Q 39.75 74.21875 46.484375 68.546875 
Q 53.21875 62.890625 53.21875 53.421875 
Q 53.21875 48.921875 51.53125 44.890625 
Q 49.859375 40.875 45.40625 35.40625 
Q 44.1875 33.984375 37.640625 27.21875 
Q 31.109375 20.453125 19.1875 8.296875 
z
" id="DejaVuSans-50"/>
       <path d="M 37.796875 64.3125 
L 12.890625 25.390625 
L 37.796875 25.390625 
z
M 35.203125 72.90625 
L 47.609375 72.90625 
L 47.609375 25.390625 
L 58.015625 25.390625 
L 58.015625 17.1875 
L 47.609375 17.1875 
L 47.609375 0 
L 37.796875 0 
L 37.796875 17.1875 
L 4.890625 17.1875 
L 4.890625 26.703125 
z
" id="DejaVuSans-52"/>
      </defs>
      <g transform="translate(281.055042 399.078438)scale(0.1 -0.1)">
       <use xlink:href="#DejaVuSans-50"/>
       <use x="63.623047" xlink:href="#DejaVuSans-54"/>
       <use x="127.246094" xlink:href="#DejaVuSans-52"/>
       <use x="190.869141" xlink:href="#DejaVuSans-48"/>
      </g>
     </g>
    </g>
    <g id="xtick_5">
     <g id="line2d_5">
      <g>
       <use style="stroke:#000000;stroke-width:0.8;" x="364.788541" xlink:href="#ma77f4b3d66" y="384.48"/>
      </g>
     </g>
     <g id="text_5">
      <!-- 3520 -->
      <defs>
       <path d="M 40.578125 39.3125 
Q 47.65625 37.796875 51.625 33 
Q 55.609375 28.21875 55.609375 21.1875 
Q 55.609375 10.40625 48.1875 4.484375 
Q 40.765625 -1.421875 27.09375 -1.421875 
Q 22.515625 -1.421875 17.65625 -0.515625 
Q 12.796875 0.390625 7.625 2.203125 
L 7.625 11.71875 
Q 11.71875 9.328125 16.59375 8.109375 
Q 21.484375 6.890625 26.8125 6.890625 
Q 36.078125 6.890625 40.9375 10.546875 
Q 45.796875 14.203125 45.796875 21.1875 
Q 45.796875 27.640625 41.28125 31.265625 
Q 36.765625 34.90625 28.71875 34.90625 
L 20.21875 34.90625 
L 20.21875 43.015625 
L 29.109375 43.015625 
Q 36.375 43.015625 40.234375 45.921875 
Q 44.09375 48.828125 44.09375 54.296875 
Q 44.09375 59.90625 40.109375 62.90625 
Q 36.140625 65.921875 28.71875 65.921875 
Q 24.65625 65.921875 20.015625 65.03125 
Q 15.375 64.15625 9.8125 62.3125 
L 9.8125 71.09375 
Q 15.4375 72.65625 20.34375 73.4375 
Q 25.25 74.21875 29.59375 74.21875 
Q 40.828125 74.21875 47.359375 69.109375 
Q 53.90625 64.015625 53.90625 55.328125 
Q 53.90625 49.265625 50.4375 45.09375 
Q 46.96875 40.921875 40.578125 39.3125 
z
" id="DejaVuSans-51"/>
       <path d="M 10.796875 72.90625 
L 49.515625 72.90625 
L 49.515625 64.59375 
L 19.828125 64.59375 
L 19.828125 46.734375 
Q 21.96875 47.46875 24.109375 47.828125 
Q 26.265625 48.1875 28.421875 48.1875 
Q 40.625 48.1875 47.75 41.5 
Q 54.890625 34.8125 54.890625 23.390625 
Q 54.890625 11.625 47.5625 5.09375 
Q 40.234375 -1.421875 26.90625 -1.421875 
Q 22.3125 -1.421875 17.546875 -0.640625 
Q 12.796875 0.140625 7.71875 1.703125 
L 7.71875 11.625 
Q 12.109375 9.234375 16.796875 8.0625 
Q 21.484375 6.890625 26.703125 6.890625 
Q 35.15625 6.890625 40.078125 11.328125 
Q 45.015625 15.765625 45.015625 23.390625 
Q 45.015625 31 40.078125 35.4375 
Q 35.15625 39.890625 26.703125 39.890625 
Q 22.75 39.890625 18.8125 39.015625 
Q 14.890625 38.140625 10.796875 36.28125 
z
" id="DejaVuSans-53"/>
      </defs>
      <g transform="translate(352.063541 399.078438)scale(0.1 -0.1)">
       <use xlink:href="#DejaVuSans-51"/>
       <use x="63.623047" xlink:href="#DejaVuSans-53"/>
       <use x="127.246094" xlink:href="#DejaVuSans-50"/>
       <use x="190.869141" xlink:href="#DejaVuSans-48"/>
      </g>
     </g>
    </g>
    <g id="text_6">
     <!-- time [ms] -->
     <defs>
      <path d="M 18.3125 70.21875 
L 18.3125 54.6875 
L 36.8125 54.6875 
L 36.8125 47.703125 
L 18.3125 47.703125 
L 18.3125 18.015625 
Q 18.3125 11.328125 20.140625 9.421875 
Q 21.96875 7.515625 27.59375 7.515625 
L 36.8125 7.515625 
L 36.8125 0 
L 27.59375 0 
Q 17.1875 0 13.234375 3.875 
Q 9.28125 7.765625 9.28125 18.015625 
L 9.28125 47.703125 
L 2.6875 47.703125 
L 2.6875 54.6875 
L 9.28125 54.6875 
L 9.28125 70.21875 
z
" id="DejaVuSans-116"/>
      <path d="M 9.421875 54.6875 
L 18.40625 54.6875 
L 18.40625 0 
L 9.421875 0 
z
M 9.421875 75.984375 
L 18.40625 75.984375 
L 18.40625 64.59375 
L 9.421875 64.59375 
z
" id="DejaVuSans-105"/>
      <path d="M 52 44.1875 
Q 55.375 50.25 60.0625 53.125 
Q 64.75 56 71.09375 56 
Q 79.640625 56 84.28125 50.015625 
Q 88.921875 44.046875 88.921875 33.015625 
L 88.921875 0 
L 79.890625 0 
L 79.890625 32.71875 
Q 79.890625 40.578125 77.09375 44.375 
Q 74.3125 48.1875 68.609375 48.1875 
Q 61.625 48.1875 57.5625 43.546875 
Q 53.515625 38.921875 53.515625 30.90625 
L 53.515625 0 
L 44.484375 0 
L 44.484375 32.71875 
Q 44.484375 40.625 41.703125 44.40625 
Q 38.921875 48.1875 33.109375 48.1875 
Q 26.21875 48.1875 22.15625 43.53125 
Q 18.109375 38.875 18.109375 30.90625 
L 18.109375 0 
L 9.078125 0 
L 9.078125 54.6875 
L 18.109375 54.6875 
L 18.109375 46.1875 
Q 21.1875 51.21875 25.484375 53.609375 
Q 29.78125 56 35.6875 56 
Q 41.65625 56 45.828125 52.96875 
Q 50 49.953125 52 44.1875 
z
" id="DejaVuSans-109"/>
      <path d="M 56.203125 29.59375 
L 56.203125 25.203125 
L 14.890625 25.203125 
Q 15.484375 15.921875 20.484375 11.0625 
Q 25.484375 6.203125 34.421875 6.203125 
Q 39.59375 6.203125 44.453125 7.46875 
Q 49.3125 8.734375 54.109375 11.28125 
L 54.109375 2.78125 
Q 49.265625 0.734375 44.1875 -0.34375 
Q 39.109375 -1.421875 33.890625 -1.421875 
Q 20.796875 -1.421875 13.15625 6.1875 
Q 5.515625 13.8125 5.515625 26.8125 
Q 5.515625 40.234375 12.765625 48.109375 
Q 20.015625 56 32.328125 56 
Q 43.359375 56 49.78125 48.890625 
Q 56.203125 41.796875 56.203125 29.59375 
z
M 47.21875 32.234375 
Q 47.125 39.59375 43.09375 43.984375 
Q 39.0625 48.390625 32.421875 48.390625 
Q 24.90625 48.390625 20.390625 44.140625 
Q 15.875 39.890625 15.1875 32.171875 
z
" id="DejaVuSans-101"/>
      <path id="DejaVuSans-32"/>
      <path d="M 8.59375 75.984375 
L 29.296875 75.984375 
L 29.296875 69 
L 17.578125 69 
L 17.578125 -6.203125 
L 29.296875 -6.203125 
L 29.296875 -13.1875 
L 8.59375 -13.1875 
z
" id="DejaVuSans-91"/>
      <path d="M 44.28125 53.078125 
L 44.28125 44.578125 
Q 40.484375 46.53125 36.375 47.5 
Q 32.28125 48.484375 27.875 48.484375 
Q 21.1875 48.484375 17.84375 46.4375 
Q 14.5 44.390625 14.5 40.28125 
Q 14.5 37.15625 16.890625 35.375 
Q 19.28125 33.59375 26.515625 31.984375 
L 29.59375 31.296875 
Q 39.15625 29.25 43.1875 25.515625 
Q 47.21875 21.78125 47.21875 15.09375 
Q 47.21875 7.46875 41.1875 3.015625 
Q 35.15625 -1.421875 24.609375 -1.421875 
Q 20.21875 -1.421875 15.453125 -0.5625 
Q 10.6875 0.296875 5.421875 2 
L 5.421875 11.28125 
Q 10.40625 8.6875 15.234375 7.390625 
Q 20.0625 6.109375 24.8125 6.109375 
Q 31.15625 6.109375 34.5625 8.28125 
Q 37.984375 10.453125 37.984375 14.40625 
Q 37.984375 18.0625 35.515625 20.015625 
Q 33.0625 21.96875 24.703125 23.78125 
L 21.578125 24.515625 
Q 13.234375 26.265625 9.515625 29.90625 
Q 5.8125 33.546875 5.8125 39.890625 
Q 5.8125 47.609375 11.28125 51.796875 
Q 16.75 56 26.8125 56 
Q 31.78125 56 36.171875 55.265625 
Q 40.578125 54.546875 44.28125 53.078125 
z
" id="DejaVuSans-115"/>
      <path d="M 30.421875 75.984375 
L 30.421875 -13.1875 
L 9.71875 -13.1875 
L 9.71875 -6.203125 
L 21.390625 -6.203125 
L 21.390625 69 
L 9.71875 69 
L 9.71875 75.984375 
z
" id="DejaVuSans-93"/>
     </defs>
     <g transform="translate(234.038281 412.756563)scale(0.1 -0.1)">
      <use xlink:href="#DejaVuSans-116"/>
      <use x="39.208984" xlink:href="#DejaVuSans-105"/>
      <use x="66.992188" xlink:href="#DejaVuSans-109"/>
      <use x="164.404297" xlink:href="#DejaVuSans-101"/>
      <use x="225.927734" xlink:href="#DejaVuSans-32"/>
      <use x="257.714844" xlink:href="#DejaVuSans-91"/>
      <use x="296.728516" xlink:href="#DejaVuSans-109"/>
      <use x="394.140625" xlink:href="#DejaVuSans-115"/>
      <use x="446.240234" xlink:href="#DejaVuSans-93"/>
     </g>
    </g>
   </g>
   <g id="matplotlib.axis_2">
    <g id="ytick_1">
     <g id="line2d_6">
      <defs>
       <path d="M 0 0 
L -3.5 0 
" id="mc4cfac048e" style="stroke:#000000;stroke-width:0.8;"/>
      </defs>
      <g>
       <use style="stroke:#000000;stroke-width:0.8;" x="63" xlink:href="#mc4cfac048e" y="356.982364"/>
      </g>
     </g>
     <g id="text_7">
      <!-- −125 -->
      <defs>
       <path d="M 10.59375 35.5 
L 73.1875 35.5 
L 73.1875 27.203125 
L 10.59375 27.203125 
z
" id="DejaVuSans-8722"/>
      </defs>
      <g transform="translate(28.532812 360.781582)scale(0.1 -0.1)">
       <use xlink:href="#DejaVuSans-8722"/>
       <use x="83.789062" xlink:href="#DejaVuSans-49"/>
       <use x="147.412109" xlink:href="#DejaVuSans-50"/>
       <use x="211.035156" xlink:href="#DejaVuSans-53"/>
      </g>
     </g>
    </g>
    <g id="ytick_2">
     <g id="line2d_7">
      <g>
       <use style="stroke:#000000;stroke-width:0.8;" x="63" xlink:href="#mc4cfac048e" y="316.795232"/>
      </g>
     </g>
     <g id="text_8">
      <!-- −100 -->
      <g transform="translate(28.532812 320.594451)scale(0.1 -0.1)">
       <use xlink:href="#DejaVuSans-8722"/>
       <use x="83.789062" xlink:href="#DejaVuSans-49"/>
       <use x="147.412109" xlink:href="#DejaVuSans-48"/>
       <use x="211.035156" xlink:href="#DejaVuSans-48"/>
      </g>
     </g>
    </g>
    <g id="ytick_3">
     <g id="line2d_8">
      <g>
       <use style="stroke:#000000;stroke-width:0.8;" x="63" xlink:href="#mc4cfac048e" y="276.608101"/>
      </g>
     </g>
     <g id="text_9">
      <!-- −75 -->
      <g transform="translate(34.895313 280.40732)scale(0.1 -0.1)">
       <use xlink:href="#DejaVuSans-8722"/>
       <use x="83.789062" xlink:href="#DejaVuSans-55"/>
       <use x="147.412109" xlink:href="#DejaVuSans-53"/>
      </g>
     </g>
    </g>
    <g id="ytick_4">
     <g id="line2d_9">
      <g>
       <use style="stroke:#000000;stroke-width:0.8;" x="63" xlink:href="#mc4cfac048e" y="236.42097"/>
      </g>
     </g>
     <g id="text_10">
      <!-- −50 -->
      <g transform="translate(34.895313 240.220188)scale(0.1 -0.1)">
       <use xlink:href="#DejaVuSans-8722"/>
       <use x="83.789062" xlink:href="#DejaVuSans-53"/>
       <use x="147.412109" xlink:href="#DejaVuSans-48"/>
      </g>
     </g>
    </g>
    <g id="ytick_5">
     <g id="line2d_10">
      <g>
       <use style="stroke:#000000;stroke-width:0.8;" x="63" xlink:href="#mc4cfac048e" y="196.233838"/>
      </g>
     </g>
     <g id="text_11">
      <!-- −25 -->
      <g transform="translate(34.895313 200.033057)scale(0.1 -0.1)">
       <use xlink:href="#DejaVuSans-8722"/>
       <use x="83.789062" xlink:href="#DejaVuSans-50"/>
       <use x="147.412109" xlink:href="#DejaVuSans-53"/>
      </g>
     </g>
    </g>
    <g id="ytick_6">
     <g id="line2d_11">
      <g>
       <use style="stroke:#000000;stroke-width:0.8;" x="63" xlink:href="#mc4cfac048e" y="156.046707"/>
      </g>
     </g>
     <g id="text_12">
      <!-- 0 -->
      <g transform="translate(49.6375 159.845926)scale(0.1 -0.1)">
       <use xlink:href="#DejaVuSans-48"/>
      </g>
     </g>
    </g>
    <g id="ytick_7">
     <g id="line2d_12">
      <g>
       <use style="stroke:#000000;stroke-width:0.8;" x="63" xlink:href="#mc4cfac048e" y="115.859576"/>
      </g>
     </g>
     <g id="text_13">
      <!-- 25 -->
      <g transform="translate(43.275 119.658795)scale(0.1 -0.1)">
       <use xlink:href="#DejaVuSans-50"/>
       <use x="63.623047" xlink:href="#DejaVuSans-53"/>
      </g>
     </g>
    </g>
    <g id="ytick_8">
     <g id="line2d_13">
      <g>
       <use style="stroke:#000000;stroke-width:0.8;" x="63" xlink:href="#mc4cfac048e" y="75.672444"/>
      </g>
     </g>
     <g id="text_14">
      <!-- 50 -->
      <g transform="translate(43.275 79.471663)scale(0.1 -0.1)">
       <use xlink:href="#DejaVuSans-53"/>
       <use x="63.623047" xlink:href="#DejaVuSans-48"/>
      </g>
     </g>
    </g>
    <g id="text_15">
     <!-- voltage [mV] -->
     <defs>
      <path d="M 2.984375 54.6875 
L 12.5 54.6875 
L 29.59375 8.796875 
L 46.6875 54.6875 
L 56.203125 54.6875 
L 35.6875 0 
L 23.484375 0 
z
" id="DejaVuSans-118"/>
      <path d="M 30.609375 48.390625 
Q 23.390625 48.390625 19.1875 42.75 
Q 14.984375 37.109375 14.984375 27.296875 
Q 14.984375 17.484375 19.15625 11.84375 
Q 23.34375 6.203125 30.609375 6.203125 
Q 37.796875 6.203125 41.984375 11.859375 
Q 46.1875 17.53125 46.1875 27.296875 
Q 46.1875 37.015625 41.984375 42.703125 
Q 37.796875 48.390625 30.609375 48.390625 
z
M 30.609375 56 
Q 42.328125 56 49.015625 48.375 
Q 55.71875 40.765625 55.71875 27.296875 
Q 55.71875 13.875 49.015625 6.21875 
Q 42.328125 -1.421875 30.609375 -1.421875 
Q 18.84375 -1.421875 12.171875 6.21875 
Q 5.515625 13.875 5.515625 27.296875 
Q 5.515625 40.765625 12.171875 48.375 
Q 18.84375 56 30.609375 56 
z
" id="DejaVuSans-111"/>
      <path d="M 9.421875 75.984375 
L 18.40625 75.984375 
L 18.40625 0 
L 9.421875 0 
z
" id="DejaVuSans-108"/>
      <path d="M 34.28125 27.484375 
Q 23.390625 27.484375 19.1875 25 
Q 14.984375 22.515625 14.984375 16.5 
Q 14.984375 11.71875 18.140625 8.90625 
Q 21.296875 6.109375 26.703125 6.109375 
Q 34.1875 6.109375 38.703125 11.40625 
Q 43.21875 16.703125 43.21875 25.484375 
L 43.21875 27.484375 
z
M 52.203125 31.203125 
L 52.203125 0 
L 43.21875 0 
L 43.21875 8.296875 
Q 40.140625 3.328125 35.546875 0.953125 
Q 30.953125 -1.421875 24.3125 -1.421875 
Q 15.921875 -1.421875 10.953125 3.296875 
Q 6 8.015625 6 15.921875 
Q 6 25.140625 12.171875 29.828125 
Q 18.359375 34.515625 30.609375 34.515625 
L 43.21875 34.515625 
L 43.21875 35.40625 
Q 43.21875 41.609375 39.140625 45 
Q 35.0625 48.390625 27.6875 48.390625 
Q 23 48.390625 18.546875 47.265625 
Q 14.109375 46.140625 10.015625 43.890625 
L 10.015625 52.203125 
Q 14.9375 54.109375 19.578125 55.046875 
Q 24.21875 56 28.609375 56 
Q 40.484375 56 46.34375 49.84375 
Q 52.203125 43.703125 52.203125 31.203125 
z
" id="DejaVuSans-97"/>
      <path d="M 45.40625 27.984375 
Q 45.40625 37.75 41.375 43.109375 
Q 37.359375 48.484375 30.078125 48.484375 
Q 22.859375 48.484375 18.828125 43.109375 
Q 14.796875 37.75 14.796875 27.984375 
Q 14.796875 18.265625 18.828125 12.890625 
Q 22.859375 7.515625 30.078125 7.515625 
Q 37.359375 7.515625 41.375 12.890625 
Q 45.40625 18.265625 45.40625 27.984375 
z
M 54.390625 6.78125 
Q 54.390625 -7.171875 48.1875 -13.984375 
Q 42 -20.796875 29.203125 -20.796875 
Q 24.46875 -20.796875 20.265625 -20.09375 
Q 16.0625 -19.390625 12.109375 -17.921875 
L 12.109375 -9.1875 
Q 16.0625 -11.328125 19.921875 -12.34375 
Q 23.78125 -13.375 27.78125 -13.375 
Q 36.625 -13.375 41.015625 -8.765625 
Q 45.40625 -4.15625 45.40625 5.171875 
L 45.40625 9.625 
Q 42.625 4.78125 38.28125 2.390625 
Q 33.9375 0 27.875 0 
Q 17.828125 0 11.671875 7.65625 
Q 5.515625 15.328125 5.515625 27.984375 
Q 5.515625 40.671875 11.671875 48.328125 
Q 17.828125 56 27.875 56 
Q 33.9375 56 38.28125 53.609375 
Q 42.625 51.21875 45.40625 46.390625 
L 45.40625 54.6875 
L 54.390625 54.6875 
z
" id="DejaVuSans-103"/>
      <path d="M 28.609375 0 
L 0.78125 72.90625 
L 11.078125 72.90625 
L 34.1875 11.53125 
L 57.328125 72.90625 
L 67.578125 72.90625 
L 39.796875 0 
z
" id="DejaVuSans-86"/>
     </defs>
     <g transform="translate(22.453125 250.624062)rotate(-90)scale(0.1 -0.1)">
      <use xlink:href="#DejaVuSans-118"/>
      <use x="59.179688" xlink:href="#DejaVuSans-111"/>
      <use x="120.361328" xlink:href="#DejaVuSans-108"/>
      <use x="148.144531" xlink:href="#DejaVuSans-116"/>
      <use x="187.353516" xlink:href="#DejaVuSans-97"/>
      <use x="248.632812" xlink:href="#DejaVuSans-103"/>
      <use x="312.109375" xlink:href="#DejaVuSans-101"/>
      <use x="373.632812" xlink:href="#DejaVuSans-32"/>
      <use x="405.419922" xlink:href="#DejaVuSans-91"/>
      <use x="444.433594" xlink:href="#DejaVuSans-109"/>
      <use x="541.845703" xlink:href="#DejaVuSans-86"/>
      <use x="610.253906" xlink:href="#DejaVuSans-93"/>
     </g>
    </g>
   </g>
   <g id="line2d_14">
    <path clip-path="url(#p6db197e354)" d="M 80.754545 250.078315 
L 83.385088 249.999825 
L 83.417364 249.921334 
L 83.465779 250.078315 
L 83.498056 249.999825 
L 83.514194 250.078315 
L 83.594885 249.999825 
L 83.723992 249.921334 
L 84.547045 249.999825 
L 84.676151 250.078315 
L 84.96664 249.999825 
L 85.095747 249.921334 
L 85.176438 249.999825 
L 85.208715 249.921334 
L 85.337821 249.999825 
L 85.35396 250.078315 
L 85.402374 249.921334 
L 85.434651 249.921334 
L 86.322257 249.999825 
L 86.451364 250.078315 
L 87.419661 250.156806 
L 87.532629 250.235296 
L 87.581044 250.156806 
L 87.645598 250.235296 
L 88.694587 250.313787 
L 88.807555 250.392277 
L 88.85597 250.313787 
L 89.049629 241.365871 
L 89.501501 232.967388 
L 90.356831 222.05721 
L 91.196022 214.914575 
L 91.470373 213.030803 
L 91.777001 211.068541 
L 92.551639 207.850431 
L 92.583916 207.771941 
L 92.793714 207.300998 
L 92.82599 207.222507 
L 93.11648 206.359112 
L 93.310139 206.280621 
L 93.503799 205.888169 
L 93.552214 205.809678 
L 93.745873 205.417226 
L 93.858841 205.338735 
L 94.020224 205.103264 
L 94.213884 205.024773 
L 94.391405 204.710811 
L 95.843851 204.632321 
L 95.989096 204.318359 
L 96.005234 204.396849 
L 96.118202 204.318359 
L 96.247309 204.239868 
L 96.553936 204.161378 
L 96.683043 204.082887 
L 96.892841 204.55383 
L 96.957394 204.632321 
L 97.167192 205.103264 
L 97.393128 205.024773 
L 97.425404 204.946283 
L 97.506096 205.024773 
L 97.845 204.946283 
L 97.990245 204.789302 
L 98.006383 204.867792 
L 98.03866 204.710811 
L 98.103213 204.789302 
L 98.264596 204.867792 
L 98.296872 204.946283 
L 98.361426 204.789302 
L 98.50667 204.867792 
L 98.538947 204.946283 
L 98.571223 204.789302 
L 98.619638 204.867792 
L 99.119925 204.789302 
L 99.26517 204.632321 
L 99.959117 204.55383 
L 100.055947 204.47534 
L 100.072085 204.55383 
L 100.1205 204.632321 
L 100.362574 205.966659 
L 100.604649 206.594583 
L 100.653063 206.673074 
L 100.733755 206.751564 
L 100.766031 206.673074 
L 100.943553 206.594583 
L 101.056521 206.359112 
L 101.088797 206.437602 
L 101.217904 206.359112 
L 101.395425 206.04515 
L 101.427702 206.12364 
L 101.508393 206.04515 
L 101.556808 205.966659 
L 101.702053 205.809678 
L 101.831159 205.731188 
L 101.960265 205.652697 
L 102.040957 205.731188 
L 102.073233 205.652697 
L 102.153925 205.574207 
L 102.331446 205.260245 
L 102.347584 205.338735 
L 102.379861 205.181754 
L 102.428276 205.260245 
L 102.589659 205.024773 
L 102.718765 205.103264 
L 102.993116 205.024773 
L 103.057669 204.789302 
L 103.122223 204.946283 
L 103.235191 205.024773 
L 103.251329 205.103264 
L 103.33202 204.946283 
L 103.348159 205.024773 
L 103.461127 204.867792 
L 103.477265 204.946283 
L 103.687063 204.867792 
L 103.816169 204.789302 
L 104.09052 204.710811 
L 104.18735 204.632321 
L 104.203488 204.710811 
L 104.38101 204.632321 
L 104.526254 204.318359 
L 104.542393 204.396849 
L 104.639222 204.318359 
L 104.687637 204.239868 
L 104.75219 204.318359 
L 104.897435 204.239868 
L 105.026541 204.161378 
L 105.236339 204.239868 
L 105.317031 204.318359 
L 105.349307 204.239868 
L 106.107807 204.161378 
L 106.123945 204.082887 
L 106.17236 204.239868 
L 106.220775 204.161378 
L 106.882445 204.239868 
L 107.011552 204.318359 
L 107.705498 204.239868 
L 107.737775 204.161378 
L 107.78619 204.318359 
L 107.802328 204.318359 
L 108.383307 204.239868 
L 108.528551 204.082887 
L 108.576966 204.004397 
L 108.706073 203.925906 
L 109.254775 203.847416 
L 109.335466 203.768925 
L 109.367743 203.847416 
L 109.690509 203.768925 
L 109.819615 203.611945 
L 109.916445 203.690435 
L 109.932583 203.611945 
L 110.416732 203.690435 
L 110.561977 203.847416 
L 110.691083 203.768925 
L 111.368891 203.847416 
L 111.530274 204.082887 
L 112.256498 204.161378 
L 112.321051 204.082887 
L 112.385604 204.239868 
L 112.821338 204.318359 
L 112.837476 204.396849 
L 112.869753 204.239868 
L 112.934306 204.318359 
L 113.17638 204.396849 
L 113.337763 204.632321 
L 113.434593 204.710811 
L 113.579838 204.867792 
L 113.789636 204.789302 
L 113.870327 204.710811 
L 113.902604 204.789302 
L 114.160817 204.867792 
L 114.257646 204.946283 
L 114.273785 204.867792 
L 114.386753 204.710811 
L 114.402891 204.789302 
L 114.483582 204.710811 
L 114.580412 204.55383 
L 114.612689 204.632321 
L 114.806348 204.55383 
L 114.935455 204.47534 
L 115.35505 204.396849 
L 115.484157 204.318359 
L 115.532572 204.396849 
L 115.580986 204.318359 
L 115.710093 204.239868 
L 115.839199 204.161378 
L 115.984444 204.004397 
L 116.21038 203.925906 
L 116.339486 203.847416 
L 116.484731 203.768925 
L 116.629976 203.611945 
L 116.710667 203.533454 
L 116.742944 203.454964 
L 116.823635 203.533454 
L 117.017295 203.611945 
L 117.033433 203.690435 
L 117.130263 203.611945 
L 117.259369 203.690435 
L 117.501444 204.318359 
L 117.549858 204.396849 
L 117.743518 204.789302 
L 117.921039 204.867792 
L 118.050146 204.946283 
L 118.647263 204.867792 
L 118.776369 204.789302 
L 119.05072 204.710811 
L 119.131411 204.632321 
L 119.163688 204.710811 
L 119.518731 204.632321 
L 119.663975 204.47534 
L 119.80922 204.396849 
L 119.938326 204.318359 
L 120.002879 204.396849 
L 120.051294 204.318359 
L 120.228815 204.004397 
L 120.438613 203.925906 
L 120.56772 203.847416 
L 120.664549 203.768925 
L 120.696826 203.690435 
L 120.745241 203.847416 
L 120.761379 203.847416 
L 120.858209 203.925906 
L 120.874347 203.847416 
L 121.116422 203.925906 
L 121.261666 204.082887 
L 121.471464 204.004397 
L 121.616709 203.847416 
L 121.778092 203.768925 
L 121.939475 203.533454 
L 122.116996 203.454964 
L 122.246102 203.376473 
L 122.407485 203.611945 
L 122.423624 203.533454 
L 122.520453 203.611945 
L 122.697975 203.533454 
L 122.810943 203.376473 
L 122.827081 203.454964 
L 123.133709 203.533454 
L 123.278953 203.690435 
L 123.553304 203.768925 
L 123.682411 203.925906 
L 123.843794 203.690435 
L 123.924485 203.768925 
L 123.940623 203.847416 
L 124.005177 203.690435 
L 124.021315 203.690435 
L 124.360219 203.611945 
L 124.489325 203.533454 
L 124.682985 203.611945 
L 124.844368 203.847416 
L 125.280102 203.925906 
L 125.360793 204.082887 
L 125.39307 204.004397 
L 125.522176 203.925906 
L 125.764251 203.847416 
L 125.780389 203.768925 
L 125.877219 203.847416 
L 126.038602 203.768925 
L 126.167708 203.690435 
L 126.329091 203.611945 
L 126.458197 203.533454 
L 126.587304 203.611945 
L 126.651857 203.690435 
L 126.700272 203.611945 
L 127.136006 203.533454 
L 127.152144 203.454964 
L 127.232836 203.533454 
L 127.248974 203.611945 
L 127.297389 203.454964 
L 127.329665 203.454964 
L 127.394219 203.533454 
L 127.442633 203.690435 
L 127.507187 203.611945 
L 127.636293 203.533454 
L 127.765399 203.611945 
L 127.975197 203.533454 
L 128.120442 203.376473 
L 128.217272 203.297983 
L 128.346378 203.219492 
L 128.410931 203.141002 
L 128.540038 203.062511 
L 129.08874 202.984021 
L 129.137154 202.90553 
L 129.201708 202.984021 
L 129.605165 203.062511 
L 129.734271 203.141002 
L 129.831101 203.062511 
L 130.024761 202.670059 
L 130.137729 202.591568 
L 130.282973 202.434587 
L 130.525048 202.356097 
L 130.541186 202.277606 
L 130.589601 202.434587 
L 130.621878 202.356097 
L 130.670292 202.434587 
L 130.734846 202.356097 
L 131.07375 202.277606 
L 131.218995 202.120625 
L 132.477782 202.199116 
L 132.606888 202.277606 
L 132.768271 202.199116 
L 132.816686 202.120625 
L 132.881239 202.199116 
L 133.268558 202.277606 
L 133.397664 202.356097 
L 133.413803 202.356097 
L 133.559047 202.748549 
L 133.591324 202.670059 
L 133.639739 202.90553 
L 133.655877 202.82704 
L 133.768845 202.90553 
L 133.962505 203.297983 
L 133.994781 203.376473 
L 134.156164 203.690435 
L 134.285271 203.611945 
L 134.430515 203.690435 
L 134.559622 203.847416 
L 134.688728 203.768925 
L 134.979217 203.690435 
L 135.108324 203.611945 
L 135.33426 203.533454 
L 135.414951 203.376473 
L 135.463366 203.454964 
L 135.818409 203.376473 
L 135.834547 203.297983 
L 135.866824 203.454964 
L 135.931377 203.376473 
L 136.044345 203.297983 
L 136.060483 203.219492 
L 136.157313 203.297983 
L 136.883536 203.219492 
L 137.061057 202.90553 
L 137.174025 202.82704 
L 137.206302 202.748549 
L 137.238579 202.90553 
L 137.270855 202.90553 
L 137.367685 202.82704 
L 137.432238 202.670059 
L 137.480653 202.82704 
L 137.690451 202.748549 
L 137.835696 202.591568 
L 137.98094 202.748549 
L 138.110047 202.670059 
L 138.206876 202.434587 
L 138.255291 202.513078 
L 138.707163 202.434587 
L 138.83627 202.356097 
L 138.900823 202.434587 
L 138.949238 202.356097 
L 139.126759 202.434587 
L 139.255866 202.513078 
L 139.30428 202.434587 
L 139.368834 202.513078 
L 139.772291 202.434587 
L 139.901397 202.277606 
L 139.998227 202.356097 
L 140.014365 202.277606 
L 140.756727 202.199116 
L 140.91811 201.963644 
L 141.047216 201.885154 
L 141.127908 201.806663 
L 141.160184 201.885154 
L 141.434535 202.670059 
L 141.902546 202.591568 
L 142.031652 202.513078 
L 142.14462 202.434587 
L 142.273727 202.356097 
L 142.386695 202.434587 
L 142.515801 202.356097 
L 142.80629 202.277606 
L 142.951535 202.120625 
L 144.339429 202.199116 
L 144.468535 202.513078 
L 144.484673 202.434587 
L 144.581503 202.356097 
L 144.597641 202.434587 
L 144.678333 202.513078 
L 144.823577 202.670059 
L 145.340003 202.591568 
L 145.485247 202.434587 
L 145.64663 202.356097 
L 145.775737 202.277606 
L 146.308301 202.199116 
L 146.388992 202.042135 
L 146.437407 202.120625 
L 147.244322 202.199116 
L 147.26046 202.277606 
L 147.35729 202.199116 
L 147.550949 202.120625 
L 147.680056 202.042135 
L 147.809162 202.120625 
L 147.938268 202.042135 
L 147.970545 201.963644 
L 148.051236 202.042135 
L 148.180343 202.120625 
L 148.325587 202.277606 
L 148.374002 202.199116 
L 148.503109 202.120625 
L 148.632215 202.199116 
L 148.858151 202.120625 
L 148.890428 201.963644 
L 148.987258 202.042135 
L 149.100226 202.120625 
L 149.116364 202.199116 
L 149.164779 202.042135 
L 149.213194 202.120625 
L 149.358438 201.963644 
L 149.697343 202.042135 
L 149.826449 202.120625 
L 149.971694 202.120625 
L 150.00397 201.963644 
L 150.084662 202.042135 
L 150.407427 202.120625 
L 150.601087 202.591568 
L 150.76247 202.356097 
L 151.085236 202.434587 
L 151.149789 202.513078 
L 151.198204 202.434587 
L 151.32731 202.356097 
L 151.343449 202.434587 
L 151.375725 202.277606 
L 151.440278 202.356097 
L 151.811459 202.277606 
L 151.843736 202.199116 
L 151.924427 202.277606 
L 152.424714 202.199116 
L 152.586097 201.963644 
L 152.908863 201.885154 
L 152.94114 201.806663 
L 153.005693 201.963644 
L 153.054108 201.885154 
L 153.070246 201.806663 
L 153.150938 201.963644 
L 153.328459 201.885154 
L 153.360736 201.806663 
L 153.40915 201.885154 
L 153.60281 210.83307 
L 154.054682 219.153062 
L 154.425863 224.254944 
L 154.861597 229.121354 
L 154.990703 230.298711 
L 155.265054 232.731917 
L 155.765342 236.577951 
L 155.991278 238.226251 
L 156.314044 240.345494 
L 156.927299 243.877566 
L 157.137097 244.897943 
L 158.460437 250.784729 
L 158.492713 250.86322 
L 158.815479 251.883596 
L 158.847756 251.962087 
L 159.154383 252.903973 
L 159.18666 252.982463 
L 159.428735 253.610387 
L 159.461011 253.688878 
L 159.735362 254.473783 
L 159.816054 254.552273 
L 160.025851 255.023216 
L 160.058128 255.101706 
L 160.284064 255.65114 
L 160.348617 255.72963 
L 160.542277 256.122083 
L 160.60683 256.200573 
L 160.80049 256.671516 
L 160.816628 256.593026 
L 160.865043 256.750007 
L 160.897319 256.750007 
L 160.978011 256.828497 
L 161.139394 257.063969 
L 161.300777 257.142459 
L 161.478298 257.456421 
L 161.526713 257.377931 
L 161.591266 257.456421 
L 161.752649 257.691893 
L 161.897894 257.770383 
L 162.043138 257.927364 
L 162.091553 258.005855 
L 162.236798 258.162836 
L 162.285213 258.241326 
L 162.317489 258.319817 
L 162.398181 258.241326 
L 162.462734 258.319817 
L 162.607979 258.476798 
L 162.995298 258.555288 
L 163.124404 258.633779 
L 163.318064 258.712269 
L 163.431032 258.86925 
L 163.44717 258.79076 
L 163.527861 258.86925 
L 163.656968 258.947741 
L 163.931319 259.026231 
L 164.060425 259.104722 
L 164.544574 259.026231 
L 164.625266 258.947741 
L 164.657542 259.026231 
L 165.997021 258.947741 
L 166.126127 258.79076 
L 166.206818 258.86925 
L 166.239095 258.79076 
L 166.432755 258.712269 
L 166.577999 258.555288 
L 166.900765 258.476798 
L 167.029872 258.398307 
L 167.304223 258.319817 
L 167.465606 258.084345 
L 167.659265 258.005855 
L 167.788371 257.927364 
L 168.014308 257.848874 
L 168.175691 257.613402 
L 168.191829 257.691893 
L 168.288659 257.613402 
L 168.450042 257.534912 
L 168.56301 257.456421 
L 168.579148 257.534912 
L 168.627563 257.377931 
L 168.659839 257.377931 
L 168.837361 257.29944 
L 168.853499 257.22095 
L 168.885775 257.377931 
L 168.950329 257.29944 
L 169.12785 257.22095 
L 169.273095 257.063969 
L 169.418339 256.985478 
L 169.499031 256.906988 
L 169.611999 250.784729 
L 169.708829 250.86322 
L 169.724967 250.94171 
L 169.821797 250.86322 
L 170.951477 250.94171 
L 170.967616 251.020201 
L 171.064445 250.94171 
L 171.790669 251.020201 
L 171.822945 251.098691 
L 171.903637 251.020201 
L 172.048881 250.86322 
L 172.177988 250.94171 
L 172.387786 250.86322 
L 172.516892 250.784729 
L 173.162424 250.706239 
L 173.307668 250.549258 
L 174.518041 250.627749 
L 174.647147 250.706239 
L 175.115157 250.784729 
L 175.147434 250.86322 
L 175.228126 250.784729 
L 175.389508 250.86322 
L 175.405647 250.94171 
L 175.502477 250.86322 
L 175.615445 250.94171 
L 175.712274 251.020201 
L 175.728413 250.94171 
L 175.954349 251.020201 
L 176.083455 251.098691 
L 176.099593 251.020201 
L 176.180285 251.177182 
L 176.196423 251.098691 
L 176.664434 251.020201 
L 176.79354 250.94171 
L 176.938785 250.86322 
L 177.019476 250.94171 
L 177.067891 250.784729 
L 177.213136 250.86322 
L 177.293827 250.94171 
L 177.326104 250.86322 
L 177.616593 250.86322 
L 177.810253 239.168137 
L 178.391231 225.432301 
L 179.149731 212.795332 
L 179.82754 204.47534 
L 180.39238 200.001382 
L 180.924944 197.960629 
L 180.95722 197.882139 
L 181.15088 197.489686 
L 181.312263 197.411196 
L 181.522061 196.940253 
L 181.538199 196.940253 
L 181.683444 196.5478 
L 181.764135 196.46931 
L 181.90938 196.312329 
L 182.328975 196.233838 
L 182.522635 195.841386 
L 182.66788 195.762895 
L 182.861539 195.370443 
L 182.926092 195.448933 
L 182.974507 195.527424 
L 183.03906 195.448933 
L 183.103614 195.370443 
L 183.264997 195.134972 
L 183.313411 195.056481 
L 183.539348 194.507048 
L 183.620039 194.428557 
L 183.829837 193.957614 
L 183.89439 193.879124 
L 184.184879 193.015728 
L 184.233294 193.094219 
L 184.297847 193.015728 
L 184.539922 192.387804 
L 184.814273 192.309314 
L 184.927241 191.838371 
L 184.991794 191.995352 
L 185.072486 191.916861 
L 185.250007 191.367428 
L 185.282283 191.445918 
L 185.346837 191.367428 
L 185.669602 190.347052 
L 185.718017 190.268561 
L 186.411964 186.344037 
L 186.428102 185.873094 
L 186.444241 181.006683 
L 186.492656 74.338106 
L 186.573347 130.144845 
L 186.73473 193.565162 
L 186.944528 195.605914 
L 188.05807 205.495716 
L 188.074208 205.495716 
L 188.25173 206.202131 
L 188.477666 206.751564 
L 188.526081 206.830055 
L 188.752017 207.379488 
L 188.800432 207.457979 
L 188.961815 207.69345 
L 189.026368 207.61496 
L 189.058644 207.69345 
L 189.187751 207.771941 
L 189.720315 207.69345 
L 189.865559 207.536469 
L 190.091495 207.457979 
L 190.23674 207.300998 
L 190.285155 207.222507 
L 190.414261 207.065526 
L 190.4304 207.144017 
L 190.494953 206.987036 
L 190.511091 206.987036 
L 190.591783 206.908545 
L 190.720889 206.830055 
L 190.89841 206.751564 
L 191.027516 206.673074 
L 191.140485 206.594583 
L 191.301868 206.359112 
L 191.46325 206.280621 
L 191.640772 205.966659 
L 192.205612 205.888169 
L 192.366995 205.652697 
L 192.463825 205.574207 
L 192.625208 205.260245 
L 192.754314 205.338735 
L 192.835006 205.260245 
L 192.899559 205.181754 
L 192.947974 205.260245 
L 193.238463 205.181754 
L 193.383708 205.024773 
L 193.512814 204.946283 
L 193.658059 204.789302 
L 193.787165 204.867792 
L 193.964686 204.55383 
L 194.013101 204.632321 
L 194.061516 204.47534 
L 194.448835 204.396849 
L 194.59408 204.239868 
L 194.723186 204.161378 
L 194.900707 203.847416 
L 194.981399 203.768925 
L 195.126643 203.611945 
L 195.271888 203.533454 
L 195.35258 203.376473 
L 195.400994 203.454964 
L 195.465548 203.376473 
L 195.610792 203.219492 
L 195.885143 203.141002 
L 196.01425 203.062511 
L 196.094941 202.984021 
L 196.256324 202.670059 
L 196.353154 202.748549 
L 196.369292 202.670059 
L 196.708196 202.591568 
L 196.837303 202.513078 
L 196.950271 202.591568 
L 196.982547 202.513078 
L 197.063239 202.591568 
L 197.14393 202.513078 
L 197.160069 202.434587 
L 197.224622 202.591568 
L 197.24076 202.591568 
L 197.402143 202.670059 
L 197.579664 203.141002 
L 197.595803 203.062511 
L 197.644218 203.141002 
L 197.821739 203.454964 
L 197.854015 203.376473 
L 197.934707 203.454964 
L 197.966983 203.533454 
L 198.112228 203.690435 
L 198.467271 203.611945 
L 198.483409 203.533454 
L 198.580239 203.611945 
L 198.644792 203.533454 
L 198.822313 203.219492 
L 199.032111 203.141002 
L 199.209632 202.82704 
L 199.241909 202.90553 
L 199.306462 202.748549 
L 199.500121 202.356097 
L 199.629228 202.434587 
L 199.790611 202.356097 
L 199.951994 202.120625 
L 200.032685 202.042135 
L 200.161792 201.963644 
L 200.532972 201.885154 
L 200.662079 201.649682 
L 200.678217 201.728173 
L 200.807323 201.649682 
L 200.968706 201.414211 
L 201.065536 201.33572 
L 201.226919 201.100249 
L 201.372164 201.021758 
L 201.50127 200.943268 
L 201.646515 200.864777 
L 201.807898 200.629306 
L 201.856313 200.707796 
L 201.985419 200.786287 
L 202.146802 200.550815 
L 202.275908 200.629306 
L 202.3566 200.550815 
L 202.517983 200.315344 
L 202.582536 200.236853 
L 202.727781 200.001382 
L 202.743919 200.079872 
L 202.776195 199.922891 
L 202.82461 199.922891 
L 203.034408 199.844401 
L 203.179653 199.68742 
L 203.550834 199.76591 
L 203.67994 199.844401 
L 203.77677 199.922891 
L 203.905876 200.001382 
L 204.632099 199.922891 
L 204.777344 199.76591 
L 204.858035 199.68742 
L 204.987142 199.608929 
L 205.116248 199.76591 
L 205.164663 199.68742 
L 205.19694 199.844401 
L 205.229216 199.76591 
L 205.358323 200.001382 
L 205.374461 199.922891 
L 206.052269 200.001382 
L 206.213652 200.236853 
L 206.455727 200.315344 
L 206.61711 200.550815 
L 206.762354 200.629306 
L 206.907599 200.786287 
L 207.343333 200.707796 
L 207.359471 200.629306 
L 207.456301 200.707796 
L 207.472439 200.786287 
L 207.569269 200.707796 
L 207.666099 200.786287 
L 207.682237 200.864777 
L 207.779067 200.786287 
L 208.021141 200.707796 
L 208.182524 200.472325 
L 208.230939 200.393834 
L 208.40846 200.079872 
L 208.60212 200.001382 
L 208.731226 199.922891 
L 208.989439 199.844401 
L 209.118545 199.76591 
L 209.215375 199.68742 
L 209.36062 199.530439 
L 209.538141 199.451949 
L 209.731801 199.059496 
L 210.038428 198.981006 
L 210.183673 198.824025 
L 210.232088 198.902515 
L 210.393471 199.137987 
L 211.055141 199.059496 
L 211.232662 198.745534 
L 211.297215 198.824025 
L 211.329492 198.745534 
L 211.474737 198.588553 
L 211.652258 198.510063 
L 211.749088 198.431572 
L 211.765226 198.510063 
L 211.813641 198.431572 
L 211.958885 198.274591 
L 212.023439 198.196101 
L 212.039577 198.11761 
L 212.087992 198.274591 
L 212.120268 198.274591 
L 212.217098 198.353082 
L 212.362343 198.510063 
L 212.410758 198.431572 
L 212.475311 198.274591 
L 212.523726 198.431572 
L 212.588279 198.353082 
L 212.636694 198.274591 
L 212.685109 198.353082 
L 212.86263 198.667044 
L 213.185396 198.588553 
L 213.217672 198.510063 
L 213.266087 198.667044 
L 213.282226 198.667044 
L 213.556577 198.588553 
L 213.653406 198.510063 
L 213.669545 198.588553 
L 213.814789 198.510063 
L 214.008449 198.11761 
L 214.056864 198.03912 
L 214.073002 197.960629 
L 214.169832 198.03912 
L 214.2828 197.960629 
L 214.411906 197.882139 
L 214.589427 197.803648 
L 214.734672 197.646667 
L 214.84764 197.725158 
L 214.879917 197.803648 
L 214.928332 197.646667 
L 214.94447 197.646667 
L 215.202683 197.568177 
L 215.331789 197.489686 
L 215.460895 197.568177 
L 215.751385 197.646667 
L 215.767523 197.725158 
L 215.864353 197.646667 
L 216.058012 197.254215 
L 216.138704 197.175724 
L 216.300087 196.861762 
L 216.380778 196.940253 
L 216.413055 196.861762 
L 216.542161 196.783272 
L 216.687406 196.626291 
L 216.92948 196.5478 
L 216.977895 196.46931 
L 217.02631 196.5478 
L 217.042448 196.626291 
L 217.139278 196.5478 
L 217.704118 196.626291 
L 217.833225 196.704781 
L 217.849363 196.626291 
L 217.946193 196.704781 
L 218.204406 196.704781 
L 218.34965 197.097234 
L 218.656278 197.018743 
L 218.785384 196.940253 
L 218.962905 197.018743 
L 219.027459 196.940253 
L 219.075874 197.097234 
L 219.20498 197.018743 
L 219.414778 197.097234 
L 219.576161 197.332705 
L 219.915065 197.411196 
L 220.157139 198.03912 
L 220.270107 198.11761 
L 220.350799 198.274591 
L 220.399214 198.196101 
L 220.496044 198.11761 
L 220.62515 198.03912 
L 220.818809 198.11761 
L 220.834948 198.196101 
L 220.931777 198.11761 
L 221.125437 198.03912 
L 221.254543 197.960629 
L 221.319097 197.882139 
L 221.464341 197.725158 
L 221.722554 197.646667 
L 221.867799 197.489686 
L 221.900075 197.489686 
L 222.029182 197.175724 
L 222.077596 197.097234 
L 222.158288 196.861762 
L 222.222841 196.940253 
L 222.739267 196.861762 
L 222.900649 196.626291 
L 223.013618 196.5478 
L 223.158862 196.312329 
L 223.175001 196.390819 
L 223.239554 196.233838 
L 223.255692 196.312329 
L 223.449352 195.919876 
L 223.626873 195.841386 
L 223.852809 195.291952 
L 223.981915 195.213462 
L 224.046468 195.056481 
L 224.094883 195.134972 
L 224.272405 195.448933 
L 224.320819 195.370443 
L 224.385373 195.291952 
L 224.433788 195.370443 
L 224.514479 195.527424 
L 224.562894 195.448933 
L 224.692 195.527424 
L 224.853383 195.762895 
L 225.127734 195.684405 
L 225.256841 195.605914 
L 225.289117 195.684405 
L 225.305255 195.762895 
L 225.35367 195.605914 
L 225.385947 195.605914 
L 225.54733 195.684405 
L 225.692575 195.841386 
L 225.740989 195.762895 
L 225.886234 195.605914 
L 226.063755 195.527424 
L 226.338106 194.742519 
L 226.547904 194.82101 
L 226.580181 194.8995 
L 226.628596 194.742519 
L 226.644734 194.742519 
L 226.725425 194.664029 
L 226.87067 194.507048 
L 226.886808 194.585538 
L 226.9675 194.428557 
L 226.983638 194.507048 
L 227.06433 194.585538 
L 227.096606 194.664029 
L 227.161159 194.507048 
L 227.403234 194.507048 
L 227.53234 194.193086 
L 227.661447 194.114595 
L 227.677585 194.036105 
L 227.758276 194.114595 
L 227.855106 194.271576 
L 227.887383 194.193086 
L 228.048766 194.114595 
L 228.097181 194.036105 
L 228.161734 194.114595 
L 228.419946 194.036105 
L 228.597468 193.722143 
L 228.823404 193.643652 
L 228.871819 193.486671 
L 228.936372 193.643652 
L 229.081617 193.565162 
L 229.259138 193.2512 
L 229.307553 193.172709 
L 229.468936 192.937238 
L 229.630319 193.015728 
L 229.646457 193.094219 
L 229.71101 192.937238 
L 229.727148 192.937238 
L 230.082191 192.858747 
L 230.098329 192.780257 
L 230.162882 192.937238 
L 230.179021 192.937238 
L 230.905244 192.858747 
L 231.195733 191.995352 
L 231.22801 191.916861 
L 231.421669 191.524409 
L 231.453946 191.445918 
L 231.954233 189.562147 
L 231.970371 189.640637 
L 232.034925 189.405166 
L 232.164031 187.678375 
L 232.180169 184.774227 
L 232.244722 73.474711 
L 232.309276 125.592397 
L 232.470659 192.701766 
L 232.535212 193.32969 
L 232.599765 193.172709 
L 232.74501 192.937238 
L 233.051637 194.977991 
L 233.551924 198.902515 
L 233.584201 198.981006 
L 233.826275 200.315344 
L 234.520222 203.141002 
L 234.584775 203.219492 
L 234.794573 203.690435 
L 234.842988 203.768925 
L 235.036647 204.161378 
L 235.101201 204.239868 
L 235.262584 204.47534 
L 235.359413 204.55383 
L 235.520796 204.789302 
L 235.601488 204.867792 
L 235.746732 205.024773 
L 235.908115 205.103264 
L 236.037222 205.181754 
L 236.117913 205.260245 
L 236.263158 205.495716 
L 236.279296 205.417226 
L 236.359988 205.574207 
L 236.521371 205.809678 
L 236.876413 205.731188 
L 237.005519 205.574207 
L 237.070073 205.731188 
L 237.118488 205.652697 
L 237.247594 205.574207 
L 237.392839 205.495716 
L 237.538083 205.338735 
L 237.57036 205.417226 
L 237.634913 205.338735 
L 237.812434 205.024773 
L 237.860849 204.946283 
L 238.006094 204.789302 
L 238.167477 204.710811 
L 238.312721 204.55383 
L 238.474104 204.47534 
L 238.619349 204.318359 
L 238.829147 204.239868 
L 238.974392 204.082887 
L 239.103498 204.004397 
L 239.264881 203.768925 
L 239.329434 203.690435 
L 239.490817 203.454964 
L 239.732891 203.376473 
L 239.861998 203.297983 
L 240.152487 203.219492 
L 240.281593 203.141002 
L 240.378423 203.219492 
L 240.394561 203.141002 
L 240.572083 203.062511 
L 240.701189 202.984021 
L 240.959402 202.90553 
L 241.104646 202.748549 
L 241.459689 202.670059 
L 241.604934 202.513078 
L 241.717902 202.434587 
L 241.879285 202.199116 
L 242.169774 202.199116 
L 242.363433 213.658727 
L 242.799167 223.156077 
L 243.234901 229.513806 
L 243.654497 234.144745 
L 243.783603 235.322103 
L 244.396859 240.267004 
L 244.638933 241.993795 
L 244.961699 244.113038 
L 246.494837 251.020201 
L 246.55939 251.098691 
L 246.946709 252.43303 
L 246.978986 252.51152 
L 247.237199 253.217935 
L 247.269475 253.296425 
L 247.527688 254.00284 
L 247.592241 254.08133 
L 247.834316 254.709254 
L 247.850454 254.709254 
L 247.995699 255.180197 
L 248.011837 255.101706 
L 248.060252 255.258687 
L 248.092528 255.258687 
L 248.302326 255.72963 
L 248.366879 255.808121 
L 248.576677 256.279064 
L 248.657369 256.357554 
L 248.83489 256.671516 
L 248.996273 256.750007 
L 249.173794 257.063969 
L 249.238347 257.142459 
L 249.383592 257.29944 
L 249.544975 257.377931 
L 249.706358 257.613402 
L 249.819326 257.691893 
L 249.980709 257.927364 
L 250.303475 258.005855 
L 250.416443 258.162836 
L 250.432581 258.084345 
L 250.513273 258.162836 
L 250.610102 258.319817 
L 250.642379 258.241326 
L 250.884453 258.319817 
L 251.01356 258.398307 
L 251.255634 258.476798 
L 251.271772 258.555288 
L 251.352464 258.398307 
L 251.497709 258.476798 
L 251.626815 258.555288 
L 252.43373 258.476798 
L 252.562836 258.319817 
L 252.691942 258.476798 
L 252.837187 258.319817 
L 252.934017 258.241326 
L 252.99857 258.162836 
L 253.046985 258.241326 
L 253.611825 258.162836 
L 253.75707 258.005855 
L 254.273495 257.927364 
L 254.41874 257.770383 
L 254.499431 257.848874 
L 254.531708 257.770383 
L 254.773783 257.691893 
L 254.789921 257.613402 
L 254.838336 257.770383 
L 254.886751 257.691893 
L 255.354761 257.613402 
L 255.483867 257.534912 
L 255.709804 257.456421 
L 255.83891 257.377931 
L 256.000293 257.29944 
L 256.129399 257.142459 
L 256.258506 257.22095 
L 256.387612 257.142459 
L 256.50058 257.063969 
L 256.645825 256.906988 
L 256.968591 256.828497 
L 257.097697 256.750007 
L 257.129974 256.671516 
L 257.275218 256.514535 
L 257.517293 256.436045 
L 257.646399 256.357554 
L 258.01758 256.279064 
L 258.146686 256.122083 
L 258.162824 256.200573 
L 258.259654 256.122083 
L 258.372622 251.569634 
L 259.647548 251.648125 
L 259.679824 251.726615 
L 259.760516 251.648125 
L 260.244665 251.569634 
L 260.276941 251.412653 
L 260.357633 251.569634 
L 261.42276 251.648125 
L 261.471175 251.726615 
L 261.51959 251.569634 
L 261.535728 251.648125 
L 262.616994 251.569634 
L 262.649271 251.491144 
L 262.729962 251.569634 
L 263.230249 251.648125 
L 263.359356 251.726615 
L 264.392206 251.805106 
L 264.521313 251.883596 
L 266.377217 251.883596 
L 266.570876 234.301726 
L 267.151855 213.658727 
L 268.265397 189.248185 
L 268.507472 186.657998 
L 268.846376 181.085174 
L 268.910929 73.160749 
L 268.991621 141.918419 
L 269.153004 193.408181 
L 269.18528 193.643652 
L 269.233695 193.32969 
L 269.395078 192.701766 
L 269.653291 193.408181 
L 269.75012 193.486671 
L 269.959918 193.957614 
L 270.072886 194.036105 
L 270.153578 194.193086 
L 270.201993 194.114595 
L 270.282684 194.193086 
L 270.395652 194.350067 
L 270.411791 194.271576 
L 270.573173 194.193086 
L 270.621588 194.114595 
L 270.653865 194.193086 
L 270.782971 194.428557 
L 270.79911 194.507048 
L 270.879801 194.428557 
L 271.025046 194.271576 
L 271.154152 194.350067 
L 271.218705 194.507048 
L 271.26712 194.428557 
L 271.428503 194.114595 
L 271.444641 194.193086 
L 271.525333 194.114595 
L 271.670578 193.957614 
L 271.735131 193.879124 
L 271.944929 193.408181 
L 272.02562 193.32969 
L 272.283833 192.544785 
L 272.299971 192.623276 
L 272.396801 192.544785 
L 272.445216 192.544785 
L 272.59046 192.152333 
L 272.832535 191.524409 
L 272.88095 191.445918 
L 273.139162 190.739504 
L 273.332822 190.817995 
L 273.510343 191.131956 
L 273.558758 191.210447 
L 273.704003 191.367428 
L 273.800833 191.445918 
L 273.865386 191.524409 
L 273.897662 191.367428 
L 273.913801 191.445918 
L 274.059045 191.053466 
L 274.220428 190.817995 
L 274.268843 190.739504 
L 274.543194 189.719128 
L 274.575471 189.797618 
L 274.86596 189.719128 
L 274.946651 189.562147 
L 274.96279 189.640637 
L 275.043481 189.719128 
L 275.075758 189.640637 
L 275.172588 189.562147 
L 275.366247 189.169694 
L 275.495354 189.091204 
L 275.753566 188.227808 
L 275.769705 188.306299 
L 275.834258 188.227808 
L 276.076332 187.599884 
L 276.140885 187.756865 
L 276.173162 187.599884 
L 276.544343 186.265546 
L 276.560481 186.344037 
L 276.608896 186.030075 
L 276.689587 185.951584 
L 277.060768 183.596869 
L 277.286704 180.692721 
L 277.351257 70.727544 
L 277.431949 130.223336 
L 277.593332 190.504033 
L 277.754715 191.68139 
L 278.255002 194.664029 
L 278.480938 195.841386 
L 278.868257 197.332705 
L 278.884396 197.254215 
L 278.916672 197.332705 
L 279.094193 197.646667 
L 279.158747 197.725158 
L 279.336268 198.03912 
L 279.69131 197.960629 
L 279.852693 197.725158 
L 280.014076 197.646667 
L 280.240012 197.097234 
L 280.54664 197.018743 
L 280.675746 196.940253 
L 280.804853 196.861762 
L 280.820991 196.783272 
L 280.885544 196.940253 
L 280.917821 196.861762 
L 281.079204 196.783272 
L 281.20831 196.704781 
L 281.563353 196.626291 
L 281.708597 196.390819 
L 281.837704 196.46931 
L 282.031363 196.390819 
L 282.160469 196.312329 
L 282.225023 196.390819 
L 282.257299 196.233838 
L 282.273438 196.312329 
L 282.418682 196.155348 
L 282.483235 196.076857 
L 282.644618 195.841386 
L 282.693033 195.919876 
L 282.773725 195.998367 
L 282.806001 195.919876 
L 282.951246 195.841386 
L 283.128767 195.527424 
L 283.499948 195.448933 
L 283.645193 195.291952 
L 283.903405 195.213462 
L 284.097065 194.82101 
L 284.161618 194.742519 
L 284.306863 194.428557 
L 284.323001 194.507048 
L 284.371416 194.428557 
L 284.548937 194.114595 
L 284.597352 194.036105 
L 284.758735 193.643652 
L 284.774873 193.722143 
L 284.871703 193.643652 
L 285.033086 193.408181 
L 285.065363 193.32969 
L 285.27516 192.858747 
L 285.307437 192.780257 
L 285.452682 192.623276 
L 285.484958 192.544785 
L 285.662479 192.152333 
L 285.678618 192.230823 
L 285.743171 192.073842 
L 285.759309 192.073842 
L 285.823862 191.995352 
L 286.001384 191.68139 
L 286.082075 191.75988 
L 286.114352 191.68139 
L 286.146628 191.602899 
L 286.308011 191.288937 
L 286.453256 191.445918 
L 286.517809 191.367428 
L 286.550086 191.288937 
L 286.614639 191.445918 
L 286.630777 191.367428 
L 286.969681 191.288937 
L 287.001958 191.210447 
L 287.082649 191.288937 
L 287.486107 191.210447 
L 287.631352 191.053466 
L 287.776596 190.974976 
L 288.083224 190.03309 
L 288.341436 189.954599 
L 288.486681 189.640637 
L 288.502819 189.719128 
L 288.535096 189.797618 
L 288.567373 189.876109 
L 288.631926 189.719128 
L 288.728756 189.640637 
L 288.954692 189.091204 
L 289.003107 189.169694 
L 289.16449 189.483656 
L 289.212904 189.405166 
L 289.261319 189.562147 
L 289.600224 189.483656 
L 289.745468 189.012713 
L 289.793883 188.934223 
L 289.922989 188.855732 
L 289.987543 188.777242 
L 290.342585 187.521394 
L 290.358723 187.599884 
L 290.391 187.442903 
L 290.455553 187.521394 
L 290.568521 187.364413 
L 290.58466 187.442903 
L 290.681489 187.364413 
L 290.859011 187.050451 
L 290.907425 186.97196 
L 291.068808 186.736489 
L 291.133362 186.657998 
L 291.375436 186.030075 
L 291.423851 185.951584 
L 292.053244 182.419512 
L 292.101659 179.672345 
L 292.166212 71.041506 
L 292.230766 118.920705 
L 292.408287 189.954599 
L 292.553532 190.582523 
L 292.634223 190.661014 
L 293.392723 193.800633 
L 293.424999 193.879124 
L 293.812319 195.213462 
L 293.876872 195.291952 
L 294.118946 195.919876 
L 294.248053 195.998367 
L 294.377159 196.155348 
L 294.506265 196.076857 
L 294.667648 196.155348 
L 294.829031 196.390819 
L 294.877446 196.46931 
L 295.006552 196.5478 
L 295.11952 196.626291 
L 295.21635 196.704781 
L 295.232489 196.626291 
L 295.490701 196.5478 
L 295.652084 196.312329 
L 295.700499 196.233838 
L 295.87802 195.919876 
L 295.990988 195.841386 
L 296.152371 195.605914 
L 296.216925 195.527424 
L 296.394446 195.213462 
L 296.555829 195.134972 
L 296.571967 195.056481 
L 296.652659 195.134972 
L 296.862456 195.605914 
L 297.29819 195.527424 
L 297.475712 195.213462 
L 297.669371 195.134972 
L 297.879169 194.664029 
L 297.911446 194.585538 
L 298.072828 194.350067 
L 298.121243 194.271576 
L 298.282626 194.036105 
L 298.34718 193.957614 
L 298.556977 193.486671 
L 298.686084 193.408181 
L 298.976573 192.544785 
L 299.057265 192.466295 
L 299.299339 191.838371 
L 299.912594 191.75988 
L 300.090115 191.445918 
L 300.380605 191.367428 
L 300.509711 191.288937 
L 300.606541 191.210447 
L 300.703371 191.131956 
L 300.719509 191.210447 
L 300.8002 191.131956 
L 300.913168 191.053466 
L 300.945445 191.131956 
L 300.977722 190.974976 
L 301.009998 190.974976 
L 301.042275 190.974976 
L 301.171381 190.661014 
L 301.268211 190.582523 
L 301.413456 190.425542 
L 301.478009 190.504033 
L 301.510285 190.425542 
L 301.639392 190.268561 
L 301.703945 190.425542 
L 301.768498 190.347052 
L 301.816913 190.425542 
L 301.946019 190.504033 
L 302.139679 190.582523 
L 302.284924 190.817995 
L 302.397892 190.739504 
L 302.51086 190.817995 
L 302.672243 190.425542 
L 302.688381 190.504033 
L 302.849764 190.425542 
L 303.043423 190.03309 
L 303.091838 189.954599 
L 303.285498 189.562147 
L 303.333913 189.483656 
L 303.511434 189.169694 
L 303.608264 189.091204 
L 303.769647 188.855732 
L 303.963306 188.777242 
L 304.092413 188.46328 
L 304.156966 188.384789 
L 304.30221 188.070827 
L 304.318349 188.149318 
L 304.479732 188.070827 
L 304.608838 187.756865 
L 304.641115 187.835356 
L 304.721806 187.835356 
L 304.818636 187.521394 
L 304.850912 187.599884 
L 304.899327 187.599884 
L 305.06071 186.89347 
L 305.109125 186.97196 
L 305.141402 186.736489 
L 305.15754 186.814979 
L 305.189817 186.736489 
L 305.399615 186.265546 
L 305.464168 186.187056 
L 305.81921 185.009698 
L 305.835348 185.009698 
L 306.093561 183.439888 
L 306.125838 183.361398 
L 306.335636 180.692721 
L 306.351774 179.750835 
L 306.416327 71.433958 
L 306.497019 130.458807 
L 306.658402 189.562147 
L 306.739093 190.190071 
L 306.787508 190.03309 
L 306.965029 189.719128 
L 307.207104 189.797618 
L 307.836497 192.309314 
L 307.868774 192.387804 
L 308.062433 192.780257 
L 308.110848 192.858747 
L 308.304508 193.722143 
L 308.482029 194.036105 
L 308.788657 193.957614 
L 308.885486 193.879124 
L 308.901625 193.957614 
L 309.095284 194.036105 
L 309.22439 194.193086 
L 309.353497 194.114595 
L 309.466465 194.193086 
L 309.579433 194.271576 
L 309.740816 194.036105 
L 310.111997 194.114595 
L 310.257241 194.271576 
L 310.434763 194.193086 
L 310.596146 193.957614 
L 310.967326 193.879124 
L 311.112571 193.722143 
L 311.160986 193.643652 
L 311.419199 192.937238 
L 311.548305 192.858747 
L 311.725826 192.544785 
L 311.919486 192.466295 
L 312.048592 192.387804 
L 312.306805 192.309314 
L 312.484326 191.995352 
L 312.532741 191.916861 
L 312.710262 191.602899 
L 312.903922 191.524409 
L 313.065305 191.288937 
L 313.178273 191.210447 
L 313.323517 191.053466 
L 313.67856 190.974976 
L 313.743113 191.053466 
L 313.856081 190.661014 
L 314.162709 190.582523 
L 314.275677 190.504033 
L 314.404783 190.582523 
L 314.646858 189.954599 
L 314.743687 189.876109 
L 314.856655 189.640637 
L 314.888932 189.719128 
L 314.985762 189.640637 
L 315.19556 189.169694 
L 315.260113 189.091204 
L 315.437634 188.777242 
L 315.631294 188.698751 
L 315.776538 188.54177 
L 315.905645 188.46328 
L 315.937921 188.384789 
L 315.986336 188.54177 
L 316.228411 189.954599 
L 316.260687 190.03309 
L 316.42207 190.582523 
L 316.631868 191.131956 
L 316.777113 190.974976 
L 317.116017 190.896485 
L 317.2774 190.661014 
L 317.422644 190.817995 
L 317.713134 190.739504 
L 317.84224 190.661014 
L 317.874517 190.582523 
L 318.229559 189.405166 
L 318.310251 189.326675 
L 318.826676 187.364413 
L 318.891229 187.285922 
L 319.213995 186.265546 
L 319.310825 186.265546 
L 319.472208 185.716113 
L 319.633591 184.460265 
L 319.859527 181.242155 
L 319.891804 128.418054 
L 319.92408 72.454334 
L 319.988633 109.580337 
L 320.166155 187.678375 
L 320.246846 188.384789 
L 320.295261 188.149318 
L 320.359814 188.227808 
L 320.569612 188.698751 
L 320.58575 188.620261 
L 320.618027 188.777242 
L 320.666442 188.777242 
L 320.843963 189.091204 
L 320.892378 189.169694 
L 321.311974 190.661014 
L 321.360388 190.739504 
L 321.554048 191.131956 
L 321.699293 191.210447 
L 321.844537 191.367428 
L 321.941367 191.445918 
L 322.118888 191.75988 
L 322.29641 191.838371 
L 322.441654 192.073842 
L 322.473931 191.995352 
L 322.538484 192.073842 
L 322.699867 192.309314 
L 322.716005 192.230823 
L 322.780558 192.387804 
L 323.022633 193.015728 
L 323.652026 192.937238 
L 323.764994 192.780257 
L 323.781133 192.858747 
L 323.877963 192.780257 
L 324.023207 192.466295 
L 324.039345 192.544785 
L 324.152314 192.466295 
L 324.168452 192.387804 
L 324.233005 192.623276 
L 324.249143 192.544785 
L 324.265282 192.623276 
L 324.329835 192.466295 
L 324.345973 192.466295 
L 324.475079 192.387804 
L 324.701016 192.466295 
L 324.830122 192.623276 
L 324.894675 192.544785 
L 324.94309 192.623276 
L 325.685452 192.544785 
L 325.846835 192.309314 
L 325.911388 192.230823 
L 326.040494 192.152333 
L 326.185739 192.073842 
L 326.379398 191.68139 
L 326.395537 191.68139 
L 326.540781 191.288937 
L 326.589196 191.210447 
L 326.798994 190.739504 
L 326.9281 190.661014 
L 327.073345 190.425542 
L 327.089483 190.504033 
L 327.12176 190.347052 
L 327.154036 190.347052 
L 327.299281 190.190071 
L 327.412249 190.268561 
L 327.525217 190.190071 
L 327.573632 190.268561 
L 327.605909 190.11158 
L 327.622047 190.190071 
L 327.751153 190.11158 
L 327.78343 190.03309 
L 327.960951 189.719128 
L 328.186887 189.640637 
L 328.428962 189.012713 
L 328.493515 189.012713 
L 328.622621 188.54177 
L 328.63876 188.620261 
L 328.961525 188.698751 
L 328.977664 188.777242 
L 329.00994 188.620261 
L 329.058355 188.620261 
L 329.187462 188.54177 
L 329.252015 188.46328 
L 329.461813 187.992337 
L 329.558642 187.913846 
L 329.687749 187.835356 
L 329.800717 187.913846 
L 329.9621 187.442903 
L 329.978238 187.521394 
L 330.091206 187.835356 
L 330.123483 187.678375 
L 330.204174 187.599884 
L 330.397834 187.128941 
L 330.43011 187.207432 
L 330.478525 187.050451 
L 330.494664 187.050451 
L 330.688323 187.050451 
L 330.833568 186.657998 
L 330.930398 186.657998 
L 331.124057 204.632321 
L 331.495238 217.34778 
L 332.076216 228.807392 
L 332.786301 237.598327 
L 333.528663 243.799076 
L 335.158631 251.177182 
L 335.174769 251.177182 
L 335.336152 251.805106 
L 335.35229 251.805106 
L 335.529812 252.51152 
L 335.997822 254.238311 
L 336.046237 254.316802 
L 336.272173 254.866235 
L 336.30445 254.944726 
L 336.530386 255.494159 
L 336.675631 255.572649 
L 336.86929 255.965102 
L 336.917705 256.043592 
L 337.079088 256.436045 
L 337.095226 256.357554 
L 337.111365 256.357554 
L 337.256609 256.750007 
L 337.337301 256.828497 
L 337.53096 257.22095 
L 337.660067 257.29944 
L 337.853726 257.691893 
L 338.015109 257.770383 
L 338.19263 258.084345 
L 338.321737 258.162836 
L 338.466981 258.319817 
L 338.579949 258.398307 
L 338.709056 258.476798 
L 339.306173 258.398307 
L 339.386864 258.319817 
L 339.419141 258.398307 
L 340.758619 258.319817 
L 340.920002 258.084345 
L 341.065247 258.005855 
L 341.22663 257.770383 
L 341.371874 257.691893 
L 341.517119 257.534912 
L 341.662364 257.456421 
L 341.69464 257.377931 
L 341.775332 257.456421 
L 341.936715 257.377931 
L 342.065821 257.29944 
L 342.194928 257.377931 
L 342.630662 257.29944 
L 342.6468 257.22095 
L 342.679076 257.377931 
L 342.74363 257.29944 
L 343.11481 257.22095 
L 343.163225 257.142459 
L 343.227778 257.22095 
L 343.760342 257.142459 
L 343.792619 257.063969 
L 343.87331 257.142459 
L 343.97014 257.063969 
L 344.050831 256.985478 
L 344.083108 257.063969 
L 344.228353 256.985478 
L 344.357459 256.906988 
L 344.680225 256.828497 
L 344.696363 256.750007 
L 344.793193 256.828497 
L 344.922299 256.750007 
L 345.051406 256.671516 
L 345.083682 256.750007 
L 345.164374 256.671516 
L 345.600108 256.593026 
L 345.616246 256.514535 
L 345.713076 256.593026 
L 345.793767 256.514535 
L 345.922874 256.436045 
L 346.068118 256.357554 
L 346.181086 256.200573 
L 346.197225 256.279064 
L 346.261778 256.200573 
L 346.390884 256.122083 
L 346.568406 256.043592 
L 346.584544 255.965102 
L 346.681374 256.043592 
L 346.971863 255.965102 
L 347.117108 255.808121 
L 347.940161 255.886611 
L 347.972437 255.965102 
L 348.053129 255.886611 
L 349.666958 255.965102 
L 349.683097 256.043592 
L 349.779926 255.965102 
L 351.16782 256.043592 
L 351.264649 256.122083 
L 351.280788 256.043592 
L 353.362628 255.965102 
L 353.394904 255.886611 
L 353.443319 256.043592 
L 353.475596 255.965102 
L 354.702106 255.886611 
L 354.815074 255.808121 
L 354.831213 255.886611 
L 354.879628 255.72963 
L 354.928042 255.808121 
L 355.024872 255.72963 
L 355.041011 255.808121 
L 355.121702 255.808121 
L 355.13784 255.65114 
L 355.3315 221.193814 
L 355.79951 186.265546 
L 355.89634 173.314615 
L 355.944755 68.765281 
L 356.009308 121.039948 
L 356.154553 184.695736 
L 356.170691 184.538755 
L 356.364351 178.651968 
L 356.800085 168.055752 
L 356.864638 71.119996 
L 356.945329 119.941081 
L 357.122851 178.651968 
L 357.284234 180.064797 
L 357.494031 180.53574 
L 357.542446 180.45725 
L 357.590861 180.53574 
L 357.703829 180.849702 
L 357.719968 180.771212 
L 357.865212 180.692721 
L 358.187978 179.672345 
L 358.236393 179.593854 
L 358.768957 176.454235 
L 359.043308 172.765182 
L 359.172414 167.270847 
L 359.236967 67.980376 
L 359.30152 107.382603 
L 359.49518 178.88744 
L 359.672701 181.163664 
L 359.898637 181.870079 
L 359.914776 181.791588 
L 360.092297 181.870079 
L 360.140712 181.948569 
L 360.172988 181.791588 
L 360.189127 181.791588 
L 360.25368 181.713098 
L 360.528031 180.928193 
L 360.640999 180.849702 
L 360.834658 180.221778 
L 360.866935 180.300269 
L 360.947627 180.221778 
L 361.092871 179.829326 
L 361.125148 179.907816 
L 361.173563 179.829326 
L 361.383361 179.358383 
L 361.447914 179.279892 
L 361.722265 178.494987 
L 361.786818 178.416497 
L 362.028892 177.788573 
L 362.125722 177.710083 
L 362.43235 176.768197 
L 362.496903 176.689706 
L 363.303818 173.314615 
L 363.352233 173.393106 
L 363.384509 173.157634 
L 363.56203 169.23311 
L 363.626584 66.96 
L 363.707275 116.879952 
L 363.884796 177.867064 
L 364.046179 179.907816 
L 364.143009 179.986307 
L 364.304392 180.221778 
L 364.336669 180.300269 
L 364.352807 180.378759 
L 364.433498 180.300269 
L 364.449637 180.221778 
L 364.530328 180.378759 
L 364.836956 180.45725 
L 364.853094 180.53574 
L 364.885371 180.378759 
L 364.917647 180.378759 
L 365.304966 179.044421 
L 365.595456 178.96593 
L 366.257126 176.297254 
L 366.321679 176.375744 
L 366.370094 176.532725 
L 366.418509 176.297254 
L 366.773551 175.119896 
L 366.805828 175.198387 
L 366.838104 174.962915 
L 366.967211 174.648953 
L 366.999487 174.727444 
L 367.015626 174.805934 
L 367.06404 174.648953 
L 367.080179 174.648953 
L 367.225423 174.491972 
L 367.273838 174.413482 
L 367.45136 173.707068 
L 367.628881 172.294239 
L 367.854817 171.038391 
L 367.887093 170.9599 
L 367.967785 169.547072 
L 368.000062 163.974247 
L 368.064615 68.058867 
L 368.129168 105.577321 
L 368.338966 177.082159 
L 368.516487 178.88744 
L 368.694008 179.279892 
L 368.806976 179.201402 
L 368.952221 179.358383 
L 369.000636 179.201402 
L 369.081327 179.279892 
L 369.194295 179.436873 
L 369.210434 179.358383 
L 369.24271 179.358383 
L 369.323402 179.201402 
L 369.355678 179.279892 
L 369.387955 179.515364 
L 369.484785 179.358383 
L 369.581614 179.279892 
L 369.839827 178.573478 
L 369.952795 178.494987 
L 370.501497 176.375744 
L 370.533774 176.297254 
L 370.695157 175.590839 
L 370.808125 175.66933 
L 371.114753 174.727444 
L 371.163167 174.648953 
L 371.308412 174.413482 
L 371.32455 174.491972 
L 371.389104 174.256501 
L 371.405242 174.334991 
L 371.534348 174.413482 
L 371.679593 174.805934 
L 371.744146 174.648953 
L 371.808699 174.727444 
L 371.857114 174.648953 
L 371.970082 174.413482 
L 372.002359 174.491972 
L 372.08305 174.413482 
L 372.551061 172.608201 
L 372.567199 172.686691 
L 372.615614 172.45122 
L 372.825412 171.038391 
L 372.922242 167.74179 
L 372.986795 67.587924 
L 373.067486 110.286751 
L 373.261146 175.276877 
L 373.454805 177.003668 
L 373.69688 177.631592 
L 373.858263 177.553102 
L 373.955092 177.396121 
L 373.971231 177.474611 
L 374.051922 177.631592 
L 374.084199 177.553102 
L 374.374688 176.689706 
L 374.45538 176.611216 
L 374.616763 176.297254 
L 374.713592 176.375744 
L 374.729731 176.297254 
L 374.842699 176.218763 
L 375.068635 175.66933 
L 375.100911 175.74782 
L 375.197741 175.904801 
L 375.230018 175.826311 
L 375.262294 175.74782 
L 375.617337 174.570463 
L 375.665752 174.491972 
L 375.827135 173.864049 
L 375.859411 173.942539 
L 375.891688 174.021029 
L 375.940103 173.785558 
L 376.149901 173.236125 
L 376.182177 173.314615 
L 376.262869 173.236125 
L 376.295145 173.157634 
L 376.698603 171.744805 
L 376.779294 171.823296 
L 376.795432 171.744805 
L 377.118198 169.625562 
L 377.182752 167.977262 
L 377.215028 139.485214 
L 377.263443 68.215848 
L 377.327996 100.318459 
L 377.537794 173.393106 
L 377.683039 175.433858 
L 377.699177 175.355368 
L 377.95739 176.061782 
L 378.054219 176.140273 
L 378.215602 176.375744 
L 378.393124 176.297254 
L 378.538368 176.140273 
L 378.586783 176.061782 
L 378.877273 175.198387 
L 378.941826 175.119896 
L 378.990241 175.041406 
L 379.022517 175.198387 
L 379.038655 175.198387 
L 379.167762 175.119896 
L 379.474389 174.17801 
L 379.522804 174.09952 
L 379.668049 173.942539 
L 379.74874 173.864049 
L 379.990815 173.236125 
L 380.023091 173.157634 
L 380.216751 172.137258 
L 380.232889 172.215748 
L 380.297442 171.980277 
L 380.426549 171.901786 
L 380.491102 171.980277 
L 380.571794 172.137258 
L 380.620208 172.058767 
L 380.684762 171.980277 
L 380.846145 171.666315 
L 380.862283 171.744805 
L 380.910698 171.430843 
L 380.959113 171.352353 
L 381.394847 168.683676 
L 381.540091 165.701037 
L 381.572368 135.011256 
L 381.620783 67.901886 
L 381.685336 99.533554 
L 381.911272 174.413482 
L 382.104932 176.218763 
L 382.185623 176.297254 
L 382.395421 176.768197 
L 382.459974 176.846687 
L 382.605219 177.003668 
L 382.702048 176.925178 
L 382.944123 176.297254 
L 383.121644 176.375744 
L 383.234612 176.689706 
L 383.283027 176.611216 
L 383.379857 176.689706 
L 383.395995 176.768197 
L 383.44441 176.611216 
L 383.460548 176.611216 
L 383.670346 176.140273 
L 383.702623 176.061782 
L 383.912421 175.590839 
L 383.944697 175.512349 
L 384.089942 175.198387 
L 384.10608 175.276877 
L 384.154495 175.198387 
L 384.348155 174.805934 
L 384.380431 174.727444 
L 384.477261 174.491972 
L 384.525676 174.570463 
L 384.735474 174.491972 
L 384.896857 174.09952 
L 384.912995 174.17801 
L 384.993686 174.09952 
L 385.042101 174.021029 
L 385.106654 174.09952 
L 385.171208 174.021029 
L 385.300314 173.707068 
L 385.332591 173.785558 
L 385.364867 173.942539 
L 385.42942 173.785558 
L 386.123367 169.939524 
L 386.317027 165.544056 
L 386.38158 69.550186 
L 386.47841 116.095047 
L 386.672069 173.079144 
L 386.833452 174.570463 
L 386.84959 174.491972 
L 386.898005 174.805934 
L 387.107803 175.433858 
L 387.123941 175.355368 
L 387.172356 175.433858 
L 387.349877 175.74782 
L 387.527399 175.433858 
L 387.688782 175.355368 
L 387.882441 174.962915 
L 387.979271 174.962915 
L 388.140654 175.590839 
L 388.318175 175.276877 
L 388.415005 175.355368 
L 388.431143 175.276877 
L 388.527973 175.198387 
L 388.657079 175.119896 
L 388.689356 175.198387 
L 388.737771 175.041406 
L 388.753909 175.041406 
L 389.012122 174.334991 
L 389.076675 174.334991 
L 389.238058 173.785558 
L 390.077249 169.154619 
L 390.319324 164.52368 
L 390.3516 126.298811 
L 390.400015 69.157734 
L 390.464568 100.789402 
L 390.674366 171.352353 
L 390.835749 173.314615 
L 390.868026 173.393106 
L 391.142377 174.17801 
L 391.158515 174.17801 
L 391.174653 174.021029 
L 391.271483 174.09952 
L 391.352175 173.942539 
L 391.384451 174.09952 
L 391.497419 174.021029 
L 391.513558 173.942539 
L 391.594249 174.09952 
L 391.739494 174.021029 
L 391.96543 173.471596 
L 392.078398 173.393106 
L 392.417302 172.294239 
L 392.449579 172.294239 
L 392.610962 171.666315 
L 392.659377 171.587824 
L 392.869174 170.567448 
L 392.885313 170.567448 
L 393.175802 168.762167 
L 393.627674 166.014999 
L 393.724504 163.581794 
L 393.756781 133.990879 
L 393.805196 69.707167 
L 393.869749 95.295067 
L 394.111823 170.724429 
L 394.305483 173.157634 
L 394.499142 174.09952 
L 394.547557 174.17801 
L 394.757355 174.648953 
L 394.967153 174.727444 
L 395.015568 174.884425 
L 395.080121 174.805934 
L 395.386749 173.864049 
L 395.419025 173.785558 
L 395.56427 173.628577 
L 395.612685 173.628577 
L 395.757929 173.236125 
L 395.806344 173.157634 
L 395.967727 172.686691 
L 396.000004 172.765182 
L 396.096833 172.686691 
L 396.290493 171.823296 
L 396.32277 171.744805 
L 396.726227 170.331976 
L 396.758504 170.253486 
L 397.048993 169.076129 
L 397.097408 169.154619 
L 397.129684 169.23311 
L 397.161961 169.076129 
L 397.517003 164.994623 
L 397.565418 159.421798 
L 397.629972 69.942639 
L 397.710663 104.086002 
L 397.936599 170.174995 
L 398.130259 172.608201 
L 398.162535 172.686691 
L 398.501439 173.785558 
L 398.582131 173.864049 
L 398.727376 174.021029 
L 398.904897 173.942539 
L 399.050142 173.785558 
L 399.211524 173.707068 
L 399.453599 173.079144 
L 399.582705 173.000653 
L 399.744088 172.686691 
L 399.857056 172.765182 
L 399.889333 172.686691 
L 399.953886 172.843672 
L 400.018439 172.765182 
L 400.438035 171.273862 
L 400.470311 171.195372 
L 401.196535 167.192357 
L 401.406333 163.110851 
L 401.487024 69.942639 
L 401.583854 115.231652 
L 401.777513 168.762167 
L 401.955035 171.273862 
L 402.229386 172.922163 
L 402.358492 173.157634 
L 402.37463 173.079144 
L 402.439183 173.000653 
L 402.519875 172.922163 
L 402.552152 173.000653 
L 402.842641 172.922163 
L 403.068577 172.372729 
L 403.100854 172.294239 
L 403.294513 171.901786 
L 403.342928 171.823296 
L 403.455896 171.666315 
L 403.472034 171.744805 
L 403.923907 171.666315 
L 404.053013 171.587824 
L 404.165981 171.666315 
L 404.214396 171.744805 
L 404.278949 171.666315 
L 404.359641 171.744805 
L 404.424194 171.823296 
L 404.472609 171.744805 
L 404.521024 171.666315 
L 404.730821 170.88141 
L 404.779236 170.9599 
L 404.843789 171.038391 
L 404.892204 170.9599 
L 405.102002 170.88141 
L 405.344077 170.253486 
L 405.392492 170.174995 
L 405.50546 169.704052 
L 405.537736 169.782543 
L 405.602289 169.704052 
L 406.005747 167.192357 
L 406.215545 164.209718 
L 406.296236 159.73576 
L 406.376928 70.963015 
L 406.441481 101.574306 
L 406.667417 169.468581 
L 406.861076 172.294239 
L 407.280672 173.785558 
L 407.442055 173.707068 
L 407.571161 173.393106 
L 407.813236 173.471596 
L 407.893927 173.550087 
L 407.926204 173.471596 
L 408.119863 173.550087 
L 408.200555 173.707068 
L 408.24897 173.628577 
L 408.3458 173.550087 
L 408.523321 173.236125 
L 408.604012 173.236125 
L 408.797672 172.372729 
L 409.104299 171.430843 
L 409.152714 171.352353 
L 409.749831 168.997638 
L 409.798246 168.919148 
L 409.927352 168.369714 
L 409.975767 168.605186 
L 410.395363 168.526695 
L 410.944065 165.308585 
L 411.105448 158.793874 
L 411.186139 70.963015 
L 411.250693 100.239968 
L 411.476629 169.3116 
L 411.65415 172.058767 
L 411.896224 173.393106 
L 412.057607 173.628577 
L 412.138299 173.550087 
L 412.267405 173.393106 
L 412.299682 173.471596 
L 412.348097 173.314615 
L 412.364235 173.314615 
L 412.525618 173.236125 
L 412.590171 173.157634 
L 412.622448 173.314615 
L 412.703139 173.628577 
L 412.767692 173.550087 
L 412.97749 173.079144 
L 413.058182 173.000653 
L 413.203426 172.843672 
L 413.300256 172.765182 
L 413.477777 172.137258 
L 413.510054 172.294239 
L 413.752128 172.215748 
L 414.252416 170.331976 
L 414.316969 170.253486 
L 414.462213 170.096505 
L 414.510628 170.018014 
L 414.801118 169.154619 
L 414.833394 169.076129 
L 415.382096 162.796889 
L 415.414373 155.026331 
L 415.478926 70.727544 
L 415.543479 96.550915 
L 415.785554 169.468581 
L 415.979213 171.980277 
L 416.189011 173.000653 
L 416.414947 173.550087 
L 416.544053 173.471596 
L 416.76999 173.471596 
L 416.931373 172.922163 
L 416.963649 173.000653 
L 417.012064 172.765182 
L 417.060479 172.686691 
L 417.286415 172.137258 
L 417.399383 172.058767 
L 417.818979 170.567448 
L 417.851255 170.488957 
L 418.109468 169.782543 
L 418.238574 169.704052 
L 418.56134 168.683676 
L 418.577479 168.762167 
L 418.625894 168.605186 
L 418.642032 168.605186 
L 419.126181 165.701037 
L 419.335979 162.090475 
L 419.368255 147.412753 
L 419.432808 70.884525 
L 419.497362 97.33582 
L 419.787851 191.053466 
L 420.046064 209.734203 
L 420.433383 223.470039 
L 420.83684 232.025502 
L 421.224159 237.441346 
L 421.627616 241.758323 
L 421.788999 243.092661 
L 422.224733 246.310772 
L 422.757297 249.450391 
L 422.950957 250.313787 
L 423.67718 253.296425 
L 423.709457 253.374916 
L 424.145191 254.944726 
L 424.177467 255.023216 
L 424.451818 255.808121 
L 424.500233 255.886611 
L 424.758446 256.593026 
L 424.855276 256.671516 
L 425.129627 257.456421 
L 425.145765 257.377931 
L 425.178041 257.534912 
L 425.210318 257.534912 
L 425.436254 258.084345 
L 425.549222 258.162836 
L 425.726743 258.476798 
L 425.839712 258.555288 
L 426.017233 258.86925 
L 426.097924 258.947741 
L 426.259307 259.183212 
L 426.32386 259.261703 
L 426.501382 259.575664 
L 426.51752 259.497174 
L 426.582073 259.654155 
L 426.598211 259.654155 
L 426.727318 259.732645 
L 426.824148 259.811136 
L 426.98553 260.046607 
L 427.033945 260.125098 
L 427.163052 260.203588 
L 427.243743 260.282079 
L 427.388988 260.51755 
L 427.421264 260.43906 
L 427.501956 260.51755 
L 428.131349 260.596041 
L 428.276594 260.753022 
L 429.148062 260.831512 
L 429.1642 260.910003 
L 429.244892 260.831512 
L 429.341722 260.753022 
L 429.35786 260.831512 
L 429.729041 260.910003 
L 429.793594 260.988493 
L 429.842009 260.910003 
L 430.697338 260.831512 
L 430.826445 260.753022 
L 431.310594 260.674531 
L 431.375147 260.596041 
L 431.423562 260.674531 
L 431.4397 260.753022 
L 431.520391 260.674531 
L 431.649498 260.596041 
L 432.036817 260.51755 
L 432.165923 260.43906 
L 432.633934 260.360569 
L 432.76304 260.282079 
L 433.392434 260.203588 
L 433.52154 260.125098 
L 433.795891 260.046607 
L 433.860444 259.889626 
L 433.908859 259.968117 
L 433.989551 260.046607 
L 434.021827 259.968117 
L 434.74805 259.889626 
L 434.877157 259.811136 
L 435.232199 259.732645 
L 435.377444 259.575664 
L 435.458135 259.654155 
L 435.490412 259.575664 
L 435.780901 259.575664 
L 435.780901 259.575664 
" style="fill:none;stroke:#1f77b4;stroke-linecap:square;stroke-width:1.5;"/>
   </g>
   <g id="line2d_15">
    <path clip-path="url(#p6db197e354)" d="M 80.754545 252.495822 
L 81.626013 251.000861 
L 82.239269 250.245343 
L 82.497481 249.97207 
L 83.368949 249.248702 
L 83.530332 249.152253 
L 83.885375 248.94328 
L 84.095173 248.846831 
L 84.369524 248.718232 
L 84.627736 248.621783 
L 84.853672 248.541408 
L 85.192577 248.444959 
L 85.402374 248.38066 
L 85.902662 248.284211 
L 86.096321 248.235986 
L 86.967789 248.139537 
L 87.129172 248.123462 
L 88.904385 248.043088 
L 89.61447 227.097555 
L 90.27614 213.321407 
L 90.986225 203.1621 
L 91.567203 197.535901 
L 92.16432 193.661862 
L 92.761437 191.234559 
L 93.294001 189.980721 
L 94.165469 189.257352 
L 94.649618 189.353801 
L 96.021373 190.864838 
L 96.683043 191.941853 
L 96.892841 192.2955 
L 97.845 193.951209 
L 98.054798 194.304856 
L 98.797159 195.54262 
L 99.055372 195.944491 
L 99.571798 196.732159 
L 99.942978 197.246554 
L 100.330298 197.777024 
L 100.943553 198.532542 
L 101.234042 198.870114 
L 103.33202 200.815171 
L 103.477265 200.91162 
L 103.961414 201.249192 
L 104.138935 201.345641 
L 104.526254 201.586764 
L 104.719914 201.683213 
L 105.04268 201.860037 
L 105.252478 201.956486 
L 105.526829 202.085085 
L 105.768903 202.181534 
L 106.027116 202.294058 
L 106.301467 202.390507 
L 106.543541 202.486956 
L 106.866307 202.583405 
L 107.092243 202.663779 
L 107.479562 202.760228 
L 107.68936 202.824528 
L 108.125094 202.920977 
L 108.318754 202.969202 
L 108.819041 203.065651 
L 109.0127 203.113875 
L 109.690509 203.210324 
L 109.86803 203.242474 
L 110.691083 203.338923 
L 110.868604 203.371073 
L 112.111253 203.467522 
L 112.272636 203.483597 
L 114.209231 203.580046 
L 114.370614 203.596121 
L 153.457565 203.69257 
L 154.16765 224.654178 
L 154.82932 238.430326 
L 155.442576 247.448319 
L 155.991278 253.170966 
L 156.733639 258.21847 
L 157.314618 260.565398 
L 157.831043 261.771012 
L 158.169947 262.221108 
L 158.299054 262.317557 
L 158.589543 262.462231 
L 159.170522 262.365782 
L 160.655245 260.742222 
L 161.252362 259.793805 
L 161.494436 259.408009 
L 162.285213 258.073796 
L 162.511149 257.704074 
L 163.188957 256.59491 
L 163.44717 256.193038 
L 163.947457 255.43752 
L 164.286361 254.955275 
L 164.67368 254.424804 
L 165.206244 253.749661 
L 165.512872 253.379939 
L 167.949754 251.09731 
L 168.094999 251.000861 
L 168.56301 250.679364 
L 168.740531 250.582915 
L 169.111712 250.357867 
L 169.305371 250.261418 
L 169.515169 250.148894 
L 169.531307 252.495822 
L 169.628137 252.302924 
L 170.402775 251.000861 
L 171.01603 250.245343 
L 171.274243 249.97207 
L 172.145711 249.248702 
L 172.307094 249.152253 
L 172.662137 248.94328 
L 172.871934 248.846831 
L 173.146285 248.718232 
L 173.404498 248.621783 
L 173.630434 248.541408 
L 173.969338 248.444959 
L 174.179136 248.38066 
L 174.679423 248.284211 
L 174.873083 248.235986 
L 175.744551 248.139537 
L 175.905934 248.123462 
L 177.681146 248.043088 
L 178.423508 219.060129 
L 179.133593 199.91498 
L 179.811401 187.408744 
L 180.134167 181.3646 
L 180.150306 180.544782 
L 180.263274 188.308936 
L 180.473071 188.308936 
L 181.118603 206.505669 
L 181.699582 217.34012 
L 182.248284 223.882585 
L 182.764709 227.547651 
L 183.216582 229.235511 
L 183.603901 229.782056 
L 183.99122 229.685606 
L 184.297847 229.235511 
L 184.765858 228.062046 
L 185.362975 225.940166 
L 186.347411 221.567806 
L 188.526081 211.2799 
L 190.866134 202.406582 
L 192.302442 198.452168 
L 194.545665 194.224482 
L 194.949122 193.677937 
L 195.288026 193.243916 
L 197.579664 191.10596 
L 197.741047 191.009511 
L 198.176781 190.720164 
L 198.354303 190.623715 
L 198.693207 190.430817 
L 198.903005 190.334368 
L 199.193494 190.189694 
L 199.41943 190.093245 
L 199.693781 189.964646 
L 199.968132 189.868197 
L 200.210206 189.771748 
L 200.500696 189.675299 
L 200.726632 189.594924 
L 201.065536 189.498475 
L 201.275334 189.434176 
L 201.662653 189.337727 
L 201.872451 189.273427 
L 202.3566 189.176978 
L 202.550259 189.128754 
L 203.1151 189.032304 
L 203.292621 189.000155 
L 203.954291 188.903706 
L 204.131812 188.871556 
L 205.035557 188.775107 
L 205.213078 188.742957 
L 206.665525 188.646508 
L 206.826907 188.630433 
L 210.02229 188.533984 
L 210.183673 188.517909 
L 242.234327 188.550059 
L 242.944412 216.616751 
L 243.638359 235.842275 
L 244.300029 248.477109 
L 244.897146 256.273413 
L 245.461986 261.272692 
L 246.042965 264.551962 
L 246.607805 266.36842 
L 247.124231 267.156088 
L 247.285614 267.252537 
L 247.495411 267.316836 
L 247.850454 267.220387 
L 248.802613 266.127297 
L 251.223358 261.063719 
L 251.659092 260.099227 
L 254.257357 255.164248 
L 254.547846 254.730227 
L 254.98358 254.103307 
L 255.451591 253.492463 
L 255.774357 253.090592 
L 258.098271 250.920487 
L 258.243516 250.824038 
L 258.291931 250.791888 
L 258.308069 252.495822 
L 258.404899 252.302924 
L 259.179537 251.000861 
L 259.792792 250.245343 
L 260.051005 249.97207 
L 260.922473 249.248702 
L 261.083856 249.152253 
L 261.438898 248.94328 
L 261.648696 248.846831 
L 261.923047 248.718232 
L 262.18126 248.621783 
L 262.407196 248.541408 
L 262.7461 248.444959 
L 262.955898 248.38066 
L 263.456185 248.284211 
L 263.649845 248.235986 
L 264.521313 248.139537 
L 264.682696 248.123462 
L 266.457908 248.043088 
L 267.20027 204.560612 
L 267.732834 181.010953 
L 267.845802 188.308936 
L 268.055599 188.308936 
L 268.604301 192.247275 
L 268.975482 193.806536 
L 269.265972 194.513829 
L 269.556461 194.851401 
L 269.992195 194.754952 
L 270.347237 194.256632 
L 270.895939 192.922419 
L 271.670578 190.270068 
L 272.68729 185.769109 
L 273.042333 183.036384 
L 273.155301 180.030387 
L 273.268269 188.308936 
L 273.461928 188.308936 
L 273.574896 192.504473 
L 274.188152 211.681772 
L 274.704577 221.921453 
L 275.221003 228.013822 
L 275.656736 230.666172 
L 276.044056 231.502065 
L 276.205439 231.51814 
L 276.495928 231.084119 
L 276.738002 230.376825 
L 277.302843 227.67625 
L 278.061342 222.500147 
L 283.112629 181.653947 
L 283.144905 180.30366 
L 283.257874 188.308936 
L 283.467671 188.308936 
L 284.097065 208.579325 
L 284.661905 219.928171 
L 285.178331 226.004465 
L 285.630203 228.721115 
L 285.936831 229.492708 
L 286.162767 229.589157 
L 286.501671 229.106912 
L 287.001958 227.290453 
L 287.679766 223.352115 
L 288.21233 219.510225 
L 292.214627 188.501834 
L 292.763329 184.57957 
L 292.956989 182.023669 
L 293.005404 180.175061 
L 293.118372 188.308936 
L 293.312031 188.308936 
L 293.424999 192.343724 
L 294.022116 210.411858 
L 294.55468 220.603315 
L 295.022691 226.02054 
L 295.474563 228.785415 
L 295.781191 229.573082 
L 295.958712 229.701681 
L 296.120095 229.621307 
L 296.620382 228.383543 
L 297.169084 225.747268 
L 297.975999 220.281818 
L 302.075126 188.501834 
L 302.769072 182.92386 
L 302.865902 180.110761 
L 302.97887 188.308936 
L 303.17253 188.308936 
L 303.285498 192.343724 
L 303.882615 210.411858 
L 304.463593 221.294533 
L 304.947742 226.534935 
L 305.335061 228.785415 
L 305.641689 229.573082 
L 305.883763 229.669532 
L 306.01287 229.573082 
L 306.190391 229.251585 
L 306.448604 228.496067 
L 307.029582 225.731193 
L 307.852635 220.153219 
L 311.935624 188.501834 
L 312.629571 182.92386 
L 312.726401 180.078612 
L 312.839369 188.308936 
L 313.033028 188.308936 
L 313.145996 192.343724 
L 313.743113 210.395783 
L 314.275677 220.58724 
L 314.743687 226.004465 
L 315.19556 228.785415 
L 315.599017 229.653457 
L 315.7604 229.669532 
L 316.050889 229.251585 
L 316.583453 227.338678 
L 317.245123 223.496788 
L 318.40708 214.62347 
L 321.796122 188.485759 
L 322.344824 184.563495 
L 322.538484 181.991519 
L 322.586899 180.030387 
L 322.699867 188.308936 
L 322.893527 188.308936 
L 323.006495 192.343724 
L 323.603611 210.411858 
L 324.18459 221.294533 
L 324.668739 226.534935 
L 325.056058 228.785415 
L 325.362686 229.573082 
L 325.60476 229.685606 
L 325.927526 229.219436 
L 326.1696 228.496067 
L 326.443951 227.354753 
L 327.105622 223.512863 
L 328.267579 214.639545 
L 329.687749 202.904902 
L 331.011089 192.874194 
L 331.688897 228.640741 
L 332.334429 252.1904 
L 332.963823 267.718708 
L 333.544801 277.122496 
L 334.158057 283.182716 
L 334.658344 285.899366 
L 335.029524 286.928156 
L 335.320014 287.265728 
L 335.707333 287.169279 
L 336.046237 286.687033 
L 336.530386 285.48142 
L 337.192056 283.166641 
L 338.418566 277.82979 
L 339.741907 271.80172 
L 342.324034 261.96391 
L 343.760342 258.009497 
L 346.068118 253.653212 
L 346.487714 253.090592 
L 346.826618 252.656571 
L 347.343044 251.997502 
L 347.972437 250.984786 
L 348.569554 250.245343 
L 348.827767 249.97207 
L 349.699235 249.248702 
L 349.860618 249.152253 
L 350.21566 248.94328 
L 350.425458 248.846831 
L 350.699809 248.718232 
L 350.958022 248.621783 
L 351.183958 248.541408 
L 351.522862 248.444959 
L 351.73266 248.38066 
L 352.232947 248.284211 
L 352.426607 248.235986 
L 353.298075 248.139537 
L 353.459458 248.123462 
L 355.23467 248.043088 
L 355.783372 180.014312 
L 355.89634 188.308936 
L 356.09 188.308936 
L 356.202968 181.428899 
L 356.219106 179.644591 
L 356.235244 188.308936 
L 356.251383 188.308936 
L 356.525734 188.308936 
L 356.65484 186.444253 
L 356.896914 181.043103 
L 356.913053 179.950013 
L 357.026021 188.308936 
L 357.21968 188.308936 
L 357.348787 191.379233 
L 357.816797 199.91498 
L 358.204116 203.515747 
L 358.478467 204.528462 
L 358.63985 204.624911 
L 358.83351 204.287339 
L 359.091723 203.178175 
L 359.382212 201.184893 
L 360.043882 194.304856 
L 360.802382 183.229283 
L 360.883073 180.255435 
L 360.996041 188.308936 
L 361.189701 188.308936 
L 361.302669 191.041661 
L 361.77068 199.963204 
L 362.157999 203.821169 
L 362.464626 205.042858 
L 362.658286 205.107157 
L 362.803531 204.833884 
L 363.077882 203.676495 
L 363.368371 201.667139 
L 363.836381 197.053656 
L 364.465775 188.968005 
L 364.853094 182.280866 
L 364.901509 179.917863 
L 365.014477 188.308936 
L 365.208136 188.308936 
L 365.321105 191.025586 
L 365.772977 199.657782 
L 366.160296 203.596121 
L 366.483062 204.882109 
L 366.628306 204.978558 
L 366.644445 204.962483 
L 366.838104 204.624911 
L 367.080179 203.596121 
L 367.515913 200.349001 
L 368.032338 194.754952 
L 368.710147 185.351163 
L 368.887668 181.139552 
L 368.903806 180.126836 
L 369.016774 188.308936 
L 369.210434 188.308936 
L 369.323402 191.041661 
L 369.823689 200.349001 
L 370.211008 203.949768 
L 370.485359 204.946408 
L 370.630604 205.042858 
L 370.646742 205.026783 
L 370.727433 204.946408 
L 370.969508 204.22304 
L 371.372965 201.683213 
L 371.857114 196.941132 
L 372.712444 185.447612 
L 372.906103 180.544782 
L 373.019071 188.308936 
L 373.228869 188.308936 
L 373.729156 198.854039 
L 374.132614 203.322848 
L 374.423103 204.75351 
L 374.616763 204.994633 
L 374.729731 204.914259 
L 374.971805 204.206965 
L 375.391401 201.554615 
L 375.859411 196.973282 
L 376.730879 185.238639 
L 376.908401 180.80198 
L 377.021369 188.308936 
L 377.231166 188.308936 
L 377.731454 198.886189 
L 378.151049 203.499672 
L 378.457677 204.898184 
L 378.651336 205.058932 
L 378.844996 204.737435 
L 379.103209 203.644345 
L 379.538943 200.38115 
L 380.055368 194.771027 
L 380.846145 183.181058 
L 380.926836 180.062537 
L 381.039804 188.308936 
L 381.233464 188.308936 
L 381.346432 191.025586 
L 381.814442 199.91498 
L 382.234038 203.933693 
L 382.556804 204.994633 
L 382.750463 204.914259 
L 382.992538 204.19089 
L 383.395995 201.651064 
L 383.880144 196.908982 
L 384.735474 185.399388 
L 384.929133 180.400109 
L 385.042101 188.308936 
L 385.251899 188.308936 
L 385.752186 198.837964 
L 386.123367 203.081726 
L 386.47841 204.81781 
L 386.672069 204.978558 
L 386.865729 204.640986 
L 387.123941 203.547896 
L 387.559675 200.284701 
L 388.285899 191.974002 
L 388.850739 183.390031 
L 388.93143 180.721606 
L 389.044398 188.308936 
L 389.254196 188.308936 
L 389.754483 198.886189 
L 390.157941 203.371073 
L 390.480707 204.882109 
L 390.658228 205.058932 
L 390.674366 205.042858 
L 390.771196 204.946408 
L 390.997132 204.271265 
L 391.416728 201.634989 
L 391.884738 197.037581 
L 392.53027 188.742957 
L 392.901451 182.313016 
L 392.949866 180.014312 
L 393.062834 188.308936 
L 393.256494 188.308936 
L 393.369462 191.025586 
L 393.821334 199.689932 
L 394.257068 203.917618 
L 394.531419 204.914259 
L 394.676664 205.010708 
L 394.692802 204.994633 
L 394.773493 204.914259 
L 394.999429 204.25519 
L 395.419025 201.651064 
L 396.096833 194.594203 
L 396.758504 185.399388 
L 396.952163 180.351884 
L 397.065131 188.308936 
L 397.274929 188.308936 
L 397.775216 198.837964 
L 398.178674 203.306773 
L 398.501439 204.801735 
L 398.695099 204.962483 
L 398.888759 204.624911 
L 399.146971 203.531821 
L 399.566567 200.4133 
L 400.325067 191.748955 
L 400.922184 182.055818 
L 400.95446 180.625157 
L 401.067428 188.308936 
L 401.277226 188.308936 
L 401.777513 198.870114 
L 402.180971 203.354998 
L 402.503737 204.866034 
L 402.697396 205.026783 
L 402.891056 204.705286 
L 403.149268 203.612196 
L 403.585002 200.349001 
L 404.311226 192.054377 
L 404.924481 182.248717 
L 404.972896 179.837489 
L 405.085864 188.308936 
L 405.279523 188.308936 
L 405.392492 191.025586 
L 405.844364 199.673857 
L 406.231683 203.596121 
L 406.506034 204.801735 
L 406.715832 204.978558 
L 406.893353 204.673136 
L 407.167704 203.515747 
L 407.5873 200.365075 
L 408.329661 191.877553 
L 408.894502 183.213208 
L 408.975193 180.191136 
L 409.088161 188.308936 
L 409.281821 188.308936 
L 409.394789 191.041661 
L 409.895076 200.365075 
L 410.314672 204.142666 
L 410.605161 205.026783 
L 410.734267 205.026783 
L 410.911788 204.705286 
L 411.153863 203.676495 
L 411.589597 200.44545 
L 412.106022 194.851401 
L 412.783831 185.463687 
L 412.97749 180.609082 
L 413.090458 188.308936 
L 413.300256 188.308936 
L 413.800543 198.854039 
L 414.204001 203.338923 
L 414.526767 204.849959 
L 414.720426 205.010708 
L 414.914086 204.673136 
L 415.172298 203.580046 
L 415.608032 200.316851 
L 416.124458 194.706727 
L 416.915234 183.068534 
L 416.995926 179.644591 
L 417.108894 188.308936 
L 417.302553 188.308936 
L 417.415521 191.025586 
L 417.867394 199.657782 
L 418.254713 203.580046 
L 418.529064 204.78566 
L 418.722723 204.962483 
L 418.932521 204.608837 
L 419.174596 203.580046 
L 419.61033 200.332926 
L 419.787851 198.596842 
L 420.449521 269.535166 
L 421.078914 314.609052 
L 421.659893 341.614805 
L 422.208595 357.36816 
L 422.660467 364.891191 
L 423.047786 368.250835 
L 423.322137 369.231401 
L 423.48352 369.36 
L 423.499659 369.343925 
L 423.596488 369.247476 
L 423.709457 369.006353 
L 423.999946 367.816814 
L 424.484095 364.296421 
L 425.113488 357.673582 
L 425.75902 349.411108 
L 429.196477 302.986934 
L 430.858721 285.97974 
L 431.907711 277.572592 
L 433.150359 269.67984 
L 433.892721 265.902249 
L 434.683497 262.52653 
L 435.587242 259.375859 
L 435.845455 258.604266 
L 435.845455 258.604266 
" style="fill:none;stroke:#ff0000;stroke-linecap:square;stroke-width:1.5;"/>
   </g>
   <g id="patch_3">
    <path d="M 63 384.48 
L 63 51.84 
" style="fill:none;stroke:#000000;stroke-linecap:square;stroke-linejoin:miter;stroke-width:0.8;"/>
   </g>
   <g id="patch_4">
    <path d="M 453.6 384.48 
L 453.6 51.84 
" style="fill:none;stroke:#000000;stroke-linecap:square;stroke-linejoin:miter;stroke-width:0.8;"/>
   </g>
   <g id="patch_5">
    <path d="M 63 384.48 
L 453.6 384.48 
" style="fill:none;stroke:#000000;stroke-linecap:square;stroke-linejoin:miter;stroke-width:0.8;"/>
   </g>
   <g id="patch_6">
    <path d="M 63 51.84 
L 453.6 51.84 
" style="fill:none;stroke:#000000;stroke-linecap:square;stroke-linejoin:miter;stroke-width:0.8;"/>
   </g>
   <g id="legend_1">
    <g id="patch_7">
     <path d="M 70 89.19625 
L 133.139062 89.19625 
Q 135.139062 89.19625 135.139062 87.19625 
L 135.139062 58.84 
Q 135.139062 56.84 133.139062 56.84 
L 70 56.84 
Q 68 56.84 68 58.84 
L 68 87.19625 
Q 68 89.19625 70 89.19625 
z
" style="fill:#ffffff;opacity:0.8;stroke:#cccccc;stroke-linejoin:miter;"/>
    </g>
    <g id="line2d_16">
     <path d="M 72 64.938437 
L 92 64.938437 
" style="fill:none;stroke:#1f77b4;stroke-linecap:square;stroke-width:1.5;"/>
    </g>
    <g id="line2d_17"/>
    <g id="text_16">
     <!-- target -->
     <defs>
      <path d="M 41.109375 46.296875 
Q 39.59375 47.171875 37.8125 47.578125 
Q 36.03125 48 33.890625 48 
Q 26.265625 48 22.1875 43.046875 
Q 18.109375 38.09375 18.109375 28.8125 
L 18.109375 0 
L 9.078125 0 
L 9.078125 54.6875 
L 18.109375 54.6875 
L 18.109375 46.1875 
Q 20.953125 51.171875 25.484375 53.578125 
Q 30.03125 56 36.53125 56 
Q 37.453125 56 38.578125 55.875 
Q 39.703125 55.765625 41.0625 55.515625 
z
" id="DejaVuSans-114"/>
     </defs>
     <g transform="translate(100 68.438437)scale(0.1 -0.1)">
      <use xlink:href="#DejaVuSans-116"/>
      <use x="39.208984" xlink:href="#DejaVuSans-97"/>
      <use x="100.488281" xlink:href="#DejaVuSans-114"/>
      <use x="141.585938" xlink:href="#DejaVuSans-103"/>
      <use x="205.0625" xlink:href="#DejaVuSans-101"/>
      <use x="266.585938" xlink:href="#DejaVuSans-116"/>
     </g>
    </g>
    <g id="line2d_18">
     <path d="M 72 79.616562 
L 92 79.616562 
" style="fill:none;stroke:#ff0000;stroke-linecap:square;stroke-width:1.5;"/>
    </g>
    <g id="line2d_19"/>
    <g id="text_17">
     <!-- model -->
     <defs>
      <path d="M 45.40625 46.390625 
L 45.40625 75.984375 
L 54.390625 75.984375 
L 54.390625 0 
L 45.40625 0 
L 45.40625 8.203125 
Q 42.578125 3.328125 38.25 0.953125 
Q 33.9375 -1.421875 27.875 -1.421875 
Q 17.96875 -1.421875 11.734375 6.484375 
Q 5.515625 14.40625 5.515625 27.296875 
Q 5.515625 40.1875 11.734375 48.09375 
Q 17.96875 56 27.875 56 
Q 33.9375 56 38.25 53.625 
Q 42.578125 51.265625 45.40625 46.390625 
z
M 14.796875 27.296875 
Q 14.796875 17.390625 18.875 11.75 
Q 22.953125 6.109375 30.078125 6.109375 
Q 37.203125 6.109375 41.296875 11.75 
Q 45.40625 17.390625 45.40625 27.296875 
Q 45.40625 37.203125 41.296875 42.84375 
Q 37.203125 48.484375 30.078125 48.484375 
Q 22.953125 48.484375 18.875 42.84375 
Q 14.796875 37.203125 14.796875 27.296875 
z
" id="DejaVuSans-100"/>
     </defs>
     <g transform="translate(100 83.116562)scale(0.1 -0.1)">
      <use xlink:href="#DejaVuSans-109"/>
      <use x="97.412109" xlink:href="#DejaVuSans-111"/>
      <use x="158.59375" xlink:href="#DejaVuSans-100"/>
      <use x="222.070312" xlink:href="#DejaVuSans-101"/>
      <use x="283.59375" xlink:href="#DejaVuSans-108"/>
     </g>
    </g>
   </g>
  </g>
 </g>
 <defs>
  <clipPath id="p6db197e354">
   <rect height="332.64" width="390.6" x="63" y="51.84"/>
  </clipPath>
 </defs>
</svg>
