<?xml version="1.0" encoding="utf-8" standalone="no"?>
<!DOCTYPE svg PUBLIC "-//W3C//DTD SVG 1.1//EN"
  "http://www.w3.org/Graphics/SVG/1.1/DTD/svg11.dtd">
<!-- Created with matplotlib (https://matplotlib.org/) -->
<svg height="432pt" version="1.1" viewBox="0 0 504 432" width="504pt" xmlns="http://www.w3.org/2000/svg" xmlns:xlink="http://www.w3.org/1999/xlink">
 <defs>
  <style type="text/css">
*{stroke-linecap:butt;stroke-linejoin:round;}
  </style>
 </defs>
 <g id="figure_1">
  <g id="patch_1">
   <path d="M 0 432 
L 504 432 
L 504 0 
L 0 0 
z
" style="fill:#ffffff;"/>
  </g>
  <g id="axes_1">
   <g id="patch_2">
    <path d="M 63 384.48 
L 453.6 384.48 
L 453.6 51.84 
L 63 51.84 
z
" style="fill:#ffffff;"/>
   </g>
   <g id="matplotlib.axis_1">
    <g id="xtick_1">
     <g id="line2d_1">
      <defs>
       <path d="M 0 0 
L 0 3.5 
" id="mb2d1f7f9cd" style="stroke:#000000;stroke-width:0.8;"/>
      </defs>
      <g>
       <use style="stroke:#000000;stroke-width:0.8;" x="80.754545" xlink:href="#mb2d1f7f9cd" y="384.48"/>
      </g>
     </g>
     <g id="text_1">
      <!-- 0 -->
      <defs>
       <path d="M 31.78125 66.40625 
Q 24.171875 66.40625 20.328125 58.90625 
Q 16.5 51.421875 16.5 36.375 
Q 16.5 21.390625 20.328125 13.890625 
Q 24.171875 6.390625 31.78125 6.390625 
Q 39.453125 6.390625 43.28125 13.890625 
Q 47.125 21.390625 47.125 36.375 
Q 47.125 51.421875 43.28125 58.90625 
Q 39.453125 66.40625 31.78125 66.40625 
z
M 31.78125 74.21875 
Q 44.046875 74.21875 50.515625 64.515625 
Q 56.984375 54.828125 56.984375 36.375 
Q 56.984375 17.96875 50.515625 8.265625 
Q 44.046875 -1.421875 31.78125 -1.421875 
Q 19.53125 -1.421875 13.0625 8.265625 
Q 6.59375 17.96875 6.59375 36.375 
Q 6.59375 54.828125 13.0625 64.515625 
Q 19.53125 74.21875 31.78125 74.21875 
z
" id="DejaVuSans-48"/>
      </defs>
      <g transform="translate(77.573295 399.078438)scale(0.1 -0.1)">
       <use xlink:href="#DejaVuSans-48"/>
      </g>
     </g>
    </g>
    <g id="xtick_2">
     <g id="line2d_2">
      <g>
       <use style="stroke:#000000;stroke-width:0.8;" x="151.767796" xlink:href="#mb2d1f7f9cd" y="384.48"/>
      </g>
     </g>
     <g id="text_2">
      <!-- 720 -->
      <defs>
       <path d="M 8.203125 72.90625 
L 55.078125 72.90625 
L 55.078125 68.703125 
L 28.609375 0 
L 18.3125 0 
L 43.21875 64.59375 
L 8.203125 64.59375 
z
" id="DejaVuSans-55"/>
       <path d="M 19.1875 8.296875 
L 53.609375 8.296875 
L 53.609375 0 
L 7.328125 0 
L 7.328125 8.296875 
Q 12.9375 14.109375 22.625 23.890625 
Q 32.328125 33.6875 34.8125 36.53125 
Q 39.546875 41.84375 41.421875 45.53125 
Q 43.3125 49.21875 43.3125 52.78125 
Q 43.3125 58.59375 39.234375 62.25 
Q 35.15625 65.921875 28.609375 65.921875 
Q 23.96875 65.921875 18.8125 64.3125 
Q 13.671875 62.703125 7.8125 59.421875 
L 7.8125 69.390625 
Q 13.765625 71.78125 18.9375 73 
Q 24.125 74.21875 28.421875 74.21875 
Q 39.75 74.21875 46.484375 68.546875 
Q 53.21875 62.890625 53.21875 53.421875 
Q 53.21875 48.921875 51.53125 44.890625 
Q 49.859375 40.875 45.40625 35.40625 
Q 44.1875 33.984375 37.640625 27.21875 
Q 31.109375 20.453125 19.1875 8.296875 
z
" id="DejaVuSans-50"/>
      </defs>
      <g transform="translate(142.224046 399.078438)scale(0.1 -0.1)">
       <use xlink:href="#DejaVuSans-55"/>
       <use x="63.623047" xlink:href="#DejaVuSans-50"/>
       <use x="127.246094" xlink:href="#DejaVuSans-48"/>
      </g>
     </g>
    </g>
    <g id="xtick_3">
     <g id="line2d_3">
      <g>
       <use style="stroke:#000000;stroke-width:0.8;" x="222.781046" xlink:href="#mb2d1f7f9cd" y="384.48"/>
      </g>
     </g>
     <g id="text_3">
      <!-- 1440 -->
      <defs>
       <path d="M 12.40625 8.296875 
L 28.515625 8.296875 
L 28.515625 63.921875 
L 10.984375 60.40625 
L 10.984375 69.390625 
L 28.421875 72.90625 
L 38.28125 72.90625 
L 38.28125 8.296875 
L 54.390625 8.296875 
L 54.390625 0 
L 12.40625 0 
z
" id="DejaVuSans-49"/>
       <path d="M 37.796875 64.3125 
L 12.890625 25.390625 
L 37.796875 25.390625 
z
M 35.203125 72.90625 
L 47.609375 72.90625 
L 47.609375 25.390625 
L 58.015625 25.390625 
L 58.015625 17.1875 
L 47.609375 17.1875 
L 47.609375 0 
L 37.796875 0 
L 37.796875 17.1875 
L 4.890625 17.1875 
L 4.890625 26.703125 
z
" id="DejaVuSans-52"/>
      </defs>
      <g transform="translate(210.056046 399.078438)scale(0.1 -0.1)">
       <use xlink:href="#DejaVuSans-49"/>
       <use x="63.623047" xlink:href="#DejaVuSans-52"/>
       <use x="127.246094" xlink:href="#DejaVuSans-52"/>
       <use x="190.869141" xlink:href="#DejaVuSans-48"/>
      </g>
     </g>
    </g>
    <g id="xtick_4">
     <g id="line2d_4">
      <g>
       <use style="stroke:#000000;stroke-width:0.8;" x="293.794296" xlink:href="#mb2d1f7f9cd" y="384.48"/>
      </g>
     </g>
     <g id="text_4">
      <!-- 2160 -->
      <defs>
       <path d="M 33.015625 40.375 
Q 26.375 40.375 22.484375 35.828125 
Q 18.609375 31.296875 18.609375 23.390625 
Q 18.609375 15.53125 22.484375 10.953125 
Q 26.375 6.390625 33.015625 6.390625 
Q 39.65625 6.390625 43.53125 10.953125 
Q 47.40625 15.53125 47.40625 23.390625 
Q 47.40625 31.296875 43.53125 35.828125 
Q 39.65625 40.375 33.015625 40.375 
z
M 52.59375 71.296875 
L 52.59375 62.3125 
Q 48.875 64.0625 45.09375 64.984375 
Q 41.3125 65.921875 37.59375 65.921875 
Q 27.828125 65.921875 22.671875 59.328125 
Q 17.53125 52.734375 16.796875 39.40625 
Q 19.671875 43.65625 24.015625 45.921875 
Q 28.375 48.1875 33.59375 48.1875 
Q 44.578125 48.1875 50.953125 41.515625 
Q 57.328125 34.859375 57.328125 23.390625 
Q 57.328125 12.15625 50.6875 5.359375 
Q 44.046875 -1.421875 33.015625 -1.421875 
Q 20.359375 -1.421875 13.671875 8.265625 
Q 6.984375 17.96875 6.984375 36.375 
Q 6.984375 53.65625 15.1875 63.9375 
Q 23.390625 74.21875 37.203125 74.21875 
Q 40.921875 74.21875 44.703125 73.484375 
Q 48.484375 72.75 52.59375 71.296875 
z
" id="DejaVuSans-54"/>
      </defs>
      <g transform="translate(281.069296 399.078438)scale(0.1 -0.1)">
       <use xlink:href="#DejaVuSans-50"/>
       <use x="63.623047" xlink:href="#DejaVuSans-49"/>
       <use x="127.246094" xlink:href="#DejaVuSans-54"/>
       <use x="190.869141" xlink:href="#DejaVuSans-48"/>
      </g>
     </g>
    </g>
    <g id="xtick_5">
     <g id="line2d_5">
      <g>
       <use style="stroke:#000000;stroke-width:0.8;" x="364.807547" xlink:href="#mb2d1f7f9cd" y="384.48"/>
      </g>
     </g>
     <g id="text_5">
      <!-- 2880 -->
      <defs>
       <path d="M 31.78125 34.625 
Q 24.75 34.625 20.71875 30.859375 
Q 16.703125 27.09375 16.703125 20.515625 
Q 16.703125 13.921875 20.71875 10.15625 
Q 24.75 6.390625 31.78125 6.390625 
Q 38.8125 6.390625 42.859375 10.171875 
Q 46.921875 13.96875 46.921875 20.515625 
Q 46.921875 27.09375 42.890625 30.859375 
Q 38.875 34.625 31.78125 34.625 
z
M 21.921875 38.8125 
Q 15.578125 40.375 12.03125 44.71875 
Q 8.5 49.078125 8.5 55.328125 
Q 8.5 64.0625 14.71875 69.140625 
Q 20.953125 74.21875 31.78125 74.21875 
Q 42.671875 74.21875 48.875 69.140625 
Q 55.078125 64.0625 55.078125 55.328125 
Q 55.078125 49.078125 51.53125 44.71875 
Q 48 40.375 41.703125 38.8125 
Q 48.828125 37.15625 52.796875 32.3125 
Q 56.78125 27.484375 56.78125 20.515625 
Q 56.78125 9.90625 50.3125 4.234375 
Q 43.84375 -1.421875 31.78125 -1.421875 
Q 19.734375 -1.421875 13.25 4.234375 
Q 6.78125 9.90625 6.78125 20.515625 
Q 6.78125 27.484375 10.78125 32.3125 
Q 14.796875 37.15625 21.921875 38.8125 
z
M 18.3125 54.390625 
Q 18.3125 48.734375 21.84375 45.5625 
Q 25.390625 42.390625 31.78125 42.390625 
Q 38.140625 42.390625 41.71875 45.5625 
Q 45.3125 48.734375 45.3125 54.390625 
Q 45.3125 60.0625 41.71875 63.234375 
Q 38.140625 66.40625 31.78125 66.40625 
Q 25.390625 66.40625 21.84375 63.234375 
Q 18.3125 60.0625 18.3125 54.390625 
z
" id="DejaVuSans-56"/>
      </defs>
      <g transform="translate(352.082547 399.078438)scale(0.1 -0.1)">
       <use xlink:href="#DejaVuSans-50"/>
       <use x="63.623047" xlink:href="#DejaVuSans-56"/>
       <use x="127.246094" xlink:href="#DejaVuSans-56"/>
       <use x="190.869141" xlink:href="#DejaVuSans-48"/>
      </g>
     </g>
    </g>
    <g id="text_6">
     <!-- time [ms] -->
     <defs>
      <path d="M 18.3125 70.21875 
L 18.3125 54.6875 
L 36.8125 54.6875 
L 36.8125 47.703125 
L 18.3125 47.703125 
L 18.3125 18.015625 
Q 18.3125 11.328125 20.140625 9.421875 
Q 21.96875 7.515625 27.59375 7.515625 
L 36.8125 7.515625 
L 36.8125 0 
L 27.59375 0 
Q 17.1875 0 13.234375 3.875 
Q 9.28125 7.765625 9.28125 18.015625 
L 9.28125 47.703125 
L 2.6875 47.703125 
L 2.6875 54.6875 
L 9.28125 54.6875 
L 9.28125 70.21875 
z
" id="DejaVuSans-116"/>
      <path d="M 9.421875 54.6875 
L 18.40625 54.6875 
L 18.40625 0 
L 9.421875 0 
z
M 9.421875 75.984375 
L 18.40625 75.984375 
L 18.40625 64.59375 
L 9.421875 64.59375 
z
" id="DejaVuSans-105"/>
      <path d="M 52 44.1875 
Q 55.375 50.25 60.0625 53.125 
Q 64.75 56 71.09375 56 
Q 79.640625 56 84.28125 50.015625 
Q 88.921875 44.046875 88.921875 33.015625 
L 88.921875 0 
L 79.890625 0 
L 79.890625 32.71875 
Q 79.890625 40.578125 77.09375 44.375 
Q 74.3125 48.1875 68.609375 48.1875 
Q 61.625 48.1875 57.5625 43.546875 
Q 53.515625 38.921875 53.515625 30.90625 
L 53.515625 0 
L 44.484375 0 
L 44.484375 32.71875 
Q 44.484375 40.625 41.703125 44.40625 
Q 38.921875 48.1875 33.109375 48.1875 
Q 26.21875 48.1875 22.15625 43.53125 
Q 18.109375 38.875 18.109375 30.90625 
L 18.109375 0 
L 9.078125 0 
L 9.078125 54.6875 
L 18.109375 54.6875 
L 18.109375 46.1875 
Q 21.1875 51.21875 25.484375 53.609375 
Q 29.78125 56 35.6875 56 
Q 41.65625 56 45.828125 52.96875 
Q 50 49.953125 52 44.1875 
z
" id="DejaVuSans-109"/>
      <path d="M 56.203125 29.59375 
L 56.203125 25.203125 
L 14.890625 25.203125 
Q 15.484375 15.921875 20.484375 11.0625 
Q 25.484375 6.203125 34.421875 6.203125 
Q 39.59375 6.203125 44.453125 7.46875 
Q 49.3125 8.734375 54.109375 11.28125 
L 54.109375 2.78125 
Q 49.265625 0.734375 44.1875 -0.34375 
Q 39.109375 -1.421875 33.890625 -1.421875 
Q 20.796875 -1.421875 13.15625 6.1875 
Q 5.515625 13.8125 5.515625 26.8125 
Q 5.515625 40.234375 12.765625 48.109375 
Q 20.015625 56 32.328125 56 
Q 43.359375 56 49.78125 48.890625 
Q 56.203125 41.796875 56.203125 29.59375 
z
M 47.21875 32.234375 
Q 47.125 39.59375 43.09375 43.984375 
Q 39.0625 48.390625 32.421875 48.390625 
Q 24.90625 48.390625 20.390625 44.140625 
Q 15.875 39.890625 15.1875 32.171875 
z
" id="DejaVuSans-101"/>
      <path id="DejaVuSans-32"/>
      <path d="M 8.59375 75.984375 
L 29.296875 75.984375 
L 29.296875 69 
L 17.578125 69 
L 17.578125 -6.203125 
L 29.296875 -6.203125 
L 29.296875 -13.1875 
L 8.59375 -13.1875 
z
" id="DejaVuSans-91"/>
      <path d="M 44.28125 53.078125 
L 44.28125 44.578125 
Q 40.484375 46.53125 36.375 47.5 
Q 32.28125 48.484375 27.875 48.484375 
Q 21.1875 48.484375 17.84375 46.4375 
Q 14.5 44.390625 14.5 40.28125 
Q 14.5 37.15625 16.890625 35.375 
Q 19.28125 33.59375 26.515625 31.984375 
L 29.59375 31.296875 
Q 39.15625 29.25 43.1875 25.515625 
Q 47.21875 21.78125 47.21875 15.09375 
Q 47.21875 7.46875 41.1875 3.015625 
Q 35.15625 -1.421875 24.609375 -1.421875 
Q 20.21875 -1.421875 15.453125 -0.5625 
Q 10.6875 0.296875 5.421875 2 
L 5.421875 11.28125 
Q 10.40625 8.6875 15.234375 7.390625 
Q 20.0625 6.109375 24.8125 6.109375 
Q 31.15625 6.109375 34.5625 8.28125 
Q 37.984375 10.453125 37.984375 14.40625 
Q 37.984375 18.0625 35.515625 20.015625 
Q 33.0625 21.96875 24.703125 23.78125 
L 21.578125 24.515625 
Q 13.234375 26.265625 9.515625 29.90625 
Q 5.8125 33.546875 5.8125 39.890625 
Q 5.8125 47.609375 11.28125 51.796875 
Q 16.75 56 26.8125 56 
Q 31.78125 56 36.171875 55.265625 
Q 40.578125 54.546875 44.28125 53.078125 
z
" id="DejaVuSans-115"/>
      <path d="M 30.421875 75.984375 
L 30.421875 -13.1875 
L 9.71875 -13.1875 
L 9.71875 -6.203125 
L 21.390625 -6.203125 
L 21.390625 69 
L 9.71875 69 
L 9.71875 75.984375 
z
" id="DejaVuSans-93"/>
     </defs>
     <g transform="translate(234.038281 412.756563)scale(0.1 -0.1)">
      <use xlink:href="#DejaVuSans-116"/>
      <use x="39.208984" xlink:href="#DejaVuSans-105"/>
      <use x="66.992188" xlink:href="#DejaVuSans-109"/>
      <use x="164.404297" xlink:href="#DejaVuSans-101"/>
      <use x="225.927734" xlink:href="#DejaVuSans-32"/>
      <use x="257.714844" xlink:href="#DejaVuSans-91"/>
      <use x="296.728516" xlink:href="#DejaVuSans-109"/>
      <use x="394.140625" xlink:href="#DejaVuSans-115"/>
      <use x="446.240234" xlink:href="#DejaVuSans-93"/>
     </g>
    </g>
   </g>
   <g id="matplotlib.axis_2">
    <g id="ytick_1">
     <g id="line2d_6">
      <defs>
       <path d="M 0 0 
L -3.5 0 
" id="m4a02db58cb" style="stroke:#000000;stroke-width:0.8;"/>
      </defs>
      <g>
       <use style="stroke:#000000;stroke-width:0.8;" x="63" xlink:href="#m4a02db58cb" y="366.269122"/>
      </g>
     </g>
     <g id="text_7">
      <!-- −80 -->
      <defs>
       <path d="M 10.59375 35.5 
L 73.1875 35.5 
L 73.1875 27.203125 
L 10.59375 27.203125 
z
" id="DejaVuSans-8722"/>
      </defs>
      <g transform="translate(34.895313 370.068341)scale(0.1 -0.1)">
       <use xlink:href="#DejaVuSans-8722"/>
       <use x="83.789062" xlink:href="#DejaVuSans-56"/>
       <use x="147.412109" xlink:href="#DejaVuSans-48"/>
      </g>
     </g>
    </g>
    <g id="ytick_2">
     <g id="line2d_7">
      <g>
       <use style="stroke:#000000;stroke-width:0.8;" x="63" xlink:href="#m4a02db58cb" y="313.538701"/>
      </g>
     </g>
     <g id="text_8">
      <!-- −60 -->
      <g transform="translate(34.895313 317.337919)scale(0.1 -0.1)">
       <use xlink:href="#DejaVuSans-8722"/>
       <use x="83.789062" xlink:href="#DejaVuSans-54"/>
       <use x="147.412109" xlink:href="#DejaVuSans-48"/>
      </g>
     </g>
    </g>
    <g id="ytick_3">
     <g id="line2d_8">
      <g>
       <use style="stroke:#000000;stroke-width:0.8;" x="63" xlink:href="#m4a02db58cb" y="260.808279"/>
      </g>
     </g>
     <g id="text_9">
      <!-- −40 -->
      <g transform="translate(34.895313 264.607498)scale(0.1 -0.1)">
       <use xlink:href="#DejaVuSans-8722"/>
       <use x="83.789062" xlink:href="#DejaVuSans-52"/>
       <use x="147.412109" xlink:href="#DejaVuSans-48"/>
      </g>
     </g>
    </g>
    <g id="ytick_4">
     <g id="line2d_9">
      <g>
       <use style="stroke:#000000;stroke-width:0.8;" x="63" xlink:href="#m4a02db58cb" y="208.077857"/>
      </g>
     </g>
     <g id="text_10">
      <!-- −20 -->
      <g transform="translate(34.895313 211.877076)scale(0.1 -0.1)">
       <use xlink:href="#DejaVuSans-8722"/>
       <use x="83.789062" xlink:href="#DejaVuSans-50"/>
       <use x="147.412109" xlink:href="#DejaVuSans-48"/>
      </g>
     </g>
    </g>
    <g id="ytick_5">
     <g id="line2d_10">
      <g>
       <use style="stroke:#000000;stroke-width:0.8;" x="63" xlink:href="#m4a02db58cb" y="155.347435"/>
      </g>
     </g>
     <g id="text_11">
      <!-- 0 -->
      <g transform="translate(49.6375 159.146654)scale(0.1 -0.1)">
       <use xlink:href="#DejaVuSans-48"/>
      </g>
     </g>
    </g>
    <g id="ytick_6">
     <g id="line2d_11">
      <g>
       <use style="stroke:#000000;stroke-width:0.8;" x="63" xlink:href="#m4a02db58cb" y="102.617014"/>
      </g>
     </g>
     <g id="text_12">
      <!-- 20 -->
      <g transform="translate(43.275 106.416233)scale(0.1 -0.1)">
       <use xlink:href="#DejaVuSans-50"/>
       <use x="63.623047" xlink:href="#DejaVuSans-48"/>
      </g>
     </g>
    </g>
    <g id="text_13">
     <!-- Voltage [mV] -->
     <defs>
      <path d="M 28.609375 0 
L 0.78125 72.90625 
L 11.078125 72.90625 
L 34.1875 11.53125 
L 57.328125 72.90625 
L 67.578125 72.90625 
L 39.796875 0 
z
" id="DejaVuSans-86"/>
      <path d="M 30.609375 48.390625 
Q 23.390625 48.390625 19.1875 42.75 
Q 14.984375 37.109375 14.984375 27.296875 
Q 14.984375 17.484375 19.15625 11.84375 
Q 23.34375 6.203125 30.609375 6.203125 
Q 37.796875 6.203125 41.984375 11.859375 
Q 46.1875 17.53125 46.1875 27.296875 
Q 46.1875 37.015625 41.984375 42.703125 
Q 37.796875 48.390625 30.609375 48.390625 
z
M 30.609375 56 
Q 42.328125 56 49.015625 48.375 
Q 55.71875 40.765625 55.71875 27.296875 
Q 55.71875 13.875 49.015625 6.21875 
Q 42.328125 -1.421875 30.609375 -1.421875 
Q 18.84375 -1.421875 12.171875 6.21875 
Q 5.515625 13.875 5.515625 27.296875 
Q 5.515625 40.765625 12.171875 48.375 
Q 18.84375 56 30.609375 56 
z
" id="DejaVuSans-111"/>
      <path d="M 9.421875 75.984375 
L 18.40625 75.984375 
L 18.40625 0 
L 9.421875 0 
z
" id="DejaVuSans-108"/>
      <path d="M 34.28125 27.484375 
Q 23.390625 27.484375 19.1875 25 
Q 14.984375 22.515625 14.984375 16.5 
Q 14.984375 11.71875 18.140625 8.90625 
Q 21.296875 6.109375 26.703125 6.109375 
Q 34.1875 6.109375 38.703125 11.40625 
Q 43.21875 16.703125 43.21875 25.484375 
L 43.21875 27.484375 
z
M 52.203125 31.203125 
L 52.203125 0 
L 43.21875 0 
L 43.21875 8.296875 
Q 40.140625 3.328125 35.546875 0.953125 
Q 30.953125 -1.421875 24.3125 -1.421875 
Q 15.921875 -1.421875 10.953125 3.296875 
Q 6 8.015625 6 15.921875 
Q 6 25.140625 12.171875 29.828125 
Q 18.359375 34.515625 30.609375 34.515625 
L 43.21875 34.515625 
L 43.21875 35.40625 
Q 43.21875 41.609375 39.140625 45 
Q 35.0625 48.390625 27.6875 48.390625 
Q 23 48.390625 18.546875 47.265625 
Q 14.109375 46.140625 10.015625 43.890625 
L 10.015625 52.203125 
Q 14.9375 54.109375 19.578125 55.046875 
Q 24.21875 56 28.609375 56 
Q 40.484375 56 46.34375 49.84375 
Q 52.203125 43.703125 52.203125 31.203125 
z
" id="DejaVuSans-97"/>
      <path d="M 45.40625 27.984375 
Q 45.40625 37.75 41.375 43.109375 
Q 37.359375 48.484375 30.078125 48.484375 
Q 22.859375 48.484375 18.828125 43.109375 
Q 14.796875 37.75 14.796875 27.984375 
Q 14.796875 18.265625 18.828125 12.890625 
Q 22.859375 7.515625 30.078125 7.515625 
Q 37.359375 7.515625 41.375 12.890625 
Q 45.40625 18.265625 45.40625 27.984375 
z
M 54.390625 6.78125 
Q 54.390625 -7.171875 48.1875 -13.984375 
Q 42 -20.796875 29.203125 -20.796875 
Q 24.46875 -20.796875 20.265625 -20.09375 
Q 16.0625 -19.390625 12.109375 -17.921875 
L 12.109375 -9.1875 
Q 16.0625 -11.328125 19.921875 -12.34375 
Q 23.78125 -13.375 27.78125 -13.375 
Q 36.625 -13.375 41.015625 -8.765625 
Q 45.40625 -4.15625 45.40625 5.171875 
L 45.40625 9.625 
Q 42.625 4.78125 38.28125 2.390625 
Q 33.9375 0 27.875 0 
Q 17.828125 0 11.671875 7.65625 
Q 5.515625 15.328125 5.515625 27.984375 
Q 5.515625 40.671875 11.671875 48.328125 
Q 17.828125 56 27.875 56 
Q 33.9375 56 38.28125 53.609375 
Q 42.625 51.21875 45.40625 46.390625 
L 45.40625 54.6875 
L 54.390625 54.6875 
z
" id="DejaVuSans-103"/>
     </defs>
     <g transform="translate(28.815625 251.079531)rotate(-90)scale(0.1 -0.1)">
      <use xlink:href="#DejaVuSans-86"/>
      <use x="68.298828" xlink:href="#DejaVuSans-111"/>
      <use x="129.480469" xlink:href="#DejaVuSans-108"/>
      <use x="157.263672" xlink:href="#DejaVuSans-116"/>
      <use x="196.472656" xlink:href="#DejaVuSans-97"/>
      <use x="257.751953" xlink:href="#DejaVuSans-103"/>
      <use x="321.228516" xlink:href="#DejaVuSans-101"/>
      <use x="382.751953" xlink:href="#DejaVuSans-32"/>
      <use x="414.539062" xlink:href="#DejaVuSans-91"/>
      <use x="453.552734" xlink:href="#DejaVuSans-109"/>
      <use x="550.964844" xlink:href="#DejaVuSans-86"/>
      <use x="619.373047" xlink:href="#DejaVuSans-93"/>
     </g>
    </g>
   </g>
   <g id="line2d_12">
    <path clip-path="url(#p966a794746)" d="M 80.754545 326.721306 
L 83.106859 327.322374 
L 85.730404 327.349759 
L 100.480448 327.316342 
L 100.633324 342.587989 
L 100.963733 353.216768 
L 101.407566 360.933948 
L 101.866193 365.400931 
L 102.305094 367.736048 
L 102.714407 368.844764 
L 103.079336 369.271692 
L 103.424539 369.358051 
L 103.82892 369.212951 
L 104.465081 368.709133 
L 106.644793 366.84186 
L 107.749444 366.264243 
L 109.00697 365.864018 
L 110.624494 365.595203 
L 113.075437 365.435556 
L 118.253487 365.370174 
L 130.069303 365.36325 
L 130.222178 350.138207 
L 130.547656 339.751059 
L 130.976694 332.492299 
L 131.415596 328.487923 
L 131.844634 326.413869 
L 132.263809 325.378164 
L 132.673122 324.904381 
L 133.107092 324.729574 
L 133.654485 324.762791 
L 134.586534 325.079424 
L 137.481311 326.138329 
L 139.51801 326.593331 
L 140.257731 326.833941 
L 141.135534 327.177822 
L 142.205664 327.31766 
L 144.636882 327.350886 
L 159.663088 327.316342 
L 159.815964 324.261498 
L 160.141442 322.179972 
L 160.575411 320.721373 
L 161.043902 319.868555 
L 161.556775 319.377544 
L 162.17321 319.098106 
L 163.060875 318.960372 
L 164.816481 318.959086 
L 175.97641 319.168973 
L 189.251943 319.201883 
L 189.404818 322.259306 
L 189.730296 324.332798 
L 190.164266 325.776266 
L 190.632756 326.619736 
L 191.145629 327.105793 
L 191.766995 327.38399 
L 192.664524 327.520644 
L 194.479307 327.523524 
L 199.114894 327.410738 
L 199.159277 326.719875 
L 199.228318 326.732322 
L 201.324195 327.313663 
L 203.622263 327.351545 
L 218.845729 327.316342 
L 218.998604 321.205557 
L 219.324082 317.039521 
L 219.758052 314.119474 
L 220.22161 312.404056 
L 220.709826 311.393923 
L 221.247357 310.773552 
L 221.878586 310.383819 
L 222.69228 310.152401 
L 223.737752 310.092932 
L 225.024868 310.252528 
L 228.545941 310.800847 
L 231.914139 310.981684 
L 238.931629 311.100997 
L 248.434583 311.135617 
L 248.59239 317.38908 
L 248.917867 321.526836 
L 249.346906 324.367782 
L 249.79567 325.983669 
L 250.259229 326.890832 
L 250.757308 327.400274 
L 251.339222 327.676944 
L 252.152916 327.798999 
L 253.70633 327.76325 
L 258.297534 327.524898 
L 258.341918 326.719875 
L 258.410958 326.732322 
L 260.506835 327.313663 
L 262.804903 327.351545 
L 278.028369 327.316342 
L 278.181244 318.147534 
L 278.506722 311.873796 
L 278.950555 307.303692 
L 279.695207 300.7926 
L 279.724796 229.165253 
L 279.764248 68.104819 
L 279.843152 182.419531 
L 280.035479 296.882435 
L 280.217944 305.482655 
L 280.415203 306.784695 
L 280.53849 306.841477 
L 280.563147 306.823381 
L 280.755475 306.504342 
L 282.185603 303.619024 
L 282.935187 302.87155 
L 283.817921 301.983581 
L 284.010249 301.432335 
L 284.074358 300.673248 
L 284.089152 294.708191 
L 284.153261 74.018595 
L 284.246959 201.853339 
L 284.424493 296.548368 
L 284.611889 305.279295 
L 284.819011 306.766726 
L 284.996544 306.917955 
L 285.18394 306.731443 
L 286.747218 304.628961 
L 287.486939 304.257003 
L 288.62611 303.958997 
L 291.027739 303.607527 
L 298.005777 302.643974 
L 298.479198 302.334107 
L 298.68632 301.929105 
L 298.765224 301.329088 
L 298.780018 298.596269 
L 298.81947 176.056536 
L 298.853991 78.554525 
L 298.927963 180.147143 
L 299.12029 295.21134 
L 299.307686 304.241289 
L 299.529603 306.091899 
L 299.741656 306.432131 
L 299.933984 306.370322 
L 300.348228 305.906581 
L 301.117538 305.136755 
L 301.862191 304.725873 
L 302.976704 304.392216 
L 305.279703 303.97945 
L 307.617223 303.659636 
L 307.77503 313.115396 
L 308.095576 319.263473 
L 308.514752 323.370309 
L 308.953653 325.675611 
L 309.402417 326.947278 
L 309.865976 327.640247 
L 310.373918 328.010725 
L 311.005147 328.185022 
L 311.981579 328.196315 
L 315.113066 327.889397 
L 317.480174 327.708687 
L 317.524558 326.719875 
L 317.593598 326.732322 
L 319.689475 327.313663 
L 321.987543 327.351545 
L 337.211009 327.316342 
L 337.363884 315.08606 
L 337.694293 306.541811 
L 338.295933 294.968616 
L 338.325522 216.664358 
L 338.360043 67.37103 
L 338.438946 179.635362 
L 338.626342 292.157437 
L 338.803875 300.901858 
L 338.961683 301.681867 
L 338.971546 301.678996 
L 339.065244 301.508541 
L 339.311817 300.44417 
L 340.110716 295.732408 
L 340.307975 293.385412 
L 340.352359 290.185568 
L 340.386879 179.743946 
L 340.421399 72.01638 
L 340.495372 177.597284 
L 340.687699 295.973492 
L 340.865232 303.896021 
L 340.983588 304.389665 
L 341.018108 304.357025 
L 341.146326 303.921915 
L 341.604954 301.240421 
L 342.379195 297.302644 
L 342.877274 294.55501 
L 342.985767 292.550305 
L 343.005493 287.428279 
L 343.069602 77.006431 
L 343.158368 193.270109 
L 343.345764 294.305931 
L 343.528229 302.027134 
L 343.695899 302.772909 
L 343.700831 302.772468 
L 343.79946 302.634666 
L 344.046034 301.749812 
L 345.160548 297.463798 
L 345.895337 294.846708 
L 346.043282 293.288762 
L 346.077802 291.260821 
L 346.102459 235.003322 
L 346.151774 80.715421 
L 346.230678 181.751403 
L 346.423005 292.090134 
L 346.60547 300.52657 
L 346.797798 301.708819 
L 346.891496 301.718546 
L 346.921084 301.686854 
L 347.118343 301.24175 
L 348.854223 296.505607 
L 349.322713 295.159596 
L 349.505178 293.928678 
L 349.569287 291.930192 
L 349.584081 276.282968 
L 349.64819 83.466541 
L 349.717231 169.250467 
L 349.919422 290.794892 
L 350.106818 299.545316 
L 350.31394 300.987531 
L 350.44709 301.067832 
L 350.466815 301.055021 
L 350.64928 300.767765 
L 351.280509 299.133896 
L 352.074477 297.447892 
L 353.036114 295.445605 
L 353.253099 294.366011 
L 353.341866 292.734915 
L 353.361592 284.906454 
L 353.430632 85.552969 
L 353.504604 176.959181 
L 353.701864 290.157043 
L 353.88926 298.950338 
L 354.101313 300.573032 
L 354.268983 300.727796 
L 354.273915 300.725801 
L 354.441585 300.531878 
L 354.880486 299.559463 
L 355.76322 297.75555 
L 356.971432 295.452115 
L 357.178554 294.411579 
L 357.262389 292.887265 
L 357.282115 286.116666 
L 357.351156 86.623469 
L 357.430059 181.28726 
L 357.627318 289.964518 
L 357.819646 298.651773 
L 358.036631 300.317457 
L 358.219095 300.51034 
L 358.386765 300.348481 
L 358.791146 299.540184 
L 359.747853 297.70989 
L 360.911681 295.617511 
L 361.138529 294.632587 
L 361.237158 293.220461 
L 361.256884 291.133038 
L 361.291405 195.711338 
L 361.330856 87.380048 
L 361.404829 173.099512 
L 361.607019 289.380586 
L 361.799347 298.359084 
L 362.016332 300.141169 
L 362.208659 300.392499 
L 362.371398 300.262702 
L 362.736327 299.589486 
L 363.796594 297.63557 
L 364.891382 295.723315 
L 365.133024 294.759716 
L 365.241517 293.384704 
L 365.266174 290.532445 
L 365.305626 163.453364 
L 365.340146 88.001849 
L 365.414118 174.417979 
L 365.616309 289.186268 
L 365.808636 298.131677 
L 366.030553 299.992531 
L 366.227812 300.271364 
L 366.390551 300.158096 
L 366.740685 299.550675 
L 366.799863 299.432366 
L 366.952739 311.595244 
L 367.25849 318.99399 
L 367.65794 323.721716 
L 368.082047 326.352905 
L 368.516017 327.77762 
L 368.954918 328.521891 
L 369.418477 328.89495 
L 369.970802 329.04931 
L 370.774632 329.020127 
L 372.692976 328.655688 
L 375.918162 328.123212 
L 376.662814 328.032612 
L 376.707198 326.719875 
L 376.776238 326.732322 
L 378.872116 327.313663 
L 381.170183 327.351545 
L 396.393649 327.316342 
L 396.546525 312.019084 
L 396.886796 300.823354 
L 397.162959 291.426258 
L 397.182685 248.85634 
L 397.227068 66.96 
L 397.310903 186.389356 
L 397.493368 288.820213 
L 397.66597 296.62473 
L 397.744873 296.945576 
L 397.799119 296.849915 
L 397.951995 295.946282 
L 398.292267 292.433657 
L 398.474732 288.60696 
L 398.519115 282.673514 
L 398.583224 70.901245 
L 398.681854 210.546967 
L 398.854455 297.236427 
L 399.022125 303.431385 
L 399.051714 303.482472 
L 399.10596 303.328065 
L 399.273631 301.897175 
L 400.10705 291.801582 
L 400.250063 287.888325 
L 400.279652 278.899962 
L 400.338829 75.981709 
L 400.417733 179.919297 
L 400.610061 294.677219 
L 400.782662 301.507355 
L 400.831977 301.642657 
L 400.891155 301.505342 
L 401.063756 300.2739 
L 401.837998 292.335743 
L 402.035257 288.556873 
L 402.07964 282.041491 
L 402.143749 79.594511 
L 402.232516 192.843349 
L 402.419912 293.489822 
L 402.592514 300.188585 
L 402.666486 300.41984 
L 402.720732 300.31269 
L 402.888402 299.327929 
L 403.559083 293.448558 
L 403.859903 289.51339 
L 403.928944 285.862899 
L 403.943738 275.023557 
L 404.007847 82.505683 
L 404.076888 170.214345 
L 404.279078 291.946988 
L 404.456612 299.168298 
L 404.55031 299.512618 
L 404.599624 299.441939 
L 404.7525 298.723133 
L 405.270305 294.801013 
L 405.728932 290.214964 
L 405.832493 286.582422 
L 405.852219 277.10591 
L 405.916328 84.244456 
L 405.990301 174.18987 
L 406.192491 291.306884 
L 406.370024 298.451412 
L 406.483448 298.895666 
L 406.5229 298.853329 
L 406.65605 298.356293 
L 407.050568 295.758687 
L 407.652208 290.596067 
L 407.775495 287.423514 
L 407.805084 277.967074 
L 407.869193 85.550263 
L 407.943165 172.562491 
L 408.145355 290.417656 
L 408.322889 297.862076 
L 408.456038 298.441903 
L 408.485627 298.420795 
L 408.603983 298.072756 
L 408.924529 296.23067 
L 409.600141 291.058011 
L 409.753017 288.067721 
L 409.792468 281.249501 
L 409.861509 86.613109 
L 409.940413 181.066128 
L 410.137672 289.953718 
L 410.320136 297.484275 
L 410.463149 298.108973 
L 410.487806 298.096471 
L 410.596299 297.831506 
L 410.877393 296.388511 
L 411.5678 291.551054 
L 411.755196 288.721471 
L 411.809442 283.467857 
L 411.848894 144.721908 
L 411.878483 87.071183 
L 411.952455 170.928602 
L 412.154645 289.143182 
L 412.33711 297.090964 
L 412.499848 297.846566 
L 412.509711 297.843752 
L 412.603409 297.675083 
L 412.835189 296.651843 
L 413.491075 292.49422 
L 413.757375 289.642416 
L 413.84121 285.993403 
L 413.856004 277.615633 
L 413.920114 87.445729 
L 413.994086 171.181949 
L 414.196276 288.818232 
L 414.378741 296.839488 
L 414.551342 297.670394 
L 414.556274 297.669734 
L 414.64504 297.537958 
L 414.857094 296.686776 
L 415.463665 293.0661 
L 415.789143 290.096191 
L 415.892704 286.871287 
L 415.91243 281.496068 
L 415.98147 87.792452 
L 416.065305 185.473119 
L 416.262564 289.269397 
L 416.445029 296.742948 
L 416.622562 297.551836 
L 416.71626 297.417558 
L 416.933245 296.561467 
L 417.539817 293.00878 
L 417.860363 290.122138 
L 417.963924 287.046223 
L 417.988581 276.613141 
L 418.05269 87.867626 
L 418.126662 171.335198 
L 418.328853 288.351449 
L 418.511317 296.535952 
L 418.693782 297.473079 
L 418.782549 297.37218 
L 418.979808 296.658994 
L 419.527201 293.600341 
L 419.916788 290.48557 
L 420.040075 287.542684 
L 420.069664 280.303812 
L 420.133773 88.145716 
L 420.212677 174.717534 
L 420.414867 288.476962 
L 420.597332 296.437035 
L 420.779796 297.37822 
L 420.868563 297.286843 
L 421.06089 296.617858 
L 421.588558 293.736576 
L 421.997871 290.566099 
L 422.126089 287.652754 
L 422.155678 282.192722 
L 422.224719 88.078196 
L 422.313485 190.004426 
L 422.510744 289.166825 
L 422.69814 296.522977 
L 422.880605 297.341215 
L 422.974303 297.221843 
L 423.186356 296.440734 
L 423.763339 293.227473 
L 424.113474 290.304942 
L 424.226898 287.302839 
L 424.251555 281.564459 
L 424.320596 88.193407 
L 424.404431 184.973515 
L 424.60169 288.609343 
L 424.784155 296.32813 
L 424.966619 297.284092 
L 425.060317 297.196337 
L 425.252645 296.543129 
L 425.77045 293.770961 
L 425.982503 292.407513 
L 426.14031 308.227187 
L 426.44113 317.440561 
L 426.830717 323.162909 
L 427.249892 326.351995 
L 427.678931 328.059102 
L 428.107969 328.935025 
L 428.551802 329.366865 
L 429.049881 329.544173 
L 429.730425 329.533096 
L 431.032334 329.244161 
L 434.533682 328.446761 
L 435.845455 328.23373 
L 435.845455 328.23373 
" style="fill:none;stroke:#ff0000;stroke-linecap:square;stroke-width:1.5;"/>
   </g>
   <g id="patch_3">
    <path d="M 63 384.48 
L 63 51.84 
" style="fill:none;stroke:#000000;stroke-linecap:square;stroke-linejoin:miter;stroke-width:0.8;"/>
   </g>
   <g id="patch_4">
    <path d="M 453.6 384.48 
L 453.6 51.84 
" style="fill:none;stroke:#000000;stroke-linecap:square;stroke-linejoin:miter;stroke-width:0.8;"/>
   </g>
   <g id="patch_5">
    <path d="M 63 384.48 
L 453.6 384.48 
" style="fill:none;stroke:#000000;stroke-linecap:square;stroke-linejoin:miter;stroke-width:0.8;"/>
   </g>
   <g id="patch_6">
    <path d="M 63 51.84 
L 453.6 51.84 
" style="fill:none;stroke:#000000;stroke-linecap:square;stroke-linejoin:miter;stroke-width:0.8;"/>
   </g>
   <g id="legend_1">
    <g id="patch_7">
     <path d="M 70 74.518125 
L 133.139062 74.518125 
Q 135.139062 74.518125 135.139062 72.518125 
L 135.139062 58.84 
Q 135.139062 56.84 133.139062 56.84 
L 70 56.84 
Q 68 56.84 68 58.84 
L 68 72.518125 
Q 68 74.518125 70 74.518125 
z
" style="fill:#ffffff;opacity:0.8;stroke:#cccccc;stroke-linejoin:miter;"/>
    </g>
    <g id="line2d_13">
     <path d="M 72 64.938438 
L 92 64.938438 
" style="fill:none;stroke:#ff0000;stroke-linecap:square;stroke-width:1.5;"/>
    </g>
    <g id="line2d_14"/>
    <g id="text_14">
     <!-- model -->
     <defs>
      <path d="M 45.40625 46.390625 
L 45.40625 75.984375 
L 54.390625 75.984375 
L 54.390625 0 
L 45.40625 0 
L 45.40625 8.203125 
Q 42.578125 3.328125 38.25 0.953125 
Q 33.9375 -1.421875 27.875 -1.421875 
Q 17.96875 -1.421875 11.734375 6.484375 
Q 5.515625 14.40625 5.515625 27.296875 
Q 5.515625 40.1875 11.734375 48.09375 
Q 17.96875 56 27.875 56 
Q 33.9375 56 38.25 53.625 
Q 42.578125 51.265625 45.40625 46.390625 
z
M 14.796875 27.296875 
Q 14.796875 17.390625 18.875 11.75 
Q 22.953125 6.109375 30.078125 6.109375 
Q 37.203125 6.109375 41.296875 11.75 
Q 45.40625 17.390625 45.40625 27.296875 
Q 45.40625 37.203125 41.296875 42.84375 
Q 37.203125 48.484375 30.078125 48.484375 
Q 22.953125 48.484375 18.875 42.84375 
Q 14.796875 37.203125 14.796875 27.296875 
z
" id="DejaVuSans-100"/>
     </defs>
     <g transform="translate(100 68.438438)scale(0.1 -0.1)">
      <use xlink:href="#DejaVuSans-109"/>
      <use x="97.412109" xlink:href="#DejaVuSans-111"/>
      <use x="158.59375" xlink:href="#DejaVuSans-100"/>
      <use x="222.070312" xlink:href="#DejaVuSans-101"/>
      <use x="283.59375" xlink:href="#DejaVuSans-108"/>
     </g>
    </g>
   </g>
  </g>
 </g>
 <defs>
  <clipPath id="p966a794746">
   <rect height="332.64" width="390.6" x="63" y="51.84"/>
  </clipPath>
 </defs>
</svg>
