<?xml version="1.0" encoding="utf-8" standalone="no"?>
<!DOCTYPE svg PUBLIC "-//W3C//DTD SVG 1.1//EN"
  "http://www.w3.org/Graphics/SVG/1.1/DTD/svg11.dtd">
<!-- Created with matplotlib (https://matplotlib.org/) -->
<svg height="432pt" version="1.1" viewBox="0 0 504 432" width="504pt" xmlns="http://www.w3.org/2000/svg" xmlns:xlink="http://www.w3.org/1999/xlink">
 <defs>
  <style type="text/css">
*{stroke-linecap:butt;stroke-linejoin:round;}
  </style>
 </defs>
 <g id="figure_1">
  <g id="patch_1">
   <path d="M 0 432 
L 504 432 
L 504 0 
L 0 0 
z
" style="fill:#ffffff;"/>
  </g>
  <g id="axes_1">
   <g id="patch_2">
    <path d="M 63 384.48 
L 453.6 384.48 
L 453.6 51.84 
L 63 51.84 
z
" style="fill:#ffffff;"/>
   </g>
   <g id="matplotlib.axis_1">
    <g id="xtick_1">
     <g id="line2d_1">
      <defs>
       <path d="M 0 0 
L 0 3.5 
" id="m389b1b9669" style="stroke:#000000;stroke-width:0.8;"/>
      </defs>
      <g>
       <use style="stroke:#000000;stroke-width:0.8;" x="80.754545" xlink:href="#m389b1b9669" y="384.48"/>
      </g>
     </g>
     <g id="text_1">
      <!-- 0 -->
      <defs>
       <path d="M 31.78125 66.40625 
Q 24.171875 66.40625 20.328125 58.90625 
Q 16.5 51.421875 16.5 36.375 
Q 16.5 21.390625 20.328125 13.890625 
Q 24.171875 6.390625 31.78125 6.390625 
Q 39.453125 6.390625 43.28125 13.890625 
Q 47.125 21.390625 47.125 36.375 
Q 47.125 51.421875 43.28125 58.90625 
Q 39.453125 66.40625 31.78125 66.40625 
z
M 31.78125 74.21875 
Q 44.046875 74.21875 50.515625 64.515625 
Q 56.984375 54.828125 56.984375 36.375 
Q 56.984375 17.96875 50.515625 8.265625 
Q 44.046875 -1.421875 31.78125 -1.421875 
Q 19.53125 -1.421875 13.0625 8.265625 
Q 6.59375 17.96875 6.59375 36.375 
Q 6.59375 54.828125 13.0625 64.515625 
Q 19.53125 74.21875 31.78125 74.21875 
z
" id="DejaVuSans-48"/>
      </defs>
      <g transform="translate(77.573295 399.078438)scale(0.1 -0.1)">
       <use xlink:href="#DejaVuSans-48"/>
      </g>
     </g>
    </g>
    <g id="xtick_2">
     <g id="line2d_2">
      <g>
       <use style="stroke:#000000;stroke-width:0.8;" x="151.772727" xlink:href="#m389b1b9669" y="384.48"/>
      </g>
     </g>
     <g id="text_2">
      <!-- 200 -->
      <defs>
       <path d="M 19.1875 8.296875 
L 53.609375 8.296875 
L 53.609375 0 
L 7.328125 0 
L 7.328125 8.296875 
Q 12.9375 14.109375 22.625 23.890625 
Q 32.328125 33.6875 34.8125 36.53125 
Q 39.546875 41.84375 41.421875 45.53125 
Q 43.3125 49.21875 43.3125 52.78125 
Q 43.3125 58.59375 39.234375 62.25 
Q 35.15625 65.921875 28.609375 65.921875 
Q 23.96875 65.921875 18.8125 64.3125 
Q 13.671875 62.703125 7.8125 59.421875 
L 7.8125 69.390625 
Q 13.765625 71.78125 18.9375 73 
Q 24.125 74.21875 28.421875 74.21875 
Q 39.75 74.21875 46.484375 68.546875 
Q 53.21875 62.890625 53.21875 53.421875 
Q 53.21875 48.921875 51.53125 44.890625 
Q 49.859375 40.875 45.40625 35.40625 
Q 44.1875 33.984375 37.640625 27.21875 
Q 31.109375 20.453125 19.1875 8.296875 
z
" id="DejaVuSans-50"/>
      </defs>
      <g transform="translate(142.228977 399.078438)scale(0.1 -0.1)">
       <use xlink:href="#DejaVuSans-50"/>
       <use x="63.623047" xlink:href="#DejaVuSans-48"/>
       <use x="127.246094" xlink:href="#DejaVuSans-48"/>
      </g>
     </g>
    </g>
    <g id="xtick_3">
     <g id="line2d_3">
      <g>
       <use style="stroke:#000000;stroke-width:0.8;" x="222.790909" xlink:href="#m389b1b9669" y="384.48"/>
      </g>
     </g>
     <g id="text_3">
      <!-- 400 -->
      <defs>
       <path d="M 37.796875 64.3125 
L 12.890625 25.390625 
L 37.796875 25.390625 
z
M 35.203125 72.90625 
L 47.609375 72.90625 
L 47.609375 25.390625 
L 58.015625 25.390625 
L 58.015625 17.1875 
L 47.609375 17.1875 
L 47.609375 0 
L 37.796875 0 
L 37.796875 17.1875 
L 4.890625 17.1875 
L 4.890625 26.703125 
z
" id="DejaVuSans-52"/>
      </defs>
      <g transform="translate(213.247159 399.078438)scale(0.1 -0.1)">
       <use xlink:href="#DejaVuSans-52"/>
       <use x="63.623047" xlink:href="#DejaVuSans-48"/>
       <use x="127.246094" xlink:href="#DejaVuSans-48"/>
      </g>
     </g>
    </g>
    <g id="xtick_4">
     <g id="line2d_4">
      <g>
       <use style="stroke:#000000;stroke-width:0.8;" x="293.809091" xlink:href="#m389b1b9669" y="384.48"/>
      </g>
     </g>
     <g id="text_4">
      <!-- 600 -->
      <defs>
       <path d="M 33.015625 40.375 
Q 26.375 40.375 22.484375 35.828125 
Q 18.609375 31.296875 18.609375 23.390625 
Q 18.609375 15.53125 22.484375 10.953125 
Q 26.375 6.390625 33.015625 6.390625 
Q 39.65625 6.390625 43.53125 10.953125 
Q 47.40625 15.53125 47.40625 23.390625 
Q 47.40625 31.296875 43.53125 35.828125 
Q 39.65625 40.375 33.015625 40.375 
z
M 52.59375 71.296875 
L 52.59375 62.3125 
Q 48.875 64.0625 45.09375 64.984375 
Q 41.3125 65.921875 37.59375 65.921875 
Q 27.828125 65.921875 22.671875 59.328125 
Q 17.53125 52.734375 16.796875 39.40625 
Q 19.671875 43.65625 24.015625 45.921875 
Q 28.375 48.1875 33.59375 48.1875 
Q 44.578125 48.1875 50.953125 41.515625 
Q 57.328125 34.859375 57.328125 23.390625 
Q 57.328125 12.15625 50.6875 5.359375 
Q 44.046875 -1.421875 33.015625 -1.421875 
Q 20.359375 -1.421875 13.671875 8.265625 
Q 6.984375 17.96875 6.984375 36.375 
Q 6.984375 53.65625 15.1875 63.9375 
Q 23.390625 74.21875 37.203125 74.21875 
Q 40.921875 74.21875 44.703125 73.484375 
Q 48.484375 72.75 52.59375 71.296875 
z
" id="DejaVuSans-54"/>
      </defs>
      <g transform="translate(284.265341 399.078438)scale(0.1 -0.1)">
       <use xlink:href="#DejaVuSans-54"/>
       <use x="63.623047" xlink:href="#DejaVuSans-48"/>
       <use x="127.246094" xlink:href="#DejaVuSans-48"/>
      </g>
     </g>
    </g>
    <g id="xtick_5">
     <g id="line2d_5">
      <g>
       <use style="stroke:#000000;stroke-width:0.8;" x="364.827273" xlink:href="#m389b1b9669" y="384.48"/>
      </g>
     </g>
     <g id="text_5">
      <!-- 800 -->
      <defs>
       <path d="M 31.78125 34.625 
Q 24.75 34.625 20.71875 30.859375 
Q 16.703125 27.09375 16.703125 20.515625 
Q 16.703125 13.921875 20.71875 10.15625 
Q 24.75 6.390625 31.78125 6.390625 
Q 38.8125 6.390625 42.859375 10.171875 
Q 46.921875 13.96875 46.921875 20.515625 
Q 46.921875 27.09375 42.890625 30.859375 
Q 38.875 34.625 31.78125 34.625 
z
M 21.921875 38.8125 
Q 15.578125 40.375 12.03125 44.71875 
Q 8.5 49.078125 8.5 55.328125 
Q 8.5 64.0625 14.71875 69.140625 
Q 20.953125 74.21875 31.78125 74.21875 
Q 42.671875 74.21875 48.875 69.140625 
Q 55.078125 64.0625 55.078125 55.328125 
Q 55.078125 49.078125 51.53125 44.71875 
Q 48 40.375 41.703125 38.8125 
Q 48.828125 37.15625 52.796875 32.3125 
Q 56.78125 27.484375 56.78125 20.515625 
Q 56.78125 9.90625 50.3125 4.234375 
Q 43.84375 -1.421875 31.78125 -1.421875 
Q 19.734375 -1.421875 13.25 4.234375 
Q 6.78125 9.90625 6.78125 20.515625 
Q 6.78125 27.484375 10.78125 32.3125 
Q 14.796875 37.15625 21.921875 38.8125 
z
M 18.3125 54.390625 
Q 18.3125 48.734375 21.84375 45.5625 
Q 25.390625 42.390625 31.78125 42.390625 
Q 38.140625 42.390625 41.71875 45.5625 
Q 45.3125 48.734375 45.3125 54.390625 
Q 45.3125 60.0625 41.71875 63.234375 
Q 38.140625 66.40625 31.78125 66.40625 
Q 25.390625 66.40625 21.84375 63.234375 
Q 18.3125 60.0625 18.3125 54.390625 
z
" id="DejaVuSans-56"/>
      </defs>
      <g transform="translate(355.283523 399.078438)scale(0.1 -0.1)">
       <use xlink:href="#DejaVuSans-56"/>
       <use x="63.623047" xlink:href="#DejaVuSans-48"/>
       <use x="127.246094" xlink:href="#DejaVuSans-48"/>
      </g>
     </g>
    </g>
    <g id="text_6">
     <!-- time [ms] -->
     <defs>
      <path d="M 18.3125 70.21875 
L 18.3125 54.6875 
L 36.8125 54.6875 
L 36.8125 47.703125 
L 18.3125 47.703125 
L 18.3125 18.015625 
Q 18.3125 11.328125 20.140625 9.421875 
Q 21.96875 7.515625 27.59375 7.515625 
L 36.8125 7.515625 
L 36.8125 0 
L 27.59375 0 
Q 17.1875 0 13.234375 3.875 
Q 9.28125 7.765625 9.28125 18.015625 
L 9.28125 47.703125 
L 2.6875 47.703125 
L 2.6875 54.6875 
L 9.28125 54.6875 
L 9.28125 70.21875 
z
" id="DejaVuSans-116"/>
      <path d="M 9.421875 54.6875 
L 18.40625 54.6875 
L 18.40625 0 
L 9.421875 0 
z
M 9.421875 75.984375 
L 18.40625 75.984375 
L 18.40625 64.59375 
L 9.421875 64.59375 
z
" id="DejaVuSans-105"/>
      <path d="M 52 44.1875 
Q 55.375 50.25 60.0625 53.125 
Q 64.75 56 71.09375 56 
Q 79.640625 56 84.28125 50.015625 
Q 88.921875 44.046875 88.921875 33.015625 
L 88.921875 0 
L 79.890625 0 
L 79.890625 32.71875 
Q 79.890625 40.578125 77.09375 44.375 
Q 74.3125 48.1875 68.609375 48.1875 
Q 61.625 48.1875 57.5625 43.546875 
Q 53.515625 38.921875 53.515625 30.90625 
L 53.515625 0 
L 44.484375 0 
L 44.484375 32.71875 
Q 44.484375 40.625 41.703125 44.40625 
Q 38.921875 48.1875 33.109375 48.1875 
Q 26.21875 48.1875 22.15625 43.53125 
Q 18.109375 38.875 18.109375 30.90625 
L 18.109375 0 
L 9.078125 0 
L 9.078125 54.6875 
L 18.109375 54.6875 
L 18.109375 46.1875 
Q 21.1875 51.21875 25.484375 53.609375 
Q 29.78125 56 35.6875 56 
Q 41.65625 56 45.828125 52.96875 
Q 50 49.953125 52 44.1875 
z
" id="DejaVuSans-109"/>
      <path d="M 56.203125 29.59375 
L 56.203125 25.203125 
L 14.890625 25.203125 
Q 15.484375 15.921875 20.484375 11.0625 
Q 25.484375 6.203125 34.421875 6.203125 
Q 39.59375 6.203125 44.453125 7.46875 
Q 49.3125 8.734375 54.109375 11.28125 
L 54.109375 2.78125 
Q 49.265625 0.734375 44.1875 -0.34375 
Q 39.109375 -1.421875 33.890625 -1.421875 
Q 20.796875 -1.421875 13.15625 6.1875 
Q 5.515625 13.8125 5.515625 26.8125 
Q 5.515625 40.234375 12.765625 48.109375 
Q 20.015625 56 32.328125 56 
Q 43.359375 56 49.78125 48.890625 
Q 56.203125 41.796875 56.203125 29.59375 
z
M 47.21875 32.234375 
Q 47.125 39.59375 43.09375 43.984375 
Q 39.0625 48.390625 32.421875 48.390625 
Q 24.90625 48.390625 20.390625 44.140625 
Q 15.875 39.890625 15.1875 32.171875 
z
" id="DejaVuSans-101"/>
      <path id="DejaVuSans-32"/>
      <path d="M 8.59375 75.984375 
L 29.296875 75.984375 
L 29.296875 69 
L 17.578125 69 
L 17.578125 -6.203125 
L 29.296875 -6.203125 
L 29.296875 -13.1875 
L 8.59375 -13.1875 
z
" id="DejaVuSans-91"/>
      <path d="M 44.28125 53.078125 
L 44.28125 44.578125 
Q 40.484375 46.53125 36.375 47.5 
Q 32.28125 48.484375 27.875 48.484375 
Q 21.1875 48.484375 17.84375 46.4375 
Q 14.5 44.390625 14.5 40.28125 
Q 14.5 37.15625 16.890625 35.375 
Q 19.28125 33.59375 26.515625 31.984375 
L 29.59375 31.296875 
Q 39.15625 29.25 43.1875 25.515625 
Q 47.21875 21.78125 47.21875 15.09375 
Q 47.21875 7.46875 41.1875 3.015625 
Q 35.15625 -1.421875 24.609375 -1.421875 
Q 20.21875 -1.421875 15.453125 -0.5625 
Q 10.6875 0.296875 5.421875 2 
L 5.421875 11.28125 
Q 10.40625 8.6875 15.234375 7.390625 
Q 20.0625 6.109375 24.8125 6.109375 
Q 31.15625 6.109375 34.5625 8.28125 
Q 37.984375 10.453125 37.984375 14.40625 
Q 37.984375 18.0625 35.515625 20.015625 
Q 33.0625 21.96875 24.703125 23.78125 
L 21.578125 24.515625 
Q 13.234375 26.265625 9.515625 29.90625 
Q 5.8125 33.546875 5.8125 39.890625 
Q 5.8125 47.609375 11.28125 51.796875 
Q 16.75 56 26.8125 56 
Q 31.78125 56 36.171875 55.265625 
Q 40.578125 54.546875 44.28125 53.078125 
z
" id="DejaVuSans-115"/>
      <path d="M 30.421875 75.984375 
L 30.421875 -13.1875 
L 9.71875 -13.1875 
L 9.71875 -6.203125 
L 21.390625 -6.203125 
L 21.390625 69 
L 9.71875 69 
L 9.71875 75.984375 
z
" id="DejaVuSans-93"/>
     </defs>
     <g transform="translate(234.038281 412.756563)scale(0.1 -0.1)">
      <use xlink:href="#DejaVuSans-116"/>
      <use x="39.208984" xlink:href="#DejaVuSans-105"/>
      <use x="66.992188" xlink:href="#DejaVuSans-109"/>
      <use x="164.404297" xlink:href="#DejaVuSans-101"/>
      <use x="225.927734" xlink:href="#DejaVuSans-32"/>
      <use x="257.714844" xlink:href="#DejaVuSans-91"/>
      <use x="296.728516" xlink:href="#DejaVuSans-109"/>
      <use x="394.140625" xlink:href="#DejaVuSans-115"/>
      <use x="446.240234" xlink:href="#DejaVuSans-93"/>
     </g>
    </g>
   </g>
   <g id="matplotlib.axis_2">
    <g id="ytick_1">
     <g id="line2d_6">
      <defs>
       <path d="M 0 0 
L -3.5 0 
" id="m97348335f6" style="stroke:#000000;stroke-width:0.8;"/>
      </defs>
      <g>
       <use style="stroke:#000000;stroke-width:0.8;" x="63" xlink:href="#m97348335f6" y="347.831218"/>
      </g>
     </g>
     <g id="text_7">
      <!-- −60 -->
      <defs>
       <path d="M 10.59375 35.5 
L 73.1875 35.5 
L 73.1875 27.203125 
L 10.59375 27.203125 
z
" id="DejaVuSans-8722"/>
      </defs>
      <g transform="translate(34.895313 351.630437)scale(0.1 -0.1)">
       <use xlink:href="#DejaVuSans-8722"/>
       <use x="83.789062" xlink:href="#DejaVuSans-54"/>
       <use x="147.412109" xlink:href="#DejaVuSans-48"/>
      </g>
     </g>
    </g>
    <g id="ytick_2">
     <g id="line2d_7">
      <g>
       <use style="stroke:#000000;stroke-width:0.8;" x="63" xlink:href="#m97348335f6" y="280.783032"/>
      </g>
     </g>
     <g id="text_8">
      <!-- −40 -->
      <g transform="translate(34.895313 284.582251)scale(0.1 -0.1)">
       <use xlink:href="#DejaVuSans-8722"/>
       <use x="83.789062" xlink:href="#DejaVuSans-52"/>
       <use x="147.412109" xlink:href="#DejaVuSans-48"/>
      </g>
     </g>
    </g>
    <g id="ytick_3">
     <g id="line2d_8">
      <g>
       <use style="stroke:#000000;stroke-width:0.8;" x="63" xlink:href="#m97348335f6" y="213.734847"/>
      </g>
     </g>
     <g id="text_9">
      <!-- −20 -->
      <g transform="translate(34.895313 217.534065)scale(0.1 -0.1)">
       <use xlink:href="#DejaVuSans-8722"/>
       <use x="83.789062" xlink:href="#DejaVuSans-50"/>
       <use x="147.412109" xlink:href="#DejaVuSans-48"/>
      </g>
     </g>
    </g>
    <g id="ytick_4">
     <g id="line2d_9">
      <g>
       <use style="stroke:#000000;stroke-width:0.8;" x="63" xlink:href="#m97348335f6" y="146.686661"/>
      </g>
     </g>
     <g id="text_10">
      <!-- 0 -->
      <g transform="translate(49.6375 150.48588)scale(0.1 -0.1)">
       <use xlink:href="#DejaVuSans-48"/>
      </g>
     </g>
    </g>
    <g id="ytick_5">
     <g id="line2d_10">
      <g>
       <use style="stroke:#000000;stroke-width:0.8;" x="63" xlink:href="#m97348335f6" y="79.638475"/>
      </g>
     </g>
     <g id="text_11">
      <!-- 20 -->
      <g transform="translate(43.275 83.437694)scale(0.1 -0.1)">
       <use xlink:href="#DejaVuSans-50"/>
       <use x="63.623047" xlink:href="#DejaVuSans-48"/>
      </g>
     </g>
    </g>
    <g id="text_12">
     <!-- voltage [V] -->
     <defs>
      <path d="M 2.984375 54.6875 
L 12.5 54.6875 
L 29.59375 8.796875 
L 46.6875 54.6875 
L 56.203125 54.6875 
L 35.6875 0 
L 23.484375 0 
z
" id="DejaVuSans-118"/>
      <path d="M 30.609375 48.390625 
Q 23.390625 48.390625 19.1875 42.75 
Q 14.984375 37.109375 14.984375 27.296875 
Q 14.984375 17.484375 19.15625 11.84375 
Q 23.34375 6.203125 30.609375 6.203125 
Q 37.796875 6.203125 41.984375 11.859375 
Q 46.1875 17.53125 46.1875 27.296875 
Q 46.1875 37.015625 41.984375 42.703125 
Q 37.796875 48.390625 30.609375 48.390625 
z
M 30.609375 56 
Q 42.328125 56 49.015625 48.375 
Q 55.71875 40.765625 55.71875 27.296875 
Q 55.71875 13.875 49.015625 6.21875 
Q 42.328125 -1.421875 30.609375 -1.421875 
Q 18.84375 -1.421875 12.171875 6.21875 
Q 5.515625 13.875 5.515625 27.296875 
Q 5.515625 40.765625 12.171875 48.375 
Q 18.84375 56 30.609375 56 
z
" id="DejaVuSans-111"/>
      <path d="M 9.421875 75.984375 
L 18.40625 75.984375 
L 18.40625 0 
L 9.421875 0 
z
" id="DejaVuSans-108"/>
      <path d="M 34.28125 27.484375 
Q 23.390625 27.484375 19.1875 25 
Q 14.984375 22.515625 14.984375 16.5 
Q 14.984375 11.71875 18.140625 8.90625 
Q 21.296875 6.109375 26.703125 6.109375 
Q 34.1875 6.109375 38.703125 11.40625 
Q 43.21875 16.703125 43.21875 25.484375 
L 43.21875 27.484375 
z
M 52.203125 31.203125 
L 52.203125 0 
L 43.21875 0 
L 43.21875 8.296875 
Q 40.140625 3.328125 35.546875 0.953125 
Q 30.953125 -1.421875 24.3125 -1.421875 
Q 15.921875 -1.421875 10.953125 3.296875 
Q 6 8.015625 6 15.921875 
Q 6 25.140625 12.171875 29.828125 
Q 18.359375 34.515625 30.609375 34.515625 
L 43.21875 34.515625 
L 43.21875 35.40625 
Q 43.21875 41.609375 39.140625 45 
Q 35.0625 48.390625 27.6875 48.390625 
Q 23 48.390625 18.546875 47.265625 
Q 14.109375 46.140625 10.015625 43.890625 
L 10.015625 52.203125 
Q 14.9375 54.109375 19.578125 55.046875 
Q 24.21875 56 28.609375 56 
Q 40.484375 56 46.34375 49.84375 
Q 52.203125 43.703125 52.203125 31.203125 
z
" id="DejaVuSans-97"/>
      <path d="M 45.40625 27.984375 
Q 45.40625 37.75 41.375 43.109375 
Q 37.359375 48.484375 30.078125 48.484375 
Q 22.859375 48.484375 18.828125 43.109375 
Q 14.796875 37.75 14.796875 27.984375 
Q 14.796875 18.265625 18.828125 12.890625 
Q 22.859375 7.515625 30.078125 7.515625 
Q 37.359375 7.515625 41.375 12.890625 
Q 45.40625 18.265625 45.40625 27.984375 
z
M 54.390625 6.78125 
Q 54.390625 -7.171875 48.1875 -13.984375 
Q 42 -20.796875 29.203125 -20.796875 
Q 24.46875 -20.796875 20.265625 -20.09375 
Q 16.0625 -19.390625 12.109375 -17.921875 
L 12.109375 -9.1875 
Q 16.0625 -11.328125 19.921875 -12.34375 
Q 23.78125 -13.375 27.78125 -13.375 
Q 36.625 -13.375 41.015625 -8.765625 
Q 45.40625 -4.15625 45.40625 5.171875 
L 45.40625 9.625 
Q 42.625 4.78125 38.28125 2.390625 
Q 33.9375 0 27.875 0 
Q 17.828125 0 11.671875 7.65625 
Q 5.515625 15.328125 5.515625 27.984375 
Q 5.515625 40.671875 11.671875 48.328125 
Q 17.828125 56 27.875 56 
Q 33.9375 56 38.28125 53.609375 
Q 42.625 51.21875 45.40625 46.390625 
L 45.40625 54.6875 
L 54.390625 54.6875 
z
" id="DejaVuSans-103"/>
      <path d="M 28.609375 0 
L 0.78125 72.90625 
L 11.078125 72.90625 
L 34.1875 11.53125 
L 57.328125 72.90625 
L 67.578125 72.90625 
L 39.796875 0 
z
" id="DejaVuSans-86"/>
     </defs>
     <g transform="translate(28.815625 245.75375)rotate(-90)scale(0.1 -0.1)">
      <use xlink:href="#DejaVuSans-118"/>
      <use x="59.179688" xlink:href="#DejaVuSans-111"/>
      <use x="120.361328" xlink:href="#DejaVuSans-108"/>
      <use x="148.144531" xlink:href="#DejaVuSans-116"/>
      <use x="187.353516" xlink:href="#DejaVuSans-97"/>
      <use x="248.632812" xlink:href="#DejaVuSans-103"/>
      <use x="312.109375" xlink:href="#DejaVuSans-101"/>
      <use x="373.632812" xlink:href="#DejaVuSans-32"/>
      <use x="405.419922" xlink:href="#DejaVuSans-91"/>
      <use x="444.433594" xlink:href="#DejaVuSans-86"/>
      <use x="512.841797" xlink:href="#DejaVuSans-93"/>
     </g>
    </g>
   </g>
   <g id="line2d_11">
    <path clip-path="url(#p2edaf16a4c)" d="M 80.754545 364.593256 
L 81.695536 364.605223 
L 85.725818 365.025093 
L 98.526845 366.345534 
L 108.629182 367.143526 
L 119.459455 367.772117 
L 131.603564 368.248902 
L 145.8072 368.576776 
L 151.772727 368.659672 
L 151.8615 366.639413 
L 152.234345 358.407491 
L 152.731473 352.64576 
L 153.565936 345.838525 
L 154.9863 336.24656 
L 156.726245 326.027489 
L 158.412927 317.386919 
L 160.028591 310.229105 
L 161.590991 304.308715 
L 163.153391 299.265516 
L 164.840073 294.591916 
L 167.236936 288.689803 
L 168.941373 284.26011 
L 169.793591 281.437349 
L 170.361736 278.805572 
L 170.752336 275.954156 
L 171.036409 271.858185 
L 171.1962 264.636892 
L 171.249464 256.608606 
L 171.622309 69.299582 
L 171.675573 66.96 
L 171.746591 67.200914 
L 171.906382 80.02385 
L 172.190455 132.679623 
L 172.847373 250.903059 
L 173.220218 285.391393 
L 173.5398 297.759964 
L 173.912645 304.209651 
L 174.303245 307.584277 
L 174.782618 309.794073 
L 175.226482 310.90733 
L 175.6881 311.499169 
L 176.096455 311.692742 
L 176.522564 311.64905 
L 177.019691 311.356199 
L 177.676609 310.671997 
L 178.528827 309.435585 
L 179.771645 307.21376 
L 182.807673 301.163818 
L 185.470855 296.147996 
L 188.134036 291.633571 
L 192.199827 284.801052 
L 193.336118 282.371937 
L 194.117318 280.162398 
L 194.685464 277.830265 
L 195.093818 275.038493 
L 195.324627 272.082707 
L 195.502173 266.135739 
L 195.573191 256.909259 
L 195.626455 229.445518 
L 195.839509 97.757116 
L 196.017055 89.13254 
L 196.034809 89.091045 
L 196.176845 92.827677 
L 196.407655 109.891705 
L 196.744991 158.662619 
L 197.437418 256.182845 
L 197.810264 280.898399 
L 198.200864 292.61239 
L 198.591464 298.244336 
L 199.070836 301.938269 
L 199.550209 304.105148 
L 200.082845 305.598239 
L 200.650991 306.541751 
L 201.219136 307.034135 
L 201.787282 307.202058 
L 202.390936 307.116896 
L 203.083364 306.773566 
L 203.988845 306.04456 
L 205.231664 304.717334 
L 207.220173 302.215503 
L 212.9904 294.824304 
L 217.837391 289.154624 
L 220.4118 285.951347 
L 221.885427 283.768175 
L 222.915191 281.849232 
L 223.660882 279.999317 
L 224.229027 277.973818 
L 224.637382 275.648528 
L 224.9037 272.924494 
L 225.081245 269.169641 
L 225.205527 259.923632 
L 225.241036 246.425413 
L 225.525109 96.552294 
L 225.596127 94.203632 
L 225.667145 94.755113 
L 225.862445 102.67259 
L 226.164273 127.027582 
L 226.679155 196.026224 
L 227.229545 257.76832 
L 227.6379 279.12633 
L 228.046255 289.443051 
L 228.454609 294.808757 
L 228.933982 298.43777 
L 229.502127 301.045819 
L 230.105782 302.783075 
L 230.691682 303.853191 
L 231.313091 304.535465 
L 231.898991 304.869505 
L 232.538155 304.977938 
L 233.266091 304.858378 
L 234.136064 304.469277 
L 235.236845 303.714548 
L 236.781491 302.356513 
L 239.320391 299.787248 
L 247.398709 291.50372 
L 251.428991 287.307262 
L 253.310973 285.033556 
L 254.607055 283.131291 
L 255.548045 281.369042 
L 256.258227 279.571038 
L 256.790864 277.603731 
L 257.181464 275.271663 
L 257.447782 272.272973 
L 257.607573 268.329007 
L 257.696345 261.826068 
L 257.767364 238.675158 
L 257.998173 100.162602 
L 258.122455 94.895617 
L 258.157964 95.50393 
L 258.264491 98.97985 
L 258.566318 119.370497 
L 258.956918 163.714979 
L 259.755873 256.31931 
L 260.181982 278.232436 
L 260.590336 288.364228 
L 261.016445 293.747072 
L 261.495818 297.16437 
L 262.028455 299.504706 
L 262.649864 301.251583 
L 263.271273 302.369275 
L 263.892682 303.064558 
L 264.531845 303.459734 
L 265.206518 303.614128 
L 265.952209 303.549468 
L 266.839936 303.237227 
L 267.940718 302.60268 
L 269.449855 301.453604 
L 271.722436 299.41677 
L 281.167855 290.414264 
L 284.434691 287.107695 
L 286.281164 284.935174 
L 287.577245 283.078371 
L 288.518236 281.356779 
L 289.246173 279.552906 
L 289.778809 277.624863 
L 290.151655 275.48804 
L 290.435727 272.50655 
L 290.631027 267.376159 
L 290.7198 258.980404 
L 290.844082 161.686052 
L 291.003873 99.302123 
L 291.128155 95.188755 
L 291.163664 95.718093 
L 291.341209 103.166353 
L 291.643036 126.8146 
L 292.175673 192.710318 
L 292.761573 255.810597 
L 293.152173 276.352002 
L 293.560527 287.274785 
L 294.004391 293.21211 
L 294.483764 296.761569 
L 295.051909 299.293933 
L 295.673318 301.038794 
L 296.276973 302.133291 
L 296.916136 302.85919 
L 297.5553 303.262524 
L 298.247727 303.429102 
L 299.028927 303.365355 
L 299.952164 303.041484 
L 301.123964 302.36419 
L 302.668609 301.191122 
L 305.136491 298.996491 
L 315.434127 289.290256 
L 318.150573 286.476434 
L 319.837255 284.418879 
L 321.062318 282.569229 
L 321.950045 280.820951 
L 322.589209 279.092948 
L 323.068582 277.193036 
L 323.423673 274.916566 
L 323.672236 271.97184 
L 323.849782 266.436876 
L 323.938555 255.570538 
L 323.974064 235.007166 
L 324.204873 100.548526 
L 324.3114 94.970798 
L 324.346909 95.449547 
L 324.453436 98.465923 
L 324.755264 118.53468 
L 325.163618 164.151691 
L 325.962573 255.631082 
L 326.388682 277.62975 
L 326.797036 287.989811 
L 327.2409 293.650383 
L 327.738027 297.147289 
L 328.306173 299.546461 
L 328.927582 301.202886 
L 329.5845 302.308116 
L 330.223664 302.957784 
L 330.880582 303.31015 
L 331.555255 303.424353 
L 332.354209 303.317316 
L 333.2952 302.948099 
L 334.484755 302.225359 
L 336.135927 300.935915 
L 338.834618 298.50339 
L 350.179773 287.7512 
L 352.274809 285.427733 
L 353.677418 283.558327 
L 354.707182 281.833868 
L 355.488382 280.098176 
L 356.074282 278.249982 
L 356.518145 276.060468 
L 356.819973 273.424208 
L 357.015273 269.856982 
L 357.139555 263.444417 
L 357.210573 244.381551 
L 357.476891 97.980081 
L 357.565664 95.134569 
L 357.618927 95.719132 
L 357.778718 102.261798 
L 358.116055 128.877282 
L 358.648691 195.361097 
L 359.216836 256.060254 
L 359.625191 277.359627 
L 360.033545 287.956578 
L 360.459655 293.551785 
L 360.939027 297.045891 
L 361.453909 299.335616 
L 362.057564 301.051488 
L 362.678973 302.183 
L 363.318136 302.90226 
L 363.975055 303.305503 
L 364.649727 303.457927 
L 364.862782 303.462042 
L 364.969309 305.668264 
L 365.306645 312.958564 
L 365.786018 318.099436 
L 366.460691 322.736883 
L 367.348418 327.288162 
L 368.395936 331.51311 
L 369.532227 335.217545 
L 370.775045 338.553381 
L 372.1599 341.640573 
L 373.633527 344.38973 
L 375.213682 346.876661 
L 376.900364 349.128659 
L 378.729082 351.206987 
L 380.735345 353.148456 
L 382.9014 354.933825 
L 385.262755 356.592419 
L 387.890427 358.162166 
L 390.819927 359.644942 
L 394.051255 361.026407 
L 397.655427 362.32293 
L 401.685709 363.535153 
L 406.248627 364.671089 
L 411.326427 365.703101 
L 417.043391 366.633383 
L 423.399518 367.438317 
L 430.5546 368.114639 
L 435.8277 368.487076 
L 435.8277 368.487076 
" style="fill:none;stroke:#1f77b4;stroke-linecap:square;stroke-width:1.5;"/>
   </g>
   <g id="line2d_12">
    <path clip-path="url(#p2edaf16a4c)" d="M 80.754545 364.593264 
L 80.9676 364.451448 
L 81.606764 364.376823 
L 83.328955 364.454532 
L 101.385327 365.711484 
L 109.907509 365.903981 
L 121.962845 365.932878 
L 151.772727 365.777068 
L 151.985782 355.598093 
L 152.411891 346.301014 
L 153.104318 336.244514 
L 154.080818 325.361034 
L 155.146091 315.860492 
L 156.175855 308.563105 
L 157.187864 302.911712 
L 158.217627 298.371927 
L 159.318409 294.493346 
L 160.561227 290.923023 
L 162.088118 287.235849 
L 165.479236 279.313497 
L 166.171664 276.908228 
L 166.651036 274.417539 
L 166.988373 271.430239 
L 167.219182 267.182798 
L 167.361218 259.554994 
L 167.432236 241.022009 
L 167.609782 74.734432 
L 167.698555 78.570714 
L 168.462 139.617198 
L 168.675055 171.873789 
L 168.905864 249.278265 
L 169.154427 305.739618 
L 169.331973 309.610501 
L 169.367482 309.609102 
L 169.385236 309.567995 
L 169.545027 308.625193 
L 169.917873 306.689584 
L 170.113173 306.480761 
L 170.272964 306.607021 
L 170.574791 307.232442 
L 171.888627 310.261657 
L 172.616564 311.277867 
L 173.308991 311.901391 
L 173.593064 311.859968 
L 174.036927 311.534186 
L 174.729355 310.722187 
L 175.794627 309.091923 
L 177.6411 305.788354 
L 181.582609 298.710701 
L 183.801927 295.221544 
L 185.985736 292.198933 
L 188.329336 289.338465 
L 191.294345 286.09418 
L 195.200345 281.809595 
L 196.549691 279.979255 
L 197.490682 278.336961 
L 198.183109 276.686683 
L 198.715745 274.822512 
L 199.106345 272.622908 
L 199.390418 269.713564 
L 199.585718 265.268173 
L 199.71 255.983972 
L 199.763264 236.537467 
L 199.923055 80.85542 
L 199.976318 82.748027 
L 200.455691 127.689079 
L 200.704255 178.158034 
L 201.290155 311.421122 
L 201.325664 311.504797 
L 201.378927 311.346867 
L 201.609736 309.344611 
L 201.947073 307.234415 
L 202.177882 306.848811 
L 202.337673 306.904906 
L 202.603991 307.308959 
L 203.172136 308.183188 
L 203.616 308.422649 
L 204.095373 308.429375 
L 204.645764 308.199454 
L 205.338191 307.646636 
L 206.261427 306.598784 
L 207.628527 304.670743 
L 214.996664 293.740519 
L 217.322509 290.950532 
L 219.879164 288.23517 
L 223.607618 284.642761 
L 226.448345 281.790583 
L 227.868709 280.058916 
L 228.862964 278.506595 
L 229.608655 276.925802 
L 230.159045 275.240737 
L 230.585155 273.200362 
L 230.904736 270.486433 
L 231.117791 266.693102 
L 231.259827 259.524884 
L 231.330845 243.574058 
L 231.508391 81.113121 
L 231.632673 89.973632 
L 232.1298 145.930298 
L 232.413873 228.95846 
L 232.7157 308.293353 
L 232.875491 311.7751 
L 232.893245 311.773859 
L 232.982018 311.323079 
L 233.603427 307.129237 
L 233.816482 306.96526 
L 234.011782 307.138201 
L 234.775227 308.039574 
L 235.2546 308.20873 
L 235.751727 308.152087 
L 236.337627 307.850354 
L 237.083318 307.197345 
L 238.095327 305.9915 
L 239.657727 303.743121 
L 245.285918 295.390422 
L 247.594009 292.495016 
L 249.973118 289.868126 
L 252.707318 287.189151 
L 259.400782 280.801278 
L 260.590336 279.236471 
L 261.460309 277.72593 
L 262.117227 276.127179 
L 262.614355 274.306664 
L 262.9872 272.050578 
L 263.253518 269.012859 
L 263.431064 264.355679 
L 263.537591 255.419403 
L 263.590855 233.895999 
L 263.750645 81.27221 
L 263.803909 83.417088 
L 264.283282 129.780309 
L 264.531845 183.420526 
L 265.064482 311.426706 
L 265.1355 311.778116 
L 265.188764 311.59544 
L 265.437327 309.37213 
L 265.774664 307.333926 
L 266.005473 306.982468 
L 266.183018 307.06562 
L 267.354818 308.183695 
L 267.851945 308.192533 
L 268.402336 307.972972 
L 269.094764 307.441439 
L 270.018 306.428643 
L 271.367345 304.584522 
L 275.060291 298.978469 
L 277.599191 295.416695 
L 279.889527 292.583818 
L 282.250882 290.018304 
L 284.914064 287.460378 
L 292.601782 280.314159 
L 293.702564 278.81274 
L 294.501518 277.356019 
L 295.105173 275.804907 
L 295.566791 274.018209 
L 295.921882 271.737127 
L 296.170445 268.719737 
L 296.347991 263.606487 
L 296.454518 252.166106 
L 296.507782 212.171216 
L 296.649818 81.415966 
L 296.667573 81.545891 
L 296.7741 89.581609 
L 297.288982 148.339499 
L 297.573055 233.890319 
L 297.857127 307.948312 
L 298.034673 311.770492 
L 298.105691 311.487653 
L 298.833627 307.024248 
L 299.011173 307.00604 
L 299.241982 307.290171 
L 299.7036 307.869324 
L 300.200727 308.159104 
L 300.697855 308.195886 
L 301.248245 308.002204 
L 301.922918 307.512694 
L 302.8284 306.553514 
L 304.124482 304.822412 
L 306.894191 300.645057 
L 309.770427 296.488951 
L 312.078518 293.544373 
L 314.368855 290.980124 
L 316.854491 288.533699 
L 319.943782 285.822081 
L 324.8973 281.505186 
L 326.353173 279.906569 
L 327.382936 278.450751 
L 328.146382 276.984822 
L 328.732282 275.36107 
L 329.176145 273.44257 
L 329.495727 271.078601 
L 329.726536 267.722292 
L 329.886327 261.706375 
L 329.9751 247.734091 
L 330.028364 175.090161 
L 330.1704 81.572425 
L 330.259173 87.670709 
L 330.791809 147.664404 
L 331.075882 232.747036 
L 331.359955 307.769895 
L 331.5375 311.765214 
L 331.590764 311.605748 
L 331.821573 309.563078 
L 332.158909 307.398482 
L 332.389718 306.985951 
L 332.567264 307.042724 
L 332.9046 307.531183 
L 333.419482 308.011694 
L 333.916609 308.190198 
L 334.431491 308.133314 
L 335.035145 307.823599 
L 335.798591 307.158775 
L 336.846109 305.92114 
L 338.479527 303.600804 
L 343.6461 296.076498 
L 345.936436 293.236122 
L 348.226773 290.747965 
L 350.730164 288.360307 
L 353.854964 285.70582 
L 358.897255 281.453707 
L 360.370882 279.884075 
L 361.400645 278.473261 
L 362.164091 277.060933 
L 362.749991 275.514396 
L 363.193855 273.725871 
L 363.531191 271.450085 
L 363.779755 268.192314 
L 363.939545 263.134676 
L 364.028318 254.190199 
L 364.081582 226.915598 
L 364.241373 81.567011 
L 364.259127 81.99596 
L 364.418918 95.478868 
L 364.827273 139.818127 
L 365.200118 267.95695 
L 365.413173 315.775423 
L 365.608473 321.6353 
L 365.803773 322.454435 
L 366.070091 323.231576 
L 366.407427 325.22229 
L 368.023091 335.973005 
L 368.999591 340.593735 
L 370.047109 344.503808 
L 371.1834 347.900071 
L 372.408464 350.8678 
L 373.7223 353.477769 
L 375.142664 355.814416 
L 376.687309 357.932984 
L 378.373991 359.868522 
L 380.184955 361.609787 
L 382.137955 363.180364 
L 384.232991 364.579287 
L 386.452309 365.794546 
L 388.813664 366.833907 
L 391.317055 367.692515 
L 393.997991 368.375339 
L 396.891982 368.880791 
L 400.0878 369.209489 
L 403.727482 369.354267 
L 408.0951 369.29677 
L 414.060627 368.9781 
L 435.845455 367.614748 
L 435.845455 367.614748 
" style="fill:none;stroke:#ff0000;stroke-linecap:square;stroke-width:1.5;"/>
   </g>
   <g id="patch_3">
    <path d="M 63 384.48 
L 63 51.84 
" style="fill:none;stroke:#000000;stroke-linecap:square;stroke-linejoin:miter;stroke-width:0.8;"/>
   </g>
   <g id="patch_4">
    <path d="M 453.6 384.48 
L 453.6 51.84 
" style="fill:none;stroke:#000000;stroke-linecap:square;stroke-linejoin:miter;stroke-width:0.8;"/>
   </g>
   <g id="patch_5">
    <path d="M 63 384.48 
L 453.6 384.48 
" style="fill:none;stroke:#000000;stroke-linecap:square;stroke-linejoin:miter;stroke-width:0.8;"/>
   </g>
   <g id="patch_6">
    <path d="M 63 51.84 
L 453.6 51.84 
" style="fill:none;stroke:#000000;stroke-linecap:square;stroke-linejoin:miter;stroke-width:0.8;"/>
   </g>
   <g id="legend_1">
    <g id="patch_7">
     <path d="M 383.460938 89.19625 
L 446.6 89.19625 
Q 448.6 89.19625 448.6 87.19625 
L 448.6 58.84 
Q 448.6 56.84 446.6 56.84 
L 383.460938 56.84 
Q 381.460938 56.84 381.460938 58.84 
L 381.460938 87.19625 
Q 381.460938 89.19625 383.460938 89.19625 
z
" style="fill:#ffffff;opacity:0.8;stroke:#cccccc;stroke-linejoin:miter;"/>
    </g>
    <g id="line2d_13">
     <path d="M 385.460938 64.938437 
L 405.460938 64.938437 
" style="fill:none;stroke:#1f77b4;stroke-linecap:square;stroke-width:1.5;"/>
    </g>
    <g id="line2d_14"/>
    <g id="text_13">
     <!-- target -->
     <defs>
      <path d="M 41.109375 46.296875 
Q 39.59375 47.171875 37.8125 47.578125 
Q 36.03125 48 33.890625 48 
Q 26.265625 48 22.1875 43.046875 
Q 18.109375 38.09375 18.109375 28.8125 
L 18.109375 0 
L 9.078125 0 
L 9.078125 54.6875 
L 18.109375 54.6875 
L 18.109375 46.1875 
Q 20.953125 51.171875 25.484375 53.578125 
Q 30.03125 56 36.53125 56 
Q 37.453125 56 38.578125 55.875 
Q 39.703125 55.765625 41.0625 55.515625 
z
" id="DejaVuSans-114"/>
     </defs>
     <g transform="translate(413.460938 68.438437)scale(0.1 -0.1)">
      <use xlink:href="#DejaVuSans-116"/>
      <use x="39.208984" xlink:href="#DejaVuSans-97"/>
      <use x="100.488281" xlink:href="#DejaVuSans-114"/>
      <use x="141.585938" xlink:href="#DejaVuSans-103"/>
      <use x="205.0625" xlink:href="#DejaVuSans-101"/>
      <use x="266.585938" xlink:href="#DejaVuSans-116"/>
     </g>
    </g>
    <g id="line2d_15">
     <path d="M 385.460938 79.616562 
L 405.460938 79.616562 
" style="fill:none;stroke:#ff0000;stroke-linecap:square;stroke-width:1.5;"/>
    </g>
    <g id="line2d_16"/>
    <g id="text_14">
     <!-- model -->
     <defs>
      <path d="M 45.40625 46.390625 
L 45.40625 75.984375 
L 54.390625 75.984375 
L 54.390625 0 
L 45.40625 0 
L 45.40625 8.203125 
Q 42.578125 3.328125 38.25 0.953125 
Q 33.9375 -1.421875 27.875 -1.421875 
Q 17.96875 -1.421875 11.734375 6.484375 
Q 5.515625 14.40625 5.515625 27.296875 
Q 5.515625 40.1875 11.734375 48.09375 
Q 17.96875 56 27.875 56 
Q 33.9375 56 38.25 53.625 
Q 42.578125 51.265625 45.40625 46.390625 
z
M 14.796875 27.296875 
Q 14.796875 17.390625 18.875 11.75 
Q 22.953125 6.109375 30.078125 6.109375 
Q 37.203125 6.109375 41.296875 11.75 
Q 45.40625 17.390625 45.40625 27.296875 
Q 45.40625 37.203125 41.296875 42.84375 
Q 37.203125 48.484375 30.078125 48.484375 
Q 22.953125 48.484375 18.875 42.84375 
Q 14.796875 37.203125 14.796875 27.296875 
z
" id="DejaVuSans-100"/>
     </defs>
     <g transform="translate(413.460938 83.116562)scale(0.1 -0.1)">
      <use xlink:href="#DejaVuSans-109"/>
      <use x="97.412109" xlink:href="#DejaVuSans-111"/>
      <use x="158.59375" xlink:href="#DejaVuSans-100"/>
      <use x="222.070312" xlink:href="#DejaVuSans-101"/>
      <use x="283.59375" xlink:href="#DejaVuSans-108"/>
     </g>
    </g>
   </g>
  </g>
 </g>
 <defs>
  <clipPath id="p2edaf16a4c">
   <rect height="332.64" width="390.6" x="63" y="51.84"/>
  </clipPath>
 </defs>
</svg>
