<?xml version="1.0" encoding="utf-8" standalone="no"?>
<!DOCTYPE svg PUBLIC "-//W3C//DTD SVG 1.1//EN"
  "http://www.w3.org/Graphics/SVG/1.1/DTD/svg11.dtd">
<!-- Created with matplotlib (https://matplotlib.org/) -->
<svg height="432pt" version="1.1" viewBox="0 0 504 432" width="504pt" xmlns="http://www.w3.org/2000/svg" xmlns:xlink="http://www.w3.org/1999/xlink">
 <defs>
  <style type="text/css">
*{stroke-linecap:butt;stroke-linejoin:round;}
  </style>
 </defs>
 <g id="figure_1">
  <g id="patch_1">
   <path d="M 0 432 
L 504 432 
L 504 0 
L 0 0 
z
" style="fill:#ffffff;"/>
  </g>
  <g id="axes_1">
   <g id="patch_2">
    <path d="M 63 384.48 
L 453.6 384.48 
L 453.6 51.84 
L 63 51.84 
z
" style="fill:#ffffff;"/>
   </g>
   <g id="matplotlib.axis_1">
    <g id="xtick_1">
     <g id="line2d_1">
      <defs>
       <path d="M 0 0 
L 0 3.5 
" id="mafab74c1c9" style="stroke:#000000;stroke-width:0.8;"/>
      </defs>
      <g>
       <use style="stroke:#000000;stroke-width:0.8;" x="80.754545" xlink:href="#mafab74c1c9" y="384.48"/>
      </g>
     </g>
     <g id="text_1">
      <!-- 0 -->
      <defs>
       <path d="M 31.78125 66.40625 
Q 24.171875 66.40625 20.328125 58.90625 
Q 16.5 51.421875 16.5 36.375 
Q 16.5 21.390625 20.328125 13.890625 
Q 24.171875 6.390625 31.78125 6.390625 
Q 39.453125 6.390625 43.28125 13.890625 
Q 47.125 21.390625 47.125 36.375 
Q 47.125 51.421875 43.28125 58.90625 
Q 39.453125 66.40625 31.78125 66.40625 
z
M 31.78125 74.21875 
Q 44.046875 74.21875 50.515625 64.515625 
Q 56.984375 54.828125 56.984375 36.375 
Q 56.984375 17.96875 50.515625 8.265625 
Q 44.046875 -1.421875 31.78125 -1.421875 
Q 19.53125 -1.421875 13.0625 8.265625 
Q 6.59375 17.96875 6.59375 36.375 
Q 6.59375 54.828125 13.0625 64.515625 
Q 19.53125 74.21875 31.78125 74.21875 
z
" id="DejaVuSans-48"/>
      </defs>
      <g transform="translate(77.573295 399.078438)scale(0.1 -0.1)">
       <use xlink:href="#DejaVuSans-48"/>
      </g>
     </g>
    </g>
    <g id="xtick_2">
     <g id="line2d_2">
      <g>
       <use style="stroke:#000000;stroke-width:0.8;" x="151.772727" xlink:href="#mafab74c1c9" y="384.48"/>
      </g>
     </g>
     <g id="text_2">
      <!-- 200 -->
      <defs>
       <path d="M 19.1875 8.296875 
L 53.609375 8.296875 
L 53.609375 0 
L 7.328125 0 
L 7.328125 8.296875 
Q 12.9375 14.109375 22.625 23.890625 
Q 32.328125 33.6875 34.8125 36.53125 
Q 39.546875 41.84375 41.421875 45.53125 
Q 43.3125 49.21875 43.3125 52.78125 
Q 43.3125 58.59375 39.234375 62.25 
Q 35.15625 65.921875 28.609375 65.921875 
Q 23.96875 65.921875 18.8125 64.3125 
Q 13.671875 62.703125 7.8125 59.421875 
L 7.8125 69.390625 
Q 13.765625 71.78125 18.9375 73 
Q 24.125 74.21875 28.421875 74.21875 
Q 39.75 74.21875 46.484375 68.546875 
Q 53.21875 62.890625 53.21875 53.421875 
Q 53.21875 48.921875 51.53125 44.890625 
Q 49.859375 40.875 45.40625 35.40625 
Q 44.1875 33.984375 37.640625 27.21875 
Q 31.109375 20.453125 19.1875 8.296875 
z
" id="DejaVuSans-50"/>
      </defs>
      <g transform="translate(142.228977 399.078438)scale(0.1 -0.1)">
       <use xlink:href="#DejaVuSans-50"/>
       <use x="63.623047" xlink:href="#DejaVuSans-48"/>
       <use x="127.246094" xlink:href="#DejaVuSans-48"/>
      </g>
     </g>
    </g>
    <g id="xtick_3">
     <g id="line2d_3">
      <g>
       <use style="stroke:#000000;stroke-width:0.8;" x="222.790909" xlink:href="#mafab74c1c9" y="384.48"/>
      </g>
     </g>
     <g id="text_3">
      <!-- 400 -->
      <defs>
       <path d="M 37.796875 64.3125 
L 12.890625 25.390625 
L 37.796875 25.390625 
z
M 35.203125 72.90625 
L 47.609375 72.90625 
L 47.609375 25.390625 
L 58.015625 25.390625 
L 58.015625 17.1875 
L 47.609375 17.1875 
L 47.609375 0 
L 37.796875 0 
L 37.796875 17.1875 
L 4.890625 17.1875 
L 4.890625 26.703125 
z
" id="DejaVuSans-52"/>
      </defs>
      <g transform="translate(213.247159 399.078438)scale(0.1 -0.1)">
       <use xlink:href="#DejaVuSans-52"/>
       <use x="63.623047" xlink:href="#DejaVuSans-48"/>
       <use x="127.246094" xlink:href="#DejaVuSans-48"/>
      </g>
     </g>
    </g>
    <g id="xtick_4">
     <g id="line2d_4">
      <g>
       <use style="stroke:#000000;stroke-width:0.8;" x="293.809091" xlink:href="#mafab74c1c9" y="384.48"/>
      </g>
     </g>
     <g id="text_4">
      <!-- 600 -->
      <defs>
       <path d="M 33.015625 40.375 
Q 26.375 40.375 22.484375 35.828125 
Q 18.609375 31.296875 18.609375 23.390625 
Q 18.609375 15.53125 22.484375 10.953125 
Q 26.375 6.390625 33.015625 6.390625 
Q 39.65625 6.390625 43.53125 10.953125 
Q 47.40625 15.53125 47.40625 23.390625 
Q 47.40625 31.296875 43.53125 35.828125 
Q 39.65625 40.375 33.015625 40.375 
z
M 52.59375 71.296875 
L 52.59375 62.3125 
Q 48.875 64.0625 45.09375 64.984375 
Q 41.3125 65.921875 37.59375 65.921875 
Q 27.828125 65.921875 22.671875 59.328125 
Q 17.53125 52.734375 16.796875 39.40625 
Q 19.671875 43.65625 24.015625 45.921875 
Q 28.375 48.1875 33.59375 48.1875 
Q 44.578125 48.1875 50.953125 41.515625 
Q 57.328125 34.859375 57.328125 23.390625 
Q 57.328125 12.15625 50.6875 5.359375 
Q 44.046875 -1.421875 33.015625 -1.421875 
Q 20.359375 -1.421875 13.671875 8.265625 
Q 6.984375 17.96875 6.984375 36.375 
Q 6.984375 53.65625 15.1875 63.9375 
Q 23.390625 74.21875 37.203125 74.21875 
Q 40.921875 74.21875 44.703125 73.484375 
Q 48.484375 72.75 52.59375 71.296875 
z
" id="DejaVuSans-54"/>
      </defs>
      <g transform="translate(284.265341 399.078438)scale(0.1 -0.1)">
       <use xlink:href="#DejaVuSans-54"/>
       <use x="63.623047" xlink:href="#DejaVuSans-48"/>
       <use x="127.246094" xlink:href="#DejaVuSans-48"/>
      </g>
     </g>
    </g>
    <g id="xtick_5">
     <g id="line2d_5">
      <g>
       <use style="stroke:#000000;stroke-width:0.8;" x="364.827273" xlink:href="#mafab74c1c9" y="384.48"/>
      </g>
     </g>
     <g id="text_5">
      <!-- 800 -->
      <defs>
       <path d="M 31.78125 34.625 
Q 24.75 34.625 20.71875 30.859375 
Q 16.703125 27.09375 16.703125 20.515625 
Q 16.703125 13.921875 20.71875 10.15625 
Q 24.75 6.390625 31.78125 6.390625 
Q 38.8125 6.390625 42.859375 10.171875 
Q 46.921875 13.96875 46.921875 20.515625 
Q 46.921875 27.09375 42.890625 30.859375 
Q 38.875 34.625 31.78125 34.625 
z
M 21.921875 38.8125 
Q 15.578125 40.375 12.03125 44.71875 
Q 8.5 49.078125 8.5 55.328125 
Q 8.5 64.0625 14.71875 69.140625 
Q 20.953125 74.21875 31.78125 74.21875 
Q 42.671875 74.21875 48.875 69.140625 
Q 55.078125 64.0625 55.078125 55.328125 
Q 55.078125 49.078125 51.53125 44.71875 
Q 48 40.375 41.703125 38.8125 
Q 48.828125 37.15625 52.796875 32.3125 
Q 56.78125 27.484375 56.78125 20.515625 
Q 56.78125 9.90625 50.3125 4.234375 
Q 43.84375 -1.421875 31.78125 -1.421875 
Q 19.734375 -1.421875 13.25 4.234375 
Q 6.78125 9.90625 6.78125 20.515625 
Q 6.78125 27.484375 10.78125 32.3125 
Q 14.796875 37.15625 21.921875 38.8125 
z
M 18.3125 54.390625 
Q 18.3125 48.734375 21.84375 45.5625 
Q 25.390625 42.390625 31.78125 42.390625 
Q 38.140625 42.390625 41.71875 45.5625 
Q 45.3125 48.734375 45.3125 54.390625 
Q 45.3125 60.0625 41.71875 63.234375 
Q 38.140625 66.40625 31.78125 66.40625 
Q 25.390625 66.40625 21.84375 63.234375 
Q 18.3125 60.0625 18.3125 54.390625 
z
" id="DejaVuSans-56"/>
      </defs>
      <g transform="translate(355.283523 399.078438)scale(0.1 -0.1)">
       <use xlink:href="#DejaVuSans-56"/>
       <use x="63.623047" xlink:href="#DejaVuSans-48"/>
       <use x="127.246094" xlink:href="#DejaVuSans-48"/>
      </g>
     </g>
    </g>
    <g id="text_6">
     <!-- time [ms] -->
     <defs>
      <path d="M 18.3125 70.21875 
L 18.3125 54.6875 
L 36.8125 54.6875 
L 36.8125 47.703125 
L 18.3125 47.703125 
L 18.3125 18.015625 
Q 18.3125 11.328125 20.140625 9.421875 
Q 21.96875 7.515625 27.59375 7.515625 
L 36.8125 7.515625 
L 36.8125 0 
L 27.59375 0 
Q 17.1875 0 13.234375 3.875 
Q 9.28125 7.765625 9.28125 18.015625 
L 9.28125 47.703125 
L 2.6875 47.703125 
L 2.6875 54.6875 
L 9.28125 54.6875 
L 9.28125 70.21875 
z
" id="DejaVuSans-116"/>
      <path d="M 9.421875 54.6875 
L 18.40625 54.6875 
L 18.40625 0 
L 9.421875 0 
z
M 9.421875 75.984375 
L 18.40625 75.984375 
L 18.40625 64.59375 
L 9.421875 64.59375 
z
" id="DejaVuSans-105"/>
      <path d="M 52 44.1875 
Q 55.375 50.25 60.0625 53.125 
Q 64.75 56 71.09375 56 
Q 79.640625 56 84.28125 50.015625 
Q 88.921875 44.046875 88.921875 33.015625 
L 88.921875 0 
L 79.890625 0 
L 79.890625 32.71875 
Q 79.890625 40.578125 77.09375 44.375 
Q 74.3125 48.1875 68.609375 48.1875 
Q 61.625 48.1875 57.5625 43.546875 
Q 53.515625 38.921875 53.515625 30.90625 
L 53.515625 0 
L 44.484375 0 
L 44.484375 32.71875 
Q 44.484375 40.625 41.703125 44.40625 
Q 38.921875 48.1875 33.109375 48.1875 
Q 26.21875 48.1875 22.15625 43.53125 
Q 18.109375 38.875 18.109375 30.90625 
L 18.109375 0 
L 9.078125 0 
L 9.078125 54.6875 
L 18.109375 54.6875 
L 18.109375 46.1875 
Q 21.1875 51.21875 25.484375 53.609375 
Q 29.78125 56 35.6875 56 
Q 41.65625 56 45.828125 52.96875 
Q 50 49.953125 52 44.1875 
z
" id="DejaVuSans-109"/>
      <path d="M 56.203125 29.59375 
L 56.203125 25.203125 
L 14.890625 25.203125 
Q 15.484375 15.921875 20.484375 11.0625 
Q 25.484375 6.203125 34.421875 6.203125 
Q 39.59375 6.203125 44.453125 7.46875 
Q 49.3125 8.734375 54.109375 11.28125 
L 54.109375 2.78125 
Q 49.265625 0.734375 44.1875 -0.34375 
Q 39.109375 -1.421875 33.890625 -1.421875 
Q 20.796875 -1.421875 13.15625 6.1875 
Q 5.515625 13.8125 5.515625 26.8125 
Q 5.515625 40.234375 12.765625 48.109375 
Q 20.015625 56 32.328125 56 
Q 43.359375 56 49.78125 48.890625 
Q 56.203125 41.796875 56.203125 29.59375 
z
M 47.21875 32.234375 
Q 47.125 39.59375 43.09375 43.984375 
Q 39.0625 48.390625 32.421875 48.390625 
Q 24.90625 48.390625 20.390625 44.140625 
Q 15.875 39.890625 15.1875 32.171875 
z
" id="DejaVuSans-101"/>
      <path id="DejaVuSans-32"/>
      <path d="M 8.59375 75.984375 
L 29.296875 75.984375 
L 29.296875 69 
L 17.578125 69 
L 17.578125 -6.203125 
L 29.296875 -6.203125 
L 29.296875 -13.1875 
L 8.59375 -13.1875 
z
" id="DejaVuSans-91"/>
      <path d="M 44.28125 53.078125 
L 44.28125 44.578125 
Q 40.484375 46.53125 36.375 47.5 
Q 32.28125 48.484375 27.875 48.484375 
Q 21.1875 48.484375 17.84375 46.4375 
Q 14.5 44.390625 14.5 40.28125 
Q 14.5 37.15625 16.890625 35.375 
Q 19.28125 33.59375 26.515625 31.984375 
L 29.59375 31.296875 
Q 39.15625 29.25 43.1875 25.515625 
Q 47.21875 21.78125 47.21875 15.09375 
Q 47.21875 7.46875 41.1875 3.015625 
Q 35.15625 -1.421875 24.609375 -1.421875 
Q 20.21875 -1.421875 15.453125 -0.5625 
Q 10.6875 0.296875 5.421875 2 
L 5.421875 11.28125 
Q 10.40625 8.6875 15.234375 7.390625 
Q 20.0625 6.109375 24.8125 6.109375 
Q 31.15625 6.109375 34.5625 8.28125 
Q 37.984375 10.453125 37.984375 14.40625 
Q 37.984375 18.0625 35.515625 20.015625 
Q 33.0625 21.96875 24.703125 23.78125 
L 21.578125 24.515625 
Q 13.234375 26.265625 9.515625 29.90625 
Q 5.8125 33.546875 5.8125 39.890625 
Q 5.8125 47.609375 11.28125 51.796875 
Q 16.75 56 26.8125 56 
Q 31.78125 56 36.171875 55.265625 
Q 40.578125 54.546875 44.28125 53.078125 
z
" id="DejaVuSans-115"/>
      <path d="M 30.421875 75.984375 
L 30.421875 -13.1875 
L 9.71875 -13.1875 
L 9.71875 -6.203125 
L 21.390625 -6.203125 
L 21.390625 69 
L 9.71875 69 
L 9.71875 75.984375 
z
" id="DejaVuSans-93"/>
     </defs>
     <g transform="translate(234.038281 412.756563)scale(0.1 -0.1)">
      <use xlink:href="#DejaVuSans-116"/>
      <use x="39.208984" xlink:href="#DejaVuSans-105"/>
      <use x="66.992188" xlink:href="#DejaVuSans-109"/>
      <use x="164.404297" xlink:href="#DejaVuSans-101"/>
      <use x="225.927734" xlink:href="#DejaVuSans-32"/>
      <use x="257.714844" xlink:href="#DejaVuSans-91"/>
      <use x="296.728516" xlink:href="#DejaVuSans-109"/>
      <use x="394.140625" xlink:href="#DejaVuSans-115"/>
      <use x="446.240234" xlink:href="#DejaVuSans-93"/>
     </g>
    </g>
   </g>
   <g id="matplotlib.axis_2">
    <g id="ytick_1">
     <g id="line2d_6">
      <defs>
       <path d="M 0 0 
L -3.5 0 
" id="m3b04aa7c1f" style="stroke:#000000;stroke-width:0.8;"/>
      </defs>
      <g>
       <use style="stroke:#000000;stroke-width:0.8;" x="63" xlink:href="#m3b04aa7c1f" y="348.089347"/>
      </g>
     </g>
     <g id="text_7">
      <!-- −60 -->
      <defs>
       <path d="M 10.59375 35.5 
L 73.1875 35.5 
L 73.1875 27.203125 
L 10.59375 27.203125 
z
" id="DejaVuSans-8722"/>
      </defs>
      <g transform="translate(34.895313 351.888565)scale(0.1 -0.1)">
       <use xlink:href="#DejaVuSans-8722"/>
       <use x="83.789062" xlink:href="#DejaVuSans-54"/>
       <use x="147.412109" xlink:href="#DejaVuSans-48"/>
      </g>
     </g>
    </g>
    <g id="ytick_2">
     <g id="line2d_7">
      <g>
       <use style="stroke:#000000;stroke-width:0.8;" x="63" xlink:href="#m3b04aa7c1f" y="280.979542"/>
      </g>
     </g>
     <g id="text_8">
      <!-- −40 -->
      <g transform="translate(34.895313 284.77876)scale(0.1 -0.1)">
       <use xlink:href="#DejaVuSans-8722"/>
       <use x="83.789062" xlink:href="#DejaVuSans-52"/>
       <use x="147.412109" xlink:href="#DejaVuSans-48"/>
      </g>
     </g>
    </g>
    <g id="ytick_3">
     <g id="line2d_8">
      <g>
       <use style="stroke:#000000;stroke-width:0.8;" x="63" xlink:href="#m3b04aa7c1f" y="213.869737"/>
      </g>
     </g>
     <g id="text_9">
      <!-- −20 -->
      <g transform="translate(34.895313 217.668956)scale(0.1 -0.1)">
       <use xlink:href="#DejaVuSans-8722"/>
       <use x="83.789062" xlink:href="#DejaVuSans-50"/>
       <use x="147.412109" xlink:href="#DejaVuSans-48"/>
      </g>
     </g>
    </g>
    <g id="ytick_4">
     <g id="line2d_9">
      <g>
       <use style="stroke:#000000;stroke-width:0.8;" x="63" xlink:href="#m3b04aa7c1f" y="146.759932"/>
      </g>
     </g>
     <g id="text_10">
      <!-- 0 -->
      <g transform="translate(49.6375 150.559151)scale(0.1 -0.1)">
       <use xlink:href="#DejaVuSans-48"/>
      </g>
     </g>
    </g>
    <g id="ytick_5">
     <g id="line2d_10">
      <g>
       <use style="stroke:#000000;stroke-width:0.8;" x="63" xlink:href="#m3b04aa7c1f" y="79.650127"/>
      </g>
     </g>
     <g id="text_11">
      <!-- 20 -->
      <g transform="translate(43.275 83.449346)scale(0.1 -0.1)">
       <use xlink:href="#DejaVuSans-50"/>
       <use x="63.623047" xlink:href="#DejaVuSans-48"/>
      </g>
     </g>
    </g>
    <g id="text_12">
     <!-- voltage [V] -->
     <defs>
      <path d="M 2.984375 54.6875 
L 12.5 54.6875 
L 29.59375 8.796875 
L 46.6875 54.6875 
L 56.203125 54.6875 
L 35.6875 0 
L 23.484375 0 
z
" id="DejaVuSans-118"/>
      <path d="M 30.609375 48.390625 
Q 23.390625 48.390625 19.1875 42.75 
Q 14.984375 37.109375 14.984375 27.296875 
Q 14.984375 17.484375 19.15625 11.84375 
Q 23.34375 6.203125 30.609375 6.203125 
Q 37.796875 6.203125 41.984375 11.859375 
Q 46.1875 17.53125 46.1875 27.296875 
Q 46.1875 37.015625 41.984375 42.703125 
Q 37.796875 48.390625 30.609375 48.390625 
z
M 30.609375 56 
Q 42.328125 56 49.015625 48.375 
Q 55.71875 40.765625 55.71875 27.296875 
Q 55.71875 13.875 49.015625 6.21875 
Q 42.328125 -1.421875 30.609375 -1.421875 
Q 18.84375 -1.421875 12.171875 6.21875 
Q 5.515625 13.875 5.515625 27.296875 
Q 5.515625 40.765625 12.171875 48.375 
Q 18.84375 56 30.609375 56 
z
" id="DejaVuSans-111"/>
      <path d="M 9.421875 75.984375 
L 18.40625 75.984375 
L 18.40625 0 
L 9.421875 0 
z
" id="DejaVuSans-108"/>
      <path d="M 34.28125 27.484375 
Q 23.390625 27.484375 19.1875 25 
Q 14.984375 22.515625 14.984375 16.5 
Q 14.984375 11.71875 18.140625 8.90625 
Q 21.296875 6.109375 26.703125 6.109375 
Q 34.1875 6.109375 38.703125 11.40625 
Q 43.21875 16.703125 43.21875 25.484375 
L 43.21875 27.484375 
z
M 52.203125 31.203125 
L 52.203125 0 
L 43.21875 0 
L 43.21875 8.296875 
Q 40.140625 3.328125 35.546875 0.953125 
Q 30.953125 -1.421875 24.3125 -1.421875 
Q 15.921875 -1.421875 10.953125 3.296875 
Q 6 8.015625 6 15.921875 
Q 6 25.140625 12.171875 29.828125 
Q 18.359375 34.515625 30.609375 34.515625 
L 43.21875 34.515625 
L 43.21875 35.40625 
Q 43.21875 41.609375 39.140625 45 
Q 35.0625 48.390625 27.6875 48.390625 
Q 23 48.390625 18.546875 47.265625 
Q 14.109375 46.140625 10.015625 43.890625 
L 10.015625 52.203125 
Q 14.9375 54.109375 19.578125 55.046875 
Q 24.21875 56 28.609375 56 
Q 40.484375 56 46.34375 49.84375 
Q 52.203125 43.703125 52.203125 31.203125 
z
" id="DejaVuSans-97"/>
      <path d="M 45.40625 27.984375 
Q 45.40625 37.75 41.375 43.109375 
Q 37.359375 48.484375 30.078125 48.484375 
Q 22.859375 48.484375 18.828125 43.109375 
Q 14.796875 37.75 14.796875 27.984375 
Q 14.796875 18.265625 18.828125 12.890625 
Q 22.859375 7.515625 30.078125 7.515625 
Q 37.359375 7.515625 41.375 12.890625 
Q 45.40625 18.265625 45.40625 27.984375 
z
M 54.390625 6.78125 
Q 54.390625 -7.171875 48.1875 -13.984375 
Q 42 -20.796875 29.203125 -20.796875 
Q 24.46875 -20.796875 20.265625 -20.09375 
Q 16.0625 -19.390625 12.109375 -17.921875 
L 12.109375 -9.1875 
Q 16.0625 -11.328125 19.921875 -12.34375 
Q 23.78125 -13.375 27.78125 -13.375 
Q 36.625 -13.375 41.015625 -8.765625 
Q 45.40625 -4.15625 45.40625 5.171875 
L 45.40625 9.625 
Q 42.625 4.78125 38.28125 2.390625 
Q 33.9375 0 27.875 0 
Q 17.828125 0 11.671875 7.65625 
Q 5.515625 15.328125 5.515625 27.984375 
Q 5.515625 40.671875 11.671875 48.328125 
Q 17.828125 56 27.875 56 
Q 33.9375 56 38.28125 53.609375 
Q 42.625 51.21875 45.40625 46.390625 
L 45.40625 54.6875 
L 54.390625 54.6875 
z
" id="DejaVuSans-103"/>
      <path d="M 28.609375 0 
L 0.78125 72.90625 
L 11.078125 72.90625 
L 34.1875 11.53125 
L 57.328125 72.90625 
L 67.578125 72.90625 
L 39.796875 0 
z
" id="DejaVuSans-86"/>
     </defs>
     <g transform="translate(28.815625 245.75375)rotate(-90)scale(0.1 -0.1)">
      <use xlink:href="#DejaVuSans-118"/>
      <use x="59.179688" xlink:href="#DejaVuSans-111"/>
      <use x="120.361328" xlink:href="#DejaVuSans-108"/>
      <use x="148.144531" xlink:href="#DejaVuSans-116"/>
      <use x="187.353516" xlink:href="#DejaVuSans-97"/>
      <use x="248.632812" xlink:href="#DejaVuSans-103"/>
      <use x="312.109375" xlink:href="#DejaVuSans-101"/>
      <use x="373.632812" xlink:href="#DejaVuSans-32"/>
      <use x="405.419922" xlink:href="#DejaVuSans-91"/>
      <use x="444.433594" xlink:href="#DejaVuSans-86"/>
      <use x="512.841797" xlink:href="#DejaVuSans-93"/>
     </g>
    </g>
   </g>
   <g id="line2d_11">
    <path clip-path="url(#p3bc34e2f97)" d="M 80.754545 364.86679 
L 81.695536 364.878768 
L 85.708064 365.297035 
L 98.526845 366.620678 
L 108.629182 367.419404 
L 119.459455 368.048572 
L 131.585809 368.525245 
L 145.753936 368.853103 
L 151.772727 368.936943 
L 151.8615 366.914827 
L 152.234345 358.675339 
L 152.731473 352.908313 
L 153.565936 346.094822 
L 154.9863 336.494042 
L 156.726245 326.265579 
L 158.412927 317.617068 
L 160.028591 310.452676 
L 161.590991 304.526845 
L 163.153391 299.479012 
L 164.840073 294.801116 
L 167.236936 288.893579 
L 168.941373 284.459815 
L 169.793591 281.63446 
L 170.361736 279.000264 
L 170.752336 276.146227 
L 171.036409 272.046493 
L 171.1962 264.818563 
L 171.249464 256.782898 
L 171.622309 69.301732 
L 171.675573 66.96 
L 171.746591 67.201135 
L 171.906382 80.035856 
L 172.190455 132.740021 
L 172.847373 251.072108 
L 173.220218 285.592138 
L 173.5398 297.972076 
L 173.912645 304.42769 
L 174.303245 307.805417 
L 174.782618 310.017244 
L 175.226482 311.131524 
L 175.6881 311.723907 
L 176.096455 311.917658 
L 176.522564 311.873926 
L 177.019691 311.580806 
L 177.676609 310.895975 
L 178.528827 309.658427 
L 179.771645 307.43456 
L 182.807673 301.379058 
L 185.470855 296.358626 
L 188.134036 291.840052 
L 192.199827 285.001255 
L 193.336118 282.569907 
L 194.117318 280.358337 
L 194.685464 278.024061 
L 195.093818 275.229723 
L 195.324627 272.27122 
L 195.502173 266.318787 
L 195.573191 257.083827 
L 195.626455 229.594847 
L 195.839509 97.78542 
L 196.017055 89.152918 
L 196.034809 89.111384 
L 196.176845 92.85145 
L 196.407655 109.93116 
L 196.744991 158.746896 
L 197.437418 256.356746 
L 197.810264 281.095014 
L 198.200864 292.819771 
L 198.591464 298.456892 
L 199.070836 302.154221 
L 199.550209 304.323091 
L 200.082845 305.817554 
L 200.650991 306.761934 
L 201.219136 307.25477 
L 201.787282 307.422847 
L 202.390936 307.337607 
L 203.083364 306.993962 
L 203.988845 306.264286 
L 205.231664 304.93584 
L 207.220173 302.431709 
L 212.9904 295.033718 
L 217.837391 289.358827 
L 220.4118 286.152607 
L 221.885427 283.967428 
L 222.915191 282.046722 
L 223.660882 280.195106 
L 224.229027 278.167745 
L 224.637382 275.840319 
L 224.9037 273.113781 
L 225.081245 269.355477 
L 225.205527 260.100971 
L 225.241036 246.590347 
L 225.525109 96.57949 
L 225.596127 94.228669 
L 225.667145 94.780658 
L 225.862445 102.705411 
L 226.164273 127.082786 
L 226.679155 196.144839 
L 227.229545 257.943679 
L 227.6379 279.321316 
L 228.046255 289.647519 
L 228.454609 295.018156 
L 228.933982 298.650505 
L 229.502127 301.260951 
L 230.105782 302.999803 
L 230.691682 304.070902 
L 231.313091 304.753803 
L 231.898991 305.088151 
L 232.538155 305.196683 
L 233.266091 305.077014 
L 234.136064 304.687555 
L 235.236845 303.932132 
L 236.781491 302.572849 
L 239.302636 300.019797 
L 247.398709 291.710082 
L 251.428991 287.509767 
L 253.310973 285.233972 
L 254.607055 283.329959 
L 255.548045 281.56609 
L 256.258227 279.766434 
L 256.790864 277.797318 
L 257.181464 275.463108 
L 257.447782 272.461662 
L 257.607573 268.514071 
L 257.696345 262.005155 
L 257.767364 238.832969 
L 257.998173 100.193116 
L 258.122455 94.921291 
L 258.157964 95.530163 
L 258.264491 99.009277 
L 258.566318 119.418664 
L 258.956918 163.8039 
L 259.755873 256.493337 
L 260.181982 278.426601 
L 260.590336 288.567704 
L 261.016445 293.955496 
L 261.495818 297.375934 
L 262.028455 299.718421 
L 262.649864 301.466904 
L 263.271273 302.585622 
L 263.892682 303.281544 
L 264.531845 303.677084 
L 265.206518 303.831619 
L 265.952209 303.766901 
L 266.839936 303.454372 
L 267.940718 302.819242 
L 269.449855 301.66911 
L 271.722436 299.630404 
L 281.167855 290.619625 
L 284.434691 287.310017 
L 286.281164 285.135499 
L 287.577245 283.27699 
L 288.518236 281.553816 
L 289.246173 279.748285 
L 289.778809 277.81847 
L 290.151655 275.679683 
L 290.435727 272.695453 
L 290.631027 267.560348 
L 290.7198 259.156876 
L 290.844082 161.773108 
L 291.003873 99.331846 
L 291.128155 95.214698 
L 291.163664 95.744523 
L 291.341209 103.199628 
L 291.643036 126.869608 
L 292.175673 192.825886 
L 292.761573 255.984156 
L 293.152173 276.544439 
L 293.560527 287.477261 
L 294.004391 293.420042 
L 294.483764 296.972763 
L 295.051909 299.507455 
L 295.673318 301.253919 
L 296.276973 302.349422 
L 296.916136 303.075988 
L 297.5553 303.479692 
L 298.247727 303.646424 
L 299.028927 303.582618 
L 299.952164 303.258449 
L 301.123964 302.580533 
L 302.668609 301.406387 
L 305.136491 299.209739 
L 315.434127 289.494584 
L 318.150573 286.678175 
L 319.837255 284.61873 
L 321.062318 282.76738 
L 321.950045 281.017495 
L 322.589209 279.287904 
L 323.068582 277.386246 
L 323.423673 275.107684 
L 323.672236 272.160251 
L 323.849782 266.620201 
L 323.938555 255.743877 
L 323.974064 235.161606 
L 324.204873 100.579395 
L 324.3114 94.996541 
L 324.346909 95.47573 
L 324.453436 98.494878 
L 324.755264 118.582079 
L 325.163618 164.241013 
L 325.962573 255.804477 
L 326.388682 277.823361 
L 326.797036 288.192944 
L 327.2409 293.858717 
L 327.738027 297.358838 
L 328.306173 299.760215 
L 328.927582 301.418162 
L 329.5845 302.524407 
L 330.223664 303.174672 
L 330.880582 303.527362 
L 331.555255 303.641671 
L 332.354209 303.534535 
L 333.2952 303.164978 
L 334.484755 302.441574 
L 336.135927 301.150946 
L 338.834618 298.716185 
L 350.179773 287.954114 
L 352.274809 285.628511 
L 353.677418 283.757387 
L 354.707182 282.031343 
L 355.488382 280.294056 
L 356.074282 278.444164 
L 356.518145 276.252637 
L 356.819973 273.613954 
L 357.015273 270.04345 
L 357.139555 263.624991 
L 357.210573 244.544606 
L 357.476891 98.00859 
L 357.565664 95.160462 
L 357.618927 95.745562 
L 357.778718 102.294241 
L 358.116055 128.934186 
L 358.648691 195.479101 
L 359.216836 256.234042 
L 359.625191 277.55299 
L 360.033545 288.15968 
L 360.459655 293.760029 
L 360.939027 297.257347 
L 361.453909 299.549176 
L 362.057564 301.266625 
L 362.678973 302.399176 
L 363.318136 303.119098 
L 363.975055 303.522711 
L 364.649727 303.675275 
L 364.862782 303.679394 
L 364.969309 305.887644 
L 365.306645 313.184644 
L 365.786018 318.33024 
L 366.460691 322.971949 
L 367.348418 327.527411 
L 368.395936 331.756242 
L 369.532227 335.464081 
L 370.775045 338.802983 
L 372.1599 341.893012 
L 373.633527 344.644695 
L 375.213682 347.133912 
L 376.900364 349.38798 
L 378.729082 351.468218 
L 380.735345 353.411472 
L 382.9014 355.198481 
L 385.262755 356.8586 
L 387.890427 358.429789 
L 390.819927 359.913928 
L 394.051255 361.296662 
L 397.655427 362.594377 
L 401.685709 363.807714 
L 406.248627 364.944694 
L 411.326427 365.977654 
L 417.043391 366.908791 
L 423.399518 367.714465 
L 430.5546 368.391408 
L 435.8277 368.764188 
L 435.8277 368.764188 
" style="fill:none;stroke:#1f77b4;stroke-linecap:square;stroke-width:1.5;"/>
   </g>
   <g id="line2d_12">
    <path clip-path="url(#p3bc34e2f97)" d="M 80.754545 364.866798 
L 80.949845 364.610222 
L 81.429218 364.406242 
L 82.476736 364.242771 
L 84.909109 364.126569 
L 90.484036 364.1214 
L 126.490255 364.334768 
L 151.772727 364.325525 
L 151.985782 354.144642 
L 152.411891 344.867498 
L 153.086564 335.098391 
L 154.045309 324.487646 
L 155.092827 315.265488 
L 156.122591 308.102369 
L 157.1346 302.580954 
L 158.164364 298.152303 
L 159.2829 294.308766 
L 160.543473 290.772487 
L 162.123627 287.028602 
L 165.159655 280.001617 
L 165.887591 277.609671 
L 166.384718 275.229495 
L 166.739809 272.444363 
L 166.988373 268.630516 
L 167.148164 262.144069 
L 167.236936 245.33857 
L 167.307955 114.487354 
L 167.396727 77.027603 
L 167.432236 80.030013 
L 167.592027 125.934179 
L 168.035891 246.113996 
L 168.284455 265.98637 
L 168.497509 269.443221 
L 168.533018 269.494111 
L 168.586282 269.390224 
L 168.710564 268.425089 
L 168.888109 264.925904 
L 169.012391 257.846709 
L 169.083409 239.856029 
L 169.2432 94.349503 
L 169.331973 105.996271 
L 170.130927 263.855494 
L 170.432755 274.785435 
L 170.876618 282.613683 
L 171.533536 290.512722 
L 172.1727 295.667483 
L 172.811864 299.091395 
L 173.451027 301.376206 
L 174.090191 302.884538 
L 174.7116 303.816654 
L 175.315255 304.344602 
L 175.918909 304.586194 
L 176.558073 304.599258 
L 177.286009 304.38012 
L 178.173736 303.86307 
L 179.327782 302.910778 
L 180.996709 301.214653 
L 188.7732 292.959402 
L 191.631682 290.432032 
L 194.898518 287.849769 
L 202.959082 281.635567 
L 204.361691 280.168565 
L 205.3737 278.801599 
L 206.137145 277.40679 
L 206.723045 275.879567 
L 207.184664 274.029462 
L 207.522 271.738949 
L 207.770564 268.435511 
L 207.930355 263.20786 
L 208.019127 253.455949 
L 208.072391 219.306688 
L 208.196673 83.33619 
L 208.232182 85.499103 
L 208.374218 123.137664 
L 208.835836 241.28349 
L 209.102155 263.136913 
L 209.368473 270.097408 
L 209.652545 272.43555 
L 210.096409 273.931144 
L 210.593536 275.939772 
L 212.493273 284.548451 
L 213.256718 286.659883 
L 214.037918 288.201404 
L 214.836873 289.311464 
L 215.671336 290.100322 
L 216.541309 290.620654 
L 217.4823 290.921777 
L 218.529818 291.017727 
L 219.754882 290.897156 
L 221.246264 290.516229 
L 223.199264 289.772912 
L 226.039991 288.43165 
L 230.904736 285.858851 
L 235.130318 283.409973 
L 237.509427 281.789947 
L 239.125091 280.430477 
L 240.296891 279.15832 
L 241.166864 277.890762 
L 241.841536 276.511079 
L 242.356418 274.948637 
L 242.747018 273.064596 
L 243.048845 270.473838 
L 243.2619 266.553086 
L 243.386182 260.341364 
L 243.4572 246.72585 
L 243.510464 164.554992 
L 243.616991 83.700917 
L 243.6525 86.374031 
L 243.812291 130.446647 
L 244.256155 242.04443 
L 244.522473 263.709827 
L 244.788791 270.570582 
L 245.072864 272.925685 
L 245.587745 274.862002 
L 246.1914 277.622755 
L 247.434218 283.368199 
L 248.215418 285.876232 
L 248.996618 287.671766 
L 249.795573 288.978251 
L 250.630036 289.926376 
L 251.482255 290.568014 
L 252.387736 290.977411 
L 253.381991 291.183582 
L 254.518282 291.188621 
L 255.885382 290.963371 
L 257.607573 290.442905 
L 260.004436 289.468045 
L 264.123491 287.515371 
L 271.1898 283.920527 
L 274.208073 282.157148 
L 276.107809 280.802205 
L 277.457155 279.575438 
L 278.451409 278.378507 
L 279.214855 277.112343 
L 279.800755 275.709094 
L 280.262373 274.005727 
L 280.617464 271.776971 
L 280.866027 268.754875 
L 281.043573 263.443216 
L 281.132345 254.663635 
L 281.185609 228.262579 
L 281.327645 84.016133 
L 281.363155 87.667827 
L 281.5407 138.786775 
L 281.966809 242.889512 
L 282.233127 263.944077 
L 282.499445 270.520824 
L 282.783518 272.674467 
L 283.227382 274.064913 
L 283.724509 275.94324 
L 285.801791 284.802767 
L 286.600745 286.847862 
L 287.417455 288.340433 
L 288.251918 289.414174 
L 289.121891 290.175427 
L 290.027373 290.676635 
L 291.021627 290.969988 
L 292.140164 291.061457 
L 293.454 290.937501 
L 295.087418 290.548681 
L 297.288982 289.778731 
L 300.804382 288.28303 
L 309.717164 284.179703 
L 313.321336 282.320858 
L 315.469636 280.97537 
L 316.961018 279.789301 
L 318.0618 278.634709 
L 318.896264 277.435807 
L 319.535427 276.124603 
L 320.032555 274.588704 
L 320.423155 272.614849 
L 320.707227 269.979436 
L 320.902527 266.064862 
L 321.026809 258.936334 
L 321.097827 239.302063 
L 321.239864 84.174205 
L 321.328636 96.463164 
L 322.038818 257.239515 
L 322.305136 268.263356 
L 322.571455 271.596515 
L 322.855527 272.705004 
L 323.654482 274.88653 
L 324.329155 277.986103 
L 325.412182 282.758912 
L 326.211136 285.290953 
L 327.010091 287.122829 
L 327.844555 288.494329 
L 328.696773 289.478401 
L 329.5845 290.171172 
L 330.525491 290.627257 
L 331.555255 290.880084 
L 332.744809 290.93625 
L 334.165173 290.76948 
L 335.958382 290.321507 
L 338.461773 289.447176 
L 343.042445 287.567443 
L 354.014755 282.812293 
L 356.695691 281.394263 
L 358.471145 280.215786 
L 359.749473 279.110063 
L 360.708218 277.991734 
L 361.436155 276.806413 
L 362.0043 275.459102 
L 362.448164 273.830863 
L 362.7855 271.750413 
L 363.034064 268.833314 
L 363.211609 263.836513 
L 363.318136 252.720332 
L 363.3714 215.013796 
L 363.495682 84.283769 
L 363.531191 86.626551 
L 363.673227 123.932209 
L 364.134845 241.194116 
L 364.401164 263.116085 
L 364.667482 269.840296 
L 364.845027 273.099755 
L 365.1291 288.256762 
L 365.555209 299.419307 
L 366.123355 308.581043 
L 366.851291 316.820459 
L 367.703509 324.029177 
L 368.662255 330.30317 
L 369.709773 335.721624 
L 370.828309 340.369943 
L 372.035618 344.449195 
L 373.313945 347.99621 
L 374.681045 351.140522 
L 376.136918 353.936469 
L 377.681564 356.429006 
L 379.332736 358.675819 
L 381.090436 360.692992 
L 382.936909 362.475737 
L 384.872155 364.037934 
L 386.896173 365.387854 
L 389.008964 366.5303 
L 391.210527 367.468754 
L 393.536373 368.217129 
L 396.004255 368.775865 
L 398.685191 369.151343 
L 401.667955 369.339316 
L 405.130091 369.327321 
L 409.497709 369.077186 
L 416.723809 368.403753 
L 427.163482 367.474786 
L 434.762427 367.036886 
L 435.845455 366.991824 
L 435.845455 366.991824 
" style="fill:none;stroke:#ff0000;stroke-linecap:square;stroke-width:1.5;"/>
   </g>
   <g id="patch_3">
    <path d="M 63 384.48 
L 63 51.84 
" style="fill:none;stroke:#000000;stroke-linecap:square;stroke-linejoin:miter;stroke-width:0.8;"/>
   </g>
   <g id="patch_4">
    <path d="M 453.6 384.48 
L 453.6 51.84 
" style="fill:none;stroke:#000000;stroke-linecap:square;stroke-linejoin:miter;stroke-width:0.8;"/>
   </g>
   <g id="patch_5">
    <path d="M 63 384.48 
L 453.6 384.48 
" style="fill:none;stroke:#000000;stroke-linecap:square;stroke-linejoin:miter;stroke-width:0.8;"/>
   </g>
   <g id="patch_6">
    <path d="M 63 51.84 
L 453.6 51.84 
" style="fill:none;stroke:#000000;stroke-linecap:square;stroke-linejoin:miter;stroke-width:0.8;"/>
   </g>
   <g id="legend_1">
    <g id="patch_7">
     <path d="M 383.460938 89.19625 
L 446.6 89.19625 
Q 448.6 89.19625 448.6 87.19625 
L 448.6 58.84 
Q 448.6 56.84 446.6 56.84 
L 383.460938 56.84 
Q 381.460938 56.84 381.460938 58.84 
L 381.460938 87.19625 
Q 381.460938 89.19625 383.460938 89.19625 
z
" style="fill:#ffffff;opacity:0.8;stroke:#cccccc;stroke-linejoin:miter;"/>
    </g>
    <g id="line2d_13">
     <path d="M 385.460938 64.938437 
L 405.460938 64.938437 
" style="fill:none;stroke:#1f77b4;stroke-linecap:square;stroke-width:1.5;"/>
    </g>
    <g id="line2d_14"/>
    <g id="text_13">
     <!-- target -->
     <defs>
      <path d="M 41.109375 46.296875 
Q 39.59375 47.171875 37.8125 47.578125 
Q 36.03125 48 33.890625 48 
Q 26.265625 48 22.1875 43.046875 
Q 18.109375 38.09375 18.109375 28.8125 
L 18.109375 0 
L 9.078125 0 
L 9.078125 54.6875 
L 18.109375 54.6875 
L 18.109375 46.1875 
Q 20.953125 51.171875 25.484375 53.578125 
Q 30.03125 56 36.53125 56 
Q 37.453125 56 38.578125 55.875 
Q 39.703125 55.765625 41.0625 55.515625 
z
" id="DejaVuSans-114"/>
     </defs>
     <g transform="translate(413.460938 68.438437)scale(0.1 -0.1)">
      <use xlink:href="#DejaVuSans-116"/>
      <use x="39.208984" xlink:href="#DejaVuSans-97"/>
      <use x="100.488281" xlink:href="#DejaVuSans-114"/>
      <use x="141.585938" xlink:href="#DejaVuSans-103"/>
      <use x="205.0625" xlink:href="#DejaVuSans-101"/>
      <use x="266.585938" xlink:href="#DejaVuSans-116"/>
     </g>
    </g>
    <g id="line2d_15">
     <path d="M 385.460938 79.616562 
L 405.460938 79.616562 
" style="fill:none;stroke:#ff0000;stroke-linecap:square;stroke-width:1.5;"/>
    </g>
    <g id="line2d_16"/>
    <g id="text_14">
     <!-- model -->
     <defs>
      <path d="M 45.40625 46.390625 
L 45.40625 75.984375 
L 54.390625 75.984375 
L 54.390625 0 
L 45.40625 0 
L 45.40625 8.203125 
Q 42.578125 3.328125 38.25 0.953125 
Q 33.9375 -1.421875 27.875 -1.421875 
Q 17.96875 -1.421875 11.734375 6.484375 
Q 5.515625 14.40625 5.515625 27.296875 
Q 5.515625 40.1875 11.734375 48.09375 
Q 17.96875 56 27.875 56 
Q 33.9375 56 38.25 53.625 
Q 42.578125 51.265625 45.40625 46.390625 
z
M 14.796875 27.296875 
Q 14.796875 17.390625 18.875 11.75 
Q 22.953125 6.109375 30.078125 6.109375 
Q 37.203125 6.109375 41.296875 11.75 
Q 45.40625 17.390625 45.40625 27.296875 
Q 45.40625 37.203125 41.296875 42.84375 
Q 37.203125 48.484375 30.078125 48.484375 
Q 22.953125 48.484375 18.875 42.84375 
Q 14.796875 37.203125 14.796875 27.296875 
z
" id="DejaVuSans-100"/>
     </defs>
     <g transform="translate(413.460938 83.116562)scale(0.1 -0.1)">
      <use xlink:href="#DejaVuSans-109"/>
      <use x="97.412109" xlink:href="#DejaVuSans-111"/>
      <use x="158.59375" xlink:href="#DejaVuSans-100"/>
      <use x="222.070312" xlink:href="#DejaVuSans-101"/>
      <use x="283.59375" xlink:href="#DejaVuSans-108"/>
     </g>
    </g>
   </g>
  </g>
 </g>
 <defs>
  <clipPath id="p3bc34e2f97">
   <rect height="332.64" width="390.6" x="63" y="51.84"/>
  </clipPath>
 </defs>
</svg>
