<?xml version="1.0" encoding="utf-8" standalone="no"?>
<!DOCTYPE svg PUBLIC "-//W3C//DTD SVG 1.1//EN"
  "http://www.w3.org/Graphics/SVG/1.1/DTD/svg11.dtd">
<!-- Created with matplotlib (https://matplotlib.org/) -->
<svg height="432pt" version="1.1" viewBox="0 0 504 432" width="504pt" xmlns="http://www.w3.org/2000/svg" xmlns:xlink="http://www.w3.org/1999/xlink">
 <defs>
  <style type="text/css">
*{stroke-linecap:butt;stroke-linejoin:round;}
  </style>
 </defs>
 <g id="figure_1">
  <g id="patch_1">
   <path d="M 0 432 
L 504 432 
L 504 0 
L 0 0 
z
" style="fill:#ffffff;"/>
  </g>
  <g id="axes_1">
   <g id="patch_2">
    <path d="M 63 384.48 
L 453.6 384.48 
L 453.6 51.84 
L 63 51.84 
z
" style="fill:#ffffff;"/>
   </g>
   <g id="matplotlib.axis_1">
    <g id="xtick_1">
     <g id="line2d_1">
      <defs>
       <path d="M 0 0 
L 0 3.5 
" id="m8bc73e88ee" style="stroke:#000000;stroke-width:0.8;"/>
      </defs>
      <g>
       <use style="stroke:#000000;stroke-width:0.8;" x="80.754545" xlink:href="#m8bc73e88ee" y="384.48"/>
      </g>
     </g>
     <g id="text_1">
      <!-- 0 -->
      <defs>
       <path d="M 31.78125 66.40625 
Q 24.171875 66.40625 20.328125 58.90625 
Q 16.5 51.421875 16.5 36.375 
Q 16.5 21.390625 20.328125 13.890625 
Q 24.171875 6.390625 31.78125 6.390625 
Q 39.453125 6.390625 43.28125 13.890625 
Q 47.125 21.390625 47.125 36.375 
Q 47.125 51.421875 43.28125 58.90625 
Q 39.453125 66.40625 31.78125 66.40625 
z
M 31.78125 74.21875 
Q 44.046875 74.21875 50.515625 64.515625 
Q 56.984375 54.828125 56.984375 36.375 
Q 56.984375 17.96875 50.515625 8.265625 
Q 44.046875 -1.421875 31.78125 -1.421875 
Q 19.53125 -1.421875 13.0625 8.265625 
Q 6.59375 17.96875 6.59375 36.375 
Q 6.59375 54.828125 13.0625 64.515625 
Q 19.53125 74.21875 31.78125 74.21875 
z
" id="DejaVuSans-48"/>
      </defs>
      <g transform="translate(77.573295 399.078438)scale(0.1 -0.1)">
       <use xlink:href="#DejaVuSans-48"/>
      </g>
     </g>
    </g>
    <g id="xtick_2">
     <g id="line2d_2">
      <g>
       <use style="stroke:#000000;stroke-width:0.8;" x="151.767796" xlink:href="#m8bc73e88ee" y="384.48"/>
      </g>
     </g>
     <g id="text_2">
      <!-- 720 -->
      <defs>
       <path d="M 8.203125 72.90625 
L 55.078125 72.90625 
L 55.078125 68.703125 
L 28.609375 0 
L 18.3125 0 
L 43.21875 64.59375 
L 8.203125 64.59375 
z
" id="DejaVuSans-55"/>
       <path d="M 19.1875 8.296875 
L 53.609375 8.296875 
L 53.609375 0 
L 7.328125 0 
L 7.328125 8.296875 
Q 12.9375 14.109375 22.625 23.890625 
Q 32.328125 33.6875 34.8125 36.53125 
Q 39.546875 41.84375 41.421875 45.53125 
Q 43.3125 49.21875 43.3125 52.78125 
Q 43.3125 58.59375 39.234375 62.25 
Q 35.15625 65.921875 28.609375 65.921875 
Q 23.96875 65.921875 18.8125 64.3125 
Q 13.671875 62.703125 7.8125 59.421875 
L 7.8125 69.390625 
Q 13.765625 71.78125 18.9375 73 
Q 24.125 74.21875 28.421875 74.21875 
Q 39.75 74.21875 46.484375 68.546875 
Q 53.21875 62.890625 53.21875 53.421875 
Q 53.21875 48.921875 51.53125 44.890625 
Q 49.859375 40.875 45.40625 35.40625 
Q 44.1875 33.984375 37.640625 27.21875 
Q 31.109375 20.453125 19.1875 8.296875 
z
" id="DejaVuSans-50"/>
      </defs>
      <g transform="translate(142.224046 399.078438)scale(0.1 -0.1)">
       <use xlink:href="#DejaVuSans-55"/>
       <use x="63.623047" xlink:href="#DejaVuSans-50"/>
       <use x="127.246094" xlink:href="#DejaVuSans-48"/>
      </g>
     </g>
    </g>
    <g id="xtick_3">
     <g id="line2d_3">
      <g>
       <use style="stroke:#000000;stroke-width:0.8;" x="222.781046" xlink:href="#m8bc73e88ee" y="384.48"/>
      </g>
     </g>
     <g id="text_3">
      <!-- 1440 -->
      <defs>
       <path d="M 12.40625 8.296875 
L 28.515625 8.296875 
L 28.515625 63.921875 
L 10.984375 60.40625 
L 10.984375 69.390625 
L 28.421875 72.90625 
L 38.28125 72.90625 
L 38.28125 8.296875 
L 54.390625 8.296875 
L 54.390625 0 
L 12.40625 0 
z
" id="DejaVuSans-49"/>
       <path d="M 37.796875 64.3125 
L 12.890625 25.390625 
L 37.796875 25.390625 
z
M 35.203125 72.90625 
L 47.609375 72.90625 
L 47.609375 25.390625 
L 58.015625 25.390625 
L 58.015625 17.1875 
L 47.609375 17.1875 
L 47.609375 0 
L 37.796875 0 
L 37.796875 17.1875 
L 4.890625 17.1875 
L 4.890625 26.703125 
z
" id="DejaVuSans-52"/>
      </defs>
      <g transform="translate(210.056046 399.078438)scale(0.1 -0.1)">
       <use xlink:href="#DejaVuSans-49"/>
       <use x="63.623047" xlink:href="#DejaVuSans-52"/>
       <use x="127.246094" xlink:href="#DejaVuSans-52"/>
       <use x="190.869141" xlink:href="#DejaVuSans-48"/>
      </g>
     </g>
    </g>
    <g id="xtick_4">
     <g id="line2d_4">
      <g>
       <use style="stroke:#000000;stroke-width:0.8;" x="293.794296" xlink:href="#m8bc73e88ee" y="384.48"/>
      </g>
     </g>
     <g id="text_4">
      <!-- 2160 -->
      <defs>
       <path d="M 33.015625 40.375 
Q 26.375 40.375 22.484375 35.828125 
Q 18.609375 31.296875 18.609375 23.390625 
Q 18.609375 15.53125 22.484375 10.953125 
Q 26.375 6.390625 33.015625 6.390625 
Q 39.65625 6.390625 43.53125 10.953125 
Q 47.40625 15.53125 47.40625 23.390625 
Q 47.40625 31.296875 43.53125 35.828125 
Q 39.65625 40.375 33.015625 40.375 
z
M 52.59375 71.296875 
L 52.59375 62.3125 
Q 48.875 64.0625 45.09375 64.984375 
Q 41.3125 65.921875 37.59375 65.921875 
Q 27.828125 65.921875 22.671875 59.328125 
Q 17.53125 52.734375 16.796875 39.40625 
Q 19.671875 43.65625 24.015625 45.921875 
Q 28.375 48.1875 33.59375 48.1875 
Q 44.578125 48.1875 50.953125 41.515625 
Q 57.328125 34.859375 57.328125 23.390625 
Q 57.328125 12.15625 50.6875 5.359375 
Q 44.046875 -1.421875 33.015625 -1.421875 
Q 20.359375 -1.421875 13.671875 8.265625 
Q 6.984375 17.96875 6.984375 36.375 
Q 6.984375 53.65625 15.1875 63.9375 
Q 23.390625 74.21875 37.203125 74.21875 
Q 40.921875 74.21875 44.703125 73.484375 
Q 48.484375 72.75 52.59375 71.296875 
z
" id="DejaVuSans-54"/>
      </defs>
      <g transform="translate(281.069296 399.078438)scale(0.1 -0.1)">
       <use xlink:href="#DejaVuSans-50"/>
       <use x="63.623047" xlink:href="#DejaVuSans-49"/>
       <use x="127.246094" xlink:href="#DejaVuSans-54"/>
       <use x="190.869141" xlink:href="#DejaVuSans-48"/>
      </g>
     </g>
    </g>
    <g id="xtick_5">
     <g id="line2d_5">
      <g>
       <use style="stroke:#000000;stroke-width:0.8;" x="364.807547" xlink:href="#m8bc73e88ee" y="384.48"/>
      </g>
     </g>
     <g id="text_5">
      <!-- 2880 -->
      <defs>
       <path d="M 31.78125 34.625 
Q 24.75 34.625 20.71875 30.859375 
Q 16.703125 27.09375 16.703125 20.515625 
Q 16.703125 13.921875 20.71875 10.15625 
Q 24.75 6.390625 31.78125 6.390625 
Q 38.8125 6.390625 42.859375 10.171875 
Q 46.921875 13.96875 46.921875 20.515625 
Q 46.921875 27.09375 42.890625 30.859375 
Q 38.875 34.625 31.78125 34.625 
z
M 21.921875 38.8125 
Q 15.578125 40.375 12.03125 44.71875 
Q 8.5 49.078125 8.5 55.328125 
Q 8.5 64.0625 14.71875 69.140625 
Q 20.953125 74.21875 31.78125 74.21875 
Q 42.671875 74.21875 48.875 69.140625 
Q 55.078125 64.0625 55.078125 55.328125 
Q 55.078125 49.078125 51.53125 44.71875 
Q 48 40.375 41.703125 38.8125 
Q 48.828125 37.15625 52.796875 32.3125 
Q 56.78125 27.484375 56.78125 20.515625 
Q 56.78125 9.90625 50.3125 4.234375 
Q 43.84375 -1.421875 31.78125 -1.421875 
Q 19.734375 -1.421875 13.25 4.234375 
Q 6.78125 9.90625 6.78125 20.515625 
Q 6.78125 27.484375 10.78125 32.3125 
Q 14.796875 37.15625 21.921875 38.8125 
z
M 18.3125 54.390625 
Q 18.3125 48.734375 21.84375 45.5625 
Q 25.390625 42.390625 31.78125 42.390625 
Q 38.140625 42.390625 41.71875 45.5625 
Q 45.3125 48.734375 45.3125 54.390625 
Q 45.3125 60.0625 41.71875 63.234375 
Q 38.140625 66.40625 31.78125 66.40625 
Q 25.390625 66.40625 21.84375 63.234375 
Q 18.3125 60.0625 18.3125 54.390625 
z
" id="DejaVuSans-56"/>
      </defs>
      <g transform="translate(352.082547 399.078438)scale(0.1 -0.1)">
       <use xlink:href="#DejaVuSans-50"/>
       <use x="63.623047" xlink:href="#DejaVuSans-56"/>
       <use x="127.246094" xlink:href="#DejaVuSans-56"/>
       <use x="190.869141" xlink:href="#DejaVuSans-48"/>
      </g>
     </g>
    </g>
    <g id="text_6">
     <!-- time [ms] -->
     <defs>
      <path d="M 18.3125 70.21875 
L 18.3125 54.6875 
L 36.8125 54.6875 
L 36.8125 47.703125 
L 18.3125 47.703125 
L 18.3125 18.015625 
Q 18.3125 11.328125 20.140625 9.421875 
Q 21.96875 7.515625 27.59375 7.515625 
L 36.8125 7.515625 
L 36.8125 0 
L 27.59375 0 
Q 17.1875 0 13.234375 3.875 
Q 9.28125 7.765625 9.28125 18.015625 
L 9.28125 47.703125 
L 2.6875 47.703125 
L 2.6875 54.6875 
L 9.28125 54.6875 
L 9.28125 70.21875 
z
" id="DejaVuSans-116"/>
      <path d="M 9.421875 54.6875 
L 18.40625 54.6875 
L 18.40625 0 
L 9.421875 0 
z
M 9.421875 75.984375 
L 18.40625 75.984375 
L 18.40625 64.59375 
L 9.421875 64.59375 
z
" id="DejaVuSans-105"/>
      <path d="M 52 44.1875 
Q 55.375 50.25 60.0625 53.125 
Q 64.75 56 71.09375 56 
Q 79.640625 56 84.28125 50.015625 
Q 88.921875 44.046875 88.921875 33.015625 
L 88.921875 0 
L 79.890625 0 
L 79.890625 32.71875 
Q 79.890625 40.578125 77.09375 44.375 
Q 74.3125 48.1875 68.609375 48.1875 
Q 61.625 48.1875 57.5625 43.546875 
Q 53.515625 38.921875 53.515625 30.90625 
L 53.515625 0 
L 44.484375 0 
L 44.484375 32.71875 
Q 44.484375 40.625 41.703125 44.40625 
Q 38.921875 48.1875 33.109375 48.1875 
Q 26.21875 48.1875 22.15625 43.53125 
Q 18.109375 38.875 18.109375 30.90625 
L 18.109375 0 
L 9.078125 0 
L 9.078125 54.6875 
L 18.109375 54.6875 
L 18.109375 46.1875 
Q 21.1875 51.21875 25.484375 53.609375 
Q 29.78125 56 35.6875 56 
Q 41.65625 56 45.828125 52.96875 
Q 50 49.953125 52 44.1875 
z
" id="DejaVuSans-109"/>
      <path d="M 56.203125 29.59375 
L 56.203125 25.203125 
L 14.890625 25.203125 
Q 15.484375 15.921875 20.484375 11.0625 
Q 25.484375 6.203125 34.421875 6.203125 
Q 39.59375 6.203125 44.453125 7.46875 
Q 49.3125 8.734375 54.109375 11.28125 
L 54.109375 2.78125 
Q 49.265625 0.734375 44.1875 -0.34375 
Q 39.109375 -1.421875 33.890625 -1.421875 
Q 20.796875 -1.421875 13.15625 6.1875 
Q 5.515625 13.8125 5.515625 26.8125 
Q 5.515625 40.234375 12.765625 48.109375 
Q 20.015625 56 32.328125 56 
Q 43.359375 56 49.78125 48.890625 
Q 56.203125 41.796875 56.203125 29.59375 
z
M 47.21875 32.234375 
Q 47.125 39.59375 43.09375 43.984375 
Q 39.0625 48.390625 32.421875 48.390625 
Q 24.90625 48.390625 20.390625 44.140625 
Q 15.875 39.890625 15.1875 32.171875 
z
" id="DejaVuSans-101"/>
      <path id="DejaVuSans-32"/>
      <path d="M 8.59375 75.984375 
L 29.296875 75.984375 
L 29.296875 69 
L 17.578125 69 
L 17.578125 -6.203125 
L 29.296875 -6.203125 
L 29.296875 -13.1875 
L 8.59375 -13.1875 
z
" id="DejaVuSans-91"/>
      <path d="M 44.28125 53.078125 
L 44.28125 44.578125 
Q 40.484375 46.53125 36.375 47.5 
Q 32.28125 48.484375 27.875 48.484375 
Q 21.1875 48.484375 17.84375 46.4375 
Q 14.5 44.390625 14.5 40.28125 
Q 14.5 37.15625 16.890625 35.375 
Q 19.28125 33.59375 26.515625 31.984375 
L 29.59375 31.296875 
Q 39.15625 29.25 43.1875 25.515625 
Q 47.21875 21.78125 47.21875 15.09375 
Q 47.21875 7.46875 41.1875 3.015625 
Q 35.15625 -1.421875 24.609375 -1.421875 
Q 20.21875 -1.421875 15.453125 -0.5625 
Q 10.6875 0.296875 5.421875 2 
L 5.421875 11.28125 
Q 10.40625 8.6875 15.234375 7.390625 
Q 20.0625 6.109375 24.8125 6.109375 
Q 31.15625 6.109375 34.5625 8.28125 
Q 37.984375 10.453125 37.984375 14.40625 
Q 37.984375 18.0625 35.515625 20.015625 
Q 33.0625 21.96875 24.703125 23.78125 
L 21.578125 24.515625 
Q 13.234375 26.265625 9.515625 29.90625 
Q 5.8125 33.546875 5.8125 39.890625 
Q 5.8125 47.609375 11.28125 51.796875 
Q 16.75 56 26.8125 56 
Q 31.78125 56 36.171875 55.265625 
Q 40.578125 54.546875 44.28125 53.078125 
z
" id="DejaVuSans-115"/>
      <path d="M 30.421875 75.984375 
L 30.421875 -13.1875 
L 9.71875 -13.1875 
L 9.71875 -6.203125 
L 21.390625 -6.203125 
L 21.390625 69 
L 9.71875 69 
L 9.71875 75.984375 
z
" id="DejaVuSans-93"/>
     </defs>
     <g transform="translate(234.038281 412.756563)scale(0.1 -0.1)">
      <use xlink:href="#DejaVuSans-116"/>
      <use x="39.208984" xlink:href="#DejaVuSans-105"/>
      <use x="66.992188" xlink:href="#DejaVuSans-109"/>
      <use x="164.404297" xlink:href="#DejaVuSans-101"/>
      <use x="225.927734" xlink:href="#DejaVuSans-32"/>
      <use x="257.714844" xlink:href="#DejaVuSans-91"/>
      <use x="296.728516" xlink:href="#DejaVuSans-109"/>
      <use x="394.140625" xlink:href="#DejaVuSans-115"/>
      <use x="446.240234" xlink:href="#DejaVuSans-93"/>
     </g>
    </g>
   </g>
   <g id="matplotlib.axis_2">
    <g id="ytick_1">
     <g id="line2d_6">
      <defs>
       <path d="M 0 0 
L -3.5 0 
" id="mb2664c807d" style="stroke:#000000;stroke-width:0.8;"/>
      </defs>
      <g>
       <use style="stroke:#000000;stroke-width:0.8;" x="63" xlink:href="#mb2664c807d" y="368.331951"/>
      </g>
     </g>
     <g id="text_7">
      <!-- −80 -->
      <defs>
       <path d="M 10.59375 35.5 
L 73.1875 35.5 
L 73.1875 27.203125 
L 10.59375 27.203125 
z
" id="DejaVuSans-8722"/>
      </defs>
      <g transform="translate(34.895313 372.131169)scale(0.1 -0.1)">
       <use xlink:href="#DejaVuSans-8722"/>
       <use x="83.789062" xlink:href="#DejaVuSans-56"/>
       <use x="147.412109" xlink:href="#DejaVuSans-48"/>
      </g>
     </g>
    </g>
    <g id="ytick_2">
     <g id="line2d_7">
      <g>
       <use style="stroke:#000000;stroke-width:0.8;" x="63" xlink:href="#mb2664c807d" y="315.605794"/>
      </g>
     </g>
     <g id="text_8">
      <!-- −60 -->
      <g transform="translate(34.895313 319.405013)scale(0.1 -0.1)">
       <use xlink:href="#DejaVuSans-8722"/>
       <use x="83.789062" xlink:href="#DejaVuSans-54"/>
       <use x="147.412109" xlink:href="#DejaVuSans-48"/>
      </g>
     </g>
    </g>
    <g id="ytick_3">
     <g id="line2d_8">
      <g>
       <use style="stroke:#000000;stroke-width:0.8;" x="63" xlink:href="#mb2664c807d" y="262.879637"/>
      </g>
     </g>
     <g id="text_9">
      <!-- −40 -->
      <g transform="translate(34.895313 266.678856)scale(0.1 -0.1)">
       <use xlink:href="#DejaVuSans-8722"/>
       <use x="83.789062" xlink:href="#DejaVuSans-52"/>
       <use x="147.412109" xlink:href="#DejaVuSans-48"/>
      </g>
     </g>
    </g>
    <g id="ytick_4">
     <g id="line2d_9">
      <g>
       <use style="stroke:#000000;stroke-width:0.8;" x="63" xlink:href="#mb2664c807d" y="210.15348"/>
      </g>
     </g>
     <g id="text_10">
      <!-- −20 -->
      <g transform="translate(34.895313 213.952699)scale(0.1 -0.1)">
       <use xlink:href="#DejaVuSans-8722"/>
       <use x="83.789062" xlink:href="#DejaVuSans-50"/>
       <use x="147.412109" xlink:href="#DejaVuSans-48"/>
      </g>
     </g>
    </g>
    <g id="ytick_5">
     <g id="line2d_10">
      <g>
       <use style="stroke:#000000;stroke-width:0.8;" x="63" xlink:href="#mb2664c807d" y="157.427323"/>
      </g>
     </g>
     <g id="text_11">
      <!-- 0 -->
      <g transform="translate(49.6375 161.226542)scale(0.1 -0.1)">
       <use xlink:href="#DejaVuSans-48"/>
      </g>
     </g>
    </g>
    <g id="ytick_6">
     <g id="line2d_11">
      <g>
       <use style="stroke:#000000;stroke-width:0.8;" x="63" xlink:href="#mb2664c807d" y="104.701167"/>
      </g>
     </g>
     <g id="text_12">
      <!-- 20 -->
      <g transform="translate(43.275 108.500385)scale(0.1 -0.1)">
       <use xlink:href="#DejaVuSans-50"/>
       <use x="63.623047" xlink:href="#DejaVuSans-48"/>
      </g>
     </g>
    </g>
    <g id="ytick_7">
     <g id="line2d_12">
      <g>
       <use style="stroke:#000000;stroke-width:0.8;" x="63" xlink:href="#mb2664c807d" y="51.97501"/>
      </g>
     </g>
     <g id="text_13">
      <!-- 40 -->
      <g transform="translate(43.275 55.774229)scale(0.1 -0.1)">
       <use xlink:href="#DejaVuSans-52"/>
       <use x="63.623047" xlink:href="#DejaVuSans-48"/>
      </g>
     </g>
    </g>
    <g id="text_14">
     <!-- Voltage [mV] -->
     <defs>
      <path d="M 28.609375 0 
L 0.78125 72.90625 
L 11.078125 72.90625 
L 34.1875 11.53125 
L 57.328125 72.90625 
L 67.578125 72.90625 
L 39.796875 0 
z
" id="DejaVuSans-86"/>
      <path d="M 30.609375 48.390625 
Q 23.390625 48.390625 19.1875 42.75 
Q 14.984375 37.109375 14.984375 27.296875 
Q 14.984375 17.484375 19.15625 11.84375 
Q 23.34375 6.203125 30.609375 6.203125 
Q 37.796875 6.203125 41.984375 11.859375 
Q 46.1875 17.53125 46.1875 27.296875 
Q 46.1875 37.015625 41.984375 42.703125 
Q 37.796875 48.390625 30.609375 48.390625 
z
M 30.609375 56 
Q 42.328125 56 49.015625 48.375 
Q 55.71875 40.765625 55.71875 27.296875 
Q 55.71875 13.875 49.015625 6.21875 
Q 42.328125 -1.421875 30.609375 -1.421875 
Q 18.84375 -1.421875 12.171875 6.21875 
Q 5.515625 13.875 5.515625 27.296875 
Q 5.515625 40.765625 12.171875 48.375 
Q 18.84375 56 30.609375 56 
z
" id="DejaVuSans-111"/>
      <path d="M 9.421875 75.984375 
L 18.40625 75.984375 
L 18.40625 0 
L 9.421875 0 
z
" id="DejaVuSans-108"/>
      <path d="M 34.28125 27.484375 
Q 23.390625 27.484375 19.1875 25 
Q 14.984375 22.515625 14.984375 16.5 
Q 14.984375 11.71875 18.140625 8.90625 
Q 21.296875 6.109375 26.703125 6.109375 
Q 34.1875 6.109375 38.703125 11.40625 
Q 43.21875 16.703125 43.21875 25.484375 
L 43.21875 27.484375 
z
M 52.203125 31.203125 
L 52.203125 0 
L 43.21875 0 
L 43.21875 8.296875 
Q 40.140625 3.328125 35.546875 0.953125 
Q 30.953125 -1.421875 24.3125 -1.421875 
Q 15.921875 -1.421875 10.953125 3.296875 
Q 6 8.015625 6 15.921875 
Q 6 25.140625 12.171875 29.828125 
Q 18.359375 34.515625 30.609375 34.515625 
L 43.21875 34.515625 
L 43.21875 35.40625 
Q 43.21875 41.609375 39.140625 45 
Q 35.0625 48.390625 27.6875 48.390625 
Q 23 48.390625 18.546875 47.265625 
Q 14.109375 46.140625 10.015625 43.890625 
L 10.015625 52.203125 
Q 14.9375 54.109375 19.578125 55.046875 
Q 24.21875 56 28.609375 56 
Q 40.484375 56 46.34375 49.84375 
Q 52.203125 43.703125 52.203125 31.203125 
z
" id="DejaVuSans-97"/>
      <path d="M 45.40625 27.984375 
Q 45.40625 37.75 41.375 43.109375 
Q 37.359375 48.484375 30.078125 48.484375 
Q 22.859375 48.484375 18.828125 43.109375 
Q 14.796875 37.75 14.796875 27.984375 
Q 14.796875 18.265625 18.828125 12.890625 
Q 22.859375 7.515625 30.078125 7.515625 
Q 37.359375 7.515625 41.375 12.890625 
Q 45.40625 18.265625 45.40625 27.984375 
z
M 54.390625 6.78125 
Q 54.390625 -7.171875 48.1875 -13.984375 
Q 42 -20.796875 29.203125 -20.796875 
Q 24.46875 -20.796875 20.265625 -20.09375 
Q 16.0625 -19.390625 12.109375 -17.921875 
L 12.109375 -9.1875 
Q 16.0625 -11.328125 19.921875 -12.34375 
Q 23.78125 -13.375 27.78125 -13.375 
Q 36.625 -13.375 41.015625 -8.765625 
Q 45.40625 -4.15625 45.40625 5.171875 
L 45.40625 9.625 
Q 42.625 4.78125 38.28125 2.390625 
Q 33.9375 0 27.875 0 
Q 17.828125 0 11.671875 7.65625 
Q 5.515625 15.328125 5.515625 27.984375 
Q 5.515625 40.671875 11.671875 48.328125 
Q 17.828125 56 27.875 56 
Q 33.9375 56 38.28125 53.609375 
Q 42.625 51.21875 45.40625 46.390625 
L 45.40625 54.6875 
L 54.390625 54.6875 
z
" id="DejaVuSans-103"/>
     </defs>
     <g transform="translate(28.815625 251.079531)rotate(-90)scale(0.1 -0.1)">
      <use xlink:href="#DejaVuSans-86"/>
      <use x="68.298828" xlink:href="#DejaVuSans-111"/>
      <use x="129.480469" xlink:href="#DejaVuSans-108"/>
      <use x="157.263672" xlink:href="#DejaVuSans-116"/>
      <use x="196.472656" xlink:href="#DejaVuSans-97"/>
      <use x="257.751953" xlink:href="#DejaVuSans-103"/>
      <use x="321.228516" xlink:href="#DejaVuSans-101"/>
      <use x="382.751953" xlink:href="#DejaVuSans-32"/>
      <use x="414.539062" xlink:href="#DejaVuSans-91"/>
      <use x="453.552734" xlink:href="#DejaVuSans-109"/>
      <use x="550.964844" xlink:href="#DejaVuSans-86"/>
      <use x="619.373047" xlink:href="#DejaVuSans-93"/>
     </g>
    </g>
   </g>
   <g id="line2d_13">
    <path clip-path="url(#pe52d39d80b)" d="M 80.754545 328.787333 
L 80.927147 328.846231 
L 81.893716 329.307505 
L 82.87508 329.464053 
L 84.852602 329.505839 
L 100.480448 329.449681 
L 100.633324 344.717128 
L 100.958801 355.185484 
L 101.392771 362.637633 
L 101.826741 366.659352 
L 102.221259 368.510682 
L 102.561531 369.207562 
L 102.842625 369.359932 
L 103.123719 369.25331 
L 103.5281 368.818975 
L 104.435492 367.412578 
L 105.490828 365.956535 
L 106.348904 365.144731 
L 107.241502 364.604543 
L 108.282043 364.241581 
L 109.657925 364.011436 
L 111.896815 363.890628 
L 118.218966 363.8566 
L 130.069303 363.854173 
L 130.222178 348.717021 
L 130.542724 338.71727 
L 130.966831 331.816757 
L 131.39587 328.099105 
L 131.810114 326.233754 
L 132.204632 325.372648 
L 132.569561 325.050766 
L 132.944353 325.005323 
L 133.432569 325.190137 
L 134.315303 325.810074 
L 136.312551 327.216761 
L 137.727884 327.914313 
L 139.320751 328.445659 
L 139.932254 328.596392 
L 140.045678 328.80995 
L 141.411697 329.383887 
L 142.629771 329.493902 
L 146.007832 329.490315 
L 159.663088 329.449681 
L 159.815964 326.393751 
L 160.146373 324.271618 
L 160.590206 322.760254 
L 161.063628 321.881191 
L 161.57157 321.383225 
L 162.17321 321.107286 
L 163.006629 320.988138 
L 164.594564 321.029091 
L 171.311234 321.311122 
L 180.967064 321.402006 
L 189.251943 321.416076 
L 189.404818 324.474838 
L 189.730296 326.567572 
L 190.169197 328.057824 
L 190.637687 328.923231 
L 191.145629 329.417254 
L 191.747269 329.690597 
L 192.595483 329.812192 
L 194.252459 329.778829 
L 199.114894 329.578411 
L 199.144483 328.783296 
L 199.228318 328.80995 
L 200.594337 329.383887 
L 201.812411 329.493902 
L 205.190472 329.490315 
L 218.845729 329.449681 
L 218.998604 323.336127 
L 219.329013 319.078426 
L 219.767914 316.048518 
L 220.236405 314.236939 
L 220.724621 313.176516 
L 221.242426 312.558121 
L 221.82434 312.205209 
L 222.539404 312.040041 
L 223.481316 312.063694 
L 224.960758 312.354041 
L 227.623755 312.86011 
L 230.370587 313.112862 
L 234.996311 313.288252 
L 244.297075 313.381077 
L 248.434583 313.39143 
L 248.59239 319.64274 
L 248.922799 323.864998 
L 249.356769 326.784569 
L 249.810465 328.449569 
L 250.274023 329.369565 
L 250.762239 329.869699 
L 251.324428 330.127434 
L 252.093738 330.21772 
L 253.543592 330.120235 
L 258.297534 329.726594 
L 258.327123 328.783296 
L 258.410958 328.80995 
L 259.776977 329.383887 
L 260.995051 329.493902 
L 264.373112 329.490315 
L 278.028369 329.449681 
L 278.181244 320.275864 
L 278.511653 313.848828 
L 278.97028 308.984347 
L 279.621235 304.651765 
L 279.729728 303.246945 
L 279.744522 297.676821 
L 279.813563 68.73887 
L 279.902329 202.216977 
L 280.084794 323.806802 
L 280.247533 326.722391 
L 280.296847 326.612406 
L 280.43986 325.508066 
L 280.90835 319.491481 
L 281.559305 312.401108 
L 282.091905 308.853305 
L 282.629435 306.684821 
L 283.285322 304.983488 
L 283.67984 303.783699 
L 283.753812 302.990015 
L 283.768606 298.758944 
L 283.81299 130.41003 
L 283.842578 75.683825 
L 283.911619 173.058838 
L 284.11381 322.045169 
L 284.28148 325.537168 
L 284.306137 325.551014 
L 284.35052 325.450853 
L 284.493533 324.45292 
L 284.957092 319.037929 
L 285.608047 312.600741 
L 286.130783 309.474592 
L 286.643657 307.650536 
L 287.186119 306.499671 
L 287.802553 305.705557 
L 288.729671 304.920016 
L 289.242544 304.356416 
L 289.420078 303.808084 
L 289.464461 303.182577 
L 289.479255 296.676444 
L 289.553227 80.88716 
L 289.637062 195.006594 
L 289.82939 319.895264 
L 290.001992 323.827305 
L 290.046375 323.88857 
L 290.09569 323.787648 
L 290.243634 322.85106 
L 290.736782 317.706468 
L 291.36801 312.262061 
L 291.890747 309.54862 
L 292.40362 307.979673 
L 292.941151 307.011449 
L 293.542791 306.374706 
L 294.277581 305.925126 
L 295.298397 305.576727 
L 297.004687 305.258873 
L 299.564123 304.772746 
L 299.978367 304.470688 
L 300.1559 304.06985 
L 300.220009 303.319315 
L 300.239735 284.367141 
L 300.308776 84.098748 
L 300.377817 171.345737 
L 300.584939 318.326485 
L 300.762472 322.801813 
L 300.821649 322.921239 
L 300.875896 322.818557 
L 301.028771 321.902867 
L 301.551508 316.818619 
L 302.167942 311.96829 
L 302.685747 309.516957 
L 303.198621 308.085799 
L 303.741083 307.1975 
L 304.352586 306.613547 
L 305.116965 306.198348 
L 306.196958 305.881565 
L 307.617223 305.658056 
L 307.77503 315.117867 
L 308.100508 321.446401 
L 308.524614 325.745633 
L 308.968447 328.17678 
L 309.417212 329.499919 
L 309.870907 330.200346 
L 310.359123 330.560706 
L 310.950901 330.712113 
L 311.838566 330.683841 
L 314.703754 330.242028 
L 317.480174 329.934326 
L 317.509763 328.783296 
L 317.593598 328.80995 
L 318.959617 329.383887 
L 320.177692 329.493902 
L 323.555752 329.490315 
L 337.211009 329.449681 
L 337.363884 317.211681 
L 337.699225 308.440222 
L 338.315659 295.928326 
L 338.35018 188.79432 
L 338.3847 67.468471 
L 338.458672 174.229786 
L 338.660863 321.943445 
L 338.784149 324.05372 
L 338.813738 324.002937 
L 338.917299 323.201591 
L 339.227982 318.538745 
L 340.071265 306.10985 
L 340.746877 299.740367 
L 341.023039 296.306439 
L 341.05756 293.525748 
L 341.09208 189.573076 
L 341.131532 74.192406 
L 341.200573 174.034816 
L 341.402763 321.778202 
L 341.540844 324.258187 
L 341.56057 324.232451 
L 341.649337 323.67227 
L 341.900842 320.263593 
L 342.887137 306.216394 
L 343.483846 301.228618 
L 344.021377 296.729291 
L 344.06576 294.703791 
L 344.085486 255.116375 
L 344.144664 79.491947 
L 344.218636 180.033322 
L 344.420826 319.468273 
L 344.578633 322.368561 
L 344.583565 322.366496 
L 344.642743 322.162225 
L 344.810413 320.521089 
L 346.309581 302.967323 
L 347.246562 295.817629 
L 347.266288 287.709513 
L 347.335328 83.486472 
L 347.4093 177.116872 
L 347.611491 317.376718 
L 347.779161 320.969996 
L 347.798887 320.974637 
L 347.838339 320.877089 
L 347.971489 319.872673 
L 348.380801 314.529426 
L 349.076139 306.464785 
L 349.64819 302.31225 
L 350.560513 296.419292 
L 350.585171 293.930971 
L 350.624623 172.699502 
L 350.664074 86.416873 
L 350.733115 172.509188 
L 350.940237 316.003414 
L 351.112839 319.969597 
L 351.142428 319.994744 
L 351.186811 319.891574 
L 351.324892 318.892321 
L 351.753931 313.583782 
L 352.434474 306.2148 
L 353.006525 302.332774 
L 353.982958 296.419185 
L 354.007615 291.477862 
L 354.081587 88.328592 
L 354.170354 197.618427 
L 354.35775 314.735147 
L 354.530351 319.216556 
L 354.574735 319.294608 
L 354.628981 319.16834 
L 354.781857 318.040822 
L 355.299662 311.830915 
L 355.935822 305.581688 
L 356.512805 302.013598 
L 357.449785 296.838391 
L 357.484305 293.887342 
L 357.523757 173.679973 
L 357.563209 89.645613 
L 357.63225 170.976986 
L 357.844303 314.27185 
L 358.021836 318.631667 
L 358.06622 318.707389 
L 358.120466 318.59037 
L 358.26841 317.563735 
L 358.741832 312.111359 
L 359.402649 305.677517 
L 359.974701 302.175613 
L 360.970859 296.772833 
L 361.000448 293.840688 
L 361.039899 173.597141 
L 361.079351 90.512952 
L 361.148392 170.741112 
L 361.360445 313.681477 
L 361.537978 318.241864 
L 361.592225 318.348177 
L 361.646471 318.229694 
L 361.799347 317.180256 
L 362.297426 311.561909 
L 362.943449 305.495722 
L 363.520432 302.080018 
L 364.506727 296.871723 
L 364.536316 294.976306 
L 364.565905 225.10839 
L 364.615219 91.188801 
L 364.689191 173.967683 
L 364.896313 313.135231 
L 365.073847 318.018816 
L 365.133024 318.16538 
L 365.18727 318.061492 
L 365.330283 317.135889 
L 365.764253 312.349101 
L 366.449728 305.749715 
L 366.799863 303.458893 
L 366.952739 315.050873 
L 367.25849 321.819514 
L 367.662871 326.254452 
L 368.09191 328.75067 
L 368.530811 330.105505 
L 368.969712 330.800852 
L 369.433271 331.14103 
L 369.985596 331.266337 
L 370.804221 331.200529 
L 373.186124 330.678074 
L 375.977339 330.207621 
L 376.662814 330.12312 
L 376.692403 328.783296 
L 376.776238 328.80995 
L 378.142257 329.383887 
L 379.360332 329.493902 
L 382.738393 329.490315 
L 396.393649 329.449681 
L 396.546525 314.141679 
L 396.891728 302.632125 
L 397.172822 293.161127 
L 397.187616 278.286339 
L 397.246794 66.96 
L 397.320766 176.272928 
L 397.518025 319.667909 
L 397.621586 321.41899 
L 397.661038 321.287662 
L 397.794188 319.728753 
L 398.252815 310.793867 
L 399.031988 297.355176 
L 399.298288 291.437667 
L 399.33774 283.467601 
L 399.401849 73.147067 
L 399.480753 188.020025 
L 399.67308 321.292535 
L 399.781573 323.122465 
L 399.821024 322.986194 
L 399.954174 321.431374 
L 400.388144 312.876808 
L 401.113071 300.186421 
L 401.616082 291.346114 
L 401.650602 287.252312 
L 401.685122 174.025151 
L 401.719643 78.651401 
L 401.793615 176.997153 
L 401.995805 319.027784 
L 402.119092 321.221513 
L 402.148681 321.14854 
L 402.262105 320.086663 
L 402.602377 314.143687 
L 403.421002 300.44453 
L 403.993053 291.416898 
L 404.032505 286.0899 
L 404.101545 82.63718 
L 404.195243 206.720239 
L 404.372777 316.808851 
L 404.515789 319.786442 
L 404.530584 319.772208 
L 404.604556 319.347603 
L 404.816609 316.466371 
L 406.093862 297.017497 
L 406.409476 291.942432 
L 406.458791 288.015452 
L 406.48838 211.981515 
L 406.532763 85.489488 
L 406.606735 176.134885 
L 406.808926 315.459523 
L 406.961801 318.630699 
L 406.971664 318.626424 
L 407.030842 318.382557 
L 407.203444 316.43646 
L 408.909734 290.27414 
L 408.92946 284.751067 
L 408.998501 87.541902 
L 409.082336 189.344017 
L 409.279595 314.476784 
L 409.442334 317.753566 
L 409.486717 317.649359 
L 409.614935 316.549438 
L 409.994659 310.773721 
L 410.763969 299.952176 
L 411.375472 291.686581 
L 411.419855 285.659848 
L 411.493827 89.076178 
L 411.577663 194.041892 
L 411.76999 313.544981 
L 411.93766 317.173575 
L 411.962318 317.159128 
L 411.986975 317.084418 
L 412.115193 316.045005 
L 412.485054 310.625771 
L 413.269159 299.881899 
L 413.885593 291.767142 
L 413.929976 286.566104 
L 414.003949 89.934673 
L 414.097647 206.410431 
L 414.270248 312.085995 
L 414.437918 316.711567 
L 414.467507 316.748958 
L 414.516822 316.613648 
L 414.659835 315.365334 
L 415.103668 308.829488 
L 415.833526 299.359334 
L 416.400646 292.125671 
L 416.449961 288.725211 
L 416.474618 232.636179 
L 416.528864 90.533953 
L 416.602836 177.737572 
L 416.809958 312.650747 
L 416.977628 316.441767 
L 417.002286 316.453719 
L 417.041738 316.350888 
L 417.174887 315.281048 
L 417.559543 309.818746 
L 418.333784 299.673086 
L 418.940356 291.996689 
L 418.989671 286.685396 
L 419.063643 90.929837 
L 419.157341 205.257706 
L 419.334874 311.605425 
L 419.507475 316.20837 
L 419.537064 316.245303 
L 419.586379 316.118453 
L 419.729392 314.921088 
L 420.15843 308.798991 
L 420.898152 299.392477 
L 421.475134 292.230209 
L 421.529381 287.859994 
L 421.568832 160.201677 
L 421.603353 91.174532 
L 421.672393 167.588669 
L 421.884447 311.814273 
L 422.057048 315.971896 
L 422.081706 315.9964 
L 422.131021 315.873648 
L 422.274033 314.696996 
L 422.703072 308.657092 
L 423.447725 299.305711 
L 424.019776 292.24534 
L 424.074022 287.965619 
L 424.108542 186.775541 
L 424.147994 91.3457 
L 424.221966 174.026066 
L 424.429088 311.621406 
L 424.60169 315.865342 
L 424.631279 315.895375 
L 424.675662 315.786339 
L 424.813743 314.690824 
L 425.213193 309.153305 
L 425.977572 299.484518 
L 425.982503 299.433073 
L 426.135379 313.582121 
L 426.431267 321.217103 
L 426.825785 326.114236 
L 427.249892 328.867538 
L 427.678931 330.337836 
L 428.112901 331.099706 
L 428.561665 331.464187 
L 429.084401 331.597887 
L 429.829054 331.535543 
L 431.540276 331.099368 
L 434.252588 330.49013 
L 435.845455 330.240842 
L 435.845455 330.240842 
" style="fill:none;stroke:#ff0000;stroke-linecap:square;stroke-width:1.5;"/>
   </g>
   <g id="patch_3">
    <path d="M 63 384.48 
L 63 51.84 
" style="fill:none;stroke:#000000;stroke-linecap:square;stroke-linejoin:miter;stroke-width:0.8;"/>
   </g>
   <g id="patch_4">
    <path d="M 453.6 384.48 
L 453.6 51.84 
" style="fill:none;stroke:#000000;stroke-linecap:square;stroke-linejoin:miter;stroke-width:0.8;"/>
   </g>
   <g id="patch_5">
    <path d="M 63 384.48 
L 453.6 384.48 
" style="fill:none;stroke:#000000;stroke-linecap:square;stroke-linejoin:miter;stroke-width:0.8;"/>
   </g>
   <g id="patch_6">
    <path d="M 63 51.84 
L 453.6 51.84 
" style="fill:none;stroke:#000000;stroke-linecap:square;stroke-linejoin:miter;stroke-width:0.8;"/>
   </g>
   <g id="legend_1">
    <g id="patch_7">
     <path d="M 70 74.518125 
L 133.139062 74.518125 
Q 135.139062 74.518125 135.139062 72.518125 
L 135.139062 58.84 
Q 135.139062 56.84 133.139062 56.84 
L 70 56.84 
Q 68 56.84 68 58.84 
L 68 72.518125 
Q 68 74.518125 70 74.518125 
z
" style="fill:#ffffff;opacity:0.8;stroke:#cccccc;stroke-linejoin:miter;"/>
    </g>
    <g id="line2d_14">
     <path d="M 72 64.938438 
L 92 64.938438 
" style="fill:none;stroke:#ff0000;stroke-linecap:square;stroke-width:1.5;"/>
    </g>
    <g id="line2d_15"/>
    <g id="text_15">
     <!-- model -->
     <defs>
      <path d="M 45.40625 46.390625 
L 45.40625 75.984375 
L 54.390625 75.984375 
L 54.390625 0 
L 45.40625 0 
L 45.40625 8.203125 
Q 42.578125 3.328125 38.25 0.953125 
Q 33.9375 -1.421875 27.875 -1.421875 
Q 17.96875 -1.421875 11.734375 6.484375 
Q 5.515625 14.40625 5.515625 27.296875 
Q 5.515625 40.1875 11.734375 48.09375 
Q 17.96875 56 27.875 56 
Q 33.9375 56 38.25 53.625 
Q 42.578125 51.265625 45.40625 46.390625 
z
M 14.796875 27.296875 
Q 14.796875 17.390625 18.875 11.75 
Q 22.953125 6.109375 30.078125 6.109375 
Q 37.203125 6.109375 41.296875 11.75 
Q 45.40625 17.390625 45.40625 27.296875 
Q 45.40625 37.203125 41.296875 42.84375 
Q 37.203125 48.484375 30.078125 48.484375 
Q 22.953125 48.484375 18.875 42.84375 
Q 14.796875 37.203125 14.796875 27.296875 
z
" id="DejaVuSans-100"/>
     </defs>
     <g transform="translate(100 68.438438)scale(0.1 -0.1)">
      <use xlink:href="#DejaVuSans-109"/>
      <use x="97.412109" xlink:href="#DejaVuSans-111"/>
      <use x="158.59375" xlink:href="#DejaVuSans-100"/>
      <use x="222.070312" xlink:href="#DejaVuSans-101"/>
      <use x="283.59375" xlink:href="#DejaVuSans-108"/>
     </g>
    </g>
   </g>
  </g>
 </g>
 <defs>
  <clipPath id="pe52d39d80b">
   <rect height="332.64" width="390.6" x="63" y="51.84"/>
  </clipPath>
 </defs>
</svg>
